<?xml version="1.0" encoding="UTF-8" standalone="no"?>
<!DOCTYPE svg PUBLIC "-//W3C//DTD SVG 1.1//EN"
 "http://www.w3.org/Graphics/SVG/1.1/DTD/svg11.dtd">
<!-- Generated by graphviz version 9.0.0 (20230911.1827)
 -->
<!-- Title: Ajax/Logging/Api.h Pages: 1 -->
<svg width="1013pt" height="193pt"
 viewBox="0.00 0.00 1013.12 193.00" xmlns="http://www.w3.org/2000/svg" xmlns:xlink="http://www.w3.org/1999/xlink">
<g id="graph0" class="graph" transform="scale(1 1) rotate(0) translate(4 189)">
<title>Ajax/Logging/Api.h</title>
<!-- Node1 -->
<g id="Node000001" class="node">
<title>Node1</title>
<g id="a_Node000001"><a xlink:title=" ">
<polygon fill="#999999" stroke="#666666" points="549.62,-185 452.62,-185 452.62,-165.75 549.62,-165.75 549.62,-185"/>
<text text-anchor="middle" x="501.12" y="-171.5" font-family="Helvetica,sans-Serif" font-size="10.00">Ajax/Logging/Api.h</text>
</a>
</g>
</g>
<!-- Node2 -->
<g id="Node000002" class="node">
<title>Node2</title>
<g id="a_Node000002"><a xlink:href="_category_id_8h.html" target="_top" xlink:title=" ">
<polygon fill="white" stroke="#666666" points="565.75,-129.75 436.5,-129.75 436.5,-110.5 565.75,-110.5 565.75,-129.75"/>
<text text-anchor="middle" x="501.12" y="-116.25" font-family="Helvetica,sans-Serif" font-size="10.00">Ajax/Logging/CategoryId.h</text>
</a>
</g>
</g>
<!-- Node1&#45;&gt;Node2 -->
<g id="edge1_Node000001_Node000002" class="edge">
<title>Node1&#45;&gt;Node2</title>
<g id="a_edge1_Node000001_Node000002"><a xlink:title=" ">
<path fill="none" stroke="#63b8ff" d="M501.12,-165.58C501.12,-159.07 501.12,-149.92 501.12,-141.62"/>
<polygon fill="#63b8ff" stroke="#63b8ff" points="504.63,-141.62 501.13,-131.62 497.63,-141.62 504.63,-141.62"/>
</a>
</g>
</g>
<!-- Node6 -->
<g id="Node000006" class="node">
<title>Node6</title>
<g id="a_Node000006"><a xlink:href="_critical_msg_8h.html" target="_top" xlink:title=" ">
<polygon fill="white" stroke="#666666" points="714.88,-129.75 583.38,-129.75 583.38,-110.5 714.88,-110.5 714.88,-129.75"/>
<text text-anchor="middle" x="649.12" y="-116.25" font-family="Helvetica,sans-Serif" font-size="10.00">Ajax/Logging/CriticalMsg.h</text>
</a>
</g>
</g>
<!-- Node1&#45;&gt;Node6 -->
<g id="edge5_Node000001_Node000006" class="edge">
<title>Node1&#45;&gt;Node6</title>
<g id="a_edge5_Node000001_Node000006"><a xlink:title=" ">
<path fill="none" stroke="#63b8ff" d="M526.23,-165.34C550.15,-156.74 586.41,-143.69 613.35,-134"/>
<polygon fill="#63b8ff" stroke="#63b8ff" points="614.25,-137.39 622.47,-130.71 611.88,-130.81 614.25,-137.39"/>
</a>
</g>
</g>
<!-- Node7 -->
<g id="Node000007" class="node">
<title>Node7</title>
<g id="a_Node000007"><a xlink:href="_warning_msg_8h.html" target="_top" xlink:title=" ">
<polygon fill="white" stroke="#666666" points="869.5,-129.75 732.75,-129.75 732.75,-110.5 869.5,-110.5 869.5,-129.75"/>
<text text-anchor="middle" x="801.12" y="-116.25" font-family="Helvetica,sans-Serif" font-size="10.00">Ajax/Logging/WarningMsg.h</text>
</a>
</g>
</g>
<!-- Node1&#45;&gt;Node7 -->
<g id="edge8_Node000001_Node000007" class="edge">
<title>Node1&#45;&gt;Node7</title>
<g id="a_edge8_Node000001_Node000007"><a xlink:title=" ">
<path fill="none" stroke="#63b8ff" d="M549.99,-165.7C601.41,-156.57 682.49,-142.18 738.55,-132.23"/>
<polygon fill="#63b8ff" stroke="#63b8ff" points="739.04,-135.7 748.27,-130.51 737.82,-128.81 739.04,-135.7"/>
</a>
</g>
</g>
<!-- Node8 -->
<g id="Node000008" class="node">
<title>Node8</title>
<g id="a_Node000008"><a xlink:href="_event_msg_8h.html" target="_top" xlink:title=" ">
<polygon fill="white" stroke="#666666" points="126.25,-129.75 0,-129.75 0,-110.5 126.25,-110.5 126.25,-129.75"/>
<text text-anchor="middle" x="63.12" y="-116.25" font-family="Helvetica,sans-Serif" font-size="10.00">Ajax/Logging/EventMsg.h</text>
</a>
</g>
</g>
<!-- Node1&#45;&gt;Node8 -->
<g id="edge11_Node000001_Node000008" class="edge">
<title>Node1&#45;&gt;Node8</title>
<g id="a_edge11_Node000001_Node000008"><a xlink:title=" ">
<path fill="none" stroke="#63b8ff" d="M452.16,-168.42C375.73,-159.13 227.57,-141.12 137.78,-130.2"/>
<polygon fill="#63b8ff" stroke="#63b8ff" points="138.44,-126.76 128.09,-129.02 137.6,-133.7 138.44,-126.76"/>
</a>
</g>
</g>
<!-- Node9 -->
<g id="Node000009" class="node">
<title>Node9</title>
<g id="a_Node000009"><a xlink:href="_alert_msg_8h.html" target="_top" xlink:title=" ">
<polygon fill="white" stroke="#666666" points="266,-129.75 144.25,-129.75 144.25,-110.5 266,-110.5 266,-129.75"/>
<text text-anchor="middle" x="205.12" y="-116.25" font-family="Helvetica,sans-Serif" font-size="10.00">Ajax/Logging/AlertMsg.h</text>
</a>
</g>
</g>
<!-- Node1&#45;&gt;Node9 -->
<g id="edge14_Node000001_Node000009" class="edge">
<title>Node1&#45;&gt;Node9</title>
<g id="a_edge14_Node000001_Node000009"><a xlink:title=" ">
<path fill="none" stroke="#63b8ff" d="M452.25,-165.58C401.4,-156.43 321.66,-142.09 266.58,-132.18"/>
<polygon fill="#63b8ff" stroke="#63b8ff" points="267.51,-128.79 257.05,-130.47 266.27,-135.68 267.51,-128.79"/>
</a>
</g>
</g>
<!-- Node10 -->
<g id="Node000010" class="node">
<title>Node10</title>
<g id="a_Node000010"><a xlink:href="_info_msg_8h.html" target="_top" xlink:title=" ">
<polygon fill="white" stroke="#666666" points="1005.12,-129.75 887.12,-129.75 887.12,-110.5 1005.12,-110.5 1005.12,-129.75"/>
<text text-anchor="middle" x="946.12" y="-116.25" font-family="Helvetica,sans-Serif" font-size="10.00">Ajax/Logging/InfoMsg.h</text>
</a>
</g>
</g>
<!-- Node1&#45;&gt;Node10 -->
<g id="edge17_Node000001_Node000010" class="edge">
<title>Node1&#45;&gt;Node10</title>
<g id="a_edge17_Node000001_Node000010"><a xlink:title=" ">
<path fill="none" stroke="#63b8ff" d="M549.94,-168.73C619.72,-160.63 752.31,-145.13 875.65,-130.04"/>
<polygon fill="#63b8ff" stroke="#63b8ff" points="875.79,-133.55 885.29,-128.86 874.94,-126.61 875.79,-133.55"/>
</a>
</g>
</g>
<!-- Node11 -->
<g id="Node000011" class="node">
<title>Node11</title>
<g id="a_Node000011"><a xlink:href="_metrics_msg_8h.html" target="_top" xlink:title=" ">
<polygon fill="white" stroke="#666666" points="418,-129.75 284.25,-129.75 284.25,-110.5 418,-110.5 418,-129.75"/>
<text text-anchor="middle" x="351.12" y="-116.25" font-family="Helvetica,sans-Serif" font-size="10.00">Ajax/Logging/MetricsMsg.h</text>
</a>
</g>
</g>
<!-- Node1&#45;&gt;Node11 -->
<g id="edge19_Node000001_Node000011" class="edge">
<title>Node1&#45;&gt;Node11</title>
<g id="a_edge19_Node000001_Node000011"><a xlink:title=" ">
<path fill="none" stroke="#63b8ff" d="M475.68,-165.34C451.44,-156.74 414.69,-143.69 387.39,-134"/>
<polygon fill="#63b8ff" stroke="#63b8ff" points="388.72,-130.76 378.12,-130.71 386.37,-137.35 388.72,-130.76"/>
</a>
</g>
</g>
<!-- Node3 -->
<g id="Node000003" class="node">
<title>Node3</title>
<g id="a_Node000003"><a xlink:href="enum_8h_source.html" target="_top" xlink:title=" ">
<polygon fill="white" stroke="#666666" points="545.5,-74.5 456.75,-74.5 456.75,-55.25 545.5,-55.25 545.5,-74.5"/>
<text text-anchor="middle" x="501.12" y="-61" font-family="Helvetica,sans-Serif" font-size="10.00">Cpl/Type/enum.h</text>
</a>
</g>
</g>
<!-- Node2&#45;&gt;Node3 -->
<g id="edge2_Node000002_Node000003" class="edge">
<title>Node2&#45;&gt;Node3</title>
<g id="a_edge2_Node000002_Node000003"><a xlink:title=" ">
<path fill="none" stroke="#63b8ff" d="M501.12,-110.33C501.12,-103.82 501.12,-94.67 501.12,-86.37"/>
<polygon fill="#63b8ff" stroke="#63b8ff" points="504.63,-86.37 501.13,-76.37 497.63,-86.37 504.63,-86.37"/>
</a>
</g>
</g>
<!-- Node5 -->
<g id="Node000005" class="node">
<title>Node5</title>
<g id="a_Node000005"><a xlink:title=" ">
<polygon fill="#e0e0e0" stroke="#999999" points="406.88,-74.5 359.38,-74.5 359.38,-55.25 406.88,-55.25 406.88,-74.5"/>
<text text-anchor="middle" x="383.12" y="-61" font-family="Helvetica,sans-Serif" font-size="10.00">stdint.h</text>
</a>
</g>
</g>
<!-- Node2&#45;&gt;Node5 -->
<g id="edge4_Node000002_Node000005" class="edge">
<title>Node2&#45;&gt;Node5</title>
<g id="a_edge4_Node000002_Node000005"><a xlink:title=" ">
<path fill="none" stroke="#63b8ff" d="M481.11,-110.09C462.63,-101.75 434.92,-89.25 413.68,-79.66"/>
<polygon fill="#63b8ff" stroke="#63b8ff" points="415.17,-76.5 404.62,-75.58 412.3,-82.88 415.17,-76.5"/>
</a>
</g>
</g>
<!-- Node4 -->
<g id="Node000004" class="node">
<title>Node4</title>
<g id="a_Node000004"><a xlink:title=" ">
<polygon fill="#e0e0e0" stroke="#999999" points="542.12,-19.25 460.12,-19.25 460.12,0 542.12,0 542.12,-19.25"/>
<text text-anchor="middle" x="501.12" y="-5.75" font-family="Helvetica,sans-Serif" font-size="10.00">colony_config.h</text>
</a>
</g>
</g>
<!-- Node3&#45;&gt;Node4 -->
<g id="edge3_Node000003_Node000004" class="edge">
<title>Node3&#45;&gt;Node4</title>
<g id="a_edge3_Node000003_Node000004"><a xlink:title=" ">
<path fill="none" stroke="#63b8ff" d="M501.12,-55.08C501.12,-48.57 501.12,-39.42 501.12,-31.12"/>
<polygon fill="#63b8ff" stroke="#63b8ff" points="504.63,-31.12 501.13,-21.12 497.63,-31.12 504.63,-31.12"/>
</a>
</g>
</g>
<!-- Node6&#45;&gt;Node3 -->
<g id="edge6_Node000006_Node000003" class="edge">
<title>Node6&#45;&gt;Node3</title>
<g id="a_edge6_Node000006_Node000003"><a xlink:title=" ">
<path fill="none" stroke="#63b8ff" d="M624.02,-110.09C600.1,-101.49 563.84,-88.44 536.9,-78.75"/>
<polygon fill="#63b8ff" stroke="#63b8ff" points="538.37,-75.56 527.78,-75.46 536,-82.14 538.37,-75.56"/>
</a>
</g>
</g>
<!-- Node6&#45;&gt;Node5 -->
<g id="edge7_Node000006_Node000005" class="edge">
<title>Node6&#45;&gt;Node5</title>
<g id="a_edge7_Node000006_Node000005"><a xlink:title=" ">
<path fill="none" stroke="#63b8ff" d="M603.7,-110.03C551.2,-99.52 465.92,-82.45 418.24,-72.9"/>
<polygon fill="#63b8ff" stroke="#63b8ff" points="419.23,-69.53 408.74,-71 417.86,-76.4 419.23,-69.53"/>
</a>
</g>
</g>
<!-- Node7&#45;&gt;Node3 -->
<g id="edge9_Node000007_Node000003" class="edge">
<title>Node7&#45;&gt;Node3</title>
<g id="a_edge9_Node000007_Node000003"><a xlink:title=" ">
<path fill="none" stroke="#63b8ff" d="M749.89,-110.03C696.19,-100.5 612.09,-85.57 556.78,-75.75"/>
<polygon fill="#63b8ff" stroke="#63b8ff" points="557.73,-72.37 547.27,-74.07 556.51,-79.26 557.73,-72.37"/>
</a>
</g>
</g>
<!-- Node7&#45;&gt;Node5 -->
<g id="edge10_Node000007_Node000005" class="edge">
<title>Node7&#45;&gt;Node5</title>
<g id="a_edge10_Node000007_Node000005"><a xlink:title=" ">
<path fill="none" stroke="#63b8ff" d="M732.45,-110.57C661.3,-101.68 546.91,-87.3 448.12,-74.5 438.49,-73.25 428.06,-71.88 418.44,-70.6"/>
<polygon fill="#63b8ff" stroke="#63b8ff" points="419.07,-67.15 408.7,-69.3 418.15,-74.09 419.07,-67.15"/>
</a>
</g>
</g>
<!-- Node8&#45;&gt;Node3 -->
<g id="edge12_Node000008_Node000003" class="edge">
<title>Node8&#45;&gt;Node3</title>
<g id="a_edge12_Node000008_Node000003"><a xlink:title=" ">
<path fill="none" stroke="#63b8ff" d="M126.35,-111.44C211.9,-101.04 363.21,-82.64 444.96,-72.7"/>
<polygon fill="#63b8ff" stroke="#63b8ff" points="445.25,-76.19 454.76,-71.51 444.41,-69.24 445.25,-76.19"/>
</a>
</g>
</g>
<!-- Node8&#45;&gt;Node5 -->
<g id="edge13_Node000008_Node000005" class="edge">
<title>Node8&#45;&gt;Node5</title>
<g id="a_edge13_Node000008_Node000005"><a xlink:title=" ">
<path fill="none" stroke="#63b8ff" d="M117.77,-110.03C183.6,-99.08 292.26,-81 347.9,-71.74"/>
<polygon fill="#63b8ff" stroke="#63b8ff" points="348.15,-75.24 357.44,-70.15 347,-68.34 348.15,-75.24"/>
</a>
</g>
</g>
<!-- Node9&#45;&gt;Node3 -->
<g id="edge15_Node000009_Node000003" class="edge">
<title>Node9&#45;&gt;Node3</title>
<g id="a_edge15_Node000009_Node000003"><a xlink:title=" ">
<path fill="none" stroke="#63b8ff" d="M255.67,-110.03C308.39,-100.55 390.81,-85.72 445.39,-75.9"/>
<polygon fill="#63b8ff" stroke="#63b8ff" points="445.88,-79.37 455.1,-74.15 444.64,-72.48 445.88,-79.37"/>
</a>
</g>
</g>
<!-- Node9&#45;&gt;Node5 -->
<g id="edge16_Node000009_Node000005" class="edge">
<title>Node9&#45;&gt;Node5</title>
<g id="a_edge16_Node000009_Node000005"><a xlink:title=" ">
<path fill="none" stroke="#63b8ff" d="M235.32,-110.09C266.55,-100.75 315.27,-86.17 348.16,-76.34"/>
<polygon fill="#63b8ff" stroke="#63b8ff" points="349.05,-79.72 357.62,-73.5 347.04,-73.02 349.05,-79.72"/>
</a>
</g>
</g>
<!-- Node10&#45;&gt;Node3 -->
<g id="edge18_Node000010_Node000003" class="edge">
<title>Node10&#45;&gt;Node3</title>
<g id="a_edge18_Node000010_Node000003"><a xlink:title=" ">
<path fill="none" stroke="#63b8ff" d="M886.79,-111.57C883.86,-111.21 880.96,-110.85 878.12,-110.5 764.18,-96.53 630.76,-80.91 557.12,-72.36"/>
<polygon fill="#63b8ff" stroke="#63b8ff" points="557.67,-68.9 547.33,-71.22 556.86,-75.85 557.67,-68.9"/>
</a>
</g>
</g>
<!-- Node11&#45;&gt;Node3 -->
<g id="edge20_Node000011_Node000003" class="edge">
<title>Node11&#45;&gt;Node3</title>
<g id="a_edge20_Node000011_Node000003"><a xlink:title=" ">
<path fill="none" stroke="#63b8ff" d="M376.57,-110.09C400.81,-101.49 437.56,-88.44 464.86,-78.75"/>
<polygon fill="#63b8ff" stroke="#63b8ff" points="465.88,-82.1 474.13,-75.46 463.53,-75.51 465.88,-82.1"/>
</a>
</g>
</g>
<!-- Node11&#45;&gt;Node5 -->
<g id="edge21_Node000011_Node000005" class="edge">
<title>Node11&#45;&gt;Node5</title>
<g id="a_edge21_Node000011_Node000005"><a xlink:title=" ">
<path fill="none" stroke="#63b8ff" d="M356.41,-110.33C360.6,-103.36 366.6,-93.37 371.86,-84.62"/>
<polygon fill="#63b8ff" stroke="#63b8ff" points="374.8,-86.53 376.95,-76.16 368.8,-82.93 374.8,-86.53"/>
</a>
</g>
</g>
</g>
</svg>
