<?xml version="1.0" encoding="UTF-8" standalone="no"?>
<!DOCTYPE svg PUBLIC "-//W3C//DTD SVG 1.1//EN"
 "http://www.w3.org/Graphics/SVG/1.1/DTD/svg11.dtd">
<!-- Generated by graphviz version 9.0.0 (20230911.1827)
 -->
<!-- Title: Ajax/Heating/Flc/Api.h Pages: 1 -->
<svg width="2035pt" height="469pt"
 viewBox="0.00 0.00 2034.50 469.25" xmlns="http://www.w3.org/2000/svg" xmlns:xlink="http://www.w3.org/1999/xlink">
<g id="graph0" class="graph" transform="scale(1 1) rotate(0) translate(4 465.25)">
<title>Ajax/Heating/Flc/Api.h</title>
<!-- Node1 -->
<g id="Node000001" class="node">
<title>Node1</title>
<g id="a_Node000001"><a xlink:title=" ">
<polygon fill="#999999" stroke="#666666" points="112.75,-461.25 0,-461.25 0,-442 112.75,-442 112.75,-461.25"/>
<text text-anchor="middle" x="56.38" y="-447.75" font-family="Helvetica,sans-Serif" font-size="10.00">Ajax/Heating/Flc/Api.h</text>
</a>
</g>
</g>
<!-- Node2 -->
<g id="Node000002" class="node">
<title>Node2</title>
<g id="a_Node000002"><a xlink:title=" ">
<polygon fill="#e0e0e0" stroke="#999999" points="168.38,-19.25 86.38,-19.25 86.38,0 168.38,0 168.38,-19.25"/>
<text text-anchor="middle" x="127.38" y="-5.75" font-family="Helvetica,sans-Serif" font-size="10.00">colony_config.h</text>
</a>
</g>
</g>
<!-- Node1&#45;&gt;Node2 -->
<g id="edge1_Node000001_Node000002" class="edge">
<title>Node1&#45;&gt;Node2</title>
<g id="a_edge1_Node000001_Node000002"><a xlink:title=" ">
<path fill="none" stroke="#63b8ff" d="M50.03,-441.53C38.07,-423.47 13.38,-381.43 13.38,-342.12 13.38,-342.12 13.38,-342.12 13.38,-119.12 13.38,-73.88 61.07,-41.78 94.76,-24.74"/>
<polygon fill="#63b8ff" stroke="#63b8ff" points="96.27,-27.89 103.76,-20.4 93.23,-21.59 96.27,-27.89"/>
</a>
</g>
</g>
<!-- Node3 -->
<g id="Node000003" class="node">
<title>Node3</title>
<g id="a_Node000003"><a xlink:href="_mp_flc_config_8h.html" target="_top" xlink:title=" ">
<polygon fill="white" stroke="#666666" points="159,-406 41.75,-406 41.75,-386.75 159,-386.75 159,-406"/>
<text text-anchor="middle" x="100.38" y="-392.5" font-family="Helvetica,sans-Serif" font-size="10.00">Ajax/Dm/MpFlcConfig.h</text>
</a>
</g>
</g>
<!-- Node1&#45;&gt;Node3 -->
<g id="edge2_Node000001_Node000003" class="edge">
<title>Node1&#45;&gt;Node3</title>
<g id="a_edge2_Node000001_Node000003"><a xlink:title=" ">
<path fill="none" stroke="#63b8ff" d="M63.64,-441.83C69.66,-434.55 78.39,-423.98 85.83,-414.98"/>
<polygon fill="#63b8ff" stroke="#63b8ff" points="88.32,-417.46 91.99,-407.53 82.92,-413.01 88.32,-417.46"/>
</a>
</g>
</g>
<!-- Node4 -->
<g id="Node000004" class="node">
<title>Node4</title>
<g id="a_Node000004"><a xlink:href="_model_point_common___8h.html" target="_top" xlink:title=" ">
<polygon fill="white" stroke="#666666" points="797.25,-350.75 645.5,-350.75 645.5,-331.5 797.25,-331.5 797.25,-350.75"/>
<text text-anchor="middle" x="721.38" y="-337.25" font-family="Helvetica,sans-Serif" font-size="10.00">Cpl/Dm/ModelPointCommon_.h</text>
</a>
</g>
</g>
<!-- Node3&#45;&gt;Node4 -->
<g id="edge3_Node000003_Node000004" class="edge">
<title>Node3&#45;&gt;Node4</title>
<g id="a_edge3_Node000003_Node000004"><a xlink:title=" ">
<path fill="none" stroke="#63b8ff" d="M159.36,-390.32C269.12,-380.9 505.25,-360.66 633.74,-349.64"/>
<polygon fill="#63b8ff" stroke="#63b8ff" points="633.9,-353.14 643.56,-348.8 633.3,-346.16 633.9,-353.14"/>
</a>
</g>
</g>
<!-- Node37 -->
<g id="Node000037" class="node">
<title>Node37</title>
<g id="a_Node000037"><a xlink:href="_config_8h.html" target="_top" xlink:title=" ">
<polygon fill="white" stroke="#666666" points="319.12,-129.75 193.62,-129.75 193.62,-110.5 319.12,-110.5 319.12,-129.75"/>
<text text-anchor="middle" x="256.38" y="-116.25" font-family="Helvetica,sans-Serif" font-size="10.00">Ajax/Heating/Flc/Config.h</text>
</a>
</g>
</g>
<!-- Node3&#45;&gt;Node37 -->
<g id="edge67_Node000003_Node000037" class="edge">
<title>Node3&#45;&gt;Node37</title>
<g id="a_edge67_Node000003_Node000037"><a xlink:title=" ">
<path fill="none" stroke="#63b8ff" d="M98.85,-386.4C95.82,-367.87 89.38,-323.98 89.38,-286.88 89.38,-286.88 89.38,-286.88 89.38,-229.62 89.38,-175.74 151.28,-147.25 199.71,-133.21"/>
<polygon fill="#63b8ff" stroke="#63b8ff" points="200.56,-136.6 209.28,-130.58 198.71,-129.85 200.56,-136.6"/>
</a>
</g>
</g>
<!-- Node5 -->
<g id="Node000005" class="node">
<title>Node5</title>
<g id="a_Node000005"><a xlink:href="_model_point_8h.html" target="_top" xlink:title=" ">
<polygon fill="white" stroke="#666666" points="693.12,-240.25 585.62,-240.25 585.62,-221 693.12,-221 693.12,-240.25"/>
<text text-anchor="middle" x="639.38" y="-226.75" font-family="Helvetica,sans-Serif" font-size="10.00">Cpl/Dm/ModelPoint.h</text>
</a>
</g>
</g>
<!-- Node4&#45;&gt;Node5 -->
<g id="edge4_Node000004_Node000005" class="edge">
<title>Node4&#45;&gt;Node5</title>
<g id="a_edge4_Node000004_Node000005"><a xlink:title=" ">
<path fill="none" stroke="#63b8ff" d="M714.66,-331.25C701.21,-313.44 670.71,-273.08 652.93,-249.56"/>
<polygon fill="#63b8ff" stroke="#63b8ff" points="655.91,-247.7 647.09,-241.83 650.33,-251.92 655.91,-247.7"/>
</a>
</g>
</g>
<!-- Node12 -->
<g id="Node000012" class="node">
<title>Node12</title>
<g id="a_Node000012"><a xlink:title=" ">
<polygon fill="#e0e0e0" stroke="#999999" points="745.12,-19.25 697.62,-19.25 697.62,0 745.12,0 745.12,-19.25"/>
<text text-anchor="middle" x="721.38" y="-5.75" font-family="Helvetica,sans-Serif" font-size="10.00">stdint.h</text>
</a>
</g>
</g>
<!-- Node4&#45;&gt;Node12 -->
<g id="edge65_Node000004_Node000012" class="edge">
<title>Node4&#45;&gt;Node12</title>
<g id="a_edge65_Node000004_Node000012"><a xlink:title=" ">
<path fill="none" stroke="#63b8ff" d="M721.38,-331.12C721.38,-312.53 721.38,-268.55 721.38,-231.62 721.38,-231.62 721.38,-231.62 721.38,-119.12 721.38,-88.41 721.38,-52.8 721.38,-30.99"/>
<polygon fill="#63b8ff" stroke="#63b8ff" points="724.88,-31.14 721.38,-21.14 717.88,-31.14 724.88,-31.14"/>
</a>
</g>
</g>
<!-- Node18 -->
<g id="Node000018" class="node">
<title>Node18</title>
<g id="a_Node000018"><a xlink:href="_model_database_8h.html" target="_top" xlink:title=" ">
<polygon fill="white" stroke="#666666" points="607.5,-295.5 481.25,-295.5 481.25,-276.25 607.5,-276.25 607.5,-295.5"/>
<text text-anchor="middle" x="544.38" y="-282" font-family="Helvetica,sans-Serif" font-size="10.00">Cpl/Dm/ModelDatabase.h</text>
</a>
</g>
</g>
<!-- Node4&#45;&gt;Node18 -->
<g id="edge24_Node000004_Node000018" class="edge">
<title>Node4&#45;&gt;Node18</title>
<g id="a_edge24_Node000004_Node000018"><a xlink:title=" ">
<path fill="none" stroke="#63b8ff" d="M691.35,-331.09C662.23,-322.33 617.84,-308.98 585.46,-299.23"/>
<polygon fill="#63b8ff" stroke="#63b8ff" points="586.58,-295.92 576,-296.39 584.56,-302.62 586.58,-295.92"/>
</a>
</g>
</g>
<!-- Node22 -->
<g id="Node000022" class="node">
<title>Node22</title>
<g id="a_Node000022"><a xlink:href="_subscriber_8h.html" target="_top" xlink:title=" ">
<polygon fill="white" stroke="#666666" points="938,-295.5 832.75,-295.5 832.75,-276.25 938,-276.25 938,-295.5"/>
<text text-anchor="middle" x="885.38" y="-282" font-family="Helvetica,sans-Serif" font-size="10.00">Cpl/Dm/Subscriber.h</text>
</a>
</g>
</g>
<!-- Node4&#45;&gt;Node22 -->
<g id="edge33_Node000004_Node000022" class="edge">
<title>Node4&#45;&gt;Node22</title>
<g id="a_edge33_Node000004_Node000022"><a xlink:title=" ">
<path fill="none" stroke="#63b8ff" d="M749.2,-331.09C775.94,-322.41 816.59,-309.21 846.52,-299.49"/>
<polygon fill="#63b8ff" stroke="#63b8ff" points="847.55,-302.84 855.98,-296.42 845.39,-296.18 847.55,-302.84"/>
</a>
</g>
</g>
<!-- Node32 -->
<g id="Node000032" class="node">
<title>Node32</title>
<g id="a_Node000032"><a xlink:href="_d_list_8h.html" target="_top" xlink:title=" ">
<polygon fill="white" stroke="#666666" points="2026.5,-74.5 1918.25,-74.5 1918.25,-55.25 2026.5,-55.25 2026.5,-74.5"/>
<text text-anchor="middle" x="1972.38" y="-61" font-family="Helvetica,sans-Serif" font-size="10.00">Cpl/Container/DList.h</text>
</a>
</g>
</g>
<!-- Node4&#45;&gt;Node32 -->
<g id="edge64_Node000004_Node000032" class="edge">
<title>Node4&#45;&gt;Node32</title>
<g id="a_edge64_Node000004_Node000032"><a xlink:title=" ">
<path fill="none" stroke="#63b8ff" d="M797.67,-337.72C1074.57,-328.51 2010.38,-292.86 2010.38,-231.62 2010.38,-231.62 2010.38,-231.62 2010.38,-174.38 2010.38,-141.38 1994.53,-105.76 1983.31,-84.66"/>
<polygon fill="#63b8ff" stroke="#63b8ff" points="1986.47,-83.15 1978.55,-76.11 1980.35,-86.55 1986.47,-83.15"/>
</a>
</g>
</g>
<!-- Node35 -->
<g id="Node000035" class="node">
<title>Node35</title>
<g id="a_Node000035"><a xlink:title=" ">
<polygon fill="#e0e0e0" stroke="#999999" points="871.75,-129.75 825,-129.75 825,-110.5 871.75,-110.5 871.75,-129.75"/>
<text text-anchor="middle" x="848.38" y="-116.25" font-family="Helvetica,sans-Serif" font-size="10.00">stdlib.h</text>
</a>
</g>
</g>
<!-- Node4&#45;&gt;Node35 -->
<g id="edge66_Node000004_Node000035" class="edge">
<title>Node4&#45;&gt;Node35</title>
<g id="a_edge66_Node000004_Node000035"><a xlink:title=" ">
<path fill="none" stroke="#63b8ff" d="M797.49,-335.26C855.49,-329.78 928.52,-318.44 947.38,-295.5 990.55,-242.96 910.2,-169.07 869.69,-137.01"/>
<polygon fill="#63b8ff" stroke="#63b8ff" points="872.05,-134.41 862,-131.06 867.77,-139.95 872.05,-134.41"/>
</a>
</g>
</g>
<!-- Node5&#45;&gt;Node2 -->
<g id="edge5_Node000005_Node000002" class="edge">
<title>Node5&#45;&gt;Node2</title>
<g id="a_edge5_Node000005_Node000002"><a xlink:title=" ">
<path fill="none" stroke="#63b8ff" d="M585.35,-225.25C499.52,-217.92 336.02,-202.22 280.38,-185 229.25,-169.18 209.12,-169.59 173.38,-129.75 147.66,-101.09 135.67,-56.5 130.61,-30.78"/>
<polygon fill="#63b8ff" stroke="#63b8ff" points="134.07,-30.24 128.87,-21.01 127.18,-31.47 134.07,-30.24"/>
</a>
</g>
</g>
<!-- Node6 -->
<g id="Node000006" class="node">
<title>Node6</title>
<g id="a_Node000006"><a xlink:href="_item_8h.html" target="_top" xlink:title=" ">
<polygon fill="white" stroke="#666666" points="1691.62,-19.25 1587.12,-19.25 1587.12,0 1691.62,0 1691.62,-19.25"/>
<text text-anchor="middle" x="1639.38" y="-5.75" font-family="Helvetica,sans-Serif" font-size="10.00">Cpl/Container/Item.h</text>
</a>
</g>
</g>
<!-- Node5&#45;&gt;Node6 -->
<g id="edge6_Node000005_Node000006" class="edge">
<title>Node5&#45;&gt;Node6</title>
<g id="a_edge6_Node000005_Node000006"><a xlink:title=" ">
<path fill="none" stroke="#63b8ff" d="M693.6,-224.62C708.73,-223.33 725.19,-222.01 740.38,-221 906.42,-209.92 1326.05,-221.68 1488.38,-185 1490.31,-184.56 1619.15,-131.31 1620.38,-129.75 1642.85,-101.16 1643.58,-56.54 1641.72,-30.8"/>
<polygon fill="#63b8ff" stroke="#63b8ff" points="1645.22,-30.66 1640.79,-21.04 1638.25,-31.32 1645.22,-30.66"/>
</a>
</g>
</g>
<!-- Node7 -->
<g id="Node000007" class="node">
<title>Node7</title>
<g id="a_Node000007"><a xlink:href="_text_2_string_8h.html" target="_top" xlink:title=" ">
<polygon fill="white" stroke="#666666" points="501.38,-185 413.38,-185 413.38,-165.75 501.38,-165.75 501.38,-185"/>
<text text-anchor="middle" x="457.38" y="-171.5" font-family="Helvetica,sans-Serif" font-size="10.00">Cpl/Text/String.h</text>
</a>
</g>
</g>
<!-- Node5&#45;&gt;Node7 -->
<g id="edge7_Node000005_Node000007" class="edge">
<title>Node5&#45;&gt;Node7</title>
<g id="a_edge7_Node000005_Node000007"><a xlink:title=" ">
<path fill="none" stroke="#63b8ff" d="M608.5,-220.59C578.43,-211.79 532.51,-198.36 499.18,-188.61"/>
<polygon fill="#63b8ff" stroke="#63b8ff" points="500.43,-185.33 489.85,-185.88 498.47,-192.04 500.43,-185.33"/>
</a>
</g>
</g>
<!-- Node11 -->
<g id="Node000011" class="node">
<title>Node11</title>
<g id="a_Node000011"><a xlink:title=" ">
<polygon fill="#e0e0e0" stroke="#999999" points="309.62,-19.25 259.12,-19.25 259.12,0 309.62,0 309.62,-19.25"/>
<text text-anchor="middle" x="284.38" y="-5.75" font-family="Helvetica,sans-Serif" font-size="10.00">stddef.h</text>
</a>
</g>
</g>
<!-- Node5&#45;&gt;Node11 -->
<g id="edge22_Node000005_Node000011" class="edge">
<title>Node5&#45;&gt;Node11</title>
<g id="a_edge22_Node000005_Node000011"><a xlink:title=" ">
<path fill="none" stroke="#63b8ff" d="M585.43,-221.69C470.33,-204.23 209.12,-161.48 184.38,-129.75 154.26,-91.13 217.01,-47.44 256.16,-25.25"/>
<polygon fill="#63b8ff" stroke="#63b8ff" points="257.83,-28.32 264.91,-20.44 254.46,-22.18 257.83,-28.32"/>
</a>
</g>
</g>
<!-- Node5&#45;&gt;Node12 -->
<g id="edge23_Node000005_Node000012" class="edge">
<title>Node5&#45;&gt;Node12</title>
<g id="a_edge23_Node000005_Node000012"><a xlink:title=" ">
<path fill="none" stroke="#63b8ff" d="M645.08,-220.66C650.54,-211.84 658.74,-197.85 664.38,-185 670.75,-170.47 701.75,-72.85 715.17,-30.34"/>
<polygon fill="#63b8ff" stroke="#63b8ff" points="718.46,-31.53 718.13,-20.94 711.79,-29.43 718.46,-31.53"/>
</a>
</g>
</g>
<!-- Node16 -->
<g id="Node000016" class="node">
<title>Node16</title>
<g id="a_Node000016"><a xlink:href="_subscriber_api_8h.html" target="_top" xlink:title=" ">
<polygon fill="white" stroke="#666666" points="1944.12,-129.75 1824.62,-129.75 1824.62,-110.5 1944.12,-110.5 1944.12,-129.75"/>
<text text-anchor="middle" x="1884.38" y="-116.25" font-family="Helvetica,sans-Serif" font-size="10.00">Cpl/Dm/SubscriberApi.h</text>
</a>
</g>
</g>
<!-- Node5&#45;&gt;Node16 -->
<g id="edge18_Node000005_Node000016" class="edge">
<title>Node5&#45;&gt;Node16</title>
<g id="a_edge18_Node000005_Node000016"><a xlink:title=" ">
<path fill="none" stroke="#63b8ff" d="M693.6,-224.59C708.73,-223.3 725.18,-221.99 740.38,-221 917.07,-209.46 1363.32,-222.48 1536.38,-185 1558.84,-180.13 1562.19,-171.76 1584.38,-165.75 1606.01,-159.89 1731.54,-142.09 1813.22,-130.82"/>
<polygon fill="#63b8ff" stroke="#63b8ff" points="1813.51,-134.31 1822.94,-129.48 1812.55,-127.38 1813.51,-134.31"/>
</a>
</g>
</g>
<!-- Node17 -->
<g id="Node000017" class="node">
<title>Node17</title>
<g id="a_Node000017"><a xlink:href="_arduino_8h_source.html" target="_top" xlink:title=" ">
<polygon fill="white" stroke="#666666" points="655.25,-185 557.5,-185 557.5,-165.75 655.25,-165.75 655.25,-185"/>
<text text-anchor="middle" x="606.38" y="-171.5" font-family="Helvetica,sans-Serif" font-size="10.00">Cpl/Json/Arduino.h</text>
</a>
</g>
</g>
<!-- Node5&#45;&gt;Node17 -->
<g id="edge21_Node000005_Node000017" class="edge">
<title>Node5&#45;&gt;Node17</title>
<g id="a_edge21_Node000005_Node000017"><a xlink:title=" ">
<path fill="none" stroke="#63b8ff" d="M633.93,-220.83C629.6,-213.86 623.41,-203.87 617.99,-195.12"/>
<polygon fill="#63b8ff" stroke="#63b8ff" points="620.98,-193.3 612.74,-186.65 615.03,-196.99 620.98,-193.3"/>
</a>
</g>
</g>
<!-- Node8 -->
<g id="Node000008" class="node">
<title>Node8</title>
<g id="a_Node000008"><a xlink:title=" ">
<polygon fill="#e0e0e0" stroke="#999999" points="655,-74.5 579.75,-74.5 579.75,-55.25 655,-55.25 655,-74.5"/>
<text text-anchor="middle" x="617.38" y="-61" font-family="Helvetica,sans-Serif" font-size="10.00">colony_map.h</text>
</a>
</g>
</g>
<!-- Node7&#45;&gt;Node8 -->
<g id="edge8_Node000007_Node000008" class="edge">
<title>Node7&#45;&gt;Node8</title>
<g id="a_edge8_Node000007_Node000008"><a xlink:title=" ">
<path fill="none" stroke="#63b8ff" d="M501.71,-168.43C529.49,-162.67 564.43,-151.46 588.38,-129.75 601.22,-118.11 608.74,-99.67 612.89,-85.59"/>
<polygon fill="#63b8ff" stroke="#63b8ff" points="616.24,-86.64 615.35,-76.08 609.46,-84.89 616.24,-86.64"/>
</a>
</g>
</g>
<!-- Node9 -->
<g id="Node000009" class="node">
<title>Node9</title>
<g id="a_Node000009"><a xlink:href="_key_8h.html" target="_top" xlink:title=" ">
<polygon fill="white" stroke="#666666" points="439.12,-129.75 337.62,-129.75 337.62,-110.5 439.12,-110.5 439.12,-129.75"/>
<text text-anchor="middle" x="388.38" y="-116.25" font-family="Helvetica,sans-Serif" font-size="10.00">Cpl/Container/Key.h</text>
</a>
</g>
</g>
<!-- Node7&#45;&gt;Node9 -->
<g id="edge9_Node000007_Node000009" class="edge">
<title>Node7&#45;&gt;Node9</title>
<g id="a_edge9_Node000007_Node000009"><a xlink:title=" ">
<path fill="none" stroke="#63b8ff" d="M445.67,-165.34C435.6,-157.57 420.83,-146.17 408.81,-136.9"/>
<polygon fill="#63b8ff" stroke="#63b8ff" points="411.16,-134.29 401.11,-130.95 406.88,-139.83 411.16,-134.29"/>
</a>
</g>
</g>
<!-- Node14 -->
<g id="Node000014" class="node">
<title>Node14</title>
<g id="a_Node000014"><a xlink:title=" ">
<polygon fill="#e0e0e0" stroke="#999999" points="579.62,-129.75 529.12,-129.75 529.12,-110.5 579.62,-110.5 579.62,-129.75"/>
<text text-anchor="middle" x="554.38" y="-116.25" font-family="Helvetica,sans-Serif" font-size="10.00">stdarg.h</text>
</a>
</g>
</g>
<!-- Node7&#45;&gt;Node14 -->
<g id="edge16_Node000007_Node000014" class="edge">
<title>Node7&#45;&gt;Node14</title>
<g id="a_edge16_Node000007_Node000014"><a xlink:title=" ">
<path fill="none" stroke="#63b8ff" d="M473.83,-165.34C488.6,-157.23 510.55,-145.18 527.81,-135.71"/>
<polygon fill="#63b8ff" stroke="#63b8ff" points="529.43,-138.81 536.51,-130.93 526.06,-132.68 529.43,-138.81"/>
</a>
</g>
</g>
<!-- Node15 -->
<g id="Node000015" class="node">
<title>Node15</title>
<g id="a_Node000015"><a xlink:title=" ">
<polygon fill="#e0e0e0" stroke="#999999" points="511.12,-129.75 457.62,-129.75 457.62,-110.5 511.12,-110.5 511.12,-129.75"/>
<text text-anchor="middle" x="484.38" y="-116.25" font-family="Helvetica,sans-Serif" font-size="10.00">iostream</text>
</a>
</g>
</g>
<!-- Node7&#45;&gt;Node15 -->
<g id="edge17_Node000007_Node000015" class="edge">
<title>Node7&#45;&gt;Node15</title>
<g id="a_edge17_Node000007_Node000015"><a xlink:title=" ">
<path fill="none" stroke="#63b8ff" d="M461.83,-165.58C465.33,-158.69 470.32,-148.84 474.72,-140.16"/>
<polygon fill="#63b8ff" stroke="#63b8ff" points="477.73,-141.96 479.14,-131.46 471.49,-138.8 477.73,-141.96"/>
</a>
</g>
</g>
<!-- Node9&#45;&gt;Node8 -->
<g id="edge15_Node000009_Node000008" class="edge">
<title>Node9&#45;&gt;Node8</title>
<g id="a_edge15_Node000009_Node000008"><a xlink:title=" ">
<path fill="none" stroke="#63b8ff" d="M427.48,-110.03C466.45,-100.97 526.38,-87.03 568.47,-77.25"/>
<polygon fill="#63b8ff" stroke="#63b8ff" points="569.15,-80.68 578.1,-75.01 567.56,-73.86 569.15,-80.68"/>
</a>
</g>
</g>
<!-- Node10 -->
<g id="Node000010" class="node">
<title>Node10</title>
<g id="a_Node000010"><a xlink:href="_fatal_error_8h.html" target="_top" xlink:title=" ">
<polygon fill="white" stroke="#666666" points="416.75,-74.5 298,-74.5 298,-55.25 416.75,-55.25 416.75,-74.5"/>
<text text-anchor="middle" x="357.38" y="-61" font-family="Helvetica,sans-Serif" font-size="10.00">Cpl/System/FatalError.h</text>
</a>
</g>
</g>
<!-- Node9&#45;&gt;Node10 -->
<g id="edge10_Node000009_Node000010" class="edge">
<title>Node9&#45;&gt;Node10</title>
<g id="a_edge10_Node000009_Node000010"><a xlink:title=" ">
<path fill="none" stroke="#63b8ff" d="M383.26,-110.33C379.2,-103.36 373.38,-93.37 368.29,-84.62"/>
<polygon fill="#63b8ff" stroke="#63b8ff" points="371.42,-83.05 363.37,-76.17 365.37,-86.57 371.42,-83.05"/>
</a>
</g>
</g>
<!-- Node9&#45;&gt;Node12 -->
<g id="edge13_Node000009_Node000012" class="edge">
<title>Node9&#45;&gt;Node12</title>
<g id="a_edge13_Node000009_Node000012"><a xlink:title=" ">
<path fill="none" stroke="#63b8ff" d="M412.97,-110.05C447.82,-97.3 513.65,-73.57 570.38,-55.25 609.82,-42.51 655.51,-29.21 686.21,-20.48"/>
<polygon fill="#63b8ff" stroke="#63b8ff" points="687.08,-23.87 695.74,-17.78 685.17,-17.13 687.08,-23.87"/>
</a>
</g>
</g>
<!-- Node13 -->
<g id="Node000013" class="node">
<title>Node13</title>
<g id="a_Node000013"><a xlink:title=" ">
<polygon fill="#e0e0e0" stroke="#999999" points="280.12,-74.5 232.62,-74.5 232.62,-55.25 280.12,-55.25 280.12,-74.5"/>
<text text-anchor="middle" x="256.38" y="-61" font-family="Helvetica,sans-Serif" font-size="10.00">string.h</text>
</a>
</g>
</g>
<!-- Node9&#45;&gt;Node13 -->
<g id="edge14_Node000009_Node000013" class="edge">
<title>Node9&#45;&gt;Node13</title>
<g id="a_edge14_Node000009_Node000013"><a xlink:title=" ">
<path fill="none" stroke="#63b8ff" d="M365.98,-110.09C344.93,-101.6 313.17,-88.79 289.25,-79.14"/>
<polygon fill="#63b8ff" stroke="#63b8ff" points="290.86,-76.01 280.28,-75.52 288.24,-82.51 290.86,-76.01"/>
</a>
</g>
</g>
<!-- Node10&#45;&gt;Node2 -->
<g id="edge12_Node000010_Node000002" class="edge">
<title>Node10&#45;&gt;Node2</title>
<g id="a_edge12_Node000010_Node000002"><a xlink:title=" ">
<path fill="none" stroke="#63b8ff" d="M318.1,-54.78C279.31,-45.8 219.85,-32.03 177.64,-22.26"/>
<polygon fill="#63b8ff" stroke="#63b8ff" points="178.5,-18.87 167.96,-20.02 176.92,-25.69 178.5,-18.87"/>
</a>
</g>
</g>
<!-- Node10&#45;&gt;Node11 -->
<g id="edge11_Node000010_Node000011" class="edge">
<title>Node10&#45;&gt;Node11</title>
<g id="a_edge11_Node000010_Node000011"><a xlink:title=" ">
<path fill="none" stroke="#63b8ff" d="M344.99,-54.84C334.23,-46.99 318.4,-35.45 305.62,-26.12"/>
<polygon fill="#63b8ff" stroke="#63b8ff" points="307.94,-23.48 297.8,-20.42 303.81,-29.14 307.94,-23.48"/>
</a>
</g>
</g>
<!-- Node16&#45;&gt;Node6 -->
<g id="edge19_Node000016_Node000006" class="edge">
<title>Node16&#45;&gt;Node6</title>
<g id="a_edge19_Node000016_Node000006"><a xlink:title=" ">
<path fill="none" stroke="#63b8ff" d="M1874.84,-110.16C1859.75,-96.44 1828.93,-70.24 1798.38,-55.25 1767.43,-40.06 1730.48,-29.3 1699.99,-22.15"/>
<polygon fill="#63b8ff" stroke="#63b8ff" points="1701.07,-18.81 1690.55,-20.01 1699.53,-25.64 1701.07,-18.81"/>
</a>
</g>
</g>
<!-- Node16&#45;&gt;Node12 -->
<g id="edge20_Node000016_Node000012" class="edge">
<title>Node16&#45;&gt;Node12</title>
<g id="a_edge20_Node000016_Node000012"><a xlink:title=" ">
<path fill="none" stroke="#63b8ff" d="M1838.07,-110.06C1764.5,-96.01 1616.26,-69.16 1489.38,-55.25 1207.85,-24.39 865.77,-14.04 756.62,-11.39"/>
<polygon fill="#63b8ff" stroke="#63b8ff" points="756.93,-7.9 746.85,-11.16 756.77,-14.9 756.93,-7.9"/>
</a>
</g>
</g>
<!-- Node18&#45;&gt;Node2 -->
<g id="edge25_Node000018_Node000002" class="edge">
<title>Node18&#45;&gt;Node2</title>
<g id="a_edge25_Node000018_Node000002"><a xlink:title=" ">
<path fill="none" stroke="#63b8ff" d="M480.93,-284.08C347.78,-280.68 51.38,-263.36 51.38,-176.38 51.38,-176.38 51.38,-176.38 51.38,-119.12 51.38,-80.52 84.06,-45.89 106.56,-26.62"/>
<polygon fill="#63b8ff" stroke="#63b8ff" points="108.48,-29.57 113.99,-20.52 104.04,-24.16 108.48,-29.57"/>
</a>
</g>
</g>
<!-- Node18&#45;&gt;Node17 -->
<g id="edge32_Node000018_Node000017" class="edge">
<title>Node18&#45;&gt;Node17</title>
<g id="a_edge32_Node000018_Node000017"><a xlink:title=" ">
<path fill="none" stroke="#63b8ff" d="M548.38,-276.01C554.12,-263.5 565.25,-240.07 576.38,-221 581.54,-212.14 587.8,-202.67 593.26,-194.74"/>
<polygon fill="#63b8ff" stroke="#63b8ff" points="596.07,-196.82 598.95,-186.63 590.34,-192.8 596.07,-196.82"/>
</a>
</g>
</g>
<!-- Node19 -->
<g id="Node000019" class="node">
<title>Node19</title>
<g id="a_Node000019"><a xlink:href="_model_database_api_8h.html" target="_top" xlink:title=" ">
<polygon fill="white" stroke="#666666" points="407.62,-240.25 267.12,-240.25 267.12,-221 407.62,-221 407.62,-240.25"/>
<text text-anchor="middle" x="337.38" y="-226.75" font-family="Helvetica,sans-Serif" font-size="10.00">Cpl/Dm/ModelDatabaseApi.h</text>
</a>
</g>
</g>
<!-- Node18&#45;&gt;Node19 -->
<g id="edge26_Node000018_Node000019" class="edge">
<title>Node18&#45;&gt;Node19</title>
<g id="a_edge26_Node000018_Node000019"><a xlink:title=" ">
<path fill="none" stroke="#63b8ff" d="M509.26,-275.84C474.62,-266.93 421.47,-253.26 383.45,-243.48"/>
<polygon fill="#63b8ff" stroke="#63b8ff" points="384.68,-240.18 374.13,-241.08 382.94,-246.96 384.68,-240.18"/>
</a>
</g>
</g>
<!-- Node20 -->
<g id="Node000020" class="node">
<title>Node20</title>
<g id="a_Node000020"><a xlink:href="_mutex_8h.html" target="_top" xlink:title=" ">
<polygon fill="white" stroke="#666666" points="528.88,-240.25 425.88,-240.25 425.88,-221 528.88,-221 528.88,-240.25"/>
<text text-anchor="middle" x="477.38" y="-226.75" font-family="Helvetica,sans-Serif" font-size="10.00">Cpl/System/Mutex.h</text>
</a>
</g>
</g>
<!-- Node18&#45;&gt;Node20 -->
<g id="edge28_Node000018_Node000020" class="edge">
<title>Node18&#45;&gt;Node20</title>
<g id="a_edge28_Node000018_Node000020"><a xlink:title=" ">
<path fill="none" stroke="#63b8ff" d="M533.01,-275.84C523.33,-268.15 509.18,-256.9 497.57,-247.68"/>
<polygon fill="#63b8ff" stroke="#63b8ff" points="499.76,-244.95 489.76,-241.47 495.41,-250.43 499.76,-244.95"/>
</a>
</g>
</g>
<!-- Node21 -->
<g id="Node000021" class="node">
<title>Node21</title>
<g id="a_Node000021"><a xlink:href="_s_list_8h.html" target="_top" xlink:title=" ">
<polygon fill="white" stroke="#666666" points="857.5,-240.25 749.25,-240.25 749.25,-221 857.5,-221 857.5,-240.25"/>
<text text-anchor="middle" x="803.38" y="-226.75" font-family="Helvetica,sans-Serif" font-size="10.00">Cpl/Container/SList.h</text>
</a>
</g>
</g>
<!-- Node18&#45;&gt;Node21 -->
<g id="edge30_Node000018_Node000021" class="edge">
<title>Node18&#45;&gt;Node21</title>
<g id="a_edge30_Node000018_Node000021"><a xlink:title=" ">
<path fill="none" stroke="#63b8ff" d="M588.6,-275.78C632.74,-266.71 700.68,-252.74 748.29,-242.95"/>
<polygon fill="#63b8ff" stroke="#63b8ff" points="748.76,-246.43 757.85,-240.99 747.35,-239.57 748.76,-246.43"/>
</a>
</g>
</g>
<!-- Node19&#45;&gt;Node7 -->
<g id="edge27_Node000019_Node000007" class="edge">
<title>Node19&#45;&gt;Node7</title>
<g id="a_edge27_Node000019_Node000007"><a xlink:title=" ">
<path fill="none" stroke="#63b8ff" d="M357.73,-220.59C376.61,-212.22 404.96,-199.63 426.6,-190.03"/>
<polygon fill="#63b8ff" stroke="#63b8ff" points="427.81,-193.32 435.54,-186.07 424.98,-186.92 427.81,-193.32"/>
</a>
</g>
</g>
<!-- Node20&#45;&gt;Node8 -->
<g id="edge29_Node000020_Node000008" class="edge">
<title>Node20&#45;&gt;Node8</title>
<g id="a_edge29_Node000020_Node000008"><a xlink:title=" ">
<path fill="none" stroke="#63b8ff" d="M486.07,-220.75C498.99,-207.81 524.31,-183.4 548.38,-165.75 573.76,-147.13 592.09,-156.06 609.38,-129.75 617.74,-117.01 619.47,-99.71 619.25,-86.33"/>
<polygon fill="#63b8ff" stroke="#63b8ff" points="622.75,-86.27 618.68,-76.49 615.76,-86.67 622.75,-86.27"/>
</a>
</g>
</g>
<!-- Node21&#45;&gt;Node6 -->
<g id="edge31_Node000021_Node000006" class="edge">
<title>Node21&#45;&gt;Node6</title>
<g id="a_edge31_Node000021_Node000006"><a xlink:title=" ">
<path fill="none" stroke="#63b8ff" d="M801.1,-220.64C796.1,-198.5 786.78,-140.92 816.38,-110.5 869.16,-56.24 1390.92,-23.72 1575.27,-13.84"/>
<polygon fill="#63b8ff" stroke="#63b8ff" points="1575.34,-17.34 1585.14,-13.32 1574.97,-10.35 1575.34,-17.34"/>
</a>
</g>
</g>
<!-- Node22&#45;&gt;Node5 -->
<g id="edge35_Node000022_Node000005" class="edge">
<title>Node22&#45;&gt;Node5</title>
<g id="a_edge35_Node000022_Node000005"><a xlink:title=" ">
<path fill="none" stroke="#63b8ff" d="M843.37,-275.78C801.62,-266.74 737.46,-252.86 692.27,-243.07"/>
<polygon fill="#63b8ff" stroke="#63b8ff" points="693.2,-239.7 682.69,-241 691.72,-246.54 693.2,-239.7"/>
</a>
</g>
</g>
<!-- Node22&#45;&gt;Node12 -->
<g id="edge63_Node000022_Node000012" class="edge">
<title>Node22&#45;&gt;Node12</title>
<g id="a_edge63_Node000022_Node000012"><a xlink:title=" ">
<path fill="none" stroke="#63b8ff" d="M883.63,-275.87C880.98,-263.2 875.26,-239.58 866.38,-221 829.27,-143.46 765.26,-62.77 736.33,-28.12"/>
<polygon fill="#63b8ff" stroke="#63b8ff" points="739.25,-26.16 730.13,-20.77 733.9,-30.67 739.25,-26.16"/>
</a>
</g>
</g>
<!-- Node22&#45;&gt;Node16 -->
<g id="edge34_Node000022_Node000016" class="edge">
<title>Node22&#45;&gt;Node16</title>
<g id="a_edge34_Node000022_Node000016"><a xlink:title=" ">
<path fill="none" stroke="#63b8ff" d="M938.46,-279.27C1054.52,-266.55 1339.28,-232.88 1574.38,-185 1607.25,-178.3 1614.64,-173.14 1647.38,-165.75 1705.04,-152.74 1771.18,-140.5 1818.91,-132.15"/>
<polygon fill="#63b8ff" stroke="#63b8ff" points="1819.28,-135.64 1828.53,-130.48 1818.08,-128.74 1819.28,-135.64"/>
</a>
</g>
</g>
<!-- Node23 -->
<g id="Node000023" class="node">
<title>Node23</title>
<g id="a_Node000023"><a xlink:href="_dm_2_event_loop_8h.html" target="_top" xlink:title=" ">
<polygon fill="white" stroke="#666666" points="1621,-240.25 1515.75,-240.25 1515.75,-221 1621,-221 1621,-240.25"/>
<text text-anchor="middle" x="1568.38" y="-226.75" font-family="Helvetica,sans-Serif" font-size="10.00">Cpl/Dm/EventLoop.h</text>
</a>
</g>
</g>
<!-- Node22&#45;&gt;Node23 -->
<g id="edge36_Node000022_Node000023" class="edge">
<title>Node22&#45;&gt;Node23</title>
<g id="a_edge36_Node000022_Node000023"><a xlink:title=" ">
<path fill="none" stroke="#63b8ff" d="M938.4,-280.74C1062.2,-271.09 1369.92,-247.1 1504.1,-236.64"/>
<polygon fill="#63b8ff" stroke="#63b8ff" points="1504.18,-240.14 1513.87,-235.87 1503.63,-233.16 1504.18,-240.14"/>
</a>
</g>
</g>
<!-- Node23&#45;&gt;Node16 -->
<g id="edge60_Node000023_Node000016" class="edge">
<title>Node23&#45;&gt;Node16</title>
<g id="a_edge60_Node000023_Node000016"><a xlink:title=" ">
<path fill="none" stroke="#63b8ff" d="M1621.32,-225.24C1667.88,-219.96 1736.72,-208.65 1792.38,-185 1820.16,-173.2 1848.08,-152.22 1865.75,-137.53"/>
<polygon fill="#63b8ff" stroke="#63b8ff" points="1867.96,-140.25 1873.3,-131.1 1863.42,-134.92 1867.96,-140.25"/>
</a>
</g>
</g>
<!-- Node24 -->
<g id="Node000024" class="node">
<title>Node24</title>
<g id="a_Node000024"><a xlink:href="_system_2_event_loop_8h.html" target="_top" xlink:title=" ">
<polygon fill="white" stroke="#666666" points="1479,-185 1355.75,-185 1355.75,-165.75 1479,-165.75 1479,-185"/>
<text text-anchor="middle" x="1417.38" y="-171.5" font-family="Helvetica,sans-Serif" font-size="10.00">Cpl/System/EventLoop.h</text>
</a>
</g>
</g>
<!-- Node23&#45;&gt;Node24 -->
<g id="edge37_Node000023_Node000024" class="edge">
<title>Node23&#45;&gt;Node24</title>
<g id="a_edge37_Node000023_Node000024"><a xlink:title=" ">
<path fill="none" stroke="#63b8ff" d="M1542.76,-220.59C1518.36,-211.99 1481.36,-198.94 1453.88,-189.25"/>
<polygon fill="#63b8ff" stroke="#63b8ff" points="1455.14,-185.98 1444.54,-185.96 1452.81,-192.58 1455.14,-185.98"/>
</a>
</g>
</g>
<!-- Node23&#45;&gt;Node32 -->
<g id="edge59_Node000023_Node000032" class="edge">
<title>Node23&#45;&gt;Node32</title>
<g id="a_edge59_Node000023_Node000032"><a xlink:title=" ">
<path fill="none" stroke="#63b8ff" d="M1621.36,-223.14C1716.25,-210.4 1909.39,-179 1953.38,-129.75 1964.11,-117.73 1968.79,-99.87 1970.82,-86.09"/>
<polygon fill="#63b8ff" stroke="#63b8ff" points="1974.28,-86.69 1971.88,-76.37 1967.32,-85.93 1974.28,-86.69"/>
</a>
</g>
</g>
<!-- Node33 -->
<g id="Node000033" class="node">
<title>Node33</title>
<g id="a_Node000033"><a xlink:href="_thread_8h.html" target="_top" xlink:title=" ">
<polygon fill="white" stroke="#666666" points="1114.75,-185 1008,-185 1008,-165.75 1114.75,-165.75 1114.75,-185"/>
<text text-anchor="middle" x="1061.38" y="-171.5" font-family="Helvetica,sans-Serif" font-size="10.00">Cpl/System/Thread.h</text>
</a>
</g>
</g>
<!-- Node23&#45;&gt;Node33 -->
<g id="edge53_Node000023_Node000033" class="edge">
<title>Node23&#45;&gt;Node33</title>
<g id="a_edge53_Node000023_Node000033"><a xlink:title=" ">
<path fill="none" stroke="#63b8ff" d="M1515.55,-224.08C1422.14,-214.27 1228.1,-193.89 1126.54,-183.22"/>
<polygon fill="#63b8ff" stroke="#63b8ff" points="1127.04,-179.75 1116.73,-182.19 1126.31,-186.71 1127.04,-179.75"/>
</a>
</g>
</g>
<!-- Node36 -->
<g id="Node000036" class="node">
<title>Node36</title>
<g id="a_Node000036"><a xlink:href="_notification_api___8h.html" target="_top" xlink:title=" ">
<polygon fill="white" stroke="#666666" points="1782.88,-185 1655.88,-185 1655.88,-165.75 1782.88,-165.75 1782.88,-185"/>
<text text-anchor="middle" x="1719.38" y="-171.5" font-family="Helvetica,sans-Serif" font-size="10.00">Cpl/Dm/NotificationApi_.h</text>
</a>
</g>
</g>
<!-- Node23&#45;&gt;Node36 -->
<g id="edge61_Node000023_Node000036" class="edge">
<title>Node23&#45;&gt;Node36</title>
<g id="a_edge61_Node000023_Node000036"><a xlink:title=" ">
<path fill="none" stroke="#63b8ff" d="M1593.99,-220.59C1618.39,-211.99 1655.39,-198.94 1682.87,-189.25"/>
<polygon fill="#63b8ff" stroke="#63b8ff" points="1683.94,-192.58 1692.21,-185.96 1681.61,-185.98 1683.94,-192.58"/>
</a>
</g>
</g>
<!-- Node25 -->
<g id="Node000025" class="node">
<title>Node25</title>
<g id="a_Node000025"><a xlink:href="_runnable_8h.html" target="_top" xlink:title=" ">
<polygon fill="white" stroke="#666666" points="1207,-129.75 1089.75,-129.75 1089.75,-110.5 1207,-110.5 1207,-129.75"/>
<text text-anchor="middle" x="1148.38" y="-116.25" font-family="Helvetica,sans-Serif" font-size="10.00">Cpl/System/Runnable.h</text>
</a>
</g>
</g>
<!-- Node24&#45;&gt;Node25 -->
<g id="edge38_Node000024_Node000025" class="edge">
<title>Node24&#45;&gt;Node25</title>
<g id="a_edge38_Node000024_Node000025"><a xlink:title=" ">
<path fill="none" stroke="#63b8ff" d="M1371.44,-165.28C1325.5,-156.19 1254.74,-142.18 1205.27,-132.39"/>
<polygon fill="#63b8ff" stroke="#63b8ff" points="1206.1,-128.98 1195.61,-130.47 1204.74,-135.85 1206.1,-128.98"/>
</a>
</g>
</g>
<!-- Node26 -->
<g id="Node000026" class="node">
<title>Node26</title>
<g id="a_Node000026"><a xlink:href="_semaphore_8h.html" target="_top" xlink:title=" ">
<polygon fill="white" stroke="#666666" points="1351.5,-129.75 1225.25,-129.75 1225.25,-110.5 1351.5,-110.5 1351.5,-129.75"/>
<text text-anchor="middle" x="1288.38" y="-116.25" font-family="Helvetica,sans-Serif" font-size="10.00">Cpl/System/Semaphore.h</text>
</a>
</g>
</g>
<!-- Node24&#45;&gt;Node26 -->
<g id="edge39_Node000024_Node000026" class="edge">
<title>Node24&#45;&gt;Node26</title>
<g id="a_edge39_Node000024_Node000026"><a xlink:title=" ">
<path fill="none" stroke="#63b8ff" d="M1395.49,-165.34C1375.01,-156.89 1344.16,-144.15 1320.82,-134.52"/>
<polygon fill="#63b8ff" stroke="#63b8ff" points="1322.34,-131.36 1311.76,-130.78 1319.67,-137.83 1322.34,-131.36"/>
</a>
</g>
</g>
<!-- Node27 -->
<g id="Node000027" class="node">
<title>Node27</title>
<g id="a_Node000027"><a xlink:href="_signable_8h.html" target="_top" xlink:title=" ">
<polygon fill="white" stroke="#666666" points="1342.5,-74.5 1228.25,-74.5 1228.25,-55.25 1342.5,-55.25 1342.5,-74.5"/>
<text text-anchor="middle" x="1285.38" y="-61" font-family="Helvetica,sans-Serif" font-size="10.00">Cpl/System/Signable.h</text>
</a>
</g>
</g>
<!-- Node24&#45;&gt;Node27 -->
<g id="edge43_Node000024_Node000027" class="edge">
<title>Node24&#45;&gt;Node27</title>
<g id="a_edge43_Node000024_Node000027"><a xlink:title=" ">
<path fill="none" stroke="#63b8ff" d="M1410.74,-165.33C1400.81,-152.18 1381.02,-127.52 1360.38,-110.5 1346.17,-98.79 1328.55,-88.14 1313.96,-80.19"/>
<polygon fill="#63b8ff" stroke="#63b8ff" points="1315.78,-77.19 1305.3,-75.6 1312.5,-83.37 1315.78,-77.19"/>
</a>
</g>
</g>
<!-- Node28 -->
<g id="Node000028" class="node">
<title>Node28</title>
<g id="a_Node000028"><a xlink:href="_event_flag_8h.html" target="_top" xlink:title=" ">
<polygon fill="white" stroke="#666666" points="1480.5,-74.5 1360.25,-74.5 1360.25,-55.25 1480.5,-55.25 1480.5,-74.5"/>
<text text-anchor="middle" x="1420.38" y="-61" font-family="Helvetica,sans-Serif" font-size="10.00">Cpl/System/EventFlag.h</text>
</a>
</g>
</g>
<!-- Node24&#45;&gt;Node28 -->
<g id="edge44_Node000024_Node000028" class="edge">
<title>Node24&#45;&gt;Node28</title>
<g id="a_edge44_Node000024_Node000028"><a xlink:title=" ">
<path fill="none" stroke="#63b8ff" d="M1417.62,-165.5C1418.1,-148.25 1419.16,-109.83 1419.82,-86.06"/>
<polygon fill="#63b8ff" stroke="#63b8ff" points="1423.31,-86.48 1420.08,-76.39 1416.31,-86.29 1423.31,-86.48"/>
</a>
</g>
</g>
<!-- Node29 -->
<g id="Node000029" class="node">
<title>Node29</title>
<g id="a_Node000029"><a xlink:href="_shared_event_handler_8h.html" target="_top" xlink:title=" ">
<polygon fill="white" stroke="#666666" points="1611.38,-129.75 1445.38,-129.75 1445.38,-110.5 1611.38,-110.5 1611.38,-129.75"/>
<text text-anchor="middle" x="1528.38" y="-116.25" font-family="Helvetica,sans-Serif" font-size="10.00">Cpl/System/SharedEventHandler.h</text>
</a>
</g>
</g>
<!-- Node24&#45;&gt;Node29 -->
<g id="edge47_Node000024_Node000029" class="edge">
<title>Node24&#45;&gt;Node29</title>
<g id="a_edge47_Node000024_Node000029"><a xlink:title=" ">
<path fill="none" stroke="#63b8ff" d="M1436.2,-165.34C1453.43,-157.08 1479.18,-144.73 1499.08,-135.18"/>
<polygon fill="#63b8ff" stroke="#63b8ff" points="1500.59,-138.34 1508.09,-130.86 1497.56,-132.03 1500.59,-138.34"/>
</a>
</g>
</g>
<!-- Node30 -->
<g id="Node000030" class="node">
<title>Node30</title>
<g id="a_Node000030"><a xlink:href="_timer_manager_8h.html" target="_top" xlink:title=" ">
<polygon fill="white" stroke="#666666" points="1806.88,-129.75 1667.88,-129.75 1667.88,-110.5 1806.88,-110.5 1806.88,-129.75"/>
<text text-anchor="middle" x="1737.38" y="-116.25" font-family="Helvetica,sans-Serif" font-size="10.00">Cpl/System/TimerManager.h</text>
</a>
</g>
</g>
<!-- Node24&#45;&gt;Node30 -->
<g id="edge49_Node000024_Node000030" class="edge">
<title>Node24&#45;&gt;Node30</title>
<g id="a_edge49_Node000024_Node000030"><a xlink:title=" ">
<path fill="none" stroke="#63b8ff" d="M1472.02,-165.28C1527.28,-156.09 1612.71,-141.87 1671.64,-132.06"/>
<polygon fill="#63b8ff" stroke="#63b8ff" points="1671.9,-135.57 1681.19,-130.47 1670.75,-128.66 1671.9,-135.57"/>
</a>
</g>
</g>
<!-- Node26&#45;&gt;Node8 -->
<g id="edge40_Node000026_Node000008" class="edge">
<title>Node26&#45;&gt;Node8</title>
<g id="a_edge40_Node000026_Node000008"><a xlink:title=" ">
<path fill="none" stroke="#63b8ff" d="M1224.79,-111.35C1221.95,-111.05 1219.13,-110.77 1216.38,-110.5 1012.49,-90.7 768.83,-75.01 666.46,-68.78"/>
<polygon fill="#63b8ff" stroke="#63b8ff" points="666.97,-65.31 656.78,-68.2 666.55,-72.3 666.97,-65.31"/>
</a>
</g>
</g>
<!-- Node26&#45;&gt;Node27 -->
<g id="edge41_Node000026_Node000027" class="edge">
<title>Node26&#45;&gt;Node27</title>
<g id="a_edge41_Node000026_Node000027"><a xlink:title=" ">
<path fill="none" stroke="#63b8ff" d="M1287.88,-110.33C1287.51,-103.74 1286.99,-94.46 1286.51,-86.07"/>
<polygon fill="#63b8ff" stroke="#63b8ff" points="1290.02,-86.16 1285.97,-76.37 1283.03,-86.55 1290.02,-86.16"/>
</a>
</g>
</g>
<!-- Node27&#45;&gt;Node6 -->
<g id="edge42_Node000027_Node000006" class="edge">
<title>Node27&#45;&gt;Node6</title>
<g id="a_edge42_Node000027_Node000006"><a xlink:title=" ">
<path fill="none" stroke="#63b8ff" d="M1342.64,-55.26C1406.46,-45.66 1509.38,-30.18 1575.68,-20.21"/>
<polygon fill="#63b8ff" stroke="#63b8ff" points="1575.95,-23.71 1585.31,-18.76 1574.9,-16.78 1575.95,-23.71"/>
</a>
</g>
</g>
<!-- Node28&#45;&gt;Node2 -->
<g id="edge45_Node000028_Node000002" class="edge">
<title>Node28&#45;&gt;Node2</title>
<g id="a_edge45_Node000028_Node000002"><a xlink:title=" ">
<path fill="none" stroke="#63b8ff" d="M1359.82,-55.99C1356.97,-55.72 1354.14,-55.47 1351.38,-55.25 863.29,-16.85 739.32,-44.38 250.38,-19.25 227.27,-18.06 201.75,-16.34 179.98,-14.75"/>
<polygon fill="#63b8ff" stroke="#63b8ff" points="180.37,-11.27 170.14,-14.02 179.85,-18.25 180.37,-11.27"/>
</a>
</g>
</g>
<!-- Node28&#45;&gt;Node12 -->
<g id="edge46_Node000028_Node000012" class="edge">
<title>Node28&#45;&gt;Node12</title>
<g id="a_edge46_Node000028_Node000012"><a xlink:title=" ">
<path fill="none" stroke="#63b8ff" d="M1359.81,-56.12C1356.96,-55.81 1354.14,-55.52 1351.38,-55.25 1125.33,-33.13 852.62,-17.59 756.76,-12.46"/>
<polygon fill="#63b8ff" stroke="#63b8ff" points="757.13,-8.98 746.96,-11.94 756.76,-15.97 757.13,-8.98"/>
</a>
</g>
</g>
<!-- Node29&#45;&gt;Node28 -->
<g id="edge48_Node000029_Node000028" class="edge">
<title>Node29&#45;&gt;Node28</title>
<g id="a_edge48_Node000029_Node000028"><a xlink:title=" ">
<path fill="none" stroke="#63b8ff" d="M1510.05,-110.09C1493.3,-101.83 1468.24,-89.48 1448.87,-79.93"/>
<polygon fill="#63b8ff" stroke="#63b8ff" points="1450.66,-76.9 1440.14,-75.62 1447.56,-83.18 1450.66,-76.9"/>
</a>
</g>
</g>
<!-- Node31 -->
<g id="Node000031" class="node">
<title>Node31</title>
<g id="a_Node000031"><a xlink:href="_counter___8h.html" target="_top" xlink:title=" ">
<polygon fill="white" stroke="#666666" points="1789.25,-74.5 1673.5,-74.5 1673.5,-55.25 1789.25,-55.25 1789.25,-74.5"/>
<text text-anchor="middle" x="1731.38" y="-61" font-family="Helvetica,sans-Serif" font-size="10.00">Cpl/System/Counter_.h</text>
</a>
</g>
</g>
<!-- Node30&#45;&gt;Node31 -->
<g id="edge50_Node000030_Node000031" class="edge">
<title>Node30&#45;&gt;Node31</title>
<g id="a_edge50_Node000030_Node000031"><a xlink:title=" ">
<path fill="none" stroke="#63b8ff" d="M1736.38,-110.33C1735.64,-103.74 1734.6,-94.46 1733.65,-86.07"/>
<polygon fill="#63b8ff" stroke="#63b8ff" points="1737.15,-85.91 1732.56,-76.36 1730.2,-86.69 1737.15,-85.91"/>
</a>
</g>
</g>
<!-- Node30&#45;&gt;Node32 -->
<g id="edge52_Node000030_Node000032" class="edge">
<title>Node30&#45;&gt;Node32</title>
<g id="a_edge52_Node000030_Node000032"><a xlink:title=" ">
<path fill="none" stroke="#63b8ff" d="M1777.51,-110.03C1817.22,-101.03 1878.15,-87.23 1921.3,-77.45"/>
<polygon fill="#63b8ff" stroke="#63b8ff" points="1921.95,-80.89 1930.93,-75.27 1920.41,-74.06 1921.95,-80.89"/>
</a>
</g>
</g>
<!-- Node31&#45;&gt;Node6 -->
<g id="edge51_Node000031_Node000006" class="edge">
<title>Node31&#45;&gt;Node6</title>
<g id="a_edge51_Node000031_Node000006"><a xlink:title=" ">
<path fill="none" stroke="#63b8ff" d="M1715.77,-54.84C1701.76,-46.73 1680.94,-34.68 1664.57,-25.21"/>
<polygon fill="#63b8ff" stroke="#63b8ff" points="1666.78,-22.44 1656.37,-20.46 1663.27,-28.5 1666.78,-22.44"/>
</a>
</g>
</g>
<!-- Node33&#45;&gt;Node8 -->
<g id="edge54_Node000033_Node000008" class="edge">
<title>Node33&#45;&gt;Node8</title>
<g id="a_edge54_Node000033_Node000008"><a xlink:title=" ">
<path fill="none" stroke="#63b8ff" d="M1026.72,-165.31C997.4,-157.22 954.52,-144.43 918.38,-129.75 900.83,-122.63 898.36,-116.43 880.38,-110.5 808.05,-86.65 720.13,-75.03 666.49,-69.77"/>
<polygon fill="#63b8ff" stroke="#63b8ff" points="667.04,-66.3 656.76,-68.85 666.39,-73.27 667.04,-66.3"/>
</a>
</g>
</g>
<!-- Node33&#45;&gt;Node25 -->
<g id="edge55_Node000033_Node000025" class="edge">
<title>Node33&#45;&gt;Node25</title>
<g id="a_edge55_Node000033_Node000025"><a xlink:title=" ">
<path fill="none" stroke="#63b8ff" d="M1076.13,-165.34C1089.26,-157.31 1108.7,-145.41 1124.11,-135.98"/>
<polygon fill="#63b8ff" stroke="#63b8ff" points="1125.55,-139.2 1132.25,-130.99 1121.9,-133.23 1125.55,-139.2"/>
</a>
</g>
</g>
<!-- Node33&#45;&gt;Node27 -->
<g id="edge56_Node000033_Node000027" class="edge">
<title>Node33&#45;&gt;Node27</title>
<g id="a_edge56_Node000033_Node000027"><a xlink:title=" ">
<path fill="none" stroke="#63b8ff" d="M1061.34,-165.5C1061.78,-151.64 1064.77,-124.98 1080.38,-110.5 1100.06,-92.24 1165.06,-80.21 1216.66,-73.29"/>
<polygon fill="#63b8ff" stroke="#63b8ff" points="1216.81,-76.8 1226.27,-72.05 1215.91,-69.86 1216.81,-76.8"/>
</a>
</g>
</g>
<!-- Node34 -->
<g id="Node000034" class="node">
<title>Node34</title>
<g id="a_Node000034"><a xlink:href="_traverser_8h.html" target="_top" xlink:title=" ">
<polygon fill="white" stroke="#666666" points="1033.38,-129.75 927.38,-129.75 927.38,-110.5 1033.38,-110.5 1033.38,-129.75"/>
<text text-anchor="middle" x="980.38" y="-116.25" font-family="Helvetica,sans-Serif" font-size="10.00">Cpl/Type/Traverser.h</text>
</a>
</g>
</g>
<!-- Node33&#45;&gt;Node34 -->
<g id="edge57_Node000033_Node000034" class="edge">
<title>Node33&#45;&gt;Node34</title>
<g id="a_edge57_Node000033_Node000034"><a xlink:title=" ">
<path fill="none" stroke="#63b8ff" d="M1047.63,-165.34C1035.65,-157.46 1018,-145.86 1003.79,-136.52"/>
<polygon fill="#63b8ff" stroke="#63b8ff" points="1005.73,-133.6 995.45,-131.03 1001.88,-139.45 1005.73,-133.6"/>
</a>
</g>
</g>
<!-- Node33&#45;&gt;Node35 -->
<g id="edge58_Node000033_Node000035" class="edge">
<title>Node33&#45;&gt;Node35</title>
<g id="a_edge58_Node000033_Node000035"><a xlink:title=" ">
<path fill="none" stroke="#63b8ff" d="M1025.24,-165.34C985.57,-155.42 922.33,-139.61 883.19,-129.83"/>
<polygon fill="#63b8ff" stroke="#63b8ff" points="884.13,-126.46 873.58,-127.43 882.43,-133.25 884.13,-126.46"/>
</a>
</g>
</g>
<!-- Node36&#45;&gt;Node16 -->
<g id="edge62_Node000036_Node000016" class="edge">
<title>Node36&#45;&gt;Node16</title>
<g id="a_edge62_Node000036_Node000016"><a xlink:title=" ">
<path fill="none" stroke="#63b8ff" d="M1747.37,-165.34C1774.39,-156.62 1815.53,-143.34 1845.68,-133.61"/>
<polygon fill="#63b8ff" stroke="#63b8ff" points="1846.37,-137.07 1854.81,-130.67 1844.22,-130.41 1846.37,-137.07"/>
</a>
</g>
</g>
<!-- Node37&#45;&gt;Node12 -->
<g id="edge68_Node000037_Node000012" class="edge">
<title>Node37&#45;&gt;Node12</title>
<g id="a_edge68_Node000037_Node000012"><a xlink:title=" ">
<path fill="none" stroke="#63b8ff" d="M290.93,-110.05C339.86,-97.29 432.23,-73.57 511.38,-55.25 572.65,-41.07 644.38,-26.2 686.17,-17.7"/>
<polygon fill="#63b8ff" stroke="#63b8ff" points="686.79,-21.15 695.89,-15.73 685.4,-14.29 686.79,-21.15"/>
</a>
</g>
</g>
<!-- Node37&#45;&gt;Node13 -->
<g id="edge69_Node000037_Node000013" class="edge">
<title>Node37&#45;&gt;Node13</title>
<g id="a_edge69_Node000037_Node000013"><a xlink:title=" ">
<path fill="none" stroke="#63b8ff" d="M256.38,-110.33C256.38,-103.82 256.38,-94.67 256.38,-86.37"/>
<polygon fill="#63b8ff" stroke="#63b8ff" points="259.88,-86.37 256.38,-76.37 252.88,-86.37 259.88,-86.37"/>
</a>
</g>
</g>
</g>
</svg>
