<?xml version="1.0" encoding="UTF-8" standalone="no"?>
<!DOCTYPE svg PUBLIC "-//W3C//DTD SVG 1.1//EN"
 "http://www.w3.org/Graphics/SVG/1.1/DTD/svg11.dtd">
<!-- Generated by graphviz version 9.0.0 (20230911.1827)
 -->
<!-- Title: Cpl/Memory/Allocator.h Pages: 1 -->
<svg width="490pt" height="204pt"
 viewBox="0.00 0.00 490.00 204.25" xmlns="http://www.w3.org/2000/svg" xmlns:xlink="http://www.w3.org/1999/xlink">
<g id="graph0" class="graph" transform="scale(1 1) rotate(0) translate(4 200.25)">
<title>Cpl/Memory/Allocator.h</title>
<!-- Node1 -->
<g id="Node000001" class="node">
<title>Node1</title>
<g id="a_Node000001"><a xlink:title=" ">
<polygon fill="#999999" stroke="#666666" points="216.88,-196.25 100.38,-196.25 100.38,-177 216.88,-177 216.88,-196.25"/>
<text text-anchor="middle" x="158.62" y="-182.75" font-family="Helvetica,sans-Serif" font-size="10.00">Cpl/Memory/Allocator.h</text>
</a>
</g>
</g>
<!-- Node2 -->
<g id="Node000002" class="node">
<title>Node2</title>
<g id="a_Node000002"><a xlink:href="_contiguous_allocator_8h.html" target="_top" xlink:title=" ">
<polygon fill="white" stroke="#666666" points="165.25,-141 0,-141 0,-121.75 165.25,-121.75 165.25,-141"/>
<text text-anchor="middle" x="82.62" y="-127.5" font-family="Helvetica,sans-Serif" font-size="10.00">Cpl/Memory/ContiguousAllocator.h</text>
</a>
</g>
</g>
<!-- Node1&#45;&gt;Node2 -->
<g id="edge1_Node000001_Node000002" class="edge">
<title>Node1&#45;&gt;Node2</title>
<g id="a_edge1_Node000001_Node000002"><a xlink:title=" ">
<path fill="none" stroke="#63b8ff" d="M136.34,-170.01C123.09,-160.72 106.74,-149.27 95.58,-141.45"/>
<polygon fill="#63b8ff" stroke="#63b8ff" points="134.29,-172.85 144.49,-175.72 138.31,-167.12 134.29,-172.85"/>
</a>
</g>
</g>
<!-- Node4 -->
<g id="Node000004" class="node">
<title>Node4</title>
<g id="a_Node000004"><a xlink:href="_pool___8h.html" target="_top" xlink:title=" ">
<polygon fill="white" stroke="#666666" points="286.12,-141 183.12,-141 183.12,-121.75 286.12,-121.75 286.12,-141"/>
<text text-anchor="middle" x="234.62" y="-127.5" font-family="Helvetica,sans-Serif" font-size="10.00">Cpl/Memory/Pool_.h</text>
</a>
</g>
</g>
<!-- Node1&#45;&gt;Node4 -->
<g id="edge3_Node000001_Node000004" class="edge">
<title>Node1&#45;&gt;Node4</title>
<g id="a_edge3_Node000001_Node000004"><a xlink:title=" ">
<path fill="none" stroke="#63b8ff" d="M180.91,-170.01C194.16,-160.72 210.51,-149.27 221.67,-141.45"/>
<polygon fill="#63b8ff" stroke="#63b8ff" points="178.94,-167.12 172.76,-175.72 182.96,-172.85 178.94,-167.12"/>
</a>
</g>
</g>
<!-- Node3 -->
<g id="Node000003" class="node">
<title>Node3</title>
<g id="a_Node000003"><a xlink:href="_lean_heap_8h.html" target="_top" xlink:title=" ">
<polygon fill="white" stroke="#666666" points="144.25,-85.75 21,-85.75 21,-66.5 144.25,-66.5 144.25,-85.75"/>
<text text-anchor="middle" x="82.62" y="-72.25" font-family="Helvetica,sans-Serif" font-size="10.00">Cpl/Memory/LeanHeap.h</text>
</a>
</g>
</g>
<!-- Node2&#45;&gt;Node3 -->
<g id="edge2_Node000002_Node000003" class="edge">
<title>Node2&#45;&gt;Node3</title>
<g id="a_edge2_Node000002_Node000003"><a xlink:title=" ">
<path fill="none" stroke="#63b8ff" d="M82.62,-110.13C82.62,-101.84 82.62,-92.67 82.62,-86.11"/>
<polygon fill="#63b8ff" stroke="#63b8ff" points="79.13,-110.07 82.63,-120.07 86.13,-110.07 79.13,-110.07"/>
</a>
</g>
</g>
<!-- Node5 -->
<g id="Node000005" class="node">
<title>Node5</title>
<g id="a_Node000005"><a xlink:href="_h_pool_8h.html" target="_top" xlink:title=" ">
<polygon fill="white" stroke="#666666" points="277.25,-85.75 172,-85.75 172,-66.5 277.25,-66.5 277.25,-85.75"/>
<text text-anchor="middle" x="224.62" y="-72.25" font-family="Helvetica,sans-Serif" font-size="10.00">Cpl/Memory/HPool.h</text>
</a>
</g>
</g>
<!-- Node4&#45;&gt;Node5 -->
<g id="edge4_Node000004_Node000005" class="edge">
<title>Node4&#45;&gt;Node5</title>
<g id="a_edge4_Node000004_Node000005"><a xlink:title=" ">
<path fill="none" stroke="#63b8ff" d="M230.88,-110.42C229.31,-102.05 227.56,-92.75 226.31,-86.11"/>
<polygon fill="#63b8ff" stroke="#63b8ff" points="227.41,-110.91 232.69,-120.09 234.29,-109.62 227.41,-110.91"/>
</a>
</g>
</g>
<!-- Node6 -->
<g id="Node000006" class="node">
<title>Node6</title>
<g id="a_Node000006"><a xlink:href="_s_pool_8h.html" target="_top" xlink:title=" ">
<polygon fill="white" stroke="#666666" points="399.88,-85.75 295.38,-85.75 295.38,-66.5 399.88,-66.5 399.88,-85.75"/>
<text text-anchor="middle" x="347.62" y="-72.25" font-family="Helvetica,sans-Serif" font-size="10.00">Cpl/Memory/SPool.h</text>
</a>
</g>
</g>
<!-- Node4&#45;&gt;Node6 -->
<g id="edge5_Node000004_Node000006" class="edge">
<title>Node4&#45;&gt;Node6</title>
<g id="a_edge5_Node000004_Node000006"><a xlink:title=" ">
<path fill="none" stroke="#63b8ff" d="M264.05,-116.51C284.34,-106.95 310.72,-94.52 328.36,-86.2"/>
<polygon fill="#63b8ff" stroke="#63b8ff" points="262.72,-113.27 255.16,-120.7 265.7,-119.6 262.72,-113.27"/>
</a>
</g>
</g>
<!-- Node7 -->
<g id="Node000007" class="node">
<title>Node7</title>
<g id="a_Node000007"><a xlink:href="_io_2_file_2_littlefs_2_private___8h.html" target="_top" xlink:title=" ">
<polygon fill="white" stroke="#666666" points="327.25,-30.5 234,-30.5 234,0 327.25,0 327.25,-30.5"/>
<text text-anchor="start" x="242" y="-17" font-family="Helvetica,sans-Serif" font-size="10.00">Cpl/Io/File/Littlefs</text>
<text text-anchor="middle" x="280.62" y="-5.75" font-family="Helvetica,sans-Serif" font-size="10.00">/Private_.h</text>
</a>
</g>
</g>
<!-- Node6&#45;&gt;Node7 -->
<g id="edge6_Node000006_Node000007" class="edge">
<title>Node6&#45;&gt;Node7</title>
<g id="a_edge6_Node000006_Node000007"><a xlink:title=" ">
<path fill="none" stroke="#63b8ff" d="M329.03,-58.79C319.04,-50.01 306.82,-39.27 297.16,-30.78"/>
<polygon fill="#63b8ff" stroke="#63b8ff" points="326.49,-61.21 336.31,-65.18 331.11,-55.95 326.49,-61.21"/>
</a>
</g>
</g>
<!-- Node8 -->
<g id="Node000008" class="node">
<title>Node8</title>
<g id="a_Node000008"><a xlink:href="_stream_pool_8h.html" target="_top" xlink:title=" ">
<polygon fill="white" stroke="#666666" points="482,-24.88 345.25,-24.88 345.25,-5.63 482,-5.63 482,-24.88"/>
<text text-anchor="middle" x="413.62" y="-11.38" font-family="Helvetica,sans-Serif" font-size="10.00">Cpl/Io/Socket/StreamPool.h</text>
</a>
</g>
</g>
<!-- Node6&#45;&gt;Node8 -->
<g id="edge7_Node000006_Node000008" class="edge">
<title>Node6&#45;&gt;Node8</title>
<g id="a_edge7_Node000006_Node000008"><a xlink:title=" ">
<path fill="none" stroke="#63b8ff" d="M366.13,-58.62C378.23,-47.82 393.59,-34.12 403.51,-25.28"/>
<polygon fill="#63b8ff" stroke="#63b8ff" points="363.91,-55.91 358.78,-65.18 368.57,-61.13 363.91,-55.91"/>
</a>
</g>
</g>
</g>
</svg>
