<?xml version="1.0" encoding="UTF-8" standalone="no"?>
<!DOCTYPE svg PUBLIC "-//W3C//DTD SVG 1.1//EN"
 "http://www.w3.org/Graphics/SVG/1.1/DTD/svg11.dtd">
<!-- Generated by graphviz version 9.0.0 (20230911.1827)
 -->
<!-- Title: Driver/AIO/Arduino/HalSingleInput.h Pages: 1 -->
<svg width="190pt" height="94pt"
 viewBox="0.00 0.00 190.38 93.75" xmlns="http://www.w3.org/2000/svg" xmlns:xlink="http://www.w3.org/1999/xlink">
<g id="graph0" class="graph" transform="scale(1 1) rotate(0) translate(4 89.75)">
<title>Driver/AIO/Arduino/HalSingleInput.h</title>
<!-- Node1 -->
<g id="Node000001" class="node">
<title>Node1</title>
<g id="a_Node000001"><a xlink:title=" ">
<polygon fill="#999999" stroke="#666666" points="139.88,-85.75 42.12,-85.75 42.12,-55.25 139.88,-55.25 139.88,-85.75"/>
<text text-anchor="start" x="50.12" y="-72.25" font-family="Helvetica,sans-Serif" font-size="10.00">Driver/AIO/Arduino</text>
<text text-anchor="middle" x="91" y="-61" font-family="Helvetica,sans-Serif" font-size="10.00">/HalSingleInput.h</text>
</a>
</g>
</g>
<!-- Node2 -->
<g id="Node000002" class="node">
<title>Node2</title>
<g id="a_Node000002"><a xlink:title=" ">
<polygon fill="#e0e0e0" stroke="#999999" points="82,-19.25 0,-19.25 0,0 82,0 82,-19.25"/>
<text text-anchor="middle" x="41" y="-5.75" font-family="Helvetica,sans-Serif" font-size="10.00">colony_config.h</text>
</a>
</g>
</g>
<!-- Node1&#45;&gt;Node2 -->
<g id="edge1_Node000001_Node000002" class="edge">
<title>Node1&#45;&gt;Node2</title>
<g id="a_edge1_Node000001_Node000002"><a xlink:title=" ">
<path fill="none" stroke="#63b8ff" d="M78.64,-54.95C71.83,-46.93 63.33,-36.92 56.13,-28.44"/>
<polygon fill="#63b8ff" stroke="#63b8ff" points="58.83,-26.21 49.69,-20.85 53.49,-30.74 58.83,-26.21"/>
</a>
</g>
</g>
<!-- Node3 -->
<g id="Node000003" class="node">
<title>Node3</title>
<g id="a_Node000003"><a xlink:title=" ">
<polygon fill="#e0e0e0" stroke="#999999" points="182.38,-19.25 99.62,-19.25 99.62,0 182.38,0 182.38,-19.25"/>
<text text-anchor="middle" x="141" y="-5.75" font-family="Helvetica,sans-Serif" font-size="10.00">wiring_analog.h</text>
</a>
</g>
</g>
<!-- Node1&#45;&gt;Node3 -->
<g id="edge2_Node000001_Node000003" class="edge">
<title>Node1&#45;&gt;Node3</title>
<g id="a_edge2_Node000001_Node000003"><a xlink:title=" ">
<path fill="none" stroke="#63b8ff" d="M103.36,-54.95C110.17,-46.93 118.67,-36.92 125.87,-28.44"/>
<polygon fill="#63b8ff" stroke="#63b8ff" points="128.51,-30.74 132.31,-20.85 123.17,-26.21 128.51,-30.74"/>
</a>
</g>
</g>
</g>
</svg>
