<?xml version="1.0" encoding="UTF-8" standalone="no"?>
<!DOCTYPE svg PUBLIC "-//W3C//DTD SVG 1.1//EN"
 "http://www.w3.org/Graphics/SVG/1.1/DTD/svg11.dtd">
<!-- Generated by graphviz version 9.0.0 (20230911.1827)
 -->
<!-- Title: Driver/Button/Arduino/Hal.h Pages: 1 -->
<svg width="117pt" height="149pt"
 viewBox="0.00 0.00 117.00 149.00" xmlns="http://www.w3.org/2000/svg" xmlns:xlink="http://www.w3.org/1999/xlink">
<g id="graph0" class="graph" transform="scale(1 1) rotate(0) translate(4 145)">
<title>Driver/Button/Arduino/Hal.h</title>
<!-- Node1 -->
<g id="Node000001" class="node">
<title>Node1</title>
<g id="a_Node000001"><a xlink:title="This file defines the concrete implementation for the Button HAL running on the Arduino Framework.">
<polygon fill="#999999" stroke="#666666" points="109,-141 0,-141 0,-110.5 109,-110.5 109,-141"/>
<text text-anchor="start" x="8" y="-127.5" font-family="Helvetica,sans-Serif" font-size="10.00">Driver/Button/Arduino</text>
<text text-anchor="middle" x="54.5" y="-116.25" font-family="Helvetica,sans-Serif" font-size="10.00">/Hal.h</text>
</a>
</g>
</g>
<!-- Node2 -->
<g id="Node000002" class="node">
<title>Node2</title>
<g id="a_Node000002"><a xlink:href="_hal_8h.html" target="_top" xlink:title="This file defines a hardware abstraction layer (HAL) for accessing a digital Input that is being used...">
<polygon fill="white" stroke="#666666" points="103.75,-74.5 5.25,-74.5 5.25,-55.25 103.75,-55.25 103.75,-74.5"/>
<text text-anchor="middle" x="54.5" y="-61" font-family="Helvetica,sans-Serif" font-size="10.00">Driver/Button/Hal.h</text>
</a>
</g>
</g>
<!-- Node1&#45;&gt;Node2 -->
<g id="edge1_Node000001_Node000002" class="edge">
<title>Node1&#45;&gt;Node2</title>
<g id="a_edge1_Node000001_Node000002"><a xlink:title=" ">
<path fill="none" stroke="#63b8ff" d="M54.5,-110.2C54.5,-102.96 54.5,-94.09 54.5,-86.19"/>
<polygon fill="#63b8ff" stroke="#63b8ff" points="58,-86.46 54.5,-76.46 51,-86.46 58,-86.46"/>
</a>
</g>
</g>
<!-- Node3 -->
<g id="Node000003" class="node">
<title>Node3</title>
<g id="a_Node000003"><a xlink:title=" ">
<polygon fill="#e0e0e0" stroke="#999999" points="92.12,-19.25 16.88,-19.25 16.88,0 92.12,0 92.12,-19.25"/>
<text text-anchor="middle" x="54.5" y="-5.75" font-family="Helvetica,sans-Serif" font-size="10.00">colony_map.h</text>
</a>
</g>
</g>
<!-- Node2&#45;&gt;Node3 -->
<g id="edge2_Node000002_Node000003" class="edge">
<title>Node2&#45;&gt;Node3</title>
<g id="a_edge2_Node000002_Node000003"><a xlink:title=" ">
<path fill="none" stroke="#63b8ff" d="M54.5,-55.08C54.5,-48.57 54.5,-39.42 54.5,-31.12"/>
<polygon fill="#63b8ff" stroke="#63b8ff" points="58,-31.12 54.5,-21.12 51,-31.12 58,-31.12"/>
</a>
</g>
</g>
</g>
</svg>
