<?xml version="1.0" encoding="UTF-8" standalone="no"?>
<!DOCTYPE svg PUBLIC "-//W3C//DTD SVG 1.1//EN"
 "http://www.w3.org/Graphics/SVG/1.1/DTD/svg11.dtd">
<!-- Generated by graphviz version 9.0.0 (20230911.1827)
 -->
<!-- Title: Cpl/Dm/Mp/Array.h Pages: 1 -->
<svg width="282pt" height="94pt"
 viewBox="0.00 0.00 282.12 93.75" xmlns="http://www.w3.org/2000/svg" xmlns:xlink="http://www.w3.org/1999/xlink">
<g id="graph0" class="graph" transform="scale(1 1) rotate(0) translate(4 89.75)">
<title>Cpl/Dm/Mp/Array.h</title>
<!-- Node1 -->
<g id="Node000001" class="node">
<title>Node1</title>
<g id="a_Node000001"><a xlink:title=" ">
<polygon fill="#999999" stroke="#666666" points="196.25,-85.75 98.5,-85.75 98.5,-66.5 196.25,-66.5 196.25,-85.75"/>
<text text-anchor="middle" x="147.38" y="-72.25" font-family="Helvetica,sans-Serif" font-size="10.00">Cpl/Dm/Mp/Array.h</text>
</a>
</g>
</g>
<!-- Node2 -->
<g id="Node000002" class="node">
<title>Node2</title>
<g id="a_Node000002"><a xlink:href="_driver_2_a_i_o_2_eros_2_model_points_8h.html" target="_top" xlink:title="This file defines all of the Model Points for Ajax application.">
<polygon fill="white" stroke="#666666" points="148.75,-24.88 0,-24.88 0,-5.63 148.75,-5.63 148.75,-24.88"/>
<text text-anchor="middle" x="74.38" y="-11.38" font-family="Helvetica,sans-Serif" font-size="10.00">Driver/AIO/Eros/ModelPoints.h</text>
</a>
</g>
</g>
<!-- Node1&#45;&gt;Node2 -->
<g id="edge1_Node000001_Node000002" class="edge">
<title>Node1&#45;&gt;Node2</title>
<g id="a_edge1_Node000001_Node000002"><a xlink:title=" ">
<path fill="none" stroke="#63b8ff" d="M127.69,-59.25C114.19,-48.36 96.75,-34.3 85.57,-25.28"/>
<polygon fill="#63b8ff" stroke="#63b8ff" points="125.13,-61.68 135.11,-65.23 129.52,-56.23 125.13,-61.68"/>
</a>
</g>
</g>
<!-- Node3 -->
<g id="Node000003" class="node">
<title>Node3</title>
<g id="a_Node000003"><a xlink:href="_eros_2_test_2_thermistor_2_api_8h.html" target="_top" xlink:title=" ">
<polygon fill="white" stroke="#666666" points="274.12,-30.5 166.62,-30.5 166.62,0 274.12,0 274.12,-30.5"/>
<text text-anchor="start" x="174.62" y="-17" font-family="Helvetica,sans-Serif" font-size="10.00">Eros/Test/Thermistor</text>
<text text-anchor="middle" x="220.38" y="-5.75" font-family="Helvetica,sans-Serif" font-size="10.00">/Api.h</text>
</a>
</g>
</g>
<!-- Node1&#45;&gt;Node3 -->
<g id="edge2_Node000001_Node000003" class="edge">
<title>Node1&#45;&gt;Node3</title>
<g id="a_edge2_Node000001_Node000003"><a xlink:title=" ">
<path fill="none" stroke="#63b8ff" d="M167.3,-59.06C178.25,-50.23 191.72,-39.36 202.36,-30.78"/>
<polygon fill="#63b8ff" stroke="#63b8ff" points="165.23,-56.23 159.64,-65.23 169.62,-61.68 165.23,-56.23"/>
</a>
</g>
</g>
</g>
</svg>
