<?xml version="1.0" encoding="UTF-8" standalone="no"?>
<!DOCTYPE svg PUBLIC "-//W3C//DTD SVG 1.1//EN"
 "http://www.w3.org/Graphics/SVG/1.1/DTD/svg11.dtd">
<!-- Generated by graphviz version 9.0.0 (20230911.1827)
 -->
<!-- Title: Cpl/Itc/AtomicRequest.h Pages: 1 -->
<svg width="569pt" height="359pt"
 viewBox="0.00 0.00 568.50 358.75" xmlns="http://www.w3.org/2000/svg" xmlns:xlink="http://www.w3.org/1999/xlink">
<g id="graph0" class="graph" transform="scale(1 1) rotate(0) translate(4 354.75)">
<title>Cpl/Itc/AtomicRequest.h</title>
<!-- Node1 -->
<g id="Node000001" class="node">
<title>Node1</title>
<g id="a_Node000001"><a xlink:title=" ">
<polygon fill="#999999" stroke="#666666" points="372.75,-350.75 251,-350.75 251,-331.5 372.75,-331.5 372.75,-350.75"/>
<text text-anchor="middle" x="311.88" y="-337.25" font-family="Helvetica,sans-Serif" font-size="10.00">Cpl/Itc/AtomicRequest.h</text>
</a>
</g>
</g>
<!-- Node2 -->
<g id="Node000002" class="node">
<title>Node2</title>
<g id="a_Node000002"><a xlink:href="_request_message_8h.html" target="_top" xlink:title=" ">
<polygon fill="white" stroke="#666666" points="187.25,-240.25 56.5,-240.25 56.5,-221 187.25,-221 187.25,-240.25"/>
<text text-anchor="middle" x="121.88" y="-226.75" font-family="Helvetica,sans-Serif" font-size="10.00">Cpl/Itc/RequestMessage.h</text>
</a>
</g>
</g>
<!-- Node1&#45;&gt;Node2 -->
<g id="edge1_Node000001_Node000002" class="edge">
<title>Node1&#45;&gt;Node2</title>
<g id="a_edge1_Node000001_Node000002"><a xlink:title=" ">
<path fill="none" stroke="#63b8ff" d="M282.96,-331.15C259.89,-323.38 227.2,-310.96 200.88,-295.5 177.95,-282.04 154.64,-262.29 139.34,-248.32"/>
<polygon fill="#63b8ff" stroke="#63b8ff" points="141.73,-245.76 132.03,-241.51 136.96,-250.89 141.73,-245.76"/>
</a>
</g>
</g>
<!-- Node7 -->
<g id="Node000007" class="node">
<title>Node7</title>
<g id="a_Node000007"><a xlink:href="_s_a_p_8h.html" target="_top" xlink:title=" ">
<polygon fill="white" stroke="#666666" points="221.5,-185 146.25,-185 146.25,-165.75 221.5,-165.75 221.5,-185"/>
<text text-anchor="middle" x="183.88" y="-171.5" font-family="Helvetica,sans-Serif" font-size="10.00">Cpl/Itc/SAP.h</text>
</a>
</g>
</g>
<!-- Node1&#45;&gt;Node7 -->
<g id="edge14_Node000001_Node000007" class="edge">
<title>Node1&#45;&gt;Node7</title>
<g id="a_edge14_Node000001_Node000007"><a xlink:title=" ">
<path fill="none" stroke="#63b8ff" d="M287.26,-331.02C270.32,-323.67 248.35,-311.86 233.88,-295.5 220.23,-280.07 200.42,-225.45 190.32,-195.82"/>
<polygon fill="#63b8ff" stroke="#63b8ff" points="193.73,-194.97 187.22,-186.61 187.09,-197.2 193.73,-194.97"/>
</a>
</g>
</g>
<!-- Node9 -->
<g id="Node000009" class="node">
<title>Node9</title>
<g id="a_Node000009"><a xlink:href="_response_message_8h.html" target="_top" xlink:title=" ">
<polygon fill="white" stroke="#666666" points="381,-295.5 242.75,-295.5 242.75,-276.25 381,-276.25 381,-295.5"/>
<text text-anchor="middle" x="311.88" y="-282" font-family="Helvetica,sans-Serif" font-size="10.00">Cpl/Itc/ResponseMessage.h</text>
</a>
</g>
</g>
<!-- Node1&#45;&gt;Node9 -->
<g id="edge9_Node000001_Node000009" class="edge">
<title>Node1&#45;&gt;Node9</title>
<g id="a_edge9_Node000001_Node000009"><a xlink:title=" ">
<path fill="none" stroke="#63b8ff" d="M311.88,-331.33C311.88,-324.82 311.88,-315.67 311.88,-307.37"/>
<polygon fill="#63b8ff" stroke="#63b8ff" points="315.38,-307.37 311.88,-297.37 308.38,-307.37 315.38,-307.37"/>
</a>
</g>
</g>
<!-- Node11 -->
<g id="Node000011" class="node">
<title>Node11</title>
<g id="a_Node000011"><a xlink:href="_atomic_callback_8h.html" target="_top" xlink:title=" ">
<polygon fill="white" stroke="#666666" points="560.5,-295.5 437.25,-295.5 437.25,-276.25 560.5,-276.25 560.5,-295.5"/>
<text text-anchor="middle" x="498.88" y="-282" font-family="Helvetica,sans-Serif" font-size="10.00">Cpl/Itc/AtomicCallback.h</text>
</a>
</g>
</g>
<!-- Node1&#45;&gt;Node11 -->
<g id="edge15_Node000001_Node000011" class="edge">
<title>Node1&#45;&gt;Node11</title>
<g id="a_edge15_Node000001_Node000011"><a xlink:title=" ">
<path fill="none" stroke="#63b8ff" d="M343.6,-331.09C374.63,-322.26 422.08,-308.74 456.37,-298.98"/>
<polygon fill="#63b8ff" stroke="#63b8ff" points="456.88,-302.47 465.54,-296.37 454.97,-295.74 456.88,-302.47"/>
</a>
</g>
</g>
<!-- Node12 -->
<g id="Node000012" class="node">
<title>Node12</title>
<g id="a_Node000012"><a xlink:href="_sync_return_handler_8h.html" target="_top" xlink:title=" ">
<polygon fill="white" stroke="#666666" points="541.38,-185 402.38,-185 402.38,-165.75 541.38,-165.75 541.38,-185"/>
<text text-anchor="middle" x="471.88" y="-171.5" font-family="Helvetica,sans-Serif" font-size="10.00">Cpl/Itc/SyncReturnHandler.h</text>
</a>
</g>
</g>
<!-- Node1&#45;&gt;Node12 -->
<g id="edge16_Node000001_Node000012" class="edge">
<title>Node1&#45;&gt;Node12</title>
<g id="a_edge16_Node000001_Node000012"><a xlink:title=" ">
<path fill="none" stroke="#63b8ff" d="M333.42,-331.03C350.1,-323.27 373.11,-310.92 389.88,-295.5 422.24,-265.72 448.71,-220.92 462.19,-195.6"/>
<polygon fill="#63b8ff" stroke="#63b8ff" points="465.26,-197.29 466.75,-186.8 459.04,-194.07 465.26,-197.29"/>
</a>
</g>
</g>
<!-- Node3 -->
<g id="Node000003" class="node">
<title>Node3</title>
<g id="a_Node000003"><a xlink:href="_service_message_8h.html" target="_top" xlink:title=" ">
<polygon fill="white" stroke="#666666" points="127.75,-185 0,-185 0,-165.75 127.75,-165.75 127.75,-185"/>
<text text-anchor="middle" x="63.88" y="-171.5" font-family="Helvetica,sans-Serif" font-size="10.00">Cpl/Itc/ServiceMessage.h</text>
</a>
</g>
</g>
<!-- Node2&#45;&gt;Node3 -->
<g id="edge2_Node000002_Node000003" class="edge">
<title>Node2&#45;&gt;Node3</title>
<g id="a_edge2_Node000002_Node000003"><a xlink:title=" ">
<path fill="none" stroke="#63b8ff" d="M112.04,-220.59C103.82,-213.05 91.89,-202.1 81.96,-192.98"/>
<polygon fill="#63b8ff" stroke="#63b8ff" points="84.42,-190.48 74.68,-186.3 79.68,-195.64 84.42,-190.48"/>
</a>
</g>
</g>
<!-- Node2&#45;&gt;Node7 -->
<g id="edge6_Node000002_Node000007" class="edge">
<title>Node2&#45;&gt;Node7</title>
<g id="a_edge6_Node000002_Node000007"><a xlink:title=" ">
<path fill="none" stroke="#63b8ff" d="M132.39,-220.59C141.26,-212.97 154.19,-201.87 164.86,-192.7"/>
<polygon fill="#63b8ff" stroke="#63b8ff" points="167.06,-195.43 172.36,-186.26 162.5,-190.12 167.06,-195.43"/>
</a>
</g>
</g>
<!-- Node4 -->
<g id="Node000004" class="node">
<title>Node4</title>
<g id="a_Node000004"><a xlink:href="_message_8h.html" target="_top" xlink:title=" ">
<polygon fill="white" stroke="#666666" points="234.25,-74.5 139.5,-74.5 139.5,-55.25 234.25,-55.25 234.25,-74.5"/>
<text text-anchor="middle" x="186.88" y="-61" font-family="Helvetica,sans-Serif" font-size="10.00">Cpl/Itc/Message.h</text>
</a>
</g>
</g>
<!-- Node3&#45;&gt;Node4 -->
<g id="edge3_Node000003_Node000004" class="edge">
<title>Node3&#45;&gt;Node4</title>
<g id="a_edge3_Node000003_Node000004"><a xlink:title=" ">
<path fill="none" stroke="#63b8ff" d="M73.1,-165.53C86.19,-153.04 111.01,-129.63 132.88,-110.5 143.95,-100.81 156.61,-90.32 166.89,-81.94"/>
<polygon fill="#63b8ff" stroke="#63b8ff" points="168.81,-84.89 174.38,-75.88 164.4,-79.45 168.81,-84.89"/>
</a>
</g>
</g>
<!-- Node6 -->
<g id="Node000006" class="node">
<title>Node6</title>
<g id="a_Node000006"><a xlink:href="_return_handler_8h.html" target="_top" xlink:title=" ">
<polygon fill="white" stroke="#666666" points="370.5,-129.75 253.25,-129.75 253.25,-110.5 370.5,-110.5 370.5,-129.75"/>
<text text-anchor="middle" x="311.88" y="-116.25" font-family="Helvetica,sans-Serif" font-size="10.00">Cpl/Itc/ReturnHandler.h</text>
</a>
</g>
</g>
<!-- Node3&#45;&gt;Node6 -->
<g id="edge5_Node000003_Node000006" class="edge">
<title>Node3&#45;&gt;Node6</title>
<g id="a_edge5_Node000003_Node000006"><a xlink:title=" ">
<path fill="none" stroke="#63b8ff" d="M106.23,-165.28C148.31,-156.24 212.99,-142.36 258.55,-132.57"/>
<polygon fill="#63b8ff" stroke="#63b8ff" points="259.18,-136.02 268.22,-130.5 257.71,-129.18 259.18,-136.02"/>
</a>
</g>
</g>
<!-- Node5 -->
<g id="Node000005" class="node">
<title>Node5</title>
<g id="a_Node000005"><a xlink:href="_item_8h.html" target="_top" xlink:title=" ">
<polygon fill="white" stroke="#666666" points="300.12,-19.25 195.62,-19.25 195.62,0 300.12,0 300.12,-19.25"/>
<text text-anchor="middle" x="247.88" y="-5.75" font-family="Helvetica,sans-Serif" font-size="10.00">Cpl/Container/Item.h</text>
</a>
</g>
</g>
<!-- Node4&#45;&gt;Node5 -->
<g id="edge4_Node000004_Node000005" class="edge">
<title>Node4&#45;&gt;Node5</title>
<g id="a_edge4_Node000004_Node000005"><a xlink:title=" ">
<path fill="none" stroke="#63b8ff" d="M197.22,-54.84C205.95,-47.22 218.66,-36.12 229.17,-26.95"/>
<polygon fill="#63b8ff" stroke="#63b8ff" points="231.31,-29.73 236.54,-20.52 226.7,-24.46 231.31,-29.73"/>
</a>
</g>
</g>
<!-- Node8 -->
<g id="Node000008" class="node">
<title>Node8</title>
<g id="a_Node000008"><a xlink:href="_post_api_8h.html" target="_top" xlink:title=" ">
<polygon fill="white" stroke="#666666" points="231.62,-129.75 142.12,-129.75 142.12,-110.5 231.62,-110.5 231.62,-129.75"/>
<text text-anchor="middle" x="186.88" y="-116.25" font-family="Helvetica,sans-Serif" font-size="10.00">Cpl/Itc/PostApi.h</text>
</a>
</g>
</g>
<!-- Node7&#45;&gt;Node8 -->
<g id="edge7_Node000007_Node000008" class="edge">
<title>Node7&#45;&gt;Node8</title>
<g id="a_edge7_Node000007_Node000008"><a xlink:title=" ">
<path fill="none" stroke="#63b8ff" d="M184.37,-165.58C184.74,-158.99 185.26,-149.71 185.74,-141.32"/>
<polygon fill="#63b8ff" stroke="#63b8ff" points="189.22,-141.8 186.28,-131.62 182.23,-141.41 189.22,-141.8"/>
</a>
</g>
</g>
<!-- Node8&#45;&gt;Node4 -->
<g id="edge8_Node000008_Node000004" class="edge">
<title>Node8&#45;&gt;Node4</title>
<g id="a_edge8_Node000008_Node000004"><a xlink:title=" ">
<path fill="none" stroke="#63b8ff" d="M186.88,-110.33C186.88,-103.82 186.88,-94.67 186.88,-86.37"/>
<polygon fill="#63b8ff" stroke="#63b8ff" points="190.38,-86.37 186.88,-76.37 183.38,-86.37 190.38,-86.37"/>
</a>
</g>
</g>
<!-- Node9&#45;&gt;Node2 -->
<g id="edge13_Node000009_Node000002" class="edge">
<title>Node9&#45;&gt;Node2</title>
<g id="a_edge13_Node000009_Node000002"><a xlink:title=" ">
<path fill="none" stroke="#63b8ff" d="M279.64,-275.84C248.12,-267.01 199.9,-253.49 165.06,-243.73"/>
<polygon fill="#63b8ff" stroke="#63b8ff" points="166.29,-240.44 155.72,-241.11 164.41,-247.18 166.29,-240.44"/>
</a>
</g>
</g>
<!-- Node10 -->
<g id="Node000010" class="node">
<title>Node10</title>
<g id="a_Node000010"><a xlink:href="_async_return_handler_8h.html" target="_top" xlink:title=" ">
<polygon fill="white" stroke="#666666" points="384,-185 239.75,-185 239.75,-165.75 384,-165.75 384,-185"/>
<text text-anchor="middle" x="311.88" y="-171.5" font-family="Helvetica,sans-Serif" font-size="10.00">Cpl/Itc/AsyncReturnHandler.h</text>
</a>
</g>
</g>
<!-- Node9&#45;&gt;Node10 -->
<g id="edge10_Node000009_Node000010" class="edge">
<title>Node9&#45;&gt;Node10</title>
<g id="a_edge10_Node000009_Node000010"><a xlink:title=" ">
<path fill="none" stroke="#63b8ff" d="M311.88,-276C311.88,-258.75 311.88,-220.33 311.88,-196.56"/>
<polygon fill="#63b8ff" stroke="#63b8ff" points="315.38,-196.89 311.88,-186.89 308.38,-196.89 315.38,-196.89"/>
</a>
</g>
</g>
<!-- Node10&#45;&gt;Node6 -->
<g id="edge11_Node000010_Node000006" class="edge">
<title>Node10&#45;&gt;Node6</title>
<g id="a_edge11_Node000010_Node000006"><a xlink:title=" ">
<path fill="none" stroke="#63b8ff" d="M311.88,-165.58C311.88,-159.07 311.88,-149.92 311.88,-141.62"/>
<polygon fill="#63b8ff" stroke="#63b8ff" points="315.38,-141.62 311.88,-131.62 308.38,-141.62 315.38,-141.62"/>
</a>
</g>
</g>
<!-- Node10&#45;&gt;Node8 -->
<g id="edge12_Node000010_Node000008" class="edge">
<title>Node10&#45;&gt;Node8</title>
<g id="a_edge12_Node000010_Node000008"><a xlink:title=" ">
<path fill="none" stroke="#63b8ff" d="M290.67,-165.34C270.92,-156.93 241.2,-144.27 218.62,-134.65"/>
<polygon fill="#63b8ff" stroke="#63b8ff" points="220.15,-131.49 209.58,-130.8 217.4,-137.93 220.15,-131.49"/>
</a>
</g>
</g>
<!-- Node12&#45;&gt;Node6 -->
<g id="edge17_Node000012_Node000006" class="edge">
<title>Node12&#45;&gt;Node6</title>
<g id="a_edge17_Node000012_Node000006"><a xlink:title=" ">
<path fill="none" stroke="#63b8ff" d="M444.73,-165.34C418.64,-156.66 378.98,-143.46 349.78,-133.74"/>
<polygon fill="#63b8ff" stroke="#63b8ff" points="351.18,-130.52 340.59,-130.68 348.97,-137.16 351.18,-130.52"/>
</a>
</g>
</g>
<!-- Node13 -->
<g id="Node000013" class="node">
<title>Node13</title>
<g id="a_Node000013"><a xlink:href="_signable_8h.html" target="_top" xlink:title=" ">
<polygon fill="white" stroke="#666666" points="413,-74.5 298.75,-74.5 298.75,-55.25 413,-55.25 413,-74.5"/>
<text text-anchor="middle" x="355.88" y="-61" font-family="Helvetica,sans-Serif" font-size="10.00">Cpl/System/Signable.h</text>
</a>
</g>
</g>
<!-- Node12&#45;&gt;Node13 -->
<g id="edge18_Node000012_Node000013" class="edge">
<title>Node12&#45;&gt;Node13</title>
<g id="a_edge18_Node000012_Node000013"><a xlink:title=" ">
<path fill="none" stroke="#63b8ff" d="M462.38,-165.5C443.01,-147.38 398.65,-105.88 373.72,-82.57"/>
<polygon fill="#63b8ff" stroke="#63b8ff" points="376.3,-80.19 366.6,-75.91 371.52,-85.3 376.3,-80.19"/>
</a>
</g>
</g>
<!-- Node13&#45;&gt;Node5 -->
<g id="edge19_Node000013_Node000005" class="edge">
<title>Node13&#45;&gt;Node5</title>
<g id="a_edge19_Node000013_Node000005"><a xlink:title=" ">
<path fill="none" stroke="#63b8ff" d="M337.55,-54.84C320.8,-46.58 295.74,-34.23 276.37,-24.68"/>
<polygon fill="#63b8ff" stroke="#63b8ff" points="278.16,-21.65 267.64,-20.37 275.06,-27.93 278.16,-21.65"/>
</a>
</g>
</g>
</g>
</svg>
