<?xml version="1.0" encoding="UTF-8" standalone="no"?>
<!DOCTYPE svg PUBLIC "-//W3C//DTD SVG 1.1//EN"
 "http://www.w3.org/Graphics/SVG/1.1/DTD/svg11.dtd">
<!-- Generated by graphviz version 9.0.0 (20230911.1827)
 -->
<!-- Title: Cpl/Io/File/Littlefs/_bdfile/BdFile.h Pages: 1 -->
<svg width="202pt" height="160pt"
 viewBox="0.00 0.00 201.62 160.25" xmlns="http://www.w3.org/2000/svg" xmlns:xlink="http://www.w3.org/1999/xlink">
<g id="graph0" class="graph" transform="scale(1 1) rotate(0) translate(4 156.25)">
<title>Cpl/Io/File/Littlefs/_bdfile/BdFile.h</title>
<!-- Node1 -->
<g id="Node000001" class="node">
<title>Node1</title>
<g id="a_Node000001"><a xlink:title=" ">
<polygon fill="#999999" stroke="#666666" points="140.62,-152.25 47.38,-152.25 47.38,-121.75 140.62,-121.75 140.62,-152.25"/>
<text text-anchor="start" x="55.38" y="-138.75" font-family="Helvetica,sans-Serif" font-size="10.00">Cpl/Io/File/Littlefs</text>
<text text-anchor="middle" x="94" y="-127.5" font-family="Helvetica,sans-Serif" font-size="10.00">/_bdfile/BdFile.h</text>
</a>
</g>
</g>
<!-- Node2 -->
<g id="Node000002" class="node">
<title>Node2</title>
<g id="a_Node000002"><a xlink:title=" ">
<polygon fill="#e0e0e0" stroke="#999999" points="82,-80.12 0,-80.12 0,-60.88 82,-60.88 82,-80.12"/>
<text text-anchor="middle" x="41" y="-66.62" font-family="Helvetica,sans-Serif" font-size="10.00">colony_config.h</text>
</a>
</g>
</g>
<!-- Node1&#45;&gt;Node2 -->
<g id="edge1_Node000001_Node000002" class="edge">
<title>Node1&#45;&gt;Node2</title>
<g id="a_edge1_Node000001_Node000002"><a xlink:title=" ">
<path fill="none" stroke="#63b8ff" d="M81.97,-121.36C74.1,-111.79 63.78,-99.22 55.46,-89.1"/>
<polygon fill="#63b8ff" stroke="#63b8ff" points="58.26,-87 49.21,-81.49 52.86,-91.44 58.26,-87"/>
</a>
</g>
</g>
<!-- Node3 -->
<g id="Node000003" class="node">
<title>Node3</title>
<g id="a_Node000003"><a xlink:href="_block_driver_api_8h.html" target="_top" xlink:title=" ">
<polygon fill="white" stroke="#666666" points="193.62,-85.75 100.38,-85.75 100.38,-55.25 193.62,-55.25 193.62,-85.75"/>
<text text-anchor="start" x="108.38" y="-72.25" font-family="Helvetica,sans-Serif" font-size="10.00">Cpl/Io/File/Littlefs</text>
<text text-anchor="middle" x="147" y="-61" font-family="Helvetica,sans-Serif" font-size="10.00">/BlockDriverApi.h</text>
</a>
</g>
</g>
<!-- Node1&#45;&gt;Node3 -->
<g id="edge2_Node000001_Node000003" class="edge">
<title>Node1&#45;&gt;Node3</title>
<g id="a_edge2_Node000001_Node000003"><a xlink:title=" ">
<path fill="none" stroke="#63b8ff" d="M106.03,-121.36C112.46,-113.53 120.55,-103.69 127.83,-94.83"/>
<polygon fill="#63b8ff" stroke="#63b8ff" points="130.42,-97.2 134.06,-87.25 125.01,-92.75 130.42,-97.2"/>
</a>
</g>
</g>
<!-- Node4 -->
<g id="Node000004" class="node">
<title>Node4</title>
<g id="a_Node000004"><a xlink:title=" ">
<polygon fill="#e0e0e0" stroke="#999999" points="178.62,-19.25 115.38,-19.25 115.38,0 178.62,0 178.62,-19.25"/>
<text text-anchor="middle" x="147" y="-5.75" font-family="Helvetica,sans-Serif" font-size="10.00">littlefs/lfs.h</text>
</a>
</g>
</g>
<!-- Node3&#45;&gt;Node4 -->
<g id="edge3_Node000003_Node000004" class="edge">
<title>Node3&#45;&gt;Node4</title>
<g id="a_edge3_Node000003_Node000004"><a xlink:title=" ">
<path fill="none" stroke="#63b8ff" d="M147,-54.95C147,-47.71 147,-38.84 147,-30.94"/>
<polygon fill="#63b8ff" stroke="#63b8ff" points="150.5,-31.21 147,-21.21 143.5,-31.21 150.5,-31.21"/>
</a>
</g>
</g>
</g>
</svg>
