<?xml version="1.0" encoding="UTF-8" standalone="no"?>
<!DOCTYPE svg PUBLIC "-//W3C//DTD SVG 1.1//EN"
 "http://www.w3.org/Graphics/SVG/1.1/DTD/svg11.dtd">
<!-- Generated by graphviz version 9.0.0 (20230911.1827)
 -->
<!-- Title: Cpl/Io/File/Littlefs/_bdspi/BdSpi.h Pages: 1 -->
<svg width="474pt" height="160pt"
 viewBox="0.00 0.00 474.00 160.25" xmlns="http://www.w3.org/2000/svg" xmlns:xlink="http://www.w3.org/1999/xlink">
<g id="graph0" class="graph" transform="scale(1 1) rotate(0) translate(4 156.25)">
<title>Cpl/Io/File/Littlefs/_bdspi/BdSpi.h</title>
<!-- Node1 -->
<g id="Node000001" class="node">
<title>Node1</title>
<g id="a_Node000001"><a xlink:title=" ">
<polygon fill="#999999" stroke="#666666" points="262.62,-152.25 169.38,-152.25 169.38,-121.75 262.62,-121.75 262.62,-152.25"/>
<text text-anchor="start" x="177.38" y="-138.75" font-family="Helvetica,sans-Serif" font-size="10.00">Cpl/Io/File/Littlefs</text>
<text text-anchor="middle" x="216" y="-127.5" font-family="Helvetica,sans-Serif" font-size="10.00">/_bdspi/BdSpi.h</text>
</a>
</g>
</g>
<!-- Node2 -->
<g id="Node000002" class="node">
<title>Node2</title>
<g id="a_Node000002"><a xlink:title=" ">
<polygon fill="#e0e0e0" stroke="#999999" points="82,-80.12 0,-80.12 0,-60.88 82,-60.88 82,-80.12"/>
<text text-anchor="middle" x="41" y="-66.62" font-family="Helvetica,sans-Serif" font-size="10.00">colony_config.h</text>
</a>
</g>
</g>
<!-- Node1&#45;&gt;Node2 -->
<g id="edge1_Node000001_Node000002" class="edge">
<title>Node1&#45;&gt;Node2</title>
<g id="a_edge1_Node000001_Node000002"><a xlink:title=" ">
<path fill="none" stroke="#63b8ff" d="M176.29,-121.36C146.16,-110.26 105.11,-95.13 76.16,-84.46"/>
<polygon fill="#63b8ff" stroke="#63b8ff" points="77.71,-81.3 67.12,-81.13 75.29,-87.87 77.71,-81.3"/>
</a>
</g>
</g>
<!-- Node3 -->
<g id="Node000003" class="node">
<title>Node3</title>
<g id="a_Node000003"><a xlink:href="_block_driver_api_8h.html" target="_top" xlink:title=" ">
<polygon fill="white" stroke="#666666" points="193.62,-85.75 100.38,-85.75 100.38,-55.25 193.62,-55.25 193.62,-85.75"/>
<text text-anchor="start" x="108.38" y="-72.25" font-family="Helvetica,sans-Serif" font-size="10.00">Cpl/Io/File/Littlefs</text>
<text text-anchor="middle" x="147" y="-61" font-family="Helvetica,sans-Serif" font-size="10.00">/BlockDriverApi.h</text>
</a>
</g>
</g>
<!-- Node1&#45;&gt;Node3 -->
<g id="edge2_Node000001_Node000003" class="edge">
<title>Node1&#45;&gt;Node3</title>
<g id="a_edge2_Node000001_Node000003"><a xlink:title=" ">
<path fill="none" stroke="#63b8ff" d="M200.34,-121.36C191.61,-113.2 180.55,-102.86 170.77,-93.72"/>
<polygon fill="#63b8ff" stroke="#63b8ff" points="173.4,-91.38 163.7,-87.11 168.62,-96.5 173.4,-91.38"/>
</a>
</g>
</g>
<!-- Node5 -->
<g id="Node000005" class="node">
<title>Node5</title>
<g id="a_Node000005"><a xlink:href="_master_half_duplex_8h.html" target="_top" xlink:title=" ">
<polygon fill="white" stroke="#666666" points="360.38,-80.12 211.62,-80.12 211.62,-60.88 360.38,-60.88 360.38,-80.12"/>
<text text-anchor="middle" x="286" y="-66.62" font-family="Helvetica,sans-Serif" font-size="10.00">Driver/SPI/MasterHalfDuplex.h</text>
</a>
</g>
</g>
<!-- Node1&#45;&gt;Node5 -->
<g id="edge4_Node000001_Node000005" class="edge">
<title>Node1&#45;&gt;Node5</title>
<g id="a_edge4_Node000001_Node000005"><a xlink:title=" ">
<path fill="none" stroke="#63b8ff" d="M231.88,-121.36C242.71,-111.39 257.04,-98.18 268.24,-87.86"/>
<polygon fill="#63b8ff" stroke="#63b8ff" points="270.33,-90.7 275.31,-81.35 265.59,-85.55 270.33,-90.7"/>
</a>
</g>
</g>
<!-- Node7 -->
<g id="Node000007" class="node">
<title>Node7</title>
<g id="a_Node000007"><a xlink:href="_out_8h.html" target="_top" xlink:title=" ">
<polygon fill="white" stroke="#666666" points="466,-80.12 378,-80.12 378,-60.88 466,-60.88 466,-80.12"/>
<text text-anchor="middle" x="422" y="-66.62" font-family="Helvetica,sans-Serif" font-size="10.00">Driver/DIO/Out.h</text>
</a>
</g>
</g>
<!-- Node1&#45;&gt;Node7 -->
<g id="edge6_Node000001_Node000007" class="edge">
<title>Node1&#45;&gt;Node7</title>
<g id="a_edge6_Node000001_Node000007"><a xlink:title=" ">
<path fill="none" stroke="#63b8ff" d="M263,-121.28C298.96,-110.03 347.99,-94.67 382.06,-84.01"/>
<polygon fill="#63b8ff" stroke="#63b8ff" points="383.06,-87.36 391.55,-81.03 380.96,-80.68 383.06,-87.36"/>
</a>
</g>
</g>
<!-- Node4 -->
<g id="Node000004" class="node">
<title>Node4</title>
<g id="a_Node000004"><a xlink:title=" ">
<polygon fill="#e0e0e0" stroke="#999999" points="178.62,-19.25 115.38,-19.25 115.38,0 178.62,0 178.62,-19.25"/>
<text text-anchor="middle" x="147" y="-5.75" font-family="Helvetica,sans-Serif" font-size="10.00">littlefs/lfs.h</text>
</a>
</g>
</g>
<!-- Node3&#45;&gt;Node4 -->
<g id="edge3_Node000003_Node000004" class="edge">
<title>Node3&#45;&gt;Node4</title>
<g id="a_edge3_Node000003_Node000004"><a xlink:title=" ">
<path fill="none" stroke="#63b8ff" d="M147,-54.95C147,-47.71 147,-38.84 147,-30.94"/>
<polygon fill="#63b8ff" stroke="#63b8ff" points="150.5,-31.21 147,-21.21 143.5,-31.21 150.5,-31.21"/>
</a>
</g>
</g>
<!-- Node6 -->
<g id="Node000006" class="node">
<title>Node6</title>
<g id="a_Node000006"><a xlink:title=" ">
<polygon fill="#e0e0e0" stroke="#999999" points="309.38,-19.25 262.62,-19.25 262.62,0 309.38,0 309.38,-19.25"/>
<text text-anchor="middle" x="286" y="-5.75" font-family="Helvetica,sans-Serif" font-size="10.00">stdlib.h</text>
</a>
</g>
</g>
<!-- Node5&#45;&gt;Node6 -->
<g id="edge5_Node000005_Node000006" class="edge">
<title>Node5&#45;&gt;Node6</title>
<g id="a_edge5_Node000005_Node000006"><a xlink:title=" ">
<path fill="none" stroke="#63b8ff" d="M286,-60.56C286,-52.78 286,-41.2 286,-31.16"/>
<polygon fill="#63b8ff" stroke="#63b8ff" points="289.5,-31.16 286,-21.16 282.5,-31.16 289.5,-31.16"/>
</a>
</g>
</g>
<!-- Node8 -->
<g id="Node000008" class="node">
<title>Node8</title>
<g id="a_Node000008"><a xlink:title=" ">
<polygon fill="#e0e0e0" stroke="#999999" points="459.62,-19.25 384.38,-19.25 384.38,0 459.62,0 459.62,-19.25"/>
<text text-anchor="middle" x="422" y="-5.75" font-family="Helvetica,sans-Serif" font-size="10.00">colony_map.h</text>
</a>
</g>
</g>
<!-- Node7&#45;&gt;Node8 -->
<g id="edge7_Node000007_Node000008" class="edge">
<title>Node7&#45;&gt;Node8</title>
<g id="a_edge7_Node000007_Node000008"><a xlink:title=" ">
<path fill="none" stroke="#63b8ff" d="M422,-60.56C422,-52.78 422,-41.2 422,-31.16"/>
<polygon fill="#63b8ff" stroke="#63b8ff" points="425.5,-31.16 422,-21.16 418.5,-31.16 425.5,-31.16"/>
</a>
</g>
</g>
</g>
</svg>
