<?xml version="1.0" encoding="UTF-8" standalone="no"?>
<!DOCTYPE svg PUBLIC "-//W3C//DTD SVG 1.1//EN"
 "http://www.w3.org/Graphics/SVG/1.1/DTD/svg11.dtd">
<!-- Generated by graphviz version 9.0.0 (20230911.1827)
 -->
<!-- Title: Bsp/ST/NUCLEO&#45;F413ZH/alpha1/Api.h Pages: 1 -->
<svg width="884pt" height="227pt"
 viewBox="0.00 0.00 883.75 226.75" xmlns="http://www.w3.org/2000/svg" xmlns:xlink="http://www.w3.org/1999/xlink">
<g id="graph0" class="graph" transform="scale(1 1) rotate(0) translate(4 222.75)">
<title>Bsp/ST/NUCLEO&#45;F413ZH/alpha1/Api.h</title>
<!-- Node1 -->
<g id="Node000001" class="node">
<title>Node1</title>
<g id="a_Node000001"><a xlink:title="This BSP is developed/build with a &#39;just&#45;in&#45;time&#39; approach.">
<polygon fill="#999999" stroke="#666666" points="425.75,-218.75 294.25,-218.75 294.25,-188.25 425.75,-188.25 425.75,-218.75"/>
<text text-anchor="start" x="302.25" y="-205.25" font-family="Helvetica,sans-Serif" font-size="10.00">Bsp/ST/NUCLEO&#45;F413ZH</text>
<text text-anchor="middle" x="360" y="-194" font-family="Helvetica,sans-Serif" font-size="10.00">/alpha1/Api.h</text>
</a>
</g>
</g>
<!-- Node2 -->
<g id="Node000002" class="node">
<title>Node2</title>
<g id="a_Node000002"><a xlink:title=" ">
<polygon fill="#e0e0e0" stroke="#999999" points="82,-146.62 0,-146.62 0,-127.38 82,-127.38 82,-146.62"/>
<text text-anchor="middle" x="41" y="-133.12" font-family="Helvetica,sans-Serif" font-size="10.00">colony_config.h</text>
</a>
</g>
</g>
<!-- Node1&#45;&gt;Node2 -->
<g id="edge1_Node000001_Node000002" class="edge">
<title>Node1&#45;&gt;Node2</title>
<g id="a_edge1_Node000001_Node000002"><a xlink:title=" ">
<path fill="none" stroke="#63b8ff" d="M293.84,-191.15C240.3,-181.66 163.03,-167.3 96,-152.25 92.64,-151.5 89.18,-150.68 85.7,-149.84"/>
<polygon fill="#63b8ff" stroke="#63b8ff" points="86.67,-146.48 76.12,-147.46 84.98,-153.27 86.67,-146.48"/>
</a>
</g>
</g>
<!-- Node3 -->
<g id="Node000003" class="node">
<title>Node3</title>
<g id="a_Node000003"><a xlink:href="_s_t_2_n_u_c_l_e_o-_f413_z_h_2alpha1_2_m_x_2_core_2_inc_2main_8h.html" target="_top" xlink:title=": Header for main.c file.">
<polygon fill="white" stroke="#666666" points="503.38,-85.75 366.62,-85.75 366.62,-55.25 503.38,-55.25 503.38,-85.75"/>
<text text-anchor="start" x="374.62" y="-72.25" font-family="Helvetica,sans-Serif" font-size="10.00">Bsp/ST/NUCLEO&#45;F413ZH</text>
<text text-anchor="middle" x="435" y="-61" font-family="Helvetica,sans-Serif" font-size="10.00">/alpha1/MX/Core/Inc/main.h</text>
</a>
</g>
</g>
<!-- Node1&#45;&gt;Node3 -->
<g id="edge2_Node000001_Node000003" class="edge">
<title>Node1&#45;&gt;Node3</title>
<g id="a_edge2_Node000001_Node000003"><a xlink:title=" ">
<path fill="none" stroke="#63b8ff" d="M294.03,-200.57C209.75,-195.78 80.26,-179.15 129,-121.75 157.5,-88.19 274.49,-77 355.26,-73.3"/>
<polygon fill="#63b8ff" stroke="#63b8ff" points="355.05,-76.81 364.89,-72.89 354.75,-69.82 355.05,-76.81"/>
</a>
</g>
</g>
<!-- Node5 -->
<g id="Node000005" class="node">
<title>Node5</title>
<g id="a_Node000005"><a xlink:href="_s_t_2_n_u_c_l_e_o-_f413_z_h_2alpha1_2_m_x_2_core_2_inc_2usart_8h.html" target="_top" xlink:title="This file contains all the function prototypes for the usart.c file.">
<polygon fill="white" stroke="#666666" points="275.75,-152.25 138.25,-152.25 138.25,-121.75 275.75,-121.75 275.75,-152.25"/>
<text text-anchor="start" x="146.25" y="-138.75" font-family="Helvetica,sans-Serif" font-size="10.00">Bsp/ST/NUCLEO&#45;F413ZH</text>
<text text-anchor="middle" x="207" y="-127.5" font-family="Helvetica,sans-Serif" font-size="10.00">/alpha1/MX/Core/Inc/usart.h</text>
</a>
</g>
</g>
<!-- Node1&#45;&gt;Node5 -->
<g id="edge4_Node000001_Node000005" class="edge">
<title>Node1&#45;&gt;Node5</title>
<g id="a_edge4_Node000001_Node000005"><a xlink:title=" ">
<path fill="none" stroke="#63b8ff" d="M325.28,-187.86C303.64,-178.74 275.57,-166.91 252.21,-157.06"/>
<polygon fill="#63b8ff" stroke="#63b8ff" points="253.81,-153.94 243.24,-153.28 251.09,-160.39 253.81,-153.94"/>
</a>
</g>
</g>
<!-- Node6 -->
<g id="Node000006" class="node">
<title>Node6</title>
<g id="a_Node000006"><a xlink:href="_s_t_2_n_u_c_l_e_o-_f413_z_h_2alpha1_2_m_x_2_core_2_inc_2tim_8h.html" target="_top" xlink:title="This file contains all the function prototypes for the tim.c file.">
<polygon fill="white" stroke="#666666" points="425.75,-152.25 294.25,-152.25 294.25,-121.75 425.75,-121.75 425.75,-152.25"/>
<text text-anchor="start" x="302.25" y="-138.75" font-family="Helvetica,sans-Serif" font-size="10.00">Bsp/ST/NUCLEO&#45;F413ZH</text>
<text text-anchor="middle" x="360" y="-127.5" font-family="Helvetica,sans-Serif" font-size="10.00">/alpha1/MX/Core/Inc/tim.h</text>
</a>
</g>
</g>
<!-- Node1&#45;&gt;Node6 -->
<g id="edge6_Node000001_Node000006" class="edge">
<title>Node1&#45;&gt;Node6</title>
<g id="a_edge6_Node000001_Node000006"><a xlink:title=" ">
<path fill="none" stroke="#63b8ff" d="M360,-187.86C360,-180.77 360,-172.04 360,-163.88"/>
<polygon fill="#63b8ff" stroke="#63b8ff" points="363.5,-164.09 360,-154.09 356.5,-164.09 363.5,-164.09"/>
</a>
</g>
</g>
<!-- Node7 -->
<g id="Node000007" class="node">
<title>Node7</title>
<g id="a_Node000007"><a xlink:href="_s_t_2_n_u_c_l_e_o-_f413_z_h_2alpha1_2_m_x_2_core_2_inc_2i2c_8h.html" target="_top" xlink:title="This file contains all the function prototypes for the i2c.c file.">
<polygon fill="white" stroke="#666666" points="575.75,-152.25 444.25,-152.25 444.25,-121.75 575.75,-121.75 575.75,-152.25"/>
<text text-anchor="start" x="452.25" y="-138.75" font-family="Helvetica,sans-Serif" font-size="10.00">Bsp/ST/NUCLEO&#45;F413ZH</text>
<text text-anchor="middle" x="510" y="-127.5" font-family="Helvetica,sans-Serif" font-size="10.00">/alpha1/MX/Core/Inc/i2c.h</text>
</a>
</g>
</g>
<!-- Node1&#45;&gt;Node7 -->
<g id="edge8_Node000001_Node000007" class="edge">
<title>Node1&#45;&gt;Node7</title>
<g id="a_edge8_Node000001_Node000007"><a xlink:title=" ">
<path fill="none" stroke="#63b8ff" d="M394.04,-187.86C415.15,-178.78 442.52,-167.02 465.37,-157.19"/>
<polygon fill="#63b8ff" stroke="#63b8ff" points="466.64,-160.45 474.45,-153.29 463.88,-154.02 466.64,-160.45"/>
</a>
</g>
</g>
<!-- Node8 -->
<g id="Node000008" class="node">
<title>Node8</title>
<g id="a_Node000008"><a xlink:href="_s_t_2_n_u_c_l_e_o-_f413_z_h_2alpha1_2_m_x_2_core_2_inc_2adc_8h.html" target="_top" xlink:title="This file contains all the function prototypes for the adc.c file.">
<polygon fill="white" stroke="#666666" points="725.75,-152.25 594.25,-152.25 594.25,-121.75 725.75,-121.75 725.75,-152.25"/>
<text text-anchor="start" x="602.25" y="-138.75" font-family="Helvetica,sans-Serif" font-size="10.00">Bsp/ST/NUCLEO&#45;F413ZH</text>
<text text-anchor="middle" x="660" y="-127.5" font-family="Helvetica,sans-Serif" font-size="10.00">/alpha1/MX/Core/Inc/adc.h</text>
</a>
</g>
</g>
<!-- Node1&#45;&gt;Node8 -->
<g id="edge10_Node000001_Node000008" class="edge">
<title>Node1&#45;&gt;Node8</title>
<g id="a_edge10_Node000001_Node000008"><a xlink:title=" ">
<path fill="none" stroke="#63b8ff" d="M426.21,-188.27C472.47,-178.32 534.39,-165.01 582.89,-154.58"/>
<polygon fill="#63b8ff" stroke="#63b8ff" points="583.44,-158.04 592.48,-152.52 581.97,-151.2 583.44,-158.04"/>
</a>
</g>
</g>
<!-- Node9 -->
<g id="Node000009" class="node">
<title>Node9</title>
<g id="a_Node000009"><a xlink:href="_s_t_2_n_u_c_l_e_o-_f413_z_h_2alpha1_2_m_x_2_core_2_inc_2spi_8h.html" target="_top" xlink:title="This file contains all the function prototypes for the spi.c file.">
<polygon fill="white" stroke="#666666" points="875.75,-152.25 744.25,-152.25 744.25,-121.75 875.75,-121.75 875.75,-152.25"/>
<text text-anchor="start" x="752.25" y="-138.75" font-family="Helvetica,sans-Serif" font-size="10.00">Bsp/ST/NUCLEO&#45;F413ZH</text>
<text text-anchor="middle" x="810" y="-127.5" font-family="Helvetica,sans-Serif" font-size="10.00">/alpha1/MX/Core/Inc/spi.h</text>
</a>
</g>
</g>
<!-- Node1&#45;&gt;Node9 -->
<g id="edge12_Node000001_Node000009" class="edge">
<title>Node1&#45;&gt;Node9</title>
<g id="a_edge12_Node000001_Node000009"><a xlink:title=" ">
<path fill="none" stroke="#63b8ff" d="M426.21,-194.74C498.84,-185.97 619.14,-170.72 732.48,-152.6"/>
<polygon fill="#63b8ff" stroke="#63b8ff" points="732.97,-156.07 742.29,-151.03 731.86,-149.16 732.97,-156.07"/>
</a>
</g>
</g>
<!-- Node4 -->
<g id="Node000004" class="node">
<title>Node4</title>
<g id="a_Node000004"><a xlink:title=" ">
<polygon fill="#e0e0e0" stroke="#999999" points="477.88,-19.25 392.12,-19.25 392.12,0 477.88,0 477.88,-19.25"/>
<text text-anchor="middle" x="435" y="-5.75" font-family="Helvetica,sans-Serif" font-size="10.00">stm32f4xx_hal.h</text>
</a>
</g>
</g>
<!-- Node3&#45;&gt;Node4 -->
<g id="edge3_Node000003_Node000004" class="edge">
<title>Node3&#45;&gt;Node4</title>
<g id="a_edge3_Node000003_Node000004"><a xlink:title=" ">
<path fill="none" stroke="#63b8ff" d="M435,-54.95C435,-47.71 435,-38.84 435,-30.94"/>
<polygon fill="#63b8ff" stroke="#63b8ff" points="438.5,-31.21 435,-21.21 431.5,-31.21 438.5,-31.21"/>
</a>
</g>
</g>
<!-- Node5&#45;&gt;Node3 -->
<g id="edge5_Node000005_Node000003" class="edge">
<title>Node5&#45;&gt;Node3</title>
<g id="a_edge5_Node000005_Node000003"><a xlink:title=" ">
<path fill="none" stroke="#63b8ff" d="M259.02,-121.28C292.73,-111.75 336.82,-99.27 372.44,-89.2"/>
<polygon fill="#63b8ff" stroke="#63b8ff" points="373.08,-92.66 381.75,-86.57 371.17,-85.92 373.08,-92.66"/>
</a>
</g>
</g>
<!-- Node6&#45;&gt;Node3 -->
<g id="edge7_Node000006_Node000003" class="edge">
<title>Node6&#45;&gt;Node3</title>
<g id="a_edge7_Node000006_Node000003"><a xlink:title=" ">
<path fill="none" stroke="#63b8ff" d="M377.02,-121.36C386.61,-113.12 398.77,-102.65 409.48,-93.44"/>
<polygon fill="#63b8ff" stroke="#63b8ff" points="411.6,-96.24 416.9,-87.07 407.04,-90.93 411.6,-96.24"/>
</a>
</g>
</g>
<!-- Node7&#45;&gt;Node3 -->
<g id="edge9_Node000007_Node000003" class="edge">
<title>Node7&#45;&gt;Node3</title>
<g id="a_edge9_Node000007_Node000003"><a xlink:title=" ">
<path fill="none" stroke="#63b8ff" d="M492.98,-121.36C483.39,-113.12 471.23,-102.65 460.52,-93.44"/>
<polygon fill="#63b8ff" stroke="#63b8ff" points="462.96,-90.93 453.1,-87.07 458.4,-96.24 462.96,-90.93"/>
</a>
</g>
</g>
<!-- Node8&#45;&gt;Node3 -->
<g id="edge11_Node000008_Node000003" class="edge">
<title>Node8&#45;&gt;Node3</title>
<g id="a_edge11_Node000008_Node000003"><a xlink:title=" ">
<path fill="none" stroke="#63b8ff" d="M608.66,-121.28C575.4,-111.75 531.88,-99.27 496.74,-89.2"/>
<polygon fill="#63b8ff" stroke="#63b8ff" points="498.15,-85.96 487.57,-86.57 496.22,-92.69 498.15,-85.96"/>
</a>
</g>
</g>
<!-- Node9&#45;&gt;Node3 -->
<g id="edge13_Node000009_Node000003" class="edge">
<title>Node9&#45;&gt;Node3</title>
<g id="a_edge13_Node000009_Node000003"><a xlink:title=" ">
<path fill="none" stroke="#63b8ff" d="M743.76,-123.33C740.8,-122.79 737.87,-122.26 735,-121.75 660.37,-108.41 575.09,-94.23 514.59,-84.35"/>
<polygon fill="#63b8ff" stroke="#63b8ff" points="515.51,-80.95 505.08,-82.8 514.38,-87.86 515.51,-80.95"/>
</a>
</g>
</g>
</g>
</svg>
