<?xml version="1.0" encoding="UTF-8" standalone="no"?>
<!DOCTYPE svg PUBLIC "-//W3C//DTD SVG 1.1//EN"
 "http://www.w3.org/Graphics/SVG/1.1/DTD/svg11.dtd">
<!-- Generated by graphviz version 9.0.0 (20230911.1827)
 -->
<!-- Title: Cpl/TShell/Cmd/Bye.h Pages: 1 -->
<svg width="624pt" height="525pt"
 viewBox="0.00 0.00 624.00 524.50" xmlns="http://www.w3.org/2000/svg" xmlns:xlink="http://www.w3.org/1999/xlink">
<g id="graph0" class="graph" transform="scale(1 1) rotate(0) translate(4 520.5)">
<title>Cpl/TShell/Cmd/Bye.h</title>
<!-- Node1 -->
<g id="Node000001" class="node">
<title>Node1</title>
<g id="a_Node000001"><a xlink:title=" ">
<polygon fill="#999999" stroke="#666666" points="119.62,-516.5 8.38,-516.5 8.38,-497.25 119.62,-497.25 119.62,-516.5"/>
<text text-anchor="middle" x="64" y="-503" font-family="Helvetica,sans-Serif" font-size="10.00">Cpl/TShell/Cmd/Bye.h</text>
</a>
</g>
</g>
<!-- Node2 -->
<g id="Node000002" class="node">
<title>Node2</title>
<g id="a_Node000002"><a xlink:title=" ">
<polygon fill="#e0e0e0" stroke="#999999" points="124,-19.25 42,-19.25 42,0 124,0 124,-19.25"/>
<text text-anchor="middle" x="83" y="-5.75" font-family="Helvetica,sans-Serif" font-size="10.00">colony_config.h</text>
</a>
</g>
</g>
<!-- Node1&#45;&gt;Node2 -->
<g id="edge1_Node000001_Node000002" class="edge">
<title>Node1&#45;&gt;Node2</title>
<g id="a_edge1_Node000001_Node000002"><a xlink:title=" ">
<path fill="none" stroke="#63b8ff" d="M54,-496.79C36,-479.4 0,-439.36 0,-397.38 0,-397.38 0,-397.38 0,-119.12 0,-79.34 35.63,-45.11 60.2,-26.24"/>
<polygon fill="#63b8ff" stroke="#63b8ff" points="62.09,-29.2 68.07,-20.45 57.94,-23.56 62.09,-29.2"/>
</a>
</g>
</g>
<!-- Node3 -->
<g id="Node000003" class="node">
<title>Node3</title>
<g id="a_Node000003"><a xlink:href="_cmd_2_command_8h.html" target="_top" xlink:title=" ">
<polygon fill="white" stroke="#666666" points="259.5,-461.25 120.5,-461.25 120.5,-442 259.5,-442 259.5,-461.25"/>
<text text-anchor="middle" x="190" y="-447.75" font-family="Helvetica,sans-Serif" font-size="10.00">Cpl/TShell/Cmd/Command.h</text>
</a>
</g>
</g>
<!-- Node1&#45;&gt;Node3 -->
<g id="edge2_Node000001_Node000003" class="edge">
<title>Node1&#45;&gt;Node3</title>
<g id="a_edge2_Node000001_Node000003"><a xlink:title=" ">
<path fill="none" stroke="#63b8ff" d="M85.37,-496.84C105.29,-488.43 135.24,-475.77 158,-466.15"/>
<polygon fill="#63b8ff" stroke="#63b8ff" points="159.28,-469.41 167.13,-462.29 156.55,-462.96 159.28,-469.41"/>
</a>
</g>
</g>
<!-- Node3&#45;&gt;Node2 -->
<g id="edge3_Node000003_Node000002" class="edge">
<title>Node3&#45;&gt;Node2</title>
<g id="a_edge3_Node000003_Node000002"><a xlink:title=" ">
<path fill="none" stroke="#63b8ff" d="M152.82,-441.61C107.82,-428.22 38,-398.38 38,-342.12 38,-342.12 38,-342.12 38,-119.12 38,-85.44 56.74,-50.04 70.03,-29.18"/>
<polygon fill="#63b8ff" stroke="#63b8ff" points="72.89,-31.2 75.52,-20.93 67.07,-27.32 72.89,-31.2"/>
</a>
</g>
</g>
<!-- Node4 -->
<g id="Node000004" class="node">
<title>Node4</title>
<g id="a_Node000004"><a xlink:href="_command_8h.html" target="_top" xlink:title=" ">
<polygon fill="white" stroke="#666666" points="374.88,-350.75 259.12,-350.75 259.12,-331.5 374.88,-331.5 374.88,-350.75"/>
<text text-anchor="middle" x="317" y="-337.25" font-family="Helvetica,sans-Serif" font-size="10.00">Cpl/TShell/Command.h</text>
</a>
</g>
</g>
<!-- Node3&#45;&gt;Node4 -->
<g id="edge4_Node000003_Node000004" class="edge">
<title>Node3&#45;&gt;Node4</title>
<g id="a_edge4_Node000003_Node000004"><a xlink:title=" ">
<path fill="none" stroke="#63b8ff" d="M232.89,-441.54C254.43,-434.97 279.42,-423.98 296,-406 307.03,-394.04 312.27,-376.18 314.76,-362.38"/>
<polygon fill="#63b8ff" stroke="#63b8ff" points="318.2,-363.03 316.15,-352.63 311.27,-362.04 318.2,-363.03"/>
</a>
</g>
</g>
<!-- Node15 -->
<g id="Node000015" class="node">
<title>Node15</title>
<g id="a_Node000015"><a xlink:href="_text_2_string_8h.html" target="_top" xlink:title=" ">
<polygon fill="white" stroke="#666666" points="616,-240.25 528,-240.25 528,-221 616,-221 616,-240.25"/>
<text text-anchor="middle" x="572" y="-226.75" font-family="Helvetica,sans-Serif" font-size="10.00">Cpl/Text/String.h</text>
</a>
</g>
</g>
<!-- Node3&#45;&gt;Node15 -->
<g id="edge40_Node000003_Node000015" class="edge">
<title>Node3&#45;&gt;Node15</title>
<g id="a_edge40_Node000003_Node000015"><a xlink:title=" ">
<path fill="none" stroke="#63b8ff" d="M259.81,-448.05C335.9,-441.61 456.81,-420.22 532,-350.75 560.09,-324.8 568.47,-278.52 570.96,-251.93"/>
<polygon fill="#63b8ff" stroke="#63b8ff" points="574.43,-252.37 571.66,-242.14 567.45,-251.87 574.43,-252.37"/>
</a>
</g>
</g>
<!-- Node21 -->
<g id="Node000021" class="node">
<title>Node21</title>
<g id="a_Node000021"><a xlink:href="_context___8h.html" target="_top" xlink:title=" ">
<polygon fill="white" stroke="#666666" points="286.88,-406 177.12,-406 177.12,-386.75 286.88,-386.75 286.88,-406"/>
<text text-anchor="middle" x="232" y="-392.5" font-family="Helvetica,sans-Serif" font-size="10.00">Cpl/TShell/Context_.h</text>
</a>
</g>
</g>
<!-- Node3&#45;&gt;Node21 -->
<g id="edge26_Node000003_Node000021" class="edge">
<title>Node3&#45;&gt;Node21</title>
<g id="a_edge26_Node000003_Node000021"><a xlink:title=" ">
<path fill="none" stroke="#63b8ff" d="M196.94,-441.83C202.62,-434.63 210.84,-424.21 217.89,-415.26"/>
<polygon fill="#63b8ff" stroke="#63b8ff" points="220.53,-417.57 223.98,-407.55 215.04,-413.23 220.53,-417.57"/>
</a>
</g>
</g>
<!-- Node24 -->
<g id="Node000024" class="node">
<title>Node24</title>
<g id="a_Node000024"><a xlink:href="_map_8h.html" target="_top" xlink:title=" ">
<polygon fill="white" stroke="#666666" points="200.88,-350.75 97.12,-350.75 97.12,-331.5 200.88,-331.5 200.88,-350.75"/>
<text text-anchor="middle" x="149" y="-337.25" font-family="Helvetica,sans-Serif" font-size="10.00">Cpl/Container/Map.h</text>
</a>
</g>
</g>
<!-- Node3&#45;&gt;Node24 -->
<g id="edge39_Node000003_Node000024" class="edge">
<title>Node3&#45;&gt;Node24</title>
<g id="a_edge39_Node000003_Node000024"><a xlink:title=" ">
<path fill="none" stroke="#63b8ff" d="M184.99,-441.6C180.19,-432.73 172.98,-418.71 168,-406 162.3,-391.47 157.34,-374.52 153.91,-361.73"/>
<polygon fill="#63b8ff" stroke="#63b8ff" points="157.4,-361.23 151.5,-352.43 150.62,-362.98 157.4,-361.23"/>
</a>
</g>
</g>
<!-- Node5 -->
<g id="Node000005" class="node">
<title>Node5</title>
<g id="a_Node000005"><a xlink:href="_map_item_8h.html" target="_top" xlink:title=" ">
<polygon fill="white" stroke="#666666" points="283.62,-240.25 160.38,-240.25 160.38,-221 283.62,-221 283.62,-240.25"/>
<text text-anchor="middle" x="222" y="-226.75" font-family="Helvetica,sans-Serif" font-size="10.00">Cpl/Container/MapItem.h</text>
</a>
</g>
</g>
<!-- Node4&#45;&gt;Node5 -->
<g id="edge5_Node000004_Node000005" class="edge">
<title>Node4&#45;&gt;Node5</title>
<g id="a_edge5_Node000004_Node000005"><a xlink:title=" ">
<path fill="none" stroke="#63b8ff" d="M321.17,-331.02C326.53,-317.8 333.94,-293.05 323,-276.25 313.12,-261.09 296.79,-251.04 280.12,-244.39"/>
<polygon fill="#63b8ff" stroke="#63b8ff" points="281.76,-241.27 271.17,-241.19 279.4,-247.86 281.76,-241.27"/>
</a>
</g>
</g>
<!-- Node14 -->
<g id="Node000014" class="node">
<title>Node14</title>
<g id="a_Node000014"><a xlink:href="_cpl_2_io_2_output_8h.html" target="_top" xlink:title=" ">
<polygon fill="white" stroke="#666666" points="451.62,-295.5 370.38,-295.5 370.38,-276.25 451.62,-276.25 451.62,-295.5"/>
<text text-anchor="middle" x="411" y="-282" font-family="Helvetica,sans-Serif" font-size="10.00">Cpl/Io/Output.h</text>
</a>
</g>
</g>
<!-- Node4&#45;&gt;Node14 -->
<g id="edge15_Node000004_Node000014" class="edge">
<title>Node4&#45;&gt;Node14</title>
<g id="a_edge15_Node000004_Node000014"><a xlink:title=" ">
<path fill="none" stroke="#63b8ff" d="M332.95,-331.09C347.26,-322.98 368.53,-310.93 385.25,-301.46"/>
<polygon fill="#63b8ff" stroke="#63b8ff" points="386.68,-304.67 393.66,-296.7 383.23,-298.58 386.68,-304.67"/>
</a>
</g>
</g>
<!-- Node20 -->
<g id="Node000020" class="node">
<title>Node20</title>
<g id="a_Node000020"><a xlink:href="_security_8h.html" target="_top" xlink:title=" ">
<polygon fill="white" stroke="#666666" points="314.38,-295.5 207.62,-295.5 207.62,-276.25 314.38,-276.25 314.38,-295.5"/>
<text text-anchor="middle" x="261" y="-282" font-family="Helvetica,sans-Serif" font-size="10.00">Cpl/TShell/Security.h</text>
</a>
</g>
</g>
<!-- Node4&#45;&gt;Node20 -->
<g id="edge25_Node000004_Node000020" class="edge">
<title>Node4&#45;&gt;Node20</title>
<g id="a_edge25_Node000004_Node000020"><a xlink:title=" ">
<path fill="none" stroke="#63b8ff" d="M307.5,-331.09C299.57,-323.55 288.05,-312.6 278.46,-303.48"/>
<polygon fill="#63b8ff" stroke="#63b8ff" points="281.11,-301.17 271.46,-296.82 276.29,-306.24 281.11,-301.17"/>
</a>
</g>
</g>
<!-- Node6 -->
<g id="Node000006" class="node">
<title>Node6</title>
<g id="a_Node000006"><a xlink:href="_dict_item_8h.html" target="_top" xlink:title=" ">
<polygon fill="white" stroke="#666666" points="378.88,-185 257.12,-185 257.12,-165.75 378.88,-165.75 378.88,-185"/>
<text text-anchor="middle" x="318" y="-171.5" font-family="Helvetica,sans-Serif" font-size="10.00">Cpl/Container/DictItem.h</text>
</a>
</g>
</g>
<!-- Node5&#45;&gt;Node6 -->
<g id="edge6_Node000005_Node000006" class="edge">
<title>Node5&#45;&gt;Node6</title>
<g id="a_edge6_Node000005_Node000006"><a xlink:title=" ">
<path fill="none" stroke="#63b8ff" d="M238.29,-220.59C252.9,-212.48 274.63,-200.43 291.71,-190.96"/>
<polygon fill="#63b8ff" stroke="#63b8ff" points="293.26,-194.1 300.31,-186.19 289.87,-187.98 293.26,-194.1"/>
</a>
</g>
</g>
<!-- Node7 -->
<g id="Node000007" class="node">
<title>Node7</title>
<g id="a_Node000007"><a xlink:href="_item_8h.html" target="_top" xlink:title=" ">
<polygon fill="white" stroke="#666666" points="286.25,-129.75 181.75,-129.75 181.75,-110.5 286.25,-110.5 286.25,-129.75"/>
<text text-anchor="middle" x="234" y="-116.25" font-family="Helvetica,sans-Serif" font-size="10.00">Cpl/Container/Item.h</text>
</a>
</g>
</g>
<!-- Node6&#45;&gt;Node7 -->
<g id="edge7_Node000006_Node000007" class="edge">
<title>Node6&#45;&gt;Node7</title>
<g id="a_edge7_Node000006_Node000007"><a xlink:title=" ">
<path fill="none" stroke="#63b8ff" d="M303.75,-165.34C291.2,-157.39 272.67,-145.64 257.86,-136.25"/>
<polygon fill="#63b8ff" stroke="#63b8ff" points="259.92,-133.41 249.6,-131.01 256.17,-139.32 259.92,-133.41"/>
</a>
</g>
</g>
<!-- Node8 -->
<g id="Node000008" class="node">
<title>Node8</title>
<g id="a_Node000008"><a xlink:href="_key_8h.html" target="_top" xlink:title=" ">
<polygon fill="white" stroke="#666666" points="406.75,-129.75 305.25,-129.75 305.25,-110.5 406.75,-110.5 406.75,-129.75"/>
<text text-anchor="middle" x="356" y="-116.25" font-family="Helvetica,sans-Serif" font-size="10.00">Cpl/Container/Key.h</text>
</a>
</g>
</g>
<!-- Node6&#45;&gt;Node8 -->
<g id="edge8_Node000006_Node000008" class="edge">
<title>Node6&#45;&gt;Node8</title>
<g id="a_edge8_Node000006_Node000008"><a xlink:title=" ">
<path fill="none" stroke="#63b8ff" d="M324.27,-165.58C329.36,-158.46 336.7,-148.18 343.03,-139.3"/>
<polygon fill="#63b8ff" stroke="#63b8ff" points="345.75,-141.51 348.71,-131.34 340.05,-137.45 345.75,-141.51"/>
</a>
</g>
</g>
<!-- Node9 -->
<g id="Node000009" class="node">
<title>Node9</title>
<g id="a_Node000009"><a xlink:href="_fatal_error_8h.html" target="_top" xlink:title=" ">
<polygon fill="white" stroke="#666666" points="417.38,-74.5 298.62,-74.5 298.62,-55.25 417.38,-55.25 417.38,-74.5"/>
<text text-anchor="middle" x="358" y="-61" font-family="Helvetica,sans-Serif" font-size="10.00">Cpl/System/FatalError.h</text>
</a>
</g>
</g>
<!-- Node8&#45;&gt;Node9 -->
<g id="edge9_Node000008_Node000009" class="edge">
<title>Node8&#45;&gt;Node9</title>
<g id="a_edge9_Node000008_Node000009"><a xlink:title=" ">
<path fill="none" stroke="#63b8ff" d="M356.33,-110.33C356.58,-103.74 356.93,-94.46 357.24,-86.07"/>
<polygon fill="#63b8ff" stroke="#63b8ff" points="360.73,-86.5 357.61,-76.37 353.73,-86.23 360.73,-86.5"/>
</a>
</g>
</g>
<!-- Node11 -->
<g id="Node000011" class="node">
<title>Node11</title>
<g id="a_Node000011"><a xlink:title=" ">
<polygon fill="#e0e0e0" stroke="#999999" points="214.75,-74.5 167.25,-74.5 167.25,-55.25 214.75,-55.25 214.75,-74.5"/>
<text text-anchor="middle" x="191" y="-61" font-family="Helvetica,sans-Serif" font-size="10.00">stdint.h</text>
</a>
</g>
</g>
<!-- Node8&#45;&gt;Node11 -->
<g id="edge12_Node000008_Node000011" class="edge">
<title>Node8&#45;&gt;Node11</title>
<g id="a_edge12_Node000008_Node000011"><a xlink:title=" ">
<path fill="none" stroke="#63b8ff" d="M328.01,-110.09C299.88,-101.01 256.45,-87 226.05,-77.19"/>
<polygon fill="#63b8ff" stroke="#63b8ff" points="227.13,-73.86 216.54,-74.12 224.98,-80.52 227.13,-73.86"/>
</a>
</g>
</g>
<!-- Node12 -->
<g id="Node000012" class="node">
<title>Node12</title>
<g id="a_Node000012"><a xlink:title=" ">
<polygon fill="#e0e0e0" stroke="#999999" points="280.75,-74.5 233.25,-74.5 233.25,-55.25 280.75,-55.25 280.75,-74.5"/>
<text text-anchor="middle" x="257" y="-61" font-family="Helvetica,sans-Serif" font-size="10.00">string.h</text>
</a>
</g>
</g>
<!-- Node8&#45;&gt;Node12 -->
<g id="edge13_Node000008_Node000012" class="edge">
<title>Node8&#45;&gt;Node12</title>
<g id="a_edge13_Node000008_Node000012"><a xlink:title=" ">
<path fill="none" stroke="#63b8ff" d="M339.21,-110.09C323.99,-101.91 301.3,-89.71 283.62,-80.19"/>
<polygon fill="#63b8ff" stroke="#63b8ff" points="285.67,-77.32 275.21,-75.67 282.36,-83.49 285.67,-77.32"/>
</a>
</g>
</g>
<!-- Node13 -->
<g id="Node000013" class="node">
<title>Node13</title>
<g id="a_Node000013"><a xlink:title=" ">
<polygon fill="#e0e0e0" stroke="#999999" points="566.62,-74.5 491.38,-74.5 491.38,-55.25 566.62,-55.25 566.62,-74.5"/>
<text text-anchor="middle" x="529" y="-61" font-family="Helvetica,sans-Serif" font-size="10.00">colony_map.h</text>
</a>
</g>
</g>
<!-- Node8&#45;&gt;Node13 -->
<g id="edge14_Node000008_Node000013" class="edge">
<title>Node8&#45;&gt;Node13</title>
<g id="a_edge14_Node000008_Node000013"><a xlink:title=" ">
<path fill="none" stroke="#63b8ff" d="M385.35,-110.09C413.8,-101.33 457.2,-87.98 488.85,-78.23"/>
<polygon fill="#63b8ff" stroke="#63b8ff" points="489.53,-81.68 498.06,-75.4 487.48,-74.99 489.53,-81.68"/>
</a>
</g>
</g>
<!-- Node9&#45;&gt;Node2 -->
<g id="edge11_Node000009_Node000002" class="edge">
<title>Node9&#45;&gt;Node2</title>
<g id="a_edge11_Node000009_Node000002"><a xlink:title=" ">
<path fill="none" stroke="#63b8ff" d="M311.04,-54.78C262.26,-45.34 186.13,-30.59 135.42,-20.78"/>
<polygon fill="#63b8ff" stroke="#63b8ff" points="136.34,-17.39 125.86,-18.92 135.01,-24.26 136.34,-17.39"/>
</a>
</g>
</g>
<!-- Node10 -->
<g id="Node000010" class="node">
<title>Node10</title>
<g id="a_Node000010"><a xlink:title=" ">
<polygon fill="#e0e0e0" stroke="#999999" points="383.25,-19.25 332.75,-19.25 332.75,0 383.25,0 383.25,-19.25"/>
<text text-anchor="middle" x="358" y="-5.75" font-family="Helvetica,sans-Serif" font-size="10.00">stddef.h</text>
</a>
</g>
</g>
<!-- Node9&#45;&gt;Node10 -->
<g id="edge10_Node000009_Node000010" class="edge">
<title>Node9&#45;&gt;Node10</title>
<g id="a_edge10_Node000009_Node000010"><a xlink:title=" ">
<path fill="none" stroke="#63b8ff" d="M358,-55.08C358,-48.57 358,-39.42 358,-31.12"/>
<polygon fill="#63b8ff" stroke="#63b8ff" points="361.5,-31.12 358,-21.12 354.5,-31.12 361.5,-31.12"/>
</a>
</g>
</g>
<!-- Node14&#45;&gt;Node15 -->
<g id="edge16_Node000014_Node000015" class="edge">
<title>Node14&#45;&gt;Node15</title>
<g id="a_edge16_Node000014_Node000015"><a xlink:title=" ">
<path fill="none" stroke="#63b8ff" d="M438.31,-275.84C464.56,-267.16 504.48,-253.96 533.86,-244.24"/>
<polygon fill="#63b8ff" stroke="#63b8ff" points="534.72,-247.64 543.12,-241.18 532.52,-240.99 534.72,-247.64"/>
</a>
</g>
</g>
<!-- Node16 -->
<g id="Node000016" class="node">
<title>Node16</title>
<g id="a_Node000016"><a xlink:title=" ">
<polygon fill="#e0e0e0" stroke="#999999" points="447.25,-185 396.75,-185 396.75,-165.75 447.25,-165.75 447.25,-185"/>
<text text-anchor="middle" x="422" y="-171.5" font-family="Helvetica,sans-Serif" font-size="10.00">stdarg.h</text>
</a>
</g>
</g>
<!-- Node14&#45;&gt;Node16 -->
<g id="edge24_Node000014_Node000016" class="edge">
<title>Node14&#45;&gt;Node16</title>
<g id="a_edge24_Node000014_Node000016"><a xlink:title=" ">
<path fill="none" stroke="#63b8ff" d="M411.9,-276C413.65,-258.75 417.54,-220.33 419.95,-196.56"/>
<polygon fill="#63b8ff" stroke="#63b8ff" points="423.41,-197.18 420.93,-186.88 416.44,-196.48 423.41,-197.18"/>
</a>
</g>
</g>
<!-- Node18 -->
<g id="Node000018" class="node">
<title>Node18</title>
<g id="a_Node000018"><a xlink:href="_close_8h.html" target="_top" xlink:title=" ">
<polygon fill="white" stroke="#666666" points="378.38,-240.25 301.62,-240.25 301.62,-221 378.38,-221 378.38,-240.25"/>
<text text-anchor="middle" x="340" y="-226.75" font-family="Helvetica,sans-Serif" font-size="10.00">Cpl/Io/Close.h</text>
</a>
</g>
</g>
<!-- Node14&#45;&gt;Node18 -->
<g id="edge21_Node000014_Node000018" class="edge">
<title>Node14&#45;&gt;Node18</title>
<g id="a_edge21_Node000014_Node000018"><a xlink:title=" ">
<path fill="none" stroke="#63b8ff" d="M398.96,-275.84C388.59,-268.07 373.4,-256.67 361.03,-247.4"/>
<polygon fill="#63b8ff" stroke="#63b8ff" points="363.18,-244.63 353.08,-241.43 358.98,-250.23 363.18,-244.63"/>
</a>
</g>
</g>
<!-- Node19 -->
<g id="Node000019" class="node">
<title>Node19</title>
<g id="a_Node000019"><a xlink:href="_is_eos_8h.html" target="_top" xlink:title=" ">
<polygon fill="white" stroke="#666666" points="510.38,-240.25 433.62,-240.25 433.62,-221 510.38,-221 510.38,-240.25"/>
<text text-anchor="middle" x="472" y="-226.75" font-family="Helvetica,sans-Serif" font-size="10.00">Cpl/Io/IsEos.h</text>
</a>
</g>
</g>
<!-- Node14&#45;&gt;Node19 -->
<g id="edge23_Node000014_Node000019" class="edge">
<title>Node14&#45;&gt;Node19</title>
<g id="a_edge23_Node000014_Node000019"><a xlink:title=" ">
<path fill="none" stroke="#63b8ff" d="M421.35,-275.84C430.08,-268.22 442.79,-257.12 453.3,-247.95"/>
<polygon fill="#63b8ff" stroke="#63b8ff" points="455.43,-250.73 460.66,-241.52 450.83,-245.46 455.43,-250.73"/>
</a>
</g>
</g>
<!-- Node15&#45;&gt;Node8 -->
<g id="edge18_Node000015_Node000008" class="edge">
<title>Node15&#45;&gt;Node8</title>
<g id="a_edge18_Node000015_Node000008"><a xlink:title=" ">
<path fill="none" stroke="#63b8ff" d="M568.33,-220.68C562.15,-206.74 548.3,-179.96 528,-165.75 495.73,-143.16 452.86,-132 418,-126.5"/>
<polygon fill="#63b8ff" stroke="#63b8ff" points="418.88,-123.09 408.48,-125.11 417.87,-130.01 418.88,-123.09"/>
</a>
</g>
</g>
<!-- Node15&#45;&gt;Node13 -->
<g id="edge17_Node000015_Node000013" class="edge">
<title>Node15&#45;&gt;Node13</title>
<g id="a_edge17_Node000015_Node000013"><a xlink:title=" ">
<path fill="none" stroke="#63b8ff" d="M569.69,-220.82C563.01,-195.39 543.57,-121.35 534.19,-85.62"/>
<polygon fill="#63b8ff" stroke="#63b8ff" points="537.63,-84.97 531.71,-76.19 530.86,-86.75 537.63,-84.97"/>
</a>
</g>
</g>
<!-- Node15&#45;&gt;Node16 -->
<g id="edge19_Node000015_Node000016" class="edge">
<title>Node15&#45;&gt;Node16</title>
<g id="a_edge19_Node000015_Node000016"><a xlink:title=" ">
<path fill="none" stroke="#63b8ff" d="M546.55,-220.59C522.31,-211.99 485.57,-198.94 458.26,-189.25"/>
<polygon fill="#63b8ff" stroke="#63b8ff" points="459.59,-186.01 449,-185.96 457.25,-192.6 459.59,-186.01"/>
</a>
</g>
</g>
<!-- Node17 -->
<g id="Node000017" class="node">
<title>Node17</title>
<g id="a_Node000017"><a xlink:title=" ">
<polygon fill="#e0e0e0" stroke="#999999" points="518.75,-185 465.25,-185 465.25,-165.75 518.75,-165.75 518.75,-185"/>
<text text-anchor="middle" x="492" y="-171.5" font-family="Helvetica,sans-Serif" font-size="10.00">iostream</text>
</a>
</g>
</g>
<!-- Node15&#45;&gt;Node17 -->
<g id="edge20_Node000015_Node000017" class="edge">
<title>Node15&#45;&gt;Node17</title>
<g id="a_edge20_Node000015_Node000017"><a xlink:title=" ">
<path fill="none" stroke="#63b8ff" d="M558.43,-220.59C546.59,-212.71 529.16,-201.11 515.13,-191.77"/>
<polygon fill="#63b8ff" stroke="#63b8ff" points="517.16,-188.92 506.9,-186.29 513.28,-194.75 517.16,-188.92"/>
</a>
</g>
</g>
<!-- Node18&#45;&gt;Node7 -->
<g id="edge22_Node000018_Node000007" class="edge">
<title>Node18&#45;&gt;Node7</title>
<g id="a_edge22_Node000018_Node000007"><a xlink:title=" ">
<path fill="none" stroke="#63b8ff" d="M304.09,-220.54C284.71,-213.83 261.96,-202.71 248,-185 238.21,-172.58 234.93,-154.75 233.97,-141.09"/>
<polygon fill="#63b8ff" stroke="#63b8ff" points="237.48,-141.38 233.67,-131.5 230.49,-141.6 237.48,-141.38"/>
</a>
</g>
</g>
<!-- Node21&#45;&gt;Node4 -->
<g id="edge34_Node000021_Node000004" class="edge">
<title>Node21&#45;&gt;Node4</title>
<g id="a_edge34_Node000021_Node000004"><a xlink:title=" ">
<path fill="none" stroke="#63b8ff" d="M246.42,-386.34C259.12,-378.39 277.87,-366.64 292.86,-357.25"/>
<polygon fill="#63b8ff" stroke="#63b8ff" points="294.61,-360.28 301.23,-352.01 290.9,-354.35 294.61,-360.28"/>
</a>
</g>
</g>
<!-- Node21&#45;&gt;Node20 -->
<g id="edge33_Node000021_Node000020" class="edge">
<title>Node21&#45;&gt;Node20</title>
<g id="a_edge33_Node000021_Node000020"><a xlink:title=" ">
<path fill="none" stroke="#63b8ff" d="M234.37,-386.5C239,-369.17 249.35,-330.48 255.69,-306.74"/>
<polygon fill="#63b8ff" stroke="#63b8ff" points="259,-307.9 258.2,-297.34 252.24,-306.1 259,-307.9"/>
</a>
</g>
</g>
<!-- Node22 -->
<g id="Node000022" class="node">
<title>Node22</title>
<g id="a_Node000022"><a xlink:href="_processor_api_8h.html" target="_top" xlink:title=" ">
<polygon fill="white" stroke="#666666" points="523,-350.75 393,-350.75 393,-331.5 523,-331.5 523,-350.75"/>
<text text-anchor="middle" x="458" y="-337.25" font-family="Helvetica,sans-Serif" font-size="10.00">Cpl/TShell/ProcessorApi.h</text>
</a>
</g>
</g>
<!-- Node21&#45;&gt;Node22 -->
<g id="edge27_Node000021_Node000022" class="edge">
<title>Node21&#45;&gt;Node22</title>
<g id="a_edge27_Node000021_Node000022"><a xlink:title=" ">
<path fill="none" stroke="#63b8ff" d="M270.59,-386.28C308.7,-377.3 367.14,-363.53 408.61,-353.76"/>
<polygon fill="#63b8ff" stroke="#63b8ff" points="409.16,-357.23 418.09,-351.53 407.56,-350.41 409.16,-357.23"/>
</a>
</g>
</g>
<!-- Node21&#45;&gt;Node24 -->
<g id="edge35_Node000021_Node000024" class="edge">
<title>Node21&#45;&gt;Node24</title>
<g id="a_edge35_Node000021_Node000024"><a xlink:title=" ">
<path fill="none" stroke="#63b8ff" d="M217.92,-386.34C205.52,-378.39 187.21,-366.64 172.57,-357.25"/>
<polygon fill="#63b8ff" stroke="#63b8ff" points="174.73,-354.47 164.42,-352.02 170.95,-360.37 174.73,-354.47"/>
</a>
</g>
</g>
<!-- Node22&#45;&gt;Node14 -->
<g id="edge32_Node000022_Node000014" class="edge">
<title>Node22&#45;&gt;Node14</title>
<g id="a_edge32_Node000022_Node000014"><a xlink:title=" ">
<path fill="none" stroke="#63b8ff" d="M450.24,-331.33C443.81,-324.05 434.49,-313.48 426.54,-304.48"/>
<polygon fill="#63b8ff" stroke="#63b8ff" points="429.17,-302.18 419.93,-296.99 423.92,-306.81 429.17,-302.18"/>
</a>
</g>
</g>
<!-- Node23 -->
<g id="Node000023" class="node">
<title>Node23</title>
<g id="a_Node000023"><a xlink:href="_input_8h.html" target="_top" xlink:title=" ">
<polygon fill="white" stroke="#666666" points="543.88,-295.5 470.12,-295.5 470.12,-276.25 543.88,-276.25 543.88,-295.5"/>
<text text-anchor="middle" x="507" y="-282" font-family="Helvetica,sans-Serif" font-size="10.00">Cpl/Io/Input.h</text>
</a>
</g>
</g>
<!-- Node22&#45;&gt;Node23 -->
<g id="edge28_Node000022_Node000023" class="edge">
<title>Node22&#45;&gt;Node23</title>
<g id="a_edge28_Node000022_Node000023"><a xlink:title=" ">
<path fill="none" stroke="#63b8ff" d="M466.09,-331.33C472.86,-323.98 482.72,-313.26 491.06,-304.19"/>
<polygon fill="#63b8ff" stroke="#63b8ff" points="493.51,-306.7 497.71,-296.97 488.36,-301.96 493.51,-306.7"/>
</a>
</g>
</g>
<!-- Node23&#45;&gt;Node15 -->
<g id="edge29_Node000023_Node000015" class="edge">
<title>Node23&#45;&gt;Node15</title>
<g id="a_edge29_Node000023_Node000015"><a xlink:title=" ">
<path fill="none" stroke="#63b8ff" d="M518.03,-275.84C527.42,-268.15 541.15,-256.9 552.41,-247.68"/>
<polygon fill="#63b8ff" stroke="#63b8ff" points="554.45,-250.53 559.97,-241.48 550.01,-245.11 554.45,-250.53"/>
</a>
</g>
</g>
<!-- Node23&#45;&gt;Node18 -->
<g id="edge30_Node000023_Node000018" class="edge">
<title>Node23&#45;&gt;Node18</title>
<g id="a_edge30_Node000023_Node000018"><a xlink:title=" ">
<path fill="none" stroke="#63b8ff" d="M478.67,-275.84C451.32,-267.12 409.68,-253.84 379.16,-244.11"/>
<polygon fill="#63b8ff" stroke="#63b8ff" points="380.5,-240.87 369.91,-241.16 378.37,-247.53 380.5,-240.87"/>
</a>
</g>
</g>
<!-- Node23&#45;&gt;Node19 -->
<g id="edge31_Node000023_Node000019" class="edge">
<title>Node23&#45;&gt;Node19</title>
<g id="a_edge31_Node000023_Node000019"><a xlink:title=" ">
<path fill="none" stroke="#63b8ff" d="M501.22,-276.08C496.59,-269.03 489.93,-258.9 484.13,-250.08"/>
<polygon fill="#63b8ff" stroke="#63b8ff" points="487.15,-248.31 478.74,-241.87 481.3,-252.15 487.15,-248.31"/>
</a>
</g>
</g>
<!-- Node25 -->
<g id="Node000025" class="node">
<title>Node25</title>
<g id="a_Node000025"><a xlink:href="_avl_tree___8h.html" target="_top" xlink:title=" ">
<polygon fill="white" stroke="#666666" points="190,-295.5 66,-295.5 66,-276.25 190,-276.25 190,-295.5"/>
<text text-anchor="middle" x="128" y="-282" font-family="Helvetica,sans-Serif" font-size="10.00">Cpl/Container/AvlTree_.h</text>
</a>
</g>
</g>
<!-- Node24&#45;&gt;Node25 -->
<g id="edge36_Node000024_Node000025" class="edge">
<title>Node24&#45;&gt;Node25</title>
<g id="a_edge36_Node000024_Node000025"><a xlink:title=" ">
<path fill="none" stroke="#63b8ff" d="M145.53,-331.33C142.87,-324.59 139.1,-315.02 135.74,-306.49"/>
<polygon fill="#63b8ff" stroke="#63b8ff" points="139.02,-305.29 132.1,-297.27 132.51,-307.85 139.02,-305.29"/>
</a>
</g>
</g>
<!-- Node25&#45;&gt;Node2 -->
<g id="edge37_Node000025_Node000002" class="edge">
<title>Node25&#45;&gt;Node2</title>
<g id="a_edge37_Node000025_Node000002"><a xlink:title=" ">
<path fill="none" stroke="#63b8ff" d="M126.05,-275.92C122.21,-257.43 114,-213.6 114,-176.38 114,-176.38 114,-176.38 114,-119.12 114,-86.89 101.2,-51.27 92.04,-29.94"/>
<polygon fill="#63b8ff" stroke="#63b8ff" points="95.34,-28.74 88.06,-21.04 88.96,-31.6 95.34,-28.74"/>
</a>
</g>
</g>
<!-- Node25&#45;&gt;Node5 -->
<g id="edge38_Node000025_Node000005" class="edge">
<title>Node25&#45;&gt;Node5</title>
<g id="a_edge38_Node000025_Node000005"><a xlink:title=" ">
<path fill="none" stroke="#63b8ff" d="M143.95,-275.84C158.26,-267.73 179.53,-255.68 196.25,-246.21"/>
<polygon fill="#63b8ff" stroke="#63b8ff" points="197.68,-249.42 204.66,-241.45 194.23,-243.33 197.68,-249.42"/>
</a>
</g>
</g>
</g>
</svg>
