<?xml version="1.0" encoding="UTF-8" standalone="no"?>
<!DOCTYPE svg PUBLIC "-//W3C//DTD SVG 1.1//EN"
 "http://www.w3.org/Graphics/SVG/1.1/DTD/svg11.dtd">
<!-- Generated by graphviz version 9.0.0 (20230911.1827)
 -->
<!-- Title: Ajax/Logging/CategoryId.h Pages: 1 -->
<svg width="162pt" height="138pt"
 viewBox="0.00 0.00 162.12 137.75" xmlns="http://www.w3.org/2000/svg" xmlns:xlink="http://www.w3.org/1999/xlink">
<g id="graph0" class="graph" transform="scale(1 1) rotate(0) translate(4 133.75)">
<title>Ajax/Logging/CategoryId.h</title>
<!-- Node1 -->
<g id="Node000001" class="node">
<title>Node1</title>
<g id="a_Node000001"><a xlink:title=" ">
<polygon fill="#999999" stroke="#666666" points="152,-129.75 22.75,-129.75 22.75,-110.5 152,-110.5 152,-129.75"/>
<text text-anchor="middle" x="87.38" y="-116.25" font-family="Helvetica,sans-Serif" font-size="10.00">Ajax/Logging/CategoryId.h</text>
</a>
</g>
</g>
<!-- Node2 -->
<g id="Node000002" class="node">
<title>Node2</title>
<g id="a_Node000002"><a xlink:href="enum_8h_source.html" target="_top" xlink:title=" ">
<polygon fill="white" stroke="#666666" points="88.75,-74.5 0,-74.5 0,-55.25 88.75,-55.25 88.75,-74.5"/>
<text text-anchor="middle" x="44.38" y="-61" font-family="Helvetica,sans-Serif" font-size="10.00">Cpl/Type/enum.h</text>
</a>
</g>
</g>
<!-- Node1&#45;&gt;Node2 -->
<g id="edge1_Node000001_Node000002" class="edge">
<title>Node1&#45;&gt;Node2</title>
<g id="a_edge1_Node000001_Node000002"><a xlink:title=" ">
<path fill="none" stroke="#63b8ff" d="M80.27,-110.33C74.46,-103.13 66.04,-92.71 58.82,-83.76"/>
<polygon fill="#63b8ff" stroke="#63b8ff" points="61.59,-81.62 52.58,-76.04 56.14,-86.02 61.59,-81.62"/>
</a>
</g>
</g>
<!-- Node4 -->
<g id="Node000004" class="node">
<title>Node4</title>
<g id="a_Node000004"><a xlink:title=" ">
<polygon fill="#e0e0e0" stroke="#999999" points="154.12,-74.5 106.62,-74.5 106.62,-55.25 154.12,-55.25 154.12,-74.5"/>
<text text-anchor="middle" x="130.38" y="-61" font-family="Helvetica,sans-Serif" font-size="10.00">stdint.h</text>
</a>
</g>
</g>
<!-- Node1&#45;&gt;Node4 -->
<g id="edge3_Node000001_Node000004" class="edge">
<title>Node1&#45;&gt;Node4</title>
<g id="a_edge3_Node000001_Node000004"><a xlink:title=" ">
<path fill="none" stroke="#63b8ff" d="M94.48,-110.33C100.29,-103.13 108.71,-92.71 115.93,-83.76"/>
<polygon fill="#63b8ff" stroke="#63b8ff" points="118.61,-86.02 122.17,-76.04 113.16,-81.62 118.61,-86.02"/>
</a>
</g>
</g>
<!-- Node3 -->
<g id="Node000003" class="node">
<title>Node3</title>
<g id="a_Node000003"><a xlink:title=" ">
<polygon fill="#e0e0e0" stroke="#999999" points="85.38,-19.25 3.38,-19.25 3.38,0 85.38,0 85.38,-19.25"/>
<text text-anchor="middle" x="44.38" y="-5.75" font-family="Helvetica,sans-Serif" font-size="10.00">colony_config.h</text>
</a>
</g>
</g>
<!-- Node2&#45;&gt;Node3 -->
<g id="edge2_Node000002_Node000003" class="edge">
<title>Node2&#45;&gt;Node3</title>
<g id="a_edge2_Node000002_Node000003"><a xlink:title=" ">
<path fill="none" stroke="#63b8ff" d="M44.38,-55.08C44.38,-48.57 44.38,-39.42 44.38,-31.12"/>
<polygon fill="#63b8ff" stroke="#63b8ff" points="47.88,-31.12 44.38,-21.12 40.88,-31.12 47.88,-31.12"/>
</a>
</g>
</g>
</g>
</svg>
