<?xml version="1.0" encoding="UTF-8" standalone="no"?>
<!DOCTYPE svg PUBLIC "-//W3C//DTD SVG 1.1//EN"
 "http://www.w3.org/Graphics/SVG/1.1/DTD/svg11.dtd">
<!-- Generated by graphviz version 2.43.0 (0)
 -->
<!-- Title: Cpl/Persistent/Chunk.h Pages: 1 -->
<svg width="902pt" height="335pt"
 viewBox="0.00 0.00 902.00 335.00" xmlns="http://www.w3.org/2000/svg" xmlns:xlink="http://www.w3.org/1999/xlink">
<g id="graph0" class="graph" transform="scale(1 1) rotate(0) translate(4 331)">
<title>Cpl/Persistent/Chunk.h</title>
<!-- Node1 -->
<g id="Node000001" class="node">
<title>Node1</title>
<g id="a_Node000001"><a xlink:title=" ">
<polygon fill="#999999" stroke="#666666" points="651,-327 524,-327 524,-308 651,-308 651,-327"/>
<text text-anchor="middle" x="587.5" y="-315" font-family="Helvetica,sans-Serif" font-size="10.00">Cpl/Persistent/Chunk.h</text>
</a>
</g>
</g>
<!-- Node2 -->
<g id="Node000002" class="node">
<title>Node2</title>
<g id="a_Node000002"><a xlink:href="_dm_2_persistent_2_record_8h.html" target="_top" xlink:title=" ">
<polygon fill="white" stroke="#666666" points="323.5,-272 173.5,-272 173.5,-253 323.5,-253 323.5,-272"/>
<text text-anchor="middle" x="248.5" y="-260" font-family="Helvetica,sans-Serif" font-size="10.00">Cpl/Dm/Persistent/Record.h</text>
</a>
</g>
</g>
<!-- Node1&#45;&gt;Node2 -->
<g id="edge1_Node000001_Node000002" class="edge">
<title>Node1&#45;&gt;Node2</title>
<g id="a_edge1_Node000001_Node000002"><a xlink:title=" ">
<path fill="none" stroke="#63b8ff" d="M523.11,-306.43C459.46,-296.48 363.13,-281.42 303.11,-272.04"/>
<polygon fill="#63b8ff" stroke="#63b8ff" points="522.61,-309.9 533.03,-307.98 523.69,-302.98 522.61,-309.9"/>
</a>
</g>
</g>
<!-- Node8 -->
<g id="Node000008" class="node">
<title>Node8</title>
<g id="a_Node000008"><a xlink:href="_crc_chunk_8h.html" target="_top" xlink:title=" ">
<polygon fill="white" stroke="#666666" points="485,-272 342,-272 342,-253 485,-253 485,-272"/>
<text text-anchor="middle" x="413.5" y="-260" font-family="Helvetica,sans-Serif" font-size="10.00">Cpl/Persistent/CrcChunk.h</text>
</a>
</g>
</g>
<!-- Node1&#45;&gt;Node8 -->
<g id="edge7_Node000001_Node000008" class="edge">
<title>Node1&#45;&gt;Node8</title>
<g id="a_edge7_Node000001_Node000008"><a xlink:title=" ">
<path fill="none" stroke="#63b8ff" d="M549.93,-305.06C517.41,-295.15 471.1,-281.04 441.68,-272.08"/>
<polygon fill="#63b8ff" stroke="#63b8ff" points="548.96,-308.42 559.54,-307.98 551,-301.72 548.96,-308.42"/>
</a>
</g>
</g>
<!-- Node10 -->
<g id="Node000010" class="node">
<title>Node10</title>
<g id="a_Node000010"><a xlink:href="_data_record_8h.html" target="_top" xlink:title=" ">
<polygon fill="white" stroke="#666666" points="843,-272 690,-272 690,-253 843,-253 843,-272"/>
<text text-anchor="middle" x="766.5" y="-260" font-family="Helvetica,sans-Serif" font-size="10.00">Cpl/Persistent/DataRecord.h</text>
</a>
</g>
</g>
<!-- Node1&#45;&gt;Node10 -->
<g id="edge9_Node000001_Node000010" class="edge">
<title>Node1&#45;&gt;Node10</title>
<g id="a_edge9_Node000001_Node000010"><a xlink:title=" ">
<path fill="none" stroke="#63b8ff" d="M626.15,-305.06C659.61,-295.15 707.25,-281.04 737.52,-272.08"/>
<polygon fill="#63b8ff" stroke="#63b8ff" points="624.85,-301.79 616.26,-307.98 626.84,-308.5 624.85,-301.79"/>
</a>
</g>
</g>
<!-- Node12 -->
<g id="Node000012" class="node">
<title>Node12</title>
<g id="a_Node000012"><a xlink:href="_indexed_entry_record_8h.html" target="_top" xlink:title=" ">
<polygon fill="white" stroke="#666666" points="894,-162 743,-162 743,-132 894,-132 894,-162"/>
<text text-anchor="start" x="751" y="-150" font-family="Helvetica,sans-Serif" font-size="10.00">Cpl/Persistent/IndexedEntry</text>
<text text-anchor="middle" x="818.5" y="-139" font-family="Helvetica,sans-Serif" font-size="10.00">Record.h</text>
</a>
</g>
</g>
<!-- Node1&#45;&gt;Node12 -->
<g id="edge14_Node000001_Node000012" class="edge">
<title>Node1&#45;&gt;Node12</title>
<g id="a_edge14_Node000001_Node000012"><a xlink:title=" ">
<path fill="none" stroke="#63b8ff" d="M661.22,-314.34C730.85,-310.57 828.15,-300.25 852.5,-272 873.97,-247.08 863.39,-229.37 853.5,-198 849.23,-184.46 839.84,-171.39 831.86,-162.02"/>
<polygon fill="#63b8ff" stroke="#63b8ff" points="660.97,-310.85 651.16,-314.85 661.32,-317.84 660.97,-310.85"/>
</a>
</g>
</g>
<!-- Node15 -->
<g id="Node000015" class="node">
<title>Node15</title>
<g id="a_Node000015"><a xlink:href="_mirrored_chunk_8h.html" target="_top" xlink:title=" ">
<polygon fill="white" stroke="#666666" points="671.5,-272 503.5,-272 503.5,-253 671.5,-253 671.5,-272"/>
<text text-anchor="middle" x="587.5" y="-260" font-family="Helvetica,sans-Serif" font-size="10.00">Cpl/Persistent/MirroredChunk.h</text>
</a>
</g>
</g>
<!-- Node1&#45;&gt;Node15 -->
<g id="edge15_Node000001_Node000015" class="edge">
<title>Node1&#45;&gt;Node15</title>
<g id="a_edge15_Node000001_Node000015"><a xlink:title=" ">
<path fill="none" stroke="#63b8ff" d="M587.5,-297.66C587.5,-288.93 587.5,-278.99 587.5,-272.09"/>
<polygon fill="#63b8ff" stroke="#63b8ff" points="584,-297.75 587.5,-307.75 591,-297.75 584,-297.75"/>
</a>
</g>
</g>
<!-- Node3 -->
<g id="Node000003" class="node">
<title>Node3</title>
<g id="a_Node000003"><a xlink:href="_metrics_record_8h.html" target="_top" xlink:title=" ">
<polygon fill="white" stroke="#666666" points="147,-217 0,-217 0,-198 147,-198 147,-217"/>
<text text-anchor="middle" x="73.5" y="-205" font-family="Helvetica,sans-Serif" font-size="10.00">Ajax/Main/MetricsRecord.h</text>
</a>
</g>
</g>
<!-- Node2&#45;&gt;Node3 -->
<g id="edge2_Node000002_Node000003" class="edge">
<title>Node2&#45;&gt;Node3</title>
<g id="a_edge2_Node000002_Node000003"><a xlink:title=" ">
<path fill="none" stroke="#63b8ff" d="M210.71,-250.06C178,-240.15 131.43,-226.04 101.84,-217.08"/>
<polygon fill="#63b8ff" stroke="#63b8ff" points="209.8,-253.44 220.38,-252.98 211.83,-246.74 209.8,-253.44"/>
</a>
</g>
</g>
<!-- Node5 -->
<g id="Node000005" class="node">
<title>Node5</title>
<g id="a_Node000005"><a xlink:href="_personality_record_8h.html" target="_top" xlink:title=" ">
<polygon fill="white" stroke="#666666" points="331.5,-217 165.5,-217 165.5,-198 331.5,-198 331.5,-217"/>
<text text-anchor="middle" x="248.5" y="-205" font-family="Helvetica,sans-Serif" font-size="10.00">Ajax/Main/PersonalityRecord.h</text>
</a>
</g>
</g>
<!-- Node2&#45;&gt;Node5 -->
<g id="edge4_Node000002_Node000005" class="edge">
<title>Node2&#45;&gt;Node5</title>
<g id="a_edge4_Node000002_Node000005"><a xlink:title=" ">
<path fill="none" stroke="#63b8ff" d="M248.5,-242.66C248.5,-233.93 248.5,-223.99 248.5,-217.09"/>
<polygon fill="#63b8ff" stroke="#63b8ff" points="245,-242.75 248.5,-252.75 252,-242.75 245,-242.75"/>
</a>
</g>
</g>
<!-- Node7 -->
<g id="Node000007" class="node">
<title>Node7</title>
<g id="a_Node000007"><a xlink:href="_user_record_8h.html" target="_top" xlink:title=" ">
<polygon fill="white" stroke="#666666" points="483.5,-217 349.5,-217 349.5,-198 483.5,-198 483.5,-217"/>
<text text-anchor="middle" x="416.5" y="-205" font-family="Helvetica,sans-Serif" font-size="10.00">Ajax/Main/UserRecord.h</text>
</a>
</g>
</g>
<!-- Node2&#45;&gt;Node7 -->
<g id="edge6_Node000002_Node000007" class="edge">
<title>Node2&#45;&gt;Node7</title>
<g id="a_edge6_Node000002_Node000007"><a xlink:title=" ">
<path fill="none" stroke="#63b8ff" d="M285.18,-249.93C316.56,-240.03 361.01,-226.01 389.3,-217.08"/>
<polygon fill="#63b8ff" stroke="#63b8ff" points="283.98,-246.64 275.49,-252.98 286.08,-253.31 283.98,-246.64"/>
</a>
</g>
</g>
<!-- Node4 -->
<g id="Node000004" class="node">
<title>Node4</title>
<g id="a_Node000004"><a xlink:href="_ajax_2_metrics_2_api_8h.html" target="_top" xlink:title=" ">
<polygon fill="white" stroke="#666666" points="126,-156.5 21,-156.5 21,-137.5 126,-137.5 126,-156.5"/>
<text text-anchor="middle" x="73.5" y="-144.5" font-family="Helvetica,sans-Serif" font-size="10.00">Ajax/Metrics/Api.h</text>
</a>
</g>
</g>
<!-- Node3&#45;&gt;Node4 -->
<g id="edge3_Node000003_Node000004" class="edge">
<title>Node3&#45;&gt;Node4</title>
<g id="a_edge3_Node000003_Node000004"><a xlink:title=" ">
<path fill="none" stroke="#63b8ff" d="M73.5,-187.66C73.5,-177.24 73.5,-164.8 73.5,-156.67"/>
<polygon fill="#63b8ff" stroke="#63b8ff" points="70,-187.87 73.5,-197.87 77,-187.87 70,-187.87"/>
</a>
</g>
</g>
<!-- Node6 -->
<g id="Node000006" class="node">
<title>Node6</title>
<g id="a_Node000006"><a xlink:href="_provision_8h.html" target="_top" xlink:title=" ">
<polygon fill="white" stroke="#666666" points="312.5,-156.5 184.5,-156.5 184.5,-137.5 312.5,-137.5 312.5,-156.5"/>
<text text-anchor="middle" x="248.5" y="-144.5" font-family="Helvetica,sans-Serif" font-size="10.00">Ajax/TShell/Provision.h</text>
</a>
</g>
</g>
<!-- Node5&#45;&gt;Node6 -->
<g id="edge5_Node000005_Node000006" class="edge">
<title>Node5&#45;&gt;Node6</title>
<g id="a_edge5_Node000005_Node000006"><a xlink:title=" ">
<path fill="none" stroke="#63b8ff" d="M248.5,-187.66C248.5,-177.24 248.5,-164.8 248.5,-156.67"/>
<polygon fill="#63b8ff" stroke="#63b8ff" points="245,-187.87 248.5,-197.87 252,-187.87 245,-187.87"/>
</a>
</g>
</g>
<!-- Node9 -->
<g id="Node000009" class="node">
<title>Node9</title>
<g id="a_Node000009"><a xlink:href="_storage_map___8h.html" target="_top" xlink:title="This file contains the magic values for how data is laid out in the off&#45;board EEPROM.">
<polygon fill="white" stroke="#666666" points="651,-217 510,-217 510,-198 651,-198 651,-217"/>
<text text-anchor="middle" x="580.5" y="-205" font-family="Helvetica,sans-Serif" font-size="10.00">Ajax/Main/StorageMap_.h</text>
</a>
</g>
</g>
<!-- Node8&#45;&gt;Node9 -->
<g id="edge8_Node000008_Node000009" class="edge">
<title>Node8&#45;&gt;Node9</title>
<g id="a_edge8_Node000008_Node000009"><a xlink:title=" ">
<path fill="none" stroke="#63b8ff" d="M449.96,-249.93C481.16,-240.03 525.34,-226.01 553.46,-217.08"/>
<polygon fill="#63b8ff" stroke="#63b8ff" points="448.8,-246.62 440.33,-252.98 450.92,-253.3 448.8,-246.62"/>
</a>
</g>
</g>
<!-- Node11 -->
<g id="Node000011" class="node">
<title>Node11</title>
<g id="a_Node000011"><a xlink:href="_index_record_8h.html" target="_top" xlink:title=" ">
<polygon fill="white" stroke="#666666" points="844,-217 687,-217 687,-198 844,-198 844,-217"/>
<text text-anchor="middle" x="765.5" y="-205" font-family="Helvetica,sans-Serif" font-size="10.00">Cpl/Persistent/IndexRecord.h</text>
</a>
</g>
</g>
<!-- Node10&#45;&gt;Node11 -->
<g id="edge10_Node000010_Node000011" class="edge">
<title>Node10&#45;&gt;Node11</title>
<g id="a_edge10_Node000010_Node000011"><a xlink:title=" ">
<path fill="none" stroke="#63b8ff" d="M766.14,-242.66C765.98,-233.93 765.79,-223.99 765.66,-217.09"/>
<polygon fill="#63b8ff" stroke="#63b8ff" points="762.65,-242.82 766.33,-252.75 769.65,-242.68 762.65,-242.82"/>
</a>
</g>
</g>
<!-- Node11&#45;&gt;Node12 -->
<g id="edge11_Node000011_Node000012" class="edge">
<title>Node11&#45;&gt;Node12</title>
<g id="a_edge11_Node000011_Node000012"><a xlink:title=" ">
<path fill="none" stroke="#63b8ff" d="M780.06,-190.43C788.1,-181.56 797.98,-170.65 805.71,-162.11"/>
<polygon fill="#63b8ff" stroke="#63b8ff" points="777.44,-188.11 773.32,-197.87 782.63,-192.81 777.44,-188.11"/>
</a>
</g>
</g>
<!-- Node13 -->
<g id="Node000013" class="node">
<title>Node13</title>
<g id="a_Node000013"><a xlink:href="_indexed_entry_server_8h.html" target="_top" xlink:title=" ">
<polygon fill="white" stroke="#666666" points="894,-96 743,-96 743,-66 894,-66 894,-96"/>
<text text-anchor="start" x="751" y="-84" font-family="Helvetica,sans-Serif" font-size="10.00">Cpl/Persistent/IndexedEntry</text>
<text text-anchor="middle" x="818.5" y="-73" font-family="Helvetica,sans-Serif" font-size="10.00">Server.h</text>
</a>
</g>
</g>
<!-- Node12&#45;&gt;Node13 -->
<g id="edge12_Node000012_Node000013" class="edge">
<title>Node12&#45;&gt;Node13</title>
<g id="a_edge12_Node000012_Node000013"><a xlink:title=" ">
<path fill="none" stroke="#63b8ff" d="M818.5,-121.54C818.5,-112.96 818.5,-103.61 818.5,-96.16"/>
<polygon fill="#63b8ff" stroke="#63b8ff" points="815,-121.8 818.5,-131.8 822,-121.8 815,-121.8"/>
</a>
</g>
</g>
<!-- Node14 -->
<g id="Node000014" class="node">
<title>Node14</title>
<g id="a_Node000014"><a xlink:href="_log_8h.html" target="_top" xlink:title=" ">
<polygon fill="white" stroke="#666666" points="872,-30 765,-30 765,0 872,0 872,-30"/>
<text text-anchor="start" x="773" y="-18" font-family="Helvetica,sans-Serif" font-size="10.00">Cpl/Logging/TShell</text>
<text text-anchor="middle" x="818.5" y="-7" font-family="Helvetica,sans-Serif" font-size="10.00">/Log.h</text>
</a>
</g>
</g>
<!-- Node13&#45;&gt;Node14 -->
<g id="edge13_Node000013_Node000014" class="edge">
<title>Node13&#45;&gt;Node14</title>
<g id="a_edge13_Node000013_Node000014"><a xlink:title=" ">
<path fill="none" stroke="#63b8ff" d="M818.5,-55.54C818.5,-46.96 818.5,-37.61 818.5,-30.16"/>
<polygon fill="#63b8ff" stroke="#63b8ff" points="815,-55.8 818.5,-65.8 822,-55.8 815,-55.8"/>
</a>
</g>
</g>
<!-- Node15&#45;&gt;Node9 -->
<g id="edge16_Node000015_Node000009" class="edge">
<title>Node15&#45;&gt;Node9</title>
<g id="a_edge16_Node000015_Node000009"><a xlink:title=" ">
<path fill="none" stroke="#63b8ff" d="M585.01,-242.66C583.86,-233.93 582.55,-223.99 581.63,-217.09"/>
<polygon fill="#63b8ff" stroke="#63b8ff" points="581.56,-243.29 586.34,-252.75 588.5,-242.38 581.56,-243.29"/>
</a>
</g>
</g>
</g>
</svg>
