<?xml version="1.0" encoding="UTF-8" standalone="no"?>
<!DOCTYPE svg PUBLIC "-//W3C//DTD SVG 1.1//EN"
 "http://www.w3.org/Graphics/SVG/1.1/DTD/svg11.dtd">
<!-- Generated by graphviz version 9.0.0 (20230911.1827)
 -->
<!-- Title: Cpl/Persistent/Chunk.h Pages: 1 -->
<svg width="822pt" height="337pt"
 viewBox="0.00 0.00 822.12 337.25" xmlns="http://www.w3.org/2000/svg" xmlns:xlink="http://www.w3.org/1999/xlink">
<g id="graph0" class="graph" transform="scale(1 1) rotate(0) translate(4 333.25)">
<title>Cpl/Persistent/Chunk.h</title>
<!-- Node1 -->
<g id="Node000001" class="node">
<title>Node1</title>
<g id="a_Node000001"><a xlink:title=" ">
<polygon fill="#999999" stroke="#666666" points="593,-329.25 477.25,-329.25 477.25,-310 593,-310 593,-329.25"/>
<text text-anchor="middle" x="535.12" y="-315.75" font-family="Helvetica,sans-Serif" font-size="10.00">Cpl/Persistent/Chunk.h</text>
</a>
</g>
</g>
<!-- Node2 -->
<g id="Node000002" class="node">
<title>Node2</title>
<g id="a_Node000002"><a xlink:href="_dm_2_persistent_2_record_8h.html" target="_top" xlink:title=" ">
<polygon fill="white" stroke="#666666" points="292.5,-274 155.75,-274 155.75,-254.75 292.5,-254.75 292.5,-274"/>
<text text-anchor="middle" x="224.12" y="-260.5" font-family="Helvetica,sans-Serif" font-size="10.00">Cpl/Dm/Persistent/Record.h</text>
</a>
</g>
</g>
<!-- Node1&#45;&gt;Node2 -->
<g id="edge1_Node000001_Node000002" class="edge">
<title>Node1&#45;&gt;Node2</title>
<g id="a_edge1_Node000001_Node000002"><a xlink:title=" ">
<path fill="none" stroke="#63b8ff" d="M470.92,-307.63C413.68,-297.83 330.88,-283.65 277.28,-274.48"/>
<polygon fill="#63b8ff" stroke="#63b8ff" points="470.08,-311.04 480.52,-309.28 471.26,-304.14 470.08,-311.04"/>
</a>
</g>
</g>
<!-- Node8 -->
<g id="Node000008" class="node">
<title>Node8</title>
<g id="a_Node000008"><a xlink:href="_crc_chunk_8h.html" target="_top" xlink:title=" ">
<polygon fill="white" stroke="#666666" points="441.5,-274 310.75,-274 310.75,-254.75 441.5,-254.75 441.5,-274"/>
<text text-anchor="middle" x="376.12" y="-260.5" font-family="Helvetica,sans-Serif" font-size="10.00">Cpl/Persistent/CrcChunk.h</text>
</a>
</g>
</g>
<!-- Node1&#45;&gt;Node8 -->
<g id="edge7_Node000001_Node000008" class="edge">
<title>Node1&#45;&gt;Node8</title>
<g id="a_edge7_Node000001_Node000008"><a xlink:title=" ">
<path fill="none" stroke="#63b8ff" d="M497.61,-306.06C468.62,-296.35 429.2,-283.15 403.23,-274.45"/>
<polygon fill="#63b8ff" stroke="#63b8ff" points="496.12,-309.25 506.72,-309.11 498.35,-302.62 496.12,-309.25"/>
</a>
</g>
</g>
<!-- Node10 -->
<g id="Node000010" class="node">
<title>Node10</title>
<g id="a_Node000010"><a xlink:href="_data_record_8h.html" target="_top" xlink:title=" ">
<polygon fill="white" stroke="#666666" points="767.62,-274 628.62,-274 628.62,-254.75 767.62,-254.75 767.62,-274"/>
<text text-anchor="middle" x="698.12" y="-260.5" font-family="Helvetica,sans-Serif" font-size="10.00">Cpl/Persistent/DataRecord.h</text>
</a>
</g>
</g>
<!-- Node1&#45;&gt;Node10 -->
<g id="edge9_Node000001_Node000010" class="edge">
<title>Node1&#45;&gt;Node10</title>
<g id="a_edge9_Node000001_Node000010"><a xlink:title=" ">
<path fill="none" stroke="#63b8ff" d="M573.59,-306.06C603.3,-296.35 643.71,-283.15 670.34,-274.45"/>
<polygon fill="#63b8ff" stroke="#63b8ff" points="572.63,-302.69 564.21,-309.12 574.81,-309.34 572.63,-302.69"/>
</a>
</g>
</g>
<!-- Node12 -->
<g id="Node000012" class="node">
<title>Node12</title>
<g id="a_Node000012"><a xlink:href="_indexed_entry_record_8h.html" target="_top" xlink:title=" ">
<polygon fill="white" stroke="#666666" points="814.12,-163.5 678.12,-163.5 678.12,-133 814.12,-133 814.12,-163.5"/>
<text text-anchor="start" x="686.12" y="-150" font-family="Helvetica,sans-Serif" font-size="10.00">Cpl/Persistent/IndexedEntry</text>
<text text-anchor="middle" x="746.12" y="-138.75" font-family="Helvetica,sans-Serif" font-size="10.00">Record.h</text>
</a>
</g>
</g>
<!-- Node1&#45;&gt;Node12 -->
<g id="edge14_Node000001_Node000012" class="edge">
<title>Node1&#45;&gt;Node12</title>
<g id="a_edge14_Node000001_Node000012"><a xlink:title=" ">
<path fill="none" stroke="#63b8ff" d="M604.57,-315.44C668.14,-310.89 755.5,-299.98 777.12,-274 804.11,-241.58 774.35,-189.04 756.93,-163.75"/>
<polygon fill="#63b8ff" stroke="#63b8ff" points="604.65,-311.92 594.91,-316.09 605.12,-318.91 604.65,-311.92"/>
</a>
</g>
</g>
<!-- Node15 -->
<g id="Node000015" class="node">
<title>Node15</title>
<g id="a_Node000015"><a xlink:href="_mirrored_chunk_8h.html" target="_top" xlink:title=" ">
<polygon fill="white" stroke="#666666" points="610.62,-274 459.62,-274 459.62,-254.75 610.62,-254.75 610.62,-274"/>
<text text-anchor="middle" x="535.12" y="-260.5" font-family="Helvetica,sans-Serif" font-size="10.00">Cpl/Persistent/MirroredChunk.h</text>
</a>
</g>
</g>
<!-- Node1&#45;&gt;Node15 -->
<g id="edge15_Node000001_Node000015" class="edge">
<title>Node1&#45;&gt;Node15</title>
<g id="a_edge15_Node000001_Node000015"><a xlink:title=" ">
<path fill="none" stroke="#63b8ff" d="M535.12,-298.38C535.12,-290.09 535.12,-280.92 535.12,-274.36"/>
<polygon fill="#63b8ff" stroke="#63b8ff" points="531.63,-298.32 535.13,-308.32 538.63,-298.32 531.63,-298.32"/>
</a>
</g>
</g>
<!-- Node3 -->
<g id="Node000003" class="node">
<title>Node3</title>
<g id="a_Node000003"><a xlink:href="_metrics_record_8h.html" target="_top" xlink:title=" ">
<polygon fill="white" stroke="#666666" points="132.25,-218.75 0,-218.75 0,-199.5 132.25,-199.5 132.25,-218.75"/>
<text text-anchor="middle" x="66.12" y="-205.25" font-family="Helvetica,sans-Serif" font-size="10.00">Ajax/Main/MetricsRecord.h</text>
</a>
</g>
</g>
<!-- Node2&#45;&gt;Node3 -->
<g id="edge2_Node000002_Node000003" class="edge">
<title>Node2&#45;&gt;Node3</title>
<g id="a_edge2_Node000002_Node000003"><a xlink:title=" ">
<path fill="none" stroke="#63b8ff" d="M186.46,-250.68C157.7,-240.99 118.75,-227.86 93.06,-219.2"/>
<polygon fill="#63b8ff" stroke="#63b8ff" points="185.29,-253.98 195.89,-253.86 187.53,-247.35 185.29,-253.98"/>
</a>
</g>
</g>
<!-- Node5 -->
<g id="Node000005" class="node">
<title>Node5</title>
<g id="a_Node000005"><a xlink:href="_personality_record_8h.html" target="_top" xlink:title=" ">
<polygon fill="white" stroke="#666666" points="298.12,-218.75 150.12,-218.75 150.12,-199.5 298.12,-199.5 298.12,-218.75"/>
<text text-anchor="middle" x="224.12" y="-205.25" font-family="Helvetica,sans-Serif" font-size="10.00">Ajax/Main/PersonalityRecord.h</text>
</a>
</g>
</g>
<!-- Node2&#45;&gt;Node5 -->
<g id="edge4_Node000002_Node000005" class="edge">
<title>Node2&#45;&gt;Node5</title>
<g id="a_edge4_Node000002_Node000005"><a xlink:title=" ">
<path fill="none" stroke="#63b8ff" d="M224.12,-243.13C224.12,-234.84 224.12,-225.67 224.12,-219.11"/>
<polygon fill="#63b8ff" stroke="#63b8ff" points="220.63,-243.07 224.13,-253.07 227.63,-243.07 220.63,-243.07"/>
</a>
</g>
</g>
<!-- Node7 -->
<g id="Node000007" class="node">
<title>Node7</title>
<g id="a_Node000007"><a xlink:href="_user_record_8h.html" target="_top" xlink:title=" ">
<polygon fill="white" stroke="#666666" points="437.62,-218.75 316.62,-218.75 316.62,-199.5 437.62,-199.5 437.62,-218.75"/>
<text text-anchor="middle" x="377.12" y="-205.25" font-family="Helvetica,sans-Serif" font-size="10.00">Ajax/Main/UserRecord.h</text>
</a>
</g>
</g>
<!-- Node2&#45;&gt;Node7 -->
<g id="edge6_Node000002_Node000007" class="edge">
<title>Node2&#45;&gt;Node7</title>
<g id="a_edge6_Node000002_Node000007"><a xlink:title=" ">
<path fill="none" stroke="#63b8ff" d="M260.6,-250.68C288.45,-240.99 326.16,-227.86 351.04,-219.2"/>
<polygon fill="#63b8ff" stroke="#63b8ff" points="259.8,-247.25 251.51,-253.84 262.1,-253.86 259.8,-247.25"/>
</a>
</g>
</g>
<!-- Node4 -->
<g id="Node000004" class="node">
<title>Node4</title>
<g id="a_Node000004"><a xlink:href="_ajax_2_metrics_2_api_8h.html" target="_top" xlink:title=" ">
<polygon fill="white" stroke="#666666" points="113.5,-157.88 18.75,-157.88 18.75,-138.62 113.5,-138.62 113.5,-157.88"/>
<text text-anchor="middle" x="66.12" y="-144.38" font-family="Helvetica,sans-Serif" font-size="10.00">Ajax/Metrics/Api.h</text>
</a>
</g>
</g>
<!-- Node3&#45;&gt;Node4 -->
<g id="edge3_Node000003_Node000004" class="edge">
<title>Node3&#45;&gt;Node4</title>
<g id="a_edge3_Node000003_Node000004"><a xlink:title=" ">
<path fill="none" stroke="#63b8ff" d="M66.12,-187.7C66.12,-177.67 66.12,-166.08 66.12,-158.28"/>
<polygon fill="#63b8ff" stroke="#63b8ff" points="62.63,-187.67 66.13,-197.67 69.63,-187.67 62.63,-187.67"/>
</a>
</g>
</g>
<!-- Node6 -->
<g id="Node000006" class="node">
<title>Node6</title>
<g id="a_Node000006"><a xlink:href="_provision_8h.html" target="_top" xlink:title=" ">
<polygon fill="white" stroke="#666666" points="282.38,-157.88 165.88,-157.88 165.88,-138.62 282.38,-138.62 282.38,-157.88"/>
<text text-anchor="middle" x="224.12" y="-144.38" font-family="Helvetica,sans-Serif" font-size="10.00">Ajax/TShell/Provision.h</text>
</a>
</g>
</g>
<!-- Node5&#45;&gt;Node6 -->
<g id="edge5_Node000005_Node000006" class="edge">
<title>Node5&#45;&gt;Node6</title>
<g id="a_edge5_Node000005_Node000006"><a xlink:title=" ">
<path fill="none" stroke="#63b8ff" d="M224.12,-187.7C224.12,-177.67 224.12,-166.08 224.12,-158.28"/>
<polygon fill="#63b8ff" stroke="#63b8ff" points="220.63,-187.67 224.13,-197.67 227.63,-187.67 220.63,-187.67"/>
</a>
</g>
</g>
<!-- Node9 -->
<g id="Node000009" class="node">
<title>Node9</title>
<g id="a_Node000009"><a xlink:href="_storage_map___8h.html" target="_top" xlink:title="This file contains the magic values for how data is laid out in the off&#45;board EEPROM.">
<polygon fill="white" stroke="#666666" points="590.62,-218.75 463.62,-218.75 463.62,-199.5 590.62,-199.5 590.62,-218.75"/>
<text text-anchor="middle" x="527.12" y="-205.25" font-family="Helvetica,sans-Serif" font-size="10.00">Ajax/Main/StorageMap_.h</text>
</a>
</g>
</g>
<!-- Node8&#45;&gt;Node9 -->
<g id="edge8_Node000008_Node000009" class="edge">
<title>Node8&#45;&gt;Node9</title>
<g id="a_edge8_Node000008_Node000009"><a xlink:title=" ">
<path fill="none" stroke="#63b8ff" d="M412.49,-250.55C439.94,-240.87 476.94,-227.82 501.38,-219.2"/>
<polygon fill="#63b8ff" stroke="#63b8ff" points="411.43,-247.21 403.17,-253.84 413.76,-253.81 411.43,-247.21"/>
</a>
</g>
</g>
<!-- Node11 -->
<g id="Node000011" class="node">
<title>Node11</title>
<g id="a_Node000011"><a xlink:href="_index_record_8h.html" target="_top" xlink:title=" ">
<polygon fill="white" stroke="#666666" points="768.12,-218.75 626.12,-218.75 626.12,-199.5 768.12,-199.5 768.12,-218.75"/>
<text text-anchor="middle" x="697.12" y="-205.25" font-family="Helvetica,sans-Serif" font-size="10.00">Cpl/Persistent/IndexRecord.h</text>
</a>
</g>
</g>
<!-- Node10&#45;&gt;Node11 -->
<g id="edge10_Node000010_Node000011" class="edge">
<title>Node10&#45;&gt;Node11</title>
<g id="a_edge10_Node000010_Node000011"><a xlink:title=" ">
<path fill="none" stroke="#63b8ff" d="M697.74,-243.13C697.59,-234.84 697.42,-225.67 697.29,-219.11"/>
<polygon fill="#63b8ff" stroke="#63b8ff" points="694.24,-243.14 697.93,-253.07 701.24,-243 694.24,-243.14"/>
</a>
</g>
</g>
<!-- Node11&#45;&gt;Node12 -->
<g id="edge11_Node000011_Node000012" class="edge">
<title>Node11&#45;&gt;Node12</title>
<g id="a_edge11_Node000011_Node000012"><a xlink:title=" ">
<path fill="none" stroke="#63b8ff" d="M711.85,-190.43C718.94,-181.92 727.33,-171.84 734.03,-163.78"/>
<polygon fill="#63b8ff" stroke="#63b8ff" points="709.24,-188.09 705.54,-198.02 714.62,-192.57 709.24,-188.09"/>
</a>
</g>
</g>
<!-- Node13 -->
<g id="Node000013" class="node">
<title>Node13</title>
<g id="a_Node000013"><a xlink:href="_indexed_entry_server_8h.html" target="_top" xlink:title=" ">
<polygon fill="white" stroke="#666666" points="814.12,-97 678.12,-97 678.12,-66.5 814.12,-66.5 814.12,-97"/>
<text text-anchor="start" x="686.12" y="-83.5" font-family="Helvetica,sans-Serif" font-size="10.00">Cpl/Persistent/IndexedEntry</text>
<text text-anchor="middle" x="746.12" y="-72.25" font-family="Helvetica,sans-Serif" font-size="10.00">Server.h</text>
</a>
</g>
</g>
<!-- Node12&#45;&gt;Node13 -->
<g id="edge12_Node000012_Node000013" class="edge">
<title>Node12&#45;&gt;Node13</title>
<g id="a_edge12_Node000012_Node000013"><a xlink:title=" ">
<path fill="none" stroke="#63b8ff" d="M746.12,-121.31C746.12,-113.14 746.12,-104.41 746.12,-97.33"/>
<polygon fill="#63b8ff" stroke="#63b8ff" points="742.63,-121.1 746.13,-131.1 749.63,-121.1 742.63,-121.1"/>
</a>
</g>
</g>
<!-- Node14 -->
<g id="Node000014" class="node">
<title>Node14</title>
<g id="a_Node000014"><a xlink:href="_log_8h.html" target="_top" xlink:title=" ">
<polygon fill="white" stroke="#666666" points="795.38,-30.5 696.88,-30.5 696.88,0 795.38,0 795.38,-30.5"/>
<text text-anchor="start" x="704.88" y="-17" font-family="Helvetica,sans-Serif" font-size="10.00">Cpl/Logging/TShell</text>
<text text-anchor="middle" x="746.12" y="-5.75" font-family="Helvetica,sans-Serif" font-size="10.00">/Log.h</text>
</a>
</g>
</g>
<!-- Node13&#45;&gt;Node14 -->
<g id="edge13_Node000013_Node000014" class="edge">
<title>Node13&#45;&gt;Node14</title>
<g id="a_edge13_Node000013_Node000014"><a xlink:title=" ">
<path fill="none" stroke="#63b8ff" d="M746.12,-54.81C746.12,-46.64 746.12,-37.91 746.12,-30.83"/>
<polygon fill="#63b8ff" stroke="#63b8ff" points="742.63,-54.6 746.13,-64.6 749.63,-54.6 742.63,-54.6"/>
</a>
</g>
</g>
<!-- Node15&#45;&gt;Node9 -->
<g id="edge16_Node000015_Node000009" class="edge">
<title>Node15&#45;&gt;Node9</title>
<g id="a_edge16_Node000015_Node000009"><a xlink:title=" ">
<path fill="none" stroke="#63b8ff" d="M532.13,-243.42C530.87,-235.05 529.47,-225.75 528.47,-219.11"/>
<polygon fill="#63b8ff" stroke="#63b8ff" points="528.63,-243.72 533.58,-253.09 535.55,-242.68 528.63,-243.72"/>
</a>
</g>
</g>
</g>
</svg>
