<?xml version="1.0" encoding="UTF-8" standalone="no"?>
<!DOCTYPE svg PUBLIC "-//W3C//DTD SVG 1.1//EN"
 "http://www.w3.org/Graphics/SVG/1.1/DTD/svg11.dtd">
<!-- Generated by graphviz version 9.0.0 (20230911.1827)
 -->
<!-- Title: Cpl/Persistent/Chunk.h Pages: 1 -->
<svg width="815pt" height="337pt"
 viewBox="0.00 0.00 814.62 337.25" xmlns="http://www.w3.org/2000/svg" xmlns:xlink="http://www.w3.org/1999/xlink">
<g id="graph0" class="graph" transform="scale(1 1) rotate(0) translate(4 333.25)">
<title>Cpl/Persistent/Chunk.h</title>
<!-- Node1 -->
<g id="Node000001" class="node">
<title>Node1</title>
<g id="a_Node000001"><a xlink:title=" ">
<polygon fill="#999999" stroke="#666666" points="587,-329.25 471.25,-329.25 471.25,-310 587,-310 587,-329.25"/>
<text text-anchor="middle" x="529.12" y="-315.75" font-family="Helvetica,sans-Serif" font-size="10.00">Cpl/Persistent/Chunk.h</text>
</a>
</g>
</g>
<!-- Node2 -->
<g id="Node000002" class="node">
<title>Node2</title>
<g id="a_Node000002"><a xlink:href="_dm_2_persistent_2_record_8h.html" target="_top" xlink:title=" ">
<polygon fill="white" stroke="#666666" points="292.5,-274 155.75,-274 155.75,-254.75 292.5,-254.75 292.5,-274"/>
<text text-anchor="middle" x="224.12" y="-260.5" font-family="Helvetica,sans-Serif" font-size="10.00">Cpl/Dm/Persistent/Record.h</text>
</a>
</g>
</g>
<!-- Node1&#45;&gt;Node2 -->
<g id="edge1_Node000001_Node000002" class="edge">
<title>Node1&#45;&gt;Node2</title>
<g id="a_edge1_Node000001_Node000002"><a xlink:title=" ">
<path fill="none" stroke="#63b8ff" d="M465.81,-307.57C409.69,-297.77 328.71,-283.63 276.25,-274.48"/>
<polygon fill="#63b8ff" stroke="#63b8ff" points="465.1,-311 475.55,-309.27 466.3,-304.1 465.1,-311"/>
</a>
</g>
</g>
<!-- Node8 -->
<g id="Node000008" class="node">
<title>Node8</title>
<g id="a_Node000008"><a xlink:href="_crc_chunk_8h.html" target="_top" xlink:title=" ">
<polygon fill="white" stroke="#666666" points="441.5,-274 310.75,-274 310.75,-254.75 441.5,-254.75 441.5,-274"/>
<text text-anchor="middle" x="376.12" y="-260.5" font-family="Helvetica,sans-Serif" font-size="10.00">Cpl/Persistent/CrcChunk.h</text>
</a>
</g>
</g>
<!-- Node1&#45;&gt;Node8 -->
<g id="edge7_Node000001_Node000008" class="edge">
<title>Node1&#45;&gt;Node8</title>
<g id="a_edge7_Node000001_Node000008"><a xlink:title=" ">
<path fill="none" stroke="#63b8ff" d="M492.65,-305.93C464.8,-296.24 427.09,-283.11 402.21,-274.45"/>
<polygon fill="#63b8ff" stroke="#63b8ff" points="491.15,-309.11 501.74,-309.09 493.45,-302.5 491.15,-309.11"/>
</a>
</g>
</g>
<!-- Node9 -->
<g id="Node000009" class="node">
<title>Node9</title>
<g id="a_Node000009"><a xlink:href="_data_record_8h.html" target="_top" xlink:title=" ">
<polygon fill="white" stroke="#666666" points="598.62,-274 459.62,-274 459.62,-254.75 598.62,-254.75 598.62,-274"/>
<text text-anchor="middle" x="529.12" y="-260.5" font-family="Helvetica,sans-Serif" font-size="10.00">Cpl/Persistent/DataRecord.h</text>
</a>
</g>
</g>
<!-- Node1&#45;&gt;Node9 -->
<g id="edge8_Node000001_Node000009" class="edge">
<title>Node1&#45;&gt;Node9</title>
<g id="a_edge8_Node000001_Node000009"><a xlink:title=" ">
<path fill="none" stroke="#63b8ff" d="M529.12,-298.38C529.12,-290.09 529.12,-280.92 529.12,-274.36"/>
<polygon fill="#63b8ff" stroke="#63b8ff" points="525.63,-298.32 529.13,-308.32 532.63,-298.32 525.63,-298.32"/>
</a>
</g>
</g>
<!-- Node11 -->
<g id="Node000011" class="node">
<title>Node11</title>
<g id="a_Node000011"><a xlink:href="_indexed_entry_record_8h.html" target="_top" xlink:title=" ">
<polygon fill="white" stroke="#666666" points="645.12,-163.5 509.12,-163.5 509.12,-133 645.12,-133 645.12,-163.5"/>
<text text-anchor="start" x="517.12" y="-150" font-family="Helvetica,sans-Serif" font-size="10.00">Cpl/Persistent/IndexedEntry</text>
<text text-anchor="middle" x="577.12" y="-138.75" font-family="Helvetica,sans-Serif" font-size="10.00">Record.h</text>
</a>
</g>
</g>
<!-- Node1&#45;&gt;Node11 -->
<g id="edge13_Node000001_Node000011" class="edge">
<title>Node1&#45;&gt;Node11</title>
<g id="a_edge13_Node000001_Node000011"><a xlink:title=" ">
<path fill="none" stroke="#63b8ff" d="M570.95,-305.04C585.34,-298.13 599.88,-288.12 608.12,-274 624.82,-245.4 617.16,-231.35 608.12,-199.5 604.38,-186.29 596.06,-173.14 588.98,-163.61"/>
<polygon fill="#63b8ff" stroke="#63b8ff" points="569.77,-301.73 561.99,-308.93 572.55,-308.16 569.77,-301.73"/>
</a>
</g>
</g>
<!-- Node14 -->
<g id="Node000014" class="node">
<title>Node14</title>
<g id="a_Node000014"><a xlink:href="_mirrored_chunk_8h.html" target="_top" xlink:title=" ">
<polygon fill="white" stroke="#666666" points="806.62,-274 655.62,-274 655.62,-254.75 806.62,-254.75 806.62,-274"/>
<text text-anchor="middle" x="731.12" y="-260.5" font-family="Helvetica,sans-Serif" font-size="10.00">Cpl/Persistent/MirroredChunk.h</text>
</a>
</g>
</g>
<!-- Node1&#45;&gt;Node14 -->
<g id="edge14_Node000001_Node000014" class="edge">
<title>Node1&#45;&gt;Node14</title>
<g id="a_edge14_Node000001_Node000014"><a xlink:title=" ">
<path fill="none" stroke="#63b8ff" d="M574.38,-306.7C611.4,-296.94 662.97,-283.34 696.69,-274.45"/>
<polygon fill="#63b8ff" stroke="#63b8ff" points="573.63,-303.27 564.86,-309.21 575.42,-310.04 573.63,-303.27"/>
</a>
</g>
</g>
<!-- Node3 -->
<g id="Node000003" class="node">
<title>Node3</title>
<g id="a_Node000003"><a xlink:href="_metrics_record_8h.html" target="_top" xlink:title=" ">
<polygon fill="white" stroke="#666666" points="132.25,-218.75 0,-218.75 0,-199.5 132.25,-199.5 132.25,-218.75"/>
<text text-anchor="middle" x="66.12" y="-205.25" font-family="Helvetica,sans-Serif" font-size="10.00">Ajax/Main/MetricsRecord.h</text>
</a>
</g>
</g>
<!-- Node2&#45;&gt;Node3 -->
<g id="edge2_Node000002_Node000003" class="edge">
<title>Node2&#45;&gt;Node3</title>
<g id="a_edge2_Node000002_Node000003"><a xlink:title=" ">
<path fill="none" stroke="#63b8ff" d="M186.46,-250.68C157.7,-240.99 118.75,-227.86 93.06,-219.2"/>
<polygon fill="#63b8ff" stroke="#63b8ff" points="185.29,-253.98 195.89,-253.86 187.53,-247.35 185.29,-253.98"/>
</a>
</g>
</g>
<!-- Node5 -->
<g id="Node000005" class="node">
<title>Node5</title>
<g id="a_Node000005"><a xlink:href="_personality_record_8h.html" target="_top" xlink:title=" ">
<polygon fill="white" stroke="#666666" points="298.12,-218.75 150.12,-218.75 150.12,-199.5 298.12,-199.5 298.12,-218.75"/>
<text text-anchor="middle" x="224.12" y="-205.25" font-family="Helvetica,sans-Serif" font-size="10.00">Ajax/Main/PersonalityRecord.h</text>
</a>
</g>
</g>
<!-- Node2&#45;&gt;Node5 -->
<g id="edge4_Node000002_Node000005" class="edge">
<title>Node2&#45;&gt;Node5</title>
<g id="a_edge4_Node000002_Node000005"><a xlink:title=" ">
<path fill="none" stroke="#63b8ff" d="M224.12,-243.13C224.12,-234.84 224.12,-225.67 224.12,-219.11"/>
<polygon fill="#63b8ff" stroke="#63b8ff" points="220.63,-243.07 224.13,-253.07 227.63,-243.07 220.63,-243.07"/>
</a>
</g>
</g>
<!-- Node7 -->
<g id="Node000007" class="node">
<title>Node7</title>
<g id="a_Node000007"><a xlink:href="_user_record_8h.html" target="_top" xlink:title=" ">
<polygon fill="white" stroke="#666666" points="437.62,-218.75 316.62,-218.75 316.62,-199.5 437.62,-199.5 437.62,-218.75"/>
<text text-anchor="middle" x="377.12" y="-205.25" font-family="Helvetica,sans-Serif" font-size="10.00">Ajax/Main/UserRecord.h</text>
</a>
</g>
</g>
<!-- Node2&#45;&gt;Node7 -->
<g id="edge6_Node000002_Node000007" class="edge">
<title>Node2&#45;&gt;Node7</title>
<g id="a_edge6_Node000002_Node000007"><a xlink:title=" ">
<path fill="none" stroke="#63b8ff" d="M260.6,-250.68C288.45,-240.99 326.16,-227.86 351.04,-219.2"/>
<polygon fill="#63b8ff" stroke="#63b8ff" points="259.8,-247.25 251.51,-253.84 262.1,-253.86 259.8,-247.25"/>
</a>
</g>
</g>
<!-- Node4 -->
<g id="Node000004" class="node">
<title>Node4</title>
<g id="a_Node000004"><a xlink:href="_ajax_2_metrics_2_api_8h.html" target="_top" xlink:title=" ">
<polygon fill="white" stroke="#666666" points="113.5,-157.88 18.75,-157.88 18.75,-138.62 113.5,-138.62 113.5,-157.88"/>
<text text-anchor="middle" x="66.12" y="-144.38" font-family="Helvetica,sans-Serif" font-size="10.00">Ajax/Metrics/Api.h</text>
</a>
</g>
</g>
<!-- Node3&#45;&gt;Node4 -->
<g id="edge3_Node000003_Node000004" class="edge">
<title>Node3&#45;&gt;Node4</title>
<g id="a_edge3_Node000003_Node000004"><a xlink:title=" ">
<path fill="none" stroke="#63b8ff" d="M66.12,-187.7C66.12,-177.67 66.12,-166.08 66.12,-158.28"/>
<polygon fill="#63b8ff" stroke="#63b8ff" points="62.63,-187.67 66.13,-197.67 69.63,-187.67 62.63,-187.67"/>
</a>
</g>
</g>
<!-- Node6 -->
<g id="Node000006" class="node">
<title>Node6</title>
<g id="a_Node000006"><a xlink:href="_provision_8h.html" target="_top" xlink:title=" ">
<polygon fill="white" stroke="#666666" points="282.38,-157.88 165.88,-157.88 165.88,-138.62 282.38,-138.62 282.38,-157.88"/>
<text text-anchor="middle" x="224.12" y="-144.38" font-family="Helvetica,sans-Serif" font-size="10.00">Ajax/TShell/Provision.h</text>
</a>
</g>
</g>
<!-- Node5&#45;&gt;Node6 -->
<g id="edge5_Node000005_Node000006" class="edge">
<title>Node5&#45;&gt;Node6</title>
<g id="a_edge5_Node000005_Node000006"><a xlink:title=" ">
<path fill="none" stroke="#63b8ff" d="M224.12,-187.7C224.12,-177.67 224.12,-166.08 224.12,-158.28"/>
<polygon fill="#63b8ff" stroke="#63b8ff" points="220.63,-187.67 224.13,-197.67 227.63,-187.67 220.63,-187.67"/>
</a>
</g>
</g>
<!-- Node10 -->
<g id="Node000010" class="node">
<title>Node10</title>
<g id="a_Node000010"><a xlink:href="_index_record_8h.html" target="_top" xlink:title=" ">
<polygon fill="white" stroke="#666666" points="599.12,-218.75 457.12,-218.75 457.12,-199.5 599.12,-199.5 599.12,-218.75"/>
<text text-anchor="middle" x="528.12" y="-205.25" font-family="Helvetica,sans-Serif" font-size="10.00">Cpl/Persistent/IndexRecord.h</text>
</a>
</g>
</g>
<!-- Node9&#45;&gt;Node10 -->
<g id="edge9_Node000009_Node000010" class="edge">
<title>Node9&#45;&gt;Node10</title>
<g id="a_edge9_Node000009_Node000010"><a xlink:title=" ">
<path fill="none" stroke="#63b8ff" d="M528.74,-243.13C528.59,-234.84 528.42,-225.67 528.29,-219.11"/>
<polygon fill="#63b8ff" stroke="#63b8ff" points="525.24,-243.14 528.93,-253.07 532.24,-243 525.24,-243.14"/>
</a>
</g>
</g>
<!-- Node10&#45;&gt;Node11 -->
<g id="edge10_Node000010_Node000011" class="edge">
<title>Node10&#45;&gt;Node11</title>
<g id="a_edge10_Node000010_Node000011"><a xlink:title=" ">
<path fill="none" stroke="#63b8ff" d="M542.85,-190.43C549.94,-181.92 558.33,-171.84 565.03,-163.78"/>
<polygon fill="#63b8ff" stroke="#63b8ff" points="540.24,-188.09 536.54,-198.02 545.62,-192.57 540.24,-188.09"/>
</a>
</g>
</g>
<!-- Node12 -->
<g id="Node000012" class="node">
<title>Node12</title>
<g id="a_Node000012"><a xlink:href="_indexed_entry_server_8h.html" target="_top" xlink:title=" ">
<polygon fill="white" stroke="#666666" points="645.12,-97 509.12,-97 509.12,-66.5 645.12,-66.5 645.12,-97"/>
<text text-anchor="start" x="517.12" y="-83.5" font-family="Helvetica,sans-Serif" font-size="10.00">Cpl/Persistent/IndexedEntry</text>
<text text-anchor="middle" x="577.12" y="-72.25" font-family="Helvetica,sans-Serif" font-size="10.00">Server.h</text>
</a>
</g>
</g>
<!-- Node11&#45;&gt;Node12 -->
<g id="edge11_Node000011_Node000012" class="edge">
<title>Node11&#45;&gt;Node12</title>
<g id="a_edge11_Node000011_Node000012"><a xlink:title=" ">
<path fill="none" stroke="#63b8ff" d="M577.12,-121.31C577.12,-113.14 577.12,-104.41 577.12,-97.33"/>
<polygon fill="#63b8ff" stroke="#63b8ff" points="573.63,-121.1 577.13,-131.1 580.63,-121.1 573.63,-121.1"/>
</a>
</g>
</g>
<!-- Node13 -->
<g id="Node000013" class="node">
<title>Node13</title>
<g id="a_Node000013"><a xlink:href="_log_8h.html" target="_top" xlink:title=" ">
<polygon fill="white" stroke="#666666" points="626.38,-30.5 527.88,-30.5 527.88,0 626.38,0 626.38,-30.5"/>
<text text-anchor="start" x="535.88" y="-17" font-family="Helvetica,sans-Serif" font-size="10.00">Cpl/Logging/TShell</text>
<text text-anchor="middle" x="577.12" y="-5.75" font-family="Helvetica,sans-Serif" font-size="10.00">/Log.h</text>
</a>
</g>
</g>
<!-- Node12&#45;&gt;Node13 -->
<g id="edge12_Node000012_Node000013" class="edge">
<title>Node12&#45;&gt;Node13</title>
<g id="a_edge12_Node000012_Node000013"><a xlink:title=" ">
<path fill="none" stroke="#63b8ff" d="M577.12,-54.81C577.12,-46.64 577.12,-37.91 577.12,-30.83"/>
<polygon fill="#63b8ff" stroke="#63b8ff" points="573.63,-54.6 577.13,-64.6 580.63,-54.6 573.63,-54.6"/>
</a>
</g>
</g>
</g>
</svg>
