<?xml version="1.0" encoding="UTF-8" standalone="no"?>
<!DOCTYPE svg PUBLIC "-//W3C//DTD SVG 1.1//EN"
 "http://www.w3.org/Graphics/SVG/1.1/DTD/svg11.dtd">
<!-- Generated by graphviz version 9.0.0 (20230911.1827)
 -->
<!-- Title: Cpl/Itc/CloseSync.h Pages: 1 -->
<svg width="473pt" height="469pt"
 viewBox="0.00 0.00 473.00 469.25" xmlns="http://www.w3.org/2000/svg" xmlns:xlink="http://www.w3.org/1999/xlink">
<g id="graph0" class="graph" transform="scale(1 1) rotate(0) translate(4 465.25)">
<title>Cpl/Itc/CloseSync.h</title>
<!-- Node1 -->
<g id="Node000001" class="node">
<title>Node1</title>
<g id="a_Node000001"><a xlink:title=" ">
<polygon fill="#999999" stroke="#666666" points="337.62,-461.25 236.12,-461.25 236.12,-442 337.62,-442 337.62,-461.25"/>
<text text-anchor="middle" x="286.88" y="-447.75" font-family="Helvetica,sans-Serif" font-size="10.00">Cpl/Itc/CloseSync.h</text>
</a>
</g>
</g>
<!-- Node2 -->
<g id="Node000002" class="node">
<title>Node2</title>
<g id="a_Node000002"><a xlink:href="_open_sync_8h.html" target="_top" xlink:title=" ">
<polygon fill="white" stroke="#666666" points="336.88,-406 236.88,-406 236.88,-386.75 336.88,-386.75 336.88,-406"/>
<text text-anchor="middle" x="286.88" y="-392.5" font-family="Helvetica,sans-Serif" font-size="10.00">Cpl/Itc/OpenSync.h</text>
</a>
</g>
</g>
<!-- Node1&#45;&gt;Node2 -->
<g id="edge1_Node000001_Node000002" class="edge">
<title>Node1&#45;&gt;Node2</title>
<g id="a_edge1_Node000001_Node000002"><a xlink:title=" ">
<path fill="none" stroke="#63b8ff" d="M286.88,-441.83C286.88,-435.32 286.88,-426.17 286.88,-417.87"/>
<polygon fill="#63b8ff" stroke="#63b8ff" points="290.38,-417.87 286.88,-407.87 283.38,-417.87 290.38,-417.87"/>
</a>
</g>
</g>
<!-- Node14 -->
<g id="Node000014" class="node">
<title>Node14</title>
<g id="a_Node000014"><a xlink:href="_close_request_8h.html" target="_top" xlink:title=" ">
<polygon fill="white" stroke="#666666" points="222.75,-350.75 107,-350.75 107,-331.5 222.75,-331.5 222.75,-350.75"/>
<text text-anchor="middle" x="164.88" y="-337.25" font-family="Helvetica,sans-Serif" font-size="10.00">Cpl/Itc/CloseRequest.h</text>
</a>
</g>
</g>
<!-- Node1&#45;&gt;Node14 -->
<g id="edge18_Node000001_Node000014" class="edge">
<title>Node1&#45;&gt;Node14</title>
<g id="a_edge18_Node000001_Node000014"><a xlink:title=" ">
<path fill="none" stroke="#63b8ff" d="M273.8,-441.56C261.55,-432.89 242.94,-419.21 227.88,-406 210.94,-391.15 193.03,-372.69 180.66,-359.44"/>
<polygon fill="#63b8ff" stroke="#63b8ff" points="183.43,-357.29 174.08,-352.32 178.29,-362.04 183.43,-357.29"/>
</a>
</g>
</g>
<!-- Node15 -->
<g id="Node000015" class="node">
<title>Node15</title>
<g id="a_Node000015"><a xlink:href="_close_api_8h.html" target="_top" xlink:title=" ">
<polygon fill="white" stroke="#666666" points="448.88,-406 354.88,-406 354.88,-386.75 448.88,-386.75 448.88,-406"/>
<text text-anchor="middle" x="401.88" y="-392.5" font-family="Helvetica,sans-Serif" font-size="10.00">Cpl/Itc/CloseApi.h</text>
</a>
</g>
</g>
<!-- Node1&#45;&gt;Node15 -->
<g id="edge22_Node000001_Node000015" class="edge">
<title>Node1&#45;&gt;Node15</title>
<g id="a_edge22_Node000001_Node000015"><a xlink:title=" ">
<path fill="none" stroke="#63b8ff" d="M306.38,-441.59C324.39,-433.25 351.4,-420.75 372.1,-411.16"/>
<polygon fill="#63b8ff" stroke="#63b8ff" points="373.29,-414.47 380.9,-407.09 370.35,-408.11 373.29,-414.47"/>
</a>
</g>
</g>
<!-- Node3 -->
<g id="Node000003" class="node">
<title>Node3</title>
<g id="a_Node000003"><a xlink:href="_open_api_8h.html" target="_top" xlink:title=" ">
<polygon fill="white" stroke="#666666" points="333.12,-350.75 240.62,-350.75 240.62,-331.5 333.12,-331.5 333.12,-350.75"/>
<text text-anchor="middle" x="286.88" y="-337.25" font-family="Helvetica,sans-Serif" font-size="10.00">Cpl/Itc/OpenApi.h</text>
</a>
</g>
</g>
<!-- Node2&#45;&gt;Node3 -->
<g id="edge2_Node000002_Node000003" class="edge">
<title>Node2&#45;&gt;Node3</title>
<g id="a_edge2_Node000002_Node000003"><a xlink:title=" ">
<path fill="none" stroke="#63b8ff" d="M286.88,-386.58C286.88,-380.07 286.88,-370.92 286.88,-362.62"/>
<polygon fill="#63b8ff" stroke="#63b8ff" points="290.38,-362.62 286.88,-352.62 283.38,-362.62 290.38,-362.62"/>
</a>
</g>
</g>
<!-- Node4 -->
<g id="Node000004" class="node">
<title>Node4</title>
<g id="a_Node000004"><a xlink:href="_open_request_8h.html" target="_top" xlink:title=" ">
<polygon fill="white" stroke="#666666" points="465,-350.75 350.75,-350.75 350.75,-331.5 465,-331.5 465,-350.75"/>
<text text-anchor="middle" x="407.88" y="-337.25" font-family="Helvetica,sans-Serif" font-size="10.00">Cpl/Itc/OpenRequest.h</text>
</a>
</g>
</g>
<!-- Node2&#45;&gt;Node4 -->
<g id="edge3_Node000002_Node000004" class="edge">
<title>Node2&#45;&gt;Node4</title>
<g id="a_edge3_Node000002_Node000004"><a xlink:title=" ">
<path fill="none" stroke="#63b8ff" d="M307.4,-386.34C326.44,-377.97 355.03,-365.38 376.85,-355.78"/>
<polygon fill="#63b8ff" stroke="#63b8ff" points="378.12,-359.04 385.86,-351.81 375.3,-352.64 378.12,-359.04"/>
</a>
</g>
</g>
<!-- Node5 -->
<g id="Node000005" class="node">
<title>Node5</title>
<g id="a_Node000005"><a xlink:href="_request_message_8h.html" target="_top" xlink:title=" ">
<polygon fill="white" stroke="#666666" points="318.25,-240.25 187.5,-240.25 187.5,-221 318.25,-221 318.25,-240.25"/>
<text text-anchor="middle" x="252.88" y="-226.75" font-family="Helvetica,sans-Serif" font-size="10.00">Cpl/Itc/RequestMessage.h</text>
</a>
</g>
</g>
<!-- Node4&#45;&gt;Node5 -->
<g id="edge4_Node000004_Node000005" class="edge">
<title>Node4&#45;&gt;Node5</title>
<g id="a_edge4_Node000004_Node000005"><a xlink:title=" ">
<path fill="none" stroke="#63b8ff" d="M397.2,-331C382.01,-318.18 353.09,-294.39 326.88,-276.25 311.39,-265.54 293.3,-254.6 278.88,-246.23"/>
<polygon fill="#63b8ff" stroke="#63b8ff" points="280.85,-243.33 270.43,-241.39 277.36,-249.4 280.85,-243.33"/>
</a>
</g>
</g>
<!-- Node10 -->
<g id="Node000010" class="node">
<title>Node10</title>
<g id="a_Node000010"><a xlink:href="_s_a_p_8h.html" target="_top" xlink:title=" ">
<polygon fill="white" stroke="#666666" points="383.5,-185 308.25,-185 308.25,-165.75 383.5,-165.75 383.5,-185"/>
<text text-anchor="middle" x="345.88" y="-171.5" font-family="Helvetica,sans-Serif" font-size="10.00">Cpl/Itc/SAP.h</text>
</a>
</g>
</g>
<!-- Node4&#45;&gt;Node10 -->
<g id="edge17_Node000004_Node000010" class="edge">
<title>Node4&#45;&gt;Node10</title>
<g id="a_edge17_Node000004_Node000010"><a xlink:title=" ">
<path fill="none" stroke="#63b8ff" d="M404.54,-331.32C394.87,-305.78 366.63,-231.2 353.17,-195.65"/>
<polygon fill="#63b8ff" stroke="#63b8ff" points="356.58,-194.75 349.76,-186.64 350.03,-197.23 356.58,-194.75"/>
</a>
</g>
</g>
<!-- Node12 -->
<g id="Node000012" class="node">
<title>Node12</title>
<g id="a_Node000012"><a xlink:href="_response_message_8h.html" target="_top" xlink:title=" ">
<polygon fill="white" stroke="#666666" points="318,-295.5 179.75,-295.5 179.75,-276.25 318,-276.25 318,-295.5"/>
<text text-anchor="middle" x="248.88" y="-282" font-family="Helvetica,sans-Serif" font-size="10.00">Cpl/Itc/ResponseMessage.h</text>
</a>
</g>
</g>
<!-- Node4&#45;&gt;Node12 -->
<g id="edge12_Node000004_Node000012" class="edge">
<title>Node4&#45;&gt;Node12</title>
<g id="a_edge12_Node000004_Node000012"><a xlink:title=" ">
<path fill="none" stroke="#63b8ff" d="M380.9,-331.09C354.98,-322.41 315.56,-309.21 286.54,-299.49"/>
<polygon fill="#63b8ff" stroke="#63b8ff" points="288.01,-296.29 277.41,-296.43 285.79,-302.93 288.01,-296.29"/>
</a>
</g>
</g>
<!-- Node6 -->
<g id="Node000006" class="node">
<title>Node6</title>
<g id="a_Node000006"><a xlink:href="_service_message_8h.html" target="_top" xlink:title=" ">
<polygon fill="white" stroke="#666666" points="127.75,-185 0,-185 0,-165.75 127.75,-165.75 127.75,-185"/>
<text text-anchor="middle" x="63.88" y="-171.5" font-family="Helvetica,sans-Serif" font-size="10.00">Cpl/Itc/ServiceMessage.h</text>
</a>
</g>
</g>
<!-- Node5&#45;&gt;Node6 -->
<g id="edge5_Node000005_Node000006" class="edge">
<title>Node5&#45;&gt;Node6</title>
<g id="a_edge5_Node000005_Node000006"><a xlink:title=" ">
<path fill="none" stroke="#63b8ff" d="M220.81,-220.59C189.45,-211.76 141.49,-198.24 106.84,-188.48"/>
<polygon fill="#63b8ff" stroke="#63b8ff" points="108.12,-185.21 97.55,-185.86 106.23,-191.94 108.12,-185.21"/>
</a>
</g>
</g>
<!-- Node5&#45;&gt;Node10 -->
<g id="edge9_Node000005_Node000010" class="edge">
<title>Node5&#45;&gt;Node10</title>
<g id="a_edge9_Node000005_Node000010"><a xlink:title=" ">
<path fill="none" stroke="#63b8ff" d="M268.65,-220.59C282.81,-212.48 303.86,-200.43 320.4,-190.96"/>
<polygon fill="#63b8ff" stroke="#63b8ff" points="321.77,-194.21 328.71,-186.2 318.29,-188.14 321.77,-194.21"/>
</a>
</g>
</g>
<!-- Node7 -->
<g id="Node000007" class="node">
<title>Node7</title>
<g id="a_Node000007"><a xlink:href="_message_8h.html" target="_top" xlink:title=" ">
<polygon fill="white" stroke="#666666" points="215.25,-74.5 120.5,-74.5 120.5,-55.25 215.25,-55.25 215.25,-74.5"/>
<text text-anchor="middle" x="167.88" y="-61" font-family="Helvetica,sans-Serif" font-size="10.00">Cpl/Itc/Message.h</text>
</a>
</g>
</g>
<!-- Node6&#45;&gt;Node7 -->
<g id="edge6_Node000006_Node000007" class="edge">
<title>Node6&#45;&gt;Node7</title>
<g id="a_edge6_Node000006_Node000007"><a xlink:title=" ">
<path fill="none" stroke="#63b8ff" d="M64.37,-165.53C65.54,-152.19 69.5,-126.76 82.88,-110.5 94.51,-96.35 111.83,-86.12 127.8,-79.06"/>
<polygon fill="#63b8ff" stroke="#63b8ff" points="128.7,-82.47 136.63,-75.44 126.05,-76 128.7,-82.47"/>
</a>
</g>
</g>
<!-- Node9 -->
<g id="Node000009" class="node">
<title>Node9</title>
<g id="a_Node000009"><a xlink:href="_return_handler_8h.html" target="_top" xlink:title=" ">
<polygon fill="white" stroke="#666666" points="209.5,-129.75 92.25,-129.75 92.25,-110.5 209.5,-110.5 209.5,-129.75"/>
<text text-anchor="middle" x="150.88" y="-116.25" font-family="Helvetica,sans-Serif" font-size="10.00">Cpl/Itc/ReturnHandler.h</text>
</a>
</g>
</g>
<!-- Node6&#45;&gt;Node9 -->
<g id="edge8_Node000006_Node000009" class="edge">
<title>Node6&#45;&gt;Node9</title>
<g id="a_edge8_Node000006_Node000009"><a xlink:title=" ">
<path fill="none" stroke="#63b8ff" d="M78.63,-165.34C91.76,-157.31 111.2,-145.41 126.61,-135.98"/>
<polygon fill="#63b8ff" stroke="#63b8ff" points="128.05,-139.2 134.75,-130.99 124.4,-133.23 128.05,-139.2"/>
</a>
</g>
</g>
<!-- Node8 -->
<g id="Node000008" class="node">
<title>Node8</title>
<g id="a_Node000008"><a xlink:href="_item_8h.html" target="_top" xlink:title=" ">
<polygon fill="white" stroke="#666666" points="220.12,-19.25 115.62,-19.25 115.62,0 220.12,0 220.12,-19.25"/>
<text text-anchor="middle" x="167.88" y="-5.75" font-family="Helvetica,sans-Serif" font-size="10.00">Cpl/Container/Item.h</text>
</a>
</g>
</g>
<!-- Node7&#45;&gt;Node8 -->
<g id="edge7_Node000007_Node000008" class="edge">
<title>Node7&#45;&gt;Node8</title>
<g id="a_edge7_Node000007_Node000008"><a xlink:title=" ">
<path fill="none" stroke="#63b8ff" d="M167.88,-55.08C167.88,-48.57 167.88,-39.42 167.88,-31.12"/>
<polygon fill="#63b8ff" stroke="#63b8ff" points="171.38,-31.12 167.88,-21.12 164.38,-31.12 171.38,-31.12"/>
</a>
</g>
</g>
<!-- Node11 -->
<g id="Node000011" class="node">
<title>Node11</title>
<g id="a_Node000011"><a xlink:href="_post_api_8h.html" target="_top" xlink:title=" ">
<polygon fill="white" stroke="#666666" points="316.62,-129.75 227.12,-129.75 227.12,-110.5 316.62,-110.5 316.62,-129.75"/>
<text text-anchor="middle" x="271.88" y="-116.25" font-family="Helvetica,sans-Serif" font-size="10.00">Cpl/Itc/PostApi.h</text>
</a>
</g>
</g>
<!-- Node10&#45;&gt;Node11 -->
<g id="edge10_Node000010_Node000011" class="edge">
<title>Node10&#45;&gt;Node11</title>
<g id="a_edge10_Node000010_Node000011"><a xlink:title=" ">
<path fill="none" stroke="#63b8ff" d="M333.32,-165.34C322.41,-157.49 306.37,-145.95 293.41,-136.62"/>
<polygon fill="#63b8ff" stroke="#63b8ff" points="295.63,-133.91 285.47,-130.91 291.54,-139.59 295.63,-133.91"/>
</a>
</g>
</g>
<!-- Node11&#45;&gt;Node7 -->
<g id="edge11_Node000011_Node000007" class="edge">
<title>Node11&#45;&gt;Node7</title>
<g id="a_edge11_Node000011_Node000007"><a xlink:title=" ">
<path fill="none" stroke="#63b8ff" d="M254.23,-110.09C238.25,-101.91 214.42,-89.71 195.84,-80.19"/>
<polygon fill="#63b8ff" stroke="#63b8ff" points="197.45,-77.08 186.95,-75.64 194.26,-83.32 197.45,-77.08"/>
</a>
</g>
</g>
<!-- Node12&#45;&gt;Node5 -->
<g id="edge16_Node000012_Node000005" class="edge">
<title>Node12&#45;&gt;Node5</title>
<g id="a_edge16_Node000012_Node000005"><a xlink:title=" ">
<path fill="none" stroke="#63b8ff" d="M249.54,-276.08C250.03,-269.49 250.73,-260.21 251.36,-251.82"/>
<polygon fill="#63b8ff" stroke="#63b8ff" points="254.83,-252.35 252.09,-242.12 247.85,-251.83 254.83,-252.35"/>
</a>
</g>
</g>
<!-- Node13 -->
<g id="Node000013" class="node">
<title>Node13</title>
<g id="a_Node000013"><a xlink:href="_async_return_handler_8h.html" target="_top" xlink:title=" ">
<polygon fill="white" stroke="#666666" points="290,-185 145.75,-185 145.75,-165.75 290,-165.75 290,-185"/>
<text text-anchor="middle" x="217.88" y="-171.5" font-family="Helvetica,sans-Serif" font-size="10.00">Cpl/Itc/AsyncReturnHandler.h</text>
</a>
</g>
</g>
<!-- Node12&#45;&gt;Node13 -->
<g id="edge13_Node000012_Node000013" class="edge">
<title>Node12&#45;&gt;Node13</title>
<g id="a_edge13_Node000012_Node000013"><a xlink:title=" ">
<path fill="none" stroke="#63b8ff" d="M223.01,-275.82C207.19,-268.79 188.23,-257.31 178.88,-240.25 169.85,-223.8 183.41,-205.59 196.95,-192.84"/>
<polygon fill="#63b8ff" stroke="#63b8ff" points="199.21,-195.51 204.47,-186.31 194.62,-190.22 199.21,-195.51"/>
</a>
</g>
</g>
<!-- Node13&#45;&gt;Node9 -->
<g id="edge14_Node000013_Node000009" class="edge">
<title>Node13&#45;&gt;Node9</title>
<g id="a_edge14_Node000013_Node000009"><a xlink:title=" ">
<path fill="none" stroke="#63b8ff" d="M206.51,-165.34C196.83,-157.65 182.68,-146.4 171.07,-137.18"/>
<polygon fill="#63b8ff" stroke="#63b8ff" points="173.26,-134.45 163.26,-130.97 168.91,-139.93 173.26,-134.45"/>
</a>
</g>
</g>
<!-- Node13&#45;&gt;Node11 -->
<g id="edge15_Node000013_Node000011" class="edge">
<title>Node13&#45;&gt;Node11</title>
<g id="a_edge15_Node000013_Node000011"><a xlink:title=" ">
<path fill="none" stroke="#63b8ff" d="M226.79,-165.58C234.33,-158.15 245.34,-147.29 254.6,-138.16"/>
<polygon fill="#63b8ff" stroke="#63b8ff" points="257.02,-140.69 261.69,-131.17 252.11,-135.7 257.02,-140.69"/>
</a>
</g>
</g>
<!-- Node14&#45;&gt;Node5 -->
<g id="edge19_Node000014_Node000005" class="edge">
<title>Node14&#45;&gt;Node5</title>
<g id="a_edge19_Node000014_Node000005"><a xlink:title=" ">
<path fill="none" stroke="#63b8ff" d="M163.23,-331C161.35,-317.77 159.84,-292.99 170.88,-276.25 180.3,-261.96 195.91,-251.86 210.99,-244.94"/>
<polygon fill="#63b8ff" stroke="#63b8ff" points="212,-248.31 219.87,-241.22 209.29,-241.85 212,-248.31"/>
</a>
</g>
</g>
<!-- Node14&#45;&gt;Node10 -->
<g id="edge21_Node000014_Node000010" class="edge">
<title>Node14&#45;&gt;Node10</title>
<g id="a_edge21_Node000014_Node000010"><a xlink:title=" ">
<path fill="none" stroke="#63b8ff" d="M222.3,-331.04C263.02,-323.4 312.82,-311.21 326.88,-295.5 351.36,-268.14 351.22,-222.39 348.7,-196.26"/>
<polygon fill="#63b8ff" stroke="#63b8ff" points="352.22,-196.2 347.55,-186.69 345.27,-197.03 352.22,-196.2"/>
</a>
</g>
</g>
<!-- Node14&#45;&gt;Node12 -->
<g id="edge20_Node000014_Node000012" class="edge">
<title>Node14&#45;&gt;Node12</title>
<g id="a_edge20_Node000014_Node000012"><a xlink:title=" ">
<path fill="none" stroke="#63b8ff" d="M179.12,-331.09C191.67,-323.14 210.21,-311.39 225.02,-302"/>
<polygon fill="#63b8ff" stroke="#63b8ff" points="226.71,-305.07 233.28,-296.76 222.96,-299.16 226.71,-305.07"/>
</a>
</g>
</g>
</g>
</svg>
