<?xml version="1.0" encoding="UTF-8" standalone="no"?>
<!DOCTYPE svg PUBLIC "-//W3C//DTD SVG 1.1//EN"
 "http://www.w3.org/Graphics/SVG/1.1/DTD/svg11.dtd">
<!-- Generated by graphviz version 9.0.0 (20230911.1827)
 -->
<!-- Title: Cpl/TShell/Context_.h Pages: 1 -->
<svg width="3425pt" height="216pt"
 viewBox="0.00 0.00 3425.38 215.50" xmlns="http://www.w3.org/2000/svg" xmlns:xlink="http://www.w3.org/1999/xlink">
<g id="graph0" class="graph" transform="scale(1 1) rotate(0) translate(4 211.5)">
<title>Cpl/TShell/Context_.h</title>
<!-- Node1 -->
<g id="Node000001" class="node">
<title>Node1</title>
<g id="a_Node000001"><a xlink:title=" ">
<polygon fill="#999999" stroke="#666666" points="2435.88,-207.5 2326.12,-207.5 2326.12,-188.25 2435.88,-188.25 2435.88,-207.5"/>
<text text-anchor="middle" x="2381" y="-194" font-family="Helvetica,sans-Serif" font-size="10.00">Cpl/TShell/Context_.h</text>
</a>
</g>
</g>
<!-- Node2 -->
<g id="Node000002" class="node">
<title>Node2</title>
<g id="a_Node000002"><a xlink:href="_cmd_2_command_8h.html" target="_top" xlink:title=" ">
<polygon fill="white" stroke="#666666" points="1694.5,-152.25 1555.5,-152.25 1555.5,-133 1694.5,-133 1694.5,-152.25"/>
<text text-anchor="middle" x="1625" y="-138.75" font-family="Helvetica,sans-Serif" font-size="10.00">Cpl/TShell/Cmd/Command.h</text>
</a>
</g>
</g>
<!-- Node1&#45;&gt;Node2 -->
<g id="edge1_Node000001_Node000002" class="edge">
<title>Node1&#45;&gt;Node2</title>
<g id="a_edge1_Node000001_Node000002"><a xlink:title=" ">
<path fill="none" stroke="#63b8ff" d="M2314.59,-192.2C2172.43,-182.18 1839.79,-158.75 1694.72,-148.54"/>
<polygon fill="#63b8ff" stroke="#63b8ff" points="2313.98,-195.66 2324.21,-192.87 2314.48,-188.68 2313.98,-195.66"/>
</a>
</g>
</g>
<!-- Node30 -->
<g id="Node000030" class="node">
<title>Node30</title>
<g id="a_Node000030"><a xlink:href="_processor_8h.html" target="_top" xlink:title=" ">
<polygon fill="white" stroke="#666666" points="3264.88,-152.25 3149.12,-152.25 3149.12,-133 3264.88,-133 3264.88,-152.25"/>
<text text-anchor="middle" x="3207" y="-138.75" font-family="Helvetica,sans-Serif" font-size="10.00">Cpl/TShell/Processor.h</text>
</a>
</g>
</g>
<!-- Node1&#45;&gt;Node30 -->
<g id="edge29_Node000001_Node000030" class="edge">
<title>Node1&#45;&gt;Node30</title>
<g id="a_edge29_Node000001_Node000030"><a xlink:title=" ">
<path fill="none" stroke="#63b8ff" d="M2447.54,-192.59C2605.24,-182.42 2999.61,-156.99 3148.69,-147.38"/>
<polygon fill="#63b8ff" stroke="#63b8ff" points="2447.42,-189.09 2437.67,-193.22 2447.87,-196.07 2447.42,-189.09"/>
</a>
</g>
</g>
<!-- Node3 -->
<g id="Node000003" class="node">
<title>Node3</title>
<g id="a_Node000003"><a xlink:href="_ajax_2_heating_2_simulated_2_cmd_8h.html" target="_top" xlink:title=" ">
<polygon fill="white" stroke="#666666" points="118,-97 0,-97 0,-66.5 118,-66.5 118,-97"/>
<text text-anchor="start" x="8" y="-83.5" font-family="Helvetica,sans-Serif" font-size="10.00">Ajax/Heating/Simulated</text>
<text text-anchor="middle" x="59" y="-72.25" font-family="Helvetica,sans-Serif" font-size="10.00">/Cmd.h</text>
</a>
</g>
</g>
<!-- Node2&#45;&gt;Node3 -->
<g id="edge2_Node000002_Node000003" class="edge">
<title>Node2&#45;&gt;Node3</title>
<g id="a_edge2_Node000002_Node000003"><a xlink:title=" ">
<path fill="none" stroke="#63b8ff" d="M1544.01,-141.1C1273.85,-139.05 404.95,-130 127,-97 124.13,-96.66 121.19,-96.26 118.24,-95.81"/>
<polygon fill="#63b8ff" stroke="#63b8ff" points="1543.74,-144.6 1553.76,-141.17 1543.79,-137.6 1543.74,-144.6"/>
</a>
</g>
</g>
<!-- Node4 -->
<g id="Node000004" class="node">
<title>Node4</title>
<g id="a_Node000004"><a xlink:href="_provision_8h.html" target="_top" xlink:title=" ">
<polygon fill="white" stroke="#666666" points="252.25,-91.38 135.75,-91.38 135.75,-72.12 252.25,-72.12 252.25,-91.38"/>
<text text-anchor="middle" x="194" y="-77.88" font-family="Helvetica,sans-Serif" font-size="10.00">Ajax/TShell/Provision.h</text>
</a>
</g>
</g>
<!-- Node2&#45;&gt;Node4 -->
<g id="edge3_Node000002_Node000004" class="edge">
<title>Node2&#45;&gt;Node4</title>
<g id="a_edge3_Node000002_Node000004"><a xlink:title=" ">
<path fill="none" stroke="#63b8ff" d="M1544.04,-140.86C1290.14,-138.15 511.6,-127.51 261,-97 251.2,-95.81 240.71,-93.89 231.01,-91.84"/>
<polygon fill="#63b8ff" stroke="#63b8ff" points="1543.82,-144.35 1553.85,-140.96 1543.89,-137.35 1543.82,-144.35"/>
</a>
</g>
</g>
<!-- Node5 -->
<g id="Node000005" class="node">
<title>Node5</title>
<g id="a_Node000005"><a xlink:href="_state_8h.html" target="_top" xlink:title=" ">
<polygon fill="white" stroke="#666666" points="369.62,-91.38 270.38,-91.38 270.38,-72.12 369.62,-72.12 369.62,-91.38"/>
<text text-anchor="middle" x="320" y="-77.88" font-family="Helvetica,sans-Serif" font-size="10.00">Ajax/TShell/State.h</text>
</a>
</g>
</g>
<!-- Node2&#45;&gt;Node5 -->
<g id="edge4_Node000002_Node000005" class="edge">
<title>Node2&#45;&gt;Node5</title>
<g id="a_edge4_Node000002_Node000005"><a xlink:title=" ">
<path fill="none" stroke="#63b8ff" d="M1543.74,-140.85C1304.47,-138.22 605.16,-128.04 379,-97 370.34,-95.81 361.09,-93.89 352.54,-91.85"/>
<polygon fill="#63b8ff" stroke="#63b8ff" points="1543.57,-144.35 1553.61,-140.96 1543.64,-137.35 1543.57,-144.35"/>
</a>
</g>
</g>
<!-- Node6 -->
<g id="Node000006" class="node">
<title>Node6</title>
<g id="a_Node000006"><a xlink:href="_ui_8h.html" target="_top" xlink:title=" ">
<polygon fill="white" stroke="#666666" points="473.88,-91.38 388.12,-91.38 388.12,-72.12 473.88,-72.12 473.88,-91.38"/>
<text text-anchor="middle" x="431" y="-77.88" font-family="Helvetica,sans-Serif" font-size="10.00">Ajax/TShell/Ui.h</text>
</a>
</g>
</g>
<!-- Node2&#45;&gt;Node6 -->
<g id="edge5_Node000002_Node000006" class="edge">
<title>Node2&#45;&gt;Node6</title>
<g id="a_edge5_Node000002_Node000006"><a xlink:title=" ">
<path fill="none" stroke="#63b8ff" d="M1543.95,-140.86C1318.61,-138.35 687.78,-128.63 483,-97 475.32,-95.81 467.16,-93.9 459.63,-91.85"/>
<polygon fill="#63b8ff" stroke="#63b8ff" points="1543.78,-144.36 1553.82,-140.97 1543.86,-137.36 1543.78,-144.36"/>
</a>
</g>
</g>
<!-- Node7 -->
<g id="Node000007" class="node">
<title>Node7</title>
<g id="a_Node000007"><a xlink:href="_dm_8h.html" target="_top" xlink:title=" ">
<polygon fill="white" stroke="#666666" points="596.25,-91.38 491.75,-91.38 491.75,-72.12 596.25,-72.12 596.25,-91.38"/>
<text text-anchor="middle" x="544" y="-77.88" font-family="Helvetica,sans-Serif" font-size="10.00">Cpl/Dm/TShell/Dm.h</text>
</a>
</g>
</g>
<!-- Node2&#45;&gt;Node7 -->
<g id="edge6_Node000002_Node000007" class="edge">
<title>Node2&#45;&gt;Node7</title>
<g id="a_edge6_Node000002_Node000007"><a xlink:title=" ">
<path fill="none" stroke="#63b8ff" d="M1543.74,-140.02C1335.37,-135.59 785.74,-121.85 605,-97 596.17,-95.79 586.73,-93.89 577.99,-91.87"/>
<polygon fill="#63b8ff" stroke="#63b8ff" points="1543.6,-143.52 1553.67,-140.23 1543.75,-136.52 1543.6,-143.52"/>
</a>
</g>
</g>
<!-- Node8 -->
<g id="Node000008" class="node">
<title>Node8</title>
<g id="a_Node000008"><a xlink:href="_fs_8h.html" target="_top" xlink:title=" ">
<polygon fill="white" stroke="#666666" points="707.62,-97 614.38,-97 614.38,-66.5 707.62,-66.5 707.62,-97"/>
<text text-anchor="start" x="622.38" y="-83.5" font-family="Helvetica,sans-Serif" font-size="10.00">Cpl/Io/File/Littlefs</text>
<text text-anchor="middle" x="661" y="-72.25" font-family="Helvetica,sans-Serif" font-size="10.00">/TShell/Fs.h</text>
</a>
</g>
</g>
<!-- Node2&#45;&gt;Node8 -->
<g id="edge7_Node000002_Node000008" class="edge">
<title>Node2&#45;&gt;Node8</title>
<g id="a_edge7_Node000002_Node000008"><a xlink:title=" ">
<path fill="none" stroke="#63b8ff" d="M1543.63,-139.71C1351.71,-134.86 875.11,-120.76 717,-97 714.02,-96.55 710.98,-96.01 707.91,-95.41"/>
<polygon fill="#63b8ff" stroke="#63b8ff" points="1543.43,-143.21 1553.51,-139.96 1543.6,-136.21 1543.43,-143.21"/>
</a>
</g>
</g>
<!-- Node9 -->
<g id="Node000009" class="node">
<title>Node9</title>
<g id="a_Node000009"><a xlink:href="_log_8h.html" target="_top" xlink:title=" ">
<polygon fill="white" stroke="#666666" points="824.25,-97 725.75,-97 725.75,-66.5 824.25,-66.5 824.25,-97"/>
<text text-anchor="start" x="733.75" y="-83.5" font-family="Helvetica,sans-Serif" font-size="10.00">Cpl/Logging/TShell</text>
<text text-anchor="middle" x="775" y="-72.25" font-family="Helvetica,sans-Serif" font-size="10.00">/Log.h</text>
</a>
</g>
</g>
<!-- Node2&#45;&gt;Node9 -->
<g id="edge8_Node000002_Node000009" class="edge">
<title>Node2&#45;&gt;Node9</title>
<g id="a_edge8_Node000002_Node000009"><a xlink:title=" ">
<path fill="none" stroke="#63b8ff" d="M1543.84,-141.97C1399.85,-141.5 1090.59,-135.56 833,-97 830.23,-96.59 827.4,-96.1 824.55,-95.56"/>
<polygon fill="#63b8ff" stroke="#63b8ff" points="1543.65,-145.47 1553.65,-142 1543.66,-138.47 1543.65,-145.47"/>
</a>
</g>
</g>
<!-- Node10 -->
<g id="Node000010" class="node">
<title>Node10</title>
<g id="a_Node000010"><a xlink:href="_cpl_2_m_app_2_cmd_8h.html" target="_top" xlink:title=" ">
<polygon fill="white" stroke="#666666" points="931.75,-91.38 842.25,-91.38 842.25,-72.12 931.75,-72.12 931.75,-91.38"/>
<text text-anchor="middle" x="887" y="-77.88" font-family="Helvetica,sans-Serif" font-size="10.00">Cpl/MApp/Cmd.h</text>
</a>
</g>
</g>
<!-- Node2&#45;&gt;Node10 -->
<g id="edge9_Node000002_Node000010" class="edge">
<title>Node2&#45;&gt;Node10</title>
<g id="a_edge9_Node000002_Node000010"><a xlink:title=" ">
<path fill="none" stroke="#63b8ff" d="M1543.78,-141.37C1415.09,-139.84 1156.77,-132.17 941,-97 933.25,-95.74 925,-93.85 917.34,-91.85"/>
<polygon fill="#63b8ff" stroke="#63b8ff" points="1543.53,-144.87 1553.56,-141.48 1543.6,-137.87 1543.53,-144.87"/>
</a>
</g>
</g>
<!-- Node11 -->
<g id="Node000011" class="node">
<title>Node11</title>
<g id="a_Node000011"><a xlink:href="_dbg_8h.html" target="_top" xlink:title=" ">
<polygon fill="white" stroke="#666666" points="1070.12,-97 949.88,-97 949.88,-66.5 1070.12,-66.5 1070.12,-97"/>
<text text-anchor="start" x="957.88" y="-83.5" font-family="Helvetica,sans-Serif" font-size="10.00">Cpl/TShell/Cmd/Arduino</text>
<text text-anchor="middle" x="1010" y="-72.25" font-family="Helvetica,sans-Serif" font-size="10.00">/Dbg.h</text>
</a>
</g>
</g>
<!-- Node2&#45;&gt;Node11 -->
<g id="edge10_Node000002_Node000011" class="edge">
<title>Node2&#45;&gt;Node11</title>
<g id="a_edge10_Node000002_Node000011"><a xlink:title=" ">
<path fill="none" stroke="#63b8ff" d="M1543.98,-138.1C1437.06,-132.74 1243.18,-120.57 1079,-97 1076.22,-96.6 1073.37,-96.16 1070.51,-95.68"/>
<polygon fill="#63b8ff" stroke="#63b8ff" points="1543.64,-141.59 1553.8,-138.58 1543.99,-134.59 1543.64,-141.59"/>
</a>
</g>
</g>
<!-- Node12 -->
<g id="Node000012" class="node">
<title>Node12</title>
<g id="a_Node000012"><a xlink:href="_bye_8h.html" target="_top" xlink:title=" ">
<polygon fill="white" stroke="#666666" points="1199.62,-91.38 1088.38,-91.38 1088.38,-72.12 1199.62,-72.12 1199.62,-91.38"/>
<text text-anchor="middle" x="1144" y="-77.88" font-family="Helvetica,sans-Serif" font-size="10.00">Cpl/TShell/Cmd/Bye.h</text>
</a>
</g>
</g>
<!-- Node2&#45;&gt;Node12 -->
<g id="edge11_Node000002_Node000012" class="edge">
<title>Node2&#45;&gt;Node12</title>
<g id="a_edge11_Node000002_Node000012"><a xlink:title=" ">
<path fill="none" stroke="#63b8ff" d="M1544.03,-135.67C1459.75,-128.85 1324.08,-116.07 1208,-97 1199.35,-95.58 1190.11,-93.72 1181.43,-91.82"/>
<polygon fill="#63b8ff" stroke="#63b8ff" points="1543.57,-139.15 1553.81,-136.46 1544.12,-132.17 1543.57,-139.15"/>
</a>
</g>
</g>
<!-- Node13 -->
<g id="Node000013" class="node">
<title>Node13</title>
<g id="a_Node000013"><a xlink:href="_help_8h.html" target="_top" xlink:title=" ">
<polygon fill="white" stroke="#666666" points="1332.5,-91.38 1217.5,-91.38 1217.5,-72.12 1332.5,-72.12 1332.5,-91.38"/>
<text text-anchor="middle" x="1275" y="-77.88" font-family="Helvetica,sans-Serif" font-size="10.00">Cpl/TShell/Cmd/Help.h</text>
</a>
</g>
</g>
<!-- Node2&#45;&gt;Node13 -->
<g id="edge12_Node000002_Node000013" class="edge">
<title>Node2&#45;&gt;Node13</title>
<g id="a_edge12_Node000002_Node000013"><a xlink:title=" ">
<path fill="none" stroke="#63b8ff" d="M1549.1,-130.9C1491.79,-122.5 1411.26,-110.09 1341,-97 1332.7,-95.45 1323.85,-93.65 1315.42,-91.86"/>
<polygon fill="#63b8ff" stroke="#63b8ff" points="1548.35,-134.32 1558.75,-132.3 1549.36,-127.4 1548.35,-134.32"/>
</a>
</g>
</g>
<!-- Node14 -->
<g id="Node000014" class="node">
<title>Node14</title>
<g id="a_Node000014"><a xlink:href="_t_print_8h.html" target="_top" xlink:title=" ">
<polygon fill="white" stroke="#666666" points="1471.5,-91.38 1350.5,-91.38 1350.5,-72.12 1471.5,-72.12 1471.5,-91.38"/>
<text text-anchor="middle" x="1411" y="-77.88" font-family="Helvetica,sans-Serif" font-size="10.00">Cpl/TShell/Cmd/TPrint.h</text>
</a>
</g>
</g>
<!-- Node2&#45;&gt;Node14 -->
<g id="edge13_Node000002_Node000014" class="edge">
<title>Node2&#45;&gt;Node14</title>
<g id="a_edge13_Node000002_Node000014"><a xlink:title=" ">
<path fill="none" stroke="#63b8ff" d="M1581.09,-129.55C1540.4,-118.35 1480.78,-101.95 1444.01,-91.83"/>
<polygon fill="#63b8ff" stroke="#63b8ff" points="1580,-132.88 1590.57,-132.15 1581.86,-126.13 1580,-132.88"/>
</a>
</g>
</g>
<!-- Node15 -->
<g id="Node000015" class="node">
<title>Node15</title>
<g id="a_Node000015"><a xlink:href="_threads_8h.html" target="_top" xlink:title=" ">
<polygon fill="white" stroke="#666666" points="1620,-91.38 1490,-91.38 1490,-72.12 1620,-72.12 1620,-91.38"/>
<text text-anchor="middle" x="1555" y="-77.88" font-family="Helvetica,sans-Serif" font-size="10.00">Cpl/TShell/Cmd/Threads.h</text>
</a>
</g>
</g>
<!-- Node2&#45;&gt;Node15 -->
<g id="edge14_Node000002_Node000015" class="edge">
<title>Node2&#45;&gt;Node15</title>
<g id="a_edge14_Node000002_Node000015"><a xlink:title=" ">
<path fill="none" stroke="#63b8ff" d="M1605.75,-125.44C1592.86,-114.59 1576.36,-100.71 1565.73,-91.78"/>
<polygon fill="#63b8ff" stroke="#63b8ff" points="1603.3,-127.95 1613.21,-131.71 1607.81,-122.59 1603.3,-127.95"/>
</a>
</g>
</g>
<!-- Node18 -->
<g id="Node000018" class="node">
<title>Node18</title>
<g id="a_Node000018"><a xlink:href="_tick_8h.html" target="_top" xlink:title=" ">
<polygon fill="white" stroke="#666666" points="1751.75,-91.38 1638.25,-91.38 1638.25,-72.12 1751.75,-72.12 1751.75,-91.38"/>
<text text-anchor="middle" x="1695" y="-77.88" font-family="Helvetica,sans-Serif" font-size="10.00">Cpl/TShell/Cmd/Tick.h</text>
</a>
</g>
</g>
<!-- Node2&#45;&gt;Node18 -->
<g id="edge17_Node000002_Node000018" class="edge">
<title>Node2&#45;&gt;Node18</title>
<g id="a_edge17_Node000002_Node000018"><a xlink:title=" ">
<path fill="none" stroke="#63b8ff" d="M1644.25,-125.44C1657.14,-114.59 1673.64,-100.71 1684.27,-91.78"/>
<polygon fill="#63b8ff" stroke="#63b8ff" points="1642.19,-122.59 1636.79,-131.71 1646.7,-127.95 1642.19,-122.59"/>
</a>
</g>
</g>
<!-- Node19 -->
<g id="Node000019" class="node">
<title>Node19</title>
<g id="a_Node000019"><a xlink:href="_t_shell_2_cmd_2_trace_8h.html" target="_top" xlink:title=" ">
<polygon fill="white" stroke="#666666" points="1889.75,-91.38 1770.25,-91.38 1770.25,-72.12 1889.75,-72.12 1889.75,-91.38"/>
<text text-anchor="middle" x="1830" y="-77.88" font-family="Helvetica,sans-Serif" font-size="10.00">Cpl/TShell/Cmd/Trace.h</text>
</a>
</g>
</g>
<!-- Node2&#45;&gt;Node19 -->
<g id="edge18_Node000002_Node000019" class="edge">
<title>Node2&#45;&gt;Node19</title>
<g id="a_edge18_Node000002_Node000019"><a xlink:title=" ">
<path fill="none" stroke="#63b8ff" d="M1667.56,-129.4C1706.53,-118.21 1763.31,-101.9 1798.38,-91.83"/>
<polygon fill="#63b8ff" stroke="#63b8ff" points="1666.68,-126.01 1658.04,-132.14 1668.61,-132.74 1666.68,-126.01"/>
</a>
</g>
</g>
<!-- Node20 -->
<g id="Node000020" class="node">
<title>Node20</title>
<g id="a_Node000020"><a xlink:href="_user_8h.html" target="_top" xlink:title=" ">
<polygon fill="white" stroke="#666666" points="2023.88,-91.38 1908.12,-91.38 1908.12,-72.12 2023.88,-72.12 2023.88,-91.38"/>
<text text-anchor="middle" x="1966" y="-77.88" font-family="Helvetica,sans-Serif" font-size="10.00">Cpl/TShell/Cmd/User.h</text>
</a>
</g>
</g>
<!-- Node2&#45;&gt;Node20 -->
<g id="edge19_Node000002_Node000020" class="edge">
<title>Node2&#45;&gt;Node20</title>
<g id="a_edge19_Node000002_Node000020"><a xlink:title=" ">
<path fill="none" stroke="#63b8ff" d="M1697.19,-130.84C1752.54,-122.33 1830.75,-109.81 1899,-97 1907.42,-95.42 1916.4,-93.6 1924.96,-91.8"/>
<polygon fill="#63b8ff" stroke="#63b8ff" points="1696.94,-127.34 1687.59,-132.31 1698,-134.25 1696.94,-127.34"/>
</a>
</g>
</g>
<!-- Node21 -->
<g id="Node000021" class="node">
<title>Node21</title>
<g id="a_Node000021"><a xlink:href="_wait_8h.html" target="_top" xlink:title=" ">
<polygon fill="white" stroke="#666666" points="2156.12,-91.38 2041.88,-91.38 2041.88,-72.12 2156.12,-72.12 2156.12,-91.38"/>
<text text-anchor="middle" x="2099" y="-77.88" font-family="Helvetica,sans-Serif" font-size="10.00">Cpl/TShell/Cmd/Wait.h</text>
</a>
</g>
</g>
<!-- Node2&#45;&gt;Node21 -->
<g id="edge20_Node000002_Node000021" class="edge">
<title>Node2&#45;&gt;Node21</title>
<g id="a_edge20_Node000002_Node000021"><a xlink:title=" ">
<path fill="none" stroke="#63b8ff" d="M1706.28,-135.23C1788.87,-128.16 1920.31,-115.28 2033,-97 2041.79,-95.57 2051.18,-93.74 2060.04,-91.86"/>
<polygon fill="#63b8ff" stroke="#63b8ff" points="1706.14,-131.73 1696.47,-136.07 1706.73,-138.71 1706.14,-131.73"/>
</a>
</g>
</g>
<!-- Node22 -->
<g id="Node000022" class="node">
<title>Node22</title>
<g id="a_Node000022"><a xlink:href="_t_shell_2_random_8h.html" target="_top" xlink:title=" ">
<polygon fill="white" stroke="#666666" points="2277.5,-97 2174.5,-97 2174.5,-66.5 2277.5,-66.5 2277.5,-97"/>
<text text-anchor="start" x="2182.5" y="-83.5" font-family="Helvetica,sans-Serif" font-size="10.00">Driver/Crypto/TShell</text>
<text text-anchor="middle" x="2226" y="-72.25" font-family="Helvetica,sans-Serif" font-size="10.00">/Random.h</text>
</a>
</g>
</g>
<!-- Node2&#45;&gt;Node22 -->
<g id="edge21_Node000002_Node000022" class="edge">
<title>Node2&#45;&gt;Node22</title>
<g id="a_edge21_Node000002_Node000022"><a xlink:title=" ">
<path fill="none" stroke="#63b8ff" d="M1706.11,-138.64C1812.14,-133.89 2003.39,-122.41 2165,-97 2168.01,-96.53 2171.09,-95.99 2174.19,-95.4"/>
<polygon fill="#63b8ff" stroke="#63b8ff" points="1706.21,-135.13 1696.37,-139.07 1706.52,-142.13 1706.21,-135.13"/>
</a>
</g>
</g>
<!-- Node23 -->
<g id="Node000023" class="node">
<title>Node23</title>
<g id="a_Node000023"><a xlink:href="_in_out_cmd_8h.html" target="_top" xlink:title=" ">
<polygon fill="white" stroke="#666666" points="2388.62,-97 2295.38,-97 2295.38,-66.5 2388.62,-66.5 2388.62,-97"/>
<text text-anchor="start" x="2303.38" y="-83.5" font-family="Helvetica,sans-Serif" font-size="10.00">Driver/DIO/_tshell</text>
<text text-anchor="middle" x="2342" y="-72.25" font-family="Helvetica,sans-Serif" font-size="10.00">/InOutCmd.h</text>
</a>
</g>
</g>
<!-- Node2&#45;&gt;Node23 -->
<g id="edge22_Node000002_Node000023" class="edge">
<title>Node2&#45;&gt;Node23</title>
<g id="a_edge22_Node000002_Node000023"><a xlink:title=" ">
<path fill="none" stroke="#63b8ff" d="M1705.95,-141.01C1831.26,-138.96 2079.42,-130.59 2287,-97 2289.63,-96.57 2292.32,-96.08 2295.02,-95.54"/>
<polygon fill="#63b8ff" stroke="#63b8ff" points="1706.04,-137.51 1696.09,-141.16 1706.14,-144.5 1706.04,-137.51"/>
</a>
</g>
</g>
<!-- Node24 -->
<g id="Node000024" class="node">
<title>Node24</title>
<g id="a_Node000024"><a xlink:href="_driver_2_n_v_2__tshell_2_cmd_8h.html" target="_top" xlink:title=" ">
<polygon fill="white" stroke="#666666" points="2527.5,-91.38 2406.5,-91.38 2406.5,-72.12 2527.5,-72.12 2527.5,-91.38"/>
<text text-anchor="middle" x="2467" y="-77.88" font-family="Helvetica,sans-Serif" font-size="10.00">Driver/NV/_tshell/Cmd.h</text>
</a>
</g>
</g>
<!-- Node2&#45;&gt;Node24 -->
<g id="edge23_Node000002_Node000024" class="edge">
<title>Node2&#45;&gt;Node24</title>
<g id="a_edge23_Node000002_Node000024"><a xlink:title=" ">
<path fill="none" stroke="#63b8ff" d="M1705.99,-140.83C1847.12,-138.58 2147.07,-129.98 2398,-97 2407.82,-95.71 2418.34,-93.81 2428.12,-91.81"/>
<polygon fill="#63b8ff" stroke="#63b8ff" points="1706.33,-137.33 1696.39,-140.98 1706.44,-144.32 1706.33,-137.33"/>
</a>
</g>
</g>
<!-- Node25 -->
<g id="Node000025" class="node">
<title>Node25</title>
<g id="a_Node000025"><a xlink:href="_driver_2_r_h_temp_2__tshell_2_cmd_8h.html" target="_top" xlink:title=" ">
<polygon fill="white" stroke="#666666" points="2660.5,-97 2545.5,-97 2545.5,-66.5 2660.5,-66.5 2660.5,-97"/>
<text text-anchor="start" x="2553.5" y="-83.5" font-family="Helvetica,sans-Serif" font-size="10.00">Driver/RHTemp/_tshell</text>
<text text-anchor="middle" x="2603" y="-72.25" font-family="Helvetica,sans-Serif" font-size="10.00">/Cmd.h</text>
</a>
</g>
</g>
<!-- Node2&#45;&gt;Node25 -->
<g id="edge24_Node000002_Node000025" class="edge">
<title>Node2&#45;&gt;Node25</title>
<g id="a_edge24_Node000002_Node000025"><a xlink:title=" ">
<path fill="none" stroke="#63b8ff" d="M1705.99,-142.1C1865.68,-142.05 2232.14,-137.09 2537,-97 2539.67,-96.65 2542.4,-96.25 2545.15,-95.8"/>
<polygon fill="#63b8ff" stroke="#63b8ff" points="1706.37,-138.6 1696.37,-142.09 1706.37,-145.6 1706.37,-138.6"/>
</a>
</g>
</g>
<!-- Node26 -->
<g id="Node000026" class="node">
<title>Node26</title>
<g id="a_Node000026"><a xlink:href="_wifi_8h.html" target="_top" xlink:title=" ">
<polygon fill="white" stroke="#666666" points="2773,-97 2679,-97 2679,-66.5 2773,-66.5 2773,-97"/>
<text text-anchor="start" x="2687" y="-83.5" font-family="Helvetica,sans-Serif" font-size="10.00">Driver/Wifi/Station</text>
<text text-anchor="middle" x="2726" y="-72.25" font-family="Helvetica,sans-Serif" font-size="10.00">/TShell/Wifi.h</text>
</a>
</g>
</g>
<!-- Node2&#45;&gt;Node26 -->
<g id="edge25_Node000002_Node000026" class="edge">
<title>Node2&#45;&gt;Node26</title>
<g id="a_edge25_Node000002_Node000026"><a xlink:title=" ">
<path fill="none" stroke="#63b8ff" d="M1706.07,-140.33C1917.91,-136.59 2484.44,-124.27 2670,-97 2672.88,-96.58 2675.82,-96.07 2678.78,-95.49"/>
<polygon fill="#63b8ff" stroke="#63b8ff" points="1706.19,-136.82 1696.25,-140.5 1706.31,-143.82 1706.19,-136.82"/>
</a>
</g>
</g>
<!-- Node27 -->
<g id="Node000027" class="node">
<title>Node27</title>
<g id="a_Node000027"><a xlink:href="_hw_safety_8h.html" target="_top" xlink:title=" ">
<polygon fill="white" stroke="#666666" points="2910.75,-91.38 2791.25,-91.38 2791.25,-72.12 2910.75,-72.12 2910.75,-91.38"/>
<text text-anchor="middle" x="2851" y="-77.88" font-family="Helvetica,sans-Serif" font-size="10.00">Eros/TShell/HwSafety.h</text>
</a>
</g>
</g>
<!-- Node2&#45;&gt;Node27 -->
<g id="edge26_Node000002_Node000027" class="edge">
<title>Node2&#45;&gt;Node27</title>
<g id="a_edge26_Node000002_Node000027"><a xlink:title=" ">
<path fill="none" stroke="#63b8ff" d="M1706.22,-140.24C1933.57,-136.08 2573.36,-122.39 2782,-97 2791.96,-95.79 2802.61,-93.89 2812.5,-91.87"/>
<polygon fill="#63b8ff" stroke="#63b8ff" points="1706.18,-136.74 1696.25,-140.42 1706.31,-143.74 1706.18,-136.74"/>
</a>
</g>
</g>
<!-- Node28 -->
<g id="Node000028" class="node">
<title>Node28</title>
<g id="a_Node000028"><a xlink:href="_eros_2_t_shell_2_pwm_8h.html" target="_top" xlink:title=" ">
<polygon fill="white" stroke="#666666" points="3027.62,-91.38 2928.38,-91.38 2928.38,-72.12 3027.62,-72.12 3027.62,-91.38"/>
<text text-anchor="middle" x="2978" y="-77.88" font-family="Helvetica,sans-Serif" font-size="10.00">Eros/TShell/Pwm.h</text>
</a>
</g>
</g>
<!-- Node2&#45;&gt;Node28 -->
<g id="edge27_Node000002_Node000028" class="edge">
<title>Node2&#45;&gt;Node28</title>
<g id="a_edge27_Node000002_Node000028"><a xlink:title=" ">
<path fill="none" stroke="#63b8ff" d="M1706.08,-141.02C1951.49,-138.84 2683.93,-129.71 2920,-97 2928.52,-95.82 2937.62,-93.91 2946.02,-91.86"/>
<polygon fill="#63b8ff" stroke="#63b8ff" points="1706.25,-137.52 1696.28,-141.11 1706.31,-144.52 1706.25,-137.52"/>
</a>
</g>
</g>
<!-- Node29 -->
<g id="Node000029" class="node">
<title>Node29</title>
<g id="a_Node000029"><a xlink:href="_rgb_8h.html" target="_top" xlink:title=" ">
<polygon fill="white" stroke="#666666" points="3140,-91.38 3046,-91.38 3046,-72.12 3140,-72.12 3140,-91.38"/>
<text text-anchor="middle" x="3093" y="-77.88" font-family="Helvetica,sans-Serif" font-size="10.00">Eros/TShell/Rgb.h</text>
</a>
</g>
</g>
<!-- Node2&#45;&gt;Node29 -->
<g id="edge28_Node000002_Node000029" class="edge">
<title>Node2&#45;&gt;Node29</title>
<g id="a_edge28_Node000002_Node000029"><a xlink:title=" ">
<path fill="none" stroke="#63b8ff" d="M1706.22,-141.38C1966.4,-140.22 2777.37,-133.69 3037,-97 3045.34,-95.82 3054.24,-93.88 3062.43,-91.81"/>
<polygon fill="#63b8ff" stroke="#63b8ff" points="1706.48,-137.88 1696.49,-141.42 1706.51,-144.88 1706.48,-137.88"/>
</a>
</g>
</g>
<!-- Node16 -->
<g id="Node000016" class="node">
<title>Node16</title>
<g id="a_Node000016"><a xlink:href="_free_r_t_o_s_2_threads_8h.html" target="_top" xlink:title=" ">
<polygon fill="white" stroke="#666666" points="1550.88,-30.5 1417.12,-30.5 1417.12,0 1550.88,0 1550.88,-30.5"/>
<text text-anchor="start" x="1425.12" y="-17" font-family="Helvetica,sans-Serif" font-size="10.00">Cpl/TShell/Cmd/FreeRTOS</text>
<text text-anchor="middle" x="1484" y="-5.75" font-family="Helvetica,sans-Serif" font-size="10.00">/Threads.h</text>
</a>
</g>
</g>
<!-- Node15&#45;&gt;Node16 -->
<g id="edge15_Node000015_Node000016" class="edge">
<title>Node15&#45;&gt;Node16</title>
<g id="a_edge15_Node000015_Node000016"><a xlink:title=" ">
<path fill="none" stroke="#63b8ff" d="M1536.82,-64.24C1525.47,-53.92 1510.99,-40.77 1500.06,-30.84"/>
<polygon fill="#63b8ff" stroke="#63b8ff" points="1534.25,-66.63 1544.01,-70.76 1538.96,-61.45 1534.25,-66.63"/>
</a>
</g>
</g>
<!-- Node17 -->
<g id="Node000017" class="node">
<title>Node17</title>
<g id="a_Node000017"><a xlink:href="_win32_2_threads_8h.html" target="_top" xlink:title=" ">
<polygon fill="white" stroke="#666666" points="1683.12,-30.5 1568.88,-30.5 1568.88,0 1683.12,0 1683.12,-30.5"/>
<text text-anchor="start" x="1576.88" y="-17" font-family="Helvetica,sans-Serif" font-size="10.00">Cpl/TShell/Cmd/Win32</text>
<text text-anchor="middle" x="1626" y="-5.75" font-family="Helvetica,sans-Serif" font-size="10.00">/Threads.h</text>
</a>
</g>
</g>
<!-- Node15&#45;&gt;Node17 -->
<g id="edge16_Node000015_Node000017" class="edge">
<title>Node15&#45;&gt;Node17</title>
<g id="a_edge16_Node000015_Node000017"><a xlink:title=" ">
<path fill="none" stroke="#63b8ff" d="M1573.18,-64.24C1584.53,-53.92 1599.01,-40.77 1609.94,-30.84"/>
<polygon fill="#63b8ff" stroke="#63b8ff" points="1571.04,-61.45 1565.99,-70.76 1575.75,-66.63 1571.04,-61.45"/>
</a>
</g>
</g>
<!-- Node31 -->
<g id="Node000031" class="node">
<title>Node31</title>
<g id="a_Node000031"><a xlink:href="_cpl_2_t_shell_2_maker_8h.html" target="_top" xlink:title=" ">
<polygon fill="white" stroke="#666666" points="3256.25,-91.38 3157.75,-91.38 3157.75,-72.12 3256.25,-72.12 3256.25,-91.38"/>
<text text-anchor="middle" x="3207" y="-77.88" font-family="Helvetica,sans-Serif" font-size="10.00">Cpl/TShell/Maker.h</text>
</a>
</g>
</g>
<!-- Node30&#45;&gt;Node31 -->
<g id="edge30_Node000030_Node000031" class="edge">
<title>Node30&#45;&gt;Node31</title>
<g id="a_edge30_Node000030_Node000031"><a xlink:title=" ">
<path fill="none" stroke="#63b8ff" d="M3207,-121.2C3207,-111.17 3207,-99.58 3207,-91.78"/>
<polygon fill="#63b8ff" stroke="#63b8ff" points="3203.5,-121.17 3207,-131.17 3210.5,-121.17 3203.5,-121.17"/>
</a>
</g>
</g>
<!-- Node32 -->
<g id="Node000032" class="node">
<title>Node32</title>
<g id="a_Node000032"><a xlink:href="_polled_processor_8h.html" target="_top" xlink:title=" ">
<polygon fill="white" stroke="#666666" points="3417.38,-91.38 3274.62,-91.38 3274.62,-72.12 3417.38,-72.12 3417.38,-91.38"/>
<text text-anchor="middle" x="3346" y="-77.88" font-family="Helvetica,sans-Serif" font-size="10.00">Cpl/TShell/PolledProcessor.h</text>
</a>
</g>
</g>
<!-- Node30&#45;&gt;Node32 -->
<g id="edge31_Node000030_Node000032" class="edge">
<title>Node30&#45;&gt;Node32</title>
<g id="a_edge31_Node000030_Node000032"><a xlink:title=" ">
<path fill="none" stroke="#63b8ff" d="M3239.01,-128.07C3265.35,-116.91 3301.95,-101.41 3324.79,-91.73"/>
<polygon fill="#63b8ff" stroke="#63b8ff" points="3237.65,-124.84 3229.81,-131.96 3240.38,-131.29 3237.65,-124.84"/>
</a>
</g>
</g>
<!-- Node33 -->
<g id="Node000033" class="node">
<title>Node33</title>
<g id="a_Node000033"><a xlink:href="_polled_maker_8h.html" target="_top" xlink:title=" ">
<polygon fill="white" stroke="#666666" points="3408.75,-24.88 3283.25,-24.88 3283.25,-5.63 3408.75,-5.63 3408.75,-24.88"/>
<text text-anchor="middle" x="3346" y="-11.38" font-family="Helvetica,sans-Serif" font-size="10.00">Cpl/TShell/PolledMaker.h</text>
</a>
</g>
</g>
<!-- Node32&#45;&gt;Node33 -->
<g id="edge32_Node000032_Node000033" class="edge">
<title>Node32&#45;&gt;Node33</title>
<g id="a_edge32_Node000032_Node000033"><a xlink:title=" ">
<path fill="none" stroke="#63b8ff" d="M3346,-60.27C3346,-48.44 3346,-34.16 3346,-25.14"/>
<polygon fill="#63b8ff" stroke="#63b8ff" points="3342.5,-60.27 3346,-70.27 3349.5,-60.27 3342.5,-60.27"/>
</a>
</g>
</g>
</g>
</svg>
