<?xml version="1.0" encoding="UTF-8" standalone="no"?>
<!DOCTYPE svg PUBLIC "-//W3C//DTD SVG 1.1//EN"
 "http://www.w3.org/Graphics/SVG/1.1/DTD/svg11.dtd">
<!-- Generated by graphviz version 2.43.0 (0)
 -->
<!-- Title: Cpl/TShell/Context_.h Pages: 1 -->
<svg width="3700pt" height="214pt"
 viewBox="0.00 0.00 3700.00 214.00" xmlns="http://www.w3.org/2000/svg" xmlns:xlink="http://www.w3.org/1999/xlink">
<g id="graph0" class="graph" transform="scale(1 1) rotate(0) translate(4 210)">
<title>Cpl/TShell/Context_.h</title>
<!-- Node1 -->
<g id="Node000001" class="node">
<title>Node1</title>
<g id="a_Node000001"><a xlink:title=" ">
<polygon fill="#999999" stroke="#666666" points="2635.5,-206 2514.5,-206 2514.5,-187 2635.5,-187 2635.5,-206"/>
<text text-anchor="middle" x="2575" y="-194" font-family="Helvetica,sans-Serif" font-size="10.00">Cpl/TShell/Context_.h</text>
</a>
</g>
</g>
<!-- Node2 -->
<g id="Node000002" class="node">
<title>Node2</title>
<g id="a_Node000002"><a xlink:href="_cmd_2_command_8h.html" target="_top" xlink:title=" ">
<polygon fill="white" stroke="#666666" points="1836.5,-151 1683.5,-151 1683.5,-132 1836.5,-132 1836.5,-151"/>
<text text-anchor="middle" x="1760" y="-139" font-family="Helvetica,sans-Serif" font-size="10.00">Cpl/TShell/Cmd/Command.h</text>
</a>
</g>
</g>
<!-- Node1&#45;&gt;Node2 -->
<g id="edge1_Node000001_Node000002" class="edge">
<title>Node1&#45;&gt;Node2</title>
<g id="a_edge1_Node000001_Node000002"><a xlink:title=" ">
<path fill="none" stroke="#63b8ff" d="M2504.24,-190.9C2351.96,-181 1994.24,-157.73 1836.74,-147.49"/>
<polygon fill="#63b8ff" stroke="#63b8ff" points="2504.2,-194.4 2514.41,-191.56 2504.66,-187.42 2504.2,-194.4"/>
</a>
</g>
</g>
<!-- Node30 -->
<g id="Node000030" class="node">
<title>Node30</title>
<g id="a_Node000030"><a xlink:href="_processor_8h.html" target="_top" xlink:title=" ">
<polygon fill="white" stroke="#666666" points="3528,-151 3404,-151 3404,-132 3528,-132 3528,-151"/>
<text text-anchor="middle" x="3466" y="-139" font-family="Helvetica,sans-Serif" font-size="10.00">Cpl/TShell/Processor.h</text>
</a>
</g>
</g>
<!-- Node1&#45;&gt;Node30 -->
<g id="edge29_Node000001_Node000030" class="edge">
<title>Node1&#45;&gt;Node30</title>
<g id="a_edge29_Node000001_Node000030"><a xlink:title=" ">
<path fill="none" stroke="#63b8ff" d="M2645.61,-191.3C2815.2,-181.21 3243.34,-155.74 3403.9,-146.19"/>
<polygon fill="#63b8ff" stroke="#63b8ff" points="2645.32,-187.81 2635.54,-191.9 2645.73,-194.8 2645.32,-187.81"/>
</a>
</g>
</g>
<!-- Node3 -->
<g id="Node000003" class="node">
<title>Node3</title>
<g id="a_Node000003"><a xlink:href="_ajax_2_heating_2_simulated_2_cmd_8h.html" target="_top" xlink:title=" ">
<polygon fill="white" stroke="#666666" points="132,-96 0,-96 0,-66 132,-66 132,-96"/>
<text text-anchor="start" x="8" y="-84" font-family="Helvetica,sans-Serif" font-size="10.00">Ajax/Heating/Simulated</text>
<text text-anchor="middle" x="66" y="-73" font-family="Helvetica,sans-Serif" font-size="10.00">/Cmd.h</text>
</a>
</g>
</g>
<!-- Node2&#45;&gt;Node3 -->
<g id="edge2_Node000002_Node000003" class="edge">
<title>Node2&#45;&gt;Node3</title>
<g id="a_edge2_Node000002_Node000003"><a xlink:title=" ">
<path fill="none" stroke="#63b8ff" d="M1673.16,-139.91C1382.03,-137.66 442.02,-128.03 141,-96 138.1,-95.69 135.15,-95.33 132.17,-94.93"/>
<polygon fill="#63b8ff" stroke="#63b8ff" points="1673.21,-143.41 1683.24,-139.99 1673.27,-136.41 1673.21,-143.41"/>
</a>
</g>
</g>
<!-- Node4 -->
<g id="Node000004" class="node">
<title>Node4</title>
<g id="a_Node000004"><a xlink:href="_provision_8h.html" target="_top" xlink:title=" ">
<polygon fill="white" stroke="#666666" points="278,-90.5 150,-90.5 150,-71.5 278,-71.5 278,-90.5"/>
<text text-anchor="middle" x="214" y="-78.5" font-family="Helvetica,sans-Serif" font-size="10.00">Ajax/TShell/Provision.h</text>
</a>
</g>
</g>
<!-- Node2&#45;&gt;Node4 -->
<g id="edge3_Node000002_Node000004" class="edge">
<title>Node2&#45;&gt;Node4</title>
<g id="a_edge3_Node000002_Node000004"><a xlink:title=" ">
<path fill="none" stroke="#63b8ff" d="M1673.2,-139.69C1399.74,-136.87 558.16,-125.9 287,-96 275.71,-94.76 263.56,-92.71 252.47,-90.57"/>
<polygon fill="#63b8ff" stroke="#63b8ff" points="1673.43,-143.2 1683.47,-139.8 1673.5,-136.2 1673.43,-143.2"/>
</a>
</g>
</g>
<!-- Node5 -->
<g id="Node000005" class="node">
<title>Node5</title>
<g id="a_Node000005"><a xlink:href="_state_8h.html" target="_top" xlink:title=" ">
<polygon fill="white" stroke="#666666" points="405.5,-90.5 296.5,-90.5 296.5,-71.5 405.5,-71.5 405.5,-90.5"/>
<text text-anchor="middle" x="351" y="-78.5" font-family="Helvetica,sans-Serif" font-size="10.00">Ajax/TShell/State.h</text>
</a>
</g>
</g>
<!-- Node2&#45;&gt;Node5 -->
<g id="edge4_Node000002_Node000005" class="edge">
<title>Node2&#45;&gt;Node5</title>
<g id="a_edge4_Node000002_Node000005"><a xlink:title=" ">
<path fill="none" stroke="#63b8ff" d="M1673.26,-139.7C1415.97,-136.98 659.79,-126.56 415,-96 405.07,-94.76 394.4,-92.72 384.68,-90.57"/>
<polygon fill="#63b8ff" stroke="#63b8ff" points="1673.27,-143.2 1683.3,-139.8 1673.34,-136.2 1673.27,-143.2"/>
</a>
</g>
</g>
<!-- Node6 -->
<g id="Node000006" class="node">
<title>Node6</title>
<g id="a_Node000006"><a xlink:href="_ui_8h.html" target="_top" xlink:title=" ">
<polygon fill="white" stroke="#666666" points="518,-90.5 424,-90.5 424,-71.5 518,-71.5 518,-90.5"/>
<text text-anchor="middle" x="471" y="-78.5" font-family="Helvetica,sans-Serif" font-size="10.00">Ajax/TShell/Ui.h</text>
</a>
</g>
</g>
<!-- Node2&#45;&gt;Node6 -->
<g id="edge5_Node000002_Node000006" class="edge">
<title>Node2&#45;&gt;Node6</title>
<g id="a_edge5_Node000002_Node000006"><a xlink:title=" ">
<path fill="none" stroke="#63b8ff" d="M1672.98,-139.72C1430.19,-137.17 748.63,-127.35 527,-96 518.17,-94.75 508.71,-92.68 500.13,-90.51"/>
<polygon fill="#63b8ff" stroke="#63b8ff" points="1673.14,-143.22 1683.17,-139.83 1673.21,-136.22 1673.14,-143.22"/>
</a>
</g>
</g>
<!-- Node7 -->
<g id="Node000007" class="node">
<title>Node7</title>
<g id="a_Node000007"><a xlink:href="_dm_8h.html" target="_top" xlink:title=" ">
<polygon fill="white" stroke="#666666" points="651.5,-90.5 536.5,-90.5 536.5,-71.5 651.5,-71.5 651.5,-90.5"/>
<text text-anchor="middle" x="594" y="-78.5" font-family="Helvetica,sans-Serif" font-size="10.00">Cpl/Dm/TShell/Dm.h</text>
</a>
</g>
</g>
<!-- Node2&#45;&gt;Node7 -->
<g id="edge6_Node000002_Node000007" class="edge">
<title>Node2&#45;&gt;Node7</title>
<g id="a_edge6_Node000002_Node000007"><a xlink:title=" ">
<path fill="none" stroke="#63b8ff" d="M1673.13,-138.88C1449.05,-134.39 855.41,-120.5 660,-96 649.77,-94.72 638.78,-92.66 628.75,-90.52"/>
<polygon fill="#63b8ff" stroke="#63b8ff" points="1673.13,-142.38 1683.2,-139.08 1673.27,-135.38 1673.13,-142.38"/>
</a>
</g>
</g>
<!-- Node8 -->
<g id="Node000008" class="node">
<title>Node8</title>
<g id="a_Node000008"><a xlink:href="_fs_8h.html" target="_top" xlink:title=" ">
<polygon fill="white" stroke="#666666" points="770.5,-96 669.5,-96 669.5,-66 770.5,-66 770.5,-96"/>
<text text-anchor="start" x="677.5" y="-84" font-family="Helvetica,sans-Serif" font-size="10.00">Cpl/Io/File/Littlefs</text>
<text text-anchor="middle" x="720" y="-73" font-family="Helvetica,sans-Serif" font-size="10.00">/TShell/Fs.h</text>
</a>
</g>
</g>
<!-- Node2&#45;&gt;Node8 -->
<g id="edge7_Node000002_Node000008" class="edge">
<title>Node2&#45;&gt;Node8</title>
<g id="a_edge7_Node000002_Node000008"><a xlink:title=" ">
<path fill="none" stroke="#63b8ff" d="M1673.15,-138.65C1466.55,-133.91 950.33,-120 779,-96 776.29,-95.62 773.52,-95.17 770.73,-94.68"/>
<polygon fill="#63b8ff" stroke="#63b8ff" points="1673.27,-142.15 1683.34,-138.88 1673.43,-135.16 1673.27,-142.15"/>
</a>
</g>
</g>
<!-- Node9 -->
<g id="Node000009" class="node">
<title>Node9</title>
<g id="a_Node000009"><a xlink:href="_log_8h.html" target="_top" xlink:title=" ">
<polygon fill="white" stroke="#666666" points="895.5,-96 788.5,-96 788.5,-66 895.5,-66 895.5,-96"/>
<text text-anchor="start" x="796.5" y="-84" font-family="Helvetica,sans-Serif" font-size="10.00">Cpl/Logging/TShell</text>
<text text-anchor="middle" x="842" y="-73" font-family="Helvetica,sans-Serif" font-size="10.00">/Log.h</text>
</a>
</g>
</g>
<!-- Node2&#45;&gt;Node9 -->
<g id="edge8_Node000002_Node000009" class="edge">
<title>Node2&#45;&gt;Node9</title>
<g id="a_edge8_Node000002_Node000009"><a xlink:title=" ">
<path fill="none" stroke="#63b8ff" d="M1672.84,-140.74C1517.7,-140.11 1183.76,-133.96 905,-96 901.89,-95.58 898.71,-95.08 895.51,-94.53"/>
<polygon fill="#63b8ff" stroke="#63b8ff" points="1673.24,-144.24 1683.25,-140.78 1673.26,-137.24 1673.24,-144.24"/>
</a>
</g>
</g>
<!-- Node10 -->
<g id="Node000010" class="node">
<title>Node10</title>
<g id="a_Node000010"><a xlink:href="_cpl_2_m_app_2_cmd_8h.html" target="_top" xlink:title=" ">
<polygon fill="white" stroke="#666666" points="1012,-90.5 914,-90.5 914,-71.5 1012,-71.5 1012,-90.5"/>
<text text-anchor="middle" x="963" y="-78.5" font-family="Helvetica,sans-Serif" font-size="10.00">Cpl/MApp/Cmd.h</text>
</a>
</g>
</g>
<!-- Node2&#45;&gt;Node10 -->
<g id="edge9_Node000002_Node000010" class="edge">
<title>Node2&#45;&gt;Node10</title>
<g id="a_edge9_Node000002_Node000010"><a xlink:title=" ">
<path fill="none" stroke="#63b8ff" d="M1673.34,-140.23C1534.76,-138.68 1255.07,-131.02 1021,-96 1012.09,-94.67 1002.53,-92.62 993.8,-90.51"/>
<polygon fill="#63b8ff" stroke="#63b8ff" points="1673.44,-143.73 1683.47,-140.33 1673.51,-136.73 1673.44,-143.73"/>
</a>
</g>
</g>
<!-- Node11 -->
<g id="Node000011" class="node">
<title>Node11</title>
<g id="a_Node000011"><a xlink:href="_dbg_8h.html" target="_top" xlink:title=" ">
<polygon fill="white" stroke="#666666" points="1161.5,-96 1030.5,-96 1030.5,-66 1161.5,-66 1161.5,-96"/>
<text text-anchor="start" x="1038.5" y="-84" font-family="Helvetica,sans-Serif" font-size="10.00">Cpl/TShell/Cmd/Arduino</text>
<text text-anchor="middle" x="1096" y="-73" font-family="Helvetica,sans-Serif" font-size="10.00">/Dbg.h</text>
</a>
</g>
</g>
<!-- Node2&#45;&gt;Node11 -->
<g id="edge10_Node000002_Node000011" class="edge">
<title>Node2&#45;&gt;Node11</title>
<g id="a_edge10_Node000002_Node000011"><a xlink:title=" ">
<path fill="none" stroke="#63b8ff" d="M1673.32,-136.91C1558.19,-131.48 1348.67,-119.22 1171,-96 1167.98,-95.61 1164.9,-95.17 1161.79,-94.7"/>
<polygon fill="#63b8ff" stroke="#63b8ff" points="1673.33,-140.42 1683.48,-137.39 1673.66,-133.43 1673.33,-140.42"/>
</a>
</g>
</g>
<!-- Node12 -->
<g id="Node000012" class="node">
<title>Node12</title>
<g id="a_Node000012"><a xlink:href="_bye_8h.html" target="_top" xlink:title=" ">
<polygon fill="white" stroke="#666666" points="1302,-90.5 1180,-90.5 1180,-71.5 1302,-71.5 1302,-90.5"/>
<text text-anchor="middle" x="1241" y="-78.5" font-family="Helvetica,sans-Serif" font-size="10.00">Cpl/TShell/Cmd/Bye.h</text>
</a>
</g>
</g>
<!-- Node2&#45;&gt;Node12 -->
<g id="edge11_Node000002_Node000012" class="edge">
<title>Node2&#45;&gt;Node12</title>
<g id="a_edge11_Node000002_Node000012"><a xlink:title=" ">
<path fill="none" stroke="#63b8ff" d="M1673.22,-134.45C1582.55,-127.53 1436.33,-114.7 1311,-96 1300.95,-94.5 1290.15,-92.53 1280.12,-90.53"/>
<polygon fill="#63b8ff" stroke="#63b8ff" points="1673.21,-137.96 1683.45,-135.22 1673.74,-130.98 1673.21,-137.96"/>
</a>
</g>
</g>
<!-- Node13 -->
<g id="Node000013" class="node">
<title>Node13</title>
<g id="a_Node000013"><a xlink:href="_help_8h.html" target="_top" xlink:title=" ">
<polygon fill="white" stroke="#666666" points="1445.5,-90.5 1320.5,-90.5 1320.5,-71.5 1445.5,-71.5 1445.5,-90.5"/>
<text text-anchor="middle" x="1383" y="-78.5" font-family="Helvetica,sans-Serif" font-size="10.00">Cpl/TShell/Cmd/Help.h</text>
</a>
</g>
</g>
<!-- Node2&#45;&gt;Node13 -->
<g id="edge12_Node000002_Node000013" class="edge">
<title>Node2&#45;&gt;Node13</title>
<g id="a_edge12_Node000002_Node000013"><a xlink:title=" ">
<path fill="none" stroke="#63b8ff" d="M1684.69,-130.62C1622.65,-122.23 1532.44,-109.43 1454,-96 1444.46,-94.37 1434.24,-92.45 1424.61,-90.57"/>
<polygon fill="#63b8ff" stroke="#63b8ff" points="1684.41,-134.12 1694.78,-131.98 1685.34,-127.18 1684.41,-134.12"/>
</a>
</g>
</g>
<!-- Node14 -->
<g id="Node000014" class="node">
<title>Node14</title>
<g id="a_Node000014"><a xlink:href="_t_print_8h.html" target="_top" xlink:title=" ">
<polygon fill="white" stroke="#666666" points="1594.5,-90.5 1463.5,-90.5 1463.5,-71.5 1594.5,-71.5 1594.5,-90.5"/>
<text text-anchor="middle" x="1529" y="-78.5" font-family="Helvetica,sans-Serif" font-size="10.00">Cpl/TShell/Cmd/TPrint.h</text>
</a>
</g>
</g>
<!-- Node2&#45;&gt;Node14 -->
<g id="edge13_Node000002_Node000014" class="edge">
<title>Node2&#45;&gt;Node14</title>
<g id="a_edge13_Node000002_Node000014"><a xlink:title=" ">
<path fill="none" stroke="#63b8ff" d="M1716.71,-129.54C1672.06,-118.23 1603.37,-100.83 1562.63,-90.52"/>
<polygon fill="#63b8ff" stroke="#63b8ff" points="1715.86,-132.93 1726.41,-131.99 1717.58,-126.15 1715.86,-132.93"/>
</a>
</g>
</g>
<!-- Node15 -->
<g id="Node000015" class="node">
<title>Node15</title>
<g id="a_Node000015"><a xlink:href="_threads_8h.html" target="_top" xlink:title=" ">
<polygon fill="white" stroke="#666666" points="1755,-90.5 1613,-90.5 1613,-71.5 1755,-71.5 1755,-90.5"/>
<text text-anchor="middle" x="1684" y="-78.5" font-family="Helvetica,sans-Serif" font-size="10.00">Cpl/TShell/Cmd/Threads.h</text>
</a>
</g>
</g>
<!-- Node2&#45;&gt;Node15 -->
<g id="edge14_Node000002_Node000015" class="edge">
<title>Node2&#45;&gt;Node15</title>
<g id="a_edge14_Node000002_Node000015"><a xlink:title=" ">
<path fill="none" stroke="#63b8ff" d="M1740.56,-125.54C1726.21,-114.49 1707.18,-99.84 1695.26,-90.67"/>
<polygon fill="#63b8ff" stroke="#63b8ff" points="1738.73,-128.54 1748.79,-131.87 1743,-122.99 1738.73,-128.54"/>
</a>
</g>
</g>
<!-- Node18 -->
<g id="Node000018" class="node">
<title>Node18</title>
<g id="a_Node000018"><a xlink:href="_tick_8h.html" target="_top" xlink:title=" ">
<polygon fill="white" stroke="#666666" points="1896.5,-90.5 1773.5,-90.5 1773.5,-71.5 1896.5,-71.5 1896.5,-90.5"/>
<text text-anchor="middle" x="1835" y="-78.5" font-family="Helvetica,sans-Serif" font-size="10.00">Cpl/TShell/Cmd/Tick.h</text>
</a>
</g>
</g>
<!-- Node2&#45;&gt;Node18 -->
<g id="edge17_Node000002_Node000018" class="edge">
<title>Node2&#45;&gt;Node18</title>
<g id="a_edge17_Node000002_Node000018"><a xlink:title=" ">
<path fill="none" stroke="#63b8ff" d="M1779.18,-125.54C1793.35,-114.49 1812.13,-99.84 1823.89,-90.67"/>
<polygon fill="#63b8ff" stroke="#63b8ff" points="1776.8,-122.96 1771.07,-131.87 1781.1,-128.48 1776.8,-122.96"/>
</a>
</g>
</g>
<!-- Node19 -->
<g id="Node000019" class="node">
<title>Node19</title>
<g id="a_Node000019"><a xlink:href="_t_shell_2_cmd_2_trace_8h.html" target="_top" xlink:title=" ">
<polygon fill="white" stroke="#666666" points="2043,-90.5 1915,-90.5 1915,-71.5 2043,-71.5 2043,-90.5"/>
<text text-anchor="middle" x="1979" y="-78.5" font-family="Helvetica,sans-Serif" font-size="10.00">Cpl/TShell/Cmd/Trace.h</text>
</a>
</g>
</g>
<!-- Node2&#45;&gt;Node19 -->
<g id="edge18_Node000002_Node000019" class="edge">
<title>Node2&#45;&gt;Node19</title>
<g id="a_edge18_Node000002_Node000019"><a xlink:title=" ">
<path fill="none" stroke="#63b8ff" d="M1801.57,-129.4C1843.92,-118.08 1908.66,-100.79 1947.12,-90.52"/>
<polygon fill="#63b8ff" stroke="#63b8ff" points="1800.6,-126.03 1791.84,-131.99 1802.41,-132.79 1800.6,-126.03"/>
</a>
</g>
</g>
<!-- Node20 -->
<g id="Node000020" class="node">
<title>Node20</title>
<g id="a_Node000020"><a xlink:href="_user_8h.html" target="_top" xlink:title=" ">
<polygon fill="white" stroke="#666666" points="2186.5,-90.5 2061.5,-90.5 2061.5,-71.5 2186.5,-71.5 2186.5,-90.5"/>
<text text-anchor="middle" x="2124" y="-78.5" font-family="Helvetica,sans-Serif" font-size="10.00">Cpl/TShell/Cmd/User.h</text>
</a>
</g>
</g>
<!-- Node2&#45;&gt;Node20 -->
<g id="edge19_Node000002_Node000020" class="edge">
<title>Node2&#45;&gt;Node20</title>
<g id="a_edge19_Node000002_Node000020"><a xlink:title=" ">
<path fill="none" stroke="#63b8ff" d="M1830.79,-130.54C1890.01,-122.01 1976.65,-109.06 2052,-96 2061.66,-94.33 2072.02,-92.39 2081.79,-90.51"/>
<polygon fill="#63b8ff" stroke="#63b8ff" points="1830.2,-127.09 1820.8,-131.97 1831.19,-134.02 1830.2,-127.09"/>
</a>
</g>
</g>
<!-- Node21 -->
<g id="Node000021" class="node">
<title>Node21</title>
<g id="a_Node000021"><a xlink:href="_wait_8h.html" target="_top" xlink:title=" ">
<polygon fill="white" stroke="#666666" points="2329.5,-90.5 2204.5,-90.5 2204.5,-71.5 2329.5,-71.5 2329.5,-90.5"/>
<text text-anchor="middle" x="2267" y="-78.5" font-family="Helvetica,sans-Serif" font-size="10.00">Cpl/TShell/Cmd/Wait.h</text>
</a>
</g>
</g>
<!-- Node2&#45;&gt;Node21 -->
<g id="edge20_Node000002_Node000021" class="edge">
<title>Node2&#45;&gt;Node21</title>
<g id="a_edge20_Node000002_Node000021"><a xlink:title=" ">
<path fill="none" stroke="#63b8ff" d="M1846.89,-134.02C1935.1,-126.89 2075.47,-113.99 2196,-96 2206.19,-94.48 2217.14,-92.5 2227.31,-90.5"/>
<polygon fill="#63b8ff" stroke="#63b8ff" points="1846.35,-130.56 1836.67,-134.84 1846.91,-137.53 1846.35,-130.56"/>
</a>
</g>
</g>
<!-- Node22 -->
<g id="Node000022" class="node">
<title>Node22</title>
<g id="a_Node000022"><a xlink:href="_t_shell_2_random_8h.html" target="_top" xlink:title=" ">
<polygon fill="white" stroke="#666666" points="2462.5,-96 2347.5,-96 2347.5,-66 2462.5,-66 2462.5,-96"/>
<text text-anchor="start" x="2355.5" y="-84" font-family="Helvetica,sans-Serif" font-size="10.00">Driver/Crypto/TShell</text>
<text text-anchor="middle" x="2405" y="-73" font-family="Helvetica,sans-Serif" font-size="10.00">/Random.h</text>
</a>
</g>
</g>
<!-- Node2&#45;&gt;Node22 -->
<g id="edge21_Node000002_Node000022" class="edge">
<title>Node2&#45;&gt;Node22</title>
<g id="a_edge21_Node000002_Node000022"><a xlink:title=" ">
<path fill="none" stroke="#63b8ff" d="M1846.72,-137.42C1960.29,-132.56 2165.37,-120.98 2339,-96 2341.78,-95.6 2344.62,-95.15 2347.49,-94.67"/>
<polygon fill="#63b8ff" stroke="#63b8ff" points="1846.53,-133.92 1836.69,-137.84 1846.83,-140.91 1846.53,-133.92"/>
</a>
</g>
</g>
<!-- Node23 -->
<g id="Node000023" class="node">
<title>Node23</title>
<g id="a_Node000023"><a xlink:href="_in_out_cmd_8h.html" target="_top" xlink:title=" ">
<polygon fill="white" stroke="#666666" points="2583.5,-96 2480.5,-96 2480.5,-66 2583.5,-66 2583.5,-96"/>
<text text-anchor="start" x="2488.5" y="-84" font-family="Helvetica,sans-Serif" font-size="10.00">Driver/DIO/_tshell</text>
<text text-anchor="middle" x="2532" y="-73" font-family="Helvetica,sans-Serif" font-size="10.00">/InOutCmd.h</text>
</a>
</g>
</g>
<!-- Node2&#45;&gt;Node23 -->
<g id="edge22_Node000002_Node000023" class="edge">
<title>Node2&#45;&gt;Node23</title>
<g id="a_edge22_Node000002_Node000023"><a xlink:title=" ">
<path fill="none" stroke="#63b8ff" d="M1846.81,-139.73C1981.4,-137.49 2248.22,-128.87 2472,-96 2474.75,-95.6 2477.56,-95.13 2480.39,-94.62"/>
<polygon fill="#63b8ff" stroke="#63b8ff" points="1846.51,-136.23 1836.56,-139.89 1846.62,-143.23 1846.51,-136.23"/>
</a>
</g>
</g>
<!-- Node24 -->
<g id="Node000024" class="node">
<title>Node24</title>
<g id="a_Node000024"><a xlink:href="_driver_2_n_v_2__tshell_2_cmd_8h.html" target="_top" xlink:title=" ">
<polygon fill="white" stroke="#666666" points="2736,-90.5 2602,-90.5 2602,-71.5 2736,-71.5 2736,-90.5"/>
<text text-anchor="middle" x="2669" y="-78.5" font-family="Helvetica,sans-Serif" font-size="10.00">Driver/NV/_tshell/Cmd.h</text>
</a>
</g>
</g>
<!-- Node2&#45;&gt;Node24 -->
<g id="edge23_Node000002_Node000024" class="edge">
<title>Node2&#45;&gt;Node24</title>
<g id="a_edge23_Node000002_Node000024"><a xlink:title=" ">
<path fill="none" stroke="#63b8ff" d="M1846.85,-139.54C1998.67,-137.03 2322.01,-128.06 2593,-96 2604.46,-94.64 2616.79,-92.62 2628.13,-90.53"/>
<polygon fill="#63b8ff" stroke="#63b8ff" points="1846.6,-136.04 1836.65,-139.7 1846.71,-143.04 1846.6,-136.04"/>
</a>
</g>
</g>
<!-- Node25 -->
<g id="Node000025" class="node">
<title>Node25</title>
<g id="a_Node000025"><a xlink:href="_driver_2_r_h_temp_2__tshell_2_cmd_8h.html" target="_top" xlink:title=" ">
<polygon fill="white" stroke="#666666" points="2879.5,-96 2754.5,-96 2754.5,-66 2879.5,-66 2879.5,-96"/>
<text text-anchor="start" x="2762.5" y="-84" font-family="Helvetica,sans-Serif" font-size="10.00">Driver/RHTemp/_tshell</text>
<text text-anchor="middle" x="2817" y="-73" font-family="Helvetica,sans-Serif" font-size="10.00">/Cmd.h</text>
</a>
</g>
</g>
<!-- Node2&#45;&gt;Node25 -->
<g id="edge24_Node000002_Node000025" class="edge">
<title>Node2&#45;&gt;Node25</title>
<g id="a_edge24_Node000002_Node000025"><a xlink:title=" ">
<path fill="none" stroke="#63b8ff" d="M1846.64,-140.85C2018.57,-140.6 2414.81,-135.34 2745,-96 2748.03,-95.64 2751.13,-95.22 2754.26,-94.76"/>
<polygon fill="#63b8ff" stroke="#63b8ff" points="1846.63,-137.35 1836.63,-140.86 1846.63,-144.35 1846.63,-137.35"/>
</a>
</g>
</g>
<!-- Node26 -->
<g id="Node000026" class="node">
<title>Node26</title>
<g id="a_Node000026"><a xlink:href="_wifi_8h.html" target="_top" xlink:title=" ">
<polygon fill="white" stroke="#666666" points="3004,-96 2898,-96 2898,-66 3004,-66 3004,-96"/>
<text text-anchor="start" x="2906" y="-84" font-family="Helvetica,sans-Serif" font-size="10.00">Driver/Wifi/Station</text>
<text text-anchor="middle" x="2951" y="-73" font-family="Helvetica,sans-Serif" font-size="10.00">/TShell/Wifi.h</text>
</a>
</g>
</g>
<!-- Node2&#45;&gt;Node26 -->
<g id="edge25_Node000002_Node000026" class="edge">
<title>Node2&#45;&gt;Node26</title>
<g id="a_edge25_Node000002_Node000026"><a xlink:title=" ">
<path fill="none" stroke="#63b8ff" d="M1847.13,-139.12C2075.57,-135.19 2688,-122.43 2889,-96 2891.84,-95.63 2894.75,-95.18 2897.68,-94.69"/>
<polygon fill="#63b8ff" stroke="#63b8ff" points="1846.81,-135.63 1836.87,-139.3 1846.93,-142.63 1846.81,-135.63"/>
</a>
</g>
</g>
<!-- Node27 -->
<g id="Node000027" class="node">
<title>Node27</title>
<g id="a_Node000027"><a xlink:href="_hw_safety_8h.html" target="_top" xlink:title=" ">
<polygon fill="white" stroke="#666666" points="3150,-90.5 3022,-90.5 3022,-71.5 3150,-71.5 3150,-90.5"/>
<text text-anchor="middle" x="3086" y="-78.5" font-family="Helvetica,sans-Serif" font-size="10.00">Eros/TShell/HwSafety.h</text>
</a>
</g>
</g>
<!-- Node2&#45;&gt;Node27 -->
<g id="edge26_Node000002_Node000027" class="edge">
<title>Node2&#45;&gt;Node27</title>
<g id="a_edge26_Node000002_Node000027"><a xlink:title=" ">
<path fill="none" stroke="#63b8ff" d="M1847.04,-139.15C2092.42,-135.08 2786.57,-121.58 3013,-96 3024.28,-94.73 3036.44,-92.67 3047.53,-90.53"/>
<polygon fill="#63b8ff" stroke="#63b8ff" points="1846.69,-135.66 1836.75,-139.32 1846.81,-142.66 1846.69,-135.66"/>
</a>
</g>
</g>
<!-- Node28 -->
<g id="Node000028" class="node">
<title>Node28</title>
<g id="a_Node000028"><a xlink:href="_eros_2_t_shell_2_pwm_8h.html" target="_top" xlink:title=" ">
<polygon fill="white" stroke="#666666" points="3275.5,-90.5 3168.5,-90.5 3168.5,-71.5 3275.5,-71.5 3275.5,-90.5"/>
<text text-anchor="middle" x="3222" y="-78.5" font-family="Helvetica,sans-Serif" font-size="10.00">Eros/TShell/Pwm.h</text>
</a>
</g>
</g>
<!-- Node2&#45;&gt;Node28 -->
<g id="edge27_Node000002_Node000028" class="edge">
<title>Node2&#45;&gt;Node28</title>
<g id="a_edge27_Node000002_Node000028"><a xlink:title=" ">
<path fill="none" stroke="#63b8ff" d="M1846.97,-139.86C2111.41,-137.58 2903.38,-128.18 3159,-96 3168.89,-94.75 3179.52,-92.68 3189.18,-90.51"/>
<polygon fill="#63b8ff" stroke="#63b8ff" points="1846.63,-136.36 1836.66,-139.95 1846.69,-143.36 1846.63,-136.36"/>
</a>
</g>
</g>
<!-- Node29 -->
<g id="Node000029" class="node">
<title>Node29</title>
<g id="a_Node000029"><a xlink:href="_rgb_8h.html" target="_top" xlink:title=" ">
<polygon fill="white" stroke="#666666" points="3394.5,-90.5 3293.5,-90.5 3293.5,-71.5 3394.5,-71.5 3394.5,-90.5"/>
<text text-anchor="middle" x="3344" y="-78.5" font-family="Helvetica,sans-Serif" font-size="10.00">Eros/TShell/Rgb.h</text>
</a>
</g>
</g>
<!-- Node2&#45;&gt;Node29 -->
<g id="edge28_Node000002_Node000029" class="edge">
<title>Node2&#45;&gt;Node29</title>
<g id="a_edge28_Node000002_Node000029"><a xlink:title=" ">
<path fill="none" stroke="#63b8ff" d="M1847.06,-140.29C2127.31,-139.25 3004.05,-133.04 3285,-96 3294.29,-94.78 3304.25,-92.71 3313.29,-90.54"/>
<polygon fill="#63b8ff" stroke="#63b8ff" points="1846.93,-136.79 1836.95,-140.33 1846.96,-143.79 1846.93,-136.79"/>
</a>
</g>
</g>
<!-- Node16 -->
<g id="Node000016" class="node">
<title>Node16</title>
<g id="a_Node000016"><a xlink:href="_free_r_t_o_s_2_threads_8h.html" target="_top" xlink:title=" ">
<polygon fill="white" stroke="#666666" points="1678,-30 1538,-30 1538,0 1678,0 1678,-30"/>
<text text-anchor="start" x="1546" y="-18" font-family="Helvetica,sans-Serif" font-size="10.00">Cpl/TShell/Cmd/FreeRTOS</text>
<text text-anchor="middle" x="1608" y="-7" font-family="Helvetica,sans-Serif" font-size="10.00">/Threads.h</text>
</a>
</g>
</g>
<!-- Node15&#45;&gt;Node16 -->
<g id="edge15_Node000015_Node000016" class="edge">
<title>Node15&#45;&gt;Node16</title>
<g id="a_edge15_Node000015_Node000016"><a xlink:title=" ">
<path fill="none" stroke="#63b8ff" d="M1665.85,-64.71C1653.37,-54.21 1636.93,-40.36 1624.76,-30.12"/>
<polygon fill="#63b8ff" stroke="#63b8ff" points="1663.85,-67.6 1673.75,-71.37 1668.36,-62.25 1663.85,-67.6"/>
</a>
</g>
</g>
<!-- Node17 -->
<g id="Node000017" class="node">
<title>Node17</title>
<g id="a_Node000017"><a xlink:href="_win32_2_threads_8h.html" target="_top" xlink:title=" ">
<polygon fill="white" stroke="#666666" points="1821.5,-30 1696.5,-30 1696.5,0 1821.5,0 1821.5,-30"/>
<text text-anchor="start" x="1704.5" y="-18" font-family="Helvetica,sans-Serif" font-size="10.00">Cpl/TShell/Cmd/Win32</text>
<text text-anchor="middle" x="1759" y="-7" font-family="Helvetica,sans-Serif" font-size="10.00">/Threads.h</text>
</a>
</g>
</g>
<!-- Node15&#45;&gt;Node17 -->
<g id="edge16_Node000015_Node000017" class="edge">
<title>Node15&#45;&gt;Node17</title>
<g id="a_edge16_Node000015_Node000017"><a xlink:title=" ">
<path fill="none" stroke="#63b8ff" d="M1701.91,-64.71C1714.22,-54.21 1730.45,-40.36 1742.46,-30.12"/>
<polygon fill="#63b8ff" stroke="#63b8ff" points="1699.45,-62.22 1694.11,-71.37 1703.99,-67.54 1699.45,-62.22"/>
</a>
</g>
</g>
<!-- Node31 -->
<g id="Node000031" class="node">
<title>Node31</title>
<g id="a_Node000031"><a xlink:href="_cpl_2_t_shell_2_maker_8h.html" target="_top" xlink:title=" ">
<polygon fill="white" stroke="#666666" points="3519.5,-90.5 3412.5,-90.5 3412.5,-71.5 3519.5,-71.5 3519.5,-90.5"/>
<text text-anchor="middle" x="3466" y="-78.5" font-family="Helvetica,sans-Serif" font-size="10.00">Cpl/TShell/Maker.h</text>
</a>
</g>
</g>
<!-- Node30&#45;&gt;Node31 -->
<g id="edge30_Node000030_Node000031" class="edge">
<title>Node30&#45;&gt;Node31</title>
<g id="a_edge30_Node000030_Node000031"><a xlink:title=" ">
<path fill="none" stroke="#63b8ff" d="M3466,-121.66C3466,-111.24 3466,-98.8 3466,-90.67"/>
<polygon fill="#63b8ff" stroke="#63b8ff" points="3462.5,-121.87 3466,-131.87 3469.5,-121.87 3462.5,-121.87"/>
</a>
</g>
</g>
<!-- Node32 -->
<g id="Node000032" class="node">
<title>Node32</title>
<g id="a_Node000032"><a xlink:href="_polled_processor_8h.html" target="_top" xlink:title=" ">
<polygon fill="white" stroke="#666666" points="3692,-90.5 3538,-90.5 3538,-71.5 3692,-71.5 3692,-90.5"/>
<text text-anchor="middle" x="3615" y="-78.5" font-family="Helvetica,sans-Serif" font-size="10.00">Cpl/TShell/PolledProcessor.h</text>
</a>
</g>
</g>
<!-- Node30&#45;&gt;Node32 -->
<g id="edge31_Node000030_Node000032" class="edge">
<title>Node30&#45;&gt;Node32</title>
<g id="a_edge31_Node000030_Node000032"><a xlink:title=" ">
<path fill="none" stroke="#63b8ff" d="M3497.25,-128.23C3526.05,-116.92 3568.03,-100.44 3593.31,-90.52"/>
<polygon fill="#63b8ff" stroke="#63b8ff" points="3495.7,-125.08 3487.67,-131.99 3498.25,-131.6 3495.7,-125.08"/>
</a>
</g>
</g>
<!-- Node33 -->
<g id="Node000033" class="node">
<title>Node33</title>
<g id="a_Node000033"><a xlink:href="_polled_maker_8h.html" target="_top" xlink:title=" ">
<polygon fill="white" stroke="#666666" points="3683.5,-24.5 3546.5,-24.5 3546.5,-5.5 3683.5,-5.5 3683.5,-24.5"/>
<text text-anchor="middle" x="3615" y="-12.5" font-family="Helvetica,sans-Serif" font-size="10.00">Cpl/TShell/PolledMaker.h</text>
</a>
</g>
</g>
<!-- Node32&#45;&gt;Node33 -->
<g id="edge32_Node000032_Node000033" class="edge">
<title>Node32&#45;&gt;Node33</title>
<g id="a_edge32_Node000032_Node000033"><a xlink:title=" ">
<path fill="none" stroke="#63b8ff" d="M3615,-61.08C3615,-49.13 3615,-34.22 3615,-24.91"/>
<polygon fill="#63b8ff" stroke="#63b8ff" points="3611.5,-61.37 3615,-71.37 3618.5,-61.37 3611.5,-61.37"/>
</a>
</g>
</g>
</g>
</svg>
