<?xml version="1.0" encoding="UTF-8" standalone="no"?>
<!DOCTYPE svg PUBLIC "-//W3C//DTD SVG 1.1//EN"
 "http://www.w3.org/Graphics/SVG/1.1/DTD/svg11.dtd">
<!-- Generated by graphviz version 9.0.0 (20230911.1827)
 -->
<!-- Title: Cpl/System/Api.h Pages: 1 -->
<svg width="268pt" height="193pt"
 viewBox="0.00 0.00 267.62 193.00" xmlns="http://www.w3.org/2000/svg" xmlns:xlink="http://www.w3.org/1999/xlink">
<g id="graph0" class="graph" transform="scale(1 1) rotate(0) translate(4 189)">
<title>Cpl/System/Api.h</title>
<!-- Node1 -->
<g id="Node000001" class="node">
<title>Node1</title>
<g id="a_Node000001"><a xlink:title=" ">
<polygon fill="#999999" stroke="#666666" points="163.75,-185 72.75,-185 72.75,-165.75 163.75,-165.75 163.75,-185"/>
<text text-anchor="middle" x="118.25" y="-171.5" font-family="Helvetica,sans-Serif" font-size="10.00">Cpl/System/Api.h</text>
</a>
</g>
</g>
<!-- Node2 -->
<g id="Node000002" class="node">
<title>Node2</title>
<g id="a_Node000002"><a xlink:href="_processor_8h.html" target="_top" xlink:title=" ">
<polygon fill="white" stroke="#666666" points="176.12,-129.75 60.38,-129.75 60.38,-110.5 176.12,-110.5 176.12,-129.75"/>
<text text-anchor="middle" x="118.25" y="-116.25" font-family="Helvetica,sans-Serif" font-size="10.00">Cpl/TShell/Processor.h</text>
</a>
</g>
</g>
<!-- Node1&#45;&gt;Node2 -->
<g id="edge1_Node000001_Node000002" class="edge">
<title>Node1&#45;&gt;Node2</title>
<g id="a_edge1_Node000001_Node000002"><a xlink:title=" ">
<path fill="none" stroke="#63b8ff" d="M118.25,-154.13C118.25,-145.84 118.25,-136.67 118.25,-130.11"/>
<polygon fill="#63b8ff" stroke="#63b8ff" points="114.75,-154.07 118.25,-164.07 121.75,-154.07 114.75,-154.07"/>
</a>
</g>
</g>
<!-- Node3 -->
<g id="Node000003" class="node">
<title>Node3</title>
<g id="a_Node000003"><a xlink:href="_cpl_2_t_shell_2_maker_8h.html" target="_top" xlink:title=" ">
<polygon fill="white" stroke="#666666" points="98.5,-74.5 0,-74.5 0,-55.25 98.5,-55.25 98.5,-74.5"/>
<text text-anchor="middle" x="49.25" y="-61" font-family="Helvetica,sans-Serif" font-size="10.00">Cpl/TShell/Maker.h</text>
</a>
</g>
</g>
<!-- Node2&#45;&gt;Node3 -->
<g id="edge2_Node000002_Node000003" class="edge">
<title>Node2&#45;&gt;Node3</title>
<g id="a_edge2_Node000002_Node000003"><a xlink:title=" ">
<path fill="none" stroke="#63b8ff" d="M97.6,-103.19C85.55,-93.89 70.8,-82.51 60.78,-74.77"/>
<polygon fill="#63b8ff" stroke="#63b8ff" points="95.29,-105.83 105.35,-109.17 99.57,-100.29 95.29,-105.83"/>
</a>
</g>
</g>
<!-- Node4 -->
<g id="Node000004" class="node">
<title>Node4</title>
<g id="a_Node000004"><a xlink:href="_polled_processor_8h.html" target="_top" xlink:title=" ">
<polygon fill="white" stroke="#666666" points="259.62,-74.5 116.88,-74.5 116.88,-55.25 259.62,-55.25 259.62,-74.5"/>
<text text-anchor="middle" x="188.25" y="-61" font-family="Helvetica,sans-Serif" font-size="10.00">Cpl/TShell/PolledProcessor.h</text>
</a>
</g>
</g>
<!-- Node2&#45;&gt;Node4 -->
<g id="edge3_Node000002_Node000004" class="edge">
<title>Node2&#45;&gt;Node4</title>
<g id="a_edge3_Node000002_Node000004"><a xlink:title=" ">
<path fill="none" stroke="#63b8ff" d="M139.2,-103.19C151.42,-93.89 166.39,-82.51 176.55,-74.77"/>
<polygon fill="#63b8ff" stroke="#63b8ff" points="137.17,-100.34 131.33,-109.18 141.41,-105.91 137.17,-100.34"/>
</a>
</g>
</g>
<!-- Node5 -->
<g id="Node000005" class="node">
<title>Node5</title>
<g id="a_Node000005"><a xlink:href="_polled_maker_8h.html" target="_top" xlink:title=" ">
<polygon fill="white" stroke="#666666" points="251,-19.25 125.5,-19.25 125.5,0 251,0 251,-19.25"/>
<text text-anchor="middle" x="188.25" y="-5.75" font-family="Helvetica,sans-Serif" font-size="10.00">Cpl/TShell/PolledMaker.h</text>
</a>
</g>
</g>
<!-- Node4&#45;&gt;Node5 -->
<g id="edge4_Node000004_Node000005" class="edge">
<title>Node4&#45;&gt;Node5</title>
<g id="a_edge4_Node000004_Node000005"><a xlink:title=" ">
<path fill="none" stroke="#63b8ff" d="M188.25,-43.63C188.25,-35.34 188.25,-26.17 188.25,-19.61"/>
<polygon fill="#63b8ff" stroke="#63b8ff" points="184.75,-43.57 188.25,-53.57 191.75,-43.57 184.75,-43.57"/>
</a>
</g>
</g>
</g>
</svg>
