<?xml version="1.0" encoding="UTF-8" standalone="no"?>
<!DOCTYPE svg PUBLIC "-//W3C//DTD SVG 1.1//EN"
 "http://www.w3.org/Graphics/SVG/1.1/DTD/svg11.dtd">
<!-- Generated by graphviz version 9.0.0 (20230911.1827)
 -->
<!-- Title: Cpl/Io/File/Null.h Pages: 1 -->
<svg width="482pt" height="414pt"
 viewBox="0.00 0.00 482.00 414.00" xmlns="http://www.w3.org/2000/svg" xmlns:xlink="http://www.w3.org/1999/xlink">
<g id="graph0" class="graph" transform="scale(1 1) rotate(0) translate(4 410)">
<title>Cpl/Io/File/Null.h</title>
<!-- Node1 -->
<g id="Node000001" class="node">
<title>Node1</title>
<g id="a_Node000001"><a xlink:title=" ">
<polygon fill="#999999" stroke="#666666" points="226.25,-406 138.25,-406 138.25,-386.75 226.25,-386.75 226.25,-406"/>
<text text-anchor="middle" x="182.25" y="-392.5" font-family="Helvetica,sans-Serif" font-size="10.00">Cpl/Io/File/Null.h</text>
</a>
</g>
</g>
<!-- Node2 -->
<g id="Node000002" class="node">
<title>Node2</title>
<g id="a_Node000002"><a xlink:href="_input_output_api_8h.html" target="_top" xlink:title=" ">
<polygon fill="white" stroke="#666666" points="250.25,-350.75 114.25,-350.75 114.25,-331.5 250.25,-331.5 250.25,-350.75"/>
<text text-anchor="middle" x="182.25" y="-337.25" font-family="Helvetica,sans-Serif" font-size="10.00">Cpl/Io/File/InputOutputApi.h</text>
</a>
</g>
</g>
<!-- Node1&#45;&gt;Node2 -->
<g id="edge1_Node000001_Node000002" class="edge">
<title>Node1&#45;&gt;Node2</title>
<g id="a_edge1_Node000001_Node000002"><a xlink:title=" ">
<path fill="none" stroke="#63b8ff" d="M182.25,-386.58C182.25,-380.07 182.25,-370.92 182.25,-362.62"/>
<polygon fill="#63b8ff" stroke="#63b8ff" points="185.75,-362.62 182.25,-352.62 178.75,-362.62 185.75,-362.62"/>
</a>
</g>
</g>
<!-- Node3 -->
<g id="Node000003" class="node">
<title>Node3</title>
<g id="a_Node000003"><a xlink:href="_input_api_8h.html" target="_top" xlink:title=" ">
<polygon fill="white" stroke="#666666" points="112.62,-295.5 5.88,-295.5 5.88,-276.25 112.62,-276.25 112.62,-295.5"/>
<text text-anchor="middle" x="59.25" y="-282" font-family="Helvetica,sans-Serif" font-size="10.00">Cpl/Io/File/InputApi.h</text>
</a>
</g>
</g>
<!-- Node2&#45;&gt;Node3 -->
<g id="edge2_Node000002_Node000003" class="edge">
<title>Node2&#45;&gt;Node3</title>
<g id="a_edge2_Node000002_Node000003"><a xlink:title=" ">
<path fill="none" stroke="#63b8ff" d="M161.38,-331.09C141.95,-322.68 112.71,-310.02 90.49,-300.4"/>
<polygon fill="#63b8ff" stroke="#63b8ff" points="92.17,-297.31 81.61,-296.55 89.39,-303.74 92.17,-297.31"/>
</a>
</g>
</g>
<!-- Node19 -->
<g id="Node000019" class="node">
<title>Node19</title>
<g id="a_Node000019"><a xlink:href="_output_api_8h.html" target="_top" xlink:title=" ">
<polygon fill="white" stroke="#666666" points="366.38,-295.5 252.12,-295.5 252.12,-276.25 366.38,-276.25 366.38,-295.5"/>
<text text-anchor="middle" x="309.25" y="-282" font-family="Helvetica,sans-Serif" font-size="10.00">Cpl/Io/File/OutputApi.h</text>
</a>
</g>
</g>
<!-- Node2&#45;&gt;Node19 -->
<g id="edge19_Node000002_Node000019" class="edge">
<title>Node2&#45;&gt;Node19</title>
<g id="a_edge19_Node000002_Node000019"><a xlink:title=" ">
<path fill="none" stroke="#63b8ff" d="M203.79,-331.09C223.86,-322.68 254.05,-310.02 277,-300.4"/>
<polygon fill="#63b8ff" stroke="#63b8ff" points="278.34,-303.63 286.2,-296.54 275.63,-297.18 278.34,-303.63"/>
</a>
</g>
</g>
<!-- Node21 -->
<g id="Node000021" class="node">
<title>Node21</title>
<g id="a_Node000021"><a xlink:href="_input_output_8h.html" target="_top" xlink:title=" ">
<polygon fill="white" stroke="#666666" points="233.75,-295.5 130.75,-295.5 130.75,-276.25 233.75,-276.25 233.75,-295.5"/>
<text text-anchor="middle" x="182.25" y="-282" font-family="Helvetica,sans-Serif" font-size="10.00">Cpl/Io/InputOutput.h</text>
</a>
</g>
</g>
<!-- Node2&#45;&gt;Node21 -->
<g id="edge26_Node000002_Node000021" class="edge">
<title>Node2&#45;&gt;Node21</title>
<g id="a_edge26_Node000002_Node000021"><a xlink:title=" ">
<path fill="none" stroke="#63b8ff" d="M182.25,-331.33C182.25,-324.82 182.25,-315.67 182.25,-307.37"/>
<polygon fill="#63b8ff" stroke="#63b8ff" points="185.75,-307.37 182.25,-297.37 178.75,-307.37 185.75,-307.37"/>
</a>
</g>
</g>
<!-- Node4 -->
<g id="Node000004" class="node">
<title>Node4</title>
<g id="a_Node000004"><a xlink:href="_input_8h.html" target="_top" xlink:title=" ">
<polygon fill="white" stroke="#666666" points="107.12,-240.25 33.38,-240.25 33.38,-221 107.12,-221 107.12,-240.25"/>
<text text-anchor="middle" x="70.25" y="-226.75" font-family="Helvetica,sans-Serif" font-size="10.00">Cpl/Io/Input.h</text>
</a>
</g>
</g>
<!-- Node3&#45;&gt;Node4 -->
<g id="edge3_Node000003_Node000004" class="edge">
<title>Node3&#45;&gt;Node4</title>
<g id="a_edge3_Node000003_Node000004"><a xlink:title=" ">
<path fill="none" stroke="#63b8ff" d="M61.07,-276.08C62.43,-269.49 64.35,-260.21 66.08,-251.82"/>
<polygon fill="#63b8ff" stroke="#63b8ff" points="69.49,-252.59 68.09,-242.09 62.64,-251.18 69.49,-252.59"/>
</a>
</g>
</g>
<!-- Node18 -->
<g id="Node000018" class="node">
<title>Node18</title>
<g id="a_Node000018"><a xlink:href="_object_api_8h.html" target="_top" xlink:title=" ">
<polygon fill="white" stroke="#666666" points="239,-240.25 125.5,-240.25 125.5,-221 239,-221 239,-240.25"/>
<text text-anchor="middle" x="182.25" y="-226.75" font-family="Helvetica,sans-Serif" font-size="10.00">Cpl/Io/File/ObjectApi.h</text>
</a>
</g>
</g>
<!-- Node3&#45;&gt;Node18 -->
<g id="edge18_Node000003_Node000018" class="edge">
<title>Node3&#45;&gt;Node18</title>
<g id="a_edge18_Node000003_Node000018"><a xlink:title=" ">
<path fill="none" stroke="#63b8ff" d="M80.12,-275.84C99.55,-267.43 128.79,-254.77 151.01,-245.15"/>
<polygon fill="#63b8ff" stroke="#63b8ff" points="152.11,-248.49 159.89,-241.3 149.33,-242.06 152.11,-248.49"/>
</a>
</g>
</g>
<!-- Node5 -->
<g id="Node000005" class="node">
<title>Node5</title>
<g id="a_Node000005"><a xlink:href="_text_2_string_8h.html" target="_top" xlink:title=" ">
<polygon fill="white" stroke="#666666" points="322.25,-185 234.25,-185 234.25,-165.75 322.25,-165.75 322.25,-185"/>
<text text-anchor="middle" x="278.25" y="-171.5" font-family="Helvetica,sans-Serif" font-size="10.00">Cpl/Text/String.h</text>
</a>
</g>
</g>
<!-- Node4&#45;&gt;Node5 -->
<g id="edge4_Node000004_Node000005" class="edge">
<title>Node4&#45;&gt;Node5</title>
<g id="a_edge4_Node000004_Node000005"><a xlink:title=" ">
<path fill="none" stroke="#63b8ff" d="M105.53,-220.59C140.35,-211.68 193.75,-198.01 231.96,-188.23"/>
<polygon fill="#63b8ff" stroke="#63b8ff" points="232.51,-191.7 241.33,-185.83 230.77,-184.92 232.51,-191.7"/>
</a>
</g>
</g>
<!-- Node15 -->
<g id="Node000015" class="node">
<title>Node15</title>
<g id="a_Node000015"><a xlink:href="_close_8h.html" target="_top" xlink:title=" ">
<polygon fill="white" stroke="#666666" points="108.62,-185 31.88,-185 31.88,-165.75 108.62,-165.75 108.62,-185"/>
<text text-anchor="middle" x="70.25" y="-171.5" font-family="Helvetica,sans-Serif" font-size="10.00">Cpl/Io/Close.h</text>
</a>
</g>
</g>
<!-- Node4&#45;&gt;Node15 -->
<g id="edge15_Node000004_Node000015" class="edge">
<title>Node4&#45;&gt;Node15</title>
<g id="a_edge15_Node000004_Node000015"><a xlink:title=" ">
<path fill="none" stroke="#63b8ff" d="M70.25,-220.83C70.25,-214.32 70.25,-205.17 70.25,-196.87"/>
<polygon fill="#63b8ff" stroke="#63b8ff" points="73.75,-196.87 70.25,-186.87 66.75,-196.87 73.75,-196.87"/>
</a>
</g>
</g>
<!-- Node17 -->
<g id="Node000017" class="node">
<title>Node17</title>
<g id="a_Node000017"><a xlink:href="_is_eos_8h.html" target="_top" xlink:title=" ">
<polygon fill="white" stroke="#666666" points="212.62,-185 135.88,-185 135.88,-165.75 212.62,-165.75 212.62,-185"/>
<text text-anchor="middle" x="174.25" y="-171.5" font-family="Helvetica,sans-Serif" font-size="10.00">Cpl/Io/IsEos.h</text>
</a>
</g>
</g>
<!-- Node4&#45;&gt;Node17 -->
<g id="edge17_Node000004_Node000017" class="edge">
<title>Node4&#45;&gt;Node17</title>
<g id="a_edge17_Node000004_Node000017"><a xlink:title=" ">
<path fill="none" stroke="#63b8ff" d="M87.89,-220.59C103.88,-212.41 127.71,-200.21 146.29,-190.69"/>
<polygon fill="#63b8ff" stroke="#63b8ff" points="147.87,-193.82 155.17,-186.14 144.68,-187.58 147.87,-193.82"/>
</a>
</g>
</g>
<!-- Node6 -->
<g id="Node000006" class="node">
<title>Node6</title>
<g id="a_Node000006"><a xlink:title=" ">
<polygon fill="#e0e0e0" stroke="#999999" points="205.88,-74.5 130.62,-74.5 130.62,-55.25 205.88,-55.25 205.88,-74.5"/>
<text text-anchor="middle" x="168.25" y="-61" font-family="Helvetica,sans-Serif" font-size="10.00">colony_map.h</text>
</a>
</g>
</g>
<!-- Node5&#45;&gt;Node6 -->
<g id="edge5_Node000005_Node000006" class="edge">
<title>Node5&#45;&gt;Node6</title>
<g id="a_edge5_Node000005_Node000006"><a xlink:title=" ">
<path fill="none" stroke="#63b8ff" d="M265.93,-165.38C254.42,-156.76 237.01,-143.11 223.25,-129.75 208.21,-115.15 192.79,-96.89 182.11,-83.64"/>
<polygon fill="#63b8ff" stroke="#63b8ff" points="185.15,-81.84 176.19,-76.18 179.67,-86.19 185.15,-81.84"/>
</a>
</g>
</g>
<!-- Node7 -->
<g id="Node000007" class="node">
<title>Node7</title>
<g id="a_Node000007"><a xlink:href="_key_8h.html" target="_top" xlink:title=" ">
<polygon fill="white" stroke="#666666" points="334,-129.75 232.5,-129.75 232.5,-110.5 334,-110.5 334,-129.75"/>
<text text-anchor="middle" x="283.25" y="-116.25" font-family="Helvetica,sans-Serif" font-size="10.00">Cpl/Container/Key.h</text>
</a>
</g>
</g>
<!-- Node5&#45;&gt;Node7 -->
<g id="edge6_Node000005_Node000007" class="edge">
<title>Node5&#45;&gt;Node7</title>
<g id="a_edge6_Node000005_Node000007"><a xlink:title=" ">
<path fill="none" stroke="#63b8ff" d="M279.08,-165.58C279.69,-158.99 280.57,-149.71 281.35,-141.32"/>
<polygon fill="#63b8ff" stroke="#63b8ff" points="284.81,-141.9 282.26,-131.62 277.85,-141.25 284.81,-141.9"/>
</a>
</g>
</g>
<!-- Node13 -->
<g id="Node000013" class="node">
<title>Node13</title>
<g id="a_Node000013"><a xlink:title=" ">
<polygon fill="#e0e0e0" stroke="#999999" points="402.5,-129.75 352,-129.75 352,-110.5 402.5,-110.5 402.5,-129.75"/>
<text text-anchor="middle" x="377.25" y="-116.25" font-family="Helvetica,sans-Serif" font-size="10.00">stdarg.h</text>
</a>
</g>
</g>
<!-- Node5&#45;&gt;Node13 -->
<g id="edge13_Node000005_Node000013" class="edge">
<title>Node5&#45;&gt;Node13</title>
<g id="a_edge13_Node000005_Node000013"><a xlink:title=" ">
<path fill="none" stroke="#63b8ff" d="M295.04,-165.34C310.26,-157.16 332.95,-144.96 350.63,-135.44"/>
<polygon fill="#63b8ff" stroke="#63b8ff" points="351.89,-138.74 359.04,-130.92 348.58,-132.57 351.89,-138.74"/>
</a>
</g>
</g>
<!-- Node14 -->
<g id="Node000014" class="node">
<title>Node14</title>
<g id="a_Node000014"><a xlink:title=" ">
<polygon fill="#e0e0e0" stroke="#999999" points="176,-129.75 122.5,-129.75 122.5,-110.5 176,-110.5 176,-129.75"/>
<text text-anchor="middle" x="149.25" y="-116.25" font-family="Helvetica,sans-Serif" font-size="10.00">iostream</text>
</a>
</g>
</g>
<!-- Node5&#45;&gt;Node14 -->
<g id="edge14_Node000005_Node000014" class="edge">
<title>Node5&#45;&gt;Node14</title>
<g id="a_edge14_Node000005_Node000014"><a xlink:title=" ">
<path fill="none" stroke="#63b8ff" d="M256.37,-165.34C235.89,-156.89 205.04,-144.15 181.69,-134.52"/>
<polygon fill="#63b8ff" stroke="#63b8ff" points="183.22,-131.36 172.64,-130.78 180.55,-137.83 183.22,-131.36"/>
</a>
</g>
</g>
<!-- Node7&#45;&gt;Node6 -->
<g id="edge12_Node000007_Node000006" class="edge">
<title>Node7&#45;&gt;Node6</title>
<g id="a_edge12_Node000007_Node000006"><a xlink:title=" ">
<path fill="none" stroke="#63b8ff" d="M263.74,-110.09C245.73,-101.75 218.73,-89.25 198.02,-79.66"/>
<polygon fill="#63b8ff" stroke="#63b8ff" points="199.77,-76.61 189.23,-75.59 196.83,-82.97 199.77,-76.61"/>
</a>
</g>
</g>
<!-- Node8 -->
<g id="Node000008" class="node">
<title>Node8</title>
<g id="a_Node000008"><a xlink:href="_fatal_error_8h.html" target="_top" xlink:title=" ">
<polygon fill="white" stroke="#666666" points="342.62,-74.5 223.88,-74.5 223.88,-55.25 342.62,-55.25 342.62,-74.5"/>
<text text-anchor="middle" x="283.25" y="-61" font-family="Helvetica,sans-Serif" font-size="10.00">Cpl/System/FatalError.h</text>
</a>
</g>
</g>
<!-- Node7&#45;&gt;Node8 -->
<g id="edge7_Node000007_Node000008" class="edge">
<title>Node7&#45;&gt;Node8</title>
<g id="a_edge7_Node000007_Node000008"><a xlink:title=" ">
<path fill="none" stroke="#63b8ff" d="M283.25,-110.33C283.25,-103.82 283.25,-94.67 283.25,-86.37"/>
<polygon fill="#63b8ff" stroke="#63b8ff" points="286.75,-86.37 283.25,-76.37 279.75,-86.37 286.75,-86.37"/>
</a>
</g>
</g>
<!-- Node11 -->
<g id="Node000011" class="node">
<title>Node11</title>
<g id="a_Node000011"><a xlink:title=" ">
<polygon fill="#e0e0e0" stroke="#999999" points="408,-74.5 360.5,-74.5 360.5,-55.25 408,-55.25 408,-74.5"/>
<text text-anchor="middle" x="384.25" y="-61" font-family="Helvetica,sans-Serif" font-size="10.00">stdint.h</text>
</a>
</g>
</g>
<!-- Node7&#45;&gt;Node11 -->
<g id="edge10_Node000007_Node000011" class="edge">
<title>Node7&#45;&gt;Node11</title>
<g id="a_edge10_Node000007_Node000011"><a xlink:title=" ">
<path fill="none" stroke="#63b8ff" d="M300.38,-110.09C315.91,-101.91 339.05,-89.71 357.09,-80.19"/>
<polygon fill="#63b8ff" stroke="#63b8ff" points="358.48,-83.42 365.69,-75.66 355.22,-77.23 358.48,-83.42"/>
</a>
</g>
</g>
<!-- Node12 -->
<g id="Node000012" class="node">
<title>Node12</title>
<g id="a_Node000012"><a xlink:title=" ">
<polygon fill="#e0e0e0" stroke="#999999" points="474,-74.5 426.5,-74.5 426.5,-55.25 474,-55.25 474,-74.5"/>
<text text-anchor="middle" x="450.25" y="-61" font-family="Helvetica,sans-Serif" font-size="10.00">string.h</text>
</a>
</g>
</g>
<!-- Node7&#45;&gt;Node12 -->
<g id="edge11_Node000007_Node000012" class="edge">
<title>Node7&#45;&gt;Node12</title>
<g id="a_edge11_Node000007_Node000012"><a xlink:title=" ">
<path fill="none" stroke="#63b8ff" d="M311.58,-110.09C340.26,-100.95 384.65,-86.79 415.45,-76.97"/>
<polygon fill="#63b8ff" stroke="#63b8ff" points="416.22,-80.4 424.68,-74.03 414.09,-73.73 416.22,-80.4"/>
</a>
</g>
</g>
<!-- Node9 -->
<g id="Node000009" class="node">
<title>Node9</title>
<g id="a_Node000009"><a xlink:title=" ">
<polygon fill="#e0e0e0" stroke="#999999" points="266.5,-19.25 216,-19.25 216,0 266.5,0 266.5,-19.25"/>
<text text-anchor="middle" x="241.25" y="-5.75" font-family="Helvetica,sans-Serif" font-size="10.00">stddef.h</text>
</a>
</g>
</g>
<!-- Node8&#45;&gt;Node9 -->
<g id="edge8_Node000008_Node000009" class="edge">
<title>Node8&#45;&gt;Node9</title>
<g id="a_edge8_Node000008_Node000009"><a xlink:title=" ">
<path fill="none" stroke="#63b8ff" d="M276.31,-55.08C270.63,-47.88 262.41,-37.46 255.36,-28.51"/>
<polygon fill="#63b8ff" stroke="#63b8ff" points="258.21,-26.48 249.27,-20.8 252.72,-30.82 258.21,-26.48"/>
</a>
</g>
</g>
<!-- Node10 -->
<g id="Node000010" class="node">
<title>Node10</title>
<g id="a_Node000010"><a xlink:title=" ">
<polygon fill="#e0e0e0" stroke="#999999" points="366.25,-19.25 284.25,-19.25 284.25,0 366.25,0 366.25,-19.25"/>
<text text-anchor="middle" x="325.25" y="-5.75" font-family="Helvetica,sans-Serif" font-size="10.00">colony_config.h</text>
</a>
</g>
</g>
<!-- Node8&#45;&gt;Node10 -->
<g id="edge9_Node000008_Node000010" class="edge">
<title>Node8&#45;&gt;Node10</title>
<g id="a_edge9_Node000008_Node000010"><a xlink:title=" ">
<path fill="none" stroke="#63b8ff" d="M290.19,-55.08C295.87,-47.88 304.09,-37.46 311.14,-28.51"/>
<polygon fill="#63b8ff" stroke="#63b8ff" points="313.78,-30.82 317.23,-20.8 308.29,-26.48 313.78,-30.82"/>
</a>
</g>
</g>
<!-- Node16 -->
<g id="Node000016" class="node">
<title>Node16</title>
<g id="a_Node000016"><a xlink:href="_item_8h.html" target="_top" xlink:title=" ">
<polygon fill="white" stroke="#666666" points="104.5,-129.75 0,-129.75 0,-110.5 104.5,-110.5 104.5,-129.75"/>
<text text-anchor="middle" x="52.25" y="-116.25" font-family="Helvetica,sans-Serif" font-size="10.00">Cpl/Container/Item.h</text>
</a>
</g>
</g>
<!-- Node15&#45;&gt;Node16 -->
<g id="edge16_Node000015_Node000016" class="edge">
<title>Node15&#45;&gt;Node16</title>
<g id="a_edge16_Node000015_Node000016"><a xlink:title=" ">
<path fill="none" stroke="#63b8ff" d="M67.28,-165.58C65,-158.84 61.76,-149.27 58.88,-140.74"/>
<polygon fill="#63b8ff" stroke="#63b8ff" points="62.29,-139.9 55.77,-131.54 55.66,-142.14 62.29,-139.9"/>
</a>
</g>
</g>
<!-- Node19&#45;&gt;Node18 -->
<g id="edge25_Node000019_Node000018" class="edge">
<title>Node19&#45;&gt;Node18</title>
<g id="a_edge25_Node000019_Node000018"><a xlink:title=" ">
<path fill="none" stroke="#63b8ff" d="M287.71,-275.84C267.64,-267.43 237.45,-254.77 214.5,-245.15"/>
<polygon fill="#63b8ff" stroke="#63b8ff" points="215.87,-241.93 205.3,-241.29 213.16,-248.38 215.87,-241.93"/>
</a>
</g>
</g>
<!-- Node20 -->
<g id="Node000020" class="node">
<title>Node20</title>
<g id="a_Node000020"><a xlink:href="_cpl_2_io_2_output_8h.html" target="_top" xlink:title=" ">
<polygon fill="white" stroke="#666666" points="337.88,-240.25 256.62,-240.25 256.62,-221 337.88,-221 337.88,-240.25"/>
<text text-anchor="middle" x="297.25" y="-226.75" font-family="Helvetica,sans-Serif" font-size="10.00">Cpl/Io/Output.h</text>
</a>
</g>
</g>
<!-- Node19&#45;&gt;Node20 -->
<g id="edge20_Node000019_Node000020" class="edge">
<title>Node19&#45;&gt;Node20</title>
<g id="a_edge20_Node000019_Node000020"><a xlink:title=" ">
<path fill="none" stroke="#63b8ff" d="M307.27,-276.08C305.78,-269.49 303.69,-260.21 301.8,-251.82"/>
<polygon fill="#63b8ff" stroke="#63b8ff" points="305.22,-251.07 299.61,-242.09 298.39,-252.61 305.22,-251.07"/>
</a>
</g>
</g>
<!-- Node20&#45;&gt;Node5 -->
<g id="edge21_Node000020_Node000005" class="edge">
<title>Node20&#45;&gt;Node5</title>
<g id="a_edge21_Node000020_Node000005"><a xlink:title=" ">
<path fill="none" stroke="#63b8ff" d="M294.11,-220.83C291.71,-214.09 288.29,-204.52 285.25,-195.99"/>
<polygon fill="#63b8ff" stroke="#63b8ff" points="288.62,-195.03 281.96,-186.78 282.03,-197.38 288.62,-195.03"/>
</a>
</g>
</g>
<!-- Node20&#45;&gt;Node13 -->
<g id="edge24_Node000020_Node000013" class="edge">
<title>Node20&#45;&gt;Node13</title>
<g id="a_edge24_Node000020_Node000013"><a xlink:title=" ">
<path fill="none" stroke="#63b8ff" d="M304.09,-220.79C311.01,-211.82 321.97,-197.52 331.25,-185 342.68,-169.58 355.41,-151.85 364.58,-138.99"/>
<polygon fill="#63b8ff" stroke="#63b8ff" points="367.25,-141.27 370.2,-131.09 361.55,-137.21 367.25,-141.27"/>
</a>
</g>
</g>
<!-- Node20&#45;&gt;Node15 -->
<g id="edge22_Node000020_Node000015" class="edge">
<title>Node20&#45;&gt;Node15</title>
<g id="a_edge22_Node000020_Node000015"><a xlink:title=" ">
<path fill="none" stroke="#63b8ff" d="M258.49,-220.53C220.21,-211.55 161.51,-197.78 119.85,-188.01"/>
<polygon fill="#63b8ff" stroke="#63b8ff" points="120.86,-184.65 110.33,-185.78 119.26,-191.47 120.86,-184.65"/>
</a>
</g>
</g>
<!-- Node20&#45;&gt;Node17 -->
<g id="edge23_Node000020_Node000017" class="edge">
<title>Node20&#45;&gt;Node17</title>
<g id="a_edge23_Node000020_Node000017"><a xlink:title=" ">
<path fill="none" stroke="#63b8ff" d="M276.38,-220.59C256.95,-212.18 227.71,-199.52 205.49,-189.9"/>
<polygon fill="#63b8ff" stroke="#63b8ff" points="207.17,-186.81 196.61,-186.05 204.39,-193.24 207.17,-186.81"/>
</a>
</g>
</g>
<!-- Node21&#45;&gt;Node4 -->
<g id="edge27_Node000021_Node000004" class="edge">
<title>Node21&#45;&gt;Node4</title>
<g id="a_edge27_Node000021_Node000004"><a xlink:title=" ">
<path fill="none" stroke="#63b8ff" d="M163.25,-275.84C145.79,-267.54 119.65,-255.11 99.53,-245.54"/>
<polygon fill="#63b8ff" stroke="#63b8ff" points="101.24,-242.49 90.71,-241.35 98.24,-248.81 101.24,-242.49"/>
</a>
</g>
</g>
<!-- Node21&#45;&gt;Node20 -->
<g id="edge28_Node000021_Node000020" class="edge">
<title>Node21&#45;&gt;Node20</title>
<g id="a_edge28_Node000021_Node000020"><a xlink:title=" ">
<path fill="none" stroke="#63b8ff" d="M201.76,-275.84C219.77,-267.5 246.77,-255 267.48,-245.41"/>
<polygon fill="#63b8ff" stroke="#63b8ff" points="268.67,-248.72 276.27,-241.34 265.73,-242.36 268.67,-248.72"/>
</a>
</g>
</g>
</g>
</svg>
