<?xml version="1.0" encoding="UTF-8" standalone="no"?>
<!DOCTYPE svg PUBLIC "-//W3C//DTD SVG 1.1//EN"
 "http://www.w3.org/Graphics/SVG/1.1/DTD/svg11.dtd">
<!-- Generated by graphviz version 9.0.0 (20230911.1827)
 -->
<!-- Title: Cpl/Container/Hash.h Pages: 1 -->
<svg width="322pt" height="193pt"
 viewBox="0.00 0.00 321.88 193.00" xmlns="http://www.w3.org/2000/svg" xmlns:xlink="http://www.w3.org/1999/xlink">
<g id="graph0" class="graph" transform="scale(1 1) rotate(0) translate(4 189)">
<title>Cpl/Container/Hash.h</title>
<!-- Node1 -->
<g id="Node000001" class="node">
<title>Node1</title>
<g id="a_Node000001"><a xlink:title=" ">
<polygon fill="#999999" stroke="#666666" points="207.25,-185 99,-185 99,-165.75 207.25,-165.75 207.25,-185"/>
<text text-anchor="middle" x="153.12" y="-171.5" font-family="Helvetica,sans-Serif" font-size="10.00">Cpl/Container/Hash.h</text>
</a>
</g>
</g>
<!-- Node2 -->
<g id="Node000002" class="node">
<title>Node2</title>
<g id="a_Node000002"><a xlink:href="_d_hash_table___8h.html" target="_top" xlink:title=" ">
<polygon fill="white" stroke="#666666" points="144.25,-74.5 0,-74.5 0,-55.25 144.25,-55.25 144.25,-74.5"/>
<text text-anchor="middle" x="72.12" y="-61" font-family="Helvetica,sans-Serif" font-size="10.00">Cpl/Container/DHashTable_.h</text>
</a>
</g>
</g>
<!-- Node1&#45;&gt;Node2 -->
<g id="edge1_Node000001_Node000002" class="edge">
<title>Node1&#45;&gt;Node2</title>
<g id="a_edge1_Node000001_Node000002"><a xlink:title=" ">
<path fill="none" stroke="#63b8ff" d="M112.82,-160.78C98.45,-153.82 83.71,-143.78 75.12,-129.75 64.7,-112.7 67.45,-88.05 70,-74.91"/>
<polygon fill="#63b8ff" stroke="#63b8ff" points="111.18,-163.88 121.74,-164.71 114,-157.47 111.18,-163.88"/>
</a>
</g>
</g>
<!-- Node4 -->
<g id="Node000004" class="node">
<title>Node4</title>
<g id="a_Node000004"><a xlink:href="_f_hash_table___8h.html" target="_top" xlink:title=" ">
<polygon fill="white" stroke="#666666" points="313.88,-74.5 170.38,-74.5 170.38,-55.25 313.88,-55.25 313.88,-74.5"/>
<text text-anchor="middle" x="242.12" y="-61" font-family="Helvetica,sans-Serif" font-size="10.00">Cpl/Container/FHashTable_.h</text>
</a>
</g>
</g>
<!-- Node1&#45;&gt;Node4 -->
<g id="edge3_Node000001_Node000004" class="edge">
<title>Node1&#45;&gt;Node4</title>
<g id="a_edge3_Node000001_Node000004"><a xlink:title=" ">
<path fill="none" stroke="#63b8ff" d="M191.57,-160.68C206.12,-153.62 221.48,-143.53 231.12,-129.75 242.87,-112.97 243.48,-87.77 242.84,-74.6"/>
<polygon fill="#63b8ff" stroke="#63b8ff" points="190.31,-157.41 182.6,-164.68 193.16,-163.81 190.31,-157.41"/>
</a>
</g>
</g>
<!-- Node6 -->
<g id="Node000006" class="node">
<title>Node6</title>
<g id="a_Node000006"><a xlink:href="_hash_table___8h.html" target="_top" xlink:title=" ">
<polygon fill="white" stroke="#666666" points="221.88,-129.75 84.38,-129.75 84.38,-110.5 221.88,-110.5 221.88,-129.75"/>
<text text-anchor="middle" x="153.12" y="-116.25" font-family="Helvetica,sans-Serif" font-size="10.00">Cpl/Container/HashTable_.h</text>
</a>
</g>
</g>
<!-- Node1&#45;&gt;Node6 -->
<g id="edge5_Node000001_Node000006" class="edge">
<title>Node1&#45;&gt;Node6</title>
<g id="a_edge5_Node000001_Node000006"><a xlink:title=" ">
<path fill="none" stroke="#63b8ff" d="M153.12,-154.13C153.12,-145.84 153.12,-136.67 153.12,-130.11"/>
<polygon fill="#63b8ff" stroke="#63b8ff" points="149.63,-154.07 153.13,-164.07 156.63,-154.07 149.63,-154.07"/>
</a>
</g>
</g>
<!-- Node3 -->
<g id="Node000003" class="node">
<title>Node3</title>
<g id="a_Node000003"><a xlink:href="_dictionary_8h.html" target="_top" xlink:title=" ">
<polygon fill="white" stroke="#666666" points="136,-19.25 8.25,-19.25 8.25,0 136,0 136,-19.25"/>
<text text-anchor="middle" x="72.12" y="-5.75" font-family="Helvetica,sans-Serif" font-size="10.00">Cpl/Container/Dictionary.h</text>
</a>
</g>
</g>
<!-- Node2&#45;&gt;Node3 -->
<g id="edge2_Node000002_Node000003" class="edge">
<title>Node2&#45;&gt;Node3</title>
<g id="a_edge2_Node000002_Node000003"><a xlink:title=" ">
<path fill="none" stroke="#63b8ff" d="M72.12,-43.63C72.12,-35.34 72.12,-26.17 72.12,-19.61"/>
<polygon fill="#63b8ff" stroke="#63b8ff" points="68.63,-43.57 72.13,-53.57 75.63,-43.57 68.63,-43.57"/>
</a>
</g>
</g>
<!-- Node5 -->
<g id="Node000005" class="node">
<title>Node5</title>
<g id="a_Node000005"><a xlink:href="_f_dictionary_8h.html" target="_top" xlink:title=" ">
<polygon fill="white" stroke="#666666" points="309,-19.25 175.25,-19.25 175.25,0 309,0 309,-19.25"/>
<text text-anchor="middle" x="242.12" y="-5.75" font-family="Helvetica,sans-Serif" font-size="10.00">Cpl/Container/FDictionary.h</text>
</a>
</g>
</g>
<!-- Node4&#45;&gt;Node5 -->
<g id="edge4_Node000004_Node000005" class="edge">
<title>Node4&#45;&gt;Node5</title>
<g id="a_edge4_Node000004_Node000005"><a xlink:title=" ">
<path fill="none" stroke="#63b8ff" d="M242.12,-43.63C242.12,-35.34 242.12,-26.17 242.12,-19.61"/>
<polygon fill="#63b8ff" stroke="#63b8ff" points="238.63,-43.57 242.13,-53.57 245.63,-43.57 238.63,-43.57"/>
</a>
</g>
</g>
<!-- Node6&#45;&gt;Node2 -->
<g id="edge6_Node000006_Node000002" class="edge">
<title>Node6&#45;&gt;Node2</title>
<g id="a_edge6_Node000006_Node000002"><a xlink:title=" ">
<path fill="none" stroke="#63b8ff" d="M129.79,-103.78C115.59,-94.45 97.94,-82.85 85.93,-74.95"/>
<polygon fill="#63b8ff" stroke="#63b8ff" points="127.84,-106.69 138.12,-109.26 131.69,-100.84 127.84,-106.69"/>
</a>
</g>
</g>
<!-- Node6&#45;&gt;Node4 -->
<g id="edge7_Node000006_Node000004" class="edge">
<title>Node6&#45;&gt;Node4</title>
<g id="a_edge7_Node000006_Node000004"><a xlink:title=" ">
<path fill="none" stroke="#63b8ff" d="M177.86,-104.32C193.61,-94.9 213.5,-83 226.95,-74.95"/>
<polygon fill="#63b8ff" stroke="#63b8ff" points="176.31,-101.18 169.52,-109.31 179.9,-107.18 176.31,-101.18"/>
</a>
</g>
</g>
</g>
</svg>
