<?xml version="1.0" encoding="UTF-8" standalone="no"?>
<!DOCTYPE svg PUBLIC "-//W3C//DTD SVG 1.1//EN"
 "http://www.w3.org/Graphics/SVG/1.1/DTD/svg11.dtd">
<!-- Generated by graphviz version 9.0.0 (20230911.1827)
 -->
<!-- Title: Cpl/Checksum/Crc32EthernetFast.h Pages: 1 -->
<svg width="152pt" height="149pt"
 viewBox="0.00 0.00 152.25 149.00" xmlns="http://www.w3.org/2000/svg" xmlns:xlink="http://www.w3.org/1999/xlink">
<g id="graph0" class="graph" transform="scale(1 1) rotate(0) translate(4 145)">
<title>Cpl/Checksum/Crc32EthernetFast.h</title>
<!-- Node1 -->
<g id="Node000001" class="node">
<title>Node1</title>
<g id="a_Node000001"><a xlink:title=" ">
<polygon fill="#999999" stroke="#666666" points="144.25,-141 0,-141 0,-110.5 144.25,-110.5 144.25,-141"/>
<text text-anchor="start" x="8" y="-127.5" font-family="Helvetica,sans-Serif" font-size="10.00">Cpl/Checksum/Crc32Ethernet</text>
<text text-anchor="middle" x="72.12" y="-116.25" font-family="Helvetica,sans-Serif" font-size="10.00">Fast.h</text>
</a>
</g>
</g>
<!-- Node2 -->
<g id="Node000002" class="node">
<title>Node2</title>
<g id="a_Node000002"><a xlink:href="_api32_8h.html" target="_top" xlink:title=" ">
<polygon fill="white" stroke="#666666" points="129.62,-74.5 14.62,-74.5 14.62,-55.25 129.62,-55.25 129.62,-74.5"/>
<text text-anchor="middle" x="72.12" y="-61" font-family="Helvetica,sans-Serif" font-size="10.00">Cpl/Checksum/Api32.h</text>
</a>
</g>
</g>
<!-- Node1&#45;&gt;Node2 -->
<g id="edge1_Node000001_Node000002" class="edge">
<title>Node1&#45;&gt;Node2</title>
<g id="a_edge1_Node000001_Node000002"><a xlink:title=" ">
<path fill="none" stroke="#63b8ff" d="M72.12,-110.2C72.12,-102.96 72.12,-94.09 72.12,-86.19"/>
<polygon fill="#63b8ff" stroke="#63b8ff" points="75.63,-86.46 72.13,-76.46 68.63,-86.46 75.63,-86.46"/>
</a>
</g>
</g>
<!-- Node3 -->
<g id="Node000003" class="node">
<title>Node3</title>
<g id="a_Node000003"><a xlink:title=" ">
<polygon fill="#e0e0e0" stroke="#999999" points="95.88,-19.25 48.38,-19.25 48.38,0 95.88,0 95.88,-19.25"/>
<text text-anchor="middle" x="72.12" y="-5.75" font-family="Helvetica,sans-Serif" font-size="10.00">stdint.h</text>
</a>
</g>
</g>
<!-- Node2&#45;&gt;Node3 -->
<g id="edge2_Node000002_Node000003" class="edge">
<title>Node2&#45;&gt;Node3</title>
<g id="a_edge2_Node000002_Node000003"><a xlink:title=" ">
<path fill="none" stroke="#63b8ff" d="M72.12,-55.08C72.12,-48.57 72.12,-39.42 72.12,-31.12"/>
<polygon fill="#63b8ff" stroke="#63b8ff" points="75.63,-31.12 72.13,-21.12 68.63,-31.12 75.63,-31.12"/>
</a>
</g>
</g>
</g>
</svg>
