<?xml version="1.0" encoding="UTF-8" standalone="no"?>
<!DOCTYPE svg PUBLIC "-//W3C//DTD SVG 1.1//EN"
 "http://www.w3.org/Graphics/SVG/1.1/DTD/svg11.dtd">
<!-- Generated by graphviz version 9.0.0 (20230911.1827)
 -->
<!-- Title: Cpl/Text/DFString.h Pages: 1 -->
<svg width="429pt" height="359pt"
 viewBox="0.00 0.00 429.12 358.75" xmlns="http://www.w3.org/2000/svg" xmlns:xlink="http://www.w3.org/1999/xlink">
<g id="graph0" class="graph" transform="scale(1 1) rotate(0) translate(4 354.75)">
<title>Cpl/Text/DFString.h</title>
<!-- Node1 -->
<g id="Node000001" class="node">
<title>Node1</title>
<g id="a_Node000001"><a xlink:title=" ">
<polygon fill="#999999" stroke="#666666" points="100.75,-350.75 0,-350.75 0,-331.5 100.75,-331.5 100.75,-350.75"/>
<text text-anchor="middle" x="50.38" y="-337.25" font-family="Helvetica,sans-Serif" font-size="10.00">Cpl/Text/DFString.h</text>
</a>
</g>
</g>
<!-- Node2 -->
<g id="Node000002" class="node">
<title>Node2</title>
<g id="a_Node000002"><a xlink:title=" ">
<polygon fill="#e0e0e0" stroke="#999999" points="90.38,-19.25 8.38,-19.25 8.38,0 90.38,0 90.38,-19.25"/>
<text text-anchor="middle" x="49.38" y="-5.75" font-family="Helvetica,sans-Serif" font-size="10.00">colony_config.h</text>
</a>
</g>
</g>
<!-- Node1&#45;&gt;Node2 -->
<g id="edge1_Node000001_Node000002" class="edge">
<title>Node1&#45;&gt;Node2</title>
<g id="a_edge1_Node000001_Node000002"><a xlink:title=" ">
<path fill="none" stroke="#63b8ff" d="M44.79,-331.23C34,-313.18 11.38,-270.66 11.38,-231.62 11.38,-231.62 11.38,-231.62 11.38,-119.12 11.38,-86.13 27.22,-50.51 38.44,-29.41"/>
<polygon fill="#63b8ff" stroke="#63b8ff" points="41.4,-31.3 43.2,-20.86 35.28,-27.9 41.4,-31.3"/>
</a>
</g>
</g>
<!-- Node3 -->
<g id="Node000003" class="node">
<title>Node3</title>
<g id="a_Node000003"><a xlink:href="_f_string___8h.html" target="_top" xlink:title=" ">
<polygon fill="white" stroke="#666666" points="139,-295.5 39.75,-295.5 39.75,-276.25 139,-276.25 139,-295.5"/>
<text text-anchor="middle" x="89.38" y="-282" font-family="Helvetica,sans-Serif" font-size="10.00">Cpl/Text/FString_.h</text>
</a>
</g>
</g>
<!-- Node1&#45;&gt;Node3 -->
<g id="edge2_Node000001_Node000003" class="edge">
<title>Node1&#45;&gt;Node3</title>
<g id="a_edge2_Node000001_Node000003"><a xlink:title=" ">
<path fill="none" stroke="#63b8ff" d="M56.82,-331.33C62.03,-324.21 69.56,-313.93 76.07,-305.05"/>
<polygon fill="#63b8ff" stroke="#63b8ff" points="78.82,-307.22 81.9,-297.08 73.17,-303.08 78.82,-307.22"/>
</a>
</g>
</g>
<!-- Node3&#45;&gt;Node2 -->
<g id="edge3_Node000003_Node000002" class="edge">
<title>Node3&#45;&gt;Node2</title>
<g id="a_edge3_Node000003_Node000002"><a xlink:title=" ">
<path fill="none" stroke="#63b8ff" d="M83.64,-276C72.58,-257.99 49.38,-215.52 49.38,-176.38 49.38,-176.38 49.38,-176.38 49.38,-119.12 49.38,-88.41 49.38,-52.8 49.38,-30.99"/>
<polygon fill="#63b8ff" stroke="#63b8ff" points="52.88,-31.14 49.38,-21.14 45.88,-31.14 52.88,-31.14"/>
</a>
</g>
</g>
<!-- Node4 -->
<g id="Node000004" class="node">
<title>Node4</title>
<g id="a_Node000004"><a xlink:href="_string___8h.html" target="_top" xlink:title=" ">
<polygon fill="white" stroke="#666666" points="224,-240.25 130.75,-240.25 130.75,-221 224,-221 224,-240.25"/>
<text text-anchor="middle" x="177.38" y="-226.75" font-family="Helvetica,sans-Serif" font-size="10.00">Cpl/Text/String_.h</text>
</a>
</g>
</g>
<!-- Node3&#45;&gt;Node4 -->
<g id="edge4_Node000003_Node000004" class="edge">
<title>Node3&#45;&gt;Node4</title>
<g id="a_edge4_Node000003_Node000004"><a xlink:title=" ">
<path fill="none" stroke="#63b8ff" d="M104.3,-275.84C117.58,-267.81 137.24,-255.91 152.83,-246.48"/>
<polygon fill="#63b8ff" stroke="#63b8ff" points="154.34,-249.66 161.08,-241.49 150.71,-243.67 154.34,-249.66"/>
</a>
</g>
</g>
<!-- Node5 -->
<g id="Node000005" class="node">
<title>Node5</title>
<g id="a_Node000005"><a xlink:href="_text_2_string_8h.html" target="_top" xlink:title=" ">
<polygon fill="white" stroke="#666666" points="265.38,-185 177.38,-185 177.38,-165.75 265.38,-165.75 265.38,-185"/>
<text text-anchor="middle" x="221.38" y="-171.5" font-family="Helvetica,sans-Serif" font-size="10.00">Cpl/Text/String.h</text>
</a>
</g>
</g>
<!-- Node4&#45;&gt;Node5 -->
<g id="edge5_Node000004_Node000005" class="edge">
<title>Node4&#45;&gt;Node5</title>
<g id="a_edge5_Node000004_Node000005"><a xlink:title=" ">
<path fill="none" stroke="#63b8ff" d="M184.64,-220.83C190.66,-213.55 199.39,-202.98 206.83,-193.98"/>
<polygon fill="#63b8ff" stroke="#63b8ff" points="209.32,-196.46 212.99,-186.53 203.92,-192.01 209.32,-196.46"/>
</a>
</g>
</g>
<!-- Node6 -->
<g id="Node000006" class="node">
<title>Node6</title>
<g id="a_Node000006"><a xlink:title=" ">
<polygon fill="#e0e0e0" stroke="#999999" points="153,-74.5 77.75,-74.5 77.75,-55.25 153,-55.25 153,-74.5"/>
<text text-anchor="middle" x="115.38" y="-61" font-family="Helvetica,sans-Serif" font-size="10.00">colony_map.h</text>
</a>
</g>
</g>
<!-- Node5&#45;&gt;Node6 -->
<g id="edge6_Node000005_Node000006" class="edge">
<title>Node5&#45;&gt;Node6</title>
<g id="a_edge6_Node000005_Node000006"><a xlink:title=" ">
<path fill="none" stroke="#63b8ff" d="M207.07,-165.55C194.27,-157.25 175.4,-143.99 161.38,-129.75 147.76,-115.92 135.09,-97.77 126.51,-84.36"/>
<polygon fill="#63b8ff" stroke="#63b8ff" points="129.61,-82.72 121.37,-76.07 123.67,-86.41 129.61,-82.72"/>
</a>
</g>
</g>
<!-- Node7 -->
<g id="Node000007" class="node">
<title>Node7</title>
<g id="a_Node000007"><a xlink:href="_key_8h.html" target="_top" xlink:title=" ">
<polygon fill="white" stroke="#666666" points="272.12,-129.75 170.62,-129.75 170.62,-110.5 272.12,-110.5 272.12,-129.75"/>
<text text-anchor="middle" x="221.38" y="-116.25" font-family="Helvetica,sans-Serif" font-size="10.00">Cpl/Container/Key.h</text>
</a>
</g>
</g>
<!-- Node5&#45;&gt;Node7 -->
<g id="edge7_Node000005_Node000007" class="edge">
<title>Node5&#45;&gt;Node7</title>
<g id="a_edge7_Node000005_Node000007"><a xlink:title=" ">
<path fill="none" stroke="#63b8ff" d="M221.38,-165.58C221.38,-159.07 221.38,-149.92 221.38,-141.62"/>
<polygon fill="#63b8ff" stroke="#63b8ff" points="224.88,-141.62 221.38,-131.62 217.88,-141.62 224.88,-141.62"/>
</a>
</g>
</g>
<!-- Node12 -->
<g id="Node000012" class="node">
<title>Node12</title>
<g id="a_Node000012"><a xlink:title=" ">
<polygon fill="#e0e0e0" stroke="#999999" points="340.62,-129.75 290.12,-129.75 290.12,-110.5 340.62,-110.5 340.62,-129.75"/>
<text text-anchor="middle" x="315.38" y="-116.25" font-family="Helvetica,sans-Serif" font-size="10.00">stdarg.h</text>
</a>
</g>
</g>
<!-- Node5&#45;&gt;Node12 -->
<g id="edge14_Node000005_Node000012" class="edge">
<title>Node5&#45;&gt;Node12</title>
<g id="a_edge14_Node000005_Node000012"><a xlink:title=" ">
<path fill="none" stroke="#63b8ff" d="M237.32,-165.34C251.64,-157.23 272.91,-145.18 289.63,-135.71"/>
<polygon fill="#63b8ff" stroke="#63b8ff" points="291.06,-138.92 298.03,-130.95 287.61,-132.83 291.06,-138.92"/>
</a>
</g>
</g>
<!-- Node13 -->
<g id="Node000013" class="node">
<title>Node13</title>
<g id="a_Node000013"><a xlink:title=" ">
<polygon fill="#e0e0e0" stroke="#999999" points="412.12,-129.75 358.62,-129.75 358.62,-110.5 412.12,-110.5 412.12,-129.75"/>
<text text-anchor="middle" x="385.38" y="-116.25" font-family="Helvetica,sans-Serif" font-size="10.00">iostream</text>
</a>
</g>
</g>
<!-- Node5&#45;&gt;Node13 -->
<g id="edge15_Node000005_Node000013" class="edge">
<title>Node5&#45;&gt;Node13</title>
<g id="a_edge15_Node000005_Node000013"><a xlink:title=" ">
<path fill="none" stroke="#63b8ff" d="M249.2,-165.34C276.18,-156.58 317.33,-143.22 347.34,-133.48"/>
<polygon fill="#63b8ff" stroke="#63b8ff" points="348.37,-136.82 356.8,-130.4 346.21,-130.16 348.37,-136.82"/>
</a>
</g>
</g>
<!-- Node7&#45;&gt;Node6 -->
<g id="edge13_Node000007_Node000006" class="edge">
<title>Node7&#45;&gt;Node6</title>
<g id="a_edge13_Node000007_Node000006"><a xlink:title=" ">
<path fill="none" stroke="#63b8ff" d="M203.39,-110.09C187.02,-101.87 162.59,-89.59 143.61,-80.06"/>
<polygon fill="#63b8ff" stroke="#63b8ff" points="145.3,-76.99 134.8,-75.63 142.16,-83.25 145.3,-76.99"/>
</a>
</g>
</g>
<!-- Node8 -->
<g id="Node000008" class="node">
<title>Node8</title>
<g id="a_Node000008"><a xlink:href="_fatal_error_8h.html" target="_top" xlink:title=" ">
<polygon fill="white" stroke="#666666" points="289.75,-74.5 171,-74.5 171,-55.25 289.75,-55.25 289.75,-74.5"/>
<text text-anchor="middle" x="230.38" y="-61" font-family="Helvetica,sans-Serif" font-size="10.00">Cpl/System/FatalError.h</text>
</a>
</g>
</g>
<!-- Node7&#45;&gt;Node8 -->
<g id="edge8_Node000007_Node000008" class="edge">
<title>Node7&#45;&gt;Node8</title>
<g id="a_edge8_Node000007_Node000008"><a xlink:title=" ">
<path fill="none" stroke="#63b8ff" d="M222.86,-110.33C223.97,-103.74 225.54,-94.46 226.96,-86.07"/>
<polygon fill="#63b8ff" stroke="#63b8ff" points="230.39,-86.8 228.6,-76.35 223.49,-85.63 230.39,-86.8"/>
</a>
</g>
</g>
<!-- Node10 -->
<g id="Node000010" class="node">
<title>Node10</title>
<g id="a_Node000010"><a xlink:title=" ">
<polygon fill="#e0e0e0" stroke="#999999" points="355.12,-74.5 307.62,-74.5 307.62,-55.25 355.12,-55.25 355.12,-74.5"/>
<text text-anchor="middle" x="331.38" y="-61" font-family="Helvetica,sans-Serif" font-size="10.00">stdint.h</text>
</a>
</g>
</g>
<!-- Node7&#45;&gt;Node10 -->
<g id="edge11_Node000007_Node000010" class="edge">
<title>Node7&#45;&gt;Node10</title>
<g id="a_edge11_Node000007_Node000010"><a xlink:title=" ">
<path fill="none" stroke="#63b8ff" d="M240.04,-110.09C257.1,-101.83 282.62,-89.48 302.35,-79.93"/>
<polygon fill="#63b8ff" stroke="#63b8ff" points="303.79,-83.12 311.26,-75.61 300.74,-76.82 303.79,-83.12"/>
</a>
</g>
</g>
<!-- Node11 -->
<g id="Node000011" class="node">
<title>Node11</title>
<g id="a_Node000011"><a xlink:title=" ">
<polygon fill="#e0e0e0" stroke="#999999" points="421.12,-74.5 373.62,-74.5 373.62,-55.25 421.12,-55.25 421.12,-74.5"/>
<text text-anchor="middle" x="397.38" y="-61" font-family="Helvetica,sans-Serif" font-size="10.00">string.h</text>
</a>
</g>
</g>
<!-- Node7&#45;&gt;Node11 -->
<g id="edge12_Node000007_Node000011" class="edge">
<title>Node7&#45;&gt;Node11</title>
<g id="a_edge12_Node000007_Node000011"><a xlink:title=" ">
<path fill="none" stroke="#63b8ff" d="M251.23,-110.09C282.02,-100.78 330.01,-86.26 362.52,-76.42"/>
<polygon fill="#63b8ff" stroke="#63b8ff" points="363.32,-79.84 371.87,-73.59 361.29,-73.14 363.32,-79.84"/>
</a>
</g>
</g>
<!-- Node8&#45;&gt;Node2 -->
<g id="edge10_Node000008_Node000002" class="edge">
<title>Node8&#45;&gt;Node2</title>
<g id="a_edge10_Node000008_Node000002"><a xlink:title=" ">
<path fill="none" stroke="#63b8ff" d="M199.67,-54.84C169.77,-46.04 124.1,-32.61 90.95,-22.86"/>
<polygon fill="#63b8ff" stroke="#63b8ff" points="92.26,-19.59 81.68,-20.13 90.29,-26.31 92.26,-19.59"/>
</a>
</g>
</g>
<!-- Node9 -->
<g id="Node000009" class="node">
<title>Node9</title>
<g id="a_Node000009"><a xlink:title=" ">
<polygon fill="#e0e0e0" stroke="#999999" points="255.62,-19.25 205.12,-19.25 205.12,0 255.62,0 255.62,-19.25"/>
<text text-anchor="middle" x="230.38" y="-5.75" font-family="Helvetica,sans-Serif" font-size="10.00">stddef.h</text>
</a>
</g>
</g>
<!-- Node8&#45;&gt;Node9 -->
<g id="edge9_Node000008_Node000009" class="edge">
<title>Node8&#45;&gt;Node9</title>
<g id="a_edge9_Node000008_Node000009"><a xlink:title=" ">
<path fill="none" stroke="#63b8ff" d="M230.38,-55.08C230.38,-48.57 230.38,-39.42 230.38,-31.12"/>
<polygon fill="#63b8ff" stroke="#63b8ff" points="233.88,-31.12 230.38,-21.12 226.88,-31.12 233.88,-31.12"/>
</a>
</g>
</g>
</g>
</svg>
