<?xml version="1.0" encoding="UTF-8" standalone="no"?>
<!DOCTYPE svg PUBLIC "-//W3C//DTD SVG 1.1//EN"
 "http://www.w3.org/Graphics/SVG/1.1/DTD/svg11.dtd">
<!-- Generated by graphviz version 9.0.0 (20230911.1827)
 -->
<!-- Title: Cpl/Container/DHashTable_.h Pages: 1 -->
<svg width="589pt" height="304pt"
 viewBox="0.00 0.00 588.62 303.50" xmlns="http://www.w3.org/2000/svg" xmlns:xlink="http://www.w3.org/1999/xlink">
<g id="graph0" class="graph" transform="scale(1 1) rotate(0) translate(4 299.5)">
<title>Cpl/Container/DHashTable_.h</title>
<!-- Node1 -->
<g id="Node000001" class="node">
<title>Node1</title>
<g id="a_Node000001"><a xlink:title=" ">
<polygon fill="#999999" stroke="#666666" points="367.38,-295.5 223.12,-295.5 223.12,-276.25 367.38,-276.25 367.38,-295.5"/>
<text text-anchor="middle" x="295.25" y="-282" font-family="Helvetica,sans-Serif" font-size="10.00">Cpl/Container/DHashTable_.h</text>
</a>
</g>
</g>
<!-- Node2 -->
<g id="Node000002" class="node">
<title>Node2</title>
<g id="a_Node000002"><a xlink:href="_dict_item_8h.html" target="_top" xlink:title=" ">
<polygon fill="white" stroke="#666666" points="201.12,-185 79.38,-185 79.38,-165.75 201.12,-165.75 201.12,-185"/>
<text text-anchor="middle" x="140.25" y="-171.5" font-family="Helvetica,sans-Serif" font-size="10.00">Cpl/Container/DictItem.h</text>
</a>
</g>
</g>
<!-- Node1&#45;&gt;Node2 -->
<g id="edge1_Node000001_Node000002" class="edge">
<title>Node1&#45;&gt;Node2</title>
<g id="a_edge1_Node000001_Node000002"><a xlink:title=" ">
<path fill="none" stroke="#63b8ff" d="M274.2,-275.88C256.22,-267.76 230.03,-254.86 209.25,-240.25 189.53,-226.39 169.6,-207.27 156.27,-193.56"/>
<polygon fill="#63b8ff" stroke="#63b8ff" points="159.01,-191.37 149.57,-186.55 153.95,-196.2 159.01,-191.37"/>
</a>
</g>
</g>
<!-- Node11 -->
<g id="Node000011" class="node">
<title>Node11</title>
<g id="a_Node000011"><a xlink:href="_cpl_2_container_2_hash_8h.html" target="_top" xlink:title=" ">
<polygon fill="white" stroke="#666666" points="327.38,-185 219.12,-185 219.12,-165.75 327.38,-165.75 327.38,-185"/>
<text text-anchor="middle" x="273.25" y="-171.5" font-family="Helvetica,sans-Serif" font-size="10.00">Cpl/Container/Hash.h</text>
</a>
</g>
</g>
<!-- Node1&#45;&gt;Node11 -->
<g id="edge10_Node000001_Node000011" class="edge">
<title>Node1&#45;&gt;Node11</title>
<g id="a_edge10_Node000001_Node000011"><a xlink:title=" ">
<path fill="none" stroke="#63b8ff" d="M264.56,-275.84C247.38,-269.03 227.43,-257.79 217.25,-240.25 206.41,-221.56 226.31,-203.35 245.32,-191.19"/>
<polygon fill="#63b8ff" stroke="#63b8ff" points="246.91,-194.31 253.71,-186.18 243.33,-188.3 246.91,-194.31"/>
</a>
</g>
</g>
<!-- Node12 -->
<g id="Node000012" class="node">
<title>Node12</title>
<g id="a_Node000012"><a xlink:href="_hash_table___8h.html" target="_top" xlink:title=" ">
<polygon fill="white" stroke="#666666" points="364,-240.25 226.5,-240.25 226.5,-221 364,-221 364,-240.25"/>
<text text-anchor="middle" x="295.25" y="-226.75" font-family="Helvetica,sans-Serif" font-size="10.00">Cpl/Container/HashTable_.h</text>
</a>
</g>
</g>
<!-- Node1&#45;&gt;Node12 -->
<g id="edge11_Node000001_Node000012" class="edge">
<title>Node1&#45;&gt;Node12</title>
<g id="a_edge11_Node000001_Node000012"><a xlink:title=" ">
<path fill="none" stroke="#63b8ff" d="M295.25,-276.08C295.25,-269.57 295.25,-260.42 295.25,-252.12"/>
<polygon fill="#63b8ff" stroke="#63b8ff" points="298.75,-252.12 295.25,-242.12 291.75,-252.12 298.75,-252.12"/>
</a>
</g>
</g>
<!-- Node13 -->
<g id="Node000013" class="node">
<title>Node13</title>
<g id="a_Node000013"><a xlink:href="_d_list_8h.html" target="_top" xlink:title=" ">
<polygon fill="white" stroke="#666666" points="453.38,-185 345.12,-185 345.12,-165.75 453.38,-165.75 453.38,-185"/>
<text text-anchor="middle" x="399.25" y="-171.5" font-family="Helvetica,sans-Serif" font-size="10.00">Cpl/Container/DList.h</text>
</a>
</g>
</g>
<!-- Node1&#45;&gt;Node13 -->
<g id="edge16_Node000001_Node000013" class="edge">
<title>Node1&#45;&gt;Node13</title>
<g id="a_edge16_Node000001_Node000013"><a xlink:title=" ">
<path fill="none" stroke="#63b8ff" d="M319.92,-275.82C336.89,-268.49 358.87,-256.69 373.25,-240.25 384.24,-227.69 390.97,-209.88 394.82,-196.26"/>
<polygon fill="#63b8ff" stroke="#63b8ff" points="398.19,-197.21 397.22,-186.66 391.4,-195.51 398.19,-197.21"/>
</a>
</g>
</g>
<!-- Node14 -->
<g id="Node000014" class="node">
<title>Node14</title>
<g id="a_Node000014"><a xlink:href="_hash_func_default_8h.html" target="_top" xlink:title=" ">
<polygon fill="white" stroke="#666666" points="580.62,-240.25 419.88,-240.25 419.88,-221 580.62,-221 580.62,-240.25"/>
<text text-anchor="middle" x="500.25" y="-226.75" font-family="Helvetica,sans-Serif" font-size="10.00">Cpl/Container/HashFuncDefault.h</text>
</a>
</g>
</g>
<!-- Node1&#45;&gt;Node14 -->
<g id="edge15_Node000001_Node000014" class="edge">
<title>Node1&#45;&gt;Node14</title>
<g id="a_edge15_Node000001_Node000014"><a xlink:title=" ">
<path fill="none" stroke="#63b8ff" d="M330.03,-275.84C364.34,-266.93 416.97,-253.26 454.62,-243.48"/>
<polygon fill="#63b8ff" stroke="#63b8ff" points="455.04,-246.98 463.84,-241.08 453.28,-240.21 455.04,-246.98"/>
</a>
</g>
</g>
<!-- Node3 -->
<g id="Node000003" class="node">
<title>Node3</title>
<g id="a_Node000003"><a xlink:href="_item_8h.html" target="_top" xlink:title=" ">
<polygon fill="white" stroke="#666666" points="132.5,-129.75 28,-129.75 28,-110.5 132.5,-110.5 132.5,-129.75"/>
<text text-anchor="middle" x="80.25" y="-116.25" font-family="Helvetica,sans-Serif" font-size="10.00">Cpl/Container/Item.h</text>
</a>
</g>
</g>
<!-- Node2&#45;&gt;Node3 -->
<g id="edge2_Node000002_Node000003" class="edge">
<title>Node2&#45;&gt;Node3</title>
<g id="a_edge2_Node000002_Node000003"><a xlink:title=" ">
<path fill="none" stroke="#63b8ff" d="M130.07,-165.34C121.49,-157.72 108.98,-146.62 98.65,-137.45"/>
<polygon fill="#63b8ff" stroke="#63b8ff" points="101.21,-135.05 91.41,-131.03 96.57,-140.29 101.21,-135.05"/>
</a>
</g>
</g>
<!-- Node4 -->
<g id="Node000004" class="node">
<title>Node4</title>
<g id="a_Node000004"><a xlink:href="_key_8h.html" target="_top" xlink:title=" ">
<polygon fill="white" stroke="#666666" points="252,-129.75 150.5,-129.75 150.5,-110.5 252,-110.5 252,-129.75"/>
<text text-anchor="middle" x="201.25" y="-116.25" font-family="Helvetica,sans-Serif" font-size="10.00">Cpl/Container/Key.h</text>
</a>
</g>
</g>
<!-- Node2&#45;&gt;Node4 -->
<g id="edge3_Node000002_Node000004" class="edge">
<title>Node2&#45;&gt;Node4</title>
<g id="a_edge3_Node000002_Node000004"><a xlink:title=" ">
<path fill="none" stroke="#63b8ff" d="M150.6,-165.34C159.33,-157.72 172.04,-146.62 182.55,-137.45"/>
<polygon fill="#63b8ff" stroke="#63b8ff" points="184.68,-140.23 189.91,-131.02 180.08,-134.96 184.68,-140.23"/>
</a>
</g>
</g>
<!-- Node5 -->
<g id="Node000005" class="node">
<title>Node5</title>
<g id="a_Node000005"><a xlink:href="_fatal_error_8h.html" target="_top" xlink:title=" ">
<polygon fill="white" stroke="#666666" points="126.62,-74.5 7.88,-74.5 7.88,-55.25 126.62,-55.25 126.62,-74.5"/>
<text text-anchor="middle" x="67.25" y="-61" font-family="Helvetica,sans-Serif" font-size="10.00">Cpl/System/FatalError.h</text>
</a>
</g>
</g>
<!-- Node4&#45;&gt;Node5 -->
<g id="edge4_Node000004_Node000005" class="edge">
<title>Node4&#45;&gt;Node5</title>
<g id="a_edge4_Node000004_Node000005"><a xlink:title=" ">
<path fill="none" stroke="#63b8ff" d="M178.52,-110.09C157.15,-101.6 124.91,-88.79 100.62,-79.14"/>
<polygon fill="#63b8ff" stroke="#63b8ff" points="102.09,-75.95 91.5,-75.51 99.5,-82.46 102.09,-75.95"/>
</a>
</g>
</g>
<!-- Node8 -->
<g id="Node000008" class="node">
<title>Node8</title>
<g id="a_Node000008"><a xlink:title=" ">
<polygon fill="#e0e0e0" stroke="#999999" points="192,-74.5 144.5,-74.5 144.5,-55.25 192,-55.25 192,-74.5"/>
<text text-anchor="middle" x="168.25" y="-61" font-family="Helvetica,sans-Serif" font-size="10.00">stdint.h</text>
</a>
</g>
</g>
<!-- Node4&#45;&gt;Node8 -->
<g id="edge7_Node000004_Node000008" class="edge">
<title>Node4&#45;&gt;Node8</title>
<g id="a_edge7_Node000004_Node000008"><a xlink:title=" ">
<path fill="none" stroke="#63b8ff" d="M195.8,-110.33C191.48,-103.36 185.29,-93.37 179.87,-84.62"/>
<polygon fill="#63b8ff" stroke="#63b8ff" points="182.86,-82.8 174.61,-76.15 176.91,-86.49 182.86,-82.8"/>
</a>
</g>
</g>
<!-- Node9 -->
<g id="Node000009" class="node">
<title>Node9</title>
<g id="a_Node000009"><a xlink:title=" ">
<polygon fill="#e0e0e0" stroke="#999999" points="258,-74.5 210.5,-74.5 210.5,-55.25 258,-55.25 258,-74.5"/>
<text text-anchor="middle" x="234.25" y="-61" font-family="Helvetica,sans-Serif" font-size="10.00">string.h</text>
</a>
</g>
</g>
<!-- Node4&#45;&gt;Node9 -->
<g id="edge8_Node000004_Node000009" class="edge">
<title>Node4&#45;&gt;Node9</title>
<g id="a_edge8_Node000004_Node000009"><a xlink:title=" ">
<path fill="none" stroke="#63b8ff" d="M206.7,-110.33C211.02,-103.36 217.21,-93.37 222.63,-84.62"/>
<polygon fill="#63b8ff" stroke="#63b8ff" points="225.59,-86.49 227.89,-76.15 219.64,-82.8 225.59,-86.49"/>
</a>
</g>
</g>
<!-- Node10 -->
<g id="Node000010" class="node">
<title>Node10</title>
<g id="a_Node000010"><a xlink:title=" ">
<polygon fill="#e0e0e0" stroke="#999999" points="350.88,-74.5 275.62,-74.5 275.62,-55.25 350.88,-55.25 350.88,-74.5"/>
<text text-anchor="middle" x="313.25" y="-61" font-family="Helvetica,sans-Serif" font-size="10.00">colony_map.h</text>
</a>
</g>
</g>
<!-- Node4&#45;&gt;Node10 -->
<g id="edge9_Node000004_Node000010" class="edge">
<title>Node4&#45;&gt;Node10</title>
<g id="a_edge9_Node000004_Node000010"><a xlink:title=" ">
<path fill="none" stroke="#63b8ff" d="M220.25,-110.09C237.71,-101.79 263.85,-89.36 283.97,-79.79"/>
<polygon fill="#63b8ff" stroke="#63b8ff" points="285.26,-83.06 292.79,-75.6 282.26,-76.74 285.26,-83.06"/>
</a>
</g>
</g>
<!-- Node6 -->
<g id="Node000006" class="node">
<title>Node6</title>
<g id="a_Node000006"><a xlink:title=" ">
<polygon fill="#e0e0e0" stroke="#999999" points="50.5,-19.25 0,-19.25 0,0 50.5,0 50.5,-19.25"/>
<text text-anchor="middle" x="25.25" y="-5.75" font-family="Helvetica,sans-Serif" font-size="10.00">stddef.h</text>
</a>
</g>
</g>
<!-- Node5&#45;&gt;Node6 -->
<g id="edge5_Node000005_Node000006" class="edge">
<title>Node5&#45;&gt;Node6</title>
<g id="a_edge5_Node000005_Node000006"><a xlink:title=" ">
<path fill="none" stroke="#63b8ff" d="M60.31,-55.08C54.63,-47.88 46.41,-37.46 39.36,-28.51"/>
<polygon fill="#63b8ff" stroke="#63b8ff" points="42.21,-26.48 33.27,-20.8 36.72,-30.82 42.21,-26.48"/>
</a>
</g>
</g>
<!-- Node7 -->
<g id="Node000007" class="node">
<title>Node7</title>
<g id="a_Node000007"><a xlink:title=" ">
<polygon fill="#e0e0e0" stroke="#999999" points="150.25,-19.25 68.25,-19.25 68.25,0 150.25,0 150.25,-19.25"/>
<text text-anchor="middle" x="109.25" y="-5.75" font-family="Helvetica,sans-Serif" font-size="10.00">colony_config.h</text>
</a>
</g>
</g>
<!-- Node5&#45;&gt;Node7 -->
<g id="edge6_Node000005_Node000007" class="edge">
<title>Node5&#45;&gt;Node7</title>
<g id="a_edge6_Node000005_Node000007"><a xlink:title=" ">
<path fill="none" stroke="#63b8ff" d="M74.19,-55.08C79.87,-47.88 88.09,-37.46 95.14,-28.51"/>
<polygon fill="#63b8ff" stroke="#63b8ff" points="97.78,-30.82 101.23,-20.8 92.29,-26.48 97.78,-30.82"/>
</a>
</g>
</g>
<!-- Node12&#45;&gt;Node2 -->
<g id="edge12_Node000012_Node000002" class="edge">
<title>Node12&#45;&gt;Node2</title>
<g id="a_edge12_Node000012_Node000002"><a xlink:title=" ">
<path fill="none" stroke="#63b8ff" d="M268.96,-220.59C243.79,-211.95 205.6,-198.82 177.34,-189.12"/>
<polygon fill="#63b8ff" stroke="#63b8ff" points="178.7,-185.88 168.1,-185.94 176.42,-192.5 178.7,-185.88"/>
</a>
</g>
</g>
<!-- Node12&#45;&gt;Node11 -->
<g id="edge13_Node000012_Node000011" class="edge">
<title>Node12&#45;&gt;Node11</title>
<g id="a_edge13_Node000012_Node000011"><a xlink:title=" ">
<path fill="none" stroke="#63b8ff" d="M291.62,-220.83C288.83,-214.09 284.88,-204.52 281.35,-195.99"/>
<polygon fill="#63b8ff" stroke="#63b8ff" points="284.59,-194.66 277.54,-186.76 278.12,-197.34 284.59,-194.66"/>
</a>
</g>
</g>
<!-- Node12&#45;&gt;Node13 -->
<g id="edge14_Node000012_Node000013" class="edge">
<title>Node12&#45;&gt;Node13</title>
<g id="a_edge14_Node000012_Node000013"><a xlink:title=" ">
<path fill="none" stroke="#63b8ff" d="M312.89,-220.59C328.88,-212.41 352.71,-200.21 371.29,-190.69"/>
<polygon fill="#63b8ff" stroke="#63b8ff" points="372.87,-193.82 380.17,-186.14 369.68,-187.58 372.87,-193.82"/>
</a>
</g>
</g>
</g>
</svg>
