<?xml version="1.0" encoding="UTF-8" standalone="no"?>
<!DOCTYPE svg PUBLIC "-//W3C//DTD SVG 1.1//EN"
 "http://www.w3.org/Graphics/SVG/1.1/DTD/svg11.dtd">
<!-- Generated by graphviz version 9.0.0 (20230911.1827)
 -->
<!-- Title: Cpl/Text/DString.h Pages: 1 -->
<svg width="442pt" height="304pt"
 viewBox="0.00 0.00 441.62 303.50" xmlns="http://www.w3.org/2000/svg" xmlns:xlink="http://www.w3.org/1999/xlink">
<g id="graph0" class="graph" transform="scale(1 1) rotate(0) translate(4 299.5)">
<title>Cpl/Text/DString.h</title>
<!-- Node1 -->
<g id="Node000001" class="node">
<title>Node1</title>
<g id="a_Node000001"><a xlink:title=" ">
<polygon fill="#999999" stroke="#666666" points="419,-295.5 324.25,-295.5 324.25,-276.25 419,-276.25 419,-295.5"/>
<text text-anchor="middle" x="371.62" y="-282" font-family="Helvetica,sans-Serif" font-size="10.00">Cpl/Text/DString.h</text>
</a>
</g>
</g>
<!-- Node2 -->
<g id="Node000002" class="node">
<title>Node2</title>
<g id="a_Node000002"><a xlink:href="_string___8h.html" target="_top" xlink:title=" ">
<polygon fill="white" stroke="#666666" points="318.25,-240.25 225,-240.25 225,-221 318.25,-221 318.25,-240.25"/>
<text text-anchor="middle" x="271.62" y="-226.75" font-family="Helvetica,sans-Serif" font-size="10.00">Cpl/Text/String_.h</text>
</a>
</g>
</g>
<!-- Node1&#45;&gt;Node2 -->
<g id="edge1_Node000001_Node000002" class="edge">
<title>Node1&#45;&gt;Node2</title>
<g id="a_edge1_Node000001_Node000002"><a xlink:title=" ">
<path fill="none" stroke="#63b8ff" d="M354.66,-275.84C339.36,-267.69 316.59,-255.57 298.76,-246.08"/>
<polygon fill="#63b8ff" stroke="#63b8ff" points="300.48,-243.02 290.01,-241.41 297.19,-249.2 300.48,-243.02"/>
</a>
</g>
</g>
<!-- Node8 -->
<g id="Node000008" class="node">
<title>Node8</title>
<g id="a_Node000008"><a xlink:title=" ">
<polygon fill="#e0e0e0" stroke="#999999" points="344.62,-19.25 262.62,-19.25 262.62,0 344.62,0 344.62,-19.25"/>
<text text-anchor="middle" x="303.62" y="-5.75" font-family="Helvetica,sans-Serif" font-size="10.00">colony_config.h</text>
</a>
</g>
</g>
<!-- Node1&#45;&gt;Node8 -->
<g id="edge13_Node000001_Node000008" class="edge">
<title>Node1&#45;&gt;Node8</title>
<g id="a_edge13_Node000001_Node000008"><a xlink:title=" ">
<path fill="none" stroke="#63b8ff" d="M371.62,-275.87C371.62,-257.28 371.62,-213.3 371.62,-176.38 371.62,-176.38 371.62,-176.38 371.62,-119.12 371.62,-89.51 368.37,-80.33 352.62,-55.25 345.74,-44.29 335.45,-34.34 326.07,-26.64"/>
<polygon fill="#63b8ff" stroke="#63b8ff" points="328.39,-24.01 318.35,-20.65 324.1,-29.54 328.39,-24.01"/>
</a>
</g>
</g>
<!-- Node13 -->
<g id="Node000013" class="node">
<title>Node13</title>
<g id="a_Node000013"><a xlink:title=" ">
<polygon fill="#e0e0e0" stroke="#999999" points="433.62,-240.25 399.62,-240.25 399.62,-221 433.62,-221 433.62,-240.25"/>
<text text-anchor="middle" x="416.62" y="-226.75" font-family="Helvetica,sans-Serif" font-size="10.00">new</text>
</a>
</g>
</g>
<!-- Node1&#45;&gt;Node13 -->
<g id="edge14_Node000001_Node000013" class="edge">
<title>Node1&#45;&gt;Node13</title>
<g id="a_edge14_Node000001_Node000013"><a xlink:title=" ">
<path fill="none" stroke="#63b8ff" d="M379.06,-276.08C385.21,-268.8 394.14,-258.23 401.75,-249.23"/>
<polygon fill="#63b8ff" stroke="#63b8ff" points="404.27,-251.66 408.06,-241.77 398.93,-247.14 404.27,-251.66"/>
</a>
</g>
</g>
<!-- Node3 -->
<g id="Node000003" class="node">
<title>Node3</title>
<g id="a_Node000003"><a xlink:href="_text_2_string_8h.html" target="_top" xlink:title=" ">
<polygon fill="white" stroke="#666666" points="290.62,-185 202.62,-185 202.62,-165.75 290.62,-165.75 290.62,-185"/>
<text text-anchor="middle" x="246.62" y="-171.5" font-family="Helvetica,sans-Serif" font-size="10.00">Cpl/Text/String.h</text>
</a>
</g>
</g>
<!-- Node2&#45;&gt;Node3 -->
<g id="edge2_Node000002_Node000003" class="edge">
<title>Node2&#45;&gt;Node3</title>
<g id="a_edge2_Node000002_Node000003"><a xlink:title=" ">
<path fill="none" stroke="#63b8ff" d="M267.5,-220.83C264.3,-214.01 259.74,-204.31 255.7,-195.7"/>
<polygon fill="#63b8ff" stroke="#63b8ff" points="258.9,-194.29 251.49,-186.73 252.57,-197.27 258.9,-194.29"/>
</a>
</g>
</g>
<!-- Node4 -->
<g id="Node000004" class="node">
<title>Node4</title>
<g id="a_Node000004"><a xlink:title=" ">
<polygon fill="#e0e0e0" stroke="#999999" points="75.25,-74.5 0,-74.5 0,-55.25 75.25,-55.25 75.25,-74.5"/>
<text text-anchor="middle" x="37.62" y="-61" font-family="Helvetica,sans-Serif" font-size="10.00">colony_map.h</text>
</a>
</g>
</g>
<!-- Node3&#45;&gt;Node4 -->
<g id="edge3_Node000003_Node000004" class="edge">
<title>Node3&#45;&gt;Node4</title>
<g id="a_edge3_Node000003_Node000004"><a xlink:title=" ">
<path fill="none" stroke="#63b8ff" d="M202.33,-168.48C169.94,-162.59 126,-151.19 92.62,-129.75 74.39,-118.04 58.85,-98.51 48.99,-84.12"/>
<polygon fill="#63b8ff" stroke="#63b8ff" points="52.08,-82.46 43.68,-76 46.23,-86.29 52.08,-82.46"/>
</a>
</g>
</g>
<!-- Node5 -->
<g id="Node000005" class="node">
<title>Node5</title>
<g id="a_Node000005"><a xlink:href="_key_8h.html" target="_top" xlink:title=" ">
<polygon fill="white" stroke="#666666" points="203.38,-129.75 101.88,-129.75 101.88,-110.5 203.38,-110.5 203.38,-129.75"/>
<text text-anchor="middle" x="152.62" y="-116.25" font-family="Helvetica,sans-Serif" font-size="10.00">Cpl/Container/Key.h</text>
</a>
</g>
</g>
<!-- Node3&#45;&gt;Node5 -->
<g id="edge4_Node000003_Node000005" class="edge">
<title>Node3&#45;&gt;Node5</title>
<g id="a_edge4_Node000003_Node000005"><a xlink:title=" ">
<path fill="none" stroke="#63b8ff" d="M230.68,-165.34C216.36,-157.23 195.09,-145.18 178.37,-135.71"/>
<polygon fill="#63b8ff" stroke="#63b8ff" points="180.39,-132.83 169.97,-130.95 176.94,-138.92 180.39,-132.83"/>
</a>
</g>
</g>
<!-- Node11 -->
<g id="Node000011" class="node">
<title>Node11</title>
<g id="a_Node000011"><a xlink:title=" ">
<polygon fill="#e0e0e0" stroke="#999999" points="271.88,-129.75 221.38,-129.75 221.38,-110.5 271.88,-110.5 271.88,-129.75"/>
<text text-anchor="middle" x="246.62" y="-116.25" font-family="Helvetica,sans-Serif" font-size="10.00">stdarg.h</text>
</a>
</g>
</g>
<!-- Node3&#45;&gt;Node11 -->
<g id="edge11_Node000003_Node000011" class="edge">
<title>Node3&#45;&gt;Node11</title>
<g id="a_edge11_Node000003_Node000011"><a xlink:title=" ">
<path fill="none" stroke="#63b8ff" d="M246.62,-165.58C246.62,-159.07 246.62,-149.92 246.62,-141.62"/>
<polygon fill="#63b8ff" stroke="#63b8ff" points="250.13,-141.62 246.63,-131.62 243.13,-141.62 250.13,-141.62"/>
</a>
</g>
</g>
<!-- Node12 -->
<g id="Node000012" class="node">
<title>Node12</title>
<g id="a_Node000012"><a xlink:title=" ">
<polygon fill="#e0e0e0" stroke="#999999" points="343.38,-129.75 289.88,-129.75 289.88,-110.5 343.38,-110.5 343.38,-129.75"/>
<text text-anchor="middle" x="316.62" y="-116.25" font-family="Helvetica,sans-Serif" font-size="10.00">iostream</text>
</a>
</g>
</g>
<!-- Node3&#45;&gt;Node12 -->
<g id="edge12_Node000003_Node000012" class="edge">
<title>Node3&#45;&gt;Node12</title>
<g id="a_edge12_Node000003_Node000012"><a xlink:title=" ">
<path fill="none" stroke="#63b8ff" d="M258.5,-165.34C268.72,-157.57 283.7,-146.17 295.89,-136.9"/>
<polygon fill="#63b8ff" stroke="#63b8ff" points="297.88,-139.78 303.72,-130.94 293.64,-134.21 297.88,-139.78"/>
</a>
</g>
</g>
<!-- Node5&#45;&gt;Node4 -->
<g id="edge10_Node000005_Node000004" class="edge">
<title>Node5&#45;&gt;Node4</title>
<g id="a_edge10_Node000005_Node000004"><a xlink:title=" ">
<path fill="none" stroke="#63b8ff" d="M133.12,-110.09C115.11,-101.75 88.1,-89.25 67.4,-79.66"/>
<polygon fill="#63b8ff" stroke="#63b8ff" points="69.15,-76.61 58.6,-75.59 66.21,-82.97 69.15,-76.61"/>
</a>
</g>
</g>
<!-- Node6 -->
<g id="Node000006" class="node">
<title>Node6</title>
<g id="a_Node000006"><a xlink:href="_fatal_error_8h.html" target="_top" xlink:title=" ">
<polygon fill="white" stroke="#666666" points="212,-74.5 93.25,-74.5 93.25,-55.25 212,-55.25 212,-74.5"/>
<text text-anchor="middle" x="152.62" y="-61" font-family="Helvetica,sans-Serif" font-size="10.00">Cpl/System/FatalError.h</text>
</a>
</g>
</g>
<!-- Node5&#45;&gt;Node6 -->
<g id="edge5_Node000005_Node000006" class="edge">
<title>Node5&#45;&gt;Node6</title>
<g id="a_edge5_Node000005_Node000006"><a xlink:title=" ">
<path fill="none" stroke="#63b8ff" d="M152.62,-110.33C152.62,-103.82 152.62,-94.67 152.62,-86.37"/>
<polygon fill="#63b8ff" stroke="#63b8ff" points="156.13,-86.37 152.63,-76.37 149.13,-86.37 156.13,-86.37"/>
</a>
</g>
</g>
<!-- Node9 -->
<g id="Node000009" class="node">
<title>Node9</title>
<g id="a_Node000009"><a xlink:title=" ">
<polygon fill="#e0e0e0" stroke="#999999" points="277.38,-74.5 229.88,-74.5 229.88,-55.25 277.38,-55.25 277.38,-74.5"/>
<text text-anchor="middle" x="253.62" y="-61" font-family="Helvetica,sans-Serif" font-size="10.00">stdint.h</text>
</a>
</g>
</g>
<!-- Node5&#45;&gt;Node9 -->
<g id="edge8_Node000005_Node000009" class="edge">
<title>Node5&#45;&gt;Node9</title>
<g id="a_edge8_Node000005_Node000009"><a xlink:title=" ">
<path fill="none" stroke="#63b8ff" d="M169.76,-110.09C185.28,-101.91 208.43,-89.71 226.47,-80.19"/>
<polygon fill="#63b8ff" stroke="#63b8ff" points="227.86,-83.42 235.07,-75.66 224.59,-77.23 227.86,-83.42"/>
</a>
</g>
</g>
<!-- Node10 -->
<g id="Node000010" class="node">
<title>Node10</title>
<g id="a_Node000010"><a xlink:title=" ">
<polygon fill="#e0e0e0" stroke="#999999" points="343.38,-74.5 295.88,-74.5 295.88,-55.25 343.38,-55.25 343.38,-74.5"/>
<text text-anchor="middle" x="319.62" y="-61" font-family="Helvetica,sans-Serif" font-size="10.00">string.h</text>
</a>
</g>
</g>
<!-- Node5&#45;&gt;Node10 -->
<g id="edge9_Node000005_Node000010" class="edge">
<title>Node5&#45;&gt;Node10</title>
<g id="a_edge9_Node000005_Node000010"><a xlink:title=" ">
<path fill="none" stroke="#63b8ff" d="M180.95,-110.09C209.63,-100.95 254.02,-86.79 284.82,-76.97"/>
<polygon fill="#63b8ff" stroke="#63b8ff" points="285.59,-80.4 294.06,-74.03 283.47,-73.73 285.59,-80.4"/>
</a>
</g>
</g>
<!-- Node7 -->
<g id="Node000007" class="node">
<title>Node7</title>
<g id="a_Node000007"><a xlink:title=" ">
<polygon fill="#e0e0e0" stroke="#999999" points="177.88,-19.25 127.38,-19.25 127.38,0 177.88,0 177.88,-19.25"/>
<text text-anchor="middle" x="152.62" y="-5.75" font-family="Helvetica,sans-Serif" font-size="10.00">stddef.h</text>
</a>
</g>
</g>
<!-- Node6&#45;&gt;Node7 -->
<g id="edge6_Node000006_Node000007" class="edge">
<title>Node6&#45;&gt;Node7</title>
<g id="a_edge6_Node000006_Node000007"><a xlink:title=" ">
<path fill="none" stroke="#63b8ff" d="M152.62,-55.08C152.62,-48.57 152.62,-39.42 152.62,-31.12"/>
<polygon fill="#63b8ff" stroke="#63b8ff" points="156.13,-31.12 152.63,-21.12 149.13,-31.12 156.13,-31.12"/>
</a>
</g>
</g>
<!-- Node6&#45;&gt;Node8 -->
<g id="edge7_Node000006_Node000008" class="edge">
<title>Node6&#45;&gt;Node8</title>
<g id="a_edge7_Node000006_Node000008"><a xlink:title=" ">
<path fill="none" stroke="#63b8ff" d="M178.24,-54.84C202.64,-46.24 239.64,-33.19 267.12,-23.5"/>
<polygon fill="#63b8ff" stroke="#63b8ff" points="268.19,-26.83 276.46,-20.21 265.86,-20.23 268.19,-26.83"/>
</a>
</g>
</g>
</g>
</svg>
