<?xml version="1.0" encoding="UTF-8" standalone="no"?>
<!DOCTYPE svg PUBLIC "-//W3C//DTD SVG 1.1//EN"
 "http://www.w3.org/Graphics/SVG/1.1/DTD/svg11.dtd">
<!-- Generated by graphviz version 9.0.0 (20230911.1827)
 -->
<!-- Title: Cpl/Io/Descriptor.h Pages: 1 -->
<svg width="1963pt" height="216pt"
 viewBox="0.00 0.00 1963.00 215.50" xmlns="http://www.w3.org/2000/svg" xmlns:xlink="http://www.w3.org/1999/xlink">
<g id="graph0" class="graph" transform="scale(1 1) rotate(0) translate(4 211.5)">
<title>Cpl/Io/Descriptor.h</title>
<!-- Node1 -->
<g id="Node000001" class="node">
<title>Node1</title>
<g id="a_Node000001"><a xlink:title=" ">
<polygon fill="#999999" stroke="#666666" points="581.25,-207.5 485,-207.5 485,-188.25 581.25,-188.25 581.25,-207.5"/>
<text text-anchor="middle" x="533.12" y="-194" font-family="Helvetica,sans-Serif" font-size="10.00">Cpl/Io/Descriptor.h</text>
</a>
</g>
</g>
<!-- Node2 -->
<g id="Node000002" class="node">
<title>Node2</title>
<g id="a_Node000002"><a xlink:href="_common___8h.html" target="_top" xlink:title=" ">
<polygon fill="white" stroke="#666666" points="123.62,-152.25 8.62,-152.25 8.62,-133 123.62,-133 123.62,-152.25"/>
<text text-anchor="middle" x="66.12" y="-138.75" font-family="Helvetica,sans-Serif" font-size="10.00">Cpl/Io/File/Common_.h</text>
</a>
</g>
</g>
<!-- Node1&#45;&gt;Node2 -->
<g id="edge1_Node000001_Node000002" class="edge">
<title>Node1&#45;&gt;Node2</title>
<g id="a_edge1_Node000001_Node000002"><a xlink:title=" ">
<path fill="none" stroke="#63b8ff" d="M473.7,-190.56C395.55,-182.19 253.97,-166.77 133.12,-152.25 130.1,-151.89 126.99,-151.51 123.86,-151.12"/>
<polygon fill="#63b8ff" stroke="#63b8ff" points="472.94,-194 483.26,-191.59 473.68,-187.04 472.94,-194"/>
</a>
</g>
</g>
<!-- Node3 -->
<g id="Node000003" class="node">
<title>Node3</title>
<g id="a_Node000003"><a xlink:href="_connector_8h.html" target="_top" xlink:title=" ">
<polygon fill="white" stroke="#666666" points="272.12,-152.25 142.12,-152.25 142.12,-133 272.12,-133 272.12,-152.25"/>
<text text-anchor="middle" x="207.12" y="-138.75" font-family="Helvetica,sans-Serif" font-size="10.00">Cpl/Io/Socket/Connector.h</text>
</a>
</g>
</g>
<!-- Node1&#45;&gt;Node3 -->
<g id="edge2_Node000001_Node000003" class="edge">
<title>Node1&#45;&gt;Node3</title>
<g id="a_edge2_Node000001_Node000003"><a xlink:title=" ">
<path fill="none" stroke="#63b8ff" d="M473.48,-187.13C413.45,-177.33 321.59,-162.32 262.96,-152.74"/>
<polygon fill="#63b8ff" stroke="#63b8ff" points="472.74,-190.56 483.18,-188.72 473.87,-183.65 472.74,-190.56"/>
</a>
</g>
</g>
<!-- Node6 -->
<g id="Node000006" class="node">
<title>Node6</title>
<g id="a_Node000006"><a xlink:href="_factory_8h.html" target="_top" xlink:title=" ">
<polygon fill="white" stroke="#666666" points="362.12,-91.38 244.12,-91.38 244.12,-72.12 362.12,-72.12 362.12,-91.38"/>
<text text-anchor="middle" x="303.12" y="-77.88" font-family="Helvetica,sans-Serif" font-size="10.00">Cpl/Io/Socket/Factory.h</text>
</a>
</g>
</g>
<!-- Node1&#45;&gt;Node6 -->
<g id="edge5_Node000001_Node000006" class="edge">
<title>Node1&#45;&gt;Node6</title>
<g id="a_edge5_Node000001_Node000006"><a xlink:title=" ">
<path fill="none" stroke="#63b8ff" d="M473.6,-189.21C440.44,-182.96 399.46,-171.84 367.12,-152.25 340.75,-136.27 318.6,-106.28 308.69,-91.47"/>
<polygon fill="#63b8ff" stroke="#63b8ff" points="472.57,-192.58 483.02,-190.88 473.79,-185.69 472.57,-192.58"/>
</a>
</g>
</g>
<!-- Node8 -->
<g id="Node000008" class="node">
<title>Node8</title>
<g id="a_Node000008"><a xlink:href="_socket_2_input_output_8h.html" target="_top" xlink:title=" ">
<polygon fill="white" stroke="#666666" points="512.5,-152.25 375.75,-152.25 375.75,-133 512.5,-133 512.5,-152.25"/>
<text text-anchor="middle" x="444.12" y="-138.75" font-family="Helvetica,sans-Serif" font-size="10.00">Cpl/Io/Socket/InputOutput.h</text>
</a>
</g>
</g>
<!-- Node1&#45;&gt;Node8 -->
<g id="edge7_Node000001_Node000008" class="edge">
<title>Node1&#45;&gt;Node8</title>
<g id="a_edge7_Node000001_Node000008"><a xlink:title=" ">
<path fill="none" stroke="#63b8ff" d="M508.39,-182.07C492.64,-172.65 472.75,-160.75 459.3,-152.7"/>
<polygon fill="#63b8ff" stroke="#63b8ff" points="506.35,-184.93 516.73,-187.06 509.94,-178.93 506.35,-184.93"/>
</a>
</g>
</g>
<!-- Node10 -->
<g id="Node000010" class="node">
<title>Node10</title>
<g id="a_Node000010"><a xlink:href="_listener_8h.html" target="_top" xlink:title=" ">
<polygon fill="white" stroke="#666666" points="667.62,-152.25 546.62,-152.25 546.62,-133 667.62,-133 667.62,-152.25"/>
<text text-anchor="middle" x="607.12" y="-138.75" font-family="Helvetica,sans-Serif" font-size="10.00">Cpl/Io/Socket/Listener.h</text>
</a>
</g>
</g>
<!-- Node1&#45;&gt;Node10 -->
<g id="edge11_Node000001_Node000010" class="edge">
<title>Node1&#45;&gt;Node10</title>
<g id="a_edge11_Node000001_Node000010"><a xlink:title=" ">
<path fill="none" stroke="#63b8ff" d="M554.88,-181.22C567.88,-171.87 583.91,-160.33 594.76,-152.52"/>
<polygon fill="#63b8ff" stroke="#63b8ff" points="552.98,-178.28 546.91,-186.96 557.07,-183.96 552.98,-178.28"/>
</a>
</g>
</g>
<!-- Node16 -->
<g id="Node000016" class="node">
<title>Node16</title>
<g id="a_Node000016"><a xlink:href="_input___8h.html" target="_top" xlink:title=" ">
<polygon fill="white" stroke="#666666" points="1031.38,-152.25 926.88,-152.25 926.88,-133 1031.38,-133 1031.38,-152.25"/>
<text text-anchor="middle" x="979.12" y="-138.75" font-family="Helvetica,sans-Serif" font-size="10.00">Cpl/Io/Stdio/Input_.h</text>
</a>
</g>
</g>
<!-- Node1&#45;&gt;Node16 -->
<g id="edge19_Node000001_Node000016" class="edge">
<title>Node1&#45;&gt;Node16</title>
<g id="a_edge19_Node000001_Node000016"><a xlink:title=" ">
<path fill="none" stroke="#63b8ff" d="M593.07,-189.72C680.86,-179.24 843.03,-159.87 926.48,-149.91"/>
<polygon fill="#63b8ff" stroke="#63b8ff" points="592.72,-186.23 583.21,-190.9 593.55,-193.19 592.72,-186.23"/>
</a>
</g>
</g>
<!-- Node21 -->
<g id="Node000021" class="node">
<title>Node21</title>
<g id="a_Node000021"><a xlink:href="_output___8h.html" target="_top" xlink:title=" ">
<polygon fill="white" stroke="#666666" points="1363.12,-152.25 1251.12,-152.25 1251.12,-133 1363.12,-133 1363.12,-152.25"/>
<text text-anchor="middle" x="1307.12" y="-138.75" font-family="Helvetica,sans-Serif" font-size="10.00">Cpl/Io/Stdio/Output_.h</text>
</a>
</g>
</g>
<!-- Node1&#45;&gt;Node21 -->
<g id="edge24_Node000001_Node000021" class="edge">
<title>Node1&#45;&gt;Node21</title>
<g id="a_edge24_Node000001_Node000021"><a xlink:title=" ">
<path fill="none" stroke="#63b8ff" d="M592.85,-192.77C738.22,-182.76 1108.95,-157.26 1250.77,-147.5"/>
<polygon fill="#63b8ff" stroke="#63b8ff" points="592.79,-189.26 583.05,-193.44 593.27,-196.25 592.79,-189.26"/>
</a>
</g>
</g>
<!-- Node25 -->
<g id="Node000025" class="node">
<title>Node25</title>
<g id="a_Node000025"><a xlink:href="_tcp_2_input_output_8h.html" target="_top" xlink:title=" ">
<polygon fill="white" stroke="#666666" points="1756.38,-152.25 1633.88,-152.25 1633.88,-133 1756.38,-133 1756.38,-152.25"/>
<text text-anchor="middle" x="1695.12" y="-138.75" font-family="Helvetica,sans-Serif" font-size="10.00">Cpl/Io/Tcp/InputOutput.h</text>
</a>
</g>
</g>
<!-- Node1&#45;&gt;Node25 -->
<g id="edge29_Node000001_Node000025" class="edge">
<title>Node1&#45;&gt;Node25</title>
<g id="a_edge29_Node000001_Node000025"><a xlink:title=" ">
<path fill="none" stroke="#63b8ff" d="M592.95,-194.13C792.14,-185.01 1431.72,-155.7 1633.52,-146.45"/>
<polygon fill="#63b8ff" stroke="#63b8ff" points="592.92,-190.63 583.09,-194.59 593.24,-197.62 592.92,-190.63"/>
</a>
</g>
</g>
<!-- Node4 -->
<g id="Node000004" class="node">
<title>Node4</title>
<g id="a_Node000004"><a xlink:href="_posix_2_connector_8h.html" target="_top" xlink:title=" ">
<polygon fill="white" stroke="#666666" points="102.25,-97 0,-97 0,-66.5 102.25,-66.5 102.25,-97"/>
<text text-anchor="start" x="8" y="-83.5" font-family="Helvetica,sans-Serif" font-size="10.00">Cpl/Io/Socket/Posix</text>
<text text-anchor="middle" x="51.12" y="-72.25" font-family="Helvetica,sans-Serif" font-size="10.00">/Connector.h</text>
</a>
</g>
</g>
<!-- Node3&#45;&gt;Node4 -->
<g id="edge3_Node000003_Node000004" class="edge">
<title>Node3&#45;&gt;Node4</title>
<g id="a_edge3_Node000003_Node000004"><a xlink:title=" ">
<path fill="none" stroke="#63b8ff" d="M172.52,-128.56C148.11,-119.35 115.38,-107 90.06,-97.44"/>
<polygon fill="#63b8ff" stroke="#63b8ff" points="171.08,-131.76 181.68,-132.02 173.56,-125.21 171.08,-131.76"/>
</a>
</g>
</g>
<!-- Node5 -->
<g id="Node000005" class="node">
<title>Node5</title>
<g id="a_Node000005"><a xlink:href="_win32_2_connector_8h.html" target="_top" xlink:title=" ">
<polygon fill="white" stroke="#666666" points="225.75,-97 120.5,-97 120.5,-66.5 225.75,-66.5 225.75,-97"/>
<text text-anchor="start" x="128.5" y="-83.5" font-family="Helvetica,sans-Serif" font-size="10.00">Cpl/Io/Socket/Win32</text>
<text text-anchor="middle" x="173.12" y="-72.25" font-family="Helvetica,sans-Serif" font-size="10.00">/Connector.h</text>
</a>
</g>
</g>
<!-- Node3&#45;&gt;Node5 -->
<g id="edge4_Node000003_Node000005" class="edge">
<title>Node3&#45;&gt;Node5</title>
<g id="a_edge4_Node000003_Node000005"><a xlink:title=" ">
<path fill="none" stroke="#63b8ff" d="M196.27,-122.82C191.49,-114.55 185.97,-104.99 181.52,-97.28"/>
<polygon fill="#63b8ff" stroke="#63b8ff" points="193.17,-124.46 201.2,-131.37 199.23,-120.96 193.17,-124.46"/>
</a>
</g>
</g>
<!-- Node7 -->
<g id="Node000007" class="node">
<title>Node7</title>
<g id="a_Node000007"><a xlink:href="_stream_pool_8h.html" target="_top" xlink:title=" ">
<polygon fill="white" stroke="#666666" points="415.5,-24.88 278.75,-24.88 278.75,-5.63 415.5,-5.63 415.5,-24.88"/>
<text text-anchor="middle" x="347.12" y="-11.38" font-family="Helvetica,sans-Serif" font-size="10.00">Cpl/Io/Socket/StreamPool.h</text>
</a>
</g>
</g>
<!-- Node6&#45;&gt;Node7 -->
<g id="edge6_Node000006_Node000007" class="edge">
<title>Node6&#45;&gt;Node7</title>
<g id="a_edge6_Node000006_Node000007"><a xlink:title=" ">
<path fill="none" stroke="#63b8ff" d="M315.57,-62.5C323.91,-50.29 334.51,-34.74 341.06,-25.14"/>
<polygon fill="#63b8ff" stroke="#63b8ff" points="312.84,-60.3 310.1,-70.53 318.62,-64.24 312.84,-60.3"/>
</a>
</g>
</g>
<!-- Node8&#45;&gt;Node6 -->
<g id="edge8_Node000008_Node000006" class="edge">
<title>Node8&#45;&gt;Node6</title>
<g id="a_edge8_Node000008_Node000006"><a xlink:title=" ">
<path fill="none" stroke="#63b8ff" d="M412.02,-128.22C385.27,-117.05 347.91,-101.45 324.64,-91.73"/>
<polygon fill="#63b8ff" stroke="#63b8ff" points="410.43,-131.35 421.01,-131.97 413.13,-124.89 410.43,-131.35"/>
</a>
</g>
</g>
<!-- Node8&#45;&gt;Node7 -->
<g id="edge9_Node000008_Node000007" class="edge">
<title>Node8&#45;&gt;Node7</title>
<g id="a_edge9_Node000008_Node000007"><a xlink:title=" ">
<path fill="none" stroke="#63b8ff" d="M430.07,-123.8C423.67,-115.64 415.99,-105.85 409.12,-97 388.97,-71.03 365.37,-40.17 353.98,-25.24"/>
<polygon fill="#63b8ff" stroke="#63b8ff" points="427.25,-125.87 436.19,-131.57 432.75,-121.54 427.25,-125.87"/>
</a>
</g>
</g>
<!-- Node9 -->
<g id="Node000009" class="node">
<title>Node9</title>
<g id="a_Node000009"><a xlink:href="_socket_8h.html" target="_top" xlink:title=" ">
<polygon fill="white" stroke="#666666" points="520.25,-91.38 418,-91.38 418,-72.12 520.25,-72.12 520.25,-91.38"/>
<text text-anchor="middle" x="469.12" y="-77.88" font-family="Helvetica,sans-Serif" font-size="10.00">Cpl/TShell/Socket.h</text>
</a>
</g>
</g>
<!-- Node8&#45;&gt;Node9 -->
<g id="edge10_Node000008_Node000009" class="edge">
<title>Node8&#45;&gt;Node9</title>
<g id="a_edge10_Node000008_Node000009"><a xlink:title=" ">
<path fill="none" stroke="#63b8ff" d="M452.37,-122.2C456.73,-111.94 461.87,-99.84 465.29,-91.78"/>
<polygon fill="#63b8ff" stroke="#63b8ff" points="449.2,-120.72 448.51,-131.29 455.64,-123.45 449.2,-120.72"/>
</a>
</g>
</g>
<!-- Node10&#45;&gt;Node9 -->
<g id="edge18_Node000010_Node000009" class="edge">
<title>Node10&#45;&gt;Node9</title>
<g id="a_edge18_Node000010_Node000009"><a xlink:title=" ">
<path fill="none" stroke="#63b8ff" d="M575.35,-128.07C549.2,-116.91 512.86,-101.41 490.18,-91.73"/>
<polygon fill="#63b8ff" stroke="#63b8ff" points="573.9,-131.26 584.47,-131.96 576.65,-124.82 573.9,-131.26"/>
</a>
</g>
</g>
<!-- Node11 -->
<g id="Node000011" class="node">
<title>Node11</title>
<g id="a_Node000011"><a xlink:href="_listener_client_request_8h.html" target="_top" xlink:title=" ">
<polygon fill="white" stroke="#666666" points="676.25,-97 538,-97 538,-66.5 676.25,-66.5 676.25,-97"/>
<text text-anchor="start" x="546" y="-83.5" font-family="Helvetica,sans-Serif" font-size="10.00">Cpl/Io/Socket/ListenerClient</text>
<text text-anchor="middle" x="607.12" y="-72.25" font-family="Helvetica,sans-Serif" font-size="10.00">Request.h</text>
</a>
</g>
</g>
<!-- Node10&#45;&gt;Node11 -->
<g id="edge12_Node000010_Node000011" class="edge">
<title>Node10&#45;&gt;Node11</title>
<g id="a_edge12_Node000010_Node000011"><a xlink:title=" ">
<path fill="none" stroke="#63b8ff" d="M607.12,-121.42C607.12,-113.49 607.12,-104.56 607.12,-97.28"/>
<polygon fill="#63b8ff" stroke="#63b8ff" points="603.63,-121.17 607.13,-131.17 610.63,-121.17 603.63,-121.17"/>
</a>
</g>
</g>
<!-- Node12 -->
<g id="Node000012" class="node">
<title>Node12</title>
<g id="a_Node000012"><a xlink:href="_listener_client_sync_8h.html" target="_top" xlink:title=" ">
<polygon fill="white" stroke="#666666" points="688.25,-30.5 550,-30.5 550,0 688.25,0 688.25,-30.5"/>
<text text-anchor="start" x="558" y="-17" font-family="Helvetica,sans-Serif" font-size="10.00">Cpl/Io/Socket/ListenerClient</text>
<text text-anchor="middle" x="619.12" y="-5.75" font-family="Helvetica,sans-Serif" font-size="10.00">Sync.h</text>
</a>
</g>
</g>
<!-- Node10&#45;&gt;Node12 -->
<g id="edge14_Node000010_Node000012" class="edge">
<title>Node10&#45;&gt;Node12</title>
<g id="a_edge14_Node000010_Node000012"><a xlink:title=" ">
<path fill="none" stroke="#63b8ff" d="M648.11,-128.08C662.42,-121.15 676.94,-111.12 685.12,-97 691.93,-85.27 691.14,-78.65 685.12,-66.5 677.52,-51.14 662.72,-39.21 649.06,-30.83"/>
<polygon fill="#63b8ff" stroke="#63b8ff" points="646.96,-124.76 639.2,-131.98 649.77,-131.17 646.96,-124.76"/>
</a>
</g>
</g>
<!-- Node13 -->
<g id="Node000013" class="node">
<title>Node13</title>
<g id="a_Node000013"><a xlink:href="_listener___8h.html" target="_top" xlink:title=" ">
<polygon fill="white" stroke="#666666" points="858.25,-91.38 732,-91.38 732,-72.12 858.25,-72.12 858.25,-91.38"/>
<text text-anchor="middle" x="795.12" y="-77.88" font-family="Helvetica,sans-Serif" font-size="10.00">Cpl/Io/Socket/Listener_.h</text>
</a>
</g>
</g>
<!-- Node10&#45;&gt;Node13 -->
<g id="edge15_Node000010_Node000013" class="edge">
<title>Node10&#45;&gt;Node13</title>
<g id="a_edge15_Node000010_Node000013"><a xlink:title=" ">
<path fill="none" stroke="#63b8ff" d="M646.62,-129.26C682.34,-118.07 734.1,-101.86 766.13,-91.83"/>
<polygon fill="#63b8ff" stroke="#63b8ff" points="646.03,-125.77 637.53,-132.1 648.12,-132.45 646.03,-125.77"/>
</a>
</g>
</g>
<!-- Node11&#45;&gt;Node12 -->
<g id="edge13_Node000011_Node000012" class="edge">
<title>Node11&#45;&gt;Node12</title>
<g id="a_edge13_Node000011_Node000012"><a xlink:title=" ">
<path fill="none" stroke="#63b8ff" d="M611.95,-54.81C613.47,-46.64 615.09,-37.91 616.41,-30.83"/>
<polygon fill="#63b8ff" stroke="#63b8ff" points="608.51,-54.15 610.12,-64.63 615.39,-55.43 608.51,-54.15"/>
</a>
</g>
</g>
<!-- Node14 -->
<g id="Node000014" class="node">
<title>Node14</title>
<g id="a_Node000014"><a xlink:href="_posix_2_listener_8h.html" target="_top" xlink:title=" ">
<polygon fill="white" stroke="#666666" points="821.25,-30.5 719,-30.5 719,0 821.25,0 821.25,-30.5"/>
<text text-anchor="start" x="727" y="-17" font-family="Helvetica,sans-Serif" font-size="10.00">Cpl/Io/Socket/Posix</text>
<text text-anchor="middle" x="770.12" y="-5.75" font-family="Helvetica,sans-Serif" font-size="10.00">/Listener.h</text>
</a>
</g>
</g>
<!-- Node13&#45;&gt;Node14 -->
<g id="edge16_Node000013_Node000014" class="edge">
<title>Node13&#45;&gt;Node14</title>
<g id="a_edge16_Node000013_Node000014"><a xlink:title=" ">
<path fill="none" stroke="#63b8ff" d="M787.6,-61.34C783.77,-51.46 779.19,-39.65 775.68,-30.59"/>
<polygon fill="#63b8ff" stroke="#63b8ff" points="784.22,-62.31 791.1,-70.37 790.75,-59.78 784.22,-62.31"/>
</a>
</g>
</g>
<!-- Node15 -->
<g id="Node000015" class="node">
<title>Node15</title>
<g id="a_Node000015"><a xlink:href="_win32_2_listener_8h.html" target="_top" xlink:title=" ">
<polygon fill="white" stroke="#666666" points="944.75,-30.5 839.5,-30.5 839.5,0 944.75,0 944.75,-30.5"/>
<text text-anchor="start" x="847.5" y="-17" font-family="Helvetica,sans-Serif" font-size="10.00">Cpl/Io/Socket/Win32</text>
<text text-anchor="middle" x="892.12" y="-5.75" font-family="Helvetica,sans-Serif" font-size="10.00">/Listener.h</text>
</a>
</g>
</g>
<!-- Node13&#45;&gt;Node15 -->
<g id="edge17_Node000013_Node000015" class="edge">
<title>Node13&#45;&gt;Node15</title>
<g id="a_edge17_Node000013_Node000015"><a xlink:title=" ">
<path fill="none" stroke="#63b8ff" d="M818.14,-65.45C833.89,-54.97 854.66,-41.16 870.18,-30.84"/>
<polygon fill="#63b8ff" stroke="#63b8ff" points="816.26,-62.49 809.87,-70.94 820.14,-68.32 816.26,-62.49"/>
</a>
</g>
</g>
<!-- Node17 -->
<g id="Node000017" class="node">
<title>Node17</title>
<g id="a_Node000017"><a xlink:href="_file_2_input_8h.html" target="_top" xlink:title=" ">
<polygon fill="white" stroke="#666666" points="968.38,-91.38 875.88,-91.38 875.88,-72.12 968.38,-72.12 968.38,-91.38"/>
<text text-anchor="middle" x="922.12" y="-77.88" font-family="Helvetica,sans-Serif" font-size="10.00">Cpl/Io/File/Input.h</text>
</a>
</g>
</g>
<!-- Node16&#45;&gt;Node17 -->
<g id="edge20_Node000016_Node000017" class="edge">
<title>Node16&#45;&gt;Node17</title>
<g id="a_edge20_Node000016_Node000017"><a xlink:title=" ">
<path fill="none" stroke="#63b8ff" d="M962.53,-124.48C952.17,-113.79 939.26,-100.45 930.86,-91.78"/>
<polygon fill="#63b8ff" stroke="#63b8ff" points="959.94,-126.85 969.42,-131.6 964.97,-121.98 959.94,-126.85"/>
</a>
</g>
</g>
<!-- Node18 -->
<g id="Node000018" class="node">
<title>Node18</title>
<g id="a_Node000018"><a xlink:href="_input_output___8h.html" target="_top" xlink:title=" ">
<polygon fill="white" stroke="#666666" points="1239,-91.38 1105.25,-91.38 1105.25,-72.12 1239,-72.12 1239,-91.38"/>
<text text-anchor="middle" x="1172.12" y="-77.88" font-family="Helvetica,sans-Serif" font-size="10.00">Cpl/Io/Stdio/InputOutput_.h</text>
</a>
</g>
</g>
<!-- Node16&#45;&gt;Node18 -->
<g id="edge21_Node000016_Node000018" class="edge">
<title>Node16&#45;&gt;Node18</title>
<g id="a_edge21_Node000016_Node000018"><a xlink:title=" ">
<path fill="none" stroke="#63b8ff" d="M1019.67,-129.26C1056.34,-118.07 1109.48,-101.86 1142.36,-91.83"/>
<polygon fill="#63b8ff" stroke="#63b8ff" points="1018.85,-125.85 1010.31,-132.11 1020.89,-132.54 1018.85,-125.85"/>
</a>
</g>
</g>
<!-- Node20 -->
<g id="Node000020" class="node">
<title>Node20</title>
<g id="a_Node000020"><a xlink:href="_std_in_8h.html" target="_top" xlink:title=" ">
<polygon fill="white" stroke="#666666" points="1087.5,-91.38 986.75,-91.38 986.75,-72.12 1087.5,-72.12 1087.5,-91.38"/>
<text text-anchor="middle" x="1037.12" y="-77.88" font-family="Helvetica,sans-Serif" font-size="10.00">Cpl/Io/Stdio/StdIn.h</text>
</a>
</g>
</g>
<!-- Node16&#45;&gt;Node20 -->
<g id="edge23_Node000016_Node000020" class="edge">
<title>Node16&#45;&gt;Node20</title>
<g id="a_edge23_Node000016_Node000020"><a xlink:title=" ">
<path fill="none" stroke="#63b8ff" d="M995.7,-124.8C1006.29,-114.05 1019.6,-100.54 1028.23,-91.78"/>
<polygon fill="#63b8ff" stroke="#63b8ff" points="993.52,-122.02 989,-131.6 998.51,-126.94 993.52,-122.02"/>
</a>
</g>
</g>
<!-- Node19 -->
<g id="Node000019" class="node">
<title>Node19</title>
<g id="a_Node000019"><a xlink:href="_file_2_input_output_8h.html" target="_top" xlink:title=" ">
<polygon fill="white" stroke="#666666" points="1233,-24.88 1111.25,-24.88 1111.25,-5.63 1233,-5.63 1233,-24.88"/>
<text text-anchor="middle" x="1172.12" y="-11.38" font-family="Helvetica,sans-Serif" font-size="10.00">Cpl/Io/File/InputOutput.h</text>
</a>
</g>
</g>
<!-- Node18&#45;&gt;Node19 -->
<g id="edge22_Node000018_Node000019" class="edge">
<title>Node18&#45;&gt;Node19</title>
<g id="a_edge22_Node000018_Node000019"><a xlink:title=" ">
<path fill="none" stroke="#63b8ff" d="M1172.12,-60.27C1172.12,-48.44 1172.12,-34.16 1172.12,-25.14"/>
<polygon fill="#63b8ff" stroke="#63b8ff" points="1168.63,-60.27 1172.13,-70.27 1175.63,-60.27 1168.63,-60.27"/>
</a>
</g>
</g>
<!-- Node21&#45;&gt;Node18 -->
<g id="edge26_Node000021_Node000018" class="edge">
<title>Node21&#45;&gt;Node18</title>
<g id="a_edge26_Node000021_Node000018"><a xlink:title=" ">
<path fill="none" stroke="#63b8ff" d="M1276.04,-128.07C1250.46,-116.91 1214.91,-101.41 1192.72,-91.73"/>
<polygon fill="#63b8ff" stroke="#63b8ff" points="1274.37,-131.16 1284.94,-131.95 1277.17,-124.74 1274.37,-131.16"/>
</a>
</g>
</g>
<!-- Node22 -->
<g id="Node000022" class="node">
<title>Node22</title>
<g id="a_Node000022"><a xlink:href="_cpl_2_io_2_file_2_output_8h.html" target="_top" xlink:title=" ">
<polygon fill="white" stroke="#666666" points="1357.12,-91.38 1257.12,-91.38 1257.12,-72.12 1357.12,-72.12 1357.12,-91.38"/>
<text text-anchor="middle" x="1307.12" y="-77.88" font-family="Helvetica,sans-Serif" font-size="10.00">Cpl/Io/File/Output.h</text>
</a>
</g>
</g>
<!-- Node21&#45;&gt;Node22 -->
<g id="edge25_Node000021_Node000022" class="edge">
<title>Node21&#45;&gt;Node22</title>
<g id="a_edge25_Node000021_Node000022"><a xlink:title=" ">
<path fill="none" stroke="#63b8ff" d="M1307.12,-121.2C1307.12,-111.17 1307.12,-99.58 1307.12,-91.78"/>
<polygon fill="#63b8ff" stroke="#63b8ff" points="1303.63,-121.17 1307.13,-131.17 1310.63,-121.17 1303.63,-121.17"/>
</a>
</g>
</g>
<!-- Node23 -->
<g id="Node000023" class="node">
<title>Node23</title>
<g id="a_Node000023"><a xlink:href="_std_err_8h.html" target="_top" xlink:title=" ">
<polygon fill="white" stroke="#666666" points="1479.38,-91.38 1374.88,-91.38 1374.88,-72.12 1479.38,-72.12 1479.38,-91.38"/>
<text text-anchor="middle" x="1427.12" y="-77.88" font-family="Helvetica,sans-Serif" font-size="10.00">Cpl/Io/Stdio/StdErr.h</text>
</a>
</g>
</g>
<!-- Node21&#45;&gt;Node23 -->
<g id="edge27_Node000021_Node000023" class="edge">
<title>Node21&#45;&gt;Node23</title>
<g id="a_edge27_Node000021_Node000023"><a xlink:title=" ">
<path fill="none" stroke="#63b8ff" d="M1335.67,-127.62C1358.34,-116.5 1389.36,-101.28 1408.81,-91.73"/>
<polygon fill="#63b8ff" stroke="#63b8ff" points="1334.41,-124.34 1326.97,-131.89 1337.49,-130.63 1334.41,-124.34"/>
</a>
</g>
</g>
<!-- Node24 -->
<g id="Node000024" class="node">
<title>Node24</title>
<g id="a_Node000024"><a xlink:href="_std_out_8h.html" target="_top" xlink:title=" ">
<polygon fill="white" stroke="#666666" points="1605.25,-91.38 1497,-91.38 1497,-72.12 1605.25,-72.12 1605.25,-91.38"/>
<text text-anchor="middle" x="1551.12" y="-77.88" font-family="Helvetica,sans-Serif" font-size="10.00">Cpl/Io/Stdio/StdOut.h</text>
</a>
</g>
</g>
<!-- Node21&#45;&gt;Node24 -->
<g id="edge28_Node000021_Node000024" class="edge">
<title>Node21&#45;&gt;Node24</title>
<g id="a_edge28_Node000021_Node000024"><a xlink:title=" ">
<path fill="none" stroke="#63b8ff" d="M1355.71,-129.9C1402.13,-118.7 1471.11,-102.06 1513.49,-91.83"/>
<polygon fill="#63b8ff" stroke="#63b8ff" points="1355.09,-126.45 1346.19,-132.2 1356.73,-133.26 1355.09,-126.45"/>
</a>
</g>
</g>
<!-- Node26 -->
<g id="Node000026" class="node">
<title>Node26</title>
<g id="a_Node000026"><a xlink:href="_async_connector_8h.html" target="_top" xlink:title=" ">
<polygon fill="white" stroke="#666666" points="1766.5,-91.38 1623.75,-91.38 1623.75,-72.12 1766.5,-72.12 1766.5,-91.38"/>
<text text-anchor="middle" x="1695.12" y="-77.88" font-family="Helvetica,sans-Serif" font-size="10.00">Cpl/Io/Tcp/AsyncConnector.h</text>
</a>
</g>
</g>
<!-- Node25&#45;&gt;Node26 -->
<g id="edge30_Node000025_Node000026" class="edge">
<title>Node25&#45;&gt;Node26</title>
<g id="a_edge30_Node000025_Node000026"><a xlink:title=" ">
<path fill="none" stroke="#63b8ff" d="M1695.12,-121.2C1695.12,-111.17 1695.12,-99.58 1695.12,-91.78"/>
<polygon fill="#63b8ff" stroke="#63b8ff" points="1691.63,-121.17 1695.13,-131.17 1698.63,-121.17 1691.63,-121.17"/>
</a>
</g>
</g>
<!-- Node28 -->
<g id="Node000028" class="node">
<title>Node28</title>
<g id="a_Node000028"><a xlink:href="_async_listener_8h.html" target="_top" xlink:title=" ">
<polygon fill="white" stroke="#666666" points="1933,-91.38 1799.25,-91.38 1799.25,-72.12 1933,-72.12 1933,-91.38"/>
<text text-anchor="middle" x="1866.12" y="-77.88" font-family="Helvetica,sans-Serif" font-size="10.00">Cpl/Io/Tcp/AsyncListener.h</text>
</a>
</g>
</g>
<!-- Node25&#45;&gt;Node28 -->
<g id="edge32_Node000025_Node000028" class="edge">
<title>Node25&#45;&gt;Node28</title>
<g id="a_edge32_Node000025_Node000028"><a xlink:title=" ">
<path fill="none" stroke="#63b8ff" d="M1732.31,-128.82C1764.75,-117.65 1810.99,-101.73 1839.75,-91.83"/>
<polygon fill="#63b8ff" stroke="#63b8ff" points="1731.22,-125.5 1722.9,-132.06 1733.49,-132.12 1731.22,-125.5"/>
</a>
</g>
</g>
<!-- Node27 -->
<g id="Node000027" class="node">
<title>Node27</title>
<g id="a_Node000027"><a xlink:href="_win32_2_async_connector_8h.html" target="_top" xlink:title=" ">
<polygon fill="white" stroke="#666666" points="1773.5,-24.88 1600.75,-24.88 1600.75,-5.63 1773.5,-5.63 1773.5,-24.88"/>
<text text-anchor="middle" x="1687.12" y="-11.38" font-family="Helvetica,sans-Serif" font-size="10.00">Cpl/Io/Tcp/Win32/AsyncConnector.h</text>
</a>
</g>
</g>
<!-- Node26&#45;&gt;Node27 -->
<g id="edge31_Node000026_Node000027" class="edge">
<title>Node26&#45;&gt;Node27</title>
<g id="a_edge31_Node000026_Node000027"><a xlink:title=" ">
<path fill="none" stroke="#63b8ff" d="M1692.63,-60.65C1691.16,-48.75 1689.36,-34.26 1688.23,-25.14"/>
<polygon fill="#63b8ff" stroke="#63b8ff" points="1689.12,-60.79 1693.83,-70.28 1696.07,-59.92 1689.12,-60.79"/>
</a>
</g>
</g>
<!-- Node29 -->
<g id="Node000029" class="node">
<title>Node29</title>
<g id="a_Node000029"><a xlink:href="_win32_2_async_listener_8h.html" target="_top" xlink:title=" ">
<polygon fill="white" stroke="#666666" points="1955,-24.88 1791.25,-24.88 1791.25,-5.63 1955,-5.63 1955,-24.88"/>
<text text-anchor="middle" x="1873.12" y="-11.38" font-family="Helvetica,sans-Serif" font-size="10.00">Cpl/Io/Tcp/Win32/AsyncListener.h</text>
</a>
</g>
</g>
<!-- Node28&#45;&gt;Node29 -->
<g id="edge33_Node000028_Node000029" class="edge">
<title>Node28&#45;&gt;Node29</title>
<g id="a_edge33_Node000028_Node000029"><a xlink:title=" ">
<path fill="none" stroke="#63b8ff" d="M1868.31,-60.65C1869.6,-48.75 1871.17,-34.26 1872.16,-25.14"/>
<polygon fill="#63b8ff" stroke="#63b8ff" points="1864.86,-59.96 1867.26,-70.28 1871.82,-60.71 1864.86,-59.96"/>
</a>
</g>
</g>
</g>
</svg>
