<?xml version="1.0" encoding="UTF-8" standalone="no"?>
<!DOCTYPE svg PUBLIC "-//W3C//DTD SVG 1.1//EN"
 "http://www.w3.org/Graphics/SVG/1.1/DTD/svg11.dtd">
<!-- Generated by graphviz version 9.0.0 (20230911.1827)
 -->
<!-- Title: Ajax/ScreenMgr/DisplayApi.h Pages: 1 -->
<svg width="535pt" height="193pt"
 viewBox="0.00 0.00 534.62 193.00" xmlns="http://www.w3.org/2000/svg" xmlns:xlink="http://www.w3.org/1999/xlink">
<g id="graph0" class="graph" transform="scale(1 1) rotate(0) translate(4 189)">
<title>Ajax/ScreenMgr/DisplayApi.h</title>
<!-- Node1 -->
<g id="Node000001" class="node">
<title>Node1</title>
<g id="a_Node000001"><a xlink:title=" ">
<polygon fill="#999999" stroke="#666666" points="405.25,-185 264,-185 264,-165.75 405.25,-165.75 405.25,-185"/>
<text text-anchor="middle" x="334.62" y="-171.5" font-family="Helvetica,sans-Serif" font-size="10.00">Ajax/ScreenMgr/DisplayApi.h</text>
</a>
</g>
</g>
<!-- Node2 -->
<g id="Node000002" class="node">
<title>Node2</title>
<g id="a_Node000002"><a xlink:href="_ajax_2_screen_mgr_2_api_8h.html" target="_top" xlink:title=" ">
<polygon fill="white" stroke="#666666" points="326.5,-129.75 216.75,-129.75 216.75,-110.5 326.5,-110.5 326.5,-129.75"/>
<text text-anchor="middle" x="271.62" y="-116.25" font-family="Helvetica,sans-Serif" font-size="10.00">Ajax/ScreenMgr/Api.h</text>
</a>
</g>
</g>
<!-- Node1&#45;&gt;Node2 -->
<g id="edge1_Node000001_Node000002" class="edge">
<title>Node1&#45;&gt;Node2</title>
<g id="a_edge1_Node000001_Node000002"><a xlink:title=" ">
<path fill="none" stroke="#63b8ff" d="M315.45,-158.16C304.51,-148.92 291.21,-137.68 282.15,-130.02"/>
<polygon fill="#63b8ff" stroke="#63b8ff" points="312.89,-160.58 322.78,-164.36 317.4,-155.24 312.89,-160.58"/>
</a>
</g>
</g>
<!-- Node7 -->
<g id="Node000007" class="node">
<title>Node7</title>
<g id="a_Node000007"><a xlink:href="_pico_display_8h.html" target="_top" xlink:title=" ">
<polygon fill="white" stroke="#666666" points="490.12,-129.75 381.12,-129.75 381.12,-110.5 490.12,-110.5 490.12,-129.75"/>
<text text-anchor="middle" x="435.62" y="-116.25" font-family="Helvetica,sans-Serif" font-size="10.00">Ajax/Ui/PicoDisplay.h</text>
</a>
</g>
</g>
<!-- Node1&#45;&gt;Node7 -->
<g id="edge8_Node000001_Node000007" class="edge">
<title>Node1&#45;&gt;Node7</title>
<g id="a_edge8_Node000001_Node000007"><a xlink:title=" ">
<path fill="none" stroke="#63b8ff" d="M361.94,-159.98C379.92,-150.49 402.93,-138.36 418.41,-130.2"/>
<polygon fill="#63b8ff" stroke="#63b8ff" points="360.31,-156.88 353.1,-164.64 363.58,-163.07 360.31,-156.88"/>
</a>
</g>
</g>
<!-- Node3 -->
<g id="Node000003" class="node">
<title>Node3</title>
<g id="a_Node000003"><a xlink:href="_ajax_2_ui_2_about_2_screen_8h.html" target="_top" xlink:title=" ">
<polygon fill="white" stroke="#666666" points="117.25,-74.5 0,-74.5 0,-55.25 117.25,-55.25 117.25,-74.5"/>
<text text-anchor="middle" x="58.62" y="-61" font-family="Helvetica,sans-Serif" font-size="10.00">Ajax/Ui/About/Screen.h</text>
</a>
</g>
</g>
<!-- Node2&#45;&gt;Node3 -->
<g id="edge2_Node000002_Node000003" class="edge">
<title>Node2&#45;&gt;Node3</title>
<g id="a_edge2_Node000002_Node000003"><a xlink:title=" ">
<path fill="none" stroke="#63b8ff" d="M224.41,-107.32C185.34,-97.55 130.65,-83.88 94.93,-74.95"/>
<polygon fill="#63b8ff" stroke="#63b8ff" points="223.47,-110.69 234.02,-109.72 225.17,-103.9 223.47,-110.69"/>
</a>
</g>
</g>
<!-- Node5 -->
<g id="Node000005" class="node">
<title>Node5</title>
<g id="a_Node000005"><a xlink:href="_ajax_2_ui_2_edit_setpt_2_screen_8h.html" target="_top" xlink:title=" ">
<polygon fill="white" stroke="#666666" points="266.38,-74.5 134.88,-74.5 134.88,-55.25 266.38,-55.25 266.38,-74.5"/>
<text text-anchor="middle" x="200.62" y="-61" font-family="Helvetica,sans-Serif" font-size="10.00">Ajax/Ui/EditSetpt/Screen.h</text>
</a>
</g>
</g>
<!-- Node2&#45;&gt;Node5 -->
<g id="edge4_Node000002_Node000005" class="edge">
<title>Node2&#45;&gt;Node5</title>
<g id="a_edge4_Node000002_Node000005"><a xlink:title=" ">
<path fill="none" stroke="#63b8ff" d="M250.38,-103.19C237.98,-93.89 222.8,-82.51 212.49,-74.77"/>
<polygon fill="#63b8ff" stroke="#63b8ff" points="248.27,-105.98 258.37,-109.18 252.47,-100.38 248.27,-105.98"/>
</a>
</g>
</g>
<!-- Node6 -->
<g id="Node000006" class="node">
<title>Node6</title>
<g id="a_Node000006"><a xlink:href="_ajax_2_ui_2_home_2_screen_8h.html" target="_top" xlink:title=" ">
<polygon fill="white" stroke="#666666" points="402.62,-74.5 284.62,-74.5 284.62,-55.25 402.62,-55.25 402.62,-74.5"/>
<text text-anchor="middle" x="343.62" y="-61" font-family="Helvetica,sans-Serif" font-size="10.00">Ajax/Ui/Home/Screen.h</text>
</a>
</g>
</g>
<!-- Node2&#45;&gt;Node6 -->
<g id="edge6_Node000002_Node000006" class="edge">
<title>Node2&#45;&gt;Node6</title>
<g id="a_edge6_Node000002_Node000006"><a xlink:title=" ">
<path fill="none" stroke="#63b8ff" d="M292.8,-103.47C305.44,-94.12 321.03,-82.58 331.59,-74.77"/>
<polygon fill="#63b8ff" stroke="#63b8ff" points="291.01,-100.43 285.06,-109.19 295.18,-106.06 291.01,-100.43"/>
</a>
</g>
</g>
<!-- Node4 -->
<g id="Node000004" class="node">
<title>Node4</title>
<g id="a_Node000004"><a xlink:href="_ajax_2_main_2screens_8h.html" target="_top" xlink:title="This file exposes handles to Screen instances for the Ajax Application.">
<polygon fill="white" stroke="#666666" points="252.5,-19.25 148.75,-19.25 148.75,0 252.5,0 252.5,-19.25"/>
<text text-anchor="middle" x="200.62" y="-5.75" font-family="Helvetica,sans-Serif" font-size="10.00">Ajax/Main/screens.h</text>
</a>
</g>
</g>
<!-- Node3&#45;&gt;Node4 -->
<g id="edge3_Node000003_Node000004" class="edge">
<title>Node3&#45;&gt;Node4</title>
<g id="a_edge3_Node000003_Node000004"><a xlink:title=" ">
<path fill="none" stroke="#63b8ff" d="M93.16,-50.92C118.95,-41.25 153.53,-28.29 176.42,-19.7"/>
<polygon fill="#63b8ff" stroke="#63b8ff" points="92.26,-47.52 84.13,-54.31 94.72,-54.08 92.26,-47.52"/>
</a>
</g>
</g>
<!-- Node5&#45;&gt;Node4 -->
<g id="edge5_Node000005_Node000004" class="edge">
<title>Node5&#45;&gt;Node4</title>
<g id="a_edge5_Node000005_Node000004"><a xlink:title=" ">
<path fill="none" stroke="#63b8ff" d="M200.62,-43.63C200.62,-35.34 200.62,-26.17 200.62,-19.61"/>
<polygon fill="#63b8ff" stroke="#63b8ff" points="197.13,-43.57 200.63,-53.57 204.13,-43.57 197.13,-43.57"/>
</a>
</g>
</g>
<!-- Node6&#45;&gt;Node4 -->
<g id="edge7_Node000006_Node000004" class="edge">
<title>Node6&#45;&gt;Node4</title>
<g id="a_edge7_Node000006_Node000004"><a xlink:title=" ">
<path fill="none" stroke="#63b8ff" d="M308.84,-50.92C282.88,-41.25 248.05,-28.29 225,-19.7"/>
<polygon fill="#63b8ff" stroke="#63b8ff" points="307.36,-54.1 317.95,-54.31 309.8,-47.54 307.36,-54.1"/>
</a>
</g>
</g>
<!-- Node8 -->
<g id="Node000008" class="node">
<title>Node8</title>
<g id="a_Node000008"><a xlink:href="appmain_8h.html" target="_top" xlink:title="This file defines the hardware/platform independent start&#45;up interface(s) for the Ajax application.">
<polygon fill="white" stroke="#666666" points="526.62,-74.5 420.62,-74.5 420.62,-55.25 526.62,-55.25 526.62,-74.5"/>
<text text-anchor="middle" x="473.62" y="-61" font-family="Helvetica,sans-Serif" font-size="10.00">Ajax/Main/appmain.h</text>
</a>
</g>
</g>
<!-- Node7&#45;&gt;Node8 -->
<g id="edge9_Node000007_Node000008" class="edge">
<title>Node7&#45;&gt;Node8</title>
<g id="a_edge9_Node000007_Node000008"><a xlink:title=" ">
<path fill="none" stroke="#63b8ff" d="M448.42,-101.19C454.74,-92.34 462.09,-82.04 467.21,-74.86"/>
<polygon fill="#63b8ff" stroke="#63b8ff" points="445.74,-98.93 442.78,-109.1 451.44,-102.99 445.74,-98.93"/>
</a>
</g>
</g>
</g>
</svg>
