<?xml version="1.0" encoding="UTF-8" standalone="no"?>
<!DOCTYPE svg PUBLIC "-//W3C//DTD SVG 1.1//EN"
 "http://www.w3.org/Graphics/SVG/1.1/DTD/svg11.dtd">
<!-- Generated by graphviz version 9.0.0 (20230911.1827)
 -->
<!-- Title: Cpl/Dm/MailboxServer.h Pages: 1 -->
<svg width="2708pt" height="415pt"
 viewBox="0.00 0.00 2707.88 415.00" xmlns="http://www.w3.org/2000/svg" xmlns:xlink="http://www.w3.org/1999/xlink">
<g id="graph0" class="graph" transform="scale(1 1) rotate(0) translate(4 411)">
<title>Cpl/Dm/MailboxServer.h</title>
<!-- Node1 -->
<g id="Node000001" class="node">
<title>Node1</title>
<g id="a_Node000001"><a xlink:title=" ">
<polygon fill="#999999" stroke="#666666" points="1319.62,-407 1199.38,-407 1199.38,-387.75 1319.62,-387.75 1319.62,-407"/>
<text text-anchor="middle" x="1259.5" y="-393.5" font-family="Helvetica,sans-Serif" font-size="10.00">Cpl/Dm/MailboxServer.h</text>
</a>
</g>
</g>
<!-- Node2 -->
<g id="Node000002" class="node">
<title>Node2</title>
<g id="a_Node000002"><a xlink:href="_summary_8h.html" target="_top" xlink:title=" ">
<polygon fill="white" stroke="#666666" points="115,-346.12 0,-346.12 0,-326.88 115,-326.88 115,-346.12"/>
<text text-anchor="middle" x="57.5" y="-332.62" font-family="Helvetica,sans-Serif" font-size="10.00">Ajax/Alerts/Summary.h</text>
</a>
</g>
</g>
<!-- Node1&#45;&gt;Node2 -->
<g id="edge1_Node000001_Node000002" class="edge">
<title>Node1&#45;&gt;Node2</title>
<g id="a_edge1_Node000001_Node000002"><a xlink:title=" ">
<path fill="none" stroke="#63b8ff" d="M1187.58,-395C972.38,-390.66 335.68,-376.07 129.5,-351.75 119.12,-350.53 108.01,-348.62 97.69,-346.6"/>
<polygon fill="#63b8ff" stroke="#63b8ff" points="1187.44,-398.5 1197.51,-395.2 1187.58,-391.5 1187.44,-398.5"/>
</a>
</g>
</g>
<!-- Node3 -->
<g id="Node000003" class="node">
<title>Node3</title>
<g id="a_Node000003"><a xlink:href="_ajax_2_heating_2_io_2_api_8h.html" target="_top" xlink:title=" ">
<polygon fill="white" stroke="#666666" points="176.25,-279.62 68.75,-279.62 68.75,-260.38 176.25,-260.38 176.25,-279.62"/>
<text text-anchor="middle" x="122.5" y="-266.12" font-family="Helvetica,sans-Serif" font-size="10.00">Ajax/Heating/Io/Api.h</text>
</a>
</g>
</g>
<!-- Node1&#45;&gt;Node3 -->
<g id="edge2_Node000001_Node000003" class="edge">
<title>Node1&#45;&gt;Node3</title>
<g id="a_edge2_Node000001_Node000003"><a xlink:title=" ">
<path fill="none" stroke="#63b8ff" d="M1187.74,-395.46C950.73,-392.17 205.49,-379.65 162.5,-351.75 137.04,-335.22 127.2,-297.37 123.92,-280.01"/>
<polygon fill="#63b8ff" stroke="#63b8ff" points="1187.41,-398.95 1197.46,-395.59 1187.51,-391.96 1187.41,-398.95"/>
</a>
</g>
</g>
<!-- Node4 -->
<g id="Node000004" class="node">
<title>Node4</title>
<g id="a_Node000004"><a xlink:href="_ajax_2_heating_2_supervisor_2_api_8h.html" target="_top" xlink:title=" ">
<polygon fill="white" stroke="#666666" points="293,-351.75 172,-351.75 172,-321.25 293,-321.25 293,-351.75"/>
<text text-anchor="start" x="180" y="-338.25" font-family="Helvetica,sans-Serif" font-size="10.00">Ajax/Heating/Supervisor</text>
<text text-anchor="middle" x="232.5" y="-327" font-family="Helvetica,sans-Serif" font-size="10.00">/Api.h</text>
</a>
</g>
</g>
<!-- Node1&#45;&gt;Node4 -->
<g id="edge3_Node000001_Node000004" class="edge">
<title>Node1&#45;&gt;Node4</title>
<g id="a_edge3_Node000001_Node000004"><a xlink:title=" ">
<path fill="none" stroke="#63b8ff" d="M1187.97,-396.8C1028.4,-396.92 631.52,-392.66 302.5,-351.75 299.55,-351.38 296.53,-350.96 293.49,-350.49"/>
<polygon fill="#63b8ff" stroke="#63b8ff" points="1187.53,-400.3 1197.53,-396.78 1187.52,-393.3 1187.53,-400.3"/>
</a>
</g>
</g>
<!-- Node6 -->
<g id="Node000006" class="node">
<title>Node6</title>
<g id="a_Node000006"><a xlink:href="appmain_8h.html" target="_top" xlink:title="This file defines the hardware/platform independent start&#45;up interface(s) for the Ajax application.">
<polygon fill="white" stroke="#666666" points="417.5,-346.12 311.5,-346.12 311.5,-326.88 417.5,-326.88 417.5,-346.12"/>
<text text-anchor="middle" x="364.5" y="-332.62" font-family="Helvetica,sans-Serif" font-size="10.00">Ajax/Main/appmain.h</text>
</a>
</g>
</g>
<!-- Node1&#45;&gt;Node6 -->
<g id="edge6_Node000001_Node000006" class="edge">
<title>Node1&#45;&gt;Node6</title>
<g id="a_edge6_Node000001_Node000006"><a xlink:title=" ">
<path fill="none" stroke="#63b8ff" d="M1187.66,-396.26C1043.6,-395.19 709.4,-388.56 431.5,-351.75 421.95,-350.49 411.74,-348.59 402.23,-346.6"/>
<polygon fill="#63b8ff" stroke="#63b8ff" points="1187.41,-399.75 1197.43,-396.32 1187.45,-392.75 1187.41,-399.75"/>
</a>
</g>
</g>
<!-- Node7 -->
<g id="Node000007" class="node">
<title>Node7</title>
<g id="a_Node000007"><a xlink:href="_ajax_2_metrics_2_api_8h.html" target="_top" xlink:title=" ">
<polygon fill="white" stroke="#666666" points="453.88,-91.38 359.12,-91.38 359.12,-72.12 453.88,-72.12 453.88,-91.38"/>
<text text-anchor="middle" x="406.5" y="-77.88" font-family="Helvetica,sans-Serif" font-size="10.00">Ajax/Metrics/Api.h</text>
</a>
</g>
</g>
<!-- Node1&#45;&gt;Node7 -->
<g id="edge7_Node000001_Node000007" class="edge">
<title>Node1&#45;&gt;Node7</title>
<g id="a_edge7_Node000001_Node000007"><a xlink:title=" ">
<path fill="none" stroke="#63b8ff" d="M1187.58,-395.56C1024.49,-393.17 630.82,-384.12 502.5,-351.75 494,-349.61 364.21,-292.64 359.5,-285.25 317.77,-219.83 379.29,-121.46 400.06,-91.63"/>
<polygon fill="#63b8ff" stroke="#63b8ff" points="1187.35,-399.06 1197.4,-395.7 1187.45,-392.06 1187.35,-399.06"/>
</a>
</g>
</g>
<!-- Node8 -->
<g id="Node000008" class="node">
<title>Node8</title>
<g id="a_Node000008"><a xlink:href="_ajax_2_screen_mgr_2_api_8h.html" target="_top" xlink:title=" ">
<polygon fill="white" stroke="#666666" points="1179.38,-346.12 1069.62,-346.12 1069.62,-326.88 1179.38,-326.88 1179.38,-346.12"/>
<text text-anchor="middle" x="1124.5" y="-332.62" font-family="Helvetica,sans-Serif" font-size="10.00">Ajax/ScreenMgr/Api.h</text>
</a>
</g>
</g>
<!-- Node1&#45;&gt;Node8 -->
<g id="edge8_Node000001_Node000008" class="edge">
<title>Node1&#45;&gt;Node8</title>
<g id="a_edge8_Node000001_Node000008"><a xlink:title=" ">
<path fill="none" stroke="#63b8ff" d="M1228.42,-382.82C1202.83,-371.66 1167.28,-356.16 1145.1,-346.48"/>
<polygon fill="#63b8ff" stroke="#63b8ff" points="1226.75,-385.91 1237.31,-386.7 1229.55,-379.49 1226.75,-385.91"/>
</a>
</g>
</g>
<!-- Node13 -->
<g id="Node000013" class="node">
<title>Node13</title>
<g id="a_Node000013"><a xlink:href="_logical_buttons_8h.html" target="_top" xlink:title=" ">
<polygon fill="white" stroke="#666666" points="1321.12,-346.12 1197.88,-346.12 1197.88,-326.88 1321.12,-326.88 1321.12,-346.12"/>
<text text-anchor="middle" x="1259.5" y="-332.62" font-family="Helvetica,sans-Serif" font-size="10.00">Ajax/Ui/LogicalButtons.h</text>
</a>
</g>
</g>
<!-- Node1&#45;&gt;Node13 -->
<g id="edge15_Node000001_Node000013" class="edge">
<title>Node1&#45;&gt;Node13</title>
<g id="a_edge15_Node000001_Node000013"><a xlink:title=" ">
<path fill="none" stroke="#63b8ff" d="M1259.5,-375.95C1259.5,-365.92 1259.5,-354.33 1259.5,-346.53"/>
<polygon fill="#63b8ff" stroke="#63b8ff" points="1256,-375.92 1259.5,-385.92 1263,-375.92 1256,-375.92"/>
</a>
</g>
</g>
<!-- Node14 -->
<g id="Node000014" class="node">
<title>Node14</title>
<g id="a_Node000014"><a xlink:href="_ajax_2_ui_2_status_indicator_2_api_8h.html" target="_top" xlink:title=" ">
<polygon fill="white" stroke="#666666" points="1455.75,-351.75 1339.25,-351.75 1339.25,-321.25 1455.75,-321.25 1455.75,-351.75"/>
<text text-anchor="start" x="1347.25" y="-338.25" font-family="Helvetica,sans-Serif" font-size="10.00">Ajax/Ui/StatusIndicator</text>
<text text-anchor="middle" x="1397.5" y="-327" font-family="Helvetica,sans-Serif" font-size="10.00">/Api.h</text>
</a>
</g>
</g>
<!-- Node1&#45;&gt;Node14 -->
<g id="edge16_Node000001_Node000014" class="edge">
<title>Node1&#45;&gt;Node14</title>
<g id="a_edge16_Node000001_Node000014"><a xlink:title=" ">
<path fill="none" stroke="#63b8ff" d="M1291.29,-382.81C1312.75,-373.66 1341.06,-361.58 1363.06,-352.19"/>
<polygon fill="#63b8ff" stroke="#63b8ff" points="1289.98,-379.57 1282.15,-386.71 1292.72,-386.01 1289.98,-379.57"/>
</a>
</g>
</g>
<!-- Node15 -->
<g id="Node000015" class="node">
<title>Node15</title>
<g id="a_Node000015"><a xlink:href="_dm_2_periodic_scheduler_8h.html" target="_top" xlink:title=" ">
<polygon fill="white" stroke="#666666" points="1611.25,-346.12 1473.75,-346.12 1473.75,-326.88 1611.25,-326.88 1611.25,-346.12"/>
<text text-anchor="middle" x="1542.5" y="-332.62" font-family="Helvetica,sans-Serif" font-size="10.00">Cpl/Dm/PeriodicScheduler.h</text>
</a>
</g>
</g>
<!-- Node1&#45;&gt;Node15 -->
<g id="edge17_Node000001_Node000015" class="edge">
<title>Node1&#45;&gt;Node15</title>
<g id="a_edge17_Node000001_Node000015"><a xlink:title=" ">
<path fill="none" stroke="#63b8ff" d="M1314.15,-385.01C1367.99,-373.81 1449.18,-356.91 1498.85,-346.58"/>
<polygon fill="#63b8ff" stroke="#63b8ff" points="1313.66,-381.53 1304.58,-387 1315.08,-388.39 1313.66,-381.53"/>
</a>
</g>
</g>
<!-- Node16 -->
<g id="Node000016" class="node">
<title>Node16</title>
<g id="a_Node000016"><a xlink:href="_log_sink_8h.html" target="_top" xlink:title=" ">
<polygon fill="white" stroke="#666666" points="1743.62,-346.12 1629.38,-346.12 1629.38,-326.88 1743.62,-326.88 1743.62,-346.12"/>
<text text-anchor="middle" x="1686.5" y="-332.62" font-family="Helvetica,sans-Serif" font-size="10.00">Cpl/Logging/LogSink.h</text>
</a>
</g>
</g>
<!-- Node1&#45;&gt;Node16 -->
<g id="edge18_Node000001_Node000016" class="edge">
<title>Node1&#45;&gt;Node16</title>
<g id="a_edge18_Node000001_Node000016"><a xlink:title=" ">
<path fill="none" stroke="#63b8ff" d="M1331.45,-389.4C1404.51,-381.87 1520.77,-368.65 1620.5,-351.75 1629.17,-350.28 1638.42,-348.45 1647.17,-346.6"/>
<polygon fill="#63b8ff" stroke="#63b8ff" points="1331.2,-385.91 1321.61,-390.41 1331.91,-392.87 1331.2,-385.91"/>
</a>
</g>
</g>
<!-- Node17 -->
<g id="Node000017" class="node">
<title>Node17</title>
<g id="a_Node000017"><a xlink:href="_manager_8h.html" target="_top" xlink:title=" ">
<polygon fill="white" stroke="#666666" points="1868.88,-346.12 1762.12,-346.12 1762.12,-326.88 1868.88,-326.88 1868.88,-346.12"/>
<text text-anchor="middle" x="1815.5" y="-332.62" font-family="Helvetica,sans-Serif" font-size="10.00">Cpl/MApp/Manager.h</text>
</a>
</g>
</g>
<!-- Node1&#45;&gt;Node17 -->
<g id="edge19_Node000001_Node000017" class="edge">
<title>Node1&#45;&gt;Node17</title>
<g id="a_edge19_Node000001_Node000017"><a xlink:title=" ">
<path fill="none" stroke="#63b8ff" d="M1331.1,-392.87C1427.36,-387.48 1603.62,-375.22 1752.5,-351.75 1761.14,-350.39 1770.36,-348.53 1779.01,-346.61"/>
<polygon fill="#63b8ff" stroke="#63b8ff" points="1331.07,-389.36 1321.28,-393.41 1331.46,-396.35 1331.07,-389.36"/>
</a>
</g>
</g>
<!-- Node18 -->
<g id="Node000018" class="node">
<title>Node18</title>
<g id="a_Node000018"><a xlink:href="_cpl_2_m_app_2_temperature_2_api_8h.html" target="_top" xlink:title=" ">
<polygon fill="white" stroke="#666666" points="2003.75,-351.75 1887.25,-351.75 1887.25,-321.25 2003.75,-321.25 2003.75,-351.75"/>
<text text-anchor="start" x="1895.25" y="-338.25" font-family="Helvetica,sans-Serif" font-size="10.00">Cpl/MApp/Temperature</text>
<text text-anchor="middle" x="1945.5" y="-327" font-family="Helvetica,sans-Serif" font-size="10.00">/Api.h</text>
</a>
</g>
</g>
<!-- Node1&#45;&gt;Node18 -->
<g id="edge20_Node000001_Node000018" class="edge">
<title>Node1&#45;&gt;Node18</title>
<g id="a_edge20_Node000001_Node000018"><a xlink:title=" ">
<path fill="none" stroke="#63b8ff" d="M1331.36,-394.32C1446.93,-390.32 1681.04,-379.3 1877.5,-351.75 1880.61,-351.31 1883.78,-350.82 1886.98,-350.28"/>
<polygon fill="#63b8ff" stroke="#63b8ff" points="1331.26,-390.82 1321.39,-394.66 1331.5,-397.82 1331.26,-390.82"/>
</a>
</g>
</g>
<!-- Node19 -->
<g id="Node000019" class="node">
<title>Node19</title>
<g id="a_Node000019"><a xlink:href="_chunk_8h.html" target="_top" xlink:title=" ">
<polygon fill="white" stroke="#666666" points="854.38,-346.12 738.62,-346.12 738.62,-326.88 854.38,-326.88 854.38,-346.12"/>
<text text-anchor="middle" x="796.5" y="-332.62" font-family="Helvetica,sans-Serif" font-size="10.00">Cpl/Persistent/Chunk.h</text>
</a>
</g>
</g>
<!-- Node1&#45;&gt;Node19 -->
<g id="edge21_Node000001_Node000019" class="edge">
<title>Node1&#45;&gt;Node19</title>
<g id="a_edge21_Node000001_Node000019"><a xlink:title=" ">
<path fill="none" stroke="#63b8ff" d="M1187.79,-387.85C1114.91,-379.1 998.79,-364.95 898.5,-351.75 884.32,-349.88 869.04,-347.79 854.73,-345.8"/>
<polygon fill="#63b8ff" stroke="#63b8ff" points="1187.25,-391.31 1197.6,-389.02 1188.09,-384.36 1187.25,-391.31"/>
</a>
</g>
</g>
<!-- Node32 -->
<g id="Node000032" class="node">
<title>Node32</title>
<g id="a_Node000032"><a xlink:href="_persistent_2_record_8h.html" target="_top" xlink:title=" ">
<polygon fill="white" stroke="#666666" points="688.88,-346.12 570.12,-346.12 570.12,-326.88 688.88,-326.88 688.88,-346.12"/>
<text text-anchor="middle" x="629.5" y="-332.62" font-family="Helvetica,sans-Serif" font-size="10.00">Cpl/Persistent/Record.h</text>
</a>
</g>
</g>
<!-- Node1&#45;&gt;Node32 -->
<g id="edge36_Node000001_Node000032" class="edge">
<title>Node1&#45;&gt;Node32</title>
<g id="a_edge36_Node000001_Node000032"><a xlink:title=" ">
<path fill="none" stroke="#63b8ff" d="M1187.59,-391.64C1085.55,-384.62 892.94,-370.26 729.5,-351.75 716.43,-350.27 702.44,-348.43 689.18,-346.58"/>
<polygon fill="#63b8ff" stroke="#63b8ff" points="1187.26,-395.12 1197.47,-392.31 1187.73,-388.14 1187.26,-395.12"/>
</a>
</g>
</g>
<!-- Node33 -->
<g id="Node000033" class="node">
<title>Node33</title>
<g id="a_Node000033"><a xlink:href="_record_server_8h.html" target="_top" xlink:title=" ">
<polygon fill="white" stroke="#666666" points="516.12,-279.62 368.88,-279.62 368.88,-260.38 516.12,-260.38 516.12,-279.62"/>
<text text-anchor="middle" x="442.5" y="-266.12" font-family="Helvetica,sans-Serif" font-size="10.00">Cpl/Persistent/RecordServer.h</text>
</a>
</g>
</g>
<!-- Node1&#45;&gt;Node33 -->
<g id="edge42_Node000001_Node000033" class="edge">
<title>Node1&#45;&gt;Node33</title>
<g id="a_edge42_Node000001_Node000033"><a xlink:title=" ">
<path fill="none" stroke="#63b8ff" d="M1187.86,-396.55C1033.81,-396.15 675.74,-390.88 561.5,-351.75 515.44,-335.97 470.5,-297.38 451.7,-279.88"/>
<polygon fill="#63b8ff" stroke="#63b8ff" points="1187.51,-400.05 1197.52,-396.56 1187.53,-393.05 1187.51,-400.05"/>
</a>
</g>
</g>
<!-- Node34 -->
<g id="Node000034" class="node">
<title>Node34</title>
<g id="a_Node000034"><a xlink:href="_region_media_8h.html" target="_top" xlink:title=" ">
<polygon fill="white" stroke="#666666" points="1051.62,-346.12 907.38,-346.12 907.38,-326.88 1051.62,-326.88 1051.62,-346.12"/>
<text text-anchor="middle" x="979.5" y="-332.62" font-family="Helvetica,sans-Serif" font-size="10.00">Cpl/Persistent/RegionMedia.h</text>
</a>
</g>
</g>
<!-- Node1&#45;&gt;Node34 -->
<g id="edge43_Node000001_Node000034" class="edge">
<title>Node1&#45;&gt;Node34</title>
<g id="a_edge43_Node000001_Node000034"><a xlink:title=" ">
<path fill="none" stroke="#63b8ff" d="M1205.43,-385.01C1152.16,-373.81 1071.83,-356.91 1022.69,-346.58"/>
<polygon fill="#63b8ff" stroke="#63b8ff" points="1204.38,-388.36 1214.88,-386.99 1205.82,-381.51 1204.38,-388.36"/>
</a>
</g>
</g>
<!-- Node38 -->
<g id="Node000038" class="node">
<title>Node38</title>
<g id="a_Node000038"><a xlink:href="_ajax_2_thermistor_8h.html" target="_top" xlink:title=" ">
<polygon fill="white" stroke="#666666" points="2162.75,-346.12 2022.25,-346.12 2022.25,-326.88 2162.75,-326.88 2162.75,-346.12"/>
<text text-anchor="middle" x="2092.5" y="-332.62" font-family="Helvetica,sans-Serif" font-size="10.00">Driver/AIO/Ajax/Thermistor.h</text>
</a>
</g>
</g>
<!-- Node1&#45;&gt;Node38 -->
<g id="edge50_Node000001_Node000038" class="edge">
<title>Node1&#45;&gt;Node38</title>
<g id="a_edge50_Node000001_Node000038"><a xlink:title=" ">
<path fill="none" stroke="#63b8ff" d="M1331.04,-394.92C1465.13,-391.58 1763.24,-381.23 2012.5,-351.75 2023.71,-350.42 2035.72,-348.54 2046.95,-346.57"/>
<polygon fill="#63b8ff" stroke="#63b8ff" points="1331.17,-391.42 1321.25,-395.16 1331.34,-398.42 1331.17,-391.42"/>
</a>
</g>
</g>
<!-- Node40 -->
<g id="Node000040" class="node">
<title>Node40</title>
<g id="a_Node000040"><a xlink:href="_eros_2_test_2_cycle_2_api_8h.html" target="_top" xlink:title=" ">
<polygon fill="white" stroke="#666666" points="2290.38,-346.12 2180.62,-346.12 2180.62,-326.88 2290.38,-326.88 2290.38,-346.12"/>
<text text-anchor="middle" x="2235.5" y="-332.62" font-family="Helvetica,sans-Serif" font-size="10.00">Eros/Test/Cycle/Api.h</text>
</a>
</g>
</g>
<!-- Node1&#45;&gt;Node40 -->
<g id="edge52_Node000001_Node000040" class="edge">
<title>Node1&#45;&gt;Node40</title>
<g id="a_edge52_Node000001_Node000040"><a xlink:title=" ">
<path fill="none" stroke="#63b8ff" d="M1331.29,-397C1485.74,-397.44 1860.75,-393.64 2171.5,-351.75 2180.75,-350.5 2190.64,-348.59 2199.81,-346.57"/>
<polygon fill="#63b8ff" stroke="#63b8ff" points="1331.64,-393.5 1321.63,-396.96 1331.62,-400.5 1331.64,-393.5"/>
</a>
</g>
</g>
<!-- Node41 -->
<g id="Node000041" class="node">
<title>Node41</title>
<g id="a_Node000041"><a xlink:href="_eros_2_test_2_thermistor_2_api_8h.html" target="_top" xlink:title=" ">
<polygon fill="white" stroke="#666666" points="2416.25,-351.75 2308.75,-351.75 2308.75,-321.25 2416.25,-321.25 2416.25,-351.75"/>
<text text-anchor="start" x="2316.75" y="-338.25" font-family="Helvetica,sans-Serif" font-size="10.00">Eros/Test/Thermistor</text>
<text text-anchor="middle" x="2362.5" y="-327" font-family="Helvetica,sans-Serif" font-size="10.00">/Api.h</text>
</a>
</g>
</g>
<!-- Node1&#45;&gt;Node41 -->
<g id="edge53_Node000001_Node000041" class="edge">
<title>Node1&#45;&gt;Node41</title>
<g id="a_edge53_Node000001_Node000041"><a xlink:title=" ">
<path fill="none" stroke="#63b8ff" d="M1331.24,-394.97C1534.52,-390.74 2111.81,-376.8 2299.5,-351.75 2302.39,-351.36 2305.34,-350.91 2308.32,-350.4"/>
<polygon fill="#63b8ff" stroke="#63b8ff" points="1331.26,-391.47 1321.34,-395.18 1331.41,-398.47 1331.26,-391.47"/>
</a>
</g>
</g>
<!-- Node42 -->
<g id="Node000042" class="node">
<title>Node42</title>
<g id="a_Node000042"><a xlink:href="_eros_2_ui_2_home_2_screen_8h.html" target="_top" xlink:title=" ">
<polygon fill="white" stroke="#666666" points="2699.88,-346.12 2581.12,-346.12 2581.12,-326.88 2699.88,-326.88 2699.88,-346.12"/>
<text text-anchor="middle" x="2640.5" y="-332.62" font-family="Helvetica,sans-Serif" font-size="10.00">Eros/Ui/Home/Screen.h</text>
</a>
</g>
</g>
<!-- Node1&#45;&gt;Node42 -->
<g id="edge54_Node000001_Node000042" class="edge">
<title>Node1&#45;&gt;Node42</title>
<g id="a_edge54_Node000001_Node000042"><a xlink:title=" ">
<path fill="none" stroke="#63b8ff" d="M1331.03,-395.54C1568.32,-392.53 2328.25,-380.79 2571.5,-351.75 2581.58,-350.55 2592.38,-348.63 2602.37,-346.58"/>
<polygon fill="#63b8ff" stroke="#63b8ff" points="1331.26,-392.04 1321.31,-395.66 1331.35,-399.04 1331.26,-392.04"/>
</a>
</g>
</g>
<!-- Node44 -->
<g id="Node000044" class="node">
<title>Node44</title>
<g id="a_Node000044"><a xlink:href="_eros_2_ui_2_lcd_test_2_screen_8h.html" target="_top" xlink:title=" ">
<polygon fill="white" stroke="#666666" points="2562.75,-346.12 2434.25,-346.12 2434.25,-326.88 2562.75,-326.88 2562.75,-346.12"/>
<text text-anchor="middle" x="2498.5" y="-332.62" font-family="Helvetica,sans-Serif" font-size="10.00">Eros/Ui/LcdTest/Screen.h</text>
</a>
</g>
</g>
<!-- Node1&#45;&gt;Node44 -->
<g id="edge56_Node000001_Node000044" class="edge">
<title>Node1&#45;&gt;Node44</title>
<g id="a_edge56_Node000001_Node000044"><a xlink:title=" ">
<path fill="none" stroke="#63b8ff" d="M1331.46,-395.08C1551.28,-390.89 2211.99,-376.52 2425.5,-351.75 2436.02,-350.53 2447.29,-348.63 2457.75,-346.61"/>
<polygon fill="#63b8ff" stroke="#63b8ff" points="1331.53,-391.58 1321.6,-395.27 1331.66,-398.58 1331.53,-391.58"/>
</a>
</g>
</g>
<!-- Node4&#45;&gt;Node3 -->
<g id="edge4_Node000004_Node000003" class="edge">
<title>Node4&#45;&gt;Node3</title>
<g id="a_edge4_Node000004_Node000003"><a xlink:title=" ">
<path fill="none" stroke="#63b8ff" d="M197.76,-315.13C177.64,-303.33 153.31,-289.06 137.87,-280.01"/>
<polygon fill="#63b8ff" stroke="#63b8ff" points="195.84,-318.06 206.23,-320.1 199.38,-312.02 195.84,-318.06"/>
</a>
</g>
</g>
<!-- Node5 -->
<g id="Node000005" class="node">
<title>Node5</title>
<g id="a_Node000005"><a xlink:href="_heating_2_simulated_2_house_8h_source.html" target="_top" xlink:title=" ">
<polygon fill="white" stroke="#666666" points="312.5,-285.25 194.5,-285.25 194.5,-254.75 312.5,-254.75 312.5,-285.25"/>
<text text-anchor="start" x="202.5" y="-271.75" font-family="Helvetica,sans-Serif" font-size="10.00">Ajax/Heating/Simulated</text>
<text text-anchor="middle" x="253.5" y="-260.5" font-family="Helvetica,sans-Serif" font-size="10.00">/House.h</text>
</a>
</g>
</g>
<!-- Node4&#45;&gt;Node5 -->
<g id="edge5_Node000004_Node000005" class="edge">
<title>Node4&#45;&gt;Node5</title>
<g id="a_edge5_Node000004_Node000005"><a xlink:title=" ">
<path fill="none" stroke="#63b8ff" d="M240.76,-310.13C243.47,-301.8 246.39,-292.83 248.75,-285.58"/>
<polygon fill="#63b8ff" stroke="#63b8ff" points="237.5,-308.83 237.73,-319.42 244.16,-311 237.5,-308.83"/>
</a>
</g>
</g>
<!-- Node9 -->
<g id="Node000009" class="node">
<title>Node9</title>
<g id="a_Node000009"><a xlink:href="_ajax_2_ui_2_about_2_screen_8h.html" target="_top" xlink:title=" ">
<polygon fill="white" stroke="#666666" points="1736.12,-279.62 1618.88,-279.62 1618.88,-260.38 1736.12,-260.38 1736.12,-279.62"/>
<text text-anchor="middle" x="1677.5" y="-266.12" font-family="Helvetica,sans-Serif" font-size="10.00">Ajax/Ui/About/Screen.h</text>
</a>
</g>
</g>
<!-- Node8&#45;&gt;Node9 -->
<g id="edge9_Node000008_Node000009" class="edge">
<title>Node8&#45;&gt;Node9</title>
<g id="a_edge9_Node000008_Node000009"><a xlink:title=" ">
<path fill="none" stroke="#63b8ff" d="M1172.28,-324.13C1177.73,-323.05 1183.22,-322.06 1188.5,-321.25 1374.12,-292.78 1423.7,-312.56 1609.5,-285.25 1618.81,-283.88 1628.76,-282.02 1638.09,-280.1"/>
<polygon fill="#63b8ff" stroke="#63b8ff" points="1171.78,-320.66 1162.71,-326.13 1173.22,-327.51 1171.78,-320.66"/>
</a>
</g>
</g>
<!-- Node11 -->
<g id="Node000011" class="node">
<title>Node11</title>
<g id="a_Node000011"><a xlink:href="_ajax_2_ui_2_edit_setpt_2_screen_8h.html" target="_top" xlink:title=" ">
<polygon fill="white" stroke="#666666" points="1885.25,-279.62 1753.75,-279.62 1753.75,-260.38 1885.25,-260.38 1885.25,-279.62"/>
<text text-anchor="middle" x="1819.5" y="-266.12" font-family="Helvetica,sans-Serif" font-size="10.00">Ajax/Ui/EditSetpt/Screen.h</text>
</a>
</g>
</g>
<!-- Node8&#45;&gt;Node11 -->
<g id="edge11_Node000008_Node000011" class="edge">
<title>Node8&#45;&gt;Node11</title>
<g id="a_edge11_Node000008_Node000011"><a xlink:title=" ">
<path fill="none" stroke="#63b8ff" d="M1172.06,-324.06C1177.58,-322.99 1183.15,-322.01 1188.5,-321.25 1434.08,-286.19 1499.44,-316.77 1745.5,-285.25 1755.88,-283.92 1767,-282.03 1777.38,-280.06"/>
<polygon fill="#63b8ff" stroke="#63b8ff" points="1171.44,-320.61 1162.36,-326.07 1172.86,-327.47 1171.44,-320.61"/>
</a>
</g>
</g>
<!-- Node12 -->
<g id="Node000012" class="node">
<title>Node12</title>
<g id="a_Node000012"><a xlink:href="_ajax_2_ui_2_home_2_screen_8h.html" target="_top" xlink:title=" ">
<polygon fill="white" stroke="#666666" points="2021.5,-279.62 1903.5,-279.62 1903.5,-260.38 2021.5,-260.38 2021.5,-279.62"/>
<text text-anchor="middle" x="1962.5" y="-266.12" font-family="Helvetica,sans-Serif" font-size="10.00">Ajax/Ui/Home/Screen.h</text>
</a>
</g>
</g>
<!-- Node8&#45;&gt;Node12 -->
<g id="edge13_Node000008_Node000012" class="edge">
<title>Node8&#45;&gt;Node12</title>
<g id="a_edge13_Node000008_Node000012"><a xlink:title=" ">
<path fill="none" stroke="#63b8ff" d="M1171.18,-324.15C1176.99,-323.03 1182.86,-322.02 1188.5,-321.25 1499.83,-278.96 1582.92,-325.59 1894.5,-285.25 1904.19,-284 1914.55,-282.11 1924.2,-280.11"/>
<polygon fill="#63b8ff" stroke="#63b8ff" points="1170.75,-320.67 1161.67,-326.13 1172.17,-327.52 1170.75,-320.67"/>
</a>
</g>
</g>
<!-- Node10 -->
<g id="Node000010" class="node">
<title>Node10</title>
<g id="a_Node000010"><a xlink:href="_ajax_2_main_2screens_8h.html" target="_top" xlink:title="This file exposes handles to Screen instances for the Ajax Application.">
<polygon fill="white" stroke="#666666" points="1871.38,-218.75 1767.62,-218.75 1767.62,-199.5 1871.38,-199.5 1871.38,-218.75"/>
<text text-anchor="middle" x="1819.5" y="-205.25" font-family="Helvetica,sans-Serif" font-size="10.00">Ajax/Main/screens.h</text>
</a>
</g>
</g>
<!-- Node9&#45;&gt;Node10 -->
<g id="edge10_Node000009_Node000010" class="edge">
<title>Node9&#45;&gt;Node10</title>
<g id="a_edge10_Node000009_Node000010"><a xlink:title=" ">
<path fill="none" stroke="#63b8ff" d="M1709.84,-255.59C1736.77,-244.42 1774.39,-228.83 1797.83,-219.11"/>
<polygon fill="#63b8ff" stroke="#63b8ff" points="1708.67,-252.29 1700.77,-259.35 1711.35,-258.75 1708.67,-252.29"/>
</a>
</g>
</g>
<!-- Node11&#45;&gt;Node10 -->
<g id="edge12_Node000011_Node000010" class="edge">
<title>Node11&#45;&gt;Node10</title>
<g id="a_edge12_Node000011_Node000010"><a xlink:title=" ">
<path fill="none" stroke="#63b8ff" d="M1819.5,-248.57C1819.5,-238.54 1819.5,-226.96 1819.5,-219.15"/>
<polygon fill="#63b8ff" stroke="#63b8ff" points="1816,-248.54 1819.5,-258.54 1823,-248.54 1816,-248.54"/>
</a>
</g>
</g>
<!-- Node12&#45;&gt;Node10 -->
<g id="edge14_Node000012_Node000010" class="edge">
<title>Node12&#45;&gt;Node10</title>
<g id="a_edge14_Node000012_Node000010"><a xlink:title=" ">
<path fill="none" stroke="#63b8ff" d="M1929.94,-255.59C1902.81,-244.42 1864.92,-228.83 1841.32,-219.11"/>
<polygon fill="#63b8ff" stroke="#63b8ff" points="1928.49,-258.78 1939.07,-259.35 1931.16,-252.31 1928.49,-258.78"/>
</a>
</g>
</g>
<!-- Node20 -->
<g id="Node000020" class="node">
<title>Node20</title>
<g id="a_Node000020"><a xlink:href="_dm_2_persistent_2_record_8h.html" target="_top" xlink:title=" ">
<polygon fill="white" stroke="#666666" points="590.88,-218.75 454.12,-218.75 454.12,-199.5 590.88,-199.5 590.88,-218.75"/>
<text text-anchor="middle" x="522.5" y="-205.25" font-family="Helvetica,sans-Serif" font-size="10.00">Cpl/Dm/Persistent/Record.h</text>
</a>
</g>
</g>
<!-- Node19&#45;&gt;Node20 -->
<g id="edge22_Node000019_Node000020" class="edge">
<title>Node19&#45;&gt;Node20</title>
<g id="a_edge22_Node000019_Node000020"><a xlink:title=" ">
<path fill="none" stroke="#63b8ff" d="M784.45,-317.38C771.07,-298.74 747.73,-270.29 720.5,-254.75 696.86,-241.26 629.64,-227.8 580.05,-219.24"/>
<polygon fill="#63b8ff" stroke="#63b8ff" points="781.39,-319.11 789.96,-325.34 787.15,-315.12 781.39,-319.11"/>
</a>
</g>
</g>
<!-- Node25 -->
<g id="Node000025" class="node">
<title>Node25</title>
<g id="a_Node000025"><a xlink:href="_crc_chunk_8h.html" target="_top" xlink:title=" ">
<polygon fill="white" stroke="#666666" points="1106.88,-279.62 976.12,-279.62 976.12,-260.38 1106.88,-260.38 1106.88,-279.62"/>
<text text-anchor="middle" x="1041.5" y="-266.12" font-family="Helvetica,sans-Serif" font-size="10.00">Cpl/Persistent/CrcChunk.h</text>
</a>
</g>
</g>
<!-- Node19&#45;&gt;Node25 -->
<g id="edge28_Node000019_Node000025" class="edge">
<title>Node19&#45;&gt;Node25</title>
<g id="a_edge28_Node000019_Node000025"><a xlink:title=" ">
<path fill="none" stroke="#63b8ff" d="M842.05,-323.51C889.86,-310.92 963.95,-291.42 1007.09,-280.06"/>
<polygon fill="#63b8ff" stroke="#63b8ff" points="841.33,-320.08 832.55,-326.01 843.11,-326.85 841.33,-320.08"/>
</a>
</g>
</g>
<!-- Node26 -->
<g id="Node000026" class="node">
<title>Node26</title>
<g id="a_Node000026"><a xlink:href="_data_record_8h.html" target="_top" xlink:title=" ">
<polygon fill="white" stroke="#666666" points="712,-279.62 573,-279.62 573,-260.38 712,-260.38 712,-279.62"/>
<text text-anchor="middle" x="642.5" y="-266.12" font-family="Helvetica,sans-Serif" font-size="10.00">Cpl/Persistent/DataRecord.h</text>
</a>
</g>
</g>
<!-- Node19&#45;&gt;Node26 -->
<g id="edge29_Node000019_Node000026" class="edge">
<title>Node19&#45;&gt;Node26</title>
<g id="a_edge29_Node000019_Node000026"><a xlink:title=" ">
<path fill="none" stroke="#63b8ff" d="M764.38,-322.05C734.31,-309.45 690.22,-290.99 664.13,-280.06"/>
<polygon fill="#63b8ff" stroke="#63b8ff" points="762.79,-325.18 773.37,-325.81 765.49,-318.72 762.79,-325.18"/>
</a>
</g>
</g>
<!-- Node28 -->
<g id="Node000028" class="node">
<title>Node28</title>
<g id="a_Node000028"><a xlink:href="_indexed_entry_record_8h.html" target="_top" xlink:title=" ">
<polygon fill="white" stroke="#666666" points="998.5,-163.5 862.5,-163.5 862.5,-133 998.5,-133 998.5,-163.5"/>
<text text-anchor="start" x="870.5" y="-150" font-family="Helvetica,sans-Serif" font-size="10.00">Cpl/Persistent/IndexedEntry</text>
<text text-anchor="middle" x="930.5" y="-138.75" font-family="Helvetica,sans-Serif" font-size="10.00">Record.h</text>
</a>
</g>
</g>
<!-- Node19&#45;&gt;Node28 -->
<g id="edge34_Node000019_Node000028" class="edge">
<title>Node19&#45;&gt;Node28</title>
<g id="a_edge34_Node000019_Node000028"><a xlink:title=" ">
<path fill="none" stroke="#63b8ff" d="M792.17,-315.58C789.51,-298.53 788.15,-273.79 797.5,-254.75 818.6,-211.76 866.5,-180.84 898.68,-163.98"/>
<polygon fill="#63b8ff" stroke="#63b8ff" points="788.65,-315.77 793.94,-324.96 795.53,-314.48 788.65,-315.77"/>
</a>
</g>
</g>
<!-- Node31 -->
<g id="Node000031" class="node">
<title>Node31</title>
<g id="a_Node000031"><a xlink:href="_mirrored_chunk_8h.html" target="_top" xlink:title=" ">
<polygon fill="white" stroke="#666666" points="958,-279.62 807,-279.62 807,-260.38 958,-260.38 958,-279.62"/>
<text text-anchor="middle" x="882.5" y="-266.12" font-family="Helvetica,sans-Serif" font-size="10.00">Cpl/Persistent/MirroredChunk.h</text>
</a>
</g>
</g>
<!-- Node19&#45;&gt;Node31 -->
<g id="edge35_Node000019_Node000031" class="edge">
<title>Node19&#45;&gt;Node31</title>
<g id="a_edge35_Node000019_Node000031"><a xlink:title=" ">
<path fill="none" stroke="#63b8ff" d="M817.42,-319.81C834.02,-307.36 856.63,-290.4 870.37,-280.1"/>
<polygon fill="#63b8ff" stroke="#63b8ff" points="815.57,-316.82 809.67,-325.62 819.77,-322.42 815.57,-316.82"/>
</a>
</g>
</g>
<!-- Node21 -->
<g id="Node000021" class="node">
<title>Node21</title>
<g id="a_Node000021"><a xlink:href="_metrics_record_8h.html" target="_top" xlink:title=" ">
<polygon fill="white" stroke="#666666" points="538.62,-157.88 406.38,-157.88 406.38,-138.62 538.62,-138.62 538.62,-157.88"/>
<text text-anchor="middle" x="472.5" y="-144.38" font-family="Helvetica,sans-Serif" font-size="10.00">Ajax/Main/MetricsRecord.h</text>
</a>
</g>
</g>
<!-- Node20&#45;&gt;Node21 -->
<g id="edge23_Node000020_Node000021" class="edge">
<title>Node20&#45;&gt;Node21</title>
<g id="a_edge23_Node000020_Node000021"><a xlink:title=" ">
<path fill="none" stroke="#63b8ff" d="M507.67,-190.66C498.63,-180.02 487.46,-166.86 480.17,-158.28"/>
<polygon fill="#63b8ff" stroke="#63b8ff" points="504.79,-192.67 513.93,-198.03 510.12,-188.14 504.79,-192.67"/>
</a>
</g>
</g>
<!-- Node22 -->
<g id="Node000022" class="node">
<title>Node22</title>
<g id="a_Node000022"><a xlink:href="_personality_record_8h.html" target="_top" xlink:title=" ">
<polygon fill="white" stroke="#666666" points="704.5,-157.88 556.5,-157.88 556.5,-138.62 704.5,-138.62 704.5,-157.88"/>
<text text-anchor="middle" x="630.5" y="-144.38" font-family="Helvetica,sans-Serif" font-size="10.00">Ajax/Main/PersonalityRecord.h</text>
</a>
</g>
</g>
<!-- Node20&#45;&gt;Node22 -->
<g id="edge25_Node000020_Node000022" class="edge">
<title>Node20&#45;&gt;Node22</title>
<g id="a_edge25_Node000020_Node000022"><a xlink:title=" ">
<path fill="none" stroke="#63b8ff" d="M548.78,-193.8C569.1,-182.72 596.6,-167.73 613.94,-158.28"/>
<polygon fill="#63b8ff" stroke="#63b8ff" points="547.34,-190.6 540.23,-198.46 550.69,-196.75 547.34,-190.6"/>
</a>
</g>
</g>
<!-- Node24 -->
<g id="Node000024" class="node">
<title>Node24</title>
<g id="a_Node000024"><a xlink:href="_user_record_8h.html" target="_top" xlink:title=" ">
<polygon fill="white" stroke="#666666" points="844,-157.88 723,-157.88 723,-138.62 844,-138.62 844,-157.88"/>
<text text-anchor="middle" x="783.5" y="-144.38" font-family="Helvetica,sans-Serif" font-size="10.00">Ajax/Main/UserRecord.h</text>
</a>
</g>
</g>
<!-- Node20&#45;&gt;Node24 -->
<g id="edge27_Node000020_Node000024" class="edge">
<title>Node20&#45;&gt;Node24</title>
<g id="a_edge27_Node000020_Node000024"><a xlink:title=" ">
<path fill="none" stroke="#63b8ff" d="M573.84,-196.54C623.49,-185.34 697.72,-168.6 743.25,-158.33"/>
<polygon fill="#63b8ff" stroke="#63b8ff" points="573.17,-193.11 564.19,-198.72 574.71,-199.94 573.17,-193.11"/>
</a>
</g>
</g>
<!-- Node21&#45;&gt;Node7 -->
<g id="edge24_Node000021_Node000007" class="edge">
<title>Node21&#45;&gt;Node7</title>
<g id="a_edge24_Node000021_Node000007"><a xlink:title=" ">
<path fill="none" stroke="#63b8ff" d="M455.31,-130.45C442.61,-118.04 425.81,-101.62 415.6,-91.64"/>
<polygon fill="#63b8ff" stroke="#63b8ff" points="452.64,-132.74 462.24,-137.22 457.53,-127.73 452.64,-132.74"/>
</a>
</g>
</g>
<!-- Node23 -->
<g id="Node000023" class="node">
<title>Node23</title>
<g id="a_Node000023"><a xlink:href="_provision_8h.html" target="_top" xlink:title=" ">
<polygon fill="white" stroke="#666666" points="638.75,-91.38 522.25,-91.38 522.25,-72.12 638.75,-72.12 638.75,-91.38"/>
<text text-anchor="middle" x="580.5" y="-77.88" font-family="Helvetica,sans-Serif" font-size="10.00">Ajax/TShell/Provision.h</text>
</a>
</g>
</g>
<!-- Node22&#45;&gt;Node23 -->
<g id="edge26_Node000022_Node000023" class="edge">
<title>Node22&#45;&gt;Node23</title>
<g id="a_edge26_Node000022_Node000023"><a xlink:title=" ">
<path fill="none" stroke="#63b8ff" d="M616.64,-129.37C607.13,-117.1 594.91,-101.33 587.39,-91.64"/>
<polygon fill="#63b8ff" stroke="#63b8ff" points="613.73,-131.33 622.62,-137.09 619.26,-127.04 613.73,-131.33"/>
</a>
</g>
</g>
<!-- Node27 -->
<g id="Node000027" class="node">
<title>Node27</title>
<g id="a_Node000027"><a xlink:href="_index_record_8h.html" target="_top" xlink:title=" ">
<polygon fill="white" stroke="#666666" points="750.5,-218.75 608.5,-218.75 608.5,-199.5 750.5,-199.5 750.5,-218.75"/>
<text text-anchor="middle" x="679.5" y="-205.25" font-family="Helvetica,sans-Serif" font-size="10.00">Cpl/Persistent/IndexRecord.h</text>
</a>
</g>
</g>
<!-- Node26&#45;&gt;Node27 -->
<g id="edge30_Node000026_Node000027" class="edge">
<title>Node26&#45;&gt;Node27</title>
<g id="a_edge30_Node000026_Node000027"><a xlink:title=" ">
<path fill="none" stroke="#63b8ff" d="M654.09,-250.56C660.66,-240.1 668.59,-227.48 673.83,-219.15"/>
<polygon fill="#63b8ff" stroke="#63b8ff" points="651.28,-248.45 648.92,-258.78 657.21,-252.17 651.28,-248.45"/>
</a>
</g>
</g>
<!-- Node27&#45;&gt;Node28 -->
<g id="edge31_Node000027_Node000028" class="edge">
<title>Node27&#45;&gt;Node28</title>
<g id="a_edge31_Node000027_Node000028"><a xlink:title=" ">
<path fill="none" stroke="#63b8ff" d="M729.19,-196.47C768.97,-187.14 825,-174 867.85,-163.94"/>
<polygon fill="#63b8ff" stroke="#63b8ff" points="728.58,-193.02 719.64,-198.71 730.18,-199.83 728.58,-193.02"/>
</a>
</g>
</g>
<!-- Node29 -->
<g id="Node000029" class="node">
<title>Node29</title>
<g id="a_Node000029"><a xlink:href="_indexed_entry_server_8h.html" target="_top" xlink:title=" ">
<polygon fill="white" stroke="#666666" points="998.5,-97 862.5,-97 862.5,-66.5 998.5,-66.5 998.5,-97"/>
<text text-anchor="start" x="870.5" y="-83.5" font-family="Helvetica,sans-Serif" font-size="10.00">Cpl/Persistent/IndexedEntry</text>
<text text-anchor="middle" x="930.5" y="-72.25" font-family="Helvetica,sans-Serif" font-size="10.00">Server.h</text>
</a>
</g>
</g>
<!-- Node28&#45;&gt;Node29 -->
<g id="edge32_Node000028_Node000029" class="edge">
<title>Node28&#45;&gt;Node29</title>
<g id="a_edge32_Node000028_Node000029"><a xlink:title=" ">
<path fill="none" stroke="#63b8ff" d="M930.5,-121.31C930.5,-113.14 930.5,-104.41 930.5,-97.33"/>
<polygon fill="#63b8ff" stroke="#63b8ff" points="927,-121.1 930.5,-131.1 934,-121.1 927,-121.1"/>
</a>
</g>
</g>
<!-- Node30 -->
<g id="Node000030" class="node">
<title>Node30</title>
<g id="a_Node000030"><a xlink:href="_log_8h.html" target="_top" xlink:title=" ">
<polygon fill="white" stroke="#666666" points="979.75,-30.5 881.25,-30.5 881.25,0 979.75,0 979.75,-30.5"/>
<text text-anchor="start" x="889.25" y="-17" font-family="Helvetica,sans-Serif" font-size="10.00">Cpl/Logging/TShell</text>
<text text-anchor="middle" x="930.5" y="-5.75" font-family="Helvetica,sans-Serif" font-size="10.00">/Log.h</text>
</a>
</g>
</g>
<!-- Node29&#45;&gt;Node30 -->
<g id="edge33_Node000029_Node000030" class="edge">
<title>Node29&#45;&gt;Node30</title>
<g id="a_edge33_Node000029_Node000030"><a xlink:title=" ">
<path fill="none" stroke="#63b8ff" d="M930.5,-54.81C930.5,-46.64 930.5,-37.91 930.5,-30.83"/>
<polygon fill="#63b8ff" stroke="#63b8ff" points="927,-54.6 930.5,-64.6 934,-54.6 927,-54.6"/>
</a>
</g>
</g>
<!-- Node32&#45;&gt;Node20 -->
<g id="edge37_Node000032_Node000020" class="edge">
<title>Node32&#45;&gt;Node20</title>
<g id="a_edge37_Node000032_Node000020"><a xlink:title=" ">
<path fill="none" stroke="#63b8ff" d="M604.59,-320.24C591.27,-311.23 575.24,-298.92 563.5,-285.25 545.49,-264.29 532.01,-234.13 525.98,-219.2"/>
<polygon fill="#63b8ff" stroke="#63b8ff" points="602.58,-323.11 612.87,-325.64 606.4,-317.24 602.58,-323.11"/>
</a>
</g>
</g>
<!-- Node32&#45;&gt;Node26 -->
<g id="edge38_Node000032_Node000026" class="edge">
<title>Node32&#45;&gt;Node26</title>
<g id="a_edge38_Node000032_Node000026"><a xlink:title=" ">
<path fill="none" stroke="#63b8ff" d="M633.55,-315.4C635.95,-303.5 638.87,-289.01 640.71,-279.89"/>
<polygon fill="#63b8ff" stroke="#63b8ff" points="630.15,-314.55 631.61,-325.05 637.01,-315.94 630.15,-314.55"/>
</a>
</g>
</g>
<!-- Node32&#45;&gt;Node33 -->
<g id="edge39_Node000032_Node000033" class="edge">
<title>Node32&#45;&gt;Node33</title>
<g id="a_edge39_Node000032_Node000033"><a xlink:title=" ">
<path fill="none" stroke="#63b8ff" d="M592.4,-322.7C555.87,-310.1 501,-291.18 468.76,-280.06"/>
<polygon fill="#63b8ff" stroke="#63b8ff" points="591.08,-325.95 601.67,-325.9 593.36,-319.33 591.08,-325.95"/>
</a>
</g>
</g>
<!-- Node33&#45;&gt;Node20 -->
<g id="edge41_Node000033_Node000020" class="edge">
<title>Node33&#45;&gt;Node20</title>
<g id="a_edge41_Node000033_Node000020"><a xlink:title=" ">
<path fill="none" stroke="#63b8ff" d="M463.64,-253.44C478.5,-242.51 497.86,-228.26 510.24,-219.15"/>
<polygon fill="#63b8ff" stroke="#63b8ff" points="461.85,-250.41 455.87,-259.16 466,-256.05 461.85,-250.41"/>
</a>
</g>
</g>
<!-- Node33&#45;&gt;Node23 -->
<g id="edge40_Node000033_Node000023" class="edge">
<title>Node33&#45;&gt;Node23</title>
<g id="a_edge40_Node000033_Node000023"><a xlink:title=" ">
<path fill="none" stroke="#63b8ff" d="M427.34,-251.54C405.25,-223.89 369.71,-169.44 397.5,-133 412.68,-113.09 474.35,-99.11 521.95,-91.03"/>
<polygon fill="#63b8ff" stroke="#63b8ff" points="424.42,-253.5 433.5,-258.96 429.81,-249.03 424.42,-253.5"/>
</a>
</g>
</g>
<!-- Node34&#45;&gt;Node25 -->
<g id="edge44_Node000034_Node000025" class="edge">
<title>Node34&#45;&gt;Node25</title>
<g id="a_edge44_Node000034_Node000025"><a xlink:title=" ">
<path fill="none" stroke="#63b8ff" d="M995.99,-318.34C1007.88,-305.97 1023.45,-289.78 1032.95,-279.89"/>
<polygon fill="#63b8ff" stroke="#63b8ff" points="993.58,-315.81 989.17,-325.44 998.62,-320.66 993.58,-315.81"/>
</a>
</g>
</g>
<!-- Node34&#45;&gt;Node28 -->
<g id="edge46_Node000034_Node000028" class="edge">
<title>Node34&#45;&gt;Node28</title>
<g id="a_edge46_Node000034_Node000028"><a xlink:title=" ">
<path fill="none" stroke="#63b8ff" d="M1041.09,-323.67C1086.17,-311.87 1136.14,-290.29 1115.5,-254.75 1087.64,-206.79 1028.92,-178.82 985.06,-163.87"/>
<polygon fill="#63b8ff" stroke="#63b8ff" points="1040.42,-320.23 1031.55,-326.03 1042.1,-327.03 1040.42,-320.23"/>
</a>
</g>
</g>
<!-- Node34&#45;&gt;Node31 -->
<g id="edge47_Node000034_Node000031" class="edge">
<title>Node34&#45;&gt;Node31</title>
<g id="a_edge47_Node000034_Node000031"><a xlink:title=" ">
<path fill="none" stroke="#63b8ff" d="M956.43,-320.16C937.66,-307.68 911.82,-290.5 896.19,-280.1"/>
<polygon fill="#63b8ff" stroke="#63b8ff" points="954.49,-323.07 964.75,-325.69 958.36,-317.24 954.49,-323.07"/>
</a>
</g>
</g>
<!-- Node35 -->
<g id="Node000035" class="node">
<title>Node35</title>
<g id="a_Node000035"><a xlink:href="_file_adapter_8h.html" target="_top" xlink:title=" ">
<polygon fill="white" stroke="#666666" points="1300.25,-279.62 1162.75,-279.62 1162.75,-260.38 1300.25,-260.38 1300.25,-279.62"/>
<text text-anchor="middle" x="1231.5" y="-266.12" font-family="Helvetica,sans-Serif" font-size="10.00">Cpl/Persistent/FileAdapter.h</text>
</a>
</g>
</g>
<!-- Node34&#45;&gt;Node35 -->
<g id="edge45_Node000034_Node000035" class="edge">
<title>Node34&#45;&gt;Node35</title>
<g id="a_edge45_Node000034_Node000035"><a xlink:title=" ">
<path fill="none" stroke="#63b8ff" d="M1026.04,-323.59C1075.2,-311.01 1151.64,-291.44 1196.11,-280.06"/>
<polygon fill="#63b8ff" stroke="#63b8ff" points="1025.36,-320.15 1016.54,-326.02 1027.09,-326.93 1025.36,-320.15"/>
</a>
</g>
</g>
<!-- Node36 -->
<g id="Node000036" class="node">
<title>Node36</title>
<g id="a_Node000036"><a xlink:href="_n_v_adapter_8h.html" target="_top" xlink:title=" ">
<polygon fill="white" stroke="#666666" points="1454.5,-279.62 1318.5,-279.62 1318.5,-260.38 1454.5,-260.38 1454.5,-279.62"/>
<text text-anchor="middle" x="1386.5" y="-266.12" font-family="Helvetica,sans-Serif" font-size="10.00">Cpl/Persistent/NVAdapter.h</text>
</a>
</g>
</g>
<!-- Node34&#45;&gt;Node36 -->
<g id="edge48_Node000034_Node000036" class="edge">
<title>Node34&#45;&gt;Node36</title>
<g id="a_edge48_Node000034_Node000036"><a xlink:title=" ">
<path fill="none" stroke="#63b8ff" d="M1040.73,-324.52C1047.4,-323.39 1054.09,-322.28 1060.5,-321.25 1170.91,-303.56 1199.17,-303.43 1309.5,-285.25 1319.02,-283.68 1329.19,-281.89 1338.9,-280.11"/>
<polygon fill="#63b8ff" stroke="#63b8ff" points="1040.33,-321.04 1031.07,-326.19 1041.52,-327.94 1040.33,-321.04"/>
</a>
</g>
</g>
<!-- Node37 -->
<g id="Node000037" class="node">
<title>Node37</title>
<g id="a_Node000037"><a xlink:href="_null_region_media_8h.html" target="_top" xlink:title=" ">
<polygon fill="white" stroke="#666666" points="1600.38,-285.25 1472.62,-285.25 1472.62,-254.75 1600.38,-254.75 1600.38,-285.25"/>
<text text-anchor="start" x="1480.62" y="-271.75" font-family="Helvetica,sans-Serif" font-size="10.00">Cpl/Persistent/NullRegion</text>
<text text-anchor="middle" x="1536.5" y="-260.5" font-family="Helvetica,sans-Serif" font-size="10.00">Media.h</text>
</a>
</g>
</g>
<!-- Node34&#45;&gt;Node37 -->
<g id="edge49_Node000034_Node000037" class="edge">
<title>Node34&#45;&gt;Node37</title>
<g id="a_edge49_Node000034_Node000037"><a xlink:title=" ">
<path fill="none" stroke="#63b8ff" d="M1038.48,-324.52C1045.88,-323.32 1053.36,-322.2 1060.5,-321.25 1238.77,-297.65 1285.46,-310.51 1463.5,-285.25 1466.44,-284.83 1469.44,-284.38 1472.47,-283.89"/>
<polygon fill="#63b8ff" stroke="#63b8ff" points="1038.14,-321.03 1028.86,-326.13 1039.3,-327.93 1038.14,-321.03"/>
</a>
</g>
</g>
<!-- Node39 -->
<g id="Node000039" class="node">
<title>Node39</title>
<g id="a_Node000039"><a xlink:href="_eros_2_thermistor_8h.html" target="_top" xlink:title=" ">
<polygon fill="white" stroke="#666666" points="2181.12,-279.62 2039.88,-279.62 2039.88,-260.38 2181.12,-260.38 2181.12,-279.62"/>
<text text-anchor="middle" x="2110.5" y="-266.12" font-family="Helvetica,sans-Serif" font-size="10.00">Driver/AIO/Eros/Thermistor.h</text>
</a>
</g>
</g>
<!-- Node38&#45;&gt;Node39 -->
<g id="edge51_Node000038_Node000039" class="edge">
<title>Node38&#45;&gt;Node39</title>
<g id="a_edge51_Node000038_Node000039"><a xlink:title=" ">
<path fill="none" stroke="#63b8ff" d="M2098.01,-315.77C2101.35,-303.8 2105.45,-289.1 2108.02,-279.89"/>
<polygon fill="#63b8ff" stroke="#63b8ff" points="2094.73,-314.5 2095.41,-325.07 2101.47,-316.38 2094.73,-314.5"/>
</a>
</g>
</g>
<!-- Node43 -->
<g id="Node000043" class="node">
<title>Node43</title>
<g id="a_Node000043"><a xlink:href="_eros_2_main_2screens_8h.html" target="_top" xlink:title="This file exposes handles to Screen instances for the Eros Application.">
<polygon fill="white" stroke="#666666" points="2621.75,-279.62 2517.25,-279.62 2517.25,-260.38 2621.75,-260.38 2621.75,-279.62"/>
<text text-anchor="middle" x="2569.5" y="-266.12" font-family="Helvetica,sans-Serif" font-size="10.00">Eros/Main/screens.h</text>
</a>
</g>
</g>
<!-- Node42&#45;&gt;Node43 -->
<g id="edge55_Node000042_Node000043" class="edge">
<title>Node42&#45;&gt;Node43</title>
<g id="a_edge55_Node000042_Node000043"><a xlink:title=" ">
<path fill="none" stroke="#63b8ff" d="M2622.4,-319.06C2608.69,-306.61 2590.38,-289.97 2579.29,-279.89"/>
<polygon fill="#63b8ff" stroke="#63b8ff" points="2619.75,-321.38 2629.51,-325.51 2624.46,-316.2 2619.75,-321.38"/>
</a>
</g>
</g>
<!-- Node44&#45;&gt;Node43 -->
<g id="edge57_Node000044_Node000043" class="edge">
<title>Node44&#45;&gt;Node43</title>
<g id="a_edge57_Node000044_Node000043"><a xlink:title=" ">
<path fill="none" stroke="#63b8ff" d="M2516.6,-319.06C2530.31,-306.61 2548.62,-289.97 2559.71,-279.89"/>
<polygon fill="#63b8ff" stroke="#63b8ff" points="2514.54,-316.2 2509.49,-325.51 2519.25,-321.38 2514.54,-316.2"/>
</a>
</g>
</g>
</g>
</svg>
