<?xml version="1.0" encoding="UTF-8" standalone="no"?>
<!DOCTYPE svg PUBLIC "-//W3C//DTD SVG 1.1//EN"
 "http://www.w3.org/Graphics/SVG/1.1/DTD/svg11.dtd">
<!-- Generated by graphviz version 2.43.0 (0)
 -->
<!-- Title: Cpl/Dm/Mp/Double.h Pages: 1 -->
<svg width="290pt" height="93pt"
 viewBox="0.00 0.00 290.00 93.00" xmlns="http://www.w3.org/2000/svg" xmlns:xlink="http://www.w3.org/1999/xlink">
<g id="graph0" class="graph" transform="scale(1 1) rotate(0) translate(4 89)">
<title>Cpl/Dm/Mp/Double.h</title>
<!-- Node1 -->
<g id="Node000001" class="node">
<title>Node1</title>
<g id="a_Node000001"><a xlink:title=" ">
<polygon fill="#999999" stroke="#666666" points="199.5,-85 82.5,-85 82.5,-66 199.5,-66 199.5,-85"/>
<text text-anchor="middle" x="141" y="-73" font-family="Helvetica,sans-Serif" font-size="10.00">Cpl/Dm/Mp/Double.h</text>
</a>
</g>
</g>
<!-- Node2 -->
<g id="Node000002" class="node">
<title>Node2</title>
<g id="a_Node000002"><a xlink:href="_ajax_2_heating_2_simulated_2_cmd_8h.html" target="_top" xlink:title=" ">
<polygon fill="white" stroke="#666666" points="132,-30 0,-30 0,0 132,0 132,-30"/>
<text text-anchor="start" x="8" y="-18" font-family="Helvetica,sans-Serif" font-size="10.00">Ajax/Heating/Simulated</text>
<text text-anchor="middle" x="66" y="-7" font-family="Helvetica,sans-Serif" font-size="10.00">/Cmd.h</text>
</a>
</g>
</g>
<!-- Node1&#45;&gt;Node2 -->
<g id="edge1_Node000001_Node000002" class="edge">
<title>Node1&#45;&gt;Node2</title>
<g id="a_edge1_Node000001_Node000002"><a xlink:title=" ">
<path fill="none" stroke="#63b8ff" d="M121.77,-59.5C110.17,-50.45 95.49,-39 84.1,-30.11"/>
<polygon fill="#63b8ff" stroke="#63b8ff" points="119.9,-62.48 129.93,-65.87 124.2,-56.96 119.9,-62.48"/>
</a>
</g>
</g>
<!-- Node3 -->
<g id="Node000003" class="node">
<title>Node3</title>
<g id="a_Node000003"><a xlink:href="_heating_2_simulated_2_house_8h_source.html" target="_top" xlink:title=" ">
<polygon fill="white" stroke="#666666" points="282,-30 150,-30 150,0 282,0 282,-30"/>
<text text-anchor="start" x="158" y="-18" font-family="Helvetica,sans-Serif" font-size="10.00">Ajax/Heating/Simulated</text>
<text text-anchor="middle" x="216" y="-7" font-family="Helvetica,sans-Serif" font-size="10.00">/House.h</text>
</a>
</g>
</g>
<!-- Node1&#45;&gt;Node3 -->
<g id="edge2_Node000001_Node000003" class="edge">
<title>Node1&#45;&gt;Node3</title>
<g id="a_edge2_Node000001_Node000003"><a xlink:title=" ">
<path fill="none" stroke="#63b8ff" d="M160.23,-59.5C171.83,-50.45 186.51,-39 197.9,-30.11"/>
<polygon fill="#63b8ff" stroke="#63b8ff" points="157.8,-56.96 152.07,-65.87 162.1,-62.48 157.8,-56.96"/>
</a>
</g>
</g>
</g>
</svg>
