<?xml version="1.0" encoding="UTF-8" standalone="no"?>
<!DOCTYPE svg PUBLIC "-//W3C//DTD SVG 1.1//EN"
 "http://www.w3.org/Graphics/SVG/1.1/DTD/svg11.dtd">
<!-- Generated by graphviz version 2.43.0 (0)
 -->
<!-- Title: Driver/NV/Api.h Pages: 1 -->
<svg width="980pt" height="93pt"
 viewBox="0.00 0.00 980.00 93.00" xmlns="http://www.w3.org/2000/svg" xmlns:xlink="http://www.w3.org/1999/xlink">
<g id="graph0" class="graph" transform="scale(1 1) rotate(0) translate(4 89)">
<title>Driver/NV/Api.h</title>
<!-- Node1 -->
<g id="Node000001" class="node">
<title>Node1</title>
<g id="a_Node000001"><a xlink:title=" ">
<polygon fill="#999999" stroke="#666666" points="521,-85 429,-85 429,-66 521,-66 521,-85"/>
<text text-anchor="middle" x="475" y="-73" font-family="Helvetica,sans-Serif" font-size="10.00">Driver/NV/Api.h</text>
</a>
</g>
</g>
<!-- Node2 -->
<g id="Node000002" class="node">
<title>Node2</title>
<g id="a_Node000002"><a xlink:href="appmain_8h.html" target="_top" xlink:title="This file defines the hardware/platform independent start&#45;up interface(s) for the Ajax application.">
<polygon fill="white" stroke="#666666" points="120,-24.5 0,-24.5 0,-5.5 120,-5.5 120,-24.5"/>
<text text-anchor="middle" x="60" y="-12.5" font-family="Helvetica,sans-Serif" font-size="10.00">Ajax/Main/appmain.h</text>
</a>
</g>
</g>
<!-- Node1&#45;&gt;Node2 -->
<g id="edge1_Node000001_Node000002" class="edge">
<title>Node1&#45;&gt;Node2</title>
<g id="a_edge1_Node000001_Node000002"><a xlink:title=" ">
<path fill="none" stroke="#63b8ff" d="M418.8,-68.54C350.19,-60.96 230.73,-46.84 129,-30 119.47,-28.42 109.26,-26.49 99.68,-24.56"/>
<polygon fill="#63b8ff" stroke="#63b8ff" points="418.63,-72.04 428.95,-69.65 419.39,-65.08 418.63,-72.04"/>
</a>
</g>
</g>
<!-- Node3 -->
<g id="Node000003" class="node">
<title>Node3</title>
<g id="a_Node000003"><a xlink:href="_n_v_adapter_8h.html" target="_top" xlink:title=" ">
<polygon fill="white" stroke="#666666" points="285.5,-24.5 138.5,-24.5 138.5,-5.5 285.5,-5.5 285.5,-24.5"/>
<text text-anchor="middle" x="212" y="-12.5" font-family="Helvetica,sans-Serif" font-size="10.00">Cpl/Persistent/NVAdapter.h</text>
</a>
</g>
</g>
<!-- Node1&#45;&gt;Node3 -->
<g id="edge2_Node000001_Node000003" class="edge">
<title>Node1&#45;&gt;Node3</title>
<g id="a_edge2_Node000001_Node000003"><a xlink:title=" ">
<path fill="none" stroke="#63b8ff" d="M426.99,-63.82C376.2,-52.52 297.06,-34.92 250.29,-24.52"/>
<polygon fill="#63b8ff" stroke="#63b8ff" points="426.24,-67.24 436.76,-65.99 427.76,-60.41 426.24,-67.24"/>
</a>
</g>
</g>
<!-- Node4 -->
<g id="Node000004" class="node">
<title>Node4</title>
<g id="a_Node000004"><a xlink:href="_driver_2_n_v_2_file_2_cpl_2_api_8h.html" target="_top" xlink:title=" ">
<polygon fill="white" stroke="#666666" points="406.5,-30 303.5,-30 303.5,0 406.5,0 406.5,-30"/>
<text text-anchor="start" x="311.5" y="-18" font-family="Helvetica,sans-Serif" font-size="10.00">Driver/NV/File/Cpl</text>
<text text-anchor="middle" x="355" y="-7" font-family="Helvetica,sans-Serif" font-size="10.00">/Api.h</text>
</a>
</g>
</g>
<!-- Node1&#45;&gt;Node4 -->
<g id="edge3_Node000001_Node000004" class="edge">
<title>Node1&#45;&gt;Node4</title>
<g id="a_edge3_Node000001_Node000004"><a xlink:title=" ">
<path fill="none" stroke="#63b8ff" d="M448.52,-61.59C429.44,-52.29 403.72,-39.75 384.08,-30.18"/>
<polygon fill="#63b8ff" stroke="#63b8ff" points="447.03,-64.76 457.55,-65.99 450.1,-58.47 447.03,-64.76"/>
</a>
</g>
</g>
<!-- Node5 -->
<g id="Node000005" class="node">
<title>Node5</title>
<g id="a_Node000005"><a xlink:href="_gang_8h.html" target="_top" xlink:title=" ">
<polygon fill="white" stroke="#666666" points="525.5,-24.5 424.5,-24.5 424.5,-5.5 525.5,-5.5 525.5,-24.5"/>
<text text-anchor="middle" x="475" y="-12.5" font-family="Helvetica,sans-Serif" font-size="10.00">Driver/NV/Gang.h</text>
</a>
</g>
</g>
<!-- Node1&#45;&gt;Node5 -->
<g id="edge4_Node000001_Node000005" class="edge">
<title>Node1&#45;&gt;Node5</title>
<g id="a_edge4_Node000001_Node000005"><a xlink:title=" ">
<path fill="none" stroke="#63b8ff" d="M475,-55.66C475,-45.24 475,-32.8 475,-24.67"/>
<polygon fill="#63b8ff" stroke="#63b8ff" points="471.5,-55.87 475,-65.87 478.5,-55.87 471.5,-55.87"/>
</a>
</g>
</g>
<!-- Node6 -->
<g id="Node000006" class="node">
<title>Node6</title>
<g id="a_Node000006"><a xlink:href="_driver_2_n_v_2_null_8h.html" target="_top" xlink:title=" ">
<polygon fill="white" stroke="#666666" points="638.5,-24.5 543.5,-24.5 543.5,-5.5 638.5,-5.5 638.5,-24.5"/>
<text text-anchor="middle" x="591" y="-12.5" font-family="Helvetica,sans-Serif" font-size="10.00">Driver/NV/Null.h</text>
</a>
</g>
</g>
<!-- Node1&#45;&gt;Node6 -->
<g id="edge5_Node000001_Node000006" class="edge">
<title>Node1&#45;&gt;Node6</title>
<g id="a_edge5_Node000001_Node000006"><a xlink:title=" ">
<path fill="none" stroke="#63b8ff" d="M501.32,-61.23C523.53,-50.03 554.68,-34.32 573.81,-24.67"/>
<polygon fill="#63b8ff" stroke="#63b8ff" points="499.47,-58.24 492.12,-65.87 502.62,-64.49 499.47,-58.24"/>
</a>
</g>
</g>
<!-- Node7 -->
<g id="Node000007" class="node">
<title>Node7</title>
<g id="a_Node000007"><a xlink:href="_driver_2_n_v_2_onsemi_2_c_a_t24_c512_2_api_8h.html" target="_top" xlink:title=" ">
<polygon fill="white" stroke="#666666" points="819.5,-30 656.5,-30 656.5,0 819.5,0 819.5,-30"/>
<text text-anchor="start" x="664.5" y="-18" font-family="Helvetica,sans-Serif" font-size="10.00">Driver/NV/Onsemi/CAT24C512</text>
<text text-anchor="middle" x="738" y="-7" font-family="Helvetica,sans-Serif" font-size="10.00">/Api.h</text>
</a>
</g>
</g>
<!-- Node1&#45;&gt;Node7 -->
<g id="edge6_Node000001_Node000007" class="edge">
<title>Node1&#45;&gt;Node7</title>
<g id="a_edge6_Node000001_Node000007"><a xlink:title=" ">
<path fill="none" stroke="#63b8ff" d="M523.1,-63.8C565.77,-54.31 628.38,-40.38 675.03,-30.01"/>
<polygon fill="#63b8ff" stroke="#63b8ff" points="522.24,-60.41 513.24,-65.99 523.76,-67.24 522.24,-60.41"/>
</a>
</g>
</g>
<!-- Node8 -->
<g id="Node000008" class="node">
<title>Node8</title>
<g id="a_Node000008"><a xlink:href="_driver_2_n_v_2__tshell_2_cmd_8h.html" target="_top" xlink:title=" ">
<polygon fill="white" stroke="#666666" points="972,-24.5 838,-24.5 838,-5.5 972,-5.5 972,-24.5"/>
<text text-anchor="middle" x="905" y="-12.5" font-family="Helvetica,sans-Serif" font-size="10.00">Driver/NV/_tshell/Cmd.h</text>
</a>
</g>
</g>
<!-- Node1&#45;&gt;Node8 -->
<g id="edge7_Node000001_Node000008" class="edge">
<title>Node1&#45;&gt;Node8</title>
<g id="a_edge7_Node000001_Node000008"><a xlink:title=" ">
<path fill="none" stroke="#63b8ff" d="M531.58,-68.4C601.58,-60.61 724.34,-46.2 829,-30 839.34,-28.4 850.44,-26.47 860.87,-24.57"/>
<polygon fill="#63b8ff" stroke="#63b8ff" points="530.78,-64.96 521.22,-69.54 531.55,-71.92 530.78,-64.96"/>
</a>
</g>
</g>
</g>
</svg>
