<?xml version="1.0" encoding="UTF-8" standalone="no"?>
<!DOCTYPE svg PUBLIC "-//W3C//DTD SVG 1.1//EN"
 "http://www.w3.org/Graphics/SVG/1.1/DTD/svg11.dtd">
<!-- Generated by graphviz version 9.0.0 (20230911.1827)
 -->
<!-- Title: Driver/NV/_tshell/Cmd.h Pages: 1 -->
<svg width="654pt" height="525pt"
 viewBox="0.00 0.00 654.38 524.50" xmlns="http://www.w3.org/2000/svg" xmlns:xlink="http://www.w3.org/1999/xlink">
<g id="graph0" class="graph" transform="scale(1 1) rotate(0) translate(4 520.5)">
<title>Driver/NV/_tshell/Cmd.h</title>
<!-- Node1 -->
<g id="Node000001" class="node">
<title>Node1</title>
<g id="a_Node000001"><a xlink:title=" ">
<polygon fill="#999999" stroke="#666666" points="315.5,-516.5 194.5,-516.5 194.5,-497.25 315.5,-497.25 315.5,-516.5"/>
<text text-anchor="middle" x="255" y="-503" font-family="Helvetica,sans-Serif" font-size="10.00">Driver/NV/_tshell/Cmd.h</text>
</a>
</g>
</g>
<!-- Node2 -->
<g id="Node000002" class="node">
<title>Node2</title>
<g id="a_Node000002"><a xlink:title=" ">
<polygon fill="#e0e0e0" stroke="#999999" points="105,-19.25 23,-19.25 23,0 105,0 105,-19.25"/>
<text text-anchor="middle" x="64" y="-5.75" font-family="Helvetica,sans-Serif" font-size="10.00">colony_config.h</text>
</a>
</g>
</g>
<!-- Node1&#45;&gt;Node2 -->
<g id="edge1_Node000001_Node000002" class="edge">
<title>Node1&#45;&gt;Node2</title>
<g id="a_edge1_Node000001_Node000002"><a xlink:title=" ">
<path fill="none" stroke="#63b8ff" d="M194.25,-505.43C118.82,-501.3 0,-481.45 0,-397.38 0,-397.38 0,-397.38 0,-119.12 0,-82.71 27.07,-47.77 46,-27.79"/>
<polygon fill="#63b8ff" stroke="#63b8ff" points="48.39,-30.35 52.94,-20.78 43.41,-25.43 48.39,-30.35"/>
</a>
</g>
</g>
<!-- Node3 -->
<g id="Node000003" class="node">
<title>Node3</title>
<g id="a_Node000003"><a xlink:href="_cmd_2_command_8h.html" target="_top" xlink:title=" ">
<polygon fill="white" stroke="#666666" points="324.5,-461.25 185.5,-461.25 185.5,-442 324.5,-442 324.5,-461.25"/>
<text text-anchor="middle" x="255" y="-447.75" font-family="Helvetica,sans-Serif" font-size="10.00">Cpl/TShell/Cmd/Command.h</text>
</a>
</g>
</g>
<!-- Node1&#45;&gt;Node3 -->
<g id="edge2_Node000001_Node000003" class="edge">
<title>Node1&#45;&gt;Node3</title>
<g id="a_edge2_Node000001_Node000003"><a xlink:title=" ">
<path fill="none" stroke="#63b8ff" d="M255,-497.08C255,-490.57 255,-481.42 255,-473.12"/>
<polygon fill="#63b8ff" stroke="#63b8ff" points="258.5,-473.12 255,-463.12 251.5,-473.12 258.5,-473.12"/>
</a>
</g>
</g>
<!-- Node26 -->
<g id="Node000026" class="node">
<title>Node26</title>
<g id="a_Node000026"><a xlink:href="_driver_2_n_v_2_api_8h.html" target="_top" xlink:title=" ">
<polygon fill="white" stroke="#666666" points="544.75,-461.25 461.25,-461.25 461.25,-442 544.75,-442 544.75,-461.25"/>
<text text-anchor="middle" x="503" y="-447.75" font-family="Helvetica,sans-Serif" font-size="10.00">Driver/NV/Api.h</text>
</a>
</g>
</g>
<!-- Node1&#45;&gt;Node26 -->
<g id="edge41_Node000001_Node000026" class="edge">
<title>Node1&#45;&gt;Node26</title>
<g id="a_edge41_Node000001_Node000026"><a xlink:title=" ">
<path fill="none" stroke="#63b8ff" d="M297.35,-496.78C339.44,-487.74 404.11,-473.86 449.68,-464.07"/>
<polygon fill="#63b8ff" stroke="#63b8ff" points="450.3,-467.52 459.34,-462 448.83,-460.68 450.3,-467.52"/>
</a>
</g>
</g>
<!-- Node3&#45;&gt;Node2 -->
<g id="edge3_Node000003_Node000002" class="edge">
<title>Node3&#45;&gt;Node2</title>
<g id="a_edge3_Node000003_Node000002"><a xlink:title=" ">
<path fill="none" stroke="#63b8ff" d="M185.15,-444.54C121.71,-434.73 38,-409.1 38,-342.12 38,-342.12 38,-342.12 38,-119.12 38,-87.4 48.64,-51.86 56.31,-30.37"/>
<polygon fill="#63b8ff" stroke="#63b8ff" points="59.53,-31.75 59.75,-21.15 52.97,-29.3 59.53,-31.75"/>
</a>
</g>
</g>
<!-- Node4 -->
<g id="Node000004" class="node">
<title>Node4</title>
<g id="a_Node000004"><a xlink:href="_command_8h.html" target="_top" xlink:title=" ">
<polygon fill="white" stroke="#666666" points="395.88,-350.75 280.12,-350.75 280.12,-331.5 395.88,-331.5 395.88,-350.75"/>
<text text-anchor="middle" x="338" y="-337.25" font-family="Helvetica,sans-Serif" font-size="10.00">Cpl/TShell/Command.h</text>
</a>
</g>
</g>
<!-- Node3&#45;&gt;Node4 -->
<g id="edge4_Node000003_Node000004" class="edge">
<title>Node3&#45;&gt;Node4</title>
<g id="a_edge4_Node000003_Node000004"><a xlink:title=" ">
<path fill="none" stroke="#63b8ff" d="M274.47,-441.55C288.76,-433.96 307.58,-421.81 319,-406 328.24,-393.21 333.03,-375.91 335.48,-362.54"/>
<polygon fill="#63b8ff" stroke="#63b8ff" points="338.94,-363.11 336.97,-352.7 332.02,-362.07 338.94,-363.11"/>
</a>
</g>
</g>
<!-- Node15 -->
<g id="Node000015" class="node">
<title>Node15</title>
<g id="a_Node000015"><a xlink:href="_text_2_string_8h.html" target="_top" xlink:title=" ">
<polygon fill="white" stroke="#666666" points="551,-240.25 463,-240.25 463,-221 551,-221 551,-240.25"/>
<text text-anchor="middle" x="507" y="-226.75" font-family="Helvetica,sans-Serif" font-size="10.00">Cpl/Text/String.h</text>
</a>
</g>
</g>
<!-- Node3&#45;&gt;Node15 -->
<g id="edge40_Node000003_Node000015" class="edge">
<title>Node3&#45;&gt;Node15</title>
<g id="a_edge40_Node000003_Node000015"><a xlink:title=" ">
<path fill="none" stroke="#63b8ff" d="M324.82,-449.16C395.43,-443.5 501.29,-422.61 553,-350.75 572.34,-323.87 565.9,-306.74 553,-276.25 548.24,-264.99 539.09,-255.18 530.2,-247.65"/>
<polygon fill="#63b8ff" stroke="#63b8ff" points="532.46,-244.97 522.42,-241.58 528.16,-250.49 532.46,-244.97"/>
</a>
</g>
</g>
<!-- Node21 -->
<g id="Node000021" class="node">
<title>Node21</title>
<g id="a_Node000021"><a xlink:href="_context___8h.html" target="_top" xlink:title=" ">
<polygon fill="white" stroke="#666666" points="309.88,-406 200.12,-406 200.12,-386.75 309.88,-386.75 309.88,-406"/>
<text text-anchor="middle" x="255" y="-392.5" font-family="Helvetica,sans-Serif" font-size="10.00">Cpl/TShell/Context_.h</text>
</a>
</g>
</g>
<!-- Node3&#45;&gt;Node21 -->
<g id="edge26_Node000003_Node000021" class="edge">
<title>Node3&#45;&gt;Node21</title>
<g id="a_edge26_Node000003_Node000021"><a xlink:title=" ">
<path fill="none" stroke="#63b8ff" d="M255,-441.83C255,-435.32 255,-426.17 255,-417.87"/>
<polygon fill="#63b8ff" stroke="#63b8ff" points="258.5,-417.87 255,-407.87 251.5,-417.87 258.5,-417.87"/>
</a>
</g>
</g>
<!-- Node24 -->
<g id="Node000024" class="node">
<title>Node24</title>
<g id="a_Node000024"><a xlink:href="_map_8h.html" target="_top" xlink:title=" ">
<polygon fill="white" stroke="#666666" points="223.88,-350.75 120.12,-350.75 120.12,-331.5 223.88,-331.5 223.88,-350.75"/>
<text text-anchor="middle" x="172" y="-337.25" font-family="Helvetica,sans-Serif" font-size="10.00">Cpl/Container/Map.h</text>
</a>
</g>
</g>
<!-- Node3&#45;&gt;Node24 -->
<g id="edge39_Node000003_Node000024" class="edge">
<title>Node3&#45;&gt;Node24</title>
<g id="a_edge39_Node000003_Node000024"><a xlink:title=" ">
<path fill="none" stroke="#63b8ff" d="M235.53,-441.55C221.24,-433.96 202.42,-421.81 191,-406 181.76,-393.21 176.97,-375.91 174.52,-362.54"/>
<polygon fill="#63b8ff" stroke="#63b8ff" points="177.98,-362.07 173.03,-352.7 171.06,-363.11 177.98,-362.07"/>
</a>
</g>
</g>
<!-- Node5 -->
<g id="Node000005" class="node">
<title>Node5</title>
<g id="a_Node000005"><a xlink:href="_map_item_8h.html" target="_top" xlink:title=" ">
<polygon fill="white" stroke="#666666" points="255.62,-240.25 132.38,-240.25 132.38,-221 255.62,-221 255.62,-240.25"/>
<text text-anchor="middle" x="194" y="-226.75" font-family="Helvetica,sans-Serif" font-size="10.00">Cpl/Container/MapItem.h</text>
</a>
</g>
</g>
<!-- Node4&#45;&gt;Node5 -->
<g id="edge5_Node000004_Node000005" class="edge">
<title>Node4&#45;&gt;Node5</title>
<g id="a_edge5_Node000004_Node000005"><a xlink:title=" ">
<path fill="none" stroke="#63b8ff" d="M338.45,-331.06C338.61,-317.43 336.89,-291.64 323,-276.25 308.4,-260.07 287.64,-249.76 267.03,-243.18"/>
<polygon fill="#63b8ff" stroke="#63b8ff" points="268,-239.82 257.42,-240.41 266.06,-246.54 268,-239.82"/>
</a>
</g>
</g>
<!-- Node14 -->
<g id="Node000014" class="node">
<title>Node14</title>
<g id="a_Node000014"><a xlink:href="_cpl_2_io_2_output_8h.html" target="_top" xlink:title=" ">
<polygon fill="white" stroke="#666666" points="543.62,-295.5 462.38,-295.5 462.38,-276.25 543.62,-276.25 543.62,-295.5"/>
<text text-anchor="middle" x="503" y="-282" font-family="Helvetica,sans-Serif" font-size="10.00">Cpl/Io/Output.h</text>
</a>
</g>
</g>
<!-- Node4&#45;&gt;Node14 -->
<g id="edge15_Node000004_Node000014" class="edge">
<title>Node4&#45;&gt;Node14</title>
<g id="a_edge15_Node000004_Node000014"><a xlink:title=" ">
<path fill="none" stroke="#63b8ff" d="M365.99,-331.09C393.01,-322.37 434.16,-309.09 464.31,-299.36"/>
<polygon fill="#63b8ff" stroke="#63b8ff" points="464.99,-302.82 473.43,-296.42 462.84,-296.16 464.99,-302.82"/>
</a>
</g>
</g>
<!-- Node20 -->
<g id="Node000020" class="node">
<title>Node20</title>
<g id="a_Node000020"><a xlink:href="_security_8h.html" target="_top" xlink:title=" ">
<polygon fill="white" stroke="#666666" points="314.38,-295.5 207.62,-295.5 207.62,-276.25 314.38,-276.25 314.38,-295.5"/>
<text text-anchor="middle" x="261" y="-282" font-family="Helvetica,sans-Serif" font-size="10.00">Cpl/TShell/Security.h</text>
</a>
</g>
</g>
<!-- Node4&#45;&gt;Node20 -->
<g id="edge25_Node000004_Node000020" class="edge">
<title>Node4&#45;&gt;Node20</title>
<g id="a_edge25_Node000004_Node000020"><a xlink:title=" ">
<path fill="none" stroke="#63b8ff" d="M324.94,-331.09C313.54,-323.21 296.77,-311.61 283.26,-302.27"/>
<polygon fill="#63b8ff" stroke="#63b8ff" points="285.59,-299.62 275.37,-296.81 281.6,-305.38 285.59,-299.62"/>
</a>
</g>
</g>
<!-- Node6 -->
<g id="Node000006" class="node">
<title>Node6</title>
<g id="a_Node000006"><a xlink:href="_dict_item_8h.html" target="_top" xlink:title=" ">
<polygon fill="white" stroke="#666666" points="373.88,-185 252.12,-185 252.12,-165.75 373.88,-165.75 373.88,-185"/>
<text text-anchor="middle" x="313" y="-171.5" font-family="Helvetica,sans-Serif" font-size="10.00">Cpl/Container/DictItem.h</text>
</a>
</g>
</g>
<!-- Node5&#45;&gt;Node6 -->
<g id="edge6_Node000005_Node000006" class="edge">
<title>Node5&#45;&gt;Node6</title>
<g id="a_edge6_Node000005_Node000006"><a xlink:title=" ">
<path fill="none" stroke="#63b8ff" d="M214.19,-220.59C232.91,-212.22 261.02,-199.63 282.48,-190.03"/>
<polygon fill="#63b8ff" stroke="#63b8ff" points="283.63,-193.35 291.33,-186.07 280.78,-186.96 283.63,-193.35"/>
</a>
</g>
</g>
<!-- Node7 -->
<g id="Node000007" class="node">
<title>Node7</title>
<g id="a_Node000007"><a xlink:href="_item_8h.html" target="_top" xlink:title=" ">
<polygon fill="white" stroke="#666666" points="282.25,-129.75 177.75,-129.75 177.75,-110.5 282.25,-110.5 282.25,-129.75"/>
<text text-anchor="middle" x="230" y="-116.25" font-family="Helvetica,sans-Serif" font-size="10.00">Cpl/Container/Item.h</text>
</a>
</g>
</g>
<!-- Node6&#45;&gt;Node7 -->
<g id="edge7_Node000006_Node000007" class="edge">
<title>Node6&#45;&gt;Node7</title>
<g id="a_edge7_Node000006_Node000007"><a xlink:title=" ">
<path fill="none" stroke="#63b8ff" d="M298.92,-165.34C286.52,-157.39 268.21,-145.64 253.57,-136.25"/>
<polygon fill="#63b8ff" stroke="#63b8ff" points="255.73,-133.47 245.42,-131.02 251.95,-139.37 255.73,-133.47"/>
</a>
</g>
</g>
<!-- Node8 -->
<g id="Node000008" class="node">
<title>Node8</title>
<g id="a_Node000008"><a xlink:href="_key_8h.html" target="_top" xlink:title=" ">
<polygon fill="white" stroke="#666666" points="414.75,-129.75 313.25,-129.75 313.25,-110.5 414.75,-110.5 414.75,-129.75"/>
<text text-anchor="middle" x="364" y="-116.25" font-family="Helvetica,sans-Serif" font-size="10.00">Cpl/Container/Key.h</text>
</a>
</g>
</g>
<!-- Node6&#45;&gt;Node8 -->
<g id="edge8_Node000006_Node000008" class="edge">
<title>Node6&#45;&gt;Node8</title>
<g id="a_edge8_Node000006_Node000008"><a xlink:title=" ">
<path fill="none" stroke="#63b8ff" d="M321.42,-165.58C328.54,-158.15 338.94,-147.29 347.69,-138.16"/>
<polygon fill="#63b8ff" stroke="#63b8ff" points="349.96,-140.85 354.35,-131.2 344.9,-136 349.96,-140.85"/>
</a>
</g>
</g>
<!-- Node9 -->
<g id="Node000009" class="node">
<title>Node9</title>
<g id="a_Node000009"><a xlink:href="_fatal_error_8h.html" target="_top" xlink:title=" ">
<polygon fill="white" stroke="#666666" points="449.38,-74.5 330.62,-74.5 330.62,-55.25 449.38,-55.25 449.38,-74.5"/>
<text text-anchor="middle" x="390" y="-61" font-family="Helvetica,sans-Serif" font-size="10.00">Cpl/System/FatalError.h</text>
</a>
</g>
</g>
<!-- Node8&#45;&gt;Node9 -->
<g id="edge9_Node000008_Node000009" class="edge">
<title>Node8&#45;&gt;Node9</title>
<g id="a_edge9_Node000008_Node000009"><a xlink:title=" ">
<path fill="none" stroke="#63b8ff" d="M368.29,-110.33C371.62,-103.51 376.36,-93.81 380.56,-85.2"/>
<polygon fill="#63b8ff" stroke="#63b8ff" points="383.71,-86.74 384.95,-76.22 377.42,-83.67 383.71,-86.74"/>
</a>
</g>
</g>
<!-- Node11 -->
<g id="Node000011" class="node">
<title>Node11</title>
<g id="a_Node000011"><a xlink:title=" ">
<polygon fill="#e0e0e0" stroke="#999999" points="246.75,-74.5 199.25,-74.5 199.25,-55.25 246.75,-55.25 246.75,-74.5"/>
<text text-anchor="middle" x="223" y="-61" font-family="Helvetica,sans-Serif" font-size="10.00">stdint.h</text>
</a>
</g>
</g>
<!-- Node8&#45;&gt;Node11 -->
<g id="edge12_Node000008_Node000011" class="edge">
<title>Node8&#45;&gt;Node11</title>
<g id="a_edge12_Node000008_Node000011"><a xlink:title=" ">
<path fill="none" stroke="#63b8ff" d="M340.08,-110.09C317.5,-101.56 283.36,-88.67 257.77,-79.01"/>
<polygon fill="#63b8ff" stroke="#63b8ff" points="259.04,-75.75 248.45,-75.49 256.57,-82.29 259.04,-75.75"/>
</a>
</g>
</g>
<!-- Node12 -->
<g id="Node000012" class="node">
<title>Node12</title>
<g id="a_Node000012"><a xlink:title=" ">
<polygon fill="#e0e0e0" stroke="#999999" points="312.75,-74.5 265.25,-74.5 265.25,-55.25 312.75,-55.25 312.75,-74.5"/>
<text text-anchor="middle" x="289" y="-61" font-family="Helvetica,sans-Serif" font-size="10.00">string.h</text>
</a>
</g>
</g>
<!-- Node8&#45;&gt;Node12 -->
<g id="edge13_Node000008_Node000012" class="edge">
<title>Node8&#45;&gt;Node12</title>
<g id="a_edge13_Node000008_Node000012"><a xlink:title=" ">
<path fill="none" stroke="#63b8ff" d="M351.28,-110.09C340.29,-102.29 324.16,-90.84 311.07,-81.54"/>
<polygon fill="#63b8ff" stroke="#63b8ff" points="313.2,-78.76 303.02,-75.83 309.15,-84.47 313.2,-78.76"/>
</a>
</g>
</g>
<!-- Node13 -->
<g id="Node000013" class="node">
<title>Node13</title>
<g id="a_Node000013"><a xlink:title=" ">
<polygon fill="#e0e0e0" stroke="#999999" points="546.62,-74.5 471.38,-74.5 471.38,-55.25 546.62,-55.25 546.62,-74.5"/>
<text text-anchor="middle" x="509" y="-61" font-family="Helvetica,sans-Serif" font-size="10.00">colony_map.h</text>
</a>
</g>
</g>
<!-- Node8&#45;&gt;Node13 -->
<g id="edge14_Node000008_Node000013" class="edge">
<title>Node8&#45;&gt;Node13</title>
<g id="a_edge14_Node000008_Node000013"><a xlink:title=" ">
<path fill="none" stroke="#63b8ff" d="M388.6,-110.09C411.93,-101.52 447.24,-88.56 473.6,-78.88"/>
<polygon fill="#63b8ff" stroke="#63b8ff" points="474.68,-82.21 482.86,-75.47 472.27,-75.64 474.68,-82.21"/>
</a>
</g>
</g>
<!-- Node9&#45;&gt;Node2 -->
<g id="edge11_Node000009_Node000002" class="edge">
<title>Node9&#45;&gt;Node2</title>
<g id="a_edge11_Node000009_Node000002"><a xlink:title=" ">
<path fill="none" stroke="#63b8ff" d="M334.33,-54.78C273.34,-44.82 176.26,-28.96 116.54,-19.21"/>
<polygon fill="#63b8ff" stroke="#63b8ff" points="117.4,-15.8 106.97,-17.64 116.27,-22.71 117.4,-15.8"/>
</a>
</g>
</g>
<!-- Node10 -->
<g id="Node000010" class="node">
<title>Node10</title>
<g id="a_Node000010"><a xlink:title=" ">
<polygon fill="#e0e0e0" stroke="#999999" points="415.25,-19.25 364.75,-19.25 364.75,0 415.25,0 415.25,-19.25"/>
<text text-anchor="middle" x="390" y="-5.75" font-family="Helvetica,sans-Serif" font-size="10.00">stddef.h</text>
</a>
</g>
</g>
<!-- Node9&#45;&gt;Node10 -->
<g id="edge10_Node000009_Node000010" class="edge">
<title>Node9&#45;&gt;Node10</title>
<g id="a_edge10_Node000009_Node000010"><a xlink:title=" ">
<path fill="none" stroke="#63b8ff" d="M390,-55.08C390,-48.57 390,-39.42 390,-31.12"/>
<polygon fill="#63b8ff" stroke="#63b8ff" points="393.5,-31.12 390,-21.12 386.5,-31.12 393.5,-31.12"/>
</a>
</g>
</g>
<!-- Node14&#45;&gt;Node15 -->
<g id="edge16_Node000014_Node000015" class="edge">
<title>Node14&#45;&gt;Node15</title>
<g id="a_edge16_Node000014_Node000015"><a xlink:title=" ">
<path fill="none" stroke="#63b8ff" d="M503.66,-276.08C504.16,-269.49 504.85,-260.21 505.48,-251.82"/>
<polygon fill="#63b8ff" stroke="#63b8ff" points="508.95,-252.35 506.21,-242.12 501.97,-251.83 508.95,-252.35"/>
</a>
</g>
</g>
<!-- Node16 -->
<g id="Node000016" class="node">
<title>Node16</title>
<g id="a_Node000016"><a xlink:title=" ">
<polygon fill="#e0e0e0" stroke="#999999" points="599.25,-185 548.75,-185 548.75,-165.75 599.25,-165.75 599.25,-185"/>
<text text-anchor="middle" x="574" y="-171.5" font-family="Helvetica,sans-Serif" font-size="10.00">stdarg.h</text>
</a>
</g>
</g>
<!-- Node14&#45;&gt;Node16 -->
<g id="edge24_Node000014_Node000016" class="edge">
<title>Node14&#45;&gt;Node16</title>
<g id="a_edge24_Node000014_Node000016"><a xlink:title=" ">
<path fill="none" stroke="#63b8ff" d="M520.12,-275.84C533.07,-268.11 550.24,-255.78 560,-240.25 568.24,-227.14 571.67,-209.87 573.08,-196.59"/>
<polygon fill="#63b8ff" stroke="#63b8ff" points="576.56,-197.09 573.8,-186.86 569.58,-196.57 576.56,-197.09"/>
</a>
</g>
</g>
<!-- Node18 -->
<g id="Node000018" class="node">
<title>Node18</title>
<g id="a_Node000018"><a xlink:href="_close_8h.html" target="_top" xlink:title=" ">
<polygon fill="white" stroke="#666666" points="350.38,-240.25 273.62,-240.25 273.62,-221 350.38,-221 350.38,-240.25"/>
<text text-anchor="middle" x="312" y="-226.75" font-family="Helvetica,sans-Serif" font-size="10.00">Cpl/Io/Close.h</text>
</a>
</g>
</g>
<!-- Node14&#45;&gt;Node18 -->
<g id="edge21_Node000014_Node000018" class="edge">
<title>Node14&#45;&gt;Node18</title>
<g id="a_edge21_Node000014_Node000018"><a xlink:title=" ">
<path fill="none" stroke="#63b8ff" d="M470.6,-275.84C438.91,-267.01 390.43,-253.49 355.42,-243.73"/>
<polygon fill="#63b8ff" stroke="#63b8ff" points="356.59,-240.42 346.02,-241.11 354.71,-247.17 356.59,-240.42"/>
</a>
</g>
</g>
<!-- Node19 -->
<g id="Node000019" class="node">
<title>Node19</title>
<g id="a_Node000019"><a xlink:href="_is_eos_8h.html" target="_top" xlink:title=" ">
<polygon fill="white" stroke="#666666" points="445.38,-240.25 368.62,-240.25 368.62,-221 445.38,-221 445.38,-240.25"/>
<text text-anchor="middle" x="407" y="-226.75" font-family="Helvetica,sans-Serif" font-size="10.00">Cpl/Io/IsEos.h</text>
</a>
</g>
</g>
<!-- Node14&#45;&gt;Node19 -->
<g id="edge23_Node000014_Node000019" class="edge">
<title>Node14&#45;&gt;Node19</title>
<g id="a_edge23_Node000014_Node000019"><a xlink:title=" ">
<path fill="none" stroke="#63b8ff" d="M486.71,-275.84C472.1,-267.73 450.37,-255.68 433.29,-246.21"/>
<polygon fill="#63b8ff" stroke="#63b8ff" points="435.13,-243.23 424.69,-241.44 431.74,-249.35 435.13,-243.23"/>
</a>
</g>
</g>
<!-- Node15&#45;&gt;Node8 -->
<g id="edge18_Node000015_Node000008" class="edge">
<title>Node15&#45;&gt;Node8</title>
<g id="a_edge18_Node000015_Node000008"><a xlink:title=" ">
<path fill="none" stroke="#63b8ff" d="M501.58,-220.76C493.06,-207.4 475.37,-181.95 455,-165.75 438.58,-152.69 417.71,-142.12 400.1,-134.54"/>
<polygon fill="#63b8ff" stroke="#63b8ff" points="401.6,-131.38 391.02,-130.8 398.93,-137.85 401.6,-131.38"/>
</a>
</g>
</g>
<!-- Node15&#45;&gt;Node13 -->
<g id="edge17_Node000015_Node000013" class="edge">
<title>Node15&#45;&gt;Node13</title>
<g id="a_edge17_Node000015_Node000013"><a xlink:title=" ">
<path fill="none" stroke="#63b8ff" d="M507.11,-220.82C507.42,-195.5 508.31,-122 508.75,-86.09"/>
<polygon fill="#63b8ff" stroke="#63b8ff" points="512.25,-86.28 508.87,-76.24 505.25,-86.19 512.25,-86.28"/>
</a>
</g>
</g>
<!-- Node15&#45;&gt;Node16 -->
<g id="edge19_Node000015_Node000016" class="edge">
<title>Node15&#45;&gt;Node16</title>
<g id="a_edge19_Node000015_Node000016"><a xlink:title=" ">
<path fill="none" stroke="#63b8ff" d="M518.37,-220.59C528.05,-212.9 542.2,-201.65 553.81,-192.43"/>
<polygon fill="#63b8ff" stroke="#63b8ff" points="555.97,-195.18 561.62,-186.22 551.61,-189.7 555.97,-195.18"/>
</a>
</g>
</g>
<!-- Node17 -->
<g id="Node000017" class="node">
<title>Node17</title>
<g id="a_Node000017"><a xlink:title=" ">
<polygon fill="#e0e0e0" stroke="#999999" points="445.75,-185 392.25,-185 392.25,-165.75 445.75,-165.75 445.75,-185"/>
<text text-anchor="middle" x="419" y="-171.5" font-family="Helvetica,sans-Serif" font-size="10.00">iostream</text>
</a>
</g>
</g>
<!-- Node15&#45;&gt;Node17 -->
<g id="edge20_Node000015_Node000017" class="edge">
<title>Node15&#45;&gt;Node17</title>
<g id="a_edge20_Node000015_Node000017"><a xlink:title=" ">
<path fill="none" stroke="#63b8ff" d="M492.07,-220.59C478.8,-212.56 459.13,-200.66 443.55,-191.23"/>
<polygon fill="#63b8ff" stroke="#63b8ff" points="445.66,-188.42 435.3,-186.24 442.04,-194.41 445.66,-188.42"/>
</a>
</g>
</g>
<!-- Node18&#45;&gt;Node7 -->
<g id="edge22_Node000018_Node000007" class="edge">
<title>Node18&#45;&gt;Node7</title>
<g id="a_edge22_Node000018_Node000007"><a xlink:title=" ">
<path fill="none" stroke="#63b8ff" d="M289.27,-220.6C273.84,-213.3 254.26,-201.5 243,-185 234.3,-172.25 231.18,-154.95 230.16,-141.57"/>
<polygon fill="#63b8ff" stroke="#63b8ff" points="233.67,-141.59 229.78,-131.73 226.67,-141.86 233.67,-141.59"/>
</a>
</g>
</g>
<!-- Node21&#45;&gt;Node4 -->
<g id="edge34_Node000021_Node000004" class="edge">
<title>Node21&#45;&gt;Node4</title>
<g id="a_edge34_Node000021_Node000004"><a xlink:title=" ">
<path fill="none" stroke="#63b8ff" d="M269.08,-386.34C281.48,-378.39 299.79,-366.64 314.43,-357.25"/>
<polygon fill="#63b8ff" stroke="#63b8ff" points="316.05,-360.37 322.58,-352.02 312.27,-354.47 316.05,-360.37"/>
</a>
</g>
</g>
<!-- Node21&#45;&gt;Node20 -->
<g id="edge33_Node000021_Node000020" class="edge">
<title>Node21&#45;&gt;Node20</title>
<g id="a_edge33_Node000021_Node000020"><a xlink:title=" ">
<path fill="none" stroke="#63b8ff" d="M255.49,-386.5C256.44,-369.25 258.57,-330.83 259.88,-307.06"/>
<polygon fill="#63b8ff" stroke="#63b8ff" points="263.36,-307.57 260.42,-297.39 256.37,-307.18 263.36,-307.57"/>
</a>
</g>
</g>
<!-- Node22 -->
<g id="Node000022" class="node">
<title>Node22</title>
<g id="a_Node000022"><a xlink:href="_processor_api_8h.html" target="_top" xlink:title=" ">
<polygon fill="white" stroke="#666666" points="544,-350.75 414,-350.75 414,-331.5 544,-331.5 544,-350.75"/>
<text text-anchor="middle" x="479" y="-337.25" font-family="Helvetica,sans-Serif" font-size="10.00">Cpl/TShell/ProcessorApi.h</text>
</a>
</g>
</g>
<!-- Node21&#45;&gt;Node22 -->
<g id="edge27_Node000021_Node000022" class="edge">
<title>Node21&#45;&gt;Node22</title>
<g id="a_edge27_Node000021_Node000022"><a xlink:title=" ">
<path fill="none" stroke="#63b8ff" d="M293.25,-386.28C330.94,-377.32 388.69,-363.59 429.79,-353.82"/>
<polygon fill="#63b8ff" stroke="#63b8ff" points="430.51,-357.25 439.43,-351.53 428.89,-350.44 430.51,-357.25"/>
</a>
</g>
</g>
<!-- Node21&#45;&gt;Node24 -->
<g id="edge35_Node000021_Node000024" class="edge">
<title>Node21&#45;&gt;Node24</title>
<g id="a_edge35_Node000021_Node000024"><a xlink:title=" ">
<path fill="none" stroke="#63b8ff" d="M240.92,-386.34C228.52,-378.39 210.21,-366.64 195.57,-357.25"/>
<polygon fill="#63b8ff" stroke="#63b8ff" points="197.73,-354.47 187.42,-352.02 193.95,-360.37 197.73,-354.47"/>
</a>
</g>
</g>
<!-- Node22&#45;&gt;Node14 -->
<g id="edge32_Node000022_Node000014" class="edge">
<title>Node22&#45;&gt;Node14</title>
<g id="a_edge32_Node000022_Node000014"><a xlink:title=" ">
<path fill="none" stroke="#63b8ff" d="M482.96,-331.33C486.04,-324.51 490.41,-314.81 494.29,-306.2"/>
<polygon fill="#63b8ff" stroke="#63b8ff" points="497.41,-307.79 498.33,-297.24 491.03,-304.92 497.41,-307.79"/>
</a>
</g>
</g>
<!-- Node23 -->
<g id="Node000023" class="node">
<title>Node23</title>
<g id="a_Node000023"><a xlink:href="_input_8h.html" target="_top" xlink:title=" ">
<polygon fill="white" stroke="#666666" points="443.88,-295.5 370.12,-295.5 370.12,-276.25 443.88,-276.25 443.88,-295.5"/>
<text text-anchor="middle" x="407" y="-282" font-family="Helvetica,sans-Serif" font-size="10.00">Cpl/Io/Input.h</text>
</a>
</g>
</g>
<!-- Node22&#45;&gt;Node23 -->
<g id="edge28_Node000022_Node000023" class="edge">
<title>Node22&#45;&gt;Node23</title>
<g id="a_edge28_Node000022_Node000023"><a xlink:title=" ">
<path fill="none" stroke="#63b8ff" d="M466.79,-331.09C456.17,-323.24 440.56,-311.7 427.96,-302.37"/>
<polygon fill="#63b8ff" stroke="#63b8ff" points="430.37,-299.81 420.25,-296.67 426.21,-305.44 430.37,-299.81"/>
</a>
</g>
</g>
<!-- Node23&#45;&gt;Node15 -->
<g id="edge29_Node000023_Node000015" class="edge">
<title>Node23&#45;&gt;Node15</title>
<g id="a_edge29_Node000023_Node000015"><a xlink:title=" ">
<path fill="none" stroke="#63b8ff" d="M423.96,-275.84C439.26,-267.69 462.03,-255.57 479.86,-246.08"/>
<polygon fill="#63b8ff" stroke="#63b8ff" points="481.44,-249.2 488.62,-241.41 478.15,-243.02 481.44,-249.2"/>
</a>
</g>
</g>
<!-- Node23&#45;&gt;Node18 -->
<g id="edge30_Node000023_Node000018" class="edge">
<title>Node23&#45;&gt;Node18</title>
<g id="a_edge30_Node000023_Node000018"><a xlink:title=" ">
<path fill="none" stroke="#63b8ff" d="M390.88,-275.84C376.42,-267.73 354.92,-255.68 338.02,-246.21"/>
<polygon fill="#63b8ff" stroke="#63b8ff" points="339.95,-243.28 329.51,-241.44 336.53,-249.39 339.95,-243.28"/>
</a>
</g>
</g>
<!-- Node23&#45;&gt;Node19 -->
<g id="edge31_Node000023_Node000019" class="edge">
<title>Node23&#45;&gt;Node19</title>
<g id="a_edge31_Node000023_Node000019"><a xlink:title=" ">
<path fill="none" stroke="#63b8ff" d="M407,-276.08C407,-269.57 407,-260.42 407,-252.12"/>
<polygon fill="#63b8ff" stroke="#63b8ff" points="410.5,-252.12 407,-242.12 403.5,-252.12 410.5,-252.12"/>
</a>
</g>
</g>
<!-- Node25 -->
<g id="Node000025" class="node">
<title>Node25</title>
<g id="a_Node000025"><a xlink:href="_avl_tree___8h.html" target="_top" xlink:title=" ">
<polygon fill="white" stroke="#666666" points="190,-295.5 66,-295.5 66,-276.25 190,-276.25 190,-295.5"/>
<text text-anchor="middle" x="128" y="-282" font-family="Helvetica,sans-Serif" font-size="10.00">Cpl/Container/AvlTree_.h</text>
</a>
</g>
</g>
<!-- Node24&#45;&gt;Node25 -->
<g id="edge36_Node000024_Node000025" class="edge">
<title>Node24&#45;&gt;Node25</title>
<g id="a_edge36_Node000024_Node000025"><a xlink:title=" ">
<path fill="none" stroke="#63b8ff" d="M164.73,-331.33C158.72,-324.05 149.99,-313.48 142.54,-304.48"/>
<polygon fill="#63b8ff" stroke="#63b8ff" points="145.46,-302.51 136.39,-297.03 140.06,-306.96 145.46,-302.51"/>
</a>
</g>
</g>
<!-- Node25&#45;&gt;Node2 -->
<g id="edge37_Node000025_Node000002" class="edge">
<title>Node25&#45;&gt;Node2</title>
<g id="a_edge37_Node000025_Node000002"><a xlink:title=" ">
<path fill="none" stroke="#63b8ff" d="M122.56,-275.96C112.05,-257.88 90,-215.29 90,-176.38 90,-176.38 90,-176.38 90,-119.12 90,-87.4 79.36,-51.86 71.69,-30.37"/>
<polygon fill="#63b8ff" stroke="#63b8ff" points="75.03,-29.3 68.25,-21.15 68.47,-31.75 75.03,-29.3"/>
</a>
</g>
</g>
<!-- Node25&#45;&gt;Node5 -->
<g id="edge38_Node000025_Node000005" class="edge">
<title>Node25&#45;&gt;Node5</title>
<g id="a_edge38_Node000025_Node000005"><a xlink:title=" ">
<path fill="none" stroke="#63b8ff" d="M139.2,-275.84C148.74,-268.15 162.67,-256.9 174.11,-247.68"/>
<polygon fill="#63b8ff" stroke="#63b8ff" points="176.21,-250.48 181.79,-241.48 171.81,-245.03 176.21,-250.48"/>
</a>
</g>
</g>
<!-- Node27 -->
<g id="Node000027" class="node">
<title>Node27</title>
<g id="a_Node000027"><a xlink:title=" ">
<polygon fill="#e0e0e0" stroke="#999999" points="646.38,-406 599.62,-406 599.62,-386.75 646.38,-386.75 646.38,-406"/>
<text text-anchor="middle" x="623" y="-392.5" font-family="Helvetica,sans-Serif" font-size="10.00">stdlib.h</text>
</a>
</g>
</g>
<!-- Node26&#45;&gt;Node27 -->
<g id="edge42_Node000026_Node000027" class="edge">
<title>Node26&#45;&gt;Node27</title>
<g id="a_edge42_Node000026_Node000027"><a xlink:title=" ">
<path fill="none" stroke="#63b8ff" d="M523.36,-441.59C542.23,-433.22 570.59,-420.63 592.23,-411.03"/>
<polygon fill="#63b8ff" stroke="#63b8ff" points="593.44,-414.32 601.16,-407.07 590.6,-407.92 593.44,-414.32"/>
</a>
</g>
</g>
</g>
</svg>
