<?xml version="1.0" encoding="UTF-8" standalone="no"?>
<!DOCTYPE svg PUBLIC "-//W3C//DTD SVG 1.1//EN"
 "http://www.w3.org/Graphics/SVG/1.1/DTD/svg11.dtd">
<!-- Generated by graphviz version 9.0.0 (20230911.1827)
 -->
<!-- Title: Driver/TPipe/Maker.h Pages: 1 -->
<svg width="877pt" height="481pt"
 viewBox="0.00 0.00 876.94 480.50" xmlns="http://www.w3.org/2000/svg" xmlns:xlink="http://www.w3.org/1999/xlink">
<g id="graph0" class="graph" transform="scale(1 1) rotate(0) translate(4 476.5)">
<title>Driver/TPipe/Maker.h</title>
<!-- Node1 -->
<g id="Node000001" class="node">
<title>Node1</title>
<g id="a_Node000001"><a xlink:title=" ">
<polygon fill="#999999" stroke="#666666" points="662.69,-472.5 555.19,-472.5 555.19,-453.25 662.69,-453.25 662.69,-472.5"/>
<text text-anchor="middle" x="608.94" y="-459" font-family="Helvetica,sans-Serif" font-size="10.00">Driver/TPipe/Maker.h</text>
</a>
</g>
</g>
<!-- Node2 -->
<g id="Node000002" class="node">
<title>Node2</title>
<g id="a_Node000002"><a xlink:title=" ">
<polygon fill="#e0e0e0" stroke="#999999" points="868.94,-19.25 786.94,-19.25 786.94,0 868.94,0 868.94,-19.25"/>
<text text-anchor="middle" x="827.94" y="-5.75" font-family="Helvetica,sans-Serif" font-size="10.00">colony_config.h</text>
</a>
</g>
</g>
<!-- Node1&#45;&gt;Node2 -->
<g id="edge1_Node000001_Node000002" class="edge">
<title>Node1&#45;&gt;Node2</title>
<g id="a_edge1_Node000001_Node000002"><a xlink:title=" ">
<path fill="none" stroke="#63b8ff" d="M663.13,-460.93C738.53,-456.4 865.94,-435.75 865.94,-347.75 865.94,-347.75 865.94,-347.75 865.94,-119.12 865.94,-86.13 850.1,-50.51 838.87,-29.41"/>
<polygon fill="#63b8ff" stroke="#63b8ff" points="842.04,-27.9 834.12,-20.86 835.92,-31.3 842.04,-27.9"/>
</a>
</g>
</g>
<!-- Node3 -->
<g id="Node000003" class="node">
<title>Node3</title>
<g id="a_Node000003"><a xlink:href="_pipe_8h.html" target="_top" xlink:title=" ">
<polygon fill="white" stroke="#666666" points="402.94,-417.25 302.94,-417.25 302.94,-398 402.94,-398 402.94,-417.25"/>
<text text-anchor="middle" x="352.94" y="-403.75" font-family="Helvetica,sans-Serif" font-size="10.00">Driver/TPipe/Pipe.h</text>
</a>
</g>
</g>
<!-- Node1&#45;&gt;Node3 -->
<g id="edge2_Node000001_Node000003" class="edge">
<title>Node1&#45;&gt;Node3</title>
<g id="a_edge2_Node000001_Node000003"><a xlink:title=" ">
<path fill="none" stroke="#63b8ff" d="M565.23,-452.78C521.69,-443.73 454.74,-429.8 407.69,-420.01"/>
<polygon fill="#63b8ff" stroke="#63b8ff" points="408.46,-416.6 397.96,-417.99 407.04,-423.45 408.46,-416.6"/>
</a>
</g>
</g>
<!-- Node4 -->
<g id="Node000004" class="node">
<title>Node4</title>
<g id="a_Node000004"><a xlink:href="_map_8h.html" target="_top" xlink:title=" ">
<polygon fill="white" stroke="#666666" points="826.82,-356.38 723.07,-356.38 723.07,-337.12 826.82,-337.12 826.82,-356.38"/>
<text text-anchor="middle" x="774.94" y="-342.88" font-family="Helvetica,sans-Serif" font-size="10.00">Cpl/Container/Map.h</text>
</a>
</g>
</g>
<!-- Node3&#45;&gt;Node4 -->
<g id="edge3_Node000003_Node000004" class="edge">
<title>Node3&#45;&gt;Node4</title>
<g id="a_edge3_Node000003_Node000004"><a xlink:title=" ">
<path fill="none" stroke="#63b8ff" d="M403.42,-402.1C473.45,-395.43 603.9,-381.6 713.94,-362 718.52,-361.18 723.27,-360.24 728.01,-359.24"/>
<polygon fill="#63b8ff" stroke="#63b8ff" points="728.46,-362.73 737.47,-357.15 726.95,-355.89 728.46,-362.73"/>
</a>
</g>
</g>
<!-- Node15 -->
<g id="Node000015" class="node">
<title>Node15</title>
<g id="a_Node000015"><a xlink:href="_tx_8h.html" target="_top" xlink:title=" ">
<polygon fill="white" stroke="#666666" points="140.44,-295.5 49.44,-295.5 49.44,-276.25 140.44,-276.25 140.44,-295.5"/>
<text text-anchor="middle" x="94.94" y="-282" font-family="Helvetica,sans-Serif" font-size="10.00">Driver/TPipe/Tx.h</text>
</a>
</g>
</g>
<!-- Node3&#45;&gt;Node15 -->
<g id="edge16_Node000003_Node000015" class="edge">
<title>Node3&#45;&gt;Node15</title>
<g id="a_edge16_Node000003_Node000015"><a xlink:title=" ">
<path fill="none" stroke="#63b8ff" d="M302.46,-406.07C257.83,-403.31 192.73,-393.55 145.94,-362 125.57,-348.26 111.1,-323.41 102.9,-306.06"/>
<polygon fill="#63b8ff" stroke="#63b8ff" points="106.28,-305.05 99.03,-297.32 99.88,-307.89 106.28,-305.05"/>
</a>
</g>
</g>
<!-- Node19 -->
<g id="Node000019" class="node">
<title>Node19</title>
<g id="a_Node000019"><a xlink:href="_rx_frame_handler_api_8h.html" target="_top" xlink:title=" ">
<polygon fill="white" stroke="#666666" points="704.82,-362 559.07,-362 559.07,-331.5 704.82,-331.5 704.82,-362"/>
<text text-anchor="start" x="567.07" y="-348.5" font-family="Helvetica,sans-Serif" font-size="10.00">Driver/TPipe/RxFrameHandler</text>
<text text-anchor="middle" x="631.94" y="-337.25" font-family="Helvetica,sans-Serif" font-size="10.00">Api.h</text>
</a>
</g>
</g>
<!-- Node3&#45;&gt;Node19 -->
<g id="edge23_Node000003_Node000019" class="edge">
<title>Node3&#45;&gt;Node19</title>
<g id="a_edge23_Node000003_Node000019"><a xlink:title=" ">
<path fill="none" stroke="#63b8ff" d="M395.92,-397.55C437.14,-388.86 500.39,-375.51 551.04,-364.82"/>
<polygon fill="#63b8ff" stroke="#63b8ff" points="551.76,-368.25 560.83,-362.76 550.32,-361.4 551.76,-368.25"/>
</a>
</g>
</g>
<!-- Node20 -->
<g id="Node000020" class="node">
<title>Node20</title>
<g id="a_Node000020"><a xlink:href="_stream_decoder_8h.html" target="_top" xlink:title=" ">
<polygon fill="white" stroke="#666666" points="325.32,-356.38 164.57,-356.38 164.57,-337.12 325.32,-337.12 325.32,-356.38"/>
<text text-anchor="middle" x="244.94" y="-342.88" font-family="Helvetica,sans-Serif" font-size="10.00">Cpl/Text/Frame/StreamDecoder.h</text>
</a>
</g>
</g>
<!-- Node3&#45;&gt;Node20 -->
<g id="edge25_Node000003_Node000020" class="edge">
<title>Node3&#45;&gt;Node20</title>
<g id="a_edge25_Node000003_Node000020"><a xlink:title=" ">
<path fill="none" stroke="#63b8ff" d="M336.54,-397.68C319.25,-388.26 291.76,-373.27 271.4,-362.18"/>
<polygon fill="#63b8ff" stroke="#63b8ff" points="273.28,-359.21 262.83,-357.5 269.93,-365.36 273.28,-359.21"/>
</a>
</g>
</g>
<!-- Node24 -->
<g id="Node000024" class="node">
<title>Node24</title>
<g id="a_Node000024"><a xlink:href="_input_8h.html" target="_top" xlink:title=" ">
<polygon fill="white" stroke="#666666" points="231.82,-295.5 158.07,-295.5 158.07,-276.25 231.82,-276.25 231.82,-295.5"/>
<text text-anchor="middle" x="194.94" y="-282" font-family="Helvetica,sans-Serif" font-size="10.00">Cpl/Io/Input.h</text>
</a>
</g>
</g>
<!-- Node3&#45;&gt;Node24 -->
<g id="edge45_Node000003_Node000024" class="edge">
<title>Node3&#45;&gt;Node24</title>
<g id="a_edge45_Node000003_Node000024"><a xlink:title=" ">
<path fill="none" stroke="#63b8ff" d="M302.81,-402.29C250.62,-396.61 174,-384.6 155.94,-362 141.42,-343.81 159.79,-319.37 175.92,-303.38"/>
<polygon fill="#63b8ff" stroke="#63b8ff" points="177.94,-306.28 182.86,-296.9 173.16,-301.17 177.94,-306.28"/>
</a>
</g>
</g>
<!-- Node27 -->
<g id="Node000027" class="node">
<title>Node27</title>
<g id="a_Node000027"><a xlink:href="_stream_encoder_8h.html" target="_top" xlink:title=" ">
<polygon fill="white" stroke="#666666" points="540.94,-356.38 380.94,-356.38 380.94,-337.12 540.94,-337.12 540.94,-356.38"/>
<text text-anchor="middle" x="460.94" y="-342.88" font-family="Helvetica,sans-Serif" font-size="10.00">Cpl/Text/Frame/StreamEncoder.h</text>
</a>
</g>
</g>
<!-- Node3&#45;&gt;Node27 -->
<g id="edge34_Node000003_Node000027" class="edge">
<title>Node3&#45;&gt;Node27</title>
<g id="a_edge34_Node000003_Node000027"><a xlink:title=" ">
<path fill="none" stroke="#63b8ff" d="M369.35,-397.68C386.63,-388.26 414.12,-373.27 434.48,-362.18"/>
<polygon fill="#63b8ff" stroke="#63b8ff" points="435.95,-365.36 443.06,-357.5 432.6,-359.21 435.95,-365.36"/>
</a>
</g>
</g>
<!-- Node30 -->
<g id="Node000030" class="node">
<title>Node30</title>
<g id="a_Node000030"><a xlink:href="_output_8h.html" target="_top" xlink:title=" ">
<polygon fill="white" stroke="#666666" points="332.57,-295.5 251.32,-295.5 251.32,-276.25 332.57,-276.25 332.57,-295.5"/>
<text text-anchor="middle" x="291.94" y="-282" font-family="Helvetica,sans-Serif" font-size="10.00">Cpl/Io/Output.h</text>
</a>
</g>
</g>
<!-- Node3&#45;&gt;Node30 -->
<g id="edge46_Node000003_Node000030" class="edge">
<title>Node3&#45;&gt;Node30</title>
<g id="a_edge46_Node000003_Node000030"><a xlink:title=" ">
<path fill="none" stroke="#63b8ff" d="M352.16,-397.77C350.55,-383.16 345.97,-353.44 333.94,-331.5 328.23,-321.09 319.52,-311.27 311.5,-303.51"/>
<polygon fill="#63b8ff" stroke="#63b8ff" points="314.11,-301.15 304.37,-296.99 309.39,-306.32 314.11,-301.15"/>
</a>
</g>
</g>
<!-- Node31 -->
<g id="Node000031" class="node">
<title>Node31</title>
<g id="a_Node000031"><a xlink:href="_mutex_8h.html" target="_top" xlink:title=" ">
<polygon fill="white" stroke="#666666" points="114.44,-129.75 11.44,-129.75 11.44,-110.5 114.44,-110.5 114.44,-129.75"/>
<text text-anchor="middle" x="62.94" y="-116.25" font-family="Helvetica,sans-Serif" font-size="10.00">Cpl/System/Mutex.h</text>
</a>
</g>
</g>
<!-- Node3&#45;&gt;Node31 -->
<g id="edge43_Node000003_Node000031" class="edge">
<title>Node3&#45;&gt;Node31</title>
<g id="a_edge43_Node000003_Node000031"><a xlink:title=" ">
<path fill="none" stroke="#63b8ff" d="M302.49,-404.51C252.34,-400.77 174.26,-390.44 112.94,-362 65.05,-339.79 20.94,-339.66 20.94,-286.88 20.94,-286.88 20.94,-286.88 20.94,-229.62 20.94,-196.26 38.43,-160.77 50.84,-139.8"/>
<polygon fill="#63b8ff" stroke="#63b8ff" points="53.67,-141.87 55.95,-131.53 47.72,-138.19 53.67,-141.87"/>
</a>
</g>
</g>
<!-- Node5 -->
<g id="Node000005" class="node">
<title>Node5</title>
<g id="a_Node000005"><a xlink:href="_avl_tree___8h.html" target="_top" xlink:title=" ">
<polygon fill="white" stroke="#666666" points="836.94,-295.5 712.94,-295.5 712.94,-276.25 836.94,-276.25 836.94,-295.5"/>
<text text-anchor="middle" x="774.94" y="-282" font-family="Helvetica,sans-Serif" font-size="10.00">Cpl/Container/AvlTree_.h</text>
</a>
</g>
</g>
<!-- Node4&#45;&gt;Node5 -->
<g id="edge4_Node000004_Node000005" class="edge">
<title>Node4&#45;&gt;Node5</title>
<g id="a_edge4_Node000004_Node000005"><a xlink:title=" ">
<path fill="none" stroke="#63b8ff" d="M774.94,-336.81C774.94,-329.03 774.94,-317.45 774.94,-307.41"/>
<polygon fill="#63b8ff" stroke="#63b8ff" points="778.44,-307.41 774.94,-297.41 771.44,-307.41 778.44,-307.41"/>
</a>
</g>
</g>
<!-- Node5&#45;&gt;Node2 -->
<g id="edge5_Node000005_Node000002" class="edge">
<title>Node5&#45;&gt;Node2</title>
<g id="a_edge5_Node000005_Node000002"><a xlink:title=" ">
<path fill="none" stroke="#63b8ff" d="M783.3,-275.97C790.94,-267.4 802.06,-253.8 808.94,-240.25 822.36,-213.84 827.94,-205.99 827.94,-176.38 827.94,-176.38 827.94,-176.38 827.94,-119.12 827.94,-88.41 827.94,-52.8 827.94,-30.99"/>
<polygon fill="#63b8ff" stroke="#63b8ff" points="831.44,-31.14 827.94,-21.14 824.44,-31.14 831.44,-31.14"/>
</a>
</g>
</g>
<!-- Node6 -->
<g id="Node000006" class="node">
<title>Node6</title>
<g id="a_Node000006"><a xlink:href="_map_item_8h.html" target="_top" xlink:title=" ">
<polygon fill="white" stroke="#666666" points="799.57,-240.25 676.32,-240.25 676.32,-221 799.57,-221 799.57,-240.25"/>
<text text-anchor="middle" x="737.94" y="-226.75" font-family="Helvetica,sans-Serif" font-size="10.00">Cpl/Container/MapItem.h</text>
</a>
</g>
</g>
<!-- Node5&#45;&gt;Node6 -->
<g id="edge6_Node000005_Node000006" class="edge">
<title>Node5&#45;&gt;Node6</title>
<g id="a_edge6_Node000005_Node000006"><a xlink:title=" ">
<path fill="none" stroke="#63b8ff" d="M768.83,-276.08C763.88,-268.96 756.74,-258.68 750.57,-249.8"/>
<polygon fill="#63b8ff" stroke="#63b8ff" points="753.63,-248.07 745.05,-241.85 747.88,-252.06 753.63,-248.07"/>
</a>
</g>
</g>
<!-- Node7 -->
<g id="Node000007" class="node">
<title>Node7</title>
<g id="a_Node000007"><a xlink:href="_dict_item_8h.html" target="_top" xlink:title=" ">
<polygon fill="white" stroke="#666666" points="609.82,-185 488.07,-185 488.07,-165.75 609.82,-165.75 609.82,-185"/>
<text text-anchor="middle" x="548.94" y="-171.5" font-family="Helvetica,sans-Serif" font-size="10.00">Cpl/Container/DictItem.h</text>
</a>
</g>
</g>
<!-- Node6&#45;&gt;Node7 -->
<g id="edge7_Node000006_Node000007" class="edge">
<title>Node6&#45;&gt;Node7</title>
<g id="a_edge7_Node000006_Node000007"><a xlink:title=" ">
<path fill="none" stroke="#63b8ff" d="M705.88,-220.59C674.52,-211.76 626.55,-198.24 591.9,-188.48"/>
<polygon fill="#63b8ff" stroke="#63b8ff" points="593.19,-185.21 582.62,-185.86 591.29,-191.94 593.19,-185.21"/>
</a>
</g>
</g>
<!-- Node8 -->
<g id="Node000008" class="node">
<title>Node8</title>
<g id="a_Node000008"><a xlink:href="_item_8h.html" target="_top" xlink:title=" ">
<polygon fill="white" stroke="#666666" points="498.19,-129.75 393.69,-129.75 393.69,-110.5 498.19,-110.5 498.19,-129.75"/>
<text text-anchor="middle" x="445.94" y="-116.25" font-family="Helvetica,sans-Serif" font-size="10.00">Cpl/Container/Item.h</text>
</a>
</g>
</g>
<!-- Node7&#45;&gt;Node8 -->
<g id="edge8_Node000007_Node000008" class="edge">
<title>Node7&#45;&gt;Node8</title>
<g id="a_edge8_Node000007_Node000008"><a xlink:title=" ">
<path fill="none" stroke="#63b8ff" d="M531.47,-165.34C515.64,-157.16 492.04,-144.96 473.64,-135.44"/>
<polygon fill="#63b8ff" stroke="#63b8ff" points="475.34,-132.38 464.85,-130.9 472.12,-138.6 475.34,-132.38"/>
</a>
</g>
</g>
<!-- Node9 -->
<g id="Node000009" class="node">
<title>Node9</title>
<g id="a_Node000009"><a xlink:href="_key_8h.html" target="_top" xlink:title=" ">
<polygon fill="white" stroke="#666666" points="272.69,-129.75 171.19,-129.75 171.19,-110.5 272.69,-110.5 272.69,-129.75"/>
<text text-anchor="middle" x="221.94" y="-116.25" font-family="Helvetica,sans-Serif" font-size="10.00">Cpl/Container/Key.h</text>
</a>
</g>
</g>
<!-- Node7&#45;&gt;Node9 -->
<g id="edge9_Node000007_Node000009" class="edge">
<title>Node7&#45;&gt;Node9</title>
<g id="a_edge9_Node000007_Node000009"><a xlink:title=" ">
<path fill="none" stroke="#63b8ff" d="M493.1,-165.28C435.09,-155.84 344.54,-141.09 284.24,-131.27"/>
<polygon fill="#63b8ff" stroke="#63b8ff" points="284.91,-127.83 274.47,-129.68 283.78,-134.74 284.91,-127.83"/>
</a>
</g>
</g>
<!-- Node10 -->
<g id="Node000010" class="node">
<title>Node10</title>
<g id="a_Node000010"><a xlink:href="_fatal_error_8h.html" target="_top" xlink:title=" ">
<polygon fill="white" stroke="#666666" points="591.32,-74.5 472.57,-74.5 472.57,-55.25 591.32,-55.25 591.32,-74.5"/>
<text text-anchor="middle" x="531.94" y="-61" font-family="Helvetica,sans-Serif" font-size="10.00">Cpl/System/FatalError.h</text>
</a>
</g>
</g>
<!-- Node9&#45;&gt;Node10 -->
<g id="edge10_Node000009_Node000010" class="edge">
<title>Node9&#45;&gt;Node10</title>
<g id="a_edge10_Node000009_Node000010"><a xlink:title=" ">
<path fill="none" stroke="#63b8ff" d="M273.13,-110.33C326.42,-101.18 409.99,-86.82 467.68,-76.91"/>
<polygon fill="#63b8ff" stroke="#63b8ff" points="468.1,-80.39 477.37,-75.25 466.92,-73.49 468.1,-80.39"/>
</a>
</g>
</g>
<!-- Node12 -->
<g id="Node000012" class="node">
<title>Node12</title>
<g id="a_Node000012"><a xlink:title=" ">
<polygon fill="#e0e0e0" stroke="#999999" points="245.69,-74.5 198.19,-74.5 198.19,-55.25 245.69,-55.25 245.69,-74.5"/>
<text text-anchor="middle" x="221.94" y="-61" font-family="Helvetica,sans-Serif" font-size="10.00">stdint.h</text>
</a>
</g>
</g>
<!-- Node9&#45;&gt;Node12 -->
<g id="edge13_Node000009_Node000012" class="edge">
<title>Node9&#45;&gt;Node12</title>
<g id="a_edge13_Node000009_Node000012"><a xlink:title=" ">
<path fill="none" stroke="#63b8ff" d="M221.94,-110.33C221.94,-103.82 221.94,-94.67 221.94,-86.37"/>
<polygon fill="#63b8ff" stroke="#63b8ff" points="225.44,-86.37 221.94,-76.37 218.44,-86.37 225.44,-86.37"/>
</a>
</g>
</g>
<!-- Node13 -->
<g id="Node000013" class="node">
<title>Node13</title>
<g id="a_Node000013"><a xlink:title=" ">
<polygon fill="#e0e0e0" stroke="#999999" points="47.69,-74.5 0.19,-74.5 0.19,-55.25 47.69,-55.25 47.69,-74.5"/>
<text text-anchor="middle" x="23.94" y="-61" font-family="Helvetica,sans-Serif" font-size="10.00">string.h</text>
</a>
</g>
</g>
<!-- Node9&#45;&gt;Node13 -->
<g id="edge14_Node000009_Node000013" class="edge">
<title>Node9&#45;&gt;Node13</title>
<g id="a_edge14_Node000009_Node000013"><a xlink:title=" ">
<path fill="none" stroke="#63b8ff" d="M188.35,-110.09C152.41,-100.43 95.66,-85.16 59.12,-75.33"/>
<polygon fill="#63b8ff" stroke="#63b8ff" points="60.04,-71.96 49.48,-72.74 58.22,-78.72 60.04,-71.96"/>
</a>
</g>
</g>
<!-- Node14 -->
<g id="Node000014" class="node">
<title>Node14</title>
<g id="a_Node000014"><a xlink:title=" ">
<polygon fill="#e0e0e0" stroke="#999999" points="180.57,-74.5 105.32,-74.5 105.32,-55.25 180.57,-55.25 180.57,-74.5"/>
<text text-anchor="middle" x="142.94" y="-61" font-family="Helvetica,sans-Serif" font-size="10.00">colony_map.h</text>
</a>
</g>
</g>
<!-- Node9&#45;&gt;Node14 -->
<g id="edge15_Node000009_Node000014" class="edge">
<title>Node9&#45;&gt;Node14</title>
<g id="a_edge15_Node000009_Node000014"><a xlink:title=" ">
<path fill="none" stroke="#63b8ff" d="M208.54,-110.09C196.85,-102.21 179.64,-90.61 165.78,-81.27"/>
<polygon fill="#63b8ff" stroke="#63b8ff" points="167.91,-78.49 157.66,-75.8 164,-84.29 167.91,-78.49"/>
</a>
</g>
</g>
<!-- Node10&#45;&gt;Node2 -->
<g id="edge12_Node000010_Node000002" class="edge">
<title>Node10&#45;&gt;Node2</title>
<g id="a_edge12_Node000010_Node000002"><a xlink:title=" ">
<path fill="none" stroke="#63b8ff" d="M582.49,-54.78C636.29,-45.1 721.02,-29.86 775.52,-20.06"/>
<polygon fill="#63b8ff" stroke="#63b8ff" points="775.96,-23.53 785.18,-18.32 774.72,-16.64 775.96,-23.53"/>
</a>
</g>
</g>
<!-- Node11 -->
<g id="Node000011" class="node">
<title>Node11</title>
<g id="a_Node000011"><a xlink:title=" ">
<polygon fill="#e0e0e0" stroke="#999999" points="557.19,-19.25 506.69,-19.25 506.69,0 557.19,0 557.19,-19.25"/>
<text text-anchor="middle" x="531.94" y="-5.75" font-family="Helvetica,sans-Serif" font-size="10.00">stddef.h</text>
</a>
</g>
</g>
<!-- Node10&#45;&gt;Node11 -->
<g id="edge11_Node000010_Node000011" class="edge">
<title>Node10&#45;&gt;Node11</title>
<g id="a_edge11_Node000010_Node000011"><a xlink:title=" ">
<path fill="none" stroke="#63b8ff" d="M531.94,-55.08C531.94,-48.57 531.94,-39.42 531.94,-31.12"/>
<polygon fill="#63b8ff" stroke="#63b8ff" points="535.44,-31.12 531.94,-21.12 528.44,-31.12 535.44,-31.12"/>
</a>
</g>
</g>
<!-- Node15&#45;&gt;Node13 -->
<g id="edge22_Node000015_Node000013" class="edge">
<title>Node15&#45;&gt;Node13</title>
<g id="a_edge22_Node000015_Node000013"><a xlink:title=" ">
<path fill="none" stroke="#63b8ff" d="M79.9,-276.03C67.58,-268.09 50.51,-255.37 39.94,-240.25 10.18,-197.69 10.5,-180.97 1.94,-129.75 0.53,-121.31 0,-118.83 1.94,-110.5 4.02,-101.58 8.15,-92.39 12.28,-84.69"/>
<polygon fill="#63b8ff" stroke="#63b8ff" points="15.16,-86.7 17.14,-76.29 9.1,-83.19 15.16,-86.7"/>
</a>
</g>
</g>
<!-- Node16 -->
<g id="Node000016" class="node">
<title>Node16</title>
<g id="a_Node000016"><a xlink:href="_text_2_string_8h.html" target="_top" xlink:title=" ">
<polygon fill="white" stroke="#666666" points="136.94,-240.25 48.94,-240.25 48.94,-221 136.94,-221 136.94,-240.25"/>
<text text-anchor="middle" x="92.94" y="-226.75" font-family="Helvetica,sans-Serif" font-size="10.00">Cpl/Text/String.h</text>
</a>
</g>
</g>
<!-- Node15&#45;&gt;Node16 -->
<g id="edge17_Node000015_Node000016" class="edge">
<title>Node15&#45;&gt;Node16</title>
<g id="a_edge17_Node000015_Node000016"><a xlink:title=" ">
<path fill="none" stroke="#63b8ff" d="M94.61,-276.08C94.36,-269.49 94.02,-260.21 93.7,-251.82"/>
<polygon fill="#63b8ff" stroke="#63b8ff" points="97.21,-251.98 93.34,-242.12 90.21,-252.25 97.21,-251.98"/>
</a>
</g>
</g>
<!-- Node16&#45;&gt;Node9 -->
<g id="edge19_Node000016_Node000009" class="edge">
<title>Node16&#45;&gt;Node9</title>
<g id="a_edge19_Node000016_Node000009"><a xlink:title=" ">
<path fill="none" stroke="#63b8ff" d="M107.42,-220.53C120.73,-211.94 140.79,-198.41 156.94,-185 174.75,-170.22 193.42,-151.48 206.16,-138.13"/>
<polygon fill="#63b8ff" stroke="#63b8ff" points="208.6,-140.64 212.91,-130.96 203.51,-135.84 208.6,-140.64"/>
</a>
</g>
</g>
<!-- Node16&#45;&gt;Node14 -->
<g id="edge18_Node000016_Node000014" class="edge">
<title>Node16&#45;&gt;Node14</title>
<g id="a_edge18_Node000016_Node000014"><a xlink:title=" ">
<path fill="none" stroke="#63b8ff" d="M100.92,-220.77C108.14,-212.24 118.45,-198.65 123.94,-185 137.2,-152.06 141.23,-110.51 142.44,-86.19"/>
<polygon fill="#63b8ff" stroke="#63b8ff" points="145.93,-86.54 142.8,-76.42 138.94,-86.28 145.93,-86.54"/>
</a>
</g>
</g>
<!-- Node17 -->
<g id="Node000017" class="node">
<title>Node17</title>
<g id="a_Node000017"><a xlink:title=" ">
<polygon fill="#e0e0e0" stroke="#999999" points="349.19,-185 298.69,-185 298.69,-165.75 349.19,-165.75 349.19,-185"/>
<text text-anchor="middle" x="323.94" y="-171.5" font-family="Helvetica,sans-Serif" font-size="10.00">stdarg.h</text>
</a>
</g>
</g>
<!-- Node16&#45;&gt;Node17 -->
<g id="edge20_Node000016_Node000017" class="edge">
<title>Node16&#45;&gt;Node17</title>
<g id="a_edge20_Node000016_Node000017"><a xlink:title=" ">
<path fill="none" stroke="#63b8ff" d="M132.39,-220.53C175.74,-210.54 244.81,-194.62 287.09,-184.87"/>
<polygon fill="#63b8ff" stroke="#63b8ff" points="287.83,-188.29 296.79,-182.63 286.26,-181.47 287.83,-188.29"/>
</a>
</g>
</g>
<!-- Node18 -->
<g id="Node000018" class="node">
<title>Node18</title>
<g id="a_Node000018"><a xlink:title=" ">
<polygon fill="#e0e0e0" stroke="#999999" points="114.69,-185 61.19,-185 61.19,-165.75 114.69,-165.75 114.69,-185"/>
<text text-anchor="middle" x="87.94" y="-171.5" font-family="Helvetica,sans-Serif" font-size="10.00">iostream</text>
</a>
</g>
</g>
<!-- Node16&#45;&gt;Node18 -->
<g id="edge21_Node000016_Node000018" class="edge">
<title>Node16&#45;&gt;Node18</title>
<g id="a_edge21_Node000016_Node000018"><a xlink:title=" ">
<path fill="none" stroke="#63b8ff" d="M92.12,-220.83C91.5,-214.24 90.63,-204.96 89.84,-196.57"/>
<polygon fill="#63b8ff" stroke="#63b8ff" points="93.35,-196.5 88.93,-186.87 86.38,-197.15 93.35,-196.5"/>
</a>
</g>
</g>
<!-- Node19&#45;&gt;Node6 -->
<g id="edge24_Node000019_Node000006" class="edge">
<title>Node19&#45;&gt;Node6</title>
<g id="a_edge24_Node000019_Node000006"><a xlink:title=" ">
<path fill="none" stroke="#63b8ff" d="M645.37,-331.3C664.85,-310.31 700.93,-271.48 721.82,-248.98"/>
<polygon fill="#63b8ff" stroke="#63b8ff" points="724.24,-251.52 728.49,-241.81 719.12,-246.75 724.24,-251.52"/>
</a>
</g>
</g>
<!-- Node21 -->
<g id="Node000021" class="node">
<title>Node21</title>
<g id="a_Node000021"><a xlink:href="_decoder___8h.html" target="_top" xlink:title=" ">
<polygon fill="white" stroke="#666666" points="496.19,-295.5 361.69,-295.5 361.69,-276.25 496.19,-276.25 496.19,-295.5"/>
<text text-anchor="middle" x="428.94" y="-282" font-family="Helvetica,sans-Serif" font-size="10.00">Cpl/Text/Frame/Decoder_.h</text>
</a>
</g>
</g>
<!-- Node20&#45;&gt;Node21 -->
<g id="edge26_Node000020_Node000021" class="edge">
<title>Node20&#45;&gt;Node21</title>
<g id="a_edge26_Node000020_Node000021"><a xlink:title=" ">
<path fill="none" stroke="#63b8ff" d="M273.29,-336.68C304.49,-326.7 354.85,-310.58 389.8,-299.4"/>
<polygon fill="#63b8ff" stroke="#63b8ff" points="390.66,-302.8 399.12,-296.42 388.53,-296.13 390.66,-302.8"/>
</a>
</g>
</g>
<!-- Node20&#45;&gt;Node24 -->
<g id="edge29_Node000020_Node000024" class="edge">
<title>Node20&#45;&gt;Node24</title>
<g id="a_edge29_Node000020_Node000024"><a xlink:title=" ">
<path fill="none" stroke="#63b8ff" d="M237.35,-336.81C230.08,-328.25 218.91,-315.1 209.86,-304.45"/>
<polygon fill="#63b8ff" stroke="#63b8ff" points="212.73,-302.41 203.59,-297.05 207.39,-306.94 212.73,-302.41"/>
</a>
</g>
</g>
<!-- Node22 -->
<g id="Node000022" class="node">
<title>Node22</title>
<g id="a_Node000022"><a xlink:href="_decoder_8h.html" target="_top" xlink:title=" ">
<polygon fill="white" stroke="#666666" points="511.57,-240.25 382.32,-240.25 382.32,-221 511.57,-221 511.57,-240.25"/>
<text text-anchor="middle" x="446.94" y="-226.75" font-family="Helvetica,sans-Serif" font-size="10.00">Cpl/Text/Frame/Decoder.h</text>
</a>
</g>
</g>
<!-- Node21&#45;&gt;Node22 -->
<g id="edge27_Node000021_Node000022" class="edge">
<title>Node21&#45;&gt;Node22</title>
<g id="a_edge27_Node000021_Node000022"><a xlink:title=" ">
<path fill="none" stroke="#63b8ff" d="M431.91,-276.08C434.19,-269.34 437.43,-259.77 440.31,-251.24"/>
<polygon fill="#63b8ff" stroke="#63b8ff" points="443.53,-252.64 443.42,-242.04 436.9,-250.4 443.53,-252.64"/>
</a>
</g>
</g>
<!-- Node23 -->
<g id="Node000023" class="node">
<title>Node23</title>
<g id="a_Node000023"><a xlink:title=" ">
<polygon fill="#e0e0e0" stroke="#999999" points="470.32,-185 423.57,-185 423.57,-165.75 470.32,-165.75 470.32,-185"/>
<text text-anchor="middle" x="446.94" y="-171.5" font-family="Helvetica,sans-Serif" font-size="10.00">stdlib.h</text>
</a>
</g>
</g>
<!-- Node22&#45;&gt;Node23 -->
<g id="edge28_Node000022_Node000023" class="edge">
<title>Node22&#45;&gt;Node23</title>
<g id="a_edge28_Node000022_Node000023"><a xlink:title=" ">
<path fill="none" stroke="#63b8ff" d="M446.94,-220.83C446.94,-214.32 446.94,-205.17 446.94,-196.87"/>
<polygon fill="#63b8ff" stroke="#63b8ff" points="450.44,-196.87 446.94,-186.87 443.44,-196.87 450.44,-196.87"/>
</a>
</g>
</g>
<!-- Node24&#45;&gt;Node16 -->
<g id="edge30_Node000024_Node000016" class="edge">
<title>Node24&#45;&gt;Node16</title>
<g id="a_edge30_Node000024_Node000016"><a xlink:title=" ">
<path fill="none" stroke="#63b8ff" d="M177.64,-275.84C161.96,-267.66 138.59,-255.46 120.37,-245.94"/>
<polygon fill="#63b8ff" stroke="#63b8ff" points="122.16,-242.93 111.67,-241.4 118.92,-249.13 122.16,-242.93"/>
</a>
</g>
</g>
<!-- Node25 -->
<g id="Node000025" class="node">
<title>Node25</title>
<g id="a_Node000025"><a xlink:href="_close_8h.html" target="_top" xlink:title=" ">
<polygon fill="white" stroke="#666666" points="231.32,-240.25 154.57,-240.25 154.57,-221 231.32,-221 231.32,-240.25"/>
<text text-anchor="middle" x="192.94" y="-226.75" font-family="Helvetica,sans-Serif" font-size="10.00">Cpl/Io/Close.h</text>
</a>
</g>
</g>
<!-- Node24&#45;&gt;Node25 -->
<g id="edge31_Node000024_Node000025" class="edge">
<title>Node24&#45;&gt;Node25</title>
<g id="a_edge31_Node000024_Node000025"><a xlink:title=" ">
<path fill="none" stroke="#63b8ff" d="M194.61,-276.08C194.36,-269.49 194.02,-260.21 193.7,-251.82"/>
<polygon fill="#63b8ff" stroke="#63b8ff" points="197.21,-251.98 193.34,-242.12 190.21,-252.25 197.21,-251.98"/>
</a>
</g>
</g>
<!-- Node26 -->
<g id="Node000026" class="node">
<title>Node26</title>
<g id="a_Node000026"><a xlink:href="_is_eos_8h.html" target="_top" xlink:title=" ">
<polygon fill="white" stroke="#666666" points="326.32,-240.25 249.57,-240.25 249.57,-221 326.32,-221 326.32,-240.25"/>
<text text-anchor="middle" x="287.94" y="-226.75" font-family="Helvetica,sans-Serif" font-size="10.00">Cpl/Io/IsEos.h</text>
</a>
</g>
</g>
<!-- Node24&#45;&gt;Node26 -->
<g id="edge33_Node000024_Node000026" class="edge">
<title>Node24&#45;&gt;Node26</title>
<g id="a_edge33_Node000024_Node000026"><a xlink:title=" ">
<path fill="none" stroke="#63b8ff" d="M210.72,-275.84C224.88,-267.73 245.93,-255.68 262.47,-246.21"/>
<polygon fill="#63b8ff" stroke="#63b8ff" points="263.84,-249.46 270.78,-241.45 260.36,-243.39 263.84,-249.46"/>
</a>
</g>
</g>
<!-- Node25&#45;&gt;Node8 -->
<g id="edge32_Node000025_Node000008" class="edge">
<title>Node25&#45;&gt;Node8</title>
<g id="a_edge32_Node000025_Node000008"><a xlink:title=" ">
<path fill="none" stroke="#63b8ff" d="M204.21,-220.54C221.64,-206.89 256.59,-181.06 289.94,-165.75 321.86,-151.09 359.7,-140.13 390.11,-132.73"/>
<polygon fill="#63b8ff" stroke="#63b8ff" points="390.55,-136.23 399.48,-130.52 388.95,-129.41 390.55,-136.23"/>
</a>
</g>
</g>
<!-- Node28 -->
<g id="Node000028" class="node">
<title>Node28</title>
<g id="a_Node000028"><a xlink:href="_encoder___8h.html" target="_top" xlink:title=" ">
<polygon fill="white" stroke="#666666" points="652.82,-295.5 519.07,-295.5 519.07,-276.25 652.82,-276.25 652.82,-295.5"/>
<text text-anchor="middle" x="585.94" y="-282" font-family="Helvetica,sans-Serif" font-size="10.00">Cpl/Text/Frame/Encoder_.h</text>
</a>
</g>
</g>
<!-- Node27&#45;&gt;Node28 -->
<g id="edge35_Node000027_Node000028" class="edge">
<title>Node27&#45;&gt;Node28</title>
<g id="a_edge35_Node000027_Node000028"><a xlink:title=" ">
<path fill="none" stroke="#63b8ff" d="M480.2,-336.68C500.63,-327.06 533.15,-311.74 556.74,-300.63"/>
<polygon fill="#63b8ff" stroke="#63b8ff" points="557.94,-303.93 565.5,-296.5 554.96,-297.6 557.94,-303.93"/>
</a>
</g>
</g>
<!-- Node27&#45;&gt;Node30 -->
<g id="edge38_Node000027_Node000030" class="edge">
<title>Node27&#45;&gt;Node30</title>
<g id="a_edge38_Node000027_Node000030"><a xlink:title=" ">
<path fill="none" stroke="#63b8ff" d="M434.91,-336.68C406.5,-326.78 360.8,-310.86 328.73,-299.69"/>
<polygon fill="#63b8ff" stroke="#63b8ff" points="330.03,-296.44 319.44,-296.45 327.73,-303.05 330.03,-296.44"/>
</a>
</g>
</g>
<!-- Node29 -->
<g id="Node000029" class="node">
<title>Node29</title>
<g id="a_Node000029"><a xlink:href="_encoder_8h.html" target="_top" xlink:title=" ">
<polygon fill="white" stroke="#666666" points="658.19,-240.25 529.69,-240.25 529.69,-221 658.19,-221 658.19,-240.25"/>
<text text-anchor="middle" x="593.94" y="-226.75" font-family="Helvetica,sans-Serif" font-size="10.00">Cpl/Text/Frame/Encoder.h</text>
</a>
</g>
</g>
<!-- Node28&#45;&gt;Node29 -->
<g id="edge36_Node000028_Node000029" class="edge">
<title>Node28&#45;&gt;Node29</title>
<g id="a_edge36_Node000028_Node000029"><a xlink:title=" ">
<path fill="none" stroke="#63b8ff" d="M587.26,-276.08C588.25,-269.49 589.65,-260.21 590.91,-251.82"/>
<polygon fill="#63b8ff" stroke="#63b8ff" points="594.34,-252.51 592.37,-242.11 587.42,-251.47 594.34,-252.51"/>
</a>
</g>
</g>
<!-- Node29&#45;&gt;Node23 -->
<g id="edge37_Node000029_Node000023" class="edge">
<title>Node29&#45;&gt;Node23</title>
<g id="a_edge37_Node000029_Node000023"><a xlink:title=" ">
<path fill="none" stroke="#63b8ff" d="M569.01,-220.59C544.82,-211.83 507.92,-198.46 481.03,-188.72"/>
<polygon fill="#63b8ff" stroke="#63b8ff" points="482.56,-185.55 471.96,-185.44 480.17,-192.14 482.56,-185.55"/>
</a>
</g>
</g>
<!-- Node30&#45;&gt;Node16 -->
<g id="edge39_Node000030_Node000016" class="edge">
<title>Node30&#45;&gt;Node16</title>
<g id="a_edge39_Node000030_Node000016"><a xlink:title=" ">
<path fill="none" stroke="#63b8ff" d="M258.18,-275.84C225.02,-266.97 174.22,-253.37 137.7,-243.6"/>
<polygon fill="#63b8ff" stroke="#63b8ff" points="138.89,-240.3 128.33,-241.09 137.08,-247.06 138.89,-240.3"/>
</a>
</g>
</g>
<!-- Node30&#45;&gt;Node17 -->
<g id="edge42_Node000030_Node000017" class="edge">
<title>Node30&#45;&gt;Node17</title>
<g id="a_edge42_Node000030_Node000017"><a xlink:title=" ">
<path fill="none" stroke="#63b8ff" d="M304.85,-275.96C315.18,-267.96 328.9,-255.22 334.94,-240.25 340.68,-226.03 337.19,-208.85 332.67,-195.89"/>
<polygon fill="#63b8ff" stroke="#63b8ff" points="336,-194.77 329.03,-186.78 329.5,-197.37 336,-194.77"/>
</a>
</g>
</g>
<!-- Node30&#45;&gt;Node25 -->
<g id="edge40_Node000030_Node000025" class="edge">
<title>Node30&#45;&gt;Node25</title>
<g id="a_edge40_Node000030_Node000025"><a xlink:title=" ">
<path fill="none" stroke="#63b8ff" d="M275.15,-275.84C259.93,-267.66 237.25,-255.46 219.56,-245.94"/>
<polygon fill="#63b8ff" stroke="#63b8ff" points="221.62,-243.07 211.15,-241.42 218.3,-249.24 221.62,-243.07"/>
</a>
</g>
</g>
<!-- Node30&#45;&gt;Node26 -->
<g id="edge41_Node000030_Node000026" class="edge">
<title>Node30&#45;&gt;Node26</title>
<g id="a_edge41_Node000030_Node000026"><a xlink:title=" ">
<path fill="none" stroke="#63b8ff" d="M291.28,-276.08C290.79,-269.49 290.09,-260.21 289.46,-251.82"/>
<polygon fill="#63b8ff" stroke="#63b8ff" points="292.97,-251.83 288.73,-242.12 285.99,-252.35 292.97,-251.83"/>
</a>
</g>
</g>
<!-- Node31&#45;&gt;Node14 -->
<g id="edge44_Node000031_Node000014" class="edge">
<title>Node31&#45;&gt;Node14</title>
<g id="a_edge44_Node000031_Node000014"><a xlink:title=" ">
<path fill="none" stroke="#63b8ff" d="M76.51,-110.09C88.35,-102.21 105.78,-90.61 119.81,-81.27"/>
<polygon fill="#63b8ff" stroke="#63b8ff" points="121.66,-84.25 128.04,-75.79 117.78,-78.42 121.66,-84.25"/>
</a>
</g>
</g>
</g>
</svg>
