<?xml version="1.0" encoding="UTF-8" standalone="no"?>
<!DOCTYPE svg PUBLIC "-//W3C//DTD SVG 1.1//EN"
 "http://www.w3.org/Graphics/SVG/1.1/DTD/svg11.dtd">
<!-- Generated by graphviz version 9.0.0 (20230911.1827)
 -->
<!-- Title: Driver/DIO/Pwm.h Pages: 1 -->
<svg width="184pt" height="83pt"
 viewBox="0.00 0.00 183.62 82.50" xmlns="http://www.w3.org/2000/svg" xmlns:xlink="http://www.w3.org/1999/xlink">
<g id="graph0" class="graph" transform="scale(1 1) rotate(0) translate(4 78.5)">
<title>Driver/DIO/Pwm.h</title>
<!-- Node1 -->
<g id="Node000001" class="node">
<title>Node1</title>
<g id="a_Node000001"><a xlink:title=" ">
<polygon fill="#999999" stroke="#666666" points="133,-74.5 38.25,-74.5 38.25,-55.25 133,-55.25 133,-74.5"/>
<text text-anchor="middle" x="85.62" y="-61" font-family="Helvetica,sans-Serif" font-size="10.00">Driver/DIO/Pwm.h</text>
</a>
</g>
</g>
<!-- Node2 -->
<g id="Node000002" class="node">
<title>Node2</title>
<g id="a_Node000002"><a xlink:title=" ">
<polygon fill="#e0e0e0" stroke="#999999" points="75.25,-19.25 0,-19.25 0,0 75.25,0 75.25,-19.25"/>
<text text-anchor="middle" x="37.62" y="-5.75" font-family="Helvetica,sans-Serif" font-size="10.00">colony_map.h</text>
</a>
</g>
</g>
<!-- Node1&#45;&gt;Node2 -->
<g id="edge1_Node000001_Node000002" class="edge">
<title>Node1&#45;&gt;Node2</title>
<g id="a_edge1_Node000001_Node000002"><a xlink:title=" ">
<path fill="none" stroke="#63b8ff" d="M77.7,-55.08C71.07,-47.73 61.41,-37.01 53.24,-27.94"/>
<polygon fill="#63b8ff" stroke="#63b8ff" points="56.03,-25.82 46.74,-20.73 50.83,-30.5 56.03,-25.82"/>
</a>
</g>
</g>
<!-- Node3 -->
<g id="Node000003" class="node">
<title>Node3</title>
<g id="a_Node000003"><a xlink:title=" ">
<polygon fill="#e0e0e0" stroke="#999999" points="175.62,-19.25 93.62,-19.25 93.62,0 175.62,0 175.62,-19.25"/>
<text text-anchor="middle" x="134.62" y="-5.75" font-family="Helvetica,sans-Serif" font-size="10.00">colony_config.h</text>
</a>
</g>
</g>
<!-- Node1&#45;&gt;Node3 -->
<g id="edge2_Node000001_Node000003" class="edge">
<title>Node1&#45;&gt;Node3</title>
<g id="a_edge2_Node000001_Node000003"><a xlink:title=" ">
<path fill="none" stroke="#63b8ff" d="M93.72,-55.08C100.48,-47.73 110.35,-37.01 118.69,-27.94"/>
<polygon fill="#63b8ff" stroke="#63b8ff" points="121.14,-30.45 125.33,-20.72 115.99,-25.71 121.14,-30.45"/>
</a>
</g>
</g>
</g>
</svg>
