<?xml version="1.0" encoding="UTF-8" standalone="no"?>
<!DOCTYPE svg PUBLIC "-//W3C//DTD SVG 1.1//EN"
 "http://www.w3.org/Graphics/SVG/1.1/DTD/svg11.dtd">
<!-- Generated by graphviz version 9.0.0 (20230911.1827)
 -->
<!-- Title: Driver/AIO/Eros/ModelPoints.h Pages: 1 -->
<svg width="2005pt" height="469pt"
 viewBox="0.00 0.00 2005.38 469.25" xmlns="http://www.w3.org/2000/svg" xmlns:xlink="http://www.w3.org/1999/xlink">
<g id="graph0" class="graph" transform="scale(1 1) rotate(0) translate(4 465.25)">
<title>Driver/AIO/Eros/ModelPoints.h</title>
<!-- Node1 -->
<g id="Node000001" class="node">
<title>Node1</title>
<g id="a_Node000001"><a xlink:title="This file defines all of the Model Points for Ajax application.">
<polygon fill="#999999" stroke="#666666" points="1220.75,-461.25 1072,-461.25 1072,-442 1220.75,-442 1220.75,-461.25"/>
<text text-anchor="middle" x="1146.38" y="-447.75" font-family="Helvetica,sans-Serif" font-size="10.00">Driver/AIO/Eros/ModelPoints.h</text>
</a>
</g>
</g>
<!-- Node2 -->
<g id="Node000002" class="node">
<title>Node2</title>
<g id="a_Node000002"><a xlink:href="_model_database_8h.html" target="_top" xlink:title=" ">
<polygon fill="white" stroke="#666666" points="617.5,-295.5 491.25,-295.5 491.25,-276.25 617.5,-276.25 617.5,-295.5"/>
<text text-anchor="middle" x="554.38" y="-282" font-family="Helvetica,sans-Serif" font-size="10.00">Cpl/Dm/ModelDatabase.h</text>
</a>
</g>
</g>
<!-- Node1&#45;&gt;Node2 -->
<g id="edge1_Node000001_Node000002" class="edge">
<title>Node1&#45;&gt;Node2</title>
<g id="a_edge1_Node000001_Node000002"><a xlink:title=" ">
<path fill="none" stroke="#63b8ff" d="M1113.7,-441.59C1013.75,-413.94 712.02,-330.48 598.34,-299.04"/>
<polygon fill="#63b8ff" stroke="#63b8ff" points="599.34,-295.68 588.77,-296.39 597.47,-302.43 599.34,-295.68"/>
</a>
</g>
</g>
<!-- Node18 -->
<g id="Node000018" class="node">
<title>Node18</title>
<g id="a_Node000018"><a xlink:href="_array_8h.html" target="_top" xlink:title=" ">
<polygon fill="white" stroke="#666666" points="1247.25,-406 1149.5,-406 1149.5,-386.75 1247.25,-386.75 1247.25,-406"/>
<text text-anchor="middle" x="1198.38" y="-392.5" font-family="Helvetica,sans-Serif" font-size="10.00">Cpl/Dm/Mp/Array.h</text>
</a>
</g>
</g>
<!-- Node1&#45;&gt;Node18 -->
<g id="edge20_Node000001_Node000018" class="edge">
<title>Node1&#45;&gt;Node18</title>
<g id="a_edge20_Node000001_Node000018"><a xlink:title=" ">
<path fill="none" stroke="#63b8ff" d="M1154.96,-441.83C1162.22,-434.4 1172.83,-423.54 1181.74,-414.41"/>
<polygon fill="#63b8ff" stroke="#63b8ff" points="1184.06,-417.04 1188.54,-407.44 1179.05,-412.15 1184.06,-417.04"/>
</a>
</g>
</g>
<!-- Node3 -->
<g id="Node000003" class="node">
<title>Node3</title>
<g id="a_Node000003"><a xlink:title=" ">
<polygon fill="#e0e0e0" stroke="#999999" points="435.38,-19.25 353.38,-19.25 353.38,0 435.38,0 435.38,-19.25"/>
<text text-anchor="middle" x="394.38" y="-5.75" font-family="Helvetica,sans-Serif" font-size="10.00">colony_config.h</text>
</a>
</g>
</g>
<!-- Node2&#45;&gt;Node3 -->
<g id="edge2_Node000002_Node000003" class="edge">
<title>Node2&#45;&gt;Node3</title>
<g id="a_edge2_Node000002_Node000003"><a xlink:title=" ">
<path fill="none" stroke="#63b8ff" d="M490.89,-283.41C404.47,-280.28 255.51,-270.53 211.38,-240.25 165.3,-208.63 165.13,-183.91 151.38,-129.75 142.71,-95.62 150.55,-76.84 178.38,-55.25 184.87,-50.21 279.93,-31.83 341.76,-20.29"/>
<polygon fill="#63b8ff" stroke="#63b8ff" points="342.21,-23.77 351.4,-18.5 340.93,-16.89 342.21,-23.77"/>
</a>
</g>
</g>
<!-- Node4 -->
<g id="Node000004" class="node">
<title>Node4</title>
<g id="a_Node000004"><a xlink:href="_model_database_api_8h.html" target="_top" xlink:title=" ">
<polygon fill="white" stroke="#666666" points="360.62,-240.25 220.12,-240.25 220.12,-221 360.62,-221 360.62,-240.25"/>
<text text-anchor="middle" x="290.38" y="-226.75" font-family="Helvetica,sans-Serif" font-size="10.00">Cpl/Dm/ModelDatabaseApi.h</text>
</a>
</g>
</g>
<!-- Node2&#45;&gt;Node4 -->
<g id="edge3_Node000002_Node000004" class="edge">
<title>Node2&#45;&gt;Node4</title>
<g id="a_edge3_Node000002_Node000004"><a xlink:title=" ">
<path fill="none" stroke="#63b8ff" d="M509.29,-275.78C464.3,-266.71 395.06,-252.74 346.52,-242.95"/>
<polygon fill="#63b8ff" stroke="#63b8ff" points="347.25,-239.53 336.76,-240.98 345.87,-246.39 347.25,-239.53"/>
</a>
</g>
</g>
<!-- Node14 -->
<g id="Node000014" class="node">
<title>Node14</title>
<g id="a_Node000014"><a xlink:href="_mutex_8h.html" target="_top" xlink:title=" ">
<polygon fill="white" stroke="#666666" points="481.88,-240.25 378.88,-240.25 378.88,-221 481.88,-221 481.88,-240.25"/>
<text text-anchor="middle" x="430.38" y="-226.75" font-family="Helvetica,sans-Serif" font-size="10.00">Cpl/System/Mutex.h</text>
</a>
</g>
</g>
<!-- Node2&#45;&gt;Node14 -->
<g id="edge15_Node000002_Node000014" class="edge">
<title>Node2&#45;&gt;Node14</title>
<g id="a_edge15_Node000002_Node000014"><a xlink:title=" ">
<path fill="none" stroke="#63b8ff" d="M533.34,-275.84C513.74,-267.43 484.27,-254.77 461.87,-245.15"/>
<polygon fill="#63b8ff" stroke="#63b8ff" points="463.47,-242.03 452.9,-241.3 460.71,-248.46 463.47,-242.03"/>
</a>
</g>
</g>
<!-- Node15 -->
<g id="Node000015" class="node">
<title>Node15</title>
<g id="a_Node000015"><a xlink:href="_s_list_8h.html" target="_top" xlink:title=" ">
<polygon fill="white" stroke="#666666" points="608.5,-240.25 500.25,-240.25 500.25,-221 608.5,-221 608.5,-240.25"/>
<text text-anchor="middle" x="554.38" y="-226.75" font-family="Helvetica,sans-Serif" font-size="10.00">Cpl/Container/SList.h</text>
</a>
</g>
</g>
<!-- Node2&#45;&gt;Node15 -->
<g id="edge17_Node000002_Node000015" class="edge">
<title>Node2&#45;&gt;Node15</title>
<g id="a_edge17_Node000002_Node000015"><a xlink:title=" ">
<path fill="none" stroke="#63b8ff" d="M554.38,-276.08C554.38,-269.57 554.38,-260.42 554.38,-252.12"/>
<polygon fill="#63b8ff" stroke="#63b8ff" points="557.88,-252.12 554.38,-242.12 550.88,-252.12 557.88,-252.12"/>
</a>
</g>
</g>
<!-- Node17 -->
<g id="Node000017" class="node">
<title>Node17</title>
<g id="a_Node000017"><a xlink:href="_arduino_8h_source.html" target="_top" xlink:title=" ">
<polygon fill="white" stroke="#666666" points="604.25,-185 506.5,-185 506.5,-165.75 604.25,-165.75 604.25,-185"/>
<text text-anchor="middle" x="555.38" y="-171.5" font-family="Helvetica,sans-Serif" font-size="10.00">Cpl/Json/Arduino.h</text>
</a>
</g>
</g>
<!-- Node2&#45;&gt;Node17 -->
<g id="edge19_Node000002_Node000017" class="edge">
<title>Node2&#45;&gt;Node17</title>
<g id="a_edge19_Node000002_Node000017"><a xlink:title=" ">
<path fill="none" stroke="#63b8ff" d="M576.46,-275.8C590.98,-268.53 608.82,-256.8 617.38,-240.25 627.64,-220.4 606.54,-202.6 586.22,-190.86"/>
<polygon fill="#63b8ff" stroke="#63b8ff" points="587.95,-187.82 577.48,-186.17 584.63,-193.99 587.95,-187.82"/>
</a>
</g>
</g>
<!-- Node5 -->
<g id="Node000005" class="node">
<title>Node5</title>
<g id="a_Node000005"><a xlink:href="_text_2_string_8h.html" target="_top" xlink:title=" ">
<polygon fill="white" stroke="#666666" points="384.38,-185 296.38,-185 296.38,-165.75 384.38,-165.75 384.38,-185"/>
<text text-anchor="middle" x="340.38" y="-171.5" font-family="Helvetica,sans-Serif" font-size="10.00">Cpl/Text/String.h</text>
</a>
</g>
</g>
<!-- Node4&#45;&gt;Node5 -->
<g id="edge4_Node000004_Node000005" class="edge">
<title>Node4&#45;&gt;Node5</title>
<g id="a_edge4_Node000004_Node000005"><a xlink:title=" ">
<path fill="none" stroke="#63b8ff" d="M298.63,-220.83C305.54,-213.48 315.6,-202.76 324.11,-193.69"/>
<polygon fill="#63b8ff" stroke="#63b8ff" points="326.61,-196.15 330.9,-186.46 321.51,-191.36 326.61,-196.15"/>
</a>
</g>
</g>
<!-- Node6 -->
<g id="Node000006" class="node">
<title>Node6</title>
<g id="a_Node000006"><a xlink:title=" ">
<polygon fill="#e0e0e0" stroke="#999999" points="478,-74.5 402.75,-74.5 402.75,-55.25 478,-55.25 478,-74.5"/>
<text text-anchor="middle" x="440.38" y="-61" font-family="Helvetica,sans-Serif" font-size="10.00">colony_map.h</text>
</a>
</g>
</g>
<!-- Node5&#45;&gt;Node6 -->
<g id="edge5_Node000005_Node000006" class="edge">
<title>Node5&#45;&gt;Node6</title>
<g id="a_edge5_Node000005_Node000006"><a xlink:title=" ">
<path fill="none" stroke="#63b8ff" d="M361.33,-165.29C376.84,-157.69 397.58,-145.54 411.38,-129.75 422.65,-116.84 430.3,-98.81 434.89,-85.2"/>
<polygon fill="#63b8ff" stroke="#63b8ff" points="438.11,-86.65 437.71,-76.06 431.42,-84.58 438.11,-86.65"/>
</a>
</g>
</g>
<!-- Node7 -->
<g id="Node000007" class="node">
<title>Node7</title>
<g id="a_Node000007"><a xlink:href="_key_8h.html" target="_top" xlink:title=" ">
<polygon fill="white" stroke="#666666" points="262.12,-129.75 160.62,-129.75 160.62,-110.5 262.12,-110.5 262.12,-129.75"/>
<text text-anchor="middle" x="211.38" y="-116.25" font-family="Helvetica,sans-Serif" font-size="10.00">Cpl/Container/Key.h</text>
</a>
</g>
</g>
<!-- Node5&#45;&gt;Node7 -->
<g id="edge6_Node000005_Node000007" class="edge">
<title>Node5&#45;&gt;Node7</title>
<g id="a_edge6_Node000005_Node000007"><a xlink:title=" ">
<path fill="none" stroke="#63b8ff" d="M318.49,-165.34C298.01,-156.89 267.16,-144.15 243.82,-134.52"/>
<polygon fill="#63b8ff" stroke="#63b8ff" points="245.34,-131.36 234.76,-130.78 242.67,-137.83 245.34,-131.36"/>
</a>
</g>
</g>
<!-- Node12 -->
<g id="Node000012" class="node">
<title>Node12</title>
<g id="a_Node000012"><a xlink:title=" ">
<polygon fill="#e0e0e0" stroke="#999999" points="330.62,-129.75 280.12,-129.75 280.12,-110.5 330.62,-110.5 330.62,-129.75"/>
<text text-anchor="middle" x="305.38" y="-116.25" font-family="Helvetica,sans-Serif" font-size="10.00">stdarg.h</text>
</a>
</g>
</g>
<!-- Node5&#45;&gt;Node12 -->
<g id="edge13_Node000005_Node000012" class="edge">
<title>Node5&#45;&gt;Node12</title>
<g id="a_edge13_Node000005_Node000012"><a xlink:title=" ">
<path fill="none" stroke="#63b8ff" d="M334.6,-165.58C329.96,-158.53 323.3,-148.4 317.51,-139.58"/>
<polygon fill="#63b8ff" stroke="#63b8ff" points="320.53,-137.81 312.11,-131.37 314.68,-141.65 320.53,-137.81"/>
</a>
</g>
</g>
<!-- Node13 -->
<g id="Node000013" class="node">
<title>Node13</title>
<g id="a_Node000013"><a xlink:title=" ">
<polygon fill="#e0e0e0" stroke="#999999" points="402.12,-129.75 348.62,-129.75 348.62,-110.5 402.12,-110.5 402.12,-129.75"/>
<text text-anchor="middle" x="375.38" y="-116.25" font-family="Helvetica,sans-Serif" font-size="10.00">iostream</text>
</a>
</g>
</g>
<!-- Node5&#45;&gt;Node13 -->
<g id="edge14_Node000005_Node000013" class="edge">
<title>Node5&#45;&gt;Node13</title>
<g id="a_edge14_Node000005_Node000013"><a xlink:title=" ">
<path fill="none" stroke="#63b8ff" d="M346.15,-165.58C350.79,-158.53 357.45,-148.4 363.24,-139.58"/>
<polygon fill="#63b8ff" stroke="#63b8ff" points="366.07,-141.65 368.64,-131.37 360.22,-137.81 366.07,-141.65"/>
</a>
</g>
</g>
<!-- Node7&#45;&gt;Node6 -->
<g id="edge12_Node000007_Node000006" class="edge">
<title>Node7&#45;&gt;Node6</title>
<g id="a_edge12_Node000007_Node000006"><a xlink:title=" ">
<path fill="none" stroke="#63b8ff" d="M250.48,-110.03C289.45,-100.97 349.38,-87.03 391.47,-77.25"/>
<polygon fill="#63b8ff" stroke="#63b8ff" points="392.15,-80.68 401.1,-75.01 390.56,-73.86 392.15,-80.68"/>
</a>
</g>
</g>
<!-- Node8 -->
<g id="Node000008" class="node">
<title>Node8</title>
<g id="a_Node000008"><a xlink:href="_fatal_error_8h.html" target="_top" xlink:title=" ">
<polygon fill="white" stroke="#666666" points="118.75,-74.5 0,-74.5 0,-55.25 118.75,-55.25 118.75,-74.5"/>
<text text-anchor="middle" x="59.38" y="-61" font-family="Helvetica,sans-Serif" font-size="10.00">Cpl/System/FatalError.h</text>
</a>
</g>
</g>
<!-- Node7&#45;&gt;Node8 -->
<g id="edge7_Node000007_Node000008" class="edge">
<title>Node7&#45;&gt;Node8</title>
<g id="a_edge7_Node000007_Node000008"><a xlink:title=" ">
<path fill="none" stroke="#63b8ff" d="M185.59,-110.09C161.02,-101.49 123.79,-88.44 96.12,-78.75"/>
<polygon fill="#63b8ff" stroke="#63b8ff" points="97.31,-75.46 86.71,-75.45 95,-82.06 97.31,-75.46"/>
</a>
</g>
</g>
<!-- Node10 -->
<g id="Node000010" class="node">
<title>Node10</title>
<g id="a_Node000010"><a xlink:title=" ">
<polygon fill="#e0e0e0" stroke="#999999" points="1494.12,-19.25 1446.62,-19.25 1446.62,0 1494.12,0 1494.12,-19.25"/>
<text text-anchor="middle" x="1470.38" y="-5.75" font-family="Helvetica,sans-Serif" font-size="10.00">stdint.h</text>
</a>
</g>
</g>
<!-- Node7&#45;&gt;Node10 -->
<g id="edge10_Node000007_Node000010" class="edge">
<title>Node7&#45;&gt;Node10</title>
<g id="a_edge10_Node000007_Node000010"><a xlink:title=" ">
<path fill="none" stroke="#63b8ff" d="M231.04,-110.04C263.85,-95.38 332.2,-66.98 393.38,-55.25 445.59,-45.24 1253.98,-17.83 1434.72,-11.81"/>
<polygon fill="#63b8ff" stroke="#63b8ff" points="1434.77,-15.31 1444.65,-11.48 1434.54,-8.31 1434.77,-15.31"/>
</a>
</g>
</g>
<!-- Node11 -->
<g id="Node000011" class="node">
<title>Node11</title>
<g id="a_Node000011"><a xlink:title=" ">
<polygon fill="#e0e0e0" stroke="#999999" points="235.12,-74.5 187.62,-74.5 187.62,-55.25 235.12,-55.25 235.12,-74.5"/>
<text text-anchor="middle" x="211.38" y="-61" font-family="Helvetica,sans-Serif" font-size="10.00">string.h</text>
</a>
</g>
</g>
<!-- Node7&#45;&gt;Node11 -->
<g id="edge11_Node000007_Node000011" class="edge">
<title>Node7&#45;&gt;Node11</title>
<g id="a_edge11_Node000007_Node000011"><a xlink:title=" ">
<path fill="none" stroke="#63b8ff" d="M211.38,-110.33C211.38,-103.82 211.38,-94.67 211.38,-86.37"/>
<polygon fill="#63b8ff" stroke="#63b8ff" points="214.88,-86.37 211.38,-76.37 207.88,-86.37 214.88,-86.37"/>
</a>
</g>
</g>
<!-- Node8&#45;&gt;Node3 -->
<g id="edge9_Node000008_Node000003" class="edge">
<title>Node8&#45;&gt;Node3</title>
<g id="a_edge9_Node000008_Node000003"><a xlink:title=" ">
<path fill="none" stroke="#63b8ff" d="M118.7,-54.76C173.7,-46.26 258.15,-33.1 341.67,-19.51"/>
<polygon fill="#63b8ff" stroke="#63b8ff" points="342.11,-22.99 351.42,-17.92 340.98,-16.08 342.11,-22.99"/>
</a>
</g>
</g>
<!-- Node9 -->
<g id="Node000009" class="node">
<title>Node9</title>
<g id="a_Node000009"><a xlink:title=" ">
<polygon fill="#e0e0e0" stroke="#999999" points="334.62,-19.25 284.12,-19.25 284.12,0 334.62,0 334.62,-19.25"/>
<text text-anchor="middle" x="309.38" y="-5.75" font-family="Helvetica,sans-Serif" font-size="10.00">stddef.h</text>
</a>
</g>
</g>
<!-- Node8&#45;&gt;Node9 -->
<g id="edge8_Node000008_Node000009" class="edge">
<title>Node8&#45;&gt;Node9</title>
<g id="a_edge8_Node000008_Node000009"><a xlink:title=" ">
<path fill="none" stroke="#63b8ff" d="M102.07,-54.78C150.05,-44.56 227.16,-28.14 272.58,-18.46"/>
<polygon fill="#63b8ff" stroke="#63b8ff" points="273.15,-21.92 282.2,-16.41 271.69,-15.07 273.15,-21.92"/>
</a>
</g>
</g>
<!-- Node14&#45;&gt;Node6 -->
<g id="edge16_Node000014_Node000006" class="edge">
<title>Node14&#45;&gt;Node6</title>
<g id="a_edge16_Node000014_Node000006"><a xlink:title=" ">
<path fill="none" stroke="#63b8ff" d="M430.91,-220.82C432.46,-195.5 436.95,-122 439.14,-86.09"/>
<polygon fill="#63b8ff" stroke="#63b8ff" points="442.63,-86.43 439.74,-76.23 435.64,-86 442.63,-86.43"/>
</a>
</g>
</g>
<!-- Node16 -->
<g id="Node000016" class="node">
<title>Node16</title>
<g id="a_Node000016"><a xlink:href="_item_8h.html" target="_top" xlink:title=" ">
<polygon fill="white" stroke="#666666" points="1167.62,-19.25 1063.12,-19.25 1063.12,0 1167.62,0 1167.62,-19.25"/>
<text text-anchor="middle" x="1115.38" y="-5.75" font-family="Helvetica,sans-Serif" font-size="10.00">Cpl/Container/Item.h</text>
</a>
</g>
</g>
<!-- Node15&#45;&gt;Node16 -->
<g id="edge18_Node000015_Node000016" class="edge">
<title>Node15&#45;&gt;Node16</title>
<g id="a_edge18_Node000015_Node000016"><a xlink:title=" ">
<path fill="none" stroke="#63b8ff" d="M535.68,-220.55C514.34,-208.89 484.02,-187.55 497.38,-165.75 553.94,-73.48 610.69,-86.29 714.38,-55.25 829.82,-20.68 971.2,-12.42 1051.52,-10.72"/>
<polygon fill="#63b8ff" stroke="#63b8ff" points="1051.47,-14.22 1061.4,-10.54 1051.34,-7.23 1051.47,-14.22"/>
</a>
</g>
</g>
<!-- Node19 -->
<g id="Node000019" class="node">
<title>Node19</title>
<g id="a_Node000019"><a xlink:href="_model_point_common___8h.html" target="_top" xlink:title=" ">
<polygon fill="white" stroke="#666666" points="1811.25,-350.75 1659.5,-350.75 1659.5,-331.5 1811.25,-331.5 1811.25,-350.75"/>
<text text-anchor="middle" x="1735.38" y="-337.25" font-family="Helvetica,sans-Serif" font-size="10.00">Cpl/Dm/ModelPointCommon_.h</text>
</a>
</g>
</g>
<!-- Node18&#45;&gt;Node19 -->
<g id="edge21_Node000018_Node000019" class="edge">
<title>Node18&#45;&gt;Node19</title>
<g id="a_edge21_Node000018_Node000019"><a xlink:title=" ">
<path fill="none" stroke="#63b8ff" d="M1247.45,-390.51C1338.32,-381.5 1533.86,-362.11 1647.89,-350.8"/>
<polygon fill="#63b8ff" stroke="#63b8ff" points="1648.23,-354.28 1657.83,-349.81 1647.54,-347.32 1648.23,-354.28"/>
</a>
</g>
</g>
<!-- Node19&#45;&gt;Node2 -->
<g id="edge32_Node000019_Node000002" class="edge">
<title>Node19&#45;&gt;Node2</title>
<g id="a_edge32_Node000019_Node000002"><a xlink:title=" ">
<path fill="none" stroke="#63b8ff" d="M1659.25,-336.69C1445.49,-327.05 841.54,-299.82 629.28,-290.25"/>
<polygon fill="#63b8ff" stroke="#63b8ff" points="629.62,-286.76 619.47,-289.81 629.31,-293.76 629.62,-286.76"/>
</a>
</g>
</g>
<!-- Node19&#45;&gt;Node10 -->
<g id="edge65_Node000019_Node000010" class="edge">
<title>Node19&#45;&gt;Node10</title>
<g id="a_edge65_Node000019_Node000010"><a xlink:title=" ">
<path fill="none" stroke="#63b8ff" d="M1811.51,-339.51C1888.86,-334.38 1997.38,-312.74 1997.38,-231.62 1997.38,-231.62 1997.38,-231.62 1997.38,-119.12 1997.38,-18.43 1623.6,-10.39 1505.61,-10.36"/>
<polygon fill="#63b8ff" stroke="#63b8ff" points="1505.9,-6.85 1495.9,-10.37 1505.91,-13.85 1505.9,-6.85"/>
</a>
</g>
</g>
<!-- Node20 -->
<g id="Node000020" class="node">
<title>Node20</title>
<g id="a_Node000020"><a xlink:href="_model_point_8h.html" target="_top" xlink:title=" ">
<polygon fill="white" stroke="#666666" points="772.12,-240.25 664.62,-240.25 664.62,-221 772.12,-221 772.12,-240.25"/>
<text text-anchor="middle" x="718.38" y="-226.75" font-family="Helvetica,sans-Serif" font-size="10.00">Cpl/Dm/ModelPoint.h</text>
</a>
</g>
</g>
<!-- Node19&#45;&gt;Node20 -->
<g id="edge22_Node000019_Node000020" class="edge">
<title>Node19&#45;&gt;Node20</title>
<g id="a_edge22_Node000019_Node000020"><a xlink:title=" ">
<path fill="none" stroke="#63b8ff" d="M1659.35,-332.01C1467.12,-311.51 964.18,-257.85 783.88,-238.61"/>
<polygon fill="#63b8ff" stroke="#63b8ff" points="784.29,-235.14 773.98,-237.56 783.55,-242.1 784.29,-235.14"/>
</a>
</g>
</g>
<!-- Node22 -->
<g id="Node000022" class="node">
<title>Node22</title>
<g id="a_Node000022"><a xlink:href="_subscriber_8h.html" target="_top" xlink:title=" ">
<polygon fill="white" stroke="#666666" points="1788,-295.5 1682.75,-295.5 1682.75,-276.25 1788,-276.25 1788,-295.5"/>
<text text-anchor="middle" x="1735.38" y="-282" font-family="Helvetica,sans-Serif" font-size="10.00">Cpl/Dm/Subscriber.h</text>
</a>
</g>
</g>
<!-- Node19&#45;&gt;Node22 -->
<g id="edge33_Node000019_Node000022" class="edge">
<title>Node19&#45;&gt;Node22</title>
<g id="a_edge33_Node000019_Node000022"><a xlink:title=" ">
<path fill="none" stroke="#63b8ff" d="M1735.38,-331.33C1735.38,-324.82 1735.38,-315.67 1735.38,-307.37"/>
<polygon fill="#63b8ff" stroke="#63b8ff" points="1738.88,-307.37 1735.38,-297.37 1731.88,-307.37 1738.88,-307.37"/>
</a>
</g>
</g>
<!-- Node32 -->
<g id="Node000032" class="node">
<title>Node32</title>
<g id="a_Node000032"><a xlink:href="_d_list_8h.html" target="_top" xlink:title=" ">
<polygon fill="white" stroke="#666666" points="1893.5,-74.5 1785.25,-74.5 1785.25,-55.25 1893.5,-55.25 1893.5,-74.5"/>
<text text-anchor="middle" x="1839.38" y="-61" font-family="Helvetica,sans-Serif" font-size="10.00">Cpl/Container/DList.h</text>
</a>
</g>
</g>
<!-- Node19&#45;&gt;Node32 -->
<g id="edge64_Node000019_Node000032" class="edge">
<title>Node19&#45;&gt;Node32</title>
<g id="a_edge64_Node000019_Node000032"><a xlink:title=" ">
<path fill="none" stroke="#63b8ff" d="M1811.52,-334.2C1876.46,-324.5 1959.38,-298.93 1959.38,-231.62 1959.38,-231.62 1959.38,-231.62 1959.38,-174.38 1959.38,-127.92 1909.29,-96.21 1873.83,-79.57"/>
<polygon fill="#63b8ff" stroke="#63b8ff" points="1875.31,-76.4 1864.75,-75.51 1872.45,-82.79 1875.31,-76.4"/>
</a>
</g>
</g>
<!-- Node35 -->
<g id="Node000035" class="node">
<title>Node35</title>
<g id="a_Node000035"><a xlink:title=" ">
<polygon fill="#e0e0e0" stroke="#999999" points="1855.75,-129.75 1809,-129.75 1809,-110.5 1855.75,-110.5 1855.75,-129.75"/>
<text text-anchor="middle" x="1832.38" y="-116.25" font-family="Helvetica,sans-Serif" font-size="10.00">stdlib.h</text>
</a>
</g>
</g>
<!-- Node19&#45;&gt;Node35 -->
<g id="edge66_Node000019_Node000035" class="edge">
<title>Node19&#45;&gt;Node35</title>
<g id="a_edge66_Node000019_Node000035"><a xlink:title=" ">
<path fill="none" stroke="#63b8ff" d="M1754.95,-331.03C1768.96,-323.5 1787.1,-311.44 1797.38,-295.5 1828.82,-246.71 1832.96,-175.55 1832.94,-141.18"/>
<polygon fill="#63b8ff" stroke="#63b8ff" points="1836.44,-141.39 1832.79,-131.45 1829.44,-141.49 1836.44,-141.39"/>
</a>
</g>
</g>
<!-- Node20&#45;&gt;Node3 -->
<g id="edge23_Node000020_Node000003" class="edge">
<title>Node20&#45;&gt;Node3</title>
<g id="a_edge23_Node000020_Node000003"><a xlink:title=" ">
<path fill="none" stroke="#63b8ff" d="M713.03,-220.58C707.89,-211.7 700.09,-197.67 694.38,-185 669.09,-128.96 693.57,-94.67 646.38,-55.25 616.82,-30.56 511.75,-18.85 446.98,-13.86"/>
<polygon fill="#63b8ff" stroke="#63b8ff" points="447.52,-10.39 437.28,-13.14 447,-17.37 447.52,-10.39"/>
</a>
</g>
</g>
<!-- Node20&#45;&gt;Node5 -->
<g id="edge25_Node000020_Node000005" class="edge">
<title>Node20&#45;&gt;Node5</title>
<g id="a_edge25_Node000020_Node000005"><a xlink:title=" ">
<path fill="none" stroke="#63b8ff" d="M664.22,-222C592.81,-211.94 467.82,-194.33 395.79,-184.18"/>
<polygon fill="#63b8ff" stroke="#63b8ff" points="396.59,-180.76 386.2,-182.83 395.62,-187.69 396.59,-180.76"/>
</a>
</g>
</g>
<!-- Node20&#45;&gt;Node9 -->
<g id="edge30_Node000020_Node000009" class="edge">
<title>Node20&#45;&gt;Node9</title>
<g id="a_edge30_Node000020_Node000009"><a xlink:title=" ">
<path fill="none" stroke="#63b8ff" d="M709.6,-220.83C680.63,-192.33 584.38,-101.65 487.38,-55.25 485.75,-54.47 397.61,-32.53 345.99,-19.71"/>
<polygon fill="#63b8ff" stroke="#63b8ff" points="346.97,-16.35 336.42,-17.33 345.29,-23.14 346.97,-16.35"/>
</a>
</g>
</g>
<!-- Node20&#45;&gt;Node10 -->
<g id="edge31_Node000020_Node000010" class="edge">
<title>Node20&#45;&gt;Node10</title>
<g id="a_edge31_Node000020_Node000010"><a xlink:title=" ">
<path fill="none" stroke="#63b8ff" d="M721.09,-220.86C730.93,-190.82 767.93,-91.83 838.38,-55.25 891.39,-27.72 1309.55,-14.78 1434.95,-11.49"/>
<polygon fill="#63b8ff" stroke="#63b8ff" points="1434.73,-15 1444.63,-11.24 1434.55,-8 1434.73,-15"/>
</a>
</g>
</g>
<!-- Node20&#45;&gt;Node16 -->
<g id="edge24_Node000020_Node000016" class="edge">
<title>Node20&#45;&gt;Node16</title>
<g id="a_edge24_Node000020_Node000016"><a xlink:title=" ">
<path fill="none" stroke="#63b8ff" d="M715.74,-220.86C707.79,-192.45 687.25,-102.02 732.38,-55.25 754.1,-32.73 948.43,-19.3 1051.62,-13.7"/>
<polygon fill="#63b8ff" stroke="#63b8ff" points="1051.52,-17.21 1061.32,-13.18 1051.15,-10.22 1051.52,-17.21"/>
</a>
</g>
</g>
<!-- Node20&#45;&gt;Node17 -->
<g id="edge29_Node000020_Node000017" class="edge">
<title>Node20&#45;&gt;Node17</title>
<g id="a_edge29_Node000020_Node000017"><a xlink:title=" ">
<path fill="none" stroke="#63b8ff" d="M690.72,-220.59C664.15,-211.91 623.74,-198.71 593.99,-188.99"/>
<polygon fill="#63b8ff" stroke="#63b8ff" points="595.19,-185.7 584.6,-185.92 593.02,-192.35 595.19,-185.7"/>
</a>
</g>
</g>
<!-- Node21 -->
<g id="Node000021" class="node">
<title>Node21</title>
<g id="a_Node000021"><a xlink:href="_subscriber_api_8h.html" target="_top" xlink:title=" ">
<polygon fill="white" stroke="#666666" points="1791.12,-129.75 1671.62,-129.75 1671.62,-110.5 1791.12,-110.5 1791.12,-129.75"/>
<text text-anchor="middle" x="1731.38" y="-116.25" font-family="Helvetica,sans-Serif" font-size="10.00">Cpl/Dm/SubscriberApi.h</text>
</a>
</g>
</g>
<!-- Node20&#45;&gt;Node21 -->
<g id="edge26_Node000020_Node000021" class="edge">
<title>Node20&#45;&gt;Node21</title>
<g id="a_edge26_Node000020_Node000021"><a xlink:title=" ">
<path fill="none" stroke="#63b8ff" d="M772.52,-229.01C934.57,-226.81 1413.93,-217.65 1566.38,-185 1616.57,-174.25 1671.54,-150.32 1703.66,-134.99"/>
<polygon fill="#63b8ff" stroke="#63b8ff" points="1704.81,-138.33 1712.28,-130.82 1701.76,-132.03 1704.81,-138.33"/>
</a>
</g>
</g>
<!-- Node21&#45;&gt;Node10 -->
<g id="edge28_Node000021_Node000010" class="edge">
<title>Node21&#45;&gt;Node10</title>
<g id="a_edge28_Node000021_Node000010"><a xlink:title=" ">
<path fill="none" stroke="#63b8ff" d="M1709.57,-110.06C1663.61,-90.95 1556.58,-46.46 1502.65,-24.04"/>
<polygon fill="#63b8ff" stroke="#63b8ff" points="1504.28,-20.93 1493.7,-20.32 1501.59,-27.39 1504.28,-20.93"/>
</a>
</g>
</g>
<!-- Node21&#45;&gt;Node16 -->
<g id="edge27_Node000021_Node000016" class="edge">
<title>Node21&#45;&gt;Node16</title>
<g id="a_edge27_Node000021_Node000016"><a xlink:title=" ">
<path fill="none" stroke="#63b8ff" d="M1679.65,-110.01C1567.03,-90.18 1299.99,-43.14 1178.05,-21.66"/>
<polygon fill="#63b8ff" stroke="#63b8ff" points="1179.01,-18.28 1168.56,-19.99 1177.8,-25.17 1179.01,-18.28"/>
</a>
</g>
</g>
<!-- Node22&#45;&gt;Node10 -->
<g id="edge63_Node000022_Node000010" class="edge">
<title>Node22&#45;&gt;Node10</title>
<g id="a_edge63_Node000022_Node000010"><a xlink:title=" ">
<path fill="none" stroke="#63b8ff" d="M1788.18,-277.08C1843.17,-265.63 1921.38,-238.43 1921.38,-176.38 1921.38,-176.38 1921.38,-176.38 1921.38,-119.12 1921.38,-89.51 1925.17,-74.16 1902.38,-55.25 1872.08,-30.13 1603.84,-16.3 1505.94,-12.05"/>
<polygon fill="#63b8ff" stroke="#63b8ff" points="1506.26,-8.57 1496.12,-11.64 1505.96,-15.56 1506.26,-8.57"/>
</a>
</g>
</g>
<!-- Node22&#45;&gt;Node20 -->
<g id="edge35_Node000022_Node000020" class="edge">
<title>Node22&#45;&gt;Node20</title>
<g id="a_edge35_Node000022_Node000020"><a xlink:title=" ">
<path fill="none" stroke="#63b8ff" d="M1682.48,-282.11C1511.16,-273.13 971.66,-244.89 783.72,-235.05"/>
<polygon fill="#63b8ff" stroke="#63b8ff" points="784.06,-231.56 773.89,-234.53 783.69,-238.55 784.06,-231.56"/>
</a>
</g>
</g>
<!-- Node22&#45;&gt;Node21 -->
<g id="edge34_Node000022_Node000021" class="edge">
<title>Node22&#45;&gt;Node21</title>
<g id="a_edge34_Node000022_Node000021"><a xlink:title=" ">
<path fill="none" stroke="#63b8ff" d="M1745.02,-275.81C1765.13,-255.77 1808.1,-206.25 1788.38,-165.75 1782.39,-153.47 1771.21,-143.57 1760.32,-136.24"/>
<polygon fill="#63b8ff" stroke="#63b8ff" points="1762.21,-133.29 1751.86,-131.04 1758.54,-139.26 1762.21,-133.29"/>
</a>
</g>
</g>
<!-- Node23 -->
<g id="Node000023" class="node">
<title>Node23</title>
<g id="a_Node000023"><a xlink:href="_dm_2_event_loop_8h.html" target="_top" xlink:title=" ">
<polygon fill="white" stroke="#666666" points="1722,-240.25 1616.75,-240.25 1616.75,-221 1722,-221 1722,-240.25"/>
<text text-anchor="middle" x="1669.38" y="-226.75" font-family="Helvetica,sans-Serif" font-size="10.00">Cpl/Dm/EventLoop.h</text>
</a>
</g>
</g>
<!-- Node22&#45;&gt;Node23 -->
<g id="edge36_Node000022_Node000023" class="edge">
<title>Node22&#45;&gt;Node23</title>
<g id="a_edge36_Node000022_Node000023"><a xlink:title=" ">
<path fill="none" stroke="#63b8ff" d="M1724.18,-275.84C1714.64,-268.15 1700.7,-256.9 1689.27,-247.68"/>
<polygon fill="#63b8ff" stroke="#63b8ff" points="1691.56,-245.03 1681.58,-241.48 1687.17,-250.48 1691.56,-245.03"/>
</a>
</g>
</g>
<!-- Node23&#45;&gt;Node21 -->
<g id="edge60_Node000023_Node000021" class="edge">
<title>Node23&#45;&gt;Node21</title>
<g id="a_edge60_Node000023_Node000021"><a xlink:title=" ">
<path fill="none" stroke="#63b8ff" d="M1660.5,-220.51C1649.15,-207.7 1632.22,-183.91 1643.38,-165.75 1652.33,-151.16 1667.71,-141.16 1683.13,-134.39"/>
<polygon fill="#63b8ff" stroke="#63b8ff" points="1684.3,-137.69 1692.32,-130.76 1681.73,-131.18 1684.3,-137.69"/>
</a>
</g>
</g>
<!-- Node24 -->
<g id="Node000024" class="node">
<title>Node24</title>
<g id="a_Node000024"><a xlink:href="_system_2_event_loop_8h.html" target="_top" xlink:title=" ">
<polygon fill="white" stroke="#666666" points="1212,-185 1088.75,-185 1088.75,-165.75 1212,-165.75 1212,-185"/>
<text text-anchor="middle" x="1150.38" y="-171.5" font-family="Helvetica,sans-Serif" font-size="10.00">Cpl/System/EventLoop.h</text>
</a>
</g>
</g>
<!-- Node23&#45;&gt;Node24 -->
<g id="edge37_Node000023_Node000024" class="edge">
<title>Node23&#45;&gt;Node24</title>
<g id="a_edge37_Node000023_Node000024"><a xlink:title=" ">
<path fill="none" stroke="#63b8ff" d="M1616.27,-224.18C1522.92,-214.6 1329.29,-194.73 1223.41,-183.87"/>
<polygon fill="#63b8ff" stroke="#63b8ff" points="1224.01,-180.41 1213.7,-182.87 1223.29,-187.37 1224.01,-180.41"/>
</a>
</g>
</g>
<!-- Node23&#45;&gt;Node32 -->
<g id="edge59_Node000023_Node000032" class="edge">
<title>Node23&#45;&gt;Node32</title>
<g id="a_edge59_Node000023_Node000032"><a xlink:title=" ">
<path fill="none" stroke="#63b8ff" d="M1720.78,-220.58C1768.78,-208.96 1837.01,-183.47 1864.38,-129.75 1872.04,-114.7 1863.54,-96.72 1854.43,-83.67"/>
<polygon fill="#63b8ff" stroke="#63b8ff" points="1857.39,-81.79 1848.52,-75.99 1851.84,-86.05 1857.39,-81.79"/>
</a>
</g>
</g>
<!-- Node33 -->
<g id="Node000033" class="node">
<title>Node33</title>
<g id="a_Node000033"><a xlink:href="_thread_8h.html" target="_top" xlink:title=" ">
<polygon fill="white" stroke="#666666" points="1557.75,-185 1451,-185 1451,-165.75 1557.75,-165.75 1557.75,-185"/>
<text text-anchor="middle" x="1504.38" y="-171.5" font-family="Helvetica,sans-Serif" font-size="10.00">Cpl/System/Thread.h</text>
</a>
</g>
</g>
<!-- Node23&#45;&gt;Node33 -->
<g id="edge53_Node000023_Node000033" class="edge">
<title>Node23&#45;&gt;Node33</title>
<g id="a_edge53_Node000023_Node000033"><a xlink:title=" ">
<path fill="none" stroke="#63b8ff" d="M1641.38,-220.59C1614.36,-211.87 1573.22,-198.59 1543.07,-188.86"/>
<polygon fill="#63b8ff" stroke="#63b8ff" points="1544.53,-185.66 1533.94,-185.92 1542.38,-192.32 1544.53,-185.66"/>
</a>
</g>
</g>
<!-- Node36 -->
<g id="Node000036" class="node">
<title>Node36</title>
<g id="a_Node000036"><a xlink:href="_notification_api___8h.html" target="_top" xlink:title=" ">
<polygon fill="white" stroke="#666666" points="1778.88,-185 1651.88,-185 1651.88,-165.75 1778.88,-165.75 1778.88,-185"/>
<text text-anchor="middle" x="1715.38" y="-171.5" font-family="Helvetica,sans-Serif" font-size="10.00">Cpl/Dm/NotificationApi_.h</text>
</a>
</g>
</g>
<!-- Node23&#45;&gt;Node36 -->
<g id="edge61_Node000023_Node000036" class="edge">
<title>Node23&#45;&gt;Node36</title>
<g id="a_edge61_Node000023_Node000036"><a xlink:title=" ">
<path fill="none" stroke="#63b8ff" d="M1676.97,-220.83C1683.26,-213.55 1692.39,-202.98 1700.17,-193.98"/>
<polygon fill="#63b8ff" stroke="#63b8ff" points="1702.74,-196.36 1706.62,-186.5 1697.44,-191.78 1702.74,-196.36"/>
</a>
</g>
</g>
<!-- Node25 -->
<g id="Node000025" class="node">
<title>Node25</title>
<g id="a_Node000025"><a xlink:href="_runnable_8h.html" target="_top" xlink:title=" ">
<polygon fill="white" stroke="#666666" points="1453,-129.75 1335.75,-129.75 1335.75,-110.5 1453,-110.5 1453,-129.75"/>
<text text-anchor="middle" x="1394.38" y="-116.25" font-family="Helvetica,sans-Serif" font-size="10.00">Cpl/System/Runnable.h</text>
</a>
</g>
</g>
<!-- Node24&#45;&gt;Node25 -->
<g id="edge38_Node000024_Node000025" class="edge">
<title>Node24&#45;&gt;Node25</title>
<g id="a_edge38_Node000024_Node000025"><a xlink:title=" ">
<path fill="none" stroke="#63b8ff" d="M1192.04,-165.28C1233.45,-156.24 1297.08,-142.36 1341.91,-132.57"/>
<polygon fill="#63b8ff" stroke="#63b8ff" points="1342.38,-136.06 1351.4,-130.5 1340.88,-129.22 1342.38,-136.06"/>
</a>
</g>
</g>
<!-- Node26 -->
<g id="Node000026" class="node">
<title>Node26</title>
<g id="a_Node000026"><a xlink:href="_semaphore_8h.html" target="_top" xlink:title=" ">
<polygon fill="white" stroke="#666666" points="938.5,-129.75 812.25,-129.75 812.25,-110.5 938.5,-110.5 938.5,-129.75"/>
<text text-anchor="middle" x="875.38" y="-116.25" font-family="Helvetica,sans-Serif" font-size="10.00">Cpl/System/Semaphore.h</text>
</a>
</g>
</g>
<!-- Node24&#45;&gt;Node26 -->
<g id="edge39_Node000024_Node000026" class="edge">
<title>Node24&#45;&gt;Node26</title>
<g id="a_edge39_Node000024_Node000026"><a xlink:title=" ">
<path fill="none" stroke="#63b8ff" d="M1103.41,-165.28C1056.35,-156.17 983.81,-142.12 933.22,-132.33"/>
<polygon fill="#63b8ff" stroke="#63b8ff" points="934.11,-128.93 923.63,-130.47 932.78,-135.81 934.11,-128.93"/>
</a>
</g>
</g>
<!-- Node27 -->
<g id="Node000027" class="node">
<title>Node27</title>
<g id="a_Node000027"><a xlink:href="_signable_8h.html" target="_top" xlink:title=" ">
<polygon fill="white" stroke="#666666" points="1172.5,-74.5 1058.25,-74.5 1058.25,-55.25 1172.5,-55.25 1172.5,-74.5"/>
<text text-anchor="middle" x="1115.38" y="-61" font-family="Helvetica,sans-Serif" font-size="10.00">Cpl/System/Signable.h</text>
</a>
</g>
</g>
<!-- Node24&#45;&gt;Node27 -->
<g id="edge43_Node000024_Node000027" class="edge">
<title>Node24&#45;&gt;Node27</title>
<g id="a_edge43_Node000024_Node000027"><a xlink:title=" ">
<path fill="none" stroke="#63b8ff" d="M1147.94,-165.65C1144.47,-153.31 1137.79,-130.07 1131.38,-110.5 1128.65,-102.19 1125.43,-93.09 1122.6,-85.29"/>
<polygon fill="#63b8ff" stroke="#63b8ff" points="1125.97,-84.31 1119.23,-76.14 1119.4,-86.73 1125.97,-84.31"/>
</a>
</g>
</g>
<!-- Node28 -->
<g id="Node000028" class="node">
<title>Node28</title>
<g id="a_Node000028"><a xlink:href="_event_flag_8h.html" target="_top" xlink:title=" ">
<polygon fill="white" stroke="#666666" points="967.5,-74.5 847.25,-74.5 847.25,-55.25 967.5,-55.25 967.5,-74.5"/>
<text text-anchor="middle" x="907.38" y="-61" font-family="Helvetica,sans-Serif" font-size="10.00">Cpl/System/EventFlag.h</text>
</a>
</g>
</g>
<!-- Node24&#45;&gt;Node28 -->
<g id="edge44_Node000024_Node000028" class="edge">
<title>Node24&#45;&gt;Node28</title>
<g id="a_edge44_Node000024_Node000028"><a xlink:title=" ">
<path fill="none" stroke="#63b8ff" d="M1088.62,-170.8C993.95,-164.68 821.88,-150.79 803.38,-129.75 782.83,-106.39 820.05,-88.82 855.54,-78.08"/>
<polygon fill="#63b8ff" stroke="#63b8ff" points="856.33,-81.49 864.98,-75.38 854.4,-74.76 856.33,-81.49"/>
</a>
</g>
</g>
<!-- Node29 -->
<g id="Node000029" class="node">
<title>Node29</title>
<g id="a_Node000029"><a xlink:href="_shared_event_handler_8h.html" target="_top" xlink:title=" ">
<polygon fill="white" stroke="#666666" points="1122.38,-129.75 956.38,-129.75 956.38,-110.5 1122.38,-110.5 1122.38,-129.75"/>
<text text-anchor="middle" x="1039.38" y="-116.25" font-family="Helvetica,sans-Serif" font-size="10.00">Cpl/System/SharedEventHandler.h</text>
</a>
</g>
</g>
<!-- Node24&#45;&gt;Node29 -->
<g id="edge47_Node000024_Node000029" class="edge">
<title>Node24&#45;&gt;Node29</title>
<g id="a_edge47_Node000024_Node000029"><a xlink:title=" ">
<path fill="none" stroke="#63b8ff" d="M1131.55,-165.34C1114.32,-157.08 1088.57,-144.73 1068.67,-135.18"/>
<polygon fill="#63b8ff" stroke="#63b8ff" points="1070.19,-132.03 1059.66,-130.86 1067.16,-138.34 1070.19,-132.03"/>
</a>
</g>
</g>
<!-- Node30 -->
<g id="Node000030" class="node">
<title>Node30</title>
<g id="a_Node000030"><a xlink:href="_timer_manager_8h.html" target="_top" xlink:title=" ">
<polygon fill="white" stroke="#666666" points="1317.88,-129.75 1178.88,-129.75 1178.88,-110.5 1317.88,-110.5 1317.88,-129.75"/>
<text text-anchor="middle" x="1248.38" y="-116.25" font-family="Helvetica,sans-Serif" font-size="10.00">Cpl/System/TimerManager.h</text>
</a>
</g>
</g>
<!-- Node24&#45;&gt;Node30 -->
<g id="edge49_Node000024_Node000030" class="edge">
<title>Node24&#45;&gt;Node30</title>
<g id="a_edge49_Node000024_Node000030"><a xlink:title=" ">
<path fill="none" stroke="#63b8ff" d="M1167,-165.34C1182.06,-157.16 1204.52,-144.96 1222.03,-135.44"/>
<polygon fill="#63b8ff" stroke="#63b8ff" points="1223.22,-138.77 1230.34,-130.93 1219.88,-132.62 1223.22,-138.77"/>
</a>
</g>
</g>
<!-- Node26&#45;&gt;Node6 -->
<g id="edge40_Node000026_Node000006" class="edge">
<title>Node26&#45;&gt;Node6</title>
<g id="a_edge40_Node000026_Node000006"><a xlink:title=" ">
<path fill="none" stroke="#63b8ff" d="M812.12,-111.38C724.64,-100.67 568.58,-81.57 489.38,-71.87"/>
<polygon fill="#63b8ff" stroke="#63b8ff" points="490.13,-68.44 479.77,-70.7 489.27,-75.39 490.13,-68.44"/>
</a>
</g>
</g>
<!-- Node26&#45;&gt;Node27 -->
<g id="edge41_Node000026_Node000027" class="edge">
<title>Node26&#45;&gt;Node27</title>
<g id="a_edge41_Node000026_Node000027"><a xlink:title=" ">
<path fill="none" stroke="#63b8ff" d="M916.36,-110.03C957,-101.01 1019.41,-87.17 1063.49,-77.39"/>
<polygon fill="#63b8ff" stroke="#63b8ff" points="1064.08,-80.84 1073.08,-75.26 1062.56,-74.01 1064.08,-80.84"/>
</a>
</g>
</g>
<!-- Node27&#45;&gt;Node16 -->
<g id="edge42_Node000027_Node000016" class="edge">
<title>Node27&#45;&gt;Node16</title>
<g id="a_edge42_Node000027_Node000016"><a xlink:title=" ">
<path fill="none" stroke="#63b8ff" d="M1115.38,-55.08C1115.38,-48.57 1115.38,-39.42 1115.38,-31.12"/>
<polygon fill="#63b8ff" stroke="#63b8ff" points="1118.88,-31.12 1115.38,-21.12 1111.88,-31.12 1118.88,-31.12"/>
</a>
</g>
</g>
<!-- Node28&#45;&gt;Node3 -->
<g id="edge45_Node000028_Node000003" class="edge">
<title>Node28&#45;&gt;Node3</title>
<g id="a_edge45_Node000028_Node000003"><a xlink:title=" ">
<path fill="none" stroke="#63b8ff" d="M846.77,-57.58C745.34,-47.06 542.93,-26.05 447.06,-16.09"/>
<polygon fill="#63b8ff" stroke="#63b8ff" points="447.45,-12.62 437.14,-15.06 446.73,-19.58 447.45,-12.62"/>
</a>
</g>
</g>
<!-- Node28&#45;&gt;Node10 -->
<g id="edge46_Node000028_Node000010" class="edge">
<title>Node28&#45;&gt;Node10</title>
<g id="a_edge46_Node000028_Node000010"><a xlink:title=" ">
<path fill="none" stroke="#63b8ff" d="M967.89,-58.15C1085.43,-47.03 1341.26,-22.84 1435.02,-13.97"/>
<polygon fill="#63b8ff" stroke="#63b8ff" points="1435.26,-17.46 1444.88,-13.04 1434.6,-10.49 1435.26,-17.46"/>
</a>
</g>
</g>
<!-- Node29&#45;&gt;Node28 -->
<g id="edge48_Node000029_Node000028" class="edge">
<title>Node29&#45;&gt;Node28</title>
<g id="a_edge48_Node000029_Node000028"><a xlink:title=" ">
<path fill="none" stroke="#63b8ff" d="M1016.98,-110.09C995.93,-101.6 964.17,-88.79 940.25,-79.14"/>
<polygon fill="#63b8ff" stroke="#63b8ff" points="941.86,-76.01 931.28,-75.52 939.24,-82.51 941.86,-76.01"/>
</a>
</g>
</g>
<!-- Node31 -->
<g id="Node000031" class="node">
<title>Node31</title>
<g id="a_Node000031"><a xlink:href="_counter___8h.html" target="_top" xlink:title=" ">
<polygon fill="white" stroke="#666666" points="1306.25,-74.5 1190.5,-74.5 1190.5,-55.25 1306.25,-55.25 1306.25,-74.5"/>
<text text-anchor="middle" x="1248.38" y="-61" font-family="Helvetica,sans-Serif" font-size="10.00">Cpl/System/Counter_.h</text>
</a>
</g>
</g>
<!-- Node30&#45;&gt;Node31 -->
<g id="edge50_Node000030_Node000031" class="edge">
<title>Node30&#45;&gt;Node31</title>
<g id="a_edge50_Node000030_Node000031"><a xlink:title=" ">
<path fill="none" stroke="#63b8ff" d="M1248.38,-110.33C1248.38,-103.82 1248.38,-94.67 1248.38,-86.37"/>
<polygon fill="#63b8ff" stroke="#63b8ff" points="1251.88,-86.37 1248.38,-76.37 1244.88,-86.37 1251.88,-86.37"/>
</a>
</g>
</g>
<!-- Node30&#45;&gt;Node32 -->
<g id="edge52_Node000030_Node000032" class="edge">
<title>Node30&#45;&gt;Node32</title>
<g id="a_edge52_Node000030_Node000032"><a xlink:title=" ">
<path fill="none" stroke="#63b8ff" d="M1318.11,-111.33C1320.9,-111.05 1323.66,-110.77 1326.38,-110.5 1486.88,-94.65 1675.95,-78.97 1773.6,-71.1"/>
<polygon fill="#63b8ff" stroke="#63b8ff" points="1773.85,-74.59 1783.54,-70.3 1773.29,-67.62 1773.85,-74.59"/>
</a>
</g>
</g>
<!-- Node31&#45;&gt;Node16 -->
<g id="edge51_Node000031_Node000016" class="edge">
<title>Node31&#45;&gt;Node16</title>
<g id="a_edge51_Node000031_Node000016"><a xlink:title=" ">
<path fill="none" stroke="#63b8ff" d="M1225.81,-54.84C1204.6,-46.35 1172.6,-33.54 1148.5,-23.89"/>
<polygon fill="#63b8ff" stroke="#63b8ff" points="1150.04,-20.73 1139.45,-20.27 1147.44,-27.23 1150.04,-20.73"/>
</a>
</g>
</g>
<!-- Node33&#45;&gt;Node6 -->
<g id="edge54_Node000033_Node000006" class="edge">
<title>Node33&#45;&gt;Node6</title>
<g id="a_edge54_Node000033_Node000006"><a xlink:title=" ">
<path fill="none" stroke="#63b8ff" d="M1501.49,-165.39C1496.29,-150.88 1483.84,-122.69 1462.38,-110.5 1419.69,-86.26 688.34,-70.6 489.78,-66.79"/>
<polygon fill="#63b8ff" stroke="#63b8ff" points="489.86,-63.29 479.8,-66.6 489.73,-70.29 489.86,-63.29"/>
</a>
</g>
</g>
<!-- Node33&#45;&gt;Node25 -->
<g id="edge55_Node000033_Node000025" class="edge">
<title>Node33&#45;&gt;Node25</title>
<g id="a_edge55_Node000033_Node000025"><a xlink:title=" ">
<path fill="none" stroke="#63b8ff" d="M1485.71,-165.34C1468.65,-157.08 1443.13,-144.73 1423.4,-135.18"/>
<polygon fill="#63b8ff" stroke="#63b8ff" points="1425.01,-132.07 1414.49,-130.86 1421.96,-138.37 1425.01,-132.07"/>
</a>
</g>
</g>
<!-- Node33&#45;&gt;Node27 -->
<g id="edge56_Node000033_Node000027" class="edge">
<title>Node33&#45;&gt;Node27</title>
<g id="a_edge56_Node000033_Node000027"><a xlink:title=" ">
<path fill="none" stroke="#63b8ff" d="M1555.6,-165.33C1598.67,-155.59 1649.49,-137.74 1624.38,-110.5 1592.63,-76.07 1266.92,-79.24 1184.23,-74.43"/>
<polygon fill="#63b8ff" stroke="#63b8ff" points="1184.7,-70.96 1174.46,-73.68 1184.16,-77.94 1184.7,-70.96"/>
</a>
</g>
</g>
<!-- Node34 -->
<g id="Node000034" class="node">
<title>Node34</title>
<g id="a_Node000034"><a xlink:href="_traverser_8h.html" target="_top" xlink:title=" ">
<polygon fill="white" stroke="#666666" points="1615.38,-129.75 1509.38,-129.75 1509.38,-110.5 1615.38,-110.5 1615.38,-129.75"/>
<text text-anchor="middle" x="1562.38" y="-116.25" font-family="Helvetica,sans-Serif" font-size="10.00">Cpl/Type/Traverser.h</text>
</a>
</g>
</g>
<!-- Node33&#45;&gt;Node34 -->
<g id="edge57_Node000033_Node000034" class="edge">
<title>Node33&#45;&gt;Node34</title>
<g id="a_edge57_Node000033_Node000034"><a xlink:title=" ">
<path fill="none" stroke="#63b8ff" d="M1514.21,-165.34C1522.43,-157.8 1534.36,-146.85 1544.29,-137.73"/>
<polygon fill="#63b8ff" stroke="#63b8ff" points="1546.57,-140.39 1551.57,-131.05 1541.83,-135.23 1546.57,-140.39"/>
</a>
</g>
</g>
<!-- Node33&#45;&gt;Node35 -->
<g id="edge58_Node000033_Node000035" class="edge">
<title>Node33&#45;&gt;Node35</title>
<g id="a_edge58_Node000033_Node000035"><a xlink:title=" ">
<path fill="none" stroke="#63b8ff" d="M1558.18,-168.13C1615.36,-161.08 1708.6,-148.4 1797.57,-130.15"/>
<polygon fill="#63b8ff" stroke="#63b8ff" points="1798.12,-133.61 1807.2,-128.14 1796.7,-126.75 1798.12,-133.61"/>
</a>
</g>
</g>
<!-- Node36&#45;&gt;Node21 -->
<g id="edge62_Node000036_Node000021" class="edge">
<title>Node36&#45;&gt;Node21</title>
<g id="a_edge62_Node000036_Node000021"><a xlink:title=" ">
<path fill="none" stroke="#63b8ff" d="M1718.02,-165.58C1720.02,-158.92 1722.85,-149.49 1725.39,-141.03"/>
<polygon fill="#63b8ff" stroke="#63b8ff" points="1728.71,-142.14 1728.24,-131.56 1722.01,-140.13 1728.71,-142.14"/>
</a>
</g>
</g>
</g>
</svg>
