<?xml version="1.0" encoding="UTF-8" standalone="no"?>
<!DOCTYPE svg PUBLIC "-//W3C//DTD SVG 1.1//EN"
 "http://www.w3.org/Graphics/SVG/1.1/DTD/svg11.dtd">
<!-- Generated by graphviz version 9.0.0 (20230911.1827)
 -->
<!-- Title: Driver/Crypto/PasswordHash/Api.h Pages: 1 -->
<svg width="235pt" height="204pt"
 viewBox="0.00 0.00 234.88 204.25" xmlns="http://www.w3.org/2000/svg" xmlns:xlink="http://www.w3.org/1999/xlink">
<g id="graph0" class="graph" transform="scale(1 1) rotate(0) translate(4 200.25)">
<title>Driver/Crypto/PasswordHash/Api.h</title>
<!-- Node1 -->
<g id="Node000001" class="node">
<title>Node1</title>
<g id="a_Node000001"><a xlink:title=" ">
<polygon fill="#999999" stroke="#666666" points="209.5,-196.25 67.5,-196.25 67.5,-165.75 209.5,-165.75 209.5,-196.25"/>
<text text-anchor="start" x="75.5" y="-182.75" font-family="Helvetica,sans-Serif" font-size="10.00">Driver/Crypto/PasswordHash</text>
<text text-anchor="middle" x="138.5" y="-171.5" font-family="Helvetica,sans-Serif" font-size="10.00">/Api.h</text>
</a>
</g>
</g>
<!-- Node2 -->
<g id="Node000002" class="node">
<title>Node2</title>
<g id="a_Node000002"><a xlink:href="_hash_8h.html" target="_top" xlink:title=" ">
<polygon fill="white" stroke="#666666" points="191.5,-129.75 85.5,-129.75 85.5,-110.5 191.5,-110.5 191.5,-129.75"/>
<text text-anchor="middle" x="138.5" y="-116.25" font-family="Helvetica,sans-Serif" font-size="10.00">Driver/Crypto/Hash.h</text>
</a>
</g>
</g>
<!-- Node1&#45;&gt;Node2 -->
<g id="edge1_Node000001_Node000002" class="edge">
<title>Node1&#45;&gt;Node2</title>
<g id="a_edge1_Node000001_Node000002"><a xlink:title=" ">
<path fill="none" stroke="#63b8ff" d="M138.5,-165.45C138.5,-158.21 138.5,-149.34 138.5,-141.44"/>
<polygon fill="#63b8ff" stroke="#63b8ff" points="142,-141.71 138.5,-131.71 135,-141.71 142,-141.71"/>
</a>
</g>
</g>
<!-- Node3 -->
<g id="Node000003" class="node">
<title>Node3</title>
<g id="a_Node000003"><a xlink:href="_driver_2_crypto_2_api_8h.html" target="_top" xlink:title=" ">
<polygon fill="white" stroke="#666666" points="97,-74.5 0,-74.5 0,-55.25 97,-55.25 97,-74.5"/>
<text text-anchor="middle" x="48.5" y="-61" font-family="Helvetica,sans-Serif" font-size="10.00">Driver/Crypto/Api.h</text>
</a>
</g>
</g>
<!-- Node2&#45;&gt;Node3 -->
<g id="edge2_Node000002_Node000003" class="edge">
<title>Node2&#45;&gt;Node3</title>
<g id="a_edge2_Node000002_Node000003"><a xlink:title=" ">
<path fill="none" stroke="#63b8ff" d="M123.23,-110.09C109.66,-102.06 89.55,-90.16 73.6,-80.73"/>
<polygon fill="#63b8ff" stroke="#63b8ff" points="75.53,-77.8 65.14,-75.72 71.97,-83.83 75.53,-77.8"/>
</a>
</g>
</g>
<!-- Node5 -->
<g id="Node000005" class="node">
<title>Node5</title>
<g id="a_Node000005"><a xlink:title=" ">
<polygon fill="#e0e0e0" stroke="#999999" points="162.25,-74.5 114.75,-74.5 114.75,-55.25 162.25,-55.25 162.25,-74.5"/>
<text text-anchor="middle" x="138.5" y="-61" font-family="Helvetica,sans-Serif" font-size="10.00">stdint.h</text>
</a>
</g>
</g>
<!-- Node2&#45;&gt;Node5 -->
<g id="edge4_Node000002_Node000005" class="edge">
<title>Node2&#45;&gt;Node5</title>
<g id="a_edge4_Node000002_Node000005"><a xlink:title=" ">
<path fill="none" stroke="#63b8ff" d="M138.5,-110.33C138.5,-103.82 138.5,-94.67 138.5,-86.37"/>
<polygon fill="#63b8ff" stroke="#63b8ff" points="142,-86.37 138.5,-76.37 135,-86.37 142,-86.37"/>
</a>
</g>
</g>
<!-- Node6 -->
<g id="Node000006" class="node">
<title>Node6</title>
<g id="a_Node000006"><a xlink:title=" ">
<polygon fill="#e0e0e0" stroke="#999999" points="226.88,-74.5 180.12,-74.5 180.12,-55.25 226.88,-55.25 226.88,-74.5"/>
<text text-anchor="middle" x="203.5" y="-61" font-family="Helvetica,sans-Serif" font-size="10.00">stdlib.h</text>
</a>
</g>
</g>
<!-- Node2&#45;&gt;Node6 -->
<g id="edge5_Node000002_Node000006" class="edge">
<title>Node2&#45;&gt;Node6</title>
<g id="a_edge5_Node000002_Node000006"><a xlink:title=" ">
<path fill="none" stroke="#63b8ff" d="M149.53,-110.09C158.92,-102.4 172.65,-91.15 183.91,-81.93"/>
<polygon fill="#63b8ff" stroke="#63b8ff" points="185.95,-84.78 191.47,-75.73 181.51,-79.36 185.95,-84.78"/>
</a>
</g>
</g>
<!-- Node4 -->
<g id="Node000004" class="node">
<title>Node4</title>
<g id="a_Node000004"><a xlink:title=" ">
<polygon fill="#e0e0e0" stroke="#999999" points="89.5,-19.25 7.5,-19.25 7.5,0 89.5,0 89.5,-19.25"/>
<text text-anchor="middle" x="48.5" y="-5.75" font-family="Helvetica,sans-Serif" font-size="10.00">colony_config.h</text>
</a>
</g>
</g>
<!-- Node3&#45;&gt;Node4 -->
<g id="edge3_Node000003_Node000004" class="edge">
<title>Node3&#45;&gt;Node4</title>
<g id="a_edge3_Node000003_Node000004"><a xlink:title=" ">
<path fill="none" stroke="#63b8ff" d="M48.5,-55.08C48.5,-48.57 48.5,-39.42 48.5,-31.12"/>
<polygon fill="#63b8ff" stroke="#63b8ff" points="52,-31.12 48.5,-21.12 45,-31.12 52,-31.12"/>
</a>
</g>
</g>
</g>
</svg>
