<?xml version="1.0" encoding="UTF-8" standalone="no"?>
<!DOCTYPE svg PUBLIC "-//W3C//DTD SVG 1.1//EN"
 "http://www.w3.org/Graphics/SVG/1.1/DTD/svg11.dtd">
<!-- Generated by graphviz version 9.0.0 (20230911.1827)
 -->
<!-- Title: Driver/Crypto/Api.h Pages: 1 -->
<svg width="694pt" height="149pt"
 viewBox="0.00 0.00 694.12 149.00" xmlns="http://www.w3.org/2000/svg" xmlns:xlink="http://www.w3.org/1999/xlink">
<g id="graph0" class="graph" transform="scale(1 1) rotate(0) translate(4 145)">
<title>Driver/Crypto/Api.h</title>
<!-- Node1 -->
<g id="Node000001" class="node">
<title>Node1</title>
<g id="a_Node000001"><a xlink:title=" ">
<polygon fill="#999999" stroke="#666666" points="404.62,-141 307.62,-141 307.62,-121.75 404.62,-121.75 404.62,-141"/>
<text text-anchor="middle" x="356.12" y="-127.5" font-family="Helvetica,sans-Serif" font-size="10.00">Driver/Crypto/Api.h</text>
</a>
</g>
</g>
<!-- Node2 -->
<g id="Node000002" class="node">
<title>Node2</title>
<g id="a_Node000002"><a xlink:href="_e_d25519_8h.html" target="_top" xlink:title=" ">
<polygon fill="white" stroke="#666666" points="285,-85.75 163.25,-85.75 163.25,-66.5 285,-66.5 285,-85.75"/>
<text text-anchor="middle" x="224.12" y="-72.25" font-family="Helvetica,sans-Serif" font-size="10.00">Driver/Crypto/ED25519.h</text>
</a>
</g>
</g>
<!-- Node1&#45;&gt;Node2 -->
<g id="edge1_Node000001_Node000002" class="edge">
<title>Node1&#45;&gt;Node2</title>
<g id="a_edge1_Node000001_Node000002"><a xlink:title=" ">
<path fill="none" stroke="#63b8ff" d="M323.37,-117.16C299.48,-107.52 267.71,-94.71 246.63,-86.2"/>
<polygon fill="#63b8ff" stroke="#63b8ff" points="321.75,-120.28 332.33,-120.78 324.36,-113.79 321.75,-120.28"/>
</a>
</g>
</g>
<!-- Node3 -->
<g id="Node000003" class="node">
<title>Node3</title>
<g id="a_Node000003"><a xlink:href="_hash_8h.html" target="_top" xlink:title=" ">
<polygon fill="white" stroke="#666666" points="409.12,-85.75 303.12,-85.75 303.12,-66.5 409.12,-66.5 409.12,-85.75"/>
<text text-anchor="middle" x="356.12" y="-72.25" font-family="Helvetica,sans-Serif" font-size="10.00">Driver/Crypto/Hash.h</text>
</a>
</g>
</g>
<!-- Node1&#45;&gt;Node3 -->
<g id="edge2_Node000001_Node000003" class="edge">
<title>Node1&#45;&gt;Node3</title>
<g id="a_edge2_Node000001_Node000003"><a xlink:title=" ">
<path fill="none" stroke="#63b8ff" d="M356.12,-110.13C356.12,-101.84 356.12,-92.67 356.12,-86.11"/>
<polygon fill="#63b8ff" stroke="#63b8ff" points="352.63,-110.07 356.13,-120.07 359.63,-110.07 352.63,-110.07"/>
</a>
</g>
</g>
<!-- Node9 -->
<g id="Node000009" class="node">
<title>Node9</title>
<g id="a_Node000009"><a xlink:href="_random_8h.html" target="_top" xlink:title=" ">
<polygon fill="white" stroke="#666666" points="545.5,-85.75 426.75,-85.75 426.75,-66.5 545.5,-66.5 545.5,-85.75"/>
<text text-anchor="middle" x="486.12" y="-72.25" font-family="Helvetica,sans-Serif" font-size="10.00">Driver/Crypto/Random.h</text>
</a>
</g>
</g>
<!-- Node1&#45;&gt;Node9 -->
<g id="edge8_Node000001_Node000009" class="edge">
<title>Node1&#45;&gt;Node9</title>
<g id="a_edge8_Node000001_Node000009"><a xlink:title=" ">
<path fill="none" stroke="#63b8ff" d="M388.7,-117.03C412.19,-107.41 443.29,-94.67 463.96,-86.2"/>
<polygon fill="#63b8ff" stroke="#63b8ff" points="387.51,-113.74 379.58,-120.77 390.16,-120.22 387.51,-113.74"/>
</a>
</g>
</g>
<!-- Node4 -->
<g id="Node000004" class="node">
<title>Node4</title>
<g id="a_Node000004"><a xlink:href="_t_shell_security_8h.html" target="_top" xlink:title=" ">
<polygon fill="white" stroke="#666666" points="156.25,-24.88 0,-24.88 0,-5.63 156.25,-5.63 156.25,-24.88"/>
<text text-anchor="middle" x="78.12" y="-11.38" font-family="Helvetica,sans-Serif" font-size="10.00">Ajax/Main/_app/TShellSecurity.h</text>
</a>
</g>
</g>
<!-- Node3&#45;&gt;Node4 -->
<g id="edge3_Node000003_Node000004" class="edge">
<title>Node3&#45;&gt;Node4</title>
<g id="a_edge3_Node000003_Node000004"><a xlink:title=" ">
<path fill="none" stroke="#63b8ff" d="M302.11,-63.69C249.22,-52.48 169.69,-35.64 121,-25.33"/>
<polygon fill="#63b8ff" stroke="#63b8ff" points="301.31,-67.09 311.82,-65.74 302.76,-60.25 301.31,-67.09"/>
</a>
</g>
</g>
<!-- Node5 -->
<g id="Node000005" class="node">
<title>Node5</title>
<g id="a_Node000005"><a xlink:href="appmain_8h.html" target="_top" xlink:title="This file defines the hardware/platform independent start&#45;up interface(s) for the Ajax application.">
<polygon fill="white" stroke="#666666" points="280.12,-24.88 174.12,-24.88 174.12,-5.63 280.12,-5.63 280.12,-24.88"/>
<text text-anchor="middle" x="227.12" y="-11.38" font-family="Helvetica,sans-Serif" font-size="10.00">Ajax/Main/appmain.h</text>
</a>
</g>
</g>
<!-- Node3&#45;&gt;Node5 -->
<g id="edge4_Node000003_Node000005" class="edge">
<title>Node3&#45;&gt;Node5</title>
<g id="a_edge4_Node000003_Node000005"><a xlink:title=" ">
<path fill="none" stroke="#63b8ff" d="M326.09,-61.42C301.67,-50.27 267.91,-34.87 246.81,-25.23"/>
<polygon fill="#63b8ff" stroke="#63b8ff" points="324.32,-64.46 334.87,-65.43 327.23,-58.09 324.32,-64.46"/>
</a>
</g>
</g>
<!-- Node6 -->
<g id="Node000006" class="node">
<title>Node6</title>
<g id="a_Node000006"><a xlink:href="_provision_8h.html" target="_top" xlink:title=" ">
<polygon fill="white" stroke="#666666" points="414.38,-24.88 297.88,-24.88 297.88,-5.63 414.38,-5.63 414.38,-24.88"/>
<text text-anchor="middle" x="356.12" y="-11.38" font-family="Helvetica,sans-Serif" font-size="10.00">Ajax/TShell/Provision.h</text>
</a>
</g>
</g>
<!-- Node3&#45;&gt;Node6 -->
<g id="edge5_Node000003_Node000006" class="edge">
<title>Node3&#45;&gt;Node6</title>
<g id="a_edge5_Node000003_Node000006"><a xlink:title=" ">
<path fill="none" stroke="#63b8ff" d="M356.12,-54.7C356.12,-44.67 356.12,-33.08 356.12,-25.28"/>
<polygon fill="#63b8ff" stroke="#63b8ff" points="352.63,-54.67 356.13,-64.67 359.63,-54.67 352.63,-54.67"/>
</a>
</g>
</g>
<!-- Node7 -->
<g id="Node000007" class="node">
<title>Node7</title>
<g id="a_Node000007"><a xlink:href="_sha512_8h.html" target="_top" xlink:title=" ">
<polygon fill="white" stroke="#666666" points="525.75,-30.5 432.5,-30.5 432.5,0 525.75,0 525.75,-30.5"/>
<text text-anchor="start" x="440.5" y="-17" font-family="Helvetica,sans-Serif" font-size="10.00">Driver/Crypto/Orlp</text>
<text text-anchor="middle" x="479.12" y="-5.75" font-family="Helvetica,sans-Serif" font-size="10.00">/Sha512.h</text>
</a>
</g>
</g>
<!-- Node3&#45;&gt;Node7 -->
<g id="edge6_Node000003_Node000007" class="edge">
<title>Node3&#45;&gt;Node7</title>
<g id="a_edge6_Node000003_Node000007"><a xlink:title=" ">
<path fill="none" stroke="#63b8ff" d="M385.25,-61.18C404.28,-52.08 429.09,-40.2 448.43,-30.94"/>
<polygon fill="#63b8ff" stroke="#63b8ff" points="383.95,-57.93 376.44,-65.4 386.97,-64.24 383.95,-57.93"/>
</a>
</g>
</g>
<!-- Node8 -->
<g id="Node000008" class="node">
<title>Node8</title>
<g id="a_Node000008"><a xlink:href="_driver_2_crypto_2_password_hash_2_api_8h.html" target="_top" xlink:title=" ">
<polygon fill="white" stroke="#666666" points="686.12,-30.5 544.12,-30.5 544.12,0 686.12,0 686.12,-30.5"/>
<text text-anchor="start" x="552.12" y="-17" font-family="Helvetica,sans-Serif" font-size="10.00">Driver/Crypto/PasswordHash</text>
<text text-anchor="middle" x="615.12" y="-5.75" font-family="Helvetica,sans-Serif" font-size="10.00">/Api.h</text>
</a>
</g>
</g>
<!-- Node3&#45;&gt;Node8 -->
<g id="edge7_Node000003_Node000008" class="edge">
<title>Node3&#45;&gt;Node8</title>
<g id="a_edge7_Node000003_Node000008"><a xlink:title=" ">
<path fill="none" stroke="#63b8ff" d="M407.13,-63.53C448.2,-54.2 506.17,-41.02 550.48,-30.94"/>
<polygon fill="#63b8ff" stroke="#63b8ff" points="406.48,-60.09 397.5,-65.72 408.03,-66.92 406.48,-60.09"/>
</a>
</g>
</g>
</g>
</svg>
