<?xml version="1.0" encoding="UTF-8" standalone="no"?>
<!DOCTYPE svg PUBLIC "-//W3C//DTD SVG 1.1//EN"
 "http://www.w3.org/Graphics/SVG/1.1/DTD/svg11.dtd">
<!-- Generated by graphviz version 9.0.0 (20230911.1827)
 -->
<!-- Title: Driver/PicoDisplay/Api.h Pages: 1 -->
<svg width="240pt" height="149pt"
 viewBox="0.00 0.00 239.75 149.00" xmlns="http://www.w3.org/2000/svg" xmlns:xlink="http://www.w3.org/1999/xlink">
<g id="graph0" class="graph" transform="scale(1 1) rotate(0) translate(4 145)">
<title>Driver/PicoDisplay/Api.h</title>
<!-- Node1 -->
<g id="Node000001" class="node">
<title>Node1</title>
<g id="a_Node000001"><a xlink:title=" ">
<polygon fill="#999999" stroke="#666666" points="162,-141 66.5,-141 66.5,-110.5 162,-110.5 162,-141"/>
<text text-anchor="start" x="74.5" y="-127.5" font-family="Helvetica,sans-Serif" font-size="10.00">Driver/PicoDisplay</text>
<text text-anchor="middle" x="114.25" y="-116.25" font-family="Helvetica,sans-Serif" font-size="10.00">/Api.h</text>
</a>
</g>
</g>
<!-- Node2 -->
<g id="Node000002" class="node">
<title>Node2</title>
<g id="a_Node000002"><a xlink:href="platform_8h.html" target="_top" xlink:title="This file contains the interface(s) that are platform VARIANT specific.">
<polygon fill="white" stroke="#666666" points="104.5,-74.5 0,-74.5 0,-55.25 104.5,-55.25 104.5,-74.5"/>
<text text-anchor="middle" x="52.25" y="-61" font-family="Helvetica,sans-Serif" font-size="10.00">Ajax/Main/platform.h</text>
</a>
</g>
</g>
<!-- Node1&#45;&gt;Node2 -->
<g id="edge1_Node000001_Node000002" class="edge">
<title>Node1&#45;&gt;Node2</title>
<g id="a_edge1_Node000001_Node000002"><a xlink:title=" ">
<path fill="none" stroke="#63b8ff" d="M90.83,-102.51C80.75,-92.94 69.54,-82.29 61.81,-74.95"/>
<polygon fill="#63b8ff" stroke="#63b8ff" points="88.17,-104.81 97.83,-109.15 92.99,-99.73 88.17,-104.81"/>
</a>
</g>
</g>
<!-- Node3 -->
<g id="Node000003" class="node">
<title>Node3</title>
<g id="a_Node000003"><a xlink:href="_pico_display_8h.html" target="_top" xlink:title=" ">
<polygon fill="white" stroke="#666666" points="231.75,-74.5 122.75,-74.5 122.75,-55.25 231.75,-55.25 231.75,-74.5"/>
<text text-anchor="middle" x="177.25" y="-61" font-family="Helvetica,sans-Serif" font-size="10.00">Ajax/Ui/PicoDisplay.h</text>
</a>
</g>
</g>
<!-- Node1&#45;&gt;Node3 -->
<g id="edge2_Node000001_Node000003" class="edge">
<title>Node1&#45;&gt;Node3</title>
<g id="a_edge2_Node000001_Node000003"><a xlink:title=" ">
<path fill="none" stroke="#63b8ff" d="M138.05,-102.51C148.29,-92.94 159.68,-82.29 167.54,-74.95"/>
<polygon fill="#63b8ff" stroke="#63b8ff" points="135.85,-99.78 130.93,-109.16 140.62,-104.89 135.85,-99.78"/>
</a>
</g>
</g>
<!-- Node4 -->
<g id="Node000004" class="node">
<title>Node4</title>
<g id="a_Node000004"><a xlink:href="appmain_8h.html" target="_top" xlink:title="This file defines the hardware/platform independent start&#45;up interface(s) for the Ajax application.">
<polygon fill="white" stroke="#666666" points="230.25,-19.25 124.25,-19.25 124.25,0 230.25,0 230.25,-19.25"/>
<text text-anchor="middle" x="177.25" y="-5.75" font-family="Helvetica,sans-Serif" font-size="10.00">Ajax/Main/appmain.h</text>
</a>
</g>
</g>
<!-- Node3&#45;&gt;Node4 -->
<g id="edge3_Node000003_Node000004" class="edge">
<title>Node3&#45;&gt;Node4</title>
<g id="a_edge3_Node000003_Node000004"><a xlink:title=" ">
<path fill="none" stroke="#63b8ff" d="M177.25,-43.63C177.25,-35.34 177.25,-26.17 177.25,-19.61"/>
<polygon fill="#63b8ff" stroke="#63b8ff" points="173.75,-43.57 177.25,-53.57 180.75,-43.57 173.75,-43.57"/>
</a>
</g>
</g>
</g>
</svg>
