<?xml version="1.0" encoding="UTF-8" standalone="no"?>
<!DOCTYPE svg PUBLIC "-//W3C//DTD SVG 1.1//EN"
 "http://www.w3.org/Graphics/SVG/1.1/DTD/svg11.dtd">
<!-- Generated by graphviz version 2.43.0 (0)
 -->
<!-- Title: Driver/Crypto/Hash.h Pages: 1 -->
<svg width="761pt" height="93pt"
 viewBox="0.00 0.00 760.50 93.00" xmlns="http://www.w3.org/2000/svg" xmlns:xlink="http://www.w3.org/1999/xlink">
<g id="graph0" class="graph" transform="scale(1 1) rotate(0) translate(4 89)">
<title>Driver/Crypto/Hash.h</title>
<!-- Node1 -->
<g id="Node000001" class="node">
<title>Node1</title>
<g id="a_Node000001"><a xlink:title=" ">
<polygon fill="#999999" stroke="#666666" points="451.5,-85 332.5,-85 332.5,-66 451.5,-66 451.5,-85"/>
<text text-anchor="middle" x="392" y="-73" font-family="Helvetica,sans-Serif" font-size="10.00">Driver/Crypto/Hash.h</text>
</a>
</g>
</g>
<!-- Node2 -->
<g id="Node000002" class="node">
<title>Node2</title>
<g id="a_Node000002"><a xlink:href="_t_shell_security_8h.html" target="_top" xlink:title=" ">
<polygon fill="white" stroke="#666666" points="172,-24.5 0,-24.5 0,-5.5 172,-5.5 172,-24.5"/>
<text text-anchor="middle" x="86" y="-12.5" font-family="Helvetica,sans-Serif" font-size="10.00">Ajax/Main/_app/TShellSecurity.h</text>
</a>
</g>
</g>
<!-- Node1&#45;&gt;Node2 -->
<g id="edge1_Node000001_Node000002" class="edge">
<title>Node1&#45;&gt;Node2</title>
<g id="a_edge1_Node000001_Node000002"><a xlink:title=" ">
<path fill="none" stroke="#63b8ff" d="M337.62,-64.1C278.58,-52.82 185.42,-35.01 130.55,-24.52"/>
<polygon fill="#63b8ff" stroke="#63b8ff" points="337.03,-67.55 347.5,-65.99 338.34,-60.68 337.03,-67.55"/>
</a>
</g>
</g>
<!-- Node3 -->
<g id="Node000003" class="node">
<title>Node3</title>
<g id="a_Node000003"><a xlink:href="appmain_8h.html" target="_top" xlink:title="This file defines the hardware/platform independent start&#45;up interface(s) for the Ajax application.">
<polygon fill="white" stroke="#666666" points="310,-24.5 190,-24.5 190,-5.5 310,-5.5 310,-24.5"/>
<text text-anchor="middle" x="250" y="-12.5" font-family="Helvetica,sans-Serif" font-size="10.00">Ajax/Main/appmain.h</text>
</a>
</g>
</g>
<!-- Node1&#45;&gt;Node3 -->
<g id="edge2_Node000001_Node000003" class="edge">
<title>Node1&#45;&gt;Node3</title>
<g id="a_edge2_Node000001_Node000003"><a xlink:title=" ">
<path fill="none" stroke="#63b8ff" d="M361.86,-62.08C334.43,-50.78 294.66,-34.4 270.67,-24.52"/>
<polygon fill="#63b8ff" stroke="#63b8ff" points="360.77,-65.42 371.35,-65.99 363.44,-58.95 360.77,-65.42"/>
</a>
</g>
</g>
<!-- Node4 -->
<g id="Node000004" class="node">
<title>Node4</title>
<g id="a_Node000004"><a xlink:href="_provision_8h.html" target="_top" xlink:title=" ">
<polygon fill="white" stroke="#666666" points="456,-24.5 328,-24.5 328,-5.5 456,-5.5 456,-24.5"/>
<text text-anchor="middle" x="392" y="-12.5" font-family="Helvetica,sans-Serif" font-size="10.00">Ajax/TShell/Provision.h</text>
</a>
</g>
</g>
<!-- Node1&#45;&gt;Node4 -->
<g id="edge3_Node000001_Node000004" class="edge">
<title>Node1&#45;&gt;Node4</title>
<g id="a_edge3_Node000001_Node000004"><a xlink:title=" ">
<path fill="none" stroke="#63b8ff" d="M392,-55.66C392,-45.24 392,-32.8 392,-24.67"/>
<polygon fill="#63b8ff" stroke="#63b8ff" points="388.5,-55.87 392,-65.87 395.5,-55.87 388.5,-55.87"/>
</a>
</g>
</g>
<!-- Node5 -->
<g id="Node000005" class="node">
<title>Node5</title>
<g id="a_Node000005"><a xlink:href="_sha512_8h.html" target="_top" xlink:title=" ">
<polygon fill="white" stroke="#666666" points="579.5,-30 474.5,-30 474.5,0 579.5,0 579.5,-30"/>
<text text-anchor="start" x="482.5" y="-18" font-family="Helvetica,sans-Serif" font-size="10.00">Driver/Crypto/Orlp</text>
<text text-anchor="middle" x="527" y="-7" font-family="Helvetica,sans-Serif" font-size="10.00">/Sha512.h</text>
</a>
</g>
</g>
<!-- Node1&#45;&gt;Node5 -->
<g id="edge4_Node000001_Node000005" class="edge">
<title>Node1&#45;&gt;Node5</title>
<g id="a_edge4_Node000001_Node000005"><a xlink:title=" ">
<path fill="none" stroke="#63b8ff" d="M420.95,-61.95C442.57,-52.59 472.13,-39.78 494.54,-30.06"/>
<polygon fill="#63b8ff" stroke="#63b8ff" points="419.41,-58.81 411.63,-65.99 422.2,-65.23 419.41,-58.81"/>
</a>
</g>
</g>
<!-- Node6 -->
<g id="Node000006" class="node">
<title>Node6</title>
<g id="a_Node000006"><a xlink:href="_driver_2_crypto_2_password_hash_2_api_8h.html" target="_top" xlink:title=" ">
<polygon fill="white" stroke="#666666" points="752.5,-30 597.5,-30 597.5,0 752.5,0 752.5,-30"/>
<text text-anchor="start" x="605.5" y="-18" font-family="Helvetica,sans-Serif" font-size="10.00">Driver/Crypto/PasswordHash</text>
<text text-anchor="middle" x="675" y="-7" font-family="Helvetica,sans-Serif" font-size="10.00">/Api.h</text>
</a>
</g>
</g>
<!-- Node1&#45;&gt;Node6 -->
<g id="edge5_Node000001_Node000006" class="edge">
<title>Node1&#45;&gt;Node6</title>
<g id="a_edge5_Node000001_Node000006"><a xlink:title=" ">
<path fill="none" stroke="#63b8ff" d="M443.18,-63.92C489.1,-54.43 556.83,-40.43 607.24,-30.01"/>
<polygon fill="#63b8ff" stroke="#63b8ff" points="442.24,-60.54 433.15,-65.99 443.65,-67.4 442.24,-60.54"/>
</a>
</g>
</g>
</g>
</svg>
