<?xml version="1.0" encoding="UTF-8" standalone="no"?>
<!DOCTYPE svg PUBLIC "-//W3C//DTD SVG 1.1//EN"
 "http://www.w3.org/Graphics/SVG/1.1/DTD/svg11.dtd">
<!-- Generated by graphviz version 9.0.0 (20230911.1827)
 -->
<!-- Title: Cpl/Text/Frame/Encoder.h Pages: 1 -->
<svg width="542pt" height="315pt"
 viewBox="0.00 0.00 542.00 314.75" xmlns="http://www.w3.org/2000/svg" xmlns:xlink="http://www.w3.org/1999/xlink">
<g id="graph0" class="graph" transform="scale(1 1) rotate(0) translate(4 310.75)">
<title>Cpl/Text/Frame/Encoder.h</title>
<!-- Node1 -->
<g id="Node000001" class="node">
<title>Node1</title>
<g id="a_Node000001"><a xlink:title=" ">
<polygon fill="#999999" stroke="#666666" points="315.5,-306.75 187,-306.75 187,-287.5 315.5,-287.5 315.5,-306.75"/>
<text text-anchor="middle" x="251.25" y="-293.25" font-family="Helvetica,sans-Serif" font-size="10.00">Cpl/Text/Frame/Encoder.h</text>
</a>
</g>
</g>
<!-- Node2 -->
<g id="Node000002" class="node">
<title>Node2</title>
<g id="a_Node000002"><a xlink:href="_encoder___8h.html" target="_top" xlink:title=" ">
<polygon fill="white" stroke="#666666" points="318.12,-251.5 184.38,-251.5 184.38,-232.25 318.12,-232.25 318.12,-251.5"/>
<text text-anchor="middle" x="251.25" y="-238" font-family="Helvetica,sans-Serif" font-size="10.00">Cpl/Text/Frame/Encoder_.h</text>
</a>
</g>
</g>
<!-- Node1&#45;&gt;Node2 -->
<g id="edge1_Node000001_Node000002" class="edge">
<title>Node1&#45;&gt;Node2</title>
<g id="a_edge1_Node000001_Node000002"><a xlink:title=" ">
<path fill="none" stroke="#63b8ff" d="M251.25,-275.88C251.25,-267.59 251.25,-258.42 251.25,-251.86"/>
<polygon fill="#63b8ff" stroke="#63b8ff" points="247.75,-275.82 251.25,-285.82 254.75,-275.82 247.75,-275.82"/>
</a>
</g>
</g>
<!-- Node3 -->
<g id="Node000003" class="node">
<title>Node3</title>
<g id="a_Node000003"><a xlink:href="_encoding_2_base64_8h.html" target="_top" xlink:title=" ">
<polygon fill="white" stroke="#666666" points="153.38,-196.25 15.12,-196.25 15.12,-177 153.38,-177 153.38,-196.25"/>
<text text-anchor="middle" x="84.25" y="-182.75" font-family="Helvetica,sans-Serif" font-size="10.00">Cpl/Text/Encoding/Base64.h</text>
</a>
</g>
</g>
<!-- Node2&#45;&gt;Node3 -->
<g id="edge2_Node000002_Node000003" class="edge">
<title>Node2&#45;&gt;Node3</title>
<g id="a_edge2_Node000002_Node000003"><a xlink:title=" ">
<path fill="none" stroke="#63b8ff" d="M212.24,-228.44C181.77,-218.72 140.12,-205.44 112.72,-196.7"/>
<polygon fill="#63b8ff" stroke="#63b8ff" points="210.89,-231.68 221.48,-231.38 213.01,-225.01 210.89,-231.68"/>
</a>
</g>
</g>
<!-- Node4 -->
<g id="Node000004" class="node">
<title>Node4</title>
<g id="a_Node000004"><a xlink:href="_stream_encoder_8h.html" target="_top" xlink:title=" ">
<polygon fill="white" stroke="#666666" points="331.25,-196.25 171.25,-196.25 171.25,-177 331.25,-177 331.25,-196.25"/>
<text text-anchor="middle" x="251.25" y="-182.75" font-family="Helvetica,sans-Serif" font-size="10.00">Cpl/Text/Frame/StreamEncoder.h</text>
</a>
</g>
</g>
<!-- Node2&#45;&gt;Node4 -->
<g id="edge3_Node000002_Node000004" class="edge">
<title>Node2&#45;&gt;Node4</title>
<g id="a_edge3_Node000002_Node000004"><a xlink:title=" ">
<path fill="none" stroke="#63b8ff" d="M251.25,-220.63C251.25,-212.34 251.25,-203.17 251.25,-196.61"/>
<polygon fill="#63b8ff" stroke="#63b8ff" points="247.75,-220.57 251.25,-230.57 254.75,-220.57 247.75,-220.57"/>
</a>
</g>
</g>
<!-- Node13 -->
<g id="Node000013" class="node">
<title>Node13</title>
<g id="a_Node000013"><a xlink:href="_string_encoder_8h.html" target="_top" xlink:title=" ">
<polygon fill="white" stroke="#666666" points="503.25,-196.25 349.25,-196.25 349.25,-177 503.25,-177 503.25,-196.25"/>
<text text-anchor="middle" x="426.25" y="-182.75" font-family="Helvetica,sans-Serif" font-size="10.00">Cpl/Text/Frame/StringEncoder.h</text>
</a>
</g>
</g>
<!-- Node2&#45;&gt;Node13 -->
<g id="edge12_Node000002_Node000013" class="edge">
<title>Node2&#45;&gt;Node13</title>
<g id="a_edge12_Node000002_Node000013"><a xlink:title=" ">
<path fill="none" stroke="#63b8ff" d="M291.7,-228.57C323.68,-218.84 367.58,-205.48 396.42,-196.7"/>
<polygon fill="#63b8ff" stroke="#63b8ff" points="290.93,-225.14 282.38,-231.4 292.97,-231.84 290.93,-225.14"/>
</a>
</g>
</g>
<!-- Node5 -->
<g id="Node000005" class="node">
<title>Node5</title>
<g id="a_Node000005"><a xlink:href="_processor_8h.html" target="_top" xlink:title=" ">
<polygon fill="white" stroke="#666666" points="156.12,-141 40.38,-141 40.38,-121.75 156.12,-121.75 156.12,-141"/>
<text text-anchor="middle" x="98.25" y="-127.5" font-family="Helvetica,sans-Serif" font-size="10.00">Cpl/TShell/Processor.h</text>
</a>
</g>
</g>
<!-- Node4&#45;&gt;Node5 -->
<g id="edge4_Node000004_Node000005" class="edge">
<title>Node4&#45;&gt;Node5</title>
<g id="a_edge4_Node000004_Node000005"><a xlink:title=" ">
<path fill="none" stroke="#63b8ff" d="M214.78,-172.93C186.92,-163.24 149.21,-150.11 124.33,-141.45"/>
<polygon fill="#63b8ff" stroke="#63b8ff" points="213.27,-176.11 223.87,-176.09 215.57,-169.5 213.27,-176.11"/>
</a>
</g>
</g>
<!-- Node9 -->
<g id="Node000009" class="node">
<title>Node9</title>
<g id="a_Node000009"><a xlink:href="_block_encoder_8h.html" target="_top" xlink:title=" ">
<polygon fill="white" stroke="#666666" points="327.88,-141 174.62,-141 174.62,-121.75 327.88,-121.75 327.88,-141"/>
<text text-anchor="middle" x="251.25" y="-127.5" font-family="Helvetica,sans-Serif" font-size="10.00">Cpl/Text/Frame/BlockEncoder.h</text>
</a>
</g>
</g>
<!-- Node4&#45;&gt;Node9 -->
<g id="edge8_Node000004_Node000009" class="edge">
<title>Node4&#45;&gt;Node9</title>
<g id="a_edge8_Node000004_Node000009"><a xlink:title=" ">
<path fill="none" stroke="#63b8ff" d="M251.25,-165.38C251.25,-157.09 251.25,-147.92 251.25,-141.36"/>
<polygon fill="#63b8ff" stroke="#63b8ff" points="247.75,-165.32 251.25,-175.32 254.75,-165.32 247.75,-165.32"/>
</a>
</g>
</g>
<!-- Node10 -->
<g id="Node000010" class="node">
<title>Node10</title>
<g id="a_Node000010"><a xlink:href="_pipe_8h.html" target="_top" xlink:title=" ">
<polygon fill="white" stroke="#666666" points="446.25,-141 346.25,-141 346.25,-121.75 446.25,-121.75 446.25,-141"/>
<text text-anchor="middle" x="396.25" y="-127.5" font-family="Helvetica,sans-Serif" font-size="10.00">Driver/TPipe/Pipe.h</text>
</a>
</g>
</g>
<!-- Node4&#45;&gt;Node10 -->
<g id="edge9_Node000004_Node000010" class="edge">
<title>Node4&#45;&gt;Node10</title>
<g id="a_edge9_Node000004_Node000010"><a xlink:title=" ">
<path fill="none" stroke="#63b8ff" d="M286.52,-172.67C312.84,-163 348.16,-150.04 371.53,-141.45"/>
<polygon fill="#63b8ff" stroke="#63b8ff" points="285.45,-169.34 277.27,-176.07 287.86,-175.91 285.45,-169.34"/>
</a>
</g>
</g>
<!-- Node6 -->
<g id="Node000006" class="node">
<title>Node6</title>
<g id="a_Node000006"><a xlink:href="_cpl_2_t_shell_2_maker_8h.html" target="_top" xlink:title=" ">
<polygon fill="white" stroke="#666666" points="98.5,-80.12 0,-80.12 0,-60.88 98.5,-60.88 98.5,-80.12"/>
<text text-anchor="middle" x="49.25" y="-66.62" font-family="Helvetica,sans-Serif" font-size="10.00">Cpl/TShell/Maker.h</text>
</a>
</g>
</g>
<!-- Node5&#45;&gt;Node6 -->
<g id="edge5_Node000005_Node000006" class="edge">
<title>Node5&#45;&gt;Node6</title>
<g id="a_edge5_Node000005_Node000006"><a xlink:title=" ">
<path fill="none" stroke="#63b8ff" d="M83.44,-112.59C74.64,-102 63.84,-89.03 56.76,-80.53"/>
<polygon fill="#63b8ff" stroke="#63b8ff" points="80.75,-114.82 89.84,-120.27 86.13,-110.34 80.75,-114.82"/>
</a>
</g>
</g>
<!-- Node7 -->
<g id="Node000007" class="node">
<title>Node7</title>
<g id="a_Node000007"><a xlink:href="_polled_processor_8h.html" target="_top" xlink:title=" ">
<polygon fill="white" stroke="#666666" points="259.62,-80.12 116.88,-80.12 116.88,-60.88 259.62,-60.88 259.62,-80.12"/>
<text text-anchor="middle" x="188.25" y="-66.62" font-family="Helvetica,sans-Serif" font-size="10.00">Cpl/TShell/PolledProcessor.h</text>
</a>
</g>
</g>
<!-- Node5&#45;&gt;Node7 -->
<g id="edge6_Node000005_Node000007" class="edge">
<title>Node5&#45;&gt;Node7</title>
<g id="a_edge6_Node000005_Node000007"><a xlink:title=" ">
<path fill="none" stroke="#63b8ff" d="M121.09,-115.43C137.92,-104.42 160.26,-89.81 174.45,-80.53"/>
<polygon fill="#63b8ff" stroke="#63b8ff" points="119.64,-112.2 113.19,-120.6 123.47,-118.06 119.64,-112.2"/>
</a>
</g>
</g>
<!-- Node8 -->
<g id="Node000008" class="node">
<title>Node8</title>
<g id="a_Node000008"><a xlink:href="_polled_maker_8h.html" target="_top" xlink:title=" ">
<polygon fill="white" stroke="#666666" points="251,-19.25 125.5,-19.25 125.5,0 251,0 251,-19.25"/>
<text text-anchor="middle" x="188.25" y="-5.75" font-family="Helvetica,sans-Serif" font-size="10.00">Cpl/TShell/PolledMaker.h</text>
</a>
</g>
</g>
<!-- Node7&#45;&gt;Node8 -->
<g id="edge7_Node000007_Node000008" class="edge">
<title>Node7&#45;&gt;Node8</title>
<g id="a_edge7_Node000007_Node000008"><a xlink:title=" ">
<path fill="none" stroke="#63b8ff" d="M188.25,-49.07C188.25,-39.04 188.25,-27.46 188.25,-19.65"/>
<polygon fill="#63b8ff" stroke="#63b8ff" points="184.75,-49.04 188.25,-59.04 191.75,-49.04 184.75,-49.04"/>
</a>
</g>
</g>
<!-- Node11 -->
<g id="Node000011" class="node">
<title>Node11</title>
<g id="a_Node000011"><a xlink:href="_driver_2_pico_display_2_t_pipe_2_api_8h.html" target="_top" xlink:title="This file defines the interface for initializing the concrete implementation of the PicoDisplay drive...">
<polygon fill="white" stroke="#666666" points="408,-85.75 312.5,-85.75 312.5,-55.25 408,-55.25 408,-85.75"/>
<text text-anchor="start" x="320.5" y="-72.25" font-family="Helvetica,sans-Serif" font-size="10.00">Driver/PicoDisplay</text>
<text text-anchor="middle" x="360.25" y="-61" font-family="Helvetica,sans-Serif" font-size="10.00">/TPipe/Api.h</text>
</a>
</g>
</g>
<!-- Node10&#45;&gt;Node11 -->
<g id="edge10_Node000010_Node000011" class="edge">
<title>Node10&#45;&gt;Node11</title>
<g id="a_edge10_Node000010_Node000011"><a xlink:title=" ">
<path fill="none" stroke="#63b8ff" d="M384.92,-111.85C379.83,-103.52 373.9,-93.83 369.14,-86.03"/>
<polygon fill="#63b8ff" stroke="#63b8ff" points="381.79,-113.44 389.99,-120.14 387.76,-109.78 381.79,-113.44"/>
</a>
</g>
</g>
<!-- Node12 -->
<g id="Node000012" class="node">
<title>Node12</title>
<g id="a_Node000012"><a xlink:href="_driver_2_t_pipe_2_maker_8h.html" target="_top" xlink:title=" ">
<polygon fill="white" stroke="#666666" points="534,-80.12 426.5,-80.12 426.5,-60.88 534,-60.88 534,-80.12"/>
<text text-anchor="middle" x="480.25" y="-66.62" font-family="Helvetica,sans-Serif" font-size="10.00">Driver/TPipe/Maker.h</text>
</a>
</g>
</g>
<!-- Node10&#45;&gt;Node12 -->
<g id="edge11_Node000010_Node000012" class="edge">
<title>Node10&#45;&gt;Node12</title>
<g id="a_edge11_Node000010_Node000012"><a xlink:title=" ">
<path fill="none" stroke="#63b8ff" d="M418.01,-115.13C433.66,-104.15 454.25,-89.72 467.37,-80.53"/>
<polygon fill="#63b8ff" stroke="#63b8ff" points="416.43,-111.96 410.25,-120.56 420.44,-117.69 416.43,-111.96"/>
</a>
</g>
</g>
</g>
</svg>
