<?xml version="1.0" encoding="UTF-8" standalone="no"?>
<!DOCTYPE svg PUBLIC "-//W3C//DTD SVG 1.1//EN"
 "http://www.w3.org/Graphics/SVG/1.1/DTD/svg11.dtd">
<!-- Generated by graphviz version 9.0.0 (20230911.1827)
 -->
<!-- Title: Cpl/Logging/EntryData_T.h Pages: 1 -->
<svg width="366pt" height="138pt"
 viewBox="0.00 0.00 365.88 137.75" xmlns="http://www.w3.org/2000/svg" xmlns:xlink="http://www.w3.org/1999/xlink">
<g id="graph0" class="graph" transform="scale(1 1) rotate(0) translate(4 133.75)">
<title>Cpl/Logging/EntryData_T.h</title>
<!-- Node1 -->
<g id="Node000001" class="node">
<title>Node1</title>
<g id="a_Node000001"><a xlink:title=" ">
<polygon fill="#999999" stroke="#666666" points="251.88,-129.75 120.38,-129.75 120.38,-110.5 251.88,-110.5 251.88,-129.75"/>
<text text-anchor="middle" x="186.12" y="-116.25" font-family="Helvetica,sans-Serif" font-size="10.00">Cpl/Logging/EntryData_T.h</text>
</a>
</g>
</g>
<!-- Node2 -->
<g id="Node000002" class="node">
<title>Node2</title>
<g id="a_Node000002"><a xlink:href="_time_api_8h.html" target="_top" xlink:title=" ">
<polygon fill="white" stroke="#666666" points="114.25,-74.5 0,-74.5 0,-55.25 114.25,-55.25 114.25,-74.5"/>
<text text-anchor="middle" x="57.12" y="-61" font-family="Helvetica,sans-Serif" font-size="10.00">Cpl/Logging/TimeApi.h</text>
</a>
</g>
</g>
<!-- Node1&#45;&gt;Node2 -->
<g id="edge1_Node000001_Node000002" class="edge">
<title>Node1&#45;&gt;Node2</title>
<g id="a_edge1_Node000001_Node000002"><a xlink:title=" ">
<path fill="none" stroke="#63b8ff" d="M164.24,-110.09C143.76,-101.64 112.91,-88.9 89.57,-79.27"/>
<polygon fill="#63b8ff" stroke="#63b8ff" points="91.09,-76.11 80.51,-75.53 88.42,-82.58 91.09,-76.11"/>
</a>
</g>
</g>
<!-- Node4 -->
<g id="Node000004" class="node">
<title>Node4</title>
<g id="a_Node000004"><a xlink:title=" ">
<polygon fill="#e0e0e0" stroke="#999999" points="164.88,-19.25 117.38,-19.25 117.38,0 164.88,0 164.88,-19.25"/>
<text text-anchor="middle" x="141.12" y="-5.75" font-family="Helvetica,sans-Serif" font-size="10.00">stdint.h</text>
</a>
</g>
</g>
<!-- Node1&#45;&gt;Node4 -->
<g id="edge6_Node000001_Node000004" class="edge">
<title>Node1&#45;&gt;Node4</title>
<g id="a_edge6_Node000001_Node000004"><a xlink:title=" ">
<path fill="none" stroke="#63b8ff" d="M180.38,-110.18C174.9,-101.36 166.68,-87.38 161.12,-74.5 154.92,-60.11 149.7,-43.15 146.15,-30.32"/>
<polygon fill="#63b8ff" stroke="#63b8ff" points="149.62,-29.74 143.67,-20.97 142.85,-31.54 149.62,-29.74"/>
</a>
</g>
</g>
<!-- Node5 -->
<g id="Node000005" class="node">
<title>Node5</title>
<g id="a_Node000005"><a xlink:href="_payload_8h.html" target="_top" xlink:title=" ">
<polygon fill="white" stroke="#666666" points="292.38,-74.5 169.88,-74.5 169.88,-55.25 292.38,-55.25 292.38,-74.5"/>
<text text-anchor="middle" x="231.12" y="-61" font-family="Helvetica,sans-Serif" font-size="10.00">Cpl/Persistent/Payload.h</text>
</a>
</g>
</g>
<!-- Node1&#45;&gt;Node5 -->
<g id="edge4_Node000001_Node000005" class="edge">
<title>Node1&#45;&gt;Node5</title>
<g id="a_edge4_Node000001_Node000005"><a xlink:title=" ">
<path fill="none" stroke="#63b8ff" d="M193.56,-110.33C199.71,-103.05 208.64,-92.48 216.25,-83.48"/>
<polygon fill="#63b8ff" stroke="#63b8ff" points="218.77,-85.91 222.56,-76.02 213.43,-81.39 218.77,-85.91"/>
</a>
</g>
</g>
<!-- Node7 -->
<g id="Node000007" class="node">
<title>Node7</title>
<g id="a_Node000007"><a xlink:title=" ">
<polygon fill="#e0e0e0" stroke="#999999" points="357.88,-74.5 310.38,-74.5 310.38,-55.25 357.88,-55.25 357.88,-74.5"/>
<text text-anchor="middle" x="334.12" y="-61" font-family="Helvetica,sans-Serif" font-size="10.00">string.h</text>
</a>
</g>
</g>
<!-- Node1&#45;&gt;Node7 -->
<g id="edge7_Node000001_Node000007" class="edge">
<title>Node1&#45;&gt;Node7</title>
<g id="a_edge7_Node000001_Node000007"><a xlink:title=" ">
<path fill="none" stroke="#63b8ff" d="M211.23,-110.09C235.44,-101.38 272.29,-88.12 299.32,-78.4"/>
<polygon fill="#63b8ff" stroke="#63b8ff" points="300.23,-81.79 308.46,-75.11 297.86,-75.2 300.23,-81.79"/>
</a>
</g>
</g>
<!-- Node3 -->
<g id="Node000003" class="node">
<title>Node3</title>
<g id="a_Node000003"><a xlink:title=" ">
<polygon fill="#e0e0e0" stroke="#999999" points="98.12,-19.25 16.12,-19.25 16.12,0 98.12,0 98.12,-19.25"/>
<text text-anchor="middle" x="57.12" y="-5.75" font-family="Helvetica,sans-Serif" font-size="10.00">colony_config.h</text>
</a>
</g>
</g>
<!-- Node2&#45;&gt;Node3 -->
<g id="edge2_Node000002_Node000003" class="edge">
<title>Node2&#45;&gt;Node3</title>
<g id="a_edge2_Node000002_Node000003"><a xlink:title=" ">
<path fill="none" stroke="#63b8ff" d="M57.12,-55.08C57.12,-48.57 57.12,-39.42 57.12,-31.12"/>
<polygon fill="#63b8ff" stroke="#63b8ff" points="60.63,-31.12 57.13,-21.12 53.63,-31.12 60.63,-31.12"/>
</a>
</g>
</g>
<!-- Node2&#45;&gt;Node4 -->
<g id="edge3_Node000002_Node000004" class="edge">
<title>Node2&#45;&gt;Node4</title>
<g id="a_edge3_Node000002_Node000004"><a xlink:title=" ">
<path fill="none" stroke="#63b8ff" d="M71.37,-54.84C83.92,-46.89 102.46,-35.14 117.27,-25.75"/>
<polygon fill="#63b8ff" stroke="#63b8ff" points="118.96,-28.82 125.53,-20.51 115.21,-22.91 118.96,-28.82"/>
</a>
</g>
</g>
<!-- Node6 -->
<g id="Node000006" class="node">
<title>Node6</title>
<g id="a_Node000006"><a xlink:title=" ">
<polygon fill="#e0e0e0" stroke="#999999" points="254.5,-19.25 207.75,-19.25 207.75,0 254.5,0 254.5,-19.25"/>
<text text-anchor="middle" x="231.12" y="-5.75" font-family="Helvetica,sans-Serif" font-size="10.00">stdlib.h</text>
</a>
</g>
</g>
<!-- Node5&#45;&gt;Node6 -->
<g id="edge5_Node000005_Node000006" class="edge">
<title>Node5&#45;&gt;Node6</title>
<g id="a_edge5_Node000005_Node000006"><a xlink:title=" ">
<path fill="none" stroke="#63b8ff" d="M231.12,-55.08C231.12,-48.57 231.12,-39.42 231.12,-31.12"/>
<polygon fill="#63b8ff" stroke="#63b8ff" points="234.63,-31.12 231.13,-21.12 227.63,-31.12 234.63,-31.12"/>
</a>
</g>
</g>
</g>
</svg>
