<?xml version="1.0" encoding="UTF-8" standalone="no"?>
<!DOCTYPE svg PUBLIC "-//W3C//DTD SVG 1.1//EN"
 "http://www.w3.org/Graphics/SVG/1.1/DTD/svg11.dtd">
<!-- Generated by graphviz version 9.0.0 (20230911.1827)
 -->
<!-- Title: Cpl/Dm/Persistent/EraseRequest.h Pages: 1 -->
<svg width="446pt" height="193pt"
 viewBox="0.00 0.00 445.62 193.00" xmlns="http://www.w3.org/2000/svg" xmlns:xlink="http://www.w3.org/1999/xlink">
<g id="graph0" class="graph" transform="scale(1 1) rotate(0) translate(4 189)">
<title>Cpl/Dm/Persistent/EraseRequest.h</title>
<!-- Node1 -->
<g id="Node000001" class="node">
<title>Node1</title>
<g id="a_Node000001"><a xlink:title=" ">
<polygon fill="#999999" stroke="#666666" points="307.5,-185 140.75,-185 140.75,-165.75 307.5,-165.75 307.5,-185"/>
<text text-anchor="middle" x="224.12" y="-171.5" font-family="Helvetica,sans-Serif" font-size="10.00">Cpl/Dm/Persistent/EraseRequest.h</text>
</a>
</g>
</g>
<!-- Node2 -->
<g id="Node000002" class="node">
<title>Node2</title>
<g id="a_Node000002"><a xlink:href="_dm_2_persistent_2_record_8h.html" target="_top" xlink:title=" ">
<polygon fill="white" stroke="#666666" points="292.5,-129.75 155.75,-129.75 155.75,-110.5 292.5,-110.5 292.5,-129.75"/>
<text text-anchor="middle" x="224.12" y="-116.25" font-family="Helvetica,sans-Serif" font-size="10.00">Cpl/Dm/Persistent/Record.h</text>
</a>
</g>
</g>
<!-- Node1&#45;&gt;Node2 -->
<g id="edge1_Node000001_Node000002" class="edge">
<title>Node1&#45;&gt;Node2</title>
<g id="a_edge1_Node000001_Node000002"><a xlink:title=" ">
<path fill="none" stroke="#63b8ff" d="M224.12,-154.13C224.12,-145.84 224.12,-136.67 224.12,-130.11"/>
<polygon fill="#63b8ff" stroke="#63b8ff" points="220.63,-154.07 224.13,-164.07 227.63,-154.07 220.63,-154.07"/>
</a>
</g>
</g>
<!-- Node3 -->
<g id="Node000003" class="node">
<title>Node3</title>
<g id="a_Node000003"><a xlink:href="_metrics_record_8h.html" target="_top" xlink:title=" ">
<polygon fill="white" stroke="#666666" points="132.25,-74.5 0,-74.5 0,-55.25 132.25,-55.25 132.25,-74.5"/>
<text text-anchor="middle" x="66.12" y="-61" font-family="Helvetica,sans-Serif" font-size="10.00">Ajax/Main/MetricsRecord.h</text>
</a>
</g>
</g>
<!-- Node2&#45;&gt;Node3 -->
<g id="edge2_Node000002_Node000003" class="edge">
<title>Node2&#45;&gt;Node3</title>
<g id="a_edge2_Node000002_Node000003"><a xlink:title=" ">
<path fill="none" stroke="#63b8ff" d="M186.46,-106.43C157.7,-96.74 118.75,-83.61 93.06,-74.95"/>
<polygon fill="#63b8ff" stroke="#63b8ff" points="185.29,-109.73 195.89,-109.61 187.53,-103.1 185.29,-109.73"/>
</a>
</g>
</g>
<!-- Node5 -->
<g id="Node000005" class="node">
<title>Node5</title>
<g id="a_Node000005"><a xlink:href="_personality_record_8h.html" target="_top" xlink:title=" ">
<polygon fill="white" stroke="#666666" points="298.12,-74.5 150.12,-74.5 150.12,-55.25 298.12,-55.25 298.12,-74.5"/>
<text text-anchor="middle" x="224.12" y="-61" font-family="Helvetica,sans-Serif" font-size="10.00">Ajax/Main/PersonalityRecord.h</text>
</a>
</g>
</g>
<!-- Node2&#45;&gt;Node5 -->
<g id="edge4_Node000002_Node000005" class="edge">
<title>Node2&#45;&gt;Node5</title>
<g id="a_edge4_Node000002_Node000005"><a xlink:title=" ">
<path fill="none" stroke="#63b8ff" d="M224.12,-98.88C224.12,-90.59 224.12,-81.42 224.12,-74.86"/>
<polygon fill="#63b8ff" stroke="#63b8ff" points="220.63,-98.82 224.13,-108.82 227.63,-98.82 220.63,-98.82"/>
</a>
</g>
</g>
<!-- Node7 -->
<g id="Node000007" class="node">
<title>Node7</title>
<g id="a_Node000007"><a xlink:href="_user_record_8h.html" target="_top" xlink:title=" ">
<polygon fill="white" stroke="#666666" points="437.62,-74.5 316.62,-74.5 316.62,-55.25 437.62,-55.25 437.62,-74.5"/>
<text text-anchor="middle" x="377.12" y="-61" font-family="Helvetica,sans-Serif" font-size="10.00">Ajax/Main/UserRecord.h</text>
</a>
</g>
</g>
<!-- Node2&#45;&gt;Node7 -->
<g id="edge6_Node000002_Node000007" class="edge">
<title>Node2&#45;&gt;Node7</title>
<g id="a_edge6_Node000002_Node000007"><a xlink:title=" ">
<path fill="none" stroke="#63b8ff" d="M260.6,-106.43C288.45,-96.74 326.16,-83.61 351.04,-74.95"/>
<polygon fill="#63b8ff" stroke="#63b8ff" points="259.8,-103 251.51,-109.59 262.1,-109.61 259.8,-103"/>
</a>
</g>
</g>
<!-- Node4 -->
<g id="Node000004" class="node">
<title>Node4</title>
<g id="a_Node000004"><a xlink:href="_ajax_2_metrics_2_api_8h.html" target="_top" xlink:title=" ">
<polygon fill="white" stroke="#666666" points="113.5,-19.25 18.75,-19.25 18.75,0 113.5,0 113.5,-19.25"/>
<text text-anchor="middle" x="66.12" y="-5.75" font-family="Helvetica,sans-Serif" font-size="10.00">Ajax/Metrics/Api.h</text>
</a>
</g>
</g>
<!-- Node3&#45;&gt;Node4 -->
<g id="edge3_Node000003_Node000004" class="edge">
<title>Node3&#45;&gt;Node4</title>
<g id="a_edge3_Node000003_Node000004"><a xlink:title=" ">
<path fill="none" stroke="#63b8ff" d="M66.12,-43.63C66.12,-35.34 66.12,-26.17 66.12,-19.61"/>
<polygon fill="#63b8ff" stroke="#63b8ff" points="62.63,-43.57 66.13,-53.57 69.63,-43.57 62.63,-43.57"/>
</a>
</g>
</g>
<!-- Node6 -->
<g id="Node000006" class="node">
<title>Node6</title>
<g id="a_Node000006"><a xlink:href="_provision_8h.html" target="_top" xlink:title=" ">
<polygon fill="white" stroke="#666666" points="282.38,-19.25 165.88,-19.25 165.88,0 282.38,0 282.38,-19.25"/>
<text text-anchor="middle" x="224.12" y="-5.75" font-family="Helvetica,sans-Serif" font-size="10.00">Ajax/TShell/Provision.h</text>
</a>
</g>
</g>
<!-- Node5&#45;&gt;Node6 -->
<g id="edge5_Node000005_Node000006" class="edge">
<title>Node5&#45;&gt;Node6</title>
<g id="a_edge5_Node000005_Node000006"><a xlink:title=" ">
<path fill="none" stroke="#63b8ff" d="M224.12,-43.63C224.12,-35.34 224.12,-26.17 224.12,-19.61"/>
<polygon fill="#63b8ff" stroke="#63b8ff" points="220.63,-43.57 224.13,-53.57 227.63,-43.57 220.63,-43.57"/>
</a>
</g>
</g>
</g>
</svg>
