<?xml version="1.0" encoding="UTF-8" standalone="no"?>
<!DOCTYPE svg PUBLIC "-//W3C//DTD SVG 1.1//EN"
 "http://www.w3.org/Graphics/SVG/1.1/DTD/svg11.dtd">
<!-- Generated by graphviz version 9.0.0 (20230911.1827)
 -->
<!-- Title: Cpl/Text/FString_.h Pages: 1 -->
<svg width="380pt" height="304pt"
 viewBox="0.00 0.00 379.75 303.50" xmlns="http://www.w3.org/2000/svg" xmlns:xlink="http://www.w3.org/1999/xlink">
<g id="graph0" class="graph" transform="scale(1 1) rotate(0) translate(4 299.5)">
<title>Cpl/Text/FString_.h</title>
<!-- Node1 -->
<g id="Node000001" class="node">
<title>Node1</title>
<g id="a_Node000001"><a xlink:title=" ">
<polygon fill="#999999" stroke="#666666" points="121.62,-295.5 22.38,-295.5 22.38,-276.25 121.62,-276.25 121.62,-295.5"/>
<text text-anchor="middle" x="72" y="-282" font-family="Helvetica,sans-Serif" font-size="10.00">Cpl/Text/FString_.h</text>
</a>
</g>
</g>
<!-- Node2 -->
<g id="Node000002" class="node">
<title>Node2</title>
<g id="a_Node000002"><a xlink:title=" ">
<polygon fill="#e0e0e0" stroke="#999999" points="90,-19.25 8,-19.25 8,0 90,0 90,-19.25"/>
<text text-anchor="middle" x="49" y="-5.75" font-family="Helvetica,sans-Serif" font-size="10.00">colony_config.h</text>
</a>
</g>
</g>
<!-- Node1&#45;&gt;Node2 -->
<g id="edge1_Node000001_Node000002" class="edge">
<title>Node1&#45;&gt;Node2</title>
<g id="a_edge1_Node000001_Node000002"><a xlink:title=" ">
<path fill="none" stroke="#63b8ff" d="M60.43,-275.79C40.08,-258.7 0,-219.55 0,-176.38 0,-176.38 0,-176.38 0,-119.12 0,-84.82 20.59,-49.4 35.08,-28.72"/>
<polygon fill="#63b8ff" stroke="#63b8ff" points="37.79,-30.94 40.88,-20.8 32.15,-26.8 37.79,-30.94"/>
</a>
</g>
</g>
<!-- Node3 -->
<g id="Node000003" class="node">
<title>Node3</title>
<g id="a_Node000003"><a xlink:href="_string___8h.html" target="_top" xlink:title=" ">
<polygon fill="white" stroke="#666666" points="174.62,-240.25 81.38,-240.25 81.38,-221 174.62,-221 174.62,-240.25"/>
<text text-anchor="middle" x="128" y="-226.75" font-family="Helvetica,sans-Serif" font-size="10.00">Cpl/Text/String_.h</text>
</a>
</g>
</g>
<!-- Node1&#45;&gt;Node3 -->
<g id="edge2_Node000001_Node000003" class="edge">
<title>Node1&#45;&gt;Node3</title>
<g id="a_edge2_Node000001_Node000003"><a xlink:title=" ">
<path fill="none" stroke="#63b8ff" d="M81.5,-275.84C89.43,-268.3 100.95,-257.35 110.54,-248.23"/>
<polygon fill="#63b8ff" stroke="#63b8ff" points="112.71,-250.99 117.54,-241.57 107.89,-245.92 112.71,-250.99"/>
</a>
</g>
</g>
<!-- Node4 -->
<g id="Node000004" class="node">
<title>Node4</title>
<g id="a_Node000004"><a xlink:href="_text_2_string_8h.html" target="_top" xlink:title=" ">
<polygon fill="white" stroke="#666666" points="216,-185 128,-185 128,-165.75 216,-165.75 216,-185"/>
<text text-anchor="middle" x="172" y="-171.5" font-family="Helvetica,sans-Serif" font-size="10.00">Cpl/Text/String.h</text>
</a>
</g>
</g>
<!-- Node3&#45;&gt;Node4 -->
<g id="edge3_Node000003_Node000004" class="edge">
<title>Node3&#45;&gt;Node4</title>
<g id="a_edge3_Node000003_Node000004"><a xlink:title=" ">
<path fill="none" stroke="#63b8ff" d="M135.27,-220.83C141.28,-213.55 150.01,-202.98 157.46,-193.98"/>
<polygon fill="#63b8ff" stroke="#63b8ff" points="159.94,-196.46 163.61,-186.53 154.54,-192.01 159.94,-196.46"/>
</a>
</g>
</g>
<!-- Node5 -->
<g id="Node000005" class="node">
<title>Node5</title>
<g id="a_Node000005"><a xlink:title=" ">
<polygon fill="#e0e0e0" stroke="#999999" points="103.62,-74.5 28.38,-74.5 28.38,-55.25 103.62,-55.25 103.62,-74.5"/>
<text text-anchor="middle" x="66" y="-61" font-family="Helvetica,sans-Serif" font-size="10.00">colony_map.h</text>
</a>
</g>
</g>
<!-- Node4&#45;&gt;Node5 -->
<g id="edge4_Node000004_Node000005" class="edge">
<title>Node4&#45;&gt;Node5</title>
<g id="a_edge4_Node000004_Node000005"><a xlink:title=" ">
<path fill="none" stroke="#63b8ff" d="M157.7,-165.55C144.89,-157.25 126.03,-143.99 112,-129.75 98.38,-115.92 85.71,-97.77 77.14,-84.36"/>
<polygon fill="#63b8ff" stroke="#63b8ff" points="80.24,-82.72 71.99,-76.07 74.29,-86.41 80.24,-82.72"/>
</a>
</g>
</g>
<!-- Node6 -->
<g id="Node000006" class="node">
<title>Node6</title>
<g id="a_Node000006"><a xlink:href="_key_8h.html" target="_top" xlink:title=" ">
<polygon fill="white" stroke="#666666" points="222.75,-129.75 121.25,-129.75 121.25,-110.5 222.75,-110.5 222.75,-129.75"/>
<text text-anchor="middle" x="172" y="-116.25" font-family="Helvetica,sans-Serif" font-size="10.00">Cpl/Container/Key.h</text>
</a>
</g>
</g>
<!-- Node4&#45;&gt;Node6 -->
<g id="edge5_Node000004_Node000006" class="edge">
<title>Node4&#45;&gt;Node6</title>
<g id="a_edge5_Node000004_Node000006"><a xlink:title=" ">
<path fill="none" stroke="#63b8ff" d="M172,-165.58C172,-159.07 172,-149.92 172,-141.62"/>
<polygon fill="#63b8ff" stroke="#63b8ff" points="175.5,-141.62 172,-131.62 168.5,-141.62 175.5,-141.62"/>
</a>
</g>
</g>
<!-- Node11 -->
<g id="Node000011" class="node">
<title>Node11</title>
<g id="a_Node000011"><a xlink:title=" ">
<polygon fill="#e0e0e0" stroke="#999999" points="291.25,-129.75 240.75,-129.75 240.75,-110.5 291.25,-110.5 291.25,-129.75"/>
<text text-anchor="middle" x="266" y="-116.25" font-family="Helvetica,sans-Serif" font-size="10.00">stdarg.h</text>
</a>
</g>
</g>
<!-- Node4&#45;&gt;Node11 -->
<g id="edge12_Node000004_Node000011" class="edge">
<title>Node4&#45;&gt;Node11</title>
<g id="a_edge12_Node000004_Node000011"><a xlink:title=" ">
<path fill="none" stroke="#63b8ff" d="M187.95,-165.34C202.26,-157.23 223.53,-145.18 240.25,-135.71"/>
<polygon fill="#63b8ff" stroke="#63b8ff" points="241.68,-138.92 248.66,-130.95 238.23,-132.83 241.68,-138.92"/>
</a>
</g>
</g>
<!-- Node12 -->
<g id="Node000012" class="node">
<title>Node12</title>
<g id="a_Node000012"><a xlink:title=" ">
<polygon fill="#e0e0e0" stroke="#999999" points="362.75,-129.75 309.25,-129.75 309.25,-110.5 362.75,-110.5 362.75,-129.75"/>
<text text-anchor="middle" x="336" y="-116.25" font-family="Helvetica,sans-Serif" font-size="10.00">iostream</text>
</a>
</g>
</g>
<!-- Node4&#45;&gt;Node12 -->
<g id="edge13_Node000004_Node000012" class="edge">
<title>Node4&#45;&gt;Node12</title>
<g id="a_edge13_Node000004_Node000012"><a xlink:title=" ">
<path fill="none" stroke="#63b8ff" d="M199.82,-165.34C226.8,-156.58 267.96,-143.22 297.96,-133.48"/>
<polygon fill="#63b8ff" stroke="#63b8ff" points="298.99,-136.82 307.42,-130.4 296.83,-130.16 298.99,-136.82"/>
</a>
</g>
</g>
<!-- Node6&#45;&gt;Node5 -->
<g id="edge11_Node000006_Node000005" class="edge">
<title>Node6&#45;&gt;Node5</title>
<g id="a_edge11_Node000006_Node000005"><a xlink:title=" ">
<path fill="none" stroke="#63b8ff" d="M154.02,-110.09C137.65,-101.87 113.21,-89.59 94.24,-80.06"/>
<polygon fill="#63b8ff" stroke="#63b8ff" points="95.93,-76.99 85.42,-75.63 92.79,-83.25 95.93,-76.99"/>
</a>
</g>
</g>
<!-- Node7 -->
<g id="Node000007" class="node">
<title>Node7</title>
<g id="a_Node000007"><a xlink:href="_fatal_error_8h.html" target="_top" xlink:title=" ">
<polygon fill="white" stroke="#666666" points="240.38,-74.5 121.62,-74.5 121.62,-55.25 240.38,-55.25 240.38,-74.5"/>
<text text-anchor="middle" x="181" y="-61" font-family="Helvetica,sans-Serif" font-size="10.00">Cpl/System/FatalError.h</text>
</a>
</g>
</g>
<!-- Node6&#45;&gt;Node7 -->
<g id="edge6_Node000006_Node000007" class="edge">
<title>Node6&#45;&gt;Node7</title>
<g id="a_edge6_Node000006_Node000007"><a xlink:title=" ">
<path fill="none" stroke="#63b8ff" d="M173.49,-110.33C174.6,-103.74 176.17,-94.46 177.59,-86.07"/>
<polygon fill="#63b8ff" stroke="#63b8ff" points="181.01,-86.8 179.23,-76.35 174.11,-85.63 181.01,-86.8"/>
</a>
</g>
</g>
<!-- Node9 -->
<g id="Node000009" class="node">
<title>Node9</title>
<g id="a_Node000009"><a xlink:title=" ">
<polygon fill="#e0e0e0" stroke="#999999" points="305.75,-74.5 258.25,-74.5 258.25,-55.25 305.75,-55.25 305.75,-74.5"/>
<text text-anchor="middle" x="282" y="-61" font-family="Helvetica,sans-Serif" font-size="10.00">stdint.h</text>
</a>
</g>
</g>
<!-- Node6&#45;&gt;Node9 -->
<g id="edge9_Node000006_Node000009" class="edge">
<title>Node6&#45;&gt;Node9</title>
<g id="a_edge9_Node000006_Node000009"><a xlink:title=" ">
<path fill="none" stroke="#63b8ff" d="M190.66,-110.09C207.73,-101.83 233.24,-89.48 252.97,-79.93"/>
<polygon fill="#63b8ff" stroke="#63b8ff" points="254.41,-83.12 261.89,-75.61 251.36,-76.82 254.41,-83.12"/>
</a>
</g>
</g>
<!-- Node10 -->
<g id="Node000010" class="node">
<title>Node10</title>
<g id="a_Node000010"><a xlink:title=" ">
<polygon fill="#e0e0e0" stroke="#999999" points="371.75,-74.5 324.25,-74.5 324.25,-55.25 371.75,-55.25 371.75,-74.5"/>
<text text-anchor="middle" x="348" y="-61" font-family="Helvetica,sans-Serif" font-size="10.00">string.h</text>
</a>
</g>
</g>
<!-- Node6&#45;&gt;Node10 -->
<g id="edge10_Node000006_Node000010" class="edge">
<title>Node6&#45;&gt;Node10</title>
<g id="a_edge10_Node000006_Node000010"><a xlink:title=" ">
<path fill="none" stroke="#63b8ff" d="M201.86,-110.09C232.65,-100.78 280.63,-86.26 313.15,-76.42"/>
<polygon fill="#63b8ff" stroke="#63b8ff" points="313.94,-79.84 322.5,-73.59 311.91,-73.14 313.94,-79.84"/>
</a>
</g>
</g>
<!-- Node7&#45;&gt;Node2 -->
<g id="edge8_Node000007_Node000002" class="edge">
<title>Node7&#45;&gt;Node2</title>
<g id="a_edge8_Node000007_Node000002"><a xlink:title=" ">
<path fill="none" stroke="#63b8ff" d="M158.61,-54.84C137.56,-46.35 105.8,-33.54 81.88,-23.89"/>
<polygon fill="#63b8ff" stroke="#63b8ff" points="83.49,-20.76 72.91,-20.27 80.87,-27.26 83.49,-20.76"/>
</a>
</g>
</g>
<!-- Node8 -->
<g id="Node000008" class="node">
<title>Node8</title>
<g id="a_Node000008"><a xlink:title=" ">
<polygon fill="#e0e0e0" stroke="#999999" points="206.25,-19.25 155.75,-19.25 155.75,0 206.25,0 206.25,-19.25"/>
<text text-anchor="middle" x="181" y="-5.75" font-family="Helvetica,sans-Serif" font-size="10.00">stddef.h</text>
</a>
</g>
</g>
<!-- Node7&#45;&gt;Node8 -->
<g id="edge7_Node000007_Node000008" class="edge">
<title>Node7&#45;&gt;Node8</title>
<g id="a_edge7_Node000007_Node000008"><a xlink:title=" ">
<path fill="none" stroke="#63b8ff" d="M181,-55.08C181,-48.57 181,-39.42 181,-31.12"/>
<polygon fill="#63b8ff" stroke="#63b8ff" points="184.5,-31.12 181,-21.12 177.5,-31.12 184.5,-31.12"/>
</a>
</g>
</g>
</g>
</svg>
