<?xml version="1.0" encoding="UTF-8" standalone="no"?>
<!DOCTYPE svg PUBLIC "-//W3C//DTD SVG 1.1//EN"
 "http://www.w3.org/Graphics/SVG/1.1/DTD/svg11.dtd">
<!-- Generated by graphviz version 2.43.0 (0)
 -->
<!-- Title: Cpl/Text/FString_.h Pages: 1 -->
<svg width="3404pt" height="401pt"
 viewBox="0.00 0.00 3404.00 401.00" xmlns="http://www.w3.org/2000/svg" xmlns:xlink="http://www.w3.org/1999/xlink">
<g id="graph0" class="graph" transform="scale(1 1) rotate(0) translate(4 397)">
<title>Cpl/Text/FString_.h</title>
<!-- Node1 -->
<g id="Node000001" class="node">
<title>Node1</title>
<g id="a_Node000001"><a xlink:title=" ">
<polygon fill="#999999" stroke="#666666" points="573,-393 466,-393 466,-374 573,-374 573,-393"/>
<text text-anchor="middle" x="519.5" y="-381" font-family="Helvetica,sans-Serif" font-size="10.00">Cpl/Text/FString_.h</text>
</a>
</g>
</g>
<!-- Node2 -->
<g id="Node000002" class="node">
<title>Node2</title>
<g id="a_Node000002"><a xlink:href="_d_f_string_8h.html" target="_top" xlink:title=" ">
<polygon fill="white" stroke="#666666" points="513,-338 404,-338 404,-319 513,-319 513,-338"/>
<text text-anchor="middle" x="458.5" y="-326" font-family="Helvetica,sans-Serif" font-size="10.00">Cpl/Text/DFString.h</text>
</a>
</g>
</g>
<!-- Node1&#45;&gt;Node2 -->
<g id="edge1_Node000001_Node000002" class="edge">
<title>Node1&#45;&gt;Node2</title>
<g id="a_edge1_Node000001_Node000002"><a xlink:title=" ">
<path fill="none" stroke="#63b8ff" d="M502.03,-367.32C491.16,-357.87 477.56,-346.06 468.48,-338.17"/>
<polygon fill="#63b8ff" stroke="#63b8ff" points="499.85,-370.07 509.7,-373.98 504.45,-364.78 499.85,-370.07"/>
</a>
</g>
</g>
<!-- Node4 -->
<g id="Node000004" class="node">
<title>Node4</title>
<g id="a_Node000004"><a xlink:href="_f_string_8h.html" target="_top" xlink:title=" ">
<polygon fill="white" stroke="#666666" points="1024,-338 923,-338 923,-319 1024,-319 1024,-338"/>
<text text-anchor="middle" x="973.5" y="-326" font-family="Helvetica,sans-Serif" font-size="10.00">Cpl/Text/FString.h</text>
</a>
</g>
</g>
<!-- Node1&#45;&gt;Node4 -->
<g id="edge3_Node000001_Node000004" class="edge">
<title>Node1&#45;&gt;Node4</title>
<g id="a_edge3_Node000001_Node000004"><a xlink:title=" ">
<path fill="none" stroke="#63b8ff" d="M583.56,-375.02C674.64,-364.39 839.74,-345.11 922.84,-335.41"/>
<polygon fill="#63b8ff" stroke="#63b8ff" points="582.89,-371.58 573.36,-376.21 583.7,-378.53 582.89,-371.58"/>
</a>
</g>
</g>
<!-- Node3 -->
<g id="Node000003" class="node">
<title>Node3</title>
<g id="a_Node000003"><a xlink:href="_d_f_string_item_8h.html" target="_top" xlink:title=" ">
<polygon fill="white" stroke="#666666" points="131,-277.5 0,-277.5 0,-258.5 131,-258.5 131,-277.5"/>
<text text-anchor="middle" x="65.5" y="-265.5" font-family="Helvetica,sans-Serif" font-size="10.00">Cpl/Text/DFStringItem.h</text>
</a>
</g>
</g>
<!-- Node2&#45;&gt;Node3 -->
<g id="edge2_Node000002_Node000003" class="edge">
<title>Node2&#45;&gt;Node3</title>
<g id="a_edge2_Node000002_Node000003"><a xlink:title=" ">
<path fill="none" stroke="#63b8ff" d="M393.8,-319.32C329.46,-310.99 227.98,-297.28 140.5,-283 130.43,-281.36 119.64,-279.44 109.46,-277.55"/>
<polygon fill="#63b8ff" stroke="#63b8ff" points="393.44,-322.81 403.8,-320.62 394.33,-315.86 393.44,-322.81"/>
</a>
</g>
</g>
<!-- Node5 -->
<g id="Node000005" class="node">
<title>Node5</title>
<g id="a_Node000005"><a xlink:href="_numeric_8h.html" target="_top" xlink:title=" ">
<polygon fill="white" stroke="#666666" points="1899.5,-277.5 1775.5,-277.5 1775.5,-258.5 1899.5,-258.5 1899.5,-277.5"/>
<text text-anchor="middle" x="1837.5" y="-265.5" font-family="Helvetica,sans-Serif" font-size="10.00">Cpl/Dm/Mp/Numeric.h</text>
</a>
</g>
</g>
<!-- Node4&#45;&gt;Node5 -->
<g id="edge4_Node000004_Node000005" class="edge">
<title>Node4&#45;&gt;Node5</title>
<g id="a_edge4_Node000004_Node000005"><a xlink:title=" ">
<path fill="none" stroke="#63b8ff" d="M1034.02,-323.4C1191.98,-312.71 1615.54,-284.03 1775.33,-273.21"/>
<polygon fill="#63b8ff" stroke="#63b8ff" points="1033.74,-319.91 1024,-324.08 1034.22,-326.9 1033.74,-319.91"/>
</a>
</g>
</g>
<!-- Node44 -->
<g id="Node000044" class="node">
<title>Node44</title>
<g id="a_Node000044"><a xlink:href="_cpl_2_io_2_file_2_api_8h.html" target="_top" xlink:title=" ">
<polygon fill="white" stroke="#666666" points="3144.5,-277.5 3052.5,-277.5 3052.5,-258.5 3144.5,-258.5 3144.5,-277.5"/>
<text text-anchor="middle" x="3098.5" y="-265.5" font-family="Helvetica,sans-Serif" font-size="10.00">Cpl/Io/File/Api.h</text>
</a>
</g>
</g>
<!-- Node4&#45;&gt;Node44 -->
<g id="edge40_Node000004_Node000044" class="edge">
<title>Node4&#45;&gt;Node44</title>
<g id="a_edge40_Node000004_Node000044"><a xlink:title=" ">
<path fill="none" stroke="#63b8ff" d="M1034.44,-325.82C1348.09,-317.19 2776.26,-277.87 3052.25,-270.27"/>
<polygon fill="#63b8ff" stroke="#63b8ff" points="1034.09,-322.33 1024.19,-326.1 1034.28,-329.33 1034.09,-322.33"/>
</a>
</g>
</g>
<!-- Node49 -->
<g id="Node000049" class="node">
<title>Node49</title>
<g id="a_Node000049"><a xlink:href="_line_reader_8h.html" target="_top" xlink:title=" ">
<polygon fill="white" stroke="#666666" points="259.5,-277.5 149.5,-277.5 149.5,-258.5 259.5,-258.5 259.5,-277.5"/>
<text text-anchor="middle" x="204.5" y="-265.5" font-family="Helvetica,sans-Serif" font-size="10.00">Cpl/Io/LineReader.h</text>
</a>
</g>
</g>
<!-- Node4&#45;&gt;Node49 -->
<g id="edge45_Node000004_Node000049" class="edge">
<title>Node4&#45;&gt;Node49</title>
<g id="a_edge45_Node000004_Node000049"><a xlink:title=" ">
<path fill="none" stroke="#63b8ff" d="M912.5,-326.77C789.9,-324.62 505.12,-316.15 268.5,-283 258.81,-281.64 248.41,-279.62 238.87,-277.53"/>
<polygon fill="#63b8ff" stroke="#63b8ff" points="912.74,-330.27 922.8,-326.94 912.86,-323.28 912.74,-330.27"/>
</a>
</g>
</g>
<!-- Node50 -->
<g id="Node000050" class="node">
<title>Node50</title>
<g id="a_Node000050"><a xlink:href="_bare_metal_2_thread_8h.html" target="_top" xlink:title=" ">
<polygon fill="white" stroke="#666666" points="403,-283 278,-283 278,-253 403,-253 403,-283"/>
<text text-anchor="start" x="286" y="-271" font-family="Helvetica,sans-Serif" font-size="10.00">Cpl/System/BareMetal</text>
<text text-anchor="middle" x="340.5" y="-260" font-family="Helvetica,sans-Serif" font-size="10.00">/Thread.h</text>
</a>
</g>
</g>
<!-- Node4&#45;&gt;Node50 -->
<g id="edge46_Node000004_Node000050" class="edge">
<title>Node4&#45;&gt;Node50</title>
<g id="a_edge46_Node000004_Node000050"><a xlink:title=" ">
<path fill="none" stroke="#63b8ff" d="M912.38,-324.91C809.04,-320.04 593.36,-307.68 412.5,-283 409.47,-282.59 406.38,-282.13 403.26,-281.64"/>
<polygon fill="#63b8ff" stroke="#63b8ff" points="912.47,-328.42 922.63,-325.39 912.8,-321.43 912.47,-328.42"/>
</a>
</g>
</g>
<!-- Node51 -->
<g id="Node000051" class="node">
<title>Node51</title>
<g id="a_Node000051"><a xlink:href="_cpp11_2_thread_8h.html" target="_top" xlink:title=" ">
<polygon fill="white" stroke="#666666" points="573.5,-277.5 421.5,-277.5 421.5,-258.5 573.5,-258.5 573.5,-277.5"/>
<text text-anchor="middle" x="497.5" y="-265.5" font-family="Helvetica,sans-Serif" font-size="10.00">Cpl/System/Cpp11/Thread.h</text>
</a>
</g>
</g>
<!-- Node4&#45;&gt;Node51 -->
<g id="edge47_Node000004_Node000051" class="edge">
<title>Node4&#45;&gt;Node51</title>
<g id="a_edge47_Node000004_Node000051"><a xlink:title=" ">
<path fill="none" stroke="#63b8ff" d="M912.78,-321.54C835.81,-313.76 699.07,-299.22 582.5,-283 570.95,-281.39 558.54,-279.46 546.88,-277.56"/>
<polygon fill="#63b8ff" stroke="#63b8ff" points="912.48,-325.03 922.78,-322.54 913.18,-318.06 912.48,-325.03"/>
</a>
</g>
</g>
<!-- Node52 -->
<g id="Node000052" class="node">
<title>Node52</title>
<g id="a_Node000052"><a xlink:href="_free_r_t_o_s_2_thread_8h.html" target="_top" xlink:title=" ">
<polygon fill="white" stroke="#666666" points="713.5,-283 591.5,-283 591.5,-253 713.5,-253 713.5,-283"/>
<text text-anchor="start" x="599.5" y="-271" font-family="Helvetica,sans-Serif" font-size="10.00">Cpl/System/FreeRTOS</text>
<text text-anchor="middle" x="652.5" y="-260" font-family="Helvetica,sans-Serif" font-size="10.00">/Thread.h</text>
</a>
</g>
</g>
<!-- Node4&#45;&gt;Node52 -->
<g id="edge48_Node000004_Node000052" class="edge">
<title>Node4&#45;&gt;Node52</title>
<g id="a_edge48_Node000004_Node000052"><a xlink:title=" ">
<path fill="none" stroke="#63b8ff" d="M913.27,-317.2C862.38,-308.41 787.6,-295.28 722.5,-283 719.58,-282.45 716.59,-281.88 713.57,-281.3"/>
<polygon fill="#63b8ff" stroke="#63b8ff" points="912.99,-320.71 923.44,-318.96 914.18,-313.81 912.99,-320.71"/>
</a>
</g>
</g>
<!-- Node53 -->
<g id="Node000053" class="node">
<title>Node53</title>
<g id="a_Node000053"><a xlink:href="_posix_2_thread_8h.html" target="_top" xlink:title=" ">
<polygon fill="white" stroke="#666666" points="879,-277.5 732,-277.5 732,-258.5 879,-258.5 879,-277.5"/>
<text text-anchor="middle" x="805.5" y="-265.5" font-family="Helvetica,sans-Serif" font-size="10.00">Cpl/System/Posix/Thread.h</text>
</a>
</g>
</g>
<!-- Node4&#45;&gt;Node53 -->
<g id="edge49_Node000004_Node000053" class="edge">
<title>Node4&#45;&gt;Node53</title>
<g id="a_edge49_Node000004_Node000053"><a xlink:title=" ">
<path fill="none" stroke="#63b8ff" d="M939.53,-315.67C907.04,-304.36 858.84,-287.57 829.96,-277.52"/>
<polygon fill="#63b8ff" stroke="#63b8ff" points="938.48,-319.01 949.07,-318.99 940.78,-312.4 938.48,-319.01"/>
</a>
</g>
</g>
<!-- Node54 -->
<g id="Node000054" class="node">
<title>Node54</title>
<g id="a_Node000054"><a xlink:href="_win32_2_thread_8h.html" target="_top" xlink:title=" ">
<polygon fill="white" stroke="#666666" points="1049.5,-277.5 897.5,-277.5 897.5,-258.5 1049.5,-258.5 1049.5,-277.5"/>
<text text-anchor="middle" x="973.5" y="-265.5" font-family="Helvetica,sans-Serif" font-size="10.00">Cpl/System/Win32/Thread.h</text>
</a>
</g>
</g>
<!-- Node4&#45;&gt;Node54 -->
<g id="edge50_Node000004_Node000054" class="edge">
<title>Node4&#45;&gt;Node54</title>
<g id="a_edge50_Node000004_Node000054"><a xlink:title=" ">
<path fill="none" stroke="#63b8ff" d="M973.5,-308.66C973.5,-298.24 973.5,-285.8 973.5,-277.67"/>
<polygon fill="#63b8ff" stroke="#63b8ff" points="970,-308.87 973.5,-318.87 977,-308.87 970,-308.87"/>
</a>
</g>
</g>
<!-- Node55 -->
<g id="Node000055" class="node">
<title>Node55</title>
<g id="a_Node000055"><a xlink:href="_processor_8h.html" target="_top" xlink:title=" ">
<polygon fill="white" stroke="#666666" points="1191.5,-277.5 1067.5,-277.5 1067.5,-258.5 1191.5,-258.5 1191.5,-277.5"/>
<text text-anchor="middle" x="1129.5" y="-265.5" font-family="Helvetica,sans-Serif" font-size="10.00">Cpl/TShell/Processor.h</text>
</a>
</g>
</g>
<!-- Node4&#45;&gt;Node55 -->
<g id="edge51_Node000004_Node000055" class="edge">
<title>Node4&#45;&gt;Node55</title>
<g id="a_edge51_Node000004_Node000055"><a xlink:title=" ">
<path fill="none" stroke="#63b8ff" d="M1005.83,-315.38C1035.98,-304.07 1080.2,-287.49 1106.79,-277.52"/>
<polygon fill="#63b8ff" stroke="#63b8ff" points="1004.32,-312.21 996.18,-318.99 1006.78,-318.76 1004.32,-312.21"/>
</a>
</g>
</g>
<!-- Node59 -->
<g id="Node000059" class="node">
<title>Node59</title>
<g id="a_Node000059"><a xlink:href="_f_string_item_8h.html" target="_top" xlink:title=" ">
<polygon fill="white" stroke="#666666" points="1333.5,-277.5 1209.5,-277.5 1209.5,-258.5 1333.5,-258.5 1333.5,-277.5"/>
<text text-anchor="middle" x="1271.5" y="-265.5" font-family="Helvetica,sans-Serif" font-size="10.00">Cpl/Text/FStringItem.h</text>
</a>
</g>
</g>
<!-- Node4&#45;&gt;Node59 -->
<g id="edge54_Node000004_Node000059" class="edge">
<title>Node4&#45;&gt;Node59</title>
<g id="a_edge54_Node000004_Node000059"><a xlink:title=" ">
<path fill="none" stroke="#63b8ff" d="M1027.07,-317.02C1073.07,-308.01 1141.15,-294.67 1200.5,-283 1209.5,-281.23 1219.14,-279.33 1228.32,-277.52"/>
<polygon fill="#63b8ff" stroke="#63b8ff" points="1026.16,-313.63 1017.02,-318.98 1027.51,-320.5 1026.16,-313.63"/>
</a>
</g>
</g>
<!-- Node60 -->
<g id="Node000060" class="node">
<title>Node60</title>
<g id="a_Node000060"><a xlink:href="_guid_8h.html" target="_top" xlink:title=" ">
<polygon fill="white" stroke="#666666" points="1443.5,-277.5 1351.5,-277.5 1351.5,-258.5 1443.5,-258.5 1443.5,-277.5"/>
<text text-anchor="middle" x="1397.5" y="-265.5" font-family="Helvetica,sans-Serif" font-size="10.00">Cpl/Type/Guid.h</text>
</a>
</g>
</g>
<!-- Node4&#45;&gt;Node60 -->
<g id="edge55_Node000004_Node000060" class="edge">
<title>Node4&#45;&gt;Node60</title>
<g id="a_edge55_Node000004_Node000060"><a xlink:title=" ">
<path fill="none" stroke="#63b8ff" d="M1034.25,-322.6C1107.68,-316.12 1234.82,-303.11 1342.5,-283 1350.44,-281.52 1358.94,-279.55 1366.82,-277.56"/>
<polygon fill="#63b8ff" stroke="#63b8ff" points="1033.91,-319.12 1024.25,-323.47 1034.52,-326.09 1033.91,-319.12"/>
</a>
</g>
</g>
<!-- Node61 -->
<g id="Node000061" class="node">
<title>Node61</title>
<g id="a_Node000061"><a xlink:href="_t_pipe_2_red_green_blue_8h.html" target="_top" xlink:title=" ">
<polygon fill="white" stroke="#666666" points="1611,-283 1462,-283 1462,-253 1611,-253 1611,-283"/>
<text text-anchor="start" x="1470" y="-271" font-family="Helvetica,sans-Serif" font-size="10.00">Driver/LED/TPipe/RedGreen</text>
<text text-anchor="middle" x="1536.5" y="-260" font-family="Helvetica,sans-Serif" font-size="10.00">Blue.h</text>
</a>
</g>
</g>
<!-- Node4&#45;&gt;Node61 -->
<g id="edge56_Node000004_Node000061" class="edge">
<title>Node4&#45;&gt;Node61</title>
<g id="a_edge56_Node000004_Node000061"><a xlink:title=" ">
<path fill="none" stroke="#63b8ff" d="M1034.48,-323.26C1125.64,-316.6 1302.77,-302.41 1452.5,-283 1455.58,-282.6 1458.72,-282.17 1461.89,-281.72"/>
<polygon fill="#63b8ff" stroke="#63b8ff" points="1034.05,-319.78 1024.33,-324 1034.55,-326.76 1034.05,-319.78"/>
</a>
</g>
</g>
<!-- Node6 -->
<g id="Node000006" class="node">
<title>Node6</title>
<g id="a_Node000006"><a xlink:href="_mp_screen_api_ptr_8h.html" target="_top" xlink:title=" ">
<polygon fill="white" stroke="#666666" points="1834.5,-151 1674.5,-151 1674.5,-121 1834.5,-121 1834.5,-151"/>
<text text-anchor="start" x="1682.5" y="-139" font-family="Helvetica,sans-Serif" font-size="10.00">Ajax/ScreenMgr/MpScreenApi</text>
<text text-anchor="middle" x="1754.5" y="-128" font-family="Helvetica,sans-Serif" font-size="10.00">Ptr.h</text>
</a>
</g>
</g>
<!-- Node5&#45;&gt;Node6 -->
<g id="edge5_Node000005_Node000006" class="edge">
<title>Node5&#45;&gt;Node6</title>
<g id="a_edge5_Node000005_Node000006"><a xlink:title=" ">
<path fill="none" stroke="#63b8ff" d="M1826.46,-249.71C1809.86,-223.71 1778.78,-175.03 1763.48,-151.07"/>
<polygon fill="#63b8ff" stroke="#63b8ff" points="1823.72,-251.93 1832.05,-258.47 1829.62,-248.16 1823.72,-251.93"/>
</a>
</g>
</g>
<!-- Node12 -->
<g id="Node000012" class="node">
<title>Node12</title>
<g id="a_Node000012"><a xlink:href="_mp_static_screen_api_ptr_8h.html" target="_top" xlink:title=" ">
<polygon fill="white" stroke="#666666" points="2024.5,-151 1852.5,-151 1852.5,-121 2024.5,-121 2024.5,-151"/>
<text text-anchor="start" x="1860.5" y="-139" font-family="Helvetica,sans-Serif" font-size="10.00">Ajax/ScreenMgr/MpStaticScreen</text>
<text text-anchor="middle" x="1938.5" y="-128" font-family="Helvetica,sans-Serif" font-size="10.00">ApiPtr.h</text>
</a>
</g>
</g>
<!-- Node5&#45;&gt;Node12 -->
<g id="edge8_Node000005_Node000012" class="edge">
<title>Node5&#45;&gt;Node12</title>
<g id="a_edge8_Node000005_Node000012"><a xlink:title=" ">
<path fill="none" stroke="#63b8ff" d="M1850.4,-250.4C1870.46,-224.57 1908.79,-175.25 1927.57,-151.07"/>
<polygon fill="#63b8ff" stroke="#63b8ff" points="1847.5,-248.43 1844.13,-258.47 1853.03,-252.72 1847.5,-248.43"/>
</a>
</g>
</g>
<!-- Node13 -->
<g id="Node000013" class="node">
<title>Node13</title>
<g id="a_Node000013"><a xlink:href="_bit_array16_8h.html" target="_top" xlink:title=" ">
<polygon fill="white" stroke="#666666" points="2500.5,-211.5 2366.5,-211.5 2366.5,-192.5 2500.5,-192.5 2500.5,-211.5"/>
<text text-anchor="middle" x="2433.5" y="-199.5" font-family="Helvetica,sans-Serif" font-size="10.00">Cpl/Dm/Mp/BitArray16.h</text>
</a>
</g>
</g>
<!-- Node5&#45;&gt;Node13 -->
<g id="edge10_Node000005_Node000013" class="edge">
<title>Node5&#45;&gt;Node13</title>
<g id="a_edge10_Node000005_Node000013"><a xlink:title=" ">
<path fill="none" stroke="#63b8ff" d="M1909.79,-262.03C2010.45,-254.66 2198.37,-239.26 2357.5,-217 2368.26,-215.49 2379.82,-213.54 2390.6,-211.57"/>
<polygon fill="#63b8ff" stroke="#63b8ff" points="1909.46,-258.54 1899.74,-262.76 1909.97,-265.53 1909.46,-258.54"/>
</a>
</g>
</g>
<!-- Node14 -->
<g id="Node000014" class="node">
<title>Node14</title>
<g id="a_Node000014"><a xlink:href="_bit_array32_8h.html" target="_top" xlink:title=" ">
<polygon fill="white" stroke="#666666" points="2652.5,-211.5 2518.5,-211.5 2518.5,-192.5 2652.5,-192.5 2652.5,-211.5"/>
<text text-anchor="middle" x="2585.5" y="-199.5" font-family="Helvetica,sans-Serif" font-size="10.00">Cpl/Dm/Mp/BitArray32.h</text>
</a>
</g>
</g>
<!-- Node5&#45;&gt;Node14 -->
<g id="edge11_Node000005_Node000014" class="edge">
<title>Node5&#45;&gt;Node14</title>
<g id="a_edge11_Node000005_Node000014"><a xlink:title=" ">
<path fill="none" stroke="#63b8ff" d="M1909.88,-264.18C2033.32,-258.79 2292.25,-245.01 2509.5,-217 2520.68,-215.56 2532.7,-213.56 2543.81,-211.52"/>
<polygon fill="#63b8ff" stroke="#63b8ff" points="1909.64,-260.69 1899.8,-264.61 1909.94,-267.68 1909.64,-260.69"/>
</a>
</g>
</g>
<!-- Node15 -->
<g id="Node000015" class="node">
<title>Node15</title>
<g id="a_Node000015"><a xlink:href="_double_8h.html" target="_top" xlink:title=" ">
<polygon fill="white" stroke="#666666" points="2111,-211.5 1994,-211.5 1994,-192.5 2111,-192.5 2111,-211.5"/>
<text text-anchor="middle" x="2052.5" y="-199.5" font-family="Helvetica,sans-Serif" font-size="10.00">Cpl/Dm/Mp/Double.h</text>
</a>
</g>
</g>
<!-- Node5&#45;&gt;Node15 -->
<g id="edge12_Node000005_Node000015" class="edge">
<title>Node5&#45;&gt;Node15</title>
<g id="a_edge12_Node000005_Node000015"><a xlink:title=" ">
<path fill="none" stroke="#63b8ff" d="M1876.19,-255.48C1918.58,-242.87 1985.59,-222.92 2023.62,-211.6"/>
<polygon fill="#63b8ff" stroke="#63b8ff" points="1875.08,-252.16 1866.5,-258.37 1877.08,-258.87 1875.08,-252.16"/>
</a>
</g>
</g>
<!-- Node18 -->
<g id="Node000018" class="node">
<title>Node18</title>
<g id="a_Node000018"><a xlink:href="_float_8h.html" target="_top" xlink:title=" ">
<polygon fill="white" stroke="#666666" points="2899,-211.5 2792,-211.5 2792,-192.5 2899,-192.5 2899,-211.5"/>
<text text-anchor="middle" x="2845.5" y="-199.5" font-family="Helvetica,sans-Serif" font-size="10.00">Cpl/Dm/Mp/Float.h</text>
</a>
</g>
</g>
<!-- Node5&#45;&gt;Node18 -->
<g id="edge15_Node000005_Node000018" class="edge">
<title>Node5&#45;&gt;Node18</title>
<g id="a_edge15_Node000005_Node000018"><a xlink:title=" ">
<path fill="none" stroke="#63b8ff" d="M1909.53,-263C2052.79,-254.97 2383.63,-236 2661.5,-217 2705.45,-213.99 2755.27,-210.18 2791.97,-207.29"/>
<polygon fill="#63b8ff" stroke="#63b8ff" points="1909.33,-259.51 1899.54,-263.56 1909.72,-266.5 1909.33,-259.51"/>
</a>
</g>
</g>
<!-- Node21 -->
<g id="Node000021" class="node">
<title>Node21</title>
<g id="a_Node000021"><a xlink:href="_int32_8h.html" target="_top" xlink:title=" ">
<polygon fill="white" stroke="#666666" points="2348,-211.5 2241,-211.5 2241,-192.5 2348,-192.5 2348,-211.5"/>
<text text-anchor="middle" x="2294.5" y="-199.5" font-family="Helvetica,sans-Serif" font-size="10.00">Cpl/Dm/Mp/Int32.h</text>
</a>
</g>
</g>
<!-- Node5&#45;&gt;Node21 -->
<g id="edge18_Node000005_Node000021" class="edge">
<title>Node5&#45;&gt;Node21</title>
<g id="a_edge18_Node000005_Node000021"><a xlink:title=" ">
<path fill="none" stroke="#63b8ff" d="M1908.71,-257.03C2000.59,-244.16 2158.39,-222.06 2240.81,-210.52"/>
<polygon fill="#63b8ff" stroke="#63b8ff" points="1908.08,-253.58 1898.66,-258.44 1909.05,-260.51 1908.08,-253.58"/>
</a>
</g>
</g>
<!-- Node29 -->
<g id="Node000029" class="node">
<title>Node29</title>
<g id="a_Node000029"><a xlink:href="_int64_8h.html" target="_top" xlink:title=" ">
<polygon fill="white" stroke="#666666" points="1261,-211.5 1154,-211.5 1154,-192.5 1261,-192.5 1261,-211.5"/>
<text text-anchor="middle" x="1207.5" y="-199.5" font-family="Helvetica,sans-Serif" font-size="10.00">Cpl/Dm/Mp/Int64.h</text>
</a>
</g>
</g>
<!-- Node5&#45;&gt;Node29 -->
<g id="edge27_Node000005_Node000029" class="edge">
<title>Node5&#45;&gt;Node29</title>
<g id="a_edge27_Node000005_Node000029"><a xlink:title=" ">
<path fill="none" stroke="#63b8ff" d="M1765.09,-261.8C1634.39,-252.22 1363.92,-231.44 1270.5,-217 1261.2,-215.56 1251.22,-213.56 1242.01,-211.52"/>
<polygon fill="#63b8ff" stroke="#63b8ff" points="1765.17,-265.32 1775.4,-262.56 1765.68,-258.34 1765.17,-265.32"/>
</a>
</g>
</g>
<!-- Node30 -->
<g id="Node000030" class="node">
<title>Node30</title>
<g id="a_Node000030"><a xlink:href="_uint32_8h.html" target="_top" xlink:title=" ">
<polygon fill="white" stroke="#666666" points="1650,-211.5 1535,-211.5 1535,-192.5 1650,-192.5 1650,-211.5"/>
<text text-anchor="middle" x="1592.5" y="-199.5" font-family="Helvetica,sans-Serif" font-size="10.00">Cpl/Dm/Mp/Uint32.h</text>
</a>
</g>
</g>
<!-- Node5&#45;&gt;Node30 -->
<g id="edge28_Node000005_Node000030" class="edge">
<title>Node5&#45;&gt;Node30</title>
<g id="a_edge28_Node000005_Node000030"><a xlink:title=" ">
<path fill="none" stroke="#63b8ff" d="M1794.87,-255.86C1746.54,-243.24 1668.82,-222.94 1625.09,-211.51"/>
<polygon fill="#63b8ff" stroke="#63b8ff" points="1794.15,-259.29 1804.71,-258.44 1795.92,-252.52 1794.15,-259.29"/>
</a>
</g>
</g>
<!-- Node41 -->
<g id="Node000041" class="node">
<title>Node41</title>
<g id="a_Node000041"><a xlink:href="_uint64_8h.html" target="_top" xlink:title=" ">
<polygon fill="white" stroke="#666666" points="1394,-211.5 1279,-211.5 1279,-192.5 1394,-192.5 1394,-211.5"/>
<text text-anchor="middle" x="1336.5" y="-199.5" font-family="Helvetica,sans-Serif" font-size="10.00">Cpl/Dm/Mp/Uint64.h</text>
</a>
</g>
</g>
<!-- Node5&#45;&gt;Node41 -->
<g id="edge37_Node000005_Node000041" class="edge">
<title>Node5&#45;&gt;Node41</title>
<g id="a_edge37_Node000005_Node000041"><a xlink:title=" ">
<path fill="none" stroke="#63b8ff" d="M1765.23,-260.71C1678.86,-252.72 1530.13,-237.48 1403.5,-217 1394,-215.46 1383.8,-213.5 1374.3,-211.53"/>
<polygon fill="#63b8ff" stroke="#63b8ff" points="1765.17,-264.22 1775.45,-261.65 1765.81,-257.25 1765.17,-264.22"/>
</a>
</g>
</g>
<!-- Node43 -->
<g id="Node000043" class="node">
<title>Node43</title>
<g id="a_Node000043"><a xlink:href="_void_8h.html" target="_top" xlink:title=" ">
<polygon fill="white" stroke="#666666" points="1516.5,-211.5 1412.5,-211.5 1412.5,-192.5 1516.5,-192.5 1516.5,-211.5"/>
<text text-anchor="middle" x="1464.5" y="-199.5" font-family="Helvetica,sans-Serif" font-size="10.00">Cpl/Dm/Mp/Void.h</text>
</a>
</g>
</g>
<!-- Node5&#45;&gt;Node43 -->
<g id="edge39_Node000005_Node000043" class="edge">
<title>Node5&#45;&gt;Node43</title>
<g id="a_edge39_Node000005_Node000043"><a xlink:title=" ">
<path fill="none" stroke="#63b8ff" d="M1767.15,-256.98C1703.97,-247.67 1608.77,-232.89 1526.5,-217 1518.05,-215.37 1508.99,-213.43 1500.48,-211.53"/>
<polygon fill="#63b8ff" stroke="#63b8ff" points="1766.99,-260.49 1777.39,-258.48 1768.01,-253.56 1766.99,-260.49"/>
</a>
</g>
</g>
<!-- Node7 -->
<g id="Node000007" class="node">
<title>Node7</title>
<g id="a_Node000007"><a xlink:href="_ajax_2_screen_mgr_2_api_8h.html" target="_top" xlink:title=" ">
<polygon fill="#fff0f0" stroke="red" points="1819,-79.5 1698,-79.5 1698,-60.5 1819,-60.5 1819,-79.5"/>
<text text-anchor="middle" x="1758.5" y="-67.5" font-family="Helvetica,sans-Serif" font-size="10.00">Ajax/ScreenMgr/Api.h</text>
</a>
</g>
</g>
<!-- Node6&#45;&gt;Node7 -->
<g id="edge6_Node000006_Node000007" class="edge">
<title>Node6&#45;&gt;Node7</title>
<g id="a_edge6_Node000006_Node000007"><a xlink:title=" ">
<path fill="none" stroke="#63b8ff" d="M1756.02,-110.6C1756.7,-99.8 1757.45,-87.78 1757.95,-79.84"/>
<polygon fill="#63b8ff" stroke="#63b8ff" points="1752.52,-110.6 1755.39,-120.8 1759.5,-111.03 1752.52,-110.6"/>
</a>
</g>
</g>
<!-- Node11 -->
<g id="Node000011" class="node">
<title>Node11</title>
<g id="a_Node000011"><a xlink:href="_ajax_2_ui_2_home_2_screen_8h.html" target="_top" xlink:title=" ">
<polygon fill="#fff0f0" stroke="red" points="2379,-19 2250,-19 2250,0 2379,0 2379,-19"/>
<text text-anchor="middle" x="2314.5" y="-7" font-family="Helvetica,sans-Serif" font-size="10.00">Ajax/Ui/Home/Screen.h</text>
</a>
</g>
</g>
<!-- Node7&#45;&gt;Node11 -->
<g id="edge7_Node000007_Node000011" class="edge">
<title>Node7&#45;&gt;Node11</title>
<g id="a_edge7_Node000007_Node000011"><a xlink:title=" ">
<path fill="none" stroke="#63b8ff" d="M1829.27,-61.55C1938.04,-50.11 2144.71,-28.37 2249.74,-17.31"/>
<polygon fill="#63b8ff" stroke="#63b8ff" points="1828.64,-58.1 1819.06,-62.63 1829.37,-65.06 1828.64,-58.1"/>
</a>
</g>
</g>
<!-- Node12&#45;&gt;Node7 -->
<g id="edge9_Node000012_Node000007" class="edge">
<title>Node12&#45;&gt;Node7</title>
<g id="a_edge9_Node000012_Node000007"><a xlink:title=" ">
<path fill="none" stroke="#63b8ff" d="M1889.5,-117.58C1854.76,-105.23 1809.66,-89.19 1782.45,-79.52"/>
<polygon fill="#63b8ff" stroke="#63b8ff" points="1888.4,-120.9 1899,-120.95 1890.75,-114.31 1888.4,-120.9"/>
</a>
</g>
</g>
<!-- Node16 -->
<g id="Node000016" class="node">
<title>Node16</title>
<g id="a_Node000016"><a xlink:href="_ajax_2_heating_2_simulated_2_cmd_8h.html" target="_top" xlink:title=" ">
<polygon fill="white" stroke="#666666" points="2212.5,-151 2080.5,-151 2080.5,-121 2212.5,-121 2212.5,-151"/>
<text text-anchor="start" x="2088.5" y="-139" font-family="Helvetica,sans-Serif" font-size="10.00">Ajax/Heating/Simulated</text>
<text text-anchor="middle" x="2146.5" y="-128" font-family="Helvetica,sans-Serif" font-size="10.00">/Cmd.h</text>
</a>
</g>
</g>
<!-- Node15&#45;&gt;Node16 -->
<g id="edge13_Node000015_Node000016" class="edge">
<title>Node15&#45;&gt;Node16</title>
<g id="a_edge13_Node000015_Node000016"><a xlink:title=" ">
<path fill="none" stroke="#63b8ff" d="M2073.63,-186.62C2089.2,-176.01 2110.29,-161.66 2125.77,-151.12"/>
<polygon fill="#63b8ff" stroke="#63b8ff" points="2071.47,-183.85 2065.18,-192.37 2075.41,-189.63 2071.47,-183.85"/>
</a>
</g>
</g>
<!-- Node17 -->
<g id="Node000017" class="node">
<title>Node17</title>
<g id="a_Node000017"><a xlink:href="_heating_2_simulated_2_house_8h_source.html" target="_top" xlink:title=" ">
<polygon fill="white" stroke="#666666" points="2477.5,-85 2345.5,-85 2345.5,-55 2477.5,-55 2477.5,-85"/>
<text text-anchor="start" x="2353.5" y="-73" font-family="Helvetica,sans-Serif" font-size="10.00">Ajax/Heating/Simulated</text>
<text text-anchor="middle" x="2411.5" y="-62" font-family="Helvetica,sans-Serif" font-size="10.00">/House.h</text>
</a>
</g>
</g>
<!-- Node15&#45;&gt;Node17 -->
<g id="edge14_Node000015_Node000017" class="edge">
<title>Node15&#45;&gt;Node17</title>
<g id="a_edge14_Node000015_Node000017"><a xlink:title=" ">
<path fill="none" stroke="#63b8ff" d="M2051.39,-182.4C2051.38,-164.01 2054.54,-136.44 2071.5,-121 2114.15,-82.18 2271.51,-93.8 2328.5,-85 2333.99,-84.15 2339.68,-83.25 2345.38,-82.32"/>
<polygon fill="#63b8ff" stroke="#63b8ff" points="2047.89,-182.59 2051.7,-192.48 2054.89,-182.37 2047.89,-182.59"/>
</a>
</g>
</g>
<!-- Node19 -->
<g id="Node000019" class="node">
<title>Node19</title>
<g id="a_Node000019"><a xlink:href="_cpl_2_m_app_2_temperature_2_api_8h.html" target="_top" xlink:title=" ">
<polygon fill="white" stroke="#666666" points="3184.5,-151 3056.5,-151 3056.5,-121 3184.5,-121 3184.5,-151"/>
<text text-anchor="start" x="3064.5" y="-139" font-family="Helvetica,sans-Serif" font-size="10.00">Cpl/MApp/Temperature</text>
<text text-anchor="middle" x="3120.5" y="-128" font-family="Helvetica,sans-Serif" font-size="10.00">/Api.h</text>
</a>
</g>
</g>
<!-- Node18&#45;&gt;Node19 -->
<g id="edge16_Node000018_Node000019" class="edge">
<title>Node18&#45;&gt;Node19</title>
<g id="a_edge16_Node000018_Node000019"><a xlink:title=" ">
<path fill="none" stroke="#63b8ff" d="M2892.08,-190.16C2938.39,-179.38 3009.64,-162.8 3060.24,-151.02"/>
<polygon fill="#63b8ff" stroke="#63b8ff" points="2891.25,-186.76 2882.3,-192.44 2892.84,-193.58 2891.25,-186.76"/>
</a>
</g>
</g>
<!-- Node20 -->
<g id="Node000020" class="node">
<title>Node20</title>
<g id="a_Node000020"><a xlink:href="_driver_2_r_h_temp_2_simulated_2_api_8h.html" target="_top" xlink:title=" ">
<polygon fill="white" stroke="#666666" points="3038,-151 2895,-151 2895,-121 3038,-121 3038,-151"/>
<text text-anchor="start" x="2903" y="-139" font-family="Helvetica,sans-Serif" font-size="10.00">Driver/RHTemp/Simulated</text>
<text text-anchor="middle" x="2966.5" y="-128" font-family="Helvetica,sans-Serif" font-size="10.00">/Api.h</text>
</a>
</g>
</g>
<!-- Node18&#45;&gt;Node20 -->
<g id="edge17_Node000018_Node000020" class="edge">
<title>Node18&#45;&gt;Node20</title>
<g id="a_edge17_Node000018_Node000020"><a xlink:title=" ">
<path fill="none" stroke="#63b8ff" d="M2870.75,-187.64C2890.96,-176.95 2919.23,-162 2939.81,-151.12"/>
<polygon fill="#63b8ff" stroke="#63b8ff" points="2869.02,-184.6 2861.82,-192.37 2872.29,-190.79 2869.02,-184.6"/>
</a>
</g>
</g>
<!-- Node21&#45;&gt;Node11 -->
<g id="edge23_Node000021_Node000011" class="edge">
<title>Node21&#45;&gt;Node11</title>
<g id="a_edge23_Node000021_Node000011"><a xlink:title=" ">
<path fill="none" stroke="#63b8ff" d="M2338.48,-190.37C2344.84,-189.09 2351.32,-187.91 2357.5,-187 2411.51,-179.06 2810.34,-190.99 2847.5,-151 2914.03,-79.41 2535.11,-32.62 2379.19,-16.63"/>
<polygon fill="#63b8ff" stroke="#63b8ff" points="2337.72,-186.96 2328.66,-192.46 2339.17,-193.8 2337.72,-186.96"/>
</a>
</g>
</g>
<!-- Node21&#45;&gt;Node16 -->
<g id="edge19_Node000021_Node000016" class="edge">
<title>Node21&#45;&gt;Node16</title>
<g id="a_edge19_Node000021_Node000016"><a xlink:title=" ">
<path fill="none" stroke="#63b8ff" d="M2265.28,-188.36C2240.46,-177.63 2204.88,-162.25 2179.14,-151.12"/>
<polygon fill="#63b8ff" stroke="#63b8ff" points="2263.97,-191.61 2274.54,-192.37 2266.75,-185.19 2263.97,-191.61"/>
</a>
</g>
</g>
<!-- Node22 -->
<g id="Node000022" class="node">
<title>Node22</title>
<g id="a_Node000022"><a xlink:href="_ajax_2_heating_2_supervisor_2_api_8h.html" target="_top" xlink:title=" ">
<polygon fill="white" stroke="#666666" points="2838.5,-151 2704.5,-151 2704.5,-121 2838.5,-121 2838.5,-151"/>
<text text-anchor="start" x="2712.5" y="-139" font-family="Helvetica,sans-Serif" font-size="10.00">Ajax/Heating/Supervisor</text>
<text text-anchor="middle" x="2771.5" y="-128" font-family="Helvetica,sans-Serif" font-size="10.00">/Api.h</text>
</a>
</g>
</g>
<!-- Node21&#45;&gt;Node22 -->
<g id="edge20_Node000021_Node000022" class="edge">
<title>Node21&#45;&gt;Node22</title>
<g id="a_edge20_Node000021_Node000022"><a xlink:title=" ">
<path fill="none" stroke="#63b8ff" d="M2339.62,-190.33C2345.61,-189.1 2351.69,-187.95 2357.5,-187 2506.58,-162.58 2545.99,-172.7 2695.5,-151 2698.42,-150.58 2701.4,-150.12 2704.41,-149.64"/>
<polygon fill="#63b8ff" stroke="#63b8ff" points="2338.73,-186.94 2329.68,-192.45 2340.19,-193.79 2338.73,-186.94"/>
</a>
</g>
</g>
<!-- Node24 -->
<g id="Node000024" class="node">
<title>Node24</title>
<g id="a_Node000024"><a xlink:href="_ajax_2_thermistor_8h.html" target="_top" xlink:title=" ">
<polygon fill="#fff0f0" stroke="red" points="2686.5,-145.5 2530.5,-145.5 2530.5,-126.5 2686.5,-126.5 2686.5,-145.5"/>
<text text-anchor="middle" x="2608.5" y="-133.5" font-family="Helvetica,sans-Serif" font-size="10.00">Driver/AIO/Ajax/Thermistor.h</text>
</a>
</g>
</g>
<!-- Node21&#45;&gt;Node24 -->
<g id="edge24_Node000021_Node000024" class="edge">
<title>Node21&#45;&gt;Node24</title>
<g id="a_edge24_Node000021_Node000024"><a xlink:title=" ">
<path fill="none" stroke="#63b8ff" d="M2342.05,-190.32C2347.26,-189.18 2352.49,-188.06 2357.5,-187 2429.67,-171.79 2513.79,-155.28 2564.01,-145.56"/>
<polygon fill="#63b8ff" stroke="#63b8ff" points="2341.13,-186.93 2332.11,-192.5 2342.63,-193.77 2341.13,-186.93"/>
</a>
</g>
</g>
<!-- Node26 -->
<g id="Node000026" class="node">
<title>Node26</title>
<g id="a_Node000026"><a xlink:href="_eros_2_ui_2_home_2_screen_8h.html" target="_top" xlink:title=" ">
<polygon fill="#fff0f0" stroke="red" points="2358.5,-145.5 2230.5,-145.5 2230.5,-126.5 2358.5,-126.5 2358.5,-145.5"/>
<text text-anchor="middle" x="2294.5" y="-133.5" font-family="Helvetica,sans-Serif" font-size="10.00">Eros/Ui/Home/Screen.h</text>
</a>
</g>
</g>
<!-- Node21&#45;&gt;Node26 -->
<g id="edge25_Node000021_Node000026" class="edge">
<title>Node21&#45;&gt;Node26</title>
<g id="a_edge25_Node000021_Node000026"><a xlink:title=" ">
<path fill="none" stroke="#63b8ff" d="M2294.5,-182.08C2294.5,-170.13 2294.5,-155.22 2294.5,-145.91"/>
<polygon fill="#63b8ff" stroke="#63b8ff" points="2291,-182.37 2294.5,-192.37 2298,-182.37 2291,-182.37"/>
</a>
</g>
</g>
<!-- Node28 -->
<g id="Node000028" class="node">
<title>Node28</title>
<g id="a_Node000028"><a xlink:href="_eros_2_ui_2_lcd_test_2_screen_8h.html" target="_top" xlink:title=" ">
<polygon fill="#fff0f0" stroke="red" points="2512,-145.5 2377,-145.5 2377,-126.5 2512,-126.5 2512,-145.5"/>
<text text-anchor="middle" x="2444.5" y="-133.5" font-family="Helvetica,sans-Serif" font-size="10.00">Eros/Ui/LcdTest/Screen.h</text>
</a>
</g>
</g>
<!-- Node21&#45;&gt;Node28 -->
<g id="edge26_Node000021_Node000028" class="edge">
<title>Node21&#45;&gt;Node28</title>
<g id="a_edge26_Node000021_Node000028"><a xlink:title=" ">
<path fill="none" stroke="#63b8ff" d="M2324.13,-188.36C2353.69,-175.75 2398.31,-156.71 2424.11,-145.7"/>
<polygon fill="#63b8ff" stroke="#63b8ff" points="2322.55,-185.23 2314.73,-192.37 2325.3,-191.66 2322.55,-185.23"/>
</a>
</g>
</g>
<!-- Node22&#45;&gt;Node17 -->
<g id="edge22_Node000022_Node000017" class="edge">
<title>Node22&#45;&gt;Node17</title>
<g id="a_edge22_Node000022_Node000017"><a xlink:title=" ">
<path fill="none" stroke="#63b8ff" d="M2694.08,-120.75C2613.87,-106.33 2532.73,-92.1 2477.52,-82.47"/>
<polygon fill="#63b8ff" stroke="#63b8ff" points="2693.91,-124.28 2704.37,-122.6 2695.15,-117.39 2693.91,-124.28"/>
</a>
</g>
</g>
<!-- Node23 -->
<g id="Node000023" class="node">
<title>Node23</title>
<g id="a_Node000023"><a xlink:href="_ajax_2_heating_2_io_2_api_8h.html" target="_top" xlink:title=" ">
<polygon fill="white" stroke="#666666" points="2319,-79.5 2200,-79.5 2200,-60.5 2319,-60.5 2319,-79.5"/>
<text text-anchor="middle" x="2259.5" y="-67.5" font-family="Helvetica,sans-Serif" font-size="10.00">Ajax/Heating/Io/Api.h</text>
</a>
</g>
</g>
<!-- Node22&#45;&gt;Node23 -->
<g id="edge21_Node000022_Node000023" class="edge">
<title>Node22&#45;&gt;Node23</title>
<g id="a_edge21_Node000022_Node000023"><a xlink:title=" ">
<path fill="none" stroke="#63b8ff" d="M2694.25,-120.9C2534.99,-98.81 2492.03,-106.9 2336.5,-85 2325.6,-83.47 2313.89,-81.5 2302.97,-79.53"/>
<polygon fill="#63b8ff" stroke="#63b8ff" points="2694.02,-124.41 2704.41,-122.33 2695,-117.47 2694.02,-124.41"/>
</a>
</g>
</g>
<!-- Node30&#45;&gt;Node23 -->
<g id="edge29_Node000030_Node000023" class="edge">
<title>Node30&#45;&gt;Node23</title>
<g id="a_edge29_Node000030_Node000023"><a xlink:title=" ">
<path fill="none" stroke="#63b8ff" d="M1544.47,-190.46C1538.1,-189.21 1531.65,-188.02 1525.5,-187 1394.24,-165.23 1141.74,-217.34 1233.5,-121 1250.27,-103.4 1983.33,-79.49 2199.87,-72.8"/>
<polygon fill="#63b8ff" stroke="#63b8ff" points="1543.84,-193.9 1554.34,-192.45 1545.23,-187.04 1543.84,-193.9"/>
</a>
</g>
</g>
<!-- Node31 -->
<g id="Node000031" class="node">
<title>Node31</title>
<g id="a_Node000031"><a xlink:href="_ajax_2_main_2__plat__simulator_2_model_points_8h.html" target="_top" xlink:title=" ">
<polygon fill="white" stroke="#666666" points="1386.5,-151 1242.5,-151 1242.5,-121 1386.5,-121 1386.5,-151"/>
<text text-anchor="start" x="1250.5" y="-139" font-family="Helvetica,sans-Serif" font-size="10.00">Ajax/Main/_plat_simulator</text>
<text text-anchor="middle" x="1314.5" y="-128" font-family="Helvetica,sans-Serif" font-size="10.00">/ModelPoints.h</text>
</a>
</g>
</g>
<!-- Node30&#45;&gt;Node31 -->
<g id="edge30_Node000030_Node000031" class="edge">
<title>Node30&#45;&gt;Node31</title>
<g id="a_edge30_Node000030_Node000031"><a xlink:title=" ">
<path fill="none" stroke="#63b8ff" d="M1545.42,-190.16C1498.6,-179.38 1426.57,-162.8 1375.42,-151.02"/>
<polygon fill="#63b8ff" stroke="#63b8ff" points="1544.77,-193.6 1555.3,-192.44 1546.34,-186.78 1544.77,-193.6"/>
</a>
</g>
</g>
<!-- Node32 -->
<g id="Node000032" class="node">
<title>Node32</title>
<g id="a_Node000032"><a xlink:href="_ajax_2_metrics_2_api_8h.html" target="_top" xlink:title=" ">
<polygon fill="white" stroke="#666666" points="1510,-145.5 1405,-145.5 1405,-126.5 1510,-126.5 1510,-145.5"/>
<text text-anchor="middle" x="1457.5" y="-133.5" font-family="Helvetica,sans-Serif" font-size="10.00">Ajax/Metrics/Api.h</text>
</a>
</g>
</g>
<!-- Node30&#45;&gt;Node32 -->
<g id="edge31_Node000030_Node000032" class="edge">
<title>Node30&#45;&gt;Node32</title>
<g id="a_edge31_Node000030_Node000032"><a xlink:title=" ">
<path fill="none" stroke="#63b8ff" d="M1565.14,-188.03C1538.53,-175.42 1498.87,-156.61 1475.85,-145.7"/>
<polygon fill="#63b8ff" stroke="#63b8ff" points="1563.76,-191.25 1574.29,-192.37 1566.76,-184.92 1563.76,-191.25"/>
</a>
</g>
</g>
<!-- Node33 -->
<g id="Node000033" class="node">
<title>Node33</title>
<g id="a_Node000033"><a xlink:href="_ajax_2_ui_2_status_indicator_2_api_8h.html" target="_top" xlink:title=" ">
<polygon fill="white" stroke="#666666" points="1656.5,-151 1528.5,-151 1528.5,-121 1656.5,-121 1656.5,-151"/>
<text text-anchor="start" x="1536.5" y="-139" font-family="Helvetica,sans-Serif" font-size="10.00">Ajax/Ui/StatusIndicator</text>
<text text-anchor="middle" x="1592.5" y="-128" font-family="Helvetica,sans-Serif" font-size="10.00">/Api.h</text>
</a>
</g>
</g>
<!-- Node30&#45;&gt;Node33 -->
<g id="edge32_Node000030_Node000033" class="edge">
<title>Node30&#45;&gt;Node33</title>
<g id="a_edge32_Node000030_Node000033"><a xlink:title=" ">
<path fill="none" stroke="#63b8ff" d="M1592.5,-182.35C1592.5,-172.47 1592.5,-160.51 1592.5,-151.36"/>
<polygon fill="#63b8ff" stroke="#63b8ff" points="1589,-182.37 1592.5,-192.37 1596,-182.37 1589,-182.37"/>
</a>
</g>
</g>
<!-- Node34 -->
<g id="Node000034" class="node">
<title>Node34</title>
<g id="a_Node000034"><a xlink:href="_ring_buffer_m_p_8h.html" target="_top" xlink:title=" ">
<polygon fill="#fff0f0" stroke="red" points="1187,-145.5 1028,-145.5 1028,-126.5 1187,-126.5 1187,-145.5"/>
<text text-anchor="middle" x="1107.5" y="-133.5" font-family="Helvetica,sans-Serif" font-size="10.00">Cpl/Container/RingBufferMP.h</text>
</a>
</g>
</g>
<!-- Node30&#45;&gt;Node34 -->
<g id="edge33_Node000030_Node000034" class="edge">
<title>Node30&#45;&gt;Node34</title>
<g id="a_edge33_Node000030_Node000034"><a xlink:title=" ">
<path fill="none" stroke="#63b8ff" d="M1544.72,-190.43C1538.27,-189.18 1531.74,-187.99 1525.5,-187 1381.99,-164.11 1344.6,-169.82 1200.5,-151 1187.87,-149.35 1174.31,-147.41 1161.54,-145.5"/>
<polygon fill="#63b8ff" stroke="#63b8ff" points="1544.21,-193.9 1554.7,-192.44 1545.59,-187.04 1544.21,-193.9"/>
</a>
</g>
</g>
<!-- Node37 -->
<g id="Node000037" class="node">
<title>Node37</title>
<g id="a_Node000037"><a xlink:href="_cpl_2_logging_2_api_8h.html" target="_top" xlink:title=" ">
<polygon fill="white" stroke="#666666" points="1105,-79.5 1004,-79.5 1004,-60.5 1105,-60.5 1105,-79.5"/>
<text text-anchor="middle" x="1054.5" y="-67.5" font-family="Helvetica,sans-Serif" font-size="10.00">Cpl/Logging/Api.h</text>
</a>
</g>
</g>
<!-- Node30&#45;&gt;Node37 -->
<g id="edge36_Node000030_Node000037" class="edge">
<title>Node30&#45;&gt;Node37</title>
<g id="a_edge36_Node000030_Node000037"><a xlink:title=" ">
<path fill="none" stroke="#63b8ff" d="M1546.19,-190.48C1539.28,-189.15 1532.22,-187.94 1525.5,-187 1469.68,-179.22 1057.92,-192.25 1019.5,-151 999.66,-129.7 1029.27,-95.35 1045.31,-79.51"/>
<polygon fill="#63b8ff" stroke="#63b8ff" points="1545.65,-193.94 1556.14,-192.47 1547.03,-187.07 1545.65,-193.94"/>
</a>
</g>
</g>
<!-- Node34&#45;&gt;Node7 -->
<g id="edge34_Node000034_Node000007" class="edge">
<title>Node34&#45;&gt;Node7</title>
<g id="a_edge34_Node000034_Node000007"><a xlink:title=" ">
<path fill="none" stroke="#63b8ff" d="M1170.46,-125C1180.5,-123.56 1190.77,-122.17 1200.5,-121 1380.85,-99.37 1595.01,-82.69 1697.69,-75.25"/>
<polygon fill="#63b8ff" stroke="#63b8ff" points="1169.93,-121.54 1160.54,-126.45 1170.94,-128.47 1169.93,-121.54"/>
</a>
</g>
</g>
<!-- Node34&#45;&gt;Node37 -->
<g id="edge35_Node000034_Node000037" class="edge">
<title>Node34&#45;&gt;Node37</title>
<g id="a_edge35_Node000034_Node000037"><a xlink:title=" ">
<path fill="none" stroke="#63b8ff" d="M1093.94,-118.62C1083.74,-106.31 1070.15,-89.89 1061.87,-79.91"/>
<polygon fill="#63b8ff" stroke="#63b8ff" points="1091.28,-120.9 1100.35,-126.37 1096.67,-116.43 1091.28,-120.9"/>
</a>
</g>
</g>
<!-- Node42 -->
<g id="Node000042" class="node">
<title>Node42</title>
<g id="a_Node000042"><a xlink:href="_indexed_entry_record_8h.html" target="_top" xlink:title=" ">
<polygon fill="#fff0f0" stroke="red" points="972,-151 821,-151 821,-121 972,-121 972,-151"/>
<text text-anchor="start" x="829" y="-139" font-family="Helvetica,sans-Serif" font-size="10.00">Cpl/Persistent/IndexedEntry</text>
<text text-anchor="middle" x="896.5" y="-128" font-family="Helvetica,sans-Serif" font-size="10.00">Record.h</text>
</a>
</g>
</g>
<!-- Node41&#45;&gt;Node42 -->
<g id="edge38_Node000041_Node000042" class="edge">
<title>Node41&#45;&gt;Node42</title>
<g id="a_edge38_Node000041_Node000042"><a xlink:title=" ">
<path fill="none" stroke="#63b8ff" d="M1288.74,-190.38C1282.61,-189.16 1276.42,-188 1270.5,-187 1145.05,-165.78 1112.48,-168.78 986.5,-151 981.8,-150.34 976.97,-149.64 972.1,-148.92"/>
<polygon fill="#63b8ff" stroke="#63b8ff" points="1288.41,-193.89 1298.91,-192.46 1289.81,-187.03 1288.41,-193.89"/>
</a>
</g>
</g>
<!-- Node45 -->
<g id="Node000045" class="node">
<title>Node45</title>
<g id="a_Node000045"><a xlink:href="_arduino_2__sd_fat_2__api_2_dir_list___8h.html" target="_top" xlink:title=" ">
<polygon fill="white" stroke="#666666" points="3159.5,-217 3037.5,-217 3037.5,-187 3159.5,-187 3159.5,-217"/>
<text text-anchor="start" x="3045.5" y="-205" font-family="Helvetica,sans-Serif" font-size="10.00">Cpl/Io/File/Arduino</text>
<text text-anchor="middle" x="3098.5" y="-194" font-family="Helvetica,sans-Serif" font-size="10.00">/_sdFat/_api/DirList_.h</text>
</a>
</g>
</g>
<!-- Node44&#45;&gt;Node45 -->
<g id="edge41_Node000044_Node000045" class="edge">
<title>Node44&#45;&gt;Node45</title>
<g id="a_edge41_Node000044_Node000045"><a xlink:title=" ">
<path fill="none" stroke="#63b8ff" d="M3098.5,-248.35C3098.5,-238.47 3098.5,-226.51 3098.5,-217.36"/>
<polygon fill="#63b8ff" stroke="#63b8ff" points="3095,-248.37 3098.5,-258.37 3102,-248.37 3095,-248.37"/>
</a>
</g>
</g>
<!-- Node46 -->
<g id="Node000046" class="node">
<title>Node46</title>
<g id="a_Node000046"><a xlink:href="_littlefs_2__api_2_dir_list___8h.html" target="_top" xlink:title=" ">
<polygon fill="white" stroke="#666666" points="3279,-217 3178,-217 3178,-187 3279,-187 3279,-217"/>
<text text-anchor="start" x="3186" y="-205" font-family="Helvetica,sans-Serif" font-size="10.00">Cpl/Io/File/Littlefs</text>
<text text-anchor="middle" x="3228.5" y="-194" font-family="Helvetica,sans-Serif" font-size="10.00">/_api/DirList_.h</text>
</a>
</g>
</g>
<!-- Node44&#45;&gt;Node46 -->
<g id="edge42_Node000044_Node000046" class="edge">
<title>Node44&#45;&gt;Node46</title>
<g id="a_edge42_Node000044_Node000046"><a xlink:title=" ">
<path fill="none" stroke="#63b8ff" d="M3125.04,-253.93C3146.79,-243.22 3177.52,-228.1 3199.83,-217.12"/>
<polygon fill="#63b8ff" stroke="#63b8ff" points="3123.46,-250.81 3116.03,-258.37 3126.55,-257.09 3123.46,-250.81"/>
</a>
</g>
</g>
<!-- Node47 -->
<g id="Node000047" class="node">
<title>Node47</title>
<g id="a_Node000047"><a xlink:href="__posix_2__api_2_dir_list___8h.html" target="_top" xlink:title=" ">
<polygon fill="white" stroke="#666666" points="3396,-217 3297,-217 3297,-187 3396,-187 3396,-217"/>
<text text-anchor="start" x="3305" y="-205" font-family="Helvetica,sans-Serif" font-size="10.00">Cpl/Io/File/_posix</text>
<text text-anchor="middle" x="3346.5" y="-194" font-family="Helvetica,sans-Serif" font-size="10.00">/_api/DirList_.h</text>
</a>
</g>
</g>
<!-- Node44&#45;&gt;Node47 -->
<g id="edge43_Node000044_Node000047" class="edge">
<title>Node44&#45;&gt;Node47</title>
<g id="a_edge43_Node000044_Node000047"><a xlink:title=" ">
<path fill="none" stroke="#63b8ff" d="M3141.62,-255.87C3184.86,-244.71 3251.38,-227.55 3296.81,-215.82"/>
<polygon fill="#63b8ff" stroke="#63b8ff" points="3140.5,-252.55 3131.69,-258.44 3142.25,-259.33 3140.5,-252.55"/>
</a>
</g>
</g>
<!-- Node48 -->
<g id="Node000048" class="node">
<title>Node48</title>
<g id="a_Node000048"><a xlink:href="__win32_2__api_2_dir_list___8h.html" target="_top" xlink:title=" ">
<polygon fill="white" stroke="#666666" points="3019.5,-217 2917.5,-217 2917.5,-187 3019.5,-187 3019.5,-217"/>
<text text-anchor="start" x="2925.5" y="-205" font-family="Helvetica,sans-Serif" font-size="10.00">Cpl/Io/File/_win32</text>
<text text-anchor="middle" x="2968.5" y="-194" font-family="Helvetica,sans-Serif" font-size="10.00">/_api/DirList_.h</text>
</a>
</g>
</g>
<!-- Node44&#45;&gt;Node48 -->
<g id="edge44_Node000044_Node000048" class="edge">
<title>Node44&#45;&gt;Node48</title>
<g id="a_edge44_Node000044_Node000048"><a xlink:title=" ">
<path fill="none" stroke="#63b8ff" d="M3071.96,-253.93C3050.21,-243.22 3019.48,-228.1 2997.17,-217.12"/>
<polygon fill="#63b8ff" stroke="#63b8ff" points="3070.45,-257.09 3080.97,-258.37 3073.54,-250.81 3070.45,-257.09"/>
</a>
</g>
</g>
<!-- Node56 -->
<g id="Node000056" class="node">
<title>Node56</title>
<g id="a_Node000056"><a xlink:href="_cpl_2_t_shell_2_maker_8h.html" target="_top" xlink:title=" ">
<polygon fill="white" stroke="#666666" points="1136,-211.5 1029,-211.5 1029,-192.5 1136,-192.5 1136,-211.5"/>
<text text-anchor="middle" x="1082.5" y="-199.5" font-family="Helvetica,sans-Serif" font-size="10.00">Cpl/TShell/Maker.h</text>
</a>
</g>
</g>
<!-- Node55&#45;&gt;Node56 -->
<g id="edge52_Node000055_Node000056" class="edge">
<title>Node55&#45;&gt;Node56</title>
<g id="a_edge52_Node000055_Node000056"><a xlink:title=" ">
<path fill="none" stroke="#63b8ff" d="M1117.21,-250.27C1108.2,-237.99 1096.3,-221.8 1089.04,-211.91"/>
<polygon fill="#63b8ff" stroke="#63b8ff" points="1114.42,-252.38 1123.16,-258.37 1120.06,-248.24 1114.42,-252.38"/>
</a>
</g>
</g>
<!-- Node57 -->
<g id="Node000057" class="node">
<title>Node57</title>
<g id="a_Node000057"><a xlink:href="_polled_processor_8h.html" target="_top" xlink:title=" ">
<polygon fill="#fff0f0" stroke="red" points="1010.5,-211.5 856.5,-211.5 856.5,-192.5 1010.5,-192.5 1010.5,-211.5"/>
<text text-anchor="middle" x="933.5" y="-199.5" font-family="Helvetica,sans-Serif" font-size="10.00">Cpl/TShell/PolledProcessor.h</text>
</a>
</g>
</g>
<!-- Node55&#45;&gt;Node57 -->
<g id="edge53_Node000055_Node000057" class="edge">
<title>Node55&#45;&gt;Node57</title>
<g id="a_edge53_Node000055_Node000057"><a xlink:title=" ">
<path fill="none" stroke="#63b8ff" d="M1093.25,-255.16C1054.56,-242.53 994.21,-222.82 959.83,-211.6"/>
<polygon fill="#63b8ff" stroke="#63b8ff" points="1092.47,-258.59 1103.07,-258.37 1094.65,-251.94 1092.47,-258.59"/>
</a>
</g>
</g>
</g>
</svg>
