<?xml version="1.0" encoding="UTF-8" standalone="no"?>
<!DOCTYPE svg PUBLIC "-//W3C//DTD SVG 1.1//EN"
 "http://www.w3.org/Graphics/SVG/1.1/DTD/svg11.dtd">
<!-- Generated by graphviz version 9.0.0 (20230911.1827)
 -->
<!-- Title: Cpl/System/FatalError.h Pages: 1 -->
<svg width="3231pt" height="448pt"
 viewBox="0.00 0.00 3230.62 447.75" xmlns="http://www.w3.org/2000/svg" xmlns:xlink="http://www.w3.org/1999/xlink">
<g id="graph0" class="graph" transform="scale(1 1) rotate(0) translate(4 443.75)">
<title>Cpl/System/FatalError.h</title>
<!-- Node1 -->
<g id="Node000001" class="node">
<title>Node1</title>
<g id="a_Node000001"><a xlink:title=" ">
<polygon fill="#999999" stroke="#666666" points="2014.12,-439.75 1895.38,-439.75 1895.38,-420.5 2014.12,-420.5 2014.12,-439.75"/>
<text text-anchor="middle" x="1954.75" y="-426.25" font-family="Helvetica,sans-Serif" font-size="10.00">Cpl/System/FatalError.h</text>
</a>
</g>
</g>
<!-- Node2 -->
<g id="Node000002" class="node">
<title>Node2</title>
<g id="a_Node000002"><a xlink:href="_key_8h.html" target="_top" xlink:title=" ">
<polygon fill="white" stroke="#666666" points="1421.5,-384.5 1320,-384.5 1320,-365.25 1421.5,-365.25 1421.5,-384.5"/>
<text text-anchor="middle" x="1370.75" y="-371" font-family="Helvetica,sans-Serif" font-size="10.00">Cpl/Container/Key.h</text>
</a>
</g>
</g>
<!-- Node1&#45;&gt;Node2 -->
<g id="edge1_Node000001_Node000002" class="edge">
<title>Node1&#45;&gt;Node2</title>
<g id="a_edge1_Node000001_Node000002"><a xlink:title=" ">
<path fill="none" stroke="#63b8ff" d="M1883.83,-422.66C1764.53,-411.78 1526.49,-390.08 1421.97,-380.55"/>
<polygon fill="#63b8ff" stroke="#63b8ff" points="1883.21,-426.12 1893.49,-423.54 1883.85,-419.15 1883.21,-426.12"/>
</a>
</g>
</g>
<!-- Node92 -->
<g id="Node000092" class="node">
<title>Node92</title>
<g id="a_Node000092"><a xlink:href="_numeric_8h.html" target="_top" xlink:title=" ">
<polygon fill="white" stroke="#666666" points="2520.75,-218.75 2408.75,-218.75 2408.75,-199.5 2520.75,-199.5 2520.75,-218.75"/>
<text text-anchor="middle" x="2464.75" y="-205.25" font-family="Helvetica,sans-Serif" font-size="10.00">Cpl/Dm/Mp/Numeric.h</text>
</a>
</g>
</g>
<!-- Node1&#45;&gt;Node92 -->
<g id="edge62_Node000001_Node000092" class="edge">
<title>Node1&#45;&gt;Node92</title>
<g id="a_edge62_Node000001_Node000092"><a xlink:title=" ">
<path fill="none" stroke="#63b8ff" d="M2025.93,-422.54C2176.53,-406.99 2519.33,-362.45 2588.75,-274 2611.4,-245.14 2563.81,-228.07 2521.19,-218.94"/>
<polygon fill="#63b8ff" stroke="#63b8ff" points="2025.66,-419.05 2016.07,-423.55 2026.37,-426.02 2025.66,-419.05"/>
</a>
</g>
</g>
<!-- Node3 -->
<g id="Node000003" class="node">
<title>Node3</title>
<g id="a_Node000003"><a xlink:href="_dict_item_8h.html" target="_top" xlink:title=" ">
<polygon fill="white" stroke="#666666" points="277.62,-329.25 155.88,-329.25 155.88,-310 277.62,-310 277.62,-329.25"/>
<text text-anchor="middle" x="216.75" y="-315.75" font-family="Helvetica,sans-Serif" font-size="10.00">Cpl/Container/DictItem.h</text>
</a>
</g>
</g>
<!-- Node2&#45;&gt;Node3 -->
<g id="edge2_Node000002_Node000003" class="edge">
<title>Node2&#45;&gt;Node3</title>
<g id="a_edge2_Node000002_Node000003"><a xlink:title=" ">
<path fill="none" stroke="#63b8ff" d="M1308.46,-371C1107.37,-361.72 477.04,-332.64 277.77,-323.44"/>
<polygon fill="#63b8ff" stroke="#63b8ff" points="1308.01,-374.48 1318.16,-371.45 1308.34,-367.49 1308.01,-374.48"/>
</a>
</g>
</g>
<!-- Node61 -->
<g id="Node000061" class="node">
<title>Node61</title>
<g id="a_Node000061"><a xlink:href="_text_2_string_8h.html" target="_top" xlink:title=" ">
<polygon fill="white" stroke="#666666" points="1344.75,-329.25 1256.75,-329.25 1256.75,-310 1344.75,-310 1344.75,-329.25"/>
<text text-anchor="middle" x="1300.75" y="-315.75" font-family="Helvetica,sans-Serif" font-size="10.00">Cpl/Text/String.h</text>
</a>
</g>
</g>
<!-- Node2&#45;&gt;Node61 -->
<g id="edge6_Node000002_Node000061" class="edge">
<title>Node2&#45;&gt;Node61</title>
<g id="a_edge6_Node000002_Node000061"><a xlink:title=" ">
<path fill="none" stroke="#63b8ff" d="M1349.8,-357.94C1337.58,-348.64 1322.61,-337.26 1312.45,-329.52"/>
<polygon fill="#63b8ff" stroke="#63b8ff" points="1347.59,-360.66 1357.67,-363.93 1351.83,-355.09 1347.59,-360.66"/>
</a>
</g>
</g>
<!-- Node51 -->
<g id="Node000051" class="node">
<title>Node51</title>
<g id="a_Node000051"><a xlink:href="_rx_frame_handler_8h.html" target="_top" xlink:title=" ">
<polygon fill="white" stroke="#666666" points="1516.38,-329.25 1363.12,-329.25 1363.12,-310 1516.38,-310 1516.38,-329.25"/>
<text text-anchor="middle" x="1439.75" y="-315.75" font-family="Helvetica,sans-Serif" font-size="10.00">Driver/TPipe/RxFrameHandler.h</text>
</a>
</g>
</g>
<!-- Node2&#45;&gt;Node51 -->
<g id="edge61_Node000002_Node000051" class="edge">
<title>Node2&#45;&gt;Node51</title>
<g id="a_edge61_Node000002_Node000051"><a xlink:title=" ">
<path fill="none" stroke="#63b8ff" d="M1391.4,-357.94C1403.45,-348.64 1418.2,-337.26 1428.22,-329.52"/>
<polygon fill="#63b8ff" stroke="#63b8ff" points="1389.43,-355.04 1383.65,-363.92 1393.71,-360.58 1389.43,-355.04"/>
</a>
</g>
</g>
<!-- Node4 -->
<g id="Node000004" class="node">
<title>Node4</title>
<g id="a_Node000004"><a xlink:href="_hash_table___8h.html" target="_top" xlink:title=" ">
<polygon fill="#fff0f0" stroke="red" points="137.5,-274 0,-274 0,-254.75 137.5,-254.75 137.5,-274"/>
<text text-anchor="middle" x="68.75" y="-260.5" font-family="Helvetica,sans-Serif" font-size="10.00">Cpl/Container/HashTable_.h</text>
</a>
</g>
</g>
<!-- Node3&#45;&gt;Node4 -->
<g id="edge3_Node000003_Node000004" class="edge">
<title>Node3&#45;&gt;Node4</title>
<g id="a_edge3_Node000003_Node000004"><a xlink:title=" ">
<path fill="none" stroke="#63b8ff" d="M181.11,-305.8C154.2,-296.12 117.94,-283.07 93.98,-274.45"/>
<polygon fill="#63b8ff" stroke="#63b8ff" points="179.63,-308.99 190.22,-309.08 182,-302.4 179.63,-308.99"/>
</a>
</g>
</g>
<!-- Node6 -->
<g id="Node000006" class="node">
<title>Node6</title>
<g id="a_Node000006"><a xlink:href="_map_item_8h.html" target="_top" xlink:title=" ">
<polygon fill="#fff0f0" stroke="red" points="278.38,-274 155.12,-274 155.12,-254.75 278.38,-254.75 278.38,-274"/>
<text text-anchor="middle" x="216.75" y="-260.5" font-family="Helvetica,sans-Serif" font-size="10.00">Cpl/Container/MapItem.h</text>
</a>
</g>
</g>
<!-- Node3&#45;&gt;Node6 -->
<g id="edge4_Node000003_Node000006" class="edge">
<title>Node3&#45;&gt;Node6</title>
<g id="a_edge4_Node000003_Node000006"><a xlink:title=" ">
<path fill="none" stroke="#63b8ff" d="M216.75,-298.38C216.75,-290.09 216.75,-280.92 216.75,-274.36"/>
<polygon fill="#63b8ff" stroke="#63b8ff" points="213.25,-298.32 216.75,-308.32 220.25,-298.32 213.25,-298.32"/>
</a>
</g>
</g>
<!-- Node56 -->
<g id="Node000056" class="node">
<title>Node56</title>
<g id="a_Node000056"><a xlink:href="_string_item_8h.html" target="_top" xlink:title=" ">
<polygon fill="#fff0f0" stroke="red" points="325.5,-218.75 218,-218.75 218,-199.5 325.5,-199.5 325.5,-218.75"/>
<text text-anchor="middle" x="271.75" y="-205.25" font-family="Helvetica,sans-Serif" font-size="10.00">Cpl/Text/StringItem.h</text>
</a>
</g>
</g>
<!-- Node6&#45;&gt;Node56 -->
<g id="edge5_Node000006_Node000056" class="edge">
<title>Node6&#45;&gt;Node56</title>
<g id="a_edge5_Node000006_Node000056"><a xlink:title=" ">
<path fill="none" stroke="#63b8ff" d="M234.1,-246.57C243.5,-237.48 254.73,-226.6 262.47,-219.11"/>
<polygon fill="#63b8ff" stroke="#63b8ff" points="231.67,-244.06 226.92,-253.53 236.54,-249.09 231.67,-244.06"/>
</a>
</g>
</g>
<!-- Node61&#45;&gt;Node56 -->
<g id="edge28_Node000061_Node000056" class="edge">
<title>Node61&#45;&gt;Node56</title>
<g id="a_edge28_Node000061_Node000056"><a xlink:title=" ">
<path fill="none" stroke="#63b8ff" d="M1245.02,-318.66C1050.38,-318.43 408.16,-314.56 325.75,-274 301.52,-262.07 283.99,-233.76 276.22,-219.17"/>
<polygon fill="#63b8ff" stroke="#63b8ff" points="1244.86,-322.16 1254.87,-318.67 1244.87,-315.16 1244.86,-322.16"/>
</a>
</g>
</g>
<!-- Node62 -->
<g id="Node000062" class="node">
<title>Node62</title>
<g id="a_Node000062"><a xlink:href="_api_md5_8h.html" target="_top" xlink:title=" ">
<polygon fill="#fff0f0" stroke="red" points="458.38,-274 335.12,-274 335.12,-254.75 458.38,-254.75 458.38,-274"/>
<text text-anchor="middle" x="396.75" y="-260.5" font-family="Helvetica,sans-Serif" font-size="10.00">Cpl/Checksum/ApiMd5.h</text>
</a>
</g>
</g>
<!-- Node61&#45;&gt;Node62 -->
<g id="edge7_Node000061_Node000062" class="edge">
<title>Node61&#45;&gt;Node62</title>
<g id="a_edge7_Node000061_Node000062"><a xlink:title=" ">
<path fill="none" stroke="#63b8ff" d="M1245.15,-316.77C1111.75,-312.05 763.04,-298.27 472.75,-274 468.12,-273.61 463.33,-273.17 458.52,-272.69"/>
<polygon fill="#63b8ff" stroke="#63b8ff" points="1244.63,-320.25 1254.74,-317.1 1244.87,-313.25 1244.63,-320.25"/>
</a>
</g>
</g>
<!-- Node64 -->
<g id="Node000064" class="node">
<title>Node64</title>
<g id="a_Node000064"><a xlink:href="_md5_checksum_8h.html" target="_top" xlink:title=" ">
<polygon fill="white" stroke="#666666" points="499.75,-218.75 363.75,-218.75 363.75,-199.5 499.75,-199.5 499.75,-218.75"/>
<text text-anchor="middle" x="431.75" y="-205.25" font-family="Helvetica,sans-Serif" font-size="10.00">Cpl/Io/File/Md5Checksum.h</text>
</a>
</g>
</g>
<!-- Node61&#45;&gt;Node64 -->
<g id="edge11_Node000061_Node000064" class="edge">
<title>Node61&#45;&gt;Node64</title>
<g id="a_edge11_Node000061_Node000064"><a xlink:title=" ">
<path fill="none" stroke="#63b8ff" d="M1245.02,-317.57C1075.55,-314.07 573.76,-301.49 505.75,-274 476.48,-262.17 450.68,-233.81 438.76,-219.19"/>
<polygon fill="#63b8ff" stroke="#63b8ff" points="1244.82,-321.07 1254.89,-317.77 1244.96,-314.07 1244.82,-321.07"/>
</a>
</g>
</g>
<!-- Node65 -->
<g id="Node000065" class="node">
<title>Node65</title>
<g id="a_Node000065"><a xlink:href="_model_database_api_8h.html" target="_top" xlink:title=" ">
<polygon fill="#fff0f0" stroke="red" points="655,-274 514.5,-274 514.5,-254.75 655,-254.75 655,-274"/>
<text text-anchor="middle" x="584.75" y="-260.5" font-family="Helvetica,sans-Serif" font-size="10.00">Cpl/Dm/ModelDatabaseApi.h</text>
</a>
</g>
</g>
<!-- Node61&#45;&gt;Node65 -->
<g id="edge9_Node000061_Node000065" class="edge">
<title>Node61&#45;&gt;Node65</title>
<g id="a_edge9_Node000061_Node000065"><a xlink:title=" ">
<path fill="none" stroke="#63b8ff" d="M1245.09,-315.45C1134.3,-308.98 878.37,-293.23 663.75,-274 661,-273.75 658.2,-273.49 655.37,-273.22"/>
<polygon fill="#63b8ff" stroke="#63b8ff" points="1244.6,-318.93 1254.79,-316.02 1245.01,-311.94 1244.6,-318.93"/>
</a>
</g>
</g>
<!-- Node116 -->
<g id="Node000116" class="node">
<title>Node116</title>
<g id="a_Node000116"><a xlink:href="_model_point_8h.html" target="_top" xlink:title=" ">
<polygon fill="#fff0f0" stroke="red" points="780.5,-274 673,-274 673,-254.75 780.5,-254.75 780.5,-274"/>
<text text-anchor="middle" x="726.75" y="-260.5" font-family="Helvetica,sans-Serif" font-size="10.00">Cpl/Dm/ModelPoint.h</text>
</a>
</g>
</g>
<!-- Node61&#45;&gt;Node116 -->
<g id="edge10_Node000061_Node000116" class="edge">
<title>Node61&#45;&gt;Node116</title>
<g id="a_edge10_Node000061_Node000116"><a xlink:title=" ">
<path fill="none" stroke="#63b8ff" d="M1245.39,-314.68C1151.52,-307.8 955.2,-292.54 789.75,-274 786.79,-273.67 783.75,-273.31 780.68,-272.94"/>
<polygon fill="#63b8ff" stroke="#63b8ff" points="1244.85,-318.15 1255.08,-315.39 1245.36,-311.17 1244.85,-318.15"/>
</a>
</g>
</g>
<!-- Node123 -->
<g id="Node000123" class="node">
<title>Node123</title>
<g id="a_Node000123"><a xlink:href="_input_8h.html" target="_top" xlink:title=" ">
<polygon fill="#fff0f0" stroke="red" points="872.62,-274 798.88,-274 798.88,-254.75 872.62,-254.75 872.62,-274"/>
<text text-anchor="middle" x="835.75" y="-260.5" font-family="Helvetica,sans-Serif" font-size="10.00">Cpl/Io/Input.h</text>
</a>
</g>
</g>
<!-- Node61&#45;&gt;Node123 -->
<g id="edge12_Node000061_Node000123" class="edge">
<title>Node61&#45;&gt;Node123</title>
<g id="a_edge12_Node000061_Node000123"><a xlink:title=" ">
<path fill="none" stroke="#63b8ff" d="M1244.93,-314.1C1164.45,-307.25 1011.27,-293.01 881.75,-274 878.94,-273.59 876.03,-273.13 873.11,-272.64"/>
<polygon fill="#63b8ff" stroke="#63b8ff" points="1244.5,-317.57 1254.75,-314.93 1245.08,-310.6 1244.5,-317.57"/>
</a>
</g>
</g>
<!-- Node155 -->
<g id="Node000155" class="node">
<title>Node155</title>
<g id="a_Node000155"><a xlink:href="_line_reader_api_8h.html" target="_top" xlink:title=" ">
<polygon fill="#fff0f0" stroke="red" points="1006.62,-274 890.88,-274 890.88,-254.75 1006.62,-254.75 1006.62,-274"/>
<text text-anchor="middle" x="948.75" y="-260.5" font-family="Helvetica,sans-Serif" font-size="10.00">Cpl/Io/LineReaderApi.h</text>
</a>
</g>
</g>
<!-- Node61&#45;&gt;Node155 -->
<g id="edge13_Node000061_Node000155" class="edge">
<title>Node61&#45;&gt;Node155</title>
<g id="a_edge13_Node000061_Node000155"><a xlink:title=" ">
<path fill="none" stroke="#63b8ff" d="M1245.3,-310.24C1180.37,-300.41 1073.29,-284.22 1007.12,-274.21"/>
<polygon fill="#63b8ff" stroke="#63b8ff" points="1244.62,-313.67 1255.03,-311.71 1245.66,-306.75 1244.62,-313.67"/>
</a>
</g>
</g>
<!-- Node156 -->
<g id="Node000156" class="node">
<title>Node156</title>
<g id="a_Node000156"><a xlink:href="_line_writer_api_8h.html" target="_top" xlink:title=" ">
<polygon fill="#fff0f0" stroke="red" points="1135,-274 1024.5,-274 1024.5,-254.75 1135,-254.75 1135,-274"/>
<text text-anchor="middle" x="1079.75" y="-260.5" font-family="Helvetica,sans-Serif" font-size="10.00">Cpl/Io/LineWriterApi.h</text>
</a>
</g>
</g>
<!-- Node61&#45;&gt;Node156 -->
<g id="edge14_Node000061_Node000156" class="edge">
<title>Node61&#45;&gt;Node156</title>
<g id="a_edge14_Node000061_Node000156"><a xlink:title=" ">
<path fill="none" stroke="#63b8ff" d="M1252.03,-306.89C1211.44,-297.11 1154.47,-283.38 1117.33,-274.43"/>
<polygon fill="#63b8ff" stroke="#63b8ff" points="1251,-310.24 1261.54,-309.18 1252.64,-303.43 1251,-310.24"/>
</a>
</g>
</g>
<!-- Node158 -->
<g id="Node000158" class="node">
<title>Node158</title>
<g id="a_Node000158"><a xlink:href="_output_8h.html" target="_top" xlink:title=" ">
<polygon fill="#fff0f0" stroke="red" points="1234.38,-274 1153.12,-274 1153.12,-254.75 1234.38,-254.75 1234.38,-274"/>
<text text-anchor="middle" x="1193.75" y="-260.5" font-family="Helvetica,sans-Serif" font-size="10.00">Cpl/Io/Output.h</text>
</a>
</g>
</g>
<!-- Node61&#45;&gt;Node158 -->
<g id="edge15_Node000061_Node000158" class="edge">
<title>Node61&#45;&gt;Node158</title>
<g id="a_edge15_Node000061_Node000158"><a xlink:title=" ">
<path fill="none" stroke="#63b8ff" d="M1272.35,-304.49C1253.22,-294.97 1228.54,-282.69 1211.99,-274.45"/>
<polygon fill="#63b8ff" stroke="#63b8ff" points="1270.73,-307.6 1281.24,-308.92 1273.85,-301.33 1270.73,-307.6"/>
</a>
</g>
</g>
<!-- Node167 -->
<g id="Node000167" class="node">
<title>Node167</title>
<g id="a_Node000167"><a xlink:href="_system_2_trace_8h.html" target="_top" xlink:title=" ">
<polygon fill="#fff0f0" stroke="red" points="1272.5,-218.75 1171,-218.75 1171,-199.5 1272.5,-199.5 1272.5,-218.75"/>
<text text-anchor="middle" x="1221.75" y="-205.25" font-family="Helvetica,sans-Serif" font-size="10.00">Cpl/System/Trace.h</text>
</a>
</g>
</g>
<!-- Node61&#45;&gt;Node167 -->
<g id="edge20_Node000061_Node000167" class="edge">
<title>Node61&#45;&gt;Node167</title>
<g id="a_edge20_Node000061_Node000167"><a xlink:title=" ">
<path fill="none" stroke="#63b8ff" d="M1287.58,-300.54C1270.48,-277.05 1241.28,-236.95 1228.3,-219.13"/>
<polygon fill="#63b8ff" stroke="#63b8ff" points="1284.68,-302.5 1293.39,-308.52 1290.34,-298.38 1284.68,-302.5"/>
</a>
</g>
</g>
<!-- Node171 -->
<g id="Node000171" class="node">
<title>Node171</title>
<g id="a_Node000171"><a xlink:href="_system_2_private___8h.html" target="_top" xlink:title="This file contains a collection of classes, interfaces, etc.">
<polygon fill="#fff0f0" stroke="red" points="1318.12,-157.88 1205.38,-157.88 1205.38,-138.62 1318.12,-138.62 1318.12,-157.88"/>
<text text-anchor="middle" x="1261.75" y="-144.38" font-family="Helvetica,sans-Serif" font-size="10.00">Cpl/System/Private_.h</text>
</a>
</g>
</g>
<!-- Node61&#45;&gt;Node171 -->
<g id="edge19_Node000061_Node000171" class="edge">
<title>Node61&#45;&gt;Node171</title>
<g id="a_edge19_Node000061_Node000171"><a xlink:title=" ">
<path fill="none" stroke="#63b8ff" d="M1298.86,-298.06C1296.34,-274.08 1291.08,-233.4 1281.75,-199.5 1277.67,-184.65 1270.61,-168.21 1266.06,-158.3"/>
<polygon fill="#63b8ff" stroke="#63b8ff" points="1295.38,-298.4 1299.84,-308.01 1302.35,-297.71 1295.38,-298.4"/>
</a>
</g>
</g>
<!-- Node53 -->
<g id="Node000053" class="node">
<title>Node53</title>
<g id="a_Node000053"><a xlink:href="_manager_api_8h.html" target="_top" xlink:title=" ">
<polygon fill="#fff0f0" stroke="red" points="1450.25,-274 1329.25,-274 1329.25,-254.75 1450.25,-254.75 1450.25,-274"/>
<text text-anchor="middle" x="1389.75" y="-260.5" font-family="Helvetica,sans-Serif" font-size="10.00">Cpl/MApp/ManagerApi.h</text>
</a>
</g>
</g>
<!-- Node61&#45;&gt;Node53 -->
<g id="edge18_Node000061_Node000053" class="edge">
<title>Node61&#45;&gt;Node53</title>
<g id="a_edge18_Node000061_Node000053"><a xlink:title=" ">
<path fill="none" stroke="#63b8ff" d="M1325.49,-303.82C1341.24,-294.4 1361.13,-282.5 1374.58,-274.45"/>
<polygon fill="#63b8ff" stroke="#63b8ff" points="1323.93,-300.68 1317.15,-308.81 1327.52,-306.68 1323.93,-300.68"/>
</a>
</g>
</g>
<!-- Node15 -->
<g id="Node000015" class="node">
<title>Node15</title>
<g id="a_Node000015"><a xlink:href="_cmd_2_command_8h.html" target="_top" xlink:title=" ">
<polygon fill="#fff0f0" stroke="red" points="1607.25,-274 1468.25,-274 1468.25,-254.75 1607.25,-254.75 1607.25,-274"/>
<text text-anchor="middle" x="1537.75" y="-260.5" font-family="Helvetica,sans-Serif" font-size="10.00">Cpl/TShell/Cmd/Command.h</text>
</a>
</g>
</g>
<!-- Node61&#45;&gt;Node15 -->
<g id="edge21_Node000061_Node000015" class="edge">
<title>Node61&#45;&gt;Node15</title>
<g id="a_edge21_Node000061_Node000015"><a xlink:title=" ">
<path fill="none" stroke="#63b8ff" d="M1352.44,-307.01C1396,-297.22 1457.45,-283.42 1497.44,-274.43"/>
<polygon fill="#63b8ff" stroke="#63b8ff" points="1351.69,-303.59 1342.7,-309.2 1353.22,-310.42 1351.69,-303.59"/>
</a>
</g>
</g>
<!-- Node27 -->
<g id="Node000027" class="node">
<title>Node27</title>
<g id="a_Node000027"><a xlink:href="_threads_8h.html" target="_top" xlink:title=" ">
<polygon fill="#fff0f0" stroke="red" points="1698.75,-218.75 1568.75,-218.75 1568.75,-199.5 1698.75,-199.5 1698.75,-218.75"/>
<text text-anchor="middle" x="1633.75" y="-205.25" font-family="Helvetica,sans-Serif" font-size="10.00">Cpl/TShell/Cmd/Threads.h</text>
</a>
</g>
</g>
<!-- Node61&#45;&gt;Node27 -->
<g id="edge24_Node000061_Node000027" class="edge">
<title>Node61&#45;&gt;Node27</title>
<g id="a_edge24_Node000061_Node000027"><a xlink:title=" ">
<path fill="none" stroke="#63b8ff" d="M1356.35,-309.92C1428.69,-302.36 1574.86,-310.99 1616.75,-274 1632.58,-260.02 1634.44,-233.14 1634.23,-219.12"/>
<polygon fill="#63b8ff" stroke="#63b8ff" points="1355.97,-306.44 1346.49,-311.15 1356.84,-313.38 1355.97,-306.44"/>
</a>
</g>
</g>
<!-- Node174 -->
<g id="Node000174" class="node">
<title>Node174</title>
<g id="a_Node000174"><a xlink:href="_encoding_2_base64_8h.html" target="_top" xlink:title=" ">
<polygon fill="white" stroke="#666666" points="1801.88,-274 1663.62,-274 1663.62,-254.75 1801.88,-254.75 1801.88,-274"/>
<text text-anchor="middle" x="1732.75" y="-260.5" font-family="Helvetica,sans-Serif" font-size="10.00">Cpl/Text/Encoding/Base64.h</text>
</a>
</g>
</g>
<!-- Node61&#45;&gt;Node174 -->
<g id="edge25_Node000061_Node000174" class="edge">
<title>Node61&#45;&gt;Node174</title>
<g id="a_edge25_Node000061_Node000174"><a xlink:title=" ">
<path fill="none" stroke="#63b8ff" d="M1356.27,-309.7C1469.55,-293.99 1589.47,-280.54 1663.13,-272.64"/>
<polygon fill="#63b8ff" stroke="#63b8ff" points="1355.89,-306.22 1346.47,-311.07 1356.86,-313.15 1355.89,-306.22"/>
</a>
</g>
</g>
<!-- Node175 -->
<g id="Node000175" class="node">
<title>Node175</title>
<g id="a_Node000175"><a xlink:href="_string_decoder_8h.html" target="_top" xlink:title=" ">
<polygon fill="white" stroke="#666666" points="1975.12,-274 1820.38,-274 1820.38,-254.75 1975.12,-254.75 1975.12,-274"/>
<text text-anchor="middle" x="1897.75" y="-260.5" font-family="Helvetica,sans-Serif" font-size="10.00">Cpl/Text/Frame/StringDecoder.h</text>
</a>
</g>
</g>
<!-- Node61&#45;&gt;Node175 -->
<g id="edge26_Node000061_Node000175" class="edge">
<title>Node61&#45;&gt;Node175</title>
<g id="a_edge26_Node000061_Node000175"><a xlink:title=" ">
<path fill="none" stroke="#63b8ff" d="M1356.52,-309.76C1557.95,-285.84 1611.48,-291.72 1810.75,-274 1813.77,-273.73 1816.86,-273.45 1819.97,-273.16"/>
<polygon fill="#63b8ff" stroke="#63b8ff" points="1356.26,-306.26 1346.75,-310.93 1357.09,-313.22 1356.26,-306.26"/>
</a>
</g>
</g>
<!-- Node176 -->
<g id="Node000176" class="node">
<title>Node176</title>
<g id="a_Node000176"><a xlink:href="_string_encoder_8h.html" target="_top" xlink:title=" ">
<polygon fill="white" stroke="#666666" points="2146.75,-274 1992.75,-274 1992.75,-254.75 2146.75,-254.75 2146.75,-274"/>
<text text-anchor="middle" x="2069.75" y="-260.5" font-family="Helvetica,sans-Serif" font-size="10.00">Cpl/Text/Frame/StringEncoder.h</text>
</a>
</g>
</g>
<!-- Node61&#45;&gt;Node176 -->
<g id="edge27_Node000061_Node000176" class="edge">
<title>Node61&#45;&gt;Node176</title>
<g id="a_edge27_Node000061_Node000176"><a xlink:title=" ">
<path fill="none" stroke="#63b8ff" d="M1356.49,-309.82C1634.46,-279.86 1707.84,-295.71 1983.75,-274 1986.59,-273.78 1989.49,-273.54 1992.41,-273.29"/>
<polygon fill="#63b8ff" stroke="#63b8ff" points="1356.3,-306.31 1346.74,-310.88 1357.06,-313.27 1356.3,-306.31"/>
</a>
</g>
</g>
<!-- Node177 -->
<g id="Node000177" class="node">
<title>Node177</title>
<g id="a_Node000177"><a xlink:href="_string___8h.html" target="_top" xlink:title=" ">
<polygon fill="#fff0f0" stroke="red" points="2258.38,-274 2165.12,-274 2165.12,-254.75 2258.38,-254.75 2258.38,-274"/>
<text text-anchor="middle" x="2211.75" y="-260.5" font-family="Helvetica,sans-Serif" font-size="10.00">Cpl/Text/String_.h</text>
</a>
</g>
</g>
<!-- Node61&#45;&gt;Node177 -->
<g id="edge29_Node000061_Node000177" class="edge">
<title>Node61&#45;&gt;Node177</title>
<g id="a_edge29_Node000061_Node000177"><a xlink:title=" ">
<path fill="none" stroke="#63b8ff" d="M1356.59,-309.84C1710.62,-274.03 1804.42,-308.84 2155.75,-274 2158.69,-273.71 2161.7,-273.37 2164.74,-272.99"/>
<polygon fill="#63b8ff" stroke="#63b8ff" points="1356.33,-306.34 1346.74,-310.85 1357.04,-313.31 1356.33,-306.34"/>
</a>
</g>
</g>
<!-- Node193 -->
<g id="Node000193" class="node">
<title>Node193</title>
<g id="a_Node000193"><a xlink:href="format_8h.html" target="_top" xlink:title="This file contains some general purpose string formatting functions.">
<polygon fill="#fff0f0" stroke="red" points="2366.88,-274 2276.62,-274 2276.62,-254.75 2366.88,-254.75 2366.88,-274"/>
<text text-anchor="middle" x="2321.75" y="-260.5" font-family="Helvetica,sans-Serif" font-size="10.00">Cpl/Text/format.h</text>
</a>
</g>
</g>
<!-- Node61&#45;&gt;Node193 -->
<g id="edge30_Node000061_Node000193" class="edge">
<title>Node61&#45;&gt;Node193</title>
<g id="a_edge30_Node000061_Node000193"><a xlink:title=" ">
<path fill="none" stroke="#63b8ff" d="M1356.65,-309.84C1760.22,-270.1 1866.95,-313.76 2267.75,-274 2270.49,-273.73 2273.3,-273.41 2276.13,-273.05"/>
<polygon fill="#63b8ff" stroke="#63b8ff" points="1356.34,-306.36 1346.74,-310.83 1357.04,-313.32 1356.34,-306.36"/>
</a>
</g>
</g>
<!-- Node191 -->
<g id="Node000191" class="node">
<title>Node191</title>
<g id="a_Node000191"><a xlink:href="_guid_8h.html" target="_top" xlink:title=" ">
<polygon fill="white" stroke="#666666" points="2470.25,-274 2385.25,-274 2385.25,-254.75 2470.25,-254.75 2470.25,-274"/>
<text text-anchor="middle" x="2427.75" y="-260.5" font-family="Helvetica,sans-Serif" font-size="10.00">Cpl/Type/Guid.h</text>
</a>
</g>
</g>
<!-- Node61&#45;&gt;Node191 -->
<g id="edge59_Node000061_Node000191" class="edge">
<title>Node61&#45;&gt;Node191</title>
<g id="a_edge59_Node000061_Node000191"><a xlink:title=" ">
<path fill="none" stroke="#63b8ff" d="M1356.63,-309.86C1808.03,-266.3 1927.26,-318.9 2375.75,-274 2378.75,-273.7 2381.85,-273.33 2384.96,-272.92"/>
<polygon fill="#63b8ff" stroke="#63b8ff" points="1356.35,-306.37 1346.74,-310.82 1357.03,-313.33 1356.35,-306.37"/>
</a>
</g>
</g>
<!-- Node194 -->
<g id="Node000194" class="node">
<title>Node194</title>
<g id="a_Node000194"><a xlink:href="_tx_8h.html" target="_top" xlink:title=" ">
<polygon fill="#fff0f0" stroke="red" points="2579.25,-274 2488.25,-274 2488.25,-254.75 2579.25,-254.75 2579.25,-274"/>
<text text-anchor="middle" x="2533.75" y="-260.5" font-family="Helvetica,sans-Serif" font-size="10.00">Driver/TPipe/Tx.h</text>
</a>
</g>
</g>
<!-- Node61&#45;&gt;Node194 -->
<g id="edge60_Node000061_Node000194" class="edge">
<title>Node61&#45;&gt;Node194</title>
<g id="a_edge60_Node000061_Node000194"><a xlink:title=" ">
<path fill="none" stroke="#63b8ff" d="M1356.67,-309.86C1854.09,-262.59 1985.09,-321.22 2479.75,-274 2482.4,-273.75 2485.11,-273.45 2487.84,-273.11"/>
<polygon fill="#63b8ff" stroke="#63b8ff" points="1356.35,-306.37 1346.74,-310.81 1357.02,-313.34 1356.35,-306.37"/>
</a>
</g>
</g>
<!-- Node62&#45;&gt;Node64 -->
<g id="edge8_Node000062_Node000064" class="edge">
<title>Node62&#45;&gt;Node64</title>
<g id="a_edge8_Node000062_Node000064"><a xlink:title=" ">
<path fill="none" stroke="#63b8ff" d="M408.73,-245.15C414.5,-236.36 421.18,-226.21 425.84,-219.11"/>
<polygon fill="#63b8ff" stroke="#63b8ff" points="405.93,-243.04 403.36,-253.32 411.78,-246.88 405.93,-243.04"/>
</a>
</g>
</g>
<!-- Node158&#45;&gt;Node167 -->
<g id="edge16_Node000158_Node000167" class="edge">
<title>Node158&#45;&gt;Node167</title>
<g id="a_edge16_Node000158_Node000167"><a xlink:title=" ">
<path fill="none" stroke="#63b8ff" d="M1203.63,-244.58C1208.18,-235.92 1213.37,-226.06 1217.03,-219.11"/>
<polygon fill="#63b8ff" stroke="#63b8ff" points="1200.63,-242.76 1199.08,-253.24 1206.83,-246.02 1200.63,-242.76"/>
</a>
</g>
</g>
<!-- Node167&#45;&gt;Node171 -->
<g id="edge17_Node000167_Node000171" class="edge">
<title>Node167&#45;&gt;Node171</title>
<g id="a_edge17_Node000167_Node000171"><a xlink:title=" ">
<path fill="none" stroke="#63b8ff" d="M1234.28,-189.68C1241.38,-179.23 1249.96,-166.6 1255.62,-158.28"/>
<polygon fill="#63b8ff" stroke="#63b8ff" points="1231.4,-187.69 1228.68,-197.93 1237.19,-191.63 1231.4,-187.69"/>
</a>
</g>
</g>
<!-- Node16 -->
<g id="Node000016" class="node">
<title>Node16</title>
<g id="a_Node000016"><a xlink:href="_ajax_2_heating_2_simulated_2_cmd_8h.html" target="_top" xlink:title=" ">
<polygon fill="white" stroke="#666666" points="2160.75,-97 2042.75,-97 2042.75,-66.5 2160.75,-66.5 2160.75,-97"/>
<text text-anchor="start" x="2050.75" y="-83.5" font-family="Helvetica,sans-Serif" font-size="10.00">Ajax/Heating/Simulated</text>
<text text-anchor="middle" x="2101.75" y="-72.25" font-family="Helvetica,sans-Serif" font-size="10.00">/Cmd.h</text>
</a>
</g>
</g>
<!-- Node15&#45;&gt;Node16 -->
<g id="edge22_Node000015_Node000016" class="edge">
<title>Node15&#45;&gt;Node16</title>
<g id="a_edge22_Node000015_Node000016"><a xlink:title=" ">
<path fill="none" stroke="#63b8ff" d="M1540,-243.32C1542.57,-229.34 1548.06,-211.17 1559.75,-199.5 1624.25,-135.1 1664.98,-153.7 1753.75,-133 1875.94,-104.51 1910.03,-117.88 2033.75,-97 2036.6,-96.52 2039.52,-96 2042.46,-95.46"/>
<polygon fill="#63b8ff" stroke="#63b8ff" points="1536.54,-242.78 1538.58,-253.18 1543.47,-243.78 1536.54,-242.78"/>
</a>
</g>
</g>
<!-- Node15&#45;&gt;Node27 -->
<g id="edge23_Node000015_Node000027" class="edge">
<title>Node15&#45;&gt;Node27</title>
<g id="a_edge23_Node000015_Node000027"><a xlink:title=" ">
<path fill="none" stroke="#63b8ff" d="M1563.95,-248.84C1581.01,-239.38 1602.74,-227.33 1617.39,-219.2"/>
<polygon fill="#63b8ff" stroke="#63b8ff" points="1562.41,-245.7 1555.36,-253.61 1565.8,-251.82 1562.41,-245.7"/>
</a>
</g>
</g>
<!-- Node95 -->
<g id="Node000095" class="node">
<title>Node95</title>
<g id="a_Node000095"><a xlink:href="_bit_array16_8h.html" target="_top" xlink:title=" ">
<polygon fill="white" stroke="#666666" points="1882.88,-157.88 1762.62,-157.88 1762.62,-138.62 1882.88,-138.62 1882.88,-157.88"/>
<text text-anchor="middle" x="1822.75" y="-144.38" font-family="Helvetica,sans-Serif" font-size="10.00">Cpl/Dm/Mp/BitArray16.h</text>
</a>
</g>
</g>
<!-- Node193&#45;&gt;Node95 -->
<g id="edge31_Node000193_Node000095" class="edge">
<title>Node193&#45;&gt;Node95</title>
<g id="a_edge31_Node000193_Node000095"><a xlink:title=" ">
<path fill="none" stroke="#63b8ff" d="M2271.22,-251.82C2171.71,-229.06 1952.23,-178.86 1862.33,-158.3"/>
<polygon fill="#63b8ff" stroke="#63b8ff" points="2270.17,-255.17 2280.7,-253.99 2271.73,-248.35 2270.17,-255.17"/>
</a>
</g>
</g>
<!-- Node193&#45;&gt;Node92 -->
<g id="edge32_Node000193_Node000092" class="edge">
<title>Node193&#45;&gt;Node92</title>
<g id="a_edge32_Node000193_Node000092"><a xlink:title=" ">
<path fill="none" stroke="#63b8ff" d="M2356.53,-250.42C2382.5,-240.75 2417.32,-227.79 2440.37,-219.2"/>
<polygon fill="#63b8ff" stroke="#63b8ff" points="2355.58,-247.04 2347.43,-253.81 2358.02,-253.6 2355.58,-247.04"/>
</a>
</g>
</g>
<!-- Node92&#45;&gt;Node95 -->
<g id="edge38_Node000092_Node000095" class="edge">
<title>Node92&#45;&gt;Node95</title>
<g id="a_edge38_Node000092_Node000095"><a xlink:title=" ">
<path fill="none" stroke="#63b8ff" d="M2397.06,-205.62C2289.55,-201.01 2073.34,-189.22 1891.75,-163.5 1882.18,-162.14 1871.95,-160.27 1862.37,-158.32"/>
<polygon fill="#63b8ff" stroke="#63b8ff" points="2396.72,-209.1 2406.86,-206.03 2397.02,-202.11 2396.72,-209.1"/>
</a>
</g>
</g>
<!-- Node93 -->
<g id="Node000093" class="node">
<title>Node93</title>
<g id="a_Node000093"><a xlink:href="_mp_screen_api_ptr_8h.html" target="_top" xlink:title=" ">
<polygon fill="white" stroke="#666666" points="2047,-163.5 1900.5,-163.5 1900.5,-133 2047,-133 2047,-163.5"/>
<text text-anchor="start" x="1908.5" y="-150" font-family="Helvetica,sans-Serif" font-size="10.00">Ajax/ScreenMgr/MpScreenApi</text>
<text text-anchor="middle" x="1973.75" y="-138.75" font-family="Helvetica,sans-Serif" font-size="10.00">Ptr.h</text>
</a>
</g>
</g>
<!-- Node92&#45;&gt;Node93 -->
<g id="edge33_Node000092_Node000093" class="edge">
<title>Node92&#45;&gt;Node93</title>
<g id="a_edge33_Node000092_Node000093"><a xlink:title=" ">
<path fill="none" stroke="#63b8ff" d="M2397.32,-202.09C2316.11,-194.51 2175.65,-180.44 2055.75,-163.5 2053.03,-163.12 2050.27,-162.71 2047.47,-162.29"/>
<polygon fill="#63b8ff" stroke="#63b8ff" points="2396.59,-205.54 2406.87,-202.97 2397.23,-198.57 2396.59,-205.54"/>
</a>
</g>
</g>
<!-- Node94 -->
<g id="Node000094" class="node">
<title>Node94</title>
<g id="a_Node000094"><a xlink:href="_mp_static_screen_api_ptr_8h.html" target="_top" xlink:title=" ">
<polygon fill="white" stroke="#666666" points="2222.62,-163.5 2064.88,-163.5 2064.88,-133 2222.62,-133 2222.62,-163.5"/>
<text text-anchor="start" x="2072.88" y="-150" font-family="Helvetica,sans-Serif" font-size="10.00">Ajax/ScreenMgr/MpStaticScreen</text>
<text text-anchor="middle" x="2143.75" y="-138.75" font-family="Helvetica,sans-Serif" font-size="10.00">ApiPtr.h</text>
</a>
</g>
</g>
<!-- Node92&#45;&gt;Node94 -->
<g id="edge36_Node000092_Node000094" class="edge">
<title>Node92&#45;&gt;Node94</title>
<g id="a_edge36_Node000092_Node000094"><a xlink:title=" ">
<path fill="none" stroke="#63b8ff" d="M2404.06,-196.99C2352.76,-187.58 2278.89,-174.04 2222.94,-163.77"/>
<polygon fill="#63b8ff" stroke="#63b8ff" points="2403.34,-200.42 2413.81,-198.78 2404.6,-193.54 2403.34,-200.42"/>
</a>
</g>
</g>
<!-- Node96 -->
<g id="Node000096" class="node">
<title>Node96</title>
<g id="a_Node000096"><a xlink:href="_double_8h.html" target="_top" xlink:title=" ">
<polygon fill="white" stroke="#666666" points="2346.38,-157.88 2241.12,-157.88 2241.12,-138.62 2346.38,-138.62 2346.38,-157.88"/>
<text text-anchor="middle" x="2293.75" y="-144.38" font-family="Helvetica,sans-Serif" font-size="10.00">Cpl/Dm/Mp/Double.h</text>
</a>
</g>
</g>
<!-- Node92&#45;&gt;Node96 -->
<g id="edge39_Node000092_Node000096" class="edge">
<title>Node92&#45;&gt;Node96</title>
<g id="a_edge39_Node000092_Node000096"><a xlink:title=" ">
<path fill="none" stroke="#63b8ff" d="M2427.56,-195.32C2395.12,-184.15 2348.88,-168.23 2320.12,-158.33"/>
<polygon fill="#63b8ff" stroke="#63b8ff" points="2426.38,-198.62 2436.97,-198.56 2428.66,-192 2426.38,-198.62"/>
</a>
</g>
</g>
<!-- Node97 -->
<g id="Node000097" class="node">
<title>Node97</title>
<g id="a_Node000097"><a xlink:href="_float_8h.html" target="_top" xlink:title=" ">
<polygon fill="white" stroke="#666666" points="2461.25,-157.88 2364.25,-157.88 2364.25,-138.62 2461.25,-138.62 2461.25,-157.88"/>
<text text-anchor="middle" x="2412.75" y="-144.38" font-family="Helvetica,sans-Serif" font-size="10.00">Cpl/Dm/Mp/Float.h</text>
</a>
</g>
</g>
<!-- Node92&#45;&gt;Node97 -->
<g id="edge42_Node000092_Node000097" class="edge">
<title>Node92&#45;&gt;Node97</title>
<g id="a_edge42_Node000092_Node000097"><a xlink:title=" ">
<path fill="none" stroke="#63b8ff" d="M2449.32,-190.66C2439.93,-180.02 2428.31,-166.86 2420.72,-158.28"/>
<polygon fill="#63b8ff" stroke="#63b8ff" points="2446.61,-192.87 2455.85,-198.05 2451.85,-188.24 2446.61,-192.87"/>
</a>
</g>
</g>
<!-- Node98 -->
<g id="Node000098" class="node">
<title>Node98</title>
<g id="a_Node000098"><a xlink:href="_int32_8h.html" target="_top" xlink:title=" ">
<polygon fill="white" stroke="#666666" points="2576.25,-157.88 2479.25,-157.88 2479.25,-138.62 2576.25,-138.62 2576.25,-157.88"/>
<text text-anchor="middle" x="2527.75" y="-144.38" font-family="Helvetica,sans-Serif" font-size="10.00">Cpl/Dm/Mp/Int32.h</text>
</a>
</g>
</g>
<!-- Node92&#45;&gt;Node98 -->
<g id="edge45_Node000092_Node000098" class="edge">
<title>Node92&#45;&gt;Node98</title>
<g id="a_edge45_Node000092_Node000098"><a xlink:title=" ">
<path fill="none" stroke="#63b8ff" d="M2482.41,-191.62C2493.97,-180.82 2508.62,-167.12 2518.09,-158.28"/>
<polygon fill="#63b8ff" stroke="#63b8ff" points="2480.34,-188.76 2475.42,-198.15 2485.12,-193.88 2480.34,-188.76"/>
</a>
</g>
</g>
<!-- Node104 -->
<g id="Node000104" class="node">
<title>Node104</title>
<g id="a_Node000104"><a xlink:href="_int64_8h.html" target="_top" xlink:title=" ">
<polygon fill="white" stroke="#666666" points="2691.25,-157.88 2594.25,-157.88 2594.25,-138.62 2691.25,-138.62 2691.25,-157.88"/>
<text text-anchor="middle" x="2642.75" y="-144.38" font-family="Helvetica,sans-Serif" font-size="10.00">Cpl/Dm/Mp/Int64.h</text>
</a>
</g>
</g>
<!-- Node92&#45;&gt;Node104 -->
<g id="edge54_Node000092_Node000104" class="edge">
<title>Node92&#45;&gt;Node104</title>
<g id="a_edge54_Node000092_Node000104"><a xlink:title=" ">
<path fill="none" stroke="#63b8ff" d="M2503.02,-195.47C2536.81,-184.29 2585.23,-168.27 2615.3,-158.33"/>
<polygon fill="#63b8ff" stroke="#63b8ff" points="2502,-192.12 2493.61,-198.58 2504.2,-198.76 2502,-192.12"/>
</a>
</g>
</g>
<!-- Node105 -->
<g id="Node000105" class="node">
<title>Node105</title>
<g id="a_Node000105"><a xlink:href="_uint32_8h.html" target="_top" xlink:title=" ">
<polygon fill="#fff0f0" stroke="red" points="3222.62,-91.38 3118.88,-91.38 3118.88,-72.12 3222.62,-72.12 3222.62,-91.38"/>
<text text-anchor="middle" x="3170.75" y="-77.88" font-family="Helvetica,sans-Serif" font-size="10.00">Cpl/Dm/Mp/Uint32.h</text>
</a>
</g>
</g>
<!-- Node92&#45;&gt;Node105 -->
<g id="edge55_Node000092_Node000105" class="edge">
<title>Node92&#45;&gt;Node105</title>
<g id="a_edge55_Node000092_Node000105"><a xlink:title=" ">
<path fill="none" stroke="#63b8ff" d="M2532.32,-204.11C2581.01,-199.16 2647.28,-188.13 2700.75,-163.5 2720.42,-154.44 2718.69,-141.16 2738.75,-133 2892.19,-70.55 2946.29,-123.9 3109.75,-97 3118.12,-95.62 3127.05,-93.76 3135.43,-91.84"/>
<polygon fill="#63b8ff" stroke="#63b8ff" points="2532.09,-200.61 2522.47,-205.04 2532.75,-207.58 2532.09,-200.61"/>
</a>
</g>
</g>
<!-- Node111 -->
<g id="Node000111" class="node">
<title>Node111</title>
<g id="a_Node000111"><a xlink:href="_uint64_8h.html" target="_top" xlink:title=" ">
<polygon fill="#fff0f0" stroke="red" points="2851.62,-157.88 2747.88,-157.88 2747.88,-138.62 2851.62,-138.62 2851.62,-157.88"/>
<text text-anchor="middle" x="2799.75" y="-144.38" font-family="Helvetica,sans-Serif" font-size="10.00">Cpl/Dm/Mp/Uint64.h</text>
</a>
</g>
</g>
<!-- Node92&#45;&gt;Node111 -->
<g id="edge57_Node000092_Node000111" class="edge">
<title>Node92&#45;&gt;Node111</title>
<g id="a_edge57_Node000092_Node000111"><a xlink:title=" ">
<path fill="none" stroke="#63b8ff" d="M2532.3,-197.84C2586.8,-189.33 2665.37,-176.55 2733.75,-163.5 2742.04,-161.92 2750.89,-160.1 2759.32,-158.3"/>
<polygon fill="#63b8ff" stroke="#63b8ff" points="2531.89,-194.37 2522.54,-199.36 2532.96,-201.28 2531.89,-194.37"/>
</a>
</g>
</g>
<!-- Node113 -->
<g id="Node000113" class="node">
<title>Node113</title>
<g id="a_Node000113"><a xlink:href="_void_8h.html" target="_top" xlink:title=" ">
<polygon fill="white" stroke="#666666" points="2964.12,-157.88 2869.38,-157.88 2869.38,-138.62 2964.12,-138.62 2964.12,-157.88"/>
<text text-anchor="middle" x="2916.75" y="-144.38" font-family="Helvetica,sans-Serif" font-size="10.00">Cpl/Dm/Mp/Void.h</text>
</a>
</g>
</g>
<!-- Node92&#45;&gt;Node113 -->
<g id="edge58_Node000092_Node000113" class="edge">
<title>Node92&#45;&gt;Node113</title>
<g id="a_edge58_Node000092_Node000113"><a xlink:title=" ">
<path fill="none" stroke="#63b8ff" d="M2532.44,-203.33C2611.62,-197.08 2746.42,-184.39 2860.75,-163.5 2868.35,-162.11 2876.44,-160.27 2884.05,-158.37"/>
<polygon fill="#63b8ff" stroke="#63b8ff" points="2532.38,-199.83 2522.68,-204.09 2532.92,-206.81 2532.38,-199.83"/>
</a>
</g>
</g>
<!-- Node85 -->
<g id="Node000085" class="node">
<title>Node85</title>
<g id="a_Node000085"><a xlink:href="_ajax_2_screen_mgr_2_api_8h.html" target="_top" xlink:title=" ">
<polygon fill="#fff0f0" stroke="red" points="2024.62,-91.38 1914.88,-91.38 1914.88,-72.12 2024.62,-72.12 2024.62,-91.38"/>
<text text-anchor="middle" x="1969.75" y="-77.88" font-family="Helvetica,sans-Serif" font-size="10.00">Ajax/ScreenMgr/Api.h</text>
</a>
</g>
</g>
<!-- Node93&#45;&gt;Node85 -->
<g id="edge34_Node000093_Node000085" class="edge">
<title>Node93&#45;&gt;Node85</title>
<g id="a_edge34_Node000093_Node000085"><a xlink:title=" ">
<path fill="none" stroke="#63b8ff" d="M1972.14,-121.34C1971.49,-110.76 1970.77,-99.25 1970.3,-91.57"/>
<polygon fill="#63b8ff" stroke="#63b8ff" points="1968.64,-121.34 1972.75,-131.1 1975.62,-120.91 1968.64,-121.34"/>
</a>
</g>
</g>
<!-- Node72 -->
<g id="Node000072" class="node">
<title>Node72</title>
<g id="a_Node000072"><a xlink:href="_ajax_2_ui_2_home_2_screen_8h.html" target="_top" xlink:title=" ">
<polygon fill="#fff0f0" stroke="red" points="2209.75,-24.88 2091.75,-24.88 2091.75,-5.63 2209.75,-5.63 2209.75,-24.88"/>
<text text-anchor="middle" x="2150.75" y="-11.38" font-family="Helvetica,sans-Serif" font-size="10.00">Ajax/Ui/Home/Screen.h</text>
</a>
</g>
</g>
<!-- Node85&#45;&gt;Node72 -->
<g id="edge35_Node000085_Node000072" class="edge">
<title>Node85&#45;&gt;Node72</title>
<g id="a_edge35_Node000085_Node000072"><a xlink:title=" ">
<path fill="none" stroke="#63b8ff" d="M2006.12,-67.79C2041.48,-55.19 2094.26,-36.38 2125.33,-25.31"/>
<polygon fill="#63b8ff" stroke="#63b8ff" points="2004.97,-64.48 1996.72,-71.14 2007.32,-71.08 2004.97,-64.48"/>
</a>
</g>
</g>
<!-- Node94&#45;&gt;Node85 -->
<g id="edge37_Node000094_Node000085" class="edge">
<title>Node94&#45;&gt;Node85</title>
<g id="a_edge37_Node000094_Node000085"><a xlink:title=" ">
<path fill="none" stroke="#63b8ff" d="M2093.58,-128.65C2061.01,-116.58 2019.99,-101.37 1994.31,-91.85"/>
<polygon fill="#63b8ff" stroke="#63b8ff" points="2092.25,-131.89 2102.85,-132.09 2094.69,-125.33 2092.25,-131.89"/>
</a>
</g>
</g>
<!-- Node96&#45;&gt;Node16 -->
<g id="edge40_Node000096_Node000016" class="edge">
<title>Node96&#45;&gt;Node16</title>
<g id="a_edge40_Node000096_Node000016"><a xlink:title=" ">
<path fill="none" stroke="#63b8ff" d="M2256.02,-134.57C2224.22,-123.89 2178.71,-108.6 2145.36,-97.4"/>
<polygon fill="#63b8ff" stroke="#63b8ff" points="2254.62,-137.8 2265.21,-137.66 2256.85,-131.16 2254.62,-137.8"/>
</a>
</g>
</g>
<!-- Node80 -->
<g id="Node000080" class="node">
<title>Node80</title>
<g id="a_Node000080"><a xlink:href="_heating_2_simulated_2_house_8h_source.html" target="_top" xlink:title=" ">
<polygon fill="white" stroke="#666666" points="2386.75,-30.5 2268.75,-30.5 2268.75,0 2386.75,0 2386.75,-30.5"/>
<text text-anchor="start" x="2276.75" y="-17" font-family="Helvetica,sans-Serif" font-size="10.00">Ajax/Heating/Simulated</text>
<text text-anchor="middle" x="2327.75" y="-5.75" font-family="Helvetica,sans-Serif" font-size="10.00">/House.h</text>
</a>
</g>
</g>
<!-- Node96&#45;&gt;Node80 -->
<g id="edge41_Node000096_Node000080" class="edge">
<title>Node96&#45;&gt;Node80</title>
<g id="a_edge41_Node000096_Node000080"><a xlink:title=" ">
<path fill="none" stroke="#63b8ff" d="M2252.91,-133.86C2235.78,-125.99 2217.59,-114.14 2207.75,-97 2201,-85.24 2200.24,-77.79 2207.75,-66.5 2221.45,-45.91 2245.39,-33.74 2268.29,-26.55"/>
<polygon fill="#63b8ff" stroke="#63b8ff" points="2251.38,-137.01 2261.95,-137.67 2254.1,-130.56 2251.38,-137.01"/>
</a>
</g>
</g>
<!-- Node11 -->
<g id="Node000011" class="node">
<title>Node11</title>
<g id="a_Node000011"><a xlink:href="_cpl_2_m_app_2_temperature_2_api_8h.html" target="_top" xlink:title=" ">
<polygon fill="white" stroke="#666666" points="2333,-97 2216.5,-97 2216.5,-66.5 2333,-66.5 2333,-97"/>
<text text-anchor="start" x="2224.5" y="-83.5" font-family="Helvetica,sans-Serif" font-size="10.00">Cpl/MApp/Temperature</text>
<text text-anchor="middle" x="2274.75" y="-72.25" font-family="Helvetica,sans-Serif" font-size="10.00">/Api.h</text>
</a>
</g>
</g>
<!-- Node97&#45;&gt;Node11 -->
<g id="edge43_Node000097_Node000011" class="edge">
<title>Node97&#45;&gt;Node11</title>
<g id="a_edge43_Node000097_Node000011"><a xlink:title=" ">
<path fill="none" stroke="#63b8ff" d="M2382.89,-133.29C2360.22,-122.7 2329.12,-108.16 2306.09,-97.4"/>
<polygon fill="#63b8ff" stroke="#63b8ff" points="2381.36,-136.44 2391.9,-137.5 2384.32,-130.1 2381.36,-136.44"/>
</a>
</g>
</g>
<!-- Node88 -->
<g id="Node000088" class="node">
<title>Node88</title>
<g id="a_Node000088"><a xlink:href="_driver_2_r_h_temp_2_simulated_2_api_8h.html" target="_top" xlink:title=" ">
<polygon fill="white" stroke="#666666" points="2480.75,-97 2350.75,-97 2350.75,-66.5 2480.75,-66.5 2480.75,-97"/>
<text text-anchor="start" x="2358.75" y="-83.5" font-family="Helvetica,sans-Serif" font-size="10.00">Driver/RHTemp/Simulated</text>
<text text-anchor="middle" x="2415.75" y="-72.25" font-family="Helvetica,sans-Serif" font-size="10.00">/Api.h</text>
</a>
</g>
</g>
<!-- Node97&#45;&gt;Node88 -->
<g id="edge44_Node000097_Node000088" class="edge">
<title>Node97&#45;&gt;Node88</title>
<g id="a_edge44_Node000097_Node000088"><a xlink:title=" ">
<path fill="none" stroke="#63b8ff" d="M2413.7,-126.87C2414.15,-117.19 2414.68,-105.85 2415.08,-97.09"/>
<polygon fill="#63b8ff" stroke="#63b8ff" points="2410.21,-126.62 2413.24,-136.77 2417.2,-126.94 2410.21,-126.62"/>
</a>
</g>
</g>
<!-- Node98&#45;&gt;Node16 -->
<g id="edge46_Node000098_Node000016" class="edge">
<title>Node98&#45;&gt;Node16</title>
<g id="a_edge46_Node000098_Node000016"><a xlink:title=" ">
<path fill="none" stroke="#63b8ff" d="M2483.16,-135.61C2478.98,-134.67 2474.79,-133.78 2470.75,-133 2463.21,-131.55 2263.6,-104.57 2161.18,-90.76"/>
<polygon fill="#63b8ff" stroke="#63b8ff" points="2482.12,-138.96 2492.66,-137.85 2483.73,-132.15 2482.12,-138.96"/>
</a>
</g>
</g>
<!-- Node98&#45;&gt;Node72 -->
<g id="edge50_Node000098_Node000072" class="edge">
<title>Node98&#45;&gt;Node72</title>
<g id="a_edge50_Node000098_Node000072"><a xlink:title=" ">
<path fill="none" stroke="#63b8ff" d="M2523.91,-127.07C2519.21,-108.29 2509.35,-81.06 2489.75,-66.5 2484.17,-62.35 2305.86,-37.45 2210.14,-24.33"/>
<polygon fill="#63b8ff" stroke="#63b8ff" points="2520.47,-127.72 2526.02,-136.75 2527.31,-126.23 2520.47,-127.72"/>
</a>
</g>
</g>
<!-- Node78 -->
<g id="Node000078" class="node">
<title>Node78</title>
<g id="a_Node000078"><a xlink:href="_ajax_2_heating_2_supervisor_2_api_8h.html" target="_top" xlink:title=" ">
<polygon fill="white" stroke="#666666" points="2658.25,-97 2537.25,-97 2537.25,-66.5 2658.25,-66.5 2658.25,-97"/>
<text text-anchor="start" x="2545.25" y="-83.5" font-family="Helvetica,sans-Serif" font-size="10.00">Ajax/Heating/Supervisor</text>
<text text-anchor="middle" x="2597.75" y="-72.25" font-family="Helvetica,sans-Serif" font-size="10.00">/Api.h</text>
</a>
</g>
</g>
<!-- Node98&#45;&gt;Node78 -->
<g id="edge47_Node000098_Node000078" class="edge">
<title>Node98&#45;&gt;Node78</title>
<g id="a_edge47_Node000098_Node000078"><a xlink:title=" ">
<path fill="none" stroke="#63b8ff" d="M2545.67,-130.74C2556.86,-120.42 2571.14,-107.27 2581.92,-97.34"/>
<polygon fill="#63b8ff" stroke="#63b8ff" points="2543.58,-127.91 2538.6,-137.26 2548.32,-133.05 2543.58,-127.91"/>
</a>
</g>
</g>
<!-- Node99 -->
<g id="Node000099" class="node">
<title>Node99</title>
<g id="a_Node000099"><a xlink:href="_ajax_2_thermistor_8h.html" target="_top" xlink:title=" ">
<polygon fill="#fff0f0" stroke="red" points="2817,-91.38 2676.5,-91.38 2676.5,-72.12 2817,-72.12 2817,-91.38"/>
<text text-anchor="middle" x="2746.75" y="-77.88" font-family="Helvetica,sans-Serif" font-size="10.00">Driver/AIO/Ajax/Thermistor.h</text>
</a>
</g>
</g>
<!-- Node98&#45;&gt;Node99 -->
<g id="edge51_Node000098_Node000099" class="edge">
<title>Node98&#45;&gt;Node99</title>
<g id="a_edge51_Node000098_Node000099"><a xlink:title=" ">
<path fill="none" stroke="#63b8ff" d="M2569.55,-134.94C2612.31,-122.34 2677.75,-103.07 2715.99,-91.81"/>
<polygon fill="#63b8ff" stroke="#63b8ff" points="2568.72,-131.54 2560.11,-137.72 2570.7,-138.25 2568.72,-131.54"/>
</a>
</g>
</g>
<!-- Node101 -->
<g id="Node000101" class="node">
<title>Node101</title>
<g id="a_Node000101"><a xlink:href="_eros_2_ui_2_home_2_screen_8h.html" target="_top" xlink:title=" ">
<polygon fill="#fff0f0" stroke="red" points="2954.12,-91.38 2835.38,-91.38 2835.38,-72.12 2954.12,-72.12 2954.12,-91.38"/>
<text text-anchor="middle" x="2894.75" y="-77.88" font-family="Helvetica,sans-Serif" font-size="10.00">Eros/Ui/Home/Screen.h</text>
</a>
</g>
</g>
<!-- Node98&#45;&gt;Node101 -->
<g id="edge52_Node000098_Node000101" class="edge">
<title>Node98&#45;&gt;Node101</title>
<g id="a_edge52_Node000098_Node000101"><a xlink:title=" ">
<path fill="none" stroke="#63b8ff" d="M2573.47,-135.6C2577.61,-134.67 2581.75,-133.79 2585.75,-133 2691.57,-112.11 2719.56,-115.91 2825.75,-97 2834.42,-95.46 2843.67,-93.65 2852.49,-91.86"/>
<polygon fill="#63b8ff" stroke="#63b8ff" points="2573.02,-132.11 2564.07,-137.79 2574.61,-138.93 2573.02,-132.11"/>
</a>
</g>
</g>
<!-- Node103 -->
<g id="Node000103" class="node">
<title>Node103</title>
<g id="a_Node000103"><a xlink:href="_eros_2_ui_2_lcd_test_2_screen_8h.html" target="_top" xlink:title=" ">
<polygon fill="#fff0f0" stroke="red" points="3101,-91.38 2972.5,-91.38 2972.5,-72.12 3101,-72.12 3101,-91.38"/>
<text text-anchor="middle" x="3036.75" y="-77.88" font-family="Helvetica,sans-Serif" font-size="10.00">Eros/Ui/LcdTest/Screen.h</text>
</a>
</g>
</g>
<!-- Node98&#45;&gt;Node103 -->
<g id="edge53_Node000098_Node000103" class="edge">
<title>Node98&#45;&gt;Node103</title>
<g id="a_edge53_Node000098_Node000103"><a xlink:title=" ">
<path fill="none" stroke="#63b8ff" d="M2572.2,-135.63C2576.76,-134.65 2581.33,-133.75 2585.75,-133 2751.7,-104.85 2796.14,-120.94 2962.75,-97 2972.72,-95.57 2983.39,-93.71 2993.43,-91.81"/>
<polygon fill="#63b8ff" stroke="#63b8ff" points="2571.45,-132.21 2562.48,-137.86 2573.01,-139.04 2571.45,-132.21"/>
</a>
</g>
</g>
<!-- Node78&#45;&gt;Node80 -->
<g id="edge49_Node000078_Node000080" class="edge">
<title>Node78&#45;&gt;Node80</title>
<g id="a_edge49_Node000078_Node000080"><a xlink:title=" ">
<path fill="none" stroke="#63b8ff" d="M2525.77,-63.56C2482.43,-53.2 2427.92,-40.18 2387.07,-30.42"/>
<polygon fill="#63b8ff" stroke="#63b8ff" points="2524.81,-66.92 2535.35,-65.84 2526.43,-60.12 2524.81,-66.92"/>
</a>
</g>
</g>
<!-- Node79 -->
<g id="Node000079" class="node">
<title>Node79</title>
<g id="a_Node000079"><a xlink:href="_ajax_2_heating_2_io_2_api_8h.html" target="_top" xlink:title=" ">
<polygon fill="white" stroke="#666666" points="2937.5,-24.88 2830,-24.88 2830,-5.63 2937.5,-5.63 2937.5,-24.88"/>
<text text-anchor="middle" x="2883.75" y="-11.38" font-family="Helvetica,sans-Serif" font-size="10.00">Ajax/Heating/Io/Api.h</text>
</a>
</g>
</g>
<!-- Node78&#45;&gt;Node79 -->
<g id="edge48_Node000078_Node000079" class="edge">
<title>Node78&#45;&gt;Node79</title>
<g id="a_edge48_Node000078_Node000079"><a xlink:title=" ">
<path fill="none" stroke="#63b8ff" d="M2669.48,-64.57C2724.47,-52.17 2798.34,-35.51 2843.42,-25.35"/>
<polygon fill="#63b8ff" stroke="#63b8ff" points="2668.86,-61.12 2659.88,-66.74 2670.4,-67.95 2668.86,-61.12"/>
</a>
</g>
</g>
<!-- Node105&#45;&gt;Node79 -->
<g id="edge56_Node000105_Node000079" class="edge">
<title>Node105&#45;&gt;Node79</title>
<g id="a_edge56_Node000105_Node000079"><a xlink:title=" ">
<path fill="none" stroke="#63b8ff" d="M3120.83,-69.04C3117.08,-68.18 3113.36,-67.32 3109.75,-66.5 3045.28,-51.8 2970.35,-35.25 2925.02,-25.29"/>
<polygon fill="#63b8ff" stroke="#63b8ff" points="3120.03,-72.45 3130.57,-71.3 3121.62,-65.63 3120.03,-72.45"/>
</a>
</g>
</g>
</g>
</svg>
