<?xml version="1.0" encoding="UTF-8" standalone="no"?>
<!DOCTYPE svg PUBLIC "-//W3C//DTD SVG 1.1//EN"
 "http://www.w3.org/Graphics/SVG/1.1/DTD/svg11.dtd">
<!-- Generated by graphviz version 9.0.0 (20230911.1827)
 -->
<!-- Title: Cpl/System/FreeRTOS/Thread.h Pages: 1 -->
<svg width="722pt" height="425pt"
 viewBox="0.00 0.00 721.75 425.25" xmlns="http://www.w3.org/2000/svg" xmlns:xlink="http://www.w3.org/1999/xlink">
<g id="graph0" class="graph" transform="scale(1 1) rotate(0) translate(4 421.25)">
<title>Cpl/System/FreeRTOS/Thread.h</title>
<!-- Node1 -->
<g id="Node000001" class="node">
<title>Node1</title>
<g id="a_Node000001"><a xlink:title=" ">
<polygon fill="#999999" stroke="#666666" points="301.88,-417.25 186.12,-417.25 186.12,-386.75 301.88,-386.75 301.88,-417.25"/>
<text text-anchor="start" x="194.12" y="-403.75" font-family="Helvetica,sans-Serif" font-size="10.00">Cpl/System/FreeRTOS</text>
<text text-anchor="middle" x="244" y="-392.5" font-family="Helvetica,sans-Serif" font-size="10.00">/Thread.h</text>
</a>
</g>
</g>
<!-- Node2 -->
<g id="Node000002" class="node">
<title>Node2</title>
<g id="a_Node000002"><a xlink:title=" ">
<polygon fill="#e0e0e0" stroke="#999999" points="236,-19.25 154,-19.25 154,0 236,0 236,-19.25"/>
<text text-anchor="middle" x="195" y="-5.75" font-family="Helvetica,sans-Serif" font-size="10.00">colony_config.h</text>
</a>
</g>
</g>
<!-- Node1&#45;&gt;Node2 -->
<g id="edge1_Node000001_Node000002" class="edge">
<title>Node1&#45;&gt;Node2</title>
<g id="a_edge1_Node000001_Node000002"><a xlink:title=" ">
<path fill="none" stroke="#63b8ff" d="M185.87,-398.51C113.7,-391.93 0,-368.6 0,-286.88 0,-286.88 0,-286.88 0,-119.12 0,-53.75 84.73,-27.42 142.49,-17.06"/>
<polygon fill="#63b8ff" stroke="#63b8ff" points="142.87,-20.55 152.15,-15.45 141.71,-13.64 142.87,-20.55"/>
</a>
</g>
</g>
<!-- Node3 -->
<g id="Node000003" class="node">
<title>Node3</title>
<g id="a_Node000003"><a xlink:href="_thread_8h.html" target="_top" xlink:title=" ">
<polygon fill="white" stroke="#666666" points="297.38,-350.75 190.62,-350.75 190.62,-331.5 297.38,-331.5 297.38,-350.75"/>
<text text-anchor="middle" x="244" y="-337.25" font-family="Helvetica,sans-Serif" font-size="10.00">Cpl/System/Thread.h</text>
</a>
</g>
</g>
<!-- Node1&#45;&gt;Node3 -->
<g id="edge2_Node000001_Node000003" class="edge">
<title>Node1&#45;&gt;Node3</title>
<g id="a_edge2_Node000001_Node000003"><a xlink:title=" ">
<path fill="none" stroke="#63b8ff" d="M244,-386.45C244,-379.21 244,-370.34 244,-362.44"/>
<polygon fill="#63b8ff" stroke="#63b8ff" points="247.5,-362.71 244,-352.71 240.5,-362.71 247.5,-362.71"/>
</a>
</g>
</g>
<!-- Node10 -->
<g id="Node000010" class="node">
<title>Node10</title>
<g id="a_Node000010"><a xlink:href="_tls_8h.html" target="_top" xlink:title=" ">
<polygon fill="white" stroke="#666666" points="118.12,-129.75 27.88,-129.75 27.88,-110.5 118.12,-110.5 118.12,-129.75"/>
<text text-anchor="middle" x="73" y="-116.25" font-family="Helvetica,sans-Serif" font-size="10.00">Cpl/System/Tls.h</text>
</a>
</g>
</g>
<!-- Node1&#45;&gt;Node10 -->
<g id="edge9_Node000001_Node000010" class="edge">
<title>Node1&#45;&gt;Node10</title>
<g id="a_edge9_Node000001_Node000010"><a xlink:title=" ">
<path fill="none" stroke="#63b8ff" d="M185.75,-391.13C130.22,-378 55,-348.78 55,-286.88 55,-286.88 55,-286.88 55,-229.62 55,-198.34 62.37,-162.66 67.68,-141.02"/>
<polygon fill="#63b8ff" stroke="#63b8ff" points="71.03,-142.07 70.12,-131.51 64.25,-140.33 71.03,-142.07"/>
</a>
</g>
</g>
<!-- Node11 -->
<g id="Node000011" class="node">
<title>Node11</title>
<g id="a_Node000011"><a xlink:href="_f_string_8h.html" target="_top" xlink:title=" ">
<polygon fill="white" stroke="#666666" points="541,-350.75 447,-350.75 447,-331.5 541,-331.5 541,-350.75"/>
<text text-anchor="middle" x="494" y="-337.25" font-family="Helvetica,sans-Serif" font-size="10.00">Cpl/Text/FString.h</text>
</a>
</g>
</g>
<!-- Node1&#45;&gt;Node11 -->
<g id="edge12_Node000001_Node000011" class="edge">
<title>Node1&#45;&gt;Node11</title>
<g id="a_edge12_Node000001_Node000011"><a xlink:title=" ">
<path fill="none" stroke="#63b8ff" d="M302.3,-387.27C345.42,-377.11 403.53,-363.43 444.43,-353.8"/>
<polygon fill="#63b8ff" stroke="#63b8ff" points="445.08,-357.24 454.01,-351.54 443.47,-350.43 445.08,-357.24"/>
</a>
</g>
</g>
<!-- Node22 -->
<g id="Node000022" class="node">
<title>Node22</title>
<g id="a_Node000022"><a xlink:title=" ">
<polygon fill="#e0e0e0" stroke="#999999" points="601.12,-350.75 558.88,-350.75 558.88,-331.5 601.12,-331.5 601.12,-350.75"/>
<text text-anchor="middle" x="580" y="-337.25" font-family="Helvetica,sans-Serif" font-size="10.00">task.h</text>
</a>
</g>
</g>
<!-- Node1&#45;&gt;Node22 -->
<g id="edge28_Node000001_Node000022" class="edge">
<title>Node1&#45;&gt;Node22</title>
<g id="a_edge28_Node000001_Node000022"><a xlink:title=" ">
<path fill="none" stroke="#63b8ff" d="M302.2,-393.51C361.63,-385.4 456.73,-371.16 547.41,-351.12"/>
<polygon fill="#63b8ff" stroke="#63b8ff" points="547.98,-354.58 556.97,-348.98 546.45,-347.75 547.98,-354.58"/>
</a>
</g>
</g>
<!-- Node4 -->
<g id="Node000004" class="node">
<title>Node4</title>
<g id="a_Node000004"><a xlink:title=" ">
<polygon fill="#e0e0e0" stroke="#999999" points="235.62,-74.5 160.38,-74.5 160.38,-55.25 235.62,-55.25 235.62,-74.5"/>
<text text-anchor="middle" x="198" y="-61" font-family="Helvetica,sans-Serif" font-size="10.00">colony_map.h</text>
</a>
</g>
</g>
<!-- Node3&#45;&gt;Node4 -->
<g id="edge3_Node000003_Node000004" class="edge">
<title>Node3&#45;&gt;Node4</title>
<g id="a_edge3_Node000003_Node000004"><a xlink:title=" ">
<path fill="none" stroke="#63b8ff" d="M190.2,-336.45C162.02,-331.46 129.77,-320.26 112,-295.5 61.81,-225.55 144.6,-122.81 181.58,-82.74"/>
<polygon fill="#63b8ff" stroke="#63b8ff" points="183.94,-85.34 188.26,-75.67 178.85,-80.53 183.94,-85.34"/>
</a>
</g>
</g>
<!-- Node5 -->
<g id="Node000005" class="node">
<title>Node5</title>
<g id="a_Node000005"><a xlink:href="_runnable_8h.html" target="_top" xlink:title=" ">
<polygon fill="white" stroke="#666666" points="302.62,-295.5 185.38,-295.5 185.38,-276.25 302.62,-276.25 302.62,-295.5"/>
<text text-anchor="middle" x="244" y="-282" font-family="Helvetica,sans-Serif" font-size="10.00">Cpl/System/Runnable.h</text>
</a>
</g>
</g>
<!-- Node3&#45;&gt;Node5 -->
<g id="edge4_Node000003_Node000005" class="edge">
<title>Node3&#45;&gt;Node5</title>
<g id="a_edge4_Node000003_Node000005"><a xlink:title=" ">
<path fill="none" stroke="#63b8ff" d="M244,-331.33C244,-324.82 244,-315.67 244,-307.37"/>
<polygon fill="#63b8ff" stroke="#63b8ff" points="247.5,-307.37 244,-297.37 240.5,-307.37 247.5,-307.37"/>
</a>
</g>
</g>
<!-- Node6 -->
<g id="Node000006" class="node">
<title>Node6</title>
<g id="a_Node000006"><a xlink:href="_signable_8h.html" target="_top" xlink:title=" ">
<polygon fill="white" stroke="#666666" points="435.12,-295.5 320.88,-295.5 320.88,-276.25 435.12,-276.25 435.12,-295.5"/>
<text text-anchor="middle" x="378" y="-282" font-family="Helvetica,sans-Serif" font-size="10.00">Cpl/System/Signable.h</text>
</a>
</g>
</g>
<!-- Node3&#45;&gt;Node6 -->
<g id="edge5_Node000003_Node000006" class="edge">
<title>Node3&#45;&gt;Node6</title>
<g id="a_edge5_Node000003_Node000006"><a xlink:title=" ">
<path fill="none" stroke="#63b8ff" d="M266.73,-331.09C288.1,-322.6 320.34,-309.79 344.63,-300.14"/>
<polygon fill="#63b8ff" stroke="#63b8ff" points="345.75,-303.46 353.75,-296.51 343.16,-296.95 345.75,-303.46"/>
</a>
</g>
</g>
<!-- Node8 -->
<g id="Node000008" class="node">
<title>Node8</title>
<g id="a_Node000008"><a xlink:href="_traverser_8h.html" target="_top" xlink:title=" ">
<polygon fill="white" stroke="#666666" points="559,-295.5 453,-295.5 453,-276.25 559,-276.25 559,-295.5"/>
<text text-anchor="middle" x="506" y="-282" font-family="Helvetica,sans-Serif" font-size="10.00">Cpl/Type/Traverser.h</text>
</a>
</g>
</g>
<!-- Node3&#45;&gt;Node8 -->
<g id="edge7_Node000003_Node000008" class="edge">
<title>Node3&#45;&gt;Node8</title>
<g id="a_edge7_Node000003_Node000008"><a xlink:title=" ">
<path fill="none" stroke="#63b8ff" d="M288.74,-331.03C333.39,-321.96 402.11,-307.99 450.28,-298.2"/>
<polygon fill="#63b8ff" stroke="#63b8ff" points="450.86,-301.65 459.96,-296.23 449.46,-294.79 450.86,-301.65"/>
</a>
</g>
</g>
<!-- Node9 -->
<g id="Node000009" class="node">
<title>Node9</title>
<g id="a_Node000009"><a xlink:title=" ">
<polygon fill="#e0e0e0" stroke="#999999" points="167.38,-295.5 120.62,-295.5 120.62,-276.25 167.38,-276.25 167.38,-295.5"/>
<text text-anchor="middle" x="144" y="-282" font-family="Helvetica,sans-Serif" font-size="10.00">stdlib.h</text>
</a>
</g>
</g>
<!-- Node3&#45;&gt;Node9 -->
<g id="edge8_Node000003_Node000009" class="edge">
<title>Node3&#45;&gt;Node9</title>
<g id="a_edge8_Node000003_Node000009"><a xlink:title=" ">
<path fill="none" stroke="#63b8ff" d="M227.04,-331.09C211.74,-322.94 188.97,-310.82 171.14,-301.33"/>
<polygon fill="#63b8ff" stroke="#63b8ff" points="172.85,-298.27 162.38,-296.66 169.56,-304.45 172.85,-298.27"/>
</a>
</g>
</g>
<!-- Node7 -->
<g id="Node000007" class="node">
<title>Node7</title>
<g id="a_Node000007"><a xlink:href="_item_8h.html" target="_top" xlink:title=" ">
<polygon fill="white" stroke="#666666" points="289.25,-240.25 184.75,-240.25 184.75,-221 289.25,-221 289.25,-240.25"/>
<text text-anchor="middle" x="237" y="-226.75" font-family="Helvetica,sans-Serif" font-size="10.00">Cpl/Container/Item.h</text>
</a>
</g>
</g>
<!-- Node6&#45;&gt;Node7 -->
<g id="edge6_Node000006_Node000007" class="edge">
<title>Node6&#45;&gt;Node7</title>
<g id="a_edge6_Node000006_Node000007"><a xlink:title=" ">
<path fill="none" stroke="#63b8ff" d="M354.08,-275.84C331.5,-267.31 297.36,-254.42 271.77,-244.76"/>
<polygon fill="#63b8ff" stroke="#63b8ff" points="273.04,-241.5 262.45,-241.24 270.57,-248.04 273.04,-241.5"/>
</a>
</g>
</g>
<!-- Node10&#45;&gt;Node2 -->
<g id="edge10_Node000010_Node000002" class="edge">
<title>Node10&#45;&gt;Node2</title>
<g id="a_edge10_Node000010_Node000002"><a xlink:title=" ">
<path fill="none" stroke="#63b8ff" d="M82.98,-110.25C103.45,-92.05 150.42,-50.27 176.57,-27.01"/>
<polygon fill="#63b8ff" stroke="#63b8ff" points="178.6,-29.89 183.75,-20.63 173.95,-24.66 178.6,-29.89"/>
</a>
</g>
</g>
<!-- Node10&#45;&gt;Node4 -->
<g id="edge11_Node000010_Node000004" class="edge">
<title>Node10&#45;&gt;Node4</title>
<g id="a_edge11_Node000010_Node000004"><a xlink:title=" ">
<path fill="none" stroke="#63b8ff" d="M94.2,-110.09C113.96,-101.68 143.67,-89.02 166.25,-79.4"/>
<polygon fill="#63b8ff" stroke="#63b8ff" points="167.47,-82.68 175.3,-75.55 164.73,-76.24 167.47,-82.68"/>
</a>
</g>
</g>
<!-- Node12 -->
<g id="Node000012" class="node">
<title>Node12</title>
<g id="a_Node000012"><a xlink:href="_f_string___8h.html" target="_top" xlink:title=" ">
<polygon fill="white" stroke="#666666" points="676.62,-295.5 577.38,-295.5 577.38,-276.25 676.62,-276.25 676.62,-295.5"/>
<text text-anchor="middle" x="627" y="-282" font-family="Helvetica,sans-Serif" font-size="10.00">Cpl/Text/FString_.h</text>
</a>
</g>
</g>
<!-- Node11&#45;&gt;Node12 -->
<g id="edge13_Node000011_Node000012" class="edge">
<title>Node11&#45;&gt;Node12</title>
<g id="a_edge13_Node000011_Node000012"><a xlink:title=" ">
<path fill="none" stroke="#63b8ff" d="M516.56,-331.09C537.77,-322.6 569.77,-309.79 593.88,-300.14"/>
<polygon fill="#63b8ff" stroke="#63b8ff" points="594.94,-303.48 602.92,-296.52 592.34,-296.98 594.94,-303.48"/>
</a>
</g>
</g>
<!-- Node19 -->
<g id="Node000019" class="node">
<title>Node19</title>
<g id="a_Node000019"><a xlink:title=" ">
<polygon fill="#e0e0e0" stroke="#999999" points="713.75,-74.5 666.25,-74.5 666.25,-55.25 713.75,-55.25 713.75,-74.5"/>
<text text-anchor="middle" x="690" y="-61" font-family="Helvetica,sans-Serif" font-size="10.00">string.h</text>
</a>
</g>
</g>
<!-- Node11&#45;&gt;Node19 -->
<g id="edge27_Node000011_Node000019" class="edge">
<title>Node11&#45;&gt;Node19</title>
<g id="a_edge27_Node000011_Node000019"><a xlink:title=" ">
<path fill="none" stroke="#63b8ff" d="M541.33,-331.69C594.69,-321.78 675.44,-305.44 686,-295.5 707.57,-275.2 705,-261.24 705,-231.62 705,-231.62 705,-231.62 705,-174.38 705,-143.22 698.86,-107.5 694.43,-85.82"/>
<polygon fill="#63b8ff" stroke="#63b8ff" points="697.91,-85.35 692.4,-76.3 691.06,-86.81 697.91,-85.35"/>
</a>
</g>
</g>
<!-- Node12&#45;&gt;Node2 -->
<g id="edge14_Node000012_Node000002" class="edge">
<title>Node12&#45;&gt;Node2</title>
<g id="a_edge14_Node000012_Node000002"><a xlink:title=" ">
<path fill="none" stroke="#63b8ff" d="M589.61,-275.82C507.16,-255.32 317,-204.96 317,-176.38 317,-176.38 317,-176.38 317,-119.12 317,-72.17 265.92,-40.55 229.86,-24.08"/>
<polygon fill="#63b8ff" stroke="#63b8ff" points="231.64,-21.04 221.08,-20.25 228.84,-27.46 231.64,-21.04"/>
</a>
</g>
</g>
<!-- Node13 -->
<g id="Node000013" class="node">
<title>Node13</title>
<g id="a_Node000013"><a xlink:href="_string___8h.html" target="_top" xlink:title=" ">
<polygon fill="white" stroke="#666666" points="598.62,-240.25 505.38,-240.25 505.38,-221 598.62,-221 598.62,-240.25"/>
<text text-anchor="middle" x="552" y="-226.75" font-family="Helvetica,sans-Serif" font-size="10.00">Cpl/Text/String_.h</text>
</a>
</g>
</g>
<!-- Node12&#45;&gt;Node13 -->
<g id="edge15_Node000012_Node000013" class="edge">
<title>Node12&#45;&gt;Node13</title>
<g id="a_edge15_Node000012_Node000013"><a xlink:title=" ">
<path fill="none" stroke="#63b8ff" d="M614.28,-275.84C603.29,-268.04 587.16,-256.59 574.07,-247.29"/>
<polygon fill="#63b8ff" stroke="#63b8ff" points="576.2,-244.51 566.02,-241.58 572.15,-250.22 576.2,-244.51"/>
</a>
</g>
</g>
<!-- Node14 -->
<g id="Node000014" class="node">
<title>Node14</title>
<g id="a_Node000014"><a xlink:href="_text_2_string_8h.html" target="_top" xlink:title=" ">
<polygon fill="white" stroke="#666666" points="522,-185 434,-185 434,-165.75 522,-165.75 522,-185"/>
<text text-anchor="middle" x="478" y="-171.5" font-family="Helvetica,sans-Serif" font-size="10.00">Cpl/Text/String.h</text>
</a>
</g>
</g>
<!-- Node13&#45;&gt;Node14 -->
<g id="edge16_Node000013_Node000014" class="edge">
<title>Node13&#45;&gt;Node14</title>
<g id="a_edge16_Node000013_Node000014"><a xlink:title=" ">
<path fill="none" stroke="#63b8ff" d="M539.45,-220.59C528.54,-212.74 512.5,-201.2 499.54,-191.87"/>
<polygon fill="#63b8ff" stroke="#63b8ff" points="501.76,-189.16 491.6,-186.16 497.67,-194.84 501.76,-189.16"/>
</a>
</g>
</g>
<!-- Node14&#45;&gt;Node4 -->
<g id="edge17_Node000014_Node000004" class="edge">
<title>Node14&#45;&gt;Node4</title>
<g id="a_edge17_Node000014_Node000004"><a xlink:title=" ">
<path fill="none" stroke="#63b8ff" d="M454.61,-165.31C405.09,-146.12 289.52,-101.34 231.91,-79.01"/>
<polygon fill="#63b8ff" stroke="#63b8ff" points="233.52,-75.89 222.93,-75.54 230.99,-82.41 233.52,-75.89"/>
</a>
</g>
</g>
<!-- Node15 -->
<g id="Node000015" class="node">
<title>Node15</title>
<g id="a_Node000015"><a xlink:href="_key_8h.html" target="_top" xlink:title=" ">
<polygon fill="white" stroke="#666666" points="624.75,-129.75 523.25,-129.75 523.25,-110.5 624.75,-110.5 624.75,-129.75"/>
<text text-anchor="middle" x="574" y="-116.25" font-family="Helvetica,sans-Serif" font-size="10.00">Cpl/Container/Key.h</text>
</a>
</g>
</g>
<!-- Node14&#45;&gt;Node15 -->
<g id="edge18_Node000014_Node000015" class="edge">
<title>Node14&#45;&gt;Node15</title>
<g id="a_edge18_Node000014_Node000015"><a xlink:title=" ">
<path fill="none" stroke="#63b8ff" d="M494.29,-165.34C508.9,-157.23 530.63,-145.18 547.71,-135.71"/>
<polygon fill="#63b8ff" stroke="#63b8ff" points="549.26,-138.85 556.31,-130.94 545.87,-132.73 549.26,-138.85"/>
</a>
</g>
</g>
<!-- Node20 -->
<g id="Node000020" class="node">
<title>Node20</title>
<g id="a_Node000020"><a xlink:title=" ">
<polygon fill="#e0e0e0" stroke="#999999" points="433.25,-129.75 382.75,-129.75 382.75,-110.5 433.25,-110.5 433.25,-129.75"/>
<text text-anchor="middle" x="408" y="-116.25" font-family="Helvetica,sans-Serif" font-size="10.00">stdarg.h</text>
</a>
</g>
</g>
<!-- Node14&#45;&gt;Node20 -->
<g id="edge25_Node000014_Node000020" class="edge">
<title>Node14&#45;&gt;Node20</title>
<g id="a_edge25_Node000014_Node000020"><a xlink:title=" ">
<path fill="none" stroke="#63b8ff" d="M466.13,-165.34C455.91,-157.57 440.93,-146.17 428.74,-136.9"/>
<polygon fill="#63b8ff" stroke="#63b8ff" points="430.98,-134.21 420.9,-130.94 426.74,-139.78 430.98,-134.21"/>
</a>
</g>
</g>
<!-- Node21 -->
<g id="Node000021" class="node">
<title>Node21</title>
<g id="a_Node000021"><a xlink:title=" ">
<polygon fill="#e0e0e0" stroke="#999999" points="504.75,-129.75 451.25,-129.75 451.25,-110.5 504.75,-110.5 504.75,-129.75"/>
<text text-anchor="middle" x="478" y="-116.25" font-family="Helvetica,sans-Serif" font-size="10.00">iostream</text>
</a>
</g>
</g>
<!-- Node14&#45;&gt;Node21 -->
<g id="edge26_Node000014_Node000021" class="edge">
<title>Node14&#45;&gt;Node21</title>
<g id="a_edge26_Node000014_Node000021"><a xlink:title=" ">
<path fill="none" stroke="#63b8ff" d="M478,-165.58C478,-159.07 478,-149.92 478,-141.62"/>
<polygon fill="#63b8ff" stroke="#63b8ff" points="481.5,-141.62 478,-131.62 474.5,-141.62 481.5,-141.62"/>
</a>
</g>
</g>
<!-- Node15&#45;&gt;Node4 -->
<g id="edge24_Node000015_Node000004" class="edge">
<title>Node15&#45;&gt;Node4</title>
<g id="a_edge24_Node000015_Node000004"><a xlink:title=" ">
<path fill="none" stroke="#63b8ff" d="M522.94,-111.78C519.91,-111.34 516.92,-110.92 514,-110.5 419.5,-97.04 309.08,-81.48 246.97,-72.75"/>
<polygon fill="#63b8ff" stroke="#63b8ff" points="247.83,-69.34 237.44,-71.41 246.86,-76.27 247.83,-69.34"/>
</a>
</g>
</g>
<!-- Node16 -->
<g id="Node000016" class="node">
<title>Node16</title>
<g id="a_Node000016"><a xlink:href="_fatal_error_8h.html" target="_top" xlink:title=" ">
<polygon fill="white" stroke="#666666" points="633.38,-74.5 514.62,-74.5 514.62,-55.25 633.38,-55.25 633.38,-74.5"/>
<text text-anchor="middle" x="574" y="-61" font-family="Helvetica,sans-Serif" font-size="10.00">Cpl/System/FatalError.h</text>
</a>
</g>
</g>
<!-- Node15&#45;&gt;Node16 -->
<g id="edge19_Node000015_Node000016" class="edge">
<title>Node15&#45;&gt;Node16</title>
<g id="a_edge19_Node000015_Node000016"><a xlink:title=" ">
<path fill="none" stroke="#63b8ff" d="M574,-110.33C574,-103.82 574,-94.67 574,-86.37"/>
<polygon fill="#63b8ff" stroke="#63b8ff" points="577.5,-86.37 574,-76.37 570.5,-86.37 577.5,-86.37"/>
</a>
</g>
</g>
<!-- Node18 -->
<g id="Node000018" class="node">
<title>Node18</title>
<g id="a_Node000018"><a xlink:title=" ">
<polygon fill="#e0e0e0" stroke="#999999" points="496.75,-74.5 449.25,-74.5 449.25,-55.25 496.75,-55.25 496.75,-74.5"/>
<text text-anchor="middle" x="473" y="-61" font-family="Helvetica,sans-Serif" font-size="10.00">stdint.h</text>
</a>
</g>
</g>
<!-- Node15&#45;&gt;Node18 -->
<g id="edge22_Node000015_Node000018" class="edge">
<title>Node15&#45;&gt;Node18</title>
<g id="a_edge22_Node000015_Node000018"><a xlink:title=" ">
<path fill="none" stroke="#63b8ff" d="M556.87,-110.09C541.34,-101.91 518.2,-89.71 500.16,-80.19"/>
<polygon fill="#63b8ff" stroke="#63b8ff" points="502.03,-77.23 491.56,-75.66 498.77,-83.42 502.03,-77.23"/>
</a>
</g>
</g>
<!-- Node15&#45;&gt;Node19 -->
<g id="edge23_Node000015_Node000019" class="edge">
<title>Node15&#45;&gt;Node19</title>
<g id="a_edge23_Node000015_Node000019"><a xlink:title=" ">
<path fill="none" stroke="#63b8ff" d="M593.68,-110.09C611.84,-101.75 639.08,-89.25 659.97,-79.66"/>
<polygon fill="#63b8ff" stroke="#63b8ff" points="661.22,-82.94 668.85,-75.58 658.3,-76.58 661.22,-82.94"/>
</a>
</g>
</g>
<!-- Node16&#45;&gt;Node2 -->
<g id="edge21_Node000016_Node000002" class="edge">
<title>Node16&#45;&gt;Node2</title>
<g id="a_edge21_Node000016_Node000002"><a xlink:title=" ">
<path fill="none" stroke="#63b8ff" d="M514.36,-55.5C441.01,-45.19 317.62,-27.85 247.63,-18.02"/>
<polygon fill="#63b8ff" stroke="#63b8ff" points="248.34,-14.59 237.95,-16.66 247.37,-21.52 248.34,-14.59"/>
</a>
</g>
</g>
<!-- Node17 -->
<g id="Node000017" class="node">
<title>Node17</title>
<g id="a_Node000017"><a xlink:title=" ">
<polygon fill="#e0e0e0" stroke="#999999" points="599.25,-19.25 548.75,-19.25 548.75,0 599.25,0 599.25,-19.25"/>
<text text-anchor="middle" x="574" y="-5.75" font-family="Helvetica,sans-Serif" font-size="10.00">stddef.h</text>
</a>
</g>
</g>
<!-- Node16&#45;&gt;Node17 -->
<g id="edge20_Node000016_Node000017" class="edge">
<title>Node16&#45;&gt;Node17</title>
<g id="a_edge20_Node000016_Node000017"><a xlink:title=" ">
<path fill="none" stroke="#63b8ff" d="M574,-55.08C574,-48.57 574,-39.42 574,-31.12"/>
<polygon fill="#63b8ff" stroke="#63b8ff" points="577.5,-31.12 574,-21.12 570.5,-31.12 577.5,-31.12"/>
</a>
</g>
</g>
</g>
</svg>
