<?xml version="1.0" encoding="UTF-8" standalone="no"?>
<!DOCTYPE svg PUBLIC "-//W3C//DTD SVG 1.1//EN"
 "http://www.w3.org/Graphics/SVG/1.1/DTD/svg11.dtd">
<!-- Generated by graphviz version 9.0.0 (20230911.1827)
 -->
<!-- Title: Ajax/Heating/Supervisor/FsmEventQueue_.h Pages: 1 -->
<svg width="448pt" height="172pt"
 viewBox="0.00 0.00 447.50 171.50" xmlns="http://www.w3.org/2000/svg" xmlns:xlink="http://www.w3.org/1999/xlink">
<g id="graph0" class="graph" transform="scale(1 1) rotate(0) translate(4 167.5)">
<title>Ajax/Heating/Supervisor/FsmEventQueue_.h</title>
<!-- Node1 -->
<g id="Node000001" class="node">
<title>Node1</title>
<g id="a_Node000001"><a xlink:title=" ">
<polygon fill="#999999" stroke="#666666" points="197.5,-163.5 76.5,-163.5 76.5,-133 197.5,-133 197.5,-163.5"/>
<text text-anchor="start" x="84.5" y="-150" font-family="Helvetica,sans-Serif" font-size="10.00">Ajax/Heating/Supervisor</text>
<text text-anchor="middle" x="137" y="-138.75" font-family="Helvetica,sans-Serif" font-size="10.00">/FsmEventQueue_.h</text>
</a>
</g>
</g>
<!-- Node2 -->
<g id="Node000002" class="node">
<title>Node2</title>
<g id="a_Node000002"><a xlink:href="_fsm___8h.html" target="_top" xlink:title=" ">
<polygon fill="white" stroke="#666666" points="269.5,-97 148.5,-97 148.5,-66.5 269.5,-66.5 269.5,-97"/>
<text text-anchor="start" x="156.5" y="-83.5" font-family="Helvetica,sans-Serif" font-size="10.00">Ajax/Heating/Supervisor</text>
<text text-anchor="middle" x="209" y="-72.25" font-family="Helvetica,sans-Serif" font-size="10.00">/Fsm_.h</text>
</a>
</g>
</g>
<!-- Node1&#45;&gt;Node2 -->
<g id="edge1_Node000001_Node000002" class="edge">
<title>Node1&#45;&gt;Node2</title>
<g id="a_edge1_Node000001_Node000002"><a xlink:title=" ">
<path fill="none" stroke="#63b8ff" d="M153.34,-132.61C162.45,-124.45 173.99,-114.11 184.2,-104.97"/>
<polygon fill="#63b8ff" stroke="#63b8ff" points="186.49,-107.62 191.6,-98.34 181.82,-102.4 186.49,-107.62"/>
</a>
</g>
</g>
<!-- Node7 -->
<g id="Node000007" class="node">
<title>Node7</title>
<g id="a_Node000007"><a xlink:href="_ring_buffer_8h.html" target="_top" xlink:title=" ">
<polygon fill="white" stroke="#666666" points="130,-91.38 0,-91.38 0,-72.12 130,-72.12 130,-91.38"/>
<text text-anchor="middle" x="65" y="-77.88" font-family="Helvetica,sans-Serif" font-size="10.00">Cpl/Container/RingBuffer.h</text>
</a>
</g>
</g>
<!-- Node1&#45;&gt;Node7 -->
<g id="edge6_Node000001_Node000007" class="edge">
<title>Node1&#45;&gt;Node7</title>
<g id="a_edge6_Node000001_Node000007"><a xlink:title=" ">
<path fill="none" stroke="#63b8ff" d="M120.66,-132.61C109.53,-122.64 94.78,-109.43 83.26,-99.11"/>
<polygon fill="#63b8ff" stroke="#63b8ff" points="85.76,-96.65 75.98,-92.58 81.09,-101.86 85.76,-96.65"/>
</a>
</g>
</g>
<!-- Node3 -->
<g id="Node000003" class="node">
<title>Node3</title>
<g id="a_Node000003"><a xlink:title=" ">
<polygon fill="#e0e0e0" stroke="#999999" points="88.75,-24.88 41.25,-24.88 41.25,-5.63 88.75,-5.63 88.75,-24.88"/>
<text text-anchor="middle" x="65" y="-11.38" font-family="Helvetica,sans-Serif" font-size="10.00">stdint.h</text>
</a>
</g>
</g>
<!-- Node2&#45;&gt;Node3 -->
<g id="edge2_Node000002_Node000003" class="edge">
<title>Node2&#45;&gt;Node3</title>
<g id="a_edge2_Node000002_Node000003"><a xlink:title=" ">
<path fill="none" stroke="#63b8ff" d="M176.32,-66.11C152,-55.22 119.04,-40.46 95.31,-29.83"/>
<polygon fill="#63b8ff" stroke="#63b8ff" points="97.05,-26.77 86.5,-25.88 94.19,-33.16 97.05,-26.77"/>
</a>
</g>
</g>
<!-- Node4 -->
<g id="Node000004" class="node">
<title>Node4</title>
<g id="a_Node000004"><a xlink:title=" ">
<polygon fill="#e0e0e0" stroke="#999999" points="161.5,-24.88 106.5,-24.88 106.5,-5.63 161.5,-5.63 161.5,-24.88"/>
<text text-anchor="middle" x="134" y="-11.38" font-family="Helvetica,sans-Serif" font-size="10.00">stdbool.h</text>
</a>
</g>
</g>
<!-- Node2&#45;&gt;Node4 -->
<g id="edge3_Node000002_Node000004" class="edge">
<title>Node2&#45;&gt;Node4</title>
<g id="a_edge3_Node000002_Node000004"><a xlink:title=" ">
<path fill="none" stroke="#63b8ff" d="M191.98,-66.11C180.27,-56.04 164.72,-42.67 152.67,-32.31"/>
<polygon fill="#63b8ff" stroke="#63b8ff" points="155.27,-29.93 145.41,-26.06 150.71,-35.23 155.27,-29.93"/>
</a>
</g>
</g>
<!-- Node5 -->
<g id="Node000005" class="node">
<title>Node5</title>
<g id="a_Node000005"><a xlink:href="_fsm__ext___8h.html" target="_top" xlink:title=" ">
<polygon fill="white" stroke="#666666" points="300.5,-30.5 179.5,-30.5 179.5,0 300.5,0 300.5,-30.5"/>
<text text-anchor="start" x="187.5" y="-17" font-family="Helvetica,sans-Serif" font-size="10.00">Ajax/Heating/Supervisor</text>
<text text-anchor="middle" x="240" y="-5.75" font-family="Helvetica,sans-Serif" font-size="10.00">/Fsm_ext_.h</text>
</a>
</g>
</g>
<!-- Node2&#45;&gt;Node5 -->
<g id="edge4_Node000002_Node000005" class="edge">
<title>Node2&#45;&gt;Node5</title>
<g id="a_edge4_Node000002_Node000005"><a xlink:title=" ">
<path fill="none" stroke="#63b8ff" d="M216.03,-66.11C219.6,-58.69 224.03,-49.47 228.11,-40.99"/>
<polygon fill="#63b8ff" stroke="#63b8ff" points="231.16,-42.72 232.34,-32.19 224.85,-39.69 231.16,-42.72"/>
</a>
</g>
</g>
<!-- Node6 -->
<g id="Node000006" class="node">
<title>Node6</title>
<g id="a_Node000006"><a xlink:href="_fsm_context___8h.html" target="_top" xlink:title=" ">
<polygon fill="white" stroke="#666666" points="439.5,-30.5 318.5,-30.5 318.5,0 439.5,0 439.5,-30.5"/>
<text text-anchor="start" x="326.5" y="-17" font-family="Helvetica,sans-Serif" font-size="10.00">Ajax/Heating/Supervisor</text>
<text text-anchor="middle" x="379" y="-5.75" font-family="Helvetica,sans-Serif" font-size="10.00">/FsmContext_.h</text>
</a>
</g>
</g>
<!-- Node2&#45;&gt;Node6 -->
<g id="edge5_Node000002_Node000006" class="edge">
<title>Node2&#45;&gt;Node6</title>
<g id="a_edge5_Node000002_Node000006"><a xlink:title=" ">
<path fill="none" stroke="#63b8ff" d="M247.58,-66.11C271.94,-56.87 303.65,-44.84 329.82,-34.91"/>
<polygon fill="#63b8ff" stroke="#63b8ff" points="330.76,-38.3 338.87,-31.48 328.28,-31.75 330.76,-38.3"/>
</a>
</g>
</g>
<!-- Node7&#45;&gt;Node3 -->
<g id="edge7_Node000007_Node000003" class="edge">
<title>Node7&#45;&gt;Node3</title>
<g id="a_edge7_Node000007_Node000003"><a xlink:title=" ">
<path fill="none" stroke="#63b8ff" d="M65,-71.78C65,-62.73 65,-48.45 65,-36.63"/>
<polygon fill="#63b8ff" stroke="#63b8ff" points="68.5,-36.66 65,-26.66 61.5,-36.66 68.5,-36.66"/>
</a>
</g>
</g>
</g>
</svg>
