<?xml version="1.0" encoding="UTF-8" standalone="no"?>
<!DOCTYPE svg PUBLIC "-//W3C//DTD SVG 1.1//EN"
 "http://www.w3.org/Graphics/SVG/1.1/DTD/svg11.dtd">
<!-- Generated by graphviz version 2.43.0 (0)
 -->
<!-- Title: Ajax/Heating/Supervisor/FsmContext_.h Pages: 1 -->
<svg width="278pt" height="302pt"
 viewBox="0.00 0.00 277.50 302.00" xmlns="http://www.w3.org/2000/svg" xmlns:xlink="http://www.w3.org/1999/xlink">
<g id="graph0" class="graph" transform="scale(1 1) rotate(0) translate(4 298)">
<title>Ajax/Heating/Supervisor/FsmContext_.h</title>
<!-- Node1 -->
<g id="Node000001" class="node">
<title>Node1</title>
<g id="a_Node000001"><a xlink:title=" ">
<polygon fill="#999999" stroke="#666666" points="198.5,-294 64.5,-294 64.5,-264 198.5,-264 198.5,-294"/>
<text text-anchor="start" x="72.5" y="-282" font-family="Helvetica,sans-Serif" font-size="10.00">Ajax/Heating/Supervisor</text>
<text text-anchor="middle" x="131.5" y="-271" font-family="Helvetica,sans-Serif" font-size="10.00">/FsmContext_.h</text>
</a>
</g>
</g>
<!-- Node2 -->
<g id="Node000002" class="node">
<title>Node2</title>
<g id="a_Node000002"><a xlink:href="_fsm___8h.html" target="_top" xlink:title=" ">
<polygon fill="white" stroke="#666666" points="198.5,-228 64.5,-228 64.5,-198 198.5,-198 198.5,-228"/>
<text text-anchor="start" x="72.5" y="-216" font-family="Helvetica,sans-Serif" font-size="10.00">Ajax/Heating/Supervisor</text>
<text text-anchor="middle" x="131.5" y="-205" font-family="Helvetica,sans-Serif" font-size="10.00">/Fsm_.h</text>
</a>
</g>
</g>
<!-- Node1&#45;&gt;Node2 -->
<g id="edge1_Node000001_Node000002" class="edge">
<title>Node1&#45;&gt;Node2</title>
<g id="a_edge1_Node000001_Node000002"><a xlink:title=" ">
<path fill="none" stroke="#63b8ff" d="M131.5,-253.54C131.5,-244.96 131.5,-235.61 131.5,-228.16"/>
<polygon fill="#63b8ff" stroke="#63b8ff" points="128,-253.8 131.5,-263.8 135,-253.8 128,-253.8"/>
</a>
</g>
</g>
<!-- Node3 -->
<g id="Node000003" class="node">
<title>Node3</title>
<g id="a_Node000003"><a xlink:href="_fsm_event_queue___8h.html" target="_top" xlink:title=" ">
<polygon fill="white" stroke="#666666" points="198.5,-162 64.5,-162 64.5,-132 198.5,-132 198.5,-162"/>
<text text-anchor="start" x="72.5" y="-150" font-family="Helvetica,sans-Serif" font-size="10.00">Ajax/Heating/Supervisor</text>
<text text-anchor="middle" x="131.5" y="-139" font-family="Helvetica,sans-Serif" font-size="10.00">/FsmEventQueue_.h</text>
</a>
</g>
</g>
<!-- Node2&#45;&gt;Node3 -->
<g id="edge2_Node000002_Node000003" class="edge">
<title>Node2&#45;&gt;Node3</title>
<g id="a_edge2_Node000002_Node000003"><a xlink:title=" ">
<path fill="none" stroke="#63b8ff" d="M131.5,-187.54C131.5,-178.96 131.5,-169.61 131.5,-162.16"/>
<polygon fill="#63b8ff" stroke="#63b8ff" points="128,-187.8 131.5,-197.8 135,-187.8 128,-187.8"/>
</a>
</g>
</g>
<!-- Node4 -->
<g id="Node000004" class="node">
<title>Node4</title>
<g id="a_Node000004"><a xlink:href="_ajax_2_heating_2_supervisor_2_api_8h.html" target="_top" xlink:title=" ">
<polygon fill="white" stroke="#666666" points="198.5,-96 64.5,-96 64.5,-66 198.5,-66 198.5,-96"/>
<text text-anchor="start" x="72.5" y="-84" font-family="Helvetica,sans-Serif" font-size="10.00">Ajax/Heating/Supervisor</text>
<text text-anchor="middle" x="131.5" y="-73" font-family="Helvetica,sans-Serif" font-size="10.00">/Api.h</text>
</a>
</g>
</g>
<!-- Node3&#45;&gt;Node4 -->
<g id="edge3_Node000003_Node000004" class="edge">
<title>Node3&#45;&gt;Node4</title>
<g id="a_edge3_Node000003_Node000004"><a xlink:title=" ">
<path fill="none" stroke="#63b8ff" d="M131.5,-121.54C131.5,-112.96 131.5,-103.61 131.5,-96.16"/>
<polygon fill="#63b8ff" stroke="#63b8ff" points="128,-121.8 131.5,-131.8 135,-121.8 128,-121.8"/>
</a>
</g>
</g>
<!-- Node5 -->
<g id="Node000005" class="node">
<title>Node5</title>
<g id="a_Node000005"><a xlink:href="_ajax_2_heating_2_io_2_api_8h.html" target="_top" xlink:title=" ">
<polygon fill="white" stroke="#666666" points="119,-24.5 0,-24.5 0,-5.5 119,-5.5 119,-24.5"/>
<text text-anchor="middle" x="59.5" y="-12.5" font-family="Helvetica,sans-Serif" font-size="10.00">Ajax/Heating/Io/Api.h</text>
</a>
</g>
</g>
<!-- Node4&#45;&gt;Node5 -->
<g id="edge4_Node000004_Node000005" class="edge">
<title>Node4&#45;&gt;Node5</title>
<g id="a_edge4_Node000004_Node000005"><a xlink:title=" ">
<path fill="none" stroke="#63b8ff" d="M107.8,-58.93C94.77,-47.35 79.31,-33.61 69.45,-24.84"/>
<polygon fill="#63b8ff" stroke="#63b8ff" points="105.72,-61.77 115.52,-65.8 110.37,-56.54 105.72,-61.77"/>
</a>
</g>
</g>
<!-- Node6 -->
<g id="Node000006" class="node">
<title>Node6</title>
<g id="a_Node000006"><a xlink:href="_heating_2_simulated_2_house_8h_source.html" target="_top" xlink:title=" ">
<polygon fill="white" stroke="#666666" points="269.5,-30 137.5,-30 137.5,0 269.5,0 269.5,-30"/>
<text text-anchor="start" x="145.5" y="-18" font-family="Helvetica,sans-Serif" font-size="10.00">Ajax/Heating/Simulated</text>
<text text-anchor="middle" x="203.5" y="-7" font-family="Helvetica,sans-Serif" font-size="10.00">/House.h</text>
</a>
</g>
</g>
<!-- Node4&#45;&gt;Node6 -->
<g id="edge5_Node000004_Node000006" class="edge">
<title>Node4&#45;&gt;Node6</title>
<g id="a_edge5_Node000004_Node000006"><a xlink:title=" ">
<path fill="none" stroke="#63b8ff" d="M155.21,-58.92C165.83,-49.49 178.07,-38.61 187.57,-30.16"/>
<polygon fill="#63b8ff" stroke="#63b8ff" points="152.63,-56.54 147.48,-65.8 157.28,-61.77 152.63,-56.54"/>
</a>
</g>
</g>
</g>
</svg>
