<?xml version="1.0" encoding="UTF-8" standalone="no"?>
<!DOCTYPE svg PUBLIC "-//W3C//DTD SVG 1.1//EN"
 "http://www.w3.org/Graphics/SVG/1.1/DTD/svg11.dtd">
<!-- Generated by graphviz version 2.43.0 (0)
 -->
<!-- Title: Ajax/Heating/Supervisor/FsmEventQueue_.h Pages: 1 -->
<svg width="492pt" height="170pt"
 viewBox="0.00 0.00 491.50 170.00" xmlns="http://www.w3.org/2000/svg" xmlns:xlink="http://www.w3.org/1999/xlink">
<g id="graph0" class="graph" transform="scale(1 1) rotate(0) translate(4 166)">
<title>Ajax/Heating/Supervisor/FsmEventQueue_.h</title>
<!-- Node1 -->
<g id="Node000001" class="node">
<title>Node1</title>
<g id="a_Node000001"><a xlink:title=" ">
<polygon fill="#999999" stroke="#666666" points="218.5,-162 84.5,-162 84.5,-132 218.5,-132 218.5,-162"/>
<text text-anchor="start" x="92.5" y="-150" font-family="Helvetica,sans-Serif" font-size="10.00">Ajax/Heating/Supervisor</text>
<text text-anchor="middle" x="151.5" y="-139" font-family="Helvetica,sans-Serif" font-size="10.00">/FsmEventQueue_.h</text>
</a>
</g>
</g>
<!-- Node2 -->
<g id="Node000002" class="node">
<title>Node2</title>
<g id="a_Node000002"><a xlink:href="_fsm___8h.html" target="_top" xlink:title=" ">
<polygon fill="white" stroke="#666666" points="297.5,-96 163.5,-96 163.5,-66 297.5,-66 297.5,-96"/>
<text text-anchor="start" x="171.5" y="-84" font-family="Helvetica,sans-Serif" font-size="10.00">Ajax/Heating/Supervisor</text>
<text text-anchor="middle" x="230.5" y="-73" font-family="Helvetica,sans-Serif" font-size="10.00">/Fsm_.h</text>
</a>
</g>
</g>
<!-- Node1&#45;&gt;Node2 -->
<g id="edge1_Node000001_Node000002" class="edge">
<title>Node1&#45;&gt;Node2</title>
<g id="a_edge1_Node000001_Node000002"><a xlink:title=" ">
<path fill="none" stroke="#63b8ff" d="M169.03,-131.8C179.67,-123.18 193.42,-112.04 205.22,-102.48"/>
<polygon fill="#63b8ff" stroke="#63b8ff" points="207.45,-105.18 213.02,-96.16 203.04,-99.74 207.45,-105.18"/>
</a>
</g>
</g>
<!-- Node7 -->
<g id="Node000007" class="node">
<title>Node7</title>
<g id="a_Node000007"><a xlink:href="_ring_buffer_8h.html" target="_top" xlink:title=" ">
<polygon fill="white" stroke="#666666" points="145,-90.5 0,-90.5 0,-71.5 145,-71.5 145,-90.5"/>
<text text-anchor="middle" x="72.5" y="-78.5" font-family="Helvetica,sans-Serif" font-size="10.00">Cpl/Container/RingBuffer.h</text>
</a>
</g>
</g>
<!-- Node1&#45;&gt;Node7 -->
<g id="edge6_Node000001_Node000007" class="edge">
<title>Node1&#45;&gt;Node7</title>
<g id="a_edge6_Node000001_Node000007"><a xlink:title=" ">
<path fill="none" stroke="#63b8ff" d="M133.97,-131.8C121.29,-121.53 104.18,-107.67 91.24,-97.18"/>
<polygon fill="#63b8ff" stroke="#63b8ff" points="93.39,-94.42 83.42,-90.84 88.98,-99.86 93.39,-94.42"/>
</a>
</g>
</g>
<!-- Node3 -->
<g id="Node000003" class="node">
<title>Node3</title>
<g id="a_Node000003"><a xlink:title=" ">
<polygon fill="#e0e0e0" stroke="#999999" points="99,-24.5 46,-24.5 46,-5.5 99,-5.5 99,-24.5"/>
<text text-anchor="middle" x="72.5" y="-12.5" font-family="Helvetica,sans-Serif" font-size="10.00">stdint.h</text>
</a>
</g>
</g>
<!-- Node2&#45;&gt;Node3 -->
<g id="edge2_Node000002_Node000003" class="edge">
<title>Node2&#45;&gt;Node3</title>
<g id="a_edge2_Node000002_Node000003"><a xlink:title=" ">
<path fill="none" stroke="#63b8ff" d="M195.83,-65.95C168.12,-54.73 129.65,-39.15 103.08,-28.39"/>
<polygon fill="#63b8ff" stroke="#63b8ff" points="104.11,-25.03 93.53,-24.52 101.48,-31.52 104.11,-25.03"/>
</a>
</g>
</g>
<!-- Node4 -->
<g id="Node000004" class="node">
<title>Node4</title>
<g id="a_Node000004"><a xlink:title=" ">
<polygon fill="#e0e0e0" stroke="#999999" points="179.5,-24.5 117.5,-24.5 117.5,-5.5 179.5,-5.5 179.5,-24.5"/>
<text text-anchor="middle" x="148.5" y="-12.5" font-family="Helvetica,sans-Serif" font-size="10.00">stdbool.h</text>
</a>
</g>
</g>
<!-- Node2&#45;&gt;Node4 -->
<g id="edge3_Node000002_Node000004" class="edge">
<title>Node2&#45;&gt;Node4</title>
<g id="a_edge3_Node000002_Node000004"><a xlink:title=" ">
<path fill="none" stroke="#63b8ff" d="M212.3,-65.8C199.14,-55.53 181.39,-41.67 167.95,-31.18"/>
<polygon fill="#63b8ff" stroke="#63b8ff" points="169.87,-28.24 159.83,-24.84 165.56,-33.76 169.87,-28.24"/>
</a>
</g>
</g>
<!-- Node5 -->
<g id="Node000005" class="node">
<title>Node5</title>
<g id="a_Node000005"><a xlink:href="_fsm__ext___8h.html" target="_top" xlink:title=" ">
<polygon fill="white" stroke="#666666" points="331.5,-30 197.5,-30 197.5,0 331.5,0 331.5,-30"/>
<text text-anchor="start" x="205.5" y="-18" font-family="Helvetica,sans-Serif" font-size="10.00">Ajax/Heating/Supervisor</text>
<text text-anchor="middle" x="264.5" y="-7" font-family="Helvetica,sans-Serif" font-size="10.00">/Fsm_ext_.h</text>
</a>
</g>
</g>
<!-- Node2&#45;&gt;Node5 -->
<g id="edge4_Node000002_Node000005" class="edge">
<title>Node2&#45;&gt;Node5</title>
<g id="a_edge4_Node000002_Node000005"><a xlink:title=" ">
<path fill="none" stroke="#63b8ff" d="M238.05,-65.8C242.18,-58.01 247.42,-48.16 252.13,-39.28"/>
<polygon fill="#63b8ff" stroke="#63b8ff" points="255.37,-40.64 256.98,-30.16 249.19,-37.35 255.37,-40.64"/>
</a>
</g>
</g>
<!-- Node6 -->
<g id="Node000006" class="node">
<title>Node6</title>
<g id="a_Node000006"><a xlink:href="_fsm_context___8h.html" target="_top" xlink:title=" ">
<polygon fill="white" stroke="#666666" points="483.5,-30 349.5,-30 349.5,0 483.5,0 483.5,-30"/>
<text text-anchor="start" x="357.5" y="-18" font-family="Helvetica,sans-Serif" font-size="10.00">Ajax/Heating/Supervisor</text>
<text text-anchor="middle" x="416.5" y="-7" font-family="Helvetica,sans-Serif" font-size="10.00">/FsmContext_.h</text>
</a>
</g>
</g>
<!-- Node2&#45;&gt;Node6 -->
<g id="edge5_Node000002_Node000006" class="edge">
<title>Node2&#45;&gt;Node6</title>
<g id="a_edge5_Node000002_Node000006"><a xlink:title=" ">
<path fill="none" stroke="#63b8ff" d="M271.32,-65.95C299.18,-56.37 336.28,-43.6 366,-33.37"/>
<polygon fill="#63b8ff" stroke="#63b8ff" points="367.46,-36.58 375.78,-30.01 365.18,-29.96 367.46,-36.58"/>
</a>
</g>
</g>
<!-- Node7&#45;&gt;Node3 -->
<g id="edge7_Node000007_Node000003" class="edge">
<title>Node7&#45;&gt;Node3</title>
<g id="a_edge7_Node000007_Node000003"><a xlink:title=" ">
<path fill="none" stroke="#63b8ff" d="M72.5,-71.37C72.5,-62.16 72.5,-47.29 72.5,-35.27"/>
<polygon fill="#63b8ff" stroke="#63b8ff" points="76,-34.91 72.5,-24.91 69,-34.91 76,-34.91"/>
</a>
</g>
</g>
</g>
</svg>
