<?xml version="1.0" encoding="UTF-8" standalone="no"?>
<!DOCTYPE svg PUBLIC "-//W3C//DTD SVG 1.1//EN"
 "http://www.w3.org/Graphics/SVG/1.1/DTD/svg11.dtd">
<!-- Generated by graphviz version 2.43.0 (0)
 -->
<!-- Title: Driver/Button/Hal.h Pages: 1 -->
<svg width="594pt" height="269pt"
 viewBox="0.00 0.00 594.00 269.00" xmlns="http://www.w3.org/2000/svg" xmlns:xlink="http://www.w3.org/1999/xlink">
<g id="graph0" class="graph" transform="scale(1 1) rotate(0) translate(4 265)">
<title>Driver/Button/Hal.h</title>
<!-- Node1 -->
<g id="Node000001" class="node">
<title>Node1</title>
<g id="a_Node000001"><a xlink:title="This file defines a hardware abstraction layer (HAL) for accessing a digital Input that is being used...">
<polygon fill="#999999" stroke="#666666" points="368,-261 258,-261 258,-242 368,-242 368,-261"/>
<text text-anchor="middle" x="313" y="-249" font-family="Helvetica,sans-Serif" font-size="10.00">Driver/Button/Hal.h</text>
</a>
</g>
</g>
<!-- Node2 -->
<g id="Node000002" class="node">
<title>Node2</title>
<g id="a_Node000002"><a xlink:href="_arduino_2_hal_8h.html" target="_top" xlink:title="This file defines the concrete implementation for the Button HAL running on the Arduino Framework.">
<polygon fill="white" stroke="#666666" points="122,-206 0,-206 0,-176 122,-176 122,-206"/>
<text text-anchor="start" x="8" y="-194" font-family="Helvetica,sans-Serif" font-size="10.00">Driver/Button/Arduino</text>
<text text-anchor="middle" x="61" y="-183" font-family="Helvetica,sans-Serif" font-size="10.00">/Hal.h</text>
</a>
</g>
</g>
<!-- Node1&#45;&gt;Node2 -->
<g id="edge1_Node000001_Node000002" class="edge">
<title>Node1&#45;&gt;Node2</title>
<g id="a_edge1_Node000001_Node000002"><a xlink:title=" ">
<path fill="none" stroke="#63b8ff" d="M266.41,-239.68C225.61,-230.21 166.07,-216.39 121.58,-206.06"/>
<polygon fill="#63b8ff" stroke="#63b8ff" points="265.82,-243.14 276.36,-241.99 267.41,-236.32 265.82,-243.14"/>
</a>
</g>
</g>
<!-- Node3 -->
<g id="Node000003" class="node">
<title>Node3</title>
<g id="a_Node000003"><a xlink:href="_polled_debounced_8h.html" target="_top" xlink:title=" ">
<polygon fill="white" stroke="#666666" points="319.5,-200.5 140.5,-200.5 140.5,-181.5 319.5,-181.5 319.5,-200.5"/>
<text text-anchor="middle" x="230" y="-188.5" font-family="Helvetica,sans-Serif" font-size="10.00">Driver/Button/PolledDebounced.h</text>
</a>
</g>
</g>
<!-- Node1&#45;&gt;Node3 -->
<g id="edge2_Node000001_Node000003" class="edge">
<title>Node1&#45;&gt;Node3</title>
<g id="a_edge2_Node000001_Node000003"><a xlink:title=" ">
<path fill="none" stroke="#63b8ff" d="M292.21,-235.85C276.49,-224.77 255.44,-209.93 242.3,-200.67"/>
<polygon fill="#63b8ff" stroke="#63b8ff" points="290.56,-238.97 300.75,-241.87 294.6,-233.25 290.56,-238.97"/>
</a>
</g>
</g>
<!-- Node8 -->
<g id="Node000008" class="node">
<title>Node8</title>
<g id="a_Node000008"><a xlink:href="_s_t_m32_2_hal_8h.html" target="_top" xlink:title="This file defines the concrete implementation for the Button HAL running on STM32 MCUs.">
<polygon fill="white" stroke="#666666" points="456,-206 338,-206 338,-176 456,-176 456,-206"/>
<text text-anchor="start" x="346" y="-194" font-family="Helvetica,sans-Serif" font-size="10.00">Driver/Button/STM32</text>
<text text-anchor="middle" x="397" y="-183" font-family="Helvetica,sans-Serif" font-size="10.00">/Hal.h</text>
</a>
</g>
</g>
<!-- Node1&#45;&gt;Node8 -->
<g id="edge7_Node000001_Node000008" class="edge">
<title>Node1&#45;&gt;Node8</title>
<g id="a_edge7_Node000001_Node000008"><a xlink:title=" ">
<path fill="none" stroke="#63b8ff" d="M333.78,-236.03C346.88,-226.9 363.73,-215.17 376.73,-206.11"/>
<polygon fill="#63b8ff" stroke="#63b8ff" points="331.6,-233.28 325.39,-241.87 335.6,-239.03 331.6,-233.28"/>
</a>
</g>
</g>
<!-- Node9 -->
<g id="Node000009" class="node">
<title>Node9</title>
<g id="a_Node000009"><a xlink:href="_t_pipe_2_hal_8h.html" target="_top" xlink:title="This file defines the concrete implementation for the Button HAL that gets its raw inputs via a Drive...">
<polygon fill="white" stroke="#666666" points="586,-206 474,-206 474,-176 586,-176 586,-206"/>
<text text-anchor="start" x="482" y="-194" font-family="Helvetica,sans-Serif" font-size="10.00">Driver/Button/TPipe</text>
<text text-anchor="middle" x="530" y="-183" font-family="Helvetica,sans-Serif" font-size="10.00">/Hal.h</text>
</a>
</g>
</g>
<!-- Node1&#45;&gt;Node9 -->
<g id="edge8_Node000001_Node000009" class="edge">
<title>Node1&#45;&gt;Node9</title>
<g id="a_edge8_Node000001_Node000009"><a xlink:title=" ">
<path fill="none" stroke="#63b8ff" d="M354.47,-239.32C389.55,-229.86 440.01,-216.26 477.83,-206.06"/>
<polygon fill="#63b8ff" stroke="#63b8ff" points="353.3,-236.01 344.55,-241.99 355.12,-242.77 353.3,-236.01"/>
</a>
</g>
</g>
<!-- Node4 -->
<g id="Node000004" class="node">
<title>Node4</title>
<g id="a_Node000004"><a xlink:href="_driver_2_pico_display_2_api_8h.html" target="_top" xlink:title=" ">
<polygon fill="white" stroke="#666666" points="283.5,-140 176.5,-140 176.5,-110 283.5,-110 283.5,-140"/>
<text text-anchor="start" x="184.5" y="-128" font-family="Helvetica,sans-Serif" font-size="10.00">Driver/PicoDisplay</text>
<text text-anchor="middle" x="230" y="-117" font-family="Helvetica,sans-Serif" font-size="10.00">/Api.h</text>
</a>
</g>
</g>
<!-- Node3&#45;&gt;Node4 -->
<g id="edge3_Node000003_Node000004" class="edge">
<title>Node3&#45;&gt;Node4</title>
<g id="a_edge3_Node000003_Node000004"><a xlink:title=" ">
<path fill="none" stroke="#63b8ff" d="M230,-171.35C230,-161.47 230,-149.51 230,-140.36"/>
<polygon fill="#63b8ff" stroke="#63b8ff" points="226.5,-171.37 230,-181.37 233.5,-171.37 226.5,-171.37"/>
</a>
</g>
</g>
<!-- Node5 -->
<g id="Node000005" class="node">
<title>Node5</title>
<g id="a_Node000005"><a xlink:href="platform_8h.html" target="_top" xlink:title="This file contains the interface(s) that are platform VARIANT specific.">
<polygon fill="white" stroke="#666666" points="221.5,-74 102.5,-74 102.5,-55 221.5,-55 221.5,-74"/>
<text text-anchor="middle" x="162" y="-62" font-family="Helvetica,sans-Serif" font-size="10.00">Ajax/Main/platform.h</text>
</a>
</g>
</g>
<!-- Node4&#45;&gt;Node5 -->
<g id="edge4_Node000004_Node000005" class="edge">
<title>Node4&#45;&gt;Node5</title>
<g id="a_edge4_Node000004_Node000005"><a xlink:title=" ">
<path fill="none" stroke="#63b8ff" d="M205.87,-103.24C194.31,-93.29 181.07,-81.91 172.19,-74.27"/>
<polygon fill="#63b8ff" stroke="#63b8ff" points="203.68,-105.97 213.54,-109.84 208.24,-100.66 203.68,-105.97"/>
</a>
</g>
</g>
<!-- Node6 -->
<g id="Node000006" class="node">
<title>Node6</title>
<g id="a_Node000006"><a xlink:href="_pico_display_8h.html" target="_top" xlink:title=" ">
<polygon fill="white" stroke="#666666" points="358.5,-74 239.5,-74 239.5,-55 358.5,-55 358.5,-74"/>
<text text-anchor="middle" x="299" y="-62" font-family="Helvetica,sans-Serif" font-size="10.00">Ajax/Ui/PicoDisplay.h</text>
</a>
</g>
</g>
<!-- Node4&#45;&gt;Node6 -->
<g id="edge5_Node000004_Node000006" class="edge">
<title>Node4&#45;&gt;Node6</title>
<g id="a_edge5_Node000004_Node000006"><a xlink:title=" ">
<path fill="none" stroke="#63b8ff" d="M254.48,-103.24C266.22,-93.29 279.65,-81.91 288.66,-74.27"/>
<polygon fill="#63b8ff" stroke="#63b8ff" points="252.07,-100.7 246.7,-109.84 256.59,-106.04 252.07,-100.7"/>
</a>
</g>
</g>
<!-- Node7 -->
<g id="Node000007" class="node">
<title>Node7</title>
<g id="a_Node000007"><a xlink:href="appmain_8h.html" target="_top" xlink:title="This file defines the hardware/platform independent start&#45;up interface(s) for the Ajax application.">
<polygon fill="white" stroke="#666666" points="359,-19 239,-19 239,0 359,0 359,-19"/>
<text text-anchor="middle" x="299" y="-7" font-family="Helvetica,sans-Serif" font-size="10.00">Ajax/Main/appmain.h</text>
</a>
</g>
</g>
<!-- Node6&#45;&gt;Node7 -->
<g id="edge6_Node000006_Node000007" class="edge">
<title>Node6&#45;&gt;Node7</title>
<g id="a_edge6_Node000006_Node000007"><a xlink:title=" ">
<path fill="none" stroke="#63b8ff" d="M299,-44.66C299,-35.93 299,-25.99 299,-19.09"/>
<polygon fill="#63b8ff" stroke="#63b8ff" points="295.5,-44.75 299,-54.75 302.5,-44.75 295.5,-44.75"/>
</a>
</g>
</g>
</g>
</svg>
