<?xml version="1.0" encoding="UTF-8" standalone="no"?>
<!DOCTYPE svg PUBLIC "-//W3C//DTD SVG 1.1//EN"
 "http://www.w3.org/Graphics/SVG/1.1/DTD/svg11.dtd">
<!-- Generated by graphviz version 9.0.0 (20230911.1827)
 -->
<!-- Title: Cpl/Container/HashFuncDefault.h Pages: 1 -->
<svg width="314pt" height="138pt"
 viewBox="0.00 0.00 313.88 137.75" xmlns="http://www.w3.org/2000/svg" xmlns:xlink="http://www.w3.org/1999/xlink">
<g id="graph0" class="graph" transform="scale(1 1) rotate(0) translate(4 133.75)">
<title>Cpl/Container/HashFuncDefault.h</title>
<!-- Node1 -->
<g id="Node000001" class="node">
<title>Node1</title>
<g id="a_Node000001"><a xlink:title=" ">
<polygon fill="#999999" stroke="#666666" points="233.5,-129.75 72.75,-129.75 72.75,-110.5 233.5,-110.5 233.5,-129.75"/>
<text text-anchor="middle" x="153.12" y="-116.25" font-family="Helvetica,sans-Serif" font-size="10.00">Cpl/Container/HashFuncDefault.h</text>
</a>
</g>
</g>
<!-- Node2 -->
<g id="Node000002" class="node">
<title>Node2</title>
<g id="a_Node000002"><a xlink:href="_d_hash_table___8h.html" target="_top" xlink:title=" ">
<polygon fill="white" stroke="#666666" points="144.25,-74.5 0,-74.5 0,-55.25 144.25,-55.25 144.25,-74.5"/>
<text text-anchor="middle" x="72.12" y="-61" font-family="Helvetica,sans-Serif" font-size="10.00">Cpl/Container/DHashTable_.h</text>
</a>
</g>
</g>
<!-- Node1&#45;&gt;Node2 -->
<g id="edge1_Node000001_Node000002" class="edge">
<title>Node1&#45;&gt;Node2</title>
<g id="a_edge1_Node000001_Node000002"><a xlink:title=" ">
<path fill="none" stroke="#63b8ff" d="M129.79,-103.78C115.59,-94.45 97.94,-82.85 85.93,-74.95"/>
<polygon fill="#63b8ff" stroke="#63b8ff" points="127.84,-106.69 138.12,-109.26 131.69,-100.84 127.84,-106.69"/>
</a>
</g>
</g>
<!-- Node4 -->
<g id="Node000004" class="node">
<title>Node4</title>
<g id="a_Node000004"><a xlink:href="_f_hash_table___8h.html" target="_top" xlink:title=" ">
<polygon fill="white" stroke="#666666" points="305.88,-74.5 162.38,-74.5 162.38,-55.25 305.88,-55.25 305.88,-74.5"/>
<text text-anchor="middle" x="234.12" y="-61" font-family="Helvetica,sans-Serif" font-size="10.00">Cpl/Container/FHashTable_.h</text>
</a>
</g>
</g>
<!-- Node1&#45;&gt;Node4 -->
<g id="edge3_Node000001_Node000004" class="edge">
<title>Node1&#45;&gt;Node4</title>
<g id="a_edge3_Node000001_Node000004"><a xlink:title=" ">
<path fill="none" stroke="#63b8ff" d="M176.46,-103.78C190.66,-94.45 208.31,-82.85 220.32,-74.95"/>
<polygon fill="#63b8ff" stroke="#63b8ff" points="174.56,-100.84 168.13,-109.26 178.41,-106.69 174.56,-100.84"/>
</a>
</g>
</g>
<!-- Node3 -->
<g id="Node000003" class="node">
<title>Node3</title>
<g id="a_Node000003"><a xlink:href="_dictionary_8h.html" target="_top" xlink:title=" ">
<polygon fill="white" stroke="#666666" points="136,-19.25 8.25,-19.25 8.25,0 136,0 136,-19.25"/>
<text text-anchor="middle" x="72.12" y="-5.75" font-family="Helvetica,sans-Serif" font-size="10.00">Cpl/Container/Dictionary.h</text>
</a>
</g>
</g>
<!-- Node2&#45;&gt;Node3 -->
<g id="edge2_Node000002_Node000003" class="edge">
<title>Node2&#45;&gt;Node3</title>
<g id="a_edge2_Node000002_Node000003"><a xlink:title=" ">
<path fill="none" stroke="#63b8ff" d="M72.12,-43.63C72.12,-35.34 72.12,-26.17 72.12,-19.61"/>
<polygon fill="#63b8ff" stroke="#63b8ff" points="68.63,-43.57 72.13,-53.57 75.63,-43.57 68.63,-43.57"/>
</a>
</g>
</g>
<!-- Node5 -->
<g id="Node000005" class="node">
<title>Node5</title>
<g id="a_Node000005"><a xlink:href="_f_dictionary_8h.html" target="_top" xlink:title=" ">
<polygon fill="white" stroke="#666666" points="301,-19.25 167.25,-19.25 167.25,0 301,0 301,-19.25"/>
<text text-anchor="middle" x="234.12" y="-5.75" font-family="Helvetica,sans-Serif" font-size="10.00">Cpl/Container/FDictionary.h</text>
</a>
</g>
</g>
<!-- Node4&#45;&gt;Node5 -->
<g id="edge4_Node000004_Node000005" class="edge">
<title>Node4&#45;&gt;Node5</title>
<g id="a_edge4_Node000004_Node000005"><a xlink:title=" ">
<path fill="none" stroke="#63b8ff" d="M234.12,-43.63C234.12,-35.34 234.12,-26.17 234.12,-19.61"/>
<polygon fill="#63b8ff" stroke="#63b8ff" points="230.63,-43.57 234.13,-53.57 237.63,-43.57 230.63,-43.57"/>
</a>
</g>
</g>
</g>
</svg>
