<?xml version="1.0" encoding="UTF-8" standalone="no"?>
<!DOCTYPE svg PUBLIC "-//W3C//DTD SVG 1.1//EN"
 "http://www.w3.org/Graphics/SVG/1.1/DTD/svg11.dtd">
<!-- Generated by graphviz version 9.0.0 (20230911.1827)
 -->
<!-- Title: Eros/TShell/HwSafety.h Pages: 1 -->
<svg width="678pt" height="525pt"
 viewBox="0.00 0.00 678.00 524.50" xmlns="http://www.w3.org/2000/svg" xmlns:xlink="http://www.w3.org/1999/xlink">
<g id="graph0" class="graph" transform="scale(1 1) rotate(0) translate(4 520.5)">
<title>Eros/TShell/HwSafety.h</title>
<!-- Node1 -->
<g id="Node000001" class="node">
<title>Node1</title>
<g id="a_Node000001"><a xlink:title=" ">
<polygon fill="#999999" stroke="#666666" points="127.75,-516.5 8.25,-516.5 8.25,-497.25 127.75,-497.25 127.75,-516.5"/>
<text text-anchor="middle" x="68" y="-503" font-family="Helvetica,sans-Serif" font-size="10.00">Eros/TShell/HwSafety.h</text>
</a>
</g>
</g>
<!-- Node2 -->
<g id="Node000002" class="node">
<title>Node2</title>
<g id="a_Node000002"><a xlink:title=" ">
<polygon fill="#e0e0e0" stroke="#999999" points="533,-19.25 451,-19.25 451,0 533,0 533,-19.25"/>
<text text-anchor="middle" x="492" y="-5.75" font-family="Helvetica,sans-Serif" font-size="10.00">colony_config.h</text>
</a>
</g>
</g>
<!-- Node1&#45;&gt;Node2 -->
<g id="edge1_Node000001_Node000002" class="edge">
<title>Node1&#45;&gt;Node2</title>
<g id="a_edge1_Node000001_Node000002"><a xlink:title=" ">
<path fill="none" stroke="#63b8ff" d="M57.38,-496.92C38.25,-479.75 0,-440.06 0,-397.38 0,-397.38 0,-397.38 0,-119.12 0,-41.32 87.69,-74.81 163,-55.25 258.65,-30.4 373.76,-18.82 439.35,-13.88"/>
<polygon fill="#63b8ff" stroke="#63b8ff" points="439.39,-17.39 449.11,-13.17 438.88,-10.41 439.39,-17.39"/>
</a>
</g>
</g>
<!-- Node3 -->
<g id="Node000003" class="node">
<title>Node3</title>
<g id="a_Node000003"><a xlink:href="_cmd_2_command_8h.html" target="_top" xlink:title=" ">
<polygon fill="white" stroke="#666666" points="457.5,-461.25 318.5,-461.25 318.5,-442 457.5,-442 457.5,-461.25"/>
<text text-anchor="middle" x="388" y="-447.75" font-family="Helvetica,sans-Serif" font-size="10.00">Cpl/TShell/Cmd/Command.h</text>
</a>
</g>
</g>
<!-- Node1&#45;&gt;Node3 -->
<g id="edge2_Node000001_Node000003" class="edge">
<title>Node1&#45;&gt;Node3</title>
<g id="a_edge2_Node000001_Node000003"><a xlink:title=" ">
<path fill="none" stroke="#63b8ff" d="M122.65,-496.78C177.9,-487.59 263.34,-473.37 322.26,-463.56"/>
<polygon fill="#63b8ff" stroke="#63b8ff" points="322.53,-467.07 331.82,-461.97 321.38,-460.16 322.53,-467.07"/>
</a>
</g>
</g>
<!-- Node26 -->
<g id="Node000026" class="node">
<title>Node26</title>
<g id="a_Node000026"><a xlink:href="_in_8h.html" target="_top" xlink:title=" ">
<polygon fill="white" stroke="#666666" points="108.25,-406 27.75,-406 27.75,-386.75 108.25,-386.75 108.25,-406"/>
<text text-anchor="middle" x="68" y="-392.5" font-family="Helvetica,sans-Serif" font-size="10.00">Driver/DIO/In.h</text>
</a>
</g>
</g>
<!-- Node1&#45;&gt;Node26 -->
<g id="edge41_Node000001_Node000026" class="edge">
<title>Node1&#45;&gt;Node26</title>
<g id="a_edge41_Node000001_Node000026"><a xlink:title=" ">
<path fill="none" stroke="#63b8ff" d="M68,-497C68,-479.75 68,-441.33 68,-417.56"/>
<polygon fill="#63b8ff" stroke="#63b8ff" points="71.5,-417.89 68,-407.89 64.5,-417.89 71.5,-417.89"/>
</a>
</g>
</g>
<!-- Node3&#45;&gt;Node2 -->
<g id="edge3_Node000003_Node000002" class="edge">
<title>Node3&#45;&gt;Node2</title>
<g id="a_edge3_Node000003_Node000002"><a xlink:title=" ">
<path fill="none" stroke="#63b8ff" d="M440.38,-441.54C521.93,-425.89 670,-390.78 670,-342.12 670,-342.12 670,-342.12 670,-119.12 670,-59.78 596.98,-31.95 544.47,-19.6"/>
<polygon fill="#63b8ff" stroke="#63b8ff" points="545.28,-16.2 534.76,-17.46 543.77,-23.03 545.28,-16.2"/>
</a>
</g>
</g>
<!-- Node4 -->
<g id="Node000004" class="node">
<title>Node4</title>
<g id="a_Node000004"><a xlink:href="_command_8h.html" target="_top" xlink:title=" ">
<polygon fill="white" stroke="#666666" points="487.88,-350.75 372.12,-350.75 372.12,-331.5 487.88,-331.5 487.88,-350.75"/>
<text text-anchor="middle" x="430" y="-337.25" font-family="Helvetica,sans-Serif" font-size="10.00">Cpl/TShell/Command.h</text>
</a>
</g>
</g>
<!-- Node3&#45;&gt;Node4 -->
<g id="edge4_Node000003_Node000004" class="edge">
<title>Node3&#45;&gt;Node4</title>
<g id="a_edge4_Node000003_Node000004"><a xlink:title=" ">
<path fill="none" stroke="#63b8ff" d="M393.27,-441.63C398.3,-432.78 405.86,-418.78 411,-406 416.83,-391.52 421.79,-374.57 425.18,-361.76"/>
<polygon fill="#63b8ff" stroke="#63b8ff" points="428.47,-363 427.55,-352.45 421.69,-361.27 428.47,-363"/>
</a>
</g>
</g>
<!-- Node15 -->
<g id="Node000015" class="node">
<title>Node15</title>
<g id="a_Node000015"><a xlink:href="_text_2_string_8h.html" target="_top" xlink:title=" ">
<polygon fill="white" stroke="#666666" points="183,-240.25 95,-240.25 95,-221 183,-221 183,-240.25"/>
<text text-anchor="middle" x="139" y="-226.75" font-family="Helvetica,sans-Serif" font-size="10.00">Cpl/Text/String.h</text>
</a>
</g>
</g>
<!-- Node3&#45;&gt;Node15 -->
<g id="edge40_Node000003_Node000015" class="edge">
<title>Node3&#45;&gt;Node15</title>
<g id="a_edge40_Node000003_Node000015"><a xlink:title=" ">
<path fill="none" stroke="#63b8ff" d="M347.78,-441.58C300.62,-428.98 223.05,-401.73 177,-350.75 151.73,-322.77 143.26,-277.94 140.42,-251.99"/>
<polygon fill="#63b8ff" stroke="#63b8ff" points="143.92,-251.78 139.55,-242.13 136.95,-252.4 143.92,-251.78"/>
</a>
</g>
</g>
<!-- Node21 -->
<g id="Node000021" class="node">
<title>Node21</title>
<g id="a_Node000021"><a xlink:href="_context___8h.html" target="_top" xlink:title=" ">
<polygon fill="white" stroke="#666666" points="401.88,-406 292.12,-406 292.12,-386.75 401.88,-386.75 401.88,-406"/>
<text text-anchor="middle" x="347" y="-392.5" font-family="Helvetica,sans-Serif" font-size="10.00">Cpl/TShell/Context_.h</text>
</a>
</g>
</g>
<!-- Node3&#45;&gt;Node21 -->
<g id="edge26_Node000003_Node000021" class="edge">
<title>Node3&#45;&gt;Node21</title>
<g id="a_edge26_Node000003_Node000021"><a xlink:title=" ">
<path fill="none" stroke="#63b8ff" d="M381.23,-441.83C375.68,-434.63 367.66,-424.21 360.77,-415.26"/>
<polygon fill="#63b8ff" stroke="#63b8ff" points="363.71,-413.35 354.84,-407.56 358.17,-417.62 363.71,-413.35"/>
</a>
</g>
</g>
<!-- Node24 -->
<g id="Node000024" class="node">
<title>Node24</title>
<g id="a_Node000024"><a xlink:href="_map_8h.html" target="_top" xlink:title=" ">
<polygon fill="white" stroke="#666666" points="609.88,-350.75 506.12,-350.75 506.12,-331.5 609.88,-331.5 609.88,-350.75"/>
<text text-anchor="middle" x="558" y="-337.25" font-family="Helvetica,sans-Serif" font-size="10.00">Cpl/Container/Map.h</text>
</a>
</g>
</g>
<!-- Node3&#45;&gt;Node24 -->
<g id="edge39_Node000003_Node000024" class="edge">
<title>Node3&#45;&gt;Node24</title>
<g id="a_edge39_Node000003_Node000024"><a xlink:title=" ">
<path fill="none" stroke="#63b8ff" d="M402.2,-441.56C431.4,-422.93 498.43,-380.15 534.31,-357.25"/>
<polygon fill="#63b8ff" stroke="#63b8ff" points="536.14,-360.23 542.68,-351.9 532.37,-354.33 536.14,-360.23"/>
</a>
</g>
</g>
<!-- Node5 -->
<g id="Node000005" class="node">
<title>Node5</title>
<g id="a_Node000005"><a xlink:href="_map_item_8h.html" target="_top" xlink:title=" ">
<polygon fill="white" stroke="#666666" points="551.62,-240.25 428.38,-240.25 428.38,-221 551.62,-221 551.62,-240.25"/>
<text text-anchor="middle" x="490" y="-226.75" font-family="Helvetica,sans-Serif" font-size="10.00">Cpl/Container/MapItem.h</text>
</a>
</g>
</g>
<!-- Node4&#45;&gt;Node5 -->
<g id="edge5_Node000004_Node000005" class="edge">
<title>Node4&#45;&gt;Node5</title>
<g id="a_edge5_Node000004_Node000005"><a xlink:title=" ">
<path fill="none" stroke="#63b8ff" d="M440.53,-331.23C449.79,-322.88 463,-309.59 471,-295.5 478.79,-281.77 483.67,-264.54 486.53,-251.43"/>
<polygon fill="#63b8ff" stroke="#63b8ff" points="489.92,-252.35 488.4,-241.87 483.05,-251.01 489.92,-252.35"/>
</a>
</g>
</g>
<!-- Node14 -->
<g id="Node000014" class="node">
<title>Node14</title>
<g id="a_Node000014"><a xlink:href="_output_8h.html" target="_top" xlink:title=" ">
<polygon fill="white" stroke="#666666" points="337.62,-295.5 256.38,-295.5 256.38,-276.25 337.62,-276.25 337.62,-295.5"/>
<text text-anchor="middle" x="297" y="-282" font-family="Helvetica,sans-Serif" font-size="10.00">Cpl/Io/Output.h</text>
</a>
</g>
</g>
<!-- Node4&#45;&gt;Node14 -->
<g id="edge15_Node000004_Node000014" class="edge">
<title>Node4&#45;&gt;Node14</title>
<g id="a_edge15_Node000004_Node000014"><a xlink:title=" ">
<path fill="none" stroke="#63b8ff" d="M407.44,-331.09C386.23,-322.6 354.23,-309.79 330.12,-300.14"/>
<polygon fill="#63b8ff" stroke="#63b8ff" points="331.66,-296.98 321.08,-296.52 329.06,-303.48 331.66,-296.98"/>
</a>
</g>
</g>
<!-- Node20 -->
<g id="Node000020" class="node">
<title>Node20</title>
<g id="a_Node000020"><a xlink:href="_security_8h.html" target="_top" xlink:title=" ">
<polygon fill="white" stroke="#666666" points="462.38,-295.5 355.62,-295.5 355.62,-276.25 462.38,-276.25 462.38,-295.5"/>
<text text-anchor="middle" x="409" y="-282" font-family="Helvetica,sans-Serif" font-size="10.00">Cpl/TShell/Security.h</text>
</a>
</g>
</g>
<!-- Node4&#45;&gt;Node20 -->
<g id="edge25_Node000004_Node000020" class="edge">
<title>Node4&#45;&gt;Node20</title>
<g id="a_edge25_Node000004_Node000020"><a xlink:title=" ">
<path fill="none" stroke="#63b8ff" d="M426.53,-331.33C423.87,-324.59 420.1,-315.02 416.74,-306.49"/>
<polygon fill="#63b8ff" stroke="#63b8ff" points="420.02,-305.29 413.1,-297.27 413.51,-307.85 420.02,-305.29"/>
</a>
</g>
</g>
<!-- Node6 -->
<g id="Node000006" class="node">
<title>Node6</title>
<g id="a_Node000006"><a xlink:href="_dict_item_8h.html" target="_top" xlink:title=" ">
<polygon fill="white" stroke="#666666" points="506.88,-185 385.12,-185 385.12,-165.75 506.88,-165.75 506.88,-185"/>
<text text-anchor="middle" x="446" y="-171.5" font-family="Helvetica,sans-Serif" font-size="10.00">Cpl/Container/DictItem.h</text>
</a>
</g>
</g>
<!-- Node5&#45;&gt;Node6 -->
<g id="edge6_Node000005_Node000006" class="edge">
<title>Node5&#45;&gt;Node6</title>
<g id="a_edge6_Node000005_Node000006"><a xlink:title=" ">
<path fill="none" stroke="#63b8ff" d="M482.73,-220.83C476.72,-213.55 467.99,-202.98 460.54,-193.98"/>
<polygon fill="#63b8ff" stroke="#63b8ff" points="463.46,-192.01 454.39,-186.53 458.06,-196.46 463.46,-192.01"/>
</a>
</g>
</g>
<!-- Node7 -->
<g id="Node000007" class="node">
<title>Node7</title>
<g id="a_Node000007"><a xlink:href="_item_8h.html" target="_top" xlink:title=" ">
<polygon fill="white" stroke="#666666" points="498.25,-129.75 393.75,-129.75 393.75,-110.5 498.25,-110.5 498.25,-129.75"/>
<text text-anchor="middle" x="446" y="-116.25" font-family="Helvetica,sans-Serif" font-size="10.00">Cpl/Container/Item.h</text>
</a>
</g>
</g>
<!-- Node6&#45;&gt;Node7 -->
<g id="edge7_Node000006_Node000007" class="edge">
<title>Node6&#45;&gt;Node7</title>
<g id="a_edge7_Node000006_Node000007"><a xlink:title=" ">
<path fill="none" stroke="#63b8ff" d="M446,-165.58C446,-159.07 446,-149.92 446,-141.62"/>
<polygon fill="#63b8ff" stroke="#63b8ff" points="449.5,-141.62 446,-131.62 442.5,-141.62 449.5,-141.62"/>
</a>
</g>
</g>
<!-- Node8 -->
<g id="Node000008" class="node">
<title>Node8</title>
<g id="a_Node000008"><a xlink:href="_key_8h.html" target="_top" xlink:title=" ">
<polygon fill="white" stroke="#666666" points="375.75,-129.75 274.25,-129.75 274.25,-110.5 375.75,-110.5 375.75,-129.75"/>
<text text-anchor="middle" x="325" y="-116.25" font-family="Helvetica,sans-Serif" font-size="10.00">Cpl/Container/Key.h</text>
</a>
</g>
</g>
<!-- Node6&#45;&gt;Node8 -->
<g id="edge8_Node000006_Node000008" class="edge">
<title>Node6&#45;&gt;Node8</title>
<g id="a_edge8_Node000006_Node000008"><a xlink:title=" ">
<path fill="none" stroke="#63b8ff" d="M425.47,-165.34C406.44,-156.97 377.85,-144.38 356.03,-134.78"/>
<polygon fill="#63b8ff" stroke="#63b8ff" points="357.57,-131.64 347.01,-130.81 354.76,-138.04 357.57,-131.64"/>
</a>
</g>
</g>
<!-- Node9 -->
<g id="Node000009" class="node">
<title>Node9</title>
<g id="a_Node000009"><a xlink:href="_fatal_error_8h.html" target="_top" xlink:title=" ">
<polygon fill="white" stroke="#666666" points="384.38,-74.5 265.62,-74.5 265.62,-55.25 384.38,-55.25 384.38,-74.5"/>
<text text-anchor="middle" x="325" y="-61" font-family="Helvetica,sans-Serif" font-size="10.00">Cpl/System/FatalError.h</text>
</a>
</g>
</g>
<!-- Node8&#45;&gt;Node9 -->
<g id="edge9_Node000008_Node000009" class="edge">
<title>Node8&#45;&gt;Node9</title>
<g id="a_edge9_Node000008_Node000009"><a xlink:title=" ">
<path fill="none" stroke="#63b8ff" d="M325,-110.33C325,-103.82 325,-94.67 325,-86.37"/>
<polygon fill="#63b8ff" stroke="#63b8ff" points="328.5,-86.37 325,-76.37 321.5,-86.37 328.5,-86.37"/>
</a>
</g>
</g>
<!-- Node11 -->
<g id="Node000011" class="node">
<title>Node11</title>
<g id="a_Node000011"><a xlink:title=" ">
<polygon fill="#e0e0e0" stroke="#999999" points="449.75,-74.5 402.25,-74.5 402.25,-55.25 449.75,-55.25 449.75,-74.5"/>
<text text-anchor="middle" x="426" y="-61" font-family="Helvetica,sans-Serif" font-size="10.00">stdint.h</text>
</a>
</g>
</g>
<!-- Node8&#45;&gt;Node11 -->
<g id="edge12_Node000008_Node000011" class="edge">
<title>Node8&#45;&gt;Node11</title>
<g id="a_edge12_Node000008_Node000011"><a xlink:title=" ">
<path fill="none" stroke="#63b8ff" d="M342.13,-110.09C357.66,-101.91 380.8,-89.71 398.84,-80.19"/>
<polygon fill="#63b8ff" stroke="#63b8ff" points="400.23,-83.42 407.44,-75.66 396.97,-77.23 400.23,-83.42"/>
</a>
</g>
</g>
<!-- Node12 -->
<g id="Node000012" class="node">
<title>Node12</title>
<g id="a_Node000012"><a xlink:title=" ">
<polygon fill="#e0e0e0" stroke="#999999" points="515.75,-74.5 468.25,-74.5 468.25,-55.25 515.75,-55.25 515.75,-74.5"/>
<text text-anchor="middle" x="492" y="-61" font-family="Helvetica,sans-Serif" font-size="10.00">string.h</text>
</a>
</g>
</g>
<!-- Node8&#45;&gt;Node12 -->
<g id="edge13_Node000008_Node000012" class="edge">
<title>Node8&#45;&gt;Node12</title>
<g id="a_edge13_Node000008_Node000012"><a xlink:title=" ">
<path fill="none" stroke="#63b8ff" d="M353.33,-110.09C382.01,-100.95 426.4,-86.79 457.2,-76.97"/>
<polygon fill="#63b8ff" stroke="#63b8ff" points="457.97,-80.4 466.43,-74.03 455.84,-73.73 457.97,-80.4"/>
</a>
</g>
</g>
<!-- Node13 -->
<g id="Node000013" class="node">
<title>Node13</title>
<g id="a_Node000013"><a xlink:title=" ">
<polygon fill="#e0e0e0" stroke="#999999" points="247.62,-74.5 172.38,-74.5 172.38,-55.25 247.62,-55.25 247.62,-74.5"/>
<text text-anchor="middle" x="210" y="-61" font-family="Helvetica,sans-Serif" font-size="10.00">colony_map.h</text>
</a>
</g>
</g>
<!-- Node8&#45;&gt;Node13 -->
<g id="edge14_Node000008_Node000013" class="edge">
<title>Node8&#45;&gt;Node13</title>
<g id="a_edge14_Node000008_Node000013"><a xlink:title=" ">
<path fill="none" stroke="#63b8ff" d="M305.49,-110.09C287.48,-101.75 260.48,-89.25 239.77,-79.66"/>
<polygon fill="#63b8ff" stroke="#63b8ff" points="241.52,-76.61 230.98,-75.59 238.58,-82.97 241.52,-76.61"/>
</a>
</g>
</g>
<!-- Node9&#45;&gt;Node2 -->
<g id="edge11_Node000009_Node000002" class="edge">
<title>Node9&#45;&gt;Node2</title>
<g id="a_edge11_Node000009_Node000002"><a xlink:title=" ">
<path fill="none" stroke="#63b8ff" d="M353.33,-54.84C380.68,-46.12 422.32,-32.84 452.84,-23.11"/>
<polygon fill="#63b8ff" stroke="#63b8ff" points="453.63,-26.53 462.09,-20.16 451.5,-19.87 453.63,-26.53"/>
</a>
</g>
</g>
<!-- Node10 -->
<g id="Node000010" class="node">
<title>Node10</title>
<g id="a_Node000010"><a xlink:title=" ">
<polygon fill="#e0e0e0" stroke="#999999" points="350.25,-19.25 299.75,-19.25 299.75,0 350.25,0 350.25,-19.25"/>
<text text-anchor="middle" x="325" y="-5.75" font-family="Helvetica,sans-Serif" font-size="10.00">stddef.h</text>
</a>
</g>
</g>
<!-- Node9&#45;&gt;Node10 -->
<g id="edge10_Node000009_Node000010" class="edge">
<title>Node9&#45;&gt;Node10</title>
<g id="a_edge10_Node000009_Node000010"><a xlink:title=" ">
<path fill="none" stroke="#63b8ff" d="M325,-55.08C325,-48.57 325,-39.42 325,-31.12"/>
<polygon fill="#63b8ff" stroke="#63b8ff" points="328.5,-31.12 325,-21.12 321.5,-31.12 328.5,-31.12"/>
</a>
</g>
</g>
<!-- Node14&#45;&gt;Node15 -->
<g id="edge16_Node000014_Node000015" class="edge">
<title>Node14&#45;&gt;Node15</title>
<g id="a_edge16_Node000014_Node000015"><a xlink:title=" ">
<path fill="none" stroke="#63b8ff" d="M270.2,-275.84C244.55,-267.2 205.61,-254.07 176.81,-244.37"/>
<polygon fill="#63b8ff" stroke="#63b8ff" points="177.96,-241.06 167.37,-241.19 175.73,-247.7 177.96,-241.06"/>
</a>
</g>
</g>
<!-- Node16 -->
<g id="Node000016" class="node">
<title>Node16</title>
<g id="a_Node000016"><a xlink:title=" ">
<polygon fill="#e0e0e0" stroke="#999999" points="357.25,-185 306.75,-185 306.75,-165.75 357.25,-165.75 357.25,-185"/>
<text text-anchor="middle" x="332" y="-171.5" font-family="Helvetica,sans-Serif" font-size="10.00">stdarg.h</text>
</a>
</g>
</g>
<!-- Node14&#45;&gt;Node16 -->
<g id="edge24_Node000014_Node000016" class="edge">
<title>Node14&#45;&gt;Node16</title>
<g id="a_edge24_Node000014_Node000016"><a xlink:title=" ">
<path fill="none" stroke="#63b8ff" d="M331.69,-275.84C349.76,-269.17 370.28,-258.08 381,-240.25 391.57,-222.66 373.9,-204.24 356.91,-191.72"/>
<polygon fill="#63b8ff" stroke="#63b8ff" points="359.19,-189.05 348.97,-186.28 355.23,-194.82 359.19,-189.05"/>
</a>
</g>
</g>
<!-- Node18 -->
<g id="Node000018" class="node">
<title>Node18</title>
<g id="a_Node000018"><a xlink:href="_close_8h.html" target="_top" xlink:title=" ">
<polygon fill="white" stroke="#666666" points="277.38,-240.25 200.62,-240.25 200.62,-221 277.38,-221 277.38,-240.25"/>
<text text-anchor="middle" x="239" y="-226.75" font-family="Helvetica,sans-Serif" font-size="10.00">Cpl/Io/Close.h</text>
</a>
</g>
</g>
<!-- Node14&#45;&gt;Node18 -->
<g id="edge21_Node000014_Node000018" class="edge">
<title>Node14&#45;&gt;Node18</title>
<g id="a_edge21_Node000014_Node000018"><a xlink:title=" ">
<path fill="none" stroke="#63b8ff" d="M287.16,-275.84C278.95,-268.3 267.02,-257.35 257.09,-248.23"/>
<polygon fill="#63b8ff" stroke="#63b8ff" points="259.54,-245.73 249.81,-241.55 254.81,-250.89 259.54,-245.73"/>
</a>
</g>
</g>
<!-- Node19 -->
<g id="Node000019" class="node">
<title>Node19</title>
<g id="a_Node000019"><a xlink:href="_is_eos_8h.html" target="_top" xlink:title=" ">
<polygon fill="white" stroke="#666666" points="372.38,-240.25 295.62,-240.25 295.62,-221 372.38,-221 372.38,-240.25"/>
<text text-anchor="middle" x="334" y="-226.75" font-family="Helvetica,sans-Serif" font-size="10.00">Cpl/Io/IsEos.h</text>
</a>
</g>
</g>
<!-- Node14&#45;&gt;Node19 -->
<g id="edge23_Node000014_Node000019" class="edge">
<title>Node14&#45;&gt;Node19</title>
<g id="a_edge23_Node000014_Node000019"><a xlink:title=" ">
<path fill="none" stroke="#63b8ff" d="M303.11,-276.08C308.06,-268.96 315.2,-258.68 321.37,-249.8"/>
<polygon fill="#63b8ff" stroke="#63b8ff" points="324.06,-252.06 326.89,-241.85 318.31,-248.07 324.06,-252.06"/>
</a>
</g>
</g>
<!-- Node15&#45;&gt;Node8 -->
<g id="edge18_Node000015_Node000008" class="edge">
<title>Node15&#45;&gt;Node8</title>
<g id="a_edge18_Node000015_Node000008"><a xlink:title=" ">
<path fill="none" stroke="#63b8ff" d="M132.71,-220.75C124.08,-207.38 111.03,-181.92 124,-165.75 141.19,-144.32 210.21,-132.54 262.62,-126.54"/>
<polygon fill="#63b8ff" stroke="#63b8ff" points="262.79,-130.04 272.35,-125.48 262.03,-123.08 262.79,-130.04"/>
</a>
</g>
</g>
<!-- Node15&#45;&gt;Node13 -->
<g id="edge17_Node000015_Node000013" class="edge">
<title>Node15&#45;&gt;Node13</title>
<g id="a_edge17_Node000015_Node000013"><a xlink:title=" ">
<path fill="none" stroke="#63b8ff" d="M157.09,-220.53C170.21,-212.93 187.14,-200.78 196,-185 213.46,-153.92 213.83,-111.15 212.16,-86.21"/>
<polygon fill="#63b8ff" stroke="#63b8ff" points="215.66,-86.12 211.31,-76.46 208.69,-86.73 215.66,-86.12"/>
</a>
</g>
</g>
<!-- Node15&#45;&gt;Node16 -->
<g id="edge19_Node000015_Node000016" class="edge">
<title>Node15&#45;&gt;Node16</title>
<g id="a_edge19_Node000015_Node000016"><a xlink:title=" ">
<path fill="none" stroke="#63b8ff" d="M171.74,-220.59C206.09,-211.11 259.96,-196.25 295.62,-186.41"/>
<polygon fill="#63b8ff" stroke="#63b8ff" points="296.34,-189.84 305.05,-183.81 294.48,-183.1 296.34,-189.84"/>
</a>
</g>
</g>
<!-- Node17 -->
<g id="Node000017" class="node">
<title>Node17</title>
<g id="a_Node000017"><a xlink:title=" ">
<polygon fill="#e0e0e0" stroke="#999999" points="186.75,-185 133.25,-185 133.25,-165.75 186.75,-165.75 186.75,-185"/>
<text text-anchor="middle" x="160" y="-171.5" font-family="Helvetica,sans-Serif" font-size="10.00">iostream</text>
</a>
</g>
</g>
<!-- Node15&#45;&gt;Node17 -->
<g id="edge20_Node000015_Node000017" class="edge">
<title>Node15&#45;&gt;Node17</title>
<g id="a_edge20_Node000015_Node000017"><a xlink:title=" ">
<path fill="none" stroke="#63b8ff" d="M142.47,-220.83C145.13,-214.09 148.9,-204.52 152.26,-195.99"/>
<polygon fill="#63b8ff" stroke="#63b8ff" points="155.49,-197.35 155.9,-186.77 148.98,-194.79 155.49,-197.35"/>
</a>
</g>
</g>
<!-- Node18&#45;&gt;Node7 -->
<g id="edge22_Node000018_Node000007" class="edge">
<title>Node18&#45;&gt;Node7</title>
<g id="a_edge22_Node000018_Node000007"><a xlink:title=" ">
<path fill="none" stroke="#63b8ff" d="M244.79,-220.8C254.27,-207.03 274.45,-180.48 298,-165.75 323.5,-149.8 355.03,-139.27 382.43,-132.46"/>
<polygon fill="#63b8ff" stroke="#63b8ff" points="383.09,-135.9 392.02,-130.2 381.48,-129.09 383.09,-135.9"/>
</a>
</g>
</g>
<!-- Node21&#45;&gt;Node4 -->
<g id="edge34_Node000021_Node000004" class="edge">
<title>Node21&#45;&gt;Node4</title>
<g id="a_edge34_Node000021_Node000004"><a xlink:title=" ">
<path fill="none" stroke="#63b8ff" d="M361.08,-386.34C373.48,-378.39 391.79,-366.64 406.43,-357.25"/>
<polygon fill="#63b8ff" stroke="#63b8ff" points="408.05,-360.37 414.58,-352.02 404.27,-354.47 408.05,-360.37"/>
</a>
</g>
</g>
<!-- Node21&#45;&gt;Node20 -->
<g id="edge33_Node000021_Node000020" class="edge">
<title>Node21&#45;&gt;Node20</title>
<g id="a_edge33_Node000021_Node000020"><a xlink:title=" ">
<path fill="none" stroke="#63b8ff" d="M347.68,-386.54C348.99,-373.66 352.72,-349.33 363,-331.5 369.27,-320.63 378.95,-310.67 387.81,-302.93"/>
<polygon fill="#63b8ff" stroke="#63b8ff" points="389.9,-305.75 395.41,-296.69 385.46,-300.34 389.9,-305.75"/>
</a>
</g>
</g>
<!-- Node22 -->
<g id="Node000022" class="node">
<title>Node22</title>
<g id="a_Node000022"><a xlink:href="_processor_api_8h.html" target="_top" xlink:title=" ">
<polygon fill="white" stroke="#666666" points="316,-350.75 186,-350.75 186,-331.5 316,-331.5 316,-350.75"/>
<text text-anchor="middle" x="251" y="-337.25" font-family="Helvetica,sans-Serif" font-size="10.00">Cpl/TShell/ProcessorApi.h</text>
</a>
</g>
</g>
<!-- Node21&#45;&gt;Node22 -->
<g id="edge27_Node000021_Node000022" class="edge">
<title>Node21&#45;&gt;Node22</title>
<g id="a_edge27_Node000021_Node000022"><a xlink:title=" ">
<path fill="none" stroke="#63b8ff" d="M330.71,-386.34C316.1,-378.23 294.37,-366.18 277.29,-356.71"/>
<polygon fill="#63b8ff" stroke="#63b8ff" points="279.13,-353.73 268.69,-351.94 275.74,-359.85 279.13,-353.73"/>
</a>
</g>
</g>
<!-- Node21&#45;&gt;Node24 -->
<g id="edge35_Node000021_Node000024" class="edge">
<title>Node21&#45;&gt;Node24</title>
<g id="a_edge35_Node000021_Node000024"><a xlink:title=" ">
<path fill="none" stroke="#63b8ff" d="M382.79,-386.34C418.11,-377.43 472.28,-363.76 511.04,-353.98"/>
<polygon fill="#63b8ff" stroke="#63b8ff" points="511.72,-357.41 520.56,-351.57 510.01,-350.63 511.72,-357.41"/>
</a>
</g>
</g>
<!-- Node22&#45;&gt;Node14 -->
<g id="edge32_Node000022_Node000014" class="edge">
<title>Node22&#45;&gt;Node14</title>
<g id="a_edge32_Node000022_Node000014"><a xlink:title=" ">
<path fill="none" stroke="#63b8ff" d="M258.6,-331.33C264.88,-324.05 274.01,-313.48 281.8,-304.48"/>
<polygon fill="#63b8ff" stroke="#63b8ff" points="284.36,-306.86 288.25,-297 279.06,-302.28 284.36,-306.86"/>
</a>
</g>
</g>
<!-- Node23 -->
<g id="Node000023" class="node">
<title>Node23</title>
<g id="a_Node000023"><a xlink:href="_input_8h.html" target="_top" xlink:title=" ">
<polygon fill="white" stroke="#666666" points="237.88,-295.5 164.12,-295.5 164.12,-276.25 237.88,-276.25 237.88,-295.5"/>
<text text-anchor="middle" x="201" y="-282" font-family="Helvetica,sans-Serif" font-size="10.00">Cpl/Io/Input.h</text>
</a>
</g>
</g>
<!-- Node22&#45;&gt;Node23 -->
<g id="edge28_Node000022_Node000023" class="edge">
<title>Node22&#45;&gt;Node23</title>
<g id="a_edge28_Node000022_Node000023"><a xlink:title=" ">
<path fill="none" stroke="#63b8ff" d="M242.74,-331.33C235.84,-323.98 225.78,-313.26 217.26,-304.19"/>
<polygon fill="#63b8ff" stroke="#63b8ff" points="219.87,-301.86 210.47,-296.96 214.77,-306.65 219.87,-301.86"/>
</a>
</g>
</g>
<!-- Node23&#45;&gt;Node15 -->
<g id="edge29_Node000023_Node000015" class="edge">
<title>Node23&#45;&gt;Node15</title>
<g id="a_edge29_Node000023_Node000015"><a xlink:title=" ">
<path fill="none" stroke="#63b8ff" d="M190.48,-275.84C181.61,-268.22 168.69,-257.12 158.01,-247.95"/>
<polygon fill="#63b8ff" stroke="#63b8ff" points="160.38,-245.37 150.51,-241.51 155.82,-250.68 160.38,-245.37"/>
</a>
</g>
</g>
<!-- Node23&#45;&gt;Node18 -->
<g id="edge30_Node000023_Node000018" class="edge">
<title>Node23&#45;&gt;Node18</title>
<g id="a_edge30_Node000023_Node000018"><a xlink:title=" ">
<path fill="none" stroke="#63b8ff" d="M207.27,-276.08C212.36,-268.96 219.7,-258.68 226.03,-249.8"/>
<polygon fill="#63b8ff" stroke="#63b8ff" points="228.75,-252.01 231.71,-241.84 223.05,-247.95 228.75,-252.01"/>
</a>
</g>
</g>
<!-- Node23&#45;&gt;Node19 -->
<g id="edge31_Node000023_Node000019" class="edge">
<title>Node23&#45;&gt;Node19</title>
<g id="a_edge31_Node000023_Node000019"><a xlink:title=" ">
<path fill="none" stroke="#63b8ff" d="M223.56,-275.84C244.77,-267.35 276.77,-254.54 300.88,-244.89"/>
<polygon fill="#63b8ff" stroke="#63b8ff" points="301.94,-248.23 309.92,-241.27 299.34,-241.73 301.94,-248.23"/>
</a>
</g>
</g>
<!-- Node25 -->
<g id="Node000025" class="node">
<title>Node25</title>
<g id="a_Node000025"><a xlink:href="_avl_tree___8h.html" target="_top" xlink:title=" ">
<polygon fill="white" stroke="#666666" points="642,-295.5 518,-295.5 518,-276.25 642,-276.25 642,-295.5"/>
<text text-anchor="middle" x="580" y="-282" font-family="Helvetica,sans-Serif" font-size="10.00">Cpl/Container/AvlTree_.h</text>
</a>
</g>
</g>
<!-- Node24&#45;&gt;Node25 -->
<g id="edge36_Node000024_Node000025" class="edge">
<title>Node24&#45;&gt;Node25</title>
<g id="a_edge36_Node000024_Node000025"><a xlink:title=" ">
<path fill="none" stroke="#63b8ff" d="M561.63,-331.33C564.42,-324.59 568.37,-315.02 571.9,-306.49"/>
<polygon fill="#63b8ff" stroke="#63b8ff" points="575.13,-307.84 575.71,-297.26 568.66,-305.16 575.13,-307.84"/>
</a>
</g>
</g>
<!-- Node25&#45;&gt;Node2 -->
<g id="edge37_Node000025_Node000002" class="edge">
<title>Node25&#45;&gt;Node2</title>
<g id="a_edge37_Node000025_Node000002"><a xlink:title=" ">
<path fill="none" stroke="#63b8ff" d="M580,-275.87C580,-257.28 580,-213.3 580,-176.38 580,-176.38 580,-176.38 580,-119.12 580,-78.48 542.29,-44.55 516.24,-25.97"/>
<polygon fill="#63b8ff" stroke="#63b8ff" points="518.41,-23.21 508.18,-20.46 514.46,-28.99 518.41,-23.21"/>
</a>
</g>
</g>
<!-- Node25&#45;&gt;Node5 -->
<g id="edge38_Node000025_Node000005" class="edge">
<title>Node25&#45;&gt;Node5</title>
<g id="a_edge38_Node000025_Node000005"><a xlink:title=" ">
<path fill="none" stroke="#63b8ff" d="M564.73,-275.84C551.16,-267.81 531.05,-255.91 515.1,-246.48"/>
<polygon fill="#63b8ff" stroke="#63b8ff" points="517.03,-243.55 506.64,-241.47 513.47,-249.58 517.03,-243.55"/>
</a>
</g>
</g>
<!-- Node26&#45;&gt;Node13 -->
<g id="edge42_Node000026_Node000013" class="edge">
<title>Node26&#45;&gt;Node13</title>
<g id="a_edge42_Node000026_Node000013"><a xlink:title=" ">
<path fill="none" stroke="#63b8ff" d="M67.86,-386.37C67.59,-367.78 67,-323.8 67,-286.88 67,-286.88 67,-286.88 67,-174.38 67,-124.03 123.96,-94.01 165.98,-78.72"/>
<polygon fill="#63b8ff" stroke="#63b8ff" points="167.09,-82.04 175.4,-75.47 164.81,-75.42 167.09,-82.04"/>
</a>
</g>
</g>
</g>
</svg>
