<?xml version="1.0" encoding="UTF-8" standalone="no"?>
<!DOCTYPE svg PUBLIC "-//W3C//DTD SVG 1.1//EN"
 "http://www.w3.org/Graphics/SVG/1.1/DTD/svg11.dtd">
<!-- Generated by graphviz version 2.43.0 (0)
 -->
<!-- Title: Eros/TShell/HwSafety.h Pages: 1 -->
<svg width="673pt" height="467pt"
 viewBox="0.00 0.00 673.00 467.00" xmlns="http://www.w3.org/2000/svg" xmlns:xlink="http://www.w3.org/1999/xlink">
<g id="graph0" class="graph" transform="scale(1 1) rotate(0) translate(4 463)">
<title>Eros/TShell/HwSafety.h</title>
<!-- Node1 -->
<g id="Node000001" class="node">
<title>Node1</title>
<g id="a_Node000001"><a xlink:title=" ">
<polygon fill="#999999" stroke="#666666" points="285,-459 157,-459 157,-440 285,-440 285,-459"/>
<text text-anchor="middle" x="221" y="-447" font-family="Helvetica,sans-Serif" font-size="10.00">Eros/TShell/HwSafety.h</text>
</a>
</g>
</g>
<!-- Node2 -->
<g id="Node000002" class="node">
<title>Node2</title>
<g id="a_Node000002"><a xlink:title=" ">
<polygon fill="#e0e0e0" stroke="#999999" points="92,-19 0,-19 0,0 92,0 92,-19"/>
<text text-anchor="middle" x="46" y="-7" font-family="Helvetica,sans-Serif" font-size="10.00">colony_config.h</text>
</a>
</g>
</g>
<!-- Node1&#45;&gt;Node2 -->
<g id="edge1_Node000001_Node000002" class="edge">
<title>Node1&#45;&gt;Node2</title>
<g id="a_edge1_Node000001_Node000002"><a xlink:title=" ">
<path fill="none" stroke="#63b8ff" d="M156.8,-442.81C94.09,-433.31 8,-407.98 8,-340.5 8,-340.5 8,-340.5 8,-118.5 8,-85.02 24.45,-48.84 35.7,-28.01"/>
<polygon fill="#63b8ff" stroke="#63b8ff" points="38.87,-29.53 40.72,-19.1 32.76,-26.1 38.87,-29.53"/>
</a>
</g>
</g>
<!-- Node3 -->
<g id="Node000003" class="node">
<title>Node3</title>
<g id="a_Node000003"><a xlink:href="_cmd_2_command_8h.html" target="_top" xlink:title=" ">
<polygon fill="white" stroke="#666666" points="297.5,-404 144.5,-404 144.5,-385 297.5,-385 297.5,-404"/>
<text text-anchor="middle" x="221" y="-392" font-family="Helvetica,sans-Serif" font-size="10.00">Cpl/TShell/Cmd/Command.h</text>
</a>
</g>
</g>
<!-- Node1&#45;&gt;Node3 -->
<g id="edge2_Node000001_Node000003" class="edge">
<title>Node1&#45;&gt;Node3</title>
<g id="a_edge2_Node000001_Node000003"><a xlink:title=" ">
<path fill="none" stroke="#63b8ff" d="M221,-439.75C221,-432.8 221,-422.85 221,-414.13"/>
<polygon fill="#63b8ff" stroke="#63b8ff" points="224.5,-414.09 221,-404.09 217.5,-414.09 224.5,-414.09"/>
</a>
</g>
</g>
<!-- Node23 -->
<g id="Node000023" class="node">
<title>Node23</title>
<g id="a_Node000023"><a xlink:href="_in_8h.html" target="_top" xlink:title=" ">
<polygon fill="white" stroke="#666666" points="530.5,-349 441.5,-349 441.5,-330 530.5,-330 530.5,-349"/>
<text text-anchor="middle" x="486" y="-337" font-family="Helvetica,sans-Serif" font-size="10.00">Driver/DIO/In.h</text>
</a>
</g>
</g>
<!-- Node1&#45;&gt;Node23 -->
<g id="edge34_Node000001_Node000023" class="edge">
<title>Node1&#45;&gt;Node23</title>
<g id="a_edge34_Node000001_Node000023"><a xlink:title=" ">
<path fill="none" stroke="#63b8ff" d="M242.24,-439.84C289.07,-420.76 401.32,-375.01 455.6,-352.89"/>
<polygon fill="#63b8ff" stroke="#63b8ff" points="457.09,-356.06 465.03,-349.05 454.45,-349.58 457.09,-356.06"/>
</a>
</g>
</g>
<!-- Node3&#45;&gt;Node2 -->
<g id="edge3_Node000003_Node000002" class="edge">
<title>Node3&#45;&gt;Node2</title>
<g id="a_edge3_Node000003_Node000002"><a xlink:title=" ">
<path fill="none" stroke="#63b8ff" d="M171.79,-384.93C120.03,-372.75 46,-344.94 46,-285.5 46,-285.5 46,-285.5 46,-118.5 46,-87.19 46,-50.77 46,-29.23"/>
<polygon fill="#63b8ff" stroke="#63b8ff" points="49.5,-29.18 46,-19.18 42.5,-29.18 49.5,-29.18"/>
</a>
</g>
</g>
<!-- Node4 -->
<g id="Node000004" class="node">
<title>Node4</title>
<g id="a_Node000004"><a xlink:href="_command_8h.html" target="_top" xlink:title=" ">
<polygon fill="white" stroke="#666666" points="376,-294 248,-294 248,-275 376,-275 376,-294"/>
<text text-anchor="middle" x="312" y="-282" font-family="Helvetica,sans-Serif" font-size="10.00">Cpl/TShell/Command.h</text>
</a>
</g>
</g>
<!-- Node3&#45;&gt;Node4 -->
<g id="edge4_Node000003_Node000004" class="edge">
<title>Node3&#45;&gt;Node4</title>
<g id="a_edge4_Node000003_Node000004"><a xlink:title=" ">
<path fill="none" stroke="#63b8ff" d="M241.83,-384.95C257.41,-377.56 278.17,-365.47 291,-349 301.15,-335.98 306.5,-317.83 309.26,-304.27"/>
<polygon fill="#63b8ff" stroke="#63b8ff" points="312.75,-304.62 311.01,-294.17 305.85,-303.43 312.75,-304.62"/>
</a>
</g>
</g>
<!-- Node19 -->
<g id="Node000019" class="node">
<title>Node19</title>
<g id="a_Node000019"><a xlink:href="_context___8h.html" target="_top" xlink:title=" ">
<polygon fill="white" stroke="#666666" points="281.5,-349 160.5,-349 160.5,-330 281.5,-330 281.5,-349"/>
<text text-anchor="middle" x="221" y="-337" font-family="Helvetica,sans-Serif" font-size="10.00">Cpl/TShell/Context_.h</text>
</a>
</g>
</g>
<!-- Node3&#45;&gt;Node19 -->
<g id="edge23_Node000003_Node000019" class="edge">
<title>Node3&#45;&gt;Node19</title>
<g id="a_edge23_Node000003_Node000019"><a xlink:title=" ">
<path fill="none" stroke="#63b8ff" d="M221,-384.75C221,-377.8 221,-367.85 221,-359.13"/>
<polygon fill="#63b8ff" stroke="#63b8ff" points="224.5,-359.09 221,-349.09 217.5,-359.09 224.5,-359.09"/>
</a>
</g>
</g>
<!-- Node5 -->
<g id="Node000005" class="node">
<title>Node5</title>
<g id="a_Node000005"><a xlink:href="_item_8h.html" target="_top" xlink:title=" ">
<polygon fill="white" stroke="#666666" points="305.5,-129 188.5,-129 188.5,-110 305.5,-110 305.5,-129"/>
<text text-anchor="middle" x="247" y="-117" font-family="Helvetica,sans-Serif" font-size="10.00">Cpl/Container/Item.h</text>
</a>
</g>
</g>
<!-- Node4&#45;&gt;Node5 -->
<g id="edge5_Node000004_Node000005" class="edge">
<title>Node4&#45;&gt;Node5</title>
<g id="a_edge5_Node000004_Node000005"><a xlink:title=" ">
<path fill="none" stroke="#63b8ff" d="M308.51,-274.74C298.28,-249.09 268.25,-173.78 254.29,-138.78"/>
<polygon fill="#63b8ff" stroke="#63b8ff" points="257.47,-137.3 250.51,-129.31 250.97,-139.89 257.47,-137.3"/>
</a>
</g>
</g>
<!-- Node6 -->
<g id="Node000006" class="node">
<title>Node6</title>
<g id="a_Node000006"><a xlink:href="_output_8h.html" target="_top" xlink:title=" ">
<polygon fill="white" stroke="#666666" points="566.5,-239 477.5,-239 477.5,-220 566.5,-220 566.5,-239"/>
<text text-anchor="middle" x="522" y="-227" font-family="Helvetica,sans-Serif" font-size="10.00">Cpl/Io/Output.h</text>
</a>
</g>
</g>
<!-- Node4&#45;&gt;Node6 -->
<g id="edge6_Node000004_Node000006" class="edge">
<title>Node4&#45;&gt;Node6</title>
<g id="a_edge6_Node000004_Node000006"><a xlink:title=" ">
<path fill="none" stroke="#63b8ff" d="M345.74,-274.98C381.68,-265.91 438.72,-251.52 478.13,-241.57"/>
<polygon fill="#63b8ff" stroke="#63b8ff" points="479.16,-244.92 488,-239.08 477.44,-238.14 479.16,-244.92"/>
</a>
</g>
</g>
<!-- Node18 -->
<g id="Node000018" class="node">
<title>Node18</title>
<g id="a_Node000018"><a xlink:href="_security_8h.html" target="_top" xlink:title=" ">
<polygon fill="white" stroke="#666666" points="277,-239 161,-239 161,-220 277,-220 277,-239"/>
<text text-anchor="middle" x="219" y="-227" font-family="Helvetica,sans-Serif" font-size="10.00">Cpl/TShell/Security.h</text>
</a>
</g>
</g>
<!-- Node4&#45;&gt;Node18 -->
<g id="edge22_Node000004_Node000018" class="edge">
<title>Node4&#45;&gt;Node18</title>
<g id="a_edge22_Node000004_Node000018"><a xlink:title=" ">
<path fill="none" stroke="#63b8ff" d="M297.06,-274.98C282.5,-266.69 260.13,-253.94 243.07,-244.22"/>
<polygon fill="#63b8ff" stroke="#63b8ff" points="244.64,-241.08 234.21,-239.17 241.17,-247.16 244.64,-241.08"/>
</a>
</g>
</g>
<!-- Node7 -->
<g id="Node000007" class="node">
<title>Node7</title>
<g id="a_Node000007"><a xlink:href="_text_2_string_8h.html" target="_top" xlink:title=" ">
<polygon fill="white" stroke="#666666" points="499,-184 403,-184 403,-165 499,-165 499,-184"/>
<text text-anchor="middle" x="451" y="-172" font-family="Helvetica,sans-Serif" font-size="10.00">Cpl/Text/String.h</text>
</a>
</g>
</g>
<!-- Node6&#45;&gt;Node7 -->
<g id="edge7_Node000006_Node000007" class="edge">
<title>Node6&#45;&gt;Node7</title>
<g id="a_edge7_Node000006_Node000007"><a xlink:title=" ">
<path fill="none" stroke="#63b8ff" d="M510.59,-219.98C499.89,-212 483.66,-199.88 470.84,-190.31"/>
<polygon fill="#63b8ff" stroke="#63b8ff" points="472.72,-187.35 462.61,-184.17 468.53,-192.96 472.72,-187.35"/>
</a>
</g>
</g>
<!-- Node14 -->
<g id="Node000014" class="node">
<title>Node14</title>
<g id="a_Node000014"><a xlink:title=" ">
<polygon fill="#e0e0e0" stroke="#999999" points="633,-129 577,-129 577,-110 633,-110 633,-129"/>
<text text-anchor="middle" x="605" y="-117" font-family="Helvetica,sans-Serif" font-size="10.00">stdarg.h</text>
</a>
</g>
</g>
<!-- Node6&#45;&gt;Node14 -->
<g id="edge21_Node000006_Node000014" class="edge">
<title>Node6&#45;&gt;Node14</title>
<g id="a_edge21_Node000006_Node000014"><a xlink:title=" ">
<path fill="none" stroke="#63b8ff" d="M557.05,-219.88C575.65,-213.33 596.9,-202.24 608,-184 616.16,-170.59 614.33,-152.49 611.09,-139.04"/>
<polygon fill="#63b8ff" stroke="#63b8ff" points="614.34,-137.7 608.22,-129.05 607.61,-139.63 614.34,-137.7"/>
</a>
</g>
</g>
<!-- Node16 -->
<g id="Node000016" class="node">
<title>Node16</title>
<g id="a_Node000016"><a xlink:href="_close_8h.html" target="_top" xlink:title=" ">
<polygon fill="white" stroke="#666666" points="384.5,-184 301.5,-184 301.5,-165 384.5,-165 384.5,-184"/>
<text text-anchor="middle" x="343" y="-172" font-family="Helvetica,sans-Serif" font-size="10.00">Cpl/Io/Close.h</text>
</a>
</g>
</g>
<!-- Node6&#45;&gt;Node16 -->
<g id="edge18_Node000006_Node000016" class="edge">
<title>Node6&#45;&gt;Node16</title>
<g id="a_edge18_Node000006_Node000016"><a xlink:title=" ">
<path fill="none" stroke="#63b8ff" d="M493.24,-219.98C463.06,-211.05 415.43,-196.94 381.9,-187.02"/>
<polygon fill="#63b8ff" stroke="#63b8ff" points="382.57,-183.57 371.98,-184.08 380.58,-190.28 382.57,-183.57"/>
</a>
</g>
</g>
<!-- Node17 -->
<g id="Node000017" class="node">
<title>Node17</title>
<g id="a_Node000017"><a xlink:href="_is_eos_8h.html" target="_top" xlink:title=" ">
<polygon fill="white" stroke="#666666" points="599,-184 517,-184 517,-165 599,-165 599,-184"/>
<text text-anchor="middle" x="558" y="-172" font-family="Helvetica,sans-Serif" font-size="10.00">Cpl/Io/IsEos.h</text>
</a>
</g>
</g>
<!-- Node6&#45;&gt;Node17 -->
<g id="edge20_Node000006_Node000017" class="edge">
<title>Node6&#45;&gt;Node17</title>
<g id="a_edge20_Node000006_Node000017"><a xlink:title=" ">
<path fill="none" stroke="#63b8ff" d="M527.94,-219.75C532.98,-212.34 540.34,-201.5 546.51,-192.41"/>
<polygon fill="#63b8ff" stroke="#63b8ff" points="549.44,-194.33 552.17,-184.09 543.65,-190.39 549.44,-194.33"/>
</a>
</g>
</g>
<!-- Node8 -->
<g id="Node000008" class="node">
<title>Node8</title>
<g id="a_Node000008"><a xlink:title=" ">
<polygon fill="#e0e0e0" stroke="#999999" points="587.5,-74 502.5,-74 502.5,-55 587.5,-55 587.5,-74"/>
<text text-anchor="middle" x="545" y="-62" font-family="Helvetica,sans-Serif" font-size="10.00">colony_map.h</text>
</a>
</g>
</g>
<!-- Node7&#45;&gt;Node8 -->
<g id="edge8_Node000007_Node000008" class="edge">
<title>Node7&#45;&gt;Node8</title>
<g id="a_edge8_Node000007_Node000008"><a xlink:title=" ">
<path fill="none" stroke="#63b8ff" d="M472.69,-164.88C488.64,-157.53 509.77,-145.52 523,-129 533.37,-116.05 539.01,-97.9 541.97,-84.32"/>
<polygon fill="#63b8ff" stroke="#63b8ff" points="545.47,-84.67 543.88,-74.2 538.59,-83.38 545.47,-84.67"/>
</a>
</g>
</g>
<!-- Node9 -->
<g id="Node000009" class="node">
<title>Node9</title>
<g id="a_Node000009"><a xlink:href="_key_8h.html" target="_top" xlink:title=" ">
<polygon fill="white" stroke="#666666" points="513.5,-129 402.5,-129 402.5,-110 513.5,-110 513.5,-129"/>
<text text-anchor="middle" x="458" y="-117" font-family="Helvetica,sans-Serif" font-size="10.00">Cpl/Container/Key.h</text>
</a>
</g>
</g>
<!-- Node7&#45;&gt;Node9 -->
<g id="edge9_Node000007_Node000009" class="edge">
<title>Node7&#45;&gt;Node9</title>
<g id="a_edge9_Node000007_Node000009"><a xlink:title=" ">
<path fill="none" stroke="#63b8ff" d="M452.16,-164.75C453.07,-157.8 454.39,-147.85 455.54,-139.13"/>
<polygon fill="#63b8ff" stroke="#63b8ff" points="459.03,-139.46 456.87,-129.09 452.09,-138.54 459.03,-139.46"/>
</a>
</g>
</g>
<!-- Node7&#45;&gt;Node14 -->
<g id="edge16_Node000007_Node000014" class="edge">
<title>Node7&#45;&gt;Node14</title>
<g id="a_edge16_Node000007_Node000014"><a xlink:title=" ">
<path fill="none" stroke="#63b8ff" d="M475.74,-164.98C501.37,-156.16 541.63,-142.31 570.41,-132.41"/>
<polygon fill="#63b8ff" stroke="#63b8ff" points="571.75,-135.65 580.06,-129.08 569.47,-129.03 571.75,-135.65"/>
</a>
</g>
</g>
<!-- Node15 -->
<g id="Node000015" class="node">
<title>Node15</title>
<g id="a_Node000015"><a xlink:title=" ">
<polygon fill="#e0e0e0" stroke="#999999" points="384,-129 324,-129 324,-110 384,-110 384,-129"/>
<text text-anchor="middle" x="354" y="-117" font-family="Helvetica,sans-Serif" font-size="10.00">iostream</text>
</a>
</g>
</g>
<!-- Node7&#45;&gt;Node15 -->
<g id="edge17_Node000007_Node000015" class="edge">
<title>Node7&#45;&gt;Node15</title>
<g id="a_edge17_Node000007_Node000015"><a xlink:title=" ">
<path fill="none" stroke="#63b8ff" d="M435.42,-164.98C420.23,-156.69 396.9,-143.94 379.1,-134.22"/>
<polygon fill="#63b8ff" stroke="#63b8ff" points="380.32,-130.89 369.87,-129.17 376.97,-137.04 380.32,-130.89"/>
</a>
</g>
</g>
<!-- Node9&#45;&gt;Node8 -->
<g id="edge15_Node000009_Node000008" class="edge">
<title>Node9&#45;&gt;Node8</title>
<g id="a_edge15_Node000009_Node000008"><a xlink:title=" ">
<path fill="none" stroke="#63b8ff" d="M471.98,-109.98C485.47,-101.77 506.13,-89.18 522.04,-79.49"/>
<polygon fill="#63b8ff" stroke="#63b8ff" points="524.05,-82.36 530.77,-74.17 520.41,-76.38 524.05,-82.36"/>
</a>
</g>
</g>
<!-- Node10 -->
<g id="Node000010" class="node">
<title>Node10</title>
<g id="a_Node000010"><a xlink:href="_fatal_error_8h.html" target="_top" xlink:title=" ">
<polygon fill="white" stroke="#666666" points="257,-74 127,-74 127,-55 257,-55 257,-74"/>
<text text-anchor="middle" x="192" y="-62" font-family="Helvetica,sans-Serif" font-size="10.00">Cpl/System/FatalError.h</text>
</a>
</g>
</g>
<!-- Node9&#45;&gt;Node10 -->
<g id="edge10_Node000009_Node000010" class="edge">
<title>Node9&#45;&gt;Node10</title>
<g id="a_edge10_Node000009_Node000010"><a xlink:title=" ">
<path fill="none" stroke="#63b8ff" d="M415.26,-109.98C368.96,-100.76 295.02,-86.03 245.04,-76.07"/>
<polygon fill="#63b8ff" stroke="#63b8ff" points="245.56,-72.6 235.07,-74.08 244.2,-79.47 245.56,-72.6"/>
</a>
</g>
</g>
<!-- Node12 -->
<g id="Node000012" class="node">
<title>Node12</title>
<g id="a_Node000012"><a xlink:title=" ">
<polygon fill="#e0e0e0" stroke="#999999" points="413.5,-74 360.5,-74 360.5,-55 413.5,-55 413.5,-74"/>
<text text-anchor="middle" x="387" y="-62" font-family="Helvetica,sans-Serif" font-size="10.00">stdint.h</text>
</a>
</g>
</g>
<!-- Node9&#45;&gt;Node12 -->
<g id="edge13_Node000009_Node000012" class="edge">
<title>Node9&#45;&gt;Node12</title>
<g id="a_edge13_Node000009_Node000012"><a xlink:title=" ">
<path fill="none" stroke="#63b8ff" d="M446.59,-109.98C435.89,-102 419.66,-89.88 406.84,-80.31"/>
<polygon fill="#63b8ff" stroke="#63b8ff" points="408.72,-77.35 398.61,-74.17 404.53,-82.96 408.72,-77.35"/>
</a>
</g>
</g>
<!-- Node13 -->
<g id="Node000013" class="node">
<title>Node13</title>
<g id="a_Node000013"><a xlink:title=" ">
<polygon fill="#e0e0e0" stroke="#999999" points="484.5,-74 431.5,-74 431.5,-55 484.5,-55 484.5,-74"/>
<text text-anchor="middle" x="458" y="-62" font-family="Helvetica,sans-Serif" font-size="10.00">string.h</text>
</a>
</g>
</g>
<!-- Node9&#45;&gt;Node13 -->
<g id="edge14_Node000009_Node000013" class="edge">
<title>Node9&#45;&gt;Node13</title>
<g id="a_edge14_Node000009_Node000013"><a xlink:title=" ">
<path fill="none" stroke="#63b8ff" d="M458,-109.75C458,-102.8 458,-92.85 458,-84.13"/>
<polygon fill="#63b8ff" stroke="#63b8ff" points="461.5,-84.09 458,-74.09 454.5,-84.09 461.5,-84.09"/>
</a>
</g>
</g>
<!-- Node10&#45;&gt;Node2 -->
<g id="edge12_Node000010_Node000002" class="edge">
<title>Node10&#45;&gt;Node2</title>
<g id="a_edge12_Node000010_Node000002"><a xlink:title=" ">
<path fill="none" stroke="#63b8ff" d="M168.54,-54.98C144.42,-46.23 106.63,-32.51 79.4,-22.62"/>
<polygon fill="#63b8ff" stroke="#63b8ff" points="80.48,-19.29 69.88,-19.17 78.09,-25.87 80.48,-19.29"/>
</a>
</g>
</g>
<!-- Node11 -->
<g id="Node000011" class="node">
<title>Node11</title>
<g id="a_Node000011"><a xlink:title=" ">
<polygon fill="#e0e0e0" stroke="#999999" points="220,-19 164,-19 164,0 220,0 220,-19"/>
<text text-anchor="middle" x="192" y="-7" font-family="Helvetica,sans-Serif" font-size="10.00">stddef.h</text>
</a>
</g>
</g>
<!-- Node10&#45;&gt;Node11 -->
<g id="edge11_Node000010_Node000011" class="edge">
<title>Node10&#45;&gt;Node11</title>
<g id="a_edge11_Node000010_Node000011"><a xlink:title=" ">
<path fill="none" stroke="#63b8ff" d="M192,-54.75C192,-47.8 192,-37.85 192,-29.13"/>
<polygon fill="#63b8ff" stroke="#63b8ff" points="195.5,-29.09 192,-19.09 188.5,-29.09 195.5,-29.09"/>
</a>
</g>
</g>
<!-- Node16&#45;&gt;Node5 -->
<g id="edge19_Node000016_Node000005" class="edge">
<title>Node16&#45;&gt;Node5</title>
<g id="a_edge19_Node000016_Node000005"><a xlink:title=" ">
<path fill="none" stroke="#63b8ff" d="M327.58,-164.98C312.55,-156.69 289.46,-143.94 271.84,-134.22"/>
<polygon fill="#63b8ff" stroke="#63b8ff" points="273.15,-130.94 262.7,-129.17 269.77,-137.07 273.15,-130.94"/>
</a>
</g>
</g>
<!-- Node19&#45;&gt;Node4 -->
<g id="edge31_Node000019_Node000004" class="edge">
<title>Node19&#45;&gt;Node4</title>
<g id="a_edge31_Node000019_Node000004"><a xlink:title=" ">
<path fill="none" stroke="#63b8ff" d="M235.62,-329.98C249.86,-321.69 271.75,-308.94 288.45,-299.22"/>
<polygon fill="#63b8ff" stroke="#63b8ff" points="290.23,-302.23 297.11,-294.17 286.71,-296.18 290.23,-302.23"/>
</a>
</g>
</g>
<!-- Node19&#45;&gt;Node18 -->
<g id="edge30_Node000019_Node000018" class="edge">
<title>Node19&#45;&gt;Node18</title>
<g id="a_edge30_Node000019_Node000018"><a xlink:title=" ">
<path fill="none" stroke="#63b8ff" d="M220.84,-329.66C220.51,-312.17 219.78,-272.8 219.35,-249.27"/>
<polygon fill="#63b8ff" stroke="#63b8ff" points="222.84,-249.09 219.16,-239.16 215.85,-249.22 222.84,-249.09"/>
</a>
</g>
</g>
<!-- Node20 -->
<g id="Node000020" class="node">
<title>Node20</title>
<g id="a_Node000020"><a xlink:href="_processor_api_8h.html" target="_top" xlink:title=" ">
<polygon fill="white" stroke="#666666" points="534,-294 394,-294 394,-275 534,-275 534,-294"/>
<text text-anchor="middle" x="464" y="-282" font-family="Helvetica,sans-Serif" font-size="10.00">Cpl/TShell/ProcessorApi.h</text>
</a>
</g>
</g>
<!-- Node19&#45;&gt;Node20 -->
<g id="edge24_Node000019_Node000020" class="edge">
<title>Node19&#45;&gt;Node20</title>
<g id="a_edge24_Node000019_Node000020"><a xlink:title=" ">
<path fill="none" stroke="#63b8ff" d="M260.04,-329.98C302.08,-320.82 369.04,-306.21 414.68,-296.26"/>
<polygon fill="#63b8ff" stroke="#63b8ff" points="415.63,-299.63 424.65,-294.08 414.14,-292.79 415.63,-299.63"/>
</a>
</g>
</g>
<!-- Node22 -->
<g id="Node000022" class="node">
<title>Node22</title>
<g id="a_Node000022"><a xlink:href="_s_list_8h.html" target="_top" xlink:title=" ">
<polygon fill="white" stroke="#666666" points="192,-294 74,-294 74,-275 192,-275 192,-294"/>
<text text-anchor="middle" x="133" y="-282" font-family="Helvetica,sans-Serif" font-size="10.00">Cpl/Container/SList.h</text>
</a>
</g>
</g>
<!-- Node19&#45;&gt;Node22 -->
<g id="edge32_Node000019_Node000022" class="edge">
<title>Node19&#45;&gt;Node22</title>
<g id="a_edge32_Node000019_Node000022"><a xlink:title=" ">
<path fill="none" stroke="#63b8ff" d="M206.86,-329.98C193.21,-321.77 172.31,-309.18 156.22,-299.49"/>
<polygon fill="#63b8ff" stroke="#63b8ff" points="157.77,-296.33 147.4,-294.17 154.16,-302.33 157.77,-296.33"/>
</a>
</g>
</g>
<!-- Node20&#45;&gt;Node6 -->
<g id="edge29_Node000020_Node000006" class="edge">
<title>Node20&#45;&gt;Node6</title>
<g id="a_edge29_Node000020_Node000006"><a xlink:title=" ">
<path fill="none" stroke="#63b8ff" d="M473.32,-274.98C481.81,-267.23 494.56,-255.58 504.88,-246.14"/>
<polygon fill="#63b8ff" stroke="#63b8ff" points="507.49,-248.5 512.51,-239.17 502.77,-243.33 507.49,-248.5"/>
</a>
</g>
</g>
<!-- Node21 -->
<g id="Node000021" class="node">
<title>Node21</title>
<g id="a_Node000021"><a xlink:href="_input_8h.html" target="_top" xlink:title=" ">
<polygon fill="white" stroke="#666666" points="459.5,-239 378.5,-239 378.5,-220 459.5,-220 459.5,-239"/>
<text text-anchor="middle" x="419" y="-227" font-family="Helvetica,sans-Serif" font-size="10.00">Cpl/Io/Input.h</text>
</a>
</g>
</g>
<!-- Node20&#45;&gt;Node21 -->
<g id="edge25_Node000020_Node000021" class="edge">
<title>Node20&#45;&gt;Node21</title>
<g id="a_edge25_Node000020_Node000021"><a xlink:title=" ">
<path fill="none" stroke="#63b8ff" d="M456.57,-274.75C450.15,-267.18 440.69,-256.05 432.88,-246.84"/>
<polygon fill="#63b8ff" stroke="#63b8ff" points="435.43,-244.45 426.29,-239.09 430.1,-248.98 435.43,-244.45"/>
</a>
</g>
</g>
<!-- Node21&#45;&gt;Node7 -->
<g id="edge26_Node000021_Node000007" class="edge">
<title>Node21&#45;&gt;Node7</title>
<g id="a_edge26_Node000021_Node000007"><a xlink:title=" ">
<path fill="none" stroke="#63b8ff" d="M424.28,-219.75C428.71,-212.42 435.16,-201.73 440.62,-192.7"/>
<polygon fill="#63b8ff" stroke="#63b8ff" points="443.64,-194.46 445.81,-184.09 437.65,-190.84 443.64,-194.46"/>
</a>
</g>
</g>
<!-- Node21&#45;&gt;Node16 -->
<g id="edge27_Node000021_Node000016" class="edge">
<title>Node21&#45;&gt;Node16</title>
<g id="a_edge27_Node000021_Node000016"><a xlink:title=" ">
<path fill="none" stroke="#63b8ff" d="M406.79,-219.98C395.22,-211.92 377.62,-199.65 363.84,-190.03"/>
<polygon fill="#63b8ff" stroke="#63b8ff" points="365.64,-187.02 355.43,-184.17 361.63,-192.76 365.64,-187.02"/>
</a>
</g>
</g>
<!-- Node21&#45;&gt;Node17 -->
<g id="edge28_Node000021_Node000017" class="edge">
<title>Node21&#45;&gt;Node17</title>
<g id="a_edge28_Node000021_Node000017"><a xlink:title=" ">
<path fill="none" stroke="#63b8ff" d="M441.33,-219.98C464.2,-211.27 499.96,-197.63 525.86,-187.75"/>
<polygon fill="#63b8ff" stroke="#63b8ff" points="527.16,-191 535.26,-184.17 524.67,-184.46 527.16,-191"/>
</a>
</g>
</g>
<!-- Node22&#45;&gt;Node5 -->
<g id="edge33_Node000022_Node000005" class="edge">
<title>Node22&#45;&gt;Node5</title>
<g id="a_edge33_Node000022_Node000005"><a xlink:title=" ">
<path fill="none" stroke="#63b8ff" d="M134.28,-274.77C136.43,-262.03 141.59,-237.91 152,-220 172.13,-185.36 206.67,-153.4 228.09,-135.48"/>
<polygon fill="#63b8ff" stroke="#63b8ff" points="230.34,-138.15 235.86,-129.11 225.91,-132.74 230.34,-138.15"/>
</a>
</g>
</g>
<!-- Node23&#45;&gt;Node8 -->
<g id="edge35_Node000023_Node000008" class="edge">
<title>Node23&#45;&gt;Node8</title>
<g id="a_edge35_Node000023_Node000008"><a xlink:title=" ">
<path fill="none" stroke="#63b8ff" d="M530.71,-331.51C583.73,-320.38 665,-293.11 665,-230.5 665,-230.5 665,-230.5 665,-173.5 665,-143.48 662.33,-132.08 642,-110 627.96,-94.75 607.66,-84.33 589.26,-77.43"/>
<polygon fill="#63b8ff" stroke="#63b8ff" points="590.16,-74.04 579.57,-74.04 587.85,-80.65 590.16,-74.04"/>
</a>
</g>
</g>
</g>
</svg>
