<?xml version="1.0" encoding="UTF-8" standalone="no"?>
<!DOCTYPE svg PUBLIC "-//W3C//DTD SVG 1.1//EN"
 "http://www.w3.org/Graphics/SVG/1.1/DTD/svg11.dtd">
<!-- Generated by graphviz version 9.0.0 (20230911.1827)
 -->
<!-- Title: Driver/I2C/Arduino/Master.h Pages: 1 -->
<svg width="251pt" height="149pt"
 viewBox="0.00 0.00 251.25 149.00" xmlns="http://www.w3.org/2000/svg" xmlns:xlink="http://www.w3.org/1999/xlink">
<g id="graph0" class="graph" transform="scale(1 1) rotate(0) translate(4 145)">
<title>Driver/I2C/Arduino/Master.h</title>
<!-- Node1 -->
<g id="Node000001" class="node">
<title>Node1</title>
<g id="a_Node000001"><a xlink:title=" ">
<polygon fill="#999999" stroke="#666666" points="200.5,-141 105,-141 105,-110.5 200.5,-110.5 200.5,-141"/>
<text text-anchor="start" x="113" y="-127.5" font-family="Helvetica,sans-Serif" font-size="10.00">Driver/I2C/Arduino</text>
<text text-anchor="middle" x="152.75" y="-116.25" font-family="Helvetica,sans-Serif" font-size="10.00">/Master.h</text>
</a>
</g>
</g>
<!-- Node2 -->
<g id="Node000002" class="node">
<title>Node2</title>
<g id="a_Node000002"><a xlink:href="_i2_c_2_master_8h.html" target="_top" xlink:title=" ">
<polygon fill="white" stroke="#666666" points="105.75,-74.5 5.75,-74.5 5.75,-55.25 105.75,-55.25 105.75,-74.5"/>
<text text-anchor="middle" x="55.75" y="-61" font-family="Helvetica,sans-Serif" font-size="10.00">Driver/I2C/Master.h</text>
</a>
</g>
</g>
<!-- Node1&#45;&gt;Node2 -->
<g id="edge1_Node000001_Node000002" class="edge">
<title>Node1&#45;&gt;Node2</title>
<g id="a_edge1_Node000001_Node000002"><a xlink:title=" ">
<path fill="none" stroke="#63b8ff" d="M128.77,-110.2C114,-101.23 95.12,-89.77 80.25,-80.75"/>
<polygon fill="#63b8ff" stroke="#63b8ff" points="82.36,-77.93 72,-75.74 78.73,-83.92 82.36,-77.93"/>
</a>
</g>
</g>
<!-- Node5 -->
<g id="Node000005" class="node">
<title>Node5</title>
<g id="a_Node000005"><a xlink:title=" ">
<polygon fill="#e0e0e0" stroke="#999999" points="181.75,-74.5 123.75,-74.5 123.75,-55.25 181.75,-55.25 181.75,-74.5"/>
<text text-anchor="middle" x="152.75" y="-61" font-family="Helvetica,sans-Serif" font-size="10.00">Bsp/Api.h</text>
</a>
</g>
</g>
<!-- Node1&#45;&gt;Node5 -->
<g id="edge4_Node000001_Node000005" class="edge">
<title>Node1&#45;&gt;Node5</title>
<g id="a_edge4_Node000001_Node000005"><a xlink:title=" ">
<path fill="none" stroke="#63b8ff" d="M152.75,-110.2C152.75,-102.96 152.75,-94.09 152.75,-86.19"/>
<polygon fill="#63b8ff" stroke="#63b8ff" points="156.25,-86.46 152.75,-76.46 149.25,-86.46 156.25,-86.46"/>
</a>
</g>
</g>
<!-- Node6 -->
<g id="Node000006" class="node">
<title>Node6</title>
<g id="a_Node000006"><a xlink:title=" ">
<polygon fill="#e0e0e0" stroke="#999999" points="243.25,-74.5 200.25,-74.5 200.25,-55.25 243.25,-55.25 243.25,-74.5"/>
<text text-anchor="middle" x="221.75" y="-61" font-family="Helvetica,sans-Serif" font-size="10.00">Wire.h</text>
</a>
</g>
</g>
<!-- Node1&#45;&gt;Node6 -->
<g id="edge5_Node000001_Node000006" class="edge">
<title>Node1&#45;&gt;Node6</title>
<g id="a_edge5_Node000001_Node000006"><a xlink:title=" ">
<path fill="none" stroke="#63b8ff" d="M169.81,-110.2C179.71,-101.75 192.21,-91.08 202.46,-82.33"/>
<polygon fill="#63b8ff" stroke="#63b8ff" points="204.63,-85.09 209.96,-75.93 200.08,-79.76 204.63,-85.09"/>
</a>
</g>
</g>
<!-- Node3 -->
<g id="Node000003" class="node">
<title>Node3</title>
<g id="a_Node000003"><a xlink:title=" ">
<polygon fill="#e0e0e0" stroke="#999999" points="47.5,-19.25 0,-19.25 0,0 47.5,0 47.5,-19.25"/>
<text text-anchor="middle" x="23.75" y="-5.75" font-family="Helvetica,sans-Serif" font-size="10.00">stdint.h</text>
</a>
</g>
</g>
<!-- Node2&#45;&gt;Node3 -->
<g id="edge2_Node000002_Node000003" class="edge">
<title>Node2&#45;&gt;Node3</title>
<g id="a_edge2_Node000002_Node000003"><a xlink:title=" ">
<path fill="none" stroke="#63b8ff" d="M50.47,-55.08C46.28,-48.11 40.27,-38.12 35.02,-29.37"/>
<polygon fill="#63b8ff" stroke="#63b8ff" points="38.08,-27.68 29.93,-20.91 32.08,-31.28 38.08,-27.68"/>
</a>
</g>
</g>
<!-- Node4 -->
<g id="Node000004" class="node">
<title>Node4</title>
<g id="a_Node000004"><a xlink:title=" ">
<polygon fill="#e0e0e0" stroke="#999999" points="112.12,-19.25 65.38,-19.25 65.38,0 112.12,0 112.12,-19.25"/>
<text text-anchor="middle" x="88.75" y="-5.75" font-family="Helvetica,sans-Serif" font-size="10.00">stdlib.h</text>
</a>
</g>
</g>
<!-- Node2&#45;&gt;Node4 -->
<g id="edge3_Node000002_Node000004" class="edge">
<title>Node2&#45;&gt;Node4</title>
<g id="a_edge3_Node000002_Node000004"><a xlink:title=" ">
<path fill="none" stroke="#63b8ff" d="M61.2,-55.08C65.52,-48.11 71.71,-38.12 77.13,-29.37"/>
<polygon fill="#63b8ff" stroke="#63b8ff" points="80.09,-31.24 82.39,-20.9 74.14,-27.55 80.09,-31.24"/>
</a>
</g>
</g>
</g>
</svg>
