<?xml version="1.0" encoding="UTF-8" standalone="no"?>
<!DOCTYPE svg PUBLIC "-//W3C//DTD SVG 1.1//EN"
 "http://www.w3.org/Graphics/SVG/1.1/DTD/svg11.dtd">
<!-- Generated by graphviz version 9.0.0 (20230911.1827)
 -->
<!-- Title: Driver/I2C/Master.h Pages: 1 -->
<svg width="425pt" height="94pt"
 viewBox="0.00 0.00 425.25 93.75" xmlns="http://www.w3.org/2000/svg" xmlns:xlink="http://www.w3.org/1999/xlink">
<g id="graph0" class="graph" transform="scale(1 1) rotate(0) translate(4 89.75)">
<title>Driver/I2C/Master.h</title>
<!-- Node1 -->
<g id="Node000001" class="node">
<title>Node1</title>
<g id="a_Node000001"><a xlink:title=" ">
<polygon fill="#999999" stroke="#666666" points="230.75,-85.75 130.75,-85.75 130.75,-66.5 230.75,-66.5 230.75,-85.75"/>
<text text-anchor="middle" x="180.75" y="-72.25" font-family="Helvetica,sans-Serif" font-size="10.00">Driver/I2C/Master.h</text>
</a>
</g>
</g>
<!-- Node2 -->
<g id="Node000002" class="node">
<title>Node2</title>
<g id="a_Node000002"><a xlink:href="_i2_c_2_arduino_2_master_8h.html" target="_top" xlink:title=" ">
<polygon fill="white" stroke="#666666" points="95.5,-30.5 0,-30.5 0,0 95.5,0 95.5,-30.5"/>
<text text-anchor="start" x="8" y="-17" font-family="Helvetica,sans-Serif" font-size="10.00">Driver/I2C/Arduino</text>
<text text-anchor="middle" x="47.75" y="-5.75" font-family="Helvetica,sans-Serif" font-size="10.00">/Master.h</text>
</a>
</g>
</g>
<!-- Node1&#45;&gt;Node2 -->
<g id="edge1_Node000001_Node000002" class="edge">
<title>Node1&#45;&gt;Node2</title>
<g id="a_edge1_Node000001_Node000002"><a xlink:title=" ">
<path fill="none" stroke="#63b8ff" d="M149.83,-61.44C129.18,-52.3 102.05,-40.29 80.95,-30.94"/>
<polygon fill="#63b8ff" stroke="#63b8ff" points="148.32,-64.59 158.88,-65.44 151.15,-58.19 148.32,-64.59"/>
</a>
</g>
</g>
<!-- Node3 -->
<g id="Node000003" class="node">
<title>Node3</title>
<g id="a_Node000003"><a xlink:href="_i2_c_2_s_t_m32_2_master_8h.html" target="_top" xlink:title=" ">
<polygon fill="white" stroke="#666666" points="248,-24.88 113.5,-24.88 113.5,-5.63 248,-5.63 248,-24.88"/>
<text text-anchor="middle" x="180.75" y="-11.38" font-family="Helvetica,sans-Serif" font-size="10.00">Driver/I2C/STM32/Master.h</text>
</a>
</g>
</g>
<!-- Node1&#45;&gt;Node3 -->
<g id="edge2_Node000001_Node000003" class="edge">
<title>Node1&#45;&gt;Node3</title>
<g id="a_edge2_Node000001_Node000003"><a xlink:title=" ">
<path fill="none" stroke="#63b8ff" d="M180.75,-54.7C180.75,-44.67 180.75,-33.08 180.75,-25.28"/>
<polygon fill="#63b8ff" stroke="#63b8ff" points="177.25,-54.67 180.75,-64.67 184.25,-54.67 177.25,-54.67"/>
</a>
</g>
</g>
<!-- Node4 -->
<g id="Node000004" class="node">
<title>Node4</title>
<g id="a_Node000004"><a xlink:href="_driver_2_n_v_2_onsemi_2_c_a_t24_c512_2_api_8h.html" target="_top" xlink:title=" ">
<polygon fill="white" stroke="#666666" points="417.25,-30.5 266.25,-30.5 266.25,0 417.25,0 417.25,-30.5"/>
<text text-anchor="start" x="274.25" y="-17" font-family="Helvetica,sans-Serif" font-size="10.00">Driver/NV/Onsemi/CAT24C512</text>
<text text-anchor="middle" x="341.75" y="-5.75" font-family="Helvetica,sans-Serif" font-size="10.00">/Api.h</text>
</a>
</g>
</g>
<!-- Node1&#45;&gt;Node4 -->
<g id="edge3_Node000001_Node000004" class="edge">
<title>Node1&#45;&gt;Node4</title>
<g id="a_edge3_Node000001_Node000004"><a xlink:title=" ">
<path fill="none" stroke="#63b8ff" d="M216.13,-62.19C241.35,-52.96 275.31,-40.54 301.57,-30.94"/>
<polygon fill="#63b8ff" stroke="#63b8ff" points="215.16,-58.81 206.97,-65.53 217.57,-65.39 215.16,-58.81"/>
</a>
</g>
</g>
</g>
</svg>
