<?xml version="1.0" encoding="UTF-8" standalone="no"?>
<!DOCTYPE svg PUBLIC "-//W3C//DTD SVG 1.1//EN"
 "http://www.w3.org/Graphics/SVG/1.1/DTD/svg11.dtd">
<!-- Generated by graphviz version 9.0.0 (20230911.1827)
 -->
<!-- Title: Driver/DIO/_tshell/InOutCmd.h Pages: 1 -->
<svg width="682pt" height="536pt"
 viewBox="0.00 0.00 682.00 535.75" xmlns="http://www.w3.org/2000/svg" xmlns:xlink="http://www.w3.org/1999/xlink">
<g id="graph0" class="graph" transform="scale(1 1) rotate(0) translate(4 531.75)">
<title>Driver/DIO/_tshell/InOutCmd.h</title>
<!-- Node1 -->
<g id="Node000001" class="node">
<title>Node1</title>
<g id="a_Node000001"><a xlink:title=" ">
<polygon fill="#999999" stroke="#666666" points="301.62,-527.75 208.38,-527.75 208.38,-497.25 301.62,-497.25 301.62,-527.75"/>
<text text-anchor="start" x="216.38" y="-514.25" font-family="Helvetica,sans-Serif" font-size="10.00">Driver/DIO/_tshell</text>
<text text-anchor="middle" x="255" y="-503" font-family="Helvetica,sans-Serif" font-size="10.00">/InOutCmd.h</text>
</a>
</g>
</g>
<!-- Node2 -->
<g id="Node000002" class="node">
<title>Node2</title>
<g id="a_Node000002"><a xlink:title=" ">
<polygon fill="#e0e0e0" stroke="#999999" points="122,-19.25 40,-19.25 40,0 122,0 122,-19.25"/>
<text text-anchor="middle" x="81" y="-5.75" font-family="Helvetica,sans-Serif" font-size="10.00">colony_config.h</text>
</a>
</g>
</g>
<!-- Node1&#45;&gt;Node2 -->
<g id="edge1_Node000001_Node000002" class="edge">
<title>Node1&#45;&gt;Node2</title>
<g id="a_edge1_Node000001_Node000002"><a xlink:title=" ">
<path fill="none" stroke="#63b8ff" d="M207.93,-510.79C134.25,-506.9 0,-487.47 0,-397.38 0,-397.38 0,-397.38 0,-119.12 0,-79.7 34.77,-45.36 58.75,-26.36"/>
<polygon fill="#63b8ff" stroke="#63b8ff" points="60.57,-29.38 66.42,-20.55 56.34,-23.8 60.57,-29.38"/>
</a>
</g>
</g>
<!-- Node3 -->
<g id="Node000003" class="node">
<title>Node3</title>
<g id="a_Node000003"><a xlink:href="_cmd_2_command_8h.html" target="_top" xlink:title=" ">
<polygon fill="white" stroke="#666666" points="324.5,-461.25 185.5,-461.25 185.5,-442 324.5,-442 324.5,-461.25"/>
<text text-anchor="middle" x="255" y="-447.75" font-family="Helvetica,sans-Serif" font-size="10.00">Cpl/TShell/Cmd/Command.h</text>
</a>
</g>
</g>
<!-- Node1&#45;&gt;Node3 -->
<g id="edge2_Node000001_Node000003" class="edge">
<title>Node1&#45;&gt;Node3</title>
<g id="a_edge2_Node000001_Node000003"><a xlink:title=" ">
<path fill="none" stroke="#63b8ff" d="M255,-496.95C255,-489.71 255,-480.84 255,-472.94"/>
<polygon fill="#63b8ff" stroke="#63b8ff" points="258.5,-473.21 255,-463.21 251.5,-473.21 258.5,-473.21"/>
</a>
</g>
</g>
<!-- Node26 -->
<g id="Node000026" class="node">
<title>Node26</title>
<g id="a_Node000026"><a xlink:href="_in_out_8h.html" target="_top" xlink:title=" ">
<polygon fill="white" stroke="#666666" points="671.12,-461.25 574.88,-461.25 574.88,-442 671.12,-442 671.12,-461.25"/>
<text text-anchor="middle" x="623" y="-447.75" font-family="Helvetica,sans-Serif" font-size="10.00">Driver/DIO/InOut.h</text>
</a>
</g>
</g>
<!-- Node1&#45;&gt;Node26 -->
<g id="edge41_Node000001_Node000026" class="edge">
<title>Node1&#45;&gt;Node26</title>
<g id="a_edge41_Node000001_Node000026"><a xlink:title=" ">
<path fill="none" stroke="#63b8ff" d="M301.98,-503.98C368.56,-493.33 490.37,-473.84 563.28,-462.18"/>
<polygon fill="#63b8ff" stroke="#63b8ff" points="563.73,-465.65 573.05,-460.62 562.62,-458.74 563.73,-465.65"/>
</a>
</g>
</g>
<!-- Node3&#45;&gt;Node2 -->
<g id="edge3_Node000003_Node000002" class="edge">
<title>Node3&#45;&gt;Node2</title>
<g id="a_edge3_Node000003_Node000002"><a xlink:title=" ">
<path fill="none" stroke="#63b8ff" d="M185.15,-444.54C121.71,-434.73 38,-409.1 38,-342.12 38,-342.12 38,-342.12 38,-119.12 38,-85.65 55.91,-50.2 68.61,-29.26"/>
<polygon fill="#63b8ff" stroke="#63b8ff" points="71.45,-31.32 73.84,-21 65.54,-27.57 71.45,-31.32"/>
</a>
</g>
</g>
<!-- Node4 -->
<g id="Node000004" class="node">
<title>Node4</title>
<g id="a_Node000004"><a xlink:href="_command_8h.html" target="_top" xlink:title=" ">
<polygon fill="white" stroke="#666666" points="395.88,-350.75 280.12,-350.75 280.12,-331.5 395.88,-331.5 395.88,-350.75"/>
<text text-anchor="middle" x="338" y="-337.25" font-family="Helvetica,sans-Serif" font-size="10.00">Cpl/TShell/Command.h</text>
</a>
</g>
</g>
<!-- Node3&#45;&gt;Node4 -->
<g id="edge4_Node000003_Node000004" class="edge">
<title>Node3&#45;&gt;Node4</title>
<g id="a_edge4_Node000003_Node000004"><a xlink:title=" ">
<path fill="none" stroke="#63b8ff" d="M274.47,-441.55C288.76,-433.96 307.58,-421.81 319,-406 328.24,-393.21 333.03,-375.91 335.48,-362.54"/>
<polygon fill="#63b8ff" stroke="#63b8ff" points="338.94,-363.11 336.97,-352.7 332.02,-362.07 338.94,-363.11"/>
</a>
</g>
</g>
<!-- Node15 -->
<g id="Node000015" class="node">
<title>Node15</title>
<g id="a_Node000015"><a xlink:href="_text_2_string_8h.html" target="_top" xlink:title=" ">
<polygon fill="white" stroke="#666666" points="568,-240.25 480,-240.25 480,-221 568,-221 568,-240.25"/>
<text text-anchor="middle" x="524" y="-226.75" font-family="Helvetica,sans-Serif" font-size="10.00">Cpl/Text/String.h</text>
</a>
</g>
</g>
<!-- Node3&#45;&gt;Node15 -->
<g id="edge40_Node000003_Node000015" class="edge">
<title>Node3&#45;&gt;Node15</title>
<g id="a_edge40_Node000003_Node000015"><a xlink:title=" ">
<path fill="none" stroke="#63b8ff" d="M324.82,-449.16C395.43,-443.5 501.29,-422.61 553,-350.75 572.34,-323.87 562.41,-308 553,-276.25 550.19,-266.76 544.66,-257.41 539.17,-249.73"/>
<polygon fill="#63b8ff" stroke="#63b8ff" points="542.03,-247.7 533.14,-241.93 536.49,-251.99 542.03,-247.7"/>
</a>
</g>
</g>
<!-- Node21 -->
<g id="Node000021" class="node">
<title>Node21</title>
<g id="a_Node000021"><a xlink:href="_context___8h.html" target="_top" xlink:title=" ">
<polygon fill="white" stroke="#666666" points="309.88,-406 200.12,-406 200.12,-386.75 309.88,-386.75 309.88,-406"/>
<text text-anchor="middle" x="255" y="-392.5" font-family="Helvetica,sans-Serif" font-size="10.00">Cpl/TShell/Context_.h</text>
</a>
</g>
</g>
<!-- Node3&#45;&gt;Node21 -->
<g id="edge26_Node000003_Node000021" class="edge">
<title>Node3&#45;&gt;Node21</title>
<g id="a_edge26_Node000003_Node000021"><a xlink:title=" ">
<path fill="none" stroke="#63b8ff" d="M255,-441.83C255,-435.32 255,-426.17 255,-417.87"/>
<polygon fill="#63b8ff" stroke="#63b8ff" points="258.5,-417.87 255,-407.87 251.5,-417.87 258.5,-417.87"/>
</a>
</g>
</g>
<!-- Node24 -->
<g id="Node000024" class="node">
<title>Node24</title>
<g id="a_Node000024"><a xlink:href="_map_8h.html" target="_top" xlink:title=" ">
<polygon fill="white" stroke="#666666" points="223.88,-350.75 120.12,-350.75 120.12,-331.5 223.88,-331.5 223.88,-350.75"/>
<text text-anchor="middle" x="172" y="-337.25" font-family="Helvetica,sans-Serif" font-size="10.00">Cpl/Container/Map.h</text>
</a>
</g>
</g>
<!-- Node3&#45;&gt;Node24 -->
<g id="edge39_Node000003_Node000024" class="edge">
<title>Node3&#45;&gt;Node24</title>
<g id="a_edge39_Node000003_Node000024"><a xlink:title=" ">
<path fill="none" stroke="#63b8ff" d="M235.53,-441.55C221.24,-433.96 202.42,-421.81 191,-406 181.76,-393.21 176.97,-375.91 174.52,-362.54"/>
<polygon fill="#63b8ff" stroke="#63b8ff" points="177.98,-362.07 173.03,-352.7 171.06,-363.11 177.98,-362.07"/>
</a>
</g>
</g>
<!-- Node5 -->
<g id="Node000005" class="node">
<title>Node5</title>
<g id="a_Node000005"><a xlink:href="_map_item_8h.html" target="_top" xlink:title=" ">
<polygon fill="white" stroke="#666666" points="272.62,-240.25 149.38,-240.25 149.38,-221 272.62,-221 272.62,-240.25"/>
<text text-anchor="middle" x="211" y="-226.75" font-family="Helvetica,sans-Serif" font-size="10.00">Cpl/Container/MapItem.h</text>
</a>
</g>
</g>
<!-- Node4&#45;&gt;Node5 -->
<g id="edge5_Node000004_Node000005" class="edge">
<title>Node4&#45;&gt;Node5</title>
<g id="a_edge5_Node000004_Node000005"><a xlink:title=" ">
<path fill="none" stroke="#63b8ff" d="M338.36,-331.14C338.4,-317.61 336.53,-291.96 323,-276.25 309.87,-261.01 290.8,-250.92 272.12,-244.26"/>
<polygon fill="#63b8ff" stroke="#63b8ff" points="273.24,-240.95 262.64,-241.19 271.08,-247.61 273.24,-240.95"/>
</a>
</g>
</g>
<!-- Node14 -->
<g id="Node000014" class="node">
<title>Node14</title>
<g id="a_Node000014"><a xlink:href="_output_8h.html" target="_top" xlink:title=" ">
<polygon fill="white" stroke="#666666" points="543.62,-295.5 462.38,-295.5 462.38,-276.25 543.62,-276.25 543.62,-295.5"/>
<text text-anchor="middle" x="503" y="-282" font-family="Helvetica,sans-Serif" font-size="10.00">Cpl/Io/Output.h</text>
</a>
</g>
</g>
<!-- Node4&#45;&gt;Node14 -->
<g id="edge15_Node000004_Node000014" class="edge">
<title>Node4&#45;&gt;Node14</title>
<g id="a_edge15_Node000004_Node000014"><a xlink:title=" ">
<path fill="none" stroke="#63b8ff" d="M365.99,-331.09C393.01,-322.37 434.16,-309.09 464.31,-299.36"/>
<polygon fill="#63b8ff" stroke="#63b8ff" points="464.99,-302.82 473.43,-296.42 462.84,-296.16 464.99,-302.82"/>
</a>
</g>
</g>
<!-- Node20 -->
<g id="Node000020" class="node">
<title>Node20</title>
<g id="a_Node000020"><a xlink:href="_security_8h.html" target="_top" xlink:title=" ">
<polygon fill="white" stroke="#666666" points="314.38,-295.5 207.62,-295.5 207.62,-276.25 314.38,-276.25 314.38,-295.5"/>
<text text-anchor="middle" x="261" y="-282" font-family="Helvetica,sans-Serif" font-size="10.00">Cpl/TShell/Security.h</text>
</a>
</g>
</g>
<!-- Node4&#45;&gt;Node20 -->
<g id="edge25_Node000004_Node000020" class="edge">
<title>Node4&#45;&gt;Node20</title>
<g id="a_edge25_Node000004_Node000020"><a xlink:title=" ">
<path fill="none" stroke="#63b8ff" d="M324.94,-331.09C313.54,-323.21 296.77,-311.61 283.26,-302.27"/>
<polygon fill="#63b8ff" stroke="#63b8ff" points="285.59,-299.62 275.37,-296.81 281.6,-305.38 285.59,-299.62"/>
</a>
</g>
</g>
<!-- Node6 -->
<g id="Node000006" class="node">
<title>Node6</title>
<g id="a_Node000006"><a xlink:href="_dict_item_8h.html" target="_top" xlink:title=" ">
<polygon fill="white" stroke="#666666" points="404.88,-185 283.12,-185 283.12,-165.75 404.88,-165.75 404.88,-185"/>
<text text-anchor="middle" x="344" y="-171.5" font-family="Helvetica,sans-Serif" font-size="10.00">Cpl/Container/DictItem.h</text>
</a>
</g>
</g>
<!-- Node5&#45;&gt;Node6 -->
<g id="edge6_Node000005_Node000006" class="edge">
<title>Node5&#45;&gt;Node6</title>
<g id="a_edge6_Node000005_Node000006"><a xlink:title=" ">
<path fill="none" stroke="#63b8ff" d="M233.56,-220.59C254.77,-212.1 286.77,-199.29 310.88,-189.64"/>
<polygon fill="#63b8ff" stroke="#63b8ff" points="311.94,-192.98 319.92,-186.02 309.34,-186.48 311.94,-192.98"/>
</a>
</g>
</g>
<!-- Node7 -->
<g id="Node000007" class="node">
<title>Node7</title>
<g id="a_Node000007"><a xlink:href="_item_8h.html" target="_top" xlink:title=" ">
<polygon fill="white" stroke="#666666" points="335.25,-129.75 230.75,-129.75 230.75,-110.5 335.25,-110.5 335.25,-129.75"/>
<text text-anchor="middle" x="283" y="-116.25" font-family="Helvetica,sans-Serif" font-size="10.00">Cpl/Container/Item.h</text>
</a>
</g>
</g>
<!-- Node6&#45;&gt;Node7 -->
<g id="edge7_Node000006_Node000007" class="edge">
<title>Node6&#45;&gt;Node7</title>
<g id="a_edge7_Node000006_Node000007"><a xlink:title=" ">
<path fill="none" stroke="#63b8ff" d="M333.65,-165.34C324.92,-157.72 312.21,-146.62 301.7,-137.45"/>
<polygon fill="#63b8ff" stroke="#63b8ff" points="304.17,-134.96 294.34,-131.02 299.57,-140.23 304.17,-134.96"/>
</a>
</g>
</g>
<!-- Node8 -->
<g id="Node000008" class="node">
<title>Node8</title>
<g id="a_Node000008"><a xlink:href="_key_8h.html" target="_top" xlink:title=" ">
<polygon fill="white" stroke="#666666" points="481.75,-129.75 380.25,-129.75 380.25,-110.5 481.75,-110.5 481.75,-129.75"/>
<text text-anchor="middle" x="431" y="-116.25" font-family="Helvetica,sans-Serif" font-size="10.00">Cpl/Container/Key.h</text>
</a>
</g>
</g>
<!-- Node6&#45;&gt;Node8 -->
<g id="edge8_Node000006_Node000008" class="edge">
<title>Node6&#45;&gt;Node8</title>
<g id="a_edge8_Node000006_Node000008"><a xlink:title=" ">
<path fill="none" stroke="#63b8ff" d="M358.76,-165.34C371.88,-157.31 391.32,-145.41 406.73,-135.98"/>
<polygon fill="#63b8ff" stroke="#63b8ff" points="408.18,-139.2 414.88,-130.99 404.52,-133.23 408.18,-139.2"/>
</a>
</g>
</g>
<!-- Node9 -->
<g id="Node000009" class="node">
<title>Node9</title>
<g id="a_Node000009"><a xlink:href="_fatal_error_8h.html" target="_top" xlink:title=" ">
<polygon fill="white" stroke="#666666" points="487.38,-74.5 368.62,-74.5 368.62,-55.25 487.38,-55.25 487.38,-74.5"/>
<text text-anchor="middle" x="428" y="-61" font-family="Helvetica,sans-Serif" font-size="10.00">Cpl/System/FatalError.h</text>
</a>
</g>
</g>
<!-- Node8&#45;&gt;Node9 -->
<g id="edge9_Node000008_Node000009" class="edge">
<title>Node8&#45;&gt;Node9</title>
<g id="a_edge9_Node000008_Node000009"><a xlink:title=" ">
<path fill="none" stroke="#63b8ff" d="M430.5,-110.33C430.13,-103.74 429.61,-94.46 429.14,-86.07"/>
<polygon fill="#63b8ff" stroke="#63b8ff" points="432.65,-86.16 428.59,-76.37 425.66,-86.55 432.65,-86.16"/>
</a>
</g>
</g>
<!-- Node11 -->
<g id="Node000011" class="node">
<title>Node11</title>
<g id="a_Node000011"><a xlink:title=" ">
<polygon fill="#e0e0e0" stroke="#999999" points="663.75,-74.5 616.25,-74.5 616.25,-55.25 663.75,-55.25 663.75,-74.5"/>
<text text-anchor="middle" x="640" y="-61" font-family="Helvetica,sans-Serif" font-size="10.00">stdint.h</text>
</a>
</g>
</g>
<!-- Node8&#45;&gt;Node11 -->
<g id="edge12_Node000008_Node000011" class="edge">
<title>Node8&#45;&gt;Node11</title>
<g id="a_edge12_Node000008_Node000011"><a xlink:title=" ">
<path fill="none" stroke="#63b8ff" d="M466.45,-110.09C505.14,-100.23 566.69,-84.55 605.14,-74.76"/>
<polygon fill="#63b8ff" stroke="#63b8ff" points="605.52,-78.27 614.34,-72.41 603.79,-71.49 605.52,-78.27"/>
</a>
</g>
</g>
<!-- Node12 -->
<g id="Node000012" class="node">
<title>Node12</title>
<g id="a_Node000012"><a xlink:title=" ">
<polygon fill="#e0e0e0" stroke="#999999" points="350.75,-74.5 303.25,-74.5 303.25,-55.25 350.75,-55.25 350.75,-74.5"/>
<text text-anchor="middle" x="327" y="-61" font-family="Helvetica,sans-Serif" font-size="10.00">string.h</text>
</a>
</g>
</g>
<!-- Node8&#45;&gt;Node12 -->
<g id="edge13_Node000008_Node000012" class="edge">
<title>Node8&#45;&gt;Node12</title>
<g id="a_edge13_Node000008_Node000012"><a xlink:title=" ">
<path fill="none" stroke="#63b8ff" d="M413.36,-110.09C397.37,-101.91 373.54,-89.71 354.96,-80.19"/>
<polygon fill="#63b8ff" stroke="#63b8ff" points="356.57,-77.08 346.08,-75.64 353.38,-83.32 356.57,-77.08"/>
</a>
</g>
</g>
<!-- Node13 -->
<g id="Node000013" class="node">
<title>Node13</title>
<g id="a_Node000013"><a xlink:title=" ">
<polygon fill="#e0e0e0" stroke="#999999" points="580.62,-74.5 505.38,-74.5 505.38,-55.25 580.62,-55.25 580.62,-74.5"/>
<text text-anchor="middle" x="543" y="-61" font-family="Helvetica,sans-Serif" font-size="10.00">colony_map.h</text>
</a>
</g>
</g>
<!-- Node8&#45;&gt;Node13 -->
<g id="edge14_Node000008_Node000013" class="edge">
<title>Node8&#45;&gt;Node13</title>
<g id="a_edge14_Node000008_Node000013"><a xlink:title=" ">
<path fill="none" stroke="#63b8ff" d="M450,-110.09C467.46,-101.79 493.6,-89.36 513.72,-79.79"/>
<polygon fill="#63b8ff" stroke="#63b8ff" points="515.01,-83.06 522.54,-75.6 512.01,-76.74 515.01,-83.06"/>
</a>
</g>
</g>
<!-- Node9&#45;&gt;Node2 -->
<g id="edge11_Node000009_Node000002" class="edge">
<title>Node9&#45;&gt;Node2</title>
<g id="a_edge11_Node000009_Node000002"><a xlink:title=" ">
<path fill="none" stroke="#63b8ff" d="M368.74,-54.78C302.69,-44.64 196.86,-28.4 133.62,-18.7"/>
<polygon fill="#63b8ff" stroke="#63b8ff" points="134.24,-15.25 123.82,-17.2 133.17,-22.17 134.24,-15.25"/>
</a>
</g>
</g>
<!-- Node10 -->
<g id="Node000010" class="node">
<title>Node10</title>
<g id="a_Node000010"><a xlink:title=" ">
<polygon fill="#e0e0e0" stroke="#999999" points="453.25,-19.25 402.75,-19.25 402.75,0 453.25,0 453.25,-19.25"/>
<text text-anchor="middle" x="428" y="-5.75" font-family="Helvetica,sans-Serif" font-size="10.00">stddef.h</text>
</a>
</g>
</g>
<!-- Node9&#45;&gt;Node10 -->
<g id="edge10_Node000009_Node000010" class="edge">
<title>Node9&#45;&gt;Node10</title>
<g id="a_edge10_Node000009_Node000010"><a xlink:title=" ">
<path fill="none" stroke="#63b8ff" d="M428,-55.08C428,-48.57 428,-39.42 428,-31.12"/>
<polygon fill="#63b8ff" stroke="#63b8ff" points="431.5,-31.12 428,-21.12 424.5,-31.12 431.5,-31.12"/>
</a>
</g>
</g>
<!-- Node14&#45;&gt;Node15 -->
<g id="edge16_Node000014_Node000015" class="edge">
<title>Node14&#45;&gt;Node15</title>
<g id="a_edge16_Node000014_Node000015"><a xlink:title=" ">
<path fill="none" stroke="#63b8ff" d="M506.47,-276.08C509.13,-269.34 512.9,-259.77 516.26,-251.24"/>
<polygon fill="#63b8ff" stroke="#63b8ff" points="519.49,-252.6 519.9,-242.02 512.98,-250.04 519.49,-252.6"/>
</a>
</g>
</g>
<!-- Node16 -->
<g id="Node000016" class="node">
<title>Node16</title>
<g id="a_Node000016"><a xlink:title=" ">
<polygon fill="#e0e0e0" stroke="#999999" points="621.25,-185 570.75,-185 570.75,-165.75 621.25,-165.75 621.25,-185"/>
<text text-anchor="middle" x="596" y="-171.5" font-family="Helvetica,sans-Serif" font-size="10.00">stdarg.h</text>
</a>
</g>
</g>
<!-- Node14&#45;&gt;Node16 -->
<g id="edge24_Node000014_Node000016" class="edge">
<title>Node14&#45;&gt;Node16</title>
<g id="a_edge24_Node000014_Node000016"><a xlink:title=" ">
<path fill="none" stroke="#63b8ff" d="M527.24,-275.77C543.52,-268.48 564.24,-256.74 577,-240.25 586.87,-227.5 591.62,-209.71 593.91,-196.14"/>
<polygon fill="#63b8ff" stroke="#63b8ff" points="597.32,-197 595.18,-186.63 590.38,-196.07 597.32,-197"/>
</a>
</g>
</g>
<!-- Node18 -->
<g id="Node000018" class="node">
<title>Node18</title>
<g id="a_Node000018"><a xlink:href="_close_8h.html" target="_top" xlink:title=" ">
<polygon fill="white" stroke="#666666" points="367.38,-240.25 290.62,-240.25 290.62,-221 367.38,-221 367.38,-240.25"/>
<text text-anchor="middle" x="329" y="-226.75" font-family="Helvetica,sans-Serif" font-size="10.00">Cpl/Io/Close.h</text>
</a>
</g>
</g>
<!-- Node14&#45;&gt;Node18 -->
<g id="edge21_Node000014_Node000018" class="edge">
<title>Node14&#45;&gt;Node18</title>
<g id="a_edge21_Node000014_Node000018"><a xlink:title=" ">
<path fill="none" stroke="#63b8ff" d="M473.48,-275.84C444.86,-267.08 401.22,-253.73 369.38,-243.98"/>
<polygon fill="#63b8ff" stroke="#63b8ff" points="370.7,-240.73 360.11,-241.15 368.65,-247.42 370.7,-240.73"/>
</a>
</g>
</g>
<!-- Node19 -->
<g id="Node000019" class="node">
<title>Node19</title>
<g id="a_Node000019"><a xlink:href="_is_eos_8h.html" target="_top" xlink:title=" ">
<polygon fill="white" stroke="#666666" points="462.38,-240.25 385.62,-240.25 385.62,-221 462.38,-221 462.38,-240.25"/>
<text text-anchor="middle" x="424" y="-226.75" font-family="Helvetica,sans-Serif" font-size="10.00">Cpl/Io/IsEos.h</text>
</a>
</g>
</g>
<!-- Node14&#45;&gt;Node19 -->
<g id="edge23_Node000014_Node000019" class="edge">
<title>Node14&#45;&gt;Node19</title>
<g id="a_edge23_Node000014_Node000019"><a xlink:title=" ">
<path fill="none" stroke="#63b8ff" d="M489.6,-275.84C477.91,-267.96 460.7,-256.36 446.84,-247.02"/>
<polygon fill="#63b8ff" stroke="#63b8ff" points="448.97,-244.24 438.72,-241.55 445.06,-250.04 448.97,-244.24"/>
</a>
</g>
</g>
<!-- Node15&#45;&gt;Node8 -->
<g id="edge18_Node000015_Node000008" class="edge">
<title>Node15&#45;&gt;Node8</title>
<g id="a_edge18_Node000015_Node000008"><a xlink:title=" ">
<path fill="none" stroke="#63b8ff" d="M501.23,-220.56C485.36,-213.18 464.82,-201.29 452,-185 441.94,-172.22 436.61,-154.43 433.84,-140.87"/>
<polygon fill="#63b8ff" stroke="#63b8ff" points="437.35,-140.62 432.21,-131.36 430.45,-141.81 437.35,-140.62"/>
</a>
</g>
</g>
<!-- Node15&#45;&gt;Node13 -->
<g id="edge17_Node000015_Node000013" class="edge">
<title>Node15&#45;&gt;Node13</title>
<g id="a_edge17_Node000015_Node000013"><a xlink:title=" ">
<path fill="none" stroke="#63b8ff" d="M525.02,-220.82C527.96,-195.5 536.49,-122 540.65,-86.09"/>
<polygon fill="#63b8ff" stroke="#63b8ff" points="544.12,-86.56 541.8,-76.23 537.17,-85.76 544.12,-86.56"/>
</a>
</g>
</g>
<!-- Node15&#45;&gt;Node16 -->
<g id="edge19_Node000015_Node000016" class="edge">
<title>Node15&#45;&gt;Node16</title>
<g id="a_edge19_Node000015_Node000016"><a xlink:title=" ">
<path fill="none" stroke="#63b8ff" d="M536.21,-220.59C546.83,-212.74 562.44,-201.2 575.04,-191.87"/>
<polygon fill="#63b8ff" stroke="#63b8ff" points="576.79,-194.94 582.75,-186.17 572.63,-189.31 576.79,-194.94"/>
</a>
</g>
</g>
<!-- Node17 -->
<g id="Node000017" class="node">
<title>Node17</title>
<g id="a_Node000017"><a xlink:title=" ">
<polygon fill="#e0e0e0" stroke="#999999" points="514.75,-185 461.25,-185 461.25,-165.75 514.75,-165.75 514.75,-185"/>
<text text-anchor="middle" x="488" y="-171.5" font-family="Helvetica,sans-Serif" font-size="10.00">iostream</text>
</a>
</g>
</g>
<!-- Node15&#45;&gt;Node17 -->
<g id="edge20_Node000015_Node000017" class="edge">
<title>Node15&#45;&gt;Node17</title>
<g id="a_edge20_Node000015_Node000017"><a xlink:title=" ">
<path fill="none" stroke="#63b8ff" d="M518.06,-220.83C513.29,-213.78 506.44,-203.65 500.48,-194.83"/>
<polygon fill="#63b8ff" stroke="#63b8ff" points="503.42,-192.94 494.92,-186.61 497.62,-196.86 503.42,-192.94"/>
</a>
</g>
</g>
<!-- Node18&#45;&gt;Node7 -->
<g id="edge22_Node000018_Node000007" class="edge">
<title>Node18&#45;&gt;Node7</title>
<g id="a_edge22_Node000018_Node000007"><a xlink:title=" ">
<path fill="none" stroke="#63b8ff" d="M311,-220.65C298.07,-213.11 281.62,-200.99 274,-185 267.36,-171.07 270.48,-153.62 274.77,-140.49"/>
<polygon fill="#63b8ff" stroke="#63b8ff" points="277.99,-141.87 278.26,-131.27 271.45,-139.39 277.99,-141.87"/>
</a>
</g>
</g>
<!-- Node21&#45;&gt;Node4 -->
<g id="edge34_Node000021_Node000004" class="edge">
<title>Node21&#45;&gt;Node4</title>
<g id="a_edge34_Node000021_Node000004"><a xlink:title=" ">
<path fill="none" stroke="#63b8ff" d="M269.08,-386.34C281.48,-378.39 299.79,-366.64 314.43,-357.25"/>
<polygon fill="#63b8ff" stroke="#63b8ff" points="316.05,-360.37 322.58,-352.02 312.27,-354.47 316.05,-360.37"/>
</a>
</g>
</g>
<!-- Node21&#45;&gt;Node20 -->
<g id="edge33_Node000021_Node000020" class="edge">
<title>Node21&#45;&gt;Node20</title>
<g id="a_edge33_Node000021_Node000020"><a xlink:title=" ">
<path fill="none" stroke="#63b8ff" d="M255.49,-386.5C256.44,-369.25 258.57,-330.83 259.88,-307.06"/>
<polygon fill="#63b8ff" stroke="#63b8ff" points="263.36,-307.57 260.42,-297.39 256.37,-307.18 263.36,-307.57"/>
</a>
</g>
</g>
<!-- Node22 -->
<g id="Node000022" class="node">
<title>Node22</title>
<g id="a_Node000022"><a xlink:href="_processor_api_8h.html" target="_top" xlink:title=" ">
<polygon fill="white" stroke="#666666" points="544,-350.75 414,-350.75 414,-331.5 544,-331.5 544,-350.75"/>
<text text-anchor="middle" x="479" y="-337.25" font-family="Helvetica,sans-Serif" font-size="10.00">Cpl/TShell/ProcessorApi.h</text>
</a>
</g>
</g>
<!-- Node21&#45;&gt;Node22 -->
<g id="edge27_Node000021_Node000022" class="edge">
<title>Node21&#45;&gt;Node22</title>
<g id="a_edge27_Node000021_Node000022"><a xlink:title=" ">
<path fill="none" stroke="#63b8ff" d="M293.25,-386.28C330.94,-377.32 388.69,-363.59 429.79,-353.82"/>
<polygon fill="#63b8ff" stroke="#63b8ff" points="430.51,-357.25 439.43,-351.53 428.89,-350.44 430.51,-357.25"/>
</a>
</g>
</g>
<!-- Node21&#45;&gt;Node24 -->
<g id="edge35_Node000021_Node000024" class="edge">
<title>Node21&#45;&gt;Node24</title>
<g id="a_edge35_Node000021_Node000024"><a xlink:title=" ">
<path fill="none" stroke="#63b8ff" d="M240.92,-386.34C228.52,-378.39 210.21,-366.64 195.57,-357.25"/>
<polygon fill="#63b8ff" stroke="#63b8ff" points="197.73,-354.47 187.42,-352.02 193.95,-360.37 197.73,-354.47"/>
</a>
</g>
</g>
<!-- Node22&#45;&gt;Node14 -->
<g id="edge32_Node000022_Node000014" class="edge">
<title>Node22&#45;&gt;Node14</title>
<g id="a_edge32_Node000022_Node000014"><a xlink:title=" ">
<path fill="none" stroke="#63b8ff" d="M482.96,-331.33C486.04,-324.51 490.41,-314.81 494.29,-306.2"/>
<polygon fill="#63b8ff" stroke="#63b8ff" points="497.41,-307.79 498.33,-297.24 491.03,-304.92 497.41,-307.79"/>
</a>
</g>
</g>
<!-- Node23 -->
<g id="Node000023" class="node">
<title>Node23</title>
<g id="a_Node000023"><a xlink:href="_input_8h.html" target="_top" xlink:title=" ">
<polygon fill="white" stroke="#666666" points="443.88,-295.5 370.12,-295.5 370.12,-276.25 443.88,-276.25 443.88,-295.5"/>
<text text-anchor="middle" x="407" y="-282" font-family="Helvetica,sans-Serif" font-size="10.00">Cpl/Io/Input.h</text>
</a>
</g>
</g>
<!-- Node22&#45;&gt;Node23 -->
<g id="edge28_Node000022_Node000023" class="edge">
<title>Node22&#45;&gt;Node23</title>
<g id="a_edge28_Node000022_Node000023"><a xlink:title=" ">
<path fill="none" stroke="#63b8ff" d="M466.79,-331.09C456.17,-323.24 440.56,-311.7 427.96,-302.37"/>
<polygon fill="#63b8ff" stroke="#63b8ff" points="430.37,-299.81 420.25,-296.67 426.21,-305.44 430.37,-299.81"/>
</a>
</g>
</g>
<!-- Node23&#45;&gt;Node15 -->
<g id="edge29_Node000023_Node000015" class="edge">
<title>Node23&#45;&gt;Node15</title>
<g id="a_edge29_Node000023_Node000015"><a xlink:title=" ">
<path fill="none" stroke="#63b8ff" d="M426.85,-275.84C445.17,-267.5 472.65,-255 493.71,-245.41"/>
<polygon fill="#63b8ff" stroke="#63b8ff" points="495.03,-248.66 502.68,-241.33 492.13,-242.29 495.03,-248.66"/>
</a>
</g>
</g>
<!-- Node23&#45;&gt;Node18 -->
<g id="edge30_Node000023_Node000018" class="edge">
<title>Node23&#45;&gt;Node18</title>
<g id="a_edge30_Node000023_Node000018"><a xlink:title=" ">
<path fill="none" stroke="#63b8ff" d="M393.77,-275.84C382.23,-267.96 365.23,-256.36 351.55,-247.02"/>
<polygon fill="#63b8ff" stroke="#63b8ff" points="353.78,-244.3 343.55,-241.56 349.83,-250.08 353.78,-244.3"/>
</a>
</g>
</g>
<!-- Node23&#45;&gt;Node19 -->
<g id="edge31_Node000023_Node000019" class="edge">
<title>Node23&#45;&gt;Node19</title>
<g id="a_edge31_Node000023_Node000019"><a xlink:title=" ">
<path fill="none" stroke="#63b8ff" d="M409.81,-276.08C411.94,-269.42 414.94,-259.99 417.64,-251.53"/>
<polygon fill="#63b8ff" stroke="#63b8ff" points="420.96,-252.64 420.67,-242.05 414.3,-250.51 420.96,-252.64"/>
</a>
</g>
</g>
<!-- Node25 -->
<g id="Node000025" class="node">
<title>Node25</title>
<g id="a_Node000025"><a xlink:href="_avl_tree___8h.html" target="_top" xlink:title=" ">
<polygon fill="white" stroke="#666666" points="190,-295.5 66,-295.5 66,-276.25 190,-276.25 190,-295.5"/>
<text text-anchor="middle" x="128" y="-282" font-family="Helvetica,sans-Serif" font-size="10.00">Cpl/Container/AvlTree_.h</text>
</a>
</g>
</g>
<!-- Node24&#45;&gt;Node25 -->
<g id="edge36_Node000024_Node000025" class="edge">
<title>Node24&#45;&gt;Node25</title>
<g id="a_edge36_Node000024_Node000025"><a xlink:title=" ">
<path fill="none" stroke="#63b8ff" d="M164.73,-331.33C158.72,-324.05 149.99,-313.48 142.54,-304.48"/>
<polygon fill="#63b8ff" stroke="#63b8ff" points="145.46,-302.51 136.39,-297.03 140.06,-306.96 145.46,-302.51"/>
</a>
</g>
</g>
<!-- Node25&#45;&gt;Node2 -->
<g id="edge37_Node000025_Node000002" class="edge">
<title>Node25&#45;&gt;Node2</title>
<g id="a_edge37_Node000025_Node000002"><a xlink:title=" ">
<path fill="none" stroke="#63b8ff" d="M125.08,-275.99C119.31,-257.6 107,-213.98 107,-176.38 107,-176.38 107,-176.38 107,-119.12 107,-87.4 96.36,-51.86 88.69,-30.37"/>
<polygon fill="#63b8ff" stroke="#63b8ff" points="92.03,-29.3 85.25,-21.15 85.47,-31.75 92.03,-29.3"/>
</a>
</g>
</g>
<!-- Node25&#45;&gt;Node5 -->
<g id="edge38_Node000025_Node000005" class="edge">
<title>Node25&#45;&gt;Node5</title>
<g id="a_edge38_Node000025_Node000005"><a xlink:title=" ">
<path fill="none" stroke="#63b8ff" d="M142.08,-275.84C154.48,-267.89 172.79,-256.14 187.43,-246.75"/>
<polygon fill="#63b8ff" stroke="#63b8ff" points="189.05,-249.87 195.58,-241.52 185.27,-243.97 189.05,-249.87"/>
</a>
</g>
</g>
<!-- Node26&#45;&gt;Node11 -->
<g id="edge42_Node000026_Node000011" class="edge">
<title>Node26&#45;&gt;Node11</title>
<g id="a_edge42_Node000026_Node000011"><a xlink:title=" ">
<path fill="none" stroke="#63b8ff" d="M630.84,-441.63C638,-433 648.46,-419.36 655,-406 668.03,-379.4 674,-371.74 674,-342.12 674,-342.12 674,-342.12 674,-174.38 674,-141.9 659.96,-106.35 649.92,-85.09"/>
<polygon fill="#63b8ff" stroke="#63b8ff" points="653.11,-83.64 645.54,-76.22 646.83,-86.74 653.11,-83.64"/>
</a>
</g>
</g>
<!-- Node27 -->
<g id="Node000027" class="node">
<title>Node27</title>
<g id="a_Node000027"><a xlink:title=" ">
<polygon fill="#e0e0e0" stroke="#999999" points="646.38,-406 599.62,-406 599.62,-386.75 646.38,-386.75 646.38,-406"/>
<text text-anchor="middle" x="623" y="-392.5" font-family="Helvetica,sans-Serif" font-size="10.00">stdlib.h</text>
</a>
</g>
</g>
<!-- Node26&#45;&gt;Node27 -->
<g id="edge43_Node000026_Node000027" class="edge">
<title>Node26&#45;&gt;Node27</title>
<g id="a_edge43_Node000026_Node000027"><a xlink:title=" ">
<path fill="none" stroke="#63b8ff" d="M623,-441.83C623,-435.32 623,-426.17 623,-417.87"/>
<polygon fill="#63b8ff" stroke="#63b8ff" points="626.5,-417.87 623,-407.87 619.5,-417.87 626.5,-417.87"/>
</a>
</g>
</g>
</g>
</svg>
