<?xml version="1.0" encoding="UTF-8" standalone="no"?>
<!DOCTYPE svg PUBLIC "-//W3C//DTD SVG 1.1//EN"
 "http://www.w3.org/Graphics/SVG/1.1/DTD/svg11.dtd">
<!-- Generated by graphviz version 9.0.0 (20230911.1827)
 -->
<!-- Title: Cpl/Persistent/IndexRecord.h Pages: 1 -->
<svg width="1363pt" height="469pt"
 viewBox="0.00 0.00 1362.62 469.25" xmlns="http://www.w3.org/2000/svg" xmlns:xlink="http://www.w3.org/1999/xlink">
<g id="graph0" class="graph" transform="scale(1 1) rotate(0) translate(4 465.25)">
<title>Cpl/Persistent/IndexRecord.h</title>
<!-- Node1 -->
<g id="Node000001" class="node">
<title>Node1</title>
<g id="a_Node000001"><a xlink:title=" ">
<polygon fill="#999999" stroke="#666666" points="1148.5,-461.25 1006.5,-461.25 1006.5,-442 1148.5,-442 1148.5,-461.25"/>
<text text-anchor="middle" x="1077.5" y="-447.75" font-family="Helvetica,sans-Serif" font-size="10.00">Cpl/Persistent/IndexRecord.h</text>
</a>
</g>
</g>
<!-- Node2 -->
<g id="Node000002" class="node">
<title>Node2</title>
<g id="a_Node000002"><a xlink:href="_data_record_8h.html" target="_top" xlink:title=" ">
<polygon fill="white" stroke="#666666" points="1147,-406 1008,-406 1008,-386.75 1147,-386.75 1147,-406"/>
<text text-anchor="middle" x="1077.5" y="-392.5" font-family="Helvetica,sans-Serif" font-size="10.00">Cpl/Persistent/DataRecord.h</text>
</a>
</g>
</g>
<!-- Node1&#45;&gt;Node2 -->
<g id="edge1_Node000001_Node000002" class="edge">
<title>Node1&#45;&gt;Node2</title>
<g id="a_edge1_Node000001_Node000002"><a xlink:title=" ">
<path fill="none" stroke="#63b8ff" d="M1077.5,-441.83C1077.5,-435.32 1077.5,-426.17 1077.5,-417.87"/>
<polygon fill="#63b8ff" stroke="#63b8ff" points="1081,-417.87 1077.5,-407.87 1074,-417.87 1081,-417.87"/>
</a>
</g>
</g>
<!-- Node3 -->
<g id="Node000003" class="node">
<title>Node3</title>
<g id="a_Node000003"><a xlink:href="_persistent_2_record_8h.html" target="_top" xlink:title=" ">
<polygon fill="white" stroke="#666666" points="1001.88,-350.75 883.12,-350.75 883.12,-331.5 1001.88,-331.5 1001.88,-350.75"/>
<text text-anchor="middle" x="942.5" y="-337.25" font-family="Helvetica,sans-Serif" font-size="10.00">Cpl/Persistent/Record.h</text>
</a>
</g>
</g>
<!-- Node2&#45;&gt;Node3 -->
<g id="edge2_Node000002_Node000003" class="edge">
<title>Node2&#45;&gt;Node3</title>
<g id="a_edge2_Node000002_Node000003"><a xlink:title=" ">
<path fill="none" stroke="#63b8ff" d="M1054.6,-386.34C1033.07,-377.85 1000.59,-365.04 976.12,-355.39"/>
<polygon fill="#63b8ff" stroke="#63b8ff" points="977.51,-352.17 966.92,-351.76 974.94,-358.68 977.51,-352.17"/>
</a>
</g>
</g>
<!-- Node28 -->
<g id="Node000028" class="node">
<title>Node28</title>
<g id="a_Node000028"><a xlink:href="_chunk_8h.html" target="_top" xlink:title=" ">
<polygon fill="white" stroke="#666666" points="1135.38,-350.75 1019.62,-350.75 1019.62,-331.5 1135.38,-331.5 1135.38,-350.75"/>
<text text-anchor="middle" x="1077.5" y="-337.25" font-family="Helvetica,sans-Serif" font-size="10.00">Cpl/Persistent/Chunk.h</text>
</a>
</g>
</g>
<!-- Node2&#45;&gt;Node28 -->
<g id="edge40_Node000002_Node000028" class="edge">
<title>Node2&#45;&gt;Node28</title>
<g id="a_edge40_Node000002_Node000028"><a xlink:title=" ">
<path fill="none" stroke="#63b8ff" d="M1077.5,-386.58C1077.5,-380.07 1077.5,-370.92 1077.5,-362.62"/>
<polygon fill="#63b8ff" stroke="#63b8ff" points="1081,-362.62 1077.5,-352.62 1074,-362.62 1081,-362.62"/>
</a>
</g>
</g>
<!-- Node29 -->
<g id="Node000029" class="node">
<title>Node29</title>
<g id="a_Node000029"><a xlink:href="_payload_8h.html" target="_top" xlink:title=" ">
<polygon fill="white" stroke="#666666" points="1203.75,-295.5 1081.25,-295.5 1081.25,-276.25 1203.75,-276.25 1203.75,-295.5"/>
<text text-anchor="middle" x="1142.5" y="-282" font-family="Helvetica,sans-Serif" font-size="10.00">Cpl/Persistent/Payload.h</text>
</a>
</g>
</g>
<!-- Node2&#45;&gt;Node29 -->
<g id="edge44_Node000002_Node000029" class="edge">
<title>Node2&#45;&gt;Node29</title>
<g id="a_edge44_Node000002_Node000029"><a xlink:title=" ">
<path fill="none" stroke="#63b8ff" d="M1101.61,-386.35C1116.91,-379.22 1135.46,-367.63 1144.5,-350.75 1151.64,-337.41 1150.61,-320.15 1148.08,-306.94"/>
<polygon fill="#63b8ff" stroke="#63b8ff" points="1151.49,-306.15 1145.77,-297.24 1144.68,-307.78 1151.49,-306.15"/>
</a>
</g>
</g>
<!-- Node4 -->
<g id="Node000004" class="node">
<title>Node4</title>
<g id="a_Node000004"><a xlink:href="_dm_2_mailbox_server_8h.html" target="_top" xlink:title=" ">
<polygon fill="white" stroke="#666666" points="1043.62,-295.5 923.38,-295.5 923.38,-276.25 1043.62,-276.25 1043.62,-295.5"/>
<text text-anchor="middle" x="983.5" y="-282" font-family="Helvetica,sans-Serif" font-size="10.00">Cpl/Dm/MailboxServer.h</text>
</a>
</g>
</g>
<!-- Node3&#45;&gt;Node4 -->
<g id="edge3_Node000003_Node000004" class="edge">
<title>Node3&#45;&gt;Node4</title>
<g id="a_edge3_Node000003_Node000004"><a xlink:title=" ">
<path fill="none" stroke="#63b8ff" d="M949.27,-331.33C954.82,-324.13 962.84,-313.71 969.73,-304.76"/>
<polygon fill="#63b8ff" stroke="#63b8ff" points="972.33,-307.12 975.66,-297.06 966.79,-302.85 972.33,-307.12"/>
</a>
</g>
</g>
<!-- Node5 -->
<g id="Node000005" class="node">
<title>Node5</title>
<g id="a_Node000005"><a xlink:href="_dm_2_event_loop_8h.html" target="_top" xlink:title=" ">
<polygon fill="white" stroke="#666666" points="399.12,-240.25 293.88,-240.25 293.88,-221 399.12,-221 399.12,-240.25"/>
<text text-anchor="middle" x="346.5" y="-226.75" font-family="Helvetica,sans-Serif" font-size="10.00">Cpl/Dm/EventLoop.h</text>
</a>
</g>
</g>
<!-- Node4&#45;&gt;Node5 -->
<g id="edge4_Node000004_Node000005" class="edge">
<title>Node4&#45;&gt;Node5</title>
<g id="a_edge4_Node000004_Node000005"><a xlink:title=" ">
<path fill="none" stroke="#63b8ff" d="M923,-279.82C802.54,-269.75 533.71,-247.28 410.47,-236.97"/>
<polygon fill="#63b8ff" stroke="#63b8ff" points="411.12,-233.51 400.87,-236.17 410.54,-240.49 411.12,-233.51"/>
</a>
</g>
</g>
<!-- Node24 -->
<g id="Node000024" class="node">
<title>Node24</title>
<g id="a_Node000024"><a xlink:href="_mailbox_8h.html" target="_top" xlink:title=" ">
<polygon fill="white" stroke="#666666" points="1284.5,-185 1196.5,-185 1196.5,-165.75 1284.5,-165.75 1284.5,-185"/>
<text text-anchor="middle" x="1240.5" y="-171.5" font-family="Helvetica,sans-Serif" font-size="10.00">Cpl/Itc/Mailbox.h</text>
</a>
</g>
</g>
<!-- Node4&#45;&gt;Node24 -->
<g id="edge33_Node000004_Node000024" class="edge">
<title>Node4&#45;&gt;Node24</title>
<g id="a_edge33_Node000004_Node000024"><a xlink:title=" ">
<path fill="none" stroke="#63b8ff" d="M1004.97,-275.81C1050.13,-256.74 1155.18,-212.4 1208.38,-189.93"/>
<polygon fill="#63b8ff" stroke="#63b8ff" points="1209.67,-193.19 1217.52,-186.08 1206.94,-186.74 1209.67,-193.19"/>
</a>
</g>
</g>
<!-- Node6 -->
<g id="Node000006" class="node">
<title>Node6</title>
<g id="a_Node000006"><a xlink:href="_system_2_event_loop_8h.html" target="_top" xlink:title=" ">
<polygon fill="white" stroke="#666666" points="562.12,-185 438.88,-185 438.88,-165.75 562.12,-165.75 562.12,-185"/>
<text text-anchor="middle" x="500.5" y="-171.5" font-family="Helvetica,sans-Serif" font-size="10.00">Cpl/System/EventLoop.h</text>
</a>
</g>
</g>
<!-- Node5&#45;&gt;Node6 -->
<g id="edge5_Node000005_Node000006" class="edge">
<title>Node5&#45;&gt;Node6</title>
<g id="a_edge5_Node000005_Node000006"><a xlink:title=" ">
<path fill="none" stroke="#63b8ff" d="M372.62,-220.59C397.62,-211.95 435.58,-198.82 463.65,-189.12"/>
<polygon fill="#63b8ff" stroke="#63b8ff" points="464.51,-192.52 472.82,-185.95 462.22,-185.91 464.51,-192.52"/>
</a>
</g>
</g>
<!-- Node18 -->
<g id="Node000018" class="node">
<title>Node18</title>
<g id="a_Node000018"><a xlink:href="_d_list_8h.html" target="_top" xlink:title=" ">
<polygon fill="white" stroke="#666666" points="341.62,-74.5 233.38,-74.5 233.38,-55.25 341.62,-55.25 341.62,-74.5"/>
<text text-anchor="middle" x="287.5" y="-61" font-family="Helvetica,sans-Serif" font-size="10.00">Cpl/Container/DList.h</text>
</a>
</g>
</g>
<!-- Node5&#45;&gt;Node18 -->
<g id="edge27_Node000005_Node000018" class="edge">
<title>Node5&#45;&gt;Node18</title>
<g id="a_edge27_Node000005_Node000018"><a xlink:title=" ">
<path fill="none" stroke="#63b8ff" d="M331.13,-220.67C306.88,-205.54 260.65,-172.35 242.5,-129.75 234.88,-111.87 249.88,-94 264.57,-81.72"/>
<polygon fill="#63b8ff" stroke="#63b8ff" points="266.5,-84.66 272.28,-75.78 262.22,-79.12 266.5,-84.66"/>
</a>
</g>
</g>
<!-- Node19 -->
<g id="Node000019" class="node">
<title>Node19</title>
<g id="a_Node000019"><a xlink:href="_thread_8h.html" target="_top" xlink:title=" ">
<polygon fill="white" stroke="#666666" points="1001.88,-185 895.12,-185 895.12,-165.75 1001.88,-165.75 1001.88,-185"/>
<text text-anchor="middle" x="948.5" y="-171.5" font-family="Helvetica,sans-Serif" font-size="10.00">Cpl/System/Thread.h</text>
</a>
</g>
</g>
<!-- Node5&#45;&gt;Node19 -->
<g id="edge21_Node000005_Node000019" class="edge">
<title>Node5&#45;&gt;Node19</title>
<g id="a_edge21_Node000005_Node000019"><a xlink:title=" ">
<path fill="none" stroke="#63b8ff" d="M399.4,-224.95C509.6,-215.2 763.5,-192.74 883.46,-182.13"/>
<polygon fill="#63b8ff" stroke="#63b8ff" points="883.48,-185.64 893.14,-181.27 882.87,-178.67 883.48,-185.64"/>
</a>
</g>
</g>
<!-- Node22 -->
<g id="Node000022" class="node">
<title>Node22</title>
<g id="a_Node000022"><a xlink:href="_subscriber_api_8h.html" target="_top" xlink:title=" ">
<polygon fill="white" stroke="#666666" points="215.25,-74.5 95.75,-74.5 95.75,-55.25 215.25,-55.25 215.25,-74.5"/>
<text text-anchor="middle" x="155.5" y="-61" font-family="Helvetica,sans-Serif" font-size="10.00">Cpl/Dm/SubscriberApi.h</text>
</a>
</g>
</g>
<!-- Node5&#45;&gt;Node22 -->
<g id="edge28_Node000005_Node000022" class="edge">
<title>Node5&#45;&gt;Node22</title>
<g id="a_edge28_Node000005_Node000022"><a xlink:title=" ">
<path fill="none" stroke="#63b8ff" d="M325.18,-220.63C307.67,-212.67 282.7,-200.02 263.5,-185 224.46,-154.46 187.63,-108.99 168.72,-83.98"/>
<polygon fill="#63b8ff" stroke="#63b8ff" points="171.64,-82.05 162.86,-76.12 166.03,-86.23 171.64,-82.05"/>
</a>
</g>
</g>
<!-- Node23 -->
<g id="Node000023" class="node">
<title>Node23</title>
<g id="a_Node000023"><a xlink:href="_notification_api___8h.html" target="_top" xlink:title=" ">
<polygon fill="white" stroke="#666666" points="127,-185 0,-185 0,-165.75 127,-165.75 127,-185"/>
<text text-anchor="middle" x="63.5" y="-171.5" font-family="Helvetica,sans-Serif" font-size="10.00">Cpl/Dm/NotificationApi_.h</text>
</a>
</g>
</g>
<!-- Node5&#45;&gt;Node23 -->
<g id="edge31_Node000005_Node000023" class="edge">
<title>Node5&#45;&gt;Node23</title>
<g id="a_edge31_Node000005_Node000023"><a xlink:title=" ">
<path fill="none" stroke="#63b8ff" d="M298.17,-220.53C249.64,-211.4 174.78,-197.31 122.7,-187.51"/>
<polygon fill="#63b8ff" stroke="#63b8ff" points="123.59,-184.12 113.12,-185.71 122.3,-191 123.59,-184.12"/>
</a>
</g>
</g>
<!-- Node7 -->
<g id="Node000007" class="node">
<title>Node7</title>
<g id="a_Node000007"><a xlink:href="_runnable_8h.html" target="_top" xlink:title=" ">
<polygon fill="white" stroke="#666666" points="901.12,-129.75 783.88,-129.75 783.88,-110.5 901.12,-110.5 901.12,-129.75"/>
<text text-anchor="middle" x="842.5" y="-116.25" font-family="Helvetica,sans-Serif" font-size="10.00">Cpl/System/Runnable.h</text>
</a>
</g>
</g>
<!-- Node6&#45;&gt;Node7 -->
<g id="edge6_Node000006_Node000007" class="edge">
<title>Node6&#45;&gt;Node7</title>
<g id="a_edge6_Node000006_Node000007"><a xlink:title=" ">
<path fill="none" stroke="#63b8ff" d="M558.9,-165.28C618.2,-156.05 710.03,-141.75 773.03,-131.94"/>
<polygon fill="#63b8ff" stroke="#63b8ff" points="773.21,-135.46 782.56,-130.46 772.14,-128.54 773.21,-135.46"/>
</a>
</g>
</g>
<!-- Node8 -->
<g id="Node000008" class="node">
<title>Node8</title>
<g id="a_Node000008"><a xlink:href="_semaphore_8h.html" target="_top" xlink:title=" ">
<polygon fill="white" stroke="#666666" points="727.62,-129.75 601.38,-129.75 601.38,-110.5 727.62,-110.5 727.62,-129.75"/>
<text text-anchor="middle" x="664.5" y="-116.25" font-family="Helvetica,sans-Serif" font-size="10.00">Cpl/System/Semaphore.h</text>
</a>
</g>
</g>
<!-- Node6&#45;&gt;Node8 -->
<g id="edge7_Node000006_Node000008" class="edge">
<title>Node6&#45;&gt;Node8</title>
<g id="a_edge7_Node000006_Node000008"><a xlink:title=" ">
<path fill="none" stroke="#63b8ff" d="M528.32,-165.34C555.06,-156.66 595.72,-143.46 625.65,-133.74"/>
<polygon fill="#63b8ff" stroke="#63b8ff" points="626.67,-137.09 635.1,-130.67 624.51,-130.43 626.67,-137.09"/>
</a>
</g>
</g>
<!-- Node10 -->
<g id="Node000010" class="node">
<title>Node10</title>
<g id="a_Node000010"><a xlink:href="_signable_8h.html" target="_top" xlink:title=" ">
<polygon fill="white" stroke="#666666" points="1000.62,-74.5 886.38,-74.5 886.38,-55.25 1000.62,-55.25 1000.62,-74.5"/>
<text text-anchor="middle" x="943.5" y="-61" font-family="Helvetica,sans-Serif" font-size="10.00">Cpl/System/Signable.h</text>
</a>
</g>
</g>
<!-- Node6&#45;&gt;Node10 -->
<g id="edge11_Node000006_Node000010" class="edge">
<title>Node6&#45;&gt;Node10</title>
<g id="a_edge11_Node000006_Node000010"><a xlink:title=" ">
<path fill="none" stroke="#63b8ff" d="M562.35,-167.53C610.68,-161.03 679.06,-149.29 736.5,-129.75 754.42,-123.65 756.8,-117.23 774.5,-110.5 811.45,-96.44 854.56,-85.14 887.99,-77.42"/>
<polygon fill="#63b8ff" stroke="#63b8ff" points="888.47,-80.9 897.45,-75.28 886.93,-74.07 888.47,-80.9"/>
</a>
</g>
</g>
<!-- Node12 -->
<g id="Node000012" class="node">
<title>Node12</title>
<g id="a_Node000012"><a xlink:href="_event_flag_8h.html" target="_top" xlink:title=" ">
<polygon fill="white" stroke="#666666" points="479.62,-74.5 359.38,-74.5 359.38,-55.25 479.62,-55.25 479.62,-74.5"/>
<text text-anchor="middle" x="419.5" y="-61" font-family="Helvetica,sans-Serif" font-size="10.00">Cpl/System/EventFlag.h</text>
</a>
</g>
</g>
<!-- Node6&#45;&gt;Node12 -->
<g id="edge12_Node000006_Node000012" class="edge">
<title>Node6&#45;&gt;Node12</title>
<g id="a_edge12_Node000006_Node000012"><a xlink:title=" ">
<path fill="none" stroke="#63b8ff" d="M438.54,-172.13C372.43,-168.27 274.03,-157.85 250.5,-129.75 245.01,-123.19 245.28,-117.28 250.5,-110.5 262.77,-94.57 307.64,-83.17 348.06,-75.88"/>
<polygon fill="#63b8ff" stroke="#63b8ff" points="348.56,-79.35 357.82,-74.2 347.37,-72.45 348.56,-79.35"/>
</a>
</g>
</g>
<!-- Node15 -->
<g id="Node000015" class="node">
<title>Node15</title>
<g id="a_Node000015"><a xlink:href="_shared_event_handler_8h.html" target="_top" xlink:title=" ">
<polygon fill="white" stroke="#666666" points="583.5,-129.75 417.5,-129.75 417.5,-110.5 583.5,-110.5 583.5,-129.75"/>
<text text-anchor="middle" x="500.5" y="-116.25" font-family="Helvetica,sans-Serif" font-size="10.00">Cpl/System/SharedEventHandler.h</text>
</a>
</g>
</g>
<!-- Node6&#45;&gt;Node15 -->
<g id="edge15_Node000006_Node000015" class="edge">
<title>Node6&#45;&gt;Node15</title>
<g id="a_edge15_Node000006_Node000015"><a xlink:title=" ">
<path fill="none" stroke="#63b8ff" d="M500.5,-165.58C500.5,-159.07 500.5,-149.92 500.5,-141.62"/>
<polygon fill="#63b8ff" stroke="#63b8ff" points="504,-141.62 500.5,-131.62 497,-141.62 504,-141.62"/>
</a>
</g>
</g>
<!-- Node16 -->
<g id="Node000016" class="node">
<title>Node16</title>
<g id="a_Node000016"><a xlink:href="_timer_manager_8h.html" target="_top" xlink:title=" ">
<polygon fill="white" stroke="#666666" points="399,-129.75 260,-129.75 260,-110.5 399,-110.5 399,-129.75"/>
<text text-anchor="middle" x="329.5" y="-116.25" font-family="Helvetica,sans-Serif" font-size="10.00">Cpl/System/TimerManager.h</text>
</a>
</g>
</g>
<!-- Node6&#45;&gt;Node16 -->
<g id="edge17_Node000006_Node000016" class="edge">
<title>Node6&#45;&gt;Node16</title>
<g id="a_edge17_Node000006_Node000016"><a xlink:title=" ">
<path fill="none" stroke="#63b8ff" d="M471.49,-165.34C443.49,-156.62 400.84,-143.34 369.6,-133.61"/>
<polygon fill="#63b8ff" stroke="#63b8ff" points="370.68,-130.28 360.1,-130.65 368.6,-136.97 370.68,-130.28"/>
</a>
</g>
</g>
<!-- Node9 -->
<g id="Node000009" class="node">
<title>Node9</title>
<g id="a_Node000009"><a xlink:title=" ">
<polygon fill="#e0e0e0" stroke="#999999" points="845.12,-74.5 769.88,-74.5 769.88,-55.25 845.12,-55.25 845.12,-74.5"/>
<text text-anchor="middle" x="807.5" y="-61" font-family="Helvetica,sans-Serif" font-size="10.00">colony_map.h</text>
</a>
</g>
</g>
<!-- Node8&#45;&gt;Node9 -->
<g id="edge8_Node000008_Node000009" class="edge">
<title>Node8&#45;&gt;Node9</title>
<g id="a_edge8_Node000008_Node000009"><a xlink:title=" ">
<path fill="none" stroke="#63b8ff" d="M688.76,-110.09C711.77,-101.52 746.59,-88.56 772.58,-78.88"/>
<polygon fill="#63b8ff" stroke="#63b8ff" points="773.55,-82.25 781.7,-75.48 771.11,-75.69 773.55,-82.25"/>
</a>
</g>
</g>
<!-- Node8&#45;&gt;Node10 -->
<g id="edge9_Node000008_Node000010" class="edge">
<title>Node8&#45;&gt;Node10</title>
<g id="a_edge9_Node000008_Node000010"><a xlink:title=" ">
<path fill="none" stroke="#63b8ff" d="M712.14,-110.03C759.89,-100.92 833.49,-86.87 884.81,-77.08"/>
<polygon fill="#63b8ff" stroke="#63b8ff" points="885.4,-80.53 894.57,-75.21 884.09,-73.65 885.4,-80.53"/>
</a>
</g>
</g>
<!-- Node11 -->
<g id="Node000011" class="node">
<title>Node11</title>
<g id="a_Node000011"><a xlink:href="_item_8h.html" target="_top" xlink:title=" ">
<polygon fill="white" stroke="#666666" points="995.75,-19.25 891.25,-19.25 891.25,0 995.75,0 995.75,-19.25"/>
<text text-anchor="middle" x="943.5" y="-5.75" font-family="Helvetica,sans-Serif" font-size="10.00">Cpl/Container/Item.h</text>
</a>
</g>
</g>
<!-- Node10&#45;&gt;Node11 -->
<g id="edge10_Node000010_Node000011" class="edge">
<title>Node10&#45;&gt;Node11</title>
<g id="a_edge10_Node000010_Node000011"><a xlink:title=" ">
<path fill="none" stroke="#63b8ff" d="M943.5,-55.08C943.5,-48.57 943.5,-39.42 943.5,-31.12"/>
<polygon fill="#63b8ff" stroke="#63b8ff" points="947,-31.12 943.5,-21.12 940,-31.12 947,-31.12"/>
</a>
</g>
</g>
<!-- Node13 -->
<g id="Node000013" class="node">
<title>Node13</title>
<g id="a_Node000013"><a xlink:title=" ">
<polygon fill="#e0e0e0" stroke="#999999" points="460.5,-19.25 378.5,-19.25 378.5,0 460.5,0 460.5,-19.25"/>
<text text-anchor="middle" x="419.5" y="-5.75" font-family="Helvetica,sans-Serif" font-size="10.00">colony_config.h</text>
</a>
</g>
</g>
<!-- Node12&#45;&gt;Node13 -->
<g id="edge13_Node000012_Node000013" class="edge">
<title>Node12&#45;&gt;Node13</title>
<g id="a_edge13_Node000012_Node000013"><a xlink:title=" ">
<path fill="none" stroke="#63b8ff" d="M419.5,-55.08C419.5,-48.57 419.5,-39.42 419.5,-31.12"/>
<polygon fill="#63b8ff" stroke="#63b8ff" points="423,-31.12 419.5,-21.12 416,-31.12 423,-31.12"/>
</a>
</g>
</g>
<!-- Node14 -->
<g id="Node000014" class="node">
<title>Node14</title>
<g id="a_Node000014"><a xlink:title=" ">
<polygon fill="#e0e0e0" stroke="#999999" points="270.25,-19.25 222.75,-19.25 222.75,0 270.25,0 270.25,-19.25"/>
<text text-anchor="middle" x="246.5" y="-5.75" font-family="Helvetica,sans-Serif" font-size="10.00">stdint.h</text>
</a>
</g>
</g>
<!-- Node12&#45;&gt;Node14 -->
<g id="edge14_Node000012_Node000014" class="edge">
<title>Node12&#45;&gt;Node14</title>
<g id="a_edge14_Node000012_Node000014"><a xlink:title=" ">
<path fill="none" stroke="#63b8ff" d="M390.15,-54.84C360.06,-45.58 313.25,-31.17 281.31,-21.34"/>
<polygon fill="#63b8ff" stroke="#63b8ff" points="282.71,-18.11 272.13,-18.51 280.65,-24.8 282.71,-18.11"/>
</a>
</g>
</g>
<!-- Node15&#45;&gt;Node12 -->
<g id="edge16_Node000015_Node000012" class="edge">
<title>Node15&#45;&gt;Node12</title>
<g id="a_edge16_Node000015_Node000012"><a xlink:title=" ">
<path fill="none" stroke="#63b8ff" d="M486.76,-110.09C474.77,-102.21 457.13,-90.61 442.92,-81.27"/>
<polygon fill="#63b8ff" stroke="#63b8ff" points="444.85,-78.35 434.57,-75.78 441.01,-84.2 444.85,-78.35"/>
</a>
</g>
</g>
<!-- Node17 -->
<g id="Node000017" class="node">
<title>Node17</title>
<g id="a_Node000017"><a xlink:href="_counter___8h.html" target="_top" xlink:title=" ">
<polygon fill="white" stroke="#666666" points="705.38,-74.5 589.62,-74.5 589.62,-55.25 705.38,-55.25 705.38,-74.5"/>
<text text-anchor="middle" x="647.5" y="-61" font-family="Helvetica,sans-Serif" font-size="10.00">Cpl/System/Counter_.h</text>
</a>
</g>
</g>
<!-- Node16&#45;&gt;Node17 -->
<g id="edge18_Node000016_Node000017" class="edge">
<title>Node16&#45;&gt;Node17</title>
<g id="a_edge18_Node000016_Node000017"><a xlink:title=" ">
<path fill="none" stroke="#63b8ff" d="M383.8,-110.03C438.6,-100.86 523.27,-86.68 581.81,-76.88"/>
<polygon fill="#63b8ff" stroke="#63b8ff" points="582.38,-80.33 591.66,-75.23 581.22,-73.43 582.38,-80.33"/>
</a>
</g>
</g>
<!-- Node16&#45;&gt;Node18 -->
<g id="edge20_Node000016_Node000018" class="edge">
<title>Node16&#45;&gt;Node18</title>
<g id="a_edge20_Node000016_Node000018"><a xlink:title=" ">
<path fill="none" stroke="#63b8ff" d="M322.56,-110.33C316.88,-103.13 308.66,-92.71 301.61,-83.76"/>
<polygon fill="#63b8ff" stroke="#63b8ff" points="304.46,-81.73 295.52,-76.05 298.97,-86.07 304.46,-81.73"/>
</a>
</g>
</g>
<!-- Node17&#45;&gt;Node11 -->
<g id="edge19_Node000017_Node000011" class="edge">
<title>Node17&#45;&gt;Node11</title>
<g id="a_edge19_Node000017_Node000011"><a xlink:title=" ">
<path fill="none" stroke="#63b8ff" d="M698.05,-54.78C748.92,-45.63 827.44,-31.5 881.92,-21.7"/>
<polygon fill="#63b8ff" stroke="#63b8ff" points="882.45,-25.16 891.67,-19.95 881.21,-18.27 882.45,-25.16"/>
</a>
</g>
</g>
<!-- Node19&#45;&gt;Node7 -->
<g id="edge23_Node000019_Node000007" class="edge">
<title>Node19&#45;&gt;Node7</title>
<g id="a_edge23_Node000019_Node000007"><a xlink:title=" ">
<path fill="none" stroke="#63b8ff" d="M930.52,-165.34C914.15,-157.12 889.71,-144.84 870.74,-135.31"/>
<polygon fill="#63b8ff" stroke="#63b8ff" points="872.43,-132.24 861.92,-130.88 869.29,-138.5 872.43,-132.24"/>
</a>
</g>
</g>
<!-- Node19&#45;&gt;Node9 -->
<g id="edge22_Node000019_Node000009" class="edge">
<title>Node19&#45;&gt;Node9</title>
<g id="a_edge22_Node000019_Node000009"><a xlink:title=" ">
<path fill="none" stroke="#63b8ff" d="M945.23,-165.34C939.9,-151.75 928.13,-126.01 910.5,-110.5 894.03,-96.01 872.14,-85.64 852.77,-78.56"/>
<polygon fill="#63b8ff" stroke="#63b8ff" points="854.05,-75.3 843.45,-75.36 851.77,-81.92 854.05,-75.3"/>
</a>
</g>
</g>
<!-- Node19&#45;&gt;Node10 -->
<g id="edge24_Node000019_Node000010" class="edge">
<title>Node19&#45;&gt;Node10</title>
<g id="a_edge24_Node000019_Node000010"><a xlink:title=" ">
<path fill="none" stroke="#63b8ff" d="M948.09,-165.5C947.3,-148.25 945.53,-109.83 944.43,-86.06"/>
<polygon fill="#63b8ff" stroke="#63b8ff" points="947.94,-86.22 943.98,-76.39 940.95,-86.54 947.94,-86.22"/>
</a>
</g>
</g>
<!-- Node20 -->
<g id="Node000020" class="node">
<title>Node20</title>
<g id="a_Node000020"><a xlink:href="_traverser_8h.html" target="_top" xlink:title=" ">
<polygon fill="white" stroke="#666666" points="1101.5,-129.75 995.5,-129.75 995.5,-110.5 1101.5,-110.5 1101.5,-129.75"/>
<text text-anchor="middle" x="1048.5" y="-116.25" font-family="Helvetica,sans-Serif" font-size="10.00">Cpl/Type/Traverser.h</text>
</a>
</g>
</g>
<!-- Node19&#45;&gt;Node20 -->
<g id="edge25_Node000019_Node000020" class="edge">
<title>Node19&#45;&gt;Node20</title>
<g id="a_edge25_Node000019_Node000020"><a xlink:title=" ">
<path fill="none" stroke="#63b8ff" d="M965.46,-165.34C980.76,-157.19 1003.53,-145.07 1021.36,-135.58"/>
<polygon fill="#63b8ff" stroke="#63b8ff" points="1022.94,-138.7 1030.12,-130.91 1019.65,-132.52 1022.94,-138.7"/>
</a>
</g>
</g>
<!-- Node21 -->
<g id="Node000021" class="node">
<title>Node21</title>
<g id="a_Node000021"><a xlink:title=" ">
<polygon fill="#e0e0e0" stroke="#999999" points="1165.88,-129.75 1119.12,-129.75 1119.12,-110.5 1165.88,-110.5 1165.88,-129.75"/>
<text text-anchor="middle" x="1142.5" y="-116.25" font-family="Helvetica,sans-Serif" font-size="10.00">stdlib.h</text>
</a>
</g>
</g>
<!-- Node19&#45;&gt;Node21 -->
<g id="edge26_Node000019_Node000021" class="edge">
<title>Node19&#45;&gt;Node21</title>
<g id="a_edge26_Node000019_Node000021"><a xlink:title=" ">
<path fill="none" stroke="#63b8ff" d="M981.41,-165.34C1016.53,-155.7 1071.93,-140.5 1107.74,-130.67"/>
<polygon fill="#63b8ff" stroke="#63b8ff" points="1108.45,-134.1 1117.17,-128.08 1106.6,-127.35 1108.45,-134.1"/>
</a>
</g>
</g>
<!-- Node22&#45;&gt;Node11 -->
<g id="edge29_Node000022_Node000011" class="edge">
<title>Node22&#45;&gt;Node11</title>
<g id="a_edge29_Node000022_Node000011"><a xlink:title=" ">
<path fill="none" stroke="#63b8ff" d="M215.69,-56.13C218.66,-55.81 221.62,-55.52 224.5,-55.25 466.01,-32.68 754.26,-18.7 879.81,-13.24"/>
<polygon fill="#63b8ff" stroke="#63b8ff" points="879.74,-16.75 889.58,-12.82 879.43,-9.76 879.74,-16.75"/>
</a>
</g>
</g>
<!-- Node22&#45;&gt;Node14 -->
<g id="edge30_Node000022_Node000014" class="edge">
<title>Node22&#45;&gt;Node14</title>
<g id="a_edge30_Node000022_Node000014"><a xlink:title=" ">
<path fill="none" stroke="#63b8ff" d="M170.94,-54.84C184.66,-46.81 205,-34.91 221.12,-25.48"/>
<polygon fill="#63b8ff" stroke="#63b8ff" points="222.82,-28.54 229.68,-20.47 219.28,-22.5 222.82,-28.54"/>
</a>
</g>
</g>
<!-- Node23&#45;&gt;Node22 -->
<g id="edge32_Node000023_Node000022" class="edge">
<title>Node23&#45;&gt;Node22</title>
<g id="a_edge32_Node000023_Node000022"><a xlink:title=" ">
<path fill="none" stroke="#63b8ff" d="M71.03,-165.5C86.19,-147.61 120.65,-106.97 140.56,-83.5"/>
<polygon fill="#63b8ff" stroke="#63b8ff" points="143.09,-85.92 146.89,-76.03 137.75,-81.39 143.09,-85.92"/>
</a>
</g>
</g>
<!-- Node24&#45;&gt;Node10 -->
<g id="edge39_Node000024_Node000010" class="edge">
<title>Node24&#45;&gt;Node10</title>
<g id="a_edge39_Node000024_Node000010"><a xlink:title=" ">
<path fill="none" stroke="#63b8ff" d="M1233.95,-165.27C1223.24,-151.12 1200.53,-124.05 1174.5,-110.5 1124.02,-84.22 1060.06,-73.33 1012.25,-68.86"/>
<polygon fill="#63b8ff" stroke="#63b8ff" points="1012.85,-65.4 1002.59,-68.03 1012.25,-72.37 1012.85,-65.4"/>
</a>
</g>
</g>
<!-- Node25 -->
<g id="Node000025" class="node">
<title>Node25</title>
<g id="a_Node000025"><a xlink:href="_post_api_8h.html" target="_top" xlink:title=" ">
<polygon fill="white" stroke="#666666" points="1311.25,-129.75 1221.75,-129.75 1221.75,-110.5 1311.25,-110.5 1311.25,-129.75"/>
<text text-anchor="middle" x="1266.5" y="-116.25" font-family="Helvetica,sans-Serif" font-size="10.00">Cpl/Itc/PostApi.h</text>
</a>
</g>
</g>
<!-- Node24&#45;&gt;Node25 -->
<g id="edge34_Node000024_Node000025" class="edge">
<title>Node24&#45;&gt;Node25</title>
<g id="a_edge34_Node000024_Node000025"><a xlink:title=" ">
<path fill="none" stroke="#63b8ff" d="M1244.79,-165.58C1248.12,-158.76 1252.86,-149.06 1257.06,-140.45"/>
<polygon fill="#63b8ff" stroke="#63b8ff" points="1260.21,-141.99 1261.45,-131.47 1253.92,-138.92 1260.21,-141.99"/>
</a>
</g>
</g>
<!-- Node27 -->
<g id="Node000027" class="node">
<title>Node27</title>
<g id="a_Node000027"><a xlink:href="_s_list_8h.html" target="_top" xlink:title=" ">
<polygon fill="white" stroke="#666666" points="1354.62,-74.5 1246.38,-74.5 1246.38,-55.25 1354.62,-55.25 1354.62,-74.5"/>
<text text-anchor="middle" x="1300.5" y="-61" font-family="Helvetica,sans-Serif" font-size="10.00">Cpl/Container/SList.h</text>
</a>
</g>
</g>
<!-- Node24&#45;&gt;Node27 -->
<g id="edge37_Node000024_Node000027" class="edge">
<title>Node24&#45;&gt;Node27</title>
<g id="a_edge37_Node000024_Node000027"><a xlink:title=" ">
<path fill="none" stroke="#63b8ff" d="M1272.36,-165.39C1289.88,-158.63 1310.11,-147.44 1320.5,-129.75 1328.86,-115.52 1321.79,-97.42 1313.83,-84.12"/>
<polygon fill="#63b8ff" stroke="#63b8ff" points="1316.83,-82.31 1308.38,-75.91 1311,-86.18 1316.83,-82.31"/>
</a>
</g>
</g>
<!-- Node26 -->
<g id="Node000026" class="node">
<title>Node26</title>
<g id="a_Node000026"><a xlink:href="_message_8h.html" target="_top" xlink:title=" ">
<polygon fill="white" stroke="#666666" points="1189.88,-74.5 1095.12,-74.5 1095.12,-55.25 1189.88,-55.25 1189.88,-74.5"/>
<text text-anchor="middle" x="1142.5" y="-61" font-family="Helvetica,sans-Serif" font-size="10.00">Cpl/Itc/Message.h</text>
</a>
</g>
</g>
<!-- Node25&#45;&gt;Node26 -->
<g id="edge35_Node000025_Node000026" class="edge">
<title>Node25&#45;&gt;Node26</title>
<g id="a_edge35_Node000025_Node000026"><a xlink:title=" ">
<path fill="none" stroke="#63b8ff" d="M1245.47,-110.09C1225.87,-101.68 1196.39,-89.02 1173.99,-79.4"/>
<polygon fill="#63b8ff" stroke="#63b8ff" points="1175.6,-76.28 1165.03,-75.55 1172.84,-82.71 1175.6,-76.28"/>
</a>
</g>
</g>
<!-- Node26&#45;&gt;Node11 -->
<g id="edge36_Node000026_Node000011" class="edge">
<title>Node26&#45;&gt;Node11</title>
<g id="a_edge36_Node000026_Node000011"><a xlink:title=" ">
<path fill="none" stroke="#63b8ff" d="M1108.74,-54.84C1075.58,-45.97 1024.78,-32.37 988.26,-22.6"/>
<polygon fill="#63b8ff" stroke="#63b8ff" points="989.45,-19.3 978.89,-20.09 987.64,-26.06 989.45,-19.3"/>
</a>
</g>
</g>
<!-- Node27&#45;&gt;Node11 -->
<g id="edge38_Node000027_Node000011" class="edge">
<title>Node27&#45;&gt;Node11</title>
<g id="a_edge38_Node000027_Node000011"><a xlink:title=" ">
<path fill="none" stroke="#63b8ff" d="M1245.89,-55.73C1181.59,-46.14 1074.98,-30.24 1007.04,-20.1"/>
<polygon fill="#63b8ff" stroke="#63b8ff" points="1007.97,-16.7 997.56,-18.69 1006.94,-23.63 1007.97,-16.7"/>
</a>
</g>
</g>
<!-- Node28&#45;&gt;Node4 -->
<g id="edge43_Node000028_Node000004" class="edge">
<title>Node28&#45;&gt;Node4</title>
<g id="a_edge43_Node000028_Node000004"><a xlink:title=" ">
<path fill="none" stroke="#63b8ff" d="M1061.55,-331.09C1047.24,-322.98 1025.97,-310.93 1009.25,-301.46"/>
<polygon fill="#63b8ff" stroke="#63b8ff" points="1011.27,-298.58 1000.84,-296.7 1007.82,-304.67 1011.27,-298.58"/>
</a>
</g>
</g>
<!-- Node28&#45;&gt;Node29 -->
<g id="edge41_Node000028_Node000029" class="edge">
<title>Node28&#45;&gt;Node29</title>
<g id="a_edge41_Node000028_Node000029"><a xlink:title=" ">
<path fill="none" stroke="#63b8ff" d="M1088.53,-331.09C1097.92,-323.4 1111.65,-312.15 1122.91,-302.93"/>
<polygon fill="#63b8ff" stroke="#63b8ff" points="1124.95,-305.78 1130.47,-296.73 1120.51,-300.36 1124.95,-305.78"/>
</a>
</g>
</g>
<!-- Node29&#45;&gt;Node21 -->
<g id="edge42_Node000029_Node000021" class="edge">
<title>Node29&#45;&gt;Node21</title>
<g id="a_edge42_Node000029_Node000021"><a xlink:title=" ">
<path fill="none" stroke="#63b8ff" d="M1142.5,-276.07C1142.5,-250.75 1142.5,-177.25 1142.5,-141.34"/>
<polygon fill="#63b8ff" stroke="#63b8ff" points="1146,-141.49 1142.5,-131.49 1139,-141.49 1146,-141.49"/>
</a>
</g>
</g>
</g>
</svg>
