<?xml version="1.0" encoding="UTF-8" standalone="no"?>
<!DOCTYPE svg PUBLIC "-//W3C//DTD SVG 1.1//EN"
 "http://www.w3.org/Graphics/SVG/1.1/DTD/svg11.dtd">
<!-- Generated by graphviz version 9.0.0 (20230911.1827)
 -->
<!-- Title: Bsp/Initech/alpha1/MX/Core/Inc/usart.h Pages: 1 -->
<svg width="114pt" height="149pt"
 viewBox="0.00 0.00 114.00 149.00" xmlns="http://www.w3.org/2000/svg" xmlns:xlink="http://www.w3.org/1999/xlink">
<g id="graph0" class="graph" transform="scale(1 1) rotate(0) translate(4 145)">
<title>Bsp/Initech/alpha1/MX/Core/Inc/usart.h</title>
<!-- Node1 -->
<g id="Node000001" class="node">
<title>Node1</title>
<g id="a_Node000001"><a xlink:title="This file contains all the function prototypes for the usart.c file.">
<polygon fill="#999999" stroke="#666666" points="106,-141 0,-141 0,-110.5 106,-110.5 106,-141"/>
<text text-anchor="start" x="8" y="-127.5" font-family="Helvetica,sans-Serif" font-size="10.00">Bsp/Initech/alpha1</text>
<text text-anchor="middle" x="53" y="-116.25" font-family="Helvetica,sans-Serif" font-size="10.00">/MX/Core/Inc/usart.h</text>
</a>
</g>
</g>
<!-- Node2 -->
<g id="Node000002" class="node">
<title>Node2</title>
<g id="a_Node000002"><a xlink:href="_initech_2alpha1_2_m_x_2_core_2_inc_2main_8h.html" target="_top" xlink:title=": Header for main.c file.">
<polygon fill="white" stroke="#666666" points="75.25,-74.5 30.75,-74.5 30.75,-55.25 75.25,-55.25 75.25,-74.5"/>
<text text-anchor="middle" x="53" y="-61" font-family="Helvetica,sans-Serif" font-size="10.00">main.h</text>
</a>
</g>
</g>
<!-- Node1&#45;&gt;Node2 -->
<g id="edge1_Node000001_Node000002" class="edge">
<title>Node1&#45;&gt;Node2</title>
<g id="a_edge1_Node000001_Node000002"><a xlink:title=" ">
<path fill="none" stroke="#63b8ff" d="M53,-110.2C53,-102.96 53,-94.09 53,-86.19"/>
<polygon fill="#63b8ff" stroke="#63b8ff" points="56.5,-86.46 53,-76.46 49.5,-86.46 56.5,-86.46"/>
</a>
</g>
</g>
<!-- Node3 -->
<g id="Node000003" class="node">
<title>Node3</title>
<g id="a_Node000003"><a xlink:title=" ">
<polygon fill="#e0e0e0" stroke="#999999" points="95.88,-19.25 10.12,-19.25 10.12,0 95.88,0 95.88,-19.25"/>
<text text-anchor="middle" x="53" y="-5.75" font-family="Helvetica,sans-Serif" font-size="10.00">stm32f4xx_hal.h</text>
</a>
</g>
</g>
<!-- Node2&#45;&gt;Node3 -->
<g id="edge2_Node000002_Node000003" class="edge">
<title>Node2&#45;&gt;Node3</title>
<g id="a_edge2_Node000002_Node000003"><a xlink:title=" ">
<path fill="none" stroke="#63b8ff" d="M53,-55.08C53,-48.57 53,-39.42 53,-31.12"/>
<polygon fill="#63b8ff" stroke="#63b8ff" points="56.5,-31.12 53,-21.12 49.5,-31.12 56.5,-31.12"/>
</a>
</g>
</g>
</g>
</svg>
