<?xml version="1.0" encoding="UTF-8" standalone="no"?>
<!DOCTYPE svg PUBLIC "-//W3C//DTD SVG 1.1//EN"
 "http://www.w3.org/Graphics/SVG/1.1/DTD/svg11.dtd">
<!-- Generated by graphviz version 9.0.0 (20230911.1827)
 -->
<!-- Title: Bsp/Initech/alpha1/MX/Core/Inc/main.h Pages: 1 -->
<svg width="830pt" height="172pt"
 viewBox="0.00 0.00 830.21 171.50" xmlns="http://www.w3.org/2000/svg" xmlns:xlink="http://www.w3.org/1999/xlink">
<g id="graph0" class="graph" transform="scale(1 1) rotate(0) translate(4 167.5)">
<title>Bsp/Initech/alpha1/MX/Core/Inc/main.h</title>
<!-- Node1 -->
<g id="Node000001" class="node">
<title>Node1</title>
<g id="a_Node000001"><a xlink:title=": Header for main.c file.">
<polygon fill="#999999" stroke="#666666" points="412.33,-163.5 307.08,-163.5 307.08,-133 412.33,-133 412.33,-163.5"/>
<text text-anchor="start" x="315.08" y="-150" font-family="Helvetica,sans-Serif" font-size="10.00">Bsp/Initech/alpha1</text>
<text text-anchor="middle" x="359.71" y="-138.75" font-family="Helvetica,sans-Serif" font-size="10.00">/MX/Core/Inc/main.h</text>
</a>
</g>
</g>
<!-- Node2 -->
<g id="Node000002" class="node">
<title>Node2</title>
<g id="a_Node000002"><a xlink:href="_bsp_2_initech_2alpha1_2_api_8h.html" target="_top" xlink:title="This BSP is developed/build with a &#39;just&#45;in&#45;time&#39; approach.">
<polygon fill="white" stroke="#666666" points="467.21,-30.5 370.21,-30.5 370.21,0 467.21,0 467.21,-30.5"/>
<text text-anchor="start" x="378.21" y="-17" font-family="Helvetica,sans-Serif" font-size="10.00">Bsp/Initech/alpha1</text>
<text text-anchor="middle" x="418.71" y="-5.75" font-family="Helvetica,sans-Serif" font-size="10.00">/Api.h</text>
</a>
</g>
</g>
<!-- Node1&#45;&gt;Node2 -->
<g id="edge1_Node000001_Node000002" class="edge">
<title>Node1&#45;&gt;Node2</title>
<g id="a_edge1_Node000001_Node000002"><a xlink:title=" ">
<path fill="none" stroke="#63b8ff" d="M295.31,-147.73C203.84,-146.87 43.33,-139.2 6.71,-97 -2.18,-86.76 -2.28,-76.65 6.71,-66.5 30.47,-39.66 266.25,-24.18 370.06,-18.62"/>
<polygon fill="#63b8ff" stroke="#63b8ff" points="295.11,-151.23 305.13,-147.79 295.16,-144.23 295.11,-151.23"/>
</a>
</g>
</g>
<!-- Node3 -->
<g id="Node000003" class="node">
<title>Node3</title>
<g id="a_Node000003"><a xlink:href="_initech_2alpha1_2_m_x_2_core_2_inc_2adc_8h.html" target="_top" xlink:title="This file contains all the function prototypes for the adc.c file.">
<polygon fill="white" stroke="#666666" points="115.71,-97 15.71,-97 15.71,-66.5 115.71,-66.5 115.71,-97"/>
<text text-anchor="start" x="23.71" y="-83.5" font-family="Helvetica,sans-Serif" font-size="10.00">Bsp/Initech/alpha1</text>
<text text-anchor="middle" x="65.71" y="-72.25" font-family="Helvetica,sans-Serif" font-size="10.00">/MX/Core/Inc/adc.h</text>
</a>
</g>
</g>
<!-- Node1&#45;&gt;Node3 -->
<g id="edge2_Node000001_Node000003" class="edge">
<title>Node1&#45;&gt;Node3</title>
<g id="a_edge2_Node000001_Node000003"><a xlink:title=" ">
<path fill="none" stroke="#63b8ff" d="M295.88,-134.08C248.56,-124.19 182.52,-110.16 124.71,-97 121.83,-96.35 118.88,-95.66 115.9,-94.97"/>
<polygon fill="#63b8ff" stroke="#63b8ff" points="294.9,-137.45 305.41,-136.06 296.33,-130.59 294.9,-137.45"/>
</a>
</g>
</g>
<!-- Node4 -->
<g id="Node000004" class="node">
<title>Node4</title>
<g id="a_Node000004"><a xlink:href="_initech_2alpha1_2_m_x_2_core_2_inc_2gpio_8h.html" target="_top" xlink:title="This file contains all the function prototypes for the gpio.c file.">
<polygon fill="white" stroke="#666666" points="235.83,-97 133.58,-97 133.58,-66.5 235.83,-66.5 235.83,-97"/>
<text text-anchor="start" x="141.58" y="-83.5" font-family="Helvetica,sans-Serif" font-size="10.00">Bsp/Initech/alpha1</text>
<text text-anchor="middle" x="184.71" y="-72.25" font-family="Helvetica,sans-Serif" font-size="10.00">/MX/Core/Inc/gpio.h</text>
</a>
</g>
</g>
<!-- Node1&#45;&gt;Node4 -->
<g id="edge4_Node000001_Node000004" class="edge">
<title>Node1&#45;&gt;Node4</title>
<g id="a_edge4_Node000001_Node000004"><a xlink:title=" ">
<path fill="none" stroke="#63b8ff" d="M309.23,-128.65C282.32,-118.73 249.68,-106.7 224.56,-97.44"/>
<polygon fill="#63b8ff" stroke="#63b8ff" points="307.98,-131.92 318.58,-132.09 310.4,-125.35 307.98,-131.92"/>
</a>
</g>
</g>
<!-- Node5 -->
<g id="Node000005" class="node">
<title>Node5</title>
<g id="a_Node000005"><a xlink:href="_initech_2alpha1_2_m_x_2_core_2_inc_2i2c_8h.html" target="_top" xlink:title="This file contains all the function prototypes for the i2c.c file.">
<polygon fill="white" stroke="#666666" points="351.21,-97 254.21,-97 254.21,-66.5 351.21,-66.5 351.21,-97"/>
<text text-anchor="start" x="262.21" y="-83.5" font-family="Helvetica,sans-Serif" font-size="10.00">Bsp/Initech/alpha1</text>
<text text-anchor="middle" x="302.71" y="-72.25" font-family="Helvetica,sans-Serif" font-size="10.00">/MX/Core/Inc/i2c.h</text>
</a>
</g>
</g>
<!-- Node1&#45;&gt;Node5 -->
<g id="edge5_Node000001_Node000005" class="edge">
<title>Node1&#45;&gt;Node5</title>
<g id="a_edge5_Node000001_Node000005"><a xlink:title=" ">
<path fill="none" stroke="#63b8ff" d="M339.28,-124.13C331.38,-115.19 322.58,-105.24 315.59,-97.33"/>
<polygon fill="#63b8ff" stroke="#63b8ff" points="336.53,-126.3 345.77,-131.48 341.77,-121.67 336.53,-126.3"/>
</a>
</g>
</g>
<!-- Node6 -->
<g id="Node000006" class="node">
<title>Node6</title>
<g id="a_Node000006"><a xlink:href="rng_8h.html" target="_top" xlink:title="This file contains all the function prototypes for the rng.c file.">
<polygon fill="white" stroke="#666666" points="466.58,-97 368.83,-97 368.83,-66.5 466.58,-66.5 466.58,-97"/>
<text text-anchor="start" x="376.83" y="-83.5" font-family="Helvetica,sans-Serif" font-size="10.00">Bsp/Initech/alpha1</text>
<text text-anchor="middle" x="417.71" y="-72.25" font-family="Helvetica,sans-Serif" font-size="10.00">/MX/Core/Inc/rng.h</text>
</a>
</g>
</g>
<!-- Node1&#45;&gt;Node6 -->
<g id="edge7_Node000001_Node000006" class="edge">
<title>Node1&#45;&gt;Node6</title>
<g id="a_edge7_Node000001_Node000006"><a xlink:title=" ">
<path fill="none" stroke="#63b8ff" d="M380.5,-124.13C388.53,-115.19 397.49,-105.24 404.6,-97.33"/>
<polygon fill="#63b8ff" stroke="#63b8ff" points="377.96,-121.71 373.88,-131.49 383.17,-126.39 377.96,-121.71"/>
</a>
</g>
</g>
<!-- Node7 -->
<g id="Node000007" class="node">
<title>Node7</title>
<g id="a_Node000007"><a xlink:href="spi_8h.html" target="_top" xlink:title="This file contains all the function prototypes for the spi.c file.">
<polygon fill="white" stroke="#666666" points="822.21,-97 725.21,-97 725.21,-66.5 822.21,-66.5 822.21,-97"/>
<text text-anchor="start" x="733.21" y="-83.5" font-family="Helvetica,sans-Serif" font-size="10.00">Bsp/Initech/alpha1</text>
<text text-anchor="middle" x="773.71" y="-72.25" font-family="Helvetica,sans-Serif" font-size="10.00">/MX/Core/Inc/spi.h</text>
</a>
</g>
</g>
<!-- Node1&#45;&gt;Node7 -->
<g id="edge8_Node000001_Node000007" class="edge">
<title>Node1&#45;&gt;Node7</title>
<g id="a_edge8_Node000001_Node000007"><a xlink:title=" ">
<path fill="none" stroke="#63b8ff" d="M423.82,-140.17C495.35,-131.82 614.34,-116.56 715.71,-97 718.66,-96.43 721.69,-95.81 724.74,-95.15"/>
<polygon fill="#63b8ff" stroke="#63b8ff" points="423.79,-136.65 414.26,-141.28 424.6,-143.6 423.79,-136.65"/>
</a>
</g>
</g>
<!-- Node9 -->
<g id="Node000009" class="node">
<title>Node9</title>
<g id="a_Node000009"><a xlink:href="_initech_2alpha1_2_m_x_2_core_2_inc_2tim_8h.html" target="_top" xlink:title="This file contains all the function prototypes for the tim.c file.">
<polygon fill="white" stroke="#666666" points="582.58,-97 484.83,-97 484.83,-66.5 582.58,-66.5 582.58,-97"/>
<text text-anchor="start" x="492.83" y="-83.5" font-family="Helvetica,sans-Serif" font-size="10.00">Bsp/Initech/alpha1</text>
<text text-anchor="middle" x="533.71" y="-72.25" font-family="Helvetica,sans-Serif" font-size="10.00">/MX/Core/Inc/tim.h</text>
</a>
</g>
</g>
<!-- Node1&#45;&gt;Node9 -->
<g id="edge11_Node000001_Node000009" class="edge">
<title>Node1&#45;&gt;Node9</title>
<g id="a_edge11_Node000001_Node000009"><a xlink:title=" ">
<path fill="none" stroke="#63b8ff" d="M409.89,-128.65C436.65,-118.73 469.11,-106.7 494.08,-97.44"/>
<polygon fill="#63b8ff" stroke="#63b8ff" points="408.77,-125.33 400.61,-132.09 411.2,-131.89 408.77,-125.33"/>
</a>
</g>
</g>
<!-- Node10 -->
<g id="Node000010" class="node">
<title>Node10</title>
<g id="a_Node000010"><a xlink:href="_initech_2alpha1_2_m_x_2_core_2_inc_2usart_8h.html" target="_top" xlink:title="This file contains all the function prototypes for the usart.c file.">
<polygon fill="white" stroke="#666666" points="706.71,-97 600.71,-97 600.71,-66.5 706.71,-66.5 706.71,-97"/>
<text text-anchor="start" x="608.71" y="-83.5" font-family="Helvetica,sans-Serif" font-size="10.00">Bsp/Initech/alpha1</text>
<text text-anchor="middle" x="653.71" y="-72.25" font-family="Helvetica,sans-Serif" font-size="10.00">/MX/Core/Inc/usart.h</text>
</a>
</g>
</g>
<!-- Node1&#45;&gt;Node10 -->
<g id="edge13_Node000001_Node000010" class="edge">
<title>Node1&#45;&gt;Node10</title>
<g id="a_edge13_Node000001_Node000010"><a xlink:title=" ">
<path fill="none" stroke="#63b8ff" d="M423.88,-133.58C470.48,-123.59 535.04,-109.65 591.71,-97 594.51,-96.37 597.38,-95.73 600.28,-95.07"/>
<polygon fill="#63b8ff" stroke="#63b8ff" points="423.26,-130.13 414.21,-135.65 424.72,-136.98 423.26,-130.13"/>
</a>
</g>
</g>
<!-- Node3&#45;&gt;Node2 -->
<g id="edge3_Node000003_Node000002" class="edge">
<title>Node3&#45;&gt;Node2</title>
<g id="a_edge3_Node000003_Node000002"><a xlink:title=" ">
<path fill="none" stroke="#63b8ff" d="M127.27,-66.05C218.36,-47.56 313.67,-32.2 369.88,-23.56"/>
<polygon fill="#63b8ff" stroke="#63b8ff" points="126.76,-62.58 117.67,-68.02 128.17,-69.44 126.76,-62.58"/>
</a>
</g>
</g>
<!-- Node5&#45;&gt;Node2 -->
<g id="edge6_Node000005_Node000002" class="edge">
<title>Node5&#45;&gt;Node2</title>
<g id="a_edge6_Node000005_Node000002"><a xlink:title=" ">
<path fill="none" stroke="#63b8ff" d="M338.84,-60.66C356.21,-51 376.64,-39.64 392.49,-30.83"/>
<polygon fill="#63b8ff" stroke="#63b8ff" points="337.39,-57.46 330.35,-65.38 340.79,-63.58 337.39,-57.46"/>
</a>
</g>
</g>
<!-- Node7&#45;&gt;Node2 -->
<g id="edge9_Node000007_Node000002" class="edge">
<title>Node7&#45;&gt;Node2</title>
<g id="a_edge9_Node000007_Node000002"><a xlink:title=" ">
<path fill="none" stroke="#63b8ff" d="M713.45,-66.13C620.86,-47.24 524.24,-31.93 467.53,-23.39"/>
<polygon fill="#63b8ff" stroke="#63b8ff" points="712.73,-69.55 723.24,-68.14 714.15,-62.7 712.73,-69.55"/>
</a>
</g>
</g>
<!-- Node8 -->
<g id="Node000008" class="node">
<title>Node8</title>
<g id="a_Node000008"><a xlink:href="_s_p_i_2_arduino_2_master_8h.html" target="_top" xlink:title=" ">
<polygon fill="white" stroke="#666666" points="822.21,-30.5 725.21,-30.5 725.21,0 822.21,0 822.21,-30.5"/>
<text text-anchor="start" x="733.21" y="-17" font-family="Helvetica,sans-Serif" font-size="10.00">Driver/SPI/Arduino</text>
<text text-anchor="middle" x="773.71" y="-5.75" font-family="Helvetica,sans-Serif" font-size="10.00">/Master.h</text>
</a>
</g>
</g>
<!-- Node7&#45;&gt;Node8 -->
<g id="edge10_Node000007_Node000008" class="edge">
<title>Node7&#45;&gt;Node8</title>
<g id="a_edge10_Node000007_Node000008"><a xlink:title=" ">
<path fill="none" stroke="#63b8ff" d="M773.71,-54.81C773.71,-46.64 773.71,-37.91 773.71,-30.83"/>
<polygon fill="#63b8ff" stroke="#63b8ff" points="770.21,-54.6 773.71,-64.6 777.21,-54.6 770.21,-54.6"/>
</a>
</g>
</g>
<!-- Node9&#45;&gt;Node2 -->
<g id="edge12_Node000009_Node000002" class="edge">
<title>Node9&#45;&gt;Node2</title>
<g id="a_edge12_Node000009_Node000002"><a xlink:title=" ">
<path fill="none" stroke="#63b8ff" d="M497.88,-60.66C480.67,-51 460.41,-39.64 444.7,-30.83"/>
<polygon fill="#63b8ff" stroke="#63b8ff" points="495.86,-63.53 506.29,-65.37 499.28,-57.43 495.86,-63.53"/>
</a>
</g>
</g>
<!-- Node10&#45;&gt;Node2 -->
<g id="edge14_Node000010_Node000002" class="edge">
<title>Node10&#45;&gt;Node2</title>
<g id="a_edge14_Node000010_Node000002"><a xlink:title=" ">
<path fill="none" stroke="#63b8ff" d="M589.29,-63.07C550.81,-52.51 502.72,-39.31 467.42,-29.62"/>
<polygon fill="#63b8ff" stroke="#63b8ff" points="588.35,-66.44 598.92,-65.71 590.21,-59.69 588.35,-66.44"/>
</a>
</g>
</g>
</g>
</svg>
