<?xml version="1.0" encoding="UTF-8" standalone="no"?>
<!DOCTYPE svg PUBLIC "-//W3C//DTD SVG 1.1//EN"
 "http://www.w3.org/Graphics/SVG/1.1/DTD/svg11.dtd">
<!-- Generated by graphviz version 9.0.0 (20230911.1827)
 -->
<!-- Title: Cpl/Io/File/InputApi.h Pages: 1 -->
<svg width="291pt" height="138pt"
 viewBox="0.00 0.00 291.25 137.75" xmlns="http://www.w3.org/2000/svg" xmlns:xlink="http://www.w3.org/1999/xlink">
<g id="graph0" class="graph" transform="scale(1 1) rotate(0) translate(4 133.75)">
<title>Cpl/Io/File/InputApi.h</title>
<!-- Node1 -->
<g id="Node000001" class="node">
<title>Node1</title>
<g id="a_Node000001"><a xlink:title=" ">
<polygon fill="#999999" stroke="#666666" points="165.62,-129.75 58.88,-129.75 58.88,-110.5 165.62,-110.5 165.62,-129.75"/>
<text text-anchor="middle" x="112.25" y="-116.25" font-family="Helvetica,sans-Serif" font-size="10.00">Cpl/Io/File/InputApi.h</text>
</a>
</g>
</g>
<!-- Node2 -->
<g id="Node000002" class="node">
<title>Node2</title>
<g id="a_Node000002"><a xlink:href="_file_2_input_8h.html" target="_top" xlink:title=" ">
<polygon fill="white" stroke="#666666" points="92.5,-74.5 0,-74.5 0,-55.25 92.5,-55.25 92.5,-74.5"/>
<text text-anchor="middle" x="46.25" y="-61" font-family="Helvetica,sans-Serif" font-size="10.00">Cpl/Io/File/Input.h</text>
</a>
</g>
</g>
<!-- Node1&#45;&gt;Node2 -->
<g id="edge1_Node000001_Node000002" class="edge">
<title>Node1&#45;&gt;Node2</title>
<g id="a_edge1_Node000001_Node000002"><a xlink:title=" ">
<path fill="none" stroke="#63b8ff" d="M92.16,-102.91C80.7,-93.67 66.77,-82.43 57.28,-74.77"/>
<polygon fill="#63b8ff" stroke="#63b8ff" points="89.9,-105.59 99.88,-109.14 94.29,-100.14 89.9,-105.59"/>
</a>
</g>
</g>
<!-- Node3 -->
<g id="Node000003" class="node">
<title>Node3</title>
<g id="a_Node000003"><a xlink:href="_input_output_api_8h.html" target="_top" xlink:title=" ">
<polygon fill="white" stroke="#666666" points="246.25,-74.5 110.25,-74.5 110.25,-55.25 246.25,-55.25 246.25,-74.5"/>
<text text-anchor="middle" x="178.25" y="-61" font-family="Helvetica,sans-Serif" font-size="10.00">Cpl/Io/File/InputOutputApi.h</text>
</a>
</g>
</g>
<!-- Node1&#45;&gt;Node3 -->
<g id="edge2_Node000001_Node000003" class="edge">
<title>Node1&#45;&gt;Node3</title>
<g id="a_edge2_Node000001_Node000003"><a xlink:title=" ">
<path fill="none" stroke="#63b8ff" d="M132.34,-102.91C143.8,-93.67 157.73,-82.43 167.22,-74.77"/>
<polygon fill="#63b8ff" stroke="#63b8ff" points="130.21,-100.14 124.62,-109.14 134.6,-105.59 130.21,-100.14"/>
</a>
</g>
</g>
<!-- Node4 -->
<g id="Node000004" class="node">
<title>Node4</title>
<g id="a_Node000004"><a xlink:href="_file_2_input_output_8h.html" target="_top" xlink:title=" ">
<polygon fill="white" stroke="#666666" points="177.12,-19.25 55.37,-19.25 55.37,0 177.12,0 177.12,-19.25"/>
<text text-anchor="middle" x="116.25" y="-5.75" font-family="Helvetica,sans-Serif" font-size="10.00">Cpl/Io/File/InputOutput.h</text>
</a>
</g>
</g>
<!-- Node3&#45;&gt;Node4 -->
<g id="edge3_Node000003_Node000004" class="edge">
<title>Node3&#45;&gt;Node4</title>
<g id="a_edge3_Node000003_Node000004"><a xlink:title=" ">
<path fill="none" stroke="#63b8ff" d="M159.05,-47.39C148.35,-38.19 135.44,-27.1 126.61,-19.52"/>
<polygon fill="#63b8ff" stroke="#63b8ff" points="156.72,-50 166.58,-53.86 161.28,-44.69 156.72,-50"/>
</a>
</g>
</g>
<!-- Node5 -->
<g id="Node000005" class="node">
<title>Node5</title>
<g id="a_Node000005"><a xlink:href="_cpl_2_io_2_file_2_null_8h.html" target="_top" xlink:title=" ">
<polygon fill="white" stroke="#666666" points="283.25,-19.25 195.25,-19.25 195.25,0 283.25,0 283.25,-19.25"/>
<text text-anchor="middle" x="239.25" y="-5.75" font-family="Helvetica,sans-Serif" font-size="10.00">Cpl/Io/File/Null.h</text>
</a>
</g>
</g>
<!-- Node3&#45;&gt;Node5 -->
<g id="edge4_Node000003_Node000005" class="edge">
<title>Node3&#45;&gt;Node5</title>
<g id="a_edge4_Node000003_Node000005"><a xlink:title=" ">
<path fill="none" stroke="#63b8ff" d="M197.14,-47.39C207.67,-38.19 220.37,-27.1 229.06,-19.52"/>
<polygon fill="#63b8ff" stroke="#63b8ff" points="194.97,-44.63 189.74,-53.85 199.57,-49.91 194.97,-44.63"/>
</a>
</g>
</g>
</g>
</svg>
