<?xml version="1.0" encoding="UTF-8" standalone="no"?>
<!DOCTYPE svg PUBLIC "-//W3C//DTD SVG 1.1//EN"
 "http://www.w3.org/Graphics/SVG/1.1/DTD/svg11.dtd">
<!-- Generated by graphviz version 9.0.0 (20230911.1827)
 -->
<!-- Title: Cpl/Io/Input.h Pages: 1 -->
<svg width="2614pt" height="337pt"
 viewBox="0.00 0.00 2614.00 337.25" xmlns="http://www.w3.org/2000/svg" xmlns:xlink="http://www.w3.org/1999/xlink">
<g id="graph0" class="graph" transform="scale(1 1) rotate(0) translate(4 333.25)">
<title>Cpl/Io/Input.h</title>
<!-- Node1 -->
<g id="Node000001" class="node">
<title>Node1</title>
<g id="a_Node000001"><a xlink:title=" ">
<polygon fill="#999999" stroke="#666666" points="1856.12,-329.25 1782.38,-329.25 1782.38,-310 1856.12,-310 1856.12,-329.25"/>
<text text-anchor="middle" x="1819.25" y="-315.75" font-family="Helvetica,sans-Serif" font-size="10.00">Cpl/Io/Input.h</text>
</a>
</g>
</g>
<!-- Node2 -->
<g id="Node000002" class="node">
<title>Node2</title>
<g id="a_Node000002"><a xlink:href="appmain_8h.html" target="_top" xlink:title="This file defines the hardware/platform independent start&#45;up interface(s) for the Ajax application.">
<polygon fill="white" stroke="#666666" points="144.25,-274 38.25,-274 38.25,-254.75 144.25,-254.75 144.25,-274"/>
<text text-anchor="middle" x="91.25" y="-260.5" font-family="Helvetica,sans-Serif" font-size="10.00">Ajax/Main/appmain.h</text>
</a>
</g>
</g>
<!-- Node1&#45;&gt;Node2 -->
<g id="edge1_Node000001_Node000002" class="edge">
<title>Node1&#45;&gt;Node2</title>
<g id="a_edge1_Node000001_Node000002"><a xlink:title=" ">
<path fill="none" stroke="#63b8ff" d="M1770.76,-318.06C1532,-315.15 479.71,-300.99 153.25,-274 150.43,-273.77 147.55,-273.49 144.64,-273.19"/>
<polygon fill="#63b8ff" stroke="#63b8ff" points="1770.59,-321.55 1780.64,-318.18 1770.68,-314.56 1770.59,-321.55"/>
</a>
</g>
</g>
<!-- Node3 -->
<g id="Node000003" class="node">
<title>Node3</title>
<g id="a_Node000003"><a xlink:href="_input_api_8h.html" target="_top" xlink:title=" ">
<polygon fill="white" stroke="#666666" points="268.62,-274 161.88,-274 161.88,-254.75 268.62,-254.75 268.62,-274"/>
<text text-anchor="middle" x="215.25" y="-260.5" font-family="Helvetica,sans-Serif" font-size="10.00">Cpl/Io/File/InputApi.h</text>
</a>
</g>
</g>
<!-- Node1&#45;&gt;Node3 -->
<g id="edge2_Node000001_Node000003" class="edge">
<title>Node1&#45;&gt;Node3</title>
<g id="a_edge2_Node000001_Node000003"><a xlink:title=" ">
<path fill="none" stroke="#63b8ff" d="M1770.62,-317.73C1585.7,-314.2 908.58,-300.14 351.25,-274 324.07,-272.73 293.87,-270.86 268.84,-269.18"/>
<polygon fill="#63b8ff" stroke="#63b8ff" points="1770.5,-321.23 1780.57,-317.92 1770.64,-314.23 1770.5,-321.23"/>
</a>
</g>
</g>
<!-- Node8 -->
<g id="Node000008" class="node">
<title>Node8</title>
<g id="a_Node000008"><a xlink:href="_input_output_8h.html" target="_top" xlink:title=" ">
<polygon fill="white" stroke="#666666" points="1098.75,-274 995.75,-274 995.75,-254.75 1098.75,-254.75 1098.75,-274"/>
<text text-anchor="middle" x="1047.25" y="-260.5" font-family="Helvetica,sans-Serif" font-size="10.00">Cpl/Io/InputOutput.h</text>
</a>
</g>
</g>
<!-- Node1&#45;&gt;Node8 -->
<g id="edge7_Node000001_Node000008" class="edge">
<title>Node1&#45;&gt;Node8</title>
<g id="a_edge7_Node000001_Node000008"><a xlink:title=" ">
<path fill="none" stroke="#63b8ff" d="M1770.63,-315.27C1632.91,-305.77 1240.94,-278.74 1099.2,-268.96"/>
<polygon fill="#63b8ff" stroke="#63b8ff" points="1770.29,-318.76 1780.5,-315.95 1770.77,-311.77 1770.29,-318.76"/>
</a>
</g>
</g>
<!-- Node29 -->
<g id="Node000029" class="node">
<title>Node29</title>
<g id="a_Node000029"><a xlink:href="_line_reader_8h.html" target="_top" xlink:title=" ">
<polygon fill="white" stroke="#666666" points="2606,-274 2504.5,-274 2504.5,-254.75 2606,-254.75 2606,-274"/>
<text text-anchor="middle" x="2555.25" y="-260.5" font-family="Helvetica,sans-Serif" font-size="10.00">Cpl/Io/LineReader.h</text>
</a>
</g>
</g>
<!-- Node1&#45;&gt;Node29 -->
<g id="edge31_Node000001_Node000029" class="edge">
<title>Node1&#45;&gt;Node29</title>
<g id="a_edge31_Node000001_Node000029"><a xlink:title=" ">
<path fill="none" stroke="#63b8ff" d="M1867.83,-316.49C1978.48,-311.38 2257.66,-297.14 2490.25,-274 2494.78,-273.55 2499.48,-273.03 2504.19,-272.47"/>
<polygon fill="#63b8ff" stroke="#63b8ff" points="1867.76,-312.99 1857.93,-316.94 1868.08,-319.98 1867.76,-312.99"/>
</a>
</g>
</g>
<!-- Node30 -->
<g id="Node000030" class="node">
<title>Node30</title>
<g id="a_Node000030"><a xlink:href="_input___8h.html" target="_top" xlink:title=" ">
<polygon fill="white" stroke="#666666" points="464.5,-274 360,-274 360,-254.75 464.5,-254.75 464.5,-274"/>
<text text-anchor="middle" x="412.25" y="-260.5" font-family="Helvetica,sans-Serif" font-size="10.00">Cpl/Io/Stdio/Input_.h</text>
</a>
</g>
</g>
<!-- Node1&#45;&gt;Node30 -->
<g id="edge32_Node000001_Node000030" class="edge">
<title>Node1&#45;&gt;Node30</title>
<g id="a_edge32_Node000001_Node000030"><a xlink:title=" ">
<path fill="none" stroke="#63b8ff" d="M1770.78,-316.79C1555.7,-308.65 688.46,-275.83 464.99,-267.37"/>
<polygon fill="#63b8ff" stroke="#63b8ff" points="1770.34,-320.28 1780.47,-317.16 1770.61,-313.28 1770.34,-320.28"/>
</a>
</g>
</g>
<!-- Node32 -->
<g id="Node000032" class="node">
<title>Node32</title>
<g id="a_Node000032"><a xlink:href="_processor_api_8h.html" target="_top" xlink:title=" ">
<polygon fill="white" stroke="#666666" points="1884.25,-274 1754.25,-274 1754.25,-254.75 1884.25,-254.75 1884.25,-274"/>
<text text-anchor="middle" x="1819.25" y="-260.5" font-family="Helvetica,sans-Serif" font-size="10.00">Cpl/TShell/ProcessorApi.h</text>
</a>
</g>
</g>
<!-- Node1&#45;&gt;Node32 -->
<g id="edge36_Node000001_Node000032" class="edge">
<title>Node1&#45;&gt;Node32</title>
<g id="a_edge36_Node000001_Node000032"><a xlink:title=" ">
<path fill="none" stroke="#63b8ff" d="M1819.25,-298.38C1819.25,-290.09 1819.25,-280.92 1819.25,-274.36"/>
<polygon fill="#63b8ff" stroke="#63b8ff" points="1815.75,-298.32 1819.25,-308.32 1822.75,-298.32 1815.75,-298.32"/>
</a>
</g>
</g>
<!-- Node68 -->
<g id="Node000068" class="node">
<title>Node68</title>
<g id="a_Node000068"><a xlink:href="_stream_decoder_8h.html" target="_top" xlink:title=" ">
<polygon fill="white" stroke="#666666" points="2230.62,-274 2069.88,-274 2069.88,-254.75 2230.62,-254.75 2230.62,-274"/>
<text text-anchor="middle" x="2150.25" y="-260.5" font-family="Helvetica,sans-Serif" font-size="10.00">Cpl/Text/Frame/StreamDecoder.h</text>
</a>
</g>
</g>
<!-- Node1&#45;&gt;Node68 -->
<g id="edge50_Node000001_Node000068" class="edge">
<title>Node1&#45;&gt;Node68</title>
<g id="a_edge50_Node000001_Node000068"><a xlink:title=" ">
<path fill="none" stroke="#63b8ff" d="M1867.65,-310.84C1927.75,-301.17 2030.11,-284.7 2093.75,-274.47"/>
<polygon fill="#63b8ff" stroke="#63b8ff" points="1867.39,-307.34 1858.07,-312.38 1868.5,-314.25 1867.39,-307.34"/>
</a>
</g>
</g>
<!-- Node71 -->
<g id="Node000071" class="node">
<title>Node71</title>
<g id="a_Node000071"><a xlink:href="_pipe_8h.html" target="_top" xlink:title=" ">
<polygon fill="white" stroke="#666666" points="2448.25,-213.12 2348.25,-213.12 2348.25,-193.88 2448.25,-193.88 2448.25,-213.12"/>
<text text-anchor="middle" x="2398.25" y="-199.62" font-family="Helvetica,sans-Serif" font-size="10.00">Driver/TPipe/Pipe.h</text>
</a>
</g>
</g>
<!-- Node1&#45;&gt;Node71 -->
<g id="edge60_Node000001_Node000071" class="edge">
<title>Node1&#45;&gt;Node71</title>
<g id="a_edge60_Node000001_Node000071"><a xlink:title=" ">
<path fill="none" stroke="#63b8ff" d="M1867.5,-318.26C1946.51,-316.61 2107.85,-308.81 2239.25,-274 2294,-259.5 2354.08,-228.81 2382.14,-213.54"/>
<polygon fill="#63b8ff" stroke="#63b8ff" points="1867.9,-314.75 1857.97,-318.43 1868.03,-321.75 1867.9,-314.75"/>
</a>
</g>
</g>
<!-- Node72 -->
<g id="Node000072" class="node">
<title>Node72</title>
<g id="a_Node000072"><a xlink:href="_driver_2_pico_display_2_t_pipe_2_api_8h.html" target="_top" xlink:title="This file defines the interface for initializing the concrete implementation of the PicoDisplay drive...">
<polygon fill="white" stroke="#666666" points="2576,-152.25 2480.5,-152.25 2480.5,-121.75 2576,-121.75 2576,-152.25"/>
<text text-anchor="start" x="2488.5" y="-138.75" font-family="Helvetica,sans-Serif" font-size="10.00">Driver/PicoDisplay</text>
<text text-anchor="middle" x="2528.25" y="-127.5" font-family="Helvetica,sans-Serif" font-size="10.00">/TPipe/Api.h</text>
</a>
</g>
</g>
<!-- Node1&#45;&gt;Node72 -->
<g id="edge59_Node000001_Node000072" class="edge">
<title>Node1&#45;&gt;Node72</title>
<g id="a_edge59_Node000001_Node000072"><a xlink:title=" ">
<path fill="none" stroke="#63b8ff" d="M1867.66,-317.21C1952.17,-314.03 2131.77,-304.03 2280.25,-274 2361.03,-257.67 2388.14,-263.64 2457.25,-218.75 2484.18,-201.26 2506.97,-170.82 2519.03,-152.73"/>
<polygon fill="#63b8ff" stroke="#63b8ff" points="1867.76,-313.71 1857.89,-317.57 1868.01,-320.7 1867.76,-313.71"/>
</a>
</g>
</g>
<!-- Node4 -->
<g id="Node000004" class="node">
<title>Node4</title>
<g id="a_Node000004"><a xlink:href="_file_2_input_8h.html" target="_top" xlink:title=" ">
<polygon fill="white" stroke="#666666" points="92.5,-213.12 0,-213.12 0,-193.88 92.5,-193.88 92.5,-213.12"/>
<text text-anchor="middle" x="46.25" y="-199.62" font-family="Helvetica,sans-Serif" font-size="10.00">Cpl/Io/File/Input.h</text>
</a>
</g>
</g>
<!-- Node3&#45;&gt;Node4 -->
<g id="edge3_Node000003_Node000004" class="edge">
<title>Node3&#45;&gt;Node4</title>
<g id="a_edge3_Node000003_Node000004"><a xlink:title=" ">
<path fill="none" stroke="#63b8ff" d="M178.5,-250.57C146.44,-239.4 100.74,-223.48 72.32,-213.58"/>
<polygon fill="#63b8ff" stroke="#63b8ff" points="177.19,-253.82 187.78,-253.81 179.49,-247.21 177.19,-253.82"/>
</a>
</g>
</g>
<!-- Node5 -->
<g id="Node000005" class="node">
<title>Node5</title>
<g id="a_Node000005"><a xlink:href="_input_output_api_8h.html" target="_top" xlink:title=" ">
<polygon fill="white" stroke="#666666" points="246.25,-213.12 110.25,-213.12 110.25,-193.88 246.25,-193.88 246.25,-213.12"/>
<text text-anchor="middle" x="178.25" y="-199.62" font-family="Helvetica,sans-Serif" font-size="10.00">Cpl/Io/File/InputOutputApi.h</text>
</a>
</g>
</g>
<!-- Node3&#45;&gt;Node5 -->
<g id="edge4_Node000003_Node000005" class="edge">
<title>Node3&#45;&gt;Node5</title>
<g id="a_edge4_Node000003_Node000005"><a xlink:title=" ">
<path fill="none" stroke="#63b8ff" d="M203.66,-244.93C197.09,-234.48 189.16,-221.85 183.92,-213.53"/>
<polygon fill="#63b8ff" stroke="#63b8ff" points="200.54,-246.55 208.83,-253.15 206.47,-242.82 200.54,-246.55"/>
</a>
</g>
</g>
<!-- Node6 -->
<g id="Node000006" class="node">
<title>Node6</title>
<g id="a_Node000006"><a xlink:href="_file_2_input_output_8h.html" target="_top" xlink:title=" ">
<polygon fill="white" stroke="#666666" points="436.12,-146.62 314.38,-146.62 314.38,-127.38 436.12,-127.38 436.12,-146.62"/>
<text text-anchor="middle" x="375.25" y="-133.12" font-family="Helvetica,sans-Serif" font-size="10.00">Cpl/Io/File/InputOutput.h</text>
</a>
</g>
</g>
<!-- Node5&#45;&gt;Node6 -->
<g id="edge5_Node000005_Node000006" class="edge">
<title>Node5&#45;&gt;Node6</title>
<g id="a_edge5_Node000005_Node000006"><a xlink:title=" ">
<path fill="none" stroke="#63b8ff" d="M216.84,-189.87C255.32,-177.27 313.48,-158.22 347.58,-147.06"/>
<polygon fill="#63b8ff" stroke="#63b8ff" points="215.91,-186.49 207.5,-192.92 218.09,-193.14 215.91,-186.49"/>
</a>
</g>
</g>
<!-- Node7 -->
<g id="Node000007" class="node">
<title>Node7</title>
<g id="a_Node000007"><a xlink:href="_cpl_2_io_2_file_2_null_8h.html" target="_top" xlink:title=" ">
<polygon fill="white" stroke="#666666" points="222.25,-146.62 134.25,-146.62 134.25,-127.38 222.25,-127.38 222.25,-146.62"/>
<text text-anchor="middle" x="178.25" y="-133.12" font-family="Helvetica,sans-Serif" font-size="10.00">Cpl/Io/File/Null.h</text>
</a>
</g>
</g>
<!-- Node5&#45;&gt;Node7 -->
<g id="edge6_Node000005_Node000007" class="edge">
<title>Node5&#45;&gt;Node7</title>
<g id="a_edge6_Node000005_Node000007"><a xlink:title=" ">
<path fill="none" stroke="#63b8ff" d="M178.25,-182.02C178.25,-170.19 178.25,-155.91 178.25,-146.89"/>
<polygon fill="#63b8ff" stroke="#63b8ff" points="174.75,-182.02 178.25,-192.02 181.75,-182.02 174.75,-182.02"/>
</a>
</g>
</g>
<!-- Node8&#45;&gt;Node5 -->
<g id="edge8_Node000008_Node000005" class="edge">
<title>Node8&#45;&gt;Node5</title>
<g id="a_edge8_Node000008_Node000005"><a xlink:title=" ">
<path fill="none" stroke="#63b8ff" d="M984.37,-262.53C850.04,-260.15 525.29,-251.21 255.25,-218.75 244.45,-217.45 232.88,-215.57 222.08,-213.6"/>
<polygon fill="#63b8ff" stroke="#63b8ff" points="984.05,-266.03 994.11,-262.7 984.17,-259.03 984.05,-266.03"/>
</a>
</g>
</g>
<!-- Node9 -->
<g id="Node000009" class="node">
<title>Node9</title>
<g id="a_Node000009"><a xlink:href="_cpl_2_io_2_null_8h.html" target="_top" xlink:title=" ">
<polygon fill="white" stroke="#666666" points="757.88,-213.12 688.62,-213.12 688.62,-193.88 757.88,-193.88 757.88,-213.12"/>
<text text-anchor="middle" x="723.25" y="-199.62" font-family="Helvetica,sans-Serif" font-size="10.00">Cpl/Io/Null.h</text>
</a>
</g>
</g>
<!-- Node8&#45;&gt;Node9 -->
<g id="edge9_Node000008_Node000009" class="edge">
<title>Node8&#45;&gt;Node9</title>
<g id="a_edge9_Node000008_Node000009"><a xlink:title=" ">
<path fill="none" stroke="#63b8ff" d="M984.05,-256.15C926.94,-248.95 840.8,-236.41 767.25,-218.75 761.32,-217.33 755.03,-215.49 749.12,-213.62"/>
<polygon fill="#63b8ff" stroke="#63b8ff" points="983.57,-259.62 993.93,-257.37 984.43,-252.67 983.57,-259.62"/>
</a>
</g>
</g>
<!-- Node10 -->
<g id="Node000010" class="node">
<title>Node10</title>
<g id="a_Node000010"><a xlink:href="_ram_2_input_output_8h.html" target="_top" xlink:title=" ">
<polygon fill="white" stroke="#666666" points="902.38,-213.12 776.12,-213.12 776.12,-193.88 902.38,-193.88 902.38,-213.12"/>
<text text-anchor="middle" x="839.25" y="-199.62" font-family="Helvetica,sans-Serif" font-size="10.00">Cpl/Io/Ram/InputOutput.h</text>
</a>
</g>
</g>
<!-- Node8&#45;&gt;Node10 -->
<g id="edge10_Node000008_Node000010" class="edge">
<title>Node8&#45;&gt;Node10</title>
<g id="a_edge10_Node000008_Node000010"><a xlink:title=" ">
<path fill="none" stroke="#63b8ff" d="M1004.32,-251.22C964.78,-240.03 907,-223.68 871.33,-213.58"/>
<polygon fill="#63b8ff" stroke="#63b8ff" points="1003.17,-254.54 1013.75,-253.89 1005.08,-247.8 1003.17,-254.54"/>
</a>
</g>
</g>
<!-- Node11 -->
<g id="Node000011" class="node">
<title>Node11</title>
<g id="a_Node000011"><a xlink:href="_serial_2_adafruit_2_nrf5_2_b_l_e_2_input_output_8h.html" target="_top" xlink:title=" ">
<polygon fill="white" stroke="#666666" points="1041.75,-218.75 920.75,-218.75 920.75,-188.25 1041.75,-188.25 1041.75,-218.75"/>
<text text-anchor="start" x="928.75" y="-205.25" font-family="Helvetica,sans-Serif" font-size="10.00">Cpl/Io/Serial/Adafruit</text>
<text text-anchor="middle" x="981.25" y="-194" font-family="Helvetica,sans-Serif" font-size="10.00">/Nrf5/BLE/InputOutput.h</text>
</a>
</g>
</g>
<!-- Node8&#45;&gt;Node11 -->
<g id="edge11_Node000008_Node000011" class="edge">
<title>Node8&#45;&gt;Node11</title>
<g id="a_edge11_Node000008_Node000011"><a xlink:title=" ">
<path fill="none" stroke="#63b8ff" d="M1028.63,-246.77C1018.85,-238.04 1006.96,-227.43 997.54,-219.03"/>
<polygon fill="#63b8ff" stroke="#63b8ff" points="1026.3,-249.38 1036.1,-253.43 1030.96,-244.16 1026.3,-249.38"/>
</a>
</g>
</g>
<!-- Node12 -->
<g id="Node000012" class="node">
<title>Node12</title>
<g id="a_Node000012"><a xlink:href="_serial_2_adafruit_2_nrf5_2_input_output_8h.html" target="_top" xlink:title=" ">
<polygon fill="white" stroke="#666666" points="1166.25,-218.75 1060.25,-218.75 1060.25,-188.25 1166.25,-188.25 1166.25,-218.75"/>
<text text-anchor="start" x="1068.25" y="-205.25" font-family="Helvetica,sans-Serif" font-size="10.00">Cpl/Io/Serial/Adafruit</text>
<text text-anchor="middle" x="1113.25" y="-194" font-family="Helvetica,sans-Serif" font-size="10.00">/Nrf5/InputOutput.h</text>
</a>
</g>
</g>
<!-- Node8&#45;&gt;Node12 -->
<g id="edge12_Node000008_Node000012" class="edge">
<title>Node8&#45;&gt;Node12</title>
<g id="a_edge12_Node000008_Node000012"><a xlink:title=" ">
<path fill="none" stroke="#63b8ff" d="M1065.87,-246.77C1075.65,-238.04 1087.54,-227.43 1096.96,-219.03"/>
<polygon fill="#63b8ff" stroke="#63b8ff" points="1063.54,-244.16 1058.4,-253.43 1068.2,-249.38 1063.54,-244.16"/>
</a>
</g>
</g>
<!-- Node13 -->
<g id="Node000013" class="node">
<title>Node13</title>
<g id="a_Node000013"><a xlink:href="_serial_2_arduino_2_input_output_8h.html" target="_top" xlink:title=" ">
<polygon fill="white" stroke="#666666" points="1289.88,-218.75 1184.62,-218.75 1184.62,-188.25 1289.88,-188.25 1289.88,-218.75"/>
<text text-anchor="start" x="1192.62" y="-205.25" font-family="Helvetica,sans-Serif" font-size="10.00">Cpl/Io/Serial/Arduino</text>
<text text-anchor="middle" x="1237.25" y="-194" font-family="Helvetica,sans-Serif" font-size="10.00">/InputOutput.h</text>
</a>
</g>
</g>
<!-- Node8&#45;&gt;Node13 -->
<g id="edge13_Node000008_Node000013" class="edge">
<title>Node8&#45;&gt;Node13</title>
<g id="a_edge13_Node000008_Node000013"><a xlink:title=" ">
<path fill="none" stroke="#63b8ff" d="M1087.41,-250.93C1117.33,-241.66 1158.29,-228.97 1189.83,-219.19"/>
<polygon fill="#63b8ff" stroke="#63b8ff" points="1086.48,-247.55 1077.97,-253.86 1088.55,-254.24 1086.48,-247.55"/>
</a>
</g>
</g>
<!-- Node14 -->
<g id="Node000014" class="node">
<title>Node14</title>
<g id="a_Node000014"><a xlink:href="_serial_2_phony_stdio_2_input_output_8h.html" target="_top" xlink:title=" ">
<polygon fill="white" stroke="#666666" points="1430.12,-218.75 1308.38,-218.75 1308.38,-188.25 1430.12,-188.25 1430.12,-218.75"/>
<text text-anchor="start" x="1316.38" y="-205.25" font-family="Helvetica,sans-Serif" font-size="10.00">Cpl/Io/Serial/PhonyStdio</text>
<text text-anchor="middle" x="1369.25" y="-194" font-family="Helvetica,sans-Serif" font-size="10.00">/InputOutput.h</text>
</a>
</g>
</g>
<!-- Node8&#45;&gt;Node14 -->
<g id="edge14_Node000008_Node000014" class="edge">
<title>Node8&#45;&gt;Node14</title>
<g id="a_edge14_Node000008_Node000014"><a xlink:title=" ">
<path fill="none" stroke="#63b8ff" d="M1110.14,-252.7C1161.17,-243.92 1234.93,-230.99 1299.25,-218.75 1302.17,-218.19 1305.17,-217.62 1308.18,-217.03"/>
<polygon fill="#63b8ff" stroke="#63b8ff" points="1109.72,-249.22 1100.45,-254.36 1110.9,-256.12 1109.72,-249.22"/>
</a>
</g>
</g>
<!-- Node15 -->
<g id="Node000015" class="node">
<title>Node15</title>
<g id="a_Node000015"><a xlink:href="_serial_2_s_t_2_m32_f4_2_input_output_8h.html" target="_top" xlink:title=" ">
<polygon fill="white" stroke="#666666" points="1744.25,-218.75 1626.25,-218.75 1626.25,-188.25 1744.25,-188.25 1744.25,-218.75"/>
<text text-anchor="start" x="1634.25" y="-205.25" font-family="Helvetica,sans-Serif" font-size="10.00">Cpl/Io/Serial/ST/M32F4</text>
<text text-anchor="middle" x="1685.25" y="-194" font-family="Helvetica,sans-Serif" font-size="10.00">/InputOutput.h</text>
</a>
</g>
</g>
<!-- Node8&#45;&gt;Node15 -->
<g id="edge15_Node000008_Node000015" class="edge">
<title>Node8&#45;&gt;Node15</title>
<g id="a_edge15_Node000008_Node000015"><a xlink:title=" ">
<path fill="none" stroke="#63b8ff" d="M1110.35,-261.08C1215.78,-256.66 1434.23,-244.98 1617.25,-218.75 1620.12,-218.34 1623.04,-217.88 1625.99,-217.39"/>
<polygon fill="#63b8ff" stroke="#63b8ff" points="1110.34,-257.58 1100.49,-261.49 1110.62,-264.58 1110.34,-257.58"/>
</a>
</g>
</g>
<!-- Node19 -->
<g id="Node000019" class="node">
<title>Node19</title>
<g id="a_Node000019"><a xlink:href="_socket_2_input_output_8h.html" target="_top" xlink:title=" ">
<polygon fill="white" stroke="#666666" points="670.62,-213.12 533.88,-213.12 533.88,-193.88 670.62,-193.88 670.62,-213.12"/>
<text text-anchor="middle" x="602.25" y="-199.62" font-family="Helvetica,sans-Serif" font-size="10.00">Cpl/Io/Socket/InputOutput.h</text>
</a>
</g>
</g>
<!-- Node8&#45;&gt;Node19 -->
<g id="edge19_Node000008_Node000019" class="edge">
<title>Node8&#45;&gt;Node19</title>
<g id="a_edge19_Node000008_Node000019"><a xlink:title=" ">
<path fill="none" stroke="#63b8ff" d="M983.97,-256.91C910.52,-249.13 785.83,-235.06 679.25,-218.75 669.31,-217.23 658.68,-215.4 648.59,-213.56"/>
<polygon fill="#63b8ff" stroke="#63b8ff" points="983.49,-260.38 993.8,-257.95 984.23,-253.42 983.49,-260.38"/>
</a>
</g>
</g>
<!-- Node23 -->
<g id="Node000023" class="node">
<title>Node23</title>
<g id="a_Node000023"><a xlink:href="_input_output___8h.html" target="_top" xlink:title=" ">
<polygon fill="white" stroke="#666666" points="516.12,-213.12 382.38,-213.12 382.38,-193.88 516.12,-193.88 516.12,-213.12"/>
<text text-anchor="middle" x="449.25" y="-199.62" font-family="Helvetica,sans-Serif" font-size="10.00">Cpl/Io/Stdio/InputOutput_.h</text>
</a>
</g>
</g>
<!-- Node8&#45;&gt;Node23 -->
<g id="edge24_Node000008_Node000023" class="edge">
<title>Node8&#45;&gt;Node23</title>
<g id="a_edge24_Node000008_Node000023"><a xlink:title=" ">
<path fill="none" stroke="#63b8ff" d="M984.36,-260.04C886.06,-254.36 690.18,-241.2 525.25,-218.75 515.01,-217.36 504.05,-215.51 493.74,-213.61"/>
<polygon fill="#63b8ff" stroke="#63b8ff" points="983.87,-263.51 994.06,-260.59 984.27,-256.53 983.87,-263.51"/>
</a>
</g>
</g>
<!-- Node24 -->
<g id="Node000024" class="node">
<title>Node24</title>
<g id="a_Node000024"><a xlink:href="_tcp_2_input_output_8h.html" target="_top" xlink:title=" ">
<polygon fill="white" stroke="#666666" points="1608.5,-213.12 1486,-213.12 1486,-193.88 1608.5,-193.88 1608.5,-213.12"/>
<text text-anchor="middle" x="1547.25" y="-199.62" font-family="Helvetica,sans-Serif" font-size="10.00">Cpl/Io/Tcp/InputOutput.h</text>
</a>
</g>
</g>
<!-- Node8&#45;&gt;Node24 -->
<g id="edge26_Node000008_Node000024" class="edge">
<title>Node8&#45;&gt;Node24</title>
<g id="a_edge26_Node000008_Node000024"><a xlink:title=" ">
<path fill="none" stroke="#63b8ff" d="M1109.96,-256.58C1187.39,-248.12 1323.1,-233.02 1439.25,-218.75 1454.27,-216.9 1470.45,-214.82 1485.59,-212.83"/>
<polygon fill="#63b8ff" stroke="#63b8ff" points="1110.03,-253.06 1100.47,-257.62 1110.79,-260.01 1110.03,-253.06"/>
</a>
</g>
</g>
<!-- Node16 -->
<g id="Node000016" class="node">
<title>Node16</title>
<g id="a_Node000016"><a xlink:href="_bsp_2_initech_2alpha1_2console_2_output_8h.html" target="_top" xlink:title=" ">
<polygon fill="white" stroke="#666666" points="1591.75,-152.25 1494.75,-152.25 1494.75,-121.75 1591.75,-121.75 1591.75,-152.25"/>
<text text-anchor="start" x="1502.75" y="-138.75" font-family="Helvetica,sans-Serif" font-size="10.00">Bsp/Initech/alpha1</text>
<text text-anchor="middle" x="1543.25" y="-127.5" font-family="Helvetica,sans-Serif" font-size="10.00">/console/Output.h</text>
</a>
</g>
</g>
<!-- Node15&#45;&gt;Node16 -->
<g id="edge16_Node000015_Node000016" class="edge">
<title>Node15&#45;&gt;Node16</title>
<g id="a_edge16_Node000015_Node000016"><a xlink:title=" ">
<path fill="none" stroke="#63b8ff" d="M1642.79,-183.22C1621.16,-173.39 1595.29,-161.64 1575.34,-152.58"/>
<polygon fill="#63b8ff" stroke="#63b8ff" points="1641.1,-186.29 1651.65,-187.24 1643.99,-179.92 1641.1,-186.29"/>
</a>
</g>
</g>
<!-- Node17 -->
<g id="Node000017" class="node">
<title>Node17</title>
<g id="a_Node000017"><a xlink:href="_bsp_2_s_t_2_n_u_c_l_e_o-_f413_z_h_2alpha1_2console_2_output_8h.html" target="_top" xlink:title=" ">
<polygon fill="white" stroke="#666666" points="1741,-152.25 1609.5,-152.25 1609.5,-121.75 1741,-121.75 1741,-152.25"/>
<text text-anchor="start" x="1617.5" y="-138.75" font-family="Helvetica,sans-Serif" font-size="10.00">Bsp/ST/NUCLEO&#45;F413ZH</text>
<text text-anchor="middle" x="1675.25" y="-127.5" font-family="Helvetica,sans-Serif" font-size="10.00">/alpha1/console/Output.h</text>
</a>
</g>
</g>
<!-- Node15&#45;&gt;Node17 -->
<g id="edge17_Node000015_Node000017" class="edge">
<title>Node15&#45;&gt;Node17</title>
<g id="a_edge17_Node000015_Node000017"><a xlink:title=" ">
<path fill="none" stroke="#63b8ff" d="M1681.23,-176.56C1679.96,-168.39 1678.61,-159.66 1677.51,-152.58"/>
<polygon fill="#63b8ff" stroke="#63b8ff" points="1677.76,-177.02 1682.75,-186.37 1684.68,-175.95 1677.76,-177.02"/>
</a>
</g>
</g>
<!-- Node18 -->
<g id="Node000018" class="node">
<title>Node18</title>
<g id="a_Node000018"><a xlink:href="_bsp_2_s_t_2_n_u_c_l_e_o-_f767_z_i_2alpha1_2console_2_output_8h.html" target="_top" xlink:title=" ">
<polygon fill="white" stroke="#666666" points="1476.75,-152.25 1349.75,-152.25 1349.75,-121.75 1476.75,-121.75 1476.75,-152.25"/>
<text text-anchor="start" x="1357.75" y="-138.75" font-family="Helvetica,sans-Serif" font-size="10.00">Bsp/ST/NUCLEO&#45;F767ZI</text>
<text text-anchor="middle" x="1413.25" y="-127.5" font-family="Helvetica,sans-Serif" font-size="10.00">/alpha1/console/Output.h</text>
</a>
</g>
</g>
<!-- Node15&#45;&gt;Node18 -->
<g id="edge18_Node000015_Node000018" class="edge">
<title>Node15&#45;&gt;Node18</title>
<g id="a_edge18_Node000015_Node000018"><a xlink:title=" ">
<path fill="none" stroke="#63b8ff" d="M1614.9,-185.82C1571.7,-175.57 1516.88,-162.58 1475.31,-152.72"/>
<polygon fill="#63b8ff" stroke="#63b8ff" points="1613.88,-189.17 1624.42,-188.08 1615.5,-182.36 1613.88,-189.17"/>
</a>
</g>
</g>
<!-- Node20 -->
<g id="Node000020" class="node">
<title>Node20</title>
<g id="a_Node000020"><a xlink:href="_factory_8h.html" target="_top" xlink:title=" ">
<polygon fill="white" stroke="#666666" points="654.25,-146.62 536.25,-146.62 536.25,-127.38 654.25,-127.38 654.25,-146.62"/>
<text text-anchor="middle" x="595.25" y="-133.12" font-family="Helvetica,sans-Serif" font-size="10.00">Cpl/Io/Socket/Factory.h</text>
</a>
</g>
</g>
<!-- Node19&#45;&gt;Node20 -->
<g id="edge20_Node000019_Node000020" class="edge">
<title>Node19&#45;&gt;Node20</title>
<g id="a_edge20_Node000019_Node000020"><a xlink:title=" ">
<path fill="none" stroke="#63b8ff" d="M600.07,-182.4C598.78,-170.5 597.2,-156.01 596.22,-146.89"/>
<polygon fill="#63b8ff" stroke="#63b8ff" points="596.55,-182.46 601.11,-192.03 603.51,-181.71 596.55,-182.46"/>
</a>
</g>
</g>
<!-- Node21 -->
<g id="Node000021" class="node">
<title>Node21</title>
<g id="a_Node000021"><a xlink:href="_stream_pool_8h.html" target="_top" xlink:title=" ">
<polygon fill="white" stroke="#666666" points="707.62,-80.12 570.88,-80.12 570.88,-60.88 707.62,-60.88 707.62,-80.12"/>
<text text-anchor="middle" x="639.25" y="-66.62" font-family="Helvetica,sans-Serif" font-size="10.00">Cpl/Io/Socket/StreamPool.h</text>
</a>
</g>
</g>
<!-- Node19&#45;&gt;Node21 -->
<g id="edge22_Node000019_Node000021" class="edge">
<title>Node19&#45;&gt;Node21</title>
<g id="a_edge22_Node000019_Node000021"><a xlink:title=" ">
<path fill="none" stroke="#63b8ff" d="M629.93,-187.45C642.58,-178.94 656.27,-167.04 663.25,-152.25 674.98,-127.38 656.54,-95.49 645.91,-80.3"/>
<polygon fill="#63b8ff" stroke="#63b8ff" points="628.08,-184.48 621.44,-192.73 631.78,-190.42 628.08,-184.48"/>
</a>
</g>
</g>
<!-- Node22 -->
<g id="Node000022" class="node">
<title>Node22</title>
<g id="a_Node000022"><a xlink:href="_socket_8h.html" target="_top" xlink:title=" ">
<polygon fill="white" stroke="#666666" points="909.38,-146.62 807.12,-146.62 807.12,-127.38 909.38,-127.38 909.38,-146.62"/>
<text text-anchor="middle" x="858.25" y="-133.12" font-family="Helvetica,sans-Serif" font-size="10.00">Cpl/TShell/Socket.h</text>
</a>
</g>
</g>
<!-- Node19&#45;&gt;Node22 -->
<g id="edge23_Node000019_Node000022" class="edge">
<title>Node19&#45;&gt;Node22</title>
<g id="a_edge23_Node000019_Node000022"><a xlink:title=" ">
<path fill="none" stroke="#63b8ff" d="M649.52,-190.59C699.47,-178.01 777.12,-158.44 822.3,-147.06"/>
<polygon fill="#63b8ff" stroke="#63b8ff" points="648.7,-187.19 639.85,-193.03 650.41,-193.98 648.7,-187.19"/>
</a>
</g>
</g>
<!-- Node20&#45;&gt;Node21 -->
<g id="edge21_Node000020_Node000021" class="edge">
<title>Node20&#45;&gt;Node21</title>
<g id="a_edge21_Node000020_Node000021"><a xlink:title=" ">
<path fill="none" stroke="#63b8ff" d="M607.7,-117.75C616.03,-105.54 626.64,-89.99 633.18,-80.39"/>
<polygon fill="#63b8ff" stroke="#63b8ff" points="604.97,-115.55 602.22,-125.78 610.75,-119.49 604.97,-115.55"/>
</a>
</g>
</g>
<!-- Node23&#45;&gt;Node6 -->
<g id="edge25_Node000023_Node000006" class="edge">
<title>Node23&#45;&gt;Node6</title>
<g id="a_edge25_Node000023_Node000006"><a xlink:title=" ">
<path fill="none" stroke="#63b8ff" d="M430.39,-186.06C416.1,-173.61 397.01,-156.97 385.45,-146.89"/>
<polygon fill="#63b8ff" stroke="#63b8ff" points="427.98,-188.6 437.82,-192.54 432.58,-183.33 427.98,-188.6"/>
</a>
</g>
</g>
<!-- Node25 -->
<g id="Node000025" class="node">
<title>Node25</title>
<g id="a_Node000025"><a xlink:href="_async_connector_8h.html" target="_top" xlink:title=" ">
<polygon fill="white" stroke="#666666" points="1331.62,-146.62 1188.88,-146.62 1188.88,-127.38 1331.62,-127.38 1331.62,-146.62"/>
<text text-anchor="middle" x="1260.25" y="-133.12" font-family="Helvetica,sans-Serif" font-size="10.00">Cpl/Io/Tcp/AsyncConnector.h</text>
</a>
</g>
</g>
<!-- Node24&#45;&gt;Node25 -->
<g id="edge27_Node000024_Node000025" class="edge">
<title>Node24&#45;&gt;Node25</title>
<g id="a_edge27_Node000024_Node000025"><a xlink:title=" ">
<path fill="none" stroke="#63b8ff" d="M1495.66,-190.91C1439.73,-178.34 1351.63,-158.54 1300.56,-147.06"/>
<polygon fill="#63b8ff" stroke="#63b8ff" points="1494.74,-194.29 1505.26,-193.06 1496.27,-187.46 1494.74,-194.29"/>
</a>
</g>
</g>
<!-- Node27 -->
<g id="Node000027" class="node">
<title>Node27</title>
<g id="a_Node000027"><a xlink:href="_async_listener_8h.html" target="_top" xlink:title=" ">
<polygon fill="white" stroke="#666666" points="1156.12,-146.62 1022.38,-146.62 1022.38,-127.38 1156.12,-127.38 1156.12,-146.62"/>
<text text-anchor="middle" x="1089.25" y="-133.12" font-family="Helvetica,sans-Serif" font-size="10.00">Cpl/Io/Tcp/AsyncListener.h</text>
</a>
</g>
</g>
<!-- Node24&#45;&gt;Node27 -->
<g id="edge29_Node000024_Node000027" class="edge">
<title>Node24&#45;&gt;Node27</title>
<g id="a_edge29_Node000024_Node000027"><a xlink:title=" ">
<path fill="none" stroke="#63b8ff" d="M1490.91,-191.39C1484.62,-190.27 1478.31,-189.2 1472.25,-188.25 1343.06,-168.04 1309.75,-170.37 1180.25,-152.25 1169.01,-150.68 1157,-148.88 1145.52,-147.11"/>
<polygon fill="#63b8ff" stroke="#63b8ff" points="1490.17,-194.81 1500.63,-193.16 1491.42,-187.92 1490.17,-194.81"/>
</a>
</g>
</g>
<!-- Node26 -->
<g id="Node000026" class="node">
<title>Node26</title>
<g id="a_Node000026"><a xlink:href="_win32_2_async_connector_8h.html" target="_top" xlink:title=" ">
<polygon fill="white" stroke="#666666" points="1354.62,-80.12 1181.88,-80.12 1181.88,-60.88 1354.62,-60.88 1354.62,-80.12"/>
<text text-anchor="middle" x="1268.25" y="-66.62" font-family="Helvetica,sans-Serif" font-size="10.00">Cpl/Io/Tcp/Win32/AsyncConnector.h</text>
</a>
</g>
</g>
<!-- Node25&#45;&gt;Node26 -->
<g id="edge28_Node000025_Node000026" class="edge">
<title>Node25&#45;&gt;Node26</title>
<g id="a_edge28_Node000025_Node000026"><a xlink:title=" ">
<path fill="none" stroke="#63b8ff" d="M1262.74,-115.9C1264.22,-104 1266.02,-89.51 1267.15,-80.39"/>
<polygon fill="#63b8ff" stroke="#63b8ff" points="1259.31,-115.17 1261.55,-125.53 1266.25,-116.04 1259.31,-115.17"/>
</a>
</g>
</g>
<!-- Node28 -->
<g id="Node000028" class="node">
<title>Node28</title>
<g id="a_Node000028"><a xlink:href="_win32_2_async_listener_8h.html" target="_top" xlink:title=" ">
<polygon fill="white" stroke="#666666" points="1164.12,-80.12 1000.38,-80.12 1000.38,-60.88 1164.12,-60.88 1164.12,-80.12"/>
<text text-anchor="middle" x="1082.25" y="-66.62" font-family="Helvetica,sans-Serif" font-size="10.00">Cpl/Io/Tcp/Win32/AsyncListener.h</text>
</a>
</g>
</g>
<!-- Node27&#45;&gt;Node28 -->
<g id="edge30_Node000027_Node000028" class="edge">
<title>Node27&#45;&gt;Node28</title>
<g id="a_edge30_Node000027_Node000028"><a xlink:title=" ">
<path fill="none" stroke="#63b8ff" d="M1087.07,-115.9C1085.78,-104 1084.2,-89.51 1083.22,-80.39"/>
<polygon fill="#63b8ff" stroke="#63b8ff" points="1083.55,-115.96 1088.11,-125.53 1090.51,-115.21 1083.55,-115.96"/>
</a>
</g>
</g>
<!-- Node30&#45;&gt;Node4 -->
<g id="edge33_Node000030_Node000004" class="edge">
<title>Node30&#45;&gt;Node4</title>
<g id="a_edge33_Node000030_Node000004"><a xlink:title=" ">
<path fill="none" stroke="#63b8ff" d="M348.32,-256.31C285.19,-248.83 186.08,-235.77 101.25,-218.75 94,-217.29 86.27,-215.47 78.98,-213.61"/>
<polygon fill="#63b8ff" stroke="#63b8ff" points="347.83,-259.77 358.17,-257.46 348.64,-252.82 347.83,-259.77"/>
</a>
</g>
</g>
<!-- Node30&#45;&gt;Node23 -->
<g id="edge34_Node000030_Node000023" class="edge">
<title>Node30&#45;&gt;Node23</title>
<g id="a_edge34_Node000030_Node000023"><a xlink:title=" ">
<path fill="none" stroke="#63b8ff" d="M423.84,-244.93C430.41,-234.48 438.34,-221.85 443.58,-213.53"/>
<polygon fill="#63b8ff" stroke="#63b8ff" points="421.03,-242.82 418.67,-253.15 426.96,-246.55 421.03,-242.82"/>
</a>
</g>
</g>
<!-- Node31 -->
<g id="Node000031" class="node">
<title>Node31</title>
<g id="a_Node000031"><a xlink:href="_std_in_8h.html" target="_top" xlink:title=" ">
<polygon fill="white" stroke="#666666" points="364.62,-213.12 263.88,-213.12 263.88,-193.88 364.62,-193.88 364.62,-213.12"/>
<text text-anchor="middle" x="314.25" y="-199.62" font-family="Helvetica,sans-Serif" font-size="10.00">Cpl/Io/Stdio/StdIn.h</text>
</a>
</g>
</g>
<!-- Node30&#45;&gt;Node31 -->
<g id="edge35_Node000030_Node000031" class="edge">
<title>Node30&#45;&gt;Node31</title>
<g id="a_edge35_Node000030_Node000031"><a xlink:title=" ">
<path fill="none" stroke="#63b8ff" d="M387.64,-248.59C369.28,-237.56 344.8,-222.85 329.27,-213.53"/>
<polygon fill="#63b8ff" stroke="#63b8ff" points="385.69,-251.5 396.07,-253.65 389.3,-245.5 385.69,-251.5"/>
</a>
</g>
</g>
<!-- Node32&#45;&gt;Node22 -->
<g id="edge47_Node000032_Node000022" class="edge">
<title>Node32&#45;&gt;Node22</title>
<g id="a_edge47_Node000032_Node000022"><a xlink:title=" ">
<path fill="none" stroke="#63b8ff" d="M1742.5,-258.2C1656.66,-251.56 1523.57,-238.5 1477.25,-218.75 1457.33,-210.26 1459.36,-196.29 1439.25,-188.25 1351.03,-152.98 1107.89,-160.6 1013.25,-152.25 978.66,-149.2 939.74,-145.62 909.56,-142.81"/>
<polygon fill="#63b8ff" stroke="#63b8ff" points="1742.02,-261.67 1752.26,-258.94 1742.55,-254.69 1742.02,-261.67"/>
</a>
</g>
</g>
<!-- Node33 -->
<g id="Node000033" class="node">
<title>Node33</title>
<g id="a_Node000033"><a xlink:href="_context___8h.html" target="_top" xlink:title=" ">
<polygon fill="white" stroke="#666666" points="2022.12,-213.12 1912.38,-213.12 1912.38,-193.88 2022.12,-193.88 2022.12,-213.12"/>
<text text-anchor="middle" x="1967.25" y="-199.62" font-family="Helvetica,sans-Serif" font-size="10.00">Cpl/TShell/Context_.h</text>
</a>
</g>
</g>
<!-- Node32&#45;&gt;Node33 -->
<g id="edge37_Node000032_Node000033" class="edge">
<title>Node32&#45;&gt;Node33</title>
<g id="a_edge37_Node000032_Node000033"><a xlink:title=" ">
<path fill="none" stroke="#63b8ff" d="M1852.58,-250.12C1880.68,-238.94 1920.13,-223.24 1944.67,-213.48"/>
<polygon fill="#63b8ff" stroke="#63b8ff" points="1851.46,-246.8 1843.46,-253.75 1854.04,-253.3 1851.46,-246.8"/>
</a>
</g>
</g>
<!-- Node66 -->
<g id="Node000066" class="node">
<title>Node66</title>
<g id="a_Node000066"><a xlink:href="_stdio_8h.html" target="_top" xlink:title=" ">
<polygon fill="white" stroke="#666666" points="1866.25,-213.12 1772.25,-213.12 1772.25,-193.88 1866.25,-193.88 1866.25,-213.12"/>
<text text-anchor="middle" x="1819.25" y="-199.62" font-family="Helvetica,sans-Serif" font-size="10.00">Cpl/TShell/Stdio.h</text>
</a>
</g>
</g>
<!-- Node32&#45;&gt;Node66 -->
<g id="edge48_Node000032_Node000066" class="edge">
<title>Node32&#45;&gt;Node66</title>
<g id="a_edge48_Node000032_Node000066"><a xlink:title=" ">
<path fill="none" stroke="#63b8ff" d="M1819.25,-242.95C1819.25,-232.92 1819.25,-221.33 1819.25,-213.53"/>
<polygon fill="#63b8ff" stroke="#63b8ff" points="1815.75,-242.92 1819.25,-252.92 1822.75,-242.92 1815.75,-242.92"/>
</a>
</g>
</g>
<!-- Node34 -->
<g id="Node000034" class="node">
<title>Node34</title>
<g id="a_Node000034"><a xlink:href="_cmd_2_command_8h.html" target="_top" xlink:title=" ">
<polygon fill="#fff0f0" stroke="red" points="2036.75,-146.62 1897.75,-146.62 1897.75,-127.38 2036.75,-127.38 2036.75,-146.62"/>
<text text-anchor="middle" x="1967.25" y="-133.12" font-family="Helvetica,sans-Serif" font-size="10.00">Cpl/TShell/Cmd/Command.h</text>
</a>
</g>
</g>
<!-- Node33&#45;&gt;Node34 -->
<g id="edge38_Node000033_Node000034" class="edge">
<title>Node33&#45;&gt;Node34</title>
<g id="a_edge38_Node000033_Node000034"><a xlink:title=" ">
<path fill="none" stroke="#63b8ff" d="M1967.25,-182.02C1967.25,-170.19 1967.25,-155.91 1967.25,-146.89"/>
<polygon fill="#63b8ff" stroke="#63b8ff" points="1963.75,-182.02 1967.25,-192.02 1970.75,-182.02 1963.75,-182.02"/>
</a>
</g>
</g>
<!-- Node62 -->
<g id="Node000062" class="node">
<title>Node62</title>
<g id="a_Node000062"><a xlink:href="_processor_8h.html" target="_top" xlink:title=" ">
<polygon fill="white" stroke="#666666" points="2170.12,-146.62 2054.38,-146.62 2054.38,-127.38 2170.12,-127.38 2170.12,-146.62"/>
<text text-anchor="middle" x="2112.25" y="-133.12" font-family="Helvetica,sans-Serif" font-size="10.00">Cpl/TShell/Processor.h</text>
</a>
</g>
</g>
<!-- Node33&#45;&gt;Node62 -->
<g id="edge43_Node000033_Node000062" class="edge">
<title>Node33&#45;&gt;Node62</title>
<g id="a_edge43_Node000033_Node000062"><a xlink:title=" ">
<path fill="none" stroke="#63b8ff" d="M1997.87,-188.88C2026.17,-176.29 2067.43,-157.94 2091.89,-147.06"/>
<polygon fill="#63b8ff" stroke="#63b8ff" points="1996.81,-185.52 1989.1,-192.78 1999.66,-191.91 1996.81,-185.52"/>
</a>
</g>
</g>
<!-- Node35 -->
<g id="Node000035" class="node">
<title>Node35</title>
<g id="a_Node000035"><a xlink:href="_ajax_2_heating_2_simulated_2_cmd_8h.html" target="_top" xlink:title=" ">
<polygon fill="white" stroke="#666666" points="1672.25,-85.75 1554.25,-85.75 1554.25,-55.25 1672.25,-55.25 1672.25,-85.75"/>
<text text-anchor="start" x="1562.25" y="-72.25" font-family="Helvetica,sans-Serif" font-size="10.00">Ajax/Heating/Simulated</text>
<text text-anchor="middle" x="1613.25" y="-61" font-family="Helvetica,sans-Serif" font-size="10.00">/Cmd.h</text>
</a>
</g>
</g>
<!-- Node34&#45;&gt;Node35 -->
<g id="edge39_Node000034_Node000035" class="edge">
<title>Node34&#45;&gt;Node35</title>
<g id="a_edge39_Node000034_Node000035"><a xlink:title=" ">
<path fill="none" stroke="#63b8ff" d="M1906.55,-124.85C1900.71,-123.8 1894.87,-122.75 1889.25,-121.75 1796.88,-105.32 1773.4,-103.37 1681.25,-85.75 1678.41,-85.21 1675.5,-84.64 1672.56,-84.06"/>
<polygon fill="#63b8ff" stroke="#63b8ff" points="1905.79,-128.27 1916.26,-126.61 1907.04,-121.39 1905.79,-128.27"/>
</a>
</g>
</g>
<!-- Node36 -->
<g id="Node000036" class="node">
<title>Node36</title>
<g id="a_Node000036"><a xlink:href="_provision_8h.html" target="_top" xlink:title=" ">
<polygon fill="white" stroke="#666666" points="1806.5,-80.12 1690,-80.12 1690,-60.88 1806.5,-60.88 1806.5,-80.12"/>
<text text-anchor="middle" x="1748.25" y="-66.62" font-family="Helvetica,sans-Serif" font-size="10.00">Ajax/TShell/Provision.h</text>
</a>
</g>
</g>
<!-- Node34&#45;&gt;Node36 -->
<g id="edge40_Node000034_Node000036" class="edge">
<title>Node34&#45;&gt;Node36</title>
<g id="a_edge40_Node000034_Node000036"><a xlink:title=" ">
<path fill="none" stroke="#63b8ff" d="M1925.45,-123.69C1882.69,-111.09 1817.25,-91.82 1779.01,-80.56"/>
<polygon fill="#63b8ff" stroke="#63b8ff" points="1924.3,-127 1934.89,-126.47 1926.28,-120.29 1924.3,-127"/>
</a>
</g>
</g>
<!-- Node37 -->
<g id="Node000037" class="node">
<title>Node37</title>
<g id="a_Node000037"><a xlink:href="_state_8h.html" target="_top" xlink:title=" ">
<polygon fill="white" stroke="#666666" points="1923.88,-80.12 1824.62,-80.12 1824.62,-60.88 1923.88,-60.88 1923.88,-80.12"/>
<text text-anchor="middle" x="1874.25" y="-66.62" font-family="Helvetica,sans-Serif" font-size="10.00">Ajax/TShell/State.h</text>
</a>
</g>
</g>
<!-- Node34&#45;&gt;Node37 -->
<g id="edge41_Node000034_Node000037" class="edge">
<title>Node34&#45;&gt;Node37</title>
<g id="a_edge41_Node000034_Node000037"><a xlink:title=" ">
<path fill="none" stroke="#63b8ff" d="M1944.88,-120.48C1926.91,-108.02 1902.29,-90.95 1887.37,-80.6"/>
<polygon fill="#63b8ff" stroke="#63b8ff" points="1942.86,-123.35 1953.08,-126.17 1946.85,-117.59 1942.86,-123.35"/>
</a>
</g>
</g>
<!-- Node38 -->
<g id="Node000038" class="node">
<title>Node38</title>
<g id="a_Node000038"><a xlink:href="_ui_8h.html" target="_top" xlink:title=" ">
<polygon fill="white" stroke="#666666" points="2028.12,-80.12 1942.38,-80.12 1942.38,-60.88 2028.12,-60.88 2028.12,-80.12"/>
<text text-anchor="middle" x="1985.25" y="-66.62" font-family="Helvetica,sans-Serif" font-size="10.00">Ajax/TShell/Ui.h</text>
</a>
</g>
</g>
<!-- Node34&#45;&gt;Node38 -->
<g id="edge42_Node000034_Node000038" class="edge">
<title>Node34&#45;&gt;Node38</title>
<g id="a_edge42_Node000034_Node000038"><a xlink:title=" ">
<path fill="none" stroke="#63b8ff" d="M1972.76,-116.27C1976.1,-104.3 1980.2,-89.6 1982.77,-80.39"/>
<polygon fill="#63b8ff" stroke="#63b8ff" points="1969.48,-115 1970.16,-125.57 1976.22,-116.88 1969.48,-115"/>
</a>
</g>
</g>
<!-- Node63 -->
<g id="Node000063" class="node">
<title>Node63</title>
<g id="a_Node000063"><a xlink:href="_cpl_2_t_shell_2_maker_8h.html" target="_top" xlink:title=" ">
<polygon fill="white" stroke="#666666" points="2305.5,-80.12 2207,-80.12 2207,-60.88 2305.5,-60.88 2305.5,-80.12"/>
<text text-anchor="middle" x="2256.25" y="-66.62" font-family="Helvetica,sans-Serif" font-size="10.00">Cpl/TShell/Maker.h</text>
</a>
</g>
</g>
<!-- Node62&#45;&gt;Node63 -->
<g id="edge44_Node000062_Node000063" class="edge">
<title>Node62&#45;&gt;Node63</title>
<g id="a_edge44_Node000062_Node000063"><a xlink:title=" ">
<path fill="none" stroke="#63b8ff" d="M2143.03,-122.21C2171.12,-109.63 2211.85,-91.39 2236.03,-80.56"/>
<polygon fill="#63b8ff" stroke="#63b8ff" points="2141.65,-118.99 2133.96,-126.28 2144.51,-125.38 2141.65,-118.99"/>
</a>
</g>
</g>
<!-- Node64 -->
<g id="Node000064" class="node">
<title>Node64</title>
<g id="a_Node000064"><a xlink:href="_polled_processor_8h.html" target="_top" xlink:title=" ">
<polygon fill="white" stroke="#666666" points="2188.62,-80.12 2045.88,-80.12 2045.88,-60.88 2188.62,-60.88 2188.62,-80.12"/>
<text text-anchor="middle" x="2117.25" y="-66.62" font-family="Helvetica,sans-Serif" font-size="10.00">Cpl/TShell/PolledProcessor.h</text>
</a>
</g>
</g>
<!-- Node62&#45;&gt;Node64 -->
<g id="edge45_Node000062_Node000064" class="edge">
<title>Node62&#45;&gt;Node64</title>
<g id="a_edge45_Node000062_Node000064"><a xlink:title=" ">
<path fill="none" stroke="#63b8ff" d="M2113.81,-115.9C2114.73,-104 2115.85,-89.51 2116.56,-80.39"/>
<polygon fill="#63b8ff" stroke="#63b8ff" points="2110.35,-115.28 2113.06,-125.52 2117.32,-115.82 2110.35,-115.28"/>
</a>
</g>
</g>
<!-- Node65 -->
<g id="Node000065" class="node">
<title>Node65</title>
<g id="a_Node000065"><a xlink:href="_polled_maker_8h.html" target="_top" xlink:title=" ">
<polygon fill="white" stroke="#666666" points="2288,-19.25 2162.5,-19.25 2162.5,0 2288,0 2288,-19.25"/>
<text text-anchor="middle" x="2225.25" y="-5.75" font-family="Helvetica,sans-Serif" font-size="10.00">Cpl/TShell/PolledMaker.h</text>
</a>
</g>
</g>
<!-- Node64&#45;&gt;Node65 -->
<g id="edge46_Node000064_Node000065" class="edge">
<title>Node64&#45;&gt;Node65</title>
<g id="a_edge46_Node000064_Node000065"><a xlink:title=" ">
<path fill="none" stroke="#63b8ff" d="M2143.53,-55.17C2163.85,-44.1 2191.35,-29.11 2208.69,-19.65"/>
<polygon fill="#63b8ff" stroke="#63b8ff" points="2142.09,-51.97 2134.98,-59.83 2145.44,-58.12 2142.09,-51.97"/>
</a>
</g>
</g>
<!-- Node67 -->
<g id="Node000067" class="node">
<title>Node67</title>
<g id="a_Node000067"><a xlink:href="_restartable_8h.html" target="_top" xlink:title=" ">
<polygon fill="white" stroke="#666666" points="1879.75,-146.62 1758.75,-146.62 1758.75,-127.38 1879.75,-127.38 1879.75,-146.62"/>
<text text-anchor="middle" x="1819.25" y="-133.12" font-family="Helvetica,sans-Serif" font-size="10.00">Cpl/TShell/Restartable.h</text>
</a>
</g>
</g>
<!-- Node66&#45;&gt;Node67 -->
<g id="edge49_Node000066_Node000067" class="edge">
<title>Node66&#45;&gt;Node67</title>
<g id="a_edge49_Node000066_Node000067"><a xlink:title=" ">
<path fill="none" stroke="#63b8ff" d="M1819.25,-182.02C1819.25,-170.19 1819.25,-155.91 1819.25,-146.89"/>
<polygon fill="#63b8ff" stroke="#63b8ff" points="1815.75,-182.02 1819.25,-192.02 1822.75,-182.02 1815.75,-182.02"/>
</a>
</g>
</g>
<!-- Node68&#45;&gt;Node62 -->
<g id="edge51_Node000068_Node000062" class="edge">
<title>Node68&#45;&gt;Node62</title>
<g id="a_edge51_Node000068_Node000062"><a xlink:title=" ">
<path fill="none" stroke="#63b8ff" d="M2143.98,-243.62C2141.54,-235.88 2138.74,-226.9 2136.25,-218.75 2128.3,-192.73 2119.23,-161.89 2114.87,-146.98"/>
<polygon fill="#63b8ff" stroke="#63b8ff" points="2140.61,-244.57 2146.97,-253.05 2147.29,-242.46 2140.61,-244.57"/>
</a>
</g>
</g>
<!-- Node69 -->
<g id="Node000069" class="node">
<title>Node69</title>
<g id="a_Node000069"><a xlink:href="_ascii_decoder_8h.html" target="_top" xlink:title=" ">
<polygon fill="white" stroke="#666666" points="2329.75,-213.12 2178.75,-213.12 2178.75,-193.88 2329.75,-193.88 2329.75,-213.12"/>
<text text-anchor="middle" x="2254.25" y="-199.62" font-family="Helvetica,sans-Serif" font-size="10.00">Cpl/Text/Frame/AsciiDecoder.h</text>
</a>
</g>
</g>
<!-- Node68&#45;&gt;Node69 -->
<g id="edge52_Node000068_Node000069" class="edge">
<title>Node68&#45;&gt;Node69</title>
<g id="a_edge52_Node000068_Node000069"><a xlink:title=" ">
<path fill="none" stroke="#63b8ff" d="M2175.83,-248.9C2195.36,-237.84 2221.68,-222.94 2238.31,-213.53"/>
<polygon fill="#63b8ff" stroke="#63b8ff" points="2174.34,-245.72 2167.36,-253.69 2177.79,-251.81 2174.34,-245.72"/>
</a>
</g>
</g>
<!-- Node70 -->
<g id="Node000070" class="node">
<title>Node70</title>
<g id="a_Node000070"><a xlink:href="_line_decoder_8h.html" target="_top" xlink:title=" ">
<polygon fill="white" stroke="#666666" points="2336.25,-146.62 2188.25,-146.62 2188.25,-127.38 2336.25,-127.38 2336.25,-146.62"/>
<text text-anchor="middle" x="2262.25" y="-133.12" font-family="Helvetica,sans-Serif" font-size="10.00">Cpl/Text/Frame/LineDecoder.h</text>
</a>
</g>
</g>
<!-- Node68&#45;&gt;Node70 -->
<g id="edge53_Node000068_Node000070" class="edge">
<title>Node68&#45;&gt;Node70</title>
<g id="a_edge53_Node000068_Node000070"><a xlink:title=" ">
<path fill="none" stroke="#63b8ff" d="M2151.33,-243.05C2153.14,-226.72 2157.89,-204 2170.25,-188.25 2186.1,-168.07 2212.4,-154.87 2232.83,-147.09"/>
<polygon fill="#63b8ff" stroke="#63b8ff" points="2147.84,-242.76 2150.54,-253.01 2154.82,-243.31 2147.84,-242.76"/>
</a>
</g>
</g>
<!-- Node68&#45;&gt;Node71 -->
<g id="edge56_Node000068_Node000071" class="edge">
<title>Node68&#45;&gt;Node71</title>
<g id="a_edge56_Node000068_Node000071"><a xlink:title=" ">
<path fill="none" stroke="#63b8ff" d="M2199.8,-251.75C2237.94,-242.78 2291.94,-230.05 2339.25,-218.75 2346.22,-217.09 2353.65,-215.3 2360.8,-213.57"/>
<polygon fill="#63b8ff" stroke="#63b8ff" points="2199.4,-248.25 2190.47,-253.94 2201,-255.06 2199.4,-248.25"/>
</a>
</g>
</g>
<!-- Node70&#45;&gt;Node63 -->
<g id="edge54_Node000070_Node000063" class="edge">
<title>Node70&#45;&gt;Node63</title>
<g id="a_edge54_Node000070_Node000063"><a xlink:title=" ">
<path fill="none" stroke="#63b8ff" d="M2260.38,-115.9C2259.27,-104 2257.93,-89.51 2257.08,-80.39"/>
<polygon fill="#63b8ff" stroke="#63b8ff" points="2256.86,-115.89 2261.28,-125.52 2263.83,-115.24 2256.86,-115.89"/>
</a>
</g>
</g>
<!-- Node70&#45;&gt;Node65 -->
<g id="edge55_Node000070_Node000065" class="edge">
<title>Node70&#45;&gt;Node65</title>
<g id="a_edge55_Node000070_Node000065"><a xlink:title=" ">
<path fill="none" stroke="#63b8ff" d="M2284.4,-120.2C2304.28,-104 2328.31,-78.03 2314.25,-55.25 2303.08,-37.16 2282.1,-26.15 2263.31,-19.59"/>
<polygon fill="#63b8ff" stroke="#63b8ff" points="2282.42,-117.31 2276.64,-126.18 2286.7,-122.85 2282.42,-117.31"/>
</a>
</g>
</g>
<!-- Node71&#45;&gt;Node72 -->
<g id="edge57_Node000071_Node000072" class="edge">
<title>Node71&#45;&gt;Node72</title>
<g id="a_edge57_Node000071_Node000072"><a xlink:title=" ">
<path fill="none" stroke="#63b8ff" d="M2426.71,-188.38C2448.12,-177.76 2477.37,-163.25 2498.97,-152.53"/>
<polygon fill="#63b8ff" stroke="#63b8ff" points="2425.36,-185.14 2417.96,-192.72 2428.47,-191.41 2425.36,-185.14"/>
</a>
</g>
</g>
<!-- Node73 -->
<g id="Node000073" class="node">
<title>Node73</title>
<g id="a_Node000073"><a xlink:href="_driver_2_t_pipe_2_maker_8h.html" target="_top" xlink:title=" ">
<polygon fill="white" stroke="#666666" points="2462,-146.62 2354.5,-146.62 2354.5,-127.38 2462,-127.38 2462,-146.62"/>
<text text-anchor="middle" x="2408.25" y="-133.12" font-family="Helvetica,sans-Serif" font-size="10.00">Driver/TPipe/Maker.h</text>
</a>
</g>
</g>
<!-- Node71&#45;&gt;Node73 -->
<g id="edge58_Node000071_Node000073" class="edge">
<title>Node71&#45;&gt;Node73</title>
<g id="a_edge58_Node000071_Node000073"><a xlink:title=" ">
<path fill="none" stroke="#63b8ff" d="M2401.37,-182.4C2403.21,-170.5 2405.46,-156.01 2406.87,-146.89"/>
<polygon fill="#63b8ff" stroke="#63b8ff" points="2397.95,-181.62 2399.87,-192.04 2404.86,-182.69 2397.95,-181.62"/>
</a>
</g>
</g>
</g>
</svg>
