<?xml version="1.0" encoding="UTF-8" standalone="no"?>
<!DOCTYPE svg PUBLIC "-//W3C//DTD SVG 1.1//EN"
 "http://www.w3.org/Graphics/SVG/1.1/DTD/svg11.dtd">
<!-- Generated by graphviz version 2.43.0 (0)
 -->
<!-- Title: Cpl/Io/InputOutput.h Pages: 1 -->
<svg width="1857pt" height="203pt"
 viewBox="0.00 0.00 1857.00 203.00" xmlns="http://www.w3.org/2000/svg" xmlns:xlink="http://www.w3.org/1999/xlink">
<g id="graph0" class="graph" transform="scale(1 1) rotate(0) translate(4 199)">
<title>Cpl/Io/InputOutput.h</title>
<!-- Node1 -->
<g id="Node000001" class="node">
<title>Node1</title>
<g id="a_Node000001"><a xlink:title=" ">
<polygon fill="#999999" stroke="#666666" points="820,-195 706,-195 706,-176 820,-176 820,-195"/>
<text text-anchor="middle" x="763" y="-183" font-family="Helvetica,sans-Serif" font-size="10.00">Cpl/Io/InputOutput.h</text>
</a>
</g>
</g>
<!-- Node2 -->
<g id="Node000002" class="node">
<title>Node2</title>
<g id="a_Node000002"><a xlink:href="_input_output_api_8h.html" target="_top" xlink:title=" ">
<polygon fill="white" stroke="#666666" points="150,-134.5 0,-134.5 0,-115.5 150,-115.5 150,-134.5"/>
<text text-anchor="middle" x="75" y="-122.5" font-family="Helvetica,sans-Serif" font-size="10.00">Cpl/Io/File/InputOutputApi.h</text>
</a>
</g>
</g>
<!-- Node1&#45;&gt;Node2 -->
<g id="edge1_Node000001_Node000002" class="edge">
<title>Node1&#45;&gt;Node2</title>
<g id="a_edge1_Node000001_Node000002"><a xlink:title=" ">
<path fill="none" stroke="#63b8ff" d="M695.67,-181.56C583.9,-176.22 353.12,-163.28 159,-140 146.82,-138.54 133.7,-136.55 121.54,-134.54"/>
<polygon fill="#63b8ff" stroke="#63b8ff" points="695.63,-185.06 705.79,-182.03 695.96,-178.07 695.63,-185.06"/>
</a>
</g>
</g>
<!-- Node5 -->
<g id="Node000005" class="node">
<title>Node5</title>
<g id="a_Node000005"><a xlink:href="_cpl_2_io_2_null_8h.html" target="_top" xlink:title=" ">
<polygon fill="white" stroke="#666666" points="244,-134.5 168,-134.5 168,-115.5 244,-115.5 244,-134.5"/>
<text text-anchor="middle" x="206" y="-122.5" font-family="Helvetica,sans-Serif" font-size="10.00">Cpl/Io/Null.h</text>
</a>
</g>
</g>
<!-- Node1&#45;&gt;Node5 -->
<g id="edge4_Node000001_Node000005" class="edge">
<title>Node1&#45;&gt;Node5</title>
<g id="a_edge4_Node000001_Node000005"><a xlink:title=" ">
<path fill="none" stroke="#63b8ff" d="M695.81,-182.96C597.7,-179.74 409.84,-169.88 253,-140 245.81,-138.63 238.14,-136.6 231.14,-134.51"/>
<polygon fill="#63b8ff" stroke="#63b8ff" points="695.78,-186.46 705.88,-183.28 696,-179.46 695.78,-186.46"/>
</a>
</g>
</g>
<!-- Node6 -->
<g id="Node000006" class="node">
<title>Node6</title>
<g id="a_Node000006"><a xlink:href="_ram_2_input_output_8h.html" target="_top" xlink:title=" ">
<polygon fill="white" stroke="#666666" points="402,-134.5 262,-134.5 262,-115.5 402,-115.5 402,-134.5"/>
<text text-anchor="middle" x="332" y="-122.5" font-family="Helvetica,sans-Serif" font-size="10.00">Cpl/Io/Ram/InputOutput.h</text>
</a>
</g>
</g>
<!-- Node1&#45;&gt;Node6 -->
<g id="edge5_Node000001_Node000006" class="edge">
<title>Node1&#45;&gt;Node6</title>
<g id="a_edge5_Node000001_Node000006"><a xlink:title=" ">
<path fill="none" stroke="#63b8ff" d="M695.74,-177C624.79,-168.86 509.82,-154.99 411,-140 400.26,-138.37 388.73,-136.43 377.89,-134.53"/>
<polygon fill="#63b8ff" stroke="#63b8ff" points="695.54,-180.5 705.88,-178.16 696.34,-173.55 695.54,-180.5"/>
</a>
</g>
</g>
<!-- Node7 -->
<g id="Node000007" class="node">
<title>Node7</title>
<g id="a_Node000007"><a xlink:href="_serial_2_adafruit_2_nrf5_2_b_l_e_2_input_output_8h.html" target="_top" xlink:title=" ">
<polygon fill="white" stroke="#666666" points="551.5,-140 420.5,-140 420.5,-110 551.5,-110 551.5,-140"/>
<text text-anchor="start" x="428.5" y="-128" font-family="Helvetica,sans-Serif" font-size="10.00">Cpl/Io/Serial/Adafruit</text>
<text text-anchor="middle" x="486" y="-117" font-family="Helvetica,sans-Serif" font-size="10.00">/Nrf5/BLE/InputOutput.h</text>
</a>
</g>
</g>
<!-- Node1&#45;&gt;Node7 -->
<g id="edge6_Node000001_Node000007" class="edge">
<title>Node1&#45;&gt;Node7</title>
<g id="a_edge6_Node000001_Node000007"><a xlink:title=" ">
<path fill="none" stroke="#63b8ff" d="M712.85,-173.91C667.66,-164.37 600.93,-150.27 551.53,-139.84"/>
<polygon fill="#63b8ff" stroke="#63b8ff" points="712.21,-177.35 722.72,-175.99 713.66,-170.5 712.21,-177.35"/>
</a>
</g>
</g>
<!-- Node8 -->
<g id="Node000008" class="node">
<title>Node8</title>
<g id="a_Node000008"><a xlink:href="_serial_2_adafruit_2_nrf5_2_input_output_8h.html" target="_top" xlink:title=" ">
<polygon fill="white" stroke="#666666" points="686.5,-140 569.5,-140 569.5,-110 686.5,-110 686.5,-140"/>
<text text-anchor="start" x="577.5" y="-128" font-family="Helvetica,sans-Serif" font-size="10.00">Cpl/Io/Serial/Adafruit</text>
<text text-anchor="middle" x="628" y="-117" font-family="Helvetica,sans-Serif" font-size="10.00">/Nrf5/InputOutput.h</text>
</a>
</g>
</g>
<!-- Node1&#45;&gt;Node8 -->
<g id="edge7_Node000001_Node000008" class="edge">
<title>Node1&#45;&gt;Node8</title>
<g id="a_edge7_Node000001_Node000008"><a xlink:title=" ">
<path fill="none" stroke="#63b8ff" d="M734.05,-171.95C712.43,-162.59 682.87,-149.78 660.46,-140.06"/>
<polygon fill="#63b8ff" stroke="#63b8ff" points="732.8,-175.23 743.37,-175.99 735.59,-168.81 732.8,-175.23"/>
</a>
</g>
</g>
<!-- Node9 -->
<g id="Node000009" class="node">
<title>Node9</title>
<g id="a_Node000009"><a xlink:href="_serial_2_arduino_2_input_output_8h.html" target="_top" xlink:title=" ">
<polygon fill="white" stroke="#666666" points="821,-140 705,-140 705,-110 821,-110 821,-140"/>
<text text-anchor="start" x="713" y="-128" font-family="Helvetica,sans-Serif" font-size="10.00">Cpl/Io/Serial/Arduino</text>
<text text-anchor="middle" x="763" y="-117" font-family="Helvetica,sans-Serif" font-size="10.00">/InputOutput.h</text>
</a>
</g>
</g>
<!-- Node1&#45;&gt;Node9 -->
<g id="edge8_Node000001_Node000009" class="edge">
<title>Node1&#45;&gt;Node9</title>
<g id="a_edge8_Node000001_Node000009"><a xlink:title=" ">
<path fill="none" stroke="#63b8ff" d="M763,-165.65C763,-157.36 763,-147.78 763,-140.11"/>
<polygon fill="#63b8ff" stroke="#63b8ff" points="759.5,-165.87 763,-175.87 766.5,-165.87 759.5,-165.87"/>
</a>
</g>
</g>
<!-- Node10 -->
<g id="Node000010" class="node">
<title>Node10</title>
<g id="a_Node000010"><a xlink:href="_serial_2_phony_stdio_2_input_output_8h.html" target="_top" xlink:title=" ">
<polygon fill="white" stroke="#666666" points="972.5,-140 839.5,-140 839.5,-110 972.5,-110 972.5,-140"/>
<text text-anchor="start" x="847.5" y="-128" font-family="Helvetica,sans-Serif" font-size="10.00">Cpl/Io/Serial/PhonyStdio</text>
<text text-anchor="middle" x="906" y="-117" font-family="Helvetica,sans-Serif" font-size="10.00">/InputOutput.h</text>
</a>
</g>
</g>
<!-- Node1&#45;&gt;Node10 -->
<g id="edge9_Node000001_Node000010" class="edge">
<title>Node1&#45;&gt;Node10</title>
<g id="a_edge9_Node000001_Node000010"><a xlink:title=" ">
<path fill="none" stroke="#63b8ff" d="M793.05,-172.21C816,-162.82 847.66,-149.87 871.62,-140.06"/>
<polygon fill="#63b8ff" stroke="#63b8ff" points="791.72,-168.97 783.79,-175.99 794.37,-175.45 791.72,-168.97"/>
</a>
</g>
</g>
<!-- Node11 -->
<g id="Node000011" class="node">
<title>Node11</title>
<g id="a_Node000011"><a xlink:href="_serial_2_s_t_2_m32_f4_2_input_output_8h.html" target="_top" xlink:title=" ">
<polygon fill="white" stroke="#666666" points="1117,-140 991,-140 991,-110 1117,-110 1117,-140"/>
<text text-anchor="start" x="999" y="-128" font-family="Helvetica,sans-Serif" font-size="10.00">Cpl/Io/Serial/ST/M32F4</text>
<text text-anchor="middle" x="1054" y="-117" font-family="Helvetica,sans-Serif" font-size="10.00">/InputOutput.h</text>
</a>
</g>
</g>
<!-- Node1&#45;&gt;Node11 -->
<g id="edge10_Node000001_Node000011" class="edge">
<title>Node1&#45;&gt;Node11</title>
<g id="a_edge10_Node000001_Node000011"><a xlink:title=" ">
<path fill="none" stroke="#63b8ff" d="M815.13,-174.02C864.4,-164.12 938.4,-149.24 990.96,-138.67"/>
<polygon fill="#63b8ff" stroke="#63b8ff" points="814.43,-170.59 805.31,-175.99 815.81,-177.45 814.43,-170.59"/>
</a>
</g>
</g>
<!-- Node12 -->
<g id="Node000012" class="node">
<title>Node12</title>
<g id="a_Node000012"><a xlink:href="_socket_2_input_output_8h.html" target="_top" xlink:title=" ">
<polygon fill="white" stroke="#666666" points="1449.5,-134.5 1300.5,-134.5 1300.5,-115.5 1449.5,-115.5 1449.5,-134.5"/>
<text text-anchor="middle" x="1375" y="-122.5" font-family="Helvetica,sans-Serif" font-size="10.00">Cpl/Io/Socket/InputOutput.h</text>
</a>
</g>
</g>
<!-- Node1&#45;&gt;Node12 -->
<g id="edge11_Node000001_Node000012" class="edge">
<title>Node1&#45;&gt;Node12</title>
<g id="a_edge11_Node000001_Node000012"><a xlink:title=" ">
<path fill="none" stroke="#63b8ff" d="M830.21,-180.59C930.7,-174.34 1125.98,-160.67 1291,-140 1303.03,-138.49 1315.97,-136.52 1328.01,-134.52"/>
<polygon fill="#63b8ff" stroke="#63b8ff" points="829.96,-177.1 820.2,-181.2 830.39,-184.08 829.96,-177.1"/>
</a>
</g>
</g>
<!-- Node16 -->
<g id="Node000016" class="node">
<title>Node16</title>
<g id="a_Node000016"><a xlink:href="_input_output___8h.html" target="_top" xlink:title=" ">
<polygon fill="white" stroke="#666666" points="1282.5,-134.5 1135.5,-134.5 1135.5,-115.5 1282.5,-115.5 1282.5,-134.5"/>
<text text-anchor="middle" x="1209" y="-122.5" font-family="Helvetica,sans-Serif" font-size="10.00">Cpl/Io/Stdio/InputOutput_.h</text>
</a>
</g>
</g>
<!-- Node1&#45;&gt;Node16 -->
<g id="edge16_Node000001_Node000016" class="edge">
<title>Node1&#45;&gt;Node16</title>
<g id="a_edge16_Node000001_Node000016"><a xlink:title=" ">
<path fill="none" stroke="#63b8ff" d="M829.98,-177.21C902.91,-169.05 1022.94,-155 1126,-140 1137.28,-138.36 1149.39,-136.42 1160.78,-134.51"/>
<polygon fill="#63b8ff" stroke="#63b8ff" points="829.56,-173.73 820.01,-178.32 830.33,-180.69 829.56,-173.73"/>
</a>
</g>
</g>
<!-- Node17 -->
<g id="Node000017" class="node">
<title>Node17</title>
<g id="a_Node000017"><a xlink:href="_tcp_2_input_output_8h.html" target="_top" xlink:title=" ">
<polygon fill="white" stroke="#666666" points="1637.5,-134.5 1504.5,-134.5 1504.5,-115.5 1637.5,-115.5 1637.5,-134.5"/>
<text text-anchor="middle" x="1571" y="-122.5" font-family="Helvetica,sans-Serif" font-size="10.00">Cpl/Io/Tcp/InputOutput.h</text>
</a>
</g>
</g>
<!-- Node1&#45;&gt;Node17 -->
<g id="edge18_Node000001_Node000017" class="edge">
<title>Node1&#45;&gt;Node17</title>
<g id="a_edge18_Node000001_Node000017"><a xlink:title=" ">
<path fill="none" stroke="#63b8ff" d="M830.42,-181.51C954.7,-175.71 1228.22,-161.57 1458,-140 1474.14,-138.48 1491.53,-136.5 1507.72,-134.51"/>
<polygon fill="#63b8ff" stroke="#63b8ff" points="830.13,-178.02 820.3,-181.98 830.45,-185.02 830.13,-178.02"/>
</a>
</g>
</g>
<!-- Node3 -->
<g id="Node000003" class="node">
<title>Node3</title>
<g id="a_Node000003"><a xlink:href="_file_2_input_output_8h.html" target="_top" xlink:title=" ">
<polygon fill="white" stroke="#666666" points="721,-74 587,-74 587,-55 721,-55 721,-74"/>
<text text-anchor="middle" x="654" y="-62" font-family="Helvetica,sans-Serif" font-size="10.00">Cpl/Io/File/InputOutput.h</text>
</a>
</g>
</g>
<!-- Node2&#45;&gt;Node3 -->
<g id="edge2_Node000002_Node000003" class="edge">
<title>Node2&#45;&gt;Node3</title>
<g id="a_edge2_Node000002_Node000003"><a xlink:title=" ">
<path fill="none" stroke="#63b8ff" d="M132.37,-113.85C141.27,-112.44 150.37,-111.11 159,-110 311.55,-90.46 491.65,-76.56 586.97,-69.91"/>
<polygon fill="#63b8ff" stroke="#63b8ff" points="131.75,-110.4 122.44,-115.45 132.87,-117.31 131.75,-110.4"/>
</a>
</g>
</g>
<!-- Node4 -->
<g id="Node000004" class="node">
<title>Node4</title>
<g id="a_Node000004"><a xlink:href="_cpl_2_io_2_file_2_null_8h.html" target="_top" xlink:title=" ">
<polygon fill="white" stroke="#666666" points="123,-74 27,-74 27,-55 123,-55 123,-74"/>
<text text-anchor="middle" x="75" y="-62" font-family="Helvetica,sans-Serif" font-size="10.00">Cpl/Io/File/Null.h</text>
</a>
</g>
</g>
<!-- Node2&#45;&gt;Node4 -->
<g id="edge3_Node000002_Node000004" class="edge">
<title>Node2&#45;&gt;Node4</title>
<g id="a_edge3_Node000002_Node000004"><a xlink:title=" ">
<path fill="none" stroke="#63b8ff" d="M75,-105.16C75,-94.74 75,-82.3 75,-74.17"/>
<polygon fill="#63b8ff" stroke="#63b8ff" points="71.5,-105.37 75,-115.37 78.5,-105.37 71.5,-105.37"/>
</a>
</g>
</g>
<!-- Node13 -->
<g id="Node000013" class="node">
<title>Node13</title>
<g id="a_Node000013"><a xlink:href="_factory_8h.html" target="_top" xlink:title=" ">
<polygon fill="white" stroke="#666666" points="1309.5,-74 1184.5,-74 1184.5,-55 1309.5,-55 1309.5,-74"/>
<text text-anchor="middle" x="1247" y="-62" font-family="Helvetica,sans-Serif" font-size="10.00">Cpl/Io/Socket/Factory.h</text>
</a>
</g>
</g>
<!-- Node12&#45;&gt;Node13 -->
<g id="edge12_Node000012_Node000013" class="edge">
<title>Node12&#45;&gt;Node13</title>
<g id="a_edge12_Node000012_Node000013"><a xlink:title=" ">
<path fill="none" stroke="#63b8ff" d="M1347.17,-111.28C1322.47,-99.99 1287.07,-83.81 1265.63,-74.02"/>
<polygon fill="#63b8ff" stroke="#63b8ff" points="1345.84,-114.52 1356.39,-115.49 1348.75,-108.15 1345.84,-114.52"/>
</a>
</g>
</g>
<!-- Node14 -->
<g id="Node000014" class="node">
<title>Node14</title>
<g id="a_Node000014"><a xlink:href="_stream_pool_8h.html" target="_top" xlink:title=" ">
<polygon fill="white" stroke="#666666" points="1367,-19 1219,-19 1219,0 1367,0 1367,-19"/>
<text text-anchor="middle" x="1293" y="-7" font-family="Helvetica,sans-Serif" font-size="10.00">Cpl/Io/Socket/StreamPool.h</text>
</a>
</g>
</g>
<!-- Node12&#45;&gt;Node14 -->
<g id="edge14_Node000012_Node000014" class="edge">
<title>Node12&#45;&gt;Node14</title>
<g id="a_edge14_Node000012_Node000014"><a xlink:title=" ">
<path fill="none" stroke="#63b8ff" d="M1362.82,-107.14C1345.08,-82.59 1312.78,-37.87 1299.23,-19.13"/>
<polygon fill="#63b8ff" stroke="#63b8ff" points="1360.14,-109.41 1368.84,-115.47 1365.82,-105.31 1360.14,-109.41"/>
</a>
</g>
</g>
<!-- Node15 -->
<g id="Node000015" class="node">
<title>Node15</title>
<g id="a_Node000015"><a xlink:href="_socket_8h.html" target="_top" xlink:title=" ">
<polygon fill="white" stroke="#666666" points="1476,-74 1366,-74 1366,-55 1476,-55 1476,-74"/>
<text text-anchor="middle" x="1421" y="-62" font-family="Helvetica,sans-Serif" font-size="10.00">Cpl/TShell/Socket.h</text>
</a>
</g>
</g>
<!-- Node12&#45;&gt;Node15 -->
<g id="edge15_Node000012_Node000015" class="edge">
<title>Node12&#45;&gt;Node15</title>
<g id="a_edge15_Node000012_Node000015"><a xlink:title=" ">
<path fill="none" stroke="#63b8ff" d="M1388.01,-107.45C1396.53,-96.62 1407.31,-82.91 1414.18,-74.17"/>
<polygon fill="#63b8ff" stroke="#63b8ff" points="1385.22,-105.34 1381.79,-115.37 1390.72,-109.67 1385.22,-105.34"/>
</a>
</g>
</g>
<!-- Node13&#45;&gt;Node14 -->
<g id="edge13_Node000013_Node000014" class="edge">
<title>Node13&#45;&gt;Node14</title>
<g id="a_edge13_Node000013_Node000014"><a xlink:title=" ">
<path fill="none" stroke="#63b8ff" d="M1261.36,-46.96C1269.37,-37.72 1279.03,-26.6 1285.55,-19.09"/>
<polygon fill="#63b8ff" stroke="#63b8ff" points="1258.51,-44.9 1254.6,-54.75 1263.79,-49.49 1258.51,-44.9"/>
</a>
</g>
</g>
<!-- Node16&#45;&gt;Node3 -->
<g id="edge17_Node000016_Node000003" class="edge">
<title>Node16&#45;&gt;Node3</title>
<g id="a_edge17_Node000016_Node000003"><a xlink:title=" ">
<path fill="none" stroke="#63b8ff" d="M1152.03,-113.83C1143.33,-112.44 1134.44,-111.11 1126,-110 982.17,-91.11 812.66,-77.14 721,-70.27"/>
<polygon fill="#63b8ff" stroke="#63b8ff" points="1151.69,-117.32 1162.12,-115.48 1152.82,-110.41 1151.69,-117.32"/>
</a>
</g>
</g>
<!-- Node18 -->
<g id="Node000018" class="node">
<title>Node18</title>
<g id="a_Node000018"><a xlink:href="_async_connector_8h.html" target="_top" xlink:title=" ">
<polygon fill="white" stroke="#666666" points="1647.5,-74 1494.5,-74 1494.5,-55 1647.5,-55 1647.5,-74"/>
<text text-anchor="middle" x="1571" y="-62" font-family="Helvetica,sans-Serif" font-size="10.00">Cpl/Io/Tcp/AsyncConnector.h</text>
</a>
</g>
</g>
<!-- Node17&#45;&gt;Node18 -->
<g id="edge19_Node000017_Node000018" class="edge">
<title>Node17&#45;&gt;Node18</title>
<g id="a_edge19_Node000017_Node000018"><a xlink:title=" ">
<path fill="none" stroke="#63b8ff" d="M1571,-105.16C1571,-94.74 1571,-82.3 1571,-74.17"/>
<polygon fill="#63b8ff" stroke="#63b8ff" points="1567.5,-105.37 1571,-115.37 1574.5,-105.37 1567.5,-105.37"/>
</a>
</g>
</g>
<!-- Node20 -->
<g id="Node000020" class="node">
<title>Node20</title>
<g id="a_Node000020"><a xlink:href="_async_listener_8h.html" target="_top" xlink:title=" ">
<polygon fill="white" stroke="#666666" points="1824.5,-74 1681.5,-74 1681.5,-55 1824.5,-55 1824.5,-74"/>
<text text-anchor="middle" x="1753" y="-62" font-family="Helvetica,sans-Serif" font-size="10.00">Cpl/Io/Tcp/AsyncListener.h</text>
</a>
</g>
</g>
<!-- Node17&#45;&gt;Node20 -->
<g id="edge21_Node000017_Node000020" class="edge">
<title>Node17&#45;&gt;Node20</title>
<g id="a_edge21_Node000017_Node000020"><a xlink:title=" ">
<path fill="none" stroke="#63b8ff" d="M1607.35,-112.32C1642.55,-101 1695.08,-84.12 1726.5,-74.02"/>
<polygon fill="#63b8ff" stroke="#63b8ff" points="1605.91,-109.1 1597.46,-115.49 1608.06,-115.77 1605.91,-109.1"/>
</a>
</g>
</g>
<!-- Node19 -->
<g id="Node000019" class="node">
<title>Node19</title>
<g id="a_Node000019"><a xlink:href="_win32_2_async_connector_8h.html" target="_top" xlink:title=" ">
<polygon fill="white" stroke="#666666" points="1655.5,-19 1468.5,-19 1468.5,0 1655.5,0 1655.5,-19"/>
<text text-anchor="middle" x="1562" y="-7" font-family="Helvetica,sans-Serif" font-size="10.00">Cpl/Io/Tcp/Win32/AsyncConnector.h</text>
</a>
</g>
</g>
<!-- Node18&#45;&gt;Node19 -->
<g id="edge20_Node000018_Node000019" class="edge">
<title>Node18&#45;&gt;Node19</title>
<g id="a_edge20_Node000018_Node000019"><a xlink:title=" ">
<path fill="none" stroke="#63b8ff" d="M1567.8,-44.66C1566.32,-35.93 1564.63,-25.99 1563.46,-19.09"/>
<polygon fill="#63b8ff" stroke="#63b8ff" points="1564.39,-45.48 1569.51,-54.75 1571.29,-44.3 1564.39,-45.48"/>
</a>
</g>
</g>
<!-- Node21 -->
<g id="Node000021" class="node">
<title>Node21</title>
<g id="a_Node000021"><a xlink:href="_win32_2_async_listener_8h.html" target="_top" xlink:title=" ">
<polygon fill="white" stroke="#666666" points="1849,-19 1673,-19 1673,0 1849,0 1849,-19"/>
<text text-anchor="middle" x="1761" y="-7" font-family="Helvetica,sans-Serif" font-size="10.00">Cpl/Io/Tcp/Win32/AsyncListener.h</text>
</a>
</g>
</g>
<!-- Node20&#45;&gt;Node21 -->
<g id="edge22_Node000020_Node000021" class="edge">
<title>Node20&#45;&gt;Node21</title>
<g id="a_edge22_Node000020_Node000021"><a xlink:title=" ">
<path fill="none" stroke="#63b8ff" d="M1755.84,-44.66C1757.16,-35.93 1758.66,-25.99 1759.7,-19.09"/>
<polygon fill="#63b8ff" stroke="#63b8ff" points="1752.35,-44.34 1754.32,-54.75 1759.27,-45.38 1752.35,-44.34"/>
</a>
</g>
</g>
</g>
</svg>
