<?xml version="1.0" encoding="UTF-8" standalone="no"?>
<!DOCTYPE svg PUBLIC "-//W3C//DTD SVG 1.1//EN"
 "http://www.w3.org/Graphics/SVG/1.1/DTD/svg11.dtd">
<!-- Generated by graphviz version 9.0.0 (20230911.1827)
 -->
<!-- Title: Cpl/Io/InputOutput.h Pages: 1 -->
<svg width="1841pt" height="216pt"
 viewBox="0.00 0.00 1840.88 215.50" xmlns="http://www.w3.org/2000/svg" xmlns:xlink="http://www.w3.org/1999/xlink">
<g id="graph0" class="graph" transform="scale(1 1) rotate(0) translate(4 211.5)">
<title>Cpl/Io/InputOutput.h</title>
<!-- Node1 -->
<g id="Node000001" class="node">
<title>Node1</title>
<g id="a_Node000001"><a xlink:title=" ">
<polygon fill="#999999" stroke="#666666" points="754.5,-207.5 651.5,-207.5 651.5,-188.25 754.5,-188.25 754.5,-207.5"/>
<text text-anchor="middle" x="703" y="-194" font-family="Helvetica,sans-Serif" font-size="10.00">Cpl/Io/InputOutput.h</text>
</a>
</g>
</g>
<!-- Node2 -->
<g id="Node000002" class="node">
<title>Node2</title>
<g id="a_Node000002"><a xlink:href="_input_output_api_8h.html" target="_top" xlink:title=" ">
<polygon fill="white" stroke="#666666" points="136,-146.62 0,-146.62 0,-127.38 136,-127.38 136,-146.62"/>
<text text-anchor="middle" x="68" y="-133.12" font-family="Helvetica,sans-Serif" font-size="10.00">Cpl/Io/File/InputOutputApi.h</text>
</a>
</g>
</g>
<!-- Node1&#45;&gt;Node2 -->
<g id="edge1_Node000001_Node000002" class="edge">
<title>Node1&#45;&gt;Node2</title>
<g id="a_edge1_Node000001_Node000002"><a xlink:title=" ">
<path fill="none" stroke="#63b8ff" d="M639.77,-193.95C536.09,-188.67 323.58,-175.85 145,-152.25 134.49,-150.86 123.23,-149 112.66,-147.07"/>
<polygon fill="#63b8ff" stroke="#63b8ff" points="639.59,-197.44 649.76,-194.45 639.95,-190.45 639.59,-197.44"/>
</a>
</g>
</g>
<!-- Node5 -->
<g id="Node000005" class="node">
<title>Node5</title>
<g id="a_Node000005"><a xlink:href="_cpl_2_io_2_null_8h.html" target="_top" xlink:title=" ">
<polygon fill="white" stroke="#666666" points="223.62,-146.62 154.38,-146.62 154.38,-127.38 223.62,-127.38 223.62,-146.62"/>
<text text-anchor="middle" x="189" y="-133.12" font-family="Helvetica,sans-Serif" font-size="10.00">Cpl/Io/Null.h</text>
</a>
</g>
</g>
<!-- Node1&#45;&gt;Node5 -->
<g id="edge4_Node000001_Node000005" class="edge">
<title>Node1&#45;&gt;Node5</title>
<g id="a_edge4_Node000001_Node000005"><a xlink:title=" ">
<path fill="none" stroke="#63b8ff" d="M639.87,-195.25C549.04,-191.93 376.6,-181.95 233,-152.25 226.71,-150.95 220.05,-149.07 213.88,-147.1"/>
<polygon fill="#63b8ff" stroke="#63b8ff" points="639.71,-198.75 649.82,-195.6 639.95,-191.75 639.71,-198.75"/>
</a>
</g>
</g>
<!-- Node6 -->
<g id="Node000006" class="node">
<title>Node6</title>
<g id="a_Node000006"><a xlink:href="_ram_2_input_output_8h.html" target="_top" xlink:title=" ">
<polygon fill="white" stroke="#666666" points="368.12,-146.62 241.88,-146.62 241.88,-127.38 368.12,-127.38 368.12,-146.62"/>
<text text-anchor="middle" x="305" y="-133.12" font-family="Helvetica,sans-Serif" font-size="10.00">Cpl/Io/Ram/InputOutput.h</text>
</a>
</g>
</g>
<!-- Node1&#45;&gt;Node6 -->
<g id="edge5_Node000001_Node000006" class="edge">
<title>Node1&#45;&gt;Node6</title>
<g id="a_edge5_Node000001_Node000006"><a xlink:title=" ">
<path fill="none" stroke="#63b8ff" d="M639.79,-189.35C573.99,-181.25 468.02,-167.47 377,-152.25 367.83,-150.72 358.03,-148.9 348.71,-147.08"/>
<polygon fill="#63b8ff" stroke="#63b8ff" points="639.34,-192.82 649.69,-190.56 640.19,-185.87 639.34,-192.82"/>
</a>
</g>
</g>
<!-- Node7 -->
<g id="Node000007" class="node">
<title>Node7</title>
<g id="a_Node000007"><a xlink:href="_serial_2_adafruit_2_nrf5_2_b_l_e_2_input_output_8h.html" target="_top" xlink:title=" ">
<polygon fill="white" stroke="#666666" points="507.5,-152.25 386.5,-152.25 386.5,-121.75 507.5,-121.75 507.5,-152.25"/>
<text text-anchor="start" x="394.5" y="-138.75" font-family="Helvetica,sans-Serif" font-size="10.00">Cpl/Io/Serial/Adafruit</text>
<text text-anchor="middle" x="447" y="-127.5" font-family="Helvetica,sans-Serif" font-size="10.00">/Nrf5/BLE/InputOutput.h</text>
</a>
</g>
</g>
<!-- Node1&#45;&gt;Node7 -->
<g id="edge6_Node000001_Node000007" class="edge">
<title>Node1&#45;&gt;Node7</title>
<g id="a_edge6_Node000001_Node000007"><a xlink:title=" ">
<path fill="none" stroke="#63b8ff" d="M652.34,-185.23C610.85,-175.68 552.01,-162.15 507.94,-152.02"/>
<polygon fill="#63b8ff" stroke="#63b8ff" points="651.56,-188.64 662.09,-187.47 653.12,-181.81 651.56,-188.64"/>
</a>
</g>
</g>
<!-- Node8 -->
<g id="Node000008" class="node">
<title>Node8</title>
<g id="a_Node000008"><a xlink:href="_serial_2_adafruit_2_nrf5_2_input_output_8h.html" target="_top" xlink:title=" ">
<polygon fill="white" stroke="#666666" points="632,-152.25 526,-152.25 526,-121.75 632,-121.75 632,-152.25"/>
<text text-anchor="start" x="534" y="-138.75" font-family="Helvetica,sans-Serif" font-size="10.00">Cpl/Io/Serial/Adafruit</text>
<text text-anchor="middle" x="579" y="-127.5" font-family="Helvetica,sans-Serif" font-size="10.00">/Nrf5/InputOutput.h</text>
</a>
</g>
</g>
<!-- Node1&#45;&gt;Node8 -->
<g id="edge7_Node000001_Node000008" class="edge">
<title>Node1&#45;&gt;Node8</title>
<g id="a_edge7_Node000001_Node000008"><a xlink:title=" ">
<path fill="none" stroke="#63b8ff" d="M673.64,-182.93C654.45,-173.83 629.44,-161.95 609.95,-152.69"/>
<polygon fill="#63b8ff" stroke="#63b8ff" points="671.99,-186.03 682.53,-187.16 675,-179.7 671.99,-186.03"/>
</a>
</g>
</g>
<!-- Node9 -->
<g id="Node000009" class="node">
<title>Node9</title>
<g id="a_Node000009"><a xlink:href="_serial_2_arduino_2_input_output_8h.html" target="_top" xlink:title=" ">
<polygon fill="white" stroke="#666666" points="755.62,-152.25 650.38,-152.25 650.38,-121.75 755.62,-121.75 755.62,-152.25"/>
<text text-anchor="start" x="658.38" y="-138.75" font-family="Helvetica,sans-Serif" font-size="10.00">Cpl/Io/Serial/Arduino</text>
<text text-anchor="middle" x="703" y="-127.5" font-family="Helvetica,sans-Serif" font-size="10.00">/InputOutput.h</text>
</a>
</g>
</g>
<!-- Node1&#45;&gt;Node9 -->
<g id="edge8_Node000001_Node000009" class="edge">
<title>Node1&#45;&gt;Node9</title>
<g id="a_edge8_Node000001_Node000009"><a xlink:title=" ">
<path fill="none" stroke="#63b8ff" d="M703,-176.67C703,-168.74 703,-159.81 703,-152.53"/>
<polygon fill="#63b8ff" stroke="#63b8ff" points="699.5,-176.42 703,-186.42 706.5,-176.42 699.5,-176.42"/>
</a>
</g>
</g>
<!-- Node10 -->
<g id="Node000010" class="node">
<title>Node10</title>
<g id="a_Node000010"><a xlink:href="_serial_2_phony_stdio_2_input_output_8h.html" target="_top" xlink:title=" ">
<polygon fill="white" stroke="#666666" points="895.88,-152.25 774.12,-152.25 774.12,-121.75 895.88,-121.75 895.88,-152.25"/>
<text text-anchor="start" x="782.12" y="-138.75" font-family="Helvetica,sans-Serif" font-size="10.00">Cpl/Io/Serial/PhonyStdio</text>
<text text-anchor="middle" x="835" y="-127.5" font-family="Helvetica,sans-Serif" font-size="10.00">/InputOutput.h</text>
</a>
</g>
</g>
<!-- Node1&#45;&gt;Node10 -->
<g id="edge9_Node000001_Node000010" class="edge">
<title>Node1&#45;&gt;Node10</title>
<g id="a_edge9_Node000001_Node000010"><a xlink:title=" ">
<path fill="none" stroke="#63b8ff" d="M733.69,-183.19C754.18,-174.05 781.11,-162.04 802.05,-152.69"/>
<polygon fill="#63b8ff" stroke="#63b8ff" points="732.43,-179.92 724.72,-187.19 735.28,-186.31 732.43,-179.92"/>
</a>
</g>
</g>
<!-- Node11 -->
<g id="Node000011" class="node">
<title>Node11</title>
<g id="a_Node000011"><a xlink:href="_serial_2_s_t_2_m32_f4_2_input_output_8h.html" target="_top" xlink:title=" ">
<polygon fill="white" stroke="#666666" points="1184,-152.25 1066,-152.25 1066,-121.75 1184,-121.75 1184,-152.25"/>
<text text-anchor="start" x="1074" y="-138.75" font-family="Helvetica,sans-Serif" font-size="10.00">Cpl/Io/Serial/ST/M32F4</text>
<text text-anchor="middle" x="1125" y="-127.5" font-family="Helvetica,sans-Serif" font-size="10.00">/InputOutput.h</text>
</a>
</g>
</g>
<!-- Node1&#45;&gt;Node11 -->
<g id="edge10_Node000001_Node000011" class="edge">
<title>Node1&#45;&gt;Node11</title>
<g id="a_edge10_Node000001_Node000011"><a xlink:title=" ">
<path fill="none" stroke="#63b8ff" d="M766.19,-190.47C837.17,-182.92 955.72,-169.22 1057,-152.25 1059.86,-151.77 1062.77,-151.26 1065.72,-150.72"/>
<polygon fill="#63b8ff" stroke="#63b8ff" points="765.87,-186.99 756.29,-191.52 766.6,-193.95 765.87,-186.99"/>
</a>
</g>
</g>
<!-- Node15 -->
<g id="Node000015" class="node">
<title>Node15</title>
<g id="a_Node000015"><a xlink:href="_socket_2_input_output_8h.html" target="_top" xlink:title=" ">
<polygon fill="white" stroke="#666666" points="1380.38,-146.62 1243.62,-146.62 1243.62,-127.38 1380.38,-127.38 1380.38,-146.62"/>
<text text-anchor="middle" x="1312" y="-133.12" font-family="Helvetica,sans-Serif" font-size="10.00">Cpl/Io/Socket/InputOutput.h</text>
</a>
</g>
</g>
<!-- Node1&#45;&gt;Node15 -->
<g id="edge14_Node000001_Node000015" class="edge">
<title>Node1&#45;&gt;Node15</title>
<g id="a_edge14_Node000001_Node000015"><a xlink:title=" ">
<path fill="none" stroke="#63b8ff" d="M766.12,-191.7C859.49,-183.92 1039.89,-168.39 1193,-152.25 1209.24,-150.54 1226.71,-148.54 1243.13,-146.58"/>
<polygon fill="#63b8ff" stroke="#63b8ff" points="766.09,-188.19 756.41,-192.51 766.67,-195.17 766.09,-188.19"/>
</a>
</g>
</g>
<!-- Node19 -->
<g id="Node000019" class="node">
<title>Node19</title>
<g id="a_Node000019"><a xlink:href="_input_output___8h.html" target="_top" xlink:title=" ">
<polygon fill="white" stroke="#666666" points="1047.88,-146.62 914.12,-146.62 914.12,-127.38 1047.88,-127.38 1047.88,-146.62"/>
<text text-anchor="middle" x="981" y="-133.12" font-family="Helvetica,sans-Serif" font-size="10.00">Cpl/Io/Stdio/InputOutput_.h</text>
</a>
</g>
</g>
<!-- Node1&#45;&gt;Node19 -->
<g id="edge19_Node000001_Node000019" class="edge">
<title>Node1&#45;&gt;Node19</title>
<g id="a_edge19_Node000001_Node000019"><a xlink:title=" ">
<path fill="none" stroke="#63b8ff" d="M757.02,-185.44C809.91,-174.23 889.43,-157.39 938.12,-147.08"/>
<polygon fill="#63b8ff" stroke="#63b8ff" points="756.37,-182 747.31,-187.49 757.82,-188.84 756.37,-182"/>
</a>
</g>
</g>
<!-- Node20 -->
<g id="Node000020" class="node">
<title>Node20</title>
<g id="a_Node000020"><a xlink:href="_tcp_2_input_output_8h.html" target="_top" xlink:title=" ">
<polygon fill="white" stroke="#666666" points="1634.25,-146.62 1511.75,-146.62 1511.75,-127.38 1634.25,-127.38 1634.25,-146.62"/>
<text text-anchor="middle" x="1573" y="-133.12" font-family="Helvetica,sans-Serif" font-size="10.00">Cpl/Io/Tcp/InputOutput.h</text>
</a>
</g>
</g>
<!-- Node1&#45;&gt;Node20 -->
<g id="edge21_Node000001_Node000020" class="edge">
<title>Node1&#45;&gt;Node20</title>
<g id="a_edge21_Node000001_Node000020"><a xlink:title=" ">
<path fill="none" stroke="#63b8ff" d="M765.85,-193.05C886.63,-185.63 1159.5,-168.6 1389,-152.25 1429.75,-149.35 1475.55,-145.8 1511.26,-142.97"/>
<polygon fill="#63b8ff" stroke="#63b8ff" points="765.93,-189.54 756.16,-193.64 766.35,-196.52 765.93,-189.54"/>
</a>
</g>
</g>
<!-- Node3 -->
<g id="Node000003" class="node">
<title>Node3</title>
<g id="a_Node000003"><a xlink:href="_file_2_input_output_8h.html" target="_top" xlink:title=" ">
<polygon fill="white" stroke="#666666" points="515.88,-80.12 394.12,-80.12 394.12,-60.88 515.88,-60.88 515.88,-80.12"/>
<text text-anchor="middle" x="455" y="-66.62" font-family="Helvetica,sans-Serif" font-size="10.00">Cpl/Io/File/InputOutput.h</text>
</a>
</g>
</g>
<!-- Node2&#45;&gt;Node3 -->
<g id="edge2_Node000002_Node000003" class="edge">
<title>Node2&#45;&gt;Node3</title>
<g id="a_edge2_Node000002_Node000003"><a xlink:title=" ">
<path fill="none" stroke="#63b8ff" d="M126.94,-124.95C133.03,-123.85 139.14,-122.77 145,-121.75 232.43,-106.58 333.98,-90.39 396.37,-80.6"/>
<polygon fill="#63b8ff" stroke="#63b8ff" points="126.73,-121.43 117.52,-126.67 127.98,-128.32 126.73,-121.43"/>
</a>
</g>
</g>
<!-- Node4 -->
<g id="Node000004" class="node">
<title>Node4</title>
<g id="a_Node000004"><a xlink:href="_cpl_2_io_2_file_2_null_8h.html" target="_top" xlink:title=" ">
<polygon fill="white" stroke="#666666" points="112,-80.12 24,-80.12 24,-60.88 112,-60.88 112,-80.12"/>
<text text-anchor="middle" x="68" y="-66.62" font-family="Helvetica,sans-Serif" font-size="10.00">Cpl/Io/File/Null.h</text>
</a>
</g>
</g>
<!-- Node2&#45;&gt;Node4 -->
<g id="edge3_Node000002_Node000004" class="edge">
<title>Node2&#45;&gt;Node4</title>
<g id="a_edge3_Node000002_Node000004"><a xlink:title=" ">
<path fill="none" stroke="#63b8ff" d="M68,-115.52C68,-103.69 68,-89.41 68,-80.39"/>
<polygon fill="#63b8ff" stroke="#63b8ff" points="64.5,-115.52 68,-125.52 71.5,-115.52 64.5,-115.52"/>
</a>
</g>
</g>
<!-- Node12 -->
<g id="Node000012" class="node">
<title>Node12</title>
<g id="a_Node000012"><a xlink:href="_bsp_2_initech_2alpha1_2console_2_output_8h.html" target="_top" xlink:title=" ">
<polygon fill="white" stroke="#666666" points="894.5,-85.75 797.5,-85.75 797.5,-55.25 894.5,-55.25 894.5,-85.75"/>
<text text-anchor="start" x="805.5" y="-72.25" font-family="Helvetica,sans-Serif" font-size="10.00">Bsp/Initech/alpha1</text>
<text text-anchor="middle" x="846" y="-61" font-family="Helvetica,sans-Serif" font-size="10.00">/console/Output.h</text>
</a>
</g>
</g>
<!-- Node11&#45;&gt;Node12 -->
<g id="edge11_Node000011_Node000012" class="edge">
<title>Node11&#45;&gt;Node12</title>
<g id="a_edge11_Node000011_Node000012"><a xlink:title=" ">
<path fill="none" stroke="#63b8ff" d="M1054.47,-120.46C1010.79,-110.73 953.57,-97.79 903,-85.75 900.32,-85.11 897.57,-84.45 894.8,-83.78"/>
<polygon fill="#63b8ff" stroke="#63b8ff" points="1053.56,-123.84 1064.08,-122.59 1055.08,-117.01 1053.56,-123.84"/>
</a>
</g>
</g>
<!-- Node13 -->
<g id="Node000013" class="node">
<title>Node13</title>
<g id="a_Node000013"><a xlink:href="_bsp_2_s_t_2_n_u_c_l_e_o-_f413_z_h_2alpha1_2console_2_output_8h.html" target="_top" xlink:title=" ">
<polygon fill="white" stroke="#666666" points="1043.75,-85.75 912.25,-85.75 912.25,-55.25 1043.75,-55.25 1043.75,-85.75"/>
<text text-anchor="start" x="920.25" y="-72.25" font-family="Helvetica,sans-Serif" font-size="10.00">Bsp/ST/NUCLEO&#45;F413ZH</text>
<text text-anchor="middle" x="978" y="-61" font-family="Helvetica,sans-Serif" font-size="10.00">/alpha1/console/Output.h</text>
</a>
</g>
</g>
<!-- Node11&#45;&gt;Node13 -->
<g id="edge12_Node000011_Node000013" class="edge">
<title>Node11&#45;&gt;Node13</title>
<g id="a_edge12_Node000011_Node000013"><a xlink:title=" ">
<path fill="none" stroke="#63b8ff" d="M1081.39,-116.87C1059.02,-107.05 1032.2,-95.28 1011.48,-86.19"/>
<polygon fill="#63b8ff" stroke="#63b8ff" points="1079.69,-119.94 1090.26,-120.76 1082.51,-113.53 1079.69,-119.94"/>
</a>
</g>
</g>
<!-- Node14 -->
<g id="Node000014" class="node">
<title>Node14</title>
<g id="a_Node000014"><a xlink:href="_bsp_2_s_t_2_n_u_c_l_e_o-_f767_z_i_2alpha1_2console_2_output_8h.html" target="_top" xlink:title=" ">
<polygon fill="white" stroke="#666666" points="1188.5,-85.75 1061.5,-85.75 1061.5,-55.25 1188.5,-55.25 1188.5,-85.75"/>
<text text-anchor="start" x="1069.5" y="-72.25" font-family="Helvetica,sans-Serif" font-size="10.00">Bsp/ST/NUCLEO&#45;F767ZI</text>
<text text-anchor="middle" x="1125" y="-61" font-family="Helvetica,sans-Serif" font-size="10.00">/alpha1/console/Output.h</text>
</a>
</g>
</g>
<!-- Node11&#45;&gt;Node14 -->
<g id="edge13_Node000011_Node000014" class="edge">
<title>Node11&#45;&gt;Node14</title>
<g id="a_edge13_Node000011_Node000014"><a xlink:title=" ">
<path fill="none" stroke="#63b8ff" d="M1125,-110.06C1125,-101.89 1125,-93.16 1125,-86.08"/>
<polygon fill="#63b8ff" stroke="#63b8ff" points="1121.5,-109.85 1125,-119.85 1128.5,-109.85 1121.5,-109.85"/>
</a>
</g>
</g>
<!-- Node16 -->
<g id="Node000016" class="node">
<title>Node16</title>
<g id="a_Node000016"><a xlink:href="_factory_8h.html" target="_top" xlink:title=" ">
<polygon fill="white" stroke="#666666" points="1325,-80.12 1207,-80.12 1207,-60.88 1325,-60.88 1325,-80.12"/>
<text text-anchor="middle" x="1266" y="-66.62" font-family="Helvetica,sans-Serif" font-size="10.00">Cpl/Io/Socket/Factory.h</text>
</a>
</g>
</g>
<!-- Node15&#45;&gt;Node16 -->
<g id="edge15_Node000015_Node000016" class="edge">
<title>Node15&#45;&gt;Node16</title>
<g id="a_edge15_Node000015_Node000016"><a xlink:title=" ">
<path fill="none" stroke="#63b8ff" d="M1298.99,-117.75C1290.27,-105.54 1279.19,-89.99 1272.34,-80.39"/>
<polygon fill="#63b8ff" stroke="#63b8ff" points="1296.07,-119.69 1304.73,-125.8 1301.77,-115.63 1296.07,-119.69"/>
</a>
</g>
</g>
<!-- Node17 -->
<g id="Node000017" class="node">
<title>Node17</title>
<g id="a_Node000017"><a xlink:href="_stream_pool_8h.html" target="_top" xlink:title=" ">
<polygon fill="white" stroke="#666666" points="1378.38,-19.25 1241.62,-19.25 1241.62,0 1378.38,0 1378.38,-19.25"/>
<text text-anchor="middle" x="1310" y="-5.75" font-family="Helvetica,sans-Serif" font-size="10.00">Cpl/Io/Socket/StreamPool.h</text>
</a>
</g>
</g>
<!-- Node15&#45;&gt;Node17 -->
<g id="edge17_Node000015_Node000017" class="edge">
<title>Node15&#45;&gt;Node17</title>
<g id="a_edge17_Node000015_Node000017"><a xlink:title=" ">
<path fill="none" stroke="#63b8ff" d="M1322.44,-117.19C1326.96,-108.01 1331.73,-96.62 1334,-85.75 1336.78,-72.48 1337.31,-68.4 1334,-55.25 1330.65,-41.94 1322.47,-28.28 1316.59,-19.64"/>
<polygon fill="#63b8ff" stroke="#63b8ff" points="1319.49,-115.3 1317.94,-125.78 1325.69,-118.54 1319.49,-115.3"/>
</a>
</g>
</g>
<!-- Node18 -->
<g id="Node000018" class="node">
<title>Node18</title>
<g id="a_Node000018"><a xlink:href="_socket_8h.html" target="_top" xlink:title=" ">
<polygon fill="white" stroke="#666666" points="1483.12,-80.12 1380.88,-80.12 1380.88,-60.88 1483.12,-60.88 1483.12,-80.12"/>
<text text-anchor="middle" x="1432" y="-66.62" font-family="Helvetica,sans-Serif" font-size="10.00">Cpl/TShell/Socket.h</text>
</a>
</g>
</g>
<!-- Node15&#45;&gt;Node18 -->
<g id="edge18_Node000015_Node000018" class="edge">
<title>Node15&#45;&gt;Node18</title>
<g id="a_edge18_Node000015_Node000018"><a xlink:title=" ">
<path fill="none" stroke="#63b8ff" d="M1338.9,-121.54C1362.26,-108.99 1395.35,-91.2 1415.15,-80.56"/>
<polygon fill="#63b8ff" stroke="#63b8ff" points="1337.42,-118.36 1330.27,-126.18 1340.74,-124.53 1337.42,-118.36"/>
</a>
</g>
</g>
<!-- Node16&#45;&gt;Node17 -->
<g id="edge16_Node000016_Node000017" class="edge">
<title>Node16&#45;&gt;Node17</title>
<g id="a_edge16_Node000016_Node000017"><a xlink:title=" ">
<path fill="none" stroke="#63b8ff" d="M1279.54,-51.39C1287.4,-40.86 1296.97,-28.07 1303.25,-19.65"/>
<polygon fill="#63b8ff" stroke="#63b8ff" points="1276.77,-49.24 1273.59,-59.35 1282.38,-53.43 1276.77,-49.24"/>
</a>
</g>
</g>
<!-- Node19&#45;&gt;Node3 -->
<g id="edge20_Node000019_Node000003" class="edge">
<title>Node19&#45;&gt;Node3</title>
<g id="a_edge20_Node000019_Node000003"><a xlink:title=" ">
<path fill="none" stroke="#63b8ff" d="M924.65,-124.95C918.04,-123.8 911.38,-122.7 905,-121.75 766.61,-101.08 603.11,-84.86 516.33,-76.89"/>
<polygon fill="#63b8ff" stroke="#63b8ff" points="923.73,-128.34 934.19,-126.67 924.97,-121.45 923.73,-128.34"/>
</a>
</g>
</g>
<!-- Node21 -->
<g id="Node000021" class="node">
<title>Node21</title>
<g id="a_Node000021"><a xlink:href="_async_connector_8h.html" target="_top" xlink:title=" ">
<polygon fill="white" stroke="#666666" points="1644.38,-80.12 1501.62,-80.12 1501.62,-60.88 1644.38,-60.88 1644.38,-80.12"/>
<text text-anchor="middle" x="1573" y="-66.62" font-family="Helvetica,sans-Serif" font-size="10.00">Cpl/Io/Tcp/AsyncConnector.h</text>
</a>
</g>
</g>
<!-- Node20&#45;&gt;Node21 -->
<g id="edge22_Node000020_Node000021" class="edge">
<title>Node20&#45;&gt;Node21</title>
<g id="a_edge22_Node000020_Node000021"><a xlink:title=" ">
<path fill="none" stroke="#63b8ff" d="M1573,-115.52C1573,-103.69 1573,-89.41 1573,-80.39"/>
<polygon fill="#63b8ff" stroke="#63b8ff" points="1569.5,-115.52 1573,-125.52 1576.5,-115.52 1569.5,-115.52"/>
</a>
</g>
</g>
<!-- Node23 -->
<g id="Node000023" class="node">
<title>Node23</title>
<g id="a_Node000023"><a xlink:href="_async_listener_8h.html" target="_top" xlink:title=" ">
<polygon fill="white" stroke="#666666" points="1810.88,-80.12 1677.12,-80.12 1677.12,-60.88 1810.88,-60.88 1810.88,-80.12"/>
<text text-anchor="middle" x="1744" y="-66.62" font-family="Helvetica,sans-Serif" font-size="10.00">Cpl/Io/Tcp/AsyncListener.h</text>
</a>
</g>
</g>
<!-- Node20&#45;&gt;Node23 -->
<g id="edge24_Node000020_Node000023" class="edge">
<title>Node20&#45;&gt;Node23</title>
<g id="a_edge24_Node000020_Node000023"><a xlink:title=" ">
<path fill="none" stroke="#63b8ff" d="M1607.79,-122.88C1641.19,-110.28 1690.76,-91.58 1719.99,-80.56"/>
<polygon fill="#63b8ff" stroke="#63b8ff" points="1606.67,-119.56 1598.55,-126.36 1609.15,-126.11 1606.67,-119.56"/>
</a>
</g>
</g>
<!-- Node22 -->
<g id="Node000022" class="node">
<title>Node22</title>
<g id="a_Node000022"><a xlink:href="_win32_2_async_connector_8h.html" target="_top" xlink:title=" ">
<polygon fill="white" stroke="#666666" points="1651.38,-19.25 1478.62,-19.25 1478.62,0 1651.38,0 1651.38,-19.25"/>
<text text-anchor="middle" x="1565" y="-5.75" font-family="Helvetica,sans-Serif" font-size="10.00">Cpl/Io/Tcp/Win32/AsyncConnector.h</text>
</a>
</g>
</g>
<!-- Node21&#45;&gt;Node22 -->
<g id="edge23_Node000021_Node000022" class="edge">
<title>Node21&#45;&gt;Node22</title>
<g id="a_edge23_Node000021_Node000022"><a xlink:title=" ">
<path fill="none" stroke="#63b8ff" d="M1570.27,-49.41C1568.9,-39.3 1567.3,-27.55 1566.23,-19.65"/>
<polygon fill="#63b8ff" stroke="#63b8ff" points="1566.77,-49.62 1571.58,-59.06 1573.7,-48.68 1566.77,-49.62"/>
</a>
</g>
</g>
<!-- Node24 -->
<g id="Node000024" class="node">
<title>Node24</title>
<g id="a_Node000024"><a xlink:href="_win32_2_async_listener_8h.html" target="_top" xlink:title=" ">
<polygon fill="white" stroke="#666666" points="1832.88,-19.25 1669.12,-19.25 1669.12,0 1832.88,0 1832.88,-19.25"/>
<text text-anchor="middle" x="1751" y="-5.75" font-family="Helvetica,sans-Serif" font-size="10.00">Cpl/Io/Tcp/Win32/AsyncListener.h</text>
</a>
</g>
</g>
<!-- Node23&#45;&gt;Node24 -->
<g id="edge25_Node000023_Node000024" class="edge">
<title>Node23&#45;&gt;Node24</title>
<g id="a_edge25_Node000023_Node000024"><a xlink:title=" ">
<path fill="none" stroke="#63b8ff" d="M1746.39,-49.41C1747.59,-39.3 1748.99,-27.55 1749.93,-19.65"/>
<polygon fill="#63b8ff" stroke="#63b8ff" points="1742.95,-48.71 1745.24,-59.06 1749.9,-49.54 1742.95,-48.71"/>
</a>
</g>
</g>
</g>
</svg>
