<?xml version="1.0" encoding="UTF-8" standalone="no"?>
<!DOCTYPE svg PUBLIC "-//W3C//DTD SVG 1.1//EN"
 "http://www.w3.org/Graphics/SVG/1.1/DTD/svg11.dtd">
<!-- Generated by graphviz version 9.0.0 (20230911.1827)
 -->
<!-- Title: Cpl/Io/Stdio/InputOutput_.h Pages: 1 -->
<svg width="482pt" height="359pt"
 viewBox="0.00 0.00 482.00 358.75" xmlns="http://www.w3.org/2000/svg" xmlns:xlink="http://www.w3.org/1999/xlink">
<g id="graph0" class="graph" transform="scale(1 1) rotate(0) translate(4 354.75)">
<title>Cpl/Io/Stdio/InputOutput_.h</title>
<!-- Node1 -->
<g id="Node000001" class="node">
<title>Node1</title>
<g id="a_Node000001"><a xlink:title=" ">
<polygon fill="#999999" stroke="#666666" points="332.12,-350.75 198.38,-350.75 198.38,-331.5 332.12,-331.5 332.12,-350.75"/>
<text text-anchor="middle" x="265.25" y="-337.25" font-family="Helvetica,sans-Serif" font-size="10.00">Cpl/Io/Stdio/InputOutput_.h</text>
</a>
</g>
</g>
<!-- Node2 -->
<g id="Node000002" class="node">
<title>Node2</title>
<g id="a_Node000002"><a xlink:href="_input_output_8h.html" target="_top" xlink:title=" ">
<polygon fill="white" stroke="#666666" points="194.75,-295.5 91.75,-295.5 91.75,-276.25 194.75,-276.25 194.75,-295.5"/>
<text text-anchor="middle" x="143.25" y="-282" font-family="Helvetica,sans-Serif" font-size="10.00">Cpl/Io/InputOutput.h</text>
</a>
</g>
</g>
<!-- Node1&#45;&gt;Node2 -->
<g id="edge1_Node000001_Node000002" class="edge">
<title>Node1&#45;&gt;Node2</title>
<g id="a_edge1_Node000001_Node000002"><a xlink:title=" ">
<path fill="none" stroke="#63b8ff" d="M244.55,-331.09C225.36,-322.72 196.54,-310.13 174.53,-300.53"/>
<polygon fill="#63b8ff" stroke="#63b8ff" points="176,-297.35 165.43,-296.56 173.2,-303.77 176,-297.35"/>
</a>
</g>
</g>
<!-- Node18 -->
<g id="Node000018" class="node">
<title>Node18</title>
<g id="a_Node000018"><a xlink:href="_input___8h.html" target="_top" xlink:title=" ">
<polygon fill="white" stroke="#666666" points="317.5,-295.5 213,-295.5 213,-276.25 317.5,-276.25 317.5,-295.5"/>
<text text-anchor="middle" x="265.25" y="-282" font-family="Helvetica,sans-Serif" font-size="10.00">Cpl/Io/Stdio/Input_.h</text>
</a>
</g>
</g>
<!-- Node1&#45;&gt;Node18 -->
<g id="edge22_Node000001_Node000018" class="edge">
<title>Node1&#45;&gt;Node18</title>
<g id="a_edge22_Node000001_Node000018"><a xlink:title=" ">
<path fill="none" stroke="#63b8ff" d="M265.25,-331.33C265.25,-324.82 265.25,-315.67 265.25,-307.37"/>
<polygon fill="#63b8ff" stroke="#63b8ff" points="268.75,-307.37 265.25,-297.37 261.75,-307.37 268.75,-307.37"/>
</a>
</g>
</g>
<!-- Node20 -->
<g id="Node000020" class="node">
<title>Node20</title>
<g id="a_Node000020"><a xlink:href="_output___8h.html" target="_top" xlink:title=" ">
<polygon fill="white" stroke="#666666" points="447.25,-295.5 335.25,-295.5 335.25,-276.25 447.25,-276.25 447.25,-295.5"/>
<text text-anchor="middle" x="391.25" y="-282" font-family="Helvetica,sans-Serif" font-size="10.00">Cpl/Io/Stdio/Output_.h</text>
</a>
</g>
</g>
<!-- Node1&#45;&gt;Node20 -->
<g id="edge25_Node000001_Node000020" class="edge">
<title>Node1&#45;&gt;Node20</title>
<g id="a_edge25_Node000001_Node000020"><a xlink:title=" ">
<path fill="none" stroke="#63b8ff" d="M286.62,-331.09C306.54,-322.68 336.49,-310.02 359.25,-300.4"/>
<polygon fill="#63b8ff" stroke="#63b8ff" points="360.53,-303.66 368.38,-296.54 357.8,-297.21 360.53,-303.66"/>
</a>
</g>
</g>
<!-- Node3 -->
<g id="Node000003" class="node">
<title>Node3</title>
<g id="a_Node000003"><a xlink:href="_input_8h.html" target="_top" xlink:title=" ">
<polygon fill="white" stroke="#666666" points="202.12,-240.25 128.38,-240.25 128.38,-221 202.12,-221 202.12,-240.25"/>
<text text-anchor="middle" x="165.25" y="-226.75" font-family="Helvetica,sans-Serif" font-size="10.00">Cpl/Io/Input.h</text>
</a>
</g>
</g>
<!-- Node2&#45;&gt;Node3 -->
<g id="edge2_Node000002_Node000003" class="edge">
<title>Node2&#45;&gt;Node3</title>
<g id="a_edge2_Node000002_Node000003"><a xlink:title=" ">
<path fill="none" stroke="#63b8ff" d="M146.88,-276.08C149.67,-269.34 153.62,-259.77 157.15,-251.24"/>
<polygon fill="#63b8ff" stroke="#63b8ff" points="160.38,-252.59 160.96,-242.01 153.91,-249.91 160.38,-252.59"/>
</a>
</g>
</g>
<!-- Node17 -->
<g id="Node000017" class="node">
<title>Node17</title>
<g id="a_Node000017"><a xlink:href="_cpl_2_io_2_output_8h.html" target="_top" xlink:title=" ">
<polygon fill="white" stroke="#666666" points="303.88,-240.25 222.62,-240.25 222.62,-221 303.88,-221 303.88,-240.25"/>
<text text-anchor="middle" x="263.25" y="-226.75" font-family="Helvetica,sans-Serif" font-size="10.00">Cpl/Io/Output.h</text>
</a>
</g>
</g>
<!-- Node2&#45;&gt;Node17 -->
<g id="edge17_Node000002_Node000017" class="edge">
<title>Node2&#45;&gt;Node17</title>
<g id="a_edge17_Node000002_Node000017"><a xlink:title=" ">
<path fill="none" stroke="#63b8ff" d="M163.61,-275.84C182.48,-267.47 210.84,-254.88 232.48,-245.28"/>
<polygon fill="#63b8ff" stroke="#63b8ff" points="233.69,-248.57 241.41,-241.32 230.85,-242.17 233.69,-248.57"/>
</a>
</g>
</g>
<!-- Node4 -->
<g id="Node000004" class="node">
<title>Node4</title>
<g id="a_Node000004"><a xlink:href="_text_2_string_8h.html" target="_top" xlink:title=" ">
<polygon fill="white" stroke="#666666" points="309.25,-185 221.25,-185 221.25,-165.75 309.25,-165.75 309.25,-185"/>
<text text-anchor="middle" x="265.25" y="-171.5" font-family="Helvetica,sans-Serif" font-size="10.00">Cpl/Text/String.h</text>
</a>
</g>
</g>
<!-- Node3&#45;&gt;Node4 -->
<g id="edge3_Node000003_Node000004" class="edge">
<title>Node3&#45;&gt;Node4</title>
<g id="a_edge3_Node000003_Node000004"><a xlink:title=" ">
<path fill="none" stroke="#63b8ff" d="M182.21,-220.59C197.51,-212.44 220.28,-200.32 238.11,-190.83"/>
<polygon fill="#63b8ff" stroke="#63b8ff" points="239.69,-193.95 246.87,-186.16 236.4,-187.77 239.69,-193.95"/>
</a>
</g>
</g>
<!-- Node14 -->
<g id="Node000014" class="node">
<title>Node14</title>
<g id="a_Node000014"><a xlink:href="_close_8h.html" target="_top" xlink:title=" ">
<polygon fill="white" stroke="#666666" points="108.62,-185 31.88,-185 31.88,-165.75 108.62,-165.75 108.62,-185"/>
<text text-anchor="middle" x="70.25" y="-171.5" font-family="Helvetica,sans-Serif" font-size="10.00">Cpl/Io/Close.h</text>
</a>
</g>
</g>
<!-- Node3&#45;&gt;Node14 -->
<g id="edge14_Node000003_Node000014" class="edge">
<title>Node3&#45;&gt;Node14</title>
<g id="a_edge14_Node000003_Node000014"><a xlink:title=" ">
<path fill="none" stroke="#63b8ff" d="M149.13,-220.59C134.67,-212.48 113.17,-200.43 96.27,-190.96"/>
<polygon fill="#63b8ff" stroke="#63b8ff" points="98.2,-188.03 87.76,-186.19 94.78,-194.14 98.2,-188.03"/>
</a>
</g>
</g>
<!-- Node16 -->
<g id="Node000016" class="node">
<title>Node16</title>
<g id="a_Node000016"><a xlink:href="_is_eos_8h.html" target="_top" xlink:title=" ">
<polygon fill="white" stroke="#666666" points="203.62,-185 126.88,-185 126.88,-165.75 203.62,-165.75 203.62,-185"/>
<text text-anchor="middle" x="165.25" y="-171.5" font-family="Helvetica,sans-Serif" font-size="10.00">Cpl/Io/IsEos.h</text>
</a>
</g>
</g>
<!-- Node3&#45;&gt;Node16 -->
<g id="edge16_Node000003_Node000016" class="edge">
<title>Node3&#45;&gt;Node16</title>
<g id="a_edge16_Node000003_Node000016"><a xlink:title=" ">
<path fill="none" stroke="#63b8ff" d="M165.25,-220.83C165.25,-214.32 165.25,-205.17 165.25,-196.87"/>
<polygon fill="#63b8ff" stroke="#63b8ff" points="168.75,-196.87 165.25,-186.87 161.75,-196.87 168.75,-196.87"/>
</a>
</g>
</g>
<!-- Node5 -->
<g id="Node000005" class="node">
<title>Node5</title>
<g id="a_Node000005"><a xlink:title=" ">
<polygon fill="#e0e0e0" stroke="#999999" points="205.88,-74.5 130.62,-74.5 130.62,-55.25 205.88,-55.25 205.88,-74.5"/>
<text text-anchor="middle" x="168.25" y="-61" font-family="Helvetica,sans-Serif" font-size="10.00">colony_map.h</text>
</a>
</g>
</g>
<!-- Node4&#45;&gt;Node5 -->
<g id="edge4_Node000004_Node000005" class="edge">
<title>Node4&#45;&gt;Node5</title>
<g id="a_edge4_Node000004_Node000005"><a xlink:title=" ">
<path fill="none" stroke="#63b8ff" d="M256.44,-165.26C247.86,-156.31 234.5,-142.24 223.25,-129.75 209.36,-114.32 193.98,-96.38 183.02,-83.45"/>
<polygon fill="#63b8ff" stroke="#63b8ff" points="185.7,-81.2 176.58,-75.82 180.35,-85.72 185.7,-81.2"/>
</a>
</g>
</g>
<!-- Node6 -->
<g id="Node000006" class="node">
<title>Node6</title>
<g id="a_Node000006"><a xlink:href="_key_8h.html" target="_top" xlink:title=" ">
<polygon fill="white" stroke="#666666" points="334,-129.75 232.5,-129.75 232.5,-110.5 334,-110.5 334,-129.75"/>
<text text-anchor="middle" x="283.25" y="-116.25" font-family="Helvetica,sans-Serif" font-size="10.00">Cpl/Container/Key.h</text>
</a>
</g>
</g>
<!-- Node4&#45;&gt;Node6 -->
<g id="edge5_Node000004_Node000006" class="edge">
<title>Node4&#45;&gt;Node6</title>
<g id="a_edge5_Node000004_Node000006"><a xlink:title=" ">
<path fill="none" stroke="#63b8ff" d="M268.22,-165.58C270.5,-158.84 273.74,-149.27 276.62,-140.74"/>
<polygon fill="#63b8ff" stroke="#63b8ff" points="279.84,-142.14 279.73,-131.54 273.21,-139.9 279.84,-142.14"/>
</a>
</g>
</g>
<!-- Node12 -->
<g id="Node000012" class="node">
<title>Node12</title>
<g id="a_Node000012"><a xlink:title=" ">
<polygon fill="#e0e0e0" stroke="#999999" points="402.5,-129.75 352,-129.75 352,-110.5 402.5,-110.5 402.5,-129.75"/>
<text text-anchor="middle" x="377.25" y="-116.25" font-family="Helvetica,sans-Serif" font-size="10.00">stdarg.h</text>
</a>
</g>
</g>
<!-- Node4&#45;&gt;Node12 -->
<g id="edge12_Node000004_Node000012" class="edge">
<title>Node4&#45;&gt;Node12</title>
<g id="a_edge12_Node000004_Node000012"><a xlink:title=" ">
<path fill="none" stroke="#63b8ff" d="M284.25,-165.34C301.71,-157.04 327.85,-144.61 347.97,-135.04"/>
<polygon fill="#63b8ff" stroke="#63b8ff" points="349.26,-138.31 356.79,-130.85 346.26,-131.99 349.26,-138.31"/>
</a>
</g>
</g>
<!-- Node13 -->
<g id="Node000013" class="node">
<title>Node13</title>
<g id="a_Node000013"><a xlink:title=" ">
<polygon fill="#e0e0e0" stroke="#999999" points="176,-129.75 122.5,-129.75 122.5,-110.5 176,-110.5 176,-129.75"/>
<text text-anchor="middle" x="149.25" y="-116.25" font-family="Helvetica,sans-Serif" font-size="10.00">iostream</text>
</a>
</g>
</g>
<!-- Node4&#45;&gt;Node13 -->
<g id="edge13_Node000004_Node000013" class="edge">
<title>Node4&#45;&gt;Node13</title>
<g id="a_edge13_Node000004_Node000013"><a xlink:title=" ">
<path fill="none" stroke="#63b8ff" d="M245.57,-165.34C227.41,-157 200.17,-144.5 179.28,-134.91"/>
<polygon fill="#63b8ff" stroke="#63b8ff" points="180.95,-131.83 170.4,-130.83 178.03,-138.19 180.95,-131.83"/>
</a>
</g>
</g>
<!-- Node6&#45;&gt;Node5 -->
<g id="edge11_Node000006_Node000005" class="edge">
<title>Node6&#45;&gt;Node5</title>
<g id="a_edge11_Node000006_Node000005"><a xlink:title=" ">
<path fill="none" stroke="#63b8ff" d="M263.74,-110.09C245.73,-101.75 218.73,-89.25 198.02,-79.66"/>
<polygon fill="#63b8ff" stroke="#63b8ff" points="199.77,-76.61 189.23,-75.59 196.83,-82.97 199.77,-76.61"/>
</a>
</g>
</g>
<!-- Node7 -->
<g id="Node000007" class="node">
<title>Node7</title>
<g id="a_Node000007"><a xlink:href="_fatal_error_8h.html" target="_top" xlink:title=" ">
<polygon fill="white" stroke="#666666" points="342.62,-74.5 223.88,-74.5 223.88,-55.25 342.62,-55.25 342.62,-74.5"/>
<text text-anchor="middle" x="283.25" y="-61" font-family="Helvetica,sans-Serif" font-size="10.00">Cpl/System/FatalError.h</text>
</a>
</g>
</g>
<!-- Node6&#45;&gt;Node7 -->
<g id="edge6_Node000006_Node000007" class="edge">
<title>Node6&#45;&gt;Node7</title>
<g id="a_edge6_Node000006_Node000007"><a xlink:title=" ">
<path fill="none" stroke="#63b8ff" d="M283.25,-110.33C283.25,-103.82 283.25,-94.67 283.25,-86.37"/>
<polygon fill="#63b8ff" stroke="#63b8ff" points="286.75,-86.37 283.25,-76.37 279.75,-86.37 286.75,-86.37"/>
</a>
</g>
</g>
<!-- Node10 -->
<g id="Node000010" class="node">
<title>Node10</title>
<g id="a_Node000010"><a xlink:title=" ">
<polygon fill="#e0e0e0" stroke="#999999" points="408,-74.5 360.5,-74.5 360.5,-55.25 408,-55.25 408,-74.5"/>
<text text-anchor="middle" x="384.25" y="-61" font-family="Helvetica,sans-Serif" font-size="10.00">stdint.h</text>
</a>
</g>
</g>
<!-- Node6&#45;&gt;Node10 -->
<g id="edge9_Node000006_Node000010" class="edge">
<title>Node6&#45;&gt;Node10</title>
<g id="a_edge9_Node000006_Node000010"><a xlink:title=" ">
<path fill="none" stroke="#63b8ff" d="M300.38,-110.09C315.91,-101.91 339.05,-89.71 357.09,-80.19"/>
<polygon fill="#63b8ff" stroke="#63b8ff" points="358.48,-83.42 365.69,-75.66 355.22,-77.23 358.48,-83.42"/>
</a>
</g>
</g>
<!-- Node11 -->
<g id="Node000011" class="node">
<title>Node11</title>
<g id="a_Node000011"><a xlink:title=" ">
<polygon fill="#e0e0e0" stroke="#999999" points="474,-74.5 426.5,-74.5 426.5,-55.25 474,-55.25 474,-74.5"/>
<text text-anchor="middle" x="450.25" y="-61" font-family="Helvetica,sans-Serif" font-size="10.00">string.h</text>
</a>
</g>
</g>
<!-- Node6&#45;&gt;Node11 -->
<g id="edge10_Node000006_Node000011" class="edge">
<title>Node6&#45;&gt;Node11</title>
<g id="a_edge10_Node000006_Node000011"><a xlink:title=" ">
<path fill="none" stroke="#63b8ff" d="M311.58,-110.09C340.26,-100.95 384.65,-86.79 415.45,-76.97"/>
<polygon fill="#63b8ff" stroke="#63b8ff" points="416.22,-80.4 424.68,-74.03 414.09,-73.73 416.22,-80.4"/>
</a>
</g>
</g>
<!-- Node8 -->
<g id="Node000008" class="node">
<title>Node8</title>
<g id="a_Node000008"><a xlink:title=" ">
<polygon fill="#e0e0e0" stroke="#999999" points="266.5,-19.25 216,-19.25 216,0 266.5,0 266.5,-19.25"/>
<text text-anchor="middle" x="241.25" y="-5.75" font-family="Helvetica,sans-Serif" font-size="10.00">stddef.h</text>
</a>
</g>
</g>
<!-- Node7&#45;&gt;Node8 -->
<g id="edge7_Node000007_Node000008" class="edge">
<title>Node7&#45;&gt;Node8</title>
<g id="a_edge7_Node000007_Node000008"><a xlink:title=" ">
<path fill="none" stroke="#63b8ff" d="M276.31,-55.08C270.63,-47.88 262.41,-37.46 255.36,-28.51"/>
<polygon fill="#63b8ff" stroke="#63b8ff" points="258.21,-26.48 249.27,-20.8 252.72,-30.82 258.21,-26.48"/>
</a>
</g>
</g>
<!-- Node9 -->
<g id="Node000009" class="node">
<title>Node9</title>
<g id="a_Node000009"><a xlink:title=" ">
<polygon fill="#e0e0e0" stroke="#999999" points="366.25,-19.25 284.25,-19.25 284.25,0 366.25,0 366.25,-19.25"/>
<text text-anchor="middle" x="325.25" y="-5.75" font-family="Helvetica,sans-Serif" font-size="10.00">colony_config.h</text>
</a>
</g>
</g>
<!-- Node7&#45;&gt;Node9 -->
<g id="edge8_Node000007_Node000009" class="edge">
<title>Node7&#45;&gt;Node9</title>
<g id="a_edge8_Node000007_Node000009"><a xlink:title=" ">
<path fill="none" stroke="#63b8ff" d="M290.19,-55.08C295.87,-47.88 304.09,-37.46 311.14,-28.51"/>
<polygon fill="#63b8ff" stroke="#63b8ff" points="313.78,-30.82 317.23,-20.8 308.29,-26.48 313.78,-30.82"/>
</a>
</g>
</g>
<!-- Node15 -->
<g id="Node000015" class="node">
<title>Node15</title>
<g id="a_Node000015"><a xlink:href="_item_8h.html" target="_top" xlink:title=" ">
<polygon fill="white" stroke="#666666" points="104.5,-129.75 0,-129.75 0,-110.5 104.5,-110.5 104.5,-129.75"/>
<text text-anchor="middle" x="52.25" y="-116.25" font-family="Helvetica,sans-Serif" font-size="10.00">Cpl/Container/Item.h</text>
</a>
</g>
</g>
<!-- Node14&#45;&gt;Node15 -->
<g id="edge15_Node000014_Node000015" class="edge">
<title>Node14&#45;&gt;Node15</title>
<g id="a_edge15_Node000014_Node000015"><a xlink:title=" ">
<path fill="none" stroke="#63b8ff" d="M67.28,-165.58C65,-158.84 61.76,-149.27 58.88,-140.74"/>
<polygon fill="#63b8ff" stroke="#63b8ff" points="62.29,-139.9 55.77,-131.54 55.66,-142.14 62.29,-139.9"/>
</a>
</g>
</g>
<!-- Node17&#45;&gt;Node4 -->
<g id="edge18_Node000017_Node000004" class="edge">
<title>Node17&#45;&gt;Node4</title>
<g id="a_edge18_Node000017_Node000004"><a xlink:title=" ">
<path fill="none" stroke="#63b8ff" d="M263.58,-220.83C263.83,-214.24 264.18,-204.96 264.49,-196.57"/>
<polygon fill="#63b8ff" stroke="#63b8ff" points="267.98,-197 264.86,-186.87 260.98,-196.73 267.98,-197"/>
</a>
</g>
</g>
<!-- Node17&#45;&gt;Node12 -->
<g id="edge21_Node000017_Node000012" class="edge">
<title>Node17&#45;&gt;Node12</title>
<g id="a_edge21_Node000017_Node000012"><a xlink:title=" ">
<path fill="none" stroke="#63b8ff" d="M275.47,-220.52C286.9,-211.82 304.26,-198.12 318.25,-185 334.02,-170.21 350.61,-151.97 362.17,-138.78"/>
<polygon fill="#63b8ff" stroke="#63b8ff" points="364.72,-141.18 368.62,-131.33 359.43,-136.6 364.72,-141.18"/>
</a>
</g>
</g>
<!-- Node17&#45;&gt;Node14 -->
<g id="edge19_Node000017_Node000014" class="edge">
<title>Node17&#45;&gt;Node14</title>
<g id="a_edge19_Node000017_Node000014"><a xlink:title=" ">
<path fill="none" stroke="#63b8ff" d="M230.51,-220.59C198.49,-211.76 149.5,-198.24 114.12,-188.48"/>
<polygon fill="#63b8ff" stroke="#63b8ff" points="115.18,-185.14 104.61,-185.86 113.32,-191.89 115.18,-185.14"/>
</a>
</g>
</g>
<!-- Node17&#45;&gt;Node16 -->
<g id="edge20_Node000017_Node000016" class="edge">
<title>Node17&#45;&gt;Node16</title>
<g id="a_edge20_Node000017_Node000016"><a xlink:title=" ">
<path fill="none" stroke="#63b8ff" d="M246.63,-220.59C231.56,-212.41 209.11,-200.21 191.6,-190.69"/>
<polygon fill="#63b8ff" stroke="#63b8ff" points="193.74,-187.87 183.29,-186.18 190.4,-194.02 193.74,-187.87"/>
</a>
</g>
</g>
<!-- Node18&#45;&gt;Node3 -->
<g id="edge23_Node000018_Node000003" class="edge">
<title>Node18&#45;&gt;Node3</title>
<g id="a_edge23_Node000018_Node000003"><a xlink:title=" ">
<path fill="none" stroke="#63b8ff" d="M248.29,-275.84C232.99,-267.69 210.22,-255.57 192.39,-246.08"/>
<polygon fill="#63b8ff" stroke="#63b8ff" points="194.1,-243.02 183.63,-241.41 190.81,-249.2 194.1,-243.02"/>
</a>
</g>
</g>
<!-- Node19 -->
<g id="Node000019" class="node">
<title>Node19</title>
<g id="a_Node000019"><a xlink:href="_descriptor_8h.html" target="_top" xlink:title=" ">
<polygon fill="white" stroke="#666666" points="428.38,-240.25 332.12,-240.25 332.12,-221 428.38,-221 428.38,-240.25"/>
<text text-anchor="middle" x="380.25" y="-226.75" font-family="Helvetica,sans-Serif" font-size="10.00">Cpl/Io/Descriptor.h</text>
</a>
</g>
</g>
<!-- Node18&#45;&gt;Node19 -->
<g id="edge24_Node000018_Node000019" class="edge">
<title>Node18&#45;&gt;Node19</title>
<g id="a_edge24_Node000018_Node000019"><a xlink:title=" ">
<path fill="none" stroke="#63b8ff" d="M284.76,-275.84C302.77,-267.5 329.77,-255 350.48,-245.41"/>
<polygon fill="#63b8ff" stroke="#63b8ff" points="351.67,-248.72 359.27,-241.34 348.73,-242.36 351.67,-248.72"/>
</a>
</g>
</g>
<!-- Node20&#45;&gt;Node17 -->
<g id="edge26_Node000020_Node000017" class="edge">
<title>Node20&#45;&gt;Node17</title>
<g id="a_edge26_Node000020_Node000017"><a xlink:title=" ">
<path fill="none" stroke="#63b8ff" d="M369.54,-275.84C349.22,-267.39 318.6,-254.65 295.44,-245.02"/>
<polygon fill="#63b8ff" stroke="#63b8ff" points="297.04,-241.89 286.47,-241.28 294.36,-248.36 297.04,-241.89"/>
</a>
</g>
</g>
<!-- Node20&#45;&gt;Node19 -->
<g id="edge27_Node000020_Node000019" class="edge">
<title>Node20&#45;&gt;Node19</title>
<g id="a_edge27_Node000020_Node000019"><a xlink:title=" ">
<path fill="none" stroke="#63b8ff" d="M389.43,-276.08C388.07,-269.49 386.15,-260.21 384.42,-251.82"/>
<polygon fill="#63b8ff" stroke="#63b8ff" points="387.86,-251.18 382.41,-242.09 381.01,-252.59 387.86,-251.18"/>
</a>
</g>
</g>
</g>
</svg>
