<?xml version="1.0" encoding="UTF-8" standalone="no"?>
<!DOCTYPE svg PUBLIC "-//W3C//DTD SVG 1.1//EN"
 "http://www.w3.org/Graphics/SVG/1.1/DTD/svg11.dtd">
<!-- Generated by graphviz version 9.0.0 (20230911.1827)
 -->
<!-- Title: Cpl/Io/Input.h Pages: 1 -->
<svg width="2514pt" height="337pt"
 viewBox="0.00 0.00 2514.42 337.25" xmlns="http://www.w3.org/2000/svg" xmlns:xlink="http://www.w3.org/1999/xlink">
<g id="graph0" class="graph" transform="scale(1 1) rotate(0) translate(4 333.25)">
<title>Cpl/Io/Input.h</title>
<!-- Node1 -->
<g id="Node000001" class="node">
<title>Node1</title>
<g id="a_Node000001"><a xlink:title=" ">
<polygon fill="#999999" stroke="#666666" points="1707.12,-329.25 1633.38,-329.25 1633.38,-310 1707.12,-310 1707.12,-329.25"/>
<text text-anchor="middle" x="1670.25" y="-315.75" font-family="Helvetica,sans-Serif" font-size="10.00">Cpl/Io/Input.h</text>
</a>
</g>
</g>
<!-- Node2 -->
<g id="Node000002" class="node">
<title>Node2</title>
<g id="a_Node000002"><a xlink:href="appmain_8h.html" target="_top" xlink:title="This file defines the hardware/platform independent start&#45;up interface(s) for the Ajax application.">
<polygon fill="white" stroke="#666666" points="234.25,-274 128.25,-274 128.25,-254.75 234.25,-254.75 234.25,-274"/>
<text text-anchor="middle" x="181.25" y="-260.5" font-family="Helvetica,sans-Serif" font-size="10.00">Ajax/Main/appmain.h</text>
</a>
</g>
</g>
<!-- Node1&#45;&gt;Node2 -->
<g id="edge1_Node000001_Node000002" class="edge">
<title>Node1&#45;&gt;Node2</title>
<g id="a_edge1_Node000001_Node000002"><a xlink:title=" ">
<path fill="none" stroke="#63b8ff" d="M1621.68,-318.99C1439.89,-319.94 782.47,-319.81 243.25,-274 240.43,-273.76 237.55,-273.48 234.64,-273.17"/>
<polygon fill="#63b8ff" stroke="#63b8ff" points="1621.46,-322.49 1631.44,-318.93 1621.43,-315.49 1621.46,-322.49"/>
</a>
</g>
</g>
<!-- Node3 -->
<g id="Node000003" class="node">
<title>Node3</title>
<g id="a_Node000003"><a xlink:href="_input_api_8h.html" target="_top" xlink:title=" ">
<polygon fill="white" stroke="#666666" points="358.62,-274 251.88,-274 251.88,-254.75 358.62,-254.75 358.62,-274"/>
<text text-anchor="middle" x="305.25" y="-260.5" font-family="Helvetica,sans-Serif" font-size="10.00">Cpl/Io/File/InputApi.h</text>
</a>
</g>
</g>
<!-- Node1&#45;&gt;Node3 -->
<g id="edge2_Node000001_Node000003" class="edge">
<title>Node1&#45;&gt;Node3</title>
<g id="a_edge2_Node000001_Node000003"><a xlink:title=" ">
<path fill="none" stroke="#63b8ff" d="M1621.74,-318.29C1451.42,-316.82 864.91,-309.34 382.25,-274 374.74,-273.45 366.83,-272.73 359.05,-271.94"/>
<polygon fill="#63b8ff" stroke="#63b8ff" points="1621.51,-321.79 1631.53,-318.37 1621.56,-314.79 1621.51,-321.79"/>
</a>
</g>
</g>
<!-- Node8 -->
<g id="Node000008" class="node">
<title>Node8</title>
<g id="a_Node000008"><a xlink:href="_input_output_8h.html" target="_top" xlink:title=" ">
<polygon fill="white" stroke="#666666" points="1032.75,-274 929.75,-274 929.75,-254.75 1032.75,-254.75 1032.75,-274"/>
<text text-anchor="middle" x="981.25" y="-260.5" font-family="Helvetica,sans-Serif" font-size="10.00">Cpl/Io/InputOutput.h</text>
</a>
</g>
</g>
<!-- Node1&#45;&gt;Node8 -->
<g id="edge7_Node000001_Node000008" class="edge">
<title>Node1&#45;&gt;Node8</title>
<g id="a_edge7_Node000001_Node000008"><a xlink:title=" ">
<path fill="none" stroke="#63b8ff" d="M1621.73,-314.88C1496.26,-305.18 1161.91,-279.34 1032.97,-269.37"/>
<polygon fill="#63b8ff" stroke="#63b8ff" points="1621.46,-318.36 1631.7,-315.65 1622,-311.39 1621.46,-318.36"/>
</a>
</g>
</g>
<!-- Node25 -->
<g id="Node000025" class="node">
<title>Node25</title>
<g id="a_Node000025"><a xlink:href="_line_reader_8h.html" target="_top" xlink:title=" ">
<polygon fill="white" stroke="#666666" points="2309,-274 2207.5,-274 2207.5,-254.75 2309,-254.75 2309,-274"/>
<text text-anchor="middle" x="2258.25" y="-260.5" font-family="Helvetica,sans-Serif" font-size="10.00">Cpl/Io/LineReader.h</text>
</a>
</g>
</g>
<!-- Node1&#45;&gt;Node25 -->
<g id="edge27_Node000001_Node000025" class="edge">
<title>Node1&#45;&gt;Node25</title>
<g id="a_edge27_Node000001_Node000025"><a xlink:title=" ">
<path fill="none" stroke="#63b8ff" d="M1718.61,-315.26C1810.98,-308.66 2018.84,-293 2193.25,-274 2197.78,-273.51 2202.48,-272.96 2207.18,-272.38"/>
<polygon fill="#63b8ff" stroke="#63b8ff" points="1718.64,-311.75 1708.91,-315.95 1719.14,-318.73 1718.64,-311.75"/>
</a>
</g>
</g>
<!-- Node26 -->
<g id="Node000026" class="node">
<title>Node26</title>
<g id="a_Node000026"><a xlink:href="_input___8h.html" target="_top" xlink:title=" ">
<polygon fill="white" stroke="#666666" points="495.5,-274 391,-274 391,-254.75 495.5,-254.75 495.5,-274"/>
<text text-anchor="middle" x="443.25" y="-260.5" font-family="Helvetica,sans-Serif" font-size="10.00">Cpl/Io/Stdio/Input_.h</text>
</a>
</g>
</g>
<!-- Node1&#45;&gt;Node26 -->
<g id="edge28_Node000001_Node000026" class="edge">
<title>Node1&#45;&gt;Node26</title>
<g id="a_edge28_Node000001_Node000026"><a xlink:title=" ">
<path fill="none" stroke="#63b8ff" d="M1621.91,-316.53C1426.82,-308.06 698.16,-276.44 495.72,-267.65"/>
<polygon fill="#63b8ff" stroke="#63b8ff" points="1621.54,-320.01 1631.68,-316.95 1621.84,-313.02 1621.54,-320.01"/>
</a>
</g>
</g>
<!-- Node28 -->
<g id="Node000028" class="node">
<title>Node28</title>
<g id="a_Node000028"><a xlink:href="_processor_api_8h.html" target="_top" xlink:title=" ">
<polygon fill="white" stroke="#666666" points="1735.25,-274 1605.25,-274 1605.25,-254.75 1735.25,-254.75 1735.25,-274"/>
<text text-anchor="middle" x="1670.25" y="-260.5" font-family="Helvetica,sans-Serif" font-size="10.00">Cpl/TShell/ProcessorApi.h</text>
</a>
</g>
</g>
<!-- Node1&#45;&gt;Node28 -->
<g id="edge32_Node000001_Node000028" class="edge">
<title>Node1&#45;&gt;Node28</title>
<g id="a_edge32_Node000001_Node000028"><a xlink:title=" ">
<path fill="none" stroke="#63b8ff" d="M1670.25,-298.38C1670.25,-290.09 1670.25,-280.92 1670.25,-274.36"/>
<polygon fill="#63b8ff" stroke="#63b8ff" points="1666.75,-298.32 1670.25,-308.32 1673.75,-298.32 1666.75,-298.32"/>
</a>
</g>
</g>
<!-- Node63 -->
<g id="Node000063" class="node">
<title>Node63</title>
<g id="a_Node000063"><a xlink:href="_stream_decoder_8h.html" target="_top" xlink:title=" ">
<polygon fill="white" stroke="#666666" points="2113.62,-274 1952.88,-274 1952.88,-254.75 2113.62,-254.75 2113.62,-274"/>
<text text-anchor="middle" x="2033.25" y="-260.5" font-family="Helvetica,sans-Serif" font-size="10.00">Cpl/Text/Frame/StreamDecoder.h</text>
</a>
</g>
</g>
<!-- Node1&#45;&gt;Node63 -->
<g id="edge50_Node000001_Node000063" class="edge">
<title>Node1&#45;&gt;Node63</title>
<g id="a_edge50_Node000001_Node000063"><a xlink:title=" ">
<path fill="none" stroke="#63b8ff" d="M1718.54,-311.54C1783.63,-301.99 1899.58,-284.98 1971.1,-274.49"/>
<polygon fill="#63b8ff" stroke="#63b8ff" points="1718.28,-308.04 1708.89,-312.96 1719.29,-314.97 1718.28,-308.04"/>
</a>
</g>
</g>
<!-- Node66 -->
<g id="Node000066" class="node">
<title>Node66</title>
<g id="a_Node000066"><a xlink:href="_pipe_8h.html" target="_top" xlink:title=" ">
<polygon fill="white" stroke="#666666" points="2283.25,-213.12 2183.25,-213.12 2183.25,-193.88 2283.25,-193.88 2283.25,-213.12"/>
<text text-anchor="middle" x="2233.25" y="-199.62" font-family="Helvetica,sans-Serif" font-size="10.00">Driver/TPipe/Pipe.h</text>
</a>
</g>
</g>
<!-- Node1&#45;&gt;Node66 -->
<g id="edge60_Node000001_Node000066" class="edge">
<title>Node1&#45;&gt;Node66</title>
<g id="a_edge60_Node000001_Node000066"><a xlink:title=" ">
<path fill="none" stroke="#63b8ff" d="M1718.97,-317.98C1825.9,-315.96 2077.79,-307.65 2155.25,-274 2186.86,-260.27 2214.51,-228.64 2226.67,-213.24"/>
<polygon fill="#63b8ff" stroke="#63b8ff" points="1719.02,-314.48 1709.08,-318.16 1719.15,-321.48 1719.02,-314.48"/>
</a>
</g>
</g>
<!-- Node67 -->
<g id="Node000067" class="node">
<title>Node67</title>
<g id="a_Node000067"><a xlink:href="_driver_2_pico_display_2_t_pipe_2_api_8h.html" target="_top" xlink:title="This file defines the interface for initializing the concrete implementation of the PicoDisplay drive...">
<polygon fill="white" stroke="#666666" points="2294,-152.25 2198.5,-152.25 2198.5,-121.75 2294,-121.75 2294,-152.25"/>
<text text-anchor="start" x="2206.5" y="-138.75" font-family="Helvetica,sans-Serif" font-size="10.00">Driver/PicoDisplay</text>
<text text-anchor="middle" x="2246.25" y="-127.5" font-family="Helvetica,sans-Serif" font-size="10.00">/TPipe/Api.h</text>
</a>
</g>
</g>
<!-- Node1&#45;&gt;Node67 -->
<g id="edge59_Node000001_Node000067" class="edge">
<title>Node1&#45;&gt;Node67</title>
<g id="a_edge59_Node000001_Node000067"><a xlink:title=" ">
<path fill="none" stroke="#63b8ff" d="M1718.62,-319.2C1821.09,-319.56 2056.08,-315.68 2122.25,-274 2159.96,-250.25 2143.76,-220.76 2174.25,-188.25 2187.49,-174.13 2205.32,-161.65 2219.92,-152.66"/>
<polygon fill="#63b8ff" stroke="#63b8ff" points="1718.91,-315.7 1708.89,-319.14 1718.87,-322.7 1718.91,-315.7"/>
</a>
</g>
</g>
<!-- Node4 -->
<g id="Node000004" class="node">
<title>Node4</title>
<g id="a_Node000004"><a xlink:href="_file_2_input_8h.html" target="_top" xlink:title=" ">
<polygon fill="white" stroke="#666666" points="92.5,-213.12 0,-213.12 0,-193.88 92.5,-193.88 92.5,-213.12"/>
<text text-anchor="middle" x="46.25" y="-199.62" font-family="Helvetica,sans-Serif" font-size="10.00">Cpl/Io/File/Input.h</text>
</a>
</g>
</g>
<!-- Node3&#45;&gt;Node4 -->
<g id="edge3_Node000003_Node000004" class="edge">
<title>Node3&#45;&gt;Node4</title>
<g id="a_edge3_Node000003_Node000004"><a xlink:title=" ">
<path fill="none" stroke="#63b8ff" d="M250.9,-251.93C209.96,-243.19 152.48,-230.66 102.25,-218.75 95.42,-217.13 88.13,-215.33 81.16,-213.57"/>
<polygon fill="#63b8ff" stroke="#63b8ff" points="250,-255.32 260.51,-253.98 251.46,-248.47 250,-255.32"/>
</a>
</g>
</g>
<!-- Node5 -->
<g id="Node000005" class="node">
<title>Node5</title>
<g id="a_Node000005"><a xlink:href="_input_output_api_8h.html" target="_top" xlink:title=" ">
<polygon fill="white" stroke="#666666" points="365.25,-213.12 229.25,-213.12 229.25,-193.88 365.25,-193.88 365.25,-213.12"/>
<text text-anchor="middle" x="297.25" y="-199.62" font-family="Helvetica,sans-Serif" font-size="10.00">Cpl/Io/File/InputOutputApi.h</text>
</a>
</g>
</g>
<!-- Node3&#45;&gt;Node5 -->
<g id="edge4_Node000003_Node000005" class="edge">
<title>Node3&#45;&gt;Node5</title>
<g id="a_edge4_Node000003_Node000005"><a xlink:title=" ">
<path fill="none" stroke="#63b8ff" d="M302.52,-243.28C301.15,-233.17 299.55,-221.42 298.48,-213.53"/>
<polygon fill="#63b8ff" stroke="#63b8ff" points="299.02,-243.5 303.83,-252.93 305.95,-242.55 299.02,-243.5"/>
</a>
</g>
</g>
<!-- Node6 -->
<g id="Node000006" class="node">
<title>Node6</title>
<g id="a_Node000006"><a xlink:href="_file_2_input_output_8h.html" target="_top" xlink:title=" ">
<polygon fill="white" stroke="#666666" points="496.12,-146.62 374.38,-146.62 374.38,-127.38 496.12,-127.38 496.12,-146.62"/>
<text text-anchor="middle" x="435.25" y="-133.12" font-family="Helvetica,sans-Serif" font-size="10.00">Cpl/Io/File/InputOutput.h</text>
</a>
</g>
</g>
<!-- Node5&#45;&gt;Node6 -->
<g id="edge5_Node000005_Node000006" class="edge">
<title>Node5&#45;&gt;Node6</title>
<g id="a_edge5_Node000005_Node000006"><a xlink:title=" ">
<path fill="none" stroke="#63b8ff" d="M327.1,-188.55C354.02,-175.97 392.8,-157.84 415.87,-147.06"/>
<polygon fill="#63b8ff" stroke="#63b8ff" points="325.68,-185.35 318.1,-192.75 328.64,-191.69 325.68,-185.35"/>
</a>
</g>
</g>
<!-- Node7 -->
<g id="Node000007" class="node">
<title>Node7</title>
<g id="a_Node000007"><a xlink:href="_cpl_2_io_2_file_2_null_8h.html" target="_top" xlink:title=" ">
<polygon fill="white" stroke="#666666" points="341.25,-146.62 253.25,-146.62 253.25,-127.38 341.25,-127.38 341.25,-146.62"/>
<text text-anchor="middle" x="297.25" y="-133.12" font-family="Helvetica,sans-Serif" font-size="10.00">Cpl/Io/File/Null.h</text>
</a>
</g>
</g>
<!-- Node5&#45;&gt;Node7 -->
<g id="edge6_Node000005_Node000007" class="edge">
<title>Node5&#45;&gt;Node7</title>
<g id="a_edge6_Node000005_Node000007"><a xlink:title=" ">
<path fill="none" stroke="#63b8ff" d="M297.25,-182.02C297.25,-170.19 297.25,-155.91 297.25,-146.89"/>
<polygon fill="#63b8ff" stroke="#63b8ff" points="293.75,-182.02 297.25,-192.02 300.75,-182.02 293.75,-182.02"/>
</a>
</g>
</g>
<!-- Node8&#45;&gt;Node5 -->
<g id="edge8_Node000008_Node000005" class="edge">
<title>Node8&#45;&gt;Node5</title>
<g id="a_edge8_Node000008_Node000005"><a xlink:title=" ">
<path fill="none" stroke="#63b8ff" d="M918.24,-261.02C807.72,-256.38 571.88,-244.22 374.25,-218.75 363.73,-217.39 352.48,-215.54 341.91,-213.62"/>
<polygon fill="#63b8ff" stroke="#63b8ff" points="917.85,-264.51 927.98,-261.42 918.14,-257.51 917.85,-264.51"/>
</a>
</g>
</g>
<!-- Node9 -->
<g id="Node000009" class="node">
<title>Node9</title>
<g id="a_Node000009"><a xlink:href="_cpl_2_io_2_null_8h.html" target="_top" xlink:title=" ">
<polygon fill="white" stroke="#666666" points="1422.88,-213.12 1353.62,-213.12 1353.62,-193.88 1422.88,-193.88 1422.88,-213.12"/>
<text text-anchor="middle" x="1388.25" y="-199.62" font-family="Helvetica,sans-Serif" font-size="10.00">Cpl/Io/Null.h</text>
</a>
</g>
</g>
<!-- Node8&#45;&gt;Node9 -->
<g id="edge9_Node000008_Node000009" class="edge">
<title>Node8&#45;&gt;Node9</title>
<g id="a_edge9_Node000008_Node000009"><a xlink:title=" ">
<path fill="none" stroke="#63b8ff" d="M1044.43,-259.28C1117.35,-253.71 1240.53,-241.7 1344.25,-218.75 1350.37,-217.4 1356.84,-215.55 1362.88,-213.62"/>
<polygon fill="#63b8ff" stroke="#63b8ff" points="1044.39,-255.77 1034.68,-260.01 1044.91,-262.75 1044.39,-255.77"/>
</a>
</g>
</g>
<!-- Node10 -->
<g id="Node000010" class="node">
<title>Node10</title>
<g id="a_Node000010"><a xlink:href="_ram_2_input_output_8h.html" target="_top" xlink:title=" ">
<polygon fill="white" stroke="#666666" points="1567.38,-213.12 1441.12,-213.12 1441.12,-193.88 1567.38,-193.88 1567.38,-213.12"/>
<text text-anchor="middle" x="1504.25" y="-199.62" font-family="Helvetica,sans-Serif" font-size="10.00">Cpl/Io/Ram/InputOutput.h</text>
</a>
</g>
</g>
<!-- Node8&#45;&gt;Node10 -->
<g id="edge10_Node000008_Node000010" class="edge">
<title>Node8&#45;&gt;Node10</title>
<g id="a_edge10_Node000008_Node000010"><a xlink:title=" ">
<path fill="none" stroke="#63b8ff" d="M1044.51,-259.06C1131.97,-252.64 1294.63,-239.13 1432.25,-218.75 1441.83,-217.33 1452.07,-215.5 1461.73,-213.62"/>
<polygon fill="#63b8ff" stroke="#63b8ff" points="1044.42,-255.55 1034.7,-259.77 1044.93,-262.54 1044.42,-255.55"/>
</a>
</g>
</g>
<!-- Node11 -->
<g id="Node000011" class="node">
<title>Node11</title>
<g id="a_Node000011"><a xlink:href="_serial_2_adafruit_2_nrf5_2_b_l_e_2_input_output_8h.html" target="_top" xlink:title=" ">
<polygon fill="white" stroke="#666666" points="655.75,-218.75 534.75,-218.75 534.75,-188.25 655.75,-188.25 655.75,-218.75"/>
<text text-anchor="start" x="542.75" y="-205.25" font-family="Helvetica,sans-Serif" font-size="10.00">Cpl/Io/Serial/Adafruit</text>
<text text-anchor="middle" x="595.25" y="-194" font-family="Helvetica,sans-Serif" font-size="10.00">/Nrf5/BLE/InputOutput.h</text>
</a>
</g>
</g>
<!-- Node8&#45;&gt;Node11 -->
<g id="edge11_Node000008_Node000011" class="edge">
<title>Node8&#45;&gt;Node11</title>
<g id="a_edge11_Node000008_Node000011"><a xlink:title=" ">
<path fill="none" stroke="#63b8ff" d="M918.28,-255.62C854.38,-247.49 752.69,-233.81 665.25,-218.75 662.19,-218.22 659.07,-217.66 655.91,-217.08"/>
<polygon fill="#63b8ff" stroke="#63b8ff" points="917.51,-259.05 927.87,-256.84 918.39,-252.11 917.51,-259.05"/>
</a>
</g>
</g>
<!-- Node12 -->
<g id="Node000012" class="node">
<title>Node12</title>
<g id="a_Node000012"><a xlink:href="_serial_2_adafruit_2_nrf5_2_input_output_8h.html" target="_top" xlink:title=" ">
<polygon fill="white" stroke="#666666" points="780.25,-218.75 674.25,-218.75 674.25,-188.25 780.25,-188.25 780.25,-218.75"/>
<text text-anchor="start" x="682.25" y="-205.25" font-family="Helvetica,sans-Serif" font-size="10.00">Cpl/Io/Serial/Adafruit</text>
<text text-anchor="middle" x="727.25" y="-194" font-family="Helvetica,sans-Serif" font-size="10.00">/Nrf5/InputOutput.h</text>
</a>
</g>
</g>
<!-- Node8&#45;&gt;Node12 -->
<g id="edge12_Node000008_Node000012" class="edge">
<title>Node8&#45;&gt;Node12</title>
<g id="a_edge12_Node000008_Node000012"><a xlink:title=" ">
<path fill="none" stroke="#63b8ff" d="M930.96,-251.72C887.51,-241.65 824.9,-227.13 780.58,-216.86"/>
<polygon fill="#63b8ff" stroke="#63b8ff" points="930.11,-255.11 940.64,-253.96 931.69,-248.3 930.11,-255.11"/>
</a>
</g>
</g>
<!-- Node13 -->
<g id="Node000013" class="node">
<title>Node13</title>
<g id="a_Node000013"><a xlink:href="_serial_2_arduino_2_input_output_8h.html" target="_top" xlink:title=" ">
<polygon fill="white" stroke="#666666" points="903.88,-218.75 798.62,-218.75 798.62,-188.25 903.88,-188.25 903.88,-218.75"/>
<text text-anchor="start" x="806.62" y="-205.25" font-family="Helvetica,sans-Serif" font-size="10.00">Cpl/Io/Serial/Arduino</text>
<text text-anchor="middle" x="851.25" y="-194" font-family="Helvetica,sans-Serif" font-size="10.00">/InputOutput.h</text>
</a>
</g>
</g>
<!-- Node8&#45;&gt;Node13 -->
<g id="edge13_Node000008_Node000013" class="edge">
<title>Node8&#45;&gt;Node13</title>
<g id="a_edge13_Node000008_Node000013"><a xlink:title=" ">
<path fill="none" stroke="#63b8ff" d="M950.75,-249.56C930.6,-240.44 904.23,-228.49 883.7,-219.19"/>
<polygon fill="#63b8ff" stroke="#63b8ff" points="949.29,-252.74 959.84,-253.68 952.18,-246.37 949.29,-252.74"/>
</a>
</g>
</g>
<!-- Node14 -->
<g id="Node000014" class="node">
<title>Node14</title>
<g id="a_Node000014"><a xlink:href="_serial_2_s_t_2_m32_f4_2_input_output_8h.html" target="_top" xlink:title=" ">
<polygon fill="white" stroke="#666666" points="1040.25,-218.75 922.25,-218.75 922.25,-188.25 1040.25,-188.25 1040.25,-218.75"/>
<text text-anchor="start" x="930.25" y="-205.25" font-family="Helvetica,sans-Serif" font-size="10.00">Cpl/Io/Serial/ST/M32F4</text>
<text text-anchor="middle" x="981.25" y="-194" font-family="Helvetica,sans-Serif" font-size="10.00">/InputOutput.h</text>
</a>
</g>
</g>
<!-- Node8&#45;&gt;Node14 -->
<g id="edge14_Node000008_Node000014" class="edge">
<title>Node8&#45;&gt;Node14</title>
<g id="a_edge14_Node000008_Node000014"><a xlink:title=" ">
<path fill="none" stroke="#63b8ff" d="M981.25,-243.17C981.25,-235.24 981.25,-226.31 981.25,-219.03"/>
<polygon fill="#63b8ff" stroke="#63b8ff" points="977.75,-242.92 981.25,-252.92 984.75,-242.92 977.75,-242.92"/>
</a>
</g>
</g>
<!-- Node15 -->
<g id="Node000015" class="node">
<title>Node15</title>
<g id="a_Node000015"><a xlink:href="_socket_2_input_output_8h.html" target="_top" xlink:title=" ">
<polygon fill="white" stroke="#666666" points="1335.62,-213.12 1198.88,-213.12 1198.88,-193.88 1335.62,-193.88 1335.62,-213.12"/>
<text text-anchor="middle" x="1267.25" y="-199.62" font-family="Helvetica,sans-Serif" font-size="10.00">Cpl/Io/Socket/InputOutput.h</text>
</a>
</g>
</g>
<!-- Node8&#45;&gt;Node15 -->
<g id="edge15_Node000008_Node000015" class="edge">
<title>Node8&#45;&gt;Node15</title>
<g id="a_edge15_Node000008_Node000015"><a xlink:title=" ">
<path fill="none" stroke="#63b8ff" d="M1036.48,-252.01C1090.89,-240.81 1172.94,-223.91 1223.14,-213.58"/>
<polygon fill="#63b8ff" stroke="#63b8ff" points="1035.88,-248.56 1026.79,-254 1037.29,-255.41 1035.88,-248.56"/>
</a>
</g>
</g>
<!-- Node19 -->
<g id="Node000019" class="node">
<title>Node19</title>
<g id="a_Node000019"><a xlink:href="_input_output___8h.html" target="_top" xlink:title=" ">
<polygon fill="white" stroke="#666666" points="517.12,-213.12 383.38,-213.12 383.38,-193.88 517.12,-193.88 517.12,-213.12"/>
<text text-anchor="middle" x="450.25" y="-199.62" font-family="Helvetica,sans-Serif" font-size="10.00">Cpl/Io/Stdio/InputOutput_.h</text>
</a>
</g>
</g>
<!-- Node8&#45;&gt;Node19 -->
<g id="edge20_Node000008_Node000019" class="edge">
<title>Node8&#45;&gt;Node19</title>
<g id="a_edge20_Node000008_Node000019"><a xlink:title=" ">
<path fill="none" stroke="#63b8ff" d="M918.03,-259C829.79,-252.48 664.84,-238.8 525.25,-218.75 515.28,-217.32 504.62,-215.48 494.56,-213.6"/>
<polygon fill="#63b8ff" stroke="#63b8ff" points="917.7,-262.49 927.93,-259.72 918.21,-255.5 917.7,-262.49"/>
</a>
</g>
</g>
<!-- Node20 -->
<g id="Node000020" class="node">
<title>Node20</title>
<g id="a_Node000020"><a xlink:href="_tcp_2_input_output_8h.html" target="_top" xlink:title=" ">
<polygon fill="white" stroke="#666666" points="1180.5,-213.12 1058,-213.12 1058,-193.88 1180.5,-193.88 1180.5,-213.12"/>
<text text-anchor="middle" x="1119.25" y="-199.62" font-family="Helvetica,sans-Serif" font-size="10.00">Cpl/Io/Tcp/InputOutput.h</text>
</a>
</g>
</g>
<!-- Node8&#45;&gt;Node20 -->
<g id="edge22_Node000008_Node000020" class="edge">
<title>Node8&#45;&gt;Node20</title>
<g id="a_edge22_Node000008_Node000020"><a xlink:title=" ">
<path fill="none" stroke="#63b8ff" d="M1013.03,-249.82C1039.18,-238.66 1075.52,-223.16 1098.19,-213.48"/>
<polygon fill="#63b8ff" stroke="#63b8ff" points="1011.73,-246.57 1003.9,-253.71 1014.47,-253.01 1011.73,-246.57"/>
</a>
</g>
</g>
<!-- Node16 -->
<g id="Node000016" class="node">
<title>Node16</title>
<g id="a_Node000016"><a xlink:href="_factory_8h.html" target="_top" xlink:title=" ">
<polygon fill="white" stroke="#666666" points="1325.25,-146.62 1207.25,-146.62 1207.25,-127.38 1325.25,-127.38 1325.25,-146.62"/>
<text text-anchor="middle" x="1266.25" y="-133.12" font-family="Helvetica,sans-Serif" font-size="10.00">Cpl/Io/Socket/Factory.h</text>
</a>
</g>
</g>
<!-- Node15&#45;&gt;Node16 -->
<g id="edge16_Node000015_Node000016" class="edge">
<title>Node15&#45;&gt;Node16</title>
<g id="a_edge16_Node000015_Node000016"><a xlink:title=" ">
<path fill="none" stroke="#63b8ff" d="M1266.93,-182.02C1266.75,-170.19 1266.53,-155.91 1266.39,-146.89"/>
<polygon fill="#63b8ff" stroke="#63b8ff" points="1263.43,-182.07 1267.09,-192.02 1270.43,-181.97 1263.43,-182.07"/>
</a>
</g>
</g>
<!-- Node17 -->
<g id="Node000017" class="node">
<title>Node17</title>
<g id="a_Node000017"><a xlink:href="_stream_pool_8h.html" target="_top" xlink:title=" ">
<polygon fill="white" stroke="#666666" points="1236.62,-80.12 1099.88,-80.12 1099.88,-60.88 1236.62,-60.88 1236.62,-80.12"/>
<text text-anchor="middle" x="1168.25" y="-66.62" font-family="Helvetica,sans-Serif" font-size="10.00">Cpl/Io/Socket/StreamPool.h</text>
</a>
</g>
</g>
<!-- Node15&#45;&gt;Node17 -->
<g id="edge18_Node000015_Node000017" class="edge">
<title>Node15&#45;&gt;Node17</title>
<g id="a_edge18_Node000015_Node000017"><a xlink:title=" ">
<path fill="none" stroke="#63b8ff" d="M1239.68,-187.69C1225.65,-178.97 1209.27,-166.79 1198.25,-152.25 1181.18,-129.72 1172.96,-96.45 1169.83,-80.57"/>
<polygon fill="#63b8ff" stroke="#63b8ff" points="1237.69,-190.58 1248.08,-192.65 1241.25,-184.55 1237.69,-190.58"/>
</a>
</g>
</g>
<!-- Node18 -->
<g id="Node000018" class="node">
<title>Node18</title>
<g id="a_Node000018"><a xlink:href="_socket_8h.html" target="_top" xlink:title=" ">
<polygon fill="white" stroke="#666666" points="1509.38,-146.62 1407.12,-146.62 1407.12,-127.38 1509.38,-127.38 1509.38,-146.62"/>
<text text-anchor="middle" x="1458.25" y="-133.12" font-family="Helvetica,sans-Serif" font-size="10.00">Cpl/TShell/Socket.h</text>
</a>
</g>
</g>
<!-- Node15&#45;&gt;Node18 -->
<g id="edge19_Node000015_Node000018" class="edge">
<title>Node15&#45;&gt;Node18</title>
<g id="a_edge19_Node000015_Node000018"><a xlink:title=" ">
<path fill="none" stroke="#63b8ff" d="M1304.66,-189.87C1341.97,-177.27 1398.36,-158.22 1431.43,-147.06"/>
<polygon fill="#63b8ff" stroke="#63b8ff" points="1304,-186.4 1295.64,-192.91 1306.24,-193.03 1304,-186.4"/>
</a>
</g>
</g>
<!-- Node16&#45;&gt;Node17 -->
<g id="edge17_Node000016_Node000017" class="edge">
<title>Node16&#45;&gt;Node17</title>
<g id="a_edge17_Node000016_Node000017"><a xlink:title=" ">
<path fill="none" stroke="#63b8ff" d="M1243.2,-120.83C1224.22,-108.34 1197.95,-91.05 1182.08,-80.6"/>
<polygon fill="#63b8ff" stroke="#63b8ff" points="1241.08,-123.63 1251.36,-126.2 1244.93,-117.78 1241.08,-123.63"/>
</a>
</g>
</g>
<!-- Node19&#45;&gt;Node6 -->
<g id="edge21_Node000019_Node000006" class="edge">
<title>Node19&#45;&gt;Node6</title>
<g id="a_edge21_Node000019_Node000006"><a xlink:title=" ">
<path fill="none" stroke="#63b8ff" d="M445.58,-182.4C442.81,-170.5 439.44,-156.01 437.32,-146.89"/>
<polygon fill="#63b8ff" stroke="#63b8ff" points="442.15,-183.11 447.82,-192.06 448.97,-181.52 442.15,-183.11"/>
</a>
</g>
</g>
<!-- Node21 -->
<g id="Node000021" class="node">
<title>Node21</title>
<g id="a_Node000021"><a xlink:href="_async_connector_8h.html" target="_top" xlink:title=" ">
<polygon fill="white" stroke="#666666" points="912.62,-146.62 769.88,-146.62 769.88,-127.38 912.62,-127.38 912.62,-146.62"/>
<text text-anchor="middle" x="841.25" y="-133.12" font-family="Helvetica,sans-Serif" font-size="10.00">Cpl/Io/Tcp/AsyncConnector.h</text>
</a>
</g>
</g>
<!-- Node20&#45;&gt;Node21 -->
<g id="edge23_Node000020_Node000021" class="edge">
<title>Node20&#45;&gt;Node21</title>
<g id="a_edge23_Node000020_Node000021"><a xlink:title=" ">
<path fill="none" stroke="#63b8ff" d="M1068.94,-190.83C1014.74,-178.25 929.66,-158.51 880.29,-147.06"/>
<polygon fill="#63b8ff" stroke="#63b8ff" points="1068,-194.2 1078.53,-193.05 1069.58,-187.38 1068,-194.2"/>
</a>
</g>
</g>
<!-- Node23 -->
<g id="Node000023" class="node">
<title>Node23</title>
<g id="a_Node000023"><a xlink:href="_async_listener_8h.html" target="_top" xlink:title=" ">
<polygon fill="white" stroke="#666666" points="1115.12,-146.62 981.38,-146.62 981.38,-127.38 1115.12,-127.38 1115.12,-146.62"/>
<text text-anchor="middle" x="1048.25" y="-133.12" font-family="Helvetica,sans-Serif" font-size="10.00">Cpl/Io/Tcp/AsyncListener.h</text>
</a>
</g>
</g>
<!-- Node20&#45;&gt;Node23 -->
<g id="edge25_Node000020_Node000023" class="edge">
<title>Node20&#45;&gt;Node23</title>
<g id="a_edge25_Node000020_Node000023"><a xlink:title=" ">
<path fill="none" stroke="#63b8ff" d="M1101.15,-186.06C1087.44,-173.61 1069.13,-156.97 1058.04,-146.89"/>
<polygon fill="#63b8ff" stroke="#63b8ff" points="1098.5,-188.38 1108.26,-192.51 1103.21,-183.2 1098.5,-188.38"/>
</a>
</g>
</g>
<!-- Node22 -->
<g id="Node000022" class="node">
<title>Node22</title>
<g id="a_Node000022"><a xlink:href="_win32_2_async_connector_8h.html" target="_top" xlink:title=" ">
<polygon fill="white" stroke="#666666" points="900.62,-80.12 727.88,-80.12 727.88,-60.88 900.62,-60.88 900.62,-80.12"/>
<text text-anchor="middle" x="814.25" y="-66.62" font-family="Helvetica,sans-Serif" font-size="10.00">Cpl/Io/Tcp/Win32/AsyncConnector.h</text>
</a>
</g>
</g>
<!-- Node21&#45;&gt;Node22 -->
<g id="edge24_Node000021_Node000022" class="edge">
<title>Node21&#45;&gt;Node22</title>
<g id="a_edge24_Node000021_Node000022"><a xlink:title=" ">
<path fill="none" stroke="#63b8ff" d="M833.15,-116.65C828.11,-104.61 821.87,-89.7 817.97,-80.39"/>
<polygon fill="#63b8ff" stroke="#63b8ff" points="829.82,-117.76 836.91,-125.64 836.28,-115.06 829.82,-117.76"/>
</a>
</g>
</g>
<!-- Node24 -->
<g id="Node000024" class="node">
<title>Node24</title>
<g id="a_Node000024"><a xlink:href="_win32_2_async_listener_8h.html" target="_top" xlink:title=" ">
<polygon fill="white" stroke="#666666" points="1082.12,-80.12 918.38,-80.12 918.38,-60.88 1082.12,-60.88 1082.12,-80.12"/>
<text text-anchor="middle" x="1000.25" y="-66.62" font-family="Helvetica,sans-Serif" font-size="10.00">Cpl/Io/Tcp/Win32/AsyncListener.h</text>
</a>
</g>
</g>
<!-- Node23&#45;&gt;Node24 -->
<g id="edge26_Node000023_Node000024" class="edge">
<title>Node23&#45;&gt;Node24</title>
<g id="a_edge26_Node000023_Node000024"><a xlink:title=" ">
<path fill="none" stroke="#63b8ff" d="M1034.94,-118.12C1025.81,-105.85 1014.08,-90.08 1006.87,-80.39"/>
<polygon fill="#63b8ff" stroke="#63b8ff" points="1031.89,-119.88 1040.67,-125.82 1037.51,-115.71 1031.89,-119.88"/>
</a>
</g>
</g>
<!-- Node26&#45;&gt;Node4 -->
<g id="edge29_Node000026_Node000004" class="edge">
<title>Node26&#45;&gt;Node4</title>
<g id="a_edge29_Node000026_Node000004"><a xlink:title=" ">
<path fill="none" stroke="#63b8ff" d="M379.24,-255.92C295.63,-246.03 153.84,-228.65 102.25,-218.75 94.76,-217.31 86.78,-215.47 79.27,-213.6"/>
<polygon fill="#63b8ff" stroke="#63b8ff" points="378.79,-259.39 389.13,-257.09 379.61,-252.44 378.79,-259.39"/>
</a>
</g>
</g>
<!-- Node26&#45;&gt;Node19 -->
<g id="edge30_Node000026_Node000019" class="edge">
<title>Node26&#45;&gt;Node19</title>
<g id="a_edge30_Node000026_Node000019"><a xlink:title=" ">
<path fill="none" stroke="#63b8ff" d="M445.64,-243.28C446.84,-233.17 448.24,-221.42 449.18,-213.53"/>
<polygon fill="#63b8ff" stroke="#63b8ff" points="442.2,-242.59 444.49,-252.93 449.15,-243.41 442.2,-242.59"/>
</a>
</g>
</g>
<!-- Node27 -->
<g id="Node000027" class="node">
<title>Node27</title>
<g id="a_Node000027"><a xlink:href="_std_in_8h.html" target="_top" xlink:title=" ">
<polygon fill="white" stroke="#666666" points="211.62,-213.12 110.88,-213.12 110.88,-193.88 211.62,-193.88 211.62,-213.12"/>
<text text-anchor="middle" x="161.25" y="-199.62" font-family="Helvetica,sans-Serif" font-size="10.00">Cpl/Io/Stdio/StdIn.h</text>
</a>
</g>
</g>
<!-- Node26&#45;&gt;Node27 -->
<g id="edge31_Node000026_Node000027" class="edge">
<title>Node26&#45;&gt;Node27</title>
<g id="a_edge31_Node000026_Node000027"><a xlink:title=" ">
<path fill="none" stroke="#63b8ff" d="M383.82,-252.14C338.81,-243.48 275.52,-230.95 220.25,-218.75 213.05,-217.16 205.37,-215.37 198.02,-213.62"/>
<polygon fill="#63b8ff" stroke="#63b8ff" points="382.88,-255.53 393.36,-253.98 384.2,-248.65 382.88,-255.53"/>
</a>
</g>
</g>
<!-- Node28&#45;&gt;Node18 -->
<g id="edge47_Node000028_Node000018" class="edge">
<title>Node28&#45;&gt;Node18</title>
<g id="a_edge47_Node000028_Node000018"><a xlink:title=" ">
<path fill="none" stroke="#63b8ff" d="M1650.15,-247.39C1639.48,-238.89 1626.14,-228.26 1614.25,-218.75 1597.34,-205.22 1594.83,-199.37 1576.25,-188.25 1546.64,-170.52 1509.63,-155.84 1485.03,-147.01"/>
<polygon fill="#63b8ff" stroke="#63b8ff" points="1647.9,-250.07 1657.9,-253.55 1652.26,-244.59 1647.9,-250.07"/>
</a>
</g>
</g>
<!-- Node29 -->
<g id="Node000029" class="node">
<title>Node29</title>
<g id="a_Node000029"><a xlink:href="_context___8h.html" target="_top" xlink:title=" ">
<polygon fill="white" stroke="#666666" points="1850.12,-213.12 1740.38,-213.12 1740.38,-193.88 1850.12,-193.88 1850.12,-213.12"/>
<text text-anchor="middle" x="1795.25" y="-199.62" font-family="Helvetica,sans-Serif" font-size="10.00">Cpl/TShell/Context_.h</text>
</a>
</g>
</g>
<!-- Node28&#45;&gt;Node29 -->
<g id="edge33_Node000028_Node000029" class="edge">
<title>Node28&#45;&gt;Node29</title>
<g id="a_edge33_Node000028_Node000029"><a xlink:title=" ">
<path fill="none" stroke="#63b8ff" d="M1699.67,-249.52C1723.31,-238.38 1755.82,-223.07 1776.18,-213.48"/>
<polygon fill="#63b8ff" stroke="#63b8ff" points="1698.43,-246.23 1690.88,-253.66 1701.41,-252.57 1698.43,-246.23"/>
</a>
</g>
</g>
<!-- Node61 -->
<g id="Node000061" class="node">
<title>Node61</title>
<g id="a_Node000061"><a xlink:href="_stdio_8h.html" target="_top" xlink:title=" ">
<polygon fill="white" stroke="#666666" points="1717.25,-213.12 1623.25,-213.12 1623.25,-193.88 1717.25,-193.88 1717.25,-213.12"/>
<text text-anchor="middle" x="1670.25" y="-199.62" font-family="Helvetica,sans-Serif" font-size="10.00">Cpl/TShell/Stdio.h</text>
</a>
</g>
</g>
<!-- Node28&#45;&gt;Node61 -->
<g id="edge48_Node000028_Node000061" class="edge">
<title>Node28&#45;&gt;Node61</title>
<g id="a_edge48_Node000028_Node000061"><a xlink:title=" ">
<path fill="none" stroke="#63b8ff" d="M1670.25,-242.95C1670.25,-232.92 1670.25,-221.33 1670.25,-213.53"/>
<polygon fill="#63b8ff" stroke="#63b8ff" points="1666.75,-242.92 1670.25,-252.92 1673.75,-242.92 1666.75,-242.92"/>
</a>
</g>
</g>
<!-- Node30 -->
<g id="Node000030" class="node">
<title>Node30</title>
<g id="a_Node000030"><a xlink:href="_cmd_2_command_8h.html" target="_top" xlink:title=" ">
<polygon fill="#fff0f0" stroke="red" points="1867.75,-146.62 1728.75,-146.62 1728.75,-127.38 1867.75,-127.38 1867.75,-146.62"/>
<text text-anchor="middle" x="1798.25" y="-133.12" font-family="Helvetica,sans-Serif" font-size="10.00">Cpl/TShell/Cmd/Command.h</text>
</a>
</g>
</g>
<!-- Node29&#45;&gt;Node30 -->
<g id="edge34_Node000029_Node000030" class="edge">
<title>Node29&#45;&gt;Node30</title>
<g id="a_edge34_Node000029_Node000030"><a xlink:title=" ">
<path fill="none" stroke="#63b8ff" d="M1796.18,-182.4C1796.74,-170.5 1797.41,-156.01 1797.84,-146.89"/>
<polygon fill="#63b8ff" stroke="#63b8ff" points="1792.71,-181.87 1795.74,-192.02 1799.7,-182.19 1792.71,-181.87"/>
</a>
</g>
</g>
<!-- Node57 -->
<g id="Node000057" class="node">
<title>Node57</title>
<g id="a_Node000057"><a xlink:href="_processor_8h.html" target="_top" xlink:title=" ">
<polygon fill="white" stroke="#666666" points="2014.12,-146.62 1898.38,-146.62 1898.38,-127.38 2014.12,-127.38 2014.12,-146.62"/>
<text text-anchor="middle" x="1956.25" y="-133.12" font-family="Helvetica,sans-Serif" font-size="10.00">Cpl/TShell/Processor.h</text>
</a>
</g>
</g>
<!-- Node29&#45;&gt;Node57 -->
<g id="edge43_Node000029_Node000057" class="edge">
<title>Node29&#45;&gt;Node57</title>
<g id="a_edge43_Node000029_Node000057"><a xlink:title=" ">
<path fill="none" stroke="#63b8ff" d="M1828.42,-189.21C1859.86,-176.62 1906.24,-158.03 1933.64,-147.06"/>
<polygon fill="#63b8ff" stroke="#63b8ff" points="1827.36,-185.86 1819.38,-192.83 1829.97,-192.36 1827.36,-185.86"/>
</a>
</g>
</g>
<!-- Node31 -->
<g id="Node000031" class="node">
<title>Node31</title>
<g id="a_Node000031"><a xlink:href="_ajax_2_heating_2_simulated_2_cmd_8h.html" target="_top" xlink:title=" ">
<polygon fill="white" stroke="#666666" points="1858.25,-85.75 1740.25,-85.75 1740.25,-55.25 1858.25,-55.25 1858.25,-85.75"/>
<text text-anchor="start" x="1748.25" y="-72.25" font-family="Helvetica,sans-Serif" font-size="10.00">Ajax/Heating/Simulated</text>
<text text-anchor="middle" x="1799.25" y="-61" font-family="Helvetica,sans-Serif" font-size="10.00">/Cmd.h</text>
</a>
</g>
</g>
<!-- Node30&#45;&gt;Node31 -->
<g id="edge35_Node000030_Node000031" class="edge">
<title>Node30&#45;&gt;Node31</title>
<g id="a_edge35_Node000030_Node000031"><a xlink:title=" ">
<path fill="none" stroke="#63b8ff" d="M1798.57,-115.62C1798.72,-105.94 1798.89,-94.6 1799.03,-85.84"/>
<polygon fill="#63b8ff" stroke="#63b8ff" points="1795.07,-115.47 1798.41,-125.52 1802.07,-115.57 1795.07,-115.47"/>
</a>
</g>
</g>
<!-- Node32 -->
<g id="Node000032" class="node">
<title>Node32</title>
<g id="a_Node000032"><a xlink:href="_provision_8h.html" target="_top" xlink:title=" ">
<polygon fill="white" stroke="#666666" points="1992.5,-80.12 1876,-80.12 1876,-60.88 1992.5,-60.88 1992.5,-80.12"/>
<text text-anchor="middle" x="1934.25" y="-66.62" font-family="Helvetica,sans-Serif" font-size="10.00">Ajax/TShell/Provision.h</text>
</a>
</g>
</g>
<!-- Node30&#45;&gt;Node32 -->
<g id="edge36_Node000030_Node000032" class="edge">
<title>Node30&#45;&gt;Node32</title>
<g id="a_edge36_Node000030_Node000032"><a xlink:title=" ">
<path fill="none" stroke="#63b8ff" d="M1827.67,-122.05C1854.19,-109.47 1892.41,-91.34 1915.15,-80.56"/>
<polygon fill="#63b8ff" stroke="#63b8ff" points="1826.35,-118.8 1818.81,-126.25 1829.35,-125.12 1826.35,-118.8"/>
</a>
</g>
</g>
<!-- Node33 -->
<g id="Node000033" class="node">
<title>Node33</title>
<g id="a_Node000033"><a xlink:href="_state_8h.html" target="_top" xlink:title=" ">
<polygon fill="white" stroke="#666666" points="2109.88,-80.12 2010.62,-80.12 2010.62,-60.88 2109.88,-60.88 2109.88,-80.12"/>
<text text-anchor="middle" x="2060.25" y="-66.62" font-family="Helvetica,sans-Serif" font-size="10.00">Ajax/TShell/State.h</text>
</a>
</g>
</g>
<!-- Node30&#45;&gt;Node33 -->
<g id="edge37_Node000030_Node000033" class="edge">
<title>Node30&#45;&gt;Node33</title>
<g id="a_edge37_Node000030_Node000033"><a xlink:title=" ">
<path fill="none" stroke="#63b8ff" d="M1846.31,-124.17C1897.41,-111.59 1977.12,-91.96 2023.46,-80.56"/>
<polygon fill="#63b8ff" stroke="#63b8ff" points="1845.58,-120.74 1836.7,-126.53 1847.25,-127.54 1845.58,-120.74"/>
</a>
</g>
</g>
<!-- Node34 -->
<g id="Node000034" class="node">
<title>Node34</title>
<g id="a_Node000034"><a xlink:href="_ui_8h.html" target="_top" xlink:title=" ">
<polygon fill="white" stroke="#666666" points="2214.12,-80.12 2128.38,-80.12 2128.38,-60.88 2214.12,-60.88 2214.12,-80.12"/>
<text text-anchor="middle" x="2171.25" y="-66.62" font-family="Helvetica,sans-Serif" font-size="10.00">Ajax/TShell/Ui.h</text>
</a>
</g>
</g>
<!-- Node30&#45;&gt;Node34 -->
<g id="edge38_Node000030_Node000034" class="edge">
<title>Node30&#45;&gt;Node34</title>
<g id="a_edge38_Node000030_Node000034"><a xlink:title=" ">
<path fill="none" stroke="#63b8ff" d="M1867.82,-125.1C1875.06,-123.97 1882.3,-122.84 1889.25,-121.75 1991.47,-105.75 2018.09,-107.46 2119.25,-85.75 2126.11,-84.28 2133.42,-82.44 2140.32,-80.59"/>
<polygon fill="#63b8ff" stroke="#63b8ff" points="1867.34,-121.64 1858,-126.64 1868.42,-128.55 1867.34,-121.64"/>
</a>
</g>
</g>
<!-- Node35 -->
<g id="Node000035" class="node">
<title>Node35</title>
<g id="a_Node000035"><a xlink:href="_dm_8h.html" target="_top" xlink:title=" ">
<polygon fill="white" stroke="#666666" points="1359.5,-80.12 1255,-80.12 1255,-60.88 1359.5,-60.88 1359.5,-80.12"/>
<text text-anchor="middle" x="1307.25" y="-66.62" font-family="Helvetica,sans-Serif" font-size="10.00">Cpl/Dm/TShell/Dm.h</text>
</a>
</g>
</g>
<!-- Node30&#45;&gt;Node35 -->
<g id="edge39_Node000030_Node000035" class="edge">
<title>Node30&#45;&gt;Node35</title>
<g id="a_edge39_Node000030_Node000035"><a xlink:title=" ">
<path fill="none" stroke="#63b8ff" d="M1740.42,-124.91C1733.64,-123.77 1726.8,-122.68 1720.25,-121.75 1565,-99.64 1523.96,-111.36 1369.25,-85.75 1360.86,-84.36 1351.91,-82.52 1343.49,-80.62"/>
<polygon fill="#63b8ff" stroke="#63b8ff" points="1739.8,-128.36 1750.25,-126.63 1741,-121.46 1739.8,-128.36"/>
</a>
</g>
</g>
<!-- Node36 -->
<g id="Node000036" class="node">
<title>Node36</title>
<g id="a_Node000036"><a xlink:href="_log_8h.html" target="_top" xlink:title=" ">
<polygon fill="white" stroke="#666666" points="1476.5,-85.75 1378,-85.75 1378,-55.25 1476.5,-55.25 1476.5,-85.75"/>
<text text-anchor="start" x="1386" y="-72.25" font-family="Helvetica,sans-Serif" font-size="10.00">Cpl/Logging/TShell</text>
<text text-anchor="middle" x="1427.25" y="-61" font-family="Helvetica,sans-Serif" font-size="10.00">/Log.h</text>
</a>
</g>
</g>
<!-- Node30&#45;&gt;Node36 -->
<g id="edge40_Node000030_Node000036" class="edge">
<title>Node30&#45;&gt;Node36</title>
<g id="a_edge40_Node000030_Node000036"><a xlink:title=" ">
<path fill="none" stroke="#63b8ff" d="M1738.55,-124.91C1732.38,-123.82 1726.19,-122.75 1720.25,-121.75 1616.05,-104.25 1588.88,-106.38 1485.25,-85.75 1482.5,-85.2 1479.69,-84.61 1476.86,-84"/>
<polygon fill="#63b8ff" stroke="#63b8ff" points="1737.66,-128.31 1748.12,-126.62 1738.89,-121.42 1737.66,-128.31"/>
</a>
</g>
</g>
<!-- Node37 -->
<g id="Node000037" class="node">
<title>Node37</title>
<g id="a_Node000037"><a xlink:href="_cpl_2_m_app_2_cmd_8h.html" target="_top" xlink:title=" ">
<polygon fill="white" stroke="#666666" points="1584,-80.12 1494.5,-80.12 1494.5,-60.88 1584,-60.88 1584,-80.12"/>
<text text-anchor="middle" x="1539.25" y="-66.62" font-family="Helvetica,sans-Serif" font-size="10.00">Cpl/MApp/Cmd.h</text>
</a>
</g>
</g>
<!-- Node30&#45;&gt;Node37 -->
<g id="edge41_Node000030_Node000037" class="edge">
<title>Node30&#45;&gt;Node37</title>
<g id="a_edge41_Node000030_Node000037"><a xlink:title=" ">
<path fill="none" stroke="#63b8ff" d="M1749.24,-124.24C1707.67,-114.21 1646.48,-99.3 1593.25,-85.75 1586.77,-84.1 1579.86,-82.3 1573.22,-80.56"/>
<polygon fill="#63b8ff" stroke="#63b8ff" points="1748.4,-127.64 1758.95,-126.58 1750.04,-120.84 1748.4,-127.64"/>
</a>
</g>
</g>
<!-- Node38 -->
<g id="Node000038" class="node">
<title>Node38</title>
<g id="a_Node000038"><a xlink:href="_dbg_8h.html" target="_top" xlink:title=" ">
<polygon fill="white" stroke="#666666" points="1722.38,-85.75 1602.12,-85.75 1602.12,-55.25 1722.38,-55.25 1722.38,-85.75"/>
<text text-anchor="start" x="1610.12" y="-72.25" font-family="Helvetica,sans-Serif" font-size="10.00">Cpl/TShell/Cmd/Arduino</text>
<text text-anchor="middle" x="1662.25" y="-61" font-family="Helvetica,sans-Serif" font-size="10.00">/Dbg.h</text>
</a>
</g>
</g>
<!-- Node30&#45;&gt;Node38 -->
<g id="edge42_Node000030_Node000038" class="edge">
<title>Node30&#45;&gt;Node38</title>
<g id="a_edge42_Node000030_Node000038"><a xlink:title=" ">
<path fill="none" stroke="#63b8ff" d="M1768.82,-122.04C1746.48,-111.45 1715.83,-96.91 1693.14,-86.15"/>
<polygon fill="#63b8ff" stroke="#63b8ff" points="1767.15,-125.12 1777.69,-126.25 1770.15,-118.8 1767.15,-125.12"/>
</a>
</g>
</g>
<!-- Node58 -->
<g id="Node000058" class="node">
<title>Node58</title>
<g id="a_Node000058"><a xlink:href="_cpl_2_t_shell_2_maker_8h.html" target="_top" xlink:title=" ">
<polygon fill="white" stroke="#666666" points="2491.5,-80.12 2393,-80.12 2393,-60.88 2491.5,-60.88 2491.5,-80.12"/>
<text text-anchor="middle" x="2442.25" y="-66.62" font-family="Helvetica,sans-Serif" font-size="10.00">Cpl/TShell/Maker.h</text>
</a>
</g>
</g>
<!-- Node57&#45;&gt;Node58 -->
<g id="edge44_Node000057_Node000058" class="edge">
<title>Node57&#45;&gt;Node58</title>
<g id="a_edge44_Node000057_Node000058"><a xlink:title=" ">
<path fill="none" stroke="#63b8ff" d="M2006.73,-124.65C2012.29,-123.58 2017.88,-122.59 2023.25,-121.75 2182.13,-96.99 2224.72,-112.69 2383.25,-85.75 2391.35,-84.37 2400,-82.51 2408.1,-80.59"/>
<polygon fill="#63b8ff" stroke="#63b8ff" points="2006.04,-121.21 1996.93,-126.61 2007.42,-128.08 2006.04,-121.21"/>
</a>
</g>
</g>
<!-- Node59 -->
<g id="Node000059" class="node">
<title>Node59</title>
<g id="a_Node000059"><a xlink:href="_polled_processor_8h.html" target="_top" xlink:title=" ">
<polygon fill="white" stroke="#666666" points="2374.62,-80.12 2231.88,-80.12 2231.88,-60.88 2374.62,-60.88 2374.62,-80.12"/>
<text text-anchor="middle" x="2303.25" y="-66.62" font-family="Helvetica,sans-Serif" font-size="10.00">Cpl/TShell/PolledProcessor.h</text>
</a>
</g>
</g>
<!-- Node57&#45;&gt;Node59 -->
<g id="edge45_Node000057_Node000059" class="edge">
<title>Node57&#45;&gt;Node59</title>
<g id="a_edge45_Node000057_Node000059"><a xlink:title=" ">
<path fill="none" stroke="#63b8ff" d="M2009.11,-124.59C2013.89,-123.61 2018.65,-122.65 2023.25,-121.75 2034.41,-119.56 2174.55,-94.49 2252.22,-80.61"/>
<polygon fill="#63b8ff" stroke="#63b8ff" points="2008.58,-121.13 1999.51,-126.59 2010.01,-127.98 2008.58,-121.13"/>
</a>
</g>
</g>
<!-- Node60 -->
<g id="Node000060" class="node">
<title>Node60</title>
<g id="a_Node000060"><a xlink:href="_polled_maker_8h.html" target="_top" xlink:title=" ">
<polygon fill="white" stroke="#666666" points="2474,-19.25 2348.5,-19.25 2348.5,0 2474,0 2474,-19.25"/>
<text text-anchor="middle" x="2411.25" y="-5.75" font-family="Helvetica,sans-Serif" font-size="10.00">Cpl/TShell/PolledMaker.h</text>
</a>
</g>
</g>
<!-- Node59&#45;&gt;Node60 -->
<g id="edge46_Node000059_Node000060" class="edge">
<title>Node59&#45;&gt;Node60</title>
<g id="a_edge46_Node000059_Node000060"><a xlink:title=" ">
<path fill="none" stroke="#63b8ff" d="M2329.53,-55.17C2349.85,-44.1 2377.35,-29.11 2394.69,-19.65"/>
<polygon fill="#63b8ff" stroke="#63b8ff" points="2328.09,-51.97 2320.98,-59.83 2331.44,-58.12 2328.09,-51.97"/>
</a>
</g>
</g>
<!-- Node62 -->
<g id="Node000062" class="node">
<title>Node62</title>
<g id="a_Node000062"><a xlink:href="_restartable_8h.html" target="_top" xlink:title=" ">
<polygon fill="white" stroke="#666666" points="1710.75,-146.62 1589.75,-146.62 1589.75,-127.38 1710.75,-127.38 1710.75,-146.62"/>
<text text-anchor="middle" x="1650.25" y="-133.12" font-family="Helvetica,sans-Serif" font-size="10.00">Cpl/TShell/Restartable.h</text>
</a>
</g>
</g>
<!-- Node61&#45;&gt;Node62 -->
<g id="edge49_Node000061_Node000062" class="edge">
<title>Node61&#45;&gt;Node62</title>
<g id="a_edge49_Node000061_Node000062"><a xlink:title=" ">
<path fill="none" stroke="#63b8ff" d="M1664.13,-182.77C1660.42,-170.8 1655.86,-156.1 1653.01,-146.89"/>
<polygon fill="#63b8ff" stroke="#63b8ff" points="1660.72,-183.57 1667.02,-192.09 1667.4,-181.5 1660.72,-183.57"/>
</a>
</g>
</g>
<!-- Node63&#45;&gt;Node57 -->
<g id="edge51_Node000063_Node000057" class="edge">
<title>Node63&#45;&gt;Node57</title>
<g id="a_edge51_Node000063_Node000057"><a xlink:title=" ">
<path fill="none" stroke="#63b8ff" d="M2036.45,-243.14C2037.94,-227.2 2037.68,-204.96 2028.25,-188.25 2017.23,-168.74 1995.13,-155.07 1978.3,-146.96"/>
<polygon fill="#63b8ff" stroke="#63b8ff" points="2033,-242.48 2035.21,-252.84 2039.95,-243.37 2033,-242.48"/>
</a>
</g>
</g>
<!-- Node64 -->
<g id="Node000064" class="node">
<title>Node64</title>
<g id="a_Node000064"><a xlink:href="_ascii_decoder_8h.html" target="_top" xlink:title=" ">
<polygon fill="white" stroke="#666666" points="2018.75,-213.12 1867.75,-213.12 1867.75,-193.88 2018.75,-193.88 2018.75,-213.12"/>
<text text-anchor="middle" x="1943.25" y="-199.62" font-family="Helvetica,sans-Serif" font-size="10.00">Cpl/Text/Frame/AsciiDecoder.h</text>
</a>
</g>
</g>
<!-- Node63&#45;&gt;Node64 -->
<g id="edge52_Node000063_Node000064" class="edge">
<title>Node63&#45;&gt;Node64</title>
<g id="a_edge52_Node000063_Node000064"><a xlink:title=" ">
<path fill="none" stroke="#63b8ff" d="M2010.41,-248.43C1993.58,-237.42 1971.24,-222.81 1957.05,-213.53"/>
<polygon fill="#63b8ff" stroke="#63b8ff" points="2008.03,-251.06 2018.31,-253.6 2011.86,-245.2 2008.03,-251.06"/>
</a>
</g>
</g>
<!-- Node65 -->
<g id="Node000065" class="node">
<title>Node65</title>
<g id="a_Node000065"><a xlink:href="_line_decoder_8h.html" target="_top" xlink:title=" ">
<polygon fill="white" stroke="#666666" points="2180.25,-146.62 2032.25,-146.62 2032.25,-127.38 2180.25,-127.38 2180.25,-146.62"/>
<text text-anchor="middle" x="2106.25" y="-133.12" font-family="Helvetica,sans-Serif" font-size="10.00">Cpl/Text/Frame/LineDecoder.h</text>
</a>
</g>
</g>
<!-- Node63&#45;&gt;Node65 -->
<g id="edge53_Node000063_Node000065" class="edge">
<title>Node63&#45;&gt;Node65</title>
<g id="a_edge53_Node000063_Node000065"><a xlink:title=" ">
<path fill="none" stroke="#63b8ff" d="M2045.01,-245.11C2050.1,-237.08 2056.07,-227.51 2061.25,-218.75 2076.45,-193.06 2093.32,-162.07 2101.41,-147.05"/>
<polygon fill="#63b8ff" stroke="#63b8ff" points="2042.22,-242.98 2039.78,-253.29 2048.11,-246.75 2042.22,-242.98"/>
</a>
</g>
</g>
<!-- Node63&#45;&gt;Node66 -->
<g id="edge56_Node000063_Node000066" class="edge">
<title>Node63&#45;&gt;Node66</title>
<g id="a_edge56_Node000063_Node000066"><a xlink:title=" ">
<path fill="none" stroke="#63b8ff" d="M2074.77,-251.15C2112.79,-239.96 2168.18,-223.65 2202.4,-213.58"/>
<polygon fill="#63b8ff" stroke="#63b8ff" points="2074.12,-247.7 2065.51,-253.88 2076.1,-254.41 2074.12,-247.7"/>
</a>
</g>
</g>
<!-- Node65&#45;&gt;Node58 -->
<g id="edge54_Node000065_Node000058" class="edge">
<title>Node65&#45;&gt;Node58</title>
<g id="a_edge54_Node000065_Node000058"><a xlink:title=" ">
<path fill="none" stroke="#63b8ff" d="M2169.57,-124.95C2238.26,-112.88 2343.44,-94.16 2383.25,-85.75 2390.67,-84.18 2398.59,-82.37 2406.13,-80.57"/>
<polygon fill="#63b8ff" stroke="#63b8ff" points="2169.19,-121.46 2159.95,-126.64 2170.4,-128.36 2169.19,-121.46"/>
</a>
</g>
</g>
<!-- Node65&#45;&gt;Node60 -->
<g id="edge55_Node000065_Node000060" class="edge">
<title>Node65&#45;&gt;Node60</title>
<g id="a_edge55_Node000065_Node000060"><a xlink:title=" ">
<path fill="none" stroke="#63b8ff" d="M2167.88,-125.03C2175.07,-123.87 2182.32,-122.75 2189.25,-121.75 2258.12,-111.86 2453.97,-137.7 2500.25,-85.75 2509.27,-75.63 2507.37,-66.79 2500.25,-55.25 2489.08,-37.16 2468.1,-26.15 2449.31,-19.59"/>
<polygon fill="#63b8ff" stroke="#63b8ff" points="2167.44,-121.56 2158.15,-126.64 2168.59,-128.46 2167.44,-121.56"/>
</a>
</g>
</g>
<!-- Node66&#45;&gt;Node67 -->
<g id="edge57_Node000066_Node000067" class="edge">
<title>Node66&#45;&gt;Node67</title>
<g id="a_edge57_Node000066_Node000067"><a xlink:title=" ">
<path fill="none" stroke="#63b8ff" d="M2237.29,-182.44C2239.26,-172.69 2241.57,-161.2 2243.36,-152.34"/>
<polygon fill="#63b8ff" stroke="#63b8ff" points="2233.9,-181.55 2235.36,-192.05 2240.76,-182.94 2233.9,-181.55"/>
</a>
</g>
</g>
<!-- Node68 -->
<g id="Node000068" class="node">
<title>Node68</title>
<g id="a_Node000068"><a xlink:href="_driver_2_t_pipe_2_maker_8h.html" target="_top" xlink:title=" ">
<polygon fill="white" stroke="#666666" points="2420,-146.62 2312.5,-146.62 2312.5,-127.38 2420,-127.38 2420,-146.62"/>
<text text-anchor="middle" x="2366.25" y="-133.12" font-family="Helvetica,sans-Serif" font-size="10.00">Driver/TPipe/Maker.h</text>
</a>
</g>
</g>
<!-- Node66&#45;&gt;Node68 -->
<g id="edge58_Node000066_Node000068" class="edge">
<title>Node66&#45;&gt;Node68</title>
<g id="a_edge58_Node000066_Node000068"><a xlink:title=" ">
<path fill="none" stroke="#63b8ff" d="M2262.37,-188.38C2288.29,-175.81 2325.44,-157.79 2347.57,-147.06"/>
<polygon fill="#63b8ff" stroke="#63b8ff" points="2260.86,-185.22 2253.39,-192.74 2263.91,-191.52 2260.86,-185.22"/>
</a>
</g>
</g>
</g>
</svg>
