<?xml version="1.0" encoding="UTF-8" standalone="no"?>
<!DOCTYPE svg PUBLIC "-//W3C//DTD SVG 1.1//EN"
 "http://www.w3.org/Graphics/SVG/1.1/DTD/svg11.dtd">
<!-- Generated by graphviz version 9.0.0 (20230911.1827)
 -->
<!-- Title: Cpl/Math/IntegerExpressionParser.h Pages: 1 -->
<svg width="905pt" height="370pt"
 viewBox="0.00 0.00 905.40 370.00" xmlns="http://www.w3.org/2000/svg" xmlns:xlink="http://www.w3.org/1999/xlink">
<g id="graph0" class="graph" transform="scale(1 1) rotate(0) translate(4 366)">
<title>Cpl/Math/IntegerExpressionParser.h</title>
<!-- Node1 -->
<g id="Node000001" class="node">
<title>Node1</title>
<g id="a_Node000001"><a xlink:title="This file contains a collection of methods that parses a null terminated string that contains an arit...">
<polygon fill="#999999" stroke="#666666" points="277.62,-362 142.38,-362 142.38,-331.5 277.62,-331.5 277.62,-362"/>
<text text-anchor="start" x="150.38" y="-348.5" font-family="Helvetica,sans-Serif" font-size="10.00">Cpl/Math/IntegerExpression</text>
<text text-anchor="middle" x="210" y="-337.25" font-family="Helvetica,sans-Serif" font-size="10.00">Parser.h</text>
</a>
</g>
</g>
<!-- Node2 -->
<g id="Node000002" class="node">
<title>Node2</title>
<g id="a_Node000002"><a xlink:title=" ">
<polygon fill="#e0e0e0" stroke="#999999" points="82,-19.25 0,-19.25 0,0 82,0 82,-19.25"/>
<text text-anchor="middle" x="41" y="-5.75" font-family="Helvetica,sans-Serif" font-size="10.00">colony_config.h</text>
</a>
</g>
</g>
<!-- Node1&#45;&gt;Node2 -->
<g id="edge1_Node000001_Node000002" class="edge">
<title>Node1&#45;&gt;Node2</title>
<g id="a_edge1_Node000001_Node000002"><a xlink:title=" ">
<path fill="none" stroke="#63b8ff" d="M141.93,-336.83C81.6,-324.65 3,-296.36 3,-231.62 3,-231.62 3,-231.62 3,-119.12 3,-86.13 18.84,-50.51 30.07,-29.41"/>
<polygon fill="#63b8ff" stroke="#63b8ff" points="33.02,-31.3 34.82,-20.86 26.9,-27.9 33.02,-31.3"/>
</a>
</g>
</g>
<!-- Node3 -->
<g id="Node000003" class="node">
<title>Node3</title>
<g id="a_Node000003"><a xlink:href="_stack_8h.html" target="_top" xlink:title=" ">
<polygon fill="white" stroke="#666666" points="692.25,-295.5 581.75,-295.5 581.75,-276.25 692.25,-276.25 692.25,-295.5"/>
<text text-anchor="middle" x="637" y="-282" font-family="Helvetica,sans-Serif" font-size="10.00">Cpl/Container/Stack.h</text>
</a>
</g>
</g>
<!-- Node1&#45;&gt;Node3 -->
<g id="edge2_Node000001_Node000003" class="edge">
<title>Node1&#45;&gt;Node3</title>
<g id="a_edge2_Node000001_Node000003"><a xlink:title=" ">
<path fill="none" stroke="#63b8ff" d="M277.66,-336.42C357.79,-325.37 490.42,-307.09 570.18,-296.09"/>
<polygon fill="#63b8ff" stroke="#63b8ff" points="570.62,-299.56 580.05,-294.73 569.67,-292.63 570.62,-299.56"/>
</a>
</g>
</g>
<!-- Node5 -->
<g id="Node000005" class="node">
<title>Node5</title>
<g id="a_Node000005"><a xlink:href="_system_2_trace_8h.html" target="_top" xlink:title=" ">
<polygon fill="white" stroke="#666666" points="260.75,-295.5 159.25,-295.5 159.25,-276.25 260.75,-276.25 260.75,-295.5"/>
<text text-anchor="middle" x="210" y="-282" font-family="Helvetica,sans-Serif" font-size="10.00">Cpl/System/Trace.h</text>
</a>
</g>
</g>
<!-- Node1&#45;&gt;Node5 -->
<g id="edge4_Node000001_Node000005" class="edge">
<title>Node1&#45;&gt;Node5</title>
<g id="a_edge4_Node000001_Node000005"><a xlink:title=" ">
<path fill="none" stroke="#63b8ff" d="M210,-331.2C210,-323.96 210,-315.09 210,-307.19"/>
<polygon fill="#63b8ff" stroke="#63b8ff" points="213.5,-307.46 210,-297.46 206.5,-307.46 213.5,-307.46"/>
</a>
</g>
</g>
<!-- Node4 -->
<g id="Node000004" class="node">
<title>Node4</title>
<g id="a_Node000004"><a xlink:title=" ">
<polygon fill="#e0e0e0" stroke="#999999" points="676.75,-74.5 629.25,-74.5 629.25,-55.25 676.75,-55.25 676.75,-74.5"/>
<text text-anchor="middle" x="653" y="-61" font-family="Helvetica,sans-Serif" font-size="10.00">stdint.h</text>
</a>
</g>
</g>
<!-- Node3&#45;&gt;Node4 -->
<g id="edge3_Node000003_Node000004" class="edge">
<title>Node3&#45;&gt;Node4</title>
<g id="a_edge3_Node000003_Node000004"><a xlink:title=" ">
<path fill="none" stroke="#63b8ff" d="M692.59,-280.34C752.29,-272.16 844.43,-249.23 888,-185 939.66,-108.85 765.01,-78.82 687.83,-69.45"/>
<polygon fill="#63b8ff" stroke="#63b8ff" points="688.6,-66.01 678.26,-68.34 687.79,-72.97 688.6,-66.01"/>
</a>
</g>
</g>
<!-- Node5&#45;&gt;Node2 -->
<g id="edge5_Node000005_Node000002" class="edge">
<title>Node5&#45;&gt;Node2</title>
<g id="a_edge5_Node000005_Node000002"><a xlink:title=" ">
<path fill="none" stroke="#63b8ff" d="M162.92,-275.76C112.92,-263.03 41,-234.6 41,-176.38 41,-176.38 41,-176.38 41,-119.12 41,-88.41 41,-52.8 41,-30.99"/>
<polygon fill="#63b8ff" stroke="#63b8ff" points="44.5,-31.14 41,-21.14 37.5,-31.14 44.5,-31.14"/>
</a>
</g>
</g>
<!-- Node6 -->
<g id="Node000006" class="node">
<title>Node6</title>
<g id="a_Node000006"><a xlink:href="_text_2_string_8h.html" target="_top" xlink:title=" ">
<polygon fill="white" stroke="#666666" points="289,-185 201,-185 201,-165.75 289,-165.75 289,-185"/>
<text text-anchor="middle" x="245" y="-171.5" font-family="Helvetica,sans-Serif" font-size="10.00">Cpl/Text/String.h</text>
</a>
</g>
</g>
<!-- Node5&#45;&gt;Node6 -->
<g id="edge6_Node000005_Node000006" class="edge">
<title>Node5&#45;&gt;Node6</title>
<g id="a_edge6_Node000005_Node000006"><a xlink:title=" ">
<path fill="none" stroke="#63b8ff" d="M213.33,-276.03C216.67,-267.07 221.9,-252.76 226,-240.25 230.81,-225.57 235.77,-208.83 239.42,-196.17"/>
<polygon fill="#63b8ff" stroke="#63b8ff" points="242.78,-197.13 242.15,-186.56 236.05,-195.22 242.78,-197.13"/>
</a>
</g>
</g>
<!-- Node14 -->
<g id="Node000014" class="node">
<title>Node14</title>
<g id="a_Node000014"><a xlink:href="_thread_8h.html" target="_top" xlink:title=" ">
<polygon fill="white" stroke="#666666" points="644.38,-240.25 537.62,-240.25 537.62,-221 644.38,-221 644.38,-240.25"/>
<text text-anchor="middle" x="591" y="-226.75" font-family="Helvetica,sans-Serif" font-size="10.00">Cpl/System/Thread.h</text>
</a>
</g>
</g>
<!-- Node5&#45;&gt;Node14 -->
<g id="edge17_Node000005_Node000014" class="edge">
<title>Node5&#45;&gt;Node14</title>
<g id="a_edge17_Node000005_Node000014"><a xlink:title=" ">
<path fill="none" stroke="#63b8ff" d="M260.99,-277.75C329.46,-268.18 451.15,-251.17 526.09,-240.7"/>
<polygon fill="#63b8ff" stroke="#63b8ff" points="526.33,-244.2 535.75,-239.35 525.36,-237.27 526.33,-244.2"/>
</a>
</g>
</g>
<!-- Node20 -->
<g id="Node000020" class="node">
<title>Node20</title>
<g id="a_Node000020"><a xlink:href="_output_8h.html" target="_top" xlink:title=" ">
<polygon fill="white" stroke="#666666" points="216.62,-240.25 135.38,-240.25 135.38,-221 216.62,-221 216.62,-240.25"/>
<text text-anchor="middle" x="176" y="-226.75" font-family="Helvetica,sans-Serif" font-size="10.00">Cpl/Io/Output.h</text>
</a>
</g>
</g>
<!-- Node5&#45;&gt;Node20 -->
<g id="edge24_Node000005_Node000020" class="edge">
<title>Node5&#45;&gt;Node20</title>
<g id="a_edge24_Node000005_Node000020"><a xlink:title=" ">
<path fill="none" stroke="#63b8ff" d="M204.39,-276.08C199.88,-269.03 193.41,-258.9 187.79,-250.08"/>
<polygon fill="#63b8ff" stroke="#63b8ff" points="190.88,-248.43 182.55,-241.88 184.98,-252.2 190.88,-248.43"/>
</a>
</g>
</g>
<!-- Node7 -->
<g id="Node000007" class="node">
<title>Node7</title>
<g id="a_Node000007"><a xlink:title=" ">
<polygon fill="#e0e0e0" stroke="#999999" points="357.62,-74.5 282.38,-74.5 282.38,-55.25 357.62,-55.25 357.62,-74.5"/>
<text text-anchor="middle" x="320" y="-61" font-family="Helvetica,sans-Serif" font-size="10.00">colony_map.h</text>
</a>
</g>
</g>
<!-- Node6&#45;&gt;Node7 -->
<g id="edge7_Node000006_Node000007" class="edge">
<title>Node6&#45;&gt;Node7</title>
<g id="a_edge7_Node000006_Node000007"><a xlink:title=" ">
<path fill="none" stroke="#63b8ff" d="M261,-165.39C273.6,-157.53 290.71,-145 301,-129.75 309.83,-116.67 314.64,-99.39 317.21,-86.11"/>
<polygon fill="#63b8ff" stroke="#63b8ff" points="320.65,-86.78 318.81,-76.35 313.74,-85.66 320.65,-86.78"/>
</a>
</g>
</g>
<!-- Node8 -->
<g id="Node000008" class="node">
<title>Node8</title>
<g id="a_Node000008"><a xlink:href="_key_8h.html" target="_top" xlink:title=" ">
<polygon fill="white" stroke="#666666" points="291.75,-129.75 190.25,-129.75 190.25,-110.5 291.75,-110.5 291.75,-129.75"/>
<text text-anchor="middle" x="241" y="-116.25" font-family="Helvetica,sans-Serif" font-size="10.00">Cpl/Container/Key.h</text>
</a>
</g>
</g>
<!-- Node6&#45;&gt;Node8 -->
<g id="edge8_Node000006_Node000008" class="edge">
<title>Node6&#45;&gt;Node8</title>
<g id="a_edge8_Node000006_Node000008"><a xlink:title=" ">
<path fill="none" stroke="#63b8ff" d="M244.34,-165.58C243.84,-158.99 243.15,-149.71 242.52,-141.32"/>
<polygon fill="#63b8ff" stroke="#63b8ff" points="246.03,-141.33 241.79,-131.62 239.05,-141.85 246.03,-141.33"/>
</a>
</g>
</g>
<!-- Node12 -->
<g id="Node000012" class="node">
<title>Node12</title>
<g id="a_Node000012"><a xlink:title=" ">
<polygon fill="#e0e0e0" stroke="#999999" points="152.25,-129.75 101.75,-129.75 101.75,-110.5 152.25,-110.5 152.25,-129.75"/>
<text text-anchor="middle" x="127" y="-116.25" font-family="Helvetica,sans-Serif" font-size="10.00">stdarg.h</text>
</a>
</g>
</g>
<!-- Node6&#45;&gt;Node12 -->
<g id="edge15_Node000006_Node000012" class="edge">
<title>Node6&#45;&gt;Node12</title>
<g id="a_edge15_Node000006_Node000012"><a xlink:title=" ">
<path fill="none" stroke="#63b8ff" d="M224.98,-165.34C206.51,-157 178.79,-144.5 157.55,-134.91"/>
<polygon fill="#63b8ff" stroke="#63b8ff" points="159.05,-131.75 148.49,-130.83 156.17,-138.13 159.05,-131.75"/>
</a>
</g>
</g>
<!-- Node13 -->
<g id="Node000013" class="node">
<title>Node13</title>
<g id="a_Node000013"><a xlink:title=" ">
<polygon fill="#e0e0e0" stroke="#999999" points="401.75,-129.75 348.25,-129.75 348.25,-110.5 401.75,-110.5 401.75,-129.75"/>
<text text-anchor="middle" x="375" y="-116.25" font-family="Helvetica,sans-Serif" font-size="10.00">iostream</text>
</a>
</g>
</g>
<!-- Node6&#45;&gt;Node13 -->
<g id="edge16_Node000006_Node000013" class="edge">
<title>Node6&#45;&gt;Node13</title>
<g id="a_edge16_Node000006_Node000013"><a xlink:title=" ">
<path fill="none" stroke="#63b8ff" d="M267.05,-165.34C287.69,-156.89 318.78,-144.15 342.3,-134.52"/>
<polygon fill="#63b8ff" stroke="#63b8ff" points="343.51,-137.81 351.44,-130.78 340.86,-131.33 343.51,-137.81"/>
</a>
</g>
</g>
<!-- Node8&#45;&gt;Node4 -->
<g id="edge12_Node000008_Node000004" class="edge">
<title>Node8&#45;&gt;Node4</title>
<g id="a_edge12_Node000008_Node000004"><a xlink:title=" ">
<path fill="none" stroke="#63b8ff" d="M291.93,-112.54C376.77,-101.58 544.9,-79.85 617.86,-70.42"/>
<polygon fill="#63b8ff" stroke="#63b8ff" points="618.15,-73.91 627.62,-69.15 617.26,-66.97 618.15,-73.91"/>
</a>
</g>
</g>
<!-- Node8&#45;&gt;Node7 -->
<g id="edge14_Node000008_Node000007" class="edge">
<title>Node8&#45;&gt;Node7</title>
<g id="a_edge14_Node000008_Node000007"><a xlink:title=" ">
<path fill="none" stroke="#63b8ff" d="M254.4,-110.09C266.09,-102.21 283.3,-90.61 297.16,-81.27"/>
<polygon fill="#63b8ff" stroke="#63b8ff" points="298.94,-84.29 305.28,-75.8 295.03,-78.49 298.94,-84.29"/>
</a>
</g>
</g>
<!-- Node9 -->
<g id="Node000009" class="node">
<title>Node9</title>
<g id="a_Node000009"><a xlink:href="_fatal_error_8h.html" target="_top" xlink:title=" ">
<polygon fill="white" stroke="#666666" points="195.38,-74.5 76.62,-74.5 76.62,-55.25 195.38,-55.25 195.38,-74.5"/>
<text text-anchor="middle" x="136" y="-61" font-family="Helvetica,sans-Serif" font-size="10.00">Cpl/System/FatalError.h</text>
</a>
</g>
</g>
<!-- Node8&#45;&gt;Node9 -->
<g id="edge9_Node000008_Node000009" class="edge">
<title>Node8&#45;&gt;Node9</title>
<g id="a_edge9_Node000008_Node000009"><a xlink:title=" ">
<path fill="none" stroke="#63b8ff" d="M223.19,-110.09C206.97,-101.87 182.76,-89.59 163.97,-80.06"/>
<polygon fill="#63b8ff" stroke="#63b8ff" points="165.75,-77.04 155.25,-75.64 162.58,-83.28 165.75,-77.04"/>
</a>
</g>
</g>
<!-- Node11 -->
<g id="Node000011" class="node">
<title>Node11</title>
<g id="a_Node000011"><a xlink:title=" ">
<polygon fill="#e0e0e0" stroke="#999999" points="264.75,-74.5 217.25,-74.5 217.25,-55.25 264.75,-55.25 264.75,-74.5"/>
<text text-anchor="middle" x="241" y="-61" font-family="Helvetica,sans-Serif" font-size="10.00">string.h</text>
</a>
</g>
</g>
<!-- Node8&#45;&gt;Node11 -->
<g id="edge13_Node000008_Node000011" class="edge">
<title>Node8&#45;&gt;Node11</title>
<g id="a_edge13_Node000008_Node000011"><a xlink:title=" ">
<path fill="none" stroke="#63b8ff" d="M241,-110.33C241,-103.82 241,-94.67 241,-86.37"/>
<polygon fill="#63b8ff" stroke="#63b8ff" points="244.5,-86.37 241,-76.37 237.5,-86.37 244.5,-86.37"/>
</a>
</g>
</g>
<!-- Node9&#45;&gt;Node2 -->
<g id="edge11_Node000009_Node000002" class="edge">
<title>Node9&#45;&gt;Node2</title>
<g id="a_edge11_Node000009_Node000002"><a xlink:title=" ">
<path fill="none" stroke="#63b8ff" d="M119.88,-54.84C105.42,-46.73 83.92,-34.68 67.02,-25.21"/>
<polygon fill="#63b8ff" stroke="#63b8ff" points="68.95,-22.28 58.51,-20.44 65.53,-28.39 68.95,-22.28"/>
</a>
</g>
</g>
<!-- Node10 -->
<g id="Node000010" class="node">
<title>Node10</title>
<g id="a_Node000010"><a xlink:title=" ">
<polygon fill="#e0e0e0" stroke="#999999" points="161.25,-19.25 110.75,-19.25 110.75,0 161.25,0 161.25,-19.25"/>
<text text-anchor="middle" x="136" y="-5.75" font-family="Helvetica,sans-Serif" font-size="10.00">stddef.h</text>
</a>
</g>
</g>
<!-- Node9&#45;&gt;Node10 -->
<g id="edge10_Node000009_Node000010" class="edge">
<title>Node9&#45;&gt;Node10</title>
<g id="a_edge10_Node000009_Node000010"><a xlink:title=" ">
<path fill="none" stroke="#63b8ff" d="M136,-55.08C136,-48.57 136,-39.42 136,-31.12"/>
<polygon fill="#63b8ff" stroke="#63b8ff" points="139.5,-31.12 136,-21.12 132.5,-31.12 139.5,-31.12"/>
</a>
</g>
</g>
<!-- Node14&#45;&gt;Node7 -->
<g id="edge18_Node000014_Node000007" class="edge">
<title>Node14&#45;&gt;Node7</title>
<g id="a_edge18_Node000014_Node000007"><a xlink:title=" ">
<path fill="none" stroke="#63b8ff" d="M644.48,-223.48C691.98,-215.72 750.39,-199.15 726,-165.75 684.04,-108.3 468.27,-80.27 369.49,-70.29"/>
<polygon fill="#63b8ff" stroke="#63b8ff" points="369.85,-66.81 359.55,-69.31 369.16,-73.78 369.85,-66.81"/>
</a>
</g>
</g>
<!-- Node15 -->
<g id="Node000015" class="node">
<title>Node15</title>
<g id="a_Node000015"><a xlink:href="_runnable_8h.html" target="_top" xlink:title=" ">
<polygon fill="white" stroke="#666666" points="716.62,-185 599.38,-185 599.38,-165.75 716.62,-165.75 716.62,-185"/>
<text text-anchor="middle" x="658" y="-171.5" font-family="Helvetica,sans-Serif" font-size="10.00">Cpl/System/Runnable.h</text>
</a>
</g>
</g>
<!-- Node14&#45;&gt;Node15 -->
<g id="edge19_Node000014_Node000015" class="edge">
<title>Node14&#45;&gt;Node15</title>
<g id="a_edge19_Node000014_Node000015"><a xlink:title=" ">
<path fill="none" stroke="#63b8ff" d="M602.37,-220.59C612.05,-212.9 626.2,-201.65 637.81,-192.43"/>
<polygon fill="#63b8ff" stroke="#63b8ff" points="639.97,-195.18 645.62,-186.22 635.61,-189.7 639.97,-195.18"/>
</a>
</g>
</g>
<!-- Node16 -->
<g id="Node000016" class="node">
<title>Node16</title>
<g id="a_Node000016"><a xlink:href="_signable_8h.html" target="_top" xlink:title=" ">
<polygon fill="white" stroke="#666666" points="581.12,-185 466.88,-185 466.88,-165.75 581.12,-165.75 581.12,-185"/>
<text text-anchor="middle" x="524" y="-171.5" font-family="Helvetica,sans-Serif" font-size="10.00">Cpl/System/Signable.h</text>
</a>
</g>
</g>
<!-- Node14&#45;&gt;Node16 -->
<g id="edge20_Node000014_Node000016" class="edge">
<title>Node14&#45;&gt;Node16</title>
<g id="a_edge20_Node000014_Node000016"><a xlink:title=" ">
<path fill="none" stroke="#63b8ff" d="M579.63,-220.59C569.95,-212.9 555.8,-201.65 544.19,-192.43"/>
<polygon fill="#63b8ff" stroke="#63b8ff" points="546.39,-189.7 536.38,-186.22 542.03,-195.18 546.39,-189.7"/>
</a>
</g>
</g>
<!-- Node18 -->
<g id="Node000018" class="node">
<title>Node18</title>
<g id="a_Node000018"><a xlink:href="_traverser_8h.html" target="_top" xlink:title=" ">
<polygon fill="white" stroke="#666666" points="879,-185 773,-185 773,-165.75 879,-165.75 879,-185"/>
<text text-anchor="middle" x="826" y="-171.5" font-family="Helvetica,sans-Serif" font-size="10.00">Cpl/Type/Traverser.h</text>
</a>
</g>
</g>
<!-- Node14&#45;&gt;Node18 -->
<g id="edge22_Node000014_Node000018" class="edge">
<title>Node14&#45;&gt;Node18</title>
<g id="a_edge22_Node000014_Node000018"><a xlink:title=" ">
<path fill="none" stroke="#63b8ff" d="M631.13,-220.53C670.84,-211.53 731.78,-197.73 774.92,-187.95"/>
<polygon fill="#63b8ff" stroke="#63b8ff" points="775.58,-191.39 784.56,-185.77 774.03,-184.56 775.58,-191.39"/>
</a>
</g>
</g>
<!-- Node19 -->
<g id="Node000019" class="node">
<title>Node19</title>
<g id="a_Node000019"><a xlink:title=" ">
<polygon fill="#e0e0e0" stroke="#999999" points="448.38,-185 401.62,-185 401.62,-165.75 448.38,-165.75 448.38,-185"/>
<text text-anchor="middle" x="425" y="-171.5" font-family="Helvetica,sans-Serif" font-size="10.00">stdlib.h</text>
</a>
</g>
</g>
<!-- Node14&#45;&gt;Node19 -->
<g id="edge23_Node000014_Node000019" class="edge">
<title>Node14&#45;&gt;Node19</title>
<g id="a_edge23_Node000014_Node000019"><a xlink:title=" ">
<path fill="none" stroke="#63b8ff" d="M562.84,-220.59C534.25,-211.42 489.96,-197.21 459.33,-187.39"/>
<polygon fill="#63b8ff" stroke="#63b8ff" points="460.75,-184.17 450.16,-184.45 458.61,-190.83 460.75,-184.17"/>
</a>
</g>
</g>
<!-- Node17 -->
<g id="Node000017" class="node">
<title>Node17</title>
<g id="a_Node000017"><a xlink:href="_item_8h.html" target="_top" xlink:title=" ">
<polygon fill="white" stroke="#666666" points="544.25,-129.75 439.75,-129.75 439.75,-110.5 544.25,-110.5 544.25,-129.75"/>
<text text-anchor="middle" x="492" y="-116.25" font-family="Helvetica,sans-Serif" font-size="10.00">Cpl/Container/Item.h</text>
</a>
</g>
</g>
<!-- Node16&#45;&gt;Node17 -->
<g id="edge21_Node000016_Node000017" class="edge">
<title>Node16&#45;&gt;Node17</title>
<g id="a_edge21_Node000016_Node000017"><a xlink:title=" ">
<path fill="none" stroke="#63b8ff" d="M518.72,-165.58C514.53,-158.61 508.52,-148.62 503.27,-139.87"/>
<polygon fill="#63b8ff" stroke="#63b8ff" points="506.33,-138.18 498.18,-131.41 500.33,-141.78 506.33,-138.18"/>
</a>
</g>
</g>
<!-- Node20&#45;&gt;Node6 -->
<g id="edge25_Node000020_Node000006" class="edge">
<title>Node20&#45;&gt;Node6</title>
<g id="a_edge25_Node000020_Node000006"><a xlink:title=" ">
<path fill="none" stroke="#63b8ff" d="M187.7,-220.59C197.78,-212.82 212.54,-201.42 224.56,-192.15"/>
<polygon fill="#63b8ff" stroke="#63b8ff" points="226.49,-195.08 232.27,-186.2 222.21,-189.54 226.49,-195.08"/>
</a>
</g>
</g>
<!-- Node20&#45;&gt;Node12 -->
<g id="edge29_Node000020_Node000012" class="edge">
<title>Node20&#45;&gt;Node12</title>
<g id="a_edge29_Node000020_Node000012"><a xlink:title=" ">
<path fill="none" stroke="#63b8ff" d="M145.31,-220.59C128.13,-213.78 108.18,-202.54 98,-185 89.25,-169.91 99.37,-151.71 109.98,-138.6"/>
<polygon fill="#63b8ff" stroke="#63b8ff" points="112.52,-141.02 116.53,-131.21 107.28,-136.38 112.52,-141.02"/>
</a>
</g>
</g>
<!-- Node21 -->
<g id="Node000021" class="node">
<title>Node21</title>
<g id="a_Node000021"><a xlink:href="_close_8h.html" target="_top" xlink:title=" ">
<polygon fill="white" stroke="#666666" points="383.38,-185 306.62,-185 306.62,-165.75 383.38,-165.75 383.38,-185"/>
<text text-anchor="middle" x="345" y="-171.5" font-family="Helvetica,sans-Serif" font-size="10.00">Cpl/Io/Close.h</text>
</a>
</g>
</g>
<!-- Node20&#45;&gt;Node21 -->
<g id="edge26_Node000020_Node000021" class="edge">
<title>Node20&#45;&gt;Node21</title>
<g id="a_edge26_Node000020_Node000021"><a xlink:title=" ">
<path fill="none" stroke="#63b8ff" d="M204.67,-220.59C232.35,-211.87 274.49,-198.59 305.37,-188.86"/>
<polygon fill="#63b8ff" stroke="#63b8ff" points="306.26,-192.25 314.75,-185.91 304.16,-185.57 306.26,-192.25"/>
</a>
</g>
</g>
<!-- Node22 -->
<g id="Node000022" class="node">
<title>Node22</title>
<g id="a_Node000022"><a xlink:href="_is_eos_8h.html" target="_top" xlink:title=" ">
<polygon fill="white" stroke="#666666" points="183.38,-185 106.62,-185 106.62,-165.75 183.38,-165.75 183.38,-185"/>
<text text-anchor="middle" x="145" y="-171.5" font-family="Helvetica,sans-Serif" font-size="10.00">Cpl/Io/IsEos.h</text>
</a>
</g>
</g>
<!-- Node20&#45;&gt;Node22 -->
<g id="edge28_Node000020_Node000022" class="edge">
<title>Node20&#45;&gt;Node22</title>
<g id="a_edge28_Node000020_Node000022"><a xlink:title=" ">
<path fill="none" stroke="#63b8ff" d="M170.88,-220.83C166.82,-213.86 161.01,-203.87 155.91,-195.12"/>
<polygon fill="#63b8ff" stroke="#63b8ff" points="159.05,-193.55 150.99,-186.67 153,-197.07 159.05,-193.55"/>
</a>
</g>
</g>
<!-- Node21&#45;&gt;Node17 -->
<g id="edge27_Node000021_Node000017" class="edge">
<title>Node21&#45;&gt;Node17</title>
<g id="a_edge27_Node000021_Node000017"><a xlink:title=" ">
<path fill="none" stroke="#63b8ff" d="M369.94,-165.34C393.69,-156.74 429.71,-143.69 456.46,-134"/>
<polygon fill="#63b8ff" stroke="#63b8ff" points="457.31,-137.41 465.52,-130.72 454.92,-130.83 457.31,-137.41"/>
</a>
</g>
</g>
</g>
</svg>
