<?xml version="1.0" encoding="UTF-8" standalone="no"?>
<!DOCTYPE svg PUBLIC "-//W3C//DTD SVG 1.1//EN"
 "http://www.w3.org/Graphics/SVG/1.1/DTD/svg11.dtd">
<!-- Generated by graphviz version 9.0.0 (20230911.1827)
 -->
<!-- Title: Cpl/Itc/MailboxServer.h Pages: 1 -->
<svg width="958pt" height="248pt"
 viewBox="0.00 0.00 957.88 248.25" xmlns="http://www.w3.org/2000/svg" xmlns:xlink="http://www.w3.org/1999/xlink">
<g id="graph0" class="graph" transform="scale(1 1) rotate(0) translate(4 244.25)">
<title>Cpl/Itc/MailboxServer.h</title>
<!-- Node1 -->
<g id="Node000001" class="node">
<title>Node1</title>
<g id="a_Node000001"><a xlink:title=" ">
<polygon fill="#999999" stroke="#666666" points="624,-240.25 507.5,-240.25 507.5,-221 624,-221 624,-240.25"/>
<text text-anchor="middle" x="565.75" y="-226.75" font-family="Helvetica,sans-Serif" font-size="10.00">Cpl/Itc/MailboxServer.h</text>
</a>
</g>
</g>
<!-- Node2 -->
<g id="Node000002" class="node">
<title>Node2</title>
<g id="a_Node000002"><a xlink:href="_system_2_event_loop_8h.html" target="_top" xlink:title=" ">
<polygon fill="white" stroke="#666666" points="487.38,-185 364.12,-185 364.12,-165.75 487.38,-165.75 487.38,-185"/>
<text text-anchor="middle" x="425.75" y="-171.5" font-family="Helvetica,sans-Serif" font-size="10.00">Cpl/System/EventLoop.h</text>
</a>
</g>
</g>
<!-- Node1&#45;&gt;Node2 -->
<g id="edge1_Node000001_Node000002" class="edge">
<title>Node1&#45;&gt;Node2</title>
<g id="a_edge1_Node000001_Node000002"><a xlink:title=" ">
<path fill="none" stroke="#63b8ff" d="M542,-220.59C519.58,-212.06 485.69,-199.17 460.28,-189.51"/>
<polygon fill="#63b8ff" stroke="#63b8ff" points="461.62,-186.27 451.03,-185.99 459.13,-192.82 461.62,-186.27"/>
</a>
</g>
</g>
<!-- Node15 -->
<g id="Node000015" class="node">
<title>Node15</title>
<g id="a_Node000015"><a xlink:href="_mailbox_8h.html" target="_top" xlink:title=" ">
<polygon fill="white" stroke="#666666" points="785.75,-185 697.75,-185 697.75,-165.75 785.75,-165.75 785.75,-185"/>
<text text-anchor="middle" x="741.75" y="-171.5" font-family="Helvetica,sans-Serif" font-size="10.00">Cpl/Itc/Mailbox.h</text>
</a>
</g>
</g>
<!-- Node1&#45;&gt;Node15 -->
<g id="edge17_Node000001_Node000015" class="edge">
<title>Node1&#45;&gt;Node15</title>
<g id="a_edge17_Node000001_Node000015"><a xlink:title=" ">
<path fill="none" stroke="#63b8ff" d="M595.61,-220.59C624.56,-211.83 668.7,-198.48 700.9,-188.73"/>
<polygon fill="#63b8ff" stroke="#63b8ff" points="701.74,-192.14 710.3,-185.89 699.71,-185.44 701.74,-192.14"/>
</a>
</g>
</g>
<!-- Node3 -->
<g id="Node000003" class="node">
<title>Node3</title>
<g id="a_Node000003"><a xlink:href="_runnable_8h.html" target="_top" xlink:title=" ">
<polygon fill="white" stroke="#666666" points="338.38,-129.75 221.12,-129.75 221.12,-110.5 338.38,-110.5 338.38,-129.75"/>
<text text-anchor="middle" x="279.75" y="-116.25" font-family="Helvetica,sans-Serif" font-size="10.00">Cpl/System/Runnable.h</text>
</a>
</g>
</g>
<!-- Node2&#45;&gt;Node3 -->
<g id="edge2_Node000002_Node000003" class="edge">
<title>Node2&#45;&gt;Node3</title>
<g id="a_edge2_Node000002_Node000003"><a xlink:title=" ">
<path fill="none" stroke="#63b8ff" d="M400.98,-165.34C377.49,-156.77 341.94,-143.81 315.4,-134.13"/>
<polygon fill="#63b8ff" stroke="#63b8ff" points="316.65,-130.86 306.06,-130.72 314.26,-137.44 316.65,-130.86"/>
</a>
</g>
</g>
<!-- Node4 -->
<g id="Node000004" class="node">
<title>Node4</title>
<g id="a_Node000004"><a xlink:href="_semaphore_8h.html" target="_top" xlink:title=" ">
<polygon fill="white" stroke="#666666" points="639.88,-129.75 513.62,-129.75 513.62,-110.5 639.88,-110.5 639.88,-129.75"/>
<text text-anchor="middle" x="576.75" y="-116.25" font-family="Helvetica,sans-Serif" font-size="10.00">Cpl/System/Semaphore.h</text>
</a>
</g>
</g>
<!-- Node2&#45;&gt;Node4 -->
<g id="edge3_Node000002_Node000004" class="edge">
<title>Node2&#45;&gt;Node4</title>
<g id="a_edge3_Node000002_Node000004"><a xlink:title=" ">
<path fill="none" stroke="#63b8ff" d="M451.37,-165.34C475.77,-156.74 512.76,-143.69 540.25,-134"/>
<polygon fill="#63b8ff" stroke="#63b8ff" points="541.32,-137.33 549.58,-130.71 538.99,-130.73 541.32,-137.33"/>
</a>
</g>
</g>
<!-- Node6 -->
<g id="Node000006" class="node">
<title>Node6</title>
<g id="a_Node000006"><a xlink:href="_signable_8h.html" target="_top" xlink:title=" ">
<polygon fill="white" stroke="#666666" points="731.88,-74.5 617.62,-74.5 617.62,-55.25 731.88,-55.25 731.88,-74.5"/>
<text text-anchor="middle" x="674.75" y="-61" font-family="Helvetica,sans-Serif" font-size="10.00">Cpl/System/Signable.h</text>
</a>
</g>
</g>
<!-- Node2&#45;&gt;Node6 -->
<g id="edge7_Node000002_Node000006" class="edge">
<title>Node2&#45;&gt;Node6</title>
<g id="a_edge7_Node000002_Node000006"><a xlink:title=" ">
<path fill="none" stroke="#63b8ff" d="M487.66,-168.56C544.9,-162.04 624.63,-149.69 648.75,-129.75 661.88,-118.89 668.45,-100.37 671.69,-86.05"/>
<polygon fill="#63b8ff" stroke="#63b8ff" points="675.11,-86.82 673.49,-76.35 668.23,-85.54 675.11,-86.82"/>
</a>
</g>
</g>
<!-- Node8 -->
<g id="Node000008" class="node">
<title>Node8</title>
<g id="a_Node000008"><a xlink:href="_event_flag_8h.html" target="_top" xlink:title=" ">
<polygon fill="white" stroke="#666666" points="124.88,-74.5 4.62,-74.5 4.62,-55.25 124.88,-55.25 124.88,-74.5"/>
<text text-anchor="middle" x="64.75" y="-61" font-family="Helvetica,sans-Serif" font-size="10.00">Cpl/System/EventFlag.h</text>
</a>
</g>
</g>
<!-- Node2&#45;&gt;Node8 -->
<g id="edge8_Node000002_Node000008" class="edge">
<title>Node2&#45;&gt;Node8</title>
<g id="a_edge8_Node000002_Node000008"><a xlink:title=" ">
<path fill="none" stroke="#63b8ff" d="M364,-171.9C257.79,-166.99 49.74,-154.34 27.75,-129.75 14.9,-115.37 29.94,-95.83 44.52,-82.16"/>
<polygon fill="#63b8ff" stroke="#63b8ff" points="46.48,-85.09 51.7,-75.87 41.87,-79.83 46.48,-85.09"/>
</a>
</g>
</g>
<!-- Node11 -->
<g id="Node000011" class="node">
<title>Node11</title>
<g id="a_Node000011"><a xlink:href="_shared_event_handler_8h.html" target="_top" xlink:title=" ">
<polygon fill="white" stroke="#666666" points="202.75,-129.75 36.75,-129.75 36.75,-110.5 202.75,-110.5 202.75,-129.75"/>
<text text-anchor="middle" x="119.75" y="-116.25" font-family="Helvetica,sans-Serif" font-size="10.00">Cpl/System/SharedEventHandler.h</text>
</a>
</g>
</g>
<!-- Node2&#45;&gt;Node11 -->
<g id="edge11_Node000002_Node000011" class="edge">
<title>Node2&#45;&gt;Node11</title>
<g id="a_edge11_Node000002_Node000011"><a xlink:title=" ">
<path fill="none" stroke="#63b8ff" d="M373.49,-165.28C320.87,-156.12 239.64,-141.99 183.31,-132.19"/>
<polygon fill="#63b8ff" stroke="#63b8ff" points="183.99,-128.75 173.54,-130.49 182.79,-135.65 183.99,-128.75"/>
</a>
</g>
</g>
<!-- Node12 -->
<g id="Node000012" class="node">
<title>Node12</title>
<g id="a_Node000012"><a xlink:href="_timer_manager_8h.html" target="_top" xlink:title=" ">
<polygon fill="white" stroke="#666666" points="495.25,-129.75 356.25,-129.75 356.25,-110.5 495.25,-110.5 495.25,-129.75"/>
<text text-anchor="middle" x="425.75" y="-116.25" font-family="Helvetica,sans-Serif" font-size="10.00">Cpl/System/TimerManager.h</text>
</a>
</g>
</g>
<!-- Node2&#45;&gt;Node12 -->
<g id="edge13_Node000002_Node000012" class="edge">
<title>Node2&#45;&gt;Node12</title>
<g id="a_edge13_Node000002_Node000012"><a xlink:title=" ">
<path fill="none" stroke="#63b8ff" d="M425.75,-165.58C425.75,-159.07 425.75,-149.92 425.75,-141.62"/>
<polygon fill="#63b8ff" stroke="#63b8ff" points="429.25,-141.62 425.75,-131.62 422.25,-141.62 429.25,-141.62"/>
</a>
</g>
</g>
<!-- Node5 -->
<g id="Node000005" class="node">
<title>Node5</title>
<g id="a_Node000005"><a xlink:title=" ">
<polygon fill="#e0e0e0" stroke="#999999" points="599.38,-74.5 524.12,-74.5 524.12,-55.25 599.38,-55.25 599.38,-74.5"/>
<text text-anchor="middle" x="561.75" y="-61" font-family="Helvetica,sans-Serif" font-size="10.00">colony_map.h</text>
</a>
</g>
</g>
<!-- Node4&#45;&gt;Node5 -->
<g id="edge4_Node000004_Node000005" class="edge">
<title>Node4&#45;&gt;Node5</title>
<g id="a_edge4_Node000004_Node000005"><a xlink:title=" ">
<path fill="none" stroke="#63b8ff" d="M574.27,-110.33C572.4,-103.67 569.74,-94.24 567.36,-85.78"/>
<polygon fill="#63b8ff" stroke="#63b8ff" points="570.77,-84.99 564.69,-76.32 564.03,-86.89 570.77,-84.99"/>
</a>
</g>
</g>
<!-- Node4&#45;&gt;Node6 -->
<g id="edge5_Node000004_Node000006" class="edge">
<title>Node4&#45;&gt;Node6</title>
<g id="a_edge5_Node000004_Node000006"><a xlink:title=" ">
<path fill="none" stroke="#63b8ff" d="M593.37,-110.09C608.44,-101.91 630.89,-89.71 648.4,-80.19"/>
<polygon fill="#63b8ff" stroke="#63b8ff" points="649.6,-83.52 656.71,-75.68 646.26,-77.37 649.6,-83.52"/>
</a>
</g>
</g>
<!-- Node7 -->
<g id="Node000007" class="node">
<title>Node7</title>
<g id="a_Node000007"><a xlink:href="_item_8h.html" target="_top" xlink:title=" ">
<polygon fill="white" stroke="#666666" points="788,-19.25 683.5,-19.25 683.5,0 788,0 788,-19.25"/>
<text text-anchor="middle" x="735.75" y="-5.75" font-family="Helvetica,sans-Serif" font-size="10.00">Cpl/Container/Item.h</text>
</a>
</g>
</g>
<!-- Node6&#45;&gt;Node7 -->
<g id="edge6_Node000006_Node000007" class="edge">
<title>Node6&#45;&gt;Node7</title>
<g id="a_edge6_Node000006_Node000007"><a xlink:title=" ">
<path fill="none" stroke="#63b8ff" d="M685.1,-54.84C693.83,-47.22 706.54,-36.12 717.05,-26.95"/>
<polygon fill="#63b8ff" stroke="#63b8ff" points="719.18,-29.73 724.41,-20.52 714.58,-24.46 719.18,-29.73"/>
</a>
</g>
</g>
<!-- Node9 -->
<g id="Node000009" class="node">
<title>Node9</title>
<g id="a_Node000009"><a xlink:title=" ">
<polygon fill="#e0e0e0" stroke="#999999" points="147.75,-19.25 65.75,-19.25 65.75,0 147.75,0 147.75,-19.25"/>
<text text-anchor="middle" x="106.75" y="-5.75" font-family="Helvetica,sans-Serif" font-size="10.00">colony_config.h</text>
</a>
</g>
</g>
<!-- Node8&#45;&gt;Node9 -->
<g id="edge9_Node000008_Node000009" class="edge">
<title>Node8&#45;&gt;Node9</title>
<g id="a_edge9_Node000008_Node000009"><a xlink:title=" ">
<path fill="none" stroke="#63b8ff" d="M71.69,-55.08C77.37,-47.88 85.59,-37.46 92.64,-28.51"/>
<polygon fill="#63b8ff" stroke="#63b8ff" points="95.28,-30.82 98.73,-20.8 89.79,-26.48 95.28,-30.82"/>
</a>
</g>
</g>
<!-- Node10 -->
<g id="Node000010" class="node">
<title>Node10</title>
<g id="a_Node000010"><a xlink:title=" ">
<polygon fill="#e0e0e0" stroke="#999999" points="47.5,-19.25 0,-19.25 0,0 47.5,0 47.5,-19.25"/>
<text text-anchor="middle" x="23.75" y="-5.75" font-family="Helvetica,sans-Serif" font-size="10.00">stdint.h</text>
</a>
</g>
</g>
<!-- Node8&#45;&gt;Node10 -->
<g id="edge10_Node000008_Node000010" class="edge">
<title>Node8&#45;&gt;Node10</title>
<g id="a_edge10_Node000008_Node000010"><a xlink:title=" ">
<path fill="none" stroke="#63b8ff" d="M57.98,-55.08C52.43,-47.88 44.41,-37.46 37.52,-28.51"/>
<polygon fill="#63b8ff" stroke="#63b8ff" points="40.46,-26.6 31.59,-20.81 34.92,-30.87 40.46,-26.6"/>
</a>
</g>
</g>
<!-- Node11&#45;&gt;Node8 -->
<g id="edge12_Node000011_Node000008" class="edge">
<title>Node11&#45;&gt;Node8</title>
<g id="a_edge12_Node000011_Node000008"><a xlink:title=" ">
<path fill="none" stroke="#63b8ff" d="M110.67,-110.33C102.91,-102.82 91.54,-91.81 82.05,-82.63"/>
<polygon fill="#63b8ff" stroke="#63b8ff" points="84.74,-80.35 75.12,-75.91 79.87,-85.38 84.74,-80.35"/>
</a>
</g>
</g>
<!-- Node13 -->
<g id="Node000013" class="node">
<title>Node13</title>
<g id="a_Node000013"><a xlink:href="_counter___8h.html" target="_top" xlink:title=" ">
<polygon fill="white" stroke="#666666" points="505.62,-74.5 389.88,-74.5 389.88,-55.25 505.62,-55.25 505.62,-74.5"/>
<text text-anchor="middle" x="447.75" y="-61" font-family="Helvetica,sans-Serif" font-size="10.00">Cpl/System/Counter_.h</text>
</a>
</g>
</g>
<!-- Node12&#45;&gt;Node13 -->
<g id="edge14_Node000012_Node000013" class="edge">
<title>Node12&#45;&gt;Node13</title>
<g id="a_edge14_Node000012_Node000013"><a xlink:title=" ">
<path fill="none" stroke="#63b8ff" d="M429.38,-110.33C432.17,-103.59 436.12,-94.02 439.65,-85.49"/>
<polygon fill="#63b8ff" stroke="#63b8ff" points="442.88,-86.84 443.46,-76.26 436.41,-84.16 442.88,-86.84"/>
</a>
</g>
</g>
<!-- Node14 -->
<g id="Node000014" class="node">
<title>Node14</title>
<g id="a_Node000014"><a xlink:href="_d_list_8h.html" target="_top" xlink:title=" ">
<polygon fill="white" stroke="#666666" points="371.88,-74.5 263.62,-74.5 263.62,-55.25 371.88,-55.25 371.88,-74.5"/>
<text text-anchor="middle" x="317.75" y="-61" font-family="Helvetica,sans-Serif" font-size="10.00">Cpl/Container/DList.h</text>
</a>
</g>
</g>
<!-- Node12&#45;&gt;Node14 -->
<g id="edge16_Node000012_Node000014" class="edge">
<title>Node12&#45;&gt;Node14</title>
<g id="a_edge16_Node000012_Node000014"><a xlink:title=" ">
<path fill="none" stroke="#63b8ff" d="M407.43,-110.09C390.67,-101.83 365.62,-89.48 346.25,-79.93"/>
<polygon fill="#63b8ff" stroke="#63b8ff" points="348.03,-76.9 337.52,-75.62 344.94,-83.18 348.03,-76.9"/>
</a>
</g>
</g>
<!-- Node13&#45;&gt;Node7 -->
<g id="edge15_Node000013_Node000007" class="edge">
<title>Node13&#45;&gt;Node7</title>
<g id="a_edge15_Node000013_Node000007"><a xlink:title=" ">
<path fill="none" stroke="#63b8ff" d="M496.93,-54.78C546.32,-45.65 622.51,-31.56 675.5,-21.76"/>
<polygon fill="#63b8ff" stroke="#63b8ff" points="676.09,-25.22 685.28,-19.96 674.81,-18.33 676.09,-25.22"/>
</a>
</g>
</g>
<!-- Node15&#45;&gt;Node6 -->
<g id="edge23_Node000015_Node000006" class="edge">
<title>Node15&#45;&gt;Node6</title>
<g id="a_edge23_Node000015_Node000006"><a xlink:title=" ">
<path fill="none" stroke="#63b8ff" d="M736.27,-165.5C725.37,-147.85 700.79,-108.05 686.22,-84.45"/>
<polygon fill="#63b8ff" stroke="#63b8ff" points="689.34,-82.83 681.1,-76.16 683.38,-86.51 689.34,-82.83"/>
</a>
</g>
</g>
<!-- Node16 -->
<g id="Node000016" class="node">
<title>Node16</title>
<g id="a_Node000016"><a xlink:href="_post_api_8h.html" target="_top" xlink:title=" ">
<polygon fill="white" stroke="#666666" points="823.5,-129.75 734,-129.75 734,-110.5 823.5,-110.5 823.5,-129.75"/>
<text text-anchor="middle" x="778.75" y="-116.25" font-family="Helvetica,sans-Serif" font-size="10.00">Cpl/Itc/PostApi.h</text>
</a>
</g>
</g>
<!-- Node15&#45;&gt;Node16 -->
<g id="edge18_Node000015_Node000016" class="edge">
<title>Node15&#45;&gt;Node16</title>
<g id="a_edge18_Node000015_Node000016"><a xlink:title=" ">
<path fill="none" stroke="#63b8ff" d="M747.86,-165.58C752.81,-158.46 759.95,-148.18 766.12,-139.3"/>
<polygon fill="#63b8ff" stroke="#63b8ff" points="768.81,-141.56 771.64,-131.35 763.06,-137.57 768.81,-141.56"/>
</a>
</g>
</g>
<!-- Node18 -->
<g id="Node000018" class="node">
<title>Node18</title>
<g id="a_Node000018"><a xlink:href="_s_list_8h.html" target="_top" xlink:title=" ">
<polygon fill="white" stroke="#666666" points="949.88,-129.75 841.62,-129.75 841.62,-110.5 949.88,-110.5 949.88,-129.75"/>
<text text-anchor="middle" x="895.75" y="-116.25" font-family="Helvetica,sans-Serif" font-size="10.00">Cpl/Container/SList.h</text>
</a>
</g>
</g>
<!-- Node15&#45;&gt;Node18 -->
<g id="edge21_Node000015_Node000018" class="edge">
<title>Node15&#45;&gt;Node18</title>
<g id="a_edge21_Node000015_Node000018"><a xlink:title=" ">
<path fill="none" stroke="#63b8ff" d="M767.87,-165.34C792.87,-156.7 830.83,-143.57 858.9,-133.87"/>
<polygon fill="#63b8ff" stroke="#63b8ff" points="859.76,-137.27 868.07,-130.7 857.47,-130.66 859.76,-137.27"/>
</a>
</g>
</g>
<!-- Node17 -->
<g id="Node000017" class="node">
<title>Node17</title>
<g id="a_Node000017"><a xlink:href="_message_8h.html" target="_top" xlink:title=" ">
<polygon fill="white" stroke="#666666" points="845.12,-74.5 750.38,-74.5 750.38,-55.25 845.12,-55.25 845.12,-74.5"/>
<text text-anchor="middle" x="797.75" y="-61" font-family="Helvetica,sans-Serif" font-size="10.00">Cpl/Itc/Message.h</text>
</a>
</g>
</g>
<!-- Node16&#45;&gt;Node17 -->
<g id="edge19_Node000016_Node000017" class="edge">
<title>Node16&#45;&gt;Node17</title>
<g id="a_edge19_Node000016_Node000017"><a xlink:title=" ">
<path fill="none" stroke="#63b8ff" d="M781.89,-110.33C784.29,-103.59 787.71,-94.02 790.75,-85.49"/>
<polygon fill="#63b8ff" stroke="#63b8ff" points="793.97,-86.88 794.04,-76.28 787.38,-84.53 793.97,-86.88"/>
</a>
</g>
</g>
<!-- Node17&#45;&gt;Node7 -->
<g id="edge20_Node000017_Node000007" class="edge">
<title>Node17&#45;&gt;Node7</title>
<g id="a_edge20_Node000017_Node000007"><a xlink:title=" ">
<path fill="none" stroke="#63b8ff" d="M787.23,-54.84C778.36,-47.22 765.44,-36.12 754.76,-26.95"/>
<polygon fill="#63b8ff" stroke="#63b8ff" points="757.13,-24.37 747.26,-20.51 752.57,-29.68 757.13,-24.37"/>
</a>
</g>
</g>
<!-- Node18&#45;&gt;Node7 -->
<g id="edge22_Node000018_Node000007" class="edge">
<title>Node18&#45;&gt;Node7</title>
<g id="a_edge22_Node000018_Node000007"><a xlink:title=" ">
<path fill="none" stroke="#63b8ff" d="M892.17,-110.43C886.17,-96.84 872.81,-70.52 853.75,-55.25 834.96,-40.2 810.55,-29.84 788.81,-22.93"/>
<polygon fill="#63b8ff" stroke="#63b8ff" points="790.09,-19.66 779.51,-20.15 788.09,-26.37 790.09,-19.66"/>
</a>
</g>
</g>
</g>
</svg>
