<?xml version="1.0" encoding="UTF-8" standalone="no"?>
<!DOCTYPE svg PUBLIC "-//W3C//DTD SVG 1.1//EN"
 "http://www.w3.org/Graphics/SVG/1.1/DTD/svg11.dtd">
<!-- Generated by graphviz version 9.0.0 (20230911.1827)
 -->
<!-- Title: Cpl/Itc/PeriodicScheduler.h Pages: 1 -->
<svg width="1086pt" height="304pt"
 viewBox="0.00 0.00 1085.62 303.50" xmlns="http://www.w3.org/2000/svg" xmlns:xlink="http://www.w3.org/1999/xlink">
<g id="graph0" class="graph" transform="scale(1 1) rotate(0) translate(4 299.5)">
<title>Cpl/Itc/PeriodicScheduler.h</title>
<!-- Node1 -->
<g id="Node000001" class="node">
<title>Node1</title>
<g id="a_Node000001"><a xlink:title=" ">
<polygon fill="#999999" stroke="#666666" points="754,-295.5 620.25,-295.5 620.25,-276.25 754,-276.25 754,-295.5"/>
<text text-anchor="middle" x="687.12" y="-282" font-family="Helvetica,sans-Serif" font-size="10.00">Cpl/Itc/PeriodicScheduler.h</text>
</a>
</g>
</g>
<!-- Node2 -->
<g id="Node000002" class="node">
<title>Node2</title>
<g id="a_Node000002"><a xlink:href="_itc_2_mailbox_server_8h.html" target="_top" xlink:title=" ">
<polygon fill="white" stroke="#666666" points="668.38,-240.25 551.88,-240.25 551.88,-221 668.38,-221 668.38,-240.25"/>
<text text-anchor="middle" x="610.12" y="-226.75" font-family="Helvetica,sans-Serif" font-size="10.00">Cpl/Itc/MailboxServer.h</text>
</a>
</g>
</g>
<!-- Node1&#45;&gt;Node2 -->
<g id="edge1_Node000001_Node000002" class="edge">
<title>Node1&#45;&gt;Node2</title>
<g id="a_edge1_Node000001_Node000002"><a xlink:title=" ">
<path fill="none" stroke="#63b8ff" d="M674.06,-275.84C662.67,-267.96 645.9,-256.36 632.39,-247.02"/>
<polygon fill="#63b8ff" stroke="#63b8ff" points="634.71,-244.37 624.5,-241.56 630.73,-250.13 634.71,-244.37"/>
</a>
</g>
</g>
<!-- Node20 -->
<g id="Node000020" class="node">
<title>Node20</title>
<g id="a_Node000020"><a xlink:href="_system_2_periodic_scheduler_8h.html" target="_top" xlink:title=" ">
<polygon fill="white" stroke="#666666" points="1001.88,-240.25 846.38,-240.25 846.38,-221 1001.88,-221 1001.88,-240.25"/>
<text text-anchor="middle" x="924.12" y="-226.75" font-family="Helvetica,sans-Serif" font-size="10.00">Cpl/System/PeriodicScheduler.h</text>
</a>
</g>
</g>
<!-- Node1&#45;&gt;Node20 -->
<g id="edge25_Node000001_Node000020" class="edge">
<title>Node1&#45;&gt;Node20</title>
<g id="a_edge25_Node000001_Node000020"><a xlink:title=" ">
<path fill="none" stroke="#63b8ff" d="M727.6,-275.78C767.65,-266.78 829.1,-252.98 872.61,-243.2"/>
<polygon fill="#63b8ff" stroke="#63b8ff" points="873.35,-246.62 882.34,-241.01 871.82,-239.79 873.35,-246.62"/>
</a>
</g>
</g>
<!-- Node3 -->
<g id="Node000003" class="node">
<title>Node3</title>
<g id="a_Node000003"><a xlink:href="_system_2_event_loop_8h.html" target="_top" xlink:title=" ">
<polygon fill="white" stroke="#666666" points="671.75,-185 548.5,-185 548.5,-165.75 671.75,-165.75 671.75,-185"/>
<text text-anchor="middle" x="610.12" y="-171.5" font-family="Helvetica,sans-Serif" font-size="10.00">Cpl/System/EventLoop.h</text>
</a>
</g>
</g>
<!-- Node2&#45;&gt;Node3 -->
<g id="edge2_Node000002_Node000003" class="edge">
<title>Node2&#45;&gt;Node3</title>
<g id="a_edge2_Node000002_Node000003"><a xlink:title=" ">
<path fill="none" stroke="#63b8ff" d="M610.12,-220.83C610.12,-214.32 610.12,-205.17 610.12,-196.87"/>
<polygon fill="#63b8ff" stroke="#63b8ff" points="613.63,-196.87 610.13,-186.87 606.63,-196.87 613.63,-196.87"/>
</a>
</g>
</g>
<!-- Node16 -->
<g id="Node000016" class="node">
<title>Node16</title>
<g id="a_Node000016"><a xlink:href="_mailbox_8h.html" target="_top" xlink:title=" ">
<polygon fill="white" stroke="#666666" points="262.12,-185 174.12,-185 174.12,-165.75 262.12,-165.75 262.12,-185"/>
<text text-anchor="middle" x="218.12" y="-171.5" font-family="Helvetica,sans-Serif" font-size="10.00">Cpl/Itc/Mailbox.h</text>
</a>
</g>
</g>
<!-- Node2&#45;&gt;Node16 -->
<g id="edge18_Node000002_Node000016" class="edge">
<title>Node2&#45;&gt;Node16</title>
<g id="a_edge18_Node000002_Node000016"><a xlink:title=" ">
<path fill="none" stroke="#63b8ff" d="M551.44,-221.65C476.43,-211.46 347.49,-193.95 273.9,-183.95"/>
<polygon fill="#63b8ff" stroke="#63b8ff" points="274.46,-180.5 264.08,-182.62 273.52,-187.43 274.46,-180.5"/>
</a>
</g>
</g>
<!-- Node4 -->
<g id="Node000004" class="node">
<title>Node4</title>
<g id="a_Node000004"><a xlink:href="_runnable_8h.html" target="_top" xlink:title=" ">
<polygon fill="white" stroke="#666666" points="741.75,-129.75 624.5,-129.75 624.5,-110.5 741.75,-110.5 741.75,-129.75"/>
<text text-anchor="middle" x="683.12" y="-116.25" font-family="Helvetica,sans-Serif" font-size="10.00">Cpl/System/Runnable.h</text>
</a>
</g>
</g>
<!-- Node3&#45;&gt;Node4 -->
<g id="edge3_Node000003_Node000004" class="edge">
<title>Node3&#45;&gt;Node4</title>
<g id="a_edge3_Node000003_Node000004"><a xlink:title=" ">
<path fill="none" stroke="#63b8ff" d="M622.51,-165.34C633.27,-157.49 649.1,-145.95 661.88,-136.62"/>
<polygon fill="#63b8ff" stroke="#63b8ff" points="663.69,-139.64 669.7,-130.92 659.56,-133.98 663.69,-139.64"/>
</a>
</g>
</g>
<!-- Node5 -->
<g id="Node000005" class="node">
<title>Node5</title>
<g id="a_Node000005"><a xlink:href="_semaphore_8h.html" target="_top" xlink:title=" ">
<polygon fill="white" stroke="#666666" points="449.25,-129.75 323,-129.75 323,-110.5 449.25,-110.5 449.25,-129.75"/>
<text text-anchor="middle" x="386.12" y="-116.25" font-family="Helvetica,sans-Serif" font-size="10.00">Cpl/System/Semaphore.h</text>
</a>
</g>
</g>
<!-- Node3&#45;&gt;Node5 -->
<g id="edge4_Node000003_Node000005" class="edge">
<title>Node3&#45;&gt;Node5</title>
<g id="a_edge4_Node000003_Node000005"><a xlink:title=" ">
<path fill="none" stroke="#63b8ff" d="M571.87,-165.28C534.18,-156.32 476.43,-142.59 435.34,-132.82"/>
<polygon fill="#63b8ff" stroke="#63b8ff" points="436.23,-129.44 425.69,-130.53 434.61,-136.25 436.23,-129.44"/>
</a>
</g>
</g>
<!-- Node7 -->
<g id="Node000007" class="node">
<title>Node7</title>
<g id="a_Node000007"><a xlink:href="_signable_8h.html" target="_top" xlink:title=" ">
<polygon fill="white" stroke="#666666" points="354.25,-74.5 240,-74.5 240,-55.25 354.25,-55.25 354.25,-74.5"/>
<text text-anchor="middle" x="297.12" y="-61" font-family="Helvetica,sans-Serif" font-size="10.00">Cpl/System/Signable.h</text>
</a>
</g>
</g>
<!-- Node3&#45;&gt;Node7 -->
<g id="edge8_Node000003_Node000007" class="edge">
<title>Node3&#45;&gt;Node7</title>
<g id="a_edge8_Node000003_Node000007"><a xlink:title=" ">
<path fill="none" stroke="#63b8ff" d="M548.18,-172.83C471.73,-169.63 347.72,-159.82 314.12,-129.75 301.96,-118.86 298.06,-100.34 297.01,-86.03"/>
<polygon fill="#63b8ff" stroke="#63b8ff" points="300.51,-86.25 296.72,-76.36 293.52,-86.46 300.51,-86.25"/>
</a>
</g>
</g>
<!-- Node9 -->
<g id="Node000009" class="node">
<title>Node9</title>
<g id="a_Node000009"><a xlink:href="_event_flag_8h.html" target="_top" xlink:title=" ">
<polygon fill="white" stroke="#666666" points="941.25,-74.5 821,-74.5 821,-55.25 941.25,-55.25 941.25,-74.5"/>
<text text-anchor="middle" x="881.12" y="-61" font-family="Helvetica,sans-Serif" font-size="10.00">Cpl/System/EventFlag.h</text>
</a>
</g>
</g>
<!-- Node3&#45;&gt;Node9 -->
<g id="edge9_Node000003_Node000009" class="edge">
<title>Node3&#45;&gt;Node9</title>
<g id="a_edge9_Node000003_Node000009"><a xlink:title=" ">
<path fill="none" stroke="#63b8ff" d="M644,-165.33C672.91,-157.21 715.35,-144.36 751.12,-129.75 768.65,-122.59 772.16,-118.91 789.12,-110.5 810.17,-100.07 834.03,-88.5 852.18,-79.76"/>
<polygon fill="#63b8ff" stroke="#63b8ff" points="853.54,-82.99 861.04,-75.5 850.51,-76.68 853.54,-82.99"/>
</a>
</g>
</g>
<!-- Node12 -->
<g id="Node000012" class="node">
<title>Node12</title>
<g id="a_Node000012"><a xlink:href="_shared_event_handler_8h.html" target="_top" xlink:title=" ">
<polygon fill="white" stroke="#666666" points="964.12,-129.75 798.12,-129.75 798.12,-110.5 964.12,-110.5 964.12,-129.75"/>
<text text-anchor="middle" x="881.12" y="-116.25" font-family="Helvetica,sans-Serif" font-size="10.00">Cpl/System/SharedEventHandler.h</text>
</a>
</g>
</g>
<!-- Node3&#45;&gt;Node12 -->
<g id="edge12_Node000003_Node000012" class="edge">
<title>Node3&#45;&gt;Node12</title>
<g id="a_edge12_Node000003_Node000012"><a xlink:title=" ">
<path fill="none" stroke="#63b8ff" d="M656.4,-165.28C702.69,-156.19 773.97,-142.18 823.8,-132.39"/>
<polygon fill="#63b8ff" stroke="#63b8ff" points="824.41,-135.84 833.55,-130.47 823.06,-128.97 824.41,-135.84"/>
</a>
</g>
</g>
<!-- Node13 -->
<g id="Node000013" class="node">
<title>Node13</title>
<g id="a_Node000013"><a xlink:href="_timer_manager_8h.html" target="_top" xlink:title=" ">
<polygon fill="white" stroke="#666666" points="606.62,-129.75 467.62,-129.75 467.62,-110.5 606.62,-110.5 606.62,-129.75"/>
<text text-anchor="middle" x="537.12" y="-116.25" font-family="Helvetica,sans-Serif" font-size="10.00">Cpl/System/TimerManager.h</text>
</a>
</g>
</g>
<!-- Node3&#45;&gt;Node13 -->
<g id="edge14_Node000003_Node000013" class="edge">
<title>Node3&#45;&gt;Node13</title>
<g id="a_edge14_Node000003_Node000013"><a xlink:title=" ">
<path fill="none" stroke="#63b8ff" d="M597.74,-165.34C586.98,-157.49 571.15,-145.95 558.37,-136.62"/>
<polygon fill="#63b8ff" stroke="#63b8ff" points="560.69,-133.98 550.55,-130.92 556.56,-139.64 560.69,-133.98"/>
</a>
</g>
</g>
<!-- Node6 -->
<g id="Node000006" class="node">
<title>Node6</title>
<g id="a_Node000006"><a xlink:title=" ">
<polygon fill="#e0e0e0" stroke="#999999" points="447.75,-74.5 372.5,-74.5 372.5,-55.25 447.75,-55.25 447.75,-74.5"/>
<text text-anchor="middle" x="410.12" y="-61" font-family="Helvetica,sans-Serif" font-size="10.00">colony_map.h</text>
</a>
</g>
</g>
<!-- Node5&#45;&gt;Node6 -->
<g id="edge5_Node000005_Node000006" class="edge">
<title>Node5&#45;&gt;Node6</title>
<g id="a_edge5_Node000005_Node000006"><a xlink:title=" ">
<path fill="none" stroke="#63b8ff" d="M390.09,-110.33C393.16,-103.51 397.54,-93.81 401.41,-85.2"/>
<polygon fill="#63b8ff" stroke="#63b8ff" points="404.54,-86.79 405.45,-76.24 398.15,-83.92 404.54,-86.79"/>
</a>
</g>
</g>
<!-- Node5&#45;&gt;Node7 -->
<g id="edge6_Node000005_Node000007" class="edge">
<title>Node5&#45;&gt;Node7</title>
<g id="a_edge6_Node000005_Node000007"><a xlink:title=" ">
<path fill="none" stroke="#63b8ff" d="M371.03,-110.09C357.6,-102.06 337.71,-90.16 321.95,-80.73"/>
<polygon fill="#63b8ff" stroke="#63b8ff" points="323.97,-77.86 313.6,-75.73 320.38,-83.87 323.97,-77.86"/>
</a>
</g>
</g>
<!-- Node8 -->
<g id="Node000008" class="node">
<title>Node8</title>
<g id="a_Node000008"><a xlink:href="_item_8h.html" target="_top" xlink:title=" ">
<polygon fill="white" stroke="#666666" points="288.38,-19.25 183.88,-19.25 183.88,0 288.38,0 288.38,-19.25"/>
<text text-anchor="middle" x="236.12" y="-5.75" font-family="Helvetica,sans-Serif" font-size="10.00">Cpl/Container/Item.h</text>
</a>
</g>
</g>
<!-- Node7&#45;&gt;Node8 -->
<g id="edge7_Node000007_Node000008" class="edge">
<title>Node7&#45;&gt;Node8</title>
<g id="a_edge7_Node000007_Node000008"><a xlink:title=" ">
<path fill="none" stroke="#63b8ff" d="M286.78,-54.84C278.05,-47.22 265.34,-36.12 254.83,-26.95"/>
<polygon fill="#63b8ff" stroke="#63b8ff" points="257.3,-24.46 247.46,-20.52 252.69,-29.73 257.3,-24.46"/>
</a>
</g>
</g>
<!-- Node10 -->
<g id="Node000010" class="node">
<title>Node10</title>
<g id="a_Node000010"><a xlink:title=" ">
<polygon fill="#e0e0e0" stroke="#999999" points="922.12,-19.25 840.12,-19.25 840.12,0 922.12,0 922.12,-19.25"/>
<text text-anchor="middle" x="881.12" y="-5.75" font-family="Helvetica,sans-Serif" font-size="10.00">colony_config.h</text>
</a>
</g>
</g>
<!-- Node9&#45;&gt;Node10 -->
<g id="edge10_Node000009_Node000010" class="edge">
<title>Node9&#45;&gt;Node10</title>
<g id="a_edge10_Node000009_Node000010"><a xlink:title=" ">
<path fill="none" stroke="#63b8ff" d="M881.12,-55.08C881.12,-48.57 881.12,-39.42 881.12,-31.12"/>
<polygon fill="#63b8ff" stroke="#63b8ff" points="884.63,-31.12 881.13,-21.12 877.63,-31.12 884.63,-31.12"/>
</a>
</g>
</g>
<!-- Node11 -->
<g id="Node000011" class="node">
<title>Node11</title>
<g id="a_Node000011"><a xlink:title=" ">
<polygon fill="#e0e0e0" stroke="#999999" points="1039.88,-19.25 992.38,-19.25 992.38,0 1039.88,0 1039.88,-19.25"/>
<text text-anchor="middle" x="1016.12" y="-5.75" font-family="Helvetica,sans-Serif" font-size="10.00">stdint.h</text>
</a>
</g>
</g>
<!-- Node9&#45;&gt;Node11 -->
<g id="edge11_Node000009_Node000011" class="edge">
<title>Node9&#45;&gt;Node11</title>
<g id="a_edge11_Node000009_Node000011"><a xlink:title=" ">
<path fill="none" stroke="#63b8ff" d="M904.03,-54.84C925.55,-46.35 958.04,-33.54 982.5,-23.89"/>
<polygon fill="#63b8ff" stroke="#63b8ff" points="983.69,-27.18 991.7,-20.26 981.12,-20.67 983.69,-27.18"/>
</a>
</g>
</g>
<!-- Node12&#45;&gt;Node9 -->
<g id="edge13_Node000012_Node000009" class="edge">
<title>Node12&#45;&gt;Node9</title>
<g id="a_edge13_Node000012_Node000009"><a xlink:title=" ">
<path fill="none" stroke="#63b8ff" d="M881.12,-110.33C881.12,-103.82 881.12,-94.67 881.12,-86.37"/>
<polygon fill="#63b8ff" stroke="#63b8ff" points="884.63,-86.37 881.13,-76.37 877.63,-86.37 884.63,-86.37"/>
</a>
</g>
</g>
<!-- Node14 -->
<g id="Node000014" class="node">
<title>Node14</title>
<g id="a_Node000014"><a xlink:href="_counter___8h.html" target="_top" xlink:title=" ">
<polygon fill="white" stroke="#666666" points="582,-74.5 466.25,-74.5 466.25,-55.25 582,-55.25 582,-74.5"/>
<text text-anchor="middle" x="524.12" y="-61" font-family="Helvetica,sans-Serif" font-size="10.00">Cpl/System/Counter_.h</text>
</a>
</g>
</g>
<!-- Node13&#45;&gt;Node14 -->
<g id="edge15_Node000013_Node000014" class="edge">
<title>Node13&#45;&gt;Node14</title>
<g id="a_edge15_Node000013_Node000014"><a xlink:title=" ">
<path fill="none" stroke="#63b8ff" d="M534.98,-110.33C533.35,-103.67 531.05,-94.24 528.98,-85.78"/>
<polygon fill="#63b8ff" stroke="#63b8ff" points="532.45,-85.21 526.68,-76.33 525.65,-86.87 532.45,-85.21"/>
</a>
</g>
</g>
<!-- Node15 -->
<g id="Node000015" class="node">
<title>Node15</title>
<g id="a_Node000015"><a xlink:href="_d_list_8h.html" target="_top" xlink:title=" ">
<polygon fill="white" stroke="#666666" points="708.25,-74.5 600,-74.5 600,-55.25 708.25,-55.25 708.25,-74.5"/>
<text text-anchor="middle" x="654.12" y="-61" font-family="Helvetica,sans-Serif" font-size="10.00">Cpl/Container/DList.h</text>
</a>
</g>
</g>
<!-- Node13&#45;&gt;Node15 -->
<g id="edge17_Node000013_Node000015" class="edge">
<title>Node13&#45;&gt;Node15</title>
<g id="a_edge17_Node000013_Node000015"><a xlink:title=" ">
<path fill="none" stroke="#63b8ff" d="M556.97,-110.09C575.29,-101.75 602.77,-89.25 623.83,-79.66"/>
<polygon fill="#63b8ff" stroke="#63b8ff" points="625.15,-82.91 632.8,-75.58 622.25,-76.54 625.15,-82.91"/>
</a>
</g>
</g>
<!-- Node14&#45;&gt;Node8 -->
<g id="edge16_Node000014_Node000008" class="edge">
<title>Node14&#45;&gt;Node8</title>
<g id="a_edge16_Node000014_Node000008"><a xlink:title=" ">
<path fill="none" stroke="#63b8ff" d="M474.94,-54.78C425.55,-45.65 349.37,-31.56 296.37,-21.76"/>
<polygon fill="#63b8ff" stroke="#63b8ff" points="297.06,-18.33 286.59,-19.96 295.79,-25.22 297.06,-18.33"/>
</a>
</g>
</g>
<!-- Node16&#45;&gt;Node7 -->
<g id="edge24_Node000016_Node000007" class="edge">
<title>Node16&#45;&gt;Node7</title>
<g id="a_edge24_Node000016_Node000007"><a xlink:title=" ">
<path fill="none" stroke="#63b8ff" d="M224.59,-165.5C237.49,-147.77 266.68,-107.69 283.84,-84.13"/>
<polygon fill="#63b8ff" stroke="#63b8ff" points="286.62,-86.24 289.68,-76.1 280.96,-82.12 286.62,-86.24"/>
</a>
</g>
</g>
<!-- Node17 -->
<g id="Node000017" class="node">
<title>Node17</title>
<g id="a_Node000017"><a xlink:href="_post_api_8h.html" target="_top" xlink:title=" ">
<polygon fill="white" stroke="#666666" points="219.88,-129.75 130.38,-129.75 130.38,-110.5 219.88,-110.5 219.88,-129.75"/>
<text text-anchor="middle" x="175.12" y="-116.25" font-family="Helvetica,sans-Serif" font-size="10.00">Cpl/Itc/PostApi.h</text>
</a>
</g>
</g>
<!-- Node16&#45;&gt;Node17 -->
<g id="edge19_Node000016_Node000017" class="edge">
<title>Node16&#45;&gt;Node17</title>
<g id="a_edge19_Node000016_Node000017"><a xlink:title=" ">
<path fill="none" stroke="#63b8ff" d="M211.02,-165.58C205.21,-158.38 196.79,-147.96 189.57,-139.01"/>
<polygon fill="#63b8ff" stroke="#63b8ff" points="192.34,-136.87 183.33,-131.29 186.89,-141.27 192.34,-136.87"/>
</a>
</g>
</g>
<!-- Node19 -->
<g id="Node000019" class="node">
<title>Node19</title>
<g id="a_Node000019"><a xlink:href="_s_list_8h.html" target="_top" xlink:title=" ">
<polygon fill="white" stroke="#666666" points="108.25,-74.5 0,-74.5 0,-55.25 108.25,-55.25 108.25,-74.5"/>
<text text-anchor="middle" x="54.12" y="-61" font-family="Helvetica,sans-Serif" font-size="10.00">Cpl/Container/SList.h</text>
</a>
</g>
</g>
<!-- Node16&#45;&gt;Node19 -->
<g id="edge22_Node000016_Node000019" class="edge">
<title>Node16&#45;&gt;Node19</title>
<g id="a_edge22_Node000016_Node000019"><a xlink:title=" ">
<path fill="none" stroke="#63b8ff" d="M192.61,-165.32C172.31,-157.5 143.67,-145.05 121.12,-129.75 101.27,-116.27 81.79,-96.79 68.99,-82.89"/>
<polygon fill="#63b8ff" stroke="#63b8ff" points="71.92,-80.91 62.63,-75.81 66.71,-85.59 71.92,-80.91"/>
</a>
</g>
</g>
<!-- Node18 -->
<g id="Node000018" class="node">
<title>Node18</title>
<g id="a_Node000018"><a xlink:href="_message_8h.html" target="_top" xlink:title=" ">
<polygon fill="white" stroke="#666666" points="221.5,-74.5 126.75,-74.5 126.75,-55.25 221.5,-55.25 221.5,-74.5"/>
<text text-anchor="middle" x="174.12" y="-61" font-family="Helvetica,sans-Serif" font-size="10.00">Cpl/Itc/Message.h</text>
</a>
</g>
</g>
<!-- Node17&#45;&gt;Node18 -->
<g id="edge20_Node000017_Node000018" class="edge">
<title>Node17&#45;&gt;Node18</title>
<g id="a_edge20_Node000017_Node000018"><a xlink:title=" ">
<path fill="none" stroke="#63b8ff" d="M174.96,-110.33C174.84,-103.82 174.67,-94.67 174.51,-86.37"/>
<polygon fill="#63b8ff" stroke="#63b8ff" points="178.01,-86.3 174.32,-76.37 171.01,-86.44 178.01,-86.3"/>
</a>
</g>
</g>
<!-- Node18&#45;&gt;Node8 -->
<g id="edge21_Node000018_Node000008" class="edge">
<title>Node18&#45;&gt;Node8</title>
<g id="a_edge21_Node000018_Node000008"><a xlink:title=" ">
<path fill="none" stroke="#63b8ff" d="M184.64,-54.84C193.51,-47.22 206.44,-36.12 217.11,-26.95"/>
<polygon fill="#63b8ff" stroke="#63b8ff" points="219.31,-29.68 224.61,-20.51 214.75,-24.37 219.31,-29.68"/>
</a>
</g>
</g>
<!-- Node19&#45;&gt;Node8 -->
<g id="edge23_Node000019_Node000008" class="edge">
<title>Node19&#45;&gt;Node8</title>
<g id="a_edge23_Node000019_Node000008"><a xlink:title=" ">
<path fill="none" stroke="#63b8ff" d="M85,-54.84C115.07,-46.04 160.99,-32.61 194.32,-22.86"/>
<polygon fill="#63b8ff" stroke="#63b8ff" points="195.03,-26.29 203.65,-20.13 193.07,-19.58 195.03,-26.29"/>
</a>
</g>
</g>
<!-- Node21 -->
<g id="Node000021" class="node">
<title>Node21</title>
<g id="a_Node000021"><a xlink:href="_elapsed_time_8h.html" target="_top" xlink:title=" ">
<polygon fill="white" stroke="#666666" points="1077.62,-185 944.62,-185 944.62,-165.75 1077.62,-165.75 1077.62,-185"/>
<text text-anchor="middle" x="1011.12" y="-171.5" font-family="Helvetica,sans-Serif" font-size="10.00">Cpl/System/ElapsedTime.h</text>
</a>
</g>
</g>
<!-- Node20&#45;&gt;Node21 -->
<g id="edge26_Node000020_Node000021" class="edge">
<title>Node20&#45;&gt;Node21</title>
<g id="a_edge26_Node000020_Node000021"><a xlink:title=" ">
<path fill="none" stroke="#63b8ff" d="M938.88,-220.59C952.01,-212.56 971.45,-200.66 986.86,-191.23"/>
<polygon fill="#63b8ff" stroke="#63b8ff" points="988.3,-194.45 995,-186.24 984.65,-188.48 988.3,-194.45"/>
</a>
</g>
</g>
<!-- Node21&#45;&gt;Node11 -->
<g id="edge27_Node000021_Node000011" class="edge">
<title>Node21&#45;&gt;Node11</title>
<g id="a_edge27_Node000021_Node000011"><a xlink:title=" ">
<path fill="none" stroke="#63b8ff" d="M1022.2,-165.45C1031.39,-157.28 1043.78,-144.27 1049.12,-129.75 1061.98,-94.82 1042.27,-52.54 1028.22,-28.91"/>
<polygon fill="#63b8ff" stroke="#63b8ff" points="1031.38,-27.35 1023.1,-20.73 1025.44,-31.07 1031.38,-27.35"/>
</a>
</g>
</g>
<!-- Node22 -->
<g id="Node000022" class="node">
<title>Node22</title>
<g id="a_Node000022"><a xlink:title=" ">
<polygon fill="#e0e0e0" stroke="#999999" points="1040.12,-129.75 982.12,-129.75 982.12,-110.5 1040.12,-110.5 1040.12,-129.75"/>
<text text-anchor="middle" x="1011.12" y="-116.25" font-family="Helvetica,sans-Serif" font-size="10.00">memory.h</text>
</a>
</g>
</g>
<!-- Node21&#45;&gt;Node22 -->
<g id="edge28_Node000021_Node000022" class="edge">
<title>Node21&#45;&gt;Node22</title>
<g id="a_edge28_Node000021_Node000022"><a xlink:title=" ">
<path fill="none" stroke="#63b8ff" d="M1011.12,-165.58C1011.12,-159.07 1011.12,-149.92 1011.12,-141.62"/>
<polygon fill="#63b8ff" stroke="#63b8ff" points="1014.63,-141.62 1011.13,-131.62 1007.63,-141.62 1014.63,-141.62"/>
</a>
</g>
</g>
</g>
</svg>
