<?xml version="1.0" encoding="UTF-8" standalone="no"?>
<!DOCTYPE svg PUBLIC "-//W3C//DTD SVG 1.1//EN"
 "http://www.w3.org/Graphics/SVG/1.1/DTD/svg11.dtd">
<!-- Generated by graphviz version 9.0.0 (20230911.1827)
 -->
<!-- Title: Cpl/Io/LineReader.h Pages: 1 -->
<svg width="622pt" height="414pt"
 viewBox="0.00 0.00 621.88 414.00" xmlns="http://www.w3.org/2000/svg" xmlns:xlink="http://www.w3.org/1999/xlink">
<g id="graph0" class="graph" transform="scale(1 1) rotate(0) translate(4 410)">
<title>Cpl/Io/LineReader.h</title>
<!-- Node1 -->
<g id="Node000001" class="node">
<title>Node1</title>
<g id="a_Node000001"><a xlink:title=" ">
<polygon fill="#999999" stroke="#666666" points="427.12,-406 325.62,-406 325.62,-386.75 427.12,-386.75 427.12,-406"/>
<text text-anchor="middle" x="376.38" y="-392.5" font-family="Helvetica,sans-Serif" font-size="10.00">Cpl/Io/LineReader.h</text>
</a>
</g>
</g>
<!-- Node2 -->
<g id="Node000002" class="node">
<title>Node2</title>
<g id="a_Node000002"><a xlink:href="_line_reader_api_8h.html" target="_top" xlink:title=" ">
<polygon fill="white" stroke="#666666" points="342.25,-295.5 226.5,-295.5 226.5,-276.25 342.25,-276.25 342.25,-295.5"/>
<text text-anchor="middle" x="284.38" y="-282" font-family="Helvetica,sans-Serif" font-size="10.00">Cpl/Io/LineReaderApi.h</text>
</a>
</g>
</g>
<!-- Node1&#45;&gt;Node2 -->
<g id="edge1_Node000001_Node000002" class="edge">
<title>Node1&#45;&gt;Node2</title>
<g id="a_edge1_Node000001_Node000002"><a xlink:title=" ">
<path fill="none" stroke="#63b8ff" d="M368.85,-386.5C353.68,-368.61 319.22,-327.97 299.32,-304.5"/>
<polygon fill="#63b8ff" stroke="#63b8ff" points="302.12,-302.39 292.99,-297.03 296.78,-306.92 302.12,-302.39"/>
</a>
</g>
</g>
<!-- Node14 -->
<g id="Node000014" class="node">
<title>Node14</title>
<g id="a_Node000014"><a xlink:href="_input_8h.html" target="_top" xlink:title=" ">
<polygon fill="white" stroke="#666666" points="174.25,-350.75 100.5,-350.75 100.5,-331.5 174.25,-331.5 174.25,-350.75"/>
<text text-anchor="middle" x="137.38" y="-337.25" font-family="Helvetica,sans-Serif" font-size="10.00">Cpl/Io/Input.h</text>
</a>
</g>
</g>
<!-- Node1&#45;&gt;Node14 -->
<g id="edge14_Node000001_Node000014" class="edge">
<title>Node1&#45;&gt;Node14</title>
<g id="a_edge14_Node000001_Node000014"><a xlink:title=" ">
<path fill="none" stroke="#63b8ff" d="M335.56,-386.28C293.98,-377.02 229.53,-362.66 185.49,-352.85"/>
<polygon fill="#63b8ff" stroke="#63b8ff" points="186.48,-349.48 175.96,-350.72 184.96,-356.31 186.48,-349.48"/>
</a>
</g>
</g>
<!-- Node17 -->
<g id="Node000017" class="node">
<title>Node17</title>
<g id="a_Node000017"><a xlink:href="_new_line_8h.html" target="_top" xlink:title=" ">
<polygon fill="white" stroke="#666666" points="613.88,-129.75 522.88,-129.75 522.88,-110.5 613.88,-110.5 613.88,-129.75"/>
<text text-anchor="middle" x="568.38" y="-116.25" font-family="Helvetica,sans-Serif" font-size="10.00">Cpl/Io/NewLine.h</text>
</a>
</g>
</g>
<!-- Node1&#45;&gt;Node17 -->
<g id="edge19_Node000001_Node000017" class="edge">
<title>Node1&#45;&gt;Node17</title>
<g id="a_edge19_Node000001_Node000017"><a xlink:title=" ">
<path fill="none" stroke="#63b8ff" d="M427.6,-389.03C485.08,-378.72 570.38,-352.38 570.38,-286.88 570.38,-286.88 570.38,-286.88 570.38,-229.62 570.38,-198.9 569.56,-163.29 568.97,-141.49"/>
<polygon fill="#63b8ff" stroke="#63b8ff" points="572.48,-141.54 568.7,-131.64 565.48,-141.73 572.48,-141.54"/>
</a>
</g>
</g>
<!-- Node18 -->
<g id="Node000018" class="node">
<title>Node18</title>
<g id="a_Node000018"><a xlink:href="_f_string_8h.html" target="_top" xlink:title=" ">
<polygon fill="white" stroke="#666666" points="461.38,-350.75 367.38,-350.75 367.38,-331.5 461.38,-331.5 461.38,-350.75"/>
<text text-anchor="middle" x="414.38" y="-337.25" font-family="Helvetica,sans-Serif" font-size="10.00">Cpl/Text/FString.h</text>
</a>
</g>
</g>
<!-- Node1&#45;&gt;Node18 -->
<g id="edge22_Node000001_Node000018" class="edge">
<title>Node1&#45;&gt;Node18</title>
<g id="a_edge22_Node000001_Node000018"><a xlink:title=" ">
<path fill="none" stroke="#63b8ff" d="M382.65,-386.58C387.73,-379.46 395.07,-369.18 401.41,-360.3"/>
<polygon fill="#63b8ff" stroke="#63b8ff" points="404.12,-362.51 407.08,-352.34 398.43,-358.45 404.12,-362.51"/>
</a>
</g>
</g>
<!-- Node3 -->
<g id="Node000003" class="node">
<title>Node3</title>
<g id="a_Node000003"><a xlink:href="_text_2_string_8h.html" target="_top" xlink:title=" ">
<polygon fill="white" stroke="#666666" points="333.38,-185 245.38,-185 245.38,-165.75 333.38,-165.75 333.38,-185"/>
<text text-anchor="middle" x="289.38" y="-171.5" font-family="Helvetica,sans-Serif" font-size="10.00">Cpl/Text/String.h</text>
</a>
</g>
</g>
<!-- Node2&#45;&gt;Node3 -->
<g id="edge2_Node000002_Node000003" class="edge">
<title>Node2&#45;&gt;Node3</title>
<g id="a_edge2_Node000002_Node000003"><a xlink:title=" ">
<path fill="none" stroke="#63b8ff" d="M283.76,-275.77C283.03,-263.36 282.07,-240.48 283.38,-221 283.92,-212.91 285,-204.05 286.11,-196.37"/>
<polygon fill="#63b8ff" stroke="#63b8ff" points="289.53,-197.14 287.6,-186.73 282.61,-196.07 289.53,-197.14"/>
</a>
</g>
</g>
<!-- Node13 -->
<g id="Node000013" class="node">
<title>Node13</title>
<g id="a_Node000013"><a xlink:href="_item_8h.html" target="_top" xlink:title=" ">
<polygon fill="white" stroke="#666666" points="236.62,-240.25 132.12,-240.25 132.12,-221 236.62,-221 236.62,-240.25"/>
<text text-anchor="middle" x="184.38" y="-226.75" font-family="Helvetica,sans-Serif" font-size="10.00">Cpl/Container/Item.h</text>
</a>
</g>
</g>
<!-- Node2&#45;&gt;Node13 -->
<g id="edge13_Node000002_Node000013" class="edge">
<title>Node2&#45;&gt;Node13</title>
<g id="a_edge13_Node000002_Node000013"><a xlink:title=" ">
<path fill="none" stroke="#63b8ff" d="M267.41,-275.84C252.11,-267.69 229.34,-255.57 211.51,-246.08"/>
<polygon fill="#63b8ff" stroke="#63b8ff" points="213.23,-243.02 202.76,-241.41 209.94,-249.2 213.23,-243.02"/>
</a>
</g>
</g>
<!-- Node4 -->
<g id="Node000004" class="node">
<title>Node4</title>
<g id="a_Node000004"><a xlink:title=" ">
<polygon fill="#e0e0e0" stroke="#999999" points="466,-74.5 390.75,-74.5 390.75,-55.25 466,-55.25 466,-74.5"/>
<text text-anchor="middle" x="428.38" y="-61" font-family="Helvetica,sans-Serif" font-size="10.00">colony_map.h</text>
</a>
</g>
</g>
<!-- Node3&#45;&gt;Node4 -->
<g id="edge3_Node000003_Node000004" class="edge">
<title>Node3&#45;&gt;Node4</title>
<g id="a_edge3_Node000003_Node000004"><a xlink:title=" ">
<path fill="none" stroke="#63b8ff" d="M327.54,-165.31C349.49,-158.52 376.39,-147.3 395.38,-129.75 408.28,-117.82 416.97,-99.7 422.18,-85.8"/>
<polygon fill="#63b8ff" stroke="#63b8ff" points="425.48,-86.96 425.39,-76.37 418.85,-84.71 425.48,-86.96"/>
</a>
</g>
</g>
<!-- Node5 -->
<g id="Node000005" class="node">
<title>Node5</title>
<g id="a_Node000005"><a xlink:href="_key_8h.html" target="_top" xlink:title=" ">
<polygon fill="white" stroke="#666666" points="246.12,-129.75 144.62,-129.75 144.62,-110.5 246.12,-110.5 246.12,-129.75"/>
<text text-anchor="middle" x="195.38" y="-116.25" font-family="Helvetica,sans-Serif" font-size="10.00">Cpl/Container/Key.h</text>
</a>
</g>
</g>
<!-- Node3&#45;&gt;Node5 -->
<g id="edge4_Node000003_Node000005" class="edge">
<title>Node3&#45;&gt;Node5</title>
<g id="a_edge4_Node000003_Node000005"><a xlink:title=" ">
<path fill="none" stroke="#63b8ff" d="M273.43,-165.34C259.11,-157.23 237.84,-145.18 221.12,-135.71"/>
<polygon fill="#63b8ff" stroke="#63b8ff" points="223.14,-132.83 212.72,-130.95 219.69,-138.92 223.14,-132.83"/>
</a>
</g>
</g>
<!-- Node11 -->
<g id="Node000011" class="node">
<title>Node11</title>
<g id="a_Node000011"><a xlink:title=" ">
<polygon fill="#e0e0e0" stroke="#999999" points="314.62,-129.75 264.12,-129.75 264.12,-110.5 314.62,-110.5 314.62,-129.75"/>
<text text-anchor="middle" x="289.38" y="-116.25" font-family="Helvetica,sans-Serif" font-size="10.00">stdarg.h</text>
</a>
</g>
</g>
<!-- Node3&#45;&gt;Node11 -->
<g id="edge11_Node000003_Node000011" class="edge">
<title>Node3&#45;&gt;Node11</title>
<g id="a_edge11_Node000003_Node000011"><a xlink:title=" ">
<path fill="none" stroke="#63b8ff" d="M289.38,-165.58C289.38,-159.07 289.38,-149.92 289.38,-141.62"/>
<polygon fill="#63b8ff" stroke="#63b8ff" points="292.88,-141.62 289.38,-131.62 285.88,-141.62 292.88,-141.62"/>
</a>
</g>
</g>
<!-- Node12 -->
<g id="Node000012" class="node">
<title>Node12</title>
<g id="a_Node000012"><a xlink:title=" ">
<polygon fill="#e0e0e0" stroke="#999999" points="386.12,-129.75 332.62,-129.75 332.62,-110.5 386.12,-110.5 386.12,-129.75"/>
<text text-anchor="middle" x="359.38" y="-116.25" font-family="Helvetica,sans-Serif" font-size="10.00">iostream</text>
</a>
</g>
</g>
<!-- Node3&#45;&gt;Node12 -->
<g id="edge12_Node000003_Node000012" class="edge">
<title>Node3&#45;&gt;Node12</title>
<g id="a_edge12_Node000003_Node000012"><a xlink:title=" ">
<path fill="none" stroke="#63b8ff" d="M301.25,-165.34C311.47,-157.57 326.45,-146.17 338.64,-136.9"/>
<polygon fill="#63b8ff" stroke="#63b8ff" points="340.63,-139.78 346.47,-130.94 336.39,-134.21 340.63,-139.78"/>
</a>
</g>
</g>
<!-- Node5&#45;&gt;Node4 -->
<g id="edge10_Node000005_Node000004" class="edge">
<title>Node5&#45;&gt;Node4</title>
<g id="a_edge10_Node000005_Node000004"><a xlink:title=" ">
<path fill="none" stroke="#63b8ff" d="M235.16,-110.03C275.02,-100.92 336.42,-86.89 379.28,-77.1"/>
<polygon fill="#63b8ff" stroke="#63b8ff" points="379.85,-80.55 388.82,-74.91 378.29,-73.73 379.85,-80.55"/>
</a>
</g>
</g>
<!-- Node6 -->
<g id="Node000006" class="node">
<title>Node6</title>
<g id="a_Node000006"><a xlink:href="_fatal_error_8h.html" target="_top" xlink:title=" ">
<polygon fill="white" stroke="#666666" points="307.75,-74.5 189,-74.5 189,-55.25 307.75,-55.25 307.75,-74.5"/>
<text text-anchor="middle" x="248.38" y="-61" font-family="Helvetica,sans-Serif" font-size="10.00">Cpl/System/FatalError.h</text>
</a>
</g>
</g>
<!-- Node5&#45;&gt;Node6 -->
<g id="edge5_Node000005_Node000006" class="edge">
<title>Node5&#45;&gt;Node6</title>
<g id="a_edge5_Node000005_Node000006"><a xlink:title=" ">
<path fill="none" stroke="#63b8ff" d="M204.13,-110.33C211.52,-102.9 222.34,-92.04 231.42,-82.91"/>
<polygon fill="#63b8ff" stroke="#63b8ff" points="233.79,-85.49 238.37,-75.93 228.83,-80.55 233.79,-85.49"/>
</a>
</g>
</g>
<!-- Node9 -->
<g id="Node000009" class="node">
<title>Node9</title>
<g id="a_Node000009"><a xlink:title=" ">
<polygon fill="#e0e0e0" stroke="#999999" points="171.12,-74.5 123.62,-74.5 123.62,-55.25 171.12,-55.25 171.12,-74.5"/>
<text text-anchor="middle" x="147.38" y="-61" font-family="Helvetica,sans-Serif" font-size="10.00">stdint.h</text>
</a>
</g>
</g>
<!-- Node5&#45;&gt;Node9 -->
<g id="edge8_Node000005_Node000009" class="edge">
<title>Node5&#45;&gt;Node9</title>
<g id="a_edge8_Node000005_Node000009"><a xlink:title=" ">
<path fill="none" stroke="#63b8ff" d="M187.45,-110.33C180.82,-102.98 171.16,-92.26 162.99,-83.19"/>
<polygon fill="#63b8ff" stroke="#63b8ff" points="165.78,-81.07 156.49,-75.98 160.58,-85.75 165.78,-81.07"/>
</a>
</g>
</g>
<!-- Node10 -->
<g id="Node000010" class="node">
<title>Node10</title>
<g id="a_Node000010"><a xlink:title=" ">
<polygon fill="#e0e0e0" stroke="#999999" points="373.12,-74.5 325.62,-74.5 325.62,-55.25 373.12,-55.25 373.12,-74.5"/>
<text text-anchor="middle" x="349.38" y="-61" font-family="Helvetica,sans-Serif" font-size="10.00">string.h</text>
</a>
</g>
</g>
<!-- Node5&#45;&gt;Node10 -->
<g id="edge9_Node000005_Node000010" class="edge">
<title>Node5&#45;&gt;Node10</title>
<g id="a_edge9_Node000005_Node000010"><a xlink:title=" ">
<path fill="none" stroke="#63b8ff" d="M221.5,-110.09C247.11,-101.24 286.3,-87.69 314.54,-77.92"/>
<polygon fill="#63b8ff" stroke="#63b8ff" points="315.42,-81.32 323.73,-74.74 313.13,-74.7 315.42,-81.32"/>
</a>
</g>
</g>
<!-- Node7 -->
<g id="Node000007" class="node">
<title>Node7</title>
<g id="a_Node000007"><a xlink:title=" ">
<polygon fill="#e0e0e0" stroke="#999999" points="273.62,-19.25 223.12,-19.25 223.12,0 273.62,0 273.62,-19.25"/>
<text text-anchor="middle" x="248.38" y="-5.75" font-family="Helvetica,sans-Serif" font-size="10.00">stddef.h</text>
</a>
</g>
</g>
<!-- Node6&#45;&gt;Node7 -->
<g id="edge6_Node000006_Node000007" class="edge">
<title>Node6&#45;&gt;Node7</title>
<g id="a_edge6_Node000006_Node000007"><a xlink:title=" ">
<path fill="none" stroke="#63b8ff" d="M248.38,-55.08C248.38,-48.57 248.38,-39.42 248.38,-31.12"/>
<polygon fill="#63b8ff" stroke="#63b8ff" points="251.88,-31.12 248.38,-21.12 244.88,-31.12 251.88,-31.12"/>
</a>
</g>
</g>
<!-- Node8 -->
<g id="Node000008" class="node">
<title>Node8</title>
<g id="a_Node000008"><a xlink:title=" ">
<polygon fill="#e0e0e0" stroke="#999999" points="535.38,-19.25 453.38,-19.25 453.38,0 535.38,0 535.38,-19.25"/>
<text text-anchor="middle" x="494.38" y="-5.75" font-family="Helvetica,sans-Serif" font-size="10.00">colony_config.h</text>
</a>
</g>
</g>
<!-- Node6&#45;&gt;Node8 -->
<g id="edge7_Node000006_Node000008" class="edge">
<title>Node6&#45;&gt;Node8</title>
<g id="a_edge7_Node000006_Node000008"><a xlink:title=" ">
<path fill="none" stroke="#63b8ff" d="M290.38,-54.78C332.26,-45.72 396.68,-31.77 441.89,-21.99"/>
<polygon fill="#63b8ff" stroke="#63b8ff" points="442.44,-25.45 451.47,-19.91 440.96,-18.61 442.44,-25.45"/>
</a>
</g>
</g>
<!-- Node14&#45;&gt;Node3 -->
<g id="edge15_Node000014_Node000003" class="edge">
<title>Node14&#45;&gt;Node3</title>
<g id="a_edge15_Node000014_Node000003"><a xlink:title=" ">
<path fill="none" stroke="#63b8ff" d="M132.52,-331.24C121.53,-309.8 97.66,-254.55 123.38,-221 136.92,-203.34 191.04,-191.11 233.85,-183.97"/>
<polygon fill="#63b8ff" stroke="#63b8ff" points="234.21,-187.46 243.53,-182.42 233.1,-180.55 234.21,-187.46"/>
</a>
</g>
</g>
<!-- Node15 -->
<g id="Node000015" class="node">
<title>Node15</title>
<g id="a_Node000015"><a xlink:href="_close_8h.html" target="_top" xlink:title=" ">
<polygon fill="white" stroke="#666666" points="208.75,-295.5 132,-295.5 132,-276.25 208.75,-276.25 208.75,-295.5"/>
<text text-anchor="middle" x="170.38" y="-282" font-family="Helvetica,sans-Serif" font-size="10.00">Cpl/Io/Close.h</text>
</a>
</g>
</g>
<!-- Node14&#45;&gt;Node15 -->
<g id="edge16_Node000014_Node000015" class="edge">
<title>Node14&#45;&gt;Node15</title>
<g id="a_edge16_Node000014_Node000015"><a xlink:title=" ">
<path fill="none" stroke="#63b8ff" d="M142.82,-331.33C147.15,-324.36 153.34,-314.37 158.76,-305.62"/>
<polygon fill="#63b8ff" stroke="#63b8ff" points="161.72,-307.49 164.01,-297.15 155.77,-303.8 161.72,-307.49"/>
</a>
</g>
</g>
<!-- Node16 -->
<g id="Node000016" class="node">
<title>Node16</title>
<g id="a_Node000016"><a xlink:href="_is_eos_8h.html" target="_top" xlink:title=" ">
<polygon fill="white" stroke="#666666" points="76.75,-295.5 0,-295.5 0,-276.25 76.75,-276.25 76.75,-295.5"/>
<text text-anchor="middle" x="38.38" y="-282" font-family="Helvetica,sans-Serif" font-size="10.00">Cpl/Io/IsEos.h</text>
</a>
</g>
</g>
<!-- Node14&#45;&gt;Node16 -->
<g id="edge18_Node000014_Node000016" class="edge">
<title>Node14&#45;&gt;Node16</title>
<g id="a_edge18_Node000014_Node000016"><a xlink:title=" ">
<path fill="none" stroke="#63b8ff" d="M120.58,-331.09C105.36,-322.91 82.68,-310.71 64.99,-301.19"/>
<polygon fill="#63b8ff" stroke="#63b8ff" points="67.05,-298.32 56.58,-296.67 63.73,-304.49 67.05,-298.32"/>
</a>
</g>
</g>
<!-- Node15&#45;&gt;Node13 -->
<g id="edge17_Node000015_Node000013" class="edge">
<title>Node15&#45;&gt;Node13</title>
<g id="a_edge17_Node000015_Node000013"><a xlink:title=" ">
<path fill="none" stroke="#63b8ff" d="M172.69,-276.08C174.44,-269.42 176.92,-259.99 179.14,-251.53"/>
<polygon fill="#63b8ff" stroke="#63b8ff" points="182.47,-252.63 181.63,-242.07 175.7,-250.85 182.47,-252.63"/>
</a>
</g>
</g>
<!-- Node17&#45;&gt;Node4 -->
<g id="edge20_Node000017_Node000004" class="edge">
<title>Node17&#45;&gt;Node4</title>
<g id="a_edge20_Node000017_Node000004"><a xlink:title=" ">
<path fill="none" stroke="#63b8ff" d="M544.63,-110.09C522.2,-101.56 488.31,-88.67 462.9,-79.01"/>
<polygon fill="#63b8ff" stroke="#63b8ff" points="464.25,-75.77 453.66,-75.49 461.76,-82.32 464.25,-75.77"/>
</a>
</g>
</g>
<!-- Node17&#45;&gt;Node8 -->
<g id="edge21_Node000017_Node000008" class="edge">
<title>Node17&#45;&gt;Node8</title>
<g id="a_edge21_Node000017_Node000008"><a xlink:title=" ">
<path fill="none" stroke="#63b8ff" d="M562.32,-110.25C550.23,-92.52 522.9,-52.44 506.82,-28.88"/>
<polygon fill="#63b8ff" stroke="#63b8ff" points="509.89,-27.17 501.37,-20.88 504.11,-31.11 509.89,-27.17"/>
</a>
</g>
</g>
<!-- Node18&#45;&gt;Node10 -->
<g id="edge27_Node000018_Node000010" class="edge">
<title>Node18&#45;&gt;Node10</title>
<g id="a_edge27_Node000018_Node000010"><a xlink:title=" ">
<path fill="none" stroke="#63b8ff" d="M414.38,-331.12C414.38,-312.53 414.38,-268.55 414.38,-231.62 414.38,-231.62 414.38,-231.62 414.38,-174.38 414.38,-144.76 410.73,-135.83 395.38,-110.5 388.87,-99.77 379.16,-89.83 370.34,-82.07"/>
<polygon fill="#63b8ff" stroke="#63b8ff" points="372.73,-79.5 362.81,-75.79 368.25,-84.88 372.73,-79.5"/>
</a>
</g>
</g>
<!-- Node19 -->
<g id="Node000019" class="node">
<title>Node19</title>
<g id="a_Node000019"><a xlink:href="_f_string___8h.html" target="_top" xlink:title=" ">
<polygon fill="white" stroke="#666666" points="542,-295.5 442.75,-295.5 442.75,-276.25 542,-276.25 542,-295.5"/>
<text text-anchor="middle" x="492.38" y="-282" font-family="Helvetica,sans-Serif" font-size="10.00">Cpl/Text/FString_.h</text>
</a>
</g>
</g>
<!-- Node18&#45;&gt;Node19 -->
<g id="edge23_Node000018_Node000019" class="edge">
<title>Node18&#45;&gt;Node19</title>
<g id="a_edge23_Node000018_Node000019"><a xlink:title=" ">
<path fill="none" stroke="#63b8ff" d="M427.61,-331.09C439.15,-323.21 456.14,-311.61 469.82,-302.27"/>
<polygon fill="#63b8ff" stroke="#63b8ff" points="471.54,-305.33 477.83,-296.81 467.6,-299.55 471.54,-305.33"/>
</a>
</g>
</g>
<!-- Node19&#45;&gt;Node8 -->
<g id="edge24_Node000019_Node000008" class="edge">
<title>Node19&#45;&gt;Node8</title>
<g id="a_edge24_Node000019_Node000008"><a xlink:title=" ">
<path fill="none" stroke="#63b8ff" d="M492.65,-275.87C493.2,-257.28 494.38,-213.3 494.38,-176.38 494.38,-176.38 494.38,-176.38 494.38,-119.12 494.38,-88.41 494.38,-52.8 494.38,-30.99"/>
<polygon fill="#63b8ff" stroke="#63b8ff" points="497.88,-31.14 494.38,-21.14 490.88,-31.14 497.88,-31.14"/>
</a>
</g>
</g>
<!-- Node20 -->
<g id="Node000020" class="node">
<title>Node20</title>
<g id="a_Node000020"><a xlink:href="_string___8h.html" target="_top" xlink:title=" ">
<polygon fill="white" stroke="#666666" points="386,-240.25 292.75,-240.25 292.75,-221 386,-221 386,-240.25"/>
<text text-anchor="middle" x="339.38" y="-226.75" font-family="Helvetica,sans-Serif" font-size="10.00">Cpl/Text/String_.h</text>
</a>
</g>
</g>
<!-- Node19&#45;&gt;Node20 -->
<g id="edge25_Node000019_Node000020" class="edge">
<title>Node19&#45;&gt;Node20</title>
<g id="a_edge25_Node000019_Node000020"><a xlink:title=" ">
<path fill="none" stroke="#63b8ff" d="M466.42,-275.84C441.58,-267.2 403.88,-254.07 375.99,-244.37"/>
<polygon fill="#63b8ff" stroke="#63b8ff" points="377.48,-241.18 366.89,-241.2 375.18,-247.79 377.48,-241.18"/>
</a>
</g>
</g>
<!-- Node20&#45;&gt;Node3 -->
<g id="edge26_Node000020_Node000003" class="edge">
<title>Node20&#45;&gt;Node3</title>
<g id="a_edge26_Node000020_Node000003"><a xlink:title=" ">
<path fill="none" stroke="#63b8ff" d="M331.12,-220.83C324.21,-213.48 314.15,-202.76 305.64,-193.69"/>
<polygon fill="#63b8ff" stroke="#63b8ff" points="308.24,-191.36 298.85,-186.46 303.14,-196.15 308.24,-191.36"/>
</a>
</g>
</g>
</g>
</svg>
