<?xml version="1.0" encoding="UTF-8" standalone="no"?>
<!DOCTYPE svg PUBLIC "-//W3C//DTD SVG 1.1//EN"
 "http://www.w3.org/Graphics/SVG/1.1/DTD/svg11.dtd">
<!-- Generated by graphviz version 9.0.0 (20230911.1827)
 -->
<!-- Title: Cpl/Io/Socket/ListenerClientRequest.h Pages: 1 -->
<svg width="488pt" height="315pt"
 viewBox="0.00 0.00 487.88 314.75" xmlns="http://www.w3.org/2000/svg" xmlns:xlink="http://www.w3.org/1999/xlink">
<g id="graph0" class="graph" transform="scale(1 1) rotate(0) translate(4 310.75)">
<title>Cpl/Io/Socket/ListenerClientRequest.h</title>
<!-- Node1 -->
<g id="Node000001" class="node">
<title>Node1</title>
<g id="a_Node000001"><a xlink:title=" ">
<polygon fill="#999999" stroke="#666666" points="398.25,-306.75 260,-306.75 260,-276.25 398.25,-276.25 398.25,-306.75"/>
<text text-anchor="start" x="268" y="-293.25" font-family="Helvetica,sans-Serif" font-size="10.00">Cpl/Io/Socket/ListenerClient</text>
<text text-anchor="middle" x="329.12" y="-282" font-family="Helvetica,sans-Serif" font-size="10.00">Request.h</text>
</a>
</g>
</g>
<!-- Node2 -->
<g id="Node000002" class="node">
<title>Node2</title>
<g id="a_Node000002"><a xlink:href="_listener_8h.html" target="_top" xlink:title=" ">
<polygon fill="white" stroke="#666666" points="233.62,-240.25 112.62,-240.25 112.62,-221 233.62,-221 233.62,-240.25"/>
<text text-anchor="middle" x="173.12" y="-226.75" font-family="Helvetica,sans-Serif" font-size="10.00">Cpl/Io/Socket/Listener.h</text>
</a>
</g>
</g>
<!-- Node1&#45;&gt;Node2 -->
<g id="edge1_Node000001_Node000002" class="edge">
<title>Node1&#45;&gt;Node2</title>
<g id="a_edge1_Node000001_Node000002"><a xlink:title=" ">
<path fill="none" stroke="#63b8ff" d="M290.16,-275.8C264.81,-266.23 232.03,-253.86 207.62,-244.64"/>
<polygon fill="#63b8ff" stroke="#63b8ff" points="209.06,-241.44 198.47,-241.19 206.59,-247.99 209.06,-241.44"/>
</a>
</g>
</g>
<!-- Node5 -->
<g id="Node000005" class="node">
<title>Node5</title>
<g id="a_Node000005"><a xlink:href="_request_message_8h.html" target="_top" xlink:title=" ">
<polygon fill="white" stroke="#666666" points="394.5,-240.25 263.75,-240.25 263.75,-221 394.5,-221 394.5,-240.25"/>
<text text-anchor="middle" x="329.12" y="-226.75" font-family="Helvetica,sans-Serif" font-size="10.00">Cpl/Itc/RequestMessage.h</text>
</a>
</g>
</g>
<!-- Node1&#45;&gt;Node5 -->
<g id="edge4_Node000001_Node000005" class="edge">
<title>Node1&#45;&gt;Node5</title>
<g id="a_edge4_Node000001_Node000005"><a xlink:title=" ">
<path fill="none" stroke="#63b8ff" d="M329.12,-275.95C329.12,-268.71 329.12,-259.84 329.12,-251.94"/>
<polygon fill="#63b8ff" stroke="#63b8ff" points="332.63,-252.21 329.13,-242.21 325.63,-252.21 332.63,-252.21"/>
</a>
</g>
</g>
<!-- Node10 -->
<g id="Node000010" class="node">
<title>Node10</title>
<g id="a_Node000010"><a xlink:href="_s_a_p_8h.html" target="_top" xlink:title=" ">
<polygon fill="white" stroke="#666666" points="471.75,-185 396.5,-185 396.5,-165.75 471.75,-165.75 471.75,-185"/>
<text text-anchor="middle" x="434.12" y="-171.5" font-family="Helvetica,sans-Serif" font-size="10.00">Cpl/Itc/SAP.h</text>
</a>
</g>
</g>
<!-- Node1&#45;&gt;Node10 -->
<g id="edge12_Node000001_Node000010" class="edge">
<title>Node1&#45;&gt;Node10</title>
<g id="a_edge12_Node000001_Node000010"><a xlink:title=" ">
<path fill="none" stroke="#63b8ff" d="M357.81,-275.81C372.77,-267.06 390.53,-254.81 403.12,-240.25 414.35,-227.27 422.53,-209.52 427.67,-196.02"/>
<polygon fill="#63b8ff" stroke="#63b8ff" points="430.85,-197.51 430.88,-186.91 424.25,-195.17 430.85,-197.51"/>
</a>
</g>
</g>
<!-- Node3 -->
<g id="Node000003" class="node">
<title>Node3</title>
<g id="a_Node000003"><a xlink:href="_descriptor_8h.html" target="_top" xlink:title=" ">
<polygon fill="white" stroke="#666666" points="96.25,-185 0,-185 0,-165.75 96.25,-165.75 96.25,-185"/>
<text text-anchor="middle" x="48.12" y="-171.5" font-family="Helvetica,sans-Serif" font-size="10.00">Cpl/Io/Descriptor.h</text>
</a>
</g>
</g>
<!-- Node2&#45;&gt;Node3 -->
<g id="edge2_Node000002_Node000003" class="edge">
<title>Node2&#45;&gt;Node3</title>
<g id="a_edge2_Node000002_Node000003"><a xlink:title=" ">
<path fill="none" stroke="#63b8ff" d="M151.92,-220.59C132.17,-212.18 102.45,-199.52 79.87,-189.9"/>
<polygon fill="#63b8ff" stroke="#63b8ff" points="81.4,-186.74 70.83,-186.05 78.65,-193.18 81.4,-186.74"/>
</a>
</g>
</g>
<!-- Node4 -->
<g id="Node000004" class="node">
<title>Node4</title>
<g id="a_Node000004"><a xlink:href="_runnable_8h.html" target="_top" xlink:title=" ">
<polygon fill="white" stroke="#666666" points="231.75,-185 114.5,-185 114.5,-165.75 231.75,-165.75 231.75,-185"/>
<text text-anchor="middle" x="173.12" y="-171.5" font-family="Helvetica,sans-Serif" font-size="10.00">Cpl/System/Runnable.h</text>
</a>
</g>
</g>
<!-- Node2&#45;&gt;Node4 -->
<g id="edge3_Node000002_Node000004" class="edge">
<title>Node2&#45;&gt;Node4</title>
<g id="a_edge3_Node000002_Node000004"><a xlink:title=" ">
<path fill="none" stroke="#63b8ff" d="M173.12,-220.83C173.12,-214.32 173.12,-205.17 173.12,-196.87"/>
<polygon fill="#63b8ff" stroke="#63b8ff" points="176.63,-196.87 173.13,-186.87 169.63,-196.87 176.63,-196.87"/>
</a>
</g>
</g>
<!-- Node6 -->
<g id="Node000006" class="node">
<title>Node6</title>
<g id="a_Node000006"><a xlink:href="_service_message_8h.html" target="_top" xlink:title=" ">
<polygon fill="white" stroke="#666666" points="378,-185 250.25,-185 250.25,-165.75 378,-165.75 378,-185"/>
<text text-anchor="middle" x="314.12" y="-171.5" font-family="Helvetica,sans-Serif" font-size="10.00">Cpl/Itc/ServiceMessage.h</text>
</a>
</g>
</g>
<!-- Node5&#45;&gt;Node6 -->
<g id="edge5_Node000005_Node000006" class="edge">
<title>Node5&#45;&gt;Node6</title>
<g id="a_edge5_Node000005_Node000006"><a xlink:title=" ">
<path fill="none" stroke="#63b8ff" d="M326.65,-220.83C324.77,-214.17 322.12,-204.74 319.73,-196.28"/>
<polygon fill="#63b8ff" stroke="#63b8ff" points="323.15,-195.49 317.07,-186.82 316.41,-197.39 323.15,-195.49"/>
</a>
</g>
</g>
<!-- Node5&#45;&gt;Node10 -->
<g id="edge9_Node000005_Node000010" class="edge">
<title>Node5&#45;&gt;Node10</title>
<g id="a_edge9_Node000005_Node000010"><a xlink:title=" ">
<path fill="none" stroke="#63b8ff" d="M346.94,-220.59C363.15,-212.37 387.36,-200.09 406.16,-190.56"/>
<polygon fill="#63b8ff" stroke="#63b8ff" points="407.54,-193.78 414.88,-186.14 404.37,-187.54 407.54,-193.78"/>
</a>
</g>
</g>
<!-- Node7 -->
<g id="Node000007" class="node">
<title>Node7</title>
<g id="a_Node000007"><a xlink:href="_message_8h.html" target="_top" xlink:title=" ">
<polygon fill="white" stroke="#666666" points="378.5,-74.5 283.75,-74.5 283.75,-55.25 378.5,-55.25 378.5,-74.5"/>
<text text-anchor="middle" x="331.12" y="-61" font-family="Helvetica,sans-Serif" font-size="10.00">Cpl/Itc/Message.h</text>
</a>
</g>
</g>
<!-- Node6&#45;&gt;Node7 -->
<g id="edge6_Node000006_Node000007" class="edge">
<title>Node6&#45;&gt;Node7</title>
<g id="a_edge6_Node000006_Node000007"><a xlink:title=" ">
<path fill="none" stroke="#63b8ff" d="M291,-165.37C266.14,-154.26 231.97,-133.93 246.12,-110.5 254.88,-96.01 270.07,-86 285.21,-79.19"/>
<polygon fill="#63b8ff" stroke="#63b8ff" points="286.25,-82.54 294.19,-75.53 283.61,-76.05 286.25,-82.54"/>
</a>
</g>
</g>
<!-- Node9 -->
<g id="Node000009" class="node">
<title>Node9</title>
<g id="a_Node000009"><a xlink:href="_return_handler_8h.html" target="_top" xlink:title=" ">
<polygon fill="white" stroke="#666666" points="372.75,-129.75 255.5,-129.75 255.5,-110.5 372.75,-110.5 372.75,-129.75"/>
<text text-anchor="middle" x="314.12" y="-116.25" font-family="Helvetica,sans-Serif" font-size="10.00">Cpl/Itc/ReturnHandler.h</text>
</a>
</g>
</g>
<!-- Node6&#45;&gt;Node9 -->
<g id="edge8_Node000006_Node000009" class="edge">
<title>Node6&#45;&gt;Node9</title>
<g id="a_edge8_Node000006_Node000009"><a xlink:title=" ">
<path fill="none" stroke="#63b8ff" d="M314.12,-165.58C314.12,-159.07 314.12,-149.92 314.12,-141.62"/>
<polygon fill="#63b8ff" stroke="#63b8ff" points="317.63,-141.62 314.13,-131.62 310.63,-141.62 317.63,-141.62"/>
</a>
</g>
</g>
<!-- Node8 -->
<g id="Node000008" class="node">
<title>Node8</title>
<g id="a_Node000008"><a xlink:href="_item_8h.html" target="_top" xlink:title=" ">
<polygon fill="white" stroke="#666666" points="383.38,-19.25 278.88,-19.25 278.88,0 383.38,0 383.38,-19.25"/>
<text text-anchor="middle" x="331.12" y="-5.75" font-family="Helvetica,sans-Serif" font-size="10.00">Cpl/Container/Item.h</text>
</a>
</g>
</g>
<!-- Node7&#45;&gt;Node8 -->
<g id="edge7_Node000007_Node000008" class="edge">
<title>Node7&#45;&gt;Node8</title>
<g id="a_edge7_Node000007_Node000008"><a xlink:title=" ">
<path fill="none" stroke="#63b8ff" d="M331.12,-55.08C331.12,-48.57 331.12,-39.42 331.12,-31.12"/>
<polygon fill="#63b8ff" stroke="#63b8ff" points="334.63,-31.12 331.13,-21.12 327.63,-31.12 334.63,-31.12"/>
</a>
</g>
</g>
<!-- Node11 -->
<g id="Node000011" class="node">
<title>Node11</title>
<g id="a_Node000011"><a xlink:href="_post_api_8h.html" target="_top" xlink:title=" ">
<polygon fill="white" stroke="#666666" points="479.88,-129.75 390.38,-129.75 390.38,-110.5 479.88,-110.5 479.88,-129.75"/>
<text text-anchor="middle" x="435.12" y="-116.25" font-family="Helvetica,sans-Serif" font-size="10.00">Cpl/Itc/PostApi.h</text>
</a>
</g>
</g>
<!-- Node10&#45;&gt;Node11 -->
<g id="edge10_Node000010_Node000011" class="edge">
<title>Node10&#45;&gt;Node11</title>
<g id="a_edge10_Node000010_Node000011"><a xlink:title=" ">
<path fill="none" stroke="#63b8ff" d="M434.29,-165.58C434.41,-159.07 434.58,-149.92 434.74,-141.62"/>
<polygon fill="#63b8ff" stroke="#63b8ff" points="438.24,-141.69 434.93,-131.62 431.24,-141.55 438.24,-141.69"/>
</a>
</g>
</g>
<!-- Node11&#45;&gt;Node7 -->
<g id="edge11_Node000011_Node000007" class="edge">
<title>Node11&#45;&gt;Node7</title>
<g id="a_edge11_Node000011_Node000007"><a xlink:title=" ">
<path fill="none" stroke="#63b8ff" d="M417.48,-110.09C401.5,-101.91 377.67,-89.71 359.09,-80.19"/>
<polygon fill="#63b8ff" stroke="#63b8ff" points="360.7,-77.08 350.2,-75.64 357.51,-83.32 360.7,-77.08"/>
</a>
</g>
</g>
</g>
</svg>
