<?xml version="1.0" encoding="UTF-8" standalone="no"?>
<!DOCTYPE svg PUBLIC "-//W3C//DTD SVG 1.1//EN"
 "http://www.w3.org/Graphics/SVG/1.1/DTD/svg11.dtd">
<!-- Generated by graphviz version 9.0.0 (20230911.1827)
 -->
<!-- Title: Cpl/Io/Socket/Listener.h Pages: 1 -->
<svg width="448pt" height="160pt"
 viewBox="0.00 0.00 448.25 160.25" xmlns="http://www.w3.org/2000/svg" xmlns:xlink="http://www.w3.org/1999/xlink">
<g id="graph0" class="graph" transform="scale(1 1) rotate(0) translate(4 156.25)">
<title>Cpl/Io/Socket/Listener.h</title>
<!-- Node1 -->
<g id="Node000001" class="node">
<title>Node1</title>
<g id="a_Node000001"><a xlink:title=" ">
<polygon fill="#999999" stroke="#666666" points="271.62,-152.25 150.62,-152.25 150.62,-133 271.62,-133 271.62,-152.25"/>
<text text-anchor="middle" x="211.12" y="-138.75" font-family="Helvetica,sans-Serif" font-size="10.00">Cpl/Io/Socket/Listener.h</text>
</a>
</g>
</g>
<!-- Node2 -->
<g id="Node000002" class="node">
<title>Node2</title>
<g id="a_Node000002"><a xlink:href="_listener_client_request_8h.html" target="_top" xlink:title=" ">
<polygon fill="white" stroke="#666666" points="138.25,-97 0,-97 0,-66.5 138.25,-66.5 138.25,-97"/>
<text text-anchor="start" x="8" y="-83.5" font-family="Helvetica,sans-Serif" font-size="10.00">Cpl/Io/Socket/ListenerClient</text>
<text text-anchor="middle" x="69.12" y="-72.25" font-family="Helvetica,sans-Serif" font-size="10.00">Request.h</text>
</a>
</g>
</g>
<!-- Node1&#45;&gt;Node2 -->
<g id="edge1_Node000001_Node000002" class="edge">
<title>Node1&#45;&gt;Node2</title>
<g id="a_edge1_Node000001_Node000002"><a xlink:title=" ">
<path fill="none" stroke="#63b8ff" d="M178.72,-128.19C156.6,-119.02 127.3,-106.87 104.57,-97.44"/>
<polygon fill="#63b8ff" stroke="#63b8ff" points="177.27,-131.38 187.85,-131.98 179.95,-124.91 177.27,-131.38"/>
</a>
</g>
</g>
<!-- Node3 -->
<g id="Node000003" class="node">
<title>Node3</title>
<g id="a_Node000003"><a xlink:href="_listener_client_sync_8h.html" target="_top" xlink:title=" ">
<polygon fill="white" stroke="#666666" points="163.25,-30.5 25,-30.5 25,0 163.25,0 163.25,-30.5"/>
<text text-anchor="start" x="33" y="-17" font-family="Helvetica,sans-Serif" font-size="10.00">Cpl/Io/Socket/ListenerClient</text>
<text text-anchor="middle" x="94.12" y="-5.75" font-family="Helvetica,sans-Serif" font-size="10.00">Sync.h</text>
</a>
</g>
</g>
<!-- Node1&#45;&gt;Node3 -->
<g id="edge3_Node000001_Node000003" class="edge">
<title>Node1&#45;&gt;Node3</title>
<g id="a_edge3_Node000001_Node000003"><a xlink:title=" ">
<path fill="none" stroke="#63b8ff" d="M196.99,-123.97C184.34,-108.45 165.09,-85.44 147.12,-66.5 135.26,-53.99 121.04,-40.59 110.32,-30.77"/>
<polygon fill="#63b8ff" stroke="#63b8ff" points="193.97,-125.82 202.98,-131.39 199.42,-121.41 193.97,-125.82"/>
</a>
</g>
</g>
<!-- Node4 -->
<g id="Node000004" class="node">
<title>Node4</title>
<g id="a_Node000004"><a xlink:href="_listener___8h.html" target="_top" xlink:title=" ">
<polygon fill="white" stroke="#666666" points="320.25,-91.38 194,-91.38 194,-72.12 320.25,-72.12 320.25,-91.38"/>
<text text-anchor="middle" x="257.12" y="-77.88" font-family="Helvetica,sans-Serif" font-size="10.00">Cpl/Io/Socket/Listener_.h</text>
</a>
</g>
</g>
<!-- Node1&#45;&gt;Node4 -->
<g id="edge4_Node000001_Node000004" class="edge">
<title>Node1&#45;&gt;Node4</title>
<g id="a_edge4_Node000001_Node000004"><a xlink:title=" ">
<path fill="none" stroke="#63b8ff" d="M225.02,-123.84C233.29,-113.25 243.43,-100.28 250.07,-91.78"/>
<polygon fill="#63b8ff" stroke="#63b8ff" points="222.44,-121.46 219.04,-131.49 227.96,-125.77 222.44,-121.46"/>
</a>
</g>
</g>
<!-- Node7 -->
<g id="Node000007" class="node">
<title>Node7</title>
<g id="a_Node000007"><a xlink:href="_socket_8h.html" target="_top" xlink:title=" ">
<polygon fill="white" stroke="#666666" points="440.25,-91.38 338,-91.38 338,-72.12 440.25,-72.12 440.25,-91.38"/>
<text text-anchor="middle" x="389.12" y="-77.88" font-family="Helvetica,sans-Serif" font-size="10.00">Cpl/TShell/Socket.h</text>
</a>
</g>
</g>
<!-- Node1&#45;&gt;Node7 -->
<g id="edge7_Node000001_Node000007" class="edge">
<title>Node1&#45;&gt;Node7</title>
<g id="a_edge7_Node000001_Node000007"><a xlink:title=" ">
<path fill="none" stroke="#63b8ff" d="M249.4,-128.97C283.18,-117.79 331.61,-101.77 361.67,-91.83"/>
<polygon fill="#63b8ff" stroke="#63b8ff" points="248.38,-125.62 239.98,-132.08 250.58,-132.26 248.38,-125.62"/>
</a>
</g>
</g>
<!-- Node2&#45;&gt;Node3 -->
<g id="edge2_Node000002_Node000003" class="edge">
<title>Node2&#45;&gt;Node3</title>
<g id="a_edge2_Node000002_Node000003"><a xlink:title=" ">
<path fill="none" stroke="#63b8ff" d="M78.85,-55.66C82.11,-47.25 85.63,-38.16 88.47,-30.83"/>
<polygon fill="#63b8ff" stroke="#63b8ff" points="75.7,-54.11 75.34,-64.7 82.22,-56.64 75.7,-54.11"/>
</a>
</g>
</g>
<!-- Node5 -->
<g id="Node000005" class="node">
<title>Node5</title>
<g id="a_Node000005"><a xlink:href="_posix_2_listener_8h.html" target="_top" xlink:title=" ">
<polygon fill="white" stroke="#666666" points="295.25,-30.5 193,-30.5 193,0 295.25,0 295.25,-30.5"/>
<text text-anchor="start" x="201" y="-17" font-family="Helvetica,sans-Serif" font-size="10.00">Cpl/Io/Socket/Posix</text>
<text text-anchor="middle" x="244.12" y="-5.75" font-family="Helvetica,sans-Serif" font-size="10.00">/Listener.h</text>
</a>
</g>
</g>
<!-- Node4&#45;&gt;Node5 -->
<g id="edge5_Node000004_Node000005" class="edge">
<title>Node4&#45;&gt;Node5</title>
<g id="a_edge5_Node000004_Node000005"><a xlink:title=" ">
<path fill="none" stroke="#63b8ff" d="M253.08,-60.69C251.12,-50.94 248.8,-39.45 247.02,-30.59"/>
<polygon fill="#63b8ff" stroke="#63b8ff" points="249.61,-61.19 255.02,-70.3 256.47,-59.8 249.61,-61.19"/>
</a>
</g>
</g>
<!-- Node6 -->
<g id="Node000006" class="node">
<title>Node6</title>
<g id="a_Node000006"><a xlink:href="_win32_2_listener_8h.html" target="_top" xlink:title=" ">
<polygon fill="white" stroke="#666666" points="418.75,-30.5 313.5,-30.5 313.5,0 418.75,0 418.75,-30.5"/>
<text text-anchor="start" x="321.5" y="-17" font-family="Helvetica,sans-Serif" font-size="10.00">Cpl/Io/Socket/Win32</text>
<text text-anchor="middle" x="366.12" y="-5.75" font-family="Helvetica,sans-Serif" font-size="10.00">/Listener.h</text>
</a>
</g>
</g>
<!-- Node4&#45;&gt;Node6 -->
<g id="edge6_Node000004_Node000006" class="edge">
<title>Node4&#45;&gt;Node6</title>
<g id="a_edge6_Node000004_Node000006"><a xlink:title=" ">
<path fill="none" stroke="#63b8ff" d="M281.98,-66.04C299.8,-55.5 323.69,-41.36 341.47,-30.84"/>
<polygon fill="#63b8ff" stroke="#63b8ff" points="280.41,-62.91 273.58,-71.01 283.97,-68.93 280.41,-62.91"/>
</a>
</g>
</g>
</g>
</svg>
