<?xml version="1.0" encoding="UTF-8" standalone="no"?>
<!DOCTYPE svg PUBLIC "-//W3C//DTD SVG 1.1//EN"
 "http://www.w3.org/Graphics/SVG/1.1/DTD/svg11.dtd">
<!-- Generated by graphviz version 9.0.0 (20230911.1827)
 -->
<!-- Title: Cpl/Io/File/Littlefs/_api/DirList_.h Pages: 1 -->
<svg width="707pt" height="492pt"
 viewBox="0.00 0.00 707.11 491.75" xmlns="http://www.w3.org/2000/svg" xmlns:xlink="http://www.w3.org/1999/xlink">
<g id="graph0" class="graph" transform="scale(1 1) rotate(0) translate(4 487.75)">
<title>Cpl/Io/File/Littlefs/_api/DirList_.h</title>
<!-- Node1 -->
<g id="Node000001" class="node">
<title>Node1</title>
<g id="a_Node000001"><a xlink:title=" ">
<polygon fill="#999999" stroke="#666666" points="311.49,-483.75 218.24,-483.75 218.24,-453.25 311.49,-453.25 311.49,-483.75"/>
<text text-anchor="start" x="226.24" y="-470.25" font-family="Helvetica,sans-Serif" font-size="10.00">Cpl/Io/File/Littlefs</text>
<text text-anchor="middle" x="264.86" y="-459" font-family="Helvetica,sans-Serif" font-size="10.00">/_api/DirList_.h</text>
</a>
</g>
</g>
<!-- Node2 -->
<g id="Node000002" class="node">
<title>Node2</title>
<g id="a_Node000002"><a xlink:title=" ">
<polygon fill="#e0e0e0" stroke="#999999" points="213.86,-19.25 131.86,-19.25 131.86,0 213.86,0 213.86,-19.25"/>
<text text-anchor="middle" x="172.86" y="-5.75" font-family="Helvetica,sans-Serif" font-size="10.00">colony_config.h</text>
</a>
</g>
</g>
<!-- Node1&#45;&gt;Node2 -->
<g id="edge1_Node000001_Node000002" class="edge">
<title>Node1&#45;&gt;Node2</title>
<g id="a_edge1_Node000001_Node000002"><a xlink:title=" ">
<path fill="none" stroke="#63b8ff" d="M217.97,-467.46C142.11,-464.65 0.86,-446.87 0.86,-353.38 0.86,-353.38 0.86,-353.38 0.86,-124.75 0.86,-92.73 -2.59,-78.08 19.86,-55.25 46.07,-28.6 87.21,-17.65 120.24,-13.25"/>
<polygon fill="#63b8ff" stroke="#63b8ff" points="120.5,-16.74 130.04,-12.13 119.71,-9.79 120.5,-16.74"/>
</a>
</g>
</g>
<!-- Node3 -->
<g id="Node000003" class="node">
<title>Node3</title>
<g id="a_Node000003"><a xlink:href="_cpl_2_io_2_file_2_api_8h.html" target="_top" xlink:title=" ">
<polygon fill="white" stroke="#666666" points="386.36,-417.25 301.36,-417.25 301.36,-398 386.36,-398 386.36,-417.25"/>
<text text-anchor="middle" x="343.86" y="-403.75" font-family="Helvetica,sans-Serif" font-size="10.00">Cpl/Io/File/Api.h</text>
</a>
</g>
</g>
<!-- Node1&#45;&gt;Node3 -->
<g id="edge2_Node000001_Node000003" class="edge">
<title>Node1&#45;&gt;Node3</title>
<g id="a_edge2_Node000001_Node000003"><a xlink:title=" ">
<path fill="none" stroke="#63b8ff" d="M284.39,-452.95C295.96,-444.33 310.62,-433.4 322.5,-424.55"/>
<polygon fill="#63b8ff" stroke="#63b8ff" points="324.54,-427.39 330.47,-418.61 320.36,-421.77 324.54,-427.39"/>
</a>
</g>
</g>
<!-- Node18 -->
<g id="Node000018" class="node">
<title>Node18</title>
<g id="a_Node000018"><a xlink:href="_cpl_2_io_2_file_2_littlefs_2_api_8h.html" target="_top" xlink:title=" ">
<polygon fill="white" stroke="#666666" points="158.49,-141 65.24,-141 65.24,-110.5 158.49,-110.5 158.49,-141"/>
<text text-anchor="start" x="73.24" y="-127.5" font-family="Helvetica,sans-Serif" font-size="10.00">Cpl/Io/File/Littlefs</text>
<text text-anchor="middle" x="111.86" y="-116.25" font-family="Helvetica,sans-Serif" font-size="10.00">/Api.h</text>
</a>
</g>
</g>
<!-- Node1&#45;&gt;Node18 -->
<g id="edge22_Node000001_Node000018" class="edge">
<title>Node1&#45;&gt;Node18</title>
<g id="a_edge22_Node000001_Node000018"><a xlink:title=" ">
<path fill="none" stroke="#63b8ff" d="M223.99,-452.91C184.26,-435.79 129.86,-403.25 129.86,-353.38 129.86,-353.38 129.86,-353.38 129.86,-240.88 129.86,-210.27 123.47,-175.61 118.3,-152.59"/>
<polygon fill="#63b8ff" stroke="#63b8ff" points="121.72,-151.82 116.03,-142.88 114.9,-153.42 121.72,-151.82"/>
</a>
</g>
</g>
<!-- Node20 -->
<g id="Node000020" class="node">
<title>Node20</title>
<g id="a_Node000020"><a xlink:href="_stack_8h.html" target="_top" xlink:title=" ">
<polygon fill="white" stroke="#666666" points="699.11,-306.75 588.61,-306.75 588.61,-287.5 699.11,-287.5 699.11,-306.75"/>
<text text-anchor="middle" x="643.86" y="-293.25" font-family="Helvetica,sans-Serif" font-size="10.00">Cpl/Container/Stack.h</text>
</a>
</g>
</g>
<!-- Node1&#45;&gt;Node20 -->
<g id="edge26_Node000001_Node000020" class="edge">
<title>Node1&#45;&gt;Node20</title>
<g id="a_edge26_Node000001_Node000020"><a xlink:title=" ">
<path fill="none" stroke="#63b8ff" d="M311.85,-457.98C374.94,-443.79 489.03,-413.15 574.86,-362 595.8,-349.52 615.78,-329.87 628.8,-315.66"/>
<polygon fill="#63b8ff" stroke="#63b8ff" points="631.26,-318.17 635.29,-308.37 626.03,-313.52 631.26,-318.17"/>
</a>
</g>
</g>
<!-- Node4 -->
<g id="Node000004" class="node">
<title>Node4</title>
<g id="a_Node000004"><a xlink:title=" ">
<polygon fill="#e0e0e0" stroke="#999999" points="519.49,-74.5 444.24,-74.5 444.24,-55.25 519.49,-55.25 519.49,-74.5"/>
<text text-anchor="middle" x="481.86" y="-61" font-family="Helvetica,sans-Serif" font-size="10.00">colony_map.h</text>
</a>
</g>
</g>
<!-- Node3&#45;&gt;Node4 -->
<g id="edge3_Node000003_Node000004" class="edge">
<title>Node3&#45;&gt;Node4</title>
<g id="a_edge3_Node000003_Node000004"><a xlink:title=" ">
<path fill="none" stroke="#63b8ff" d="M386.73,-403.99C449.98,-397.53 560.86,-375.21 560.86,-298.12 560.86,-298.12 560.86,-298.12 560.86,-185.62 560.86,-151.18 561.01,-139.13 541.86,-110.5 533.77,-98.4 521.25,-88.34 509.74,-80.85"/>
<polygon fill="#63b8ff" stroke="#63b8ff" points="511.68,-77.93 501.31,-75.73 508.04,-83.91 511.68,-77.93"/>
</a>
</g>
</g>
<!-- Node5 -->
<g id="Node000005" class="node">
<title>Node5</title>
<g id="a_Node000005"><a xlink:href="_f_string_8h.html" target="_top" xlink:title=" ">
<polygon fill="white" stroke="#666666" points="272.86,-362 178.86,-362 178.86,-342.75 272.86,-342.75 272.86,-362"/>
<text text-anchor="middle" x="225.86" y="-348.5" font-family="Helvetica,sans-Serif" font-size="10.00">Cpl/Text/FString.h</text>
</a>
</g>
</g>
<!-- Node3&#45;&gt;Node5 -->
<g id="edge4_Node000003_Node000005" class="edge">
<title>Node3&#45;&gt;Node5</title>
<g id="a_edge4_Node000003_Node000005"><a xlink:title=" ">
<path fill="none" stroke="#63b8ff" d="M323.85,-397.59C305.37,-389.25 277.66,-376.75 256.41,-367.16"/>
<polygon fill="#63b8ff" stroke="#63b8ff" points="257.91,-364 247.36,-363.08 255.03,-370.38 257.91,-364"/>
</a>
</g>
</g>
<!-- Node16 -->
<g id="Node000016" class="node">
<title>Node16</title>
<g id="a_Node000016"><a xlink:href="_traverser_8h.html" target="_top" xlink:title=" ">
<polygon fill="white" stroke="#666666" points="396.86,-362 290.86,-362 290.86,-342.75 396.86,-342.75 396.86,-362"/>
<text text-anchor="middle" x="343.86" y="-348.5" font-family="Helvetica,sans-Serif" font-size="10.00">Cpl/Type/Traverser.h</text>
</a>
</g>
</g>
<!-- Node3&#45;&gt;Node16 -->
<g id="edge20_Node000003_Node000016" class="edge">
<title>Node3&#45;&gt;Node16</title>
<g id="a_edge20_Node000003_Node000016"><a xlink:title=" ">
<path fill="none" stroke="#63b8ff" d="M343.86,-397.83C343.86,-391.32 343.86,-382.17 343.86,-373.87"/>
<polygon fill="#63b8ff" stroke="#63b8ff" points="347.36,-373.87 343.86,-363.87 340.36,-373.87 347.36,-373.87"/>
</a>
</g>
</g>
<!-- Node17 -->
<g id="Node000017" class="node">
<title>Node17</title>
<g id="a_Node000017"><a xlink:title=" ">
<polygon fill="#e0e0e0" stroke="#999999" points="456.99,-362 414.74,-362 414.74,-342.75 456.99,-342.75 456.99,-362"/>
<text text-anchor="middle" x="435.86" y="-348.5" font-family="Helvetica,sans-Serif" font-size="10.00">time.h</text>
</a>
</g>
</g>
<!-- Node3&#45;&gt;Node17 -->
<g id="edge21_Node000003_Node000017" class="edge">
<title>Node3&#45;&gt;Node17</title>
<g id="a_edge21_Node000003_Node000017"><a xlink:title=" ">
<path fill="none" stroke="#63b8ff" d="M359.47,-397.59C373.48,-389.48 394.3,-377.43 410.66,-367.96"/>
<polygon fill="#63b8ff" stroke="#63b8ff" points="411.97,-371.25 418.87,-363.21 408.46,-365.19 411.97,-371.25"/>
</a>
</g>
</g>
<!-- Node6 -->
<g id="Node000006" class="node">
<title>Node6</title>
<g id="a_Node000006"><a xlink:href="_f_string___8h.html" target="_top" xlink:title=" ">
<polygon fill="white" stroke="#666666" points="314.49,-306.75 215.24,-306.75 215.24,-287.5 314.49,-287.5 314.49,-306.75"/>
<text text-anchor="middle" x="264.86" y="-293.25" font-family="Helvetica,sans-Serif" font-size="10.00">Cpl/Text/FString_.h</text>
</a>
</g>
</g>
<!-- Node5&#45;&gt;Node6 -->
<g id="edge5_Node000005_Node000006" class="edge">
<title>Node5&#45;&gt;Node6</title>
<g id="a_edge5_Node000005_Node000006"><a xlink:title=" ">
<path fill="none" stroke="#63b8ff" d="M232.3,-342.58C237.52,-335.46 245.05,-325.18 251.55,-316.3"/>
<polygon fill="#63b8ff" stroke="#63b8ff" points="254.3,-318.47 257.39,-308.33 248.66,-314.33 254.3,-318.47"/>
</a>
</g>
</g>
<!-- Node13 -->
<g id="Node000013" class="node">
<title>Node13</title>
<g id="a_Node000013"><a xlink:title=" ">
<polygon fill="#e0e0e0" stroke="#999999" points="196.61,-74.5 149.11,-74.5 149.11,-55.25 196.61,-55.25 196.61,-74.5"/>
<text text-anchor="middle" x="172.86" y="-61" font-family="Helvetica,sans-Serif" font-size="10.00">string.h</text>
</a>
</g>
</g>
<!-- Node5&#45;&gt;Node13 -->
<g id="edge19_Node000005_Node000013" class="edge">
<title>Node5&#45;&gt;Node13</title>
<g id="a_edge19_Node000005_Node000013"><a xlink:title=" ">
<path fill="none" stroke="#63b8ff" d="M220.27,-342.48C209.49,-324.43 186.86,-281.91 186.86,-242.88 186.86,-242.88 186.86,-242.88 186.86,-185.62 186.86,-150.48 180.84,-109.92 176.7,-86.17"/>
<polygon fill="#63b8ff" stroke="#63b8ff" points="180.14,-85.55 174.91,-76.34 173.25,-86.8 180.14,-85.55"/>
</a>
</g>
</g>
<!-- Node6&#45;&gt;Node2 -->
<g id="edge6_Node000006_Node000002" class="edge">
<title>Node6&#45;&gt;Node2</title>
<g id="a_edge6_Node000006_Node000002"><a xlink:title=" ">
<path fill="none" stroke="#63b8ff" d="M259.13,-287.25C248.07,-269.24 224.86,-226.77 224.86,-187.62 224.86,-187.62 224.86,-187.62 224.86,-124.75 224.86,-92.73 219.84,-84.06 205.86,-55.25 201.25,-45.74 194.53,-36.19 188.36,-28.38"/>
<polygon fill="#63b8ff" stroke="#63b8ff" points="191.08,-26.17 182,-20.71 185.69,-30.64 191.08,-26.17"/>
</a>
</g>
</g>
<!-- Node7 -->
<g id="Node000007" class="node">
<title>Node7</title>
<g id="a_Node000007"><a xlink:href="_string___8h.html" target="_top" xlink:title=" ">
<polygon fill="white" stroke="#666666" points="362.49,-251.5 269.24,-251.5 269.24,-232.25 362.49,-232.25 362.49,-251.5"/>
<text text-anchor="middle" x="315.86" y="-238" font-family="Helvetica,sans-Serif" font-size="10.00">Cpl/Text/String_.h</text>
</a>
</g>
</g>
<!-- Node6&#45;&gt;Node7 -->
<g id="edge7_Node000006_Node000007" class="edge">
<title>Node6&#45;&gt;Node7</title>
<g id="a_edge7_Node000006_Node000007"><a xlink:title=" ">
<path fill="none" stroke="#63b8ff" d="M273.28,-287.33C280.4,-279.9 290.81,-269.04 299.55,-259.91"/>
<polygon fill="#63b8ff" stroke="#63b8ff" points="301.82,-262.6 306.21,-252.95 296.77,-257.75 301.82,-262.6"/>
</a>
</g>
</g>
<!-- Node8 -->
<g id="Node000008" class="node">
<title>Node8</title>
<g id="a_Node000008"><a xlink:href="_text_2_string_8h.html" target="_top" xlink:title=" ">
<polygon fill="white" stroke="#666666" points="374.86,-196.25 286.86,-196.25 286.86,-177 374.86,-177 374.86,-196.25"/>
<text text-anchor="middle" x="330.86" y="-182.75" font-family="Helvetica,sans-Serif" font-size="10.00">Cpl/Text/String.h</text>
</a>
</g>
</g>
<!-- Node7&#45;&gt;Node8 -->
<g id="edge8_Node000007_Node000008" class="edge">
<title>Node7&#45;&gt;Node8</title>
<g id="a_edge8_Node000007_Node000008"><a xlink:title=" ">
<path fill="none" stroke="#63b8ff" d="M318.34,-232.08C320.22,-225.42 322.87,-215.99 325.26,-207.53"/>
<polygon fill="#63b8ff" stroke="#63b8ff" points="328.58,-208.64 327.92,-198.07 321.84,-206.74 328.58,-208.64"/>
</a>
</g>
</g>
<!-- Node8&#45;&gt;Node4 -->
<g id="edge9_Node000008_Node000004" class="edge">
<title>Node8&#45;&gt;Node4</title>
<g id="a_edge9_Node000008_Node000004"><a xlink:title=" ">
<path fill="none" stroke="#63b8ff" d="M330.54,-176.96C330.45,-161.56 332.51,-129.27 349.86,-110.5 371.15,-87.47 404.73,-76.32 432.69,-70.93"/>
<polygon fill="#63b8ff" stroke="#63b8ff" points="433.13,-74.41 442.39,-69.27 431.94,-67.51 433.13,-74.41"/>
</a>
</g>
</g>
<!-- Node9 -->
<g id="Node000009" class="node">
<title>Node9</title>
<g id="a_Node000009"><a xlink:href="_key_8h.html" target="_top" xlink:title=" ">
<polygon fill="white" stroke="#666666" points="532.61,-135.38 431.11,-135.38 431.11,-116.12 532.61,-116.12 532.61,-135.38"/>
<text text-anchor="middle" x="481.86" y="-121.88" font-family="Helvetica,sans-Serif" font-size="10.00">Cpl/Container/Key.h</text>
</a>
</g>
</g>
<!-- Node8&#45;&gt;Node9 -->
<g id="edge10_Node000008_Node000009" class="edge">
<title>Node8&#45;&gt;Node9</title>
<g id="a_edge10_Node000008_Node000009"><a xlink:title=" ">
<path fill="none" stroke="#63b8ff" d="M354.13,-176.55C379.18,-166.79 419.27,-151.15 447.86,-140.01"/>
<polygon fill="#63b8ff" stroke="#63b8ff" points="449.12,-143.27 457.16,-136.38 446.57,-136.75 449.12,-143.27"/>
</a>
</g>
</g>
<!-- Node14 -->
<g id="Node000014" class="node">
<title>Node14</title>
<g id="a_Node000014"><a xlink:title=" ">
<polygon fill="#e0e0e0" stroke="#999999" points="303.11,-135.38 252.61,-135.38 252.61,-116.12 303.11,-116.12 303.11,-135.38"/>
<text text-anchor="middle" x="277.86" y="-121.88" font-family="Helvetica,sans-Serif" font-size="10.00">stdarg.h</text>
</a>
</g>
</g>
<!-- Node8&#45;&gt;Node14 -->
<g id="edge17_Node000008_Node000014" class="edge">
<title>Node8&#45;&gt;Node14</title>
<g id="a_edge17_Node000008_Node000014"><a xlink:title=" ">
<path fill="none" stroke="#63b8ff" d="M322.81,-176.68C315.11,-168.12 303.27,-154.98 293.68,-144.32"/>
<polygon fill="#63b8ff" stroke="#63b8ff" points="296.29,-141.99 287,-136.9 291.09,-146.67 296.29,-141.99"/>
</a>
</g>
</g>
<!-- Node15 -->
<g id="Node000015" class="node">
<title>Node15</title>
<g id="a_Node000015"><a xlink:title=" ">
<polygon fill="#e0e0e0" stroke="#999999" points="412.61,-135.38 359.11,-135.38 359.11,-116.12 412.61,-116.12 412.61,-135.38"/>
<text text-anchor="middle" x="385.86" y="-121.88" font-family="Helvetica,sans-Serif" font-size="10.00">iostream</text>
</a>
</g>
</g>
<!-- Node8&#45;&gt;Node15 -->
<g id="edge18_Node000008_Node000015" class="edge">
<title>Node8&#45;&gt;Node15</title>
<g id="a_edge18_Node000008_Node000015"><a xlink:title=" ">
<path fill="none" stroke="#63b8ff" d="M339.22,-176.68C347.29,-168.04 359.74,-154.71 369.75,-144"/>
<polygon fill="#63b8ff" stroke="#63b8ff" points="372.13,-146.58 376.4,-136.88 367.01,-141.8 372.13,-146.58"/>
</a>
</g>
</g>
<!-- Node9&#45;&gt;Node4 -->
<g id="edge16_Node000009_Node000004" class="edge">
<title>Node9&#45;&gt;Node4</title>
<g id="a_edge16_Node000009_Node000004"><a xlink:title=" ">
<path fill="none" stroke="#63b8ff" d="M481.86,-115.81C481.86,-108.03 481.86,-96.45 481.86,-86.41"/>
<polygon fill="#63b8ff" stroke="#63b8ff" points="485.36,-86.41 481.86,-76.41 478.36,-86.41 485.36,-86.41"/>
</a>
</g>
</g>
<!-- Node10 -->
<g id="Node000010" class="node">
<title>Node10</title>
<g id="a_Node000010"><a xlink:href="_fatal_error_8h.html" target="_top" xlink:title=" ">
<polygon fill="white" stroke="#666666" points="398.24,-74.5 279.49,-74.5 279.49,-55.25 398.24,-55.25 398.24,-74.5"/>
<text text-anchor="middle" x="338.86" y="-61" font-family="Helvetica,sans-Serif" font-size="10.00">Cpl/System/FatalError.h</text>
</a>
</g>
</g>
<!-- Node9&#45;&gt;Node10 -->
<g id="edge11_Node000009_Node000010" class="edge">
<title>Node9&#45;&gt;Node10</title>
<g id="a_edge11_Node000009_Node000010"><a xlink:title=" ">
<path fill="none" stroke="#63b8ff" d="M459.83,-115.68C436.15,-105.93 398.25,-90.33 371.19,-79.18"/>
<polygon fill="#63b8ff" stroke="#63b8ff" points="372.66,-76.01 362.08,-75.44 370,-82.48 372.66,-76.01"/>
</a>
</g>
</g>
<!-- Node12 -->
<g id="Node000012" class="node">
<title>Node12</title>
<g id="a_Node000012"><a xlink:title=" ">
<polygon fill="#e0e0e0" stroke="#999999" points="614.61,-74.5 567.11,-74.5 567.11,-55.25 614.61,-55.25 614.61,-74.5"/>
<text text-anchor="middle" x="590.86" y="-61" font-family="Helvetica,sans-Serif" font-size="10.00">stdint.h</text>
</a>
</g>
</g>
<!-- Node9&#45;&gt;Node12 -->
<g id="edge14_Node000009_Node000012" class="edge">
<title>Node9&#45;&gt;Node12</title>
<g id="a_edge14_Node000009_Node000012"><a xlink:title=" ">
<path fill="none" stroke="#63b8ff" d="M498.42,-115.81C515.86,-106.38 543.61,-91.4 564.16,-80.3"/>
<polygon fill="#63b8ff" stroke="#63b8ff" points="565.69,-83.45 572.82,-75.62 562.36,-77.29 565.69,-83.45"/>
</a>
</g>
</g>
<!-- Node9&#45;&gt;Node13 -->
<g id="edge15_Node000009_Node000013" class="edge">
<title>Node9&#45;&gt;Node13</title>
<g id="a_edge15_Node000009_Node000013"><a xlink:title=" ">
<path fill="none" stroke="#63b8ff" d="M445.13,-115.68C437.46,-113.89 429.41,-112.07 421.86,-110.5 346,-94.71 256.42,-79.48 208.07,-71.55"/>
<polygon fill="#63b8ff" stroke="#63b8ff" points="208.91,-68.14 198.48,-69.98 207.78,-75.05 208.91,-68.14"/>
</a>
</g>
</g>
<!-- Node10&#45;&gt;Node2 -->
<g id="edge13_Node000010_Node000002" class="edge">
<title>Node10&#45;&gt;Node2</title>
<g id="a_edge13_Node000010_Node000002"><a xlink:title=" ">
<path fill="none" stroke="#63b8ff" d="M310.7,-54.84C283.52,-46.12 242.12,-32.84 211.79,-23.11"/>
<polygon fill="#63b8ff" stroke="#63b8ff" points="213.19,-19.89 202.6,-20.16 211.05,-26.55 213.19,-19.89"/>
</a>
</g>
</g>
<!-- Node11 -->
<g id="Node000011" class="node">
<title>Node11</title>
<g id="a_Node000011"><a xlink:title=" ">
<polygon fill="#e0e0e0" stroke="#999999" points="364.11,-19.25 313.61,-19.25 313.61,0 364.11,0 364.11,-19.25"/>
<text text-anchor="middle" x="338.86" y="-5.75" font-family="Helvetica,sans-Serif" font-size="10.00">stddef.h</text>
</a>
</g>
</g>
<!-- Node10&#45;&gt;Node11 -->
<g id="edge12_Node000010_Node000011" class="edge">
<title>Node10&#45;&gt;Node11</title>
<g id="a_edge12_Node000010_Node000011"><a xlink:title=" ">
<path fill="none" stroke="#63b8ff" d="M338.86,-55.08C338.86,-48.57 338.86,-39.42 338.86,-31.12"/>
<polygon fill="#63b8ff" stroke="#63b8ff" points="342.36,-31.12 338.86,-21.12 335.36,-31.12 342.36,-31.12"/>
</a>
</g>
</g>
<!-- Node18&#45;&gt;Node2 -->
<g id="edge23_Node000018_Node000002" class="edge">
<title>Node18&#45;&gt;Node2</title>
<g id="a_edge23_Node000018_Node000002"><a xlink:title=" ">
<path fill="none" stroke="#63b8ff" d="M116.53,-110.15C121.41,-95.74 129.77,-73.3 139.86,-55.25 145.02,-46.03 151.82,-36.51 157.9,-28.65"/>
<polygon fill="#63b8ff" stroke="#63b8ff" points="160.58,-30.9 164.1,-20.91 155.12,-26.53 160.58,-30.9"/>
</a>
</g>
</g>
<!-- Node18&#45;&gt;Node13 -->
<g id="edge25_Node000018_Node000013" class="edge">
<title>Node18&#45;&gt;Node13</title>
<g id="a_edge25_Node000018_Node000013"><a xlink:title=" ">
<path fill="none" stroke="#63b8ff" d="M126.94,-110.2C135.51,-101.92 146.29,-91.52 155.25,-82.87"/>
<polygon fill="#63b8ff" stroke="#63b8ff" points="157.61,-85.47 162.37,-76 152.74,-80.43 157.61,-85.47"/>
</a>
</g>
</g>
<!-- Node19 -->
<g id="Node000019" class="node">
<title>Node19</title>
<g id="a_Node000019"><a xlink:title=" ">
<polygon fill="#e0e0e0" stroke="#999999" points="92.49,-74.5 29.24,-74.5 29.24,-55.25 92.49,-55.25 92.49,-74.5"/>
<text text-anchor="middle" x="60.86" y="-61" font-family="Helvetica,sans-Serif" font-size="10.00">littlefs/lfs.h</text>
</a>
</g>
</g>
<!-- Node18&#45;&gt;Node19 -->
<g id="edge24_Node000018_Node000019" class="edge">
<title>Node18&#45;&gt;Node19</title>
<g id="a_edge24_Node000018_Node000019"><a xlink:title=" ">
<path fill="none" stroke="#63b8ff" d="M99.26,-110.2C92.24,-102.09 83.45,-91.95 76.05,-83.41"/>
<polygon fill="#63b8ff" stroke="#63b8ff" points="78.91,-81.36 69.72,-76.1 73.62,-85.95 78.91,-81.36"/>
</a>
</g>
</g>
<!-- Node20&#45;&gt;Node12 -->
<g id="edge27_Node000020_Node000012" class="edge">
<title>Node20&#45;&gt;Node12</title>
<g id="a_edge27_Node000020_Node000012"><a xlink:title=" ">
<path fill="none" stroke="#63b8ff" d="M641.79,-287.1C634,-253.28 606.45,-133.6 595.45,-85.8"/>
<polygon fill="#63b8ff" stroke="#63b8ff" points="598.86,-85.03 593.21,-76.07 592.04,-86.6 598.86,-85.03"/>
</a>
</g>
</g>
</g>
</svg>
