<?xml version="1.0" encoding="UTF-8" standalone="no"?>
<!DOCTYPE svg PUBLIC "-//W3C//DTD SVG 1.1//EN"
 "http://www.w3.org/Graphics/SVG/1.1/DTD/svg11.dtd">
<!-- Generated by graphviz version 9.0.0 (20230911.1827)
 -->
<!-- Title: Cpl/Logging/Private_.h Pages: 1 -->
<svg width="124pt" height="83pt"
 viewBox="0.00 0.00 124.38 82.50" xmlns="http://www.w3.org/2000/svg" xmlns:xlink="http://www.w3.org/1999/xlink">
<g id="graph0" class="graph" transform="scale(1 1) rotate(0) translate(4 78.5)">
<title>Cpl/Logging/Private_.h</title>
<!-- Node1 -->
<g id="Node000001" class="node">
<title>Node1</title>
<g id="a_Node000001"><a xlink:title="This file contains private (i.e.">
<polygon fill="#999999" stroke="#666666" points="114.25,-74.5 0,-74.5 0,-55.25 114.25,-55.25 114.25,-74.5"/>
<text text-anchor="middle" x="57.13" y="-61" font-family="Helvetica,sans-Serif" font-size="10.00">Cpl/Logging/Private_.h</text>
</a>
</g>
</g>
<!-- Node2 -->
<g id="Node000002" class="node">
<title>Node2</title>
<g id="a_Node000002"><a xlink:title=" ">
<polygon fill="#e0e0e0" stroke="#999999" points="47.88,-19.25 0.38,-19.25 0.38,0 47.88,0 47.88,-19.25"/>
<text text-anchor="middle" x="24.13" y="-5.75" font-family="Helvetica,sans-Serif" font-size="10.00">stdint.h</text>
</a>
</g>
</g>
<!-- Node1&#45;&gt;Node2 -->
<g id="edge1_Node000001_Node000002" class="edge">
<title>Node1&#45;&gt;Node2</title>
<g id="a_edge1_Node000001_Node000002"><a xlink:title=" ">
<path fill="none" stroke="#63b8ff" d="M51.68,-55.08C47.35,-48.11 41.16,-38.12 35.74,-29.37"/>
<polygon fill="#63b8ff" stroke="#63b8ff" points="38.73,-27.55 30.49,-20.9 32.78,-31.24 38.73,-27.55"/>
</a>
</g>
</g>
<!-- Node3 -->
<g id="Node000003" class="node">
<title>Node3</title>
<g id="a_Node000003"><a xlink:title=" ">
<polygon fill="#e0e0e0" stroke="#999999" points="116.38,-19.25 65.88,-19.25 65.88,0 116.38,0 116.38,-19.25"/>
<text text-anchor="middle" x="91.12" y="-5.75" font-family="Helvetica,sans-Serif" font-size="10.00">stdarg.h</text>
</a>
</g>
</g>
<!-- Node1&#45;&gt;Node3 -->
<g id="edge2_Node000001_Node000003" class="edge">
<title>Node1&#45;&gt;Node3</title>
<g id="a_edge2_Node000001_Node000003"><a xlink:title=" ">
<path fill="none" stroke="#63b8ff" d="M62.74,-55.08C67.24,-48.03 73.71,-37.9 79.34,-29.08"/>
<polygon fill="#63b8ff" stroke="#63b8ff" points="82.14,-31.2 84.57,-20.88 76.24,-27.43 82.14,-31.2"/>
</a>
</g>
</g>
</g>
</svg>
