<?xml version="1.0" encoding="UTF-8" standalone="no"?>
<!DOCTYPE svg PUBLIC "-//W3C//DTD SVG 1.1//EN"
 "http://www.w3.org/Graphics/SVG/1.1/DTD/svg11.dtd">
<!-- Generated by graphviz version 9.0.0 (20230911.1827)
 -->
<!-- Title: Cpl/MApp/MApp_.h Pages: 1 -->
<svg width="378pt" height="94pt"
 viewBox="0.00 0.00 378.00 93.75" xmlns="http://www.w3.org/2000/svg" xmlns:xlink="http://www.w3.org/1999/xlink">
<g id="graph0" class="graph" transform="scale(1 1) rotate(0) translate(4 89.75)">
<title>Cpl/MApp/MApp_.h</title>
<!-- Node1 -->
<g id="Node000001" class="node">
<title>Node1</title>
<g id="a_Node000001"><a xlink:title=" ">
<polygon fill="#999999" stroke="#666666" points="239.25,-85.75 139.25,-85.75 139.25,-66.5 239.25,-66.5 239.25,-85.75"/>
<text text-anchor="middle" x="189.25" y="-72.25" font-family="Helvetica,sans-Serif" font-size="10.00">Cpl/MApp/MApp_.h</text>
</a>
</g>
</g>
<!-- Node2 -->
<g id="Node000002" class="node">
<title>Node2</title>
<g id="a_Node000002"><a xlink:href="_cpl_2_m_app_2_temperature_2_api_8h.html" target="_top" xlink:title=" ">
<polygon fill="white" stroke="#666666" points="116.5,-30.5 0,-30.5 0,0 116.5,0 116.5,-30.5"/>
<text text-anchor="start" x="8" y="-17" font-family="Helvetica,sans-Serif" font-size="10.00">Cpl/MApp/Temperature</text>
<text text-anchor="middle" x="58.25" y="-5.75" font-family="Helvetica,sans-Serif" font-size="10.00">/Api.h</text>
</a>
</g>
</g>
<!-- Node1&#45;&gt;Node2 -->
<g id="edge1_Node000001_Node000002" class="edge">
<title>Node1&#45;&gt;Node2</title>
<g id="a_edge1_Node000001_Node000002"><a xlink:title=" ">
<path fill="none" stroke="#63b8ff" d="M158.79,-61.44C138.46,-52.3 111.73,-40.29 90.95,-30.94"/>
<polygon fill="#63b8ff" stroke="#63b8ff" points="157.13,-64.53 167.69,-65.43 160,-58.14 157.13,-64.53"/>
</a>
</g>
</g>
<!-- Node3 -->
<g id="Node000003" class="node">
<title>Node3</title>
<g id="a_Node000003"><a xlink:href="_eros_2_test_2_cycle_2_api_8h.html" target="_top" xlink:title=" ">
<polygon fill="white" stroke="#666666" points="244.12,-24.88 134.38,-24.88 134.38,-5.63 244.12,-5.63 244.12,-24.88"/>
<text text-anchor="middle" x="189.25" y="-11.38" font-family="Helvetica,sans-Serif" font-size="10.00">Eros/Test/Cycle/Api.h</text>
</a>
</g>
</g>
<!-- Node1&#45;&gt;Node3 -->
<g id="edge2_Node000001_Node000003" class="edge">
<title>Node1&#45;&gt;Node3</title>
<g id="a_edge2_Node000001_Node000003"><a xlink:title=" ">
<path fill="none" stroke="#63b8ff" d="M189.25,-54.7C189.25,-44.67 189.25,-33.08 189.25,-25.28"/>
<polygon fill="#63b8ff" stroke="#63b8ff" points="185.75,-54.67 189.25,-64.67 192.75,-54.67 185.75,-54.67"/>
</a>
</g>
</g>
<!-- Node4 -->
<g id="Node000004" class="node">
<title>Node4</title>
<g id="a_Node000004"><a xlink:href="_eros_2_test_2_thermistor_2_api_8h.html" target="_top" xlink:title=" ">
<polygon fill="white" stroke="#666666" points="370,-30.5 262.5,-30.5 262.5,0 370,0 370,-30.5"/>
<text text-anchor="start" x="270.5" y="-17" font-family="Helvetica,sans-Serif" font-size="10.00">Eros/Test/Thermistor</text>
<text text-anchor="middle" x="316.25" y="-5.75" font-family="Helvetica,sans-Serif" font-size="10.00">/Api.h</text>
</a>
</g>
</g>
<!-- Node1&#45;&gt;Node4 -->
<g id="edge3_Node000001_Node000004" class="edge">
<title>Node1&#45;&gt;Node4</title>
<g id="a_edge3_Node000001_Node000004"><a xlink:title=" ">
<path fill="none" stroke="#63b8ff" d="M219.05,-61.31C238.73,-52.19 264.49,-40.24 284.55,-30.94"/>
<polygon fill="#63b8ff" stroke="#63b8ff" points="217.79,-58.04 210.19,-65.42 220.73,-64.39 217.79,-58.04"/>
</a>
</g>
</g>
</g>
</svg>
