<?xml version="1.0" encoding="UTF-8" standalone="no"?>
<!DOCTYPE svg PUBLIC "-//W3C//DTD SVG 1.1//EN"
 "http://www.w3.org/Graphics/SVG/1.1/DTD/svg11.dtd">
<!-- Generated by graphviz version 9.0.0 (20230911.1827)
 -->
<!-- Title: Cpl/MApp/MApp_.h Pages: 1 -->
<svg width="410pt" height="414pt"
 viewBox="0.00 0.00 409.51 414.00" xmlns="http://www.w3.org/2000/svg" xmlns:xlink="http://www.w3.org/1999/xlink">
<g id="graph0" class="graph" transform="scale(1 1) rotate(0) translate(4 410)">
<title>Cpl/MApp/MApp_.h</title>
<!-- Node1 -->
<g id="Node000001" class="node">
<title>Node1</title>
<g id="a_Node000001"><a xlink:title=" ">
<polygon fill="#999999" stroke="#666666" points="195.51,-406 95.51,-406 95.51,-386.75 195.51,-386.75 195.51,-406"/>
<text text-anchor="middle" x="145.51" y="-392.5" font-family="Helvetica,sans-Serif" font-size="10.00">Cpl/MApp/MApp_.h</text>
</a>
</g>
</g>
<!-- Node2 -->
<g id="Node000002" class="node">
<title>Node2</title>
<g id="a_Node000002"><a xlink:href="_m_app_api_8h.html" target="_top" xlink:title=" ">
<polygon fill="white" stroke="#666666" points="133.01,-295.5 24.01,-295.5 24.01,-276.25 133.01,-276.25 133.01,-295.5"/>
<text text-anchor="middle" x="78.51" y="-282" font-family="Helvetica,sans-Serif" font-size="10.00">Cpl/MApp/MAppApi.h</text>
</a>
</g>
</g>
<!-- Node1&#45;&gt;Node2 -->
<g id="edge1_Node000001_Node000002" class="edge">
<title>Node1&#45;&gt;Node2</title>
<g id="a_edge1_Node000001_Node000002"><a xlink:title=" ">
<path fill="none" stroke="#63b8ff" d="M140.03,-386.5C129.14,-368.85 104.56,-329.05 89.98,-305.45"/>
<polygon fill="#63b8ff" stroke="#63b8ff" points="93.1,-303.83 84.87,-297.16 87.14,-307.51 93.1,-303.83"/>
</a>
</g>
</g>
<!-- Node13 -->
<g id="Node000013" class="node">
<title>Node13</title>
<g id="a_Node000013"><a xlink:href="_map_8h.html" target="_top" xlink:title=" ">
<polygon fill="white" stroke="#666666" points="251.39,-350.75 147.64,-350.75 147.64,-331.5 251.39,-331.5 251.39,-350.75"/>
<text text-anchor="middle" x="199.51" y="-337.25" font-family="Helvetica,sans-Serif" font-size="10.00">Cpl/Container/Map.h</text>
</a>
</g>
</g>
<!-- Node1&#45;&gt;Node13 -->
<g id="edge13_Node000001_Node000013" class="edge">
<title>Node1&#45;&gt;Node13</title>
<g id="a_edge13_Node000001_Node000013"><a xlink:title=" ">
<path fill="none" stroke="#63b8ff" d="M154.43,-386.58C161.97,-379.15 172.98,-368.29 182.24,-359.16"/>
<polygon fill="#63b8ff" stroke="#63b8ff" points="184.66,-361.69 189.33,-352.17 179.75,-356.7 184.66,-361.69"/>
</a>
</g>
</g>
<!-- Node3 -->
<g id="Node000003" class="node">
<title>Node3</title>
<g id="a_Node000003"><a xlink:title=" ">
<polygon fill="#e0e0e0" stroke="#999999" points="397.51,-19.25 315.51,-19.25 315.51,0 397.51,0 397.51,-19.25"/>
<text text-anchor="middle" x="356.51" y="-5.75" font-family="Helvetica,sans-Serif" font-size="10.00">colony_config.h</text>
</a>
</g>
</g>
<!-- Node2&#45;&gt;Node3 -->
<g id="edge2_Node000002_Node000003" class="edge">
<title>Node2&#45;&gt;Node3</title>
<g id="a_edge2_Node000002_Node000003"><a xlink:title=" ">
<path fill="none" stroke="#63b8ff" d="M65.98,-276.01C43.93,-259.27 0.51,-220.69 0.51,-176.38 0.51,-176.38 0.51,-176.38 0.51,-119.12 0.51,-89.24 -1.54,-74.26 21.51,-55.25 68.37,-16.63 226.82,-27.44 303.87,-19.33"/>
<polygon fill="#63b8ff" stroke="#63b8ff" points="304.08,-22.83 313.56,-18.11 303.21,-15.89 304.08,-22.83"/>
</a>
</g>
</g>
<!-- Node4 -->
<g id="Node000004" class="node">
<title>Node4</title>
<g id="a_Node000004"><a xlink:href="_map_item_8h.html" target="_top" xlink:title=" ">
<polygon fill="white" stroke="#666666" points="208.14,-240.25 84.89,-240.25 84.89,-221 208.14,-221 208.14,-240.25"/>
<text text-anchor="middle" x="146.51" y="-226.75" font-family="Helvetica,sans-Serif" font-size="10.00">Cpl/Container/MapItem.h</text>
</a>
</g>
</g>
<!-- Node2&#45;&gt;Node4 -->
<g id="edge3_Node000002_Node000004" class="edge">
<title>Node2&#45;&gt;Node4</title>
<g id="a_edge3_Node000002_Node000004"><a xlink:title=" ">
<path fill="none" stroke="#63b8ff" d="M90.05,-275.84C99.98,-268.07 114.53,-256.67 126.37,-247.4"/>
<polygon fill="#63b8ff" stroke="#63b8ff" points="128.24,-250.38 133.96,-241.46 123.93,-244.87 128.24,-250.38"/>
</a>
</g>
</g>
<!-- Node5 -->
<g id="Node000005" class="node">
<title>Node5</title>
<g id="a_Node000005"><a xlink:href="_dict_item_8h.html" target="_top" xlink:title=" ">
<polygon fill="white" stroke="#666666" points="207.39,-185 85.64,-185 85.64,-165.75 207.39,-165.75 207.39,-185"/>
<text text-anchor="middle" x="146.51" y="-171.5" font-family="Helvetica,sans-Serif" font-size="10.00">Cpl/Container/DictItem.h</text>
</a>
</g>
</g>
<!-- Node4&#45;&gt;Node5 -->
<g id="edge4_Node000004_Node000005" class="edge">
<title>Node4&#45;&gt;Node5</title>
<g id="a_edge4_Node000004_Node000005"><a xlink:title=" ">
<path fill="none" stroke="#63b8ff" d="M146.51,-220.83C146.51,-214.32 146.51,-205.17 146.51,-196.87"/>
<polygon fill="#63b8ff" stroke="#63b8ff" points="150.01,-196.87 146.51,-186.87 143.01,-196.87 150.01,-196.87"/>
</a>
</g>
</g>
<!-- Node6 -->
<g id="Node000006" class="node">
<title>Node6</title>
<g id="a_Node000006"><a xlink:href="_item_8h.html" target="_top" xlink:title=" ">
<polygon fill="white" stroke="#666666" points="132.76,-129.75 28.26,-129.75 28.26,-110.5 132.76,-110.5 132.76,-129.75"/>
<text text-anchor="middle" x="80.51" y="-116.25" font-family="Helvetica,sans-Serif" font-size="10.00">Cpl/Container/Item.h</text>
</a>
</g>
</g>
<!-- Node5&#45;&gt;Node6 -->
<g id="edge5_Node000005_Node000006" class="edge">
<title>Node5&#45;&gt;Node6</title>
<g id="a_edge5_Node000005_Node000006"><a xlink:title=" ">
<path fill="none" stroke="#63b8ff" d="M135.32,-165.34C125.78,-157.65 111.84,-146.4 100.41,-137.18"/>
<polygon fill="#63b8ff" stroke="#63b8ff" points="102.7,-134.53 92.72,-130.98 98.31,-139.98 102.7,-134.53"/>
</a>
</g>
</g>
<!-- Node7 -->
<g id="Node000007" class="node">
<title>Node7</title>
<g id="a_Node000007"><a xlink:href="_key_8h.html" target="_top" xlink:title=" ">
<polygon fill="white" stroke="#666666" points="252.26,-129.75 150.76,-129.75 150.76,-110.5 252.26,-110.5 252.26,-129.75"/>
<text text-anchor="middle" x="201.51" y="-116.25" font-family="Helvetica,sans-Serif" font-size="10.00">Cpl/Container/Key.h</text>
</a>
</g>
</g>
<!-- Node5&#45;&gt;Node7 -->
<g id="edge6_Node000005_Node000007" class="edge">
<title>Node5&#45;&gt;Node7</title>
<g id="a_edge6_Node000005_Node000007"><a xlink:title=" ">
<path fill="none" stroke="#63b8ff" d="M155.6,-165.58C163.35,-158.07 174.72,-147.06 184.21,-137.88"/>
<polygon fill="#63b8ff" stroke="#63b8ff" points="186.4,-140.63 191.15,-131.16 181.53,-135.6 186.4,-140.63"/>
</a>
</g>
</g>
<!-- Node8 -->
<g id="Node000008" class="node">
<title>Node8</title>
<g id="a_Node000008"><a xlink:href="_fatal_error_8h.html" target="_top" xlink:title=" ">
<polygon fill="white" stroke="#666666" points="373.89,-74.5 255.14,-74.5 255.14,-55.25 373.89,-55.25 373.89,-74.5"/>
<text text-anchor="middle" x="314.51" y="-61" font-family="Helvetica,sans-Serif" font-size="10.00">Cpl/System/FatalError.h</text>
</a>
</g>
</g>
<!-- Node7&#45;&gt;Node8 -->
<g id="edge7_Node000007_Node000008" class="edge">
<title>Node7&#45;&gt;Node8</title>
<g id="a_edge7_Node000007_Node000008"><a xlink:title=" ">
<path fill="none" stroke="#63b8ff" d="M220.68,-110.09C238.3,-101.79 264.67,-89.36 284.98,-79.79"/>
<polygon fill="#63b8ff" stroke="#63b8ff" points="286.33,-83.03 293.88,-75.6 283.34,-76.69 286.33,-83.03"/>
</a>
</g>
</g>
<!-- Node10 -->
<g id="Node000010" class="node">
<title>Node10</title>
<g id="a_Node000010"><a xlink:title=" ">
<polygon fill="#e0e0e0" stroke="#999999" points="78.26,-74.5 30.76,-74.5 30.76,-55.25 78.26,-55.25 78.26,-74.5"/>
<text text-anchor="middle" x="54.51" y="-61" font-family="Helvetica,sans-Serif" font-size="10.00">stdint.h</text>
</a>
</g>
</g>
<!-- Node7&#45;&gt;Node10 -->
<g id="edge10_Node000007_Node000010" class="edge">
<title>Node7&#45;&gt;Node10</title>
<g id="a_edge10_Node000007_Node000010"><a xlink:title=" ">
<path fill="none" stroke="#63b8ff" d="M176.58,-110.09C152.53,-101.38 115.93,-88.12 89.08,-78.4"/>
<polygon fill="#63b8ff" stroke="#63b8ff" points="90.61,-75.23 80.02,-75.11 88.23,-81.81 90.61,-75.23"/>
</a>
</g>
</g>
<!-- Node11 -->
<g id="Node000011" class="node">
<title>Node11</title>
<g id="a_Node000011"><a xlink:title=" ">
<polygon fill="#e0e0e0" stroke="#999999" points="144.26,-74.5 96.76,-74.5 96.76,-55.25 144.26,-55.25 144.26,-74.5"/>
<text text-anchor="middle" x="120.51" y="-61" font-family="Helvetica,sans-Serif" font-size="10.00">string.h</text>
</a>
</g>
</g>
<!-- Node7&#45;&gt;Node11 -->
<g id="edge11_Node000007_Node000011" class="edge">
<title>Node7&#45;&gt;Node11</title>
<g id="a_edge11_Node000007_Node000011"><a xlink:title=" ">
<path fill="none" stroke="#63b8ff" d="M187.77,-110.09C175.79,-102.21 158.14,-90.61 143.93,-81.27"/>
<polygon fill="#63b8ff" stroke="#63b8ff" points="145.87,-78.35 135.59,-75.78 142.02,-84.2 145.87,-78.35"/>
</a>
</g>
</g>
<!-- Node12 -->
<g id="Node000012" class="node">
<title>Node12</title>
<g id="a_Node000012"><a xlink:title=" ">
<polygon fill="#e0e0e0" stroke="#999999" points="237.14,-74.5 161.89,-74.5 161.89,-55.25 237.14,-55.25 237.14,-74.5"/>
<text text-anchor="middle" x="199.51" y="-61" font-family="Helvetica,sans-Serif" font-size="10.00">colony_map.h</text>
</a>
</g>
</g>
<!-- Node7&#45;&gt;Node12 -->
<g id="edge12_Node000007_Node000012" class="edge">
<title>Node7&#45;&gt;Node12</title>
<g id="a_edge12_Node000007_Node000012"><a xlink:title=" ">
<path fill="none" stroke="#63b8ff" d="M201.18,-110.33C200.94,-103.74 200.59,-94.46 200.27,-86.07"/>
<polygon fill="#63b8ff" stroke="#63b8ff" points="203.78,-86.23 199.91,-76.37 196.79,-86.5 203.78,-86.23"/>
</a>
</g>
</g>
<!-- Node8&#45;&gt;Node3 -->
<g id="edge9_Node000008_Node000003" class="edge">
<title>Node8&#45;&gt;Node3</title>
<g id="a_edge9_Node000008_Node000003"><a xlink:title=" ">
<path fill="none" stroke="#63b8ff" d="M321.45,-55.08C327.13,-47.88 335.35,-37.46 342.41,-28.51"/>
<polygon fill="#63b8ff" stroke="#63b8ff" points="345.05,-30.82 348.49,-20.8 339.55,-26.48 345.05,-30.82"/>
</a>
</g>
</g>
<!-- Node9 -->
<g id="Node000009" class="node">
<title>Node9</title>
<g id="a_Node000009"><a xlink:title=" ">
<polygon fill="#e0e0e0" stroke="#999999" points="297.76,-19.25 247.26,-19.25 247.26,0 297.76,0 297.76,-19.25"/>
<text text-anchor="middle" x="272.51" y="-5.75" font-family="Helvetica,sans-Serif" font-size="10.00">stddef.h</text>
</a>
</g>
</g>
<!-- Node8&#45;&gt;Node9 -->
<g id="edge8_Node000008_Node000009" class="edge">
<title>Node8&#45;&gt;Node9</title>
<g id="a_edge8_Node000008_Node000009"><a xlink:title=" ">
<path fill="none" stroke="#63b8ff" d="M307.58,-55.08C301.9,-47.88 293.68,-37.46 286.62,-28.51"/>
<polygon fill="#63b8ff" stroke="#63b8ff" points="289.48,-26.48 280.54,-20.8 283.98,-30.82 289.48,-26.48"/>
</a>
</g>
</g>
<!-- Node14 -->
<g id="Node000014" class="node">
<title>Node14</title>
<g id="a_Node000014"><a xlink:href="_avl_tree___8h.html" target="_top" xlink:title=" ">
<polygon fill="white" stroke="#666666" points="275.51,-295.5 151.51,-295.5 151.51,-276.25 275.51,-276.25 275.51,-295.5"/>
<text text-anchor="middle" x="213.51" y="-282" font-family="Helvetica,sans-Serif" font-size="10.00">Cpl/Container/AvlTree_.h</text>
</a>
</g>
</g>
<!-- Node13&#45;&gt;Node14 -->
<g id="edge14_Node000013_Node000014" class="edge">
<title>Node13&#45;&gt;Node14</title>
<g id="a_edge14_Node000013_Node000014"><a xlink:title=" ">
<path fill="none" stroke="#63b8ff" d="M201.83,-331.33C203.58,-324.67 206.06,-315.24 208.28,-306.78"/>
<polygon fill="#63b8ff" stroke="#63b8ff" points="211.61,-307.88 210.77,-297.32 204.84,-306.1 211.61,-307.88"/>
</a>
</g>
</g>
<!-- Node14&#45;&gt;Node3 -->
<g id="edge15_Node000014_Node000003" class="edge">
<title>Node14&#45;&gt;Node3</title>
<g id="a_edge15_Node000014_Node000003"><a xlink:title=" ">
<path fill="none" stroke="#63b8ff" d="M274.03,-275.76C328.99,-263.64 401.51,-236.29 401.51,-176.38 401.51,-176.38 401.51,-176.38 401.51,-119.12 401.51,-85.44 382.77,-50.04 369.48,-29.18"/>
<polygon fill="#63b8ff" stroke="#63b8ff" points="372.45,-27.32 363.99,-20.93 366.62,-31.2 372.45,-27.32"/>
</a>
</g>
</g>
<!-- Node14&#45;&gt;Node4 -->
<g id="edge16_Node000014_Node000004" class="edge">
<title>Node14&#45;&gt;Node4</title>
<g id="a_edge16_Node000014_Node000004"><a xlink:title=" ">
<path fill="none" stroke="#63b8ff" d="M202.15,-275.84C192.47,-268.15 178.32,-256.9 166.71,-247.68"/>
<polygon fill="#63b8ff" stroke="#63b8ff" points="168.9,-244.95 158.9,-241.47 164.55,-250.43 168.9,-244.95"/>
</a>
</g>
</g>
</g>
</svg>
