<?xml version="1.0" encoding="UTF-8" standalone="no"?>
<!DOCTYPE svg PUBLIC "-//W3C//DTD SVG 1.1//EN"
 "http://www.w3.org/Graphics/SVG/1.1/DTD/svg11.dtd">
<!-- Generated by graphviz version 9.0.0 (20230911.1827)
 -->
<!-- Title: Cpl/Itc/Mailbox.h Pages: 1 -->
<svg width="309pt" height="193pt"
 viewBox="0.00 0.00 308.88 193.00" xmlns="http://www.w3.org/2000/svg" xmlns:xlink="http://www.w3.org/1999/xlink">
<g id="graph0" class="graph" transform="scale(1 1) rotate(0) translate(4 189)">
<title>Cpl/Itc/Mailbox.h</title>
<!-- Node1 -->
<g id="Node000001" class="node">
<title>Node1</title>
<g id="a_Node000001"><a xlink:title=" ">
<polygon fill="#999999" stroke="#666666" points="205.75,-185 117.75,-185 117.75,-165.75 205.75,-165.75 205.75,-185"/>
<text text-anchor="middle" x="161.75" y="-171.5" font-family="Helvetica,sans-Serif" font-size="10.00">Cpl/Itc/Mailbox.h</text>
</a>
</g>
</g>
<!-- Node2 -->
<g id="Node000002" class="node">
<title>Node2</title>
<g id="a_Node000002"><a xlink:href="_post_api_8h.html" target="_top" xlink:title=" ">
<polygon fill="white" stroke="#666666" points="89.5,-129.75 0,-129.75 0,-110.5 89.5,-110.5 89.5,-129.75"/>
<text text-anchor="middle" x="44.75" y="-116.25" font-family="Helvetica,sans-Serif" font-size="10.00">Cpl/Itc/PostApi.h</text>
</a>
</g>
</g>
<!-- Node1&#45;&gt;Node2 -->
<g id="edge1_Node000001_Node000002" class="edge">
<title>Node1&#45;&gt;Node2</title>
<g id="a_edge1_Node000001_Node000002"><a xlink:title=" ">
<path fill="none" stroke="#63b8ff" d="M141.9,-165.34C123.58,-157 96.1,-144.5 75.04,-134.91"/>
<polygon fill="#63b8ff" stroke="#63b8ff" points="76.62,-131.79 66.07,-130.83 73.72,-138.16 76.62,-131.79"/>
</a>
</g>
</g>
<!-- Node5 -->
<g id="Node000005" class="node">
<title>Node5</title>
<g id="a_Node000005"><a xlink:href="_s_list_8h.html" target="_top" xlink:title=" ">
<polygon fill="white" stroke="#666666" points="215.88,-129.75 107.62,-129.75 107.62,-110.5 215.88,-110.5 215.88,-129.75"/>
<text text-anchor="middle" x="161.75" y="-116.25" font-family="Helvetica,sans-Serif" font-size="10.00">Cpl/Container/SList.h</text>
</a>
</g>
</g>
<!-- Node1&#45;&gt;Node5 -->
<g id="edge4_Node000001_Node000005" class="edge">
<title>Node1&#45;&gt;Node5</title>
<g id="a_edge4_Node000001_Node000005"><a xlink:title=" ">
<path fill="none" stroke="#63b8ff" d="M161.75,-165.58C161.75,-159.07 161.75,-149.92 161.75,-141.62"/>
<polygon fill="#63b8ff" stroke="#63b8ff" points="165.25,-141.62 161.75,-131.62 158.25,-141.62 165.25,-141.62"/>
</a>
</g>
</g>
<!-- Node6 -->
<g id="Node000006" class="node">
<title>Node6</title>
<g id="a_Node000006"><a xlink:href="_signable_8h.html" target="_top" xlink:title=" ">
<polygon fill="white" stroke="#666666" points="300.88,-74.5 186.62,-74.5 186.62,-55.25 300.88,-55.25 300.88,-74.5"/>
<text text-anchor="middle" x="243.75" y="-61" font-family="Helvetica,sans-Serif" font-size="10.00">Cpl/System/Signable.h</text>
</a>
</g>
</g>
<!-- Node1&#45;&gt;Node6 -->
<g id="edge6_Node000001_Node000006" class="edge">
<title>Node1&#45;&gt;Node6</title>
<g id="a_edge6_Node000001_Node000006"><a xlink:title=" ">
<path fill="none" stroke="#63b8ff" d="M180.63,-165.39C194.72,-157.77 213.43,-145.55 224.75,-129.75 233.94,-116.92 238.73,-99.63 241.2,-86.27"/>
<polygon fill="#63b8ff" stroke="#63b8ff" points="244.65,-86.85 242.7,-76.44 237.73,-85.8 244.65,-86.85"/>
</a>
</g>
</g>
<!-- Node3 -->
<g id="Node000003" class="node">
<title>Node3</title>
<g id="a_Node000003"><a xlink:href="_message_8h.html" target="_top" xlink:title=" ">
<polygon fill="white" stroke="#666666" points="112.12,-74.5 17.38,-74.5 17.38,-55.25 112.12,-55.25 112.12,-74.5"/>
<text text-anchor="middle" x="64.75" y="-61" font-family="Helvetica,sans-Serif" font-size="10.00">Cpl/Itc/Message.h</text>
</a>
</g>
</g>
<!-- Node2&#45;&gt;Node3 -->
<g id="edge2_Node000002_Node000003" class="edge">
<title>Node2&#45;&gt;Node3</title>
<g id="a_edge2_Node000002_Node000003"><a xlink:title=" ">
<path fill="none" stroke="#63b8ff" d="M48.05,-110.33C50.58,-103.59 54.18,-94.02 57.38,-85.49"/>
<polygon fill="#63b8ff" stroke="#63b8ff" points="60.6,-86.87 60.84,-76.28 54.05,-84.41 60.6,-86.87"/>
</a>
</g>
</g>
<!-- Node4 -->
<g id="Node000004" class="node">
<title>Node4</title>
<g id="a_Node000004"><a xlink:href="_item_8h.html" target="_top" xlink:title=" ">
<polygon fill="white" stroke="#666666" points="211,-19.25 106.5,-19.25 106.5,0 211,0 211,-19.25"/>
<text text-anchor="middle" x="158.75" y="-5.75" font-family="Helvetica,sans-Serif" font-size="10.00">Cpl/Container/Item.h</text>
</a>
</g>
</g>
<!-- Node3&#45;&gt;Node4 -->
<g id="edge3_Node000003_Node000004" class="edge">
<title>Node3&#45;&gt;Node4</title>
<g id="a_edge3_Node000003_Node000004"><a xlink:title=" ">
<path fill="none" stroke="#63b8ff" d="M80.7,-54.84C95.01,-46.73 116.28,-34.68 133,-25.21"/>
<polygon fill="#63b8ff" stroke="#63b8ff" points="134.43,-28.42 141.41,-20.45 130.98,-22.33 134.43,-28.42"/>
</a>
</g>
</g>
<!-- Node5&#45;&gt;Node4 -->
<g id="edge5_Node000005_Node000004" class="edge">
<title>Node5&#45;&gt;Node4</title>
<g id="a_edge5_Node000005_Node000004"><a xlink:title=" ">
<path fill="none" stroke="#63b8ff" d="M161.5,-110.25C161.03,-93 159.97,-54.58 159.31,-30.81"/>
<polygon fill="#63b8ff" stroke="#63b8ff" points="162.82,-31.04 159.04,-21.14 155.82,-31.23 162.82,-31.04"/>
</a>
</g>
</g>
<!-- Node6&#45;&gt;Node4 -->
<g id="edge7_Node000006_Node000004" class="edge">
<title>Node6&#45;&gt;Node4</title>
<g id="a_edge7_Node000006_Node000004"><a xlink:title=" ">
<path fill="none" stroke="#63b8ff" d="M229.33,-54.84C216.63,-46.89 197.88,-35.14 182.89,-25.75"/>
<polygon fill="#63b8ff" stroke="#63b8ff" points="184.85,-22.85 174.52,-20.51 181.14,-28.78 184.85,-22.85"/>
</a>
</g>
</g>
</g>
</svg>
