<?xml version="1.0" encoding="UTF-8" standalone="no"?>
<!DOCTYPE svg PUBLIC "-//W3C//DTD SVG 1.1//EN"
 "http://www.w3.org/Graphics/SVG/1.1/DTD/svg11.dtd">
<!-- Generated by graphviz version 2.43.0 (0)
 -->
<!-- Title: Cpl/Itc/Mailbox.h Pages: 1 -->
<svg width="3304pt" height="467pt"
 viewBox="0.00 0.00 3303.80 467.00" xmlns="http://www.w3.org/2000/svg" xmlns:xlink="http://www.w3.org/1999/xlink">
<g id="graph0" class="graph" transform="scale(1 1) rotate(0) translate(4 463)">
<title>Cpl/Itc/Mailbox.h</title>
<!-- Node1 -->
<g id="Node000001" class="node">
<title>Node1</title>
<g id="a_Node000001"><a xlink:title=" ">
<polygon fill="#999999" stroke="#666666" points="2014.8,-459 1916.8,-459 1916.8,-440 2014.8,-440 2014.8,-459"/>
<text text-anchor="middle" x="1965.8" y="-447" font-family="Helvetica,sans-Serif" font-size="10.00">Cpl/Itc/Mailbox.h</text>
</a>
</g>
</g>
<!-- Node2 -->
<g id="Node000002" class="node">
<title>Node2</title>
<g id="a_Node000002"><a xlink:href="_dm_2_mailbox_server_8h.html" target="_top" xlink:title=" ">
<polygon fill="white" stroke="#666666" points="1957.8,-404 1823.8,-404 1823.8,-385 1957.8,-385 1957.8,-404"/>
<text text-anchor="middle" x="1890.8" y="-392" font-family="Helvetica,sans-Serif" font-size="10.00">Cpl/Dm/MailboxServer.h</text>
</a>
</g>
</g>
<!-- Node1&#45;&gt;Node2 -->
<g id="edge1_Node000001_Node000002" class="edge">
<title>Node1&#45;&gt;Node2</title>
<g id="a_edge1_Node000001_Node000002"><a xlink:title=" ">
<path fill="none" stroke="#63b8ff" d="M1945.49,-434.15C1931.94,-424.57 1914.55,-412.29 1903.07,-404.17"/>
<polygon fill="#63b8ff" stroke="#63b8ff" points="1943.56,-437.07 1953.75,-439.98 1947.6,-431.36 1943.56,-437.07"/>
</a>
</g>
</g>
<!-- Node47 -->
<g id="Node000047" class="node">
<title>Node47</title>
<g id="a_Node000047"><a xlink:href="_itc_2_mailbox_server_8h.html" target="_top" xlink:title=" ">
<polygon fill="white" stroke="#666666" points="2696.3,-404 2567.3,-404 2567.3,-385 2696.3,-385 2696.3,-404"/>
<text text-anchor="middle" x="2631.8" y="-392" font-family="Helvetica,sans-Serif" font-size="10.00">Cpl/Itc/MailboxServer.h</text>
</a>
</g>
</g>
<!-- Node1&#45;&gt;Node47 -->
<g id="edge61_Node000001_Node000047" class="edge">
<title>Node1&#45;&gt;Node47</title>
<g id="a_edge61_Node000001_Node000047"><a xlink:title=" ">
<path fill="none" stroke="#63b8ff" d="M2025.16,-443.78C2149.87,-433.85 2438.17,-410.91 2567.26,-400.64"/>
<polygon fill="#63b8ff" stroke="#63b8ff" points="2024.73,-440.3 2015.04,-444.58 2025.29,-447.28 2024.73,-440.3"/>
</a>
</g>
</g>
<!-- Node3 -->
<g id="Node000003" class="node">
<title>Node3</title>
<g id="a_Node000003"><a xlink:href="_summary_8h.html" target="_top" xlink:title=" ">
<polygon fill="white" stroke="#666666" points="2939.8,-343.5 2811.8,-343.5 2811.8,-324.5 2939.8,-324.5 2939.8,-343.5"/>
<text text-anchor="middle" x="2875.8" y="-331.5" font-family="Helvetica,sans-Serif" font-size="10.00">Ajax/Alerts/Summary.h</text>
</a>
</g>
</g>
<!-- Node2&#45;&gt;Node3 -->
<g id="edge2_Node000002_Node000003" class="edge">
<title>Node2&#45;&gt;Node3</title>
<g id="a_edge2_Node000002_Node000003"><a xlink:title=" ">
<path fill="none" stroke="#63b8ff" d="M1968.07,-393.39C2125.64,-392.36 2495.15,-385.82 2802.8,-349 2813.94,-347.67 2825.95,-345.62 2836.93,-343.5"/>
<polygon fill="#63b8ff" stroke="#63b8ff" points="1967.98,-389.89 1958,-393.45 1968.02,-396.89 1967.98,-389.89"/>
</a>
</g>
</g>
<!-- Node4 -->
<g id="Node000004" class="node">
<title>Node4</title>
<g id="a_Node000004"><a xlink:href="_ajax_2_heating_2_io_2_api_8h.html" target="_top" xlink:title=" ">
<polygon fill="white" stroke="#666666" points="2168.3,-277.5 2049.3,-277.5 2049.3,-258.5 2168.3,-258.5 2168.3,-277.5"/>
<text text-anchor="middle" x="2108.8" y="-265.5" font-family="Helvetica,sans-Serif" font-size="10.00">Ajax/Heating/Io/Api.h</text>
</a>
</g>
</g>
<!-- Node2&#45;&gt;Node4 -->
<g id="edge3_Node000002_Node000004" class="edge">
<title>Node2&#45;&gt;Node4</title>
<g id="a_edge3_Node000002_Node000004"><a xlink:title=" ">
<path fill="none" stroke="#63b8ff" d="M1968.41,-392.27C2043.18,-389.25 2148.69,-379.51 2174.8,-349 2196.69,-323.42 2151.38,-292.52 2125.37,-277.73"/>
<polygon fill="#63b8ff" stroke="#63b8ff" points="1967.94,-388.79 1958.07,-392.66 1968.19,-395.78 1967.94,-388.79"/>
</a>
</g>
</g>
<!-- Node5 -->
<g id="Node000005" class="node">
<title>Node5</title>
<g id="a_Node000005"><a xlink:href="_ajax_2_heating_2_supervisor_2_api_8h.html" target="_top" xlink:title=" ">
<polygon fill="white" stroke="#666666" points="1271.8,-349 1137.8,-349 1137.8,-319 1271.8,-319 1271.8,-349"/>
<text text-anchor="start" x="1145.8" y="-337" font-family="Helvetica,sans-Serif" font-size="10.00">Ajax/Heating/Supervisor</text>
<text text-anchor="middle" x="1204.8" y="-326" font-family="Helvetica,sans-Serif" font-size="10.00">/Api.h</text>
</a>
</g>
</g>
<!-- Node2&#45;&gt;Node5 -->
<g id="edge4_Node000002_Node000005" class="edge">
<title>Node2&#45;&gt;Node5</title>
<g id="a_edge4_Node000002_Node000005"><a xlink:title=" ">
<path fill="none" stroke="#63b8ff" d="M1813.56,-390.58C1697.52,-385.57 1471.47,-373.44 1280.8,-349 1277.87,-348.62 1274.88,-348.21 1271.87,-347.77"/>
<polygon fill="#63b8ff" stroke="#63b8ff" points="1813.62,-394.08 1823.76,-391.01 1813.92,-387.09 1813.62,-394.08"/>
</a>
</g>
</g>
<!-- Node7 -->
<g id="Node000007" class="node">
<title>Node7</title>
<g id="a_Node000007"><a xlink:href="appmain_8h.html" target="_top" xlink:title="This file defines the hardware/platform independent start&#45;up interface(s) for the Ajax application.">
<polygon fill="white" stroke="#666666" points="186.8,-343.5 66.8,-343.5 66.8,-324.5 186.8,-324.5 186.8,-343.5"/>
<text text-anchor="middle" x="126.8" y="-331.5" font-family="Helvetica,sans-Serif" font-size="10.00">Ajax/Main/appmain.h</text>
</a>
</g>
</g>
<!-- Node2&#45;&gt;Node7 -->
<g id="edge7_Node000002_Node000007" class="edge">
<title>Node2&#45;&gt;Node7</title>
<g id="a_edge7_Node000002_Node000007"><a xlink:title=" ">
<path fill="none" stroke="#63b8ff" d="M1813.35,-393.11C1525.8,-391.42 519.7,-383.14 200.8,-349 189.23,-347.76 176.76,-345.69 165.41,-343.52"/>
<polygon fill="#63b8ff" stroke="#63b8ff" points="1813.66,-396.62 1823.68,-393.17 1813.7,-389.62 1813.66,-396.62"/>
</a>
</g>
</g>
<!-- Node8 -->
<g id="Node000008" class="node">
<title>Node8</title>
<g id="a_Node000008"><a xlink:href="_ajax_2_metrics_2_api_8h.html" target="_top" xlink:title=" ">
<polygon fill="white" stroke="#666666" points="489.3,-90.5 384.3,-90.5 384.3,-71.5 489.3,-71.5 489.3,-90.5"/>
<text text-anchor="middle" x="436.8" y="-78.5" font-family="Helvetica,sans-Serif" font-size="10.00">Ajax/Metrics/Api.h</text>
</a>
</g>
</g>
<!-- Node2&#45;&gt;Node8 -->
<g id="edge8_Node000002_Node000008" class="edge">
<title>Node2&#45;&gt;Node8</title>
<g id="a_edge8_Node000002_Node000008"><a xlink:title=" ">
<path fill="none" stroke="#63b8ff" d="M1968.22,-391.9C2231.89,-386.29 3079.72,-366.9 3101.8,-349 3130.27,-325.92 3121.8,-305.65 3121.8,-269 3121.8,-269 3121.8,-269 3121.8,-206.5 3121.8,-61.2 653.1,-112.98 508.8,-96 497.79,-94.71 485.95,-92.67 475.12,-90.56"/>
<polygon fill="#63b8ff" stroke="#63b8ff" points="1967.9,-388.41 1957.97,-392.12 1968.05,-395.4 1967.9,-388.41"/>
</a>
</g>
</g>
<!-- Node9 -->
<g id="Node000009" class="node">
<title>Node9</title>
<g id="a_Node000009"><a xlink:href="_ajax_2_screen_mgr_2_api_8h.html" target="_top" xlink:title=" ">
<polygon fill="white" stroke="#666666" points="1119.3,-343.5 998.3,-343.5 998.3,-324.5 1119.3,-324.5 1119.3,-343.5"/>
<text text-anchor="middle" x="1058.8" y="-331.5" font-family="Helvetica,sans-Serif" font-size="10.00">Ajax/ScreenMgr/Api.h</text>
</a>
</g>
</g>
<!-- Node2&#45;&gt;Node9 -->
<g id="edge9_Node000002_Node000009" class="edge">
<title>Node2&#45;&gt;Node9</title>
<g id="a_edge9_Node000002_Node000009"><a xlink:title=" ">
<path fill="none" stroke="#63b8ff" d="M1813.69,-392.53C1675.76,-390.02 1377.88,-381.02 1128.8,-349 1118.23,-347.64 1106.86,-345.61 1096.42,-343.52"/>
<polygon fill="#63b8ff" stroke="#63b8ff" points="1813.68,-396.03 1823.74,-392.71 1813.81,-389.04 1813.68,-396.03"/>
</a>
</g>
</g>
<!-- Node14 -->
<g id="Node000014" class="node">
<title>Node14</title>
<g id="a_Node000014"><a xlink:href="_logical_buttons_8h.html" target="_top" xlink:title=" ">
<polygon fill="white" stroke="#666666" points="1425.8,-343.5 1289.8,-343.5 1289.8,-324.5 1425.8,-324.5 1425.8,-343.5"/>
<text text-anchor="middle" x="1357.8" y="-331.5" font-family="Helvetica,sans-Serif" font-size="10.00">Ajax/Ui/LogicalButtons.h</text>
</a>
</g>
</g>
<!-- Node2&#45;&gt;Node14 -->
<g id="edge16_Node000002_Node000014" class="edge">
<title>Node2&#45;&gt;Node14</title>
<g id="a_edge16_Node000002_Node000014"><a xlink:title=" ">
<path fill="none" stroke="#63b8ff" d="M1813.54,-387.92C1722.66,-380.9 1567.36,-367.49 1434.8,-349 1423.9,-347.48 1412.19,-345.52 1401.27,-343.55"/>
<polygon fill="#63b8ff" stroke="#63b8ff" points="1813.52,-391.42 1823.76,-388.7 1814.05,-384.45 1813.52,-391.42"/>
</a>
</g>
</g>
<!-- Node15 -->
<g id="Node000015" class="node">
<title>Node15</title>
<g id="a_Node000015"><a xlink:href="_ajax_2_ui_2_status_indicator_2_api_8h.html" target="_top" xlink:title=" ">
<polygon fill="white" stroke="#666666" points="1571.8,-349 1443.8,-349 1443.8,-319 1571.8,-319 1571.8,-349"/>
<text text-anchor="start" x="1451.8" y="-337" font-family="Helvetica,sans-Serif" font-size="10.00">Ajax/Ui/StatusIndicator</text>
<text text-anchor="middle" x="1507.8" y="-326" font-family="Helvetica,sans-Serif" font-size="10.00">/Api.h</text>
</a>
</g>
</g>
<!-- Node2&#45;&gt;Node15 -->
<g id="edge17_Node000002_Node000015" class="edge">
<title>Node2&#45;&gt;Node15</title>
<g id="a_edge17_Node000002_Node000015"><a xlink:title=" ">
<path fill="none" stroke="#63b8ff" d="M1814.82,-383.61C1751.97,-375.18 1660.42,-362.34 1580.8,-349 1577.87,-348.51 1574.88,-347.99 1571.86,-347.46"/>
<polygon fill="#63b8ff" stroke="#63b8ff" points="1814.67,-387.12 1825.04,-384.97 1815.59,-380.18 1814.67,-387.12"/>
</a>
</g>
</g>
<!-- Node16 -->
<g id="Node000016" class="node">
<title>Node16</title>
<g id="a_Node000016"><a xlink:href="_dm_2_periodic_scheduler_8h.html" target="_top" xlink:title=" ">
<polygon fill="white" stroke="#666666" points="1741.3,-343.5 1590.3,-343.5 1590.3,-324.5 1741.3,-324.5 1741.3,-343.5"/>
<text text-anchor="middle" x="1665.8" y="-331.5" font-family="Helvetica,sans-Serif" font-size="10.00">Cpl/Dm/PeriodicScheduler.h</text>
</a>
</g>
</g>
<!-- Node2&#45;&gt;Node16 -->
<g id="edge18_Node000002_Node000016" class="edge">
<title>Node2&#45;&gt;Node16</title>
<g id="a_edge18_Node000002_Node000016"><a xlink:title=" ">
<path fill="none" stroke="#63b8ff" d="M1848.36,-382.47C1804.86,-371.16 1738.15,-353.81 1698.55,-343.52"/>
<polygon fill="#63b8ff" stroke="#63b8ff" points="1847.52,-385.86 1858.08,-384.99 1849.28,-379.09 1847.52,-385.86"/>
</a>
</g>
</g>
<!-- Node17 -->
<g id="Node000017" class="node">
<title>Node17</title>
<g id="a_Node000017"><a xlink:href="_log_sink_8h.html" target="_top" xlink:title=" ">
<polygon fill="white" stroke="#666666" points="1883.8,-343.5 1759.8,-343.5 1759.8,-324.5 1883.8,-324.5 1883.8,-343.5"/>
<text text-anchor="middle" x="1821.8" y="-331.5" font-family="Helvetica,sans-Serif" font-size="10.00">Cpl/Logging/LogSink.h</text>
</a>
</g>
</g>
<!-- Node2&#45;&gt;Node17 -->
<g id="edge19_Node000002_Node000017" class="edge">
<title>Node2&#45;&gt;Node17</title>
<g id="a_edge19_Node000002_Node000017"><a xlink:title=" ">
<path fill="none" stroke="#63b8ff" d="M1872.78,-378.22C1859.79,-367.21 1842.74,-352.75 1832.02,-343.67"/>
<polygon fill="#63b8ff" stroke="#63b8ff" points="1870.72,-381.07 1880.62,-384.87 1875.25,-375.73 1870.72,-381.07"/>
</a>
</g>
</g>
<!-- Node18 -->
<g id="Node000018" class="node">
<title>Node18</title>
<g id="a_Node000018"><a xlink:href="_manager_8h.html" target="_top" xlink:title=" ">
<polygon fill="white" stroke="#666666" points="2019.3,-343.5 1902.3,-343.5 1902.3,-324.5 2019.3,-324.5 2019.3,-343.5"/>
<text text-anchor="middle" x="1960.8" y="-331.5" font-family="Helvetica,sans-Serif" font-size="10.00">Cpl/MApp/Manager.h</text>
</a>
</g>
</g>
<!-- Node2&#45;&gt;Node18 -->
<g id="edge20_Node000002_Node000018" class="edge">
<title>Node2&#45;&gt;Node18</title>
<g id="a_edge20_Node000002_Node000018"><a xlink:title=" ">
<path fill="none" stroke="#63b8ff" d="M1909.08,-378.22C1922.25,-367.21 1939.55,-352.75 1950.43,-343.67"/>
<polygon fill="#63b8ff" stroke="#63b8ff" points="1906.55,-375.77 1901.13,-384.87 1911.04,-381.14 1906.55,-375.77"/>
</a>
</g>
</g>
<!-- Node19 -->
<g id="Node000019" class="node">
<title>Node19</title>
<g id="a_Node000019"><a xlink:href="_cpl_2_m_app_2_temperature_2_api_8h.html" target="_top" xlink:title=" ">
<polygon fill="white" stroke="#666666" points="2165.8,-349 2037.8,-349 2037.8,-319 2165.8,-319 2165.8,-349"/>
<text text-anchor="start" x="2045.8" y="-337" font-family="Helvetica,sans-Serif" font-size="10.00">Cpl/MApp/Temperature</text>
<text text-anchor="middle" x="2101.8" y="-326" font-family="Helvetica,sans-Serif" font-size="10.00">/Api.h</text>
</a>
</g>
</g>
<!-- Node2&#45;&gt;Node19 -->
<g id="edge21_Node000002_Node000019" class="edge">
<title>Node2&#45;&gt;Node19</title>
<g id="a_edge21_Node000002_Node000019"><a xlink:title=" ">
<path fill="none" stroke="#63b8ff" d="M1931.12,-382.32C1965.23,-372.86 2014.29,-359.26 2051.07,-349.06"/>
<polygon fill="#63b8ff" stroke="#63b8ff" points="1930.18,-378.95 1921.48,-384.99 1932.05,-385.69 1930.18,-378.95"/>
</a>
</g>
</g>
<!-- Node20 -->
<g id="Node000020" class="node">
<title>Node20</title>
<g id="a_Node000020"><a xlink:href="_chunk_8h.html" target="_top" xlink:title=" ">
<polygon fill="white" stroke="#666666" points="572.3,-343.5 445.3,-343.5 445.3,-324.5 572.3,-324.5 572.3,-343.5"/>
<text text-anchor="middle" x="508.8" y="-331.5" font-family="Helvetica,sans-Serif" font-size="10.00">Cpl/Persistent/Chunk.h</text>
</a>
</g>
</g>
<!-- Node2&#45;&gt;Node20 -->
<g id="edge22_Node000002_Node000020" class="edge">
<title>Node2&#45;&gt;Node20</title>
<g id="a_edge22_Node000002_Node000020"><a xlink:title=" ">
<path fill="none" stroke="#63b8ff" d="M1813.48,-390.45C1636.19,-383.43 1186.66,-365.46 810.8,-349 728.47,-345.4 633.54,-340.95 572.42,-338.04"/>
<polygon fill="#63b8ff" stroke="#63b8ff" points="1813.37,-393.95 1823.5,-390.85 1813.64,-386.95 1813.37,-393.95"/>
</a>
</g>
</g>
<!-- Node34 -->
<g id="Node000034" class="node">
<title>Node34</title>
<g id="a_Node000034"><a xlink:href="_persistent_2_record_8h.html" target="_top" xlink:title=" ">
<polygon fill="white" stroke="#666666" points="372.8,-343.5 242.8,-343.5 242.8,-324.5 372.8,-324.5 372.8,-343.5"/>
<text text-anchor="middle" x="307.8" y="-331.5" font-family="Helvetica,sans-Serif" font-size="10.00">Cpl/Persistent/Record.h</text>
</a>
</g>
</g>
<!-- Node2&#45;&gt;Node34 -->
<g id="edge39_Node000002_Node000034" class="edge">
<title>Node2&#45;&gt;Node34</title>
<g id="a_edge39_Node000002_Node000034"><a xlink:title=" ">
<path fill="none" stroke="#63b8ff" d="M1813.6,-393.27C1596.4,-392.15 961.6,-385.74 435.8,-349 415.28,-347.57 392.98,-345.36 372.83,-343.11"/>
<polygon fill="#63b8ff" stroke="#63b8ff" points="1813.61,-396.77 1823.63,-393.32 1813.64,-389.77 1813.61,-396.77"/>
</a>
</g>
</g>
<!-- Node35 -->
<g id="Node000035" class="node">
<title>Node35</title>
<g id="a_Node000035"><a xlink:href="_record_server_8h.html" target="_top" xlink:title=" ">
<polygon fill="white" stroke="#666666" points="174.3,-277.5 13.3,-277.5 13.3,-258.5 174.3,-258.5 174.3,-277.5"/>
<text text-anchor="middle" x="93.8" y="-265.5" font-family="Helvetica,sans-Serif" font-size="10.00">Cpl/Persistent/RecordServer.h</text>
</a>
</g>
</g>
<!-- Node2&#45;&gt;Node35 -->
<g id="edge45_Node000002_Node000035" class="edge">
<title>Node2&#45;&gt;Node35</title>
<g id="a_edge45_Node000002_Node000035"><a xlink:title=" ">
<path fill="none" stroke="#63b8ff" d="M1813.64,-392.78C1496.8,-389.66 308.78,-376.17 233.8,-349 213.57,-341.67 214,-330.47 195.8,-319 168.93,-302.08 135.51,-286.67 114.41,-277.56"/>
<polygon fill="#63b8ff" stroke="#63b8ff" points="1813.62,-396.28 1823.65,-392.88 1813.69,-389.28 1813.62,-396.28"/>
</a>
</g>
</g>
<!-- Node36 -->
<g id="Node000036" class="node">
<title>Node36</title>
<g id="a_Node000036"><a xlink:href="_region_media_8h.html" target="_top" xlink:title=" ">
<polygon fill="white" stroke="#666666" points="979.8,-343.5 819.8,-343.5 819.8,-324.5 979.8,-324.5 979.8,-343.5"/>
<text text-anchor="middle" x="899.8" y="-331.5" font-family="Helvetica,sans-Serif" font-size="10.00">Cpl/Persistent/RegionMedia.h</text>
</a>
</g>
</g>
<!-- Node2&#45;&gt;Node36 -->
<g id="edge46_Node000002_Node000036" class="edge">
<title>Node2&#45;&gt;Node36</title>
<g id="a_edge46_Node000002_Node000036"><a xlink:title=" ">
<path fill="none" stroke="#63b8ff" d="M1813.12,-392.46C1656.7,-389.74 1292.76,-380.32 988.8,-349 975.57,-347.64 961.32,-345.64 948.17,-343.57"/>
<polygon fill="#63b8ff" stroke="#63b8ff" points="1813.51,-395.96 1823.57,-392.63 1813.63,-388.96 1813.51,-395.96"/>
</a>
</g>
</g>
<!-- Node40 -->
<g id="Node000040" class="node">
<title>Node40</title>
<g id="a_Node000040"><a xlink:href="_ajax_2_thermistor_8h.html" target="_top" xlink:title=" ">
<polygon fill="white" stroke="#666666" points="2647.8,-343.5 2491.8,-343.5 2491.8,-324.5 2647.8,-324.5 2647.8,-343.5"/>
<text text-anchor="middle" x="2569.8" y="-331.5" font-family="Helvetica,sans-Serif" font-size="10.00">Driver/AIO/Ajax/Thermistor.h</text>
</a>
</g>
</g>
<!-- Node2&#45;&gt;Node40 -->
<g id="edge53_Node000002_Node000040" class="edge">
<title>Node2&#45;&gt;Node40</title>
<g id="a_edge53_Node000002_Node000040"><a xlink:title=" ">
<path fill="none" stroke="#63b8ff" d="M1968.31,-389.77C2081.59,-383.84 2298.92,-370.67 2482.8,-349 2495.41,-347.51 2508.99,-345.52 2521.58,-343.5"/>
<polygon fill="#63b8ff" stroke="#63b8ff" points="1967.81,-386.29 1958,-390.3 1968.17,-393.28 1967.81,-386.29"/>
</a>
</g>
</g>
<!-- Node42 -->
<g id="Node000042" class="node">
<title>Node42</title>
<g id="a_Node000042"><a xlink:href="_eros_2_test_2_cycle_2_api_8h.html" target="_top" xlink:title=" ">
<polygon fill="white" stroke="#666666" points="2339.8,-343.5 2221.8,-343.5 2221.8,-324.5 2339.8,-324.5 2339.8,-343.5"/>
<text text-anchor="middle" x="2280.8" y="-331.5" font-family="Helvetica,sans-Serif" font-size="10.00">Eros/Test/Cycle/Api.h</text>
</a>
</g>
</g>
<!-- Node2&#45;&gt;Node42 -->
<g id="edge55_Node000002_Node000042" class="edge">
<title>Node2&#45;&gt;Node42</title>
<g id="a_edge55_Node000002_Node000042"><a xlink:title=" ">
<path fill="none" stroke="#63b8ff" d="M1968.1,-383.75C2032.39,-375.37 2126.22,-362.54 2207.8,-349 2217.73,-347.35 2228.38,-345.41 2238.4,-343.5"/>
<polygon fill="#63b8ff" stroke="#63b8ff" points="1967.51,-380.29 1958.04,-385.05 1968.41,-387.24 1967.51,-380.29"/>
</a>
</g>
</g>
<!-- Node43 -->
<g id="Node000043" class="node">
<title>Node43</title>
<g id="a_Node000043"><a xlink:href="_eros_2_test_2_thermistor_2_api_8h.html" target="_top" xlink:title=" ">
<polygon fill="white" stroke="#666666" points="2473.8,-349 2357.8,-349 2357.8,-319 2473.8,-319 2473.8,-349"/>
<text text-anchor="start" x="2365.8" y="-337" font-family="Helvetica,sans-Serif" font-size="10.00">Eros/Test/Thermistor</text>
<text text-anchor="middle" x="2415.8" y="-326" font-family="Helvetica,sans-Serif" font-size="10.00">/Api.h</text>
</a>
</g>
</g>
<!-- Node2&#45;&gt;Node43 -->
<g id="edge56_Node000002_Node000043" class="edge">
<title>Node2&#45;&gt;Node43</title>
<g id="a_edge56_Node000002_Node000043"><a xlink:title=" ">
<path fill="none" stroke="#63b8ff" d="M1967.81,-388.59C2059.08,-382.19 2215.59,-369.33 2348.8,-349 2351.73,-348.55 2354.74,-348.06 2357.76,-347.53"/>
<polygon fill="#63b8ff" stroke="#63b8ff" points="1967.56,-385.1 1957.83,-389.29 1968.05,-392.09 1967.56,-385.1"/>
</a>
</g>
</g>
<!-- Node44 -->
<g id="Node000044" class="node">
<title>Node44</title>
<g id="a_Node000044"><a xlink:href="_eros_2_ui_2_home_2_screen_8h.html" target="_top" xlink:title=" ">
<polygon fill="white" stroke="#666666" points="2793.8,-343.5 2665.8,-343.5 2665.8,-324.5 2793.8,-324.5 2793.8,-343.5"/>
<text text-anchor="middle" x="2729.8" y="-331.5" font-family="Helvetica,sans-Serif" font-size="10.00">Eros/Ui/Home/Screen.h</text>
</a>
</g>
</g>
<!-- Node2&#45;&gt;Node44 -->
<g id="edge57_Node000002_Node000044" class="edge">
<title>Node2&#45;&gt;Node44</title>
<g id="a_edge57_Node000002_Node000044"><a xlink:title=" ">
<path fill="none" stroke="#63b8ff" d="M1968.01,-392.37C2106.52,-389.59 2406.12,-380.18 2656.8,-349 2667.81,-347.63 2679.66,-345.6 2690.55,-343.51"/>
<polygon fill="#63b8ff" stroke="#63b8ff" points="1967.85,-388.87 1957.92,-392.56 1967.99,-395.87 1967.85,-388.87"/>
</a>
</g>
</g>
<!-- Node46 -->
<g id="Node000046" class="node">
<title>Node46</title>
<g id="a_Node000046"><a xlink:href="_eros_2_ui_2_lcd_test_2_screen_8h.html" target="_top" xlink:title=" ">
<polygon fill="white" stroke="#666666" points="3093.3,-343.5 2958.3,-343.5 2958.3,-324.5 3093.3,-324.5 3093.3,-343.5"/>
<text text-anchor="middle" x="3025.8" y="-331.5" font-family="Helvetica,sans-Serif" font-size="10.00">Eros/Ui/LcdTest/Screen.h</text>
</a>
</g>
</g>
<!-- Node2&#45;&gt;Node46 -->
<g id="edge59_Node000002_Node000046" class="edge">
<title>Node2&#45;&gt;Node46</title>
<g id="a_edge59_Node000002_Node000046"><a xlink:title=" ">
<path fill="none" stroke="#63b8ff" d="M1968.03,-393.89C2143.1,-393.97 2583.34,-389.71 2948.8,-349 2960.55,-347.69 2973.2,-345.66 2984.79,-343.54"/>
<polygon fill="#63b8ff" stroke="#63b8ff" points="1967.89,-390.39 1957.88,-393.88 1967.88,-397.39 1967.89,-390.39"/>
</a>
</g>
</g>
<!-- Node5&#45;&gt;Node4 -->
<g id="edge5_Node000005_Node000004" class="edge">
<title>Node5&#45;&gt;Node4</title>
<g id="a_edge5_Node000005_Node000004"><a xlink:title=" ">
<path fill="none" stroke="#63b8ff" d="M1282.11,-318.96C1580.46,-284.22 1658.95,-304.34 1954.8,-283 1985.99,-280.75 2020.69,-277.65 2049.24,-274.94"/>
<polygon fill="#63b8ff" stroke="#63b8ff" points="1281.39,-315.52 1271.86,-320.16 1282.2,-322.47 1281.39,-315.52"/>
</a>
</g>
</g>
<!-- Node6 -->
<g id="Node000006" class="node">
<title>Node6</title>
<g id="a_Node000006"><a xlink:href="_heating_2_simulated_2_house_8h_source.html" target="_top" xlink:title=" ">
<polygon fill="white" stroke="#666666" points="1945.8,-283 1813.8,-283 1813.8,-253 1945.8,-253 1945.8,-283"/>
<text text-anchor="start" x="1821.8" y="-271" font-family="Helvetica,sans-Serif" font-size="10.00">Ajax/Heating/Simulated</text>
<text text-anchor="middle" x="1879.8" y="-260" font-family="Helvetica,sans-Serif" font-size="10.00">/House.h</text>
</a>
</g>
</g>
<!-- Node5&#45;&gt;Node6 -->
<g id="edge6_Node000005_Node000006" class="edge">
<title>Node5&#45;&gt;Node6</title>
<g id="a_edge6_Node000005_Node000006"><a xlink:title=" ">
<path fill="none" stroke="#63b8ff" d="M1281.96,-318.96C1513.71,-290.47 1575.91,-311.74 1803.8,-283 1806.99,-282.6 1810.26,-282.15 1813.55,-281.66"/>
<polygon fill="#63b8ff" stroke="#63b8ff" points="1281.36,-315.51 1271.87,-320.22 1282.23,-322.45 1281.36,-315.51"/>
</a>
</g>
</g>
<!-- Node10 -->
<g id="Node000010" class="node">
<title>Node10</title>
<g id="a_Node000010"><a xlink:href="_ajax_2_ui_2_about_2_screen_8h.html" target="_top" xlink:title=" ">
<polygon fill="white" stroke="#666666" points="1485.8,-277.5 1357.8,-277.5 1357.8,-258.5 1485.8,-258.5 1485.8,-277.5"/>
<text text-anchor="middle" x="1421.8" y="-265.5" font-family="Helvetica,sans-Serif" font-size="10.00">Ajax/Ui/About/Screen.h</text>
</a>
</g>
</g>
<!-- Node9&#45;&gt;Node10 -->
<g id="edge10_Node000009_Node000010" class="edge">
<title>Node9&#45;&gt;Node10</title>
<g id="a_edge10_Node000009_Node000010"><a xlink:title=" ">
<path fill="none" stroke="#63b8ff" d="M1110.03,-322.54C1116.35,-321.32 1122.72,-320.11 1128.8,-319 1225.84,-301.32 1250.66,-300.17 1347.8,-283 1357.45,-281.29 1367.8,-279.38 1377.61,-277.54"/>
<polygon fill="#63b8ff" stroke="#63b8ff" points="1109.35,-319.11 1100.21,-324.47 1110.7,-325.98 1109.35,-319.11"/>
</a>
</g>
</g>
<!-- Node12 -->
<g id="Node000012" class="node">
<title>Node12</title>
<g id="a_Node000012"><a xlink:href="_ajax_2_ui_2_edit_setpt_2_screen_8h.html" target="_top" xlink:title=" ">
<polygon fill="white" stroke="#666666" points="1647.8,-277.5 1503.8,-277.5 1503.8,-258.5 1647.8,-258.5 1647.8,-277.5"/>
<text text-anchor="middle" x="1575.8" y="-265.5" font-family="Helvetica,sans-Serif" font-size="10.00">Ajax/Ui/EditSetpt/Screen.h</text>
</a>
</g>
</g>
<!-- Node9&#45;&gt;Node12 -->
<g id="edge12_Node000009_Node000012" class="edge">
<title>Node9&#45;&gt;Node12</title>
<g id="a_edge12_Node000009_Node000012"><a xlink:title=" ">
<path fill="none" stroke="#63b8ff" d="M1107.99,-322.52C1114.95,-321.23 1122.04,-320 1128.8,-319 1290.47,-294.94 1332.82,-304.93 1494.8,-283 1506.25,-281.45 1518.57,-279.48 1530.05,-277.51"/>
<polygon fill="#63b8ff" stroke="#63b8ff" points="1107.08,-319.13 1097.92,-324.46 1108.4,-326.01 1107.08,-319.13"/>
</a>
</g>
</g>
<!-- Node13 -->
<g id="Node000013" class="node">
<title>Node13</title>
<g id="a_Node000013"><a xlink:href="_ajax_2_ui_2_home_2_screen_8h.html" target="_top" xlink:title=" ">
<polygon fill="white" stroke="#666666" points="1795.3,-277.5 1666.3,-277.5 1666.3,-258.5 1795.3,-258.5 1795.3,-277.5"/>
<text text-anchor="middle" x="1730.8" y="-265.5" font-family="Helvetica,sans-Serif" font-size="10.00">Ajax/Ui/Home/Screen.h</text>
</a>
</g>
</g>
<!-- Node9&#45;&gt;Node13 -->
<g id="edge14_Node000009_Node000013" class="edge">
<title>Node9&#45;&gt;Node13</title>
<g id="a_edge14_Node000009_Node000013"><a xlink:title=" ">
<path fill="none" stroke="#63b8ff" d="M1106.69,-322.57C1114.07,-321.21 1121.62,-319.96 1128.8,-319 1361.94,-287.87 1423.5,-312.91 1656.8,-283 1667.82,-281.59 1679.68,-279.57 1690.61,-277.5"/>
<polygon fill="#63b8ff" stroke="#63b8ff" points="1105.95,-319.15 1096.79,-324.47 1107.27,-326.02 1105.95,-319.15"/>
</a>
</g>
</g>
<!-- Node11 -->
<g id="Node000011" class="node">
<title>Node11</title>
<g id="a_Node000011"><a xlink:href="_ajax_2_main_2screens_8h.html" target="_top" xlink:title="This file exposes handles to Screen instances for the Ajax Application.">
<polygon fill="white" stroke="#666666" points="1633.3,-217 1518.3,-217 1518.3,-198 1633.3,-198 1633.3,-217"/>
<text text-anchor="middle" x="1575.8" y="-205" font-family="Helvetica,sans-Serif" font-size="10.00">Ajax/Main/screens.h</text>
</a>
</g>
</g>
<!-- Node10&#45;&gt;Node11 -->
<g id="edge11_Node000010_Node000011" class="edge">
<title>Node10&#45;&gt;Node11</title>
<g id="a_edge11_Node000010_Node000011"><a xlink:title=" ">
<path fill="none" stroke="#63b8ff" d="M1453.71,-254.88C1483.48,-243.57 1527.13,-226.99 1553.38,-217.02"/>
<polygon fill="#63b8ff" stroke="#63b8ff" points="1452.3,-251.67 1444.19,-258.49 1454.78,-258.21 1452.3,-251.67"/>
</a>
</g>
</g>
<!-- Node12&#45;&gt;Node11 -->
<g id="edge13_Node000012_Node000011" class="edge">
<title>Node12&#45;&gt;Node11</title>
<g id="a_edge13_Node000012_Node000011"><a xlink:title=" ">
<path fill="none" stroke="#63b8ff" d="M1575.8,-248.16C1575.8,-237.74 1575.8,-225.3 1575.8,-217.17"/>
<polygon fill="#63b8ff" stroke="#63b8ff" points="1572.3,-248.37 1575.8,-258.37 1579.3,-248.37 1572.3,-248.37"/>
</a>
</g>
</g>
<!-- Node13&#45;&gt;Node11 -->
<g id="edge15_Node000013_Node000011" class="edge">
<title>Node13&#45;&gt;Node11</title>
<g id="a_edge15_Node000013_Node000011"><a xlink:title=" ">
<path fill="none" stroke="#63b8ff" d="M1698.68,-254.88C1668.71,-243.57 1624.78,-226.99 1598.36,-217.02"/>
<polygon fill="#63b8ff" stroke="#63b8ff" points="1697.67,-258.24 1708.26,-258.49 1700.14,-251.69 1697.67,-258.24"/>
</a>
</g>
</g>
<!-- Node21 -->
<g id="Node000021" class="node">
<title>Node21</title>
<g id="a_Node000021"><a xlink:href="_dm_2_persistent_2_record_8h.html" target="_top" xlink:title=" ">
<polygon fill="white" stroke="#666666" points="246.8,-217 96.8,-217 96.8,-198 246.8,-198 246.8,-217"/>
<text text-anchor="middle" x="171.8" y="-205" font-family="Helvetica,sans-Serif" font-size="10.00">Cpl/Dm/Persistent/Record.h</text>
</a>
</g>
</g>
<!-- Node20&#45;&gt;Node21 -->
<g id="edge23_Node000020_Node000021" class="edge">
<title>Node20&#45;&gt;Node21</title>
<g id="a_edge23_Node000020_Node000021"><a xlink:title=" ">
<path fill="none" stroke="#63b8ff" d="M487.58,-318.29C454.46,-295.33 394.1,-253.55 392.8,-253 346.41,-233.32 290.78,-222.18 246.94,-215.97"/>
<polygon fill="#63b8ff" stroke="#63b8ff" points="485.91,-321.39 496.12,-324.21 489.9,-315.64 485.91,-321.39"/>
</a>
</g>
</g>
<!-- Node26 -->
<g id="Node000026" class="node">
<title>Node26</title>
<g id="a_Node000026"><a xlink:href="_crc_chunk_8h.html" target="_top" xlink:title=" ">
<polygon fill="white" stroke="#666666" points="808.3,-277.5 665.3,-277.5 665.3,-258.5 808.3,-258.5 808.3,-277.5"/>
<text text-anchor="middle" x="736.8" y="-265.5" font-family="Helvetica,sans-Serif" font-size="10.00">Cpl/Persistent/CrcChunk.h</text>
</a>
</g>
</g>
<!-- Node20&#45;&gt;Node26 -->
<g id="edge29_Node000020_Node000026" class="edge">
<title>Node20&#45;&gt;Node26</title>
<g id="a_edge29_Node000020_Node000026"><a xlink:title=" ">
<path fill="none" stroke="#63b8ff" d="M549.26,-321.64C594.17,-309.03 665.67,-288.97 706.17,-277.6"/>
<polygon fill="#63b8ff" stroke="#63b8ff" points="548.23,-318.3 539.55,-324.37 550.12,-325.04 548.23,-318.3"/>
</a>
</g>
</g>
<!-- Node28 -->
<g id="Node000028" class="node">
<title>Node28</title>
<g id="a_Node000028"><a xlink:href="_data_record_8h.html" target="_top" xlink:title=" ">
<polygon fill="white" stroke="#666666" points="384.3,-277.5 231.3,-277.5 231.3,-258.5 384.3,-258.5 384.3,-277.5"/>
<text text-anchor="middle" x="307.8" y="-265.5" font-family="Helvetica,sans-Serif" font-size="10.00">Cpl/Persistent/DataRecord.h</text>
</a>
</g>
</g>
<!-- Node20&#45;&gt;Node28 -->
<g id="edge31_Node000020_Node000028" class="edge">
<title>Node20&#45;&gt;Node28</title>
<g id="a_edge31_Node000020_Node000028"><a xlink:title=" ">
<path fill="none" stroke="#63b8ff" d="M472.13,-321.32C432.47,-308.7 370.2,-288.87 334.8,-277.6"/>
<polygon fill="#63b8ff" stroke="#63b8ff" points="471.1,-324.67 481.69,-324.37 473.22,-318 471.1,-324.67"/>
</a>
</g>
</g>
<!-- Node30 -->
<g id="Node000030" class="node">
<title>Node30</title>
<g id="a_Node000030"><a xlink:href="_indexed_entry_record_8h.html" target="_top" xlink:title=" ">
<polygon fill="white" stroke="#666666" points="669.3,-162 518.3,-162 518.3,-132 669.3,-132 669.3,-162"/>
<text text-anchor="start" x="526.3" y="-150" font-family="Helvetica,sans-Serif" font-size="10.00">Cpl/Persistent/IndexedEntry</text>
<text text-anchor="middle" x="593.8" y="-139" font-family="Helvetica,sans-Serif" font-size="10.00">Record.h</text>
</a>
</g>
</g>
<!-- Node20&#45;&gt;Node30 -->
<g id="edge36_Node000020_Node000030" class="edge">
<title>Node20&#45;&gt;Node30</title>
<g id="a_edge36_Node000020_Node000030"><a xlink:title=" ">
<path fill="none" stroke="#63b8ff" d="M491.62,-316.66C476.88,-300.56 459.5,-275.2 469.8,-253 489.49,-210.52 535.78,-178.98 565.9,-162.06"/>
<polygon fill="#63b8ff" stroke="#63b8ff" points="489.45,-319.45 498.93,-324.18 494.47,-314.57 489.45,-319.45"/>
</a>
</g>
</g>
<!-- Node33 -->
<g id="Node000033" class="node">
<title>Node33</title>
<g id="a_Node000033"><a xlink:href="_mirrored_chunk_8h.html" target="_top" xlink:title=" ">
<polygon fill="white" stroke="#666666" points="646.8,-277.5 478.8,-277.5 478.8,-258.5 646.8,-258.5 646.8,-277.5"/>
<text text-anchor="middle" x="562.8" y="-265.5" font-family="Helvetica,sans-Serif" font-size="10.00">Cpl/Persistent/MirroredChunk.h</text>
</a>
</g>
</g>
<!-- Node20&#45;&gt;Node33 -->
<g id="edge37_Node000020_Node000033" class="edge">
<title>Node20&#45;&gt;Node33</title>
<g id="a_edge37_Node000020_Node000033"><a xlink:title=" ">
<path fill="none" stroke="#63b8ff" d="M522.61,-316.62C533.01,-304.31 546.86,-287.89 555.28,-277.91"/>
<polygon fill="#63b8ff" stroke="#63b8ff" points="519.85,-314.47 516.08,-324.37 525.2,-318.98 519.85,-314.47"/>
</a>
</g>
</g>
<!-- Node22 -->
<g id="Node000022" class="node">
<title>Node22</title>
<g id="a_Node000022"><a xlink:href="_metrics_record_8h.html" target="_top" xlink:title=" ">
<polygon fill="white" stroke="#666666" points="500.3,-156.5 353.3,-156.5 353.3,-137.5 500.3,-137.5 500.3,-156.5"/>
<text text-anchor="middle" x="426.8" y="-144.5" font-family="Helvetica,sans-Serif" font-size="10.00">Ajax/Main/MetricsRecord.h</text>
</a>
</g>
</g>
<!-- Node21&#45;&gt;Node22 -->
<g id="edge24_Node000021_Node000022" class="edge">
<title>Node21&#45;&gt;Node22</title>
<g id="a_edge24_Node000021_Node000022"><a xlink:title=" ">
<path fill="none" stroke="#63b8ff" d="M218.65,-195.75C267.91,-184.45 344.42,-166.9 389.67,-156.52"/>
<polygon fill="#63b8ff" stroke="#63b8ff" points="217.84,-192.35 208.88,-197.99 219.41,-199.17 217.84,-192.35"/>
</a>
</g>
</g>
<!-- Node23 -->
<g id="Node000023" class="node">
<title>Node23</title>
<g id="a_Node000023"><a xlink:href="_personality_record_8h.html" target="_top" xlink:title=" ">
<polygon fill="white" stroke="#666666" points="334.8,-156.5 168.8,-156.5 168.8,-137.5 334.8,-137.5 334.8,-156.5"/>
<text text-anchor="middle" x="251.8" y="-144.5" font-family="Helvetica,sans-Serif" font-size="10.00">Ajax/Main/PersonalityRecord.h</text>
</a>
</g>
</g>
<!-- Node21&#45;&gt;Node23 -->
<g id="edge26_Node000021_Node000023" class="edge">
<title>Node21&#45;&gt;Node23</title>
<g id="a_edge26_Node000021_Node000023"><a xlink:title=" ">
<path fill="none" stroke="#63b8ff" d="M191.83,-191.85C206.99,-180.77 227.28,-165.93 239.94,-156.67"/>
<polygon fill="#63b8ff" stroke="#63b8ff" points="189.61,-189.14 183.6,-197.87 193.74,-194.79 189.61,-189.14"/>
</a>
</g>
</g>
<!-- Node25 -->
<g id="Node000025" class="node">
<title>Node25</title>
<g id="a_Node000025"><a xlink:href="_user_record_8h.html" target="_top" xlink:title=" ">
<polygon fill="white" stroke="#666666" points="150.8,-156.5 16.8,-156.5 16.8,-137.5 150.8,-137.5 150.8,-156.5"/>
<text text-anchor="middle" x="83.8" y="-144.5" font-family="Helvetica,sans-Serif" font-size="10.00">Ajax/Main/UserRecord.h</text>
</a>
</g>
</g>
<!-- Node21&#45;&gt;Node25 -->
<g id="edge28_Node000021_Node000025" class="edge">
<title>Node21&#45;&gt;Node25</title>
<g id="a_edge28_Node000021_Node000025"><a xlink:title=" ">
<path fill="none" stroke="#63b8ff" d="M150.22,-192.16C133.51,-181.05 110.89,-166.01 96.84,-156.67"/>
<polygon fill="#63b8ff" stroke="#63b8ff" points="148.55,-195.25 158.81,-197.87 152.42,-189.42 148.55,-195.25"/>
</a>
</g>
</g>
<!-- Node22&#45;&gt;Node8 -->
<g id="edge25_Node000022_Node000008" class="edge">
<title>Node22&#45;&gt;Node8</title>
<g id="a_edge25_Node000022_Node000008"><a xlink:title=" ">
<path fill="none" stroke="#63b8ff" d="M429.7,-127.45C431.57,-115.43 433.93,-100.32 435.41,-90.91"/>
<polygon fill="#63b8ff" stroke="#63b8ff" points="426.23,-126.95 428.15,-137.37 433.15,-128.03 426.23,-126.95"/>
</a>
</g>
</g>
<!-- Node24 -->
<g id="Node000024" class="node">
<title>Node24</title>
<g id="a_Node000024"><a xlink:href="_provision_8h.html" target="_top" xlink:title=" ">
<polygon fill="white" stroke="#666666" points="184.8,-90.5 56.8,-90.5 56.8,-71.5 184.8,-71.5 184.8,-90.5"/>
<text text-anchor="middle" x="120.8" y="-78.5" font-family="Helvetica,sans-Serif" font-size="10.00">Ajax/TShell/Provision.h</text>
</a>
</g>
</g>
<!-- Node23&#45;&gt;Node24 -->
<g id="edge27_Node000023_Node000024" class="edge">
<title>Node23&#45;&gt;Node24</title>
<g id="a_edge27_Node000023_Node000024"><a xlink:title=" ">
<path fill="none" stroke="#63b8ff" d="M224.91,-132.86C199.09,-120.25 160.84,-101.56 138.6,-90.7"/>
<polygon fill="#63b8ff" stroke="#63b8ff" points="223.61,-136.12 234.13,-137.37 226.68,-129.83 223.61,-136.12"/>
</a>
</g>
</g>
<!-- Node27 -->
<g id="Node000027" class="node">
<title>Node27</title>
<g id="a_Node000027"><a xlink:href="_storage_map___8h.html" target="_top" xlink:title="This file contains the magic values for how data is laid out in the off&#45;board EEPROM.">
<polygon fill="white" stroke="#666666" points="720.3,-217 579.3,-217 579.3,-198 720.3,-198 720.3,-217"/>
<text text-anchor="middle" x="649.8" y="-205" font-family="Helvetica,sans-Serif" font-size="10.00">Ajax/Main/StorageMap_.h</text>
</a>
</g>
</g>
<!-- Node26&#45;&gt;Node27 -->
<g id="edge30_Node000026_Node000027" class="edge">
<title>Node26&#45;&gt;Node27</title>
<g id="a_edge30_Node000026_Node000027"><a xlink:title=" ">
<path fill="none" stroke="#63b8ff" d="M715.47,-252.66C698.94,-241.55 676.59,-226.51 662.69,-217.17"/>
<polygon fill="#63b8ff" stroke="#63b8ff" points="713.71,-255.69 723.96,-258.37 717.61,-249.88 713.71,-255.69"/>
</a>
</g>
</g>
<!-- Node29 -->
<g id="Node000029" class="node">
<title>Node29</title>
<g id="a_Node000029"><a xlink:href="_index_record_8h.html" target="_top" xlink:title=" ">
<polygon fill="white" stroke="#666666" points="422.3,-217 265.3,-217 265.3,-198 422.3,-198 422.3,-217"/>
<text text-anchor="middle" x="343.8" y="-205" font-family="Helvetica,sans-Serif" font-size="10.00">Cpl/Persistent/IndexRecord.h</text>
</a>
</g>
</g>
<!-- Node28&#45;&gt;Node29 -->
<g id="edge32_Node000028_Node000029" class="edge">
<title>Node28&#45;&gt;Node29</title>
<g id="a_edge32_Node000028_Node000029"><a xlink:title=" ">
<path fill="none" stroke="#63b8ff" d="M318.38,-249.8C324.98,-239.08 333.19,-225.73 338.46,-217.17"/>
<polygon fill="#63b8ff" stroke="#63b8ff" points="315.37,-248.02 313.11,-258.37 321.33,-251.69 315.37,-248.02"/>
</a>
</g>
</g>
<!-- Node29&#45;&gt;Node30 -->
<g id="edge33_Node000029_Node000030" class="edge">
<title>Node29&#45;&gt;Node30</title>
<g id="a_edge33_Node000029_Node000030"><a xlink:title=" ">
<path fill="none" stroke="#63b8ff" d="M390.02,-195.68C430.49,-186.21 489.56,-172.39 533.69,-162.06"/>
<polygon fill="#63b8ff" stroke="#63b8ff" points="389.09,-192.31 380.15,-197.99 390.68,-199.12 389.09,-192.31"/>
</a>
</g>
</g>
<!-- Node31 -->
<g id="Node000031" class="node">
<title>Node31</title>
<g id="a_Node000031"><a xlink:href="_indexed_entry_server_8h.html" target="_top" xlink:title=" ">
<polygon fill="white" stroke="#666666" points="669.3,-96 518.3,-96 518.3,-66 669.3,-66 669.3,-96"/>
<text text-anchor="start" x="526.3" y="-84" font-family="Helvetica,sans-Serif" font-size="10.00">Cpl/Persistent/IndexedEntry</text>
<text text-anchor="middle" x="593.8" y="-73" font-family="Helvetica,sans-Serif" font-size="10.00">Server.h</text>
</a>
</g>
</g>
<!-- Node30&#45;&gt;Node31 -->
<g id="edge34_Node000030_Node000031" class="edge">
<title>Node30&#45;&gt;Node31</title>
<g id="a_edge34_Node000030_Node000031"><a xlink:title=" ">
<path fill="none" stroke="#63b8ff" d="M593.8,-121.54C593.8,-112.96 593.8,-103.61 593.8,-96.16"/>
<polygon fill="#63b8ff" stroke="#63b8ff" points="590.3,-121.8 593.8,-131.8 597.3,-121.8 590.3,-121.8"/>
</a>
</g>
</g>
<!-- Node32 -->
<g id="Node000032" class="node">
<title>Node32</title>
<g id="a_Node000032"><a xlink:href="_log_8h.html" target="_top" xlink:title=" ">
<polygon fill="white" stroke="#666666" points="647.3,-30 540.3,-30 540.3,0 647.3,0 647.3,-30"/>
<text text-anchor="start" x="548.3" y="-18" font-family="Helvetica,sans-Serif" font-size="10.00">Cpl/Logging/TShell</text>
<text text-anchor="middle" x="593.8" y="-7" font-family="Helvetica,sans-Serif" font-size="10.00">/Log.h</text>
</a>
</g>
</g>
<!-- Node31&#45;&gt;Node32 -->
<g id="edge35_Node000031_Node000032" class="edge">
<title>Node31&#45;&gt;Node32</title>
<g id="a_edge35_Node000031_Node000032"><a xlink:title=" ">
<path fill="none" stroke="#63b8ff" d="M593.8,-55.54C593.8,-46.96 593.8,-37.61 593.8,-30.16"/>
<polygon fill="#63b8ff" stroke="#63b8ff" points="590.3,-55.8 593.8,-65.8 597.3,-55.8 590.3,-55.8"/>
</a>
</g>
</g>
<!-- Node33&#45;&gt;Node27 -->
<g id="edge38_Node000033_Node000027" class="edge">
<title>Node33&#45;&gt;Node27</title>
<g id="a_edge38_Node000033_Node000027"><a xlink:title=" ">
<path fill="none" stroke="#63b8ff" d="M584.13,-252.66C600.65,-241.55 623.01,-226.51 636.91,-217.17"/>
<polygon fill="#63b8ff" stroke="#63b8ff" points="581.98,-249.88 575.63,-258.37 585.89,-255.69 581.98,-249.88"/>
</a>
</g>
</g>
<!-- Node34&#45;&gt;Node21 -->
<g id="edge40_Node000034_Node000021" class="edge">
<title>Node34&#45;&gt;Node21</title>
<g id="a_edge40_Node000034_Node000021"><a xlink:title=" ">
<path fill="none" stroke="#63b8ff" d="M278.03,-319.9C260.36,-311.16 238.27,-298.45 221.8,-283 200.43,-262.97 183.48,-232.18 175.98,-217.24"/>
<polygon fill="#63b8ff" stroke="#63b8ff" points="276.79,-323.19 287.32,-324.34 279.81,-316.87 276.79,-323.19"/>
</a>
</g>
</g>
<!-- Node34&#45;&gt;Node28 -->
<g id="edge41_Node000034_Node000028" class="edge">
<title>Node34&#45;&gt;Node28</title>
<g id="a_edge41_Node000034_Node000028"><a xlink:title=" ">
<path fill="none" stroke="#63b8ff" d="M307.8,-314.08C307.8,-302.13 307.8,-287.22 307.8,-277.91"/>
<polygon fill="#63b8ff" stroke="#63b8ff" points="304.3,-314.37 307.8,-324.37 311.3,-314.37 304.3,-314.37"/>
</a>
</g>
</g>
<!-- Node34&#45;&gt;Node35 -->
<g id="edge42_Node000034_Node000035" class="edge">
<title>Node34&#45;&gt;Node35</title>
<g id="a_edge42_Node000034_Node000035"><a xlink:title=" ">
<path fill="none" stroke="#63b8ff" d="M269.29,-321.48C227.1,-308.87 160.4,-288.92 122.54,-277.6"/>
<polygon fill="#63b8ff" stroke="#63b8ff" points="268.35,-324.86 278.94,-324.37 270.36,-318.15 268.35,-324.86"/>
</a>
</g>
</g>
<!-- Node35&#45;&gt;Node21 -->
<g id="edge44_Node000035_Node000021" class="edge">
<title>Node35&#45;&gt;Node21</title>
<g id="a_edge44_Node000035_Node000021"><a xlink:title=" ">
<path fill="none" stroke="#63b8ff" d="M113.33,-252.35C128.11,-241.27 147.89,-226.43 160.24,-217.17"/>
<polygon fill="#63b8ff" stroke="#63b8ff" points="111.21,-249.57 105.31,-258.37 115.41,-255.17 111.21,-249.57"/>
</a>
</g>
</g>
<!-- Node35&#45;&gt;Node24 -->
<g id="edge43_Node000035_Node000024" class="edge">
<title>Node35&#45;&gt;Node24</title>
<g id="a_edge43_Node000035_Node000024"><a xlink:title=" ">
<path fill="none" stroke="#63b8ff" d="M72.39,-252.46C38.57,-227.66 -20.6,-175.61 7.8,-132 22.19,-109.89 48.84,-97.48 72.65,-90.56"/>
<polygon fill="#63b8ff" stroke="#63b8ff" points="70.59,-255.48 80.77,-258.43 74.65,-249.78 70.59,-255.48"/>
</a>
</g>
</g>
<!-- Node36&#45;&gt;Node26 -->
<g id="edge47_Node000036_Node000026" class="edge">
<title>Node36&#45;&gt;Node26</title>
<g id="a_edge47_Node000036_Node000026"><a xlink:title=" ">
<path fill="none" stroke="#63b8ff" d="M868.41,-320.68C836.2,-308.03 786.92,-288.68 758.69,-277.6"/>
<polygon fill="#63b8ff" stroke="#63b8ff" points="867.23,-323.97 877.81,-324.37 869.79,-317.46 867.23,-323.97"/>
</a>
</g>
</g>
<!-- Node36&#45;&gt;Node30 -->
<g id="edge49_Node000036_Node000030" class="edge">
<title>Node36&#45;&gt;Node30</title>
<g id="a_edge49_Node000036_Node000030"><a xlink:title=" ">
<path fill="none" stroke="#63b8ff" d="M958.69,-322.69C1028.15,-310.26 1135,-290.13 1140.8,-283 1149.21,-272.66 1149.29,-263.28 1140.8,-253 1081.86,-181.67 805.35,-158.31 669.51,-151.06"/>
<polygon fill="#63b8ff" stroke="#63b8ff" points="957.96,-319.27 948.73,-324.47 959.19,-326.16 957.96,-319.27"/>
</a>
</g>
</g>
<!-- Node36&#45;&gt;Node33 -->
<g id="edge50_Node000036_Node000033" class="edge">
<title>Node36&#45;&gt;Node33</title>
<g id="a_edge50_Node000036_Node000033"><a xlink:title=" ">
<path fill="none" stroke="#63b8ff" d="M844.87,-322.57C778.73,-310.01 668.9,-289.15 607.63,-277.51"/>
<polygon fill="#63b8ff" stroke="#63b8ff" points="844.22,-326.01 854.7,-324.44 845.53,-319.13 844.22,-326.01"/>
</a>
</g>
</g>
<!-- Node37 -->
<g id="Node000037" class="node">
<title>Node37</title>
<g id="a_Node000037"><a xlink:href="_file_adapter_8h.html" target="_top" xlink:title=" ">
<polygon fill="white" stroke="#666666" points="1339.3,-277.5 1188.3,-277.5 1188.3,-258.5 1339.3,-258.5 1339.3,-277.5"/>
<text text-anchor="middle" x="1263.8" y="-265.5" font-family="Helvetica,sans-Serif" font-size="10.00">Cpl/Persistent/FileAdapter.h</text>
</a>
</g>
</g>
<!-- Node36&#45;&gt;Node37 -->
<g id="edge48_Node000036_Node000037" class="edge">
<title>Node36&#45;&gt;Node37</title>
<g id="a_edge48_Node000036_Node000037"><a xlink:title=" ">
<path fill="none" stroke="#63b8ff" d="M958.69,-322.65C1030.08,-310.09 1149.05,-289.17 1215.37,-277.51"/>
<polygon fill="#63b8ff" stroke="#63b8ff" points="957.75,-319.26 948.51,-324.44 958.97,-326.15 957.75,-319.26"/>
</a>
</g>
</g>
<!-- Node38 -->
<g id="Node000038" class="node">
<title>Node38</title>
<g id="a_Node000038"><a xlink:href="_n_v_adapter_8h.html" target="_top" xlink:title=" ">
<polygon fill="white" stroke="#666666" points="973.3,-277.5 826.3,-277.5 826.3,-258.5 973.3,-258.5 973.3,-277.5"/>
<text text-anchor="middle" x="899.8" y="-265.5" font-family="Helvetica,sans-Serif" font-size="10.00">Cpl/Persistent/NVAdapter.h</text>
</a>
</g>
</g>
<!-- Node36&#45;&gt;Node38 -->
<g id="edge51_Node000036_Node000038" class="edge">
<title>Node36&#45;&gt;Node38</title>
<g id="a_edge51_Node000036_Node000038"><a xlink:title=" ">
<path fill="none" stroke="#63b8ff" d="M899.8,-314.08C899.8,-302.13 899.8,-287.22 899.8,-277.91"/>
<polygon fill="#63b8ff" stroke="#63b8ff" points="896.3,-314.37 899.8,-324.37 903.3,-314.37 896.3,-314.37"/>
</a>
</g>
</g>
<!-- Node39 -->
<g id="Node000039" class="node">
<title>Node39</title>
<g id="a_Node000039"><a xlink:href="_null_region_media_8h.html" target="_top" xlink:title=" ">
<polygon fill="white" stroke="#666666" points="1131.8,-283 991.8,-283 991.8,-253 1131.8,-253 1131.8,-283"/>
<text text-anchor="start" x="999.8" y="-271" font-family="Helvetica,sans-Serif" font-size="10.00">Cpl/Persistent/NullRegion</text>
<text text-anchor="middle" x="1061.8" y="-260" font-family="Helvetica,sans-Serif" font-size="10.00">Media.h</text>
</a>
</g>
</g>
<!-- Node36&#45;&gt;Node39 -->
<g id="edge52_Node000036_Node000039" class="edge">
<title>Node36&#45;&gt;Node39</title>
<g id="a_edge52_Node000036_Node000039"><a xlink:title=" ">
<path fill="none" stroke="#63b8ff" d="M931.07,-320.65C958.26,-309.9 997.64,-294.35 1026.07,-283.12"/>
<polygon fill="#63b8ff" stroke="#63b8ff" points="929.66,-317.44 921.65,-324.37 932.23,-323.95 929.66,-317.44"/>
</a>
</g>
</g>
<!-- Node41 -->
<g id="Node000041" class="node">
<title>Node41</title>
<g id="a_Node000041"><a xlink:href="_eros_2_thermistor_8h.html" target="_top" xlink:title=" ">
<polygon fill="white" stroke="#666666" points="2647.3,-277.5 2492.3,-277.5 2492.3,-258.5 2647.3,-258.5 2647.3,-277.5"/>
<text text-anchor="middle" x="2569.8" y="-265.5" font-family="Helvetica,sans-Serif" font-size="10.00">Driver/AIO/Eros/Thermistor.h</text>
</a>
</g>
</g>
<!-- Node40&#45;&gt;Node41 -->
<g id="edge54_Node000040_Node000041" class="edge">
<title>Node40&#45;&gt;Node41</title>
<g id="a_edge54_Node000040_Node000041"><a xlink:title=" ">
<path fill="none" stroke="#63b8ff" d="M2569.8,-314.08C2569.8,-302.13 2569.8,-287.22 2569.8,-277.91"/>
<polygon fill="#63b8ff" stroke="#63b8ff" points="2566.3,-314.37 2569.8,-324.37 2573.3,-314.37 2566.3,-314.37"/>
</a>
</g>
</g>
<!-- Node45 -->
<g id="Node000045" class="node">
<title>Node45</title>
<g id="a_Node000045"><a xlink:href="_eros_2_main_2screens_8h.html" target="_top" xlink:title="This file exposes handles to Screen instances for the Eros Application.">
<polygon fill="white" stroke="#666666" points="2934.8,-277.5 2820.8,-277.5 2820.8,-258.5 2934.8,-258.5 2934.8,-277.5"/>
<text text-anchor="middle" x="2877.8" y="-265.5" font-family="Helvetica,sans-Serif" font-size="10.00">Eros/Main/screens.h</text>
</a>
</g>
</g>
<!-- Node44&#45;&gt;Node45 -->
<g id="edge58_Node000044_Node000045" class="edge">
<title>Node44&#45;&gt;Node45</title>
<g id="a_edge58_Node000044_Node000045"><a xlink:title=" ">
<path fill="none" stroke="#63b8ff" d="M2759.03,-320.36C2788.2,-307.75 2832.23,-288.71 2857.68,-277.7"/>
<polygon fill="#63b8ff" stroke="#63b8ff" points="2757.55,-317.19 2749.76,-324.37 2760.32,-323.61 2757.55,-317.19"/>
</a>
</g>
</g>
<!-- Node46&#45;&gt;Node45 -->
<g id="edge60_Node000046_Node000045" class="edge">
<title>Node46&#45;&gt;Node45</title>
<g id="a_edge60_Node000046_Node000045"><a xlink:title=" ">
<path fill="none" stroke="#63b8ff" d="M2996.56,-320.36C2967.4,-307.75 2923.37,-288.71 2897.91,-277.7"/>
<polygon fill="#63b8ff" stroke="#63b8ff" points="2995.27,-323.61 3005.84,-324.37 2998.05,-317.19 2995.27,-323.61"/>
</a>
</g>
</g>
<!-- Node48 -->
<g id="Node000048" class="node">
<title>Node48</title>
<g id="a_Node000048"><a xlink:href="_itc_2_periodic_scheduler_8h.html" target="_top" xlink:title=" ">
<polygon fill="white" stroke="#666666" points="3295.8,-343.5 3149.8,-343.5 3149.8,-324.5 3295.8,-324.5 3295.8,-343.5"/>
<text text-anchor="middle" x="3222.8" y="-331.5" font-family="Helvetica,sans-Serif" font-size="10.00">Cpl/Itc/PeriodicScheduler.h</text>
</a>
</g>
</g>
<!-- Node47&#45;&gt;Node48 -->
<g id="edge62_Node000047_Node000048" class="edge">
<title>Node47&#45;&gt;Node48</title>
<g id="a_edge62_Node000047_Node000048"><a xlink:title=" ">
<path fill="none" stroke="#63b8ff" d="M2706.56,-388.58C2805.12,-381.7 2983.84,-367.91 3135.8,-349 3148.09,-347.47 3161.32,-345.51 3173.65,-343.54"/>
<polygon fill="#63b8ff" stroke="#63b8ff" points="2706.13,-385.1 2696.4,-389.28 2706.61,-392.08 2706.13,-385.1"/>
</a>
</g>
</g>
</g>
</svg>
