<?xml version="1.0" encoding="UTF-8" standalone="no"?>
<!DOCTYPE svg PUBLIC "-//W3C//DTD SVG 1.1//EN"
 "http://www.w3.org/Graphics/SVG/1.1/DTD/svg11.dtd">
<!-- Generated by graphviz version 9.0.0 (20230911.1827)
 -->
<!-- Title: Driver/SPI/MasterHalfDuplex.h Pages: 1 -->
<svg width="266pt" height="94pt"
 viewBox="0.00 0.00 265.88 93.75" xmlns="http://www.w3.org/2000/svg" xmlns:xlink="http://www.w3.org/1999/xlink">
<g id="graph0" class="graph" transform="scale(1 1) rotate(0) translate(4 89.75)">
<title>Driver/SPI/MasterHalfDuplex.h</title>
<!-- Node1 -->
<g id="Node000001" class="node">
<title>Node1</title>
<g id="a_Node000001"><a xlink:title=" ">
<polygon fill="#999999" stroke="#666666" points="190,-85.75 41.25,-85.75 41.25,-66.5 190,-66.5 190,-85.75"/>
<text text-anchor="middle" x="115.62" y="-72.25" font-family="Helvetica,sans-Serif" font-size="10.00">Driver/SPI/MasterHalfDuplex.h</text>
</a>
</g>
</g>
<!-- Node2 -->
<g id="Node000002" class="node">
<title>Node2</title>
<g id="a_Node000002"><a xlink:href="_bd_spi_8h.html" target="_top" xlink:title=" ">
<polygon fill="white" stroke="#666666" points="93.25,-30.5 0,-30.5 0,0 93.25,0 93.25,-30.5"/>
<text text-anchor="start" x="8" y="-17" font-family="Helvetica,sans-Serif" font-size="10.00">Cpl/Io/File/Littlefs</text>
<text text-anchor="middle" x="46.62" y="-5.75" font-family="Helvetica,sans-Serif" font-size="10.00">/_bdspi/BdSpi.h</text>
</a>
</g>
</g>
<!-- Node1&#45;&gt;Node2 -->
<g id="edge1_Node000001_Node000002" class="edge">
<title>Node1&#45;&gt;Node2</title>
<g id="a_edge1_Node000001_Node000002"><a xlink:title=" ">
<path fill="none" stroke="#63b8ff" d="M96.48,-58.79C86.19,-50.01 73.61,-39.27 63.66,-30.78"/>
<polygon fill="#63b8ff" stroke="#63b8ff" points="94.12,-61.37 103.99,-65.2 98.66,-56.05 94.12,-61.37"/>
</a>
</g>
</g>
<!-- Node3 -->
<g id="Node000003" class="node">
<title>Node3</title>
<g id="a_Node000003"><a xlink:href="_s_t_m32_2_master_half_duplex_8h.html" target="_top" xlink:title=" ">
<polygon fill="white" stroke="#666666" points="257.88,-30.5 111.38,-30.5 111.38,0 257.88,0 257.88,-30.5"/>
<text text-anchor="start" x="119.38" y="-17" font-family="Helvetica,sans-Serif" font-size="10.00">Driver/SPI/STM32/MasterHalf</text>
<text text-anchor="middle" x="184.62" y="-5.75" font-family="Helvetica,sans-Serif" font-size="10.00">Duplex.h</text>
</a>
</g>
</g>
<!-- Node1&#45;&gt;Node3 -->
<g id="edge2_Node000001_Node000003" class="edge">
<title>Node1&#45;&gt;Node3</title>
<g id="a_edge2_Node000001_Node000003"><a xlink:title=" ">
<path fill="none" stroke="#63b8ff" d="M134.77,-58.79C145.06,-50.01 157.64,-39.27 167.59,-30.78"/>
<polygon fill="#63b8ff" stroke="#63b8ff" points="132.59,-56.05 127.26,-65.2 137.13,-61.37 132.59,-56.05"/>
</a>
</g>
</g>
</g>
</svg>
