<?xml version="1.0" encoding="UTF-8" standalone="no"?>
<!DOCTYPE svg PUBLIC "-//W3C//DTD SVG 1.1//EN"
 "http://www.w3.org/Graphics/SVG/1.1/DTD/svg11.dtd">
<!-- Generated by graphviz version 9.0.0 (20230911.1827)
 -->
<!-- Title: Cpl/Io/File/Md5Checksum.h Pages: 1 -->
<svg width="396pt" height="304pt"
 viewBox="0.00 0.00 395.75 303.50" xmlns="http://www.w3.org/2000/svg" xmlns:xlink="http://www.w3.org/1999/xlink">
<g id="graph0" class="graph" transform="scale(1 1) rotate(0) translate(4 299.5)">
<title>Cpl/Io/File/Md5Checksum.h</title>
<!-- Node1 -->
<g id="Node000001" class="node">
<title>Node1</title>
<g id="a_Node000001"><a xlink:title=" ">
<polygon fill="#999999" stroke="#666666" points="190,-295.5 54,-295.5 54,-276.25 190,-276.25 190,-295.5"/>
<text text-anchor="middle" x="122" y="-282" font-family="Helvetica,sans-Serif" font-size="10.00">Cpl/Io/File/Md5Checksum.h</text>
</a>
</g>
</g>
<!-- Node2 -->
<g id="Node000002" class="node">
<title>Node2</title>
<g id="a_Node000002"><a xlink:title=" ">
<polygon fill="#e0e0e0" stroke="#999999" points="82,-19.25 0,-19.25 0,0 82,0 82,-19.25"/>
<text text-anchor="middle" x="41" y="-5.75" font-family="Helvetica,sans-Serif" font-size="10.00">colony_config.h</text>
</a>
</g>
</g>
<!-- Node1&#45;&gt;Node2 -->
<g id="edge1_Node000001_Node000002" class="edge">
<title>Node1&#45;&gt;Node2</title>
<g id="a_edge1_Node000001_Node000002"><a xlink:title=" ">
<path fill="none" stroke="#63b8ff" d="M99.36,-275.87C65.6,-260.78 6,-226.98 6,-176.38 6,-176.38 6,-176.38 6,-119.12 6,-86.56 20.46,-51.04 30.79,-29.81"/>
<polygon fill="#63b8ff" stroke="#63b8ff" points="33.88,-31.44 35.3,-20.95 27.64,-28.27 33.88,-31.44"/>
</a>
</g>
</g>
<!-- Node3 -->
<g id="Node000003" class="node">
<title>Node3</title>
<g id="a_Node000003"><a xlink:href="_api_md5_8h.html" target="_top" xlink:title=" ">
<polygon fill="white" stroke="#666666" points="183.62,-240.25 60.38,-240.25 60.38,-221 183.62,-221 183.62,-240.25"/>
<text text-anchor="middle" x="122" y="-226.75" font-family="Helvetica,sans-Serif" font-size="10.00">Cpl/Checksum/ApiMd5.h</text>
</a>
</g>
</g>
<!-- Node1&#45;&gt;Node3 -->
<g id="edge2_Node000001_Node000003" class="edge">
<title>Node1&#45;&gt;Node3</title>
<g id="a_edge2_Node000001_Node000003"><a xlink:title=" ">
<path fill="none" stroke="#63b8ff" d="M122,-276.08C122,-269.57 122,-260.42 122,-252.12"/>
<polygon fill="#63b8ff" stroke="#63b8ff" points="125.5,-252.12 122,-242.12 118.5,-252.12 125.5,-252.12"/>
</a>
</g>
</g>
<!-- Node5 -->
<g id="Node000005" class="node">
<title>Node5</title>
<g id="a_Node000005"><a xlink:href="_text_2_string_8h.html" target="_top" xlink:title=" ">
<polygon fill="white" stroke="#666666" points="275,-185 187,-185 187,-165.75 275,-165.75 275,-185"/>
<text text-anchor="middle" x="231" y="-171.5" font-family="Helvetica,sans-Serif" font-size="10.00">Cpl/Text/String.h</text>
</a>
</g>
</g>
<!-- Node1&#45;&gt;Node5 -->
<g id="edge15_Node000001_Node000005" class="edge">
<title>Node1&#45;&gt;Node5</title>
<g id="a_edge15_Node000001_Node000005"><a xlink:title=" ">
<path fill="none" stroke="#63b8ff" d="M141.52,-275.82C156.86,-268.01 178.05,-255.57 193,-240.25 205.81,-227.12 216.12,-208.87 222.74,-195.24"/>
<polygon fill="#63b8ff" stroke="#63b8ff" points="225.78,-197.01 226.79,-186.46 219.42,-194.08 225.78,-197.01"/>
</a>
</g>
</g>
<!-- Node4 -->
<g id="Node000004" class="node">
<title>Node4</title>
<g id="a_Node000004"><a xlink:title=" ">
<polygon fill="#e0e0e0" stroke="#999999" points="81.75,-74.5 34.25,-74.5 34.25,-55.25 81.75,-55.25 81.75,-74.5"/>
<text text-anchor="middle" x="58" y="-61" font-family="Helvetica,sans-Serif" font-size="10.00">stdint.h</text>
</a>
</g>
</g>
<!-- Node3&#45;&gt;Node4 -->
<g id="edge3_Node000003_Node000004" class="edge">
<title>Node3&#45;&gt;Node4</title>
<g id="a_edge3_Node000003_Node000004"><a xlink:title=" ">
<path fill="none" stroke="#63b8ff" d="M118.56,-220.82C108.58,-195.28 79.43,-120.7 65.54,-85.15"/>
<polygon fill="#63b8ff" stroke="#63b8ff" points="68.91,-84.17 62.01,-76.13 62.39,-86.72 68.91,-84.17"/>
</a>
</g>
</g>
<!-- Node3&#45;&gt;Node5 -->
<g id="edge4_Node000003_Node000005" class="edge">
<title>Node3&#45;&gt;Node5</title>
<g id="a_edge4_Node000003_Node000005"><a xlink:title=" ">
<path fill="none" stroke="#63b8ff" d="M140.49,-220.59C157.4,-212.33 182.69,-199.98 202.24,-190.43"/>
<polygon fill="#63b8ff" stroke="#63b8ff" points="203.61,-193.65 211.06,-186.12 200.54,-187.36 203.61,-193.65"/>
</a>
</g>
</g>
<!-- Node6 -->
<g id="Node000006" class="node">
<title>Node6</title>
<g id="a_Node000006"><a xlink:title=" ">
<polygon fill="#e0e0e0" stroke="#999999" points="376.62,-74.5 301.38,-74.5 301.38,-55.25 376.62,-55.25 376.62,-74.5"/>
<text text-anchor="middle" x="339" y="-61" font-family="Helvetica,sans-Serif" font-size="10.00">colony_map.h</text>
</a>
</g>
</g>
<!-- Node5&#45;&gt;Node6 -->
<g id="edge5_Node000005_Node000006" class="edge">
<title>Node5&#45;&gt;Node6</title>
<g id="a_edge5_Node000005_Node000006"><a xlink:title=" ">
<path fill="none" stroke="#63b8ff" d="M232.62,-165.52C235.46,-152.18 242.48,-126.75 257,-110.5 269.11,-96.95 286.34,-86.71 301.89,-79.48"/>
<polygon fill="#63b8ff" stroke="#63b8ff" points="303.14,-82.75 310.91,-75.55 300.34,-76.34 303.14,-82.75"/>
</a>
</g>
</g>
<!-- Node7 -->
<g id="Node000007" class="node">
<title>Node7</title>
<g id="a_Node000007"><a xlink:href="_key_8h.html" target="_top" xlink:title=" ">
<polygon fill="white" stroke="#666666" points="209.75,-129.75 108.25,-129.75 108.25,-110.5 209.75,-110.5 209.75,-129.75"/>
<text text-anchor="middle" x="159" y="-116.25" font-family="Helvetica,sans-Serif" font-size="10.00">Cpl/Container/Key.h</text>
</a>
</g>
</g>
<!-- Node5&#45;&gt;Node7 -->
<g id="edge6_Node000005_Node000007" class="edge">
<title>Node5&#45;&gt;Node7</title>
<g id="a_edge6_Node000005_Node000007"><a xlink:title=" ">
<path fill="none" stroke="#63b8ff" d="M218.79,-165.34C208.17,-157.49 192.56,-145.95 179.96,-136.62"/>
<polygon fill="#63b8ff" stroke="#63b8ff" points="182.37,-134.06 172.25,-130.92 178.21,-139.69 182.37,-134.06"/>
</a>
</g>
</g>
<!-- Node11 -->
<g id="Node000011" class="node">
<title>Node11</title>
<g id="a_Node000011"><a xlink:title=" ">
<polygon fill="#e0e0e0" stroke="#999999" points="316.25,-129.75 265.75,-129.75 265.75,-110.5 316.25,-110.5 316.25,-129.75"/>
<text text-anchor="middle" x="291" y="-116.25" font-family="Helvetica,sans-Serif" font-size="10.00">stdarg.h</text>
</a>
</g>
</g>
<!-- Node5&#45;&gt;Node11 -->
<g id="edge13_Node000005_Node000011" class="edge">
<title>Node5&#45;&gt;Node11</title>
<g id="a_edge13_Node000005_Node000011"><a xlink:title=" ">
<path fill="none" stroke="#63b8ff" d="M241.18,-165.34C249.76,-157.72 262.27,-146.62 272.6,-137.45"/>
<polygon fill="#63b8ff" stroke="#63b8ff" points="274.68,-140.29 279.84,-131.03 270.04,-135.05 274.68,-140.29"/>
</a>
</g>
</g>
<!-- Node12 -->
<g id="Node000012" class="node">
<title>Node12</title>
<g id="a_Node000012"><a xlink:title=" ">
<polygon fill="#e0e0e0" stroke="#999999" points="387.75,-129.75 334.25,-129.75 334.25,-110.5 387.75,-110.5 387.75,-129.75"/>
<text text-anchor="middle" x="361" y="-116.25" font-family="Helvetica,sans-Serif" font-size="10.00">iostream</text>
</a>
</g>
</g>
<!-- Node5&#45;&gt;Node12 -->
<g id="edge14_Node000005_Node000012" class="edge">
<title>Node5&#45;&gt;Node12</title>
<g id="a_edge14_Node000005_Node000012"><a xlink:title=" ">
<path fill="none" stroke="#63b8ff" d="M253.05,-165.34C273.69,-156.89 304.78,-144.15 328.3,-134.52"/>
<polygon fill="#63b8ff" stroke="#63b8ff" points="329.51,-137.81 337.44,-130.78 326.86,-131.33 329.51,-137.81"/>
</a>
</g>
</g>
<!-- Node7&#45;&gt;Node4 -->
<g id="edge10_Node000007_Node000004" class="edge">
<title>Node7&#45;&gt;Node4</title>
<g id="a_edge10_Node000007_Node000004"><a xlink:title=" ">
<path fill="none" stroke="#63b8ff" d="M141.87,-110.09C126.34,-101.91 103.2,-89.71 85.16,-80.19"/>
<polygon fill="#63b8ff" stroke="#63b8ff" points="87.03,-77.23 76.56,-75.66 83.77,-83.42 87.03,-77.23"/>
</a>
</g>
</g>
<!-- Node7&#45;&gt;Node6 -->
<g id="edge12_Node000007_Node000006" class="edge">
<title>Node7&#45;&gt;Node6</title>
<g id="a_edge12_Node000007_Node000006"><a xlink:title=" ">
<path fill="none" stroke="#63b8ff" d="M189.53,-110.09C219.27,-101.29 264.69,-87.86 297.65,-78.11"/>
<polygon fill="#63b8ff" stroke="#63b8ff" points="298.27,-81.57 306.86,-75.38 296.28,-74.86 298.27,-81.57"/>
</a>
</g>
</g>
<!-- Node8 -->
<g id="Node000008" class="node">
<title>Node8</title>
<g id="a_Node000008"><a xlink:href="_fatal_error_8h.html" target="_top" xlink:title=" ">
<polygon fill="white" stroke="#666666" points="218.38,-74.5 99.62,-74.5 99.62,-55.25 218.38,-55.25 218.38,-74.5"/>
<text text-anchor="middle" x="159" y="-61" font-family="Helvetica,sans-Serif" font-size="10.00">Cpl/System/FatalError.h</text>
</a>
</g>
</g>
<!-- Node7&#45;&gt;Node8 -->
<g id="edge7_Node000007_Node000008" class="edge">
<title>Node7&#45;&gt;Node8</title>
<g id="a_edge7_Node000007_Node000008"><a xlink:title=" ">
<path fill="none" stroke="#63b8ff" d="M159,-110.33C159,-103.82 159,-94.67 159,-86.37"/>
<polygon fill="#63b8ff" stroke="#63b8ff" points="162.5,-86.37 159,-76.37 155.5,-86.37 162.5,-86.37"/>
</a>
</g>
</g>
<!-- Node10 -->
<g id="Node000010" class="node">
<title>Node10</title>
<g id="a_Node000010"><a xlink:title=" ">
<polygon fill="#e0e0e0" stroke="#999999" points="283.75,-74.5 236.25,-74.5 236.25,-55.25 283.75,-55.25 283.75,-74.5"/>
<text text-anchor="middle" x="260" y="-61" font-family="Helvetica,sans-Serif" font-size="10.00">string.h</text>
</a>
</g>
</g>
<!-- Node7&#45;&gt;Node10 -->
<g id="edge11_Node000007_Node000010" class="edge">
<title>Node7&#45;&gt;Node10</title>
<g id="a_edge11_Node000007_Node000010"><a xlink:title=" ">
<path fill="none" stroke="#63b8ff" d="M176.13,-110.09C191.66,-101.91 214.8,-89.71 232.84,-80.19"/>
<polygon fill="#63b8ff" stroke="#63b8ff" points="234.23,-83.42 241.44,-75.66 230.97,-77.23 234.23,-83.42"/>
</a>
</g>
</g>
<!-- Node8&#45;&gt;Node2 -->
<g id="edge9_Node000008_Node000002" class="edge">
<title>Node8&#45;&gt;Node2</title>
<g id="a_edge9_Node000008_Node000002"><a xlink:title=" ">
<path fill="none" stroke="#63b8ff" d="M138.98,-54.84C120.51,-46.5 92.79,-34 71.55,-24.41"/>
<polygon fill="#63b8ff" stroke="#63b8ff" points="73.05,-21.25 62.49,-20.33 70.17,-27.63 73.05,-21.25"/>
</a>
</g>
</g>
<!-- Node9 -->
<g id="Node000009" class="node">
<title>Node9</title>
<g id="a_Node000009"><a xlink:title=" ">
<polygon fill="#e0e0e0" stroke="#999999" points="184.25,-19.25 133.75,-19.25 133.75,0 184.25,0 184.25,-19.25"/>
<text text-anchor="middle" x="159" y="-5.75" font-family="Helvetica,sans-Serif" font-size="10.00">stddef.h</text>
</a>
</g>
</g>
<!-- Node8&#45;&gt;Node9 -->
<g id="edge8_Node000008_Node000009" class="edge">
<title>Node8&#45;&gt;Node9</title>
<g id="a_edge8_Node000008_Node000009"><a xlink:title=" ">
<path fill="none" stroke="#63b8ff" d="M159,-55.08C159,-48.57 159,-39.42 159,-31.12"/>
<polygon fill="#63b8ff" stroke="#63b8ff" points="162.5,-31.12 159,-21.12 155.5,-31.12 162.5,-31.12"/>
</a>
</g>
</g>
</g>
</svg>
