<?xml version="1.0" encoding="UTF-8" standalone="no"?>
<!DOCTYPE svg PUBLIC "-//W3C//DTD SVG 1.1//EN"
 "http://www.w3.org/Graphics/SVG/1.1/DTD/svg11.dtd">
<!-- Generated by graphviz version 9.0.0 (20230911.1827)
 -->
<!-- Title: Cpl/Persistent/MirroredChunk.h Pages: 1 -->
<svg width="1320pt" height="414pt"
 viewBox="0.00 0.00 1320.12 414.00" xmlns="http://www.w3.org/2000/svg" xmlns:xlink="http://www.w3.org/1999/xlink">
<g id="graph0" class="graph" transform="scale(1 1) rotate(0) translate(4 410)">
<title>Cpl/Persistent/MirroredChunk.h</title>
<!-- Node1 -->
<g id="Node000001" class="node">
<title>Node1</title>
<g id="a_Node000001"><a xlink:title=" ">
<polygon fill="#999999" stroke="#666666" points="469.62,-406 318.62,-406 318.62,-386.75 469.62,-386.75 469.62,-406"/>
<text text-anchor="middle" x="394.12" y="-392.5" font-family="Helvetica,sans-Serif" font-size="10.00">Cpl/Persistent/MirroredChunk.h</text>
</a>
</g>
</g>
<!-- Node2 -->
<g id="Node000002" class="node">
<title>Node2</title>
<g id="a_Node000002"><a xlink:href="_chunk_8h.html" target="_top" xlink:title=" ">
<polygon fill="white" stroke="#666666" points="452,-350.75 336.25,-350.75 336.25,-331.5 452,-331.5 452,-350.75"/>
<text text-anchor="middle" x="394.12" y="-337.25" font-family="Helvetica,sans-Serif" font-size="10.00">Cpl/Persistent/Chunk.h</text>
</a>
</g>
</g>
<!-- Node1&#45;&gt;Node2 -->
<g id="edge1_Node000001_Node000002" class="edge">
<title>Node1&#45;&gt;Node2</title>
<g id="a_edge1_Node000001_Node000002"><a xlink:title=" ">
<path fill="none" stroke="#63b8ff" d="M394.12,-386.58C394.12,-380.07 394.12,-370.92 394.12,-362.62"/>
<polygon fill="#63b8ff" stroke="#63b8ff" points="397.63,-362.62 394.13,-352.62 390.63,-362.62 397.63,-362.62"/>
</a>
</g>
</g>
<!-- Node15 -->
<g id="Node000015" class="node">
<title>Node15</title>
<g id="a_Node000015"><a xlink:title=" ">
<polygon fill="#e0e0e0" stroke="#999999" points="1247.88,-19.25 1200.38,-19.25 1200.38,0 1247.88,0 1247.88,-19.25"/>
<text text-anchor="middle" x="1224.12" y="-5.75" font-family="Helvetica,sans-Serif" font-size="10.00">stdint.h</text>
</a>
</g>
</g>
<!-- Node1&#45;&gt;Node15 -->
<g id="edge44_Node000001_Node000015" class="edge">
<title>Node1&#45;&gt;Node15</title>
<g id="a_edge44_Node000001_Node000015"><a xlink:title=" ">
<path fill="none" stroke="#63b8ff" d="M470.03,-394.33C689.97,-390.3 1312.12,-371.43 1312.12,-286.88 1312.12,-286.88 1312.12,-286.88 1312.12,-119.12 1312.12,-89.51 1310.88,-78.95 1293.12,-55.25 1283.54,-42.46 1269.13,-32.31 1255.95,-24.95"/>
<polygon fill="#63b8ff" stroke="#63b8ff" points="1257.59,-21.86 1247.1,-20.34 1254.36,-28.07 1257.59,-21.86"/>
</a>
</g>
</g>
<!-- Node28 -->
<g id="Node000028" class="node">
<title>Node28</title>
<g id="a_Node000028"><a xlink:href="_region_media_8h.html" target="_top" xlink:title=" ">
<polygon fill="white" stroke="#666666" points="318.25,-350.75 174,-350.75 174,-331.5 318.25,-331.5 318.25,-350.75"/>
<text text-anchor="middle" x="246.12" y="-337.25" font-family="Helvetica,sans-Serif" font-size="10.00">Cpl/Persistent/RegionMedia.h</text>
</a>
</g>
</g>
<!-- Node1&#45;&gt;Node28 -->
<g id="edge41_Node000001_Node000028" class="edge">
<title>Node1&#45;&gt;Node28</title>
<g id="a_edge41_Node000001_Node000028"><a xlink:title=" ">
<path fill="none" stroke="#63b8ff" d="M369.02,-386.34C345.1,-377.74 308.84,-364.69 281.9,-355"/>
<polygon fill="#63b8ff" stroke="#63b8ff" points="283.37,-351.81 272.78,-351.71 281,-358.39 283.37,-351.81"/>
</a>
</g>
</g>
<!-- Node3 -->
<g id="Node000003" class="node">
<title>Node3</title>
<g id="a_Node000003"><a xlink:href="_payload_8h.html" target="_top" xlink:title=" ">
<polygon fill="white" stroke="#666666" points="412.38,-240.25 289.88,-240.25 289.88,-221 412.38,-221 412.38,-240.25"/>
<text text-anchor="middle" x="351.12" y="-226.75" font-family="Helvetica,sans-Serif" font-size="10.00">Cpl/Persistent/Payload.h</text>
</a>
</g>
</g>
<!-- Node2&#45;&gt;Node3 -->
<g id="edge2_Node000002_Node000003" class="edge">
<title>Node2&#45;&gt;Node3</title>
<g id="a_edge2_Node000002_Node000003"><a xlink:title=" ">
<path fill="none" stroke="#63b8ff" d="M392.1,-331.25C389.1,-318.73 382.98,-295.29 375.12,-276.25 371.52,-267.52 366.72,-258.26 362.36,-250.45"/>
<polygon fill="#63b8ff" stroke="#63b8ff" points="365.45,-248.8 357.41,-241.9 359.39,-252.31 365.45,-248.8"/>
</a>
</g>
</g>
<!-- Node5 -->
<g id="Node000005" class="node">
<title>Node5</title>
<g id="a_Node000005"><a xlink:href="_dm_2_mailbox_server_8h.html" target="_top" xlink:title=" ">
<polygon fill="white" stroke="#666666" points="366.25,-295.5 246,-295.5 246,-276.25 366.25,-276.25 366.25,-295.5"/>
<text text-anchor="middle" x="306.12" y="-282" font-family="Helvetica,sans-Serif" font-size="10.00">Cpl/Dm/MailboxServer.h</text>
</a>
</g>
</g>
<!-- Node2&#45;&gt;Node5 -->
<g id="edge4_Node000002_Node000005" class="edge">
<title>Node2&#45;&gt;Node5</title>
<g id="a_edge4_Node000002_Node000005"><a xlink:title=" ">
<path fill="none" stroke="#63b8ff" d="M379.2,-331.09C365.92,-323.06 346.26,-311.16 330.67,-301.73"/>
<polygon fill="#63b8ff" stroke="#63b8ff" points="332.79,-298.92 322.42,-296.74 329.16,-304.91 332.79,-298.92"/>
</a>
</g>
</g>
<!-- Node4 -->
<g id="Node000004" class="node">
<title>Node4</title>
<g id="a_Node000004"><a xlink:title=" ">
<polygon fill="#e0e0e0" stroke="#999999" points="266.5,-129.75 219.75,-129.75 219.75,-110.5 266.5,-110.5 266.5,-129.75"/>
<text text-anchor="middle" x="243.12" y="-116.25" font-family="Helvetica,sans-Serif" font-size="10.00">stdlib.h</text>
</a>
</g>
</g>
<!-- Node3&#45;&gt;Node4 -->
<g id="edge3_Node000003_Node000004" class="edge">
<title>Node3&#45;&gt;Node4</title>
<g id="a_edge3_Node000003_Node000004"><a xlink:title=" ">
<path fill="none" stroke="#63b8ff" d="M331.55,-220.62C316.19,-212.83 294.98,-200.4 280.12,-185 267.47,-171.88 257.46,-153.63 251.06,-140"/>
<polygon fill="#63b8ff" stroke="#63b8ff" points="254.42,-138.95 247.17,-131.23 248.03,-141.79 254.42,-138.95"/>
</a>
</g>
</g>
<!-- Node6 -->
<g id="Node000006" class="node">
<title>Node6</title>
<g id="a_Node000006"><a xlink:href="_dm_2_event_loop_8h.html" target="_top" xlink:title=" ">
<polygon fill="white" stroke="#666666" points="673.75,-240.25 568.5,-240.25 568.5,-221 673.75,-221 673.75,-240.25"/>
<text text-anchor="middle" x="621.12" y="-226.75" font-family="Helvetica,sans-Serif" font-size="10.00">Cpl/Dm/EventLoop.h</text>
</a>
</g>
</g>
<!-- Node5&#45;&gt;Node6 -->
<g id="edge5_Node000005_Node000006" class="edge">
<title>Node5&#45;&gt;Node6</title>
<g id="a_edge5_Node000005_Node000006"><a xlink:title=" ">
<path fill="none" stroke="#63b8ff" d="M359.92,-275.78C414.45,-266.56 498.83,-252.3 556.84,-242.49"/>
<polygon fill="#63b8ff" stroke="#63b8ff" points="557.31,-245.96 566.59,-240.84 556.14,-239.06 557.31,-245.96"/>
</a>
</g>
</g>
<!-- Node24 -->
<g id="Node000024" class="node">
<title>Node24</title>
<g id="a_Node000024"><a xlink:href="_mailbox_8h.html" target="_top" xlink:title=" ">
<polygon fill="white" stroke="#666666" points="177.12,-185 89.12,-185 89.12,-165.75 177.12,-165.75 177.12,-185"/>
<text text-anchor="middle" x="133.12" y="-171.5" font-family="Helvetica,sans-Serif" font-size="10.00">Cpl/Itc/Mailbox.h</text>
</a>
</g>
</g>
<!-- Node5&#45;&gt;Node24 -->
<g id="edge34_Node000005_Node000024" class="edge">
<title>Node5&#45;&gt;Node24</title>
<g id="a_edge34_Node000005_Node000024"><a xlink:title=" ">
<path fill="none" stroke="#63b8ff" d="M291.67,-275.81C261.83,-257.1 193.16,-214.03 156.77,-191.2"/>
<polygon fill="#63b8ff" stroke="#63b8ff" points="159.03,-188.49 148.7,-186.14 155.31,-194.42 159.03,-188.49"/>
</a>
</g>
</g>
<!-- Node7 -->
<g id="Node000007" class="node">
<title>Node7</title>
<g id="a_Node000007"><a xlink:href="_system_2_event_loop_8h.html" target="_top" xlink:title=" ">
<polygon fill="white" stroke="#666666" points="820.75,-185 697.5,-185 697.5,-165.75 820.75,-165.75 820.75,-185"/>
<text text-anchor="middle" x="759.12" y="-171.5" font-family="Helvetica,sans-Serif" font-size="10.00">Cpl/System/EventLoop.h</text>
</a>
</g>
</g>
<!-- Node6&#45;&gt;Node7 -->
<g id="edge6_Node000006_Node000007" class="edge">
<title>Node6&#45;&gt;Node7</title>
<g id="a_edge6_Node000006_Node000007"><a xlink:title=" ">
<path fill="none" stroke="#63b8ff" d="M644.53,-220.59C666.64,-212.06 700.04,-199.17 725.09,-189.51"/>
<polygon fill="#63b8ff" stroke="#63b8ff" points="726.12,-192.86 734.19,-186 723.6,-186.33 726.12,-192.86"/>
</a>
</g>
</g>
<!-- Node19 -->
<g id="Node000019" class="node">
<title>Node19</title>
<g id="a_Node000019"><a xlink:href="_d_list_8h.html" target="_top" xlink:title=" ">
<polygon fill="white" stroke="#666666" points="682.25,-74.5 574,-74.5 574,-55.25 682.25,-55.25 682.25,-74.5"/>
<text text-anchor="middle" x="628.12" y="-61" font-family="Helvetica,sans-Serif" font-size="10.00">Cpl/Container/DList.h</text>
</a>
</g>
</g>
<!-- Node6&#45;&gt;Node19 -->
<g id="edge28_Node000006_Node000019" class="edge">
<title>Node6&#45;&gt;Node19</title>
<g id="a_edge28_Node000006_Node000019"><a xlink:title=" ">
<path fill="none" stroke="#63b8ff" d="M568.1,-225.17C472.55,-215.18 287.09,-185.68 351.12,-110.5 364.71,-94.55 485.14,-79.88 562.67,-71.98"/>
<polygon fill="#63b8ff" stroke="#63b8ff" points="562.67,-75.5 572.27,-71.01 561.97,-68.53 562.67,-75.5"/>
</a>
</g>
</g>
<!-- Node20 -->
<g id="Node000020" class="node">
<title>Node20</title>
<g id="a_Node000020"><a xlink:href="_thread_8h.html" target="_top" xlink:title=" ">
<polygon fill="white" stroke="#666666" points="506.5,-185 399.75,-185 399.75,-165.75 506.5,-165.75 506.5,-185"/>
<text text-anchor="middle" x="453.12" y="-171.5" font-family="Helvetica,sans-Serif" font-size="10.00">Cpl/System/Thread.h</text>
</a>
</g>
</g>
<!-- Node6&#45;&gt;Node20 -->
<g id="edge22_Node000006_Node000020" class="edge">
<title>Node6&#45;&gt;Node20</title>
<g id="a_edge22_Node000006_Node000020"><a xlink:title=" ">
<path fill="none" stroke="#63b8ff" d="M592.63,-220.59C565.11,-211.87 523.22,-198.59 492.52,-188.86"/>
<polygon fill="#63b8ff" stroke="#63b8ff" points="493.8,-185.59 483.21,-185.91 491.68,-192.27 493.8,-185.59"/>
</a>
</g>
</g>
<!-- Node22 -->
<g id="Node000022" class="node">
<title>Node22</title>
<g id="a_Node000022"><a xlink:href="_subscriber_api_8h.html" target="_top" xlink:title=" ">
<polygon fill="white" stroke="#666666" points="1283.88,-74.5 1164.38,-74.5 1164.38,-55.25 1283.88,-55.25 1283.88,-74.5"/>
<text text-anchor="middle" x="1224.12" y="-61" font-family="Helvetica,sans-Serif" font-size="10.00">Cpl/Dm/SubscriberApi.h</text>
</a>
</g>
</g>
<!-- Node6&#45;&gt;Node22 -->
<g id="edge29_Node000006_Node000022" class="edge">
<title>Node6&#45;&gt;Node22</title>
<g id="a_edge29_Node000006_Node000022"><a xlink:title=" ">
<path fill="none" stroke="#63b8ff" d="M673.96,-227.14C783.23,-221.61 1030.64,-207.05 1112.12,-185 1168.02,-169.87 1199.05,-178.61 1230.12,-129.75 1238.45,-116.67 1235.94,-98.92 1231.93,-85.46"/>
<polygon fill="#63b8ff" stroke="#63b8ff" points="1235.35,-84.66 1228.74,-76.38 1228.75,-86.97 1235.35,-84.66"/>
</a>
</g>
</g>
<!-- Node23 -->
<g id="Node000023" class="node">
<title>Node23</title>
<g id="a_Node000023"><a xlink:href="_notification_api___8h.html" target="_top" xlink:title=" ">
<polygon fill="white" stroke="#666666" points="1102.62,-185 975.62,-185 975.62,-165.75 1102.62,-165.75 1102.62,-185"/>
<text text-anchor="middle" x="1039.12" y="-171.5" font-family="Helvetica,sans-Serif" font-size="10.00">Cpl/Dm/NotificationApi_.h</text>
</a>
</g>
</g>
<!-- Node6&#45;&gt;Node23 -->
<g id="edge32_Node000006_Node000023" class="edge">
<title>Node6&#45;&gt;Node23</title>
<g id="a_edge32_Node000006_Node000023"><a xlink:title=" ">
<path fill="none" stroke="#63b8ff" d="M674.06,-222.88C747.47,-213.53 880.55,-196.58 964.15,-185.93"/>
<polygon fill="#63b8ff" stroke="#63b8ff" points="964.37,-189.43 973.85,-184.69 963.49,-182.48 964.37,-189.43"/>
</a>
</g>
</g>
<!-- Node8 -->
<g id="Node000008" class="node">
<title>Node8</title>
<g id="a_Node000008"><a xlink:href="_runnable_8h.html" target="_top" xlink:title=" ">
<polygon fill="white" stroke="#666666" points="639.75,-129.75 522.5,-129.75 522.5,-110.5 639.75,-110.5 639.75,-129.75"/>
<text text-anchor="middle" x="581.12" y="-116.25" font-family="Helvetica,sans-Serif" font-size="10.00">Cpl/System/Runnable.h</text>
</a>
</g>
</g>
<!-- Node7&#45;&gt;Node8 -->
<g id="edge7_Node000007_Node000008" class="edge">
<title>Node7&#45;&gt;Node8</title>
<g id="a_edge7_Node000007_Node000008"><a xlink:title=" ">
<path fill="none" stroke="#63b8ff" d="M728.93,-165.34C699.65,-156.58 655,-143.23 622.44,-133.48"/>
<polygon fill="#63b8ff" stroke="#63b8ff" points="623.5,-130.15 612.92,-130.64 621.5,-136.86 623.5,-130.15"/>
</a>
</g>
</g>
<!-- Node9 -->
<g id="Node000009" class="node">
<title>Node9</title>
<g id="a_Node000009"><a xlink:href="_semaphore_8h.html" target="_top" xlink:title=" ">
<polygon fill="white" stroke="#666666" points="822.25,-129.75 696,-129.75 696,-110.5 822.25,-110.5 822.25,-129.75"/>
<text text-anchor="middle" x="759.12" y="-116.25" font-family="Helvetica,sans-Serif" font-size="10.00">Cpl/System/Semaphore.h</text>
</a>
</g>
</g>
<!-- Node7&#45;&gt;Node9 -->
<g id="edge8_Node000007_Node000009" class="edge">
<title>Node7&#45;&gt;Node9</title>
<g id="a_edge8_Node000007_Node000009"><a xlink:title=" ">
<path fill="none" stroke="#63b8ff" d="M759.12,-165.58C759.12,-159.07 759.12,-149.92 759.12,-141.62"/>
<polygon fill="#63b8ff" stroke="#63b8ff" points="762.63,-141.62 759.13,-131.62 755.63,-141.62 762.63,-141.62"/>
</a>
</g>
</g>
<!-- Node11 -->
<g id="Node000011" class="node">
<title>Node11</title>
<g id="a_Node000011"><a xlink:href="_signable_8h.html" target="_top" xlink:title=" ">
<polygon fill="white" stroke="#666666" points="527.25,-74.5 413,-74.5 413,-55.25 527.25,-55.25 527.25,-74.5"/>
<text text-anchor="middle" x="470.12" y="-61" font-family="Helvetica,sans-Serif" font-size="10.00">Cpl/System/Signable.h</text>
</a>
</g>
</g>
<!-- Node7&#45;&gt;Node11 -->
<g id="edge12_Node000007_Node000011" class="edge">
<title>Node7&#45;&gt;Node11</title>
<g id="a_edge12_Node000007_Node000011"><a xlink:title=" ">
<path fill="none" stroke="#63b8ff" d="M744.84,-165.4C719.74,-149.75 668.57,-118.38 649.12,-110.5 612.17,-95.51 568.81,-84.55 534.02,-77.24"/>
<polygon fill="#63b8ff" stroke="#63b8ff" points="535.03,-73.87 524.53,-75.3 533.63,-80.73 535.03,-73.87"/>
</a>
</g>
</g>
<!-- Node13 -->
<g id="Node000013" class="node">
<title>Node13</title>
<g id="a_Node000013"><a xlink:href="_event_flag_8h.html" target="_top" xlink:title=" ">
<polygon fill="white" stroke="#666666" points="1146.25,-74.5 1026,-74.5 1026,-55.25 1146.25,-55.25 1146.25,-74.5"/>
<text text-anchor="middle" x="1086.12" y="-61" font-family="Helvetica,sans-Serif" font-size="10.00">Cpl/System/EventFlag.h</text>
</a>
</g>
</g>
<!-- Node7&#45;&gt;Node13 -->
<g id="edge13_Node000007_Node000013" class="edge">
<title>Node7&#45;&gt;Node13</title>
<g id="a_edge13_Node000007_Node000013"><a xlink:title=" ">
<path fill="none" stroke="#63b8ff" d="M821.04,-168.98C868.43,-163.29 934.7,-151.93 989.12,-129.75 1018.25,-117.88 1047.89,-96.76 1066.61,-82.07"/>
<polygon fill="#63b8ff" stroke="#63b8ff" points="1068.79,-84.81 1074.4,-75.82 1064.41,-79.35 1068.79,-84.81"/>
</a>
</g>
</g>
<!-- Node16 -->
<g id="Node000016" class="node">
<title>Node16</title>
<g id="a_Node000016"><a xlink:href="_shared_event_handler_8h.html" target="_top" xlink:title=" ">
<polygon fill="white" stroke="#666666" points="1202.12,-129.75 1036.12,-129.75 1036.12,-110.5 1202.12,-110.5 1202.12,-129.75"/>
<text text-anchor="middle" x="1119.12" y="-116.25" font-family="Helvetica,sans-Serif" font-size="10.00">Cpl/System/SharedEventHandler.h</text>
</a>
</g>
</g>
<!-- Node7&#45;&gt;Node16 -->
<g id="edge16_Node000007_Node000016" class="edge">
<title>Node7&#45;&gt;Node16</title>
<g id="a_edge16_Node000007_Node000016"><a xlink:title=" ">
<path fill="none" stroke="#63b8ff" d="M820.6,-165.28C883.15,-156.03 980.08,-141.69 1046.41,-131.88"/>
<polygon fill="#63b8ff" stroke="#63b8ff" points="1046.72,-135.37 1056.1,-130.45 1045.7,-128.45 1046.72,-135.37"/>
</a>
</g>
</g>
<!-- Node17 -->
<g id="Node000017" class="node">
<title>Node17</title>
<g id="a_Node000017"><a xlink:href="_timer_manager_8h.html" target="_top" xlink:title=" ">
<polygon fill="white" stroke="#666666" points="979.62,-129.75 840.62,-129.75 840.62,-110.5 979.62,-110.5 979.62,-129.75"/>
<text text-anchor="middle" x="910.12" y="-116.25" font-family="Helvetica,sans-Serif" font-size="10.00">Cpl/System/TimerManager.h</text>
</a>
</g>
</g>
<!-- Node7&#45;&gt;Node17 -->
<g id="edge18_Node000007_Node000017" class="edge">
<title>Node7&#45;&gt;Node17</title>
<g id="a_edge18_Node000007_Node000017"><a xlink:title=" ">
<path fill="none" stroke="#63b8ff" d="M784.74,-165.34C809.14,-156.74 846.14,-143.69 873.62,-134"/>
<polygon fill="#63b8ff" stroke="#63b8ff" points="874.69,-137.33 882.96,-130.71 872.36,-130.73 874.69,-137.33"/>
</a>
</g>
</g>
<!-- Node10 -->
<g id="Node000010" class="node">
<title>Node10</title>
<g id="a_Node000010"><a xlink:title=" ">
<polygon fill="#e0e0e0" stroke="#999999" points="789.75,-74.5 714.5,-74.5 714.5,-55.25 789.75,-55.25 789.75,-74.5"/>
<text text-anchor="middle" x="752.12" y="-61" font-family="Helvetica,sans-Serif" font-size="10.00">colony_map.h</text>
</a>
</g>
</g>
<!-- Node9&#45;&gt;Node10 -->
<g id="edge9_Node000009_Node000010" class="edge">
<title>Node9&#45;&gt;Node10</title>
<g id="a_edge9_Node000009_Node000010"><a xlink:title=" ">
<path fill="none" stroke="#63b8ff" d="M757.97,-110.33C757.1,-103.74 755.88,-94.46 754.78,-86.07"/>
<polygon fill="#63b8ff" stroke="#63b8ff" points="758.28,-85.82 753.5,-76.36 751.34,-86.73 758.28,-85.82"/>
</a>
</g>
</g>
<!-- Node9&#45;&gt;Node11 -->
<g id="edge10_Node000009_Node000011" class="edge">
<title>Node9&#45;&gt;Node11</title>
<g id="a_edge10_Node000009_Node000011"><a xlink:title=" ">
<path fill="none" stroke="#63b8ff" d="M709.77,-110.03C660.21,-100.9 583.76,-86.81 530.58,-77.01"/>
<polygon fill="#63b8ff" stroke="#63b8ff" points="531.23,-73.58 520.76,-75.21 529.96,-80.46 531.23,-73.58"/>
</a>
</g>
</g>
<!-- Node12 -->
<g id="Node000012" class="node">
<title>Node12</title>
<g id="a_Node000012"><a xlink:href="_item_8h.html" target="_top" xlink:title=" ">
<polygon fill="white" stroke="#666666" points="522.38,-19.25 417.88,-19.25 417.88,0 522.38,0 522.38,-19.25"/>
<text text-anchor="middle" x="470.12" y="-5.75" font-family="Helvetica,sans-Serif" font-size="10.00">Cpl/Container/Item.h</text>
</a>
</g>
</g>
<!-- Node11&#45;&gt;Node12 -->
<g id="edge11_Node000011_Node000012" class="edge">
<title>Node11&#45;&gt;Node12</title>
<g id="a_edge11_Node000011_Node000012"><a xlink:title=" ">
<path fill="none" stroke="#63b8ff" d="M470.12,-55.08C470.12,-48.57 470.12,-39.42 470.12,-31.12"/>
<polygon fill="#63b8ff" stroke="#63b8ff" points="473.63,-31.12 470.13,-21.12 466.63,-31.12 473.63,-31.12"/>
</a>
</g>
</g>
<!-- Node14 -->
<g id="Node000014" class="node">
<title>Node14</title>
<g id="a_Node000014"><a xlink:title=" ">
<polygon fill="#e0e0e0" stroke="#999999" points="1127.12,-19.25 1045.12,-19.25 1045.12,0 1127.12,0 1127.12,-19.25"/>
<text text-anchor="middle" x="1086.12" y="-5.75" font-family="Helvetica,sans-Serif" font-size="10.00">colony_config.h</text>
</a>
</g>
</g>
<!-- Node13&#45;&gt;Node14 -->
<g id="edge14_Node000013_Node000014" class="edge">
<title>Node13&#45;&gt;Node14</title>
<g id="a_edge14_Node000013_Node000014"><a xlink:title=" ">
<path fill="none" stroke="#63b8ff" d="M1086.12,-55.08C1086.12,-48.57 1086.12,-39.42 1086.12,-31.12"/>
<polygon fill="#63b8ff" stroke="#63b8ff" points="1089.63,-31.12 1086.13,-21.12 1082.63,-31.12 1089.63,-31.12"/>
</a>
</g>
</g>
<!-- Node13&#45;&gt;Node15 -->
<g id="edge15_Node000013_Node000015" class="edge">
<title>Node13&#45;&gt;Node15</title>
<g id="a_edge15_Node000013_Node000015"><a xlink:title=" ">
<path fill="none" stroke="#63b8ff" d="M1109.53,-54.84C1131.64,-46.31 1165.04,-33.42 1190.09,-23.76"/>
<polygon fill="#63b8ff" stroke="#63b8ff" points="1191.12,-27.11 1199.19,-20.25 1188.6,-20.58 1191.12,-27.11"/>
</a>
</g>
</g>
<!-- Node16&#45;&gt;Node13 -->
<g id="edge17_Node000016_Node000013" class="edge">
<title>Node16&#45;&gt;Node13</title>
<g id="a_edge17_Node000016_Node000013"><a xlink:title=" ">
<path fill="none" stroke="#63b8ff" d="M1113.68,-110.33C1109.35,-103.36 1103.16,-93.37 1097.74,-84.62"/>
<polygon fill="#63b8ff" stroke="#63b8ff" points="1100.73,-82.8 1092.49,-76.15 1094.78,-86.49 1100.73,-82.8"/>
</a>
</g>
</g>
<!-- Node18 -->
<g id="Node000018" class="node">
<title>Node18</title>
<g id="a_Node000018"><a xlink:href="_counter___8h.html" target="_top" xlink:title=" ">
<polygon fill="white" stroke="#666666" points="950,-74.5 834.25,-74.5 834.25,-55.25 950,-55.25 950,-74.5"/>
<text text-anchor="middle" x="892.12" y="-61" font-family="Helvetica,sans-Serif" font-size="10.00">Cpl/System/Counter_.h</text>
</a>
</g>
</g>
<!-- Node17&#45;&gt;Node18 -->
<g id="edge19_Node000017_Node000018" class="edge">
<title>Node17&#45;&gt;Node18</title>
<g id="a_edge19_Node000017_Node000018"><a xlink:title=" ">
<path fill="none" stroke="#63b8ff" d="M907.15,-110.33C904.87,-103.59 901.64,-94.02 898.76,-85.49"/>
<polygon fill="#63b8ff" stroke="#63b8ff" points="902.16,-84.65 895.65,-76.29 895.53,-86.89 902.16,-84.65"/>
</a>
</g>
</g>
<!-- Node17&#45;&gt;Node19 -->
<g id="edge21_Node000017_Node000019" class="edge">
<title>Node17&#45;&gt;Node19</title>
<g id="a_edge21_Node000017_Node000019"><a xlink:title=" ">
<path fill="none" stroke="#63b8ff" d="M861.97,-110.03C813.6,-100.9 739.01,-86.81 687.12,-77.01"/>
<polygon fill="#63b8ff" stroke="#63b8ff" points="688.05,-73.63 677.57,-75.21 686.75,-80.51 688.05,-73.63"/>
</a>
</g>
</g>
<!-- Node18&#45;&gt;Node12 -->
<g id="edge20_Node000018_Node000012" class="edge">
<title>Node18&#45;&gt;Node12</title>
<g id="a_edge20_Node000018_Node000012"><a xlink:title=" ">
<path fill="none" stroke="#63b8ff" d="M833.89,-56.53C755.18,-46.59 615.33,-28.95 533.87,-18.67"/>
<polygon fill="#63b8ff" stroke="#63b8ff" points="534.64,-15.24 524.28,-17.46 533.77,-22.18 534.64,-15.24"/>
</a>
</g>
</g>
<!-- Node20&#45;&gt;Node4 -->
<g id="edge27_Node000020_Node000004" class="edge">
<title>Node20&#45;&gt;Node4</title>
<g id="a_edge27_Node000020_Node000004"><a xlink:title=" ">
<path fill="none" stroke="#63b8ff" d="M417.5,-165.34C378.41,-155.43 316.11,-139.63 277.52,-129.85"/>
<polygon fill="#63b8ff" stroke="#63b8ff" points="278.85,-126.57 268.29,-127.51 277.13,-133.36 278.85,-126.57"/>
</a>
</g>
</g>
<!-- Node20&#45;&gt;Node8 -->
<g id="edge24_Node000020_Node000008" class="edge">
<title>Node20&#45;&gt;Node8</title>
<g id="a_edge24_Node000020_Node000008"><a xlink:title=" ">
<path fill="none" stroke="#63b8ff" d="M474.84,-165.34C495.16,-156.89 525.77,-144.15 548.93,-134.52"/>
<polygon fill="#63b8ff" stroke="#63b8ff" points="550.02,-137.86 557.91,-130.78 547.33,-131.39 550.02,-137.86"/>
</a>
</g>
</g>
<!-- Node20&#45;&gt;Node10 -->
<g id="edge23_Node000020_Node000010" class="edge">
<title>Node20&#45;&gt;Node10</title>
<g id="a_edge23_Node000020_Node000010"><a xlink:title=" ">
<path fill="none" stroke="#63b8ff" d="M458.56,-165.71C467.87,-151.65 488.3,-124.08 513.12,-110.5 529.54,-101.52 637.92,-83.56 702.96,-73.38"/>
<polygon fill="#63b8ff" stroke="#63b8ff" points="703.34,-76.86 712.68,-71.87 702.26,-69.95 703.34,-76.86"/>
</a>
</g>
</g>
<!-- Node20&#45;&gt;Node11 -->
<g id="edge25_Node000020_Node000011" class="edge">
<title>Node20&#45;&gt;Node11</title>
<g id="a_edge25_Node000020_Node000011"><a xlink:title=" ">
<path fill="none" stroke="#63b8ff" d="M411.12,-165.3C375.31,-155.49 332.38,-137.55 351.12,-110.5 362.95,-93.44 382.15,-82.89 401.72,-76.37"/>
<polygon fill="#63b8ff" stroke="#63b8ff" points="402.54,-79.78 411.13,-73.58 400.54,-73.07 402.54,-79.78"/>
</a>
</g>
</g>
<!-- Node21 -->
<g id="Node000021" class="node">
<title>Node21</title>
<g id="a_Node000021"><a xlink:href="_traverser_8h.html" target="_top" xlink:title=" ">
<polygon fill="white" stroke="#666666" points="466.12,-129.75 360.12,-129.75 360.12,-110.5 466.12,-110.5 466.12,-129.75"/>
<text text-anchor="middle" x="413.12" y="-116.25" font-family="Helvetica,sans-Serif" font-size="10.00">Cpl/Type/Traverser.h</text>
</a>
</g>
</g>
<!-- Node20&#45;&gt;Node21 -->
<g id="edge26_Node000020_Node000021" class="edge">
<title>Node20&#45;&gt;Node21</title>
<g id="a_edge26_Node000020_Node000021"><a xlink:title=" ">
<path fill="none" stroke="#63b8ff" d="M446.52,-165.58C441.17,-158.46 433.45,-148.18 426.78,-139.3"/>
<polygon fill="#63b8ff" stroke="#63b8ff" points="429.59,-137.21 420.78,-131.32 423.99,-141.42 429.59,-137.21"/>
</a>
</g>
</g>
<!-- Node22&#45;&gt;Node12 -->
<g id="edge30_Node000022_Node000012" class="edge">
<title>Node22&#45;&gt;Node12</title>
<g id="a_edge30_Node000022_Node000012"><a xlink:title=" ">
<path fill="none" stroke="#63b8ff" d="M1163.94,-56.14C1160.96,-55.82 1158.01,-55.52 1155.12,-55.25 926.98,-33.58 655.08,-19.29 533.88,-13.51"/>
<polygon fill="#63b8ff" stroke="#63b8ff" points="534.3,-10.03 524.14,-13.05 533.97,-17.02 534.3,-10.03"/>
</a>
</g>
</g>
<!-- Node22&#45;&gt;Node15 -->
<g id="edge31_Node000022_Node000015" class="edge">
<title>Node22&#45;&gt;Node15</title>
<g id="a_edge31_Node000022_Node000015"><a xlink:title=" ">
<path fill="none" stroke="#63b8ff" d="M1224.12,-55.08C1224.12,-48.57 1224.12,-39.42 1224.12,-31.12"/>
<polygon fill="#63b8ff" stroke="#63b8ff" points="1227.63,-31.12 1224.13,-21.12 1220.63,-31.12 1227.63,-31.12"/>
</a>
</g>
</g>
<!-- Node23&#45;&gt;Node22 -->
<g id="edge33_Node000023_Node000022" class="edge">
<title>Node23&#45;&gt;Node22</title>
<g id="a_edge33_Node000023_Node000022"><a xlink:title=" ">
<path fill="none" stroke="#63b8ff" d="M1101.21,-165.32C1144.06,-157.8 1195.95,-145.76 1211.12,-129.75 1222.09,-118.18 1224.93,-100 1225.26,-85.99"/>
<polygon fill="#63b8ff" stroke="#63b8ff" points="1228.76,-86.04 1225.05,-76.12 1221.76,-86.19 1228.76,-86.04"/>
</a>
</g>
</g>
<!-- Node24&#45;&gt;Node11 -->
<g id="edge40_Node000024_Node000011" class="edge">
<title>Node24&#45;&gt;Node11</title>
<g id="a_edge40_Node000024_Node000011"><a xlink:title=" ">
<path fill="none" stroke="#63b8ff" d="M140.79,-165.69C153.75,-151.62 181.51,-124.02 211.12,-110.5 244.16,-95.41 336.26,-81.83 401.2,-73.72"/>
<polygon fill="#63b8ff" stroke="#63b8ff" points="401.58,-77.2 411.08,-72.5 400.73,-70.25 401.58,-77.2"/>
</a>
</g>
</g>
<!-- Node25 -->
<g id="Node000025" class="node">
<title>Node25</title>
<g id="a_Node000025"><a xlink:href="_post_api_8h.html" target="_top" xlink:title=" ">
<polygon fill="white" stroke="#666666" points="163.88,-129.75 74.38,-129.75 74.38,-110.5 163.88,-110.5 163.88,-129.75"/>
<text text-anchor="middle" x="119.12" y="-116.25" font-family="Helvetica,sans-Serif" font-size="10.00">Cpl/Itc/PostApi.h</text>
</a>
</g>
</g>
<!-- Node24&#45;&gt;Node25 -->
<g id="edge35_Node000024_Node000025" class="edge">
<title>Node24&#45;&gt;Node25</title>
<g id="a_edge35_Node000024_Node000025"><a xlink:title=" ">
<path fill="none" stroke="#63b8ff" d="M130.81,-165.58C129.06,-158.92 126.58,-149.49 124.36,-141.03"/>
<polygon fill="#63b8ff" stroke="#63b8ff" points="127.8,-140.35 121.87,-131.57 121.03,-142.13 127.8,-140.35"/>
</a>
</g>
</g>
<!-- Node27 -->
<g id="Node000027" class="node">
<title>Node27</title>
<g id="a_Node000027"><a xlink:href="_s_list_8h.html" target="_top" xlink:title=" ">
<polygon fill="white" stroke="#666666" points="108.25,-74.5 0,-74.5 0,-55.25 108.25,-55.25 108.25,-74.5"/>
<text text-anchor="middle" x="54.12" y="-61" font-family="Helvetica,sans-Serif" font-size="10.00">Cpl/Container/SList.h</text>
</a>
</g>
</g>
<!-- Node24&#45;&gt;Node27 -->
<g id="edge38_Node000024_Node000027" class="edge">
<title>Node24&#45;&gt;Node27</title>
<g id="a_edge38_Node000024_Node000027"><a xlink:title=" ">
<path fill="none" stroke="#63b8ff" d="M110.57,-165.37C95.28,-158.08 75.96,-146.28 65.12,-129.75 56.71,-116.91 54.14,-99.62 53.57,-86.27"/>
<polygon fill="#63b8ff" stroke="#63b8ff" points="57.08,-86.44 53.53,-76.46 50.08,-86.47 57.08,-86.44"/>
</a>
</g>
</g>
<!-- Node26 -->
<g id="Node000026" class="node">
<title>Node26</title>
<g id="a_Node000026"><a xlink:href="_message_8h.html" target="_top" xlink:title=" ">
<polygon fill="white" stroke="#666666" points="336.5,-74.5 241.75,-74.5 241.75,-55.25 336.5,-55.25 336.5,-74.5"/>
<text text-anchor="middle" x="289.12" y="-61" font-family="Helvetica,sans-Serif" font-size="10.00">Cpl/Itc/Message.h</text>
</a>
</g>
</g>
<!-- Node25&#45;&gt;Node26 -->
<g id="edge36_Node000025_Node000026" class="edge">
<title>Node25&#45;&gt;Node26</title>
<g id="a_edge36_Node000025_Node000026"><a xlink:title=" ">
<path fill="none" stroke="#63b8ff" d="M147.96,-110.09C175.8,-101.37 218.2,-88.09 249.26,-78.36"/>
<polygon fill="#63b8ff" stroke="#63b8ff" points="250.2,-81.73 258.7,-75.4 248.11,-75.05 250.2,-81.73"/>
</a>
</g>
</g>
<!-- Node26&#45;&gt;Node12 -->
<g id="edge37_Node000026_Node000012" class="edge">
<title>Node26&#45;&gt;Node12</title>
<g id="a_edge37_Node000026_Node000012"><a xlink:title=" ">
<path fill="none" stroke="#63b8ff" d="M319.83,-54.84C349.73,-46.04 395.4,-32.61 428.55,-22.86"/>
<polygon fill="#63b8ff" stroke="#63b8ff" points="429.21,-26.31 437.82,-20.13 427.24,-19.59 429.21,-26.31"/>
</a>
</g>
</g>
<!-- Node27&#45;&gt;Node12 -->
<g id="edge39_Node000027_Node000012" class="edge">
<title>Node27&#45;&gt;Node12</title>
<g id="a_edge39_Node000027_Node000012"><a xlink:title=" ">
<path fill="none" stroke="#63b8ff" d="M108.51,-56.91C185.29,-47.09 325.15,-29.18 406.6,-18.76"/>
<polygon fill="#63b8ff" stroke="#63b8ff" points="406.72,-22.27 416.19,-17.53 405.83,-15.33 406.72,-22.27"/>
</a>
</g>
</g>
<!-- Node28&#45;&gt;Node4 -->
<g id="edge43_Node000028_Node000004" class="edge">
<title>Node28&#45;&gt;Node4</title>
<g id="a_edge43_Node000028_Node000004"><a xlink:title=" ">
<path fill="none" stroke="#63b8ff" d="M243.81,-331.31C241.58,-322.37 238.38,-308.08 237.12,-295.5 231.57,-239.89 237.14,-173.86 240.68,-141.32"/>
<polygon fill="#63b8ff" stroke="#63b8ff" points="244.12,-142.07 241.78,-131.73 237.17,-141.27 244.12,-142.07"/>
</a>
</g>
</g>
<!-- Node28&#45;&gt;Node5 -->
<g id="edge42_Node000028_Node000005" class="edge">
<title>Node28&#45;&gt;Node5</title>
<g id="a_edge42_Node000028_Node000005"><a xlink:title=" ">
<path fill="none" stroke="#63b8ff" d="M256.3,-331.09C264.89,-323.47 277.39,-312.37 287.73,-303.2"/>
<polygon fill="#63b8ff" stroke="#63b8ff" points="289.81,-306.04 294.97,-296.78 285.16,-300.8 289.81,-306.04"/>
</a>
</g>
</g>
</g>
</svg>
