<?xml version="1.0" encoding="UTF-8" standalone="no"?>
<!DOCTYPE svg PUBLIC "-//W3C//DTD SVG 1.1//EN"
 "http://www.w3.org/Graphics/SVG/1.1/DTD/svg11.dtd">
<!-- Generated by graphviz version 2.43.0 (0)
 -->
<!-- Title: Ajax/ScreenMgr/MockScreen.h Pages: 1 -->
<svg width="393pt" height="203pt"
 viewBox="0.00 0.00 392.50 203.00" xmlns="http://www.w3.org/2000/svg" xmlns:xlink="http://www.w3.org/1999/xlink">
<g id="graph0" class="graph" transform="scale(1 1) rotate(0) translate(4 199)">
<title>Ajax/ScreenMgr/MockScreen.h</title>
<!-- Node1 -->
<g id="Node000001" class="node">
<title>Node1</title>
<g id="a_Node000001"><a xlink:title=" ">
<polygon fill="#999999" stroke="#666666" points="300,-195 136,-195 136,-176 300,-176 300,-195"/>
<text text-anchor="middle" x="218" y="-183" font-family="Helvetica,sans-Serif" font-size="10.00">Ajax/ScreenMgr/MockScreen.h</text>
</a>
</g>
</g>
<!-- Node2 -->
<g id="Node000002" class="node">
<title>Node2</title>
<g id="a_Node000002"><a xlink:href="_screen_api_8h.html" target="_top" xlink:title=" ">
<polygon fill="white" stroke="#666666" points="208,-134.5 54,-134.5 54,-115.5 208,-115.5 208,-134.5"/>
<text text-anchor="middle" x="131" y="-122.5" font-family="Helvetica,sans-Serif" font-size="10.00">Ajax/ScreenMgr/ScreenApi.h</text>
</a>
</g>
</g>
<!-- Node1&#45;&gt;Node2 -->
<g id="edge1_Node000001_Node000002" class="edge">
<title>Node1&#45;&gt;Node2</title>
<g id="a_edge1_Node000001_Node000002"><a xlink:title=" ">
<path fill="none" stroke="#63b8ff" d="M205.16,-175.87C191.28,-166.54 168.93,-151.51 152.39,-140.38"/>
<polygon fill="#63b8ff" stroke="#63b8ff" points="154.14,-137.34 143.89,-134.67 150.24,-143.15 154.14,-137.34"/>
</a>
</g>
</g>
<!-- Node9 -->
<g id="Node000009" class="node">
<title>Node9</title>
<g id="a_Node000009"><a xlink:href="_static_screen_api_8h.html" target="_top" xlink:title=" ">
<polygon fill="white" stroke="#666666" points="383.5,-140 226.5,-140 226.5,-110 383.5,-110 383.5,-140"/>
<text text-anchor="start" x="234.5" y="-128" font-family="Helvetica,sans-Serif" font-size="10.00">Ajax/ScreenMgr/StaticScreen</text>
<text text-anchor="middle" x="305" y="-117" font-family="Helvetica,sans-Serif" font-size="10.00">Api.h</text>
</a>
</g>
</g>
<!-- Node1&#45;&gt;Node9 -->
<g id="edge8_Node000001_Node000009" class="edge">
<title>Node1&#45;&gt;Node9</title>
<g id="a_edge8_Node000001_Node000009"><a xlink:title=" ">
<path fill="none" stroke="#63b8ff" d="M230.84,-175.87C242.53,-168 260.25,-156.09 275.43,-145.89"/>
<polygon fill="#63b8ff" stroke="#63b8ff" points="277.66,-148.6 284.01,-140.11 273.76,-142.79 277.66,-148.6"/>
</a>
</g>
</g>
<!-- Node3 -->
<g id="Node000003" class="node">
<title>Node3</title>
<g id="a_Node000003"><a xlink:href="_event_8h.html" target="_top" xlink:title=" ">
<polygon fill="white" stroke="#666666" points="197.5,-74 64.5,-74 64.5,-55 197.5,-55 197.5,-74"/>
<text text-anchor="middle" x="131" y="-62" font-family="Helvetica,sans-Serif" font-size="10.00">Ajax/ScreenMgr/Event.h</text>
</a>
</g>
</g>
<!-- Node2&#45;&gt;Node3 -->
<g id="edge2_Node000002_Node000003" class="edge">
<title>Node2&#45;&gt;Node3</title>
<g id="a_edge2_Node000002_Node000003"><a xlink:title=" ">
<path fill="none" stroke="#63b8ff" d="M131,-115.37C131,-107.25 131,-94.81 131,-84.39"/>
<polygon fill="#63b8ff" stroke="#63b8ff" points="134.5,-84.17 131,-74.17 127.5,-84.17 134.5,-84.17"/>
</a>
</g>
</g>
<!-- Node6 -->
<g id="Node000006" class="node">
<title>Node6</title>
<g id="a_Node000006"><a xlink:href="_elapsed_time_8h.html" target="_top" xlink:title=" ">
<polygon fill="white" stroke="#666666" points="370.5,-74 223.5,-74 223.5,-55 370.5,-55 370.5,-74"/>
<text text-anchor="middle" x="297" y="-62" font-family="Helvetica,sans-Serif" font-size="10.00">Cpl/System/ElapsedTime.h</text>
</a>
</g>
</g>
<!-- Node2&#45;&gt;Node6 -->
<g id="edge5_Node000002_Node000006" class="edge">
<title>Node2&#45;&gt;Node6</title>
<g id="a_edge5_Node000002_Node000006"><a xlink:title=" ">
<path fill="none" stroke="#63b8ff" d="M155.14,-115.49C183.54,-105.49 230.88,-88.8 262.99,-77.49"/>
<polygon fill="#63b8ff" stroke="#63b8ff" points="264.56,-80.64 272.83,-74.02 262.24,-74.04 264.56,-80.64"/>
</a>
</g>
</g>
<!-- Node4 -->
<g id="Node000004" class="node">
<title>Node4</title>
<g id="a_Node000004"><a xlink:title=" ">
<polygon fill="#e0e0e0" stroke="#999999" points="92,-19 0,-19 0,0 92,0 92,-19"/>
<text text-anchor="middle" x="46" y="-7" font-family="Helvetica,sans-Serif" font-size="10.00">colony_config.h</text>
</a>
</g>
</g>
<!-- Node3&#45;&gt;Node4 -->
<g id="edge3_Node000003_Node000004" class="edge">
<title>Node3&#45;&gt;Node4</title>
<g id="a_edge3_Node000003_Node000004"><a xlink:title=" ">
<path fill="none" stroke="#63b8ff" d="M117.34,-54.98C104.16,-46.77 83.97,-34.18 68.43,-24.49"/>
<polygon fill="#63b8ff" stroke="#63b8ff" points="70.24,-21.49 59.91,-19.17 66.54,-27.43 70.24,-21.49"/>
</a>
</g>
</g>
<!-- Node5 -->
<g id="Node000005" class="node">
<title>Node5</title>
<g id="a_Node000005"><a xlink:title=" ">
<polygon fill="#e0e0e0" stroke="#999999" points="195.5,-19 110.5,-19 110.5,0 195.5,0 195.5,-19"/>
<text text-anchor="middle" x="153" y="-7" font-family="Helvetica,sans-Serif" font-size="10.00">colony_map.h</text>
</a>
</g>
</g>
<!-- Node3&#45;&gt;Node5 -->
<g id="edge4_Node000003_Node000005" class="edge">
<title>Node3&#45;&gt;Node5</title>
<g id="a_edge4_Node000003_Node000005"><a xlink:title=" ">
<path fill="none" stroke="#63b8ff" d="M134.63,-54.75C137.58,-47.65 141.83,-37.4 145.51,-28.56"/>
<polygon fill="#63b8ff" stroke="#63b8ff" points="148.83,-29.67 149.43,-19.09 142.37,-26.98 148.83,-29.67"/>
</a>
</g>
</g>
<!-- Node7 -->
<g id="Node000007" class="node">
<title>Node7</title>
<g id="a_Node000007"><a xlink:title=" ">
<polygon fill="#e0e0e0" stroke="#999999" points="301.5,-19 248.5,-19 248.5,0 301.5,0 301.5,-19"/>
<text text-anchor="middle" x="275" y="-7" font-family="Helvetica,sans-Serif" font-size="10.00">stdint.h</text>
</a>
</g>
</g>
<!-- Node6&#45;&gt;Node7 -->
<g id="edge6_Node000006_Node000007" class="edge">
<title>Node6&#45;&gt;Node7</title>
<g id="a_edge6_Node000006_Node000007"><a xlink:title=" ">
<path fill="none" stroke="#63b8ff" d="M293.37,-54.75C290.42,-47.65 286.17,-37.4 282.49,-28.56"/>
<polygon fill="#63b8ff" stroke="#63b8ff" points="285.63,-26.98 278.57,-19.09 279.17,-29.67 285.63,-26.98"/>
</a>
</g>
</g>
<!-- Node8 -->
<g id="Node000008" class="node">
<title>Node8</title>
<g id="a_Node000008"><a xlink:title=" ">
<polygon fill="#e0e0e0" stroke="#999999" points="384.5,-19 319.5,-19 319.5,0 384.5,0 384.5,-19"/>
<text text-anchor="middle" x="352" y="-7" font-family="Helvetica,sans-Serif" font-size="10.00">memory.h</text>
</a>
</g>
</g>
<!-- Node6&#45;&gt;Node8 -->
<g id="edge7_Node000006_Node000008" class="edge">
<title>Node6&#45;&gt;Node8</title>
<g id="a_edge7_Node000006_Node000008"><a xlink:title=" ">
<path fill="none" stroke="#63b8ff" d="M306.08,-54.75C314.09,-47.03 325.96,-35.6 335.62,-26.28"/>
<polygon fill="#63b8ff" stroke="#63b8ff" points="338.31,-28.55 343.09,-19.09 333.46,-23.51 338.31,-28.55"/>
</a>
</g>
</g>
<!-- Node9&#45;&gt;Node6 -->
<g id="edge9_Node000009_Node000006" class="edge">
<title>Node9&#45;&gt;Node6</title>
<g id="a_edge9_Node000009_Node000006"><a xlink:title=" ">
<path fill="none" stroke="#63b8ff" d="M303.06,-109.84C302.02,-102.21 300.72,-92.7 299.59,-84.45"/>
<polygon fill="#63b8ff" stroke="#63b8ff" points="303.02,-83.7 298.2,-74.27 296.09,-84.65 303.02,-83.7"/>
</a>
</g>
</g>
</g>
</svg>
