<?xml version="1.0" encoding="UTF-8" standalone="no"?>
<!DOCTYPE svg PUBLIC "-//W3C//DTD SVG 1.1//EN"
 "http://www.w3.org/Graphics/SVG/1.1/DTD/svg11.dtd">
<!-- Generated by graphviz version 9.0.0 (20230911.1827)
 -->
<!-- Title: Ajax/ScreenMgr/MockScreen.h Pages: 1 -->
<svg width="358pt" height="204pt"
 viewBox="0.00 0.00 358.12 204.25" xmlns="http://www.w3.org/2000/svg" xmlns:xlink="http://www.w3.org/1999/xlink">
<g id="graph0" class="graph" transform="scale(1 1) rotate(0) translate(4 200.25)">
<title>Ajax/ScreenMgr/MockScreen.h</title>
<!-- Node1 -->
<g id="Node000001" class="node">
<title>Node1</title>
<g id="a_Node000001"><a xlink:title=" ">
<polygon fill="#999999" stroke="#666666" points="273.12,-196.25 122.88,-196.25 122.88,-177 273.12,-177 273.12,-196.25"/>
<text text-anchor="middle" x="198" y="-182.75" font-family="Helvetica,sans-Serif" font-size="10.00">Ajax/ScreenMgr/MockScreen.h</text>
</a>
</g>
</g>
<!-- Node2 -->
<g id="Node000002" class="node">
<title>Node2</title>
<g id="a_Node000002"><a xlink:href="_screen_api_8h.html" target="_top" xlink:title=" ">
<polygon fill="white" stroke="#666666" points="188.25,-135.38 47.75,-135.38 47.75,-116.12 188.25,-116.12 188.25,-135.38"/>
<text text-anchor="middle" x="118" y="-121.88" font-family="Helvetica,sans-Serif" font-size="10.00">Ajax/ScreenMgr/ScreenApi.h</text>
</a>
</g>
</g>
<!-- Node1&#45;&gt;Node2 -->
<g id="edge1_Node000001_Node000002" class="edge">
<title>Node1&#45;&gt;Node2</title>
<g id="a_edge1_Node000001_Node000002"><a xlink:title=" ">
<path fill="none" stroke="#63b8ff" d="M185.85,-176.68C173.52,-167.61 154.17,-153.37 139.28,-142.41"/>
<polygon fill="#63b8ff" stroke="#63b8ff" points="141.61,-139.78 131.48,-136.67 137.46,-145.42 141.61,-139.78"/>
</a>
</g>
</g>
<!-- Node9 -->
<g id="Node000009" class="node">
<title>Node9</title>
<g id="a_Node000009"><a xlink:href="_static_screen_api_8h.html" target="_top" xlink:title=" ">
<polygon fill="white" stroke="#666666" points="350.12,-141 205.88,-141 205.88,-110.5 350.12,-110.5 350.12,-141"/>
<text text-anchor="start" x="213.88" y="-127.5" font-family="Helvetica,sans-Serif" font-size="10.00">Ajax/ScreenMgr/StaticScreen</text>
<text text-anchor="middle" x="278" y="-116.25" font-family="Helvetica,sans-Serif" font-size="10.00">Api.h</text>
</a>
</g>
</g>
<!-- Node1&#45;&gt;Node9 -->
<g id="edge8_Node000001_Node000009" class="edge">
<title>Node1&#45;&gt;Node9</title>
<g id="a_edge8_Node000001_Node000009"><a xlink:title=" ">
<path fill="none" stroke="#63b8ff" d="M210.15,-176.68C220.52,-169.05 235.85,-157.77 249.31,-147.86"/>
<polygon fill="#63b8ff" stroke="#63b8ff" points="251.06,-150.93 257.03,-142.18 246.91,-145.29 251.06,-150.93"/>
</a>
</g>
</g>
<!-- Node3 -->
<g id="Node000003" class="node">
<title>Node3</title>
<g id="a_Node000003"><a xlink:href="_event_8h.html" target="_top" xlink:title=" ">
<polygon fill="white" stroke="#666666" points="178.12,-74.5 57.88,-74.5 57.88,-55.25 178.12,-55.25 178.12,-74.5"/>
<text text-anchor="middle" x="118" y="-61" font-family="Helvetica,sans-Serif" font-size="10.00">Ajax/ScreenMgr/Event.h</text>
</a>
</g>
</g>
<!-- Node2&#45;&gt;Node3 -->
<g id="edge2_Node000002_Node000003" class="edge">
<title>Node2&#45;&gt;Node3</title>
<g id="a_edge2_Node000002_Node000003"><a xlink:title=" ">
<path fill="none" stroke="#63b8ff" d="M118,-115.81C118,-108.03 118,-96.45 118,-86.41"/>
<polygon fill="#63b8ff" stroke="#63b8ff" points="121.5,-86.41 118,-76.41 114.5,-86.41 121.5,-86.41"/>
</a>
</g>
</g>
<!-- Node6 -->
<g id="Node000006" class="node">
<title>Node6</title>
<g id="a_Node000006"><a xlink:href="_elapsed_time_8h.html" target="_top" xlink:title=" ">
<polygon fill="white" stroke="#666666" points="336.5,-74.5 203.5,-74.5 203.5,-55.25 336.5,-55.25 336.5,-74.5"/>
<text text-anchor="middle" x="270" y="-61" font-family="Helvetica,sans-Serif" font-size="10.00">Cpl/System/ElapsedTime.h</text>
</a>
</g>
</g>
<!-- Node2&#45;&gt;Node6 -->
<g id="edge5_Node000002_Node000006" class="edge">
<title>Node2&#45;&gt;Node6</title>
<g id="a_edge5_Node000002_Node000006"><a xlink:title=" ">
<path fill="none" stroke="#63b8ff" d="M141.42,-115.68C166.74,-105.87 207.36,-90.14 236.15,-78.98"/>
<polygon fill="#63b8ff" stroke="#63b8ff" points="237.08,-82.38 245.15,-75.5 234.56,-75.85 237.08,-82.38"/>
</a>
</g>
</g>
<!-- Node4 -->
<g id="Node000004" class="node">
<title>Node4</title>
<g id="a_Node000004"><a xlink:title=" ">
<polygon fill="#e0e0e0" stroke="#999999" points="82,-19.25 0,-19.25 0,0 82,0 82,-19.25"/>
<text text-anchor="middle" x="41" y="-5.75" font-family="Helvetica,sans-Serif" font-size="10.00">colony_config.h</text>
</a>
</g>
</g>
<!-- Node3&#45;&gt;Node4 -->
<g id="edge3_Node000003_Node000004" class="edge">
<title>Node3&#45;&gt;Node4</title>
<g id="a_edge3_Node000003_Node000004"><a xlink:title=" ">
<path fill="none" stroke="#63b8ff" d="M104.94,-54.84C93.54,-46.96 76.77,-35.36 63.26,-26.02"/>
<polygon fill="#63b8ff" stroke="#63b8ff" points="65.59,-23.37 55.37,-20.56 61.6,-29.13 65.59,-23.37"/>
</a>
</g>
</g>
<!-- Node5 -->
<g id="Node000005" class="node">
<title>Node5</title>
<g id="a_Node000005"><a xlink:title=" ">
<polygon fill="#e0e0e0" stroke="#999999" points="175.62,-19.25 100.38,-19.25 100.38,0 175.62,0 175.62,-19.25"/>
<text text-anchor="middle" x="138" y="-5.75" font-family="Helvetica,sans-Serif" font-size="10.00">colony_map.h</text>
</a>
</g>
</g>
<!-- Node3&#45;&gt;Node5 -->
<g id="edge4_Node000003_Node000005" class="edge">
<title>Node3&#45;&gt;Node5</title>
<g id="a_edge4_Node000003_Node000005"><a xlink:title=" ">
<path fill="none" stroke="#63b8ff" d="M121.3,-55.08C123.83,-48.34 127.43,-38.77 130.63,-30.24"/>
<polygon fill="#63b8ff" stroke="#63b8ff" points="133.85,-31.62 134.09,-21.03 127.3,-29.16 133.85,-31.62"/>
</a>
</g>
</g>
<!-- Node7 -->
<g id="Node000007" class="node">
<title>Node7</title>
<g id="a_Node000007"><a xlink:title=" ">
<polygon fill="#e0e0e0" stroke="#999999" points="273.75,-19.25 226.25,-19.25 226.25,0 273.75,0 273.75,-19.25"/>
<text text-anchor="middle" x="250" y="-5.75" font-family="Helvetica,sans-Serif" font-size="10.00">stdint.h</text>
</a>
</g>
</g>
<!-- Node6&#45;&gt;Node7 -->
<g id="edge6_Node000006_Node000007" class="edge">
<title>Node6&#45;&gt;Node7</title>
<g id="a_edge6_Node000006_Node000007"><a xlink:title=" ">
<path fill="none" stroke="#63b8ff" d="M266.7,-55.08C264.17,-48.34 260.57,-38.77 257.37,-30.24"/>
<polygon fill="#63b8ff" stroke="#63b8ff" points="260.7,-29.16 253.91,-21.03 254.15,-31.62 260.7,-29.16"/>
</a>
</g>
</g>
<!-- Node8 -->
<g id="Node000008" class="node">
<title>Node8</title>
<g id="a_Node000008"><a xlink:title=" ">
<polygon fill="#e0e0e0" stroke="#999999" points="350,-19.25 292,-19.25 292,0 350,0 350,-19.25"/>
<text text-anchor="middle" x="321" y="-5.75" font-family="Helvetica,sans-Serif" font-size="10.00">memory.h</text>
</a>
</g>
</g>
<!-- Node6&#45;&gt;Node8 -->
<g id="edge7_Node000006_Node000008" class="edge">
<title>Node6&#45;&gt;Node8</title>
<g id="a_edge7_Node000006_Node000008"><a xlink:title=" ">
<path fill="none" stroke="#63b8ff" d="M278.42,-55.08C285.54,-47.65 295.94,-36.79 304.69,-27.66"/>
<polygon fill="#63b8ff" stroke="#63b8ff" points="306.96,-30.35 311.35,-20.7 301.9,-25.5 306.96,-30.35"/>
</a>
</g>
</g>
<!-- Node9&#45;&gt;Node6 -->
<g id="edge9_Node000009_Node000006" class="edge">
<title>Node9&#45;&gt;Node6</title>
<g id="a_edge9_Node000009_Node000006"><a xlink:title=" ">
<path fill="none" stroke="#63b8ff" d="M276.02,-110.2C275.04,-102.96 273.83,-94.09 272.76,-86.19"/>
<polygon fill="#63b8ff" stroke="#63b8ff" points="276.25,-85.89 271.44,-76.45 269.32,-86.83 276.25,-85.89"/>
</a>
</g>
</g>
</g>
</svg>
