<?xml version="1.0" encoding="UTF-8" standalone="no"?>
<!DOCTYPE svg PUBLIC "-//W3C//DTD SVG 1.1//EN"
 "http://www.w3.org/Graphics/SVG/1.1/DTD/svg11.dtd">
<!-- Generated by graphviz version 2.43.0 (0)
 -->
<!-- Title: Ajax/Dm/MpFanMode.h Pages: 1 -->
<svg width="2020pt" height="467pt"
 viewBox="0.00 0.00 2020.00 467.00" xmlns="http://www.w3.org/2000/svg" xmlns:xlink="http://www.w3.org/1999/xlink">
<g id="graph0" class="graph" transform="scale(1 1) rotate(0) translate(4 463)">
<title>Ajax/Dm/MpFanMode.h</title>
<!-- Node1 -->
<g id="Node000001" class="node">
<title>Node1</title>
<g id="a_Node000001"><a xlink:title=" ">
<polygon fill="#999999" stroke="#666666" points="1454.5,-459 1325.5,-459 1325.5,-440 1454.5,-440 1454.5,-459"/>
<text text-anchor="middle" x="1390" y="-447" font-family="Helvetica,sans-Serif" font-size="10.00">Ajax/Dm/MpFanMode.h</text>
</a>
</g>
</g>
<!-- Node2 -->
<g id="Node000002" class="node">
<title>Node2</title>
<g id="a_Node000002"><a xlink:href="_fan_mode_8h.html" target="_top" xlink:title=" ">
<polygon fill="white" stroke="#666666" points="1521.5,-404 1402.5,-404 1402.5,-385 1521.5,-385 1521.5,-404"/>
<text text-anchor="middle" x="1462" y="-392" font-family="Helvetica,sans-Serif" font-size="10.00">Ajax/Type/FanMode.h</text>
</a>
</g>
</g>
<!-- Node1&#45;&gt;Node2 -->
<g id="edge1_Node000001_Node000002" class="edge">
<title>Node1&#45;&gt;Node2</title>
<g id="a_edge1_Node000001_Node000002"><a xlink:title=" ">
<path fill="none" stroke="#63b8ff" d="M1401.57,-439.98C1412.42,-432 1428.88,-419.88 1441.88,-410.31"/>
<polygon fill="#63b8ff" stroke="#63b8ff" points="1444.24,-412.92 1450.22,-404.17 1440.09,-407.28 1444.24,-412.92"/>
</a>
</g>
</g>
<!-- Node5 -->
<g id="Node000005" class="node">
<title>Node5</title>
<g id="a_Node000005"><a xlink:href="_enum___8h.html" target="_top" xlink:title=" ">
<polygon fill="white" stroke="#666666" points="1380,-404 1264,-404 1264,-385 1380,-385 1380,-404"/>
<text text-anchor="middle" x="1322" y="-392" font-family="Helvetica,sans-Serif" font-size="10.00">Cpl/Dm/Mp/Enum_.h</text>
</a>
</g>
</g>
<!-- Node1&#45;&gt;Node5 -->
<g id="edge4_Node000001_Node000005" class="edge">
<title>Node1&#45;&gt;Node5</title>
<g id="a_edge4_Node000001_Node000005"><a xlink:title=" ">
<path fill="none" stroke="#63b8ff" d="M1379.07,-439.98C1368.92,-432.07 1353.58,-420.11 1341.35,-410.58"/>
<polygon fill="#63b8ff" stroke="#63b8ff" points="1343.16,-407.56 1333.12,-404.17 1338.86,-413.08 1343.16,-407.56"/>
</a>
</g>
</g>
<!-- Node3 -->
<g id="Node000003" class="node">
<title>Node3</title>
<g id="a_Node000003"><a xlink:href="enum_8h_source.html" target="_top" xlink:title=" ">
<polygon fill="white" stroke="#666666" points="1788,-349 1690,-349 1690,-330 1788,-330 1788,-349"/>
<text text-anchor="middle" x="1739" y="-337" font-family="Helvetica,sans-Serif" font-size="10.00">Cpl/Type/enum.h</text>
</a>
</g>
</g>
<!-- Node2&#45;&gt;Node3 -->
<g id="edge2_Node000002_Node000003" class="edge">
<title>Node2&#45;&gt;Node3</title>
<g id="a_edge2_Node000002_Node000003"><a xlink:title=" ">
<path fill="none" stroke="#63b8ff" d="M1506.5,-384.98C1554.82,-375.74 1632.04,-360.97 1684.09,-351.01"/>
<polygon fill="#63b8ff" stroke="#63b8ff" points="1684.98,-354.4 1694.15,-349.08 1683.67,-347.52 1684.98,-354.4"/>
</a>
</g>
</g>
<!-- Node4 -->
<g id="Node000004" class="node">
<title>Node4</title>
<g id="a_Node000004"><a xlink:title=" ">
<polygon fill="#e0e0e0" stroke="#999999" points="1982,-19 1890,-19 1890,0 1982,0 1982,-19"/>
<text text-anchor="middle" x="1936" y="-7" font-family="Helvetica,sans-Serif" font-size="10.00">colony_config.h</text>
</a>
</g>
</g>
<!-- Node3&#45;&gt;Node4 -->
<g id="edge3_Node000003_Node000004" class="edge">
<title>Node3&#45;&gt;Node4</title>
<g id="a_edge3_Node000003_Node000004"><a xlink:title=" ">
<path fill="none" stroke="#63b8ff" d="M1785.93,-329.95C1863.99,-314.39 2012,-278.54 2012,-230.5 2012,-230.5 2012,-230.5 2012,-118.5 2012,-79.47 1978.39,-44.58 1955.87,-25.6"/>
<polygon fill="#63b8ff" stroke="#63b8ff" points="1957.85,-22.7 1947.88,-19.12 1953.44,-28.14 1957.85,-22.7"/>
</a>
</g>
</g>
<!-- Node6 -->
<g id="Node000006" class="node">
<title>Node6</title>
<g id="a_Node000006"><a xlink:href="_model_point_common___8h.html" target="_top" xlink:title=" ">
<polygon fill="white" stroke="#666666" points="1399.5,-349 1230.5,-349 1230.5,-330 1399.5,-330 1399.5,-349"/>
<text text-anchor="middle" x="1315" y="-337" font-family="Helvetica,sans-Serif" font-size="10.00">Cpl/Dm/ModelPointCommon_.h</text>
</a>
</g>
</g>
<!-- Node5&#45;&gt;Node6 -->
<g id="edge5_Node000005_Node000006" class="edge">
<title>Node5&#45;&gt;Node6</title>
<g id="a_edge5_Node000005_Node000006"><a xlink:title=" ">
<path fill="none" stroke="#63b8ff" d="M1320.84,-384.75C1319.93,-377.8 1318.61,-367.85 1317.46,-359.13"/>
<polygon fill="#63b8ff" stroke="#63b8ff" points="1320.91,-358.54 1316.13,-349.09 1313.97,-359.46 1320.91,-358.54"/>
</a>
</g>
</g>
<!-- Node7 -->
<g id="Node000007" class="node">
<title>Node7</title>
<g id="a_Node000007"><a xlink:href="_model_point_8h.html" target="_top" xlink:title=" ">
<polygon fill="white" stroke="#666666" points="1462.5,-239 1343.5,-239 1343.5,-220 1462.5,-220 1462.5,-239"/>
<text text-anchor="middle" x="1403" y="-227" font-family="Helvetica,sans-Serif" font-size="10.00">Cpl/Dm/ModelPoint.h</text>
</a>
</g>
</g>
<!-- Node6&#45;&gt;Node7 -->
<g id="edge6_Node000006_Node000007" class="edge">
<title>Node6&#45;&gt;Node7</title>
<g id="a_edge6_Node000006_Node000007"><a xlink:title=" ">
<path fill="none" stroke="#63b8ff" d="M1322.2,-329.66C1336.91,-311.61 1370.59,-270.28 1389.49,-247.08"/>
<polygon fill="#63b8ff" stroke="#63b8ff" points="1392.34,-249.12 1395.95,-239.16 1386.91,-244.7 1392.34,-249.12"/>
</a>
</g>
</g>
<!-- Node14 -->
<g id="Node000014" class="node">
<title>Node14</title>
<g id="a_Node000014"><a xlink:title=" ">
<polygon fill="#e0e0e0" stroke="#999999" points="313.5,-19 260.5,-19 260.5,0 313.5,0 313.5,-19"/>
<text text-anchor="middle" x="287" y="-7" font-family="Helvetica,sans-Serif" font-size="10.00">stdint.h</text>
</a>
</g>
</g>
<!-- Node6&#45;&gt;Node14 -->
<g id="edge67_Node000006_Node000014" class="edge">
<title>Node6&#45;&gt;Node14</title>
<g id="a_edge67_Node000006_Node000014"><a xlink:title=" ">
<path fill="none" stroke="#63b8ff" d="M1230.36,-338.01C1005.92,-336.24 399.31,-328.33 202,-294 109.28,-277.87 0,-324.61 0,-230.5 0,-230.5 0,-230.5 0,-118.5 0,-82.02 20.64,-73.63 52,-55 114.53,-17.86 201.5,-10.71 250.2,-9.9"/>
<polygon fill="#63b8ff" stroke="#63b8ff" points="250.3,-13.4 260.27,-9.81 250.24,-6.4 250.3,-13.4"/>
</a>
</g>
</g>
<!-- Node20 -->
<g id="Node000020" class="node">
<title>Node20</title>
<g id="a_Node000020"><a xlink:href="_model_database_8h.html" target="_top" xlink:title=" ">
<polygon fill="white" stroke="#666666" points="1726.5,-294 1585.5,-294 1585.5,-275 1726.5,-275 1726.5,-294"/>
<text text-anchor="middle" x="1656" y="-282" font-family="Helvetica,sans-Serif" font-size="10.00">Cpl/Dm/ModelDatabase.h</text>
</a>
</g>
</g>
<!-- Node6&#45;&gt;Node20 -->
<g id="edge26_Node000006_Node000020" class="edge">
<title>Node6&#45;&gt;Node20</title>
<g id="a_edge26_Node000006_Node000020"><a xlink:title=" ">
<path fill="none" stroke="#63b8ff" d="M1369.79,-329.98C1430.1,-320.61 1526.99,-305.55 1591.07,-295.59"/>
<polygon fill="#63b8ff" stroke="#63b8ff" points="1591.72,-299.03 1601.07,-294.04 1590.65,-292.12 1591.72,-299.03"/>
</a>
</g>
</g>
<!-- Node24 -->
<g id="Node000024" class="node">
<title>Node24</title>
<g id="a_Node000024"><a xlink:href="_subscriber_8h.html" target="_top" xlink:title=" ">
<polygon fill="white" stroke="#666666" points="326.5,-294 211.5,-294 211.5,-275 326.5,-275 326.5,-294"/>
<text text-anchor="middle" x="269" y="-282" font-family="Helvetica,sans-Serif" font-size="10.00">Cpl/Dm/Subscriber.h</text>
</a>
</g>
</g>
<!-- Node6&#45;&gt;Node24 -->
<g id="edge35_Node000006_Node000024" class="edge">
<title>Node6&#45;&gt;Node24</title>
<g id="a_edge35_Node000006_Node000024"><a xlink:title=" ">
<path fill="none" stroke="#63b8ff" d="M1230.19,-336.67C1060.9,-332.58 669.14,-320.83 341,-294 339.69,-293.89 338.38,-293.78 337.05,-293.66"/>
<polygon fill="#63b8ff" stroke="#63b8ff" points="337.02,-290.15 326.73,-292.69 336.36,-297.11 337.02,-290.15"/>
</a>
</g>
</g>
<!-- Node34 -->
<g id="Node000034" class="node">
<title>Node34</title>
<g id="a_Node000034"><a xlink:href="_d_list_8h.html" target="_top" xlink:title=" ">
<polygon fill="white" stroke="#666666" points="365.5,-74 246.5,-74 246.5,-55 365.5,-55 365.5,-74"/>
<text text-anchor="middle" x="306" y="-62" font-family="Helvetica,sans-Serif" font-size="10.00">Cpl/Container/DList.h</text>
</a>
</g>
</g>
<!-- Node6&#45;&gt;Node34 -->
<g id="edge66_Node000006_Node000034" class="edge">
<title>Node6&#45;&gt;Node34</title>
<g id="a_edge66_Node000006_Node000034"><a xlink:title=" ">
<path fill="none" stroke="#63b8ff" d="M1230.39,-335.82C1073.12,-328.13 727.79,-298.46 464,-184 405.28,-158.52 348.18,-107.18 321.56,-81.25"/>
<polygon fill="#63b8ff" stroke="#63b8ff" points="323.88,-78.63 314.31,-74.08 318.96,-83.6 323.88,-78.63"/>
</a>
</g>
</g>
<!-- Node37 -->
<g id="Node000037" class="node">
<title>Node37</title>
<g id="a_Node000037"><a xlink:title=" ">
<polygon fill="#e0e0e0" stroke="#999999" points="1435.5,-129 1382.5,-129 1382.5,-110 1435.5,-110 1435.5,-129"/>
<text text-anchor="middle" x="1409" y="-117" font-family="Helvetica,sans-Serif" font-size="10.00">stdlib.h</text>
</a>
</g>
</g>
<!-- Node6&#45;&gt;Node37 -->
<g id="edge68_Node000006_Node000037" class="edge">
<title>Node6&#45;&gt;Node37</title>
<g id="a_edge68_Node000006_Node000037"><a xlink:title=" ">
<path fill="none" stroke="#63b8ff" d="M1315.09,-329.78C1315.6,-309.63 1318.54,-258.57 1335,-220 1349.06,-187.06 1376.1,-154.91 1393.31,-136.43"/>
<polygon fill="#63b8ff" stroke="#63b8ff" points="1395.87,-138.83 1400.23,-129.17 1390.8,-134 1395.87,-138.83"/>
</a>
</g>
</g>
<!-- Node7&#45;&gt;Node4 -->
<g id="edge7_Node000007_Node000004" class="edge">
<title>Node7&#45;&gt;Node4</title>
<g id="a_edge7_Node000007_Node000004"><a xlink:title=" ">
<path fill="none" stroke="#63b8ff" d="M1462.68,-223.42C1563.3,-214.6 1758.68,-196.19 1788,-184 1860.51,-153.85 1909.51,-66.26 1927.9,-28.35"/>
<polygon fill="#63b8ff" stroke="#63b8ff" points="1931.18,-29.6 1932.27,-19.06 1924.84,-26.62 1931.18,-29.6"/>
</a>
</g>
</g>
<!-- Node8 -->
<g id="Node000008" class="node">
<title>Node8</title>
<g id="a_Node000008"><a xlink:href="_item_8h.html" target="_top" xlink:title=" ">
<polygon fill="white" stroke="#666666" points="996.5,-19 879.5,-19 879.5,0 996.5,0 996.5,-19"/>
<text text-anchor="middle" x="938" y="-7" font-family="Helvetica,sans-Serif" font-size="10.00">Cpl/Container/Item.h</text>
</a>
</g>
</g>
<!-- Node7&#45;&gt;Node8 -->
<g id="edge8_Node000007_Node000008" class="edge">
<title>Node7&#45;&gt;Node8</title>
<g id="a_edge8_Node000007_Node000008"><a xlink:title=" ">
<path fill="none" stroke="#63b8ff" d="M1407.17,-219.87C1417.03,-199.29 1441.22,-147.65 1445,-129 1446.68,-120.72 1450.37,-116.52 1445,-110 1390.26,-43.47 1132.19,-20.76 1006.76,-13.57"/>
<polygon fill="#63b8ff" stroke="#63b8ff" points="1006.69,-10.06 996.51,-13 1006.3,-17.05 1006.69,-10.06"/>
</a>
</g>
</g>
<!-- Node9 -->
<g id="Node000009" class="node">
<title>Node9</title>
<g id="a_Node000009"><a xlink:href="_text_2_string_8h.html" target="_top" xlink:title=" ">
<polygon fill="white" stroke="#666666" points="1779,-184 1683,-184 1683,-165 1779,-165 1779,-184"/>
<text text-anchor="middle" x="1731" y="-172" font-family="Helvetica,sans-Serif" font-size="10.00">Cpl/Text/String.h</text>
</a>
</g>
</g>
<!-- Node7&#45;&gt;Node9 -->
<g id="edge9_Node000007_Node000009" class="edge">
<title>Node7&#45;&gt;Node9</title>
<g id="a_edge9_Node000007_Node000009"><a xlink:title=" ">
<path fill="none" stroke="#63b8ff" d="M1455.7,-219.98C1515.14,-210.38 1611.51,-194.81 1673.03,-184.87"/>
<polygon fill="#63b8ff" stroke="#63b8ff" points="1673.66,-188.31 1682.97,-183.26 1672.54,-181.4 1673.66,-188.31"/>
</a>
</g>
</g>
<!-- Node13 -->
<g id="Node000013" class="node">
<title>Node13</title>
<g id="a_Node000013"><a xlink:title=" ">
<polygon fill="#e0e0e0" stroke="#999999" points="1666,-19 1610,-19 1610,0 1666,0 1666,-19"/>
<text text-anchor="middle" x="1638" y="-7" font-family="Helvetica,sans-Serif" font-size="10.00">stddef.h</text>
</a>
</g>
</g>
<!-- Node7&#45;&gt;Node13 -->
<g id="edge24_Node000007_Node000013" class="edge">
<title>Node7&#45;&gt;Node13</title>
<g id="a_edge24_Node000007_Node000013"><a xlink:title=" ">
<path fill="none" stroke="#63b8ff" d="M1409.37,-219.67C1429.25,-192.53 1492.87,-108.94 1560,-55 1575.4,-42.63 1594.66,-31.6 1610.19,-23.62"/>
<polygon fill="#63b8ff" stroke="#63b8ff" points="1611.93,-26.66 1619.31,-19.06 1608.8,-20.4 1611.93,-26.66"/>
</a>
</g>
</g>
<!-- Node7&#45;&gt;Node14 -->
<g id="edge25_Node000007_Node000014" class="edge">
<title>Node7&#45;&gt;Node14</title>
<g id="a_edge25_Node000007_Node000014"><a xlink:title=" ">
<path fill="none" stroke="#63b8ff" d="M1343.12,-228.45C1214.45,-227.57 902.33,-221.4 644,-184 537.41,-168.57 491.05,-197.57 408,-129 380.23,-106.07 399.84,-81.08 375,-55 360.85,-40.15 340.67,-29.45 323.21,-22.27"/>
<polygon fill="#63b8ff" stroke="#63b8ff" points="324.42,-18.99 313.84,-18.64 321.9,-25.52 324.42,-18.99"/>
</a>
</g>
</g>
<!-- Node18 -->
<g id="Node000018" class="node">
<title>Node18</title>
<g id="a_Node000018"><a xlink:href="_subscriber_api_8h.html" target="_top" xlink:title=" ">
<polygon fill="white" stroke="#666666" points="245.5,-129 114.5,-129 114.5,-110 245.5,-110 245.5,-129"/>
<text text-anchor="middle" x="180" y="-117" font-family="Helvetica,sans-Serif" font-size="10.00">Cpl/Dm/SubscriberApi.h</text>
</a>
</g>
</g>
<!-- Node7&#45;&gt;Node18 -->
<g id="edge20_Node000007_Node000018" class="edge">
<title>Node7&#45;&gt;Node18</title>
<g id="a_edge20_Node000007_Node000018"><a xlink:title=" ">
<path fill="none" stroke="#63b8ff" d="M1343.2,-227.56C1157.59,-224.35 592.98,-212.47 412,-184 340.09,-172.69 258.54,-147.34 213.82,-132.31"/>
<polygon fill="#63b8ff" stroke="#63b8ff" points="214.92,-128.99 204.33,-129.09 212.67,-135.62 214.92,-128.99"/>
</a>
</g>
</g>
<!-- Node19 -->
<g id="Node000019" class="node">
<title>Node19</title>
<g id="a_Node000019"><a xlink:href="_arduino_8h_source.html" target="_top" xlink:title=" ">
<polygon fill="white" stroke="#666666" points="1574.5,-184 1469.5,-184 1469.5,-165 1574.5,-165 1574.5,-184"/>
<text text-anchor="middle" x="1522" y="-172" font-family="Helvetica,sans-Serif" font-size="10.00">Cpl/Json/Arduino.h</text>
</a>
</g>
</g>
<!-- Node7&#45;&gt;Node19 -->
<g id="edge23_Node000007_Node000019" class="edge">
<title>Node7&#45;&gt;Node19</title>
<g id="a_edge23_Node000007_Node000019"><a xlink:title=" ">
<path fill="none" stroke="#63b8ff" d="M1422.12,-219.98C1441.35,-211.42 1471.23,-198.11 1493.31,-188.28"/>
<polygon fill="#63b8ff" stroke="#63b8ff" points="1494.82,-191.44 1502.53,-184.17 1491.97,-185.04 1494.82,-191.44"/>
</a>
</g>
</g>
<!-- Node10 -->
<g id="Node000010" class="node">
<title>Node10</title>
<g id="a_Node000010"><a xlink:title=" ">
<polygon fill="#e0e0e0" stroke="#999999" points="1653.5,-74 1568.5,-74 1568.5,-55 1653.5,-55 1653.5,-74"/>
<text text-anchor="middle" x="1611" y="-62" font-family="Helvetica,sans-Serif" font-size="10.00">colony_map.h</text>
</a>
</g>
</g>
<!-- Node9&#45;&gt;Node10 -->
<g id="edge10_Node000009_Node000010" class="edge">
<title>Node9&#45;&gt;Node10</title>
<g id="a_edge10_Node000009_Node000010"><a xlink:title=" ">
<path fill="none" stroke="#63b8ff" d="M1774.91,-164.98C1814.57,-155.33 1863.52,-137.3 1841,-110 1838.15,-106.55 1730.55,-86.82 1663.55,-74.82"/>
<polygon fill="#63b8ff" stroke="#63b8ff" points="1664.03,-71.35 1653.57,-73.03 1662.8,-78.24 1664.03,-71.35"/>
</a>
</g>
</g>
<!-- Node11 -->
<g id="Node000011" class="node">
<title>Node11</title>
<g id="a_Node000011"><a xlink:href="_key_8h.html" target="_top" xlink:title=" ">
<polygon fill="white" stroke="#666666" points="1679.5,-129 1568.5,-129 1568.5,-110 1679.5,-110 1679.5,-129"/>
<text text-anchor="middle" x="1624" y="-117" font-family="Helvetica,sans-Serif" font-size="10.00">Cpl/Container/Key.h</text>
</a>
</g>
</g>
<!-- Node9&#45;&gt;Node11 -->
<g id="edge11_Node000009_Node000011" class="edge">
<title>Node9&#45;&gt;Node11</title>
<g id="a_edge11_Node000009_Node000011"><a xlink:title=" ">
<path fill="none" stroke="#63b8ff" d="M1713.81,-164.98C1696.75,-156.54 1670.37,-143.47 1650.6,-133.68"/>
<polygon fill="#63b8ff" stroke="#63b8ff" points="1652.02,-130.47 1641.5,-129.17 1648.91,-136.75 1652.02,-130.47"/>
</a>
</g>
</g>
<!-- Node16 -->
<g id="Node000016" class="node">
<title>Node16</title>
<g id="a_Node000016"><a xlink:title=" ">
<polygon fill="#e0e0e0" stroke="#999999" points="1832,-129 1776,-129 1776,-110 1832,-110 1832,-129"/>
<text text-anchor="middle" x="1804" y="-117" font-family="Helvetica,sans-Serif" font-size="10.00">stdarg.h</text>
</a>
</g>
</g>
<!-- Node9&#45;&gt;Node16 -->
<g id="edge18_Node000009_Node000016" class="edge">
<title>Node9&#45;&gt;Node16</title>
<g id="a_edge18_Node000009_Node000016"><a xlink:title=" ">
<path fill="none" stroke="#63b8ff" d="M1742.73,-164.98C1753.73,-157 1770.42,-144.88 1783.6,-135.31"/>
<polygon fill="#63b8ff" stroke="#63b8ff" points="1786.02,-137.88 1792.06,-129.17 1781.91,-132.21 1786.02,-137.88"/>
</a>
</g>
</g>
<!-- Node17 -->
<g id="Node000017" class="node">
<title>Node17</title>
<g id="a_Node000017"><a xlink:title=" ">
<polygon fill="#e0e0e0" stroke="#999999" points="1758,-129 1698,-129 1698,-110 1758,-110 1758,-129"/>
<text text-anchor="middle" x="1728" y="-117" font-family="Helvetica,sans-Serif" font-size="10.00">iostream</text>
</a>
</g>
</g>
<!-- Node9&#45;&gt;Node17 -->
<g id="edge19_Node000009_Node000017" class="edge">
<title>Node9&#45;&gt;Node17</title>
<g id="a_edge19_Node000009_Node000017"><a xlink:title=" ">
<path fill="none" stroke="#63b8ff" d="M1730.5,-164.75C1730.11,-157.8 1729.55,-147.85 1729.05,-139.13"/>
<polygon fill="#63b8ff" stroke="#63b8ff" points="1732.55,-138.88 1728.49,-129.09 1725.56,-139.27 1732.55,-138.88"/>
</a>
</g>
</g>
<!-- Node11&#45;&gt;Node10 -->
<g id="edge17_Node000011_Node000010" class="edge">
<title>Node11&#45;&gt;Node10</title>
<g id="a_edge17_Node000011_Node000010"><a xlink:title=" ">
<path fill="none" stroke="#63b8ff" d="M1621.85,-109.75C1620.13,-102.72 1617.65,-92.62 1615.5,-83.84"/>
<polygon fill="#63b8ff" stroke="#63b8ff" points="1618.89,-82.97 1613.11,-74.09 1612.09,-84.63 1618.89,-82.97"/>
</a>
</g>
</g>
<!-- Node12 -->
<g id="Node000012" class="node">
<title>Node12</title>
<g id="a_Node000012"><a xlink:href="_fatal_error_8h.html" target="_top" xlink:title=" ">
<polygon fill="white" stroke="#666666" points="1802,-74 1672,-74 1672,-55 1802,-55 1802,-74"/>
<text text-anchor="middle" x="1737" y="-62" font-family="Helvetica,sans-Serif" font-size="10.00">Cpl/System/FatalError.h</text>
</a>
</g>
</g>
<!-- Node11&#45;&gt;Node12 -->
<g id="edge12_Node000011_Node000012" class="edge">
<title>Node11&#45;&gt;Node12</title>
<g id="a_edge12_Node000011_Node000012"><a xlink:title=" ">
<path fill="none" stroke="#63b8ff" d="M1642.16,-109.98C1660.25,-101.5 1688.28,-88.35 1709.19,-78.54"/>
<polygon fill="#63b8ff" stroke="#63b8ff" points="1710.95,-81.59 1718.51,-74.17 1707.97,-75.25 1710.95,-81.59"/>
</a>
</g>
</g>
<!-- Node11&#45;&gt;Node14 -->
<g id="edge15_Node000011_Node000014" class="edge">
<title>Node11&#45;&gt;Node14</title>
<g id="a_edge15_Node000011_Node000014"><a xlink:title=" ">
<path fill="none" stroke="#63b8ff" d="M1568.2,-111.94C1460.44,-99.46 1216.13,-72 1010,-55 747.36,-33.35 430.25,-17.33 323.83,-12.22"/>
<polygon fill="#63b8ff" stroke="#63b8ff" points="323.77,-8.72 313.62,-11.74 323.44,-15.71 323.77,-8.72"/>
</a>
</g>
</g>
<!-- Node15 -->
<g id="Node000015" class="node">
<title>Node15</title>
<g id="a_Node000015"><a xlink:title=" ">
<polygon fill="#e0e0e0" stroke="#999999" points="1873.5,-74 1820.5,-74 1820.5,-55 1873.5,-55 1873.5,-74"/>
<text text-anchor="middle" x="1847" y="-62" font-family="Helvetica,sans-Serif" font-size="10.00">string.h</text>
</a>
</g>
</g>
<!-- Node11&#45;&gt;Node15 -->
<g id="edge16_Node000011_Node000015" class="edge">
<title>Node11&#45;&gt;Node15</title>
<g id="a_edge16_Node000011_Node000015"><a xlink:title=" ">
<path fill="none" stroke="#63b8ff" d="M1659.83,-109.98C1701.23,-100.14 1768.99,-84.04 1810.62,-74.15"/>
<polygon fill="#63b8ff" stroke="#63b8ff" points="1811.44,-77.55 1820.36,-71.83 1809.82,-70.74 1811.44,-77.55"/>
</a>
</g>
</g>
<!-- Node12&#45;&gt;Node4 -->
<g id="edge14_Node000012_Node000004" class="edge">
<title>Node12&#45;&gt;Node4</title>
<g id="a_edge14_Node000012_Node000004"><a xlink:title=" ">
<path fill="none" stroke="#63b8ff" d="M1768.97,-54.98C1802.82,-45.97 1856.4,-31.7 1893.71,-21.76"/>
<polygon fill="#63b8ff" stroke="#63b8ff" points="1895.01,-25.04 1903.78,-19.08 1893.21,-18.27 1895.01,-25.04"/>
</a>
</g>
</g>
<!-- Node12&#45;&gt;Node13 -->
<g id="edge13_Node000012_Node000013" class="edge">
<title>Node12&#45;&gt;Node13</title>
<g id="a_edge13_Node000012_Node000013"><a xlink:title=" ">
<path fill="none" stroke="#63b8ff" d="M1721.09,-54.98C1705.45,-46.61 1681.34,-33.7 1663.12,-23.95"/>
<polygon fill="#63b8ff" stroke="#63b8ff" points="1664.66,-20.8 1654.2,-19.17 1661.36,-26.98 1664.66,-20.8"/>
</a>
</g>
</g>
<!-- Node18&#45;&gt;Node8 -->
<g id="edge21_Node000018_Node000008" class="edge">
<title>Node18&#45;&gt;Node8</title>
<g id="a_edge21_Node000018_Node000008"><a xlink:title=" ">
<path fill="none" stroke="#63b8ff" d="M184.89,-109.55C193.35,-95.09 212.2,-67.02 237,-55 292.89,-27.91 703.81,-15.75 869.26,-11.92"/>
<polygon fill="#63b8ff" stroke="#63b8ff" points="869.41,-15.42 879.33,-11.69 869.25,-8.42 869.41,-15.42"/>
</a>
</g>
</g>
<!-- Node18&#45;&gt;Node14 -->
<g id="edge22_Node000018_Node000014" class="edge">
<title>Node18&#45;&gt;Node14</title>
<g id="a_edge22_Node000018_Node000014"><a xlink:title=" ">
<path fill="none" stroke="#63b8ff" d="M181.31,-109.69C183.69,-96.42 189.86,-71.13 204,-55 216.62,-40.61 235.04,-30.08 251.33,-22.89"/>
<polygon fill="#63b8ff" stroke="#63b8ff" points="252.72,-26.1 260.62,-19.03 250.04,-19.63 252.72,-26.1"/>
</a>
</g>
</g>
<!-- Node20&#45;&gt;Node4 -->
<g id="edge27_Node000020_Node000004" class="edge">
<title>Node20&#45;&gt;Node4</title>
<g id="a_edge27_Node000020_Node000004"><a xlink:title=" ">
<path fill="none" stroke="#63b8ff" d="M1726.58,-281.54C1804.03,-277.95 1921.78,-267.78 1955,-239 1977.27,-219.71 1974,-204.96 1974,-175.5 1974,-175.5 1974,-175.5 1974,-118.5 1974,-85.02 1957.55,-48.84 1946.3,-28.01"/>
<polygon fill="#63b8ff" stroke="#63b8ff" points="1949.24,-26.1 1941.28,-19.1 1943.13,-29.53 1949.24,-26.1"/>
</a>
</g>
</g>
<!-- Node20&#45;&gt;Node19 -->
<g id="edge34_Node000020_Node000019" class="edge">
<title>Node20&#45;&gt;Node19</title>
<g id="a_edge34_Node000020_Node000019"><a xlink:title=" ">
<path fill="none" stroke="#63b8ff" d="M1585.39,-279.59C1557.28,-274.14 1527.51,-262.64 1510,-239 1500.22,-225.8 1505.56,-206.92 1511.92,-193.18"/>
<polygon fill="#63b8ff" stroke="#63b8ff" points="1515.05,-194.73 1516.53,-184.24 1508.83,-191.52 1515.05,-194.73"/>
</a>
</g>
</g>
<!-- Node21 -->
<g id="Node000021" class="node">
<title>Node21</title>
<g id="a_Node000021"><a xlink:href="_model_database_api_8h.html" target="_top" xlink:title=" ">
<polygon fill="white" stroke="#666666" points="1812.5,-239 1655.5,-239 1655.5,-220 1812.5,-220 1812.5,-239"/>
<text text-anchor="middle" x="1734" y="-227" font-family="Helvetica,sans-Serif" font-size="10.00">Cpl/Dm/ModelDatabaseApi.h</text>
</a>
</g>
</g>
<!-- Node20&#45;&gt;Node21 -->
<g id="edge28_Node000020_Node000021" class="edge">
<title>Node20&#45;&gt;Node21</title>
<g id="a_edge28_Node000020_Node000021"><a xlink:title=" ">
<path fill="none" stroke="#63b8ff" d="M1668.53,-274.98C1680.4,-266.92 1698.46,-254.65 1712.61,-245.03"/>
<polygon fill="#63b8ff" stroke="#63b8ff" points="1714.94,-247.69 1721.24,-239.17 1711,-241.9 1714.94,-247.69"/>
</a>
</g>
</g>
<!-- Node22 -->
<g id="Node000022" class="node">
<title>Node22</title>
<g id="a_Node000022"><a xlink:href="_mutex_8h.html" target="_top" xlink:title=" ">
<polygon fill="white" stroke="#666666" points="1945.5,-239 1830.5,-239 1830.5,-220 1945.5,-220 1945.5,-239"/>
<text text-anchor="middle" x="1888" y="-227" font-family="Helvetica,sans-Serif" font-size="10.00">Cpl/System/Mutex.h</text>
</a>
</g>
</g>
<!-- Node20&#45;&gt;Node22 -->
<g id="edge30_Node000020_Node000022" class="edge">
<title>Node20&#45;&gt;Node22</title>
<g id="a_edge30_Node000020_Node000022"><a xlink:title=" ">
<path fill="none" stroke="#63b8ff" d="M1693.27,-274.98C1733.32,-265.84 1797.07,-251.27 1840.64,-241.32"/>
<polygon fill="#63b8ff" stroke="#63b8ff" points="1841.46,-244.72 1850.43,-239.08 1839.9,-237.9 1841.46,-244.72"/>
</a>
</g>
</g>
<!-- Node23 -->
<g id="Node000023" class="node">
<title>Node23</title>
<g id="a_Node000023"><a xlink:href="_s_list_8h.html" target="_top" xlink:title=" ">
<polygon fill="white" stroke="#666666" points="1637,-239 1519,-239 1519,-220 1637,-220 1637,-239"/>
<text text-anchor="middle" x="1578" y="-227" font-family="Helvetica,sans-Serif" font-size="10.00">Cpl/Container/SList.h</text>
</a>
</g>
</g>
<!-- Node20&#45;&gt;Node23 -->
<g id="edge32_Node000020_Node000023" class="edge">
<title>Node20&#45;&gt;Node23</title>
<g id="a_edge32_Node000020_Node000023"><a xlink:title=" ">
<path fill="none" stroke="#63b8ff" d="M1643.47,-274.98C1631.6,-266.92 1613.54,-254.65 1599.39,-245.03"/>
<polygon fill="#63b8ff" stroke="#63b8ff" points="1601,-241.9 1590.76,-239.17 1597.06,-247.69 1601,-241.9"/>
</a>
</g>
</g>
<!-- Node21&#45;&gt;Node9 -->
<g id="edge29_Node000021_Node000009" class="edge">
<title>Node21&#45;&gt;Node9</title>
<g id="a_edge29_Node000021_Node000009"><a xlink:title=" ">
<path fill="none" stroke="#63b8ff" d="M1733.5,-219.75C1733.11,-212.8 1732.55,-202.85 1732.05,-194.13"/>
<polygon fill="#63b8ff" stroke="#63b8ff" points="1735.55,-193.88 1731.49,-184.09 1728.56,-194.27 1735.55,-193.88"/>
</a>
</g>
</g>
<!-- Node22&#45;&gt;Node10 -->
<g id="edge31_Node000022_Node000010" class="edge">
<title>Node22&#45;&gt;Node10</title>
<g id="a_edge31_Node000022_Node000010"><a xlink:title=" ">
<path fill="none" stroke="#63b8ff" d="M1888.61,-219.79C1889.62,-197.79 1888.99,-139.62 1857,-110 1853.44,-106.71 1734.97,-86.33 1663.76,-74.32"/>
<polygon fill="#63b8ff" stroke="#63b8ff" points="1664.05,-70.82 1653.61,-72.61 1662.89,-77.72 1664.05,-70.82"/>
</a>
</g>
</g>
<!-- Node23&#45;&gt;Node8 -->
<g id="edge33_Node000023_Node000008" class="edge">
<title>Node23&#45;&gt;Node8</title>
<g id="a_edge33_Node000023_Node000008"><a xlink:title=" ">
<path fill="none" stroke="#63b8ff" d="M1581.85,-219.96C1587.04,-207.04 1594.5,-182.2 1584,-165 1528.29,-73.72 1472.51,-85.45 1370,-55 1245.68,-18.07 1093.39,-10.68 1006.85,-9.8"/>
<polygon fill="#63b8ff" stroke="#63b8ff" points="1006.65,-6.3 996.62,-9.73 1006.6,-13.3 1006.65,-6.3"/>
</a>
</g>
</g>
<!-- Node24&#45;&gt;Node7 -->
<g id="edge37_Node000024_Node000007" class="edge">
<title>Node24&#45;&gt;Node7</title>
<g id="a_edge37_Node000024_Node000007"><a xlink:title=" ">
<path fill="none" stroke="#63b8ff" d="M326.79,-280.8C517.43,-271.89 1125.93,-243.45 1333.13,-233.77"/>
<polygon fill="#63b8ff" stroke="#63b8ff" points="1333.45,-237.25 1343.28,-233.29 1333.12,-230.26 1333.45,-237.25"/>
</a>
</g>
</g>
<!-- Node24&#45;&gt;Node14 -->
<g id="edge65_Node000024_Node000014" class="edge">
<title>Node24&#45;&gt;Node14</title>
<g id="a_edge65_Node000024_Node000014"><a xlink:title=" ">
<path fill="none" stroke="#63b8ff" d="M211.3,-280.9C142.88,-274.35 38,-251.87 38,-175.5 38,-175.5 38,-175.5 38,-118.5 38,-27.07 181.05,-12.19 250.3,-10.35"/>
<polygon fill="#63b8ff" stroke="#63b8ff" points="250.42,-13.85 260.35,-10.16 250.29,-6.85 250.42,-13.85"/>
</a>
</g>
</g>
<!-- Node24&#45;&gt;Node18 -->
<g id="edge36_Node000024_Node000018" class="edge">
<title>Node24&#45;&gt;Node18</title>
<g id="a_edge36_Node000024_Node000018"><a xlink:title=" ">
<path fill="none" stroke="#63b8ff" d="M234.07,-274.9C192.46,-262.58 124.86,-235.47 95,-184 81.44,-160.63 111.34,-143.19 139.33,-132.56"/>
<polygon fill="#63b8ff" stroke="#63b8ff" points="140.84,-135.74 149.08,-129.08 138.49,-129.14 140.84,-135.74"/>
</a>
</g>
</g>
<!-- Node25 -->
<g id="Node000025" class="node">
<title>Node25</title>
<g id="a_Node000025"><a xlink:href="_dm_2_event_loop_8h.html" target="_top" xlink:title=" ">
<polygon fill="white" stroke="#666666" points="327,-239 211,-239 211,-220 327,-220 327,-239"/>
<text text-anchor="middle" x="269" y="-227" font-family="Helvetica,sans-Serif" font-size="10.00">Cpl/Dm/EventLoop.h</text>
</a>
</g>
</g>
<!-- Node24&#45;&gt;Node25 -->
<g id="edge38_Node000024_Node000025" class="edge">
<title>Node24&#45;&gt;Node25</title>
<g id="a_edge38_Node000024_Node000025"><a xlink:title=" ">
<path fill="none" stroke="#63b8ff" d="M269,-274.75C269,-267.8 269,-257.85 269,-249.13"/>
<polygon fill="#63b8ff" stroke="#63b8ff" points="272.5,-249.09 269,-239.09 265.5,-249.09 272.5,-249.09"/>
</a>
</g>
</g>
<!-- Node25&#45;&gt;Node18 -->
<g id="edge62_Node000025_Node000018" class="edge">
<title>Node25&#45;&gt;Node18</title>
<g id="a_edge62_Node000025_Node000018"><a xlink:title=" ">
<path fill="none" stroke="#63b8ff" d="M269.19,-219.82C269.04,-206.72 267.04,-181.65 255,-165 244.81,-150.91 228.67,-140.51 213.97,-133.32"/>
<polygon fill="#63b8ff" stroke="#63b8ff" points="215.14,-130.01 204.59,-129.05 212.24,-136.38 215.14,-130.01"/>
</a>
</g>
</g>
<!-- Node26 -->
<g id="Node000026" class="node">
<title>Node26</title>
<g id="a_Node000026"><a xlink:href="_system_2_event_loop_8h.html" target="_top" xlink:title=" ">
<polygon fill="white" stroke="#666666" points="787.5,-184 652.5,-184 652.5,-165 787.5,-165 787.5,-184"/>
<text text-anchor="middle" x="720" y="-172" font-family="Helvetica,sans-Serif" font-size="10.00">Cpl/System/EventLoop.h</text>
</a>
</g>
</g>
<!-- Node25&#45;&gt;Node26 -->
<g id="edge39_Node000025_Node000026" class="edge">
<title>Node25&#45;&gt;Node26</title>
<g id="a_edge39_Node000025_Node000026"><a xlink:title=" ">
<path fill="none" stroke="#63b8ff" d="M327.04,-221.68C407.33,-212.24 552.51,-195.18 642.15,-184.65"/>
<polygon fill="#63b8ff" stroke="#63b8ff" points="642.74,-188.1 652.26,-183.46 641.92,-181.15 642.74,-188.1"/>
</a>
</g>
</g>
<!-- Node25&#45;&gt;Node34 -->
<g id="edge61_Node000025_Node000034" class="edge">
<title>Node25&#45;&gt;Node34</title>
<g id="a_edge61_Node000025_Node000034"><a xlink:title=" ">
<path fill="none" stroke="#63b8ff" d="M270.99,-219.74C276.79,-194.2 293.76,-119.43 301.75,-84.23"/>
<polygon fill="#63b8ff" stroke="#63b8ff" points="305.2,-84.83 304,-74.31 298.37,-83.28 305.2,-84.83"/>
</a>
</g>
</g>
<!-- Node35 -->
<g id="Node000035" class="node">
<title>Node35</title>
<g id="a_Node000035"><a xlink:href="_thread_8h.html" target="_top" xlink:title=" ">
<polygon fill="white" stroke="#666666" points="1265,-184 1147,-184 1147,-165 1265,-165 1265,-184"/>
<text text-anchor="middle" x="1206" y="-172" font-family="Helvetica,sans-Serif" font-size="10.00">Cpl/System/Thread.h</text>
</a>
</g>
</g>
<!-- Node25&#45;&gt;Node35 -->
<g id="edge55_Node000025_Node000035" class="edge">
<title>Node25&#45;&gt;Node35</title>
<g id="a_edge55_Node000025_Node000035"><a xlink:title=" ">
<path fill="none" stroke="#63b8ff" d="M327.26,-225.2C491.79,-215.9 959.5,-189.44 1136.75,-179.42"/>
<polygon fill="#63b8ff" stroke="#63b8ff" points="1136.96,-182.91 1146.74,-178.85 1136.56,-175.92 1136.96,-182.91"/>
</a>
</g>
</g>
<!-- Node38 -->
<g id="Node000038" class="node">
<title>Node38</title>
<g id="a_Node000038"><a xlink:href="_notification_api___8h.html" target="_top" xlink:title=" ">
<polygon fill="white" stroke="#666666" points="246,-184 104,-184 104,-165 246,-165 246,-184"/>
<text text-anchor="middle" x="175" y="-172" font-family="Helvetica,sans-Serif" font-size="10.00">Cpl/Dm/NotificationApi_.h</text>
</a>
</g>
</g>
<!-- Node25&#45;&gt;Node38 -->
<g id="edge63_Node000025_Node000038" class="edge">
<title>Node25&#45;&gt;Node38</title>
<g id="a_edge63_Node000025_Node000038"><a xlink:title=" ">
<path fill="none" stroke="#63b8ff" d="M253.9,-219.98C239.18,-211.69 216.58,-198.94 199.33,-189.22"/>
<polygon fill="#63b8ff" stroke="#63b8ff" points="200.81,-186.03 190.38,-184.17 197.37,-192.13 200.81,-186.03"/>
</a>
</g>
</g>
<!-- Node27 -->
<g id="Node000027" class="node">
<title>Node27</title>
<g id="a_Node000027"><a xlink:href="_runnable_8h.html" target="_top" xlink:title=" ">
<polygon fill="white" stroke="#666666" points="1156,-129 1026,-129 1026,-110 1156,-110 1156,-129"/>
<text text-anchor="middle" x="1091" y="-117" font-family="Helvetica,sans-Serif" font-size="10.00">Cpl/System/Runnable.h</text>
</a>
</g>
</g>
<!-- Node26&#45;&gt;Node27 -->
<g id="edge40_Node000026_Node000027" class="edge">
<title>Node26&#45;&gt;Node27</title>
<g id="a_edge40_Node000026_Node000027"><a xlink:title=" ">
<path fill="none" stroke="#63b8ff" d="M779.61,-164.98C845.5,-155.57 951.51,-140.43 1021.22,-130.47"/>
<polygon fill="#63b8ff" stroke="#63b8ff" points="1021.83,-133.92 1031.23,-129.04 1020.84,-126.99 1021.83,-133.92"/>
</a>
</g>
</g>
<!-- Node28 -->
<g id="Node000028" class="node">
<title>Node28</title>
<g id="a_Node000028"><a xlink:href="_semaphore_8h.html" target="_top" xlink:title=" ">
<polygon fill="white" stroke="#666666" points="1008,-129 868,-129 868,-110 1008,-110 1008,-129"/>
<text text-anchor="middle" x="938" y="-117" font-family="Helvetica,sans-Serif" font-size="10.00">Cpl/System/Semaphore.h</text>
</a>
</g>
</g>
<!-- Node26&#45;&gt;Node28 -->
<g id="edge41_Node000026_Node000028" class="edge">
<title>Node26&#45;&gt;Node28</title>
<g id="a_edge41_Node000026_Node000028"><a xlink:title=" ">
<path fill="none" stroke="#63b8ff" d="M755.03,-164.98C792.5,-155.87 852.05,-141.4 892.98,-131.45"/>
<polygon fill="#63b8ff" stroke="#63b8ff" points="893.81,-134.85 902.7,-129.08 892.16,-128.04 893.81,-134.85"/>
</a>
</g>
</g>
<!-- Node29 -->
<g id="Node000029" class="node">
<title>Node29</title>
<g id="a_Node000029"><a xlink:href="_signable_8h.html" target="_top" xlink:title=" ">
<polygon fill="white" stroke="#666666" points="1001,-74 875,-74 875,-55 1001,-55 1001,-74"/>
<text text-anchor="middle" x="938" y="-62" font-family="Helvetica,sans-Serif" font-size="10.00">Cpl/System/Signable.h</text>
</a>
</g>
</g>
<!-- Node26&#45;&gt;Node29 -->
<g id="edge45_Node000026_Node000029" class="edge">
<title>Node26&#45;&gt;Node29</title>
<g id="a_edge45_Node000026_Node000029"><a xlink:title=" ">
<path fill="none" stroke="#63b8ff" d="M740.73,-164.95C761.31,-156.34 793.65,-142.42 821,-129 853.82,-112.9 890.76,-92.44 914.19,-79.17"/>
<polygon fill="#63b8ff" stroke="#63b8ff" points="916.1,-82.11 923.06,-74.12 912.64,-76.03 916.1,-82.11"/>
</a>
</g>
</g>
<!-- Node30 -->
<g id="Node000030" class="node">
<title>Node30</title>
<g id="a_Node000030"><a xlink:href="_event_flag_8h.html" target="_top" xlink:title=" ">
<polygon fill="white" stroke="#666666" points="748.5,-74 615.5,-74 615.5,-55 748.5,-55 748.5,-74"/>
<text text-anchor="middle" x="682" y="-62" font-family="Helvetica,sans-Serif" font-size="10.00">Cpl/System/EventFlag.h</text>
</a>
</g>
</g>
<!-- Node26&#45;&gt;Node30 -->
<g id="edge46_Node000026_Node000030" class="edge">
<title>Node26&#45;&gt;Node30</title>
<g id="a_edge46_Node000026_Node000030"><a xlink:title=" ">
<path fill="none" stroke="#63b8ff" d="M674.54,-164.96C654.23,-158.64 632.16,-147.72 620,-129 607.3,-109.44 631.29,-90.81 653.03,-78.85"/>
<polygon fill="#63b8ff" stroke="#63b8ff" points="654.83,-81.86 662.1,-74.15 651.61,-75.64 654.83,-81.86"/>
</a>
</g>
</g>
<!-- Node31 -->
<g id="Node000031" class="node">
<title>Node31</title>
<g id="a_Node000031"><a xlink:href="_shared_event_handler_8h.html" target="_top" xlink:title=" ">
<polygon fill="white" stroke="#666666" points="811.5,-129 628.5,-129 628.5,-110 811.5,-110 811.5,-129"/>
<text text-anchor="middle" x="720" y="-117" font-family="Helvetica,sans-Serif" font-size="10.00">Cpl/System/SharedEventHandler.h</text>
</a>
</g>
</g>
<!-- Node26&#45;&gt;Node31 -->
<g id="edge49_Node000026_Node000031" class="edge">
<title>Node26&#45;&gt;Node31</title>
<g id="a_edge49_Node000026_Node000031"><a xlink:title=" ">
<path fill="none" stroke="#63b8ff" d="M720,-164.75C720,-157.8 720,-147.85 720,-139.13"/>
<polygon fill="#63b8ff" stroke="#63b8ff" points="723.5,-139.09 720,-129.09 716.5,-139.09 723.5,-139.09"/>
</a>
</g>
</g>
<!-- Node32 -->
<g id="Node000032" class="node">
<title>Node32</title>
<g id="a_Node000032"><a xlink:href="_timer_manager_8h.html" target="_top" xlink:title=" ">
<polygon fill="white" stroke="#666666" points="571.5,-129 416.5,-129 416.5,-110 571.5,-110 571.5,-129"/>
<text text-anchor="middle" x="494" y="-117" font-family="Helvetica,sans-Serif" font-size="10.00">Cpl/System/TimerManager.h</text>
</a>
</g>
</g>
<!-- Node26&#45;&gt;Node32 -->
<g id="edge51_Node000026_Node000032" class="edge">
<title>Node26&#45;&gt;Node32</title>
<g id="a_edge51_Node000026_Node000032"><a xlink:title=" ">
<path fill="none" stroke="#63b8ff" d="M683.69,-164.98C644.76,-155.86 582.84,-141.33 540.4,-131.38"/>
<polygon fill="#63b8ff" stroke="#63b8ff" points="541.13,-127.96 530.6,-129.08 539.53,-134.77 541.13,-127.96"/>
</a>
</g>
</g>
<!-- Node28&#45;&gt;Node10 -->
<g id="edge42_Node000028_Node000010" class="edge">
<title>Node28&#45;&gt;Node10</title>
<g id="a_edge42_Node000028_Node000010"><a xlink:title=" ">
<path fill="none" stroke="#63b8ff" d="M1008.2,-110.83C1011.17,-110.54 1014.12,-110.26 1017,-110 1216.63,-91.79 1454.51,-75.64 1558.26,-68.88"/>
<polygon fill="#63b8ff" stroke="#63b8ff" points="1558.71,-72.35 1568.47,-68.21 1558.26,-65.37 1558.71,-72.35"/>
</a>
</g>
</g>
<!-- Node28&#45;&gt;Node29 -->
<g id="edge43_Node000028_Node000029" class="edge">
<title>Node28&#45;&gt;Node29</title>
<g id="a_edge43_Node000028_Node000029"><a xlink:title=" ">
<path fill="none" stroke="#63b8ff" d="M938,-109.75C938,-102.8 938,-92.85 938,-84.13"/>
<polygon fill="#63b8ff" stroke="#63b8ff" points="941.5,-84.09 938,-74.09 934.5,-84.09 941.5,-84.09"/>
</a>
</g>
</g>
<!-- Node29&#45;&gt;Node8 -->
<g id="edge44_Node000029_Node000008" class="edge">
<title>Node29&#45;&gt;Node8</title>
<g id="a_edge44_Node000029_Node000008"><a xlink:title=" ">
<path fill="none" stroke="#63b8ff" d="M938,-54.75C938,-47.8 938,-37.85 938,-29.13"/>
<polygon fill="#63b8ff" stroke="#63b8ff" points="941.5,-29.09 938,-19.09 934.5,-29.09 941.5,-29.09"/>
</a>
</g>
</g>
<!-- Node30&#45;&gt;Node4 -->
<g id="edge47_Node000030_Node000004" class="edge">
<title>Node30&#45;&gt;Node4</title>
<g id="a_edge47_Node000030_Node000004"><a xlink:title=" ">
<path fill="none" stroke="#63b8ff" d="M748.86,-60.34C783.77,-58.7 827.18,-56.7 866,-55 1253.82,-37.98 1720.78,-19.12 1879.82,-12.75"/>
<polygon fill="#63b8ff" stroke="#63b8ff" points="1880,-16.24 1889.85,-12.34 1879.72,-9.25 1880,-16.24"/>
</a>
</g>
</g>
<!-- Node30&#45;&gt;Node14 -->
<g id="edge48_Node000030_Node000014" class="edge">
<title>Node30&#45;&gt;Node14</title>
<g id="a_edge48_Node000030_Node000014"><a xlink:title=" ">
<path fill="none" stroke="#63b8ff" d="M618.54,-54.98C535.11,-43.79 391.28,-24.49 323.87,-15.45"/>
<polygon fill="#63b8ff" stroke="#63b8ff" points="324.11,-11.95 313.73,-14.09 323.18,-18.89 324.11,-11.95"/>
</a>
</g>
</g>
<!-- Node31&#45;&gt;Node30 -->
<g id="edge50_Node000031_Node000030" class="edge">
<title>Node31&#45;&gt;Node30</title>
<g id="a_edge50_Node000031_Node000030"><a xlink:title=" ">
<path fill="none" stroke="#63b8ff" d="M713.73,-109.75C708.41,-102.34 700.64,-91.5 694.12,-82.41"/>
<polygon fill="#63b8ff" stroke="#63b8ff" points="696.83,-80.18 688.16,-74.09 691.14,-84.26 696.83,-80.18"/>
</a>
</g>
</g>
<!-- Node33 -->
<g id="Node000033" class="node">
<title>Node33</title>
<g id="a_Node000033"><a xlink:href="_counter___8h.html" target="_top" xlink:title=" ">
<polygon fill="white" stroke="#666666" points="578,-74 450,-74 450,-55 578,-55 578,-74"/>
<text text-anchor="middle" x="514" y="-62" font-family="Helvetica,sans-Serif" font-size="10.00">Cpl/System/Counter_.h</text>
</a>
</g>
</g>
<!-- Node32&#45;&gt;Node33 -->
<g id="edge52_Node000032_Node000033" class="edge">
<title>Node32&#45;&gt;Node33</title>
<g id="a_edge52_Node000032_Node000033"><a xlink:title=" ">
<path fill="none" stroke="#63b8ff" d="M497.3,-109.75C499.98,-102.65 503.85,-92.4 507.19,-83.56"/>
<polygon fill="#63b8ff" stroke="#63b8ff" points="510.5,-84.68 510.76,-74.09 503.95,-82.21 510.5,-84.68"/>
</a>
</g>
</g>
<!-- Node32&#45;&gt;Node34 -->
<g id="edge54_Node000032_Node000034" class="edge">
<title>Node32&#45;&gt;Node34</title>
<g id="a_edge54_Node000032_Node000034"><a xlink:title=" ">
<path fill="none" stroke="#63b8ff" d="M463.79,-109.98C431.96,-101.01 381.64,-86.82 346.4,-76.89"/>
<polygon fill="#63b8ff" stroke="#63b8ff" points="347.02,-73.43 336.44,-74.08 345.12,-80.16 347.02,-73.43"/>
</a>
</g>
</g>
<!-- Node33&#45;&gt;Node8 -->
<g id="edge53_Node000033_Node000008" class="edge">
<title>Node33&#45;&gt;Node8</title>
<g id="a_edge53_Node000033_Node000008"><a xlink:title=" ">
<path fill="none" stroke="#63b8ff" d="M578.4,-55.45C656.93,-45.63 789.12,-29.11 869.48,-19.07"/>
<polygon fill="#63b8ff" stroke="#63b8ff" points="870.01,-22.53 879.49,-17.81 869.14,-15.58 870.01,-22.53"/>
</a>
</g>
</g>
<!-- Node35&#45;&gt;Node10 -->
<g id="edge56_Node000035_Node000010" class="edge">
<title>Node35&#45;&gt;Node10</title>
<g id="a_edge56_Node000035_Node000010"><a xlink:title=" ">
<path fill="none" stroke="#63b8ff" d="M1233.79,-164.99C1260.16,-156.66 1300.75,-143.19 1335,-129 1352.81,-121.62 1355.69,-116.06 1374,-110 1435.6,-89.62 1509.47,-77.61 1558.18,-71.3"/>
<polygon fill="#63b8ff" stroke="#63b8ff" points="1558.7,-74.76 1568.18,-70.04 1557.82,-67.82 1558.7,-74.76"/>
</a>
</g>
</g>
<!-- Node35&#45;&gt;Node27 -->
<g id="edge57_Node000035_Node000027" class="edge">
<title>Node35&#45;&gt;Node27</title>
<g id="a_edge57_Node000035_Node000027"><a xlink:title=" ">
<path fill="none" stroke="#63b8ff" d="M1187.52,-164.98C1169.02,-156.46 1140.32,-143.23 1119.02,-133.41"/>
<polygon fill="#63b8ff" stroke="#63b8ff" points="1120.36,-130.18 1109.81,-129.17 1117.43,-136.53 1120.36,-130.18"/>
</a>
</g>
</g>
<!-- Node35&#45;&gt;Node29 -->
<g id="edge58_Node000035_Node000029" class="edge">
<title>Node35&#45;&gt;Node29</title>
<g id="a_edge58_Node000035_Node000029"><a xlink:title=" ">
<path fill="none" stroke="#63b8ff" d="M1203.01,-164.92C1197.69,-151.01 1185.21,-123.69 1165,-110 1140.26,-93.24 1067.58,-80.93 1011.05,-73.56"/>
<polygon fill="#63b8ff" stroke="#63b8ff" points="1011.42,-70.07 1001.06,-72.28 1010.53,-77.02 1011.42,-70.07"/>
</a>
</g>
</g>
<!-- Node36 -->
<g id="Node000036" class="node">
<title>Node36</title>
<g id="a_Node000036"><a xlink:href="_traverser_8h.html" target="_top" xlink:title=" ">
<polygon fill="white" stroke="#666666" points="1326,-129 1212,-129 1212,-110 1326,-110 1326,-129"/>
<text text-anchor="middle" x="1269" y="-117" font-family="Helvetica,sans-Serif" font-size="10.00">Cpl/Type/Traverser.h</text>
</a>
</g>
</g>
<!-- Node35&#45;&gt;Node36 -->
<g id="edge59_Node000035_Node000036" class="edge">
<title>Node35&#45;&gt;Node36</title>
<g id="a_edge59_Node000035_Node000036"><a xlink:title=" ">
<path fill="none" stroke="#63b8ff" d="M1216.12,-164.98C1225.44,-157.15 1239.47,-145.34 1250.74,-135.86"/>
<polygon fill="#63b8ff" stroke="#63b8ff" points="1253.29,-138.29 1258.69,-129.17 1248.79,-132.93 1253.29,-138.29"/>
</a>
</g>
</g>
<!-- Node35&#45;&gt;Node37 -->
<g id="edge60_Node000035_Node000037" class="edge">
<title>Node35&#45;&gt;Node37</title>
<g id="a_edge60_Node000035_Node000037"><a xlink:title=" ">
<path fill="none" stroke="#63b8ff" d="M1238.62,-164.98C1275.09,-155.46 1334.02,-140.08 1372.14,-130.12"/>
<polygon fill="#63b8ff" stroke="#63b8ff" points="1373.51,-133.38 1382.3,-127.47 1371.74,-126.61 1373.51,-133.38"/>
</a>
</g>
</g>
<!-- Node38&#45;&gt;Node18 -->
<g id="edge64_Node000038_Node000018" class="edge">
<title>Node38&#45;&gt;Node18</title>
<g id="a_edge64_Node000038_Node000018"><a xlink:title=" ">
<path fill="none" stroke="#63b8ff" d="M175.83,-164.75C176.48,-157.8 177.42,-147.85 178.24,-139.13"/>
<polygon fill="#63b8ff" stroke="#63b8ff" points="181.73,-139.37 179.19,-129.09 174.77,-138.72 181.73,-139.37"/>
</a>
</g>
</g>
</g>
</svg>
