<?xml version="1.0" encoding="UTF-8" standalone="no"?>
<!DOCTYPE svg PUBLIC "-//W3C//DTD SVG 1.1//EN"
 "http://www.w3.org/Graphics/SVG/1.1/DTD/svg11.dtd">
<!-- Generated by graphviz version 9.0.0 (20230911.1827)
 -->
<!-- Title: Ajax/Dm/MpAlertSummary.h Pages: 1 -->
<svg width="260pt" height="149pt"
 viewBox="0.00 0.00 260.25 149.00" xmlns="http://www.w3.org/2000/svg" xmlns:xlink="http://www.w3.org/1999/xlink">
<g id="graph0" class="graph" transform="scale(1 1) rotate(0) translate(4 145)">
<title>Ajax/Dm/MpAlertSummary.h</title>
<!-- Node1 -->
<g id="Node000001" class="node">
<title>Node1</title>
<g id="a_Node000001"><a xlink:title=" ">
<polygon fill="#999999" stroke="#666666" points="195.12,-141 56.88,-141 56.88,-121.75 195.12,-121.75 195.12,-141"/>
<text text-anchor="middle" x="126" y="-127.5" font-family="Helvetica,sans-Serif" font-size="10.00">Ajax/Dm/MpAlertSummary.h</text>
</a>
</g>
</g>
<!-- Node2 -->
<g id="Node000002" class="node">
<title>Node2</title>
<g id="a_Node000002"><a xlink:href="_ajax_2_ui_2_home_2_screen_8h.html" target="_top" xlink:title=" ">
<polygon fill="white" stroke="#666666" points="118,-80.12 0,-80.12 0,-60.88 118,-60.88 118,-80.12"/>
<text text-anchor="middle" x="59" y="-66.62" font-family="Helvetica,sans-Serif" font-size="10.00">Ajax/Ui/Home/Screen.h</text>
</a>
</g>
</g>
<!-- Node1&#45;&gt;Node2 -->
<g id="edge1_Node000001_Node000002" class="edge">
<title>Node1&#45;&gt;Node2</title>
<g id="a_edge1_Node000001_Node000002"><a xlink:title=" ">
<path fill="none" stroke="#63b8ff" d="M107.22,-113.87C94.93,-103.07 79.34,-89.37 69.27,-80.53"/>
<polygon fill="#63b8ff" stroke="#63b8ff" points="104.86,-116.46 114.69,-120.43 109.49,-111.2 104.86,-116.46"/>
</a>
</g>
</g>
<!-- Node4 -->
<g id="Node000004" class="node">
<title>Node4</title>
<g id="a_Node000004"><a xlink:href="_ajax_2_ui_2_status_indicator_2_api_8h.html" target="_top" xlink:title=" ">
<polygon fill="white" stroke="#666666" points="252.25,-85.75 135.75,-85.75 135.75,-55.25 252.25,-55.25 252.25,-85.75"/>
<text text-anchor="start" x="143.75" y="-72.25" font-family="Helvetica,sans-Serif" font-size="10.00">Ajax/Ui/StatusIndicator</text>
<text text-anchor="middle" x="194" y="-61" font-family="Helvetica,sans-Serif" font-size="10.00">/Api.h</text>
</a>
</g>
</g>
<!-- Node1&#45;&gt;Node4 -->
<g id="edge3_Node000001_Node000004" class="edge">
<title>Node1&#45;&gt;Node4</title>
<g id="a_edge3_Node000001_Node000004"><a xlink:title=" ">
<path fill="none" stroke="#63b8ff" d="M144.87,-114.04C155.01,-105.26 167.41,-94.52 177.22,-86.03"/>
<polygon fill="#63b8ff" stroke="#63b8ff" points="142.74,-111.25 137.47,-120.44 147.32,-116.54 142.74,-111.25"/>
</a>
</g>
</g>
<!-- Node3 -->
<g id="Node000003" class="node">
<title>Node3</title>
<g id="a_Node000003"><a xlink:href="_ajax_2_main_2screens_8h.html" target="_top" xlink:title="This file exposes handles to Screen instances for the Ajax Application.">
<polygon fill="white" stroke="#666666" points="110.88,-19.25 7.12,-19.25 7.12,0 110.88,0 110.88,-19.25"/>
<text text-anchor="middle" x="59" y="-5.75" font-family="Helvetica,sans-Serif" font-size="10.00">Ajax/Main/screens.h</text>
</a>
</g>
</g>
<!-- Node2&#45;&gt;Node3 -->
<g id="edge2_Node000002_Node000003" class="edge">
<title>Node2&#45;&gt;Node3</title>
<g id="a_edge2_Node000002_Node000003"><a xlink:title=" ">
<path fill="none" stroke="#63b8ff" d="M59,-49.07C59,-39.04 59,-27.46 59,-19.65"/>
<polygon fill="#63b8ff" stroke="#63b8ff" points="55.5,-49.04 59,-59.04 62.5,-49.04 55.5,-49.04"/>
</a>
</g>
</g>
</g>
</svg>
