<?xml version="1.0" encoding="UTF-8" standalone="no"?>
<!DOCTYPE svg PUBLIC "-//W3C//DTD SVG 1.1//EN"
 "http://www.w3.org/Graphics/SVG/1.1/DTD/svg11.dtd">
<!-- Generated by graphviz version 2.43.0 (0)
 -->
<!-- Title: Ajax/Dm/MpFlcConfig.h Pages: 1 -->
<svg width="2281pt" height="412pt"
 viewBox="0.00 0.00 2281.00 412.00" xmlns="http://www.w3.org/2000/svg" xmlns:xlink="http://www.w3.org/1999/xlink">
<g id="graph0" class="graph" transform="scale(1 1) rotate(0) translate(4 408)">
<title>Ajax/Dm/MpFlcConfig.h</title>
<!-- Node1 -->
<g id="Node000001" class="node">
<title>Node1</title>
<g id="a_Node000001"><a xlink:title=" ">
<polygon fill="#999999" stroke="#666666" points="2105.5,-404 1974.5,-404 1974.5,-385 2105.5,-385 2105.5,-404"/>
<text text-anchor="middle" x="2040" y="-392" font-family="Helvetica,sans-Serif" font-size="10.00">Ajax/Dm/MpFlcConfig.h</text>
</a>
</g>
</g>
<!-- Node2 -->
<g id="Node000002" class="node">
<title>Node2</title>
<g id="a_Node000002"><a xlink:href="_model_point_common___8h.html" target="_top" xlink:title=" ">
<polygon fill="white" stroke="#666666" points="2005.5,-349 1836.5,-349 1836.5,-330 2005.5,-330 2005.5,-349"/>
<text text-anchor="middle" x="1921" y="-337" font-family="Helvetica,sans-Serif" font-size="10.00">Cpl/Dm/ModelPointCommon_.h</text>
</a>
</g>
</g>
<!-- Node1&#45;&gt;Node2 -->
<g id="edge1_Node000001_Node000002" class="edge">
<title>Node1&#45;&gt;Node2</title>
<g id="a_edge1_Node000001_Node000002"><a xlink:title=" ">
<path fill="none" stroke="#63b8ff" d="M2020.88,-384.98C2001.65,-376.42 1971.77,-363.11 1949.69,-353.28"/>
<polygon fill="#63b8ff" stroke="#63b8ff" points="1951.03,-350.04 1940.47,-349.17 1948.18,-356.44 1951.03,-350.04"/>
</a>
</g>
</g>
<!-- Node36 -->
<g id="Node000036" class="node">
<title>Node36</title>
<g id="a_Node000036"><a xlink:href="_config_8h.html" target="_top" xlink:title=" ">
<polygon fill="white" stroke="#666666" points="2273,-129 2133,-129 2133,-110 2273,-110 2273,-129"/>
<text text-anchor="middle" x="2203" y="-117" font-family="Helvetica,sans-Serif" font-size="10.00">Ajax/Heating/Flc/Config.h</text>
</a>
</g>
</g>
<!-- Node1&#45;&gt;Node36 -->
<g id="edge65_Node000001_Node000036" class="edge">
<title>Node1&#45;&gt;Node36</title>
<g id="a_edge65_Node000001_Node000036"><a xlink:title=" ">
<path fill="none" stroke="#63b8ff" d="M2067.56,-384.98C2106.51,-371.03 2173,-339.34 2173,-285.5 2173,-285.5 2173,-285.5 2173,-228.5 2173,-195.87 2185.87,-159.65 2194.75,-138.55"/>
<polygon fill="#63b8ff" stroke="#63b8ff" points="2198.02,-139.8 2198.83,-129.23 2191.61,-136.99 2198.02,-139.8"/>
</a>
</g>
</g>
<!-- Node3 -->
<g id="Node000003" class="node">
<title>Node3</title>
<g id="a_Node000003"><a xlink:href="_model_point_8h.html" target="_top" xlink:title=" ">
<polygon fill="white" stroke="#666666" points="788.5,-239 669.5,-239 669.5,-220 788.5,-220 788.5,-239"/>
<text text-anchor="middle" x="729" y="-227" font-family="Helvetica,sans-Serif" font-size="10.00">Cpl/Dm/ModelPoint.h</text>
</a>
</g>
</g>
<!-- Node2&#45;&gt;Node3 -->
<g id="edge2_Node000002_Node000003" class="edge">
<title>Node2&#45;&gt;Node3</title>
<g id="a_edge2_Node000002_Node000003"><a xlink:title=" ">
<path fill="none" stroke="#63b8ff" d="M1836.23,-330.82C1611.71,-310.48 1004.78,-255.49 798.62,-236.81"/>
<polygon fill="#63b8ff" stroke="#63b8ff" points="798.8,-233.31 788.53,-235.89 798.17,-240.28 798.8,-233.31"/>
</a>
</g>
</g>
<!-- Node11 -->
<g id="Node000011" class="node">
<title>Node11</title>
<g id="a_Node000011"><a xlink:title=" ">
<polygon fill="#e0e0e0" stroke="#999999" points="1917.5,-19 1864.5,-19 1864.5,0 1917.5,0 1917.5,-19"/>
<text text-anchor="middle" x="1891" y="-7" font-family="Helvetica,sans-Serif" font-size="10.00">stdint.h</text>
</a>
</g>
</g>
<!-- Node2&#45;&gt;Node11 -->
<g id="edge63_Node000002_Node000011" class="edge">
<title>Node2&#45;&gt;Node11</title>
<g id="a_edge63_Node000002_Node000011"><a xlink:title=" ">
<path fill="none" stroke="#63b8ff" d="M1976.71,-329.89C2030.86,-317.98 2105,-290.69 2105,-230.5 2105,-230.5 2105,-230.5 2105,-118.5 2105,-40.02 1988.86,-18.56 1927.7,-12.7"/>
<polygon fill="#63b8ff" stroke="#63b8ff" points="1927.94,-9.2 1917.67,-11.83 1927.33,-16.18 1927.94,-9.2"/>
</a>
</g>
</g>
<!-- Node17 -->
<g id="Node000017" class="node">
<title>Node17</title>
<g id="a_Node000017"><a xlink:href="_model_database_8h.html" target="_top" xlink:title=" ">
<polygon fill="white" stroke="#666666" points="548.5,-294 407.5,-294 407.5,-275 548.5,-275 548.5,-294"/>
<text text-anchor="middle" x="478" y="-282" font-family="Helvetica,sans-Serif" font-size="10.00">Cpl/Dm/ModelDatabase.h</text>
</a>
</g>
</g>
<!-- Node2&#45;&gt;Node17 -->
<g id="edge22_Node000002_Node000017" class="edge">
<title>Node2&#45;&gt;Node17</title>
<g id="a_edge22_Node000002_Node000017"><a xlink:title=" ">
<path fill="none" stroke="#63b8ff" d="M1836.39,-335.39C1579.55,-325.96 811.09,-297.73 559.05,-288.48"/>
<polygon fill="#63b8ff" stroke="#63b8ff" points="558.99,-284.97 548.87,-288.1 558.73,-291.97 558.99,-284.97"/>
</a>
</g>
</g>
<!-- Node21 -->
<g id="Node000021" class="node">
<title>Node21</title>
<g id="a_Node000021"><a xlink:href="_subscriber_8h.html" target="_top" xlink:title=" ">
<polygon fill="white" stroke="#666666" points="1978.5,-294 1863.5,-294 1863.5,-275 1978.5,-275 1978.5,-294"/>
<text text-anchor="middle" x="1921" y="-282" font-family="Helvetica,sans-Serif" font-size="10.00">Cpl/Dm/Subscriber.h</text>
</a>
</g>
</g>
<!-- Node2&#45;&gt;Node21 -->
<g id="edge31_Node000002_Node000021" class="edge">
<title>Node2&#45;&gt;Node21</title>
<g id="a_edge31_Node000002_Node000021"><a xlink:title=" ">
<path fill="none" stroke="#63b8ff" d="M1921,-329.75C1921,-322.8 1921,-312.85 1921,-304.13"/>
<polygon fill="#63b8ff" stroke="#63b8ff" points="1924.5,-304.09 1921,-294.09 1917.5,-304.09 1924.5,-304.09"/>
</a>
</g>
</g>
<!-- Node31 -->
<g id="Node000031" class="node">
<title>Node31</title>
<g id="a_Node000031"><a xlink:href="_d_list_8h.html" target="_top" xlink:title=" ">
<polygon fill="white" stroke="#666666" points="2038.5,-74 1919.5,-74 1919.5,-55 2038.5,-55 2038.5,-74"/>
<text text-anchor="middle" x="1979" y="-62" font-family="Helvetica,sans-Serif" font-size="10.00">Cpl/Container/DList.h</text>
</a>
</g>
</g>
<!-- Node2&#45;&gt;Node31 -->
<g id="edge62_Node000002_Node000031" class="edge">
<title>Node2&#45;&gt;Node31</title>
<g id="a_edge62_Node000002_Node000031"><a xlink:title=" ">
<path fill="none" stroke="#63b8ff" d="M1944.08,-329.96C1959.54,-322.9 1978.71,-311.2 1988,-294 2025.68,-224.25 1999.1,-124.28 1985.58,-83.68"/>
<polygon fill="#63b8ff" stroke="#63b8ff" points="1988.84,-82.38 1982.26,-74.08 1982.22,-84.67 1988.84,-82.38"/>
</a>
</g>
</g>
<!-- Node34 -->
<g id="Node000034" class="node">
<title>Node34</title>
<g id="a_Node000034"><a xlink:title=" ">
<polygon fill="#e0e0e0" stroke="#999999" points="1604.5,-129 1551.5,-129 1551.5,-110 1604.5,-110 1604.5,-129"/>
<text text-anchor="middle" x="1578" y="-117" font-family="Helvetica,sans-Serif" font-size="10.00">stdlib.h</text>
</a>
</g>
</g>
<!-- Node2&#45;&gt;Node34 -->
<g id="edge64_Node000002_Node000034" class="edge">
<title>Node2&#45;&gt;Node34</title>
<g id="a_edge64_Node000002_Node000034"><a xlink:title=" ">
<path fill="none" stroke="#63b8ff" d="M1844.74,-329.97C1759.3,-315.89 1624.59,-279.07 1562,-184 1552.84,-170.09 1559.4,-151.32 1566.69,-137.79"/>
<polygon fill="#63b8ff" stroke="#63b8ff" points="1569.8,-139.4 1571.91,-129.02 1563.79,-135.82 1569.8,-139.4"/>
</a>
</g>
</g>
<!-- Node4 -->
<g id="Node000004" class="node">
<title>Node4</title>
<g id="a_Node000004"><a xlink:title=" ">
<polygon fill="#e0e0e0" stroke="#999999" points="469,-19 377,-19 377,0 469,0 469,-19"/>
<text text-anchor="middle" x="423" y="-7" font-family="Helvetica,sans-Serif" font-size="10.00">colony_config.h</text>
</a>
</g>
</g>
<!-- Node3&#45;&gt;Node4 -->
<g id="edge3_Node000003_Node000004" class="edge">
<title>Node3&#45;&gt;Node4</title>
<g id="a_edge3_Node000003_Node000004"><a xlink:title=" ">
<path fill="none" stroke="#63b8ff" d="M725.83,-219.74C713.16,-184.69 666.7,-56.43 665,-55 637.52,-31.87 541.75,-19.93 479.24,-14.46"/>
<polygon fill="#63b8ff" stroke="#63b8ff" points="479.39,-10.96 469.13,-13.6 478.8,-17.93 479.39,-10.96"/>
</a>
</g>
</g>
<!-- Node5 -->
<g id="Node000005" class="node">
<title>Node5</title>
<g id="a_Node000005"><a xlink:href="_item_8h.html" target="_top" xlink:title=" ">
<polygon fill="white" stroke="#666666" points="1220.5,-19 1103.5,-19 1103.5,0 1220.5,0 1220.5,-19"/>
<text text-anchor="middle" x="1162" y="-7" font-family="Helvetica,sans-Serif" font-size="10.00">Cpl/Container/Item.h</text>
</a>
</g>
</g>
<!-- Node3&#45;&gt;Node5 -->
<g id="edge4_Node000003_Node000005" class="edge">
<title>Node3&#45;&gt;Node5</title>
<g id="a_edge4_Node000003_Node000005"><a xlink:title=" ">
<path fill="none" stroke="#63b8ff" d="M726.84,-219.7C720.41,-191.18 704.64,-100.52 751,-55 774.9,-31.53 982.48,-18.63 1093.16,-13.36"/>
<polygon fill="#63b8ff" stroke="#63b8ff" points="1093.41,-16.85 1103.23,-12.89 1093.08,-9.86 1093.41,-16.85"/>
</a>
</g>
</g>
<!-- Node6 -->
<g id="Node000006" class="node">
<title>Node6</title>
<g id="a_Node000006"><a xlink:href="_text_2_string_8h.html" target="_top" xlink:title=" ">
<polygon fill="white" stroke="#666666" points="455,-184 359,-184 359,-165 455,-165 455,-184"/>
<text text-anchor="middle" x="407" y="-172" font-family="Helvetica,sans-Serif" font-size="10.00">Cpl/Text/String.h</text>
</a>
</g>
</g>
<!-- Node3&#45;&gt;Node6 -->
<g id="edge5_Node000003_Node000006" class="edge">
<title>Node3&#45;&gt;Node6</title>
<g id="a_edge5_Node000003_Node000006"><a xlink:title=" ">
<path fill="none" stroke="#63b8ff" d="M677.27,-219.98C619.37,-210.46 525.78,-195.05 465.33,-185.1"/>
<polygon fill="#63b8ff" stroke="#63b8ff" points="465.62,-181.6 455.19,-183.43 464.49,-188.51 465.62,-181.6"/>
</a>
</g>
</g>
<!-- Node10 -->
<g id="Node000010" class="node">
<title>Node10</title>
<g id="a_Node000010"><a xlink:title=" ">
<polygon fill="#e0e0e0" stroke="#999999" points="359,-19 303,-19 303,0 359,0 359,-19"/>
<text text-anchor="middle" x="331" y="-7" font-family="Helvetica,sans-Serif" font-size="10.00">stddef.h</text>
</a>
</g>
</g>
<!-- Node3&#45;&gt;Node10 -->
<g id="edge20_Node000003_Node000010" class="edge">
<title>Node3&#45;&gt;Node10</title>
<g id="a_edge20_Node000003_Node000010"><a xlink:title=" ">
<path fill="none" stroke="#63b8ff" d="M723.97,-220C718.69,-211.06 710.19,-196.59 703,-184 670.44,-126.98 685.23,-92.01 631,-55 536.22,9.69 486.8,-37.49 369.3,-18.98"/>
<polygon fill="#63b8ff" stroke="#63b8ff" points="369.67,-15.49 359.23,-17.26 368.5,-22.39 369.67,-15.49"/>
</a>
</g>
</g>
<!-- Node3&#45;&gt;Node11 -->
<g id="edge21_Node000003_Node000011" class="edge">
<title>Node3&#45;&gt;Node11</title>
<g id="a_edge21_Node000003_Node000011"><a xlink:title=" ">
<path fill="none" stroke="#63b8ff" d="M731.17,-219.79C736.76,-198.77 753.44,-144.43 784,-110 814.87,-75.22 828.56,-68.68 873,-55 968.12,-25.72 1682.66,-13.53 1854.1,-11.01"/>
<polygon fill="#63b8ff" stroke="#63b8ff" points="1854.2,-14.51 1864.15,-10.86 1854.1,-7.51 1854.2,-14.51"/>
</a>
</g>
</g>
<!-- Node15 -->
<g id="Node000015" class="node">
<title>Node15</title>
<g id="a_Node000015"><a xlink:href="_subscriber_api_8h.html" target="_top" xlink:title=" ">
<polygon fill="white" stroke="#666666" points="1962.5,-129 1831.5,-129 1831.5,-110 1962.5,-110 1962.5,-129"/>
<text text-anchor="middle" x="1897" y="-117" font-family="Helvetica,sans-Serif" font-size="10.00">Cpl/Dm/SubscriberApi.h</text>
</a>
</g>
</g>
<!-- Node3&#45;&gt;Node15 -->
<g id="edge16_Node000003_Node000015" class="edge">
<title>Node3&#45;&gt;Node15</title>
<g id="a_edge16_Node000003_Node000015"><a xlink:title=" ">
<path fill="none" stroke="#63b8ff" d="M788.75,-228.99C972.14,-229.99 1524.95,-229.07 1698,-184 1716.27,-179.24 1718.37,-171.77 1736,-165 1772.64,-150.93 1815.54,-139.3 1847.84,-131.46"/>
<polygon fill="#63b8ff" stroke="#63b8ff" points="1849.02,-134.78 1857.94,-129.05 1847.4,-127.97 1849.02,-134.78"/>
</a>
</g>
</g>
<!-- Node16 -->
<g id="Node000016" class="node">
<title>Node16</title>
<g id="a_Node000016"><a xlink:href="_arduino_8h_source.html" target="_top" xlink:title=" ">
<polygon fill="white" stroke="#666666" points="622.5,-184 517.5,-184 517.5,-165 622.5,-165 622.5,-184"/>
<text text-anchor="middle" x="570" y="-172" font-family="Helvetica,sans-Serif" font-size="10.00">Cpl/Json/Arduino.h</text>
</a>
</g>
</g>
<!-- Node3&#45;&gt;Node16 -->
<g id="edge19_Node000003_Node000016" class="edge">
<title>Node3&#45;&gt;Node16</title>
<g id="a_edge19_Node000003_Node000016"><a xlink:title=" ">
<path fill="none" stroke="#63b8ff" d="M703.45,-219.98C676.88,-211.13 635.06,-197.19 605.33,-187.28"/>
<polygon fill="#63b8ff" stroke="#63b8ff" points="606.34,-183.92 595.75,-184.08 604.13,-190.56 606.34,-183.92"/>
</a>
</g>
</g>
<!-- Node7 -->
<g id="Node000007" class="node">
<title>Node7</title>
<g id="a_Node000007"><a xlink:title=" ">
<polygon fill="#e0e0e0" stroke="#999999" points="551.5,-74 466.5,-74 466.5,-55 551.5,-55 551.5,-74"/>
<text text-anchor="middle" x="509" y="-62" font-family="Helvetica,sans-Serif" font-size="10.00">colony_map.h</text>
</a>
</g>
</g>
<!-- Node6&#45;&gt;Node7 -->
<g id="edge6_Node000006_Node000007" class="edge">
<title>Node6&#45;&gt;Node7</title>
<g id="a_edge6_Node000006_Node000007"><a xlink:title=" ">
<path fill="none" stroke="#63b8ff" d="M440.08,-164.87C459.24,-158.19 482.22,-146.95 496,-129 505.74,-116.31 508.67,-98.12 509.35,-84.47"/>
<polygon fill="#63b8ff" stroke="#63b8ff" points="512.85,-84.33 509.49,-74.28 505.86,-84.23 512.85,-84.33"/>
</a>
</g>
</g>
<!-- Node8 -->
<g id="Node000008" class="node">
<title>Node8</title>
<g id="a_Node000008"><a xlink:href="_key_8h.html" target="_top" xlink:title=" ">
<polygon fill="white" stroke="#666666" points="487.5,-129 376.5,-129 376.5,-110 487.5,-110 487.5,-129"/>
<text text-anchor="middle" x="432" y="-117" font-family="Helvetica,sans-Serif" font-size="10.00">Cpl/Container/Key.h</text>
</a>
</g>
</g>
<!-- Node6&#45;&gt;Node8 -->
<g id="edge7_Node000006_Node000008" class="edge">
<title>Node6&#45;&gt;Node8</title>
<g id="a_edge7_Node000006_Node000008"><a xlink:title=" ">
<path fill="none" stroke="#63b8ff" d="M411.13,-164.75C414.51,-157.57 419.42,-147.18 423.62,-138.27"/>
<polygon fill="#63b8ff" stroke="#63b8ff" points="426.85,-139.63 427.95,-129.09 420.52,-136.64 426.85,-139.63"/>
</a>
</g>
</g>
<!-- Node13 -->
<g id="Node000013" class="node">
<title>Node13</title>
<g id="a_Node000013"><a xlink:title=" ">
<polygon fill="#e0e0e0" stroke="#999999" points="358,-129 302,-129 302,-110 358,-110 358,-129"/>
<text text-anchor="middle" x="330" y="-117" font-family="Helvetica,sans-Serif" font-size="10.00">stdarg.h</text>
</a>
</g>
</g>
<!-- Node6&#45;&gt;Node13 -->
<g id="edge14_Node000006_Node000013" class="edge">
<title>Node6&#45;&gt;Node13</title>
<g id="a_edge14_Node000006_Node000013"><a xlink:title=" ">
<path fill="none" stroke="#63b8ff" d="M394.63,-164.98C382.91,-156.92 365.08,-144.65 351.11,-135.03"/>
<polygon fill="#63b8ff" stroke="#63b8ff" points="352.82,-131.96 342.6,-129.17 348.85,-137.72 352.82,-131.96"/>
</a>
</g>
</g>
<!-- Node14 -->
<g id="Node000014" class="node">
<title>Node14</title>
<g id="a_Node000014"><a xlink:title=" ">
<polygon fill="#e0e0e0" stroke="#999999" points="284,-129 224,-129 224,-110 284,-110 284,-129"/>
<text text-anchor="middle" x="254" y="-117" font-family="Helvetica,sans-Serif" font-size="10.00">iostream</text>
</a>
</g>
</g>
<!-- Node6&#45;&gt;Node14 -->
<g id="edge15_Node000006_Node000014" class="edge">
<title>Node6&#45;&gt;Node14</title>
<g id="a_edge15_Node000006_Node000014"><a xlink:title=" ">
<path fill="none" stroke="#63b8ff" d="M382.42,-164.98C356.95,-156.16 316.96,-142.31 288.37,-132.41"/>
<polygon fill="#63b8ff" stroke="#63b8ff" points="289.37,-129.05 278.77,-129.08 287.08,-135.66 289.37,-129.05"/>
</a>
</g>
</g>
<!-- Node8&#45;&gt;Node7 -->
<g id="edge13_Node000008_Node000007" class="edge">
<title>Node8&#45;&gt;Node7</title>
<g id="a_edge13_Node000008_Node000007"><a xlink:title=" ">
<path fill="none" stroke="#63b8ff" d="M444.37,-109.98C456.09,-101.92 473.92,-89.65 487.89,-80.03"/>
<polygon fill="#63b8ff" stroke="#63b8ff" points="490.15,-82.72 496.4,-74.17 486.18,-76.96 490.15,-82.72"/>
</a>
</g>
</g>
<!-- Node9 -->
<g id="Node000009" class="node">
<title>Node9</title>
<g id="a_Node000009"><a xlink:href="_fatal_error_8h.html" target="_top" xlink:title=" ">
<polygon fill="white" stroke="#666666" points="130,-74 0,-74 0,-55 130,-55 130,-74"/>
<text text-anchor="middle" x="65" y="-62" font-family="Helvetica,sans-Serif" font-size="10.00">Cpl/System/FatalError.h</text>
</a>
</g>
</g>
<!-- Node8&#45;&gt;Node9 -->
<g id="edge8_Node000008_Node000009" class="edge">
<title>Node8&#45;&gt;Node9</title>
<g id="a_edge8_Node000008_Node000009"><a xlink:title=" ">
<path fill="none" stroke="#63b8ff" d="M376.26,-110.45C311.37,-101.08 204.18,-85.6 134.07,-75.47"/>
<polygon fill="#63b8ff" stroke="#63b8ff" points="134.4,-71.99 124,-74.02 133.4,-78.91 134.4,-71.99"/>
</a>
</g>
</g>
<!-- Node8&#45;&gt;Node11 -->
<g id="edge11_Node000008_Node000011" class="edge">
<title>Node8&#45;&gt;Node11</title>
<g id="a_edge11_Node000008_Node000011"><a xlink:title=" ">
<path fill="none" stroke="#63b8ff" d="M432.54,-109.7C433.95,-95.46 438.98,-67.69 457,-55 486.43,-34.28 1632.46,-14.69 1854.1,-11.09"/>
<polygon fill="#63b8ff" stroke="#63b8ff" points="1854.3,-14.59 1864.24,-10.92 1854.18,-7.59 1854.3,-14.59"/>
</a>
</g>
</g>
<!-- Node12 -->
<g id="Node000012" class="node">
<title>Node12</title>
<g id="a_Node000012"><a xlink:title=" ">
<polygon fill="#e0e0e0" stroke="#999999" points="622.5,-74 569.5,-74 569.5,-55 622.5,-55 622.5,-74"/>
<text text-anchor="middle" x="596" y="-62" font-family="Helvetica,sans-Serif" font-size="10.00">string.h</text>
</a>
</g>
</g>
<!-- Node8&#45;&gt;Node12 -->
<g id="edge12_Node000008_Node000012" class="edge">
<title>Node8&#45;&gt;Node12</title>
<g id="a_edge12_Node000008_Node000012"><a xlink:title=" ">
<path fill="none" stroke="#63b8ff" d="M458.35,-109.98C485.76,-101.13 528.89,-87.19 559.56,-77.28"/>
<polygon fill="#63b8ff" stroke="#63b8ff" points="561,-80.49 569.44,-74.08 558.85,-73.83 561,-80.49"/>
</a>
</g>
</g>
<!-- Node9&#45;&gt;Node4 -->
<g id="edge10_Node000009_Node000004" class="edge">
<title>Node9&#45;&gt;Node4</title>
<g id="a_edge10_Node000009_Node000004"><a xlink:title=" ">
<path fill="none" stroke="#63b8ff" d="M123.96,-54.98C182.82,-46.43 276.18,-32.81 366.63,-19.2"/>
<polygon fill="#63b8ff" stroke="#63b8ff" points="367.42,-22.62 376.79,-17.67 366.38,-15.7 367.42,-22.62"/>
</a>
</g>
</g>
<!-- Node9&#45;&gt;Node10 -->
<g id="edge9_Node000009_Node000010" class="edge">
<title>Node9&#45;&gt;Node10</title>
<g id="a_edge9_Node000009_Node000010"><a xlink:title=" ">
<path fill="none" stroke="#63b8ff" d="M107.74,-54.98C158.88,-44.79 243.73,-27.89 292.78,-18.11"/>
<polygon fill="#63b8ff" stroke="#63b8ff" points="293.56,-21.53 302.68,-16.14 292.19,-14.66 293.56,-21.53"/>
</a>
</g>
</g>
<!-- Node15&#45;&gt;Node5 -->
<g id="edge17_Node000015_Node000005" class="edge">
<title>Node15&#45;&gt;Node5</title>
<g id="a_edge17_Node000015_Node000005"><a xlink:title=" ">
<path fill="none" stroke="#63b8ff" d="M1839.02,-109.98C1704.78,-90.26 1373.2,-41.53 1229.84,-20.47"/>
<polygon fill="#63b8ff" stroke="#63b8ff" points="1230.25,-16.99 1219.85,-19 1229.23,-23.92 1230.25,-16.99"/>
</a>
</g>
</g>
<!-- Node15&#45;&gt;Node11 -->
<g id="edge18_Node000015_Node000011" class="edge">
<title>Node15&#45;&gt;Node11</title>
<g id="a_edge18_Node000015_Node000011"><a xlink:title=" ">
<path fill="none" stroke="#63b8ff" d="M1896.51,-109.66C1895.54,-92.17 1893.35,-52.8 1892.04,-29.27"/>
<polygon fill="#63b8ff" stroke="#63b8ff" points="1895.53,-28.95 1891.48,-19.16 1888.54,-29.34 1895.53,-28.95"/>
</a>
</g>
</g>
<!-- Node17&#45;&gt;Node4 -->
<g id="edge23_Node000017_Node000004" class="edge">
<title>Node17&#45;&gt;Node4</title>
<g id="a_edge23_Node000017_Node000004"><a xlink:title=" ">
<path fill="none" stroke="#63b8ff" d="M407.3,-281.62C329.34,-278.1 210.5,-268 177,-239 154.73,-219.72 158,-204.96 158,-175.5 158,-175.5 158,-175.5 158,-118.5 158,-73.45 291,-38.03 368.55,-21.2"/>
<polygon fill="#63b8ff" stroke="#63b8ff" points="369.6,-24.56 378.64,-19.05 368.13,-17.71 369.6,-24.56"/>
</a>
</g>
</g>
<!-- Node17&#45;&gt;Node16 -->
<g id="edge30_Node000017_Node000016" class="edge">
<title>Node17&#45;&gt;Node16</title>
<g id="a_edge30_Node000017_Node000016"><a xlink:title=" ">
<path fill="none" stroke="#63b8ff" d="M548.68,-278.91C575.78,-273.28 604.2,-261.82 621,-239 633.81,-221.6 613.16,-202.35 594.43,-189.66"/>
<polygon fill="#63b8ff" stroke="#63b8ff" points="596.12,-186.59 585.81,-184.15 592.35,-192.48 596.12,-186.59"/>
</a>
</g>
</g>
<!-- Node18 -->
<g id="Node000018" class="node">
<title>Node18</title>
<g id="a_Node000018"><a xlink:href="_model_database_api_8h.html" target="_top" xlink:title=" ">
<polygon fill="white" stroke="#666666" points="479.5,-239 322.5,-239 322.5,-220 479.5,-220 479.5,-239"/>
<text text-anchor="middle" x="401" y="-227" font-family="Helvetica,sans-Serif" font-size="10.00">Cpl/Dm/ModelDatabaseApi.h</text>
</a>
</g>
</g>
<!-- Node17&#45;&gt;Node18 -->
<g id="edge24_Node000017_Node000018" class="edge">
<title>Node17&#45;&gt;Node18</title>
<g id="a_edge24_Node000017_Node000018"><a xlink:title=" ">
<path fill="none" stroke="#63b8ff" d="M465.63,-274.98C453.91,-266.92 436.08,-254.65 422.11,-245.03"/>
<polygon fill="#63b8ff" stroke="#63b8ff" points="423.82,-241.96 413.6,-239.17 419.85,-247.72 423.82,-241.96"/>
</a>
</g>
</g>
<!-- Node19 -->
<g id="Node000019" class="node">
<title>Node19</title>
<g id="a_Node000019"><a xlink:href="_mutex_8h.html" target="_top" xlink:title=" ">
<polygon fill="white" stroke="#666666" points="612.5,-239 497.5,-239 497.5,-220 612.5,-220 612.5,-239"/>
<text text-anchor="middle" x="555" y="-227" font-family="Helvetica,sans-Serif" font-size="10.00">Cpl/System/Mutex.h</text>
</a>
</g>
</g>
<!-- Node17&#45;&gt;Node19 -->
<g id="edge26_Node000017_Node000019" class="edge">
<title>Node17&#45;&gt;Node19</title>
<g id="a_edge26_Node000017_Node000019"><a xlink:title=" ">
<path fill="none" stroke="#63b8ff" d="M490.37,-274.98C502.09,-266.92 519.92,-254.65 533.89,-245.03"/>
<polygon fill="#63b8ff" stroke="#63b8ff" points="536.15,-247.72 542.4,-239.17 532.18,-241.96 536.15,-247.72"/>
</a>
</g>
</g>
<!-- Node20 -->
<g id="Node000020" class="node">
<title>Node20</title>
<g id="a_Node000020"><a xlink:href="_s_list_8h.html" target="_top" xlink:title=" ">
<polygon fill="white" stroke="#666666" points="304,-239 186,-239 186,-220 304,-220 304,-239"/>
<text text-anchor="middle" x="245" y="-227" font-family="Helvetica,sans-Serif" font-size="10.00">Cpl/Container/SList.h</text>
</a>
</g>
</g>
<!-- Node17&#45;&gt;Node20 -->
<g id="edge28_Node000017_Node000020" class="edge">
<title>Node17&#45;&gt;Node20</title>
<g id="a_edge28_Node000017_Node000020"><a xlink:title=" ">
<path fill="none" stroke="#63b8ff" d="M440.56,-274.98C400.35,-265.84 336.32,-251.27 292.56,-241.32"/>
<polygon fill="#63b8ff" stroke="#63b8ff" points="293.26,-237.89 282.73,-239.08 291.7,-244.71 293.26,-237.89"/>
</a>
</g>
</g>
<!-- Node18&#45;&gt;Node6 -->
<g id="edge25_Node000018_Node000006" class="edge">
<title>Node18&#45;&gt;Node6</title>
<g id="a_edge25_Node000018_Node000006"><a xlink:title=" ">
<path fill="none" stroke="#63b8ff" d="M401.99,-219.75C402.78,-212.8 403.9,-202.85 404.89,-194.13"/>
<polygon fill="#63b8ff" stroke="#63b8ff" points="408.38,-194.42 406.03,-184.09 401.42,-193.63 408.38,-194.42"/>
</a>
</g>
</g>
<!-- Node19&#45;&gt;Node7 -->
<g id="edge27_Node000019_Node000007" class="edge">
<title>Node19&#45;&gt;Node7</title>
<g id="a_edge27_Node000019_Node000007"><a xlink:title=" ">
<path fill="none" stroke="#63b8ff" d="M540.93,-219.89C529.65,-212.1 514.66,-199.48 508,-184 504.66,-176.24 507.19,-173.41 508,-165 509.56,-148.78 513.44,-145.22 515,-129 515.81,-120.59 515.57,-118.43 515,-110 514.43,-101.54 513.26,-92.24 512.11,-84.34"/>
<polygon fill="#63b8ff" stroke="#63b8ff" points="515.55,-83.67 510.55,-74.33 508.63,-84.75 515.55,-83.67"/>
</a>
</g>
</g>
<!-- Node20&#45;&gt;Node5 -->
<g id="edge29_Node000020_Node000005" class="edge">
<title>Node20&#45;&gt;Node5</title>
<g id="a_edge29_Node000020_Node000005"><a xlink:title=" ">
<path fill="none" stroke="#63b8ff" d="M238.26,-219.72C222.86,-198.55 188.42,-143.9 215,-110 269.11,-41 884,-18.03 1092.98,-12.18"/>
<polygon fill="#63b8ff" stroke="#63b8ff" points="1093.31,-15.68 1103.21,-11.9 1093.12,-8.68 1093.31,-15.68"/>
</a>
</g>
</g>
<!-- Node21&#45;&gt;Node3 -->
<g id="edge33_Node000021_Node000003" class="edge">
<title>Node21&#45;&gt;Node3</title>
<g id="a_edge33_Node000021_Node000003"><a xlink:title=" ">
<path fill="none" stroke="#63b8ff" d="M1863.1,-280.93C1664.94,-272.11 1014.21,-243.18 798.88,-233.61"/>
<polygon fill="#63b8ff" stroke="#63b8ff" points="798.81,-230.1 788.66,-233.15 798.49,-237.09 798.81,-230.1"/>
</a>
</g>
</g>
<!-- Node21&#45;&gt;Node11 -->
<g id="edge61_Node000021_Node000011" class="edge">
<title>Node21&#45;&gt;Node11</title>
<g id="a_edge61_Node000021_Node000011"><a xlink:title=" ">
<path fill="none" stroke="#63b8ff" d="M1932.79,-274.89C1974.23,-243.62 2107.53,-133.75 2048,-55 2033.51,-35.83 1969.29,-22.53 1927.61,-15.73"/>
<polygon fill="#63b8ff" stroke="#63b8ff" points="1927.96,-12.25 1917.54,-14.15 1926.87,-19.16 1927.96,-12.25"/>
</a>
</g>
</g>
<!-- Node21&#45;&gt;Node15 -->
<g id="edge32_Node000021_Node000015" class="edge">
<title>Node21&#45;&gt;Node15</title>
<g id="a_edge32_Node000021_Node000015"><a xlink:title=" ">
<path fill="none" stroke="#63b8ff" d="M1922.8,-274.68C1924.53,-265.74 1927.02,-251.48 1928,-239 1930.86,-202.41 1915.78,-161.31 1905.64,-138.4"/>
<polygon fill="#63b8ff" stroke="#63b8ff" points="1908.78,-136.85 1901.42,-129.23 1902.43,-139.78 1908.78,-136.85"/>
</a>
</g>
</g>
<!-- Node22 -->
<g id="Node000022" class="node">
<title>Node22</title>
<g id="a_Node000022"><a xlink:href="_dm_2_event_loop_8h.html" target="_top" xlink:title=" ">
<polygon fill="white" stroke="#666666" points="1919,-239 1803,-239 1803,-220 1919,-220 1919,-239"/>
<text text-anchor="middle" x="1861" y="-227" font-family="Helvetica,sans-Serif" font-size="10.00">Cpl/Dm/EventLoop.h</text>
</a>
</g>
</g>
<!-- Node21&#45;&gt;Node22 -->
<g id="edge34_Node000021_Node000022" class="edge">
<title>Node21&#45;&gt;Node22</title>
<g id="a_edge34_Node000021_Node000022"><a xlink:title=" ">
<path fill="none" stroke="#63b8ff" d="M1911.36,-274.98C1902.49,-267.15 1889.13,-255.34 1878.39,-245.86"/>
<polygon fill="#63b8ff" stroke="#63b8ff" points="1880.63,-243.17 1870.82,-239.17 1875.99,-248.41 1880.63,-243.17"/>
</a>
</g>
</g>
<!-- Node22&#45;&gt;Node15 -->
<g id="edge58_Node000022_Node000015" class="edge">
<title>Node22&#45;&gt;Node15</title>
<g id="a_edge58_Node000022_Node000015"><a xlink:title=" ">
<path fill="none" stroke="#63b8ff" d="M1870.83,-219.73C1879.3,-211.47 1890.94,-198.26 1896,-184 1901.13,-169.53 1900.98,-152.02 1899.77,-139.06"/>
<polygon fill="#63b8ff" stroke="#63b8ff" points="1903.23,-138.52 1898.54,-129.02 1896.28,-139.37 1903.23,-138.52"/>
</a>
</g>
</g>
<!-- Node23 -->
<g id="Node000023" class="node">
<title>Node23</title>
<g id="a_Node000023"><a xlink:href="_system_2_event_loop_8h.html" target="_top" xlink:title=" ">
<polygon fill="white" stroke="#666666" points="1268.5,-184 1133.5,-184 1133.5,-165 1268.5,-165 1268.5,-184"/>
<text text-anchor="middle" x="1201" y="-172" font-family="Helvetica,sans-Serif" font-size="10.00">Cpl/System/EventLoop.h</text>
</a>
</g>
</g>
<!-- Node22&#45;&gt;Node23 -->
<g id="edge35_Node000022_Node000023" class="edge">
<title>Node22&#45;&gt;Node23</title>
<g id="a_edge35_Node000022_Node000023"><a xlink:title=" ">
<path fill="none" stroke="#63b8ff" d="M1802.72,-223.82C1683.67,-214.26 1412.55,-192.49 1278.71,-181.74"/>
<polygon fill="#63b8ff" stroke="#63b8ff" points="1278.78,-178.23 1268.53,-180.92 1278.22,-185.21 1278.78,-178.23"/>
</a>
</g>
</g>
<!-- Node22&#45;&gt;Node31 -->
<g id="edge57_Node000022_Node000031" class="edge">
<title>Node22&#45;&gt;Node31</title>
<g id="a_edge57_Node000022_Node000031"><a xlink:title=" ">
<path fill="none" stroke="#63b8ff" d="M1876.44,-219.86C1901.4,-204.95 1950.05,-171.84 1972,-129 1979.04,-115.26 1980.49,-97.68 1980.35,-84.51"/>
<polygon fill="#63b8ff" stroke="#63b8ff" points="1983.84,-84.11 1979.92,-74.27 1976.85,-84.41 1983.84,-84.11"/>
</a>
</g>
</g>
<!-- Node32 -->
<g id="Node000032" class="node">
<title>Node32</title>
<g id="a_Node000032"><a xlink:href="_thread_8h.html" target="_top" xlink:title=" ">
<polygon fill="white" stroke="#666666" points="1689,-184 1571,-184 1571,-165 1689,-165 1689,-184"/>
<text text-anchor="middle" x="1630" y="-172" font-family="Helvetica,sans-Serif" font-size="10.00">Cpl/System/Thread.h</text>
</a>
</g>
</g>
<!-- Node22&#45;&gt;Node32 -->
<g id="edge51_Node000022_Node000032" class="edge">
<title>Node22&#45;&gt;Node32</title>
<g id="a_edge51_Node000022_Node000032"><a xlink:title=" ">
<path fill="none" stroke="#63b8ff" d="M1823.89,-219.98C1784.01,-210.84 1720.54,-196.27 1677.16,-186.32"/>
<polygon fill="#63b8ff" stroke="#63b8ff" points="1677.93,-182.91 1667.41,-184.08 1676.37,-189.73 1677.93,-182.91"/>
</a>
</g>
</g>
<!-- Node35 -->
<g id="Node000035" class="node">
<title>Node35</title>
<g id="a_Node000035"><a xlink:href="_notification_api___8h.html" target="_top" xlink:title=" ">
<polygon fill="white" stroke="#666666" points="1887,-184 1745,-184 1745,-165 1887,-165 1887,-184"/>
<text text-anchor="middle" x="1816" y="-172" font-family="Helvetica,sans-Serif" font-size="10.00">Cpl/Dm/NotificationApi_.h</text>
</a>
</g>
</g>
<!-- Node22&#45;&gt;Node35 -->
<g id="edge59_Node000022_Node000035" class="edge">
<title>Node22&#45;&gt;Node35</title>
<g id="a_edge59_Node000022_Node000035"><a xlink:title=" ">
<path fill="none" stroke="#63b8ff" d="M1853.57,-219.75C1847.15,-212.18 1837.69,-201.05 1829.88,-191.84"/>
<polygon fill="#63b8ff" stroke="#63b8ff" points="1832.43,-189.45 1823.29,-184.09 1827.1,-193.98 1832.43,-189.45"/>
</a>
</g>
</g>
<!-- Node24 -->
<g id="Node000024" class="node">
<title>Node24</title>
<g id="a_Node000024"><a xlink:href="_runnable_8h.html" target="_top" xlink:title=" ">
<polygon fill="white" stroke="#666666" points="1533,-129 1403,-129 1403,-110 1533,-110 1533,-129"/>
<text text-anchor="middle" x="1468" y="-117" font-family="Helvetica,sans-Serif" font-size="10.00">Cpl/System/Runnable.h</text>
</a>
</g>
</g>
<!-- Node23&#45;&gt;Node24 -->
<g id="edge36_Node000023_Node000024" class="edge">
<title>Node23&#45;&gt;Node24</title>
<g id="a_edge36_Node000023_Node000024"><a xlink:title=" ">
<path fill="none" stroke="#63b8ff" d="M1243.9,-164.98C1290.37,-155.76 1364.59,-141.03 1414.76,-131.07"/>
<polygon fill="#63b8ff" stroke="#63b8ff" points="1415.64,-134.46 1424.77,-129.08 1414.28,-127.6 1415.64,-134.46"/>
</a>
</g>
</g>
<!-- Node25 -->
<g id="Node000025" class="node">
<title>Node25</title>
<g id="a_Node000025"><a xlink:href="_semaphore_8h.html" target="_top" xlink:title=" ">
<polygon fill="white" stroke="#666666" points="1135,-129 995,-129 995,-110 1135,-110 1135,-129"/>
<text text-anchor="middle" x="1065" y="-117" font-family="Helvetica,sans-Serif" font-size="10.00">Cpl/System/Semaphore.h</text>
</a>
</g>
</g>
<!-- Node23&#45;&gt;Node25 -->
<g id="edge37_Node000023_Node000025" class="edge">
<title>Node23&#45;&gt;Node25</title>
<g id="a_edge37_Node000023_Node000025"><a xlink:title=" ">
<path fill="none" stroke="#63b8ff" d="M1179.15,-164.98C1156.88,-156.3 1122.1,-142.75 1096.78,-132.88"/>
<polygon fill="#63b8ff" stroke="#63b8ff" points="1097.84,-129.54 1087.25,-129.17 1095.29,-136.06 1097.84,-129.54"/>
</a>
</g>
</g>
<!-- Node26 -->
<g id="Node000026" class="node">
<title>Node26</title>
<g id="a_Node000026"><a xlink:href="_signable_8h.html" target="_top" xlink:title=" ">
<polygon fill="white" stroke="#666666" points="1225,-74 1099,-74 1099,-55 1225,-55 1225,-74"/>
<text text-anchor="middle" x="1162" y="-62" font-family="Helvetica,sans-Serif" font-size="10.00">Cpl/System/Signable.h</text>
</a>
</g>
</g>
<!-- Node23&#45;&gt;Node26 -->
<g id="edge41_Node000023_Node000026" class="edge">
<title>Node23&#45;&gt;Node26</title>
<g id="a_edge41_Node000023_Node000026"><a xlink:title=" ">
<path fill="none" stroke="#63b8ff" d="M1197.81,-164.66C1191.43,-147.01 1177.02,-107.09 1168.55,-83.64"/>
<polygon fill="#63b8ff" stroke="#63b8ff" points="1171.82,-82.38 1165.13,-74.16 1165.23,-84.75 1171.82,-82.38"/>
</a>
</g>
</g>
<!-- Node27 -->
<g id="Node000027" class="node">
<title>Node27</title>
<g id="a_Node000027"><a xlink:href="_event_flag_8h.html" target="_top" xlink:title=" ">
<polygon fill="white" stroke="#666666" points="1015.5,-74 882.5,-74 882.5,-55 1015.5,-55 1015.5,-74"/>
<text text-anchor="middle" x="949" y="-62" font-family="Helvetica,sans-Serif" font-size="10.00">Cpl/System/EventFlag.h</text>
</a>
</g>
</g>
<!-- Node23&#45;&gt;Node27 -->
<g id="edge42_Node000023_Node000027" class="edge">
<title>Node23&#45;&gt;Node27</title>
<g id="a_edge42_Node000023_Node000027"><a xlink:title=" ">
<path fill="none" stroke="#63b8ff" d="M1195.87,-164.99C1187.08,-151.16 1167.75,-123.97 1144,-110 1108.28,-88.99 1063.49,-77.89 1025.85,-72.04"/>
<polygon fill="#63b8ff" stroke="#63b8ff" points="1026.34,-68.57 1015.94,-70.59 1025.33,-75.5 1026.34,-68.57"/>
</a>
</g>
</g>
<!-- Node28 -->
<g id="Node000028" class="node">
<title>Node28</title>
<g id="a_Node000028"><a xlink:href="_shared_event_handler_8h.html" target="_top" xlink:title=" ">
<polygon fill="white" stroke="#666666" points="976.5,-129 793.5,-129 793.5,-110 976.5,-110 976.5,-129"/>
<text text-anchor="middle" x="885" y="-117" font-family="Helvetica,sans-Serif" font-size="10.00">Cpl/System/SharedEventHandler.h</text>
</a>
</g>
</g>
<!-- Node23&#45;&gt;Node28 -->
<g id="edge45_Node000023_Node000028" class="edge">
<title>Node23&#45;&gt;Node28</title>
<g id="a_edge45_Node000023_Node000028"><a xlink:title=" ">
<path fill="none" stroke="#63b8ff" d="M1150.23,-164.98C1094.57,-155.65 1005.29,-140.67 945.9,-130.71"/>
<polygon fill="#63b8ff" stroke="#63b8ff" points="946.35,-127.24 935.91,-129.04 945.19,-134.14 946.35,-127.24"/>
</a>
</g>
</g>
<!-- Node29 -->
<g id="Node000029" class="node">
<title>Node29</title>
<g id="a_Node000029"><a xlink:href="_timer_manager_8h.html" target="_top" xlink:title=" ">
<polygon fill="white" stroke="#666666" points="1384.5,-129 1229.5,-129 1229.5,-110 1384.5,-110 1384.5,-129"/>
<text text-anchor="middle" x="1307" y="-117" font-family="Helvetica,sans-Serif" font-size="10.00">Cpl/System/TimerManager.h</text>
</a>
</g>
</g>
<!-- Node23&#45;&gt;Node29 -->
<g id="edge47_Node000023_Node000029" class="edge">
<title>Node23&#45;&gt;Node29</title>
<g id="a_edge47_Node000023_Node000029"><a xlink:title=" ">
<path fill="none" stroke="#63b8ff" d="M1218.03,-164.98C1234.93,-156.54 1261.06,-143.47 1280.64,-133.68"/>
<polygon fill="#63b8ff" stroke="#63b8ff" points="1282.28,-136.77 1289.66,-129.17 1279.15,-130.51 1282.28,-136.77"/>
</a>
</g>
</g>
<!-- Node25&#45;&gt;Node7 -->
<g id="edge38_Node000025_Node000007" class="edge">
<title>Node25&#45;&gt;Node7</title>
<g id="a_edge38_Node000025_Node000007"><a xlink:title=" ">
<path fill="none" stroke="#63b8ff" d="M994.77,-110.95C991.47,-110.62 988.2,-110.31 985,-110 799.52,-92.29 749.78,-97.42 561.49,-74.1"/>
<polygon fill="#63b8ff" stroke="#63b8ff" points="561.9,-70.62 551.54,-72.85 561.03,-77.57 561.9,-70.62"/>
</a>
</g>
</g>
<!-- Node25&#45;&gt;Node26 -->
<g id="edge39_Node000025_Node000026" class="edge">
<title>Node25&#45;&gt;Node26</title>
<g id="a_edge39_Node000025_Node000026"><a xlink:title=" ">
<path fill="none" stroke="#63b8ff" d="M1080.58,-109.98C1095.77,-101.69 1119.1,-88.94 1136.9,-79.22"/>
<polygon fill="#63b8ff" stroke="#63b8ff" points="1139.03,-82.04 1146.13,-74.17 1135.68,-75.89 1139.03,-82.04"/>
</a>
</g>
</g>
<!-- Node26&#45;&gt;Node5 -->
<g id="edge40_Node000026_Node000005" class="edge">
<title>Node26&#45;&gt;Node5</title>
<g id="a_edge40_Node000026_Node000005"><a xlink:title=" ">
<path fill="none" stroke="#63b8ff" d="M1162,-54.75C1162,-47.8 1162,-37.85 1162,-29.13"/>
<polygon fill="#63b8ff" stroke="#63b8ff" points="1165.5,-29.09 1162,-19.09 1158.5,-29.09 1165.5,-29.09"/>
</a>
</g>
</g>
<!-- Node27&#45;&gt;Node4 -->
<g id="edge43_Node000027_Node000004" class="edge">
<title>Node27&#45;&gt;Node4</title>
<g id="a_edge43_Node000027_Node000004"><a xlink:title=" ">
<path fill="none" stroke="#63b8ff" d="M882.38,-56.79C777.72,-46.24 576.66,-25.98 478.99,-16.14"/>
<polygon fill="#63b8ff" stroke="#63b8ff" points="479.32,-12.66 469.02,-15.14 478.62,-19.62 479.32,-12.66"/>
</a>
</g>
</g>
<!-- Node27&#45;&gt;Node11 -->
<g id="edge44_Node000027_Node000011" class="edge">
<title>Node27&#45;&gt;Node11</title>
<g id="a_edge44_Node000027_Node000011"><a xlink:title=" ">
<path fill="none" stroke="#63b8ff" d="M1015.7,-59.41C1039.18,-57.99 1065.76,-56.4 1090,-55 1384.65,-37.93 1740.36,-18.63 1854.13,-12.49"/>
<polygon fill="#63b8ff" stroke="#63b8ff" points="1854.58,-15.97 1864.38,-11.93 1854.2,-8.98 1854.58,-15.97"/>
</a>
</g>
</g>
<!-- Node28&#45;&gt;Node27 -->
<g id="edge46_Node000028_Node000027" class="edge">
<title>Node28&#45;&gt;Node27</title>
<g id="a_edge46_Node000028_Node000027"><a xlink:title=" ">
<path fill="none" stroke="#63b8ff" d="M895.28,-109.98C904.84,-102.07 919.28,-90.11 930.78,-80.58"/>
<polygon fill="#63b8ff" stroke="#63b8ff" points="933.06,-83.24 938.53,-74.17 928.6,-77.85 933.06,-83.24"/>
</a>
</g>
</g>
<!-- Node30 -->
<g id="Node000030" class="node">
<title>Node30</title>
<g id="a_Node000030"><a xlink:href="_counter___8h.html" target="_top" xlink:title=" ">
<polygon fill="white" stroke="#666666" points="1371,-74 1243,-74 1243,-55 1371,-55 1371,-74"/>
<text text-anchor="middle" x="1307" y="-62" font-family="Helvetica,sans-Serif" font-size="10.00">Cpl/System/Counter_.h</text>
</a>
</g>
</g>
<!-- Node29&#45;&gt;Node30 -->
<g id="edge48_Node000029_Node000030" class="edge">
<title>Node29&#45;&gt;Node30</title>
<g id="a_edge48_Node000029_Node000030"><a xlink:title=" ">
<path fill="none" stroke="#63b8ff" d="M1307,-109.75C1307,-102.8 1307,-92.85 1307,-84.13"/>
<polygon fill="#63b8ff" stroke="#63b8ff" points="1310.5,-84.09 1307,-74.09 1303.5,-84.09 1310.5,-84.09"/>
</a>
</g>
</g>
<!-- Node29&#45;&gt;Node31 -->
<g id="edge50_Node000029_Node000031" class="edge">
<title>Node29&#45;&gt;Node31</title>
<g id="a_edge50_Node000029_Node000031"><a xlink:title=" ">
<path fill="none" stroke="#63b8ff" d="M1384.78,-110.82C1387.89,-110.54 1390.98,-110.26 1394,-110 1579.79,-93.86 1799.07,-78.04 1908.89,-70.34"/>
<polygon fill="#63b8ff" stroke="#63b8ff" points="1909.44,-73.81 1919.17,-69.63 1908.95,-66.83 1909.44,-73.81"/>
</a>
</g>
</g>
<!-- Node30&#45;&gt;Node5 -->
<g id="edge49_Node000030_Node000005" class="edge">
<title>Node30&#45;&gt;Node5</title>
<g id="a_edge49_Node000030_Node000005"><a xlink:title=" ">
<path fill="none" stroke="#63b8ff" d="M1283.7,-54.98C1259.75,-46.23 1222.22,-32.51 1195.17,-22.62"/>
<polygon fill="#63b8ff" stroke="#63b8ff" points="1196.31,-19.32 1185.72,-19.17 1193.91,-25.89 1196.31,-19.32"/>
</a>
</g>
</g>
<!-- Node32&#45;&gt;Node7 -->
<g id="edge52_Node000032_Node000007" class="edge">
<title>Node32&#45;&gt;Node7</title>
<g id="a_edge52_Node000032_Node000007"><a xlink:title=" ">
<path fill="none" stroke="#63b8ff" d="M1630.76,-164.83C1631.45,-150.78 1630.46,-123.28 1614,-110 1570.01,-74.5 683.99,-79.42 561.76,-73.69"/>
<polygon fill="#63b8ff" stroke="#63b8ff" points="561.73,-70.18 551.52,-73.01 561.27,-77.16 561.73,-70.18"/>
</a>
</g>
</g>
<!-- Node32&#45;&gt;Node24 -->
<g id="edge53_Node000032_Node000024" class="edge">
<title>Node32&#45;&gt;Node24</title>
<g id="a_edge53_Node000032_Node000024"><a xlink:title=" ">
<path fill="none" stroke="#63b8ff" d="M1603.97,-164.98C1576.89,-156.13 1534.29,-142.19 1503.99,-132.28"/>
<polygon fill="#63b8ff" stroke="#63b8ff" points="1504.82,-128.87 1494.23,-129.08 1502.65,-135.52 1504.82,-128.87"/>
</a>
</g>
</g>
<!-- Node32&#45;&gt;Node26 -->
<g id="edge54_Node000032_Node000026" class="edge">
<title>Node32&#45;&gt;Node26</title>
<g id="a_edge54_Node000032_Node000026"><a xlink:title=" ">
<path fill="none" stroke="#63b8ff" d="M1636.64,-164.93C1646.2,-151.51 1661.19,-125.48 1647,-110 1617.46,-77.77 1313.17,-78.53 1235.63,-73.87"/>
<polygon fill="#63b8ff" stroke="#63b8ff" points="1235.44,-70.35 1225.2,-73.07 1234.91,-77.33 1235.44,-70.35"/>
</a>
</g>
</g>
<!-- Node33 -->
<g id="Node000033" class="node">
<title>Node33</title>
<g id="a_Node000033"><a xlink:href="_traverser_8h.html" target="_top" xlink:title=" ">
<polygon fill="white" stroke="#666666" points="1813,-129 1699,-129 1699,-110 1813,-110 1813,-129"/>
<text text-anchor="middle" x="1756" y="-117" font-family="Helvetica,sans-Serif" font-size="10.00">Cpl/Type/Traverser.h</text>
</a>
</g>
</g>
<!-- Node32&#45;&gt;Node33 -->
<g id="edge55_Node000032_Node000033" class="edge">
<title>Node32&#45;&gt;Node33</title>
<g id="a_edge55_Node000032_Node000033"><a xlink:title=" ">
<path fill="none" stroke="#63b8ff" d="M1650.24,-164.98C1670.7,-156.38 1702.53,-142.99 1725.93,-133.15"/>
<polygon fill="#63b8ff" stroke="#63b8ff" points="1727.53,-136.27 1735.39,-129.17 1724.81,-129.82 1727.53,-136.27"/>
</a>
</g>
</g>
<!-- Node32&#45;&gt;Node34 -->
<g id="edge56_Node000032_Node000034" class="edge">
<title>Node32&#45;&gt;Node34</title>
<g id="a_edge56_Node000032_Node000034"><a xlink:title=" ">
<path fill="none" stroke="#63b8ff" d="M1621.41,-164.75C1613.84,-157.03 1602.62,-145.6 1593.49,-136.28"/>
<polygon fill="#63b8ff" stroke="#63b8ff" points="1595.93,-133.78 1586.43,-129.09 1590.93,-138.68 1595.93,-133.78"/>
</a>
</g>
</g>
<!-- Node35&#45;&gt;Node15 -->
<g id="edge60_Node000035_Node000015" class="edge">
<title>Node35&#45;&gt;Node15</title>
<g id="a_edge60_Node000035_Node000015"><a xlink:title=" ">
<path fill="none" stroke="#63b8ff" d="M1829.01,-164.98C1841.46,-156.84 1860.46,-144.41 1875.21,-134.76"/>
<polygon fill="#63b8ff" stroke="#63b8ff" points="1877.3,-137.57 1883.75,-129.17 1873.46,-131.72 1877.3,-137.57"/>
</a>
</g>
</g>
<!-- Node36&#45;&gt;Node11 -->
<g id="edge66_Node000036_Node000011" class="edge">
<title>Node36&#45;&gt;Node11</title>
<g id="a_edge66_Node000036_Node000011"><a xlink:title=" ">
<path fill="none" stroke="#63b8ff" d="M2194.56,-109.96C2180.32,-96.1 2150.05,-68.87 2119,-55 2055.63,-26.7 1974.42,-16.34 1928,-12.59"/>
<polygon fill="#63b8ff" stroke="#63b8ff" points="1928.04,-9.08 1917.81,-11.82 1927.52,-16.06 1928.04,-9.08"/>
</a>
</g>
</g>
<!-- Node36&#45;&gt;Node12 -->
<g id="edge67_Node000036_Node000012" class="edge">
<title>Node36&#45;&gt;Node12</title>
<g id="a_edge67_Node000036_Node000012"><a xlink:title=" ">
<path fill="none" stroke="#63b8ff" d="M2133,-115.84C2087.2,-114.12 2026.04,-111.87 1972,-110 1440.19,-91.62 792.68,-71.55 632.93,-66.63"/>
<polygon fill="#63b8ff" stroke="#63b8ff" points="632.8,-63.13 622.7,-66.32 632.58,-70.13 632.8,-63.13"/>
</a>
</g>
</g>
</g>
</svg>
