<?xml version="1.0" encoding="UTF-8" standalone="no"?>
<!DOCTYPE svg PUBLIC "-//W3C//DTD SVG 1.1//EN"
 "http://www.w3.org/Graphics/SVG/1.1/DTD/svg11.dtd">
<!-- Generated by graphviz version 9.0.0 (20230911.1827)
 -->
<!-- Title: Ajax/Dm/MpFanMode.h Pages: 1 -->
<svg width="1908pt" height="469pt"
 viewBox="0.00 0.00 1908.00 469.25" xmlns="http://www.w3.org/2000/svg" xmlns:xlink="http://www.w3.org/1999/xlink">
<g id="graph0" class="graph" transform="scale(1 1) rotate(0) translate(4 465.25)">
<title>Ajax/Dm/MpFanMode.h</title>
<!-- Node1 -->
<g id="Node000001" class="node">
<title>Node1</title>
<g id="a_Node000001"><a xlink:title=" ">
<polygon fill="#999999" stroke="#666666" points="1381.62,-461.25 1264.38,-461.25 1264.38,-442 1381.62,-442 1381.62,-461.25"/>
<text text-anchor="middle" x="1323" y="-447.75" font-family="Helvetica,sans-Serif" font-size="10.00">Ajax/Dm/MpFanMode.h</text>
</a>
</g>
</g>
<!-- Node2 -->
<g id="Node000002" class="node">
<title>Node2</title>
<g id="a_Node000002"><a xlink:href="_fan_mode_8h.html" target="_top" xlink:title=" ">
<polygon fill="white" stroke="#666666" points="1443.88,-406 1334.12,-406 1334.12,-386.75 1443.88,-386.75 1443.88,-406"/>
<text text-anchor="middle" x="1389" y="-392.5" font-family="Helvetica,sans-Serif" font-size="10.00">Ajax/Type/FanMode.h</text>
</a>
</g>
</g>
<!-- Node1&#45;&gt;Node2 -->
<g id="edge1_Node000001_Node000002" class="edge">
<title>Node1&#45;&gt;Node2</title>
<g id="a_edge1_Node000001_Node000002"><a xlink:title=" ">
<path fill="none" stroke="#63b8ff" d="M1334.2,-441.59C1343.74,-433.9 1357.67,-422.65 1369.11,-413.43"/>
<polygon fill="#63b8ff" stroke="#63b8ff" points="1371.21,-416.23 1376.79,-407.23 1366.81,-410.78 1371.21,-416.23"/>
</a>
</g>
</g>
<!-- Node5 -->
<g id="Node000005" class="node">
<title>Node5</title>
<g id="a_Node000005"><a xlink:href="_enum___8h.html" target="_top" xlink:title=" ">
<polygon fill="white" stroke="#666666" points="1312.62,-406 1207.38,-406 1207.38,-386.75 1312.62,-386.75 1312.62,-406"/>
<text text-anchor="middle" x="1260" y="-392.5" font-family="Helvetica,sans-Serif" font-size="10.00">Cpl/Dm/Mp/Enum_.h</text>
</a>
</g>
</g>
<!-- Node1&#45;&gt;Node5 -->
<g id="edge4_Node000001_Node000005" class="edge">
<title>Node1&#45;&gt;Node5</title>
<g id="a_edge4_Node000001_Node000005"><a xlink:title=" ">
<path fill="none" stroke="#63b8ff" d="M1312.31,-441.59C1303.3,-433.97 1290.17,-422.87 1279.32,-413.7"/>
<polygon fill="#63b8ff" stroke="#63b8ff" points="1281.58,-411.03 1271.69,-407.25 1277.06,-416.38 1281.58,-411.03"/>
</a>
</g>
</g>
<!-- Node3 -->
<g id="Node000003" class="node">
<title>Node3</title>
<g id="a_Node000003"><a xlink:href="enum_8h_source.html" target="_top" xlink:title=" ">
<polygon fill="white" stroke="#666666" points="1690.38,-350.75 1601.62,-350.75 1601.62,-331.5 1690.38,-331.5 1690.38,-350.75"/>
<text text-anchor="middle" x="1646" y="-337.25" font-family="Helvetica,sans-Serif" font-size="10.00">Cpl/Type/enum.h</text>
</a>
</g>
</g>
<!-- Node2&#45;&gt;Node3 -->
<g id="edge2_Node000002_Node000003" class="edge">
<title>Node2&#45;&gt;Node3</title>
<g id="a_edge2_Node000002_Node000003"><a xlink:title=" ">
<path fill="none" stroke="#63b8ff" d="M1432.89,-386.28C1476.59,-377.23 1543.81,-363.3 1591.04,-353.51"/>
<polygon fill="#63b8ff" stroke="#63b8ff" points="1591.73,-356.94 1600.81,-351.49 1590.31,-350.09 1591.73,-356.94"/>
</a>
</g>
</g>
<!-- Node4 -->
<g id="Node000004" class="node">
<title>Node4</title>
<g id="a_Node000004"><a xlink:title=" ">
<polygon fill="#e0e0e0" stroke="#999999" points="1865,-19.25 1783,-19.25 1783,0 1865,0 1865,-19.25"/>
<text text-anchor="middle" x="1824" y="-5.75" font-family="Helvetica,sans-Serif" font-size="10.00">colony_config.h</text>
</a>
</g>
</g>
<!-- Node3&#45;&gt;Node4 -->
<g id="edge3_Node000003_Node000004" class="edge">
<title>Node3&#45;&gt;Node4</title>
<g id="a_edge3_Node000003_Node000004"><a xlink:title=" ">
<path fill="none" stroke="#63b8ff" d="M1690.83,-340.29C1763.74,-337.94 1900,-321.53 1900,-231.62 1900,-231.62 1900,-231.62 1900,-119.12 1900,-80.52 1867.32,-45.89 1844.82,-26.62"/>
<polygon fill="#63b8ff" stroke="#63b8ff" points="1847.33,-24.16 1837.38,-20.52 1842.89,-29.57 1847.33,-24.16"/>
</a>
</g>
</g>
<!-- Node6 -->
<g id="Node000006" class="node">
<title>Node6</title>
<g id="a_Node000006"><a xlink:href="_model_point_common___8h.html" target="_top" xlink:title=" ">
<polygon fill="white" stroke="#666666" points="1329.88,-350.75 1178.12,-350.75 1178.12,-331.5 1329.88,-331.5 1329.88,-350.75"/>
<text text-anchor="middle" x="1254" y="-337.25" font-family="Helvetica,sans-Serif" font-size="10.00">Cpl/Dm/ModelPointCommon_.h</text>
</a>
</g>
</g>
<!-- Node5&#45;&gt;Node6 -->
<g id="edge5_Node000005_Node000006" class="edge">
<title>Node5&#45;&gt;Node6</title>
<g id="a_edge5_Node000005_Node000006"><a xlink:title=" ">
<path fill="none" stroke="#63b8ff" d="M1259.01,-386.58C1258.27,-379.99 1257.22,-370.71 1256.28,-362.32"/>
<polygon fill="#63b8ff" stroke="#63b8ff" points="1259.78,-362.16 1255.18,-352.61 1252.82,-362.94 1259.78,-362.16"/>
</a>
</g>
</g>
<!-- Node7 -->
<g id="Node000007" class="node">
<title>Node7</title>
<g id="a_Node000007"><a xlink:href="_model_point_8h.html" target="_top" xlink:title=" ">
<polygon fill="white" stroke="#666666" points="1389.75,-240.25 1282.25,-240.25 1282.25,-221 1389.75,-221 1389.75,-240.25"/>
<text text-anchor="middle" x="1336" y="-226.75" font-family="Helvetica,sans-Serif" font-size="10.00">Cpl/Dm/ModelPoint.h</text>
</a>
</g>
</g>
<!-- Node6&#45;&gt;Node7 -->
<g id="edge6_Node000006_Node000007" class="edge">
<title>Node6&#45;&gt;Node7</title>
<g id="a_edge6_Node000006_Node000007"><a xlink:title=" ">
<path fill="none" stroke="#63b8ff" d="M1260.71,-331.25C1274.16,-313.44 1304.67,-273.08 1322.44,-249.56"/>
<polygon fill="#63b8ff" stroke="#63b8ff" points="1325.05,-251.92 1328.28,-241.83 1319.46,-247.7 1325.05,-251.92"/>
</a>
</g>
</g>
<!-- Node14 -->
<g id="Node000014" class="node">
<title>Node14</title>
<g id="a_Node000014"><a xlink:title=" ">
<polygon fill="#e0e0e0" stroke="#999999" points="299.75,-19.25 252.25,-19.25 252.25,0 299.75,0 299.75,-19.25"/>
<text text-anchor="middle" x="276" y="-5.75" font-family="Helvetica,sans-Serif" font-size="10.00">stdint.h</text>
</a>
</g>
</g>
<!-- Node6&#45;&gt;Node14 -->
<g id="edge67_Node000006_Node000014" class="edge">
<title>Node6&#45;&gt;Node14</title>
<g id="a_edge67_Node000006_Node000014"><a xlink:title=" ">
<path fill="none" stroke="#63b8ff" d="M1177.65,-339.62C967.52,-337.8 383.76,-329.72 195,-295.5 105.26,-279.23 0,-322.82 0,-231.62 0,-231.62 0,-231.62 0,-119.12 0,-82.8 19.96,-74.13 51,-55.25 110.63,-18.99 194.06,-11.46 240.76,-10.32"/>
<polygon fill="#63b8ff" stroke="#63b8ff" points="240.62,-13.82 250.57,-10.17 240.51,-6.82 240.62,-13.82"/>
</a>
</g>
</g>
<!-- Node20 -->
<g id="Node000020" class="node">
<title>Node20</title>
<g id="a_Node000020"><a xlink:href="_model_database_8h.html" target="_top" xlink:title=" ">
<polygon fill="white" stroke="#666666" points="1634.12,-295.5 1507.88,-295.5 1507.88,-276.25 1634.12,-276.25 1634.12,-295.5"/>
<text text-anchor="middle" x="1571" y="-282" font-family="Helvetica,sans-Serif" font-size="10.00">Cpl/Dm/ModelDatabase.h</text>
</a>
</g>
</g>
<!-- Node6&#45;&gt;Node20 -->
<g id="edge26_Node000006_Node000020" class="edge">
<title>Node6&#45;&gt;Node20</title>
<g id="a_edge26_Node000006_Node000020"><a xlink:title=" ">
<path fill="none" stroke="#63b8ff" d="M1308.13,-331.03C1362.76,-321.86 1447.16,-307.68 1505.52,-297.88"/>
<polygon fill="#63b8ff" stroke="#63b8ff" points="1506.05,-301.33 1515.33,-296.23 1504.89,-294.43 1506.05,-301.33"/>
</a>
</g>
</g>
<!-- Node24 -->
<g id="Node000024" class="node">
<title>Node24</title>
<g id="a_Node000024"><a xlink:href="_subscriber_8h.html" target="_top" xlink:title=" ">
<polygon fill="white" stroke="#666666" points="309.62,-295.5 204.38,-295.5 204.38,-276.25 309.62,-276.25 309.62,-295.5"/>
<text text-anchor="middle" x="257" y="-282" font-family="Helvetica,sans-Serif" font-size="10.00">Cpl/Dm/Subscriber.h</text>
</a>
</g>
</g>
<!-- Node6&#45;&gt;Node24 -->
<g id="edge35_Node000006_Node000024" class="edge">
<title>Node6&#45;&gt;Node24</title>
<g id="a_edge35_Node000006_Node000024"><a xlink:title=" ">
<path fill="none" stroke="#63b8ff" d="M1177.91,-338.54C1019.01,-334.77 640.4,-323.41 324,-295.5 323.15,-295.42 322.29,-295.35 321.42,-295.27"/>
<polygon fill="#63b8ff" stroke="#63b8ff" points="321.8,-291.79 311.49,-294.25 321.08,-298.75 321.8,-291.79"/>
</a>
</g>
</g>
<!-- Node34 -->
<g id="Node000034" class="node">
<title>Node34</title>
<g id="a_Node000034"><a xlink:href="_d_list_8h.html" target="_top" xlink:title=" ">
<polygon fill="white" stroke="#666666" points="349.12,-74.5 240.88,-74.5 240.88,-55.25 349.12,-55.25 349.12,-74.5"/>
<text text-anchor="middle" x="295" y="-61" font-family="Helvetica,sans-Serif" font-size="10.00">Cpl/Container/DList.h</text>
</a>
</g>
</g>
<!-- Node6&#45;&gt;Node34 -->
<g id="edge66_Node000006_Node000034" class="edge">
<title>Node6&#45;&gt;Node34</title>
<g id="a_edge66_Node000006_Node000034"><a xlink:title=" ">
<path fill="none" stroke="#63b8ff" d="M1177.71,-336.4C1031.12,-326.9 702.35,-294.16 451,-185 393.43,-160 337.95,-109.31 311.35,-82.84"/>
<polygon fill="#63b8ff" stroke="#63b8ff" points="314.06,-80.6 304.54,-75.94 309.08,-85.51 314.06,-80.6"/>
</a>
</g>
</g>
<!-- Node37 -->
<g id="Node000037" class="node">
<title>Node37</title>
<g id="a_Node000037"><a xlink:title=" ">
<polygon fill="#e0e0e0" stroke="#999999" points="1346.38,-129.75 1299.62,-129.75 1299.62,-110.5 1346.38,-110.5 1346.38,-129.75"/>
<text text-anchor="middle" x="1323" y="-116.25" font-family="Helvetica,sans-Serif" font-size="10.00">stdlib.h</text>
</a>
</g>
</g>
<!-- Node6&#45;&gt;Node37 -->
<g id="edge68_Node000006_Node000037" class="edge">
<title>Node6&#45;&gt;Node37</title>
<g id="a_edge68_Node000006_Node000037"><a xlink:title=" ">
<path fill="none" stroke="#63b8ff" d="M1254.49,-331.24C1255.79,-311.15 1260.18,-260.87 1273,-221 1282.57,-191.23 1299.92,-159.34 1311.46,-139.81"/>
<polygon fill="#63b8ff" stroke="#63b8ff" points="1314.37,-141.75 1316.54,-131.38 1308.38,-138.13 1314.37,-141.75"/>
</a>
</g>
</g>
<!-- Node7&#45;&gt;Node4 -->
<g id="edge7_Node000007_Node000004" class="edge">
<title>Node7&#45;&gt;Node4</title>
<g id="a_edge7_Node000007_Node000004"><a xlink:title=" ">
<path fill="none" stroke="#63b8ff" d="M1389.99,-224.59C1481.52,-215.77 1659.81,-197.32 1686,-185 1754.24,-152.9 1798.68,-68.27 1815.92,-29.96"/>
<polygon fill="#63b8ff" stroke="#63b8ff" points="1819.1,-31.42 1819.87,-20.85 1812.68,-28.63 1819.1,-31.42"/>
</a>
</g>
</g>
<!-- Node8 -->
<g id="Node000008" class="node">
<title>Node8</title>
<g id="a_Node000008"><a xlink:href="_item_8h.html" target="_top" xlink:title=" ">
<polygon fill="white" stroke="#666666" points="935.25,-19.25 830.75,-19.25 830.75,0 935.25,0 935.25,-19.25"/>
<text text-anchor="middle" x="883" y="-5.75" font-family="Helvetica,sans-Serif" font-size="10.00">Cpl/Container/Item.h</text>
</a>
</g>
</g>
<!-- Node7&#45;&gt;Node8 -->
<g id="edge8_Node000007_Node000008" class="edge">
<title>Node7&#45;&gt;Node8</title>
<g id="a_edge8_Node000007_Node000008"><a xlink:title=" ">
<path fill="none" stroke="#63b8ff" d="M1339.08,-220.77C1347.4,-196.14 1368.78,-127.5 1355,-110.5 1304.28,-47.92 1063.32,-23 946.63,-14.47"/>
<polygon fill="#63b8ff" stroke="#63b8ff" points="947.13,-11 936.9,-13.78 946.63,-17.98 947.13,-11"/>
</a>
</g>
</g>
<!-- Node9 -->
<g id="Node000009" class="node">
<title>Node9</title>
<g id="a_Node000009"><a xlink:href="_text_2_string_8h.html" target="_top" xlink:title=" ">
<polygon fill="white" stroke="#666666" points="1677,-185 1589,-185 1589,-165.75 1677,-165.75 1677,-185"/>
<text text-anchor="middle" x="1633" y="-171.5" font-family="Helvetica,sans-Serif" font-size="10.00">Cpl/Text/String.h</text>
</a>
</g>
</g>
<!-- Node7&#45;&gt;Node9 -->
<g id="edge9_Node000007_Node000009" class="edge">
<title>Node7&#45;&gt;Node9</title>
<g id="a_edge9_Node000007_Node000009"><a xlink:title=" ">
<path fill="none" stroke="#63b8ff" d="M1386.72,-220.53C1439.77,-211.02 1522.8,-196.13 1577.56,-186.32"/>
<polygon fill="#63b8ff" stroke="#63b8ff" points="1578.07,-189.78 1587.3,-184.57 1576.84,-182.89 1578.07,-189.78"/>
</a>
</g>
</g>
<!-- Node13 -->
<g id="Node000013" class="node">
<title>Node13</title>
<g id="a_Node000013"><a xlink:title=" ">
<polygon fill="#e0e0e0" stroke="#999999" points="1565.25,-19.25 1514.75,-19.25 1514.75,0 1565.25,0 1565.25,-19.25"/>
<text text-anchor="middle" x="1540" y="-5.75" font-family="Helvetica,sans-Serif" font-size="10.00">stddef.h</text>
</a>
</g>
</g>
<!-- Node7&#45;&gt;Node13 -->
<g id="edge24_Node000007_Node000013" class="edge">
<title>Node7&#45;&gt;Node13</title>
<g id="a_edge24_Node000007_Node000013"><a xlink:title=" ">
<path fill="none" stroke="#63b8ff" d="M1341.15,-220.77C1357.3,-193.55 1409.4,-109.69 1469,-55.25 1481.85,-43.51 1498.18,-33.01 1511.94,-25.14"/>
<polygon fill="#63b8ff" stroke="#63b8ff" points="1513.47,-28.3 1520.53,-20.4 1510.08,-22.17 1513.47,-28.3"/>
</a>
</g>
</g>
<!-- Node7&#45;&gt;Node14 -->
<g id="edge25_Node000007_Node000014" class="edge">
<title>Node7&#45;&gt;Node14</title>
<g id="a_edge25_Node000007_Node000014"><a xlink:title=" ">
<path fill="none" stroke="#63b8ff" d="M1281.89,-229.78C1160.76,-229.37 858.87,-224.12 610,-185 512.11,-169.61 470.7,-192.48 394,-129.75 365.53,-106.47 383.37,-81.87 358,-55.25 344.79,-41.39 326.31,-30.82 310.24,-23.45"/>
<polygon fill="#63b8ff" stroke="#63b8ff" points="312.06,-20.43 301.5,-19.67 309.29,-26.85 312.06,-20.43"/>
</a>
</g>
</g>
<!-- Node18 -->
<g id="Node000018" class="node">
<title>Node18</title>
<g id="a_Node000018"><a xlink:href="_subscriber_api_8h.html" target="_top" xlink:title=" ">
<polygon fill="white" stroke="#666666" points="253.75,-129.75 134.25,-129.75 134.25,-110.5 253.75,-110.5 253.75,-129.75"/>
<text text-anchor="middle" x="194" y="-116.25" font-family="Helvetica,sans-Serif" font-size="10.00">Cpl/Dm/SubscriberApi.h</text>
</a>
</g>
</g>
<!-- Node7&#45;&gt;Node18 -->
<g id="edge20_Node000007_Node000018" class="edge">
<title>Node7&#45;&gt;Node18</title>
<g id="a_edge20_Node000007_Node000018"><a xlink:title=" ">
<path fill="none" stroke="#63b8ff" d="M1281.8,-228.87C1108.57,-226.15 569.56,-215.42 398,-185 336.01,-174.01 266.59,-149.53 226.81,-134.27"/>
<polygon fill="#63b8ff" stroke="#63b8ff" points="228.17,-131.05 217.58,-130.69 225.64,-137.57 228.17,-131.05"/>
</a>
</g>
</g>
<!-- Node19 -->
<g id="Node000019" class="node">
<title>Node19</title>
<g id="a_Node000019"><a xlink:href="_arduino_8h_source.html" target="_top" xlink:title=" ">
<polygon fill="white" stroke="#666666" points="1499.88,-185 1402.12,-185 1402.12,-165.75 1499.88,-165.75 1499.88,-185"/>
<text text-anchor="middle" x="1451" y="-171.5" font-family="Helvetica,sans-Serif" font-size="10.00">Cpl/Json/Arduino.h</text>
</a>
</g>
</g>
<!-- Node7&#45;&gt;Node19 -->
<g id="edge23_Node000007_Node000019" class="edge">
<title>Node7&#45;&gt;Node19</title>
<g id="a_edge23_Node000007_Node000019"><a xlink:title=" ">
<path fill="none" stroke="#63b8ff" d="M1355.51,-220.59C1373.52,-212.25 1400.52,-199.75 1421.23,-190.16"/>
<polygon fill="#63b8ff" stroke="#63b8ff" points="1422.42,-193.47 1430.02,-186.09 1419.48,-187.11 1422.42,-193.47"/>
</a>
</g>
</g>
<!-- Node10 -->
<g id="Node000010" class="node">
<title>Node10</title>
<g id="a_Node000010"><a xlink:title=" ">
<polygon fill="#e0e0e0" stroke="#999999" points="1553.62,-74.5 1478.38,-74.5 1478.38,-55.25 1553.62,-55.25 1553.62,-74.5"/>
<text text-anchor="middle" x="1516" y="-61" font-family="Helvetica,sans-Serif" font-size="10.00">colony_map.h</text>
</a>
</g>
</g>
<!-- Node9&#45;&gt;Node10 -->
<g id="edge10_Node000009_Node000010" class="edge">
<title>Node9&#45;&gt;Node10</title>
<g id="a_edge10_Node000009_Node000010"><a xlink:title=" ">
<path fill="none" stroke="#63b8ff" d="M1669.63,-165.33C1704.75,-154.91 1749.64,-135.91 1729,-110.5 1726.39,-107.28 1627.17,-87.49 1565.09,-75.37"/>
<polygon fill="#63b8ff" stroke="#63b8ff" points="1565.93,-71.97 1555.44,-73.49 1564.59,-78.84 1565.93,-71.97"/>
</a>
</g>
</g>
<!-- Node11 -->
<g id="Node000011" class="node">
<title>Node11</title>
<g id="a_Node000011"><a xlink:href="_key_8h.html" target="_top" xlink:title=" ">
<polygon fill="white" stroke="#666666" points="1579.75,-129.75 1478.25,-129.75 1478.25,-110.5 1579.75,-110.5 1579.75,-129.75"/>
<text text-anchor="middle" x="1529" y="-116.25" font-family="Helvetica,sans-Serif" font-size="10.00">Cpl/Container/Key.h</text>
</a>
</g>
</g>
<!-- Node9&#45;&gt;Node11 -->
<g id="edge11_Node000009_Node000011" class="edge">
<title>Node9&#45;&gt;Node11</title>
<g id="a_edge11_Node000009_Node000011"><a xlink:title=" ">
<path fill="none" stroke="#63b8ff" d="M1615.36,-165.34C1599.37,-157.16 1575.54,-144.96 1556.96,-135.44"/>
<polygon fill="#63b8ff" stroke="#63b8ff" points="1558.57,-132.33 1548.08,-130.89 1555.38,-138.57 1558.57,-132.33"/>
</a>
</g>
</g>
<!-- Node16 -->
<g id="Node000016" class="node">
<title>Node16</title>
<g id="a_Node000016"><a xlink:title=" ">
<polygon fill="#e0e0e0" stroke="#999999" points="1720.25,-129.75 1669.75,-129.75 1669.75,-110.5 1720.25,-110.5 1720.25,-129.75"/>
<text text-anchor="middle" x="1695" y="-116.25" font-family="Helvetica,sans-Serif" font-size="10.00">stdarg.h</text>
</a>
</g>
</g>
<!-- Node9&#45;&gt;Node16 -->
<g id="edge18_Node000009_Node000016" class="edge">
<title>Node9&#45;&gt;Node16</title>
<g id="a_edge18_Node000009_Node000016"><a xlink:title=" ">
<path fill="none" stroke="#63b8ff" d="M1643.52,-165.34C1652.39,-157.72 1665.31,-146.62 1675.99,-137.45"/>
<polygon fill="#63b8ff" stroke="#63b8ff" points="1678.18,-140.18 1683.49,-131.01 1673.62,-134.87 1678.18,-140.18"/>
</a>
</g>
</g>
<!-- Node17 -->
<g id="Node000017" class="node">
<title>Node17</title>
<g id="a_Node000017"><a xlink:title=" ">
<polygon fill="#e0e0e0" stroke="#999999" points="1651.75,-129.75 1598.25,-129.75 1598.25,-110.5 1651.75,-110.5 1651.75,-129.75"/>
<text text-anchor="middle" x="1625" y="-116.25" font-family="Helvetica,sans-Serif" font-size="10.00">iostream</text>
</a>
</g>
</g>
<!-- Node9&#45;&gt;Node17 -->
<g id="edge19_Node000009_Node000017" class="edge">
<title>Node9&#45;&gt;Node17</title>
<g id="a_edge19_Node000009_Node000017"><a xlink:title=" ">
<path fill="none" stroke="#63b8ff" d="M1631.68,-165.58C1630.69,-158.99 1629.29,-149.71 1628.03,-141.32"/>
<polygon fill="#63b8ff" stroke="#63b8ff" points="1631.52,-140.97 1626.57,-131.61 1624.6,-142.01 1631.52,-140.97"/>
</a>
</g>
</g>
<!-- Node11&#45;&gt;Node10 -->
<g id="edge17_Node000011_Node000010" class="edge">
<title>Node11&#45;&gt;Node10</title>
<g id="a_edge17_Node000011_Node000010"><a xlink:title=" ">
<path fill="none" stroke="#63b8ff" d="M1526.85,-110.33C1525.23,-103.67 1522.92,-94.24 1520.86,-85.78"/>
<polygon fill="#63b8ff" stroke="#63b8ff" points="1524.32,-85.21 1518.55,-76.33 1517.52,-86.87 1524.32,-85.21"/>
</a>
</g>
</g>
<!-- Node12 -->
<g id="Node000012" class="node">
<title>Node12</title>
<g id="a_Node000012"><a xlink:href="_fatal_error_8h.html" target="_top" xlink:title=" ">
<polygon fill="white" stroke="#666666" points="1690.38,-74.5 1571.62,-74.5 1571.62,-55.25 1690.38,-55.25 1690.38,-74.5"/>
<text text-anchor="middle" x="1631" y="-61" font-family="Helvetica,sans-Serif" font-size="10.00">Cpl/System/FatalError.h</text>
</a>
</g>
</g>
<!-- Node11&#45;&gt;Node12 -->
<g id="edge12_Node000011_Node000012" class="edge">
<title>Node11&#45;&gt;Node12</title>
<g id="a_edge12_Node000011_Node000012"><a xlink:title=" ">
<path fill="none" stroke="#63b8ff" d="M1546.3,-110.09C1561.98,-101.91 1585.35,-89.71 1603.58,-80.19"/>
<polygon fill="#63b8ff" stroke="#63b8ff" points="1605.03,-83.38 1612.27,-75.65 1601.79,-77.18 1605.03,-83.38"/>
</a>
</g>
</g>
<!-- Node11&#45;&gt;Node14 -->
<g id="edge15_Node000011_Node000014" class="edge">
<title>Node11&#45;&gt;Node14</title>
<g id="a_edge15_Node000011_Node000014"><a xlink:title=" ">
<path fill="none" stroke="#63b8ff" d="M1477.87,-112.74C1376.91,-100.29 1144.77,-72.51 949,-55.25 705.49,-33.78 411.58,-17.65 311.41,-12.43"/>
<polygon fill="#63b8ff" stroke="#63b8ff" points="311.85,-8.95 301.68,-11.93 311.49,-15.94 311.85,-8.95"/>
</a>
</g>
</g>
<!-- Node15 -->
<g id="Node000015" class="node">
<title>Node15</title>
<g id="a_Node000015"><a xlink:title=" ">
<polygon fill="#e0e0e0" stroke="#999999" points="1755.75,-74.5 1708.25,-74.5 1708.25,-55.25 1755.75,-55.25 1755.75,-74.5"/>
<text text-anchor="middle" x="1732" y="-61" font-family="Helvetica,sans-Serif" font-size="10.00">string.h</text>
</a>
</g>
</g>
<!-- Node11&#45;&gt;Node15 -->
<g id="edge16_Node000011_Node000015" class="edge">
<title>Node11&#45;&gt;Node15</title>
<g id="a_edge16_Node000011_Node000015"><a xlink:title=" ">
<path fill="none" stroke="#63b8ff" d="M1563.44,-110.09C1600.65,-100.33 1659.63,-84.86 1697.04,-75.04"/>
<polygon fill="#63b8ff" stroke="#63b8ff" points="1697.67,-78.5 1706.45,-72.58 1695.89,-71.73 1697.67,-78.5"/>
</a>
</g>
</g>
<!-- Node12&#45;&gt;Node4 -->
<g id="edge14_Node000012_Node000004" class="edge">
<title>Node12&#45;&gt;Node4</title>
<g id="a_edge14_Node000012_Node000004"><a xlink:title=" ">
<path fill="none" stroke="#63b8ff" d="M1663.74,-54.84C1695.76,-46.01 1744.75,-32.49 1780.13,-22.73"/>
<polygon fill="#63b8ff" stroke="#63b8ff" points="1780.93,-26.14 1789.64,-20.11 1779.07,-19.39 1780.93,-26.14"/>
</a>
</g>
</g>
<!-- Node12&#45;&gt;Node13 -->
<g id="edge13_Node000012_Node000013" class="edge">
<title>Node12&#45;&gt;Node13</title>
<g id="a_edge13_Node000012_Node000013"><a xlink:title=" ">
<path fill="none" stroke="#63b8ff" d="M1615.56,-54.84C1601.84,-46.81 1581.5,-34.91 1565.38,-25.48"/>
<polygon fill="#63b8ff" stroke="#63b8ff" points="1567.22,-22.5 1556.82,-20.47 1563.68,-28.54 1567.22,-22.5"/>
</a>
</g>
</g>
<!-- Node18&#45;&gt;Node8 -->
<g id="edge21_Node000018_Node000008" class="edge">
<title>Node18&#45;&gt;Node8</title>
<g id="a_edge21_Node000018_Node000008"><a xlink:title=" ">
<path fill="none" stroke="#63b8ff" d="M196.38,-110.23C200.76,-95.84 211.56,-67.82 232,-55.25 281.19,-25 665,-14.63 819.19,-11.66"/>
<polygon fill="#63b8ff" stroke="#63b8ff" points="818.88,-15.17 828.81,-11.48 818.75,-8.17 818.88,-15.17"/>
</a>
</g>
</g>
<!-- Node18&#45;&gt;Node14 -->
<g id="edge22_Node000018_Node000014" class="edge">
<title>Node18&#45;&gt;Node14</title>
<g id="a_edge22_Node000018_Node000014"><a xlink:title=" ">
<path fill="none" stroke="#63b8ff" d="M192.24,-110.06C190.19,-96.89 188.33,-72.19 199,-55.25 208.7,-39.85 225.78,-29.17 241.39,-22.13"/>
<polygon fill="#63b8ff" stroke="#63b8ff" points="242.54,-25.44 250.46,-18.4 239.88,-18.97 242.54,-25.44"/>
</a>
</g>
</g>
<!-- Node20&#45;&gt;Node4 -->
<g id="edge27_Node000020_Node000004" class="edge">
<title>Node20&#45;&gt;Node4</title>
<g id="a_edge27_Node000020_Node000004"><a xlink:title=" ">
<path fill="none" stroke="#63b8ff" d="M1634.32,-282.12C1704.8,-277.77 1812.79,-266.86 1843,-240.25 1865.23,-220.67 1862,-205.99 1862,-176.38 1862,-176.38 1862,-176.38 1862,-119.12 1862,-86.13 1846.16,-50.51 1834.93,-29.41"/>
<polygon fill="#63b8ff" stroke="#63b8ff" points="1838.1,-27.9 1830.18,-20.86 1831.98,-31.3 1838.1,-27.9"/>
</a>
</g>
</g>
<!-- Node20&#45;&gt;Node19 -->
<g id="edge34_Node000020_Node000019" class="edge">
<title>Node20&#45;&gt;Node19</title>
<g id="a_edge34_Node000020_Node000019"><a xlink:title=" ">
<path fill="none" stroke="#63b8ff" d="M1507.44,-279.7C1481.21,-274.05 1453.2,-262.73 1437,-240.25 1427.47,-227.03 1433.03,-208.54 1439.76,-194.85"/>
<polygon fill="#63b8ff" stroke="#63b8ff" points="1442.64,-196.87 1444.41,-186.43 1436.51,-193.49 1442.64,-196.87"/>
</a>
</g>
</g>
<!-- Node21 -->
<g id="Node000021" class="node">
<title>Node21</title>
<g id="a_Node000021"><a xlink:href="_model_database_api_8h.html" target="_top" xlink:title=" ">
<polygon fill="white" stroke="#666666" points="1712.25,-240.25 1571.75,-240.25 1571.75,-221 1712.25,-221 1712.25,-240.25"/>
<text text-anchor="middle" x="1642" y="-226.75" font-family="Helvetica,sans-Serif" font-size="10.00">Cpl/Dm/ModelDatabaseApi.h</text>
</a>
</g>
</g>
<!-- Node20&#45;&gt;Node21 -->
<g id="edge28_Node000020_Node000021" class="edge">
<title>Node20&#45;&gt;Node21</title>
<g id="a_edge28_Node000020_Node000021"><a xlink:title=" ">
<path fill="none" stroke="#63b8ff" d="M1583.04,-275.84C1593.41,-268.07 1608.6,-256.67 1620.97,-247.4"/>
<polygon fill="#63b8ff" stroke="#63b8ff" points="1623.02,-250.23 1628.92,-241.43 1618.82,-244.63 1623.02,-250.23"/>
</a>
</g>
</g>
<!-- Node22 -->
<g id="Node000022" class="node">
<title>Node22</title>
<g id="a_Node000022"><a xlink:href="_mutex_8h.html" target="_top" xlink:title=" ">
<polygon fill="white" stroke="#666666" points="1833.5,-240.25 1730.5,-240.25 1730.5,-221 1833.5,-221 1833.5,-240.25"/>
<text text-anchor="middle" x="1782" y="-226.75" font-family="Helvetica,sans-Serif" font-size="10.00">Cpl/System/Mutex.h</text>
</a>
</g>
</g>
<!-- Node20&#45;&gt;Node22 -->
<g id="edge30_Node000020_Node000022" class="edge">
<title>Node20&#45;&gt;Node22</title>
<g id="a_edge30_Node000020_Node000022"><a xlink:title=" ">
<path fill="none" stroke="#63b8ff" d="M1606.79,-275.84C1642.11,-266.93 1696.28,-253.26 1735.04,-243.48"/>
<polygon fill="#63b8ff" stroke="#63b8ff" points="1735.72,-246.91 1744.56,-241.07 1734.01,-240.13 1735.72,-246.91"/>
</a>
</g>
</g>
<!-- Node23 -->
<g id="Node000023" class="node">
<title>Node23</title>
<g id="a_Node000023"><a xlink:href="_s_list_8h.html" target="_top" xlink:title=" ">
<polygon fill="white" stroke="#666666" points="1554.12,-240.25 1445.88,-240.25 1445.88,-221 1554.12,-221 1554.12,-240.25"/>
<text text-anchor="middle" x="1500" y="-226.75" font-family="Helvetica,sans-Serif" font-size="10.00">Cpl/Container/SList.h</text>
</a>
</g>
</g>
<!-- Node20&#45;&gt;Node23 -->
<g id="edge32_Node000020_Node000023" class="edge">
<title>Node20&#45;&gt;Node23</title>
<g id="a_edge32_Node000020_Node000023"><a xlink:title=" ">
<path fill="none" stroke="#63b8ff" d="M1558.96,-275.84C1548.59,-268.07 1533.4,-256.67 1521.03,-247.4"/>
<polygon fill="#63b8ff" stroke="#63b8ff" points="1523.18,-244.63 1513.08,-241.43 1518.98,-250.23 1523.18,-244.63"/>
</a>
</g>
</g>
<!-- Node21&#45;&gt;Node9 -->
<g id="edge29_Node000021_Node000009" class="edge">
<title>Node21&#45;&gt;Node9</title>
<g id="a_edge29_Node000021_Node000009"><a xlink:title=" ">
<path fill="none" stroke="#63b8ff" d="M1640.51,-220.83C1639.4,-214.24 1637.83,-204.96 1636.41,-196.57"/>
<polygon fill="#63b8ff" stroke="#63b8ff" points="1639.89,-196.13 1634.77,-186.85 1632.99,-197.3 1639.89,-196.13"/>
</a>
</g>
</g>
<!-- Node22&#45;&gt;Node10 -->
<g id="edge31_Node000022_Node000010" class="edge">
<title>Node22&#45;&gt;Node10</title>
<g id="a_edge31_Node000022_Node000010"><a xlink:title=" ">
<path fill="none" stroke="#63b8ff" d="M1782.11,-220.53C1781.86,-198.13 1777.89,-140 1745,-110.5 1743.31,-108.99 1631.86,-87.74 1565.08,-75.12"/>
<polygon fill="#63b8ff" stroke="#63b8ff" points="1565.93,-71.72 1555.46,-73.3 1564.63,-78.6 1565.93,-71.72"/>
</a>
</g>
</g>
<!-- Node23&#45;&gt;Node8 -->
<g id="edge33_Node000023_Node000008" class="edge">
<title>Node23&#45;&gt;Node8</title>
<g id="a_edge33_Node000023_Node000008"><a xlink:title=" ">
<path fill="none" stroke="#63b8ff" d="M1504.74,-220.59C1510.91,-207.47 1519.72,-182.82 1509,-165.75 1478.96,-117.9 1334.29,-70.91 1280,-55.25 1165.67,-22.28 1026.28,-13.46 946.76,-11.23"/>
<polygon fill="#63b8ff" stroke="#63b8ff" points="947.07,-7.73 936.99,-10.98 946.9,-14.73 947.07,-7.73"/>
</a>
</g>
</g>
<!-- Node24&#45;&gt;Node7 -->
<g id="edge37_Node000024_Node000007" class="edge">
<title>Node24&#45;&gt;Node7</title>
<g id="a_edge37_Node000024_Node000007"><a xlink:title=" ">
<path fill="none" stroke="#63b8ff" d="M309.77,-282.27C488.98,-273.43 1074.01,-244.55 1270.76,-234.84"/>
<polygon fill="#63b8ff" stroke="#63b8ff" points="1270.73,-238.35 1280.54,-234.36 1270.38,-231.36 1270.73,-238.35"/>
</a>
</g>
</g>
<!-- Node24&#45;&gt;Node14 -->
<g id="edge65_Node000024_Node000014" class="edge">
<title>Node24&#45;&gt;Node14</title>
<g id="a_edge65_Node000024_Node000014"><a xlink:title=" ">
<path fill="none" stroke="#63b8ff" d="M203.99,-281.34C139.17,-273.8 38,-250.21 38,-176.38 38,-176.38 38,-176.38 38,-119.12 38,-31.09 174.48,-14.17 240.74,-11.14"/>
<polygon fill="#63b8ff" stroke="#63b8ff" points="240.49,-14.65 250.36,-10.79 240.24,-7.66 240.49,-14.65"/>
</a>
</g>
</g>
<!-- Node24&#45;&gt;Node18 -->
<g id="edge36_Node000024_Node000018" class="edge">
<title>Node24&#45;&gt;Node18</title>
<g id="a_edge36_Node000024_Node000018"><a xlink:title=" ">
<path fill="none" stroke="#63b8ff" d="M225.41,-275.81C186.68,-262.81 122.78,-234.77 95,-185 81.18,-160.24 111.37,-143.56 141.95,-133.48"/>
<polygon fill="#63b8ff" stroke="#63b8ff" points="142.73,-136.9 151.27,-130.62 140.68,-130.2 142.73,-136.9"/>
</a>
</g>
</g>
<!-- Node25 -->
<g id="Node000025" class="node">
<title>Node25</title>
<g id="a_Node000025"><a xlink:href="_dm_2_event_loop_8h.html" target="_top" xlink:title=" ">
<polygon fill="white" stroke="#666666" points="309.62,-240.25 204.38,-240.25 204.38,-221 309.62,-221 309.62,-240.25"/>
<text text-anchor="middle" x="257" y="-226.75" font-family="Helvetica,sans-Serif" font-size="10.00">Cpl/Dm/EventLoop.h</text>
</a>
</g>
</g>
<!-- Node24&#45;&gt;Node25 -->
<g id="edge38_Node000024_Node000025" class="edge">
<title>Node24&#45;&gt;Node25</title>
<g id="a_edge38_Node000024_Node000025"><a xlink:title=" ">
<path fill="none" stroke="#63b8ff" d="M257,-276.08C257,-269.57 257,-260.42 257,-252.12"/>
<polygon fill="#63b8ff" stroke="#63b8ff" points="260.5,-252.12 257,-242.12 253.5,-252.12 260.5,-252.12"/>
</a>
</g>
</g>
<!-- Node25&#45;&gt;Node18 -->
<g id="edge62_Node000025_Node000018" class="edge">
<title>Node25&#45;&gt;Node18</title>
<g id="a_edge62_Node000025_Node000018"><a xlink:title=" ">
<path fill="none" stroke="#63b8ff" d="M256.16,-220.79C254.61,-207.91 250.45,-183.57 240,-165.75 233.65,-154.92 223.96,-144.97 215.12,-137.23"/>
<polygon fill="#63b8ff" stroke="#63b8ff" points="217.48,-134.64 207.54,-130.98 213.02,-140.04 217.48,-134.64"/>
</a>
</g>
</g>
<!-- Node26 -->
<g id="Node000026" class="node">
<title>Node26</title>
<g id="a_Node000026"><a xlink:href="_system_2_event_loop_8h.html" target="_top" xlink:title=" ">
<polygon fill="white" stroke="#666666" points="742.62,-185 619.38,-185 619.38,-165.75 742.62,-165.75 742.62,-185"/>
<text text-anchor="middle" x="681" y="-171.5" font-family="Helvetica,sans-Serif" font-size="10.00">Cpl/System/EventLoop.h</text>
</a>
</g>
</g>
<!-- Node25&#45;&gt;Node26 -->
<g id="edge39_Node000025_Node000026" class="edge">
<title>Node25&#45;&gt;Node26</title>
<g id="a_edge39_Node000025_Node000026"><a xlink:title=" ">
<path fill="none" stroke="#63b8ff" d="M309.84,-222.99C384.87,-213.57 522.57,-196.27 607.51,-185.6"/>
<polygon fill="#63b8ff" stroke="#63b8ff" points="607.89,-189.08 617.37,-184.37 607.02,-182.14 607.89,-189.08"/>
</a>
</g>
</g>
<!-- Node25&#45;&gt;Node34 -->
<g id="edge61_Node000025_Node000034" class="edge">
<title>Node25&#45;&gt;Node34</title>
<g id="a_edge61_Node000025_Node000034"><a xlink:title=" ">
<path fill="none" stroke="#63b8ff" d="M259.04,-220.82C264.95,-195.39 282.13,-121.35 290.42,-85.62"/>
<polygon fill="#63b8ff" stroke="#63b8ff" points="293.75,-86.73 292.6,-76.2 286.93,-85.15 293.75,-86.73"/>
</a>
</g>
</g>
<!-- Node35 -->
<g id="Node000035" class="node">
<title>Node35</title>
<g id="a_Node000035"><a xlink:href="_thread_8h.html" target="_top" xlink:title=" ">
<polygon fill="white" stroke="#666666" points="1195.38,-185 1088.62,-185 1088.62,-165.75 1195.38,-165.75 1195.38,-185"/>
<text text-anchor="middle" x="1142" y="-171.5" font-family="Helvetica,sans-Serif" font-size="10.00">Cpl/System/Thread.h</text>
</a>
</g>
</g>
<!-- Node25&#45;&gt;Node35 -->
<g id="edge55_Node000025_Node000035" class="edge">
<title>Node25&#45;&gt;Node35</title>
<g id="a_edge55_Node000025_Node000035"><a xlink:title=" ">
<path fill="none" stroke="#63b8ff" d="M310.04,-226.43C463.71,-217.19 908.92,-190.4 1076.86,-180.29"/>
<polygon fill="#63b8ff" stroke="#63b8ff" points="1076.94,-183.8 1086.71,-179.7 1076.52,-176.81 1076.94,-183.8"/>
</a>
</g>
</g>
<!-- Node38 -->
<g id="Node000038" class="node">
<title>Node38</title>
<g id="a_Node000038"><a xlink:href="_notification_api___8h.html" target="_top" xlink:title=" ">
<polygon fill="white" stroke="#666666" points="231.5,-185 104.5,-185 104.5,-165.75 231.5,-165.75 231.5,-185"/>
<text text-anchor="middle" x="168" y="-171.5" font-family="Helvetica,sans-Serif" font-size="10.00">Cpl/Dm/NotificationApi_.h</text>
</a>
</g>
</g>
<!-- Node25&#45;&gt;Node38 -->
<g id="edge63_Node000025_Node000038" class="edge">
<title>Node25&#45;&gt;Node38</title>
<g id="a_edge63_Node000025_Node000038"><a xlink:title=" ">
<path fill="none" stroke="#63b8ff" d="M241.9,-220.59C228.48,-212.56 208.59,-200.66 192.83,-191.23"/>
<polygon fill="#63b8ff" stroke="#63b8ff" points="194.85,-188.36 184.47,-186.23 191.25,-194.37 194.85,-188.36"/>
</a>
</g>
</g>
<!-- Node27 -->
<g id="Node000027" class="node">
<title>Node27</title>
<g id="a_Node000027"><a xlink:href="_runnable_8h.html" target="_top" xlink:title=" ">
<polygon fill="white" stroke="#666666" points="1081.62,-129.75 964.38,-129.75 964.38,-110.5 1081.62,-110.5 1081.62,-129.75"/>
<text text-anchor="middle" x="1023" y="-116.25" font-family="Helvetica,sans-Serif" font-size="10.00">Cpl/System/Runnable.h</text>
</a>
</g>
</g>
<!-- Node26&#45;&gt;Node27 -->
<g id="edge40_Node000026_Node000027" class="edge">
<title>Node26&#45;&gt;Node27</title>
<g id="a_edge40_Node000026_Node000027"><a xlink:title=" ">
<path fill="none" stroke="#63b8ff" d="M739.4,-165.28C798.7,-156.05 890.53,-141.75 953.53,-131.94"/>
<polygon fill="#63b8ff" stroke="#63b8ff" points="953.71,-135.46 963.06,-130.46 952.64,-128.54 953.71,-135.46"/>
</a>
</g>
</g>
<!-- Node28 -->
<g id="Node000028" class="node">
<title>Node28</title>
<g id="a_Node000028"><a xlink:href="_semaphore_8h.html" target="_top" xlink:title=" ">
<polygon fill="white" stroke="#666666" points="946.12,-129.75 819.88,-129.75 819.88,-110.5 946.12,-110.5 946.12,-129.75"/>
<text text-anchor="middle" x="883" y="-116.25" font-family="Helvetica,sans-Serif" font-size="10.00">Cpl/System/Semaphore.h</text>
</a>
</g>
</g>
<!-- Node26&#45;&gt;Node28 -->
<g id="edge41_Node000026_Node000028" class="edge">
<title>Node26&#45;&gt;Node28</title>
<g id="a_edge41_Node000026_Node000028"><a xlink:title=" ">
<path fill="none" stroke="#63b8ff" d="M715.27,-165.34C748.93,-156.47 800.49,-142.87 837.56,-133.1"/>
<polygon fill="#63b8ff" stroke="#63b8ff" points="838.32,-136.52 847.1,-130.59 836.54,-129.75 838.32,-136.52"/>
</a>
</g>
</g>
<!-- Node29 -->
<g id="Node000029" class="node">
<title>Node29</title>
<g id="a_Node000029"><a xlink:href="_signable_8h.html" target="_top" xlink:title=" ">
<polygon fill="white" stroke="#666666" points="940.12,-74.5 825.88,-74.5 825.88,-55.25 940.12,-55.25 940.12,-74.5"/>
<text text-anchor="middle" x="883" y="-61" font-family="Helvetica,sans-Serif" font-size="10.00">Cpl/System/Signable.h</text>
</a>
</g>
</g>
<!-- Node26&#45;&gt;Node29 -->
<g id="edge45_Node000026_Node000029" class="edge">
<title>Node26&#45;&gt;Node29</title>
<g id="a_edge45_Node000026_Node000029"><a xlink:title=" ">
<path fill="none" stroke="#63b8ff" d="M700.6,-165.39C719.37,-156.66 748.39,-142.84 773,-129.75 802.96,-113.81 836.59,-93.99 858.68,-80.7"/>
<polygon fill="#63b8ff" stroke="#63b8ff" points="860.21,-83.86 866.96,-75.69 856.59,-77.87 860.21,-83.86"/>
</a>
</g>
</g>
<!-- Node30 -->
<g id="Node000030" class="node">
<title>Node30</title>
<g id="a_Node000030"><a xlink:href="_event_flag_8h.html" target="_top" xlink:title=" ">
<polygon fill="white" stroke="#666666" points="705.12,-74.5 584.88,-74.5 584.88,-55.25 705.12,-55.25 705.12,-74.5"/>
<text text-anchor="middle" x="645" y="-61" font-family="Helvetica,sans-Serif" font-size="10.00">Cpl/System/EventFlag.h</text>
</a>
</g>
</g>
<!-- Node26&#45;&gt;Node30 -->
<g id="edge46_Node000026_Node000030" class="edge">
<title>Node26&#45;&gt;Node30</title>
<g id="a_edge46_Node000026_Node000030"><a xlink:title=" ">
<path fill="none" stroke="#63b8ff" d="M640.27,-165.26C621.23,-158.74 600.31,-147.8 589,-129.75 577.47,-111.34 597.75,-92.96 617.06,-80.68"/>
<polygon fill="#63b8ff" stroke="#63b8ff" points="618.77,-83.73 625.58,-75.62 615.2,-77.71 618.77,-83.73"/>
</a>
</g>
</g>
<!-- Node31 -->
<g id="Node000031" class="node">
<title>Node31</title>
<g id="a_Node000031"><a xlink:href="_shared_event_handler_8h.html" target="_top" xlink:title=" ">
<polygon fill="white" stroke="#666666" points="764,-129.75 598,-129.75 598,-110.5 764,-110.5 764,-129.75"/>
<text text-anchor="middle" x="681" y="-116.25" font-family="Helvetica,sans-Serif" font-size="10.00">Cpl/System/SharedEventHandler.h</text>
</a>
</g>
</g>
<!-- Node26&#45;&gt;Node31 -->
<g id="edge49_Node000026_Node000031" class="edge">
<title>Node26&#45;&gt;Node31</title>
<g id="a_edge49_Node000026_Node000031"><a xlink:title=" ">
<path fill="none" stroke="#63b8ff" d="M681,-165.58C681,-159.07 681,-149.92 681,-141.62"/>
<polygon fill="#63b8ff" stroke="#63b8ff" points="684.5,-141.62 681,-131.62 677.5,-141.62 684.5,-141.62"/>
</a>
</g>
</g>
<!-- Node32 -->
<g id="Node000032" class="node">
<title>Node32</title>
<g id="a_Node000032"><a xlink:href="_timer_manager_8h.html" target="_top" xlink:title=" ">
<polygon fill="white" stroke="#666666" points="541.5,-129.75 402.5,-129.75 402.5,-110.5 541.5,-110.5 541.5,-129.75"/>
<text text-anchor="middle" x="472" y="-116.25" font-family="Helvetica,sans-Serif" font-size="10.00">Cpl/System/TimerManager.h</text>
</a>
</g>
</g>
<!-- Node26&#45;&gt;Node32 -->
<g id="edge51_Node000026_Node000032" class="edge">
<title>Node26&#45;&gt;Node32</title>
<g id="a_edge51_Node000026_Node000032"><a xlink:title=" ">
<path fill="none" stroke="#63b8ff" d="M645.55,-165.34C610.57,-156.43 556.9,-142.76 518.52,-132.98"/>
<polygon fill="#63b8ff" stroke="#63b8ff" points="519.65,-129.65 509.09,-130.58 517.92,-136.44 519.65,-129.65"/>
</a>
</g>
</g>
<!-- Node28&#45;&gt;Node10 -->
<g id="edge42_Node000028_Node000010" class="edge">
<title>Node28&#45;&gt;Node10</title>
<g id="a_edge42_Node000028_Node000010"><a xlink:title=" ">
<path fill="none" stroke="#63b8ff" d="M946.59,-111.37C949.43,-111.07 952.24,-110.77 955,-110.5 1143.95,-91.68 1369.34,-75.71 1466.94,-69.12"/>
<polygon fill="#63b8ff" stroke="#63b8ff" points="1466.94,-72.62 1476.69,-68.46 1466.47,-65.64 1466.94,-72.62"/>
</a>
</g>
</g>
<!-- Node28&#45;&gt;Node29 -->
<g id="edge43_Node000028_Node000029" class="edge">
<title>Node28&#45;&gt;Node29</title>
<g id="a_edge43_Node000028_Node000029"><a xlink:title=" ">
<path fill="none" stroke="#63b8ff" d="M883,-110.33C883,-103.82 883,-94.67 883,-86.37"/>
<polygon fill="#63b8ff" stroke="#63b8ff" points="886.5,-86.37 883,-76.37 879.5,-86.37 886.5,-86.37"/>
</a>
</g>
</g>
<!-- Node29&#45;&gt;Node8 -->
<g id="edge44_Node000029_Node000008" class="edge">
<title>Node29&#45;&gt;Node8</title>
<g id="a_edge44_Node000029_Node000008"><a xlink:title=" ">
<path fill="none" stroke="#63b8ff" d="M883,-55.08C883,-48.57 883,-39.42 883,-31.12"/>
<polygon fill="#63b8ff" stroke="#63b8ff" points="886.5,-31.12 883,-21.12 879.5,-31.12 886.5,-31.12"/>
</a>
</g>
</g>
<!-- Node30&#45;&gt;Node4 -->
<g id="edge47_Node000030_Node000004" class="edge">
<title>Node30&#45;&gt;Node4</title>
<g id="a_edge47_Node000030_Node000004"><a xlink:title=" ">
<path fill="none" stroke="#63b8ff" d="M705.49,-60.76C738.46,-59.08 779.97,-57 817,-55.25 1182.43,-37.99 1622.56,-19.16 1771.69,-12.84"/>
<polygon fill="#63b8ff" stroke="#63b8ff" points="1771.4,-16.35 1781.24,-12.43 1771.1,-9.36 1771.4,-16.35"/>
</a>
</g>
</g>
<!-- Node30&#45;&gt;Node14 -->
<g id="edge48_Node000030_Node000014" class="edge">
<title>Node30&#45;&gt;Node14</title>
<g id="a_edge48_Node000030_Node000014"><a xlink:title=" ">
<path fill="none" stroke="#63b8ff" d="M584.48,-55.14C506.69,-43.92 374.16,-24.79 311.21,-15.71"/>
<polygon fill="#63b8ff" stroke="#63b8ff" points="311.83,-12.26 301.44,-14.3 310.83,-19.19 311.83,-12.26"/>
</a>
</g>
</g>
<!-- Node31&#45;&gt;Node30 -->
<g id="edge50_Node000031_Node000030" class="edge">
<title>Node31&#45;&gt;Node30</title>
<g id="a_edge50_Node000031_Node000030"><a xlink:title=" ">
<path fill="none" stroke="#63b8ff" d="M675.06,-110.33C670.29,-103.28 663.44,-93.15 657.48,-84.33"/>
<polygon fill="#63b8ff" stroke="#63b8ff" points="660.42,-82.44 651.92,-76.11 654.62,-86.36 660.42,-82.44"/>
</a>
</g>
</g>
<!-- Node33 -->
<g id="Node000033" class="node">
<title>Node33</title>
<g id="a_Node000033"><a xlink:href="_counter___8h.html" target="_top" xlink:title=" ">
<polygon fill="white" stroke="#666666" points="548.88,-74.5 433.12,-74.5 433.12,-55.25 548.88,-55.25 548.88,-74.5"/>
<text text-anchor="middle" x="491" y="-61" font-family="Helvetica,sans-Serif" font-size="10.00">Cpl/System/Counter_.h</text>
</a>
</g>
</g>
<!-- Node32&#45;&gt;Node33 -->
<g id="edge52_Node000032_Node000033" class="edge">
<title>Node32&#45;&gt;Node33</title>
<g id="a_edge52_Node000032_Node000033"><a xlink:title=" ">
<path fill="none" stroke="#63b8ff" d="M475.14,-110.33C477.54,-103.59 480.96,-94.02 484,-85.49"/>
<polygon fill="#63b8ff" stroke="#63b8ff" points="487.22,-86.88 487.29,-76.28 480.63,-84.53 487.22,-86.88"/>
</a>
</g>
</g>
<!-- Node32&#45;&gt;Node34 -->
<g id="edge54_Node000032_Node000034" class="edge">
<title>Node32&#45;&gt;Node34</title>
<g id="a_edge54_Node000032_Node000034"><a xlink:title=" ">
<path fill="none" stroke="#63b8ff" d="M441.97,-110.09C412.86,-101.33 368.46,-87.98 336.08,-78.23"/>
<polygon fill="#63b8ff" stroke="#63b8ff" points="337.21,-74.92 326.62,-75.39 335.19,-81.62 337.21,-74.92"/>
</a>
</g>
</g>
<!-- Node33&#45;&gt;Node8 -->
<g id="edge53_Node000033_Node000008" class="edge">
<title>Node33&#45;&gt;Node8</title>
<g id="a_edge53_Node000033_Node000008"><a xlink:title=" ">
<path fill="none" stroke="#63b8ff" d="M549.26,-55.96C621.58,-46.14 744.5,-29.44 819.27,-19.28"/>
<polygon fill="#63b8ff" stroke="#63b8ff" points="819.45,-22.79 828.89,-17.98 818.51,-15.85 819.45,-22.79"/>
</a>
</g>
</g>
<!-- Node35&#45;&gt;Node10 -->
<g id="edge56_Node000035_Node000010" class="edge">
<title>Node35&#45;&gt;Node10</title>
<g id="a_edge56_Node000035_Node000010"><a xlink:title=" ">
<path fill="none" stroke="#63b8ff" d="M1166.07,-165.39C1188.73,-156.77 1223.49,-143.13 1253,-129.75 1270.24,-121.93 1273.1,-116.68 1291,-110.5 1349.82,-90.2 1420.66,-78.05 1466.94,-71.67"/>
<polygon fill="#63b8ff" stroke="#63b8ff" points="1467.2,-75.17 1476.65,-70.37 1466.27,-68.23 1467.2,-75.17"/>
</a>
</g>
</g>
<!-- Node35&#45;&gt;Node27 -->
<g id="edge57_Node000035_Node000027" class="edge">
<title>Node35&#45;&gt;Node27</title>
<g id="a_edge57_Node000035_Node000027"><a xlink:title=" ">
<path fill="none" stroke="#63b8ff" d="M1121.81,-165.34C1103.09,-156.97 1074.98,-144.38 1053.52,-134.78"/>
<polygon fill="#63b8ff" stroke="#63b8ff" points="1055.22,-131.71 1044.67,-130.82 1052.37,-138.1 1055.22,-131.71"/>
</a>
</g>
</g>
<!-- Node35&#45;&gt;Node29 -->
<g id="edge58_Node000035_Node000029" class="edge">
<title>Node35&#45;&gt;Node29</title>
<g id="a_edge58_Node000035_Node000029"><a xlink:title=" ">
<path fill="none" stroke="#63b8ff" d="M1137.44,-165.32C1129.84,-151.23 1113.2,-124.24 1091,-110.5 1049.14,-84.6 994.49,-73.57 951.71,-68.95"/>
<polygon fill="#63b8ff" stroke="#63b8ff" points="952.06,-65.47 941.77,-67.98 951.38,-72.43 952.06,-65.47"/>
</a>
</g>
</g>
<!-- Node36 -->
<g id="Node000036" class="node">
<title>Node36</title>
<g id="a_Node000036"><a xlink:href="_traverser_8h.html" target="_top" xlink:title=" ">
<polygon fill="white" stroke="#666666" points="1244,-129.75 1138,-129.75 1138,-110.5 1244,-110.5 1244,-129.75"/>
<text text-anchor="middle" x="1191" y="-116.25" font-family="Helvetica,sans-Serif" font-size="10.00">Cpl/Type/Traverser.h</text>
</a>
</g>
</g>
<!-- Node35&#45;&gt;Node36 -->
<g id="edge59_Node000035_Node000036" class="edge">
<title>Node35&#45;&gt;Node36</title>
<g id="a_edge59_Node000035_Node000036"><a xlink:title=" ">
<path fill="none" stroke="#63b8ff" d="M1150.09,-165.58C1156.86,-158.23 1166.72,-147.51 1175.06,-138.44"/>
<polygon fill="#63b8ff" stroke="#63b8ff" points="1177.51,-140.95 1181.71,-131.22 1172.36,-136.21 1177.51,-140.95"/>
</a>
</g>
</g>
<!-- Node35&#45;&gt;Node37 -->
<g id="edge60_Node000035_Node000037" class="edge">
<title>Node35&#45;&gt;Node37</title>
<g id="a_edge60_Node000035_Node000037"><a xlink:title=" ">
<path fill="none" stroke="#63b8ff" d="M1172.7,-165.34C1204.87,-155.88 1255.29,-141.05 1288.73,-131.21"/>
<polygon fill="#63b8ff" stroke="#63b8ff" points="1289.31,-134.68 1297.92,-128.5 1287.34,-127.97 1289.31,-134.68"/>
</a>
</g>
</g>
<!-- Node38&#45;&gt;Node18 -->
<g id="edge64_Node000038_Node000018" class="edge">
<title>Node38&#45;&gt;Node18</title>
<g id="a_edge64_Node000038_Node000018"><a xlink:title=" ">
<path fill="none" stroke="#63b8ff" d="M172.29,-165.58C175.62,-158.76 180.36,-149.06 184.56,-140.45"/>
<polygon fill="#63b8ff" stroke="#63b8ff" points="187.71,-141.99 188.95,-131.47 181.42,-138.92 187.71,-141.99"/>
</a>
</g>
</g>
</g>
</svg>
