<?xml version="1.0" encoding="UTF-8" standalone="no"?>
<!DOCTYPE svg PUBLIC "-//W3C//DTD SVG 1.1//EN"
 "http://www.w3.org/Graphics/SVG/1.1/DTD/svg11.dtd">
<!-- Generated by graphviz version 2.43.0 (0)
 -->
<!-- Title: Ajax/Dm/MpAlertSummary.h Pages: 1 -->
<svg width="1963pt" height="467pt"
 viewBox="0.00 0.00 1962.50 467.00" xmlns="http://www.w3.org/2000/svg" xmlns:xlink="http://www.w3.org/1999/xlink">
<g id="graph0" class="graph" transform="scale(1 1) rotate(0) translate(4 463)">
<title>Ajax/Dm/MpAlertSummary.h</title>
<!-- Node1 -->
<g id="Node000001" class="node">
<title>Node1</title>
<g id="a_Node000001"><a xlink:title=" ">
<polygon fill="#999999" stroke="#666666" points="1512,-459 1357,-459 1357,-440 1512,-440 1512,-459"/>
<text text-anchor="middle" x="1434.5" y="-447" font-family="Helvetica,sans-Serif" font-size="10.00">Ajax/Dm/MpAlertSummary.h</text>
</a>
</g>
</g>
<!-- Node2 -->
<g id="Node000002" class="node">
<title>Node2</title>
<g id="a_Node000002"><a xlink:href="_model_point_common___8h.html" target="_top" xlink:title=" ">
<polygon fill="white" stroke="#666666" points="1478,-349 1309,-349 1309,-330 1478,-330 1478,-349"/>
<text text-anchor="middle" x="1393.5" y="-337" font-family="Helvetica,sans-Serif" font-size="10.00">Cpl/Dm/ModelPointCommon_.h</text>
</a>
</g>
</g>
<!-- Node1&#45;&gt;Node2 -->
<g id="edge1_Node000001_Node000002" class="edge">
<title>Node1&#45;&gt;Node2</title>
<g id="a_edge1_Node000001_Node000002"><a xlink:title=" ">
<path fill="none" stroke="#63b8ff" d="M1429.96,-439.79C1425.44,-430.93 1418.48,-416.73 1413.5,-404 1407.7,-389.18 1402.36,-371.94 1398.65,-359.16"/>
<polygon fill="#63b8ff" stroke="#63b8ff" points="1401.94,-357.93 1395.85,-349.26 1395.2,-359.83 1401.94,-357.93"/>
</a>
</g>
</g>
<!-- Node36 -->
<g id="Node000036" class="node">
<title>Node36</title>
<g id="a_Node000036"><a xlink:href="_mp_alert_8h.html" target="_top" xlink:title=" ">
<polygon fill="white" stroke="#666666" points="1531,-404 1422,-404 1422,-385 1531,-385 1531,-404"/>
<text text-anchor="middle" x="1476.5" y="-392" font-family="Helvetica,sans-Serif" font-size="10.00">Ajax/Dm/MpAlert.h</text>
</a>
</g>
</g>
<!-- Node1&#45;&gt;Node36 -->
<g id="edge65_Node000001_Node000036" class="edge">
<title>Node1&#45;&gt;Node36</title>
<g id="a_edge65_Node000001_Node000036"><a xlink:title=" ">
<path fill="none" stroke="#63b8ff" d="M1441.44,-439.75C1447.37,-432.26 1456.07,-421.28 1463.32,-412.13"/>
<polygon fill="#63b8ff" stroke="#63b8ff" points="1466.23,-414.1 1469.69,-404.09 1460.74,-409.75 1466.23,-414.1"/>
</a>
</g>
</g>
<!-- Node3 -->
<g id="Node000003" class="node">
<title>Node3</title>
<g id="a_Node000003"><a xlink:href="_model_point_8h.html" target="_top" xlink:title=" ">
<polygon fill="white" stroke="#666666" points="1541,-239 1422,-239 1422,-220 1541,-220 1541,-239"/>
<text text-anchor="middle" x="1481.5" y="-227" font-family="Helvetica,sans-Serif" font-size="10.00">Cpl/Dm/ModelPoint.h</text>
</a>
</g>
</g>
<!-- Node2&#45;&gt;Node3 -->
<g id="edge2_Node000002_Node000003" class="edge">
<title>Node2&#45;&gt;Node3</title>
<g id="a_edge2_Node000002_Node000003"><a xlink:title=" ">
<path fill="none" stroke="#63b8ff" d="M1400.7,-329.66C1415.41,-311.61 1449.09,-270.28 1467.99,-247.08"/>
<polygon fill="#63b8ff" stroke="#63b8ff" points="1470.84,-249.12 1474.45,-239.16 1465.41,-244.7 1470.84,-249.12"/>
</a>
</g>
</g>
<!-- Node11 -->
<g id="Node000011" class="node">
<title>Node11</title>
<g id="a_Node000011"><a xlink:title=" ">
<polygon fill="#e0e0e0" stroke="#999999" points="1406,-19 1353,-19 1353,0 1406,0 1406,-19"/>
<text text-anchor="middle" x="1379.5" y="-7" font-family="Helvetica,sans-Serif" font-size="10.00">stdint.h</text>
</a>
</g>
</g>
<!-- Node2&#45;&gt;Node11 -->
<g id="edge63_Node000002_Node000011" class="edge">
<title>Node2&#45;&gt;Node11</title>
<g id="a_edge63_Node000002_Node000011"><a xlink:title=" ">
<path fill="none" stroke="#63b8ff" d="M1393.13,-329.73C1391.26,-285.99 1382.94,-91.14 1380.3,-29.36"/>
<polygon fill="#63b8ff" stroke="#63b8ff" points="1383.79,-28.99 1379.87,-19.15 1376.8,-29.29 1383.79,-28.99"/>
</a>
</g>
</g>
<!-- Node17 -->
<g id="Node000017" class="node">
<title>Node17</title>
<g id="a_Node000017"><a xlink:href="_model_database_8h.html" target="_top" xlink:title=" ">
<polygon fill="white" stroke="#666666" points="1655,-294 1514,-294 1514,-275 1655,-275 1655,-294"/>
<text text-anchor="middle" x="1584.5" y="-282" font-family="Helvetica,sans-Serif" font-size="10.00">Cpl/Dm/ModelDatabase.h</text>
</a>
</g>
</g>
<!-- Node2&#45;&gt;Node17 -->
<g id="edge22_Node000002_Node000017" class="edge">
<title>Node2&#45;&gt;Node17</title>
<g id="a_edge22_Node000002_Node000017"><a xlink:title=" ">
<path fill="none" stroke="#63b8ff" d="M1424.19,-329.98C1456.67,-320.97 1508.1,-306.7 1543.91,-296.76"/>
<polygon fill="#63b8ff" stroke="#63b8ff" points="1544.87,-300.13 1553.57,-294.08 1543,-293.38 1544.87,-300.13"/>
</a>
</g>
</g>
<!-- Node21 -->
<g id="Node000021" class="node">
<title>Node21</title>
<g id="a_Node000021"><a xlink:href="_subscriber_8h.html" target="_top" xlink:title=" ">
<polygon fill="white" stroke="#666666" points="1327,-294 1212,-294 1212,-275 1327,-275 1327,-294"/>
<text text-anchor="middle" x="1269.5" y="-282" font-family="Helvetica,sans-Serif" font-size="10.00">Cpl/Dm/Subscriber.h</text>
</a>
</g>
</g>
<!-- Node2&#45;&gt;Node21 -->
<g id="edge31_Node000002_Node000021" class="edge">
<title>Node2&#45;&gt;Node21</title>
<g id="a_edge31_Node000002_Node000021"><a xlink:title=" ">
<path fill="none" stroke="#63b8ff" d="M1373.58,-329.98C1353.45,-321.38 1322.12,-307.99 1299.09,-298.15"/>
<polygon fill="#63b8ff" stroke="#63b8ff" points="1300.36,-294.88 1289.79,-294.17 1297.6,-301.32 1300.36,-294.88"/>
</a>
</g>
</g>
<!-- Node31 -->
<g id="Node000031" class="node">
<title>Node31</title>
<g id="a_Node000031"><a xlink:href="_d_list_8h.html" target="_top" xlink:title=" ">
<polygon fill="white" stroke="#666666" points="119,-74 0,-74 0,-55 119,-55 119,-74"/>
<text text-anchor="middle" x="59.5" y="-62" font-family="Helvetica,sans-Serif" font-size="10.00">Cpl/Container/DList.h</text>
</a>
</g>
</g>
<!-- Node2&#45;&gt;Node31 -->
<g id="edge62_Node000002_Node000031" class="edge">
<title>Node2&#45;&gt;Node31</title>
<g id="a_edge62_Node000002_Node000031"><a xlink:title=" ">
<path fill="none" stroke="#63b8ff" d="M1308.97,-336.29C1010.15,-327.94 21.5,-295.4 21.5,-230.5 21.5,-230.5 21.5,-230.5 21.5,-173.5 21.5,-140.02 37.95,-103.84 49.2,-83.01"/>
<polygon fill="#63b8ff" stroke="#63b8ff" points="52.37,-84.53 54.22,-74.1 46.26,-81.1 52.37,-84.53"/>
</a>
</g>
</g>
<!-- Node34 -->
<g id="Node000034" class="node">
<title>Node34</title>
<g id="a_Node000034"><a xlink:title=" ">
<polygon fill="#e0e0e0" stroke="#999999" points="1332,-129 1279,-129 1279,-110 1332,-110 1332,-129"/>
<text text-anchor="middle" x="1305.5" y="-117" font-family="Helvetica,sans-Serif" font-size="10.00">stdlib.h</text>
</a>
</g>
</g>
<!-- Node2&#45;&gt;Node34 -->
<g id="edge64_Node000002_Node000034" class="edge">
<title>Node2&#45;&gt;Node34</title>
<g id="a_edge64_Node000002_Node000034"><a xlink:title=" ">
<path fill="none" stroke="#63b8ff" d="M1390.05,-329.95C1377.05,-297.74 1330.82,-183.23 1312.78,-138.55"/>
<polygon fill="#63b8ff" stroke="#63b8ff" points="1316.01,-137.19 1309.02,-129.22 1309.52,-139.81 1316.01,-137.19"/>
</a>
</g>
</g>
<!-- Node4 -->
<g id="Node000004" class="node">
<title>Node4</title>
<g id="a_Node000004"><a xlink:title=" ">
<polygon fill="#e0e0e0" stroke="#999999" points="1924.5,-19 1832.5,-19 1832.5,0 1924.5,0 1924.5,-19"/>
<text text-anchor="middle" x="1878.5" y="-7" font-family="Helvetica,sans-Serif" font-size="10.00">colony_config.h</text>
</a>
</g>
</g>
<!-- Node3&#45;&gt;Node4 -->
<g id="edge3_Node000003_Node000004" class="edge">
<title>Node3&#45;&gt;Node4</title>
<g id="a_edge3_Node000003_Node000004"><a xlink:title=" ">
<path fill="none" stroke="#63b8ff" d="M1541.29,-222.07C1613.02,-213.86 1728.7,-198.94 1769.5,-184 1813.52,-167.88 1833.4,-167.94 1859.5,-129 1879.83,-98.67 1881.23,-54.34 1880.09,-29.38"/>
<polygon fill="#63b8ff" stroke="#63b8ff" points="1883.56,-28.87 1879.42,-19.12 1876.58,-29.32 1883.56,-28.87"/>
</a>
</g>
</g>
<!-- Node5 -->
<g id="Node000005" class="node">
<title>Node5</title>
<g id="a_Node000005"><a xlink:href="_item_8h.html" target="_top" xlink:title=" ">
<polygon fill="white" stroke="#666666" points="479,-19 362,-19 362,0 479,0 479,-19"/>
<text text-anchor="middle" x="420.5" y="-7" font-family="Helvetica,sans-Serif" font-size="10.00">Cpl/Container/Item.h</text>
</a>
</g>
</g>
<!-- Node3&#45;&gt;Node5 -->
<g id="edge4_Node000003_Node000005" class="edge">
<title>Node3&#45;&gt;Node5</title>
<g id="a_edge4_Node000003_Node000005"><a xlink:title=" ">
<path fill="none" stroke="#63b8ff" d="M1421.85,-227.83C1253.12,-225.57 774.72,-216.38 621.5,-184 554.47,-169.83 527.92,-175.38 477.5,-129 447.64,-101.54 431.77,-55.1 424.86,-29.27"/>
<polygon fill="#63b8ff" stroke="#63b8ff" points="428.18,-28.13 422.36,-19.28 421.39,-29.83 428.18,-28.13"/>
</a>
</g>
</g>
<!-- Node6 -->
<g id="Node000006" class="node">
<title>Node6</title>
<g id="a_Node000006"><a xlink:href="_text_2_string_8h.html" target="_top" xlink:title=" ">
<polygon fill="white" stroke="#666666" points="1760.5,-184 1664.5,-184 1664.5,-165 1760.5,-165 1760.5,-184"/>
<text text-anchor="middle" x="1712.5" y="-172" font-family="Helvetica,sans-Serif" font-size="10.00">Cpl/Text/String.h</text>
</a>
</g>
</g>
<!-- Node3&#45;&gt;Node6 -->
<g id="edge5_Node000003_Node000006" class="edge">
<title>Node3&#45;&gt;Node6</title>
<g id="a_edge5_Node000003_Node000006"><a xlink:title=" ">
<path fill="none" stroke="#63b8ff" d="M1518.61,-219.98C1558.49,-210.84 1621.96,-196.27 1665.34,-186.32"/>
<polygon fill="#63b8ff" stroke="#63b8ff" points="1666.13,-189.73 1675.09,-184.08 1664.57,-182.91 1666.13,-189.73"/>
</a>
</g>
</g>
<!-- Node10 -->
<g id="Node000010" class="node">
<title>Node10</title>
<g id="a_Node000010"><a xlink:title=" ">
<polygon fill="#e0e0e0" stroke="#999999" points="1621.5,-19 1565.5,-19 1565.5,0 1621.5,0 1621.5,-19"/>
<text text-anchor="middle" x="1593.5" y="-7" font-family="Helvetica,sans-Serif" font-size="10.00">stddef.h</text>
</a>
</g>
</g>
<!-- Node3&#45;&gt;Node10 -->
<g id="edge20_Node000003_Node000010" class="edge">
<title>Node3&#45;&gt;Node10</title>
<g id="a_edge20_Node000003_Node000010"><a xlink:title=" ">
<path fill="none" stroke="#63b8ff" d="M1479.35,-219.92C1473.09,-192.81 1457.56,-107.68 1494.5,-55 1508.6,-34.89 1534.01,-23.72 1555.56,-17.6"/>
<polygon fill="#63b8ff" stroke="#63b8ff" points="1556.63,-20.94 1565.44,-15.06 1554.89,-14.16 1556.63,-20.94"/>
</a>
</g>
</g>
<!-- Node3&#45;&gt;Node11 -->
<g id="edge21_Node000003_Node000011" class="edge">
<title>Node3&#45;&gt;Node11</title>
<g id="a_edge21_Node000003_Node000011"><a xlink:title=" ">
<path fill="none" stroke="#63b8ff" d="M1477.09,-219.73C1472.68,-210.83 1465.8,-196.6 1460.5,-184 1436.76,-127.62 1441.68,-108.77 1412.5,-55 1407.18,-45.19 1399.9,-35.13 1393.53,-27.06"/>
<polygon fill="#63b8ff" stroke="#63b8ff" points="1396.15,-24.74 1387.12,-19.2 1390.73,-29.16 1396.15,-24.74"/>
</a>
</g>
</g>
<!-- Node15 -->
<g id="Node000015" class="node">
<title>Node15</title>
<g id="a_Node000015"><a xlink:href="_subscriber_api_8h.html" target="_top" xlink:title=" ">
<polygon fill="white" stroke="#666666" points="219,-129 88,-129 88,-110 219,-110 219,-129"/>
<text text-anchor="middle" x="153.5" y="-117" font-family="Helvetica,sans-Serif" font-size="10.00">Cpl/Dm/SubscriberApi.h</text>
</a>
</g>
</g>
<!-- Node3&#45;&gt;Node15 -->
<g id="edge16_Node000003_Node000015" class="edge">
<title>Node3&#45;&gt;Node15</title>
<g id="a_edge16_Node000003_Node000015"><a xlink:title=" ">
<path fill="none" stroke="#63b8ff" d="M1421.69,-227.31C1230.49,-223.27 635.46,-209 444.5,-184 405.69,-178.92 396.74,-173.37 358.5,-165 305.42,-153.38 244.58,-140.19 203.05,-131.2"/>
<polygon fill="#63b8ff" stroke="#63b8ff" points="203.71,-127.76 193.19,-129.07 202.23,-134.61 203.71,-127.76"/>
</a>
</g>
</g>
<!-- Node16 -->
<g id="Node000016" class="node">
<title>Node16</title>
<g id="a_Node000016"><a xlink:href="_arduino_8h_source.html" target="_top" xlink:title=" ">
<polygon fill="white" stroke="#666666" points="1608,-184 1503,-184 1503,-165 1608,-165 1608,-184"/>
<text text-anchor="middle" x="1555.5" y="-172" font-family="Helvetica,sans-Serif" font-size="10.00">Cpl/Json/Arduino.h</text>
</a>
</g>
</g>
<!-- Node3&#45;&gt;Node16 -->
<g id="edge19_Node000003_Node000016" class="edge">
<title>Node3&#45;&gt;Node16</title>
<g id="a_edge19_Node000003_Node000016"><a xlink:title=" ">
<path fill="none" stroke="#63b8ff" d="M1493.39,-219.98C1504.65,-211.92 1521.79,-199.65 1535.21,-190.03"/>
<polygon fill="#63b8ff" stroke="#63b8ff" points="1537.3,-192.84 1543.39,-184.17 1533.23,-187.15 1537.3,-192.84"/>
</a>
</g>
</g>
<!-- Node7 -->
<g id="Node000007" class="node">
<title>Node7</title>
<g id="a_Node000007"><a xlink:title=" ">
<polygon fill="#e0e0e0" stroke="#999999" points="1588,-74 1503,-74 1503,-55 1588,-55 1588,-74"/>
<text text-anchor="middle" x="1545.5" y="-62" font-family="Helvetica,sans-Serif" font-size="10.00">colony_map.h</text>
</a>
</g>
</g>
<!-- Node6&#45;&gt;Node7 -->
<g id="edge6_Node000006_Node000007" class="edge">
<title>Node6&#45;&gt;Node7</title>
<g id="a_edge6_Node000006_Node000007"><a xlink:title=" ">
<path fill="none" stroke="#63b8ff" d="M1664.24,-166.99C1636.24,-161.09 1601.8,-149.94 1577.5,-129 1563.79,-117.18 1555.29,-98.07 1550.52,-83.9"/>
<polygon fill="#63b8ff" stroke="#63b8ff" points="1553.84,-82.78 1547.59,-74.22 1547.14,-84.81 1553.84,-82.78"/>
</a>
</g>
</g>
<!-- Node8 -->
<g id="Node000008" class="node">
<title>Node8</title>
<g id="a_Node000008"><a xlink:href="_key_8h.html" target="_top" xlink:title=" ">
<polygon fill="white" stroke="#666666" points="1850,-129 1739,-129 1739,-110 1850,-110 1850,-129"/>
<text text-anchor="middle" x="1794.5" y="-117" font-family="Helvetica,sans-Serif" font-size="10.00">Cpl/Container/Key.h</text>
</a>
</g>
</g>
<!-- Node6&#45;&gt;Node8 -->
<g id="edge7_Node000006_Node000008" class="edge">
<title>Node6&#45;&gt;Node8</title>
<g id="a_edge7_Node000006_Node000008"><a xlink:title=" ">
<path fill="none" stroke="#63b8ff" d="M1725.67,-164.98C1738.27,-156.84 1757.5,-144.41 1772.44,-134.76"/>
<polygon fill="#63b8ff" stroke="#63b8ff" points="1774.59,-137.54 1781.09,-129.17 1770.79,-131.66 1774.59,-137.54"/>
</a>
</g>
</g>
<!-- Node13 -->
<g id="Node000013" class="node">
<title>Node13</title>
<g id="a_Node000013"><a xlink:title=" ">
<polygon fill="#e0e0e0" stroke="#999999" points="1642.5,-129 1586.5,-129 1586.5,-110 1642.5,-110 1642.5,-129"/>
<text text-anchor="middle" x="1614.5" y="-117" font-family="Helvetica,sans-Serif" font-size="10.00">stdarg.h</text>
</a>
</g>
</g>
<!-- Node6&#45;&gt;Node13 -->
<g id="edge14_Node000006_Node000013" class="edge">
<title>Node6&#45;&gt;Node13</title>
<g id="a_edge14_Node000006_Node000013"><a xlink:title=" ">
<path fill="none" stroke="#63b8ff" d="M1696.75,-164.98C1681.27,-156.61 1657.41,-143.7 1639.36,-133.95"/>
<polygon fill="#63b8ff" stroke="#63b8ff" points="1640.99,-130.85 1630.53,-129.17 1637.66,-137.01 1640.99,-130.85"/>
</a>
</g>
</g>
<!-- Node14 -->
<g id="Node000014" class="node">
<title>Node14</title>
<g id="a_Node000014"><a xlink:title=" ">
<polygon fill="#e0e0e0" stroke="#999999" points="1720.5,-129 1660.5,-129 1660.5,-110 1720.5,-110 1720.5,-129"/>
<text text-anchor="middle" x="1690.5" y="-117" font-family="Helvetica,sans-Serif" font-size="10.00">iostream</text>
</a>
</g>
</g>
<!-- Node6&#45;&gt;Node14 -->
<g id="edge15_Node000006_Node000014" class="edge">
<title>Node6&#45;&gt;Node14</title>
<g id="a_edge15_Node000006_Node000014"><a xlink:title=" ">
<path fill="none" stroke="#63b8ff" d="M1708.87,-164.75C1705.92,-157.65 1701.67,-147.4 1697.99,-138.56"/>
<polygon fill="#63b8ff" stroke="#63b8ff" points="1701.13,-136.98 1694.07,-129.09 1694.67,-139.67 1701.13,-136.98"/>
</a>
</g>
</g>
<!-- Node8&#45;&gt;Node7 -->
<g id="edge13_Node000008_Node000007" class="edge">
<title>Node8&#45;&gt;Node7</title>
<g id="a_edge13_Node000008_Node000007"><a xlink:title=" ">
<path fill="none" stroke="#63b8ff" d="M1754.49,-109.98C1711.33,-100.8 1642.52,-86.15 1595.74,-76.19"/>
<polygon fill="#63b8ff" stroke="#63b8ff" points="1596.33,-72.74 1585.82,-74.08 1594.87,-79.59 1596.33,-72.74"/>
</a>
</g>
</g>
<!-- Node9 -->
<g id="Node000009" class="node">
<title>Node9</title>
<g id="a_Node000009"><a xlink:href="_fatal_error_8h.html" target="_top" xlink:title=" ">
<polygon fill="white" stroke="#666666" points="1777.5,-74 1647.5,-74 1647.5,-55 1777.5,-55 1777.5,-74"/>
<text text-anchor="middle" x="1712.5" y="-62" font-family="Helvetica,sans-Serif" font-size="10.00">Cpl/System/FatalError.h</text>
</a>
</g>
</g>
<!-- Node8&#45;&gt;Node9 -->
<g id="edge8_Node000008_Node000009" class="edge">
<title>Node8&#45;&gt;Node9</title>
<g id="a_edge8_Node000008_Node000009"><a xlink:title=" ">
<path fill="none" stroke="#63b8ff" d="M1781.33,-109.98C1768.73,-101.84 1749.5,-89.41 1734.56,-79.76"/>
<polygon fill="#63b8ff" stroke="#63b8ff" points="1736.21,-76.66 1725.91,-74.17 1732.41,-82.54 1736.21,-76.66"/>
</a>
</g>
</g>
<!-- Node8&#45;&gt;Node11 -->
<g id="edge11_Node000008_Node000011" class="edge">
<title>Node8&#45;&gt;Node11</title>
<g id="a_edge11_Node000008_Node000011"><a xlink:title=" ">
<path fill="none" stroke="#63b8ff" d="M1758.68,-109.98C1726.72,-101.98 1678.89,-89.01 1638.5,-74 1619.67,-67 1616.58,-61.27 1597.5,-55 1535.33,-34.56 1459.97,-21.68 1416.11,-15.31"/>
<polygon fill="#63b8ff" stroke="#63b8ff" points="1416.58,-11.85 1406.19,-13.91 1415.6,-18.78 1416.58,-11.85"/>
</a>
</g>
</g>
<!-- Node12 -->
<g id="Node000012" class="node">
<title>Node12</title>
<g id="a_Node000012"><a xlink:title=" ">
<polygon fill="#e0e0e0" stroke="#999999" points="1849,-74 1796,-74 1796,-55 1849,-55 1849,-74"/>
<text text-anchor="middle" x="1822.5" y="-62" font-family="Helvetica,sans-Serif" font-size="10.00">string.h</text>
</a>
</g>
</g>
<!-- Node8&#45;&gt;Node12 -->
<g id="edge12_Node000008_Node000012" class="edge">
<title>Node8&#45;&gt;Node12</title>
<g id="a_edge12_Node000008_Node000012"><a xlink:title=" ">
<path fill="none" stroke="#63b8ff" d="M1799.12,-109.75C1802.96,-102.49 1808.52,-91.95 1813.26,-82.98"/>
<polygon fill="#63b8ff" stroke="#63b8ff" points="1816.39,-84.57 1817.96,-74.09 1810.2,-81.3 1816.39,-84.57"/>
</a>
</g>
</g>
<!-- Node9&#45;&gt;Node4 -->
<g id="edge10_Node000009_Node000004" class="edge">
<title>Node9&#45;&gt;Node4</title>
<g id="a_edge10_Node000009_Node000004"><a xlink:title=" ">
<path fill="none" stroke="#63b8ff" d="M1739.17,-54.98C1767.04,-46.09 1810.95,-32.07 1842.02,-22.15"/>
<polygon fill="#63b8ff" stroke="#63b8ff" points="1843.16,-25.46 1851.62,-19.08 1841.03,-18.79 1843.16,-25.46"/>
</a>
</g>
</g>
<!-- Node9&#45;&gt;Node10 -->
<g id="edge9_Node000009_Node000010" class="edge">
<title>Node9&#45;&gt;Node10</title>
<g id="a_edge9_Node000009_Node000010"><a xlink:title=" ">
<path fill="none" stroke="#63b8ff" d="M1693.38,-54.98C1674.15,-46.42 1644.27,-33.11 1622.19,-23.28"/>
<polygon fill="#63b8ff" stroke="#63b8ff" points="1623.53,-20.04 1612.97,-19.17 1620.68,-26.44 1623.53,-20.04"/>
</a>
</g>
</g>
<!-- Node15&#45;&gt;Node5 -->
<g id="edge17_Node000015_Node000005" class="edge">
<title>Node15&#45;&gt;Node5</title>
<g id="a_edge17_Node000015_Node000005"><a xlink:title=" ">
<path fill="none" stroke="#63b8ff" d="M163.91,-109.8C180.68,-96.2 215.19,-69.92 248.5,-55 283.7,-39.23 325.56,-28.25 359.17,-21.14"/>
<polygon fill="#63b8ff" stroke="#63b8ff" points="360.22,-24.49 369.32,-19.06 358.82,-17.64 360.22,-24.49"/>
</a>
</g>
</g>
<!-- Node15&#45;&gt;Node11 -->
<g id="edge18_Node000015_Node000011" class="edge">
<title>Node15&#45;&gt;Node11</title>
<g id="a_edge18_Node000015_Node000011"><a xlink:title=" ">
<path fill="none" stroke="#63b8ff" d="M205.77,-109.98C291.37,-96.32 466.91,-69.6 616.5,-55 894.8,-27.84 1231.94,-15.24 1342.47,-11.63"/>
<polygon fill="#63b8ff" stroke="#63b8ff" points="1342.87,-15.12 1352.75,-11.3 1342.64,-8.13 1342.87,-15.12"/>
</a>
</g>
</g>
<!-- Node17&#45;&gt;Node4 -->
<g id="edge23_Node000017_Node000004" class="edge">
<title>Node17&#45;&gt;Node4</title>
<g id="a_edge23_Node000017_Node000004"><a xlink:title=" ">
<path fill="none" stroke="#63b8ff" d="M1655.12,-282.1C1736.09,-279.04 1862.19,-269.39 1897.5,-239 1919.83,-219.78 1916.5,-204.96 1916.5,-175.5 1916.5,-175.5 1916.5,-175.5 1916.5,-118.5 1916.5,-85.02 1900.05,-48.84 1888.8,-28.01"/>
<polygon fill="#63b8ff" stroke="#63b8ff" points="1891.74,-26.1 1883.78,-19.1 1885.63,-29.53 1891.74,-26.1"/>
</a>
</g>
</g>
<!-- Node17&#45;&gt;Node16 -->
<g id="edge30_Node000017_Node000016" class="edge">
<title>Node17&#45;&gt;Node16</title>
<g id="a_edge30_Node000017_Node000016"><a xlink:title=" ">
<path fill="none" stroke="#63b8ff" d="M1582.13,-274.66C1577.41,-257.09 1566.76,-217.45 1560.46,-193.95"/>
<polygon fill="#63b8ff" stroke="#63b8ff" points="1563.8,-192.91 1557.82,-184.16 1557.04,-194.72 1563.8,-192.91"/>
</a>
</g>
</g>
<!-- Node18 -->
<g id="Node000018" class="node">
<title>Node18</title>
<g id="a_Node000018"><a xlink:href="_model_database_api_8h.html" target="_top" xlink:title=" ">
<polygon fill="white" stroke="#666666" points="1888,-239 1731,-239 1731,-220 1888,-220 1888,-239"/>
<text text-anchor="middle" x="1809.5" y="-227" font-family="Helvetica,sans-Serif" font-size="10.00">Cpl/Dm/ModelDatabaseApi.h</text>
</a>
</g>
</g>
<!-- Node17&#45;&gt;Node18 -->
<g id="edge24_Node000017_Node000018" class="edge">
<title>Node17&#45;&gt;Node18</title>
<g id="a_edge24_Node000017_Node000018"><a xlink:title=" ">
<path fill="none" stroke="#63b8ff" d="M1620.65,-274.98C1659.41,-265.86 1721.05,-251.33 1763.3,-241.38"/>
<polygon fill="#63b8ff" stroke="#63b8ff" points="1764.14,-244.78 1773.07,-239.08 1762.53,-237.97 1764.14,-244.78"/>
</a>
</g>
</g>
<!-- Node19 -->
<g id="Node000019" class="node">
<title>Node19</title>
<g id="a_Node000019"><a xlink:href="_mutex_8h.html" target="_top" xlink:title=" ">
<polygon fill="white" stroke="#666666" points="1713,-239 1598,-239 1598,-220 1713,-220 1713,-239"/>
<text text-anchor="middle" x="1655.5" y="-227" font-family="Helvetica,sans-Serif" font-size="10.00">Cpl/System/Mutex.h</text>
</a>
</g>
</g>
<!-- Node17&#45;&gt;Node19 -->
<g id="edge26_Node000017_Node000019" class="edge">
<title>Node17&#45;&gt;Node19</title>
<g id="a_edge26_Node000017_Node000019"><a xlink:title=" ">
<path fill="none" stroke="#63b8ff" d="M1595.91,-274.98C1606.61,-267 1622.84,-254.88 1635.66,-245.31"/>
<polygon fill="#63b8ff" stroke="#63b8ff" points="1637.97,-247.96 1643.89,-239.17 1633.78,-242.35 1637.97,-247.96"/>
</a>
</g>
</g>
<!-- Node20 -->
<g id="Node000020" class="node">
<title>Node20</title>
<g id="a_Node000020"><a xlink:href="_s_list_8h.html" target="_top" xlink:title=" ">
<polygon fill="white" stroke="#666666" points="890.5,-239 772.5,-239 772.5,-220 890.5,-220 890.5,-239"/>
<text text-anchor="middle" x="831.5" y="-227" font-family="Helvetica,sans-Serif" font-size="10.00">Cpl/Container/SList.h</text>
</a>
</g>
</g>
<!-- Node17&#45;&gt;Node20 -->
<g id="edge28_Node000017_Node000020" class="edge">
<title>Node17&#45;&gt;Node20</title>
<g id="a_edge28_Node000017_Node000020"><a xlink:title=" ">
<path fill="none" stroke="#63b8ff" d="M1514,-278.54C1370.08,-268.41 1044.02,-245.46 900.97,-235.39"/>
<polygon fill="#63b8ff" stroke="#63b8ff" points="900.8,-231.87 890.58,-234.66 900.31,-238.85 900.8,-231.87"/>
</a>
</g>
</g>
<!-- Node18&#45;&gt;Node6 -->
<g id="edge25_Node000018_Node000006" class="edge">
<title>Node18&#45;&gt;Node6</title>
<g id="a_edge25_Node000018_Node000006"><a xlink:title=" ">
<path fill="none" stroke="#63b8ff" d="M1793.92,-219.98C1778.73,-211.69 1755.4,-198.94 1737.6,-189.22"/>
<polygon fill="#63b8ff" stroke="#63b8ff" points="1738.82,-185.89 1728.37,-184.17 1735.47,-192.04 1738.82,-185.89"/>
</a>
</g>
</g>
<!-- Node19&#45;&gt;Node7 -->
<g id="edge27_Node000019_Node000007" class="edge">
<title>Node19&#45;&gt;Node7</title>
<g id="a_edge27_Node000019_Node000007"><a xlink:title=" ">
<path fill="none" stroke="#63b8ff" d="M1651.94,-219.81C1646.22,-206.69 1633.96,-181.6 1617.5,-165 1595.87,-143.19 1576.16,-154.14 1558.5,-129 1549.3,-115.91 1546.31,-97.77 1545.47,-84.23"/>
<polygon fill="#63b8ff" stroke="#63b8ff" points="1548.97,-84.04 1545.18,-74.15 1541.97,-84.25 1548.97,-84.04"/>
</a>
</g>
</g>
<!-- Node20&#45;&gt;Node5 -->
<g id="edge29_Node000020_Node000005" class="edge">
<title>Node20&#45;&gt;Node5</title>
<g id="a_edge29_Node000020_Node000005"><a xlink:title=" ">
<path fill="none" stroke="#63b8ff" d="M772.18,-225.63C669.52,-220.09 467.47,-206.45 444.5,-184 402.51,-142.96 410.21,-65.12 416.53,-29.34"/>
<polygon fill="#63b8ff" stroke="#63b8ff" points="420.01,-29.79 418.47,-19.3 413.13,-28.46 420.01,-29.79"/>
</a>
</g>
</g>
<!-- Node21&#45;&gt;Node3 -->
<g id="edge33_Node000021_Node000003" class="edge">
<title>Node21&#45;&gt;Node3</title>
<g id="a_edge33_Node000021_Node000003"><a xlink:title=" ">
<path fill="none" stroke="#63b8ff" d="M1303.56,-274.98C1339.92,-265.89 1397.67,-251.46 1437.47,-241.51"/>
<polygon fill="#63b8ff" stroke="#63b8ff" points="1438.32,-244.9 1447.17,-239.08 1436.62,-238.11 1438.32,-244.9"/>
</a>
</g>
</g>
<!-- Node21&#45;&gt;Node11 -->
<g id="edge61_Node000021_Node000011" class="edge">
<title>Node21&#45;&gt;Node11</title>
<g id="a_edge61_Node000021_Node000011"><a xlink:title=" ">
<path fill="none" stroke="#63b8ff" d="M1273.85,-274.94C1285.52,-251.79 1318.16,-185.87 1340.5,-129 1354.17,-94.2 1367.14,-52.44 1374.14,-28.93"/>
<polygon fill="#63b8ff" stroke="#63b8ff" points="1377.53,-29.82 1376.99,-19.24 1370.81,-27.85 1377.53,-29.82"/>
</a>
</g>
</g>
<!-- Node21&#45;&gt;Node15 -->
<g id="edge32_Node000021_Node000015" class="edge">
<title>Node21&#45;&gt;Node15</title>
<g id="a_edge32_Node000021_Node000015"><a xlink:title=" ">
<path fill="none" stroke="#63b8ff" d="M1211.77,-281.55C1066.69,-275.71 675.79,-254.18 358.5,-184 296.46,-170.28 226.1,-146.66 186.04,-132.42"/>
<polygon fill="#63b8ff" stroke="#63b8ff" points="187.12,-129.09 176.53,-129.01 184.76,-135.68 187.12,-129.09"/>
</a>
</g>
</g>
<!-- Node22 -->
<g id="Node000022" class="node">
<title>Node22</title>
<g id="a_Node000022"><a xlink:href="_dm_2_event_loop_8h.html" target="_top" xlink:title=" ">
<polygon fill="white" stroke="#666666" points="316.5,-239 200.5,-239 200.5,-220 316.5,-220 316.5,-239"/>
<text text-anchor="middle" x="258.5" y="-227" font-family="Helvetica,sans-Serif" font-size="10.00">Cpl/Dm/EventLoop.h</text>
</a>
</g>
</g>
<!-- Node21&#45;&gt;Node22 -->
<g id="edge34_Node000021_Node000022" class="edge">
<title>Node21&#45;&gt;Node22</title>
<g id="a_edge34_Node000021_Node000022"><a xlink:title=" ">
<path fill="none" stroke="#63b8ff" d="M1211.98,-282.18C1065,-278.5 663.73,-266.53 330.5,-239 329.23,-238.9 327.95,-238.79 326.66,-238.67"/>
<polygon fill="#63b8ff" stroke="#63b8ff" points="326.91,-235.18 316.62,-237.72 326.25,-242.15 326.91,-235.18"/>
</a>
</g>
</g>
<!-- Node22&#45;&gt;Node15 -->
<g id="edge58_Node000022_Node000015" class="edge">
<title>Node22&#45;&gt;Node15</title>
<g id="a_edge58_Node000022_Node000015"><a xlink:title=" ">
<path fill="none" stroke="#63b8ff" d="M257.84,-219.69C256.41,-206.42 252,-181.13 238.5,-165 226.26,-150.37 207.96,-139.92 191.47,-132.85"/>
<polygon fill="#63b8ff" stroke="#63b8ff" points="192.62,-129.54 182.03,-129.06 190.01,-136.03 192.62,-129.54"/>
</a>
</g>
</g>
<!-- Node23 -->
<g id="Node000023" class="node">
<title>Node23</title>
<g id="a_Node000023"><a xlink:href="_system_2_event_loop_8h.html" target="_top" xlink:title=" ">
<polygon fill="white" stroke="#666666" points="766,-184 631,-184 631,-165 766,-165 766,-184"/>
<text text-anchor="middle" x="698.5" y="-172" font-family="Helvetica,sans-Serif" font-size="10.00">Cpl/System/EventLoop.h</text>
</a>
</g>
</g>
<!-- Node22&#45;&gt;Node23 -->
<g id="edge35_Node000022_Node000023" class="edge">
<title>Node22&#45;&gt;Node23</title>
<g id="a_edge35_Node000022_Node000023"><a xlink:title=" ">
<path fill="none" stroke="#63b8ff" d="M316.93,-221.46C395.07,-212.05 533.82,-195.34 620.73,-184.87"/>
<polygon fill="#63b8ff" stroke="#63b8ff" points="621.29,-188.33 630.8,-183.65 620.45,-181.38 621.29,-188.33"/>
</a>
</g>
</g>
<!-- Node22&#45;&gt;Node31 -->
<g id="edge57_Node000022_Node000031" class="edge">
<title>Node22&#45;&gt;Node31</title>
<g id="a_edge57_Node000022_Node000031"><a xlink:title=" ">
<path fill="none" stroke="#63b8ff" d="M200.34,-221.14C154.23,-214.07 94.9,-201.83 78.5,-184 53.43,-156.75 54.01,-110.23 56.71,-84.33"/>
<polygon fill="#63b8ff" stroke="#63b8ff" points="60.19,-84.67 57.97,-74.31 53.25,-83.79 60.19,-84.67"/>
</a>
</g>
</g>
<!-- Node32 -->
<g id="Node000032" class="node">
<title>Node32</title>
<g id="a_Node000032"><a xlink:href="_thread_8h.html" target="_top" xlink:title=" ">
<polygon fill="white" stroke="#666666" points="1181.5,-184 1063.5,-184 1063.5,-165 1181.5,-165 1181.5,-184"/>
<text text-anchor="middle" x="1122.5" y="-172" font-family="Helvetica,sans-Serif" font-size="10.00">Cpl/System/Thread.h</text>
</a>
</g>
</g>
<!-- Node22&#45;&gt;Node32 -->
<g id="edge51_Node000022_Node000032" class="edge">
<title>Node22&#45;&gt;Node32</title>
<g id="a_edge51_Node000022_Node000032"><a xlink:title=" ">
<path fill="none" stroke="#63b8ff" d="M316.53,-224.94C470.24,-215.51 887.43,-189.92 1053.22,-179.75"/>
<polygon fill="#63b8ff" stroke="#63b8ff" points="1053.53,-183.24 1063.3,-179.13 1053.1,-176.25 1053.53,-183.24"/>
</a>
</g>
</g>
<!-- Node35 -->
<g id="Node000035" class="node">
<title>Node35</title>
<g id="a_Node000035"><a xlink:href="_notification_api___8h.html" target="_top" xlink:title=" ">
<polygon fill="white" stroke="#666666" points="229.5,-184 87.5,-184 87.5,-165 229.5,-165 229.5,-184"/>
<text text-anchor="middle" x="158.5" y="-172" font-family="Helvetica,sans-Serif" font-size="10.00">Cpl/Dm/NotificationApi_.h</text>
</a>
</g>
</g>
<!-- Node22&#45;&gt;Node35 -->
<g id="edge59_Node000022_Node000035" class="edge">
<title>Node22&#45;&gt;Node35</title>
<g id="a_edge59_Node000022_Node000035"><a xlink:title=" ">
<path fill="none" stroke="#63b8ff" d="M242.43,-219.98C226.64,-211.61 202.28,-198.7 183.87,-188.95"/>
<polygon fill="#63b8ff" stroke="#63b8ff" points="185.33,-185.76 174.86,-184.17 182.06,-191.95 185.33,-185.76"/>
</a>
</g>
</g>
<!-- Node24 -->
<g id="Node000024" class="node">
<title>Node24</title>
<g id="a_Node000024"><a xlink:href="_runnable_8h.html" target="_top" xlink:title=" ">
<polygon fill="white" stroke="#666666" points="1052.5,-129 922.5,-129 922.5,-110 1052.5,-110 1052.5,-129"/>
<text text-anchor="middle" x="987.5" y="-117" font-family="Helvetica,sans-Serif" font-size="10.00">Cpl/System/Runnable.h</text>
</a>
</g>
</g>
<!-- Node23&#45;&gt;Node24 -->
<g id="edge36_Node000023_Node000024" class="edge">
<title>Node23&#45;&gt;Node24</title>
<g id="a_edge36_Node000023_Node000024"><a xlink:title=" ">
<path fill="none" stroke="#63b8ff" d="M744.93,-164.98C795.45,-155.72 876.24,-140.9 930.55,-130.94"/>
<polygon fill="#63b8ff" stroke="#63b8ff" points="931.5,-134.33 940.7,-129.08 930.24,-127.44 931.5,-134.33"/>
</a>
</g>
</g>
<!-- Node25 -->
<g id="Node000025" class="node">
<title>Node25</title>
<g id="a_Node000025"><a xlink:href="_semaphore_8h.html" target="_top" xlink:title=" ">
<polygon fill="white" stroke="#666666" points="904.5,-129 764.5,-129 764.5,-110 904.5,-110 904.5,-129"/>
<text text-anchor="middle" x="834.5" y="-117" font-family="Helvetica,sans-Serif" font-size="10.00">Cpl/System/Semaphore.h</text>
</a>
</g>
</g>
<!-- Node23&#45;&gt;Node25 -->
<g id="edge37_Node000023_Node000025" class="edge">
<title>Node23&#45;&gt;Node25</title>
<g id="a_edge37_Node000023_Node000025"><a xlink:title=" ">
<path fill="none" stroke="#63b8ff" d="M720.35,-164.98C742.62,-156.3 777.4,-142.75 802.72,-132.88"/>
<polygon fill="#63b8ff" stroke="#63b8ff" points="804.21,-136.06 812.25,-129.17 801.66,-129.54 804.21,-136.06"/>
</a>
</g>
</g>
<!-- Node26 -->
<g id="Node000026" class="node">
<title>Node26</title>
<g id="a_Node000026"><a xlink:href="_signable_8h.html" target="_top" xlink:title=" ">
<polygon fill="white" stroke="#666666" points="903.5,-74 777.5,-74 777.5,-55 903.5,-55 903.5,-74"/>
<text text-anchor="middle" x="840.5" y="-62" font-family="Helvetica,sans-Serif" font-size="10.00">Cpl/System/Signable.h</text>
</a>
</g>
</g>
<!-- Node23&#45;&gt;Node26 -->
<g id="edge41_Node000023_Node000026" class="edge">
<title>Node23&#45;&gt;Node26</title>
<g id="a_edge41_Node000023_Node000026"><a xlink:title=" ">
<path fill="none" stroke="#63b8ff" d="M704.7,-164.8C714.38,-151.66 734.21,-126.55 755.5,-110 772.1,-97.1 793,-86.1 809.91,-78.26"/>
<polygon fill="#63b8ff" stroke="#63b8ff" points="811.66,-81.32 819.35,-74.03 808.8,-74.93 811.66,-81.32"/>
</a>
</g>
</g>
<!-- Node27 -->
<g id="Node000027" class="node">
<title>Node27</title>
<g id="a_Node000027"><a xlink:href="_event_flag_8h.html" target="_top" xlink:title=" ">
<polygon fill="white" stroke="#666666" points="759,-74 626,-74 626,-55 759,-55 759,-74"/>
<text text-anchor="middle" x="692.5" y="-62" font-family="Helvetica,sans-Serif" font-size="10.00">Cpl/System/EventFlag.h</text>
</a>
</g>
</g>
<!-- Node23&#45;&gt;Node27 -->
<g id="edge42_Node000023_Node000027" class="edge">
<title>Node23&#45;&gt;Node27</title>
<g id="a_edge42_Node000023_Node000027"><a xlink:title=" ">
<path fill="none" stroke="#63b8ff" d="M698.01,-164.66C697.04,-147.17 694.85,-107.8 693.54,-84.27"/>
<polygon fill="#63b8ff" stroke="#63b8ff" points="697.03,-83.95 692.98,-74.16 690.04,-84.34 697.03,-83.95"/>
</a>
</g>
</g>
<!-- Node28 -->
<g id="Node000028" class="node">
<title>Node28</title>
<g id="a_Node000028"><a xlink:href="_shared_event_handler_8h.html" target="_top" xlink:title=" ">
<polygon fill="white" stroke="#666666" points="670,-129 487,-129 487,-110 670,-110 670,-129"/>
<text text-anchor="middle" x="578.5" y="-117" font-family="Helvetica,sans-Serif" font-size="10.00">Cpl/System/SharedEventHandler.h</text>
</a>
</g>
</g>
<!-- Node23&#45;&gt;Node28 -->
<g id="edge45_Node000023_Node000028" class="edge">
<title>Node23&#45;&gt;Node28</title>
<g id="a_edge45_Node000023_Node000028"><a xlink:title=" ">
<path fill="none" stroke="#63b8ff" d="M679.22,-164.98C659.83,-156.42 629.69,-143.11 607.43,-133.28"/>
<polygon fill="#63b8ff" stroke="#63b8ff" points="608.69,-130.01 598.13,-129.17 605.86,-136.41 608.69,-130.01"/>
</a>
</g>
</g>
<!-- Node29 -->
<g id="Node000029" class="node">
<title>Node29</title>
<g id="a_Node000029"><a xlink:href="_timer_manager_8h.html" target="_top" xlink:title=" ">
<polygon fill="white" stroke="#666666" points="392,-129 237,-129 237,-110 392,-110 392,-129"/>
<text text-anchor="middle" x="314.5" y="-117" font-family="Helvetica,sans-Serif" font-size="10.00">Cpl/System/TimerManager.h</text>
</a>
</g>
</g>
<!-- Node23&#45;&gt;Node29 -->
<g id="edge47_Node000023_Node000029" class="edge">
<title>Node23&#45;&gt;Node29</title>
<g id="a_edge47_Node000023_Node000029"><a xlink:title=" ">
<path fill="none" stroke="#63b8ff" d="M636.8,-164.98C568.47,-155.55 458.43,-140.36 386.28,-130.41"/>
<polygon fill="#63b8ff" stroke="#63b8ff" points="386.75,-126.94 376.36,-129.04 385.79,-133.87 386.75,-126.94"/>
</a>
</g>
</g>
<!-- Node25&#45;&gt;Node7 -->
<g id="edge38_Node000025_Node000007" class="edge">
<title>Node25&#45;&gt;Node7</title>
<g id="a_edge38_Node000025_Node000007"><a xlink:title=" ">
<path fill="none" stroke="#63b8ff" d="M904.7,-110.81C907.67,-110.53 910.61,-110.26 913.5,-110 1128.16,-90.9 1384.44,-74.97 1492.89,-68.55"/>
<polygon fill="#63b8ff" stroke="#63b8ff" points="1493.15,-72.04 1502.92,-67.95 1492.73,-65.05 1493.15,-72.04"/>
</a>
</g>
</g>
<!-- Node25&#45;&gt;Node26 -->
<g id="edge39_Node000025_Node000026" class="edge">
<title>Node25&#45;&gt;Node26</title>
<g id="a_edge39_Node000025_Node000026"><a xlink:title=" ">
<path fill="none" stroke="#63b8ff" d="M835.49,-109.75C836.28,-102.8 837.4,-92.85 838.39,-84.13"/>
<polygon fill="#63b8ff" stroke="#63b8ff" points="841.88,-84.42 839.53,-74.09 834.92,-83.63 841.88,-84.42"/>
</a>
</g>
</g>
<!-- Node26&#45;&gt;Node5 -->
<g id="edge40_Node000026_Node000005" class="edge">
<title>Node26&#45;&gt;Node5</title>
<g id="a_edge40_Node000026_Node000005"><a xlink:title=" ">
<path fill="none" stroke="#63b8ff" d="M777.17,-55.51C699.7,-45.73 569.05,-29.25 489.21,-19.17"/>
<polygon fill="#63b8ff" stroke="#63b8ff" points="489.62,-15.69 479.26,-17.91 488.74,-22.64 489.62,-15.69"/>
</a>
</g>
</g>
<!-- Node27&#45;&gt;Node4 -->
<g id="edge43_Node000027_Node000004" class="edge">
<title>Node27&#45;&gt;Node4</title>
<g id="a_edge43_Node000027_Node000004"><a xlink:title=" ">
<path fill="none" stroke="#63b8ff" d="M759.2,-55.77C762.34,-55.49 765.46,-55.23 768.5,-55 873.76,-47.01 1610.79,-20.14 1822.03,-12.53"/>
<polygon fill="#63b8ff" stroke="#63b8ff" points="1822.41,-16.02 1832.28,-12.16 1822.16,-9.02 1822.41,-16.02"/>
</a>
</g>
</g>
<!-- Node27&#45;&gt;Node11 -->
<g id="edge44_Node000027_Node000011" class="edge">
<title>Node27&#45;&gt;Node11</title>
<g id="a_edge44_Node000027_Node000011"><a xlink:title=" ">
<path fill="none" stroke="#63b8ff" d="M759.21,-55.89C762.35,-55.58 765.46,-55.28 768.5,-55 985.97,-34.93 1247.67,-18.43 1342.73,-12.68"/>
<polygon fill="#63b8ff" stroke="#63b8ff" points="1343.2,-16.16 1352.97,-12.06 1342.78,-9.17 1343.2,-16.16"/>
</a>
</g>
</g>
<!-- Node28&#45;&gt;Node27 -->
<g id="edge46_Node000028_Node000027" class="edge">
<title>Node28&#45;&gt;Node27</title>
<g id="a_edge46_Node000028_Node000027"><a xlink:title=" ">
<path fill="none" stroke="#63b8ff" d="M596.82,-109.98C615.16,-101.46 643.61,-88.23 664.73,-78.41"/>
<polygon fill="#63b8ff" stroke="#63b8ff" points="666.26,-81.56 673.85,-74.17 663.31,-75.21 666.26,-81.56"/>
</a>
</g>
</g>
<!-- Node30 -->
<g id="Node000030" class="node">
<title>Node30</title>
<g id="a_Node000030"><a xlink:href="_counter___8h.html" target="_top" xlink:title=" ">
<polygon fill="white" stroke="#666666" points="385.5,-74 257.5,-74 257.5,-55 385.5,-55 385.5,-74"/>
<text text-anchor="middle" x="321.5" y="-62" font-family="Helvetica,sans-Serif" font-size="10.00">Cpl/System/Counter_.h</text>
</a>
</g>
</g>
<!-- Node29&#45;&gt;Node30 -->
<g id="edge48_Node000029_Node000030" class="edge">
<title>Node29&#45;&gt;Node30</title>
<g id="a_edge48_Node000029_Node000030"><a xlink:title=" ">
<path fill="none" stroke="#63b8ff" d="M315.66,-109.75C316.57,-102.8 317.89,-92.85 319.04,-84.13"/>
<polygon fill="#63b8ff" stroke="#63b8ff" points="322.53,-84.46 320.37,-74.09 315.59,-83.54 322.53,-84.46"/>
</a>
</g>
</g>
<!-- Node29&#45;&gt;Node31 -->
<g id="edge50_Node000029_Node000031" class="edge">
<title>Node29&#45;&gt;Node31</title>
<g id="a_edge50_Node000029_Node000031"><a xlink:title=" ">
<path fill="none" stroke="#63b8ff" d="M273.53,-109.98C229.24,-100.78 158.56,-86.09 110.65,-76.13"/>
<polygon fill="#63b8ff" stroke="#63b8ff" points="111.29,-72.69 100.79,-74.08 109.87,-79.54 111.29,-72.69"/>
</a>
</g>
</g>
<!-- Node30&#45;&gt;Node5 -->
<g id="edge49_Node000030_Node000005" class="edge">
<title>Node30&#45;&gt;Node5</title>
<g id="a_edge49_Node000030_Node000005"><a xlink:title=" ">
<path fill="none" stroke="#63b8ff" d="M337.41,-54.98C353.05,-46.61 377.16,-33.7 395.38,-23.95"/>
<polygon fill="#63b8ff" stroke="#63b8ff" points="397.14,-26.98 404.3,-19.17 393.84,-20.8 397.14,-26.98"/>
</a>
</g>
</g>
<!-- Node32&#45;&gt;Node7 -->
<g id="edge52_Node000032_Node000007" class="edge">
<title>Node32&#45;&gt;Node7</title>
<g id="a_edge52_Node000032_Node000007"><a xlink:title=" ">
<path fill="none" stroke="#63b8ff" d="M1144.84,-164.95C1167.02,-156.34 1201.9,-142.42 1231.5,-129 1248.7,-121.2 1251.53,-115.79 1269.5,-110 1344.95,-85.68 1436.48,-74.28 1492.85,-69.21"/>
<polygon fill="#63b8ff" stroke="#63b8ff" points="1493.29,-72.69 1502.95,-68.34 1492.69,-65.71 1493.29,-72.69"/>
</a>
</g>
</g>
<!-- Node32&#45;&gt;Node24 -->
<g id="edge53_Node000032_Node000024" class="edge">
<title>Node32&#45;&gt;Node24</title>
<g id="a_edge53_Node000032_Node000024"><a xlink:title=" ">
<path fill="none" stroke="#63b8ff" d="M1100.81,-164.98C1078.7,-156.3 1044.18,-142.75 1019.05,-132.88"/>
<polygon fill="#63b8ff" stroke="#63b8ff" points="1020.17,-129.57 1009.58,-129.17 1017.61,-136.08 1020.17,-129.57"/>
</a>
</g>
</g>
<!-- Node32&#45;&gt;Node26 -->
<g id="edge54_Node000032_Node000026" class="edge">
<title>Node32&#45;&gt;Node26</title>
<g id="a_edge54_Node000032_Node000026"><a xlink:title=" ">
<path fill="none" stroke="#63b8ff" d="M1116.9,-164.92C1107.33,-151 1086.42,-123.68 1061.5,-110 1016.21,-85.13 958.86,-74.08 913.93,-69.21"/>
<polygon fill="#63b8ff" stroke="#63b8ff" points="914.26,-65.72 903.96,-68.2 913.56,-72.69 914.26,-65.72"/>
</a>
</g>
</g>
<!-- Node33 -->
<g id="Node000033" class="node">
<title>Node33</title>
<g id="a_Node000033"><a xlink:href="_traverser_8h.html" target="_top" xlink:title=" ">
<polygon fill="white" stroke="#666666" points="1222.5,-129 1108.5,-129 1108.5,-110 1222.5,-110 1222.5,-129"/>
<text text-anchor="middle" x="1165.5" y="-117" font-family="Helvetica,sans-Serif" font-size="10.00">Cpl/Type/Traverser.h</text>
</a>
</g>
</g>
<!-- Node32&#45;&gt;Node33 -->
<g id="edge55_Node000032_Node000033" class="edge">
<title>Node32&#45;&gt;Node33</title>
<g id="a_edge55_Node000032_Node000033"><a xlink:title=" ">
<path fill="none" stroke="#63b8ff" d="M1129.6,-164.75C1135.67,-157.26 1144.59,-146.28 1152.01,-137.13"/>
<polygon fill="#63b8ff" stroke="#63b8ff" points="1154.95,-139.06 1158.53,-129.09 1149.51,-134.65 1154.95,-139.06"/>
</a>
</g>
</g>
<!-- Node32&#45;&gt;Node34 -->
<g id="edge56_Node000032_Node000034" class="edge">
<title>Node32&#45;&gt;Node34</title>
<g id="a_edge56_Node000032_Node000034"><a xlink:title=" ">
<path fill="none" stroke="#63b8ff" d="M1151.9,-164.98C1183.81,-155.74 1234.8,-140.98 1269.19,-131.02"/>
<polygon fill="#63b8ff" stroke="#63b8ff" points="1270.22,-134.36 1278.85,-128.22 1268.27,-127.64 1270.22,-134.36"/>
</a>
</g>
</g>
<!-- Node35&#45;&gt;Node15 -->
<g id="edge60_Node000035_Node000015" class="edge">
<title>Node35&#45;&gt;Node15</title>
<g id="a_edge60_Node000035_Node000015"><a xlink:title=" ">
<path fill="none" stroke="#63b8ff" d="M157.67,-164.75C157.02,-157.8 156.08,-147.85 155.26,-139.13"/>
<polygon fill="#63b8ff" stroke="#63b8ff" points="158.73,-138.72 154.31,-129.09 151.77,-139.37 158.73,-138.72"/>
</a>
</g>
</g>
<!-- Node36&#45;&gt;Node2 -->
<g id="edge66_Node000036_Node000002" class="edge">
<title>Node36&#45;&gt;Node2</title>
<g id="a_edge66_Node000036_Node000002"><a xlink:title=" ">
<path fill="none" stroke="#63b8ff" d="M1463.16,-384.98C1450.41,-376.84 1430.95,-364.41 1415.83,-354.76"/>
<polygon fill="#63b8ff" stroke="#63b8ff" points="1417.39,-351.6 1407.08,-349.17 1413.62,-357.5 1417.39,-351.6"/>
</a>
</g>
</g>
<!-- Node37 -->
<g id="Node000037" class="node">
<title>Node37</title>
<g id="a_Node000037"><a xlink:href="_alert_8h.html" target="_top" xlink:title=" ">
<polygon fill="white" stroke="#666666" points="1737,-349 1638,-349 1638,-330 1737,-330 1737,-349"/>
<text text-anchor="middle" x="1687.5" y="-337" font-family="Helvetica,sans-Serif" font-size="10.00">Ajax/Type/Alert.h</text>
</a>
</g>
</g>
<!-- Node36&#45;&gt;Node37 -->
<g id="edge67_Node000036_Node000037" class="edge">
<title>Node36&#45;&gt;Node37</title>
<g id="a_edge67_Node000036_Node000037"><a xlink:title=" ">
<path fill="none" stroke="#63b8ff" d="M1510.4,-384.98C1546.52,-375.91 1603.82,-361.52 1643.42,-351.57"/>
<polygon fill="#63b8ff" stroke="#63b8ff" points="1644.49,-354.91 1653.33,-349.08 1642.78,-348.12 1644.49,-354.91"/>
</a>
</g>
</g>
<!-- Node38 -->
<g id="Node000038" class="node">
<title>Node38</title>
<g id="a_Node000038"><a xlink:href="enum_8h_source.html" target="_top" xlink:title=" ">
<polygon fill="white" stroke="#666666" points="1894.5,-294 1796.5,-294 1796.5,-275 1894.5,-275 1894.5,-294"/>
<text text-anchor="middle" x="1845.5" y="-282" font-family="Helvetica,sans-Serif" font-size="10.00">Cpl/Type/enum.h</text>
</a>
</g>
</g>
<!-- Node37&#45;&gt;Node38 -->
<g id="edge68_Node000037_Node000038" class="edge">
<title>Node37&#45;&gt;Node38</title>
<g id="a_edge68_Node000037_Node000038"><a xlink:title=" ">
<path fill="none" stroke="#63b8ff" d="M1712.89,-329.98C1739.3,-321.13 1780.85,-307.19 1810.39,-297.28"/>
<polygon fill="#63b8ff" stroke="#63b8ff" points="1811.55,-300.58 1819.92,-294.08 1809.32,-293.94 1811.55,-300.58"/>
</a>
</g>
</g>
<!-- Node38&#45;&gt;Node4 -->
<g id="edge69_Node000038_Node000004" class="edge">
<title>Node38&#45;&gt;Node4</title>
<g id="a_edge69_Node000038_Node000004"><a xlink:title=" ">
<path fill="none" stroke="#63b8ff" d="M1872.91,-274.97C1891.41,-267.96 1915.15,-256.33 1930.5,-239 1950.51,-216.42 1954.5,-205.67 1954.5,-175.5 1954.5,-175.5 1954.5,-175.5 1954.5,-118.5 1954.5,-88.33 1947.84,-79.69 1930.5,-55 1922.39,-43.45 1910.62,-33.04 1900.32,-25.2"/>
<polygon fill="#63b8ff" stroke="#63b8ff" points="1902.28,-22.3 1892.13,-19.25 1898.16,-27.96 1902.28,-22.3"/>
</a>
</g>
</g>
</g>
</svg>
