<?xml version="1.0" encoding="UTF-8" standalone="no"?>
<!DOCTYPE svg PUBLIC "-//W3C//DTD SVG 1.1//EN"
 "http://www.w3.org/Graphics/SVG/1.1/DTD/svg11.dtd">
<!-- Generated by graphviz version 9.0.0 (20230911.1827)
 -->
<!-- Title: Cpl/System/Mutex.h Pages: 1 -->
<svg width="2520pt" height="415pt"
 viewBox="0.00 0.00 2519.75 415.00" xmlns="http://www.w3.org/2000/svg" xmlns:xlink="http://www.w3.org/1999/xlink">
<g id="graph0" class="graph" transform="scale(1 1) rotate(0) translate(4 411)">
<title>Cpl/System/Mutex.h</title>
<!-- Node1 -->
<g id="Node000001" class="node">
<title>Node1</title>
<g id="a_Node000001"><a xlink:title=" ">
<polygon fill="#999999" stroke="#666666" points="1883.5,-407 1780.5,-407 1780.5,-387.75 1883.5,-387.75 1883.5,-407"/>
<text text-anchor="middle" x="1832" y="-393.5" font-family="Helvetica,sans-Serif" font-size="10.00">Cpl/System/Mutex.h</text>
</a>
</g>
</g>
<!-- Node2 -->
<g id="Node000002" class="node">
<title>Node2</title>
<g id="a_Node000002"><a xlink:href="_ring_buffer_m_t_8h.html" target="_top" xlink:title=" ">
<polygon fill="white" stroke="#666666" points="1549.12,-351.75 1404.88,-351.75 1404.88,-332.5 1549.12,-332.5 1549.12,-351.75"/>
<text text-anchor="middle" x="1477" y="-338.25" font-family="Helvetica,sans-Serif" font-size="10.00">Cpl/Container/RingBufferMT.h</text>
</a>
</g>
</g>
<!-- Node1&#45;&gt;Node2 -->
<g id="edge1_Node000001_Node000002" class="edge">
<title>Node1&#45;&gt;Node2</title>
<g id="a_edge1_Node000001_Node000002"><a xlink:title=" ">
<path fill="none" stroke="#63b8ff" d="M1769.01,-386.93C1703.63,-377.12 1602.09,-361.89 1537.61,-352.22"/>
<polygon fill="#63b8ff" stroke="#63b8ff" points="1768.47,-390.39 1778.88,-388.41 1769.51,-383.46 1768.47,-390.39"/>
</a>
</g>
</g>
<!-- Node15 -->
<g id="Node000015" class="node">
<title>Node15</title>
<g id="a_Node000015"><a xlink:href="_model_database_8h.html" target="_top" xlink:title=" ">
<polygon fill="white" stroke="#666666" points="1227.12,-351.75 1100.88,-351.75 1100.88,-332.5 1227.12,-332.5 1227.12,-351.75"/>
<text text-anchor="middle" x="1164" y="-338.25" font-family="Helvetica,sans-Serif" font-size="10.00">Cpl/Dm/ModelDatabase.h</text>
</a>
</g>
</g>
<!-- Node1&#45;&gt;Node15 -->
<g id="edge13_Node000001_Node000015" class="edge">
<title>Node1&#45;&gt;Node15</title>
<g id="a_edge13_Node000001_Node000015"><a xlink:title=" ">
<path fill="none" stroke="#63b8ff" d="M1768.67,-391.33C1641.18,-381.16 1354.86,-358.34 1227.35,-348.17"/>
<polygon fill="#63b8ff" stroke="#63b8ff" points="1768.38,-394.81 1778.63,-392.12 1768.94,-387.84 1768.38,-394.81"/>
</a>
</g>
</g>
<!-- Node58 -->
<g id="Node000058" class="node">
<title>Node58</title>
<g id="a_Node000058"><a xlink:href="_atomic_output_8h.html" target="_top" xlink:title=" ">
<polygon fill="white" stroke="#666666" points="1679,-351.75 1567,-351.75 1567,-332.5 1679,-332.5 1679,-351.75"/>
<text text-anchor="middle" x="1623" y="-338.25" font-family="Helvetica,sans-Serif" font-size="10.00">Cpl/Io/AtomicOutput.h</text>
</a>
</g>
</g>
<!-- Node1&#45;&gt;Node58 -->
<g id="edge45_Node000001_Node000058" class="edge">
<title>Node1&#45;&gt;Node58</title>
<g id="a_edge45_Node000001_Node000058"><a xlink:title=" ">
<path fill="none" stroke="#63b8ff" d="M1785.67,-384.57C1747.34,-374.8 1693.67,-361.13 1658.63,-352.2"/>
<polygon fill="#63b8ff" stroke="#63b8ff" points="1784.52,-387.89 1795.08,-386.97 1786.25,-381.11 1784.52,-387.89"/>
</a>
</g>
</g>
<!-- Node59 -->
<g id="Node000059" class="node">
<title>Node59</title>
<g id="a_Node000059"><a xlink:href="_ram_2_input_output_8h.html" target="_top" xlink:title=" ">
<polygon fill="white" stroke="#666666" points="1823.12,-351.75 1696.88,-351.75 1696.88,-332.5 1823.12,-332.5 1823.12,-351.75"/>
<text text-anchor="middle" x="1760" y="-338.25" font-family="Helvetica,sans-Serif" font-size="10.00">Cpl/Io/Ram/InputOutput.h</text>
</a>
</g>
</g>
<!-- Node1&#45;&gt;Node59 -->
<g id="edge46_Node000001_Node000059" class="edge">
<title>Node1&#45;&gt;Node59</title>
<g id="a_edge46_Node000001_Node000059"><a xlink:title=" ">
<path fill="none" stroke="#63b8ff" d="M1810.83,-380.72C1798.19,-371.37 1782.59,-359.83 1772.03,-352.02"/>
<polygon fill="#63b8ff" stroke="#63b8ff" points="1808.45,-383.31 1818.57,-386.44 1812.61,-377.68 1808.45,-383.31"/>
</a>
</g>
</g>
<!-- Node60 -->
<g id="Node000060" class="node">
<title>Node60</title>
<g id="a_Node000060"><a xlink:href="_listener___8h.html" target="_top" xlink:title=" ">
<polygon fill="white" stroke="#666666" points="1967.12,-351.75 1840.88,-351.75 1840.88,-332.5 1967.12,-332.5 1967.12,-351.75"/>
<text text-anchor="middle" x="1904" y="-338.25" font-family="Helvetica,sans-Serif" font-size="10.00">Cpl/Io/Socket/Listener_.h</text>
</a>
</g>
</g>
<!-- Node1&#45;&gt;Node60 -->
<g id="edge47_Node000001_Node000060" class="edge">
<title>Node1&#45;&gt;Node60</title>
<g id="a_edge47_Node000001_Node000060"><a xlink:title=" ">
<path fill="none" stroke="#63b8ff" d="M1853.17,-380.72C1865.81,-371.37 1881.41,-359.83 1891.97,-352.02"/>
<polygon fill="#63b8ff" stroke="#63b8ff" points="1851.39,-377.68 1845.43,-386.44 1855.55,-383.31 1851.39,-377.68"/>
</a>
</g>
</g>
<!-- Node63 -->
<g id="Node000063" class="node">
<title>Node63</title>
<g id="a_Node000063"><a xlink:href="_system_2_private___8h.html" target="_top" xlink:title="This file contains a collection of classes, interfaces, etc.">
<polygon fill="white" stroke="#666666" points="2098.38,-351.75 1985.62,-351.75 1985.62,-332.5 2098.38,-332.5 2098.38,-351.75"/>
<text text-anchor="middle" x="2042" y="-338.25" font-family="Helvetica,sans-Serif" font-size="10.00">Cpl/System/Private_.h</text>
</a>
</g>
</g>
<!-- Node1&#45;&gt;Node63 -->
<g id="edge50_Node000001_Node000063" class="edge">
<title>Node1&#45;&gt;Node63</title>
<g id="a_edge50_Node000001_Node000063"><a xlink:title=" ">
<path fill="none" stroke="#63b8ff" d="M1878.55,-384.57C1917.07,-374.8 1970.99,-361.13 2006.2,-352.2"/>
<polygon fill="#63b8ff" stroke="#63b8ff" points="1877.92,-381.12 1869.09,-386.97 1879.64,-387.9 1877.92,-381.12"/>
</a>
</g>
</g>
<!-- Node66 -->
<g id="Node000066" class="node">
<title>Node66</title>
<g id="a_Node000066"><a xlink:href="_processor_8h.html" target="_top" xlink:title=" ">
<polygon fill="white" stroke="#666666" points="2231.88,-351.75 2116.12,-351.75 2116.12,-332.5 2231.88,-332.5 2231.88,-351.75"/>
<text text-anchor="middle" x="2174" y="-338.25" font-family="Helvetica,sans-Serif" font-size="10.00">Cpl/TShell/Processor.h</text>
</a>
</g>
</g>
<!-- Node1&#45;&gt;Node66 -->
<g id="edge53_Node000001_Node000066" class="edge">
<title>Node1&#45;&gt;Node66</title>
<g id="a_edge53_Node000001_Node000066"><a xlink:title=" ">
<path fill="none" stroke="#63b8ff" d="M1894.94,-386.58C1958.06,-376.75 2054.46,-361.74 2115.83,-352.18"/>
<polygon fill="#63b8ff" stroke="#63b8ff" points="1894.78,-383.06 1885.44,-388.05 1895.86,-389.97 1894.78,-383.06"/>
</a>
</g>
</g>
<!-- Node68 -->
<g id="Node000068" class="node">
<title>Node68</title>
<g id="a_Node000068"><a xlink:href="_pipe_8h.html" target="_top" xlink:title=" ">
<polygon fill="white" stroke="#666666" points="2388,-351.75 2288,-351.75 2288,-332.5 2388,-332.5 2388,-351.75"/>
<text text-anchor="middle" x="2338" y="-338.25" font-family="Helvetica,sans-Serif" font-size="10.00">Driver/TPipe/Pipe.h</text>
</a>
</g>
</g>
<!-- Node1&#45;&gt;Node68 -->
<g id="edge57_Node000001_Node000068" class="edge">
<title>Node1&#45;&gt;Node68</title>
<g id="a_edge57_Node000001_Node000068"><a xlink:title=" ">
<path fill="none" stroke="#63b8ff" d="M1895.09,-389.74C1996.81,-379.03 2195,-358.17 2287.8,-348.41"/>
<polygon fill="#63b8ff" stroke="#63b8ff" points="1894.86,-386.24 1885.28,-390.77 1895.59,-393.2 1894.86,-386.24"/>
</a>
</g>
</g>
<!-- Node3 -->
<g id="Node000003" class="node">
<title>Node3</title>
<g id="a_Node000003"><a xlink:href="_ring_buffer_m_p_8h.html" target="_top" xlink:title=" ">
<polygon fill="white" stroke="#666666" points="1631.5,-290.88 1486.5,-290.88 1486.5,-271.62 1631.5,-271.62 1631.5,-290.88"/>
<text text-anchor="middle" x="1559" y="-277.38" font-family="Helvetica,sans-Serif" font-size="10.00">Cpl/Container/RingBufferMP.h</text>
</a>
</g>
</g>
<!-- Node2&#45;&gt;Node3 -->
<g id="edge2_Node000002_Node000003" class="edge">
<title>Node2&#45;&gt;Node3</title>
<g id="a_edge2_Node000002_Node000003"><a xlink:title=" ">
<path fill="none" stroke="#63b8ff" d="M1498.67,-325.56C1513.9,-314.63 1533.74,-300.39 1546.43,-291.28"/>
<polygon fill="#63b8ff" stroke="#63b8ff" points="1496.77,-322.63 1490.68,-331.3 1500.85,-328.31 1496.77,-322.63"/>
</a>
</g>
</g>
<!-- Node4 -->
<g id="Node000004" class="node">
<title>Node4</title>
<g id="a_Node000004"><a xlink:href="_ajax_2_screen_mgr_2_api_8h.html" target="_top" xlink:title=" ">
<polygon fill="white" stroke="#666666" points="1653.88,-157.88 1544.12,-157.88 1544.12,-138.62 1653.88,-138.62 1653.88,-157.88"/>
<text text-anchor="middle" x="1599" y="-144.38" font-family="Helvetica,sans-Serif" font-size="10.00">Ajax/ScreenMgr/Api.h</text>
</a>
</g>
</g>
<!-- Node3&#45;&gt;Node4 -->
<g id="edge3_Node000003_Node000004" class="edge">
<title>Node3&#45;&gt;Node4</title>
<g id="a_edge3_Node000003_Node000004"><a xlink:title=" ">
<path fill="none" stroke="#63b8ff" d="M1635.71,-269.23C1681.04,-260.97 1732.21,-247.99 1746,-230 1775.06,-192.1 1706.56,-169.62 1653.57,-158.36"/>
<polygon fill="#63b8ff" stroke="#63b8ff" points="1635.37,-265.74 1626.13,-270.91 1636.58,-272.63 1635.37,-265.74"/>
</a>
</g>
</g>
<!-- Node9 -->
<g id="Node000009" class="node">
<title>Node9</title>
<g id="a_Node000009"><a xlink:href="_ui_8h.html" target="_top" xlink:title=" ">
<polygon fill="white" stroke="#666666" points="1352.88,-224.38 1267.12,-224.38 1267.12,-205.12 1352.88,-205.12 1352.88,-224.38"/>
<text text-anchor="middle" x="1310" y="-210.88" font-family="Helvetica,sans-Serif" font-size="10.00">Ajax/TShell/Ui.h</text>
</a>
</g>
</g>
<!-- Node3&#45;&gt;Node9 -->
<g id="edge7_Node000003_Node000009" class="edge">
<title>Node3&#45;&gt;Node9</title>
<g id="a_edge7_Node000003_Node000009"><a xlink:title=" ">
<path fill="none" stroke="#63b8ff" d="M1511.64,-268.42C1471.7,-258.38 1413.04,-243.5 1362,-230 1355.76,-228.35 1349.1,-226.55 1342.71,-224.81"/>
<polygon fill="#63b8ff" stroke="#63b8ff" points="1510.62,-271.77 1521.17,-270.81 1512.33,-264.98 1510.62,-271.77"/>
</a>
</g>
</g>
<!-- Node10 -->
<g id="Node000010" class="node">
<title>Node10</title>
<g id="a_Node000010"><a xlink:href="_logical_buttons_8h.html" target="_top" xlink:title=" ">
<polygon fill="white" stroke="#666666" points="1494.62,-224.38 1371.38,-224.38 1371.38,-205.12 1494.62,-205.12 1494.62,-224.38"/>
<text text-anchor="middle" x="1433" y="-210.88" font-family="Helvetica,sans-Serif" font-size="10.00">Ajax/Ui/LogicalButtons.h</text>
</a>
</g>
</g>
<!-- Node3&#45;&gt;Node10 -->
<g id="edge8_Node000003_Node000010" class="edge">
<title>Node3&#45;&gt;Node10</title>
<g id="a_edge8_Node000003_Node000010"><a xlink:title=" ">
<path fill="none" stroke="#63b8ff" d="M1531.08,-265.96C1506.54,-253.4 1471.57,-235.5 1450.7,-224.81"/>
<polygon fill="#63b8ff" stroke="#63b8ff" points="1529.37,-269.01 1539.87,-270.46 1532.56,-262.78 1529.37,-269.01"/>
</a>
</g>
</g>
<!-- Node11 -->
<g id="Node000011" class="node">
<title>Node11</title>
<g id="a_Node000011"><a xlink:href="_cpl_2_logging_2_api_8h.html" target="_top" xlink:title=" ">
<polygon fill="white" stroke="#666666" points="1605.25,-224.38 1512.75,-224.38 1512.75,-205.12 1605.25,-205.12 1605.25,-224.38"/>
<text text-anchor="middle" x="1559" y="-210.88" font-family="Helvetica,sans-Serif" font-size="10.00">Cpl/Logging/Api.h</text>
</a>
</g>
</g>
<!-- Node3&#45;&gt;Node11 -->
<g id="edge9_Node000003_Node000011" class="edge">
<title>Node3&#45;&gt;Node11</title>
<g id="a_edge9_Node000003_Node000011"><a xlink:title=" ">
<path fill="none" stroke="#63b8ff" d="M1559,-259.77C1559,-247.94 1559,-233.66 1559,-224.64"/>
<polygon fill="#63b8ff" stroke="#63b8ff" points="1555.5,-259.77 1559,-269.77 1562.5,-259.77 1555.5,-259.77"/>
</a>
</g>
</g>
<!-- Node12 -->
<g id="Node000012" class="node">
<title>Node12</title>
<g id="a_Node000012"><a xlink:href="_log_sink_8h.html" target="_top" xlink:title=" ">
<polygon fill="white" stroke="#666666" points="1737.12,-224.38 1622.88,-224.38 1622.88,-205.12 1737.12,-205.12 1737.12,-224.38"/>
<text text-anchor="middle" x="1680" y="-210.88" font-family="Helvetica,sans-Serif" font-size="10.00">Cpl/Logging/LogSink.h</text>
</a>
</g>
</g>
<!-- Node3&#45;&gt;Node12 -->
<g id="edge10_Node000003_Node000012" class="edge">
<title>Node3&#45;&gt;Node12</title>
<g id="a_edge10_Node000003_Node000012"><a xlink:title=" ">
<path fill="none" stroke="#63b8ff" d="M1586.13,-265.79C1609.68,-253.24 1643.05,-235.45 1663.01,-224.81"/>
<polygon fill="#63b8ff" stroke="#63b8ff" points="1584.59,-262.64 1577.42,-270.43 1587.89,-268.82 1584.59,-262.64"/>
</a>
</g>
</g>
<!-- Node13 -->
<g id="Node000013" class="node">
<title>Node13</title>
<g id="a_Node000013"><a xlink:href="_indexed_entry_server_8h.html" target="_top" xlink:title=" ">
<polygon fill="white" stroke="#666666" points="1929,-230 1793,-230 1793,-199.5 1929,-199.5 1929,-230"/>
<text text-anchor="start" x="1801" y="-216.5" font-family="Helvetica,sans-Serif" font-size="10.00">Cpl/Persistent/IndexedEntry</text>
<text text-anchor="middle" x="1861" y="-205.25" font-family="Helvetica,sans-Serif" font-size="10.00">Server.h</text>
</a>
</g>
</g>
<!-- Node3&#45;&gt;Node13 -->
<g id="edge11_Node000003_Node000013" class="edge">
<title>Node3&#45;&gt;Node13</title>
<g id="a_edge11_Node000003_Node000013"><a xlink:title=" ">
<path fill="none" stroke="#63b8ff" d="M1612.58,-268.81C1662.82,-258.08 1738.16,-241.98 1792.7,-230.34"/>
<polygon fill="#63b8ff" stroke="#63b8ff" points="1612.16,-265.32 1603.11,-270.83 1613.62,-272.16 1612.16,-265.32"/>
</a>
</g>
</g>
<!-- Node5 -->
<g id="Node000005" class="node">
<title>Node5</title>
<g id="a_Node000005"><a xlink:href="_ajax_2_ui_2_about_2_screen_8h.html" target="_top" xlink:title=" ">
<polygon fill="#fff0f0" stroke="red" points="1586.62,-91.38 1469.38,-91.38 1469.38,-72.12 1586.62,-72.12 1586.62,-91.38"/>
<text text-anchor="middle" x="1528" y="-77.88" font-family="Helvetica,sans-Serif" font-size="10.00">Ajax/Ui/About/Screen.h</text>
</a>
</g>
</g>
<!-- Node4&#45;&gt;Node5 -->
<g id="edge4_Node000004_Node000005" class="edge">
<title>Node4&#45;&gt;Node5</title>
<g id="a_edge4_Node000004_Node000005"><a xlink:title=" ">
<path fill="none" stroke="#63b8ff" d="M1580.9,-130.81C1567.19,-118.36 1548.88,-101.72 1537.79,-91.64"/>
<polygon fill="#63b8ff" stroke="#63b8ff" points="1578.25,-133.13 1588.01,-137.26 1582.96,-127.95 1578.25,-133.13"/>
</a>
</g>
</g>
<!-- Node7 -->
<g id="Node000007" class="node">
<title>Node7</title>
<g id="a_Node000007"><a xlink:href="_ajax_2_ui_2_edit_setpt_2_screen_8h.html" target="_top" xlink:title=" ">
<polygon fill="#fff0f0" stroke="red" points="1735.75,-91.38 1604.25,-91.38 1604.25,-72.12 1735.75,-72.12 1735.75,-91.38"/>
<text text-anchor="middle" x="1670" y="-77.88" font-family="Helvetica,sans-Serif" font-size="10.00">Ajax/Ui/EditSetpt/Screen.h</text>
</a>
</g>
</g>
<!-- Node4&#45;&gt;Node7 -->
<g id="edge5_Node000004_Node000007" class="edge">
<title>Node4&#45;&gt;Node7</title>
<g id="a_edge5_Node000004_Node000007"><a xlink:title=" ">
<path fill="none" stroke="#63b8ff" d="M1617.1,-130.81C1630.81,-118.36 1649.12,-101.72 1660.21,-91.64"/>
<polygon fill="#63b8ff" stroke="#63b8ff" points="1615.04,-127.95 1609.99,-137.26 1619.75,-133.13 1615.04,-127.95"/>
</a>
</g>
</g>
<!-- Node8 -->
<g id="Node000008" class="node">
<title>Node8</title>
<g id="a_Node000008"><a xlink:href="_ajax_2_ui_2_home_2_screen_8h.html" target="_top" xlink:title=" ">
<polygon fill="#fff0f0" stroke="red" points="1281,-91.38 1163,-91.38 1163,-72.12 1281,-72.12 1281,-91.38"/>
<text text-anchor="middle" x="1222" y="-77.88" font-family="Helvetica,sans-Serif" font-size="10.00">Ajax/Ui/Home/Screen.h</text>
</a>
</g>
</g>
<!-- Node4&#45;&gt;Node8 -->
<g id="edge6_Node000004_Node000008" class="edge">
<title>Node4&#45;&gt;Node8</title>
<g id="a_edge6_Node000004_Node000008"><a xlink:title=" ">
<path fill="none" stroke="#63b8ff" d="M1548.92,-135.8C1544.23,-134.82 1539.53,-133.87 1535,-133 1447.03,-116.16 1344.4,-100.42 1281.32,-91.19"/>
<polygon fill="#63b8ff" stroke="#63b8ff" points="1547.82,-139.14 1558.34,-137.82 1549.29,-132.3 1547.82,-139.14"/>
</a>
</g>
</g>
<!-- Node14 -->
<g id="Node000014" class="node">
<title>Node14</title>
<g id="a_Node000014"><a xlink:href="_log_8h.html" target="_top" xlink:title=" ">
<polygon fill="white" stroke="#666666" points="1910.25,-163.5 1811.75,-163.5 1811.75,-133 1910.25,-133 1910.25,-163.5"/>
<text text-anchor="start" x="1819.75" y="-150" font-family="Helvetica,sans-Serif" font-size="10.00">Cpl/Logging/TShell</text>
<text text-anchor="middle" x="1861" y="-138.75" font-family="Helvetica,sans-Serif" font-size="10.00">/Log.h</text>
</a>
</g>
</g>
<!-- Node13&#45;&gt;Node14 -->
<g id="edge12_Node000013_Node000014" class="edge">
<title>Node13&#45;&gt;Node14</title>
<g id="a_edge12_Node000013_Node000014"><a xlink:title=" ">
<path fill="none" stroke="#63b8ff" d="M1861,-187.81C1861,-179.64 1861,-170.91 1861,-163.83"/>
<polygon fill="#63b8ff" stroke="#63b8ff" points="1857.5,-187.6 1861,-197.6 1864.5,-187.6 1857.5,-187.6"/>
</a>
</g>
</g>
<!-- Node16 -->
<g id="Node000016" class="node">
<title>Node16</title>
<g id="a_Node000016"><a xlink:href="_ajax_2_main_2__plat__simulator_2_model_points_8h.html" target="_top" xlink:title=" ">
<polygon fill="white" stroke="#666666" points="1525.88,-163.5 1398.12,-163.5 1398.12,-133 1525.88,-133 1525.88,-163.5"/>
<text text-anchor="start" x="1406.12" y="-150" font-family="Helvetica,sans-Serif" font-size="10.00">Ajax/Main/_plat_simulator</text>
<text text-anchor="middle" x="1462" y="-138.75" font-family="Helvetica,sans-Serif" font-size="10.00">/ModelPoints.h</text>
</a>
</g>
</g>
<!-- Node15&#45;&gt;Node16 -->
<g id="edge14_Node000015_Node000016" class="edge">
<title>Node15&#45;&gt;Node16</title>
<g id="a_edge14_Node000015_Node000016"><a xlink:title=" ">
<path fill="none" stroke="#63b8ff" d="M1171.48,-321.49C1184.3,-290.57 1213.47,-230.83 1258,-199.5 1269.6,-191.34 1342.37,-174.55 1397.73,-162.63"/>
<polygon fill="#63b8ff" stroke="#63b8ff" points="1168.24,-320.15 1167.8,-330.74 1174.75,-322.74 1168.24,-320.15"/>
</a>
</g>
</g>
<!-- Node17 -->
<g id="Node000017" class="node">
<title>Node17</title>
<g id="a_Node000017"><a xlink:href="_model_point_common___8h.html" target="_top" xlink:title=" ">
<polygon fill="white" stroke="#666666" points="706.88,-290.88 555.12,-290.88 555.12,-271.62 706.88,-271.62 706.88,-290.88"/>
<text text-anchor="middle" x="631" y="-277.38" font-family="Helvetica,sans-Serif" font-size="10.00">Cpl/Dm/ModelPointCommon_.h</text>
</a>
</g>
</g>
<!-- Node15&#45;&gt;Node17 -->
<g id="edge15_Node000015_Node000017" class="edge">
<title>Node15&#45;&gt;Node17</title>
<g id="a_edge15_Node000015_Node000017"><a xlink:title=" ">
<path fill="none" stroke="#63b8ff" d="M1089.16,-332.86C988.02,-321.69 808.65,-301.87 706.94,-290.64"/>
<polygon fill="#63b8ff" stroke="#63b8ff" points="1088.67,-336.33 1099,-333.94 1089.44,-329.37 1088.67,-336.33"/>
</a>
</g>
</g>
<!-- Node29 -->
<g id="Node000029" class="node">
<title>Node29</title>
<g id="a_Node000029"><a xlink:href="_driver_2_a_i_o_2_eros_2_model_points_8h.html" target="_top" xlink:title="This file defines all of the Model Points for Ajax application.">
<polygon fill="white" stroke="#666666" points="846.38,-157.88 697.62,-157.88 697.62,-138.62 846.38,-138.62 846.38,-157.88"/>
<text text-anchor="middle" x="772" y="-144.38" font-family="Helvetica,sans-Serif" font-size="10.00">Driver/AIO/Eros/ModelPoints.h</text>
</a>
</g>
</g>
<!-- Node15&#45;&gt;Node29 -->
<g id="edge44_Node000015_Node000029" class="edge">
<title>Node15&#45;&gt;Node29</title>
<g id="a_edge44_Node000015_Node000029"><a xlink:title=" ">
<path fill="none" stroke="#63b8ff" d="M1156.96,-321.55C1144.61,-290.21 1115.88,-229.3 1070,-199.5 1069.68,-199.29 912.09,-172.79 826.24,-158.36"/>
<polygon fill="#63b8ff" stroke="#63b8ff" points="1153.69,-322.78 1160.49,-330.9 1160.24,-320.31 1153.69,-322.78"/>
</a>
</g>
</g>
<!-- Node18 -->
<g id="Node000018" class="node">
<title>Node18</title>
<g id="a_Node000018"><a xlink:href="_mp_alert_8h.html" target="_top" xlink:title=" ">
<polygon fill="white" stroke="#666666" points="227.5,-224.38 130.5,-224.38 130.5,-205.12 227.5,-205.12 227.5,-224.38"/>
<text text-anchor="middle" x="179" y="-210.88" font-family="Helvetica,sans-Serif" font-size="10.00">Ajax/Dm/MpAlert.h</text>
</a>
</g>
</g>
<!-- Node17&#45;&gt;Node18 -->
<g id="edge16_Node000017_Node000018" class="edge">
<title>Node17&#45;&gt;Node18</title>
<g id="a_edge16_Node000017_Node000018"><a xlink:title=" ">
<path fill="none" stroke="#63b8ff" d="M543.81,-272.15C463.46,-263.99 341.12,-249.75 236,-230 228.38,-228.57 220.26,-226.73 212.61,-224.85"/>
<polygon fill="#63b8ff" stroke="#63b8ff" points="543.05,-275.6 553.35,-273.11 543.75,-268.63 543.05,-275.6"/>
</a>
</g>
</g>
<!-- Node20 -->
<g id="Node000020" class="node">
<title>Node20</title>
<g id="a_Node000020"><a xlink:href="_mp_alert_summary_8h.html" target="_top" xlink:title=" ">
<polygon fill="white" stroke="#666666" points="408.12,-157.88 269.88,-157.88 269.88,-138.62 408.12,-138.62 408.12,-157.88"/>
<text text-anchor="middle" x="339" y="-144.38" font-family="Helvetica,sans-Serif" font-size="10.00">Ajax/Dm/MpAlertSummary.h</text>
</a>
</g>
</g>
<!-- Node17&#45;&gt;Node20 -->
<g id="edge22_Node000017_Node000020" class="edge">
<title>Node17&#45;&gt;Node20</title>
<g id="a_edge22_Node000017_Node000020"><a xlink:title=" ">
<path fill="none" stroke="#63b8ff" d="M632.01,-259.74C631.73,-241.33 628.19,-214.92 612,-199.5 611.75,-199.26 467.36,-172.77 388.7,-158.35"/>
<polygon fill="#63b8ff" stroke="#63b8ff" points="628.51,-259.63 631.82,-269.69 635.51,-259.77 628.51,-259.63"/>
</a>
</g>
</g>
<!-- Node23 -->
<g id="Node000023" class="node">
<title>Node23</title>
<g id="a_Node000023"><a xlink:href="_mp_flc_config_8h.html" target="_top" xlink:title=" ">
<polygon fill="white" stroke="#666666" points="776.62,-224.38 659.38,-224.38 659.38,-205.12 776.62,-205.12 776.62,-224.38"/>
<text text-anchor="middle" x="718" y="-210.88" font-family="Helvetica,sans-Serif" font-size="10.00">Ajax/Dm/MpFlcConfig.h</text>
</a>
</g>
</g>
<!-- Node17&#45;&gt;Node23 -->
<g id="edge23_Node000017_Node000023" class="edge">
<title>Node17&#45;&gt;Node23</title>
<g id="a_edge23_Node000017_Node000023"><a xlink:title=" ">
<path fill="none" stroke="#63b8ff" d="M652.16,-264.56C668.95,-252.11 691.83,-235.15 705.73,-224.85"/>
<polygon fill="#63b8ff" stroke="#63b8ff" points="650.26,-261.61 644.31,-270.38 654.43,-267.24 650.26,-261.61"/>
</a>
</g>
</g>
<!-- Node28 -->
<g id="Node000028" class="node">
<title>Node28</title>
<g id="a_Node000028"><a xlink:href="_array_8h.html" target="_top" xlink:title=" ">
<polygon fill="white" stroke="#666666" points="342.88,-224.38 245.12,-224.38 245.12,-205.12 342.88,-205.12 342.88,-224.38"/>
<text text-anchor="middle" x="294" y="-210.88" font-family="Helvetica,sans-Serif" font-size="10.00">Cpl/Dm/Mp/Array.h</text>
</a>
</g>
</g>
<!-- Node17&#45;&gt;Node28 -->
<g id="edge27_Node000017_Node000028" class="edge">
<title>Node17&#45;&gt;Node28</title>
<g id="a_edge27_Node000017_Node000028"><a xlink:title=" ">
<path fill="none" stroke="#63b8ff" d="M563.1,-269.25C506.46,-259.77 423.72,-245.25 352,-230 344.7,-228.45 336.92,-226.64 329.5,-224.85"/>
<polygon fill="#63b8ff" stroke="#63b8ff" points="562.49,-272.69 572.93,-270.88 563.64,-265.79 562.49,-272.69"/>
</a>
</g>
</g>
<!-- Node31 -->
<g id="Node000031" class="node">
<title>Node31</title>
<g id="a_Node000031"><a xlink:href="_bool_8h.html" target="_top" xlink:title=" ">
<polygon fill="white" stroke="#666666" points="1211.38,-224.38 1116.62,-224.38 1116.62,-205.12 1211.38,-205.12 1211.38,-224.38"/>
<text text-anchor="middle" x="1164" y="-210.88" font-family="Helvetica,sans-Serif" font-size="10.00">Cpl/Dm/Mp/Bool.h</text>
</a>
</g>
</g>
<!-- Node17&#45;&gt;Node31 -->
<g id="edge30_Node000017_Node000031" class="edge">
<title>Node17&#45;&gt;Node31</title>
<g id="a_edge30_Node000017_Node000031"><a xlink:title=" ">
<path fill="none" stroke="#63b8ff" d="M718.59,-271.17C807.29,-261.76 948.34,-246.18 1070,-230 1085.05,-228 1101.43,-225.59 1116.23,-223.34"/>
<polygon fill="#63b8ff" stroke="#63b8ff" points="718.32,-267.68 708.74,-272.22 719.06,-274.64 718.32,-267.68"/>
</a>
</g>
</g>
<!-- Node35 -->
<g id="Node000035" class="node">
<title>Node35</title>
<g id="a_Node000035"><a xlink:href="_elapsed_precision_time_8h.html" target="_top" xlink:title=" ">
<polygon fill="white" stroke="#666666" points="937.38,-230 794.62,-230 794.62,-199.5 937.38,-199.5 937.38,-230"/>
<text text-anchor="start" x="802.62" y="-216.5" font-family="Helvetica,sans-Serif" font-size="10.00">Cpl/Dm/Mp/ElapsedPrecision</text>
<text text-anchor="middle" x="866" y="-205.25" font-family="Helvetica,sans-Serif" font-size="10.00">Time.h</text>
</a>
</g>
</g>
<!-- Node17&#45;&gt;Node35 -->
<g id="edge39_Node000017_Node000035" class="edge">
<title>Node17&#45;&gt;Node35</title>
<g id="a_edge39_Node000017_Node000035"><a xlink:title=" ">
<path fill="none" stroke="#63b8ff" d="M675.16,-268.13C714.15,-257.43 771.09,-241.8 812.63,-230.4"/>
<polygon fill="#63b8ff" stroke="#63b8ff" points="674.35,-264.72 665.63,-270.74 676.2,-271.47 674.35,-264.72"/>
</a>
</g>
</g>
<!-- Node36 -->
<g id="Node000036" class="node">
<title>Node36</title>
<g id="a_Node000036"><a xlink:href="_enum___8h.html" target="_top" xlink:title=" ">
<polygon fill="#fff0f0" stroke="red" points="1060.62,-224.38 955.38,-224.38 955.38,-205.12 1060.62,-205.12 1060.62,-224.38"/>
<text text-anchor="middle" x="1008" y="-210.88" font-family="Helvetica,sans-Serif" font-size="10.00">Cpl/Dm/Mp/Enum_.h</text>
</a>
</g>
</g>
<!-- Node17&#45;&gt;Node36 -->
<g id="edge40_Node000017_Node000036" class="edge">
<title>Node17&#45;&gt;Node36</title>
<g id="a_edge40_Node000017_Node000036"><a xlink:title=" ">
<path fill="none" stroke="#63b8ff" d="M707.57,-269.52C771.52,-260.2 864.97,-245.76 946,-230 953.91,-228.46 962.36,-226.64 970.38,-224.83"/>
<polygon fill="#63b8ff" stroke="#63b8ff" points="707.27,-266.02 697.88,-270.92 708.28,-272.95 707.27,-266.02"/>
</a>
</g>
</g>
<!-- Node38 -->
<g id="Node000038" class="node">
<title>Node38</title>
<g id="a_Node000038"><a xlink:href="_numeric_8h.html" target="_top" xlink:title=" ">
<polygon fill="#fff0f0" stroke="red" points="112,-224.38 0,-224.38 0,-205.12 112,-205.12 112,-224.38"/>
<text text-anchor="middle" x="56" y="-210.88" font-family="Helvetica,sans-Serif" font-size="10.00">Cpl/Dm/Mp/Numeric.h</text>
</a>
</g>
</g>
<!-- Node17&#45;&gt;Node38 -->
<g id="edge41_Node000017_Node000038" class="edge">
<title>Node17&#45;&gt;Node38</title>
<g id="a_edge41_Node000017_Node000038"><a xlink:title=" ">
<path fill="none" stroke="#63b8ff" d="M543.58,-274.78C441.69,-267.67 268.44,-253.34 121,-230 112.21,-228.61 102.83,-226.77 94.01,-224.87"/>
<polygon fill="#63b8ff" stroke="#63b8ff" points="543.31,-278.27 553.53,-275.46 543.79,-271.28 543.31,-278.27"/>
</a>
</g>
</g>
<!-- Node56 -->
<g id="Node000056" class="node">
<title>Node56</title>
<g id="a_Node000056"><a xlink:href="_ref_counter_8h.html" target="_top" xlink:title=" ">
<polygon fill="white" stroke="#666666" points="485,-224.38 361,-224.38 361,-205.12 485,-205.12 485,-224.38"/>
<text text-anchor="middle" x="423" y="-210.88" font-family="Helvetica,sans-Serif" font-size="10.00">Cpl/Dm/Mp/RefCounter.h</text>
</a>
</g>
</g>
<!-- Node17&#45;&gt;Node56 -->
<g id="edge42_Node000017_Node000056" class="edge">
<title>Node17&#45;&gt;Node56</title>
<g id="a_edge42_Node000017_Node000056"><a xlink:title=" ">
<path fill="none" stroke="#63b8ff" d="M590.78,-267.78C550.15,-255.18 488.38,-236.02 452.21,-224.81"/>
<polygon fill="#63b8ff" stroke="#63b8ff" points="589.61,-271.08 600.19,-270.7 591.68,-264.39 589.61,-271.08"/>
</a>
</g>
</g>
<!-- Node57 -->
<g id="Node000057" class="node">
<title>Node57</title>
<g id="a_Node000057"><a xlink:href="_dm_2_mp_2_string_8h.html" target="_top" xlink:title=" ">
<polygon fill="white" stroke="#666666" points="603.38,-224.38 502.62,-224.38 502.62,-205.12 603.38,-205.12 603.38,-224.38"/>
<text text-anchor="middle" x="553" y="-210.88" font-family="Helvetica,sans-Serif" font-size="10.00">Cpl/Dm/Mp/String.h</text>
</a>
</g>
</g>
<!-- Node17&#45;&gt;Node57 -->
<g id="edge43_Node000017_Node000057" class="edge">
<title>Node17&#45;&gt;Node57</title>
<g id="a_edge43_Node000017_Node000057"><a xlink:title=" ">
<path fill="none" stroke="#63b8ff" d="M611.55,-264.17C596.44,-251.67 576.05,-234.81 563.75,-224.64"/>
<polygon fill="#63b8ff" stroke="#63b8ff" points="609.05,-266.64 618.99,-270.32 613.51,-261.25 609.05,-266.64"/>
</a>
</g>
</g>
<!-- Node19 -->
<g id="Node000019" class="node">
<title>Node19</title>
<g id="a_Node000019"><a xlink:href="_summary_8h.html" target="_top" xlink:title=" ">
<polygon fill="white" stroke="#666666" points="243.5,-157.88 128.5,-157.88 128.5,-138.62 243.5,-138.62 243.5,-157.88"/>
<text text-anchor="middle" x="186" y="-144.38" font-family="Helvetica,sans-Serif" font-size="10.00">Ajax/Alerts/Summary.h</text>
</a>
</g>
</g>
<!-- Node18&#45;&gt;Node19 -->
<g id="edge17_Node000018_Node000019" class="edge">
<title>Node18&#45;&gt;Node19</title>
<g id="a_edge17_Node000018_Node000019"><a xlink:title=" ">
<path fill="none" stroke="#63b8ff" d="M181.18,-193.65C182.47,-181.75 184.05,-167.26 185.03,-158.14"/>
<polygon fill="#63b8ff" stroke="#63b8ff" points="177.74,-192.96 180.14,-203.28 184.7,-193.71 177.74,-192.96"/>
</a>
</g>
</g>
<!-- Node18&#45;&gt;Node20 -->
<g id="edge18_Node000018_Node000020" class="edge">
<title>Node18&#45;&gt;Node20</title>
<g id="a_edge18_Node000018_Node000020"><a xlink:title=" ">
<path fill="none" stroke="#63b8ff" d="M211.96,-200.46C243.21,-187.87 289.31,-169.28 316.53,-158.31"/>
<polygon fill="#63b8ff" stroke="#63b8ff" points="210.95,-197.09 202.99,-204.08 213.57,-203.59 210.95,-197.09"/>
</a>
</g>
</g>
<!-- Node22 -->
<g id="Node000022" class="node">
<title>Node22</title>
<g id="a_Node000022"><a xlink:href="_ajax_2_metrics_2_api_8h.html" target="_top" xlink:title=" ">
<polygon fill="white" stroke="#666666" points="110.38,-157.88 15.62,-157.88 15.62,-138.62 110.38,-138.62 110.38,-157.88"/>
<text text-anchor="middle" x="63" y="-144.38" font-family="Helvetica,sans-Serif" font-size="10.00">Ajax/Metrics/Api.h</text>
</a>
</g>
</g>
<!-- Node18&#45;&gt;Node22 -->
<g id="edge21_Node000018_Node000022" class="edge">
<title>Node18&#45;&gt;Node22</title>
<g id="a_edge21_Node000018_Node000022"><a xlink:title=" ">
<path fill="none" stroke="#63b8ff" d="M152.95,-199.27C130.41,-186.73 98.5,-168.99 79.37,-158.35"/>
<polygon fill="#63b8ff" stroke="#63b8ff" points="151.11,-202.25 161.55,-204.05 154.51,-196.13 151.11,-202.25"/>
</a>
</g>
</g>
<!-- Node20&#45;&gt;Node8 -->
<g id="edge19_Node000020_Node000008" class="edge">
<title>Node20&#45;&gt;Node8</title>
<g id="a_edge19_Node000020_Node000008"><a xlink:title=" ">
<path fill="none" stroke="#63b8ff" d="M394.64,-136.26C402.14,-135.02 409.74,-133.89 417,-133 561.47,-115.36 1002.1,-93.23 1162.67,-85.54"/>
<polygon fill="#63b8ff" stroke="#63b8ff" points="394.16,-132.79 384.9,-137.94 395.35,-139.69 394.16,-132.79"/>
</a>
</g>
</g>
<!-- Node21 -->
<g id="Node000021" class="node">
<title>Node21</title>
<g id="a_Node000021"><a xlink:href="_ajax_2_ui_2_status_indicator_2_api_8h.html" target="_top" xlink:title=" ">
<polygon fill="white" stroke="#666666" points="397.25,-97 280.75,-97 280.75,-66.5 397.25,-66.5 397.25,-97"/>
<text text-anchor="start" x="288.75" y="-83.5" font-family="Helvetica,sans-Serif" font-size="10.00">Ajax/Ui/StatusIndicator</text>
<text text-anchor="middle" x="339" y="-72.25" font-family="Helvetica,sans-Serif" font-size="10.00">/Api.h</text>
</a>
</g>
</g>
<!-- Node20&#45;&gt;Node21 -->
<g id="edge20_Node000020_Node000021" class="edge">
<title>Node20&#45;&gt;Node21</title>
<g id="a_edge20_Node000020_Node000021"><a xlink:title=" ">
<path fill="none" stroke="#63b8ff" d="M339,-126.87C339,-117.19 339,-105.85 339,-97.09"/>
<polygon fill="#63b8ff" stroke="#63b8ff" points="335.5,-126.77 339,-136.77 342.5,-126.77 335.5,-126.77"/>
</a>
</g>
</g>
<!-- Node24 -->
<g id="Node000024" class="node">
<title>Node24</title>
<g id="a_Node000024"><a xlink:href="_ajax_2_heating_2_flc_2_api_8h.html" target="_top" xlink:title=" ">
<polygon fill="white" stroke="#666666" points="679.38,-157.88 566.62,-157.88 566.62,-138.62 679.38,-138.62 679.38,-157.88"/>
<text text-anchor="middle" x="623" y="-144.38" font-family="Helvetica,sans-Serif" font-size="10.00">Ajax/Heating/Flc/Api.h</text>
</a>
</g>
</g>
<!-- Node23&#45;&gt;Node24 -->
<g id="edge24_Node000023_Node000024" class="edge">
<title>Node23&#45;&gt;Node24</title>
<g id="a_edge24_Node000023_Node000024"><a xlink:title=" ">
<path fill="none" stroke="#63b8ff" d="M695.4,-198.41C677.03,-185.93 651.72,-168.75 636.4,-158.35"/>
<polygon fill="#63b8ff" stroke="#63b8ff" points="693.3,-201.21 703.54,-203.93 697.23,-195.42 693.3,-201.21"/>
</a>
</g>
</g>
<!-- Node25 -->
<g id="Node000025" class="node">
<title>Node25</title>
<g id="a_Node000025"><a xlink:href="_ajax_2_heating_2_supervisor_2_api_8h.html" target="_top" xlink:title=" ">
<polygon fill="#fff0f0" stroke="red" points="883.5,-97 762.5,-97 762.5,-66.5 883.5,-66.5 883.5,-97"/>
<text text-anchor="start" x="770.5" y="-83.5" font-family="Helvetica,sans-Serif" font-size="10.00">Ajax/Heating/Supervisor</text>
<text text-anchor="middle" x="823" y="-72.25" font-family="Helvetica,sans-Serif" font-size="10.00">/Api.h</text>
</a>
</g>
</g>
<!-- Node24&#45;&gt;Node25 -->
<g id="edge25_Node000024_Node000025" class="edge">
<title>Node24&#45;&gt;Node25</title>
<g id="a_edge25_Node000024_Node000025"><a xlink:title=" ">
<path fill="none" stroke="#63b8ff" d="M661.87,-134.71C695.01,-124.03 742.68,-108.65 777.58,-97.4"/>
<polygon fill="#63b8ff" stroke="#63b8ff" points="661.11,-131.28 652.67,-137.68 663.26,-137.94 661.11,-131.28"/>
</a>
</g>
</g>
<!-- Node27 -->
<g id="Node000027" class="node">
<title>Node27</title>
<g id="a_Node000027"><a xlink:href="_heating_2_simulated_2_house_8h_source.html" target="_top" xlink:title=" ">
<polygon fill="white" stroke="#666666" points="926,-30.5 808,-30.5 808,0 926,0 926,-30.5"/>
<text text-anchor="start" x="816" y="-17" font-family="Helvetica,sans-Serif" font-size="10.00">Ajax/Heating/Simulated</text>
<text text-anchor="middle" x="867" y="-5.75" font-family="Helvetica,sans-Serif" font-size="10.00">/House.h</text>
</a>
</g>
</g>
<!-- Node25&#45;&gt;Node27 -->
<g id="edge26_Node000025_Node000027" class="edge">
<title>Node25&#45;&gt;Node27</title>
<g id="a_edge26_Node000025_Node000027"><a xlink:title=" ">
<path fill="none" stroke="#63b8ff" d="M839.35,-56.79C845.29,-48.07 851.83,-38.49 857.06,-30.83"/>
<polygon fill="#63b8ff" stroke="#63b8ff" points="836.58,-54.63 833.84,-64.86 842.36,-58.58 836.58,-54.63"/>
</a>
</g>
</g>
<!-- Node28&#45;&gt;Node29 -->
<g id="edge28_Node000028_Node000029" class="edge">
<title>Node28&#45;&gt;Node29</title>
<g id="a_edge28_Node000028_Node000029"><a xlink:title=" ">
<path fill="none" stroke="#63b8ff" d="M338.63,-202.15C343.13,-201.17 347.64,-200.26 352,-199.5 499.92,-173.52 539.23,-184.07 688,-163.5 698.84,-162 710.44,-160.18 721.44,-158.34"/>
<polygon fill="#63b8ff" stroke="#63b8ff" points="338.01,-198.7 329.05,-204.35 339.58,-205.52 338.01,-198.7"/>
</a>
</g>
</g>
<!-- Node30 -->
<g id="Node000030" class="node">
<title>Node30</title>
<g id="a_Node000030"><a xlink:href="_eros_2_test_2_thermistor_2_api_8h.html" target="_top" xlink:title=" ">
<polygon fill="white" stroke="#666666" points="533.75,-163.5 426.25,-163.5 426.25,-133 533.75,-133 533.75,-163.5"/>
<text text-anchor="start" x="434.25" y="-150" font-family="Helvetica,sans-Serif" font-size="10.00">Eros/Test/Thermistor</text>
<text text-anchor="middle" x="480" y="-138.75" font-family="Helvetica,sans-Serif" font-size="10.00">/Api.h</text>
</a>
</g>
</g>
<!-- Node28&#45;&gt;Node30 -->
<g id="edge29_Node000028_Node000030" class="edge">
<title>Node28&#45;&gt;Node30</title>
<g id="a_edge29_Node000028_Node000030"><a xlink:title=" ">
<path fill="none" stroke="#63b8ff" d="M330.96,-200.93C361.74,-190.26 405.59,-175.05 437.76,-163.9"/>
<polygon fill="#63b8ff" stroke="#63b8ff" points="329.99,-197.57 321.68,-204.15 332.28,-204.18 329.99,-197.57"/>
</a>
</g>
</g>
<!-- Node31&#45;&gt;Node4 -->
<g id="edge36_Node000031_Node000004" class="edge">
<title>Node31&#45;&gt;Node4</title>
<g id="a_edge36_Node000031_Node000004"><a xlink:title=" ">
<path fill="none" stroke="#63b8ff" d="M1223.14,-204.59C1234.69,-202.85 1246.72,-201.09 1258,-199.5 1380.93,-182.2 1412.73,-185.01 1535,-163.5 1543.41,-162.02 1552.38,-160.18 1560.87,-158.33"/>
<polygon fill="#63b8ff" stroke="#63b8ff" points="1222.65,-201.12 1213.29,-206.08 1223.7,-208.04 1222.65,-201.12"/>
</a>
</g>
</g>
<!-- Node31&#45;&gt;Node8 -->
<g id="edge37_Node000031_Node000008" class="edge">
<title>Node31&#45;&gt;Node8</title>
<g id="a_edge37_Node000031_Node000008"><a xlink:title=" ">
<path fill="none" stroke="#63b8ff" d="M1180.44,-196.45C1188.33,-187.29 1197.28,-175.48 1203,-163.5 1214.67,-139.07 1219.45,-106.97 1221.16,-91.64"/>
<polygon fill="#63b8ff" stroke="#63b8ff" points="1177.91,-194.04 1173.81,-203.81 1183.11,-198.73 1177.91,-194.04"/>
</a>
</g>
</g>
<!-- Node31&#45;&gt;Node16 -->
<g id="edge35_Node000031_Node000016" class="edge">
<title>Node31&#45;&gt;Node16</title>
<g id="a_edge35_Node000031_Node000016"><a xlink:title=" ">
<path fill="none" stroke="#63b8ff" d="M1213.39,-202.12C1217.32,-201.22 1221.22,-200.34 1225,-199.5 1283.4,-186.49 1350.07,-172.42 1397.8,-162.49"/>
<polygon fill="#63b8ff" stroke="#63b8ff" points="1212.8,-198.66 1203.84,-204.32 1214.38,-205.49 1212.8,-198.66"/>
</a>
</g>
</g>
<!-- Node31&#45;&gt;Node25 -->
<g id="edge34_Node000031_Node000025" class="edge">
<title>Node31&#45;&gt;Node25</title>
<g id="a_edge34_Node000031_Node000025"><a xlink:title=" ">
<path fill="none" stroke="#63b8ff" d="M1115.52,-202.17C1111.29,-201.24 1107.08,-200.33 1103,-199.5 1012.37,-180.97 979.27,-207.69 898,-163.5 868.75,-147.6 844.62,-116.01 832.15,-97.4"/>
<polygon fill="#63b8ff" stroke="#63b8ff" points="1114.65,-205.56 1125.17,-204.35 1116.19,-198.73 1114.65,-205.56"/>
</a>
</g>
</g>
<!-- Node31&#45;&gt;Node27 -->
<g id="edge32_Node000031_Node000027" class="edge">
<title>Node31&#45;&gt;Node27</title>
<g id="a_edge32_Node000031_Node000027"><a xlink:title=" ">
<path fill="none" stroke="#63b8ff" d="M1114.61,-202.11C1110.68,-201.22 1106.78,-200.34 1103,-199.5 1026.75,-182.62 990.86,-213.66 931,-163.5 895.38,-133.66 911.03,-108.89 892,-66.5 886.49,-54.23 879.66,-40.59 874.53,-30.62"/>
<polygon fill="#63b8ff" stroke="#63b8ff" points="1113.63,-205.48 1124.16,-204.31 1115.2,-198.65 1113.63,-205.48"/>
</a>
</g>
</g>
<!-- Node32 -->
<g id="Node000032" class="node">
<title>Node32</title>
<g id="a_Node000032"><a xlink:href="_ajax_2_heating_2_simulated_2_cmd_8h.html" target="_top" xlink:title=" ">
<polygon fill="white" stroke="#666666" points="1058,-163.5 940,-163.5 940,-133 1058,-133 1058,-163.5"/>
<text text-anchor="start" x="948" y="-150" font-family="Helvetica,sans-Serif" font-size="10.00">Ajax/Heating/Simulated</text>
<text text-anchor="middle" x="999" y="-138.75" font-family="Helvetica,sans-Serif" font-size="10.00">/Cmd.h</text>
</a>
</g>
</g>
<!-- Node31&#45;&gt;Node32 -->
<g id="edge31_Node000031_Node000032" class="edge">
<title>Node31&#45;&gt;Node32</title>
<g id="a_edge31_Node000031_Node000032"><a xlink:title=" ">
<path fill="none" stroke="#63b8ff" d="M1130.13,-200.51C1102.88,-189.86 1064.63,-174.91 1036.47,-163.9"/>
<polygon fill="#63b8ff" stroke="#63b8ff" points="1128.71,-203.71 1139.3,-204.09 1131.26,-197.19 1128.71,-203.71"/>
</a>
</g>
</g>
<!-- Node33 -->
<g id="Node000033" class="node">
<title>Node33</title>
<g id="a_Node000033"><a xlink:href="_ajax_2_heating_2_simulated_2_model_points_8h.html" target="_top" xlink:title="This file defines test/simulation specific Model Points for the Thermostat Application.">
<polygon fill="white" stroke="#666666" points="1194,-163.5 1076,-163.5 1076,-133 1194,-133 1194,-163.5"/>
<text text-anchor="start" x="1084" y="-150" font-family="Helvetica,sans-Serif" font-size="10.00">Ajax/Heating/Simulated</text>
<text text-anchor="middle" x="1135" y="-138.75" font-family="Helvetica,sans-Serif" font-size="10.00">/ModelPoints.h</text>
</a>
</g>
</g>
<!-- Node31&#45;&gt;Node33 -->
<g id="edge33_Node000031_Node000033" class="edge">
<title>Node31&#45;&gt;Node33</title>
<g id="a_edge33_Node000031_Node000033"><a xlink:title=" ">
<path fill="none" stroke="#63b8ff" d="M1155.27,-194.34C1150.83,-184.46 1145.52,-172.65 1141.45,-163.59"/>
<polygon fill="#63b8ff" stroke="#63b8ff" points="1152.05,-195.72 1159.35,-203.4 1158.44,-192.85 1152.05,-195.72"/>
</a>
</g>
</g>
<!-- Node34 -->
<g id="Node000034" class="node">
<title>Node34</title>
<g id="a_Node000034"><a xlink:href="_driver_2_r_h_temp_2_simulated_2_api_8h.html" target="_top" xlink:title=" ">
<polygon fill="white" stroke="#666666" points="1380,-163.5 1250,-163.5 1250,-133 1380,-133 1380,-163.5"/>
<text text-anchor="start" x="1258" y="-150" font-family="Helvetica,sans-Serif" font-size="10.00">Driver/RHTemp/Simulated</text>
<text text-anchor="middle" x="1315" y="-138.75" font-family="Helvetica,sans-Serif" font-size="10.00">/Api.h</text>
</a>
</g>
</g>
<!-- Node31&#45;&gt;Node34 -->
<g id="edge38_Node000031_Node000034" class="edge">
<title>Node31&#45;&gt;Node34</title>
<g id="a_edge38_Node000031_Node000034"><a xlink:title=" ">
<path fill="none" stroke="#63b8ff" d="M1195.66,-200.22C1220.55,-189.59 1255.16,-174.81 1280.71,-163.9"/>
<polygon fill="#63b8ff" stroke="#63b8ff" points="1194.53,-196.9 1186.71,-204.05 1197.28,-203.34 1194.53,-196.9"/>
</a>
</g>
</g>
<!-- Node61 -->
<g id="Node000061" class="node">
<title>Node61</title>
<g id="a_Node000061"><a xlink:href="_posix_2_listener_8h.html" target="_top" xlink:title=" ">
<polygon fill="white" stroke="#666666" points="1833.12,-296.5 1730.88,-296.5 1730.88,-266 1833.12,-266 1833.12,-296.5"/>
<text text-anchor="start" x="1738.88" y="-283" font-family="Helvetica,sans-Serif" font-size="10.00">Cpl/Io/Socket/Posix</text>
<text text-anchor="middle" x="1782" y="-271.75" font-family="Helvetica,sans-Serif" font-size="10.00">/Listener.h</text>
</a>
</g>
</g>
<!-- Node60&#45;&gt;Node61 -->
<g id="edge48_Node000060_Node000061" class="edge">
<title>Node60&#45;&gt;Node61</title>
<g id="a_edge48_Node000060_Node000061"><a xlink:title=" ">
<path fill="none" stroke="#63b8ff" d="M1874.85,-327.06C1856.01,-317.97 1831.54,-306.16 1812.45,-296.94"/>
<polygon fill="#63b8ff" stroke="#63b8ff" points="1873.31,-330.2 1883.84,-331.4 1876.36,-323.9 1873.31,-330.2"/>
</a>
</g>
</g>
<!-- Node62 -->
<g id="Node000062" class="node">
<title>Node62</title>
<g id="a_Node000062"><a xlink:href="_win32_2_listener_8h.html" target="_top" xlink:title=" ">
<polygon fill="white" stroke="#666666" points="1956.62,-296.5 1851.38,-296.5 1851.38,-266 1956.62,-266 1956.62,-296.5"/>
<text text-anchor="start" x="1859.38" y="-283" font-family="Helvetica,sans-Serif" font-size="10.00">Cpl/Io/Socket/Win32</text>
<text text-anchor="middle" x="1904" y="-271.75" font-family="Helvetica,sans-Serif" font-size="10.00">/Listener.h</text>
</a>
</g>
</g>
<!-- Node60&#45;&gt;Node62 -->
<g id="edge49_Node000060_Node000062" class="edge">
<title>Node60&#45;&gt;Node62</title>
<g id="a_edge49_Node000060_Node000062"><a xlink:title=" ">
<path fill="none" stroke="#63b8ff" d="M1904,-320.92C1904,-312.99 1904,-304.06 1904,-296.78"/>
<polygon fill="#63b8ff" stroke="#63b8ff" points="1900.5,-320.67 1904,-330.67 1907.5,-320.67 1900.5,-320.67"/>
</a>
</g>
</g>
<!-- Node64 -->
<g id="Node000064" class="node">
<title>Node64</title>
<g id="a_Node000064"><a xlink:href="_cpl_2_t_shell_2_maker_8h.html" target="_top" xlink:title=" ">
<polygon fill="white" stroke="#666666" points="2111.25,-290.88 2012.75,-290.88 2012.75,-271.62 2111.25,-271.62 2111.25,-290.88"/>
<text text-anchor="middle" x="2062" y="-277.38" font-family="Helvetica,sans-Serif" font-size="10.00">Cpl/TShell/Maker.h</text>
</a>
</g>
</g>
<!-- Node63&#45;&gt;Node64 -->
<g id="edge51_Node000063_Node000064" class="edge">
<title>Node63&#45;&gt;Node64</title>
<g id="a_edge51_Node000063_Node000064"><a xlink:title=" ">
<path fill="none" stroke="#63b8ff" d="M2048.71,-321.37C2052.17,-311.18 2056.22,-299.26 2058.93,-291.28"/>
<polygon fill="#63b8ff" stroke="#63b8ff" points="2045.43,-320.16 2045.52,-330.75 2052.05,-322.41 2045.43,-320.16"/>
</a>
</g>
</g>
<!-- Node65 -->
<g id="Node000065" class="node">
<title>Node65</title>
<g id="a_Node000065"><a xlink:href="_polled_maker_8h.html" target="_top" xlink:title=" ">
<polygon fill="white" stroke="#666666" points="2168.75,-224.38 2043.25,-224.38 2043.25,-205.12 2168.75,-205.12 2168.75,-224.38"/>
<text text-anchor="middle" x="2106" y="-210.88" font-family="Helvetica,sans-Serif" font-size="10.00">Cpl/TShell/PolledMaker.h</text>
</a>
</g>
</g>
<!-- Node63&#45;&gt;Node65 -->
<g id="edge52_Node000063_Node000065" class="edge">
<title>Node63&#45;&gt;Node65</title>
<g id="a_edge52_Node000063_Node000065"><a xlink:title=" ">
<path fill="none" stroke="#63b8ff" d="M2023.41,-324.33C2008.54,-308.79 1992.01,-285.27 2004,-266 2017.3,-244.63 2042.65,-232.08 2064.75,-224.87"/>
<polygon fill="#63b8ff" stroke="#63b8ff" points="2020.63,-326.51 2030.22,-331 2025.52,-321.5 2020.63,-326.51"/>
</a>
</g>
</g>
<!-- Node66&#45;&gt;Node64 -->
<g id="edge54_Node000066_Node000064" class="edge">
<title>Node66&#45;&gt;Node64</title>
<g id="a_edge54_Node000066_Node000064"><a xlink:title=" ">
<path fill="none" stroke="#63b8ff" d="M2147.04,-326.95C2125.94,-315.86 2097.24,-300.78 2079.17,-291.28"/>
<polygon fill="#63b8ff" stroke="#63b8ff" points="2145.17,-329.92 2155.65,-331.48 2148.43,-323.73 2145.17,-329.92"/>
</a>
</g>
</g>
<!-- Node67 -->
<g id="Node000067" class="node">
<title>Node67</title>
<g id="a_Node000067"><a xlink:href="_polled_processor_8h.html" target="_top" xlink:title=" ">
<polygon fill="white" stroke="#666666" points="2272.38,-290.88 2129.62,-290.88 2129.62,-271.62 2272.38,-271.62 2272.38,-290.88"/>
<text text-anchor="middle" x="2201" y="-277.38" font-family="Helvetica,sans-Serif" font-size="10.00">Cpl/TShell/PolledProcessor.h</text>
</a>
</g>
</g>
<!-- Node66&#45;&gt;Node67 -->
<g id="edge55_Node000066_Node000067" class="edge">
<title>Node66&#45;&gt;Node67</title>
<g id="a_edge55_Node000066_Node000067"><a xlink:title=" ">
<path fill="none" stroke="#63b8ff" d="M2182.76,-322.03C2187.49,-311.7 2193.12,-299.43 2196.86,-291.28"/>
<polygon fill="#63b8ff" stroke="#63b8ff" points="2179.72,-320.26 2178.73,-330.81 2186.08,-323.18 2179.72,-320.26"/>
</a>
</g>
</g>
<!-- Node67&#45;&gt;Node65 -->
<g id="edge56_Node000067_Node000065" class="edge">
<title>Node67&#45;&gt;Node65</title>
<g id="a_edge56_Node000067_Node000065"><a xlink:title=" ">
<path fill="none" stroke="#63b8ff" d="M2178.4,-264.91C2160.03,-252.43 2134.72,-235.25 2119.4,-224.85"/>
<polygon fill="#63b8ff" stroke="#63b8ff" points="2176.3,-267.71 2186.54,-270.43 2180.23,-261.92 2176.3,-267.71"/>
</a>
</g>
</g>
<!-- Node69 -->
<g id="Node000069" class="node">
<title>Node69</title>
<g id="a_Node000069"><a xlink:href="_driver_2_pico_display_2_t_pipe_2_api_8h.html" target="_top" xlink:title="This file defines the interface for initializing the concrete implementation of the PicoDisplay drive...">
<polygon fill="white" stroke="#666666" points="2385.75,-296.5 2290.25,-296.5 2290.25,-266 2385.75,-266 2385.75,-296.5"/>
<text text-anchor="start" x="2298.25" y="-283" font-family="Helvetica,sans-Serif" font-size="10.00">Driver/PicoDisplay</text>
<text text-anchor="middle" x="2338" y="-271.75" font-family="Helvetica,sans-Serif" font-size="10.00">/TPipe/Api.h</text>
</a>
</g>
</g>
<!-- Node68&#45;&gt;Node69 -->
<g id="edge58_Node000068_Node000069" class="edge">
<title>Node68&#45;&gt;Node69</title>
<g id="a_edge58_Node000068_Node000069"><a xlink:title=" ">
<path fill="none" stroke="#63b8ff" d="M2338,-320.92C2338,-312.99 2338,-304.06 2338,-296.78"/>
<polygon fill="#63b8ff" stroke="#63b8ff" points="2334.5,-320.67 2338,-330.67 2341.5,-320.67 2334.5,-320.67"/>
</a>
</g>
</g>
<!-- Node70 -->
<g id="Node000070" class="node">
<title>Node70</title>
<g id="a_Node000070"><a xlink:href="_driver_2_t_pipe_2_maker_8h.html" target="_top" xlink:title=" ">
<polygon fill="white" stroke="#666666" points="2511.75,-290.88 2404.25,-290.88 2404.25,-271.62 2511.75,-271.62 2511.75,-290.88"/>
<text text-anchor="middle" x="2458" y="-277.38" font-family="Helvetica,sans-Serif" font-size="10.00">Driver/TPipe/Maker.h</text>
</a>
</g>
</g>
<!-- Node68&#45;&gt;Node70 -->
<g id="edge59_Node000068_Node000070" class="edge">
<title>Node68&#45;&gt;Node70</title>
<g id="a_edge59_Node000068_Node000070"><a xlink:title=" ">
<path fill="none" stroke="#63b8ff" d="M2366.55,-327.12C2389.22,-316 2420.23,-300.78 2439.69,-291.23"/>
<polygon fill="#63b8ff" stroke="#63b8ff" points="2365.28,-323.84 2357.85,-331.39 2368.37,-330.13 2365.28,-323.84"/>
</a>
</g>
</g>
</g>
</svg>
