<?xml version="1.0" encoding="UTF-8" standalone="no"?>
<!DOCTYPE svg PUBLIC "-//W3C//DTD SVG 1.1//EN"
 "http://www.w3.org/Graphics/SVG/1.1/DTD/svg11.dtd">
<!-- Generated by graphviz version 9.0.0 (20230911.1827)
 -->
<!-- Title: Cpl/Persistent/NVAdapter.h Pages: 1 -->
<svg width="1362pt" height="414pt"
 viewBox="0.00 0.00 1361.88 414.00" xmlns="http://www.w3.org/2000/svg" xmlns:xlink="http://www.w3.org/1999/xlink">
<g id="graph0" class="graph" transform="scale(1 1) rotate(0) translate(4 410)">
<title>Cpl/Persistent/NVAdapter.h</title>
<!-- Node1 -->
<g id="Node000001" class="node">
<title>Node1</title>
<g id="a_Node000001"><a xlink:title=" ">
<polygon fill="#999999" stroke="#666666" points="1154.75,-406 1018.75,-406 1018.75,-386.75 1154.75,-386.75 1154.75,-406"/>
<text text-anchor="middle" x="1086.75" y="-392.5" font-family="Helvetica,sans-Serif" font-size="10.00">Cpl/Persistent/NVAdapter.h</text>
</a>
</g>
</g>
<!-- Node2 -->
<g id="Node000002" class="node">
<title>Node2</title>
<g id="a_Node000002"><a xlink:href="_region_media_8h.html" target="_top" xlink:title=" ">
<polygon fill="white" stroke="#666666" points="1108.88,-350.75 964.62,-350.75 964.62,-331.5 1108.88,-331.5 1108.88,-350.75"/>
<text text-anchor="middle" x="1036.75" y="-337.25" font-family="Helvetica,sans-Serif" font-size="10.00">Cpl/Persistent/RegionMedia.h</text>
</a>
</g>
</g>
<!-- Node1&#45;&gt;Node2 -->
<g id="edge1_Node000001_Node000002" class="edge">
<title>Node1&#45;&gt;Node2</title>
<g id="a_edge1_Node000001_Node000002"><a xlink:title=" ">
<path fill="none" stroke="#63b8ff" d="M1078.49,-386.58C1071.59,-379.23 1061.53,-368.51 1053.01,-359.44"/>
<polygon fill="#63b8ff" stroke="#63b8ff" points="1055.62,-357.11 1046.22,-352.21 1050.52,-361.9 1055.62,-357.11"/>
</a>
</g>
</g>
<!-- Node27 -->
<g id="Node000027" class="node">
<title>Node27</title>
<g id="a_Node000027"><a xlink:href="_driver_2_n_v_2_api_8h.html" target="_top" xlink:title=" ">
<polygon fill="white" stroke="#666666" points="1178.5,-295.5 1095,-295.5 1095,-276.25 1178.5,-276.25 1178.5,-295.5"/>
<text text-anchor="middle" x="1136.75" y="-282" font-family="Helvetica,sans-Serif" font-size="10.00">Driver/NV/Api.h</text>
</a>
</g>
</g>
<!-- Node1&#45;&gt;Node27 -->
<g id="edge40_Node000001_Node000027" class="edge">
<title>Node1&#45;&gt;Node27</title>
<g id="a_edge40_Node000001_Node000027"><a xlink:title=" ">
<path fill="none" stroke="#63b8ff" d="M1094.33,-386.34C1101.26,-377.68 1111.37,-364.01 1117.75,-350.75 1124.51,-336.68 1129.42,-319.71 1132.56,-306.79"/>
<polygon fill="#63b8ff" stroke="#63b8ff" points="1135.9,-307.88 1134.69,-297.36 1129.07,-306.34 1135.9,-307.88"/>
</a>
</g>
</g>
<!-- Node3 -->
<g id="Node000003" class="node">
<title>Node3</title>
<g id="a_Node000003"><a xlink:href="_dm_2_mailbox_server_8h.html" target="_top" xlink:title=" ">
<polygon fill="white" stroke="#666666" points="1032.88,-295.5 912.62,-295.5 912.62,-276.25 1032.88,-276.25 1032.88,-295.5"/>
<text text-anchor="middle" x="972.75" y="-282" font-family="Helvetica,sans-Serif" font-size="10.00">Cpl/Dm/MailboxServer.h</text>
</a>
</g>
</g>
<!-- Node2&#45;&gt;Node3 -->
<g id="edge2_Node000002_Node000003" class="edge">
<title>Node2&#45;&gt;Node3</title>
<g id="a_edge2_Node000002_Node000003"><a xlink:title=" ">
<path fill="none" stroke="#63b8ff" d="M1025.89,-331.09C1016.64,-323.4 1003.13,-312.15 992.04,-302.93"/>
<polygon fill="#63b8ff" stroke="#63b8ff" points="994.54,-300.45 984.61,-296.74 990.06,-305.83 994.54,-300.45"/>
</a>
</g>
</g>
<!-- Node20 -->
<g id="Node000020" class="node">
<title>Node20</title>
<g id="a_Node000020"><a xlink:title=" ">
<polygon fill="#e0e0e0" stroke="#999999" points="1147.12,-129.75 1100.38,-129.75 1100.38,-110.5 1147.12,-110.5 1147.12,-129.75"/>
<text text-anchor="middle" x="1123.75" y="-116.25" font-family="Helvetica,sans-Serif" font-size="10.00">stdlib.h</text>
</a>
</g>
</g>
<!-- Node2&#45;&gt;Node20 -->
<g id="edge39_Node000002_Node000020" class="edge">
<title>Node2&#45;&gt;Node20</title>
<g id="a_edge39_Node000002_Node000020"><a xlink:title=" ">
<path fill="none" stroke="#63b8ff" d="M1040.27,-331.27C1053.17,-298.8 1098.05,-185.82 1116.12,-140.33"/>
<polygon fill="#63b8ff" stroke="#63b8ff" points="1119.29,-141.84 1119.72,-131.26 1112.78,-139.26 1119.29,-141.84"/>
</a>
</g>
</g>
<!-- Node4 -->
<g id="Node000004" class="node">
<title>Node4</title>
<g id="a_Node000004"><a xlink:href="_dm_2_event_loop_8h.html" target="_top" xlink:title=" ">
<polygon fill="white" stroke="#666666" points="387.38,-240.25 282.12,-240.25 282.12,-221 387.38,-221 387.38,-240.25"/>
<text text-anchor="middle" x="334.75" y="-226.75" font-family="Helvetica,sans-Serif" font-size="10.00">Cpl/Dm/EventLoop.h</text>
</a>
</g>
</g>
<!-- Node3&#45;&gt;Node4 -->
<g id="edge3_Node000003_Node000004" class="edge">
<title>Node3&#45;&gt;Node4</title>
<g id="a_edge3_Node000003_Node000004"><a xlink:title=" ">
<path fill="none" stroke="#63b8ff" d="M912.15,-279.82C791.5,-269.75 522.26,-247.28 398.82,-236.97"/>
<polygon fill="#63b8ff" stroke="#63b8ff" points="399.45,-233.51 389.2,-236.17 398.87,-240.49 399.45,-233.51"/>
</a>
</g>
</g>
<!-- Node23 -->
<g id="Node000023" class="node">
<title>Node23</title>
<g id="a_Node000023"><a xlink:href="_mailbox_8h.html" target="_top" xlink:title=" ">
<polygon fill="white" stroke="#666666" points="1278.75,-185 1190.75,-185 1190.75,-165.75 1278.75,-165.75 1278.75,-185"/>
<text text-anchor="middle" x="1234.75" y="-171.5" font-family="Helvetica,sans-Serif" font-size="10.00">Cpl/Itc/Mailbox.h</text>
</a>
</g>
</g>
<!-- Node3&#45;&gt;Node23 -->
<g id="edge32_Node000003_Node000023" class="edge">
<title>Node3&#45;&gt;Node23</title>
<g id="a_edge32_Node000003_Node000023"><a xlink:title=" ">
<path fill="none" stroke="#63b8ff" d="M994.64,-275.81C1040.78,-256.7 1148.21,-212.21 1202.35,-189.79"/>
<polygon fill="#63b8ff" stroke="#63b8ff" points="1203.44,-193.13 1211.34,-186.07 1200.76,-186.66 1203.44,-193.13"/>
</a>
</g>
</g>
<!-- Node5 -->
<g id="Node000005" class="node">
<title>Node5</title>
<g id="a_Node000005"><a xlink:href="_system_2_event_loop_8h.html" target="_top" xlink:title=" ">
<polygon fill="white" stroke="#666666" points="556.38,-185 433.12,-185 433.12,-165.75 556.38,-165.75 556.38,-185"/>
<text text-anchor="middle" x="494.75" y="-171.5" font-family="Helvetica,sans-Serif" font-size="10.00">Cpl/System/EventLoop.h</text>
</a>
</g>
</g>
<!-- Node4&#45;&gt;Node5 -->
<g id="edge4_Node000004_Node000005" class="edge">
<title>Node4&#45;&gt;Node5</title>
<g id="a_edge4_Node000004_Node000005"><a xlink:title=" ">
<path fill="none" stroke="#63b8ff" d="M361.89,-220.59C387.98,-211.91 427.65,-198.71 456.85,-188.99"/>
<polygon fill="#63b8ff" stroke="#63b8ff" points="457.66,-192.41 466.04,-185.93 455.45,-185.77 457.66,-192.41"/>
</a>
</g>
</g>
<!-- Node17 -->
<g id="Node000017" class="node">
<title>Node17</title>
<g id="a_Node000017"><a xlink:href="_d_list_8h.html" target="_top" xlink:title=" ">
<polygon fill="white" stroke="#666666" points="245.88,-74.5 137.62,-74.5 137.62,-55.25 245.88,-55.25 245.88,-74.5"/>
<text text-anchor="middle" x="191.75" y="-61" font-family="Helvetica,sans-Serif" font-size="10.00">Cpl/Container/DList.h</text>
</a>
</g>
</g>
<!-- Node4&#45;&gt;Node17 -->
<g id="edge26_Node000004_Node000017" class="edge">
<title>Node4&#45;&gt;Node17</title>
<g id="a_edge26_Node000004_Node000017"><a xlink:title=" ">
<path fill="none" stroke="#63b8ff" d="M321.85,-220.75C299.34,-204.75 252.44,-169.03 222.75,-129.75 212.51,-116.2 204.31,-98.73 198.92,-85.48"/>
<polygon fill="#63b8ff" stroke="#63b8ff" points="202.19,-84.23 195.33,-76.15 195.66,-86.74 202.19,-84.23"/>
</a>
</g>
</g>
<!-- Node18 -->
<g id="Node000018" class="node">
<title>Node18</title>
<g id="a_Node000018"><a xlink:href="_thread_8h.html" target="_top" xlink:title=" ">
<polygon fill="white" stroke="#666666" points="992.12,-185 885.38,-185 885.38,-165.75 992.12,-165.75 992.12,-185"/>
<text text-anchor="middle" x="938.75" y="-171.5" font-family="Helvetica,sans-Serif" font-size="10.00">Cpl/System/Thread.h</text>
</a>
</g>
</g>
<!-- Node4&#45;&gt;Node18 -->
<g id="edge20_Node000004_Node000018" class="edge">
<title>Node4&#45;&gt;Node18</title>
<g id="a_edge20_Node000004_Node000018"><a xlink:title=" ">
<path fill="none" stroke="#63b8ff" d="M387.82,-224.95C498.53,-215.19 753.78,-192.68 873.95,-182.09"/>
<polygon fill="#63b8ff" stroke="#63b8ff" points="873.99,-185.6 883.64,-181.23 873.37,-178.63 873.99,-185.6"/>
</a>
</g>
</g>
<!-- Node21 -->
<g id="Node000021" class="node">
<title>Node21</title>
<g id="a_Node000021"><a xlink:href="_subscriber_api_8h.html" target="_top" xlink:title=" ">
<polygon fill="white" stroke="#666666" points="119.5,-74.5 0,-74.5 0,-55.25 119.5,-55.25 119.5,-74.5"/>
<text text-anchor="middle" x="59.75" y="-61" font-family="Helvetica,sans-Serif" font-size="10.00">Cpl/Dm/SubscriberApi.h</text>
</a>
</g>
</g>
<!-- Node4&#45;&gt;Node21 -->
<g id="edge27_Node000004_Node000021" class="edge">
<title>Node4&#45;&gt;Node21</title>
<g id="a_edge27_Node000004_Node000021"><a xlink:title=" ">
<path fill="none" stroke="#63b8ff" d="M281.95,-230.39C199.1,-230.34 44.42,-224.76 9.75,-185 -16.77,-154.59 18.68,-108.09 42.09,-83.13"/>
<polygon fill="#63b8ff" stroke="#63b8ff" points="44.51,-85.67 48.98,-76.07 39.5,-80.78 44.51,-85.67"/>
</a>
</g>
</g>
<!-- Node22 -->
<g id="Node000022" class="node">
<title>Node22</title>
<g id="a_Node000022"><a xlink:href="_notification_api___8h.html" target="_top" xlink:title=" ">
<polygon fill="white" stroke="#666666" points="146.25,-185 19.25,-185 19.25,-165.75 146.25,-165.75 146.25,-185"/>
<text text-anchor="middle" x="82.75" y="-171.5" font-family="Helvetica,sans-Serif" font-size="10.00">Cpl/Dm/NotificationApi_.h</text>
</a>
</g>
</g>
<!-- Node4&#45;&gt;Node22 -->
<g id="edge30_Node000004_Node000022" class="edge">
<title>Node4&#45;&gt;Node22</title>
<g id="a_edge30_Node000004_Node000022"><a xlink:title=" ">
<path fill="none" stroke="#63b8ff" d="M291.72,-220.53C248.86,-211.48 182.95,-197.55 136.64,-187.76"/>
<polygon fill="#63b8ff" stroke="#63b8ff" points="137.59,-184.39 127.09,-185.74 136.15,-191.24 137.59,-184.39"/>
</a>
</g>
</g>
<!-- Node6 -->
<g id="Node000006" class="node">
<title>Node6</title>
<g id="a_Node000006"><a xlink:href="_runnable_8h.html" target="_top" xlink:title=" ">
<polygon fill="white" stroke="#666666" points="882.38,-129.75 765.12,-129.75 765.12,-110.5 882.38,-110.5 882.38,-129.75"/>
<text text-anchor="middle" x="823.75" y="-116.25" font-family="Helvetica,sans-Serif" font-size="10.00">Cpl/System/Runnable.h</text>
</a>
</g>
</g>
<!-- Node5&#45;&gt;Node6 -->
<g id="edge5_Node000005_Node000006" class="edge">
<title>Node5&#45;&gt;Node6</title>
<g id="a_edge5_Node000005_Node000006"><a xlink:title=" ">
<path fill="none" stroke="#63b8ff" d="M550.93,-165.28C607.74,-156.09 695.58,-141.87 756.17,-132.06"/>
<polygon fill="#63b8ff" stroke="#63b8ff" points="756.72,-135.52 766.03,-130.47 755.6,-128.61 756.72,-135.52"/>
</a>
</g>
</g>
<!-- Node7 -->
<g id="Node000007" class="node">
<title>Node7</title>
<g id="a_Node000007"><a xlink:href="_semaphore_8h.html" target="_top" xlink:title=" ">
<polygon fill="white" stroke="#666666" points="746.88,-129.75 620.62,-129.75 620.62,-110.5 746.88,-110.5 746.88,-129.75"/>
<text text-anchor="middle" x="683.75" y="-116.25" font-family="Helvetica,sans-Serif" font-size="10.00">Cpl/System/Semaphore.h</text>
</a>
</g>
</g>
<!-- Node5&#45;&gt;Node7 -->
<g id="edge6_Node000005_Node000007" class="edge">
<title>Node5&#45;&gt;Node7</title>
<g id="a_edge6_Node000005_Node000007"><a xlink:title=" ">
<path fill="none" stroke="#63b8ff" d="M526.81,-165.34C558.17,-156.51 606.14,-142.99 640.79,-133.23"/>
<polygon fill="#63b8ff" stroke="#63b8ff" points="641.4,-136.69 650.07,-130.61 639.5,-129.96 641.4,-136.69"/>
</a>
</g>
</g>
<!-- Node9 -->
<g id="Node000009" class="node">
<title>Node9</title>
<g id="a_Node000009"><a xlink:href="_signable_8h.html" target="_top" xlink:title=" ">
<polygon fill="white" stroke="#666666" points="760.88,-74.5 646.62,-74.5 646.62,-55.25 760.88,-55.25 760.88,-74.5"/>
<text text-anchor="middle" x="703.75" y="-61" font-family="Helvetica,sans-Serif" font-size="10.00">Cpl/System/Signable.h</text>
</a>
</g>
</g>
<!-- Node5&#45;&gt;Node9 -->
<g id="edge10_Node000005_Node000009" class="edge">
<title>Node5&#45;&gt;Node9</title>
<g id="a_edge10_Node000005_Node000009"><a xlink:title=" ">
<path fill="none" stroke="#63b8ff" d="M510.52,-165.45C532.87,-152.88 575.13,-129.36 611.75,-110.5 632.5,-99.81 656.2,-88.33 674.34,-79.7"/>
<polygon fill="#63b8ff" stroke="#63b8ff" points="675.68,-82.93 683.22,-75.49 672.68,-76.61 675.68,-82.93"/>
</a>
</g>
</g>
<!-- Node11 -->
<g id="Node000011" class="node">
<title>Node11</title>
<g id="a_Node000011"><a xlink:href="_event_flag_8h.html" target="_top" xlink:title=" ">
<polygon fill="white" stroke="#666666" points="383.88,-74.5 263.62,-74.5 263.62,-55.25 383.88,-55.25 383.88,-74.5"/>
<text text-anchor="middle" x="323.75" y="-61" font-family="Helvetica,sans-Serif" font-size="10.00">Cpl/System/EventFlag.h</text>
</a>
</g>
</g>
<!-- Node5&#45;&gt;Node11 -->
<g id="edge11_Node000005_Node000011" class="edge">
<title>Node5&#45;&gt;Node11</title>
<g id="a_edge11_Node000005_Node000011"><a xlink:title=" ">
<path fill="none" stroke="#63b8ff" d="M432.71,-172.76C363.22,-169.49 256.96,-159.6 231.75,-129.75 213.09,-107.66 247.15,-89.68 278.97,-78.49"/>
<polygon fill="#63b8ff" stroke="#63b8ff" points="279.78,-81.91 288.17,-75.44 277.57,-75.27 279.78,-81.91"/>
</a>
</g>
</g>
<!-- Node14 -->
<g id="Node000014" class="node">
<title>Node14</title>
<g id="a_Node000014"><a xlink:href="_shared_event_handler_8h.html" target="_top" xlink:title=" ">
<polygon fill="white" stroke="#666666" points="406.75,-129.75 240.75,-129.75 240.75,-110.5 406.75,-110.5 406.75,-129.75"/>
<text text-anchor="middle" x="323.75" y="-116.25" font-family="Helvetica,sans-Serif" font-size="10.00">Cpl/System/SharedEventHandler.h</text>
</a>
</g>
</g>
<!-- Node5&#45;&gt;Node14 -->
<g id="edge14_Node000005_Node000014" class="edge">
<title>Node5&#45;&gt;Node14</title>
<g id="a_edge14_Node000005_Node000014"><a xlink:title=" ">
<path fill="none" stroke="#63b8ff" d="M465.74,-165.34C437.74,-156.62 395.09,-143.34 363.85,-133.61"/>
<polygon fill="#63b8ff" stroke="#63b8ff" points="364.93,-130.28 354.35,-130.65 362.85,-136.97 364.93,-130.28"/>
</a>
</g>
</g>
<!-- Node15 -->
<g id="Node000015" class="node">
<title>Node15</title>
<g id="a_Node000015"><a xlink:href="_timer_manager_8h.html" target="_top" xlink:title=" ">
<polygon fill="white" stroke="#666666" points="564.25,-129.75 425.25,-129.75 425.25,-110.5 564.25,-110.5 564.25,-129.75"/>
<text text-anchor="middle" x="494.75" y="-116.25" font-family="Helvetica,sans-Serif" font-size="10.00">Cpl/System/TimerManager.h</text>
</a>
</g>
</g>
<!-- Node5&#45;&gt;Node15 -->
<g id="edge16_Node000005_Node000015" class="edge">
<title>Node5&#45;&gt;Node15</title>
<g id="a_edge16_Node000005_Node000015"><a xlink:title=" ">
<path fill="none" stroke="#63b8ff" d="M494.75,-165.58C494.75,-159.07 494.75,-149.92 494.75,-141.62"/>
<polygon fill="#63b8ff" stroke="#63b8ff" points="498.25,-141.62 494.75,-131.62 491.25,-141.62 498.25,-141.62"/>
</a>
</g>
</g>
<!-- Node8 -->
<g id="Node000008" class="node">
<title>Node8</title>
<g id="a_Node000008"><a xlink:title=" ">
<polygon fill="#e0e0e0" stroke="#999999" points="992.38,-74.5 917.12,-74.5 917.12,-55.25 992.38,-55.25 992.38,-74.5"/>
<text text-anchor="middle" x="954.75" y="-61" font-family="Helvetica,sans-Serif" font-size="10.00">colony_map.h</text>
</a>
</g>
</g>
<!-- Node7&#45;&gt;Node8 -->
<g id="edge7_Node000007_Node000008" class="edge">
<title>Node7&#45;&gt;Node8</title>
<g id="a_edge7_Node000007_Node000008"><a xlink:title=" ">
<path fill="none" stroke="#63b8ff" d="M730.03,-110.03C778.98,-100.41 855.88,-85.3 905.81,-75.49"/>
<polygon fill="#63b8ff" stroke="#63b8ff" points="906.34,-78.95 915.48,-73.59 904.99,-72.09 906.34,-78.95"/>
</a>
</g>
</g>
<!-- Node7&#45;&gt;Node9 -->
<g id="edge8_Node000007_Node000009" class="edge">
<title>Node7&#45;&gt;Node9</title>
<g id="a_edge8_Node000007_Node000009"><a xlink:title=" ">
<path fill="none" stroke="#63b8ff" d="M687.05,-110.33C689.58,-103.59 693.18,-94.02 696.38,-85.49"/>
<polygon fill="#63b8ff" stroke="#63b8ff" points="699.6,-86.87 699.84,-76.28 693.05,-84.41 699.6,-86.87"/>
</a>
</g>
</g>
<!-- Node10 -->
<g id="Node000010" class="node">
<title>Node10</title>
<g id="a_Node000010"><a xlink:href="_item_8h.html" target="_top" xlink:title=" ">
<polygon fill="white" stroke="#666666" points="756,-19.25 651.5,-19.25 651.5,0 756,0 756,-19.25"/>
<text text-anchor="middle" x="703.75" y="-5.75" font-family="Helvetica,sans-Serif" font-size="10.00">Cpl/Container/Item.h</text>
</a>
</g>
</g>
<!-- Node9&#45;&gt;Node10 -->
<g id="edge9_Node000009_Node000010" class="edge">
<title>Node9&#45;&gt;Node10</title>
<g id="a_edge9_Node000009_Node000010"><a xlink:title=" ">
<path fill="none" stroke="#63b8ff" d="M703.75,-55.08C703.75,-48.57 703.75,-39.42 703.75,-31.12"/>
<polygon fill="#63b8ff" stroke="#63b8ff" points="707.25,-31.12 703.75,-21.12 700.25,-31.12 707.25,-31.12"/>
</a>
</g>
</g>
<!-- Node12 -->
<g id="Node000012" class="node">
<title>Node12</title>
<g id="a_Node000012"><a xlink:title=" ">
<polygon fill="#e0e0e0" stroke="#999999" points="364.75,-19.25 282.75,-19.25 282.75,0 364.75,0 364.75,-19.25"/>
<text text-anchor="middle" x="323.75" y="-5.75" font-family="Helvetica,sans-Serif" font-size="10.00">colony_config.h</text>
</a>
</g>
</g>
<!-- Node11&#45;&gt;Node12 -->
<g id="edge12_Node000011_Node000012" class="edge">
<title>Node11&#45;&gt;Node12</title>
<g id="a_edge12_Node000011_Node000012"><a xlink:title=" ">
<path fill="none" stroke="#63b8ff" d="M323.75,-55.08C323.75,-48.57 323.75,-39.42 323.75,-31.12"/>
<polygon fill="#63b8ff" stroke="#63b8ff" points="327.25,-31.12 323.75,-21.12 320.25,-31.12 327.25,-31.12"/>
</a>
</g>
</g>
<!-- Node13 -->
<g id="Node000013" class="node">
<title>Node13</title>
<g id="a_Node000013"><a xlink:title=" ">
<polygon fill="#e0e0e0" stroke="#999999" points="174.5,-19.25 127,-19.25 127,0 174.5,0 174.5,-19.25"/>
<text text-anchor="middle" x="150.75" y="-5.75" font-family="Helvetica,sans-Serif" font-size="10.00">stdint.h</text>
</a>
</g>
</g>
<!-- Node11&#45;&gt;Node13 -->
<g id="edge13_Node000011_Node000013" class="edge">
<title>Node11&#45;&gt;Node13</title>
<g id="a_edge13_Node000011_Node000013"><a xlink:title=" ">
<path fill="none" stroke="#63b8ff" d="M294.4,-54.84C264.31,-45.58 217.5,-31.17 185.56,-21.34"/>
<polygon fill="#63b8ff" stroke="#63b8ff" points="186.96,-18.11 176.38,-18.51 184.9,-24.8 186.96,-18.11"/>
</a>
</g>
</g>
<!-- Node14&#45;&gt;Node11 -->
<g id="edge15_Node000014_Node000011" class="edge">
<title>Node14&#45;&gt;Node11</title>
<g id="a_edge15_Node000014_Node000011"><a xlink:title=" ">
<path fill="none" stroke="#63b8ff" d="M323.75,-110.33C323.75,-103.82 323.75,-94.67 323.75,-86.37"/>
<polygon fill="#63b8ff" stroke="#63b8ff" points="327.25,-86.37 323.75,-76.37 320.25,-86.37 327.25,-86.37"/>
</a>
</g>
</g>
<!-- Node16 -->
<g id="Node000016" class="node">
<title>Node16</title>
<g id="a_Node000016"><a xlink:href="_counter___8h.html" target="_top" xlink:title=" ">
<polygon fill="white" stroke="#666666" points="600.62,-74.5 484.88,-74.5 484.88,-55.25 600.62,-55.25 600.62,-74.5"/>
<text text-anchor="middle" x="542.75" y="-61" font-family="Helvetica,sans-Serif" font-size="10.00">Cpl/System/Counter_.h</text>
</a>
</g>
</g>
<!-- Node15&#45;&gt;Node16 -->
<g id="edge17_Node000015_Node000016" class="edge">
<title>Node15&#45;&gt;Node16</title>
<g id="a_edge17_Node000015_Node000016"><a xlink:title=" ">
<path fill="none" stroke="#63b8ff" d="M502.68,-110.33C509.31,-102.98 518.97,-92.26 527.14,-83.19"/>
<polygon fill="#63b8ff" stroke="#63b8ff" points="529.54,-85.75 533.64,-75.98 524.34,-81.07 529.54,-85.75"/>
</a>
</g>
</g>
<!-- Node15&#45;&gt;Node17 -->
<g id="edge19_Node000015_Node000017" class="edge">
<title>Node15&#45;&gt;Node17</title>
<g id="a_edge19_Node000015_Node000017"><a xlink:title=" ">
<path fill="none" stroke="#63b8ff" d="M443.01,-110.03C390.9,-100.87 310.46,-86.74 254.69,-76.94"/>
<polygon fill="#63b8ff" stroke="#63b8ff" points="255.48,-73.52 245.02,-75.24 254.27,-80.42 255.48,-73.52"/>
</a>
</g>
</g>
<!-- Node16&#45;&gt;Node10 -->
<g id="edge18_Node000016_Node000010" class="edge">
<title>Node16&#45;&gt;Node10</title>
<g id="a_edge18_Node000016_Node000010"><a xlink:title=" ">
<path fill="none" stroke="#63b8ff" d="M570.06,-54.84C596.31,-46.16 636.23,-32.96 665.61,-23.24"/>
<polygon fill="#63b8ff" stroke="#63b8ff" points="666.47,-26.64 674.87,-20.18 664.27,-19.99 666.47,-26.64"/>
</a>
</g>
</g>
<!-- Node18&#45;&gt;Node6 -->
<g id="edge22_Node000018_Node000006" class="edge">
<title>Node18&#45;&gt;Node6</title>
<g id="a_edge22_Node000018_Node000006"><a xlink:title=" ">
<path fill="none" stroke="#63b8ff" d="M919.24,-165.34C901.23,-157 874.23,-144.5 853.52,-134.91"/>
<polygon fill="#63b8ff" stroke="#63b8ff" points="855.27,-131.86 844.73,-130.84 852.33,-138.22 855.27,-131.86"/>
</a>
</g>
</g>
<!-- Node18&#45;&gt;Node8 -->
<g id="edge21_Node000018_Node000008" class="edge">
<title>Node18&#45;&gt;Node8</title>
<g id="a_edge21_Node000018_Node000008"><a xlink:title=" ">
<path fill="none" stroke="#63b8ff" d="M992.62,-167.09C1015.43,-161.04 1039.9,-149.98 1053.75,-129.75 1070.57,-105.18 1036.26,-87.91 1003.53,-77.57"/>
<polygon fill="#63b8ff" stroke="#63b8ff" points="1004.6,-74.23 994.01,-74.76 1002.61,-80.95 1004.6,-74.23"/>
</a>
</g>
</g>
<!-- Node18&#45;&gt;Node9 -->
<g id="edge23_Node000018_Node000009" class="edge">
<title>Node18&#45;&gt;Node9</title>
<g id="a_edge23_Node000018_Node000009"><a xlink:title=" ">
<path fill="none" stroke="#63b8ff" d="M934.7,-165.38C927.91,-151.36 912.87,-124.48 891.75,-110.5 856.51,-87.17 810.43,-76 772.71,-70.66"/>
<polygon fill="#63b8ff" stroke="#63b8ff" points="773.17,-67.19 762.8,-69.38 772.27,-74.14 773.17,-67.19"/>
</a>
</g>
</g>
<!-- Node19 -->
<g id="Node000019" class="node">
<title>Node19</title>
<g id="a_Node000019"><a xlink:href="_traverser_8h.html" target="_top" xlink:title=" ">
<polygon fill="white" stroke="#666666" points="1044.75,-129.75 938.75,-129.75 938.75,-110.5 1044.75,-110.5 1044.75,-129.75"/>
<text text-anchor="middle" x="991.75" y="-116.25" font-family="Helvetica,sans-Serif" font-size="10.00">Cpl/Type/Traverser.h</text>
</a>
</g>
</g>
<!-- Node18&#45;&gt;Node19 -->
<g id="edge24_Node000018_Node000019" class="edge">
<title>Node18&#45;&gt;Node19</title>
<g id="a_edge24_Node000018_Node000019"><a xlink:title=" ">
<path fill="none" stroke="#63b8ff" d="M947.5,-165.58C954.9,-158.15 965.71,-147.29 974.8,-138.16"/>
<polygon fill="#63b8ff" stroke="#63b8ff" points="977.17,-140.74 981.74,-131.18 972.21,-135.8 977.17,-140.74"/>
</a>
</g>
</g>
<!-- Node18&#45;&gt;Node20 -->
<g id="edge25_Node000018_Node000020" class="edge">
<title>Node18&#45;&gt;Node20</title>
<g id="a_edge25_Node000018_Node000020"><a xlink:title=" ">
<path fill="none" stroke="#63b8ff" d="M970.13,-165.34C1003.1,-155.85 1054.83,-140.96 1089.01,-131.12"/>
<polygon fill="#63b8ff" stroke="#63b8ff" points="1089.78,-134.54 1098.42,-128.41 1087.85,-127.82 1089.78,-134.54"/>
</a>
</g>
</g>
<!-- Node21&#45;&gt;Node10 -->
<g id="edge28_Node000021_Node000010" class="edge">
<title>Node21&#45;&gt;Node10</title>
<g id="a_edge28_Node000021_Node000010"><a xlink:title=" ">
<path fill="none" stroke="#63b8ff" d="M119.94,-56.18C122.92,-55.85 125.87,-55.54 128.75,-55.25 314.06,-36.49 533.68,-21.43 639.89,-14.6"/>
<polygon fill="#63b8ff" stroke="#63b8ff" points="640.08,-18.09 649.84,-13.96 639.64,-11.11 640.08,-18.09"/>
</a>
</g>
</g>
<!-- Node21&#45;&gt;Node13 -->
<g id="edge29_Node000021_Node000013" class="edge">
<title>Node21&#45;&gt;Node13</title>
<g id="a_edge29_Node000021_Node000013"><a xlink:title=" ">
<path fill="none" stroke="#63b8ff" d="M75.19,-54.84C88.91,-46.81 109.25,-34.91 125.37,-25.48"/>
<polygon fill="#63b8ff" stroke="#63b8ff" points="127.07,-28.54 133.93,-20.47 123.53,-22.5 127.07,-28.54"/>
</a>
</g>
</g>
<!-- Node22&#45;&gt;Node21 -->
<g id="edge31_Node000022_Node000021" class="edge">
<title>Node22&#45;&gt;Node21</title>
<g id="a_edge31_Node000022_Node000021"><a xlink:title=" ">
<path fill="none" stroke="#63b8ff" d="M80.87,-165.5C77.21,-148.25 69.07,-109.83 64.03,-86.06"/>
<polygon fill="#63b8ff" stroke="#63b8ff" points="67.47,-85.41 61.97,-76.36 60.62,-86.87 67.47,-85.41"/>
</a>
</g>
</g>
<!-- Node23&#45;&gt;Node9 -->
<g id="edge38_Node000023_Node000009" class="edge">
<title>Node23&#45;&gt;Node9</title>
<g id="a_edge38_Node000023_Node000009"><a xlink:title=" ">
<path fill="none" stroke="#63b8ff" d="M1227.07,-165.45C1214.05,-151.03 1186.1,-122.95 1155.75,-110.5 1088.1,-82.76 881.29,-71.79 772.42,-67.85"/>
<polygon fill="#63b8ff" stroke="#63b8ff" points="772.87,-64.37 762.76,-67.52 772.63,-71.36 772.87,-64.37"/>
</a>
</g>
</g>
<!-- Node24 -->
<g id="Node000024" class="node">
<title>Node24</title>
<g id="a_Node000024"><a xlink:href="_post_api_8h.html" target="_top" xlink:title=" ">
<polygon fill="white" stroke="#666666" points="1292.5,-129.75 1203,-129.75 1203,-110.5 1292.5,-110.5 1292.5,-129.75"/>
<text text-anchor="middle" x="1247.75" y="-116.25" font-family="Helvetica,sans-Serif" font-size="10.00">Cpl/Itc/PostApi.h</text>
</a>
</g>
</g>
<!-- Node23&#45;&gt;Node24 -->
<g id="edge33_Node000023_Node000024" class="edge">
<title>Node23&#45;&gt;Node24</title>
<g id="a_edge33_Node000023_Node000024"><a xlink:title=" ">
<path fill="none" stroke="#63b8ff" d="M1236.9,-165.58C1238.52,-158.92 1240.83,-149.49 1242.89,-141.03"/>
<polygon fill="#63b8ff" stroke="#63b8ff" points="1246.23,-142.12 1245.2,-131.58 1239.43,-140.46 1246.23,-142.12"/>
</a>
</g>
</g>
<!-- Node26 -->
<g id="Node000026" class="node">
<title>Node26</title>
<g id="a_Node000026"><a xlink:href="_s_list_8h.html" target="_top" xlink:title=" ">
<polygon fill="white" stroke="#666666" points="1353.88,-74.5 1245.62,-74.5 1245.62,-55.25 1353.88,-55.25 1353.88,-74.5"/>
<text text-anchor="middle" x="1299.75" y="-61" font-family="Helvetica,sans-Serif" font-size="10.00">Cpl/Container/SList.h</text>
</a>
</g>
</g>
<!-- Node23&#45;&gt;Node26 -->
<g id="edge36_Node000023_Node000026" class="edge">
<title>Node23&#45;&gt;Node26</title>
<g id="a_edge36_Node000023_Node000026"><a xlink:title=" ">
<path fill="none" stroke="#63b8ff" d="M1258.86,-165.35C1274.16,-158.22 1292.71,-146.63 1301.75,-129.75 1308.89,-116.41 1307.86,-99.15 1305.33,-85.94"/>
<polygon fill="#63b8ff" stroke="#63b8ff" points="1308.74,-85.15 1303.02,-76.24 1301.93,-86.78 1308.74,-85.15"/>
</a>
</g>
</g>
<!-- Node25 -->
<g id="Node000025" class="node">
<title>Node25</title>
<g id="a_Node000025"><a xlink:href="_message_8h.html" target="_top" xlink:title=" ">
<polygon fill="white" stroke="#666666" points="1186.12,-74.5 1091.38,-74.5 1091.38,-55.25 1186.12,-55.25 1186.12,-74.5"/>
<text text-anchor="middle" x="1138.75" y="-61" font-family="Helvetica,sans-Serif" font-size="10.00">Cpl/Itc/Message.h</text>
</a>
</g>
</g>
<!-- Node24&#45;&gt;Node25 -->
<g id="edge34_Node000024_Node000025" class="edge">
<title>Node24&#45;&gt;Node25</title>
<g id="a_edge34_Node000024_Node000025"><a xlink:title=" ">
<path fill="none" stroke="#63b8ff" d="M1229.26,-110.09C1212.35,-101.83 1187.06,-89.48 1167.51,-79.93"/>
<polygon fill="#63b8ff" stroke="#63b8ff" points="1169.21,-76.86 1158.69,-75.62 1166.14,-83.15 1169.21,-76.86"/>
</a>
</g>
</g>
<!-- Node25&#45;&gt;Node10 -->
<g id="edge35_Node000025_Node000010" class="edge">
<title>Node25&#45;&gt;Node10</title>
<g id="a_edge35_Node000025_Node000010"><a xlink:title=" ">
<path fill="none" stroke="#63b8ff" d="M1090.95,-58.02C1012.3,-48.4 855.54,-29.21 767.52,-18.43"/>
<polygon fill="#63b8ff" stroke="#63b8ff" points="768.21,-14.99 757.86,-17.25 767.36,-21.94 768.21,-14.99"/>
</a>
</g>
</g>
<!-- Node26&#45;&gt;Node10 -->
<g id="edge37_Node000026_Node000010" class="edge">
<title>Node26&#45;&gt;Node10</title>
<g id="a_edge37_Node000026_Node000010"><a xlink:title=" ">
<path fill="none" stroke="#63b8ff" d="M1245.28,-59.01C1134.87,-49.14 885.23,-26.84 767.48,-16.32"/>
<polygon fill="#63b8ff" stroke="#63b8ff" points="767.95,-12.85 757.68,-15.44 767.33,-19.82 767.95,-12.85"/>
</a>
</g>
</g>
<!-- Node27&#45;&gt;Node20 -->
<g id="edge41_Node000027_Node000020" class="edge">
<title>Node27&#45;&gt;Node20</title>
<g id="a_edge41_Node000027_Node000020"><a xlink:title=" ">
<path fill="none" stroke="#63b8ff" d="M1136.05,-276.07C1134.04,-250.75 1128.21,-177.25 1125.35,-141.34"/>
<polygon fill="#63b8ff" stroke="#63b8ff" points="1128.85,-141.17 1124.57,-131.48 1121.87,-141.73 1128.85,-141.17"/>
</a>
</g>
</g>
</g>
</svg>
