<?xml version="1.0" encoding="UTF-8" standalone="no"?>
<!DOCTYPE svg PUBLIC "-//W3C//DTD SVG 1.1//EN"
 "http://www.w3.org/Graphics/SVG/1.1/DTD/svg11.dtd">
<!-- Generated by graphviz version 9.0.0 (20230911.1827)
 -->
<!-- Title: Cpl/Io/File/OutputApi.h Pages: 1 -->
<svg width="316pt" height="138pt"
 viewBox="0.00 0.00 315.88 137.75" xmlns="http://www.w3.org/2000/svg" xmlns:xlink="http://www.w3.org/1999/xlink">
<g id="graph0" class="graph" transform="scale(1 1) rotate(0) translate(4 133.75)">
<title>Cpl/Io/File/OutputApi.h</title>
<!-- Node1 -->
<g id="Node000001" class="node">
<title>Node1</title>
<g id="a_Node000001"><a xlink:title=" ">
<polygon fill="#999999" stroke="#666666" points="247,-129.75 132.75,-129.75 132.75,-110.5 247,-110.5 247,-129.75"/>
<text text-anchor="middle" x="189.88" y="-116.25" font-family="Helvetica,sans-Serif" font-size="10.00">Cpl/Io/File/OutputApi.h</text>
</a>
</g>
</g>
<!-- Node2 -->
<g id="Node000002" class="node">
<title>Node2</title>
<g id="a_Node000002"><a xlink:href="_input_output_api_8h.html" target="_top" xlink:title=" ">
<polygon fill="white" stroke="#666666" points="189.88,-74.5 53.88,-74.5 53.88,-55.25 189.88,-55.25 189.88,-74.5"/>
<text text-anchor="middle" x="121.88" y="-61" font-family="Helvetica,sans-Serif" font-size="10.00">Cpl/Io/File/InputOutputApi.h</text>
</a>
</g>
</g>
<!-- Node1&#45;&gt;Node2 -->
<g id="edge1_Node000001_Node000002" class="edge">
<title>Node1&#45;&gt;Node2</title>
<g id="a_edge1_Node000001_Node000002"><a xlink:title=" ">
<path fill="none" stroke="#63b8ff" d="M169.53,-103.19C157.65,-93.89 143.11,-82.51 133.24,-74.77"/>
<polygon fill="#63b8ff" stroke="#63b8ff" points="167.12,-105.75 177.15,-109.16 171.43,-100.24 167.12,-105.75"/>
</a>
</g>
</g>
<!-- Node5 -->
<g id="Node000005" class="node">
<title>Node5</title>
<g id="a_Node000005"><a xlink:href="_cpl_2_io_2_file_2_output_8h.html" target="_top" xlink:title=" ">
<polygon fill="white" stroke="#666666" points="307.88,-74.5 207.88,-74.5 207.88,-55.25 307.88,-55.25 307.88,-74.5"/>
<text text-anchor="middle" x="257.88" y="-61" font-family="Helvetica,sans-Serif" font-size="10.00">Cpl/Io/File/Output.h</text>
</a>
</g>
</g>
<!-- Node1&#45;&gt;Node5 -->
<g id="edge4_Node000001_Node000005" class="edge">
<title>Node1&#45;&gt;Node5</title>
<g id="a_edge4_Node000001_Node000005"><a xlink:title=" ">
<path fill="none" stroke="#63b8ff" d="M210.22,-103.19C222.1,-93.89 236.64,-82.51 246.51,-74.77"/>
<polygon fill="#63b8ff" stroke="#63b8ff" points="208.32,-100.24 202.6,-109.16 212.63,-105.75 208.32,-100.24"/>
</a>
</g>
</g>
<!-- Node3 -->
<g id="Node000003" class="node">
<title>Node3</title>
<g id="a_Node000003"><a xlink:href="_file_2_input_output_8h.html" target="_top" xlink:title=" ">
<polygon fill="white" stroke="#666666" points="121.75,-19.25 0,-19.25 0,0 121.75,0 121.75,-19.25"/>
<text text-anchor="middle" x="60.88" y="-5.75" font-family="Helvetica,sans-Serif" font-size="10.00">Cpl/Io/File/InputOutput.h</text>
</a>
</g>
</g>
<!-- Node2&#45;&gt;Node3 -->
<g id="edge2_Node000002_Node000003" class="edge">
<title>Node2&#45;&gt;Node3</title>
<g id="a_edge2_Node000002_Node000003"><a xlink:title=" ">
<path fill="none" stroke="#63b8ff" d="M102.99,-47.39C92.45,-38.19 79.75,-27.1 71.07,-19.52"/>
<polygon fill="#63b8ff" stroke="#63b8ff" points="100.55,-49.91 110.39,-53.85 105.16,-44.63 100.55,-49.91"/>
</a>
</g>
</g>
<!-- Node4 -->
<g id="Node000004" class="node">
<title>Node4</title>
<g id="a_Node000004"><a xlink:href="_cpl_2_io_2_file_2_null_8h.html" target="_top" xlink:title=" ">
<polygon fill="white" stroke="#666666" points="227.88,-19.25 139.88,-19.25 139.88,0 227.88,0 227.88,-19.25"/>
<text text-anchor="middle" x="183.88" y="-5.75" font-family="Helvetica,sans-Serif" font-size="10.00">Cpl/Io/File/Null.h</text>
</a>
</g>
</g>
<!-- Node2&#45;&gt;Node4 -->
<g id="edge3_Node000002_Node000004" class="edge">
<title>Node2&#45;&gt;Node4</title>
<g id="a_edge3_Node000002_Node000004"><a xlink:title=" ">
<path fill="none" stroke="#63b8ff" d="M141.07,-47.39C151.78,-38.19 164.69,-27.1 173.51,-19.52"/>
<polygon fill="#63b8ff" stroke="#63b8ff" points="138.85,-44.69 133.54,-53.86 143.41,-50 138.85,-44.69"/>
</a>
</g>
</g>
</g>
</svg>
