<?xml version="1.0" encoding="UTF-8" standalone="no"?>
<!DOCTYPE svg PUBLIC "-//W3C//DTD SVG 1.1//EN"
 "http://www.w3.org/Graphics/SVG/1.1/DTD/svg11.dtd">
<!-- Generated by graphviz version 9.0.0 (20230911.1827)
 -->
<!-- Title: Cpl/Io/Stdio/Output_.h Pages: 1 -->
<svg width="508pt" height="138pt"
 viewBox="0.00 0.00 508.12 137.75" xmlns="http://www.w3.org/2000/svg" xmlns:xlink="http://www.w3.org/1999/xlink">
<g id="graph0" class="graph" transform="scale(1 1) rotate(0) translate(4 133.75)">
<title>Cpl/Io/Stdio/Output_.h</title>
<!-- Node1 -->
<g id="Node000001" class="node">
<title>Node1</title>
<g id="a_Node000001"><a xlink:title=" ">
<polygon fill="#999999" stroke="#666666" points="309,-129.75 197,-129.75 197,-110.5 309,-110.5 309,-129.75"/>
<text text-anchor="middle" x="253" y="-116.25" font-family="Helvetica,sans-Serif" font-size="10.00">Cpl/Io/Stdio/Output_.h</text>
</a>
</g>
</g>
<!-- Node2 -->
<g id="Node000002" class="node">
<title>Node2</title>
<g id="a_Node000002"><a xlink:href="_file_2_output_8h.html" target="_top" xlink:title=" ">
<polygon fill="white" stroke="#666666" points="100,-74.5 0,-74.5 0,-55.25 100,-55.25 100,-74.5"/>
<text text-anchor="middle" x="50" y="-61" font-family="Helvetica,sans-Serif" font-size="10.00">Cpl/Io/File/Output.h</text>
</a>
</g>
</g>
<!-- Node1&#45;&gt;Node2 -->
<g id="edge1_Node000001_Node000002" class="edge">
<title>Node1&#45;&gt;Node2</title>
<g id="a_edge1_Node000001_Node000002"><a xlink:title=" ">
<path fill="none" stroke="#63b8ff" d="M207.52,-107.2C170.32,-97.44 118.49,-83.84 84.61,-74.95"/>
<polygon fill="#63b8ff" stroke="#63b8ff" points="206.54,-110.56 217.1,-109.71 208.32,-103.78 206.54,-110.56"/>
</a>
</g>
</g>
<!-- Node3 -->
<g id="Node000003" class="node">
<title>Node3</title>
<g id="a_Node000003"><a xlink:href="_input_output___8h.html" target="_top" xlink:title=" ">
<polygon fill="white" stroke="#666666" points="251.88,-74.5 118.12,-74.5 118.12,-55.25 251.88,-55.25 251.88,-74.5"/>
<text text-anchor="middle" x="185" y="-61" font-family="Helvetica,sans-Serif" font-size="10.00">Cpl/Io/Stdio/InputOutput_.h</text>
</a>
</g>
</g>
<!-- Node1&#45;&gt;Node3 -->
<g id="edge2_Node000001_Node000003" class="edge">
<title>Node1&#45;&gt;Node3</title>
<g id="a_edge2_Node000001_Node000003"><a xlink:title=" ">
<path fill="none" stroke="#63b8ff" d="M232.65,-103.19C220.78,-93.89 206.24,-82.51 196.36,-74.77"/>
<polygon fill="#63b8ff" stroke="#63b8ff" points="230.24,-105.75 240.27,-109.16 234.56,-100.24 230.24,-105.75"/>
</a>
</g>
</g>
<!-- Node5 -->
<g id="Node000005" class="node">
<title>Node5</title>
<g id="a_Node000005"><a xlink:href="_std_err_8h.html" target="_top" xlink:title=" ">
<polygon fill="white" stroke="#666666" points="374.25,-74.5 269.75,-74.5 269.75,-55.25 374.25,-55.25 374.25,-74.5"/>
<text text-anchor="middle" x="322" y="-61" font-family="Helvetica,sans-Serif" font-size="10.00">Cpl/Io/Stdio/StdErr.h</text>
</a>
</g>
</g>
<!-- Node1&#45;&gt;Node5 -->
<g id="edge4_Node000001_Node000005" class="edge">
<title>Node1&#45;&gt;Node5</title>
<g id="a_edge4_Node000001_Node000005"><a xlink:title=" ">
<path fill="none" stroke="#63b8ff" d="M273.65,-103.19C285.7,-93.89 300.45,-82.51 310.47,-74.77"/>
<polygon fill="#63b8ff" stroke="#63b8ff" points="271.68,-100.29 265.9,-109.17 275.96,-105.83 271.68,-100.29"/>
</a>
</g>
</g>
<!-- Node6 -->
<g id="Node000006" class="node">
<title>Node6</title>
<g id="a_Node000006"><a xlink:href="_std_out_8h.html" target="_top" xlink:title=" ">
<polygon fill="white" stroke="#666666" points="500.12,-74.5 391.88,-74.5 391.88,-55.25 500.12,-55.25 500.12,-74.5"/>
<text text-anchor="middle" x="446" y="-61" font-family="Helvetica,sans-Serif" font-size="10.00">Cpl/Io/Stdio/StdOut.h</text>
</a>
</g>
</g>
<!-- Node1&#45;&gt;Node6 -->
<g id="edge5_Node000001_Node000006" class="edge">
<title>Node1&#45;&gt;Node6</title>
<g id="a_edge5_Node000001_Node000006"><a xlink:title=" ">
<path fill="none" stroke="#63b8ff" d="M296.69,-107.07C332.03,-97.32 381.02,-83.8 413.1,-74.95"/>
<polygon fill="#63b8ff" stroke="#63b8ff" points="295.91,-103.66 287.2,-109.69 297.77,-110.4 295.91,-103.66"/>
</a>
</g>
</g>
<!-- Node4 -->
<g id="Node000004" class="node">
<title>Node4</title>
<g id="a_Node000004"><a xlink:href="_file_2_input_output_8h.html" target="_top" xlink:title=" ">
<polygon fill="white" stroke="#666666" points="245.88,-19.25 124.12,-19.25 124.12,0 245.88,0 245.88,-19.25"/>
<text text-anchor="middle" x="185" y="-5.75" font-family="Helvetica,sans-Serif" font-size="10.00">Cpl/Io/File/InputOutput.h</text>
</a>
</g>
</g>
<!-- Node3&#45;&gt;Node4 -->
<g id="edge3_Node000003_Node000004" class="edge">
<title>Node3&#45;&gt;Node4</title>
<g id="a_edge3_Node000003_Node000004"><a xlink:title=" ">
<path fill="none" stroke="#63b8ff" d="M185,-43.63C185,-35.34 185,-26.17 185,-19.61"/>
<polygon fill="#63b8ff" stroke="#63b8ff" points="181.5,-43.57 185,-53.57 188.5,-43.57 181.5,-43.57"/>
</a>
</g>
</g>
</g>
</svg>
