<?xml version="1.0" encoding="UTF-8" standalone="no"?>
<!DOCTYPE svg PUBLIC "-//W3C//DTD SVG 1.1//EN"
 "http://www.w3.org/Graphics/SVG/1.1/DTD/svg11.dtd">
<!-- Generated by graphviz version 9.0.0 (20230911.1827)
 -->
<!-- Title: Cpl/Io/File/OutputApi.h Pages: 1 -->
<svg width="532pt" height="304pt"
 viewBox="0.00 0.00 532.38 303.50" xmlns="http://www.w3.org/2000/svg" xmlns:xlink="http://www.w3.org/1999/xlink">
<g id="graph0" class="graph" transform="scale(1 1) rotate(0) translate(4 299.5)">
<title>Cpl/Io/File/OutputApi.h</title>
<!-- Node1 -->
<g id="Node000001" class="node">
<title>Node1</title>
<g id="a_Node000001"><a xlink:title=" ">
<polygon fill="#999999" stroke="#666666" points="466.75,-295.5 352.5,-295.5 352.5,-276.25 466.75,-276.25 466.75,-295.5"/>
<text text-anchor="middle" x="409.62" y="-282" font-family="Helvetica,sans-Serif" font-size="10.00">Cpl/Io/File/OutputApi.h</text>
</a>
</g>
</g>
<!-- Node2 -->
<g id="Node000002" class="node">
<title>Node2</title>
<g id="a_Node000002"><a xlink:href="_output_8h.html" target="_top" xlink:title=" ">
<polygon fill="white" stroke="#666666" points="393.25,-240.25 312,-240.25 312,-221 393.25,-221 393.25,-240.25"/>
<text text-anchor="middle" x="352.62" y="-226.75" font-family="Helvetica,sans-Serif" font-size="10.00">Cpl/Io/Output.h</text>
</a>
</g>
</g>
<!-- Node1&#45;&gt;Node2 -->
<g id="edge1_Node000001_Node000002" class="edge">
<title>Node1&#45;&gt;Node2</title>
<g id="a_edge1_Node000001_Node000002"><a xlink:title=" ">
<path fill="none" stroke="#63b8ff" d="M399.96,-275.84C391.88,-268.3 380.16,-257.35 370.4,-248.23"/>
<polygon fill="#63b8ff" stroke="#63b8ff" points="372.95,-245.83 363.26,-241.56 368.18,-250.94 372.95,-245.83"/>
</a>
</g>
</g>
<!-- Node16 -->
<g id="Node000016" class="node">
<title>Node16</title>
<g id="a_Node000016"><a xlink:href="_object_api_8h.html" target="_top" xlink:title=" ">
<polygon fill="white" stroke="#666666" points="524.38,-240.25 410.88,-240.25 410.88,-221 524.38,-221 524.38,-240.25"/>
<text text-anchor="middle" x="467.62" y="-226.75" font-family="Helvetica,sans-Serif" font-size="10.00">Cpl/Io/File/ObjectApi.h</text>
</a>
</g>
</g>
<!-- Node1&#45;&gt;Node16 -->
<g id="edge17_Node000001_Node000016" class="edge">
<title>Node1&#45;&gt;Node16</title>
<g id="a_edge17_Node000001_Node000016"><a xlink:title=" ">
<path fill="none" stroke="#63b8ff" d="M419.46,-275.84C427.68,-268.3 439.61,-257.35 449.54,-248.23"/>
<polygon fill="#63b8ff" stroke="#63b8ff" points="451.82,-250.89 456.82,-241.55 447.08,-245.73 451.82,-250.89"/>
</a>
</g>
</g>
<!-- Node3 -->
<g id="Node000003" class="node">
<title>Node3</title>
<g id="a_Node000003"><a xlink:href="_text_2_string_8h.html" target="_top" xlink:title=" ">
<polygon fill="white" stroke="#666666" points="291.62,-185 203.62,-185 203.62,-165.75 291.62,-165.75 291.62,-185"/>
<text text-anchor="middle" x="247.62" y="-171.5" font-family="Helvetica,sans-Serif" font-size="10.00">Cpl/Text/String.h</text>
</a>
</g>
</g>
<!-- Node2&#45;&gt;Node3 -->
<g id="edge2_Node000002_Node000003" class="edge">
<title>Node2&#45;&gt;Node3</title>
<g id="a_edge2_Node000002_Node000003"><a xlink:title=" ">
<path fill="none" stroke="#63b8ff" d="M334.81,-220.59C318.6,-212.37 294.39,-200.09 275.59,-190.56"/>
<polygon fill="#63b8ff" stroke="#63b8ff" points="277.38,-187.54 266.87,-186.14 274.21,-193.78 277.38,-187.54"/>
</a>
</g>
</g>
<!-- Node11 -->
<g id="Node000011" class="node">
<title>Node11</title>
<g id="a_Node000011"><a xlink:title=" ">
<polygon fill="#e0e0e0" stroke="#999999" points="343.88,-129.75 293.38,-129.75 293.38,-110.5 343.88,-110.5 343.88,-129.75"/>
<text text-anchor="middle" x="318.62" y="-116.25" font-family="Helvetica,sans-Serif" font-size="10.00">stdarg.h</text>
</a>
</g>
</g>
<!-- Node2&#45;&gt;Node11 -->
<g id="edge16_Node000002_Node000011" class="edge">
<title>Node2&#45;&gt;Node11</title>
<g id="a_edge16_Node000002_Node000011"><a xlink:title=" ">
<path fill="none" stroke="#63b8ff" d="M349.83,-220.74C347.01,-211.73 342.51,-197.4 338.62,-185 333.99,-170.21 328.76,-153.49 324.8,-140.87"/>
<polygon fill="#63b8ff" stroke="#63b8ff" points="328.25,-140.16 321.92,-131.67 321.57,-142.26 328.25,-140.16"/>
</a>
</g>
</g>
<!-- Node13 -->
<g id="Node000013" class="node">
<title>Node13</title>
<g id="a_Node000013"><a xlink:href="_close_8h.html" target="_top" xlink:title=" ">
<polygon fill="white" stroke="#666666" points="424,-185 347.25,-185 347.25,-165.75 424,-165.75 424,-185"/>
<text text-anchor="middle" x="385.62" y="-171.5" font-family="Helvetica,sans-Serif" font-size="10.00">Cpl/Io/Close.h</text>
</a>
</g>
</g>
<!-- Node2&#45;&gt;Node13 -->
<g id="edge13_Node000002_Node000013" class="edge">
<title>Node2&#45;&gt;Node13</title>
<g id="a_edge13_Node000002_Node000013"><a xlink:title=" ">
<path fill="none" stroke="#63b8ff" d="M358.07,-220.83C362.4,-213.86 368.59,-203.87 374.01,-195.12"/>
<polygon fill="#63b8ff" stroke="#63b8ff" points="376.97,-196.99 379.26,-186.65 371.02,-193.3 376.97,-196.99"/>
</a>
</g>
</g>
<!-- Node15 -->
<g id="Node000015" class="node">
<title>Node15</title>
<g id="a_Node000015"><a xlink:href="_is_eos_8h.html" target="_top" xlink:title=" ">
<polygon fill="white" stroke="#666666" points="519,-185 442.25,-185 442.25,-165.75 519,-165.75 519,-185"/>
<text text-anchor="middle" x="480.62" y="-171.5" font-family="Helvetica,sans-Serif" font-size="10.00">Cpl/Io/IsEos.h</text>
</a>
</g>
</g>
<!-- Node2&#45;&gt;Node15 -->
<g id="edge15_Node000002_Node000015" class="edge">
<title>Node2&#45;&gt;Node15</title>
<g id="a_edge15_Node000002_Node000015"><a xlink:title=" ">
<path fill="none" stroke="#63b8ff" d="M374.34,-220.59C394.66,-212.14 425.27,-199.4 448.43,-189.77"/>
<polygon fill="#63b8ff" stroke="#63b8ff" points="449.52,-193.11 457.41,-186.03 446.83,-186.64 449.52,-193.11"/>
</a>
</g>
</g>
<!-- Node4 -->
<g id="Node000004" class="node">
<title>Node4</title>
<g id="a_Node000004"><a xlink:title=" ">
<polygon fill="#e0e0e0" stroke="#999999" points="75.25,-74.5 0,-74.5 0,-55.25 75.25,-55.25 75.25,-74.5"/>
<text text-anchor="middle" x="37.62" y="-61" font-family="Helvetica,sans-Serif" font-size="10.00">colony_map.h</text>
</a>
</g>
</g>
<!-- Node3&#45;&gt;Node4 -->
<g id="edge3_Node000003_Node000004" class="edge">
<title>Node3&#45;&gt;Node4</title>
<g id="a_edge3_Node000003_Node000004"><a xlink:title=" ">
<path fill="none" stroke="#63b8ff" d="M203.39,-168.6C170.75,-162.75 126.34,-151.36 92.62,-129.75 74.38,-118.06 58.85,-98.52 48.98,-84.13"/>
<polygon fill="#63b8ff" stroke="#63b8ff" points="52.08,-82.47 43.68,-76.01 46.22,-86.29 52.08,-82.47"/>
</a>
</g>
</g>
<!-- Node5 -->
<g id="Node000005" class="node">
<title>Node5</title>
<g id="a_Node000005"><a xlink:href="_key_8h.html" target="_top" xlink:title=" ">
<polygon fill="white" stroke="#666666" points="203.38,-129.75 101.88,-129.75 101.88,-110.5 203.38,-110.5 203.38,-129.75"/>
<text text-anchor="middle" x="152.62" y="-116.25" font-family="Helvetica,sans-Serif" font-size="10.00">Cpl/Container/Key.h</text>
</a>
</g>
</g>
<!-- Node3&#45;&gt;Node5 -->
<g id="edge4_Node000003_Node000005" class="edge">
<title>Node3&#45;&gt;Node5</title>
<g id="a_edge4_Node000003_Node000005"><a xlink:title=" ">
<path fill="none" stroke="#63b8ff" d="M231.51,-165.34C217.04,-157.23 195.55,-145.18 178.64,-135.71"/>
<polygon fill="#63b8ff" stroke="#63b8ff" points="180.57,-132.78 170.14,-130.94 177.15,-138.89 180.57,-132.78"/>
</a>
</g>
</g>
<!-- Node3&#45;&gt;Node11 -->
<g id="edge11_Node000003_Node000011" class="edge">
<title>Node3&#45;&gt;Node11</title>
<g id="a_edge11_Node000003_Node000011"><a xlink:title=" ">
<path fill="none" stroke="#63b8ff" d="M259.67,-165.34C270.03,-157.57 285.23,-146.17 297.59,-136.9"/>
<polygon fill="#63b8ff" stroke="#63b8ff" points="299.65,-139.73 305.55,-130.93 295.45,-134.13 299.65,-139.73"/>
</a>
</g>
</g>
<!-- Node12 -->
<g id="Node000012" class="node">
<title>Node12</title>
<g id="a_Node000012"><a xlink:title=" ">
<polygon fill="#e0e0e0" stroke="#999999" points="275.38,-129.75 221.88,-129.75 221.88,-110.5 275.38,-110.5 275.38,-129.75"/>
<text text-anchor="middle" x="248.62" y="-116.25" font-family="Helvetica,sans-Serif" font-size="10.00">iostream</text>
</a>
</g>
</g>
<!-- Node3&#45;&gt;Node12 -->
<g id="edge12_Node000003_Node000012" class="edge">
<title>Node3&#45;&gt;Node12</title>
<g id="a_edge12_Node000003_Node000012"><a xlink:title=" ">
<path fill="none" stroke="#63b8ff" d="M247.79,-165.58C247.91,-159.07 248.08,-149.92 248.24,-141.62"/>
<polygon fill="#63b8ff" stroke="#63b8ff" points="251.74,-141.69 248.43,-131.62 244.74,-141.55 251.74,-141.69"/>
</a>
</g>
</g>
<!-- Node5&#45;&gt;Node4 -->
<g id="edge10_Node000005_Node000004" class="edge">
<title>Node5&#45;&gt;Node4</title>
<g id="a_edge10_Node000005_Node000004"><a xlink:title=" ">
<path fill="none" stroke="#63b8ff" d="M133.12,-110.09C115.11,-101.75 88.1,-89.25 67.4,-79.66"/>
<polygon fill="#63b8ff" stroke="#63b8ff" points="69.15,-76.61 58.6,-75.59 66.21,-82.97 69.15,-76.61"/>
</a>
</g>
</g>
<!-- Node6 -->
<g id="Node000006" class="node">
<title>Node6</title>
<g id="a_Node000006"><a xlink:href="_fatal_error_8h.html" target="_top" xlink:title=" ">
<polygon fill="white" stroke="#666666" points="212,-74.5 93.25,-74.5 93.25,-55.25 212,-55.25 212,-74.5"/>
<text text-anchor="middle" x="152.62" y="-61" font-family="Helvetica,sans-Serif" font-size="10.00">Cpl/System/FatalError.h</text>
</a>
</g>
</g>
<!-- Node5&#45;&gt;Node6 -->
<g id="edge5_Node000005_Node000006" class="edge">
<title>Node5&#45;&gt;Node6</title>
<g id="a_edge5_Node000005_Node000006"><a xlink:title=" ">
<path fill="none" stroke="#63b8ff" d="M152.62,-110.33C152.62,-103.82 152.62,-94.67 152.62,-86.37"/>
<polygon fill="#63b8ff" stroke="#63b8ff" points="156.13,-86.37 152.63,-76.37 149.13,-86.37 156.13,-86.37"/>
</a>
</g>
</g>
<!-- Node9 -->
<g id="Node000009" class="node">
<title>Node9</title>
<g id="a_Node000009"><a xlink:title=" ">
<polygon fill="#e0e0e0" stroke="#999999" points="277.38,-74.5 229.88,-74.5 229.88,-55.25 277.38,-55.25 277.38,-74.5"/>
<text text-anchor="middle" x="253.62" y="-61" font-family="Helvetica,sans-Serif" font-size="10.00">stdint.h</text>
</a>
</g>
</g>
<!-- Node5&#45;&gt;Node9 -->
<g id="edge8_Node000005_Node000009" class="edge">
<title>Node5&#45;&gt;Node9</title>
<g id="a_edge8_Node000005_Node000009"><a xlink:title=" ">
<path fill="none" stroke="#63b8ff" d="M169.76,-110.09C185.28,-101.91 208.43,-89.71 226.47,-80.19"/>
<polygon fill="#63b8ff" stroke="#63b8ff" points="227.86,-83.42 235.07,-75.66 224.59,-77.23 227.86,-83.42"/>
</a>
</g>
</g>
<!-- Node10 -->
<g id="Node000010" class="node">
<title>Node10</title>
<g id="a_Node000010"><a xlink:title=" ">
<polygon fill="#e0e0e0" stroke="#999999" points="343.38,-74.5 295.88,-74.5 295.88,-55.25 343.38,-55.25 343.38,-74.5"/>
<text text-anchor="middle" x="319.62" y="-61" font-family="Helvetica,sans-Serif" font-size="10.00">string.h</text>
</a>
</g>
</g>
<!-- Node5&#45;&gt;Node10 -->
<g id="edge9_Node000005_Node000010" class="edge">
<title>Node5&#45;&gt;Node10</title>
<g id="a_edge9_Node000005_Node000010"><a xlink:title=" ">
<path fill="none" stroke="#63b8ff" d="M180.95,-110.09C209.63,-100.95 254.02,-86.79 284.82,-76.97"/>
<polygon fill="#63b8ff" stroke="#63b8ff" points="285.59,-80.4 294.06,-74.03 283.47,-73.73 285.59,-80.4"/>
</a>
</g>
</g>
<!-- Node7 -->
<g id="Node000007" class="node">
<title>Node7</title>
<g id="a_Node000007"><a xlink:title=" ">
<polygon fill="#e0e0e0" stroke="#999999" points="135.88,-19.25 85.38,-19.25 85.38,0 135.88,0 135.88,-19.25"/>
<text text-anchor="middle" x="110.62" y="-5.75" font-family="Helvetica,sans-Serif" font-size="10.00">stddef.h</text>
</a>
</g>
</g>
<!-- Node6&#45;&gt;Node7 -->
<g id="edge6_Node000006_Node000007" class="edge">
<title>Node6&#45;&gt;Node7</title>
<g id="a_edge6_Node000006_Node000007"><a xlink:title=" ">
<path fill="none" stroke="#63b8ff" d="M145.69,-55.08C140.01,-47.88 131.79,-37.46 124.73,-28.51"/>
<polygon fill="#63b8ff" stroke="#63b8ff" points="127.59,-26.48 118.65,-20.8 122.09,-30.82 127.59,-26.48"/>
</a>
</g>
</g>
<!-- Node8 -->
<g id="Node000008" class="node">
<title>Node8</title>
<g id="a_Node000008"><a xlink:title=" ">
<polygon fill="#e0e0e0" stroke="#999999" points="235.62,-19.25 153.62,-19.25 153.62,0 235.62,0 235.62,-19.25"/>
<text text-anchor="middle" x="194.62" y="-5.75" font-family="Helvetica,sans-Serif" font-size="10.00">colony_config.h</text>
</a>
</g>
</g>
<!-- Node6&#45;&gt;Node8 -->
<g id="edge7_Node000006_Node000008" class="edge">
<title>Node6&#45;&gt;Node8</title>
<g id="a_edge7_Node000006_Node000008"><a xlink:title=" ">
<path fill="none" stroke="#63b8ff" d="M159.56,-55.08C165.24,-47.88 173.46,-37.46 180.52,-28.51"/>
<polygon fill="#63b8ff" stroke="#63b8ff" points="183.16,-30.82 186.6,-20.8 177.66,-26.48 183.16,-30.82"/>
</a>
</g>
</g>
<!-- Node14 -->
<g id="Node000014" class="node">
<title>Node14</title>
<g id="a_Node000014"><a xlink:href="_item_8h.html" target="_top" xlink:title=" ">
<polygon fill="white" stroke="#666666" points="466.88,-129.75 362.38,-129.75 362.38,-110.5 466.88,-110.5 466.88,-129.75"/>
<text text-anchor="middle" x="414.62" y="-116.25" font-family="Helvetica,sans-Serif" font-size="10.00">Cpl/Container/Item.h</text>
</a>
</g>
</g>
<!-- Node13&#45;&gt;Node14 -->
<g id="edge14_Node000013_Node000014" class="edge">
<title>Node13&#45;&gt;Node14</title>
<g id="a_edge14_Node000013_Node000014"><a xlink:title=" ">
<path fill="none" stroke="#63b8ff" d="M390.41,-165.58C394.17,-158.69 399.53,-148.84 404.26,-140.16"/>
<polygon fill="#63b8ff" stroke="#63b8ff" points="407.3,-141.89 409.01,-131.44 401.15,-138.55 407.3,-141.89"/>
</a>
</g>
</g>
</g>
</svg>
