<?xml version="1.0" encoding="UTF-8" standalone="no"?>
<!DOCTYPE svg PUBLIC "-//W3C//DTD SVG 1.1//EN"
 "http://www.w3.org/Graphics/SVG/1.1/DTD/svg11.dtd">
<!-- Generated by graphviz version 9.0.0 (20230911.1827)
 -->
<!-- Title: Cpl/Persistent/Payload.h Pages: 1 -->
<svg width="1162pt" height="415pt"
 viewBox="0.00 0.00 1161.83 415.00" xmlns="http://www.w3.org/2000/svg" xmlns:xlink="http://www.w3.org/1999/xlink">
<g id="graph0" class="graph" transform="scale(1 1) rotate(0) translate(4 411)">
<title>Cpl/Persistent/Payload.h</title>
<!-- Node1 -->
<g id="Node000001" class="node">
<title>Node1</title>
<g id="a_Node000001"><a xlink:title=" ">
<polygon fill="#999999" stroke="#666666" points="804.08,-407 681.58,-407 681.58,-387.75 804.08,-387.75 804.08,-407"/>
<text text-anchor="middle" x="742.83" y="-393.5" font-family="Helvetica,sans-Serif" font-size="10.00">Cpl/Persistent/Payload.h</text>
</a>
</g>
</g>
<!-- Node2 -->
<g id="Node000002" class="node">
<title>Node2</title>
<g id="a_Node000002"><a xlink:href="_dm_2_persistent_2_record_8h.html" target="_top" xlink:title=" ">
<polygon fill="white" stroke="#666666" points="408.2,-279.62 271.45,-279.62 271.45,-260.38 408.2,-260.38 408.2,-279.62"/>
<text text-anchor="middle" x="339.83" y="-266.12" font-family="Helvetica,sans-Serif" font-size="10.00">Cpl/Dm/Persistent/Record.h</text>
</a>
</g>
</g>
<!-- Node1&#45;&gt;Node2 -->
<g id="edge1_Node000001_Node000002" class="edge">
<title>Node1&#45;&gt;Node2</title>
<g id="a_edge1_Node000001_Node000002"><a xlink:title=" ">
<path fill="none" stroke="#63b8ff" d="M700.04,-384.25C669.31,-375.45 626.93,-363.15 589.83,-351.75 508.52,-326.77 413,-295.33 367.12,-280.1"/>
<polygon fill="#63b8ff" stroke="#63b8ff" points="698.78,-387.53 709.35,-386.91 700.7,-380.8 698.78,-387.53"/>
</a>
</g>
</g>
<!-- Node8 -->
<g id="Node000008" class="node">
<title>Node8</title>
<g id="a_Node000008"><a xlink:href="_entry_data___t_8h.html" target="_top" xlink:title=" ">
<polygon fill="white" stroke="#666666" points="201.58,-346.12 70.08,-346.12 70.08,-326.88 201.58,-326.88 201.58,-346.12"/>
<text text-anchor="middle" x="135.83" y="-332.62" font-family="Helvetica,sans-Serif" font-size="10.00">Cpl/Logging/EntryData_T.h</text>
</a>
</g>
</g>
<!-- Node1&#45;&gt;Node8 -->
<g id="edge7_Node000001_Node000008" class="edge">
<title>Node1&#45;&gt;Node8</title>
<g id="a_edge7_Node000001_Node000008"><a xlink:title=" ">
<path fill="none" stroke="#63b8ff" d="M670.13,-389.32C551.02,-377.77 316.14,-354.99 201.66,-343.89"/>
<polygon fill="#63b8ff" stroke="#63b8ff" points="669.49,-392.78 679.78,-390.26 670.16,-385.81 669.49,-392.78"/>
</a>
</g>
</g>
<!-- Node12 -->
<g id="Node000012" class="node">
<title>Node12</title>
<g id="a_Node000012"><a xlink:href="_chunk_8h.html" target="_top" xlink:title=" ">
<polygon fill="white" stroke="#666666" points="714.7,-346.12 598.95,-346.12 598.95,-326.88 714.7,-326.88 714.7,-346.12"/>
<text text-anchor="middle" x="656.83" y="-332.62" font-family="Helvetica,sans-Serif" font-size="10.00">Cpl/Persistent/Chunk.h</text>
</a>
</g>
</g>
<!-- Node1&#45;&gt;Node12 -->
<g id="edge11_Node000001_Node000012" class="edge">
<title>Node1&#45;&gt;Node12</title>
<g id="a_edge11_Node000001_Node000012"><a xlink:title=" ">
<path fill="none" stroke="#63b8ff" d="M720.55,-381.13C704.52,-370.15 683.45,-355.72 670.01,-346.53"/>
<polygon fill="#63b8ff" stroke="#63b8ff" points="718.29,-383.82 728.52,-386.58 722.24,-378.04 718.29,-383.82"/>
</a>
</g>
</g>
<!-- Node14 -->
<g id="Node000014" class="node">
<title>Node14</title>
<g id="a_Node000014"><a xlink:href="_data_record_8h.html" target="_top" xlink:title=" ">
<polygon fill="white" stroke="#666666" points="921.33,-279.62 782.33,-279.62 782.33,-260.38 921.33,-260.38 921.33,-279.62"/>
<text text-anchor="middle" x="851.83" y="-266.12" font-family="Helvetica,sans-Serif" font-size="10.00">Cpl/Persistent/DataRecord.h</text>
</a>
</g>
</g>
<!-- Node1&#45;&gt;Node14 -->
<g id="edge21_Node000001_Node000014" class="edge">
<title>Node1&#45;&gt;Node14</title>
<g id="a_edge21_Node000001_Node000014"><a xlink:title=" ">
<path fill="none" stroke="#63b8ff" d="M743.64,-376.09C745.23,-359.79 749.68,-337.08 761.83,-321.25 777.3,-301.09 803.3,-287.84 823.39,-280.03"/>
<polygon fill="#63b8ff" stroke="#63b8ff" points="740.15,-375.82 742.98,-386.03 747.13,-376.28 740.15,-375.82"/>
</a>
</g>
</g>
<!-- Node19 -->
<g id="Node000019" class="node">
<title>Node19</title>
<g id="a_Node000019"><a xlink:href="_indexed_entry_reader_8h.html" target="_top" xlink:title=" ">
<polygon fill="white" stroke="#666666" points="1060.83,-351.75 924.83,-351.75 924.83,-321.25 1060.83,-321.25 1060.83,-351.75"/>
<text text-anchor="start" x="932.83" y="-338.25" font-family="Helvetica,sans-Serif" font-size="10.00">Cpl/Persistent/IndexedEntry</text>
<text text-anchor="middle" x="992.83" y="-327" font-family="Helvetica,sans-Serif" font-size="10.00">Reader.h</text>
</a>
</g>
</g>
<!-- Node1&#45;&gt;Node19 -->
<g id="edge22_Node000001_Node000019" class="edge">
<title>Node1&#45;&gt;Node19</title>
<g id="a_edge22_Node000001_Node000019"><a xlink:title=" ">
<path fill="none" stroke="#63b8ff" d="M792.32,-384.72C831.94,-375.39 887.75,-362.25 930.43,-352.19"/>
<polygon fill="#63b8ff" stroke="#63b8ff" points="791.75,-381.26 782.82,-386.96 793.35,-388.07 791.75,-381.26"/>
</a>
</g>
</g>
<!-- Node20 -->
<g id="Node000020" class="node">
<title>Node20</title>
<g id="a_Node000020"><a xlink:href="_indexed_entry_requests_8h.html" target="_top" xlink:title=" ">
<polygon fill="white" stroke="#666666" points="1153.83,-285.25 1017.83,-285.25 1017.83,-254.75 1153.83,-254.75 1153.83,-285.25"/>
<text text-anchor="start" x="1025.83" y="-271.75" font-family="Helvetica,sans-Serif" font-size="10.00">Cpl/Persistent/IndexedEntry</text>
<text text-anchor="middle" x="1085.83" y="-260.5" font-family="Helvetica,sans-Serif" font-size="10.00">Requests.h</text>
</a>
</g>
</g>
<!-- Node1&#45;&gt;Node20 -->
<g id="edge26_Node000001_Node000020" class="edge">
<title>Node1&#45;&gt;Node20</title>
<g id="a_edge26_Node000001_Node000020"><a xlink:title=" ">
<path fill="none" stroke="#63b8ff" d="M815.76,-395.98C900.78,-393.93 1034.24,-385.27 1069.83,-351.75 1087.83,-334.8 1088.81,-303.88 1087.55,-285.62"/>
<polygon fill="#63b8ff" stroke="#63b8ff" points="815.79,-392.48 805.87,-396.19 815.94,-399.48 815.79,-392.48"/>
</a>
</g>
</g>
<!-- Node21 -->
<g id="Node000021" class="node">
<title>Node21</title>
<g id="a_Node000021"><a xlink:href="_indexed_entry_writer_8h.html" target="_top" xlink:title=" ">
<polygon fill="white" stroke="#666666" points="906.83,-351.75 770.83,-351.75 770.83,-321.25 906.83,-321.25 906.83,-351.75"/>
<text text-anchor="start" x="778.83" y="-338.25" font-family="Helvetica,sans-Serif" font-size="10.00">Cpl/Persistent/IndexedEntry</text>
<text text-anchor="middle" x="838.83" y="-327" font-family="Helvetica,sans-Serif" font-size="10.00">Writer.h</text>
</a>
</g>
</g>
<!-- Node1&#45;&gt;Node21 -->
<g id="edge27_Node000001_Node000021" class="edge">
<title>Node1&#45;&gt;Node21</title>
<g id="a_edge27_Node000001_Node000021"><a xlink:title=" ">
<path fill="none" stroke="#63b8ff" d="M766.87,-381.63C781.63,-372.58 800.44,-361.04 815.13,-352.03"/>
<polygon fill="#63b8ff" stroke="#63b8ff" points="765.39,-378.43 758.7,-386.64 769.05,-384.4 765.39,-378.43"/>
</a>
</g>
</g>
<!-- Node3 -->
<g id="Node000003" class="node">
<title>Node3</title>
<g id="a_Node000003"><a xlink:href="_metrics_record_8h.html" target="_top" xlink:title=" ">
<polygon fill="white" stroke="#666666" points="247.95,-218.75 115.7,-218.75 115.7,-199.5 247.95,-199.5 247.95,-218.75"/>
<text text-anchor="middle" x="181.83" y="-205.25" font-family="Helvetica,sans-Serif" font-size="10.00">Ajax/Main/MetricsRecord.h</text>
</a>
</g>
</g>
<!-- Node2&#45;&gt;Node3 -->
<g id="edge2_Node000002_Node000003" class="edge">
<title>Node2&#45;&gt;Node3</title>
<g id="a_edge2_Node000002_Node000003"><a xlink:title=" ">
<path fill="none" stroke="#63b8ff" d="M305.07,-256.05C275.12,-244.89 232.65,-229.06 206.2,-219.21"/>
<polygon fill="#63b8ff" stroke="#63b8ff" points="303.48,-259.19 314.07,-259.4 305.92,-252.63 303.48,-259.19"/>
</a>
</g>
</g>
<!-- Node5 -->
<g id="Node000005" class="node">
<title>Node5</title>
<g id="a_Node000005"><a xlink:href="_personality_record_8h.html" target="_top" xlink:title=" ">
<polygon fill="white" stroke="#666666" points="413.83,-218.75 265.83,-218.75 265.83,-199.5 413.83,-199.5 413.83,-218.75"/>
<text text-anchor="middle" x="339.83" y="-205.25" font-family="Helvetica,sans-Serif" font-size="10.00">Ajax/Main/PersonalityRecord.h</text>
</a>
</g>
</g>
<!-- Node2&#45;&gt;Node5 -->
<g id="edge4_Node000002_Node000005" class="edge">
<title>Node2&#45;&gt;Node5</title>
<g id="a_edge4_Node000002_Node000005"><a xlink:title=" ">
<path fill="none" stroke="#63b8ff" d="M339.83,-248.57C339.83,-238.54 339.83,-226.96 339.83,-219.15"/>
<polygon fill="#63b8ff" stroke="#63b8ff" points="336.33,-248.54 339.83,-258.54 343.33,-248.54 336.33,-248.54"/>
</a>
</g>
</g>
<!-- Node7 -->
<g id="Node000007" class="node">
<title>Node7</title>
<g id="a_Node000007"><a xlink:href="_user_record_8h.html" target="_top" xlink:title=" ">
<polygon fill="white" stroke="#666666" points="553.33,-218.75 432.33,-218.75 432.33,-199.5 553.33,-199.5 553.33,-218.75"/>
<text text-anchor="middle" x="492.83" y="-205.25" font-family="Helvetica,sans-Serif" font-size="10.00">Ajax/Main/UserRecord.h</text>
</a>
</g>
</g>
<!-- Node2&#45;&gt;Node7 -->
<g id="edge6_Node000002_Node000007" class="edge">
<title>Node2&#45;&gt;Node7</title>
<g id="a_edge6_Node000002_Node000007"><a xlink:title=" ">
<path fill="none" stroke="#63b8ff" d="M373.87,-255.9C402.85,-244.75 443.73,-229.02 469.23,-219.21"/>
<polygon fill="#63b8ff" stroke="#63b8ff" points="372.89,-252.53 364.81,-259.39 375.4,-259.06 372.89,-252.53"/>
</a>
</g>
</g>
<!-- Node4 -->
<g id="Node000004" class="node">
<title>Node4</title>
<g id="a_Node000004"><a xlink:href="_ajax_2_metrics_2_api_8h.html" target="_top" xlink:title=" ">
<polygon fill="white" stroke="#666666" points="229.2,-157.88 134.45,-157.88 134.45,-138.62 229.2,-138.62 229.2,-157.88"/>
<text text-anchor="middle" x="181.83" y="-144.38" font-family="Helvetica,sans-Serif" font-size="10.00">Ajax/Metrics/Api.h</text>
</a>
</g>
</g>
<!-- Node3&#45;&gt;Node4 -->
<g id="edge3_Node000003_Node000004" class="edge">
<title>Node3&#45;&gt;Node4</title>
<g id="a_edge3_Node000003_Node000004"><a xlink:title=" ">
<path fill="none" stroke="#63b8ff" d="M181.83,-187.7C181.83,-177.67 181.83,-166.08 181.83,-158.28"/>
<polygon fill="#63b8ff" stroke="#63b8ff" points="178.33,-187.67 181.83,-197.67 185.33,-187.67 178.33,-187.67"/>
</a>
</g>
</g>
<!-- Node6 -->
<g id="Node000006" class="node">
<title>Node6</title>
<g id="a_Node000006"><a xlink:href="_provision_8h.html" target="_top" xlink:title=" ">
<polygon fill="white" stroke="#666666" points="398.08,-157.88 281.58,-157.88 281.58,-138.62 398.08,-138.62 398.08,-157.88"/>
<text text-anchor="middle" x="339.83" y="-144.38" font-family="Helvetica,sans-Serif" font-size="10.00">Ajax/TShell/Provision.h</text>
</a>
</g>
</g>
<!-- Node5&#45;&gt;Node6 -->
<g id="edge5_Node000005_Node000006" class="edge">
<title>Node5&#45;&gt;Node6</title>
<g id="a_edge5_Node000005_Node000006"><a xlink:title=" ">
<path fill="none" stroke="#63b8ff" d="M339.83,-187.7C339.83,-177.67 339.83,-166.08 339.83,-158.28"/>
<polygon fill="#63b8ff" stroke="#63b8ff" points="336.33,-187.67 339.83,-197.67 343.33,-187.67 336.33,-187.67"/>
</a>
</g>
</g>
<!-- Node9 -->
<g id="Node000009" class="node">
<title>Node9</title>
<g id="a_Node000009"><a xlink:href="_cpl_2_logging_2_api_8h.html" target="_top" xlink:title=" ">
<polygon fill="white" stroke="#666666" points="121.08,-279.62 28.58,-279.62 28.58,-260.38 121.08,-260.38 121.08,-279.62"/>
<text text-anchor="middle" x="74.83" y="-266.12" font-family="Helvetica,sans-Serif" font-size="10.00">Cpl/Logging/Api.h</text>
</a>
</g>
</g>
<!-- Node8&#45;&gt;Node9 -->
<g id="edge8_Node000008_Node000009" class="edge">
<title>Node8&#45;&gt;Node9</title>
<g id="a_edge8_Node000008_Node000009"><a xlink:title=" ">
<path fill="none" stroke="#63b8ff" d="M119.6,-318.34C107.9,-305.97 92.59,-289.78 83.24,-279.89"/>
<polygon fill="#63b8ff" stroke="#63b8ff" points="116.89,-320.57 126.31,-325.43 121.98,-315.76 116.89,-320.57"/>
</a>
</g>
</g>
<!-- Node10 -->
<g id="Node000010" class="node">
<title>Node10</title>
<g id="a_Node000010"><a xlink:href="_log_sink_8h.html" target="_top" xlink:title=" ">
<polygon fill="white" stroke="#666666" points="252.95,-279.62 138.7,-279.62 138.7,-260.38 252.95,-260.38 252.95,-279.62"/>
<text text-anchor="middle" x="195.83" y="-266.12" font-family="Helvetica,sans-Serif" font-size="10.00">Cpl/Logging/LogSink.h</text>
</a>
</g>
</g>
<!-- Node8&#45;&gt;Node10 -->
<g id="edge9_Node000008_Node000010" class="edge">
<title>Node8&#45;&gt;Node10</title>
<g id="a_edge9_Node000008_Node000010"><a xlink:title=" ">
<path fill="none" stroke="#63b8ff" d="M151.79,-318.34C163.3,-305.97 178.36,-289.78 187.56,-279.89"/>
<polygon fill="#63b8ff" stroke="#63b8ff" points="149.45,-315.72 145.2,-325.42 154.58,-320.49 149.45,-315.72"/>
</a>
</g>
</g>
<!-- Node11 -->
<g id="Node000011" class="node">
<title>Node11</title>
<g id="a_Node000011"><a xlink:href="_log_8h.html" target="_top" xlink:title=" ">
<polygon fill="white" stroke="#666666" points="476.08,-30.5 377.58,-30.5 377.58,0 476.08,0 476.08,-30.5"/>
<text text-anchor="start" x="385.58" y="-17" font-family="Helvetica,sans-Serif" font-size="10.00">Cpl/Logging/TShell</text>
<text text-anchor="middle" x="426.83" y="-5.75" font-family="Helvetica,sans-Serif" font-size="10.00">/Log.h</text>
</a>
</g>
</g>
<!-- Node8&#45;&gt;Node11 -->
<g id="edge10_Node000008_Node000011" class="edge">
<title>Node8&#45;&gt;Node11</title>
<g id="a_edge10_Node000008_Node000011"><a xlink:title=" ">
<path fill="none" stroke="#63b8ff" d="M80.64,-322.95C58.87,-315.39 35.4,-303.56 19.83,-285.25 -2.49,-259.02 0.83,-244.57 0.83,-210.12 0.83,-210.12 0.83,-210.12 0.83,-147.25 0.83,-69.29 264.75,-32.9 377.13,-20.93"/>
<polygon fill="#63b8ff" stroke="#63b8ff" points="79.45,-326.24 90.04,-325.96 81.58,-319.58 79.45,-326.24"/>
</a>
</g>
</g>
<!-- Node12&#45;&gt;Node2 -->
<g id="edge12_Node000012_Node000002" class="edge">
<title>Node12&#45;&gt;Node2</title>
<g id="a_edge12_Node000012_Node000002"><a xlink:title=" ">
<path fill="none" stroke="#63b8ff" d="M601.02,-324.14C539.4,-311.61 441.41,-291.67 384.6,-280.11"/>
<polygon fill="#63b8ff" stroke="#63b8ff" points="600.1,-327.53 610.6,-326.09 601.5,-320.67 600.1,-327.53"/>
</a>
</g>
</g>
<!-- Node13 -->
<g id="Node000013" class="node">
<title>Node13</title>
<g id="a_Node000013"><a xlink:href="_crc_chunk_8h.html" target="_top" xlink:title=" ">
<polygon fill="white" stroke="#666666" points="726.2,-279.62 595.45,-279.62 595.45,-260.38 726.2,-260.38 726.2,-279.62"/>
<text text-anchor="middle" x="660.83" y="-266.12" font-family="Helvetica,sans-Serif" font-size="10.00">Cpl/Persistent/CrcChunk.h</text>
</a>
</g>
</g>
<!-- Node12&#45;&gt;Node13 -->
<g id="edge13_Node000012_Node000013" class="edge">
<title>Node12&#45;&gt;Node13</title>
<g id="a_edge13_Node000012_Node000013"><a xlink:title=" ">
<path fill="none" stroke="#63b8ff" d="M658.08,-315.4C658.81,-303.5 659.71,-289.01 660.28,-279.89"/>
<polygon fill="#63b8ff" stroke="#63b8ff" points="654.6,-314.82 657.48,-325.02 661.59,-315.26 654.6,-314.82"/>
</a>
</g>
</g>
<!-- Node12&#45;&gt;Node14 -->
<g id="edge14_Node000012_Node000014" class="edge">
<title>Node12&#45;&gt;Node14</title>
<g id="a_edge14_Node000012_Node000014"><a xlink:title=" ">
<path fill="none" stroke="#63b8ff" d="M695.02,-322.87C733.12,-310.27 790.68,-291.22 824.44,-280.06"/>
<polygon fill="#63b8ff" stroke="#63b8ff" points="694.19,-319.46 685.79,-325.92 696.38,-326.1 694.19,-319.46"/>
</a>
</g>
</g>
<!-- Node16 -->
<g id="Node000016" class="node">
<title>Node16</title>
<g id="a_Node000016"><a xlink:href="_indexed_entry_record_8h.html" target="_top" xlink:title=" ">
<polygon fill="white" stroke="#666666" points="969.83,-163.5 833.83,-163.5 833.83,-133 969.83,-133 969.83,-163.5"/>
<text text-anchor="start" x="841.83" y="-150" font-family="Helvetica,sans-Serif" font-size="10.00">Cpl/Persistent/IndexedEntry</text>
<text text-anchor="middle" x="901.83" y="-138.75" font-family="Helvetica,sans-Serif" font-size="10.00">Record.h</text>
</a>
</g>
</g>
<!-- Node12&#45;&gt;Node16 -->
<g id="edge19_Node000012_Node000016" class="edge">
<title>Node12&#45;&gt;Node16</title>
<g id="a_edge19_Node000012_Node000016"><a xlink:title=" ">
<path fill="none" stroke="#63b8ff" d="M687.35,-321.27C703.18,-312.66 721.86,-300.41 734.83,-285.25 761.93,-253.58 742.69,-228.3 772.83,-199.5 790.21,-182.9 813.69,-171.6 835.86,-163.99"/>
<polygon fill="#63b8ff" stroke="#63b8ff" points="686.06,-318 678.79,-325.71 689.28,-324.21 686.06,-318"/>
</a>
</g>
</g>
<!-- Node18 -->
<g id="Node000018" class="node">
<title>Node18</title>
<g id="a_Node000018"><a xlink:href="_mirrored_chunk_8h.html" target="_top" xlink:title=" ">
<polygon fill="white" stroke="#666666" points="577.33,-279.62 426.33,-279.62 426.33,-260.38 577.33,-260.38 577.33,-279.62"/>
<text text-anchor="middle" x="501.83" y="-266.12" font-family="Helvetica,sans-Serif" font-size="10.00">Cpl/Persistent/MirroredChunk.h</text>
</a>
</g>
</g>
<!-- Node12&#45;&gt;Node18 -->
<g id="edge20_Node000012_Node000018" class="edge">
<title>Node12&#45;&gt;Node18</title>
<g id="a_edge20_Node000012_Node000018"><a xlink:title=" ">
<path fill="none" stroke="#63b8ff" d="M624.5,-322.05C594.24,-309.45 549.86,-290.99 523.6,-280.06"/>
<polygon fill="#63b8ff" stroke="#63b8ff" points="622.98,-325.2 633.55,-325.81 625.66,-318.74 622.98,-325.2"/>
</a>
</g>
</g>
<!-- Node15 -->
<g id="Node000015" class="node">
<title>Node15</title>
<g id="a_Node000015"><a xlink:href="_index_record_8h.html" target="_top" xlink:title=" ">
<polygon fill="white" stroke="#666666" points="923.83,-218.75 781.83,-218.75 781.83,-199.5 923.83,-199.5 923.83,-218.75"/>
<text text-anchor="middle" x="852.83" y="-205.25" font-family="Helvetica,sans-Serif" font-size="10.00">Cpl/Persistent/IndexRecord.h</text>
</a>
</g>
</g>
<!-- Node14&#45;&gt;Node15 -->
<g id="edge15_Node000014_Node000015" class="edge">
<title>Node14&#45;&gt;Node15</title>
<g id="a_edge15_Node000014_Node000015"><a xlink:title=" ">
<path fill="none" stroke="#63b8ff" d="M852.18,-248.57C852.35,-238.54 852.54,-226.96 852.68,-219.15"/>
<polygon fill="#63b8ff" stroke="#63b8ff" points="848.68,-248.49 852.01,-258.54 855.68,-248.61 848.68,-248.49"/>
</a>
</g>
</g>
<!-- Node15&#45;&gt;Node16 -->
<g id="edge16_Node000015_Node000016" class="edge">
<title>Node15&#45;&gt;Node16</title>
<g id="a_edge16_Node000015_Node000016"><a xlink:title=" ">
<path fill="none" stroke="#63b8ff" d="M867.56,-190.43C874.64,-181.92 883.03,-171.84 889.73,-163.78"/>
<polygon fill="#63b8ff" stroke="#63b8ff" points="864.95,-188.09 861.24,-198.02 870.33,-192.57 864.95,-188.09"/>
</a>
</g>
</g>
<!-- Node17 -->
<g id="Node000017" class="node">
<title>Node17</title>
<g id="a_Node000017"><a xlink:href="_indexed_entry_server_8h.html" target="_top" xlink:title=" ">
<polygon fill="white" stroke="#666666" points="969.83,-97 833.83,-97 833.83,-66.5 969.83,-66.5 969.83,-97"/>
<text text-anchor="start" x="841.83" y="-83.5" font-family="Helvetica,sans-Serif" font-size="10.00">Cpl/Persistent/IndexedEntry</text>
<text text-anchor="middle" x="901.83" y="-72.25" font-family="Helvetica,sans-Serif" font-size="10.00">Server.h</text>
</a>
</g>
</g>
<!-- Node16&#45;&gt;Node17 -->
<g id="edge17_Node000016_Node000017" class="edge">
<title>Node16&#45;&gt;Node17</title>
<g id="a_edge17_Node000016_Node000017"><a xlink:title=" ">
<path fill="none" stroke="#63b8ff" d="M901.83,-121.31C901.83,-113.14 901.83,-104.41 901.83,-97.33"/>
<polygon fill="#63b8ff" stroke="#63b8ff" points="898.33,-121.1 901.83,-131.1 905.33,-121.1 898.33,-121.1"/>
</a>
</g>
</g>
<!-- Node17&#45;&gt;Node11 -->
<g id="edge18_Node000017_Node000011" class="edge">
<title>Node17&#45;&gt;Node11</title>
<g id="a_edge18_Node000017_Node000011"><a xlink:title=" ">
<path fill="none" stroke="#63b8ff" d="M822.13,-69.93C723.55,-56.54 558.73,-34.16 476.56,-23"/>
<polygon fill="#63b8ff" stroke="#63b8ff" points="821.64,-73.39 832.02,-71.27 822.58,-66.46 821.64,-73.39"/>
</a>
</g>
</g>
<!-- Node19&#45;&gt;Node16 -->
<g id="edge23_Node000019_Node000016" class="edge">
<title>Node19&#45;&gt;Node16</title>
<g id="a_edge23_Node000019_Node000016"><a xlink:title=" ">
<path fill="none" stroke="#63b8ff" d="M988.12,-310.18C982.07,-281.78 969.77,-235.05 948.83,-199.5 940.82,-185.92 928.58,-172.98 918.59,-163.64"/>
<polygon fill="#63b8ff" stroke="#63b8ff" points="984.62,-310.55 990.04,-319.66 991.48,-309.16 984.62,-310.55"/>
</a>
</g>
</g>
<!-- Node19&#45;&gt;Node20 -->
<g id="edge24_Node000019_Node000020" class="edge">
<title>Node19&#45;&gt;Node20</title>
<g id="a_edge24_Node000019_Node000020"><a xlink:title=" ">
<path fill="none" stroke="#63b8ff" d="M1023.37,-314.32C1036.94,-304.91 1052.58,-294.06 1064.81,-285.58"/>
<polygon fill="#63b8ff" stroke="#63b8ff" points="1021.4,-311.43 1015.18,-320 1025.39,-317.18 1021.4,-311.43"/>
</a>
</g>
</g>
<!-- Node20&#45;&gt;Node17 -->
<g id="edge25_Node000020_Node000017" class="edge">
<title>Node20&#45;&gt;Node17</title>
<g id="a_edge25_Node000020_Node000017"><a xlink:title=" ">
<path fill="none" stroke="#63b8ff" d="M1070.76,-245.38C1051.68,-216.63 1016.69,-167.66 978.83,-133 963.64,-119.1 944.21,-106.45 928.66,-97.32"/>
<polygon fill="#63b8ff" stroke="#63b8ff" points="1067.59,-246.93 1075.99,-253.38 1073.45,-243.09 1067.59,-246.93"/>
</a>
</g>
</g>
<!-- Node21&#45;&gt;Node16 -->
<g id="edge28_Node000021_Node000016" class="edge">
<title>Node21&#45;&gt;Node16</title>
<g id="a_edge28_Node000021_Node000016"><a xlink:title=" ">
<path fill="none" stroke="#63b8ff" d="M896.16,-315.92C909.79,-308.47 922.71,-298.48 930.83,-285.25 950.77,-252.76 943.23,-236.17 932.83,-199.5 929.08,-186.29 920.76,-173.14 913.69,-163.61"/>
<polygon fill="#63b8ff" stroke="#63b8ff" points="894.92,-312.63 887.53,-320.22 898.04,-318.89 894.92,-312.63"/>
</a>
</g>
</g>
</g>
</svg>
