<?xml version="1.0" encoding="UTF-8" standalone="no"?>
<!DOCTYPE svg PUBLIC "-//W3C//DTD SVG 1.1//EN"
 "http://www.w3.org/Graphics/SVG/1.1/DTD/svg11.dtd">
<!-- Generated by graphviz version 2.43.0 (0)
 -->
<!-- Title: Cpl/Persistent/Payload.h Pages: 1 -->
<svg width="1586pt" height="412pt"
 viewBox="0.00 0.00 1585.51 412.00" xmlns="http://www.w3.org/2000/svg" xmlns:xlink="http://www.w3.org/1999/xlink">
<g id="graph0" class="graph" transform="scale(1 1) rotate(0) translate(4 408)">
<title>Cpl/Persistent/Payload.h</title>
<!-- Node1 -->
<g id="Node000001" class="node">
<title>Node1</title>
<g id="a_Node000001"><a xlink:title=" ">
<polygon fill="#999999" stroke="#666666" points="1136,-404 1002,-404 1002,-385 1136,-385 1136,-404"/>
<text text-anchor="middle" x="1069" y="-392" font-family="Helvetica,sans-Serif" font-size="10.00">Cpl/Persistent/Payload.h</text>
</a>
</g>
</g>
<!-- Node2 -->
<g id="Node000002" class="node">
<title>Node2</title>
<g id="a_Node000002"><a xlink:href="_dm_2_persistent_2_record_8h.html" target="_top" xlink:title=" ">
<polygon fill="white" stroke="#666666" points="476,-277.5 326,-277.5 326,-258.5 476,-258.5 476,-277.5"/>
<text text-anchor="middle" x="401" y="-265.5" font-family="Helvetica,sans-Serif" font-size="10.00">Cpl/Dm/Persistent/Record.h</text>
</a>
</g>
</g>
<!-- Node1&#45;&gt;Node2 -->
<g id="edge1_Node000001_Node000002" class="edge">
<title>Node1&#45;&gt;Node2</title>
<g id="a_edge1_Node000001_Node000002"><a xlink:title=" ">
<path fill="none" stroke="#63b8ff" d="M991.71,-390.1C906.87,-385.26 767.04,-374.01 649,-349 563.14,-330.81 464.99,-294.25 422.48,-277.6"/>
<polygon fill="#63b8ff" stroke="#63b8ff" points="991.6,-393.6 1001.77,-390.66 991.98,-386.61 991.6,-393.6"/>
</a>
</g>
</g>
<!-- Node8 -->
<g id="Node000008" class="node">
<title>Node8</title>
<g id="a_Node000008"><a xlink:href="_entry_data___t_8h.html" target="_top" xlink:title=" ">
<polygon fill="white" stroke="#666666" points="1537.5,-343.5 1392.5,-343.5 1392.5,-324.5 1537.5,-324.5 1537.5,-343.5"/>
<text text-anchor="middle" x="1465" y="-331.5" font-family="Helvetica,sans-Serif" font-size="10.00">Cpl/Logging/EntryData_T.h</text>
</a>
</g>
</g>
<!-- Node1&#45;&gt;Node8 -->
<g id="edge7_Node000001_Node000008" class="edge">
<title>Node1&#45;&gt;Node8</title>
<g id="a_edge7_Node000001_Node000008"><a xlink:title=" ">
<path fill="none" stroke="#63b8ff" d="M1136.56,-383.52C1212.78,-372.26 1335.46,-354.14 1407.35,-343.52"/>
<polygon fill="#63b8ff" stroke="#63b8ff" points="1135.96,-380.07 1126.58,-384.99 1136.99,-386.99 1135.96,-380.07"/>
</a>
</g>
</g>
<!-- Node12 -->
<g id="Node000012" class="node">
<title>Node12</title>
<g id="a_Node000012"><a xlink:href="_chunk_8h.html" target="_top" xlink:title=" ">
<polygon fill="white" stroke="#666666" points="785.5,-343.5 658.5,-343.5 658.5,-324.5 785.5,-324.5 785.5,-343.5"/>
<text text-anchor="middle" x="722" y="-331.5" font-family="Helvetica,sans-Serif" font-size="10.00">Cpl/Persistent/Chunk.h</text>
</a>
</g>
</g>
<!-- Node1&#45;&gt;Node12 -->
<g id="edge11_Node000001_Node000012" class="edge">
<title>Node1&#45;&gt;Node12</title>
<g id="a_edge11_Node000001_Node000012"><a xlink:title=" ">
<path fill="none" stroke="#63b8ff" d="M1008.57,-383.31C941.7,-372.04 835.12,-354.07 772.52,-343.52"/>
<polygon fill="#63b8ff" stroke="#63b8ff" points="1008.1,-386.78 1018.54,-384.99 1009.26,-379.88 1008.1,-386.78"/>
</a>
</g>
</g>
<!-- Node15 -->
<g id="Node000015" class="node">
<title>Node15</title>
<g id="a_Node000015"><a xlink:href="_data_record_8h.html" target="_top" xlink:title=" ">
<polygon fill="white" stroke="#666666" points="1040.5,-277.5 887.5,-277.5 887.5,-258.5 1040.5,-258.5 1040.5,-277.5"/>
<text text-anchor="middle" x="964" y="-265.5" font-family="Helvetica,sans-Serif" font-size="10.00">Cpl/Persistent/DataRecord.h</text>
</a>
</g>
</g>
<!-- Node1&#45;&gt;Node15 -->
<g id="edge23_Node000001_Node000015" class="edge">
<title>Node1&#45;&gt;Node15</title>
<g id="a_edge23_Node000001_Node000015"><a xlink:title=" ">
<path fill="none" stroke="#63b8ff" d="M1029.9,-381.18C1013.52,-374.17 995.62,-363.77 984,-349 967.09,-327.51 964.28,-293.56 963.94,-277.7"/>
<polygon fill="#63b8ff" stroke="#63b8ff" points="1028.72,-384.47 1039.3,-384.92 1031.3,-377.97 1028.72,-384.47"/>
</a>
</g>
</g>
<!-- Node20 -->
<g id="Node000020" class="node">
<title>Node20</title>
<g id="a_Node000020"><a xlink:href="_indexed_entry_reader_8h.html" target="_top" xlink:title=" ">
<polygon fill="white" stroke="#666666" points="1144.5,-349 993.5,-349 993.5,-319 1144.5,-319 1144.5,-349"/>
<text text-anchor="start" x="1001.5" y="-337" font-family="Helvetica,sans-Serif" font-size="10.00">Cpl/Persistent/IndexedEntry</text>
<text text-anchor="middle" x="1069" y="-326" font-family="Helvetica,sans-Serif" font-size="10.00">Reader.h</text>
</a>
</g>
</g>
<!-- Node1&#45;&gt;Node20 -->
<g id="edge24_Node000001_Node000020" class="edge">
<title>Node1&#45;&gt;Node20</title>
<g id="a_edge24_Node000001_Node000020"><a xlink:title=" ">
<path fill="none" stroke="#63b8ff" d="M1069,-374.65C1069,-366.36 1069,-356.78 1069,-349.11"/>
<polygon fill="#63b8ff" stroke="#63b8ff" points="1065.5,-374.87 1069,-384.87 1072.5,-374.87 1065.5,-374.87"/>
</a>
</g>
</g>
<!-- Node21 -->
<g id="Node000021" class="node">
<title>Node21</title>
<g id="a_Node000021"><a xlink:href="_indexed_entry_requests_8h.html" target="_top" xlink:title=" ">
<polygon fill="white" stroke="#666666" points="1248.5,-283 1097.5,-283 1097.5,-253 1248.5,-253 1248.5,-283"/>
<text text-anchor="start" x="1105.5" y="-271" font-family="Helvetica,sans-Serif" font-size="10.00">Cpl/Persistent/IndexedEntry</text>
<text text-anchor="middle" x="1173" y="-260" font-family="Helvetica,sans-Serif" font-size="10.00">Requests.h</text>
</a>
</g>
</g>
<!-- Node1&#45;&gt;Node21 -->
<g id="edge28_Node000001_Node000021" class="edge">
<title>Node1&#45;&gt;Node21</title>
<g id="a_edge28_Node000001_Node000021"><a xlink:title=" ">
<path fill="none" stroke="#63b8ff" d="M1107.29,-381.23C1123.57,-374.2 1141.43,-363.77 1153,-349 1168.09,-329.72 1171.95,-300.51 1172.84,-283.23"/>
<polygon fill="#63b8ff" stroke="#63b8ff" points="1105.92,-378.01 1097.95,-384.98 1108.53,-384.5 1105.92,-378.01"/>
</a>
</g>
</g>
<!-- Node22 -->
<g id="Node000022" class="node">
<title>Node22</title>
<g id="a_Node000022"><a xlink:href="_indexed_entry_writer_8h.html" target="_top" xlink:title=" ">
<polygon fill="white" stroke="#666666" points="1352.5,-349 1201.5,-349 1201.5,-319 1352.5,-319 1352.5,-349"/>
<text text-anchor="start" x="1209.5" y="-337" font-family="Helvetica,sans-Serif" font-size="10.00">Cpl/Persistent/IndexedEntry</text>
<text text-anchor="middle" x="1277" y="-326" font-family="Helvetica,sans-Serif" font-size="10.00">Writer.h</text>
</a>
</g>
</g>
<!-- Node1&#45;&gt;Node22 -->
<g id="edge29_Node000001_Node000022" class="edge">
<title>Node1&#45;&gt;Node22</title>
<g id="a_edge29_Node000001_Node000022"><a xlink:title=" ">
<path fill="none" stroke="#63b8ff" d="M1109.18,-382.2C1142.79,-372.75 1190.9,-359.22 1226.99,-349.06"/>
<polygon fill="#63b8ff" stroke="#63b8ff" points="1107.92,-378.92 1099.24,-384.99 1109.82,-385.66 1107.92,-378.92"/>
</a>
</g>
</g>
<!-- Node3 -->
<g id="Node000003" class="node">
<title>Node3</title>
<g id="a_Node000003"><a xlink:href="_metrics_record_8h.html" target="_top" xlink:title=" ">
<polygon fill="white" stroke="#666666" points="299.5,-217 152.5,-217 152.5,-198 299.5,-198 299.5,-217"/>
<text text-anchor="middle" x="226" y="-205" font-family="Helvetica,sans-Serif" font-size="10.00">Ajax/Main/MetricsRecord.h</text>
</a>
</g>
</g>
<!-- Node2&#45;&gt;Node3 -->
<g id="edge2_Node000002_Node000003" class="edge">
<title>Node2&#45;&gt;Node3</title>
<g id="a_edge2_Node000002_Node000003"><a xlink:title=" ">
<path fill="none" stroke="#63b8ff" d="M366.05,-255.32C332.2,-244 281.69,-227.12 251.48,-217.02"/>
<polygon fill="#63b8ff" stroke="#63b8ff" points="364.96,-258.64 375.55,-258.49 367.18,-252 364.96,-258.64"/>
</a>
</g>
</g>
<!-- Node5 -->
<g id="Node000005" class="node">
<title>Node5</title>
<g id="a_Node000005"><a xlink:href="_personality_record_8h.html" target="_top" xlink:title=" ">
<polygon fill="white" stroke="#666666" points="484,-217 318,-217 318,-198 484,-198 484,-217"/>
<text text-anchor="middle" x="401" y="-205" font-family="Helvetica,sans-Serif" font-size="10.00">Ajax/Main/PersonalityRecord.h</text>
</a>
</g>
</g>
<!-- Node2&#45;&gt;Node5 -->
<g id="edge4_Node000002_Node000005" class="edge">
<title>Node2&#45;&gt;Node5</title>
<g id="a_edge4_Node000002_Node000005"><a xlink:title=" ">
<path fill="none" stroke="#63b8ff" d="M401,-248.16C401,-237.74 401,-225.3 401,-217.17"/>
<polygon fill="#63b8ff" stroke="#63b8ff" points="397.5,-248.37 401,-258.37 404.5,-248.37 397.5,-248.37"/>
</a>
</g>
</g>
<!-- Node7 -->
<g id="Node000007" class="node">
<title>Node7</title>
<g id="a_Node000007"><a xlink:href="_user_record_8h.html" target="_top" xlink:title=" ">
<polygon fill="white" stroke="#666666" points="134,-217 0,-217 0,-198 134,-198 134,-217"/>
<text text-anchor="middle" x="67" y="-205" font-family="Helvetica,sans-Serif" font-size="10.00">Ajax/Main/UserRecord.h</text>
</a>
</g>
</g>
<!-- Node2&#45;&gt;Node7 -->
<g id="edge6_Node000002_Node000007" class="edge">
<title>Node2&#45;&gt;Node7</title>
<g id="a_edge6_Node000002_Node000007"><a xlink:title=" ">
<path fill="none" stroke="#63b8ff" d="M342.44,-256.74C278.04,-245.46 175.76,-227.55 115.63,-217.02"/>
<polygon fill="#63b8ff" stroke="#63b8ff" points="341.98,-260.22 352.43,-258.49 343.19,-253.32 341.98,-260.22"/>
</a>
</g>
</g>
<!-- Node4 -->
<g id="Node000004" class="node">
<title>Node4</title>
<g id="a_Node000004"><a xlink:href="_ajax_2_metrics_2_api_8h.html" target="_top" xlink:title=" ">
<polygon fill="white" stroke="#666666" points="278.5,-156.5 173.5,-156.5 173.5,-137.5 278.5,-137.5 278.5,-156.5"/>
<text text-anchor="middle" x="226" y="-144.5" font-family="Helvetica,sans-Serif" font-size="10.00">Ajax/Metrics/Api.h</text>
</a>
</g>
</g>
<!-- Node3&#45;&gt;Node4 -->
<g id="edge3_Node000003_Node000004" class="edge">
<title>Node3&#45;&gt;Node4</title>
<g id="a_edge3_Node000003_Node000004"><a xlink:title=" ">
<path fill="none" stroke="#63b8ff" d="M226,-187.66C226,-177.24 226,-164.8 226,-156.67"/>
<polygon fill="#63b8ff" stroke="#63b8ff" points="222.5,-187.87 226,-197.87 229.5,-187.87 222.5,-187.87"/>
</a>
</g>
</g>
<!-- Node6 -->
<g id="Node000006" class="node">
<title>Node6</title>
<g id="a_Node000006"><a xlink:href="_provision_8h.html" target="_top" xlink:title=" ">
<polygon fill="white" stroke="#666666" points="465,-156.5 337,-156.5 337,-137.5 465,-137.5 465,-156.5"/>
<text text-anchor="middle" x="401" y="-144.5" font-family="Helvetica,sans-Serif" font-size="10.00">Ajax/TShell/Provision.h</text>
</a>
</g>
</g>
<!-- Node5&#45;&gt;Node6 -->
<g id="edge5_Node000005_Node000006" class="edge">
<title>Node5&#45;&gt;Node6</title>
<g id="a_edge5_Node000005_Node000006"><a xlink:title=" ">
<path fill="none" stroke="#63b8ff" d="M401,-187.66C401,-177.24 401,-164.8 401,-156.67"/>
<polygon fill="#63b8ff" stroke="#63b8ff" points="397.5,-187.87 401,-197.87 404.5,-187.87 397.5,-187.87"/>
</a>
</g>
</g>
<!-- Node9 -->
<g id="Node000009" class="node">
<title>Node9</title>
<g id="a_Node000009"><a xlink:href="_cpl_2_logging_2_api_8h.html" target="_top" xlink:title=" ">
<polygon fill="white" stroke="#666666" points="1406.5,-277.5 1305.5,-277.5 1305.5,-258.5 1406.5,-258.5 1406.5,-277.5"/>
<text text-anchor="middle" x="1356" y="-265.5" font-family="Helvetica,sans-Serif" font-size="10.00">Cpl/Logging/Api.h</text>
</a>
</g>
</g>
<!-- Node8&#45;&gt;Node9 -->
<g id="edge8_Node000008_Node000009" class="edge">
<title>Node8&#45;&gt;Node9</title>
<g id="a_edge8_Node000008_Node000009"><a xlink:title=" ">
<path fill="none" stroke="#63b8ff" d="M1441.48,-319.19C1420.03,-306.59 1388.99,-288.37 1370.82,-277.7"/>
<polygon fill="#63b8ff" stroke="#63b8ff" points="1439.9,-322.32 1450.3,-324.37 1443.45,-316.29 1439.9,-322.32"/>
</a>
</g>
</g>
<!-- Node10 -->
<g id="Node000010" class="node">
<title>Node10</title>
<g id="a_Node000010"><a xlink:href="_log_sink_8h.html" target="_top" xlink:title=" ">
<polygon fill="white" stroke="#666666" points="1549,-277.5 1425,-277.5 1425,-258.5 1549,-258.5 1549,-277.5"/>
<text text-anchor="middle" x="1487" y="-265.5" font-family="Helvetica,sans-Serif" font-size="10.00">Cpl/Logging/LogSink.h</text>
</a>
</g>
</g>
<!-- Node8&#45;&gt;Node10 -->
<g id="edge9_Node000008_Node000010" class="edge">
<title>Node8&#45;&gt;Node10</title>
<g id="a_edge9_Node000008_Node000010"><a xlink:title=" ">
<path fill="none" stroke="#63b8ff" d="M1471.25,-314.82C1475.4,-302.74 1480.67,-287.41 1483.94,-277.91"/>
<polygon fill="#63b8ff" stroke="#63b8ff" points="1467.91,-313.77 1467.97,-324.37 1474.53,-316.05 1467.91,-313.77"/>
</a>
</g>
</g>
<!-- Node11 -->
<g id="Node000011" class="node">
<title>Node11</title>
<g id="a_Node000011"><a xlink:href="_log_8h.html" target="_top" xlink:title=" ">
<polygon fill="white" stroke="#666666" points="1428.5,-30 1321.5,-30 1321.5,0 1428.5,0 1428.5,-30"/>
<text text-anchor="start" x="1329.5" y="-18" font-family="Helvetica,sans-Serif" font-size="10.00">Cpl/Logging/TShell</text>
<text text-anchor="middle" x="1375" y="-7" font-family="Helvetica,sans-Serif" font-size="10.00">/Log.h</text>
</a>
</g>
</g>
<!-- Node8&#45;&gt;Node11 -->
<g id="edge10_Node000008_Node000011" class="edge">
<title>Node8&#45;&gt;Node11</title>
<g id="a_edge10_Node000008_Node000011"><a xlink:title=" ">
<path fill="none" stroke="#63b8ff" d="M1503.29,-320.79C1522.34,-312.87 1544.19,-300.67 1558,-283 1579.05,-256.08 1577,-242.67 1577,-208.5 1577,-208.5 1577,-208.5 1577,-146 1577,-75.31 1488.45,-41.24 1428.6,-26.28"/>
<polygon fill="#63b8ff" stroke="#63b8ff" points="1501.97,-317.55 1493.93,-324.45 1504.51,-324.07 1501.97,-317.55"/>
</a>
</g>
</g>
<!-- Node12&#45;&gt;Node2 -->
<g id="edge12_Node000012_Node000002" class="edge">
<title>Node12&#45;&gt;Node2</title>
<g id="a_edge12_Node000012_Node000002"><a xlink:title=" ">
<path fill="none" stroke="#63b8ff" d="M668.9,-322.41C605.82,-309.84 501.83,-289.1 443.7,-277.51"/>
<polygon fill="#63b8ff" stroke="#63b8ff" points="668.55,-325.91 679.04,-324.44 669.92,-319.05 668.55,-325.91"/>
</a>
</g>
</g>
<!-- Node13 -->
<g id="Node000013" class="node">
<title>Node13</title>
<g id="a_Node000013"><a xlink:href="_crc_chunk_8h.html" target="_top" xlink:title=" ">
<polygon fill="white" stroke="#666666" points="869.5,-277.5 726.5,-277.5 726.5,-258.5 869.5,-258.5 869.5,-277.5"/>
<text text-anchor="middle" x="798" y="-265.5" font-family="Helvetica,sans-Serif" font-size="10.00">Cpl/Persistent/CrcChunk.h</text>
</a>
</g>
</g>
<!-- Node12&#45;&gt;Node13 -->
<g id="edge13_Node000012_Node000013" class="edge">
<title>Node12&#45;&gt;Node13</title>
<g id="a_edge13_Node000012_Node000013"><a xlink:title=" ">
<path fill="none" stroke="#63b8ff" d="M740.19,-317.68C754.94,-305.26 775.22,-288.18 787.43,-277.91"/>
<polygon fill="#63b8ff" stroke="#63b8ff" points="737.64,-315.25 732.25,-324.37 742.15,-320.6 737.64,-315.25"/>
</a>
</g>
</g>
<!-- Node12&#45;&gt;Node15 -->
<g id="edge15_Node000012_Node000015" class="edge">
<title>Node12&#45;&gt;Node15</title>
<g id="a_edge15_Node000012_Node000015"><a xlink:title=" ">
<path fill="none" stroke="#63b8ff" d="M764.11,-321.86C811.84,-309.24 888.62,-288.94 931.81,-277.51"/>
<polygon fill="#63b8ff" stroke="#63b8ff" points="763.16,-318.49 754.39,-324.44 764.95,-325.26 763.16,-318.49"/>
</a>
</g>
</g>
<!-- Node17 -->
<g id="Node000017" class="node">
<title>Node17</title>
<g id="a_Node000017"><a xlink:href="_indexed_entry_record_8h.html" target="_top" xlink:title=" ">
<polygon fill="white" stroke="#666666" points="1144.5,-162 993.5,-162 993.5,-132 1144.5,-132 1144.5,-162"/>
<text text-anchor="start" x="1001.5" y="-150" font-family="Helvetica,sans-Serif" font-size="10.00">Cpl/Persistent/IndexedEntry</text>
<text text-anchor="middle" x="1069" y="-139" font-family="Helvetica,sans-Serif" font-size="10.00">Record.h</text>
</a>
</g>
</g>
<!-- Node12&#45;&gt;Node17 -->
<g id="edge20_Node000012_Node000017" class="edge">
<title>Node12&#45;&gt;Node17</title>
<g id="a_edge20_Node000012_Node000017"><a xlink:title=" ">
<path fill="none" stroke="#63b8ff" d="M648.49,-323.13C601.07,-315.09 545.62,-301.94 531,-283 522.85,-272.45 524.24,-264.49 531,-253 577.3,-174.31 856.43,-154.59 993.36,-149.65"/>
<polygon fill="#63b8ff" stroke="#63b8ff" points="648.03,-326.6 658.46,-324.77 649.16,-319.7 648.03,-326.6"/>
</a>
</g>
</g>
<!-- Node19 -->
<g id="Node000019" class="node">
<title>Node19</title>
<g id="a_Node000019"><a xlink:href="_mirrored_chunk_8h.html" target="_top" xlink:title=" ">
<polygon fill="white" stroke="#666666" points="708,-277.5 540,-277.5 540,-258.5 708,-258.5 708,-277.5"/>
<text text-anchor="middle" x="624" y="-265.5" font-family="Helvetica,sans-Serif" font-size="10.00">Cpl/Persistent/MirroredChunk.h</text>
</a>
</g>
</g>
<!-- Node12&#45;&gt;Node19 -->
<g id="edge21_Node000012_Node000019" class="edge">
<title>Node12&#45;&gt;Node19</title>
<g id="a_edge21_Node000012_Node000019"><a xlink:title=" ">
<path fill="none" stroke="#63b8ff" d="M700.33,-318.85C681.07,-306.27 653.52,-288.28 637.32,-277.7"/>
<polygon fill="#63b8ff" stroke="#63b8ff" points="698.5,-321.83 708.78,-324.37 702.32,-315.97 698.5,-321.83"/>
</a>
</g>
</g>
<!-- Node14 -->
<g id="Node000014" class="node">
<title>Node14</title>
<g id="a_Node000014"><a xlink:href="_storage_map___8h.html" target="_top" xlink:title="This file contains the magic values for how data is laid out in the off&#45;board EEPROM.">
<polygon fill="white" stroke="#666666" points="780.5,-217 639.5,-217 639.5,-198 780.5,-198 780.5,-217"/>
<text text-anchor="middle" x="710" y="-205" font-family="Helvetica,sans-Serif" font-size="10.00">Ajax/Main/StorageMap_.h</text>
</a>
</g>
</g>
<!-- Node13&#45;&gt;Node14 -->
<g id="edge14_Node000013_Node000014" class="edge">
<title>Node13&#45;&gt;Node14</title>
<g id="a_edge14_Node000013_Node000014"><a xlink:title=" ">
<path fill="none" stroke="#63b8ff" d="M776.43,-252.66C759.71,-241.55 737.1,-226.51 723.04,-217.17"/>
<polygon fill="#63b8ff" stroke="#63b8ff" points="774.75,-255.75 785.02,-258.37 778.63,-249.92 774.75,-255.75"/>
</a>
</g>
</g>
<!-- Node16 -->
<g id="Node000016" class="node">
<title>Node16</title>
<g id="a_Node000016"><a xlink:href="_index_record_8h.html" target="_top" xlink:title=" ">
<polygon fill="white" stroke="#666666" points="1040.5,-217 883.5,-217 883.5,-198 1040.5,-198 1040.5,-217"/>
<text text-anchor="middle" x="962" y="-205" font-family="Helvetica,sans-Serif" font-size="10.00">Cpl/Persistent/IndexRecord.h</text>
</a>
</g>
</g>
<!-- Node15&#45;&gt;Node16 -->
<g id="edge16_Node000015_Node000016" class="edge">
<title>Node15&#45;&gt;Node16</title>
<g id="a_edge16_Node000015_Node000016"><a xlink:title=" ">
<path fill="none" stroke="#63b8ff" d="M963.36,-248.16C963,-237.74 962.57,-225.3 962.3,-217.17"/>
<polygon fill="#63b8ff" stroke="#63b8ff" points="959.87,-248.49 963.7,-258.37 966.86,-248.25 959.87,-248.49"/>
</a>
</g>
</g>
<!-- Node16&#45;&gt;Node17 -->
<g id="edge17_Node000016_Node000017" class="edge">
<title>Node16&#45;&gt;Node17</title>
<g id="a_edge17_Node000016_Node000017"><a xlink:title=" ">
<path fill="none" stroke="#63b8ff" d="M987.03,-192.81C1003.92,-183.58 1026.14,-171.43 1043.18,-162.11"/>
<polygon fill="#63b8ff" stroke="#63b8ff" points="984.88,-190 977.79,-197.87 988.24,-196.14 984.88,-190"/>
</a>
</g>
</g>
<!-- Node18 -->
<g id="Node000018" class="node">
<title>Node18</title>
<g id="a_Node000018"><a xlink:href="_indexed_entry_server_8h.html" target="_top" xlink:title=" ">
<polygon fill="white" stroke="#666666" points="1248.5,-96 1097.5,-96 1097.5,-66 1248.5,-66 1248.5,-96"/>
<text text-anchor="start" x="1105.5" y="-84" font-family="Helvetica,sans-Serif" font-size="10.00">Cpl/Persistent/IndexedEntry</text>
<text text-anchor="middle" x="1173" y="-73" font-family="Helvetica,sans-Serif" font-size="10.00">Server.h</text>
</a>
</g>
</g>
<!-- Node17&#45;&gt;Node18 -->
<g id="edge18_Node000017_Node000018" class="edge">
<title>Node17&#45;&gt;Node18</title>
<g id="a_edge18_Node000017_Node000018"><a xlink:title=" ">
<path fill="none" stroke="#63b8ff" d="M1100.37,-126.69C1116.43,-116.82 1135.61,-105.01 1150.23,-96.01"/>
<polygon fill="#63b8ff" stroke="#63b8ff" points="1098.51,-123.73 1091.82,-131.95 1102.17,-129.69 1098.51,-123.73"/>
</a>
</g>
</g>
<!-- Node18&#45;&gt;Node11 -->
<g id="edge19_Node000018_Node000011" class="edge">
<title>Node18&#45;&gt;Node11</title>
<g id="a_edge19_Node000018_Node000011"><a xlink:title=" ">
<path fill="none" stroke="#63b8ff" d="M1227.11,-62.86C1259.55,-52.58 1300.27,-39.68 1330.77,-30.01"/>
<polygon fill="#63b8ff" stroke="#63b8ff" points="1225.81,-59.6 1217.33,-65.95 1227.92,-66.27 1225.81,-59.6"/>
</a>
</g>
</g>
<!-- Node19&#45;&gt;Node14 -->
<g id="edge22_Node000019_Node000014" class="edge">
<title>Node19&#45;&gt;Node14</title>
<g id="a_edge22_Node000019_Node000014"><a xlink:title=" ">
<path fill="none" stroke="#63b8ff" d="M645.08,-252.66C661.42,-241.55 683.52,-226.51 697.26,-217.17"/>
<polygon fill="#63b8ff" stroke="#63b8ff" points="642.99,-249.85 636.69,-258.37 646.93,-255.64 642.99,-249.85"/>
</a>
</g>
</g>
<!-- Node20&#45;&gt;Node17 -->
<g id="edge25_Node000020_Node000017" class="edge">
<title>Node20&#45;&gt;Node17</title>
<g id="a_edge25_Node000020_Node000017"><a xlink:title=" ">
<path fill="none" stroke="#63b8ff" d="M1069,-308.77C1069,-269.55 1069,-193.36 1069,-162"/>
<polygon fill="#63b8ff" stroke="#63b8ff" points="1065.5,-308.79 1069,-318.79 1072.5,-308.79 1065.5,-308.79"/>
</a>
</g>
</g>
<!-- Node20&#45;&gt;Node21 -->
<g id="edge26_Node000020_Node000021" class="edge">
<title>Node20&#45;&gt;Node21</title>
<g id="a_edge26_Node000020_Node000021"><a xlink:title=" ">
<path fill="none" stroke="#63b8ff" d="M1100.37,-313.69C1116.43,-303.82 1135.61,-292.01 1150.23,-283.01"/>
<polygon fill="#63b8ff" stroke="#63b8ff" points="1098.51,-310.73 1091.82,-318.95 1102.17,-316.69 1098.51,-310.73"/>
</a>
</g>
</g>
<!-- Node21&#45;&gt;Node18 -->
<g id="edge27_Node000021_Node000018" class="edge">
<title>Node21&#45;&gt;Node18</title>
<g id="a_edge27_Node000021_Node000018"><a xlink:title=" ">
<path fill="none" stroke="#63b8ff" d="M1173,-242.77C1173,-203.55 1173,-127.36 1173,-96"/>
<polygon fill="#63b8ff" stroke="#63b8ff" points="1169.5,-242.79 1173,-252.79 1176.5,-242.79 1169.5,-242.79"/>
</a>
</g>
</g>
<!-- Node22&#45;&gt;Node17 -->
<g id="edge30_Node000022_Node000017" class="edge">
<title>Node22&#45;&gt;Node17</title>
<g id="a_edge30_Node000022_Node000017"><a xlink:title=" ">
<path fill="none" stroke="#63b8ff" d="M1275.92,-308.51C1274.04,-291.44 1269.2,-268.95 1257,-253 1221.33,-206.39 1158.7,-177.46 1115.6,-162.05"/>
<polygon fill="#63b8ff" stroke="#63b8ff" points="1272.46,-309.15 1276.77,-318.83 1279.43,-308.57 1272.46,-309.15"/>
</a>
</g>
</g>
</g>
</svg>
