<?xml version="1.0" encoding="UTF-8" standalone="no"?>
<!DOCTYPE svg PUBLIC "-//W3C//DTD SVG 1.1//EN"
 "http://www.w3.org/Graphics/SVG/1.1/DTD/svg11.dtd">
<!-- Generated by graphviz version 9.0.0 (20230911.1827)
 -->
<!-- Title: Driver/TPipe/Pipe.h Pages: 1 -->
<svg width="863pt" height="425pt"
 viewBox="0.00 0.00 863.00 425.25" xmlns="http://www.w3.org/2000/svg" xmlns:xlink="http://www.w3.org/1999/xlink">
<g id="graph0" class="graph" transform="scale(1 1) rotate(0) translate(4 421.25)">
<title>Driver/TPipe/Pipe.h</title>
<!-- Node1 -->
<g id="Node000001" class="node">
<title>Node1</title>
<g id="a_Node000001"><a xlink:title=" ">
<polygon fill="#999999" stroke="#666666" points="431,-417.25 331,-417.25 331,-398 431,-398 431,-417.25"/>
<text text-anchor="middle" x="381" y="-403.75" font-family="Helvetica,sans-Serif" font-size="10.00">Driver/TPipe/Pipe.h</text>
</a>
</g>
</g>
<!-- Node2 -->
<g id="Node000002" class="node">
<title>Node2</title>
<g id="a_Node000002"><a xlink:href="_map_8h.html" target="_top" xlink:title=" ">
<polygon fill="white" stroke="#666666" points="131.88,-356.38 28.12,-356.38 28.12,-337.12 131.88,-337.12 131.88,-356.38"/>
<text text-anchor="middle" x="80" y="-342.88" font-family="Helvetica,sans-Serif" font-size="10.00">Cpl/Container/Map.h</text>
</a>
</g>
</g>
<!-- Node1&#45;&gt;Node2 -->
<g id="edge1_Node000001_Node000002" class="edge">
<title>Node1&#45;&gt;Node2</title>
<g id="a_edge1_Node000001_Node000002"><a xlink:title=" ">
<path fill="none" stroke="#63b8ff" d="M330.76,-397.97C282.12,-389.43 206.33,-375.7 141,-362 136.99,-361.16 132.83,-360.26 128.66,-359.33"/>
<polygon fill="#63b8ff" stroke="#63b8ff" points="129.69,-355.97 119.16,-357.17 128.14,-362.8 129.69,-355.97"/>
</a>
</g>
</g>
<!-- Node14 -->
<g id="Node000014" class="node">
<title>Node14</title>
<g id="a_Node000014"><a xlink:href="_tx_8h.html" target="_top" xlink:title=" ">
<polygon fill="white" stroke="#666666" points="307.5,-295.5 216.5,-295.5 216.5,-276.25 307.5,-276.25 307.5,-295.5"/>
<text text-anchor="middle" x="262" y="-282" font-family="Helvetica,sans-Serif" font-size="10.00">Driver/TPipe/Tx.h</text>
</a>
</g>
</g>
<!-- Node1&#45;&gt;Node14 -->
<g id="edge14_Node000001_Node000014" class="edge">
<title>Node1&#45;&gt;Node14</title>
<g id="a_edge14_Node000001_Node000014"><a xlink:title=" ">
<path fill="none" stroke="#63b8ff" d="M372.06,-397.62C352.33,-377.77 304.8,-329.95 279.13,-304.12"/>
<polygon fill="#63b8ff" stroke="#63b8ff" points="281.65,-301.68 272.12,-297.05 276.68,-306.61 281.65,-301.68"/>
</a>
</g>
</g>
<!-- Node18 -->
<g id="Node000018" class="node">
<title>Node18</title>
<g id="a_Node000018"><a xlink:href="_rx_frame_handler_api_8h.html" target="_top" xlink:title=" ">
<polygon fill="white" stroke="#666666" points="295.88,-362 150.12,-362 150.12,-331.5 295.88,-331.5 295.88,-362"/>
<text text-anchor="start" x="158.12" y="-348.5" font-family="Helvetica,sans-Serif" font-size="10.00">Driver/TPipe/RxFrameHandler</text>
<text text-anchor="middle" x="223" y="-337.25" font-family="Helvetica,sans-Serif" font-size="10.00">Api.h</text>
</a>
</g>
</g>
<!-- Node1&#45;&gt;Node18 -->
<g id="edge21_Node000001_Node000018" class="edge">
<title>Node1&#45;&gt;Node18</title>
<g id="a_edge21_Node000001_Node000018"><a xlink:title=" ">
<path fill="none" stroke="#63b8ff" d="M356.66,-397.55C334.5,-389.3 301.08,-376.84 273.2,-366.46"/>
<polygon fill="#63b8ff" stroke="#63b8ff" points="274.45,-363.19 263.85,-362.97 272,-369.74 274.45,-363.19"/>
</a>
</g>
</g>
<!-- Node19 -->
<g id="Node000019" class="node">
<title>Node19</title>
<g id="a_Node000019"><a xlink:href="_stream_decoder_8h.html" target="_top" xlink:title=" ">
<polygon fill="white" stroke="#666666" points="588.38,-356.38 427.62,-356.38 427.62,-337.12 588.38,-337.12 588.38,-356.38"/>
<text text-anchor="middle" x="508" y="-342.88" font-family="Helvetica,sans-Serif" font-size="10.00">Cpl/Text/Frame/StreamDecoder.h</text>
</a>
</g>
</g>
<!-- Node1&#45;&gt;Node19 -->
<g id="edge23_Node000001_Node000019" class="edge">
<title>Node1&#45;&gt;Node19</title>
<g id="a_edge23_Node000001_Node000019"><a xlink:title=" ">
<path fill="none" stroke="#63b8ff" d="M400.57,-397.55C421.32,-387.93 454.36,-372.62 478.33,-361.51"/>
<polygon fill="#63b8ff" stroke="#63b8ff" points="479.65,-364.75 487.25,-357.37 476.7,-358.4 479.65,-364.75"/>
</a>
</g>
</g>
<!-- Node23 -->
<g id="Node000023" class="node">
<title>Node23</title>
<g id="a_Node000023"><a xlink:href="_input_8h.html" target="_top" xlink:title=" ">
<polygon fill="white" stroke="#666666" points="398.88,-295.5 325.12,-295.5 325.12,-276.25 398.88,-276.25 398.88,-295.5"/>
<text text-anchor="middle" x="362" y="-282" font-family="Helvetica,sans-Serif" font-size="10.00">Cpl/Io/Input.h</text>
</a>
</g>
</g>
<!-- Node1&#45;&gt;Node23 -->
<g id="edge43_Node000001_Node000023" class="edge">
<title>Node1&#45;&gt;Node23</title>
<g id="a_edge43_Node000001_Node000023"><a xlink:title=" ">
<path fill="none" stroke="#63b8ff" d="M379.57,-397.62C376.55,-378.55 369.42,-333.66 365.23,-307.26"/>
<polygon fill="#63b8ff" stroke="#63b8ff" points="368.71,-306.8 363.68,-297.48 361.79,-307.9 368.71,-306.8"/>
</a>
</g>
</g>
<!-- Node26 -->
<g id="Node000026" class="node">
<title>Node26</title>
<g id="a_Node000026"><a xlink:href="_stream_encoder_8h.html" target="_top" xlink:title=" ">
<polygon fill="white" stroke="#666666" points="766,-356.38 606,-356.38 606,-337.12 766,-337.12 766,-356.38"/>
<text text-anchor="middle" x="686" y="-342.88" font-family="Helvetica,sans-Serif" font-size="10.00">Cpl/Text/Frame/StreamEncoder.h</text>
</a>
</g>
</g>
<!-- Node1&#45;&gt;Node26 -->
<g id="edge32_Node000001_Node000026" class="edge">
<title>Node1&#45;&gt;Node26</title>
<g id="a_edge32_Node000001_Node000026"><a xlink:title=" ">
<path fill="none" stroke="#63b8ff" d="M427.99,-397.55C481.72,-387.18 569.73,-370.19 627.77,-358.99"/>
<polygon fill="#63b8ff" stroke="#63b8ff" points="628.32,-362.45 637.47,-357.12 626.99,-355.58 628.32,-362.45"/>
</a>
</g>
</g>
<!-- Node29 -->
<g id="Node000029" class="node">
<title>Node29</title>
<g id="a_Node000029"><a xlink:href="_cpl_2_io_2_output_8h.html" target="_top" xlink:title=" ">
<polygon fill="white" stroke="#666666" points="498.62,-295.5 417.38,-295.5 417.38,-276.25 498.62,-276.25 498.62,-295.5"/>
<text text-anchor="middle" x="458" y="-282" font-family="Helvetica,sans-Serif" font-size="10.00">Cpl/Io/Output.h</text>
</a>
</g>
</g>
<!-- Node1&#45;&gt;Node29 -->
<g id="edge44_Node000001_Node000029" class="edge">
<title>Node1&#45;&gt;Node29</title>
<g id="a_edge44_Node000001_Node000029"><a xlink:title=" ">
<path fill="none" stroke="#63b8ff" d="M384.56,-397.9C390.63,-383.48 403.8,-354.04 419,-331.5 425.45,-321.93 433.73,-312.19 441,-304.25"/>
<polygon fill="#63b8ff" stroke="#63b8ff" points="443.54,-306.66 447.86,-296.99 438.45,-301.86 443.54,-306.66"/>
</a>
</g>
</g>
<!-- Node30 -->
<g id="Node000030" class="node">
<title>Node30</title>
<g id="a_Node000030"><a xlink:href="_mutex_8h.html" target="_top" xlink:title=" ">
<polygon fill="white" stroke="#666666" points="768.5,-129.75 665.5,-129.75 665.5,-110.5 768.5,-110.5 768.5,-129.75"/>
<text text-anchor="middle" x="717" y="-116.25" font-family="Helvetica,sans-Serif" font-size="10.00">Cpl/System/Mutex.h</text>
</a>
</g>
</g>
<!-- Node1&#45;&gt;Node30 -->
<g id="edge41_Node000001_Node000030" class="edge">
<title>Node1&#45;&gt;Node30</title>
<g id="a_edge41_Node000001_Node000030"><a xlink:title=" ">
<path fill="none" stroke="#63b8ff" d="M431.32,-404.86C523.39,-400.98 715.02,-389.75 775,-362 819.27,-341.52 855,-335.65 855,-286.88 855,-286.88 855,-286.88 855,-229.62 855,-180.07 799.33,-149.7 758.71,-134.13"/>
<polygon fill="#63b8ff" stroke="#63b8ff" points="759.99,-130.87 749.39,-130.73 757.59,-137.44 759.99,-130.87"/>
</a>
</g>
</g>
<!-- Node3 -->
<g id="Node000003" class="node">
<title>Node3</title>
<g id="a_Node000003"><a xlink:href="_avl_tree___8h.html" target="_top" xlink:title=" ">
<polygon fill="white" stroke="#666666" points="142,-295.5 18,-295.5 18,-276.25 142,-276.25 142,-295.5"/>
<text text-anchor="middle" x="80" y="-282" font-family="Helvetica,sans-Serif" font-size="10.00">Cpl/Container/AvlTree_.h</text>
</a>
</g>
</g>
<!-- Node2&#45;&gt;Node3 -->
<g id="edge2_Node000002_Node000003" class="edge">
<title>Node2&#45;&gt;Node3</title>
<g id="a_edge2_Node000002_Node000003"><a xlink:title=" ">
<path fill="none" stroke="#63b8ff" d="M80,-336.81C80,-329.03 80,-317.45 80,-307.41"/>
<polygon fill="#63b8ff" stroke="#63b8ff" points="83.5,-307.41 80,-297.41 76.5,-307.41 83.5,-307.41"/>
</a>
</g>
</g>
<!-- Node4 -->
<g id="Node000004" class="node">
<title>Node4</title>
<g id="a_Node000004"><a xlink:title=" ">
<polygon fill="#e0e0e0" stroke="#999999" points="127,-19.25 45,-19.25 45,0 127,0 127,-19.25"/>
<text text-anchor="middle" x="86" y="-5.75" font-family="Helvetica,sans-Serif" font-size="10.00">colony_config.h</text>
</a>
</g>
</g>
<!-- Node3&#45;&gt;Node4 -->
<g id="edge3_Node000003_Node000004" class="edge">
<title>Node3&#45;&gt;Node4</title>
<g id="a_edge3_Node000003_Node000004"><a xlink:title=" ">
<path fill="none" stroke="#63b8ff" d="M61.72,-275.75C48.08,-268.05 29.96,-255.8 19,-240.25 1.93,-216.04 0,-205.99 0,-176.38 0,-176.38 0,-176.38 0,-119.12 0,-78.84 36.86,-44.8 62.31,-26.1"/>
<polygon fill="#63b8ff" stroke="#63b8ff" points="64.01,-29.18 70.17,-20.57 59.98,-23.46 64.01,-29.18"/>
</a>
</g>
</g>
<!-- Node5 -->
<g id="Node000005" class="node">
<title>Node5</title>
<g id="a_Node000005"><a xlink:href="_map_item_8h.html" target="_top" xlink:title=" ">
<polygon fill="white" stroke="#666666" points="151.62,-240.25 28.38,-240.25 28.38,-221 151.62,-221 151.62,-240.25"/>
<text text-anchor="middle" x="90" y="-226.75" font-family="Helvetica,sans-Serif" font-size="10.00">Cpl/Container/MapItem.h</text>
</a>
</g>
</g>
<!-- Node3&#45;&gt;Node5 -->
<g id="edge4_Node000003_Node000005" class="edge">
<title>Node3&#45;&gt;Node5</title>
<g id="a_edge4_Node000003_Node000005"><a xlink:title=" ">
<path fill="none" stroke="#63b8ff" d="M81.65,-276.08C82.89,-269.49 84.63,-260.21 86.21,-251.82"/>
<polygon fill="#63b8ff" stroke="#63b8ff" points="89.63,-252.57 88.03,-242.1 82.75,-251.28 89.63,-252.57"/>
</a>
</g>
</g>
<!-- Node6 -->
<g id="Node000006" class="node">
<title>Node6</title>
<g id="a_Node000006"><a xlink:href="_dict_item_8h.html" target="_top" xlink:title=" ">
<polygon fill="white" stroke="#666666" points="238.88,-185 117.12,-185 117.12,-165.75 238.88,-165.75 238.88,-185"/>
<text text-anchor="middle" x="178" y="-171.5" font-family="Helvetica,sans-Serif" font-size="10.00">Cpl/Container/DictItem.h</text>
</a>
</g>
</g>
<!-- Node5&#45;&gt;Node6 -->
<g id="edge5_Node000005_Node000006" class="edge">
<title>Node5&#45;&gt;Node6</title>
<g id="a_edge5_Node000005_Node000006"><a xlink:title=" ">
<path fill="none" stroke="#63b8ff" d="M104.93,-220.59C118.2,-212.56 137.87,-200.66 153.45,-191.23"/>
<polygon fill="#63b8ff" stroke="#63b8ff" points="154.96,-194.41 161.7,-186.24 151.34,-188.42 154.96,-194.41"/>
</a>
</g>
</g>
<!-- Node7 -->
<g id="Node000007" class="node">
<title>Node7</title>
<g id="a_Node000007"><a xlink:href="_item_8h.html" target="_top" xlink:title=" ">
<polygon fill="white" stroke="#666666" points="509.25,-129.75 404.75,-129.75 404.75,-110.5 509.25,-110.5 509.25,-129.75"/>
<text text-anchor="middle" x="457" y="-116.25" font-family="Helvetica,sans-Serif" font-size="10.00">Cpl/Container/Item.h</text>
</a>
</g>
</g>
<!-- Node6&#45;&gt;Node7 -->
<g id="edge6_Node000006_Node000007" class="edge">
<title>Node6&#45;&gt;Node7</title>
<g id="a_edge6_Node000006_Node000007"><a xlink:title=" ">
<path fill="none" stroke="#63b8ff" d="M225.64,-165.28C273.39,-156.17 346.99,-142.12 398.31,-132.33"/>
<polygon fill="#63b8ff" stroke="#63b8ff" points="398.9,-135.78 408.07,-130.46 397.59,-128.9 398.9,-135.78"/>
</a>
</g>
</g>
<!-- Node8 -->
<g id="Node000008" class="node">
<title>Node8</title>
<g id="a_Node000008"><a xlink:href="_key_8h.html" target="_top" xlink:title=" ">
<polygon fill="white" stroke="#666666" points="267.75,-129.75 166.25,-129.75 166.25,-110.5 267.75,-110.5 267.75,-129.75"/>
<text text-anchor="middle" x="217" y="-116.25" font-family="Helvetica,sans-Serif" font-size="10.00">Cpl/Container/Key.h</text>
</a>
</g>
</g>
<!-- Node6&#45;&gt;Node8 -->
<g id="edge7_Node000006_Node000008" class="edge">
<title>Node6&#45;&gt;Node8</title>
<g id="a_edge7_Node000006_Node000008"><a xlink:title=" ">
<path fill="none" stroke="#63b8ff" d="M184.44,-165.58C189.66,-158.46 197.19,-148.18 203.69,-139.3"/>
<polygon fill="#63b8ff" stroke="#63b8ff" points="206.44,-141.47 209.53,-131.33 200.79,-137.33 206.44,-141.47"/>
</a>
</g>
</g>
<!-- Node9 -->
<g id="Node000009" class="node">
<title>Node9</title>
<g id="a_Node000009"><a xlink:href="_fatal_error_8h.html" target="_top" xlink:title=" ">
<polygon fill="white" stroke="#666666" points="315.38,-74.5 196.62,-74.5 196.62,-55.25 315.38,-55.25 315.38,-74.5"/>
<text text-anchor="middle" x="256" y="-61" font-family="Helvetica,sans-Serif" font-size="10.00">Cpl/System/FatalError.h</text>
</a>
</g>
</g>
<!-- Node8&#45;&gt;Node9 -->
<g id="edge8_Node000008_Node000009" class="edge">
<title>Node8&#45;&gt;Node9</title>
<g id="a_edge8_Node000008_Node000009"><a xlink:title=" ">
<path fill="none" stroke="#63b8ff" d="M223.44,-110.33C228.66,-103.21 236.19,-92.93 242.69,-84.05"/>
<polygon fill="#63b8ff" stroke="#63b8ff" points="245.44,-86.22 248.53,-76.08 239.79,-82.08 245.44,-86.22"/>
</a>
</g>
</g>
<!-- Node11 -->
<g id="Node000011" class="node">
<title>Node11</title>
<g id="a_Node000011"><a xlink:title=" ">
<polygon fill="#e0e0e0" stroke="#999999" points="178.75,-74.5 131.25,-74.5 131.25,-55.25 178.75,-55.25 178.75,-74.5"/>
<text text-anchor="middle" x="155" y="-61" font-family="Helvetica,sans-Serif" font-size="10.00">stdint.h</text>
</a>
</g>
</g>
<!-- Node8&#45;&gt;Node11 -->
<g id="edge11_Node000008_Node000011" class="edge">
<title>Node8&#45;&gt;Node11</title>
<g id="a_edge11_Node000008_Node000011"><a xlink:title=" ">
<path fill="none" stroke="#63b8ff" d="M206.48,-110.09C197.61,-102.47 184.69,-91.37 174.01,-82.2"/>
<polygon fill="#63b8ff" stroke="#63b8ff" points="176.38,-79.62 166.51,-75.76 171.82,-84.93 176.38,-79.62"/>
</a>
</g>
</g>
<!-- Node12 -->
<g id="Node000012" class="node">
<title>Node12</title>
<g id="a_Node000012"><a xlink:title=" ">
<polygon fill="#e0e0e0" stroke="#999999" points="112.75,-74.5 65.25,-74.5 65.25,-55.25 112.75,-55.25 112.75,-74.5"/>
<text text-anchor="middle" x="89" y="-61" font-family="Helvetica,sans-Serif" font-size="10.00">string.h</text>
</a>
</g>
</g>
<!-- Node8&#45;&gt;Node12 -->
<g id="edge12_Node000008_Node000012" class="edge">
<title>Node8&#45;&gt;Node12</title>
<g id="a_edge12_Node000008_Node000012"><a xlink:title=" ">
<path fill="none" stroke="#63b8ff" d="M195.29,-110.09C174.97,-101.64 144.35,-88.9 121.19,-79.27"/>
<polygon fill="#63b8ff" stroke="#63b8ff" points="122.79,-76.14 112.22,-75.53 120.11,-82.61 122.79,-76.14"/>
</a>
</g>
</g>
<!-- Node13 -->
<g id="Node000013" class="node">
<title>Node13</title>
<g id="a_Node000013"><a xlink:title=" ">
<polygon fill="#e0e0e0" stroke="#999999" points="414.62,-74.5 339.38,-74.5 339.38,-55.25 414.62,-55.25 414.62,-74.5"/>
<text text-anchor="middle" x="377" y="-61" font-family="Helvetica,sans-Serif" font-size="10.00">colony_map.h</text>
</a>
</g>
</g>
<!-- Node8&#45;&gt;Node13 -->
<g id="edge13_Node000008_Node000013" class="edge">
<title>Node8&#45;&gt;Node13</title>
<g id="a_edge13_Node000008_Node000013"><a xlink:title=" ">
<path fill="none" stroke="#63b8ff" d="M244.14,-110.09C270.23,-101.41 309.9,-88.21 339.1,-78.49"/>
<polygon fill="#63b8ff" stroke="#63b8ff" points="339.91,-81.91 348.29,-75.43 337.7,-75.27 339.91,-81.91"/>
</a>
</g>
</g>
<!-- Node9&#45;&gt;Node4 -->
<g id="edge10_Node000009_Node000004" class="edge">
<title>Node9&#45;&gt;Node4</title>
<g id="a_edge10_Node000009_Node000004"><a xlink:title=" ">
<path fill="none" stroke="#63b8ff" d="M227.16,-54.84C199.32,-46.12 156.93,-32.84 125.86,-23.11"/>
<polygon fill="#63b8ff" stroke="#63b8ff" points="127.01,-19.8 116.42,-20.15 124.92,-26.48 127.01,-19.8"/>
</a>
</g>
</g>
<!-- Node10 -->
<g id="Node000010" class="node">
<title>Node10</title>
<g id="a_Node000010"><a xlink:title=" ">
<polygon fill="#e0e0e0" stroke="#999999" points="281.25,-19.25 230.75,-19.25 230.75,0 281.25,0 281.25,-19.25"/>
<text text-anchor="middle" x="256" y="-5.75" font-family="Helvetica,sans-Serif" font-size="10.00">stddef.h</text>
</a>
</g>
</g>
<!-- Node9&#45;&gt;Node10 -->
<g id="edge9_Node000009_Node000010" class="edge">
<title>Node9&#45;&gt;Node10</title>
<g id="a_edge9_Node000009_Node000010"><a xlink:title=" ">
<path fill="none" stroke="#63b8ff" d="M256,-55.08C256,-48.57 256,-39.42 256,-31.12"/>
<polygon fill="#63b8ff" stroke="#63b8ff" points="259.5,-31.12 256,-21.12 252.5,-31.12 259.5,-31.12"/>
</a>
</g>
</g>
<!-- Node14&#45;&gt;Node12 -->
<g id="edge20_Node000014_Node000012" class="edge">
<title>Node14&#45;&gt;Node12</title>
<g id="a_edge20_Node000014_Node000012"><a xlink:title=" ">
<path fill="none" stroke="#63b8ff" d="M247.75,-275.85C210.03,-251.93 110.25,-188.46 108,-185 88.35,-154.8 86.53,-111.4 87.45,-86.18"/>
<polygon fill="#63b8ff" stroke="#63b8ff" points="90.94,-86.5 88.01,-76.32 83.95,-86.1 90.94,-86.5"/>
</a>
</g>
</g>
<!-- Node15 -->
<g id="Node000015" class="node">
<title>Node15</title>
<g id="a_Node000015"><a xlink:href="_text_2_string_8h.html" target="_top" xlink:title=" ">
<polygon fill="white" stroke="#666666" points="306,-240.25 218,-240.25 218,-221 306,-221 306,-240.25"/>
<text text-anchor="middle" x="262" y="-226.75" font-family="Helvetica,sans-Serif" font-size="10.00">Cpl/Text/String.h</text>
</a>
</g>
</g>
<!-- Node14&#45;&gt;Node15 -->
<g id="edge15_Node000014_Node000015" class="edge">
<title>Node14&#45;&gt;Node15</title>
<g id="a_edge15_Node000014_Node000015"><a xlink:title=" ">
<path fill="none" stroke="#63b8ff" d="M262,-276.08C262,-269.57 262,-260.42 262,-252.12"/>
<polygon fill="#63b8ff" stroke="#63b8ff" points="265.5,-252.12 262,-242.12 258.5,-252.12 265.5,-252.12"/>
</a>
</g>
</g>
<!-- Node15&#45;&gt;Node8 -->
<g id="edge17_Node000015_Node000008" class="edge">
<title>Node15&#45;&gt;Node8</title>
<g id="a_edge17_Node000015_Node000008"><a xlink:title=" ">
<path fill="none" stroke="#63b8ff" d="M261.14,-220.61C259.69,-207.92 256.08,-184.27 248,-165.75 243.86,-156.27 237.58,-146.72 231.75,-138.9"/>
<polygon fill="#63b8ff" stroke="#63b8ff" points="234.67,-136.95 225.74,-131.25 229.16,-141.27 234.67,-136.95"/>
</a>
</g>
</g>
<!-- Node15&#45;&gt;Node13 -->
<g id="edge16_Node000015_Node000013" class="edge">
<title>Node15&#45;&gt;Node13</title>
<g id="a_edge16_Node000015_Node000013"><a xlink:title=" ">
<path fill="none" stroke="#63b8ff" d="M301.78,-220.61C321.68,-214.05 344.37,-203.04 358,-185 379.92,-155.98 380.84,-111.51 379.17,-85.91"/>
<polygon fill="#63b8ff" stroke="#63b8ff" points="382.68,-85.88 378.32,-76.22 375.71,-86.49 382.68,-85.88"/>
</a>
</g>
</g>
<!-- Node16 -->
<g id="Node000016" class="node">
<title>Node16</title>
<g id="a_Node000016"><a xlink:title=" ">
<polygon fill="#e0e0e0" stroke="#999999" points="542.25,-185 491.75,-185 491.75,-165.75 542.25,-165.75 542.25,-185"/>
<text text-anchor="middle" x="517" y="-171.5" font-family="Helvetica,sans-Serif" font-size="10.00">stdarg.h</text>
</a>
</g>
</g>
<!-- Node15&#45;&gt;Node16 -->
<g id="edge18_Node000015_Node000016" class="edge">
<title>Node15&#45;&gt;Node16</title>
<g id="a_edge18_Node000015_Node000016"><a xlink:title=" ">
<path fill="none" stroke="#63b8ff" d="M305.55,-220.53C354.85,-210.24 434.31,-193.64 480.5,-184"/>
<polygon fill="#63b8ff" stroke="#63b8ff" points="480.93,-187.48 490.01,-182.01 479.5,-180.63 480.93,-187.48"/>
</a>
</g>
</g>
<!-- Node17 -->
<g id="Node000017" class="node">
<title>Node17</title>
<g id="a_Node000017"><a xlink:title=" ">
<polygon fill="#e0e0e0" stroke="#999999" points="348.75,-185 295.25,-185 295.25,-165.75 348.75,-165.75 348.75,-185"/>
<text text-anchor="middle" x="322" y="-171.5" font-family="Helvetica,sans-Serif" font-size="10.00">iostream</text>
</a>
</g>
</g>
<!-- Node15&#45;&gt;Node17 -->
<g id="edge19_Node000015_Node000017" class="edge">
<title>Node15&#45;&gt;Node17</title>
<g id="a_edge19_Node000015_Node000017"><a xlink:title=" ">
<path fill="none" stroke="#63b8ff" d="M272.18,-220.59C280.76,-212.97 293.27,-201.87 303.6,-192.7"/>
<polygon fill="#63b8ff" stroke="#63b8ff" points="305.68,-195.54 310.84,-186.28 301.04,-190.3 305.68,-195.54"/>
</a>
</g>
</g>
<!-- Node18&#45;&gt;Node5 -->
<g id="edge22_Node000018_Node000005" class="edge">
<title>Node18&#45;&gt;Node5</title>
<g id="a_edge22_Node000018_Node000005"><a xlink:title=" ">
<path fill="none" stroke="#63b8ff" d="M208.92,-331.04C194.79,-316.54 172.13,-294.04 151,-276.25 138.77,-265.95 124.35,-255.34 112.61,-247.06"/>
<polygon fill="#63b8ff" stroke="#63b8ff" points="114.93,-244.41 104.72,-241.56 110.93,-250.15 114.93,-244.41"/>
</a>
</g>
</g>
<!-- Node20 -->
<g id="Node000020" class="node">
<title>Node20</title>
<g id="a_Node000020"><a xlink:href="_decoder___8h.html" target="_top" xlink:title=" ">
<polygon fill="white" stroke="#666666" points="657.25,-295.5 522.75,-295.5 522.75,-276.25 657.25,-276.25 657.25,-295.5"/>
<text text-anchor="middle" x="590" y="-282" font-family="Helvetica,sans-Serif" font-size="10.00">Cpl/Text/Frame/Decoder_.h</text>
</a>
</g>
</g>
<!-- Node19&#45;&gt;Node20 -->
<g id="edge24_Node000019_Node000020" class="edge">
<title>Node19&#45;&gt;Node20</title>
<g id="a_edge24_Node000019_Node000020"><a xlink:title=" ">
<path fill="none" stroke="#63b8ff" d="M520.45,-336.81C533.1,-327.73 552.93,-313.49 568.19,-302.54"/>
<polygon fill="#63b8ff" stroke="#63b8ff" points="570.12,-305.46 576.2,-296.78 566.03,-299.77 570.12,-305.46"/>
</a>
</g>
</g>
<!-- Node19&#45;&gt;Node23 -->
<g id="edge27_Node000019_Node000023" class="edge">
<title>Node19&#45;&gt;Node23</title>
<g id="a_edge27_Node000019_Node000023"><a xlink:title=" ">
<path fill="none" stroke="#63b8ff" d="M485.51,-336.68C461.22,-326.88 422.29,-311.19 394.63,-300.04"/>
<polygon fill="#63b8ff" stroke="#63b8ff" points="396.27,-296.92 385.68,-296.42 393.65,-303.41 396.27,-296.92"/>
</a>
</g>
</g>
<!-- Node21 -->
<g id="Node000021" class="node">
<title>Node21</title>
<g id="a_Node000021"><a xlink:href="_decoder_8h.html" target="_top" xlink:title=" ">
<polygon fill="white" stroke="#666666" points="680.62,-240.25 551.38,-240.25 551.38,-221 680.62,-221 680.62,-240.25"/>
<text text-anchor="middle" x="616" y="-226.75" font-family="Helvetica,sans-Serif" font-size="10.00">Cpl/Text/Frame/Decoder.h</text>
</a>
</g>
</g>
<!-- Node20&#45;&gt;Node21 -->
<g id="edge25_Node000020_Node000021" class="edge">
<title>Node20&#45;&gt;Node21</title>
<g id="a_edge25_Node000020_Node000021"><a xlink:title=" ">
<path fill="none" stroke="#63b8ff" d="M594.29,-276.08C597.62,-269.26 602.36,-259.56 606.56,-250.95"/>
<polygon fill="#63b8ff" stroke="#63b8ff" points="609.71,-252.49 610.95,-241.97 603.42,-249.42 609.71,-252.49"/>
</a>
</g>
</g>
<!-- Node22 -->
<g id="Node000022" class="node">
<title>Node22</title>
<g id="a_Node000022"><a xlink:title=" ">
<polygon fill="#e0e0e0" stroke="#999999" points="712.38,-185 665.62,-185 665.62,-165.75 712.38,-165.75 712.38,-185"/>
<text text-anchor="middle" x="689" y="-171.5" font-family="Helvetica,sans-Serif" font-size="10.00">stdlib.h</text>
</a>
</g>
</g>
<!-- Node21&#45;&gt;Node22 -->
<g id="edge26_Node000021_Node000022" class="edge">
<title>Node21&#45;&gt;Node22</title>
<g id="a_edge26_Node000021_Node000022"><a xlink:title=" ">
<path fill="none" stroke="#63b8ff" d="M628.38,-220.59C639.15,-212.74 654.97,-201.2 667.75,-191.87"/>
<polygon fill="#63b8ff" stroke="#63b8ff" points="669.56,-194.89 675.58,-186.17 665.44,-189.23 669.56,-194.89"/>
</a>
</g>
</g>
<!-- Node23&#45;&gt;Node15 -->
<g id="edge28_Node000023_Node000015" class="edge">
<title>Node23&#45;&gt;Node15</title>
<g id="a_edge28_Node000023_Node000015"><a xlink:title=" ">
<path fill="none" stroke="#63b8ff" d="M345.04,-275.84C329.74,-267.69 306.97,-255.57 289.14,-246.08"/>
<polygon fill="#63b8ff" stroke="#63b8ff" points="290.85,-243.02 280.38,-241.41 287.56,-249.2 290.85,-243.02"/>
</a>
</g>
</g>
<!-- Node24 -->
<g id="Node000024" class="node">
<title>Node24</title>
<g id="a_Node000024"><a xlink:href="_close_8h.html" target="_top" xlink:title=" ">
<polygon fill="white" stroke="#666666" points="495.38,-240.25 418.62,-240.25 418.62,-221 495.38,-221 495.38,-240.25"/>
<text text-anchor="middle" x="457" y="-226.75" font-family="Helvetica,sans-Serif" font-size="10.00">Cpl/Io/Close.h</text>
</a>
</g>
</g>
<!-- Node23&#45;&gt;Node24 -->
<g id="edge29_Node000023_Node000024" class="edge">
<title>Node23&#45;&gt;Node24</title>
<g id="a_edge29_Node000023_Node000024"><a xlink:title=" ">
<path fill="none" stroke="#63b8ff" d="M378.12,-275.84C392.58,-267.73 414.08,-255.68 430.98,-246.21"/>
<polygon fill="#63b8ff" stroke="#63b8ff" points="432.47,-249.39 439.49,-241.44 429.05,-243.28 432.47,-249.39"/>
</a>
</g>
</g>
<!-- Node25 -->
<g id="Node000025" class="node">
<title>Node25</title>
<g id="a_Node000025"><a xlink:href="_is_eos_8h.html" target="_top" xlink:title=" ">
<polygon fill="white" stroke="#666666" points="400.38,-240.25 323.62,-240.25 323.62,-221 400.38,-221 400.38,-240.25"/>
<text text-anchor="middle" x="362" y="-226.75" font-family="Helvetica,sans-Serif" font-size="10.00">Cpl/Io/IsEos.h</text>
</a>
</g>
</g>
<!-- Node23&#45;&gt;Node25 -->
<g id="edge31_Node000023_Node000025" class="edge">
<title>Node23&#45;&gt;Node25</title>
<g id="a_edge31_Node000023_Node000025"><a xlink:title=" ">
<path fill="none" stroke="#63b8ff" d="M362,-276.08C362,-269.57 362,-260.42 362,-252.12"/>
<polygon fill="#63b8ff" stroke="#63b8ff" points="365.5,-252.12 362,-242.12 358.5,-252.12 365.5,-252.12"/>
</a>
</g>
</g>
<!-- Node24&#45;&gt;Node7 -->
<g id="edge30_Node000024_Node000007" class="edge">
<title>Node24&#45;&gt;Node7</title>
<g id="a_edge30_Node000024_Node000007"><a xlink:title=" ">
<path fill="none" stroke="#63b8ff" d="M457,-220.75C457,-203.5 457,-165.08 457,-141.31"/>
<polygon fill="#63b8ff" stroke="#63b8ff" points="460.5,-141.64 457,-131.64 453.5,-141.64 460.5,-141.64"/>
</a>
</g>
</g>
<!-- Node27 -->
<g id="Node000027" class="node">
<title>Node27</title>
<g id="a_Node000027"><a xlink:href="_encoder___8h.html" target="_top" xlink:title=" ">
<polygon fill="white" stroke="#666666" points="820.88,-295.5 687.12,-295.5 687.12,-276.25 820.88,-276.25 820.88,-295.5"/>
<text text-anchor="middle" x="754" y="-282" font-family="Helvetica,sans-Serif" font-size="10.00">Cpl/Text/Frame/Encoder_.h</text>
</a>
</g>
</g>
<!-- Node26&#45;&gt;Node27 -->
<g id="edge33_Node000026_Node000027" class="edge">
<title>Node26&#45;&gt;Node27</title>
<g id="a_edge33_Node000026_Node000027"><a xlink:title=" ">
<path fill="none" stroke="#63b8ff" d="M696.33,-336.81C706.61,-327.9 722.63,-314.03 735.18,-303.17"/>
<polygon fill="#63b8ff" stroke="#63b8ff" points="737.16,-306.08 742.43,-296.89 732.58,-300.79 737.16,-306.08"/>
</a>
</g>
</g>
<!-- Node26&#45;&gt;Node29 -->
<g id="edge36_Node000026_Node000029" class="edge">
<title>Node26&#45;&gt;Node29</title>
<g id="a_edge36_Node000026_Node000029"><a xlink:title=" ">
<path fill="none" stroke="#63b8ff" d="M650.87,-336.68C611.54,-326.52 547.65,-310.02 504.27,-298.82"/>
<polygon fill="#63b8ff" stroke="#63b8ff" points="505.19,-295.45 494.63,-296.33 503.44,-302.22 505.19,-295.45"/>
</a>
</g>
</g>
<!-- Node28 -->
<g id="Node000028" class="node">
<title>Node28</title>
<g id="a_Node000028"><a xlink:href="_encoder_8h.html" target="_top" xlink:title=" ">
<polygon fill="white" stroke="#666666" points="827.25,-240.25 698.75,-240.25 698.75,-221 827.25,-221 827.25,-240.25"/>
<text text-anchor="middle" x="763" y="-226.75" font-family="Helvetica,sans-Serif" font-size="10.00">Cpl/Text/Frame/Encoder.h</text>
</a>
</g>
</g>
<!-- Node27&#45;&gt;Node28 -->
<g id="edge34_Node000027_Node000028" class="edge">
<title>Node27&#45;&gt;Node28</title>
<g id="a_edge34_Node000027_Node000028"><a xlink:title=" ">
<path fill="none" stroke="#63b8ff" d="M755.49,-276.08C756.6,-269.49 758.17,-260.21 759.59,-251.82"/>
<polygon fill="#63b8ff" stroke="#63b8ff" points="763.01,-252.55 761.23,-242.1 756.11,-251.38 763.01,-252.55"/>
</a>
</g>
</g>
<!-- Node28&#45;&gt;Node22 -->
<g id="edge35_Node000028_Node000022" class="edge">
<title>Node28&#45;&gt;Node22</title>
<g id="a_edge35_Node000028_Node000022"><a xlink:title=" ">
<path fill="none" stroke="#63b8ff" d="M750.45,-220.59C739.54,-212.74 723.5,-201.2 710.54,-191.87"/>
<polygon fill="#63b8ff" stroke="#63b8ff" points="712.76,-189.16 702.6,-186.16 708.67,-194.84 712.76,-189.16"/>
</a>
</g>
</g>
<!-- Node29&#45;&gt;Node15 -->
<g id="edge37_Node000029_Node000015" class="edge">
<title>Node29&#45;&gt;Node15</title>
<g id="a_edge37_Node000029_Node000015"><a xlink:title=" ">
<path fill="none" stroke="#63b8ff" d="M424.75,-275.84C392.09,-266.97 342.06,-253.37 306.09,-243.6"/>
<polygon fill="#63b8ff" stroke="#63b8ff" points="307.44,-240.34 296.87,-241.1 305.6,-247.1 307.44,-240.34"/>
</a>
</g>
</g>
<!-- Node29&#45;&gt;Node16 -->
<g id="edge40_Node000029_Node000016" class="edge">
<title>Node29&#45;&gt;Node16</title>
<g id="a_edge40_Node000029_Node000016"><a xlink:title=" ">
<path fill="none" stroke="#63b8ff" d="M471.01,-275.79C481.57,-267.7 495.99,-254.89 504,-240.25 511.41,-226.71 514.61,-209.46 515.99,-196.3"/>
<polygon fill="#63b8ff" stroke="#63b8ff" points="519.45,-196.94 516.71,-186.71 512.47,-196.41 519.45,-196.94"/>
</a>
</g>
</g>
<!-- Node29&#45;&gt;Node24 -->
<g id="edge38_Node000029_Node000024" class="edge">
<title>Node29&#45;&gt;Node24</title>
<g id="a_edge38_Node000029_Node000024"><a xlink:title=" ">
<path fill="none" stroke="#63b8ff" d="M457.83,-276.08C457.71,-269.57 457.54,-260.42 457.38,-252.12"/>
<polygon fill="#63b8ff" stroke="#63b8ff" points="460.88,-252.05 457.2,-242.12 453.89,-252.19 460.88,-252.05"/>
</a>
</g>
</g>
<!-- Node29&#45;&gt;Node25 -->
<g id="edge39_Node000029_Node000025" class="edge">
<title>Node29&#45;&gt;Node25</title>
<g id="a_edge39_Node000029_Node000025"><a xlink:title=" ">
<path fill="none" stroke="#63b8ff" d="M441.71,-275.84C427.1,-267.73 405.37,-255.68 388.29,-246.21"/>
<polygon fill="#63b8ff" stroke="#63b8ff" points="390.13,-243.23 379.69,-241.44 386.74,-249.35 390.13,-243.23"/>
</a>
</g>
</g>
<!-- Node30&#45;&gt;Node13 -->
<g id="edge42_Node000030_Node000013" class="edge">
<title>Node30&#45;&gt;Node13</title>
<g id="a_edge42_Node000030_Node000013"><a xlink:title=" ">
<path fill="none" stroke="#63b8ff" d="M665.36,-111.04C600.48,-100.88 489.93,-83.56 426.21,-73.58"/>
<polygon fill="#63b8ff" stroke="#63b8ff" points="426.8,-70.13 416.38,-72.04 425.72,-77.05 426.8,-70.13"/>
</a>
</g>
</g>
</g>
</svg>
