<?xml version="1.0" encoding="UTF-8" standalone="no"?>
<!DOCTYPE svg PUBLIC "-//W3C//DTD SVG 1.1//EN"
 "http://www.w3.org/Graphics/SVG/1.1/DTD/svg11.dtd">
<!-- Generated by graphviz version 9.0.0 (20230911.1827)
 -->
<!-- Title: Cpl/Memory/Pool_.h Pages: 1 -->
<svg width="318pt" height="149pt"
 viewBox="0.00 0.00 318.00 149.00" xmlns="http://www.w3.org/2000/svg" xmlns:xlink="http://www.w3.org/1999/xlink">
<g id="graph0" class="graph" transform="scale(1 1) rotate(0) translate(4 145)">
<title>Cpl/Memory/Pool_.h</title>
<!-- Node1 -->
<g id="Node000001" class="node">
<title>Node1</title>
<g id="a_Node000001"><a xlink:title=" ">
<polygon fill="#999999" stroke="#666666" points="165.12,-141 62.12,-141 62.12,-121.75 165.12,-121.75 165.12,-141"/>
<text text-anchor="middle" x="113.62" y="-127.5" font-family="Helvetica,sans-Serif" font-size="10.00">Cpl/Memory/Pool_.h</text>
</a>
</g>
</g>
<!-- Node2 -->
<g id="Node000002" class="node">
<title>Node2</title>
<g id="a_Node000002"><a xlink:href="_h_pool_8h.html" target="_top" xlink:title=" ">
<polygon fill="white" stroke="#666666" points="105.25,-85.75 0,-85.75 0,-66.5 105.25,-66.5 105.25,-85.75"/>
<text text-anchor="middle" x="52.62" y="-72.25" font-family="Helvetica,sans-Serif" font-size="10.00">Cpl/Memory/HPool.h</text>
</a>
</g>
</g>
<!-- Node1&#45;&gt;Node2 -->
<g id="edge1_Node000001_Node000002" class="edge">
<title>Node1&#45;&gt;Node2</title>
<g id="a_edge1_Node000001_Node000002"><a xlink:title=" ">
<path fill="none" stroke="#63b8ff" d="M94.74,-113.89C84.2,-104.69 71.5,-93.6 62.82,-86.02"/>
<polygon fill="#63b8ff" stroke="#63b8ff" points="92.3,-116.41 102.14,-120.35 96.91,-111.13 92.3,-116.41"/>
</a>
</g>
</g>
<!-- Node3 -->
<g id="Node000003" class="node">
<title>Node3</title>
<g id="a_Node000003"><a xlink:href="_s_pool_8h.html" target="_top" xlink:title=" ">
<polygon fill="white" stroke="#666666" points="227.88,-85.75 123.38,-85.75 123.38,-66.5 227.88,-66.5 227.88,-85.75"/>
<text text-anchor="middle" x="175.62" y="-72.25" font-family="Helvetica,sans-Serif" font-size="10.00">Cpl/Memory/SPool.h</text>
</a>
</g>
</g>
<!-- Node1&#45;&gt;Node3 -->
<g id="edge2_Node000001_Node000003" class="edge">
<title>Node1&#45;&gt;Node3</title>
<g id="a_edge2_Node000001_Node000003"><a xlink:title=" ">
<path fill="none" stroke="#63b8ff" d="M132.82,-113.89C143.53,-104.69 156.44,-93.6 165.26,-86.02"/>
<polygon fill="#63b8ff" stroke="#63b8ff" points="130.6,-111.19 125.29,-120.36 135.16,-116.5 130.6,-111.19"/>
</a>
</g>
</g>
<!-- Node4 -->
<g id="Node000004" class="node">
<title>Node4</title>
<g id="a_Node000004"><a xlink:href="_io_2_file_2_littlefs_2_private___8h.html" target="_top" xlink:title=" ">
<polygon fill="white" stroke="#666666" points="155.25,-30.5 62,-30.5 62,0 155.25,0 155.25,-30.5"/>
<text text-anchor="start" x="70" y="-17" font-family="Helvetica,sans-Serif" font-size="10.00">Cpl/Io/File/Littlefs</text>
<text text-anchor="middle" x="108.62" y="-5.75" font-family="Helvetica,sans-Serif" font-size="10.00">/Private_.h</text>
</a>
</g>
</g>
<!-- Node3&#45;&gt;Node4 -->
<g id="edge3_Node000003_Node000004" class="edge">
<title>Node3&#45;&gt;Node4</title>
<g id="a_edge3_Node000003_Node000004"><a xlink:title=" ">
<path fill="none" stroke="#63b8ff" d="M157.03,-58.79C147.04,-50.01 134.82,-39.27 125.16,-30.78"/>
<polygon fill="#63b8ff" stroke="#63b8ff" points="154.49,-61.21 164.31,-65.18 159.11,-55.95 154.49,-61.21"/>
</a>
</g>
</g>
<!-- Node5 -->
<g id="Node000005" class="node">
<title>Node5</title>
<g id="a_Node000005"><a xlink:href="_stream_pool_8h.html" target="_top" xlink:title=" ">
<polygon fill="white" stroke="#666666" points="310,-24.88 173.25,-24.88 173.25,-5.63 310,-5.63 310,-24.88"/>
<text text-anchor="middle" x="241.62" y="-11.38" font-family="Helvetica,sans-Serif" font-size="10.00">Cpl/Io/Socket/StreamPool.h</text>
</a>
</g>
</g>
<!-- Node3&#45;&gt;Node5 -->
<g id="edge4_Node000003_Node000005" class="edge">
<title>Node3&#45;&gt;Node5</title>
<g id="a_edge4_Node000003_Node000005"><a xlink:title=" ">
<path fill="none" stroke="#63b8ff" d="M194.13,-58.62C206.23,-47.82 221.59,-34.12 231.51,-25.28"/>
<polygon fill="#63b8ff" stroke="#63b8ff" points="191.91,-55.91 186.78,-65.18 196.57,-61.13 191.91,-55.91"/>
</a>
</g>
</g>
</g>
</svg>
