<?xml version="1.0" encoding="UTF-8" standalone="no"?>
<!DOCTYPE svg PUBLIC "-//W3C//DTD SVG 1.1//EN"
 "http://www.w3.org/Graphics/SVG/1.1/DTD/svg11.dtd">
<!-- Generated by graphviz version 9.0.0 (20230911.1827)
 -->
<!-- Title: Cpl/Io/Ram/InputOutput.h Pages: 1 -->
<svg width="556pt" height="359pt"
 viewBox="0.00 0.00 555.89 358.75" xmlns="http://www.w3.org/2000/svg" xmlns:xlink="http://www.w3.org/1999/xlink">
<g id="graph0" class="graph" transform="scale(1 1) rotate(0) translate(4 354.75)">
<title>Cpl/Io/Ram/InputOutput.h</title>
<!-- Node1 -->
<g id="Node000001" class="node">
<title>Node1</title>
<g id="a_Node000001"><a xlink:title=" ">
<polygon fill="#999999" stroke="#666666" points="309.01,-350.75 182.76,-350.75 182.76,-331.5 309.01,-331.5 309.01,-350.75"/>
<text text-anchor="middle" x="245.89" y="-337.25" font-family="Helvetica,sans-Serif" font-size="10.00">Cpl/Io/Ram/InputOutput.h</text>
</a>
</g>
</g>
<!-- Node2 -->
<g id="Node000002" class="node">
<title>Node2</title>
<g id="a_Node000002"><a xlink:href="_input_output_8h.html" target="_top" xlink:title=" ">
<polygon fill="white" stroke="#666666" points="348.39,-295.5 245.39,-295.5 245.39,-276.25 348.39,-276.25 348.39,-295.5"/>
<text text-anchor="middle" x="296.89" y="-282" font-family="Helvetica,sans-Serif" font-size="10.00">Cpl/Io/InputOutput.h</text>
</a>
</g>
</g>
<!-- Node1&#45;&gt;Node2 -->
<g id="edge1_Node000001_Node000002" class="edge">
<title>Node1&#45;&gt;Node2</title>
<g id="a_edge1_Node000001_Node000002"><a xlink:title=" ">
<path fill="none" stroke="#63b8ff" d="M254.31,-331.33C261.43,-323.9 271.83,-313.04 280.57,-303.91"/>
<polygon fill="#63b8ff" stroke="#63b8ff" points="282.85,-306.6 287.24,-296.95 277.79,-301.75 282.85,-306.6"/>
</a>
</g>
</g>
<!-- Node18 -->
<g id="Node000018" class="node">
<title>Node18</title>
<g id="a_Node000018"><a xlink:href="_ring_buffer_8h.html" target="_top" xlink:title=" ">
<polygon fill="white" stroke="#666666" points="547.89,-295.5 417.89,-295.5 417.89,-276.25 547.89,-276.25 547.89,-295.5"/>
<text text-anchor="middle" x="482.89" y="-282" font-family="Helvetica,sans-Serif" font-size="10.00">Cpl/Container/RingBuffer.h</text>
</a>
</g>
</g>
<!-- Node1&#45;&gt;Node18 -->
<g id="edge22_Node000001_Node000018" class="edge">
<title>Node1&#45;&gt;Node18</title>
<g id="a_edge22_Node000001_Node000018"><a xlink:title=" ">
<path fill="none" stroke="#63b8ff" d="M286.36,-331.03C326.41,-322.03 387.87,-308.23 431.38,-298.45"/>
<polygon fill="#63b8ff" stroke="#63b8ff" points="432.12,-301.87 441.11,-296.26 430.58,-295.04 432.12,-301.87"/>
</a>
</g>
</g>
<!-- Node19 -->
<g id="Node000019" class="node">
<title>Node19</title>
<g id="a_Node000019"><a xlink:href="_semaphore_8h.html" target="_top" xlink:title=" ">
<polygon fill="white" stroke="#666666" points="128.01,-240.25 1.76,-240.25 1.76,-221 128.01,-221 128.01,-240.25"/>
<text text-anchor="middle" x="64.89" y="-226.75" font-family="Helvetica,sans-Serif" font-size="10.00">Cpl/System/Semaphore.h</text>
</a>
</g>
</g>
<!-- Node1&#45;&gt;Node19 -->
<g id="edge24_Node000001_Node000019" class="edge">
<title>Node1&#45;&gt;Node19</title>
<g id="a_edge24_Node000001_Node000019"><a xlink:title=" ">
<path fill="none" stroke="#63b8ff" d="M186.63,-331.05C159.6,-324.61 128.44,-313.74 104.89,-295.5 89.87,-283.87 79.02,-264.89 72.44,-250.63"/>
<polygon fill="#63b8ff" stroke="#63b8ff" points="75.83,-249.65 68.68,-241.83 69.4,-252.41 75.83,-249.65"/>
</a>
</g>
</g>
<!-- Node21 -->
<g id="Node000021" class="node">
<title>Node21</title>
<g id="a_Node000021"><a xlink:href="_mutex_8h.html" target="_top" xlink:title=" ">
<polygon fill="white" stroke="#666666" points="217.39,-295.5 114.39,-295.5 114.39,-276.25 217.39,-276.25 217.39,-295.5"/>
<text text-anchor="middle" x="165.89" y="-282" font-family="Helvetica,sans-Serif" font-size="10.00">Cpl/System/Mutex.h</text>
</a>
</g>
</g>
<!-- Node1&#45;&gt;Node21 -->
<g id="edge28_Node000001_Node000021" class="edge">
<title>Node1&#45;&gt;Node21</title>
<g id="a_edge28_Node000001_Node000021"><a xlink:title=" ">
<path fill="none" stroke="#63b8ff" d="M232.32,-331.09C220.48,-323.21 203.05,-311.61 189.02,-302.27"/>
<polygon fill="#63b8ff" stroke="#63b8ff" points="191.05,-299.42 180.79,-296.79 187.17,-305.25 191.05,-299.42"/>
</a>
</g>
</g>
<!-- Node3 -->
<g id="Node000003" class="node">
<title>Node3</title>
<g id="a_Node000003"><a xlink:href="_input_8h.html" target="_top" xlink:title=" ">
<polygon fill="white" stroke="#666666" points="333.76,-240.25 260.01,-240.25 260.01,-221 333.76,-221 333.76,-240.25"/>
<text text-anchor="middle" x="296.89" y="-226.75" font-family="Helvetica,sans-Serif" font-size="10.00">Cpl/Io/Input.h</text>
</a>
</g>
</g>
<!-- Node2&#45;&gt;Node3 -->
<g id="edge2_Node000002_Node000003" class="edge">
<title>Node2&#45;&gt;Node3</title>
<g id="a_edge2_Node000002_Node000003"><a xlink:title=" ">
<path fill="none" stroke="#63b8ff" d="M296.89,-276.08C296.89,-269.57 296.89,-260.42 296.89,-252.12"/>
<polygon fill="#63b8ff" stroke="#63b8ff" points="300.39,-252.12 296.89,-242.12 293.39,-252.12 300.39,-252.12"/>
</a>
</g>
</g>
<!-- Node17 -->
<g id="Node000017" class="node">
<title>Node17</title>
<g id="a_Node000017"><a xlink:href="_output_8h.html" target="_top" xlink:title=" ">
<polygon fill="white" stroke="#666666" points="433.51,-240.25 352.26,-240.25 352.26,-221 433.51,-221 433.51,-240.25"/>
<text text-anchor="middle" x="392.89" y="-226.75" font-family="Helvetica,sans-Serif" font-size="10.00">Cpl/Io/Output.h</text>
</a>
</g>
</g>
<!-- Node2&#45;&gt;Node17 -->
<g id="edge17_Node000002_Node000017" class="edge">
<title>Node2&#45;&gt;Node17</title>
<g id="a_edge17_Node000002_Node000017"><a xlink:title=" ">
<path fill="none" stroke="#63b8ff" d="M313.17,-275.84C327.79,-267.73 349.52,-255.68 366.6,-246.21"/>
<polygon fill="#63b8ff" stroke="#63b8ff" points="368.15,-249.35 375.2,-241.44 364.76,-243.23 368.15,-249.35"/>
</a>
</g>
</g>
<!-- Node4 -->
<g id="Node000004" class="node">
<title>Node4</title>
<g id="a_Node000004"><a xlink:href="_text_2_string_8h.html" target="_top" xlink:title=" ">
<polygon fill="white" stroke="#666666" points="460.89,-185 372.89,-185 372.89,-165.75 460.89,-165.75 460.89,-185"/>
<text text-anchor="middle" x="416.89" y="-171.5" font-family="Helvetica,sans-Serif" font-size="10.00">Cpl/Text/String.h</text>
</a>
</g>
</g>
<!-- Node3&#45;&gt;Node4 -->
<g id="edge3_Node000003_Node000004" class="edge">
<title>Node3&#45;&gt;Node4</title>
<g id="a_edge3_Node000003_Node000004"><a xlink:title=" ">
<path fill="none" stroke="#63b8ff" d="M317.25,-220.59C336.12,-212.22 364.48,-199.63 386.12,-190.03"/>
<polygon fill="#63b8ff" stroke="#63b8ff" points="387.33,-193.32 395.05,-186.07 384.49,-186.92 387.33,-193.32"/>
</a>
</g>
</g>
<!-- Node14 -->
<g id="Node000014" class="node">
<title>Node14</title>
<g id="a_Node000014"><a xlink:href="_close_8h.html" target="_top" xlink:title=" ">
<polygon fill="white" stroke="#666666" points="355.26,-185 278.51,-185 278.51,-165.75 355.26,-165.75 355.26,-185"/>
<text text-anchor="middle" x="316.89" y="-171.5" font-family="Helvetica,sans-Serif" font-size="10.00">Cpl/Io/Close.h</text>
</a>
</g>
</g>
<!-- Node3&#45;&gt;Node14 -->
<g id="edge14_Node000003_Node000014" class="edge">
<title>Node3&#45;&gt;Node14</title>
<g id="a_edge14_Node000003_Node000014"><a xlink:title=" ">
<path fill="none" stroke="#63b8ff" d="M300.19,-220.83C302.72,-214.09 306.32,-204.52 309.52,-195.99"/>
<polygon fill="#63b8ff" stroke="#63b8ff" points="312.74,-197.37 312.98,-186.78 306.19,-194.91 312.74,-197.37"/>
</a>
</g>
</g>
<!-- Node16 -->
<g id="Node000016" class="node">
<title>Node16</title>
<g id="a_Node000016"><a xlink:href="_is_eos_8h.html" target="_top" xlink:title=" ">
<polygon fill="white" stroke="#666666" points="260.26,-185 183.51,-185 183.51,-165.75 260.26,-165.75 260.26,-185"/>
<text text-anchor="middle" x="221.89" y="-171.5" font-family="Helvetica,sans-Serif" font-size="10.00">Cpl/Io/IsEos.h</text>
</a>
</g>
</g>
<!-- Node3&#45;&gt;Node16 -->
<g id="edge16_Node000003_Node000016" class="edge">
<title>Node3&#45;&gt;Node16</title>
<g id="a_edge16_Node000003_Node000016"><a xlink:title=" ">
<path fill="none" stroke="#63b8ff" d="M284.17,-220.59C273.18,-212.79 257.05,-201.34 243.96,-192.04"/>
<polygon fill="#63b8ff" stroke="#63b8ff" points="246.09,-189.26 235.91,-186.33 242.04,-194.97 246.09,-189.26"/>
</a>
</g>
</g>
<!-- Node5 -->
<g id="Node000005" class="node">
<title>Node5</title>
<g id="a_Node000005"><a xlink:title=" ">
<polygon fill="#e0e0e0" stroke="#999999" points="221.51,-74.5 146.26,-74.5 146.26,-55.25 221.51,-55.25 221.51,-74.5"/>
<text text-anchor="middle" x="183.89" y="-61" font-family="Helvetica,sans-Serif" font-size="10.00">colony_map.h</text>
</a>
</g>
</g>
<!-- Node4&#45;&gt;Node5 -->
<g id="edge4_Node000004_Node000005" class="edge">
<title>Node4&#45;&gt;Node5</title>
<g id="a_edge4_Node000004_Node000005"><a xlink:title=" ">
<path fill="none" stroke="#63b8ff" d="M375.79,-165.33C334.99,-155.95 275.62,-141.09 254.89,-129.75 232.94,-117.74 212.19,-97.68 198.86,-83.25"/>
<polygon fill="#63b8ff" stroke="#63b8ff" points="201.51,-80.97 192.24,-75.84 196.29,-85.63 201.51,-80.97"/>
</a>
</g>
</g>
<!-- Node6 -->
<g id="Node000006" class="node">
<title>Node6</title>
<g id="a_Node000006"><a xlink:href="_key_8h.html" target="_top" xlink:title=" ">
<polygon fill="white" stroke="#666666" points="437.64,-129.75 336.14,-129.75 336.14,-110.5 437.64,-110.5 437.64,-129.75"/>
<text text-anchor="middle" x="386.89" y="-116.25" font-family="Helvetica,sans-Serif" font-size="10.00">Cpl/Container/Key.h</text>
</a>
</g>
</g>
<!-- Node4&#45;&gt;Node6 -->
<g id="edge5_Node000004_Node000006" class="edge">
<title>Node4&#45;&gt;Node6</title>
<g id="a_edge5_Node000004_Node000006"><a xlink:title=" ">
<path fill="none" stroke="#63b8ff" d="M411.94,-165.58C408.01,-158.61 402.38,-148.62 397.45,-139.87"/>
<polygon fill="#63b8ff" stroke="#63b8ff" points="400.65,-138.42 392.69,-131.43 394.55,-141.86 400.65,-138.42"/>
</a>
</g>
</g>
<!-- Node12 -->
<g id="Node000012" class="node">
<title>Node12</title>
<g id="a_Node000012"><a xlink:title=" ">
<polygon fill="#e0e0e0" stroke="#999999" points="506.14,-129.75 455.64,-129.75 455.64,-110.5 506.14,-110.5 506.14,-129.75"/>
<text text-anchor="middle" x="480.89" y="-116.25" font-family="Helvetica,sans-Serif" font-size="10.00">stdarg.h</text>
</a>
</g>
</g>
<!-- Node4&#45;&gt;Node12 -->
<g id="edge12_Node000004_Node000012" class="edge">
<title>Node4&#45;&gt;Node12</title>
<g id="a_edge12_Node000004_Node000012"><a xlink:title=" ">
<path fill="none" stroke="#63b8ff" d="M427.75,-165.34C437,-157.65 450.51,-146.4 461.6,-137.18"/>
<polygon fill="#63b8ff" stroke="#63b8ff" points="463.58,-140.08 469.03,-130.99 459.1,-134.7 463.58,-140.08"/>
</a>
</g>
</g>
<!-- Node13 -->
<g id="Node000013" class="node">
<title>Node13</title>
<g id="a_Node000013"><a xlink:title=" ">
<polygon fill="#e0e0e0" stroke="#999999" points="317.64,-129.75 264.14,-129.75 264.14,-110.5 317.64,-110.5 317.64,-129.75"/>
<text text-anchor="middle" x="290.89" y="-116.25" font-family="Helvetica,sans-Serif" font-size="10.00">iostream</text>
</a>
</g>
</g>
<!-- Node4&#45;&gt;Node13 -->
<g id="edge13_Node000004_Node000013" class="edge">
<title>Node4&#45;&gt;Node13</title>
<g id="a_edge13_Node000004_Node000013"><a xlink:title=" ">
<path fill="none" stroke="#63b8ff" d="M395.52,-165.34C375.6,-156.93 345.65,-144.27 322.89,-134.65"/>
<polygon fill="#63b8ff" stroke="#63b8ff" points="324.34,-131.46 313.76,-130.79 321.61,-137.91 324.34,-131.46"/>
</a>
</g>
</g>
<!-- Node6&#45;&gt;Node5 -->
<g id="edge11_Node000006_Node000005" class="edge">
<title>Node6&#45;&gt;Node5</title>
<g id="a_edge11_Node000006_Node000005"><a xlink:title=" ">
<path fill="none" stroke="#63b8ff" d="M352.45,-110.09C318.62,-101.22 266.8,-87.62 229.55,-77.85"/>
<polygon fill="#63b8ff" stroke="#63b8ff" points="230.52,-74.49 219.96,-75.34 228.74,-81.26 230.52,-74.49"/>
</a>
</g>
</g>
<!-- Node7 -->
<g id="Node000007" class="node">
<title>Node7</title>
<g id="a_Node000007"><a xlink:href="_fatal_error_8h.html" target="_top" xlink:title=" ">
<polygon fill="white" stroke="#666666" points="365.26,-74.5 246.51,-74.5 246.51,-55.25 365.26,-55.25 365.26,-74.5"/>
<text text-anchor="middle" x="305.89" y="-61" font-family="Helvetica,sans-Serif" font-size="10.00">Cpl/System/FatalError.h</text>
</a>
</g>
</g>
<!-- Node6&#45;&gt;Node7 -->
<g id="edge6_Node000006_Node000007" class="edge">
<title>Node6&#45;&gt;Node7</title>
<g id="a_edge6_Node000006_Node000007"><a xlink:title=" ">
<path fill="none" stroke="#63b8ff" d="M373.15,-110.09C361.16,-102.21 343.52,-90.61 329.31,-81.27"/>
<polygon fill="#63b8ff" stroke="#63b8ff" points="331.24,-78.35 320.96,-75.78 327.4,-84.2 331.24,-78.35"/>
</a>
</g>
</g>
<!-- Node10 -->
<g id="Node000010" class="node">
<title>Node10</title>
<g id="a_Node000010"><a xlink:title=" ">
<polygon fill="#e0e0e0" stroke="#999999" points="536.64,-74.5 489.14,-74.5 489.14,-55.25 536.64,-55.25 536.64,-74.5"/>
<text text-anchor="middle" x="512.89" y="-61" font-family="Helvetica,sans-Serif" font-size="10.00">stdint.h</text>
</a>
</g>
</g>
<!-- Node6&#45;&gt;Node10 -->
<g id="edge9_Node000006_Node000010" class="edge">
<title>Node6&#45;&gt;Node10</title>
<g id="a_edge9_Node000006_Node000010"><a xlink:title=" ">
<path fill="none" stroke="#63b8ff" d="M408.26,-110.09C428.18,-101.68 458.13,-89.02 480.89,-79.4"/>
<polygon fill="#63b8ff" stroke="#63b8ff" points="482.17,-82.66 490.02,-75.54 479.44,-76.21 482.17,-82.66"/>
</a>
</g>
</g>
<!-- Node11 -->
<g id="Node000011" class="node">
<title>Node11</title>
<g id="a_Node000011"><a xlink:title=" ">
<polygon fill="#e0e0e0" stroke="#999999" points="430.64,-74.5 383.14,-74.5 383.14,-55.25 430.64,-55.25 430.64,-74.5"/>
<text text-anchor="middle" x="406.89" y="-61" font-family="Helvetica,sans-Serif" font-size="10.00">string.h</text>
</a>
</g>
</g>
<!-- Node6&#45;&gt;Node11 -->
<g id="edge10_Node000006_Node000011" class="edge">
<title>Node6&#45;&gt;Node11</title>
<g id="a_edge10_Node000006_Node000011"><a xlink:title=" ">
<path fill="none" stroke="#63b8ff" d="M390.19,-110.33C392.72,-103.59 396.32,-94.02 399.52,-85.49"/>
<polygon fill="#63b8ff" stroke="#63b8ff" points="402.74,-86.87 402.98,-76.28 396.19,-84.41 402.74,-86.87"/>
</a>
</g>
</g>
<!-- Node8 -->
<g id="Node000008" class="node">
<title>Node8</title>
<g id="a_Node000008"><a xlink:title=" ">
<polygon fill="#e0e0e0" stroke="#999999" points="289.14,-19.25 238.64,-19.25 238.64,0 289.14,0 289.14,-19.25"/>
<text text-anchor="middle" x="263.89" y="-5.75" font-family="Helvetica,sans-Serif" font-size="10.00">stddef.h</text>
</a>
</g>
</g>
<!-- Node7&#45;&gt;Node8 -->
<g id="edge7_Node000007_Node000008" class="edge">
<title>Node7&#45;&gt;Node8</title>
<g id="a_edge7_Node000007_Node000008"><a xlink:title=" ">
<path fill="none" stroke="#63b8ff" d="M298.95,-55.08C293.27,-47.88 285.05,-37.46 278,-28.51"/>
<polygon fill="#63b8ff" stroke="#63b8ff" points="280.85,-26.48 271.91,-20.8 275.36,-30.82 280.85,-26.48"/>
</a>
</g>
</g>
<!-- Node9 -->
<g id="Node000009" class="node">
<title>Node9</title>
<g id="a_Node000009"><a xlink:title=" ">
<polygon fill="#e0e0e0" stroke="#999999" points="388.89,-19.25 306.89,-19.25 306.89,0 388.89,0 388.89,-19.25"/>
<text text-anchor="middle" x="347.89" y="-5.75" font-family="Helvetica,sans-Serif" font-size="10.00">colony_config.h</text>
</a>
</g>
</g>
<!-- Node7&#45;&gt;Node9 -->
<g id="edge8_Node000007_Node000009" class="edge">
<title>Node7&#45;&gt;Node9</title>
<g id="a_edge8_Node000007_Node000009"><a xlink:title=" ">
<path fill="none" stroke="#63b8ff" d="M312.83,-55.08C318.51,-47.88 326.73,-37.46 333.78,-28.51"/>
<polygon fill="#63b8ff" stroke="#63b8ff" points="336.42,-30.82 339.87,-20.8 330.93,-26.48 336.42,-30.82"/>
</a>
</g>
</g>
<!-- Node15 -->
<g id="Node000015" class="node">
<title>Node15</title>
<g id="a_Node000015"><a xlink:href="_item_8h.html" target="_top" xlink:title=" ">
<polygon fill="white" stroke="#666666" points="126.14,-129.75 21.64,-129.75 21.64,-110.5 126.14,-110.5 126.14,-129.75"/>
<text text-anchor="middle" x="73.89" y="-116.25" font-family="Helvetica,sans-Serif" font-size="10.00">Cpl/Container/Item.h</text>
</a>
</g>
</g>
<!-- Node14&#45;&gt;Node15 -->
<g id="edge15_Node000014_Node000015" class="edge">
<title>Node14&#45;&gt;Node15</title>
<g id="a_edge15_Node000014_Node000015"><a xlink:title=" ">
<path fill="none" stroke="#63b8ff" d="M278.12,-165.88C237.11,-156.89 172.15,-142.66 126.53,-132.66"/>
<polygon fill="#63b8ff" stroke="#63b8ff" points="127.37,-129.26 116.85,-130.54 125.87,-136.1 127.37,-129.26"/>
</a>
</g>
</g>
<!-- Node17&#45;&gt;Node4 -->
<g id="edge18_Node000017_Node000004" class="edge">
<title>Node17&#45;&gt;Node4</title>
<g id="a_edge18_Node000017_Node000004"><a xlink:title=" ">
<path fill="none" stroke="#63b8ff" d="M396.85,-220.83C399.93,-214.01 404.3,-204.31 408.18,-195.7"/>
<polygon fill="#63b8ff" stroke="#63b8ff" points="411.3,-197.29 412.22,-186.74 404.92,-194.42 411.3,-197.29"/>
</a>
</g>
</g>
<!-- Node17&#45;&gt;Node12 -->
<g id="edge21_Node000017_Node000012" class="edge">
<title>Node17&#45;&gt;Node12</title>
<g id="a_edge21_Node000017_Node000012"><a xlink:title=" ">
<path fill="none" stroke="#63b8ff" d="M420.25,-220.62C437.21,-213.59 457.97,-202.12 469.89,-185 478.76,-172.26 481.26,-154.71 481.69,-141.23"/>
<polygon fill="#63b8ff" stroke="#63b8ff" points="485.19,-141.32 481.61,-131.35 478.19,-141.38 485.19,-141.32"/>
</a>
</g>
</g>
<!-- Node17&#45;&gt;Node14 -->
<g id="edge19_Node000017_Node000014" class="edge">
<title>Node17&#45;&gt;Node14</title>
<g id="a_edge19_Node000017_Node000014"><a xlink:title=" ">
<path fill="none" stroke="#63b8ff" d="M380,-220.59C368.86,-212.79 352.52,-201.34 339.25,-192.04"/>
<polygon fill="#63b8ff" stroke="#63b8ff" points="341.28,-189.19 331.08,-186.32 337.27,-194.93 341.28,-189.19"/>
</a>
</g>
</g>
<!-- Node17&#45;&gt;Node16 -->
<g id="edge20_Node000017_Node000016" class="edge">
<title>Node17&#45;&gt;Node16</title>
<g id="a_edge20_Node000017_Node000016"><a xlink:title=" ">
<path fill="none" stroke="#63b8ff" d="M363.88,-220.59C335.88,-211.87 293.23,-198.59 261.99,-188.86"/>
<polygon fill="#63b8ff" stroke="#63b8ff" points="263.07,-185.53 252.48,-185.9 260.99,-192.22 263.07,-185.53"/>
</a>
</g>
</g>
<!-- Node18&#45;&gt;Node10 -->
<g id="edge23_Node000018_Node000010" class="edge">
<title>Node18&#45;&gt;Node10</title>
<g id="a_edge23_Node000018_Node000010"><a xlink:title=" ">
<path fill="none" stroke="#63b8ff" d="M485.42,-275.88C491.92,-252.21 509.14,-186.1 514.89,-129.75 515.76,-121.24 515.08,-119.05 514.89,-110.5 514.71,-102.55 514.36,-93.82 513.99,-86.2"/>
<polygon fill="#63b8ff" stroke="#63b8ff" points="517.49,-86.08 513.48,-76.27 510.5,-86.44 517.49,-86.08"/>
</a>
</g>
</g>
<!-- Node19&#45;&gt;Node5 -->
<g id="edge25_Node000019_Node000005" class="edge">
<title>Node19&#45;&gt;Node5</title>
<g id="a_edge25_Node000019_Node000005"><a xlink:title=" ">
<path fill="none" stroke="#63b8ff" d="M44.42,-220.6C30.48,-213.23 13.11,-201.36 4.89,-185 -3.71,-167.88 -0.17,-125.1 12.89,-110.5 29.02,-92.46 90.22,-79.71 134.8,-72.58"/>
<polygon fill="#63b8ff" stroke="#63b8ff" points="135.19,-76.06 144.53,-71.07 134.12,-69.14 135.19,-76.06"/>
</a>
</g>
</g>
<!-- Node20 -->
<g id="Node000020" class="node">
<title>Node20</title>
<g id="a_Node000020"><a xlink:href="_signable_8h.html" target="_top" xlink:title=" ">
<polygon fill="white" stroke="#666666" points="128.01,-185 13.76,-185 13.76,-165.75 128.01,-165.75 128.01,-185"/>
<text text-anchor="middle" x="70.89" y="-171.5" font-family="Helvetica,sans-Serif" font-size="10.00">Cpl/System/Signable.h</text>
</a>
</g>
</g>
<!-- Node19&#45;&gt;Node20 -->
<g id="edge26_Node000019_Node000020" class="edge">
<title>Node19&#45;&gt;Node20</title>
<g id="a_edge26_Node000019_Node000020"><a xlink:title=" ">
<path fill="none" stroke="#63b8ff" d="M65.88,-220.83C66.62,-214.24 67.67,-204.96 68.61,-196.57"/>
<polygon fill="#63b8ff" stroke="#63b8ff" points="72.07,-197.19 69.71,-186.86 65.11,-196.41 72.07,-197.19"/>
</a>
</g>
</g>
<!-- Node20&#45;&gt;Node15 -->
<g id="edge27_Node000020_Node000015" class="edge">
<title>Node20&#45;&gt;Node15</title>
<g id="a_edge27_Node000020_Node000015"><a xlink:title=" ">
<path fill="none" stroke="#63b8ff" d="M71.39,-165.58C71.76,-158.99 72.28,-149.71 72.75,-141.32"/>
<polygon fill="#63b8ff" stroke="#63b8ff" points="76.23,-141.8 73.3,-131.62 69.24,-141.41 76.23,-141.8"/>
</a>
</g>
</g>
<!-- Node21&#45;&gt;Node5 -->
<g id="edge29_Node000021_Node000005" class="edge">
<title>Node21&#45;&gt;Node5</title>
<g id="a_edge29_Node000021_Node000005"><a xlink:title=" ">
<path fill="none" stroke="#63b8ff" d="M166.52,-275.91C167.93,-256.05 171.48,-206.88 174.89,-165.75 177.16,-138.28 180.07,-106.59 181.95,-86.4"/>
<polygon fill="#63b8ff" stroke="#63b8ff" points="185.44,-86.75 182.89,-76.47 178.47,-86.1 185.44,-86.75"/>
</a>
</g>
</g>
</g>
</svg>
