<?xml version="1.0" encoding="UTF-8" standalone="no"?>
<!DOCTYPE svg PUBLIC "-//W3C//DTD SVG 1.1//EN"
 "http://www.w3.org/Graphics/SVG/1.1/DTD/svg11.dtd">
<!-- Generated by graphviz version 9.0.0 (20230911.1827)
 -->
<!-- Title: Cpl/Math/RealExpressionParser.h Pages: 1 -->
<svg width="1182pt" height="359pt"
 viewBox="0.00 0.00 1181.62 358.75" xmlns="http://www.w3.org/2000/svg" xmlns:xlink="http://www.w3.org/1999/xlink">
<g id="graph0" class="graph" transform="scale(1 1) rotate(0) translate(4 354.75)">
<title>Cpl/Math/RealExpressionParser.h</title>
<!-- Node1 -->
<g id="Node000001" class="node">
<title>Node1</title>
<g id="a_Node000001"><a xlink:title="This file contains a collection of methods that parses a null terminated string that contains an arit...">
<polygon fill="#999999" stroke="#666666" points="1028.38,-350.75 867.62,-350.75 867.62,-331.5 1028.38,-331.5 1028.38,-350.75"/>
<text text-anchor="middle" x="948" y="-337.25" font-family="Helvetica,sans-Serif" font-size="10.00">Cpl/Math/RealExpressionParser.h</text>
</a>
</g>
</g>
<!-- Node2 -->
<g id="Node000002" class="node">
<title>Node2</title>
<g id="a_Node000002"><a xlink:title=" ">
<polygon fill="#e0e0e0" stroke="#999999" points="932,-19.25 850,-19.25 850,0 932,0 932,-19.25"/>
<text text-anchor="middle" x="891" y="-5.75" font-family="Helvetica,sans-Serif" font-size="10.00">colony_config.h</text>
</a>
</g>
</g>
<!-- Node1&#45;&gt;Node2 -->
<g id="edge1_Node000001_Node000002" class="edge">
<title>Node1&#45;&gt;Node2</title>
<g id="a_edge1_Node000001_Node000002"><a xlink:title=" ">
<path fill="none" stroke="#63b8ff" d="M985.18,-331.11C1030.18,-317.72 1100,-287.88 1100,-231.62 1100,-231.62 1100,-231.62 1100,-119.12 1100,-48.69 1005.35,-23.92 943.44,-15.25"/>
<polygon fill="#63b8ff" stroke="#63b8ff" points="944.16,-11.81 933.79,-14 943.26,-18.76 944.16,-11.81"/>
</a>
</g>
</g>
<!-- Node3 -->
<g id="Node000003" class="node">
<title>Node3</title>
<g id="a_Node000003"><a xlink:href="_stack_8h.html" target="_top" xlink:title=" ">
<polygon fill="white" stroke="#666666" points="946.25,-295.5 835.75,-295.5 835.75,-276.25 946.25,-276.25 946.25,-295.5"/>
<text text-anchor="middle" x="891" y="-282" font-family="Helvetica,sans-Serif" font-size="10.00">Cpl/Container/Stack.h</text>
</a>
</g>
</g>
<!-- Node1&#45;&gt;Node3 -->
<g id="edge2_Node000001_Node000003" class="edge">
<title>Node1&#45;&gt;Node3</title>
<g id="a_edge2_Node000001_Node000003"><a xlink:title=" ">
<path fill="none" stroke="#63b8ff" d="M938.33,-331.09C930.26,-323.55 918.53,-312.6 908.78,-303.48"/>
<polygon fill="#63b8ff" stroke="#63b8ff" points="911.33,-301.08 901.63,-296.81 906.55,-306.19 911.33,-301.08"/>
</a>
</g>
</g>
<!-- Node5 -->
<g id="Node000005" class="node">
<title>Node5</title>
<g id="a_Node000005"><a xlink:href="_system_2_trace_8h.html" target="_top" xlink:title=" ">
<polygon fill="white" stroke="#666666" points="817.75,-295.5 716.25,-295.5 716.25,-276.25 817.75,-276.25 817.75,-295.5"/>
<text text-anchor="middle" x="767" y="-282" font-family="Helvetica,sans-Serif" font-size="10.00">Cpl/System/Trace.h</text>
</a>
</g>
</g>
<!-- Node1&#45;&gt;Node5 -->
<g id="edge4_Node000001_Node000005" class="edge">
<title>Node1&#45;&gt;Node5</title>
<g id="a_edge4_Node000001_Node000005"><a xlink:title=" ">
<path fill="none" stroke="#63b8ff" d="M917.3,-331.09C887.39,-322.29 841.72,-308.86 808.58,-299.11"/>
<polygon fill="#63b8ff" stroke="#63b8ff" points="809.89,-295.84 799.31,-296.38 807.91,-302.56 809.89,-295.84"/>
</a>
</g>
</g>
<!-- Node19 -->
<g id="Node000019" class="node">
<title>Node19</title>
<g id="a_Node000019"><a xlink:title=" ">
<polygon fill="#e0e0e0" stroke="#999999" points="477.38,-185 430.62,-185 430.62,-165.75 477.38,-165.75 477.38,-185"/>
<text text-anchor="middle" x="454" y="-171.5" font-family="Helvetica,sans-Serif" font-size="10.00">stdlib.h</text>
</a>
</g>
</g>
<!-- Node1&#45;&gt;Node19 -->
<g id="edge34_Node000001_Node000019" class="edge">
<title>Node1&#45;&gt;Node19</title>
<g id="a_edge34_Node000001_Node000019"><a xlink:title=" ">
<path fill="none" stroke="#63b8ff" d="M871.05,-331.02C823.1,-324.09 760.56,-312.75 707,-295.5 619.91,-267.45 523.93,-216.14 479.35,-191.02"/>
<polygon fill="#63b8ff" stroke="#63b8ff" points="481.15,-188.01 470.72,-186.11 477.69,-194.1 481.15,-188.01"/>
</a>
</g>
</g>
<!-- Node23 -->
<g id="Node000023" class="node">
<title>Node23</title>
<g id="a_Node000023"><a xlink:href="real_8h.html" target="_top" xlink:title="This file contains a collection of methods comparing, manipulating, etc.">
<polygon fill="white" stroke="#666666" points="1045.62,-295.5 964.38,-295.5 964.38,-276.25 1045.62,-276.25 1045.62,-295.5"/>
<text text-anchor="middle" x="1005" y="-282" font-family="Helvetica,sans-Serif" font-size="10.00">Cpl/Math/real.h</text>
</a>
</g>
</g>
<!-- Node1&#45;&gt;Node23 -->
<g id="edge30_Node000001_Node000023" class="edge">
<title>Node1&#45;&gt;Node23</title>
<g id="a_edge30_Node000001_Node000023"><a xlink:title=" ">
<path fill="none" stroke="#63b8ff" d="M957.67,-331.09C965.74,-323.55 977.47,-312.6 987.22,-303.48"/>
<polygon fill="#63b8ff" stroke="#63b8ff" points="989.45,-306.19 994.37,-296.81 984.67,-301.08 989.45,-306.19"/>
</a>
</g>
</g>
<!-- Node26 -->
<g id="Node000026" class="node">
<title>Node26</title>
<g id="a_Node000026"><a xlink:title=" ">
<polygon fill="#e0e0e0" stroke="#999999" points="1173.62,-295.5 1128.38,-295.5 1128.38,-276.25 1173.62,-276.25 1173.62,-295.5"/>
<text text-anchor="middle" x="1151" y="-282" font-family="Helvetica,sans-Serif" font-size="10.00">math.h</text>
</a>
</g>
</g>
<!-- Node1&#45;&gt;Node26 -->
<g id="edge35_Node000001_Node000026" class="edge">
<title>Node1&#45;&gt;Node26</title>
<g id="a_edge35_Node000001_Node000026"><a xlink:title=" ">
<path fill="none" stroke="#63b8ff" d="M982.44,-331.09C1020.06,-321.22 1079.93,-305.52 1117.27,-295.72"/>
<polygon fill="#63b8ff" stroke="#63b8ff" points="1117.84,-299.19 1126.62,-293.27 1116.06,-292.42 1117.84,-299.19"/>
</a>
</g>
</g>
<!-- Node4 -->
<g id="Node000004" class="node">
<title>Node4</title>
<g id="a_Node000004"><a xlink:title=" ">
<polygon fill="#e0e0e0" stroke="#999999" points="914.75,-74.5 867.25,-74.5 867.25,-55.25 914.75,-55.25 914.75,-74.5"/>
<text text-anchor="middle" x="891" y="-61" font-family="Helvetica,sans-Serif" font-size="10.00">stdint.h</text>
</a>
</g>
</g>
<!-- Node3&#45;&gt;Node4 -->
<g id="edge3_Node000003_Node000004" class="edge">
<title>Node3&#45;&gt;Node4</title>
<g id="a_edge3_Node000003_Node000004"><a xlink:title=" ">
<path fill="none" stroke="#63b8ff" d="M891,-276.02C891,-243.76 891,-132.01 891,-85.96"/>
<polygon fill="#63b8ff" stroke="#63b8ff" points="894.5,-86.12 891,-76.12 887.5,-86.12 894.5,-86.12"/>
</a>
</g>
</g>
<!-- Node5&#45;&gt;Node2 -->
<g id="edge5_Node000005_Node000002" class="edge">
<title>Node5&#45;&gt;Node2</title>
<g id="a_edge5_Node000005_Node000002"><a xlink:title=" ">
<path fill="none" stroke="#63b8ff" d="M778.57,-275.79C798.92,-258.7 839,-219.55 839,-176.38 839,-176.38 839,-176.38 839,-119.12 839,-89.51 844.77,-81.75 858,-55.25 862.72,-45.79 869.45,-36.25 875.61,-28.43"/>
<polygon fill="#63b8ff" stroke="#63b8ff" points="878.28,-30.69 881.94,-20.74 872.88,-26.24 878.28,-30.69"/>
</a>
</g>
</g>
<!-- Node6 -->
<g id="Node000006" class="node">
<title>Node6</title>
<g id="a_Node000006"><a xlink:href="_text_2_string_8h.html" target="_top" xlink:title=" ">
<polygon fill="white" stroke="#666666" points="811,-185 723,-185 723,-165.75 811,-165.75 811,-185"/>
<text text-anchor="middle" x="767" y="-171.5" font-family="Helvetica,sans-Serif" font-size="10.00">Cpl/Text/String.h</text>
</a>
</g>
</g>
<!-- Node5&#45;&gt;Node6 -->
<g id="edge6_Node000005_Node000006" class="edge">
<title>Node5&#45;&gt;Node6</title>
<g id="a_edge6_Node000005_Node000006"><a xlink:title=" ">
<path fill="none" stroke="#63b8ff" d="M767,-276C767,-258.75 767,-220.33 767,-196.56"/>
<polygon fill="#63b8ff" stroke="#63b8ff" points="770.5,-196.89 767,-186.89 763.5,-196.89 770.5,-196.89"/>
</a>
</g>
</g>
<!-- Node14 -->
<g id="Node000014" class="node">
<title>Node14</title>
<g id="a_Node000014"><a xlink:href="_thread_8h.html" target="_top" xlink:title=" ">
<polygon fill="white" stroke="#666666" points="366.38,-240.25 259.62,-240.25 259.62,-221 366.38,-221 366.38,-240.25"/>
<text text-anchor="middle" x="313" y="-226.75" font-family="Helvetica,sans-Serif" font-size="10.00">Cpl/System/Thread.h</text>
</a>
</g>
</g>
<!-- Node5&#45;&gt;Node14 -->
<g id="edge17_Node000005_Node000014" class="edge">
<title>Node5&#45;&gt;Node14</title>
<g id="a_edge17_Node000005_Node000014"><a xlink:title=" ">
<path fill="none" stroke="#63b8ff" d="M715.8,-278.87C632.85,-269.14 469.2,-249.95 378.1,-239.26"/>
<polygon fill="#63b8ff" stroke="#63b8ff" points="378.66,-235.8 368.32,-238.11 377.85,-242.75 378.66,-235.8"/>
</a>
</g>
</g>
<!-- Node20 -->
<g id="Node000020" class="node">
<title>Node20</title>
<g id="a_Node000020"><a xlink:href="_output_8h.html" target="_top" xlink:title=" ">
<polygon fill="white" stroke="#666666" points="735.62,-240.25 654.38,-240.25 654.38,-221 735.62,-221 735.62,-240.25"/>
<text text-anchor="middle" x="695" y="-226.75" font-family="Helvetica,sans-Serif" font-size="10.00">Cpl/Io/Output.h</text>
</a>
</g>
</g>
<!-- Node5&#45;&gt;Node20 -->
<g id="edge24_Node000005_Node000020" class="edge">
<title>Node5&#45;&gt;Node20</title>
<g id="a_edge24_Node000005_Node000020"><a xlink:title=" ">
<path fill="none" stroke="#63b8ff" d="M754.79,-275.84C744.17,-267.99 728.56,-256.45 715.96,-247.12"/>
<polygon fill="#63b8ff" stroke="#63b8ff" points="718.37,-244.56 708.25,-241.42 714.21,-250.19 718.37,-244.56"/>
</a>
</g>
</g>
<!-- Node7 -->
<g id="Node000007" class="node">
<title>Node7</title>
<g id="a_Node000007"><a xlink:title=" ">
<polygon fill="#e0e0e0" stroke="#999999" points="608.62,-74.5 533.38,-74.5 533.38,-55.25 608.62,-55.25 608.62,-74.5"/>
<text text-anchor="middle" x="571" y="-61" font-family="Helvetica,sans-Serif" font-size="10.00">colony_map.h</text>
</a>
</g>
</g>
<!-- Node6&#45;&gt;Node7 -->
<g id="edge7_Node000006_Node000007" class="edge">
<title>Node6&#45;&gt;Node7</title>
<g id="a_edge7_Node000006_Node000007"><a xlink:title=" ">
<path fill="none" stroke="#63b8ff" d="M722.74,-166.46C694.05,-159.87 656.79,-148.47 628,-129.75 609.55,-117.76 593.37,-98.27 583.01,-83.97"/>
<polygon fill="#63b8ff" stroke="#63b8ff" points="585.99,-82.12 577.41,-75.9 580.24,-86.11 585.99,-82.12"/>
</a>
</g>
</g>
<!-- Node8 -->
<g id="Node000008" class="node">
<title>Node8</title>
<g id="a_Node000008"><a xlink:href="_key_8h.html" target="_top" xlink:title=" ">
<polygon fill="white" stroke="#666666" points="738.75,-129.75 637.25,-129.75 637.25,-110.5 738.75,-110.5 738.75,-129.75"/>
<text text-anchor="middle" x="688" y="-116.25" font-family="Helvetica,sans-Serif" font-size="10.00">Cpl/Container/Key.h</text>
</a>
</g>
</g>
<!-- Node6&#45;&gt;Node8 -->
<g id="edge8_Node000006_Node000008" class="edge">
<title>Node6&#45;&gt;Node8</title>
<g id="a_edge8_Node000006_Node000008"><a xlink:title=" ">
<path fill="none" stroke="#63b8ff" d="M753.6,-165.34C741.91,-157.46 724.7,-145.86 710.84,-136.52"/>
<polygon fill="#63b8ff" stroke="#63b8ff" points="712.97,-133.74 702.72,-131.05 709.06,-139.54 712.97,-133.74"/>
</a>
</g>
</g>
<!-- Node12 -->
<g id="Node000012" class="node">
<title>Node12</title>
<g id="a_Node000012"><a xlink:title=" ">
<polygon fill="#e0e0e0" stroke="#999999" points="581.25,-129.75 530.75,-129.75 530.75,-110.5 581.25,-110.5 581.25,-129.75"/>
<text text-anchor="middle" x="556" y="-116.25" font-family="Helvetica,sans-Serif" font-size="10.00">stdarg.h</text>
</a>
</g>
</g>
<!-- Node6&#45;&gt;Node12 -->
<g id="edge15_Node000006_Node000012" class="edge">
<title>Node6&#45;&gt;Node12</title>
<g id="a_edge15_Node000006_Node000012"><a xlink:title=" ">
<path fill="none" stroke="#63b8ff" d="M731.21,-165.34C692.57,-155.59 631.37,-140.15 592.48,-130.33"/>
<polygon fill="#63b8ff" stroke="#63b8ff" points="593.67,-127.02 583.12,-127.97 591.96,-133.81 593.67,-127.02"/>
</a>
</g>
</g>
<!-- Node13 -->
<g id="Node000013" class="node">
<title>Node13</title>
<g id="a_Node000013"><a xlink:title=" ">
<polygon fill="#e0e0e0" stroke="#999999" points="810.75,-129.75 757.25,-129.75 757.25,-110.5 810.75,-110.5 810.75,-129.75"/>
<text text-anchor="middle" x="784" y="-116.25" font-family="Helvetica,sans-Serif" font-size="10.00">iostream</text>
</a>
</g>
</g>
<!-- Node6&#45;&gt;Node13 -->
<g id="edge16_Node000006_Node000013" class="edge">
<title>Node6&#45;&gt;Node13</title>
<g id="a_edge16_Node000006_Node000013"><a xlink:title=" ">
<path fill="none" stroke="#63b8ff" d="M769.81,-165.58C771.94,-158.92 774.94,-149.49 777.64,-141.03"/>
<polygon fill="#63b8ff" stroke="#63b8ff" points="780.96,-142.14 780.67,-131.55 774.3,-140.01 780.96,-142.14"/>
</a>
</g>
</g>
<!-- Node8&#45;&gt;Node4 -->
<g id="edge12_Node000008_Node000004" class="edge">
<title>Node8&#45;&gt;Node4</title>
<g id="a_edge12_Node000008_Node000004"><a xlink:title=" ">
<path fill="none" stroke="#63b8ff" d="M722.44,-110.09C759.65,-100.33 818.63,-84.86 856.04,-75.04"/>
<polygon fill="#63b8ff" stroke="#63b8ff" points="856.67,-78.5 865.45,-72.58 854.89,-71.73 856.67,-78.5"/>
</a>
</g>
</g>
<!-- Node8&#45;&gt;Node7 -->
<g id="edge14_Node000008_Node000007" class="edge">
<title>Node8&#45;&gt;Node7</title>
<g id="a_edge14_Node000008_Node000007"><a xlink:title=" ">
<path fill="none" stroke="#63b8ff" d="M668.15,-110.09C649.83,-101.75 622.35,-89.25 601.29,-79.66"/>
<polygon fill="#63b8ff" stroke="#63b8ff" points="602.87,-76.54 592.32,-75.58 599.97,-82.91 602.87,-76.54"/>
</a>
</g>
</g>
<!-- Node9 -->
<g id="Node000009" class="node">
<title>Node9</title>
<g id="a_Node000009"><a xlink:href="_fatal_error_8h.html" target="_top" xlink:title=" ">
<polygon fill="white" stroke="#666666" points="745.38,-74.5 626.62,-74.5 626.62,-55.25 745.38,-55.25 745.38,-74.5"/>
<text text-anchor="middle" x="686" y="-61" font-family="Helvetica,sans-Serif" font-size="10.00">Cpl/System/FatalError.h</text>
</a>
</g>
</g>
<!-- Node8&#45;&gt;Node9 -->
<g id="edge9_Node000008_Node000009" class="edge">
<title>Node8&#45;&gt;Node9</title>
<g id="a_edge9_Node000008_Node000009"><a xlink:title=" ">
<path fill="none" stroke="#63b8ff" d="M687.67,-110.33C687.42,-103.74 687.07,-94.46 686.76,-86.07"/>
<polygon fill="#63b8ff" stroke="#63b8ff" points="690.27,-86.23 686.39,-76.37 683.27,-86.5 690.27,-86.23"/>
</a>
</g>
</g>
<!-- Node11 -->
<g id="Node000011" class="node">
<title>Node11</title>
<g id="a_Node000011"><a xlink:title=" ">
<polygon fill="#e0e0e0" stroke="#999999" points="810.75,-74.5 763.25,-74.5 763.25,-55.25 810.75,-55.25 810.75,-74.5"/>
<text text-anchor="middle" x="787" y="-61" font-family="Helvetica,sans-Serif" font-size="10.00">string.h</text>
</a>
</g>
</g>
<!-- Node8&#45;&gt;Node11 -->
<g id="edge13_Node000008_Node000011" class="edge">
<title>Node8&#45;&gt;Node11</title>
<g id="a_edge13_Node000008_Node000011"><a xlink:title=" ">
<path fill="none" stroke="#63b8ff" d="M704.79,-110.09C720.01,-101.91 742.7,-89.71 760.38,-80.19"/>
<polygon fill="#63b8ff" stroke="#63b8ff" points="761.64,-83.49 768.79,-75.67 758.33,-77.32 761.64,-83.49"/>
</a>
</g>
</g>
<!-- Node9&#45;&gt;Node2 -->
<g id="edge11_Node000009_Node000002" class="edge">
<title>Node9&#45;&gt;Node2</title>
<g id="a_edge11_Node000009_Node000002"><a xlink:title=" ">
<path fill="none" stroke="#63b8ff" d="M720.78,-54.84C755.09,-45.93 807.72,-32.26 845.37,-22.48"/>
<polygon fill="#63b8ff" stroke="#63b8ff" points="845.79,-25.98 854.59,-20.08 844.03,-19.21 845.79,-25.98"/>
</a>
</g>
</g>
<!-- Node10 -->
<g id="Node000010" class="node">
<title>Node10</title>
<g id="a_Node000010"><a xlink:title=" ">
<polygon fill="#e0e0e0" stroke="#999999" points="711.25,-19.25 660.75,-19.25 660.75,0 711.25,0 711.25,-19.25"/>
<text text-anchor="middle" x="686" y="-5.75" font-family="Helvetica,sans-Serif" font-size="10.00">stddef.h</text>
</a>
</g>
</g>
<!-- Node9&#45;&gt;Node10 -->
<g id="edge10_Node000009_Node000010" class="edge">
<title>Node9&#45;&gt;Node10</title>
<g id="a_edge10_Node000009_Node000010"><a xlink:title=" ">
<path fill="none" stroke="#63b8ff" d="M686,-55.08C686,-48.57 686,-39.42 686,-31.12"/>
<polygon fill="#63b8ff" stroke="#63b8ff" points="689.5,-31.12 686,-21.12 682.5,-31.12 689.5,-31.12"/>
</a>
</g>
</g>
<!-- Node14&#45;&gt;Node7 -->
<g id="edge18_Node000014_Node000007" class="edge">
<title>Node14&#45;&gt;Node7</title>
<g id="a_edge18_Node000014_Node000007"><a xlink:title=" ">
<path fill="none" stroke="#63b8ff" d="M305.36,-220.85C295.54,-208.44 280.69,-185.13 289,-165.75 303.02,-133.03 315.4,-126.9 347,-110.5 402.48,-81.7 474.57,-71.45 521.78,-67.82"/>
<polygon fill="#63b8ff" stroke="#63b8ff" points="521.97,-71.31 531.71,-67.14 521.49,-64.33 521.97,-71.31"/>
</a>
</g>
</g>
<!-- Node15 -->
<g id="Node000015" class="node">
<title>Node15</title>
<g id="a_Node000015"><a xlink:href="_runnable_8h.html" target="_top" xlink:title=" ">
<polygon fill="white" stroke="#666666" points="241.62,-185 124.38,-185 124.38,-165.75 241.62,-165.75 241.62,-185"/>
<text text-anchor="middle" x="183" y="-171.5" font-family="Helvetica,sans-Serif" font-size="10.00">Cpl/System/Runnable.h</text>
</a>
</g>
</g>
<!-- Node14&#45;&gt;Node15 -->
<g id="edge19_Node000014_Node000015" class="edge">
<title>Node14&#45;&gt;Node15</title>
<g id="a_edge19_Node000014_Node000015"><a xlink:title=" ">
<path fill="none" stroke="#63b8ff" d="M290.95,-220.59C270.31,-212.14 239.22,-199.4 215.7,-189.77"/>
<polygon fill="#63b8ff" stroke="#63b8ff" points="217.14,-186.58 206.56,-186.03 214.49,-193.06 217.14,-186.58"/>
</a>
</g>
</g>
<!-- Node16 -->
<g id="Node000016" class="node">
<title>Node16</title>
<g id="a_Node000016"><a xlink:href="_signable_8h.html" target="_top" xlink:title=" ">
<polygon fill="white" stroke="#666666" points="412.12,-185 297.88,-185 297.88,-165.75 412.12,-165.75 412.12,-185"/>
<text text-anchor="middle" x="355" y="-171.5" font-family="Helvetica,sans-Serif" font-size="10.00">Cpl/System/Signable.h</text>
</a>
</g>
</g>
<!-- Node14&#45;&gt;Node16 -->
<g id="edge20_Node000014_Node000016" class="edge">
<title>Node14&#45;&gt;Node16</title>
<g id="a_edge20_Node000014_Node000016"><a xlink:title=" ">
<path fill="none" stroke="#63b8ff" d="M319.94,-220.83C325.62,-213.63 333.84,-203.21 340.89,-194.26"/>
<polygon fill="#63b8ff" stroke="#63b8ff" points="343.53,-196.57 346.98,-186.55 338.04,-192.23 343.53,-196.57"/>
</a>
</g>
</g>
<!-- Node18 -->
<g id="Node000018" class="node">
<title>Node18</title>
<g id="a_Node000018"><a xlink:href="_traverser_8h.html" target="_top" xlink:title=" ">
<polygon fill="white" stroke="#666666" points="106,-185 0,-185 0,-165.75 106,-165.75 106,-185"/>
<text text-anchor="middle" x="53" y="-171.5" font-family="Helvetica,sans-Serif" font-size="10.00">Cpl/Type/Traverser.h</text>
</a>
</g>
</g>
<!-- Node14&#45;&gt;Node18 -->
<g id="edge22_Node000014_Node000018" class="edge">
<title>Node14&#45;&gt;Node18</title>
<g id="a_edge22_Node000014_Node000018"><a xlink:title=" ">
<path fill="none" stroke="#63b8ff" d="M268.6,-220.53C224.29,-211.46 156.1,-197.49 108.3,-187.7"/>
<polygon fill="#63b8ff" stroke="#63b8ff" points="109.2,-184.31 98.7,-185.73 107.79,-191.17 109.2,-184.31"/>
</a>
</g>
</g>
<!-- Node14&#45;&gt;Node19 -->
<g id="edge23_Node000014_Node000019" class="edge">
<title>Node14&#45;&gt;Node19</title>
<g id="a_edge23_Node000014_Node000019"><a xlink:title=" ">
<path fill="none" stroke="#63b8ff" d="M336.92,-220.59C359.64,-212.01 394.05,-199.02 419.69,-189.33"/>
<polygon fill="#63b8ff" stroke="#63b8ff" points="420.9,-192.62 429.02,-185.81 418.43,-186.07 420.9,-192.62"/>
</a>
</g>
</g>
<!-- Node17 -->
<g id="Node000017" class="node">
<title>Node17</title>
<g id="a_Node000017"><a xlink:href="_item_8h.html" target="_top" xlink:title=" ">
<polygon fill="white" stroke="#666666" points="460.25,-129.75 355.75,-129.75 355.75,-110.5 460.25,-110.5 460.25,-129.75"/>
<text text-anchor="middle" x="408" y="-116.25" font-family="Helvetica,sans-Serif" font-size="10.00">Cpl/Container/Item.h</text>
</a>
</g>
</g>
<!-- Node16&#45;&gt;Node17 -->
<g id="edge21_Node000016_Node000017" class="edge">
<title>Node16&#45;&gt;Node17</title>
<g id="a_edge21_Node000016_Node000017"><a xlink:title=" ">
<path fill="none" stroke="#63b8ff" d="M363.75,-165.58C371.15,-158.15 381.96,-147.29 391.05,-138.16"/>
<polygon fill="#63b8ff" stroke="#63b8ff" points="393.42,-140.74 397.99,-131.18 388.46,-135.8 393.42,-140.74"/>
</a>
</g>
</g>
<!-- Node20&#45;&gt;Node6 -->
<g id="edge25_Node000020_Node000006" class="edge">
<title>Node20&#45;&gt;Node6</title>
<g id="a_edge25_Node000020_Node000006"><a xlink:title=" ">
<path fill="none" stroke="#63b8ff" d="M707.21,-220.59C717.83,-212.74 733.44,-201.2 746.04,-191.87"/>
<polygon fill="#63b8ff" stroke="#63b8ff" points="747.79,-194.94 753.75,-186.17 743.63,-189.31 747.79,-194.94"/>
</a>
</g>
</g>
<!-- Node20&#45;&gt;Node12 -->
<g id="edge29_Node000020_Node000012" class="edge">
<title>Node20&#45;&gt;Node12</title>
<g id="a_edge29_Node000020_Node000012"><a xlink:title=" ">
<path fill="none" stroke="#63b8ff" d="M694.76,-220.55C693.92,-206.93 690.38,-181.13 676,-165.75 664.3,-153.24 623.22,-139.63 592.36,-130.77"/>
<polygon fill="#63b8ff" stroke="#63b8ff" points="593.55,-127.47 582.98,-128.14 591.66,-134.21 593.55,-127.47"/>
</a>
</g>
</g>
<!-- Node21 -->
<g id="Node000021" class="node">
<title>Node21</title>
<g id="a_Node000021"><a xlink:href="_close_8h.html" target="_top" xlink:title=" ">
<polygon fill="white" stroke="#666666" points="667.38,-185 590.62,-185 590.62,-165.75 667.38,-165.75 667.38,-185"/>
<text text-anchor="middle" x="629" y="-171.5" font-family="Helvetica,sans-Serif" font-size="10.00">Cpl/Io/Close.h</text>
</a>
</g>
</g>
<!-- Node20&#45;&gt;Node21 -->
<g id="edge26_Node000020_Node000021" class="edge">
<title>Node20&#45;&gt;Node21</title>
<g id="a_edge26_Node000020_Node000021"><a xlink:title=" ">
<path fill="none" stroke="#63b8ff" d="M683.8,-220.59C674.26,-212.9 660.33,-201.65 648.89,-192.43"/>
<polygon fill="#63b8ff" stroke="#63b8ff" points="651.19,-189.78 641.21,-186.23 646.79,-195.23 651.19,-189.78"/>
</a>
</g>
</g>
<!-- Node22 -->
<g id="Node000022" class="node">
<title>Node22</title>
<g id="a_Node000022"><a xlink:href="_is_eos_8h.html" target="_top" xlink:title=" ">
<polygon fill="white" stroke="#666666" points="572.38,-185 495.62,-185 495.62,-165.75 572.38,-165.75 572.38,-185"/>
<text text-anchor="middle" x="534" y="-171.5" font-family="Helvetica,sans-Serif" font-size="10.00">Cpl/Io/IsEos.h</text>
</a>
</g>
</g>
<!-- Node20&#45;&gt;Node22 -->
<g id="edge28_Node000020_Node000022" class="edge">
<title>Node20&#45;&gt;Node22</title>
<g id="a_edge28_Node000020_Node000022"><a xlink:title=" ">
<path fill="none" stroke="#63b8ff" d="M667.69,-220.59C641.44,-211.91 601.52,-198.71 572.14,-188.99"/>
<polygon fill="#63b8ff" stroke="#63b8ff" points="573.48,-185.74 562.88,-185.93 571.28,-192.39 573.48,-185.74"/>
</a>
</g>
</g>
<!-- Node21&#45;&gt;Node17 -->
<g id="edge27_Node000021_Node000017" class="edge">
<title>Node21&#45;&gt;Node17</title>
<g id="a_edge27_Node000021_Node000017"><a xlink:title=" ">
<path fill="none" stroke="#63b8ff" d="M591.26,-165.28C554.07,-156.32 497.1,-142.59 456.55,-132.82"/>
<polygon fill="#63b8ff" stroke="#63b8ff" points="457.6,-129.48 447.06,-130.54 455.96,-136.28 457.6,-129.48"/>
</a>
</g>
</g>
<!-- Node23&#45;&gt;Node2 -->
<g id="edge31_Node000023_Node000002" class="edge">
<title>Node23&#45;&gt;Node2</title>
<g id="a_edge31_Node000023_Node000002"><a xlink:title=" ">
<path fill="none" stroke="#63b8ff" d="M993.56,-275.76C983.85,-267.46 970.24,-254.38 962,-240.25 947.08,-214.67 943,-205.99 943,-176.38 943,-176.38 943,-176.38 943,-119.12 943,-89.51 937.23,-81.75 924,-55.25 919.28,-45.79 912.55,-36.25 906.39,-28.43"/>
<polygon fill="#63b8ff" stroke="#63b8ff" points="909.12,-26.24 900.06,-20.74 903.72,-30.69 909.12,-26.24"/>
</a>
</g>
</g>
<!-- Node24 -->
<g id="Node000024" class="node">
<title>Node24</title>
<g id="a_Node000024"><a xlink:title=" ">
<polygon fill="#e0e0e0" stroke="#999999" points="1071.5,-240.25 1028.5,-240.25 1028.5,-221 1071.5,-221 1071.5,-240.25"/>
<text text-anchor="middle" x="1050" y="-226.75" font-family="Helvetica,sans-Serif" font-size="10.00">cmath</text>
</a>
</g>
</g>
<!-- Node23&#45;&gt;Node24 -->
<g id="edge32_Node000023_Node000024" class="edge">
<title>Node23&#45;&gt;Node24</title>
<g id="a_edge32_Node000023_Node000024"><a xlink:title=" ">
<path fill="none" stroke="#63b8ff" d="M1012.43,-276.08C1018.58,-268.8 1027.51,-258.23 1035.13,-249.23"/>
<polygon fill="#63b8ff" stroke="#63b8ff" points="1037.65,-251.66 1041.43,-241.77 1032.3,-247.14 1037.65,-251.66"/>
</a>
</g>
</g>
<!-- Node25 -->
<g id="Node000025" class="node">
<title>Node25</title>
<g id="a_Node000025"><a xlink:title=" ">
<polygon fill="#e0e0e0" stroke="#999999" points="1010.62,-240.25 971.38,-240.25 971.38,-221 1010.62,-221 1010.62,-240.25"/>
<text text-anchor="middle" x="991" y="-226.75" font-family="Helvetica,sans-Serif" font-size="10.00">cfloat</text>
</a>
</g>
</g>
<!-- Node23&#45;&gt;Node25 -->
<g id="edge33_Node000023_Node000025" class="edge">
<title>Node23&#45;&gt;Node25</title>
<g id="a_edge33_Node000023_Node000025"><a xlink:title=" ">
<path fill="none" stroke="#63b8ff" d="M1002.69,-276.08C1000.94,-269.42 998.46,-259.99 996.23,-251.53"/>
<polygon fill="#63b8ff" stroke="#63b8ff" points="999.67,-250.85 993.75,-242.07 992.9,-252.63 999.67,-250.85"/>
</a>
</g>
</g>
</g>
</svg>
