<?xml version="1.0" encoding="UTF-8" standalone="no"?>
<!DOCTYPE svg PUBLIC "-//W3C//DTD SVG 1.1//EN"
 "http://www.w3.org/Graphics/SVG/1.1/DTD/svg11.dtd">
<!-- Generated by graphviz version 9.0.0 (20230911.1827)
 -->
<!-- Title: Cpl/Persistent/RecordServer.h Pages: 1 -->
<svg width="1681pt" height="525pt"
 viewBox="0.00 0.00 1681.38 524.50" xmlns="http://www.w3.org/2000/svg" xmlns:xlink="http://www.w3.org/1999/xlink">
<g id="graph0" class="graph" transform="scale(1 1) rotate(0) translate(4 520.5)">
<title>Cpl/Persistent/RecordServer.h</title>
<!-- Node1 -->
<g id="Node000001" class="node">
<title>Node1</title>
<g id="a_Node000001"><a xlink:title=" ">
<polygon fill="#999999" stroke="#666666" points="556.5,-516.5 409.25,-516.5 409.25,-497.25 556.5,-497.25 556.5,-516.5"/>
<text text-anchor="middle" x="482.88" y="-503" font-family="Helvetica,sans-Serif" font-size="10.00">Cpl/Persistent/RecordServer.h</text>
</a>
</g>
</g>
<!-- Node2 -->
<g id="Node000002" class="node">
<title>Node2</title>
<g id="a_Node000002"><a xlink:href="_persistent_2_record_8h.html" target="_top" xlink:title=" ">
<polygon fill="white" stroke="#666666" points="542.25,-461.25 423.5,-461.25 423.5,-442 542.25,-442 542.25,-461.25"/>
<text text-anchor="middle" x="482.88" y="-447.75" font-family="Helvetica,sans-Serif" font-size="10.00">Cpl/Persistent/Record.h</text>
</a>
</g>
</g>
<!-- Node1&#45;&gt;Node2 -->
<g id="edge1_Node000001_Node000002" class="edge">
<title>Node1&#45;&gt;Node2</title>
<g id="a_edge1_Node000001_Node000002"><a xlink:title=" ">
<path fill="none" stroke="#63b8ff" d="M482.88,-497.08C482.88,-490.57 482.88,-481.42 482.88,-473.12"/>
<polygon fill="#63b8ff" stroke="#63b8ff" points="486.38,-473.12 482.88,-463.12 479.38,-473.12 486.38,-473.12"/>
</a>
</g>
</g>
<!-- Node3 -->
<g id="Node000003" class="node">
<title>Node3</title>
<g id="a_Node000003"><a xlink:href="_dm_2_mailbox_server_8h.html" target="_top" xlink:title=" ">
<polygon fill="white" stroke="#666666" points="630,-406 509.75,-406 509.75,-386.75 630,-386.75 630,-406"/>
<text text-anchor="middle" x="569.88" y="-392.5" font-family="Helvetica,sans-Serif" font-size="10.00">Cpl/Dm/MailboxServer.h</text>
</a>
</g>
</g>
<!-- Node1&#45;&gt;Node3 -->
<g id="edge39_Node000001_Node000003" class="edge">
<title>Node1&#45;&gt;Node3</title>
<g id="a_edge39_Node000001_Node000003"><a xlink:title=" ">
<path fill="none" stroke="#63b8ff" d="M504.2,-496.78C519.29,-489.31 538.91,-477.34 550.88,-461.25 560.4,-448.45 565.18,-430.9 567.56,-417.44"/>
<polygon fill="#63b8ff" stroke="#63b8ff" points="571.02,-417.96 568.97,-407.56 564.09,-416.97 571.02,-417.96"/>
</a>
</g>
</g>
<!-- Node27 -->
<g id="Node000027" class="node">
<title>Node27</title>
<g id="a_Node000027"><a xlink:href="_close_sync_8h.html" target="_top" xlink:title=" ">
<polygon fill="white" stroke="#666666" points="393.62,-461.25 292.12,-461.25 292.12,-442 393.62,-442 393.62,-461.25"/>
<text text-anchor="middle" x="342.88" y="-447.75" font-family="Helvetica,sans-Serif" font-size="10.00">Cpl/Itc/CloseSync.h</text>
</a>
</g>
</g>
<!-- Node1&#45;&gt;Node27 -->
<g id="edge40_Node000001_Node000027" class="edge">
<title>Node1&#45;&gt;Node27</title>
<g id="a_edge40_Node000001_Node000027"><a xlink:title=" ">
<path fill="none" stroke="#63b8ff" d="M459.13,-496.84C436.7,-488.31 402.81,-475.42 377.4,-465.76"/>
<polygon fill="#63b8ff" stroke="#63b8ff" points="378.75,-462.52 368.16,-462.24 376.26,-469.07 378.75,-462.52"/>
</a>
</g>
</g>
<!-- Node2&#45;&gt;Node3 -->
<g id="edge2_Node000002_Node000003" class="edge">
<title>Node2&#45;&gt;Node3</title>
<g id="a_edge2_Node000002_Node000003"><a xlink:title=" ">
<path fill="none" stroke="#63b8ff" d="M497.63,-441.59C510.76,-433.56 530.2,-421.66 545.61,-412.23"/>
<polygon fill="#63b8ff" stroke="#63b8ff" points="547.05,-415.45 553.75,-407.24 543.4,-409.48 547.05,-415.45"/>
</a>
</g>
</g>
<!-- Node4 -->
<g id="Node000004" class="node">
<title>Node4</title>
<g id="a_Node000004"><a xlink:href="_dm_2_event_loop_8h.html" target="_top" xlink:title=" ">
<polygon fill="white" stroke="#666666" points="972.5,-240.25 867.25,-240.25 867.25,-221 972.5,-221 972.5,-240.25"/>
<text text-anchor="middle" x="919.88" y="-226.75" font-family="Helvetica,sans-Serif" font-size="10.00">Cpl/Dm/EventLoop.h</text>
</a>
</g>
</g>
<!-- Node3&#45;&gt;Node4 -->
<g id="edge3_Node000003_Node000004" class="edge">
<title>Node3&#45;&gt;Node4</title>
<g id="a_edge3_Node000003_Node000004"><a xlink:title=" ">
<path fill="none" stroke="#63b8ff" d="M589.19,-386.34C647.28,-359.16 820.63,-278.06 890.35,-245.44"/>
<polygon fill="#63b8ff" stroke="#63b8ff" points="891.67,-248.68 899.25,-241.28 888.71,-242.34 891.67,-248.68"/>
</a>
</g>
</g>
<!-- Node23 -->
<g id="Node000023" class="node">
<title>Node23</title>
<g id="a_Node000023"><a xlink:href="_mailbox_8h.html" target="_top" xlink:title=" ">
<polygon fill="white" stroke="#666666" points="489.88,-185 401.88,-185 401.88,-165.75 489.88,-165.75 489.88,-185"/>
<text text-anchor="middle" x="445.88" y="-171.5" font-family="Helvetica,sans-Serif" font-size="10.00">Cpl/Itc/Mailbox.h</text>
</a>
</g>
</g>
<!-- Node3&#45;&gt;Node23 -->
<g id="edge32_Node000003_Node000023" class="edge">
<title>Node3&#45;&gt;Node23</title>
<g id="a_edge32_Node000003_Node000023"><a xlink:title=" ">
<path fill="none" stroke="#63b8ff" d="M564.86,-386.52C546.4,-353.91 481.96,-240.11 456.42,-195"/>
<polygon fill="#63b8ff" stroke="#63b8ff" points="459.53,-193.4 451.56,-186.42 453.44,-196.85 459.53,-193.4"/>
</a>
</g>
</g>
<!-- Node5 -->
<g id="Node000005" class="node">
<title>Node5</title>
<g id="a_Node000005"><a xlink:href="_system_2_event_loop_8h.html" target="_top" xlink:title=" ">
<polygon fill="white" stroke="#666666" points="1070.5,-185 947.25,-185 947.25,-165.75 1070.5,-165.75 1070.5,-185"/>
<text text-anchor="middle" x="1008.88" y="-171.5" font-family="Helvetica,sans-Serif" font-size="10.00">Cpl/System/EventLoop.h</text>
</a>
</g>
</g>
<!-- Node4&#45;&gt;Node5 -->
<g id="edge4_Node000004_Node000005" class="edge">
<title>Node4&#45;&gt;Node5</title>
<g id="a_edge4_Node000004_Node000005"><a xlink:title=" ">
<path fill="none" stroke="#63b8ff" d="M934.97,-220.59C948.4,-212.56 968.29,-200.66 984.05,-191.23"/>
<polygon fill="#63b8ff" stroke="#63b8ff" points="985.62,-194.37 992.4,-186.23 982.03,-188.36 985.62,-194.37"/>
</a>
</g>
</g>
<!-- Node17 -->
<g id="Node000017" class="node">
<title>Node17</title>
<g id="a_Node000017"><a xlink:href="_d_list_8h.html" target="_top" xlink:title=" ">
<polygon fill="white" stroke="#666666" points="968,-74.5 859.75,-74.5 859.75,-55.25 968,-55.25 968,-74.5"/>
<text text-anchor="middle" x="913.88" y="-61" font-family="Helvetica,sans-Serif" font-size="10.00">Cpl/Container/DList.h</text>
</a>
</g>
</g>
<!-- Node4&#45;&gt;Node17 -->
<g id="edge26_Node000004_Node000017" class="edge">
<title>Node4&#45;&gt;Node17</title>
<g id="a_edge26_Node000004_Node000017"><a xlink:title=" ">
<path fill="none" stroke="#63b8ff" d="M866.88,-228.74C750.83,-225.04 491,-206.14 574.88,-110.5 583.8,-100.33 751.99,-82.01 848.04,-72.31"/>
<polygon fill="#63b8ff" stroke="#63b8ff" points="848.27,-75.8 857.87,-71.32 847.57,-68.84 848.27,-75.8"/>
</a>
</g>
</g>
<!-- Node18 -->
<g id="Node000018" class="node">
<title>Node18</title>
<g id="a_Node000018"><a xlink:href="_thread_8h.html" target="_top" xlink:title=" ">
<polygon fill="white" stroke="#666666" points="834.25,-185 727.5,-185 727.5,-165.75 834.25,-165.75 834.25,-185"/>
<text text-anchor="middle" x="780.88" y="-171.5" font-family="Helvetica,sans-Serif" font-size="10.00">Cpl/System/Thread.h</text>
</a>
</g>
</g>
<!-- Node4&#45;&gt;Node18 -->
<g id="edge20_Node000004_Node000018" class="edge">
<title>Node4&#45;&gt;Node18</title>
<g id="a_edge20_Node000004_Node000018"><a xlink:title=" ">
<path fill="none" stroke="#63b8ff" d="M896.3,-220.59C874.03,-212.06 840.38,-199.17 815.15,-189.51"/>
<polygon fill="#63b8ff" stroke="#63b8ff" points="816.57,-186.3 805.98,-185.99 814.07,-192.84 816.57,-186.3"/>
</a>
</g>
</g>
<!-- Node21 -->
<g id="Node000021" class="node">
<title>Node21</title>
<g id="a_Node000021"><a xlink:href="_subscriber_api_8h.html" target="_top" xlink:title=" ">
<polygon fill="white" stroke="#666666" points="1577.62,-74.5 1458.12,-74.5 1458.12,-55.25 1577.62,-55.25 1577.62,-74.5"/>
<text text-anchor="middle" x="1517.88" y="-61" font-family="Helvetica,sans-Serif" font-size="10.00">Cpl/Dm/SubscriberApi.h</text>
</a>
</g>
</g>
<!-- Node4&#45;&gt;Node21 -->
<g id="edge27_Node000004_Node000021" class="edge">
<title>Node4&#45;&gt;Node21</title>
<g id="a_edge27_Node000004_Node000021"><a xlink:title=" ">
<path fill="none" stroke="#63b8ff" d="M972.68,-227.47C1100.39,-221.19 1421.18,-198.76 1498.88,-129.75 1511.19,-118.82 1515.68,-100.3 1517.25,-86.01"/>
<polygon fill="#63b8ff" stroke="#63b8ff" points="1520.72,-86.56 1517.89,-76.35 1513.73,-86.09 1520.72,-86.56"/>
</a>
</g>
</g>
<!-- Node22 -->
<g id="Node000022" class="node">
<title>Node22</title>
<g id="a_Node000022"><a xlink:href="_notification_api___8h.html" target="_top" xlink:title=" ">
<polygon fill="white" stroke="#666666" points="1673.38,-185 1546.38,-185 1546.38,-165.75 1673.38,-165.75 1673.38,-185"/>
<text text-anchor="middle" x="1609.88" y="-171.5" font-family="Helvetica,sans-Serif" font-size="10.00">Cpl/Dm/NotificationApi_.h</text>
</a>
</g>
</g>
<!-- Node4&#45;&gt;Node22 -->
<g id="edge30_Node000004_Node000022" class="edge">
<title>Node4&#45;&gt;Node22</title>
<g id="a_edge30_Node000004_Node000022"><a xlink:title=" ">
<path fill="none" stroke="#63b8ff" d="M972.73,-226.44C1078.83,-219.89 1325.27,-203.95 1531.88,-185 1532.88,-184.91 1533.9,-184.81 1534.92,-184.72"/>
<polygon fill="#63b8ff" stroke="#63b8ff" points="1534.93,-188.23 1544.54,-183.78 1534.24,-181.27 1534.93,-188.23"/>
</a>
</g>
</g>
<!-- Node6 -->
<g id="Node000006" class="node">
<title>Node6</title>
<g id="a_Node000006"><a xlink:href="_runnable_8h.html" target="_top" xlink:title=" ">
<polygon fill="white" stroke="#666666" points="889.5,-129.75 772.25,-129.75 772.25,-110.5 889.5,-110.5 889.5,-129.75"/>
<text text-anchor="middle" x="830.88" y="-116.25" font-family="Helvetica,sans-Serif" font-size="10.00">Cpl/System/Runnable.h</text>
</a>
</g>
</g>
<!-- Node5&#45;&gt;Node6 -->
<g id="edge5_Node000005_Node000006" class="edge">
<title>Node5&#45;&gt;Node6</title>
<g id="a_edge5_Node000005_Node000006"><a xlink:title=" ">
<path fill="none" stroke="#63b8ff" d="M978.68,-165.34C949.4,-156.58 904.75,-143.23 872.19,-133.48"/>
<polygon fill="#63b8ff" stroke="#63b8ff" points="873.25,-130.15 862.67,-130.64 871.25,-136.86 873.25,-130.15"/>
</a>
</g>
</g>
<!-- Node7 -->
<g id="Node000007" class="node">
<title>Node7</title>
<g id="a_Node000007"><a xlink:href="_semaphore_8h.html" target="_top" xlink:title=" ">
<polygon fill="white" stroke="#666666" points="1072,-129.75 945.75,-129.75 945.75,-110.5 1072,-110.5 1072,-129.75"/>
<text text-anchor="middle" x="1008.88" y="-116.25" font-family="Helvetica,sans-Serif" font-size="10.00">Cpl/System/Semaphore.h</text>
</a>
</g>
</g>
<!-- Node5&#45;&gt;Node7 -->
<g id="edge6_Node000005_Node000007" class="edge">
<title>Node5&#45;&gt;Node7</title>
<g id="a_edge6_Node000005_Node000007"><a xlink:title=" ">
<path fill="none" stroke="#63b8ff" d="M1008.88,-165.58C1008.88,-159.07 1008.88,-149.92 1008.88,-141.62"/>
<polygon fill="#63b8ff" stroke="#63b8ff" points="1012.38,-141.62 1008.88,-131.62 1005.38,-141.62 1012.38,-141.62"/>
</a>
</g>
</g>
<!-- Node9 -->
<g id="Node000009" class="node">
<title>Node9</title>
<g id="a_Node000009"><a xlink:href="_signable_8h.html" target="_top" xlink:title=" ">
<polygon fill="white" stroke="#666666" points="798,-74.5 683.75,-74.5 683.75,-55.25 798,-55.25 798,-74.5"/>
<text text-anchor="middle" x="740.88" y="-61" font-family="Helvetica,sans-Serif" font-size="10.00">Cpl/System/Signable.h</text>
</a>
</g>
</g>
<!-- Node5&#45;&gt;Node9 -->
<g id="edge10_Node000005_Node000009" class="edge">
<title>Node5&#45;&gt;Node9</title>
<g id="a_edge10_Node000005_Node000009"><a xlink:title=" ">
<path fill="none" stroke="#63b8ff" d="M994.56,-165.46C969.43,-149.9 918.19,-118.68 898.88,-110.5 865.45,-96.34 826.18,-85.22 795.15,-77.63"/>
<polygon fill="#63b8ff" stroke="#63b8ff" points="796.13,-74.26 785.59,-75.34 794.5,-81.07 796.13,-74.26"/>
</a>
</g>
</g>
<!-- Node11 -->
<g id="Node000011" class="node">
<title>Node11</title>
<g id="a_Node000011"><a xlink:href="_event_flag_8h.html" target="_top" xlink:title=" ">
<polygon fill="white" stroke="#666666" points="1440,-74.5 1319.75,-74.5 1319.75,-55.25 1440,-55.25 1440,-74.5"/>
<text text-anchor="middle" x="1379.88" y="-61" font-family="Helvetica,sans-Serif" font-size="10.00">Cpl/System/EventFlag.h</text>
</a>
</g>
</g>
<!-- Node5&#45;&gt;Node11 -->
<g id="edge11_Node000005_Node000011" class="edge">
<title>Node5&#45;&gt;Node11</title>
<g id="a_edge11_Node000005_Node000011"><a xlink:title=" ">
<path fill="none" stroke="#63b8ff" d="M1070.77,-170.91C1126.26,-166.22 1209.11,-155.26 1276.88,-129.75 1293.4,-123.53 1332.55,-98 1357.54,-81.16"/>
<polygon fill="#63b8ff" stroke="#63b8ff" points="1359.4,-84.13 1365.71,-75.62 1355.47,-78.33 1359.4,-84.13"/>
</a>
</g>
</g>
<!-- Node14 -->
<g id="Node000014" class="node">
<title>Node14</title>
<g id="a_Node000014"><a xlink:href="_shared_event_handler_8h.html" target="_top" xlink:title=" ">
<polygon fill="white" stroke="#666666" points="1489.88,-129.75 1323.88,-129.75 1323.88,-110.5 1489.88,-110.5 1489.88,-129.75"/>
<text text-anchor="middle" x="1406.88" y="-116.25" font-family="Helvetica,sans-Serif" font-size="10.00">Cpl/System/SharedEventHandler.h</text>
</a>
</g>
</g>
<!-- Node5&#45;&gt;Node14 -->
<g id="edge14_Node000005_Node000014" class="edge">
<title>Node5&#45;&gt;Node14</title>
<g id="a_edge14_Node000005_Node000014"><a xlink:title=" ">
<path fill="none" stroke="#63b8ff" d="M1070.63,-166.11C1139.78,-156.86 1252.06,-141.84 1327.64,-131.73"/>
<polygon fill="#63b8ff" stroke="#63b8ff" points="1328.03,-135.21 1337.48,-130.41 1327.1,-128.27 1328.03,-135.21"/>
</a>
</g>
</g>
<!-- Node15 -->
<g id="Node000015" class="node">
<title>Node15</title>
<g id="a_Node000015"><a xlink:href="_timer_manager_8h.html" target="_top" xlink:title=" ">
<polygon fill="white" stroke="#666666" points="1267.38,-129.75 1128.38,-129.75 1128.38,-110.5 1267.38,-110.5 1267.38,-129.75"/>
<text text-anchor="middle" x="1197.88" y="-116.25" font-family="Helvetica,sans-Serif" font-size="10.00">Cpl/System/TimerManager.h</text>
</a>
</g>
</g>
<!-- Node5&#45;&gt;Node15 -->
<g id="edge16_Node000005_Node000015" class="edge">
<title>Node5&#45;&gt;Node15</title>
<g id="a_edge16_Node000005_Node000015"><a xlink:title=" ">
<path fill="none" stroke="#63b8ff" d="M1040.94,-165.34C1072.3,-156.51 1120.26,-142.99 1154.91,-133.23"/>
<polygon fill="#63b8ff" stroke="#63b8ff" points="1155.52,-136.69 1164.2,-130.61 1153.63,-129.96 1155.52,-136.69"/>
</a>
</g>
</g>
<!-- Node8 -->
<g id="Node000008" class="node">
<title>Node8</title>
<g id="a_Node000008"><a xlink:title=" ">
<polygon fill="#e0e0e0" stroke="#999999" points="1083.5,-74.5 1008.25,-74.5 1008.25,-55.25 1083.5,-55.25 1083.5,-74.5"/>
<text text-anchor="middle" x="1045.88" y="-61" font-family="Helvetica,sans-Serif" font-size="10.00">colony_map.h</text>
</a>
</g>
</g>
<!-- Node7&#45;&gt;Node8 -->
<g id="edge7_Node000007_Node000008" class="edge">
<title>Node7&#45;&gt;Node8</title>
<g id="a_edge7_Node000007_Node000008"><a xlink:title=" ">
<path fill="none" stroke="#63b8ff" d="M1014.98,-110.33C1019.94,-103.21 1027.08,-92.93 1033.25,-84.05"/>
<polygon fill="#63b8ff" stroke="#63b8ff" points="1035.94,-86.31 1038.77,-76.1 1030.19,-82.32 1035.94,-86.31"/>
</a>
</g>
</g>
<!-- Node7&#45;&gt;Node9 -->
<g id="edge8_Node000007_Node000009" class="edge">
<title>Node7&#45;&gt;Node9</title>
<g id="a_edge8_Node000007_Node000009"><a xlink:title=" ">
<path fill="none" stroke="#63b8ff" d="M963.11,-110.03C917.34,-100.94 846.85,-86.93 797.56,-77.14"/>
<polygon fill="#63b8ff" stroke="#63b8ff" points="798.43,-73.74 787.94,-75.23 797.06,-80.61 798.43,-73.74"/>
</a>
</g>
</g>
<!-- Node10 -->
<g id="Node000010" class="node">
<title>Node10</title>
<g id="a_Node000010"><a xlink:href="_item_8h.html" target="_top" xlink:title=" ">
<polygon fill="white" stroke="#666666" points="793.12,-19.25 688.62,-19.25 688.62,0 793.12,0 793.12,-19.25"/>
<text text-anchor="middle" x="740.88" y="-5.75" font-family="Helvetica,sans-Serif" font-size="10.00">Cpl/Container/Item.h</text>
</a>
</g>
</g>
<!-- Node9&#45;&gt;Node10 -->
<g id="edge9_Node000009_Node000010" class="edge">
<title>Node9&#45;&gt;Node10</title>
<g id="a_edge9_Node000009_Node000010"><a xlink:title=" ">
<path fill="none" stroke="#63b8ff" d="M740.88,-55.08C740.88,-48.57 740.88,-39.42 740.88,-31.12"/>
<polygon fill="#63b8ff" stroke="#63b8ff" points="744.38,-31.12 740.88,-21.12 737.38,-31.12 744.38,-31.12"/>
</a>
</g>
</g>
<!-- Node12 -->
<g id="Node000012" class="node">
<title>Node12</title>
<g id="a_Node000012"><a xlink:title=" ">
<polygon fill="#e0e0e0" stroke="#999999" points="1420.88,-19.25 1338.88,-19.25 1338.88,0 1420.88,0 1420.88,-19.25"/>
<text text-anchor="middle" x="1379.88" y="-5.75" font-family="Helvetica,sans-Serif" font-size="10.00">colony_config.h</text>
</a>
</g>
</g>
<!-- Node11&#45;&gt;Node12 -->
<g id="edge12_Node000011_Node000012" class="edge">
<title>Node11&#45;&gt;Node12</title>
<g id="a_edge12_Node000011_Node000012"><a xlink:title=" ">
<path fill="none" stroke="#63b8ff" d="M1379.88,-55.08C1379.88,-48.57 1379.88,-39.42 1379.88,-31.12"/>
<polygon fill="#63b8ff" stroke="#63b8ff" points="1383.38,-31.12 1379.88,-21.12 1376.38,-31.12 1383.38,-31.12"/>
</a>
</g>
</g>
<!-- Node13 -->
<g id="Node000013" class="node">
<title>Node13</title>
<g id="a_Node000013"><a xlink:title=" ">
<polygon fill="#e0e0e0" stroke="#999999" points="1513.62,-19.25 1466.12,-19.25 1466.12,0 1513.62,0 1513.62,-19.25"/>
<text text-anchor="middle" x="1489.88" y="-5.75" font-family="Helvetica,sans-Serif" font-size="10.00">stdint.h</text>
</a>
</g>
</g>
<!-- Node11&#45;&gt;Node13 -->
<g id="edge13_Node000011_Node000013" class="edge">
<title>Node11&#45;&gt;Node13</title>
<g id="a_edge13_Node000011_Node000013"><a xlink:title=" ">
<path fill="none" stroke="#63b8ff" d="M1398.54,-54.84C1415.6,-46.58 1441.12,-34.23 1460.85,-24.68"/>
<polygon fill="#63b8ff" stroke="#63b8ff" points="1462.29,-27.87 1469.76,-20.36 1459.24,-21.57 1462.29,-27.87"/>
</a>
</g>
</g>
<!-- Node14&#45;&gt;Node11 -->
<g id="edge15_Node000014_Node000011" class="edge">
<title>Node14&#45;&gt;Node11</title>
<g id="a_edge15_Node000014_Node000011"><a xlink:title=" ">
<path fill="none" stroke="#63b8ff" d="M1402.42,-110.33C1398.92,-103.44 1393.93,-93.59 1389.53,-84.91"/>
<polygon fill="#63b8ff" stroke="#63b8ff" points="1392.76,-83.55 1385.11,-76.21 1386.52,-86.71 1392.76,-83.55"/>
</a>
</g>
</g>
<!-- Node16 -->
<g id="Node000016" class="node">
<title>Node16</title>
<g id="a_Node000016"><a xlink:href="_counter___8h.html" target="_top" xlink:title=" ">
<polygon fill="white" stroke="#666666" points="1236.75,-74.5 1121,-74.5 1121,-55.25 1236.75,-55.25 1236.75,-74.5"/>
<text text-anchor="middle" x="1178.88" y="-61" font-family="Helvetica,sans-Serif" font-size="10.00">Cpl/System/Counter_.h</text>
</a>
</g>
</g>
<!-- Node15&#45;&gt;Node16 -->
<g id="edge17_Node000015_Node000016" class="edge">
<title>Node15&#45;&gt;Node16</title>
<g id="a_edge17_Node000015_Node000016"><a xlink:title=" ">
<path fill="none" stroke="#63b8ff" d="M1194.74,-110.33C1192.33,-103.59 1188.92,-94.02 1185.87,-85.49"/>
<polygon fill="#63b8ff" stroke="#63b8ff" points="1189.25,-84.53 1182.59,-76.28 1182.65,-86.88 1189.25,-84.53"/>
</a>
</g>
</g>
<!-- Node15&#45;&gt;Node17 -->
<g id="edge19_Node000015_Node000017" class="edge">
<title>Node15&#45;&gt;Node17</title>
<g id="a_edge19_Node000015_Node000017"><a xlink:title=" ">
<path fill="none" stroke="#63b8ff" d="M1149.38,-110.03C1100.67,-100.9 1025.54,-86.81 973.29,-77.01"/>
<polygon fill="#63b8ff" stroke="#63b8ff" points="974.13,-73.61 963.66,-75.21 972.84,-80.49 974.13,-73.61"/>
</a>
</g>
</g>
<!-- Node16&#45;&gt;Node10 -->
<g id="edge18_Node000016_Node000010" class="edge">
<title>Node16&#45;&gt;Node10</title>
<g id="a_edge18_Node000016_Node000010"><a xlink:title=" ">
<path fill="none" stroke="#63b8ff" d="M1120.71,-56.8C1038.73,-46.84 889.73,-28.72 804.75,-18.39"/>
<polygon fill="#63b8ff" stroke="#63b8ff" points="805.31,-14.93 794.96,-17.2 804.46,-21.88 805.31,-14.93"/>
</a>
</g>
</g>
<!-- Node18&#45;&gt;Node6 -->
<g id="edge22_Node000018_Node000006" class="edge">
<title>Node18&#45;&gt;Node6</title>
<g id="a_edge22_Node000018_Node000006"><a xlink:title=" ">
<path fill="none" stroke="#63b8ff" d="M789.13,-165.58C796.04,-158.23 806.1,-147.51 814.61,-138.44"/>
<polygon fill="#63b8ff" stroke="#63b8ff" points="817.11,-140.9 821.4,-131.21 812.01,-136.11 817.11,-140.9"/>
</a>
</g>
</g>
<!-- Node18&#45;&gt;Node8 -->
<g id="edge21_Node000018_Node000008" class="edge">
<title>Node18&#45;&gt;Node8</title>
<g id="a_edge21_Node000018_Node000008"><a xlink:title=" ">
<path fill="none" stroke="#63b8ff" d="M834.63,-170.15C916.59,-163.16 1065.04,-148.12 1080.88,-129.75 1093.18,-115.47 1079.29,-96.17 1065.54,-82.53"/>
<polygon fill="#63b8ff" stroke="#63b8ff" points="1068.06,-80.1 1058.34,-75.89 1063.32,-85.24 1068.06,-80.1"/>
</a>
</g>
</g>
<!-- Node18&#45;&gt;Node9 -->
<g id="edge23_Node000018_Node000009" class="edge">
<title>Node18&#45;&gt;Node9</title>
<g id="a_edge23_Node000018_Node000009"><a xlink:title=" ">
<path fill="none" stroke="#63b8ff" d="M727.23,-170.25C672.72,-164.82 593.68,-153.07 574.88,-129.75 544.43,-92.01 613.8,-76.53 671.98,-70.21"/>
<polygon fill="#63b8ff" stroke="#63b8ff" points="672.33,-73.69 681.93,-69.21 671.63,-66.73 672.33,-73.69"/>
</a>
</g>
</g>
<!-- Node19 -->
<g id="Node000019" class="node">
<title>Node19</title>
<g id="a_Node000019"><a xlink:href="_traverser_8h.html" target="_top" xlink:title=" ">
<polygon fill="white" stroke="#666666" points="689.88,-129.75 583.88,-129.75 583.88,-110.5 689.88,-110.5 689.88,-129.75"/>
<text text-anchor="middle" x="636.88" y="-116.25" font-family="Helvetica,sans-Serif" font-size="10.00">Cpl/Type/Traverser.h</text>
</a>
</g>
</g>
<!-- Node18&#45;&gt;Node19 -->
<g id="edge24_Node000018_Node000019" class="edge">
<title>Node18&#45;&gt;Node19</title>
<g id="a_edge24_Node000018_Node000019"><a xlink:title=" ">
<path fill="none" stroke="#63b8ff" d="M756.45,-165.34C733.28,-156.77 698.21,-143.81 672.04,-134.13"/>
<polygon fill="#63b8ff" stroke="#63b8ff" points="673.44,-130.91 662.84,-130.73 671.01,-137.48 673.44,-130.91"/>
</a>
</g>
</g>
<!-- Node20 -->
<g id="Node000020" class="node">
<title>Node20</title>
<g id="a_Node000020"><a xlink:title=" ">
<polygon fill="#e0e0e0" stroke="#999999" points="754.25,-129.75 707.5,-129.75 707.5,-110.5 754.25,-110.5 754.25,-129.75"/>
<text text-anchor="middle" x="730.88" y="-116.25" font-family="Helvetica,sans-Serif" font-size="10.00">stdlib.h</text>
</a>
</g>
</g>
<!-- Node18&#45;&gt;Node20 -->
<g id="edge25_Node000018_Node000020" class="edge">
<title>Node18&#45;&gt;Node20</title>
<g id="a_edge25_Node000018_Node000020"><a xlink:title=" ">
<path fill="none" stroke="#63b8ff" d="M772.62,-165.58C765.71,-158.23 755.65,-147.51 747.14,-138.44"/>
<polygon fill="#63b8ff" stroke="#63b8ff" points="749.74,-136.11 740.35,-131.21 744.64,-140.9 749.74,-136.11"/>
</a>
</g>
</g>
<!-- Node21&#45;&gt;Node10 -->
<g id="edge28_Node000021_Node000010" class="edge">
<title>Node21&#45;&gt;Node10</title>
<g id="a_edge28_Node000021_Node000010"><a xlink:title=" ">
<path fill="none" stroke="#63b8ff" d="M1457.69,-56.13C1454.71,-55.82 1451.76,-55.52 1448.88,-55.25 1211.65,-32.97 928.64,-18.88 804.52,-13.32"/>
<polygon fill="#63b8ff" stroke="#63b8ff" points="805.02,-9.84 794.88,-12.9 804.71,-16.84 805.02,-9.84"/>
</a>
</g>
</g>
<!-- Node21&#45;&gt;Node13 -->
<g id="edge29_Node000021_Node000013" class="edge">
<title>Node21&#45;&gt;Node13</title>
<g id="a_edge29_Node000021_Node000013"><a xlink:title=" ">
<path fill="none" stroke="#63b8ff" d="M1513.25,-55.08C1509.63,-48.19 1504.45,-38.34 1499.88,-29.66"/>
<polygon fill="#63b8ff" stroke="#63b8ff" points="1503.06,-28.17 1495.3,-20.95 1496.86,-31.43 1503.06,-28.17"/>
</a>
</g>
</g>
<!-- Node22&#45;&gt;Node21 -->
<g id="edge31_Node000022_Node000021" class="edge">
<title>Node22&#45;&gt;Node21</title>
<g id="a_edge31_Node000022_Node000021"><a xlink:title=" ">
<path fill="none" stroke="#63b8ff" d="M1602.35,-165.5C1587.18,-147.61 1552.72,-106.97 1532.82,-83.5"/>
<polygon fill="#63b8ff" stroke="#63b8ff" points="1535.62,-81.39 1526.49,-76.03 1530.28,-85.92 1535.62,-81.39"/>
</a>
</g>
</g>
<!-- Node23&#45;&gt;Node9 -->
<g id="edge38_Node000023_Node000009" class="edge">
<title>Node23&#45;&gt;Node9</title>
<g id="a_edge38_Node000023_Node000009"><a xlink:title=" ">
<path fill="none" stroke="#63b8ff" d="M451.35,-165.25C460.38,-151.06 479.82,-123.95 503.88,-110.5 555.58,-81.59 622.52,-71.01 672.06,-67.32"/>
<polygon fill="#63b8ff" stroke="#63b8ff" points="672.05,-70.83 681.8,-66.68 671.59,-63.84 672.05,-70.83"/>
</a>
</g>
</g>
<!-- Node24 -->
<g id="Node000024" class="node">
<title>Node24</title>
<g id="a_Node000024"><a xlink:href="_post_api_8h.html" target="_top" xlink:title=" ">
<polygon fill="white" stroke="#666666" points="390.62,-129.75 301.12,-129.75 301.12,-110.5 390.62,-110.5 390.62,-129.75"/>
<text text-anchor="middle" x="345.88" y="-116.25" font-family="Helvetica,sans-Serif" font-size="10.00">Cpl/Itc/PostApi.h</text>
</a>
</g>
</g>
<!-- Node23&#45;&gt;Node24 -->
<g id="edge33_Node000023_Node000024" class="edge">
<title>Node23&#45;&gt;Node24</title>
<g id="a_edge33_Node000023_Node000024"><a xlink:title=" ">
<path fill="none" stroke="#63b8ff" d="M428.91,-165.34C413.61,-157.19 390.84,-145.07 373.01,-135.58"/>
<polygon fill="#63b8ff" stroke="#63b8ff" points="374.73,-132.52 364.26,-130.91 371.44,-138.7 374.73,-132.52"/>
</a>
</g>
</g>
<!-- Node26 -->
<g id="Node000026" class="node">
<title>Node26</title>
<g id="a_Node000026"><a xlink:href="_s_list_8h.html" target="_top" xlink:title=" ">
<polygon fill="white" stroke="#666666" points="579,-74.5 470.75,-74.5 470.75,-55.25 579,-55.25 579,-74.5"/>
<text text-anchor="middle" x="524.88" y="-61" font-family="Helvetica,sans-Serif" font-size="10.00">Cpl/Container/SList.h</text>
</a>
</g>
</g>
<!-- Node23&#45;&gt;Node26 -->
<g id="edge36_Node000023_Node000026" class="edge">
<title>Node23&#45;&gt;Node26</title>
<g id="a_edge36_Node000023_Node000026"><a xlink:title=" ">
<path fill="none" stroke="#63b8ff" d="M446.93,-165.35C448.84,-152.23 453.84,-127.6 465.88,-110.5 474.28,-98.56 486.86,-88.42 498.24,-80.84"/>
<polygon fill="#63b8ff" stroke="#63b8ff" points="499.9,-83.93 506.52,-75.66 496.19,-78 499.9,-83.93"/>
</a>
</g>
</g>
<!-- Node25 -->
<g id="Node000025" class="node">
<title>Node25</title>
<g id="a_Node000025"><a xlink:href="_message_8h.html" target="_top" xlink:title=" ">
<polygon fill="white" stroke="#666666" points="393.25,-74.5 298.5,-74.5 298.5,-55.25 393.25,-55.25 393.25,-74.5"/>
<text text-anchor="middle" x="345.88" y="-61" font-family="Helvetica,sans-Serif" font-size="10.00">Cpl/Itc/Message.h</text>
</a>
</g>
</g>
<!-- Node24&#45;&gt;Node25 -->
<g id="edge34_Node000024_Node000025" class="edge">
<title>Node24&#45;&gt;Node25</title>
<g id="a_edge34_Node000024_Node000025"><a xlink:title=" ">
<path fill="none" stroke="#63b8ff" d="M345.88,-110.33C345.88,-103.82 345.88,-94.67 345.88,-86.37"/>
<polygon fill="#63b8ff" stroke="#63b8ff" points="349.38,-86.37 345.88,-76.37 342.38,-86.37 349.38,-86.37"/>
</a>
</g>
</g>
<!-- Node25&#45;&gt;Node10 -->
<g id="edge35_Node000025_Node000010" class="edge">
<title>Node25&#45;&gt;Node10</title>
<g id="a_edge35_Node000025_Node000010"><a xlink:title=" ">
<path fill="none" stroke="#63b8ff" d="M393.52,-57.45C464.42,-47.89 597.81,-29.91 677.06,-19.23"/>
<polygon fill="#63b8ff" stroke="#63b8ff" points="677.41,-22.71 686.85,-17.91 676.47,-15.78 677.41,-22.71"/>
</a>
</g>
</g>
<!-- Node26&#45;&gt;Node10 -->
<g id="edge37_Node000026_Node000010" class="edge">
<title>Node26&#45;&gt;Node10</title>
<g id="a_edge37_Node000026_Node000010"><a xlink:title=" ">
<path fill="none" stroke="#63b8ff" d="M561.52,-54.84C597.75,-45.91 653.36,-32.2 693.06,-22.41"/>
<polygon fill="#63b8ff" stroke="#63b8ff" points="693.71,-25.86 702.58,-20.06 692.04,-19.06 693.71,-25.86"/>
</a>
</g>
</g>
<!-- Node28 -->
<g id="Node000028" class="node">
<title>Node28</title>
<g id="a_Node000028"><a xlink:href="_open_sync_8h.html" target="_top" xlink:title=" ">
<polygon fill="white" stroke="#666666" points="379.88,-406 279.88,-406 279.88,-386.75 379.88,-386.75 379.88,-406"/>
<text text-anchor="middle" x="329.88" y="-392.5" font-family="Helvetica,sans-Serif" font-size="10.00">Cpl/Itc/OpenSync.h</text>
</a>
</g>
</g>
<!-- Node27&#45;&gt;Node28 -->
<g id="edge41_Node000027_Node000028" class="edge">
<title>Node27&#45;&gt;Node28</title>
<g id="a_edge41_Node000027_Node000028"><a xlink:title=" ">
<path fill="none" stroke="#63b8ff" d="M340.73,-441.83C339.1,-435.17 336.8,-425.74 334.73,-417.28"/>
<polygon fill="#63b8ff" stroke="#63b8ff" points="338.2,-416.71 332.43,-407.83 331.4,-418.37 338.2,-416.71"/>
</a>
</g>
</g>
<!-- Node37 -->
<g id="Node000037" class="node">
<title>Node37</title>
<g id="a_Node000037"><a xlink:href="_close_request_8h.html" target="_top" xlink:title=" ">
<polygon fill="white" stroke="#666666" points="254.75,-350.75 139,-350.75 139,-331.5 254.75,-331.5 254.75,-350.75"/>
<text text-anchor="middle" x="196.88" y="-337.25" font-family="Helvetica,sans-Serif" font-size="10.00">Cpl/Itc/CloseRequest.h</text>
</a>
</g>
</g>
<!-- Node27&#45;&gt;Node37 -->
<g id="edge56_Node000027_Node000037" class="edge">
<title>Node27&#45;&gt;Node37</title>
<g id="a_edge56_Node000027_Node000037"><a xlink:title=" ">
<path fill="none" stroke="#63b8ff" d="M326.68,-441.57C311.77,-433.01 289.25,-419.49 270.88,-406 250.49,-391.03 228.75,-371.83 214.15,-358.41"/>
<polygon fill="#63b8ff" stroke="#63b8ff" points="216.87,-356.16 207.17,-351.92 212.11,-361.29 216.87,-356.16"/>
</a>
</g>
</g>
<!-- Node38 -->
<g id="Node000038" class="node">
<title>Node38</title>
<g id="a_Node000038"><a xlink:href="_close_api_8h.html" target="_top" xlink:title=" ">
<polygon fill="white" stroke="#666666" points="491.88,-406 397.88,-406 397.88,-386.75 491.88,-386.75 491.88,-406"/>
<text text-anchor="middle" x="444.88" y="-392.5" font-family="Helvetica,sans-Serif" font-size="10.00">Cpl/Itc/CloseApi.h</text>
</a>
</g>
</g>
<!-- Node27&#45;&gt;Node38 -->
<g id="edge60_Node000027_Node000038" class="edge">
<title>Node27&#45;&gt;Node38</title>
<g id="a_edge60_Node000027_Node000038"><a xlink:title=" ">
<path fill="none" stroke="#63b8ff" d="M360.18,-441.59C375.86,-433.41 399.23,-421.21 417.45,-411.69"/>
<polygon fill="#63b8ff" stroke="#63b8ff" points="418.9,-414.88 426.15,-407.15 415.66,-408.68 418.9,-414.88"/>
</a>
</g>
</g>
<!-- Node29 -->
<g id="Node000029" class="node">
<title>Node29</title>
<g id="a_Node000029"><a xlink:href="_open_api_8h.html" target="_top" xlink:title=" ">
<polygon fill="white" stroke="#666666" points="497.12,-350.75 404.62,-350.75 404.62,-331.5 497.12,-331.5 497.12,-350.75"/>
<text text-anchor="middle" x="450.88" y="-337.25" font-family="Helvetica,sans-Serif" font-size="10.00">Cpl/Itc/OpenApi.h</text>
</a>
</g>
</g>
<!-- Node28&#45;&gt;Node29 -->
<g id="edge42_Node000028_Node000029" class="edge">
<title>Node28&#45;&gt;Node29</title>
<g id="a_edge42_Node000028_Node000029"><a xlink:title=" ">
<path fill="none" stroke="#63b8ff" d="M350.4,-386.34C369.44,-377.97 398.03,-365.38 419.85,-355.78"/>
<polygon fill="#63b8ff" stroke="#63b8ff" points="421.12,-359.04 428.86,-351.81 418.3,-352.64 421.12,-359.04"/>
</a>
</g>
</g>
<!-- Node30 -->
<g id="Node000030" class="node">
<title>Node30</title>
<g id="a_Node000030"><a xlink:href="_open_request_8h.html" target="_top" xlink:title=" ">
<polygon fill="white" stroke="#666666" points="387,-350.75 272.75,-350.75 272.75,-331.5 387,-331.5 387,-350.75"/>
<text text-anchor="middle" x="329.88" y="-337.25" font-family="Helvetica,sans-Serif" font-size="10.00">Cpl/Itc/OpenRequest.h</text>
</a>
</g>
</g>
<!-- Node28&#45;&gt;Node30 -->
<g id="edge43_Node000028_Node000030" class="edge">
<title>Node28&#45;&gt;Node30</title>
<g id="a_edge43_Node000028_Node000030"><a xlink:title=" ">
<path fill="none" stroke="#63b8ff" d="M329.88,-386.58C329.88,-380.07 329.88,-370.92 329.88,-362.62"/>
<polygon fill="#63b8ff" stroke="#63b8ff" points="333.38,-362.62 329.88,-352.62 326.38,-362.62 333.38,-362.62"/>
</a>
</g>
</g>
<!-- Node31 -->
<g id="Node000031" class="node">
<title>Node31</title>
<g id="a_Node000031"><a xlink:href="_request_message_8h.html" target="_top" xlink:title=" ">
<polygon fill="white" stroke="#666666" points="190.25,-240.25 59.5,-240.25 59.5,-221 190.25,-221 190.25,-240.25"/>
<text text-anchor="middle" x="124.88" y="-226.75" font-family="Helvetica,sans-Serif" font-size="10.00">Cpl/Itc/RequestMessage.h</text>
</a>
</g>
</g>
<!-- Node30&#45;&gt;Node31 -->
<g id="edge44_Node000030_Node000031" class="edge">
<title>Node30&#45;&gt;Node31</title>
<g id="a_edge44_Node000030_Node000031"><a xlink:title=" ">
<path fill="none" stroke="#63b8ff" d="M324.5,-331.29C315.65,-317.5 296.71,-290.92 273.88,-276.25 249.31,-260.47 218.93,-250.06 192.01,-243.3"/>
<polygon fill="#63b8ff" stroke="#63b8ff" points="193.12,-239.97 182.58,-241.06 191.5,-246.78 193.12,-239.97"/>
</a>
</g>
</g>
<!-- Node34 -->
<g id="Node000034" class="node">
<title>Node34</title>
<g id="a_Node000034"><a xlink:href="_s_a_p_8h.html" target="_top" xlink:title=" ">
<polygon fill="white" stroke="#666666" points="383.5,-185 308.25,-185 308.25,-165.75 383.5,-165.75 383.5,-185"/>
<text text-anchor="middle" x="345.88" y="-171.5" font-family="Helvetica,sans-Serif" font-size="10.00">Cpl/Itc/SAP.h</text>
</a>
</g>
</g>
<!-- Node30&#45;&gt;Node34 -->
<g id="edge55_Node000030_Node000034" class="edge">
<title>Node30&#45;&gt;Node34</title>
<g id="a_edge55_Node000030_Node000034"><a xlink:title=" ">
<path fill="none" stroke="#63b8ff" d="M330.74,-331.32C333.21,-306 340.39,-232.5 343.9,-196.59"/>
<polygon fill="#63b8ff" stroke="#63b8ff" points="347.37,-197.02 344.86,-186.73 340.41,-196.34 347.37,-197.02"/>
</a>
</g>
</g>
<!-- Node35 -->
<g id="Node000035" class="node">
<title>Node35</title>
<g id="a_Node000035"><a xlink:href="_response_message_8h.html" target="_top" xlink:title=" ">
<polygon fill="white" stroke="#666666" points="265,-295.5 126.75,-295.5 126.75,-276.25 265,-276.25 265,-295.5"/>
<text text-anchor="middle" x="195.88" y="-282" font-family="Helvetica,sans-Serif" font-size="10.00">Cpl/Itc/ResponseMessage.h</text>
</a>
</g>
</g>
<!-- Node30&#45;&gt;Node35 -->
<g id="edge50_Node000030_Node000035" class="edge">
<title>Node30&#45;&gt;Node35</title>
<g id="a_edge50_Node000030_Node000035"><a xlink:title=" ">
<path fill="none" stroke="#63b8ff" d="M307.14,-331.09C285.78,-322.6 253.53,-309.79 229.25,-300.14"/>
<polygon fill="#63b8ff" stroke="#63b8ff" points="230.71,-296.95 220.12,-296.51 228.12,-303.46 230.71,-296.95"/>
</a>
</g>
</g>
<!-- Node32 -->
<g id="Node000032" class="node">
<title>Node32</title>
<g id="a_Node000032"><a xlink:href="_service_message_8h.html" target="_top" xlink:title=" ">
<polygon fill="white" stroke="#666666" points="127.75,-185 0,-185 0,-165.75 127.75,-165.75 127.75,-185"/>
<text text-anchor="middle" x="63.88" y="-171.5" font-family="Helvetica,sans-Serif" font-size="10.00">Cpl/Itc/ServiceMessage.h</text>
</a>
</g>
</g>
<!-- Node31&#45;&gt;Node32 -->
<g id="edge45_Node000031_Node000032" class="edge">
<title>Node31&#45;&gt;Node32</title>
<g id="a_edge45_Node000031_Node000032"><a xlink:title=" ">
<path fill="none" stroke="#63b8ff" d="M114.53,-220.59C105.8,-212.97 93.09,-201.87 82.58,-192.7"/>
<polygon fill="#63b8ff" stroke="#63b8ff" points="85.05,-190.21 75.21,-186.27 80.44,-195.48 85.05,-190.21"/>
</a>
</g>
</g>
<!-- Node31&#45;&gt;Node34 -->
<g id="edge48_Node000031_Node000034" class="edge">
<title>Node31&#45;&gt;Node34</title>
<g id="a_edge48_Node000031_Node000034"><a xlink:title=" ">
<path fill="none" stroke="#63b8ff" d="M162.62,-220.53C199.8,-211.57 256.78,-197.84 297.32,-188.07"/>
<polygon fill="#63b8ff" stroke="#63b8ff" points="297.92,-191.53 306.82,-185.79 296.28,-184.73 297.92,-191.53"/>
</a>
</g>
</g>
<!-- Node32&#45;&gt;Node25 -->
<g id="edge46_Node000032_Node000025" class="edge">
<title>Node32&#45;&gt;Node25</title>
<g id="a_edge46_Node000032_Node000025"><a xlink:title=" ">
<path fill="none" stroke="#63b8ff" d="M70.85,-165.33C82.22,-151.25 106.19,-124.28 132.88,-110.5 181.21,-85.54 242.54,-74.54 286.97,-69.69"/>
<polygon fill="#63b8ff" stroke="#63b8ff" points="287.06,-73.2 296.66,-68.72 286.36,-66.24 287.06,-73.2"/>
</a>
</g>
</g>
<!-- Node33 -->
<g id="Node000033" class="node">
<title>Node33</title>
<g id="a_Node000033"><a xlink:href="_return_handler_8h.html" target="_top" xlink:title=" ">
<polygon fill="white" stroke="#666666" points="259.5,-129.75 142.25,-129.75 142.25,-110.5 259.5,-110.5 259.5,-129.75"/>
<text text-anchor="middle" x="200.88" y="-116.25" font-family="Helvetica,sans-Serif" font-size="10.00">Cpl/Itc/ReturnHandler.h</text>
</a>
</g>
</g>
<!-- Node32&#45;&gt;Node33 -->
<g id="edge47_Node000032_Node000033" class="edge">
<title>Node32&#45;&gt;Node33</title>
<g id="a_edge47_Node000032_Node000033"><a xlink:title=" ">
<path fill="none" stroke="#63b8ff" d="M87.12,-165.34C109.06,-156.81 142.22,-143.92 167.09,-134.26"/>
<polygon fill="#63b8ff" stroke="#63b8ff" points="168.06,-137.64 176.11,-130.75 165.52,-131.11 168.06,-137.64"/>
</a>
</g>
</g>
<!-- Node34&#45;&gt;Node24 -->
<g id="edge49_Node000034_Node000024" class="edge">
<title>Node34&#45;&gt;Node24</title>
<g id="a_edge49_Node000034_Node000024"><a xlink:title=" ">
<path fill="none" stroke="#63b8ff" d="M345.88,-165.58C345.88,-159.07 345.88,-149.92 345.88,-141.62"/>
<polygon fill="#63b8ff" stroke="#63b8ff" points="349.38,-141.62 345.88,-131.62 342.38,-141.62 349.38,-141.62"/>
</a>
</g>
</g>
<!-- Node35&#45;&gt;Node31 -->
<g id="edge54_Node000035_Node000031" class="edge">
<title>Node35&#45;&gt;Node31</title>
<g id="a_edge54_Node000035_Node000031"><a xlink:title=" ">
<path fill="none" stroke="#63b8ff" d="M183.83,-275.84C173.47,-268.07 158.27,-256.67 145.91,-247.4"/>
<polygon fill="#63b8ff" stroke="#63b8ff" points="148.05,-244.63 137.95,-241.43 143.85,-250.23 148.05,-244.63"/>
</a>
</g>
</g>
<!-- Node36 -->
<g id="Node000036" class="node">
<title>Node36</title>
<g id="a_Node000036"><a xlink:href="_async_return_handler_8h.html" target="_top" xlink:title=" ">
<polygon fill="white" stroke="#666666" points="290,-185 145.75,-185 145.75,-165.75 290,-165.75 290,-185"/>
<text text-anchor="middle" x="217.88" y="-171.5" font-family="Helvetica,sans-Serif" font-size="10.00">Cpl/Itc/AsyncReturnHandler.h</text>
</a>
</g>
</g>
<!-- Node35&#45;&gt;Node36 -->
<g id="edge51_Node000035_Node000036" class="edge">
<title>Node35&#45;&gt;Node36</title>
<g id="a_edge51_Node000035_Node000036"><a xlink:title=" ">
<path fill="none" stroke="#63b8ff" d="M197.68,-276C201.17,-258.75 208.96,-220.33 213.78,-196.56"/>
<polygon fill="#63b8ff" stroke="#63b8ff" points="217.19,-197.36 215.75,-186.86 210.33,-195.97 217.19,-197.36"/>
</a>
</g>
</g>
<!-- Node36&#45;&gt;Node24 -->
<g id="edge53_Node000036_Node000024" class="edge">
<title>Node36&#45;&gt;Node24</title>
<g id="a_edge53_Node000036_Node000024"><a xlink:title=" ">
<path fill="none" stroke="#63b8ff" d="M239.59,-165.34C259.91,-156.89 290.52,-144.15 313.68,-134.52"/>
<polygon fill="#63b8ff" stroke="#63b8ff" points="314.77,-137.86 322.66,-130.78 312.08,-131.39 314.77,-137.86"/>
</a>
</g>
</g>
<!-- Node36&#45;&gt;Node33 -->
<g id="edge52_Node000036_Node000033" class="edge">
<title>Node36&#45;&gt;Node33</title>
<g id="a_edge52_Node000036_Node000033"><a xlink:title=" ">
<path fill="none" stroke="#63b8ff" d="M215.07,-165.58C212.94,-158.92 209.93,-149.49 207.23,-141.03"/>
<polygon fill="#63b8ff" stroke="#63b8ff" points="210.58,-140.01 204.2,-131.55 203.91,-142.14 210.58,-140.01"/>
</a>
</g>
</g>
<!-- Node37&#45;&gt;Node31 -->
<g id="edge57_Node000037_Node000031" class="edge">
<title>Node37&#45;&gt;Node31</title>
<g id="a_edge57_Node000037_Node000031"><a xlink:title=" ">
<path fill="none" stroke="#63b8ff" d="M165.4,-331.03C148.1,-324.24 128.12,-313.05 117.88,-295.5 110.13,-282.22 112.75,-264.73 116.82,-251.41"/>
<polygon fill="#63b8ff" stroke="#63b8ff" points="120.11,-252.6 120.2,-242.01 113.52,-250.23 120.11,-252.6"/>
</a>
</g>
</g>
<!-- Node37&#45;&gt;Node34 -->
<g id="edge59_Node000037_Node000034" class="edge">
<title>Node37&#45;&gt;Node34</title>
<g id="a_edge59_Node000037_Node000034"><a xlink:title=" ">
<path fill="none" stroke="#63b8ff" d="M218.73,-331.08C235.31,-323.43 257.89,-311.2 273.88,-295.5 303.95,-265.98 326.46,-221.4 337.76,-195.98"/>
<polygon fill="#63b8ff" stroke="#63b8ff" points="340.94,-197.44 341.67,-186.87 334.51,-194.67 340.94,-197.44"/>
</a>
</g>
</g>
<!-- Node37&#45;&gt;Node35 -->
<g id="edge58_Node000037_Node000035" class="edge">
<title>Node37&#45;&gt;Node35</title>
<g id="a_edge58_Node000037_Node000035"><a xlink:title=" ">
<path fill="none" stroke="#63b8ff" d="M196.71,-331.33C196.59,-324.82 196.42,-315.67 196.26,-307.37"/>
<polygon fill="#63b8ff" stroke="#63b8ff" points="199.76,-307.3 196.07,-297.37 192.76,-307.44 199.76,-307.3"/>
</a>
</g>
</g>
</g>
</svg>
