<?xml version="1.0" encoding="UTF-8" standalone="no"?>
<!DOCTYPE svg PUBLIC "-//W3C//DTD SVG 1.1//EN"
 "http://www.w3.org/Graphics/SVG/1.1/DTD/svg11.dtd">
<!-- Generated by graphviz version 9.0.0 (20230911.1827)
 -->
<!-- Title: Driver/LED/RedGreenBlue.h Pages: 1 -->
<svg width="629pt" height="204pt"
 viewBox="0.00 0.00 629.25 204.25" xmlns="http://www.w3.org/2000/svg" xmlns:xlink="http://www.w3.org/1999/xlink">
<g id="graph0" class="graph" transform="scale(1 1) rotate(0) translate(4 200.25)">
<title>Driver/LED/RedGreenBlue.h</title>
<!-- Node1 -->
<g id="Node000001" class="node">
<title>Node1</title>
<g id="a_Node000001"><a xlink:title=" ">
<polygon fill="#999999" stroke="#666666" points="394.62,-196.25 257.88,-196.25 257.88,-177 394.62,-177 394.62,-196.25"/>
<text text-anchor="middle" x="326.25" y="-182.75" font-family="Helvetica,sans-Serif" font-size="10.00">Driver/LED/RedGreenBlue.h</text>
</a>
</g>
</g>
<!-- Node2 -->
<g id="Node000002" class="node">
<title>Node2</title>
<g id="a_Node000002"><a xlink:href="_ajax_2_ui_2_status_indicator_2_api_8h.html" target="_top" xlink:title=" ">
<polygon fill="white" stroke="#666666" points="116.5,-141 0,-141 0,-110.5 116.5,-110.5 116.5,-141"/>
<text text-anchor="start" x="8" y="-127.5" font-family="Helvetica,sans-Serif" font-size="10.00">Ajax/Ui/StatusIndicator</text>
<text text-anchor="middle" x="58.25" y="-116.25" font-family="Helvetica,sans-Serif" font-size="10.00">/Api.h</text>
</a>
</g>
</g>
<!-- Node1&#45;&gt;Node2 -->
<g id="edge1_Node000001_Node000002" class="edge">
<title>Node1&#45;&gt;Node2</title>
<g id="a_edge1_Node000001_Node000002"><a xlink:title=" ">
<path fill="none" stroke="#63b8ff" d="M273.96,-174.14C228.88,-164.23 163.86,-149.95 117,-139.66"/>
<polygon fill="#63b8ff" stroke="#63b8ff" points="272.97,-177.5 283.48,-176.23 274.47,-170.67 272.97,-177.5"/>
</a>
</g>
</g>
<!-- Node3 -->
<g id="Node000003" class="node">
<title>Node3</title>
<g id="a_Node000003"><a xlink:href="_pimoroni_2_red_green_blue_8h.html" target="_top" xlink:title=" ">
<polygon fill="white" stroke="#666666" points="239.5,-141 135,-141 135,-110.5 239.5,-110.5 239.5,-141"/>
<text text-anchor="start" x="143" y="-127.5" font-family="Helvetica,sans-Serif" font-size="10.00">Driver/LED/Pimoroni</text>
<text text-anchor="middle" x="187.25" y="-116.25" font-family="Helvetica,sans-Serif" font-size="10.00">/RedGreenBlue.h</text>
</a>
</g>
</g>
<!-- Node1&#45;&gt;Node3 -->
<g id="edge2_Node000001_Node000003" class="edge">
<title>Node1&#45;&gt;Node3</title>
<g id="a_edge2_Node000001_Node000003"><a xlink:title=" ">
<path fill="none" stroke="#63b8ff" d="M294.53,-172.19C272.88,-163.02 244.2,-150.87 221.94,-141.44"/>
<polygon fill="#63b8ff" stroke="#63b8ff" points="292.87,-175.29 303.44,-175.96 295.6,-168.84 292.87,-175.29"/>
</a>
</g>
</g>
<!-- Node4 -->
<g id="Node000004" class="node">
<title>Node4</title>
<g id="a_Node000004"><a xlink:href="_t_pipe_2_red_green_blue_8h.html" target="_top" xlink:title=" ">
<polygon fill="white" stroke="#666666" points="395.38,-141 257.12,-141 257.12,-110.5 395.38,-110.5 395.38,-141"/>
<text text-anchor="start" x="265.12" y="-127.5" font-family="Helvetica,sans-Serif" font-size="10.00">Driver/LED/TPipe/RedGreen</text>
<text text-anchor="middle" x="326.25" y="-116.25" font-family="Helvetica,sans-Serif" font-size="10.00">Blue.h</text>
</a>
</g>
</g>
<!-- Node1&#45;&gt;Node4 -->
<g id="edge3_Node000001_Node000004" class="edge">
<title>Node1&#45;&gt;Node4</title>
<g id="a_edge3_Node000001_Node000004"><a xlink:title=" ">
<path fill="none" stroke="#63b8ff" d="M326.25,-165.42C326.25,-157.49 326.25,-148.56 326.25,-141.28"/>
<polygon fill="#63b8ff" stroke="#63b8ff" points="322.75,-165.17 326.25,-175.17 329.75,-165.17 322.75,-165.17"/>
</a>
</g>
</g>
<!-- Node5 -->
<g id="Node000005" class="node">
<title>Node5</title>
<g id="a_Node000005"><a xlink:href="_driver_2_pico_display_2_api_8h.html" target="_top" xlink:title=" ">
<polygon fill="white" stroke="#666666" points="509,-141 413.5,-141 413.5,-110.5 509,-110.5 509,-141"/>
<text text-anchor="start" x="421.5" y="-127.5" font-family="Helvetica,sans-Serif" font-size="10.00">Driver/PicoDisplay</text>
<text text-anchor="middle" x="461.25" y="-116.25" font-family="Helvetica,sans-Serif" font-size="10.00">/Api.h</text>
</a>
</g>
</g>
<!-- Node1&#45;&gt;Node5 -->
<g id="edge4_Node000001_Node000005" class="edge">
<title>Node1&#45;&gt;Node5</title>
<g id="a_edge4_Node000001_Node000005"><a xlink:title=" ">
<path fill="none" stroke="#63b8ff" d="M357.35,-172.06C378.34,-162.91 406.04,-150.83 427.56,-141.44"/>
<polygon fill="#63b8ff" stroke="#63b8ff" points="356.2,-168.74 348.44,-175.95 359,-175.16 356.2,-168.74"/>
</a>
</g>
</g>
<!-- Node9 -->
<g id="Node000009" class="node">
<title>Node9</title>
<g id="a_Node000009"><a xlink:href="_rgb_8h.html" target="_top" xlink:title=" ">
<polygon fill="white" stroke="#666666" points="621.25,-135.38 527.25,-135.38 527.25,-116.12 621.25,-116.12 621.25,-135.38"/>
<text text-anchor="middle" x="574.25" y="-121.88" font-family="Helvetica,sans-Serif" font-size="10.00">Eros/TShell/Rgb.h</text>
</a>
</g>
</g>
<!-- Node1&#45;&gt;Node9 -->
<g id="edge8_Node000001_Node000009" class="edge">
<title>Node1&#45;&gt;Node9</title>
<g id="a_edge8_Node000001_Node000009"><a xlink:title=" ">
<path fill="none" stroke="#63b8ff" d="M377.38,-174.05C416.1,-165.2 470.58,-152.6 518.25,-141 524.98,-139.36 532.14,-137.57 539.03,-135.83"/>
<polygon fill="#63b8ff" stroke="#63b8ff" points="376.84,-170.58 367.87,-176.21 378.39,-177.4 376.84,-170.58"/>
</a>
</g>
</g>
<!-- Node6 -->
<g id="Node000006" class="node">
<title>Node6</title>
<g id="a_Node000006"><a xlink:href="platform_8h.html" target="_top" xlink:title="This file contains the interface(s) that are platform VARIANT specific.">
<polygon fill="white" stroke="#666666" points="451.5,-74.5 347,-74.5 347,-55.25 451.5,-55.25 451.5,-74.5"/>
<text text-anchor="middle" x="399.25" y="-61" font-family="Helvetica,sans-Serif" font-size="10.00">Ajax/Main/platform.h</text>
</a>
</g>
</g>
<!-- Node5&#45;&gt;Node6 -->
<g id="edge5_Node000005_Node000006" class="edge">
<title>Node5&#45;&gt;Node6</title>
<g id="a_edge5_Node000005_Node000006"><a xlink:title=" ">
<path fill="none" stroke="#63b8ff" d="M437.83,-102.51C427.75,-92.94 416.54,-82.29 408.81,-74.95"/>
<polygon fill="#63b8ff" stroke="#63b8ff" points="435.17,-104.81 444.83,-109.15 439.99,-99.73 435.17,-104.81"/>
</a>
</g>
</g>
<!-- Node7 -->
<g id="Node000007" class="node">
<title>Node7</title>
<g id="a_Node000007"><a xlink:href="_pico_display_8h.html" target="_top" xlink:title=" ">
<polygon fill="white" stroke="#666666" points="578.75,-74.5 469.75,-74.5 469.75,-55.25 578.75,-55.25 578.75,-74.5"/>
<text text-anchor="middle" x="524.25" y="-61" font-family="Helvetica,sans-Serif" font-size="10.00">Ajax/Ui/PicoDisplay.h</text>
</a>
</g>
</g>
<!-- Node5&#45;&gt;Node7 -->
<g id="edge6_Node000005_Node000007" class="edge">
<title>Node5&#45;&gt;Node7</title>
<g id="a_edge6_Node000005_Node000007"><a xlink:title=" ">
<path fill="none" stroke="#63b8ff" d="M485.05,-102.51C495.29,-92.94 506.68,-82.29 514.54,-74.95"/>
<polygon fill="#63b8ff" stroke="#63b8ff" points="482.85,-99.78 477.93,-109.16 487.62,-104.89 482.85,-99.78"/>
</a>
</g>
</g>
<!-- Node8 -->
<g id="Node000008" class="node">
<title>Node8</title>
<g id="a_Node000008"><a xlink:href="appmain_8h.html" target="_top" xlink:title="This file defines the hardware/platform independent start&#45;up interface(s) for the Ajax application.">
<polygon fill="white" stroke="#666666" points="577.25,-19.25 471.25,-19.25 471.25,0 577.25,0 577.25,-19.25"/>
<text text-anchor="middle" x="524.25" y="-5.75" font-family="Helvetica,sans-Serif" font-size="10.00">Ajax/Main/appmain.h</text>
</a>
</g>
</g>
<!-- Node7&#45;&gt;Node8 -->
<g id="edge7_Node000007_Node000008" class="edge">
<title>Node7&#45;&gt;Node8</title>
<g id="a_edge7_Node000007_Node000008"><a xlink:title=" ">
<path fill="none" stroke="#63b8ff" d="M524.25,-43.63C524.25,-35.34 524.25,-26.17 524.25,-19.61"/>
<polygon fill="#63b8ff" stroke="#63b8ff" points="520.75,-43.57 524.25,-53.57 527.75,-43.57 520.75,-43.57"/>
</a>
</g>
</g>
</g>
</svg>
