<?xml version="1.0" encoding="UTF-8" standalone="no"?>
<!DOCTYPE svg PUBLIC "-//W3C//DTD SVG 1.1//EN"
 "http://www.w3.org/Graphics/SVG/1.1/DTD/svg11.dtd">
<!-- Generated by graphviz version 2.43.0 (0)
 -->
<!-- Title: Cpl/Persistent/RegionMedia.h Pages: 1 -->
<svg width="1000pt" height="225pt"
 viewBox="0.00 0.00 999.50 225.00" xmlns="http://www.w3.org/2000/svg" xmlns:xlink="http://www.w3.org/1999/xlink">
<g id="graph0" class="graph" transform="scale(1 1) rotate(0) translate(4 221)">
<title>Cpl/Persistent/RegionMedia.h</title>
<!-- Node1 -->
<g id="Node000001" class="node">
<title>Node1</title>
<g id="a_Node000001"><a xlink:title=" ">
<polygon fill="#999999" stroke="#666666" points="583.5,-217 423.5,-217 423.5,-198 583.5,-198 583.5,-217"/>
<text text-anchor="middle" x="503.5" y="-205" font-family="Helvetica,sans-Serif" font-size="10.00">Cpl/Persistent/RegionMedia.h</text>
</a>
</g>
</g>
<!-- Node2 -->
<g id="Node000002" class="node">
<title>Node2</title>
<g id="a_Node000002"><a xlink:href="_crc_chunk_8h.html" target="_top" xlink:title=" ">
<polygon fill="white" stroke="#666666" points="143,-156.5 0,-156.5 0,-137.5 143,-137.5 143,-156.5"/>
<text text-anchor="middle" x="71.5" y="-144.5" font-family="Helvetica,sans-Serif" font-size="10.00">Cpl/Persistent/CrcChunk.h</text>
</a>
</g>
</g>
<!-- Node1&#45;&gt;Node2 -->
<g id="edge1_Node000001_Node000002" class="edge">
<title>Node1&#45;&gt;Node2</title>
<g id="a_edge1_Node000001_Node000002"><a xlink:title=" ">
<path fill="none" stroke="#63b8ff" d="M417.54,-196.79C346.17,-188.45 242.07,-175.64 151.5,-162 140.62,-160.36 128.95,-158.42 117.97,-156.52"/>
<polygon fill="#63b8ff" stroke="#63b8ff" points="417.49,-200.31 427.83,-197.99 418.3,-193.35 417.49,-200.31"/>
</a>
</g>
</g>
<!-- Node4 -->
<g id="Node000004" class="node">
<title>Node4</title>
<g id="a_Node000004"><a xlink:href="_file_adapter_8h.html" target="_top" xlink:title=" ">
<polygon fill="white" stroke="#666666" points="312,-156.5 161,-156.5 161,-137.5 312,-137.5 312,-156.5"/>
<text text-anchor="middle" x="236.5" y="-144.5" font-family="Helvetica,sans-Serif" font-size="10.00">Cpl/Persistent/FileAdapter.h</text>
</a>
</g>
</g>
<!-- Node1&#45;&gt;Node4 -->
<g id="edge3_Node000001_Node000004" class="edge">
<title>Node1&#45;&gt;Node4</title>
<g id="a_edge3_Node000001_Node000004"><a xlink:title=" ">
<path fill="none" stroke="#63b8ff" d="M454.76,-195.82C403.2,-184.52 322.85,-166.92 275.37,-156.52"/>
<polygon fill="#63b8ff" stroke="#63b8ff" points="454.16,-199.27 464.68,-197.99 455.66,-192.43 454.16,-199.27"/>
</a>
</g>
</g>
<!-- Node5 -->
<g id="Node000005" class="node">
<title>Node5</title>
<g id="a_Node000005"><a xlink:href="_indexed_entry_record_8h.html" target="_top" xlink:title=" ">
<polygon fill="white" stroke="#666666" points="668,-162 517,-162 517,-132 668,-132 668,-162"/>
<text text-anchor="start" x="525" y="-150" font-family="Helvetica,sans-Serif" font-size="10.00">Cpl/Persistent/IndexedEntry</text>
<text text-anchor="middle" x="592.5" y="-139" font-family="Helvetica,sans-Serif" font-size="10.00">Record.h</text>
</a>
</g>
</g>
<!-- Node1&#45;&gt;Node5 -->
<g id="edge4_Node000001_Node000005" class="edge">
<title>Node1&#45;&gt;Node5</title>
<g id="a_edge4_Node000001_Node000005"><a xlink:title=" ">
<path fill="none" stroke="#63b8ff" d="M525.11,-192.29C539.05,-183.13 557.11,-171.26 571.03,-162.11"/>
<polygon fill="#63b8ff" stroke="#63b8ff" points="523.07,-189.45 516.63,-197.87 526.91,-195.3 523.07,-189.45"/>
</a>
</g>
</g>
<!-- Node8 -->
<g id="Node000008" class="node">
<title>Node8</title>
<g id="a_Node000008"><a xlink:href="_mirrored_chunk_8h.html" target="_top" xlink:title=" ">
<polygon fill="white" stroke="#666666" points="498.5,-156.5 330.5,-156.5 330.5,-137.5 498.5,-137.5 498.5,-156.5"/>
<text text-anchor="middle" x="414.5" y="-144.5" font-family="Helvetica,sans-Serif" font-size="10.00">Cpl/Persistent/MirroredChunk.h</text>
</a>
</g>
</g>
<!-- Node1&#45;&gt;Node8 -->
<g id="edge7_Node000001_Node000008" class="edge">
<title>Node1&#45;&gt;Node8</title>
<g id="a_edge7_Node000001_Node000008"><a xlink:title=" ">
<path fill="none" stroke="#63b8ff" d="M481.68,-192.16C464.77,-181.05 441.91,-166.01 427.69,-156.67"/>
<polygon fill="#63b8ff" stroke="#63b8ff" points="480.09,-195.3 490.37,-197.87 483.93,-189.45 480.09,-195.3"/>
</a>
</g>
</g>
<!-- Node9 -->
<g id="Node000009" class="node">
<title>Node9</title>
<g id="a_Node000009"><a xlink:href="_n_v_adapter_8h.html" target="_top" xlink:title=" ">
<polygon fill="white" stroke="#666666" points="833,-156.5 686,-156.5 686,-137.5 833,-137.5 833,-156.5"/>
<text text-anchor="middle" x="759.5" y="-144.5" font-family="Helvetica,sans-Serif" font-size="10.00">Cpl/Persistent/NVAdapter.h</text>
</a>
</g>
</g>
<!-- Node1&#45;&gt;Node9 -->
<g id="edge9_Node000001_Node000009" class="edge">
<title>Node1&#45;&gt;Node9</title>
<g id="a_edge9_Node000001_Node000009"><a xlink:title=" ">
<path fill="none" stroke="#63b8ff" d="M550.54,-195.75C599.99,-184.45 676.8,-166.9 722.23,-156.52"/>
<polygon fill="#63b8ff" stroke="#63b8ff" points="549.69,-192.35 540.72,-197.99 551.25,-199.18 549.69,-192.35"/>
</a>
</g>
</g>
<!-- Node10 -->
<g id="Node000010" class="node">
<title>Node10</title>
<g id="a_Node000010"><a xlink:href="_null_region_media_8h.html" target="_top" xlink:title=" ">
<polygon fill="white" stroke="#666666" points="991.5,-162 851.5,-162 851.5,-132 991.5,-132 991.5,-162"/>
<text text-anchor="start" x="859.5" y="-150" font-family="Helvetica,sans-Serif" font-size="10.00">Cpl/Persistent/NullRegion</text>
<text text-anchor="middle" x="921.5" y="-139" font-family="Helvetica,sans-Serif" font-size="10.00">Media.h</text>
</a>
</g>
</g>
<!-- Node1&#45;&gt;Node10 -->
<g id="edge10_Node000001_Node000010" class="edge">
<title>Node1&#45;&gt;Node10</title>
<g id="a_edge10_Node000001_Node000010"><a xlink:title=" ">
<path fill="none" stroke="#63b8ff" d="M586.05,-196.72C654.78,-188.32 755.17,-175.46 842.5,-162 845.39,-161.55 848.34,-161.09 851.32,-160.61"/>
<polygon fill="#63b8ff" stroke="#63b8ff" points="585.22,-193.29 575.72,-197.97 586.07,-200.24 585.22,-193.29"/>
</a>
</g>
</g>
<!-- Node3 -->
<g id="Node000003" class="node">
<title>Node3</title>
<g id="a_Node000003"><a xlink:href="_storage_map___8h.html" target="_top" xlink:title="This file contains the magic values for how data is laid out in the off&#45;board EEPROM.">
<polygon fill="white" stroke="#666666" points="314,-90.5 173,-90.5 173,-71.5 314,-71.5 314,-90.5"/>
<text text-anchor="middle" x="243.5" y="-78.5" font-family="Helvetica,sans-Serif" font-size="10.00">Ajax/Main/StorageMap_.h</text>
</a>
</g>
</g>
<!-- Node2&#45;&gt;Node3 -->
<g id="edge2_Node000002_Node000003" class="edge">
<title>Node2&#45;&gt;Node3</title>
<g id="a_edge2_Node000002_Node000003"><a xlink:title=" ">
<path fill="none" stroke="#63b8ff" d="M104.18,-133.84C138.16,-121.2 190.48,-101.73 220.4,-90.6"/>
<polygon fill="#63b8ff" stroke="#63b8ff" points="102.85,-130.6 94.7,-137.37 105.29,-137.16 102.85,-130.6"/>
</a>
</g>
</g>
<!-- Node6 -->
<g id="Node000006" class="node">
<title>Node6</title>
<g id="a_Node000006"><a xlink:href="_indexed_entry_server_8h.html" target="_top" xlink:title=" ">
<polygon fill="white" stroke="#666666" points="668,-96 517,-96 517,-66 668,-66 668,-96"/>
<text text-anchor="start" x="525" y="-84" font-family="Helvetica,sans-Serif" font-size="10.00">Cpl/Persistent/IndexedEntry</text>
<text text-anchor="middle" x="592.5" y="-73" font-family="Helvetica,sans-Serif" font-size="10.00">Server.h</text>
</a>
</g>
</g>
<!-- Node5&#45;&gt;Node6 -->
<g id="edge5_Node000005_Node000006" class="edge">
<title>Node5&#45;&gt;Node6</title>
<g id="a_edge5_Node000005_Node000006"><a xlink:title=" ">
<path fill="none" stroke="#63b8ff" d="M592.5,-121.54C592.5,-112.96 592.5,-103.61 592.5,-96.16"/>
<polygon fill="#63b8ff" stroke="#63b8ff" points="589,-121.8 592.5,-131.8 596,-121.8 589,-121.8"/>
</a>
</g>
</g>
<!-- Node7 -->
<g id="Node000007" class="node">
<title>Node7</title>
<g id="a_Node000007"><a xlink:href="_log_8h.html" target="_top" xlink:title=" ">
<polygon fill="white" stroke="#666666" points="646,-30 539,-30 539,0 646,0 646,-30"/>
<text text-anchor="start" x="547" y="-18" font-family="Helvetica,sans-Serif" font-size="10.00">Cpl/Logging/TShell</text>
<text text-anchor="middle" x="592.5" y="-7" font-family="Helvetica,sans-Serif" font-size="10.00">/Log.h</text>
</a>
</g>
</g>
<!-- Node6&#45;&gt;Node7 -->
<g id="edge6_Node000006_Node000007" class="edge">
<title>Node6&#45;&gt;Node7</title>
<g id="a_edge6_Node000006_Node000007"><a xlink:title=" ">
<path fill="none" stroke="#63b8ff" d="M592.5,-55.54C592.5,-46.96 592.5,-37.61 592.5,-30.16"/>
<polygon fill="#63b8ff" stroke="#63b8ff" points="589,-55.8 592.5,-65.8 596,-55.8 589,-55.8"/>
</a>
</g>
</g>
<!-- Node8&#45;&gt;Node3 -->
<g id="edge8_Node000008_Node000003" class="edge">
<title>Node8&#45;&gt;Node3</title>
<g id="a_edge8_Node000008_Node000003"><a xlink:title=" ">
<path fill="none" stroke="#63b8ff" d="M382.01,-133.84C348.22,-121.2 296.21,-101.73 266.47,-90.6"/>
<polygon fill="#63b8ff" stroke="#63b8ff" points="380.85,-137.14 391.44,-137.37 383.3,-130.59 380.85,-137.14"/>
</a>
</g>
</g>
</g>
</svg>
