<?xml version="1.0" encoding="UTF-8" standalone="no"?>
<!DOCTYPE svg PUBLIC "-//W3C//DTD SVG 1.1//EN"
 "http://www.w3.org/Graphics/SVG/1.1/DTD/svg11.dtd">
<!-- Generated by graphviz version 9.0.0 (20230911.1827)
 -->
<!-- Title: Cpl/Persistent/RegionMedia.h Pages: 1 -->
<svg width="917pt" height="227pt"
 viewBox="0.00 0.00 917.25 226.75" xmlns="http://www.w3.org/2000/svg" xmlns:xlink="http://www.w3.org/1999/xlink">
<g id="graph0" class="graph" transform="scale(1 1) rotate(0) translate(4 222.75)">
<title>Cpl/Persistent/RegionMedia.h</title>
<!-- Node1 -->
<g id="Node000001" class="node">
<title>Node1</title>
<g id="a_Node000001"><a xlink:title=" ">
<polygon fill="#999999" stroke="#666666" points="532.5,-218.75 388.25,-218.75 388.25,-199.5 532.5,-199.5 532.5,-218.75"/>
<text text-anchor="middle" x="460.38" y="-205.25" font-family="Helvetica,sans-Serif" font-size="10.00">Cpl/Persistent/RegionMedia.h</text>
</a>
</g>
</g>
<!-- Node2 -->
<g id="Node000002" class="node">
<title>Node2</title>
<g id="a_Node000002"><a xlink:href="_crc_chunk_8h.html" target="_top" xlink:title=" ">
<polygon fill="white" stroke="#666666" points="130.75,-157.88 0,-157.88 0,-138.62 130.75,-138.62 130.75,-157.88"/>
<text text-anchor="middle" x="65.38" y="-144.38" font-family="Helvetica,sans-Serif" font-size="10.00">Cpl/Persistent/CrcChunk.h</text>
</a>
</g>
</g>
<!-- Node1&#45;&gt;Node2 -->
<g id="edge1_Node000001_Node000002" class="edge">
<title>Node1&#45;&gt;Node2</title>
<g id="a_edge1_Node000001_Node000002"><a xlink:title=" ">
<path fill="none" stroke="#63b8ff" d="M376.48,-197.68C311.61,-189.31 219.62,-176.8 139.38,-163.5 130.08,-161.96 120.16,-160.16 110.7,-158.37"/>
<polygon fill="#63b8ff" stroke="#63b8ff" points="376,-201.14 386.36,-198.95 376.89,-194.2 376,-201.14"/>
</a>
</g>
</g>
<!-- Node4 -->
<g id="Node000004" class="node">
<title>Node4</title>
<g id="a_Node000004"><a xlink:href="_file_adapter_8h.html" target="_top" xlink:title=" ">
<polygon fill="white" stroke="#666666" points="286.12,-157.88 148.62,-157.88 148.62,-138.62 286.12,-138.62 286.12,-157.88"/>
<text text-anchor="middle" x="217.38" y="-144.38" font-family="Helvetica,sans-Serif" font-size="10.00">Cpl/Persistent/FileAdapter.h</text>
</a>
</g>
</g>
<!-- Node1&#45;&gt;Node4 -->
<g id="edge3_Node000001_Node000004" class="edge">
<title>Node1&#45;&gt;Node4</title>
<g id="a_edge3_Node000001_Node000004"><a xlink:title=" ">
<path fill="none" stroke="#63b8ff" d="M411.99,-196.4C365.76,-185.2 297.06,-168.56 254.85,-158.33"/>
<polygon fill="#63b8ff" stroke="#63b8ff" points="410.92,-199.75 421.47,-198.7 412.57,-192.94 410.92,-199.75"/>
</a>
</g>
</g>
<!-- Node5 -->
<g id="Node000005" class="node">
<title>Node5</title>
<g id="a_Node000005"><a xlink:href="_indexed_entry_record_8h.html" target="_top" xlink:title=" ">
<polygon fill="white" stroke="#666666" points="609.38,-163.5 473.38,-163.5 473.38,-133 609.38,-133 609.38,-163.5"/>
<text text-anchor="start" x="481.38" y="-150" font-family="Helvetica,sans-Serif" font-size="10.00">Cpl/Persistent/IndexedEntry</text>
<text text-anchor="middle" x="541.38" y="-138.75" font-family="Helvetica,sans-Serif" font-size="10.00">Record.h</text>
</a>
</g>
</g>
<!-- Node1&#45;&gt;Node5 -->
<g id="edge4_Node000001_Node000005" class="edge">
<title>Node1&#45;&gt;Node5</title>
<g id="a_edge4_Node000001_Node000005"><a xlink:title=" ">
<path fill="none" stroke="#63b8ff" d="M481.75,-192.59C494.03,-183.67 509.35,-172.53 521.38,-163.78"/>
<polygon fill="#63b8ff" stroke="#63b8ff" points="479.93,-189.58 473.9,-198.29 484.05,-195.24 479.93,-189.58"/>
</a>
</g>
</g>
<!-- Node8 -->
<g id="Node000008" class="node">
<title>Node8</title>
<g id="a_Node000008"><a xlink:href="_mirrored_chunk_8h.html" target="_top" xlink:title=" ">
<polygon fill="white" stroke="#666666" points="454.88,-157.88 303.88,-157.88 303.88,-138.62 454.88,-138.62 454.88,-157.88"/>
<text text-anchor="middle" x="379.38" y="-144.38" font-family="Helvetica,sans-Serif" font-size="10.00">Cpl/Persistent/MirroredChunk.h</text>
</a>
</g>
</g>
<!-- Node1&#45;&gt;Node8 -->
<g id="edge7_Node000001_Node000008" class="edge">
<title>Node1&#45;&gt;Node8</title>
<g id="a_edge7_Node000001_Node000008"><a xlink:title=" ">
<path fill="none" stroke="#63b8ff" d="M438.97,-192.56C423.92,-181.63 404.33,-167.39 391.79,-158.28"/>
<polygon fill="#63b8ff" stroke="#63b8ff" points="436.7,-195.24 446.85,-198.29 440.82,-189.58 436.7,-195.24"/>
</a>
</g>
</g>
<!-- Node9 -->
<g id="Node000009" class="node">
<title>Node9</title>
<g id="a_Node000009"><a xlink:href="_n_v_adapter_8h.html" target="_top" xlink:title=" ">
<polygon fill="white" stroke="#666666" points="763.38,-157.88 627.38,-157.88 627.38,-138.62 763.38,-138.62 763.38,-157.88"/>
<text text-anchor="middle" x="695.38" y="-144.38" font-family="Helvetica,sans-Serif" font-size="10.00">Cpl/Persistent/NVAdapter.h</text>
</a>
</g>
</g>
<!-- Node1&#45;&gt;Node9 -->
<g id="edge9_Node000001_Node000009" class="edge">
<title>Node1&#45;&gt;Node9</title>
<g id="a_edge9_Node000001_Node000009"><a xlink:title=" ">
<path fill="none" stroke="#63b8ff" d="M507.73,-196.26C552.43,-185.06 618.49,-168.51 659.13,-158.33"/>
<polygon fill="#63b8ff" stroke="#63b8ff" points="506.9,-192.86 498.05,-198.69 508.6,-199.65 506.9,-192.86"/>
</a>
</g>
</g>
<!-- Node10 -->
<g id="Node000010" class="node">
<title>Node10</title>
<g id="a_Node000010"><a xlink:href="_null_region_media_8h.html" target="_top" xlink:title=" ">
<polygon fill="white" stroke="#666666" points="909.25,-163.5 781.5,-163.5 781.5,-133 909.25,-133 909.25,-163.5"/>
<text text-anchor="start" x="789.5" y="-150" font-family="Helvetica,sans-Serif" font-size="10.00">Cpl/Persistent/NullRegion</text>
<text text-anchor="middle" x="845.38" y="-138.75" font-family="Helvetica,sans-Serif" font-size="10.00">Media.h</text>
</a>
</g>
</g>
<!-- Node1&#45;&gt;Node10 -->
<g id="edge10_Node000001_Node000010" class="edge">
<title>Node1&#45;&gt;Node10</title>
<g id="a_edge10_Node000001_Node000010"><a xlink:title=" ">
<path fill="none" stroke="#63b8ff" d="M542.54,-197.53C605.55,-189.13 694.63,-176.64 772.38,-163.5 775.3,-163.01 778.29,-162.48 781.31,-161.95"/>
<polygon fill="#63b8ff" stroke="#63b8ff" points="542.43,-194.01 532.98,-198.8 543.35,-200.95 542.43,-194.01"/>
</a>
</g>
</g>
<!-- Node3 -->
<g id="Node000003" class="node">
<title>Node3</title>
<g id="a_Node000003"><a xlink:href="_storage_map___8h.html" target="_top" xlink:title="This file contains the magic values for how data is laid out in the off&#45;board EEPROM.">
<polygon fill="white" stroke="#666666" points="285.88,-91.38 158.88,-91.38 158.88,-72.12 285.88,-72.12 285.88,-91.38"/>
<text text-anchor="middle" x="222.38" y="-77.88" font-family="Helvetica,sans-Serif" font-size="10.00">Ajax/Main/StorageMap_.h</text>
</a>
</g>
</g>
<!-- Node2&#45;&gt;Node3 -->
<g id="edge2_Node000002_Node000003" class="edge">
<title>Node2&#45;&gt;Node3</title>
<g id="a_edge2_Node000002_Node000003"><a xlink:title=" ">
<path fill="none" stroke="#63b8ff" d="M98.12,-133.8C128.78,-121.2 173.73,-102.74 200.33,-91.81"/>
<polygon fill="#63b8ff" stroke="#63b8ff" points="96.86,-130.53 88.94,-137.57 99.52,-137.01 96.86,-130.53"/>
</a>
</g>
</g>
<!-- Node6 -->
<g id="Node000006" class="node">
<title>Node6</title>
<g id="a_Node000006"><a xlink:href="_indexed_entry_server_8h.html" target="_top" xlink:title=" ">
<polygon fill="white" stroke="#666666" points="609.38,-97 473.38,-97 473.38,-66.5 609.38,-66.5 609.38,-97"/>
<text text-anchor="start" x="481.38" y="-83.5" font-family="Helvetica,sans-Serif" font-size="10.00">Cpl/Persistent/IndexedEntry</text>
<text text-anchor="middle" x="541.38" y="-72.25" font-family="Helvetica,sans-Serif" font-size="10.00">Server.h</text>
</a>
</g>
</g>
<!-- Node5&#45;&gt;Node6 -->
<g id="edge5_Node000005_Node000006" class="edge">
<title>Node5&#45;&gt;Node6</title>
<g id="a_edge5_Node000005_Node000006"><a xlink:title=" ">
<path fill="none" stroke="#63b8ff" d="M541.38,-121.31C541.38,-113.14 541.38,-104.41 541.38,-97.33"/>
<polygon fill="#63b8ff" stroke="#63b8ff" points="537.88,-121.1 541.38,-131.1 544.88,-121.1 537.88,-121.1"/>
</a>
</g>
</g>
<!-- Node7 -->
<g id="Node000007" class="node">
<title>Node7</title>
<g id="a_Node000007"><a xlink:href="_log_8h.html" target="_top" xlink:title=" ">
<polygon fill="white" stroke="#666666" points="590.62,-30.5 492.12,-30.5 492.12,0 590.62,0 590.62,-30.5"/>
<text text-anchor="start" x="500.12" y="-17" font-family="Helvetica,sans-Serif" font-size="10.00">Cpl/Logging/TShell</text>
<text text-anchor="middle" x="541.38" y="-5.75" font-family="Helvetica,sans-Serif" font-size="10.00">/Log.h</text>
</a>
</g>
</g>
<!-- Node6&#45;&gt;Node7 -->
<g id="edge6_Node000006_Node000007" class="edge">
<title>Node6&#45;&gt;Node7</title>
<g id="a_edge6_Node000006_Node000007"><a xlink:title=" ">
<path fill="none" stroke="#63b8ff" d="M541.38,-54.81C541.38,-46.64 541.38,-37.91 541.38,-30.83"/>
<polygon fill="#63b8ff" stroke="#63b8ff" points="537.88,-54.6 541.38,-64.6 544.88,-54.6 537.88,-54.6"/>
</a>
</g>
</g>
<!-- Node8&#45;&gt;Node3 -->
<g id="edge8_Node000008_Node000003" class="edge">
<title>Node8&#45;&gt;Node3</title>
<g id="a_edge8_Node000008_Node000003"><a xlink:title=" ">
<path fill="none" stroke="#63b8ff" d="M346.63,-133.8C315.97,-121.2 271.02,-102.74 244.42,-91.81"/>
<polygon fill="#63b8ff" stroke="#63b8ff" points="345.23,-137.01 355.81,-137.57 347.89,-130.53 345.23,-137.01"/>
</a>
</g>
</g>
</g>
</svg>
