<?xml version="1.0" encoding="UTF-8" standalone="no"?>
<!DOCTYPE svg PUBLIC "-//W3C//DTD SVG 1.1//EN"
 "http://www.w3.org/Graphics/SVG/1.1/DTD/svg11.dtd">
<!-- Generated by graphviz version 9.0.0 (20230911.1827)
 -->
<!-- Title: Cpl/Persistent/RegionMedia.h Pages: 1 -->
<svg width="918pt" height="227pt"
 viewBox="0.00 0.00 918.25 226.75" xmlns="http://www.w3.org/2000/svg" xmlns:xlink="http://www.w3.org/1999/xlink">
<g id="graph0" class="graph" transform="scale(1 1) rotate(0) translate(4 222.75)">
<title>Cpl/Persistent/RegionMedia.h</title>
<!-- Node1 -->
<g id="Node000001" class="node">
<title>Node1</title>
<g id="a_Node000001"><a xlink:title=" ">
<polygon fill="#999999" stroke="#666666" points="525.5,-218.75 381.25,-218.75 381.25,-199.5 525.5,-199.5 525.5,-218.75"/>
<text text-anchor="middle" x="453.38" y="-205.25" font-family="Helvetica,sans-Serif" font-size="10.00">Cpl/Persistent/RegionMedia.h</text>
</a>
</g>
</g>
<!-- Node2 -->
<g id="Node000002" class="node">
<title>Node2</title>
<g id="a_Node000002"><a xlink:href="_crc_chunk_8h.html" target="_top" xlink:title=" ">
<polygon fill="white" stroke="#666666" points="130.75,-157.88 0,-157.88 0,-138.62 130.75,-138.62 130.75,-157.88"/>
<text text-anchor="middle" x="65.38" y="-144.38" font-family="Helvetica,sans-Serif" font-size="10.00">Cpl/Persistent/CrcChunk.h</text>
</a>
</g>
</g>
<!-- Node1&#45;&gt;Node2 -->
<g id="edge1_Node000001_Node000002" class="edge">
<title>Node1&#45;&gt;Node2</title>
<g id="a_edge1_Node000001_Node000002"><a xlink:title=" ">
<path fill="none" stroke="#63b8ff" d="M371.01,-197.54C307.57,-189.12 217.76,-176.61 139.38,-163.5 130.08,-161.95 120.17,-160.14 110.71,-158.34"/>
<polygon fill="#63b8ff" stroke="#63b8ff" points="370.27,-200.98 380.64,-198.82 371.18,-194.04 370.27,-200.98"/>
</a>
</g>
</g>
<!-- Node3 -->
<g id="Node000003" class="node">
<title>Node3</title>
<g id="a_Node000003"><a xlink:href="_file_adapter_8h.html" target="_top" xlink:title=" ">
<polygon fill="white" stroke="#666666" points="286.12,-157.88 148.62,-157.88 148.62,-138.62 286.12,-138.62 286.12,-157.88"/>
<text text-anchor="middle" x="217.38" y="-144.38" font-family="Helvetica,sans-Serif" font-size="10.00">Cpl/Persistent/FileAdapter.h</text>
</a>
</g>
</g>
<!-- Node1&#45;&gt;Node3 -->
<g id="edge2_Node000001_Node000003" class="edge">
<title>Node1&#45;&gt;Node3</title>
<g id="a_edge2_Node000001_Node000003"><a xlink:title=" ">
<path fill="none" stroke="#63b8ff" d="M406.1,-196.33C361.21,-185.13 294.68,-168.53 253.77,-158.33"/>
<polygon fill="#63b8ff" stroke="#63b8ff" points="405,-199.66 415.55,-198.69 406.69,-192.87 405,-199.66"/>
</a>
</g>
</g>
<!-- Node4 -->
<g id="Node000004" class="node">
<title>Node4</title>
<g id="a_Node000004"><a xlink:href="_indexed_entry_record_8h.html" target="_top" xlink:title=" ">
<polygon fill="white" stroke="#666666" points="440.38,-163.5 304.38,-163.5 304.38,-133 440.38,-133 440.38,-163.5"/>
<text text-anchor="start" x="312.38" y="-150" font-family="Helvetica,sans-Serif" font-size="10.00">Cpl/Persistent/IndexedEntry</text>
<text text-anchor="middle" x="372.38" y="-138.75" font-family="Helvetica,sans-Serif" font-size="10.00">Record.h</text>
</a>
</g>
</g>
<!-- Node1&#45;&gt;Node4 -->
<g id="edge3_Node000001_Node000004" class="edge">
<title>Node1&#45;&gt;Node4</title>
<g id="a_edge3_Node000001_Node000004"><a xlink:title=" ">
<path fill="none" stroke="#63b8ff" d="M432,-192.59C419.72,-183.67 404.4,-172.53 392.37,-163.78"/>
<polygon fill="#63b8ff" stroke="#63b8ff" points="429.7,-195.24 439.85,-198.29 433.82,-189.58 429.7,-195.24"/>
</a>
</g>
</g>
<!-- Node7 -->
<g id="Node000007" class="node">
<title>Node7</title>
<g id="a_Node000007"><a xlink:href="_mirrored_chunk_8h.html" target="_top" xlink:title=" ">
<polygon fill="white" stroke="#666666" points="609.88,-157.88 458.88,-157.88 458.88,-138.62 609.88,-138.62 609.88,-157.88"/>
<text text-anchor="middle" x="534.38" y="-144.38" font-family="Helvetica,sans-Serif" font-size="10.00">Cpl/Persistent/MirroredChunk.h</text>
</a>
</g>
</g>
<!-- Node1&#45;&gt;Node7 -->
<g id="edge6_Node000001_Node000007" class="edge">
<title>Node1&#45;&gt;Node7</title>
<g id="a_edge6_Node000001_Node000007"><a xlink:title=" ">
<path fill="none" stroke="#63b8ff" d="M474.78,-192.56C489.83,-181.63 509.42,-167.39 521.96,-158.28"/>
<polygon fill="#63b8ff" stroke="#63b8ff" points="472.93,-189.58 466.9,-198.29 477.05,-195.24 472.93,-189.58"/>
</a>
</g>
</g>
<!-- Node8 -->
<g id="Node000008" class="node">
<title>Node8</title>
<g id="a_Node000008"><a xlink:href="_n_v_adapter_8h.html" target="_top" xlink:title=" ">
<polygon fill="white" stroke="#666666" points="764.38,-157.88 628.38,-157.88 628.38,-138.62 764.38,-138.62 764.38,-157.88"/>
<text text-anchor="middle" x="696.38" y="-144.38" font-family="Helvetica,sans-Serif" font-size="10.00">Cpl/Persistent/NVAdapter.h</text>
</a>
</g>
</g>
<!-- Node1&#45;&gt;Node8 -->
<g id="edge7_Node000001_Node000008" class="edge">
<title>Node1&#45;&gt;Node8</title>
<g id="a_edge7_Node000001_Node000008"><a xlink:title=" ">
<path fill="none" stroke="#63b8ff" d="M501.76,-196.4C547.99,-185.2 616.69,-168.56 658.9,-158.33"/>
<polygon fill="#63b8ff" stroke="#63b8ff" points="501.18,-192.94 492.28,-198.7 502.83,-199.75 501.18,-192.94"/>
</a>
</g>
</g>
<!-- Node9 -->
<g id="Node000009" class="node">
<title>Node9</title>
<g id="a_Node000009"><a xlink:href="_null_region_media_8h.html" target="_top" xlink:title=" ">
<polygon fill="white" stroke="#666666" points="910.25,-163.5 782.5,-163.5 782.5,-133 910.25,-133 910.25,-163.5"/>
<text text-anchor="start" x="790.5" y="-150" font-family="Helvetica,sans-Serif" font-size="10.00">Cpl/Persistent/NullRegion</text>
<text text-anchor="middle" x="846.38" y="-138.75" font-family="Helvetica,sans-Serif" font-size="10.00">Media.h</text>
</a>
</g>
</g>
<!-- Node1&#45;&gt;Node9 -->
<g id="edge8_Node000001_Node000009" class="edge">
<title>Node1&#45;&gt;Node9</title>
<g id="a_edge8_Node000001_Node000009"><a xlink:title=" ">
<path fill="none" stroke="#63b8ff" d="M537.34,-197.68C601.99,-189.33 693.52,-176.85 773.38,-163.5 776.3,-163.01 779.3,-162.49 782.32,-161.96"/>
<polygon fill="#63b8ff" stroke="#63b8ff" points="536.96,-194.2 527.49,-198.95 537.85,-201.14 536.96,-194.2"/>
</a>
</g>
</g>
<!-- Node5 -->
<g id="Node000005" class="node">
<title>Node5</title>
<g id="a_Node000005"><a xlink:href="_indexed_entry_server_8h.html" target="_top" xlink:title=" ">
<polygon fill="white" stroke="#666666" points="440.38,-97 304.38,-97 304.38,-66.5 440.38,-66.5 440.38,-97"/>
<text text-anchor="start" x="312.38" y="-83.5" font-family="Helvetica,sans-Serif" font-size="10.00">Cpl/Persistent/IndexedEntry</text>
<text text-anchor="middle" x="372.38" y="-72.25" font-family="Helvetica,sans-Serif" font-size="10.00">Server.h</text>
</a>
</g>
</g>
<!-- Node4&#45;&gt;Node5 -->
<g id="edge4_Node000004_Node000005" class="edge">
<title>Node4&#45;&gt;Node5</title>
<g id="a_edge4_Node000004_Node000005"><a xlink:title=" ">
<path fill="none" stroke="#63b8ff" d="M372.38,-121.31C372.38,-113.14 372.38,-104.41 372.38,-97.33"/>
<polygon fill="#63b8ff" stroke="#63b8ff" points="368.88,-121.1 372.38,-131.1 375.88,-121.1 368.88,-121.1"/>
</a>
</g>
</g>
<!-- Node6 -->
<g id="Node000006" class="node">
<title>Node6</title>
<g id="a_Node000006"><a xlink:href="_log_8h.html" target="_top" xlink:title=" ">
<polygon fill="white" stroke="#666666" points="421.62,-30.5 323.12,-30.5 323.12,0 421.62,0 421.62,-30.5"/>
<text text-anchor="start" x="331.12" y="-17" font-family="Helvetica,sans-Serif" font-size="10.00">Cpl/Logging/TShell</text>
<text text-anchor="middle" x="372.38" y="-5.75" font-family="Helvetica,sans-Serif" font-size="10.00">/Log.h</text>
</a>
</g>
</g>
<!-- Node5&#45;&gt;Node6 -->
<g id="edge5_Node000005_Node000006" class="edge">
<title>Node5&#45;&gt;Node6</title>
<g id="a_edge5_Node000005_Node000006"><a xlink:title=" ">
<path fill="none" stroke="#63b8ff" d="M372.38,-54.81C372.38,-46.64 372.38,-37.91 372.38,-30.83"/>
<polygon fill="#63b8ff" stroke="#63b8ff" points="368.88,-54.6 372.38,-64.6 375.88,-54.6 368.88,-54.6"/>
</a>
</g>
</g>
</g>
</svg>
