<?xml version="1.0" encoding="UTF-8" standalone="no"?>
<!DOCTYPE svg PUBLIC "-//W3C//DTD SVG 1.1//EN"
 "http://www.w3.org/Graphics/SVG/1.1/DTD/svg11.dtd">
<!-- Generated by graphviz version 9.0.0 (20230911.1827)
 -->
<!-- Title: Cpl/Itc/RequestMessage.h Pages: 1 -->
<svg width="1568pt" height="514pt"
 viewBox="0.00 0.00 1568.46 514.25" xmlns="http://www.w3.org/2000/svg" xmlns:xlink="http://www.w3.org/1999/xlink">
<g id="graph0" class="graph" transform="scale(1 1) rotate(0) translate(4 510.25)">
<title>Cpl/Itc/RequestMessage.h</title>
<!-- Node1 -->
<g id="Node000001" class="node">
<title>Node1</title>
<g id="a_Node000001"><a xlink:title=" ">
<polygon fill="#999999" stroke="#666666" points="1002.58,-506.25 871.83,-506.25 871.83,-487 1002.58,-487 1002.58,-506.25"/>
<text text-anchor="middle" x="937.21" y="-492.75" font-family="Helvetica,sans-Serif" font-size="10.00">Cpl/Itc/RequestMessage.h</text>
</a>
</g>
</g>
<!-- Node2 -->
<g id="Node000002" class="node">
<title>Node2</title>
<g id="a_Node000002"><a xlink:href="_erase_request_8h.html" target="_top" xlink:title=" ">
<polygon fill="white" stroke="#666666" points="511.58,-378.88 344.83,-378.88 344.83,-359.62 511.58,-359.62 511.58,-378.88"/>
<text text-anchor="middle" x="428.21" y="-365.38" font-family="Helvetica,sans-Serif" font-size="10.00">Cpl/Dm/Persistent/EraseRequest.h</text>
</a>
</g>
</g>
<!-- Node1&#45;&gt;Node2 -->
<g id="edge1_Node000001_Node000002" class="edge">
<title>Node1&#45;&gt;Node2</title>
<g id="a_edge1_Node000001_Node000002"><a xlink:title=" ">
<path fill="none" stroke="#63b8ff" d="M881.76,-484.18C840.65,-475.52 783.3,-463.1 733.21,-451 633.37,-426.88 516.17,-394.77 460.59,-379.32"/>
<polygon fill="#63b8ff" stroke="#63b8ff" points="880.92,-487.58 891.43,-486.2 882.36,-480.73 880.92,-487.58"/>
</a>
</g>
</g>
<!-- Node9 -->
<g id="Node000009" class="node">
<title>Node9</title>
<g id="a_Node000009"><a xlink:href="_flush_request_8h.html" target="_top" xlink:title=" ">
<polygon fill="white" stroke="#666666" points="695.21,-378.88 529.21,-378.88 529.21,-359.62 695.21,-359.62 695.21,-378.88"/>
<text text-anchor="middle" x="612.21" y="-365.38" font-family="Helvetica,sans-Serif" font-size="10.00">Cpl/Dm/Persistent/FlushRequest.h</text>
</a>
</g>
</g>
<!-- Node1&#45;&gt;Node9 -->
<g id="edge8_Node000001_Node000009" class="edge">
<title>Node1&#45;&gt;Node9</title>
<g id="a_edge8_Node000001_Node000009"><a xlink:title=" ">
<path fill="none" stroke="#63b8ff" d="M901.04,-482.85C876.48,-474.09 843.29,-462.09 814.21,-451 748.39,-425.91 671.26,-394.52 634.23,-379.33"/>
<polygon fill="#63b8ff" stroke="#63b8ff" points="899.66,-486.07 910.25,-486.13 902,-479.48 899.66,-486.07"/>
</a>
</g>
</g>
<!-- Node10 -->
<g id="Node000010" class="node">
<title>Node10</title>
<g id="a_Node000010"><a xlink:href="_listener_client_request_8h.html" target="_top" xlink:title=" ">
<polygon fill="white" stroke="#666666" points="1470.33,-451 1332.08,-451 1332.08,-420.5 1470.33,-420.5 1470.33,-451"/>
<text text-anchor="start" x="1340.08" y="-437.5" font-family="Helvetica,sans-Serif" font-size="10.00">Cpl/Io/Socket/ListenerClient</text>
<text text-anchor="middle" x="1401.21" y="-426.25" font-family="Helvetica,sans-Serif" font-size="10.00">Request.h</text>
</a>
</g>
</g>
<!-- Node1&#45;&gt;Node10 -->
<g id="edge10_Node000001_Node000010" class="edge">
<title>Node1&#45;&gt;Node10</title>
<g id="a_edge10_Node000001_Node000010"><a xlink:title=" ">
<path fill="none" stroke="#63b8ff" d="M1014.01,-485.88C1102.51,-474.65 1246.67,-456.36 1331.88,-445.55"/>
<polygon fill="#63b8ff" stroke="#63b8ff" points="1013.68,-482.39 1004.2,-487.12 1014.56,-489.34 1013.68,-482.39"/>
</a>
</g>
</g>
<!-- Node12 -->
<g id="Node000012" class="node">
<title>Node12</title>
<g id="a_Node000012"><a xlink:href="_atomic_request_8h.html" target="_top" xlink:title=" ">
<polygon fill="white" stroke="#666666" points="1229.08,-378.88 1107.33,-378.88 1107.33,-359.62 1229.08,-359.62 1229.08,-378.88"/>
<text text-anchor="middle" x="1168.21" y="-365.38" font-family="Helvetica,sans-Serif" font-size="10.00">Cpl/Itc/AtomicRequest.h</text>
</a>
</g>
</g>
<!-- Node1&#45;&gt;Node12 -->
<g id="edge12_Node000001_Node000012" class="edge">
<title>Node1&#45;&gt;Node12</title>
<g id="a_edge12_Node000001_Node000012"><a xlink:title=" ">
<path fill="none" stroke="#63b8ff" d="M969.72,-482.19C989.28,-473.81 1014.51,-462.47 1036.21,-451 1080.86,-427.4 1131.12,-394.91 1154.66,-379.32"/>
<polygon fill="#63b8ff" stroke="#63b8ff" points="968.45,-478.93 960.61,-486.05 971.18,-485.38 968.45,-478.93"/>
</a>
</g>
</g>
<!-- Node14 -->
<g id="Node000014" class="node">
<title>Node14</title>
<g id="a_Node000014"><a xlink:href="_close_request_8h.html" target="_top" xlink:title=" ">
<polygon fill="white" stroke="#666666" points="829.08,-378.88 713.33,-378.88 713.33,-359.62 829.08,-359.62 829.08,-378.88"/>
<text text-anchor="middle" x="771.21" y="-365.38" font-family="Helvetica,sans-Serif" font-size="10.00">Cpl/Itc/CloseRequest.h</text>
</a>
</g>
</g>
<!-- Node1&#45;&gt;Node14 -->
<g id="edge14_Node000001_Node000014" class="edge">
<title>Node1&#45;&gt;Node14</title>
<g id="a_edge14_Node000001_Node000014"><a xlink:title=" ">
<path fill="none" stroke="#63b8ff" d="M904.86,-481.79C888.12,-473.91 867.77,-463.18 851.21,-451 821.01,-428.78 791.57,-395.06 778.39,-379.15"/>
<polygon fill="#63b8ff" stroke="#63b8ff" points="903.35,-484.94 913.9,-485.91 906.25,-478.57 903.35,-484.94"/>
</a>
</g>
</g>
<!-- Node34 -->
<g id="Node000034" class="node">
<title>Node34</title>
<g id="a_Node000034"><a xlink:href="_open_request_8h.html" target="_top" xlink:title=" ">
<polygon fill="white" stroke="#666666" points="961.33,-378.88 847.08,-378.88 847.08,-359.62 961.33,-359.62 961.33,-378.88"/>
<text text-anchor="middle" x="904.21" y="-365.38" font-family="Helvetica,sans-Serif" font-size="10.00">Cpl/Itc/OpenRequest.h</text>
</a>
</g>
</g>
<!-- Node1&#45;&gt;Node34 -->
<g id="edge40_Node000001_Node000034" class="edge">
<title>Node1&#45;&gt;Node34</title>
<g id="a_edge40_Node000001_Node000034"><a xlink:title=" ">
<path fill="none" stroke="#63b8ff" d="M896.23,-482.08C881.91,-475.15 867.39,-465.12 859.21,-451 844.23,-425.18 874.77,-394.25 892.59,-379.27"/>
<polygon fill="#63b8ff" stroke="#63b8ff" points="894.56,-485.17 905.13,-485.98 897.37,-478.76 894.56,-485.17"/>
</a>
</g>
</g>
<!-- Node36 -->
<g id="Node000036" class="node">
<title>Node36</title>
<g id="a_Node000036"><a xlink:href="_response_message_8h.html" target="_top" xlink:title=" ">
<polygon fill="white" stroke="#666666" points="1006.33,-445.38 868.08,-445.38 868.08,-426.12 1006.33,-426.12 1006.33,-445.38"/>
<text text-anchor="middle" x="937.21" y="-431.88" font-family="Helvetica,sans-Serif" font-size="10.00">Cpl/Itc/ResponseMessage.h</text>
</a>
</g>
</g>
<!-- Node1&#45;&gt;Node36 -->
<g id="edge43_Node000001_Node000036" class="edge">
<title>Node1&#45;&gt;Node36</title>
<g id="a_edge43_Node000001_Node000036"><a xlink:title=" ">
<path fill="none" stroke="#63b8ff" d="M937.21,-475.2C937.21,-465.17 937.21,-453.58 937.21,-445.78"/>
<polygon fill="#63b8ff" stroke="#63b8ff" points="933.71,-475.17 937.21,-485.17 940.71,-475.17 933.71,-475.17"/>
</a>
</g>
</g>
<!-- Node37 -->
<g id="Node000037" class="node">
<title>Node37</title>
<g id="a_Node000037"><a xlink:href="_requests_8h.html" target="_top" xlink:title=" ">
<polygon fill="white" stroke="#666666" points="1089.46,-378.88 978.96,-378.88 978.96,-359.62 1089.46,-359.62 1089.46,-378.88"/>
<text text-anchor="middle" x="1034.21" y="-365.38" font-family="Helvetica,sans-Serif" font-size="10.00">Cpl/MApp/Requests.h</text>
</a>
</g>
</g>
<!-- Node1&#45;&gt;Node37 -->
<g id="edge53_Node000001_Node000037" class="edge">
<title>Node1&#45;&gt;Node37</title>
<g id="a_edge53_Node000001_Node000037"><a xlink:title=" ">
<path fill="none" stroke="#63b8ff" d="M974.59,-481.95C989.26,-474.82 1004.99,-464.68 1015.21,-451 1031.57,-429.07 1034.11,-395.21 1034.33,-379.21"/>
<polygon fill="#63b8ff" stroke="#63b8ff" points="973.26,-478.71 965.57,-485.99 976.13,-485.09 973.26,-478.71"/>
</a>
</g>
</g>
<!-- Node38 -->
<g id="Node000038" class="node">
<title>Node38</title>
<g id="a_Node000038"><a xlink:href="_indexed_entry_requests_8h.html" target="_top" xlink:title=" ">
<polygon fill="white" stroke="#666666" points="1383.21,-384.5 1247.21,-384.5 1247.21,-354 1383.21,-354 1383.21,-384.5"/>
<text text-anchor="start" x="1255.21" y="-371" font-family="Helvetica,sans-Serif" font-size="10.00">Cpl/Persistent/IndexedEntry</text>
<text text-anchor="middle" x="1315.21" y="-359.75" font-family="Helvetica,sans-Serif" font-size="10.00">Requests.h</text>
</a>
</g>
</g>
<!-- Node1&#45;&gt;Node38 -->
<g id="edge54_Node000001_Node000038" class="edge">
<title>Node1&#45;&gt;Node38</title>
<g id="a_edge54_Node000001_Node000038"><a xlink:title=" ">
<path fill="none" stroke="#63b8ff" d="M976.88,-483.06C1004.71,-474.21 1042.78,-462.01 1076.21,-451 1145.05,-428.32 1224.77,-401.22 1272.53,-384.89"/>
<polygon fill="#63b8ff" stroke="#63b8ff" points="975.91,-479.7 967.44,-486.06 978.03,-486.37 975.91,-479.7"/>
</a>
</g>
</g>
<!-- Node3 -->
<g id="Node000003" class="node">
<title>Node3</title>
<g id="a_Node000003"><a xlink:href="_dm_2_persistent_2_record_8h.html" target="_top" xlink:title=" ">
<polygon fill="white" stroke="#666666" points="311.58,-135.38 174.83,-135.38 174.83,-116.12 311.58,-116.12 311.58,-135.38"/>
<text text-anchor="middle" x="243.21" y="-121.88" font-family="Helvetica,sans-Serif" font-size="10.00">Cpl/Dm/Persistent/Record.h</text>
</a>
</g>
</g>
<!-- Node2&#45;&gt;Node3 -->
<g id="edge2_Node000002_Node000003" class="edge">
<title>Node2&#45;&gt;Node3</title>
<g id="a_edge2_Node000002_Node000003"><a xlink:title=" ">
<path fill="none" stroke="#63b8ff" d="M333.41,-362.77C222.08,-355.36 49.97,-340.41 30.21,-318 -11.24,-270.99 -8.69,-226.14 30.21,-177 48.04,-154.47 119.15,-141.02 174.36,-133.79"/>
<polygon fill="#63b8ff" stroke="#63b8ff" points="332.93,-366.25 343.14,-363.41 333.39,-359.27 332.93,-366.25"/>
</a>
</g>
</g>
<!-- Node4 -->
<g id="Node000004" class="node">
<title>Node4</title>
<g id="a_Node000004"><a xlink:href="_metrics_record_8h.html" target="_top" xlink:title=" ">
<polygon fill="white" stroke="#666666" points="615.33,-74.5 483.08,-74.5 483.08,-55.25 615.33,-55.25 615.33,-74.5"/>
<text text-anchor="middle" x="549.21" y="-61" font-family="Helvetica,sans-Serif" font-size="10.00">Ajax/Main/MetricsRecord.h</text>
</a>
</g>
</g>
<!-- Node3&#45;&gt;Node4 -->
<g id="edge3_Node000003_Node000004" class="edge">
<title>Node3&#45;&gt;Node4</title>
<g id="a_edge3_Node000003_Node000004"><a xlink:title=" ">
<path fill="none" stroke="#63b8ff" d="M301.57,-113.52C359.78,-102.32 448.08,-85.33 502.01,-74.96"/>
<polygon fill="#63b8ff" stroke="#63b8ff" points="300.99,-110.07 291.83,-115.39 302.32,-116.94 300.99,-110.07"/>
</a>
</g>
</g>
<!-- Node6 -->
<g id="Node000006" class="node">
<title>Node6</title>
<g id="a_Node000006"><a xlink:href="_personality_record_8h.html" target="_top" xlink:title=" ">
<polygon fill="white" stroke="#666666" points="394.21,-74.5 246.21,-74.5 246.21,-55.25 394.21,-55.25 394.21,-74.5"/>
<text text-anchor="middle" x="320.21" y="-61" font-family="Helvetica,sans-Serif" font-size="10.00">Ajax/Main/PersonalityRecord.h</text>
</a>
</g>
</g>
<!-- Node3&#45;&gt;Node6 -->
<g id="edge5_Node000003_Node000006" class="edge">
<title>Node3&#45;&gt;Node6</title>
<g id="a_edge5_Node000003_Node000006"><a xlink:title=" ">
<path fill="none" stroke="#63b8ff" d="M263.97,-108.88C278.21,-97.98 296.6,-83.92 308.4,-74.9"/>
<polygon fill="#63b8ff" stroke="#63b8ff" points="261.92,-106.03 256.1,-114.89 266.17,-111.6 261.92,-106.03"/>
</a>
</g>
</g>
<!-- Node8 -->
<g id="Node000008" class="node">
<title>Node8</title>
<g id="a_Node000008"><a xlink:href="_user_record_8h.html" target="_top" xlink:title=" ">
<polygon fill="white" stroke="#666666" points="227.71,-74.5 106.71,-74.5 106.71,-55.25 227.71,-55.25 227.71,-74.5"/>
<text text-anchor="middle" x="167.21" y="-61" font-family="Helvetica,sans-Serif" font-size="10.00">Ajax/Main/UserRecord.h</text>
</a>
</g>
</g>
<!-- Node3&#45;&gt;Node8 -->
<g id="edge7_Node000003_Node000008" class="edge">
<title>Node3&#45;&gt;Node8</title>
<g id="a_edge7_Node000003_Node000008"><a xlink:title=" ">
<path fill="none" stroke="#63b8ff" d="M222.71,-108.88C208.66,-97.98 190.5,-83.92 178.86,-74.9"/>
<polygon fill="#63b8ff" stroke="#63b8ff" points="220.42,-111.52 230.47,-114.88 224.7,-105.99 220.42,-111.52"/>
</a>
</g>
</g>
<!-- Node5 -->
<g id="Node000005" class="node">
<title>Node5</title>
<g id="a_Node000005"><a xlink:href="_ajax_2_metrics_2_api_8h.html" target="_top" xlink:title=" ">
<polygon fill="white" stroke="#666666" points="612.58,-19.25 517.83,-19.25 517.83,0 612.58,0 612.58,-19.25"/>
<text text-anchor="middle" x="565.21" y="-5.75" font-family="Helvetica,sans-Serif" font-size="10.00">Ajax/Metrics/Api.h</text>
</a>
</g>
</g>
<!-- Node4&#45;&gt;Node5 -->
<g id="edge4_Node000004_Node000005" class="edge">
<title>Node4&#45;&gt;Node5</title>
<g id="a_edge4_Node000004_Node000005"><a xlink:title=" ">
<path fill="none" stroke="#63b8ff" d="M555.12,-44.21C557.65,-35.77 560.49,-26.33 562.51,-19.61"/>
<polygon fill="#63b8ff" stroke="#63b8ff" points="551.81,-43.05 552.28,-53.63 558.51,-45.06 551.81,-43.05"/>
</a>
</g>
</g>
<!-- Node7 -->
<g id="Node000007" class="node">
<title>Node7</title>
<g id="a_Node000007"><a xlink:href="_provision_8h.html" target="_top" xlink:title=" ">
<polygon fill="white" stroke="#666666" points="463.46,-19.25 346.96,-19.25 346.96,0 463.46,0 463.46,-19.25"/>
<text text-anchor="middle" x="405.21" y="-5.75" font-family="Helvetica,sans-Serif" font-size="10.00">Ajax/TShell/Provision.h</text>
</a>
</g>
</g>
<!-- Node6&#45;&gt;Node7 -->
<g id="edge6_Node000006_Node000007" class="edge">
<title>Node6&#45;&gt;Node7</title>
<g id="a_edge6_Node000006_Node000007"><a xlink:title=" ">
<path fill="none" stroke="#63b8ff" d="M344.26,-48.8C359.24,-39.42 377.99,-27.67 390.72,-19.7"/>
<polygon fill="#63b8ff" stroke="#63b8ff" points="342.52,-45.76 335.91,-54.04 346.24,-51.7 342.52,-45.76"/>
</a>
</g>
</g>
<!-- Node9&#45;&gt;Node3 -->
<g id="edge9_Node000009_Node000003" class="edge">
<title>Node9&#45;&gt;Node3</title>
<g id="a_edge9_Node000009_Node000003"><a xlink:title=" ">
<path fill="none" stroke="#63b8ff" d="M560.13,-356.72C429.08,-327.2 93.8,-248.34 63.21,-207.5 29.99,-163.16 110.61,-142.62 174.47,-133.5"/>
<polygon fill="#63b8ff" stroke="#63b8ff" points="559.06,-360.07 569.58,-358.84 560.59,-353.24 559.06,-360.07"/>
</a>
</g>
</g>
<!-- Node11 -->
<g id="Node000011" class="node">
<title>Node11</title>
<g id="a_Node000011"><a xlink:href="_listener_client_sync_8h.html" target="_top" xlink:title=" ">
<polygon fill="white" stroke="#666666" points="1539.33,-384.5 1401.08,-384.5 1401.08,-354 1539.33,-354 1539.33,-384.5"/>
<text text-anchor="start" x="1409.08" y="-371" font-family="Helvetica,sans-Serif" font-size="10.00">Cpl/Io/Socket/ListenerClient</text>
<text text-anchor="middle" x="1470.21" y="-359.75" font-family="Helvetica,sans-Serif" font-size="10.00">Sync.h</text>
</a>
</g>
</g>
<!-- Node10&#45;&gt;Node11 -->
<g id="edge11_Node000010_Node000011" class="edge">
<title>Node10&#45;&gt;Node11</title>
<g id="a_edge11_Node000010_Node000011"><a xlink:title=" ">
<path fill="none" stroke="#63b8ff" d="M1425.05,-412.46C1434.83,-403.32 1445.89,-392.98 1454.61,-384.83"/>
<polygon fill="#63b8ff" stroke="#63b8ff" points="1422.88,-409.69 1417.97,-419.08 1427.66,-414.81 1422.88,-409.69"/>
</a>
</g>
</g>
<!-- Node13 -->
<g id="Node000013" class="node">
<title>Node13</title>
<g id="a_Node000013"><a xlink:href="_atomic_sync_8h.html" target="_top" xlink:title=" ">
<polygon fill="white" stroke="#666666" points="1221.96,-318 1114.46,-318 1114.46,-298.75 1221.96,-298.75 1221.96,-318"/>
<text text-anchor="middle" x="1168.21" y="-304.5" font-family="Helvetica,sans-Serif" font-size="10.00">Cpl/Itc/AtomicSync.h</text>
</a>
</g>
</g>
<!-- Node12&#45;&gt;Node13 -->
<g id="edge13_Node000012_Node000013" class="edge">
<title>Node12&#45;&gt;Node13</title>
<g id="a_edge13_Node000012_Node000013"><a xlink:title=" ">
<path fill="none" stroke="#63b8ff" d="M1168.21,-347.82C1168.21,-337.79 1168.21,-326.21 1168.21,-318.4"/>
<polygon fill="#63b8ff" stroke="#63b8ff" points="1164.71,-347.79 1168.21,-357.79 1171.71,-347.79 1164.71,-347.79"/>
</a>
</g>
</g>
<!-- Node15 -->
<g id="Node000015" class="node">
<title>Node15</title>
<g id="a_Node000015"><a xlink:href="_close_sync_8h.html" target="_top" xlink:title=" ">
<polygon fill="white" stroke="#666666" points="888.96,-262.75 787.46,-262.75 787.46,-243.5 888.96,-243.5 888.96,-262.75"/>
<text text-anchor="middle" x="838.21" y="-249.25" font-family="Helvetica,sans-Serif" font-size="10.00">Cpl/Itc/CloseSync.h</text>
</a>
</g>
</g>
<!-- Node14&#45;&gt;Node15 -->
<g id="edge15_Node000014_Node000015" class="edge">
<title>Node14&#45;&gt;Node15</title>
<g id="a_edge15_Node000014_Node000015"><a xlink:title=" ">
<path fill="none" stroke="#63b8ff" d="M782.17,-349.57C796.79,-324.67 822.08,-281.59 832.97,-263.04"/>
<polygon fill="#63b8ff" stroke="#63b8ff" points="779.27,-347.59 777.23,-357.99 785.31,-351.14 779.27,-347.59"/>
</a>
</g>
</g>
<!-- Node15&#45;&gt;Node5 -->
<g id="edge21_Node000015_Node000005" class="edge">
<title>Node15&#45;&gt;Node5</title>
<g id="a_edge21_Node000015_Node000005"><a xlink:title=" ">
<path fill="none" stroke="#63b8ff" d="M900.06,-240.66C918.31,-234.09 936.3,-223.75 947.21,-207.5 954.76,-196.24 954.43,-188.47 947.21,-177 927.51,-145.71 904.85,-158.37 872.21,-141 848.55,-128.41 844.31,-122.2 820.21,-110.5 739.58,-71.37 639.43,-35.71 592.23,-19.63"/>
<polygon fill="#63b8ff" stroke="#63b8ff" points="899.22,-237.25 890.78,-243.65 901.37,-243.92 899.22,-237.25"/>
</a>
</g>
</g>
<!-- Node16 -->
<g id="Node000016" class="node">
<title>Node16</title>
<g id="a_Node000016"><a xlink:href="_summary_8h.html" target="_top" xlink:title=" ">
<polygon fill="white" stroke="#666666" points="938.71,-201.88 823.71,-201.88 823.71,-182.62 938.71,-182.62 938.71,-201.88"/>
<text text-anchor="middle" x="881.21" y="-188.38" font-family="Helvetica,sans-Serif" font-size="10.00">Ajax/Alerts/Summary.h</text>
</a>
</g>
</g>
<!-- Node15&#45;&gt;Node16 -->
<g id="edge16_Node000015_Node000016" class="edge">
<title>Node15&#45;&gt;Node16</title>
<g id="a_edge16_Node000015_Node000016"><a xlink:title=" ">
<path fill="none" stroke="#63b8ff" d="M851.44,-234.01C859.12,-223.49 868.47,-210.69 874.61,-202.28"/>
<polygon fill="#63b8ff" stroke="#63b8ff" points="848.7,-231.82 845.63,-241.96 854.35,-235.95 848.7,-231.82"/>
</a>
</g>
</g>
<!-- Node17 -->
<g id="Node000017" class="node">
<title>Node17</title>
<g id="a_Node000017"><a xlink:href="_ajax_2_heating_2_io_2_api_8h.html" target="_top" xlink:title=" ">
<polygon fill="white" stroke="#666666" points="810.96,-135.38 703.46,-135.38 703.46,-116.12 810.96,-116.12 810.96,-135.38"/>
<text text-anchor="middle" x="757.21" y="-121.88" font-family="Helvetica,sans-Serif" font-size="10.00">Ajax/Heating/Io/Api.h</text>
</a>
</g>
</g>
<!-- Node15&#45;&gt;Node17 -->
<g id="edge17_Node000015_Node000017" class="edge">
<title>Node15&#45;&gt;Node17</title>
<g id="a_edge17_Node000015_Node000017"><a xlink:title=" ">
<path fill="none" stroke="#63b8ff" d="M826.19,-233.53C808.5,-206.15 776.12,-156.03 762.98,-135.68"/>
<polygon fill="#63b8ff" stroke="#63b8ff" points="823.19,-235.34 831.56,-241.84 829.07,-231.54 823.19,-235.34"/>
</a>
</g>
</g>
<!-- Node18 -->
<g id="Node000018" class="node">
<title>Node18</title>
<g id="a_Node000018"><a xlink:href="_ajax_2_heating_2_supervisor_2_api_8h.html" target="_top" xlink:title=" ">
<polygon fill="white" stroke="#666666" points="634.71,-207.5 513.71,-207.5 513.71,-177 634.71,-177 634.71,-207.5"/>
<text text-anchor="start" x="521.71" y="-194" font-family="Helvetica,sans-Serif" font-size="10.00">Ajax/Heating/Supervisor</text>
<text text-anchor="middle" x="574.21" y="-182.75" font-family="Helvetica,sans-Serif" font-size="10.00">/Api.h</text>
</a>
</g>
</g>
<!-- Node15&#45;&gt;Node18 -->
<g id="edge18_Node000015_Node000018" class="edge">
<title>Node15&#45;&gt;Node18</title>
<g id="a_edge18_Node000015_Node000018"><a xlink:title=" ">
<path fill="none" stroke="#63b8ff" d="M786.36,-240.56C742.92,-230.87 680.84,-217.03 635.05,-206.82"/>
<polygon fill="#63b8ff" stroke="#63b8ff" points="785.54,-243.96 796.06,-242.73 787.06,-237.13 785.54,-243.96"/>
</a>
</g>
</g>
<!-- Node20 -->
<g id="Node000020" class="node">
<title>Node20</title>
<g id="a_Node000020"><a xlink:href="_ajax_2_screen_mgr_2_api_8h.html" target="_top" xlink:title=" ">
<polygon fill="white" stroke="#666666" points="1105.08,-201.88 995.33,-201.88 995.33,-182.62 1105.08,-182.62 1105.08,-201.88"/>
<text text-anchor="middle" x="1050.21" y="-188.38" font-family="Helvetica,sans-Serif" font-size="10.00">Ajax/ScreenMgr/Api.h</text>
</a>
</g>
</g>
<!-- Node15&#45;&gt;Node20 -->
<g id="edge22_Node000015_Node000020" class="edge">
<title>Node15&#45;&gt;Node20</title>
<g id="a_edge22_Node000015_Node000020"><a xlink:title=" ">
<path fill="none" stroke="#63b8ff" d="M881.7,-240.05C922.01,-228.85 981.08,-212.45 1017.51,-202.33"/>
<polygon fill="#63b8ff" stroke="#63b8ff" points="881.02,-236.6 872.32,-242.65 882.9,-243.35 881.02,-236.6"/>
</a>
</g>
</g>
<!-- Node25 -->
<g id="Node000025" class="node">
<title>Node25</title>
<g id="a_Node000025"><a xlink:href="_logical_buttons_8h.html" target="_top" xlink:title=" ">
<polygon fill="white" stroke="#666666" points="195.83,-201.88 72.58,-201.88 72.58,-182.62 195.83,-182.62 195.83,-201.88"/>
<text text-anchor="middle" x="134.21" y="-188.38" font-family="Helvetica,sans-Serif" font-size="10.00">Ajax/Ui/LogicalButtons.h</text>
</a>
</g>
</g>
<!-- Node15&#45;&gt;Node25 -->
<g id="edge29_Node000015_Node000025" class="edge">
<title>Node15&#45;&gt;Node25</title>
<g id="a_edge29_Node000015_Node000025"><a xlink:title=" ">
<path fill="none" stroke="#63b8ff" d="M775.87,-250.37C662.05,-246.58 413.14,-235.58 205.21,-207.5 195.36,-206.17 184.83,-204.31 174.98,-202.36"/>
<polygon fill="#63b8ff" stroke="#63b8ff" points="775.49,-253.86 785.6,-250.69 775.72,-246.86 775.49,-253.86"/>
</a>
</g>
</g>
<!-- Node26 -->
<g id="Node000026" class="node">
<title>Node26</title>
<g id="a_Node000026"><a xlink:href="_ajax_2_ui_2_status_indicator_2_api_8h.html" target="_top" xlink:title=" ">
<polygon fill="white" stroke="#666666" points="330.46,-207.5 213.96,-207.5 213.96,-177 330.46,-177 330.46,-207.5"/>
<text text-anchor="start" x="221.96" y="-194" font-family="Helvetica,sans-Serif" font-size="10.00">Ajax/Ui/StatusIndicator</text>
<text text-anchor="middle" x="272.21" y="-182.75" font-family="Helvetica,sans-Serif" font-size="10.00">/Api.h</text>
</a>
</g>
</g>
<!-- Node15&#45;&gt;Node26 -->
<g id="edge30_Node000015_Node000026" class="edge">
<title>Node15&#45;&gt;Node26</title>
<g id="a_edge30_Node000015_Node000026"><a xlink:title=" ">
<path fill="none" stroke="#63b8ff" d="M775.58,-248.95C680.75,-243.6 495.25,-230.99 339.21,-207.5 336.38,-207.08 333.5,-206.6 330.6,-206.1"/>
<polygon fill="#63b8ff" stroke="#63b8ff" points="775.27,-252.44 785.45,-249.5 775.66,-245.45 775.27,-252.44"/>
</a>
</g>
</g>
<!-- Node27 -->
<g id="Node000027" class="node">
<title>Node27</title>
<g id="a_Node000027"><a xlink:href="_log_sink_8h.html" target="_top" xlink:title=" ">
<polygon fill="white" stroke="#666666" points="767.33,-201.88 653.08,-201.88 653.08,-182.62 767.33,-182.62 767.33,-201.88"/>
<text text-anchor="middle" x="710.21" y="-188.38" font-family="Helvetica,sans-Serif" font-size="10.00">Cpl/Logging/LogSink.h</text>
</a>
</g>
</g>
<!-- Node15&#45;&gt;Node27 -->
<g id="edge31_Node000015_Node000027" class="edge">
<title>Node15&#45;&gt;Node27</title>
<g id="a_edge31_Node000015_Node000027"><a xlink:title=" ">
<path fill="none" stroke="#63b8ff" d="M808.08,-238.27C783.87,-227.13 750.58,-211.82 729.74,-202.23"/>
<polygon fill="#63b8ff" stroke="#63b8ff" points="806.56,-241.42 817.11,-242.42 809.49,-235.06 806.56,-241.42"/>
</a>
</g>
</g>
<!-- Node28 -->
<g id="Node000028" class="node">
<title>Node28</title>
<g id="a_Node000028"><a xlink:href="_manager_8h.html" target="_top" xlink:title=" ">
<polygon fill="white" stroke="#666666" points="1388.58,-201.88 1281.83,-201.88 1281.83,-182.62 1388.58,-182.62 1388.58,-201.88"/>
<text text-anchor="middle" x="1335.21" y="-188.38" font-family="Helvetica,sans-Serif" font-size="10.00">Cpl/MApp/Manager.h</text>
</a>
</g>
</g>
<!-- Node15&#45;&gt;Node28 -->
<g id="edge32_Node000015_Node000028" class="edge">
<title>Node15&#45;&gt;Node28</title>
<g id="a_edge32_Node000015_Node000028"><a xlink:title=" ">
<path fill="none" stroke="#63b8ff" d="M900.71,-248.06C985.32,-242.03 1140.85,-229.03 1272.21,-207.5 1280.73,-206.1 1289.82,-204.26 1298.37,-202.36"/>
<polygon fill="#63b8ff" stroke="#63b8ff" points="900.49,-244.57 890.76,-248.76 900.98,-251.55 900.49,-244.57"/>
</a>
</g>
</g>
<!-- Node29 -->
<g id="Node000029" class="node">
<title>Node29</title>
<g id="a_Node000029"><a xlink:href="_indexed_entry_server_8h.html" target="_top" xlink:title=" ">
<polygon fill="white" stroke="#666666" points="1542.21,-207.5 1406.21,-207.5 1406.21,-177 1542.21,-177 1542.21,-207.5"/>
<text text-anchor="start" x="1414.21" y="-194" font-family="Helvetica,sans-Serif" font-size="10.00">Cpl/Persistent/IndexedEntry</text>
<text text-anchor="middle" x="1474.21" y="-182.75" font-family="Helvetica,sans-Serif" font-size="10.00">Server.h</text>
</a>
</g>
</g>
<!-- Node15&#45;&gt;Node29 -->
<g id="edge33_Node000015_Node000029" class="edge">
<title>Node15&#45;&gt;Node29</title>
<g id="a_edge33_Node000015_Node000029"><a xlink:title=" ">
<path fill="none" stroke="#63b8ff" d="M900.74,-249.25C1004.31,-244 1217.84,-231.19 1397.21,-207.5 1400.04,-207.13 1402.92,-206.72 1405.83,-206.28"/>
<polygon fill="#63b8ff" stroke="#63b8ff" points="900.59,-245.75 890.77,-249.74 900.94,-252.74 900.59,-245.75"/>
</a>
</g>
</g>
<!-- Node31 -->
<g id="Node000031" class="node">
<title>Node31</title>
<g id="a_Node000031"><a xlink:href="_record_server_8h.html" target="_top" xlink:title=" ">
<polygon fill="white" stroke="#666666" points="495.83,-201.88 348.58,-201.88 348.58,-182.62 495.83,-182.62 495.83,-201.88"/>
<text text-anchor="middle" x="422.21" y="-188.38" font-family="Helvetica,sans-Serif" font-size="10.00">Cpl/Persistent/RecordServer.h</text>
</a>
</g>
</g>
<!-- Node15&#45;&gt;Node31 -->
<g id="edge35_Node000015_Node000031" class="edge">
<title>Node15&#45;&gt;Node31</title>
<g id="a_edge35_Node000015_Node000031"><a xlink:title=" ">
<path fill="none" stroke="#63b8ff" d="M775.98,-244.55C708.82,-236.21 598.77,-222.03 504.21,-207.5 493.92,-205.92 482.94,-204.1 472.46,-202.3"/>
<polygon fill="#63b8ff" stroke="#63b8ff" points="775.33,-248 785.69,-245.75 776.19,-241.05 775.33,-248"/>
</a>
</g>
</g>
<!-- Node32 -->
<g id="Node000032" class="node">
<title>Node32</title>
<g id="a_Node000032"><a xlink:href="_ajax_2_thermistor_8h.html" target="_top" xlink:title=" ">
<polygon fill="white" stroke="#666666" points="1263.46,-201.88 1122.96,-201.88 1122.96,-182.62 1263.46,-182.62 1263.46,-201.88"/>
<text text-anchor="middle" x="1193.21" y="-188.38" font-family="Helvetica,sans-Serif" font-size="10.00">Driver/AIO/Ajax/Thermistor.h</text>
</a>
</g>
</g>
<!-- Node15&#45;&gt;Node32 -->
<g id="edge38_Node000015_Node000032" class="edge">
<title>Node15&#45;&gt;Node32</title>
<g id="a_edge38_Node000015_Node000032"><a xlink:title=" ">
<path fill="none" stroke="#63b8ff" d="M900.53,-242.38C956.5,-233.55 1040.91,-220.03 1114.21,-207.5 1123.68,-205.88 1133.79,-204.1 1143.5,-202.36"/>
<polygon fill="#63b8ff" stroke="#63b8ff" points="900.2,-238.89 890.87,-243.9 901.29,-245.8 900.2,-238.89"/>
</a>
</g>
</g>
<!-- Node18&#45;&gt;Node17 -->
<g id="edge19_Node000018_Node000017" class="edge">
<title>Node18&#45;&gt;Node17</title>
<g id="a_edge19_Node000018_Node000017"><a xlink:title=" ">
<path fill="none" stroke="#63b8ff" d="M626.53,-172.81C660.85,-160.71 704.25,-145.41 731.38,-135.85"/>
<polygon fill="#63b8ff" stroke="#63b8ff" points="625.43,-169.49 617.16,-176.11 627.75,-176.09 625.43,-169.49"/>
</a>
</g>
</g>
<!-- Node19 -->
<g id="Node000019" class="node">
<title>Node19</title>
<g id="a_Node000019"><a xlink:href="_heating_2_simulated_2_house_8h_source.html" target="_top" xlink:title=" ">
<polygon fill="white" stroke="#666666" points="633.21,-141 515.21,-141 515.21,-110.5 633.21,-110.5 633.21,-141"/>
<text text-anchor="start" x="523.21" y="-127.5" font-family="Helvetica,sans-Serif" font-size="10.00">Ajax/Heating/Simulated</text>
<text text-anchor="middle" x="574.21" y="-116.25" font-family="Helvetica,sans-Serif" font-size="10.00">/House.h</text>
</a>
</g>
</g>
<!-- Node18&#45;&gt;Node19 -->
<g id="edge20_Node000018_Node000019" class="edge">
<title>Node18&#45;&gt;Node19</title>
<g id="a_edge20_Node000018_Node000019"><a xlink:title=" ">
<path fill="none" stroke="#63b8ff" d="M574.21,-165.31C574.21,-157.14 574.21,-148.41 574.21,-141.33"/>
<polygon fill="#63b8ff" stroke="#63b8ff" points="570.71,-165.1 574.21,-175.1 577.71,-165.1 570.71,-165.1"/>
</a>
</g>
</g>
<!-- Node21 -->
<g id="Node000021" class="node">
<title>Node21</title>
<g id="a_Node000021"><a xlink:href="_ajax_2_ui_2_about_2_screen_8h.html" target="_top" xlink:title=" ">
<polygon fill="white" stroke="#666666" points="1284.83,-135.38 1167.58,-135.38 1167.58,-116.12 1284.83,-116.12 1284.83,-135.38"/>
<text text-anchor="middle" x="1226.21" y="-121.88" font-family="Helvetica,sans-Serif" font-size="10.00">Ajax/Ui/About/Screen.h</text>
</a>
</g>
</g>
<!-- Node20&#45;&gt;Node21 -->
<g id="edge23_Node000020_Node000021" class="edge">
<title>Node20&#45;&gt;Node21</title>
<g id="a_edge23_Node000020_Node000021"><a xlink:title=" ">
<path fill="none" stroke="#63b8ff" d="M1085.57,-178.29C1119.95,-165.69 1171.28,-146.88 1201.49,-135.81"/>
<polygon fill="#63b8ff" stroke="#63b8ff" points="1084.66,-174.9 1076.47,-181.62 1087.06,-181.47 1084.66,-174.9"/>
</a>
</g>
</g>
<!-- Node23 -->
<g id="Node000023" class="node">
<title>Node23</title>
<g id="a_Node000023"><a xlink:href="_ajax_2_ui_2_edit_setpt_2_screen_8h.html" target="_top" xlink:title=" ">
<polygon fill="white" stroke="#666666" points="1012.96,-135.38 881.46,-135.38 881.46,-116.12 1012.96,-116.12 1012.96,-135.38"/>
<text text-anchor="middle" x="947.21" y="-121.88" font-family="Helvetica,sans-Serif" font-size="10.00">Ajax/Ui/EditSetpt/Screen.h</text>
</a>
</g>
</g>
<!-- Node20&#45;&gt;Node23 -->
<g id="edge25_Node000020_Node000023" class="edge">
<title>Node20&#45;&gt;Node23</title>
<g id="a_edge25_Node000020_Node000023"><a xlink:title=" ">
<path fill="none" stroke="#63b8ff" d="M1026.26,-176.25C1006.29,-163.75 978.49,-146.34 961.74,-135.85"/>
<polygon fill="#63b8ff" stroke="#63b8ff" points="1024.27,-179.14 1034.6,-181.48 1027.98,-173.2 1024.27,-179.14"/>
</a>
</g>
</g>
<!-- Node24 -->
<g id="Node000024" class="node">
<title>Node24</title>
<g id="a_Node000024"><a xlink:href="_ajax_2_ui_2_home_2_screen_8h.html" target="_top" xlink:title=" ">
<polygon fill="white" stroke="#666666" points="1149.21,-135.38 1031.21,-135.38 1031.21,-116.12 1149.21,-116.12 1149.21,-135.38"/>
<text text-anchor="middle" x="1090.21" y="-121.88" font-family="Helvetica,sans-Serif" font-size="10.00">Ajax/Ui/Home/Screen.h</text>
</a>
</g>
</g>
<!-- Node20&#45;&gt;Node24 -->
<g id="edge27_Node000020_Node000024" class="edge">
<title>Node20&#45;&gt;Node24</title>
<g id="a_edge27_Node000020_Node000024"><a xlink:title=" ">
<path fill="none" stroke="#63b8ff" d="M1061.75,-172.64C1069.29,-160.48 1078.8,-145.14 1084.69,-135.64"/>
<polygon fill="#63b8ff" stroke="#63b8ff" points="1058.86,-170.65 1056.57,-181 1064.81,-174.34 1058.86,-170.65"/>
</a>
</g>
</g>
<!-- Node22 -->
<g id="Node000022" class="node">
<title>Node22</title>
<g id="a_Node000022"><a xlink:href="_ajax_2_main_2screens_8h.html" target="_top" xlink:title="This file exposes handles to Screen instances for the Ajax Application.">
<polygon fill="white" stroke="#666666" points="1142.08,-74.5 1038.33,-74.5 1038.33,-55.25 1142.08,-55.25 1142.08,-74.5"/>
<text text-anchor="middle" x="1090.21" y="-61" font-family="Helvetica,sans-Serif" font-size="10.00">Ajax/Main/screens.h</text>
</a>
</g>
</g>
<!-- Node21&#45;&gt;Node22 -->
<g id="edge24_Node000021_Node000022" class="edge">
<title>Node21&#45;&gt;Node22</title>
<g id="a_edge24_Node000021_Node000022"><a xlink:title=" ">
<path fill="none" stroke="#63b8ff" d="M1194.89,-111.19C1169.12,-100.04 1133.31,-84.53 1110.96,-74.86"/>
<polygon fill="#63b8ff" stroke="#63b8ff" points="1193.3,-114.32 1203.87,-115.08 1196.08,-107.89 1193.3,-114.32"/>
</a>
</g>
</g>
<!-- Node23&#45;&gt;Node22 -->
<g id="edge26_Node000023_Node000022" class="edge">
<title>Node23&#45;&gt;Node22</title>
<g id="a_edge26_Node000023_Node000022"><a xlink:title=" ">
<path fill="none" stroke="#63b8ff" d="M979.77,-111.34C1006.9,-100.17 1044.78,-84.58 1068.39,-74.86"/>
<polygon fill="#63b8ff" stroke="#63b8ff" points="978.55,-108.06 970.64,-115.1 981.22,-114.53 978.55,-108.06"/>
</a>
</g>
</g>
<!-- Node24&#45;&gt;Node22 -->
<g id="edge28_Node000024_Node000022" class="edge">
<title>Node24&#45;&gt;Node22</title>
<g id="a_edge28_Node000024_Node000022"><a xlink:title=" ">
<path fill="none" stroke="#63b8ff" d="M1090.21,-104.32C1090.21,-94.29 1090.21,-82.71 1090.21,-74.9"/>
<polygon fill="#63b8ff" stroke="#63b8ff" points="1086.71,-104.29 1090.21,-114.29 1093.71,-104.29 1086.71,-104.29"/>
</a>
</g>
</g>
<!-- Node30 -->
<g id="Node000030" class="node">
<title>Node30</title>
<g id="a_Node000030"><a xlink:href="_log_8h.html" target="_top" xlink:title=" ">
<polygon fill="white" stroke="#666666" points="1560.46,-141 1461.96,-141 1461.96,-110.5 1560.46,-110.5 1560.46,-141"/>
<text text-anchor="start" x="1469.96" y="-127.5" font-family="Helvetica,sans-Serif" font-size="10.00">Cpl/Logging/TShell</text>
<text text-anchor="middle" x="1511.21" y="-116.25" font-family="Helvetica,sans-Serif" font-size="10.00">/Log.h</text>
</a>
</g>
</g>
<!-- Node29&#45;&gt;Node30 -->
<g id="edge34_Node000029_Node000030" class="edge">
<title>Node29&#45;&gt;Node30</title>
<g id="a_edge34_Node000029_Node000030"><a xlink:title=" ">
<path fill="none" stroke="#63b8ff" d="M1488.27,-166.73C1493.19,-158.16 1498.54,-148.82 1502.84,-141.33"/>
<polygon fill="#63b8ff" stroke="#63b8ff" points="1485.3,-164.89 1483.36,-175.3 1491.37,-168.37 1485.3,-164.89"/>
</a>
</g>
</g>
<!-- Node31&#45;&gt;Node3 -->
<g id="edge37_Node000031_Node000003" class="edge">
<title>Node31&#45;&gt;Node3</title>
<g id="a_edge37_Node000031_Node000003"><a xlink:title=" ">
<path fill="none" stroke="#63b8ff" d="M386.24,-178.29C351.27,-165.69 299.07,-146.88 268.34,-135.81"/>
<polygon fill="#63b8ff" stroke="#63b8ff" points="384.92,-181.54 395.52,-181.63 387.29,-174.95 384.92,-181.54"/>
</a>
</g>
</g>
<!-- Node31&#45;&gt;Node7 -->
<g id="edge36_Node000031_Node000007" class="edge">
<title>Node31&#45;&gt;Node7</title>
<g id="a_edge36_Node000031_Node000007"><a xlink:title=" ">
<path fill="none" stroke="#63b8ff" d="M420.32,-171.21C416.65,-132.21 408.68,-47.49 406.06,-19.67"/>
<polygon fill="#63b8ff" stroke="#63b8ff" points="416.82,-171.4 421.24,-181.03 423.79,-170.75 416.82,-171.4"/>
</a>
</g>
</g>
<!-- Node33 -->
<g id="Node000033" class="node">
<title>Node33</title>
<g id="a_Node000033"><a xlink:href="_eros_2_thermistor_8h.html" target="_top" xlink:title=" ">
<polygon fill="white" stroke="#666666" points="1443.83,-135.38 1302.58,-135.38 1302.58,-116.12 1443.83,-116.12 1443.83,-135.38"/>
<text text-anchor="middle" x="1373.21" y="-121.88" font-family="Helvetica,sans-Serif" font-size="10.00">Driver/AIO/Eros/Thermistor.h</text>
</a>
</g>
</g>
<!-- Node32&#45;&gt;Node33 -->
<g id="edge39_Node000032_Node000033" class="edge">
<title>Node32&#45;&gt;Node33</title>
<g id="a_edge39_Node000032_Node000033"><a xlink:title=" ">
<path fill="none" stroke="#63b8ff" d="M1229.37,-178.29C1264.54,-165.69 1317.03,-146.88 1347.93,-135.81"/>
<polygon fill="#63b8ff" stroke="#63b8ff" points="1228.27,-174.97 1220.04,-181.63 1230.63,-181.56 1228.27,-174.97"/>
</a>
</g>
</g>
<!-- Node35 -->
<g id="Node000035" class="node">
<title>Node35</title>
<g id="a_Node000035"><a xlink:href="_open_sync_8h.html" target="_top" xlink:title=" ">
<polygon fill="white" stroke="#666666" points="940.21,-318 840.21,-318 840.21,-298.75 940.21,-298.75 940.21,-318"/>
<text text-anchor="middle" x="890.21" y="-304.5" font-family="Helvetica,sans-Serif" font-size="10.00">Cpl/Itc/OpenSync.h</text>
</a>
</g>
</g>
<!-- Node34&#45;&gt;Node35 -->
<g id="edge41_Node000034_Node000035" class="edge">
<title>Node34&#45;&gt;Node35</title>
<g id="a_edge41_Node000034_Node000035"><a xlink:title=" ">
<path fill="none" stroke="#63b8ff" d="M899.43,-348.16C897.02,-338.05 894.23,-326.3 892.35,-318.4"/>
<polygon fill="#63b8ff" stroke="#63b8ff" points="896.01,-348.92 901.73,-357.84 902.82,-347.3 896.01,-348.92"/>
</a>
</g>
</g>
<!-- Node35&#45;&gt;Node15 -->
<g id="edge42_Node000035_Node000015" class="edge">
<title>Node35&#45;&gt;Node15</title>
<g id="a_edge42_Node000035_Node000015"><a xlink:title=" ">
<path fill="none" stroke="#63b8ff" d="M873.8,-290.57C864.92,-281.48 854.29,-270.6 846.98,-263.11"/>
<polygon fill="#63b8ff" stroke="#63b8ff" points="871.07,-292.79 880.56,-297.5 876.08,-287.9 871.07,-292.79"/>
</a>
</g>
</g>
<!-- Node36&#45;&gt;Node2 -->
<g id="edge44_Node000036_Node000002" class="edge">
<title>Node36&#45;&gt;Node2</title>
<g id="a_edge44_Node000036_Node000002"><a xlink:title=" ">
<path fill="none" stroke="#63b8ff" d="M856.5,-425.84C772.42,-416.37 636.92,-400.57 520.21,-384.5 508.84,-382.94 496.7,-381.14 485.09,-379.37"/>
<polygon fill="#63b8ff" stroke="#63b8ff" points="855.92,-429.3 866.25,-426.94 856.71,-422.34 855.92,-429.3"/>
</a>
</g>
</g>
<!-- Node36&#45;&gt;Node9 -->
<g id="edge45_Node000036_Node000009" class="edge">
<title>Node36&#45;&gt;Node9</title>
<g id="a_edge45_Node000036_Node000009"><a xlink:title=" ">
<path fill="none" stroke="#63b8ff" d="M880.38,-423.47C817.23,-410.94 716.47,-390.94 658.11,-379.36"/>
<polygon fill="#63b8ff" stroke="#63b8ff" points="879.36,-426.84 889.85,-425.35 880.72,-419.97 879.36,-426.84"/>
</a>
</g>
</g>
<!-- Node36&#45;&gt;Node12 -->
<g id="edge46_Node000036_Node000012" class="edge">
<title>Node36&#45;&gt;Node12</title>
<g id="a_edge46_Node000036_Node000012"><a xlink:title=" ">
<path fill="none" stroke="#63b8ff" d="M980.72,-422.6C1025.82,-410.01 1095.26,-390.62 1135.77,-379.31"/>
<polygon fill="#63b8ff" stroke="#63b8ff" points="979.96,-419.18 971.27,-425.24 981.84,-425.92 979.96,-419.18"/>
</a>
</g>
</g>
<!-- Node36&#45;&gt;Node14 -->
<g id="edge47_Node000036_Node000014" class="edge">
<title>Node36&#45;&gt;Node14</title>
<g id="a_edge47_Node000036_Node000014"><a xlink:title=" ">
<path fill="none" stroke="#63b8ff" d="M903.43,-421.63C871.01,-409.03 822.89,-390.33 794.52,-379.31"/>
<polygon fill="#63b8ff" stroke="#63b8ff" points="901.78,-424.74 912.36,-425.1 904.31,-418.21 901.78,-424.74"/>
</a>
</g>
</g>
<!-- Node36&#45;&gt;Node34 -->
<g id="edge48_Node000036_Node000034" class="edge">
<title>Node36&#45;&gt;Node34</title>
<g id="a_edge48_Node000036_Node000034"><a xlink:title=" ">
<path fill="none" stroke="#63b8ff" d="M927.49,-415.77C921.3,-403.67 913.57,-388.55 908.76,-379.14"/>
<polygon fill="#63b8ff" stroke="#63b8ff" points="924.26,-417.13 931.93,-424.43 930.49,-413.94 924.26,-417.13"/>
</a>
</g>
</g>
<!-- Node36&#45;&gt;Node37 -->
<g id="edge49_Node000036_Node000037" class="edge">
<title>Node36&#45;&gt;Node37</title>
<g id="a_edge49_Node000036_Node000037"><a xlink:title=" ">
<path fill="none" stroke="#63b8ff" d="M960.28,-419.41C979.04,-406.93 1004.89,-389.75 1020.52,-379.35"/>
<polygon fill="#63b8ff" stroke="#63b8ff" points="958.34,-416.49 951.95,-424.94 962.22,-422.32 958.34,-416.49"/>
</a>
</g>
</g>
<!-- Node36&#45;&gt;Node38 -->
<g id="edge51_Node000036_Node000038" class="edge">
<title>Node36&#45;&gt;Node38</title>
<g id="a_edge51_Node000036_Node000038"><a xlink:title=" ">
<path fill="none" stroke="#63b8ff" d="M1004.59,-423.85C1065.63,-413.89 1158.02,-398.61 1238.21,-384.5 1241.02,-384.01 1243.89,-383.5 1246.78,-382.98"/>
<polygon fill="#63b8ff" stroke="#63b8ff" points="1004.37,-420.34 995.06,-425.4 1005.49,-427.25 1004.37,-420.34"/>
</a>
</g>
</g>
<!-- Node37&#45;&gt;Node28 -->
<g id="edge50_Node000037_Node000028" class="edge">
<title>Node37&#45;&gt;Node28</title>
<g id="a_edge50_Node000037_Node000028"><a xlink:title=" ">
<path fill="none" stroke="#63b8ff" d="M1048.61,-351.12C1062.06,-335.9 1083.31,-313.8 1105.21,-298.75 1172.35,-252.58 1262.95,-217.92 1307.76,-202.34"/>
<polygon fill="#63b8ff" stroke="#63b8ff" points="1046.18,-348.58 1042.29,-358.43 1051.47,-353.15 1046.18,-348.58"/>
</a>
</g>
</g>
<!-- Node38&#45;&gt;Node29 -->
<g id="edge52_Node000038_Node000029" class="edge">
<title>Node38&#45;&gt;Node29</title>
<g id="a_edge52_Node000038_Node000029"><a xlink:title=" ">
<path fill="none" stroke="#63b8ff" d="M1335.84,-345.54C1369.05,-308.99 1433.43,-238.13 1461.07,-207.7"/>
<polygon fill="#63b8ff" stroke="#63b8ff" points="1333.64,-342.76 1329.51,-352.51 1338.82,-347.46 1333.64,-342.76"/>
</a>
</g>
</g>
</g>
</svg>
