<?xml version="1.0" encoding="UTF-8" standalone="no"?>
<!DOCTYPE svg PUBLIC "-//W3C//DTD SVG 1.1//EN"
 "http://www.w3.org/Graphics/SVG/1.1/DTD/svg11.dtd">
<!-- Generated by graphviz version 9.0.0 (20230911.1827)
 -->
<!-- Title: Cpl/TShell/Restartable.h Pages: 1 -->
<svg width="773pt" height="414pt"
 viewBox="0.00 0.00 772.50 414.00" xmlns="http://www.w3.org/2000/svg" xmlns:xlink="http://www.w3.org/1999/xlink">
<g id="graph0" class="graph" transform="scale(1 1) rotate(0) translate(4 410)">
<title>Cpl/TShell/Restartable.h</title>
<!-- Node1 -->
<g id="Node000001" class="node">
<title>Node1</title>
<g id="a_Node000001"><a xlink:title=" ">
<polygon fill="#999999" stroke="#666666" points="614.25,-406 493.25,-406 493.25,-386.75 614.25,-386.75 614.25,-406"/>
<text text-anchor="middle" x="553.75" y="-392.5" font-family="Helvetica,sans-Serif" font-size="10.00">Cpl/TShell/Restartable.h</text>
</a>
</g>
</g>
<!-- Node2 -->
<g id="Node000002" class="node">
<title>Node2</title>
<g id="a_Node000002"><a xlink:href="_stdio_8h.html" target="_top" xlink:title=" ">
<polygon fill="white" stroke="#666666" points="563.75,-350.75 469.75,-350.75 469.75,-331.5 563.75,-331.5 563.75,-350.75"/>
<text text-anchor="middle" x="516.75" y="-337.25" font-family="Helvetica,sans-Serif" font-size="10.00">Cpl/TShell/Stdio.h</text>
</a>
</g>
</g>
<!-- Node1&#45;&gt;Node2 -->
<g id="edge1_Node000001_Node000002" class="edge">
<title>Node1&#45;&gt;Node2</title>
<g id="a_edge1_Node000001_Node000002"><a xlink:title=" ">
<path fill="none" stroke="#63b8ff" d="M547.64,-386.58C542.69,-379.46 535.55,-369.18 529.38,-360.3"/>
<polygon fill="#63b8ff" stroke="#63b8ff" points="532.44,-358.57 523.86,-352.35 526.69,-362.56 532.44,-358.57"/>
</a>
</g>
</g>
<!-- Node19 -->
<g id="Node000019" class="node">
<title>Node19</title>
<g id="a_Node000019"><a xlink:href="_thread_8h.html" target="_top" xlink:title=" ">
<polygon fill="white" stroke="#666666" points="645.12,-295.5 538.38,-295.5 538.38,-276.25 645.12,-276.25 645.12,-295.5"/>
<text text-anchor="middle" x="591.75" y="-282" font-family="Helvetica,sans-Serif" font-size="10.00">Cpl/System/Thread.h</text>
</a>
</g>
</g>
<!-- Node1&#45;&gt;Node19 -->
<g id="edge30_Node000001_Node000019" class="edge">
<title>Node1&#45;&gt;Node19</title>
<g id="a_edge30_Node000001_Node000019"><a xlink:title=" ">
<path fill="none" stroke="#63b8ff" d="M557.99,-386.27C562.06,-377.33 568.24,-363.27 572.75,-350.75 578.04,-336.07 583.03,-319.12 586.57,-306.38"/>
<polygon fill="#63b8ff" stroke="#63b8ff" points="589.84,-307.68 589.08,-297.12 583.08,-305.85 589.84,-307.68"/>
</a>
</g>
</g>
<!-- Node3 -->
<g id="Node000003" class="node">
<title>Node3</title>
<g id="a_Node000003"><a xlink:href="_processor_api_8h.html" target="_top" xlink:title=" ">
<polygon fill="white" stroke="#666666" points="415.75,-295.5 285.75,-295.5 285.75,-276.25 415.75,-276.25 415.75,-295.5"/>
<text text-anchor="middle" x="350.75" y="-282" font-family="Helvetica,sans-Serif" font-size="10.00">Cpl/TShell/ProcessorApi.h</text>
</a>
</g>
</g>
<!-- Node2&#45;&gt;Node3 -->
<g id="edge2_Node000002_Node000003" class="edge">
<title>Node2&#45;&gt;Node3</title>
<g id="a_edge2_Node000002_Node000003"><a xlink:title=" ">
<path fill="none" stroke="#63b8ff" d="M488.59,-331.09C461.4,-322.37 420.01,-309.09 389.68,-299.36"/>
<polygon fill="#63b8ff" stroke="#63b8ff" points="391.08,-296.14 380.49,-296.41 388.94,-302.8 391.08,-296.14"/>
</a>
</g>
</g>
<!-- Node2&#45;&gt;Node19 -->
<g id="edge23_Node000002_Node000019" class="edge">
<title>Node2&#45;&gt;Node19</title>
<g id="a_edge23_Node000002_Node000019"><a xlink:title=" ">
<path fill="none" stroke="#63b8ff" d="M529.47,-331.09C540.46,-323.29 556.59,-311.84 569.68,-302.54"/>
<polygon fill="#63b8ff" stroke="#63b8ff" points="571.6,-305.47 577.73,-296.83 567.55,-299.76 571.6,-305.47"/>
</a>
</g>
</g>
<!-- Node4 -->
<g id="Node000004" class="node">
<title>Node4</title>
<g id="a_Node000004"><a xlink:href="_input_8h.html" target="_top" xlink:title=" ">
<polygon fill="white" stroke="#666666" points="387.62,-240.25 313.88,-240.25 313.88,-221 387.62,-221 387.62,-240.25"/>
<text text-anchor="middle" x="350.75" y="-226.75" font-family="Helvetica,sans-Serif" font-size="10.00">Cpl/Io/Input.h</text>
</a>
</g>
</g>
<!-- Node3&#45;&gt;Node4 -->
<g id="edge3_Node000003_Node000004" class="edge">
<title>Node3&#45;&gt;Node4</title>
<g id="a_edge3_Node000003_Node000004"><a xlink:title=" ">
<path fill="none" stroke="#63b8ff" d="M350.75,-276.08C350.75,-269.57 350.75,-260.42 350.75,-252.12"/>
<polygon fill="#63b8ff" stroke="#63b8ff" points="354.25,-252.12 350.75,-242.12 347.25,-252.12 354.25,-252.12"/>
</a>
</g>
</g>
<!-- Node18 -->
<g id="Node000018" class="node">
<title>Node18</title>
<g id="a_Node000018"><a xlink:href="_output_8h.html" target="_top" xlink:title=" ">
<polygon fill="white" stroke="#666666" points="295.38,-240.25 214.12,-240.25 214.12,-221 295.38,-221 295.38,-240.25"/>
<text text-anchor="middle" x="254.75" y="-226.75" font-family="Helvetica,sans-Serif" font-size="10.00">Cpl/Io/Output.h</text>
</a>
</g>
</g>
<!-- Node3&#45;&gt;Node18 -->
<g id="edge18_Node000003_Node000018" class="edge">
<title>Node3&#45;&gt;Node18</title>
<g id="a_edge18_Node000003_Node000018"><a xlink:title=" ">
<path fill="none" stroke="#63b8ff" d="M334.46,-275.84C319.85,-267.73 298.12,-255.68 281.04,-246.21"/>
<polygon fill="#63b8ff" stroke="#63b8ff" points="282.88,-243.23 272.44,-241.44 279.49,-249.35 282.88,-243.23"/>
</a>
</g>
</g>
<!-- Node5 -->
<g id="Node000005" class="node">
<title>Node5</title>
<g id="a_Node000005"><a xlink:href="_text_2_string_8h.html" target="_top" xlink:title=" ">
<polygon fill="white" stroke="#666666" points="248.75,-185 160.75,-185 160.75,-165.75 248.75,-165.75 248.75,-185"/>
<text text-anchor="middle" x="204.75" y="-171.5" font-family="Helvetica,sans-Serif" font-size="10.00">Cpl/Text/String.h</text>
</a>
</g>
</g>
<!-- Node4&#45;&gt;Node5 -->
<g id="edge4_Node000004_Node000005" class="edge">
<title>Node4&#45;&gt;Node5</title>
<g id="a_edge4_Node000004_Node000005"><a xlink:title=" ">
<path fill="none" stroke="#63b8ff" d="M325.98,-220.59C302.49,-212.02 266.94,-199.06 240.4,-189.38"/>
<polygon fill="#63b8ff" stroke="#63b8ff" points="241.65,-186.11 231.06,-185.97 239.26,-192.69 241.65,-186.11"/>
</a>
</g>
</g>
<!-- Node15 -->
<g id="Node000015" class="node">
<title>Node15</title>
<g id="a_Node000015"><a xlink:href="_close_8h.html" target="_top" xlink:title=" ">
<polygon fill="white" stroke="#666666" points="381.12,-185 304.38,-185 304.38,-165.75 381.12,-165.75 381.12,-185"/>
<text text-anchor="middle" x="342.75" y="-171.5" font-family="Helvetica,sans-Serif" font-size="10.00">Cpl/Io/Close.h</text>
</a>
</g>
</g>
<!-- Node4&#45;&gt;Node15 -->
<g id="edge15_Node000004_Node000015" class="edge">
<title>Node4&#45;&gt;Node15</title>
<g id="a_edge15_Node000004_Node000015"><a xlink:title=" ">
<path fill="none" stroke="#63b8ff" d="M349.43,-220.83C348.44,-214.24 347.04,-204.96 345.78,-196.57"/>
<polygon fill="#63b8ff" stroke="#63b8ff" points="349.27,-196.22 344.32,-186.86 342.35,-197.26 349.27,-196.22"/>
</a>
</g>
</g>
<!-- Node17 -->
<g id="Node000017" class="node">
<title>Node17</title>
<g id="a_Node000017"><a xlink:href="_is_eos_8h.html" target="_top" xlink:title=" ">
<polygon fill="white" stroke="#666666" points="476.12,-185 399.38,-185 399.38,-165.75 476.12,-165.75 476.12,-185"/>
<text text-anchor="middle" x="437.75" y="-171.5" font-family="Helvetica,sans-Serif" font-size="10.00">Cpl/Io/IsEos.h</text>
</a>
</g>
</g>
<!-- Node4&#45;&gt;Node17 -->
<g id="edge17_Node000004_Node000017" class="edge">
<title>Node4&#45;&gt;Node17</title>
<g id="a_edge17_Node000004_Node000017"><a xlink:title=" ">
<path fill="none" stroke="#63b8ff" d="M365.51,-220.59C378.63,-212.56 398.07,-200.66 413.48,-191.23"/>
<polygon fill="#63b8ff" stroke="#63b8ff" points="414.93,-194.45 421.63,-186.24 411.27,-188.48 414.93,-194.45"/>
</a>
</g>
</g>
<!-- Node6 -->
<g id="Node000006" class="node">
<title>Node6</title>
<g id="a_Node000006"><a xlink:title=" ">
<polygon fill="#e0e0e0" stroke="#999999" points="342.38,-74.5 267.12,-74.5 267.12,-55.25 342.38,-55.25 342.38,-74.5"/>
<text text-anchor="middle" x="304.75" y="-61" font-family="Helvetica,sans-Serif" font-size="10.00">colony_map.h</text>
</a>
</g>
</g>
<!-- Node5&#45;&gt;Node6 -->
<g id="edge5_Node000005_Node000006" class="edge">
<title>Node5&#45;&gt;Node6</title>
<g id="a_edge5_Node000005_Node000006"><a xlink:title=" ">
<path fill="none" stroke="#63b8ff" d="M212.93,-165.5C229.49,-147.53 267.21,-106.61 288.8,-83.19"/>
<polygon fill="#63b8ff" stroke="#63b8ff" points="291.22,-85.71 295.43,-75.99 286.08,-80.97 291.22,-85.71"/>
</a>
</g>
</g>
<!-- Node7 -->
<g id="Node000007" class="node">
<title>Node7</title>
<g id="a_Node000007"><a xlink:href="_key_8h.html" target="_top" xlink:title=" ">
<polygon fill="white" stroke="#666666" points="225.5,-129.75 124,-129.75 124,-110.5 225.5,-110.5 225.5,-129.75"/>
<text text-anchor="middle" x="174.75" y="-116.25" font-family="Helvetica,sans-Serif" font-size="10.00">Cpl/Container/Key.h</text>
</a>
</g>
</g>
<!-- Node5&#45;&gt;Node7 -->
<g id="edge6_Node000005_Node000007" class="edge">
<title>Node5&#45;&gt;Node7</title>
<g id="a_edge6_Node000005_Node000007"><a xlink:title=" ">
<path fill="none" stroke="#63b8ff" d="M199.8,-165.58C195.87,-158.61 190.24,-148.62 185.31,-139.87"/>
<polygon fill="#63b8ff" stroke="#63b8ff" points="188.51,-138.42 180.55,-131.43 182.41,-141.86 188.51,-138.42"/>
</a>
</g>
</g>
<!-- Node13 -->
<g id="Node000013" class="node">
<title>Node13</title>
<g id="a_Node000013"><a xlink:title=" ">
<polygon fill="#e0e0e0" stroke="#999999" points="332,-129.75 281.5,-129.75 281.5,-110.5 332,-110.5 332,-129.75"/>
<text text-anchor="middle" x="306.75" y="-116.25" font-family="Helvetica,sans-Serif" font-size="10.00">stdarg.h</text>
</a>
</g>
</g>
<!-- Node5&#45;&gt;Node13 -->
<g id="edge13_Node000005_Node000013" class="edge">
<title>Node5&#45;&gt;Node13</title>
<g id="a_edge13_Node000005_Node000013"><a xlink:title=" ">
<path fill="none" stroke="#63b8ff" d="M222.05,-165.34C237.73,-157.16 261.1,-144.96 279.33,-135.44"/>
<polygon fill="#63b8ff" stroke="#63b8ff" points="280.78,-138.63 288.02,-130.9 277.54,-132.43 280.78,-138.63"/>
</a>
</g>
</g>
<!-- Node14 -->
<g id="Node000014" class="node">
<title>Node14</title>
<g id="a_Node000014"><a xlink:title=" ">
<polygon fill="#e0e0e0" stroke="#999999" points="105.5,-129.75 52,-129.75 52,-110.5 105.5,-110.5 105.5,-129.75"/>
<text text-anchor="middle" x="78.75" y="-116.25" font-family="Helvetica,sans-Serif" font-size="10.00">iostream</text>
</a>
</g>
</g>
<!-- Node5&#45;&gt;Node14 -->
<g id="edge14_Node000005_Node000014" class="edge">
<title>Node5&#45;&gt;Node14</title>
<g id="a_edge14_Node000005_Node000014"><a xlink:title=" ">
<path fill="none" stroke="#63b8ff" d="M183.38,-165.34C163.46,-156.93 133.51,-144.27 110.75,-134.65"/>
<polygon fill="#63b8ff" stroke="#63b8ff" points="112.2,-131.46 101.62,-130.79 109.47,-137.91 112.2,-131.46"/>
</a>
</g>
</g>
<!-- Node7&#45;&gt;Node6 -->
<g id="edge12_Node000007_Node000006" class="edge">
<title>Node7&#45;&gt;Node6</title>
<g id="a_edge12_Node000007_Node000006"><a xlink:title=" ">
<path fill="none" stroke="#63b8ff" d="M196.8,-110.09C217.44,-101.64 248.53,-88.9 272.05,-79.27"/>
<polygon fill="#63b8ff" stroke="#63b8ff" points="273.26,-82.56 281.19,-75.53 270.61,-76.08 273.26,-82.56"/>
</a>
</g>
</g>
<!-- Node8 -->
<g id="Node000008" class="node">
<title>Node8</title>
<g id="a_Node000008"><a xlink:href="_fatal_error_8h.html" target="_top" xlink:title=" ">
<polygon fill="white" stroke="#666666" points="184.12,-74.5 65.38,-74.5 65.38,-55.25 184.12,-55.25 184.12,-74.5"/>
<text text-anchor="middle" x="124.75" y="-61" font-family="Helvetica,sans-Serif" font-size="10.00">Cpl/System/FatalError.h</text>
</a>
</g>
</g>
<!-- Node7&#45;&gt;Node8 -->
<g id="edge7_Node000007_Node000008" class="edge">
<title>Node7&#45;&gt;Node8</title>
<g id="a_edge7_Node000007_Node000008"><a xlink:title=" ">
<path fill="none" stroke="#63b8ff" d="M166.49,-110.33C159.59,-102.98 149.53,-92.26 141.01,-83.19"/>
<polygon fill="#63b8ff" stroke="#63b8ff" points="143.62,-80.86 134.22,-75.96 138.52,-85.65 143.62,-80.86"/>
</a>
</g>
</g>
<!-- Node11 -->
<g id="Node000011" class="node">
<title>Node11</title>
<g id="a_Node000011"><a xlink:title=" ">
<polygon fill="#e0e0e0" stroke="#999999" points="249.5,-74.5 202,-74.5 202,-55.25 249.5,-55.25 249.5,-74.5"/>
<text text-anchor="middle" x="225.75" y="-61" font-family="Helvetica,sans-Serif" font-size="10.00">stdint.h</text>
</a>
</g>
</g>
<!-- Node7&#45;&gt;Node11 -->
<g id="edge10_Node000007_Node000011" class="edge">
<title>Node7&#45;&gt;Node11</title>
<g id="a_edge10_Node000007_Node000011"><a xlink:title=" ">
<path fill="none" stroke="#63b8ff" d="M183.17,-110.33C190.29,-102.9 200.69,-92.04 209.44,-82.91"/>
<polygon fill="#63b8ff" stroke="#63b8ff" points="211.71,-85.6 216.1,-75.95 206.65,-80.75 211.71,-85.6"/>
</a>
</g>
</g>
<!-- Node12 -->
<g id="Node000012" class="node">
<title>Node12</title>
<g id="a_Node000012"><a xlink:title=" ">
<polygon fill="#e0e0e0" stroke="#999999" points="47.5,-74.5 0,-74.5 0,-55.25 47.5,-55.25 47.5,-74.5"/>
<text text-anchor="middle" x="23.75" y="-61" font-family="Helvetica,sans-Serif" font-size="10.00">string.h</text>
</a>
</g>
</g>
<!-- Node7&#45;&gt;Node12 -->
<g id="edge11_Node000007_Node000012" class="edge">
<title>Node7&#45;&gt;Node12</title>
<g id="a_edge11_Node000007_Node000012"><a xlink:title=" ">
<path fill="none" stroke="#63b8ff" d="M149.13,-110.09C124.29,-101.33 86.39,-87.96 58.76,-78.22"/>
<polygon fill="#63b8ff" stroke="#63b8ff" points="60.01,-74.95 49.42,-74.93 57.68,-81.55 60.01,-74.95"/>
</a>
</g>
</g>
<!-- Node9 -->
<g id="Node000009" class="node">
<title>Node9</title>
<g id="a_Node000009"><a xlink:title=" ">
<polygon fill="#e0e0e0" stroke="#999999" points="108,-19.25 57.5,-19.25 57.5,0 108,0 108,-19.25"/>
<text text-anchor="middle" x="82.75" y="-5.75" font-family="Helvetica,sans-Serif" font-size="10.00">stddef.h</text>
</a>
</g>
</g>
<!-- Node8&#45;&gt;Node9 -->
<g id="edge8_Node000008_Node000009" class="edge">
<title>Node8&#45;&gt;Node9</title>
<g id="a_edge8_Node000008_Node000009"><a xlink:title=" ">
<path fill="none" stroke="#63b8ff" d="M117.81,-55.08C112.13,-47.88 103.91,-37.46 96.86,-28.51"/>
<polygon fill="#63b8ff" stroke="#63b8ff" points="99.71,-26.48 90.77,-20.8 94.22,-30.82 99.71,-26.48"/>
</a>
</g>
</g>
<!-- Node10 -->
<g id="Node000010" class="node">
<title>Node10</title>
<g id="a_Node000010"><a xlink:title=" ">
<polygon fill="#e0e0e0" stroke="#999999" points="207.75,-19.25 125.75,-19.25 125.75,0 207.75,0 207.75,-19.25"/>
<text text-anchor="middle" x="166.75" y="-5.75" font-family="Helvetica,sans-Serif" font-size="10.00">colony_config.h</text>
</a>
</g>
</g>
<!-- Node8&#45;&gt;Node10 -->
<g id="edge9_Node000008_Node000010" class="edge">
<title>Node8&#45;&gt;Node10</title>
<g id="a_edge9_Node000008_Node000010"><a xlink:title=" ">
<path fill="none" stroke="#63b8ff" d="M131.69,-55.08C137.37,-47.88 145.59,-37.46 152.64,-28.51"/>
<polygon fill="#63b8ff" stroke="#63b8ff" points="155.28,-30.82 158.73,-20.8 149.79,-26.48 155.28,-30.82"/>
</a>
</g>
</g>
<!-- Node16 -->
<g id="Node000016" class="node">
<title>Node16</title>
<g id="a_Node000016"><a xlink:href="_item_8h.html" target="_top" xlink:title=" ">
<polygon fill="white" stroke="#666666" points="530,-129.75 425.5,-129.75 425.5,-110.5 530,-110.5 530,-129.75"/>
<text text-anchor="middle" x="477.75" y="-116.25" font-family="Helvetica,sans-Serif" font-size="10.00">Cpl/Container/Item.h</text>
</a>
</g>
</g>
<!-- Node15&#45;&gt;Node16 -->
<g id="edge16_Node000015_Node000016" class="edge">
<title>Node15&#45;&gt;Node16</title>
<g id="a_edge16_Node000015_Node000016"><a xlink:title=" ">
<path fill="none" stroke="#63b8ff" d="M365.65,-165.34C387.18,-156.85 419.66,-144.04 444.13,-134.39"/>
<polygon fill="#63b8ff" stroke="#63b8ff" points="445.31,-137.68 453.33,-130.76 442.74,-131.17 445.31,-137.68"/>
</a>
</g>
</g>
<!-- Node18&#45;&gt;Node5 -->
<g id="edge19_Node000018_Node000005" class="edge">
<title>Node18&#45;&gt;Node5</title>
<g id="a_edge19_Node000018_Node000005"><a xlink:title=" ">
<path fill="none" stroke="#63b8ff" d="M246.49,-220.83C239.59,-213.48 229.53,-202.76 221.01,-193.69"/>
<polygon fill="#63b8ff" stroke="#63b8ff" points="223.62,-191.36 214.22,-186.46 218.52,-196.15 223.62,-191.36"/>
</a>
</g>
</g>
<!-- Node18&#45;&gt;Node13 -->
<g id="edge22_Node000018_Node000013" class="edge">
<title>Node18&#45;&gt;Node13</title>
<g id="a_edge22_Node000018_Node000013"><a xlink:title=" ">
<path fill="none" stroke="#63b8ff" d="M259.01,-220.75C267.39,-203.26 286.19,-164.02 297.54,-140.34"/>
<polygon fill="#63b8ff" stroke="#63b8ff" points="300.62,-142.02 301.78,-131.49 294.3,-139 300.62,-142.02"/>
</a>
</g>
</g>
<!-- Node18&#45;&gt;Node15 -->
<g id="edge20_Node000018_Node000015" class="edge">
<title>Node18&#45;&gt;Node15</title>
<g id="a_edge20_Node000018_Node000015"><a xlink:title=" ">
<path fill="none" stroke="#63b8ff" d="M269.68,-220.59C282.95,-212.56 302.62,-200.66 318.2,-191.23"/>
<polygon fill="#63b8ff" stroke="#63b8ff" points="319.71,-194.41 326.45,-186.24 316.09,-188.42 319.71,-194.41"/>
</a>
</g>
</g>
<!-- Node18&#45;&gt;Node17 -->
<g id="edge21_Node000018_Node000017" class="edge">
<title>Node18&#45;&gt;Node17</title>
<g id="a_edge21_Node000018_Node000017"><a xlink:title=" ">
<path fill="none" stroke="#63b8ff" d="M285.79,-220.59C316.03,-211.79 362.2,-198.36 395.72,-188.61"/>
<polygon fill="#63b8ff" stroke="#63b8ff" points="396.48,-192.03 405.1,-185.88 394.52,-185.31 396.48,-192.03"/>
</a>
</g>
</g>
<!-- Node19&#45;&gt;Node6 -->
<g id="edge24_Node000019_Node000006" class="edge">
<title>Node19&#45;&gt;Node6</title>
<g id="a_edge24_Node000019_Node000006"><a xlink:title=" ">
<path fill="none" stroke="#63b8ff" d="M645.52,-283.26C704.2,-279.27 786.37,-265.78 758.75,-221 701.31,-127.87 642.37,-145.64 538.75,-110.5 476.88,-89.52 402.26,-77.44 354.19,-71.26"/>
<polygon fill="#63b8ff" stroke="#63b8ff" points="354.72,-67.8 344.36,-70.04 353.85,-74.75 354.72,-67.8"/>
</a>
</g>
</g>
<!-- Node20 -->
<g id="Node000020" class="node">
<title>Node20</title>
<g id="a_Node000020"><a xlink:href="_runnable_8h.html" target="_top" xlink:title=" ">
<polygon fill="white" stroke="#666666" points="523.38,-240.25 406.12,-240.25 406.12,-221 523.38,-221 523.38,-240.25"/>
<text text-anchor="middle" x="464.75" y="-226.75" font-family="Helvetica,sans-Serif" font-size="10.00">Cpl/System/Runnable.h</text>
</a>
</g>
</g>
<!-- Node19&#45;&gt;Node20 -->
<g id="edge25_Node000019_Node000020" class="edge">
<title>Node19&#45;&gt;Node20</title>
<g id="a_edge25_Node000019_Node000020"><a xlink:title=" ">
<path fill="none" stroke="#63b8ff" d="M570.21,-275.84C550.14,-267.43 519.95,-254.77 497,-245.15"/>
<polygon fill="#63b8ff" stroke="#63b8ff" points="498.37,-241.93 487.8,-241.29 495.66,-248.38 498.37,-241.93"/>
</a>
</g>
</g>
<!-- Node21 -->
<g id="Node000021" class="node">
<title>Node21</title>
<g id="a_Node000021"><a xlink:href="_signable_8h.html" target="_top" xlink:title=" ">
<polygon fill="white" stroke="#666666" points="608.88,-185 494.62,-185 494.62,-165.75 608.88,-165.75 608.88,-185"/>
<text text-anchor="middle" x="551.75" y="-171.5" font-family="Helvetica,sans-Serif" font-size="10.00">Cpl/System/Signable.h</text>
</a>
</g>
</g>
<!-- Node19&#45;&gt;Node21 -->
<g id="edge26_Node000019_Node000021" class="edge">
<title>Node19&#45;&gt;Node21</title>
<g id="a_edge26_Node000019_Node000021"><a xlink:title=" ">
<path fill="none" stroke="#63b8ff" d="M586.99,-275.82C582.44,-266.93 575.57,-252.89 570.75,-240.25 565.19,-225.67 560.21,-208.72 556.75,-195.95"/>
<polygon fill="#63b8ff" stroke="#63b8ff" points="560.23,-195.44 554.31,-186.66 553.46,-197.22 560.23,-195.44"/>
</a>
</g>
</g>
<!-- Node22 -->
<g id="Node000022" class="node">
<title>Node22</title>
<g id="a_Node000022"><a xlink:href="_traverser_8h.html" target="_top" xlink:title=" ">
<polygon fill="white" stroke="#666666" points="685.75,-240.25 579.75,-240.25 579.75,-221 685.75,-221 685.75,-240.25"/>
<text text-anchor="middle" x="632.75" y="-226.75" font-family="Helvetica,sans-Serif" font-size="10.00">Cpl/Type/Traverser.h</text>
</a>
</g>
</g>
<!-- Node19&#45;&gt;Node22 -->
<g id="edge28_Node000019_Node000022" class="edge">
<title>Node19&#45;&gt;Node22</title>
<g id="a_edge28_Node000019_Node000022"><a xlink:title=" ">
<path fill="none" stroke="#63b8ff" d="M598.52,-276.08C604.07,-268.88 612.09,-258.46 618.98,-249.51"/>
<polygon fill="#63b8ff" stroke="#63b8ff" points="621.58,-251.87 624.91,-241.81 616.04,-247.6 621.58,-251.87"/>
</a>
</g>
</g>
<!-- Node23 -->
<g id="Node000023" class="node">
<title>Node23</title>
<g id="a_Node000023"><a xlink:title=" ">
<polygon fill="#e0e0e0" stroke="#999999" points="750.12,-240.25 703.38,-240.25 703.38,-221 750.12,-221 750.12,-240.25"/>
<text text-anchor="middle" x="726.75" y="-226.75" font-family="Helvetica,sans-Serif" font-size="10.00">stdlib.h</text>
</a>
</g>
</g>
<!-- Node19&#45;&gt;Node23 -->
<g id="edge29_Node000019_Node000023" class="edge">
<title>Node19&#45;&gt;Node23</title>
<g id="a_edge29_Node000019_Node000023"><a xlink:title=" ">
<path fill="none" stroke="#63b8ff" d="M614.65,-275.84C636.18,-267.35 668.66,-254.54 693.13,-244.89"/>
<polygon fill="#63b8ff" stroke="#63b8ff" points="694.31,-248.18 702.33,-241.26 691.74,-241.67 694.31,-248.18"/>
</a>
</g>
</g>
<!-- Node21&#45;&gt;Node16 -->
<g id="edge27_Node000021_Node000016" class="edge">
<title>Node21&#45;&gt;Node16</title>
<g id="a_edge27_Node000021_Node000016"><a xlink:title=" ">
<path fill="none" stroke="#63b8ff" d="M539.2,-165.34C528.29,-157.49 512.25,-145.95 499.29,-136.62"/>
<polygon fill="#63b8ff" stroke="#63b8ff" points="501.51,-133.91 491.35,-130.91 497.42,-139.59 501.51,-133.91"/>
</a>
</g>
</g>
</g>
</svg>
