<?xml version="1.0" encoding="UTF-8" standalone="no"?>
<!DOCTYPE svg PUBLIC "-//W3C//DTD SVG 1.1//EN"
 "http://www.w3.org/Graphics/SVG/1.1/DTD/svg11.dtd">
<!-- Generated by graphviz version 9.0.0 (20230911.1827)
 -->
<!-- Title: Cpl/Itc/ReturnHandler.h Pages: 1 -->
<svg width="1731pt" height="625pt"
 viewBox="0.00 0.00 1731.38 624.75" xmlns="http://www.w3.org/2000/svg" xmlns:xlink="http://www.w3.org/1999/xlink">
<g id="graph0" class="graph" transform="scale(1 1) rotate(0) translate(4 620.75)">
<title>Cpl/Itc/ReturnHandler.h</title>
<!-- Node1 -->
<g id="Node000001" class="node">
<title>Node1</title>
<g id="a_Node000001"><a xlink:title=" ">
<polygon fill="#999999" stroke="#666666" points="1347.62,-616.75 1230.38,-616.75 1230.38,-597.5 1347.62,-597.5 1347.62,-616.75"/>
<text text-anchor="middle" x="1289" y="-603.25" font-family="Helvetica,sans-Serif" font-size="10.00">Cpl/Itc/ReturnHandler.h</text>
</a>
</g>
</g>
<!-- Node2 -->
<g id="Node000002" class="node">
<title>Node2</title>
<g id="a_Node000002"><a xlink:href="_async_return_handler_8h.html" target="_top" xlink:title=" ">
<polygon fill="white" stroke="#666666" points="1286.12,-506.25 1141.88,-506.25 1141.88,-487 1286.12,-487 1286.12,-506.25"/>
<text text-anchor="middle" x="1214" y="-492.75" font-family="Helvetica,sans-Serif" font-size="10.00">Cpl/Itc/AsyncReturnHandler.h</text>
</a>
</g>
</g>
<!-- Node1&#45;&gt;Node2 -->
<g id="edge1_Node000001_Node000002" class="edge">
<title>Node1&#45;&gt;Node2</title>
<g id="a_edge1_Node000001_Node000002"><a xlink:title=" ">
<path fill="none" stroke="#63b8ff" d="M1276.5,-588.04C1260.26,-564.55 1232.54,-524.45 1220.22,-506.63"/>
<polygon fill="#63b8ff" stroke="#63b8ff" points="1273.44,-589.77 1282,-596 1279.19,-585.78 1273.44,-589.77"/>
</a>
</g>
</g>
<!-- Node38 -->
<g id="Node000038" class="node">
<title>Node38</title>
<g id="a_Node000038"><a xlink:href="_null_return_handler_8h.html" target="_top" xlink:title=" ">
<polygon fill="white" stroke="#666666" points="1476.25,-561.5 1341.75,-561.5 1341.75,-542.25 1476.25,-542.25 1476.25,-561.5"/>
<text text-anchor="middle" x="1409" y="-548" font-family="Helvetica,sans-Serif" font-size="10.00">Cpl/Itc/NullReturnHandler.h</text>
</a>
</g>
</g>
<!-- Node1&#45;&gt;Node38 -->
<g id="edge47_Node000001_Node000038" class="edge">
<title>Node1&#45;&gt;Node38</title>
<g id="a_edge47_Node000001_Node000038"><a xlink:title=" ">
<path fill="none" stroke="#63b8ff" d="M1319.66,-592.52C1341.27,-582.93 1369.63,-570.34 1388.54,-561.95"/>
<polygon fill="#63b8ff" stroke="#63b8ff" points="1318.46,-589.22 1310.74,-596.48 1321.3,-595.62 1318.46,-589.22"/>
</a>
</g>
</g>
<!-- Node39 -->
<g id="Node000039" class="node">
<title>Node39</title>
<g id="a_Node000039"><a xlink:href="_service_message_8h.html" target="_top" xlink:title=" ">
<polygon fill="white" stroke="#666666" points="1178.88,-561.5 1051.12,-561.5 1051.12,-542.25 1178.88,-542.25 1178.88,-561.5"/>
<text text-anchor="middle" x="1115" y="-548" font-family="Helvetica,sans-Serif" font-size="10.00">Cpl/Itc/ServiceMessage.h</text>
</a>
</g>
</g>
<!-- Node1&#45;&gt;Node39 -->
<g id="edge48_Node000001_Node000039" class="edge">
<title>Node1&#45;&gt;Node39</title>
<g id="a_edge48_Node000001_Node000039"><a xlink:title=" ">
<path fill="none" stroke="#63b8ff" d="M1248.78,-593.82C1216.99,-584.09 1173.33,-570.73 1144.66,-561.95"/>
<polygon fill="#63b8ff" stroke="#63b8ff" points="1247.45,-597.07 1258.04,-596.65 1249.5,-590.38 1247.45,-597.07"/>
</a>
</g>
</g>
<!-- Node43 -->
<g id="Node000043" class="node">
<title>Node43</title>
<g id="a_Node000043"><a xlink:href="_sync_return_handler_8h.html" target="_top" xlink:title=" ">
<polygon fill="white" stroke="#666666" points="1629.5,-445.38 1490.5,-445.38 1490.5,-426.12 1629.5,-426.12 1629.5,-445.38"/>
<text text-anchor="middle" x="1560" y="-431.88" font-family="Helvetica,sans-Serif" font-size="10.00">Cpl/Itc/SyncReturnHandler.h</text>
</a>
</g>
</g>
<!-- Node1&#45;&gt;Node43 -->
<g id="edge60_Node000001_Node000043" class="edge">
<title>Node1&#45;&gt;Node43</title>
<g id="a_edge60_Node000001_Node000043"><a xlink:title=" ">
<path fill="none" stroke="#63b8ff" d="M1298.45,-587.22C1306.18,-573.31 1318.23,-554.73 1333,-542.25 1392.76,-491.78 1480.71,-460.12 1527.66,-445.78"/>
<polygon fill="#63b8ff" stroke="#63b8ff" points="1295.48,-585.35 1293.92,-595.82 1301.67,-588.61 1295.48,-585.35"/>
</a>
</g>
</g>
<!-- Node3 -->
<g id="Node000003" class="node">
<title>Node3</title>
<g id="a_Node000003"><a xlink:href="_response_message_8h.html" target="_top" xlink:title=" ">
<polygon fill="white" stroke="#666666" points="1224.12,-445.38 1085.88,-445.38 1085.88,-426.12 1224.12,-426.12 1224.12,-445.38"/>
<text text-anchor="middle" x="1155" y="-431.88" font-family="Helvetica,sans-Serif" font-size="10.00">Cpl/Itc/ResponseMessage.h</text>
</a>
</g>
</g>
<!-- Node2&#45;&gt;Node3 -->
<g id="edge2_Node000002_Node000003" class="edge">
<title>Node2&#45;&gt;Node3</title>
<g id="a_edge2_Node000002_Node000003"><a xlink:title=" ">
<path fill="none" stroke="#63b8ff" d="M1197.14,-478.8C1186.37,-468.05 1172.83,-454.54 1164.05,-445.78"/>
<polygon fill="#63b8ff" stroke="#63b8ff" points="1194.42,-481.03 1203.97,-485.61 1199.36,-476.07 1194.42,-481.03"/>
</a>
</g>
</g>
<!-- Node4 -->
<g id="Node000004" class="node">
<title>Node4</title>
<g id="a_Node000004"><a xlink:href="_erase_request_8h.html" target="_top" xlink:title=" ">
<polygon fill="white" stroke="#666666" points="932.38,-378.88 765.62,-378.88 765.62,-359.62 932.38,-359.62 932.38,-378.88"/>
<text text-anchor="middle" x="849" y="-365.38" font-family="Helvetica,sans-Serif" font-size="10.00">Cpl/Dm/Persistent/EraseRequest.h</text>
</a>
</g>
</g>
<!-- Node3&#45;&gt;Node4 -->
<g id="edge3_Node000003_Node000004" class="edge">
<title>Node3&#45;&gt;Node4</title>
<g id="a_edge3_Node000003_Node000004"><a xlink:title=" ">
<path fill="none" stroke="#63b8ff" d="M1100.74,-423.31C1041.14,-410.75 946.66,-390.83 891.97,-379.31"/>
<polygon fill="#63b8ff" stroke="#63b8ff" points="1099.82,-426.7 1110.33,-425.33 1101.26,-419.85 1099.82,-426.7"/>
</a>
</g>
</g>
<!-- Node11 -->
<g id="Node000011" class="node">
<title>Node11</title>
<g id="a_Node000011"><a xlink:href="_flush_request_8h.html" target="_top" xlink:title=" ">
<polygon fill="white" stroke="#666666" points="748,-378.88 582,-378.88 582,-359.62 748,-359.62 748,-378.88"/>
<text text-anchor="middle" x="665" y="-365.38" font-family="Helvetica,sans-Serif" font-size="10.00">Cpl/Dm/Persistent/FlushRequest.h</text>
</a>
</g>
</g>
<!-- Node3&#45;&gt;Node11 -->
<g id="edge10_Node000003_Node000011" class="edge">
<title>Node3&#45;&gt;Node11</title>
<g id="a_edge10_Node000003_Node000011"><a xlink:title=" ">
<path fill="none" stroke="#63b8ff" d="M1074.5,-425.26C994.05,-415.61 866.84,-399.94 757,-384.5 745.64,-382.9 733.5,-381.1 721.89,-379.32"/>
<polygon fill="#63b8ff" stroke="#63b8ff" points="1073.69,-428.69 1084.04,-426.4 1074.52,-421.74 1073.69,-428.69"/>
</a>
</g>
</g>
<!-- Node12 -->
<g id="Node000012" class="node">
<title>Node12</title>
<g id="a_Node000012"><a xlink:href="_atomic_request_8h.html" target="_top" xlink:title=" ">
<polygon fill="white" stroke="#666666" points="1620.88,-378.88 1499.12,-378.88 1499.12,-359.62 1620.88,-359.62 1620.88,-378.88"/>
<text text-anchor="middle" x="1560" y="-365.38" font-family="Helvetica,sans-Serif" font-size="10.00">Cpl/Itc/AtomicRequest.h</text>
</a>
</g>
</g>
<!-- Node3&#45;&gt;Node12 -->
<g id="edge12_Node000003_Node000012" class="edge">
<title>Node3&#45;&gt;Node12</title>
<g id="a_edge12_Node000003_Node000012"><a xlink:title=" ">
<path fill="none" stroke="#63b8ff" d="M1233.58,-424.14C1301.59,-414.67 1402.5,-399.96 1490,-384.5 1498.79,-382.95 1508.18,-381.14 1517.12,-379.34"/>
<polygon fill="#63b8ff" stroke="#63b8ff" points="1233.46,-420.62 1224.04,-425.46 1234.43,-427.55 1233.46,-420.62"/>
</a>
</g>
</g>
<!-- Node14 -->
<g id="Node000014" class="node">
<title>Node14</title>
<g id="a_Node000014"><a xlink:href="_close_request_8h.html" target="_top" xlink:title=" ">
<polygon fill="white" stroke="#666666" points="1198.88,-378.88 1083.12,-378.88 1083.12,-359.62 1198.88,-359.62 1198.88,-378.88"/>
<text text-anchor="middle" x="1141" y="-365.38" font-family="Helvetica,sans-Serif" font-size="10.00">Cpl/Itc/CloseRequest.h</text>
</a>
</g>
</g>
<!-- Node3&#45;&gt;Node14 -->
<g id="edge14_Node000003_Node000014" class="edge">
<title>Node3&#45;&gt;Node14</title>
<g id="a_edge14_Node000003_Node000014"><a xlink:title=" ">
<path fill="none" stroke="#63b8ff" d="M1150.64,-414.65C1148.05,-402.75 1144.91,-388.26 1142.93,-379.14"/>
<polygon fill="#63b8ff" stroke="#63b8ff" points="1147.19,-415.27 1152.73,-424.3 1154.03,-413.79 1147.19,-415.27"/>
</a>
</g>
</g>
<!-- Node34 -->
<g id="Node000034" class="node">
<title>Node34</title>
<g id="a_Node000034"><a xlink:href="_open_request_8h.html" target="_top" xlink:title=" ">
<polygon fill="white" stroke="#666666" points="1065.12,-378.88 950.88,-378.88 950.88,-359.62 1065.12,-359.62 1065.12,-378.88"/>
<text text-anchor="middle" x="1008" y="-365.38" font-family="Helvetica,sans-Serif" font-size="10.00">Cpl/Itc/OpenRequest.h</text>
</a>
</g>
</g>
<!-- Node3&#45;&gt;Node34 -->
<g id="edge40_Node000003_Node000034" class="edge">
<title>Node3&#45;&gt;Node34</title>
<g id="a_edge40_Node000003_Node000034"><a xlink:title=" ">
<path fill="none" stroke="#63b8ff" d="M1123.96,-421.13C1095.27,-408.54 1053.44,-390.19 1028.64,-379.31"/>
<polygon fill="#63b8ff" stroke="#63b8ff" points="1122.3,-424.22 1132.86,-425.04 1125.11,-417.81 1122.3,-424.22"/>
</a>
</g>
</g>
<!-- Node36 -->
<g id="Node000036" class="node">
<title>Node36</title>
<g id="a_Node000036"><a xlink:href="_requests_8h.html" target="_top" xlink:title=" ">
<polygon fill="white" stroke="#666666" points="1481.25,-378.88 1370.75,-378.88 1370.75,-359.62 1481.25,-359.62 1481.25,-378.88"/>
<text text-anchor="middle" x="1426" y="-365.38" font-family="Helvetica,sans-Serif" font-size="10.00">Cpl/MApp/Requests.h</text>
</a>
</g>
</g>
<!-- Node3&#45;&gt;Node36 -->
<g id="edge43_Node000003_Node000036" class="edge">
<title>Node3&#45;&gt;Node36</title>
<g id="a_edge43_Node000003_Node000036"><a xlink:title=" ">
<path fill="none" stroke="#63b8ff" d="M1204.38,-423C1257.22,-410.42 1339.92,-390.74 1387.94,-379.31"/>
<polygon fill="#63b8ff" stroke="#63b8ff" points="1203.64,-419.57 1194.73,-425.3 1205.26,-426.38 1203.64,-419.57"/>
</a>
</g>
</g>
<!-- Node37 -->
<g id="Node000037" class="node">
<title>Node37</title>
<g id="a_Node000037"><a xlink:href="_indexed_entry_requests_8h.html" target="_top" xlink:title=" ">
<polygon fill="white" stroke="#666666" points="1353,-384.5 1217,-384.5 1217,-354 1353,-354 1353,-384.5"/>
<text text-anchor="start" x="1225" y="-371" font-family="Helvetica,sans-Serif" font-size="10.00">Cpl/Persistent/IndexedEntry</text>
<text text-anchor="middle" x="1285" y="-359.75" font-family="Helvetica,sans-Serif" font-size="10.00">Requests.h</text>
</a>
</g>
</g>
<!-- Node3&#45;&gt;Node37 -->
<g id="edge45_Node000003_Node000037" class="edge">
<title>Node3&#45;&gt;Node37</title>
<g id="a_edge45_Node000003_Node000037"><a xlink:title=" ">
<path fill="none" stroke="#63b8ff" d="M1183.46,-420.63C1204.87,-410.01 1234.12,-395.5 1255.72,-384.78"/>
<polygon fill="#63b8ff" stroke="#63b8ff" points="1182.11,-417.39 1174.71,-424.97 1185.22,-423.66 1182.11,-417.39"/>
</a>
</g>
</g>
<!-- Node5 -->
<g id="Node000005" class="node">
<title>Node5</title>
<g id="a_Node000005"><a xlink:href="_dm_2_persistent_2_record_8h.html" target="_top" xlink:title=" ">
<polygon fill="white" stroke="#666666" points="295.38,-135.38 158.62,-135.38 158.62,-116.12 295.38,-116.12 295.38,-135.38"/>
<text text-anchor="middle" x="227" y="-121.88" font-family="Helvetica,sans-Serif" font-size="10.00">Cpl/Dm/Persistent/Record.h</text>
</a>
</g>
</g>
<!-- Node4&#45;&gt;Node5 -->
<g id="edge4_Node000004_Node000005" class="edge">
<title>Node4&#45;&gt;Node5</title>
<g id="a_edge4_Node000004_Node000005"><a xlink:title=" ">
<path fill="none" stroke="#63b8ff" d="M793.77,-356.9C652.23,-327.36 284.9,-247.56 246,-207.5 226.74,-187.66 225.68,-152.16 226.36,-135.65"/>
<polygon fill="#63b8ff" stroke="#63b8ff" points="792.78,-360.27 803.28,-358.88 794.2,-353.42 792.78,-360.27"/>
</a>
</g>
</g>
<!-- Node6 -->
<g id="Node000006" class="node">
<title>Node6</title>
<g id="a_Node000006"><a xlink:href="_metrics_record_8h.html" target="_top" xlink:title=" ">
<polygon fill="white" stroke="#666666" points="438.12,-74.5 305.88,-74.5 305.88,-55.25 438.12,-55.25 438.12,-74.5"/>
<text text-anchor="middle" x="372" y="-61" font-family="Helvetica,sans-Serif" font-size="10.00">Ajax/Main/MetricsRecord.h</text>
</a>
</g>
</g>
<!-- Node5&#45;&gt;Node6 -->
<g id="edge5_Node000005_Node000006" class="edge">
<title>Node5&#45;&gt;Node6</title>
<g id="a_edge5_Node000005_Node000006"><a xlink:title=" ">
<path fill="none" stroke="#63b8ff" d="M259.65,-111.49C287.18,-100.31 325.83,-84.62 349.87,-74.86"/>
<polygon fill="#63b8ff" stroke="#63b8ff" points="258.69,-108.11 250.74,-115.11 261.32,-114.59 258.69,-108.11"/>
</a>
</g>
</g>
<!-- Node8 -->
<g id="Node000008" class="node">
<title>Node8</title>
<g id="a_Node000008"><a xlink:href="_personality_record_8h.html" target="_top" xlink:title=" ">
<polygon fill="white" stroke="#666666" points="148,-74.5 0,-74.5 0,-55.25 148,-55.25 148,-74.5"/>
<text text-anchor="middle" x="74" y="-61" font-family="Helvetica,sans-Serif" font-size="10.00">Ajax/Main/PersonalityRecord.h</text>
</a>
</g>
</g>
<!-- Node5&#45;&gt;Node8 -->
<g id="edge7_Node000005_Node000008" class="edge">
<title>Node5&#45;&gt;Node8</title>
<g id="a_edge7_Node000005_Node000008"><a xlink:title=" ">
<path fill="none" stroke="#63b8ff" d="M192.96,-111.65C163.98,-100.5 123.1,-84.77 97.6,-74.96"/>
<polygon fill="#63b8ff" stroke="#63b8ff" points="191.43,-114.81 202.02,-115.14 193.94,-108.28 191.43,-114.81"/>
</a>
</g>
</g>
<!-- Node10 -->
<g id="Node000010" class="node">
<title>Node10</title>
<g id="a_Node000010"><a xlink:href="_user_record_8h.html" target="_top" xlink:title=" ">
<polygon fill="white" stroke="#666666" points="287.5,-74.5 166.5,-74.5 166.5,-55.25 287.5,-55.25 287.5,-74.5"/>
<text text-anchor="middle" x="227" y="-61" font-family="Helvetica,sans-Serif" font-size="10.00">Ajax/Main/UserRecord.h</text>
</a>
</g>
</g>
<!-- Node5&#45;&gt;Node10 -->
<g id="edge9_Node000005_Node000010" class="edge">
<title>Node5&#45;&gt;Node10</title>
<g id="a_edge9_Node000005_Node000010"><a xlink:title=" ">
<path fill="none" stroke="#63b8ff" d="M227,-104.32C227,-94.29 227,-82.71 227,-74.9"/>
<polygon fill="#63b8ff" stroke="#63b8ff" points="223.5,-104.29 227,-114.29 230.5,-104.29 223.5,-104.29"/>
</a>
</g>
</g>
<!-- Node7 -->
<g id="Node000007" class="node">
<title>Node7</title>
<g id="a_Node000007"><a xlink:href="_ajax_2_metrics_2_api_8h.html" target="_top" xlink:title=" ">
<polygon fill="white" stroke="#666666" points="571.38,-19.25 476.62,-19.25 476.62,0 571.38,0 571.38,-19.25"/>
<text text-anchor="middle" x="524" y="-5.75" font-family="Helvetica,sans-Serif" font-size="10.00">Ajax/Metrics/Api.h</text>
</a>
</g>
</g>
<!-- Node6&#45;&gt;Node7 -->
<g id="edge6_Node000006_Node000007" class="edge">
<title>Node6&#45;&gt;Node7</title>
<g id="a_edge6_Node000006_Node000007"><a xlink:title=" ">
<path fill="none" stroke="#63b8ff" d="M408.6,-51.05C436.24,-41.37 473.48,-28.32 498.09,-19.7"/>
<polygon fill="#63b8ff" stroke="#63b8ff" points="407.49,-47.73 399.21,-54.34 409.81,-54.34 407.49,-47.73"/>
</a>
</g>
</g>
<!-- Node9 -->
<g id="Node000009" class="node">
<title>Node9</title>
<g id="a_Node000009"><a xlink:href="_provision_8h.html" target="_top" xlink:title=" ">
<polygon fill="white" stroke="#666666" points="371.25,-19.25 254.75,-19.25 254.75,0 371.25,0 371.25,-19.25"/>
<text text-anchor="middle" x="313" y="-5.75" font-family="Helvetica,sans-Serif" font-size="10.00">Ajax/TShell/Provision.h</text>
</a>
</g>
</g>
<!-- Node8&#45;&gt;Node9 -->
<g id="edge8_Node000008_Node000009" class="edge">
<title>Node8&#45;&gt;Node9</title>
<g id="a_edge8_Node000008_Node000009"><a xlink:title=" ">
<path fill="none" stroke="#63b8ff" d="M125.85,-52.32C169.79,-42.53 231.94,-28.69 272.35,-19.68"/>
<polygon fill="#63b8ff" stroke="#63b8ff" points="125.29,-48.86 116.29,-54.45 126.81,-55.69 125.29,-48.86"/>
</a>
</g>
</g>
<!-- Node11&#45;&gt;Node5 -->
<g id="edge11_Node000011_Node000005" class="edge">
<title>Node11&#45;&gt;Node5</title>
<g id="a_edge11_Node000011_Node000005"><a xlink:title=" ">
<path fill="none" stroke="#63b8ff" d="M598.46,-357.51C589.9,-356.25 581.25,-355.05 573,-354 533.12,-348.92 239.97,-347.81 213,-318 164.97,-264.93 207.49,-166.1 222.34,-135.81"/>
<polygon fill="#63b8ff" stroke="#63b8ff" points="597.7,-360.93 608.11,-358.95 598.74,-354.01 597.7,-360.93"/>
</a>
</g>
</g>
<!-- Node13 -->
<g id="Node000013" class="node">
<title>Node13</title>
<g id="a_Node000013"><a xlink:href="_atomic_sync_8h.html" target="_top" xlink:title=" ">
<polygon fill="white" stroke="#666666" points="1657.75,-318 1550.25,-318 1550.25,-298.75 1657.75,-298.75 1657.75,-318"/>
<text text-anchor="middle" x="1604" y="-304.5" font-family="Helvetica,sans-Serif" font-size="10.00">Cpl/Itc/AtomicSync.h</text>
</a>
</g>
</g>
<!-- Node12&#45;&gt;Node13 -->
<g id="edge13_Node000012_Node000013" class="edge">
<title>Node12&#45;&gt;Node13</title>
<g id="a_edge13_Node000012_Node000013"><a xlink:title=" ">
<path fill="none" stroke="#63b8ff" d="M1573.54,-350.14C1581.4,-339.61 1590.97,-326.82 1597.25,-318.4"/>
<polygon fill="#63b8ff" stroke="#63b8ff" points="1570.77,-347.99 1567.59,-358.1 1576.38,-352.18 1570.77,-347.99"/>
</a>
</g>
</g>
<!-- Node15 -->
<g id="Node000015" class="node">
<title>Node15</title>
<g id="a_Node000015"><a xlink:href="_close_sync_8h.html" target="_top" xlink:title=" ">
<polygon fill="white" stroke="#666666" points="1125.75,-262.75 1024.25,-262.75 1024.25,-243.5 1125.75,-243.5 1125.75,-262.75"/>
<text text-anchor="middle" x="1075" y="-249.25" font-family="Helvetica,sans-Serif" font-size="10.00">Cpl/Itc/CloseSync.h</text>
</a>
</g>
</g>
<!-- Node14&#45;&gt;Node15 -->
<g id="edge15_Node000014_Node000015" class="edge">
<title>Node14&#45;&gt;Node15</title>
<g id="a_edge15_Node000014_Node000015"><a xlink:title=" ">
<path fill="none" stroke="#63b8ff" d="M1130.2,-349.57C1115.8,-324.67 1090.88,-281.59 1080.15,-263.04"/>
<polygon fill="#63b8ff" stroke="#63b8ff" points="1127.03,-351.08 1135.06,-357.98 1133.09,-347.58 1127.03,-351.08"/>
</a>
</g>
</g>
<!-- Node15&#45;&gt;Node7 -->
<g id="edge21_Node000015_Node000007" class="edge">
<title>Node15&#45;&gt;Node7</title>
<g id="a_edge21_Node000015_Node000007"><a xlink:title=" ">
<path fill="none" stroke="#63b8ff" d="M1137.44,-248.35C1230.83,-242.07 1397.95,-228.07 1416,-207.5 1443.67,-175.97 1390.1,-118.49 1378,-110.5 1243.97,-21.91 731.57,-11.69 571.84,-10.68"/>
<polygon fill="#63b8ff" stroke="#63b8ff" points="1137.41,-244.85 1127.66,-249 1137.87,-251.83 1137.41,-244.85"/>
</a>
</g>
</g>
<!-- Node16 -->
<g id="Node000016" class="node">
<title>Node16</title>
<g id="a_Node000016"><a xlink:href="_summary_8h.html" target="_top" xlink:title=" ">
<polygon fill="white" stroke="#666666" points="1406.5,-201.88 1291.5,-201.88 1291.5,-182.62 1406.5,-182.62 1406.5,-201.88"/>
<text text-anchor="middle" x="1349" y="-188.38" font-family="Helvetica,sans-Serif" font-size="10.00">Ajax/Alerts/Summary.h</text>
</a>
</g>
</g>
<!-- Node15&#45;&gt;Node16 -->
<g id="edge16_Node000015_Node000016" class="edge">
<title>Node15&#45;&gt;Node16</title>
<g id="a_edge16_Node000015_Node000016"><a xlink:title=" ">
<path fill="none" stroke="#63b8ff" d="M1128.31,-240.71C1170.34,-231.7 1230.41,-218.82 1283,-207.5 1290.79,-205.82 1299.1,-204.03 1307.1,-202.3"/>
<polygon fill="#63b8ff" stroke="#63b8ff" points="1127.76,-237.25 1118.71,-242.76 1129.22,-244.09 1127.76,-237.25"/>
</a>
</g>
</g>
<!-- Node17 -->
<g id="Node000017" class="node">
<title>Node17</title>
<g id="a_Node000017"><a xlink:href="_ajax_2_heating_2_io_2_api_8h.html" target="_top" xlink:title=" ">
<polygon fill="white" stroke="#666666" points="1232.75,-135.38 1125.25,-135.38 1125.25,-116.12 1232.75,-116.12 1232.75,-135.38"/>
<text text-anchor="middle" x="1179" y="-121.88" font-family="Helvetica,sans-Serif" font-size="10.00">Ajax/Heating/Io/Api.h</text>
</a>
</g>
</g>
<!-- Node15&#45;&gt;Node17 -->
<g id="edge17_Node000015_Node000017" class="edge">
<title>Node15&#45;&gt;Node17</title>
<g id="a_edge17_Node000015_Node000017"><a xlink:title=" ">
<path fill="none" stroke="#63b8ff" d="M1089.83,-234.25C1112.4,-207.03 1154.56,-156.21 1171.59,-135.68"/>
<polygon fill="#63b8ff" stroke="#63b8ff" points="1087.14,-232.01 1083.45,-241.94 1092.52,-236.48 1087.14,-232.01"/>
</a>
</g>
</g>
<!-- Node18 -->
<g id="Node000018" class="node">
<title>Node18</title>
<g id="a_Node000018"><a xlink:href="_ajax_2_heating_2_supervisor_2_api_8h.html" target="_top" xlink:title=" ">
<polygon fill="white" stroke="#666666" points="1273.5,-207.5 1152.5,-207.5 1152.5,-177 1273.5,-177 1273.5,-207.5"/>
<text text-anchor="start" x="1160.5" y="-194" font-family="Helvetica,sans-Serif" font-size="10.00">Ajax/Heating/Supervisor</text>
<text text-anchor="middle" x="1213" y="-182.75" font-family="Helvetica,sans-Serif" font-size="10.00">/Api.h</text>
</a>
</g>
</g>
<!-- Node15&#45;&gt;Node18 -->
<g id="edge18_Node000015_Node000018" class="edge">
<title>Node15&#45;&gt;Node18</title>
<g id="a_edge18_Node000015_Node000018"><a xlink:title=" ">
<path fill="none" stroke="#63b8ff" d="M1106.79,-238.56C1128.25,-229.41 1156.56,-217.33 1178.56,-207.94"/>
<polygon fill="#63b8ff" stroke="#63b8ff" points="1105.48,-235.32 1097.65,-242.46 1108.22,-241.76 1105.48,-235.32"/>
</a>
</g>
</g>
<!-- Node20 -->
<g id="Node000020" class="node">
<title>Node20</title>
<g id="a_Node000020"><a xlink:href="_ajax_2_screen_mgr_2_api_8h.html" target="_top" xlink:title=" ">
<polygon fill="white" stroke="#666666" points="937.88,-201.88 828.12,-201.88 828.12,-182.62 937.88,-182.62 937.88,-201.88"/>
<text text-anchor="middle" x="883" y="-188.38" font-family="Helvetica,sans-Serif" font-size="10.00">Ajax/ScreenMgr/Api.h</text>
</a>
</g>
</g>
<!-- Node15&#45;&gt;Node20 -->
<g id="edge22_Node000015_Node000020" class="edge">
<title>Node15&#45;&gt;Node20</title>
<g id="a_edge22_Node000015_Node000020"><a xlink:title=" ">
<path fill="none" stroke="#63b8ff" d="M1034.67,-239.76C998.19,-228.57 945.32,-212.36 912.61,-202.33"/>
<polygon fill="#63b8ff" stroke="#63b8ff" points="1033.39,-243.03 1043.97,-242.61 1035.44,-236.33 1033.39,-243.03"/>
</a>
</g>
</g>
<!-- Node25 -->
<g id="Node000025" class="node">
<title>Node25</title>
<g id="a_Node000025"><a xlink:href="_logical_buttons_8h.html" target="_top" xlink:title=" ">
<polygon fill="white" stroke="#666666" points="543.62,-201.88 420.38,-201.88 420.38,-182.62 543.62,-182.62 543.62,-201.88"/>
<text text-anchor="middle" x="482" y="-188.38" font-family="Helvetica,sans-Serif" font-size="10.00">Ajax/Ui/LogicalButtons.h</text>
</a>
</g>
</g>
<!-- Node15&#45;&gt;Node25 -->
<g id="edge29_Node000015_Node000025" class="edge">
<title>Node15&#45;&gt;Node25</title>
<g id="a_edge29_Node000015_Node000025"><a xlink:title=" ">
<path fill="none" stroke="#63b8ff" d="M1012.55,-249.07C914.36,-243.75 718.05,-231.04 553,-207.5 543.29,-206.12 532.91,-204.25 523.16,-202.33"/>
<polygon fill="#63b8ff" stroke="#63b8ff" points="1012.34,-252.56 1022.52,-249.6 1012.72,-245.57 1012.34,-252.56"/>
</a>
</g>
</g>
<!-- Node26 -->
<g id="Node000026" class="node">
<title>Node26</title>
<g id="a_Node000026"><a xlink:href="_ajax_2_ui_2_status_indicator_2_api_8h.html" target="_top" xlink:title=" ">
<polygon fill="white" stroke="#666666" points="678.25,-207.5 561.75,-207.5 561.75,-177 678.25,-177 678.25,-207.5"/>
<text text-anchor="start" x="569.75" y="-194" font-family="Helvetica,sans-Serif" font-size="10.00">Ajax/Ui/StatusIndicator</text>
<text text-anchor="middle" x="620" y="-182.75" font-family="Helvetica,sans-Serif" font-size="10.00">/Api.h</text>
</a>
</g>
</g>
<!-- Node15&#45;&gt;Node26 -->
<g id="edge30_Node000015_Node000026" class="edge">
<title>Node15&#45;&gt;Node26</title>
<g id="a_edge30_Node000015_Node000026"><a xlink:title=" ">
<path fill="none" stroke="#63b8ff" d="M1012.57,-246.79C935.69,-239.79 801.25,-226.18 687,-207.5 684.18,-207.04 681.31,-206.54 678.4,-206.01"/>
<polygon fill="#63b8ff" stroke="#63b8ff" points="1012.16,-250.26 1022.44,-247.68 1012.79,-243.29 1012.16,-250.26"/>
</a>
</g>
</g>
<!-- Node27 -->
<g id="Node000027" class="node">
<title>Node27</title>
<g id="a_Node000027"><a xlink:href="_log_sink_8h.html" target="_top" xlink:title=" ">
<polygon fill="white" stroke="#666666" points="810.12,-201.88 695.88,-201.88 695.88,-182.62 810.12,-182.62 810.12,-201.88"/>
<text text-anchor="middle" x="753" y="-188.38" font-family="Helvetica,sans-Serif" font-size="10.00">Cpl/Logging/LogSink.h</text>
</a>
</g>
</g>
<!-- Node15&#45;&gt;Node27 -->
<g id="edge31_Node000015_Node000027" class="edge">
<title>Node15&#45;&gt;Node27</title>
<g id="a_edge31_Node000015_Node000027"><a xlink:title=" ">
<path fill="none" stroke="#63b8ff" d="M1012.53,-241.95C960.62,-233.33 884.87,-220.35 819,-207.5 810.83,-205.91 802.12,-204.1 793.79,-202.32"/>
<polygon fill="#63b8ff" stroke="#63b8ff" points="1011.96,-245.41 1022.4,-243.59 1013.1,-238.5 1011.96,-245.41"/>
</a>
</g>
</g>
<!-- Node28 -->
<g id="Node000028" class="node">
<title>Node28</title>
<g id="a_Node000028"><a xlink:href="_manager_8h.html" target="_top" xlink:title=" ">
<polygon fill="white" stroke="#666666" points="1723.38,-201.88 1616.62,-201.88 1616.62,-182.62 1723.38,-182.62 1723.38,-201.88"/>
<text text-anchor="middle" x="1670" y="-188.38" font-family="Helvetica,sans-Serif" font-size="10.00">Cpl/MApp/Manager.h</text>
</a>
</g>
</g>
<!-- Node15&#45;&gt;Node28 -->
<g id="edge32_Node000015_Node000028" class="edge">
<title>Node15&#45;&gt;Node28</title>
<g id="a_edge32_Node000015_Node000028"><a xlink:title=" ">
<path fill="none" stroke="#63b8ff" d="M1137.37,-249.78C1237.24,-245.39 1438.99,-233.86 1608,-207.5 1616.62,-206.16 1625.83,-204.28 1634.43,-202.34"/>
<polygon fill="#63b8ff" stroke="#63b8ff" points="1137.35,-246.28 1127.51,-250.21 1137.65,-253.28 1137.35,-246.28"/>
</a>
</g>
</g>
<!-- Node29 -->
<g id="Node000029" class="node">
<title>Node29</title>
<g id="a_Node000029"><a xlink:href="_indexed_entry_server_8h.html" target="_top" xlink:title=" ">
<polygon fill="white" stroke="#666666" points="1599,-207.5 1463,-207.5 1463,-177 1599,-177 1599,-207.5"/>
<text text-anchor="start" x="1471" y="-194" font-family="Helvetica,sans-Serif" font-size="10.00">Cpl/Persistent/IndexedEntry</text>
<text text-anchor="middle" x="1531" y="-182.75" font-family="Helvetica,sans-Serif" font-size="10.00">Server.h</text>
</a>
</g>
</g>
<!-- Node15&#45;&gt;Node29 -->
<g id="edge33_Node000015_Node000029" class="edge">
<title>Node15&#45;&gt;Node29</title>
<g id="a_edge33_Node000015_Node000029"><a xlink:title=" ">
<path fill="none" stroke="#63b8ff" d="M1137.25,-245.72C1211.58,-237.84 1339.61,-223.52 1449,-207.5 1453.43,-206.85 1457.99,-206.15 1462.59,-205.42"/>
<polygon fill="#63b8ff" stroke="#63b8ff" points="1137.31,-242.2 1127.74,-246.73 1138.05,-249.16 1137.31,-242.2"/>
</a>
</g>
</g>
<!-- Node31 -->
<g id="Node000031" class="node">
<title>Node31</title>
<g id="a_Node000031"><a xlink:href="_record_server_8h.html" target="_top" xlink:title=" ">
<polygon fill="white" stroke="#666666" points="402.62,-201.88 255.38,-201.88 255.38,-182.62 402.62,-182.62 402.62,-201.88"/>
<text text-anchor="middle" x="329" y="-188.38" font-family="Helvetica,sans-Serif" font-size="10.00">Cpl/Persistent/RecordServer.h</text>
</a>
</g>
</g>
<!-- Node15&#45;&gt;Node31 -->
<g id="edge35_Node000015_Node000031" class="edge">
<title>Node15&#45;&gt;Node31</title>
<g id="a_edge35_Node000015_Node000031"><a xlink:title=" ">
<path fill="none" stroke="#63b8ff" d="M1012.74,-250.12C894.91,-245.85 631.37,-233.98 411,-207.5 399.67,-206.14 387.52,-204.26 376.14,-202.31"/>
<polygon fill="#63b8ff" stroke="#63b8ff" points="1012.38,-253.61 1022.5,-250.47 1012.63,-246.62 1012.38,-253.61"/>
</a>
</g>
</g>
<!-- Node32 -->
<g id="Node000032" class="node">
<title>Node32</title>
<g id="a_Node000032"><a xlink:href="_ajax_2_thermistor_8h.html" target="_top" xlink:title=" ">
<polygon fill="white" stroke="#666666" points="1096.25,-201.88 955.75,-201.88 955.75,-182.62 1096.25,-182.62 1096.25,-201.88"/>
<text text-anchor="middle" x="1026" y="-188.38" font-family="Helvetica,sans-Serif" font-size="10.00">Driver/AIO/Ajax/Thermistor.h</text>
</a>
</g>
</g>
<!-- Node15&#45;&gt;Node32 -->
<g id="edge38_Node000015_Node000032" class="edge">
<title>Node15&#45;&gt;Node32</title>
<g id="a_edge38_Node000015_Node000032"><a xlink:title=" ">
<path fill="none" stroke="#63b8ff" d="M1060.19,-234.34C1051.39,-223.75 1040.59,-210.78 1033.51,-202.28"/>
<polygon fill="#63b8ff" stroke="#63b8ff" points="1057.5,-236.57 1066.59,-242.02 1062.88,-232.09 1057.5,-236.57"/>
</a>
</g>
</g>
<!-- Node18&#45;&gt;Node17 -->
<g id="edge19_Node000018_Node000017" class="edge">
<title>Node18&#45;&gt;Node17</title>
<g id="a_edge19_Node000018_Node000017"><a xlink:title=" ">
<path fill="none" stroke="#63b8ff" d="M1200.06,-166.69C1194.29,-155.76 1187.87,-143.58 1183.65,-135.57"/>
<polygon fill="#63b8ff" stroke="#63b8ff" points="1196.82,-168.06 1204.58,-175.28 1203.01,-164.8 1196.82,-168.06"/>
</a>
</g>
</g>
<!-- Node19 -->
<g id="Node000019" class="node">
<title>Node19</title>
<g id="a_Node000019"><a xlink:href="_heating_2_simulated_2_house_8h_source.html" target="_top" xlink:title=" ">
<polygon fill="white" stroke="#666666" points="1369,-141 1251,-141 1251,-110.5 1369,-110.5 1369,-141"/>
<text text-anchor="start" x="1259" y="-127.5" font-family="Helvetica,sans-Serif" font-size="10.00">Ajax/Heating/Simulated</text>
<text text-anchor="middle" x="1310" y="-116.25" font-family="Helvetica,sans-Serif" font-size="10.00">/House.h</text>
</a>
</g>
</g>
<!-- Node18&#45;&gt;Node19 -->
<g id="edge20_Node000018_Node000019" class="edge">
<title>Node18&#45;&gt;Node19</title>
<g id="a_edge20_Node000018_Node000019"><a xlink:title=" ">
<path fill="none" stroke="#63b8ff" d="M1244.44,-170.34C1258.69,-160.87 1275.19,-149.89 1288.08,-141.33"/>
<polygon fill="#63b8ff" stroke="#63b8ff" points="1242.66,-167.32 1236.27,-175.78 1246.54,-173.15 1242.66,-167.32"/>
</a>
</g>
</g>
<!-- Node21 -->
<g id="Node000021" class="node">
<title>Node21</title>
<g id="a_Node000021"><a xlink:href="_ajax_2_ui_2_about_2_screen_8h.html" target="_top" xlink:title=" ">
<polygon fill="white" stroke="#666666" points="799.62,-135.38 682.38,-135.38 682.38,-116.12 799.62,-116.12 799.62,-135.38"/>
<text text-anchor="middle" x="741" y="-121.88" font-family="Helvetica,sans-Serif" font-size="10.00">Ajax/Ui/About/Screen.h</text>
</a>
</g>
</g>
<!-- Node20&#45;&gt;Node21 -->
<g id="edge23_Node000020_Node000021" class="edge">
<title>Node20&#45;&gt;Node21</title>
<g id="a_edge23_Node000020_Node000021"><a xlink:title=" ">
<path fill="none" stroke="#63b8ff" d="M852.65,-177.46C824.94,-164.88 784.79,-146.64 760.94,-135.81"/>
<polygon fill="#63b8ff" stroke="#63b8ff" points="851.03,-180.57 861.58,-181.52 853.92,-174.2 851.03,-180.57"/>
</a>
</g>
</g>
<!-- Node23 -->
<g id="Node000023" class="node">
<title>Node23</title>
<g id="a_Node000023"><a xlink:href="_ajax_2_ui_2_edit_setpt_2_screen_8h.html" target="_top" xlink:title=" ">
<polygon fill="white" stroke="#666666" points="948.75,-135.38 817.25,-135.38 817.25,-116.12 948.75,-116.12 948.75,-135.38"/>
<text text-anchor="middle" x="883" y="-121.88" font-family="Helvetica,sans-Serif" font-size="10.00">Ajax/Ui/EditSetpt/Screen.h</text>
</a>
</g>
</g>
<!-- Node20&#45;&gt;Node23 -->
<g id="edge25_Node000020_Node000023" class="edge">
<title>Node20&#45;&gt;Node23</title>
<g id="a_edge25_Node000020_Node000023"><a xlink:title=" ">
<path fill="none" stroke="#63b8ff" d="M883,-170.77C883,-158.94 883,-144.66 883,-135.64"/>
<polygon fill="#63b8ff" stroke="#63b8ff" points="879.5,-170.77 883,-180.77 886.5,-170.77 879.5,-170.77"/>
</a>
</g>
</g>
<!-- Node24 -->
<g id="Node000024" class="node">
<title>Node24</title>
<g id="a_Node000024"><a xlink:href="_ajax_2_ui_2_home_2_screen_8h.html" target="_top" xlink:title=" ">
<polygon fill="white" stroke="#666666" points="664,-135.38 546,-135.38 546,-116.12 664,-116.12 664,-135.38"/>
<text text-anchor="middle" x="605" y="-121.88" font-family="Helvetica,sans-Serif" font-size="10.00">Ajax/Ui/Home/Screen.h</text>
</a>
</g>
</g>
<!-- Node20&#45;&gt;Node24 -->
<g id="edge27_Node000020_Node000024" class="edge">
<title>Node20&#45;&gt;Node24</title>
<g id="a_edge27_Node000020_Node000024"><a xlink:title=" ">
<path fill="none" stroke="#63b8ff" d="M832.69,-179.58C778.49,-167 693.41,-147.26 644.04,-135.81"/>
<polygon fill="#63b8ff" stroke="#63b8ff" points="831.75,-182.95 842.28,-181.8 833.33,-176.13 831.75,-182.95"/>
</a>
</g>
</g>
<!-- Node22 -->
<g id="Node000022" class="node">
<title>Node22</title>
<g id="a_Node000022"><a xlink:href="_ajax_2_main_2screens_8h.html" target="_top" xlink:title="This file exposes handles to Screen instances for the Ajax Application.">
<polygon fill="white" stroke="#666666" points="792.88,-74.5 689.12,-74.5 689.12,-55.25 792.88,-55.25 792.88,-74.5"/>
<text text-anchor="middle" x="741" y="-61" font-family="Helvetica,sans-Serif" font-size="10.00">Ajax/Main/screens.h</text>
</a>
</g>
</g>
<!-- Node21&#45;&gt;Node22 -->
<g id="edge24_Node000021_Node000022" class="edge">
<title>Node21&#45;&gt;Node22</title>
<g id="a_edge24_Node000021_Node000022"><a xlink:title=" ">
<path fill="none" stroke="#63b8ff" d="M741,-104.32C741,-94.29 741,-82.71 741,-74.9"/>
<polygon fill="#63b8ff" stroke="#63b8ff" points="737.5,-104.29 741,-114.29 744.5,-104.29 737.5,-104.29"/>
</a>
</g>
</g>
<!-- Node23&#45;&gt;Node22 -->
<g id="edge26_Node000023_Node000022" class="edge">
<title>Node23&#45;&gt;Node22</title>
<g id="a_edge26_Node000023_Node000022"><a xlink:title=" ">
<path fill="none" stroke="#63b8ff" d="M850.66,-111.34C823.73,-100.17 786.11,-84.58 762.67,-74.86"/>
<polygon fill="#63b8ff" stroke="#63b8ff" points="849.15,-114.5 859.73,-115.1 851.83,-108.04 849.15,-114.5"/>
</a>
</g>
</g>
<!-- Node24&#45;&gt;Node22 -->
<g id="edge28_Node000024_Node000022" class="edge">
<title>Node24&#45;&gt;Node22</title>
<g id="a_edge28_Node000024_Node000022"><a xlink:title=" ">
<path fill="none" stroke="#63b8ff" d="M636.32,-111.19C662.09,-100.04 697.9,-84.53 720.25,-74.86"/>
<polygon fill="#63b8ff" stroke="#63b8ff" points="635.13,-107.89 627.34,-115.08 637.91,-114.32 635.13,-107.89"/>
</a>
</g>
</g>
<!-- Node30 -->
<g id="Node000030" class="node">
<title>Node30</title>
<g id="a_Node000030"><a xlink:href="_log_8h.html" target="_top" xlink:title=" ">
<polygon fill="white" stroke="#666666" points="1580.25,-141 1481.75,-141 1481.75,-110.5 1580.25,-110.5 1580.25,-141"/>
<text text-anchor="start" x="1489.75" y="-127.5" font-family="Helvetica,sans-Serif" font-size="10.00">Cpl/Logging/TShell</text>
<text text-anchor="middle" x="1531" y="-116.25" font-family="Helvetica,sans-Serif" font-size="10.00">/Log.h</text>
</a>
</g>
</g>
<!-- Node29&#45;&gt;Node30 -->
<g id="edge34_Node000029_Node000030" class="edge">
<title>Node29&#45;&gt;Node30</title>
<g id="a_edge34_Node000029_Node000030"><a xlink:title=" ">
<path fill="none" stroke="#63b8ff" d="M1531,-165.31C1531,-157.14 1531,-148.41 1531,-141.33"/>
<polygon fill="#63b8ff" stroke="#63b8ff" points="1527.5,-165.1 1531,-175.1 1534.5,-165.1 1527.5,-165.1"/>
</a>
</g>
</g>
<!-- Node31&#45;&gt;Node5 -->
<g id="edge37_Node000031_Node000005" class="edge">
<title>Node31&#45;&gt;Node5</title>
<g id="a_edge37_Node000031_Node000005"><a xlink:title=" ">
<path fill="none" stroke="#63b8ff" d="M305.28,-176.25C285.51,-163.75 257.98,-146.34 241.39,-135.85"/>
<polygon fill="#63b8ff" stroke="#63b8ff" points="303.22,-179.09 313.54,-181.47 306.96,-173.17 303.22,-179.09"/>
</a>
</g>
</g>
<!-- Node31&#45;&gt;Node9 -->
<g id="edge36_Node000031_Node000009" class="edge">
<title>Node31&#45;&gt;Node9</title>
<g id="a_edge36_Node000031_Node000009"><a xlink:title=" ">
<path fill="none" stroke="#63b8ff" d="M358.21,-176.92C403.24,-152.88 481.02,-102.43 447,-55.25 429.79,-31.38 399.27,-20.09 371.7,-14.82"/>
<polygon fill="#63b8ff" stroke="#63b8ff" points="356.69,-173.76 349.43,-181.47 359.92,-179.97 356.69,-173.76"/>
</a>
</g>
</g>
<!-- Node33 -->
<g id="Node000033" class="node">
<title>Node33</title>
<g id="a_Node000033"><a xlink:href="_eros_2_thermistor_8h.html" target="_top" xlink:title=" ">
<polygon fill="white" stroke="#666666" points="1107.62,-135.38 966.38,-135.38 966.38,-116.12 1107.62,-116.12 1107.62,-135.38"/>
<text text-anchor="middle" x="1037" y="-121.88" font-family="Helvetica,sans-Serif" font-size="10.00">Driver/AIO/Eros/Thermistor.h</text>
</a>
</g>
</g>
<!-- Node32&#45;&gt;Node33 -->
<g id="edge39_Node000032_Node000033" class="edge">
<title>Node32&#45;&gt;Node33</title>
<g id="a_edge39_Node000032_Node000033"><a xlink:title=" ">
<path fill="none" stroke="#63b8ff" d="M1029.43,-171.15C1031.46,-159.25 1033.93,-144.76 1035.48,-135.64"/>
<polygon fill="#63b8ff" stroke="#63b8ff" points="1026.02,-170.34 1027.78,-180.79 1032.92,-171.52 1026.02,-170.34"/>
</a>
</g>
</g>
<!-- Node35 -->
<g id="Node000035" class="node">
<title>Node35</title>
<g id="a_Node000035"><a xlink:href="_open_sync_8h.html" target="_top" xlink:title=" ">
<polygon fill="white" stroke="#666666" points="1072,-318 972,-318 972,-298.75 1072,-298.75 1072,-318"/>
<text text-anchor="middle" x="1022" y="-304.5" font-family="Helvetica,sans-Serif" font-size="10.00">Cpl/Itc/OpenSync.h</text>
</a>
</g>
</g>
<!-- Node34&#45;&gt;Node35 -->
<g id="edge41_Node000034_Node000035" class="edge">
<title>Node34&#45;&gt;Node35</title>
<g id="a_edge41_Node000034_Node000035"><a xlink:title=" ">
<path fill="none" stroke="#63b8ff" d="M1012.78,-348.16C1015.18,-338.05 1017.98,-326.3 1019.85,-318.4"/>
<polygon fill="#63b8ff" stroke="#63b8ff" points="1009.38,-347.3 1010.48,-357.84 1016.19,-348.92 1009.38,-347.3"/>
</a>
</g>
</g>
<!-- Node35&#45;&gt;Node15 -->
<g id="edge42_Node000035_Node000015" class="edge">
<title>Node35&#45;&gt;Node15</title>
<g id="a_edge42_Node000035_Node000015"><a xlink:title=" ">
<path fill="none" stroke="#63b8ff" d="M1038.72,-290.57C1047.78,-281.48 1058.6,-270.6 1066.06,-263.11"/>
<polygon fill="#63b8ff" stroke="#63b8ff" points="1036.39,-287.95 1031.82,-297.51 1041.35,-292.89 1036.39,-287.95"/>
</a>
</g>
</g>
<!-- Node36&#45;&gt;Node28 -->
<g id="edge44_Node000036_Node000028" class="edge">
<title>Node36&#45;&gt;Node28</title>
<g id="a_edge44_Node000036_Node000028"><a xlink:title=" ">
<path fill="none" stroke="#63b8ff" d="M1447.62,-352.74C1497.2,-317.18 1617.86,-230.65 1657.3,-202.36"/>
<polygon fill="#63b8ff" stroke="#63b8ff" points="1445.75,-349.78 1439.67,-358.45 1449.83,-355.46 1445.75,-349.78"/>
</a>
</g>
</g>
<!-- Node37&#45;&gt;Node29 -->
<g id="edge46_Node000037_Node000029" class="edge">
<title>Node37&#45;&gt;Node29</title>
<g id="a_edge46_Node000037_Node000029"><a xlink:title=" ">
<path fill="none" stroke="#63b8ff" d="M1314.66,-347.15C1365.19,-311.21 1466.73,-238.97 1510.33,-207.95"/>
<polygon fill="#63b8ff" stroke="#63b8ff" points="1312.9,-344.1 1306.78,-352.75 1316.96,-349.81 1312.9,-344.1"/>
</a>
</g>
</g>
<!-- Node40 -->
<g id="Node000040" class="node">
<title>Node40</title>
<g id="a_Node000040"><a xlink:href="_request_message_8h.html" target="_top" xlink:title=" ">
<polygon fill="white" stroke="#666666" points="1123.38,-506.25 992.62,-506.25 992.62,-487 1123.38,-487 1123.38,-506.25"/>
<text text-anchor="middle" x="1058" y="-492.75" font-family="Helvetica,sans-Serif" font-size="10.00">Cpl/Itc/RequestMessage.h</text>
</a>
</g>
</g>
<!-- Node39&#45;&gt;Node40 -->
<g id="edge49_Node000039_Node000040" class="edge">
<title>Node39&#45;&gt;Node40</title>
<g id="a_edge49_Node000039_Node000040"><a xlink:title=" ">
<path fill="none" stroke="#63b8ff" d="M1097.05,-534.11C1087.27,-524.97 1075.56,-514.03 1067.53,-506.52"/>
<polygon fill="#63b8ff" stroke="#63b8ff" points="1094.53,-536.54 1104.22,-540.81 1099.31,-531.42 1094.53,-536.54"/>
</a>
</g>
</g>
<!-- Node40&#45;&gt;Node3 -->
<g id="edge57_Node000040_Node000003" class="edge">
<title>Node40&#45;&gt;Node3</title>
<g id="a_edge57_Node000040_Node000003"><a xlink:title=" ">
<path fill="none" stroke="#63b8ff" d="M1082.36,-480.84C1100.53,-469.81 1124.76,-455.1 1140.13,-445.78"/>
<polygon fill="#63b8ff" stroke="#63b8ff" points="1080.76,-477.72 1074.03,-485.9 1084.39,-483.7 1080.76,-477.72"/>
</a>
</g>
</g>
<!-- Node40&#45;&gt;Node4 -->
<g id="edge50_Node000040_Node000004" class="edge">
<title>Node40&#45;&gt;Node4</title>
<g id="a_edge50_Node000040_Node000004"><a xlink:title=" ">
<path fill="none" stroke="#63b8ff" d="M1033.13,-480.71C989.37,-454.46 899.86,-400.76 864.18,-379.35"/>
<polygon fill="#63b8ff" stroke="#63b8ff" points="1031.3,-483.69 1041.67,-485.83 1034.9,-477.68 1031.3,-483.69"/>
</a>
</g>
</g>
<!-- Node40&#45;&gt;Node11 -->
<g id="edge51_Node000040_Node000011" class="edge">
<title>Node40&#45;&gt;Node11</title>
<g id="a_edge51_Node000040_Node000011"><a xlink:title=" ">
<path fill="none" stroke="#63b8ff" d="M1018.46,-483.01C939.19,-457.72 762.56,-401.37 693.47,-379.33"/>
<polygon fill="#63b8ff" stroke="#63b8ff" points="1017.39,-486.34 1027.98,-486.05 1019.51,-479.67 1017.39,-486.34"/>
</a>
</g>
</g>
<!-- Node40&#45;&gt;Node12 -->
<g id="edge54_Node000040_Node000012" class="edge">
<title>Node40&#45;&gt;Node12</title>
<g id="a_edge54_Node000040_Node000012"><a xlink:title=" ">
<path fill="none" stroke="#63b8ff" d="M1134.63,-484.76C1184.63,-476.99 1251.12,-465.39 1309,-451 1393.63,-429.97 1491.3,-395.52 1535.73,-379.27"/>
<polygon fill="#63b8ff" stroke="#63b8ff" points="1134.1,-481.3 1124.75,-486.27 1135.17,-488.22 1134.1,-481.3"/>
</a>
</g>
</g>
<!-- Node40&#45;&gt;Node14 -->
<g id="edge55_Node000040_Node000014" class="edge">
<title>Node40&#45;&gt;Node14</title>
<g id="a_edge55_Node000040_Node000014"><a xlink:title=" ">
<path fill="none" stroke="#63b8ff" d="M1059.55,-475.31C1061.57,-459.32 1066.24,-437.05 1077,-420.5 1088.78,-402.38 1109.34,-387.97 1123.98,-379.31"/>
<polygon fill="#63b8ff" stroke="#63b8ff" points="1056.09,-474.75 1058.58,-485.05 1063.05,-475.44 1056.09,-474.75"/>
</a>
</g>
</g>
<!-- Node40&#45;&gt;Node34 -->
<g id="edge56_Node000040_Node000034" class="edge">
<title>Node40&#45;&gt;Node34</title>
<g id="a_edge56_Node000040_Node000034"><a xlink:title=" ">
<path fill="none" stroke="#63b8ff" d="M1050.14,-475.93C1039.13,-448.32 1019.57,-399.26 1011.56,-379.18"/>
<polygon fill="#63b8ff" stroke="#63b8ff" points="1046.89,-477.21 1053.84,-485.2 1053.39,-474.62 1046.89,-477.21"/>
</a>
</g>
</g>
<!-- Node40&#45;&gt;Node36 -->
<g id="edge58_Node000040_Node000036" class="edge">
<title>Node40&#45;&gt;Node36</title>
<g id="a_edge58_Node000040_Node000036"><a xlink:title=" ">
<path fill="none" stroke="#63b8ff" d="M1127.15,-484.52C1166.69,-477.14 1216.84,-466.03 1260,-451 1317.81,-430.87 1381.76,-395.83 1410.51,-379.33"/>
<polygon fill="#63b8ff" stroke="#63b8ff" points="1126.73,-481.04 1117.52,-486.28 1127.98,-487.92 1126.73,-481.04"/>
</a>
</g>
</g>
<!-- Node40&#45;&gt;Node37 -->
<g id="edge59_Node000040_Node000037" class="edge">
<title>Node40&#45;&gt;Node37</title>
<g id="a_edge59_Node000040_Node000037"><a xlink:title=" ">
<path fill="none" stroke="#63b8ff" d="M1121.85,-484.42C1164.2,-476.05 1215.13,-463.87 1233,-451 1256.41,-434.14 1271.93,-403.19 1279.53,-384.89"/>
<polygon fill="#63b8ff" stroke="#63b8ff" points="1121.38,-480.95 1112.22,-486.29 1122.71,-487.82 1121.38,-480.95"/>
</a>
</g>
</g>
<!-- Node41 -->
<g id="Node000041" class="node">
<title>Node41</title>
<g id="a_Node000041"><a xlink:href="_listener_client_request_8h.html" target="_top" xlink:title=" ">
<polygon fill="white" stroke="#666666" points="679.12,-451 540.88,-451 540.88,-420.5 679.12,-420.5 679.12,-451"/>
<text text-anchor="start" x="548.88" y="-437.5" font-family="Helvetica,sans-Serif" font-size="10.00">Cpl/Io/Socket/ListenerClient</text>
<text text-anchor="middle" x="610" y="-426.25" font-family="Helvetica,sans-Serif" font-size="10.00">Request.h</text>
</a>
</g>
</g>
<!-- Node40&#45;&gt;Node41 -->
<g id="edge52_Node000040_Node000041" class="edge">
<title>Node40&#45;&gt;Node41</title>
<g id="a_edge52_Node000040_Node000041"><a xlink:title=" ">
<path fill="none" stroke="#63b8ff" d="M981.02,-485.51C896.24,-474.37 761.15,-456.61 679.49,-445.88"/>
<polygon fill="#63b8ff" stroke="#63b8ff" points="980.51,-488.97 990.88,-486.8 981.42,-482.03 980.51,-488.97"/>
</a>
</g>
</g>
<!-- Node42 -->
<g id="Node000042" class="node">
<title>Node42</title>
<g id="a_Node000042"><a xlink:href="_listener_client_sync_8h.html" target="_top" xlink:title=" ">
<polygon fill="white" stroke="#666666" points="564.12,-384.5 425.88,-384.5 425.88,-354 564.12,-354 564.12,-384.5"/>
<text text-anchor="start" x="433.88" y="-371" font-family="Helvetica,sans-Serif" font-size="10.00">Cpl/Io/Socket/ListenerClient</text>
<text text-anchor="middle" x="495" y="-359.75" font-family="Helvetica,sans-Serif" font-size="10.00">Sync.h</text>
</a>
</g>
</g>
<!-- Node41&#45;&gt;Node42 -->
<g id="edge53_Node000041_Node000042" class="edge">
<title>Node41&#45;&gt;Node42</title>
<g id="a_edge53_Node000041_Node000042"><a xlink:title=" ">
<path fill="none" stroke="#63b8ff" d="M574.18,-414.66C556.96,-405 536.7,-393.64 520.99,-384.83"/>
<polygon fill="#63b8ff" stroke="#63b8ff" points="572.15,-417.53 582.58,-419.37 575.57,-411.43 572.15,-417.53"/>
</a>
</g>
</g>
<!-- Node43&#45;&gt;Node12 -->
<g id="edge61_Node000043_Node000012" class="edge">
<title>Node43&#45;&gt;Node12</title>
<g id="a_edge61_Node000043_Node000012"><a xlink:title=" ">
<path fill="none" stroke="#63b8ff" d="M1560,-414.27C1560,-402.44 1560,-388.16 1560,-379.14"/>
<polygon fill="#63b8ff" stroke="#63b8ff" points="1556.5,-414.27 1560,-424.27 1563.5,-414.27 1556.5,-414.27"/>
</a>
</g>
</g>
<!-- Node43&#45;&gt;Node13 -->
<g id="edge62_Node000043_Node000013" class="edge">
<title>Node43&#45;&gt;Node13</title>
<g id="a_edge62_Node000043_Node000013"><a xlink:title=" ">
<path fill="none" stroke="#63b8ff" d="M1592.26,-420.27C1606.57,-412 1621.98,-400.14 1630,-384.5 1641.59,-361.91 1623.09,-332.98 1611.76,-318.5"/>
<polygon fill="#63b8ff" stroke="#63b8ff" points="1590.66,-417.15 1583.48,-424.94 1593.95,-423.33 1590.66,-417.15"/>
</a>
</g>
</g>
</g>
</svg>
