<?xml version="1.0" encoding="UTF-8" standalone="no"?>
<!DOCTYPE svg PUBLIC "-//W3C//DTD SVG 1.1//EN"
 "http://www.w3.org/Graphics/SVG/1.1/DTD/svg11.dtd">
<!-- Generated by graphviz version 9.0.0 (20230911.1827)
 -->
<!-- Title: Cpl/System/Runnable.h Pages: 1 -->
<svg width="2554pt" height="337pt"
 viewBox="0.00 0.00 2554.38 337.25" xmlns="http://www.w3.org/2000/svg" xmlns:xlink="http://www.w3.org/1999/xlink">
<g id="graph0" class="graph" transform="scale(1 1) rotate(0) translate(4 333.25)">
<title>Cpl/System/Runnable.h</title>
<!-- Node1 -->
<g id="Node000001" class="node">
<title>Node1</title>
<g id="a_Node000001"><a xlink:title=" ">
<polygon fill="#999999" stroke="#666666" points="992.12,-329.25 874.88,-329.25 874.88,-310 992.12,-310 992.12,-329.25"/>
<text text-anchor="middle" x="933.5" y="-315.75" font-family="Helvetica,sans-Serif" font-size="10.00">Cpl/System/Runnable.h</text>
</a>
</g>
</g>
<!-- Node2 -->
<g id="Node000002" class="node">
<title>Node2</title>
<g id="a_Node000002"><a xlink:href="_listener_8h.html" target="_top" xlink:title=" ">
<polygon fill="white" stroke="#666666" points="671,-274 550,-274 550,-254.75 671,-254.75 671,-274"/>
<text text-anchor="middle" x="610.5" y="-260.5" font-family="Helvetica,sans-Serif" font-size="10.00">Cpl/Io/Socket/Listener.h</text>
</a>
</g>
</g>
<!-- Node1&#45;&gt;Node2 -->
<g id="edge1_Node000001_Node000002" class="edge">
<title>Node1&#45;&gt;Node2</title>
<g id="a_edge1_Node000001_Node000002"><a xlink:title=" ">
<path fill="none" stroke="#63b8ff" d="M867.19,-307.69C807.73,-297.89 721.49,-283.67 665.7,-274.48"/>
<polygon fill="#63b8ff" stroke="#63b8ff" points="866.41,-311.11 876.85,-309.29 867.55,-304.21 866.41,-311.11"/>
</a>
</g>
</g>
<!-- Node9 -->
<g id="Node000009" class="node">
<title>Node9</title>
<g id="a_Node000009"><a xlink:href="_system_2_event_loop_8h.html" target="_top" xlink:title=" ">
<polygon fill="white" stroke="#666666" points="995.12,-274 871.88,-274 871.88,-254.75 995.12,-254.75 995.12,-274"/>
<text text-anchor="middle" x="933.5" y="-260.5" font-family="Helvetica,sans-Serif" font-size="10.00">Cpl/System/EventLoop.h</text>
</a>
</g>
</g>
<!-- Node1&#45;&gt;Node9 -->
<g id="edge9_Node000001_Node000009" class="edge">
<title>Node1&#45;&gt;Node9</title>
<g id="a_edge9_Node000001_Node000009"><a xlink:title=" ">
<path fill="none" stroke="#63b8ff" d="M933.5,-298.38C933.5,-290.09 933.5,-280.92 933.5,-274.36"/>
<polygon fill="#63b8ff" stroke="#63b8ff" points="930,-298.32 933.5,-308.32 937,-298.32 930,-298.32"/>
</a>
</g>
</g>
<!-- Node90 -->
<g id="Node000090" class="node">
<title>Node90</title>
<g id="a_Node000090"><a xlink:href="_thread_8h.html" target="_top" xlink:title=" ">
<polygon fill="white" stroke="#666666" points="1398.88,-274 1292.12,-274 1292.12,-254.75 1398.88,-254.75 1398.88,-274"/>
<text text-anchor="middle" x="1345.5" y="-260.5" font-family="Helvetica,sans-Serif" font-size="10.00">Cpl/System/Thread.h</text>
</a>
</g>
</g>
<!-- Node1&#45;&gt;Node90 -->
<g id="edge34_Node000001_Node000090" class="edge">
<title>Node1&#45;&gt;Node90</title>
<g id="a_edge34_Node000001_Node000090"><a xlink:title=" ">
<path fill="none" stroke="#63b8ff" d="M1003.69,-309.55C1085.25,-299.01 1218.06,-281.85 1291.82,-272.31"/>
<polygon fill="#63b8ff" stroke="#63b8ff" points="1003.5,-306.05 994.03,-310.8 1004.4,-312.99 1003.5,-306.05"/>
</a>
</g>
</g>
<!-- Node3 -->
<g id="Node000003" class="node">
<title>Node3</title>
<g id="a_Node000003"><a xlink:href="_listener_client_request_8h.html" target="_top" xlink:title=" ">
<polygon fill="white" stroke="#666666" points="527.62,-218.75 389.38,-218.75 389.38,-188.25 527.62,-188.25 527.62,-218.75"/>
<text text-anchor="start" x="397.38" y="-205.25" font-family="Helvetica,sans-Serif" font-size="10.00">Cpl/Io/Socket/ListenerClient</text>
<text text-anchor="middle" x="458.5" y="-194" font-family="Helvetica,sans-Serif" font-size="10.00">Request.h</text>
</a>
</g>
</g>
<!-- Node2&#45;&gt;Node3 -->
<g id="edge2_Node000002_Node000003" class="edge">
<title>Node2&#45;&gt;Node3</title>
<g id="a_edge2_Node000002_Node000003"><a xlink:title=" ">
<path fill="none" stroke="#63b8ff" d="M576.46,-250.19C552.71,-240.99 521,-228.71 496.44,-219.19"/>
<polygon fill="#63b8ff" stroke="#63b8ff" points="575.08,-253.41 585.67,-253.76 577.61,-246.88 575.08,-253.41"/>
</a>
</g>
</g>
<!-- Node4 -->
<g id="Node000004" class="node">
<title>Node4</title>
<g id="a_Node000004"><a xlink:href="_listener_client_sync_8h.html" target="_top" xlink:title=" ">
<polygon fill="white" stroke="#666666" points="421.62,-152.25 283.38,-152.25 283.38,-121.75 421.62,-121.75 421.62,-152.25"/>
<text text-anchor="start" x="291.38" y="-138.75" font-family="Helvetica,sans-Serif" font-size="10.00">Cpl/Io/Socket/ListenerClient</text>
<text text-anchor="middle" x="352.5" y="-127.5" font-family="Helvetica,sans-Serif" font-size="10.00">Sync.h</text>
</a>
</g>
</g>
<!-- Node2&#45;&gt;Node4 -->
<g id="edge4_Node000002_Node000004" class="edge">
<title>Node2&#45;&gt;Node4</title>
<g id="a_edge4_Node000002_Node000004"><a xlink:title=" ">
<path fill="none" stroke="#63b8ff" d="M538.34,-257.22C479.96,-250.84 403.76,-238.92 380.5,-218.75 361.11,-201.93 355.14,-170.97 353.31,-152.66"/>
<polygon fill="#63b8ff" stroke="#63b8ff" points="537.94,-260.69 548.25,-258.26 538.68,-253.73 537.94,-260.69"/>
</a>
</g>
</g>
<!-- Node5 -->
<g id="Node000005" class="node">
<title>Node5</title>
<g id="a_Node000005"><a xlink:href="_listener___8h.html" target="_top" xlink:title=" ">
<polygon fill="white" stroke="#666666" points="673.62,-213.12 547.38,-213.12 547.38,-193.88 673.62,-193.88 673.62,-213.12"/>
<text text-anchor="middle" x="610.5" y="-199.62" font-family="Helvetica,sans-Serif" font-size="10.00">Cpl/Io/Socket/Listener_.h</text>
</a>
</g>
</g>
<!-- Node2&#45;&gt;Node5 -->
<g id="edge5_Node000002_Node000005" class="edge">
<title>Node2&#45;&gt;Node5</title>
<g id="a_edge5_Node000002_Node000005"><a xlink:title=" ">
<path fill="none" stroke="#63b8ff" d="M610.5,-242.95C610.5,-232.92 610.5,-221.33 610.5,-213.53"/>
<polygon fill="#63b8ff" stroke="#63b8ff" points="607,-242.92 610.5,-252.92 614,-242.92 607,-242.92"/>
</a>
</g>
</g>
<!-- Node8 -->
<g id="Node000008" class="node">
<title>Node8</title>
<g id="a_Node000008"><a xlink:href="_socket_8h.html" target="_top" xlink:title=" ">
<polygon fill="white" stroke="#666666" points="793.62,-213.12 691.38,-213.12 691.38,-193.88 793.62,-193.88 793.62,-213.12"/>
<text text-anchor="middle" x="742.5" y="-199.62" font-family="Helvetica,sans-Serif" font-size="10.00">Cpl/TShell/Socket.h</text>
</a>
</g>
</g>
<!-- Node2&#45;&gt;Node8 -->
<g id="edge8_Node000002_Node000008" class="edge">
<title>Node2&#45;&gt;Node8</title>
<g id="a_edge8_Node000002_Node000008"><a xlink:title=" ">
<path fill="none" stroke="#63b8ff" d="M641.23,-249.67C666.22,-238.52 700.76,-223.12 722.36,-213.48"/>
<polygon fill="#63b8ff" stroke="#63b8ff" points="639.93,-246.42 632.22,-253.69 642.78,-252.81 639.93,-246.42"/>
</a>
</g>
</g>
<!-- Node3&#45;&gt;Node4 -->
<g id="edge3_Node000003_Node000004" class="edge">
<title>Node3&#45;&gt;Node4</title>
<g id="a_edge3_Node000003_Node000004"><a xlink:title=" ">
<path fill="none" stroke="#63b8ff" d="M425.03,-182.14C409.26,-172.54 390.81,-161.31 376.46,-152.58"/>
<polygon fill="#63b8ff" stroke="#63b8ff" points="422.79,-184.87 433.15,-187.08 426.43,-178.89 422.79,-184.87"/>
</a>
</g>
</g>
<!-- Node6 -->
<g id="Node000006" class="node">
<title>Node6</title>
<g id="a_Node000006"><a xlink:href="_posix_2_listener_8h.html" target="_top" xlink:title=" ">
<polygon fill="white" stroke="#666666" points="541.62,-152.25 439.38,-152.25 439.38,-121.75 541.62,-121.75 541.62,-152.25"/>
<text text-anchor="start" x="447.38" y="-138.75" font-family="Helvetica,sans-Serif" font-size="10.00">Cpl/Io/Socket/Posix</text>
<text text-anchor="middle" x="490.5" y="-127.5" font-family="Helvetica,sans-Serif" font-size="10.00">/Listener.h</text>
</a>
</g>
</g>
<!-- Node5&#45;&gt;Node6 -->
<g id="edge6_Node000005_Node000006" class="edge">
<title>Node5&#45;&gt;Node6</title>
<g id="a_edge6_Node000005_Node000006"><a xlink:title=" ">
<path fill="none" stroke="#63b8ff" d="M583.69,-188.09C563.98,-177.49 537.29,-163.15 517.52,-152.53"/>
<polygon fill="#63b8ff" stroke="#63b8ff" points="581.76,-191.03 592.23,-192.68 585.08,-184.86 581.76,-191.03"/>
</a>
</g>
</g>
<!-- Node7 -->
<g id="Node000007" class="node">
<title>Node7</title>
<g id="a_Node000007"><a xlink:href="_win32_2_listener_8h.html" target="_top" xlink:title=" ">
<polygon fill="white" stroke="#666666" points="665.12,-152.25 559.88,-152.25 559.88,-121.75 665.12,-121.75 665.12,-152.25"/>
<text text-anchor="start" x="567.88" y="-138.75" font-family="Helvetica,sans-Serif" font-size="10.00">Cpl/Io/Socket/Win32</text>
<text text-anchor="middle" x="612.5" y="-127.5" font-family="Helvetica,sans-Serif" font-size="10.00">/Listener.h</text>
</a>
</g>
</g>
<!-- Node5&#45;&gt;Node7 -->
<g id="edge7_Node000005_Node000007" class="edge">
<title>Node5&#45;&gt;Node7</title>
<g id="a_edge7_Node000005_Node000007"><a xlink:title=" ">
<path fill="none" stroke="#63b8ff" d="M611.13,-182.12C611.43,-172.44 611.78,-161.1 612.06,-152.34"/>
<polygon fill="#63b8ff" stroke="#63b8ff" points="607.64,-181.92 610.83,-192.02 614.63,-182.13 607.64,-181.92"/>
</a>
</g>
</g>
<!-- Node10 -->
<g id="Node000010" class="node">
<title>Node10</title>
<g id="a_Node000010"><a xlink:href="_dm_2_event_loop_8h.html" target="_top" xlink:title=" ">
<polygon fill="white" stroke="#666666" points="1051.12,-213.12 945.88,-213.12 945.88,-193.88 1051.12,-193.88 1051.12,-213.12"/>
<text text-anchor="middle" x="998.5" y="-199.62" font-family="Helvetica,sans-Serif" font-size="10.00">Cpl/Dm/EventLoop.h</text>
</a>
</g>
</g>
<!-- Node9&#45;&gt;Node10 -->
<g id="edge10_Node000009_Node000010" class="edge">
<title>Node9&#45;&gt;Node10</title>
<g id="a_edge10_Node000009_Node000010"><a xlink:title=" ">
<path fill="none" stroke="#63b8ff" d="M951.72,-246.87C963.65,-236.07 978.77,-222.37 988.53,-213.53"/>
<polygon fill="#63b8ff" stroke="#63b8ff" points="949.56,-244.11 944.49,-253.42 954.26,-249.3 949.56,-244.11"/>
</a>
</g>
</g>
<!-- Node88 -->
<g id="Node000088" class="node">
<title>Node88</title>
<g id="a_Node000088"><a xlink:href="_itc_2_mailbox_server_8h.html" target="_top" xlink:title=" ">
<polygon fill="white" stroke="#666666" points="927.75,-213.12 811.25,-213.12 811.25,-193.88 927.75,-193.88 927.75,-213.12"/>
<text text-anchor="middle" x="869.5" y="-199.62" font-family="Helvetica,sans-Serif" font-size="10.00">Cpl/Itc/MailboxServer.h</text>
</a>
</g>
</g>
<!-- Node9&#45;&gt;Node88 -->
<g id="edge32_Node000009_Node000088" class="edge">
<title>Node9&#45;&gt;Node88</title>
<g id="a_edge32_Node000009_Node000088"><a xlink:title=" ">
<path fill="none" stroke="#63b8ff" d="M915.56,-246.87C903.82,-236.07 888.93,-222.37 879.31,-213.53"/>
<polygon fill="#63b8ff" stroke="#63b8ff" points="912.94,-249.21 922.67,-253.41 917.68,-244.06 912.94,-249.21"/>
</a>
</g>
</g>
<!-- Node11 -->
<g id="Node000011" class="node">
<title>Node11</title>
<g id="a_Node000011"><a xlink:href="_dm_2_mailbox_server_8h.html" target="_top" xlink:title=" ">
<polygon fill="#fff0f0" stroke="red" points="1079.62,-146.62 959.38,-146.62 959.38,-127.38 1079.62,-127.38 1079.62,-146.62"/>
<text text-anchor="middle" x="1019.5" y="-133.12" font-family="Helvetica,sans-Serif" font-size="10.00">Cpl/Dm/MailboxServer.h</text>
</a>
</g>
</g>
<!-- Node10&#45;&gt;Node11 -->
<g id="edge11_Node000010_Node000011" class="edge">
<title>Node10&#45;&gt;Node11</title>
<g id="a_edge11_Node000010_Node000011"><a xlink:title=" ">
<path fill="none" stroke="#63b8ff" d="M1004.92,-182.77C1008.82,-170.8 1013.61,-156.1 1016.6,-146.89"/>
<polygon fill="#63b8ff" stroke="#63b8ff" points="1001.66,-181.5 1001.89,-192.09 1008.31,-183.67 1001.66,-181.5"/>
</a>
</g>
</g>
<!-- Node55 -->
<g id="Node000055" class="node">
<title>Node55</title>
<g id="a_Node000055"><a xlink:href="_subscriber_8h.html" target="_top" xlink:title=" ">
<polygon fill="#fff0f0" stroke="red" points="941.12,-146.62 835.88,-146.62 835.88,-127.38 941.12,-127.38 941.12,-146.62"/>
<text text-anchor="middle" x="888.5" y="-133.12" font-family="Helvetica,sans-Serif" font-size="10.00">Cpl/Dm/Subscriber.h</text>
</a>
</g>
</g>
<!-- Node10&#45;&gt;Node55 -->
<g id="edge31_Node000010_Node000055" class="edge">
<title>Node10&#45;&gt;Node55</title>
<g id="a_edge31_Node000010_Node000055"><a xlink:title=" ">
<path fill="none" stroke="#63b8ff" d="M973.51,-187.85C952.15,-175.32 922.08,-157.69 904.02,-147.1"/>
<polygon fill="#63b8ff" stroke="#63b8ff" points="971.5,-190.73 981.9,-192.77 975.04,-184.69 971.5,-190.73"/>
</a>
</g>
</g>
<!-- Node12 -->
<g id="Node000012" class="node">
<title>Node12</title>
<g id="a_Node000012"><a xlink:href="_summary_8h.html" target="_top" xlink:title=" ">
<polygon fill="white" stroke="#666666" points="115,-80.12 0,-80.12 0,-60.88 115,-60.88 115,-80.12"/>
<text text-anchor="middle" x="57.5" y="-66.62" font-family="Helvetica,sans-Serif" font-size="10.00">Ajax/Alerts/Summary.h</text>
</a>
</g>
</g>
<!-- Node11&#45;&gt;Node12 -->
<g id="edge12_Node000011_Node000012" class="edge">
<title>Node11&#45;&gt;Node12</title>
<g id="a_edge12_Node000011_Node000012"><a xlink:title=" ">
<path fill="none" stroke="#63b8ff" d="M970.11,-124.8C963.54,-123.61 956.88,-122.54 950.5,-121.75 585.4,-76.4 488.39,-132.74 123.5,-85.75 113.97,-84.52 103.77,-82.62 94.31,-80.6"/>
<polygon fill="#63b8ff" stroke="#63b8ff" points="969.03,-128.16 979.51,-126.63 970.36,-121.29 969.03,-128.16"/>
</a>
</g>
</g>
<!-- Node13 -->
<g id="Node000013" class="node">
<title>Node13</title>
<g id="a_Node000013"><a xlink:href="_ajax_2_heating_2_io_2_api_8h.html" target="_top" xlink:title=" ">
<polygon fill="white" stroke="#666666" points="292.25,-19.25 184.75,-19.25 184.75,0 292.25,0 292.25,-19.25"/>
<text text-anchor="middle" x="238.5" y="-5.75" font-family="Helvetica,sans-Serif" font-size="10.00">Ajax/Heating/Io/Api.h</text>
</a>
</g>
</g>
<!-- Node11&#45;&gt;Node13 -->
<g id="edge13_Node000011_Node000013" class="edge">
<title>Node11&#45;&gt;Node13</title>
<g id="a_edge13_Node000011_Node000013"><a xlink:title=" ">
<path fill="none" stroke="#63b8ff" d="M969.38,-124.75C963.05,-123.59 956.64,-122.55 950.5,-121.75 807.27,-103.09 430.66,-150.42 301.5,-85.75 272.28,-71.12 251.45,-36.18 242.86,-19.62"/>
<polygon fill="#63b8ff" stroke="#63b8ff" points="968.66,-128.17 979.14,-126.63 969.99,-121.3 968.66,-128.17"/>
</a>
</g>
</g>
<!-- Node14 -->
<g id="Node000014" class="node">
<title>Node14</title>
<g id="a_Node000014"><a xlink:href="_ajax_2_heating_2_supervisor_2_api_8h.html" target="_top" xlink:title=" ">
<polygon fill="#fff0f0" stroke="red" points="254,-85.75 133,-85.75 133,-55.25 254,-55.25 254,-85.75"/>
<text text-anchor="start" x="141" y="-72.25" font-family="Helvetica,sans-Serif" font-size="10.00">Ajax/Heating/Supervisor</text>
<text text-anchor="middle" x="193.5" y="-61" font-family="Helvetica,sans-Serif" font-size="10.00">/Api.h</text>
</a>
</g>
</g>
<!-- Node11&#45;&gt;Node14 -->
<g id="edge14_Node000011_Node000014" class="edge">
<title>Node11&#45;&gt;Node14</title>
<g id="a_edge14_Node000011_Node000014"><a xlink:title=" ">
<path fill="none" stroke="#63b8ff" d="M969.39,-124.73C963.05,-123.58 956.64,-122.54 950.5,-121.75 649.46,-82.94 569.84,-122.16 268.5,-85.75 263.89,-85.19 259.15,-84.52 254.38,-83.78"/>
<polygon fill="#63b8ff" stroke="#63b8ff" points="968.66,-128.15 979.14,-126.62 969.99,-121.28 968.66,-128.15"/>
</a>
</g>
</g>
<!-- Node16 -->
<g id="Node000016" class="node">
<title>Node16</title>
<g id="a_Node000016"><a xlink:href="appmain_8h.html" target="_top" xlink:title="This file defines the hardware/platform independent start&#45;up interface(s) for the Ajax application.">
<polygon fill="white" stroke="#666666" points="416.5,-80.12 310.5,-80.12 310.5,-60.88 416.5,-60.88 416.5,-80.12"/>
<text text-anchor="middle" x="363.5" y="-66.62" font-family="Helvetica,sans-Serif" font-size="10.00">Ajax/Main/appmain.h</text>
</a>
</g>
</g>
<!-- Node11&#45;&gt;Node16 -->
<g id="edge16_Node000011_Node000016" class="edge">
<title>Node11&#45;&gt;Node16</title>
<g id="a_edge16_Node000011_Node000016"><a xlink:title=" ">
<path fill="none" stroke="#63b8ff" d="M969.14,-124.78C962.88,-123.63 956.56,-122.58 950.5,-121.75 718.78,-90.03 656.85,-120.05 425.5,-85.75 416.76,-84.45 407.43,-82.58 398.73,-80.61"/>
<polygon fill="#63b8ff" stroke="#63b8ff" points="968.28,-128.18 978.77,-126.65 969.62,-121.31 968.28,-128.18"/>
</a>
</g>
</g>
<!-- Node17 -->
<g id="Node000017" class="node">
<title>Node17</title>
<g id="a_Node000017"><a xlink:href="_ajax_2_metrics_2_api_8h.html" target="_top" xlink:title=" ">
<polygon fill="white" stroke="#666666" points="528.88,-80.12 434.12,-80.12 434.12,-60.88 528.88,-60.88 528.88,-80.12"/>
<text text-anchor="middle" x="481.5" y="-66.62" font-family="Helvetica,sans-Serif" font-size="10.00">Ajax/Metrics/Api.h</text>
</a>
</g>
</g>
<!-- Node11&#45;&gt;Node17 -->
<g id="edge17_Node000011_Node000017" class="edge">
<title>Node11&#45;&gt;Node17</title>
<g id="a_edge17_Node000011_Node000017"><a xlink:title=" ">
<path fill="none" stroke="#63b8ff" d="M968.65,-124.8C962.56,-123.66 956.4,-122.61 950.5,-121.75 768.19,-95.07 719.16,-116.57 537.5,-85.75 529.69,-84.42 521.36,-82.56 513.59,-80.62"/>
<polygon fill="#63b8ff" stroke="#63b8ff" points="967.53,-128.15 978.02,-126.63 968.87,-121.28 967.53,-128.15"/>
</a>
</g>
</g>
<!-- Node18 -->
<g id="Node000018" class="node">
<title>Node18</title>
<g id="a_Node000018"><a xlink:href="_ajax_2_screen_mgr_2_api_8h.html" target="_top" xlink:title=" ">
<polygon fill="#fff0f0" stroke="red" points="656.38,-80.12 546.62,-80.12 546.62,-60.88 656.38,-60.88 656.38,-80.12"/>
<text text-anchor="middle" x="601.5" y="-66.62" font-family="Helvetica,sans-Serif" font-size="10.00">Ajax/ScreenMgr/Api.h</text>
</a>
</g>
</g>
<!-- Node11&#45;&gt;Node18 -->
<g id="edge18_Node000011_Node000018" class="edge">
<title>Node11&#45;&gt;Node18</title>
<g id="a_edge18_Node000011_Node000018"><a xlink:title=" ">
<path fill="none" stroke="#63b8ff" d="M966.81,-124.68C961.32,-123.63 955.8,-122.63 950.5,-121.75 824.55,-100.82 791.28,-107.65 665.5,-85.75 657.09,-84.29 648.11,-82.46 639.63,-80.6"/>
<polygon fill="#63b8ff" stroke="#63b8ff" points="966.03,-128.09 976.52,-126.59 967.38,-121.22 966.03,-128.09"/>
</a>
</g>
</g>
<!-- Node23 -->
<g id="Node000023" class="node">
<title>Node23</title>
<g id="a_Node000023"><a xlink:href="_logical_buttons_8h.html" target="_top" xlink:title=" ">
<polygon fill="white" stroke="#666666" points="798.12,-80.12 674.88,-80.12 674.88,-60.88 798.12,-60.88 798.12,-80.12"/>
<text text-anchor="middle" x="736.5" y="-66.62" font-family="Helvetica,sans-Serif" font-size="10.00">Ajax/Ui/LogicalButtons.h</text>
</a>
</g>
</g>
<!-- Node11&#45;&gt;Node23 -->
<g id="edge19_Node000011_Node000023" class="edge">
<title>Node11&#45;&gt;Node23</title>
<g id="a_edge19_Node000011_Node000023"><a xlink:title=" ">
<path fill="none" stroke="#63b8ff" d="M968.63,-124.41C913.47,-111.84 826.61,-92.04 776.24,-80.56"/>
<polygon fill="#63b8ff" stroke="#63b8ff" points="967.55,-127.75 978.08,-126.56 969.11,-120.92 967.55,-127.75"/>
</a>
</g>
</g>
<!-- Node24 -->
<g id="Node000024" class="node">
<title>Node24</title>
<g id="a_Node000024"><a xlink:href="_ajax_2_ui_2_status_indicator_2_api_8h.html" target="_top" xlink:title=" ">
<polygon fill="white" stroke="#666666" points="932.75,-85.75 816.25,-85.75 816.25,-55.25 932.75,-55.25 932.75,-85.75"/>
<text text-anchor="start" x="824.25" y="-72.25" font-family="Helvetica,sans-Serif" font-size="10.00">Ajax/Ui/StatusIndicator</text>
<text text-anchor="middle" x="874.5" y="-61" font-family="Helvetica,sans-Serif" font-size="10.00">/Api.h</text>
</a>
</g>
</g>
<!-- Node11&#45;&gt;Node24 -->
<g id="edge20_Node000011_Node000024" class="edge">
<title>Node11&#45;&gt;Node24</title>
<g id="a_edge20_Node000011_Node000024"><a xlink:title=" ">
<path fill="none" stroke="#63b8ff" d="M988.77,-122.33C964.9,-111.71 931.85,-97.01 907.43,-86.15"/>
<polygon fill="#63b8ff" stroke="#63b8ff" points="987.09,-125.41 997.65,-126.28 989.94,-119.02 987.09,-125.41"/>
</a>
</g>
</g>
<!-- Node25 -->
<g id="Node000025" class="node">
<title>Node25</title>
<g id="a_Node000025"><a xlink:href="_dm_2_periodic_scheduler_8h.html" target="_top" xlink:title=" ">
<polygon fill="white" stroke="#666666" points="1088.25,-80.12 950.75,-80.12 950.75,-60.88 1088.25,-60.88 1088.25,-80.12"/>
<text text-anchor="middle" x="1019.5" y="-66.62" font-family="Helvetica,sans-Serif" font-size="10.00">Cpl/Dm/PeriodicScheduler.h</text>
</a>
</g>
</g>
<!-- Node11&#45;&gt;Node25 -->
<g id="edge21_Node000011_Node000025" class="edge">
<title>Node11&#45;&gt;Node25</title>
<g id="a_edge21_Node000011_Node000025"><a xlink:title=" ">
<path fill="none" stroke="#63b8ff" d="M1019.5,-115.52C1019.5,-103.69 1019.5,-89.41 1019.5,-80.39"/>
<polygon fill="#63b8ff" stroke="#63b8ff" points="1016,-115.52 1019.5,-125.52 1023,-115.52 1016,-115.52"/>
</a>
</g>
</g>
<!-- Node26 -->
<g id="Node000026" class="node">
<title>Node26</title>
<g id="a_Node000026"><a xlink:href="_log_sink_8h.html" target="_top" xlink:title=" ">
<polygon fill="white" stroke="#666666" points="1220.62,-80.12 1106.38,-80.12 1106.38,-60.88 1220.62,-60.88 1220.62,-80.12"/>
<text text-anchor="middle" x="1163.5" y="-66.62" font-family="Helvetica,sans-Serif" font-size="10.00">Cpl/Logging/LogSink.h</text>
</a>
</g>
</g>
<!-- Node11&#45;&gt;Node26 -->
<g id="edge22_Node000011_Node000026" class="edge">
<title>Node11&#45;&gt;Node26</title>
<g id="a_edge22_Node000011_Node000026"><a xlink:title=" ">
<path fill="none" stroke="#63b8ff" d="M1050.28,-122.21C1078.37,-109.63 1119.1,-91.39 1143.28,-80.56"/>
<polygon fill="#63b8ff" stroke="#63b8ff" points="1048.9,-118.99 1041.21,-126.28 1051.76,-125.38 1048.9,-118.99"/>
</a>
</g>
</g>
<!-- Node27 -->
<g id="Node000027" class="node">
<title>Node27</title>
<g id="a_Node000027"><a xlink:href="_manager_8h.html" target="_top" xlink:title=" ">
<polygon fill="white" stroke="#666666" points="1345.88,-80.12 1239.12,-80.12 1239.12,-60.88 1345.88,-60.88 1345.88,-80.12"/>
<text text-anchor="middle" x="1292.5" y="-66.62" font-family="Helvetica,sans-Serif" font-size="10.00">Cpl/MApp/Manager.h</text>
</a>
</g>
</g>
<!-- Node11&#45;&gt;Node27 -->
<g id="edge23_Node000011_Node000027" class="edge">
<title>Node11&#45;&gt;Node27</title>
<g id="a_edge23_Node000011_Node000027"><a xlink:title=" ">
<path fill="none" stroke="#63b8ff" d="M1068.91,-124.33C1122.13,-111.75 1205.68,-92.01 1254.16,-80.56"/>
<polygon fill="#63b8ff" stroke="#63b8ff" points="1068.44,-120.84 1059.51,-126.55 1070.05,-127.65 1068.44,-120.84"/>
</a>
</g>
</g>
<!-- Node28 -->
<g id="Node000028" class="node">
<title>Node28</title>
<g id="a_Node000028"><a xlink:href="_cpl_2_m_app_2_temperature_2_api_8h.html" target="_top" xlink:title=" ">
<polygon fill="white" stroke="#666666" points="1480.75,-85.75 1364.25,-85.75 1364.25,-55.25 1480.75,-55.25 1480.75,-85.75"/>
<text text-anchor="start" x="1372.25" y="-72.25" font-family="Helvetica,sans-Serif" font-size="10.00">Cpl/MApp/Temperature</text>
<text text-anchor="middle" x="1422.5" y="-61" font-family="Helvetica,sans-Serif" font-size="10.00">/Api.h</text>
</a>
</g>
</g>
<!-- Node11&#45;&gt;Node28 -->
<g id="edge24_Node000011_Node000028" class="edge">
<title>Node11&#45;&gt;Node28</title>
<g id="a_edge24_Node000011_Node000028"><a xlink:title=" ">
<path fill="none" stroke="#63b8ff" d="M1073.19,-124.7C1078.69,-123.65 1084.2,-122.65 1089.5,-121.75 1206.69,-101.88 1237.37,-105.95 1354.5,-85.75 1357.59,-85.22 1360.75,-84.65 1363.95,-84.05"/>
<polygon fill="#63b8ff" stroke="#63b8ff" points="1072.62,-121.24 1063.47,-126.59 1073.96,-128.11 1072.62,-121.24"/>
</a>
</g>
</g>
<!-- Node29 -->
<g id="Node000029" class="node">
<title>Node29</title>
<g id="a_Node000029"><a xlink:href="_chunk_8h.html" target="_top" xlink:title=" ">
<polygon fill="#fff0f0" stroke="red" points="1614.38,-80.12 1498.62,-80.12 1498.62,-60.88 1614.38,-60.88 1614.38,-80.12"/>
<text text-anchor="middle" x="1556.5" y="-66.62" font-family="Helvetica,sans-Serif" font-size="10.00">Cpl/Persistent/Chunk.h</text>
</a>
</g>
</g>
<!-- Node11&#45;&gt;Node29 -->
<g id="edge25_Node000011_Node000029" class="edge">
<title>Node11&#45;&gt;Node29</title>
<g id="a_edge25_Node000011_Node000029"><a xlink:title=" ">
<path fill="none" stroke="#63b8ff" d="M1071.09,-124.82C1077.28,-123.68 1083.52,-122.63 1089.5,-121.75 1266.12,-95.91 1313,-112.36 1489.5,-85.75 1498.67,-84.37 1508.47,-82.5 1517.67,-80.58"/>
<polygon fill="#63b8ff" stroke="#63b8ff" points="1070.73,-121.33 1061.57,-126.66 1072.05,-128.2 1070.73,-121.33"/>
</a>
</g>
</g>
<!-- Node42 -->
<g id="Node000042" class="node">
<title>Node42</title>
<g id="a_Node000042"><a xlink:href="_persistent_2_record_8h.html" target="_top" xlink:title=" ">
<polygon fill="#fff0f0" stroke="red" points="1750.88,-80.12 1632.12,-80.12 1632.12,-60.88 1750.88,-60.88 1750.88,-80.12"/>
<text text-anchor="middle" x="1691.5" y="-66.62" font-family="Helvetica,sans-Serif" font-size="10.00">Cpl/Persistent/Record.h</text>
</a>
</g>
</g>
<!-- Node11&#45;&gt;Node42 -->
<g id="edge26_Node000011_Node000042" class="edge">
<title>Node11&#45;&gt;Node42</title>
<g id="a_edge26_Node000011_Node000042"><a xlink:title=" ">
<path fill="none" stroke="#63b8ff" d="M1070.59,-124.78C1076.94,-123.63 1083.35,-122.58 1089.5,-121.75 1325.24,-89.95 1387.85,-118.22 1623.5,-85.75 1633.06,-84.43 1643.28,-82.55 1652.83,-80.58"/>
<polygon fill="#63b8ff" stroke="#63b8ff" points="1069.97,-121.33 1060.81,-126.65 1071.29,-128.21 1069.97,-121.33"/>
</a>
</g>
</g>
<!-- Node43 -->
<g id="Node000043" class="node">
<title>Node43</title>
<g id="a_Node000043"><a xlink:href="_record_server_8h.html" target="_top" xlink:title=" ">
<polygon fill="#fff0f0" stroke="red" points="1808.12,-19.25 1660.88,-19.25 1660.88,0 1808.12,0 1808.12,-19.25"/>
<text text-anchor="middle" x="1734.5" y="-5.75" font-family="Helvetica,sans-Serif" font-size="10.00">Cpl/Persistent/RecordServer.h</text>
</a>
</g>
</g>
<!-- Node11&#45;&gt;Node43 -->
<g id="edge28_Node000011_Node000043" class="edge">
<title>Node11&#45;&gt;Node43</title>
<g id="a_edge28_Node000011_Node000043"><a xlink:title=" ">
<path fill="none" stroke="#63b8ff" d="M1069.86,-124.83C1076.44,-123.64 1083.12,-122.57 1089.5,-121.75 1163.45,-112.29 1708.22,-139.86 1759.5,-85.75 1777.28,-66.99 1755.46,-35.27 1742.62,-19.74"/>
<polygon fill="#63b8ff" stroke="#63b8ff" points="1069.59,-121.31 1060.43,-126.63 1070.91,-128.19 1069.59,-121.31"/>
</a>
</g>
</g>
<!-- Node44 -->
<g id="Node000044" class="node">
<title>Node44</title>
<g id="a_Node000044"><a xlink:href="_region_media_8h.html" target="_top" xlink:title=" ">
<polygon fill="#fff0f0" stroke="red" points="1950.62,-80.12 1806.38,-80.12 1806.38,-60.88 1950.62,-60.88 1950.62,-80.12"/>
<text text-anchor="middle" x="1878.5" y="-66.62" font-family="Helvetica,sans-Serif" font-size="10.00">Cpl/Persistent/RegionMedia.h</text>
</a>
</g>
</g>
<!-- Node11&#45;&gt;Node44 -->
<g id="edge29_Node000011_Node000044" class="edge">
<title>Node11&#45;&gt;Node44</title>
<g id="a_edge29_Node000011_Node000044"><a xlink:title=" ">
<path fill="none" stroke="#63b8ff" d="M1069.86,-124.81C1076.44,-123.63 1083.12,-122.56 1089.5,-121.75 1399.87,-82.44 1481.46,-119.37 1792.5,-85.75 1804.54,-84.45 1817.45,-82.57 1829.51,-80.6"/>
<polygon fill="#63b8ff" stroke="#63b8ff" points="1069.59,-121.3 1060.43,-126.61 1070.91,-128.18 1069.59,-121.3"/>
</a>
</g>
</g>
<!-- Node48 -->
<g id="Node000048" class="node">
<title>Node48</title>
<g id="a_Node000048"><a xlink:href="_ajax_2_thermistor_8h.html" target="_top" xlink:title=" ">
<polygon fill="#fff0f0" stroke="red" points="2108.75,-80.12 1968.25,-80.12 1968.25,-60.88 2108.75,-60.88 2108.75,-80.12"/>
<text text-anchor="middle" x="2038.5" y="-66.62" font-family="Helvetica,sans-Serif" font-size="10.00">Driver/AIO/Ajax/Thermistor.h</text>
</a>
</g>
</g>
<!-- Node11&#45;&gt;Node48 -->
<g id="edge30_Node000011_Node000048" class="edge">
<title>Node11&#45;&gt;Node48</title>
<g id="a_edge30_Node000011_Node000048"><a xlink:title=" ">
<path fill="none" stroke="#63b8ff" d="M1069.61,-124.8C1076.27,-123.6 1083.03,-122.54 1089.5,-121.75 1473.66,-75 1574.84,-128.2 1959.5,-85.75 1970.86,-84.5 1983.05,-82.58 1994.37,-80.56"/>
<polygon fill="#63b8ff" stroke="#63b8ff" points="1069.22,-121.31 1060.05,-126.62 1070.53,-128.18 1069.22,-121.31"/>
</a>
</g>
</g>
<!-- Node14&#45;&gt;Node13 -->
<g id="edge15_Node000014_Node000013" class="edge">
<title>Node14&#45;&gt;Node13</title>
<g id="a_edge15_Node000014_Node000013"><a xlink:title=" ">
<path fill="none" stroke="#63b8ff" d="M211.6,-45.82C218.62,-36.63 226.23,-26.67 231.56,-19.7"/>
<polygon fill="#63b8ff" stroke="#63b8ff" points="208.83,-43.67 205.54,-53.74 214.4,-47.92 208.83,-43.67"/>
</a>
</g>
</g>
<!-- Node42&#45;&gt;Node43 -->
<g id="edge27_Node000042_Node000043" class="edge">
<title>Node42&#45;&gt;Node43</title>
<g id="a_edge27_Node000042_Node000043"><a xlink:title=" ">
<path fill="none" stroke="#63b8ff" d="M1704.73,-51.39C1712.41,-40.86 1721.76,-28.07 1727.91,-19.65"/>
<polygon fill="#63b8ff" stroke="#63b8ff" points="1702,-49.2 1698.92,-59.34 1707.65,-53.32 1702,-49.2"/>
</a>
</g>
</g>
<!-- Node89 -->
<g id="Node000089" class="node">
<title>Node89</title>
<g id="a_Node000089"><a xlink:href="_itc_2_periodic_scheduler_8h.html" target="_top" xlink:title=" ">
<polygon fill="white" stroke="#666666" points="817.38,-146.62 683.62,-146.62 683.62,-127.38 817.38,-127.38 817.38,-146.62"/>
<text text-anchor="middle" x="750.5" y="-133.12" font-family="Helvetica,sans-Serif" font-size="10.00">Cpl/Itc/PeriodicScheduler.h</text>
</a>
</g>
</g>
<!-- Node88&#45;&gt;Node89 -->
<g id="edge33_Node000088_Node000089" class="edge">
<title>Node88&#45;&gt;Node89</title>
<g id="a_edge33_Node000088_Node000089"><a xlink:title=" ">
<path fill="none" stroke="#63b8ff" d="M842.82,-188.04C819.66,-175.49 786.84,-157.7 767.21,-147.06"/>
<polygon fill="#63b8ff" stroke="#63b8ff" points="840.91,-190.99 851.37,-192.67 844.25,-184.83 840.91,-190.99"/>
</a>
</g>
</g>
<!-- Node90&#45;&gt;Node5 -->
<g id="edge38_Node000090_Node000005" class="edge">
<title>Node90&#45;&gt;Node5</title>
<g id="a_edge38_Node000090_Node000005"><a xlink:title=" ">
<path fill="none" stroke="#63b8ff" d="M1280.58,-261.77C1161.54,-258.2 900.55,-247.55 682.5,-218.75 672.39,-217.42 661.57,-215.52 651.47,-213.55"/>
<polygon fill="#63b8ff" stroke="#63b8ff" points="1280.38,-265.26 1290.47,-262.05 1280.58,-258.26 1280.38,-265.26"/>
</a>
</g>
</g>
<!-- Node90&#45;&gt;Node8 -->
<g id="edge54_Node000090_Node000008" class="edge">
<title>Node90&#45;&gt;Node8</title>
<g id="a_edge54_Node000090_Node000008"><a xlink:title=" ">
<path fill="none" stroke="#63b8ff" d="M1280.64,-261.21C1178.43,-257.1 973.85,-245.98 802.5,-218.75 794.15,-217.42 785.24,-215.56 776.91,-213.61"/>
<polygon fill="#63b8ff" stroke="#63b8ff" points="1280.36,-264.71 1290.49,-261.6 1280.63,-257.71 1280.36,-264.71"/>
</a>
</g>
</g>
<!-- Node90&#45;&gt;Node10 -->
<g id="edge35_Node000090_Node000010" class="edge">
<title>Node90&#45;&gt;Node10</title>
<g id="a_edge35_Node000090_Node000010"><a xlink:title=" ">
<path fill="none" stroke="#63b8ff" d="M1280.34,-253.96C1223.49,-245.52 1138.85,-232.39 1065.5,-218.75 1057.08,-217.19 1048.1,-215.37 1039.54,-213.58"/>
<polygon fill="#63b8ff" stroke="#63b8ff" points="1279.78,-257.42 1290.18,-255.42 1280.8,-250.49 1279.78,-257.42"/>
</a>
</g>
</g>
<!-- Node91 -->
<g id="Node000091" class="node">
<title>Node91</title>
<g id="a_Node000091"><a xlink:href="_stream_driver_8h.html" target="_top" xlink:title=" ">
<polygon fill="white" stroke="#666666" points="1337.5,-218.75 1219.5,-218.75 1219.5,-188.25 1337.5,-188.25 1337.5,-218.75"/>
<text text-anchor="start" x="1227.5" y="-205.25" font-family="Helvetica,sans-Serif" font-size="10.00">Cpl/Io/Serial/ST/M32F4</text>
<text text-anchor="middle" x="1278.5" y="-194" font-family="Helvetica,sans-Serif" font-size="10.00">/StreamDriver.h</text>
</a>
</g>
</g>
<!-- Node90&#45;&gt;Node91 -->
<g id="edge36_Node000090_Node000091" class="edge">
<title>Node90&#45;&gt;Node91</title>
<g id="a_edge36_Node000090_Node000091"><a xlink:title=" ">
<path fill="none" stroke="#63b8ff" d="M1326.91,-247.04C1316.92,-238.26 1304.7,-227.52 1295.04,-219.03"/>
<polygon fill="#63b8ff" stroke="#63b8ff" points="1324.36,-249.46 1334.19,-253.43 1328.99,-244.2 1324.36,-249.46"/>
</a>
</g>
</g>
<!-- Node93 -->
<g id="Node000093" class="node">
<title>Node93</title>
<g id="a_Node000093"><a xlink:href="_bare_metal_2_thread_8h.html" target="_top" xlink:title=" ">
<polygon fill="white" stroke="#666666" points="1469.25,-218.75 1355.75,-218.75 1355.75,-188.25 1469.25,-188.25 1469.25,-218.75"/>
<text text-anchor="start" x="1363.75" y="-205.25" font-family="Helvetica,sans-Serif" font-size="10.00">Cpl/System/BareMetal</text>
<text text-anchor="middle" x="1412.5" y="-194" font-family="Helvetica,sans-Serif" font-size="10.00">/Thread.h</text>
</a>
</g>
</g>
<!-- Node90&#45;&gt;Node93 -->
<g id="edge39_Node000090_Node000093" class="edge">
<title>Node90&#45;&gt;Node93</title>
<g id="a_edge39_Node000090_Node000093"><a xlink:title=" ">
<path fill="none" stroke="#63b8ff" d="M1364.09,-247.04C1374.08,-238.26 1386.3,-227.52 1395.96,-219.03"/>
<polygon fill="#63b8ff" stroke="#63b8ff" points="1362.01,-244.2 1356.81,-253.43 1366.64,-249.46 1362.01,-244.2"/>
</a>
</g>
</g>
<!-- Node94 -->
<g id="Node000094" class="node">
<title>Node94</title>
<g id="a_Node000094"><a xlink:href="_cpp11_2_thread_8h.html" target="_top" xlink:title=" ">
<polygon fill="white" stroke="#666666" points="1625.25,-213.12 1487.75,-213.12 1487.75,-193.88 1625.25,-193.88 1625.25,-213.12"/>
<text text-anchor="middle" x="1556.5" y="-199.62" font-family="Helvetica,sans-Serif" font-size="10.00">Cpl/System/Cpp11/Thread.h</text>
</a>
</g>
</g>
<!-- Node90&#45;&gt;Node94 -->
<g id="edge40_Node000090_Node000094" class="edge">
<title>Node90&#45;&gt;Node94</title>
<g id="a_edge40_Node000090_Node000094"><a xlink:title=" ">
<path fill="none" stroke="#63b8ff" d="M1389.05,-251.22C1429.16,-240.03 1487.78,-223.68 1523.96,-213.58"/>
<polygon fill="#63b8ff" stroke="#63b8ff" points="1388.16,-247.84 1379.46,-253.9 1390.04,-254.58 1388.16,-247.84"/>
</a>
</g>
</g>
<!-- Node95 -->
<g id="Node000095" class="node">
<title>Node95</title>
<g id="a_Node000095"><a xlink:href="_free_r_t_o_s_2_thread_8h.html" target="_top" xlink:title=" ">
<polygon fill="white" stroke="#666666" points="1759.38,-218.75 1643.62,-218.75 1643.62,-188.25 1759.38,-188.25 1759.38,-218.75"/>
<text text-anchor="start" x="1651.62" y="-205.25" font-family="Helvetica,sans-Serif" font-size="10.00">Cpl/System/FreeRTOS</text>
<text text-anchor="middle" x="1701.5" y="-194" font-family="Helvetica,sans-Serif" font-size="10.00">/Thread.h</text>
</a>
</g>
</g>
<!-- Node90&#45;&gt;Node95 -->
<g id="edge41_Node000090_Node000095" class="edge">
<title>Node90&#45;&gt;Node95</title>
<g id="a_edge41_Node000090_Node000095"><a xlink:title=" ">
<path fill="none" stroke="#63b8ff" d="M1410.51,-254.41C1469.2,-246.05 1557.84,-232.81 1634.5,-218.75 1637.42,-218.21 1640.42,-217.65 1643.44,-217.06"/>
<polygon fill="#63b8ff" stroke="#63b8ff" points="1410.09,-250.93 1400.68,-255.8 1411.07,-257.86 1410.09,-250.93"/>
</a>
</g>
</g>
<!-- Node96 -->
<g id="Node000096" class="node">
<title>Node96</title>
<g id="a_Node000096"><a xlink:href="_posix_2_thread_8h.html" target="_top" xlink:title=" ">
<polygon fill="white" stroke="#666666" points="1911.38,-213.12 1777.62,-213.12 1777.62,-193.88 1911.38,-193.88 1911.38,-213.12"/>
<text text-anchor="middle" x="1844.5" y="-199.62" font-family="Helvetica,sans-Serif" font-size="10.00">Cpl/System/Posix/Thread.h</text>
</a>
</g>
</g>
<!-- Node90&#45;&gt;Node96 -->
<g id="edge42_Node000090_Node000096" class="edge">
<title>Node90&#45;&gt;Node96</title>
<g id="a_edge42_Node000090_Node000096"><a xlink:title=" ">
<path fill="none" stroke="#63b8ff" d="M1410.39,-258.16C1493.58,-251.1 1642.19,-237.22 1768.5,-218.75 1778.46,-217.29 1789.11,-215.47 1799.19,-213.61"/>
<polygon fill="#63b8ff" stroke="#63b8ff" points="1410.27,-254.66 1400.6,-258.98 1410.86,-261.63 1410.27,-254.66"/>
</a>
</g>
</g>
<!-- Node97 -->
<g id="Node000097" class="node">
<title>Node97</title>
<g id="a_Node000097"><a xlink:href="_system_2_trace_8h.html" target="_top" xlink:title=" ">
<polygon fill="white" stroke="#666666" points="2031.25,-213.12 1929.75,-213.12 1929.75,-193.88 2031.25,-193.88 2031.25,-213.12"/>
<text text-anchor="middle" x="1980.5" y="-199.62" font-family="Helvetica,sans-Serif" font-size="10.00">Cpl/System/Trace.h</text>
</a>
</g>
</g>
<!-- Node90&#45;&gt;Node97 -->
<g id="edge43_Node000090_Node000097" class="edge">
<title>Node90&#45;&gt;Node97</title>
<g id="a_edge43_Node000090_Node000097"><a xlink:title=" ">
<path fill="none" stroke="#63b8ff" d="M1410.57,-261.62C1517.54,-258 1737.01,-247.48 1920.5,-218.75 1928.96,-217.43 1937.99,-215.54 1946.41,-213.57"/>
<polygon fill="#63b8ff" stroke="#63b8ff" points="1410.73,-258.12 1400.85,-261.94 1410.95,-265.11 1410.73,-258.12"/>
</a>
</g>
</g>
<!-- Node104 -->
<g id="Node000104" class="node">
<title>Node104</title>
<g id="a_Node000104"><a xlink:href="_win32_2_thread_8h.html" target="_top" xlink:title=" ">
<polygon fill="white" stroke="#666666" points="2185.88,-213.12 2049.12,-213.12 2049.12,-193.88 2185.88,-193.88 2185.88,-213.12"/>
<text text-anchor="middle" x="2117.5" y="-199.62" font-family="Helvetica,sans-Serif" font-size="10.00">Cpl/System/Win32/Thread.h</text>
</a>
</g>
</g>
<!-- Node90&#45;&gt;Node104 -->
<g id="edge49_Node000090_Node000104" class="edge">
<title>Node90&#45;&gt;Node104</title>
<g id="a_edge49_Node000090_Node000104"><a xlink:title=" ">
<path fill="none" stroke="#63b8ff" d="M1410.79,-261.77C1534.22,-258.16 1810.06,-247.37 2040.5,-218.75 2051.16,-217.43 2062.57,-215.56 2073.26,-213.62"/>
<polygon fill="#63b8ff" stroke="#63b8ff" points="1410.74,-258.27 1400.84,-262.05 1410.94,-265.27 1410.74,-258.27"/>
</a>
</g>
</g>
<!-- Node105 -->
<g id="Node000105" class="node">
<title>Node105</title>
<g id="a_Node000105"><a xlink:href="_threads_8h.html" target="_top" xlink:title=" ">
<polygon fill="white" stroke="#666666" points="2402.5,-213.12 2272.5,-213.12 2272.5,-193.88 2402.5,-193.88 2402.5,-213.12"/>
<text text-anchor="middle" x="2337.5" y="-199.62" font-family="Helvetica,sans-Serif" font-size="10.00">Cpl/TShell/Cmd/Threads.h</text>
</a>
</g>
</g>
<!-- Node90&#45;&gt;Node105 -->
<g id="edge50_Node000090_Node000105" class="edge">
<title>Node90&#45;&gt;Node105</title>
<g id="a_edge50_Node000090_Node000105"><a xlink:title=" ">
<path fill="none" stroke="#63b8ff" d="M1410.28,-261.01C1552.39,-255.58 1902.18,-240.98 2194.5,-218.75 2219.88,-216.82 2247.73,-214.17 2272.06,-211.67"/>
<polygon fill="#63b8ff" stroke="#63b8ff" points="1410.57,-257.49 1400.71,-261.37 1410.83,-264.49 1410.57,-257.49"/>
</a>
</g>
</g>
<!-- Node108 -->
<g id="Node000108" class="node">
<title>Node108</title>
<g id="a_Node000108"><a xlink:href="_restartable_8h.html" target="_top" xlink:title=" ">
<polygon fill="white" stroke="#666666" points="1219,-146.62 1098,-146.62 1098,-127.38 1219,-127.38 1219,-146.62"/>
<text text-anchor="middle" x="1158.5" y="-133.12" font-family="Helvetica,sans-Serif" font-size="10.00">Cpl/TShell/Restartable.h</text>
</a>
</g>
</g>
<!-- Node90&#45;&gt;Node108 -->
<g id="edge53_Node000090_Node000108" class="edge">
<title>Node90&#45;&gt;Node108</title>
<g id="a_edge53_Node000090_Node000108"><a xlink:title=" ">
<path fill="none" stroke="#63b8ff" d="M1280.37,-260.77C1215.14,-256.64 1121.27,-246 1098.5,-218.75 1077.56,-193.69 1119.23,-162.15 1143.21,-146.97"/>
<polygon fill="#63b8ff" stroke="#63b8ff" points="1280.08,-264.26 1290.27,-261.36 1280.5,-257.28 1280.08,-264.26"/>
</a>
</g>
</g>
<!-- Node109 -->
<g id="Node000109" class="node">
<title>Node109</title>
<g id="a_Node000109"><a xlink:href="_stdio_8h.html" target="_top" xlink:title=" ">
<polygon fill="white" stroke="#666666" points="1201.5,-213.12 1107.5,-213.12 1107.5,-193.88 1201.5,-193.88 1201.5,-213.12"/>
<text text-anchor="middle" x="1154.5" y="-199.62" font-family="Helvetica,sans-Serif" font-size="10.00">Cpl/TShell/Stdio.h</text>
</a>
</g>
</g>
<!-- Node90&#45;&gt;Node109 -->
<g id="edge55_Node000090_Node000109" class="edge">
<title>Node90&#45;&gt;Node109</title>
<g id="a_edge55_Node000090_Node000109"><a xlink:title=" ">
<path fill="none" stroke="#63b8ff" d="M1305.38,-251.01C1269.09,-239.82 1216.5,-223.61 1183.96,-213.58"/>
<polygon fill="#63b8ff" stroke="#63b8ff" points="1304.04,-254.26 1314.63,-253.86 1306.1,-247.57 1304.04,-254.26"/>
</a>
</g>
</g>
<!-- Node92 -->
<g id="Node000092" class="node">
<title>Node92</title>
<g id="a_Node000092"><a xlink:href="_serial_2_s_t_2_m32_f4_2_input_output_8h.html" target="_top" xlink:title=" ">
<polygon fill="white" stroke="#666666" points="1355.5,-152.25 1237.5,-152.25 1237.5,-121.75 1355.5,-121.75 1355.5,-152.25"/>
<text text-anchor="start" x="1245.5" y="-138.75" font-family="Helvetica,sans-Serif" font-size="10.00">Cpl/Io/Serial/ST/M32F4</text>
<text text-anchor="middle" x="1296.5" y="-127.5" font-family="Helvetica,sans-Serif" font-size="10.00">/InputOutput.h</text>
</a>
</g>
</g>
<!-- Node91&#45;&gt;Node92 -->
<g id="edge37_Node000091_Node000092" class="edge">
<title>Node91&#45;&gt;Node92</title>
<g id="a_edge37_Node000091_Node000092"><a xlink:title=" ">
<path fill="none" stroke="#63b8ff" d="M1285.66,-176.84C1287.96,-168.59 1290.43,-159.74 1292.43,-152.58"/>
<polygon fill="#63b8ff" stroke="#63b8ff" points="1282.31,-175.83 1282.99,-186.41 1289.05,-177.71 1282.31,-175.83"/>
</a>
</g>
</g>
<!-- Node98 -->
<g id="Node000098" class="node">
<title>Node98</title>
<g id="a_Node000098"><a xlink:href="_fsm__trace___8h.html" target="_top" xlink:title=" ">
<polygon fill="white" stroke="#666666" points="2262,-152.25 2141,-152.25 2141,-121.75 2262,-121.75 2262,-152.25"/>
<text text-anchor="start" x="2149" y="-138.75" font-family="Helvetica,sans-Serif" font-size="10.00">Ajax/Heating/Supervisor</text>
<text text-anchor="middle" x="2201.5" y="-127.5" font-family="Helvetica,sans-Serif" font-size="10.00">/Fsm_trace_.h</text>
</a>
</g>
</g>
<!-- Node97&#45;&gt;Node98 -->
<g id="edge44_Node000097_Node000098" class="edge">
<title>Node97&#45;&gt;Node98</title>
<g id="a_edge44_Node000097_Node000098"><a xlink:title=" ">
<path fill="none" stroke="#63b8ff" d="M2022.5,-190.24C2059.16,-179.54 2112.42,-164 2151.31,-152.65"/>
<polygon fill="#63b8ff" stroke="#63b8ff" points="2021.77,-186.81 2013.15,-192.97 2023.73,-193.53 2021.77,-186.81"/>
</a>
</g>
</g>
<!-- Node32 -->
<g id="Node000032" class="node">
<title>Node32</title>
<g id="a_Node000032"><a xlink:href="_personality_record_8h.html" target="_top" xlink:title=" ">
<polygon fill="#fff0f0" stroke="red" points="1659.5,-146.62 1511.5,-146.62 1511.5,-127.38 1659.5,-127.38 1659.5,-146.62"/>
<text text-anchor="middle" x="1585.5" y="-133.12" font-family="Helvetica,sans-Serif" font-size="10.00">Ajax/Main/PersonalityRecord.h</text>
</a>
</g>
</g>
<!-- Node97&#45;&gt;Node32 -->
<g id="edge45_Node000097_Node000032" class="edge">
<title>Node97&#45;&gt;Node32</title>
<g id="a_edge45_Node000097_Node000032"><a xlink:title=" ">
<path fill="none" stroke="#63b8ff" d="M1933.75,-190.96C1929.29,-189.99 1924.81,-189.07 1920.5,-188.25 1809.35,-167.16 1780.26,-169.82 1668.5,-152.25 1658.39,-150.66 1647.6,-148.87 1637.27,-147.12"/>
<polygon fill="#63b8ff" stroke="#63b8ff" points="1932.76,-194.33 1943.29,-193.11 1934.3,-187.5 1932.76,-194.33"/>
</a>
</g>
</g>
<!-- Node99 -->
<g id="Node000099" class="node">
<title>Node99</title>
<g id="a_Node000099"><a xlink:href="_integer_expression_parser_8h.html" target="_top" xlink:title="This file contains a collection of methods that parses a null terminated string that contains an arit...">
<polygon fill="white" stroke="#666666" points="1813.12,-152.25 1677.88,-152.25 1677.88,-121.75 1813.12,-121.75 1813.12,-152.25"/>
<text text-anchor="start" x="1685.88" y="-138.75" font-family="Helvetica,sans-Serif" font-size="10.00">Cpl/Math/IntegerExpression</text>
<text text-anchor="middle" x="1745.5" y="-127.5" font-family="Helvetica,sans-Serif" font-size="10.00">Parser.h</text>
</a>
</g>
</g>
<!-- Node97&#45;&gt;Node99 -->
<g id="edge46_Node000097_Node000099" class="edge">
<title>Node97&#45;&gt;Node99</title>
<g id="a_edge46_Node000097_Node000099"><a xlink:title=" ">
<path fill="none" stroke="#63b8ff" d="M1936.34,-190.38C1897.35,-179.68 1840.41,-164.05 1798.87,-152.65"/>
<polygon fill="#63b8ff" stroke="#63b8ff" points="1935.3,-193.72 1945.87,-192.99 1937.15,-186.97 1935.3,-193.72"/>
</a>
</g>
</g>
<!-- Node100 -->
<g id="Node000100" class="node">
<title>Node100</title>
<g id="a_Node000100"><a xlink:href="_real_expression_parser_8h.html" target="_top" xlink:title="This file contains a collection of methods that parses a null terminated string that contains an arit...">
<polygon fill="white" stroke="#666666" points="1991.88,-146.62 1831.12,-146.62 1831.12,-127.38 1991.88,-127.38 1991.88,-146.62"/>
<text text-anchor="middle" x="1911.5" y="-133.12" font-family="Helvetica,sans-Serif" font-size="10.00">Cpl/Math/RealExpressionParser.h</text>
</a>
</g>
</g>
<!-- Node97&#45;&gt;Node100 -->
<g id="edge47_Node000097_Node000100" class="edge">
<title>Node97&#45;&gt;Node100</title>
<g id="a_edge47_Node000097_Node000100"><a xlink:title=" ">
<path fill="none" stroke="#63b8ff" d="M1962.53,-185.7C1949.25,-173.29 1931.69,-156.87 1921.01,-146.89"/>
<polygon fill="#63b8ff" stroke="#63b8ff" points="1960.1,-188.23 1969.8,-192.5 1964.88,-183.11 1960.1,-188.23"/>
</a>
</g>
</g>
<!-- Node101 -->
<g id="Node000101" class="node">
<title>Node101</title>
<g id="a_Node000101"><a xlink:href="_system_2_private___8h.html" target="_top" xlink:title="This file contains a collection of classes, interfaces, etc.">
<polygon fill="#fff0f0" stroke="red" points="2122.88,-146.62 2010.12,-146.62 2010.12,-127.38 2122.88,-127.38 2122.88,-146.62"/>
<text text-anchor="middle" x="2066.5" y="-133.12" font-family="Helvetica,sans-Serif" font-size="10.00">Cpl/System/Private_.h</text>
</a>
</g>
</g>
<!-- Node97&#45;&gt;Node101 -->
<g id="edge48_Node000097_Node000101" class="edge">
<title>Node97&#45;&gt;Node101</title>
<g id="a_edge48_Node000097_Node000101"><a xlink:title=" ">
<path fill="none" stroke="#63b8ff" d="M2001.42,-186.81C2018.02,-174.36 2040.63,-157.4 2054.37,-147.1"/>
<polygon fill="#63b8ff" stroke="#63b8ff" points="1999.57,-183.82 1993.67,-192.62 2003.77,-189.42 1999.57,-183.82"/>
</a>
</g>
</g>
<!-- Node106 -->
<g id="Node000106" class="node">
<title>Node106</title>
<g id="a_Node000106"><a xlink:href="_free_r_t_o_s_2_threads_8h.html" target="_top" xlink:title=" ">
<polygon fill="white" stroke="#666666" points="2546.38,-152.25 2412.62,-152.25 2412.62,-121.75 2546.38,-121.75 2546.38,-152.25"/>
<text text-anchor="start" x="2420.62" y="-138.75" font-family="Helvetica,sans-Serif" font-size="10.00">Cpl/TShell/Cmd/FreeRTOS</text>
<text text-anchor="middle" x="2479.5" y="-127.5" font-family="Helvetica,sans-Serif" font-size="10.00">/Threads.h</text>
</a>
</g>
</g>
<!-- Node105&#45;&gt;Node106 -->
<g id="edge51_Node000105_Node000106" class="edge">
<title>Node105&#45;&gt;Node106</title>
<g id="a_edge51_Node000105_Node000106"><a xlink:title=" ">
<path fill="none" stroke="#63b8ff" d="M2367.91,-188.69C2391.26,-178.08 2423.45,-163.46 2447.25,-152.65"/>
<polygon fill="#63b8ff" stroke="#63b8ff" points="2366.58,-185.45 2358.92,-192.77 2369.47,-191.82 2366.58,-185.45"/>
</a>
</g>
</g>
<!-- Node107 -->
<g id="Node000107" class="node">
<title>Node107</title>
<g id="a_Node000107"><a xlink:href="_win32_2_threads_8h.html" target="_top" xlink:title=" ">
<polygon fill="white" stroke="#666666" points="2394.62,-152.25 2280.38,-152.25 2280.38,-121.75 2394.62,-121.75 2394.62,-152.25"/>
<text text-anchor="start" x="2288.38" y="-138.75" font-family="Helvetica,sans-Serif" font-size="10.00">Cpl/TShell/Cmd/Win32</text>
<text text-anchor="middle" x="2337.5" y="-127.5" font-family="Helvetica,sans-Serif" font-size="10.00">/Threads.h</text>
</a>
</g>
</g>
<!-- Node105&#45;&gt;Node107 -->
<g id="edge52_Node000105_Node000107" class="edge">
<title>Node105&#45;&gt;Node107</title>
<g id="a_edge52_Node000105_Node000107"><a xlink:title=" ">
<path fill="none" stroke="#63b8ff" d="M2337.5,-182.12C2337.5,-172.44 2337.5,-161.1 2337.5,-152.34"/>
<polygon fill="#63b8ff" stroke="#63b8ff" points="2334,-182.02 2337.5,-192.02 2341,-182.02 2334,-182.02"/>
</a>
</g>
</g>
<!-- Node109&#45;&gt;Node108 -->
<g id="edge56_Node000109_Node000108" class="edge">
<title>Node109&#45;&gt;Node108</title>
<g id="a_edge56_Node000109_Node000108"><a xlink:title=" ">
<path fill="none" stroke="#63b8ff" d="M1155.75,-182.4C1156.48,-170.5 1157.38,-156.01 1157.95,-146.89"/>
<polygon fill="#63b8ff" stroke="#63b8ff" points="1152.28,-181.82 1155.15,-192.02 1159.26,-182.26 1152.28,-181.82"/>
</a>
</g>
</g>
</g>
</svg>
