<?xml version="1.0" encoding="UTF-8" standalone="no"?>
<!DOCTYPE svg PUBLIC "-//W3C//DTD SVG 1.1//EN"
 "http://www.w3.org/Graphics/SVG/1.1/DTD/svg11.dtd">
<!-- Generated by graphviz version 2.43.0 (0)
 -->
<!-- Title: Cpl/Itc/SAP.h Pages: 1 -->
<svg width="2098pt" height="566pt"
 viewBox="0.00 0.00 2098.00 566.00" xmlns="http://www.w3.org/2000/svg" xmlns:xlink="http://www.w3.org/1999/xlink">
<g id="graph0" class="graph" transform="scale(1 1) rotate(0) translate(4 562)">
<title>Cpl/Itc/SAP.h</title>
<!-- Node1 -->
<g id="Node000001" class="node">
<title>Node1</title>
<g id="a_Node000001"><a xlink:title=" ">
<polygon fill="#999999" stroke="#666666" points="1201,-558 1124,-558 1124,-539 1201,-539 1201,-558"/>
<text text-anchor="middle" x="1162.5" y="-546" font-family="Helvetica,sans-Serif" font-size="10.00">Cpl/Itc/SAP.h</text>
</a>
</g>
</g>
<!-- Node2 -->
<g id="Node000002" class="node">
<title>Node2</title>
<g id="a_Node000002"><a xlink:href="_erase_request_8h.html" target="_top" xlink:title=" ">
<polygon fill="white" stroke="#666666" points="795,-376.5 612,-376.5 612,-357.5 795,-357.5 795,-376.5"/>
<text text-anchor="middle" x="703.5" y="-364.5" font-family="Helvetica,sans-Serif" font-size="10.00">Cpl/Dm/Persistent/EraseRequest.h</text>
</a>
</g>
</g>
<!-- Node1&#45;&gt;Node2 -->
<g id="edge1_Node000001_Node000002" class="edge">
<title>Node1&#45;&gt;Node2</title>
<g id="a_edge1_Node000001_Node000002"><a xlink:title=" ">
<path fill="none" stroke="#63b8ff" d="M1125.21,-535.76C1099.24,-527.31 1063.95,-515.29 1033.5,-503 950.34,-469.44 933.74,-451.38 850.5,-418 809.72,-401.65 761.27,-385.85 731.46,-376.53"/>
<polygon fill="#63b8ff" stroke="#63b8ff" points="1124.43,-539.19 1135.02,-538.93 1126.58,-532.52 1124.43,-539.19"/>
</a>
</g>
</g>
<!-- Node9 -->
<g id="Node000009" class="node">
<title>Node9</title>
<g id="a_Node000009"><a xlink:href="_flush_request_8h.html" target="_top" xlink:title=" ">
<polygon fill="white" stroke="#666666" points="995.5,-376.5 813.5,-376.5 813.5,-357.5 995.5,-357.5 995.5,-376.5"/>
<text text-anchor="middle" x="904.5" y="-364.5" font-family="Helvetica,sans-Serif" font-size="10.00">Cpl/Dm/Persistent/FlushRequest.h</text>
</a>
</g>
</g>
<!-- Node1&#45;&gt;Node9 -->
<g id="edge8_Node000001_Node000009" class="edge">
<title>Node1&#45;&gt;Node9</title>
<g id="a_edge8_Node000001_Node000009"><a xlink:title=" ">
<path fill="none" stroke="#63b8ff" d="M1129.94,-535.13C1110.56,-527.15 1085.86,-515.88 1065.5,-503 1001.68,-462.64 935.8,-399.28 912.92,-376.51"/>
<polygon fill="#63b8ff" stroke="#63b8ff" points="1128.68,-538.4 1139.27,-538.89 1131.3,-531.91 1128.68,-538.4"/>
</a>
</g>
</g>
<!-- Node10 -->
<g id="Node000010" class="node">
<title>Node10</title>
<g id="a_Node000010"><a xlink:href="_listener_client_request_8h.html" target="_top" xlink:title=" ">
<polygon fill="white" stroke="#666666" points="841.5,-448 691.5,-448 691.5,-418 841.5,-418 841.5,-448"/>
<text text-anchor="start" x="699.5" y="-436" font-family="Helvetica,sans-Serif" font-size="10.00">Cpl/Io/Socket/ListenerClient</text>
<text text-anchor="middle" x="766.5" y="-425" font-family="Helvetica,sans-Serif" font-size="10.00">Request.h</text>
</a>
</g>
</g>
<!-- Node1&#45;&gt;Node10 -->
<g id="edge10_Node000001_Node000010" class="edge">
<title>Node1&#45;&gt;Node10</title>
<g id="a_edge10_Node000001_Node000010"><a xlink:title=" ">
<path fill="none" stroke="#63b8ff" d="M1113.65,-547.99C1051.3,-546.94 941.25,-539.43 855.5,-503 825.09,-490.08 796.04,-464.15 779.81,-448.01"/>
<polygon fill="#63b8ff" stroke="#63b8ff" points="1113.93,-551.49 1123.97,-548.11 1114.02,-544.49 1113.93,-551.49"/>
</a>
</g>
</g>
<!-- Node12 -->
<g id="Node000012" class="node">
<title>Node12</title>
<g id="a_Node000012"><a xlink:href="_atomic_request_8h.html" target="_top" xlink:title=" ">
<polygon fill="white" stroke="#666666" points="1147.5,-376.5 1013.5,-376.5 1013.5,-357.5 1147.5,-357.5 1147.5,-376.5"/>
<text text-anchor="middle" x="1080.5" y="-364.5" font-family="Helvetica,sans-Serif" font-size="10.00">Cpl/Itc/AtomicRequest.h</text>
</a>
</g>
</g>
<!-- Node1&#45;&gt;Node12 -->
<g id="edge12_Node000001_Node000012" class="edge">
<title>Node1&#45;&gt;Node12</title>
<g id="a_edge12_Node000001_Node000012"><a xlink:title=" ">
<path fill="none" stroke="#63b8ff" d="M1126.84,-534.9C1111.23,-527.74 1093.91,-517.3 1082.5,-503 1058.53,-472.94 1061.27,-456.08 1066.5,-418 1068.54,-403.18 1073.82,-386.55 1077.28,-376.7"/>
<polygon fill="#63b8ff" stroke="#63b8ff" points="1125.7,-538.22 1136.27,-538.93 1128.46,-531.78 1125.7,-538.22"/>
</a>
</g>
</g>
<!-- Node14 -->
<g id="Node000014" class="node">
<title>Node14</title>
<g id="a_Node000014"><a xlink:href="_close_request_8h.html" target="_top" xlink:title=" ">
<polygon fill="white" stroke="#666666" points="1435.5,-376.5 1309.5,-376.5 1309.5,-357.5 1435.5,-357.5 1435.5,-376.5"/>
<text text-anchor="middle" x="1372.5" y="-364.5" font-family="Helvetica,sans-Serif" font-size="10.00">Cpl/Itc/CloseRequest.h</text>
</a>
</g>
</g>
<!-- Node1&#45;&gt;Node14 -->
<g id="edge14_Node000001_Node000014" class="edge">
<title>Node1&#45;&gt;Node14</title>
<g id="a_edge14_Node000001_Node000014"><a xlink:title=" ">
<path fill="none" stroke="#63b8ff" d="M1201.27,-535.63C1221.4,-528.27 1245.65,-517.44 1264.5,-503 1313.82,-465.22 1353.99,-400.27 1367.57,-376.79"/>
<polygon fill="#63b8ff" stroke="#63b8ff" points="1200.03,-532.35 1191.76,-538.96 1202.35,-538.96 1200.03,-532.35"/>
</a>
</g>
</g>
<!-- Node34 -->
<g id="Node000034" class="node">
<title>Node34</title>
<g id="a_Node000034"><a xlink:href="_open_request_8h.html" target="_top" xlink:title=" ">
<polygon fill="white" stroke="#666666" points="1291,-376.5 1166,-376.5 1166,-357.5 1291,-357.5 1291,-376.5"/>
<text text-anchor="middle" x="1228.5" y="-364.5" font-family="Helvetica,sans-Serif" font-size="10.00">Cpl/Itc/OpenRequest.h</text>
</a>
</g>
</g>
<!-- Node1&#45;&gt;Node34 -->
<g id="edge40_Node000001_Node000034" class="edge">
<title>Node1&#45;&gt;Node34</title>
<g id="a_edge40_Node000001_Node000034"><a xlink:title=" ">
<path fill="none" stroke="#63b8ff" d="M1197.94,-534.89C1213.77,-527.69 1231.51,-517.22 1243.5,-503 1268.45,-473.41 1273.89,-455 1262.5,-418 1257.5,-401.75 1245.21,-386.04 1236.86,-376.7"/>
<polygon fill="#63b8ff" stroke="#63b8ff" points="1196.23,-531.81 1188.4,-538.95 1198.97,-538.25 1196.23,-531.81"/>
</a>
</g>
</g>
<!-- Node36 -->
<g id="Node000036" class="node">
<title>Node36</title>
<g id="a_Node000036"><a xlink:href="_request_message_8h.html" target="_top" xlink:title=" ">
<polygon fill="white" stroke="#666666" points="1234,-503 1091,-503 1091,-484 1234,-484 1234,-503"/>
<text text-anchor="middle" x="1162.5" y="-491" font-family="Helvetica,sans-Serif" font-size="10.00">Cpl/Itc/RequestMessage.h</text>
</a>
</g>
</g>
<!-- Node1&#45;&gt;Node36 -->
<g id="edge43_Node000001_Node000036" class="edge">
<title>Node1&#45;&gt;Node36</title>
<g id="a_edge43_Node000001_Node000036"><a xlink:title=" ">
<path fill="none" stroke="#63b8ff" d="M1162.5,-528.66C1162.5,-519.93 1162.5,-509.99 1162.5,-503.09"/>
<polygon fill="#63b8ff" stroke="#63b8ff" points="1159,-528.75 1162.5,-538.75 1166,-528.75 1159,-528.75"/>
</a>
</g>
</g>
<!-- Node38 -->
<g id="Node000038" class="node">
<title>Node38</title>
<g id="a_Node000038"><a xlink:href="_requests_8h.html" target="_top" xlink:title=" ">
<polygon fill="white" stroke="#666666" points="1573.5,-376.5 1453.5,-376.5 1453.5,-357.5 1573.5,-357.5 1573.5,-376.5"/>
<text text-anchor="middle" x="1513.5" y="-364.5" font-family="Helvetica,sans-Serif" font-size="10.00">Cpl/MApp/Requests.h</text>
</a>
</g>
</g>
<!-- Node1&#45;&gt;Node38 -->
<g id="edge62_Node000001_Node000038" class="edge">
<title>Node1&#45;&gt;Node38</title>
<g id="a_edge62_Node000001_Node000038"><a xlink:title=" ">
<path fill="none" stroke="#63b8ff" d="M1201.55,-535.95C1226.86,-527.92 1260.24,-516.3 1288.5,-503 1373.82,-462.84 1468.27,-399.36 1501.3,-376.53"/>
<polygon fill="#63b8ff" stroke="#63b8ff" points="1200.44,-532.63 1191.94,-538.95 1202.53,-539.31 1200.44,-532.63"/>
</a>
</g>
</g>
<!-- Node39 -->
<g id="Node000039" class="node">
<title>Node39</title>
<g id="a_Node000039"><a xlink:href="_indexed_entry_requests_8h.html" target="_top" xlink:title=" ">
<polygon fill="white" stroke="#666666" points="1743,-382 1592,-382 1592,-352 1743,-352 1743,-382"/>
<text text-anchor="start" x="1600" y="-370" font-family="Helvetica,sans-Serif" font-size="10.00">Cpl/Persistent/IndexedEntry</text>
<text text-anchor="middle" x="1667.5" y="-359" font-family="Helvetica,sans-Serif" font-size="10.00">Requests.h</text>
</a>
</g>
</g>
<!-- Node1&#45;&gt;Node39 -->
<g id="edge63_Node000001_Node000039" class="edge">
<title>Node1&#45;&gt;Node39</title>
<g id="a_edge63_Node000001_Node000039"><a xlink:title=" ">
<path fill="none" stroke="#63b8ff" d="M1206.29,-536.38C1238.2,-527.99 1282.33,-515.77 1320.5,-503 1437.59,-463.84 1573.12,-407.96 1634.39,-382.12"/>
<polygon fill="#63b8ff" stroke="#63b8ff" points="1205.17,-533.06 1196.38,-538.97 1206.94,-539.83 1205.17,-533.06"/>
</a>
</g>
</g>
<!-- Node3 -->
<g id="Node000003" class="node">
<title>Node3</title>
<g id="a_Node000003"><a xlink:href="_dm_2_persistent_2_record_8h.html" target="_top" xlink:title=" ">
<polygon fill="white" stroke="#666666" points="477.5,-134.5 327.5,-134.5 327.5,-115.5 477.5,-115.5 477.5,-134.5"/>
<text text-anchor="middle" x="402.5" y="-122.5" font-family="Helvetica,sans-Serif" font-size="10.00">Cpl/Dm/Persistent/Record.h</text>
</a>
</g>
</g>
<!-- Node2&#45;&gt;Node3 -->
<g id="edge2_Node000002_Node000003" class="edge">
<title>Node2&#45;&gt;Node3</title>
<g id="a_edge2_Node000002_Node000003"><a xlink:title=" ">
<path fill="none" stroke="#63b8ff" d="M630.41,-355.98C558.89,-345.52 458.79,-328.88 445.5,-316 393.05,-265.16 398.5,-164.85 401.48,-134.74"/>
<polygon fill="#63b8ff" stroke="#63b8ff" points="630.35,-359.51 640.74,-357.48 631.35,-352.58 630.35,-359.51"/>
</a>
</g>
</g>
<!-- Node4 -->
<g id="Node000004" class="node">
<title>Node4</title>
<g id="a_Node000004"><a xlink:href="_metrics_record_8h.html" target="_top" xlink:title=" ">
<polygon fill="white" stroke="#666666" points="147,-74 0,-74 0,-55 147,-55 147,-74"/>
<text text-anchor="middle" x="73.5" y="-62" font-family="Helvetica,sans-Serif" font-size="10.00">Ajax/Main/MetricsRecord.h</text>
</a>
</g>
</g>
<!-- Node3&#45;&gt;Node4 -->
<g id="edge3_Node000003_Node000004" class="edge">
<title>Node3&#45;&gt;Node4</title>
<g id="a_edge3_Node000003_Node000004"><a xlink:title=" ">
<path fill="none" stroke="#63b8ff" d="M344.81,-113.74C281.39,-102.46 180.63,-84.55 121.4,-74.02"/>
<polygon fill="#63b8ff" stroke="#63b8ff" points="344.2,-117.19 354.66,-115.49 345.43,-110.3 344.2,-117.19"/>
</a>
</g>
</g>
<!-- Node6 -->
<g id="Node000006" class="node">
<title>Node6</title>
<g id="a_Node000006"><a xlink:href="_personality_record_8h.html" target="_top" xlink:title=" ">
<polygon fill="white" stroke="#666666" points="483.5,-74 317.5,-74 317.5,-55 483.5,-55 483.5,-74"/>
<text text-anchor="middle" x="400.5" y="-62" font-family="Helvetica,sans-Serif" font-size="10.00">Ajax/Main/PersonalityRecord.h</text>
</a>
</g>
</g>
<!-- Node3&#45;&gt;Node6 -->
<g id="edge5_Node000003_Node000006" class="edge">
<title>Node3&#45;&gt;Node6</title>
<g id="a_edge5_Node000003_Node000006"><a xlink:title=" ">
<path fill="none" stroke="#63b8ff" d="M401.86,-105.16C401.5,-94.74 401.07,-82.3 400.8,-74.17"/>
<polygon fill="#63b8ff" stroke="#63b8ff" points="398.37,-105.49 402.2,-115.37 405.36,-105.25 398.37,-105.49"/>
</a>
</g>
</g>
<!-- Node8 -->
<g id="Node000008" class="node">
<title>Node8</title>
<g id="a_Node000008"><a xlink:href="_user_record_8h.html" target="_top" xlink:title=" ">
<polygon fill="white" stroke="#666666" points="299.5,-74 165.5,-74 165.5,-55 299.5,-55 299.5,-74"/>
<text text-anchor="middle" x="232.5" y="-62" font-family="Helvetica,sans-Serif" font-size="10.00">Ajax/Main/UserRecord.h</text>
</a>
</g>
</g>
<!-- Node3&#45;&gt;Node8 -->
<g id="edge7_Node000003_Node000008" class="edge">
<title>Node3&#45;&gt;Node8</title>
<g id="a_edge7_Node000003_Node000008"><a xlink:title=" ">
<path fill="none" stroke="#63b8ff" d="M368.13,-112.17C335.25,-100.86 286.47,-84.07 257.25,-74.02"/>
<polygon fill="#63b8ff" stroke="#63b8ff" points="367.19,-115.55 377.78,-115.49 369.46,-108.93 367.19,-115.55"/>
</a>
</g>
</g>
<!-- Node5 -->
<g id="Node000005" class="node">
<title>Node5</title>
<g id="a_Node000005"><a xlink:href="_ajax_2_metrics_2_api_8h.html" target="_top" xlink:title=" ">
<polygon fill="white" stroke="#666666" points="393,-19 288,-19 288,0 393,0 393,-19"/>
<text text-anchor="middle" x="340.5" y="-7" font-family="Helvetica,sans-Serif" font-size="10.00">Ajax/Metrics/Api.h</text>
</a>
</g>
</g>
<!-- Node4&#45;&gt;Node5 -->
<g id="edge4_Node000004_Node000005" class="edge">
<title>Node4&#45;&gt;Node5</title>
<g id="a_edge4_Node000004_Node000005"><a xlink:title=" ">
<path fill="none" stroke="#63b8ff" d="M126.38,-53C176.43,-43.07 250.66,-28.33 297.27,-19.08"/>
<polygon fill="#63b8ff" stroke="#63b8ff" points="125.53,-49.6 116.4,-54.98 126.89,-56.47 125.53,-49.6"/>
</a>
</g>
</g>
<!-- Node7 -->
<g id="Node000007" class="node">
<title>Node7</title>
<g id="a_Node000007"><a xlink:href="_provision_8h.html" target="_top" xlink:title=" ">
<polygon fill="white" stroke="#666666" points="635.5,-19 507.5,-19 507.5,0 635.5,0 635.5,-19"/>
<text text-anchor="middle" x="571.5" y="-7" font-family="Helvetica,sans-Serif" font-size="10.00">Ajax/TShell/Provision.h</text>
</a>
</g>
</g>
<!-- Node6&#45;&gt;Node7 -->
<g id="edge6_Node000006_Node000007" class="edge">
<title>Node6&#45;&gt;Node7</title>
<g id="a_edge6_Node000006_Node000007"><a xlink:title=" ">
<path fill="none" stroke="#63b8ff" d="M437.84,-51.93C469.78,-42.03 515.02,-28.01 543.81,-19.08"/>
<polygon fill="#63b8ff" stroke="#63b8ff" points="436.49,-48.68 427.97,-54.98 438.56,-55.37 436.49,-48.68"/>
</a>
</g>
</g>
<!-- Node9&#45;&gt;Node3 -->
<g id="edge9_Node000009_Node000003" class="edge">
<title>Node9&#45;&gt;Node3</title>
<g id="a_edge9_Node000009_Node000003"><a xlink:title=" ">
<path fill="none" stroke="#63b8ff" d="M860.35,-354.75C781.88,-333.53 614.73,-282.73 490.5,-206 456.77,-185.17 424.14,-150.58 409.93,-134.59"/>
<polygon fill="#63b8ff" stroke="#63b8ff" points="859.8,-358.23 870.37,-357.43 861.61,-351.47 859.8,-358.23"/>
</a>
</g>
</g>
<!-- Node11 -->
<g id="Node000011" class="node">
<title>Node11</title>
<g id="a_Node000011"><a xlink:href="_listener_client_sync_8h.html" target="_top" xlink:title=" ">
<polygon fill="white" stroke="#666666" points="593.5,-382 443.5,-382 443.5,-352 593.5,-352 593.5,-382"/>
<text text-anchor="start" x="451.5" y="-370" font-family="Helvetica,sans-Serif" font-size="10.00">Cpl/Io/Socket/ListenerClient</text>
<text text-anchor="middle" x="518.5" y="-359" font-family="Helvetica,sans-Serif" font-size="10.00">Sync.h</text>
</a>
</g>
</g>
<!-- Node10&#45;&gt;Node11 -->
<g id="edge11_Node000010_Node000011" class="edge">
<title>Node10&#45;&gt;Node11</title>
<g id="a_edge11_Node000010_Node000011"><a xlink:title=" ">
<path fill="none" stroke="#63b8ff" d="M702.37,-415.45C662.19,-405.08 610.97,-391.86 572.8,-382.01"/>
<polygon fill="#63b8ff" stroke="#63b8ff" points="701.52,-418.85 712.08,-417.95 703.27,-412.07 701.52,-418.85"/>
</a>
</g>
</g>
<!-- Node13 -->
<g id="Node000013" class="node">
<title>Node13</title>
<g id="a_Node000013"><a xlink:href="_atomic_sync_8h.html" target="_top" xlink:title=" ">
<polygon fill="white" stroke="#666666" points="1139,-316 1022,-316 1022,-297 1139,-297 1139,-316"/>
<text text-anchor="middle" x="1080.5" y="-304" font-family="Helvetica,sans-Serif" font-size="10.00">Cpl/Itc/AtomicSync.h</text>
</a>
</g>
</g>
<!-- Node12&#45;&gt;Node13 -->
<g id="edge13_Node000012_Node000013" class="edge">
<title>Node12&#45;&gt;Node13</title>
<g id="a_edge13_Node000012_Node000013"><a xlink:title=" ">
<path fill="none" stroke="#63b8ff" d="M1080.5,-347.16C1080.5,-336.74 1080.5,-324.3 1080.5,-316.17"/>
<polygon fill="#63b8ff" stroke="#63b8ff" points="1077,-347.37 1080.5,-357.37 1084,-347.37 1077,-347.37"/>
</a>
</g>
</g>
<!-- Node15 -->
<g id="Node000015" class="node">
<title>Node15</title>
<g id="a_Node000015"><a xlink:href="_close_sync_8h.html" target="_top" xlink:title=" ">
<polygon fill="white" stroke="#666666" points="1340.5,-261 1230.5,-261 1230.5,-242 1340.5,-242 1340.5,-261"/>
<text text-anchor="middle" x="1285.5" y="-249" font-family="Helvetica,sans-Serif" font-size="10.00">Cpl/Itc/CloseSync.h</text>
</a>
</g>
</g>
<!-- Node14&#45;&gt;Node15 -->
<g id="edge15_Node000014_Node000015" class="edge">
<title>Node14&#45;&gt;Node15</title>
<g id="a_edge15_Node000014_Node000015"><a xlink:title=" ">
<path fill="none" stroke="#63b8ff" d="M1359.83,-349.46C1341.06,-324.98 1306.55,-279.96 1292.12,-261.13"/>
<polygon fill="#63b8ff" stroke="#63b8ff" points="1357.1,-351.66 1365.96,-357.47 1362.66,-347.4 1357.1,-351.66"/>
</a>
</g>
</g>
<!-- Node15&#45;&gt;Node5 -->
<g id="edge21_Node000015_Node000005" class="edge">
<title>Node15&#45;&gt;Node5</title>
<g id="a_edge21_Node000015_Node000005"><a xlink:title=" ">
<path fill="none" stroke="#63b8ff" d="M1220.32,-251.15C1045.44,-252.28 575.57,-251.06 523.5,-206 471.69,-161.17 538.91,-105.4 492.5,-55 467.26,-27.59 426.16,-16.73 393.05,-12.58"/>
<polygon fill="#63b8ff" stroke="#63b8ff" points="1220.44,-254.65 1230.41,-251.08 1220.39,-247.65 1220.44,-254.65"/>
</a>
</g>
</g>
<!-- Node16 -->
<g id="Node000016" class="node">
<title>Node16</title>
<g id="a_Node000016"><a xlink:href="_summary_8h.html" target="_top" xlink:title=" ">
<polygon fill="white" stroke="#666666" points="1421.5,-200.5 1293.5,-200.5 1293.5,-181.5 1421.5,-181.5 1421.5,-200.5"/>
<text text-anchor="middle" x="1357.5" y="-188.5" font-family="Helvetica,sans-Serif" font-size="10.00">Ajax/Alerts/Summary.h</text>
</a>
</g>
</g>
<!-- Node15&#45;&gt;Node16 -->
<g id="edge16_Node000015_Node000016" class="edge">
<title>Node15&#45;&gt;Node16</title>
<g id="a_edge16_Node000015_Node000016"><a xlink:title=" ">
<path fill="none" stroke="#63b8ff" d="M1303.92,-235.54C1317.51,-224.49 1335.54,-209.84 1346.83,-200.67"/>
<polygon fill="#63b8ff" stroke="#63b8ff" points="1301.68,-232.85 1296.12,-241.87 1306.09,-238.28 1301.68,-232.85"/>
</a>
</g>
</g>
<!-- Node17 -->
<g id="Node000017" class="node">
<title>Node17</title>
<g id="a_Node000017"><a xlink:href="_ajax_2_heating_2_io_2_api_8h.html" target="_top" xlink:title=" ">
<polygon fill="white" stroke="#666666" points="1732,-134.5 1613,-134.5 1613,-115.5 1732,-115.5 1732,-134.5"/>
<text text-anchor="middle" x="1672.5" y="-122.5" font-family="Helvetica,sans-Serif" font-size="10.00">Ajax/Heating/Io/Api.h</text>
</a>
</g>
</g>
<!-- Node15&#45;&gt;Node17 -->
<g id="edge17_Node000015_Node000017" class="edge">
<title>Node15&#45;&gt;Node17</title>
<g id="a_edge17_Node000015_Node000017"><a xlink:title=" ">
<path fill="none" stroke="#63b8ff" d="M1350.52,-246.88C1430.82,-241.47 1562.03,-229.34 1604.5,-206 1635.65,-188.88 1658.8,-151.43 1668.06,-134.55"/>
<polygon fill="#63b8ff" stroke="#63b8ff" points="1350.25,-243.39 1340.5,-247.53 1350.71,-250.37 1350.25,-243.39"/>
</a>
</g>
</g>
<!-- Node18 -->
<g id="Node000018" class="node">
<title>Node18</title>
<g id="a_Node000018"><a xlink:href="_ajax_2_heating_2_supervisor_2_api_8h.html" target="_top" xlink:title=" ">
<polygon fill="white" stroke="#666666" points="1785.5,-206 1651.5,-206 1651.5,-176 1785.5,-176 1785.5,-206"/>
<text text-anchor="start" x="1659.5" y="-194" font-family="Helvetica,sans-Serif" font-size="10.00">Ajax/Heating/Supervisor</text>
<text text-anchor="middle" x="1718.5" y="-183" font-family="Helvetica,sans-Serif" font-size="10.00">/Api.h</text>
</a>
</g>
</g>
<!-- Node15&#45;&gt;Node18 -->
<g id="edge18_Node000015_Node000018" class="edge">
<title>Node15&#45;&gt;Node18</title>
<g id="a_edge18_Node000015_Node000018"><a xlink:title=" ">
<path fill="none" stroke="#63b8ff" d="M1350.89,-243.13C1421.66,-234.95 1537.77,-220.91 1637.5,-206 1642.02,-205.32 1646.67,-204.6 1651.35,-203.85"/>
<polygon fill="#63b8ff" stroke="#63b8ff" points="1350.32,-239.68 1340.78,-244.3 1351.12,-246.63 1350.32,-239.68"/>
</a>
</g>
</g>
<!-- Node20 -->
<g id="Node000020" class="node">
<title>Node20</title>
<g id="a_Node000020"><a xlink:href="_ajax_2_screen_mgr_2_api_8h.html" target="_top" xlink:title=" ">
<polygon fill="white" stroke="#666666" points="1275,-200.5 1154,-200.5 1154,-181.5 1275,-181.5 1275,-200.5"/>
<text text-anchor="middle" x="1214.5" y="-188.5" font-family="Helvetica,sans-Serif" font-size="10.00">Ajax/ScreenMgr/Api.h</text>
</a>
</g>
</g>
<!-- Node15&#45;&gt;Node20 -->
<g id="edge22_Node000015_Node000020" class="edge">
<title>Node15&#45;&gt;Node20</title>
<g id="a_edge22_Node000015_Node000020"><a xlink:title=" ">
<path fill="none" stroke="#63b8ff" d="M1266.96,-235.22C1253.6,-224.21 1236.05,-209.75 1225.02,-200.67"/>
<polygon fill="#63b8ff" stroke="#63b8ff" points="1265.08,-238.21 1275.02,-241.87 1269.53,-232.81 1265.08,-238.21"/>
</a>
</g>
</g>
<!-- Node25 -->
<g id="Node000025" class="node">
<title>Node25</title>
<g id="a_Node000025"><a xlink:href="_logical_buttons_8h.html" target="_top" xlink:title=" ">
<polygon fill="white" stroke="#666666" points="668.5,-200.5 532.5,-200.5 532.5,-181.5 668.5,-181.5 668.5,-200.5"/>
<text text-anchor="middle" x="600.5" y="-188.5" font-family="Helvetica,sans-Serif" font-size="10.00">Ajax/Ui/LogicalButtons.h</text>
</a>
</g>
</g>
<!-- Node15&#45;&gt;Node25 -->
<g id="edge29_Node000015_Node000025" class="edge">
<title>Node15&#45;&gt;Node25</title>
<g id="a_edge29_Node000015_Node000025"><a xlink:title=" ">
<path fill="none" stroke="#63b8ff" d="M1220.31,-248.01C1108.76,-243.25 874.26,-231.01 677.5,-206 666.18,-204.56 654,-202.56 642.74,-200.52"/>
<polygon fill="#63b8ff" stroke="#63b8ff" points="1220.25,-251.52 1230.39,-248.44 1220.55,-244.52 1220.25,-251.52"/>
</a>
</g>
</g>
<!-- Node26 -->
<g id="Node000026" class="node">
<title>Node26</title>
<g id="a_Node000026"><a xlink:href="_ajax_2_ui_2_status_indicator_2_api_8h.html" target="_top" xlink:title=" ">
<polygon fill="white" stroke="#666666" points="814.5,-206 686.5,-206 686.5,-176 814.5,-176 814.5,-206"/>
<text text-anchor="start" x="694.5" y="-194" font-family="Helvetica,sans-Serif" font-size="10.00">Ajax/Ui/StatusIndicator</text>
<text text-anchor="middle" x="750.5" y="-183" font-family="Helvetica,sans-Serif" font-size="10.00">/Api.h</text>
</a>
</g>
</g>
<!-- Node15&#45;&gt;Node26 -->
<g id="edge30_Node000015_Node000026" class="edge">
<title>Node15&#45;&gt;Node26</title>
<g id="a_edge30_Node000015_Node000026"><a xlink:title=" ">
<path fill="none" stroke="#63b8ff" d="M1220.16,-246.14C1130.45,-239.71 964.24,-226.23 823.5,-206 820.56,-205.58 817.56,-205.12 814.54,-204.63"/>
<polygon fill="#63b8ff" stroke="#63b8ff" points="1219.96,-249.63 1230.19,-246.85 1220.46,-242.65 1219.96,-249.63"/>
</a>
</g>
</g>
<!-- Node27 -->
<g id="Node000027" class="node">
<title>Node27</title>
<g id="a_Node000027"><a xlink:href="_log_sink_8h.html" target="_top" xlink:title=" ">
<polygon fill="white" stroke="#666666" points="956.5,-200.5 832.5,-200.5 832.5,-181.5 956.5,-181.5 956.5,-200.5"/>
<text text-anchor="middle" x="894.5" y="-188.5" font-family="Helvetica,sans-Serif" font-size="10.00">Cpl/Logging/LogSink.h</text>
</a>
</g>
</g>
<!-- Node15&#45;&gt;Node27 -->
<g id="edge31_Node000015_Node000027" class="edge">
<title>Node15&#45;&gt;Node27</title>
<g id="a_edge31_Node000015_Node000027"><a xlink:title=" ">
<path fill="none" stroke="#63b8ff" d="M1220.29,-242.44C1155.7,-234.21 1054.06,-220.61 966.5,-206 956.7,-204.37 946.19,-202.43 936.31,-200.52"/>
<polygon fill="#63b8ff" stroke="#63b8ff" points="1219.96,-245.93 1230.33,-243.71 1220.85,-238.98 1219.96,-245.93"/>
</a>
</g>
</g>
<!-- Node28 -->
<g id="Node000028" class="node">
<title>Node28</title>
<g id="a_Node000028"><a xlink:href="_manager_8h.html" target="_top" xlink:title=" ">
<polygon fill="white" stroke="#666666" points="1921,-200.5 1804,-200.5 1804,-181.5 1921,-181.5 1921,-200.5"/>
<text text-anchor="middle" x="1862.5" y="-188.5" font-family="Helvetica,sans-Serif" font-size="10.00">Cpl/MApp/Manager.h</text>
</a>
</g>
</g>
<!-- Node15&#45;&gt;Node28 -->
<g id="edge32_Node000015_Node000028" class="edge">
<title>Node15&#45;&gt;Node28</title>
<g id="a_edge32_Node000015_Node000028"><a xlink:title=" ">
<path fill="none" stroke="#63b8ff" d="M1350.98,-247.21C1448.16,-241.77 1636.14,-229.15 1794.5,-206 1804.4,-204.55 1815.03,-202.57 1824.87,-200.56"/>
<polygon fill="#63b8ff" stroke="#63b8ff" points="1350.52,-243.73 1340.73,-247.77 1350.9,-250.72 1350.52,-243.73"/>
</a>
</g>
</g>
<!-- Node29 -->
<g id="Node000029" class="node">
<title>Node29</title>
<g id="a_Node000029"><a xlink:href="_indexed_entry_server_8h.html" target="_top" xlink:title=" ">
<polygon fill="white" stroke="#666666" points="2090,-206 1939,-206 1939,-176 2090,-176 2090,-206"/>
<text text-anchor="start" x="1947" y="-194" font-family="Helvetica,sans-Serif" font-size="10.00">Cpl/Persistent/IndexedEntry</text>
<text text-anchor="middle" x="2014.5" y="-183" font-family="Helvetica,sans-Serif" font-size="10.00">Server.h</text>
</a>
</g>
</g>
<!-- Node15&#45;&gt;Node29 -->
<g id="edge33_Node000015_Node000029" class="edge">
<title>Node15&#45;&gt;Node29</title>
<g id="a_edge33_Node000015_Node000029"><a xlink:title=" ">
<path fill="none" stroke="#63b8ff" d="M1351.09,-248.06C1467.89,-243.26 1719.49,-230.81 1930.5,-206 1933.29,-205.67 1936.13,-205.32 1938.99,-204.94"/>
<polygon fill="#63b8ff" stroke="#63b8ff" points="1350.74,-244.57 1340.89,-248.48 1351.02,-251.57 1350.74,-244.57"/>
</a>
</g>
</g>
<!-- Node31 -->
<g id="Node000031" class="node">
<title>Node31</title>
<g id="a_Node000031"><a xlink:href="_record_server_8h.html" target="_top" xlink:title=" ">
<polygon fill="white" stroke="#666666" points="1136,-200.5 975,-200.5 975,-181.5 1136,-181.5 1136,-200.5"/>
<text text-anchor="middle" x="1055.5" y="-188.5" font-family="Helvetica,sans-Serif" font-size="10.00">Cpl/Persistent/RecordServer.h</text>
</a>
</g>
</g>
<!-- Node15&#45;&gt;Node31 -->
<g id="edge35_Node000015_Node000031" class="edge">
<title>Node15&#45;&gt;Node31</title>
<g id="a_edge35_Node000015_Node000031"><a xlink:title=" ">
<path fill="none" stroke="#63b8ff" d="M1242.12,-239.47C1197.66,-228.16 1129.46,-210.81 1088.98,-200.52"/>
<polygon fill="#63b8ff" stroke="#63b8ff" points="1241.5,-242.92 1252.06,-241.99 1243.23,-236.14 1241.5,-242.92"/>
</a>
</g>
</g>
<!-- Node32 -->
<g id="Node000032" class="node">
<title>Node32</title>
<g id="a_Node000032"><a xlink:href="_ajax_2_thermistor_8h.html" target="_top" xlink:title=" ">
<polygon fill="white" stroke="#666666" points="1595.5,-200.5 1439.5,-200.5 1439.5,-181.5 1595.5,-181.5 1595.5,-200.5"/>
<text text-anchor="middle" x="1517.5" y="-188.5" font-family="Helvetica,sans-Serif" font-size="10.00">Driver/AIO/Ajax/Thermistor.h</text>
</a>
</g>
</g>
<!-- Node15&#45;&gt;Node32 -->
<g id="edge38_Node000015_Node000032" class="edge">
<title>Node15&#45;&gt;Node32</title>
<g id="a_edge38_Node000015_Node000032"><a xlink:title=" ">
<path fill="none" stroke="#63b8ff" d="M1328.97,-239.54C1373.82,-228.23 1442.81,-210.83 1483.72,-200.52"/>
<polygon fill="#63b8ff" stroke="#63b8ff" points="1328.08,-236.15 1319.23,-241.99 1329.79,-242.94 1328.08,-236.15"/>
</a>
</g>
</g>
<!-- Node18&#45;&gt;Node17 -->
<g id="edge19_Node000018_Node000017" class="edge">
<title>Node18&#45;&gt;Node17</title>
<g id="a_edge19_Node000018_Node000017"><a xlink:title=" ">
<path fill="none" stroke="#63b8ff" d="M1702.41,-167.61C1694.3,-156.32 1684.92,-143.28 1678.86,-134.84"/>
<polygon fill="#63b8ff" stroke="#63b8ff" points="1699.61,-169.72 1708.29,-175.8 1705.3,-165.63 1699.61,-169.72"/>
</a>
</g>
</g>
<!-- Node19 -->
<g id="Node000019" class="node">
<title>Node19</title>
<g id="a_Node000019"><a xlink:href="_heating_2_simulated_2_house_8h_source.html" target="_top" xlink:title=" ">
<polygon fill="white" stroke="#666666" points="1882.5,-140 1750.5,-140 1750.5,-110 1882.5,-110 1882.5,-140"/>
<text text-anchor="start" x="1758.5" y="-128" font-family="Helvetica,sans-Serif" font-size="10.00">Ajax/Heating/Simulated</text>
<text text-anchor="middle" x="1816.5" y="-117" font-family="Helvetica,sans-Serif" font-size="10.00">/House.h</text>
</a>
</g>
</g>
<!-- Node18&#45;&gt;Node19 -->
<g id="edge20_Node000018_Node000019" class="edge">
<title>Node18&#45;&gt;Node19</title>
<g id="a_edge20_Node000018_Node000019"><a xlink:title=" ">
<path fill="none" stroke="#63b8ff" d="M1748.66,-170.3C1763.58,-160.56 1781.25,-149.02 1794.81,-140.16"/>
<polygon fill="#63b8ff" stroke="#63b8ff" points="1746.71,-167.4 1740.25,-175.8 1750.54,-173.26 1746.71,-167.4"/>
</a>
</g>
</g>
<!-- Node21 -->
<g id="Node000021" class="node">
<title>Node21</title>
<g id="a_Node000021"><a xlink:href="_ajax_2_ui_2_about_2_screen_8h.html" target="_top" xlink:title=" ">
<polygon fill="white" stroke="#666666" points="1259.5,-134.5 1131.5,-134.5 1131.5,-115.5 1259.5,-115.5 1259.5,-134.5"/>
<text text-anchor="middle" x="1195.5" y="-122.5" font-family="Helvetica,sans-Serif" font-size="10.00">Ajax/Ui/About/Screen.h</text>
</a>
</g>
</g>
<!-- Node20&#45;&gt;Node21 -->
<g id="edge23_Node000020_Node000021" class="edge">
<title>Node20&#45;&gt;Node21</title>
<g id="a_edge23_Node000020_Node000021"><a xlink:title=" ">
<path fill="none" stroke="#63b8ff" d="M1208.99,-171.45C1205.43,-159.43 1200.94,-144.32 1198.14,-134.91"/>
<polygon fill="#63b8ff" stroke="#63b8ff" points="1205.74,-172.78 1211.94,-181.37 1212.45,-170.79 1205.74,-172.78"/>
</a>
</g>
</g>
<!-- Node23 -->
<g id="Node000023" class="node">
<title>Node23</title>
<g id="a_Node000023"><a xlink:href="_ajax_2_ui_2_edit_setpt_2_screen_8h.html" target="_top" xlink:title=" ">
<polygon fill="white" stroke="#666666" points="1421.5,-134.5 1277.5,-134.5 1277.5,-115.5 1421.5,-115.5 1421.5,-134.5"/>
<text text-anchor="middle" x="1349.5" y="-122.5" font-family="Helvetica,sans-Serif" font-size="10.00">Ajax/Ui/EditSetpt/Screen.h</text>
</a>
</g>
</g>
<!-- Node20&#45;&gt;Node23 -->
<g id="edge25_Node000020_Node000023" class="edge">
<title>Node20&#45;&gt;Node23</title>
<g id="a_edge25_Node000020_Node000023"><a xlink:title=" ">
<path fill="none" stroke="#63b8ff" d="M1241.86,-177.03C1268.47,-164.42 1308.13,-145.61 1331.15,-134.7"/>
<polygon fill="#63b8ff" stroke="#63b8ff" points="1240.24,-173.92 1232.71,-181.37 1243.24,-180.25 1240.24,-173.92"/>
</a>
</g>
</g>
<!-- Node24 -->
<g id="Node000024" class="node">
<title>Node24</title>
<g id="a_Node000024"><a xlink:href="_ajax_2_ui_2_home_2_screen_8h.html" target="_top" xlink:title=" ">
<polygon fill="white" stroke="#666666" points="1113,-134.5 984,-134.5 984,-115.5 1113,-115.5 1113,-134.5"/>
<text text-anchor="middle" x="1048.5" y="-122.5" font-family="Helvetica,sans-Serif" font-size="10.00">Ajax/Ui/Home/Screen.h</text>
</a>
</g>
</g>
<!-- Node20&#45;&gt;Node24 -->
<g id="edge27_Node000020_Node000024" class="edge">
<title>Node20&#45;&gt;Node24</title>
<g id="a_edge27_Node000020_Node000024"><a xlink:title=" ">
<path fill="none" stroke="#63b8ff" d="M1182.53,-177.68C1149.73,-165.03 1099.54,-145.68 1070.8,-134.6"/>
<polygon fill="#63b8ff" stroke="#63b8ff" points="1181.52,-181.04 1192.11,-181.37 1184.04,-174.51 1181.52,-181.04"/>
</a>
</g>
</g>
<!-- Node22 -->
<g id="Node000022" class="node">
<title>Node22</title>
<g id="a_Node000022"><a xlink:href="_ajax_2_main_2screens_8h.html" target="_top" xlink:title="This file exposes handles to Screen instances for the Ajax Application.">
<polygon fill="white" stroke="#666666" points="1253,-74 1138,-74 1138,-55 1253,-55 1253,-74"/>
<text text-anchor="middle" x="1195.5" y="-62" font-family="Helvetica,sans-Serif" font-size="10.00">Ajax/Main/screens.h</text>
</a>
</g>
</g>
<!-- Node21&#45;&gt;Node22 -->
<g id="edge24_Node000021_Node000022" class="edge">
<title>Node21&#45;&gt;Node22</title>
<g id="a_edge24_Node000021_Node000022"><a xlink:title=" ">
<path fill="none" stroke="#63b8ff" d="M1195.5,-105.16C1195.5,-94.74 1195.5,-82.3 1195.5,-74.17"/>
<polygon fill="#63b8ff" stroke="#63b8ff" points="1192,-105.37 1195.5,-115.37 1199,-105.37 1192,-105.37"/>
</a>
</g>
</g>
<!-- Node23&#45;&gt;Node22 -->
<g id="edge26_Node000023_Node000022" class="edge">
<title>Node23&#45;&gt;Node22</title>
<g id="a_edge26_Node000023_Node000022"><a xlink:title=" ">
<path fill="none" stroke="#63b8ff" d="M1317.59,-111.88C1287.82,-100.57 1244.16,-83.99 1217.92,-74.02"/>
<polygon fill="#63b8ff" stroke="#63b8ff" points="1316.52,-115.21 1327.11,-115.49 1319,-108.67 1316.52,-115.21"/>
</a>
</g>
</g>
<!-- Node24&#45;&gt;Node22 -->
<g id="edge28_Node000024_Node000022" class="edge">
<title>Node24&#45;&gt;Node22</title>
<g id="a_edge28_Node000024_Node000022"><a xlink:title=" ">
<path fill="none" stroke="#63b8ff" d="M1079.33,-111.73C1107.74,-100.42 1149.16,-83.94 1174.1,-74.02"/>
<polygon fill="#63b8ff" stroke="#63b8ff" points="1077.87,-108.54 1069.88,-115.49 1080.46,-115.05 1077.87,-108.54"/>
</a>
</g>
</g>
<!-- Node30 -->
<g id="Node000030" class="node">
<title>Node30</title>
<g id="a_Node000030"><a xlink:href="_log_8h.html" target="_top" xlink:title=" ">
<polygon fill="white" stroke="#666666" points="2068,-140 1961,-140 1961,-110 2068,-110 2068,-140"/>
<text text-anchor="start" x="1969" y="-128" font-family="Helvetica,sans-Serif" font-size="10.00">Cpl/Logging/TShell</text>
<text text-anchor="middle" x="2014.5" y="-117" font-family="Helvetica,sans-Serif" font-size="10.00">/Log.h</text>
</a>
</g>
</g>
<!-- Node29&#45;&gt;Node30 -->
<g id="edge34_Node000029_Node000030" class="edge">
<title>Node29&#45;&gt;Node30</title>
<g id="a_edge34_Node000029_Node000030"><a xlink:title=" ">
<path fill="none" stroke="#63b8ff" d="M2014.5,-165.54C2014.5,-156.96 2014.5,-147.61 2014.5,-140.16"/>
<polygon fill="#63b8ff" stroke="#63b8ff" points="2011,-165.8 2014.5,-175.8 2018,-165.8 2011,-165.8"/>
</a>
</g>
</g>
<!-- Node31&#45;&gt;Node3 -->
<g id="edge37_Node000031_Node000003" class="edge">
<title>Node31&#45;&gt;Node3</title>
<g id="a_edge37_Node000031_Node000003"><a xlink:title=" ">
<path fill="none" stroke="#63b8ff" d="M994.63,-179.98C984.9,-178.53 974.94,-177.15 965.5,-176 791.39,-154.75 585.93,-138.8 477.79,-131.11"/>
<polygon fill="#63b8ff" stroke="#63b8ff" points="994.24,-183.46 1004.65,-181.49 995.29,-176.54 994.24,-183.46"/>
</a>
</g>
</g>
<!-- Node31&#45;&gt;Node7 -->
<g id="edge36_Node000031_Node000007" class="edge">
<title>Node31&#45;&gt;Node7</title>
<g id="a_edge36_Node000031_Node000007"><a xlink:title=" ">
<path fill="none" stroke="#63b8ff" d="M1022.91,-177.91C931.36,-143.96 673.46,-48.31 594.66,-19.09"/>
<polygon fill="#63b8ff" stroke="#63b8ff" points="1021.89,-181.27 1032.48,-181.46 1024.32,-174.7 1021.89,-181.27"/>
</a>
</g>
</g>
<!-- Node33 -->
<g id="Node000033" class="node">
<title>Node33</title>
<g id="a_Node000033"><a xlink:href="_eros_2_thermistor_8h.html" target="_top" xlink:title=" ">
<polygon fill="white" stroke="#666666" points="1595,-134.5 1440,-134.5 1440,-115.5 1595,-115.5 1595,-134.5"/>
<text text-anchor="middle" x="1517.5" y="-122.5" font-family="Helvetica,sans-Serif" font-size="10.00">Driver/AIO/Eros/Thermistor.h</text>
</a>
</g>
</g>
<!-- Node32&#45;&gt;Node33 -->
<g id="edge39_Node000032_Node000033" class="edge">
<title>Node32&#45;&gt;Node33</title>
<g id="a_edge39_Node000032_Node000033"><a xlink:title=" ">
<path fill="none" stroke="#63b8ff" d="M1517.5,-171.08C1517.5,-159.13 1517.5,-144.22 1517.5,-134.91"/>
<polygon fill="#63b8ff" stroke="#63b8ff" points="1514,-171.37 1517.5,-181.37 1521,-171.37 1514,-171.37"/>
</a>
</g>
</g>
<!-- Node35 -->
<g id="Node000035" class="node">
<title>Node35</title>
<g id="a_Node000035"><a xlink:href="_open_sync_8h.html" target="_top" xlink:title=" ">
<polygon fill="white" stroke="#666666" points="1297.5,-316 1189.5,-316 1189.5,-297 1297.5,-297 1297.5,-316"/>
<text text-anchor="middle" x="1243.5" y="-304" font-family="Helvetica,sans-Serif" font-size="10.00">Cpl/Itc/OpenSync.h</text>
</a>
</g>
</g>
<!-- Node34&#45;&gt;Node35 -->
<g id="edge41_Node000034_Node000035" class="edge">
<title>Node34&#45;&gt;Node35</title>
<g id="a_edge41_Node000034_Node000035"><a xlink:title=" ">
<path fill="none" stroke="#63b8ff" d="M1233.25,-347.49C1235.93,-337.01 1239.17,-324.39 1241.28,-316.17"/>
<polygon fill="#63b8ff" stroke="#63b8ff" points="1229.81,-346.81 1230.71,-357.37 1236.59,-348.55 1229.81,-346.81"/>
</a>
</g>
</g>
<!-- Node35&#45;&gt;Node15 -->
<g id="edge42_Node000035_Node000015" class="edge">
<title>Node35&#45;&gt;Node15</title>
<g id="a_edge42_Node000035_Node000015"><a xlink:title=" ">
<path fill="none" stroke="#63b8ff" d="M1256.83,-288.67C1264.11,-279.5 1272.8,-268.52 1278.69,-261.09"/>
<polygon fill="#63b8ff" stroke="#63b8ff" points="1253.9,-286.74 1250.44,-296.75 1259.39,-291.08 1253.9,-286.74"/>
</a>
</g>
</g>
<!-- Node36&#45;&gt;Node2 -->
<g id="edge44_Node000036_Node000002" class="edge">
<title>Node36&#45;&gt;Node2</title>
<g id="a_edge44_Node000036_Node000002"><a xlink:title=" ">
<path fill="none" stroke="#63b8ff" d="M1121.3,-481.32C1030.7,-456.75 815.79,-398.46 734.97,-376.53"/>
<polygon fill="#63b8ff" stroke="#63b8ff" points="1120.38,-484.7 1130.95,-483.94 1122.22,-477.95 1120.38,-484.7"/>
</a>
</g>
</g>
<!-- Node36&#45;&gt;Node9 -->
<g id="edge45_Node000036_Node000009" class="edge">
<title>Node36&#45;&gt;Node9</title>
<g id="a_edge45_Node000036_Node000009"><a xlink:title=" ">
<path fill="none" stroke="#63b8ff" d="M1134.58,-479.78C1115.37,-470.97 1089.32,-458.92 1066.5,-448 1013.31,-422.54 950.87,-391.33 921.46,-376.55"/>
<polygon fill="#63b8ff" stroke="#63b8ff" points="1133.12,-482.96 1143.67,-483.94 1136.04,-476.6 1133.12,-482.96"/>
</a>
</g>
</g>
<!-- Node36&#45;&gt;Node10 -->
<g id="edge46_Node000036_Node000010" class="edge">
<title>Node36&#45;&gt;Node10</title>
<g id="a_edge46_Node000036_Node000010"><a xlink:title=" ">
<path fill="none" stroke="#63b8ff" d="M1094.84,-482.5C1024.53,-472.12 914.77,-455.9 841.76,-445.12"/>
<polygon fill="#63b8ff" stroke="#63b8ff" points="1094.51,-485.99 1104.92,-483.99 1095.54,-479.07 1094.51,-485.99"/>
</a>
</g>
</g>
<!-- Node36&#45;&gt;Node12 -->
<g id="edge47_Node000036_Node000012" class="edge">
<title>Node36&#45;&gt;Node12</title>
<g id="a_edge47_Node000036_Node000012"><a xlink:title=" ">
<path fill="none" stroke="#63b8ff" d="M1119.44,-480.17C1103.72,-473.35 1087.59,-463.11 1078.5,-448 1064.89,-425.38 1072.58,-392.27 1077.46,-376.7"/>
<polygon fill="#63b8ff" stroke="#63b8ff" points="1118.51,-483.56 1129.1,-483.98 1121.08,-477.05 1118.51,-483.56"/>
</a>
</g>
</g>
<!-- Node36&#45;&gt;Node14 -->
<g id="edge48_Node000036_Node000014" class="edge">
<title>Node36&#45;&gt;Node14</title>
<g id="a_edge48_Node000036_Node000014"><a xlink:title=" ">
<path fill="none" stroke="#63b8ff" d="M1194.71,-480.19C1214.74,-472.04 1240.72,-460.58 1262.5,-448 1301.35,-425.56 1343.13,-392.36 1362.08,-376.74"/>
<polygon fill="#63b8ff" stroke="#63b8ff" points="1193.39,-476.94 1185.41,-483.91 1195.99,-483.44 1193.39,-476.94"/>
</a>
</g>
</g>
<!-- Node36&#45;&gt;Node34 -->
<g id="edge49_Node000036_Node000034" class="edge">
<title>Node36&#45;&gt;Node34</title>
<g id="a_edge49_Node000036_Node000034"><a xlink:title=" ">
<path fill="none" stroke="#63b8ff" d="M1205.56,-480.17C1221.28,-473.35 1237.41,-463.11 1246.5,-448 1260.45,-424.83 1243.78,-391.98 1234.25,-376.59"/>
<polygon fill="#63b8ff" stroke="#63b8ff" points="1203.92,-477.05 1195.9,-483.98 1206.49,-483.56 1203.92,-477.05"/>
</a>
</g>
</g>
<!-- Node37 -->
<g id="Node000037" class="node">
<title>Node37</title>
<g id="a_Node000037"><a xlink:href="_response_message_8h.html" target="_top" xlink:title=" ">
<polygon fill="white" stroke="#666666" points="1237.5,-442.5 1087.5,-442.5 1087.5,-423.5 1237.5,-423.5 1237.5,-442.5"/>
<text text-anchor="middle" x="1162.5" y="-430.5" font-family="Helvetica,sans-Serif" font-size="10.00">Cpl/Itc/ResponseMessage.h</text>
</a>
</g>
</g>
<!-- Node36&#45;&gt;Node37 -->
<g id="edge50_Node000036_Node000037" class="edge">
<title>Node36&#45;&gt;Node37</title>
<g id="a_edge50_Node000036_Node000037"><a xlink:title=" ">
<path fill="none" stroke="#63b8ff" d="M1162.5,-473.66C1162.5,-463.24 1162.5,-450.8 1162.5,-442.67"/>
<polygon fill="#63b8ff" stroke="#63b8ff" points="1159,-473.87 1162.5,-483.87 1166,-473.87 1159,-473.87"/>
</a>
</g>
</g>
<!-- Node36&#45;&gt;Node38 -->
<g id="edge60_Node000036_Node000038" class="edge">
<title>Node36&#45;&gt;Node38</title>
<g id="a_edge60_Node000036_Node000038"><a xlink:title=" ">
<path fill="none" stroke="#63b8ff" d="M1199.36,-480.75C1226.57,-471.98 1264.45,-459.56 1297.5,-448 1368.65,-423.11 1452.13,-391.5 1491.21,-376.56"/>
<polygon fill="#63b8ff" stroke="#63b8ff" points="1197.94,-477.53 1189.49,-483.92 1200.08,-484.19 1197.94,-477.53"/>
</a>
</g>
</g>
<!-- Node36&#45;&gt;Node39 -->
<g id="edge61_Node000036_Node000039" class="edge">
<title>Node36&#45;&gt;Node39</title>
<g id="a_edge61_Node000036_Node000039"><a xlink:title=" ">
<path fill="none" stroke="#63b8ff" d="M1209.29,-481.54C1247.14,-472.63 1301.8,-459.68 1349.5,-448 1441.98,-425.36 1549.36,-398.16 1612.69,-382.02"/>
<polygon fill="#63b8ff" stroke="#63b8ff" points="1208.02,-478.25 1199.08,-483.94 1209.62,-485.06 1208.02,-478.25"/>
</a>
</g>
</g>
<!-- Node37&#45;&gt;Node2 -->
<g id="edge51_Node000037_Node000002" class="edge">
<title>Node37&#45;&gt;Node2</title>
<g id="a_edge51_Node000037_Node000002"><a xlink:title=" ">
<path fill="none" stroke="#63b8ff" d="M1090.99,-422.03C1001.3,-409.52 849.05,-388.29 764.56,-376.51"/>
<polygon fill="#63b8ff" stroke="#63b8ff" points="1090.69,-425.52 1101.07,-423.44 1091.65,-418.59 1090.69,-425.52"/>
</a>
</g>
</g>
<!-- Node37&#45;&gt;Node9 -->
<g id="edge52_Node000037_Node000009" class="edge">
<title>Node37&#45;&gt;Node9</title>
<g id="a_edge52_Node000037_Node000009"><a xlink:title=" ">
<path fill="none" stroke="#63b8ff" d="M1118.24,-421.02C1067.4,-408.41 985.06,-387.98 938.82,-376.51"/>
<polygon fill="#63b8ff" stroke="#63b8ff" points="1117.42,-424.42 1127.97,-423.44 1119.11,-417.63 1117.42,-424.42"/>
</a>
</g>
</g>
<!-- Node37&#45;&gt;Node12 -->
<g id="edge53_Node000037_Node000012" class="edge">
<title>Node37&#45;&gt;Node12</title>
<g id="a_edge53_Node000037_Node000012"><a xlink:title=" ">
<path fill="none" stroke="#63b8ff" d="M1143.27,-416.99C1127.21,-404.46 1104.89,-387.04 1091.65,-376.7"/>
<polygon fill="#63b8ff" stroke="#63b8ff" points="1141.4,-419.98 1151.44,-423.37 1145.71,-414.46 1141.4,-419.98"/>
</a>
</g>
</g>
<!-- Node37&#45;&gt;Node14 -->
<g id="edge54_Node000037_Node000014" class="edge">
<title>Node37&#45;&gt;Node14</title>
<g id="a_edge54_Node000037_Node000014"><a xlink:title=" ">
<path fill="none" stroke="#63b8ff" d="M1200.55,-420.4C1241.97,-407.78 1307.22,-387.89 1344.29,-376.6"/>
<polygon fill="#63b8ff" stroke="#63b8ff" points="1199.37,-417.11 1190.82,-423.37 1201.41,-423.8 1199.37,-417.11"/>
</a>
</g>
</g>
<!-- Node37&#45;&gt;Node34 -->
<g id="edge55_Node000037_Node000034" class="edge">
<title>Node37&#45;&gt;Node34</title>
<g id="a_edge55_Node000037_Node000034"><a xlink:title=" ">
<path fill="none" stroke="#63b8ff" d="M1178.66,-416.33C1191.44,-403.94 1208.82,-387.09 1219.32,-376.91"/>
<polygon fill="#63b8ff" stroke="#63b8ff" points="1176.14,-413.89 1171.4,-423.37 1181.02,-418.92 1176.14,-413.89"/>
</a>
</g>
</g>
<!-- Node37&#45;&gt;Node38 -->
<g id="edge56_Node000037_Node000038" class="edge">
<title>Node37&#45;&gt;Node38</title>
<g id="a_edge56_Node000037_Node000038"><a xlink:title=" ">
<path fill="none" stroke="#63b8ff" d="M1222.69,-421.77C1279.84,-411.95 1368.12,-396.52 1444.5,-382 1453.51,-380.29 1463.16,-378.38 1472.3,-376.53"/>
<polygon fill="#63b8ff" stroke="#63b8ff" points="1222.01,-418.34 1212.74,-423.48 1223.19,-425.24 1222.01,-418.34"/>
</a>
</g>
</g>
<!-- Node37&#45;&gt;Node39 -->
<g id="edge58_Node000037_Node000039" class="edge">
<title>Node37&#45;&gt;Node39</title>
<g id="a_edge58_Node000037_Node000039"><a xlink:title=" ">
<path fill="none" stroke="#63b8ff" d="M1247.86,-422.97C1332.82,-413.72 1466.87,-398.4 1582.5,-382 1585.61,-381.56 1588.78,-381.1 1591.98,-380.62"/>
<polygon fill="#63b8ff" stroke="#63b8ff" points="1247.31,-419.51 1237.74,-424.07 1248.06,-426.47 1247.31,-419.51"/>
</a>
</g>
</g>
<!-- Node38&#45;&gt;Node28 -->
<g id="edge57_Node000038_Node000028" class="edge">
<title>Node38&#45;&gt;Node28</title>
<g id="a_edge57_Node000038_Node000028"><a xlink:title=" ">
<path fill="none" stroke="#63b8ff" d="M1540.03,-352.77C1608.23,-318.77 1788.3,-228.99 1845.09,-200.68"/>
<polygon fill="#63b8ff" stroke="#63b8ff" points="1538.19,-349.78 1530.81,-357.37 1541.32,-356.04 1538.19,-349.78"/>
</a>
</g>
</g>
<!-- Node39&#45;&gt;Node29 -->
<g id="edge59_Node000039_Node000029" class="edge">
<title>Node39&#45;&gt;Node29</title>
<g id="a_edge59_Node000039_Node000029"><a xlink:title=" ">
<path fill="none" stroke="#63b8ff" d="M1704.92,-347.23C1774.83,-312.18 1923.79,-237.49 1986.14,-206.22"/>
<polygon fill="#63b8ff" stroke="#63b8ff" points="1702.97,-344.3 1695.6,-351.91 1706.11,-350.55 1702.97,-344.3"/>
</a>
</g>
</g>
</g>
</svg>
