<?xml version="1.0" encoding="UTF-8" standalone="no"?>
<!DOCTYPE svg PUBLIC "-//W3C//DTD SVG 1.1//EN"
 "http://www.w3.org/Graphics/SVG/1.1/DTD/svg11.dtd">
<!-- Generated by graphviz version 9.0.0 (20230911.1827)
 -->
<!-- Title: Cpl/Memory/SPool.h Pages: 1 -->
<svg width="334pt" height="193pt"
 viewBox="0.00 0.00 333.50 193.00" xmlns="http://www.w3.org/2000/svg" xmlns:xlink="http://www.w3.org/1999/xlink">
<g id="graph0" class="graph" transform="scale(1 1) rotate(0) translate(4 189)">
<title>Cpl/Memory/SPool.h</title>
<!-- Node1 -->
<g id="Node000001" class="node">
<title>Node1</title>
<g id="a_Node000001"><a xlink:title=" ">
<polygon fill="#999999" stroke="#666666" points="259.5,-185 155,-185 155,-165.75 259.5,-165.75 259.5,-185"/>
<text text-anchor="middle" x="207.25" y="-171.5" font-family="Helvetica,sans-Serif" font-size="10.00">Cpl/Memory/SPool.h</text>
</a>
</g>
</g>
<!-- Node2 -->
<g id="Node000002" class="node">
<title>Node2</title>
<g id="a_Node000002"><a xlink:href="_pool___8h.html" target="_top" xlink:title=" ">
<polygon fill="white" stroke="#666666" points="196.75,-129.75 93.75,-129.75 93.75,-110.5 196.75,-110.5 196.75,-129.75"/>
<text text-anchor="middle" x="145.25" y="-116.25" font-family="Helvetica,sans-Serif" font-size="10.00">Cpl/Memory/Pool_.h</text>
</a>
</g>
</g>
<!-- Node1&#45;&gt;Node2 -->
<g id="edge1_Node000001_Node000002" class="edge">
<title>Node1&#45;&gt;Node2</title>
<g id="a_edge1_Node000001_Node000002"><a xlink:title=" ">
<path fill="none" stroke="#63b8ff" d="M196.73,-165.34C187.86,-157.72 174.94,-146.62 164.26,-137.45"/>
<polygon fill="#63b8ff" stroke="#63b8ff" points="166.63,-134.87 156.76,-131.01 162.07,-140.18 166.63,-134.87"/>
</a>
</g>
</g>
<!-- Node7 -->
<g id="Node000007" class="node">
<title>Node7</title>
<g id="a_Node000007"><a xlink:href="_aligned_8h.html" target="_top" xlink:title=" ">
<polygon fill="white" stroke="#666666" points="325.5,-129.75 215,-129.75 215,-110.5 325.5,-110.5 325.5,-129.75"/>
<text text-anchor="middle" x="270.25" y="-116.25" font-family="Helvetica,sans-Serif" font-size="10.00">Cpl/Memory/Aligned.h</text>
</a>
</g>
</g>
<!-- Node1&#45;&gt;Node7 -->
<g id="edge6_Node000001_Node000007" class="edge">
<title>Node1&#45;&gt;Node7</title>
<g id="a_edge6_Node000001_Node000007"><a xlink:title=" ">
<path fill="none" stroke="#63b8ff" d="M217.94,-165.34C226.95,-157.72 240.08,-146.62 250.93,-137.45"/>
<polygon fill="#63b8ff" stroke="#63b8ff" points="253.19,-140.13 258.56,-131 248.67,-134.78 253.19,-140.13"/>
</a>
</g>
</g>
<!-- Node3 -->
<g id="Node000003" class="node">
<title>Node3</title>
<g id="a_Node000003"><a xlink:href="_allocator_8h.html" target="_top" xlink:title=" ">
<polygon fill="white" stroke="#666666" points="116.5,-74.5 0,-74.5 0,-55.25 116.5,-55.25 116.5,-74.5"/>
<text text-anchor="middle" x="58.25" y="-61" font-family="Helvetica,sans-Serif" font-size="10.00">Cpl/Memory/Allocator.h</text>
</a>
</g>
</g>
<!-- Node2&#45;&gt;Node3 -->
<g id="edge2_Node000002_Node000003" class="edge">
<title>Node2&#45;&gt;Node3</title>
<g id="a_edge2_Node000002_Node000003"><a xlink:title=" ">
<path fill="none" stroke="#63b8ff" d="M130.49,-110.09C117.37,-102.06 97.93,-90.16 82.52,-80.73"/>
<polygon fill="#63b8ff" stroke="#63b8ff" points="84.73,-77.98 74.37,-75.74 81.07,-83.95 84.73,-77.98"/>
</a>
</g>
</g>
<!-- Node6 -->
<g id="Node000006" class="node">
<title>Node6</title>
<g id="a_Node000006"><a xlink:href="_d_list_8h.html" target="_top" xlink:title=" ">
<polygon fill="white" stroke="#666666" points="242.38,-74.5 134.12,-74.5 134.12,-55.25 242.38,-55.25 242.38,-74.5"/>
<text text-anchor="middle" x="188.25" y="-61" font-family="Helvetica,sans-Serif" font-size="10.00">Cpl/Container/DList.h</text>
</a>
</g>
</g>
<!-- Node2&#45;&gt;Node6 -->
<g id="edge5_Node000002_Node000006" class="edge">
<title>Node2&#45;&gt;Node6</title>
<g id="a_edge5_Node000002_Node000006"><a xlink:title=" ">
<path fill="none" stroke="#63b8ff" d="M152.35,-110.33C158.17,-103.13 166.58,-92.71 173.81,-83.76"/>
<polygon fill="#63b8ff" stroke="#63b8ff" points="176.48,-86.02 180.04,-76.04 171.04,-81.62 176.48,-86.02"/>
</a>
</g>
</g>
<!-- Node4 -->
<g id="Node000004" class="node">
<title>Node4</title>
<g id="a_Node000004"><a xlink:href="_item_8h.html" target="_top" xlink:title=" ">
<polygon fill="white" stroke="#666666" points="110.5,-19.25 6,-19.25 6,0 110.5,0 110.5,-19.25"/>
<text text-anchor="middle" x="58.25" y="-5.75" font-family="Helvetica,sans-Serif" font-size="10.00">Cpl/Container/Item.h</text>
</a>
</g>
</g>
<!-- Node3&#45;&gt;Node4 -->
<g id="edge3_Node000003_Node000004" class="edge">
<title>Node3&#45;&gt;Node4</title>
<g id="a_edge3_Node000003_Node000004"><a xlink:title=" ">
<path fill="none" stroke="#63b8ff" d="M58.25,-55.08C58.25,-48.57 58.25,-39.42 58.25,-31.12"/>
<polygon fill="#63b8ff" stroke="#63b8ff" points="61.75,-31.12 58.25,-21.12 54.75,-31.12 61.75,-31.12"/>
</a>
</g>
</g>
<!-- Node5 -->
<g id="Node000005" class="node">
<title>Node5</title>
<g id="a_Node000005"><a xlink:title=" ">
<polygon fill="#e0e0e0" stroke="#999999" points="234.62,-19.25 187.88,-19.25 187.88,0 234.62,0 234.62,-19.25"/>
<text text-anchor="middle" x="211.25" y="-5.75" font-family="Helvetica,sans-Serif" font-size="10.00">stdlib.h</text>
</a>
</g>
</g>
<!-- Node3&#45;&gt;Node5 -->
<g id="edge4_Node000003_Node000005" class="edge">
<title>Node3&#45;&gt;Node5</title>
<g id="a_edge4_Node000003_Node000005"><a xlink:title=" ">
<path fill="none" stroke="#63b8ff" d="M84.2,-54.84C109.79,-45.94 149.04,-32.28 177.14,-22.5"/>
<polygon fill="#63b8ff" stroke="#63b8ff" points="177.96,-25.92 186.25,-19.32 175.66,-19.31 177.96,-25.92"/>
</a>
</g>
</g>
<!-- Node7&#45;&gt;Node5 -->
<g id="edge7_Node000007_Node000005" class="edge">
<title>Node7&#45;&gt;Node5</title>
<g id="a_edge7_Node000007_Node000005"><a xlink:title=" ">
<path fill="none" stroke="#63b8ff" d="M268.91,-110.38C266.68,-97.62 261.42,-73.43 251.25,-55.25 245.57,-45.09 237.21,-35.29 229.6,-27.47"/>
<polygon fill="#63b8ff" stroke="#63b8ff" points="232.2,-25.11 222.6,-20.63 227.31,-30.12 232.2,-25.11"/>
</a>
</g>
</g>
</g>
</svg>
