<?xml version="1.0" encoding="UTF-8" standalone="no"?>
<!DOCTYPE svg PUBLIC "-//W3C//DTD SVG 1.1//EN"
 "http://www.w3.org/Graphics/SVG/1.1/DTD/svg11.dtd">
<!-- Generated by graphviz version 9.0.0 (20230911.1827)
 -->
<!-- Title: Bsp/ST/NUCLEO&#45;F413ZH/alpha1/MX/Core/Inc/main.h Pages: 1 -->
<svg width="913pt" height="172pt"
 viewBox="0.00 0.00 913.50 171.50" xmlns="http://www.w3.org/2000/svg" xmlns:xlink="http://www.w3.org/1999/xlink">
<g id="graph0" class="graph" transform="scale(1 1) rotate(0) translate(4 167.5)">
<title>Bsp/ST/NUCLEO&#45;F413ZH/alpha1/MX/Core/Inc/main.h</title>
<!-- Node1 -->
<g id="Node000001" class="node">
<title>Node1</title>
<g id="a_Node000001"><a xlink:title=": Header for main.c file.">
<polygon fill="#999999" stroke="#666666" points="452.12,-163.5 315.37,-163.5 315.37,-133 452.12,-133 452.12,-163.5"/>
<text text-anchor="start" x="323.37" y="-150" font-family="Helvetica,sans-Serif" font-size="10.00">Bsp/ST/NUCLEO&#45;F413ZH</text>
<text text-anchor="middle" x="383.75" y="-138.75" font-family="Helvetica,sans-Serif" font-size="10.00">/alpha1/MX/Core/Inc/main.h</text>
</a>
</g>
</g>
<!-- Node2 -->
<g id="Node000002" class="node">
<title>Node2</title>
<g id="a_Node000002"><a xlink:href="_bsp_2_s_t_2_n_u_c_l_e_o-_f413_z_h_2alpha1_2_api_8h.html" target="_top" xlink:title="This BSP is developed/build with a &#39;just&#45;in&#45;time&#39; approach.">
<polygon fill="white" stroke="#666666" points="524.5,-30.5 393,-30.5 393,0 524.5,0 524.5,-30.5"/>
<text text-anchor="start" x="401" y="-17" font-family="Helvetica,sans-Serif" font-size="10.00">Bsp/ST/NUCLEO&#45;F413ZH</text>
<text text-anchor="middle" x="458.75" y="-5.75" font-family="Helvetica,sans-Serif" font-size="10.00">/alpha1/Api.h</text>
</a>
</g>
</g>
<!-- Node1&#45;&gt;Node2 -->
<g id="edge1_Node000001_Node000002" class="edge">
<title>Node1&#45;&gt;Node2</title>
<g id="a_edge1_Node000001_Node000002"><a xlink:title=" ">
<path fill="none" stroke="#63b8ff" d="M303.78,-142.13C198.94,-134.6 26,-118.99 6.75,-97 -2.18,-86.8 -2.29,-76.6 6.75,-66.5 32.02,-38.26 273.63,-24.11 392.86,-18.81"/>
<polygon fill="#63b8ff" stroke="#63b8ff" points="303.23,-145.6 313.45,-142.82 303.72,-138.62 303.23,-145.6"/>
</a>
</g>
</g>
<!-- Node3 -->
<g id="Node000003" class="node">
<title>Node3</title>
<g id="a_Node000003"><a xlink:href="_s_t_2_n_u_c_l_e_o-_f413_z_h_2alpha1_2_m_x_2_core_2_inc_2adc_8h.html" target="_top" xlink:title="This file contains all the function prototypes for the adc.c file.">
<polygon fill="white" stroke="#666666" points="147.5,-97 16,-97 16,-66.5 147.5,-66.5 147.5,-97"/>
<text text-anchor="start" x="24" y="-83.5" font-family="Helvetica,sans-Serif" font-size="10.00">Bsp/ST/NUCLEO&#45;F413ZH</text>
<text text-anchor="middle" x="81.75" y="-72.25" font-family="Helvetica,sans-Serif" font-size="10.00">/alpha1/MX/Core/Inc/adc.h</text>
</a>
</g>
</g>
<!-- Node1&#45;&gt;Node3 -->
<g id="edge2_Node000001_Node000003" class="edge">
<title>Node1&#45;&gt;Node3</title>
<g id="a_edge2_Node000001_Node000003"><a xlink:title=" ">
<path fill="none" stroke="#63b8ff" d="M304.09,-130.24C255.42,-119.84 193.91,-106.71 147.93,-96.88"/>
<polygon fill="#63b8ff" stroke="#63b8ff" points="303.23,-133.63 313.74,-132.3 304.69,-126.79 303.23,-133.63"/>
</a>
</g>
</g>
<!-- Node4 -->
<g id="Node000004" class="node">
<title>Node4</title>
<g id="a_Node000004"><a xlink:href="_s_t_2_n_u_c_l_e_o-_f413_z_h_2alpha1_2_m_x_2_core_2_inc_2gpio_8h.html" target="_top" xlink:title="This file contains all the function prototypes for the gpio.c file.">
<polygon fill="white" stroke="#666666" points="299.62,-97 165.87,-97 165.87,-66.5 299.62,-66.5 299.62,-97"/>
<text text-anchor="start" x="173.87" y="-83.5" font-family="Helvetica,sans-Serif" font-size="10.00">Bsp/ST/NUCLEO&#45;F413ZH</text>
<text text-anchor="middle" x="232.75" y="-72.25" font-family="Helvetica,sans-Serif" font-size="10.00">/alpha1/MX/Core/Inc/gpio.h</text>
</a>
</g>
</g>
<!-- Node1&#45;&gt;Node4 -->
<g id="edge4_Node000001_Node000004" class="edge">
<title>Node1&#45;&gt;Node4</title>
<g id="a_edge4_Node000001_Node000004"><a xlink:title=" ">
<path fill="none" stroke="#63b8ff" d="M338.95,-128.12C315.97,-118.3 288.42,-106.53 267.14,-97.44"/>
<polygon fill="#63b8ff" stroke="#63b8ff" points="337.52,-131.31 348.09,-132.02 340.27,-124.87 337.52,-131.31"/>
</a>
</g>
</g>
<!-- Node5 -->
<g id="Node000005" class="node">
<title>Node5</title>
<g id="a_Node000005"><a xlink:href="_s_t_2_n_u_c_l_e_o-_f413_z_h_2alpha1_2_m_x_2_core_2_inc_2i2c_8h.html" target="_top" xlink:title="This file contains all the function prototypes for the i2c.c file.">
<polygon fill="white" stroke="#666666" points="449.5,-97 318,-97 318,-66.5 449.5,-66.5 449.5,-97"/>
<text text-anchor="start" x="326" y="-83.5" font-family="Helvetica,sans-Serif" font-size="10.00">Bsp/ST/NUCLEO&#45;F413ZH</text>
<text text-anchor="middle" x="383.75" y="-72.25" font-family="Helvetica,sans-Serif" font-size="10.00">/alpha1/MX/Core/Inc/i2c.h</text>
</a>
</g>
</g>
<!-- Node1&#45;&gt;Node5 -->
<g id="edge5_Node000001_Node000005" class="edge">
<title>Node1&#45;&gt;Node5</title>
<g id="a_edge5_Node000001_Node000005"><a xlink:title=" ">
<path fill="none" stroke="#63b8ff" d="M383.75,-121.31C383.75,-113.14 383.75,-104.41 383.75,-97.33"/>
<polygon fill="#63b8ff" stroke="#63b8ff" points="380.25,-121.1 383.75,-131.1 387.25,-121.1 380.25,-121.1"/>
</a>
</g>
</g>
<!-- Node6 -->
<g id="Node000006" class="node">
<title>Node6</title>
<g id="a_Node000006"><a xlink:href="_s_t_2_n_u_c_l_e_o-_f413_z_h_2alpha1_2_m_x_2_core_2_inc_2spi_8h.html" target="_top" xlink:title="This file contains all the function prototypes for the spi.c file.">
<polygon fill="white" stroke="#666666" points="599.5,-97 468,-97 468,-66.5 599.5,-66.5 599.5,-97"/>
<text text-anchor="start" x="476" y="-83.5" font-family="Helvetica,sans-Serif" font-size="10.00">Bsp/ST/NUCLEO&#45;F413ZH</text>
<text text-anchor="middle" x="533.75" y="-72.25" font-family="Helvetica,sans-Serif" font-size="10.00">/alpha1/MX/Core/Inc/spi.h</text>
</a>
</g>
</g>
<!-- Node1&#45;&gt;Node6 -->
<g id="edge7_Node000001_Node000006" class="edge">
<title>Node1&#45;&gt;Node6</title>
<g id="a_edge7_Node000001_Node000006"><a xlink:title=" ">
<path fill="none" stroke="#63b8ff" d="M428.24,-128.12C451.07,-118.3 478.44,-106.53 499.58,-97.44"/>
<polygon fill="#63b8ff" stroke="#63b8ff" points="426.98,-124.85 419.17,-132.02 429.74,-131.28 426.98,-124.85"/>
</a>
</g>
</g>
<!-- Node7 -->
<g id="Node000007" class="node">
<title>Node7</title>
<g id="a_Node000007"><a xlink:href="_s_t_2_n_u_c_l_e_o-_f413_z_h_2alpha1_2_m_x_2_core_2_inc_2tim_8h.html" target="_top" xlink:title="This file contains all the function prototypes for the tim.c file.">
<polygon fill="white" stroke="#666666" points="749.5,-97 618,-97 618,-66.5 749.5,-66.5 749.5,-97"/>
<text text-anchor="start" x="626" y="-83.5" font-family="Helvetica,sans-Serif" font-size="10.00">Bsp/ST/NUCLEO&#45;F413ZH</text>
<text text-anchor="middle" x="683.75" y="-72.25" font-family="Helvetica,sans-Serif" font-size="10.00">/alpha1/MX/Core/Inc/tim.h</text>
</a>
</g>
</g>
<!-- Node1&#45;&gt;Node7 -->
<g id="edge9_Node000001_Node000007" class="edge">
<title>Node1&#45;&gt;Node7</title>
<g id="a_edge9_Node000001_Node000007"><a xlink:title=" ">
<path fill="none" stroke="#63b8ff" d="M463.21,-130.17C511.38,-119.81 572.12,-106.75 617.65,-96.96"/>
<polygon fill="#63b8ff" stroke="#63b8ff" points="462.72,-126.69 453.68,-132.22 464.19,-133.53 462.72,-126.69"/>
</a>
</g>
</g>
<!-- Node8 -->
<g id="Node000008" class="node">
<title>Node8</title>
<g id="a_Node000008"><a xlink:href="_s_t_2_n_u_c_l_e_o-_f413_z_h_2alpha1_2_m_x_2_core_2_inc_2usart_8h.html" target="_top" xlink:title="This file contains all the function prototypes for the usart.c file.">
<polygon fill="white" stroke="#666666" points="905.5,-97 768,-97 768,-66.5 905.5,-66.5 905.5,-97"/>
<text text-anchor="start" x="776" y="-83.5" font-family="Helvetica,sans-Serif" font-size="10.00">Bsp/ST/NUCLEO&#45;F413ZH</text>
<text text-anchor="middle" x="836.75" y="-72.25" font-family="Helvetica,sans-Serif" font-size="10.00">/alpha1/MX/Core/Inc/usart.h</text>
</a>
</g>
</g>
<!-- Node1&#45;&gt;Node8 -->
<g id="edge11_Node000001_Node000008" class="edge">
<title>Node1&#45;&gt;Node8</title>
<g id="a_edge11_Node000001_Node000008"><a xlink:title=" ">
<path fill="none" stroke="#63b8ff" d="M463.69,-137.65C539.72,-128.26 657.23,-113.07 758.75,-97 761.74,-96.53 764.79,-96.03 767.87,-95.52"/>
<polygon fill="#63b8ff" stroke="#63b8ff" points="463.32,-134.17 453.82,-138.87 464.17,-141.12 463.32,-134.17"/>
</a>
</g>
</g>
<!-- Node3&#45;&gt;Node2 -->
<g id="edge3_Node000003_Node000002" class="edge">
<title>Node3&#45;&gt;Node2</title>
<g id="a_edge3_Node000003_Node000002"><a xlink:title=" ">
<path fill="none" stroke="#63b8ff" d="M159.06,-66.11C245.48,-50.8 333.97,-36.27 392.69,-26.8"/>
<polygon fill="#63b8ff" stroke="#63b8ff" points="158.71,-62.62 149.47,-67.81 159.93,-69.51 158.71,-62.62"/>
</a>
</g>
</g>
<!-- Node5&#45;&gt;Node2 -->
<g id="edge6_Node000005_Node000002" class="edge">
<title>Node5&#45;&gt;Node2</title>
<g id="a_edge6_Node000005_Node000002"><a xlink:title=" ">
<path fill="none" stroke="#63b8ff" d="M409.34,-58.74C420.05,-49.53 432.22,-39.06 441.79,-30.83"/>
<polygon fill="#63b8ff" stroke="#63b8ff" points="407.21,-55.95 401.91,-65.13 411.78,-61.26 407.21,-55.95"/>
</a>
</g>
</g>
<!-- Node6&#45;&gt;Node2 -->
<g id="edge8_Node000006_Node000002" class="edge">
<title>Node6&#45;&gt;Node2</title>
<g id="a_edge8_Node000006_Node000002"><a xlink:title=" ">
<path fill="none" stroke="#63b8ff" d="M508.15,-58.74C497.44,-49.53 485.27,-39.06 475.7,-30.83"/>
<polygon fill="#63b8ff" stroke="#63b8ff" points="505.72,-61.26 515.58,-65.13 510.28,-55.95 505.72,-61.26"/>
</a>
</g>
</g>
<!-- Node7&#45;&gt;Node2 -->
<g id="edge10_Node000007_Node000002" class="edge">
<title>Node7&#45;&gt;Node2</title>
<g id="a_edge10_Node000007_Node000002"><a xlink:title=" ">
<path fill="none" stroke="#63b8ff" d="M621.78,-62.99C586.59,-52.9 543.08,-40.43 509.86,-30.9"/>
<polygon fill="#63b8ff" stroke="#63b8ff" points="620.38,-66.22 630.95,-65.62 622.3,-59.5 620.38,-66.22"/>
</a>
</g>
</g>
<!-- Node8&#45;&gt;Node2 -->
<g id="edge12_Node000008_Node000002" class="edge">
<title>Node8&#45;&gt;Node2</title>
<g id="a_edge12_Node000008_Node000002"><a xlink:title=" ">
<path fill="none" stroke="#63b8ff" d="M756.57,-66.13C670.65,-51.15 583.19,-36.62 524.93,-27.05"/>
<polygon fill="#63b8ff" stroke="#63b8ff" points="755.91,-69.57 766.36,-67.85 757.11,-62.68 755.91,-69.57"/>
</a>
</g>
</g>
</g>
</svg>
