<?xml version="1.0" encoding="UTF-8" standalone="no"?>
<!DOCTYPE svg PUBLIC "-//W3C//DTD SVG 1.1//EN"
 "http://www.w3.org/Graphics/SVG/1.1/DTD/svg11.dtd">
<!-- Generated by graphviz version 9.0.0 (20230911.1827)
 -->
<!-- Title: Ajax/ScreenMgr/ScreenApi.h Pages: 1 -->
<svg width="941pt" height="260pt"
 viewBox="0.00 0.00 941.38 259.50" xmlns="http://www.w3.org/2000/svg" xmlns:xlink="http://www.w3.org/1999/xlink">
<g id="graph0" class="graph" transform="scale(1 1) rotate(0) translate(4 255.5)">
<title>Ajax/ScreenMgr/ScreenApi.h</title>
<!-- Node1 -->
<g id="Node000001" class="node">
<title>Node1</title>
<g id="a_Node000001"><a xlink:title=" ">
<polygon fill="#999999" stroke="#666666" points="611.38,-251.5 470.88,-251.5 470.88,-232.25 611.38,-232.25 611.38,-251.5"/>
<text text-anchor="middle" x="541.12" y="-238" font-family="Helvetica,sans-Serif" font-size="10.00">Ajax/ScreenMgr/ScreenApi.h</text>
</a>
</g>
</g>
<!-- Node2 -->
<g id="Node000002" class="node">
<title>Node2</title>
<g id="a_Node000002"><a xlink:href="_mock_screen_8h.html" target="_top" xlink:title=" ">
<polygon fill="white" stroke="#666666" points="150.25,-196.25 0,-196.25 0,-177 150.25,-177 150.25,-196.25"/>
<text text-anchor="middle" x="75.12" y="-182.75" font-family="Helvetica,sans-Serif" font-size="10.00">Ajax/ScreenMgr/MockScreen.h</text>
</a>
</g>
</g>
<!-- Node1&#45;&gt;Node2 -->
<g id="edge1_Node000001_Node000002" class="edge">
<title>Node1&#45;&gt;Node2</title>
<g id="a_edge1_Node000001_Node000002"><a xlink:title=" ">
<path fill="none" stroke="#63b8ff" d="M459.17,-231.51C371.96,-221.54 235.14,-205.91 150.52,-196.24"/>
<polygon fill="#63b8ff" stroke="#63b8ff" points="458.77,-234.99 469.1,-232.64 459.56,-228.03 458.77,-234.99"/>
</a>
</g>
</g>
<!-- Node3 -->
<g id="Node000003" class="node">
<title>Node3</title>
<g id="a_Node000003"><a xlink:href="_navigation_8h.html" target="_top" xlink:title=" ">
<polygon fill="white" stroke="#666666" points="612.12,-196.25 470.12,-196.25 470.12,-177 612.12,-177 612.12,-196.25"/>
<text text-anchor="middle" x="541.12" y="-182.75" font-family="Helvetica,sans-Serif" font-size="10.00">Ajax/ScreenMgr/Navigation.h</text>
</a>
</g>
</g>
<!-- Node1&#45;&gt;Node3 -->
<g id="edge2_Node000001_Node000003" class="edge">
<title>Node1&#45;&gt;Node3</title>
<g id="a_edge2_Node000001_Node000003"><a xlink:title=" ">
<path fill="none" stroke="#63b8ff" d="M541.12,-220.63C541.12,-212.34 541.12,-203.17 541.12,-196.61"/>
<polygon fill="#63b8ff" stroke="#63b8ff" points="537.63,-220.57 541.13,-230.57 544.63,-220.57 537.63,-220.57"/>
</a>
</g>
</g>
<!-- Node6 -->
<g id="Node000006" class="node">
<title>Node6</title>
<g id="a_Node000006"><a xlink:href="_ajax_2_ui_2_about_2_screen_8h.html" target="_top" xlink:title=" ">
<polygon fill="white" stroke="#666666" points="350.75,-74.5 233.5,-74.5 233.5,-55.25 350.75,-55.25 350.75,-74.5"/>
<text text-anchor="middle" x="292.12" y="-61" font-family="Helvetica,sans-Serif" font-size="10.00">Ajax/Ui/About/Screen.h</text>
</a>
</g>
</g>
<!-- Node1&#45;&gt;Node6 -->
<g id="edge16_Node000001_Node000006" class="edge">
<title>Node1&#45;&gt;Node6</title>
<g id="a_edge16_Node000001_Node000006"><a xlink:title=" ">
<path fill="none" stroke="#63b8ff" d="M459.49,-233.83C391.74,-226.83 301.58,-214.48 270.12,-196.25 232.89,-174.67 204.81,-148.44 225.12,-110.5 234.16,-93.62 252.72,-82.03 268.01,-74.9"/>
<polygon fill="#63b8ff" stroke="#63b8ff" points="458.78,-237.28 469.08,-234.8 459.48,-230.31 458.78,-237.28"/>
</a>
</g>
</g>
<!-- Node8 -->
<g id="Node000008" class="node">
<title>Node8</title>
<g id="a_Node000008"><a xlink:href="_ajax_2_ui_2_edit_setpt_2_screen_8h.html" target="_top" xlink:title=" ">
<polygon fill="white" stroke="#666666" points="499.88,-74.5 368.38,-74.5 368.38,-55.25 499.88,-55.25 499.88,-74.5"/>
<text text-anchor="middle" x="434.12" y="-61" font-family="Helvetica,sans-Serif" font-size="10.00">Ajax/Ui/EditSetpt/Screen.h</text>
</a>
</g>
</g>
<!-- Node1&#45;&gt;Node8 -->
<g id="edge17_Node000001_Node000008" class="edge">
<title>Node1&#45;&gt;Node8</title>
<g id="a_edge17_Node000001_Node000008"><a xlink:title=" ">
<path fill="none" stroke="#63b8ff" d="M459.18,-239.21C387.08,-232.86 285.9,-210.98 235.12,-141 227.16,-130.03 226.65,-121.08 235.12,-110.5 244.09,-99.31 321.4,-84.41 376.96,-74.98"/>
<polygon fill="#63b8ff" stroke="#63b8ff" points="458.74,-242.68 468.98,-239.98 459.29,-235.71 458.74,-242.68"/>
</a>
</g>
</g>
<!-- Node9 -->
<g id="Node000009" class="node">
<title>Node9</title>
<g id="a_Node000009"><a xlink:href="_ajax_2_ui_2_home_2_screen_8h.html" target="_top" xlink:title=" ">
<polygon fill="white" stroke="#666666" points="636.12,-74.5 518.12,-74.5 518.12,-55.25 636.12,-55.25 636.12,-74.5"/>
<text text-anchor="middle" x="577.12" y="-61" font-family="Helvetica,sans-Serif" font-size="10.00">Ajax/Ui/Home/Screen.h</text>
</a>
</g>
</g>
<!-- Node1&#45;&gt;Node9 -->
<g id="edge18_Node000001_Node000009" class="edge">
<title>Node1&#45;&gt;Node9</title>
<g id="a_edge18_Node000001_Node000009"><a xlink:title=" ">
<path fill="none" stroke="#63b8ff" d="M583.47,-227.41C598.03,-220.51 612.77,-210.49 621.12,-196.25 640.42,-163.39 635.59,-145.76 621.12,-110.5 614.93,-95.4 600.89,-82.67 590.32,-74.73"/>
<polygon fill="#63b8ff" stroke="#63b8ff" points="582.2,-224.14 574.38,-231.29 584.95,-230.58 582.2,-224.14"/>
</a>
</g>
</g>
<!-- Node11 -->
<g id="Node000011" class="node">
<title>Node11</title>
<g id="a_Node000011"><a xlink:href="_eros_2_ui_2_home_2_screen_8h.html" target="_top" xlink:title=" ">
<polygon fill="white" stroke="#666666" points="786.5,-135.38 667.75,-135.38 667.75,-116.12 786.5,-116.12 786.5,-135.38"/>
<text text-anchor="middle" x="727.12" y="-121.88" font-family="Helvetica,sans-Serif" font-size="10.00">Eros/Ui/Home/Screen.h</text>
</a>
</g>
</g>
<!-- Node1&#45;&gt;Node11 -->
<g id="edge19_Node000001_Node000011" class="edge">
<title>Node1&#45;&gt;Node11</title>
<g id="a_edge19_Node000001_Node000011"><a xlink:title=" ">
<path fill="none" stroke="#63b8ff" d="M584.05,-228.28C605.99,-220.79 632.53,-210.04 654.12,-196.25 681.55,-178.73 707.66,-149.98 719.89,-135.57"/>
<polygon fill="#63b8ff" stroke="#63b8ff" points="583.22,-224.88 574.81,-231.33 585.41,-231.52 583.22,-224.88"/>
</a>
</g>
</g>
<!-- Node13 -->
<g id="Node000013" class="node">
<title>Node13</title>
<g id="a_Node000013"><a xlink:href="_eros_2_ui_2_lcd_test_2_screen_8h.html" target="_top" xlink:title=" ">
<polygon fill="white" stroke="#666666" points="933.38,-135.38 804.88,-135.38 804.88,-116.12 933.38,-116.12 933.38,-135.38"/>
<text text-anchor="middle" x="869.12" y="-121.88" font-family="Helvetica,sans-Serif" font-size="10.00">Eros/Ui/LcdTest/Screen.h</text>
</a>
</g>
</g>
<!-- Node1&#45;&gt;Node13 -->
<g id="edge20_Node000001_Node000013" class="edge">
<title>Node1&#45;&gt;Node13</title>
<g id="a_edge20_Node000001_Node000013"><a xlink:title=" ">
<path fill="none" stroke="#63b8ff" d="M582,-228.39C610,-219.7 647.94,-207.66 681.12,-196.25 740.68,-175.76 810,-149.5 845.51,-135.87"/>
<polygon fill="#63b8ff" stroke="#63b8ff" points="580.99,-225.03 572.47,-231.33 583.06,-231.72 580.99,-225.03"/>
</a>
</g>
</g>
<!-- Node4 -->
<g id="Node000004" class="node">
<title>Node4</title>
<g id="a_Node000004"><a xlink:href="appmain_8h.html" target="_top" xlink:title="This file defines the hardware/platform independent start&#45;up interface(s) for the Ajax application.">
<polygon fill="white" stroke="#666666" points="484.12,-135.38 378.12,-135.38 378.12,-116.12 484.12,-116.12 484.12,-135.38"/>
<text text-anchor="middle" x="431.12" y="-121.88" font-family="Helvetica,sans-Serif" font-size="10.00">Ajax/Main/appmain.h</text>
</a>
</g>
</g>
<!-- Node3&#45;&gt;Node4 -->
<g id="edge3_Node000003_Node000004" class="edge">
<title>Node3&#45;&gt;Node4</title>
<g id="a_edge3_Node000003_Node000004"><a xlink:title=" ">
<path fill="none" stroke="#63b8ff" d="M514.36,-171.3C493.66,-160.22 465.66,-145.23 447.99,-135.78"/>
<polygon fill="#63b8ff" stroke="#63b8ff" points="512.62,-174.34 523.08,-175.97 515.92,-168.16 512.62,-174.34"/>
</a>
</g>
</g>
<!-- Node5 -->
<g id="Node000005" class="node">
<title>Node5</title>
<g id="a_Node000005"><a xlink:href="_ajax_2_screen_mgr_2_api_8h.html" target="_top" xlink:title=" ">
<polygon fill="white" stroke="#666666" points="612,-135.38 502.25,-135.38 502.25,-116.12 612,-116.12 612,-135.38"/>
<text text-anchor="middle" x="557.12" y="-121.88" font-family="Helvetica,sans-Serif" font-size="10.00">Ajax/ScreenMgr/Api.h</text>
</a>
</g>
</g>
<!-- Node3&#45;&gt;Node5 -->
<g id="edge4_Node000003_Node000005" class="edge">
<title>Node3&#45;&gt;Node5</title>
<g id="a_edge4_Node000003_Node000005"><a xlink:title=" ">
<path fill="none" stroke="#63b8ff" d="M546.49,-165.87C549.26,-155.68 552.5,-143.76 554.67,-135.78"/>
<polygon fill="#63b8ff" stroke="#63b8ff" points="543.2,-164.65 543.95,-175.22 549.95,-166.49 543.2,-164.65"/>
</a>
</g>
</g>
<!-- Node10 -->
<g id="Node000010" class="node">
<title>Node10</title>
<g id="a_Node000010"><a xlink:href="_ajax_2_ui_2_status_indicator_2_api_8h.html" target="_top" xlink:title=" ">
<polygon fill="white" stroke="#666666" points="360.38,-141 243.88,-141 243.88,-110.5 360.38,-110.5 360.38,-141"/>
<text text-anchor="start" x="251.88" y="-127.5" font-family="Helvetica,sans-Serif" font-size="10.00">Ajax/Ui/StatusIndicator</text>
<text text-anchor="middle" x="302.12" y="-116.25" font-family="Helvetica,sans-Serif" font-size="10.00">/Api.h</text>
</a>
</g>
</g>
<!-- Node3&#45;&gt;Node10 -->
<g id="edge11_Node000003_Node000010" class="edge">
<title>Node3&#45;&gt;Node10</title>
<g id="a_edge11_Node000003_Node000010"><a xlink:title=" ">
<path fill="none" stroke="#63b8ff" d="M493.49,-173.89C455.35,-164.49 401.66,-151.27 360.85,-141.22"/>
<polygon fill="#63b8ff" stroke="#63b8ff" points="492.29,-177.2 502.84,-176.19 493.96,-170.4 492.29,-177.2"/>
</a>
</g>
</g>
<!-- Node3&#45;&gt;Node11 -->
<g id="edge12_Node000003_Node000011" class="edge">
<title>Node3&#45;&gt;Node11</title>
<g id="a_edge12_Node000003_Node000011"><a xlink:title=" ">
<path fill="none" stroke="#63b8ff" d="M580.66,-173.11C615.98,-161.93 666.88,-145.82 698.44,-135.83"/>
<polygon fill="#63b8ff" stroke="#63b8ff" points="579.7,-169.74 571.22,-176.1 581.81,-176.42 579.7,-169.74"/>
</a>
</g>
</g>
<!-- Node3&#45;&gt;Node13 -->
<g id="edge14_Node000003_Node000013" class="edge">
<title>Node3&#45;&gt;Node13</title>
<g id="a_edge14_Node000003_Node000013"><a xlink:title=" ">
<path fill="none" stroke="#63b8ff" d="M605.46,-174.62C656.83,-165.76 730.65,-152.87 795.12,-141 804,-139.37 813.47,-137.58 822.57,-135.84"/>
<polygon fill="#63b8ff" stroke="#63b8ff" points="604.95,-171.16 595.69,-176.3 606.14,-178.06 604.95,-171.16"/>
</a>
</g>
</g>
<!-- Node5&#45;&gt;Node6 -->
<g id="edge5_Node000005_Node000006" class="edge">
<title>Node5&#45;&gt;Node6</title>
<g id="a_edge5_Node000005_Node000006"><a xlink:title=" ">
<path fill="none" stroke="#63b8ff" d="M505.47,-113.25C501.29,-112.32 497.14,-111.39 493.12,-110.5 437.64,-98.16 373.54,-83.94 332.93,-74.93"/>
<polygon fill="#63b8ff" stroke="#63b8ff" points="504.5,-116.62 515.02,-115.37 506.02,-109.78 504.5,-116.62"/>
</a>
</g>
</g>
<!-- Node5&#45;&gt;Node8 -->
<g id="edge7_Node000005_Node000008" class="edge">
<title>Node5&#45;&gt;Node8</title>
<g id="a_edge7_Node000005_Node000008"><a xlink:title=" ">
<path fill="none" stroke="#63b8ff" d="M527.86,-110.74C504.63,-99.62 472.83,-84.4 452.89,-74.86"/>
<polygon fill="#63b8ff" stroke="#63b8ff" points="526.28,-113.87 536.81,-115.03 529.3,-107.55 526.28,-113.87"/>
</a>
</g>
</g>
<!-- Node5&#45;&gt;Node9 -->
<g id="edge9_Node000005_Node000009" class="edge">
<title>Node5&#45;&gt;Node9</title>
<g id="a_edge9_Node000005_Node000009"><a xlink:title=" ">
<path fill="none" stroke="#63b8ff" d="M563.84,-104.99C567.3,-94.81 571.35,-82.88 574.06,-74.9"/>
<polygon fill="#63b8ff" stroke="#63b8ff" points="560.55,-103.78 560.65,-114.38 567.18,-106.03 560.55,-103.78"/>
</a>
</g>
</g>
<!-- Node7 -->
<g id="Node000007" class="node">
<title>Node7</title>
<g id="a_Node000007"><a xlink:href="_ajax_2_main_2screens_8h.html" target="_top" xlink:title="This file exposes handles to Screen instances for the Ajax Application.">
<polygon fill="white" stroke="#666666" points="486,-19.25 382.25,-19.25 382.25,0 486,0 486,-19.25"/>
<text text-anchor="middle" x="434.12" y="-5.75" font-family="Helvetica,sans-Serif" font-size="10.00">Ajax/Main/screens.h</text>
</a>
</g>
</g>
<!-- Node6&#45;&gt;Node7 -->
<g id="edge6_Node000006_Node000007" class="edge">
<title>Node6&#45;&gt;Node7</title>
<g id="a_edge6_Node000006_Node000007"><a xlink:title=" ">
<path fill="none" stroke="#63b8ff" d="M326.66,-50.92C352.45,-41.25 387.03,-28.29 409.92,-19.7"/>
<polygon fill="#63b8ff" stroke="#63b8ff" points="325.76,-47.52 317.63,-54.31 328.22,-54.08 325.76,-47.52"/>
</a>
</g>
</g>
<!-- Node8&#45;&gt;Node7 -->
<g id="edge8_Node000008_Node000007" class="edge">
<title>Node8&#45;&gt;Node7</title>
<g id="a_edge8_Node000008_Node000007"><a xlink:title=" ">
<path fill="none" stroke="#63b8ff" d="M434.12,-43.63C434.12,-35.34 434.12,-26.17 434.12,-19.61"/>
<polygon fill="#63b8ff" stroke="#63b8ff" points="430.63,-43.57 434.13,-53.57 437.63,-43.57 430.63,-43.57"/>
</a>
</g>
</g>
<!-- Node9&#45;&gt;Node7 -->
<g id="edge10_Node000009_Node000007" class="edge">
<title>Node9&#45;&gt;Node7</title>
<g id="a_edge10_Node000009_Node000007"><a xlink:title=" ">
<path fill="none" stroke="#63b8ff" d="M542.34,-50.92C516.38,-41.25 481.55,-28.29 458.5,-19.7"/>
<polygon fill="#63b8ff" stroke="#63b8ff" points="540.86,-54.1 551.45,-54.31 543.3,-47.54 540.86,-54.1"/>
</a>
</g>
</g>
<!-- Node12 -->
<g id="Node000012" class="node">
<title>Node12</title>
<g id="a_Node000012"><a xlink:href="_eros_2_main_2screens_8h.html" target="_top" xlink:title="This file exposes handles to Screen instances for the Eros Application.">
<polygon fill="white" stroke="#666666" points="850.38,-74.5 745.88,-74.5 745.88,-55.25 850.38,-55.25 850.38,-74.5"/>
<text text-anchor="middle" x="798.12" y="-61" font-family="Helvetica,sans-Serif" font-size="10.00">Eros/Main/screens.h</text>
</a>
</g>
</g>
<!-- Node11&#45;&gt;Node12 -->
<g id="edge13_Node000011_Node000012" class="edge">
<title>Node11&#45;&gt;Node12</title>
<g id="a_edge13_Node000011_Node000012"><a xlink:title=" ">
<path fill="none" stroke="#63b8ff" d="M746.65,-108.56C759.73,-97.71 776.46,-83.84 787.24,-74.9"/>
<polygon fill="#63b8ff" stroke="#63b8ff" points="744.54,-105.76 739.07,-114.84 749.01,-111.15 744.54,-105.76"/>
</a>
</g>
</g>
<!-- Node13&#45;&gt;Node12 -->
<g id="edge15_Node000013_Node000012" class="edge">
<title>Node13&#45;&gt;Node12</title>
<g id="a_edge15_Node000013_Node000012"><a xlink:title=" ">
<path fill="none" stroke="#63b8ff" d="M849.6,-108.56C836.52,-97.71 819.79,-83.84 809.01,-74.9"/>
<polygon fill="#63b8ff" stroke="#63b8ff" points="847.24,-111.15 857.18,-114.84 851.71,-105.76 847.24,-111.15"/>
</a>
</g>
</g>
</g>
</svg>
