<?xml version="1.0" encoding="UTF-8" standalone="no"?>
<!DOCTYPE svg PUBLIC "-//W3C//DTD SVG 1.1//EN"
 "http://www.w3.org/Graphics/SVG/1.1/DTD/svg11.dtd">
<!-- Generated by graphviz version 2.43.0 (0)
 -->
<!-- Title: Ajax/ScreenMgr/ScreenApi.h Pages: 1 -->
<svg width="1010pt" height="258pt"
 viewBox="0.00 0.00 1009.50 258.00" xmlns="http://www.w3.org/2000/svg" xmlns:xlink="http://www.w3.org/1999/xlink">
<g id="graph0" class="graph" transform="scale(1 1) rotate(0) translate(4 254)">
<title>Ajax/ScreenMgr/ScreenApi.h</title>
<!-- Node1 -->
<g id="Node000001" class="node">
<title>Node1</title>
<g id="a_Node000001"><a xlink:title=" ">
<polygon fill="#999999" stroke="#666666" points="662,-250 508,-250 508,-231 662,-231 662,-250"/>
<text text-anchor="middle" x="585" y="-238" font-family="Helvetica,sans-Serif" font-size="10.00">Ajax/ScreenMgr/ScreenApi.h</text>
</a>
</g>
</g>
<!-- Node2 -->
<g id="Node000002" class="node">
<title>Node2</title>
<g id="a_Node000002"><a xlink:href="_mock_screen_8h.html" target="_top" xlink:title=" ">
<polygon fill="white" stroke="#666666" points="164,-195 0,-195 0,-176 164,-176 164,-195"/>
<text text-anchor="middle" x="82" y="-183" font-family="Helvetica,sans-Serif" font-size="10.00">Ajax/ScreenMgr/MockScreen.h</text>
</a>
</g>
</g>
<!-- Node1&#45;&gt;Node2 -->
<g id="edge1_Node000001_Node000002" class="edge">
<title>Node1&#45;&gt;Node2</title>
<g id="a_edge1_Node000001_Node000002"><a xlink:title=" ">
<path fill="none" stroke="#63b8ff" d="M497.71,-230.3C403.51,-220.38 254.69,-204.7 163.01,-195.04"/>
<polygon fill="#63b8ff" stroke="#63b8ff" points="497.47,-233.8 507.78,-231.36 498.21,-226.84 497.47,-233.8"/>
</a>
</g>
</g>
<!-- Node3 -->
<g id="Node000003" class="node">
<title>Node3</title>
<g id="a_Node000003"><a xlink:href="_navigation_8h.html" target="_top" xlink:title=" ">
<polygon fill="white" stroke="#666666" points="664,-195 506,-195 506,-176 664,-176 664,-195"/>
<text text-anchor="middle" x="585" y="-183" font-family="Helvetica,sans-Serif" font-size="10.00">Ajax/ScreenMgr/Navigation.h</text>
</a>
</g>
</g>
<!-- Node1&#45;&gt;Node3 -->
<g id="edge2_Node000001_Node000003" class="edge">
<title>Node1&#45;&gt;Node3</title>
<g id="a_edge2_Node000001_Node000003"><a xlink:title=" ">
<path fill="none" stroke="#63b8ff" d="M585,-220.66C585,-211.93 585,-201.99 585,-195.09"/>
<polygon fill="#63b8ff" stroke="#63b8ff" points="581.5,-220.75 585,-230.75 588.5,-220.75 581.5,-220.75"/>
</a>
</g>
</g>
<!-- Node6 -->
<g id="Node000006" class="node">
<title>Node6</title>
<g id="a_Node000006"><a xlink:href="_ajax_2_ui_2_about_2_screen_8h.html" target="_top" xlink:title=" ">
<polygon fill="white" stroke="#666666" points="378,-74 250,-74 250,-55 378,-55 378,-74"/>
<text text-anchor="middle" x="314" y="-62" font-family="Helvetica,sans-Serif" font-size="10.00">Ajax/Ui/About/Screen.h</text>
</a>
</g>
</g>
<!-- Node1&#45;&gt;Node6 -->
<g id="edge16_Node000001_Node000006" class="edge">
<title>Node1&#45;&gt;Node6</title>
<g id="a_edge16_Node000001_Node000006"><a xlink:title=" ">
<path fill="none" stroke="#63b8ff" d="M497.71,-237.76C440.38,-233.77 365,-222.95 304,-195 260.76,-175.19 215.47,-151.33 239,-110 249.11,-92.24 269.42,-80.83 286.35,-74.02"/>
<polygon fill="#63b8ff" stroke="#63b8ff" points="497.63,-241.27 507.84,-238.41 498.08,-234.28 497.63,-241.27"/>
</a>
</g>
</g>
<!-- Node8 -->
<g id="Node000008" class="node">
<title>Node8</title>
<g id="a_Node000008"><a xlink:href="_ajax_2_ui_2_edit_setpt_2_screen_8h.html" target="_top" xlink:title=" ">
<polygon fill="white" stroke="#666666" points="540,-74 396,-74 396,-55 540,-55 540,-74"/>
<text text-anchor="middle" x="468" y="-62" font-family="Helvetica,sans-Serif" font-size="10.00">Ajax/Ui/EditSetpt/Screen.h</text>
</a>
</g>
</g>
<!-- Node1&#45;&gt;Node8 -->
<g id="edge17_Node000001_Node000008" class="edge">
<title>Node1&#45;&gt;Node8</title>
<g id="a_edge17_Node000001_Node000008"><a xlink:title=" ">
<path fill="none" stroke="#63b8ff" d="M518.22,-229.29C429.79,-214.25 281.25,-183.18 249,-140 241.02,-129.32 240.56,-120.32 249,-110 259,-97.76 345.05,-83.06 406.25,-74"/>
<polygon fill="#63b8ff" stroke="#63b8ff" points="517.72,-232.76 528.16,-230.96 518.88,-225.85 517.72,-232.76"/>
</a>
</g>
</g>
<!-- Node9 -->
<g id="Node000009" class="node">
<title>Node9</title>
<g id="a_Node000009"><a xlink:href="_ajax_2_ui_2_home_2_screen_8h.html" target="_top" xlink:title=" ">
<polygon fill="white" stroke="#666666" points="687.5,-74 558.5,-74 558.5,-55 687.5,-55 687.5,-74"/>
<text text-anchor="middle" x="623" y="-62" font-family="Helvetica,sans-Serif" font-size="10.00">Ajax/Ui/Home/Screen.h</text>
</a>
</g>
</g>
<!-- Node1&#45;&gt;Node9 -->
<g id="edge18_Node000001_Node000009" class="edge">
<title>Node1&#45;&gt;Node9</title>
<g id="a_edge18_Node000001_Node000009"><a xlink:title=" ">
<path fill="none" stroke="#63b8ff" d="M630.75,-227.36C646.98,-220.61 663.55,-210.36 673,-195 680.25,-183.21 695.73,-162.52 672,-110 665,-94.5 649.71,-82.05 638.07,-74.3"/>
<polygon fill="#63b8ff" stroke="#63b8ff" points="629.4,-224.13 621.29,-230.94 631.88,-230.68 629.4,-224.13"/>
</a>
</g>
</g>
<!-- Node11 -->
<g id="Node000011" class="node">
<title>Node11</title>
<g id="a_Node000011"><a xlink:href="_eros_2_ui_2_home_2_screen_8h.html" target="_top" xlink:title=" ">
<polygon fill="white" stroke="#666666" points="848,-134.5 720,-134.5 720,-115.5 848,-115.5 848,-134.5"/>
<text text-anchor="middle" x="784" y="-122.5" font-family="Helvetica,sans-Serif" font-size="10.00">Eros/Ui/Home/Screen.h</text>
</a>
</g>
</g>
<!-- Node1&#45;&gt;Node11 -->
<g id="edge19_Node000001_Node000011" class="edge">
<title>Node1&#45;&gt;Node11</title>
<g id="a_edge19_Node000001_Node000011"><a xlink:title=" ">
<path fill="none" stroke="#63b8ff" d="M627.94,-227.99C651.89,-220.54 681.7,-209.51 706,-195 734.87,-177.76 762.97,-149.15 776.17,-134.79"/>
<polygon fill="#63b8ff" stroke="#63b8ff" points="626.63,-224.73 618.06,-230.97 628.65,-231.43 626.63,-224.73"/>
</a>
</g>
</g>
<!-- Node13 -->
<g id="Node000013" class="node">
<title>Node13</title>
<g id="a_Node000013"><a xlink:href="_eros_2_ui_2_lcd_test_2_screen_8h.html" target="_top" xlink:title=" ">
<polygon fill="white" stroke="#666666" points="1001.5,-134.5 866.5,-134.5 866.5,-115.5 1001.5,-115.5 1001.5,-134.5"/>
<text text-anchor="middle" x="934" y="-122.5" font-family="Helvetica,sans-Serif" font-size="10.00">Eros/Ui/LcdTest/Screen.h</text>
</a>
</g>
</g>
<!-- Node1&#45;&gt;Node13 -->
<g id="edge20_Node000001_Node000013" class="edge">
<title>Node1&#45;&gt;Node13</title>
<g id="a_edge20_Node000001_Node000013"><a xlink:title=" ">
<path fill="none" stroke="#63b8ff" d="M624.23,-228.15C654.14,-219.39 696.29,-206.82 733,-195 797.27,-174.31 872.37,-147.94 909.97,-134.59"/>
<polygon fill="#63b8ff" stroke="#63b8ff" points="623.21,-224.81 614.59,-230.97 625.17,-231.52 623.21,-224.81"/>
</a>
</g>
</g>
<!-- Node4 -->
<g id="Node000004" class="node">
<title>Node4</title>
<g id="a_Node000004"><a xlink:href="appmain_8h.html" target="_top" xlink:title="This file defines the hardware/platform independent start&#45;up interface(s) for the Ajax application.">
<polygon fill="white" stroke="#666666" points="524,-134.5 404,-134.5 404,-115.5 524,-115.5 524,-134.5"/>
<text text-anchor="middle" x="464" y="-122.5" font-family="Helvetica,sans-Serif" font-size="10.00">Ajax/Main/appmain.h</text>
</a>
</g>
</g>
<!-- Node3&#45;&gt;Node4 -->
<g id="edge3_Node000003_Node000004" class="edge">
<title>Node3&#45;&gt;Node4</title>
<g id="a_edge3_Node000003_Node000004"><a xlink:title=" ">
<path fill="none" stroke="#63b8ff" d="M558.39,-171.63C535.05,-160.35 501.79,-144.27 481.62,-134.52"/>
<polygon fill="#63b8ff" stroke="#63b8ff" points="556.88,-174.79 567.41,-175.99 559.93,-168.49 556.88,-174.79"/>
</a>
</g>
</g>
<!-- Node5 -->
<g id="Node000005" class="node">
<title>Node5</title>
<g id="a_Node000005"><a xlink:href="_ajax_2_screen_mgr_2_api_8h.html" target="_top" xlink:title=" ">
<polygon fill="white" stroke="#666666" points="663.5,-134.5 542.5,-134.5 542.5,-115.5 663.5,-115.5 663.5,-134.5"/>
<text text-anchor="middle" x="603" y="-122.5" font-family="Helvetica,sans-Serif" font-size="10.00">Ajax/ScreenMgr/Api.h</text>
</a>
</g>
</g>
<!-- Node3&#45;&gt;Node5 -->
<g id="edge4_Node000003_Node000005" class="edge">
<title>Node3&#45;&gt;Node5</title>
<g id="a_edge4_Node000003_Node000005"><a xlink:title=" ">
<path fill="none" stroke="#63b8ff" d="M590.69,-165.99C593.92,-155.51 597.8,-142.89 600.33,-134.67"/>
<polygon fill="#63b8ff" stroke="#63b8ff" points="587.25,-165.28 587.66,-175.87 593.94,-167.34 587.25,-165.28"/>
</a>
</g>
</g>
<!-- Node10 -->
<g id="Node000010" class="node">
<title>Node10</title>
<g id="a_Node000010"><a xlink:href="_ajax_2_ui_2_status_indicator_2_api_8h.html" target="_top" xlink:title=" ">
<polygon fill="white" stroke="#666666" points="386,-140 258,-140 258,-110 386,-110 386,-140"/>
<text text-anchor="start" x="266" y="-128" font-family="Helvetica,sans-Serif" font-size="10.00">Ajax/Ui/StatusIndicator</text>
<text text-anchor="middle" x="322" y="-117" font-family="Helvetica,sans-Serif" font-size="10.00">/Api.h</text>
</a>
</g>
</g>
<!-- Node3&#45;&gt;Node10 -->
<g id="edge11_Node000003_Node000010" class="edge">
<title>Node3&#45;&gt;Node10</title>
<g id="a_edge11_Node000003_Node000010"><a xlink:title=" ">
<path fill="none" stroke="#63b8ff" d="M536.9,-173.8C494.23,-164.31 431.62,-150.38 384.97,-140.01"/>
<polygon fill="#63b8ff" stroke="#63b8ff" points="536.24,-177.24 546.76,-175.99 537.76,-170.41 536.24,-177.24"/>
</a>
</g>
</g>
<!-- Node3&#45;&gt;Node11 -->
<g id="edge12_Node000003_Node000011" class="edge">
<title>Node3&#45;&gt;Node11</title>
<g id="a_edge12_Node000003_Node000011"><a xlink:title=" ">
<path fill="none" stroke="#63b8ff" d="M623.75,-173.11C662.24,-161.79 720.38,-144.7 755.03,-134.52"/>
<polygon fill="#63b8ff" stroke="#63b8ff" points="622.54,-169.82 613.94,-175.99 624.52,-176.53 622.54,-169.82"/>
</a>
</g>
</g>
<!-- Node3&#45;&gt;Node13 -->
<g id="edge14_Node000003_Node000013" class="edge">
<title>Node3&#45;&gt;Node13</title>
<g id="a_edge14_Node000003_Node000013"><a xlink:title=" ">
<path fill="none" stroke="#63b8ff" d="M648.7,-174.4C703.86,-165.59 785.76,-152.3 857,-140 866.91,-138.29 877.52,-136.4 887.61,-134.57"/>
<polygon fill="#63b8ff" stroke="#63b8ff" points="648.04,-170.97 638.72,-176 649.15,-177.88 648.04,-170.97"/>
</a>
</g>
</g>
<!-- Node5&#45;&gt;Node6 -->
<g id="edge5_Node000005_Node000006" class="edge">
<title>Node5&#45;&gt;Node6</title>
<g id="a_edge5_Node000005_Node000006"><a xlink:title=" ">
<path fill="none" stroke="#63b8ff" d="M550.94,-113.46C495.16,-102.17 407.68,-84.46 356.07,-74.02"/>
<polygon fill="#63b8ff" stroke="#63b8ff" points="550.48,-116.94 560.98,-115.49 551.87,-110.08 550.48,-116.94"/>
</a>
</g>
</g>
<!-- Node5&#45;&gt;Node8 -->
<g id="edge7_Node000005_Node000008" class="edge">
<title>Node5&#45;&gt;Node8</title>
<g id="a_edge7_Node000005_Node000008"><a xlink:title=" ">
<path fill="none" stroke="#63b8ff" d="M574,-111.43C547.93,-100.14 510.36,-83.86 487.65,-74.02"/>
<polygon fill="#63b8ff" stroke="#63b8ff" points="572.8,-114.73 583.37,-115.49 575.59,-108.31 572.8,-114.73"/>
</a>
</g>
</g>
<!-- Node5&#45;&gt;Node9 -->
<g id="edge9_Node000005_Node000009" class="edge">
<title>Node5&#45;&gt;Node9</title>
<g id="a_edge9_Node000005_Node000009"><a xlink:title=" ">
<path fill="none" stroke="#63b8ff" d="M609.21,-105.82C612.82,-95.28 617.2,-82.48 620.04,-74.17"/>
<polygon fill="#63b8ff" stroke="#63b8ff" points="605.87,-104.77 605.95,-115.37 612.5,-107.04 605.87,-104.77"/>
</a>
</g>
</g>
<!-- Node7 -->
<g id="Node000007" class="node">
<title>Node7</title>
<g id="a_Node000007"><a xlink:href="_ajax_2_main_2screens_8h.html" target="_top" xlink:title="This file exposes handles to Screen instances for the Ajax Application.">
<polygon fill="white" stroke="#666666" points="525.5,-19 410.5,-19 410.5,0 525.5,0 525.5,-19"/>
<text text-anchor="middle" x="468" y="-7" font-family="Helvetica,sans-Serif" font-size="10.00">Ajax/Main/screens.h</text>
</a>
</g>
</g>
<!-- Node6&#45;&gt;Node7 -->
<g id="edge6_Node000006_Node000007" class="edge">
<title>Node6&#45;&gt;Node7</title>
<g id="a_edge6_Node000006_Node000007"><a xlink:title=" ">
<path fill="none" stroke="#63b8ff" d="M348.38,-51.67C377.09,-41.79 417.36,-27.93 443.06,-19.08"/>
<polygon fill="#63b8ff" stroke="#63b8ff" points="347.06,-48.42 338.74,-54.98 349.34,-55.04 347.06,-48.42"/>
</a>
</g>
</g>
<!-- Node8&#45;&gt;Node7 -->
<g id="edge8_Node000008_Node000007" class="edge">
<title>Node8&#45;&gt;Node7</title>
<g id="a_edge8_Node000008_Node000007"><a xlink:title=" ">
<path fill="none" stroke="#63b8ff" d="M468,-44.66C468,-35.93 468,-25.99 468,-19.09"/>
<polygon fill="#63b8ff" stroke="#63b8ff" points="464.5,-44.75 468,-54.75 471.5,-44.75 464.5,-44.75"/>
</a>
</g>
</g>
<!-- Node9&#45;&gt;Node7 -->
<g id="edge10_Node000009_Node000007" class="edge">
<title>Node9&#45;&gt;Node7</title>
<g id="a_edge10_Node000009_Node000007"><a xlink:title=" ">
<path fill="none" stroke="#63b8ff" d="M588.4,-51.67C559.5,-41.79 518.97,-27.93 493.1,-19.08"/>
<polygon fill="#63b8ff" stroke="#63b8ff" points="587.5,-55.06 598.1,-54.98 589.77,-48.44 587.5,-55.06"/>
</a>
</g>
</g>
<!-- Node12 -->
<g id="Node000012" class="node">
<title>Node12</title>
<g id="a_Node000012"><a xlink:href="_eros_2_main_2screens_8h.html" target="_top" xlink:title="This file exposes handles to Screen instances for the Eros Application.">
<polygon fill="white" stroke="#666666" points="916,-74 802,-74 802,-55 916,-55 916,-74"/>
<text text-anchor="middle" x="859" y="-62" font-family="Helvetica,sans-Serif" font-size="10.00">Eros/Main/screens.h</text>
</a>
</g>
</g>
<!-- Node11&#45;&gt;Node12 -->
<g id="edge13_Node000011_Node000012" class="edge">
<title>Node11&#45;&gt;Node12</title>
<g id="a_edge13_Node000011_Node000012"><a xlink:title=" ">
<path fill="none" stroke="#63b8ff" d="M803.18,-109.04C817.35,-97.99 836.13,-83.34 847.89,-74.17"/>
<polygon fill="#63b8ff" stroke="#63b8ff" points="800.8,-106.46 795.07,-115.37 805.1,-111.98 800.8,-106.46"/>
</a>
</g>
</g>
<!-- Node13&#45;&gt;Node12 -->
<g id="edge15_Node000013_Node000012" class="edge">
<title>Node13&#45;&gt;Node12</title>
<g id="a_edge15_Node000013_Node000012"><a xlink:title=" ">
<path fill="none" stroke="#63b8ff" d="M914.82,-109.04C900.65,-97.99 881.87,-83.34 870.11,-74.17"/>
<polygon fill="#63b8ff" stroke="#63b8ff" points="912.9,-111.98 922.93,-115.37 917.2,-106.46 912.9,-111.98"/>
</a>
</g>
</g>
</g>
</svg>
