<?xml version="1.0" encoding="UTF-8" standalone="no"?>
<!DOCTYPE svg PUBLIC "-//W3C//DTD SVG 1.1//EN"
 "http://www.w3.org/Graphics/SVG/1.1/DTD/svg11.dtd">
<!-- Generated by graphviz version 9.0.0 (20230911.1827)
 -->
<!-- Title: Cpl/Io/Serial/ST/M32F4/InputOutput.h Pages: 1 -->
<svg width="886pt" height="381pt"
 viewBox="0.00 0.00 886.32 381.25" xmlns="http://www.w3.org/2000/svg" xmlns:xlink="http://www.w3.org/1999/xlink">
<g id="graph0" class="graph" transform="scale(1 1) rotate(0) translate(4 377.25)">
<title>Cpl/Io/Serial/ST/M32F4/InputOutput.h</title>
<!-- Node1 -->
<g id="Node000001" class="node">
<title>Node1</title>
<g id="a_Node000001"><a xlink:title=" ">
<polygon fill="#999999" stroke="#666666" points="375.25,-373.25 257.25,-373.25 257.25,-342.75 375.25,-342.75 375.25,-373.25"/>
<text text-anchor="start" x="265.25" y="-359.75" font-family="Helvetica,sans-Serif" font-size="10.00">Cpl/Io/Serial/ST/M32F4</text>
<text text-anchor="middle" x="316.25" y="-348.5" font-family="Helvetica,sans-Serif" font-size="10.00">/InputOutput.h</text>
</a>
</g>
</g>
<!-- Node2 -->
<g id="Node000002" class="node">
<title>Node2</title>
<g id="a_Node000002"><a xlink:href="_input_output_8h.html" target="_top" xlink:title=" ">
<polygon fill="white" stroke="#666666" points="327.75,-306.75 224.75,-306.75 224.75,-287.5 327.75,-287.5 327.75,-306.75"/>
<text text-anchor="middle" x="276.25" y="-293.25" font-family="Helvetica,sans-Serif" font-size="10.00">Cpl/Io/InputOutput.h</text>
</a>
</g>
</g>
<!-- Node1&#45;&gt;Node2 -->
<g id="edge1_Node000001_Node000002" class="edge">
<title>Node1&#45;&gt;Node2</title>
<g id="a_edge1_Node000001_Node000002"><a xlink:title=" ">
<path fill="none" stroke="#63b8ff" d="M306.36,-342.45C301.03,-334.6 294.4,-324.85 288.72,-316.49"/>
<polygon fill="#63b8ff" stroke="#63b8ff" points="291.78,-314.76 283.27,-308.45 285.99,-318.69 291.78,-314.76"/>
</a>
</g>
</g>
<!-- Node18 -->
<g id="Node000018" class="node">
<title>Node18</title>
<g id="a_Node000018"><a xlink:href="_stream_driver_8h.html" target="_top" xlink:title=" ">
<polygon fill="white" stroke="#666666" points="571.25,-196.25 453.25,-196.25 453.25,-165.75 571.25,-165.75 571.25,-196.25"/>
<text text-anchor="start" x="461.25" y="-182.75" font-family="Helvetica,sans-Serif" font-size="10.00">Cpl/Io/Serial/ST/M32F4</text>
<text text-anchor="middle" x="512.25" y="-171.5" font-family="Helvetica,sans-Serif" font-size="10.00">/StreamDriver.h</text>
</a>
</g>
</g>
<!-- Node1&#45;&gt;Node18 -->
<g id="edge22_Node000001_Node000018" class="edge">
<title>Node1&#45;&gt;Node18</title>
<g id="a_edge22_Node000001_Node000018"><a xlink:title=" ">
<path fill="none" stroke="#63b8ff" d="M332.62,-342.38C366.92,-311.76 446.51,-240.7 487.25,-204.33"/>
<polygon fill="#63b8ff" stroke="#63b8ff" points="489.53,-206.98 494.66,-197.71 484.87,-201.76 489.53,-206.98"/>
</a>
</g>
</g>
<!-- Node3 -->
<g id="Node000003" class="node">
<title>Node3</title>
<g id="a_Node000003"><a xlink:href="_input_8h.html" target="_top" xlink:title=" ">
<polygon fill="white" stroke="#666666" points="313.12,-251.5 239.38,-251.5 239.38,-232.25 313.12,-232.25 313.12,-251.5"/>
<text text-anchor="middle" x="276.25" y="-238" font-family="Helvetica,sans-Serif" font-size="10.00">Cpl/Io/Input.h</text>
</a>
</g>
</g>
<!-- Node2&#45;&gt;Node3 -->
<g id="edge2_Node000002_Node000003" class="edge">
<title>Node2&#45;&gt;Node3</title>
<g id="a_edge2_Node000002_Node000003"><a xlink:title=" ">
<path fill="none" stroke="#63b8ff" d="M276.25,-287.33C276.25,-280.82 276.25,-271.67 276.25,-263.37"/>
<polygon fill="#63b8ff" stroke="#63b8ff" points="279.75,-263.37 276.25,-253.37 272.75,-263.37 279.75,-263.37"/>
</a>
</g>
</g>
<!-- Node17 -->
<g id="Node000017" class="node">
<title>Node17</title>
<g id="a_Node000017"><a xlink:href="_output_8h.html" target="_top" xlink:title=" ">
<polygon fill="white" stroke="#666666" points="220.88,-251.5 139.62,-251.5 139.62,-232.25 220.88,-232.25 220.88,-251.5"/>
<text text-anchor="middle" x="180.25" y="-238" font-family="Helvetica,sans-Serif" font-size="10.00">Cpl/Io/Output.h</text>
</a>
</g>
</g>
<!-- Node2&#45;&gt;Node17 -->
<g id="edge17_Node000002_Node000017" class="edge">
<title>Node2&#45;&gt;Node17</title>
<g id="a_edge17_Node000002_Node000017"><a xlink:title=" ">
<path fill="none" stroke="#63b8ff" d="M259.96,-287.09C245.35,-278.98 223.62,-266.93 206.54,-257.46"/>
<polygon fill="#63b8ff" stroke="#63b8ff" points="208.38,-254.48 197.94,-252.69 204.99,-260.6 208.38,-254.48"/>
</a>
</g>
</g>
<!-- Node4 -->
<g id="Node000004" class="node">
<title>Node4</title>
<g id="a_Node000004"><a xlink:href="_text_2_string_8h.html" target="_top" xlink:title=" ">
<polygon fill="white" stroke="#666666" points="272.25,-190.62 184.25,-190.62 184.25,-171.38 272.25,-171.38 272.25,-190.62"/>
<text text-anchor="middle" x="228.25" y="-177.12" font-family="Helvetica,sans-Serif" font-size="10.00">Cpl/Text/String.h</text>
</a>
</g>
</g>
<!-- Node3&#45;&gt;Node4 -->
<g id="edge3_Node000003_Node000004" class="edge">
<title>Node3&#45;&gt;Node4</title>
<g id="a_edge3_Node000003_Node000004"><a xlink:title=" ">
<path fill="none" stroke="#63b8ff" d="M268.96,-231.93C262.05,-223.46 251.48,-210.49 242.84,-199.89"/>
<polygon fill="#63b8ff" stroke="#63b8ff" points="245.6,-197.74 236.57,-192.2 240.17,-202.16 245.6,-197.74"/>
</a>
</g>
</g>
<!-- Node14 -->
<g id="Node000014" class="node">
<title>Node14</title>
<g id="a_Node000014"><a xlink:href="_close_8h.html" target="_top" xlink:title=" ">
<polygon fill="white" stroke="#666666" points="166.62,-190.62 89.88,-190.62 89.88,-171.38 166.62,-171.38 166.62,-190.62"/>
<text text-anchor="middle" x="128.25" y="-177.12" font-family="Helvetica,sans-Serif" font-size="10.00">Cpl/Io/Close.h</text>
</a>
</g>
</g>
<!-- Node3&#45;&gt;Node14 -->
<g id="edge14_Node000003_Node000014" class="edge">
<title>Node3&#45;&gt;Node14</title>
<g id="a_edge14_Node000003_Node000014"><a xlink:title=" ">
<path fill="none" stroke="#63b8ff" d="M253.45,-231.8C228.83,-222.01 189.37,-206.31 161.33,-195.16"/>
<polygon fill="#63b8ff" stroke="#63b8ff" points="162.83,-191.99 152.24,-191.54 160.24,-198.49 162.83,-191.99"/>
</a>
</g>
</g>
<!-- Node16 -->
<g id="Node000016" class="node">
<title>Node16</title>
<g id="a_Node000016"><a xlink:href="_is_eos_8h.html" target="_top" xlink:title=" ">
<polygon fill="white" stroke="#666666" points="366.62,-190.62 289.88,-190.62 289.88,-171.38 366.62,-171.38 366.62,-190.62"/>
<text text-anchor="middle" x="328.25" y="-177.12" font-family="Helvetica,sans-Serif" font-size="10.00">Cpl/Io/IsEos.h</text>
</a>
</g>
</g>
<!-- Node3&#45;&gt;Node16 -->
<g id="edge16_Node000003_Node000016" class="edge">
<title>Node3&#45;&gt;Node16</title>
<g id="a_edge16_Node000003_Node000016"><a xlink:title=" ">
<path fill="none" stroke="#63b8ff" d="M284.15,-231.93C291.71,-223.37 303.32,-210.23 312.73,-199.57"/>
<polygon fill="#63b8ff" stroke="#63b8ff" points="315.28,-201.97 319.28,-192.16 310.03,-197.34 315.28,-201.97"/>
</a>
</g>
</g>
<!-- Node5 -->
<g id="Node000005" class="node">
<title>Node5</title>
<g id="a_Node000005"><a xlink:title=" ">
<polygon fill="#e0e0e0" stroke="#999999" points="408.88,-74.5 333.62,-74.5 333.62,-55.25 408.88,-55.25 408.88,-74.5"/>
<text text-anchor="middle" x="371.25" y="-61" font-family="Helvetica,sans-Serif" font-size="10.00">colony_map.h</text>
</a>
</g>
</g>
<!-- Node4&#45;&gt;Node5 -->
<g id="edge4_Node000004_Node000005" class="edge">
<title>Node4&#45;&gt;Node5</title>
<g id="a_edge4_Node000004_Node000005"><a xlink:title=" ">
<path fill="none" stroke="#63b8ff" d="M261.28,-170.93C267.89,-169.17 274.78,-167.37 281.25,-165.75 349.85,-148.57 392.26,-185.13 436.25,-129.75 451.08,-111.08 425.93,-92.26 402.72,-79.93"/>
<polygon fill="#63b8ff" stroke="#63b8ff" points="404.55,-76.93 394.04,-75.58 401.42,-83.19 404.55,-76.93"/>
</a>
</g>
</g>
<!-- Node6 -->
<g id="Node000006" class="node">
<title>Node6</title>
<g id="a_Node000006"><a xlink:href="_key_8h.html" target="_top" xlink:title=" ">
<polygon fill="white" stroke="#666666" points="279,-129.75 177.5,-129.75 177.5,-110.5 279,-110.5 279,-129.75"/>
<text text-anchor="middle" x="228.25" y="-116.25" font-family="Helvetica,sans-Serif" font-size="10.00">Cpl/Container/Key.h</text>
</a>
</g>
</g>
<!-- Node4&#45;&gt;Node6 -->
<g id="edge5_Node000004_Node000006" class="edge">
<title>Node4&#45;&gt;Node6</title>
<g id="a_edge5_Node000004_Node000006"><a xlink:title=" ">
<path fill="none" stroke="#63b8ff" d="M228.25,-171.06C228.25,-163.28 228.25,-151.7 228.25,-141.66"/>
<polygon fill="#63b8ff" stroke="#63b8ff" points="231.75,-141.66 228.25,-131.66 224.75,-141.66 231.75,-141.66"/>
</a>
</g>
</g>
<!-- Node12 -->
<g id="Node000012" class="node">
<title>Node12</title>
<g id="a_Node000012"><a xlink:title=" ">
<polygon fill="#e0e0e0" stroke="#999999" points="87.5,-129.75 37,-129.75 37,-110.5 87.5,-110.5 87.5,-129.75"/>
<text text-anchor="middle" x="62.25" y="-116.25" font-family="Helvetica,sans-Serif" font-size="10.00">stdarg.h</text>
</a>
</g>
</g>
<!-- Node4&#45;&gt;Node12 -->
<g id="edge12_Node000004_Node000012" class="edge">
<title>Node4&#45;&gt;Node12</title>
<g id="a_edge12_Node000004_Node000012"><a xlink:title=" ">
<path fill="none" stroke="#63b8ff" d="M202.68,-170.93C174.77,-161.03 129.88,-145.11 98.39,-133.94"/>
<polygon fill="#63b8ff" stroke="#63b8ff" points="99.87,-130.76 89.28,-130.71 97.53,-137.35 99.87,-130.76"/>
</a>
</g>
</g>
<!-- Node13 -->
<g id="Node000013" class="node">
<title>Node13</title>
<g id="a_Node000013"><a xlink:title=" ">
<polygon fill="#e0e0e0" stroke="#999999" points="159,-129.75 105.5,-129.75 105.5,-110.5 159,-110.5 159,-129.75"/>
<text text-anchor="middle" x="132.25" y="-116.25" font-family="Helvetica,sans-Serif" font-size="10.00">iostream</text>
</a>
</g>
</g>
<!-- Node4&#45;&gt;Node13 -->
<g id="edge13_Node000004_Node000013" class="edge">
<title>Node4&#45;&gt;Node13</title>
<g id="a_edge13_Node000004_Node000013"><a xlink:title=" ">
<path fill="none" stroke="#63b8ff" d="M213.67,-171.06C198.59,-161.81 174.76,-147.2 156.77,-136.17"/>
<polygon fill="#63b8ff" stroke="#63b8ff" points="158.61,-133.19 148.26,-130.94 154.95,-139.15 158.61,-133.19"/>
</a>
</g>
</g>
<!-- Node6&#45;&gt;Node5 -->
<g id="edge11_Node000006_Node000005" class="edge">
<title>Node6&#45;&gt;Node5</title>
<g id="a_edge11_Node000006_Node000005"><a xlink:title=" ">
<path fill="none" stroke="#63b8ff" d="M252.51,-110.09C275.52,-101.52 310.34,-88.56 336.33,-78.88"/>
<polygon fill="#63b8ff" stroke="#63b8ff" points="337.3,-82.25 345.45,-75.48 334.86,-75.69 337.3,-82.25"/>
</a>
</g>
</g>
<!-- Node7 -->
<g id="Node000007" class="node">
<title>Node7</title>
<g id="a_Node000007"><a xlink:href="_fatal_error_8h.html" target="_top" xlink:title=" ">
<polygon fill="white" stroke="#666666" points="250.62,-74.5 131.88,-74.5 131.88,-55.25 250.62,-55.25 250.62,-74.5"/>
<text text-anchor="middle" x="191.25" y="-61" font-family="Helvetica,sans-Serif" font-size="10.00">Cpl/System/FatalError.h</text>
</a>
</g>
</g>
<!-- Node6&#45;&gt;Node7 -->
<g id="edge6_Node000006_Node000007" class="edge">
<title>Node6&#45;&gt;Node7</title>
<g id="a_edge6_Node000006_Node000007"><a xlink:title=" ">
<path fill="none" stroke="#63b8ff" d="M222.14,-110.33C217.19,-103.21 210.05,-92.93 203.88,-84.05"/>
<polygon fill="#63b8ff" stroke="#63b8ff" points="206.94,-82.32 198.36,-76.1 201.19,-86.31 206.94,-82.32"/>
</a>
</g>
</g>
<!-- Node10 -->
<g id="Node000010" class="node">
<title>Node10</title>
<g id="a_Node000010"><a xlink:title=" ">
<polygon fill="#e0e0e0" stroke="#999999" points="316,-74.5 268.5,-74.5 268.5,-55.25 316,-55.25 316,-74.5"/>
<text text-anchor="middle" x="292.25" y="-61" font-family="Helvetica,sans-Serif" font-size="10.00">stdint.h</text>
</a>
</g>
</g>
<!-- Node6&#45;&gt;Node10 -->
<g id="edge9_Node000006_Node000010" class="edge">
<title>Node6&#45;&gt;Node10</title>
<g id="a_edge9_Node000006_Node000010"><a xlink:title=" ">
<path fill="none" stroke="#63b8ff" d="M239.11,-110.09C248.36,-102.4 261.87,-91.15 272.96,-81.93"/>
<polygon fill="#63b8ff" stroke="#63b8ff" points="274.94,-84.83 280.39,-75.74 270.46,-79.45 274.94,-84.83"/>
</a>
</g>
</g>
<!-- Node11 -->
<g id="Node000011" class="node">
<title>Node11</title>
<g id="a_Node000011"><a xlink:title=" ">
<polygon fill="#e0e0e0" stroke="#999999" points="114,-74.5 66.5,-74.5 66.5,-55.25 114,-55.25 114,-74.5"/>
<text text-anchor="middle" x="90.25" y="-61" font-family="Helvetica,sans-Serif" font-size="10.00">string.h</text>
</a>
</g>
</g>
<!-- Node6&#45;&gt;Node11 -->
<g id="edge10_Node000006_Node000011" class="edge">
<title>Node6&#45;&gt;Node11</title>
<g id="a_edge10_Node000006_Node000011"><a xlink:title=" ">
<path fill="none" stroke="#63b8ff" d="M204.84,-110.09C182.73,-101.56 149.33,-88.67 124.28,-79.01"/>
<polygon fill="#63b8ff" stroke="#63b8ff" points="125.78,-75.83 115.19,-75.5 123.26,-82.36 125.78,-75.83"/>
</a>
</g>
</g>
<!-- Node8 -->
<g id="Node000008" class="node">
<title>Node8</title>
<g id="a_Node000008"><a xlink:title=" ">
<polygon fill="#e0e0e0" stroke="#999999" points="216.5,-19.25 166,-19.25 166,0 216.5,0 216.5,-19.25"/>
<text text-anchor="middle" x="191.25" y="-5.75" font-family="Helvetica,sans-Serif" font-size="10.00">stddef.h</text>
</a>
</g>
</g>
<!-- Node7&#45;&gt;Node8 -->
<g id="edge7_Node000007_Node000008" class="edge">
<title>Node7&#45;&gt;Node8</title>
<g id="a_edge7_Node000007_Node000008"><a xlink:title=" ">
<path fill="none" stroke="#63b8ff" d="M191.25,-55.08C191.25,-48.57 191.25,-39.42 191.25,-31.12"/>
<polygon fill="#63b8ff" stroke="#63b8ff" points="194.75,-31.12 191.25,-21.12 187.75,-31.12 194.75,-31.12"/>
</a>
</g>
</g>
<!-- Node9 -->
<g id="Node000009" class="node">
<title>Node9</title>
<g id="a_Node000009"><a xlink:title=" ">
<polygon fill="#e0e0e0" stroke="#999999" points="625.25,-19.25 543.25,-19.25 543.25,0 625.25,0 625.25,-19.25"/>
<text text-anchor="middle" x="584.25" y="-5.75" font-family="Helvetica,sans-Serif" font-size="10.00">colony_config.h</text>
</a>
</g>
</g>
<!-- Node7&#45;&gt;Node9 -->
<g id="edge8_Node000007_Node000009" class="edge">
<title>Node7&#45;&gt;Node9</title>
<g id="a_edge8_Node000007_Node000009"><a xlink:title=" ">
<path fill="none" stroke="#63b8ff" d="M250.94,-55.79C327.47,-45.42 458.98,-27.6 531.83,-17.73"/>
<polygon fill="#63b8ff" stroke="#63b8ff" points="532.06,-21.23 541.5,-16.42 531.12,-14.29 532.06,-21.23"/>
</a>
</g>
</g>
<!-- Node15 -->
<g id="Node000015" class="node">
<title>Node15</title>
<g id="a_Node000015"><a xlink:href="_item_8h.html" target="_top" xlink:title=" ">
<polygon fill="white" stroke="#666666" points="104.5,-19.25 0,-19.25 0,0 104.5,0 104.5,-19.25"/>
<text text-anchor="middle" x="52.25" y="-5.75" font-family="Helvetica,sans-Serif" font-size="10.00">Cpl/Container/Item.h</text>
</a>
</g>
</g>
<!-- Node14&#45;&gt;Node15 -->
<g id="edge15_Node000014_Node000015" class="edge">
<title>Node14&#45;&gt;Node15</title>
<g id="a_edge15_Node000014_Node000015"><a xlink:title=" ">
<path fill="none" stroke="#63b8ff" d="M89.56,-171.25C67.48,-164.07 41.61,-151.41 28.25,-129.75 8.85,-98.29 27.24,-54.11 40.78,-29.34"/>
<polygon fill="#63b8ff" stroke="#63b8ff" points="43.77,-31.17 45.75,-20.76 37.71,-27.66 43.77,-31.17"/>
</a>
</g>
</g>
<!-- Node17&#45;&gt;Node4 -->
<g id="edge18_Node000017_Node000004" class="edge">
<title>Node17&#45;&gt;Node4</title>
<g id="a_edge18_Node000017_Node000004"><a xlink:title=" ">
<path fill="none" stroke="#63b8ff" d="M187.54,-231.93C194.45,-223.46 205.02,-210.49 213.66,-199.89"/>
<polygon fill="#63b8ff" stroke="#63b8ff" points="216.33,-202.16 219.93,-192.2 210.9,-197.74 216.33,-202.16"/>
</a>
</g>
</g>
<!-- Node17&#45;&gt;Node12 -->
<g id="edge21_Node000017_Node000012" class="edge">
<title>Node17&#45;&gt;Node12</title>
<g id="a_edge21_Node000017_Node000012"><a xlink:title=" ">
<path fill="none" stroke="#63b8ff" d="M140.41,-231.81C119.96,-225.2 96.27,-214.17 81.25,-196.25 68.3,-180.8 64,-157.71 62.66,-141.21"/>
<polygon fill="#63b8ff" stroke="#63b8ff" points="66.18,-141.44 62.19,-131.62 59.19,-141.78 66.18,-141.44"/>
</a>
</g>
</g>
<!-- Node17&#45;&gt;Node14 -->
<g id="edge19_Node000017_Node000014" class="edge">
<title>Node17&#45;&gt;Node14</title>
<g id="a_edge19_Node000017_Node000014"><a xlink:title=" ">
<path fill="none" stroke="#63b8ff" d="M172.35,-231.93C164.79,-223.37 153.18,-210.23 143.77,-199.57"/>
<polygon fill="#63b8ff" stroke="#63b8ff" points="146.47,-197.34 137.22,-192.16 141.22,-201.97 146.47,-197.34"/>
</a>
</g>
</g>
<!-- Node17&#45;&gt;Node16 -->
<g id="edge20_Node000017_Node000016" class="edge">
<title>Node17&#45;&gt;Node16</title>
<g id="a_edge20_Node000017_Node000016"><a xlink:title=" ">
<path fill="none" stroke="#63b8ff" d="M203.05,-231.8C227.67,-222.01 267.13,-206.31 295.17,-195.16"/>
<polygon fill="#63b8ff" stroke="#63b8ff" points="296.26,-198.49 304.26,-191.54 293.67,-191.99 296.26,-198.49"/>
</a>
</g>
</g>
<!-- Node18&#45;&gt;Node9 -->
<g id="edge23_Node000018_Node000009" class="edge">
<title>Node18&#45;&gt;Node9</title>
<g id="a_edge23_Node000018_Node000009"><a xlink:title=" ">
<path fill="none" stroke="#63b8ff" d="M571.58,-171.39C664.58,-156.55 837.86,-123 874.25,-74.5 879.38,-67.66 879.82,-61.74 874.25,-55.25 844.24,-20.27 711.75,-12.44 636.66,-10.86"/>
<polygon fill="#63b8ff" stroke="#63b8ff" points="637.14,-7.37 627.08,-10.69 637.02,-14.37 637.14,-7.37"/>
</a>
</g>
</g>
<!-- Node19 -->
<g id="Node000019" class="node">
<title>Node19</title>
<g id="a_Node000019"><a xlink:title=" ">
<polygon fill="#e0e0e0" stroke="#999999" points="541.25,-129.75 483.25,-129.75 483.25,-110.5 541.25,-110.5 541.25,-129.75"/>
<text text-anchor="middle" x="512.25" y="-116.25" font-family="Helvetica,sans-Serif" font-size="10.00">Bsp/Api.h</text>
</a>
</g>
</g>
<!-- Node18&#45;&gt;Node19 -->
<g id="edge24_Node000018_Node000019" class="edge">
<title>Node18&#45;&gt;Node19</title>
<g id="a_edge24_Node000018_Node000019"><a xlink:title=" ">
<path fill="none" stroke="#63b8ff" d="M512.25,-165.45C512.25,-158.21 512.25,-149.34 512.25,-141.44"/>
<polygon fill="#63b8ff" stroke="#63b8ff" points="515.75,-141.71 512.25,-131.71 508.75,-141.71 515.75,-141.71"/>
</a>
</g>
</g>
<!-- Node20 -->
<g id="Node000020" class="node">
<title>Node20</title>
<g id="a_Node000020"><a xlink:href="_ring_buffer_8h.html" target="_top" xlink:title=" ">
<polygon fill="white" stroke="#666666" points="427.25,-129.75 297.25,-129.75 297.25,-110.5 427.25,-110.5 427.25,-129.75"/>
<text text-anchor="middle" x="362.25" y="-116.25" font-family="Helvetica,sans-Serif" font-size="10.00">Cpl/Container/RingBuffer.h</text>
</a>
</g>
</g>
<!-- Node18&#45;&gt;Node20 -->
<g id="edge25_Node000018_Node000020" class="edge">
<title>Node18&#45;&gt;Node20</title>
<g id="a_edge25_Node000018_Node000020"><a xlink:title=" ">
<path fill="none" stroke="#63b8ff" d="M474.79,-165.3C450.51,-155.77 419.18,-143.47 395.74,-134.27"/>
<polygon fill="#63b8ff" stroke="#63b8ff" points="397.25,-131.1 386.66,-130.71 394.69,-137.62 397.25,-131.1"/>
</a>
</g>
</g>
<!-- Node21 -->
<g id="Node000021" class="node">
<title>Node21</title>
<g id="a_Node000021"><a xlink:href="_thread_8h.html" target="_top" xlink:title=" ">
<polygon fill="white" stroke="#666666" points="665.62,-129.75 558.88,-129.75 558.88,-110.5 665.62,-110.5 665.62,-129.75"/>
<text text-anchor="middle" x="612.25" y="-116.25" font-family="Helvetica,sans-Serif" font-size="10.00">Cpl/System/Thread.h</text>
</a>
</g>
</g>
<!-- Node18&#45;&gt;Node21 -->
<g id="edge27_Node000018_Node000021" class="edge">
<title>Node18&#45;&gt;Node21</title>
<g id="a_edge27_Node000018_Node000021"><a xlink:title=" ">
<path fill="none" stroke="#63b8ff" d="M537.23,-165.3C552.46,-156.33 571.86,-144.91 587.12,-135.92"/>
<polygon fill="#63b8ff" stroke="#63b8ff" points="588.77,-139.01 595.61,-130.92 585.22,-132.98 588.77,-139.01"/>
</a>
</g>
</g>
<!-- Node20&#45;&gt;Node10 -->
<g id="edge26_Node000020_Node000010" class="edge">
<title>Node20&#45;&gt;Node10</title>
<g id="a_edge26_Node000020_Node000010"><a xlink:title=" ">
<path fill="none" stroke="#63b8ff" d="M350.38,-110.09C340.16,-102.32 325.18,-90.92 312.99,-81.65"/>
<polygon fill="#63b8ff" stroke="#63b8ff" points="315.23,-78.96 305.15,-75.69 310.99,-84.53 315.23,-78.96"/>
</a>
</g>
</g>
<!-- Node21&#45;&gt;Node5 -->
<g id="edge28_Node000021_Node000005" class="edge">
<title>Node21&#45;&gt;Node5</title>
<g id="a_edge28_Node000021_Node000005"><a xlink:title=" ">
<path fill="none" stroke="#63b8ff" d="M571.09,-110.03C529.29,-100.8 464.56,-86.49 420.16,-76.68"/>
<polygon fill="#63b8ff" stroke="#63b8ff" points="421.06,-73.3 410.54,-74.56 419.55,-80.13 421.06,-73.3"/>
</a>
</g>
</g>
<!-- Node22 -->
<g id="Node000022" class="node">
<title>Node22</title>
<g id="a_Node000022"><a xlink:href="_runnable_8h.html" target="_top" xlink:title=" ">
<polygon fill="white" stroke="#666666" points="864.88,-74.5 747.62,-74.5 747.62,-55.25 864.88,-55.25 864.88,-74.5"/>
<text text-anchor="middle" x="806.25" y="-61" font-family="Helvetica,sans-Serif" font-size="10.00">Cpl/System/Runnable.h</text>
</a>
</g>
</g>
<!-- Node21&#45;&gt;Node22 -->
<g id="edge29_Node000021_Node000022" class="edge">
<title>Node21&#45;&gt;Node22</title>
<g id="a_edge29_Node000021_Node000022"><a xlink:title=" ">
<path fill="none" stroke="#63b8ff" d="M645.16,-110.09C677.35,-101.26 726.59,-87.74 762.15,-77.98"/>
<polygon fill="#63b8ff" stroke="#63b8ff" points="763,-81.38 771.72,-75.35 761.15,-74.62 763,-81.38"/>
</a>
</g>
</g>
<!-- Node23 -->
<g id="Node000023" class="node">
<title>Node23</title>
<g id="a_Node000023"><a xlink:href="_signable_8h.html" target="_top" xlink:title=" ">
<polygon fill="white" stroke="#666666" points="541.38,-74.5 427.12,-74.5 427.12,-55.25 541.38,-55.25 541.38,-74.5"/>
<text text-anchor="middle" x="484.25" y="-61" font-family="Helvetica,sans-Serif" font-size="10.00">Cpl/System/Signable.h</text>
</a>
</g>
</g>
<!-- Node21&#45;&gt;Node23 -->
<g id="edge30_Node000021_Node000023" class="edge">
<title>Node21&#45;&gt;Node23</title>
<g id="a_edge30_Node000021_Node000023"><a xlink:title=" ">
<path fill="none" stroke="#63b8ff" d="M590.54,-110.09C570.22,-101.64 539.6,-88.9 516.44,-79.27"/>
<polygon fill="#63b8ff" stroke="#63b8ff" points="518.04,-76.14 507.47,-75.53 515.36,-82.61 518.04,-76.14"/>
</a>
</g>
</g>
<!-- Node24 -->
<g id="Node000024" class="node">
<title>Node24</title>
<g id="a_Node000024"><a xlink:href="_traverser_8h.html" target="_top" xlink:title=" ">
<polygon fill="white" stroke="#666666" points="665.25,-74.5 559.25,-74.5 559.25,-55.25 665.25,-55.25 665.25,-74.5"/>
<text text-anchor="middle" x="612.25" y="-61" font-family="Helvetica,sans-Serif" font-size="10.00">Cpl/Type/Traverser.h</text>
</a>
</g>
</g>
<!-- Node21&#45;&gt;Node24 -->
<g id="edge32_Node000021_Node000024" class="edge">
<title>Node21&#45;&gt;Node24</title>
<g id="a_edge32_Node000021_Node000024"><a xlink:title=" ">
<path fill="none" stroke="#63b8ff" d="M612.25,-110.33C612.25,-103.82 612.25,-94.67 612.25,-86.37"/>
<polygon fill="#63b8ff" stroke="#63b8ff" points="615.75,-86.37 612.25,-76.37 608.75,-86.37 615.75,-86.37"/>
</a>
</g>
</g>
<!-- Node25 -->
<g id="Node000025" class="node">
<title>Node25</title>
<g id="a_Node000025"><a xlink:title=" ">
<polygon fill="#e0e0e0" stroke="#999999" points="729.62,-74.5 682.88,-74.5 682.88,-55.25 729.62,-55.25 729.62,-74.5"/>
<text text-anchor="middle" x="706.25" y="-61" font-family="Helvetica,sans-Serif" font-size="10.00">stdlib.h</text>
</a>
</g>
</g>
<!-- Node21&#45;&gt;Node25 -->
<g id="edge33_Node000021_Node000025" class="edge">
<title>Node21&#45;&gt;Node25</title>
<g id="a_edge33_Node000021_Node000025"><a xlink:title=" ">
<path fill="none" stroke="#63b8ff" d="M628.2,-110.09C642.51,-101.98 663.78,-89.93 680.5,-80.46"/>
<polygon fill="#63b8ff" stroke="#63b8ff" points="681.93,-83.67 688.91,-75.7 678.48,-77.58 681.93,-83.67"/>
</a>
</g>
</g>
<!-- Node23&#45;&gt;Node15 -->
<g id="edge31_Node000023_Node000015" class="edge">
<title>Node23&#45;&gt;Node15</title>
<g id="a_edge31_Node000023_Node000015"><a xlink:title=" ">
<path fill="none" stroke="#63b8ff" d="M426.66,-56.32C423.82,-55.96 421,-55.6 418.25,-55.25 312.45,-41.89 189.36,-27.02 116.29,-18.26"/>
<polygon fill="#63b8ff" stroke="#63b8ff" points="116.85,-14.81 106.5,-17.09 116.01,-21.76 116.85,-14.81"/>
</a>
</g>
</g>
</g>
</svg>
