<?xml version="1.0" encoding="UTF-8" standalone="no"?>
<!DOCTYPE svg PUBLIC "-//W3C//DTD SVG 1.1//EN"
 "http://www.w3.org/Graphics/SVG/1.1/DTD/svg11.dtd">
<!-- Generated by graphviz version 9.0.0 (20230911.1827)
 -->
<!-- Title: Cpl/Itc/ServiceMessage.h Pages: 1 -->
<svg width="243pt" height="138pt"
 viewBox="0.00 0.00 242.88 137.75" xmlns="http://www.w3.org/2000/svg" xmlns:xlink="http://www.w3.org/1999/xlink">
<g id="graph0" class="graph" transform="scale(1 1) rotate(0) translate(4 133.75)">
<title>Cpl/Itc/ServiceMessage.h</title>
<!-- Node1 -->
<g id="Node000001" class="node">
<title>Node1</title>
<g id="a_Node000001"><a xlink:title=" ">
<polygon fill="#999999" stroke="#666666" points="178.12,-129.75 50.38,-129.75 50.38,-110.5 178.12,-110.5 178.12,-129.75"/>
<text text-anchor="middle" x="114.25" y="-116.25" font-family="Helvetica,sans-Serif" font-size="10.00">Cpl/Itc/ServiceMessage.h</text>
</a>
</g>
</g>
<!-- Node2 -->
<g id="Node000002" class="node">
<title>Node2</title>
<g id="a_Node000002"><a xlink:href="_message_8h.html" target="_top" xlink:title=" ">
<polygon fill="white" stroke="#666666" points="99.62,-74.5 4.88,-74.5 4.88,-55.25 99.62,-55.25 99.62,-74.5"/>
<text text-anchor="middle" x="52.25" y="-61" font-family="Helvetica,sans-Serif" font-size="10.00">Cpl/Itc/Message.h</text>
</a>
</g>
</g>
<!-- Node1&#45;&gt;Node2 -->
<g id="edge1_Node000001_Node000002" class="edge">
<title>Node1&#45;&gt;Node2</title>
<g id="a_edge1_Node000001_Node000002"><a xlink:title=" ">
<path fill="none" stroke="#63b8ff" d="M103.73,-110.09C94.86,-102.47 81.94,-91.37 71.26,-82.2"/>
<polygon fill="#63b8ff" stroke="#63b8ff" points="73.63,-79.62 63.76,-75.76 69.07,-84.93 73.63,-79.62"/>
</a>
</g>
</g>
<!-- Node4 -->
<g id="Node000004" class="node">
<title>Node4</title>
<g id="a_Node000004"><a xlink:href="_return_handler_8h.html" target="_top" xlink:title=" ">
<polygon fill="white" stroke="#666666" points="234.88,-74.5 117.62,-74.5 117.62,-55.25 234.88,-55.25 234.88,-74.5"/>
<text text-anchor="middle" x="176.25" y="-61" font-family="Helvetica,sans-Serif" font-size="10.00">Cpl/Itc/ReturnHandler.h</text>
</a>
</g>
</g>
<!-- Node1&#45;&gt;Node4 -->
<g id="edge3_Node000001_Node000004" class="edge">
<title>Node1&#45;&gt;Node4</title>
<g id="a_edge3_Node000001_Node000004"><a xlink:title=" ">
<path fill="none" stroke="#63b8ff" d="M124.77,-110.09C133.64,-102.47 146.56,-91.37 157.24,-82.2"/>
<polygon fill="#63b8ff" stroke="#63b8ff" points="159.43,-84.93 164.74,-75.76 154.87,-79.62 159.43,-84.93"/>
</a>
</g>
</g>
<!-- Node3 -->
<g id="Node000003" class="node">
<title>Node3</title>
<g id="a_Node000003"><a xlink:href="_item_8h.html" target="_top" xlink:title=" ">
<polygon fill="white" stroke="#666666" points="104.5,-19.25 0,-19.25 0,0 104.5,0 104.5,-19.25"/>
<text text-anchor="middle" x="52.25" y="-5.75" font-family="Helvetica,sans-Serif" font-size="10.00">Cpl/Container/Item.h</text>
</a>
</g>
</g>
<!-- Node2&#45;&gt;Node3 -->
<g id="edge2_Node000002_Node000003" class="edge">
<title>Node2&#45;&gt;Node3</title>
<g id="a_edge2_Node000002_Node000003"><a xlink:title=" ">
<path fill="none" stroke="#63b8ff" d="M52.25,-55.08C52.25,-48.57 52.25,-39.42 52.25,-31.12"/>
<polygon fill="#63b8ff" stroke="#63b8ff" points="55.75,-31.12 52.25,-21.12 48.75,-31.12 55.75,-31.12"/>
</a>
</g>
</g>
</g>
</svg>
