<?xml version="1.0" encoding="UTF-8" standalone="no"?>
<!DOCTYPE svg PUBLIC "-//W3C//DTD SVG 1.1//EN"
 "http://www.w3.org/Graphics/SVG/1.1/DTD/svg11.dtd">
<!-- Generated by graphviz version 9.0.0 (20230911.1827)
 -->
<!-- Title: Driver/Crypto/Orlp/Sha512.h Pages: 1 -->
<svg width="435pt" height="204pt"
 viewBox="0.00 0.00 435.12 204.25" xmlns="http://www.w3.org/2000/svg" xmlns:xlink="http://www.w3.org/1999/xlink">
<g id="graph0" class="graph" transform="scale(1 1) rotate(0) translate(4 200.25)">
<title>Driver/Crypto/Orlp/Sha512.h</title>
<!-- Node1 -->
<g id="Node000001" class="node">
<title>Node1</title>
<g id="a_Node000001"><a xlink:title=" ">
<polygon fill="#999999" stroke="#666666" points="294.12,-196.25 200.88,-196.25 200.88,-165.75 294.12,-165.75 294.12,-196.25"/>
<text text-anchor="start" x="208.88" y="-182.75" font-family="Helvetica,sans-Serif" font-size="10.00">Driver/Crypto/Orlp</text>
<text text-anchor="middle" x="247.5" y="-171.5" font-family="Helvetica,sans-Serif" font-size="10.00">/Sha512.h</text>
</a>
</g>
</g>
<!-- Node2 -->
<g id="Node000002" class="node">
<title>Node2</title>
<g id="a_Node000002"><a xlink:href="_hash_8h.html" target="_top" xlink:title=" ">
<polygon fill="white" stroke="#666666" points="172.5,-129.75 66.5,-129.75 66.5,-110.5 172.5,-110.5 172.5,-129.75"/>
<text text-anchor="middle" x="119.5" y="-116.25" font-family="Helvetica,sans-Serif" font-size="10.00">Driver/Crypto/Hash.h</text>
</a>
</g>
</g>
<!-- Node1&#45;&gt;Node2 -->
<g id="edge1_Node000001_Node000002" class="edge">
<title>Node1&#45;&gt;Node2</title>
<g id="a_edge1_Node000001_Node000002"><a xlink:title=" ">
<path fill="none" stroke="#63b8ff" d="M215.53,-165.3C195.29,-155.98 169.28,-144.02 149.44,-134.9"/>
<polygon fill="#63b8ff" stroke="#63b8ff" points="151.05,-131.79 140.51,-130.79 148.13,-138.15 151.05,-131.79"/>
</a>
</g>
</g>
<!-- Node7 -->
<g id="Node000007" class="node">
<title>Node7</title>
<g id="a_Node000007"><a xlink:title=" ">
<polygon fill="#e0e0e0" stroke="#999999" points="304.25,-129.75 190.75,-129.75 190.75,-110.5 304.25,-110.5 304.25,-129.75"/>
<text text-anchor="middle" x="247.5" y="-116.25" font-family="Helvetica,sans-Serif" font-size="10.00">orlp/ed25519/sha512.h</text>
</a>
</g>
</g>
<!-- Node1&#45;&gt;Node7 -->
<g id="edge6_Node000001_Node000007" class="edge">
<title>Node1&#45;&gt;Node7</title>
<g id="a_edge6_Node000001_Node000007"><a xlink:title=" ">
<path fill="none" stroke="#63b8ff" d="M247.5,-165.45C247.5,-158.21 247.5,-149.34 247.5,-141.44"/>
<polygon fill="#63b8ff" stroke="#63b8ff" points="251,-141.71 247.5,-131.71 244,-141.71 251,-141.71"/>
</a>
</g>
</g>
<!-- Node8 -->
<g id="Node000008" class="node">
<title>Node8</title>
<g id="a_Node000008"><a xlink:href="_assert_8h.html" target="_top" xlink:title=" ">
<polygon fill="white" stroke="#666666" points="427.12,-129.75 321.88,-129.75 321.88,-110.5 427.12,-110.5 427.12,-129.75"/>
<text text-anchor="middle" x="374.5" y="-116.25" font-family="Helvetica,sans-Serif" font-size="10.00">Cpl/System/Assert.h</text>
</a>
</g>
</g>
<!-- Node1&#45;&gt;Node8 -->
<g id="edge7_Node000001_Node000008" class="edge">
<title>Node1&#45;&gt;Node8</title>
<g id="a_edge7_Node000001_Node000008"><a xlink:title=" ">
<path fill="none" stroke="#63b8ff" d="M279.22,-165.3C299.3,-155.98 325.1,-144.02 344.79,-134.9"/>
<polygon fill="#63b8ff" stroke="#63b8ff" points="346.05,-138.17 353.65,-130.79 343.11,-131.82 346.05,-138.17"/>
</a>
</g>
</g>
<!-- Node3 -->
<g id="Node000003" class="node">
<title>Node3</title>
<g id="a_Node000003"><a xlink:href="_driver_2_crypto_2_api_8h.html" target="_top" xlink:title=" ">
<polygon fill="white" stroke="#666666" points="97,-74.5 0,-74.5 0,-55.25 97,-55.25 97,-74.5"/>
<text text-anchor="middle" x="48.5" y="-61" font-family="Helvetica,sans-Serif" font-size="10.00">Driver/Crypto/Api.h</text>
</a>
</g>
</g>
<!-- Node2&#45;&gt;Node3 -->
<g id="edge2_Node000002_Node000003" class="edge">
<title>Node2&#45;&gt;Node3</title>
<g id="a_edge2_Node000002_Node000003"><a xlink:title=" ">
<path fill="none" stroke="#63b8ff" d="M107.46,-110.09C97.09,-102.32 81.9,-90.92 69.53,-81.65"/>
<polygon fill="#63b8ff" stroke="#63b8ff" points="71.68,-78.88 61.58,-75.68 67.48,-84.48 71.68,-78.88"/>
</a>
</g>
</g>
<!-- Node5 -->
<g id="Node000005" class="node">
<title>Node5</title>
<g id="a_Node000005"><a xlink:title=" ">
<polygon fill="#e0e0e0" stroke="#999999" points="162.25,-74.5 114.75,-74.5 114.75,-55.25 162.25,-55.25 162.25,-74.5"/>
<text text-anchor="middle" x="138.5" y="-61" font-family="Helvetica,sans-Serif" font-size="10.00">stdint.h</text>
</a>
</g>
</g>
<!-- Node2&#45;&gt;Node5 -->
<g id="edge4_Node000002_Node000005" class="edge">
<title>Node2&#45;&gt;Node5</title>
<g id="a_edge4_Node000002_Node000005"><a xlink:title=" ">
<path fill="none" stroke="#63b8ff" d="M122.64,-110.33C125.04,-103.59 128.46,-94.02 131.5,-85.49"/>
<polygon fill="#63b8ff" stroke="#63b8ff" points="134.72,-86.88 134.79,-76.28 128.13,-84.53 134.72,-86.88"/>
</a>
</g>
</g>
<!-- Node6 -->
<g id="Node000006" class="node">
<title>Node6</title>
<g id="a_Node000006"><a xlink:title=" ">
<polygon fill="#e0e0e0" stroke="#999999" points="226.88,-74.5 180.12,-74.5 180.12,-55.25 226.88,-55.25 226.88,-74.5"/>
<text text-anchor="middle" x="203.5" y="-61" font-family="Helvetica,sans-Serif" font-size="10.00">stdlib.h</text>
</a>
</g>
</g>
<!-- Node2&#45;&gt;Node6 -->
<g id="edge5_Node000002_Node000006" class="edge">
<title>Node2&#45;&gt;Node6</title>
<g id="a_edge5_Node000002_Node000006"><a xlink:title=" ">
<path fill="none" stroke="#63b8ff" d="M133.75,-110.09C146.3,-102.14 164.83,-90.39 179.64,-81"/>
<polygon fill="#63b8ff" stroke="#63b8ff" points="181.33,-84.07 187.9,-75.76 177.58,-78.16 181.33,-84.07"/>
</a>
</g>
</g>
<!-- Node4 -->
<g id="Node000004" class="node">
<title>Node4</title>
<g id="a_Node000004"><a xlink:title=" ">
<polygon fill="#e0e0e0" stroke="#999999" points="192.5,-19.25 110.5,-19.25 110.5,0 192.5,0 192.5,-19.25"/>
<text text-anchor="middle" x="151.5" y="-5.75" font-family="Helvetica,sans-Serif" font-size="10.00">colony_config.h</text>
</a>
</g>
</g>
<!-- Node3&#45;&gt;Node4 -->
<g id="edge3_Node000003_Node000004" class="edge">
<title>Node3&#45;&gt;Node4</title>
<g id="a_edge3_Node000003_Node000004"><a xlink:title=" ">
<path fill="none" stroke="#63b8ff" d="M65.97,-54.84C81.81,-46.66 105.41,-34.46 123.81,-24.94"/>
<polygon fill="#63b8ff" stroke="#63b8ff" points="125.32,-28.1 132.6,-20.4 122.11,-21.88 125.32,-28.1"/>
</a>
</g>
</g>
<!-- Node8&#45;&gt;Node4 -->
<g id="edge8_Node000008_Node000004" class="edge">
<title>Node8&#45;&gt;Node4</title>
<g id="a_edge8_Node000008_Node000004"><a xlink:title=" ">
<path fill="none" stroke="#63b8ff" d="M355.87,-110.06C317.01,-91.15 227.06,-47.39 180.54,-24.75"/>
<polygon fill="#63b8ff" stroke="#63b8ff" points="182.12,-21.63 171.59,-20.4 179.05,-27.92 182.12,-21.63"/>
</a>
</g>
</g>
<!-- Node9 -->
<g id="Node000009" class="node">
<title>Node9</title>
<g id="a_Node000009"><a xlink:title=" ">
<polygon fill="#e0e0e0" stroke="#999999" points="412.12,-74.5 336.88,-74.5 336.88,-55.25 412.12,-55.25 412.12,-74.5"/>
<text text-anchor="middle" x="374.5" y="-61" font-family="Helvetica,sans-Serif" font-size="10.00">colony_map.h</text>
</a>
</g>
</g>
<!-- Node8&#45;&gt;Node9 -->
<g id="edge9_Node000008_Node000009" class="edge">
<title>Node8&#45;&gt;Node9</title>
<g id="a_edge9_Node000008_Node000009"><a xlink:title=" ">
<path fill="none" stroke="#63b8ff" d="M374.5,-110.33C374.5,-103.82 374.5,-94.67 374.5,-86.37"/>
<polygon fill="#63b8ff" stroke="#63b8ff" points="378,-86.37 374.5,-76.37 371,-86.37 378,-86.37"/>
</a>
</g>
</g>
</g>
</svg>
