<?xml version="1.0" encoding="UTF-8" standalone="no"?>
<!DOCTYPE svg PUBLIC "-//W3C//DTD SVG 1.1//EN"
 "http://www.w3.org/Graphics/SVG/1.1/DTD/svg11.dtd">
<!-- Generated by graphviz version 9.0.0 (20230911.1827)
 -->
<!-- Title: Cpl/Io/Socket/InputOutput.h Pages: 1 -->
<svg width="284pt" height="138pt"
 viewBox="0.00 0.00 284.12 137.75" xmlns="http://www.w3.org/2000/svg" xmlns:xlink="http://www.w3.org/1999/xlink">
<g id="graph0" class="graph" transform="scale(1 1) rotate(0) translate(4 133.75)">
<title>Cpl/Io/Socket/InputOutput.h</title>
<!-- Node1 -->
<g id="Node000001" class="node">
<title>Node1</title>
<g id="a_Node000001"><a xlink:title=" ">
<polygon fill="#999999" stroke="#666666" points="214.38,-129.75 77.62,-129.75 77.62,-110.5 214.38,-110.5 214.38,-129.75"/>
<text text-anchor="middle" x="146" y="-116.25" font-family="Helvetica,sans-Serif" font-size="10.00">Cpl/Io/Socket/InputOutput.h</text>
</a>
</g>
</g>
<!-- Node2 -->
<g id="Node000002" class="node">
<title>Node2</title>
<g id="a_Node000002"><a xlink:href="_factory_8h.html" target="_top" xlink:title=" ">
<polygon fill="white" stroke="#666666" points="118,-74.5 0,-74.5 0,-55.25 118,-55.25 118,-74.5"/>
<text text-anchor="middle" x="59" y="-61" font-family="Helvetica,sans-Serif" font-size="10.00">Cpl/Io/Socket/Factory.h</text>
</a>
</g>
</g>
<!-- Node1&#45;&gt;Node2 -->
<g id="edge1_Node000001_Node000002" class="edge">
<title>Node1&#45;&gt;Node2</title>
<g id="a_edge1_Node000001_Node000002"><a xlink:title=" ">
<path fill="none" stroke="#63b8ff" d="M121.82,-104.32C106.42,-94.9 86.98,-83 73.83,-74.95"/>
<polygon fill="#63b8ff" stroke="#63b8ff" points="119.59,-107.07 129.95,-109.3 123.25,-101.1 119.59,-107.07"/>
</a>
</g>
</g>
<!-- Node3 -->
<g id="Node000003" class="node">
<title>Node3</title>
<g id="a_Node000003"><a xlink:href="_stream_pool_8h.html" target="_top" xlink:title=" ">
<polygon fill="white" stroke="#666666" points="170.38,-19.25 33.62,-19.25 33.62,0 170.38,0 170.38,-19.25"/>
<text text-anchor="middle" x="102" y="-5.75" font-family="Helvetica,sans-Serif" font-size="10.00">Cpl/Io/Socket/StreamPool.h</text>
</a>
</g>
</g>
<!-- Node1&#45;&gt;Node3 -->
<g id="edge3_Node000001_Node000003" class="edge">
<title>Node1&#45;&gt;Node3</title>
<g id="a_edge3_Node000001_Node000003"><a xlink:title=" ">
<path fill="none" stroke="#63b8ff" d="M141.35,-99.42C138.02,-86.59 133.08,-69.63 127,-55.25 121.54,-42.33 113.29,-28.36 107.78,-19.56"/>
<polygon fill="#63b8ff" stroke="#63b8ff" points="137.86,-99.89 143.65,-108.76 144.65,-98.22 137.86,-99.89"/>
</a>
</g>
</g>
<!-- Node4 -->
<g id="Node000004" class="node">
<title>Node4</title>
<g id="a_Node000004"><a xlink:href="_socket_8h.html" target="_top" xlink:title=" ">
<polygon fill="white" stroke="#666666" points="276.12,-74.5 173.88,-74.5 173.88,-55.25 276.12,-55.25 276.12,-74.5"/>
<text text-anchor="middle" x="225" y="-61" font-family="Helvetica,sans-Serif" font-size="10.00">Cpl/TShell/Socket.h</text>
</a>
</g>
</g>
<!-- Node1&#45;&gt;Node4 -->
<g id="edge4_Node000001_Node000004" class="edge">
<title>Node1&#45;&gt;Node4</title>
<g id="a_edge4_Node000001_Node000004"><a xlink:title=" ">
<path fill="none" stroke="#63b8ff" d="M168.76,-103.78C182.61,-94.45 199.82,-82.85 211.53,-74.95"/>
<polygon fill="#63b8ff" stroke="#63b8ff" points="166.99,-100.75 160.66,-109.25 170.9,-106.56 166.99,-100.75"/>
</a>
</g>
</g>
<!-- Node2&#45;&gt;Node3 -->
<g id="edge2_Node000002_Node000003" class="edge">
<title>Node2&#45;&gt;Node3</title>
<g id="a_edge2_Node000002_Node000003"><a xlink:title=" ">
<path fill="none" stroke="#63b8ff" d="M73.25,-46.22C80.45,-37.31 88.88,-26.87 94.75,-19.61"/>
<polygon fill="#63b8ff" stroke="#63b8ff" points="70.61,-43.93 67.05,-53.9 76.06,-48.32 70.61,-43.93"/>
</a>
</g>
</g>
</g>
</svg>
