<?xml version="1.0" encoding="UTF-8" standalone="no"?>
<!DOCTYPE svg PUBLIC "-//W3C//DTD SVG 1.1//EN"
 "http://www.w3.org/Graphics/SVG/1.1/DTD/svg11.dtd">
<!-- Generated by graphviz version 9.0.0 (20230911.1827)
 -->
<!-- Title: Cpl/Container/Stack.h Pages: 1 -->
<svg width="433pt" height="94pt"
 viewBox="0.00 0.00 433.00 93.75" xmlns="http://www.w3.org/2000/svg" xmlns:xlink="http://www.w3.org/1999/xlink">
<g id="graph0" class="graph" transform="scale(1 1) rotate(0) translate(4 89.75)">
<title>Cpl/Container/Stack.h</title>
<!-- Node1 -->
<g id="Node000001" class="node">
<title>Node1</title>
<g id="a_Node000001"><a xlink:title=" ">
<polygon fill="#999999" stroke="#666666" points="233.88,-85.75 123.38,-85.75 123.38,-66.5 233.88,-66.5 233.88,-85.75"/>
<text text-anchor="middle" x="178.62" y="-72.25" font-family="Helvetica,sans-Serif" font-size="10.00">Cpl/Container/Stack.h</text>
</a>
</g>
</g>
<!-- Node2 -->
<g id="Node000002" class="node">
<title>Node2</title>
<g id="a_Node000002"><a xlink:href="_littlefs_2__api_2_dir_list___8h.html" target="_top" xlink:title=" ">
<polygon fill="white" stroke="#666666" points="93.25,-30.5 0,-30.5 0,0 93.25,0 93.25,-30.5"/>
<text text-anchor="start" x="8" y="-17" font-family="Helvetica,sans-Serif" font-size="10.00">Cpl/Io/File/Littlefs</text>
<text text-anchor="middle" x="46.62" y="-5.75" font-family="Helvetica,sans-Serif" font-size="10.00">/_api/DirList_.h</text>
</a>
</g>
</g>
<!-- Node1&#45;&gt;Node2 -->
<g id="edge1_Node000001_Node000002" class="edge">
<title>Node1&#45;&gt;Node2</title>
<g id="a_edge1_Node000001_Node000002"><a xlink:title=" ">
<path fill="none" stroke="#63b8ff" d="M147.94,-61.44C127.44,-52.3 100.51,-40.29 79.57,-30.94"/>
<polygon fill="#63b8ff" stroke="#63b8ff" points="146.35,-64.56 156.91,-65.44 149.2,-58.17 146.35,-64.56"/>
</a>
</g>
</g>
<!-- Node3 -->
<g id="Node000003" class="node">
<title>Node3</title>
<g id="a_Node000003"><a xlink:href="_integer_expression_parser_8h.html" target="_top" xlink:title="This file contains a collection of methods that parses a null terminated string that contains an arit...">
<polygon fill="white" stroke="#666666" points="246.25,-30.5 111,-30.5 111,0 246.25,0 246.25,-30.5"/>
<text text-anchor="start" x="119" y="-17" font-family="Helvetica,sans-Serif" font-size="10.00">Cpl/Math/IntegerExpression</text>
<text text-anchor="middle" x="178.62" y="-5.75" font-family="Helvetica,sans-Serif" font-size="10.00">Parser.h</text>
</a>
</g>
</g>
<!-- Node1&#45;&gt;Node3 -->
<g id="edge2_Node000001_Node000003" class="edge">
<title>Node1&#45;&gt;Node3</title>
<g id="a_edge2_Node000001_Node000003"><a xlink:title=" ">
<path fill="none" stroke="#63b8ff" d="M178.62,-54.92C178.62,-46.99 178.62,-38.06 178.62,-30.78"/>
<polygon fill="#63b8ff" stroke="#63b8ff" points="175.13,-54.67 178.63,-64.67 182.13,-54.67 175.13,-54.67"/>
</a>
</g>
</g>
<!-- Node4 -->
<g id="Node000004" class="node">
<title>Node4</title>
<g id="a_Node000004"><a xlink:href="_real_expression_parser_8h.html" target="_top" xlink:title="This file contains a collection of methods that parses a null terminated string that contains an arit...">
<polygon fill="white" stroke="#666666" points="425,-24.88 264.25,-24.88 264.25,-5.63 425,-5.63 425,-24.88"/>
<text text-anchor="middle" x="344.62" y="-11.38" font-family="Helvetica,sans-Serif" font-size="10.00">Cpl/Math/RealExpressionParser.h</text>
</a>
</g>
</g>
<!-- Node1&#45;&gt;Node4 -->
<g id="edge3_Node000001_Node000004" class="edge">
<title>Node1&#45;&gt;Node4</title>
<g id="a_edge3_Node000001_Node000004"><a xlink:title=" ">
<path fill="none" stroke="#63b8ff" d="M214.73,-62.32C246.21,-51.15 291.11,-35.23 319.02,-25.33"/>
<polygon fill="#63b8ff" stroke="#63b8ff" points="213.88,-58.91 205.63,-65.55 216.22,-65.5 213.88,-58.91"/>
</a>
</g>
</g>
</g>
</svg>
