<?xml version="1.0" encoding="UTF-8" standalone="no"?>
<!DOCTYPE svg PUBLIC "-//W3C//DTD SVG 1.1//EN"
 "http://www.w3.org/Graphics/SVG/1.1/DTD/svg11.dtd">
<!-- Generated by graphviz version 2.43.0 (0)
 -->
<!-- Title: Cpl/Text/String_.h Pages: 1 -->
<svg width="3306pt" height="401pt"
 viewBox="0.00 0.00 3306.00 401.00" xmlns="http://www.w3.org/2000/svg" xmlns:xlink="http://www.w3.org/1999/xlink">
<g id="graph0" class="graph" transform="scale(1 1) rotate(0) translate(4 397)">
<title>Cpl/Text/String_.h</title>
<!-- Node1 -->
<g id="Node000001" class="node">
<title>Node1</title>
<g id="a_Node000001"><a xlink:title=" ">
<polygon fill="#999999" stroke="#666666" points="1122.5,-393 1021.5,-393 1021.5,-374 1122.5,-374 1122.5,-393"/>
<text text-anchor="middle" x="1072" y="-381" font-family="Helvetica,sans-Serif" font-size="10.00">Cpl/Text/String_.h</text>
</a>
</g>
</g>
<!-- Node2 -->
<g id="Node000002" class="node">
<title>Node2</title>
<g id="a_Node000002"><a xlink:href="_d_string_8h.html" target="_top" xlink:title=" ">
<polygon fill="white" stroke="#666666" points="1062,-338 958,-338 958,-319 1062,-319 1062,-338"/>
<text text-anchor="middle" x="1010" y="-326" font-family="Helvetica,sans-Serif" font-size="10.00">Cpl/Text/DString.h</text>
</a>
</g>
</g>
<!-- Node1&#45;&gt;Node2 -->
<g id="edge1_Node000001_Node000002" class="edge">
<title>Node1&#45;&gt;Node2</title>
<g id="a_edge1_Node000001_Node000002"><a xlink:title=" ">
<path fill="none" stroke="#63b8ff" d="M1054.25,-367.32C1043.19,-357.87 1029.37,-346.06 1020.14,-338.17"/>
<polygon fill="#63b8ff" stroke="#63b8ff" points="1052.16,-370.15 1062.04,-373.98 1056.71,-364.83 1052.16,-370.15"/>
</a>
</g>
</g>
<!-- Node4 -->
<g id="Node000004" class="node">
<title>Node4</title>
<g id="a_Node000004"><a xlink:href="_f_string___8h.html" target="_top" xlink:title=" ">
<polygon fill="white" stroke="#666666" points="1191.5,-338 1084.5,-338 1084.5,-319 1191.5,-319 1191.5,-338"/>
<text text-anchor="middle" x="1138" y="-326" font-family="Helvetica,sans-Serif" font-size="10.00">Cpl/Text/FString_.h</text>
</a>
</g>
</g>
<!-- Node1&#45;&gt;Node4 -->
<g id="edge3_Node000001_Node000004" class="edge">
<title>Node1&#45;&gt;Node4</title>
<g id="a_edge3_Node000001_Node000004"><a xlink:title=" ">
<path fill="none" stroke="#63b8ff" d="M1090.55,-367.6C1102.38,-358.11 1117.29,-346.13 1127.2,-338.17"/>
<polygon fill="#63b8ff" stroke="#63b8ff" points="1088.21,-364.99 1082.6,-373.98 1092.59,-370.45 1088.21,-364.99"/>
</a>
</g>
</g>
<!-- Node3 -->
<g id="Node000003" class="node">
<title>Node3</title>
<g id="a_Node000003"><a xlink:href="_d_string_item_8h.html" target="_top" xlink:title=" ">
<polygon fill="white" stroke="#666666" points="1069,-283 943,-283 943,-264 1069,-264 1069,-283"/>
<text text-anchor="middle" x="1006" y="-271" font-family="Helvetica,sans-Serif" font-size="10.00">Cpl/Text/DStringItem.h</text>
</a>
</g>
</g>
<!-- Node2&#45;&gt;Node3 -->
<g id="edge2_Node000002_Node000003" class="edge">
<title>Node2&#45;&gt;Node3</title>
<g id="a_edge2_Node000002_Node000003"><a xlink:title=" ">
<path fill="none" stroke="#63b8ff" d="M1008.58,-308.66C1007.92,-299.93 1007.17,-289.99 1006.65,-283.09"/>
<polygon fill="#63b8ff" stroke="#63b8ff" points="1005.1,-309.04 1009.34,-318.75 1012.08,-308.51 1005.1,-309.04"/>
</a>
</g>
</g>
<!-- Node5 -->
<g id="Node000005" class="node">
<title>Node5</title>
<g id="a_Node000005"><a xlink:href="_d_f_string_8h.html" target="_top" xlink:title=" ">
<polygon fill="white" stroke="#666666" points="1715.5,-283 1606.5,-283 1606.5,-264 1715.5,-264 1715.5,-283"/>
<text text-anchor="middle" x="1661" y="-271" font-family="Helvetica,sans-Serif" font-size="10.00">Cpl/Text/DFString.h</text>
</a>
</g>
</g>
<!-- Node4&#45;&gt;Node5 -->
<g id="edge4_Node000004_Node000005" class="edge">
<title>Node4&#45;&gt;Node5</title>
<g id="a_edge4_Node000004_Node000005"><a xlink:title=" ">
<path fill="none" stroke="#63b8ff" d="M1201.53,-321.06C1305.17,-310.56 1508.83,-289.92 1606.39,-280.03"/>
<polygon fill="#63b8ff" stroke="#63b8ff" points="1201.11,-317.59 1191.51,-322.08 1201.81,-324.55 1201.11,-317.59"/>
</a>
</g>
</g>
<!-- Node7 -->
<g id="Node000007" class="node">
<title>Node7</title>
<g id="a_Node000007"><a xlink:href="_f_string_8h.html" target="_top" xlink:title=" ">
<polygon fill="white" stroke="#666666" points="1188.5,-283 1087.5,-283 1087.5,-264 1188.5,-264 1188.5,-283"/>
<text text-anchor="middle" x="1138" y="-271" font-family="Helvetica,sans-Serif" font-size="10.00">Cpl/Text/FString.h</text>
</a>
</g>
</g>
<!-- Node4&#45;&gt;Node7 -->
<g id="edge6_Node000004_Node000007" class="edge">
<title>Node4&#45;&gt;Node7</title>
<g id="a_edge6_Node000004_Node000007"><a xlink:title=" ">
<path fill="none" stroke="#63b8ff" d="M1138,-308.66C1138,-299.93 1138,-289.99 1138,-283.09"/>
<polygon fill="#63b8ff" stroke="#63b8ff" points="1134.5,-308.75 1138,-318.75 1141.5,-308.75 1134.5,-308.75"/>
</a>
</g>
</g>
<!-- Node6 -->
<g id="Node000006" class="node">
<title>Node6</title>
<g id="a_Node000006"><a xlink:href="_d_f_string_item_8h.html" target="_top" xlink:title=" ">
<polygon fill="white" stroke="#666666" points="2126.5,-222.5 1995.5,-222.5 1995.5,-203.5 2126.5,-203.5 2126.5,-222.5"/>
<text text-anchor="middle" x="2061" y="-210.5" font-family="Helvetica,sans-Serif" font-size="10.00">Cpl/Text/DFStringItem.h</text>
</a>
</g>
</g>
<!-- Node5&#45;&gt;Node6 -->
<g id="edge5_Node000005_Node000006" class="edge">
<title>Node5&#45;&gt;Node6</title>
<g id="a_edge5_Node000005_Node000006"><a xlink:title=" ">
<path fill="none" stroke="#63b8ff" d="M1725.95,-264.55C1791.66,-256.28 1896.08,-242.54 1986,-228 1996.2,-226.35 2007.15,-224.41 2017.44,-222.5"/>
<polygon fill="#63b8ff" stroke="#63b8ff" points="1725.24,-261.11 1715.75,-265.83 1726.11,-268.06 1725.24,-261.11"/>
</a>
</g>
</g>
<!-- Node8 -->
<g id="Node000008" class="node">
<title>Node8</title>
<g id="a_Node000008"><a xlink:href="_numeric_8h.html" target="_top" xlink:title=" ">
<polygon fill="white" stroke="#666666" points="1977,-222.5 1853,-222.5 1853,-203.5 1977,-203.5 1977,-222.5"/>
<text text-anchor="middle" x="1915" y="-210.5" font-family="Helvetica,sans-Serif" font-size="10.00">Cpl/Dm/Mp/Numeric.h</text>
</a>
</g>
</g>
<!-- Node7&#45;&gt;Node8 -->
<g id="edge7_Node000007_Node000008" class="edge">
<title>Node7&#45;&gt;Node8</title>
<g id="a_edge7_Node000007_Node000008"><a xlink:title=" ">
<path fill="none" stroke="#63b8ff" d="M1198.8,-269.1C1313.51,-262.52 1569.71,-246.99 1785,-228 1807.16,-226.05 1831.4,-223.54 1852.89,-221.18"/>
<polygon fill="#63b8ff" stroke="#63b8ff" points="1198.58,-265.61 1188.8,-269.68 1198.98,-272.6 1198.58,-265.61"/>
</a>
</g>
</g>
<!-- Node47 -->
<g id="Node000047" class="node">
<title>Node47</title>
<g id="a_Node000047"><a xlink:href="_cpl_2_io_2_file_2_api_8h.html" target="_top" xlink:title=" ">
<polygon fill="white" stroke="#666666" points="296,-222.5 204,-222.5 204,-203.5 296,-203.5 296,-222.5"/>
<text text-anchor="middle" x="250" y="-210.5" font-family="Helvetica,sans-Serif" font-size="10.00">Cpl/Io/File/Api.h</text>
</a>
</g>
</g>
<!-- Node7&#45;&gt;Node47 -->
<g id="edge38_Node000007_Node000047" class="edge">
<title>Node7&#45;&gt;Node47</title>
<g id="a_edge38_Node000007_Node000047"><a xlink:title=" ">
<path fill="none" stroke="#63b8ff" d="M1077.32,-264.05C733.83,-232.73 641.93,-278.2 305,-228 296.42,-226.72 287.24,-224.67 278.89,-222.52"/>
<polygon fill="#63b8ff" stroke="#63b8ff" points="1077.02,-267.54 1087.3,-264.98 1077.67,-260.57 1077.02,-267.54"/>
</a>
</g>
</g>
<!-- Node52 -->
<g id="Node000052" class="node">
<title>Node52</title>
<g id="a_Node000052"><a xlink:href="_line_reader_8h.html" target="_top" xlink:title=" ">
<polygon fill="white" stroke="#666666" points="424,-222.5 314,-222.5 314,-203.5 424,-203.5 424,-222.5"/>
<text text-anchor="middle" x="369" y="-210.5" font-family="Helvetica,sans-Serif" font-size="10.00">Cpl/Io/LineReader.h</text>
</a>
</g>
</g>
<!-- Node7&#45;&gt;Node52 -->
<g id="edge43_Node000007_Node000052" class="edge">
<title>Node7&#45;&gt;Node52</title>
<g id="a_edge43_Node000007_Node000052"><a xlink:title=" ">
<path fill="none" stroke="#63b8ff" d="M1077.02,-264.01C790.49,-236.55 714.15,-266.35 433,-228 423.31,-226.68 412.91,-224.66 403.36,-222.57"/>
<polygon fill="#63b8ff" stroke="#63b8ff" points="1077.01,-267.52 1087.3,-265.01 1077.68,-260.56 1077.01,-267.52"/>
</a>
</g>
</g>
<!-- Node53 -->
<g id="Node000053" class="node">
<title>Node53</title>
<g id="a_Node000053"><a xlink:href="_bare_metal_2_thread_8h.html" target="_top" xlink:title=" ">
<polygon fill="white" stroke="#666666" points="567.5,-228 442.5,-228 442.5,-198 567.5,-198 567.5,-228"/>
<text text-anchor="start" x="450.5" y="-216" font-family="Helvetica,sans-Serif" font-size="10.00">Cpl/System/BareMetal</text>
<text text-anchor="middle" x="505" y="-205" font-family="Helvetica,sans-Serif" font-size="10.00">/Thread.h</text>
</a>
</g>
</g>
<!-- Node7&#45;&gt;Node53 -->
<g id="edge44_Node000007_Node000053" class="edge">
<title>Node7&#45;&gt;Node53</title>
<g id="a_edge44_Node000007_Node000053"><a xlink:title=" ">
<path fill="none" stroke="#63b8ff" d="M1077.24,-264.01C854.29,-240.82 795.06,-256.93 577,-228 573.97,-227.6 570.88,-227.15 567.76,-226.66"/>
<polygon fill="#63b8ff" stroke="#63b8ff" points="1076.98,-267.5 1087.29,-265.07 1077.71,-260.54 1076.98,-267.5"/>
</a>
</g>
</g>
<!-- Node54 -->
<g id="Node000054" class="node">
<title>Node54</title>
<g id="a_Node000054"><a xlink:href="_cpp11_2_thread_8h.html" target="_top" xlink:title=" ">
<polygon fill="white" stroke="#666666" points="738,-222.5 586,-222.5 586,-203.5 738,-203.5 738,-222.5"/>
<text text-anchor="middle" x="662" y="-210.5" font-family="Helvetica,sans-Serif" font-size="10.00">Cpl/System/Cpp11/Thread.h</text>
</a>
</g>
</g>
<!-- Node7&#45;&gt;Node54 -->
<g id="edge45_Node000007_Node000054" class="edge">
<title>Node7&#45;&gt;Node54</title>
<g id="a_edge45_Node000007_Node000054"><a xlink:title=" ">
<path fill="none" stroke="#63b8ff" d="M1076.93,-263.91C929.43,-245.72 890.32,-247.58 747,-228 735.29,-226.4 722.72,-224.46 710.92,-222.53"/>
<polygon fill="#63b8ff" stroke="#63b8ff" points="1076.92,-267.44 1087.28,-265.2 1077.78,-260.49 1076.92,-267.44"/>
</a>
</g>
</g>
<!-- Node55 -->
<g id="Node000055" class="node">
<title>Node55</title>
<g id="a_Node000055"><a xlink:href="_free_r_t_o_s_2_thread_8h.html" target="_top" xlink:title=" ">
<polygon fill="white" stroke="#666666" points="878,-228 756,-228 756,-198 878,-198 878,-228"/>
<text text-anchor="start" x="764" y="-216" font-family="Helvetica,sans-Serif" font-size="10.00">Cpl/System/FreeRTOS</text>
<text text-anchor="middle" x="817" y="-205" font-family="Helvetica,sans-Serif" font-size="10.00">/Thread.h</text>
</a>
</g>
</g>
<!-- Node7&#45;&gt;Node55 -->
<g id="edge46_Node000007_Node000055" class="edge">
<title>Node7&#45;&gt;Node55</title>
<g id="a_edge46_Node000007_Node000055"><a xlink:title=" ">
<path fill="none" stroke="#63b8ff" d="M1077.77,-262.2C1026.88,-253.41 952.1,-240.28 887,-228 884.08,-227.45 881.09,-226.88 878.07,-226.3"/>
<polygon fill="#63b8ff" stroke="#63b8ff" points="1077.49,-265.71 1087.94,-263.96 1078.68,-258.81 1077.49,-265.71"/>
</a>
</g>
</g>
<!-- Node56 -->
<g id="Node000056" class="node">
<title>Node56</title>
<g id="a_Node000056"><a xlink:href="_posix_2_thread_8h.html" target="_top" xlink:title=" ">
<polygon fill="white" stroke="#666666" points="1043.5,-222.5 896.5,-222.5 896.5,-203.5 1043.5,-203.5 1043.5,-222.5"/>
<text text-anchor="middle" x="970" y="-210.5" font-family="Helvetica,sans-Serif" font-size="10.00">Cpl/System/Posix/Thread.h</text>
</a>
</g>
</g>
<!-- Node7&#45;&gt;Node56 -->
<g id="edge47_Node000007_Node000056" class="edge">
<title>Node7&#45;&gt;Node56</title>
<g id="a_edge47_Node000007_Node000056"><a xlink:title=" ">
<path fill="none" stroke="#63b8ff" d="M1104.03,-260.67C1071.54,-249.36 1023.34,-232.57 994.46,-222.52"/>
<polygon fill="#63b8ff" stroke="#63b8ff" points="1102.98,-264.01 1113.57,-263.99 1105.28,-257.4 1102.98,-264.01"/>
</a>
</g>
</g>
<!-- Node57 -->
<g id="Node000057" class="node">
<title>Node57</title>
<g id="a_Node000057"><a xlink:href="_win32_2_thread_8h.html" target="_top" xlink:title=" ">
<polygon fill="white" stroke="#666666" points="1214,-222.5 1062,-222.5 1062,-203.5 1214,-203.5 1214,-222.5"/>
<text text-anchor="middle" x="1138" y="-210.5" font-family="Helvetica,sans-Serif" font-size="10.00">Cpl/System/Win32/Thread.h</text>
</a>
</g>
</g>
<!-- Node7&#45;&gt;Node57 -->
<g id="edge48_Node000007_Node000057" class="edge">
<title>Node7&#45;&gt;Node57</title>
<g id="a_edge48_Node000007_Node000057"><a xlink:title=" ">
<path fill="none" stroke="#63b8ff" d="M1138,-253.66C1138,-243.24 1138,-230.8 1138,-222.67"/>
<polygon fill="#63b8ff" stroke="#63b8ff" points="1134.5,-253.87 1138,-263.87 1141.5,-253.87 1134.5,-253.87"/>
</a>
</g>
</g>
<!-- Node58 -->
<g id="Node000058" class="node">
<title>Node58</title>
<g id="a_Node000058"><a xlink:href="_processor_8h.html" target="_top" xlink:title=" ">
<polygon fill="white" stroke="#666666" points="1356,-222.5 1232,-222.5 1232,-203.5 1356,-203.5 1356,-222.5"/>
<text text-anchor="middle" x="1294" y="-210.5" font-family="Helvetica,sans-Serif" font-size="10.00">Cpl/TShell/Processor.h</text>
</a>
</g>
</g>
<!-- Node7&#45;&gt;Node58 -->
<g id="edge49_Node000007_Node000058" class="edge">
<title>Node7&#45;&gt;Node58</title>
<g id="a_edge49_Node000007_Node000058"><a xlink:title=" ">
<path fill="none" stroke="#63b8ff" d="M1170.33,-260.38C1200.48,-249.07 1244.7,-232.49 1271.29,-222.52"/>
<polygon fill="#63b8ff" stroke="#63b8ff" points="1168.82,-257.21 1160.68,-263.99 1171.28,-263.76 1168.82,-257.21"/>
</a>
</g>
</g>
<!-- Node62 -->
<g id="Node000062" class="node">
<title>Node62</title>
<g id="a_Node000062"><a xlink:href="_f_string_item_8h.html" target="_top" xlink:title=" ">
<polygon fill="white" stroke="#666666" points="1498,-222.5 1374,-222.5 1374,-203.5 1498,-203.5 1498,-222.5"/>
<text text-anchor="middle" x="1436" y="-210.5" font-family="Helvetica,sans-Serif" font-size="10.00">Cpl/Text/FStringItem.h</text>
</a>
</g>
</g>
<!-- Node7&#45;&gt;Node62 -->
<g id="edge52_Node000007_Node000062" class="edge">
<title>Node7&#45;&gt;Node62</title>
<g id="a_edge52_Node000007_Node000062"><a xlink:title=" ">
<path fill="none" stroke="#63b8ff" d="M1191.57,-262.02C1237.57,-253.01 1305.65,-239.67 1365,-228 1374,-226.23 1383.64,-224.33 1392.82,-222.52"/>
<polygon fill="#63b8ff" stroke="#63b8ff" points="1190.66,-258.63 1181.52,-263.98 1192.01,-265.5 1190.66,-258.63"/>
</a>
</g>
</g>
<!-- Node63 -->
<g id="Node000063" class="node">
<title>Node63</title>
<g id="a_Node000063"><a xlink:href="_guid_8h.html" target="_top" xlink:title=" ">
<polygon fill="white" stroke="#666666" points="1608,-222.5 1516,-222.5 1516,-203.5 1608,-203.5 1608,-222.5"/>
<text text-anchor="middle" x="1562" y="-210.5" font-family="Helvetica,sans-Serif" font-size="10.00">Cpl/Type/Guid.h</text>
</a>
</g>
</g>
<!-- Node7&#45;&gt;Node63 -->
<g id="edge53_Node000007_Node000063" class="edge">
<title>Node7&#45;&gt;Node63</title>
<g id="a_edge53_Node000007_Node000063"><a xlink:title=" ">
<path fill="none" stroke="#63b8ff" d="M1198.75,-267.6C1272.18,-261.12 1399.32,-248.11 1507,-228 1514.94,-226.52 1523.44,-224.55 1531.32,-222.56"/>
<polygon fill="#63b8ff" stroke="#63b8ff" points="1198.41,-264.12 1188.75,-268.47 1199.02,-271.09 1198.41,-264.12"/>
</a>
</g>
</g>
<!-- Node64 -->
<g id="Node000064" class="node">
<title>Node64</title>
<g id="a_Node000064"><a xlink:href="_t_pipe_2_red_green_blue_8h.html" target="_top" xlink:title=" ">
<polygon fill="white" stroke="#666666" points="1775.5,-228 1626.5,-228 1626.5,-198 1775.5,-198 1775.5,-228"/>
<text text-anchor="start" x="1634.5" y="-216" font-family="Helvetica,sans-Serif" font-size="10.00">Driver/LED/TPipe/RedGreen</text>
<text text-anchor="middle" x="1701" y="-205" font-family="Helvetica,sans-Serif" font-size="10.00">Blue.h</text>
</a>
</g>
</g>
<!-- Node7&#45;&gt;Node64 -->
<g id="edge54_Node000007_Node000064" class="edge">
<title>Node7&#45;&gt;Node64</title>
<g id="a_edge54_Node000007_Node000064"><a xlink:title=" ">
<path fill="none" stroke="#63b8ff" d="M1198.98,-268.26C1290.14,-261.6 1467.27,-247.41 1617,-228 1620.08,-227.6 1623.22,-227.17 1626.39,-226.72"/>
<polygon fill="#63b8ff" stroke="#63b8ff" points="1198.55,-264.78 1188.83,-269 1199.05,-271.76 1198.55,-264.78"/>
</a>
</g>
</g>
<!-- Node9 -->
<g id="Node000009" class="node">
<title>Node9</title>
<g id="a_Node000009"><a xlink:href="_mp_screen_api_ptr_8h.html" target="_top" xlink:title=" ">
<polygon fill="white" stroke="#666666" points="1995,-162 1835,-162 1835,-132 1995,-132 1995,-162"/>
<text text-anchor="start" x="1843" y="-150" font-family="Helvetica,sans-Serif" font-size="10.00">Ajax/ScreenMgr/MpScreenApi</text>
<text text-anchor="middle" x="1915" y="-139" font-family="Helvetica,sans-Serif" font-size="10.00">Ptr.h</text>
</a>
</g>
</g>
<!-- Node8&#45;&gt;Node9 -->
<g id="edge8_Node000008_Node000009" class="edge">
<title>Node8&#45;&gt;Node9</title>
<g id="a_edge8_Node000008_Node000009"><a xlink:title=" ">
<path fill="none" stroke="#63b8ff" d="M1915,-193.35C1915,-183.47 1915,-171.51 1915,-162.36"/>
<polygon fill="#63b8ff" stroke="#63b8ff" points="1911.5,-193.37 1915,-203.37 1918.5,-193.37 1911.5,-193.37"/>
</a>
</g>
</g>
<!-- Node15 -->
<g id="Node000015" class="node">
<title>Node15</title>
<g id="a_Node000015"><a xlink:href="_mp_static_screen_api_ptr_8h.html" target="_top" xlink:title=" ">
<polygon fill="white" stroke="#666666" points="2185,-162 2013,-162 2013,-132 2185,-132 2185,-162"/>
<text text-anchor="start" x="2021" y="-150" font-family="Helvetica,sans-Serif" font-size="10.00">Ajax/ScreenMgr/MpStaticScreen</text>
<text text-anchor="middle" x="2099" y="-139" font-family="Helvetica,sans-Serif" font-size="10.00">ApiPtr.h</text>
</a>
</g>
</g>
<!-- Node8&#45;&gt;Node15 -->
<g id="edge11_Node000008_Node000015" class="edge">
<title>Node8&#45;&gt;Node15</title>
<g id="a_edge11_Node000008_Node000015"><a xlink:title=" ">
<path fill="none" stroke="#63b8ff" d="M1949.31,-200.07C1980.22,-189.31 2025.71,-173.49 2058.42,-162.12"/>
<polygon fill="#63b8ff" stroke="#63b8ff" points="1948.11,-196.78 1939.82,-203.37 1950.41,-203.39 1948.11,-196.78"/>
</a>
</g>
</g>
<!-- Node16 -->
<g id="Node000016" class="node">
<title>Node16</title>
<g id="a_Node000016"><a xlink:href="_bit_array16_8h.html" target="_top" xlink:title=" ">
<polygon fill="white" stroke="#666666" points="3109,-156.5 2975,-156.5 2975,-137.5 3109,-137.5 3109,-156.5"/>
<text text-anchor="middle" x="3042" y="-144.5" font-family="Helvetica,sans-Serif" font-size="10.00">Cpl/Dm/Mp/BitArray16.h</text>
</a>
</g>
</g>
<!-- Node8&#45;&gt;Node16 -->
<g id="edge13_Node000008_Node000016" class="edge">
<title>Node8&#45;&gt;Node16</title>
<g id="a_edge13_Node000008_Node000016"><a xlink:title=" ">
<path fill="none" stroke="#63b8ff" d="M1962.91,-201.61C1970.92,-200.18 1979.17,-198.9 1987,-198 2419.56,-148.3 2533.2,-209.57 2966,-162 2977.74,-160.71 2990.38,-158.65 3001.93,-156.51"/>
<polygon fill="#63b8ff" stroke="#63b8ff" points="1962.13,-198.2 1952.94,-203.48 1963.42,-205.08 1962.13,-198.2"/>
</a>
</g>
</g>
<!-- Node17 -->
<g id="Node000017" class="node">
<title>Node17</title>
<g id="a_Node000017"><a xlink:href="_bit_array32_8h.html" target="_top" xlink:title=" ">
<polygon fill="white" stroke="#666666" points="3261,-156.5 3127,-156.5 3127,-137.5 3261,-137.5 3261,-156.5"/>
<text text-anchor="middle" x="3194" y="-144.5" font-family="Helvetica,sans-Serif" font-size="10.00">Cpl/Dm/Mp/BitArray32.h</text>
</a>
</g>
</g>
<!-- Node8&#45;&gt;Node17 -->
<g id="edge14_Node000008_Node000017" class="edge">
<title>Node8&#45;&gt;Node17</title>
<g id="a_edge14_Node000008_Node000017"><a xlink:title=" ">
<path fill="none" stroke="#63b8ff" d="M1962.91,-201.58C1970.92,-200.15 1979.17,-198.88 1987,-198 2486.77,-141.82 2617.95,-215.71 3118,-162 3129.74,-160.74 3142.39,-158.69 3153.93,-156.55"/>
<polygon fill="#63b8ff" stroke="#63b8ff" points="1962.12,-198.16 1952.94,-203.44 1963.41,-205.04 1962.12,-198.16"/>
</a>
</g>
</g>
<!-- Node18 -->
<g id="Node000018" class="node">
<title>Node18</title>
<g id="a_Node000018"><a xlink:href="_double_8h.html" target="_top" xlink:title=" ">
<polygon fill="white" stroke="#666666" points="2320.5,-156.5 2203.5,-156.5 2203.5,-137.5 2320.5,-137.5 2320.5,-156.5"/>
<text text-anchor="middle" x="2262" y="-144.5" font-family="Helvetica,sans-Serif" font-size="10.00">Cpl/Dm/Mp/Double.h</text>
</a>
</g>
</g>
<!-- Node8&#45;&gt;Node18 -->
<g id="edge15_Node000008_Node000018" class="edge">
<title>Node8&#45;&gt;Node18</title>
<g id="a_edge15_Node000008_Node000018"><a xlink:title=" ">
<path fill="none" stroke="#63b8ff" d="M1967.97,-201.58C1974.38,-200.35 1980.84,-199.14 1987,-198 2078.84,-181.09 2102.26,-179.42 2194,-162 2202.88,-160.31 2212.4,-158.41 2221.41,-156.57"/>
<polygon fill="#63b8ff" stroke="#63b8ff" points="1967.15,-198.17 1958,-203.49 1968.48,-205.04 1967.15,-198.17"/>
</a>
</g>
</g>
<!-- Node21 -->
<g id="Node000021" class="node">
<title>Node21</title>
<g id="a_Node000021"><a xlink:href="_float_8h.html" target="_top" xlink:title=" ">
<polygon fill="white" stroke="#666666" points="1436.5,-156.5 1329.5,-156.5 1329.5,-137.5 1436.5,-137.5 1436.5,-156.5"/>
<text text-anchor="middle" x="1383" y="-144.5" font-family="Helvetica,sans-Serif" font-size="10.00">Cpl/Dm/Mp/Float.h</text>
</a>
</g>
</g>
<!-- Node8&#45;&gt;Node21 -->
<g id="edge18_Node000008_Node000021" class="edge">
<title>Node8&#45;&gt;Node21</title>
<g id="a_edge18_Node000008_Node000021"><a xlink:title=" ">
<path fill="none" stroke="#63b8ff" d="M1842.85,-204.21C1824.02,-202.18 1803.75,-200.01 1785,-198 1634.35,-181.89 1595.52,-186.47 1446,-162 1436.93,-160.52 1427.21,-158.55 1418.18,-156.55"/>
<polygon fill="#63b8ff" stroke="#63b8ff" points="1842.53,-207.7 1852.84,-205.29 1843.28,-200.74 1842.53,-207.7"/>
</a>
</g>
</g>
<!-- Node24 -->
<g id="Node000024" class="node">
<title>Node24</title>
<g id="a_Node000024"><a xlink:href="_int32_8h.html" target="_top" xlink:title=" ">
<polygon fill="white" stroke="#666666" points="2445.5,-156.5 2338.5,-156.5 2338.5,-137.5 2445.5,-137.5 2445.5,-156.5"/>
<text text-anchor="middle" x="2392" y="-144.5" font-family="Helvetica,sans-Serif" font-size="10.00">Cpl/Dm/Mp/Int32.h</text>
</a>
</g>
</g>
<!-- Node8&#45;&gt;Node24 -->
<g id="edge21_Node000008_Node000024" class="edge">
<title>Node8&#45;&gt;Node24</title>
<g id="a_edge21_Node000008_Node000024"><a xlink:title=" ">
<path fill="none" stroke="#63b8ff" d="M1965.87,-201.53C1972.95,-200.25 1980.15,-199.02 1987,-198 2138.6,-175.35 2178.76,-186.92 2330,-162 2338.93,-160.53 2348.5,-158.56 2357.38,-156.57"/>
<polygon fill="#63b8ff" stroke="#63b8ff" points="1964.82,-198.17 1955.64,-203.45 1966.11,-205.05 1964.82,-198.17"/>
</a>
</g>
</g>
<!-- Node32 -->
<g id="Node000032" class="node">
<title>Node32</title>
<g id="a_Node000032"><a xlink:href="_int64_8h.html" target="_top" xlink:title=" ">
<polygon fill="white" stroke="#666666" points="1561.5,-156.5 1454.5,-156.5 1454.5,-137.5 1561.5,-137.5 1561.5,-156.5"/>
<text text-anchor="middle" x="1508" y="-144.5" font-family="Helvetica,sans-Serif" font-size="10.00">Cpl/Dm/Mp/Int64.h</text>
</a>
</g>
</g>
<!-- Node8&#45;&gt;Node32 -->
<g id="edge30_Node000008_Node000032" class="edge">
<title>Node8&#45;&gt;Node32</title>
<g id="a_edge30_Node000008_Node000032"><a xlink:title=" ">
<path fill="none" stroke="#63b8ff" d="M1842.94,-203.11C1773.16,-194.13 1664.49,-179.16 1571,-162 1562.29,-160.4 1552.96,-158.46 1544.22,-156.53"/>
<polygon fill="#63b8ff" stroke="#63b8ff" points="1842.58,-206.59 1852.94,-204.39 1843.47,-199.65 1842.58,-206.59"/>
</a>
</g>
</g>
<!-- Node33 -->
<g id="Node000033" class="node">
<title>Node33</title>
<g id="a_Node000033"><a xlink:href="_uint32_8h.html" target="_top" xlink:title=" ">
<polygon fill="#fff0f0" stroke="red" points="2956.5,-156.5 2841.5,-156.5 2841.5,-137.5 2956.5,-137.5 2956.5,-156.5"/>
<text text-anchor="middle" x="2899" y="-144.5" font-family="Helvetica,sans-Serif" font-size="10.00">Cpl/Dm/Mp/Uint32.h</text>
</a>
</g>
</g>
<!-- Node8&#45;&gt;Node33 -->
<g id="edge31_Node000008_Node000033" class="edge">
<title>Node8&#45;&gt;Node33</title>
<g id="a_edge31_Node000008_Node000033"><a xlink:title=" ">
<path fill="none" stroke="#63b8ff" d="M1963.73,-201.59C1971.49,-200.2 1979.44,-198.94 1987,-198 2153.51,-177.35 2667.96,-156.67 2841.3,-150.12"/>
<polygon fill="#63b8ff" stroke="#63b8ff" points="1962.89,-198.18 1953.71,-203.46 1964.18,-205.06 1962.89,-198.18"/>
</a>
</g>
</g>
<!-- Node44 -->
<g id="Node000044" class="node">
<title>Node44</title>
<g id="a_Node000044"><a xlink:href="_uint64_8h.html" target="_top" xlink:title=" ">
<polygon fill="#fff0f0" stroke="red" points="1694.5,-156.5 1579.5,-156.5 1579.5,-137.5 1694.5,-137.5 1694.5,-156.5"/>
<text text-anchor="middle" x="1637" y="-144.5" font-family="Helvetica,sans-Serif" font-size="10.00">Cpl/Dm/Mp/Uint64.h</text>
</a>
</g>
</g>
<!-- Node8&#45;&gt;Node44 -->
<g id="edge36_Node000008_Node000044" class="edge">
<title>Node8&#45;&gt;Node44</title>
<g id="a_edge36_Node000008_Node000044"><a xlink:title=" ">
<path fill="none" stroke="#63b8ff" d="M1868,-201.18C1813.27,-188.58 1724.01,-168.03 1673.98,-156.51"/>
<polygon fill="#63b8ff" stroke="#63b8ff" points="1867.27,-204.6 1877.8,-203.44 1868.84,-197.78 1867.27,-204.6"/>
</a>
</g>
</g>
<!-- Node46 -->
<g id="Node000046" class="node">
<title>Node46</title>
<g id="a_Node000046"><a xlink:href="_void_8h.html" target="_top" xlink:title=" ">
<polygon fill="white" stroke="#666666" points="1817,-156.5 1713,-156.5 1713,-137.5 1817,-137.5 1817,-156.5"/>
<text text-anchor="middle" x="1765" y="-144.5" font-family="Helvetica,sans-Serif" font-size="10.00">Cpl/Dm/Mp/Void.h</text>
</a>
</g>
</g>
<!-- Node8&#45;&gt;Node46 -->
<g id="edge37_Node000008_Node000046" class="edge">
<title>Node8&#45;&gt;Node46</title>
<g id="a_edge37_Node000008_Node000046"><a xlink:title=" ">
<path fill="none" stroke="#63b8ff" d="M1885.37,-199.36C1855.81,-186.75 1811.19,-167.71 1785.39,-156.7"/>
<polygon fill="#63b8ff" stroke="#63b8ff" points="1884.2,-202.66 1894.77,-203.37 1886.95,-196.23 1884.2,-202.66"/>
</a>
</g>
</g>
<!-- Node10 -->
<g id="Node000010" class="node">
<title>Node10</title>
<g id="a_Node000010"><a xlink:href="_ajax_2_screen_mgr_2_api_8h.html" target="_top" xlink:title=" ">
<polygon fill="#fff0f0" stroke="red" points="1975.5,-90.5 1854.5,-90.5 1854.5,-71.5 1975.5,-71.5 1975.5,-90.5"/>
<text text-anchor="middle" x="1915" y="-78.5" font-family="Helvetica,sans-Serif" font-size="10.00">Ajax/ScreenMgr/Api.h</text>
</a>
</g>
</g>
<!-- Node9&#45;&gt;Node10 -->
<g id="edge9_Node000009_Node000010" class="edge">
<title>Node9&#45;&gt;Node10</title>
<g id="a_edge9_Node000009_Node000010"><a xlink:title=" ">
<path fill="none" stroke="#63b8ff" d="M1915,-121.6C1915,-110.8 1915,-98.78 1915,-90.84"/>
<polygon fill="#63b8ff" stroke="#63b8ff" points="1911.5,-121.8 1915,-131.8 1918.5,-121.8 1911.5,-121.8"/>
</a>
</g>
</g>
<!-- Node14 -->
<g id="Node000014" class="node">
<title>Node14</title>
<g id="a_Node000014"><a xlink:href="_ajax_2_ui_2_home_2_screen_8h.html" target="_top" xlink:title=" ">
<polygon fill="#fff0f0" stroke="red" points="2139.5,-24.5 2010.5,-24.5 2010.5,-5.5 2139.5,-5.5 2139.5,-24.5"/>
<text text-anchor="middle" x="2075" y="-12.5" font-family="Helvetica,sans-Serif" font-size="10.00">Ajax/Ui/Home/Screen.h</text>
</a>
</g>
</g>
<!-- Node10&#45;&gt;Node14 -->
<g id="edge10_Node000010_Node000014" class="edge">
<title>Node10&#45;&gt;Node14</title>
<g id="a_edge10_Node000010_Node000014"><a xlink:title=" ">
<path fill="none" stroke="#63b8ff" d="M1946.22,-67.51C1977.85,-54.86 2025.92,-35.63 2053.51,-24.6"/>
<polygon fill="#63b8ff" stroke="#63b8ff" points="1944.56,-64.41 1936.58,-71.37 1947.16,-70.9 1944.56,-64.41"/>
</a>
</g>
</g>
<!-- Node15&#45;&gt;Node10 -->
<g id="edge12_Node000015_Node000010" class="edge">
<title>Node15&#45;&gt;Node10</title>
<g id="a_edge12_Node000015_Node000010"><a xlink:title=" ">
<path fill="none" stroke="#63b8ff" d="M2048.91,-128.58C2013.4,-116.23 1967.29,-100.19 1939.49,-90.52"/>
<polygon fill="#63b8ff" stroke="#63b8ff" points="2048.03,-131.98 2058.62,-131.95 2050.33,-125.36 2048.03,-131.98"/>
</a>
</g>
</g>
<!-- Node19 -->
<g id="Node000019" class="node">
<title>Node19</title>
<g id="a_Node000019"><a xlink:href="_ajax_2_heating_2_simulated_2_cmd_8h.html" target="_top" xlink:title=" ">
<polygon fill="white" stroke="#666666" points="2164,-96 2032,-96 2032,-66 2164,-66 2164,-96"/>
<text text-anchor="start" x="2040" y="-84" font-family="Helvetica,sans-Serif" font-size="10.00">Ajax/Heating/Simulated</text>
<text text-anchor="middle" x="2098" y="-73" font-family="Helvetica,sans-Serif" font-size="10.00">/Cmd.h</text>
</a>
</g>
</g>
<!-- Node18&#45;&gt;Node19 -->
<g id="edge16_Node000018_Node000019" class="edge">
<title>Node18&#45;&gt;Node19</title>
<g id="a_edge16_Node000018_Node000019"><a xlink:title=" ">
<path fill="none" stroke="#63b8ff" d="M2230.34,-133.65C2202.82,-122.9 2162.95,-107.35 2134.17,-96.12"/>
<polygon fill="#63b8ff" stroke="#63b8ff" points="2229.29,-136.99 2239.88,-137.37 2231.84,-130.47 2229.29,-136.99"/>
</a>
</g>
</g>
<!-- Node20 -->
<g id="Node000020" class="node">
<title>Node20</title>
<g id="a_Node000020"><a xlink:href="_heating_2_simulated_2_house_8h_source.html" target="_top" xlink:title=" ">
<polygon fill="white" stroke="#666666" points="2406,-30 2274,-30 2274,0 2406,0 2406,-30"/>
<text text-anchor="start" x="2282" y="-18" font-family="Helvetica,sans-Serif" font-size="10.00">Ajax/Heating/Simulated</text>
<text text-anchor="middle" x="2340" y="-7" font-family="Helvetica,sans-Serif" font-size="10.00">/House.h</text>
</a>
</g>
</g>
<!-- Node18&#45;&gt;Node20 -->
<g id="edge17_Node000018_Node000020" class="edge">
<title>Node18&#45;&gt;Node20</title>
<g id="a_edge17_Node000018_Node000020"><a xlink:title=" ">
<path fill="none" stroke="#63b8ff" d="M2210.74,-135.38C2140.63,-120.84 2023.37,-96.46 2023,-96 2014.59,-85.65 2014.34,-76.14 2023,-66 2039.09,-47.18 2185.66,-30.39 2273.76,-21.88"/>
<polygon fill="#63b8ff" stroke="#63b8ff" points="2210.22,-138.85 2220.72,-137.45 2211.64,-131.99 2210.22,-138.85"/>
</a>
</g>
</g>
<!-- Node22 -->
<g id="Node000022" class="node">
<title>Node22</title>
<g id="a_Node000022"><a xlink:href="_cpl_2_m_app_2_temperature_2_api_8h.html" target="_top" xlink:title=" ">
<polygon fill="white" stroke="#666666" points="1370,-96 1242,-96 1242,-66 1370,-66 1370,-96"/>
<text text-anchor="start" x="1250" y="-84" font-family="Helvetica,sans-Serif" font-size="10.00">Cpl/MApp/Temperature</text>
<text text-anchor="middle" x="1306" y="-73" font-family="Helvetica,sans-Serif" font-size="10.00">/Api.h</text>
</a>
</g>
</g>
<!-- Node21&#45;&gt;Node22 -->
<g id="edge19_Node000021_Node000022" class="edge">
<title>Node21&#45;&gt;Node22</title>
<g id="a_edge19_Node000021_Node000022"><a xlink:title=" ">
<path fill="none" stroke="#63b8ff" d="M1364.61,-130.71C1351.97,-120.21 1335.31,-106.36 1322.98,-96.12"/>
<polygon fill="#63b8ff" stroke="#63b8ff" points="1362.69,-133.67 1372.62,-137.37 1367.16,-128.28 1362.69,-133.67"/>
</a>
</g>
</g>
<!-- Node23 -->
<g id="Node000023" class="node">
<title>Node23</title>
<g id="a_Node000023"><a xlink:href="_driver_2_r_h_temp_2_simulated_2_api_8h.html" target="_top" xlink:title=" ">
<polygon fill="white" stroke="#666666" points="1531.5,-96 1388.5,-96 1388.5,-66 1531.5,-66 1531.5,-96"/>
<text text-anchor="start" x="1396.5" y="-84" font-family="Helvetica,sans-Serif" font-size="10.00">Driver/RHTemp/Simulated</text>
<text text-anchor="middle" x="1460" y="-73" font-family="Helvetica,sans-Serif" font-size="10.00">/Api.h</text>
</a>
</g>
</g>
<!-- Node21&#45;&gt;Node23 -->
<g id="edge20_Node000021_Node000023" class="edge">
<title>Node21&#45;&gt;Node23</title>
<g id="a_edge20_Node000021_Node000023"><a xlink:title=" ">
<path fill="none" stroke="#63b8ff" d="M1401.39,-130.71C1414.03,-120.21 1430.69,-106.36 1443.02,-96.12"/>
<polygon fill="#63b8ff" stroke="#63b8ff" points="1398.84,-128.28 1393.38,-137.37 1403.31,-133.67 1398.84,-128.28"/>
</a>
</g>
</g>
<!-- Node24&#45;&gt;Node14 -->
<g id="edge26_Node000024_Node000014" class="edge">
<title>Node24&#45;&gt;Node14</title>
<g id="a_edge26_Node000024_Node000014"><a xlink:title=" ">
<path fill="none" stroke="#63b8ff" d="M2344.76,-135.05C2299.65,-124.21 2235.2,-107.59 2212,-96 2192.44,-86.23 2191.48,-77.69 2173,-66 2146.85,-49.47 2114.55,-33.84 2094.36,-24.59"/>
<polygon fill="#63b8ff" stroke="#63b8ff" points="2344.1,-138.49 2354.64,-137.41 2345.72,-131.68 2344.1,-138.49"/>
</a>
</g>
</g>
<!-- Node24&#45;&gt;Node19 -->
<g id="edge22_Node000024_Node000019" class="edge">
<title>Node24&#45;&gt;Node19</title>
<g id="a_edge22_Node000024_Node000019"><a xlink:title=" ">
<path fill="none" stroke="#63b8ff" d="M2344.4,-135.2C2339.54,-134.11 2334.67,-133.03 2330,-132 2274.07,-119.66 2210.48,-105.98 2164.04,-96.05"/>
<polygon fill="#63b8ff" stroke="#63b8ff" points="2343.78,-138.65 2354.31,-137.43 2345.32,-131.82 2343.78,-138.65"/>
</a>
</g>
</g>
<!-- Node25 -->
<g id="Node000025" class="node">
<title>Node25</title>
<g id="a_Node000025"><a xlink:href="_ajax_2_heating_2_supervisor_2_api_8h.html" target="_top" xlink:title=" ">
<polygon fill="white" stroke="#666666" points="2508,-96 2374,-96 2374,-66 2508,-66 2508,-96"/>
<text text-anchor="start" x="2382" y="-84" font-family="Helvetica,sans-Serif" font-size="10.00">Ajax/Heating/Supervisor</text>
<text text-anchor="middle" x="2441" y="-73" font-family="Helvetica,sans-Serif" font-size="10.00">/Api.h</text>
</a>
</g>
</g>
<!-- Node24&#45;&gt;Node25 -->
<g id="edge23_Node000024_Node000025" class="edge">
<title>Node24&#45;&gt;Node25</title>
<g id="a_edge23_Node000024_Node000025"><a xlink:title=" ">
<path fill="none" stroke="#63b8ff" d="M2404.84,-129.24C2412.66,-119.02 2422.55,-106.1 2430.01,-96.36"/>
<polygon fill="#63b8ff" stroke="#63b8ff" points="2401.91,-127.3 2398.61,-137.37 2407.47,-131.56 2401.91,-127.3"/>
</a>
</g>
</g>
<!-- Node27 -->
<g id="Node000027" class="node">
<title>Node27</title>
<g id="a_Node000027"><a xlink:href="_ajax_2_thermistor_8h.html" target="_top" xlink:title=" ">
<polygon fill="#fff0f0" stroke="red" points="2682,-90.5 2526,-90.5 2526,-71.5 2682,-71.5 2682,-90.5"/>
<text text-anchor="middle" x="2604" y="-78.5" font-family="Helvetica,sans-Serif" font-size="10.00">Driver/AIO/Ajax/Thermistor.h</text>
</a>
</g>
</g>
<!-- Node24&#45;&gt;Node27 -->
<g id="edge27_Node000024_Node000027" class="edge">
<title>Node24&#45;&gt;Node27</title>
<g id="a_edge27_Node000024_Node000027"><a xlink:title=" ">
<path fill="none" stroke="#63b8ff" d="M2430.41,-134.4C2472.22,-121.78 2538.1,-101.89 2575.52,-90.6"/>
<polygon fill="#63b8ff" stroke="#63b8ff" points="2429.15,-131.13 2420.59,-137.37 2431.18,-137.83 2429.15,-131.13"/>
</a>
</g>
</g>
<!-- Node29 -->
<g id="Node000029" class="node">
<title>Node29</title>
<g id="a_Node000029"><a xlink:href="_eros_2_ui_2_home_2_screen_8h.html" target="_top" xlink:title=" ">
<polygon fill="#fff0f0" stroke="red" points="2828,-90.5 2700,-90.5 2700,-71.5 2828,-71.5 2828,-90.5"/>
<text text-anchor="middle" x="2764" y="-78.5" font-family="Helvetica,sans-Serif" font-size="10.00">Eros/Ui/Home/Screen.h</text>
</a>
</g>
</g>
<!-- Node24&#45;&gt;Node29 -->
<g id="edge28_Node000024_Node000029" class="edge">
<title>Node24&#45;&gt;Node29</title>
<g id="a_edge28_Node000024_Node000029"><a xlink:title=" ">
<path fill="none" stroke="#63b8ff" d="M2455.44,-135.84C2516.01,-126.03 2609.83,-110.57 2691,-96 2700.53,-94.29 2710.74,-92.38 2720.41,-90.54"/>
<polygon fill="#63b8ff" stroke="#63b8ff" points="2454.58,-132.43 2445.27,-137.48 2455.7,-139.34 2454.58,-132.43"/>
</a>
</g>
</g>
<!-- Node31 -->
<g id="Node000031" class="node">
<title>Node31</title>
<g id="a_Node000031"><a xlink:href="_eros_2_ui_2_lcd_test_2_screen_8h.html" target="_top" xlink:title=" ">
<polygon fill="#fff0f0" stroke="red" points="2355.5,-90.5 2220.5,-90.5 2220.5,-71.5 2355.5,-71.5 2355.5,-90.5"/>
<text text-anchor="middle" x="2288" y="-78.5" font-family="Helvetica,sans-Serif" font-size="10.00">Eros/Ui/LcdTest/Screen.h</text>
</a>
</g>
</g>
<!-- Node24&#45;&gt;Node31 -->
<g id="edge29_Node000024_Node000031" class="edge">
<title>Node24&#45;&gt;Node31</title>
<g id="a_edge29_Node000024_Node000031"><a xlink:title=" ">
<path fill="none" stroke="#63b8ff" d="M2369.28,-132.02C2348.83,-119.43 2319.4,-101.32 2302.14,-90.7"/>
<polygon fill="#63b8ff" stroke="#63b8ff" points="2367.62,-135.11 2377.97,-137.37 2371.29,-129.15 2367.62,-135.11"/>
</a>
</g>
</g>
<!-- Node25&#45;&gt;Node20 -->
<g id="edge25_Node000025_Node000020" class="edge">
<title>Node25&#45;&gt;Node20</title>
<g id="a_edge25_Node000025_Node000020"><a xlink:title=" ">
<path fill="none" stroke="#63b8ff" d="M2409.91,-60.3C2394.54,-50.56 2376.33,-39.02 2362.35,-30.16"/>
<polygon fill="#63b8ff" stroke="#63b8ff" points="2408.26,-63.4 2418.58,-65.8 2412.01,-57.49 2408.26,-63.4"/>
</a>
</g>
</g>
<!-- Node26 -->
<g id="Node000026" class="node">
<title>Node26</title>
<g id="a_Node000026"><a xlink:href="_ajax_2_heating_2_io_2_api_8h.html" target="_top" xlink:title=" ">
<polygon fill="white" stroke="#666666" points="2601.5,-24.5 2482.5,-24.5 2482.5,-5.5 2601.5,-5.5 2601.5,-24.5"/>
<text text-anchor="middle" x="2542" y="-12.5" font-family="Helvetica,sans-Serif" font-size="10.00">Ajax/Heating/Io/Api.h</text>
</a>
</g>
</g>
<!-- Node25&#45;&gt;Node26 -->
<g id="edge24_Node000025_Node000026" class="edge">
<title>Node25&#45;&gt;Node26</title>
<g id="a_edge24_Node000025_Node000026"><a xlink:title=" ">
<path fill="none" stroke="#63b8ff" d="M2471.99,-60.36C2490.83,-48.42 2513.95,-33.77 2528.34,-24.66"/>
<polygon fill="#63b8ff" stroke="#63b8ff" points="2469.99,-57.49 2463.42,-65.8 2473.74,-63.4 2469.99,-57.49"/>
</a>
</g>
</g>
<!-- Node33&#45;&gt;Node26 -->
<g id="edge32_Node000033_Node000026" class="edge">
<title>Node33&#45;&gt;Node26</title>
<g id="a_edge32_Node000033_Node000026"><a xlink:title=" ">
<path fill="none" stroke="#63b8ff" d="M2950.34,-135.31C3010.32,-122.59 3102.07,-102.26 3107,-96 3115.25,-85.53 3116,-75.83 3107,-66 3073.36,-29.25 2739.82,-19.36 2601.56,-16.83"/>
<polygon fill="#63b8ff" stroke="#63b8ff" points="2949.33,-131.95 2940.27,-137.44 2950.78,-138.8 2949.33,-131.95"/>
</a>
</g>
</g>
<!-- Node34 -->
<g id="Node000034" class="node">
<title>Node34</title>
<g id="a_Node000034"><a xlink:href="_ajax_2_main_2__plat__simulator_2_model_points_8h.html" target="_top" xlink:title=" ">
<polygon fill="white" stroke="#666666" points="3298,-96 3154,-96 3154,-66 3298,-66 3298,-96"/>
<text text-anchor="start" x="3162" y="-84" font-family="Helvetica,sans-Serif" font-size="10.00">Ajax/Main/_plat_simulator</text>
<text text-anchor="middle" x="3226" y="-73" font-family="Helvetica,sans-Serif" font-size="10.00">/ModelPoints.h</text>
</a>
</g>
</g>
<!-- Node33&#45;&gt;Node34 -->
<g id="edge33_Node000033_Node000034" class="edge">
<title>Node33&#45;&gt;Node34</title>
<g id="a_edge33_Node000033_Node000034"><a xlink:title=" ">
<path fill="none" stroke="#63b8ff" d="M2949.38,-135.38C2954.98,-134.23 2960.61,-133.08 2966,-132 3029.43,-119.27 3101.71,-105.43 3153.93,-95.54"/>
<polygon fill="#63b8ff" stroke="#63b8ff" points="2948.45,-132 2939.37,-137.46 2949.87,-138.85 2948.45,-132"/>
</a>
</g>
</g>
<!-- Node35 -->
<g id="Node000035" class="node">
<title>Node35</title>
<g id="a_Node000035"><a xlink:href="_ajax_2_metrics_2_api_8h.html" target="_top" xlink:title=" ">
<polygon fill="white" stroke="#666666" points="2951.5,-90.5 2846.5,-90.5 2846.5,-71.5 2951.5,-71.5 2951.5,-90.5"/>
<text text-anchor="middle" x="2899" y="-78.5" font-family="Helvetica,sans-Serif" font-size="10.00">Ajax/Metrics/Api.h</text>
</a>
</g>
</g>
<!-- Node33&#45;&gt;Node35 -->
<g id="edge34_Node000033_Node000035" class="edge">
<title>Node33&#45;&gt;Node35</title>
<g id="a_edge34_Node000033_Node000035"><a xlink:title=" ">
<path fill="none" stroke="#63b8ff" d="M2899,-127.08C2899,-115.13 2899,-100.22 2899,-90.91"/>
<polygon fill="#63b8ff" stroke="#63b8ff" points="2895.5,-127.37 2899,-137.37 2902.5,-127.37 2895.5,-127.37"/>
</a>
</g>
</g>
<!-- Node36 -->
<g id="Node000036" class="node">
<title>Node36</title>
<g id="a_Node000036"><a xlink:href="_ajax_2_ui_2_status_indicator_2_api_8h.html" target="_top" xlink:title=" ">
<polygon fill="white" stroke="#666666" points="3098,-96 2970,-96 2970,-66 3098,-66 3098,-96"/>
<text text-anchor="start" x="2978" y="-84" font-family="Helvetica,sans-Serif" font-size="10.00">Ajax/Ui/StatusIndicator</text>
<text text-anchor="middle" x="3034" y="-73" font-family="Helvetica,sans-Serif" font-size="10.00">/Api.h</text>
</a>
</g>
</g>
<!-- Node33&#45;&gt;Node36 -->
<g id="edge35_Node000033_Node000036" class="edge">
<title>Node33&#45;&gt;Node36</title>
<g id="a_edge35_Node000033_Node000036"><a xlink:title=" ">
<path fill="none" stroke="#63b8ff" d="M2926.26,-133.08C2948.87,-122.36 2980.95,-107.15 3004.22,-96.12"/>
<polygon fill="#63b8ff" stroke="#63b8ff" points="2924.74,-129.92 2917.21,-137.37 2927.74,-136.25 2924.74,-129.92"/>
</a>
</g>
</g>
<!-- Node48 -->
<g id="Node000048" class="node">
<title>Node48</title>
<g id="a_Node000048"><a xlink:href="_arduino_2__sd_fat_2__api_2_dir_list___8h.html" target="_top" xlink:title=" ">
<polygon fill="white" stroke="#666666" points="122,-162 0,-162 0,-132 122,-132 122,-162"/>
<text text-anchor="start" x="8" y="-150" font-family="Helvetica,sans-Serif" font-size="10.00">Cpl/Io/File/Arduino</text>
<text text-anchor="middle" x="61" y="-139" font-family="Helvetica,sans-Serif" font-size="10.00">/_sdFat/_api/DirList_.h</text>
</a>
</g>
</g>
<!-- Node47&#45;&gt;Node48 -->
<g id="edge39_Node000047_Node000048" class="edge">
<title>Node47&#45;&gt;Node48</title>
<g id="a_edge39_Node000047_Node000048"><a xlink:title=" ">
<path fill="none" stroke="#63b8ff" d="M214.76,-200.07C183.01,-189.31 136.29,-173.49 102.69,-162.12"/>
<polygon fill="#63b8ff" stroke="#63b8ff" points="213.92,-203.48 224.51,-203.37 216.16,-196.85 213.92,-203.48"/>
</a>
</g>
</g>
<!-- Node49 -->
<g id="Node000049" class="node">
<title>Node49</title>
<g id="a_Node000049"><a xlink:href="_littlefs_2__api_2_dir_list___8h.html" target="_top" xlink:title=" ">
<polygon fill="white" stroke="#666666" points="241.5,-162 140.5,-162 140.5,-132 241.5,-132 241.5,-162"/>
<text text-anchor="start" x="148.5" y="-150" font-family="Helvetica,sans-Serif" font-size="10.00">Cpl/Io/File/Littlefs</text>
<text text-anchor="middle" x="191" y="-139" font-family="Helvetica,sans-Serif" font-size="10.00">/_api/DirList_.h</text>
</a>
</g>
</g>
<!-- Node47&#45;&gt;Node49 -->
<g id="edge40_Node000047_Node000049" class="edge">
<title>Node47&#45;&gt;Node49</title>
<g id="a_edge40_Node000047_Node000049"><a xlink:title=" ">
<path fill="none" stroke="#63b8ff" d="M235.11,-195.85C225.61,-185.54 213.4,-172.3 204.24,-162.36"/>
<polygon fill="#63b8ff" stroke="#63b8ff" points="232.69,-198.39 242.04,-203.37 237.84,-193.64 232.69,-198.39"/>
</a>
</g>
</g>
<!-- Node50 -->
<g id="Node000050" class="node">
<title>Node50</title>
<g id="a_Node000050"><a xlink:href="__posix_2__api_2_dir_list___8h.html" target="_top" xlink:title=" ">
<polygon fill="white" stroke="#666666" points="358.5,-162 259.5,-162 259.5,-132 358.5,-132 358.5,-162"/>
<text text-anchor="start" x="267.5" y="-150" font-family="Helvetica,sans-Serif" font-size="10.00">Cpl/Io/File/_posix</text>
<text text-anchor="middle" x="309" y="-139" font-family="Helvetica,sans-Serif" font-size="10.00">/_api/DirList_.h</text>
</a>
</g>
</g>
<!-- Node47&#45;&gt;Node50 -->
<g id="edge41_Node000047_Node000050" class="edge">
<title>Node47&#45;&gt;Node50</title>
<g id="a_edge41_Node000047_Node000050"><a xlink:title=" ">
<path fill="none" stroke="#63b8ff" d="M264.89,-195.85C274.39,-185.54 286.6,-172.3 295.76,-162.36"/>
<polygon fill="#63b8ff" stroke="#63b8ff" points="262.16,-193.64 257.96,-203.37 267.31,-198.39 262.16,-193.64"/>
</a>
</g>
</g>
<!-- Node51 -->
<g id="Node000051" class="node">
<title>Node51</title>
<g id="a_Node000051"><a xlink:href="__win32_2__api_2_dir_list___8h.html" target="_top" xlink:title=" ">
<polygon fill="white" stroke="#666666" points="479,-162 377,-162 377,-132 479,-132 479,-162"/>
<text text-anchor="start" x="385" y="-150" font-family="Helvetica,sans-Serif" font-size="10.00">Cpl/Io/File/_win32</text>
<text text-anchor="middle" x="428" y="-139" font-family="Helvetica,sans-Serif" font-size="10.00">/_api/DirList_.h</text>
</a>
</g>
</g>
<!-- Node47&#45;&gt;Node51 -->
<g id="edge42_Node000047_Node000051" class="edge">
<title>Node47&#45;&gt;Node51</title>
<g id="a_edge42_Node000047_Node000051"><a xlink:title=" ">
<path fill="none" stroke="#63b8ff" d="M283.58,-199.93C313.47,-189.18 357.23,-173.44 388.74,-162.12"/>
<polygon fill="#63b8ff" stroke="#63b8ff" points="282.23,-196.69 274.01,-203.37 284.6,-203.28 282.23,-196.69"/>
</a>
</g>
</g>
<!-- Node59 -->
<g id="Node000059" class="node">
<title>Node59</title>
<g id="a_Node000059"><a xlink:href="_cpl_2_t_shell_2_maker_8h.html" target="_top" xlink:title=" ">
<polygon fill="white" stroke="#666666" points="1138.5,-156.5 1031.5,-156.5 1031.5,-137.5 1138.5,-137.5 1138.5,-156.5"/>
<text text-anchor="middle" x="1085" y="-144.5" font-family="Helvetica,sans-Serif" font-size="10.00">Cpl/TShell/Maker.h</text>
</a>
</g>
</g>
<!-- Node58&#45;&gt;Node59 -->
<g id="edge50_Node000058_Node000059" class="edge">
<title>Node58&#45;&gt;Node59</title>
<g id="a_edge50_Node000058_Node000059"><a xlink:title=" ">
<path fill="none" stroke="#63b8ff" d="M1256.13,-200.4C1214.91,-187.78 1149.97,-167.89 1113.07,-156.6"/>
<polygon fill="#63b8ff" stroke="#63b8ff" points="1255.23,-203.79 1265.81,-203.37 1257.28,-197.09 1255.23,-203.79"/>
</a>
</g>
</g>
<!-- Node60 -->
<g id="Node000060" class="node">
<title>Node60</title>
<g id="a_Node000060"><a xlink:href="_polled_processor_8h.html" target="_top" xlink:title=" ">
<polygon fill="#fff0f0" stroke="red" points="1311,-156.5 1157,-156.5 1157,-137.5 1311,-137.5 1311,-156.5"/>
<text text-anchor="middle" x="1234" y="-144.5" font-family="Helvetica,sans-Serif" font-size="10.00">Cpl/TShell/PolledProcessor.h</text>
</a>
</g>
</g>
<!-- Node58&#45;&gt;Node60 -->
<g id="edge51_Node000058_Node000060" class="edge">
<title>Node58&#45;&gt;Node60</title>
<g id="a_edge51_Node000058_Node000060"><a xlink:title=" ">
<path fill="none" stroke="#63b8ff" d="M1278.98,-195.98C1267.4,-183.62 1251.8,-166.99 1242.35,-156.91"/>
<polygon fill="#63b8ff" stroke="#63b8ff" points="1276.52,-198.47 1285.91,-203.37 1281.62,-193.68 1276.52,-198.47"/>
</a>
</g>
</g>
</g>
</svg>
