<?xml version="1.0" encoding="UTF-8" standalone="no"?>
<!DOCTYPE svg PUBLIC "-//W3C//DTD SVG 1.1//EN"
 "http://www.w3.org/Graphics/SVG/1.1/DTD/svg11.dtd">
<!-- Generated by graphviz version 9.0.0 (20230911.1827)
 -->
<!-- Title: Cpl/Text/Frame/StreamEncoder.h Pages: 1 -->
<svg width="527pt" height="304pt"
 viewBox="0.00 0.00 526.75 303.50" xmlns="http://www.w3.org/2000/svg" xmlns:xlink="http://www.w3.org/1999/xlink">
<g id="graph0" class="graph" transform="scale(1 1) rotate(0) translate(4 299.5)">
<title>Cpl/Text/Frame/StreamEncoder.h</title>
<!-- Node1 -->
<g id="Node000001" class="node">
<title>Node1</title>
<g id="a_Node000001"><a xlink:title=" ">
<polygon fill="#999999" stroke="#666666" points="300.38,-295.5 140.38,-295.5 140.38,-276.25 300.38,-276.25 300.38,-295.5"/>
<text text-anchor="middle" x="220.38" y="-282" font-family="Helvetica,sans-Serif" font-size="10.00">Cpl/Text/Frame/StreamEncoder.h</text>
</a>
</g>
</g>
<!-- Node2 -->
<g id="Node000002" class="node">
<title>Node2</title>
<g id="a_Node000002"><a xlink:href="_encoder___8h.html" target="_top" xlink:title=" ">
<polygon fill="white" stroke="#666666" points="224.25,-240.25 90.5,-240.25 90.5,-221 224.25,-221 224.25,-240.25"/>
<text text-anchor="middle" x="157.38" y="-226.75" font-family="Helvetica,sans-Serif" font-size="10.00">Cpl/Text/Frame/Encoder_.h</text>
</a>
</g>
</g>
<!-- Node1&#45;&gt;Node2 -->
<g id="edge1_Node000001_Node000002" class="edge">
<title>Node1&#45;&gt;Node2</title>
<g id="a_edge1_Node000001_Node000002"><a xlink:title=" ">
<path fill="none" stroke="#63b8ff" d="M209.69,-275.84C200.67,-268.22 187.54,-257.12 176.69,-247.95"/>
<polygon fill="#63b8ff" stroke="#63b8ff" points="178.96,-245.28 169.06,-241.5 174.44,-250.63 178.96,-245.28"/>
</a>
</g>
</g>
<!-- Node5 -->
<g id="Node000005" class="node">
<title>Node5</title>
<g id="a_Node000005"><a xlink:href="_output_8h.html" target="_top" xlink:title=" ">
<polygon fill="white" stroke="#666666" points="360,-240.25 278.75,-240.25 278.75,-221 360,-221 360,-240.25"/>
<text text-anchor="middle" x="319.38" y="-226.75" font-family="Helvetica,sans-Serif" font-size="10.00">Cpl/Io/Output.h</text>
</a>
</g>
</g>
<!-- Node1&#45;&gt;Node5 -->
<g id="edge4_Node000001_Node000005" class="edge">
<title>Node1&#45;&gt;Node5</title>
<g id="a_edge4_Node000001_Node000005"><a xlink:title=" ">
<path fill="none" stroke="#63b8ff" d="M237.17,-275.84C252.39,-267.66 275.07,-255.46 292.76,-245.94"/>
<polygon fill="#63b8ff" stroke="#63b8ff" points="294.02,-249.24 301.17,-241.42 290.7,-243.07 294.02,-249.24"/>
</a>
</g>
</g>
<!-- Node3 -->
<g id="Node000003" class="node">
<title>Node3</title>
<g id="a_Node000003"><a xlink:href="_encoder_8h.html" target="_top" xlink:title=" ">
<polygon fill="white" stroke="#666666" points="136.62,-185 8.12,-185 8.12,-165.75 136.62,-165.75 136.62,-185"/>
<text text-anchor="middle" x="72.38" y="-171.5" font-family="Helvetica,sans-Serif" font-size="10.00">Cpl/Text/Frame/Encoder.h</text>
</a>
</g>
</g>
<!-- Node2&#45;&gt;Node3 -->
<g id="edge2_Node000002_Node000003" class="edge">
<title>Node2&#45;&gt;Node3</title>
<g id="a_edge2_Node000002_Node000003"><a xlink:title=" ">
<path fill="none" stroke="#63b8ff" d="M142.96,-220.59C130.26,-212.64 111.5,-200.89 96.52,-191.5"/>
<polygon fill="#63b8ff" stroke="#63b8ff" points="98.48,-188.6 88.15,-186.26 94.76,-194.53 98.48,-188.6"/>
</a>
</g>
</g>
<!-- Node4 -->
<g id="Node000004" class="node">
<title>Node4</title>
<g id="a_Node000004"><a xlink:title=" ">
<polygon fill="#e0e0e0" stroke="#999999" points="46.75,-129.75 0,-129.75 0,-110.5 46.75,-110.5 46.75,-129.75"/>
<text text-anchor="middle" x="23.38" y="-116.25" font-family="Helvetica,sans-Serif" font-size="10.00">stdlib.h</text>
</a>
</g>
</g>
<!-- Node3&#45;&gt;Node4 -->
<g id="edge3_Node000003_Node000004" class="edge">
<title>Node3&#45;&gt;Node4</title>
<g id="a_edge3_Node000003_Node000004"><a xlink:title=" ">
<path fill="none" stroke="#63b8ff" d="M64.28,-165.58C57.52,-158.23 47.65,-147.51 39.31,-138.44"/>
<polygon fill="#63b8ff" stroke="#63b8ff" points="42.01,-136.21 32.67,-131.22 36.86,-140.95 42.01,-136.21"/>
</a>
</g>
</g>
<!-- Node6 -->
<g id="Node000006" class="node">
<title>Node6</title>
<g id="a_Node000006"><a xlink:href="_text_2_string_8h.html" target="_top" xlink:title=" ">
<polygon fill="white" stroke="#666666" points="291.38,-185 203.38,-185 203.38,-165.75 291.38,-165.75 291.38,-185"/>
<text text-anchor="middle" x="247.38" y="-171.5" font-family="Helvetica,sans-Serif" font-size="10.00">Cpl/Text/String.h</text>
</a>
</g>
</g>
<!-- Node5&#45;&gt;Node6 -->
<g id="edge5_Node000005_Node000006" class="edge">
<title>Node5&#45;&gt;Node6</title>
<g id="a_edge5_Node000005_Node000006"><a xlink:title=" ">
<path fill="none" stroke="#63b8ff" d="M307.16,-220.59C296.55,-212.74 280.94,-201.2 268.33,-191.87"/>
<polygon fill="#63b8ff" stroke="#63b8ff" points="270.75,-189.31 260.63,-186.17 266.58,-194.94 270.75,-189.31"/>
</a>
</g>
</g>
<!-- Node14 -->
<g id="Node000014" class="node">
<title>Node14</title>
<g id="a_Node000014"><a xlink:title=" ">
<polygon fill="#e0e0e0" stroke="#999999" points="344.62,-129.75 294.12,-129.75 294.12,-110.5 344.62,-110.5 344.62,-129.75"/>
<text text-anchor="middle" x="319.38" y="-116.25" font-family="Helvetica,sans-Serif" font-size="10.00">stdarg.h</text>
</a>
</g>
</g>
<!-- Node5&#45;&gt;Node14 -->
<g id="edge19_Node000005_Node000014" class="edge">
<title>Node5&#45;&gt;Node14</title>
<g id="a_edge19_Node000005_Node000014"><a xlink:title=" ">
<path fill="none" stroke="#63b8ff" d="M319.38,-220.75C319.38,-203.5 319.38,-165.08 319.38,-141.31"/>
<polygon fill="#63b8ff" stroke="#63b8ff" points="322.88,-141.64 319.38,-131.64 315.88,-141.64 322.88,-141.64"/>
</a>
</g>
</g>
<!-- Node16 -->
<g id="Node000016" class="node">
<title>Node16</title>
<g id="a_Node000016"><a xlink:href="_close_8h.html" target="_top" xlink:title=" ">
<polygon fill="white" stroke="#666666" points="423.75,-185 347,-185 347,-165.75 423.75,-165.75 423.75,-185"/>
<text text-anchor="middle" x="385.38" y="-171.5" font-family="Helvetica,sans-Serif" font-size="10.00">Cpl/Io/Close.h</text>
</a>
</g>
</g>
<!-- Node5&#45;&gt;Node16 -->
<g id="edge16_Node000005_Node000016" class="edge">
<title>Node5&#45;&gt;Node16</title>
<g id="a_edge16_Node000005_Node000016"><a xlink:title=" ">
<path fill="none" stroke="#63b8ff" d="M330.57,-220.59C340.11,-212.9 354.05,-201.65 365.48,-192.43"/>
<polygon fill="#63b8ff" stroke="#63b8ff" points="367.58,-195.23 373.17,-186.23 363.19,-189.78 367.58,-195.23"/>
</a>
</g>
</g>
<!-- Node18 -->
<g id="Node000018" class="node">
<title>Node18</title>
<g id="a_Node000018"><a xlink:href="_is_eos_8h.html" target="_top" xlink:title=" ">
<polygon fill="white" stroke="#666666" points="518.75,-185 442,-185 442,-165.75 518.75,-165.75 518.75,-185"/>
<text text-anchor="middle" x="480.38" y="-171.5" font-family="Helvetica,sans-Serif" font-size="10.00">Cpl/Io/IsEos.h</text>
</a>
</g>
</g>
<!-- Node5&#45;&gt;Node18 -->
<g id="edge18_Node000005_Node000018" class="edge">
<title>Node5&#45;&gt;Node18</title>
<g id="a_edge18_Node000005_Node000018"><a xlink:title=" ">
<path fill="none" stroke="#63b8ff" d="M346.69,-220.59C372.94,-211.91 412.85,-198.71 442.23,-188.99"/>
<polygon fill="#63b8ff" stroke="#63b8ff" points="443.1,-192.39 451.49,-185.93 440.9,-185.74 443.1,-192.39"/>
</a>
</g>
</g>
<!-- Node7 -->
<g id="Node000007" class="node">
<title>Node7</title>
<g id="a_Node000007"><a xlink:title=" ">
<polygon fill="#e0e0e0" stroke="#999999" points="76,-74.5 0.75,-74.5 0.75,-55.25 76,-55.25 76,-74.5"/>
<text text-anchor="middle" x="38.38" y="-61" font-family="Helvetica,sans-Serif" font-size="10.00">colony_map.h</text>
</a>
</g>
</g>
<!-- Node6&#45;&gt;Node7 -->
<g id="edge6_Node000006_Node000007" class="edge">
<title>Node6&#45;&gt;Node7</title>
<g id="a_edge6_Node000006_Node000007"><a xlink:title=" ">
<path fill="none" stroke="#63b8ff" d="M203.08,-168.48C170.69,-162.59 126.75,-151.19 93.38,-129.75 75.14,-118.04 59.6,-98.51 49.74,-84.12"/>
<polygon fill="#63b8ff" stroke="#63b8ff" points="52.83,-82.46 44.43,-76 46.98,-86.29 52.83,-82.46"/>
</a>
</g>
</g>
<!-- Node8 -->
<g id="Node000008" class="node">
<title>Node8</title>
<g id="a_Node000008"><a xlink:href="_key_8h.html" target="_top" xlink:title=" ">
<polygon fill="white" stroke="#666666" points="204.12,-129.75 102.62,-129.75 102.62,-110.5 204.12,-110.5 204.12,-129.75"/>
<text text-anchor="middle" x="153.38" y="-116.25" font-family="Helvetica,sans-Serif" font-size="10.00">Cpl/Container/Key.h</text>
</a>
</g>
</g>
<!-- Node6&#45;&gt;Node8 -->
<g id="edge7_Node000006_Node000008" class="edge">
<title>Node6&#45;&gt;Node8</title>
<g id="a_edge7_Node000006_Node000008"><a xlink:title=" ">
<path fill="none" stroke="#63b8ff" d="M231.43,-165.34C217.11,-157.23 195.84,-145.18 179.12,-135.71"/>
<polygon fill="#63b8ff" stroke="#63b8ff" points="181.14,-132.83 170.72,-130.95 177.69,-138.92 181.14,-132.83"/>
</a>
</g>
</g>
<!-- Node6&#45;&gt;Node14 -->
<g id="edge14_Node000006_Node000014" class="edge">
<title>Node6&#45;&gt;Node14</title>
<g id="a_edge14_Node000006_Node000014"><a xlink:title=" ">
<path fill="none" stroke="#63b8ff" d="M259.59,-165.34C270.2,-157.49 285.81,-145.95 298.42,-136.62"/>
<polygon fill="#63b8ff" stroke="#63b8ff" points="300.17,-139.69 306.12,-130.92 296,-134.06 300.17,-139.69"/>
</a>
</g>
</g>
<!-- Node15 -->
<g id="Node000015" class="node">
<title>Node15</title>
<g id="a_Node000015"><a xlink:title=" ">
<polygon fill="#e0e0e0" stroke="#999999" points="276.12,-129.75 222.62,-129.75 222.62,-110.5 276.12,-110.5 276.12,-129.75"/>
<text text-anchor="middle" x="249.38" y="-116.25" font-family="Helvetica,sans-Serif" font-size="10.00">iostream</text>
</a>
</g>
</g>
<!-- Node6&#45;&gt;Node15 -->
<g id="edge15_Node000006_Node000015" class="edge">
<title>Node6&#45;&gt;Node15</title>
<g id="a_edge15_Node000006_Node000015"><a xlink:title=" ">
<path fill="none" stroke="#63b8ff" d="M247.71,-165.58C247.95,-158.99 248.3,-149.71 248.62,-141.32"/>
<polygon fill="#63b8ff" stroke="#63b8ff" points="252.1,-141.75 248.98,-131.62 245.11,-141.48 252.1,-141.75"/>
</a>
</g>
</g>
<!-- Node8&#45;&gt;Node7 -->
<g id="edge13_Node000008_Node000007" class="edge">
<title>Node8&#45;&gt;Node7</title>
<g id="a_edge13_Node000008_Node000007"><a xlink:title=" ">
<path fill="none" stroke="#63b8ff" d="M133.87,-110.09C115.86,-101.75 88.85,-89.25 68.15,-79.66"/>
<polygon fill="#63b8ff" stroke="#63b8ff" points="69.9,-76.61 59.35,-75.59 66.96,-82.97 69.9,-76.61"/>
</a>
</g>
</g>
<!-- Node9 -->
<g id="Node000009" class="node">
<title>Node9</title>
<g id="a_Node000009"><a xlink:href="_fatal_error_8h.html" target="_top" xlink:title=" ">
<polygon fill="white" stroke="#666666" points="212.75,-74.5 94,-74.5 94,-55.25 212.75,-55.25 212.75,-74.5"/>
<text text-anchor="middle" x="153.38" y="-61" font-family="Helvetica,sans-Serif" font-size="10.00">Cpl/System/FatalError.h</text>
</a>
</g>
</g>
<!-- Node8&#45;&gt;Node9 -->
<g id="edge8_Node000008_Node000009" class="edge">
<title>Node8&#45;&gt;Node9</title>
<g id="a_edge8_Node000008_Node000009"><a xlink:title=" ">
<path fill="none" stroke="#63b8ff" d="M153.38,-110.33C153.38,-103.82 153.38,-94.67 153.38,-86.37"/>
<polygon fill="#63b8ff" stroke="#63b8ff" points="156.88,-86.37 153.38,-76.37 149.88,-86.37 156.88,-86.37"/>
</a>
</g>
</g>
<!-- Node12 -->
<g id="Node000012" class="node">
<title>Node12</title>
<g id="a_Node000012"><a xlink:title=" ">
<polygon fill="#e0e0e0" stroke="#999999" points="278.12,-74.5 230.62,-74.5 230.62,-55.25 278.12,-55.25 278.12,-74.5"/>
<text text-anchor="middle" x="254.38" y="-61" font-family="Helvetica,sans-Serif" font-size="10.00">stdint.h</text>
</a>
</g>
</g>
<!-- Node8&#45;&gt;Node12 -->
<g id="edge11_Node000008_Node000012" class="edge">
<title>Node8&#45;&gt;Node12</title>
<g id="a_edge11_Node000008_Node000012"><a xlink:title=" ">
<path fill="none" stroke="#63b8ff" d="M170.51,-110.09C186.03,-101.91 209.18,-89.71 227.22,-80.19"/>
<polygon fill="#63b8ff" stroke="#63b8ff" points="228.61,-83.42 235.82,-75.66 225.34,-77.23 228.61,-83.42"/>
</a>
</g>
</g>
<!-- Node13 -->
<g id="Node000013" class="node">
<title>Node13</title>
<g id="a_Node000013"><a xlink:title=" ">
<polygon fill="#e0e0e0" stroke="#999999" points="344.12,-74.5 296.62,-74.5 296.62,-55.25 344.12,-55.25 344.12,-74.5"/>
<text text-anchor="middle" x="320.38" y="-61" font-family="Helvetica,sans-Serif" font-size="10.00">string.h</text>
</a>
</g>
</g>
<!-- Node8&#45;&gt;Node13 -->
<g id="edge12_Node000008_Node000013" class="edge">
<title>Node8&#45;&gt;Node13</title>
<g id="a_edge12_Node000008_Node000013"><a xlink:title=" ">
<path fill="none" stroke="#63b8ff" d="M181.7,-110.09C210.38,-100.95 254.77,-86.79 285.57,-76.97"/>
<polygon fill="#63b8ff" stroke="#63b8ff" points="286.34,-80.4 294.81,-74.03 284.22,-73.73 286.34,-80.4"/>
</a>
</g>
</g>
<!-- Node10 -->
<g id="Node000010" class="node">
<title>Node10</title>
<g id="a_Node000010"><a xlink:title=" ">
<polygon fill="#e0e0e0" stroke="#999999" points="136.62,-19.25 86.12,-19.25 86.12,0 136.62,0 136.62,-19.25"/>
<text text-anchor="middle" x="111.38" y="-5.75" font-family="Helvetica,sans-Serif" font-size="10.00">stddef.h</text>
</a>
</g>
</g>
<!-- Node9&#45;&gt;Node10 -->
<g id="edge9_Node000009_Node000010" class="edge">
<title>Node9&#45;&gt;Node10</title>
<g id="a_edge9_Node000009_Node000010"><a xlink:title=" ">
<path fill="none" stroke="#63b8ff" d="M146.44,-55.08C140.76,-47.88 132.54,-37.46 125.48,-28.51"/>
<polygon fill="#63b8ff" stroke="#63b8ff" points="128.34,-26.48 119.4,-20.8 122.84,-30.82 128.34,-26.48"/>
</a>
</g>
</g>
<!-- Node11 -->
<g id="Node000011" class="node">
<title>Node11</title>
<g id="a_Node000011"><a xlink:title=" ">
<polygon fill="#e0e0e0" stroke="#999999" points="236.38,-19.25 154.38,-19.25 154.38,0 236.38,0 236.38,-19.25"/>
<text text-anchor="middle" x="195.38" y="-5.75" font-family="Helvetica,sans-Serif" font-size="10.00">colony_config.h</text>
</a>
</g>
</g>
<!-- Node9&#45;&gt;Node11 -->
<g id="edge10_Node000009_Node000011" class="edge">
<title>Node9&#45;&gt;Node11</title>
<g id="a_edge10_Node000009_Node000011"><a xlink:title=" ">
<path fill="none" stroke="#63b8ff" d="M160.31,-55.08C165.99,-47.88 174.21,-37.46 181.27,-28.51"/>
<polygon fill="#63b8ff" stroke="#63b8ff" points="183.91,-30.82 187.35,-20.8 178.41,-26.48 183.91,-30.82"/>
</a>
</g>
</g>
<!-- Node17 -->
<g id="Node000017" class="node">
<title>Node17</title>
<g id="a_Node000017"><a xlink:href="_item_8h.html" target="_top" xlink:title=" ">
<polygon fill="white" stroke="#666666" points="467.62,-129.75 363.12,-129.75 363.12,-110.5 467.62,-110.5 467.62,-129.75"/>
<text text-anchor="middle" x="415.38" y="-116.25" font-family="Helvetica,sans-Serif" font-size="10.00">Cpl/Container/Item.h</text>
</a>
</g>
</g>
<!-- Node16&#45;&gt;Node17 -->
<g id="edge17_Node000016_Node000017" class="edge">
<title>Node16&#45;&gt;Node17</title>
<g id="a_edge17_Node000016_Node000017"><a xlink:title=" ">
<path fill="none" stroke="#63b8ff" d="M390.33,-165.58C394.26,-158.61 399.89,-148.62 404.81,-139.87"/>
<polygon fill="#63b8ff" stroke="#63b8ff" points="407.71,-141.86 409.57,-131.43 401.61,-138.42 407.71,-141.86"/>
</a>
</g>
</g>
</g>
</svg>
