<?xml version="1.0" encoding="UTF-8" standalone="no"?>
<!DOCTYPE svg PUBLIC "-//W3C//DTD SVG 1.1//EN"
 "http://www.w3.org/Graphics/SVG/1.1/DTD/svg11.dtd">
<!-- Generated by graphviz version 9.0.0 (20230911.1827)
 -->
<!-- Title: Cpl/Text/Frame/StreamDecoder.h Pages: 1 -->
<svg width="475pt" height="304pt"
 viewBox="0.00 0.00 474.62 303.50" xmlns="http://www.w3.org/2000/svg" xmlns:xlink="http://www.w3.org/1999/xlink">
<g id="graph0" class="graph" transform="scale(1 1) rotate(0) translate(4 299.5)">
<title>Cpl/Text/Frame/StreamDecoder.h</title>
<!-- Node1 -->
<g id="Node000001" class="node">
<title>Node1</title>
<g id="a_Node000001"><a xlink:title=" ">
<polygon fill="#999999" stroke="#666666" points="267.75,-295.5 107,-295.5 107,-276.25 267.75,-276.25 267.75,-295.5"/>
<text text-anchor="middle" x="187.38" y="-282" font-family="Helvetica,sans-Serif" font-size="10.00">Cpl/Text/Frame/StreamDecoder.h</text>
</a>
</g>
</g>
<!-- Node2 -->
<g id="Node000002" class="node">
<title>Node2</title>
<g id="a_Node000002"><a xlink:href="_decoder___8h.html" target="_top" xlink:title=" ">
<polygon fill="white" stroke="#666666" points="193.62,-240.25 59.12,-240.25 59.12,-221 193.62,-221 193.62,-240.25"/>
<text text-anchor="middle" x="126.38" y="-226.75" font-family="Helvetica,sans-Serif" font-size="10.00">Cpl/Text/Frame/Decoder_.h</text>
</a>
</g>
</g>
<!-- Node1&#45;&gt;Node2 -->
<g id="edge1_Node000001_Node000002" class="edge">
<title>Node1&#45;&gt;Node2</title>
<g id="a_edge1_Node000001_Node000002"><a xlink:title=" ">
<path fill="none" stroke="#63b8ff" d="M177.03,-275.84C168.3,-268.22 155.59,-257.12 145.08,-247.95"/>
<polygon fill="#63b8ff" stroke="#63b8ff" points="147.55,-245.46 137.71,-241.52 142.94,-250.73 147.55,-245.46"/>
</a>
</g>
</g>
<!-- Node5 -->
<g id="Node000005" class="node">
<title>Node5</title>
<g id="a_Node000005"><a xlink:href="_input_8h.html" target="_top" xlink:title=" ">
<polygon fill="white" stroke="#666666" points="287.25,-240.25 213.5,-240.25 213.5,-221 287.25,-221 287.25,-240.25"/>
<text text-anchor="middle" x="250.38" y="-226.75" font-family="Helvetica,sans-Serif" font-size="10.00">Cpl/Io/Input.h</text>
</a>
</g>
</g>
<!-- Node1&#45;&gt;Node5 -->
<g id="edge4_Node000001_Node000005" class="edge">
<title>Node1&#45;&gt;Node5</title>
<g id="a_edge4_Node000001_Node000005"><a xlink:title=" ">
<path fill="none" stroke="#63b8ff" d="M198.06,-275.84C207.08,-268.22 220.21,-257.12 231.06,-247.95"/>
<polygon fill="#63b8ff" stroke="#63b8ff" points="233.31,-250.63 238.69,-241.5 228.79,-245.28 233.31,-250.63"/>
</a>
</g>
</g>
<!-- Node3 -->
<g id="Node000003" class="node">
<title>Node3</title>
<g id="a_Node000003"><a xlink:href="_decoder_8h.html" target="_top" xlink:title=" ">
<polygon fill="white" stroke="#666666" points="137,-185 7.75,-185 7.75,-165.75 137,-165.75 137,-185"/>
<text text-anchor="middle" x="72.38" y="-171.5" font-family="Helvetica,sans-Serif" font-size="10.00">Cpl/Text/Frame/Decoder.h</text>
</a>
</g>
</g>
<!-- Node2&#45;&gt;Node3 -->
<g id="edge2_Node000002_Node000003" class="edge">
<title>Node2&#45;&gt;Node3</title>
<g id="a_edge2_Node000002_Node000003"><a xlink:title=" ">
<path fill="none" stroke="#63b8ff" d="M117.46,-220.83C109.92,-213.4 98.91,-202.54 89.65,-193.41"/>
<polygon fill="#63b8ff" stroke="#63b8ff" points="92.14,-190.95 82.56,-186.42 87.23,-195.94 92.14,-190.95"/>
</a>
</g>
</g>
<!-- Node4 -->
<g id="Node000004" class="node">
<title>Node4</title>
<g id="a_Node000004"><a xlink:title=" ">
<polygon fill="#e0e0e0" stroke="#999999" points="46.75,-129.75 0,-129.75 0,-110.5 46.75,-110.5 46.75,-129.75"/>
<text text-anchor="middle" x="23.38" y="-116.25" font-family="Helvetica,sans-Serif" font-size="10.00">stdlib.h</text>
</a>
</g>
</g>
<!-- Node3&#45;&gt;Node4 -->
<g id="edge3_Node000003_Node000004" class="edge">
<title>Node3&#45;&gt;Node4</title>
<g id="a_edge3_Node000003_Node000004"><a xlink:title=" ">
<path fill="none" stroke="#63b8ff" d="M64.28,-165.58C57.52,-158.23 47.65,-147.51 39.31,-138.44"/>
<polygon fill="#63b8ff" stroke="#63b8ff" points="42.01,-136.21 32.67,-131.22 36.86,-140.95 42.01,-136.21"/>
</a>
</g>
</g>
<!-- Node6 -->
<g id="Node000006" class="node">
<title>Node6</title>
<g id="a_Node000006"><a xlink:href="_text_2_string_8h.html" target="_top" xlink:title=" ">
<polygon fill="white" stroke="#666666" points="244.38,-185 156.38,-185 156.38,-165.75 244.38,-165.75 244.38,-185"/>
<text text-anchor="middle" x="200.38" y="-171.5" font-family="Helvetica,sans-Serif" font-size="10.00">Cpl/Text/String.h</text>
</a>
</g>
</g>
<!-- Node5&#45;&gt;Node6 -->
<g id="edge5_Node000005_Node000006" class="edge">
<title>Node5&#45;&gt;Node6</title>
<g id="a_edge5_Node000005_Node000006"><a xlink:title=" ">
<path fill="none" stroke="#63b8ff" d="M242.12,-220.83C235.21,-213.48 225.15,-202.76 216.64,-193.69"/>
<polygon fill="#63b8ff" stroke="#63b8ff" points="219.24,-191.36 209.85,-186.46 214.14,-196.15 219.24,-191.36"/>
</a>
</g>
</g>
<!-- Node16 -->
<g id="Node000016" class="node">
<title>Node16</title>
<g id="a_Node000016"><a xlink:href="_close_8h.html" target="_top" xlink:title=" ">
<polygon fill="white" stroke="#666666" points="338.75,-185 262,-185 262,-165.75 338.75,-165.75 338.75,-185"/>
<text text-anchor="middle" x="300.38" y="-171.5" font-family="Helvetica,sans-Serif" font-size="10.00">Cpl/Io/Close.h</text>
</a>
</g>
</g>
<!-- Node5&#45;&gt;Node16 -->
<g id="edge16_Node000005_Node000016" class="edge">
<title>Node5&#45;&gt;Node16</title>
<g id="a_edge16_Node000005_Node000016"><a xlink:title=" ">
<path fill="none" stroke="#63b8ff" d="M258.63,-220.83C265.54,-213.48 275.6,-202.76 284.11,-193.69"/>
<polygon fill="#63b8ff" stroke="#63b8ff" points="286.61,-196.15 290.9,-186.46 281.51,-191.36 286.61,-196.15"/>
</a>
</g>
</g>
<!-- Node18 -->
<g id="Node000018" class="node">
<title>Node18</title>
<g id="a_Node000018"><a xlink:href="_is_eos_8h.html" target="_top" xlink:title=" ">
<polygon fill="white" stroke="#666666" points="433.75,-185 357,-185 357,-165.75 433.75,-165.75 433.75,-185"/>
<text text-anchor="middle" x="395.38" y="-171.5" font-family="Helvetica,sans-Serif" font-size="10.00">Cpl/Io/IsEos.h</text>
</a>
</g>
</g>
<!-- Node5&#45;&gt;Node18 -->
<g id="edge18_Node000005_Node000018" class="edge">
<title>Node5&#45;&gt;Node18</title>
<g id="a_edge18_Node000005_Node000018"><a xlink:title=" ">
<path fill="none" stroke="#63b8ff" d="M274.97,-220.59C298.3,-212.02 333.61,-199.06 359.97,-189.38"/>
<polygon fill="#63b8ff" stroke="#63b8ff" points="361.06,-192.71 369.24,-185.97 358.64,-186.14 361.06,-192.71"/>
</a>
</g>
</g>
<!-- Node7 -->
<g id="Node000007" class="node">
<title>Node7</title>
<g id="a_Node000007"><a xlink:title=" ">
<polygon fill="#e0e0e0" stroke="#999999" points="76,-74.5 0.75,-74.5 0.75,-55.25 76,-55.25 76,-74.5"/>
<text text-anchor="middle" x="38.38" y="-61" font-family="Helvetica,sans-Serif" font-size="10.00">colony_map.h</text>
</a>
</g>
</g>
<!-- Node6&#45;&gt;Node7 -->
<g id="edge6_Node000006_Node000007" class="edge">
<title>Node6&#45;&gt;Node7</title>
<g id="a_edge6_Node000006_Node000007"><a xlink:title=" ">
<path fill="none" stroke="#63b8ff" d="M168.43,-165.38C146.05,-158.09 116.18,-146.29 93.38,-129.75 76.03,-117.17 60.53,-98.08 50.44,-84.04"/>
<polygon fill="#63b8ff" stroke="#63b8ff" points="53.53,-82.36 44.96,-76.13 47.77,-86.34 53.53,-82.36"/>
</a>
</g>
</g>
<!-- Node8 -->
<g id="Node000008" class="node">
<title>Node8</title>
<g id="a_Node000008"><a xlink:href="_key_8h.html" target="_top" xlink:title=" ">
<polygon fill="white" stroke="#666666" points="204.12,-129.75 102.62,-129.75 102.62,-110.5 204.12,-110.5 204.12,-129.75"/>
<text text-anchor="middle" x="153.38" y="-116.25" font-family="Helvetica,sans-Serif" font-size="10.00">Cpl/Container/Key.h</text>
</a>
</g>
</g>
<!-- Node6&#45;&gt;Node8 -->
<g id="edge7_Node000006_Node000008" class="edge">
<title>Node6&#45;&gt;Node8</title>
<g id="a_edge7_Node000006_Node000008"><a xlink:title=" ">
<path fill="none" stroke="#63b8ff" d="M192.61,-165.58C186.19,-158.3 176.86,-147.73 168.91,-138.73"/>
<polygon fill="#63b8ff" stroke="#63b8ff" points="171.55,-136.43 162.31,-131.24 166.3,-141.06 171.55,-136.43"/>
</a>
</g>
</g>
<!-- Node14 -->
<g id="Node000014" class="node">
<title>Node14</title>
<g id="a_Node000014"><a xlink:title=" ">
<polygon fill="#e0e0e0" stroke="#999999" points="272.62,-129.75 222.12,-129.75 222.12,-110.5 272.62,-110.5 272.62,-129.75"/>
<text text-anchor="middle" x="247.38" y="-116.25" font-family="Helvetica,sans-Serif" font-size="10.00">stdarg.h</text>
</a>
</g>
</g>
<!-- Node6&#45;&gt;Node14 -->
<g id="edge14_Node000006_Node000014" class="edge">
<title>Node6&#45;&gt;Node14</title>
<g id="a_edge14_Node000006_Node000014"><a xlink:title=" ">
<path fill="none" stroke="#63b8ff" d="M208.14,-165.58C214.56,-158.3 223.89,-147.73 231.84,-138.73"/>
<polygon fill="#63b8ff" stroke="#63b8ff" points="234.45,-141.06 238.44,-131.24 229.2,-136.43 234.45,-141.06"/>
</a>
</g>
</g>
<!-- Node15 -->
<g id="Node000015" class="node">
<title>Node15</title>
<g id="a_Node000015"><a xlink:title=" ">
<polygon fill="#e0e0e0" stroke="#999999" points="344.12,-129.75 290.62,-129.75 290.62,-110.5 344.12,-110.5 344.12,-129.75"/>
<text text-anchor="middle" x="317.38" y="-116.25" font-family="Helvetica,sans-Serif" font-size="10.00">iostream</text>
</a>
</g>
</g>
<!-- Node6&#45;&gt;Node15 -->
<g id="edge15_Node000006_Node000015" class="edge">
<title>Node6&#45;&gt;Node15</title>
<g id="a_edge15_Node000006_Node000015"><a xlink:title=" ">
<path fill="none" stroke="#63b8ff" d="M220.22,-165.34C238.54,-157 266.02,-144.5 287.08,-134.91"/>
<polygon fill="#63b8ff" stroke="#63b8ff" points="288.4,-138.16 296.05,-130.83 285.5,-131.79 288.4,-138.16"/>
</a>
</g>
</g>
<!-- Node8&#45;&gt;Node7 -->
<g id="edge13_Node000008_Node000007" class="edge">
<title>Node8&#45;&gt;Node7</title>
<g id="a_edge13_Node000008_Node000007"><a xlink:title=" ">
<path fill="none" stroke="#63b8ff" d="M133.87,-110.09C115.86,-101.75 88.85,-89.25 68.15,-79.66"/>
<polygon fill="#63b8ff" stroke="#63b8ff" points="69.9,-76.61 59.35,-75.59 66.96,-82.97 69.9,-76.61"/>
</a>
</g>
</g>
<!-- Node9 -->
<g id="Node000009" class="node">
<title>Node9</title>
<g id="a_Node000009"><a xlink:href="_fatal_error_8h.html" target="_top" xlink:title=" ">
<polygon fill="white" stroke="#666666" points="212.75,-74.5 94,-74.5 94,-55.25 212.75,-55.25 212.75,-74.5"/>
<text text-anchor="middle" x="153.38" y="-61" font-family="Helvetica,sans-Serif" font-size="10.00">Cpl/System/FatalError.h</text>
</a>
</g>
</g>
<!-- Node8&#45;&gt;Node9 -->
<g id="edge8_Node000008_Node000009" class="edge">
<title>Node8&#45;&gt;Node9</title>
<g id="a_edge8_Node000008_Node000009"><a xlink:title=" ">
<path fill="none" stroke="#63b8ff" d="M153.38,-110.33C153.38,-103.82 153.38,-94.67 153.38,-86.37"/>
<polygon fill="#63b8ff" stroke="#63b8ff" points="156.88,-86.37 153.38,-76.37 149.88,-86.37 156.88,-86.37"/>
</a>
</g>
</g>
<!-- Node12 -->
<g id="Node000012" class="node">
<title>Node12</title>
<g id="a_Node000012"><a xlink:title=" ">
<polygon fill="#e0e0e0" stroke="#999999" points="278.12,-74.5 230.62,-74.5 230.62,-55.25 278.12,-55.25 278.12,-74.5"/>
<text text-anchor="middle" x="254.38" y="-61" font-family="Helvetica,sans-Serif" font-size="10.00">stdint.h</text>
</a>
</g>
</g>
<!-- Node8&#45;&gt;Node12 -->
<g id="edge11_Node000008_Node000012" class="edge">
<title>Node8&#45;&gt;Node12</title>
<g id="a_edge11_Node000008_Node000012"><a xlink:title=" ">
<path fill="none" stroke="#63b8ff" d="M170.51,-110.09C186.03,-101.91 209.18,-89.71 227.22,-80.19"/>
<polygon fill="#63b8ff" stroke="#63b8ff" points="228.61,-83.42 235.82,-75.66 225.34,-77.23 228.61,-83.42"/>
</a>
</g>
</g>
<!-- Node13 -->
<g id="Node000013" class="node">
<title>Node13</title>
<g id="a_Node000013"><a xlink:title=" ">
<polygon fill="#e0e0e0" stroke="#999999" points="344.12,-74.5 296.62,-74.5 296.62,-55.25 344.12,-55.25 344.12,-74.5"/>
<text text-anchor="middle" x="320.38" y="-61" font-family="Helvetica,sans-Serif" font-size="10.00">string.h</text>
</a>
</g>
</g>
<!-- Node8&#45;&gt;Node13 -->
<g id="edge12_Node000008_Node000013" class="edge">
<title>Node8&#45;&gt;Node13</title>
<g id="a_edge12_Node000008_Node000013"><a xlink:title=" ">
<path fill="none" stroke="#63b8ff" d="M181.7,-110.09C210.38,-100.95 254.77,-86.79 285.57,-76.97"/>
<polygon fill="#63b8ff" stroke="#63b8ff" points="286.34,-80.4 294.81,-74.03 284.22,-73.73 286.34,-80.4"/>
</a>
</g>
</g>
<!-- Node10 -->
<g id="Node000010" class="node">
<title>Node10</title>
<g id="a_Node000010"><a xlink:title=" ">
<polygon fill="#e0e0e0" stroke="#999999" points="136.62,-19.25 86.12,-19.25 86.12,0 136.62,0 136.62,-19.25"/>
<text text-anchor="middle" x="111.38" y="-5.75" font-family="Helvetica,sans-Serif" font-size="10.00">stddef.h</text>
</a>
</g>
</g>
<!-- Node9&#45;&gt;Node10 -->
<g id="edge9_Node000009_Node000010" class="edge">
<title>Node9&#45;&gt;Node10</title>
<g id="a_edge9_Node000009_Node000010"><a xlink:title=" ">
<path fill="none" stroke="#63b8ff" d="M146.44,-55.08C140.76,-47.88 132.54,-37.46 125.48,-28.51"/>
<polygon fill="#63b8ff" stroke="#63b8ff" points="128.34,-26.48 119.4,-20.8 122.84,-30.82 128.34,-26.48"/>
</a>
</g>
</g>
<!-- Node11 -->
<g id="Node000011" class="node">
<title>Node11</title>
<g id="a_Node000011"><a xlink:title=" ">
<polygon fill="#e0e0e0" stroke="#999999" points="236.38,-19.25 154.38,-19.25 154.38,0 236.38,0 236.38,-19.25"/>
<text text-anchor="middle" x="195.38" y="-5.75" font-family="Helvetica,sans-Serif" font-size="10.00">colony_config.h</text>
</a>
</g>
</g>
<!-- Node9&#45;&gt;Node11 -->
<g id="edge10_Node000009_Node000011" class="edge">
<title>Node9&#45;&gt;Node11</title>
<g id="a_edge10_Node000009_Node000011"><a xlink:title=" ">
<path fill="none" stroke="#63b8ff" d="M160.31,-55.08C165.99,-47.88 174.21,-37.46 181.27,-28.51"/>
<polygon fill="#63b8ff" stroke="#63b8ff" points="183.91,-30.82 187.35,-20.8 178.41,-26.48 183.91,-30.82"/>
</a>
</g>
</g>
<!-- Node17 -->
<g id="Node000017" class="node">
<title>Node17</title>
<g id="a_Node000017"><a xlink:href="_item_8h.html" target="_top" xlink:title=" ">
<polygon fill="white" stroke="#666666" points="466.62,-129.75 362.12,-129.75 362.12,-110.5 466.62,-110.5 466.62,-129.75"/>
<text text-anchor="middle" x="414.38" y="-116.25" font-family="Helvetica,sans-Serif" font-size="10.00">Cpl/Container/Item.h</text>
</a>
</g>
</g>
<!-- Node16&#45;&gt;Node17 -->
<g id="edge17_Node000016_Node000017" class="edge">
<title>Node16&#45;&gt;Node17</title>
<g id="a_edge17_Node000016_Node000017"><a xlink:title=" ">
<path fill="none" stroke="#63b8ff" d="M319.71,-165.34C337.48,-157.04 364.09,-144.61 384.58,-135.04"/>
<polygon fill="#63b8ff" stroke="#63b8ff" points="385.99,-138.25 393.57,-130.84 383.03,-131.9 385.99,-138.25"/>
</a>
</g>
</g>
</g>
</svg>
