<?xml version="1.0" encoding="UTF-8" standalone="no"?>
<!DOCTYPE svg PUBLIC "-//W3C//DTD SVG 1.1//EN"
 "http://www.w3.org/Graphics/SVG/1.1/DTD/svg11.dtd">
<!-- Generated by graphviz version 9.0.0 (20230911.1827)
 -->
<!-- Title: Cpl/Dm/Subscriber.h Pages: 1 -->
<svg width="1795pt" height="304pt"
 viewBox="0.00 0.00 1795.00 303.50" xmlns="http://www.w3.org/2000/svg" xmlns:xlink="http://www.w3.org/1999/xlink">
<g id="graph0" class="graph" transform="scale(1 1) rotate(0) translate(4 299.5)">
<title>Cpl/Dm/Subscriber.h</title>
<!-- Node1 -->
<g id="Node000001" class="node">
<title>Node1</title>
<g id="a_Node000001"><a xlink:title=" ">
<polygon fill="#999999" stroke="#666666" points="1195.75,-295.5 1090.5,-295.5 1090.5,-276.25 1195.75,-276.25 1195.75,-295.5"/>
<text text-anchor="middle" x="1143.12" y="-282" font-family="Helvetica,sans-Serif" font-size="10.00">Cpl/Dm/Subscriber.h</text>
</a>
</g>
</g>
<!-- Node2 -->
<g id="Node000002" class="node">
<title>Node2</title>
<g id="a_Node000002"><a xlink:href="_subscriber_api_8h.html" target="_top" xlink:title=" ">
<polygon fill="white" stroke="#666666" points="1114.88,-129.75 995.38,-129.75 995.38,-110.5 1114.88,-110.5 1114.88,-129.75"/>
<text text-anchor="middle" x="1055.12" y="-116.25" font-family="Helvetica,sans-Serif" font-size="10.00">Cpl/Dm/SubscriberApi.h</text>
</a>
</g>
</g>
<!-- Node1&#45;&gt;Node2 -->
<g id="edge1_Node000001_Node000002" class="edge">
<title>Node1&#45;&gt;Node2</title>
<g id="a_edge1_Node000001_Node000002"><a xlink:title=" ">
<path fill="none" stroke="#63b8ff" d="M1138.39,-276.07C1124.61,-250.42 1084.24,-175.3 1065.24,-139.94"/>
<polygon fill="#63b8ff" stroke="#63b8ff" points="1068.41,-138.46 1060.6,-131.31 1062.25,-141.77 1068.41,-138.46"/>
</a>
</g>
</g>
<!-- Node4 -->
<g id="Node000004" class="node">
<title>Node4</title>
<g id="a_Node000004"><a xlink:title=" ">
<polygon fill="#e0e0e0" stroke="#999999" points="1242.88,-19.25 1195.38,-19.25 1195.38,0 1242.88,0 1242.88,-19.25"/>
<text text-anchor="middle" x="1219.12" y="-5.75" font-family="Helvetica,sans-Serif" font-size="10.00">stdint.h</text>
</a>
</g>
</g>
<!-- Node1&#45;&gt;Node4 -->
<g id="edge49_Node000001_Node000004" class="edge">
<title>Node1&#45;&gt;Node4</title>
<g id="a_edge49_Node000001_Node000004"><a xlink:title=" ">
<path fill="none" stroke="#63b8ff" d="M1155.34,-275.94C1176.82,-259.08 1219.12,-220.3 1219.12,-176.38 1219.12,-176.38 1219.12,-176.38 1219.12,-119.12 1219.12,-88.41 1219.12,-52.8 1219.12,-30.99"/>
<polygon fill="#63b8ff" stroke="#63b8ff" points="1222.63,-31.14 1219.13,-21.14 1215.63,-31.14 1222.63,-31.14"/>
</a>
</g>
</g>
<!-- Node5 -->
<g id="Node000005" class="node">
<title>Node5</title>
<g id="a_Node000005"><a xlink:href="_model_point_8h.html" target="_top" xlink:title=" ">
<polygon fill="white" stroke="#666666" points="1371.88,-240.25 1264.38,-240.25 1264.38,-221 1371.88,-221 1371.88,-240.25"/>
<text text-anchor="middle" x="1318.12" y="-226.75" font-family="Helvetica,sans-Serif" font-size="10.00">Cpl/Dm/ModelPoint.h</text>
</a>
</g>
</g>
<!-- Node1&#45;&gt;Node5 -->
<g id="edge4_Node000001_Node000005" class="edge">
<title>Node1&#45;&gt;Node5</title>
<g id="a_edge4_Node000001_Node000005"><a xlink:title=" ">
<path fill="none" stroke="#63b8ff" d="M1172.81,-275.84C1201.6,-267.08 1245.49,-253.73 1277.51,-243.98"/>
<polygon fill="#63b8ff" stroke="#63b8ff" points="1278.3,-247.4 1286.85,-241.14 1276.26,-240.71 1278.3,-247.4"/>
</a>
</g>
</g>
<!-- Node16 -->
<g id="Node000016" class="node">
<title>Node16</title>
<g id="a_Node000016"><a xlink:href="_dm_2_event_loop_8h.html" target="_top" xlink:title=" ">
<polygon fill="white" stroke="#666666" points="922.75,-240.25 817.5,-240.25 817.5,-221 922.75,-221 922.75,-240.25"/>
<text text-anchor="middle" x="870.12" y="-226.75" font-family="Helvetica,sans-Serif" font-size="10.00">Cpl/Dm/EventLoop.h</text>
</a>
</g>
</g>
<!-- Node1&#45;&gt;Node16 -->
<g id="edge22_Node000001_Node000016" class="edge">
<title>Node1&#45;&gt;Node16</title>
<g id="a_edge22_Node000001_Node000016"><a xlink:title=" ">
<path fill="none" stroke="#63b8ff" d="M1096.5,-275.78C1049.78,-266.67 977.77,-252.62 927.55,-242.83"/>
<polygon fill="#63b8ff" stroke="#63b8ff" points="928.52,-239.45 918.04,-240.97 927.18,-246.32 928.52,-239.45"/>
</a>
</g>
</g>
<!-- Node3 -->
<g id="Node000003" class="node">
<title>Node3</title>
<g id="a_Node000003"><a xlink:href="_item_8h.html" target="_top" xlink:title=" ">
<polygon fill="white" stroke="#666666" points="873.38,-19.25 768.88,-19.25 768.88,0 873.38,0 873.38,-19.25"/>
<text text-anchor="middle" x="821.12" y="-5.75" font-family="Helvetica,sans-Serif" font-size="10.00">Cpl/Container/Item.h</text>
</a>
</g>
</g>
<!-- Node2&#45;&gt;Node3 -->
<g id="edge2_Node000002_Node000003" class="edge">
<title>Node2&#45;&gt;Node3</title>
<g id="a_edge2_Node000002_Node000003"><a xlink:title=" ">
<path fill="none" stroke="#63b8ff" d="M1035.58,-110.06C994.63,-91.07 899.61,-47.02 850.98,-24.47"/>
<polygon fill="#63b8ff" stroke="#63b8ff" points="852.7,-21.41 842.16,-20.38 849.76,-27.76 852.7,-21.41"/>
</a>
</g>
</g>
<!-- Node2&#45;&gt;Node4 -->
<g id="edge3_Node000002_Node000004" class="edge">
<title>Node2&#45;&gt;Node4</title>
<g id="a_edge3_Node000002_Node000004"><a xlink:title=" ">
<path fill="none" stroke="#63b8ff" d="M1046.31,-110.02C1034.59,-96.81 1016.82,-72.06 1030.12,-55.25 1048.92,-31.5 1134.44,-19.1 1183.76,-13.83"/>
<polygon fill="#63b8ff" stroke="#63b8ff" points="1184.07,-17.31 1193.66,-12.82 1183.36,-10.35 1184.07,-17.31"/>
</a>
</g>
</g>
<!-- Node5&#45;&gt;Node2 -->
<g id="edge18_Node000005_Node000002" class="edge">
<title>Node5&#45;&gt;Node2</title>
<g id="a_edge18_Node000005_Node000002"><a xlink:title=" ">
<path fill="none" stroke="#63b8ff" d="M1264.02,-223.85C1224.88,-218.04 1171.62,-206.69 1129.12,-185 1106.09,-173.24 1084.26,-152.85 1070.36,-138.27"/>
<polygon fill="#63b8ff" stroke="#63b8ff" points="1073.17,-136.16 1063.82,-131.18 1068.03,-140.91 1073.17,-136.16"/>
</a>
</g>
</g>
<!-- Node5&#45;&gt;Node3 -->
<g id="edge6_Node000005_Node000003" class="edge">
<title>Node5&#45;&gt;Node3</title>
<g id="a_edge6_Node000005_Node000003"><a xlink:title=" ">
<path fill="none" stroke="#63b8ff" d="M1308.36,-220.56C1270.57,-185.52 1135.4,-60.55 1124.12,-55.25 1082.87,-35.87 960.97,-22.43 884.95,-15.67"/>
<polygon fill="#63b8ff" stroke="#63b8ff" points="885.39,-12.2 875.13,-14.81 884.79,-19.17 885.39,-12.2"/>
</a>
</g>
</g>
<!-- Node5&#45;&gt;Node4 -->
<g id="edge21_Node000005_Node000004" class="edge">
<title>Node5&#45;&gt;Node4</title>
<g id="a_edge21_Node000005_Node000004"><a xlink:title=" ">
<path fill="none" stroke="#63b8ff" d="M1309.7,-220.66C1301.96,-212.05 1290.6,-198.42 1283.12,-185 1267.72,-157.36 1238.33,-69.64 1225.44,-30.18"/>
<polygon fill="#63b8ff" stroke="#63b8ff" points="1228.83,-29.27 1222.41,-20.84 1222.17,-31.44 1228.83,-29.27"/>
</a>
</g>
</g>
<!-- Node6 -->
<g id="Node000006" class="node">
<title>Node6</title>
<g id="a_Node000006"><a xlink:title=" ">
<polygon fill="#e0e0e0" stroke="#999999" points="1528.12,-19.25 1446.12,-19.25 1446.12,0 1528.12,0 1528.12,-19.25"/>
<text text-anchor="middle" x="1487.12" y="-5.75" font-family="Helvetica,sans-Serif" font-size="10.00">colony_config.h</text>
</a>
</g>
</g>
<!-- Node5&#45;&gt;Node6 -->
<g id="edge5_Node000005_Node000006" class="edge">
<title>Node5&#45;&gt;Node6</title>
<g id="a_edge5_Node000005_Node000006"><a xlink:title=" ">
<path fill="none" stroke="#63b8ff" d="M1371.92,-221.67C1423.99,-210.81 1500.15,-185.81 1536.12,-129.75 1551.22,-106.23 1519.32,-99.13 1506.12,-74.5 1498.75,-60.74 1493.88,-43.75 1490.91,-30.75"/>
<polygon fill="#63b8ff" stroke="#63b8ff" points="1494.39,-30.31 1488.94,-21.23 1487.54,-31.73 1494.39,-30.31"/>
</a>
</g>
</g>
<!-- Node7 -->
<g id="Node000007" class="node">
<title>Node7</title>
<g id="a_Node000007"><a xlink:href="_text_2_string_8h.html" target="_top" xlink:title=" ">
<polygon fill="white" stroke="#666666" points="1380.12,-185 1292.12,-185 1292.12,-165.75 1380.12,-165.75 1380.12,-185"/>
<text text-anchor="middle" x="1336.12" y="-171.5" font-family="Helvetica,sans-Serif" font-size="10.00">Cpl/Text/String.h</text>
</a>
</g>
</g>
<!-- Node5&#45;&gt;Node7 -->
<g id="edge7_Node000005_Node000007" class="edge">
<title>Node5&#45;&gt;Node7</title>
<g id="a_edge7_Node000005_Node000007"><a xlink:title=" ">
<path fill="none" stroke="#63b8ff" d="M1321.1,-220.83C1323.38,-214.09 1326.61,-204.52 1329.49,-195.99"/>
<polygon fill="#63b8ff" stroke="#63b8ff" points="1332.72,-197.39 1332.6,-186.79 1326.09,-195.15 1332.72,-197.39"/>
</a>
</g>
</g>
<!-- Node11 -->
<g id="Node000011" class="node">
<title>Node11</title>
<g id="a_Node000011"><a xlink:title=" ">
<polygon fill="#e0e0e0" stroke="#999999" points="1642.38,-19.25 1591.88,-19.25 1591.88,0 1642.38,0 1642.38,-19.25"/>
<text text-anchor="middle" x="1617.12" y="-5.75" font-family="Helvetica,sans-Serif" font-size="10.00">stddef.h</text>
</a>
</g>
</g>
<!-- Node5&#45;&gt;Node11 -->
<g id="edge20_Node000005_Node000011" class="edge">
<title>Node5&#45;&gt;Node11</title>
<g id="a_edge20_Node000005_Node000011"><a xlink:title=" ">
<path fill="none" stroke="#63b8ff" d="M1372.05,-222.94C1410.13,-216.74 1461.56,-205.29 1503.12,-185 1574.04,-150.38 1607.83,-145.58 1642.12,-74.5 1649.47,-59.29 1641,-41.32 1631.98,-28.33"/>
<polygon fill="#63b8ff" stroke="#63b8ff" points="1635,-26.52 1626.16,-20.69 1629.44,-30.76 1635,-26.52"/>
</a>
</g>
</g>
<!-- Node15 -->
<g id="Node000015" class="node">
<title>Node15</title>
<g id="a_Node000015"><a xlink:href="_arduino_8h_source.html" target="_top" xlink:title=" ">
<polygon fill="white" stroke="#666666" points="1787,-185 1689.25,-185 1689.25,-165.75 1787,-165.75 1787,-185"/>
<text text-anchor="middle" x="1738.12" y="-171.5" font-family="Helvetica,sans-Serif" font-size="10.00">Cpl/Json/Arduino.h</text>
</a>
</g>
</g>
<!-- Node5&#45;&gt;Node15 -->
<g id="edge19_Node000005_Node000015" class="edge">
<title>Node5&#45;&gt;Node15</title>
<g id="a_edge19_Node000005_Node000015"><a xlink:title=" ">
<path fill="none" stroke="#63b8ff" d="M1372.28,-223.06C1442.25,-214.52 1567.83,-199.05 1675.12,-185 1675.97,-184.89 1676.81,-184.78 1677.67,-184.67"/>
<polygon fill="#63b8ff" stroke="#63b8ff" points="1678,-188.15 1687.45,-183.36 1677.08,-181.21 1678,-188.15"/>
</a>
</g>
</g>
<!-- Node8 -->
<g id="Node000008" class="node">
<title>Node8</title>
<g id="a_Node000008"><a xlink:title=" ">
<polygon fill="#e0e0e0" stroke="#999999" points="1114.75,-74.5 1039.5,-74.5 1039.5,-55.25 1114.75,-55.25 1114.75,-74.5"/>
<text text-anchor="middle" x="1077.12" y="-61" font-family="Helvetica,sans-Serif" font-size="10.00">colony_map.h</text>
</a>
</g>
</g>
<!-- Node7&#45;&gt;Node8 -->
<g id="edge8_Node000007_Node000008" class="edge">
<title>Node7&#45;&gt;Node8</title>
<g id="a_edge8_Node000007_Node000008"><a xlink:title=" ">
<path fill="none" stroke="#63b8ff" d="M1314.49,-165.31C1268.97,-146.24 1163.11,-101.9 1109.49,-79.43"/>
<polygon fill="#63b8ff" stroke="#63b8ff" points="1110.85,-76.21 1100.28,-75.57 1108.15,-82.67 1110.85,-76.21"/>
</a>
</g>
</g>
<!-- Node9 -->
<g id="Node000009" class="node">
<title>Node9</title>
<g id="a_Node000009"><a xlink:href="_key_8h.html" target="_top" xlink:title=" ">
<polygon fill="white" stroke="#666666" points="1386.88,-129.75 1285.38,-129.75 1285.38,-110.5 1386.88,-110.5 1386.88,-129.75"/>
<text text-anchor="middle" x="1336.12" y="-116.25" font-family="Helvetica,sans-Serif" font-size="10.00">Cpl/Container/Key.h</text>
</a>
</g>
</g>
<!-- Node7&#45;&gt;Node9 -->
<g id="edge9_Node000007_Node000009" class="edge">
<title>Node7&#45;&gt;Node9</title>
<g id="a_edge9_Node000007_Node000009"><a xlink:title=" ">
<path fill="none" stroke="#63b8ff" d="M1336.12,-165.58C1336.12,-159.07 1336.12,-149.92 1336.12,-141.62"/>
<polygon fill="#63b8ff" stroke="#63b8ff" points="1339.63,-141.62 1336.13,-131.62 1332.63,-141.62 1339.63,-141.62"/>
</a>
</g>
</g>
<!-- Node13 -->
<g id="Node000013" class="node">
<title>Node13</title>
<g id="a_Node000013"><a xlink:title=" ">
<polygon fill="#e0e0e0" stroke="#999999" points="1455.38,-129.75 1404.88,-129.75 1404.88,-110.5 1455.38,-110.5 1455.38,-129.75"/>
<text text-anchor="middle" x="1430.12" y="-116.25" font-family="Helvetica,sans-Serif" font-size="10.00">stdarg.h</text>
</a>
</g>
</g>
<!-- Node7&#45;&gt;Node13 -->
<g id="edge16_Node000007_Node000013" class="edge">
<title>Node7&#45;&gt;Node13</title>
<g id="a_edge16_Node000007_Node000013"><a xlink:title=" ">
<path fill="none" stroke="#63b8ff" d="M1352.07,-165.34C1366.39,-157.23 1387.66,-145.18 1404.38,-135.71"/>
<polygon fill="#63b8ff" stroke="#63b8ff" points="1405.81,-138.92 1412.78,-130.95 1402.36,-132.83 1405.81,-138.92"/>
</a>
</g>
</g>
<!-- Node14 -->
<g id="Node000014" class="node">
<title>Node14</title>
<g id="a_Node000014"><a xlink:title=" ">
<polygon fill="#e0e0e0" stroke="#999999" points="1526.88,-129.75 1473.38,-129.75 1473.38,-110.5 1526.88,-110.5 1526.88,-129.75"/>
<text text-anchor="middle" x="1500.12" y="-116.25" font-family="Helvetica,sans-Serif" font-size="10.00">iostream</text>
</a>
</g>
</g>
<!-- Node7&#45;&gt;Node14 -->
<g id="edge17_Node000007_Node000014" class="edge">
<title>Node7&#45;&gt;Node14</title>
<g id="a_edge17_Node000007_Node000014"><a xlink:title=" ">
<path fill="none" stroke="#63b8ff" d="M1363.95,-165.34C1390.93,-156.58 1432.08,-143.22 1462.09,-133.48"/>
<polygon fill="#63b8ff" stroke="#63b8ff" points="1463.12,-136.82 1471.55,-130.4 1460.96,-130.16 1463.12,-136.82"/>
</a>
</g>
</g>
<!-- Node9&#45;&gt;Node4 -->
<g id="edge13_Node000009_Node000004" class="edge">
<title>Node9&#45;&gt;Node4</title>
<g id="a_edge13_Node000009_Node000004"><a xlink:title=" ">
<path fill="none" stroke="#63b8ff" d="M1327.48,-110.25C1315.19,-97.74 1291.87,-74.3 1271.12,-55.25 1260.63,-45.61 1248.58,-35.23 1238.72,-26.91"/>
<polygon fill="#63b8ff" stroke="#63b8ff" points="1241.14,-24.36 1231.23,-20.62 1236.64,-29.73 1241.14,-24.36"/>
</a>
</g>
</g>
<!-- Node9&#45;&gt;Node8 -->
<g id="edge15_Node000009_Node000008" class="edge">
<title>Node9&#45;&gt;Node8</title>
<g id="a_edge15_Node000009_Node000008"><a xlink:title=" ">
<path fill="none" stroke="#63b8ff" d="M1291.9,-110.03C1245.75,-100.54 1173.6,-85.71 1125.85,-75.89"/>
<polygon fill="#63b8ff" stroke="#63b8ff" points="1126.84,-72.52 1116.34,-73.94 1125.43,-79.38 1126.84,-72.52"/>
</a>
</g>
</g>
<!-- Node10 -->
<g id="Node000010" class="node">
<title>Node10</title>
<g id="a_Node000010"><a xlink:href="_fatal_error_8h.html" target="_top" xlink:title=" ">
<polygon fill="white" stroke="#666666" points="1633.5,-74.5 1514.75,-74.5 1514.75,-55.25 1633.5,-55.25 1633.5,-74.5"/>
<text text-anchor="middle" x="1574.12" y="-61" font-family="Helvetica,sans-Serif" font-size="10.00">Cpl/System/FatalError.h</text>
</a>
</g>
</g>
<!-- Node9&#45;&gt;Node10 -->
<g id="edge10_Node000009_Node000010" class="edge">
<title>Node9&#45;&gt;Node10</title>
<g id="a_edge10_Node000009_Node000010"><a xlink:title=" ">
<path fill="none" stroke="#63b8ff" d="M1376.77,-110.03C1417.07,-101.01 1478.96,-87.17 1522.67,-77.39"/>
<polygon fill="#63b8ff" stroke="#63b8ff" points="1523.18,-80.86 1532.17,-75.26 1521.65,-74.03 1523.18,-80.86"/>
</a>
</g>
</g>
<!-- Node12 -->
<g id="Node000012" class="node">
<title>Node12</title>
<g id="a_Node000012"><a xlink:title=" ">
<polygon fill="#e0e0e0" stroke="#999999" points="1370.88,-74.5 1323.38,-74.5 1323.38,-55.25 1370.88,-55.25 1370.88,-74.5"/>
<text text-anchor="middle" x="1347.12" y="-61" font-family="Helvetica,sans-Serif" font-size="10.00">string.h</text>
</a>
</g>
</g>
<!-- Node9&#45;&gt;Node12 -->
<g id="edge14_Node000009_Node000012" class="edge">
<title>Node9&#45;&gt;Node12</title>
<g id="a_edge14_Node000009_Node000012"><a xlink:title=" ">
<path fill="none" stroke="#63b8ff" d="M1337.94,-110.33C1339.3,-103.74 1341.22,-94.46 1342.95,-86.07"/>
<polygon fill="#63b8ff" stroke="#63b8ff" points="1346.37,-86.84 1344.96,-76.34 1339.51,-85.43 1346.37,-86.84"/>
</a>
</g>
</g>
<!-- Node10&#45;&gt;Node6 -->
<g id="edge12_Node000010_Node000006" class="edge">
<title>Node10&#45;&gt;Node6</title>
<g id="a_edge12_Node000010_Node000006"><a xlink:title=" ">
<path fill="none" stroke="#63b8ff" d="M1559.37,-54.84C1546.24,-46.81 1526.8,-34.91 1511.39,-25.48"/>
<polygon fill="#63b8ff" stroke="#63b8ff" points="1513.6,-22.73 1503.25,-20.49 1509.95,-28.7 1513.6,-22.73"/>
</a>
</g>
</g>
<!-- Node10&#45;&gt;Node11 -->
<g id="edge11_Node000010_Node000011" class="edge">
<title>Node10&#45;&gt;Node11</title>
<g id="a_edge11_Node000010_Node000011"><a xlink:title=" ">
<path fill="none" stroke="#63b8ff" d="M1581.23,-55.08C1587.04,-47.88 1595.46,-37.46 1602.68,-28.51"/>
<polygon fill="#63b8ff" stroke="#63b8ff" points="1605.36,-30.77 1608.92,-20.79 1599.91,-26.37 1605.36,-30.77"/>
</a>
</g>
</g>
<!-- Node16&#45;&gt;Node2 -->
<g id="edge46_Node000016_Node000002" class="edge">
<title>Node16&#45;&gt;Node2</title>
<g id="a_edge46_Node000016_Node000002"><a xlink:title=" ">
<path fill="none" stroke="#63b8ff" d="M923.06,-221.19C950.97,-214.76 984.62,-203.71 1010.12,-185 1026.01,-173.35 1038.35,-154.37 1046.06,-140.12"/>
<polygon fill="#63b8ff" stroke="#63b8ff" points="1049.14,-141.79 1050.54,-131.29 1042.89,-138.62 1049.14,-141.79"/>
</a>
</g>
</g>
<!-- Node17 -->
<g id="Node000017" class="node">
<title>Node17</title>
<g id="a_Node000017"><a xlink:href="_system_2_event_loop_8h.html" target="_top" xlink:title=" ">
<polygon fill="white" stroke="#666666" points="484.75,-185 361.5,-185 361.5,-165.75 484.75,-165.75 484.75,-185"/>
<text text-anchor="middle" x="423.12" y="-171.5" font-family="Helvetica,sans-Serif" font-size="10.00">Cpl/System/EventLoop.h</text>
</a>
</g>
</g>
<!-- Node16&#45;&gt;Node17 -->
<g id="edge23_Node000016_Node000017" class="edge">
<title>Node16&#45;&gt;Node17</title>
<g id="a_edge23_Node000016_Node000017"><a xlink:title=" ">
<path fill="none" stroke="#63b8ff" d="M817.09,-223.31C737.36,-213.81 586.38,-195.82 496.25,-185.09"/>
<polygon fill="#63b8ff" stroke="#63b8ff" points="496.88,-181.64 486.53,-183.93 496.05,-188.59 496.88,-181.64"/>
</a>
</g>
</g>
<!-- Node25 -->
<g id="Node000025" class="node">
<title>Node25</title>
<g id="a_Node000025"><a xlink:href="_d_list_8h.html" target="_top" xlink:title=" ">
<polygon fill="white" stroke="#666666" points="108.25,-74.5 0,-74.5 0,-55.25 108.25,-55.25 108.25,-74.5"/>
<text text-anchor="middle" x="54.12" y="-61" font-family="Helvetica,sans-Serif" font-size="10.00">Cpl/Container/DList.h</text>
</a>
</g>
</g>
<!-- Node16&#45;&gt;Node25 -->
<g id="edge45_Node000016_Node000025" class="edge">
<title>Node16&#45;&gt;Node25</title>
<g id="a_edge45_Node000016_Node000025"><a xlink:title=" ">
<path fill="none" stroke="#63b8ff" d="M817.17,-227.49C639.9,-219.77 75.57,-190.59 24.12,-129.75 12.44,-115.94 24.22,-96.81 36.28,-83.09"/>
<polygon fill="#63b8ff" stroke="#63b8ff" points="38.6,-85.73 42.95,-76.07 33.53,-80.9 38.6,-85.73"/>
</a>
</g>
</g>
<!-- Node26 -->
<g id="Node000026" class="node">
<title>Node26</title>
<g id="a_Node000026"><a xlink:href="_thread_8h.html" target="_top" xlink:title=" ">
<polygon fill="white" stroke="#666666" points="855.5,-185 748.75,-185 748.75,-165.75 855.5,-165.75 855.5,-185"/>
<text text-anchor="middle" x="802.12" y="-171.5" font-family="Helvetica,sans-Serif" font-size="10.00">Cpl/System/Thread.h</text>
</a>
</g>
</g>
<!-- Node16&#45;&gt;Node26 -->
<g id="edge39_Node000016_Node000026" class="edge">
<title>Node16&#45;&gt;Node26</title>
<g id="a_edge39_Node000016_Node000026"><a xlink:title=" ">
<path fill="none" stroke="#63b8ff" d="M858.59,-220.59C848.66,-212.82 834.11,-201.42 822.27,-192.15"/>
<polygon fill="#63b8ff" stroke="#63b8ff" points="824.71,-189.62 814.68,-186.21 820.4,-195.13 824.71,-189.62"/>
</a>
</g>
</g>
<!-- Node29 -->
<g id="Node000029" class="node">
<title>Node29</title>
<g id="a_Node000029"><a xlink:href="_notification_api___8h.html" target="_top" xlink:title=" ">
<polygon fill="white" stroke="#666666" points="1000.62,-185 873.62,-185 873.62,-165.75 1000.62,-165.75 1000.62,-185"/>
<text text-anchor="middle" x="937.12" y="-171.5" font-family="Helvetica,sans-Serif" font-size="10.00">Cpl/Dm/NotificationApi_.h</text>
</a>
</g>
</g>
<!-- Node16&#45;&gt;Node29 -->
<g id="edge47_Node000016_Node000029" class="edge">
<title>Node16&#45;&gt;Node29</title>
<g id="a_edge47_Node000016_Node000029"><a xlink:title=" ">
<path fill="none" stroke="#63b8ff" d="M881.49,-220.59C891.17,-212.9 905.32,-201.65 916.93,-192.43"/>
<polygon fill="#63b8ff" stroke="#63b8ff" points="919.09,-195.18 924.74,-186.22 914.74,-189.7 919.09,-195.18"/>
</a>
</g>
</g>
<!-- Node18 -->
<g id="Node000018" class="node">
<title>Node18</title>
<g id="a_Node000018"><a xlink:href="_runnable_8h.html" target="_top" xlink:title=" ">
<polygon fill="white" stroke="#666666" points="712.75,-129.75 595.5,-129.75 595.5,-110.5 712.75,-110.5 712.75,-129.75"/>
<text text-anchor="middle" x="654.12" y="-116.25" font-family="Helvetica,sans-Serif" font-size="10.00">Cpl/System/Runnable.h</text>
</a>
</g>
</g>
<!-- Node17&#45;&gt;Node18 -->
<g id="edge24_Node000017_Node000018" class="edge">
<title>Node17&#45;&gt;Node18</title>
<g id="a_edge24_Node000017_Node000018"><a xlink:title=" ">
<path fill="none" stroke="#63b8ff" d="M462.57,-165.28C501.53,-156.3 561.25,-142.53 603.65,-132.76"/>
<polygon fill="#63b8ff" stroke="#63b8ff" points="604.41,-136.18 613.36,-130.52 602.83,-129.36 604.41,-136.18"/>
</a>
</g>
</g>
<!-- Node19 -->
<g id="Node000019" class="node">
<title>Node19</title>
<g id="a_Node000019"><a xlink:href="_semaphore_8h.html" target="_top" xlink:title=" ">
<polygon fill="white" stroke="#666666" points="577.25,-129.75 451,-129.75 451,-110.5 577.25,-110.5 577.25,-129.75"/>
<text text-anchor="middle" x="514.12" y="-116.25" font-family="Helvetica,sans-Serif" font-size="10.00">Cpl/System/Semaphore.h</text>
</a>
</g>
</g>
<!-- Node17&#45;&gt;Node19 -->
<g id="edge25_Node000017_Node000019" class="edge">
<title>Node17&#45;&gt;Node19</title>
<g id="a_edge25_Node000017_Node000019"><a xlink:title=" ">
<path fill="none" stroke="#63b8ff" d="M438.56,-165.34C452.29,-157.31 472.62,-145.41 488.74,-135.98"/>
<polygon fill="#63b8ff" stroke="#63b8ff" points="490.44,-139.04 497.31,-130.97 486.91,-133 490.44,-139.04"/>
</a>
</g>
</g>
<!-- Node20 -->
<g id="Node000020" class="node">
<title>Node20</title>
<g id="a_Node000020"><a xlink:href="_signable_8h.html" target="_top" xlink:title=" ">
<polygon fill="white" stroke="#666666" points="762.25,-74.5 648,-74.5 648,-55.25 762.25,-55.25 762.25,-74.5"/>
<text text-anchor="middle" x="705.12" y="-61" font-family="Helvetica,sans-Serif" font-size="10.00">Cpl/System/Signable.h</text>
</a>
</g>
</g>
<!-- Node17&#45;&gt;Node20 -->
<g id="edge29_Node000017_Node000020" class="edge">
<title>Node17&#45;&gt;Node20</title>
<g id="a_edge29_Node000017_Node000020"><a xlink:title=" ">
<path fill="none" stroke="#63b8ff" d="M423.01,-165.41C423.35,-151.44 426.19,-124.61 442.12,-110.5 470.29,-85.56 568.62,-74.3 636.72,-69.4"/>
<polygon fill="#63b8ff" stroke="#63b8ff" points="636.55,-72.92 646.29,-68.75 636.07,-65.94 636.55,-72.92"/>
</a>
</g>
</g>
<!-- Node21 -->
<g id="Node000021" class="node">
<title>Node21</title>
<g id="a_Node000021"><a xlink:href="_event_flag_8h.html" target="_top" xlink:title=" ">
<polygon fill="white" stroke="#666666" points="559.25,-74.5 439,-74.5 439,-55.25 559.25,-55.25 559.25,-74.5"/>
<text text-anchor="middle" x="499.12" y="-61" font-family="Helvetica,sans-Serif" font-size="10.00">Cpl/System/EventFlag.h</text>
</a>
</g>
</g>
<!-- Node17&#45;&gt;Node21 -->
<g id="edge30_Node000017_Node000021" class="edge">
<title>Node17&#45;&gt;Node21</title>
<g id="a_edge30_Node000017_Node000021"><a xlink:title=" ">
<path fill="none" stroke="#63b8ff" d="M417.31,-165.42C409.65,-152.39 398.35,-127.86 409.12,-110.5 418.33,-95.67 434.09,-85.61 449.87,-78.87"/>
<polygon fill="#63b8ff" stroke="#63b8ff" points="450.7,-82.3 458.77,-75.44 448.18,-75.77 450.7,-82.3"/>
</a>
</g>
</g>
<!-- Node22 -->
<g id="Node000022" class="node">
<title>Node22</title>
<g id="a_Node000022"><a xlink:href="_shared_event_handler_8h.html" target="_top" xlink:title=" ">
<polygon fill="white" stroke="#666666" points="357.12,-129.75 191.12,-129.75 191.12,-110.5 357.12,-110.5 357.12,-129.75"/>
<text text-anchor="middle" x="274.12" y="-116.25" font-family="Helvetica,sans-Serif" font-size="10.00">Cpl/System/SharedEventHandler.h</text>
</a>
</g>
</g>
<!-- Node17&#45;&gt;Node22 -->
<g id="edge33_Node000017_Node000022" class="edge">
<title>Node17&#45;&gt;Node22</title>
<g id="a_edge33_Node000017_Node000022"><a xlink:title=" ">
<path fill="none" stroke="#63b8ff" d="M397.85,-165.34C373.77,-156.74 337.27,-143.69 310.14,-134"/>
<polygon fill="#63b8ff" stroke="#63b8ff" points="311.54,-130.78 300.95,-130.71 309.19,-137.37 311.54,-130.78"/>
</a>
</g>
</g>
<!-- Node23 -->
<g id="Node000023" class="node">
<title>Node23</title>
<g id="a_Node000023"><a xlink:href="_timer_manager_8h.html" target="_top" xlink:title=" ">
<polygon fill="white" stroke="#666666" points="172.62,-129.75 33.62,-129.75 33.62,-110.5 172.62,-110.5 172.62,-129.75"/>
<text text-anchor="middle" x="103.12" y="-116.25" font-family="Helvetica,sans-Serif" font-size="10.00">Cpl/System/TimerManager.h</text>
</a>
</g>
</g>
<!-- Node17&#45;&gt;Node23 -->
<g id="edge35_Node000017_Node000023" class="edge">
<title>Node17&#45;&gt;Node23</title>
<g id="a_edge35_Node000017_Node000023"><a xlink:title=" ">
<path fill="none" stroke="#63b8ff" d="M368.48,-165.28C313.22,-156.09 227.79,-141.87 168.86,-132.06"/>
<polygon fill="#63b8ff" stroke="#63b8ff" points="169.75,-128.66 159.31,-130.47 168.6,-135.57 169.75,-128.66"/>
</a>
</g>
</g>
<!-- Node19&#45;&gt;Node8 -->
<g id="edge26_Node000019_Node000008" class="edge">
<title>Node19&#45;&gt;Node8</title>
<g id="a_edge26_Node000019_Node000008"><a xlink:title=" ">
<path fill="none" stroke="#63b8ff" d="M577.72,-111.41C580.56,-111.09 583.37,-110.79 586.12,-110.5 747.63,-93.49 939.44,-77.18 1027.92,-69.88"/>
<polygon fill="#63b8ff" stroke="#63b8ff" points="1028.01,-73.38 1037.69,-69.07 1027.44,-66.41 1028.01,-73.38"/>
</a>
</g>
</g>
<!-- Node19&#45;&gt;Node20 -->
<g id="edge27_Node000019_Node000020" class="edge">
<title>Node19&#45;&gt;Node20</title>
<g id="a_edge27_Node000019_Node000020"><a xlink:title=" ">
<path fill="none" stroke="#63b8ff" d="M546.53,-110.09C578.22,-101.26 626.69,-87.74 661.71,-77.98"/>
<polygon fill="#63b8ff" stroke="#63b8ff" points="662.41,-81.42 671.11,-75.36 660.53,-74.67 662.41,-81.42"/>
</a>
</g>
</g>
<!-- Node20&#45;&gt;Node3 -->
<g id="edge28_Node000020_Node000003" class="edge">
<title>Node20&#45;&gt;Node3</title>
<g id="a_edge28_Node000020_Node000003"><a xlink:title=" ">
<path fill="none" stroke="#63b8ff" d="M724.8,-54.84C742.97,-46.5 770.21,-34 791.09,-24.41"/>
<polygon fill="#63b8ff" stroke="#63b8ff" points="792.35,-27.69 799.98,-20.33 789.43,-21.33 792.35,-27.69"/>
</a>
</g>
</g>
<!-- Node21&#45;&gt;Node4 -->
<g id="edge32_Node000021_Node000004" class="edge">
<title>Node21&#45;&gt;Node4</title>
<g id="a_edge32_Node000021_Node000004"><a xlink:title=" ">
<path fill="none" stroke="#63b8ff" d="M559.58,-59.4C704.58,-48.68 1068.58,-21.76 1183.67,-13.25"/>
<polygon fill="#63b8ff" stroke="#63b8ff" points="1183.7,-16.75 1193.42,-12.53 1183.19,-9.77 1183.7,-16.75"/>
</a>
</g>
</g>
<!-- Node21&#45;&gt;Node6 -->
<g id="edge31_Node000021_Node000006" class="edge">
<title>Node21&#45;&gt;Node6</title>
<g id="a_edge31_Node000021_Node000006"><a xlink:title=" ">
<path fill="none" stroke="#63b8ff" d="M559.41,-60.04C584.12,-58.5 612.99,-56.74 639.12,-55.25 939.87,-38.07 1300.77,-19.89 1434.19,-13.25"/>
<polygon fill="#63b8ff" stroke="#63b8ff" points="1434.32,-16.74 1444.13,-12.75 1433.97,-9.75 1434.32,-16.74"/>
</a>
</g>
</g>
<!-- Node22&#45;&gt;Node21 -->
<g id="edge34_Node000022_Node000021" class="edge">
<title>Node22&#45;&gt;Node21</title>
<g id="a_edge34_Node000022_Node000021"><a xlink:title=" ">
<path fill="none" stroke="#63b8ff" d="M312.55,-110.03C350.41,-101.07 408.42,-87.34 449.69,-77.57"/>
<polygon fill="#63b8ff" stroke="#63b8ff" points="450.46,-80.99 459.39,-75.28 448.85,-74.18 450.46,-80.99"/>
</a>
</g>
</g>
<!-- Node24 -->
<g id="Node000024" class="node">
<title>Node24</title>
<g id="a_Node000024"><a xlink:href="_counter___8h.html" target="_top" xlink:title=" ">
<polygon fill="white" stroke="#666666" points="278,-74.5 162.25,-74.5 162.25,-55.25 278,-55.25 278,-74.5"/>
<text text-anchor="middle" x="220.12" y="-61" font-family="Helvetica,sans-Serif" font-size="10.00">Cpl/System/Counter_.h</text>
</a>
</g>
</g>
<!-- Node23&#45;&gt;Node24 -->
<g id="edge36_Node000023_Node000024" class="edge">
<title>Node23&#45;&gt;Node24</title>
<g id="a_edge36_Node000023_Node000024"><a xlink:title=" ">
<path fill="none" stroke="#63b8ff" d="M122.97,-110.09C141.29,-101.75 168.77,-89.25 189.83,-79.66"/>
<polygon fill="#63b8ff" stroke="#63b8ff" points="191.15,-82.91 198.8,-75.58 188.25,-76.54 191.15,-82.91"/>
</a>
</g>
</g>
<!-- Node23&#45;&gt;Node25 -->
<g id="edge38_Node000023_Node000025" class="edge">
<title>Node23&#45;&gt;Node25</title>
<g id="a_edge38_Node000023_Node000025"><a xlink:title=" ">
<path fill="none" stroke="#63b8ff" d="M95.03,-110.33C88.27,-102.98 78.4,-92.26 70.06,-83.19"/>
<polygon fill="#63b8ff" stroke="#63b8ff" points="72.76,-80.96 63.42,-75.97 67.61,-85.7 72.76,-80.96"/>
</a>
</g>
</g>
<!-- Node24&#45;&gt;Node3 -->
<g id="edge37_Node000024_Node000003" class="edge">
<title>Node24&#45;&gt;Node3</title>
<g id="a_edge37_Node000024_Node000003"><a xlink:title=" ">
<path fill="none" stroke="#63b8ff" d="M278.3,-58.72C391.34,-48.71 639.84,-26.69 757.26,-16.28"/>
<polygon fill="#63b8ff" stroke="#63b8ff" points="757.39,-19.79 767.04,-15.42 756.77,-12.81 757.39,-19.79"/>
</a>
</g>
</g>
<!-- Node26&#45;&gt;Node8 -->
<g id="edge40_Node000026_Node000008" class="edge">
<title>Node26&#45;&gt;Node8</title>
<g id="a_edge40_Node000026_Node000008"><a xlink:title=" ">
<path fill="none" stroke="#63b8ff" d="M837.82,-165.32C867.75,-157.28 911.37,-144.55 948.12,-129.75 965.69,-122.68 969.18,-118.95 986.12,-110.5 1006.96,-100.12 1030.56,-88.55 1048.51,-79.79"/>
<polygon fill="#63b8ff" stroke="#63b8ff" points="1049.8,-83.05 1057.26,-75.53 1046.73,-76.76 1049.8,-83.05"/>
</a>
</g>
</g>
<!-- Node26&#45;&gt;Node18 -->
<g id="edge41_Node000026_Node000018" class="edge">
<title>Node26&#45;&gt;Node18</title>
<g id="a_edge41_Node000026_Node000018"><a xlink:title=" ">
<path fill="none" stroke="#63b8ff" d="M777.02,-165.34C753.1,-156.74 716.84,-143.69 689.9,-134"/>
<polygon fill="#63b8ff" stroke="#63b8ff" points="691.37,-130.81 680.78,-130.71 689,-137.39 691.37,-130.81"/>
</a>
</g>
</g>
<!-- Node26&#45;&gt;Node20 -->
<g id="edge42_Node000026_Node000020" class="edge">
<title>Node26&#45;&gt;Node20</title>
<g id="a_edge42_Node000026_Node000020"><a xlink:title=" ">
<path fill="none" stroke="#63b8ff" d="M793.32,-165.26C784.73,-156.31 771.37,-142.24 760.12,-129.75 746.24,-114.32 730.85,-96.38 719.9,-83.45"/>
<polygon fill="#63b8ff" stroke="#63b8ff" points="722.58,-81.2 713.45,-75.82 717.23,-85.72 722.58,-81.2"/>
</a>
</g>
</g>
<!-- Node27 -->
<g id="Node000027" class="node">
<title>Node27</title>
<g id="a_Node000027"><a xlink:href="_traverser_8h.html" target="_top" xlink:title=" ">
<polygon fill="white" stroke="#666666" points="875.12,-129.75 769.12,-129.75 769.12,-110.5 875.12,-110.5 875.12,-129.75"/>
<text text-anchor="middle" x="822.12" y="-116.25" font-family="Helvetica,sans-Serif" font-size="10.00">Cpl/Type/Traverser.h</text>
</a>
</g>
</g>
<!-- Node26&#45;&gt;Node27 -->
<g id="edge43_Node000026_Node000027" class="edge">
<title>Node26&#45;&gt;Node27</title>
<g id="a_edge43_Node000026_Node000027"><a xlink:title=" ">
<path fill="none" stroke="#63b8ff" d="M805.43,-165.58C807.96,-158.84 811.55,-149.27 814.76,-140.74"/>
<polygon fill="#63b8ff" stroke="#63b8ff" points="817.98,-142.12 818.22,-131.53 811.43,-139.66 817.98,-142.12"/>
</a>
</g>
</g>
<!-- Node28 -->
<g id="Node000028" class="node">
<title>Node28</title>
<g id="a_Node000028"><a xlink:title=" ">
<polygon fill="#e0e0e0" stroke="#999999" points="939.5,-129.75 892.75,-129.75 892.75,-110.5 939.5,-110.5 939.5,-129.75"/>
<text text-anchor="middle" x="916.12" y="-116.25" font-family="Helvetica,sans-Serif" font-size="10.00">stdlib.h</text>
</a>
</g>
</g>
<!-- Node26&#45;&gt;Node28 -->
<g id="edge44_Node000026_Node000028" class="edge">
<title>Node26&#45;&gt;Node28</title>
<g id="a_edge44_Node000026_Node000028"><a xlink:title=" ">
<path fill="none" stroke="#63b8ff" d="M821.46,-165.34C839.23,-157.04 865.84,-144.61 886.33,-135.04"/>
<polygon fill="#63b8ff" stroke="#63b8ff" points="887.74,-138.25 895.32,-130.84 884.78,-131.9 887.74,-138.25"/>
</a>
</g>
</g>
<!-- Node29&#45;&gt;Node2 -->
<g id="edge48_Node000029_Node000002" class="edge">
<title>Node29&#45;&gt;Node2</title>
<g id="a_edge48_Node000029_Node000002"><a xlink:title=" ">
<path fill="none" stroke="#63b8ff" d="M957.14,-165.34C975.62,-157 1003.33,-144.5 1024.57,-134.91"/>
<polygon fill="#63b8ff" stroke="#63b8ff" points="1025.95,-138.13 1033.63,-130.83 1023.08,-131.75 1025.95,-138.13"/>
</a>
</g>
</g>
</g>
</svg>
