<?xml version="1.0" encoding="UTF-8" standalone="no"?>
<!DOCTYPE svg PUBLIC "-//W3C//DTD SVG 1.1//EN"
 "http://www.w3.org/Graphics/SVG/1.1/DTD/svg11.dtd">
<!-- Generated by graphviz version 2.43.0 (0)
 -->
<!-- Title: Cpl/Dm/SubscriberComposer.h Pages: 1 -->
<svg width="1532pt" height="214pt"
 viewBox="0.00 0.00 1531.50 214.00" xmlns="http://www.w3.org/2000/svg" xmlns:xlink="http://www.w3.org/1999/xlink">
<g id="graph0" class="graph" transform="scale(1 1) rotate(0) translate(4 210)">
<title>Cpl/Dm/SubscriberComposer.h</title>
<!-- Node1 -->
<g id="Node000001" class="node">
<title>Node1</title>
<g id="a_Node000001"><a xlink:title=" ">
<polygon fill="#999999" stroke="#666666" points="881.5,-206 717.5,-206 717.5,-187 881.5,-187 881.5,-206"/>
<text text-anchor="middle" x="799.5" y="-194" font-family="Helvetica,sans-Serif" font-size="10.00">Cpl/Dm/SubscriberComposer.h</text>
</a>
</g>
</g>
<!-- Node2 -->
<g id="Node000002" class="node">
<title>Node2</title>
<g id="a_Node000002"><a xlink:href="_summary_8h.html" target="_top" xlink:title=" ">
<polygon fill="white" stroke="#666666" points="229.5,-145.5 101.5,-145.5 101.5,-126.5 229.5,-126.5 229.5,-145.5"/>
<text text-anchor="middle" x="165.5" y="-133.5" font-family="Helvetica,sans-Serif" font-size="10.00">Ajax/Alerts/Summary.h</text>
</a>
</g>
</g>
<!-- Node1&#45;&gt;Node2 -->
<g id="edge1_Node000001_Node000002" class="edge">
<title>Node1&#45;&gt;Node2</title>
<g id="a_edge1_Node000001_Node000002"><a xlink:title=" ">
<path fill="none" stroke="#63b8ff" d="M707.24,-191.31C595.8,-185.52 402.81,-173.2 238.5,-151 227.76,-149.55 216.21,-147.54 205.53,-145.5"/>
<polygon fill="#63b8ff" stroke="#63b8ff" points="707.27,-194.81 717.44,-191.83 707.63,-187.82 707.27,-194.81"/>
</a>
</g>
</g>
<!-- Node3 -->
<g id="Node000003" class="node">
<title>Node3</title>
<g id="a_Node000003"><a xlink:href="_ajax_2_heating_2_supervisor_2_api_8h.html" target="_top" xlink:title=" ">
<polygon fill="white" stroke="#666666" points="381.5,-151 247.5,-151 247.5,-121 381.5,-121 381.5,-151"/>
<text text-anchor="start" x="255.5" y="-139" font-family="Helvetica,sans-Serif" font-size="10.00">Ajax/Heating/Supervisor</text>
<text text-anchor="middle" x="314.5" y="-128" font-family="Helvetica,sans-Serif" font-size="10.00">/Api.h</text>
</a>
</g>
</g>
<!-- Node1&#45;&gt;Node3 -->
<g id="edge2_Node000001_Node000003" class="edge">
<title>Node1&#45;&gt;Node3</title>
<g id="a_edge2_Node000001_Node000003"><a xlink:title=" ">
<path fill="none" stroke="#63b8ff" d="M718.9,-185.78C624.48,-174.39 469.77,-155.73 381.59,-145.09"/>
<polygon fill="#63b8ff" stroke="#63b8ff" points="718.63,-189.27 728.98,-186.99 719.47,-182.32 718.63,-189.27"/>
</a>
</g>
</g>
<!-- Node6 -->
<g id="Node000006" class="node">
<title>Node6</title>
<g id="a_Node000006"><a xlink:href="_ajax_2_metrics_2_api_8h.html" target="_top" xlink:title=" ">
<polygon fill="white" stroke="#666666" points="857,-19 752,-19 752,0 857,0 857,-19"/>
<text text-anchor="middle" x="804.5" y="-7" font-family="Helvetica,sans-Serif" font-size="10.00">Ajax/Metrics/Api.h</text>
</a>
</g>
</g>
<!-- Node1&#45;&gt;Node6 -->
<g id="edge5_Node000001_Node000006" class="edge">
<title>Node1&#45;&gt;Node6</title>
<g id="a_edge5_Node000001_Node000006"><a xlink:title=" ">
<path fill="none" stroke="#63b8ff" d="M786.29,-178.68C780.89,-170.75 775.26,-160.88 772.5,-151 768.69,-137.37 766.65,-76.25 773.5,-55 778.01,-41.02 788.53,-27.55 796.07,-19.17"/>
<polygon fill="#63b8ff" stroke="#63b8ff" points="783.63,-180.96 792.35,-186.97 789.28,-176.83 783.63,-180.96"/>
</a>
</g>
</g>
<!-- Node7 -->
<g id="Node000007" class="node">
<title>Node7</title>
<g id="a_Node000007"><a xlink:href="_ajax_2_screen_mgr_2_api_8h.html" target="_top" xlink:title=" ">
<polygon fill="white" stroke="#666666" points="599,-145.5 478,-145.5 478,-126.5 599,-126.5 599,-145.5"/>
<text text-anchor="middle" x="538.5" y="-133.5" font-family="Helvetica,sans-Serif" font-size="10.00">Ajax/ScreenMgr/Api.h</text>
</a>
</g>
</g>
<!-- Node1&#45;&gt;Node7 -->
<g id="edge6_Node000001_Node000007" class="edge">
<title>Node1&#45;&gt;Node7</title>
<g id="a_edge6_Node000001_Node000007"><a xlink:title=" ">
<path fill="none" stroke="#63b8ff" d="M751.54,-184.75C701.12,-173.45 622.81,-155.9 576.5,-145.52"/>
<polygon fill="#63b8ff" stroke="#63b8ff" points="751.02,-188.22 761.55,-186.99 752.56,-181.39 751.02,-188.22"/>
</a>
</g>
</g>
<!-- Node11 -->
<g id="Node000011" class="node">
<title>Node11</title>
<g id="a_Node000011"><a xlink:href="_ajax_2_ui_2_home_2_screen_8h.html" target="_top" xlink:title=" ">
<polygon fill="white" stroke="#666666" points="725,-79.5 596,-79.5 596,-60.5 725,-60.5 725,-79.5"/>
<text text-anchor="middle" x="660.5" y="-67.5" font-family="Helvetica,sans-Serif" font-size="10.00">Ajax/Ui/Home/Screen.h</text>
</a>
</g>
</g>
<!-- Node1&#45;&gt;Node11 -->
<g id="edge13_Node000001_Node000011" class="edge">
<title>Node1&#45;&gt;Node11</title>
<g id="a_edge13_Node000001_Node000011"><a xlink:title=" ">
<path fill="none" stroke="#63b8ff" d="M778.32,-181C766.55,-172.64 751.83,-161.7 739.5,-151 711.79,-126.94 682.17,-95.08 668.4,-79.84"/>
<polygon fill="#63b8ff" stroke="#63b8ff" points="776.46,-183.97 786.66,-186.83 780.47,-178.23 776.46,-183.97"/>
</a>
</g>
</g>
<!-- Node12 -->
<g id="Node000012" class="node">
<title>Node12</title>
<g id="a_Node000012"><a xlink:href="_ajax_2_ui_2_status_indicator_2_api_8h.html" target="_top" xlink:title=" ">
<polygon fill="white" stroke="#666666" points="909.5,-151 781.5,-151 781.5,-121 909.5,-121 909.5,-151"/>
<text text-anchor="start" x="789.5" y="-139" font-family="Helvetica,sans-Serif" font-size="10.00">Ajax/Ui/StatusIndicator</text>
<text text-anchor="middle" x="845.5" y="-128" font-family="Helvetica,sans-Serif" font-size="10.00">/Api.h</text>
</a>
</g>
</g>
<!-- Node1&#45;&gt;Node12 -->
<g id="edge14_Node000001_Node000012" class="edge">
<title>Node1&#45;&gt;Node12</title>
<g id="a_edge14_Node000001_Node000012"><a xlink:title=" ">
<path fill="none" stroke="#63b8ff" d="M812.57,-178.88C819.46,-170.11 827.83,-159.48 834.4,-151.11"/>
<polygon fill="#63b8ff" stroke="#63b8ff" points="809.72,-176.84 806.29,-186.87 815.22,-181.17 809.72,-176.84"/>
</a>
</g>
</g>
<!-- Node13 -->
<g id="Node000013" class="node">
<title>Node13</title>
<g id="a_Node000013"><a xlink:href="_dm_2_persistent_2_record_8h.html" target="_top" xlink:title=" ">
<polygon fill="white" stroke="#666666" points="1077.5,-145.5 927.5,-145.5 927.5,-126.5 1077.5,-126.5 1077.5,-145.5"/>
<text text-anchor="middle" x="1002.5" y="-133.5" font-family="Helvetica,sans-Serif" font-size="10.00">Cpl/Dm/Persistent/Record.h</text>
</a>
</g>
</g>
<!-- Node1&#45;&gt;Node13 -->
<g id="edge15_Node000001_Node000013" class="edge">
<title>Node1&#45;&gt;Node13</title>
<g id="a_edge15_Node000001_Node000013"><a xlink:title=" ">
<path fill="none" stroke="#63b8ff" d="M838.78,-184.18C878.04,-172.87 937.52,-155.72 972.95,-145.52"/>
<polygon fill="#63b8ff" stroke="#63b8ff" points="837.66,-180.86 829.02,-186.99 839.6,-187.59 837.66,-180.86"/>
</a>
</g>
</g>
<!-- Node18 -->
<g id="Node000018" class="node">
<title>Node18</title>
<g id="a_Node000018"><a xlink:href="_log_sink_8h.html" target="_top" xlink:title=" ">
<polygon fill="white" stroke="#666666" points="1219.5,-145.5 1095.5,-145.5 1095.5,-126.5 1219.5,-126.5 1219.5,-145.5"/>
<text text-anchor="middle" x="1157.5" y="-133.5" font-family="Helvetica,sans-Serif" font-size="10.00">Cpl/Logging/LogSink.h</text>
</a>
</g>
</g>
<!-- Node1&#45;&gt;Node18 -->
<g id="edge21_Node000001_Node000018" class="edge">
<title>Node1&#45;&gt;Node18</title>
<g id="a_edge21_Node000001_Node000018"><a xlink:title=" ">
<path fill="none" stroke="#63b8ff" d="M869.44,-185.47C927.64,-176.93 1012.6,-164.01 1086.5,-151 1096.03,-149.32 1106.25,-147.39 1115.88,-145.5"/>
<polygon fill="#63b8ff" stroke="#63b8ff" points="868.64,-182.05 859.26,-186.96 869.66,-188.98 868.64,-182.05"/>
</a>
</g>
</g>
<!-- Node19 -->
<g id="Node000019" class="node">
<title>Node19</title>
<g id="a_Node000019"><a xlink:href="_indexed_entry_server_8h.html" target="_top" xlink:title=" ">
<polygon fill="white" stroke="#666666" points="1389,-151 1238,-151 1238,-121 1389,-121 1389,-151"/>
<text text-anchor="start" x="1246" y="-139" font-family="Helvetica,sans-Serif" font-size="10.00">Cpl/Persistent/IndexedEntry</text>
<text text-anchor="middle" x="1313.5" y="-128" font-family="Helvetica,sans-Serif" font-size="10.00">Server.h</text>
</a>
</g>
</g>
<!-- Node1&#45;&gt;Node19 -->
<g id="edge22_Node000001_Node000019" class="edge">
<title>Node1&#45;&gt;Node19</title>
<g id="a_edge22_Node000001_Node000019"><a xlink:title=" ">
<path fill="none" stroke="#63b8ff" d="M891.62,-187.55C978.63,-179.67 1112.67,-166.53 1228.5,-151 1231.61,-150.58 1234.79,-150.14 1237.99,-149.68"/>
<polygon fill="#63b8ff" stroke="#63b8ff" points="891.16,-184.08 881.52,-188.46 891.79,-191.05 891.16,-184.08"/>
</a>
</g>
</g>
<!-- Node21 -->
<g id="Node000021" class="node">
<title>Node21</title>
<g id="a_Node000021"><a xlink:href="_eros_2_test_2_thermistor_2_api_8h.html" target="_top" xlink:title=" ">
<polygon fill="white" stroke="#666666" points="1523.5,-151 1407.5,-151 1407.5,-121 1523.5,-121 1523.5,-151"/>
<text text-anchor="start" x="1415.5" y="-139" font-family="Helvetica,sans-Serif" font-size="10.00">Eros/Test/Thermistor</text>
<text text-anchor="middle" x="1465.5" y="-128" font-family="Helvetica,sans-Serif" font-size="10.00">/Api.h</text>
</a>
</g>
</g>
<!-- Node1&#45;&gt;Node21 -->
<g id="edge24_Node000001_Node000021" class="edge">
<title>Node1&#45;&gt;Node21</title>
<g id="a_edge24_Node000001_Node000021"><a xlink:title=" ">
<path fill="none" stroke="#63b8ff" d="M891.81,-192.42C1009.81,-187.62 1220.16,-176.15 1398.5,-151 1401.44,-150.59 1404.45,-150.12 1407.48,-149.61"/>
<polygon fill="#63b8ff" stroke="#63b8ff" points="891.59,-188.93 881.74,-192.82 891.87,-195.92 891.59,-188.93"/>
</a>
</g>
</g>
<!-- Node4 -->
<g id="Node000004" class="node">
<title>Node4</title>
<g id="a_Node000004"><a xlink:href="_ajax_2_heating_2_io_2_api_8h.html" target="_top" xlink:title=" ">
<polygon fill="white" stroke="#666666" points="119,-79.5 0,-79.5 0,-60.5 119,-60.5 119,-79.5"/>
<text text-anchor="middle" x="59.5" y="-67.5" font-family="Helvetica,sans-Serif" font-size="10.00">Ajax/Heating/Io/Api.h</text>
</a>
</g>
</g>
<!-- Node3&#45;&gt;Node4 -->
<g id="edge3_Node000003_Node000004" class="edge">
<title>Node3&#45;&gt;Node4</title>
<g id="a_edge3_Node000003_Node000004"><a xlink:title=" ">
<path fill="none" stroke="#63b8ff" d="M248.84,-118.52C199.16,-106.05 132.96,-89.44 93.44,-79.52"/>
<polygon fill="#63b8ff" stroke="#63b8ff" points="247.99,-121.92 258.54,-120.95 249.69,-115.13 247.99,-121.92"/>
</a>
</g>
</g>
<!-- Node5 -->
<g id="Node000005" class="node">
<title>Node5</title>
<g id="a_Node000005"><a xlink:href="_heating_2_simulated_2_house_8h_source.html" target="_top" xlink:title=" ">
<polygon fill="white" stroke="#666666" points="269.5,-85 137.5,-85 137.5,-55 269.5,-55 269.5,-85"/>
<text text-anchor="start" x="145.5" y="-73" font-family="Helvetica,sans-Serif" font-size="10.00">Ajax/Heating/Simulated</text>
<text text-anchor="middle" x="203.5" y="-62" font-family="Helvetica,sans-Serif" font-size="10.00">/House.h</text>
</a>
</g>
</g>
<!-- Node3&#45;&gt;Node5 -->
<g id="edge4_Node000003_Node000005" class="edge">
<title>Node3&#45;&gt;Node5</title>
<g id="a_edge4_Node000003_Node000005"><a xlink:title=" ">
<path fill="none" stroke="#63b8ff" d="M281.02,-115.69C263.88,-105.82 243.41,-94.01 227.8,-85.01"/>
<polygon fill="#63b8ff" stroke="#63b8ff" points="279.73,-118.99 290.14,-120.95 283.23,-112.93 279.73,-118.99"/>
</a>
</g>
</g>
<!-- Node8 -->
<g id="Node000008" class="node">
<title>Node8</title>
<g id="a_Node000008"><a xlink:href="_ajax_2_ui_2_about_2_screen_8h.html" target="_top" xlink:title=" ">
<polygon fill="white" stroke="#666666" points="415.5,-79.5 287.5,-79.5 287.5,-60.5 415.5,-60.5 415.5,-79.5"/>
<text text-anchor="middle" x="351.5" y="-67.5" font-family="Helvetica,sans-Serif" font-size="10.00">Ajax/Ui/About/Screen.h</text>
</a>
</g>
</g>
<!-- Node7&#45;&gt;Node8 -->
<g id="edge7_Node000007_Node000008" class="edge">
<title>Node7&#45;&gt;Node8</title>
<g id="a_edge7_Node000007_Node000008"><a xlink:title=" ">
<path fill="none" stroke="#63b8ff" d="M503.44,-123C466.51,-110.36 409.28,-90.78 376.62,-79.6"/>
<polygon fill="#63b8ff" stroke="#63b8ff" points="502.69,-126.44 513.28,-126.37 504.95,-119.82 502.69,-126.44"/>
</a>
</g>
</g>
<!-- Node10 -->
<g id="Node000010" class="node">
<title>Node10</title>
<g id="a_Node000010"><a xlink:href="_ajax_2_ui_2_edit_setpt_2_screen_8h.html" target="_top" xlink:title=" ">
<polygon fill="white" stroke="#666666" points="577.5,-79.5 433.5,-79.5 433.5,-60.5 577.5,-60.5 577.5,-79.5"/>
<text text-anchor="middle" x="505.5" y="-67.5" font-family="Helvetica,sans-Serif" font-size="10.00">Ajax/Ui/EditSetpt/Screen.h</text>
</a>
</g>
</g>
<!-- Node7&#45;&gt;Node10 -->
<g id="edge9_Node000007_Node000010" class="edge">
<title>Node7&#45;&gt;Node10</title>
<g id="a_edge9_Node000007_Node000010"><a xlink:title=" ">
<path fill="none" stroke="#63b8ff" d="M529.31,-117.18C523.06,-105.05 515.04,-89.51 510.09,-79.91"/>
<polygon fill="#63b8ff" stroke="#63b8ff" points="526.36,-119.08 534.05,-126.37 532.58,-115.88 526.36,-119.08"/>
</a>
</g>
</g>
<!-- Node7&#45;&gt;Node11 -->
<g id="edge11_Node000007_Node000011" class="edge">
<title>Node7&#45;&gt;Node11</title>
<g id="a_edge11_Node000007_Node000011"><a xlink:title=" ">
<path fill="none" stroke="#63b8ff" d="M563.86,-121.69C587.9,-109.09 623.3,-90.51 643.92,-79.7"/>
<polygon fill="#63b8ff" stroke="#63b8ff" points="562.18,-118.62 554.95,-126.37 565.43,-124.82 562.18,-118.62"/>
</a>
</g>
</g>
<!-- Node9 -->
<g id="Node000009" class="node">
<title>Node9</title>
<g id="a_Node000009"><a xlink:href="_ajax_2_main_2screens_8h.html" target="_top" xlink:title="This file exposes handles to Screen instances for the Ajax Application.">
<polygon fill="white" stroke="#666666" points="563,-19 448,-19 448,0 563,0 563,-19"/>
<text text-anchor="middle" x="505.5" y="-7" font-family="Helvetica,sans-Serif" font-size="10.00">Ajax/Main/screens.h</text>
</a>
</g>
</g>
<!-- Node8&#45;&gt;Node9 -->
<g id="edge8_Node000008_Node000009" class="edge">
<title>Node8&#45;&gt;Node9</title>
<g id="a_edge8_Node000008_Node000009"><a xlink:title=" ">
<path fill="none" stroke="#63b8ff" d="M383.41,-56.88C413.18,-45.57 456.84,-28.99 483.08,-19.02"/>
<polygon fill="#63b8ff" stroke="#63b8ff" points="382,-53.67 373.89,-60.49 384.48,-60.21 382,-53.67"/>
</a>
</g>
</g>
<!-- Node10&#45;&gt;Node9 -->
<g id="edge10_Node000010_Node000009" class="edge">
<title>Node10&#45;&gt;Node9</title>
<g id="a_edge10_Node000010_Node000009"><a xlink:title=" ">
<path fill="none" stroke="#63b8ff" d="M505.5,-50.16C505.5,-39.74 505.5,-27.3 505.5,-19.17"/>
<polygon fill="#63b8ff" stroke="#63b8ff" points="502,-50.37 505.5,-60.37 509,-50.37 502,-50.37"/>
</a>
</g>
</g>
<!-- Node11&#45;&gt;Node9 -->
<g id="edge12_Node000011_Node000009" class="edge">
<title>Node11&#45;&gt;Node9</title>
<g id="a_edge12_Node000011_Node000009"><a xlink:title=" ">
<path fill="none" stroke="#63b8ff" d="M628.38,-56.88C598.42,-45.57 554.48,-28.99 528.07,-19.02"/>
<polygon fill="#63b8ff" stroke="#63b8ff" points="627.37,-60.24 637.96,-60.49 629.84,-53.69 627.37,-60.24"/>
</a>
</g>
</g>
<!-- Node14 -->
<g id="Node000014" class="node">
<title>Node14</title>
<g id="a_Node000014"><a xlink:href="_metrics_record_8h.html" target="_top" xlink:title=" ">
<polygon fill="white" stroke="#666666" points="929,-79.5 782,-79.5 782,-60.5 929,-60.5 929,-79.5"/>
<text text-anchor="middle" x="855.5" y="-67.5" font-family="Helvetica,sans-Serif" font-size="10.00">Ajax/Main/MetricsRecord.h</text>
</a>
</g>
</g>
<!-- Node13&#45;&gt;Node14 -->
<g id="edge16_Node000013_Node000014" class="edge">
<title>Node13&#45;&gt;Node14</title>
<g id="a_edge16_Node000013_Node000014"><a xlink:title=" ">
<path fill="none" stroke="#63b8ff" d="M973.46,-122.36C944.5,-109.75 900.76,-90.71 875.48,-79.7"/>
<polygon fill="#63b8ff" stroke="#63b8ff" points="972.11,-125.59 982.67,-126.37 974.9,-119.17 972.11,-125.59"/>
</a>
</g>
</g>
<!-- Node15 -->
<g id="Node000015" class="node">
<title>Node15</title>
<g id="a_Node000015"><a xlink:href="_personality_record_8h.html" target="_top" xlink:title=" ">
<polygon fill="white" stroke="#666666" points="1265.5,-79.5 1099.5,-79.5 1099.5,-60.5 1265.5,-60.5 1265.5,-79.5"/>
<text text-anchor="middle" x="1182.5" y="-67.5" font-family="Helvetica,sans-Serif" font-size="10.00">Ajax/Main/PersonalityRecord.h</text>
</a>
</g>
</g>
<!-- Node13&#45;&gt;Node15 -->
<g id="edge18_Node000013_Node000015" class="edge">
<title>Node13&#45;&gt;Node15</title>
<g id="a_edge18_Node000013_Node000015"><a xlink:title=" ">
<path fill="none" stroke="#63b8ff" d="M1036.25,-123C1071.79,-110.36 1126.88,-90.78 1158.32,-79.6"/>
<polygon fill="#63b8ff" stroke="#63b8ff" points="1035.03,-119.72 1026.78,-126.37 1037.37,-126.32 1035.03,-119.72"/>
</a>
</g>
</g>
<!-- Node17 -->
<g id="Node000017" class="node">
<title>Node17</title>
<g id="a_Node000017"><a xlink:href="_user_record_8h.html" target="_top" xlink:title=" ">
<polygon fill="white" stroke="#666666" points="1081.5,-79.5 947.5,-79.5 947.5,-60.5 1081.5,-60.5 1081.5,-79.5"/>
<text text-anchor="middle" x="1014.5" y="-67.5" font-family="Helvetica,sans-Serif" font-size="10.00">Ajax/Main/UserRecord.h</text>
</a>
</g>
</g>
<!-- Node13&#45;&gt;Node17 -->
<g id="edge20_Node000013_Node000017" class="edge">
<title>Node13&#45;&gt;Node17</title>
<g id="a_edge20_Node000013_Node000017"><a xlink:title=" ">
<path fill="none" stroke="#63b8ff" d="M1005.98,-116.45C1008.23,-104.43 1011.07,-89.32 1012.83,-79.91"/>
<polygon fill="#63b8ff" stroke="#63b8ff" points="1002.52,-115.89 1004.12,-126.37 1009.4,-117.18 1002.52,-115.89"/>
</a>
</g>
</g>
<!-- Node14&#45;&gt;Node6 -->
<g id="edge17_Node000014_Node000006" class="edge">
<title>Node14&#45;&gt;Node6</title>
<g id="a_edge17_Node000014_Node000006"><a xlink:title=" ">
<path fill="none" stroke="#63b8ff" d="M841.35,-52.77C831.87,-41.89 819.75,-27.99 812.06,-19.17"/>
<polygon fill="#63b8ff" stroke="#63b8ff" points="838.77,-55.13 847.97,-60.37 844.04,-50.53 838.77,-55.13"/>
</a>
</g>
</g>
<!-- Node16 -->
<g id="Node000016" class="node">
<title>Node16</title>
<g id="a_Node000016"><a xlink:href="_provision_8h.html" target="_top" xlink:title=" ">
<polygon fill="white" stroke="#666666" points="1246.5,-19 1118.5,-19 1118.5,0 1246.5,0 1246.5,-19"/>
<text text-anchor="middle" x="1182.5" y="-7" font-family="Helvetica,sans-Serif" font-size="10.00">Ajax/TShell/Provision.h</text>
</a>
</g>
</g>
<!-- Node15&#45;&gt;Node16 -->
<g id="edge19_Node000015_Node000016" class="edge">
<title>Node15&#45;&gt;Node16</title>
<g id="a_edge19_Node000015_Node000016"><a xlink:title=" ">
<path fill="none" stroke="#63b8ff" d="M1182.5,-50.16C1182.5,-39.74 1182.5,-27.3 1182.5,-19.17"/>
<polygon fill="#63b8ff" stroke="#63b8ff" points="1179,-50.37 1182.5,-60.37 1186,-50.37 1179,-50.37"/>
</a>
</g>
</g>
<!-- Node20 -->
<g id="Node000020" class="node">
<title>Node20</title>
<g id="a_Node000020"><a xlink:href="_log_8h.html" target="_top" xlink:title=" ">
<polygon fill="white" stroke="#666666" points="1391,-85 1284,-85 1284,-55 1391,-55 1391,-85"/>
<text text-anchor="start" x="1292" y="-73" font-family="Helvetica,sans-Serif" font-size="10.00">Cpl/Logging/TShell</text>
<text text-anchor="middle" x="1337.5" y="-62" font-family="Helvetica,sans-Serif" font-size="10.00">/Log.h</text>
</a>
</g>
</g>
<!-- Node19&#45;&gt;Node20 -->
<g id="edge23_Node000019_Node000020" class="edge">
<title>Node19&#45;&gt;Node20</title>
<g id="a_edge23_Node000019_Node000020"><a xlink:title=" ">
<path fill="none" stroke="#63b8ff" d="M1322.35,-111.39C1325.66,-102.59 1329.3,-92.86 1332.19,-85.16"/>
<polygon fill="#63b8ff" stroke="#63b8ff" points="1319.06,-110.2 1318.83,-120.8 1325.61,-112.66 1319.06,-110.2"/>
</a>
</g>
</g>
</g>
</svg>
