<?xml version="1.0" encoding="UTF-8" standalone="no"?>
<!DOCTYPE svg PUBLIC "-//W3C//DTD SVG 1.1//EN"
 "http://www.w3.org/Graphics/SVG/1.1/DTD/svg11.dtd">
<!-- Generated by graphviz version 9.0.0 (20230911.1827)
 -->
<!-- Title: Driver/Button/TPipe/Hal.h Pages: 1 -->
<svg width="418pt" height="437pt"
 viewBox="0.00 0.00 417.62 436.50" xmlns="http://www.w3.org/2000/svg" xmlns:xlink="http://www.w3.org/1999/xlink">
<g id="graph0" class="graph" transform="scale(1 1) rotate(0) translate(4 432.5)">
<title>Driver/Button/TPipe/Hal.h</title>
<!-- Node1 -->
<g id="Node000001" class="node">
<title>Node1</title>
<g id="a_Node000001"><a xlink:title="This file defines the concrete implementation for the Button HAL that gets its raw inputs via a Drive...">
<polygon fill="#999999" stroke="#666666" points="271.75,-428.5 170.25,-428.5 170.25,-398 271.75,-398 271.75,-428.5"/>
<text text-anchor="start" x="178.25" y="-415" font-family="Helvetica,sans-Serif" font-size="10.00">Driver/Button/TPipe</text>
<text text-anchor="middle" x="221" y="-403.75" font-family="Helvetica,sans-Serif" font-size="10.00">/Hal.h</text>
</a>
</g>
</g>
<!-- Node2 -->
<g id="Node000002" class="node">
<title>Node2</title>
<g id="a_Node000002"><a xlink:href="_hal_8h.html" target="_top" xlink:title="This file defines a hardware abstraction layer (HAL) for accessing a digital Input that is being used...">
<polygon fill="white" stroke="#666666" points="395.25,-295.5 296.75,-295.5 296.75,-276.25 395.25,-276.25 395.25,-295.5"/>
<text text-anchor="middle" x="346" y="-282" font-family="Helvetica,sans-Serif" font-size="10.00">Driver/Button/Hal.h</text>
</a>
</g>
</g>
<!-- Node1&#45;&gt;Node2 -->
<g id="edge1_Node000001_Node000002" class="edge">
<title>Node1&#45;&gt;Node2</title>
<g id="a_edge1_Node000001_Node000002"><a xlink:title=" ">
<path fill="none" stroke="#63b8ff" d="M252.82,-397.59C269.21,-388.91 288.7,-376.74 303,-362 318.83,-345.69 330.97,-322.42 338.25,-306.11"/>
<polygon fill="#63b8ff" stroke="#63b8ff" points="341.41,-307.64 342.08,-297.06 334.96,-304.9 341.41,-307.64"/>
</a>
</g>
</g>
<!-- Node4 -->
<g id="Node000004" class="node">
<title>Node4</title>
<g id="a_Node000004"><a xlink:href="_map_8h.html" target="_top" xlink:title=" ">
<polygon fill="white" stroke="#666666" points="129.88,-356.38 26.12,-356.38 26.12,-337.12 129.88,-337.12 129.88,-356.38"/>
<text text-anchor="middle" x="78" y="-342.88" font-family="Helvetica,sans-Serif" font-size="10.00">Cpl/Container/Map.h</text>
</a>
</g>
</g>
<!-- Node1&#45;&gt;Node4 -->
<g id="edge3_Node000001_Node000004" class="edge">
<title>Node1&#45;&gt;Node4</title>
<g id="a_edge3_Node000001_Node000004"><a xlink:title=" ">
<path fill="none" stroke="#63b8ff" d="M188.55,-397.61C164.51,-386.77 131.96,-372.09 108.42,-361.47"/>
<polygon fill="#63b8ff" stroke="#63b8ff" points="109.91,-358.3 99.35,-357.38 107.03,-364.68 109.91,-358.3"/>
</a>
</g>
</g>
<!-- Node15 -->
<g id="Node000015" class="node">
<title>Node15</title>
<g id="a_Node000015"><a xlink:href="_rx_frame_handler_api_8h.html" target="_top" xlink:title=" ">
<polygon fill="white" stroke="#666666" points="293.88,-362 148.12,-362 148.12,-331.5 293.88,-331.5 293.88,-362"/>
<text text-anchor="start" x="156.12" y="-348.5" font-family="Helvetica,sans-Serif" font-size="10.00">Driver/TPipe/RxFrameHandler</text>
<text text-anchor="middle" x="221" y="-337.25" font-family="Helvetica,sans-Serif" font-size="10.00">Api.h</text>
</a>
</g>
</g>
<!-- Node1&#45;&gt;Node15 -->
<g id="edge16_Node000001_Node000015" class="edge">
<title>Node1&#45;&gt;Node15</title>
<g id="a_edge16_Node000001_Node000015"><a xlink:title=" ">
<path fill="none" stroke="#63b8ff" d="M221,-397.61C221,-390.52 221,-381.79 221,-373.63"/>
<polygon fill="#63b8ff" stroke="#63b8ff" points="224.5,-373.84 221,-363.84 217.5,-373.84 224.5,-373.84"/>
</a>
</g>
</g>
<!-- Node3 -->
<g id="Node000003" class="node">
<title>Node3</title>
<g id="a_Node000003"><a xlink:title=" ">
<polygon fill="#e0e0e0" stroke="#999999" points="409.62,-74.5 334.38,-74.5 334.38,-55.25 409.62,-55.25 409.62,-74.5"/>
<text text-anchor="middle" x="372" y="-61" font-family="Helvetica,sans-Serif" font-size="10.00">colony_map.h</text>
</a>
</g>
</g>
<!-- Node2&#45;&gt;Node3 -->
<g id="edge2_Node000002_Node000003" class="edge">
<title>Node2&#45;&gt;Node3</title>
<g id="a_edge2_Node000002_Node000003"><a xlink:title=" ">
<path fill="none" stroke="#63b8ff" d="M347.05,-276.02C350.88,-243.76 364.15,-132.01 369.62,-85.96"/>
<polygon fill="#63b8ff" stroke="#63b8ff" points="373.08,-86.45 370.79,-76.1 366.13,-85.62 373.08,-86.45"/>
</a>
</g>
</g>
<!-- Node5 -->
<g id="Node000005" class="node">
<title>Node5</title>
<g id="a_Node000005"><a xlink:href="_avl_tree___8h.html" target="_top" xlink:title=" ">
<polygon fill="white" stroke="#666666" points="140,-295.5 16,-295.5 16,-276.25 140,-276.25 140,-295.5"/>
<text text-anchor="middle" x="78" y="-282" font-family="Helvetica,sans-Serif" font-size="10.00">Cpl/Container/AvlTree_.h</text>
</a>
</g>
</g>
<!-- Node4&#45;&gt;Node5 -->
<g id="edge4_Node000004_Node000005" class="edge">
<title>Node4&#45;&gt;Node5</title>
<g id="a_edge4_Node000004_Node000005"><a xlink:title=" ">
<path fill="none" stroke="#63b8ff" d="M78,-336.81C78,-329.03 78,-317.45 78,-307.41"/>
<polygon fill="#63b8ff" stroke="#63b8ff" points="81.5,-307.41 78,-297.41 74.5,-307.41 81.5,-307.41"/>
</a>
</g>
</g>
<!-- Node6 -->
<g id="Node000006" class="node">
<title>Node6</title>
<g id="a_Node000006"><a xlink:title=" ">
<polygon fill="#e0e0e0" stroke="#999999" points="82,-19.25 0,-19.25 0,0 82,0 82,-19.25"/>
<text text-anchor="middle" x="41" y="-5.75" font-family="Helvetica,sans-Serif" font-size="10.00">colony_config.h</text>
</a>
</g>
</g>
<!-- Node5&#45;&gt;Node6 -->
<g id="edge5_Node000005_Node000006" class="edge">
<title>Node5&#45;&gt;Node6</title>
<g id="a_edge5_Node000005_Node000006"><a xlink:title=" ">
<path fill="none" stroke="#63b8ff" d="M72.41,-275.98C61.63,-257.93 39,-215.41 39,-176.38 39,-176.38 39,-176.38 39,-119.12 39,-88.4 39.81,-52.79 40.4,-30.99"/>
<polygon fill="#63b8ff" stroke="#63b8ff" points="43.9,-31.23 40.68,-21.14 36.9,-31.04 43.9,-31.23"/>
</a>
</g>
</g>
<!-- Node7 -->
<g id="Node000007" class="node">
<title>Node7</title>
<g id="a_Node000007"><a xlink:href="_map_item_8h.html" target="_top" xlink:title=" ">
<polygon fill="white" stroke="#666666" points="212.62,-240.25 89.38,-240.25 89.38,-221 212.62,-221 212.62,-240.25"/>
<text text-anchor="middle" x="151" y="-226.75" font-family="Helvetica,sans-Serif" font-size="10.00">Cpl/Container/MapItem.h</text>
</a>
</g>
</g>
<!-- Node5&#45;&gt;Node7 -->
<g id="edge6_Node000005_Node000007" class="edge">
<title>Node5&#45;&gt;Node7</title>
<g id="a_edge6_Node000005_Node000007"><a xlink:title=" ">
<path fill="none" stroke="#63b8ff" d="M90.38,-275.84C101.15,-267.99 116.97,-256.45 129.75,-247.12"/>
<polygon fill="#63b8ff" stroke="#63b8ff" points="131.56,-250.14 137.58,-241.42 127.44,-244.48 131.56,-250.14"/>
</a>
</g>
</g>
<!-- Node8 -->
<g id="Node000008" class="node">
<title>Node8</title>
<g id="a_Node000008"><a xlink:href="_dict_item_8h.html" target="_top" xlink:title=" ">
<polygon fill="white" stroke="#666666" points="211.88,-185 90.12,-185 90.12,-165.75 211.88,-165.75 211.88,-185"/>
<text text-anchor="middle" x="151" y="-171.5" font-family="Helvetica,sans-Serif" font-size="10.00">Cpl/Container/DictItem.h</text>
</a>
</g>
</g>
<!-- Node7&#45;&gt;Node8 -->
<g id="edge7_Node000007_Node000008" class="edge">
<title>Node7&#45;&gt;Node8</title>
<g id="a_edge7_Node000007_Node000008"><a xlink:title=" ">
<path fill="none" stroke="#63b8ff" d="M151,-220.83C151,-214.32 151,-205.17 151,-196.87"/>
<polygon fill="#63b8ff" stroke="#63b8ff" points="154.5,-196.87 151,-186.87 147.5,-196.87 154.5,-196.87"/>
</a>
</g>
</g>
<!-- Node9 -->
<g id="Node000009" class="node">
<title>Node9</title>
<g id="a_Node000009"><a xlink:href="_item_8h.html" target="_top" xlink:title=" ">
<polygon fill="white" stroke="#666666" points="197.25,-129.75 92.75,-129.75 92.75,-110.5 197.25,-110.5 197.25,-129.75"/>
<text text-anchor="middle" x="145" y="-116.25" font-family="Helvetica,sans-Serif" font-size="10.00">Cpl/Container/Item.h</text>
</a>
</g>
</g>
<!-- Node8&#45;&gt;Node9 -->
<g id="edge8_Node000008_Node000009" class="edge">
<title>Node8&#45;&gt;Node9</title>
<g id="a_edge8_Node000008_Node000009"><a xlink:title=" ">
<path fill="none" stroke="#63b8ff" d="M150.01,-165.58C149.27,-158.99 148.22,-149.71 147.28,-141.32"/>
<polygon fill="#63b8ff" stroke="#63b8ff" points="150.78,-141.16 146.18,-131.61 143.82,-141.94 150.78,-141.16"/>
</a>
</g>
</g>
<!-- Node10 -->
<g id="Node000010" class="node">
<title>Node10</title>
<g id="a_Node000010"><a xlink:href="_key_8h.html" target="_top" xlink:title=" ">
<polygon fill="white" stroke="#666666" points="316.75,-129.75 215.25,-129.75 215.25,-110.5 316.75,-110.5 316.75,-129.75"/>
<text text-anchor="middle" x="266" y="-116.25" font-family="Helvetica,sans-Serif" font-size="10.00">Cpl/Container/Key.h</text>
</a>
</g>
</g>
<!-- Node8&#45;&gt;Node10 -->
<g id="edge9_Node000008_Node000010" class="edge">
<title>Node8&#45;&gt;Node10</title>
<g id="a_edge9_Node000008_Node000010"><a xlink:title=" ">
<path fill="none" stroke="#63b8ff" d="M170.51,-165.34C188.52,-157 215.52,-144.5 236.23,-134.91"/>
<polygon fill="#63b8ff" stroke="#63b8ff" points="237.42,-138.22 245.02,-130.84 234.48,-131.86 237.42,-138.22"/>
</a>
</g>
</g>
<!-- Node10&#45;&gt;Node3 -->
<g id="edge15_Node000010_Node000003" class="edge">
<title>Node10&#45;&gt;Node3</title>
<g id="a_edge15_Node000010_Node000003"><a xlink:title=" ">
<path fill="none" stroke="#63b8ff" d="M283.98,-110.09C300.35,-101.87 324.79,-89.59 343.76,-80.06"/>
<polygon fill="#63b8ff" stroke="#63b8ff" points="345.21,-83.25 352.58,-75.63 342.07,-76.99 345.21,-83.25"/>
</a>
</g>
</g>
<!-- Node11 -->
<g id="Node000011" class="node">
<title>Node11</title>
<g id="a_Node000011"><a xlink:href="_fatal_error_8h.html" target="_top" xlink:title=" ">
<polygon fill="white" stroke="#666666" points="185.38,-74.5 66.62,-74.5 66.62,-55.25 185.38,-55.25 185.38,-74.5"/>
<text text-anchor="middle" x="126" y="-61" font-family="Helvetica,sans-Serif" font-size="10.00">Cpl/System/FatalError.h</text>
</a>
</g>
</g>
<!-- Node10&#45;&gt;Node11 -->
<g id="edge10_Node000010_Node000011" class="edge">
<title>Node10&#45;&gt;Node11</title>
<g id="a_edge10_Node000010_Node000011"><a xlink:title=" ">
<path fill="none" stroke="#63b8ff" d="M242.25,-110.09C219.83,-101.56 185.94,-88.67 160.53,-79.01"/>
<polygon fill="#63b8ff" stroke="#63b8ff" points="161.87,-75.77 151.28,-75.49 159.38,-82.32 161.87,-75.77"/>
</a>
</g>
</g>
<!-- Node13 -->
<g id="Node000013" class="node">
<title>Node13</title>
<g id="a_Node000013"><a xlink:title=" ">
<polygon fill="#e0e0e0" stroke="#999999" points="250.75,-74.5 203.25,-74.5 203.25,-55.25 250.75,-55.25 250.75,-74.5"/>
<text text-anchor="middle" x="227" y="-61" font-family="Helvetica,sans-Serif" font-size="10.00">stdint.h</text>
</a>
</g>
</g>
<!-- Node10&#45;&gt;Node13 -->
<g id="edge13_Node000010_Node000013" class="edge">
<title>Node10&#45;&gt;Node13</title>
<g id="a_edge13_Node000010_Node000013"><a xlink:title=" ">
<path fill="none" stroke="#63b8ff" d="M259.56,-110.33C254.34,-103.21 246.81,-92.93 240.31,-84.05"/>
<polygon fill="#63b8ff" stroke="#63b8ff" points="243.21,-82.08 234.47,-76.08 237.56,-86.22 243.21,-82.08"/>
</a>
</g>
</g>
<!-- Node14 -->
<g id="Node000014" class="node">
<title>Node14</title>
<g id="a_Node000014"><a xlink:title=" ">
<polygon fill="#e0e0e0" stroke="#999999" points="316.75,-74.5 269.25,-74.5 269.25,-55.25 316.75,-55.25 316.75,-74.5"/>
<text text-anchor="middle" x="293" y="-61" font-family="Helvetica,sans-Serif" font-size="10.00">string.h</text>
</a>
</g>
</g>
<!-- Node10&#45;&gt;Node14 -->
<g id="edge14_Node000010_Node000014" class="edge">
<title>Node10&#45;&gt;Node14</title>
<g id="a_edge14_Node000010_Node000014"><a xlink:title=" ">
<path fill="none" stroke="#63b8ff" d="M270.46,-110.33C273.95,-103.44 278.95,-93.59 283.35,-84.91"/>
<polygon fill="#63b8ff" stroke="#63b8ff" points="286.36,-86.71 287.76,-76.21 280.12,-83.55 286.36,-86.71"/>
</a>
</g>
</g>
<!-- Node11&#45;&gt;Node6 -->
<g id="edge12_Node000011_Node000006" class="edge">
<title>Node11&#45;&gt;Node6</title>
<g id="a_edge12_Node000011_Node000006"><a xlink:title=" ">
<path fill="none" stroke="#63b8ff" d="M111.58,-54.84C98.88,-46.89 80.13,-35.14 65.14,-25.75"/>
<polygon fill="#63b8ff" stroke="#63b8ff" points="67.1,-22.85 56.77,-20.51 63.39,-28.78 67.1,-22.85"/>
</a>
</g>
</g>
<!-- Node12 -->
<g id="Node000012" class="node">
<title>Node12</title>
<g id="a_Node000012"><a xlink:title=" ">
<polygon fill="#e0e0e0" stroke="#999999" points="151.25,-19.25 100.75,-19.25 100.75,0 151.25,0 151.25,-19.25"/>
<text text-anchor="middle" x="126" y="-5.75" font-family="Helvetica,sans-Serif" font-size="10.00">stddef.h</text>
</a>
</g>
</g>
<!-- Node11&#45;&gt;Node12 -->
<g id="edge11_Node000011_Node000012" class="edge">
<title>Node11&#45;&gt;Node12</title>
<g id="a_edge11_Node000011_Node000012"><a xlink:title=" ">
<path fill="none" stroke="#63b8ff" d="M126,-55.08C126,-48.57 126,-39.42 126,-31.12"/>
<polygon fill="#63b8ff" stroke="#63b8ff" points="129.5,-31.12 126,-21.12 122.5,-31.12 129.5,-31.12"/>
</a>
</g>
</g>
<!-- Node15&#45;&gt;Node7 -->
<g id="edge17_Node000015_Node000007" class="edge">
<title>Node15&#45;&gt;Node7</title>
<g id="a_edge17_Node000015_Node000007"><a xlink:title=" ">
<path fill="none" stroke="#63b8ff" d="M212.13,-331.3C199.55,-310.78 176.5,-273.2 162.58,-250.5"/>
<polygon fill="#63b8ff" stroke="#63b8ff" points="165.57,-248.68 157.36,-241.99 159.6,-252.34 165.57,-248.68"/>
</a>
</g>
</g>
</g>
</svg>
