<?xml version="1.0" encoding="UTF-8" standalone="no"?>
<!DOCTYPE svg PUBLIC "-//W3C//DTD SVG 1.1//EN"
 "http://www.w3.org/Graphics/SVG/1.1/DTD/svg11.dtd">
<!-- Generated by graphviz version 9.0.0 (20230911.1827)
 -->
<!-- Title: Cpl/Text/String.h Pages: 1 -->
<svg width="351pt" height="193pt"
 viewBox="0.00 0.00 351.38 193.00" xmlns="http://www.w3.org/2000/svg" xmlns:xlink="http://www.w3.org/1999/xlink">
<g id="graph0" class="graph" transform="scale(1 1) rotate(0) translate(4 189)">
<title>Cpl/Text/String.h</title>
<!-- Node1 -->
<g id="Node000001" class="node">
<title>Node1</title>
<g id="a_Node000001"><a xlink:title=" ">
<polygon fill="#999999" stroke="#666666" points="243.62,-185 155.62,-185 155.62,-165.75 243.62,-165.75 243.62,-185"/>
<text text-anchor="middle" x="199.62" y="-171.5" font-family="Helvetica,sans-Serif" font-size="10.00">Cpl/Text/String.h</text>
</a>
</g>
</g>
<!-- Node2 -->
<g id="Node000002" class="node">
<title>Node2</title>
<g id="a_Node000002"><a xlink:title=" ">
<polygon fill="#e0e0e0" stroke="#999999" points="75.25,-74.5 0,-74.5 0,-55.25 75.25,-55.25 75.25,-74.5"/>
<text text-anchor="middle" x="37.62" y="-61" font-family="Helvetica,sans-Serif" font-size="10.00">colony_map.h</text>
</a>
</g>
</g>
<!-- Node1&#45;&gt;Node2 -->
<g id="edge1_Node000001_Node000002" class="edge">
<title>Node1&#45;&gt;Node2</title>
<g id="a_edge1_Node000001_Node000002"><a xlink:title=" ">
<path fill="none" stroke="#63b8ff" d="M167.68,-165.38C145.3,-158.09 115.43,-146.29 92.62,-129.75 75.28,-117.17 59.78,-98.08 49.69,-84.04"/>
<polygon fill="#63b8ff" stroke="#63b8ff" points="52.78,-82.36 44.21,-76.13 47.02,-86.34 52.78,-82.36"/>
</a>
</g>
</g>
<!-- Node3 -->
<g id="Node000003" class="node">
<title>Node3</title>
<g id="a_Node000003"><a xlink:href="_key_8h.html" target="_top" xlink:title=" ">
<polygon fill="white" stroke="#666666" points="203.38,-129.75 101.88,-129.75 101.88,-110.5 203.38,-110.5 203.38,-129.75"/>
<text text-anchor="middle" x="152.62" y="-116.25" font-family="Helvetica,sans-Serif" font-size="10.00">Cpl/Container/Key.h</text>
</a>
</g>
</g>
<!-- Node1&#45;&gt;Node3 -->
<g id="edge2_Node000001_Node000003" class="edge">
<title>Node1&#45;&gt;Node3</title>
<g id="a_edge2_Node000001_Node000003"><a xlink:title=" ">
<path fill="none" stroke="#63b8ff" d="M191.86,-165.58C185.44,-158.3 176.11,-147.73 168.16,-138.73"/>
<polygon fill="#63b8ff" stroke="#63b8ff" points="170.8,-136.43 161.56,-131.24 165.55,-141.06 170.8,-136.43"/>
</a>
</g>
</g>
<!-- Node9 -->
<g id="Node000009" class="node">
<title>Node9</title>
<g id="a_Node000009"><a xlink:title=" ">
<polygon fill="#e0e0e0" stroke="#999999" points="271.88,-129.75 221.38,-129.75 221.38,-110.5 271.88,-110.5 271.88,-129.75"/>
<text text-anchor="middle" x="246.62" y="-116.25" font-family="Helvetica,sans-Serif" font-size="10.00">stdarg.h</text>
</a>
</g>
</g>
<!-- Node1&#45;&gt;Node9 -->
<g id="edge9_Node000001_Node000009" class="edge">
<title>Node1&#45;&gt;Node9</title>
<g id="a_edge9_Node000001_Node000009"><a xlink:title=" ">
<path fill="none" stroke="#63b8ff" d="M207.39,-165.58C213.81,-158.3 223.14,-147.73 231.09,-138.73"/>
<polygon fill="#63b8ff" stroke="#63b8ff" points="233.7,-141.06 237.69,-131.24 228.45,-136.43 233.7,-141.06"/>
</a>
</g>
</g>
<!-- Node10 -->
<g id="Node000010" class="node">
<title>Node10</title>
<g id="a_Node000010"><a xlink:title=" ">
<polygon fill="#e0e0e0" stroke="#999999" points="343.38,-129.75 289.88,-129.75 289.88,-110.5 343.38,-110.5 343.38,-129.75"/>
<text text-anchor="middle" x="316.62" y="-116.25" font-family="Helvetica,sans-Serif" font-size="10.00">iostream</text>
</a>
</g>
</g>
<!-- Node1&#45;&gt;Node10 -->
<g id="edge10_Node000001_Node000010" class="edge">
<title>Node1&#45;&gt;Node10</title>
<g id="a_edge10_Node000001_Node000010"><a xlink:title=" ">
<path fill="none" stroke="#63b8ff" d="M219.47,-165.34C237.79,-157 265.27,-144.5 286.33,-134.91"/>
<polygon fill="#63b8ff" stroke="#63b8ff" points="287.65,-138.16 295.3,-130.83 284.75,-131.79 287.65,-138.16"/>
</a>
</g>
</g>
<!-- Node3&#45;&gt;Node2 -->
<g id="edge8_Node000003_Node000002" class="edge">
<title>Node3&#45;&gt;Node2</title>
<g id="a_edge8_Node000003_Node000002"><a xlink:title=" ">
<path fill="none" stroke="#63b8ff" d="M133.12,-110.09C115.11,-101.75 88.1,-89.25 67.4,-79.66"/>
<polygon fill="#63b8ff" stroke="#63b8ff" points="69.15,-76.61 58.6,-75.59 66.21,-82.97 69.15,-76.61"/>
</a>
</g>
</g>
<!-- Node4 -->
<g id="Node000004" class="node">
<title>Node4</title>
<g id="a_Node000004"><a xlink:href="_fatal_error_8h.html" target="_top" xlink:title=" ">
<polygon fill="white" stroke="#666666" points="212,-74.5 93.25,-74.5 93.25,-55.25 212,-55.25 212,-74.5"/>
<text text-anchor="middle" x="152.62" y="-61" font-family="Helvetica,sans-Serif" font-size="10.00">Cpl/System/FatalError.h</text>
</a>
</g>
</g>
<!-- Node3&#45;&gt;Node4 -->
<g id="edge3_Node000003_Node000004" class="edge">
<title>Node3&#45;&gt;Node4</title>
<g id="a_edge3_Node000003_Node000004"><a xlink:title=" ">
<path fill="none" stroke="#63b8ff" d="M152.62,-110.33C152.62,-103.82 152.62,-94.67 152.62,-86.37"/>
<polygon fill="#63b8ff" stroke="#63b8ff" points="156.13,-86.37 152.63,-76.37 149.13,-86.37 156.13,-86.37"/>
</a>
</g>
</g>
<!-- Node7 -->
<g id="Node000007" class="node">
<title>Node7</title>
<g id="a_Node000007"><a xlink:title=" ">
<polygon fill="#e0e0e0" stroke="#999999" points="277.38,-74.5 229.88,-74.5 229.88,-55.25 277.38,-55.25 277.38,-74.5"/>
<text text-anchor="middle" x="253.62" y="-61" font-family="Helvetica,sans-Serif" font-size="10.00">stdint.h</text>
</a>
</g>
</g>
<!-- Node3&#45;&gt;Node7 -->
<g id="edge6_Node000003_Node000007" class="edge">
<title>Node3&#45;&gt;Node7</title>
<g id="a_edge6_Node000003_Node000007"><a xlink:title=" ">
<path fill="none" stroke="#63b8ff" d="M169.76,-110.09C185.28,-101.91 208.43,-89.71 226.47,-80.19"/>
<polygon fill="#63b8ff" stroke="#63b8ff" points="227.86,-83.42 235.07,-75.66 224.59,-77.23 227.86,-83.42"/>
</a>
</g>
</g>
<!-- Node8 -->
<g id="Node000008" class="node">
<title>Node8</title>
<g id="a_Node000008"><a xlink:title=" ">
<polygon fill="#e0e0e0" stroke="#999999" points="343.38,-74.5 295.88,-74.5 295.88,-55.25 343.38,-55.25 343.38,-74.5"/>
<text text-anchor="middle" x="319.62" y="-61" font-family="Helvetica,sans-Serif" font-size="10.00">string.h</text>
</a>
</g>
</g>
<!-- Node3&#45;&gt;Node8 -->
<g id="edge7_Node000003_Node000008" class="edge">
<title>Node3&#45;&gt;Node8</title>
<g id="a_edge7_Node000003_Node000008"><a xlink:title=" ">
<path fill="none" stroke="#63b8ff" d="M180.95,-110.09C209.63,-100.95 254.02,-86.79 284.82,-76.97"/>
<polygon fill="#63b8ff" stroke="#63b8ff" points="285.59,-80.4 294.06,-74.03 283.47,-73.73 285.59,-80.4"/>
</a>
</g>
</g>
<!-- Node5 -->
<g id="Node000005" class="node">
<title>Node5</title>
<g id="a_Node000005"><a xlink:title=" ">
<polygon fill="#e0e0e0" stroke="#999999" points="135.88,-19.25 85.38,-19.25 85.38,0 135.88,0 135.88,-19.25"/>
<text text-anchor="middle" x="110.62" y="-5.75" font-family="Helvetica,sans-Serif" font-size="10.00">stddef.h</text>
</a>
</g>
</g>
<!-- Node4&#45;&gt;Node5 -->
<g id="edge4_Node000004_Node000005" class="edge">
<title>Node4&#45;&gt;Node5</title>
<g id="a_edge4_Node000004_Node000005"><a xlink:title=" ">
<path fill="none" stroke="#63b8ff" d="M145.69,-55.08C140.01,-47.88 131.79,-37.46 124.73,-28.51"/>
<polygon fill="#63b8ff" stroke="#63b8ff" points="127.59,-26.48 118.65,-20.8 122.09,-30.82 127.59,-26.48"/>
</a>
</g>
</g>
<!-- Node6 -->
<g id="Node000006" class="node">
<title>Node6</title>
<g id="a_Node000006"><a xlink:title=" ">
<polygon fill="#e0e0e0" stroke="#999999" points="235.62,-19.25 153.62,-19.25 153.62,0 235.62,0 235.62,-19.25"/>
<text text-anchor="middle" x="194.62" y="-5.75" font-family="Helvetica,sans-Serif" font-size="10.00">colony_config.h</text>
</a>
</g>
</g>
<!-- Node4&#45;&gt;Node6 -->
<g id="edge5_Node000004_Node000006" class="edge">
<title>Node4&#45;&gt;Node6</title>
<g id="a_edge5_Node000004_Node000006"><a xlink:title=" ">
<path fill="none" stroke="#63b8ff" d="M159.56,-55.08C165.24,-47.88 173.46,-37.46 180.52,-28.51"/>
<polygon fill="#63b8ff" stroke="#63b8ff" points="183.16,-30.82 186.6,-20.8 177.66,-26.48 183.16,-30.82"/>
</a>
</g>
</g>
</g>
</svg>
