<?xml version="1.0" encoding="UTF-8" standalone="no"?>
<!DOCTYPE svg PUBLIC "-//W3C//DTD SVG 1.1//EN"
 "http://www.w3.org/Graphics/SVG/1.1/DTD/svg11.dtd">
<!-- Generated by graphviz version 2.43.0 (0)
 -->
<!-- Title: Cpl/System/Thread.h Pages: 1 -->
<svg width="3572pt" height="390pt"
 viewBox="0.00 0.00 3571.50 390.00" xmlns="http://www.w3.org/2000/svg" xmlns:xlink="http://www.w3.org/1999/xlink">
<g id="graph0" class="graph" transform="scale(1 1) rotate(0) translate(4 386)">
<title>Cpl/System/Thread.h</title>
<!-- Node1 -->
<g id="Node000001" class="node">
<title>Node1</title>
<g id="a_Node000001"><a xlink:title=" ">
<polygon fill="#999999" stroke="#666666" points="2118,-382 2000,-382 2000,-363 2118,-363 2118,-382"/>
<text text-anchor="middle" x="2059" y="-370" font-family="Helvetica,sans-Serif" font-size="10.00">Cpl/System/Thread.h</text>
</a>
</g>
</g>
<!-- Node2 -->
<g id="Node000002" class="node">
<title>Node2</title>
<g id="a_Node000002"><a xlink:href="_dm_2_event_loop_8h.html" target="_top" xlink:title=" ">
<polygon fill="white" stroke="#666666" points="1368,-321.5 1252,-321.5 1252,-302.5 1368,-302.5 1368,-321.5"/>
<text text-anchor="middle" x="1310" y="-309.5" font-family="Helvetica,sans-Serif" font-size="10.00">Cpl/Dm/EventLoop.h</text>
</a>
</g>
</g>
<!-- Node1&#45;&gt;Node2 -->
<g id="edge1_Node000001_Node000002" class="edge">
<title>Node1&#45;&gt;Node2</title>
<g id="a_edge1_Node000001_Node000002"><a xlink:title=" ">
<path fill="none" stroke="#63b8ff" d="M1989.8,-370.2C1866.23,-367.16 1599.7,-357.38 1377,-327 1366.99,-325.63 1356.24,-323.63 1346.35,-321.57"/>
<polygon fill="#63b8ff" stroke="#63b8ff" points="1989.8,-373.7 1999.88,-370.44 1989.97,-366.7 1989.8,-373.7"/>
</a>
</g>
</g>
<!-- Node83 -->
<g id="Node000083" class="node">
<title>Node83</title>
<g id="a_Node000083"><a xlink:href="_stream_driver_8h.html" target="_top" xlink:title=" ">
<polygon fill="white" stroke="#666666" points="1512,-327 1386,-327 1386,-297 1512,-297 1512,-327"/>
<text text-anchor="start" x="1394" y="-315" font-family="Helvetica,sans-Serif" font-size="10.00">Cpl/Io/Serial/ST/M32F4</text>
<text text-anchor="middle" x="1449" y="-304" font-family="Helvetica,sans-Serif" font-size="10.00">/StreamDriver.h</text>
</a>
</g>
</g>
<!-- Node1&#45;&gt;Node83 -->
<g id="edge37_Node000001_Node000083" class="edge">
<title>Node1&#45;&gt;Node83</title>
<g id="a_edge37_Node000001_Node000083"><a xlink:title=" ">
<path fill="none" stroke="#63b8ff" d="M1989.62,-368.2C1886.88,-362.75 1688.4,-350.13 1521,-327 1518.1,-326.6 1515.14,-326.16 1512.15,-325.69"/>
<polygon fill="#63b8ff" stroke="#63b8ff" points="1989.69,-371.7 1999.86,-368.73 1990.05,-364.71 1989.69,-371.7"/>
</a>
</g>
</g>
<!-- Node85 -->
<g id="Node000085" class="node">
<title>Node85</title>
<g id="a_Node000085"><a xlink:href="_listener___8h.html" target="_top" xlink:title=" ">
<polygon fill="white" stroke="#666666" points="1666,-321.5 1530,-321.5 1530,-302.5 1666,-302.5 1666,-321.5"/>
<text text-anchor="middle" x="1598" y="-309.5" font-family="Helvetica,sans-Serif" font-size="10.00">Cpl/Io/Socket/Listener_.h</text>
</a>
</g>
</g>
<!-- Node1&#45;&gt;Node85 -->
<g id="edge39_Node000001_Node000085" class="edge">
<title>Node1&#45;&gt;Node85</title>
<g id="a_edge39_Node000001_Node000085"><a xlink:title=" ">
<path fill="none" stroke="#63b8ff" d="M1989.91,-364.85C1912.9,-357.12 1784.75,-343.32 1675,-327 1664.38,-325.42 1652.99,-323.48 1642.3,-321.56"/>
<polygon fill="#63b8ff" stroke="#63b8ff" points="1989.67,-368.34 1999.97,-365.85 1990.36,-361.38 1989.67,-368.34"/>
</a>
</g>
</g>
<!-- Node88 -->
<g id="Node000088" class="node">
<title>Node88</title>
<g id="a_Node000088"><a xlink:href="_bare_metal_2_thread_8h.html" target="_top" xlink:title=" ">
<polygon fill="white" stroke="#666666" points="1809.5,-327 1684.5,-327 1684.5,-297 1809.5,-297 1809.5,-327"/>
<text text-anchor="start" x="1692.5" y="-315" font-family="Helvetica,sans-Serif" font-size="10.00">Cpl/System/BareMetal</text>
<text text-anchor="middle" x="1747" y="-304" font-family="Helvetica,sans-Serif" font-size="10.00">/Thread.h</text>
</a>
</g>
</g>
<!-- Node1&#45;&gt;Node88 -->
<g id="edge42_Node000001_Node000088" class="edge">
<title>Node1&#45;&gt;Node88</title>
<g id="a_edge42_Node000001_Node000088"><a xlink:title=" ">
<path fill="none" stroke="#63b8ff" d="M2002.05,-361.09C1953.41,-352.15 1881.58,-338.89 1819,-327 1816,-326.43 1812.93,-325.84 1809.82,-325.25"/>
<polygon fill="#63b8ff" stroke="#63b8ff" points="2001.6,-364.56 2012.07,-362.92 2002.87,-357.68 2001.6,-364.56"/>
</a>
</g>
</g>
<!-- Node89 -->
<g id="Node000089" class="node">
<title>Node89</title>
<g id="a_Node000089"><a xlink:href="_cpp11_2_thread_8h.html" target="_top" xlink:title=" ">
<polygon fill="white" stroke="#666666" points="1980,-321.5 1828,-321.5 1828,-302.5 1980,-302.5 1980,-321.5"/>
<text text-anchor="middle" x="1904" y="-309.5" font-family="Helvetica,sans-Serif" font-size="10.00">Cpl/System/Cpp11/Thread.h</text>
</a>
</g>
</g>
<!-- Node1&#45;&gt;Node89 -->
<g id="edge43_Node000001_Node000089" class="edge">
<title>Node1&#45;&gt;Node89</title>
<g id="a_edge43_Node000001_Node000089"><a xlink:title=" ">
<path fill="none" stroke="#63b8ff" d="M2026.88,-359.38C1996.92,-348.07 1952.98,-331.49 1926.57,-321.52"/>
<polygon fill="#63b8ff" stroke="#63b8ff" points="2025.87,-362.74 2036.46,-362.99 2028.34,-356.19 2025.87,-362.74"/>
</a>
</g>
</g>
<!-- Node90 -->
<g id="Node000090" class="node">
<title>Node90</title>
<g id="a_Node000090"><a xlink:href="_free_r_t_o_s_2_thread_8h.html" target="_top" xlink:title=" ">
<polygon fill="white" stroke="#666666" points="2120,-327 1998,-327 1998,-297 2120,-297 2120,-327"/>
<text text-anchor="start" x="2006" y="-315" font-family="Helvetica,sans-Serif" font-size="10.00">Cpl/System/FreeRTOS</text>
<text text-anchor="middle" x="2059" y="-304" font-family="Helvetica,sans-Serif" font-size="10.00">/Thread.h</text>
</a>
</g>
</g>
<!-- Node1&#45;&gt;Node90 -->
<g id="edge44_Node000001_Node000090" class="edge">
<title>Node1&#45;&gt;Node90</title>
<g id="a_edge44_Node000001_Node000090"><a xlink:title=" ">
<path fill="none" stroke="#63b8ff" d="M2059,-352.65C2059,-344.36 2059,-334.78 2059,-327.11"/>
<polygon fill="#63b8ff" stroke="#63b8ff" points="2055.5,-352.87 2059,-362.87 2062.5,-352.87 2055.5,-352.87"/>
</a>
</g>
</g>
<!-- Node91 -->
<g id="Node000091" class="node">
<title>Node91</title>
<g id="a_Node000091"><a xlink:href="_posix_2_thread_8h.html" target="_top" xlink:title=" ">
<polygon fill="white" stroke="#666666" points="2285.5,-321.5 2138.5,-321.5 2138.5,-302.5 2285.5,-302.5 2285.5,-321.5"/>
<text text-anchor="middle" x="2212" y="-309.5" font-family="Helvetica,sans-Serif" font-size="10.00">Cpl/System/Posix/Thread.h</text>
</a>
</g>
</g>
<!-- Node1&#45;&gt;Node91 -->
<g id="edge45_Node000001_Node000091" class="edge">
<title>Node1&#45;&gt;Node91</title>
<g id="a_edge45_Node000001_Node000091"><a xlink:title=" ">
<path fill="none" stroke="#63b8ff" d="M2090.7,-359.38C2120.28,-348.07 2163.65,-331.49 2189.73,-321.52"/>
<polygon fill="#63b8ff" stroke="#63b8ff" points="2089.34,-356.15 2081.25,-362.99 2091.84,-362.69 2089.34,-356.15"/>
</a>
</g>
</g>
<!-- Node92 -->
<g id="Node000092" class="node">
<title>Node92</title>
<g id="a_Node000092"><a xlink:href="_system_2_trace_8h.html" target="_top" xlink:title=" ">
<polygon fill="white" stroke="#666666" points="539,-321.5 429,-321.5 429,-302.5 539,-302.5 539,-321.5"/>
<text text-anchor="middle" x="484" y="-309.5" font-family="Helvetica,sans-Serif" font-size="10.00">Cpl/System/Trace.h</text>
</a>
</g>
</g>
<!-- Node1&#45;&gt;Node92 -->
<g id="edge46_Node000001_Node000092" class="edge">
<title>Node1&#45;&gt;Node92</title>
<g id="a_edge46_Node000001_Node000092"><a xlink:title=" ">
<path fill="none" stroke="#63b8ff" d="M1989.39,-368.91C1724.01,-359.06 778.71,-323.95 539.38,-315.06"/>
<polygon fill="#63b8ff" stroke="#63b8ff" points="1989.53,-372.42 1999.66,-369.3 1989.79,-365.43 1989.53,-372.42"/>
</a>
</g>
</g>
<!-- Node99 -->
<g id="Node000099" class="node">
<title>Node99</title>
<g id="a_Node000099"><a xlink:href="_win32_2_thread_8h.html" target="_top" xlink:title=" ">
<polygon fill="white" stroke="#666666" points="2456,-321.5 2304,-321.5 2304,-302.5 2456,-302.5 2456,-321.5"/>
<text text-anchor="middle" x="2380" y="-309.5" font-family="Helvetica,sans-Serif" font-size="10.00">Cpl/System/Win32/Thread.h</text>
</a>
</g>
</g>
<!-- Node1&#45;&gt;Node99 -->
<g id="edge53_Node000001_Node000099" class="edge">
<title>Node1&#45;&gt;Node99</title>
<g id="a_edge53_Node000001_Node000099"><a xlink:title=" ">
<path fill="none" stroke="#63b8ff" d="M2115.67,-361.17C2177.57,-349.89 2275.59,-332.03 2333.27,-321.52"/>
<polygon fill="#63b8ff" stroke="#63b8ff" points="2114.89,-357.76 2105.68,-362.99 2116.14,-364.64 2114.89,-357.76"/>
</a>
</g>
</g>
<!-- Node100 -->
<g id="Node000100" class="node">
<title>Node100</title>
<g id="a_Node000100"><a xlink:href="_threads_8h.html" target="_top" xlink:title=" ">
<polygon fill="white" stroke="#666666" points="2616,-321.5 2474,-321.5 2474,-302.5 2616,-302.5 2616,-321.5"/>
<text text-anchor="middle" x="2545" y="-309.5" font-family="Helvetica,sans-Serif" font-size="10.00">Cpl/TShell/Cmd/Threads.h</text>
</a>
</g>
</g>
<!-- Node1&#45;&gt;Node100 -->
<g id="edge54_Node000001_Node000100" class="edge">
<title>Node1&#45;&gt;Node100</title>
<g id="a_edge54_Node000001_Node000100"><a xlink:title=" ">
<path fill="none" stroke="#63b8ff" d="M2128.39,-365.26C2209.36,-357.66 2347.18,-343.75 2465,-327 2476.17,-325.41 2488.17,-323.45 2499.39,-321.5"/>
<polygon fill="#63b8ff" stroke="#63b8ff" points="2127.95,-361.79 2118.32,-366.2 2128.6,-368.75 2127.95,-361.79"/>
</a>
</g>
</g>
<!-- Node103 -->
<g id="Node000103" class="node">
<title>Node103</title>
<g id="a_Node000103"><a xlink:href="_restartable_8h.html" target="_top" xlink:title=" ">
<polygon fill="white" stroke="#666666" points="2815,-255.5 2681,-255.5 2681,-236.5 2815,-236.5 2815,-255.5"/>
<text text-anchor="middle" x="2748" y="-243.5" font-family="Helvetica,sans-Serif" font-size="10.00">Cpl/TShell/Restartable.h</text>
</a>
</g>
</g>
<!-- Node1&#45;&gt;Node103 -->
<g id="edge57_Node000001_Node000103" class="edge">
<title>Node1&#45;&gt;Node103</title>
<g id="a_edge57_Node000001_Node000103"><a xlink:title=" ">
<path fill="none" stroke="#63b8ff" d="M2128.1,-372.14C2293.7,-372.97 2702.63,-370.54 2745,-327 2763.61,-307.87 2755.99,-272.44 2751.02,-255.91"/>
<polygon fill="#63b8ff" stroke="#63b8ff" points="2128.05,-368.64 2118.03,-372.09 2128.01,-375.64 2128.05,-368.64"/>
</a>
</g>
</g>
<!-- Node104 -->
<g id="Node000104" class="node">
<title>Node104</title>
<g id="a_Node000104"><a xlink:href="_socket_8h.html" target="_top" xlink:title=" ">
<polygon fill="white" stroke="#666666" points="2902,-321.5 2792,-321.5 2792,-302.5 2902,-302.5 2902,-321.5"/>
<text text-anchor="middle" x="2847" y="-309.5" font-family="Helvetica,sans-Serif" font-size="10.00">Cpl/TShell/Socket.h</text>
</a>
</g>
</g>
<!-- Node1&#45;&gt;Node104 -->
<g id="edge58_Node000001_Node000104" class="edge">
<title>Node1&#45;&gt;Node104</title>
<g id="a_edge58_Node000001_Node000104"><a xlink:title=" ">
<path fill="none" stroke="#63b8ff" d="M2128.56,-370.39C2257.28,-367.62 2541.08,-358.21 2778,-327 2788.42,-325.63 2799.63,-323.6 2809.92,-321.51"/>
<polygon fill="#63b8ff" stroke="#63b8ff" points="2128.38,-366.89 2118.45,-370.6 2128.52,-373.89 2128.38,-366.89"/>
</a>
</g>
</g>
<!-- Node105 -->
<g id="Node000105" class="node">
<title>Node105</title>
<g id="a_Node000105"><a xlink:href="_stdio_8h.html" target="_top" xlink:title=" ">
<polygon fill="white" stroke="#666666" points="2736,-321.5 2634,-321.5 2634,-302.5 2736,-302.5 2736,-321.5"/>
<text text-anchor="middle" x="2685" y="-309.5" font-family="Helvetica,sans-Serif" font-size="10.00">Cpl/TShell/Stdio.h</text>
</a>
</g>
</g>
<!-- Node1&#45;&gt;Node105 -->
<g id="edge59_Node000001_Node000105" class="edge">
<title>Node1&#45;&gt;Node105</title>
<g id="a_edge59_Node000001_Node000105"><a xlink:title=" ">
<path fill="none" stroke="#63b8ff" d="M2128.03,-369.43C2235.02,-365.46 2447.13,-354.58 2625,-327 2633.98,-325.61 2643.62,-323.6 2652.48,-321.53"/>
<polygon fill="#63b8ff" stroke="#63b8ff" points="2127.87,-365.93 2118,-369.79 2128.12,-372.92 2127.87,-365.93"/>
</a>
</g>
</g>
<!-- Node3 -->
<g id="Node000003" class="node">
<title>Node3</title>
<g id="a_Node000003"><a xlink:href="_dm_2_mailbox_server_8h.html" target="_top" xlink:title=" ">
<polygon fill="white" stroke="#666666" points="1952,-195 1818,-195 1818,-176 1952,-176 1952,-195"/>
<text text-anchor="middle" x="1885" y="-183" font-family="Helvetica,sans-Serif" font-size="10.00">Cpl/Dm/MailboxServer.h</text>
</a>
</g>
</g>
<!-- Node2&#45;&gt;Node3 -->
<g id="edge2_Node000002_Node000003" class="edge">
<title>Node2&#45;&gt;Node3</title>
<g id="a_edge2_Node000002_Node000003"><a xlink:title=" ">
<path fill="none" stroke="#63b8ff" d="M1319.73,-293.45C1331.35,-274.41 1352.68,-244.88 1380,-231 1454.84,-192.99 1698.53,-186.92 1817.89,-186.29"/>
<polygon fill="#63b8ff" stroke="#63b8ff" points="1316.58,-291.91 1314.56,-302.31 1322.63,-295.44 1316.58,-291.91"/>
</a>
</g>
</g>
<!-- Node48 -->
<g id="Node000048" class="node">
<title>Node48</title>
<g id="a_Node000048"><a xlink:href="_subscriber_8h.html" target="_top" xlink:title=" ">
<polygon fill="white" stroke="#666666" points="1332.5,-255.5 1217.5,-255.5 1217.5,-236.5 1332.5,-236.5 1332.5,-255.5"/>
<text text-anchor="middle" x="1275" y="-243.5" font-family="Helvetica,sans-Serif" font-size="10.00">Cpl/Dm/Subscriber.h</text>
</a>
</g>
</g>
<!-- Node2&#45;&gt;Node48 -->
<g id="edge27_Node000002_Node000048" class="edge">
<title>Node2&#45;&gt;Node48</title>
<g id="a_edge27_Node000002_Node000048"><a xlink:title=" ">
<path fill="none" stroke="#63b8ff" d="M1300.46,-293.55C1293.79,-281.36 1285.17,-265.61 1279.87,-255.91"/>
<polygon fill="#63b8ff" stroke="#63b8ff" points="1297.41,-295.27 1305.28,-302.37 1303.55,-291.92 1297.41,-295.27"/>
</a>
</g>
</g>
<!-- Node4 -->
<g id="Node000004" class="node">
<title>Node4</title>
<g id="a_Node000004"><a xlink:href="_summary_8h.html" target="_top" xlink:title=" ">
<polygon fill="white" stroke="#666666" points="1538,-134.5 1410,-134.5 1410,-115.5 1538,-115.5 1538,-134.5"/>
<text text-anchor="middle" x="1474" y="-122.5" font-family="Helvetica,sans-Serif" font-size="10.00">Ajax/Alerts/Summary.h</text>
</a>
</g>
</g>
<!-- Node3&#45;&gt;Node4 -->
<g id="edge3_Node000003_Node000004" class="edge">
<title>Node3&#45;&gt;Node4</title>
<g id="a_edge3_Node000003_Node000004"><a xlink:title=" ">
<path fill="none" stroke="#63b8ff" d="M1807.52,-175.61C1738.89,-167.42 1636.06,-154.39 1547,-140 1537.06,-138.39 1526.4,-136.47 1516.39,-134.56"/>
<polygon fill="#63b8ff" stroke="#63b8ff" points="1807.47,-179.13 1817.81,-176.83 1808.3,-172.18 1807.47,-179.13"/>
</a>
</g>
</g>
<!-- Node5 -->
<g id="Node000005" class="node">
<title>Node5</title>
<g id="a_Node000005"><a xlink:href="_ajax_2_heating_2_io_2_api_8h.html" target="_top" xlink:title=" ">
<polygon fill="white" stroke="#666666" points="1506.5,-74 1387.5,-74 1387.5,-55 1506.5,-55 1506.5,-74"/>
<text text-anchor="middle" x="1447" y="-62" font-family="Helvetica,sans-Serif" font-size="10.00">Ajax/Heating/Io/Api.h</text>
</a>
</g>
</g>
<!-- Node3&#45;&gt;Node5 -->
<g id="edge4_Node000003_Node000005" class="edge">
<title>Node3&#45;&gt;Node5</title>
<g id="a_edge4_Node000003_Node000005"><a xlink:title=" ">
<path fill="none" stroke="#63b8ff" d="M1837.67,-173.53C1806.33,-165.65 1764.6,-153.98 1729,-140 1701.62,-129.25 1697.79,-119.63 1670,-110 1616.29,-91.38 1552.44,-79.63 1506.86,-72.91"/>
<polygon fill="#63b8ff" stroke="#63b8ff" points="1836.91,-176.94 1847.46,-175.95 1838.59,-170.15 1836.91,-176.94"/>
</a>
</g>
</g>
<!-- Node6 -->
<g id="Node000006" class="node">
<title>Node6</title>
<g id="a_Node000006"><a xlink:href="_ajax_2_heating_2_supervisor_2_api_8h.html" target="_top" xlink:title=" ">
<polygon fill="#fff0f0" stroke="red" points="1392,-140 1258,-140 1258,-110 1392,-110 1392,-140"/>
<text text-anchor="start" x="1266" y="-128" font-family="Helvetica,sans-Serif" font-size="10.00">Ajax/Heating/Supervisor</text>
<text text-anchor="middle" x="1325" y="-117" font-family="Helvetica,sans-Serif" font-size="10.00">/Api.h</text>
</a>
</g>
</g>
<!-- Node3&#45;&gt;Node6 -->
<g id="edge5_Node000003_Node000006" class="edge">
<title>Node3&#45;&gt;Node6</title>
<g id="a_edge5_Node000003_Node000006"><a xlink:title=" ">
<path fill="none" stroke="#63b8ff" d="M1807.67,-179.56C1711.91,-172.94 1543.96,-159.7 1401,-140 1398.08,-139.6 1395.09,-139.16 1392.08,-138.7"/>
<polygon fill="#63b8ff" stroke="#63b8ff" points="1807.62,-183.06 1817.84,-180.25 1808.1,-176.08 1807.62,-183.06"/>
</a>
</g>
</g>
<!-- Node8 -->
<g id="Node000008" class="node">
<title>Node8</title>
<g id="a_Node000008"><a xlink:href="appmain_8h.html" target="_top" xlink:title="This file defines the hardware/platform independent start&#45;up interface(s) for the Ajax application.">
<polygon fill="white" stroke="#666666" points="3240,-134.5 3120,-134.5 3120,-115.5 3240,-115.5 3240,-134.5"/>
<text text-anchor="middle" x="3180" y="-122.5" font-family="Helvetica,sans-Serif" font-size="10.00">Ajax/Main/appmain.h</text>
</a>
</g>
</g>
<!-- Node3&#45;&gt;Node8 -->
<g id="edge7_Node000003_Node000008" class="edge">
<title>Node3&#45;&gt;Node8</title>
<g id="a_edge7_Node000003_Node000008"><a xlink:title=" ">
<path fill="none" stroke="#63b8ff" d="M1962.23,-183.35C2194.94,-179.64 2887.1,-166.6 3111,-140 3121.68,-138.73 3133.17,-136.68 3143.65,-134.54"/>
<polygon fill="#63b8ff" stroke="#63b8ff" points="1962.1,-179.86 1952.16,-183.51 1962.21,-186.85 1962.1,-179.86"/>
</a>
</g>
</g>
<!-- Node9 -->
<g id="Node000009" class="node">
<title>Node9</title>
<g id="a_Node000009"><a xlink:href="_ajax_2_metrics_2_api_8h.html" target="_top" xlink:title=" ">
<polygon fill="white" stroke="#666666" points="1661.5,-134.5 1556.5,-134.5 1556.5,-115.5 1661.5,-115.5 1661.5,-134.5"/>
<text text-anchor="middle" x="1609" y="-122.5" font-family="Helvetica,sans-Serif" font-size="10.00">Ajax/Metrics/Api.h</text>
</a>
</g>
</g>
<!-- Node3&#45;&gt;Node9 -->
<g id="edge8_Node000003_Node000009" class="edge">
<title>Node3&#45;&gt;Node9</title>
<g id="a_edge8_Node000003_Node000009"><a xlink:title=" ">
<path fill="none" stroke="#63b8ff" d="M1834.95,-173.89C1781.66,-162.6 1698.36,-144.94 1649.18,-134.52"/>
<polygon fill="#63b8ff" stroke="#63b8ff" points="1834.36,-177.34 1844.87,-175.99 1835.81,-170.5 1834.36,-177.34"/>
</a>
</g>
</g>
<!-- Node10 -->
<g id="Node000010" class="node">
<title>Node10</title>
<g id="a_Node000010"><a xlink:href="_ajax_2_screen_mgr_2_api_8h.html" target="_top" xlink:title=" ">
<polygon fill="#fff0f0" stroke="red" points="817.5,-134.5 696.5,-134.5 696.5,-115.5 817.5,-115.5 817.5,-134.5"/>
<text text-anchor="middle" x="757" y="-122.5" font-family="Helvetica,sans-Serif" font-size="10.00">Ajax/ScreenMgr/Api.h</text>
</a>
</g>
</g>
<!-- Node3&#45;&gt;Node10 -->
<g id="edge9_Node000003_Node000010" class="edge">
<title>Node3&#45;&gt;Node10</title>
<g id="a_edge9_Node000003_Node000010"><a xlink:title=" ">
<path fill="none" stroke="#63b8ff" d="M1807.66,-182.81C1597.14,-177.95 1016.91,-162.84 827,-140 816.29,-138.71 804.78,-136.68 794.25,-134.56"/>
<polygon fill="#63b8ff" stroke="#63b8ff" points="1807.63,-186.31 1817.71,-183.04 1807.79,-179.31 1807.63,-186.31"/>
</a>
</g>
</g>
<!-- Node15 -->
<g id="Node000015" class="node">
<title>Node15</title>
<g id="a_Node000015"><a xlink:href="_logical_buttons_8h.html" target="_top" xlink:title=" ">
<polygon fill="white" stroke="#666666" points="3394,-134.5 3258,-134.5 3258,-115.5 3394,-115.5 3394,-134.5"/>
<text text-anchor="middle" x="3326" y="-122.5" font-family="Helvetica,sans-Serif" font-size="10.00">Ajax/Ui/LogicalButtons.h</text>
</a>
</g>
</g>
<!-- Node3&#45;&gt;Node15 -->
<g id="edge10_Node000003_Node000015" class="edge">
<title>Node3&#45;&gt;Node15</title>
<g id="a_edge10_Node000003_Node000015"><a xlink:title=" ">
<path fill="none" stroke="#63b8ff" d="M1962.19,-183.48C2211.99,-179.94 2996.73,-166.9 3249,-140 3260.89,-138.73 3273.7,-136.68 3285.4,-134.54"/>
<polygon fill="#63b8ff" stroke="#63b8ff" points="1962.06,-179.98 1952.11,-183.62 1962.16,-186.98 1962.06,-179.98"/>
</a>
</g>
</g>
<!-- Node16 -->
<g id="Node000016" class="node">
<title>Node16</title>
<g id="a_Node000016"><a xlink:href="_ajax_2_ui_2_status_indicator_2_api_8h.html" target="_top" xlink:title=" ">
<polygon fill="white" stroke="#666666" points="964,-140 836,-140 836,-110 964,-110 964,-140"/>
<text text-anchor="start" x="844" y="-128" font-family="Helvetica,sans-Serif" font-size="10.00">Ajax/Ui/StatusIndicator</text>
<text text-anchor="middle" x="900" y="-117" font-family="Helvetica,sans-Serif" font-size="10.00">/Api.h</text>
</a>
</g>
</g>
<!-- Node3&#45;&gt;Node16 -->
<g id="edge11_Node000003_Node000016" class="edge">
<title>Node3&#45;&gt;Node16</title>
<g id="a_edge11_Node000003_Node000016"><a xlink:title=" ">
<path fill="none" stroke="#63b8ff" d="M1807.61,-182.13C1617.92,-176.08 1133.64,-159.23 973,-140 970.05,-139.65 967.05,-139.24 964.01,-138.8"/>
<polygon fill="#63b8ff" stroke="#63b8ff" points="1807.67,-185.63 1817.77,-182.45 1807.89,-178.63 1807.67,-185.63"/>
</a>
</g>
</g>
<!-- Node17 -->
<g id="Node000017" class="node">
<title>Node17</title>
<g id="a_Node000017"><a xlink:href="_dm_2_periodic_scheduler_8h.html" target="_top" xlink:title=" ">
<polygon fill="white" stroke="#666666" points="3563.5,-134.5 3412.5,-134.5 3412.5,-115.5 3563.5,-115.5 3563.5,-134.5"/>
<text text-anchor="middle" x="3488" y="-122.5" font-family="Helvetica,sans-Serif" font-size="10.00">Cpl/Dm/PeriodicScheduler.h</text>
</a>
</g>
</g>
<!-- Node3&#45;&gt;Node17 -->
<g id="edge12_Node000003_Node000017" class="edge">
<title>Node3&#45;&gt;Node17</title>
<g id="a_edge12_Node000003_Node000017"><a xlink:title=" ">
<path fill="none" stroke="#63b8ff" d="M1962.1,-183.61C2229.91,-180.29 3118.96,-167.43 3403,-140 3416.1,-138.73 3430.24,-136.69 3443.15,-134.54"/>
<polygon fill="#63b8ff" stroke="#63b8ff" points="1962.04,-180.11 1952.08,-183.73 1962.12,-187.11 1962.04,-180.11"/>
</a>
</g>
</g>
<!-- Node18 -->
<g id="Node000018" class="node">
<title>Node18</title>
<g id="a_Node000018"><a xlink:href="_log_sink_8h.html" target="_top" xlink:title=" ">
<polygon fill="white" stroke="#666666" points="1106,-134.5 982,-134.5 982,-115.5 1106,-115.5 1106,-134.5"/>
<text text-anchor="middle" x="1044" y="-122.5" font-family="Helvetica,sans-Serif" font-size="10.00">Cpl/Logging/LogSink.h</text>
</a>
</g>
</g>
<!-- Node3&#45;&gt;Node18 -->
<g id="edge13_Node000003_Node000018" class="edge">
<title>Node3&#45;&gt;Node18</title>
<g id="a_edge13_Node000003_Node000018"><a xlink:title=" ">
<path fill="none" stroke="#63b8ff" d="M1807.63,-183.53C1668.5,-181 1367.06,-171.98 1115,-140 1104.28,-138.64 1092.75,-136.61 1082.17,-134.52"/>
<polygon fill="#63b8ff" stroke="#63b8ff" points="1807.71,-187.03 1817.77,-183.71 1807.83,-180.03 1807.71,-187.03"/>
</a>
</g>
</g>
<!-- Node19 -->
<g id="Node000019" class="node">
<title>Node19</title>
<g id="a_Node000019"><a xlink:href="_manager_8h.html" target="_top" xlink:title=" ">
<polygon fill="white" stroke="#666666" points="1873.5,-134.5 1756.5,-134.5 1756.5,-115.5 1873.5,-115.5 1873.5,-134.5"/>
<text text-anchor="middle" x="1815" y="-122.5" font-family="Helvetica,sans-Serif" font-size="10.00">Cpl/MApp/Manager.h</text>
</a>
</g>
</g>
<!-- Node3&#45;&gt;Node19 -->
<g id="edge14_Node000003_Node000019" class="edge">
<title>Node3&#45;&gt;Node19</title>
<g id="a_edge14_Node000003_Node000019"><a xlink:title=" ">
<path fill="none" stroke="#63b8ff" d="M1866.72,-169.22C1853.55,-158.21 1836.24,-143.75 1825.37,-134.67"/>
<polygon fill="#63b8ff" stroke="#63b8ff" points="1864.75,-172.14 1874.67,-175.87 1869.24,-166.77 1864.75,-172.14"/>
</a>
</g>
</g>
<!-- Node20 -->
<g id="Node000020" class="node">
<title>Node20</title>
<g id="a_Node000020"><a xlink:href="_cpl_2_m_app_2_temperature_2_api_8h.html" target="_top" xlink:title=" ">
<polygon fill="white" stroke="#666666" points="2020,-140 1892,-140 1892,-110 2020,-110 2020,-140"/>
<text text-anchor="start" x="1900" y="-128" font-family="Helvetica,sans-Serif" font-size="10.00">Cpl/MApp/Temperature</text>
<text text-anchor="middle" x="1956" y="-117" font-family="Helvetica,sans-Serif" font-size="10.00">/Api.h</text>
</a>
</g>
</g>
<!-- Node3&#45;&gt;Node20 -->
<g id="edge15_Node000003_Node000020" class="edge">
<title>Node3&#45;&gt;Node20</title>
<g id="a_edge15_Node000003_Node000020"><a xlink:title=" ">
<path fill="none" stroke="#63b8ff" d="M1903.2,-169.5C1914.18,-160.45 1928.09,-149 1938.87,-140.11"/>
<polygon fill="#63b8ff" stroke="#63b8ff" points="1900.97,-166.81 1895.48,-175.87 1905.42,-172.21 1900.97,-166.81"/>
</a>
</g>
</g>
<!-- Node21 -->
<g id="Node000021" class="node">
<title>Node21</title>
<g id="a_Node000021"><a xlink:href="_chunk_8h.html" target="_top" xlink:title=" ">
<polygon fill="#fff0f0" stroke="red" points="2165.5,-134.5 2038.5,-134.5 2038.5,-115.5 2165.5,-115.5 2165.5,-134.5"/>
<text text-anchor="middle" x="2102" y="-122.5" font-family="Helvetica,sans-Serif" font-size="10.00">Cpl/Persistent/Chunk.h</text>
</a>
</g>
</g>
<!-- Node3&#45;&gt;Node21 -->
<g id="edge16_Node000003_Node000021" class="edge">
<title>Node3&#45;&gt;Node21</title>
<g id="a_edge16_Node000003_Node000021"><a xlink:title=" ">
<path fill="none" stroke="#63b8ff" d="M1926.46,-173.32C1968.42,-162.01 2032.38,-144.77 2070.41,-134.52"/>
<polygon fill="#63b8ff" stroke="#63b8ff" points="1925.3,-170.01 1916.55,-175.99 1927.12,-176.77 1925.3,-170.01"/>
</a>
</g>
</g>
<!-- Node35 -->
<g id="Node000035" class="node">
<title>Node35</title>
<g id="a_Node000035"><a xlink:href="_persistent_2_record_8h.html" target="_top" xlink:title=" ">
<polygon fill="#fff0f0" stroke="red" points="2314,-134.5 2184,-134.5 2184,-115.5 2314,-115.5 2314,-134.5"/>
<text text-anchor="middle" x="2249" y="-122.5" font-family="Helvetica,sans-Serif" font-size="10.00">Cpl/Persistent/Record.h</text>
</a>
</g>
</g>
<!-- Node3&#45;&gt;Node35 -->
<g id="edge17_Node000003_Node000035" class="edge">
<title>Node3&#45;&gt;Node35</title>
<g id="a_edge17_Node000003_Node000035"><a xlink:title=" ">
<path fill="none" stroke="#63b8ff" d="M1954.29,-174.46C2012.89,-165.82 2099.05,-152.76 2174,-140 2183.92,-138.31 2194.57,-136.39 2204.62,-134.52"/>
<polygon fill="#63b8ff" stroke="#63b8ff" points="1953.42,-171.05 1944.04,-175.97 1954.44,-177.98 1953.42,-171.05"/>
</a>
</g>
</g>
<!-- Node36 -->
<g id="Node000036" class="node">
<title>Node36</title>
<g id="a_Node000036"><a xlink:href="_record_server_8h.html" target="_top" xlink:title=" ">
<polygon fill="#fff0f0" stroke="red" points="1808.5,-74 1647.5,-74 1647.5,-55 1808.5,-55 1808.5,-74"/>
<text text-anchor="middle" x="1728" y="-62" font-family="Helvetica,sans-Serif" font-size="10.00">Cpl/Persistent/RecordServer.h</text>
</a>
</g>
</g>
<!-- Node3&#45;&gt;Node36 -->
<g id="edge20_Node000003_Node000036" class="edge">
<title>Node3&#45;&gt;Node36</title>
<g id="a_edge20_Node000003_Node000036"><a xlink:title=" ">
<path fill="none" stroke="#63b8ff" d="M1808.05,-174.15C1785.73,-167.65 1763.07,-157.1 1747,-140 1729.63,-121.52 1727.58,-89.43 1727.67,-74.12"/>
<polygon fill="#63b8ff" stroke="#63b8ff" points="1807.35,-177.58 1817.92,-176.77 1809.15,-170.82 1807.35,-177.58"/>
</a>
</g>
</g>
<!-- Node37 -->
<g id="Node000037" class="node">
<title>Node37</title>
<g id="a_Node000037"><a xlink:href="_region_media_8h.html" target="_top" xlink:title=" ">
<polygon fill="#fff0f0" stroke="red" points="2492,-134.5 2332,-134.5 2332,-115.5 2492,-115.5 2492,-134.5"/>
<text text-anchor="middle" x="2412" y="-122.5" font-family="Helvetica,sans-Serif" font-size="10.00">Cpl/Persistent/RegionMedia.h</text>
</a>
</g>
</g>
<!-- Node3&#45;&gt;Node37 -->
<g id="edge21_Node000003_Node000037" class="edge">
<title>Node3&#45;&gt;Node37</title>
<g id="a_edge21_Node000003_Node000037"><a xlink:title=" ">
<path fill="none" stroke="#63b8ff" d="M1962.41,-177.93C2050.06,-170.18 2197.04,-156.29 2323,-140 2335.25,-138.41 2348.42,-136.47 2360.77,-134.55"/>
<polygon fill="#63b8ff" stroke="#63b8ff" points="1961.94,-174.45 1952.29,-178.82 1962.56,-181.43 1961.94,-174.45"/>
</a>
</g>
</g>
<!-- Node41 -->
<g id="Node000041" class="node">
<title>Node41</title>
<g id="a_Node000041"><a xlink:href="_ajax_2_thermistor_8h.html" target="_top" xlink:title=" ">
<polygon fill="#fff0f0" stroke="red" points="2666,-134.5 2510,-134.5 2510,-115.5 2666,-115.5 2666,-134.5"/>
<text text-anchor="middle" x="2588" y="-122.5" font-family="Helvetica,sans-Serif" font-size="10.00">Driver/AIO/Ajax/Thermistor.h</text>
</a>
</g>
</g>
<!-- Node3&#45;&gt;Node41 -->
<g id="edge22_Node000003_Node000041" class="edge">
<title>Node3&#45;&gt;Node41</title>
<g id="a_edge22_Node000003_Node000041"><a xlink:title=" ">
<path fill="none" stroke="#63b8ff" d="M1962.46,-181.08C2079.41,-175.43 2307.93,-162.46 2501,-140 2513.61,-138.53 2527.19,-136.54 2539.79,-134.53"/>
<polygon fill="#63b8ff" stroke="#63b8ff" points="1962,-177.6 1952.18,-181.57 1962.33,-184.59 1962,-177.6"/>
</a>
</g>
</g>
<!-- Node43 -->
<g id="Node000043" class="node">
<title>Node43</title>
<g id="a_Node000043"><a xlink:href="_eros_2_test_2_cycle_2_api_8h.html" target="_top" xlink:title=" ">
<polygon fill="white" stroke="#666666" points="2802,-134.5 2684,-134.5 2684,-115.5 2802,-115.5 2802,-134.5"/>
<text text-anchor="middle" x="2743" y="-122.5" font-family="Helvetica,sans-Serif" font-size="10.00">Eros/Test/Cycle/Api.h</text>
</a>
</g>
</g>
<!-- Node3&#45;&gt;Node43 -->
<g id="edge23_Node000003_Node000043" class="edge">
<title>Node3&#45;&gt;Node43</title>
<g id="a_edge23_Node000003_Node000043"><a xlink:title=" ">
<path fill="none" stroke="#63b8ff" d="M1962.49,-183.9C2104.41,-181.96 2415.36,-173.85 2675,-140 2685.28,-138.66 2696.33,-136.64 2706.46,-134.55"/>
<polygon fill="#63b8ff" stroke="#63b8ff" points="1962.11,-180.4 1952.15,-184.03 1962.2,-187.4 1962.11,-180.4"/>
</a>
</g>
</g>
<!-- Node44 -->
<g id="Node000044" class="node">
<title>Node44</title>
<g id="a_Node000044"><a xlink:href="_eros_2_test_2_thermistor_2_api_8h.html" target="_top" xlink:title=" ">
<polygon fill="white" stroke="#666666" points="1240,-140 1124,-140 1124,-110 1240,-110 1240,-140"/>
<text text-anchor="start" x="1132" y="-128" font-family="Helvetica,sans-Serif" font-size="10.00">Eros/Test/Thermistor</text>
<text text-anchor="middle" x="1182" y="-117" font-family="Helvetica,sans-Serif" font-size="10.00">/Api.h</text>
</a>
</g>
</g>
<!-- Node3&#45;&gt;Node44 -->
<g id="edge24_Node000003_Node000044" class="edge">
<title>Node3&#45;&gt;Node44</title>
<g id="a_edge24_Node000003_Node000044"><a xlink:title=" ">
<path fill="none" stroke="#63b8ff" d="M1807.65,-182.48C1687.57,-178.58 1449.28,-167.8 1249,-140 1246.06,-139.59 1243.05,-139.13 1240.02,-138.63"/>
<polygon fill="#63b8ff" stroke="#63b8ff" points="1807.74,-185.99 1817.85,-182.8 1807.96,-178.99 1807.74,-185.99"/>
</a>
</g>
</g>
<!-- Node45 -->
<g id="Node000045" class="node">
<title>Node45</title>
<g id="a_Node000045"><a xlink:href="_eros_2_ui_2_home_2_screen_8h.html" target="_top" xlink:title=" ">
<polygon fill="#fff0f0" stroke="red" points="2948,-134.5 2820,-134.5 2820,-115.5 2948,-115.5 2948,-134.5"/>
<text text-anchor="middle" x="2884" y="-122.5" font-family="Helvetica,sans-Serif" font-size="10.00">Eros/Ui/Home/Screen.h</text>
</a>
</g>
</g>
<!-- Node3&#45;&gt;Node45 -->
<g id="edge25_Node000003_Node000045" class="edge">
<title>Node3&#45;&gt;Node45</title>
<g id="a_edge25_Node000003_Node000045"><a xlink:title=" ">
<path fill="none" stroke="#63b8ff" d="M1962.26,-184.47C2121.57,-183.6 2497.84,-177.36 2811,-140 2822.15,-138.67 2834.15,-136.63 2845.14,-134.51"/>
<polygon fill="#63b8ff" stroke="#63b8ff" points="1962.07,-180.97 1952.09,-184.52 1962.1,-187.97 1962.07,-180.97"/>
</a>
</g>
</g>
<!-- Node47 -->
<g id="Node000047" class="node">
<title>Node47</title>
<g id="a_Node000047"><a xlink:href="_eros_2_ui_2_lcd_test_2_screen_8h.html" target="_top" xlink:title=" ">
<polygon fill="#fff0f0" stroke="red" points="3101.5,-134.5 2966.5,-134.5 2966.5,-115.5 3101.5,-115.5 3101.5,-134.5"/>
<text text-anchor="middle" x="3034" y="-122.5" font-family="Helvetica,sans-Serif" font-size="10.00">Eros/Ui/LcdTest/Screen.h</text>
</a>
</g>
</g>
<!-- Node3&#45;&gt;Node47 -->
<g id="edge26_Node000003_Node000047" class="edge">
<title>Node3&#45;&gt;Node47</title>
<g id="a_edge26_Node000003_Node000047"><a xlink:title=" ">
<path fill="none" stroke="#63b8ff" d="M1962.28,-184.95C2139,-185.18 2586.03,-181.22 2957,-140 2968.75,-138.69 2981.4,-136.66 2992.99,-134.54"/>
<polygon fill="#63b8ff" stroke="#63b8ff" points="1962.05,-181.45 1952.04,-184.93 1962.04,-188.45 1962.05,-181.45"/>
</a>
</g>
</g>
<!-- Node6&#45;&gt;Node5 -->
<g id="edge6_Node000006_Node000005" class="edge">
<title>Node6&#45;&gt;Node5</title>
<g id="a_edge6_Node000006_Node000005"><a xlink:title=" ">
<path fill="none" stroke="#63b8ff" d="M1363.31,-105.63C1385.25,-95.11 1411.76,-82.4 1428.98,-74.14"/>
<polygon fill="#63b8ff" stroke="#63b8ff" points="1361.73,-102.51 1354.22,-109.99 1364.75,-108.82 1361.73,-102.51"/>
</a>
</g>
</g>
<!-- Node35&#45;&gt;Node36 -->
<g id="edge18_Node000035_Node000036" class="edge">
<title>Node35&#45;&gt;Node36</title>
<g id="a_edge18_Node000035_Node000036"><a xlink:title=" ">
<path fill="none" stroke="#63b8ff" d="M2196.77,-113.66C2189.15,-112.32 2181.38,-111.06 2174,-110 2046.9,-91.83 1898.36,-78.6 1808.82,-71.48"/>
<polygon fill="#63b8ff" stroke="#63b8ff" points="2196.2,-117.12 2206.66,-115.45 2197.44,-110.23 2196.2,-117.12"/>
</a>
</g>
</g>
<!-- Node25 -->
<g id="Node000025" class="node">
<title>Node25</title>
<g id="a_Node000025"><a xlink:href="_provision_8h.html" target="_top" xlink:title=" ">
<polygon fill="white" stroke="#666666" points="1384,-19 1256,-19 1256,0 1384,0 1384,-19"/>
<text text-anchor="middle" x="1320" y="-7" font-family="Helvetica,sans-Serif" font-size="10.00">Ajax/TShell/Provision.h</text>
</a>
</g>
</g>
<!-- Node36&#45;&gt;Node25 -->
<g id="edge19_Node000036_Node000025" class="edge">
<title>Node36&#45;&gt;Node25</title>
<g id="a_edge19_Node000036_Node000025"><a xlink:title=" ">
<path fill="none" stroke="#63b8ff" d="M1652.31,-53.67C1575.13,-43.64 1456.72,-28.26 1384.04,-18.82"/>
<polygon fill="#63b8ff" stroke="#63b8ff" points="1652.08,-57.17 1662.45,-54.98 1652.98,-50.23 1652.08,-57.17"/>
</a>
</g>
</g>
<!-- Node49 -->
<g id="Node000049" class="node">
<title>Node49</title>
<g id="a_Node000049"><a xlink:href="_model_point_common___8h.html" target="_top" xlink:title=" ">
<polygon fill="#fff0f0" stroke="red" points="1451.5,-195 1282.5,-195 1282.5,-176 1451.5,-176 1451.5,-195"/>
<text text-anchor="middle" x="1367" y="-183" font-family="Helvetica,sans-Serif" font-size="10.00">Cpl/Dm/ModelPointCommon_.h</text>
</a>
</g>
</g>
<!-- Node48&#45;&gt;Node49 -->
<g id="edge28_Node000048_Node000049" class="edge">
<title>Node48&#45;&gt;Node49</title>
<g id="a_edge28_Node000048_Node000049"><a xlink:title=" ">
<path fill="none" stroke="#63b8ff" d="M1297.07,-230.97C1314.59,-219.82 1338.53,-204.6 1353.37,-195.17"/>
<polygon fill="#63b8ff" stroke="#63b8ff" points="1295.14,-228.05 1288.57,-236.37 1298.89,-233.96 1295.14,-228.05"/>
</a>
</g>
</g>
<!-- Node82 -->
<g id="Node000082" class="node">
<title>Node82</title>
<g id="a_Node000082"><a xlink:href="_subscriber_composer_8h.html" target="_top" xlink:title=" ">
<polygon fill="#fff0f0" stroke="red" points="1264,-195 1100,-195 1100,-176 1264,-176 1264,-195"/>
<text text-anchor="middle" x="1182" y="-183" font-family="Helvetica,sans-Serif" font-size="10.00">Cpl/Dm/SubscriberComposer.h</text>
</a>
</g>
</g>
<!-- Node48&#45;&gt;Node82 -->
<g id="edge29_Node000048_Node000082" class="edge">
<title>Node48&#45;&gt;Node82</title>
<g id="a_edge29_Node000048_Node000082"><a xlink:title=" ">
<path fill="none" stroke="#63b8ff" d="M1252.69,-230.97C1234.98,-219.82 1210.78,-204.6 1195.78,-195.17"/>
<polygon fill="#63b8ff" stroke="#63b8ff" points="1250.95,-234.01 1261.28,-236.37 1254.68,-228.08 1250.95,-234.01"/>
</a>
</g>
</g>
<!-- Node82&#45;&gt;Node4 -->
<g id="edge30_Node000082_Node000004" class="edge">
<title>Node82&#45;&gt;Node4</title>
<g id="a_edge30_Node000082_Node000004"><a xlink:title=" ">
<path fill="none" stroke="#63b8ff" d="M1234.6,-173.96C1290.96,-162.67 1379.35,-144.96 1431.49,-134.52"/>
<polygon fill="#63b8ff" stroke="#63b8ff" points="1233.58,-170.6 1224.46,-175.99 1234.95,-177.46 1233.58,-170.6"/>
</a>
</g>
</g>
<!-- Node82&#45;&gt;Node6 -->
<g id="edge31_Node000082_Node000006" class="edge">
<title>Node82&#45;&gt;Node6</title>
<g id="a_edge31_Node000082_Node000006"><a xlink:title=" ">
<path fill="none" stroke="#63b8ff" d="M1212.05,-172.21C1235,-162.82 1266.66,-149.87 1290.62,-140.06"/>
<polygon fill="#63b8ff" stroke="#63b8ff" points="1210.72,-168.97 1202.79,-175.99 1213.37,-175.45 1210.72,-168.97"/>
</a>
</g>
</g>
<!-- Node82&#45;&gt;Node9 -->
<g id="edge32_Node000082_Node000009" class="edge">
<title>Node82&#45;&gt;Node9</title>
<g id="a_edge32_Node000082_Node000009"><a xlink:title=" ">
<path fill="none" stroke="#63b8ff" d="M1274.48,-175.83C1348.49,-168.26 1454.79,-155.99 1547,-140 1555.81,-138.47 1565.25,-136.51 1574.04,-134.54"/>
<polygon fill="#63b8ff" stroke="#63b8ff" points="1273.85,-172.37 1264.25,-176.86 1274.55,-179.34 1273.85,-172.37"/>
</a>
</g>
</g>
<!-- Node82&#45;&gt;Node10 -->
<g id="edge33_Node000082_Node000010" class="edge">
<title>Node82&#45;&gt;Node10</title>
<g id="a_edge33_Node000082_Node000010"><a xlink:title=" ">
<path fill="none" stroke="#63b8ff" d="M1089.96,-174.82C1018.14,-166.82 915.97,-154.45 827,-140 817.34,-138.43 806.97,-136.5 797.26,-134.57"/>
<polygon fill="#63b8ff" stroke="#63b8ff" points="1090.01,-178.35 1100.33,-175.97 1090.78,-171.39 1090.01,-178.35"/>
</a>
</g>
</g>
<!-- Node82&#45;&gt;Node16 -->
<g id="edge34_Node000082_Node000016" class="edge">
<title>Node82&#45;&gt;Node16</title>
<g id="a_edge34_Node000082_Node000016"><a xlink:title=" ">
<path fill="none" stroke="#63b8ff" d="M1131.07,-173.93C1084.23,-164.22 1014.59,-149.77 964.01,-139.28"/>
<polygon fill="#63b8ff" stroke="#63b8ff" points="1130.49,-177.39 1140.99,-175.99 1131.91,-170.54 1130.49,-177.39"/>
</a>
</g>
</g>
<!-- Node82&#45;&gt;Node18 -->
<g id="edge35_Node000082_Node000018" class="edge">
<title>Node82&#45;&gt;Node18</title>
<g id="a_edge35_Node000082_Node000018"><a xlink:title=" ">
<path fill="none" stroke="#63b8ff" d="M1152.71,-172.08C1126.05,-160.78 1087.4,-144.4 1064.09,-134.52"/>
<polygon fill="#63b8ff" stroke="#63b8ff" points="1151.36,-175.31 1161.93,-175.99 1154.09,-168.87 1151.36,-175.31"/>
</a>
</g>
</g>
<!-- Node82&#45;&gt;Node44 -->
<g id="edge36_Node000082_Node000044" class="edge">
<title>Node82&#45;&gt;Node44</title>
<g id="a_edge36_Node000082_Node000044"><a xlink:title=" ">
<path fill="none" stroke="#63b8ff" d="M1182,-165.65C1182,-157.36 1182,-147.78 1182,-140.11"/>
<polygon fill="#63b8ff" stroke="#63b8ff" points="1178.5,-165.87 1182,-175.87 1185.5,-165.87 1178.5,-165.87"/>
</a>
</g>
</g>
<!-- Node84 -->
<g id="Node000084" class="node">
<title>Node84</title>
<g id="a_Node000084"><a xlink:href="_serial_2_s_t_2_m32_f4_2_input_output_8h.html" target="_top" xlink:title=" ">
<polygon fill="white" stroke="#666666" points="1515,-261 1389,-261 1389,-231 1515,-231 1515,-261"/>
<text text-anchor="start" x="1397" y="-249" font-family="Helvetica,sans-Serif" font-size="10.00">Cpl/Io/Serial/ST/M32F4</text>
<text text-anchor="middle" x="1452" y="-238" font-family="Helvetica,sans-Serif" font-size="10.00">/InputOutput.h</text>
</a>
</g>
</g>
<!-- Node83&#45;&gt;Node84 -->
<g id="edge38_Node000083_Node000084" class="edge">
<title>Node83&#45;&gt;Node84</title>
<g id="a_edge38_Node000083_Node000084"><a xlink:title=" ">
<path fill="none" stroke="#63b8ff" d="M1450.15,-286.54C1450.55,-277.96 1450.99,-268.61 1451.34,-261.16"/>
<polygon fill="#63b8ff" stroke="#63b8ff" points="1446.64,-286.64 1449.67,-296.8 1453.63,-286.97 1446.64,-286.64"/>
</a>
</g>
</g>
<!-- Node86 -->
<g id="Node000086" class="node">
<title>Node86</title>
<g id="a_Node000086"><a xlink:href="_posix_2_listener_8h.html" target="_top" xlink:title=" ">
<polygon fill="white" stroke="#666666" points="1778.5,-261 1669.5,-261 1669.5,-231 1778.5,-231 1778.5,-261"/>
<text text-anchor="start" x="1677.5" y="-249" font-family="Helvetica,sans-Serif" font-size="10.00">Cpl/Io/Socket/Posix</text>
<text text-anchor="middle" x="1724" y="-238" font-family="Helvetica,sans-Serif" font-size="10.00">/Listener.h</text>
</a>
</g>
</g>
<!-- Node85&#45;&gt;Node86 -->
<g id="edge40_Node000085_Node000086" class="edge">
<title>Node85&#45;&gt;Node86</title>
<g id="a_edge40_Node000085_Node000086"><a xlink:title=" ">
<path fill="none" stroke="#63b8ff" d="M1624.01,-297.79C1645.07,-287.09 1674.68,-272.05 1696.21,-261.12"/>
<polygon fill="#63b8ff" stroke="#63b8ff" points="1622.32,-294.72 1614.99,-302.37 1625.49,-300.96 1622.32,-294.72"/>
</a>
</g>
</g>
<!-- Node87 -->
<g id="Node000087" class="node">
<title>Node87</title>
<g id="a_Node000087"><a xlink:href="_win32_2_listener_8h.html" target="_top" xlink:title=" ">
<polygon fill="white" stroke="#666666" points="1651.5,-261 1538.5,-261 1538.5,-231 1651.5,-231 1651.5,-261"/>
<text text-anchor="start" x="1546.5" y="-249" font-family="Helvetica,sans-Serif" font-size="10.00">Cpl/Io/Socket/Win32</text>
<text text-anchor="middle" x="1595" y="-238" font-family="Helvetica,sans-Serif" font-size="10.00">/Listener.h</text>
</a>
</g>
</g>
<!-- Node85&#45;&gt;Node87 -->
<g id="edge41_Node000085_Node000087" class="edge">
<title>Node85&#45;&gt;Node87</title>
<g id="a_edge41_Node000085_Node000087"><a xlink:title=" ">
<path fill="none" stroke="#63b8ff" d="M1597.13,-292.35C1596.66,-282.47 1596.1,-270.51 1595.67,-261.36"/>
<polygon fill="#63b8ff" stroke="#63b8ff" points="1593.63,-292.54 1597.6,-302.37 1600.62,-292.22 1593.63,-292.54"/>
</a>
</g>
</g>
<!-- Node93 -->
<g id="Node000093" class="node">
<title>Node93</title>
<g id="a_Node000093"><a xlink:href="_fsm__trace___8h.html" target="_top" xlink:title=" ">
<polygon fill="white" stroke="#666666" points="470,-261 336,-261 336,-231 470,-231 470,-261"/>
<text text-anchor="start" x="344" y="-249" font-family="Helvetica,sans-Serif" font-size="10.00">Ajax/Heating/Supervisor</text>
<text text-anchor="middle" x="403" y="-238" font-family="Helvetica,sans-Serif" font-size="10.00">/Fsm_trace_.h</text>
</a>
</g>
</g>
<!-- Node92&#45;&gt;Node93 -->
<g id="edge47_Node000092_Node000093" class="edge">
<title>Node92&#45;&gt;Node93</title>
<g id="a_edge47_Node000092_Node000093"><a xlink:title=" ">
<path fill="none" stroke="#63b8ff" d="M465.04,-296.02C451.7,-285.48 433.96,-271.46 420.87,-261.12"/>
<polygon fill="#63b8ff" stroke="#63b8ff" points="463.06,-298.92 473.08,-302.37 467.4,-293.42 463.06,-298.92"/>
</a>
</g>
</g>
<!-- Node24 -->
<g id="Node000024" class="node">
<title>Node24</title>
<g id="a_Node000024"><a xlink:href="_personality_record_8h.html" target="_top" xlink:title=" ">
<polygon fill="white" stroke="#666666" points="1121,-74 955,-74 955,-55 1121,-55 1121,-74"/>
<text text-anchor="middle" x="1038" y="-62" font-family="Helvetica,sans-Serif" font-size="10.00">Ajax/Main/PersonalityRecord.h</text>
</a>
</g>
</g>
<!-- Node92&#45;&gt;Node24 -->
<g id="edge48_Node000092_Node000024" class="edge">
<title>Node92&#45;&gt;Node24</title>
<g id="a_edge48_Node000092_Node000024"><a xlink:title=" ">
<path fill="none" stroke="#63b8ff" d="M549.35,-306.11C583.1,-300.25 622.44,-287.69 648,-261 695.94,-210.94 634.98,-155.81 687,-110 725.61,-76 863.96,-67.44 955,-65.59"/>
<polygon fill="#63b8ff" stroke="#63b8ff" points="548.42,-302.72 539.08,-307.72 549.5,-309.63 548.42,-302.72"/>
</a>
</g>
</g>
<!-- Node94 -->
<g id="Node000094" class="node">
<title>Node94</title>
<g id="a_Node000094"><a xlink:href="_integer_expression_parser_8h.html" target="_top" xlink:title="This file contains a collection of methods that parses a null terminated string that contains an arit...">
<polygon fill="white" stroke="#666666" points="639.5,-261 488.5,-261 488.5,-231 639.5,-231 639.5,-261"/>
<text text-anchor="start" x="496.5" y="-249" font-family="Helvetica,sans-Serif" font-size="10.00">Cpl/Math/IntegerExpression</text>
<text text-anchor="middle" x="564" y="-238" font-family="Helvetica,sans-Serif" font-size="10.00">Parser.h</text>
</a>
</g>
</g>
<!-- Node92&#45;&gt;Node94 -->
<g id="edge50_Node000092_Node000094" class="edge">
<title>Node92&#45;&gt;Node94</title>
<g id="a_edge50_Node000092_Node000094"><a xlink:title=" ">
<path fill="none" stroke="#63b8ff" d="M502.73,-296.02C515.91,-285.48 533.43,-271.46 546.36,-261.12"/>
<polygon fill="#63b8ff" stroke="#63b8ff" points="500.41,-293.39 494.79,-302.37 504.78,-298.85 500.41,-293.39"/>
</a>
</g>
</g>
<!-- Node95 -->
<g id="Node000095" class="node">
<title>Node95</title>
<g id="a_Node000095"><a xlink:href="_real_expression_parser_8h.html" target="_top" xlink:title="This file contains a collection of methods that parses a null terminated string that contains an arit...">
<polygon fill="white" stroke="#666666" points="176,-255.5 0,-255.5 0,-236.5 176,-236.5 176,-255.5"/>
<text text-anchor="middle" x="88" y="-243.5" font-family="Helvetica,sans-Serif" font-size="10.00">Cpl/Math/RealExpressionParser.h</text>
</a>
</g>
</g>
<!-- Node92&#45;&gt;Node95 -->
<g id="edge51_Node000092_Node000095" class="edge">
<title>Node92&#45;&gt;Node95</title>
<g id="a_edge51_Node000092_Node000095"><a xlink:title=" ">
<path fill="none" stroke="#63b8ff" d="M420.89,-300.8C343.33,-288.26 213.13,-267.22 140.68,-255.51"/>
<polygon fill="#63b8ff" stroke="#63b8ff" points="420.57,-304.29 431,-302.44 421.69,-297.38 420.57,-304.29"/>
</a>
</g>
</g>
<!-- Node96 -->
<g id="Node000096" class="node">
<title>Node96</title>
<g id="a_Node000096"><a xlink:href="_system_2_private___8h.html" target="_top" xlink:title="This file contains a collection of classes, interfaces, etc.">
<polygon fill="#fff0f0" stroke="red" points="318,-255.5 194,-255.5 194,-236.5 318,-236.5 318,-255.5"/>
<text text-anchor="middle" x="256" y="-243.5" font-family="Helvetica,sans-Serif" font-size="10.00">Cpl/System/Private_.h</text>
</a>
</g>
</g>
<!-- Node92&#45;&gt;Node96 -->
<g id="edge52_Node000092_Node000096" class="edge">
<title>Node92&#45;&gt;Node96</title>
<g id="a_edge52_Node000092_Node000096"><a xlink:title=" ">
<path fill="none" stroke="#63b8ff" d="M443.54,-299.64C398.62,-287.03 327.13,-266.97 286.63,-255.6"/>
<polygon fill="#63b8ff" stroke="#63b8ff" points="442.68,-303.04 453.25,-302.37 444.57,-296.3 442.68,-303.04"/>
</a>
</g>
</g>
<!-- Node24&#45;&gt;Node25 -->
<g id="edge49_Node000024_Node000025" class="edge">
<title>Node24&#45;&gt;Node25</title>
<g id="a_edge49_Node000024_Node000025"><a xlink:title=" ">
<path fill="none" stroke="#63b8ff" d="M1093.19,-53.13C1146.06,-43.19 1224.9,-28.37 1274.34,-19.08"/>
<polygon fill="#63b8ff" stroke="#63b8ff" points="1092.49,-49.7 1083.31,-54.98 1093.78,-56.58 1092.49,-49.7"/>
</a>
</g>
</g>
<!-- Node101 -->
<g id="Node000101" class="node">
<title>Node101</title>
<g id="a_Node000101"><a xlink:href="_free_r_t_o_s_2_threads_8h.html" target="_top" xlink:title=" ">
<polygon fill="white" stroke="#666666" points="2647,-261 2507,-261 2507,-231 2647,-231 2647,-261"/>
<text text-anchor="start" x="2515" y="-249" font-family="Helvetica,sans-Serif" font-size="10.00">Cpl/TShell/Cmd/FreeRTOS</text>
<text text-anchor="middle" x="2577" y="-238" font-family="Helvetica,sans-Serif" font-size="10.00">/Threads.h</text>
</a>
</g>
</g>
<!-- Node100&#45;&gt;Node101 -->
<g id="edge55_Node000100_Node000101" class="edge">
<title>Node100&#45;&gt;Node101</title>
<g id="a_edge55_Node000100_Node000101"><a xlink:title=" ">
<path fill="none" stroke="#63b8ff" d="M2553.85,-293.3C2558.88,-283.24 2565.1,-270.81 2569.82,-261.36"/>
<polygon fill="#63b8ff" stroke="#63b8ff" points="2550.66,-291.86 2549.32,-302.37 2556.92,-294.99 2550.66,-291.86"/>
</a>
</g>
</g>
<!-- Node102 -->
<g id="Node000102" class="node">
<title>Node102</title>
<g id="a_Node000102"><a xlink:href="_win32_2_threads_8h.html" target="_top" xlink:title=" ">
<polygon fill="white" stroke="#666666" points="2488.5,-261 2363.5,-261 2363.5,-231 2488.5,-231 2488.5,-261"/>
<text text-anchor="start" x="2371.5" y="-249" font-family="Helvetica,sans-Serif" font-size="10.00">Cpl/TShell/Cmd/Win32</text>
<text text-anchor="middle" x="2426" y="-238" font-family="Helvetica,sans-Serif" font-size="10.00">/Threads.h</text>
</a>
</g>
</g>
<!-- Node100&#45;&gt;Node102 -->
<g id="edge56_Node000100_Node000102" class="edge">
<title>Node100&#45;&gt;Node102</title>
<g id="a_edge56_Node000100_Node000102"><a xlink:title=" ">
<path fill="none" stroke="#63b8ff" d="M2519.89,-297.5C2500.04,-286.82 2472.39,-271.95 2452.25,-261.12"/>
<polygon fill="#63b8ff" stroke="#63b8ff" points="2518.49,-300.71 2528.95,-302.37 2521.8,-294.55 2518.49,-300.71"/>
</a>
</g>
</g>
<!-- Node105&#45;&gt;Node103 -->
<g id="edge60_Node000105_Node000103" class="edge">
<title>Node105&#45;&gt;Node103</title>
<g id="a_edge60_Node000105_Node000103"><a xlink:title=" ">
<path fill="none" stroke="#63b8ff" d="M2700.77,-294.98C2712.94,-282.62 2729.31,-265.99 2739.23,-255.91"/>
<polygon fill="#63b8ff" stroke="#63b8ff" points="2698.02,-292.79 2693.5,-302.37 2703.01,-297.7 2698.02,-292.79"/>
</a>
</g>
</g>
</g>
</svg>
