<?xml version="1.0" encoding="UTF-8" standalone="no"?>
<!DOCTYPE svg PUBLIC "-//W3C//DTD SVG 1.1//EN"
 "http://www.w3.org/Graphics/SVG/1.1/DTD/svg11.dtd">
<!-- Generated by graphviz version 9.0.0 (20230911.1827)
 -->
<!-- Title: Cpl/System/Timer.h Pages: 1 -->
<svg width="250pt" height="193pt"
 viewBox="0.00 0.00 250.00 193.00" xmlns="http://www.w3.org/2000/svg" xmlns:xlink="http://www.w3.org/1999/xlink">
<g id="graph0" class="graph" transform="scale(1 1) rotate(0) translate(4 189)">
<title>Cpl/System/Timer.h</title>
<!-- Node1 -->
<g id="Node000001" class="node">
<title>Node1</title>
<g id="a_Node000001"><a xlink:title=" ">
<polygon fill="#999999" stroke="#666666" points="157.62,-185 56.12,-185 56.12,-165.75 157.62,-165.75 157.62,-185"/>
<text text-anchor="middle" x="106.88" y="-171.5" font-family="Helvetica,sans-Serif" font-size="10.00">Cpl/System/Timer.h</text>
</a>
</g>
</g>
<!-- Node2 -->
<g id="Node000002" class="node">
<title>Node2</title>
<g id="a_Node000002"><a xlink:href="_timer_manager_8h.html" target="_top" xlink:title=" ">
<polygon fill="white" stroke="#666666" points="225.38,-129.75 86.38,-129.75 86.38,-110.5 225.38,-110.5 225.38,-129.75"/>
<text text-anchor="middle" x="155.88" y="-116.25" font-family="Helvetica,sans-Serif" font-size="10.00">Cpl/System/TimerManager.h</text>
</a>
</g>
</g>
<!-- Node1&#45;&gt;Node2 -->
<g id="edge1_Node000001_Node000002" class="edge">
<title>Node1&#45;&gt;Node2</title>
<g id="a_edge1_Node000001_Node000002"><a xlink:title=" ">
<path fill="none" stroke="#63b8ff" d="M114.97,-165.58C121.73,-158.23 131.6,-147.51 139.94,-138.44"/>
<polygon fill="#63b8ff" stroke="#63b8ff" points="142.39,-140.95 146.58,-131.22 137.24,-136.21 142.39,-140.95"/>
</a>
</g>
</g>
<!-- Node3 -->
<g id="Node000003" class="node">
<title>Node3</title>
<g id="a_Node000003"><a xlink:href="_counter___8h.html" target="_top" xlink:title=" ">
<polygon fill="white" stroke="#666666" points="115.75,-74.5 0,-74.5 0,-55.25 115.75,-55.25 115.75,-74.5"/>
<text text-anchor="middle" x="57.88" y="-61" font-family="Helvetica,sans-Serif" font-size="10.00">Cpl/System/Counter_.h</text>
</a>
</g>
</g>
<!-- Node1&#45;&gt;Node3 -->
<g id="edge5_Node000001_Node000003" class="edge">
<title>Node1&#45;&gt;Node3</title>
<g id="a_edge5_Node000001_Node000003"><a xlink:title=" ">
<path fill="none" stroke="#63b8ff" d="M99.56,-165.3C92.87,-156.61 83.08,-142.92 76.88,-129.75 70.22,-115.63 65.3,-98.66 62.14,-85.76"/>
<polygon fill="#63b8ff" stroke="#63b8ff" points="65.63,-85.3 59.98,-76.34 58.8,-86.87 65.63,-85.3"/>
</a>
</g>
</g>
<!-- Node2&#45;&gt;Node3 -->
<g id="edge2_Node000002_Node000003" class="edge">
<title>Node2&#45;&gt;Node3</title>
<g id="a_edge2_Node000002_Node000003"><a xlink:title=" ">
<path fill="none" stroke="#63b8ff" d="M139.25,-110.09C124.19,-101.91 101.73,-89.71 84.22,-80.19"/>
<polygon fill="#63b8ff" stroke="#63b8ff" points="86.37,-77.37 75.91,-75.68 83.03,-83.52 86.37,-77.37"/>
</a>
</g>
</g>
<!-- Node5 -->
<g id="Node000005" class="node">
<title>Node5</title>
<g id="a_Node000005"><a xlink:href="_d_list_8h.html" target="_top" xlink:title=" ">
<polygon fill="white" stroke="#666666" points="242,-74.5 133.75,-74.5 133.75,-55.25 242,-55.25 242,-74.5"/>
<text text-anchor="middle" x="187.88" y="-61" font-family="Helvetica,sans-Serif" font-size="10.00">Cpl/Container/DList.h</text>
</a>
</g>
</g>
<!-- Node2&#45;&gt;Node5 -->
<g id="edge4_Node000002_Node000005" class="edge">
<title>Node2&#45;&gt;Node5</title>
<g id="a_edge4_Node000002_Node000005"><a xlink:title=" ">
<path fill="none" stroke="#63b8ff" d="M161.16,-110.33C165.35,-103.36 171.35,-93.37 176.61,-84.62"/>
<polygon fill="#63b8ff" stroke="#63b8ff" points="179.55,-86.53 181.7,-76.16 173.55,-82.93 179.55,-86.53"/>
</a>
</g>
</g>
<!-- Node4 -->
<g id="Node000004" class="node">
<title>Node4</title>
<g id="a_Node000004"><a xlink:href="_item_8h.html" target="_top" xlink:title=" ">
<polygon fill="white" stroke="#666666" points="110.12,-19.25 5.62,-19.25 5.62,0 110.12,0 110.12,-19.25"/>
<text text-anchor="middle" x="57.88" y="-5.75" font-family="Helvetica,sans-Serif" font-size="10.00">Cpl/Container/Item.h</text>
</a>
</g>
</g>
<!-- Node3&#45;&gt;Node4 -->
<g id="edge3_Node000003_Node000004" class="edge">
<title>Node3&#45;&gt;Node4</title>
<g id="a_edge3_Node000003_Node000004"><a xlink:title=" ">
<path fill="none" stroke="#63b8ff" d="M57.88,-55.08C57.88,-48.57 57.88,-39.42 57.88,-31.12"/>
<polygon fill="#63b8ff" stroke="#63b8ff" points="61.38,-31.12 57.88,-21.12 54.38,-31.12 61.38,-31.12"/>
</a>
</g>
</g>
</g>
</svg>
