<?xml version="1.0" encoding="UTF-8" standalone="no"?>
<!DOCTYPE svg PUBLIC "-//W3C//DTD SVG 1.1//EN"
 "http://www.w3.org/Graphics/SVG/1.1/DTD/svg11.dtd">
<!-- Generated by graphviz version 9.0.0 (20230911.1827)
 -->
<!-- Title: Cpl/System/Timer.h Pages: 1 -->
<svg width="1551pt" height="216pt"
 viewBox="0.00 0.00 1550.62 215.50" xmlns="http://www.w3.org/2000/svg" xmlns:xlink="http://www.w3.org/1999/xlink">
<g id="graph0" class="graph" transform="scale(1 1) rotate(0) translate(4 211.5)">
<title>Cpl/System/Timer.h</title>
<!-- Node1 -->
<g id="Node000001" class="node">
<title>Node1</title>
<g id="a_Node000001"><a xlink:title=" ">
<polygon fill="#999999" stroke="#666666" points="889.5,-207.5 788,-207.5 788,-188.25 889.5,-188.25 889.5,-207.5"/>
<text text-anchor="middle" x="838.75" y="-194" font-family="Helvetica,sans-Serif" font-size="10.00">Cpl/System/Timer.h</text>
</a>
</g>
</g>
<!-- Node2 -->
<g id="Node000002" class="node">
<title>Node2</title>
<g id="a_Node000002"><a xlink:href="_ajax_2_heating_2_io_2_api_8h.html" target="_top" xlink:title=" ">
<polygon fill="white" stroke="#666666" points="107.5,-80.12 0,-80.12 0,-60.88 107.5,-60.88 107.5,-80.12"/>
<text text-anchor="middle" x="53.75" y="-66.62" font-family="Helvetica,sans-Serif" font-size="10.00">Ajax/Heating/Io/Api.h</text>
</a>
</g>
</g>
<!-- Node1&#45;&gt;Node2 -->
<g id="edge1_Node000001_Node000002" class="edge">
<title>Node1&#45;&gt;Node2</title>
<g id="a_edge1_Node000001_Node000002"><a xlink:title=" ">
<path fill="none" stroke="#63b8ff" d="M776.3,-196C611.27,-193.25 172.25,-183.12 114.75,-152.25 84.72,-136.13 65.17,-98.07 57.47,-80.58"/>
<polygon fill="#63b8ff" stroke="#63b8ff" points="776.13,-199.49 786.19,-196.16 776.24,-192.49 776.13,-199.49"/>
</a>
</g>
</g>
<!-- Node3 -->
<g id="Node000003" class="node">
<title>Node3</title>
<g id="a_Node000003"><a xlink:href="_ajax_2_heating_2_supervisor_2_api_8h.html" target="_top" xlink:title=" ">
<polygon fill="white" stroke="#666666" points="245.25,-152.25 124.25,-152.25 124.25,-121.75 245.25,-121.75 245.25,-152.25"/>
<text text-anchor="start" x="132.25" y="-138.75" font-family="Helvetica,sans-Serif" font-size="10.00">Ajax/Heating/Supervisor</text>
<text text-anchor="middle" x="184.75" y="-127.5" font-family="Helvetica,sans-Serif" font-size="10.00">/Api.h</text>
</a>
</g>
</g>
<!-- Node1&#45;&gt;Node3 -->
<g id="edge2_Node000001_Node000003" class="edge">
<title>Node1&#45;&gt;Node3</title>
<g id="a_edge2_Node000001_Node000003"><a xlink:title=" ">
<path fill="none" stroke="#63b8ff" d="M776.43,-191.26C651.1,-179.98 369.94,-154.67 245.73,-143.49"/>
<polygon fill="#63b8ff" stroke="#63b8ff" points="775.92,-194.73 786.2,-192.14 776.55,-187.76 775.92,-194.73"/>
</a>
</g>
</g>
<!-- Node5 -->
<g id="Node000005" class="node">
<title>Node5</title>
<g id="a_Node000005"><a xlink:href="_ajax_2_metrics_2_api_8h.html" target="_top" xlink:title=" ">
<polygon fill="white" stroke="#666666" points="815.12,-19.25 720.38,-19.25 720.38,0 815.12,0 815.12,-19.25"/>
<text text-anchor="middle" x="767.75" y="-5.75" font-family="Helvetica,sans-Serif" font-size="10.00">Ajax/Metrics/Api.h</text>
</a>
</g>
</g>
<!-- Node1&#45;&gt;Node5 -->
<g id="edge5_Node000001_Node000005" class="edge">
<title>Node1&#45;&gt;Node5</title>
<g id="a_edge5_Node000001_Node000005"><a xlink:title=" ">
<path fill="none" stroke="#63b8ff" d="M776.58,-193.24C748.03,-188.08 716.62,-176.71 698.75,-152.25 665.51,-106.76 730.44,-42.78 757.08,-19.52"/>
<polygon fill="#63b8ff" stroke="#63b8ff" points="775.84,-196.66 786.26,-194.75 776.92,-189.75 775.84,-196.66"/>
</a>
</g>
</g>
<!-- Node6 -->
<g id="Node000006" class="node">
<title>Node6</title>
<g id="a_Node000006"><a xlink:href="_ajax_2_screen_mgr_2_api_8h.html" target="_top" xlink:title=" ">
<polygon fill="white" stroke="#666666" points="588.62,-146.62 478.88,-146.62 478.88,-127.38 588.62,-127.38 588.62,-146.62"/>
<text text-anchor="middle" x="533.75" y="-133.12" font-family="Helvetica,sans-Serif" font-size="10.00">Ajax/ScreenMgr/Api.h</text>
</a>
</g>
</g>
<!-- Node1&#45;&gt;Node6 -->
<g id="edge6_Node000001_Node000006" class="edge">
<title>Node1&#45;&gt;Node6</title>
<g id="a_edge6_Node000001_Node000006"><a xlink:title=" ">
<path fill="none" stroke="#63b8ff" d="M780.58,-185.65C722.56,-174.45 634.55,-157.46 580.79,-147.08"/>
<polygon fill="#63b8ff" stroke="#63b8ff" points="779.79,-189.06 790.28,-187.52 781.12,-182.19 779.79,-189.06"/>
</a>
</g>
</g>
<!-- Node11 -->
<g id="Node000011" class="node">
<title>Node11</title>
<g id="a_Node000011"><a xlink:href="_logical_buttons_8h.html" target="_top" xlink:title=" ">
<polygon fill="white" stroke="#666666" points="831.38,-146.62 708.12,-146.62 708.12,-127.38 831.38,-127.38 831.38,-146.62"/>
<text text-anchor="middle" x="769.75" y="-133.12" font-family="Helvetica,sans-Serif" font-size="10.00">Ajax/Ui/LogicalButtons.h</text>
</a>
</g>
</g>
<!-- Node1&#45;&gt;Node11 -->
<g id="edge13_Node000001_Node000011" class="edge">
<title>Node1&#45;&gt;Node11</title>
<g id="a_edge13_Node000001_Node000011"><a xlink:title=" ">
<path fill="none" stroke="#63b8ff" d="M819.78,-180.69C807.06,-169.84 790.8,-155.96 780.33,-147.03"/>
<polygon fill="#63b8ff" stroke="#63b8ff" points="817.24,-183.12 827.12,-186.95 821.78,-177.8 817.24,-183.12"/>
</a>
</g>
</g>
<!-- Node12 -->
<g id="Node000012" class="node">
<title>Node12</title>
<g id="a_Node000012"><a xlink:href="_ajax_2_ui_2_status_indicator_2_api_8h.html" target="_top" xlink:title=" ">
<polygon fill="white" stroke="#666666" points="966,-152.25 849.5,-152.25 849.5,-121.75 966,-121.75 966,-152.25"/>
<text text-anchor="start" x="857.5" y="-138.75" font-family="Helvetica,sans-Serif" font-size="10.00">Ajax/Ui/StatusIndicator</text>
<text text-anchor="middle" x="907.75" y="-127.5" font-family="Helvetica,sans-Serif" font-size="10.00">/Api.h</text>
</a>
</g>
</g>
<!-- Node1&#45;&gt;Node12 -->
<g id="edge14_Node000001_Node000012" class="edge">
<title>Node1&#45;&gt;Node12</title>
<g id="a_edge14_Node000001_Node000012"><a xlink:title=" ">
<path fill="none" stroke="#63b8ff" d="M857.9,-180.54C868.19,-171.76 880.77,-161.02 890.72,-152.53"/>
<polygon fill="#63b8ff" stroke="#63b8ff" points="855.72,-177.8 850.38,-186.95 860.26,-183.12 855.72,-177.8"/>
</a>
</g>
</g>
<!-- Node13 -->
<g id="Node000013" class="node">
<title>Node13</title>
<g id="a_Node000013"><a xlink:href="_dm_2_persistent_2_record_8h.html" target="_top" xlink:title=" ">
<polygon fill="white" stroke="#666666" points="1121.12,-146.62 984.38,-146.62 984.38,-127.38 1121.12,-127.38 1121.12,-146.62"/>
<text text-anchor="middle" x="1052.75" y="-133.12" font-family="Helvetica,sans-Serif" font-size="10.00">Cpl/Dm/Persistent/Record.h</text>
</a>
</g>
</g>
<!-- Node1&#45;&gt;Node13 -->
<g id="edge15_Node000001_Node000013" class="edge">
<title>Node1&#45;&gt;Node13</title>
<g id="a_edge15_Node000001_Node000013"><a xlink:title=" ">
<path fill="none" stroke="#63b8ff" d="M882.66,-184.8C923.35,-173.6 982.97,-157.2 1019.74,-147.08"/>
<polygon fill="#63b8ff" stroke="#63b8ff" points="881.89,-181.38 873.18,-187.4 883.75,-188.13 881.89,-181.38"/>
</a>
</g>
</g>
<!-- Node18 -->
<g id="Node000018" class="node">
<title>Node18</title>
<g id="a_Node000018"><a xlink:href="_cpl_2_m_app_2_temperature_2_api_8h.html" target="_top" xlink:title=" ">
<polygon fill="white" stroke="#666666" points="1256,-152.25 1139.5,-152.25 1139.5,-121.75 1256,-121.75 1256,-152.25"/>
<text text-anchor="start" x="1147.5" y="-138.75" font-family="Helvetica,sans-Serif" font-size="10.00">Cpl/MApp/Temperature</text>
<text text-anchor="middle" x="1197.75" y="-127.5" font-family="Helvetica,sans-Serif" font-size="10.00">/Api.h</text>
</a>
</g>
</g>
<!-- Node1&#45;&gt;Node18 -->
<g id="edge21_Node000001_Node000018" class="edge">
<title>Node1&#45;&gt;Node18</title>
<g id="a_edge21_Node000001_Node000018"><a xlink:title=" ">
<path fill="none" stroke="#63b8ff" d="M901.25,-188.29C960.29,-179.95 1051.25,-166.48 1129.75,-152.25 1132.84,-151.69 1136,-151.1 1139.18,-150.48"/>
<polygon fill="#63b8ff" stroke="#63b8ff" points="900.79,-184.82 891.38,-189.68 901.77,-191.76 900.79,-184.82"/>
</a>
</g>
</g>
<!-- Node19 -->
<g id="Node000019" class="node">
<title>Node19</title>
<g id="a_Node000019"><a xlink:href="_ajax_2_thermistor_8h.html" target="_top" xlink:title=" ">
<polygon fill="white" stroke="#666666" points="1415,-146.62 1274.5,-146.62 1274.5,-127.38 1415,-127.38 1415,-146.62"/>
<text text-anchor="middle" x="1344.75" y="-133.12" font-family="Helvetica,sans-Serif" font-size="10.00">Driver/AIO/Ajax/Thermistor.h</text>
</a>
</g>
</g>
<!-- Node1&#45;&gt;Node19 -->
<g id="edge22_Node000001_Node000019" class="edge">
<title>Node1&#45;&gt;Node19</title>
<g id="a_edge22_Node000001_Node000019"><a xlink:title=" ">
<path fill="none" stroke="#63b8ff" d="M900.98,-191.77C984.11,-184.62 1135.88,-170.45 1264.75,-152.25 1275.23,-150.77 1286.43,-148.93 1297.04,-147.08"/>
<polygon fill="#63b8ff" stroke="#63b8ff" points="900.89,-188.26 891.22,-192.6 901.48,-195.24 900.89,-188.26"/>
</a>
</g>
</g>
<!-- Node21 -->
<g id="Node000021" class="node">
<title>Node21</title>
<g id="a_Node000021"><a xlink:href="_eros_2_test_2_cycle_2_api_8h.html" target="_top" xlink:title=" ">
<polygon fill="white" stroke="#666666" points="1542.62,-146.62 1432.88,-146.62 1432.88,-127.38 1542.62,-127.38 1542.62,-146.62"/>
<text text-anchor="middle" x="1487.75" y="-133.12" font-family="Helvetica,sans-Serif" font-size="10.00">Eros/Test/Cycle/Api.h</text>
</a>
</g>
</g>
<!-- Node1&#45;&gt;Node21 -->
<g id="edge24_Node000001_Node000021" class="edge">
<title>Node1&#45;&gt;Node21</title>
<g id="a_edge24_Node000001_Node000021"><a xlink:title=" ">
<path fill="none" stroke="#63b8ff" d="M901.14,-195.04C1008.45,-191.24 1234.68,-180.36 1423.75,-152.25 1432.64,-150.93 1442.14,-149.06 1451.03,-147.12"/>
<polygon fill="#63b8ff" stroke="#63b8ff" points="901.27,-191.54 891.4,-195.38 901.51,-198.53 901.27,-191.54"/>
</a>
</g>
</g>
<!-- Node3&#45;&gt;Node2 -->
<g id="edge3_Node000003_Node000002" class="edge">
<title>Node3&#45;&gt;Node2</title>
<g id="a_edge3_Node000003_Node000002"><a xlink:title=" ">
<path fill="none" stroke="#63b8ff" d="M145.01,-116.44C120.74,-104.49 90.86,-89.77 72.05,-80.51"/>
<polygon fill="#63b8ff" stroke="#63b8ff" points="143.15,-119.42 153.67,-120.7 146.24,-113.14 143.15,-119.42"/>
</a>
</g>
</g>
<!-- Node4 -->
<g id="Node000004" class="node">
<title>Node4</title>
<g id="a_Node000004"><a xlink:href="_heating_2_simulated_2_house_8h_source.html" target="_top" xlink:title=" ">
<polygon fill="white" stroke="#666666" points="243.75,-85.75 125.75,-85.75 125.75,-55.25 243.75,-55.25 243.75,-85.75"/>
<text text-anchor="start" x="133.75" y="-72.25" font-family="Helvetica,sans-Serif" font-size="10.00">Ajax/Heating/Simulated</text>
<text text-anchor="middle" x="184.75" y="-61" font-family="Helvetica,sans-Serif" font-size="10.00">/House.h</text>
</a>
</g>
</g>
<!-- Node3&#45;&gt;Node4 -->
<g id="edge4_Node000003_Node000004" class="edge">
<title>Node3&#45;&gt;Node4</title>
<g id="a_edge4_Node000003_Node000004"><a xlink:title=" ">
<path fill="none" stroke="#63b8ff" d="M184.75,-110.06C184.75,-101.89 184.75,-93.16 184.75,-86.08"/>
<polygon fill="#63b8ff" stroke="#63b8ff" points="181.25,-109.85 184.75,-119.85 188.25,-109.85 181.25,-109.85"/>
</a>
</g>
</g>
<!-- Node7 -->
<g id="Node000007" class="node">
<title>Node7</title>
<g id="a_Node000007"><a xlink:href="_ajax_2_ui_2_about_2_screen_8h.html" target="_top" xlink:title=" ">
<polygon fill="white" stroke="#666666" points="665.38,-80.12 548.12,-80.12 548.12,-60.88 665.38,-60.88 665.38,-80.12"/>
<text text-anchor="middle" x="606.75" y="-66.62" font-family="Helvetica,sans-Serif" font-size="10.00">Ajax/Ui/About/Screen.h</text>
</a>
</g>
</g>
<!-- Node6&#45;&gt;Node7 -->
<g id="edge7_Node000006_Node000007" class="edge">
<title>Node6&#45;&gt;Node7</title>
<g id="a_edge7_Node000006_Node000007"><a xlink:title=" ">
<path fill="none" stroke="#63b8ff" d="M552.36,-119.56C566.45,-107.11 585.28,-90.47 596.69,-80.39"/>
<polygon fill="#63b8ff" stroke="#63b8ff" points="550.21,-116.79 545.03,-126.03 554.85,-122.03 550.21,-116.79"/>
</a>
</g>
</g>
<!-- Node9 -->
<g id="Node000009" class="node">
<title>Node9</title>
<g id="a_Node000009"><a xlink:href="_ajax_2_ui_2_edit_setpt_2_screen_8h.html" target="_top" xlink:title=" ">
<polygon fill="white" stroke="#666666" points="393.5,-80.12 262,-80.12 262,-60.88 393.5,-60.88 393.5,-80.12"/>
<text text-anchor="middle" x="327.75" y="-66.62" font-family="Helvetica,sans-Serif" font-size="10.00">Ajax/Ui/EditSetpt/Screen.h</text>
</a>
</g>
</g>
<!-- Node6&#45;&gt;Node9 -->
<g id="edge9_Node000006_Node000009" class="edge">
<title>Node6&#45;&gt;Node9</title>
<g id="a_edge9_Node000006_Node000009"><a xlink:title=" ">
<path fill="none" stroke="#63b8ff" d="M493.92,-123.53C453.68,-110.93 392.5,-91.77 356.68,-80.56"/>
<polygon fill="#63b8ff" stroke="#63b8ff" points="492.64,-126.8 503.23,-126.44 494.73,-120.12 492.64,-126.8"/>
</a>
</g>
</g>
<!-- Node10 -->
<g id="Node000010" class="node">
<title>Node10</title>
<g id="a_Node000010"><a xlink:href="_ajax_2_ui_2_home_2_screen_8h.html" target="_top" xlink:title=" ">
<polygon fill="white" stroke="#666666" points="529.75,-80.12 411.75,-80.12 411.75,-60.88 529.75,-60.88 529.75,-80.12"/>
<text text-anchor="middle" x="470.75" y="-66.62" font-family="Helvetica,sans-Serif" font-size="10.00">Ajax/Ui/Home/Screen.h</text>
</a>
</g>
</g>
<!-- Node6&#45;&gt;Node10 -->
<g id="edge11_Node000006_Node000010" class="edge">
<title>Node6&#45;&gt;Node10</title>
<g id="a_edge11_Node000006_Node000010"><a xlink:title=" ">
<path fill="none" stroke="#63b8ff" d="M516.99,-118.84C504.91,-106.47 489.09,-90.28 479.44,-80.39"/>
<polygon fill="#63b8ff" stroke="#63b8ff" points="514.44,-121.24 523.93,-125.95 519.45,-116.35 514.44,-121.24"/>
</a>
</g>
</g>
<!-- Node8 -->
<g id="Node000008" class="node">
<title>Node8</title>
<g id="a_Node000008"><a xlink:href="_ajax_2_main_2screens_8h.html" target="_top" xlink:title="This file exposes handles to Screen instances for the Ajax Application.">
<polygon fill="white" stroke="#666666" points="522.62,-19.25 418.88,-19.25 418.88,0 522.62,0 522.62,-19.25"/>
<text text-anchor="middle" x="470.75" y="-5.75" font-family="Helvetica,sans-Serif" font-size="10.00">Ajax/Main/screens.h</text>
</a>
</g>
</g>
<!-- Node7&#45;&gt;Node8 -->
<g id="edge8_Node000007_Node000008" class="edge">
<title>Node7&#45;&gt;Node8</title>
<g id="a_edge8_Node000007_Node000008"><a xlink:title=" ">
<path fill="none" stroke="#63b8ff" d="M575.43,-55.94C549.66,-44.79 513.85,-29.28 491.5,-19.61"/>
<polygon fill="#63b8ff" stroke="#63b8ff" points="573.84,-59.07 584.41,-59.83 576.62,-52.64 573.84,-59.07"/>
</a>
</g>
</g>
<!-- Node9&#45;&gt;Node8 -->
<g id="edge10_Node000009_Node000008" class="edge">
<title>Node9&#45;&gt;Node8</title>
<g id="a_edge10_Node000009_Node000008"><a xlink:title=" ">
<path fill="none" stroke="#63b8ff" d="M360.31,-56.09C387.44,-44.92 425.33,-29.33 448.93,-19.61"/>
<polygon fill="#63b8ff" stroke="#63b8ff" points="359.09,-52.81 351.18,-59.85 361.76,-59.28 359.09,-52.81"/>
</a>
</g>
</g>
<!-- Node10&#45;&gt;Node8 -->
<g id="edge12_Node000010_Node000008" class="edge">
<title>Node10&#45;&gt;Node8</title>
<g id="a_edge12_Node000010_Node000008"><a xlink:title=" ">
<path fill="none" stroke="#63b8ff" d="M470.75,-49.07C470.75,-39.04 470.75,-27.46 470.75,-19.65"/>
<polygon fill="#63b8ff" stroke="#63b8ff" points="467.25,-49.04 470.75,-59.04 474.25,-49.04 467.25,-49.04"/>
</a>
</g>
</g>
<!-- Node14 -->
<g id="Node000014" class="node">
<title>Node14</title>
<g id="a_Node000014"><a xlink:href="_metrics_record_8h.html" target="_top" xlink:title=" ">
<polygon fill="white" stroke="#666666" points="908.88,-80.12 776.62,-80.12 776.62,-60.88 908.88,-60.88 908.88,-80.12"/>
<text text-anchor="middle" x="842.75" y="-66.62" font-family="Helvetica,sans-Serif" font-size="10.00">Ajax/Main/MetricsRecord.h</text>
</a>
</g>
</g>
<!-- Node13&#45;&gt;Node14 -->
<g id="edge16_Node000013_Node000014" class="edge">
<title>Node13&#45;&gt;Node14</title>
<g id="a_edge16_Node000013_Node000014"><a xlink:title=" ">
<path fill="none" stroke="#63b8ff" d="M1012.14,-123.53C971.13,-110.93 908.75,-91.77 872.24,-80.56"/>
<polygon fill="#63b8ff" stroke="#63b8ff" points="1011.07,-126.86 1021.66,-126.45 1013.13,-120.17 1011.07,-126.86"/>
</a>
</g>
</g>
<!-- Node15 -->
<g id="Node000015" class="node">
<title>Node15</title>
<g id="a_Node000015"><a xlink:href="_personality_record_8h.html" target="_top" xlink:title=" ">
<polygon fill="white" stroke="#666666" points="1241.75,-80.12 1093.75,-80.12 1093.75,-60.88 1241.75,-60.88 1241.75,-80.12"/>
<text text-anchor="middle" x="1167.75" y="-66.62" font-family="Helvetica,sans-Serif" font-size="10.00">Ajax/Main/PersonalityRecord.h</text>
</a>
</g>
</g>
<!-- Node13&#45;&gt;Node15 -->
<g id="edge18_Node000013_Node000015" class="edge">
<title>Node13&#45;&gt;Node15</title>
<g id="a_edge18_Node000013_Node000015"><a xlink:title=" ">
<path fill="none" stroke="#63b8ff" d="M1078.57,-121.52C1100.93,-108.98 1132.56,-91.24 1151.52,-80.6"/>
<polygon fill="#63b8ff" stroke="#63b8ff" points="1077.07,-118.35 1070.06,-126.29 1080.49,-124.45 1077.07,-118.35"/>
</a>
</g>
</g>
<!-- Node17 -->
<g id="Node000017" class="node">
<title>Node17</title>
<g id="a_Node000017"><a xlink:href="_user_record_8h.html" target="_top" xlink:title=" ">
<polygon fill="white" stroke="#666666" points="1075.25,-80.12 954.25,-80.12 954.25,-60.88 1075.25,-60.88 1075.25,-80.12"/>
<text text-anchor="middle" x="1014.75" y="-66.62" font-family="Helvetica,sans-Serif" font-size="10.00">Ajax/Main/UserRecord.h</text>
</a>
</g>
</g>
<!-- Node13&#45;&gt;Node17 -->
<g id="edge20_Node000013_Node000017" class="edge">
<title>Node13&#45;&gt;Node17</title>
<g id="a_edge20_Node000013_Node000017"><a xlink:title=" ">
<path fill="none" stroke="#63b8ff" d="M1041.78,-117.39C1034.62,-105.23 1025.59,-89.89 1019.99,-80.39"/>
<polygon fill="#63b8ff" stroke="#63b8ff" points="1038.61,-118.89 1046.7,-125.73 1044.64,-115.33 1038.61,-118.89"/>
</a>
</g>
</g>
<!-- Node14&#45;&gt;Node5 -->
<g id="edge17_Node000014_Node000005" class="edge">
<title>Node14&#45;&gt;Node5</title>
<g id="a_edge17_Node000014_Node000005"><a xlink:title=" ">
<path fill="none" stroke="#63b8ff" d="M822.53,-53.63C808.65,-42.73 790.74,-28.67 779.25,-19.65"/>
<polygon fill="#63b8ff" stroke="#63b8ff" points="820.14,-56.2 830.17,-59.62 824.46,-50.7 820.14,-56.2"/>
</a>
</g>
</g>
<!-- Node16 -->
<g id="Node000016" class="node">
<title>Node16</title>
<g id="a_Node000016"><a xlink:href="_provision_8h.html" target="_top" xlink:title=" ">
<polygon fill="white" stroke="#666666" points="1226,-19.25 1109.5,-19.25 1109.5,0 1226,0 1226,-19.25"/>
<text text-anchor="middle" x="1167.75" y="-5.75" font-family="Helvetica,sans-Serif" font-size="10.00">Ajax/TShell/Provision.h</text>
</a>
</g>
</g>
<!-- Node15&#45;&gt;Node16 -->
<g id="edge19_Node000015_Node000016" class="edge">
<title>Node15&#45;&gt;Node16</title>
<g id="a_edge19_Node000015_Node000016"><a xlink:title=" ">
<path fill="none" stroke="#63b8ff" d="M1167.75,-49.07C1167.75,-39.04 1167.75,-27.46 1167.75,-19.65"/>
<polygon fill="#63b8ff" stroke="#63b8ff" points="1164.25,-49.04 1167.75,-59.04 1171.25,-49.04 1164.25,-49.04"/>
</a>
</g>
</g>
<!-- Node20 -->
<g id="Node000020" class="node">
<title>Node20</title>
<g id="a_Node000020"><a xlink:href="_eros_2_thermistor_8h.html" target="_top" xlink:title=" ">
<polygon fill="white" stroke="#666666" points="1415.38,-80.12 1274.12,-80.12 1274.12,-60.88 1415.38,-60.88 1415.38,-80.12"/>
<text text-anchor="middle" x="1344.75" y="-66.62" font-family="Helvetica,sans-Serif" font-size="10.00">Driver/AIO/Eros/Thermistor.h</text>
</a>
</g>
</g>
<!-- Node19&#45;&gt;Node20 -->
<g id="edge23_Node000019_Node000020" class="edge">
<title>Node19&#45;&gt;Node20</title>
<g id="a_edge23_Node000019_Node000020"><a xlink:title=" ">
<path fill="none" stroke="#63b8ff" d="M1344.75,-115.52C1344.75,-103.69 1344.75,-89.41 1344.75,-80.39"/>
<polygon fill="#63b8ff" stroke="#63b8ff" points="1341.25,-115.52 1344.75,-125.52 1348.25,-115.52 1341.25,-115.52"/>
</a>
</g>
</g>
</g>
</svg>
