<?xml version="1.0" encoding="UTF-8" standalone="no"?>
<!DOCTYPE svg PUBLIC "-//W3C//DTD SVG 1.1//EN"
 "http://www.w3.org/Graphics/SVG/1.1/DTD/svg11.dtd">
<!-- Generated by graphviz version 9.0.0 (20230911.1827)
 -->
<!-- Title: Cpl/Logging/TimeApi.h Pages: 1 -->
<svg width="349pt" height="149pt"
 viewBox="0.00 0.00 348.50 149.00" xmlns="http://www.w3.org/2000/svg" xmlns:xlink="http://www.w3.org/1999/xlink">
<g id="graph0" class="graph" transform="scale(1 1) rotate(0) translate(4 145)">
<title>Cpl/Logging/TimeApi.h</title>
<!-- Node1 -->
<g id="Node000001" class="node">
<title>Node1</title>
<g id="a_Node000001"><a xlink:title=" ">
<polygon fill="#999999" stroke="#666666" points="163.38,-141 49.12,-141 49.12,-121.75 163.38,-121.75 163.38,-141"/>
<text text-anchor="middle" x="106.25" y="-127.5" font-family="Helvetica,sans-Serif" font-size="10.00">Cpl/Logging/TimeApi.h</text>
</a>
</g>
</g>
<!-- Node2 -->
<g id="Node000002" class="node">
<title>Node2</title>
<g id="a_Node000002"><a xlink:href="_cpl_2_logging_2_api_8h.html" target="_top" xlink:title=" ">
<polygon fill="white" stroke="#666666" points="92.5,-24.88 0,-24.88 0,-5.63 92.5,-5.63 92.5,-24.88"/>
<text text-anchor="middle" x="46.25" y="-11.38" font-family="Helvetica,sans-Serif" font-size="10.00">Cpl/Logging/Api.h</text>
</a>
</g>
</g>
<!-- Node1&#45;&gt;Node2 -->
<g id="edge1_Node000001_Node000002" class="edge">
<title>Node1&#45;&gt;Node2</title>
<g id="a_edge1_Node000001_Node000002"><a xlink:title=" ">
<path fill="none" stroke="#63b8ff" d="M96.25,-111.36C83.14,-86.41 60.64,-43.63 50.94,-25.16"/>
<polygon fill="#63b8ff" stroke="#63b8ff" points="93.09,-112.86 100.84,-120.08 99.28,-109.6 93.09,-112.86"/>
</a>
</g>
</g>
<!-- Node3 -->
<g id="Node000003" class="node">
<title>Node3</title>
<g id="a_Node000003"><a xlink:href="_entry_data___t_8h.html" target="_top" xlink:title=" ">
<polygon fill="white" stroke="#666666" points="226,-85.75 94.5,-85.75 94.5,-66.5 226,-66.5 226,-85.75"/>
<text text-anchor="middle" x="160.25" y="-72.25" font-family="Helvetica,sans-Serif" font-size="10.00">Cpl/Logging/EntryData_T.h</text>
</a>
</g>
</g>
<!-- Node1&#45;&gt;Node3 -->
<g id="edge2_Node000001_Node000003" class="edge">
<title>Node1&#45;&gt;Node3</title>
<g id="a_edge2_Node000001_Node000003"><a xlink:title=" ">
<path fill="none" stroke="#63b8ff" d="M123.29,-113.57C132.51,-104.48 143.54,-93.6 151.14,-86.11"/>
<polygon fill="#63b8ff" stroke="#63b8ff" points="120.91,-111.01 116.24,-120.52 125.82,-115.99 120.91,-111.01"/>
</a>
</g>
</g>
<!-- Node3&#45;&gt;Node2 -->
<g id="edge3_Node000003_Node000002" class="edge">
<title>Node3&#45;&gt;Node2</title>
<g id="a_edge3_Node000003_Node000002"><a xlink:title=" ">
<path fill="none" stroke="#63b8ff" d="M132.8,-60.95C111.33,-49.86 82.12,-34.78 63.73,-25.28"/>
<polygon fill="#63b8ff" stroke="#63b8ff" points="131.1,-64.01 141.59,-65.49 134.31,-57.79 131.1,-64.01"/>
</a>
</g>
</g>
<!-- Node4 -->
<g id="Node000004" class="node">
<title>Node4</title>
<g id="a_Node000004"><a xlink:href="_log_sink_8h.html" target="_top" xlink:title=" ">
<polygon fill="white" stroke="#666666" points="224.38,-24.88 110.12,-24.88 110.12,-5.63 224.38,-5.63 224.38,-24.88"/>
<text text-anchor="middle" x="167.25" y="-11.38" font-family="Helvetica,sans-Serif" font-size="10.00">Cpl/Logging/LogSink.h</text>
</a>
</g>
</g>
<!-- Node3&#45;&gt;Node4 -->
<g id="edge4_Node000003_Node000004" class="edge">
<title>Node3&#45;&gt;Node4</title>
<g id="a_edge4_Node000003_Node000004"><a xlink:title=" ">
<path fill="none" stroke="#63b8ff" d="M162.64,-55.03C163.84,-44.92 165.24,-33.17 166.18,-25.28"/>
<polygon fill="#63b8ff" stroke="#63b8ff" points="159.2,-54.34 161.49,-64.68 166.15,-55.16 159.2,-54.34"/>
</a>
</g>
</g>
<!-- Node5 -->
<g id="Node000005" class="node">
<title>Node5</title>
<g id="a_Node000005"><a xlink:href="_log_8h.html" target="_top" xlink:title=" ">
<polygon fill="white" stroke="#666666" points="340.5,-30.5 242,-30.5 242,0 340.5,0 340.5,-30.5"/>
<text text-anchor="start" x="250" y="-17" font-family="Helvetica,sans-Serif" font-size="10.00">Cpl/Logging/TShell</text>
<text text-anchor="middle" x="291.25" y="-5.75" font-family="Helvetica,sans-Serif" font-size="10.00">/Log.h</text>
</a>
</g>
</g>
<!-- Node3&#45;&gt;Node5 -->
<g id="edge5_Node000003_Node000005" class="edge">
<title>Node3&#45;&gt;Node5</title>
<g id="a_edge5_Node000003_Node000005"><a xlink:title=" ">
<path fill="none" stroke="#63b8ff" d="M190.71,-61.44C211.04,-52.3 237.77,-40.29 258.55,-30.94"/>
<polygon fill="#63b8ff" stroke="#63b8ff" points="189.5,-58.14 181.81,-65.43 192.37,-64.53 189.5,-58.14"/>
</a>
</g>
</g>
</g>
</svg>
