<?xml version="1.0" encoding="UTF-8" standalone="no"?>
<!DOCTYPE svg PUBLIC "-//W3C//DTD SVG 1.1//EN"
 "http://www.w3.org/Graphics/SVG/1.1/DTD/svg11.dtd">
<!-- Generated by graphviz version 2.43.0 (0)
 -->
<!-- Title: Cpl/Type/Traverser.h Pages: 1 -->
<svg width="3099pt" height="335pt"
 viewBox="0.00 0.00 3099.00 335.00" xmlns="http://www.w3.org/2000/svg" xmlns:xlink="http://www.w3.org/1999/xlink">
<g id="graph0" class="graph" transform="scale(1 1) rotate(0) translate(4 331)">
<title>Cpl/Type/Traverser.h</title>
<!-- Node1 -->
<g id="Node000001" class="node">
<title>Node1</title>
<g id="a_Node000001"><a xlink:title=" ">
<polygon fill="#999999" stroke="#666666" points="1643,-327 1529,-327 1529,-308 1643,-308 1643,-327"/>
<text text-anchor="middle" x="1586" y="-315" font-family="Helvetica,sans-Serif" font-size="10.00">Cpl/Type/Traverser.h</text>
</a>
</g>
</g>
<!-- Node2 -->
<g id="Node000002" class="node">
<title>Node2</title>
<g id="a_Node000002"><a xlink:href="_cpl_2_io_2_file_2_api_8h.html" target="_top" xlink:title=" ">
<polygon fill="white" stroke="#666666" points="1135,-272 1043,-272 1043,-253 1135,-253 1135,-272"/>
<text text-anchor="middle" x="1089" y="-260" font-family="Helvetica,sans-Serif" font-size="10.00">Cpl/Io/File/Api.h</text>
</a>
</g>
</g>
<!-- Node1&#45;&gt;Node2 -->
<g id="edge1_Node000001_Node000002" class="edge">
<title>Node1&#45;&gt;Node2</title>
<g id="a_edge1_Node000001_Node000002"><a xlink:title=" ">
<path fill="none" stroke="#63b8ff" d="M1518.75,-309.33C1416.18,-298.39 1223.28,-277.82 1135.1,-268.42"/>
<polygon fill="#63b8ff" stroke="#63b8ff" points="1518.67,-312.84 1528.99,-310.42 1519.42,-305.88 1518.67,-312.84"/>
</a>
</g>
</g>
<!-- Node7 -->
<g id="Node000007" class="node">
<title>Node7</title>
<g id="a_Node000007"><a xlink:href="_thread_8h.html" target="_top" xlink:title=" ">
<polygon fill="white" stroke="#666666" points="2234,-272 2116,-272 2116,-253 2234,-253 2234,-272"/>
<text text-anchor="middle" x="2175" y="-260" font-family="Helvetica,sans-Serif" font-size="10.00">Cpl/System/Thread.h</text>
</a>
</g>
</g>
<!-- Node1&#45;&gt;Node7 -->
<g id="edge6_Node000001_Node000007" class="edge">
<title>Node1&#45;&gt;Node7</title>
<g id="a_edge6_Node000001_Node000007"><a xlink:title=" ">
<path fill="none" stroke="#63b8ff" d="M1653.19,-310.45C1769.26,-300.01 2005.47,-278.75 2115.78,-268.83"/>
<polygon fill="#63b8ff" stroke="#63b8ff" points="1652.66,-306.99 1643.01,-311.37 1653.28,-313.96 1652.66,-306.99"/>
</a>
</g>
</g>
<!-- Node3 -->
<g id="Node000003" class="node">
<title>Node3</title>
<g id="a_Node000003"><a xlink:href="_arduino_2__sd_fat_2__api_2_dir_list___8h.html" target="_top" xlink:title=" ">
<polygon fill="white" stroke="#666666" points="902,-217 780,-217 780,-187 902,-187 902,-217"/>
<text text-anchor="start" x="788" y="-205" font-family="Helvetica,sans-Serif" font-size="10.00">Cpl/Io/File/Arduino</text>
<text text-anchor="middle" x="841" y="-194" font-family="Helvetica,sans-Serif" font-size="10.00">/_sdFat/_api/DirList_.h</text>
</a>
</g>
</g>
<!-- Node2&#45;&gt;Node3 -->
<g id="edge2_Node000002_Node000003" class="edge">
<title>Node2&#45;&gt;Node3</title>
<g id="a_edge2_Node000002_Node000003"><a xlink:title=" ">
<path fill="none" stroke="#63b8ff" d="M1043.15,-250.68C1003,-241.21 944.4,-227.39 900.62,-217.06"/>
<polygon fill="#63b8ff" stroke="#63b8ff" points="1042.4,-254.1 1052.94,-252.99 1044.01,-247.29 1042.4,-254.1"/>
</a>
</g>
</g>
<!-- Node4 -->
<g id="Node000004" class="node">
<title>Node4</title>
<g id="a_Node000004"><a xlink:href="_littlefs_2__api_2_dir_list___8h.html" target="_top" xlink:title=" ">
<polygon fill="white" stroke="#666666" points="1021.5,-217 920.5,-217 920.5,-187 1021.5,-187 1021.5,-217"/>
<text text-anchor="start" x="928.5" y="-205" font-family="Helvetica,sans-Serif" font-size="10.00">Cpl/Io/File/Littlefs</text>
<text text-anchor="middle" x="971" y="-194" font-family="Helvetica,sans-Serif" font-size="10.00">/_api/DirList_.h</text>
</a>
</g>
</g>
<!-- Node2&#45;&gt;Node4 -->
<g id="edge3_Node000002_Node000004" class="edge">
<title>Node2&#45;&gt;Node4</title>
<g id="a_edge3_Node000002_Node000004"><a xlink:title=" ">
<path fill="none" stroke="#63b8ff" d="M1062.7,-248.46C1043.97,-239.18 1018.82,-226.71 999.6,-217.18"/>
<polygon fill="#63b8ff" stroke="#63b8ff" points="1061.33,-251.69 1071.84,-252.99 1064.44,-245.42 1061.33,-251.69"/>
</a>
</g>
</g>
<!-- Node5 -->
<g id="Node000005" class="node">
<title>Node5</title>
<g id="a_Node000005"><a xlink:href="__posix_2__api_2_dir_list___8h.html" target="_top" xlink:title=" ">
<polygon fill="white" stroke="#666666" points="1138.5,-217 1039.5,-217 1039.5,-187 1138.5,-187 1138.5,-217"/>
<text text-anchor="start" x="1047.5" y="-205" font-family="Helvetica,sans-Serif" font-size="10.00">Cpl/Io/File/_posix</text>
<text text-anchor="middle" x="1089" y="-194" font-family="Helvetica,sans-Serif" font-size="10.00">/_api/DirList_.h</text>
</a>
</g>
</g>
<!-- Node2&#45;&gt;Node5 -->
<g id="edge4_Node000002_Node000005" class="edge">
<title>Node2&#45;&gt;Node5</title>
<g id="a_edge4_Node000002_Node000005"><a xlink:title=" ">
<path fill="none" stroke="#63b8ff" d="M1089,-242.65C1089,-234.36 1089,-224.78 1089,-217.11"/>
<polygon fill="#63b8ff" stroke="#63b8ff" points="1085.5,-242.87 1089,-252.87 1092.5,-242.87 1085.5,-242.87"/>
</a>
</g>
</g>
<!-- Node6 -->
<g id="Node000006" class="node">
<title>Node6</title>
<g id="a_Node000006"><a xlink:href="__win32_2__api_2_dir_list___8h.html" target="_top" xlink:title=" ">
<polygon fill="white" stroke="#666666" points="1259,-217 1157,-217 1157,-187 1259,-187 1259,-217"/>
<text text-anchor="start" x="1165" y="-205" font-family="Helvetica,sans-Serif" font-size="10.00">Cpl/Io/File/_win32</text>
<text text-anchor="middle" x="1208" y="-194" font-family="Helvetica,sans-Serif" font-size="10.00">/_api/DirList_.h</text>
</a>
</g>
</g>
<!-- Node2&#45;&gt;Node6 -->
<g id="edge5_Node000002_Node000006" class="edge">
<title>Node2&#45;&gt;Node6</title>
<g id="a_edge5_Node000002_Node000006"><a xlink:title=" ">
<path fill="none" stroke="#63b8ff" d="M1115.52,-248.46C1134.41,-239.18 1159.77,-226.71 1179.16,-217.18"/>
<polygon fill="#63b8ff" stroke="#63b8ff" points="1113.73,-245.44 1106.3,-252.99 1116.82,-251.72 1113.73,-245.44"/>
</a>
</g>
</g>
<!-- Node8 -->
<g id="Node000008" class="node">
<title>Node8</title>
<g id="a_Node000008"><a xlink:href="_dm_2_event_loop_8h.html" target="_top" xlink:title=" ">
<polygon fill="white" stroke="#666666" points="1393,-211.5 1277,-211.5 1277,-192.5 1393,-192.5 1393,-211.5"/>
<text text-anchor="middle" x="1335" y="-199.5" font-family="Helvetica,sans-Serif" font-size="10.00">Cpl/Dm/EventLoop.h</text>
</a>
</g>
</g>
<!-- Node7&#45;&gt;Node8 -->
<g id="edge7_Node000007_Node000008" class="edge">
<title>Node7&#45;&gt;Node8</title>
<g id="a_edge7_Node000007_Node000008"><a xlink:title=" ">
<path fill="none" stroke="#63b8ff" d="M2105.77,-260.28C1971.51,-257.29 1666.56,-247.45 1412,-217 1400.53,-215.63 1388.19,-213.62 1376.82,-211.56"/>
<polygon fill="#63b8ff" stroke="#63b8ff" points="2105.84,-263.78 2115.91,-260.5 2105.99,-256.78 2105.84,-263.78"/>
</a>
</g>
</g>
<!-- Node89 -->
<g id="Node000089" class="node">
<title>Node89</title>
<g id="a_Node000089"><a xlink:href="_stream_driver_8h.html" target="_top" xlink:title=" ">
<polygon fill="white" stroke="#666666" points="1547,-217 1421,-217 1421,-187 1547,-187 1547,-217"/>
<text text-anchor="start" x="1429" y="-205" font-family="Helvetica,sans-Serif" font-size="10.00">Cpl/Io/Serial/ST/M32F4</text>
<text text-anchor="middle" x="1484" y="-194" font-family="Helvetica,sans-Serif" font-size="10.00">/StreamDriver.h</text>
</a>
</g>
</g>
<!-- Node7&#45;&gt;Node89 -->
<g id="edge30_Node000007_Node000089" class="edge">
<title>Node7&#45;&gt;Node89</title>
<g id="a_edge30_Node000007_Node000089"><a xlink:title=" ">
<path fill="none" stroke="#63b8ff" d="M2105.63,-258.9C1991.61,-254.09 1757.64,-241.93 1561,-217 1556.55,-216.44 1551.97,-215.78 1547.37,-215.08"/>
<polygon fill="#63b8ff" stroke="#63b8ff" points="2105.81,-262.41 2115.95,-259.33 2106.1,-255.42 2105.81,-262.41"/>
</a>
</g>
</g>
<!-- Node91 -->
<g id="Node000091" class="node">
<title>Node91</title>
<g id="a_Node000091"><a xlink:href="_listener___8h.html" target="_top" xlink:title=" ">
<polygon fill="white" stroke="#666666" points="1706,-211.5 1570,-211.5 1570,-192.5 1706,-192.5 1706,-211.5"/>
<text text-anchor="middle" x="1638" y="-199.5" font-family="Helvetica,sans-Serif" font-size="10.00">Cpl/Io/Socket/Listener_.h</text>
</a>
</g>
</g>
<!-- Node7&#45;&gt;Node91 -->
<g id="edge32_Node000007_Node000091" class="edge">
<title>Node7&#45;&gt;Node91</title>
<g id="a_edge32_Node000007_Node000091"><a xlink:title=" ">
<path fill="none" stroke="#63b8ff" d="M2105.9,-256.62C2015.72,-249.84 1853.12,-236.2 1715,-217 1704.1,-215.48 1692.39,-213.53 1681.47,-211.56"/>
<polygon fill="#63b8ff" stroke="#63b8ff" points="2105.77,-260.12 2116,-257.38 2106.29,-253.14 2105.77,-260.12"/>
</a>
</g>
</g>
<!-- Node94 -->
<g id="Node000094" class="node">
<title>Node94</title>
<g id="a_Node000094"><a xlink:href="_bare_metal_2_thread_8h.html" target="_top" xlink:title=" ">
<polygon fill="white" stroke="#666666" points="1849.5,-217 1724.5,-217 1724.5,-187 1849.5,-187 1849.5,-217"/>
<text text-anchor="start" x="1732.5" y="-205" font-family="Helvetica,sans-Serif" font-size="10.00">Cpl/System/BareMetal</text>
<text text-anchor="middle" x="1787" y="-194" font-family="Helvetica,sans-Serif" font-size="10.00">/Thread.h</text>
</a>
</g>
</g>
<!-- Node7&#45;&gt;Node94 -->
<g id="edge35_Node000007_Node000094" class="edge">
<title>Node7&#45;&gt;Node94</title>
<g id="a_edge35_Node000007_Node000094"><a xlink:title=" ">
<path fill="none" stroke="#63b8ff" d="M2105.75,-252.8C2041.62,-244.5 1943.67,-231.18 1859,-217 1855.99,-216.5 1852.9,-215.96 1849.79,-215.41"/>
<polygon fill="#63b8ff" stroke="#63b8ff" points="2105.38,-256.29 2115.74,-254.09 2106.27,-249.34 2105.38,-256.29"/>
</a>
</g>
</g>
<!-- Node95 -->
<g id="Node000095" class="node">
<title>Node95</title>
<g id="a_Node000095"><a xlink:href="_cpp11_2_thread_8h.html" target="_top" xlink:title=" ">
<polygon fill="white" stroke="#666666" points="2020,-211.5 1868,-211.5 1868,-192.5 2020,-192.5 2020,-211.5"/>
<text text-anchor="middle" x="1944" y="-199.5" font-family="Helvetica,sans-Serif" font-size="10.00">Cpl/System/Cpp11/Thread.h</text>
</a>
</g>
</g>
<!-- Node7&#45;&gt;Node95 -->
<g id="edge36_Node000007_Node000095" class="edge">
<title>Node7&#45;&gt;Node95</title>
<g id="a_edge36_Node000007_Node000095"><a xlink:title=" ">
<path fill="none" stroke="#63b8ff" d="M2131.71,-250.54C2087.06,-239.23 2018.37,-221.83 1977.63,-211.52"/>
<polygon fill="#63b8ff" stroke="#63b8ff" points="2130.86,-253.93 2141.41,-252.99 2132.58,-247.15 2130.86,-253.93"/>
</a>
</g>
</g>
<!-- Node96 -->
<g id="Node000096" class="node">
<title>Node96</title>
<g id="a_Node000096"><a xlink:href="_free_r_t_o_s_2_thread_8h.html" target="_top" xlink:title=" ">
<polygon fill="white" stroke="#666666" points="2160,-217 2038,-217 2038,-187 2160,-187 2160,-217"/>
<text text-anchor="start" x="2046" y="-205" font-family="Helvetica,sans-Serif" font-size="10.00">Cpl/System/FreeRTOS</text>
<text text-anchor="middle" x="2099" y="-194" font-family="Helvetica,sans-Serif" font-size="10.00">/Thread.h</text>
</a>
</g>
</g>
<!-- Node7&#45;&gt;Node96 -->
<g id="edge37_Node000007_Node000096" class="edge">
<title>Node7&#45;&gt;Node96</title>
<g id="a_edge37_Node000007_Node000096"><a xlink:title=" ">
<path fill="none" stroke="#63b8ff" d="M2155.86,-246.77C2144.05,-237.68 2128.99,-226.09 2117.34,-217.11"/>
<polygon fill="#63b8ff" stroke="#63b8ff" points="2153.73,-249.54 2163.79,-252.87 2158,-243.99 2153.73,-249.54"/>
</a>
</g>
</g>
<!-- Node97 -->
<g id="Node000097" class="node">
<title>Node97</title>
<g id="a_Node000097"><a xlink:href="_posix_2_thread_8h.html" target="_top" xlink:title=" ">
<polygon fill="white" stroke="#666666" points="2325.5,-211.5 2178.5,-211.5 2178.5,-192.5 2325.5,-192.5 2325.5,-211.5"/>
<text text-anchor="middle" x="2252" y="-199.5" font-family="Helvetica,sans-Serif" font-size="10.00">Cpl/System/Posix/Thread.h</text>
</a>
</g>
</g>
<!-- Node7&#45;&gt;Node97 -->
<g id="edge38_Node000007_Node000097" class="edge">
<title>Node7&#45;&gt;Node97</title>
<g id="a_edge38_Node000007_Node000097"><a xlink:title=" ">
<path fill="none" stroke="#63b8ff" d="M2194.69,-246.54C2209.23,-235.49 2228.52,-220.84 2240.59,-211.67"/>
<polygon fill="#63b8ff" stroke="#63b8ff" points="2192.21,-244.03 2186.36,-252.87 2196.44,-249.61 2192.21,-244.03"/>
</a>
</g>
</g>
<!-- Node98 -->
<g id="Node000098" class="node">
<title>Node98</title>
<g id="a_Node000098"><a xlink:href="_system_2_trace_8h.html" target="_top" xlink:title=" ">
<polygon fill="white" stroke="#666666" points="2454,-211.5 2344,-211.5 2344,-192.5 2454,-192.5 2454,-211.5"/>
<text text-anchor="middle" x="2399" y="-199.5" font-family="Helvetica,sans-Serif" font-size="10.00">Cpl/System/Trace.h</text>
</a>
</g>
</g>
<!-- Node7&#45;&gt;Node98 -->
<g id="edge39_Node000007_Node000098" class="edge">
<title>Node7&#45;&gt;Node98</title>
<g id="a_edge39_Node000007_Node000098"><a xlink:title=" ">
<path fill="none" stroke="#63b8ff" d="M2217.52,-250.4C2260.83,-239.08 2327.05,-221.79 2366.39,-211.52"/>
<polygon fill="#63b8ff" stroke="#63b8ff" points="2216.36,-247.08 2207.57,-252.99 2218.13,-253.85 2216.36,-247.08"/>
</a>
</g>
</g>
<!-- Node105 -->
<g id="Node000105" class="node">
<title>Node105</title>
<g id="a_Node000105"><a xlink:href="_win32_2_thread_8h.html" target="_top" xlink:title=" ">
<polygon fill="white" stroke="#666666" points="2624,-211.5 2472,-211.5 2472,-192.5 2624,-192.5 2624,-211.5"/>
<text text-anchor="middle" x="2548" y="-199.5" font-family="Helvetica,sans-Serif" font-size="10.00">Cpl/System/Win32/Thread.h</text>
</a>
</g>
</g>
<!-- Node7&#45;&gt;Node105 -->
<g id="edge45_Node000007_Node000105" class="edge">
<title>Node7&#45;&gt;Node105</title>
<g id="a_edge45_Node000007_Node000105"><a xlink:title=" ">
<path fill="none" stroke="#63b8ff" d="M2241.51,-251.41C2299.9,-242.51 2387.12,-229.11 2463,-217 2473.93,-215.26 2485.64,-213.35 2496.77,-211.52"/>
<polygon fill="#63b8ff" stroke="#63b8ff" points="2240.67,-248 2231.32,-252.97 2241.73,-254.92 2240.67,-248"/>
</a>
</g>
</g>
<!-- Node106 -->
<g id="Node000106" class="node">
<title>Node106</title>
<g id="a_Node000106"><a xlink:href="_threads_8h.html" target="_top" xlink:title=" ">
<polygon fill="white" stroke="#666666" points="2787,-211.5 2645,-211.5 2645,-192.5 2787,-192.5 2787,-211.5"/>
<text text-anchor="middle" x="2716" y="-199.5" font-family="Helvetica,sans-Serif" font-size="10.00">Cpl/TShell/Cmd/Threads.h</text>
</a>
</g>
</g>
<!-- Node7&#45;&gt;Node106 -->
<g id="edge46_Node000007_Node000106" class="edge">
<title>Node7&#45;&gt;Node106</title>
<g id="a_edge46_Node000007_Node000106"><a xlink:title=" ">
<path fill="none" stroke="#63b8ff" d="M2244.14,-256.3C2333.96,-249.21 2495.55,-235.25 2633,-217 2644.59,-215.46 2657.04,-213.52 2668.68,-211.57"/>
<polygon fill="#63b8ff" stroke="#63b8ff" points="2243.77,-252.82 2234.08,-257.09 2244.32,-259.8 2243.77,-252.82"/>
</a>
</g>
</g>
<!-- Node109 -->
<g id="Node000109" class="node">
<title>Node109</title>
<g id="a_Node000109"><a xlink:href="_restartable_8h.html" target="_top" xlink:title=" ">
<polygon fill="white" stroke="#666666" points="3091,-145.5 2957,-145.5 2957,-126.5 3091,-126.5 3091,-145.5"/>
<text text-anchor="middle" x="3024" y="-133.5" font-family="Helvetica,sans-Serif" font-size="10.00">Cpl/TShell/Restartable.h</text>
</a>
</g>
</g>
<!-- Node7&#45;&gt;Node109 -->
<g id="edge49_Node000007_Node000109" class="edge">
<title>Node7&#45;&gt;Node109</title>
<g id="a_edge49_Node000007_Node000109"><a xlink:title=" ">
<path fill="none" stroke="#63b8ff" d="M2244.35,-261.63C2384.62,-261.06 2697.07,-255.36 2796,-217 2816.06,-209.22 2814.75,-196.61 2834,-187 2860.1,-173.98 2936.1,-156.04 2983.7,-145.57"/>
<polygon fill="#63b8ff" stroke="#63b8ff" points="2244.14,-258.13 2234.15,-261.66 2244.16,-265.13 2244.14,-258.13"/>
</a>
</g>
</g>
<!-- Node110 -->
<g id="Node000110" class="node">
<title>Node110</title>
<g id="a_Node000110"><a xlink:href="_socket_8h.html" target="_top" xlink:title=" ">
<polygon fill="white" stroke="#666666" points="2953,-211.5 2843,-211.5 2843,-192.5 2953,-192.5 2953,-211.5"/>
<text text-anchor="middle" x="2898" y="-199.5" font-family="Helvetica,sans-Serif" font-size="10.00">Cpl/TShell/Socket.h</text>
</a>
</g>
</g>
<!-- Node7&#45;&gt;Node110 -->
<g id="edge50_Node000007_Node000110" class="edge">
<title>Node7&#45;&gt;Node110</title>
<g id="a_edge50_Node000007_Node000110"><a xlink:title=" ">
<path fill="none" stroke="#63b8ff" d="M2244.46,-259.79C2364.25,-256.17 2617.22,-245.56 2829,-217 2839.3,-215.61 2850.36,-213.6 2860.55,-211.54"/>
<polygon fill="#63b8ff" stroke="#63b8ff" points="2244.23,-256.29 2234.33,-260.09 2244.43,-263.29 2244.23,-256.29"/>
</a>
</g>
</g>
<!-- Node111 -->
<g id="Node000111" class="node">
<title>Node111</title>
<g id="a_Node000111"><a xlink:href="_stdio_8h.html" target="_top" xlink:title=" ">
<polygon fill="white" stroke="#666666" points="3074,-211.5 2972,-211.5 2972,-192.5 3074,-192.5 3074,-211.5"/>
<text text-anchor="middle" x="3023" y="-199.5" font-family="Helvetica,sans-Serif" font-size="10.00">Cpl/TShell/Stdio.h</text>
</a>
</g>
</g>
<!-- Node7&#45;&gt;Node111 -->
<g id="edge51_Node000007_Node000111" class="edge">
<title>Node7&#45;&gt;Node111</title>
<g id="a_edge51_Node000007_Node000111"><a xlink:title=" ">
<path fill="none" stroke="#63b8ff" d="M2244.47,-261.5C2382.1,-260.65 2698.89,-254.36 2962,-217 2971.36,-215.67 2981.4,-213.63 2990.58,-211.51"/>
<polygon fill="#63b8ff" stroke="#63b8ff" points="2244.06,-258.01 2234.08,-261.56 2244.1,-265.01 2244.06,-258.01"/>
</a>
</g>
</g>
<!-- Node9 -->
<g id="Node000009" class="node">
<title>Node9</title>
<g id="a_Node000009"><a xlink:href="_dm_2_mailbox_server_8h.html" target="_top" xlink:title=" ">
<polygon fill="#fff0f0" stroke="red" points="1258,-145.5 1124,-145.5 1124,-126.5 1258,-126.5 1258,-145.5"/>
<text text-anchor="middle" x="1191" y="-133.5" font-family="Helvetica,sans-Serif" font-size="10.00">Cpl/Dm/MailboxServer.h</text>
</a>
</g>
</g>
<!-- Node8&#45;&gt;Node9 -->
<g id="edge8_Node000008_Node000009" class="edge">
<title>Node8&#45;&gt;Node9</title>
<g id="a_edge8_Node000008_Node000009"><a xlink:title=" ">
<path fill="none" stroke="#63b8ff" d="M1306.19,-188.19C1277.81,-175.58 1235.23,-156.66 1210.57,-145.7"/>
<polygon fill="#63b8ff" stroke="#63b8ff" points="1305.02,-191.51 1315.58,-192.37 1307.86,-185.11 1305.02,-191.51"/>
</a>
</g>
</g>
<!-- Node54 -->
<g id="Node000054" class="node">
<title>Node54</title>
<g id="a_Node000054"><a xlink:href="_subscriber_8h.html" target="_top" xlink:title=" ">
<polygon fill="#fff0f0" stroke="red" points="1391.5,-145.5 1276.5,-145.5 1276.5,-126.5 1391.5,-126.5 1391.5,-145.5"/>
<text text-anchor="middle" x="1334" y="-133.5" font-family="Helvetica,sans-Serif" font-size="10.00">Cpl/Dm/Subscriber.h</text>
</a>
</g>
</g>
<!-- Node8&#45;&gt;Node54 -->
<g id="edge29_Node000008_Node000054" class="edge">
<title>Node8&#45;&gt;Node54</title>
<g id="a_edge29_Node000008_Node000054"><a xlink:title=" ">
<path fill="none" stroke="#63b8ff" d="M1334.7,-182.08C1334.52,-170.13 1334.28,-155.22 1334.14,-145.91"/>
<polygon fill="#63b8ff" stroke="#63b8ff" points="1331.21,-182.42 1334.87,-192.37 1338.21,-182.32 1331.21,-182.42"/>
</a>
</g>
</g>
<!-- Node10 -->
<g id="Node000010" class="node">
<title>Node10</title>
<g id="a_Node000010"><a xlink:href="_summary_8h.html" target="_top" xlink:title=" ">
<polygon fill="white" stroke="#666666" points="128,-79.5 0,-79.5 0,-60.5 128,-60.5 128,-79.5"/>
<text text-anchor="middle" x="64" y="-67.5" font-family="Helvetica,sans-Serif" font-size="10.00">Ajax/Alerts/Summary.h</text>
</a>
</g>
</g>
<!-- Node9&#45;&gt;Node10 -->
<g id="edge9_Node000009_Node000010" class="edge">
<title>Node9&#45;&gt;Node10</title>
<g id="a_edge9_Node000009_Node000010"><a xlink:title=" ">
<path fill="none" stroke="#63b8ff" d="M1113.79,-134.75C939.78,-133.43 503.92,-125.93 142,-85 130.24,-83.67 117.58,-81.65 105.95,-79.56"/>
<polygon fill="#63b8ff" stroke="#63b8ff" points="1113.85,-138.25 1123.87,-134.82 1113.9,-131.25 1113.85,-138.25"/>
</a>
</g>
</g>
<!-- Node11 -->
<g id="Node000011" class="node">
<title>Node11</title>
<g id="a_Node000011"><a xlink:href="_ajax_2_heating_2_io_2_api_8h.html" target="_top" xlink:title=" ">
<polygon fill="white" stroke="#666666" points="263.5,-19 144.5,-19 144.5,0 263.5,0 263.5,-19"/>
<text text-anchor="middle" x="204" y="-7" font-family="Helvetica,sans-Serif" font-size="10.00">Ajax/Heating/Io/Api.h</text>
</a>
</g>
</g>
<!-- Node9&#45;&gt;Node11 -->
<g id="edge10_Node000009_Node000011" class="edge">
<title>Node9&#45;&gt;Node11</title>
<g id="a_edge10_Node000009_Node000011"><a xlink:title=" ">
<path fill="none" stroke="#63b8ff" d="M1113.65,-134.07C881.9,-130.92 207.25,-118.87 175,-85 157.01,-66.1 181.08,-34.78 195.14,-19.48"/>
<polygon fill="#63b8ff" stroke="#63b8ff" points="1113.64,-137.57 1123.68,-134.21 1113.73,-130.57 1113.64,-137.57"/>
</a>
</g>
</g>
<!-- Node12 -->
<g id="Node000012" class="node">
<title>Node12</title>
<g id="a_Node000012"><a xlink:href="_ajax_2_heating_2_supervisor_2_api_8h.html" target="_top" xlink:title=" ">
<polygon fill="#fff0f0" stroke="red" points="318,-85 184,-85 184,-55 318,-55 318,-85"/>
<text text-anchor="start" x="192" y="-73" font-family="Helvetica,sans-Serif" font-size="10.00">Ajax/Heating/Supervisor</text>
<text text-anchor="middle" x="251" y="-62" font-family="Helvetica,sans-Serif" font-size="10.00">/Api.h</text>
</a>
</g>
</g>
<!-- Node9&#45;&gt;Node12 -->
<g id="edge11_Node000009_Node000012" class="edge">
<title>Node9&#45;&gt;Node12</title>
<g id="a_edge11_Node000009_Node000012"><a xlink:title=" ">
<path fill="none" stroke="#63b8ff" d="M1113.68,-133.75C962.19,-130.58 615.91,-119.83 327,-85 324.07,-84.65 321.08,-84.25 318.07,-83.82"/>
<polygon fill="#63b8ff" stroke="#63b8ff" points="1113.74,-137.25 1123.81,-133.95 1113.88,-130.25 1113.74,-137.25"/>
</a>
</g>
</g>
<!-- Node14 -->
<g id="Node000014" class="node">
<title>Node14</title>
<g id="a_Node000014"><a xlink:href="appmain_8h.html" target="_top" xlink:title="This file defines the hardware/platform independent start&#45;up interface(s) for the Ajax application.">
<polygon fill="white" stroke="#666666" points="456,-79.5 336,-79.5 336,-60.5 456,-60.5 456,-79.5"/>
<text text-anchor="middle" x="396" y="-67.5" font-family="Helvetica,sans-Serif" font-size="10.00">Ajax/Main/appmain.h</text>
</a>
</g>
</g>
<!-- Node9&#45;&gt;Node14 -->
<g id="edge13_Node000009_Node000014" class="edge">
<title>Node9&#45;&gt;Node14</title>
<g id="a_edge13_Node000009_Node000014"><a xlink:title=" ">
<path fill="none" stroke="#63b8ff" d="M1113.8,-133.01C980.78,-128.85 700.04,-116.8 465,-85 454.7,-83.61 443.64,-81.6 433.45,-79.53"/>
<polygon fill="#63b8ff" stroke="#63b8ff" points="1113.79,-136.51 1123.89,-133.32 1114,-129.52 1113.79,-136.51"/>
</a>
</g>
</g>
<!-- Node15 -->
<g id="Node000015" class="node">
<title>Node15</title>
<g id="a_Node000015"><a xlink:href="_ajax_2_metrics_2_api_8h.html" target="_top" xlink:title=" ">
<polygon fill="white" stroke="#666666" points="579.5,-79.5 474.5,-79.5 474.5,-60.5 579.5,-60.5 579.5,-79.5"/>
<text text-anchor="middle" x="527" y="-67.5" font-family="Helvetica,sans-Serif" font-size="10.00">Ajax/Metrics/Api.h</text>
</a>
</g>
</g>
<!-- Node9&#45;&gt;Node15 -->
<g id="edge14_Node000009_Node000015" class="edge">
<title>Node9&#45;&gt;Node15</title>
<g id="a_edge14_Node000009_Node000015"><a xlink:title=" ">
<path fill="none" stroke="#63b8ff" d="M1113.58,-132.12C998.41,-127.04 775.41,-114.12 588,-85 578.98,-83.6 569.31,-81.61 560.39,-79.57"/>
<polygon fill="#63b8ff" stroke="#63b8ff" points="1113.56,-135.62 1123.71,-132.56 1113.87,-128.63 1113.56,-135.62"/>
</a>
</g>
</g>
<!-- Node16 -->
<g id="Node000016" class="node">
<title>Node16</title>
<g id="a_Node000016"><a xlink:href="_ajax_2_screen_mgr_2_api_8h.html" target="_top" xlink:title=" ">
<polygon fill="#fff0f0" stroke="red" points="718.5,-79.5 597.5,-79.5 597.5,-60.5 718.5,-60.5 718.5,-79.5"/>
<text text-anchor="middle" x="658" y="-67.5" font-family="Helvetica,sans-Serif" font-size="10.00">Ajax/ScreenMgr/Api.h</text>
</a>
</g>
</g>
<!-- Node9&#45;&gt;Node16 -->
<g id="edge15_Node000009_Node000016" class="edge">
<title>Node9&#45;&gt;Node16</title>
<g id="a_edge15_Node000009_Node000016"><a xlink:title=" ">
<path fill="none" stroke="#63b8ff" d="M1113.58,-128.78C1021.42,-120.88 862.98,-105.74 728,-85 718.08,-83.48 707.43,-81.51 697.5,-79.54"/>
<polygon fill="#63b8ff" stroke="#63b8ff" points="1113.4,-132.28 1123.66,-129.64 1114,-125.3 1113.4,-132.28"/>
</a>
</g>
</g>
<!-- Node21 -->
<g id="Node000021" class="node">
<title>Node21</title>
<g id="a_Node000021"><a xlink:href="_logical_buttons_8h.html" target="_top" xlink:title=" ">
<polygon fill="white" stroke="#666666" points="873,-79.5 737,-79.5 737,-60.5 873,-60.5 873,-79.5"/>
<text text-anchor="middle" x="805" y="-67.5" font-family="Helvetica,sans-Serif" font-size="10.00">Ajax/Ui/LogicalButtons.h</text>
</a>
</g>
</g>
<!-- Node9&#45;&gt;Node21 -->
<g id="edge16_Node000009_Node000021" class="edge">
<title>Node9&#45;&gt;Node21</title>
<g id="a_edge16_Node000009_Node000021"><a xlink:title=" ">
<path fill="none" stroke="#63b8ff" d="M1126.13,-124.88C1063.56,-115.03 966.22,-99.47 882,-85 871.96,-83.27 861.19,-81.36 850.98,-79.51"/>
<polygon fill="#63b8ff" stroke="#63b8ff" points="1125.82,-128.37 1136.25,-126.47 1126.91,-121.46 1125.82,-128.37"/>
</a>
</g>
</g>
<!-- Node22 -->
<g id="Node000022" class="node">
<title>Node22</title>
<g id="a_Node000022"><a xlink:href="_ajax_2_ui_2_status_indicator_2_api_8h.html" target="_top" xlink:title=" ">
<polygon fill="white" stroke="#666666" points="1019,-85 891,-85 891,-55 1019,-55 1019,-85"/>
<text text-anchor="start" x="899" y="-73" font-family="Helvetica,sans-Serif" font-size="10.00">Ajax/Ui/StatusIndicator</text>
<text text-anchor="middle" x="955" y="-62" font-family="Helvetica,sans-Serif" font-size="10.00">/Api.h</text>
</a>
</g>
</g>
<!-- Node9&#45;&gt;Node22 -->
<g id="edge17_Node000009_Node000022" class="edge">
<title>Node9&#45;&gt;Node22</title>
<g id="a_edge17_Node000009_Node000022"><a xlink:title=" ">
<path fill="none" stroke="#63b8ff" d="M1149.3,-123.69C1109.63,-112.93 1049.82,-96.72 1007.05,-85.12"/>
<polygon fill="#63b8ff" stroke="#63b8ff" points="1148.6,-127.13 1159.17,-126.37 1150.44,-120.37 1148.6,-127.13"/>
</a>
</g>
</g>
<!-- Node23 -->
<g id="Node000023" class="node">
<title>Node23</title>
<g id="a_Node000023"><a xlink:href="_dm_2_periodic_scheduler_8h.html" target="_top" xlink:title=" ">
<polygon fill="white" stroke="#666666" points="1188.5,-79.5 1037.5,-79.5 1037.5,-60.5 1188.5,-60.5 1188.5,-79.5"/>
<text text-anchor="middle" x="1113" y="-67.5" font-family="Helvetica,sans-Serif" font-size="10.00">Cpl/Dm/PeriodicScheduler.h</text>
</a>
</g>
</g>
<!-- Node9&#45;&gt;Node23 -->
<g id="edge18_Node000009_Node000023" class="edge">
<title>Node9&#45;&gt;Node23</title>
<g id="a_edge18_Node000009_Node000023"><a xlink:title=" ">
<path fill="none" stroke="#63b8ff" d="M1172.7,-119.99C1157.43,-107.46 1136.2,-90.04 1123.6,-79.7"/>
<polygon fill="#63b8ff" stroke="#63b8ff" points="1170.53,-122.73 1180.48,-126.37 1174.97,-117.32 1170.53,-122.73"/>
</a>
</g>
</g>
<!-- Node24 -->
<g id="Node000024" class="node">
<title>Node24</title>
<g id="a_Node000024"><a xlink:href="_log_sink_8h.html" target="_top" xlink:title=" ">
<polygon fill="white" stroke="#666666" points="1331,-79.5 1207,-79.5 1207,-60.5 1331,-60.5 1331,-79.5"/>
<text text-anchor="middle" x="1269" y="-67.5" font-family="Helvetica,sans-Serif" font-size="10.00">Cpl/Logging/LogSink.h</text>
</a>
</g>
</g>
<!-- Node9&#45;&gt;Node24 -->
<g id="edge19_Node000009_Node000024" class="edge">
<title>Node9&#45;&gt;Node24</title>
<g id="a_edge19_Node000009_Node000024"><a xlink:title=" ">
<path fill="none" stroke="#63b8ff" d="M1209.3,-119.99C1224.57,-107.46 1245.8,-90.04 1258.4,-79.7"/>
<polygon fill="#63b8ff" stroke="#63b8ff" points="1207.03,-117.32 1201.52,-126.37 1211.47,-122.73 1207.03,-117.32"/>
</a>
</g>
</g>
<!-- Node25 -->
<g id="Node000025" class="node">
<title>Node25</title>
<g id="a_Node000025"><a xlink:href="_manager_8h.html" target="_top" xlink:title=" ">
<polygon fill="white" stroke="#666666" points="1466.5,-79.5 1349.5,-79.5 1349.5,-60.5 1466.5,-60.5 1466.5,-79.5"/>
<text text-anchor="middle" x="1408" y="-67.5" font-family="Helvetica,sans-Serif" font-size="10.00">Cpl/MApp/Manager.h</text>
</a>
</g>
</g>
<!-- Node9&#45;&gt;Node25 -->
<g id="edge20_Node000009_Node000025" class="edge">
<title>Node9&#45;&gt;Node25</title>
<g id="a_edge20_Node000009_Node000025"><a xlink:title=" ">
<path fill="none" stroke="#63b8ff" d="M1230.05,-123.48C1272.83,-110.87 1340.46,-90.92 1378.85,-79.6"/>
<polygon fill="#63b8ff" stroke="#63b8ff" points="1228.87,-120.18 1220.27,-126.37 1230.85,-126.9 1228.87,-120.18"/>
</a>
</g>
</g>
<!-- Node26 -->
<g id="Node000026" class="node">
<title>Node26</title>
<g id="a_Node000026"><a xlink:href="_cpl_2_m_app_2_temperature_2_api_8h.html" target="_top" xlink:title=" ">
<polygon fill="white" stroke="#666666" points="1613,-85 1485,-85 1485,-55 1613,-55 1613,-85"/>
<text text-anchor="start" x="1493" y="-73" font-family="Helvetica,sans-Serif" font-size="10.00">Cpl/MApp/Temperature</text>
<text text-anchor="middle" x="1549" y="-62" font-family="Helvetica,sans-Serif" font-size="10.00">/Api.h</text>
</a>
</g>
</g>
<!-- Node9&#45;&gt;Node26 -->
<g id="edge21_Node000009_Node000026" class="edge">
<title>Node9&#45;&gt;Node26</title>
<g id="a_edge21_Node000009_Node000026"><a xlink:title=" ">
<path fill="none" stroke="#63b8ff" d="M1246.72,-124.66C1253.55,-123.42 1260.43,-122.17 1267,-121 1359.36,-104.5 1382.68,-101.72 1475,-85 1478.22,-84.42 1481.51,-83.82 1484.84,-83.2"/>
<polygon fill="#63b8ff" stroke="#63b8ff" points="1246.01,-121.24 1236.8,-126.48 1247.27,-128.12 1246.01,-121.24"/>
</a>
</g>
</g>
<!-- Node27 -->
<g id="Node000027" class="node">
<title>Node27</title>
<g id="a_Node000027"><a xlink:href="_chunk_8h.html" target="_top" xlink:title=" ">
<polygon fill="#fff0f0" stroke="red" points="1758.5,-79.5 1631.5,-79.5 1631.5,-60.5 1758.5,-60.5 1758.5,-79.5"/>
<text text-anchor="middle" x="1695" y="-67.5" font-family="Helvetica,sans-Serif" font-size="10.00">Cpl/Persistent/Chunk.h</text>
</a>
</g>
</g>
<!-- Node9&#45;&gt;Node27 -->
<g id="edge22_Node000009_Node000027" class="edge">
<title>Node9&#45;&gt;Node27</title>
<g id="a_edge22_Node000009_Node000027"><a xlink:title=" ">
<path fill="none" stroke="#63b8ff" d="M1243.93,-124.68C1251.65,-123.34 1259.52,-122.07 1267,-121 1424,-98.62 1465.08,-107.96 1622,-85 1632.34,-83.49 1643.45,-81.53 1653.8,-79.56"/>
<polygon fill="#63b8ff" stroke="#63b8ff" points="1243.14,-121.27 1233.91,-126.47 1244.37,-128.16 1243.14,-121.27"/>
</a>
</g>
</g>
<!-- Node41 -->
<g id="Node000041" class="node">
<title>Node41</title>
<g id="a_Node000041"><a xlink:href="_persistent_2_record_8h.html" target="_top" xlink:title=" ">
<polygon fill="#fff0f0" stroke="red" points="1907,-79.5 1777,-79.5 1777,-60.5 1907,-60.5 1907,-79.5"/>
<text text-anchor="middle" x="1842" y="-67.5" font-family="Helvetica,sans-Serif" font-size="10.00">Cpl/Persistent/Record.h</text>
</a>
</g>
</g>
<!-- Node9&#45;&gt;Node41 -->
<g id="edge23_Node000009_Node000041" class="edge">
<title>Node9&#45;&gt;Node41</title>
<g id="a_edge23_Node000009_Node000041"><a xlink:title=" ">
<path fill="none" stroke="#63b8ff" d="M1242.78,-124.67C1250.86,-123.29 1259.14,-122 1267,-121 1488,-92.78 1546.03,-113.49 1767,-85 1778.04,-83.58 1789.9,-81.58 1800.87,-79.54"/>
<polygon fill="#63b8ff" stroke="#63b8ff" points="1241.92,-121.27 1232.68,-126.47 1243.14,-128.16 1241.92,-121.27"/>
</a>
</g>
</g>
<!-- Node42 -->
<g id="Node000042" class="node">
<title>Node42</title>
<g id="a_Node000042"><a xlink:href="_record_server_8h.html" target="_top" xlink:title=" ">
<polygon fill="#fff0f0" stroke="red" points="1968.5,-19 1807.5,-19 1807.5,0 1968.5,0 1968.5,-19"/>
<text text-anchor="middle" x="1888" y="-7" font-family="Helvetica,sans-Serif" font-size="10.00">Cpl/Persistent/RecordServer.h</text>
</a>
</g>
</g>
<!-- Node9&#45;&gt;Node42 -->
<g id="edge25_Node000009_Node000042" class="edge">
<title>Node9&#45;&gt;Node42</title>
<g id="a_edge25_Node000009_Node000042"><a xlink:title=" ">
<path fill="none" stroke="#63b8ff" d="M1241.91,-124.7C1250.27,-123.28 1258.85,-121.97 1267,-121 1338.71,-112.44 1866.37,-137.46 1916,-85 1933.85,-66.13 1910.38,-34.8 1896.66,-19.48"/>
<polygon fill="#63b8ff" stroke="#63b8ff" points="1241.11,-121.29 1231.88,-126.49 1242.33,-128.18 1241.11,-121.29"/>
</a>
</g>
</g>
<!-- Node43 -->
<g id="Node000043" class="node">
<title>Node43</title>
<g id="a_Node000043"><a xlink:href="_region_media_8h.html" target="_top" xlink:title=" ">
<polygon fill="#fff0f0" stroke="red" points="2123,-79.5 1963,-79.5 1963,-60.5 2123,-60.5 2123,-79.5"/>
<text text-anchor="middle" x="2043" y="-67.5" font-family="Helvetica,sans-Serif" font-size="10.00">Cpl/Persistent/RegionMedia.h</text>
</a>
</g>
</g>
<!-- Node9&#45;&gt;Node43 -->
<g id="edge26_Node000009_Node000043" class="edge">
<title>Node9&#45;&gt;Node43</title>
<g id="a_edge26_Node000009_Node000043"><a xlink:title=" ">
<path fill="none" stroke="#63b8ff" d="M1241.91,-124.69C1250.26,-123.26 1258.85,-121.96 1267,-121 1568.44,-85.43 1646.99,-115.39 1949,-85 1962.95,-83.6 1978,-81.58 1991.89,-79.52"/>
<polygon fill="#63b8ff" stroke="#63b8ff" points="1241.11,-121.27 1231.87,-126.47 1242.33,-128.16 1241.11,-121.27"/>
</a>
</g>
</g>
<!-- Node47 -->
<g id="Node000047" class="node">
<title>Node47</title>
<g id="a_Node000047"><a xlink:href="_ajax_2_thermistor_8h.html" target="_top" xlink:title=" ">
<polygon fill="#fff0f0" stroke="red" points="2297,-79.5 2141,-79.5 2141,-60.5 2297,-60.5 2297,-79.5"/>
<text text-anchor="middle" x="2219" y="-67.5" font-family="Helvetica,sans-Serif" font-size="10.00">Driver/AIO/Ajax/Thermistor.h</text>
</a>
</g>
</g>
<!-- Node9&#45;&gt;Node47 -->
<g id="edge27_Node000009_Node000047" class="edge">
<title>Node9&#45;&gt;Node47</title>
<g id="a_edge27_Node000009_Node000047"><a xlink:title=" ">
<path fill="none" stroke="#63b8ff" d="M1241.33,-124.7C1249.86,-123.25 1258.66,-121.94 1267,-121 1649.37,-78.04 1749.17,-123.63 2132,-85 2145.24,-83.66 2159.53,-81.62 2172.63,-79.5"/>
<polygon fill="#63b8ff" stroke="#63b8ff" points="1240.7,-121.26 1231.47,-126.46 1241.93,-128.15 1240.7,-121.26"/>
</a>
</g>
</g>
<!-- Node49 -->
<g id="Node000049" class="node">
<title>Node49</title>
<g id="a_Node000049"><a xlink:href="_eros_2_test_2_cycle_2_api_8h.html" target="_top" xlink:title=" ">
<polygon fill="white" stroke="#666666" points="2433,-79.5 2315,-79.5 2315,-60.5 2433,-60.5 2433,-79.5"/>
<text text-anchor="middle" x="2374" y="-67.5" font-family="Helvetica,sans-Serif" font-size="10.00">Eros/Test/Cycle/Api.h</text>
</a>
</g>
</g>
<!-- Node9&#45;&gt;Node49 -->
<g id="edge28_Node000009_Node000049" class="edge">
<title>Node9&#45;&gt;Node49</title>
<g id="a_edge28_Node000009_Node000049"><a xlink:title=" ">
<path fill="none" stroke="#63b8ff" d="M1241.03,-124.7C1249.66,-123.24 1258.56,-121.92 1267,-121 1726.34,-71.01 1847.2,-139.78 2306,-85 2316.53,-83.74 2327.86,-81.7 2338.19,-79.55"/>
<polygon fill="#63b8ff" stroke="#63b8ff" points="1240.3,-121.28 1231.07,-126.48 1241.53,-128.17 1240.3,-121.28"/>
</a>
</g>
</g>
<!-- Node12&#45;&gt;Node11 -->
<g id="edge12_Node000012_Node000011" class="edge">
<title>Node12&#45;&gt;Node11</title>
<g id="a_edge12_Node000012_Node000011"><a xlink:title=" ">
<path fill="none" stroke="#63b8ff" d="M233.16,-46.8C225.46,-37.21 216.89,-26.54 211.04,-19.27"/>
<polygon fill="#63b8ff" stroke="#63b8ff" points="230.63,-49.24 239.62,-54.84 236.09,-44.85 230.63,-49.24"/>
</a>
</g>
</g>
<!-- Node41&#45;&gt;Node42 -->
<g id="edge24_Node000041_Node000042" class="edge">
<title>Node41&#45;&gt;Node42</title>
<g id="a_edge24_Node000041_Node000042"><a xlink:title=" ">
<path fill="none" stroke="#63b8ff" d="M1855.01,-52.45C1863.53,-41.62 1874.31,-27.91 1881.18,-19.17"/>
<polygon fill="#63b8ff" stroke="#63b8ff" points="1852.22,-50.34 1848.79,-60.37 1857.72,-54.67 1852.22,-50.34"/>
</a>
</g>
</g>
<!-- Node90 -->
<g id="Node000090" class="node">
<title>Node90</title>
<g id="a_Node000090"><a xlink:href="_serial_2_s_t_2_m32_f4_2_input_output_8h.html" target="_top" xlink:title=" ">
<polygon fill="white" stroke="#666666" points="1536,-151 1410,-151 1410,-121 1536,-121 1536,-151"/>
<text text-anchor="start" x="1418" y="-139" font-family="Helvetica,sans-Serif" font-size="10.00">Cpl/Io/Serial/ST/M32F4</text>
<text text-anchor="middle" x="1473" y="-128" font-family="Helvetica,sans-Serif" font-size="10.00">/InputOutput.h</text>
</a>
</g>
</g>
<!-- Node89&#45;&gt;Node90 -->
<g id="edge31_Node000089_Node000090" class="edge">
<title>Node89&#45;&gt;Node90</title>
<g id="a_edge31_Node000089_Node000090"><a xlink:title=" ">
<path fill="none" stroke="#63b8ff" d="M1479.84,-176.83C1478.36,-168.17 1476.73,-158.7 1475.43,-151.16"/>
<polygon fill="#63b8ff" stroke="#63b8ff" points="1476.42,-177.53 1481.56,-186.8 1483.31,-176.35 1476.42,-177.53"/>
</a>
</g>
</g>
<!-- Node92 -->
<g id="Node000092" class="node">
<title>Node92</title>
<g id="a_Node000092"><a xlink:href="_posix_2_listener_8h.html" target="_top" xlink:title=" ">
<polygon fill="white" stroke="#666666" points="1663.5,-151 1554.5,-151 1554.5,-121 1663.5,-121 1663.5,-151"/>
<text text-anchor="start" x="1562.5" y="-139" font-family="Helvetica,sans-Serif" font-size="10.00">Cpl/Io/Socket/Posix</text>
<text text-anchor="middle" x="1609" y="-128" font-family="Helvetica,sans-Serif" font-size="10.00">/Listener.h</text>
</a>
</g>
</g>
<!-- Node91&#45;&gt;Node92 -->
<g id="edge33_Node000091_Node000092" class="edge">
<title>Node91&#45;&gt;Node92</title>
<g id="a_edge33_Node000091_Node000092"><a xlink:title=" ">
<path fill="none" stroke="#63b8ff" d="M1629.84,-182.98C1625.3,-172.98 1619.74,-160.71 1615.51,-151.36"/>
<polygon fill="#63b8ff" stroke="#63b8ff" points="1626.77,-184.7 1634.09,-192.37 1633.15,-181.82 1626.77,-184.7"/>
</a>
</g>
</g>
<!-- Node93 -->
<g id="Node000093" class="node">
<title>Node93</title>
<g id="a_Node000093"><a xlink:href="_win32_2_listener_8h.html" target="_top" xlink:title=" ">
<polygon fill="white" stroke="#666666" points="1794.5,-151 1681.5,-151 1681.5,-121 1794.5,-121 1794.5,-151"/>
<text text-anchor="start" x="1689.5" y="-139" font-family="Helvetica,sans-Serif" font-size="10.00">Cpl/Io/Socket/Win32</text>
<text text-anchor="middle" x="1738" y="-128" font-family="Helvetica,sans-Serif" font-size="10.00">/Listener.h</text>
</a>
</g>
</g>
<!-- Node91&#45;&gt;Node93 -->
<g id="edge34_Node000091_Node000093" class="edge">
<title>Node91&#45;&gt;Node93</title>
<g id="a_edge34_Node000091_Node000093"><a xlink:title=" ">
<path fill="none" stroke="#63b8ff" d="M1660.01,-186.91C1676.63,-176.28 1699.32,-161.75 1715.94,-151.12"/>
<polygon fill="#63b8ff" stroke="#63b8ff" points="1658.02,-184.03 1651.49,-192.37 1661.8,-189.93 1658.02,-184.03"/>
</a>
</g>
</g>
<!-- Node99 -->
<g id="Node000099" class="node">
<title>Node99</title>
<g id="a_Node000099"><a xlink:href="_fsm__trace___8h.html" target="_top" xlink:title=" ">
<polygon fill="white" stroke="#666666" points="1947,-151 1813,-151 1813,-121 1947,-121 1947,-151"/>
<text text-anchor="start" x="1821" y="-139" font-family="Helvetica,sans-Serif" font-size="10.00">Ajax/Heating/Supervisor</text>
<text text-anchor="middle" x="1880" y="-128" font-family="Helvetica,sans-Serif" font-size="10.00">/Fsm_trace_.h</text>
</a>
</g>
</g>
<!-- Node98&#45;&gt;Node99 -->
<g id="edge40_Node000098_Node000099" class="edge">
<title>Node98&#45;&gt;Node99</title>
<g id="a_edge40_Node000098_Node000099"><a xlink:title=" ">
<path fill="none" stroke="#63b8ff" d="M2353.13,-190.42C2346.73,-189.15 2340.21,-187.96 2334,-187 2167.23,-161.19 2123.14,-174.31 1956,-151 1953.08,-150.59 1950.09,-150.15 1947.09,-149.69"/>
<polygon fill="#63b8ff" stroke="#63b8ff" points="2352.54,-193.87 2363.04,-192.47 2353.96,-187.02 2352.54,-193.87"/>
</a>
</g>
</g>
<!-- Node30 -->
<g id="Node000030" class="node">
<title>Node30</title>
<g id="a_Node000030"><a xlink:href="_personality_record_8h.html" target="_top" xlink:title=" ">
<polygon fill="#fff0f0" stroke="red" points="2131,-145.5 1965,-145.5 1965,-126.5 2131,-126.5 2131,-145.5"/>
<text text-anchor="middle" x="2048" y="-133.5" font-family="Helvetica,sans-Serif" font-size="10.00">Ajax/Main/PersonalityRecord.h</text>
</a>
</g>
</g>
<!-- Node98&#45;&gt;Node30 -->
<g id="edge41_Node000098_Node000030" class="edge">
<title>Node98&#45;&gt;Node30</title>
<g id="a_edge41_Node000098_Node000030"><a xlink:title=" ">
<path fill="none" stroke="#63b8ff" d="M2350.59,-190.36C2345,-189.19 2339.38,-188.05 2334,-187 2252.62,-171.13 2157.73,-155.01 2100.3,-145.51"/>
<polygon fill="#63b8ff" stroke="#63b8ff" points="2350.05,-193.82 2360.56,-192.46 2351.49,-186.97 2350.05,-193.82"/>
</a>
</g>
</g>
<!-- Node100 -->
<g id="Node000100" class="node">
<title>Node100</title>
<g id="a_Node000100"><a xlink:href="_integer_expression_parser_8h.html" target="_top" xlink:title="This file contains a collection of methods that parses a null terminated string that contains an arit...">
<polygon fill="white" stroke="#666666" points="2300.5,-151 2149.5,-151 2149.5,-121 2300.5,-121 2300.5,-151"/>
<text text-anchor="start" x="2157.5" y="-139" font-family="Helvetica,sans-Serif" font-size="10.00">Cpl/Math/IntegerExpression</text>
<text text-anchor="middle" x="2225" y="-128" font-family="Helvetica,sans-Serif" font-size="10.00">Parser.h</text>
</a>
</g>
</g>
<!-- Node98&#45;&gt;Node100 -->
<g id="edge42_Node000098_Node000100" class="edge">
<title>Node98&#45;&gt;Node100</title>
<g id="a_edge42_Node000098_Node000100"><a xlink:title=" ">
<path fill="none" stroke="#63b8ff" d="M2365.8,-188.79C2336.58,-178.04 2294.04,-162.4 2263.38,-151.12"/>
<polygon fill="#63b8ff" stroke="#63b8ff" points="2364.94,-192.2 2375.53,-192.37 2367.36,-185.63 2364.94,-192.2"/>
</a>
</g>
</g>
<!-- Node101 -->
<g id="Node000101" class="node">
<title>Node101</title>
<g id="a_Node000101"><a xlink:href="_real_expression_parser_8h.html" target="_top" xlink:title="This file contains a collection of methods that parses a null terminated string that contains an arit...">
<polygon fill="white" stroke="#666666" points="2495,-145.5 2319,-145.5 2319,-126.5 2495,-126.5 2495,-145.5"/>
<text text-anchor="middle" x="2407" y="-133.5" font-family="Helvetica,sans-Serif" font-size="10.00">Cpl/Math/RealExpressionParser.h</text>
</a>
</g>
</g>
<!-- Node98&#45;&gt;Node101 -->
<g id="edge43_Node000098_Node000101" class="edge">
<title>Node98&#45;&gt;Node101</title>
<g id="a_edge43_Node000098_Node000101"><a xlink:title=" ">
<path fill="none" stroke="#63b8ff" d="M2401.36,-182.08C2402.86,-170.13 2404.72,-155.22 2405.89,-145.91"/>
<polygon fill="#63b8ff" stroke="#63b8ff" points="2397.85,-182.01 2400.08,-192.37 2404.79,-182.88 2397.85,-182.01"/>
</a>
</g>
</g>
<!-- Node102 -->
<g id="Node000102" class="node">
<title>Node102</title>
<g id="a_Node000102"><a xlink:href="_system_2_private___8h.html" target="_top" xlink:title="This file contains a collection of classes, interfaces, etc.">
<polygon fill="#fff0f0" stroke="red" points="2637,-145.5 2513,-145.5 2513,-126.5 2637,-126.5 2637,-145.5"/>
<text text-anchor="middle" x="2575" y="-133.5" font-family="Helvetica,sans-Serif" font-size="10.00">Cpl/System/Private_.h</text>
</a>
</g>
</g>
<!-- Node98&#45;&gt;Node102 -->
<g id="edge44_Node000098_Node000102" class="edge">
<title>Node98&#45;&gt;Node102</title>
<g id="a_edge44_Node000098_Node000102"><a xlink:title=" ">
<path fill="none" stroke="#63b8ff" d="M2432.44,-188.84C2467.21,-176.2 2520.75,-156.73 2551.36,-145.6"/>
<polygon fill="#63b8ff" stroke="#63b8ff" points="2430.94,-185.66 2422.74,-192.37 2433.33,-192.24 2430.94,-185.66"/>
</a>
</g>
</g>
<!-- Node107 -->
<g id="Node000107" class="node">
<title>Node107</title>
<g id="a_Node000107"><a xlink:href="_free_r_t_o_s_2_threads_8h.html" target="_top" xlink:title=" ">
<polygon fill="white" stroke="#666666" points="2795,-151 2655,-151 2655,-121 2795,-121 2795,-151"/>
<text text-anchor="start" x="2663" y="-139" font-family="Helvetica,sans-Serif" font-size="10.00">Cpl/TShell/Cmd/FreeRTOS</text>
<text text-anchor="middle" x="2725" y="-128" font-family="Helvetica,sans-Serif" font-size="10.00">/Threads.h</text>
</a>
</g>
</g>
<!-- Node106&#45;&gt;Node107 -->
<g id="edge47_Node000106_Node000107" class="edge">
<title>Node106&#45;&gt;Node107</title>
<g id="a_edge47_Node000106_Node000107"><a xlink:title=" ">
<path fill="none" stroke="#63b8ff" d="M2718.62,-182.35C2720.01,-172.47 2721.69,-160.51 2722.98,-151.36"/>
<polygon fill="#63b8ff" stroke="#63b8ff" points="2715.14,-181.98 2717.21,-192.37 2722.07,-182.95 2715.14,-181.98"/>
</a>
</g>
</g>
<!-- Node108 -->
<g id="Node000108" class="node">
<title>Node108</title>
<g id="a_Node000108"><a xlink:href="_win32_2_threads_8h.html" target="_top" xlink:title=" ">
<polygon fill="white" stroke="#666666" points="2938.5,-151 2813.5,-151 2813.5,-121 2938.5,-121 2938.5,-151"/>
<text text-anchor="start" x="2821.5" y="-139" font-family="Helvetica,sans-Serif" font-size="10.00">Cpl/TShell/Cmd/Win32</text>
<text text-anchor="middle" x="2876" y="-128" font-family="Helvetica,sans-Serif" font-size="10.00">/Threads.h</text>
</a>
</g>
</g>
<!-- Node106&#45;&gt;Node108 -->
<g id="edge48_Node000106_Node000108" class="edge">
<title>Node106&#45;&gt;Node108</title>
<g id="a_edge48_Node000106_Node000108"><a xlink:title=" ">
<path fill="none" stroke="#63b8ff" d="M2746.88,-188.65C2773.74,-177.9 2812.64,-162.35 2840.71,-151.12"/>
<polygon fill="#63b8ff" stroke="#63b8ff" points="2745.56,-185.41 2737.58,-192.37 2748.16,-191.9 2745.56,-185.41"/>
</a>
</g>
</g>
<!-- Node111&#45;&gt;Node109 -->
<g id="edge52_Node000111_Node000109" class="edge">
<title>Node111&#45;&gt;Node109</title>
<g id="a_edge52_Node000111_Node000109"><a xlink:title=" ">
<path fill="none" stroke="#63b8ff" d="M3023.3,-182.08C3023.48,-170.13 3023.72,-155.22 3023.86,-145.91"/>
<polygon fill="#63b8ff" stroke="#63b8ff" points="3019.79,-182.32 3023.13,-192.37 3026.79,-182.42 3019.79,-182.32"/>
</a>
</g>
</g>
</g>
</svg>
