<?xml version="1.0" encoding="UTF-8" standalone="no"?>
<!DOCTYPE svg PUBLIC "-//W3C//DTD SVG 1.1//EN"
 "http://www.w3.org/Graphics/SVG/1.1/DTD/svg11.dtd">
<!-- Generated by graphviz version 9.0.0 (20230911.1827)
 -->
<!-- Title: Cpl/Dm/Mp/Uint32.h Pages: 1 -->
<svg width="921pt" height="282pt"
 viewBox="0.00 0.00 921.00 282.00" xmlns="http://www.w3.org/2000/svg" xmlns:xlink="http://www.w3.org/1999/xlink">
<g id="graph0" class="graph" transform="scale(1 1) rotate(0) translate(4 278)">
<title>Cpl/Dm/Mp/Uint32.h</title>
<!-- Node1 -->
<g id="Node000001" class="node">
<title>Node1</title>
<g id="a_Node000001"><a xlink:title=" ">
<polygon fill="#999999" stroke="#666666" points="432.62,-274 328.88,-274 328.88,-254.75 432.62,-254.75 432.62,-274"/>
<text text-anchor="middle" x="380.75" y="-260.5" font-family="Helvetica,sans-Serif" font-size="10.00">Cpl/Dm/Mp/Uint32.h</text>
</a>
</g>
</g>
<!-- Node2 -->
<g id="Node000002" class="node">
<title>Node2</title>
<g id="a_Node000002"><a xlink:href="_ajax_2_heating_2_io_2_api_8h.html" target="_top" xlink:title=" ">
<polygon fill="white" stroke="#666666" points="107.5,-213.12 0,-213.12 0,-193.88 107.5,-193.88 107.5,-213.12"/>
<text text-anchor="middle" x="53.75" y="-199.62" font-family="Helvetica,sans-Serif" font-size="10.00">Ajax/Heating/Io/Api.h</text>
</a>
</g>
</g>
<!-- Node1&#45;&gt;Node2 -->
<g id="edge1_Node000001_Node000002" class="edge">
<title>Node1&#45;&gt;Node2</title>
<g id="a_edge1_Node000001_Node000002"><a xlink:title=" ">
<path fill="none" stroke="#63b8ff" d="M317.46,-253.68C263.87,-245.23 185.08,-232.24 116.75,-218.75 108.83,-217.19 100.38,-215.37 92.33,-213.58"/>
<polygon fill="#63b8ff" stroke="#63b8ff" points="316.58,-257.08 327.01,-255.18 317.67,-250.17 316.58,-257.08"/>
</a>
</g>
</g>
<!-- Node3 -->
<g id="Node000003" class="node">
<title>Node3</title>
<g id="a_Node000003"><a xlink:href="_ajax_2_main_2__plat__simulator_2_model_points_8h.html" target="_top" xlink:title=" ">
<polygon fill="white" stroke="#666666" points="253.62,-218.75 125.88,-218.75 125.88,-188.25 253.62,-188.25 253.62,-218.75"/>
<text text-anchor="start" x="133.88" y="-205.25" font-family="Helvetica,sans-Serif" font-size="10.00">Ajax/Main/_plat_simulator</text>
<text text-anchor="middle" x="189.75" y="-194" font-family="Helvetica,sans-Serif" font-size="10.00">/ModelPoints.h</text>
</a>
</g>
</g>
<!-- Node1&#45;&gt;Node3 -->
<g id="edge2_Node000001_Node000003" class="edge">
<title>Node1&#45;&gt;Node3</title>
<g id="a_edge2_Node000001_Node000003"><a xlink:title=" ">
<path fill="none" stroke="#63b8ff" d="M340.38,-250.93C310.3,-241.66 269.12,-228.97 237.42,-219.19"/>
<polygon fill="#63b8ff" stroke="#63b8ff" points="339.29,-254.26 349.88,-253.86 341.35,-247.57 339.29,-254.26"/>
</a>
</g>
</g>
<!-- Node4 -->
<g id="Node000004" class="node">
<title>Node4</title>
<g id="a_Node000004"><a xlink:href="_ajax_2_metrics_2_api_8h.html" target="_top" xlink:title=" ">
<polygon fill="white" stroke="#666666" points="366.12,-213.12 271.38,-213.12 271.38,-193.88 366.12,-193.88 366.12,-213.12"/>
<text text-anchor="middle" x="318.75" y="-199.62" font-family="Helvetica,sans-Serif" font-size="10.00">Ajax/Metrics/Api.h</text>
</a>
</g>
</g>
<!-- Node1&#45;&gt;Node4 -->
<g id="edge3_Node000001_Node000004" class="edge">
<title>Node1&#45;&gt;Node4</title>
<g id="a_edge3_Node000001_Node000004"><a xlink:title=" ">
<path fill="none" stroke="#63b8ff" d="M363.03,-246.55C351.71,-235.8 337.48,-222.29 328.26,-213.53"/>
<polygon fill="#63b8ff" stroke="#63b8ff" points="360.57,-249.04 370.24,-253.39 365.39,-243.97 360.57,-249.04"/>
</a>
</g>
</g>
<!-- Node5 -->
<g id="Node000005" class="node">
<title>Node5</title>
<g id="a_Node000005"><a xlink:href="_ajax_2_ui_2_status_indicator_2_api_8h.html" target="_top" xlink:title=" ">
<polygon fill="white" stroke="#666666" points="501,-218.75 384.5,-218.75 384.5,-188.25 501,-188.25 501,-218.75"/>
<text text-anchor="start" x="392.5" y="-205.25" font-family="Helvetica,sans-Serif" font-size="10.00">Ajax/Ui/StatusIndicator</text>
<text text-anchor="middle" x="442.75" y="-194" font-family="Helvetica,sans-Serif" font-size="10.00">/Api.h</text>
</a>
</g>
</g>
<!-- Node1&#45;&gt;Node5 -->
<g id="edge4_Node000001_Node000005" class="edge">
<title>Node1&#45;&gt;Node5</title>
<g id="a_edge4_Node000001_Node000005"><a xlink:title=" ">
<path fill="none" stroke="#63b8ff" d="M398.24,-246.77C407.43,-238.04 418.6,-227.43 427.45,-219.03"/>
<polygon fill="#63b8ff" stroke="#63b8ff" points="396.11,-243.97 391.26,-253.39 400.93,-249.04 396.11,-243.97"/>
</a>
</g>
</g>
<!-- Node6 -->
<g id="Node000006" class="node">
<title>Node6</title>
<g id="a_Node000006"><a xlink:href="_ring_buffer_m_p_8h.html" target="_top" xlink:title=" ">
<polygon fill="white" stroke="#666666" points="664.25,-213.12 519.25,-213.12 519.25,-193.88 664.25,-193.88 664.25,-213.12"/>
<text text-anchor="middle" x="591.75" y="-199.62" font-family="Helvetica,sans-Serif" font-size="10.00">Cpl/Container/RingBufferMP.h</text>
</a>
</g>
</g>
<!-- Node1&#45;&gt;Node6 -->
<g id="edge5_Node000001_Node000006" class="edge">
<title>Node1&#45;&gt;Node6</title>
<g id="a_edge5_Node000001_Node000006"><a xlink:title=" ">
<path fill="none" stroke="#63b8ff" d="M424.3,-251.22C464.41,-240.03 523.03,-223.68 559.21,-213.58"/>
<polygon fill="#63b8ff" stroke="#63b8ff" points="423.41,-247.84 414.71,-253.9 425.29,-254.58 423.41,-247.84"/>
</a>
</g>
</g>
<!-- Node14 -->
<g id="Node000014" class="node">
<title>Node14</title>
<g id="a_Node000014"><a xlink:href="_cpl_2_logging_2_api_8h.html" target="_top" xlink:title=" ">
<polygon fill="white" stroke="#666666" points="913,-146.62 820.5,-146.62 820.5,-127.38 913,-127.38 913,-146.62"/>
<text text-anchor="middle" x="866.75" y="-133.12" font-family="Helvetica,sans-Serif" font-size="10.00">Cpl/Logging/Api.h</text>
</a>
</g>
</g>
<!-- Node1&#45;&gt;Node14 -->
<g id="edge19_Node000001_Node000014" class="edge">
<title>Node1&#45;&gt;Node14</title>
<g id="a_edge19_Node000001_Node000014"><a xlink:title=" ">
<path fill="none" stroke="#63b8ff" d="M444.09,-258.25C504.08,-252.33 596.26,-240.5 673.75,-218.75 740.89,-199.9 815.88,-163.9 849.18,-147.08"/>
<polygon fill="#63b8ff" stroke="#63b8ff" points="444.03,-254.74 434.41,-259.17 444.7,-261.7 444.03,-254.74"/>
</a>
</g>
</g>
<!-- Node7 -->
<g id="Node000007" class="node">
<title>Node7</title>
<g id="a_Node000007"><a xlink:href="_ajax_2_screen_mgr_2_api_8h.html" target="_top" xlink:title=" ">
<polygon fill="white" stroke="#666666" points="270.62,-146.62 160.88,-146.62 160.88,-127.38 270.62,-127.38 270.62,-146.62"/>
<text text-anchor="middle" x="215.75" y="-133.12" font-family="Helvetica,sans-Serif" font-size="10.00">Ajax/ScreenMgr/Api.h</text>
</a>
</g>
</g>
<!-- Node6&#45;&gt;Node7 -->
<g id="edge6_Node000006_Node000007" class="edge">
<title>Node6&#45;&gt;Node7</title>
<g id="a_edge6_Node000006_Node000007"><a xlink:title=" ">
<path fill="none" stroke="#63b8ff" d="M529.18,-191.51C522.62,-190.4 516.05,-189.29 509.75,-188.25 407.67,-171.39 381.41,-171.5 279.75,-152.25 271.59,-150.7 262.87,-148.88 254.59,-147.06"/>
<polygon fill="#63b8ff" stroke="#63b8ff" points="528.22,-194.9 538.66,-193.14 529.4,-188 528.22,-194.9"/>
</a>
</g>
</g>
<!-- Node12 -->
<g id="Node000012" class="node">
<title>Node12</title>
<g id="a_Node000012"><a xlink:href="_ui_8h.html" target="_top" xlink:title=" ">
<polygon fill="white" stroke="#666666" points="374.62,-146.62 288.88,-146.62 288.88,-127.38 374.62,-127.38 374.62,-146.62"/>
<text text-anchor="middle" x="331.75" y="-133.12" font-family="Helvetica,sans-Serif" font-size="10.00">Ajax/TShell/Ui.h</text>
</a>
</g>
</g>
<!-- Node6&#45;&gt;Node12 -->
<g id="edge13_Node000006_Node000012" class="edge">
<title>Node6&#45;&gt;Node12</title>
<g id="a_edge13_Node000006_Node000012"><a xlink:title=" ">
<path fill="none" stroke="#63b8ff" d="M541.47,-190.81C499.28,-180.88 437.46,-166.09 383.75,-152.25 377.5,-150.64 370.84,-148.86 364.44,-147.12"/>
<polygon fill="#63b8ff" stroke="#63b8ff" points="540.55,-194.18 551.09,-193.06 542.15,-187.37 540.55,-194.18"/>
</a>
</g>
</g>
<!-- Node13 -->
<g id="Node000013" class="node">
<title>Node13</title>
<g id="a_Node000013"><a xlink:href="_logical_buttons_8h.html" target="_top" xlink:title=" ">
<polygon fill="white" stroke="#666666" points="516.38,-146.62 393.12,-146.62 393.12,-127.38 516.38,-127.38 516.38,-146.62"/>
<text text-anchor="middle" x="454.75" y="-133.12" font-family="Helvetica,sans-Serif" font-size="10.00">Ajax/Ui/LogicalButtons.h</text>
</a>
</g>
</g>
<!-- Node6&#45;&gt;Node13 -->
<g id="edge14_Node000006_Node000013" class="edge">
<title>Node6&#45;&gt;Node13</title>
<g id="a_edge14_Node000006_Node000013"><a xlink:title=" ">
<path fill="none" stroke="#63b8ff" d="M562.11,-188.55C535.4,-175.97 496.89,-157.84 473.99,-147.06"/>
<polygon fill="#63b8ff" stroke="#63b8ff" points="560.5,-191.66 571.04,-192.75 563.49,-185.32 560.5,-191.66"/>
</a>
</g>
</g>
<!-- Node6&#45;&gt;Node14 -->
<g id="edge15_Node000006_Node000014" class="edge">
<title>Node6&#45;&gt;Node14</title>
<g id="a_edge15_Node000006_Node000014"><a xlink:title=" ">
<path fill="none" stroke="#63b8ff" d="M644.35,-190.93C688.98,-181.01 754.67,-166.16 811.75,-152.25 818.36,-150.64 825.41,-148.86 832.17,-147.12"/>
<polygon fill="#63b8ff" stroke="#63b8ff" points="643.68,-187.5 634.67,-193.08 645.19,-194.33 643.68,-187.5"/>
</a>
</g>
</g>
<!-- Node15 -->
<g id="Node000015" class="node">
<title>Node15</title>
<g id="a_Node000015"><a xlink:href="_log_sink_8h.html" target="_top" xlink:title=" ">
<polygon fill="white" stroke="#666666" points="648.88,-146.62 534.62,-146.62 534.62,-127.38 648.88,-127.38 648.88,-146.62"/>
<text text-anchor="middle" x="591.75" y="-133.12" font-family="Helvetica,sans-Serif" font-size="10.00">Cpl/Logging/LogSink.h</text>
</a>
</g>
</g>
<!-- Node6&#45;&gt;Node15 -->
<g id="edge16_Node000006_Node000015" class="edge">
<title>Node6&#45;&gt;Node15</title>
<g id="a_edge16_Node000006_Node000015"><a xlink:title=" ">
<path fill="none" stroke="#63b8ff" d="M591.75,-182.02C591.75,-170.19 591.75,-155.91 591.75,-146.89"/>
<polygon fill="#63b8ff" stroke="#63b8ff" points="588.25,-182.02 591.75,-192.02 595.25,-182.02 588.25,-182.02"/>
</a>
</g>
</g>
<!-- Node16 -->
<g id="Node000016" class="node">
<title>Node16</title>
<g id="a_Node000016"><a xlink:href="_indexed_entry_server_8h.html" target="_top" xlink:title=" ">
<polygon fill="white" stroke="#666666" points="802.75,-152.25 666.75,-152.25 666.75,-121.75 802.75,-121.75 802.75,-152.25"/>
<text text-anchor="start" x="674.75" y="-138.75" font-family="Helvetica,sans-Serif" font-size="10.00">Cpl/Persistent/IndexedEntry</text>
<text text-anchor="middle" x="734.75" y="-127.5" font-family="Helvetica,sans-Serif" font-size="10.00">Server.h</text>
</a>
</g>
</g>
<!-- Node6&#45;&gt;Node16 -->
<g id="edge17_Node000006_Node000016" class="edge">
<title>Node6&#45;&gt;Node16</title>
<g id="a_edge17_Node000006_Node000016"><a xlink:title=" ">
<path fill="none" stroke="#63b8ff" d="M622.37,-188.69C645.89,-178.08 678.3,-163.46 702.27,-152.65"/>
<polygon fill="#63b8ff" stroke="#63b8ff" points="620.99,-185.47 613.31,-192.77 623.87,-191.85 620.99,-185.47"/>
</a>
</g>
</g>
<!-- Node8 -->
<g id="Node000008" class="node">
<title>Node8</title>
<g id="a_Node000008"><a xlink:href="_ajax_2_ui_2_about_2_screen_8h.html" target="_top" xlink:title=" ">
<polygon fill="white" stroke="#666666" points="132.38,-80.12 15.12,-80.12 15.12,-60.88 132.38,-60.88 132.38,-80.12"/>
<text text-anchor="middle" x="73.75" y="-66.62" font-family="Helvetica,sans-Serif" font-size="10.00">Ajax/Ui/About/Screen.h</text>
</a>
</g>
</g>
<!-- Node7&#45;&gt;Node8 -->
<g id="edge7_Node000007_Node000008" class="edge">
<title>Node7&#45;&gt;Node8</title>
<g id="a_edge7_Node000007_Node000008"><a xlink:title=" ">
<path fill="none" stroke="#63b8ff" d="M185.4,-122.21C157.69,-109.63 117.54,-91.39 93.69,-80.56"/>
<polygon fill="#63b8ff" stroke="#63b8ff" points="183.78,-125.32 194.33,-126.27 186.67,-118.95 183.78,-125.32"/>
</a>
</g>
</g>
<!-- Node10 -->
<g id="Node000010" class="node">
<title>Node10</title>
<g id="a_Node000010"><a xlink:href="_ajax_2_ui_2_edit_setpt_2_screen_8h.html" target="_top" xlink:title=" ">
<polygon fill="white" stroke="#666666" points="281.5,-80.12 150,-80.12 150,-60.88 281.5,-60.88 281.5,-80.12"/>
<text text-anchor="middle" x="215.75" y="-66.62" font-family="Helvetica,sans-Serif" font-size="10.00">Ajax/Ui/EditSetpt/Screen.h</text>
</a>
</g>
</g>
<!-- Node7&#45;&gt;Node10 -->
<g id="edge9_Node000007_Node000010" class="edge">
<title>Node7&#45;&gt;Node10</title>
<g id="a_edge9_Node000007_Node000010"><a xlink:title=" ">
<path fill="none" stroke="#63b8ff" d="M215.75,-115.52C215.75,-103.69 215.75,-89.41 215.75,-80.39"/>
<polygon fill="#63b8ff" stroke="#63b8ff" points="212.25,-115.52 215.75,-125.52 219.25,-115.52 212.25,-115.52"/>
</a>
</g>
</g>
<!-- Node11 -->
<g id="Node000011" class="node">
<title>Node11</title>
<g id="a_Node000011"><a xlink:href="_ajax_2_ui_2_home_2_screen_8h.html" target="_top" xlink:title=" ">
<polygon fill="white" stroke="#666666" points="417.75,-80.12 299.75,-80.12 299.75,-60.88 417.75,-60.88 417.75,-80.12"/>
<text text-anchor="middle" x="358.75" y="-66.62" font-family="Helvetica,sans-Serif" font-size="10.00">Ajax/Ui/Home/Screen.h</text>
</a>
</g>
</g>
<!-- Node7&#45;&gt;Node11 -->
<g id="edge11_Node000007_Node000011" class="edge">
<title>Node7&#45;&gt;Node11</title>
<g id="a_edge11_Node000007_Node000011"><a xlink:title=" ">
<path fill="none" stroke="#63b8ff" d="M246.31,-122.21C274.21,-109.63 314.65,-91.39 338.67,-80.56"/>
<polygon fill="#63b8ff" stroke="#63b8ff" points="244.99,-118.97 237.31,-126.27 247.87,-125.35 244.99,-118.97"/>
</a>
</g>
</g>
<!-- Node9 -->
<g id="Node000009" class="node">
<title>Node9</title>
<g id="a_Node000009"><a xlink:href="_ajax_2_main_2screens_8h.html" target="_top" xlink:title="This file exposes handles to Screen instances for the Ajax Application.">
<polygon fill="white" stroke="#666666" points="267.62,-19.25 163.88,-19.25 163.88,0 267.62,0 267.62,-19.25"/>
<text text-anchor="middle" x="215.75" y="-5.75" font-family="Helvetica,sans-Serif" font-size="10.00">Ajax/Main/screens.h</text>
</a>
</g>
</g>
<!-- Node8&#45;&gt;Node9 -->
<g id="edge8_Node000008_Node000009" class="edge">
<title>Node8&#45;&gt;Node9</title>
<g id="a_edge8_Node000008_Node000009"><a xlink:title=" ">
<path fill="none" stroke="#63b8ff" d="M106.09,-56.09C133.02,-44.92 170.64,-29.33 194.08,-19.61"/>
<polygon fill="#63b8ff" stroke="#63b8ff" points="104.92,-52.79 97.02,-59.85 107.6,-59.25 104.92,-52.79"/>
</a>
</g>
</g>
<!-- Node10&#45;&gt;Node9 -->
<g id="edge10_Node000010_Node000009" class="edge">
<title>Node10&#45;&gt;Node9</title>
<g id="a_edge10_Node000010_Node000009"><a xlink:title=" ">
<path fill="none" stroke="#63b8ff" d="M215.75,-49.07C215.75,-39.04 215.75,-27.46 215.75,-19.65"/>
<polygon fill="#63b8ff" stroke="#63b8ff" points="212.25,-49.04 215.75,-59.04 219.25,-49.04 212.25,-49.04"/>
</a>
</g>
</g>
<!-- Node11&#45;&gt;Node9 -->
<g id="edge12_Node000011_Node000009" class="edge">
<title>Node11&#45;&gt;Node9</title>
<g id="a_edge12_Node000011_Node000009"><a xlink:title=" ">
<path fill="none" stroke="#63b8ff" d="M326.19,-56.09C299.06,-44.92 261.17,-29.33 237.57,-19.61"/>
<polygon fill="#63b8ff" stroke="#63b8ff" points="324.74,-59.28 335.32,-59.85 327.41,-52.81 324.74,-59.28"/>
</a>
</g>
</g>
<!-- Node17 -->
<g id="Node000017" class="node">
<title>Node17</title>
<g id="a_Node000017"><a xlink:href="_log_8h.html" target="_top" xlink:title=" ">
<polygon fill="white" stroke="#666666" points="784,-85.75 685.5,-85.75 685.5,-55.25 784,-55.25 784,-85.75"/>
<text text-anchor="start" x="693.5" y="-72.25" font-family="Helvetica,sans-Serif" font-size="10.00">Cpl/Logging/TShell</text>
<text text-anchor="middle" x="734.75" y="-61" font-family="Helvetica,sans-Serif" font-size="10.00">/Log.h</text>
</a>
</g>
</g>
<!-- Node16&#45;&gt;Node17 -->
<g id="edge18_Node000016_Node000017" class="edge">
<title>Node16&#45;&gt;Node17</title>
<g id="a_edge18_Node000016_Node000017"><a xlink:title=" ">
<path fill="none" stroke="#63b8ff" d="M734.75,-110.06C734.75,-101.89 734.75,-93.16 734.75,-86.08"/>
<polygon fill="#63b8ff" stroke="#63b8ff" points="731.25,-109.85 734.75,-119.85 738.25,-109.85 731.25,-109.85"/>
</a>
</g>
</g>
</g>
</svg>
