<?xml version="1.0" encoding="UTF-8" standalone="no"?>
<!DOCTYPE svg PUBLIC "-//W3C//DTD SVG 1.1//EN"
 "http://www.w3.org/Graphics/SVG/1.1/DTD/svg11.dtd">
<!-- Generated by graphviz version 2.43.0 (0)
 -->
<!-- Title: Cpl/Dm/Mp/Uint32.h Pages: 1 -->
<svg width="1008pt" height="280pt"
 viewBox="0.00 0.00 1008.00 280.00" xmlns="http://www.w3.org/2000/svg" xmlns:xlink="http://www.w3.org/1999/xlink">
<g id="graph0" class="graph" transform="scale(1 1) rotate(0) translate(4 276)">
<title>Cpl/Dm/Mp/Uint32.h</title>
<!-- Node1 -->
<g id="Node000001" class="node">
<title>Node1</title>
<g id="a_Node000001"><a xlink:title=" ">
<polygon fill="#999999" stroke="#666666" points="477,-272 362,-272 362,-253 477,-253 477,-272"/>
<text text-anchor="middle" x="419.5" y="-260" font-family="Helvetica,sans-Serif" font-size="10.00">Cpl/Dm/Mp/Uint32.h</text>
</a>
</g>
</g>
<!-- Node2 -->
<g id="Node000002" class="node">
<title>Node2</title>
<g id="a_Node000002"><a xlink:href="_ajax_2_heating_2_io_2_api_8h.html" target="_top" xlink:title=" ">
<polygon fill="white" stroke="#666666" points="119,-211.5 0,-211.5 0,-192.5 119,-192.5 119,-211.5"/>
<text text-anchor="middle" x="59.5" y="-199.5" font-family="Helvetica,sans-Serif" font-size="10.00">Ajax/Heating/Io/Api.h</text>
</a>
</g>
</g>
<!-- Node1&#45;&gt;Node2 -->
<g id="edge1_Node000001_Node000002" class="edge">
<title>Node1&#45;&gt;Node2</title>
<g id="a_edge1_Node000001_Node000002"><a xlink:title=" ">
<path fill="none" stroke="#63b8ff" d="M351.99,-252.12C292.91,-243.69 204.85,-230.57 128.5,-217 119.23,-215.35 109.3,-213.43 99.94,-211.55"/>
<polygon fill="#63b8ff" stroke="#63b8ff" points="351.55,-255.59 361.94,-253.54 352.53,-248.66 351.55,-255.59"/>
</a>
</g>
</g>
<!-- Node3 -->
<g id="Node000003" class="node">
<title>Node3</title>
<g id="a_Node000003"><a xlink:href="_ajax_2_main_2__plat__simulator_2_model_points_8h.html" target="_top" xlink:title=" ">
<polygon fill="white" stroke="#666666" points="281.5,-217 137.5,-217 137.5,-187 281.5,-187 281.5,-217"/>
<text text-anchor="start" x="145.5" y="-205" font-family="Helvetica,sans-Serif" font-size="10.00">Ajax/Main/_plat_simulator</text>
<text text-anchor="middle" x="209.5" y="-194" font-family="Helvetica,sans-Serif" font-size="10.00">/ModelPoints.h</text>
</a>
</g>
</g>
<!-- Node1&#45;&gt;Node3 -->
<g id="edge2_Node000001_Node000003" class="edge">
<title>Node1&#45;&gt;Node3</title>
<g id="a_edge2_Node000001_Node000003"><a xlink:title=" ">
<path fill="none" stroke="#63b8ff" d="M378.93,-250.2C345,-240.75 296.43,-227.22 259.99,-217.06"/>
<polygon fill="#63b8ff" stroke="#63b8ff" points="378.39,-253.68 388.96,-252.99 380.27,-246.94 378.39,-253.68"/>
</a>
</g>
</g>
<!-- Node4 -->
<g id="Node000004" class="node">
<title>Node4</title>
<g id="a_Node000004"><a xlink:href="_ajax_2_metrics_2_api_8h.html" target="_top" xlink:title=" ">
<polygon fill="white" stroke="#666666" points="405,-211.5 300,-211.5 300,-192.5 405,-192.5 405,-211.5"/>
<text text-anchor="middle" x="352.5" y="-199.5" font-family="Helvetica,sans-Serif" font-size="10.00">Ajax/Metrics/Api.h</text>
</a>
</g>
</g>
<!-- Node1&#45;&gt;Node4 -->
<g id="edge3_Node000001_Node000004" class="edge">
<title>Node1&#45;&gt;Node4</title>
<g id="a_edge3_Node000001_Node000004"><a xlink:title=" ">
<path fill="none" stroke="#63b8ff" d="M402,-246.22C389.4,-235.21 372.83,-220.75 362.43,-211.67"/>
<polygon fill="#63b8ff" stroke="#63b8ff" points="399.78,-248.93 409.61,-252.87 404.38,-243.65 399.78,-248.93"/>
</a>
</g>
</g>
<!-- Node5 -->
<g id="Node000005" class="node">
<title>Node5</title>
<g id="a_Node000005"><a xlink:href="_ajax_2_ui_2_status_indicator_2_api_8h.html" target="_top" xlink:title=" ">
<polygon fill="white" stroke="#666666" points="551.5,-217 423.5,-217 423.5,-187 551.5,-187 551.5,-217"/>
<text text-anchor="start" x="431.5" y="-205" font-family="Helvetica,sans-Serif" font-size="10.00">Ajax/Ui/StatusIndicator</text>
<text text-anchor="middle" x="487.5" y="-194" font-family="Helvetica,sans-Serif" font-size="10.00">/Api.h</text>
</a>
</g>
</g>
<!-- Node1&#45;&gt;Node5 -->
<g id="edge4_Node000001_Node000005" class="edge">
<title>Node1&#45;&gt;Node5</title>
<g id="a_edge4_Node000001_Node000005"><a xlink:title=" ">
<path fill="none" stroke="#63b8ff" d="M437.24,-246.23C447.71,-237.23 460.87,-225.91 471.09,-217.11"/>
<polygon fill="#63b8ff" stroke="#63b8ff" points="434.83,-243.69 429.53,-252.87 439.4,-249 434.83,-243.69"/>
</a>
</g>
</g>
<!-- Node6 -->
<g id="Node000006" class="node">
<title>Node6</title>
<g id="a_Node000006"><a xlink:href="_ring_buffer_m_p_8h.html" target="_top" xlink:title=" ">
<polygon fill="white" stroke="#666666" points="729,-211.5 570,-211.5 570,-192.5 729,-192.5 729,-211.5"/>
<text text-anchor="middle" x="649.5" y="-199.5" font-family="Helvetica,sans-Serif" font-size="10.00">Cpl/Container/RingBufferMP.h</text>
</a>
</g>
</g>
<!-- Node1&#45;&gt;Node6 -->
<g id="edge5_Node000001_Node000006" class="edge">
<title>Node1&#45;&gt;Node6</title>
<g id="a_edge5_Node000001_Node000006"><a xlink:title=" ">
<path fill="none" stroke="#63b8ff" d="M462.88,-250.47C507.34,-239.16 575.54,-221.81 616.02,-211.52"/>
<polygon fill="#63b8ff" stroke="#63b8ff" points="461.77,-247.14 452.94,-252.99 463.5,-253.92 461.77,-247.14"/>
</a>
</g>
</g>
<!-- Node14 -->
<g id="Node000014" class="node">
<title>Node14</title>
<g id="a_Node000014"><a xlink:href="_cpl_2_logging_2_api_8h.html" target="_top" xlink:title=" ">
<polygon fill="white" stroke="#666666" points="1000,-145.5 899,-145.5 899,-126.5 1000,-126.5 1000,-145.5"/>
<text text-anchor="middle" x="949.5" y="-133.5" font-family="Helvetica,sans-Serif" font-size="10.00">Cpl/Logging/Api.h</text>
</a>
</g>
</g>
<!-- Node1&#45;&gt;Node14 -->
<g id="edge19_Node000001_Node000014" class="edge">
<title>Node1&#45;&gt;Node14</title>
<g id="a_edge19_Node000001_Node000014"><a xlink:title=" ">
<path fill="none" stroke="#63b8ff" d="M487.15,-256.48C552.31,-250.62 653.27,-238.81 738.5,-217 811.94,-198.21 894.91,-162.12 931.04,-145.62"/>
<polygon fill="#63b8ff" stroke="#63b8ff" points="486.66,-253.01 477.01,-257.37 487.27,-259.99 486.66,-253.01"/>
</a>
</g>
</g>
<!-- Node7 -->
<g id="Node000007" class="node">
<title>Node7</title>
<g id="a_Node000007"><a xlink:href="_ajax_2_screen_mgr_2_api_8h.html" target="_top" xlink:title=" ">
<polygon fill="white" stroke="#666666" points="303,-145.5 182,-145.5 182,-126.5 303,-126.5 303,-145.5"/>
<text text-anchor="middle" x="242.5" y="-133.5" font-family="Helvetica,sans-Serif" font-size="10.00">Ajax/ScreenMgr/Api.h</text>
</a>
</g>
</g>
<!-- Node6&#45;&gt;Node7 -->
<g id="edge6_Node000006_Node000007" class="edge">
<title>Node6&#45;&gt;Node7</title>
<g id="a_edge6_Node000006_Node000007"><a xlink:title=" ">
<path fill="none" stroke="#63b8ff" d="M585.92,-190.9C577.38,-189.58 568.73,-188.24 560.5,-187 450.37,-170.35 422.26,-169.93 312.5,-151 302.97,-149.36 292.75,-147.42 283.15,-145.51"/>
<polygon fill="#63b8ff" stroke="#63b8ff" points="585.44,-194.37 595.86,-192.46 586.52,-187.46 585.44,-194.37"/>
</a>
</g>
</g>
<!-- Node12 -->
<g id="Node000012" class="node">
<title>Node12</title>
<g id="a_Node000012"><a xlink:href="_ui_8h.html" target="_top" xlink:title=" ">
<polygon fill="white" stroke="#666666" points="415.5,-145.5 321.5,-145.5 321.5,-126.5 415.5,-126.5 415.5,-145.5"/>
<text text-anchor="middle" x="368.5" y="-133.5" font-family="Helvetica,sans-Serif" font-size="10.00">Ajax/TShell/Ui.h</text>
</a>
</g>
</g>
<!-- Node6&#45;&gt;Node12 -->
<g id="edge13_Node000006_Node000012" class="edge">
<title>Node6&#45;&gt;Node12</title>
<g id="a_edge13_Node000006_Node000012"><a xlink:title=" ">
<path fill="none" stroke="#63b8ff" d="M599.66,-190.32C554.01,-180.44 484.6,-165.19 424.5,-151 417.18,-149.27 409.35,-147.36 401.93,-145.51"/>
<polygon fill="#63b8ff" stroke="#63b8ff" points="599.08,-193.77 609.6,-192.46 600.56,-186.93 599.08,-193.77"/>
</a>
</g>
</g>
<!-- Node13 -->
<g id="Node000013" class="node">
<title>Node13</title>
<g id="a_Node000013"><a xlink:href="_logical_buttons_8h.html" target="_top" xlink:title=" ">
<polygon fill="white" stroke="#666666" points="569.5,-145.5 433.5,-145.5 433.5,-126.5 569.5,-126.5 569.5,-145.5"/>
<text text-anchor="middle" x="501.5" y="-133.5" font-family="Helvetica,sans-Serif" font-size="10.00">Ajax/Ui/LogicalButtons.h</text>
</a>
</g>
</g>
<!-- Node6&#45;&gt;Node13 -->
<g id="edge14_Node000006_Node000013" class="edge">
<title>Node6&#45;&gt;Node13</title>
<g id="a_edge14_Node000006_Node000013"><a xlink:title=" ">
<path fill="none" stroke="#63b8ff" d="M620.27,-188.36C591.1,-175.75 547.07,-156.71 521.62,-145.7"/>
<polygon fill="#63b8ff" stroke="#63b8ff" points="618.97,-191.61 629.54,-192.37 621.75,-185.19 618.97,-191.61"/>
</a>
</g>
</g>
<!-- Node6&#45;&gt;Node14 -->
<g id="edge15_Node000006_Node000014" class="edge">
<title>Node6&#45;&gt;Node14</title>
<g id="a_edge15_Node000006_Node000014"><a xlink:title=" ">
<path fill="none" stroke="#63b8ff" d="M702.71,-190.41C751.61,-180.58 826.05,-165.33 890.5,-151 898.21,-149.29 906.46,-147.38 914.28,-145.53"/>
<polygon fill="#63b8ff" stroke="#63b8ff" points="701.79,-187.03 692.68,-192.43 703.17,-193.89 701.79,-187.03"/>
</a>
</g>
</g>
<!-- Node15 -->
<g id="Node000015" class="node">
<title>Node15</title>
<g id="a_Node000015"><a xlink:href="_log_sink_8h.html" target="_top" xlink:title=" ">
<polygon fill="white" stroke="#666666" points="711.5,-145.5 587.5,-145.5 587.5,-126.5 711.5,-126.5 711.5,-145.5"/>
<text text-anchor="middle" x="649.5" y="-133.5" font-family="Helvetica,sans-Serif" font-size="10.00">Cpl/Logging/LogSink.h</text>
</a>
</g>
</g>
<!-- Node6&#45;&gt;Node15 -->
<g id="edge16_Node000006_Node000015" class="edge">
<title>Node6&#45;&gt;Node15</title>
<g id="a_edge16_Node000006_Node000015"><a xlink:title=" ">
<path fill="none" stroke="#63b8ff" d="M649.5,-182.08C649.5,-170.13 649.5,-155.22 649.5,-145.91"/>
<polygon fill="#63b8ff" stroke="#63b8ff" points="646,-182.37 649.5,-192.37 653,-182.37 646,-182.37"/>
</a>
</g>
</g>
<!-- Node16 -->
<g id="Node000016" class="node">
<title>Node16</title>
<g id="a_Node000016"><a xlink:href="_indexed_entry_server_8h.html" target="_top" xlink:title=" ">
<polygon fill="white" stroke="#666666" points="881,-151 730,-151 730,-121 881,-121 881,-151"/>
<text text-anchor="start" x="738" y="-139" font-family="Helvetica,sans-Serif" font-size="10.00">Cpl/Persistent/IndexedEntry</text>
<text text-anchor="middle" x="805.5" y="-128" font-family="Helvetica,sans-Serif" font-size="10.00">Server.h</text>
</a>
</g>
</g>
<!-- Node6&#45;&gt;Node16 -->
<g id="edge17_Node000006_Node000016" class="edge">
<title>Node6&#45;&gt;Node16</title>
<g id="a_edge17_Node000006_Node000016"><a xlink:title=" ">
<path fill="none" stroke="#63b8ff" d="M679.96,-188.5C706.13,-177.77 743.84,-162.3 771.09,-151.12"/>
<polygon fill="#63b8ff" stroke="#63b8ff" points="678.46,-185.33 670.54,-192.37 681.12,-191.81 678.46,-185.33"/>
</a>
</g>
</g>
<!-- Node8 -->
<g id="Node000008" class="node">
<title>Node8</title>
<g id="a_Node000008"><a xlink:href="_ajax_2_ui_2_about_2_screen_8h.html" target="_top" xlink:title=" ">
<polygon fill="white" stroke="#666666" points="152.5,-79.5 24.5,-79.5 24.5,-60.5 152.5,-60.5 152.5,-79.5"/>
<text text-anchor="middle" x="88.5" y="-67.5" font-family="Helvetica,sans-Serif" font-size="10.00">Ajax/Ui/About/Screen.h</text>
</a>
</g>
</g>
<!-- Node7&#45;&gt;Node8 -->
<g id="edge7_Node000007_Node000008" class="edge">
<title>Node7&#45;&gt;Node8</title>
<g id="a_edge7_Node000007_Node000008"><a xlink:title=" ">
<path fill="none" stroke="#63b8ff" d="M212.48,-122.52C182.13,-109.91 136.03,-90.75 109.43,-79.7"/>
<polygon fill="#63b8ff" stroke="#63b8ff" points="211.15,-125.76 221.73,-126.37 213.84,-119.3 211.15,-125.76"/>
</a>
</g>
</g>
<!-- Node10 -->
<g id="Node000010" class="node">
<title>Node10</title>
<g id="a_Node000010"><a xlink:href="_ajax_2_ui_2_edit_setpt_2_screen_8h.html" target="_top" xlink:title=" ">
<polygon fill="white" stroke="#666666" points="314.5,-79.5 170.5,-79.5 170.5,-60.5 314.5,-60.5 314.5,-79.5"/>
<text text-anchor="middle" x="242.5" y="-67.5" font-family="Helvetica,sans-Serif" font-size="10.00">Ajax/Ui/EditSetpt/Screen.h</text>
</a>
</g>
</g>
<!-- Node7&#45;&gt;Node10 -->
<g id="edge9_Node000007_Node000010" class="edge">
<title>Node7&#45;&gt;Node10</title>
<g id="a_edge9_Node000007_Node000010"><a xlink:title=" ">
<path fill="none" stroke="#63b8ff" d="M242.5,-116.08C242.5,-104.13 242.5,-89.22 242.5,-79.91"/>
<polygon fill="#63b8ff" stroke="#63b8ff" points="239,-116.37 242.5,-126.37 246,-116.37 239,-116.37"/>
</a>
</g>
</g>
<!-- Node11 -->
<g id="Node000011" class="node">
<title>Node11</title>
<g id="a_Node000011"><a xlink:href="_ajax_2_ui_2_home_2_screen_8h.html" target="_top" xlink:title=" ">
<polygon fill="white" stroke="#666666" points="462,-79.5 333,-79.5 333,-60.5 462,-60.5 462,-79.5"/>
<text text-anchor="middle" x="397.5" y="-67.5" font-family="Helvetica,sans-Serif" font-size="10.00">Ajax/Ui/Home/Screen.h</text>
</a>
</g>
</g>
<!-- Node7&#45;&gt;Node11 -->
<g id="edge11_Node000007_Node000011" class="edge">
<title>Node7&#45;&gt;Node11</title>
<g id="a_edge11_Node000007_Node000011"><a xlink:title=" ">
<path fill="none" stroke="#63b8ff" d="M272.72,-122.52C303.26,-109.91 349.66,-90.75 376.43,-79.7"/>
<polygon fill="#63b8ff" stroke="#63b8ff" points="271.31,-119.32 263.4,-126.37 273.98,-125.79 271.31,-119.32"/>
</a>
</g>
</g>
<!-- Node9 -->
<g id="Node000009" class="node">
<title>Node9</title>
<g id="a_Node000009"><a xlink:href="_ajax_2_main_2screens_8h.html" target="_top" xlink:title="This file exposes handles to Screen instances for the Ajax Application.">
<polygon fill="white" stroke="#666666" points="300,-19 185,-19 185,0 300,0 300,-19"/>
<text text-anchor="middle" x="242.5" y="-7" font-family="Helvetica,sans-Serif" font-size="10.00">Ajax/Main/screens.h</text>
</a>
</g>
</g>
<!-- Node8&#45;&gt;Node9 -->
<g id="edge8_Node000008_Node000009" class="edge">
<title>Node8&#45;&gt;Node9</title>
<g id="a_edge8_Node000008_Node000009"><a xlink:title=" ">
<path fill="none" stroke="#63b8ff" d="M120.41,-56.88C150.18,-45.57 193.84,-28.99 220.08,-19.02"/>
<polygon fill="#63b8ff" stroke="#63b8ff" points="119,-53.67 110.89,-60.49 121.48,-60.21 119,-53.67"/>
</a>
</g>
</g>
<!-- Node10&#45;&gt;Node9 -->
<g id="edge10_Node000010_Node000009" class="edge">
<title>Node10&#45;&gt;Node9</title>
<g id="a_edge10_Node000010_Node000009"><a xlink:title=" ">
<path fill="none" stroke="#63b8ff" d="M242.5,-50.16C242.5,-39.74 242.5,-27.3 242.5,-19.17"/>
<polygon fill="#63b8ff" stroke="#63b8ff" points="239,-50.37 242.5,-60.37 246,-50.37 239,-50.37"/>
</a>
</g>
</g>
<!-- Node11&#45;&gt;Node9 -->
<g id="edge12_Node000011_Node000009" class="edge">
<title>Node11&#45;&gt;Node9</title>
<g id="a_edge12_Node000011_Node000009"><a xlink:title=" ">
<path fill="none" stroke="#63b8ff" d="M365.38,-56.88C335.42,-45.57 291.48,-28.99 265.07,-19.02"/>
<polygon fill="#63b8ff" stroke="#63b8ff" points="364.37,-60.24 374.96,-60.49 366.84,-53.69 364.37,-60.24"/>
</a>
</g>
</g>
<!-- Node17 -->
<g id="Node000017" class="node">
<title>Node17</title>
<g id="a_Node000017"><a xlink:href="_log_8h.html" target="_top" xlink:title=" ">
<polygon fill="white" stroke="#666666" points="859,-85 752,-85 752,-55 859,-55 859,-85"/>
<text text-anchor="start" x="760" y="-73" font-family="Helvetica,sans-Serif" font-size="10.00">Cpl/Logging/TShell</text>
<text text-anchor="middle" x="805.5" y="-62" font-family="Helvetica,sans-Serif" font-size="10.00">/Log.h</text>
</a>
</g>
</g>
<!-- Node16&#45;&gt;Node17 -->
<g id="edge18_Node000016_Node000017" class="edge">
<title>Node16&#45;&gt;Node17</title>
<g id="a_edge18_Node000016_Node000017"><a xlink:title=" ">
<path fill="none" stroke="#63b8ff" d="M805.5,-110.54C805.5,-101.96 805.5,-92.61 805.5,-85.16"/>
<polygon fill="#63b8ff" stroke="#63b8ff" points="802,-110.8 805.5,-120.8 809,-110.8 802,-110.8"/>
</a>
</g>
</g>
</g>
</svg>
