<?xml version="1.0" encoding="UTF-8" standalone="no"?>
<!DOCTYPE svg PUBLIC "-//W3C//DTD SVG 1.1//EN"
 "http://www.w3.org/Graphics/SVG/1.1/DTD/svg11.dtd">
<!-- Generated by graphviz version 9.0.0 (20230911.1827)
 -->
<!-- Title: Bsp/WatchDog.h Pages: 1 -->
<svg width="184pt" height="138pt"
 viewBox="0.00 0.00 183.62 137.75" xmlns="http://www.w3.org/2000/svg" xmlns:xlink="http://www.w3.org/1999/xlink">
<g id="graph0" class="graph" transform="scale(1 1) rotate(0) translate(4 133.75)">
<title>Bsp/WatchDog.h</title>
<!-- Node1 -->
<g id="Node000001" class="node">
<title>Node1</title>
<g id="a_Node000001"><a xlink:title="This file defines a common/generic interface for managing the application&#39;s and/or platform&#39;s watchdo...">
<polygon fill="#999999" stroke="#666666" points="133.38,-129.75 44.62,-129.75 44.62,-110.5 133.38,-110.5 133.38,-129.75"/>
<text text-anchor="middle" x="89" y="-116.25" font-family="Helvetica,sans-Serif" font-size="10.00">Bsp/WatchDog.h</text>
</a>
</g>
</g>
<!-- Node2 -->
<g id="Node000002" class="node">
<title>Node2</title>
<g id="a_Node000002"><a xlink:href="_bsp_2_api_8h.html" target="_top" xlink:title="This file defines the common/generic interfaces that all Colony.">
<polygon fill="white" stroke="#666666" points="118,-74.5 60,-74.5 60,-55.25 118,-55.25 118,-74.5"/>
<text text-anchor="middle" x="89" y="-61" font-family="Helvetica,sans-Serif" font-size="10.00">Bsp/Api.h</text>
</a>
</g>
</g>
<!-- Node1&#45;&gt;Node2 -->
<g id="edge1_Node000001_Node000002" class="edge">
<title>Node1&#45;&gt;Node2</title>
<g id="a_edge1_Node000001_Node000002"><a xlink:title=" ">
<path fill="none" stroke="#63b8ff" d="M89,-110.33C89,-103.82 89,-94.67 89,-86.37"/>
<polygon fill="#63b8ff" stroke="#63b8ff" points="92.5,-86.37 89,-76.37 85.5,-86.37 92.5,-86.37"/>
</a>
</g>
</g>
<!-- Node3 -->
<g id="Node000003" class="node">
<title>Node3</title>
<g id="a_Node000003"><a xlink:title=" ">
<polygon fill="#e0e0e0" stroke="#999999" points="82,-19.25 0,-19.25 0,0 82,0 82,-19.25"/>
<text text-anchor="middle" x="41" y="-5.75" font-family="Helvetica,sans-Serif" font-size="10.00">colony_config.h</text>
</a>
</g>
</g>
<!-- Node2&#45;&gt;Node3 -->
<g id="edge2_Node000002_Node000003" class="edge">
<title>Node2&#45;&gt;Node3</title>
<g id="a_edge2_Node000002_Node000003"><a xlink:title=" ">
<path fill="none" stroke="#63b8ff" d="M81.07,-55.08C74.44,-47.73 64.78,-37.01 56.61,-27.94"/>
<polygon fill="#63b8ff" stroke="#63b8ff" points="59.41,-25.82 50.11,-20.73 54.21,-30.5 59.41,-25.82"/>
</a>
</g>
</g>
<!-- Node4 -->
<g id="Node000004" class="node">
<title>Node4</title>
<g id="a_Node000004"><a xlink:title=" ">
<polygon fill="#e0e0e0" stroke="#999999" points="175.62,-19.25 100.38,-19.25 100.38,0 175.62,0 175.62,-19.25"/>
<text text-anchor="middle" x="138" y="-5.75" font-family="Helvetica,sans-Serif" font-size="10.00">colony_map.h</text>
</a>
</g>
</g>
<!-- Node2&#45;&gt;Node4 -->
<g id="edge3_Node000002_Node000004" class="edge">
<title>Node2&#45;&gt;Node4</title>
<g id="a_edge3_Node000002_Node000004"><a xlink:title=" ">
<path fill="none" stroke="#63b8ff" d="M97.09,-55.08C103.86,-47.73 113.72,-37.01 122.06,-27.94"/>
<polygon fill="#63b8ff" stroke="#63b8ff" points="124.51,-30.45 128.71,-20.72 119.36,-25.71 124.51,-30.45"/>
</a>
</g>
</g>
</g>
</svg>
