<?xml version="1.0" encoding="UTF-8" standalone="no"?>
<!DOCTYPE svg PUBLIC "-//W3C//DTD SVG 1.1//EN"
 "http://www.w3.org/Graphics/SVG/1.1/DTD/svg11.dtd">
<!-- Generated by graphviz version 9.0.0 (20230911.1827)
 -->
<!-- Title: Cpl::Itc::ServiceMessage Pages: 1 -->
<svg width="148pt" height="260pt"
 viewBox="0.00 0.00 147.75 259.50" xmlns="http://www.w3.org/2000/svg" xmlns:xlink="http://www.w3.org/1999/xlink">
<g id="graph0" class="graph" transform="scale(1 1) rotate(0) translate(4 255.5)">
<title>Cpl::Itc::ServiceMessage</title>
<!-- Node1 -->
<g id="Node000001" class="node">
<title>Node1</title>
<g id="a_Node000001"><a xlink:title="This class represents a defined message, which is posted to a mailbox&#45;server as a request.">
<polygon fill="#999999" stroke="#666666" points="131.5,-85.75 8.25,-85.75 8.25,-66.5 131.5,-66.5 131.5,-85.75"/>
<text text-anchor="middle" x="69.88" y="-72.25" font-family="Helvetica,sans-Serif" font-size="10.00">Cpl::Itc::ServiceMessage</text>
</a>
</g>
</g>
<!-- Node5 -->
<g id="Node000005" class="node">
<title>Node5</title>
<g id="a_Node000005"><a xlink:href="class_cpl_1_1_itc_1_1_request_message.html" target="_top" xlink:title="This template class represents a service request message to a particular server.">
<polygon fill="white" stroke="#666666" points="133,-30.5 6.75,-30.5 6.75,0 133,0 133,-30.5"/>
<text text-anchor="start" x="14.75" y="-17" font-family="Helvetica,sans-Serif" font-size="10.00">Cpl::Itc::RequestMessage</text>
<text text-anchor="middle" x="69.88" y="-5.75" font-family="Helvetica,sans-Serif" font-size="10.00">&lt; SERVER, PAYLOAD &gt;</text>
</a>
</g>
</g>
<!-- Node1&#45;&gt;Node5 -->
<g id="edge4_Node000001_Node000005" class="edge">
<title>Node1&#45;&gt;Node5</title>
<g id="a_edge4_Node000001_Node000005"><a xlink:title=" ">
<path fill="none" stroke="#63b8ff" d="M69.88,-54.92C69.88,-46.99 69.88,-38.06 69.88,-30.78"/>
<polygon fill="#63b8ff" stroke="#63b8ff" points="66.38,-54.67 69.88,-64.67 73.38,-54.67 66.38,-54.67"/>
</a>
</g>
</g>
<!-- Node2 -->
<g id="Node000002" class="node">
<title>Node2</title>
<g id="a_Node000002"><a xlink:href="class_cpl_1_1_itc_1_1_message.html" target="_top" xlink:title="This abstract class defines the operations for an ITC message.">
<polygon fill="white" stroke="#666666" points="115,-141 24.75,-141 24.75,-121.75 115,-121.75 115,-141"/>
<text text-anchor="middle" x="69.88" y="-127.5" font-family="Helvetica,sans-Serif" font-size="10.00">Cpl::Itc::Message</text>
</a>
</g>
</g>
<!-- Node2&#45;&gt;Node1 -->
<g id="edge1_Node000001_Node000002" class="edge">
<title>Node2&#45;&gt;Node1</title>
<g id="a_edge1_Node000001_Node000002"><a xlink:title=" ">
<path fill="none" stroke="#63b8ff" d="M69.88,-110.13C69.88,-101.84 69.88,-92.67 69.88,-86.11"/>
<polygon fill="#63b8ff" stroke="#63b8ff" points="66.38,-110.07 69.88,-120.07 73.38,-110.07 66.38,-110.07"/>
</a>
</g>
</g>
<!-- Node3 -->
<g id="Node000003" class="node">
<title>Node3</title>
<g id="a_Node000003"><a xlink:href="class_cpl_1_1_container_1_1_extended_item.html" target="_top" xlink:title="This class is used by the Container classes to implement a various types of DOUBLY linked containers.">
<polygon fill="white" stroke="#666666" points="139.75,-196.25 0,-196.25 0,-177 139.75,-177 139.75,-196.25"/>
<text text-anchor="middle" x="69.88" y="-182.75" font-family="Helvetica,sans-Serif" font-size="10.00">Cpl::Container::ExtendedItem</text>
</a>
</g>
</g>
<!-- Node3&#45;&gt;Node2 -->
<g id="edge2_Node000002_Node000003" class="edge">
<title>Node3&#45;&gt;Node2</title>
<g id="a_edge2_Node000002_Node000003"><a xlink:title=" ">
<path fill="none" stroke="#63b8ff" d="M69.88,-165.38C69.88,-157.09 69.88,-147.92 69.88,-141.36"/>
<polygon fill="#63b8ff" stroke="#63b8ff" points="66.38,-165.32 69.88,-175.32 73.38,-165.32 66.38,-165.32"/>
</a>
</g>
</g>
<!-- Node4 -->
<g id="Node000004" class="node">
<title>Node4</title>
<g id="a_Node000004"><a xlink:href="class_cpl_1_1_container_1_1_item.html" target="_top" xlink:title="This class is used by the Container classes to implement a various types of singly linked containers.">
<polygon fill="white" stroke="#666666" points="119.88,-251.5 19.88,-251.5 19.88,-232.25 119.88,-232.25 119.88,-251.5"/>
<text text-anchor="middle" x="69.88" y="-238" font-family="Helvetica,sans-Serif" font-size="10.00">Cpl::Container::Item</text>
</a>
</g>
</g>
<!-- Node4&#45;&gt;Node3 -->
<g id="edge3_Node000003_Node000004" class="edge">
<title>Node4&#45;&gt;Node3</title>
<g id="a_edge3_Node000003_Node000004"><a xlink:title=" ">
<path fill="none" stroke="#63b8ff" d="M69.88,-220.63C69.88,-212.34 69.88,-203.17 69.88,-196.61"/>
<polygon fill="#63b8ff" stroke="#63b8ff" points="66.38,-220.57 69.88,-230.57 73.38,-220.57 66.38,-220.57"/>
</a>
</g>
</g>
</g>
</svg>
