<?xml version="1.0" encoding="UTF-8" standalone="no"?>
<!DOCTYPE svg PUBLIC "-//W3C//DTD SVG 1.1//EN"
 "http://www.w3.org/Graphics/SVG/1.1/DTD/svg11.dtd">
<!-- Generated by graphviz version 2.43.0 (0)
 -->
<!-- Title: Cpl::System::CounterCallback_ Pages: 1 -->
<svg width="1168pt" height="440pt"
 viewBox="0.00 0.00 1168.00 439.50" xmlns="http://www.w3.org/2000/svg" xmlns:xlink="http://www.w3.org/1999/xlink">
<g id="graph0" class="graph" transform="scale(1 1) rotate(0) translate(4 435.5)">
<title>Cpl::System::CounterCallback_</title>
<!-- Node1 -->
<g id="Node000001" class="node">
<title>Node1</title>
<g id="a_Node000001"><a xlink:title="This abstract class defines the call&#45;back interface for a Counter object.">
<polygon fill="#999999" stroke="#666666" points="515,-229 348,-229 348,-210 515,-210 515,-229"/>
<text text-anchor="middle" x="431.5" y="-217" font-family="Helvetica,sans-Serif" font-size="10.00">Cpl::System::CounterCallback_</text>
</a>
</g>
</g>
<!-- Node4 -->
<g id="Node000004" class="node">
<title>Node4</title>
<g id="a_Node000004"><a xlink:href="class_cpl_1_1_system_1_1_timer.html" target="_top" xlink:title="This mostly concrete interface defines the operations that can be performed on a software timer.">
<polygon fill="white" stroke="#666666" points="662,-229 552,-229 552,-210 662,-210 662,-229"/>
<text text-anchor="middle" x="607" y="-217" font-family="Helvetica,sans-Serif" font-size="10.00">Cpl::System::Timer</text>
</a>
</g>
</g>
<!-- Node1&#45;&gt;Node4 -->
<g id="edge3_Node000001_Node000004" class="edge">
<title>Node1&#45;&gt;Node4</title>
<g id="a_edge3_Node000001_Node000004"><a xlink:title=" ">
<path fill="none" stroke="#63b8ff" d="M525.36,-219.5C534.35,-219.5 543.26,-219.5 551.68,-219.5"/>
<polygon fill="#63b8ff" stroke="#63b8ff" points="525.18,-216 515.18,-219.5 525.18,-223 525.18,-216"/>
</a>
</g>
</g>
<!-- Node2 -->
<g id="Node000002" class="node">
<title>Node2</title>
<g id="a_Node000002"><a xlink:href="class_cpl_1_1_container_1_1_extended_item.html" target="_top" xlink:title="This class is used by the Container classes to implement a various types of DOUBLY linked containers.">
<polygon fill="white" stroke="#666666" points="311,-229 151,-229 151,-210 311,-210 311,-229"/>
<text text-anchor="middle" x="231" y="-217" font-family="Helvetica,sans-Serif" font-size="10.00">Cpl::Container::ExtendedItem</text>
</a>
</g>
</g>
<!-- Node2&#45;&gt;Node1 -->
<g id="edge1_Node000001_Node000002" class="edge">
<title>Node2&#45;&gt;Node1</title>
<g id="a_edge1_Node000001_Node000002"><a xlink:title=" ">
<path fill="none" stroke="#63b8ff" d="M321.03,-219.5C329.96,-219.5 338.99,-219.5 347.85,-219.5"/>
<polygon fill="#63b8ff" stroke="#63b8ff" points="321.02,-216 311.02,-219.5 321.02,-223 321.02,-216"/>
</a>
</g>
</g>
<!-- Node3 -->
<g id="Node000003" class="node">
<title>Node3</title>
<g id="a_Node000003"><a xlink:href="class_cpl_1_1_container_1_1_item.html" target="_top" xlink:title="This class is used by the Container classes to implement a various types of singly linked containers.">
<polygon fill="white" stroke="#666666" points="114,-229 0,-229 0,-210 114,-210 114,-229"/>
<text text-anchor="middle" x="57" y="-217" font-family="Helvetica,sans-Serif" font-size="10.00">Cpl::Container::Item</text>
</a>
</g>
</g>
<!-- Node3&#45;&gt;Node2 -->
<g id="edge2_Node000002_Node000003" class="edge">
<title>Node3&#45;&gt;Node2</title>
<g id="a_edge2_Node000002_Node000003"><a xlink:title=" ">
<path fill="none" stroke="#63b8ff" d="M124.33,-219.5C132.99,-219.5 141.93,-219.5 150.77,-219.5"/>
<polygon fill="#63b8ff" stroke="#63b8ff" points="124.32,-216 114.32,-219.5 124.32,-223 124.32,-216"/>
</a>
</g>
</g>
<!-- Node5 -->
<g id="Node000005" class="node">
<title>Node5</title>
<g id="a_Node000005"><a xlink:href="class_cpl_1_1_system_1_1_timer_composer.html" target="_top" xlink:title=" ">
<polygon fill="white" stroke="#666666" points="1158,-243.5 999,-243.5 999,-213.5 1158,-213.5 1158,-243.5"/>
<text text-anchor="start" x="1007" y="-231.5" font-family="Helvetica,sans-Serif" font-size="10.00">Cpl::System::TimerComposer</text>
<text text-anchor="middle" x="1078.5" y="-220.5" font-family="Helvetica,sans-Serif" font-size="10.00">&lt; Ajax::ScreenMgr::Api &gt;</text>
</a>
</g>
</g>
<!-- Node4&#45;&gt;Node5 -->
<g id="edge4_Node000004_Node000005" class="edge">
<title>Node4&#45;&gt;Node5</title>
<g id="a_edge4_Node000004_Node000005"><a xlink:title=" ">
<path fill="none" stroke="#63b8ff" d="M654.88,-207.79C668.97,-204.79 684.53,-201.99 699,-200.5 802.39,-189.82 922.09,-202.94 998.73,-214.57"/>
<polygon fill="#63b8ff" stroke="#63b8ff" points="653.93,-204.41 644.92,-209.99 655.44,-211.25 653.93,-204.41"/>
</a>
</g>
</g>
<!-- Node6 -->
<g id="Node000006" class="node">
<title>Node6</title>
<g id="a_Node000006"><a xlink:href="class_ajax_1_1_heating_1_1_io_1_1_api.html" target="_top" xlink:title="This class is responsible for &#39;translating&#39; physical hardware signal to/from model point values.">
<polygon fill="white" stroke="#666666" points="839.5,-389 720.5,-389 720.5,-370 839.5,-370 839.5,-389"/>
<text text-anchor="middle" x="780" y="-377" font-family="Helvetica,sans-Serif" font-size="10.00">Ajax::Heating::Io::Api</text>
</a>
</g>
</g>
<!-- Node4&#45;&gt;Node6 -->
<g id="edge5_Node000004_Node000006" class="edge">
<title>Node4&#45;&gt;Node6</title>
<g id="a_edge5_Node000004_Node000006"><a xlink:title=" ">
<path fill="none" stroke="#63b8ff" d="M614.93,-238.76C627.01,-269.5 654.95,-329.36 699,-360.5 705.41,-365.03 712.76,-368.49 720.35,-371.14"/>
<polygon fill="#63b8ff" stroke="#63b8ff" points="618.12,-237.31 611.31,-229.19 611.57,-239.78 618.12,-237.31"/>
</a>
</g>
</g>
<!-- Node7 -->
<g id="Node000007" class="node">
<title>Node7</title>
<g id="a_Node000007"><a xlink:href="class_ajax_1_1_heating_1_1_supervisor_1_1_api.html" target="_top" xlink:title="This class implements the Heating Algorithm Supervisor.">
<polygon fill="white" stroke="#666666" points="861,-426 699,-426 699,-407 861,-407 861,-426"/>
<text text-anchor="middle" x="780" y="-414" font-family="Helvetica,sans-Serif" font-size="10.00">Ajax::Heating::Supervisor::Api</text>
</a>
</g>
</g>
<!-- Node4&#45;&gt;Node7 -->
<g id="edge6_Node000004_Node000007" class="edge">
<title>Node4&#45;&gt;Node7</title>
<g id="a_edge6_Node000004_Node000007"><a xlink:title=" ">
<path fill="none" stroke="#63b8ff" d="M612.17,-239.16C621.13,-276.41 645.88,-357.19 699,-398.5 703.38,-401.91 708.29,-404.7 713.45,-406.97"/>
<polygon fill="#63b8ff" stroke="#63b8ff" points="615.51,-238.07 609.88,-229.1 608.68,-239.62 615.51,-238.07"/>
</a>
</g>
</g>
<!-- Node9 -->
<g id="Node000009" class="node">
<title>Node9</title>
<g id="a_Node000009"><a xlink:href="class_ajax_1_1_metrics_1_1_api.html" target="_top" xlink:title="This class manages the collection of Metrics and triggering their updates to persistent storage.">
<polygon fill="white" stroke="#666666" points="831,-303 729,-303 729,-284 831,-284 831,-303"/>
<text text-anchor="middle" x="780" y="-291" font-family="Helvetica,sans-Serif" font-size="10.00">Ajax::Metrics::Api</text>
</a>
</g>
</g>
<!-- Node4&#45;&gt;Node9 -->
<g id="edge8_Node000004_Node000009" class="edge">
<title>Node4&#45;&gt;Node9</title>
<g id="a_edge8_Node000004_Node000009"><a xlink:title=" ">
<path fill="none" stroke="#63b8ff" d="M628.98,-235.2C646.76,-247.81 673.39,-265.08 699,-275.5 708.36,-279.31 718.68,-282.39 728.71,-284.85"/>
<polygon fill="#63b8ff" stroke="#63b8ff" points="630.69,-232.12 620.53,-229.1 626.58,-237.79 630.69,-232.12"/>
</a>
</g>
</g>
<!-- Node10 -->
<g id="Node000010" class="node">
<title>Node10</title>
<g id="a_Node000010"><a xlink:href="class_ajax_1_1_ui_1_1_logical_buttons.html" target="_top" xlink:title="This concrete class translates physical button actions into logical UI Button events.">
<polygon fill="white" stroke="#666666" points="846.5,-266 713.5,-266 713.5,-247 846.5,-247 846.5,-266"/>
<text text-anchor="middle" x="780" y="-254" font-family="Helvetica,sans-Serif" font-size="10.00">Ajax::Ui::LogicalButtons</text>
</a>
</g>
</g>
<!-- Node4&#45;&gt;Node10 -->
<g id="edge9_Node000004_Node000010" class="edge">
<title>Node4&#45;&gt;Node10</title>
<g id="a_edge9_Node000004_Node000010"><a xlink:title=" ">
<path fill="none" stroke="#63b8ff" d="M661.85,-231.15C685.34,-236.23 712.54,-242.12 734.82,-246.94"/>
<polygon fill="#63b8ff" stroke="#63b8ff" points="662.55,-227.72 652.04,-229.03 661.07,-234.56 662.55,-227.72"/>
</a>
</g>
</g>
<!-- Node11 -->
<g id="Node000011" class="node">
<title>Node11</title>
<g id="a_Node000011"><a xlink:href="class_ajax_1_1_ui_1_1_status_indicator_1_1_api.html" target="_top" xlink:title="This class manages the what color/on&#45;off&#45;state of the RGB LED.">
<polygon fill="white" stroke="#666666" points="858,-229 702,-229 702,-210 858,-210 858,-229"/>
<text text-anchor="middle" x="780" y="-217" font-family="Helvetica,sans-Serif" font-size="10.00">Ajax::Ui::StatusIndicator::Api</text>
</a>
</g>
</g>
<!-- Node4&#45;&gt;Node11 -->
<g id="edge10_Node000004_Node000011" class="edge">
<title>Node4&#45;&gt;Node11</title>
<g id="a_edge10_Node000004_Node000011"><a xlink:title=" ">
<path fill="none" stroke="#63b8ff" d="M672.36,-219.5C681.98,-219.5 691.97,-219.5 701.82,-219.5"/>
<polygon fill="#63b8ff" stroke="#63b8ff" points="672.11,-216 662.11,-219.5 672.11,-223 672.11,-216"/>
</a>
</g>
</g>
<!-- Node12 -->
<g id="Node000012" class="node">
<title>Node12</title>
<g id="a_Node000012"><a xlink:href="class_cpl_1_1_dm_1_1_persistent_1_1_record.html" target="_top" xlink:title="This mostly concrete class implements the Cpl::Persistent::Record interface where a Record instance c...">
<polygon fill="white" stroke="#666666" points="835,-115.5 725,-115.5 725,-85.5 835,-85.5 835,-115.5"/>
<text text-anchor="start" x="733" y="-103.5" font-family="Helvetica,sans-Serif" font-size="10.00">Cpl::Dm::Persistent</text>
<text text-anchor="middle" x="780" y="-92.5" font-family="Helvetica,sans-Serif" font-size="10.00">::Record</text>
</a>
</g>
</g>
<!-- Node4&#45;&gt;Node12 -->
<g id="edge11_Node000004_Node000012" class="edge">
<title>Node4&#45;&gt;Node12</title>
<g id="a_edge11_Node000004_Node000012"><a xlink:title=" ">
<path fill="none" stroke="#63b8ff" d="M620.52,-201.64C636.41,-180.27 665.76,-144.84 699,-124.5 706.92,-119.66 715.87,-115.73 724.86,-112.58"/>
<polygon fill="#63b8ff" stroke="#63b8ff" points="617.6,-199.7 614.57,-209.85 623.27,-203.81 617.6,-199.7"/>
</a>
</g>
</g>
<!-- Node16 -->
<g id="Node000016" class="node">
<title>Node16</title>
<g id="a_Node000016"><a xlink:href="class_cpl_1_1_m_app_1_1_temperature_1_1_api.html" target="_top" xlink:title="This concrete class implements MApp the polls a model point for a temperature value and periodically ...">
<polygon fill="white" stroke="#666666" points="857.5,-153 702.5,-153 702.5,-134 857.5,-134 857.5,-153"/>
<text text-anchor="middle" x="780" y="-141" font-family="Helvetica,sans-Serif" font-size="10.00">Cpl::MApp::Temperature::Api</text>
</a>
</g>
</g>
<!-- Node4&#45;&gt;Node16 -->
<g id="edge15_Node000004_Node000016" class="edge">
<title>Node4&#45;&gt;Node16</title>
<g id="a_edge15_Node000004_Node000016"><a xlink:title=" ">
<path fill="none" stroke="#63b8ff" d="M626.16,-203.3C640.01,-191.75 660.05,-176.69 680,-167.5 693.49,-161.28 708.79,-156.56 723.25,-153.03"/>
<polygon fill="#63b8ff" stroke="#63b8ff" points="623.71,-200.8 618.39,-209.96 628.26,-206.11 623.71,-200.8"/>
</a>
</g>
</g>
<!-- Node17 -->
<g id="Node000017" class="node">
<title>Node17</title>
<g id="a_Node000017"><a xlink:href="class_cpl_1_1_system_1_1_timer_composer.html" target="_top" xlink:title="This template class implements a Software Timer that is context independent and allows for a single c...">
<polygon fill="white" stroke="#666666" points="859.5,-351.5 700.5,-351.5 700.5,-321.5 859.5,-321.5 859.5,-351.5"/>
<text text-anchor="start" x="708.5" y="-339.5" font-family="Helvetica,sans-Serif" font-size="10.00">Cpl::System::TimerComposer</text>
<text text-anchor="middle" x="780" y="-328.5" font-family="Helvetica,sans-Serif" font-size="10.00">&lt; CONTEXT &gt;</text>
</a>
</g>
</g>
<!-- Node4&#45;&gt;Node17 -->
<g id="edge16_Node000004_Node000017" class="edge">
<title>Node4&#45;&gt;Node17</title>
<g id="a_edge16_Node000004_Node000017"><a xlink:title=" ">
<path fill="none" stroke="#63b8ff" d="M620.85,-237.3C636.88,-258.24 666.19,-292.66 699,-312.5 704.58,-315.88 710.68,-318.81 716.93,-321.35"/>
<polygon fill="#63b8ff" stroke="#63b8ff" points="623.62,-235.15 614.83,-229.23 618.01,-239.34 623.62,-235.15"/>
</a>
</g>
</g>
<!-- Node18 -->
<g id="Node000018" class="node">
<title>Node18</title>
<g id="a_Node000018"><a xlink:href="class_driver_1_1_a_i_o_1_1_ajax_1_1_thermistor.html" target="_top" xlink:title="This class is responsible for sampling the on&#45;board temperature sensor every N milliseconds and popul...">
<polygon fill="white" stroke="#666666" points="832,-67.5 728,-67.5 728,-37.5 832,-37.5 832,-67.5"/>
<text text-anchor="start" x="736" y="-55.5" font-family="Helvetica,sans-Serif" font-size="10.00">Driver::AIO::Ajax::</text>
<text text-anchor="middle" x="780" y="-44.5" font-family="Helvetica,sans-Serif" font-size="10.00">Thermistor</text>
</a>
</g>
</g>
<!-- Node4&#45;&gt;Node18 -->
<g id="edge18_Node000004_Node000018" class="edge">
<title>Node4&#45;&gt;Node18</title>
<g id="a_edge18_Node000004_Node000018"><a xlink:title=" ">
<path fill="none" stroke="#63b8ff" d="M615.07,-200.27C627.35,-169.51 655.55,-109.38 699,-76.5 707.44,-70.11 717.57,-65.42 727.75,-61.97"/>
<polygon fill="#63b8ff" stroke="#63b8ff" points="611.71,-199.24 611.39,-209.83 618.24,-201.75 611.71,-199.24"/>
</a>
</g>
</g>
<!-- Node20 -->
<g id="Node000020" class="node">
<title>Node20</title>
<g id="a_Node000020"><a xlink:href="class_eros_1_1_test_1_1_cycle_1_1_api.html" target="_top" xlink:title="This concrete class implements MApp the duty cycles the heating equipment based on command arguments.">
<polygon fill="white" stroke="#666666" points="839,-19 721,-19 721,0 839,0 839,-19"/>
<text text-anchor="middle" x="780" y="-7" font-family="Helvetica,sans-Serif" font-size="10.00">Eros::Test::Cycle::Api</text>
</a>
</g>
</g>
<!-- Node4&#45;&gt;Node20 -->
<g id="edge20_Node000004_Node000020" class="edge">
<title>Node4&#45;&gt;Node20</title>
<g id="a_edge20_Node000004_Node000020"><a xlink:title=" ">
<path fill="none" stroke="#63b8ff" d="M611.53,-199.92C619.61,-160.95 643.24,-73.56 699,-28.5 705.33,-23.39 712.81,-19.61 720.6,-16.82"/>
<polygon fill="#63b8ff" stroke="#63b8ff" points="608.09,-199.27 609.61,-209.75 614.96,-200.61 608.09,-199.27"/>
</a>
</g>
</g>
<!-- Node8 -->
<g id="Node000008" class="node">
<title>Node8</title>
<g id="a_Node000008"><a xlink:href="class_ajax_1_1_heating_1_1_simulated_1_1_house.html" target="_top" xlink:title="This class glues the House Simulation into the Heater Application.">
<polygon fill="white" stroke="#666666" points="1147.5,-431.5 1009.5,-431.5 1009.5,-401.5 1147.5,-401.5 1147.5,-431.5"/>
<text text-anchor="start" x="1017.5" y="-419.5" font-family="Helvetica,sans-Serif" font-size="10.00">Ajax::Heating::Simulated</text>
<text text-anchor="middle" x="1078.5" y="-408.5" font-family="Helvetica,sans-Serif" font-size="10.00">::House</text>
</a>
</g>
</g>
<!-- Node7&#45;&gt;Node8 -->
<g id="edge7_Node000007_Node000008" class="edge">
<title>Node7&#45;&gt;Node8</title>
<g id="a_edge7_Node000007_Node000008"><a xlink:title=" ">
<path fill="none" stroke="#63b8ff" d="M871.44,-416.5C915.8,-416.5 968.34,-416.5 1009.26,-416.5"/>
<polygon fill="#63b8ff" stroke="#63b8ff" points="871.24,-413 861.24,-416.5 871.24,-420 871.24,-413"/>
</a>
</g>
</g>
<!-- Node13 -->
<g id="Node000013" class="node">
<title>Node13</title>
<g id="a_Node000013"><a xlink:href="class_ajax_1_1_main_1_1_metrics_record.html" target="_top" xlink:title="This concrete class implements the &quot;Record&quot; class for storing user settings.">
<polygon fill="white" stroke="#666666" points="1150.5,-119 1006.5,-119 1006.5,-100 1150.5,-100 1150.5,-119"/>
<text text-anchor="middle" x="1078.5" y="-107" font-family="Helvetica,sans-Serif" font-size="10.00">Ajax::Main::MetricsRecord</text>
</a>
</g>
</g>
<!-- Node12&#45;&gt;Node13 -->
<g id="edge12_Node000012_Node000013" class="edge">
<title>Node12&#45;&gt;Node13</title>
<g id="a_edge12_Node000012_Node000013"><a xlink:title=" ">
<path fill="none" stroke="#63b8ff" d="M845.19,-102.45C892.62,-103.89 957.2,-105.85 1006.23,-107.34"/>
<polygon fill="#63b8ff" stroke="#63b8ff" points="845.14,-98.95 835.04,-102.14 844.93,-105.94 845.14,-98.95"/>
</a>
</g>
</g>
<!-- Node14 -->
<g id="Node000014" class="node">
<title>Node14</title>
<g id="a_Node000014"><a xlink:href="class_ajax_1_1_main_1_1_personality_record.html" target="_top" xlink:title="This concrete class implements the &quot;Record&quot; class for storing the &#39;Personality&#39; settings.">
<polygon fill="white" stroke="#666666" points="1160,-82 997,-82 997,-63 1160,-63 1160,-82"/>
<text text-anchor="middle" x="1078.5" y="-70" font-family="Helvetica,sans-Serif" font-size="10.00">Ajax::Main::PersonalityRecord</text>
</a>
</g>
</g>
<!-- Node12&#45;&gt;Node14 -->
<g id="edge13_Node000012_Node000014" class="edge">
<title>Node12&#45;&gt;Node14</title>
<g id="a_edge13_Node000012_Node000014"><a xlink:title=" ">
<path fill="none" stroke="#63b8ff" d="M845.15,-94.44C889.67,-90.24 949.29,-84.61 997,-80.1"/>
<polygon fill="#63b8ff" stroke="#63b8ff" points="844.66,-90.97 835.04,-95.4 845.32,-97.94 844.66,-90.97"/>
</a>
</g>
</g>
<!-- Node15 -->
<g id="Node000015" class="node">
<title>Node15</title>
<g id="a_Node000015"><a xlink:href="class_ajax_1_1_main_1_1_user_record.html" target="_top" xlink:title="This concrete class implements the &quot;Record&quot; class for storing user settings.">
<polygon fill="white" stroke="#666666" points="1144,-156 1013,-156 1013,-137 1144,-137 1144,-156"/>
<text text-anchor="middle" x="1078.5" y="-144" font-family="Helvetica,sans-Serif" font-size="10.00">Ajax::Main::UserRecord</text>
</a>
</g>
</g>
<!-- Node12&#45;&gt;Node15 -->
<g id="edge14_Node000012_Node000015" class="edge">
<title>Node12&#45;&gt;Node15</title>
<g id="a_edge14_Node000012_Node000015"><a xlink:title=" ">
<path fill="none" stroke="#63b8ff" d="M844.91,-113.43C856.25,-115.57 867.96,-117.68 879,-119.5 923.61,-126.85 974.1,-133.7 1013,-138.66"/>
<polygon fill="#63b8ff" stroke="#63b8ff" points="845.55,-109.99 835.07,-111.55 844.24,-116.86 845.55,-109.99"/>
</a>
</g>
</g>
<!-- Node17&#45;&gt;Node5 -->
<g id="edge17_Node000017_Node000005" class="edge">
<title>Node17&#45;&gt;Node5</title>
<g id="a_edge17_Node000017_Node000005"><a xlink:title=" ">
<path fill="none" stroke="orange" stroke-dasharray="5,2" d="M842.89,-318.46C849.03,-316.51 855.15,-314.51 861,-312.5 925.06,-290.5 998.28,-261.2 1041.05,-243.66"/>
<polygon fill="orange" stroke="orange" points="841.76,-315.15 833.26,-321.47 843.85,-321.83 841.76,-315.15"/>
</a>
</g>
<text text-anchor="start" x="879" y="-317.5" font-family="Helvetica,sans-Serif" font-size="10.00" fill="grey"> &lt; Ajax::ScreenMgr::</text>
<text text-anchor="middle" x="929" y="-306.5" font-family="Helvetica,sans-Serif" font-size="10.00" fill="grey">Api &gt;</text>
</g>
<!-- Node19 -->
<g id="Node000019" class="node">
<title>Node19</title>
<g id="a_Node000019"><a xlink:href="class_driver_1_1_a_i_o_1_1_eros_1_1_thermistor.html" target="_top" xlink:title="This class is an Eros specific extension of the Driver::AIO::Ajax::Thermistor driver.">
<polygon fill="white" stroke="#666666" points="1130,-44.5 1027,-44.5 1027,-14.5 1130,-14.5 1130,-44.5"/>
<text text-anchor="start" x="1035" y="-32.5" font-family="Helvetica,sans-Serif" font-size="10.00">Driver::AIO::Eros::</text>
<text text-anchor="middle" x="1078.5" y="-21.5" font-family="Helvetica,sans-Serif" font-size="10.00">Thermistor</text>
</a>
</g>
</g>
<!-- Node18&#45;&gt;Node19 -->
<g id="edge19_Node000018_Node000019" class="edge">
<title>Node18&#45;&gt;Node19</title>
<g id="a_edge19_Node000018_Node000019"><a xlink:title=" ">
<path fill="none" stroke="#63b8ff" d="M842.54,-47.73C897.1,-43.49 975.82,-37.39 1026.82,-33.43"/>
<polygon fill="#63b8ff" stroke="#63b8ff" points="842.01,-44.26 832.31,-48.52 842.55,-51.24 842.01,-44.26"/>
</a>
</g>
</g>
</g>
</svg>
