<?xml version="1.0" encoding="UTF-8" standalone="no"?>
<!DOCTYPE svg PUBLIC "-//W3C//DTD SVG 1.1//EN"
 "http://www.w3.org/Graphics/SVG/1.1/DTD/svg11.dtd">
<!-- Generated by graphviz version 9.0.0 (20230911.1827)
 -->
<!-- Title: Cpl::TShell::Cmd::Command Pages: 1 -->
<svg width="1268pt" height="902pt"
 viewBox="0.00 0.00 1267.75 902.25" xmlns="http://www.w3.org/2000/svg" xmlns:xlink="http://www.w3.org/1999/xlink">
<g id="graph0" class="graph" transform="scale(1 1) rotate(0) translate(4 898.25)">
<title>Cpl::TShell::Cmd::Command</title>
<!-- Node1 -->
<g id="Node000001" class="node">
<title>Node1</title>
<g id="a_Node000001"><a xlink:title="This partially concrete class implements infrastructure and/or common functionality for a Shell comma...">
<polygon fill="#999999" stroke="#666666" points="903,-468.25 767,-468.25 767,-449 903,-449 903,-468.25"/>
<text text-anchor="middle" x="835" y="-454.75" font-family="Helvetica,sans-Serif" font-size="10.00">Cpl::TShell::Cmd::Command</text>
</a>
</g>
</g>
<!-- Node7 -->
<g id="Node000007" class="node">
<title>Node7</title>
<g id="a_Node000007"><a xlink:href="class_ajax_1_1_heating_1_1_simulated_1_1_cmd.html" target="_top" xlink:title="This class implements a Shell command.">
<polygon fill="white" stroke="#666666" points="1085.12,-894.25 939.38,-894.25 939.38,-875 1085.12,-875 1085.12,-894.25"/>
<text text-anchor="middle" x="1012.25" y="-880.75" font-family="Helvetica,sans-Serif" font-size="10.00">Ajax::Heating::Simulated::Cmd</text>
</a>
</g>
</g>
<!-- Node1&#45;&gt;Node7 -->
<g id="edge6_Node000001_Node000007" class="edge">
<title>Node1&#45;&gt;Node7</title>
<g id="a_edge6_Node000001_Node000007"><a xlink:title=" ">
<path fill="none" stroke="#63b8ff" d="M838.48,-479.81C847.75,-555.43 882.75,-810.55 939,-866.62 942.2,-869.82 945.88,-872.48 949.85,-874.68"/>
<polygon fill="#63b8ff" stroke="#63b8ff" points="841.98,-479.57 837.31,-470.06 835.03,-480.41 841.98,-479.57"/>
</a>
</g>
</g>
<!-- Node8 -->
<g id="Node000008" class="node">
<title>Node8</title>
<g id="a_Node000008"><a xlink:href="class_ajax_1_1_t_shell_1_1_provision.html" target="_top" xlink:title="This class implements a TShell command that is used to provision a GM6000 unit at production.">
<polygon fill="white" stroke="#666666" points="1068.25,-857.25 956.25,-857.25 956.25,-838 1068.25,-838 1068.25,-857.25"/>
<text text-anchor="middle" x="1012.25" y="-843.75" font-family="Helvetica,sans-Serif" font-size="10.00">Ajax::TShell::Provision</text>
</a>
</g>
</g>
<!-- Node1&#45;&gt;Node8 -->
<g id="edge7_Node000001_Node000008" class="edge">
<title>Node1&#45;&gt;Node8</title>
<g id="a_edge7_Node000001_Node000008"><a xlink:title=" ">
<path fill="none" stroke="#63b8ff" d="M839.03,-479.71C849.66,-550.71 887.38,-779.36 939,-829.62 943.82,-834.31 949.66,-837.84 955.91,-840.48"/>
<polygon fill="#63b8ff" stroke="#63b8ff" points="842.55,-479.59 837.64,-470.2 835.63,-480.6 842.55,-479.59"/>
</a>
</g>
</g>
<!-- Node9 -->
<g id="Node000009" class="node">
<title>Node9</title>
<g id="a_Node000009"><a xlink:href="class_ajax_1_1_t_shell_1_1_state.html" target="_top" xlink:title="This class implements a TShell command that displays the current &#39;state&#39; of the unit.">
<polygon fill="white" stroke="#666666" points="1059.62,-820.25 964.88,-820.25 964.88,-801 1059.62,-801 1059.62,-820.25"/>
<text text-anchor="middle" x="1012.25" y="-806.75" font-family="Helvetica,sans-Serif" font-size="10.00">Ajax::TShell::State</text>
</a>
</g>
</g>
<!-- Node1&#45;&gt;Node9 -->
<g id="edge8_Node000001_Node000009" class="edge">
<title>Node1&#45;&gt;Node9</title>
<g id="a_edge8_Node000001_Node000009"><a xlink:title=" ">
<path fill="none" stroke="#63b8ff" d="M835.83,-480.08C836.6,-539.2 847.22,-705.76 939,-792.62 946.04,-799.29 955.16,-803.59 964.53,-806.35"/>
<polygon fill="#63b8ff" stroke="#63b8ff" points="839.33,-480.1 835.8,-470.11 832.33,-480.12 839.33,-480.1"/>
</a>
</g>
</g>
<!-- Node10 -->
<g id="Node000010" class="node">
<title>Node10</title>
<g id="a_Node000010"><a xlink:href="class_ajax_1_1_t_shell_1_1_ui.html" target="_top" xlink:title="This class implements a TShell command that generates a UI event.">
<polygon fill="white" stroke="#666666" points="1052.88,-783.25 971.62,-783.25 971.62,-764 1052.88,-764 1052.88,-783.25"/>
<text text-anchor="middle" x="1012.25" y="-769.75" font-family="Helvetica,sans-Serif" font-size="10.00">Ajax::TShell::Ui</text>
</a>
</g>
</g>
<!-- Node1&#45;&gt;Node10 -->
<g id="edge9_Node000001_Node000010" class="edge">
<title>Node1&#45;&gt;Node10</title>
<g id="a_edge9_Node000001_Node000010"><a xlink:title=" ">
<path fill="none" stroke="#63b8ff" d="M836.78,-479.88C839.97,-534.36 856.21,-679.95 939,-755.62 947.87,-763.74 959.83,-768.33 971.47,-770.89"/>
<polygon fill="#63b8ff" stroke="#63b8ff" points="840.29,-479.96 836.31,-470.14 833.29,-480.29 840.29,-479.96"/>
</a>
</g>
</g>
<!-- Node11 -->
<g id="Node000011" class="node">
<title>Node11</title>
<g id="a_Node000011"><a xlink:href="class_cpl_1_1_dm_1_1_t_shell_1_1_dm.html" target="_top" xlink:title="This class implements a TShell command.">
<polygon fill="white" stroke="#666666" points="1063,-746.25 961.5,-746.25 961.5,-727 1063,-727 1063,-746.25"/>
<text text-anchor="middle" x="1012.25" y="-732.75" font-family="Helvetica,sans-Serif" font-size="10.00">Cpl::Dm::TShell::Dm</text>
</a>
</g>
</g>
<!-- Node1&#45;&gt;Node11 -->
<g id="edge10_Node000001_Node000011" class="edge">
<title>Node1&#45;&gt;Node11</title>
<g id="a_edge10_Node000001_Node000011"><a xlink:title=" ">
<path fill="none" stroke="#63b8ff" d="M837.97,-479.89C843.75,-529.59 865.22,-654.06 939,-718.62 945.32,-724.16 953.09,-728.04 961.17,-730.76"/>
<polygon fill="#63b8ff" stroke="#63b8ff" points="841.48,-479.78 836.95,-470.2 834.52,-480.51 841.48,-479.78"/>
</a>
</g>
</g>
<!-- Node12 -->
<g id="Node000012" class="node">
<title>Node12</title>
<g id="a_Node000012"><a xlink:href="class_cpl_1_1_logging_1_1_t_shell_1_1_log.html" target="_top" xlink:title="This class implements a TShell command that operates on the persistently store &quot;log file&quot;.">
<polygon fill="white" stroke="#666666" points="1073.5,-709.25 951,-709.25 951,-690 1073.5,-690 1073.5,-709.25"/>
<text text-anchor="middle" x="1012.25" y="-695.75" font-family="Helvetica,sans-Serif" font-size="10.00">Cpl::Logging::TShell::Log</text>
</a>
</g>
</g>
<!-- Node1&#45;&gt;Node12 -->
<g id="edge11_Node000001_Node000012" class="edge">
<title>Node1&#45;&gt;Node12</title>
<g id="a_edge11_Node000001_Node000012"><a xlink:title=" ">
<path fill="none" stroke="#63b8ff" d="M839.46,-479.54C847.92,-523.91 873.96,-627.82 939,-681.62 942.78,-684.76 947.04,-687.35 951.54,-689.51"/>
<polygon fill="#63b8ff" stroke="#63b8ff" points="842.95,-479.19 837.74,-469.96 836.06,-480.42 842.95,-479.19"/>
</a>
</g>
</g>
<!-- Node13 -->
<g id="Node000013" class="node">
<title>Node13</title>
<g id="a_Node000013"><a xlink:href="class_cpl_1_1_m_app_1_1_cmd.html" target="_top" xlink:title="The class implements a TShell command that interacts with the MApp Manager to start,...">
<polygon fill="white" stroke="#666666" points="1054.75,-672.25 969.75,-672.25 969.75,-653 1054.75,-653 1054.75,-672.25"/>
<text text-anchor="middle" x="1012.25" y="-658.75" font-family="Helvetica,sans-Serif" font-size="10.00">Cpl::MApp::Cmd</text>
</a>
</g>
</g>
<!-- Node1&#45;&gt;Node13 -->
<g id="edge12_Node000001_Node000013" class="edge">
<title>Node1&#45;&gt;Node13</title>
<g id="a_edge12_Node000001_Node000013"><a xlink:title=" ">
<path fill="none" stroke="#63b8ff" d="M841.52,-479.48C852.89,-518.25 882.72,-601.43 939,-644.62 947.72,-651.31 958.61,-655.55 969.27,-658.22"/>
<polygon fill="#63b8ff" stroke="#63b8ff" points="844.93,-478.7 838.87,-470.01 838.19,-480.58 844.93,-478.7"/>
</a>
</g>
</g>
<!-- Node14 -->
<g id="Node000014" class="node">
<title>Node14</title>
<g id="a_Node000014"><a xlink:href="class_cpl_1_1_t_shell_1_1_cmd_1_1_arduino_1_1_dbg.html" target="_top" xlink:title="This class implements a DAC Shell command.">
<polygon fill="white" stroke="#666666" points="1085.5,-635.25 939,-635.25 939,-616 1085.5,-616 1085.5,-635.25"/>
<text text-anchor="middle" x="1012.25" y="-621.75" font-family="Helvetica,sans-Serif" font-size="10.00">Cpl::TShell::Cmd::Arduino::Dbg</text>
</a>
</g>
</g>
<!-- Node1&#45;&gt;Node14 -->
<g id="edge13_Node000001_Node000014" class="edge">
<title>Node1&#45;&gt;Node14</title>
<g id="a_edge13_Node000001_Node000014"><a xlink:title=" ">
<path fill="none" stroke="#63b8ff" d="M844.27,-478.88C858.58,-511.29 891.09,-574.49 939,-607.62 943.57,-610.79 948.65,-613.39 953.93,-615.54"/>
<polygon fill="#63b8ff" stroke="#63b8ff" points="847.56,-477.67 840.42,-469.84 841.12,-480.42 847.56,-477.67"/>
</a>
</g>
</g>
<!-- Node15 -->
<g id="Node000015" class="node">
<title>Node15</title>
<g id="a_Node000015"><a xlink:href="class_cpl_1_1_t_shell_1_1_cmd_1_1_bye.html" target="_top" xlink:title="This class implements a Shell command.">
<polygon fill="white" stroke="#666666" points="1066.38,-598.25 958.12,-598.25 958.12,-579 1066.38,-579 1066.38,-598.25"/>
<text text-anchor="middle" x="1012.25" y="-584.75" font-family="Helvetica,sans-Serif" font-size="10.00">Cpl::TShell::Cmd::Bye</text>
</a>
</g>
</g>
<!-- Node1&#45;&gt;Node15 -->
<g id="edge14_Node000001_Node000015" class="edge">
<title>Node1&#45;&gt;Node15</title>
<g id="a_edge14_Node000001_Node000015"><a xlink:title=" ">
<path fill="none" stroke="#63b8ff" d="M848.47,-478.08C865.71,-503.35 899.25,-547.03 939,-570.62 944.78,-574.06 951.19,-576.84 957.74,-579.09"/>
<polygon fill="#63b8ff" stroke="#63b8ff" points="851.39,-476.15 842.94,-469.75 845.55,-480.02 851.39,-476.15"/>
</a>
</g>
</g>
<!-- Node16 -->
<g id="Node000016" class="node">
<title>Node16</title>
<g id="a_Node000016"><a xlink:href="class_cpl_1_1_t_shell_1_1_cmd_1_1_help.html" target="_top" xlink:title="This class implements a Shell command.">
<polygon fill="white" stroke="#666666" points="1068.25,-561.25 956.25,-561.25 956.25,-542 1068.25,-542 1068.25,-561.25"/>
<text text-anchor="middle" x="1012.25" y="-547.75" font-family="Helvetica,sans-Serif" font-size="10.00">Cpl::TShell::Cmd::Help</text>
</a>
</g>
</g>
<!-- Node1&#45;&gt;Node16 -->
<g id="edge15_Node000001_Node000016" class="edge">
<title>Node1&#45;&gt;Node16</title>
<g id="a_edge15_Node000001_Node000016"><a xlink:title=" ">
<path fill="none" stroke="#63b8ff" d="M855.44,-476.37C875.12,-493.42 907.13,-518.75 939,-533.62 945.68,-536.74 952.96,-539.36 960.25,-541.55"/>
<polygon fill="#63b8ff" stroke="#63b8ff" points="857.76,-473.75 847.95,-469.74 853.12,-478.99 857.76,-473.75"/>
</a>
</g>
</g>
<!-- Node17 -->
<g id="Node000017" class="node">
<title>Node17</title>
<g id="a_Node000017"><a xlink:href="class_cpl_1_1_t_shell_1_1_cmd_1_1_t_print.html" target="_top" xlink:title="This class implements a Shell command.">
<polygon fill="white" stroke="#666666" points="1071.25,-524.25 953.25,-524.25 953.25,-505 1071.25,-505 1071.25,-524.25"/>
<text text-anchor="middle" x="1012.25" y="-510.75" font-family="Helvetica,sans-Serif" font-size="10.00">Cpl::TShell::Cmd::TPrint</text>
</a>
</g>
</g>
<!-- Node1&#45;&gt;Node17 -->
<g id="edge16_Node000001_Node000017" class="edge">
<title>Node1&#45;&gt;Node17</title>
<g id="a_edge16_Node000001_Node000017"><a xlink:title=" ">
<path fill="none" stroke="#63b8ff" d="M871.36,-472.76C891.08,-480.37 916.21,-489.6 939,-496.62 948.14,-499.44 958.04,-502.13 967.48,-504.54"/>
<polygon fill="#63b8ff" stroke="#63b8ff" points="872.71,-469.53 862.13,-469.16 870.17,-476.05 872.71,-469.53"/>
</a>
</g>
</g>
<!-- Node18 -->
<g id="Node000018" class="node">
<title>Node18</title>
<g id="a_Node000018"><a xlink:href="class_cpl_1_1_t_shell_1_1_cmd_1_1_threads.html" target="_top" xlink:title="This class implements a Shell command.">
<polygon fill="white" stroke="#666666" points="1075.75,-487.25 948.75,-487.25 948.75,-468 1075.75,-468 1075.75,-487.25"/>
<text text-anchor="middle" x="1012.25" y="-473.75" font-family="Helvetica,sans-Serif" font-size="10.00">Cpl::TShell::Cmd::Threads</text>
</a>
</g>
</g>
<!-- Node1&#45;&gt;Node18 -->
<g id="edge17_Node000001_Node000018" class="edge">
<title>Node1&#45;&gt;Node18</title>
<g id="a_edge17_Node000001_Node000018"><a xlink:title=" ">
<path fill="none" stroke="#63b8ff" d="M914.53,-467.14C925.9,-468.37 937.48,-469.63 948.49,-470.82"/>
<polygon fill="#63b8ff" stroke="#63b8ff" points="915.08,-463.68 904.76,-466.08 914.32,-470.64 915.08,-463.68"/>
</a>
</g>
</g>
<!-- Node21 -->
<g id="Node000021" class="node">
<title>Node21</title>
<g id="a_Node000021"><a xlink:href="class_cpl_1_1_t_shell_1_1_cmd_1_1_tick.html" target="_top" xlink:title="This class implements a Shell command.">
<polygon fill="white" stroke="#666666" points="1067.5,-450.25 957,-450.25 957,-431 1067.5,-431 1067.5,-450.25"/>
<text text-anchor="middle" x="1012.25" y="-436.75" font-family="Helvetica,sans-Serif" font-size="10.00">Cpl::TShell::Cmd::Tick</text>
</a>
</g>
</g>
<!-- Node1&#45;&gt;Node21 -->
<g id="edge20_Node000001_Node000021" class="edge">
<title>Node1&#45;&gt;Node21</title>
<g id="a_edge20_Node000001_Node000021"><a xlink:title=" ">
<path fill="none" stroke="#63b8ff" d="M914.56,-450.56C928.78,-449.1 943.32,-447.6 956.66,-446.23"/>
<polygon fill="#63b8ff" stroke="#63b8ff" points="914.35,-447.06 904.76,-451.56 915.07,-454.02 914.35,-447.06"/>
</a>
</g>
</g>
<!-- Node22 -->
<g id="Node000022" class="node">
<title>Node22</title>
<g id="a_Node000022"><a xlink:href="class_cpl_1_1_t_shell_1_1_cmd_1_1_trace.html" target="_top" xlink:title="This class implements a Shell command.">
<polygon fill="white" stroke="#666666" points="1070.5,-413.25 954,-413.25 954,-394 1070.5,-394 1070.5,-413.25"/>
<text text-anchor="middle" x="1012.25" y="-399.75" font-family="Helvetica,sans-Serif" font-size="10.00">Cpl::TShell::Cmd::Trace</text>
</a>
</g>
</g>
<!-- Node1&#45;&gt;Node22 -->
<g id="edge21_Node000001_Node000022" class="edge">
<title>Node1&#45;&gt;Node22</title>
<g id="a_edge21_Node000001_Node000022"><a xlink:title=" ">
<path fill="none" stroke="#63b8ff" d="M872.19,-444.62C891.8,-437.28 916.55,-428.43 939,-421.62 948.28,-418.81 958.32,-416.1 967.88,-413.67"/>
<polygon fill="#63b8ff" stroke="#63b8ff" points="871.11,-441.28 863,-448.09 873.59,-447.83 871.11,-441.28"/>
</a>
</g>
</g>
<!-- Node23 -->
<g id="Node000023" class="node">
<title>Node23</title>
<g id="a_Node000023"><a xlink:href="class_cpl_1_1_t_shell_1_1_cmd_1_1_user.html" target="_top" xlink:title="This class implements a Shell command.">
<polygon fill="white" stroke="#666666" points="1068.62,-376.25 955.88,-376.25 955.88,-357 1068.62,-357 1068.62,-376.25"/>
<text text-anchor="middle" x="1012.25" y="-362.75" font-family="Helvetica,sans-Serif" font-size="10.00">Cpl::TShell::Cmd::User</text>
</a>
</g>
</g>
<!-- Node1&#45;&gt;Node23 -->
<g id="edge22_Node000001_Node000023" class="edge">
<title>Node1&#45;&gt;Node23</title>
<g id="a_edge22_Node000001_Node000023"><a xlink:title=" ">
<path fill="none" stroke="#63b8ff" d="M855.48,-441.13C875.2,-424.31 907.23,-399.33 939,-384.62 945.69,-381.53 952.98,-378.92 960.27,-376.73"/>
<polygon fill="#63b8ff" stroke="#63b8ff" points="853.23,-438.45 847.98,-447.66 857.82,-443.73 853.23,-438.45"/>
</a>
</g>
</g>
<!-- Node24 -->
<g id="Node000024" class="node">
<title>Node24</title>
<g id="a_Node000024"><a xlink:href="class_cpl_1_1_t_shell_1_1_cmd_1_1_wait.html" target="_top" xlink:title="This class implements a Shell command.">
<polygon fill="white" stroke="#666666" points="1067.88,-339.25 956.62,-339.25 956.62,-320 1067.88,-320 1067.88,-339.25"/>
<text text-anchor="middle" x="1012.25" y="-325.75" font-family="Helvetica,sans-Serif" font-size="10.00">Cpl::TShell::Cmd::Wait</text>
</a>
</g>
</g>
<!-- Node1&#45;&gt;Node24 -->
<g id="edge23_Node000001_Node000024" class="edge">
<title>Node1&#45;&gt;Node24</title>
<g id="a_edge23_Node000001_Node000024"><a xlink:title=" ">
<path fill="none" stroke="#63b8ff" d="M848.54,-439.3C865.84,-414.25 899.41,-371.01 939,-347.62 944.34,-344.47 950.22,-341.86 956.25,-339.71"/>
<polygon fill="#63b8ff" stroke="#63b8ff" points="845.86,-437.02 843.19,-447.27 851.67,-440.92 845.86,-437.02"/>
</a>
</g>
</g>
<!-- Node25 -->
<g id="Node000025" class="node">
<title>Node25</title>
<g id="a_Node000025"><a xlink:href="class_driver_1_1_crypto_1_1_t_shell_1_1_random.html" target="_top" xlink:title="This class implements a Shell command.">
<polygon fill="white" stroke="#666666" points="1065.25,-301.88 959.25,-301.88 959.25,-271.38 1065.25,-271.38 1065.25,-301.88"/>
<text text-anchor="start" x="967.25" y="-288.38" font-family="Helvetica,sans-Serif" font-size="10.00">Driver::Crypto::TShell</text>
<text text-anchor="middle" x="1012.25" y="-277.12" font-family="Helvetica,sans-Serif" font-size="10.00">::Random</text>
</a>
</g>
</g>
<!-- Node1&#45;&gt;Node25 -->
<g id="edge24_Node000001_Node000025" class="edge">
<title>Node1&#45;&gt;Node25</title>
<g id="a_edge24_Node000001_Node000025"><a xlink:title=" ">
<path fill="none" stroke="#63b8ff" d="M844.82,-438.46C859.71,-406.72 892.77,-345.17 939,-310.62 945.03,-306.12 951.96,-302.42 959.09,-299.41"/>
<polygon fill="#63b8ff" stroke="#63b8ff" points="841.75,-436.77 840.8,-447.32 848.12,-439.66 841.75,-436.77"/>
</a>
</g>
</g>
<!-- Node26 -->
<g id="Node000026" class="node">
<title>Node26</title>
<g id="a_Node000026"><a xlink:href="class_driver_1_1_d_i_o_1_1_in_out_cmd.html" target="_top" xlink:title="This class implements a TShell command that exercises the RH/Temp driver.">
<polygon fill="white" stroke="#666666" points="1068.25,-253.25 956.25,-253.25 956.25,-234 1068.25,-234 1068.25,-253.25"/>
<text text-anchor="middle" x="1012.25" y="-239.75" font-family="Helvetica,sans-Serif" font-size="10.00">Driver::DIO::InOutCmd</text>
</a>
</g>
</g>
<!-- Node1&#45;&gt;Node26 -->
<g id="edge25_Node000001_Node000026" class="edge">
<title>Node1&#45;&gt;Node26</title>
<g id="a_edge25_Node000001_Node000026"><a xlink:title=" ">
<path fill="none" stroke="#63b8ff" d="M841.01,-437.57C851.73,-397.23 880.79,-308.94 939,-262.62 944.07,-258.59 949.92,-255.4 956.05,-252.89"/>
<polygon fill="#63b8ff" stroke="#63b8ff" points="837.63,-436.64 838.58,-447.2 844.42,-438.36 837.63,-436.64"/>
</a>
</g>
</g>
<!-- Node27 -->
<g id="Node000027" class="node">
<title>Node27</title>
<g id="a_Node000027"><a xlink:href="class_driver_1_1_n_v_1_1_cmd.html" target="_top" xlink:title="This class implements a TShell command that tests/directly&#45;operates on the NV media.">
<polygon fill="white" stroke="#666666" points="1054.75,-216.25 969.75,-216.25 969.75,-197 1054.75,-197 1054.75,-216.25"/>
<text text-anchor="middle" x="1012.25" y="-202.75" font-family="Helvetica,sans-Serif" font-size="10.00">Driver::NV::Cmd</text>
</a>
</g>
</g>
<!-- Node1&#45;&gt;Node27 -->
<g id="edge26_Node000001_Node000027" class="edge">
<title>Node1&#45;&gt;Node27</title>
<g id="a_edge26_Node000001_Node000027"><a xlink:title=" ">
<path fill="none" stroke="#63b8ff" d="M839.02,-437.32C846.73,-391.16 871.52,-281.48 939,-224.62 947.6,-217.38 958.7,-212.98 969.61,-210.33"/>
<polygon fill="#63b8ff" stroke="#63b8ff" points="835.58,-436.65 837.51,-447.06 842.5,-437.72 835.58,-436.65"/>
</a>
</g>
</g>
<!-- Node28 -->
<g id="Node000028" class="node">
<title>Node28</title>
<g id="a_Node000028"><a xlink:href="class_driver_1_1_r_h_temp_1_1_t_shell_cmd.html" target="_top" xlink:title="This class implements a TShell command that exercises the RH/Temp driver.">
<polygon fill="white" stroke="#666666" points="1081,-179.25 943.5,-179.25 943.5,-160 1081,-160 1081,-179.25"/>
<text text-anchor="middle" x="1012.25" y="-165.75" font-family="Helvetica,sans-Serif" font-size="10.00">Driver::RHTemp::TShellCmd</text>
</a>
</g>
</g>
<!-- Node1&#45;&gt;Node28 -->
<g id="edge27_Node000001_Node000028" class="edge">
<title>Node1&#45;&gt;Node28</title>
<g id="a_edge27_Node000001_Node000028"><a xlink:title=" ">
<path fill="none" stroke="#63b8ff" d="M837.57,-437.52C842.54,-386.46 862.48,-255.54 939,-187.62 942.58,-184.45 946.63,-181.82 950.95,-179.64"/>
<polygon fill="#63b8ff" stroke="#63b8ff" points="834.11,-436.91 836.73,-447.18 841.08,-437.52 834.11,-436.91"/>
</a>
</g>
</g>
<!-- Node29 -->
<g id="Node000029" class="node">
<title>Node29</title>
<g id="a_Node000029"><a xlink:href="class_driver_1_1_wifi_1_1_station_1_1_t_shell_1_1_wifi.html" target="_top" xlink:title="This class implements a TShell command.">
<polygon fill="white" stroke="#666666" points="1060.75,-141.88 963.75,-141.88 963.75,-111.38 1060.75,-111.38 1060.75,-141.88"/>
<text text-anchor="start" x="971.75" y="-128.38" font-family="Helvetica,sans-Serif" font-size="10.00">Driver::Wifi::Station</text>
<text text-anchor="middle" x="1012.25" y="-117.12" font-family="Helvetica,sans-Serif" font-size="10.00">::TShell::Wifi</text>
</a>
</g>
</g>
<!-- Node1&#45;&gt;Node29 -->
<g id="edge28_Node000001_Node000029" class="edge">
<title>Node1&#45;&gt;Node29</title>
<g id="a_edge28_Node000001_Node000029"><a xlink:title=" ">
<path fill="none" stroke="#63b8ff" d="M836.84,-437.35C840.19,-382.09 856.79,-232.67 939,-150.62 945.74,-143.9 954.4,-139.06 963.37,-135.58"/>
<polygon fill="#63b8ff" stroke="#63b8ff" points="833.35,-437.06 836.34,-447.22 840.35,-437.41 833.35,-437.06"/>
</a>
</g>
</g>
<!-- Node30 -->
<g id="Node000030" class="node">
<title>Node30</title>
<g id="a_Node000030"><a xlink:href="class_eros_1_1_t_shell_1_1_hw_safety.html" target="_top" xlink:title="This class implements a TShell command to verify the PWM signals on the board.">
<polygon fill="white" stroke="#666666" points="1069.75,-93.25 954.75,-93.25 954.75,-74 1069.75,-74 1069.75,-93.25"/>
<text text-anchor="middle" x="1012.25" y="-79.75" font-family="Helvetica,sans-Serif" font-size="10.00">Eros::TShell::HwSafety</text>
</a>
</g>
</g>
<!-- Node1&#45;&gt;Node30 -->
<g id="edge29_Node000001_Node000030" class="edge">
<title>Node1&#45;&gt;Node30</title>
<g id="a_edge29_Node000001_Node000030"><a xlink:title=" ">
<path fill="none" stroke="#63b8ff" d="M835.42,-437.46C834.93,-376.19 842.27,-197.02 939,-102.62 943.46,-98.28 948.78,-94.89 954.49,-92.26"/>
<polygon fill="#63b8ff" stroke="#63b8ff" points="831.91,-437.22 835.58,-447.16 838.91,-437.1 831.91,-437.22"/>
</a>
</g>
</g>
<!-- Node31 -->
<g id="Node000031" class="node">
<title>Node31</title>
<g id="a_Node000031"><a xlink:href="class_eros_1_1_t_shell_1_1_pwm.html" target="_top" xlink:title="This class implements a TShell command to verify the PWM signals on the board.">
<polygon fill="white" stroke="#666666" points="1059.62,-56.25 964.88,-56.25 964.88,-37 1059.62,-37 1059.62,-56.25"/>
<text text-anchor="middle" x="1012.25" y="-42.75" font-family="Helvetica,sans-Serif" font-size="10.00">Eros::TShell::Pwm</text>
</a>
</g>
</g>
<!-- Node1&#45;&gt;Node31 -->
<g id="edge30_Node000001_Node000031" class="edge">
<title>Node1&#45;&gt;Node31</title>
<g id="a_edge30_Node000001_Node000031"><a xlink:title=" ">
<path fill="none" stroke="#63b8ff" d="M838.65,-437.68C848.39,-364.04 884.46,-118.54 939,-64.62 945.99,-57.72 955.19,-53.33 964.68,-50.56"/>
<polygon fill="#63b8ff" stroke="#63b8ff" points="835.24,-436.8 837.42,-447.17 842.18,-437.7 835.24,-436.8"/>
</a>
</g>
</g>
<!-- Node32 -->
<g id="Node000032" class="node">
<title>Node32</title>
<g id="a_Node000032"><a xlink:href="class_eros_1_1_t_shell_1_1_rgb.html" target="_top" xlink:title="This class implements a TShell command to verify the operation of the RGB LED on the display board.">
<polygon fill="white" stroke="#666666" points="1057,-19.25 967.5,-19.25 967.5,0 1057,0 1057,-19.25"/>
<text text-anchor="middle" x="1012.25" y="-5.75" font-family="Helvetica,sans-Serif" font-size="10.00">Eros::TShell::Rgb</text>
</a>
</g>
</g>
<!-- Node1&#45;&gt;Node32 -->
<g id="edge31_Node000001_Node000032" class="edge">
<title>Node1&#45;&gt;Node32</title>
<g id="a_edge31_Node000001_Node000032"><a xlink:title=" ">
<path fill="none" stroke="#63b8ff" d="M838.19,-437.27C846.68,-358.71 879.9,-87.3 939,-27.62 946.55,-20 956.8,-15.43 967.2,-12.73"/>
<polygon fill="#63b8ff" stroke="#63b8ff" points="834.73,-436.71 837.16,-447.02 841.69,-437.44 834.73,-436.71"/>
</a>
</g>
</g>
<!-- Node2 -->
<g id="Node000002" class="node">
<title>Node2</title>
<g id="a_Node000002"><a xlink:href="class_cpl_1_1_t_shell_1_1_command.html" target="_top" xlink:title="This class defines the interface for a TShell command.">
<polygon fill="white" stroke="#666666" points="731,-468.25 619.75,-468.25 619.75,-449 731,-449 731,-468.25"/>
<text text-anchor="middle" x="675.38" y="-454.75" font-family="Helvetica,sans-Serif" font-size="10.00">Cpl::TShell::Command</text>
</a>
</g>
</g>
<!-- Node2&#45;&gt;Node1 -->
<g id="edge1_Node000001_Node000002" class="edge">
<title>Node2&#45;&gt;Node1</title>
<g id="a_edge1_Node000001_Node000002"><a xlink:title=" ">
<path fill="none" stroke="#63b8ff" d="M742.56,-458.62C750.52,-458.62 758.65,-458.62 766.63,-458.62"/>
<polygon fill="#63b8ff" stroke="#63b8ff" points="742.58,-455.13 732.58,-458.63 742.58,-462.13 742.58,-455.13"/>
</a>
</g>
</g>
<!-- Node3 -->
<g id="Node000003" class="node">
<title>Node3</title>
<g id="a_Node000003"><a xlink:href="class_cpl_1_1_container_1_1_map_item.html" target="_top" xlink:title="This abstract class represents a item that can be contained in an Map (aka a sorted list implemented ...">
<polygon fill="white" stroke="#666666" points="583.75,-468.25 465,-468.25 465,-449 583.75,-449 583.75,-468.25"/>
<text text-anchor="middle" x="524.38" y="-454.75" font-family="Helvetica,sans-Serif" font-size="10.00">Cpl::Container::MapItem</text>
</a>
</g>
</g>
<!-- Node3&#45;&gt;Node2 -->
<g id="edge2_Node000002_Node000003" class="edge">
<title>Node3&#45;&gt;Node2</title>
<g id="a_edge2_Node000002_Node000003"><a xlink:title=" ">
<path fill="none" stroke="#63b8ff" d="M595.25,-458.62C603.38,-458.62 611.59,-458.62 619.49,-458.62"/>
<polygon fill="#63b8ff" stroke="#63b8ff" points="595.35,-455.13 585.35,-458.63 595.35,-462.13 595.35,-455.13"/>
</a>
</g>
</g>
<!-- Node4 -->
<g id="Node000004" class="node">
<title>Node4</title>
<g id="a_Node000004"><a xlink:href="class_cpl_1_1_container_1_1_dict_item.html" target="_top" xlink:title="This abstract class represents a item that can be contained in Dictionary.">
<polygon fill="white" stroke="#666666" points="429,-468.25 311.75,-468.25 311.75,-449 429,-449 429,-468.25"/>
<text text-anchor="middle" x="370.38" y="-454.75" font-family="Helvetica,sans-Serif" font-size="10.00">Cpl::Container::DictItem</text>
</a>
</g>
</g>
<!-- Node4&#45;&gt;Node3 -->
<g id="edge3_Node000003_Node000004" class="edge">
<title>Node4&#45;&gt;Node3</title>
<g id="a_edge3_Node000003_Node000004"><a xlink:title=" ">
<path fill="none" stroke="#63b8ff" d="M440.54,-458.62C448.59,-458.62 456.74,-458.62 464.63,-458.62"/>
<polygon fill="#63b8ff" stroke="#63b8ff" points="440.79,-455.13 430.79,-458.63 440.79,-462.13 440.79,-455.13"/>
</a>
</g>
</g>
<!-- Node5 -->
<g id="Node000005" class="node">
<title>Node5</title>
<g id="a_Node000005"><a xlink:href="class_cpl_1_1_container_1_1_extended_item.html" target="_top" xlink:title="This class is used by the Container classes to implement a various types of DOUBLY linked containers.">
<polygon fill="white" stroke="#666666" points="275.75,-468.25 136,-468.25 136,-449 275.75,-449 275.75,-468.25"/>
<text text-anchor="middle" x="205.88" y="-454.75" font-family="Helvetica,sans-Serif" font-size="10.00">Cpl::Container::ExtendedItem</text>
</a>
</g>
</g>
<!-- Node5&#45;&gt;Node4 -->
<g id="edge4_Node000004_Node000005" class="edge">
<title>Node5&#45;&gt;Node4</title>
<g id="a_edge4_Node000004_Node000005"><a xlink:title=" ">
<path fill="none" stroke="#63b8ff" d="M287.25,-458.62C295.39,-458.62 303.54,-458.62 311.38,-458.62"/>
<polygon fill="#63b8ff" stroke="#63b8ff" points="287.3,-455.13 277.3,-458.63 287.3,-462.13 287.3,-455.13"/>
</a>
</g>
</g>
<!-- Node6 -->
<g id="Node000006" class="node">
<title>Node6</title>
<g id="a_Node000006"><a xlink:href="class_cpl_1_1_container_1_1_item.html" target="_top" xlink:title="This class is used by the Container classes to implement a various types of singly linked containers.">
<polygon fill="white" stroke="#666666" points="100,-468.25 0,-468.25 0,-449 100,-449 100,-468.25"/>
<text text-anchor="middle" x="50" y="-454.75" font-family="Helvetica,sans-Serif" font-size="10.00">Cpl::Container::Item</text>
</a>
</g>
</g>
<!-- Node6&#45;&gt;Node5 -->
<g id="edge5_Node000005_Node000006" class="edge">
<title>Node6&#45;&gt;Node5</title>
<g id="a_edge5_Node000005_Node000006"><a xlink:title=" ">
<path fill="none" stroke="#63b8ff" d="M111.54,-458.62C119.49,-458.62 127.68,-458.62 135.76,-458.62"/>
<polygon fill="#63b8ff" stroke="#63b8ff" points="111.62,-455.13 101.62,-458.63 111.62,-462.13 111.62,-455.13"/>
</a>
</g>
</g>
<!-- Node19 -->
<g id="Node000019" class="node">
<title>Node19</title>
<g id="a_Node000019"><a xlink:href="class_cpl_1_1_t_shell_1_1_cmd_1_1_free_r_t_o_s_1_1_threads.html" target="_top" xlink:title="This class implements a TShell command.">
<polygon fill="white" stroke="#666666" points="1259.75,-516.88 1121.5,-516.88 1121.5,-486.38 1259.75,-486.38 1259.75,-516.88"/>
<text text-anchor="start" x="1129.5" y="-503.38" font-family="Helvetica,sans-Serif" font-size="10.00">Cpl::TShell::Cmd::FreeRTOS</text>
<text text-anchor="middle" x="1190.62" y="-492.12" font-family="Helvetica,sans-Serif" font-size="10.00">::Threads</text>
</a>
</g>
</g>
<!-- Node18&#45;&gt;Node19 -->
<g id="edge18_Node000018_Node000019" class="edge">
<title>Node18&#45;&gt;Node19</title>
<g id="a_edge18_Node000018_Node000019"><a xlink:title=" ">
<path fill="none" stroke="#63b8ff" d="M1087.08,-487.67C1098.38,-489.21 1109.99,-490.79 1121.16,-492.31"/>
<polygon fill="#63b8ff" stroke="#63b8ff" points="1087.81,-484.24 1077.43,-486.36 1086.87,-491.17 1087.81,-484.24"/>
</a>
</g>
</g>
<!-- Node20 -->
<g id="Node000020" class="node">
<title>Node20</title>
<g id="a_Node000020"><a xlink:href="class_cpl_1_1_t_shell_1_1_cmd_1_1_win32_1_1_threads.html" target="_top" xlink:title="This class implements a TShell command.">
<polygon fill="white" stroke="#666666" points="1250,-467.88 1131.25,-467.88 1131.25,-437.38 1250,-437.38 1250,-467.88"/>
<text text-anchor="start" x="1139.25" y="-454.38" font-family="Helvetica,sans-Serif" font-size="10.00">Cpl::TShell::Cmd::Win32</text>
<text text-anchor="middle" x="1190.62" y="-443.12" font-family="Helvetica,sans-Serif" font-size="10.00">::Threads</text>
</a>
</g>
</g>
<!-- Node18&#45;&gt;Node20 -->
<g id="edge19_Node000018_Node000020" class="edge">
<title>Node18&#45;&gt;Node20</title>
<g id="a_edge19_Node000018_Node000020"><a xlink:title=" ">
<path fill="none" stroke="#63b8ff" d="M1087.01,-467.17C1101.68,-465.09 1116.9,-462.93 1130.98,-460.94"/>
<polygon fill="#63b8ff" stroke="#63b8ff" points="1086.84,-463.66 1077.43,-468.53 1087.82,-470.59 1086.84,-463.66"/>
</a>
</g>
</g>
</g>
</svg>
