<?xml version="1.0" encoding="UTF-8" standalone="no"?>
<!DOCTYPE svg PUBLIC "-//W3C//DTD SVG 1.1//EN"
 "http://www.w3.org/Graphics/SVG/1.1/DTD/svg11.dtd">
<!-- Generated by graphviz version 9.0.0 (20230911.1827)
 -->
<!-- Title: Cpl::Io::File::OutputApi Pages: 1 -->
<svg width="309pt" height="304pt"
 viewBox="0.00 0.00 308.88 303.50" xmlns="http://www.w3.org/2000/svg" xmlns:xlink="http://www.w3.org/1999/xlink">
<g id="graph0" class="graph" transform="scale(1 1) rotate(0) translate(4 299.5)">
<title>Cpl::Io::File::OutputApi</title>
<!-- Node1 -->
<g id="Node000001" class="node">
<title>Node1</title>
<g id="a_Node000001"><a xlink:title="This abstract class defines the interface for a Random Access Input File.">
<polygon fill="#999999" stroke="#666666" points="241,-129.75 129.75,-129.75 129.75,-110.5 241,-110.5 241,-129.75"/>
<text text-anchor="middle" x="185.38" y="-116.25" font-family="Helvetica,sans-Serif" font-size="10.00">Cpl::Io::File::OutputApi</text>
</a>
</g>
</g>
<!-- Node7 -->
<g id="Node000007" class="node">
<title>Node7</title>
<g id="a_Node000007"><a xlink:href="class_cpl_1_1_io_1_1_file_1_1_input_output_api.html" target="_top" xlink:title="This abstract class defines the interface for a Random Access Input Output File.">
<polygon fill="white" stroke="#666666" points="185.88,-74.5 52.88,-74.5 52.88,-55.25 185.88,-55.25 185.88,-74.5"/>
<text text-anchor="middle" x="119.38" y="-61" font-family="Helvetica,sans-Serif" font-size="10.00">Cpl::Io::File::InputOutputApi</text>
</a>
</g>
</g>
<!-- Node1&#45;&gt;Node7 -->
<g id="edge6_Node000001_Node000007" class="edge">
<title>Node1&#45;&gt;Node7</title>
<g id="a_edge6_Node000001_Node000007"><a xlink:title=" ">
<path fill="none" stroke="#63b8ff" d="M165.28,-102.91C153.82,-93.67 139.89,-82.43 130.41,-74.77"/>
<polygon fill="#63b8ff" stroke="#63b8ff" points="163.02,-105.59 173,-109.14 167.42,-100.14 163.02,-105.59"/>
</a>
</g>
</g>
<!-- Node10 -->
<g id="Node000010" class="node">
<title>Node10</title>
<g id="a_Node000010"><a xlink:href="class_cpl_1_1_io_1_1_file_1_1_output.html" target="_top" xlink:title="This concrete class provides a platform independent &#39;standard&#39; implementation of a Cpl::Io::File::Out...">
<polygon fill="white" stroke="#666666" points="300.88,-74.5 203.88,-74.5 203.88,-55.25 300.88,-55.25 300.88,-74.5"/>
<text text-anchor="middle" x="252.38" y="-61" font-family="Helvetica,sans-Serif" font-size="10.00">Cpl::Io::File::Output</text>
</a>
</g>
</g>
<!-- Node1&#45;&gt;Node10 -->
<g id="edge9_Node000001_Node000010" class="edge">
<title>Node1&#45;&gt;Node10</title>
<g id="a_edge9_Node000001_Node000010"><a xlink:title=" ">
<path fill="none" stroke="#63b8ff" d="M205.42,-103.19C217.12,-93.89 231.45,-82.51 241.18,-74.77"/>
<polygon fill="#63b8ff" stroke="#63b8ff" points="203.58,-100.19 197.93,-109.15 207.93,-105.67 203.58,-100.19"/>
</a>
</g>
</g>
<!-- Node2 -->
<g id="Node000002" class="node">
<title>Node2</title>
<g id="a_Node000002"><a xlink:href="class_cpl_1_1_io_1_1_output.html" target="_top" xlink:title="This partially abstract class defines a interface for operating on an output stream (example of a str...">
<polygon fill="white" stroke="#666666" points="167.75,-185 91,-185 91,-165.75 167.75,-165.75 167.75,-185"/>
<text text-anchor="middle" x="129.38" y="-171.5" font-family="Helvetica,sans-Serif" font-size="10.00">Cpl::Io::Output</text>
</a>
</g>
</g>
<!-- Node2&#45;&gt;Node1 -->
<g id="edge1_Node000001_Node000002" class="edge">
<title>Node2&#45;&gt;Node1</title>
<g id="a_edge1_Node000001_Node000002"><a xlink:title=" ">
<path fill="none" stroke="#63b8ff" d="M147.01,-157.61C156.62,-148.47 168.13,-137.53 176.02,-130.02"/>
<polygon fill="#63b8ff" stroke="#63b8ff" points="144.81,-154.87 139.97,-164.3 149.63,-159.94 144.81,-154.87"/>
</a>
</g>
</g>
<!-- Node3 -->
<g id="Node000003" class="node">
<title>Node3</title>
<g id="a_Node000003"><a xlink:href="class_cpl_1_1_io_1_1_close.html" target="_top" xlink:title="This abstract class defines a close operation that is intended to be used Input and Output streams/fi...">
<polygon fill="white" stroke="#666666" points="120.5,-240.25 48.25,-240.25 48.25,-221 120.5,-221 120.5,-240.25"/>
<text text-anchor="middle" x="84.38" y="-226.75" font-family="Helvetica,sans-Serif" font-size="10.00">Cpl::Io::Close</text>
</a>
</g>
</g>
<!-- Node3&#45;&gt;Node2 -->
<g id="edge2_Node000002_Node000003" class="edge">
<title>Node3&#45;&gt;Node2</title>
<g id="a_edge2_Node000002_Node000003"><a xlink:title=" ">
<path fill="none" stroke="#63b8ff" d="M99.05,-212.26C106.64,-203.28 115.58,-192.7 121.78,-185.36"/>
<polygon fill="#63b8ff" stroke="#63b8ff" points="96.56,-209.78 92.78,-219.68 101.91,-214.3 96.56,-209.78"/>
</a>
</g>
</g>
<!-- Node4 -->
<g id="Node000004" class="node">
<title>Node4</title>
<g id="a_Node000004"><a xlink:href="class_cpl_1_1_container_1_1_item.html" target="_top" xlink:title="This class is used by the Container classes to implement a various types of singly linked containers.">
<polygon fill="white" stroke="#666666" points="134.38,-295.5 34.38,-295.5 34.38,-276.25 134.38,-276.25 134.38,-295.5"/>
<text text-anchor="middle" x="84.38" y="-282" font-family="Helvetica,sans-Serif" font-size="10.00">Cpl::Container::Item</text>
</a>
</g>
</g>
<!-- Node4&#45;&gt;Node3 -->
<g id="edge3_Node000003_Node000004" class="edge">
<title>Node4&#45;&gt;Node3</title>
<g id="a_edge3_Node000003_Node000004"><a xlink:title=" ">
<path fill="none" stroke="#63b8ff" d="M84.38,-264.63C84.38,-256.34 84.38,-247.17 84.38,-240.61"/>
<polygon fill="#63b8ff" stroke="#63b8ff" points="80.88,-264.57 84.38,-274.57 87.88,-264.57 80.88,-264.57"/>
</a>
</g>
</g>
<!-- Node5 -->
<g id="Node000005" class="node">
<title>Node5</title>
<g id="a_Node000005"><a xlink:href="class_cpl_1_1_io_1_1_is_eos.html" target="_top" xlink:title="This abstract class defines a isEos() operation that is intended to be used Input and Output streams.">
<polygon fill="white" stroke="#666666" points="210.5,-240.25 138.25,-240.25 138.25,-221 210.5,-221 210.5,-240.25"/>
<text text-anchor="middle" x="174.38" y="-226.75" font-family="Helvetica,sans-Serif" font-size="10.00">Cpl::Io::IsEos</text>
</a>
</g>
</g>
<!-- Node5&#45;&gt;Node2 -->
<g id="edge4_Node000002_Node000005" class="edge">
<title>Node5&#45;&gt;Node2</title>
<g id="a_edge4_Node000002_Node000005"><a xlink:title=" ">
<path fill="none" stroke="#63b8ff" d="M159.7,-212.26C152.11,-203.28 143.17,-192.7 136.97,-185.36"/>
<polygon fill="#63b8ff" stroke="#63b8ff" points="156.84,-214.3 165.97,-219.68 162.19,-209.78 156.84,-214.3"/>
</a>
</g>
</g>
<!-- Node6 -->
<g id="Node000006" class="node">
<title>Node6</title>
<g id="a_Node000006"><a xlink:href="class_cpl_1_1_io_1_1_file_1_1_object_api.html" target="_top" xlink:title="This abstract class defines the basic additional functionality, beyond that of a stream,...">
<polygon fill="white" stroke="#666666" points="296.62,-185 186.12,-185 186.12,-165.75 296.62,-165.75 296.62,-185"/>
<text text-anchor="middle" x="241.38" y="-171.5" font-family="Helvetica,sans-Serif" font-size="10.00">Cpl::Io::File::ObjectApi</text>
</a>
</g>
</g>
<!-- Node6&#45;&gt;Node1 -->
<g id="edge5_Node000001_Node000006" class="edge">
<title>Node6&#45;&gt;Node1</title>
<g id="a_edge5_Node000001_Node000006"><a xlink:title=" ">
<path fill="none" stroke="#63b8ff" d="M223.74,-157.61C214.13,-148.47 202.62,-137.53 194.73,-130.02"/>
<polygon fill="#63b8ff" stroke="#63b8ff" points="221.12,-159.94 230.78,-164.3 225.94,-154.87 221.12,-159.94"/>
</a>
</g>
</g>
<!-- Node8 -->
<g id="Node000008" class="node">
<title>Node8</title>
<g id="a_Node000008"><a xlink:href="class_cpl_1_1_io_1_1_file_1_1_input_output.html" target="_top" xlink:title="This concrete class provides a platform independent &#39;standard&#39; implementation of an InputOutputFileAp...">
<polygon fill="white" stroke="#666666" points="118.75,-19.25 0,-19.25 0,0 118.75,0 118.75,-19.25"/>
<text text-anchor="middle" x="59.38" y="-5.75" font-family="Helvetica,sans-Serif" font-size="10.00">Cpl::Io::File::InputOutput</text>
</a>
</g>
</g>
<!-- Node7&#45;&gt;Node8 -->
<g id="edge7_Node000007_Node000008" class="edge">
<title>Node7&#45;&gt;Node8</title>
<g id="a_edge7_Node000007_Node000008"><a xlink:title=" ">
<path fill="none" stroke="#63b8ff" d="M100.8,-47.39C90.44,-38.19 77.94,-27.1 69.4,-19.52"/>
<polygon fill="#63b8ff" stroke="#63b8ff" points="98.26,-49.82 108.06,-53.84 102.91,-44.58 98.26,-49.82"/>
</a>
</g>
</g>
<!-- Node9 -->
<g id="Node000009" class="node">
<title>Node9</title>
<g id="a_Node000009"><a xlink:href="class_cpl_1_1_io_1_1_file_1_1_null.html" target="_top" xlink:title="This concrete class implements a NULL InputOutputApi File that all of its input operations return &#39;En...">
<polygon fill="white" stroke="#666666" points="221.88,-19.25 136.88,-19.25 136.88,0 221.88,0 221.88,-19.25"/>
<text text-anchor="middle" x="179.38" y="-5.75" font-family="Helvetica,sans-Serif" font-size="10.00">Cpl::Io::File::Null</text>
</a>
</g>
</g>
<!-- Node7&#45;&gt;Node9 -->
<g id="edge8_Node000007_Node000009" class="edge">
<title>Node7&#45;&gt;Node9</title>
<g id="a_edge8_Node000007_Node000009"><a xlink:title=" ">
<path fill="none" stroke="#63b8ff" d="M137.95,-47.39C148.31,-38.19 160.81,-27.1 169.35,-19.52"/>
<polygon fill="#63b8ff" stroke="#63b8ff" points="135.84,-44.58 130.69,-53.84 140.49,-49.82 135.84,-44.58"/>
</a>
</g>
</g>
</g>
</svg>
