<?xml version="1.0" encoding="UTF-8" standalone="no"?>
<!DOCTYPE svg PUBLIC "-//W3C//DTD SVG 1.1//EN"
 "http://www.w3.org/Graphics/SVG/1.1/DTD/svg11.dtd">
<!-- Generated by graphviz version 2.43.0 (0)
 -->
<!-- Title: Cpl::TShell::Security Pages: 1 -->
<svg width="304pt" height="82pt"
 viewBox="0.00 0.00 304.00 82.00" xmlns="http://www.w3.org/2000/svg" xmlns:xlink="http://www.w3.org/1999/xlink">
<g id="graph0" class="graph" transform="scale(1 1) rotate(0) translate(4 78)">
<title>Cpl::TShell::Security</title>
<!-- Node1 -->
<g id="Node000001" class="node">
<title>Node1</title>
<g id="a_Node000001"><a xlink:title="This abstract defines the interface for validating a &#39;user login&#39; for TShell.">
<polygon fill="#999999" stroke="#666666" points="207,-74 93,-74 93,-55 207,-55 207,-74"/>
<text text-anchor="middle" x="150" y="-62" font-family="Helvetica,sans-Serif" font-size="10.00">Cpl::TShell::Security</text>
</a>
</g>
</g>
<!-- Node2 -->
<g id="Node000002" class="node">
<title>Node2</title>
<g id="a_Node000002"><a xlink:href="class_ajax_1_1_main_1_1_t_shell_security.html" target="_top" xlink:title="Validates the TShell login password.">
<polygon fill="white" stroke="#666666" points="144,-19 0,-19 0,0 144,0 144,-19"/>
<text text-anchor="middle" x="72" y="-7" font-family="Helvetica,sans-Serif" font-size="10.00">Ajax::Main::TShellSecurity</text>
</a>
</g>
</g>
<!-- Node1&#45;&gt;Node2 -->
<g id="edge1_Node000001_Node000002" class="edge">
<title>Node1&#45;&gt;Node2</title>
<g id="a_edge1_Node000001_Node000002"><a xlink:title=" ">
<path fill="none" stroke="#63b8ff" d="M128.88,-49.15C114.79,-39.57 96.71,-27.29 84.76,-19.17"/>
<polygon fill="#63b8ff" stroke="#63b8ff" points="127.23,-52.26 137.47,-54.98 131.16,-46.47 127.23,-52.26"/>
</a>
</g>
</g>
<!-- Node3 -->
<g id="Node000003" class="node">
<title>Node3</title>
<g id="a_Node000003"><a xlink:href="class_cpl_1_1_t_shell_1_1_security_null.html" target="_top" xlink:title="This concrete class dummy/null implementation of the Security interface.">
<polygon fill="white" stroke="#666666" points="296,-19 162,-19 162,0 296,0 296,-19"/>
<text text-anchor="middle" x="229" y="-7" font-family="Helvetica,sans-Serif" font-size="10.00">Cpl::TShell::SecurityNull</text>
</a>
</g>
</g>
<!-- Node1&#45;&gt;Node3 -->
<g id="edge2_Node000001_Node000003" class="edge">
<title>Node1&#45;&gt;Node3</title>
<g id="a_edge2_Node000001_Node000003"><a xlink:title=" ">
<path fill="none" stroke="#63b8ff" d="M171.39,-49.15C185.67,-39.57 203.97,-27.29 216.08,-19.17"/>
<polygon fill="#63b8ff" stroke="#63b8ff" points="169.05,-46.51 162.69,-54.98 172.95,-52.32 169.05,-46.51"/>
</a>
</g>
</g>
</g>
</svg>
