<?xml version="1.0" encoding="UTF-8" standalone="no"?>
<!DOCTYPE svg PUBLIC "-//W3C//DTD SVG 1.1//EN"
 "http://www.w3.org/Graphics/SVG/1.1/DTD/svg11.dtd">
<!-- Generated by graphviz version 9.0.0 (20230911.1827)
 -->
<!-- Title: Cpl::Persistent::IndexRecord Pages: 1 -->
<svg width="258pt" height="138pt"
 viewBox="0.00 0.00 258.12 137.75" xmlns="http://www.w3.org/2000/svg" xmlns:xlink="http://www.w3.org/1999/xlink">
<g id="graph0" class="graph" transform="scale(1 1) rotate(0) translate(4 133.75)">
<title>Cpl::Persistent::IndexRecord</title>
<!-- Node1 -->
<g id="Node000001" class="node">
<title>Node1</title>
<g id="a_Node000001"><a xlink:title="This concrete class extends the Cpl::Persistent::DataRecord interface to store a latest/oldest &#39;recor...">
<polygon fill="#999999" stroke="#666666" points="192.88,-19.25 55.38,-19.25 55.38,0 192.88,0 192.88,-19.25"/>
<text text-anchor="middle" x="124.12" y="-5.75" font-family="Helvetica,sans-Serif" font-size="10.00">Cpl::Persistent::IndexRecord</text>
</a>
</g>
</g>
<!-- Node2 -->
<g id="Node000002" class="node">
<title>Node2</title>
<g id="a_Node000002"><a xlink:href="class_cpl_1_1_persistent_1_1_data_record.html" target="_top" xlink:title="This mostly concrete class implements the Cpl::Persistent::DataRecord interface where a DataRecord in...">
<polygon fill="white" stroke="#666666" points="191.38,-74.5 56.88,-74.5 56.88,-55.25 191.38,-55.25 191.38,-74.5"/>
<text text-anchor="middle" x="124.12" y="-61" font-family="Helvetica,sans-Serif" font-size="10.00">Cpl::Persistent::DataRecord</text>
</a>
</g>
</g>
<!-- Node2&#45;&gt;Node1 -->
<g id="edge1_Node000001_Node000002" class="edge">
<title>Node2&#45;&gt;Node1</title>
<g id="a_edge1_Node000001_Node000002"><a xlink:title=" ">
<path fill="none" stroke="#63b8ff" d="M124.12,-43.63C124.12,-35.34 124.12,-26.17 124.12,-19.61"/>
<polygon fill="#63b8ff" stroke="#63b8ff" points="120.63,-43.57 124.13,-53.57 127.63,-43.57 120.63,-43.57"/>
</a>
</g>
</g>
<!-- Node3 -->
<g id="Node000003" class="node">
<title>Node3</title>
<g id="a_Node000003"><a xlink:href="class_cpl_1_1_persistent_1_1_record.html" target="_top" xlink:title="This abstract class defines the public interface for a Record instance.">
<polygon fill="white" stroke="#666666" points="114.25,-129.75 0,-129.75 0,-110.5 114.25,-110.5 114.25,-129.75"/>
<text text-anchor="middle" x="57.12" y="-116.25" font-family="Helvetica,sans-Serif" font-size="10.00">Cpl::Persistent::Record</text>
</a>
</g>
</g>
<!-- Node3&#45;&gt;Node2 -->
<g id="edge2_Node000002_Node000003" class="edge">
<title>Node3&#45;&gt;Node2</title>
<g id="a_edge2_Node000002_Node000003"><a xlink:title=" ">
<path fill="none" stroke="#63b8ff" d="M77.17,-103.19C88.87,-93.89 103.2,-82.51 112.93,-74.77"/>
<polygon fill="#63b8ff" stroke="#63b8ff" points="75.33,-100.19 69.68,-109.15 79.68,-105.67 75.33,-100.19"/>
</a>
</g>
</g>
<!-- Node4 -->
<g id="Node000004" class="node">
<title>Node4</title>
<g id="a_Node000004"><a xlink:href="class_cpl_1_1_persistent_1_1_payload.html" target="_top" xlink:title="This abstract class defines the interface accessing the &#39;data payload&#39; of an individual Record instan...">
<polygon fill="white" stroke="#666666" points="250.12,-129.75 132.12,-129.75 132.12,-110.5 250.12,-110.5 250.12,-129.75"/>
<text text-anchor="middle" x="191.12" y="-116.25" font-family="Helvetica,sans-Serif" font-size="10.00">Cpl::Persistent::Payload</text>
</a>
</g>
</g>
<!-- Node4&#45;&gt;Node2 -->
<g id="edge3_Node000002_Node000004" class="edge">
<title>Node4&#45;&gt;Node2</title>
<g id="a_edge3_Node000002_Node000004"><a xlink:title=" ">
<path fill="none" stroke="#63b8ff" d="M171.08,-103.19C159.38,-93.89 145.05,-82.51 135.32,-74.77"/>
<polygon fill="#63b8ff" stroke="#63b8ff" points="168.57,-105.67 178.57,-109.15 172.92,-100.19 168.57,-105.67"/>
</a>
</g>
</g>
</g>
</svg>
