<?xml version="1.0" encoding="UTF-8" standalone="no"?>
<!DOCTYPE svg PUBLIC "-//W3C//DTD SVG 1.1//EN"
 "http://www.w3.org/Graphics/SVG/1.1/DTD/svg11.dtd">
<!-- Generated by graphviz version 9.0.0 (20230911.1827)
 -->
<!-- Title: Cpl::Dm::NotificationApi_ Pages: 1 -->
<svg width="302pt" height="193pt"
 viewBox="0.00 0.00 301.88 193.00" xmlns="http://www.w3.org/2000/svg" xmlns:xlink="http://www.w3.org/1999/xlink">
<g id="graph0" class="graph" transform="scale(1 1) rotate(0) translate(4 189)">
<title>Cpl::Dm::NotificationApi_</title>
<!-- Node1 -->
<g id="Node000001" class="node">
<title>Node1</title>
<g id="a_Node000001"><a xlink:title="This class has PACKAGE Scope, i.e.">
<polygon fill="#999999" stroke="#666666" points="205.75,-185 83.25,-185 83.25,-165.75 205.75,-165.75 205.75,-185"/>
<text text-anchor="middle" x="144.5" y="-171.5" font-family="Helvetica,sans-Serif" font-size="10.00">Cpl::Dm::NotificationApi_</text>
</a>
</g>
</g>
<!-- Node2 -->
<g id="Node000002" class="node">
<title>Node2</title>
<g id="a_Node000002"><a xlink:href="class_cpl_1_1_dm_1_1_event_loop.html" target="_top" xlink:title="This class extends the Cpl::System::EventLoop class to support the asynchronous change notification g...">
<polygon fill="white" stroke="#666666" points="194.88,-129.75 94.12,-129.75 94.12,-110.5 194.88,-110.5 194.88,-129.75"/>
<text text-anchor="middle" x="144.5" y="-116.25" font-family="Helvetica,sans-Serif" font-size="10.00">Cpl::Dm::EventLoop</text>
</a>
</g>
</g>
<!-- Node1&#45;&gt;Node2 -->
<g id="edge1_Node000001_Node000002" class="edge">
<title>Node1&#45;&gt;Node2</title>
<g id="a_edge1_Node000001_Node000002"><a xlink:title=" ">
<path fill="none" stroke="#63b8ff" d="M144.5,-154.13C144.5,-145.84 144.5,-136.67 144.5,-130.11"/>
<polygon fill="#63b8ff" stroke="#63b8ff" points="141,-154.07 144.5,-164.07 148,-154.07 141,-154.07"/>
</a>
</g>
</g>
<!-- Node3 -->
<g id="Node000003" class="node">
<title>Node3</title>
<g id="a_Node000003"><a xlink:href="class_cpl_1_1_dm_1_1_mailbox_server.html" target="_top" xlink:title="This class extends the Cpl::Dm::EventLoop and Cpl::Itc:Mailbox classes to support the asynchronous ch...">
<polygon fill="white" stroke="#666666" points="202.38,-74.5 86.62,-74.5 86.62,-55.25 202.38,-55.25 202.38,-74.5"/>
<text text-anchor="middle" x="144.5" y="-61" font-family="Helvetica,sans-Serif" font-size="10.00">Cpl::Dm::MailboxServer</text>
</a>
</g>
</g>
<!-- Node2&#45;&gt;Node3 -->
<g id="edge2_Node000002_Node000003" class="edge">
<title>Node2&#45;&gt;Node3</title>
<g id="a_edge2_Node000002_Node000003"><a xlink:title=" ">
<path fill="none" stroke="#63b8ff" d="M144.5,-98.88C144.5,-90.59 144.5,-81.42 144.5,-74.86"/>
<polygon fill="#63b8ff" stroke="#63b8ff" points="141,-98.82 144.5,-108.82 148,-98.82 141,-98.82"/>
</a>
</g>
</g>
<!-- Node4 -->
<g id="Node000004" class="node">
<title>Node4</title>
<g id="a_Node000004"><a xlink:href="class_cpl_1_1_dm_1_1_periodic_scheduler.html" target="_top" xlink:title="This class extends the Cpl::Dm::MailboxServer class to add periodic scheduling to an event based &#39;thr...">
<polygon fill="white" stroke="#666666" points="133,-19.25 0,-19.25 0,0 133,0 133,-19.25"/>
<text text-anchor="middle" x="66.5" y="-5.75" font-family="Helvetica,sans-Serif" font-size="10.00">Cpl::Dm::PeriodicScheduler</text>
</a>
</g>
</g>
<!-- Node3&#45;&gt;Node4 -->
<g id="edge3_Node000003_Node000004" class="edge">
<title>Node3&#45;&gt;Node4</title>
<g id="a_edge3_Node000003_Node000004"><a xlink:title=" ">
<path fill="none" stroke="#63b8ff" d="M122.03,-48.53C108.35,-39.2 91.36,-27.6 79.8,-19.7"/>
<polygon fill="#63b8ff" stroke="#63b8ff" points="119.79,-51.24 130.02,-53.99 123.73,-45.46 119.79,-51.24"/>
</a>
</g>
</g>
<!-- Node5 -->
<g id="Node000005" class="node">
<title>Node5</title>
<g id="a_Node000005"><a xlink:href="class_cpl_1_1_persistent_1_1_record_server.html" target="_top" xlink:title="This concrete class provides an Event driven Runnable object for executing the read/write operation t...">
<polygon fill="white" stroke="#666666" points="293.88,-19.25 151.12,-19.25 151.12,0 293.88,0 293.88,-19.25"/>
<text text-anchor="middle" x="222.5" y="-5.75" font-family="Helvetica,sans-Serif" font-size="10.00">Cpl::Persistent::RecordServer</text>
</a>
</g>
</g>
<!-- Node3&#45;&gt;Node5 -->
<g id="edge4_Node000003_Node000005" class="edge">
<title>Node3&#45;&gt;Node5</title>
<g id="a_edge4_Node000003_Node000005"><a xlink:title=" ">
<path fill="none" stroke="#63b8ff" d="M166.97,-48.53C180.65,-39.2 197.64,-27.6 209.2,-19.7"/>
<polygon fill="#63b8ff" stroke="#63b8ff" points="165.27,-45.46 158.98,-53.99 169.21,-51.24 165.27,-45.46"/>
</a>
</g>
</g>
</g>
</svg>
