<?xml version="1.0" encoding="UTF-8" standalone="no"?>
<!DOCTYPE svg PUBLIC "-//W3C//DTD SVG 1.1//EN"
 "http://www.w3.org/Graphics/SVG/1.1/DTD/svg11.dtd">
<!-- Generated by graphviz version 9.0.0 (20230911.1827)
 -->
<!-- Title: Cpl::Dm::MailboxServer Pages: 1 -->
<svg width="1333pt" height="357pt"
 viewBox="0.00 0.00 1332.50 356.88" xmlns="http://www.w3.org/2000/svg" xmlns:xlink="http://www.w3.org/1999/xlink">
<g id="graph0" class="graph" transform="scale(1 1) rotate(0) translate(4 352.88)">
<title>Cpl::Dm::MailboxServer</title>
<!-- Node1 -->
<g id="Node000001" class="node">
<title>Node1</title>
<g id="a_Node000001"><a xlink:title="This class extends the Cpl::Dm::EventLoop and Cpl::Itc:Mailbox classes to support the asynchronous ch...">
<polygon fill="#999999" stroke="#666666" points="1324.5,-44.25 1208.75,-44.25 1208.75,-25 1324.5,-25 1324.5,-44.25"/>
<text text-anchor="middle" x="1266.62" y="-30.75" font-family="Helvetica,sans-Serif" font-size="10.00">Cpl::Dm::MailboxServer</text>
</a>
</g>
</g>
<!-- Node2 -->
<g id="Node000002" class="node">
<title>Node2</title>
<g id="a_Node000002"><a xlink:href="class_cpl_1_1_dm_1_1_event_loop.html" target="_top" xlink:title="This class extends the Cpl::System::EventLoop class to support the asynchronous change notification g...">
<polygon fill="white" stroke="#666666" points="1171.75,-167.25 1071,-167.25 1071,-148 1171.75,-148 1171.75,-167.25"/>
<text text-anchor="middle" x="1121.38" y="-153.75" font-family="Helvetica,sans-Serif" font-size="10.00">Cpl::Dm::EventLoop</text>
</a>
</g>
</g>
<!-- Node2&#45;&gt;Node1 -->
<g id="edge1_Node000001_Node000002" class="edge">
<title>Node2&#45;&gt;Node1</title>
<g id="a_edge1_Node000001_Node000002"><a xlink:title=" ">
<path fill="none" stroke="#63b8ff" d="M1142.66,-140.21C1173.17,-114.01 1229.89,-65.31 1254.14,-44.49"/>
<polygon fill="#63b8ff" stroke="#63b8ff" points="1140.55,-137.4 1135.25,-146.57 1145.11,-142.71 1140.55,-137.4"/>
</a>
</g>
</g>
<!-- Node3 -->
<g id="Node000003" class="node">
<title>Node3</title>
<g id="a_Node000003"><a xlink:href="class_cpl_1_1_system_1_1_event_loop.html" target="_top" xlink:title="This concrete class is a Runnable object that provides a event driven execution model for a thread.">
<polygon fill="white" stroke="#666666" points="1032.12,-189.25 913.38,-189.25 913.38,-170 1032.12,-170 1032.12,-189.25"/>
<text text-anchor="middle" x="972.75" y="-175.75" font-family="Helvetica,sans-Serif" font-size="10.00">Cpl::System::EventLoop</text>
</a>
</g>
</g>
<!-- Node3&#45;&gt;Node2 -->
<g id="edge2_Node000002_Node000003" class="edge">
<title>Node3&#45;&gt;Node2</title>
<g id="a_edge2_Node000002_Node000003"><a xlink:title=" ">
<path fill="none" stroke="#63b8ff" d="M1043.87,-169.1C1052.87,-167.75 1061.94,-166.39 1070.53,-165.1"/>
<polygon fill="#63b8ff" stroke="#63b8ff" points="1043.41,-165.63 1034.04,-170.58 1044.45,-172.56 1043.41,-165.63"/>
</a>
</g>
</g>
<!-- Node4 -->
<g id="Node000004" class="node">
<title>Node4</title>
<g id="a_Node000004"><a xlink:href="class_cpl_1_1_system_1_1_runnable.html" target="_top" xlink:title="This is an abstract class defines the interface for an object that is &quot;executed&quot; when a Thread object...">
<polygon fill="white" stroke="#666666" points="747.62,-263.25 634.88,-263.25 634.88,-244 747.62,-244 747.62,-263.25"/>
<text text-anchor="middle" x="691.25" y="-249.75" font-family="Helvetica,sans-Serif" font-size="10.00">Cpl::System::Runnable</text>
</a>
</g>
</g>
<!-- Node4&#45;&gt;Node3 -->
<g id="edge3_Node000003_Node000004" class="edge">
<title>Node4&#45;&gt;Node3</title>
<g id="a_edge3_Node000003_Node000004"><a xlink:title=" ">
<path fill="none" stroke="#63b8ff" d="M758.96,-245.22C798.63,-239.19 849.63,-229.63 893.5,-215.62 914.73,-208.85 937.75,-197.77 953.29,-189.68"/>
<polygon fill="#63b8ff" stroke="#63b8ff" points="758.69,-241.72 749.31,-246.64 759.72,-248.64 758.69,-241.72"/>
</a>
</g>
</g>
<!-- Node5 -->
<g id="Node000005" class="node">
<title>Node5</title>
<g id="a_Node000005"><a xlink:href="class_cpl_1_1_system_1_1_event_flag.html" target="_top" xlink:title="This abstract class defines the interface to generated a &#39;Event Flag&#39;.">
<polygon fill="white" stroke="#666666" points="749.12,-226.25 633.38,-226.25 633.38,-207 749.12,-207 749.12,-226.25"/>
<text text-anchor="middle" x="691.25" y="-212.75" font-family="Helvetica,sans-Serif" font-size="10.00">Cpl::System::EventFlag</text>
</a>
</g>
</g>
<!-- Node5&#45;&gt;Node3 -->
<g id="edge4_Node000003_Node000005" class="edge">
<title>Node5&#45;&gt;Node3</title>
<g id="a_edge4_Node000003_Node000005"><a xlink:title=" ">
<path fill="none" stroke="#63b8ff" d="M760.46,-210.55C799.51,-206.72 849.37,-201.26 893.5,-194.62 902.94,-193.21 912.97,-191.46 922.6,-189.67"/>
<polygon fill="#63b8ff" stroke="#63b8ff" points="760.35,-207.04 750.73,-211.48 761.02,-214.01 760.35,-207.04"/>
</a>
</g>
</g>
<!-- Node6 -->
<g id="Node000006" class="node">
<title>Node6</title>
<g id="a_Node000006"><a xlink:href="class_cpl_1_1_system_1_1_signable.html" target="_top" xlink:title="This abstract class defines the interface by which a client can cause an object that is waiting&#45;on&#45;a&#45;...">
<polygon fill="white" stroke="#666666" points="428.75,-132.25 319,-132.25 319,-113 428.75,-113 428.75,-132.25"/>
<text text-anchor="middle" x="373.88" y="-118.75" font-family="Helvetica,sans-Serif" font-size="10.00">Cpl::System::Signable</text>
</a>
</g>
</g>
<!-- Node6&#45;&gt;Node3 -->
<g id="edge5_Node000003_Node000006" class="edge">
<title>Node6&#45;&gt;Node3</title>
<g id="a_edge5_Node000003_Node000006"><a xlink:title=" ">
<path fill="none" stroke="#63b8ff" d="M440.44,-128.89C557.6,-140.07 801.12,-163.33 913.1,-174.02"/>
<polygon fill="#63b8ff" stroke="#63b8ff" points="440.96,-125.42 430.67,-127.95 440.29,-132.39 440.96,-125.42"/>
</a>
</g>
</g>
<!-- Node12 -->
<g id="Node000012" class="node">
<title>Node12</title>
<g id="a_Node000012"><a xlink:href="class_cpl_1_1_system_1_1_thread.html" target="_top" xlink:title="This abstract class defines the operations that can be performed on a thread.">
<polygon fill="white" stroke="#666666" points="742.38,-113.25 640.12,-113.25 640.12,-94 742.38,-94 742.38,-113.25"/>
<text text-anchor="middle" x="691.25" y="-99.75" font-family="Helvetica,sans-Serif" font-size="10.00">Cpl::System::Thread</text>
</a>
</g>
</g>
<!-- Node6&#45;&gt;Node12 -->
<g id="edge12_Node000012_Node000006" class="edge">
<title>Node6&#45;&gt;Node12</title>
<g id="a_edge12_Node000012_Node000006"><a xlink:title=" ">
<path fill="none" stroke="#63b8ff" d="M440.58,-118.67C499.87,-115.09 585.85,-109.91 639.86,-106.66"/>
<polygon fill="#63b8ff" stroke="#63b8ff" points="440.37,-115.17 430.6,-119.27 440.79,-122.16 440.37,-115.17"/>
</a>
</g>
</g>
<!-- Node14 -->
<g id="Node000014" class="node">
<title>Node14</title>
<g id="a_Node000014"><a xlink:href="class_cpl_1_1_system_1_1_semaphore.html" target="_top" xlink:title="This semaphore class defines the interface for a Counting Semaphore.">
<polygon fill="white" stroke="#666666" points="752.12,-189.25 630.38,-189.25 630.38,-170 752.12,-170 752.12,-189.25"/>
<text text-anchor="middle" x="691.25" y="-175.75" font-family="Helvetica,sans-Serif" font-size="10.00">Cpl::System::Semaphore</text>
</a>
</g>
</g>
<!-- Node6&#45;&gt;Node14 -->
<g id="edge15_Node000014_Node000006" class="edge">
<title>Node6&#45;&gt;Node14</title>
<g id="a_edge15_Node000014_Node000006"><a xlink:title=" ">
<path fill="none" stroke="#63b8ff" d="M410.97,-136.61C429.67,-143.33 453.03,-150.93 474.5,-155.62 526.41,-166.98 586.59,-173.11 630.18,-176.32"/>
<polygon fill="#63b8ff" stroke="#63b8ff" points="412.28,-133.36 401.69,-133.2 409.86,-139.93 412.28,-133.36"/>
</a>
</g>
</g>
<!-- Node17 -->
<g id="Node000017" class="node">
<title>Node17</title>
<g id="a_Node000017"><a xlink:href="class_cpl_1_1_itc_1_1_mailbox.html" target="_top" xlink:title="This mailbox class implements an Inter Thread Communications message queue.">
<polygon fill="white" stroke="#666666" points="733,-27.25 649.5,-27.25 649.5,-8 733,-8 733,-27.25"/>
<text text-anchor="middle" x="691.25" y="-13.75" font-family="Helvetica,sans-Serif" font-size="10.00">Cpl::Itc::Mailbox</text>
</a>
</g>
</g>
<!-- Node6&#45;&gt;Node17 -->
<g id="edge23_Node000017_Node000006" class="edge">
<title>Node6&#45;&gt;Node17</title>
<g id="a_edge23_Node000017_Node000006"><a xlink:title=" ">
<path fill="none" stroke="#9a32cd" stroke-dasharray="5,2" d="M419.72,-109.3C482.04,-90.66 589.11,-58.11 606,-49.62 614.82,-45.19 615.12,-40.94 624,-36.62 631.86,-32.81 640.62,-29.62 649.13,-27.02"/>
<polygon fill="#9a32cd" stroke="#9a32cd" points="419.04,-105.85 410.46,-112.07 421.04,-112.56 419.04,-105.85"/>
</a>
</g>
<text text-anchor="middle" x="540.25" y="-95.38" font-family="Helvetica,sans-Serif" font-size="10.00" fill="grey"> m_eventLoop</text>
</g>
<!-- Node7 -->
<g id="Node000007" class="node">
<title>Node7</title>
<g id="a_Node000007"><a xlink:href="class_cpl_1_1_container_1_1_item.html" target="_top" xlink:title="This class is used by the Container classes to implement a various types of singly linked containers.">
<polygon fill="white" stroke="#666666" points="101.88,-132.25 1.88,-132.25 1.88,-113 101.88,-113 101.88,-132.25"/>
<text text-anchor="middle" x="51.88" y="-118.75" font-family="Helvetica,sans-Serif" font-size="10.00">Cpl::Container::Item</text>
</a>
</g>
</g>
<!-- Node7&#45;&gt;Node6 -->
<g id="edge6_Node000006_Node000007" class="edge">
<title>Node7&#45;&gt;Node6</title>
<g id="a_edge6_Node000006_Node000007"><a xlink:title=" ">
<path fill="none" stroke="#63b8ff" d="M113.59,-122.62C172.76,-122.62 261.87,-122.62 318.7,-122.62"/>
<polygon fill="#63b8ff" stroke="#63b8ff" points="113.69,-119.13 103.69,-122.63 113.69,-126.13 113.69,-119.13"/>
</a>
</g>
</g>
<!-- Node8 -->
<g id="Node000008" class="node">
<title>Node8</title>
<g id="a_Node000008"><a xlink:href="class_cpl_1_1_system_1_1_timer_manager.html" target="_top" xlink:title="This mostly concrete class implements manages a list of Software Timers.">
<polygon fill="white" stroke="#666666" points="758.5,-300.25 624,-300.25 624,-281 758.5,-281 758.5,-300.25"/>
<text text-anchor="middle" x="691.25" y="-286.75" font-family="Helvetica,sans-Serif" font-size="10.00">Cpl::System::TimerManager</text>
</a>
</g>
</g>
<!-- Node8&#45;&gt;Node3 -->
<g id="edge7_Node000003_Node000008" class="edge">
<title>Node8&#45;&gt;Node3</title>
<g id="a_edge7_Node000003_Node000008"><a xlink:title=" ">
<path fill="none" stroke="#63b8ff" d="M769.83,-280.39C808.41,-273.28 854.9,-261.56 893.5,-242.62 921.69,-228.8 948.92,-203.27 962.61,-189.33"/>
<polygon fill="#63b8ff" stroke="#63b8ff" points="769.39,-276.92 760.15,-282.1 770.61,-283.81 769.39,-276.92"/>
</a>
</g>
</g>
<!-- Node9 -->
<g id="Node000009" class="node">
<title>Node9</title>
<g id="a_Node000009"><a xlink:href="class_cpl_1_1_system_1_1_counter_source__.html" target="_top" xlink:title="This abstract class defines the interface for registering for an Counter object with the Timer Manage...">
<polygon fill="white" stroke="#666666" points="444.88,-257.25 302.88,-257.25 302.88,-238 444.88,-238 444.88,-257.25"/>
<text text-anchor="middle" x="373.88" y="-243.75" font-family="Helvetica,sans-Serif" font-size="10.00">Cpl::System::CounterSource_</text>
</a>
</g>
</g>
<!-- Node9&#45;&gt;Node8 -->
<g id="edge8_Node000008_Node000009" class="edge">
<title>Node9&#45;&gt;Node8</title>
<g id="a_edge8_Node000008_Node000009"><a xlink:title=" ">
<path fill="none" stroke="#63b8ff" d="M456.45,-258.75C508.39,-265.83 574.82,-274.89 623.59,-281.54"/>
<polygon fill="#63b8ff" stroke="#63b8ff" points="457.14,-255.31 446.76,-257.43 456.19,-262.24 457.14,-255.31"/>
</a>
</g>
</g>
<!-- Node10 -->
<g id="Node000010" class="node">
<title>Node10</title>
<g id="a_Node000010"><a xlink:href="class_cpl_1_1_container_1_1_d_list.html" target="_top" xlink:title=" ">
<polygon fill="white" stroke="#666666" points="456.5,-305.88 291.25,-305.88 291.25,-275.38 456.5,-275.38 456.5,-305.88"/>
<text text-anchor="start" x="299.25" y="-292.38" font-family="Helvetica,sans-Serif" font-size="10.00">Cpl::Container::DList</text>
<text text-anchor="middle" x="373.88" y="-281.12" font-family="Helvetica,sans-Serif" font-size="10.00">&lt; Cpl::System::CounterCallback_ &gt;</text>
</a>
</g>
</g>
<!-- Node10&#45;&gt;Node8 -->
<g id="edge9_Node000008_Node000010" class="edge">
<title>Node10&#45;&gt;Node8</title>
<g id="a_edge9_Node000008_Node000010"><a xlink:title=" ">
<path fill="none" stroke="#9a32cd" stroke-dasharray="5,2" d="M468.28,-287.25C470.37,-287.2 472.45,-287.16 474.5,-287.12 532.94,-286.1 547.57,-285.91 606,-287.12 611.71,-287.24 617.63,-287.41 623.57,-287.6"/>
<polygon fill="#9a32cd" stroke="#9a32cd" points="468.39,-283.74 458.47,-287.48 468.55,-290.74 468.39,-283.74"/>
</a>
</g>
<text text-anchor="middle" x="540.25" y="-299.62" font-family="Helvetica,sans-Serif" font-size="10.00" fill="grey"> m_counters</text>
<text text-anchor="middle" x="540.25" y="-288.38" font-family="Helvetica,sans-Serif" font-size="10.00" fill="grey">m_pendingAttach</text>
</g>
<!-- Node11 -->
<g id="Node000011" class="node">
<title>Node11</title>
<g id="a_Node000011"><a xlink:href="class_cpl_1_1_container_1_1_d_list.html" target="_top" xlink:title="This template class implements a Doubly linked list which maintains the ordering imposed on it by the...">
<polygon fill="white" stroke="#666666" points="103.75,-330.88 0,-330.88 0,-300.38 103.75,-300.38 103.75,-330.88"/>
<text text-anchor="start" x="8" y="-317.38" font-family="Helvetica,sans-Serif" font-size="10.00">Cpl::Container::DList</text>
<text text-anchor="middle" x="51.88" y="-306.12" font-family="Helvetica,sans-Serif" font-size="10.00">&lt; ITEM &gt;</text>
</a>
</g>
</g>
<!-- Node11&#45;&gt;Node10 -->
<g id="edge10_Node000010_Node000011" class="edge">
<title>Node11&#45;&gt;Node10</title>
<g id="a_edge10_Node000010_Node000011"><a xlink:title=" ">
<path fill="none" stroke="orange" stroke-dasharray="5,2" d="M115.52,-301.26C117.62,-300.94 119.7,-300.64 121.75,-300.38 177.9,-293.13 241.64,-290.72 290.85,-290.11"/>
<polygon fill="orange" stroke="orange" points="114.98,-297.8 105.71,-302.95 116.16,-304.7 114.98,-297.8"/>
</a>
</g>
<text text-anchor="middle" x="197.5" y="-301.38" font-family="Helvetica,sans-Serif" font-size="10.00" fill="grey"> &lt; Cpl::System::CounterCallback_ &gt;</text>
</g>
<!-- Node16 -->
<g id="Node000016" class="node">
<title>Node16</title>
<g id="a_Node000016"><a xlink:href="class_cpl_1_1_container_1_1_d_list.html" target="_top" xlink:title=" ">
<polygon fill="white" stroke="#666666" points="606,-348.88 474.5,-348.88 474.5,-318.38 606,-318.38 606,-348.88"/>
<text text-anchor="start" x="482.5" y="-335.38" font-family="Helvetica,sans-Serif" font-size="10.00">Cpl::Container::DList</text>
<text text-anchor="middle" x="540.25" y="-324.12" font-family="Helvetica,sans-Serif" font-size="10.00">&lt; Cpl::Dm::SubscriberApi &gt;</text>
</a>
</g>
</g>
<!-- Node11&#45;&gt;Node16 -->
<g id="edge18_Node000016_Node000011" class="edge">
<title>Node11&#45;&gt;Node16</title>
<g id="a_edge18_Node000016_Node000011"><a xlink:title=" ">
<path fill="none" stroke="orange" stroke-dasharray="5,2" d="M115.42,-317.94C207.92,-321.36 380.34,-327.74 474.23,-331.22"/>
<polygon fill="orange" stroke="orange" points="115.64,-314.45 105.52,-317.57 115.38,-321.44 115.64,-314.45"/>
</a>
</g>
<text text-anchor="middle" x="197.5" y="-324.38" font-family="Helvetica,sans-Serif" font-size="10.00" fill="grey"> &lt; Cpl::Dm::SubscriberApi &gt;</text>
</g>
<!-- Node12&#45;&gt;Node3 -->
<g id="edge11_Node000003_Node000012" class="edge">
<title>Node12&#45;&gt;Node3</title>
<g id="a_edge11_Node000003_Node000012"><a xlink:title=" ">
<path fill="none" stroke="#9a32cd" stroke-dasharray="5,2" d="M749.74,-91.93C793.27,-86.43 852.4,-86.55 893.5,-116.38 911.02,-129.09 895.54,-147.01 911.5,-161.62 914.96,-164.79 918.96,-167.41 923.22,-169.56"/>
<polygon fill="#9a32cd" stroke="#9a32cd" points="749.38,-88.44 739.96,-93.31 750.35,-95.37 749.38,-88.44"/>
</a>
</g>
<text text-anchor="middle" x="835" y="-118.38" font-family="Helvetica,sans-Serif" font-size="10.00" fill="grey"> m_myThreadPtr</text>
</g>
<!-- Node13 -->
<g id="Node000013" class="node">
<title>Node13</title>
<g id="a_Node000013"><a xlink:href="class_cpl_1_1_system_1_1_shared_event_handler_api.html" target="_top" xlink:title="This abstract class defines the interface for a Shared Event Handler.">
<polygon fill="white" stroke="#666666" points="755.12,-75.88 627.38,-75.88 627.38,-45.38 755.12,-45.38 755.12,-75.88"/>
<text text-anchor="start" x="635.38" y="-62.38" font-family="Helvetica,sans-Serif" font-size="10.00">Cpl::System::SharedEvent</text>
<text text-anchor="middle" x="691.25" y="-51.12" font-family="Helvetica,sans-Serif" font-size="10.00">HandlerApi</text>
</a>
</g>
</g>
<!-- Node13&#45;&gt;Node3 -->
<g id="edge13_Node000003_Node000013" class="edge">
<title>Node13&#45;&gt;Node3</title>
<g id="a_edge13_Node000003_Node000013"><a xlink:title=" ">
<path fill="none" stroke="#9a32cd" stroke-dasharray="5,2" d="M766.86,-45.45C808.87,-41.42 859.55,-44.73 893.5,-74.38 923.33,-100.42 884.74,-132.44 911.5,-161.62 914.38,-164.76 917.78,-167.36 921.47,-169.52"/>
<polygon fill="#9a32cd" stroke="#9a32cd" points="766.6,-41.96 757.05,-46.56 767.38,-48.92 766.6,-41.96"/>
</a>
</g>
<text text-anchor="middle" x="835" y="-76.38" font-family="Helvetica,sans-Serif" font-size="10.00" fill="grey"> m_eventHandler</text>
</g>
<!-- Node14&#45;&gt;Node3 -->
<g id="edge14_Node000003_Node000014" class="edge">
<title>Node14&#45;&gt;Node3</title>
<g id="a_edge14_Node000003_Node000014"><a xlink:title=" ">
<path fill="none" stroke="#9a32cd" stroke-dasharray="5,2" d="M764,-179.62C810.23,-179.62 869.57,-179.62 912.99,-179.62"/>
<polygon fill="#9a32cd" stroke="#9a32cd" points="764.07,-176.13 754.07,-179.63 764.07,-183.13 764.07,-176.13"/>
</a>
</g>
<text text-anchor="middle" x="835" y="-181.38" font-family="Helvetica,sans-Serif" font-size="10.00" fill="grey"> m_sema</text>
</g>
<!-- Node15 -->
<g id="Node000015" class="node">
<title>Node15</title>
<g id="a_Node000015"><a xlink:href="class_cpl_1_1_dm_1_1_notification_api__.html" target="_top" xlink:title="This class has PACKAGE Scope, i.e.">
<polygon fill="white" stroke="#666666" points="1034,-152.25 911.5,-152.25 911.5,-133 1034,-133 1034,-152.25"/>
<text text-anchor="middle" x="972.75" y="-138.75" font-family="Helvetica,sans-Serif" font-size="10.00">Cpl::Dm::NotificationApi_</text>
</a>
</g>
</g>
<!-- Node15&#45;&gt;Node2 -->
<g id="edge16_Node000002_Node000015" class="edge">
<title>Node15&#45;&gt;Node2</title>
<g id="a_edge16_Node000002_Node000015"><a xlink:title=" ">
<path fill="none" stroke="#63b8ff" d="M1045.43,-149.96C1054,-150.83 1062.59,-151.71 1070.74,-152.55"/>
<polygon fill="#63b8ff" stroke="#63b8ff" points="1046.04,-146.5 1035.74,-148.97 1045.33,-153.47 1046.04,-146.5"/>
</a>
</g>
</g>
<!-- Node16&#45;&gt;Node2 -->
<g id="edge17_Node000002_Node000016" class="edge">
<title>Node16&#45;&gt;Node2</title>
<g id="a_edge17_Node000002_Node000016"><a xlink:title=" ">
<path fill="none" stroke="#9a32cd" stroke-dasharray="5,2" d="M617.47,-327.9C659.32,-324.09 712.01,-318.17 758.5,-309.62 819.46,-298.42 835.6,-296.74 893.5,-274.62 976.09,-243.07 1067.74,-189.64 1104.17,-167.6"/>
<polygon fill="#9a32cd" stroke="#9a32cd" points="617.41,-324.4 607.75,-328.77 618.03,-331.37 617.41,-324.4"/>
</a>
</g>
<text text-anchor="middle" x="835" y="-307.38" font-family="Helvetica,sans-Serif" font-size="10.00" fill="grey"> m_pendingMpNotifications</text>
</g>
<!-- Node17&#45;&gt;Node1 -->
<g id="edge19_Node000001_Node000017" class="edge">
<title>Node17&#45;&gt;Node1</title>
<g id="a_edge19_Node000001_Node000017"><a xlink:title=" ">
<path fill="none" stroke="#63b8ff" d="M744.69,-19.18C852.3,-22.37 1097.32,-29.63 1208.66,-32.94"/>
<polygon fill="#63b8ff" stroke="#63b8ff" points="745.1,-15.69 735,-18.89 744.89,-22.69 745.1,-15.69"/>
</a>
</g>
</g>
<!-- Node18 -->
<g id="Node000018" class="node">
<title>Node18</title>
<g id="a_Node000018"><a xlink:href="class_cpl_1_1_itc_1_1_post_api.html" target="_top" xlink:title="This abstract class represents the interface used to send messages to a mailbox.">
<polygon fill="white" stroke="#666666" points="416.38,-19.25 331.38,-19.25 331.38,0 416.38,0 416.38,-19.25"/>
<text text-anchor="middle" x="373.88" y="-5.75" font-family="Helvetica,sans-Serif" font-size="10.00">Cpl::Itc::PostApi</text>
</a>
</g>
</g>
<!-- Node18&#45;&gt;Node17 -->
<g id="edge20_Node000017_Node000018" class="edge">
<title>Node18&#45;&gt;Node17</title>
<g id="a_edge20_Node000017_Node000018"><a xlink:title=" ">
<path fill="none" stroke="#63b8ff" d="M427.92,-10.97C490.31,-12.55 592.54,-15.15 649.2,-16.58"/>
<polygon fill="#63b8ff" stroke="#63b8ff" points="428.35,-7.48 418.27,-10.73 428.18,-14.48 428.35,-7.48"/>
</a>
</g>
</g>
<!-- Node19 -->
<g id="Node000019" class="node">
<title>Node19</title>
<g id="a_Node000019"><a xlink:href="class_cpl_1_1_container_1_1_s_list.html" target="_top" xlink:title=" ">
<polygon fill="white" stroke="#666666" points="425.75,-67.88 322,-67.88 322,-37.38 425.75,-37.38 425.75,-67.88"/>
<text text-anchor="start" x="330" y="-54.38" font-family="Helvetica,sans-Serif" font-size="10.00">Cpl::Container::SList</text>
<text text-anchor="middle" x="373.88" y="-43.12" font-family="Helvetica,sans-Serif" font-size="10.00">&lt; Message &gt;</text>
</a>
</g>
</g>
<!-- Node19&#45;&gt;Node17 -->
<g id="edge21_Node000017_Node000019" class="edge">
<title>Node19&#45;&gt;Node17</title>
<g id="a_edge21_Node000017_Node000019"><a xlink:title=" ">
<path fill="none" stroke="#63b8ff" d="M437.28,-46.59C483.82,-41.99 548.93,-35.31 606,-28.62 620.06,-26.98 635.43,-25.02 649.14,-23.21"/>
<polygon fill="#63b8ff" stroke="#63b8ff" points="436.98,-43.11 427.37,-47.57 437.67,-50.07 436.98,-43.11"/>
</a>
</g>
</g>
<!-- Node20 -->
<g id="Node000020" class="node">
<title>Node20</title>
<g id="a_Node000020"><a xlink:href="class_cpl_1_1_container_1_1_s_list.html" target="_top" xlink:title="This template class implements a singly linked list which maintains the ordering imposed on it by the...">
<polygon fill="white" stroke="#666666" points="103.75,-67.88 0,-67.88 0,-37.38 103.75,-37.38 103.75,-67.88"/>
<text text-anchor="start" x="8" y="-54.38" font-family="Helvetica,sans-Serif" font-size="10.00">Cpl::Container::SList</text>
<text text-anchor="middle" x="51.88" y="-43.12" font-family="Helvetica,sans-Serif" font-size="10.00">&lt; ITEM &gt;</text>
</a>
</g>
</g>
<!-- Node20&#45;&gt;Node19 -->
<g id="edge22_Node000019_Node000020" class="edge">
<title>Node20&#45;&gt;Node19</title>
<g id="a_edge22_Node000019_Node000020"><a xlink:title=" ">
<path fill="none" stroke="orange" stroke-dasharray="5,2" d="M115.19,-52.62C175.43,-52.62 265.59,-52.62 321.73,-52.62"/>
<polygon fill="orange" stroke="orange" points="115.45,-49.13 105.45,-52.63 115.45,-56.13 115.45,-49.13"/>
</a>
</g>
<text text-anchor="middle" x="197.5" y="-54.38" font-family="Helvetica,sans-Serif" font-size="10.00" fill="grey"> &lt; Message &gt;</text>
</g>
</g>
</svg>
