<?xml version="1.0" encoding="UTF-8" standalone="no"?>
<!DOCTYPE svg PUBLIC "-//W3C//DTD SVG 1.1//EN"
 "http://www.w3.org/Graphics/SVG/1.1/DTD/svg11.dtd">
<!-- Generated by graphviz version 9.0.0 (20230911.1827)
 -->
<!-- Title: Cpl::Io::Tcp::AsyncListener::Client Pages: 1 -->
<svg width="262pt" height="330pt"
 viewBox="0.00 0.00 261.88 330.00" xmlns="http://www.w3.org/2000/svg" xmlns:xlink="http://www.w3.org/1999/xlink">
<g id="graph0" class="graph" transform="scale(1 1) rotate(0) translate(4 326)">
<title>Cpl::Io::Tcp::AsyncListener::Client</title>
<!-- Node1 -->
<g id="Node000001" class="node">
<title>Node1</title>
<g id="a_Node000001"><a xlink:title="This class defines the callback mechanism used for accepting incoming TCP connections.">
<polygon fill="#999999" stroke="#666666" points="244.38,-30.5 113.62,-30.5 113.62,0 244.38,0 244.38,-30.5"/>
<text text-anchor="start" x="121.62" y="-17" font-family="Helvetica,sans-Serif" font-size="10.00">Cpl::Io::Tcp::AsyncListener</text>
<text text-anchor="middle" x="179" y="-5.75" font-family="Helvetica,sans-Serif" font-size="10.00">::Client</text>
</a>
</g>
</g>
<!-- Node2 -->
<g id="Node000002" class="node">
<title>Node2</title>
<g id="a_Node000002"><a xlink:href="class_cpl_1_1_io_1_1_tcp_1_1_input_output.html" target="_top" xlink:title="This concrete class defines a platform independent implementation of an InputOutput stream used by th...">
<polygon fill="white" stroke="#666666" points="238.75,-86.75 119.25,-86.75 119.25,-67.5 238.75,-67.5 238.75,-86.75"/>
<text text-anchor="middle" x="179" y="-73.25" font-family="Helvetica,sans-Serif" font-size="10.00">Cpl::Io::Tcp::InputOutput</text>
</a>
</g>
</g>
<!-- Node2&#45;&gt;Node1 -->
<g id="edge1_Node000001_Node000002" class="edge">
<title>Node2&#45;&gt;Node1</title>
<g id="a_edge1_Node000001_Node000002"><a xlink:title=" ">
<path fill="none" stroke="#63b8ff" d="M179,-55.69C179,-47.43 179,-38.09 179,-30.57"/>
<polygon fill="#63b8ff" stroke="#63b8ff" points="175.5,-55.52 179,-65.52 182.5,-55.52 175.5,-55.52"/>
</a>
</g>
</g>
<!-- Node3 -->
<g id="Node000003" class="node">
<title>Node3</title>
<g id="a_Node000003"><a xlink:href="class_cpl_1_1_io_1_1_input_output.html" target="_top" xlink:title="This abstract class defines a interface for operating on an input&#45;output stream (example of a stream ...">
<polygon fill="white" stroke="#666666" points="144.25,-153.25 45.75,-153.25 45.75,-134 144.25,-134 144.25,-153.25"/>
<text text-anchor="middle" x="95" y="-139.75" font-family="Helvetica,sans-Serif" font-size="10.00">Cpl::Io::InputOutput</text>
</a>
</g>
</g>
<!-- Node3&#45;&gt;Node2 -->
<g id="edge2_Node000002_Node000003" class="edge">
<title>Node3&#45;&gt;Node2</title>
<g id="a_edge2_Node000002_Node000003"><a xlink:title=" ">
<path fill="none" stroke="#63b8ff" d="M115.43,-126.93C131.64,-114.49 153.73,-97.53 167.15,-87.23"/>
<polygon fill="#63b8ff" stroke="#63b8ff" points="113.68,-123.87 107.88,-132.73 117.94,-129.42 113.68,-123.87"/>
</a>
</g>
</g>
<!-- Node4 -->
<g id="Node000004" class="node">
<title>Node4</title>
<g id="a_Node000004"><a xlink:href="class_cpl_1_1_io_1_1_input.html" target="_top" xlink:title="This partially abstract class defines a interface for operating on an input stream (example of a stre...">
<polygon fill="white" stroke="#666666" points="84.62,-209.5 15.38,-209.5 15.38,-190.25 84.62,-190.25 84.62,-209.5"/>
<text text-anchor="middle" x="50" y="-196" font-family="Helvetica,sans-Serif" font-size="10.00">Cpl::Io::Input</text>
</a>
</g>
</g>
<!-- Node4&#45;&gt;Node3 -->
<g id="edge3_Node000003_Node000004" class="edge">
<title>Node4&#45;&gt;Node3</title>
<g id="a_edge3_Node000003_Node000004"><a xlink:title=" ">
<path fill="none" stroke="#63b8ff" d="M64.77,-181.07C72.46,-171.8 81.52,-160.87 87.71,-153.42"/>
<polygon fill="#63b8ff" stroke="#63b8ff" points="62.09,-178.82 58.4,-188.75 67.48,-183.29 62.09,-178.82"/>
</a>
</g>
</g>
<!-- Node5 -->
<g id="Node000005" class="node">
<title>Node5</title>
<g id="a_Node000005"><a xlink:href="class_cpl_1_1_io_1_1_close.html" target="_top" xlink:title="This abstract class defines a close operation that is intended to be used Input and Output streams/fi...">
<polygon fill="white" stroke="#666666" points="86.12,-265.75 13.88,-265.75 13.88,-246.5 86.12,-246.5 86.12,-265.75"/>
<text text-anchor="middle" x="50" y="-252.25" font-family="Helvetica,sans-Serif" font-size="10.00">Cpl::Io::Close</text>
</a>
</g>
</g>
<!-- Node5&#45;&gt;Node4 -->
<g id="edge4_Node000004_Node000005" class="edge">
<title>Node5&#45;&gt;Node4</title>
<g id="a_edge4_Node000004_Node000005"><a xlink:title=" ">
<path fill="none" stroke="#63b8ff" d="M50,-234.94C50,-226.23 50,-216.49 50,-209.67"/>
<polygon fill="#63b8ff" stroke="#63b8ff" points="46.5,-234.65 50,-244.65 53.5,-234.65 46.5,-234.65"/>
</a>
</g>
</g>
<!-- Node8 -->
<g id="Node000008" class="node">
<title>Node8</title>
<g id="a_Node000008"><a xlink:href="class_cpl_1_1_io_1_1_output.html" target="_top" xlink:title="This partially abstract class defines a interface for operating on an output stream (example of a str...">
<polygon fill="white" stroke="#666666" points="179.38,-209.5 102.62,-209.5 102.62,-190.25 179.38,-190.25 179.38,-209.5"/>
<text text-anchor="middle" x="141" y="-196" font-family="Helvetica,sans-Serif" font-size="10.00">Cpl::Io::Output</text>
</a>
</g>
</g>
<!-- Node5&#45;&gt;Node8 -->
<g id="edge8_Node000008_Node000005" class="edge">
<title>Node5&#45;&gt;Node8</title>
<g id="a_edge8_Node000008_Node000005"><a xlink:title=" ">
<path fill="none" stroke="#63b8ff" d="M74.53,-240.5C90.93,-230.72 111.98,-218.18 125.95,-209.85"/>
<polygon fill="#63b8ff" stroke="#63b8ff" points="73.12,-237.26 66.33,-245.39 76.71,-243.28 73.12,-237.26"/>
</a>
</g>
</g>
<!-- Node6 -->
<g id="Node000006" class="node">
<title>Node6</title>
<g id="a_Node000006"><a xlink:href="class_cpl_1_1_container_1_1_item.html" target="_top" xlink:title="This class is used by the Container classes to implement a various types of singly linked containers.">
<polygon fill="white" stroke="#666666" points="100,-322 0,-322 0,-302.75 100,-302.75 100,-322"/>
<text text-anchor="middle" x="50" y="-308.5" font-family="Helvetica,sans-Serif" font-size="10.00">Cpl::Container::Item</text>
</a>
</g>
</g>
<!-- Node6&#45;&gt;Node5 -->
<g id="edge5_Node000005_Node000006" class="edge">
<title>Node6&#45;&gt;Node5</title>
<g id="a_edge5_Node000005_Node000006"><a xlink:title=" ">
<path fill="none" stroke="#63b8ff" d="M50,-291.19C50,-282.48 50,-272.74 50,-265.92"/>
<polygon fill="#63b8ff" stroke="#63b8ff" points="46.5,-290.9 50,-300.9 53.5,-290.9 46.5,-290.9"/>
</a>
</g>
</g>
<!-- Node7 -->
<g id="Node000007" class="node">
<title>Node7</title>
<g id="a_Node000007"><a xlink:href="class_cpl_1_1_io_1_1_is_eos.html" target="_top" xlink:title="This abstract class defines a isEos() operation that is intended to be used Input and Output streams.">
<polygon fill="white" stroke="#666666" points="176.12,-265.75 103.88,-265.75 103.88,-246.5 176.12,-246.5 176.12,-265.75"/>
<text text-anchor="middle" x="140" y="-252.25" font-family="Helvetica,sans-Serif" font-size="10.00">Cpl::Io::IsEos</text>
</a>
</g>
</g>
<!-- Node7&#45;&gt;Node4 -->
<g id="edge6_Node000004_Node000007" class="edge">
<title>Node7&#45;&gt;Node4</title>
<g id="a_edge6_Node000004_Node000007"><a xlink:title=" ">
<path fill="none" stroke="#63b8ff" d="M115.28,-240.22C99.13,-230.49 78.57,-218.1 64.88,-209.85"/>
<polygon fill="#63b8ff" stroke="#63b8ff" points="113.47,-243.22 123.84,-245.39 117.08,-237.23 113.47,-243.22"/>
</a>
</g>
</g>
<!-- Node7&#45;&gt;Node8 -->
<g id="edge9_Node000008_Node000007" class="edge">
<title>Node7&#45;&gt;Node8</title>
<g id="a_edge9_Node000008_Node000007"><a xlink:title=" ">
<path fill="none" stroke="#63b8ff" d="M140.37,-234.94C140.53,-226.23 140.71,-216.49 140.84,-209.67"/>
<polygon fill="#63b8ff" stroke="#63b8ff" points="136.88,-234.59 140.19,-244.65 143.88,-234.72 136.88,-234.59"/>
</a>
</g>
</g>
<!-- Node8&#45;&gt;Node3 -->
<g id="edge7_Node000003_Node000008" class="edge">
<title>Node8&#45;&gt;Node3</title>
<g id="a_edge7_Node000003_Node000008"><a xlink:title=" ">
<path fill="none" stroke="#63b8ff" d="M126.15,-181.36C118.23,-172.03 108.84,-160.95 102.45,-153.42"/>
<polygon fill="#63b8ff" stroke="#63b8ff" points="123.29,-183.4 132.43,-188.76 128.63,-178.87 123.29,-183.4"/>
</a>
</g>
</g>
<!-- Node9 -->
<g id="Node000009" class="node">
<title>Node9</title>
<g id="a_Node000009"><a xlink:href="union_cpl_1_1_io_1_1_descriptor.html" target="_top" xlink:title="This union defines a &#39;IO descriptor&#39; in terms of a an integer and/or a void*.">
<polygon fill="white" stroke="#666666" points="253.88,-153.25 162.12,-153.25 162.12,-134 253.88,-134 253.88,-153.25"/>
<text text-anchor="middle" x="208" y="-139.75" font-family="Helvetica,sans-Serif" font-size="10.00">Cpl::Io::Descriptor</text>
</a>
</g>
</g>
<!-- Node9&#45;&gt;Node2 -->
<g id="edge10_Node000002_Node000009" class="edge">
<title>Node9&#45;&gt;Node2</title>
<g id="a_edge10_Node000002_Node000009"><a xlink:title=" ">
<path fill="none" stroke="#9a32cd" stroke-dasharray="5,2" d="M199.3,-123.27C193.89,-111.23 187.18,-96.33 183,-87.02"/>
<polygon fill="#9a32cd" stroke="#9a32cd" points="196.05,-124.59 203.35,-132.28 202.44,-121.72 196.05,-124.59"/>
</a>
</g>
<text text-anchor="middle" x="207" y="-106.5" font-family="Helvetica,sans-Serif" font-size="10.00" fill="grey"> m_fd</text>
</g>
</g>
</svg>
