<?xml version="1.0" encoding="UTF-8" standalone="no"?>
<!DOCTYPE svg PUBLIC "-//W3C//DTD SVG 1.1//EN"
 "http://www.w3.org/Graphics/SVG/1.1/DTD/svg11.dtd">
<!-- Generated by graphviz version 9.0.0 (20230911.1827)
 -->
<!-- Title: Cpl::TShell::Processor Pages: 1 -->
<svg width="146pt" height="193pt"
 viewBox="0.00 0.00 146.25 193.00" xmlns="http://www.w3.org/2000/svg" xmlns:xlink="http://www.w3.org/1999/xlink">
<g id="graph0" class="graph" transform="scale(1 1) rotate(0) translate(4 189)">
<title>Cpl::TShell::Processor</title>
<!-- Node1 -->
<g id="Node000001" class="node">
<title>Node1</title>
<g id="a_Node000001"><a xlink:title="This concrete class provides the implementation of Command Processor for a TShell engine.">
<polygon fill="#999999" stroke="#666666" points="124.75,-74.5 13.5,-74.5 13.5,-55.25 124.75,-55.25 124.75,-74.5"/>
<text text-anchor="middle" x="69.12" y="-61" font-family="Helvetica,sans-Serif" font-size="10.00">Cpl::TShell::Processor</text>
</a>
</g>
</g>
<!-- Node4 -->
<g id="Node000004" class="node">
<title>Node4</title>
<g id="a_Node000004"><a xlink:href="class_cpl_1_1_t_shell_1_1_polled_processor.html" target="_top" xlink:title="This concrete class provides a non&#45;blocking implementation of Command PolledProcessor for a TShell en...">
<polygon fill="white" stroke="#666666" points="138.25,-19.25 0,-19.25 0,0 138.25,0 138.25,-19.25"/>
<text text-anchor="middle" x="69.12" y="-5.75" font-family="Helvetica,sans-Serif" font-size="10.00">Cpl::TShell::PolledProcessor</text>
</a>
</g>
</g>
<!-- Node1&#45;&gt;Node4 -->
<g id="edge3_Node000001_Node000004" class="edge">
<title>Node1&#45;&gt;Node4</title>
<g id="a_edge3_Node000001_Node000004"><a xlink:title=" ">
<path fill="none" stroke="#63b8ff" d="M69.12,-43.63C69.12,-35.34 69.12,-26.17 69.12,-19.61"/>
<polygon fill="#63b8ff" stroke="#63b8ff" points="65.63,-43.57 69.13,-53.57 72.63,-43.57 65.63,-43.57"/>
</a>
</g>
</g>
<!-- Node2 -->
<g id="Node000002" class="node">
<title>Node2</title>
<g id="a_Node000002"><a xlink:href="class_cpl_1_1_t_shell_1_1_context__.html" target="_top" xlink:title="This Private Namespace class defines a &quot;Context&quot; for a TShell command.">
<polygon fill="white" stroke="#666666" points="121.75,-129.75 16.5,-129.75 16.5,-110.5 121.75,-110.5 121.75,-129.75"/>
<text text-anchor="middle" x="69.12" y="-116.25" font-family="Helvetica,sans-Serif" font-size="10.00">Cpl::TShell::Context_</text>
</a>
</g>
</g>
<!-- Node2&#45;&gt;Node1 -->
<g id="edge1_Node000001_Node000002" class="edge">
<title>Node2&#45;&gt;Node1</title>
<g id="a_edge1_Node000001_Node000002"><a xlink:title=" ">
<path fill="none" stroke="#63b8ff" d="M69.12,-98.88C69.12,-90.59 69.12,-81.42 69.12,-74.86"/>
<polygon fill="#63b8ff" stroke="#63b8ff" points="65.63,-98.82 69.13,-108.82 72.63,-98.82 65.63,-98.82"/>
</a>
</g>
</g>
<!-- Node3 -->
<g id="Node000003" class="node">
<title>Node3</title>
<g id="a_Node000003"><a xlink:href="class_cpl_1_1_t_shell_1_1_processor_api.html" target="_top" xlink:title="This class defines the interface a TShell Command Processor.">
<polygon fill="white" stroke="#666666" points="131.88,-185 6.38,-185 6.38,-165.75 131.88,-165.75 131.88,-185"/>
<text text-anchor="middle" x="69.12" y="-171.5" font-family="Helvetica,sans-Serif" font-size="10.00">Cpl::TShell::ProcessorApi</text>
</a>
</g>
</g>
<!-- Node3&#45;&gt;Node2 -->
<g id="edge2_Node000002_Node000003" class="edge">
<title>Node3&#45;&gt;Node2</title>
<g id="a_edge2_Node000002_Node000003"><a xlink:title=" ">
<path fill="none" stroke="#63b8ff" d="M69.12,-154.13C69.12,-145.84 69.12,-136.67 69.12,-130.11"/>
<polygon fill="#63b8ff" stroke="#63b8ff" points="65.63,-154.07 69.13,-164.07 72.63,-154.07 65.63,-154.07"/>
</a>
</g>
</g>
</g>
</svg>
