<?xml version="1.0" encoding="UTF-8" standalone="no"?>
<!DOCTYPE svg PUBLIC "-//W3C//DTD SVG 1.1//EN"
 "http://www.w3.org/Graphics/SVG/1.1/DTD/svg11.dtd">
<!-- Generated by graphviz version 9.0.0 (20230911.1827)
 -->
<!-- Title: Cpl::Text::Frame::StreamEncoder Pages: 1 -->
<svg width="319pt" height="218pt"
 viewBox="0.00 0.00 318.50 217.50" xmlns="http://www.w3.org/2000/svg" xmlns:xlink="http://www.w3.org/1999/xlink">
<g id="graph0" class="graph" transform="scale(1 1) rotate(0) translate(4 213.5)">
<title>Cpl::Text::Frame::StreamEncoder</title>
<!-- Node1 -->
<g id="Node000001" class="node">
<title>Node1</title>
<g id="a_Node000001"><a xlink:title="This concrete class implements the Encoder API where the Output destination is a Cpl::Io::Output stre...">
<polygon fill="#999999" stroke="#666666" points="186.25,-30.5 64.5,-30.5 64.5,0 186.25,0 186.25,-30.5"/>
<text text-anchor="start" x="72.5" y="-17" font-family="Helvetica,sans-Serif" font-size="10.00">Cpl::Text::Frame::Stream</text>
<text text-anchor="middle" x="125.38" y="-5.75" font-family="Helvetica,sans-Serif" font-size="10.00">Encoder</text>
</a>
</g>
</g>
<!-- Node2 -->
<g id="Node000002" class="node">
<title>Node2</title>
<g id="a_Node000002"><a xlink:href="class_cpl_1_1_text_1_1_frame_1_1_encoder__.html" target="_top" xlink:title="This Private Namespace partially concrete class implements common/helper method for supporting the En...">
<polygon fill="white" stroke="#666666" points="130.75,-97 0,-97 0,-77.75 130.75,-77.75 130.75,-97"/>
<text text-anchor="middle" x="65.38" y="-83.5" font-family="Helvetica,sans-Serif" font-size="10.00">Cpl::Text::Frame::Encoder_</text>
</a>
</g>
</g>
<!-- Node2&#45;&gt;Node1 -->
<g id="edge1_Node000001_Node000002" class="edge">
<title>Node2&#45;&gt;Node1</title>
<g id="a_edge1_Node000001_Node000002"><a xlink:title=" ">
<path fill="none" stroke="#63b8ff" d="M80.23,-69.02C90.25,-57.3 103.33,-42.02 112.83,-30.92"/>
<polygon fill="#63b8ff" stroke="#63b8ff" points="77.8,-66.47 73.96,-76.34 83.12,-71.02 77.8,-66.47"/>
</a>
</g>
</g>
<!-- Node3 -->
<g id="Node000003" class="node">
<title>Node3</title>
<g id="a_Node000003"><a xlink:href="class_cpl_1_1_text_1_1_frame_1_1_encoder.html" target="_top" xlink:title="This class defines an interface for &#39;transmitted&#39; (encoding) a frame.">
<polygon fill="white" stroke="#666666" points="128.12,-153.25 2.62,-153.25 2.62,-134 128.12,-134 128.12,-153.25"/>
<text text-anchor="middle" x="65.38" y="-139.75" font-family="Helvetica,sans-Serif" font-size="10.00">Cpl::Text::Frame::Encoder</text>
</a>
</g>
</g>
<!-- Node3&#45;&gt;Node2 -->
<g id="edge2_Node000002_Node000003" class="edge">
<title>Node3&#45;&gt;Node2</title>
<g id="a_edge2_Node000002_Node000003"><a xlink:title=" ">
<path fill="none" stroke="#63b8ff" d="M65.38,-122.44C65.38,-113.73 65.38,-103.99 65.38,-97.17"/>
<polygon fill="#63b8ff" stroke="#63b8ff" points="61.88,-122.15 65.38,-132.15 68.88,-122.15 61.88,-122.15"/>
</a>
</g>
</g>
<!-- Node4 -->
<g id="Node000004" class="node">
<title>Node4</title>
<g id="a_Node000004"><a xlink:href="class_cpl_1_1_io_1_1_output.html" target="_top" xlink:title="This partially abstract class defines a interface for operating on an output stream (example of a str...">
<polygon fill="white" stroke="#666666" points="225.75,-97 149,-97 149,-77.75 225.75,-77.75 225.75,-97"/>
<text text-anchor="middle" x="187.38" y="-83.5" font-family="Helvetica,sans-Serif" font-size="10.00">Cpl::Io::Output</text>
</a>
</g>
</g>
<!-- Node4&#45;&gt;Node1 -->
<g id="edge3_Node000001_Node000004" class="edge">
<title>Node4&#45;&gt;Node1</title>
<g id="a_edge3_Node000001_Node000004"><a xlink:title=" ">
<path fill="none" stroke="#9a32cd" stroke-dasharray="5,2" d="M172.03,-69.02C161.67,-57.3 148.16,-42.02 138.34,-30.92"/>
<polygon fill="#9a32cd" stroke="#9a32cd" points="169.27,-71.19 178.52,-76.36 174.52,-66.55 169.27,-71.19"/>
</a>
</g>
<text text-anchor="middle" x="185.38" y="-50.25" font-family="Helvetica,sans-Serif" font-size="10.00" fill="grey"> m_dstPtr</text>
</g>
<!-- Node5 -->
<g id="Node000005" class="node">
<title>Node5</title>
<g id="a_Node000005"><a xlink:href="class_cpl_1_1_io_1_1_close.html" target="_top" xlink:title="This abstract class defines a close operation that is intended to be used Input and Output streams/fi...">
<polygon fill="white" stroke="#666666" points="220.5,-153.25 148.25,-153.25 148.25,-134 220.5,-134 220.5,-153.25"/>
<text text-anchor="middle" x="184.38" y="-139.75" font-family="Helvetica,sans-Serif" font-size="10.00">Cpl::Io::Close</text>
</a>
</g>
</g>
<!-- Node5&#45;&gt;Node4 -->
<g id="edge4_Node000004_Node000005" class="edge">
<title>Node5&#45;&gt;Node4</title>
<g id="a_edge4_Node000004_Node000005"><a xlink:title=" ">
<path fill="none" stroke="#63b8ff" d="M185.49,-122.44C185.97,-113.73 186.51,-103.99 186.89,-97.17"/>
<polygon fill="#63b8ff" stroke="#63b8ff" points="182.01,-121.98 184.95,-132.16 189,-122.36 182.01,-121.98"/>
</a>
</g>
</g>
<!-- Node6 -->
<g id="Node000006" class="node">
<title>Node6</title>
<g id="a_Node000006"><a xlink:href="class_cpl_1_1_container_1_1_item.html" target="_top" xlink:title="This class is used by the Container classes to implement a various types of singly linked containers.">
<polygon fill="white" stroke="#666666" points="234.38,-209.5 134.38,-209.5 134.38,-190.25 234.38,-190.25 234.38,-209.5"/>
<text text-anchor="middle" x="184.38" y="-196" font-family="Helvetica,sans-Serif" font-size="10.00">Cpl::Container::Item</text>
</a>
</g>
</g>
<!-- Node6&#45;&gt;Node5 -->
<g id="edge5_Node000005_Node000006" class="edge">
<title>Node6&#45;&gt;Node5</title>
<g id="a_edge5_Node000005_Node000006"><a xlink:title=" ">
<path fill="none" stroke="#63b8ff" d="M184.38,-178.69C184.38,-169.98 184.38,-160.24 184.38,-153.42"/>
<polygon fill="#63b8ff" stroke="#63b8ff" points="180.88,-178.4 184.38,-188.4 187.88,-178.4 180.88,-178.4"/>
</a>
</g>
</g>
<!-- Node7 -->
<g id="Node000007" class="node">
<title>Node7</title>
<g id="a_Node000007"><a xlink:href="class_cpl_1_1_io_1_1_is_eos.html" target="_top" xlink:title="This abstract class defines a isEos() operation that is intended to be used Input and Output streams.">
<polygon fill="white" stroke="#666666" points="310.5,-153.25 238.25,-153.25 238.25,-134 310.5,-134 310.5,-153.25"/>
<text text-anchor="middle" x="274.38" y="-139.75" font-family="Helvetica,sans-Serif" font-size="10.00">Cpl::Io::IsEos</text>
</a>
</g>
</g>
<!-- Node7&#45;&gt;Node4 -->
<g id="edge6_Node000004_Node000007" class="edge">
<title>Node7&#45;&gt;Node4</title>
<g id="a_edge6_Node000004_Node000007"><a xlink:title=" ">
<path fill="none" stroke="#63b8ff" d="M250.48,-127.72C234.86,-117.99 214.99,-105.6 201.76,-97.35"/>
<polygon fill="#63b8ff" stroke="#63b8ff" points="248.39,-130.54 258.72,-132.87 252.09,-124.6 248.39,-130.54"/>
</a>
</g>
</g>
</g>
</svg>
