<?xml version="1.0" encoding="UTF-8" standalone="no"?>
<!DOCTYPE svg PUBLIC "-//W3C//DTD SVG 1.1//EN"
 "http://www.w3.org/Graphics/SVG/1.1/DTD/svg11.dtd">
<!-- Generated by graphviz version 2.43.0 (0)
 -->
<!-- Title: Cpl::Container::RingBufferMT&lt; ITEM &gt; Pages: 1 -->
<svg width="1067pt" height="441pt"
 viewBox="0.00 0.00 1067.00 441.42" xmlns="http://www.w3.org/2000/svg" xmlns:xlink="http://www.w3.org/1999/xlink">
<g id="graph0" class="graph" transform="scale(1 1) rotate(0) translate(4 437.42)">
<title>Cpl::Container::RingBufferMT&lt; ITEM &gt;</title>
<!-- Node1 -->
<g id="Node000001" class="node">
<title>Node1</title>
<g id="a_Node000001"><a xlink:title="This template class implements a THREAD SAFE Ring Buffer.">
<polygon fill="#999999" stroke="#666666" points="323,-217 180,-217 180,-187 323,-187 323,-217"/>
<text text-anchor="start" x="188" y="-205" font-family="Helvetica,sans-Serif" font-size="10.00">Cpl::Container::RingBuffer</text>
<text text-anchor="middle" x="251.5" y="-194" font-family="Helvetica,sans-Serif" font-size="10.00">MT&lt; ITEM &gt;</text>
</a>
</g>
</g>
<!-- Node3 -->
<g id="Node000003" class="node">
<title>Node3</title>
<g id="a_Node000003"><a xlink:href="class_cpl_1_1_container_1_1_ring_buffer_m_p.html" target="_top" xlink:title=" ">
<polygon fill="white" stroke="#666666" points="1052.5,-360 885.5,-360 885.5,-330 1052.5,-330 1052.5,-360"/>
<text text-anchor="start" x="893.5" y="-348" font-family="Helvetica,sans-Serif" font-size="10.00">Cpl::Container::RingBuffer</text>
<text text-anchor="middle" x="969" y="-337" font-family="Helvetica,sans-Serif" font-size="10.00">MP&lt; AjaxScreenMgrEvent_T &gt;</text>
</a>
</g>
</g>
<!-- Node1&#45;&gt;Node3 -->
<g id="edge2_Node000001_Node000003" class="edge">
<title>Node1&#45;&gt;Node3</title>
<g id="a_edge2_Node000001_Node000003"><a xlink:title=" ">
<path fill="none" stroke="#63b8ff" d="M270.7,-224.85C287.11,-243.96 312.93,-270.49 341,-286 488.76,-367.63 541.51,-358.95 709,-380 776.03,-388.43 794.29,-390.63 861,-380 885.13,-376.15 911.2,-367.72 931.57,-360.09"/>
<polygon fill="#63b8ff" stroke="#63b8ff" points="273.37,-222.59 264.26,-217.18 268,-227.09 273.37,-222.59"/>
</a>
</g>
</g>
<!-- Node4 -->
<g id="Node000004" class="node">
<title>Node4</title>
<g id="a_Node000004"><a xlink:href="class_cpl_1_1_container_1_1_ring_buffer_m_p.html" target="_top" xlink:title=" ">
<polygon fill="white" stroke="#666666" points="1040.5,-427 897.5,-427 897.5,-397 1040.5,-397 1040.5,-427"/>
<text text-anchor="start" x="905.5" y="-415" font-family="Helvetica,sans-Serif" font-size="10.00">Cpl::Container::RingBuffer</text>
<text text-anchor="middle" x="969" y="-404" font-family="Helvetica,sans-Serif" font-size="10.00">MP&lt; AjaxUiEvent_T &gt;</text>
</a>
</g>
</g>
<!-- Node1&#45;&gt;Node4 -->
<g id="edge3_Node000001_Node000004" class="edge">
<title>Node1&#45;&gt;Node4</title>
<g id="a_edge3_Node000001_Node000004"><a xlink:title=" ">
<path fill="none" stroke="#63b8ff" d="M263.09,-226.77C276.83,-255.98 303.57,-303.99 341,-331 509.67,-452.71 772.19,-438.61 897.2,-423.08"/>
<polygon fill="#63b8ff" stroke="#63b8ff" points="266.1,-224.93 258.77,-217.28 259.73,-227.83 266.1,-224.93"/>
</a>
</g>
</g>
<!-- Node5 -->
<g id="Node000005" class="node">
<title>Node5</title>
<g id="a_Node000005"><a xlink:href="class_cpl_1_1_container_1_1_ring_buffer_m_p.html" target="_top" xlink:title=" ">
<polygon fill="white" stroke="#666666" points="1059,-237 879,-237 879,-207 1059,-207 1059,-237"/>
<text text-anchor="start" x="887" y="-225" font-family="Helvetica,sans-Serif" font-size="10.00">Cpl::Container::RingBuffer</text>
<text text-anchor="middle" x="969" y="-214" font-family="Helvetica,sans-Serif" font-size="10.00">MP&lt; Cpl::Logging::EntryData_T &gt;</text>
</a>
</g>
</g>
<!-- Node1&#45;&gt;Node5 -->
<g id="edge4_Node000001_Node000005" class="edge">
<title>Node1&#45;&gt;Node5</title>
<g id="a_edge4_Node000001_Node000005"><a xlink:title=" ">
<path fill="none" stroke="#63b8ff" d="M333.5,-204.26C450.11,-207.52 672.06,-213.71 861,-219 866.85,-219.16 872.88,-219.33 878.96,-219.5"/>
<polygon fill="#63b8ff" stroke="#63b8ff" points="333.33,-200.75 323.23,-203.97 333.13,-207.75 333.33,-200.75"/>
</a>
</g>
</g>
<!-- Node6 -->
<g id="Node000006" class="node">
<title>Node6</title>
<g id="a_Node000006"><a xlink:href="class_cpl_1_1_container_1_1_ring_buffer_m_p.html" target="_top" xlink:title=" ">
<polygon fill="white" stroke="#666666" points="1040.5,-303 897.5,-303 897.5,-273 1040.5,-273 1040.5,-303"/>
<text text-anchor="start" x="905.5" y="-291" font-family="Helvetica,sans-Serif" font-size="10.00">Cpl::Container::RingBuffer</text>
<text text-anchor="middle" x="969" y="-280" font-family="Helvetica,sans-Serif" font-size="10.00">MP&lt; ENTRY &gt;</text>
</a>
</g>
</g>
<!-- Node1&#45;&gt;Node6 -->
<g id="edge5_Node000001_Node000006" class="edge">
<title>Node1&#45;&gt;Node6</title>
<g id="a_edge5_Node000001_Node000006"><a xlink:title=" ">
<path fill="none" stroke="#63b8ff" d="M326.57,-218.82C331.44,-219.64 336.28,-220.38 341,-221 455.71,-236.08 747.79,-223.11 861,-247 887.28,-252.54 915.6,-263.64 936.5,-272.9"/>
<polygon fill="#63b8ff" stroke="#63b8ff" points="327.04,-215.35 316.58,-217.03 325.8,-222.24 327.04,-215.35"/>
</a>
</g>
</g>
<!-- Node7 -->
<g id="Node000007" class="node">
<title>Node7</title>
<g id="a_Node000007"><a xlink:href="class_cpl_1_1_container_1_1_ring_buffer_m_p.html" target="_top" xlink:title="This template class implements a THREAD SAFE Ring Buffer AND it maintains/reports the number of eleme...">
<polygon fill="white" stroke="#666666" points="672.5,-315 529.5,-315 529.5,-285 672.5,-285 672.5,-315"/>
<text text-anchor="start" x="537.5" y="-303" font-family="Helvetica,sans-Serif" font-size="10.00">Cpl::Container::RingBuffer</text>
<text text-anchor="middle" x="601" y="-292" font-family="Helvetica,sans-Serif" font-size="10.00">MP&lt; ITEM &gt;</text>
</a>
</g>
</g>
<!-- Node1&#45;&gt;Node7 -->
<g id="edge6_Node000001_Node000007" class="edge">
<title>Node1&#45;&gt;Node7</title>
<g id="a_edge6_Node000001_Node000007"><a xlink:title=" ">
<path fill="none" stroke="#63b8ff" d="M281.94,-222.89C298.56,-233.74 320.12,-246.3 341,-254 402.38,-276.65 476.16,-288.35 529.25,-294.27"/>
<polygon fill="#63b8ff" stroke="#63b8ff" points="283.51,-219.73 273.25,-217.08 279.62,-225.55 283.51,-219.73"/>
</a>
</g>
</g>
<!-- Node8 -->
<g id="Node000008" class="node">
<title>Node8</title>
<g id="a_Node000008"><a xlink:href="class_cpl_1_1_container_1_1_ring_buffer_m_t.html" target="_top" xlink:title=" ">
<polygon fill="white" stroke="#666666" points="684.5,-174 517.5,-174 517.5,-144 684.5,-144 684.5,-174"/>
<text text-anchor="start" x="525.5" y="-162" font-family="Helvetica,sans-Serif" font-size="10.00">Cpl::Container::RingBuffer</text>
<text text-anchor="middle" x="601" y="-151" font-family="Helvetica,sans-Serif" font-size="10.00">MT&lt; AjaxScreenMgrEvent_T &gt;</text>
</a>
</g>
</g>
<!-- Node1&#45;&gt;Node8 -->
<g id="edge11_Node000001_Node000008" class="edge">
<title>Node1&#45;&gt;Node8</title>
<g id="a_edge11_Node000001_Node000008"><a xlink:title=" ">
<path fill="none" stroke="orange" stroke-dasharray="5,2" d="M308.58,-184.29C319.25,-181.45 330.4,-178.84 341,-177 399.39,-166.84 466.14,-162.36 517.24,-160.42"/>
<polygon fill="orange" stroke="orange" points="307.64,-180.91 298.93,-186.94 309.5,-187.66 307.64,-180.91"/>
</a>
</g>
<text text-anchor="middle" x="417" y="-180" font-family="Helvetica,sans-Serif" font-size="10.00" fill="grey"> &lt; AjaxScreenMgrEvent_T &gt;</text>
</g>
<!-- Node9 -->
<g id="Node000009" class="node">
<title>Node9</title>
<g id="a_Node000009"><a xlink:href="class_cpl_1_1_container_1_1_ring_buffer_m_t.html" target="_top" xlink:title=" ">
<polygon fill="white" stroke="#666666" points="672.5,-126 529.5,-126 529.5,-96 672.5,-96 672.5,-126"/>
<text text-anchor="start" x="537.5" y="-114" font-family="Helvetica,sans-Serif" font-size="10.00">Cpl::Container::RingBuffer</text>
<text text-anchor="middle" x="601" y="-103" font-family="Helvetica,sans-Serif" font-size="10.00">MT&lt; AjaxUiEvent_T &gt;</text>
</a>
</g>
</g>
<!-- Node1&#45;&gt;Node9 -->
<g id="edge12_Node000001_Node000009" class="edge">
<title>Node1&#45;&gt;Node9</title>
<g id="a_edge12_Node000001_Node000009"><a xlink:title=" ">
<path fill="none" stroke="orange" stroke-dasharray="5,2" d="M279.86,-180.8C296.6,-168.94 318.98,-154.96 341,-147 402.26,-124.84 476.22,-116.21 529.4,-112.91"/>
<polygon fill="orange" stroke="orange" points="277.68,-178.06 271.65,-186.77 281.79,-183.72 277.68,-178.06"/>
</a>
</g>
<text text-anchor="middle" x="417" y="-150" font-family="Helvetica,sans-Serif" font-size="10.00" fill="grey"> &lt; AjaxUiEvent_T &gt;</text>
</g>
<!-- Node10 -->
<g id="Node000010" class="node">
<title>Node10</title>
<g id="a_Node000010"><a xlink:href="class_cpl_1_1_container_1_1_ring_buffer_m_t.html" target="_top" xlink:title=" ">
<polygon fill="white" stroke="#666666" points="691,-78 511,-78 511,-48 691,-48 691,-78"/>
<text text-anchor="start" x="519" y="-66" font-family="Helvetica,sans-Serif" font-size="10.00">Cpl::Container::RingBuffer</text>
<text text-anchor="middle" x="601" y="-55" font-family="Helvetica,sans-Serif" font-size="10.00">MT&lt; Cpl::Logging::EntryData_T &gt;</text>
</a>
</g>
</g>
<!-- Node1&#45;&gt;Node10 -->
<g id="edge13_Node000001_Node000010" class="edge">
<title>Node1&#45;&gt;Node10</title>
<g id="a_edge13_Node000001_Node000010"><a xlink:title=" ">
<path fill="none" stroke="orange" stroke-dasharray="5,2" d="M266.49,-177.86C281.64,-154.12 308.1,-118.91 341,-101 392.79,-72.81 458.62,-63.43 510.94,-61.04"/>
<polygon fill="orange" stroke="orange" points="263.34,-176.3 261.07,-186.65 269.3,-179.98 263.34,-176.3"/>
</a>
</g>
<text text-anchor="middle" x="417" y="-104" font-family="Helvetica,sans-Serif" font-size="10.00" fill="grey"> &lt; Cpl::Logging::EntryData_T &gt;</text>
</g>
<!-- Node11 -->
<g id="Node000011" class="node">
<title>Node11</title>
<g id="a_Node000011"><a xlink:href="class_cpl_1_1_container_1_1_ring_buffer_m_t.html" target="_top" xlink:title=" ">
<polygon fill="white" stroke="#666666" points="672.5,-30 529.5,-30 529.5,0 672.5,0 672.5,-30"/>
<text text-anchor="start" x="537.5" y="-18" font-family="Helvetica,sans-Serif" font-size="10.00">Cpl::Container::RingBuffer</text>
<text text-anchor="middle" x="601" y="-7" font-family="Helvetica,sans-Serif" font-size="10.00">MT&lt; ENTRY &gt;</text>
</a>
</g>
</g>
<!-- Node1&#45;&gt;Node11 -->
<g id="edge14_Node000001_Node000011" class="edge">
<title>Node1&#45;&gt;Node11</title>
<g id="a_edge14_Node000001_Node000011"><a xlink:title=" ">
<path fill="none" stroke="orange" stroke-dasharray="5,2" d="M259.32,-176.62C270.23,-141.38 295.19,-78.54 341,-48 396.44,-11.04 473.61,-5.65 529.28,-7.75"/>
<polygon fill="orange" stroke="orange" points="255.85,-176.02 256.38,-186.6 262.57,-178 255.85,-176.02"/>
</a>
</g>
<text text-anchor="middle" x="417" y="-51" font-family="Helvetica,sans-Serif" font-size="10.00" fill="grey"> &lt; ENTRY &gt;</text>
</g>
<!-- Node2 -->
<g id="Node000002" class="node">
<title>Node2</title>
<g id="a_Node000002"><a xlink:href="class_cpl_1_1_container_1_1_ring_buffer.html" target="_top" xlink:title="This template class implements a Ring Buffer.">
<polygon fill="white" stroke="#666666" points="143,-217 0,-217 0,-187 143,-187 143,-217"/>
<text text-anchor="start" x="8" y="-205" font-family="Helvetica,sans-Serif" font-size="10.00">Cpl::Container::RingBuffer</text>
<text text-anchor="middle" x="71.5" y="-194" font-family="Helvetica,sans-Serif" font-size="10.00">&lt; ITEM &gt;</text>
</a>
</g>
</g>
<!-- Node2&#45;&gt;Node1 -->
<g id="edge1_Node000001_Node000002" class="edge">
<title>Node2&#45;&gt;Node1</title>
<g id="a_edge1_Node000001_Node000002"><a xlink:title=" ">
<path fill="none" stroke="#63b8ff" d="M153.15,-202C162.1,-202 171.17,-202 179.98,-202"/>
<polygon fill="#63b8ff" stroke="#63b8ff" points="153.11,-198.5 143.11,-202 153.11,-205.5 153.11,-198.5"/>
</a>
</g>
</g>
<!-- Node7&#45;&gt;Node3 -->
<g id="edge7_Node000007_Node000003" class="edge">
<title>Node7&#45;&gt;Node3</title>
<g id="a_edge7_Node000007_Node000003"><a xlink:title=" ">
<path fill="none" stroke="orange" stroke-dasharray="5,2" d="M682.79,-309.93C742.98,-317.33 824.89,-327.4 885.49,-334.86"/>
<polygon fill="orange" stroke="orange" points="682.92,-306.42 672.57,-308.68 682.07,-313.37 682.92,-306.42"/>
</a>
</g>
<text text-anchor="middle" x="785" y="-334" font-family="Helvetica,sans-Serif" font-size="10.00" fill="grey"> &lt; AjaxScreenMgrEvent_T &gt;</text>
</g>
<!-- Node7&#45;&gt;Node4 -->
<g id="edge8_Node000007_Node000004" class="edge">
<title>Node7&#45;&gt;Node4</title>
<g id="a_edge8_Node000007_Node000004"><a xlink:title=" ">
<path fill="none" stroke="orange" stroke-dasharray="5,2" d="M642.63,-319.25C662.38,-328.14 686.63,-338.39 709,-346 771.6,-367.29 844.76,-385.33 897.33,-397.14"/>
<polygon fill="orange" stroke="orange" points="643.88,-315.97 633.33,-315.01 640.98,-322.34 643.88,-315.97"/>
</a>
</g>
<text text-anchor="middle" x="785" y="-390" font-family="Helvetica,sans-Serif" font-size="10.00" fill="grey"> &lt; AjaxUiEvent_T &gt;</text>
</g>
<!-- Node7&#45;&gt;Node5 -->
<g id="edge9_Node000007_Node000005" class="edge">
<title>Node7&#45;&gt;Node5</title>
<g id="a_edge9_Node000007_Node000005"><a xlink:title=" ">
<path fill="none" stroke="orange" stroke-dasharray="5,2" d="M681.83,-282.82C690.99,-280.85 700.2,-278.88 709,-277 772.61,-263.41 845.03,-248.04 897.09,-237.01"/>
<polygon fill="orange" stroke="orange" points="680.97,-279.42 671.93,-284.94 682.44,-286.27 680.97,-279.42"/>
</a>
</g>
<text text-anchor="middle" x="785" y="-280" font-family="Helvetica,sans-Serif" font-size="10.00" fill="grey"> &lt; Cpl::Logging::EntryData_T &gt;</text>
</g>
<!-- Node7&#45;&gt;Node6 -->
<g id="edge10_Node000007_Node000006" class="edge">
<title>Node7&#45;&gt;Node6</title>
<g id="a_edge10_Node000007_Node000006"><a xlink:title=" ">
<path fill="none" stroke="orange" stroke-dasharray="5,2" d="M682.65,-297.36C746.88,-295.25 835.89,-292.33 897.34,-290.32"/>
<polygon fill="orange" stroke="orange" points="682.45,-293.86 672.57,-297.69 682.68,-300.86 682.45,-293.86"/>
</a>
</g>
<text text-anchor="middle" x="785" y="-300" font-family="Helvetica,sans-Serif" font-size="10.00" fill="grey"> &lt; ENTRY &gt;</text>
</g>
</g>
</svg>
