<?xml version="1.0" encoding="UTF-8" standalone="no"?>
<!DOCTYPE svg PUBLIC "-//W3C//DTD SVG 1.1//EN"
 "http://www.w3.org/Graphics/SVG/1.1/DTD/svg11.dtd">
<!-- Generated by graphviz version 9.0.0 (20230911.1827)
 -->
<!-- Title: Cpl::Persistent::RecordServer Pages: 1 -->
<svg width="1608pt" height="494pt"
 viewBox="0.00 0.00 1607.75 494.25" xmlns="http://www.w3.org/2000/svg" xmlns:xlink="http://www.w3.org/1999/xlink">
<g id="graph0" class="graph" transform="scale(1 1) rotate(0) translate(4 490.25)">
<title>Cpl::Persistent::RecordServer</title>
<!-- Node1 -->
<g id="Node000001" class="node">
<title>Node1</title>
<g id="a_Node000001"><a xlink:title="This concrete class provides an Event driven Runnable object for executing the read/write operation t...">
<polygon fill="#999999" stroke="#666666" points="1599.75,-112.25 1457,-112.25 1457,-93 1599.75,-93 1599.75,-112.25"/>
<text text-anchor="middle" x="1528.38" y="-98.75" font-family="Helvetica,sans-Serif" font-size="10.00">Cpl::Persistent::RecordServer</text>
</a>
</g>
</g>
<!-- Node2 -->
<g id="Node000002" class="node">
<title>Node2</title>
<g id="a_Node000002"><a xlink:href="class_cpl_1_1_dm_1_1_mailbox_server.html" target="_top" xlink:title="This class extends the Cpl::Dm::EventLoop and Cpl::Itc:Mailbox classes to support the asynchronous ch...">
<polygon fill="white" stroke="#666666" points="1373,-167.25 1257.25,-167.25 1257.25,-148 1373,-148 1373,-167.25"/>
<text text-anchor="middle" x="1315.12" y="-153.75" font-family="Helvetica,sans-Serif" font-size="10.00">Cpl::Dm::MailboxServer</text>
</a>
</g>
</g>
<!-- Node2&#45;&gt;Node1 -->
<g id="edge1_Node000001_Node000002" class="edge">
<title>Node2&#45;&gt;Node1</title>
<g id="a_edge1_Node000001_Node000002"><a xlink:title=" ">
<path fill="none" stroke="#63b8ff" d="M1365.56,-144.75C1403.06,-134.99 1453.9,-121.75 1488.52,-112.74"/>
<polygon fill="#63b8ff" stroke="#63b8ff" points="1365.13,-141.25 1356.34,-147.16 1366.9,-148.02 1365.13,-141.25"/>
</a>
</g>
</g>
<!-- Node3 -->
<g id="Node000003" class="node">
<title>Node3</title>
<g id="a_Node000003"><a xlink:href="class_cpl_1_1_dm_1_1_event_loop.html" target="_top" xlink:title="This class extends the Cpl::System::EventLoop class to support the asynchronous change notification g...">
<polygon fill="white" stroke="#666666" points="1215,-217.25 1114.25,-217.25 1114.25,-198 1215,-198 1215,-217.25"/>
<text text-anchor="middle" x="1164.62" y="-203.75" font-family="Helvetica,sans-Serif" font-size="10.00">Cpl::Dm::EventLoop</text>
</a>
</g>
</g>
<!-- Node3&#45;&gt;Node2 -->
<g id="edge2_Node000002_Node000003" class="edge">
<title>Node3&#45;&gt;Node2</title>
<g id="a_edge2_Node000002_Node000003"><a xlink:title=" ">
<path fill="none" stroke="#63b8ff" d="M1206.48,-193.87C1231.05,-185.6 1261.79,-175.25 1284.12,-167.73"/>
<polygon fill="#63b8ff" stroke="#63b8ff" points="1205.47,-190.52 1197.11,-197.02 1207.7,-197.15 1205.47,-190.52"/>
</a>
</g>
</g>
<!-- Node4 -->
<g id="Node000004" class="node">
<title>Node4</title>
<g id="a_Node000004"><a xlink:href="class_cpl_1_1_system_1_1_event_loop.html" target="_top" xlink:title="This concrete class is a Runnable object that provides a event driven execution model for a thread.">
<polygon fill="white" stroke="#666666" points="1032.12,-354.25 913.38,-354.25 913.38,-335 1032.12,-335 1032.12,-354.25"/>
<text text-anchor="middle" x="972.75" y="-340.75" font-family="Helvetica,sans-Serif" font-size="10.00">Cpl::System::EventLoop</text>
</a>
</g>
</g>
<!-- Node4&#45;&gt;Node3 -->
<g id="edge3_Node000003_Node000004" class="edge">
<title>Node4&#45;&gt;Node3</title>
<g id="a_edge3_Node000003_Node000004"><a xlink:title=" ">
<path fill="none" stroke="#63b8ff" d="M996.92,-327.9C1036.81,-299.13 1117.25,-241.08 1149.64,-217.71"/>
<polygon fill="#63b8ff" stroke="#63b8ff" points="995,-324.98 988.94,-333.67 999.1,-330.65 995,-324.98"/>
</a>
</g>
</g>
<!-- Node5 -->
<g id="Node000005" class="node">
<title>Node5</title>
<g id="a_Node000005"><a xlink:href="class_cpl_1_1_system_1_1_runnable.html" target="_top" xlink:title="This is an abstract class defines the interface for an object that is &quot;executed&quot; when a Thread object...">
<polygon fill="white" stroke="#666666" points="747.62,-486.25 634.88,-486.25 634.88,-467 747.62,-467 747.62,-486.25"/>
<text text-anchor="middle" x="691.25" y="-472.75" font-family="Helvetica,sans-Serif" font-size="10.00">Cpl::System::Runnable</text>
</a>
</g>
</g>
<!-- Node5&#45;&gt;Node4 -->
<g id="edge4_Node000004_Node000005" class="edge">
<title>Node5&#45;&gt;Node4</title>
<g id="a_edge4_Node000004_Node000005"><a xlink:title=" ">
<path fill="none" stroke="#63b8ff" d="M759.26,-476.69C800.49,-474.01 852.99,-465.47 893.5,-441.62 930.05,-420.11 956.5,-374.68 966.89,-354.57"/>
<polygon fill="#63b8ff" stroke="#63b8ff" points="759.26,-473.19 749.46,-477.22 759.64,-480.18 759.26,-473.19"/>
</a>
</g>
</g>
<!-- Node6 -->
<g id="Node000006" class="node">
<title>Node6</title>
<g id="a_Node000006"><a xlink:href="class_cpl_1_1_system_1_1_event_flag.html" target="_top" xlink:title="This abstract class defines the interface to generated a &#39;Event Flag&#39;.">
<polygon fill="white" stroke="#666666" points="749.12,-449.25 633.38,-449.25 633.38,-430 749.12,-430 749.12,-449.25"/>
<text text-anchor="middle" x="691.25" y="-435.75" font-family="Helvetica,sans-Serif" font-size="10.00">Cpl::System::EventFlag</text>
</a>
</g>
</g>
<!-- Node6&#45;&gt;Node4 -->
<g id="edge5_Node000004_Node000006" class="edge">
<title>Node6&#45;&gt;Node4</title>
<g id="a_edge5_Node000004_Node000006"><a xlink:title=" ">
<path fill="none" stroke="#63b8ff" d="M760.72,-441.68C801.01,-440.45 852.03,-434.53 893.5,-415.62 924.38,-401.55 951.49,-370.74 964.16,-354.73"/>
<polygon fill="#63b8ff" stroke="#63b8ff" points="760.82,-438.18 750.9,-441.89 760.97,-445.18 760.82,-438.18"/>
</a>
</g>
</g>
<!-- Node7 -->
<g id="Node000007" class="node">
<title>Node7</title>
<g id="a_Node000007"><a xlink:href="class_cpl_1_1_system_1_1_signable.html" target="_top" xlink:title="This abstract class defines the interface by which a client can cause an object that is waiting&#45;on&#45;a&#45;...">
<polygon fill="white" stroke="#666666" points="428.75,-354.25 319,-354.25 319,-335 428.75,-335 428.75,-354.25"/>
<text text-anchor="middle" x="373.88" y="-340.75" font-family="Helvetica,sans-Serif" font-size="10.00">Cpl::System::Signable</text>
</a>
</g>
</g>
<!-- Node7&#45;&gt;Node4 -->
<g id="edge6_Node000004_Node000007" class="edge">
<title>Node7&#45;&gt;Node4</title>
<g id="a_edge6_Node000004_Node000007"><a xlink:title=" ">
<path fill="none" stroke="#63b8ff" d="M422.07,-357.46C438.55,-361.55 457.25,-365.75 474.5,-368.62 658.2,-399.19 711.24,-409.86 893.5,-371.62 912.21,-367.7 932.6,-360.57 947.87,-354.62"/>
<polygon fill="#63b8ff" stroke="#63b8ff" points="423.07,-354.1 412.52,-355.03 421.35,-360.89 423.07,-354.1"/>
</a>
</g>
</g>
<!-- Node13 -->
<g id="Node000013" class="node">
<title>Node13</title>
<g id="a_Node000013"><a xlink:href="class_cpl_1_1_system_1_1_thread.html" target="_top" xlink:title="This abstract class defines the operations that can be performed on a thread.">
<polygon fill="white" stroke="#666666" points="742.38,-373.25 640.12,-373.25 640.12,-354 742.38,-354 742.38,-373.25"/>
<text text-anchor="middle" x="691.25" y="-359.75" font-family="Helvetica,sans-Serif" font-size="10.00">Cpl::System::Thread</text>
</a>
</g>
</g>
<!-- Node7&#45;&gt;Node13 -->
<g id="edge13_Node000013_Node000007" class="edge">
<title>Node7&#45;&gt;Node13</title>
<g id="a_edge13_Node000013_Node000007"><a xlink:title=" ">
<path fill="none" stroke="#63b8ff" d="M440.58,-348.58C499.87,-352.16 585.85,-357.34 639.86,-360.59"/>
<polygon fill="#63b8ff" stroke="#63b8ff" points="440.79,-345.09 430.6,-347.98 440.37,-352.08 440.79,-345.09"/>
</a>
</g>
</g>
<!-- Node15 -->
<g id="Node000015" class="node">
<title>Node15</title>
<g id="a_Node000015"><a xlink:href="class_cpl_1_1_system_1_1_semaphore.html" target="_top" xlink:title="This semaphore class defines the interface for a Counting Semaphore.">
<polygon fill="white" stroke="#666666" points="752.12,-336.25 630.38,-336.25 630.38,-317 752.12,-317 752.12,-336.25"/>
<text text-anchor="middle" x="691.25" y="-322.75" font-family="Helvetica,sans-Serif" font-size="10.00">Cpl::System::Semaphore</text>
</a>
</g>
</g>
<!-- Node7&#45;&gt;Node15 -->
<g id="edge16_Node000015_Node000007" class="edge">
<title>Node7&#45;&gt;Node15</title>
<g id="a_edge16_Node000015_Node000007"><a xlink:title=" ">
<path fill="none" stroke="#63b8ff" d="M440.27,-340.89C496.1,-337.71 575.74,-333.16 630.03,-330.06"/>
<polygon fill="#63b8ff" stroke="#63b8ff" points="440.39,-337.38 430.6,-341.44 440.78,-344.37 440.39,-337.38"/>
</a>
</g>
</g>
<!-- Node18 -->
<g id="Node000018" class="node">
<title>Node18</title>
<g id="a_Node000018"><a xlink:href="class_cpl_1_1_itc_1_1_mailbox.html" target="_top" xlink:title="This mailbox class implements an Inter Thread Communications message queue.">
<polygon fill="white" stroke="#666666" points="1206.38,-167.25 1122.88,-167.25 1122.88,-148 1206.38,-148 1206.38,-167.25"/>
<text text-anchor="middle" x="1164.62" y="-153.75" font-family="Helvetica,sans-Serif" font-size="10.00">Cpl::Itc::Mailbox</text>
</a>
</g>
</g>
<!-- Node7&#45;&gt;Node18 -->
<g id="edge24_Node000018_Node000007" class="edge">
<title>Node7&#45;&gt;Node18</title>
<g id="a_edge24_Node000018_Node000007"><a xlink:title=" ">
<path fill="none" stroke="#9a32cd" stroke-dasharray="5,2" d="M410.79,-330.57C458.77,-312.2 546.72,-280 624,-259.62 807.46,-211.25 1031.77,-176.45 1122.57,-163.35"/>
<polygon fill="#9a32cd" stroke="#9a32cd" points="409.82,-327.19 401.74,-334.05 412.33,-333.72 409.82,-327.19"/>
</a>
</g>
<text text-anchor="middle" x="835" y="-225.38" font-family="Helvetica,sans-Serif" font-size="10.00" fill="grey"> m_eventLoop</text>
</g>
<!-- Node8 -->
<g id="Node000008" class="node">
<title>Node8</title>
<g id="a_Node000008"><a xlink:href="class_cpl_1_1_container_1_1_item.html" target="_top" xlink:title="This class is used by the Container classes to implement a various types of singly linked containers.">
<polygon fill="white" stroke="#666666" points="101.88,-354.25 1.88,-354.25 1.88,-335 101.88,-335 101.88,-354.25"/>
<text text-anchor="middle" x="51.88" y="-340.75" font-family="Helvetica,sans-Serif" font-size="10.00">Cpl::Container::Item</text>
</a>
</g>
</g>
<!-- Node8&#45;&gt;Node7 -->
<g id="edge7_Node000007_Node000008" class="edge">
<title>Node8&#45;&gt;Node7</title>
<g id="a_edge7_Node000007_Node000008"><a xlink:title=" ">
<path fill="none" stroke="#63b8ff" d="M113.59,-344.62C172.76,-344.62 261.87,-344.62 318.7,-344.62"/>
<polygon fill="#63b8ff" stroke="#63b8ff" points="113.69,-341.13 103.69,-344.63 113.69,-348.13 113.69,-341.13"/>
</a>
</g>
</g>
<!-- Node9 -->
<g id="Node000009" class="node">
<title>Node9</title>
<g id="a_Node000009"><a xlink:href="class_cpl_1_1_system_1_1_timer_manager.html" target="_top" xlink:title="This mostly concrete class implements manages a list of Software Timers.">
<polygon fill="white" stroke="#666666" points="758.5,-212.25 624,-212.25 624,-193 758.5,-193 758.5,-212.25"/>
<text text-anchor="middle" x="691.25" y="-198.75" font-family="Helvetica,sans-Serif" font-size="10.00">Cpl::System::TimerManager</text>
</a>
</g>
</g>
<!-- Node9&#45;&gt;Node4 -->
<g id="edge8_Node000004_Node000009" class="edge">
<title>Node9&#45;&gt;Node4</title>
<g id="a_edge8_Node000004_Node000009"><a xlink:title=" ">
<path fill="none" stroke="#63b8ff" d="M736.19,-216.33C778.09,-230.31 842.22,-254.1 893.5,-283.62 919.62,-298.67 946.6,-321.65 961.05,-334.69"/>
<polygon fill="#63b8ff" stroke="#63b8ff" points="737.29,-213.01 726.7,-213.21 735.1,-219.66 737.29,-213.01"/>
</a>
</g>
</g>
<!-- Node10 -->
<g id="Node000010" class="node">
<title>Node10</title>
<g id="a_Node000010"><a xlink:href="class_cpl_1_1_system_1_1_counter_source__.html" target="_top" xlink:title="This abstract class defines the interface for registering for an Counter object with the Timer Manage...">
<polygon fill="white" stroke="#666666" points="444.88,-227.25 302.88,-227.25 302.88,-208 444.88,-208 444.88,-227.25"/>
<text text-anchor="middle" x="373.88" y="-213.75" font-family="Helvetica,sans-Serif" font-size="10.00">Cpl::System::CounterSource_</text>
</a>
</g>
</g>
<!-- Node10&#45;&gt;Node9 -->
<g id="edge9_Node000009_Node000010" class="edge">
<title>Node10&#45;&gt;Node9</title>
<g id="a_edge9_Node000009_Node000010"><a xlink:title=" ">
<path fill="none" stroke="#63b8ff" d="M456.45,-213.75C508.39,-211.27 574.82,-208.12 623.59,-205.8"/>
<polygon fill="#63b8ff" stroke="#63b8ff" points="456.59,-210.23 446.77,-214.21 456.93,-217.23 456.59,-210.23"/>
</a>
</g>
</g>
<!-- Node11 -->
<g id="Node000011" class="node">
<title>Node11</title>
<g id="a_Node000011"><a xlink:href="class_cpl_1_1_container_1_1_d_list.html" target="_top" xlink:title=" ">
<polygon fill="white" stroke="#666666" points="456.5,-189.88 291.25,-189.88 291.25,-159.38 456.5,-159.38 456.5,-189.88"/>
<text text-anchor="start" x="299.25" y="-176.38" font-family="Helvetica,sans-Serif" font-size="10.00">Cpl::Container::DList</text>
<text text-anchor="middle" x="373.88" y="-165.12" font-family="Helvetica,sans-Serif" font-size="10.00">&lt; Cpl::System::CounterCallback_ &gt;</text>
</a>
</g>
</g>
<!-- Node11&#45;&gt;Node9 -->
<g id="edge10_Node000009_Node000011" class="edge">
<title>Node11&#45;&gt;Node9</title>
<g id="a_edge10_Node000009_Node000011"><a xlink:title=" ">
<path fill="none" stroke="#9a32cd" stroke-dasharray="5,2" d="M468.21,-172.56C510.46,-172.83 560.94,-174.82 606,-181.12 623.34,-183.55 642.27,-188.19 657.78,-192.54"/>
<polygon fill="#9a32cd" stroke="#9a32cd" points="468.33,-169.06 458.32,-172.53 468.31,-176.06 468.33,-169.06"/>
</a>
</g>
<text text-anchor="middle" x="540.25" y="-194.62" font-family="Helvetica,sans-Serif" font-size="10.00" fill="grey"> m_counters</text>
<text text-anchor="middle" x="540.25" y="-183.38" font-family="Helvetica,sans-Serif" font-size="10.00" fill="grey">m_pendingAttach</text>
</g>
<!-- Node12 -->
<g id="Node000012" class="node">
<title>Node12</title>
<g id="a_Node000012"><a xlink:href="class_cpl_1_1_container_1_1_d_list.html" target="_top" xlink:title="This template class implements a Doubly linked list which maintains the ordering imposed on it by the...">
<polygon fill="white" stroke="#666666" points="103.75,-166.88 0,-166.88 0,-136.38 103.75,-136.38 103.75,-166.88"/>
<text text-anchor="start" x="8" y="-153.38" font-family="Helvetica,sans-Serif" font-size="10.00">Cpl::Container::DList</text>
<text text-anchor="middle" x="51.88" y="-142.12" font-family="Helvetica,sans-Serif" font-size="10.00">&lt; ITEM &gt;</text>
</a>
</g>
</g>
<!-- Node12&#45;&gt;Node11 -->
<g id="edge11_Node000011_Node000012" class="edge">
<title>Node12&#45;&gt;Node11</title>
<g id="a_edge11_Node000011_Node000012"><a xlink:title=" ">
<path fill="none" stroke="orange" stroke-dasharray="5,2" d="M115.25,-156.11C165.35,-159.71 236.12,-164.8 290.81,-168.73"/>
<polygon fill="orange" stroke="orange" points="115.67,-152.63 105.44,-155.4 115.17,-159.61 115.67,-152.63"/>
</a>
</g>
<text text-anchor="middle" x="197.5" y="-169.38" font-family="Helvetica,sans-Serif" font-size="10.00" fill="grey"> &lt; Cpl::System::CounterCallback_ &gt;</text>
</g>
<!-- Node17 -->
<g id="Node000017" class="node">
<title>Node17</title>
<g id="a_Node000017"><a xlink:href="class_cpl_1_1_container_1_1_d_list.html" target="_top" xlink:title=" ">
<polygon fill="white" stroke="#666666" points="606,-148.88 474.5,-148.88 474.5,-118.38 606,-118.38 606,-148.88"/>
<text text-anchor="start" x="482.5" y="-135.38" font-family="Helvetica,sans-Serif" font-size="10.00">Cpl::Container::DList</text>
<text text-anchor="middle" x="540.25" y="-124.12" font-family="Helvetica,sans-Serif" font-size="10.00">&lt; Cpl::Dm::SubscriberApi &gt;</text>
</a>
</g>
</g>
<!-- Node12&#45;&gt;Node17 -->
<g id="edge19_Node000017_Node000012" class="edge">
<title>Node12&#45;&gt;Node17</title>
<g id="a_edge19_Node000017_Node000012"><a xlink:title=" ">
<path fill="none" stroke="orange" stroke-dasharray="5,2" d="M115.15,-141.99C117.38,-141.76 119.58,-141.56 121.75,-141.38 246.01,-131.02 391.76,-131.08 474.03,-132.24"/>
<polygon fill="orange" stroke="orange" points="114.98,-138.49 105.44,-143.1 115.78,-145.44 114.98,-138.49"/>
</a>
</g>
<text text-anchor="middle" x="197.5" y="-143.38" font-family="Helvetica,sans-Serif" font-size="10.00" fill="grey"> &lt; Cpl::Dm::SubscriberApi &gt;</text>
</g>
<!-- Node13&#45;&gt;Node4 -->
<g id="edge12_Node000004_Node000013" class="edge">
<title>Node13&#45;&gt;Node4</title>
<g id="a_edge12_Node000004_Node000013"><a xlink:title=" ">
<path fill="none" stroke="#9a32cd" stroke-dasharray="5,2" d="M754.23,-359.41C801.69,-356.19 866.72,-351.76 913.29,-348.6"/>
<polygon fill="#9a32cd" stroke="#9a32cd" points="754.11,-355.91 744.38,-360.08 754.59,-362.9 754.11,-355.91"/>
</a>
</g>
<text text-anchor="middle" x="835" y="-358.38" font-family="Helvetica,sans-Serif" font-size="10.00" fill="grey"> m_myThreadPtr</text>
</g>
<!-- Node14 -->
<g id="Node000014" class="node">
<title>Node14</title>
<g id="a_Node000014"><a xlink:href="class_cpl_1_1_system_1_1_shared_event_handler_api.html" target="_top" xlink:title="This abstract class defines the interface for a Shared Event Handler.">
<polygon fill="white" stroke="#666666" points="755.12,-298.88 627.38,-298.88 627.38,-268.38 755.12,-268.38 755.12,-298.88"/>
<text text-anchor="start" x="635.38" y="-285.38" font-family="Helvetica,sans-Serif" font-size="10.00">Cpl::System::SharedEvent</text>
<text text-anchor="middle" x="691.25" y="-274.12" font-family="Helvetica,sans-Serif" font-size="10.00">HandlerApi</text>
</a>
</g>
</g>
<!-- Node14&#45;&gt;Node4 -->
<g id="edge14_Node000004_Node000014" class="edge">
<title>Node14&#45;&gt;Node4</title>
<g id="a_edge14_Node000004_Node000014"><a xlink:title=" ">
<path fill="none" stroke="#9a32cd" stroke-dasharray="5,2" d="M766.47,-287.22C804.95,-290.46 852.37,-296.63 893.5,-308.38 915.38,-314.62 938.87,-326.23 954.33,-334.63"/>
<polygon fill="#9a32cd" stroke="#9a32cd" points="767.1,-283.76 756.86,-286.46 766.55,-290.74 767.1,-283.76"/>
</a>
</g>
<text text-anchor="middle" x="835" y="-309.38" font-family="Helvetica,sans-Serif" font-size="10.00" fill="grey"> m_eventHandler</text>
</g>
<!-- Node15&#45;&gt;Node4 -->
<g id="edge15_Node000004_Node000015" class="edge">
<title>Node15&#45;&gt;Node4</title>
<g id="a_edge15_Node000004_Node000015"><a xlink:title=" ">
<path fill="none" stroke="#9a32cd" stroke-dasharray="5,2" d="M763.42,-324.51C802.01,-324.14 850.48,-324.92 893.5,-329.38 904.51,-330.51 916.29,-332.43 927.27,-334.53"/>
<polygon fill="#9a32cd" stroke="#9a32cd" points="763.76,-321 753.81,-324.63 763.85,-328 763.76,-321"/>
</a>
</g>
<text text-anchor="middle" x="835" y="-330.38" font-family="Helvetica,sans-Serif" font-size="10.00" fill="grey"> m_sema</text>
</g>
<!-- Node16 -->
<g id="Node000016" class="node">
<title>Node16</title>
<g id="a_Node000016"><a xlink:href="class_cpl_1_1_dm_1_1_notification_api__.html" target="_top" xlink:title="This class has PACKAGE Scope, i.e.">
<polygon fill="white" stroke="#666666" points="1034,-255.25 911.5,-255.25 911.5,-236 1034,-236 1034,-255.25"/>
<text text-anchor="middle" x="972.75" y="-241.75" font-family="Helvetica,sans-Serif" font-size="10.00">Cpl::Dm::NotificationApi_</text>
</a>
</g>
</g>
<!-- Node16&#45;&gt;Node3 -->
<g id="edge17_Node000003_Node000016" class="edge">
<title>Node16&#45;&gt;Node3</title>
<g id="a_edge17_Node000003_Node000016"><a xlink:title=" ">
<path fill="none" stroke="#63b8ff" d="M1035.18,-233.33C1060.68,-228.23 1089.88,-222.38 1113.99,-217.56"/>
<polygon fill="#63b8ff" stroke="#63b8ff" points="1034.74,-229.85 1025.62,-235.24 1036.11,-236.71 1034.74,-229.85"/>
</a>
</g>
</g>
<!-- Node17&#45;&gt;Node3 -->
<g id="edge18_Node000003_Node000017" class="edge">
<title>Node17&#45;&gt;Node3</title>
<g id="a_edge18_Node000003_Node000017"><a xlink:title=" ">
<path fill="none" stroke="#9a32cd" stroke-dasharray="5,2" d="M617.44,-144.77C619.65,-145.06 621.84,-145.35 624,-145.62 743.54,-160.89 773.78,-161.62 893.5,-175.38 970.45,-184.22 1059.67,-194.96 1113.85,-201.55"/>
<polygon fill="#9a32cd" stroke="#9a32cd" points="618.15,-141.34 607.77,-143.47 617.21,-148.27 618.15,-141.34"/>
</a>
</g>
<text text-anchor="middle" x="835" y="-177.38" font-family="Helvetica,sans-Serif" font-size="10.00" fill="grey"> m_pendingMpNotifications</text>
</g>
<!-- Node18&#45;&gt;Node2 -->
<g id="edge20_Node000002_Node000018" class="edge">
<title>Node18&#45;&gt;Node2</title>
<g id="a_edge20_Node000002_Node000018"><a xlink:title=" ">
<path fill="none" stroke="#63b8ff" d="M1217.88,-157.62C1230.5,-157.62 1244.06,-157.62 1256.89,-157.62"/>
<polygon fill="#63b8ff" stroke="#63b8ff" points="1218.11,-154.13 1208.11,-157.63 1218.11,-161.13 1218.11,-154.13"/>
</a>
</g>
</g>
<!-- Node19 -->
<g id="Node000019" class="node">
<title>Node19</title>
<g id="a_Node000019"><a xlink:href="class_cpl_1_1_itc_1_1_post_api.html" target="_top" xlink:title="This abstract class represents the interface used to send messages to a mailbox.">
<polygon fill="white" stroke="#666666" points="1015.25,-93.25 930.25,-93.25 930.25,-74 1015.25,-74 1015.25,-93.25"/>
<text text-anchor="middle" x="972.75" y="-79.75" font-family="Helvetica,sans-Serif" font-size="10.00">Cpl::Itc::PostApi</text>
</a>
</g>
</g>
<!-- Node19&#45;&gt;Node18 -->
<g id="edge21_Node000018_Node000019" class="edge">
<title>Node19&#45;&gt;Node18</title>
<g id="a_edge21_Node000018_Node000019"><a xlink:title=" ">
<path fill="none" stroke="#63b8ff" d="M1019.52,-97.25C1024.44,-98.95 1029.35,-100.76 1034,-102.62 1068.49,-116.48 1074.6,-125.55 1109,-139.62 1115.84,-142.42 1123.29,-145.11 1130.42,-147.51"/>
<polygon fill="#63b8ff" stroke="#63b8ff" points="1020.83,-93.99 1010.23,-94.16 1018.62,-100.64 1020.83,-93.99"/>
</a>
</g>
</g>
<!-- Node23 -->
<g id="Node000023" class="node">
<title>Node23</title>
<g id="a_Node000023"><a xlink:href="class_cpl_1_1_itc_1_1_open_sync.html" target="_top" xlink:title="This partially concrete class implements the synchronous ITC open call for the OpenApi.">
<polygon fill="white" stroke="#666666" points="1212.38,-56.25 1116.88,-56.25 1116.88,-37 1212.38,-37 1212.38,-56.25"/>
<text text-anchor="middle" x="1164.62" y="-42.75" font-family="Helvetica,sans-Serif" font-size="10.00">Cpl::Itc::OpenSync</text>
</a>
</g>
</g>
<!-- Node19&#45;&gt;Node23 -->
<g id="edge29_Node000023_Node000019" class="edge">
<title>Node19&#45;&gt;Node23</title>
<g id="a_edge29_Node000023_Node000019"><a xlink:title=" ">
<path fill="none" stroke="#9a32cd" stroke-dasharray="5,2" d="M1026.71,-73.31C1054.96,-67.8 1089.43,-61.08 1116.71,-55.77"/>
<polygon fill="#9a32cd" stroke="#9a32cd" points="1026.05,-69.87 1016.9,-75.22 1027.39,-76.74 1026.05,-69.87"/>
</a>
</g>
<text text-anchor="middle" x="1071.5" y="-69.38" font-family="Helvetica,sans-Serif" font-size="10.00" fill="grey"> m_mbox</text>
</g>
<!-- Node20 -->
<g id="Node000020" class="node">
<title>Node20</title>
<g id="a_Node000020"><a xlink:href="class_cpl_1_1_container_1_1_s_list.html" target="_top" xlink:title=" ">
<polygon fill="white" stroke="#666666" points="1024.62,-141.88 920.88,-141.88 920.88,-111.38 1024.62,-111.38 1024.62,-141.88"/>
<text text-anchor="start" x="928.88" y="-128.38" font-family="Helvetica,sans-Serif" font-size="10.00">Cpl::Container::SList</text>
<text text-anchor="middle" x="972.75" y="-117.12" font-family="Helvetica,sans-Serif" font-size="10.00">&lt; Message &gt;</text>
</a>
</g>
</g>
<!-- Node20&#45;&gt;Node18 -->
<g id="edge22_Node000018_Node000020" class="edge">
<title>Node20&#45;&gt;Node18</title>
<g id="a_edge22_Node000018_Node000020"><a xlink:title=" ">
<path fill="none" stroke="#63b8ff" d="M1035.7,-136.74C1064.17,-141.39 1097.16,-146.77 1122.51,-150.91"/>
<polygon fill="#63b8ff" stroke="#63b8ff" points="1036.56,-133.33 1026.13,-135.18 1035.43,-140.24 1036.56,-133.33"/>
</a>
</g>
</g>
<!-- Node21 -->
<g id="Node000021" class="node">
<title>Node21</title>
<g id="a_Node000021"><a xlink:href="class_cpl_1_1_container_1_1_s_list.html" target="_top" xlink:title="This template class implements a singly linked list which maintains the ordering imposed on it by the...">
<polygon fill="white" stroke="#666666" points="743.12,-136.88 639.38,-136.88 639.38,-106.38 743.12,-106.38 743.12,-136.88"/>
<text text-anchor="start" x="647.38" y="-123.38" font-family="Helvetica,sans-Serif" font-size="10.00">Cpl::Container::SList</text>
<text text-anchor="middle" x="691.25" y="-112.12" font-family="Helvetica,sans-Serif" font-size="10.00">&lt; ITEM &gt;</text>
</a>
</g>
</g>
<!-- Node21&#45;&gt;Node20 -->
<g id="edge23_Node000020_Node000021" class="edge">
<title>Node21&#45;&gt;Node20</title>
<g id="a_edge23_Node000020_Node000021"><a xlink:title=" ">
<path fill="none" stroke="orange" stroke-dasharray="5,2" d="M754.84,-122.74C804.87,-123.64 874.13,-124.88 920.81,-125.71"/>
<polygon fill="orange" stroke="orange" points="755.09,-119.25 745.03,-122.57 754.96,-126.25 755.09,-119.25"/>
</a>
</g>
<text text-anchor="middle" x="835" y="-127.38" font-family="Helvetica,sans-Serif" font-size="10.00" fill="grey"> &lt; Message &gt;</text>
</g>
<!-- Node22 -->
<g id="Node000022" class="node">
<title>Node22</title>
<g id="a_Node000022"><a xlink:href="class_cpl_1_1_itc_1_1_close_sync.html" target="_top" xlink:title="This partially concrete class implements the synchronous ITC close call for the CloseApi.">
<polygon fill="white" stroke="#666666" points="1363.62,-112.25 1266.62,-112.25 1266.62,-93 1363.62,-93 1363.62,-112.25"/>
<text text-anchor="middle" x="1315.12" y="-98.75" font-family="Helvetica,sans-Serif" font-size="10.00">Cpl::Itc::CloseSync</text>
</a>
</g>
</g>
<!-- Node22&#45;&gt;Node1 -->
<g id="edge25_Node000001_Node000022" class="edge">
<title>Node22&#45;&gt;Node1</title>
<g id="a_edge25_Node000001_Node000022"><a xlink:title=" ">
<path fill="none" stroke="#63b8ff" d="M1375.34,-102.62C1400.63,-102.62 1430.35,-102.62 1456.78,-102.62"/>
<polygon fill="#63b8ff" stroke="#63b8ff" points="1375.57,-99.13 1365.57,-102.63 1375.57,-106.13 1375.57,-99.13"/>
</a>
</g>
</g>
<!-- Node23&#45;&gt;Node22 -->
<g id="edge26_Node000022_Node000023" class="edge">
<title>Node23&#45;&gt;Node22</title>
<g id="a_edge26_Node000022_Node000023"><a xlink:title=" ">
<path fill="none" stroke="#63b8ff" d="M1210,-60.51C1213.5,-61.82 1216.95,-63.2 1220.25,-64.62 1237.42,-72.02 1240.04,-77.33 1257.25,-84.62 1264.02,-87.5 1271.41,-90.16 1278.55,-92.51"/>
<polygon fill="#63b8ff" stroke="#63b8ff" points="1211.51,-57.33 1200.91,-57.25 1209.15,-63.92 1211.51,-57.33"/>
</a>
</g>
</g>
<!-- Node24 -->
<g id="Node000024" class="node">
<title>Node24</title>
<g id="a_Node000024"><a xlink:href="class_cpl_1_1_itc_1_1_open_api.html" target="_top" xlink:title="This abstract class defines an open interface.">
<polygon fill="white" stroke="#666666" points="1016.75,-56.25 928.75,-56.25 928.75,-37 1016.75,-37 1016.75,-56.25"/>
<text text-anchor="middle" x="972.75" y="-42.75" font-family="Helvetica,sans-Serif" font-size="10.00">Cpl::Itc::OpenApi</text>
</a>
</g>
</g>
<!-- Node24&#45;&gt;Node23 -->
<g id="edge27_Node000023_Node000024" class="edge">
<title>Node24&#45;&gt;Node23</title>
<g id="a_edge27_Node000023_Node000024"><a xlink:title=" ">
<path fill="none" stroke="#63b8ff" d="M1028,-46.62C1055.9,-46.62 1089.57,-46.62 1116.38,-46.62"/>
<polygon fill="#63b8ff" stroke="#63b8ff" points="1028.35,-43.13 1018.35,-46.63 1028.35,-50.13 1028.35,-43.13"/>
</a>
</g>
</g>
<!-- Node25 -->
<g id="Node000025" class="node">
<title>Node25</title>
<g id="a_Node000025"><a xlink:href="class_cpl_1_1_itc_1_1_open_request.html" target="_top" xlink:title="This abstract class define message types and payloads for a set of ITC services.">
<polygon fill="white" stroke="#666666" points="1027.62,-19.25 917.88,-19.25 917.88,0 1027.62,0 1027.62,-19.25"/>
<text text-anchor="middle" x="972.75" y="-5.75" font-family="Helvetica,sans-Serif" font-size="10.00">Cpl::Itc::OpenRequest</text>
</a>
</g>
</g>
<!-- Node25&#45;&gt;Node23 -->
<g id="edge28_Node000023_Node000025" class="edge">
<title>Node25&#45;&gt;Node23</title>
<g id="a_edge28_Node000023_Node000025"><a xlink:title=" ">
<path fill="none" stroke="#63b8ff" d="M1036.93,-21.94C1062.97,-27.01 1092.61,-32.79 1116.67,-37.48"/>
<polygon fill="#63b8ff" stroke="#63b8ff" points="1037.6,-18.5 1027.12,-20.02 1036.27,-25.37 1037.6,-18.5"/>
</a>
</g>
</g>
<!-- Node26 -->
<g id="Node000026" class="node">
<title>Node26</title>
<g id="a_Node000026"><a xlink:href="class_cpl_1_1_itc_1_1_close_api.html" target="_top" xlink:title="This abstract class defines an close interface.">
<polygon fill="white" stroke="#666666" points="1209.38,-93.25 1119.88,-93.25 1119.88,-74 1209.38,-74 1209.38,-93.25"/>
<text text-anchor="middle" x="1164.62" y="-79.75" font-family="Helvetica,sans-Serif" font-size="10.00">Cpl::Itc::CloseApi</text>
</a>
</g>
</g>
<!-- Node26&#45;&gt;Node22 -->
<g id="edge30_Node000022_Node000026" class="edge">
<title>Node26&#45;&gt;Node22</title>
<g id="a_edge30_Node000022_Node000026"><a xlink:title=" ">
<path fill="none" stroke="#63b8ff" d="M1220.91,-90.7C1235.81,-92.61 1251.8,-94.65 1266.26,-96.5"/>
<polygon fill="#63b8ff" stroke="#63b8ff" points="1221.64,-87.26 1211.28,-89.47 1220.75,-94.21 1221.64,-87.26"/>
</a>
</g>
</g>
<!-- Node27 -->
<g id="Node000027" class="node">
<title>Node27</title>
<g id="a_Node000027"><a xlink:href="class_cpl_1_1_itc_1_1_close_request.html" target="_top" xlink:title="This abstract class define message types and payloads for a set of ITC services.">
<polygon fill="white" stroke="#666666" points="1220.25,-130.25 1109,-130.25 1109,-111 1220.25,-111 1220.25,-130.25"/>
<text text-anchor="middle" x="1164.62" y="-116.75" font-family="Helvetica,sans-Serif" font-size="10.00">Cpl::Itc::CloseRequest</text>
</a>
</g>
</g>
<!-- Node27&#45;&gt;Node22 -->
<g id="edge31_Node000022_Node000027" class="edge">
<title>Node27&#45;&gt;Node22</title>
<g id="a_edge31_Node000022_Node000027"><a xlink:title=" ">
<path fill="none" stroke="#63b8ff" d="M1231.59,-112.63C1243.28,-111.21 1255.25,-109.76 1266.32,-108.42"/>
<polygon fill="#63b8ff" stroke="#63b8ff" points="1231.51,-109.11 1222,-113.79 1232.35,-116.06 1231.51,-109.11"/>
</a>
</g>
</g>
<!-- Node28 -->
<g id="Node000028" class="node">
<title>Node28</title>
<g id="a_Node000028"><a xlink:href="class_cpl_1_1_persistent_1_1_record.html" target="_top" xlink:title="This abstract class defines the public interface for a Record instance.">
<polygon fill="white" stroke="#666666" points="1372.25,-75.25 1258,-75.25 1258,-56 1372.25,-56 1372.25,-75.25"/>
<text text-anchor="middle" x="1315.12" y="-61.75" font-family="Helvetica,sans-Serif" font-size="10.00">Cpl::Persistent::Record</text>
</a>
</g>
</g>
<!-- Node28&#45;&gt;Node1 -->
<g id="edge32_Node000001_Node000028" class="edge">
<title>Node28&#45;&gt;Node1</title>
<g id="a_edge32_Node000001_Node000028"><a xlink:title=" ">
<path fill="none" stroke="#9a32cd" stroke-dasharray="5,2" d="M1383.93,-77.5C1411.63,-82.35 1443.33,-87.9 1469.87,-92.55"/>
<polygon fill="#9a32cd" stroke="#9a32cd" points="1384.68,-74.08 1374.23,-75.8 1383.47,-80.97 1384.68,-74.08"/>
</a>
</g>
<text text-anchor="middle" x="1415" y="-88.38" font-family="Helvetica,sans-Serif" font-size="10.00" fill="grey"> m_records</text>
</g>
</g>
</svg>
