<?xml version="1.0" encoding="UTF-8" standalone="no"?>
<!DOCTYPE svg PUBLIC "-//W3C//DTD SVG 1.1//EN"
 "http://www.w3.org/Graphics/SVG/1.1/DTD/svg11.dtd">
<!-- Generated by graphviz version 9.0.0 (20230911.1827)
 -->
<!-- Title: Driver::SPI::Master Pages: 1 -->
<svg width="224pt" height="94pt"
 viewBox="0.00 0.00 224.25 93.75" xmlns="http://www.w3.org/2000/svg" xmlns:xlink="http://www.w3.org/1999/xlink">
<g id="graph0" class="graph" transform="scale(1 1) rotate(0) translate(4 89.75)">
<title>Driver::SPI::Master</title>
<!-- Node1 -->
<g id="Node000001" class="node">
<title>Node1</title>
<g id="a_Node000001"><a xlink:title="This class defines a non&#45;platform specific interface for an SPI master device driver.">
<polygon fill="#999999" stroke="#666666" points="156.5,-85.75 59.5,-85.75 59.5,-66.5 156.5,-66.5 156.5,-85.75"/>
<text text-anchor="middle" x="108" y="-72.25" font-family="Helvetica,sans-Serif" font-size="10.00">Driver::SPI::Master</text>
</a>
</g>
</g>
<!-- Node2 -->
<g id="Node000002" class="node">
<title>Node2</title>
<g id="a_Node000002"><a xlink:href="class_driver_1_1_s_p_i_1_1_arduino_1_1_master.html" target="_top" xlink:title="This class implements the SPI interface using the Arduino Framework.">
<polygon fill="white" stroke="#666666" points="100,-30.5 0,-30.5 0,0 100,0 100,-30.5"/>
<text text-anchor="start" x="8" y="-17" font-family="Helvetica,sans-Serif" font-size="10.00">Driver::SPI::Arduino</text>
<text text-anchor="middle" x="50" y="-5.75" font-family="Helvetica,sans-Serif" font-size="10.00">::Master</text>
</a>
</g>
</g>
<!-- Node1&#45;&gt;Node2 -->
<g id="edge1_Node000001_Node000002" class="edge">
<title>Node1&#45;&gt;Node2</title>
<g id="a_edge1_Node000001_Node000002"><a xlink:title=" ">
<path fill="none" stroke="#63b8ff" d="M91.37,-58.25C82.82,-49.57 72.51,-39.1 64.32,-30.78"/>
<polygon fill="#63b8ff" stroke="#63b8ff" points="88.62,-60.44 98.13,-65.1 93.6,-55.52 88.62,-60.44"/>
</a>
</g>
</g>
<!-- Node3 -->
<g id="Node000003" class="node">
<title>Node3</title>
<g id="a_Node000003"><a xlink:href="class_driver_1_1_s_p_i_1_1_s_t_m32_1_1_master.html" target="_top" xlink:title="This class implements the SPI interface for the STM32 family of micro&#45;controller using the ST&#39;s MX Cu...">
<polygon fill="white" stroke="#666666" points="216.25,-30.5 117.75,-30.5 117.75,0 216.25,0 216.25,-30.5"/>
<text text-anchor="start" x="125.75" y="-17" font-family="Helvetica,sans-Serif" font-size="10.00">Driver::SPI::STM32</text>
<text text-anchor="middle" x="167" y="-5.75" font-family="Helvetica,sans-Serif" font-size="10.00">::Master</text>
</a>
</g>
</g>
<!-- Node1&#45;&gt;Node3 -->
<g id="edge2_Node000001_Node000003" class="edge">
<title>Node1&#45;&gt;Node3</title>
<g id="a_edge2_Node000001_Node000003"><a xlink:title=" ">
<path fill="none" stroke="#63b8ff" d="M124.91,-58.25C133.61,-49.57 144.1,-39.1 152.44,-30.78"/>
<polygon fill="#63b8ff" stroke="#63b8ff" points="122.64,-55.57 118.03,-65.11 127.58,-60.53 122.64,-55.57"/>
</a>
</g>
</g>
</g>
</svg>
