<?xml version="1.0" encoding="UTF-8" standalone="no"?>
<!DOCTYPE svg PUBLIC "-//W3C//DTD SVG 1.1//EN"
 "http://www.w3.org/Graphics/SVG/1.1/DTD/svg11.dtd">
<!-- Generated by graphviz version 9.0.0 (20230911.1827)
 -->
<!-- Title: Ajax::Ui::LogicalButtons Pages: 1 -->
<svg width="2347pt" height="396pt"
 viewBox="0.00 0.00 2347.00 395.88" xmlns="http://www.w3.org/2000/svg" xmlns:xlink="http://www.w3.org/1999/xlink">
<g id="graph0" class="graph" transform="scale(1 1) rotate(0) translate(4 391.88)">
<title>Ajax::Ui::LogicalButtons</title>
<!-- Node1 -->
<g id="Node000001" class="node">
<title>Node1</title>
<g id="a_Node000001"><a xlink:title="This concrete class translates physical button actions into logical UI Button events.">
<polygon fill="#999999" stroke="#666666" points="2339,-238.88 2220.25,-238.88 2220.25,-219.62 2339,-219.62 2339,-238.88"/>
<text text-anchor="middle" x="2279.62" y="-225.38" font-family="Helvetica,sans-Serif" font-size="10.00">Ajax::Ui::LogicalButtons</text>
</a>
</g>
</g>
<!-- Node2 -->
<g id="Node000002" class="node">
<title>Node2</title>
<g id="a_Node000002"><a xlink:href="class_cpl_1_1_itc_1_1_close_sync.html" target="_top" xlink:title="This partially concrete class implements the synchronous ITC close call for the CloseApi.">
<polygon fill="white" stroke="#666666" points="2101.75,-294.88 2004.75,-294.88 2004.75,-275.62 2101.75,-275.62 2101.75,-294.88"/>
<text text-anchor="middle" x="2053.25" y="-281.38" font-family="Helvetica,sans-Serif" font-size="10.00">Cpl::Itc::CloseSync</text>
</a>
</g>
</g>
<!-- Node2&#45;&gt;Node1 -->
<g id="edge1_Node000001_Node000002" class="edge">
<title>Node2&#45;&gt;Node1</title>
<g id="a_edge1_Node000001_Node000002"><a xlink:title=" ">
<path fill="none" stroke="#63b8ff" d="M2105.55,-272.45C2145.8,-262.4 2201.05,-248.61 2238.2,-239.34"/>
<polygon fill="#63b8ff" stroke="#63b8ff" points="2104.95,-268.99 2096.09,-274.81 2106.64,-275.78 2104.95,-268.99"/>
</a>
</g>
</g>
<!-- Node3 -->
<g id="Node000003" class="node">
<title>Node3</title>
<g id="a_Node000003"><a xlink:href="class_cpl_1_1_itc_1_1_open_sync.html" target="_top" xlink:title="This partially concrete class implements the synchronous ITC open call for the OpenApi.">
<polygon fill="white" stroke="#666666" points="1856.25,-350.88 1760.75,-350.88 1760.75,-331.62 1856.25,-331.62 1856.25,-350.88"/>
<text text-anchor="middle" x="1808.5" y="-337.38" font-family="Helvetica,sans-Serif" font-size="10.00">Cpl::Itc::OpenSync</text>
</a>
</g>
</g>
<!-- Node3&#45;&gt;Node2 -->
<g id="edge2_Node000002_Node000003" class="edge">
<title>Node3&#45;&gt;Node2</title>
<g id="a_edge2_Node000002_Node000003"><a xlink:title=" ">
<path fill="none" stroke="#63b8ff" d="M1867.63,-331.28C1898.87,-325.55 1937.97,-317.81 1972.5,-309.25 1988.78,-305.21 2006.68,-299.91 2021.39,-295.31"/>
<polygon fill="#63b8ff" stroke="#63b8ff" points="1867.2,-327.8 1857.98,-333.02 1868.45,-334.68 1867.2,-327.8"/>
</a>
</g>
</g>
<!-- Node4 -->
<g id="Node000004" class="node">
<title>Node4</title>
<g id="a_Node000004"><a xlink:href="class_cpl_1_1_itc_1_1_open_api.html" target="_top" xlink:title="This abstract class defines an open interface.">
<polygon fill="white" stroke="#666666" points="1608.88,-387.88 1520.88,-387.88 1520.88,-368.62 1608.88,-368.62 1608.88,-387.88"/>
<text text-anchor="middle" x="1564.88" y="-374.38" font-family="Helvetica,sans-Serif" font-size="10.00">Cpl::Itc::OpenApi</text>
</a>
</g>
</g>
<!-- Node4&#45;&gt;Node3 -->
<g id="edge3_Node000003_Node000004" class="edge">
<title>Node4&#45;&gt;Node3</title>
<g id="a_edge3_Node000003_Node000004"><a xlink:title=" ">
<path fill="none" stroke="#63b8ff" d="M1620.37,-370.96C1651.8,-366.64 1692.05,-360.92 1727.75,-355.25 1738.3,-353.57 1749.62,-351.66 1760.31,-349.8"/>
<polygon fill="#63b8ff" stroke="#63b8ff" points="1620.15,-367.46 1610.72,-372.28 1621.1,-374.39 1620.15,-367.46"/>
</a>
</g>
</g>
<!-- Node5 -->
<g id="Node000005" class="node">
<title>Node5</title>
<g id="a_Node000005"><a xlink:href="class_cpl_1_1_itc_1_1_open_request.html" target="_top" xlink:title="This abstract class define message types and payloads for a set of ITC services.">
<polygon fill="white" stroke="#666666" points="1619.75,-350.88 1510,-350.88 1510,-331.62 1619.75,-331.62 1619.75,-350.88"/>
<text text-anchor="middle" x="1564.88" y="-337.38" font-family="Helvetica,sans-Serif" font-size="10.00">Cpl::Itc::OpenRequest</text>
</a>
</g>
</g>
<!-- Node5&#45;&gt;Node3 -->
<g id="edge4_Node000003_Node000005" class="edge">
<title>Node5&#45;&gt;Node3</title>
<g id="a_edge4_Node000003_Node000005"><a xlink:title=" ">
<path fill="none" stroke="#63b8ff" d="M1631.56,-341.25C1672.3,-341.25 1723.69,-341.25 1760.39,-341.25"/>
<polygon fill="#63b8ff" stroke="#63b8ff" points="1631.61,-337.75 1621.61,-341.25 1631.61,-344.75 1631.61,-337.75"/>
</a>
</g>
</g>
<!-- Node6 -->
<g id="Node000006" class="node">
<title>Node6</title>
<g id="a_Node000006"><a xlink:href="class_cpl_1_1_itc_1_1_post_api.html" target="_top" xlink:title="This abstract class represents the interface used to send messages to a mailbox.">
<polygon fill="white" stroke="#666666" points="1607.38,-313.88 1522.38,-313.88 1522.38,-294.62 1607.38,-294.62 1607.38,-313.88"/>
<text text-anchor="middle" x="1564.88" y="-300.38" font-family="Helvetica,sans-Serif" font-size="10.00">Cpl::Itc::PostApi</text>
</a>
</g>
</g>
<!-- Node6&#45;&gt;Node3 -->
<g id="edge5_Node000003_Node000006" class="edge">
<title>Node6&#45;&gt;Node3</title>
<g id="a_edge5_Node000003_Node000006"><a xlink:title=" ">
<path fill="none" stroke="#9a32cd" stroke-dasharray="5,2" d="M1618.78,-310.61C1650.45,-314.6 1691.48,-320.1 1727.75,-326 1738.32,-327.72 1749.65,-329.76 1760.35,-331.79"/>
<polygon fill="#9a32cd" stroke="#9a32cd" points="1619.41,-307.16 1609.06,-309.39 1618.55,-314.11 1619.41,-307.16"/>
</a>
</g>
<text text-anchor="middle" x="1682.75" y="-327" font-family="Helvetica,sans-Serif" font-size="10.00" fill="grey"> m_mbox</text>
</g>
<!-- Node7 -->
<g id="Node000007" class="node">
<title>Node7</title>
<g id="a_Node000007"><a xlink:href="class_cpl_1_1_itc_1_1_close_api.html" target="_top" xlink:title="This abstract class defines an close interface.">
<polygon fill="white" stroke="#666666" points="1853.25,-313.88 1763.75,-313.88 1763.75,-294.62 1853.25,-294.62 1853.25,-313.88"/>
<text text-anchor="middle" x="1808.5" y="-300.38" font-family="Helvetica,sans-Serif" font-size="10.00">Cpl::Itc::CloseApi</text>
</a>
</g>
</g>
<!-- Node7&#45;&gt;Node2 -->
<g id="edge6_Node000002_Node000007" class="edge">
<title>Node7&#45;&gt;Node2</title>
<g id="a_edge6_Node000002_Node000007"><a xlink:title=" ">
<path fill="none" stroke="#63b8ff" d="M1865.2,-299.89C1907.32,-296.59 1964.55,-292.11 2004.58,-288.98"/>
<polygon fill="#63b8ff" stroke="#63b8ff" points="1864.95,-296.4 1855.25,-300.67 1865.49,-303.38 1864.95,-296.4"/>
</a>
</g>
</g>
<!-- Node8 -->
<g id="Node000008" class="node">
<title>Node8</title>
<g id="a_Node000008"><a xlink:href="class_cpl_1_1_itc_1_1_close_request.html" target="_top" xlink:title="This abstract class define message types and payloads for a set of ITC services.">
<polygon fill="white" stroke="#666666" points="1864.12,-276.88 1752.88,-276.88 1752.88,-257.62 1864.12,-257.62 1864.12,-276.88"/>
<text text-anchor="middle" x="1808.5" y="-263.38" font-family="Helvetica,sans-Serif" font-size="10.00">Cpl::Itc::CloseRequest</text>
</a>
</g>
</g>
<!-- Node8&#45;&gt;Node2 -->
<g id="edge7_Node000002_Node000008" class="edge">
<title>Node8&#45;&gt;Node2</title>
<g id="a_edge7_Node000002_Node000008"><a xlink:title=" ">
<path fill="none" stroke="#63b8ff" d="M1876.02,-272.18C1916.66,-275.2 1967.68,-278.98 2004.36,-281.7"/>
<polygon fill="#63b8ff" stroke="#63b8ff" points="1876.32,-268.7 1866.09,-271.45 1875.81,-275.68 1876.32,-268.7"/>
</a>
</g>
</g>
<!-- Node9 -->
<g id="Node000009" class="node">
<title>Node9</title>
<g id="a_Node000009"><a xlink:href="class_cpl_1_1_system_1_1_timer.html" target="_top" xlink:title="This mostly concrete interface defines the operations that can be performed on a software timer.">
<polygon fill="white" stroke="#666666" points="1224.5,-245.88 1127.5,-245.88 1127.5,-226.62 1224.5,-226.62 1224.5,-245.88"/>
<text text-anchor="middle" x="1176" y="-232.38" font-family="Helvetica,sans-Serif" font-size="10.00">Cpl::System::Timer</text>
</a>
</g>
</g>
<!-- Node9&#45;&gt;Node1 -->
<g id="edge8_Node000001_Node000009" class="edge">
<title>Node9&#45;&gt;Node1</title>
<g id="a_edge8_Node000001_Node000009"><a xlink:title=" ">
<path fill="none" stroke="#63b8ff" d="M1236.16,-233.57C1284.84,-231.59 1355.63,-229.25 1417.5,-229.25 1417.5,-229.25 1417.5,-229.25 2054.25,-229.25 2110.54,-229.25 2174.77,-229.25 2220.04,-229.25"/>
<polygon fill="#63b8ff" stroke="#63b8ff" points="1236.26,-230.06 1226.41,-233.97 1236.55,-237.06 1236.26,-230.06"/>
</a>
</g>
</g>
<!-- Node10 -->
<g id="Node000010" class="node">
<title>Node10</title>
<g id="a_Node000010"><a xlink:href="class_cpl_1_1_system_1_1_counter_callback__.html" target="_top" xlink:title="This abstract class defines the call&#45;back interface for a Counter object.">
<polygon fill="white" stroke="#666666" points="1002.25,-245.88 853.5,-245.88 853.5,-226.62 1002.25,-226.62 1002.25,-245.88"/>
<text text-anchor="middle" x="927.88" y="-232.38" font-family="Helvetica,sans-Serif" font-size="10.00">Cpl::System::CounterCallback_</text>
</a>
</g>
</g>
<!-- Node10&#45;&gt;Node9 -->
<g id="edge9_Node000009_Node000010" class="edge">
<title>Node10&#45;&gt;Node9</title>
<g id="a_edge9_Node000009_Node000010"><a xlink:title=" ">
<path fill="none" stroke="#63b8ff" d="M1013.79,-236.25C1051.74,-236.25 1095.06,-236.25 1127.23,-236.25"/>
<polygon fill="#63b8ff" stroke="#63b8ff" points="1014.23,-232.75 1004.23,-236.25 1014.23,-239.75 1014.23,-232.75"/>
</a>
</g>
</g>
<!-- Node11 -->
<g id="Node000011" class="node">
<title>Node11</title>
<g id="a_Node000011"><a xlink:href="class_cpl_1_1_container_1_1_extended_item.html" target="_top" xlink:title="This class is used by the Container classes to implement a various types of DOUBLY linked containers.">
<polygon fill="white" stroke="#666666" points="721.5,-245.88 581.75,-245.88 581.75,-226.62 721.5,-226.62 721.5,-245.88"/>
<text text-anchor="middle" x="651.62" y="-232.38" font-family="Helvetica,sans-Serif" font-size="10.00">Cpl::Container::ExtendedItem</text>
</a>
</g>
</g>
<!-- Node11&#45;&gt;Node10 -->
<g id="edge10_Node000010_Node000011" class="edge">
<title>Node11&#45;&gt;Node10</title>
<g id="a_edge10_Node000010_Node000011"><a xlink:title=" ">
<path fill="none" stroke="#63b8ff" d="M732.89,-236.25C770.98,-236.25 816.18,-236.25 853.37,-236.25"/>
<polygon fill="#63b8ff" stroke="#63b8ff" points="733.34,-232.75 723.34,-236.25 733.34,-239.75 733.34,-232.75"/>
</a>
</g>
</g>
<!-- Node12 -->
<g id="Node000012" class="node">
<title>Node12</title>
<g id="a_Node000012"><a xlink:href="class_cpl_1_1_container_1_1_item.html" target="_top" xlink:title="This class is used by the Container classes to implement a various types of singly linked containers.">
<polygon fill="white" stroke="#666666" points="363.5,-245.88 263.5,-245.88 263.5,-226.62 363.5,-226.62 363.5,-245.88"/>
<text text-anchor="middle" x="313.5" y="-232.38" font-family="Helvetica,sans-Serif" font-size="10.00">Cpl::Container::Item</text>
</a>
</g>
</g>
<!-- Node12&#45;&gt;Node11 -->
<g id="edge11_Node000011_Node000012" class="edge">
<title>Node12&#45;&gt;Node11</title>
<g id="a_edge11_Node000011_Node000012"><a xlink:title=" ">
<path fill="none" stroke="#63b8ff" d="M374.93,-236.25C432.98,-236.25 520.58,-236.25 581.4,-236.25"/>
<polygon fill="#63b8ff" stroke="#63b8ff" points="375.25,-232.75 365.25,-236.25 375.25,-239.75 375.25,-232.75"/>
</a>
</g>
</g>
<!-- Node24 -->
<g id="Node000024" class="node">
<title>Node24</title>
<g id="a_Node000024"><a xlink:href="class_cpl_1_1_dm_1_1_model_point.html" target="_top" xlink:title="This mostly abstract class defines the interface for a Model Point.">
<polygon fill="white" stroke="#666666" points="703.12,-208.88 600.12,-208.88 600.12,-189.62 703.12,-189.62 703.12,-208.88"/>
<text text-anchor="middle" x="651.62" y="-195.38" font-family="Helvetica,sans-Serif" font-size="10.00">Cpl::Dm::ModelPoint</text>
</a>
</g>
</g>
<!-- Node12&#45;&gt;Node24 -->
<g id="edge24_Node000024_Node000012" class="edge">
<title>Node12&#45;&gt;Node24</title>
<g id="a_edge24_Node000024_Node000012"><a xlink:title=" ">
<path fill="none" stroke="#63b8ff" d="M374.9,-229.6C439.13,-222.53 539.6,-211.47 599.88,-204.84"/>
<polygon fill="#63b8ff" stroke="#63b8ff" points="374.8,-226.09 365.24,-230.66 375.56,-233.05 374.8,-226.09"/>
</a>
</g>
</g>
<!-- Node13 -->
<g id="Node000013" class="node">
<title>Node13</title>
<g id="a_Node000013"><a xlink:href="class_cpl_1_1_system_1_1_timer_manager.html" target="_top" xlink:title="This mostly concrete class implements manages a list of Software Timers.">
<polygon fill="white" stroke="#666666" points="995.12,-337.88 860.62,-337.88 860.62,-318.62 995.12,-318.62 995.12,-337.88"/>
<text text-anchor="middle" x="927.88" y="-324.38" font-family="Helvetica,sans-Serif" font-size="10.00">Cpl::System::TimerManager</text>
</a>
</g>
</g>
<!-- Node13&#45;&gt;Node9 -->
<g id="edge12_Node000009_Node000013" class="edge">
<title>Node13&#45;&gt;Node9</title>
<g id="a_edge12_Node000009_Node000013"><a xlink:title=" ">
<path fill="none" stroke="#9a32cd" stroke-dasharray="5,2" d="M966.38,-314.23C1016.54,-295.48 1104.23,-262.7 1148.22,-246.26"/>
<polygon fill="#9a32cd" stroke="#9a32cd" points="965.24,-310.92 957.1,-317.7 967.69,-317.48 965.24,-310.92"/>
</a>
</g>
<text text-anchor="middle" x="1056.62" y="-295" font-family="Helvetica,sans-Serif" font-size="10.00" fill="grey"> m_timingSource</text>
</g>
<!-- Node14 -->
<g id="Node000014" class="node">
<title>Node14</title>
<g id="a_Node000014"><a xlink:href="class_cpl_1_1_system_1_1_counter_source__.html" target="_top" xlink:title="This abstract class defines the interface for registering for an Counter object with the Timer Manage...">
<polygon fill="white" stroke="#666666" points="722.62,-380.88 580.62,-380.88 580.62,-361.62 722.62,-361.62 722.62,-380.88"/>
<text text-anchor="middle" x="651.62" y="-367.38" font-family="Helvetica,sans-Serif" font-size="10.00">Cpl::System::CounterSource_</text>
</a>
</g>
</g>
<!-- Node14&#45;&gt;Node13 -->
<g id="edge13_Node000013_Node000014" class="edge">
<title>Node14&#45;&gt;Node13</title>
<g id="a_edge13_Node000013_Node000014"><a xlink:title=" ">
<path fill="none" stroke="#63b8ff" d="M734.45,-367.6C766.19,-365.27 802.73,-361.46 835.5,-355.25 856.95,-351.18 880.58,-344.13 898.43,-338.26"/>
<polygon fill="#63b8ff" stroke="#63b8ff" points="734.23,-364.1 724.49,-368.29 734.71,-371.09 734.23,-364.1"/>
</a>
</g>
</g>
<!-- Node15 -->
<g id="Node000015" class="node">
<title>Node15</title>
<g id="a_Node000015"><a xlink:href="class_cpl_1_1_container_1_1_d_list.html" target="_top" xlink:title=" ">
<polygon fill="white" stroke="#666666" points="734.25,-343.5 569,-343.5 569,-313 734.25,-313 734.25,-343.5"/>
<text text-anchor="start" x="577" y="-330" font-family="Helvetica,sans-Serif" font-size="10.00">Cpl::Container::DList</text>
<text text-anchor="middle" x="651.62" y="-318.75" font-family="Helvetica,sans-Serif" font-size="10.00">&lt; Cpl::System::CounterCallback_ &gt;</text>
</a>
</g>
</g>
<!-- Node15&#45;&gt;Node13 -->
<g id="edge14_Node000013_Node000015" class="edge">
<title>Node15&#45;&gt;Node13</title>
<g id="a_edge14_Node000013_Node000015"><a xlink:title=" ">
<path fill="none" stroke="#9a32cd" stroke-dasharray="5,2" d="M746.04,-328.25C783.67,-328.25 826.21,-328.25 860.57,-328.25"/>
<polygon fill="#9a32cd" stroke="#9a32cd" points="746.05,-324.75 736.05,-328.25 746.05,-331.75 746.05,-324.75"/>
</a>
</g>
<text text-anchor="middle" x="793.88" y="-341.25" font-family="Helvetica,sans-Serif" font-size="10.00" fill="grey"> m_counters</text>
<text text-anchor="middle" x="793.88" y="-330" font-family="Helvetica,sans-Serif" font-size="10.00" fill="grey">m_pendingAttach</text>
</g>
<!-- Node16 -->
<g id="Node000016" class="node">
<title>Node16</title>
<g id="a_Node000016"><a xlink:href="class_cpl_1_1_container_1_1_d_list.html" target="_top" xlink:title="This template class implements a Doubly linked list which maintains the ordering imposed on it by the...">
<polygon fill="white" stroke="#666666" points="365.38,-299.5 261.62,-299.5 261.62,-269 365.38,-269 365.38,-299.5"/>
<text text-anchor="start" x="269.62" y="-286" font-family="Helvetica,sans-Serif" font-size="10.00">Cpl::Container::DList</text>
<text text-anchor="middle" x="313.5" y="-274.75" font-family="Helvetica,sans-Serif" font-size="10.00">&lt; ITEM &gt;</text>
</a>
</g>
</g>
<!-- Node16&#45;&gt;Node15 -->
<g id="edge15_Node000015_Node000016" class="edge">
<title>Node16&#45;&gt;Node15</title>
<g id="a_edge15_Node000015_Node000016"><a xlink:title=" ">
<path fill="none" stroke="orange" stroke-dasharray="5,2" d="M376.79,-294.83C384.43,-296.04 392.14,-297.2 399.5,-298.25 455.8,-306.24 519.4,-313.83 568.51,-319.37"/>
<polygon fill="orange" stroke="orange" points="377.61,-291.42 367.18,-293.3 376.5,-298.33 377.61,-291.42"/>
</a>
</g>
<text text-anchor="middle" x="475.25" y="-318" font-family="Helvetica,sans-Serif" font-size="10.00" fill="grey"> &lt; Cpl::System::CounterCallback_ &gt;</text>
</g>
<!-- Node25 -->
<g id="Node000025" class="node">
<title>Node25</title>
<g id="a_Node000025"><a xlink:href="class_cpl_1_1_container_1_1_d_list.html" target="_top" xlink:title=" ">
<polygon fill="white" stroke="#666666" points="717.38,-294.5 585.88,-294.5 585.88,-264 717.38,-264 717.38,-294.5"/>
<text text-anchor="start" x="593.88" y="-281" font-family="Helvetica,sans-Serif" font-size="10.00">Cpl::Container::DList</text>
<text text-anchor="middle" x="651.62" y="-269.75" font-family="Helvetica,sans-Serif" font-size="10.00">&lt; Cpl::Dm::SubscriberApi &gt;</text>
</a>
</g>
</g>
<!-- Node16&#45;&gt;Node25 -->
<g id="edge26_Node000025_Node000016" class="edge">
<title>Node16&#45;&gt;Node25</title>
<g id="a_edge26_Node000025_Node000016"><a xlink:title=" ">
<path fill="none" stroke="orange" stroke-dasharray="5,2" d="M377.01,-283.32C436.39,-282.44 525.3,-281.11 585.52,-280.22"/>
<polygon fill="orange" stroke="orange" points="377.01,-279.82 367.06,-283.47 377.11,-286.82 377.01,-279.82"/>
</a>
</g>
<text text-anchor="middle" x="475.25" y="-285" font-family="Helvetica,sans-Serif" font-size="10.00" fill="grey"> &lt; Cpl::Dm::SubscriberApi &gt;</text>
</g>
<!-- Node17 -->
<g id="Node000017" class="node">
<title>Node17</title>
<g id="a_Node000017"><a xlink:href="class_cpl_1_1_container_1_1_ring_buffer_m_p.html" target="_top" xlink:title=" ">
<polygon fill="white" stroke="#666666" points="2116,-139.5 1990.5,-139.5 1990.5,-109 2116,-109 2116,-139.5"/>
<text text-anchor="start" x="1998.5" y="-126" font-family="Helvetica,sans-Serif" font-size="10.00">Cpl::Container::RingBuffer</text>
<text text-anchor="middle" x="2053.25" y="-114.75" font-family="Helvetica,sans-Serif" font-size="10.00">MP&lt; AjaxUiEvent_T &gt;</text>
</a>
</g>
</g>
<!-- Node17&#45;&gt;Node1 -->
<g id="edge16_Node000001_Node000017" class="edge">
<title>Node17&#45;&gt;Node1</title>
<g id="a_edge16_Node000001_Node000017"><a xlink:title=" ">
<path fill="none" stroke="#9a32cd" stroke-dasharray="5,2" d="M2098.21,-144.82C2146.03,-167.2 2220.52,-202.06 2257,-219.13"/>
<polygon fill="#9a32cd" stroke="#9a32cd" points="2099.75,-141.68 2089.21,-140.61 2096.79,-148.02 2099.75,-141.68"/>
</a>
</g>
<text text-anchor="middle" x="2168.12" y="-195" font-family="Helvetica,sans-Serif" font-size="10.00" fill="grey"> m_eventQueue</text>
</g>
<!-- Node18 -->
<g id="Node000018" class="node">
<title>Node18</title>
<g id="a_Node000018"><a xlink:href="class_cpl_1_1_container_1_1_ring_buffer_m_t.html" target="_top" xlink:title="This template class implements a THREAD SAFE Ring Buffer.">
<polygon fill="white" stroke="#666666" points="714.38,-109.5 588.88,-109.5 588.88,-79 714.38,-79 714.38,-109.5"/>
<text text-anchor="start" x="596.88" y="-96" font-family="Helvetica,sans-Serif" font-size="10.00">Cpl::Container::RingBuffer</text>
<text text-anchor="middle" x="651.62" y="-84.75" font-family="Helvetica,sans-Serif" font-size="10.00">MT&lt; ITEM &gt;</text>
</a>
</g>
</g>
<!-- Node18&#45;&gt;Node17 -->
<g id="edge17_Node000017_Node000018" class="edge">
<title>Node18&#45;&gt;Node17</title>
<g id="a_edge17_Node000017_Node000018"><a xlink:title=" ">
<path fill="none" stroke="#63b8ff" d="M726.14,-94.25C781.37,-94.25 858.86,-94.25 926.88,-94.25 926.88,-94.25 926.88,-94.25 1809.5,-94.25 1871.29,-94.25 1941.25,-103.94 1990.15,-112.31"/>
<polygon fill="#63b8ff" stroke="#63b8ff" points="726.22,-90.75 716.22,-94.25 726.22,-97.75 726.22,-90.75"/>
</a>
</g>
</g>
<!-- Node19 -->
<g id="Node000019" class="node">
<title>Node19</title>
<g id="a_Node000019"><a xlink:href="class_cpl_1_1_container_1_1_ring_buffer.html" target="_top" xlink:title="This template class implements a Ring Buffer.">
<polygon fill="white" stroke="#666666" points="376.25,-30.5 250.75,-30.5 250.75,0 376.25,0 376.25,-30.5"/>
<text text-anchor="start" x="258.75" y="-17" font-family="Helvetica,sans-Serif" font-size="10.00">Cpl::Container::RingBuffer</text>
<text text-anchor="middle" x="313.5" y="-5.75" font-family="Helvetica,sans-Serif" font-size="10.00">&lt; ITEM &gt;</text>
</a>
</g>
</g>
<!-- Node19&#45;&gt;Node18 -->
<g id="edge18_Node000018_Node000019" class="edge">
<title>Node19&#45;&gt;Node18</title>
<g id="a_edge18_Node000018_Node000019"><a xlink:title=" ">
<path fill="none" stroke="#63b8ff" d="M387.91,-17.42C436.14,-21.19 499.59,-30.73 551,-54.25 560.47,-58.58 559.84,-64.29 569,-69.25 575.52,-72.78 582.6,-75.88 589.79,-78.59"/>
<polygon fill="#63b8ff" stroke="#63b8ff" points="388.34,-13.94 378.12,-16.72 387.85,-20.92 388.34,-13.94"/>
</a>
</g>
</g>
<!-- Node32 -->
<g id="Node000032" class="node">
<title>Node32</title>
<g id="a_Node000032"><a xlink:href="class_cpl_1_1_container_1_1_ring_buffer_m_t.html" target="_top" xlink:title="This template class implements a THREAD SAFE Ring Buffer.">
<polygon fill="white" stroke="#666666" points="714.38,-60.5 588.88,-60.5 588.88,-30 714.38,-30 714.38,-60.5"/>
<text text-anchor="start" x="596.88" y="-47" font-family="Helvetica,sans-Serif" font-size="10.00">Cpl::Container::RingBuffer</text>
<text text-anchor="middle" x="651.62" y="-35.75" font-family="Helvetica,sans-Serif" font-size="10.00">MT&lt; ITEM &gt;</text>
</a>
</g>
</g>
<!-- Node19&#45;&gt;Node32 -->
<g id="edge36_Node000032_Node000019" class="edge">
<title>Node19&#45;&gt;Node32</title>
<g id="a_edge36_Node000032_Node000019"><a xlink:title=" ">
<path fill="none" stroke="#63b8ff" d="M387.87,-10.32C434.77,-8.46 496.75,-8.4 551,-16.25 569.54,-18.93 589.46,-24.22 606.58,-29.56"/>
<polygon fill="#63b8ff" stroke="#63b8ff" points="387.94,-6.82 378.11,-10.75 388.25,-13.81 387.94,-6.82"/>
</a>
</g>
</g>
<!-- Node20 -->
<g id="Node000020" class="node">
<title>Node20</title>
<g id="a_Node000020"><a xlink:href="class_cpl_1_1_system_1_1_mutex.html" target="_top" xlink:title="This mutex class defines the interface for a mutex that has &quot;recursive&quot; semantics.">
<polygon fill="white" stroke="#666666" points="362.75,-103.88 264.25,-103.88 264.25,-84.62 362.75,-84.62 362.75,-103.88"/>
<text text-anchor="middle" x="313.5" y="-90.38" font-family="Helvetica,sans-Serif" font-size="10.00">Cpl::System::Mutex</text>
</a>
</g>
</g>
<!-- Node20&#45;&gt;Node18 -->
<g id="edge19_Node000018_Node000020" class="edge">
<title>Node20&#45;&gt;Node18</title>
<g id="a_edge19_Node000018_Node000020"><a xlink:title=" ">
<path fill="none" stroke="#9a32cd" stroke-dasharray="5,2" d="M374.25,-94.25C434.54,-94.25 527.24,-94.25 588.4,-94.25"/>
<polygon fill="#9a32cd" stroke="#9a32cd" points="374.53,-90.75 364.53,-94.25 374.53,-97.75 374.53,-90.75"/>
</a>
</g>
<text text-anchor="middle" x="475.25" y="-96" font-family="Helvetica,sans-Serif" font-size="10.00" fill="grey"> m_lock</text>
</g>
<!-- Node26 -->
<g id="Node000026" class="node">
<title>Node26</title>
<g id="a_Node000026"><a xlink:href="class_cpl_1_1_dm_1_1_model_database.html" target="_top" xlink:title="This concrete class implements a simple Model Database.">
<polygon fill="white" stroke="#666666" points="712.5,-171.88 590.75,-171.88 590.75,-152.62 712.5,-152.62 712.5,-171.88"/>
<text text-anchor="middle" x="651.62" y="-158.38" font-family="Helvetica,sans-Serif" font-size="10.00">Cpl::Dm::ModelDatabase</text>
</a>
</g>
</g>
<!-- Node20&#45;&gt;Node26 -->
<g id="edge31_Node000026_Node000020" class="edge">
<title>Node20&#45;&gt;Node26</title>
<g id="a_edge31_Node000026_Node000020"><a xlink:title=" ">
<path fill="none" stroke="#9a32cd" stroke-dasharray="5,2" d="M374.36,-102.93C422.36,-110.28 491.32,-121.73 551,-135 573.23,-139.94 597.92,-146.69 617.16,-152.23"/>
<polygon fill="#9a32cd" stroke="#9a32cd" points="375.14,-99.51 364.73,-101.47 374.09,-106.43 375.14,-99.51"/>
</a>
</g>
<text text-anchor="middle" x="475.25" y="-137" font-family="Helvetica,sans-Serif" font-size="10.00" fill="grey"> m_lock</text>
</g>
<!-- Node20&#45;&gt;Node32 -->
<g id="edge37_Node000032_Node000020" class="edge">
<title>Node20&#45;&gt;Node32</title>
<g id="a_edge37_Node000032_Node000020"><a xlink:title=" ">
<path fill="none" stroke="#9a32cd" stroke-dasharray="5,2" d="M374.06,-83.22C382.59,-81.74 391.26,-80.29 399.5,-79 463.82,-68.91 537.7,-59.21 588.59,-52.82"/>
<polygon fill="#9a32cd" stroke="#9a32cd" points="373.72,-79.73 364.47,-84.91 374.93,-86.62 373.72,-79.73"/>
</a>
</g>
<text text-anchor="middle" x="475.25" y="-81" font-family="Helvetica,sans-Serif" font-size="10.00" fill="grey"> m_lock</text>
</g>
<!-- Node21 -->
<g id="Node000021" class="node">
<title>Node21</title>
<g id="a_Node000021"><a xlink:href="class_cpl_1_1_dm_1_1_mp_1_1_uint32.html" target="_top" xlink:title="This class provides a concrete implementation for a Point who&#39;s data is a uint32_t.">
<polygon fill="white" stroke="#666666" points="1615.25,-162.88 1514.5,-162.88 1514.5,-143.62 1615.25,-143.62 1615.25,-162.88"/>
<text text-anchor="middle" x="1564.88" y="-149.38" font-family="Helvetica,sans-Serif" font-size="10.00">Cpl::Dm::Mp::Uint32</text>
</a>
</g>
</g>
<!-- Node21&#45;&gt;Node17 -->
<g id="edge20_Node000017_Node000021" class="edge">
<title>Node21&#45;&gt;Node17</title>
<g id="a_edge20_Node000017_Node000021"><a xlink:title=" ">
<path fill="none" stroke="#9a32cd" stroke-dasharray="5,2" d="M1627.11,-149.6C1720.2,-144.05 1896.33,-133.55 1990.01,-127.96"/>
<polygon fill="#9a32cd" stroke="#9a32cd" points="1626.92,-146.1 1617.15,-150.19 1627.34,-153.09 1626.92,-146.1"/>
</a>
</g>
<text text-anchor="middle" x="1808.5" y="-144" font-family="Helvetica,sans-Serif" font-size="10.00" fill="grey"> m_mpElementCount</text>
</g>
<!-- Node31 -->
<g id="Node000031" class="node">
<title>Node31</title>
<g id="a_Node000031"><a xlink:href="class_cpl_1_1_container_1_1_ring_buffer_m_p.html" target="_top" xlink:title="This template class implements a THREAD SAFE Ring Buffer AND it maintains/reports the number of eleme...">
<polygon fill="white" stroke="#666666" points="1871.25,-66.5 1745.75,-66.5 1745.75,-36 1871.25,-36 1871.25,-66.5"/>
<text text-anchor="start" x="1753.75" y="-53" font-family="Helvetica,sans-Serif" font-size="10.00">Cpl::Container::RingBuffer</text>
<text text-anchor="middle" x="1808.5" y="-41.75" font-family="Helvetica,sans-Serif" font-size="10.00">MP&lt; ITEM &gt;</text>
</a>
</g>
</g>
<!-- Node21&#45;&gt;Node31 -->
<g id="edge38_Node000031_Node000021" class="edge">
<title>Node21&#45;&gt;Node31</title>
<g id="a_edge38_Node000031_Node000021"><a xlink:title=" ">
<path fill="none" stroke="#9a32cd" stroke-dasharray="5,2" d="M1599.89,-138.89C1644.9,-119.89 1723.98,-86.51 1770.46,-66.88"/>
<polygon fill="#9a32cd" stroke="#9a32cd" points="1598.73,-135.58 1590.88,-142.7 1601.45,-142.03 1598.73,-135.58"/>
</a>
</g>
<text text-anchor="middle" x="1682.75" y="-123" font-family="Helvetica,sans-Serif" font-size="10.00" fill="grey"> m_mpElementCount</text>
</g>
<!-- Node22 -->
<g id="Node000022" class="node">
<title>Node22</title>
<g id="a_Node000022"><a xlink:href="class_cpl_1_1_dm_1_1_mp_1_1_numeric.html" target="_top" xlink:title=" ">
<polygon fill="white" stroke="#666666" points="1473,-169.5 1364,-169.5 1364,-139 1473,-139 1473,-169.5"/>
<text text-anchor="start" x="1372" y="-156" font-family="Helvetica,sans-Serif" font-size="10.00">Cpl::Dm::Mp::Numeric</text>
<text text-anchor="middle" x="1418.5" y="-144.75" font-family="Helvetica,sans-Serif" font-size="10.00">&lt; uint32_t, Uint32 &gt;</text>
</a>
</g>
</g>
<!-- Node22&#45;&gt;Node21 -->
<g id="edge21_Node000021_Node000022" class="edge">
<title>Node22&#45;&gt;Node21</title>
<g id="a_edge21_Node000021_Node000022"><a xlink:title=" ">
<path fill="none" stroke="#63b8ff" d="M1484.47,-153.8C1494.51,-153.73 1504.74,-153.66 1514.37,-153.59"/>
<polygon fill="#63b8ff" stroke="#63b8ff" points="1484.75,-150.3 1474.77,-153.87 1484.8,-157.3 1484.75,-150.3"/>
</a>
</g>
</g>
<!-- Node23 -->
<g id="Node000023" class="node">
<title>Node23</title>
<g id="a_Node000023"><a xlink:href="class_cpl_1_1_dm_1_1_model_point_common__.html" target="_top" xlink:title="This concrete class provide common infrastructure for a Model Point.">
<polygon fill="white" stroke="#666666" points="1001.5,-206.88 854.25,-206.88 854.25,-187.62 1001.5,-187.62 1001.5,-206.88"/>
<text text-anchor="middle" x="927.88" y="-193.38" font-family="Helvetica,sans-Serif" font-size="10.00">Cpl::Dm::ModelPointCommon_</text>
</a>
</g>
</g>
<!-- Node23&#45;&gt;Node22 -->
<g id="edge22_Node000022_Node000023" class="edge">
<title>Node23&#45;&gt;Node22</title>
<g id="a_edge22_Node000022_Node000023"><a xlink:title=" ">
<path fill="none" stroke="#63b8ff" d="M1013.3,-195.5C1097.86,-192.82 1231.52,-186.1 1346,-169.25 1351.77,-168.4 1357.78,-167.37 1363.75,-166.26"/>
<polygon fill="#63b8ff" stroke="#63b8ff" points="1013.36,-191.99 1003.47,-195.79 1013.58,-198.99 1013.36,-191.99"/>
</a>
</g>
</g>
<!-- Node30 -->
<g id="Node000030" class="node">
<title>Node30</title>
<g id="a_Node000030"><a xlink:href="class_cpl_1_1_dm_1_1_mp_1_1_numeric.html" target="_top" xlink:title="This template class provides a mostly concrete implementation for a Model Point who&#39;s data is a C num...">
<polygon fill="white" stroke="#666666" points="1241,-169.5 1111,-169.5 1111,-139 1241,-139 1241,-169.5"/>
<text text-anchor="start" x="1119" y="-156" font-family="Helvetica,sans-Serif" font-size="10.00">Cpl::Dm::Mp::Numeric</text>
<text text-anchor="middle" x="1176" y="-144.75" font-family="Helvetica,sans-Serif" font-size="10.00">&lt; ELEMTYPE, MPTYPE &gt;</text>
</a>
</g>
</g>
<!-- Node23&#45;&gt;Node30 -->
<g id="edge33_Node000030_Node000023" class="edge">
<title>Node23&#45;&gt;Node30</title>
<g id="a_edge33_Node000030_Node000023"><a xlink:title=" ">
<path fill="none" stroke="#63b8ff" d="M997.79,-185.21C1033.18,-179.03 1076.03,-171.54 1110.73,-165.48"/>
<polygon fill="#63b8ff" stroke="#63b8ff" points="997.32,-181.74 988.07,-186.91 998.52,-188.63 997.32,-181.74"/>
</a>
</g>
</g>
<!-- Node24&#45;&gt;Node23 -->
<g id="edge23_Node000023_Node000024" class="edge">
<title>Node24&#45;&gt;Node23</title>
<g id="a_edge23_Node000023_Node000024"><a xlink:title=" ">
<path fill="none" stroke="#63b8ff" d="M714.86,-198.8C756.19,-198.49 810.61,-198.1 853.97,-197.78"/>
<polygon fill="#63b8ff" stroke="#63b8ff" points="715.05,-195.29 705.08,-198.87 715.11,-202.29 715.05,-195.29"/>
</a>
</g>
</g>
<!-- Node25&#45;&gt;Node23 -->
<g id="edge25_Node000023_Node000025" class="edge">
<title>Node25&#45;&gt;Node23</title>
<g id="a_edge25_Node000023_Node000025"><a xlink:title=" ">
<path fill="none" stroke="#9a32cd" stroke-dasharray="5,2" d="M717.54,-260.31C723.2,-258.61 728.83,-256.91 734.25,-255.25 787.44,-238.96 800.15,-233.01 853.5,-217.25 864.9,-213.88 877.35,-210.41 888.71,-207.32"/>
<polygon fill="#9a32cd" stroke="#9a32cd" points="716.72,-256.9 708.13,-263.11 718.71,-263.61 716.72,-256.9"/>
</a>
</g>
<text text-anchor="middle" x="793.88" y="-251" font-family="Helvetica,sans-Serif" font-size="10.00" fill="grey"> m_subscribers</text>
</g>
<!-- Node26&#45;&gt;Node23 -->
<g id="edge27_Node000023_Node000026" class="edge">
<title>Node26&#45;&gt;Node23</title>
<g id="a_edge27_Node000023_Node000026"><a xlink:title=" ">
<path fill="none" stroke="#9a32cd" stroke-dasharray="5,2" d="M724.01,-169.65C757.85,-173.34 798.8,-178.06 835.5,-183 844.89,-184.26 854.8,-185.7 864.5,-187.17"/>
<polygon fill="#9a32cd" stroke="#9a32cd" points="724.65,-166.2 714.33,-168.61 723.9,-173.16 724.65,-166.2"/>
</a>
</g>
<text text-anchor="middle" x="793.88" y="-185" font-family="Helvetica,sans-Serif" font-size="10.00" fill="grey"> m_modelDatabase</text>
</g>
<!-- Node27 -->
<g id="Node000027" class="node">
<title>Node27</title>
<g id="a_Node000027"><a xlink:href="class_cpl_1_1_dm_1_1_model_database_api.html" target="_top" xlink:title="This class defines the basic operations that can be performed on a Model Base.">
<polygon fill="white" stroke="#666666" points="381.5,-197.88 245.5,-197.88 245.5,-178.62 381.5,-178.62 381.5,-197.88"/>
<text text-anchor="middle" x="313.5" y="-184.38" font-family="Helvetica,sans-Serif" font-size="10.00">Cpl::Dm::ModelDatabaseApi</text>
</a>
</g>
</g>
<!-- Node27&#45;&gt;Node26 -->
<g id="edge28_Node000026_Node000027" class="edge">
<title>Node27&#45;&gt;Node26</title>
<g id="a_edge28_Node000026_Node000027"><a xlink:title=" ">
<path fill="none" stroke="#63b8ff" d="M393.23,-183.57C439.25,-180.67 498.45,-176.66 551,-172.25 563.73,-171.18 577.36,-169.9 590.33,-168.62"/>
<polygon fill="#63b8ff" stroke="#63b8ff" points="393.1,-180.07 383.34,-184.18 393.53,-187.05 393.1,-180.07"/>
</a>
</g>
</g>
<!-- Node28 -->
<g id="Node000028" class="node">
<title>Node28</title>
<g id="a_Node000028"><a xlink:href="class_cpl_1_1_container_1_1_s_list.html" target="_top" xlink:title=" ">
<polygon fill="white" stroke="#666666" points="373.25,-160.5 253.75,-160.5 253.75,-130 373.25,-130 373.25,-160.5"/>
<text text-anchor="start" x="261.75" y="-147" font-family="Helvetica,sans-Serif" font-size="10.00">Cpl::Container::SList</text>
<text text-anchor="middle" x="313.5" y="-135.75" font-family="Helvetica,sans-Serif" font-size="10.00">&lt; Cpl::Dm::ModelPoint &gt;</text>
</a>
</g>
</g>
<!-- Node28&#45;&gt;Node26 -->
<g id="edge29_Node000026_Node000028" class="edge">
<title>Node28&#45;&gt;Node26</title>
<g id="a_edge29_Node000026_Node000028"><a xlink:title=" ">
<path fill="none" stroke="#9a32cd" stroke-dasharray="5,2" d="M384.85,-148.81C445.68,-151.88 532.66,-156.28 590.34,-159.2"/>
<polygon fill="#9a32cd" stroke="#9a32cd" points="385.11,-145.32 374.94,-148.31 384.76,-152.31 385.11,-145.32"/>
</a>
</g>
<text text-anchor="middle" x="475.25" y="-159" font-family="Helvetica,sans-Serif" font-size="10.00" fill="grey"> m_list</text>
</g>
<!-- Node29 -->
<g id="Node000029" class="node">
<title>Node29</title>
<g id="a_Node000029"><a xlink:href="class_cpl_1_1_container_1_1_s_list.html" target="_top" xlink:title="This template class implements a singly linked list which maintains the ordering imposed on it by the...">
<polygon fill="white" stroke="#666666" points="103.75,-160.5 0,-160.5 0,-130 103.75,-130 103.75,-160.5"/>
<text text-anchor="start" x="8" y="-147" font-family="Helvetica,sans-Serif" font-size="10.00">Cpl::Container::SList</text>
<text text-anchor="middle" x="51.88" y="-135.75" font-family="Helvetica,sans-Serif" font-size="10.00">&lt; ITEM &gt;</text>
</a>
</g>
</g>
<!-- Node29&#45;&gt;Node28 -->
<g id="edge30_Node000028_Node000029" class="edge">
<title>Node29&#45;&gt;Node28</title>
<g id="a_edge30_Node000028_Node000029"><a xlink:title=" ">
<path fill="none" stroke="orange" stroke-dasharray="5,2" d="M115.64,-145.25C157.61,-145.25 212.46,-145.25 253.6,-145.25"/>
<polygon fill="orange" stroke="orange" points="115.68,-141.75 105.68,-145.25 115.68,-148.75 115.68,-141.75"/>
</a>
</g>
<text text-anchor="middle" x="174.62" y="-147" font-family="Helvetica,sans-Serif" font-size="10.00" fill="grey"> &lt; Cpl::Dm::ModelPoint &gt;</text>
</g>
<!-- Node30&#45;&gt;Node22 -->
<g id="edge32_Node000022_Node000030" class="edge">
<title>Node30&#45;&gt;Node22</title>
<g id="a_edge32_Node000022_Node000030"><a xlink:title=" ">
<path fill="none" stroke="orange" stroke-dasharray="5,2" d="M1252.92,-154.25C1288.97,-154.25 1331.2,-154.25 1363.85,-154.25"/>
<polygon fill="orange" stroke="orange" points="1252.96,-150.75 1242.96,-154.25 1252.96,-157.75 1252.96,-150.75"/>
</a>
</g>
<text text-anchor="middle" x="1302.5" y="-156" font-family="Helvetica,sans-Serif" font-size="10.00" fill="grey"> &lt; uint32_t, Uint32 &gt;</text>
</g>
<!-- Node31&#45;&gt;Node17 -->
<g id="edge34_Node000017_Node000031" class="edge">
<title>Node31&#45;&gt;Node17</title>
<g id="a_edge34_Node000017_Node000031"><a xlink:title=" ">
<path fill="none" stroke="orange" stroke-dasharray="5,2" d="M1882.74,-51.53C1911.46,-53.6 1944.25,-58.46 1972.5,-69 1996.49,-77.95 2020.1,-95.75 2035.33,-108.74"/>
<polygon fill="orange" stroke="orange" points="1883.24,-48.05 1873.04,-50.94 1882.81,-55.04 1883.24,-48.05"/>
</a>
</g>
<text text-anchor="middle" x="1930.88" y="-71" font-family="Helvetica,sans-Serif" font-size="10.00" fill="grey"> &lt; AjaxUiEvent_T &gt;</text>
</g>
<!-- Node32&#45;&gt;Node31 -->
<g id="edge35_Node000031_Node000032" class="edge">
<title>Node32&#45;&gt;Node31</title>
<g id="a_edge35_Node000031_Node000032"><a xlink:title=" ">
<path fill="none" stroke="#63b8ff" d="M726.14,-46.49C781.36,-47.32 858.86,-48.25 926.88,-48.25 926.88,-48.25 926.88,-48.25 1565.88,-48.25 1626.92,-48.25 1696.62,-49.22 1745.43,-50.06"/>
<polygon fill="#63b8ff" stroke="#63b8ff" points="726.27,-42.99 716.22,-46.34 726.17,-49.99 726.27,-42.99"/>
</a>
</g>
</g>
</g>
</svg>
