<?xml version="1.0" encoding="UTF-8" standalone="no"?>
<!DOCTYPE svg PUBLIC "-//W3C//DTD SVG 1.1//EN"
 "http://www.w3.org/Graphics/SVG/1.1/DTD/svg11.dtd">
<!-- Generated by graphviz version 9.0.0 (20230911.1827)
 -->
<!-- Title: Cpl::Text::DStringItem Pages: 1 -->
<svg width="335pt" height="319pt"
 viewBox="0.00 0.00 334.62 318.75" xmlns="http://www.w3.org/2000/svg" xmlns:xlink="http://www.w3.org/1999/xlink">
<g id="graph0" class="graph" transform="scale(1 1) rotate(0) translate(4 314.75)">
<title>Cpl::Text::DStringItem</title>
<!-- Node1 -->
<g id="Node000001" class="node">
<title>Node1</title>
<g id="a_Node000001"><a xlink:title="This concrete class implements the StringItem class for a &#39;String&#39; using a &#39;DString&#39; as the internal ...">
<polygon fill="#999999" stroke="#666666" points="276.75,-19.25 167,-19.25 167,0 276.75,0 276.75,-19.25"/>
<text text-anchor="middle" x="221.88" y="-5.75" font-family="Helvetica,sans-Serif" font-size="10.00">Cpl::Text::DStringItem</text>
</a>
</g>
</g>
<!-- Node2 -->
<g id="Node000002" class="node">
<title>Node2</title>
<g id="a_Node000002"><a xlink:href="class_cpl_1_1_text_1_1_string_item.html" target="_top" xlink:title="This partially concrete provides a wrapper class that allows a String object to be stored directly in...">
<polygon fill="white" stroke="#666666" points="216.38,-85.75 113.38,-85.75 113.38,-66.5 216.38,-66.5 216.38,-85.75"/>
<text text-anchor="middle" x="164.88" y="-72.25" font-family="Helvetica,sans-Serif" font-size="10.00">Cpl::Text::StringItem</text>
</a>
</g>
</g>
<!-- Node2&#45;&gt;Node1 -->
<g id="edge1_Node000001_Node000002" class="edge">
<title>Node2&#45;&gt;Node1</title>
<g id="a_edge1_Node000001_Node000002"><a xlink:title=" ">
<path fill="none" stroke="#63b8ff" d="M180.35,-57.61C191.25,-45.28 205.37,-29.31 214.02,-19.52"/>
<polygon fill="#63b8ff" stroke="#63b8ff" points="177.8,-55.21 173.8,-65.02 183.05,-59.85 177.8,-55.21"/>
</a>
</g>
</g>
<!-- Node3 -->
<g id="Node000003" class="node">
<title>Node3</title>
<g id="a_Node000003"><a xlink:href="class_cpl_1_1_container_1_1_map_item.html" target="_top" xlink:title="This abstract class represents a item that can be contained in an Map (aka a sorted list implemented ...">
<polygon fill="white" stroke="#666666" points="129.25,-142 10.5,-142 10.5,-122.75 129.25,-122.75 129.25,-142"/>
<text text-anchor="middle" x="69.88" y="-128.5" font-family="Helvetica,sans-Serif" font-size="10.00">Cpl::Container::MapItem</text>
</a>
</g>
</g>
<!-- Node3&#45;&gt;Node2 -->
<g id="edge2_Node000002_Node000003" class="edge">
<title>Node3&#45;&gt;Node2</title>
<g id="a_edge2_Node000002_Node000003"><a xlink:title=" ">
<path fill="none" stroke="#63b8ff" d="M95.48,-116.75C112.6,-106.97 134.58,-94.43 149.16,-86.1"/>
<polygon fill="#63b8ff" stroke="#63b8ff" points="93.82,-113.67 86.88,-121.67 97.3,-119.75 93.82,-113.67"/>
</a>
</g>
</g>
<!-- Node4 -->
<g id="Node000004" class="node">
<title>Node4</title>
<g id="a_Node000004"><a xlink:href="class_cpl_1_1_container_1_1_dict_item.html" target="_top" xlink:title="This abstract class represents a item that can be contained in Dictionary.">
<polygon fill="white" stroke="#666666" points="128.5,-198.25 11.25,-198.25 11.25,-179 128.5,-179 128.5,-198.25"/>
<text text-anchor="middle" x="69.88" y="-184.75" font-family="Helvetica,sans-Serif" font-size="10.00">Cpl::Container::DictItem</text>
</a>
</g>
</g>
<!-- Node4&#45;&gt;Node3 -->
<g id="edge3_Node000003_Node000004" class="edge">
<title>Node4&#45;&gt;Node3</title>
<g id="a_edge3_Node000003_Node000004"><a xlink:title=" ">
<path fill="none" stroke="#63b8ff" d="M69.88,-167.44C69.88,-158.73 69.88,-148.99 69.88,-142.17"/>
<polygon fill="#63b8ff" stroke="#63b8ff" points="66.38,-167.15 69.88,-177.15 73.38,-167.15 66.38,-167.15"/>
</a>
</g>
</g>
<!-- Node5 -->
<g id="Node000005" class="node">
<title>Node5</title>
<g id="a_Node000005"><a xlink:href="class_cpl_1_1_container_1_1_extended_item.html" target="_top" xlink:title="This class is used by the Container classes to implement a various types of DOUBLY linked containers.">
<polygon fill="white" stroke="#666666" points="139.75,-254.5 0,-254.5 0,-235.25 139.75,-235.25 139.75,-254.5"/>
<text text-anchor="middle" x="69.88" y="-241" font-family="Helvetica,sans-Serif" font-size="10.00">Cpl::Container::ExtendedItem</text>
</a>
</g>
</g>
<!-- Node5&#45;&gt;Node4 -->
<g id="edge4_Node000004_Node000005" class="edge">
<title>Node5&#45;&gt;Node4</title>
<g id="a_edge4_Node000004_Node000005"><a xlink:title=" ">
<path fill="none" stroke="#63b8ff" d="M69.88,-223.69C69.88,-214.98 69.88,-205.24 69.88,-198.42"/>
<polygon fill="#63b8ff" stroke="#63b8ff" points="66.38,-223.4 69.88,-233.4 73.38,-223.4 66.38,-223.4"/>
</a>
</g>
</g>
<!-- Node6 -->
<g id="Node000006" class="node">
<title>Node6</title>
<g id="a_Node000006"><a xlink:href="class_cpl_1_1_container_1_1_item.html" target="_top" xlink:title="This class is used by the Container classes to implement a various types of singly linked containers.">
<polygon fill="white" stroke="#666666" points="119.88,-310.75 19.88,-310.75 19.88,-291.5 119.88,-291.5 119.88,-310.75"/>
<text text-anchor="middle" x="69.88" y="-297.25" font-family="Helvetica,sans-Serif" font-size="10.00">Cpl::Container::Item</text>
</a>
</g>
</g>
<!-- Node6&#45;&gt;Node5 -->
<g id="edge5_Node000005_Node000006" class="edge">
<title>Node6&#45;&gt;Node5</title>
<g id="a_edge5_Node000005_Node000006"><a xlink:title=" ">
<path fill="none" stroke="#63b8ff" d="M69.88,-279.94C69.88,-271.23 69.88,-261.49 69.88,-254.67"/>
<polygon fill="#63b8ff" stroke="#63b8ff" points="66.38,-279.65 69.88,-289.65 73.38,-279.65 66.38,-279.65"/>
</a>
</g>
</g>
<!-- Node7 -->
<g id="Node000007" class="node">
<title>Node7</title>
<g id="a_Node000007"><a xlink:href="class_cpl_1_1_text_1_1_string.html" target="_top" xlink:title="This abstract class defines the operations that can be before on a NULL terminated string.">
<polygon fill="white" stroke="#666666" points="284.62,-198.25 201.12,-198.25 201.12,-179 284.62,-179 284.62,-198.25"/>
<text text-anchor="middle" x="242.88" y="-184.75" font-family="Helvetica,sans-Serif" font-size="10.00">Cpl::Text::String</text>
</a>
</g>
</g>
<!-- Node7&#45;&gt;Node2 -->
<g id="edge6_Node000002_Node000007" class="edge">
<title>Node7&#45;&gt;Node2</title>
<g id="a_edge6_Node000002_Node000007"><a xlink:title=" ">
<path fill="none" stroke="#9a32cd" stroke-dasharray="5,2" d="M210.21,-173.55C196.82,-166.11 182.48,-155.65 173.88,-142 162.84,-124.49 162.95,-99.09 163.93,-85.86"/>
<polygon fill="#9a32cd" stroke="#9a32cd" points="208.31,-176.5 218.8,-177.96 211.5,-170.28 208.31,-176.5"/>
</a>
</g>
<text text-anchor="middle" x="200.88" y="-128.5" font-family="Helvetica,sans-Serif" font-size="10.00" fill="grey"> m_myString</text>
</g>
<!-- Node10 -->
<g id="Node000010" class="node">
<title>Node10</title>
<g id="a_Node000010"><a xlink:href="class_cpl_1_1_text_1_1_string__.html" target="_top" xlink:title="This partially concrete class implements the portions of the String Api that is independent of the in...">
<polygon fill="white" stroke="#666666" points="325.25,-142 236.5,-142 236.5,-122.75 325.25,-122.75 325.25,-142"/>
<text text-anchor="middle" x="280.88" y="-128.5" font-family="Helvetica,sans-Serif" font-size="10.00">Cpl::Text::String_</text>
</a>
</g>
</g>
<!-- Node7&#45;&gt;Node10 -->
<g id="edge10_Node000010_Node000007" class="edge">
<title>Node7&#45;&gt;Node10</title>
<g id="a_edge10_Node000010_Node000007"><a xlink:title=" ">
<path fill="none" stroke="#63b8ff" d="M255.55,-169.52C262,-160.32 269.55,-149.54 274.72,-142.17"/>
<polygon fill="#63b8ff" stroke="#63b8ff" points="252.89,-167.23 250.02,-177.43 258.62,-171.24 252.89,-167.23"/>
</a>
</g>
</g>
<!-- Node8 -->
<g id="Node000008" class="node">
<title>Node8</title>
<g id="a_Node000008"><a xlink:href="class_cpl_1_1_container_1_1_key.html" target="_top" xlink:title="This abstract class defines the interface that a contained object must support if it has comparable k...">
<polygon fill="white" stroke="#666666" points="291.38,-254.5 194.38,-254.5 194.38,-235.25 291.38,-235.25 291.38,-254.5"/>
<text text-anchor="middle" x="242.88" y="-241" font-family="Helvetica,sans-Serif" font-size="10.00">Cpl::Container::Key</text>
</a>
</g>
</g>
<!-- Node8&#45;&gt;Node7 -->
<g id="edge7_Node000007_Node000008" class="edge">
<title>Node8&#45;&gt;Node7</title>
<g id="a_edge7_Node000007_Node000008"><a xlink:title=" ">
<path fill="none" stroke="#63b8ff" d="M242.88,-223.69C242.88,-214.98 242.88,-205.24 242.88,-198.42"/>
<polygon fill="#63b8ff" stroke="#63b8ff" points="239.38,-223.4 242.88,-233.4 246.38,-223.4 239.38,-223.4"/>
</a>
</g>
</g>
<!-- Node9 -->
<g id="Node000009" class="node">
<title>Node9</title>
<g id="a_Node000009"><a xlink:href="class_cpl_1_1_text_1_1_d_string.html" target="_top" xlink:title="This concrete class implements a simple &quot;dynamic storage&quot; String Type.">
<polygon fill="white" stroke="#666666" points="325,-85.75 234.75,-85.75 234.75,-66.5 325,-66.5 325,-85.75"/>
<text text-anchor="middle" x="279.88" y="-72.25" font-family="Helvetica,sans-Serif" font-size="10.00">Cpl::Text::DString</text>
</a>
</g>
</g>
<!-- Node9&#45;&gt;Node1 -->
<g id="edge8_Node000001_Node000009" class="edge">
<title>Node9&#45;&gt;Node1</title>
<g id="a_edge8_Node000001_Node000009"><a xlink:title=" ">
<path fill="none" stroke="#9a32cd" stroke-dasharray="5,2" d="M264.12,-57.61C253.04,-45.28 238.67,-29.31 229.87,-19.52"/>
<polygon fill="#9a32cd" stroke="#9a32cd" points="261.51,-59.94 270.8,-65.03 266.71,-55.26 261.51,-59.94"/>
</a>
</g>
<text text-anchor="middle" x="290.25" y="-39" font-family="Helvetica,sans-Serif" font-size="10.00" fill="grey"> m_internalString</text>
</g>
<!-- Node10&#45;&gt;Node9 -->
<g id="edge9_Node000009_Node000010" class="edge">
<title>Node10&#45;&gt;Node9</title>
<g id="a_edge9_Node000009_Node000010"><a xlink:title=" ">
<path fill="none" stroke="#63b8ff" d="M280.5,-111.19C280.34,-102.48 280.16,-92.74 280.04,-85.92"/>
<polygon fill="#63b8ff" stroke="#63b8ff" points="277,-110.97 280.68,-120.9 284,-110.84 277,-110.97"/>
</a>
</g>
</g>
</g>
</svg>
