<?xml version="1.0" encoding="UTF-8" standalone="no"?>
<!DOCTYPE svg PUBLIC "-//W3C//DTD SVG 1.1//EN"
 "http://www.w3.org/Graphics/SVG/1.1/DTD/svg11.dtd">
<!-- Generated by graphviz version 9.0.0 (20230911.1827)
 -->
<!-- Title: Cpl::Itc::Mailbox Pages: 1 -->
<svg width="342pt" height="183pt"
 viewBox="0.00 0.00 342.38 182.75" xmlns="http://www.w3.org/2000/svg" xmlns:xlink="http://www.w3.org/1999/xlink">
<g id="graph0" class="graph" transform="scale(1 1) rotate(0) translate(4 178.75)">
<title>Cpl::Itc::Mailbox</title>
<!-- Node1 -->
<g id="Node000001" class="node">
<title>Node1</title>
<g id="a_Node000001"><a xlink:title="This mailbox class implements an Inter Thread Communications message queue.">
<polygon fill="#999999" stroke="#666666" points="196.25,-19.25 112.75,-19.25 112.75,0 196.25,0 196.25,-19.25"/>
<text text-anchor="middle" x="154.5" y="-5.75" font-family="Helvetica,sans-Serif" font-size="10.00">Cpl::Itc::Mailbox</text>
</a>
</g>
</g>
<!-- Node2 -->
<g id="Node000002" class="node">
<title>Node2</title>
<g id="a_Node000002"><a xlink:href="class_cpl_1_1_itc_1_1_post_api.html" target="_top" xlink:title="This abstract class represents the interface used to send messages to a mailbox.">
<polygon fill="white" stroke="#666666" points="85,-91.38 0,-91.38 0,-72.12 85,-72.12 85,-91.38"/>
<text text-anchor="middle" x="42.5" y="-77.88" font-family="Helvetica,sans-Serif" font-size="10.00">Cpl::Itc::PostApi</text>
</a>
</g>
</g>
<!-- Node2&#45;&gt;Node1 -->
<g id="edge1_Node000001_Node000002" class="edge">
<title>Node2&#45;&gt;Node1</title>
<g id="a_edge1_Node000001_Node000002"><a xlink:title=" ">
<path fill="none" stroke="#63b8ff" d="M66.44,-65.76C88.81,-51.76 121.46,-31.31 140.08,-19.66"/>
<polygon fill="#63b8ff" stroke="#63b8ff" points="64.59,-62.79 57.97,-71.07 68.3,-68.73 64.59,-62.79"/>
</a>
</g>
</g>
<!-- Node3 -->
<g id="Node000003" class="node">
<title>Node3</title>
<g id="a_Node000003"><a xlink:href="class_cpl_1_1_container_1_1_s_list.html" target="_top" xlink:title=" ">
<polygon fill="white" stroke="#666666" points="206.38,-97 102.62,-97 102.62,-66.5 206.38,-66.5 206.38,-97"/>
<text text-anchor="start" x="110.62" y="-83.5" font-family="Helvetica,sans-Serif" font-size="10.00">Cpl::Container::SList</text>
<text text-anchor="middle" x="154.5" y="-72.25" font-family="Helvetica,sans-Serif" font-size="10.00">&lt; Message &gt;</text>
</a>
</g>
</g>
<!-- Node3&#45;&gt;Node1 -->
<g id="edge2_Node000001_Node000003" class="edge">
<title>Node3&#45;&gt;Node1</title>
<g id="a_edge2_Node000001_Node000003"><a xlink:title=" ">
<path fill="none" stroke="#63b8ff" d="M154.5,-54.98C154.5,-42.48 154.5,-28.27 154.5,-19.38"/>
<polygon fill="#63b8ff" stroke="#63b8ff" points="151,-54.71 154.5,-64.71 158,-54.71 151,-54.71"/>
</a>
</g>
</g>
<!-- Node4 -->
<g id="Node000004" class="node">
<title>Node4</title>
<g id="a_Node000004"><a xlink:href="class_cpl_1_1_container_1_1_s_list.html" target="_top" xlink:title="This template class implements a singly linked list which maintains the ordering imposed on it by the...">
<polygon fill="white" stroke="#666666" points="206.38,-174.75 102.62,-174.75 102.62,-144.25 206.38,-144.25 206.38,-174.75"/>
<text text-anchor="start" x="110.62" y="-161.25" font-family="Helvetica,sans-Serif" font-size="10.00">Cpl::Container::SList</text>
<text text-anchor="middle" x="154.5" y="-150" font-family="Helvetica,sans-Serif" font-size="10.00">&lt; ITEM &gt;</text>
</a>
</g>
</g>
<!-- Node4&#45;&gt;Node3 -->
<g id="edge3_Node000003_Node000004" class="edge">
<title>Node4&#45;&gt;Node3</title>
<g id="a_edge3_Node000003_Node000004"><a xlink:title=" ">
<path fill="none" stroke="orange" stroke-dasharray="5,2" d="M154.5,-132.47C154.5,-120.71 154.5,-107.26 154.5,-97.31"/>
<polygon fill="orange" stroke="orange" points="151,-132.38 154.5,-142.38 158,-132.38 151,-132.38"/>
</a>
</g>
<text text-anchor="middle" x="183.75" y="-116.75" font-family="Helvetica,sans-Serif" font-size="10.00" fill="grey"> &lt; Message &gt;</text>
</g>
<!-- Node5 -->
<g id="Node000005" class="node">
<title>Node5</title>
<g id="a_Node000005"><a xlink:href="class_cpl_1_1_system_1_1_signable.html" target="_top" xlink:title="This abstract class defines the interface by which a client can cause an object that is waiting&#45;on&#45;a&#45;...">
<polygon fill="white" stroke="#666666" points="334.38,-91.38 224.62,-91.38 224.62,-72.12 334.38,-72.12 334.38,-91.38"/>
<text text-anchor="middle" x="279.5" y="-77.88" font-family="Helvetica,sans-Serif" font-size="10.00">Cpl::System::Signable</text>
</a>
</g>
</g>
<!-- Node5&#45;&gt;Node1 -->
<g id="edge4_Node000001_Node000005" class="edge">
<title>Node5&#45;&gt;Node1</title>
<g id="a_edge4_Node000001_Node000005"><a xlink:title=" ">
<path fill="none" stroke="#9a32cd" stroke-dasharray="5,2" d="M253.51,-66.17C228.51,-52.14 191.49,-31.38 170.52,-19.61"/>
<polygon fill="#9a32cd" stroke="#9a32cd" points="251.66,-69.15 262.09,-70.99 255.09,-63.04 251.66,-69.15"/>
</a>
</g>
<text text-anchor="middle" x="252.25" y="-39" font-family="Helvetica,sans-Serif" font-size="10.00" fill="grey"> m_eventLoop</text>
</g>
<!-- Node6 -->
<g id="Node000006" class="node">
<title>Node6</title>
<g id="a_Node000006"><a xlink:href="class_cpl_1_1_container_1_1_item.html" target="_top" xlink:title="This class is used by the Container classes to implement a various types of singly linked containers.">
<polygon fill="white" stroke="#666666" points="329.5,-169.12 229.5,-169.12 229.5,-149.88 329.5,-149.88 329.5,-169.12"/>
<text text-anchor="middle" x="279.5" y="-155.62" font-family="Helvetica,sans-Serif" font-size="10.00">Cpl::Container::Item</text>
</a>
</g>
</g>
<!-- Node6&#45;&gt;Node5 -->
<g id="edge5_Node000005_Node000006" class="edge">
<title>Node6&#45;&gt;Node5</title>
<g id="a_edge5_Node000005_Node000006"><a xlink:title=" ">
<path fill="none" stroke="#63b8ff" d="M279.5,-138.22C279.5,-123.08 279.5,-103.11 279.5,-91.73"/>
<polygon fill="#63b8ff" stroke="#63b8ff" points="276,-138 279.5,-148 283,-138 276,-138"/>
</a>
</g>
</g>
</g>
</svg>
