<?xml version="1.0" encoding="UTF-8" standalone="no"?>
<!DOCTYPE svg PUBLIC "-//W3C//DTD SVG 1.1//EN"
 "http://www.w3.org/Graphics/SVG/1.1/DTD/svg11.dtd">
<!-- Generated by graphviz version 9.0.0 (20230911.1827)
 -->
<!-- Title: Cpl::Io::AtomicOutput&lt; CONTEXT &gt; Pages: 1 -->
<svg width="184pt" height="271pt"
 viewBox="0.00 0.00 184.12 270.75" xmlns="http://www.w3.org/2000/svg" xmlns:xlink="http://www.w3.org/1999/xlink">
<g id="graph0" class="graph" transform="scale(1 1) rotate(0) translate(4 266.75)">
<title>Cpl::Io::AtomicOutput&lt; CONTEXT &gt;</title>
<!-- Node1 -->
<g id="Node000001" class="node">
<title>Node1</title>
<g id="a_Node000001"><a xlink:title="This concrete template class implements the AtomicOutputApi using a mutex to enforce the &#39;atomic&#45;ness...">
<polygon fill="#999999" stroke="#666666" points="148.75,-30.5 41.25,-30.5 41.25,0 148.75,0 148.75,-30.5"/>
<text text-anchor="start" x="49.25" y="-17" font-family="Helvetica,sans-Serif" font-size="10.00">Cpl::Io::AtomicOutput</text>
<text text-anchor="middle" x="95" y="-5.75" font-family="Helvetica,sans-Serif" font-size="10.00">&lt; CONTEXT &gt;</text>
</a>
</g>
</g>
<!-- Node2 -->
<g id="Node000002" class="node">
<title>Node2</title>
<g id="a_Node000002"><a xlink:href="class_cpl_1_1_io_1_1_atomic_output_api.html" target="_top" xlink:title="This abstract template class defines a interface for an Atomic outputs to a stream.">
<polygon fill="white" stroke="#666666" points="155.88,-97 34.12,-97 34.12,-66.5 155.88,-66.5 155.88,-97"/>
<text text-anchor="start" x="42.12" y="-83.5" font-family="Helvetica,sans-Serif" font-size="10.00">Cpl::Io::AtomicOutputApi</text>
<text text-anchor="middle" x="95" y="-72.25" font-family="Helvetica,sans-Serif" font-size="10.00">&lt; CONTEXT &gt;</text>
</a>
</g>
</g>
<!-- Node2&#45;&gt;Node1 -->
<g id="edge1_Node000001_Node000002" class="edge">
<title>Node2&#45;&gt;Node1</title>
<g id="a_edge1_Node000001_Node000002"><a xlink:title=" ">
<path fill="none" stroke="#63b8ff" d="M95,-54.81C95,-46.64 95,-37.91 95,-30.83"/>
<polygon fill="#63b8ff" stroke="#63b8ff" points="91.5,-54.6 95,-64.6 98.5,-54.6 91.5,-54.6"/>
</a>
</g>
</g>
<!-- Node3 -->
<g id="Node000003" class="node">
<title>Node3</title>
<g id="a_Node000003"><a xlink:href="class_cpl_1_1_io_1_1_output.html" target="_top" xlink:title="This partially abstract class defines a interface for operating on an output stream (example of a str...">
<polygon fill="white" stroke="#666666" points="133.38,-152.25 56.62,-152.25 56.62,-133 133.38,-133 133.38,-152.25"/>
<text text-anchor="middle" x="95" y="-138.75" font-family="Helvetica,sans-Serif" font-size="10.00">Cpl::Io::Output</text>
</a>
</g>
</g>
<!-- Node3&#45;&gt;Node2 -->
<g id="edge2_Node000002_Node000003" class="edge">
<title>Node3&#45;&gt;Node2</title>
<g id="a_edge2_Node000002_Node000003"><a xlink:title=" ">
<path fill="none" stroke="#63b8ff" d="M95,-121.42C95,-113.49 95,-104.56 95,-97.28"/>
<polygon fill="#63b8ff" stroke="#63b8ff" points="91.5,-121.17 95,-131.17 98.5,-121.17 91.5,-121.17"/>
</a>
</g>
</g>
<!-- Node4 -->
<g id="Node000004" class="node">
<title>Node4</title>
<g id="a_Node000004"><a xlink:href="class_cpl_1_1_io_1_1_close.html" target="_top" xlink:title="This abstract class defines a close operation that is intended to be used Input and Output streams/fi...">
<polygon fill="white" stroke="#666666" points="86.12,-207.5 13.88,-207.5 13.88,-188.25 86.12,-188.25 86.12,-207.5"/>
<text text-anchor="middle" x="50" y="-194" font-family="Helvetica,sans-Serif" font-size="10.00">Cpl::Io::Close</text>
</a>
</g>
</g>
<!-- Node4&#45;&gt;Node3 -->
<g id="edge3_Node000003_Node000004" class="edge">
<title>Node4&#45;&gt;Node3</title>
<g id="a_edge3_Node000003_Node000004"><a xlink:title=" ">
<path fill="none" stroke="#63b8ff" d="M64.68,-179.51C72.26,-170.53 81.21,-159.95 87.41,-152.61"/>
<polygon fill="#63b8ff" stroke="#63b8ff" points="62.19,-177.03 58.41,-186.93 67.54,-181.55 62.19,-177.03"/>
</a>
</g>
</g>
<!-- Node5 -->
<g id="Node000005" class="node">
<title>Node5</title>
<g id="a_Node000005"><a xlink:href="class_cpl_1_1_container_1_1_item.html" target="_top" xlink:title="This class is used by the Container classes to implement a various types of singly linked containers.">
<polygon fill="white" stroke="#666666" points="100,-262.75 0,-262.75 0,-243.5 100,-243.5 100,-262.75"/>
<text text-anchor="middle" x="50" y="-249.25" font-family="Helvetica,sans-Serif" font-size="10.00">Cpl::Container::Item</text>
</a>
</g>
</g>
<!-- Node5&#45;&gt;Node4 -->
<g id="edge4_Node000004_Node000005" class="edge">
<title>Node5&#45;&gt;Node4</title>
<g id="a_edge4_Node000004_Node000005"><a xlink:title=" ">
<path fill="none" stroke="#63b8ff" d="M50,-231.88C50,-223.59 50,-214.42 50,-207.86"/>
<polygon fill="#63b8ff" stroke="#63b8ff" points="46.5,-231.82 50,-241.82 53.5,-231.82 46.5,-231.82"/>
</a>
</g>
</g>
<!-- Node6 -->
<g id="Node000006" class="node">
<title>Node6</title>
<g id="a_Node000006"><a xlink:href="class_cpl_1_1_io_1_1_is_eos.html" target="_top" xlink:title="This abstract class defines a isEos() operation that is intended to be used Input and Output streams.">
<polygon fill="white" stroke="#666666" points="176.12,-207.5 103.88,-207.5 103.88,-188.25 176.12,-188.25 176.12,-207.5"/>
<text text-anchor="middle" x="140" y="-194" font-family="Helvetica,sans-Serif" font-size="10.00">Cpl::Io::IsEos</text>
</a>
</g>
</g>
<!-- Node6&#45;&gt;Node3 -->
<g id="edge5_Node000003_Node000006" class="edge">
<title>Node6&#45;&gt;Node3</title>
<g id="a_edge5_Node000003_Node000006"><a xlink:title=" ">
<path fill="none" stroke="#63b8ff" d="M125.32,-179.51C117.74,-170.53 108.79,-159.95 102.59,-152.61"/>
<polygon fill="#63b8ff" stroke="#63b8ff" points="122.46,-181.55 131.59,-186.93 127.81,-177.03 122.46,-181.55"/>
</a>
</g>
</g>
</g>
</svg>
