<?xml version="1.0" encoding="UTF-8" standalone="no"?>
<!DOCTYPE svg PUBLIC "-//W3C//DTD SVG 1.1//EN"
 "http://www.w3.org/Graphics/SVG/1.1/DTD/svg11.dtd">
<!-- Generated by graphviz version 9.0.0 (20230911.1827)
 -->
<!-- Title: Cpl::Memory::LeanHeap Pages: 1 -->
<svg width="169pt" height="193pt"
 viewBox="0.00 0.00 168.75 193.00" xmlns="http://www.w3.org/2000/svg" xmlns:xlink="http://www.w3.org/1999/xlink">
<g id="graph0" class="graph" transform="scale(1 1) rotate(0) translate(4 189)">
<title>Cpl::Memory::LeanHeap</title>
<!-- Node1 -->
<g id="Node000001" class="node">
<title>Node1</title>
<g id="a_Node000001"><a xlink:title="This class manages an allocate&#45;only&#45;heap.">
<polygon fill="#999999" stroke="#666666" points="139.75,-19.25 21,-19.25 21,0 139.75,0 139.75,-19.25"/>
<text text-anchor="middle" x="80.38" y="-5.75" font-family="Helvetica,sans-Serif" font-size="10.00">Cpl::Memory::LeanHeap</text>
</a>
</g>
</g>
<!-- Node2 -->
<g id="Node000002" class="node">
<title>Node2</title>
<g id="a_Node000002"><a xlink:href="class_cpl_1_1_memory_1_1_contiguous_allocator.html" target="_top" xlink:title="This abstract class is used &#39;extend&#39; the Memory Allocator to have contiguous semantics.">
<polygon fill="white" stroke="#666666" points="160.75,-74.5 0,-74.5 0,-55.25 160.75,-55.25 160.75,-74.5"/>
<text text-anchor="middle" x="80.38" y="-61" font-family="Helvetica,sans-Serif" font-size="10.00">Cpl::Memory::ContiguousAllocator</text>
</a>
</g>
</g>
<!-- Node2&#45;&gt;Node1 -->
<g id="edge1_Node000001_Node000002" class="edge">
<title>Node2&#45;&gt;Node1</title>
<g id="a_edge1_Node000001_Node000002"><a xlink:title=" ">
<path fill="none" stroke="#63b8ff" d="M80.38,-43.63C80.38,-35.34 80.38,-26.17 80.38,-19.61"/>
<polygon fill="#63b8ff" stroke="#63b8ff" points="76.88,-43.57 80.38,-53.57 83.88,-43.57 76.88,-43.57"/>
</a>
</g>
</g>
<!-- Node3 -->
<g id="Node000003" class="node">
<title>Node3</title>
<g id="a_Node000003"><a xlink:href="class_cpl_1_1_memory_1_1_allocator.html" target="_top" xlink:title="This abstract class defines the interface for a Memory Allocator.">
<polygon fill="white" stroke="#666666" points="136.38,-129.75 24.38,-129.75 24.38,-110.5 136.38,-110.5 136.38,-129.75"/>
<text text-anchor="middle" x="80.38" y="-116.25" font-family="Helvetica,sans-Serif" font-size="10.00">Cpl::Memory::Allocator</text>
</a>
</g>
</g>
<!-- Node3&#45;&gt;Node2 -->
<g id="edge2_Node000002_Node000003" class="edge">
<title>Node3&#45;&gt;Node2</title>
<g id="a_edge2_Node000002_Node000003"><a xlink:title=" ">
<path fill="none" stroke="#63b8ff" d="M80.38,-98.88C80.38,-90.59 80.38,-81.42 80.38,-74.86"/>
<polygon fill="#63b8ff" stroke="#63b8ff" points="76.88,-98.82 80.38,-108.82 83.88,-98.82 76.88,-98.82"/>
</a>
</g>
</g>
<!-- Node4 -->
<g id="Node000004" class="node">
<title>Node4</title>
<g id="a_Node000004"><a xlink:href="class_cpl_1_1_container_1_1_item.html" target="_top" xlink:title="This class is used by the Container classes to implement a various types of singly linked containers.">
<polygon fill="white" stroke="#666666" points="130.38,-185 30.38,-185 30.38,-165.75 130.38,-165.75 130.38,-185"/>
<text text-anchor="middle" x="80.38" y="-171.5" font-family="Helvetica,sans-Serif" font-size="10.00">Cpl::Container::Item</text>
</a>
</g>
</g>
<!-- Node4&#45;&gt;Node3 -->
<g id="edge3_Node000003_Node000004" class="edge">
<title>Node4&#45;&gt;Node3</title>
<g id="a_edge3_Node000003_Node000004"><a xlink:title=" ">
<path fill="none" stroke="#63b8ff" d="M80.38,-154.13C80.38,-145.84 80.38,-136.67 80.38,-130.11"/>
<polygon fill="#63b8ff" stroke="#63b8ff" points="76.88,-154.07 80.38,-164.07 83.88,-154.07 76.88,-154.07"/>
</a>
</g>
</g>
</g>
</svg>
