<?xml version="1.0" encoding="UTF-8" standalone="no"?>
<!DOCTYPE svg PUBLIC "-//W3C//DTD SVG 1.1//EN"
 "http://www.w3.org/Graphics/SVG/1.1/DTD/svg11.dtd">
<!-- Generated by graphviz version 9.0.0 (20230911.1827)
 -->
<!-- Title: Cpl::TShell::PolledMaker Pages: 1 -->
<svg width="1880pt" height="478pt"
 viewBox="0.00 0.00 1879.50 478.39" xmlns="http://www.w3.org/2000/svg" xmlns:xlink="http://www.w3.org/1999/xlink">
<g id="graph0" class="graph" transform="scale(1 1) rotate(0) translate(4 474.39)">
<title>Cpl::TShell::PolledMaker</title>
<!-- Node1 -->
<g id="Node000001" class="node">
<title>Node1</title>
<g id="a_Node000001"><a xlink:title="This concrete class is a &quot;Maker&quot; that assembles the objects needed for a &#39;basic&#39; TShell Processor eng...">
<polygon fill="#999999" stroke="#666666" points="1871.5,-325.25 1750.5,-325.25 1750.5,-306 1871.5,-306 1871.5,-325.25"/>
<text text-anchor="middle" x="1811" y="-311.75" font-family="Helvetica,sans-Serif" font-size="10.00">Cpl::TShell::PolledMaker</text>
</a>
</g>
</g>
<!-- Node2 -->
<g id="Node000002" class="node">
<title>Node2</title>
<g id="a_Node000002"><a xlink:href="class_cpl_1_1_text_1_1_frame_1_1_stream_encoder.html" target="_top" xlink:title="This concrete class implements the Encoder API where the Output destination is a Cpl::Io::Output stre...">
<polygon fill="white" stroke="#666666" points="1013.88,-292.88 892.12,-292.88 892.12,-262.38 1013.88,-262.38 1013.88,-292.88"/>
<text text-anchor="start" x="900.12" y="-279.38" font-family="Helvetica,sans-Serif" font-size="10.00">Cpl::Text::Frame::Stream</text>
<text text-anchor="middle" x="953" y="-268.12" font-family="Helvetica,sans-Serif" font-size="10.00">Encoder</text>
</a>
</g>
</g>
<!-- Node2&#45;&gt;Node1 -->
<g id="edge1_Node000001_Node000002" class="edge">
<title>Node2&#45;&gt;Node1</title>
<g id="a_edge1_Node000001_Node000002"><a xlink:title=" ">
<path fill="none" stroke="#9a32cd" stroke-dasharray="5,2" d="M1025.67,-277.3C1152.81,-277.24 1426.1,-279.37 1656,-296.62 1687.16,-298.96 1721.7,-303.08 1750.16,-306.89"/>
<polygon fill="#9a32cd" stroke="#9a32cd" points="1025.71,-273.8 1015.71,-277.32 1025.71,-280.8 1025.71,-273.8"/>
</a>
</g>
<text text-anchor="middle" x="1371.5" y="-286.38" font-family="Helvetica,sans-Serif" font-size="10.00" fill="grey"> m_framer</text>
</g>
<!-- Node16 -->
<g id="Node000016" class="node">
<title>Node16</title>
<g id="a_Node000016"><a xlink:href="class_cpl_1_1_t_shell_1_1_processor.html" target="_top" xlink:title="This concrete class provides the implementation of Command Processor for a TShell engine.">
<polygon fill="white" stroke="#666666" points="1267.62,-210.25 1156.38,-210.25 1156.38,-191 1267.62,-191 1267.62,-210.25"/>
<text text-anchor="middle" x="1212" y="-196.75" font-family="Helvetica,sans-Serif" font-size="10.00">Cpl::TShell::Processor</text>
</a>
</g>
</g>
<!-- Node2&#45;&gt;Node16 -->
<g id="edge24_Node000016_Node000002" class="edge">
<title>Node2&#45;&gt;Node16</title>
<g id="a_edge24_Node000016_Node000002"><a xlink:title=" ">
<path fill="none" stroke="#9a32cd" stroke-dasharray="5,2" d="M1021.71,-258.79C1052.27,-250.15 1088.77,-239.61 1121.5,-229.62 1141.34,-223.57 1163.52,-216.39 1180.84,-210.68"/>
<polygon fill="#9a32cd" stroke="#9a32cd" points="1020.87,-255.39 1012.2,-261.48 1022.77,-262.13 1020.87,-255.39"/>
</a>
</g>
<text text-anchor="middle" x="1087.38" y="-251.38" font-family="Helvetica,sans-Serif" font-size="10.00" fill="grey"> m_framer</text>
</g>
<!-- Node3 -->
<g id="Node000003" class="node">
<title>Node3</title>
<g id="a_Node000003"><a xlink:href="class_cpl_1_1_text_1_1_frame_1_1_encoder__.html" target="_top" xlink:title="This Private Namespace partially concrete class implements common/helper method for supporting the En...">
<polygon fill="white" stroke="#666666" points="685.88,-287.25 555.12,-287.25 555.12,-268 685.88,-268 685.88,-287.25"/>
<text text-anchor="middle" x="620.5" y="-273.75" font-family="Helvetica,sans-Serif" font-size="10.00">Cpl::Text::Frame::Encoder_</text>
</a>
</g>
</g>
<!-- Node3&#45;&gt;Node2 -->
<g id="edge2_Node000002_Node000003" class="edge">
<title>Node3&#45;&gt;Node2</title>
<g id="a_edge2_Node000002_Node000003"><a xlink:title=" ">
<path fill="none" stroke="#63b8ff" d="M697.51,-277.62C756.53,-277.62 837.25,-277.62 891.83,-277.62"/>
<polygon fill="#63b8ff" stroke="#63b8ff" points="697.52,-274.13 687.52,-277.63 697.52,-281.13 697.52,-274.13"/>
</a>
</g>
</g>
<!-- Node4 -->
<g id="Node000004" class="node">
<title>Node4</title>
<g id="a_Node000004"><a xlink:href="class_cpl_1_1_text_1_1_frame_1_1_encoder.html" target="_top" xlink:title="This class defines an interface for &#39;transmitted&#39; (encoding) a frame.">
<polygon fill="white" stroke="#666666" points="517.38,-287.25 391.88,-287.25 391.88,-268 517.38,-268 517.38,-287.25"/>
<text text-anchor="middle" x="454.62" y="-273.75" font-family="Helvetica,sans-Serif" font-size="10.00">Cpl::Text::Frame::Encoder</text>
</a>
</g>
</g>
<!-- Node4&#45;&gt;Node3 -->
<g id="edge3_Node000003_Node000004" class="edge">
<title>Node4&#45;&gt;Node3</title>
<g id="a_edge3_Node000003_Node000004"><a xlink:title=" ">
<path fill="none" stroke="#63b8ff" d="M528.82,-277.62C537.46,-277.62 546.22,-277.62 554.73,-277.62"/>
<polygon fill="#63b8ff" stroke="#63b8ff" points="529.09,-274.13 519.09,-277.63 529.09,-281.13 529.09,-274.13"/>
</a>
</g>
</g>
<!-- Node5 -->
<g id="Node000005" class="node">
<title>Node5</title>
<g id="a_Node000005"><a xlink:href="class_cpl_1_1_io_1_1_output.html" target="_top" xlink:title="This partially abstract class defines a interface for operating on an output stream (example of a str...">
<polygon fill="white" stroke="#666666" points="658.88,-410.25 582.12,-410.25 582.12,-391 658.88,-391 658.88,-410.25"/>
<text text-anchor="middle" x="620.5" y="-396.75" font-family="Helvetica,sans-Serif" font-size="10.00">Cpl::Io::Output</text>
</a>
</g>
</g>
<!-- Node5&#45;&gt;Node2 -->
<g id="edge4_Node000002_Node000005" class="edge">
<title>Node5&#45;&gt;Node2</title>
<g id="a_edge4_Node000002_Node000005"><a xlink:title=" ">
<path fill="none" stroke="#9a32cd" stroke-dasharray="5,2" d="M670.4,-395.49C733.92,-388.45 838.44,-375.42 852.75,-364.62 867.99,-353.13 857.95,-339.79 870.75,-325.62 883.05,-312.01 900.14,-301.12 915.48,-293.18"/>
<polygon fill="#9a32cd" stroke="#9a32cd" points="670.11,-392 660.55,-396.57 670.87,-398.96 670.11,-392"/>
</a>
</g>
<text text-anchor="middle" x="778.5" y="-392.38" font-family="Helvetica,sans-Serif" font-size="10.00" fill="grey"> m_dstPtr</text>
</g>
<!-- Node15 -->
<g id="Node000015" class="node">
<title>Node15</title>
<g id="a_Node000015"><a xlink:href="class_cpl_1_1_t_shell_1_1_polled_processor.html" target="_top" xlink:title="This concrete class provides a non&#45;blocking implementation of Command PolledProcessor for a TShell en...">
<polygon fill="white" stroke="#666666" points="1626.38,-325.25 1488.12,-325.25 1488.12,-306 1626.38,-306 1626.38,-325.25"/>
<text text-anchor="middle" x="1557.25" y="-311.75" font-family="Helvetica,sans-Serif" font-size="10.00">Cpl::TShell::PolledProcessor</text>
</a>
</g>
</g>
<!-- Node5&#45;&gt;Node15 -->
<g id="edge36_Node000015_Node000005" class="edge">
<title>Node5&#45;&gt;Node15</title>
<g id="a_edge36_Node000015_Node000005"><a xlink:title=" ">
<path fill="none" stroke="#9a32cd" stroke-dasharray="5,2" d="M670.3,-402.69C681.46,-403.08 693.26,-403.43 704.25,-403.62 770.24,-404.82 786.75,-403.91 852.75,-403.62 1113.98,-402.51 1232.94,-557.25 1440.5,-398.62 1463.98,-380.68 1436.77,-354.64 1458.5,-334.62 1466.7,-327.07 1476.98,-322.12 1487.76,-318.93"/>
<polygon fill="#9a32cd" stroke="#9a32cd" points="670.61,-399.2 660.49,-402.33 670.36,-406.19 670.61,-399.2"/>
</a>
</g>
<text text-anchor="middle" x="1087.38" y="-450.38" font-family="Helvetica,sans-Serif" font-size="10.00" fill="grey"> m_outFd</text>
</g>
<!-- Node6 -->
<g id="Node000006" class="node">
<title>Node6</title>
<g id="a_Node000006"><a xlink:href="class_cpl_1_1_io_1_1_close.html" target="_top" xlink:title="This abstract class defines a close operation that is intended to be used Input and Output streams/fi...">
<polygon fill="white" stroke="#666666" points="490.75,-402.25 418.5,-402.25 418.5,-383 490.75,-383 490.75,-402.25"/>
<text text-anchor="middle" x="454.62" y="-388.75" font-family="Helvetica,sans-Serif" font-size="10.00">Cpl::Io::Close</text>
</a>
</g>
</g>
<!-- Node6&#45;&gt;Node5 -->
<g id="edge5_Node000005_Node000006" class="edge">
<title>Node6&#45;&gt;Node5</title>
<g id="a_edge5_Node000005_Node000006"><a xlink:title=" ">
<path fill="none" stroke="#63b8ff" d="M502.65,-394.92C527.74,-396.15 558.2,-397.63 581.73,-398.78"/>
<polygon fill="#63b8ff" stroke="#63b8ff" points="502.85,-391.43 492.7,-394.43 502.51,-398.42 502.85,-391.43"/>
</a>
</g>
</g>
<!-- Node13 -->
<g id="Node000013" class="node">
<title>Node13</title>
<g id="a_Node000013"><a xlink:href="class_cpl_1_1_io_1_1_input.html" target="_top" xlink:title="This partially abstract class defines a interface for operating on an input stream (example of a stre...">
<polygon fill="white" stroke="#666666" points="655.12,-359.25 585.88,-359.25 585.88,-340 655.12,-340 655.12,-359.25"/>
<text text-anchor="middle" x="620.5" y="-345.75" font-family="Helvetica,sans-Serif" font-size="10.00">Cpl::Io::Input</text>
</a>
</g>
</g>
<!-- Node6&#45;&gt;Node13 -->
<g id="edge13_Node000013_Node000006" class="edge">
<title>Node6&#45;&gt;Node13</title>
<g id="a_edge13_Node000013_Node000006"><a xlink:title=" ">
<path fill="none" stroke="#63b8ff" d="M502.13,-380.42C528.64,-373.47 561.29,-364.9 585.41,-358.57"/>
<polygon fill="#63b8ff" stroke="#63b8ff" points="501.43,-376.99 492.65,-382.91 503.21,-383.76 501.43,-376.99"/>
</a>
</g>
</g>
<!-- Node7 -->
<g id="Node000007" class="node">
<title>Node7</title>
<g id="a_Node000007"><a xlink:href="class_cpl_1_1_container_1_1_item.html" target="_top" xlink:title="This class is used by the Container classes to implement a various types of singly linked containers.">
<polygon fill="white" stroke="#666666" points="354.5,-402.25 254.5,-402.25 254.5,-383 354.5,-383 354.5,-402.25"/>
<text text-anchor="middle" x="304.5" y="-388.75" font-family="Helvetica,sans-Serif" font-size="10.00">Cpl::Container::Item</text>
</a>
</g>
</g>
<!-- Node7&#45;&gt;Node6 -->
<g id="edge6_Node000006_Node000007" class="edge">
<title>Node7&#45;&gt;Node6</title>
<g id="a_edge6_Node000006_Node000007"><a xlink:title=" ">
<path fill="none" stroke="#63b8ff" d="M366.22,-392.62C383.86,-392.62 402.55,-392.62 418.1,-392.62"/>
<polygon fill="#63b8ff" stroke="#63b8ff" points="366.34,-389.13 356.34,-392.63 366.34,-396.13 366.34,-389.13"/>
</a>
</g>
</g>
<!-- Node8 -->
<g id="Node000008" class="node">
<title>Node8</title>
<g id="a_Node000008"><a xlink:href="class_cpl_1_1_io_1_1_is_eos.html" target="_top" xlink:title="This abstract class defines a isEos() operation that is intended to be used Input and Output streams.">
<polygon fill="white" stroke="#666666" points="490.75,-359.25 418.5,-359.25 418.5,-340 490.75,-340 490.75,-359.25"/>
<text text-anchor="middle" x="454.62" y="-345.75" font-family="Helvetica,sans-Serif" font-size="10.00">Cpl::Io::IsEos</text>
</a>
</g>
</g>
<!-- Node8&#45;&gt;Node5 -->
<g id="edge7_Node000005_Node000008" class="edge">
<title>Node8&#45;&gt;Node5</title>
<g id="a_edge7_Node000005_Node000008"><a xlink:title=" ">
<path fill="none" stroke="#63b8ff" d="M498.96,-363.11C526.65,-371.73 561.96,-382.72 587.19,-390.57"/>
<polygon fill="#63b8ff" stroke="#63b8ff" points="500.03,-359.78 489.45,-360.15 497.95,-366.46 500.03,-359.78"/>
</a>
</g>
</g>
<!-- Node8&#45;&gt;Node13 -->
<g id="edge14_Node000013_Node000008" class="edge">
<title>Node8&#45;&gt;Node13</title>
<g id="a_edge14_Node000013_Node000008"><a xlink:title=" ">
<path fill="none" stroke="#63b8ff" d="M502.6,-348.26C513.49,-347.99 525.02,-347.76 535.75,-347.62 552.18,-347.42 570.43,-347.79 585.68,-348.26"/>
<polygon fill="#63b8ff" stroke="#63b8ff" points="502.54,-344.76 492.63,-348.51 502.72,-351.75 502.54,-344.76"/>
</a>
</g>
</g>
<!-- Node9 -->
<g id="Node000009" class="node">
<title>Node9</title>
<g id="a_Node000009"><a xlink:href="class_cpl_1_1_text_1_1_frame_1_1_line_decoder.html" target="_top" xlink:title=" ">
<polygon fill="white" stroke="#666666" points="1656,-385.5 1458.5,-385.5 1458.5,-343.75 1656,-343.75 1656,-385.5"/>
<text text-anchor="start" x="1466.5" y="-372" font-family="Helvetica,sans-Serif" font-size="10.00">Cpl::Text::Frame::LineDecoder</text>
<text text-anchor="start" x="1466.5" y="-360.75" font-family="Helvetica,sans-Serif" font-size="10.00">&lt; OPTION_CPL_TSHELL_PROCESSOR</text>
<text text-anchor="middle" x="1557.25" y="-349.5" font-family="Helvetica,sans-Serif" font-size="10.00">_INPUT_SIZE &gt;</text>
</a>
</g>
</g>
<!-- Node9&#45;&gt;Node1 -->
<g id="edge8_Node000001_Node000009" class="edge">
<title>Node9&#45;&gt;Node1</title>
<g id="a_edge8_Node000001_Node000009"><a xlink:title=" ">
<path fill="none" stroke="#9a32cd" stroke-dasharray="5,2" d="M1667.4,-343.38C1698.97,-337.24 1731.97,-330.81 1758.27,-325.69"/>
<polygon fill="#9a32cd" stroke="#9a32cd" points="1666.94,-339.9 1657.79,-345.25 1668.27,-346.78 1666.94,-339.9"/>
</a>
</g>
<text text-anchor="middle" x="1703.25" y="-342.38" font-family="Helvetica,sans-Serif" font-size="10.00" fill="grey"> m_deframer</text>
</g>
<!-- Node10 -->
<g id="Node000010" class="node">
<title>Node10</title>
<g id="a_Node000010"><a xlink:href="class_cpl_1_1_text_1_1_frame_1_1_stream_decoder.html" target="_top" xlink:title="This partially concrete class defines an interface a Text &quot;Decoder&quot; that has a Cpl::Io::Input stream ...">
<polygon fill="white" stroke="#666666" points="1013.88,-364.88 892.12,-364.88 892.12,-334.38 1013.88,-334.38 1013.88,-364.88"/>
<text text-anchor="start" x="900.12" y="-351.38" font-family="Helvetica,sans-Serif" font-size="10.00">Cpl::Text::Frame::Stream</text>
<text text-anchor="middle" x="953" y="-340.12" font-family="Helvetica,sans-Serif" font-size="10.00">Decoder</text>
</a>
</g>
</g>
<!-- Node10&#45;&gt;Node9 -->
<g id="edge9_Node000009_Node000010" class="edge">
<title>Node10&#45;&gt;Node9</title>
<g id="a_edge9_Node000009_Node000010"><a xlink:title=" ">
<path fill="none" stroke="#63b8ff" d="M1025.57,-348.84C1092.52,-348.35 1195.31,-348.19 1284.5,-350.62 1342.11,-352.2 1406.53,-355.45 1458.18,-358.42"/>
<polygon fill="#63b8ff" stroke="#63b8ff" points="1025.81,-345.34 1015.84,-348.92 1025.86,-352.34 1025.81,-345.34"/>
</a>
</g>
</g>
<!-- Node14 -->
<g id="Node000014" class="node">
<title>Node14</title>
<g id="a_Node000014"><a xlink:href="class_cpl_1_1_text_1_1_frame_1_1_line_decoder.html" target="_top" xlink:title="This concrete template class provide a basic implementation of the Frame::Decoder interface that uses...">
<polygon fill="white" stroke="#666666" points="1284.5,-389.88 1139.5,-389.88 1139.5,-359.38 1284.5,-359.38 1284.5,-389.88"/>
<text text-anchor="start" x="1147.5" y="-376.38" font-family="Helvetica,sans-Serif" font-size="10.00">Cpl::Text::Frame::LineDecoder</text>
<text text-anchor="middle" x="1212" y="-365.12" font-family="Helvetica,sans-Serif" font-size="10.00">&lt; BUFSIZE &gt;</text>
</a>
</g>
</g>
<!-- Node10&#45;&gt;Node14 -->
<g id="edge16_Node000014_Node000010" class="edge">
<title>Node10&#45;&gt;Node14</title>
<g id="a_edge16_Node000014_Node000010"><a xlink:title=" ">
<path fill="none" stroke="#63b8ff" d="M1025.5,-356.58C1060.98,-360.03 1103.73,-364.19 1139.25,-367.65"/>
<polygon fill="#63b8ff" stroke="#63b8ff" points="1026.05,-353.12 1015.76,-355.63 1025.38,-360.08 1026.05,-353.12"/>
</a>
</g>
</g>
<!-- Node10&#45;&gt;Node16 -->
<g id="edge23_Node000016_Node000010" class="edge">
<title>Node10&#45;&gt;Node16</title>
<g id="a_edge23_Node000016_Node000010"><a xlink:title=" ">
<path fill="none" stroke="#9a32cd" stroke-dasharray="5,2" d="M998.68,-329.22C1033.01,-313.01 1081.2,-289.07 1121.5,-264.62 1150.08,-247.29 1181.41,-223.75 1198.37,-210.59"/>
<polygon fill="#9a32cd" stroke="#9a32cd" points="997.44,-325.94 989.87,-333.35 1000.41,-332.28 997.44,-325.94"/>
</a>
</g>
<text text-anchor="middle" x="1087.38" y="-304.38" font-family="Helvetica,sans-Serif" font-size="10.00" fill="grey"> m_deframer</text>
</g>
<!-- Node11 -->
<g id="Node000011" class="node">
<title>Node11</title>
<g id="a_Node000011"><a xlink:href="class_cpl_1_1_text_1_1_frame_1_1_decoder__.html" target="_top" xlink:title="This private partially concrete class implements the basic/common logic for a frame decoder.">
<polygon fill="white" stroke="#666666" points="686.25,-452.25 554.75,-452.25 554.75,-433 686.25,-433 686.25,-452.25"/>
<text text-anchor="middle" x="620.5" y="-438.75" font-family="Helvetica,sans-Serif" font-size="10.00">Cpl::Text::Frame::Decoder_</text>
</a>
</g>
</g>
<!-- Node11&#45;&gt;Node10 -->
<g id="edge10_Node000010_Node000011" class="edge">
<title>Node11&#45;&gt;Node10</title>
<g id="a_edge10_Node000010_Node000011"><a xlink:title=" ">
<path fill="none" stroke="#63b8ff" d="M698.08,-436.14C743.89,-430.7 802.73,-420.91 852.75,-403.62 880.19,-394.14 909.07,-377.58 928.56,-365.29"/>
<polygon fill="#63b8ff" stroke="#63b8ff" points="697.77,-432.65 688.23,-437.26 698.56,-439.61 697.77,-432.65"/>
</a>
</g>
</g>
<!-- Node12 -->
<g id="Node000012" class="node">
<title>Node12</title>
<g id="a_Node000012"><a xlink:href="class_cpl_1_1_text_1_1_frame_1_1_decoder.html" target="_top" xlink:title="This class defines an interface for &#39;receiving&#39; (decode) a frame.">
<polygon fill="white" stroke="#666666" points="517.75,-452.25 391.5,-452.25 391.5,-433 517.75,-433 517.75,-452.25"/>
<text text-anchor="middle" x="454.62" y="-438.75" font-family="Helvetica,sans-Serif" font-size="10.00">Cpl::Text::Frame::Decoder</text>
</a>
</g>
</g>
<!-- Node12&#45;&gt;Node11 -->
<g id="edge11_Node000011_Node000012" class="edge">
<title>Node12&#45;&gt;Node11</title>
<g id="a_edge11_Node000011_Node000012"><a xlink:title=" ">
<path fill="none" stroke="#63b8ff" d="M529.29,-442.62C537.61,-442.62 546.05,-442.62 554.26,-442.62"/>
<polygon fill="#63b8ff" stroke="#63b8ff" points="529.56,-439.13 519.56,-442.63 529.56,-446.13 529.56,-439.13"/>
</a>
</g>
</g>
<!-- Node13&#45;&gt;Node10 -->
<g id="edge12_Node000010_Node000013" class="edge">
<title>Node13&#45;&gt;Node10</title>
<g id="a_edge12_Node000010_Node000013"><a xlink:title=" ">
<path fill="none" stroke="#9a32cd" stroke-dasharray="5,2" d="M667.07,-349.62C725.54,-349.62 827.14,-349.62 891.89,-349.62"/>
<polygon fill="#9a32cd" stroke="#9a32cd" points="667.14,-346.13 657.14,-349.63 667.14,-353.13 667.14,-346.13"/>
</a>
</g>
<text text-anchor="middle" x="778.5" y="-351.38" font-family="Helvetica,sans-Serif" font-size="10.00" fill="grey"> m_srcPtr</text>
</g>
<!-- Node14&#45;&gt;Node9 -->
<g id="edge15_Node000009_Node000014" class="edge">
<title>Node14&#45;&gt;Node9</title>
<g id="a_edge15_Node000009_Node000014"><a xlink:title=" ">
<path fill="none" stroke="orange" stroke-dasharray="5,2" d="M1296.42,-372.19C1345.16,-370.77 1406.94,-368.97 1458.02,-367.49"/>
<polygon fill="orange" stroke="orange" points="1296.36,-368.69 1286.47,-372.48 1296.57,-375.69 1296.36,-368.69"/>
</a>
</g>
<text text-anchor="start" x="1302.5" y="-384.62" font-family="Helvetica,sans-Serif" font-size="10.00" fill="grey"> &lt; OPTION_CPL_TSHELL</text>
<text text-anchor="middle" x="1371.5" y="-373.38" font-family="Helvetica,sans-Serif" font-size="10.00" fill="grey">_PROCESSOR_INPUT_SIZE &gt;</text>
</g>
<!-- Node15&#45;&gt;Node1 -->
<g id="edge17_Node000001_Node000015" class="edge">
<title>Node15&#45;&gt;Node1</title>
<g id="a_edge17_Node000001_Node000015"><a xlink:title=" ">
<path fill="none" stroke="#9a32cd" stroke-dasharray="5,2" d="M1637.79,-315.62C1674.15,-315.62 1716.52,-315.62 1750.12,-315.62"/>
<polygon fill="#9a32cd" stroke="#9a32cd" points="1638.22,-312.13 1628.22,-315.63 1638.22,-319.13 1638.22,-312.13"/>
</a>
</g>
<text text-anchor="middle" x="1703.25" y="-317.38" font-family="Helvetica,sans-Serif" font-size="10.00" fill="grey"> m_processor</text>
</g>
<!-- Node16&#45;&gt;Node15 -->
<g id="edge18_Node000015_Node000016" class="edge">
<title>Node16&#45;&gt;Node15</title>
<g id="a_edge18_Node000015_Node000016"><a xlink:title=" ">
<path fill="none" stroke="#63b8ff" d="M1278.93,-212.19C1325.04,-221.33 1387.58,-235.84 1440.5,-255.62 1477.6,-269.49 1518.07,-292.44 1539.96,-305.57"/>
<polygon fill="#63b8ff" stroke="#63b8ff" points="1279.85,-208.8 1269.37,-210.33 1278.51,-215.67 1279.85,-208.8"/>
</a>
</g>
</g>
<!-- Node17 -->
<g id="Node000017" class="node">
<title>Node17</title>
<g id="a_Node000017"><a xlink:href="class_cpl_1_1_t_shell_1_1_context__.html" target="_top" xlink:title="This Private Namespace class defines a &quot;Context&quot; for a TShell command.">
<polygon fill="white" stroke="#666666" points="1005.62,-27.25 900.38,-27.25 900.38,-8 1005.62,-8 1005.62,-27.25"/>
<text text-anchor="middle" x="953" y="-13.75" font-family="Helvetica,sans-Serif" font-size="10.00">Cpl::TShell::Context_</text>
</a>
</g>
</g>
<!-- Node17&#45;&gt;Node16 -->
<g id="edge19_Node000016_Node000017" class="edge">
<title>Node17&#45;&gt;Node16</title>
<g id="a_edge19_Node000016_Node000017"><a xlink:title=" ">
<path fill="none" stroke="#63b8ff" d="M1002.25,-31.1C1013.27,-34.72 1024.81,-38.94 1035.25,-43.62 1075.88,-61.86 1087.49,-65.87 1121.5,-94.62 1157.37,-124.95 1190.52,-170.58 1204.29,-190.6"/>
<polygon fill="#63b8ff" stroke="#63b8ff" points="1003.49,-27.82 992.91,-28.15 1001.39,-34.5 1003.49,-27.82"/>
</a>
</g>
</g>
<!-- Node18 -->
<g id="Node000018" class="node">
<title>Node18</title>
<g id="a_Node000018"><a xlink:href="class_cpl_1_1_t_shell_1_1_processor_api.html" target="_top" xlink:title="This class defines the interface a TShell Command Processor.">
<polygon fill="white" stroke="#666666" points="683.25,-19.25 557.75,-19.25 557.75,0 683.25,0 683.25,-19.25"/>
<text text-anchor="middle" x="620.5" y="-5.75" font-family="Helvetica,sans-Serif" font-size="10.00">Cpl::TShell::ProcessorApi</text>
</a>
</g>
</g>
<!-- Node18&#45;&gt;Node17 -->
<g id="edge20_Node000017_Node000018" class="edge">
<title>Node18&#45;&gt;Node17</title>
<g id="a_edge20_Node000017_Node000018"><a xlink:title=" ">
<path fill="none" stroke="#63b8ff" d="M694.97,-11.4C757.14,-12.91 844.72,-15.03 899.9,-16.36"/>
<polygon fill="#63b8ff" stroke="#63b8ff" points="695.26,-7.91 685.18,-11.17 695.09,-14.91 695.26,-7.91"/>
</a>
</g>
</g>
<!-- Node19 -->
<g id="Node000019" class="node">
<title>Node19</title>
<g id="a_Node000019"><a xlink:href="class_cpl_1_1_container_1_1_map.html" target="_top" xlink:title=" ">
<polygon fill="white" stroke="#666666" points="1016.88,-202.88 889.12,-202.88 889.12,-172.38 1016.88,-172.38 1016.88,-202.88"/>
<text text-anchor="start" x="897.12" y="-189.38" font-family="Helvetica,sans-Serif" font-size="10.00">Cpl::Container::Map</text>
<text text-anchor="middle" x="953" y="-178.12" font-family="Helvetica,sans-Serif" font-size="10.00">&lt; Cpl::TShell::Command &gt;</text>
</a>
</g>
</g>
<!-- Node19&#45;&gt;Node16 -->
<g id="edge21_Node000016_Node000019" class="edge">
<title>Node19&#45;&gt;Node16</title>
<g id="a_edge21_Node000016_Node000019"><a xlink:title=" ">
<path fill="none" stroke="#9a32cd" stroke-dasharray="5,2" d="M1028.65,-182.7C1057.69,-181.69 1091.2,-181.65 1121.5,-184.38 1135.5,-185.64 1150.58,-187.98 1164.3,-190.51"/>
<polygon fill="#9a32cd" stroke="#9a32cd" points="1028.71,-179.19 1018.86,-183.08 1028.99,-186.19 1028.71,-179.19"/>
</a>
</g>
<text text-anchor="middle" x="1087.38" y="-186.38" font-family="Helvetica,sans-Serif" font-size="10.00" fill="grey"> m_commands</text>
</g>
<!-- Node20 -->
<g id="Node000020" class="node">
<title>Node20</title>
<g id="a_Node000020"><a xlink:href="class_cpl_1_1_container_1_1_map.html" target="_top" xlink:title="This template class implements an Map using an AVL Binary tree (i.e.">
<polygon fill="white" stroke="#666666" points="670.12,-222.88 570.88,-222.88 570.88,-192.38 670.12,-192.38 670.12,-222.88"/>
<text text-anchor="start" x="578.88" y="-209.38" font-family="Helvetica,sans-Serif" font-size="10.00">Cpl::Container::Map</text>
<text text-anchor="middle" x="620.5" y="-198.12" font-family="Helvetica,sans-Serif" font-size="10.00">&lt; ITEM &gt;</text>
</a>
</g>
</g>
<!-- Node20&#45;&gt;Node19 -->
<g id="edge22_Node000019_Node000020" class="edge">
<title>Node20&#45;&gt;Node19</title>
<g id="a_edge22_Node000019_Node000020"><a xlink:title=" ">
<path fill="none" stroke="orange" stroke-dasharray="5,2" d="M681.93,-203.97C740.56,-200.42 829.16,-195.06 888.73,-191.45"/>
<polygon fill="orange" stroke="orange" points="681.9,-200.46 672.13,-204.56 682.33,-207.45 681.9,-200.46"/>
</a>
</g>
<text text-anchor="middle" x="778.5" y="-204.38" font-family="Helvetica,sans-Serif" font-size="10.00" fill="grey"> &lt; Cpl::TShell::Command &gt;</text>
</g>
<!-- Node21 -->
<g id="Node000021" class="node">
<title>Node21</title>
<g id="a_Node000021"><a xlink:href="class_cpl_1_1_system_1_1_mutex.html" target="_top" xlink:title="This mutex class defines the interface for a mutex that has &quot;recursive&quot; semantics.">
<polygon fill="white" stroke="#666666" points="1002.25,-240.25 903.75,-240.25 903.75,-221 1002.25,-221 1002.25,-240.25"/>
<text text-anchor="middle" x="953" y="-226.75" font-family="Helvetica,sans-Serif" font-size="10.00">Cpl::System::Mutex</text>
</a>
</g>
</g>
<!-- Node21&#45;&gt;Node16 -->
<g id="edge25_Node000016_Node000021" class="edge">
<title>Node21&#45;&gt;Node16</title>
<g id="a_edge25_Node000016_Node000021"><a xlink:title=" ">
<path fill="none" stroke="#9a32cd" stroke-dasharray="5,2" d="M1013.89,-223.13C1026.87,-221.53 1040.51,-219.88 1053.25,-218.38 1087.46,-214.34 1125.88,-210.01 1156.23,-206.64"/>
<polygon fill="#9a32cd" stroke="#9a32cd" points="1013.7,-219.62 1004.2,-224.32 1014.56,-226.57 1013.7,-219.62"/>
</a>
</g>
<text text-anchor="middle" x="1087.38" y="-220.38" font-family="Helvetica,sans-Serif" font-size="10.00" fill="grey"> m_outLock</text>
</g>
<!-- Node22 -->
<g id="Node000022" class="node">
<title>Node22</title>
<g id="a_Node000022"><a xlink:href="class_cpl_1_1_text_1_1_f_string.html" target="_top" xlink:title=" ">
<polygon fill="white" stroke="#666666" points="1035.25,-154.5 870.75,-154.5 870.75,-112.75 1035.25,-112.75 1035.25,-154.5"/>
<text text-anchor="start" x="878.75" y="-141" font-family="Helvetica,sans-Serif" font-size="10.00">Cpl::Text::FString</text>
<text text-anchor="start" x="878.75" y="-129.75" font-family="Helvetica,sans-Serif" font-size="10.00">&lt; OPTION_CPL_TSHELL</text>
<text text-anchor="middle" x="953" y="-118.5" font-family="Helvetica,sans-Serif" font-size="10.00">_PROCESSOR_OUTPUT_SIZE &gt;</text>
</a>
</g>
</g>
<!-- Node22&#45;&gt;Node16 -->
<g id="edge26_Node000016_Node000022" class="edge">
<title>Node22&#45;&gt;Node16</title>
<g id="a_edge26_Node000016_Node000022"><a xlink:title=" ">
<path fill="none" stroke="#9a32cd" stroke-dasharray="5,2" d="M1046.67,-149.6C1071.19,-154.56 1097.5,-160.54 1121.5,-167.38 1144.14,-173.82 1169.2,-183.34 1187.03,-190.55"/>
<polygon fill="#9a32cd" stroke="#9a32cd" points="1047.53,-146.2 1037.04,-147.69 1046.16,-153.07 1047.53,-146.2"/>
</a>
</g>
<text text-anchor="middle" x="1087.38" y="-169.38" font-family="Helvetica,sans-Serif" font-size="10.00" fill="grey"> m_outputBuffer</text>
</g>
<!-- Node23 -->
<g id="Node000023" class="node">
<title>Node23</title>
<g id="a_Node000023"><a xlink:href="class_cpl_1_1_text_1_1_f_string__.html" target="_top" xlink:title="This mostly concrete class implements a &quot;fixed storage&quot; String Type.">
<polygon fill="white" stroke="#666666" points="502,-116.25 407.25,-116.25 407.25,-97 502,-97 502,-116.25"/>
<text text-anchor="middle" x="454.62" y="-102.75" font-family="Helvetica,sans-Serif" font-size="10.00">Cpl::Text::FString_</text>
</a>
</g>
</g>
<!-- Node23&#45;&gt;Node22 -->
<g id="edge27_Node000022_Node000023" class="edge">
<title>Node23&#45;&gt;Node22</title>
<g id="a_edge27_Node000022_Node000023"><a xlink:title=" ">
<path fill="none" stroke="#63b8ff" d="M513.58,-117.97C527.08,-120.55 541.41,-123.23 554.75,-125.62 685.57,-149.1 720.32,-161.88 852.75,-150.62 858.5,-150.14 864.41,-149.49 870.36,-148.74"/>
<polygon fill="#63b8ff" stroke="#63b8ff" points="514.44,-114.57 503.96,-116.13 513.12,-121.45 514.44,-114.57"/>
</a>
</g>
</g>
<!-- Node27 -->
<g id="Node000027" class="node">
<title>Node27</title>
<g id="a_Node000027"><a xlink:href="class_cpl_1_1_text_1_1_f_string.html" target="_top" xlink:title="This template class represents a NULL terminated string of a specific length.">
<polygon fill="white" stroke="#666666" points="676.88,-116.25 564.12,-116.25 564.12,-97 676.88,-97 676.88,-116.25"/>
<text text-anchor="middle" x="620.5" y="-102.75" font-family="Helvetica,sans-Serif" font-size="10.00">Cpl::Text::FString&lt; S &gt;</text>
</a>
</g>
</g>
<!-- Node23&#45;&gt;Node27 -->
<g id="edge32_Node000027_Node000023" class="edge">
<title>Node23&#45;&gt;Node27</title>
<g id="a_edge32_Node000027_Node000023"><a xlink:title=" ">
<path fill="none" stroke="#63b8ff" d="M513.25,-106.62C529.68,-106.62 547.54,-106.62 563.85,-106.62"/>
<polygon fill="#63b8ff" stroke="#63b8ff" points="513.66,-103.13 503.66,-106.63 513.66,-110.13 513.66,-103.13"/>
</a>
</g>
</g>
<!-- Node28 -->
<g id="Node000028" class="node">
<title>Node28</title>
<g id="a_Node000028"><a xlink:href="class_cpl_1_1_text_1_1_f_string.html" target="_top" xlink:title=" ">
<polygon fill="white" stroke="#666666" points="1030,-94.5 876,-94.5 876,-52.75 1030,-52.75 1030,-94.5"/>
<text text-anchor="start" x="884" y="-81" font-family="Helvetica,sans-Serif" font-size="10.00">Cpl::Text::FString</text>
<text text-anchor="start" x="884" y="-69.75" font-family="Helvetica,sans-Serif" font-size="10.00">&lt; OPTION_CPL_TSHELL</text>
<text text-anchor="middle" x="953" y="-58.5" font-family="Helvetica,sans-Serif" font-size="10.00">_PROCESSOR_INPUT_SIZE &gt;</text>
</a>
</g>
</g>
<!-- Node23&#45;&gt;Node28 -->
<g id="edge34_Node000028_Node000023" class="edge">
<title>Node23&#45;&gt;Node28</title>
<g id="a_edge34_Node000028_Node000023"><a xlink:title=" ">
<path fill="none" stroke="#63b8ff" d="M513.48,-94.64C526.98,-92.09 541.34,-89.58 554.75,-87.62 620.83,-78 637.56,-75.96 704.25,-72.62 770.17,-69.33 786.75,-72.29 852.75,-72.62 860.16,-72.66 867.88,-72.72 875.6,-72.78"/>
<polygon fill="#63b8ff" stroke="#63b8ff" points="513.02,-91.16 503.86,-96.49 514.34,-98.03 513.02,-91.16"/>
</a>
</g>
</g>
<!-- Node24 -->
<g id="Node000024" class="node">
<title>Node24</title>
<g id="a_Node000024"><a xlink:href="class_cpl_1_1_text_1_1_string__.html" target="_top" xlink:title="This partially concrete class implements the portions of the String Api that is independent of the in...">
<polygon fill="white" stroke="#666666" points="348.88,-116.25 260.12,-116.25 260.12,-97 348.88,-97 348.88,-116.25"/>
<text text-anchor="middle" x="304.5" y="-102.75" font-family="Helvetica,sans-Serif" font-size="10.00">Cpl::Text::String_</text>
</a>
</g>
</g>
<!-- Node24&#45;&gt;Node23 -->
<g id="edge28_Node000023_Node000024" class="edge">
<title>Node24&#45;&gt;Node23</title>
<g id="a_edge28_Node000023_Node000024"><a xlink:title=" ">
<path fill="none" stroke="#63b8ff" d="M360.54,-106.62C375.8,-106.62 392.21,-106.62 406.94,-106.62"/>
<polygon fill="#63b8ff" stroke="#63b8ff" points="360.65,-103.13 350.65,-106.63 360.65,-110.13 360.65,-103.13"/>
</a>
</g>
</g>
<!-- Node25 -->
<g id="Node000025" class="node">
<title>Node25</title>
<g id="a_Node000025"><a xlink:href="class_cpl_1_1_text_1_1_string.html" target="_top" xlink:title="This abstract class defines the operations that can be before on a NULL terminated string.">
<polygon fill="white" stroke="#666666" points="217.5,-116.25 134,-116.25 134,-97 217.5,-97 217.5,-116.25"/>
<text text-anchor="middle" x="175.75" y="-102.75" font-family="Helvetica,sans-Serif" font-size="10.00">Cpl::Text::String</text>
</a>
</g>
</g>
<!-- Node25&#45;&gt;Node24 -->
<g id="edge29_Node000024_Node000025" class="edge">
<title>Node25&#45;&gt;Node24</title>
<g id="a_edge29_Node000024_Node000025"><a xlink:title=" ">
<path fill="none" stroke="#63b8ff" d="M229.22,-106.62C239.43,-106.62 250.04,-106.62 259.94,-106.62"/>
<polygon fill="#63b8ff" stroke="#63b8ff" points="229.42,-103.13 219.42,-106.63 229.42,-110.13 229.42,-103.13"/>
</a>
</g>
</g>
<!-- Node26 -->
<g id="Node000026" class="node">
<title>Node26</title>
<g id="a_Node000026"><a xlink:href="class_cpl_1_1_container_1_1_key.html" target="_top" xlink:title="This abstract class defines the interface that a contained object must support if it has comparable k...">
<polygon fill="white" stroke="#666666" points="97,-116.25 0,-116.25 0,-97 97,-97 97,-116.25"/>
<text text-anchor="middle" x="48.5" y="-102.75" font-family="Helvetica,sans-Serif" font-size="10.00">Cpl::Container::Key</text>
</a>
</g>
</g>
<!-- Node26&#45;&gt;Node25 -->
<g id="edge30_Node000025_Node000026" class="edge">
<title>Node26&#45;&gt;Node25</title>
<g id="a_edge30_Node000025_Node000026"><a xlink:title=" ">
<path fill="none" stroke="#63b8ff" d="M108.66,-106.62C117.13,-106.62 125.69,-106.62 133.72,-106.62"/>
<polygon fill="#63b8ff" stroke="#63b8ff" points="108.72,-103.13 98.72,-106.63 108.72,-110.13 108.72,-103.13"/>
</a>
</g>
</g>
<!-- Node27&#45;&gt;Node22 -->
<g id="edge31_Node000022_Node000027" class="edge">
<title>Node27&#45;&gt;Node22</title>
<g id="a_edge31_Node000022_Node000027"><a xlink:title=" ">
<path fill="none" stroke="orange" stroke-dasharray="5,2" d="M688.4,-112.09C740.94,-116.38 814.33,-122.38 870.33,-126.95"/>
<polygon fill="orange" stroke="orange" points="688.95,-108.62 678.7,-111.3 688.38,-115.6 688.95,-108.62"/>
</a>
</g>
<text text-anchor="start" x="704.25" y="-138.62" font-family="Helvetica,sans-Serif" font-size="10.00" fill="grey"> &lt; OPTION_CPL_TSHELL</text>
<text text-anchor="middle" x="778.5" y="-127.38" font-family="Helvetica,sans-Serif" font-size="10.00" fill="grey">_PROCESSOR_OUTPUT_SIZE &gt;</text>
</g>
<!-- Node27&#45;&gt;Node28 -->
<g id="edge35_Node000028_Node000027" class="edge">
<title>Node27&#45;&gt;Node28</title>
<g id="a_edge35_Node000028_Node000027"><a xlink:title=" ">
<path fill="none" stroke="orange" stroke-dasharray="5,2" d="M671.38,-94.11C682.16,-91.79 693.54,-89.63 704.25,-88.12 761.32,-80.13 826.38,-76.53 875.51,-74.92"/>
<polygon fill="orange" stroke="orange" points="670.88,-90.64 661.89,-96.24 672.41,-97.47 670.88,-90.64"/>
</a>
</g>
<text text-anchor="start" x="709.5" y="-101.62" font-family="Helvetica,sans-Serif" font-size="10.00" fill="grey"> &lt; OPTION_CPL_TSHELL</text>
<text text-anchor="middle" x="778.5" y="-90.38" font-family="Helvetica,sans-Serif" font-size="10.00" fill="grey">_PROCESSOR_INPUT_SIZE &gt;</text>
</g>
<!-- Node28&#45;&gt;Node16 -->
<g id="edge33_Node000016_Node000028" class="edge">
<title>Node28&#45;&gt;Node16</title>
<g id="a_edge33_Node000016_Node000028"><a xlink:title=" ">
<path fill="none" stroke="#9a32cd" stroke-dasharray="5,2" d="M1041.21,-93.95C1067.87,-101.99 1096.69,-112.6 1121.5,-126.12 1154.34,-144.02 1186.46,-174.96 1201.74,-190.74"/>
<polygon fill="#9a32cd" stroke="#9a32cd" points="1042.37,-90.64 1031.79,-91.2 1040.4,-97.36 1042.37,-90.64"/>
</a>
</g>
<text text-anchor="middle" x="1087.38" y="-139.62" font-family="Helvetica,sans-Serif" font-size="10.00" fill="grey"> m_tokenBuffer</text>
<text text-anchor="middle" x="1087.38" y="-128.38" font-family="Helvetica,sans-Serif" font-size="10.00" fill="grey">m_tokenBuffer2</text>
</g>
</g>
</svg>
