<?xml version="1.0" encoding="UTF-8" standalone="no"?>
<!DOCTYPE svg PUBLIC "-//W3C//DTD SVG 1.1//EN"
 "http://www.w3.org/Graphics/SVG/1.1/DTD/svg11.dtd">
<!-- Generated by graphviz version 9.0.0 (20230911.1827)
 -->
<!-- Title: Ajax::Heating::Simulated::Cmd Pages: 1 -->
<svg width="1922pt" height="257pt"
 viewBox="0.00 0.00 1921.50 257.25" xmlns="http://www.w3.org/2000/svg" xmlns:xlink="http://www.w3.org/1999/xlink">
<g id="graph0" class="graph" transform="scale(1 1) rotate(0) translate(4 253.25)">
<title>Ajax::Heating::Simulated::Cmd</title>
<!-- Node1 -->
<g id="Node000001" class="node">
<title>Node1</title>
<g id="a_Node000001"><a xlink:title="This class implements a Shell command.">
<polygon fill="#999999" stroke="#666666" points="1913.5,-149.25 1767.75,-149.25 1767.75,-130 1913.5,-130 1913.5,-149.25"/>
<text text-anchor="middle" x="1840.62" y="-135.75" font-family="Helvetica,sans-Serif" font-size="10.00">Ajax::Heating::Simulated::Cmd</text>
</a>
</g>
</g>
<!-- Node2 -->
<g id="Node000002" class="node">
<title>Node2</title>
<g id="a_Node000002"><a xlink:href="class_cpl_1_1_t_shell_1_1_cmd_1_1_command.html" target="_top" xlink:title="This partially concrete class implements infrastructure and/or common functionality for a Shell comma...">
<polygon fill="white" stroke="#666666" points="1613.25,-62.25 1477.25,-62.25 1477.25,-43 1613.25,-43 1613.25,-62.25"/>
<text text-anchor="middle" x="1545.25" y="-48.75" font-family="Helvetica,sans-Serif" font-size="10.00">Cpl::TShell::Cmd::Command</text>
</a>
</g>
</g>
<!-- Node2&#45;&gt;Node1 -->
<g id="edge1_Node000001_Node000002" class="edge">
<title>Node2&#45;&gt;Node1</title>
<g id="a_edge1_Node000001_Node000002"><a xlink:title=" ">
<path fill="none" stroke="#63b8ff" d="M1591.03,-65.9C1650.01,-83.4 1752.45,-113.77 1805.54,-129.52"/>
<polygon fill="#63b8ff" stroke="#63b8ff" points="1592.22,-62.61 1581.64,-63.12 1590.23,-69.32 1592.22,-62.61"/>
</a>
</g>
</g>
<!-- Node3 -->
<g id="Node000003" class="node">
<title>Node3</title>
<g id="a_Node000003"><a xlink:href="class_cpl_1_1_t_shell_1_1_command.html" target="_top" xlink:title="This class defines the interface for a TShell command.">
<polygon fill="white" stroke="#666666" points="1353.88,-19.25 1242.62,-19.25 1242.62,0 1353.88,0 1353.88,-19.25"/>
<text text-anchor="middle" x="1298.25" y="-5.75" font-family="Helvetica,sans-Serif" font-size="10.00">Cpl::TShell::Command</text>
</a>
</g>
</g>
<!-- Node3&#45;&gt;Node2 -->
<g id="edge2_Node000002_Node000003" class="edge">
<title>Node3&#45;&gt;Node2</title>
<g id="a_edge2_Node000002_Node000003"><a xlink:title=" ">
<path fill="none" stroke="#63b8ff" d="M1365.19,-21.2C1403.18,-27.87 1450.46,-36.16 1486.9,-42.56"/>
<polygon fill="#63b8ff" stroke="#63b8ff" points="1366.18,-17.82 1355.72,-19.54 1364.97,-24.71 1366.18,-17.82"/>
</a>
</g>
</g>
<!-- Node4 -->
<g id="Node000004" class="node">
<title>Node4</title>
<g id="a_Node000004"><a xlink:href="class_cpl_1_1_container_1_1_map_item.html" target="_top" xlink:title="This abstract class represents a item that can be contained in an Map (aka a sorted list implemented ...">
<polygon fill="white" stroke="#666666" points="1102.88,-19.25 984.12,-19.25 984.12,0 1102.88,0 1102.88,-19.25"/>
<text text-anchor="middle" x="1043.5" y="-5.75" font-family="Helvetica,sans-Serif" font-size="10.00">Cpl::Container::MapItem</text>
</a>
</g>
</g>
<!-- Node4&#45;&gt;Node3 -->
<g id="edge3_Node000003_Node000004" class="edge">
<title>Node4&#45;&gt;Node3</title>
<g id="a_edge3_Node000003_Node000004"><a xlink:title=" ">
<path fill="none" stroke="#63b8ff" d="M1114.5,-9.62C1154.88,-9.62 1204.91,-9.62 1242.41,-9.62"/>
<polygon fill="#63b8ff" stroke="#63b8ff" points="1114.63,-6.13 1104.63,-9.63 1114.63,-13.13 1114.63,-6.13"/>
</a>
</g>
</g>
<!-- Node5 -->
<g id="Node000005" class="node">
<title>Node5</title>
<g id="a_Node000005"><a xlink:href="class_cpl_1_1_container_1_1_dict_item.html" target="_top" xlink:title="This abstract class represents a item that can be contained in Dictionary.">
<polygon fill="white" stroke="#666666" points="926.5,-24.25 809.25,-24.25 809.25,-5 926.5,-5 926.5,-24.25"/>
<text text-anchor="middle" x="867.88" y="-10.75" font-family="Helvetica,sans-Serif" font-size="10.00">Cpl::Container::DictItem</text>
</a>
</g>
</g>
<!-- Node5&#45;&gt;Node4 -->
<g id="edge4_Node000004_Node000005" class="edge">
<title>Node5&#45;&gt;Node4</title>
<g id="a_edge4_Node000004_Node000005"><a xlink:title=" ">
<path fill="none" stroke="#63b8ff" d="M938.08,-12.63C953.21,-12.2 969.08,-11.74 983.75,-11.32"/>
<polygon fill="#63b8ff" stroke="#63b8ff" points="938.1,-9.13 928.2,-12.92 938.3,-16.13 938.1,-9.13"/>
</a>
</g>
</g>
<!-- Node6 -->
<g id="Node000006" class="node">
<title>Node6</title>
<g id="a_Node000006"><a xlink:href="class_cpl_1_1_container_1_1_extended_item.html" target="_top" xlink:title="This class is used by the Container classes to implement a various types of DOUBLY linked containers.">
<polygon fill="white" stroke="#666666" points="675,-47.25 535.25,-47.25 535.25,-28 675,-28 675,-47.25"/>
<text text-anchor="middle" x="605.12" y="-33.75" font-family="Helvetica,sans-Serif" font-size="10.00">Cpl::Container::ExtendedItem</text>
</a>
</g>
</g>
<!-- Node6&#45;&gt;Node5 -->
<g id="edge5_Node000005_Node000006" class="edge">
<title>Node6&#45;&gt;Node5</title>
<g id="a_edge5_Node000005_Node000006"><a xlink:title=" ">
<path fill="none" stroke="#63b8ff" d="M686.78,-30.51C726.27,-27.03 772.92,-22.91 808.84,-19.74"/>
<polygon fill="#63b8ff" stroke="#63b8ff" points="686.48,-27.02 676.82,-31.39 687.09,-34 686.48,-27.02"/>
</a>
</g>
</g>
<!-- Node7 -->
<g id="Node000007" class="node">
<title>Node7</title>
<g id="a_Node000007"><a xlink:href="class_cpl_1_1_container_1_1_item.html" target="_top" xlink:title="This class is used by the Container classes to implement a various types of singly linked containers.">
<polygon fill="white" stroke="#666666" points="363.5,-70.25 263.5,-70.25 263.5,-51 363.5,-51 363.5,-70.25"/>
<text text-anchor="middle" x="313.5" y="-56.75" font-family="Helvetica,sans-Serif" font-size="10.00">Cpl::Container::Item</text>
</a>
</g>
</g>
<!-- Node7&#45;&gt;Node6 -->
<g id="edge6_Node000006_Node000007" class="edge">
<title>Node7&#45;&gt;Node6</title>
<g id="a_edge6_Node000006_Node000007"><a xlink:title=" ">
<path fill="none" stroke="#63b8ff" d="M375.4,-55.79C421.98,-52.09 486.24,-46.99 534.79,-43.13"/>
<polygon fill="#63b8ff" stroke="#63b8ff" points="375.16,-52.3 365.47,-56.58 375.71,-59.27 375.16,-52.3"/>
</a>
</g>
</g>
<!-- Node14 -->
<g id="Node000014" class="node">
<title>Node14</title>
<g id="a_Node000014"><a xlink:href="class_cpl_1_1_dm_1_1_model_point.html" target="_top" xlink:title="This mostly abstract class defines the interface for a Model Point.">
<polygon fill="white" stroke="#666666" points="656.62,-86.25 553.62,-86.25 553.62,-67 656.62,-67 656.62,-86.25"/>
<text text-anchor="middle" x="605.12" y="-72.75" font-family="Helvetica,sans-Serif" font-size="10.00">Cpl::Dm::ModelPoint</text>
</a>
</g>
</g>
<!-- Node7&#45;&gt;Node14 -->
<g id="edge14_Node000014_Node000007" class="edge">
<title>Node7&#45;&gt;Node14</title>
<g id="a_edge14_Node000014_Node000007"><a xlink:title=" ">
<path fill="none" stroke="#63b8ff" d="M375.2,-63.98C428.04,-66.9 503.75,-71.08 553.41,-73.82"/>
<polygon fill="#63b8ff" stroke="#63b8ff" points="375.65,-60.5 365.47,-63.44 375.26,-67.49 375.65,-60.5"/>
</a>
</g>
</g>
<!-- Node8 -->
<g id="Node000008" class="node">
<title>Node8</title>
<g id="a_Node000008"><a xlink:href="class_cpl_1_1_container_1_1_key_literal_string.html" target="_top" xlink:title="This class provides a &#39;Key&#39; wrapper for a C string literal.">
<polygon fill="white" stroke="#666666" points="1360.25,-67.88 1236.25,-67.88 1236.25,-37.38 1360.25,-37.38 1360.25,-67.88"/>
<text text-anchor="start" x="1244.25" y="-54.38" font-family="Helvetica,sans-Serif" font-size="10.00">Cpl::Container::KeyLiteral</text>
<text text-anchor="middle" x="1298.25" y="-43.12" font-family="Helvetica,sans-Serif" font-size="10.00">String</text>
</a>
</g>
</g>
<!-- Node8&#45;&gt;Node2 -->
<g id="edge7_Node000002_Node000008" class="edge">
<title>Node8&#45;&gt;Node2</title>
<g id="a_edge7_Node000002_Node000008"><a xlink:title=" ">
<path fill="none" stroke="#9a32cd" stroke-dasharray="5,2" d="M1371.94,-52.62C1405.2,-52.62 1444.37,-52.62 1476.95,-52.62"/>
<polygon fill="#9a32cd" stroke="#9a32cd" points="1371.96,-49.13 1361.96,-52.63 1371.96,-56.13 1371.96,-49.13"/>
</a>
</g>
<text text-anchor="middle" x="1418.75" y="-54.38" font-family="Helvetica,sans-Serif" font-size="10.00" fill="grey"> m_mapKey</text>
</g>
<!-- Node9 -->
<g id="Node000009" class="node">
<title>Node9</title>
<g id="a_Node000009"><a xlink:href="class_cpl_1_1_container_1_1_key_string_buffer.html" target="_top" xlink:title="This class provides a &#39;Key&#39; wrapper for a array of Character of length N, i.e.">
<polygon fill="white" stroke="#666666" points="1104.75,-67.88 982.25,-67.88 982.25,-37.38 1104.75,-37.38 1104.75,-67.88"/>
<text text-anchor="start" x="990.25" y="-54.38" font-family="Helvetica,sans-Serif" font-size="10.00">Cpl::Container::KeyString</text>
<text text-anchor="middle" x="1043.5" y="-43.12" font-family="Helvetica,sans-Serif" font-size="10.00">Buffer</text>
</a>
</g>
</g>
<!-- Node9&#45;&gt;Node8 -->
<g id="edge8_Node000008_Node000009" class="edge">
<title>Node9&#45;&gt;Node8</title>
<g id="a_edge8_Node000008_Node000009"><a xlink:title=" ">
<path fill="none" stroke="#63b8ff" d="M1116.47,-52.62C1154.18,-52.62 1199.87,-52.62 1235.89,-52.62"/>
<polygon fill="#63b8ff" stroke="#63b8ff" points="1116.55,-49.13 1106.55,-52.63 1116.55,-56.13 1116.55,-49.13"/>
</a>
</g>
</g>
<!-- Node10 -->
<g id="Node000010" class="node">
<title>Node10</title>
<g id="a_Node000010"><a xlink:href="class_cpl_1_1_container_1_1_key.html" target="_top" xlink:title="This abstract class defines the interface that a contained object must support if it has comparable k...">
<polygon fill="white" stroke="#666666" points="916.38,-62.25 819.38,-62.25 819.38,-43 916.38,-43 916.38,-62.25"/>
<text text-anchor="middle" x="867.88" y="-48.75" font-family="Helvetica,sans-Serif" font-size="10.00">Cpl::Container::Key</text>
</a>
</g>
</g>
<!-- Node10&#45;&gt;Node9 -->
<g id="edge9_Node000009_Node000010" class="edge">
<title>Node10&#45;&gt;Node9</title>
<g id="a_edge9_Node000009_Node000010"><a xlink:title=" ">
<path fill="none" stroke="#63b8ff" d="M927.96,-52.62C945.4,-52.62 964.5,-52.62 982.02,-52.62"/>
<polygon fill="#63b8ff" stroke="#63b8ff" points="928.29,-49.13 918.29,-52.63 928.29,-56.13 928.29,-49.13"/>
</a>
</g>
</g>
<!-- Node11 -->
<g id="Node000011" class="node">
<title>Node11</title>
<g id="a_Node000011"><a xlink:href="class_cpl_1_1_dm_1_1_mp_1_1_int32.html" target="_top" xlink:title="This class provides a concrete implementation for a Point who&#39;s data is a int32_t.">
<polygon fill="white" stroke="#666666" points="1592.25,-129.25 1498.25,-129.25 1498.25,-110 1592.25,-110 1592.25,-129.25"/>
<text text-anchor="middle" x="1545.25" y="-115.75" font-family="Helvetica,sans-Serif" font-size="10.00">Cpl::Dm::Mp::Int32</text>
</a>
</g>
</g>
<!-- Node11&#45;&gt;Node1 -->
<g id="edge10_Node000001_Node000011" class="edge">
<title>Node11&#45;&gt;Node1</title>
<g id="a_edge10_Node000001_Node000011"><a xlink:title=" ">
<path fill="none" stroke="#9a32cd" stroke-dasharray="5,2" d="M1603.79,-118.75C1644.62,-118.68 1700.66,-119.66 1749.75,-124.38 1762.2,-125.57 1775.52,-127.48 1787.99,-129.55"/>
<polygon fill="#9a32cd" stroke="#9a32cd" points="1603.93,-115.25 1593.94,-118.8 1603.96,-122.25 1603.93,-115.25"/>
</a>
</g>
<text text-anchor="middle" x="1690.5" y="-125.38" font-family="Helvetica,sans-Serif" font-size="10.00" fill="grey"> m_mpIdt</text>
</g>
<!-- Node12 -->
<g id="Node000012" class="node">
<title>Node12</title>
<g id="a_Node000012"><a xlink:href="class_cpl_1_1_dm_1_1_mp_1_1_numeric.html" target="_top" xlink:title=" ">
<polygon fill="white" stroke="#666666" points="1352.75,-132.88 1243.75,-132.88 1243.75,-102.38 1352.75,-102.38 1352.75,-132.88"/>
<text text-anchor="start" x="1251.75" y="-119.38" font-family="Helvetica,sans-Serif" font-size="10.00">Cpl::Dm::Mp::Numeric</text>
<text text-anchor="middle" x="1298.25" y="-108.12" font-family="Helvetica,sans-Serif" font-size="10.00">&lt; int32_t, Int32 &gt;</text>
</a>
</g>
</g>
<!-- Node12&#45;&gt;Node11 -->
<g id="edge11_Node000011_Node000012" class="edge">
<title>Node12&#45;&gt;Node11</title>
<g id="a_edge11_Node000011_Node000012"><a xlink:title=" ">
<path fill="none" stroke="#63b8ff" d="M1364.29,-118.16C1406.41,-118.5 1460.25,-118.94 1498.03,-119.25"/>
<polygon fill="#63b8ff" stroke="#63b8ff" points="1364.56,-114.66 1354.53,-118.08 1364.5,-121.66 1364.56,-114.66"/>
</a>
</g>
</g>
<!-- Node13 -->
<g id="Node000013" class="node">
<title>Node13</title>
<g id="a_Node000013"><a xlink:href="class_cpl_1_1_dm_1_1_model_point_common__.html" target="_top" xlink:title="This concrete class provide common infrastructure for a Model Point.">
<polygon fill="white" stroke="#666666" points="941.5,-152.25 794.25,-152.25 794.25,-133 941.5,-133 941.5,-152.25"/>
<text text-anchor="middle" x="867.88" y="-138.75" font-family="Helvetica,sans-Serif" font-size="10.00">Cpl::Dm::ModelPointCommon_</text>
</a>
</g>
</g>
<!-- Node13&#45;&gt;Node12 -->
<g id="edge12_Node000012_Node000013" class="edge">
<title>Node13&#45;&gt;Node12</title>
<g id="a_edge12_Node000012_Node000013"><a xlink:title=" ">
<path fill="none" stroke="#63b8ff" d="M916.72,-129.84C935.79,-125.35 958.04,-120.87 978.5,-118.62 1071.19,-108.45 1179.95,-111.24 1243.48,-114.33"/>
<polygon fill="#63b8ff" stroke="#63b8ff" points="915.96,-126.42 907.06,-132.18 917.61,-133.23 915.96,-126.42"/>
</a>
</g>
</g>
<!-- Node22 -->
<g id="Node000022" class="node">
<title>Node22</title>
<g id="a_Node000022"><a xlink:href="class_cpl_1_1_dm_1_1_mp_1_1_numeric.html" target="_top" xlink:title="This template class provides a mostly concrete implementation for a Model Point who&#39;s data is a C num...">
<polygon fill="white" stroke="#666666" points="1108.5,-157.88 978.5,-157.88 978.5,-127.38 1108.5,-127.38 1108.5,-157.88"/>
<text text-anchor="start" x="986.5" y="-144.38" font-family="Helvetica,sans-Serif" font-size="10.00">Cpl::Dm::Mp::Numeric</text>
<text text-anchor="middle" x="1043.5" y="-133.12" font-family="Helvetica,sans-Serif" font-size="10.00">&lt; ELEMTYPE, MPTYPE &gt;</text>
</a>
</g>
</g>
<!-- Node13&#45;&gt;Node22 -->
<g id="edge23_Node000022_Node000013" class="edge">
<title>Node13&#45;&gt;Node22</title>
<g id="a_edge23_Node000022_Node000013"><a xlink:title=" ">
<path fill="none" stroke="#63b8ff" d="M953.14,-142.62C961.53,-142.62 969.95,-142.62 978.09,-142.62"/>
<polygon fill="#63b8ff" stroke="#63b8ff" points="953.27,-139.13 943.27,-142.63 953.27,-146.13 953.27,-139.13"/>
</a>
</g>
</g>
<!-- Node23 -->
<g id="Node000023" class="node">
<title>Node23</title>
<g id="a_Node000023"><a xlink:href="class_cpl_1_1_dm_1_1_mp_1_1_bool.html" target="_top" xlink:title="This class provides a concrete implementation for a Point who&#39;s data is a bool.">
<polygon fill="white" stroke="#666666" points="1218.25,-229.25 1126.5,-229.25 1126.5,-210 1218.25,-210 1218.25,-229.25"/>
<text text-anchor="middle" x="1172.38" y="-215.75" font-family="Helvetica,sans-Serif" font-size="10.00">Cpl::Dm::Mp::Bool</text>
</a>
</g>
</g>
<!-- Node13&#45;&gt;Node23 -->
<g id="edge25_Node000023_Node000013" class="edge">
<title>Node13&#45;&gt;Node23</title>
<g id="a_edge25_Node000023_Node000013"><a xlink:title=" ">
<path fill="none" stroke="#63b8ff" d="M888.5,-159.92C905.87,-174.11 932.56,-193.32 959.5,-202.62 1014.61,-221.65 1082.4,-223.67 1126.23,-222.42"/>
<polygon fill="#63b8ff" stroke="#63b8ff" points="890.93,-157.4 881.03,-153.63 886.42,-162.75 890.93,-157.4"/>
</a>
</g>
</g>
<!-- Node25 -->
<g id="Node000025" class="node">
<title>Node25</title>
<g id="a_Node000025"><a xlink:href="class_cpl_1_1_dm_1_1_mp_1_1_numeric.html" target="_top" xlink:title=" ">
<polygon fill="white" stroke="#666666" points="1352.75,-181.88 1243.75,-181.88 1243.75,-151.38 1352.75,-151.38 1352.75,-181.88"/>
<text text-anchor="start" x="1251.75" y="-168.38" font-family="Helvetica,sans-Serif" font-size="10.00">Cpl::Dm::Mp::Numeric</text>
<text text-anchor="middle" x="1298.25" y="-157.12" font-family="Helvetica,sans-Serif" font-size="10.00">&lt; double, Double &gt;</text>
</a>
</g>
</g>
<!-- Node13&#45;&gt;Node25 -->
<g id="edge28_Node000025_Node000013" class="edge">
<title>Node13&#45;&gt;Node25</title>
<g id="a_edge28_Node000025_Node000013"><a xlink:title=" ">
<path fill="none" stroke="#63b8ff" d="M918.36,-155.31C937.08,-159.62 958.65,-164 978.5,-166.62 1084.18,-180.59 1111.75,-178.33 1218.25,-173.62 1226.37,-173.27 1234.94,-172.7 1243.32,-172.04"/>
<polygon fill="#63b8ff" stroke="#63b8ff" points="919.42,-151.96 908.88,-153.07 917.81,-158.78 919.42,-151.96"/>
</a>
</g>
</g>
<!-- Node14&#45;&gt;Node13 -->
<g id="edge13_Node000013_Node000014" class="edge">
<title>Node14&#45;&gt;Node13</title>
<g id="a_edge13_Node000013_Node000014"><a xlink:title=" ">
<path fill="none" stroke="#63b8ff" d="M657.15,-89.54C706.88,-102.13 781.47,-121.01 826.99,-132.53"/>
<polygon fill="#63b8ff" stroke="#63b8ff" points="658.03,-86.15 647.48,-87.09 656.31,-92.94 658.03,-86.15"/>
</a>
</g>
</g>
<!-- Node15 -->
<g id="Node000015" class="node">
<title>Node15</title>
<g id="a_Node000015"><a xlink:href="class_cpl_1_1_container_1_1_d_list.html" target="_top" xlink:title=" ">
<polygon fill="white" stroke="#666666" points="670.88,-135.88 539.38,-135.88 539.38,-105.38 670.88,-105.38 670.88,-135.88"/>
<text text-anchor="start" x="547.38" y="-122.38" font-family="Helvetica,sans-Serif" font-size="10.00">Cpl::Container::DList</text>
<text text-anchor="middle" x="605.12" y="-111.12" font-family="Helvetica,sans-Serif" font-size="10.00">&lt; Cpl::Dm::SubscriberApi &gt;</text>
</a>
</g>
</g>
<!-- Node15&#45;&gt;Node13 -->
<g id="edge15_Node000013_Node000015" class="edge">
<title>Node15&#45;&gt;Node13</title>
<g id="a_edge15_Node000013_Node000015"><a xlink:title=" ">
<path fill="none" stroke="#9a32cd" stroke-dasharray="5,2" d="M682.59,-126.64C711.89,-128.99 745.63,-131.74 776.25,-134.38 782.07,-134.88 788.11,-135.4 794.17,-135.94"/>
<polygon fill="#9a32cd" stroke="#9a32cd" points="682.93,-123.15 672.68,-125.85 682.37,-130.13 682.93,-123.15"/>
</a>
</g>
<text text-anchor="middle" x="734.62" y="-135.38" font-family="Helvetica,sans-Serif" font-size="10.00" fill="grey"> m_subscribers</text>
</g>
<!-- Node16 -->
<g id="Node000016" class="node">
<title>Node16</title>
<g id="a_Node000016"><a xlink:href="class_cpl_1_1_container_1_1_d_list.html" target="_top" xlink:title="This template class implements a Doubly linked list which maintains the ordering imposed on it by the...">
<polygon fill="white" stroke="#666666" points="365.38,-125.88 261.62,-125.88 261.62,-95.38 365.38,-95.38 365.38,-125.88"/>
<text text-anchor="start" x="269.62" y="-112.38" font-family="Helvetica,sans-Serif" font-size="10.00">Cpl::Container::DList</text>
<text text-anchor="middle" x="313.5" y="-101.12" font-family="Helvetica,sans-Serif" font-size="10.00">&lt; ITEM &gt;</text>
</a>
</g>
</g>
<!-- Node16&#45;&gt;Node15 -->
<g id="edge16_Node000015_Node000016" class="edge">
<title>Node16&#45;&gt;Node15</title>
<g id="a_edge16_Node000015_Node000016"><a xlink:title=" ">
<path fill="none" stroke="orange" stroke-dasharray="5,2" d="M377.06,-112.78C424.88,-114.44 490.61,-116.71 539.05,-118.38"/>
<polygon fill="orange" stroke="orange" points="377.24,-109.29 367.13,-112.44 377,-116.29 377.24,-109.29"/>
</a>
</g>
<text text-anchor="middle" x="458.38" y="-118.38" font-family="Helvetica,sans-Serif" font-size="10.00" fill="grey"> &lt; Cpl::Dm::SubscriberApi &gt;</text>
</g>
<!-- Node17 -->
<g id="Node000017" class="node">
<title>Node17</title>
<g id="a_Node000017"><a xlink:href="class_cpl_1_1_dm_1_1_model_database.html" target="_top" xlink:title="This concrete class implements a simple Model Database.">
<polygon fill="white" stroke="#666666" points="666,-173.25 544.25,-173.25 544.25,-154 666,-154 666,-173.25"/>
<text text-anchor="middle" x="605.12" y="-159.75" font-family="Helvetica,sans-Serif" font-size="10.00">Cpl::Dm::ModelDatabase</text>
</a>
</g>
</g>
<!-- Node17&#45;&gt;Node13 -->
<g id="edge17_Node000013_Node000017" class="edge">
<title>Node17&#45;&gt;Node13</title>
<g id="a_edge17_Node000013_Node000017"><a xlink:title=" ">
<path fill="none" stroke="#9a32cd" stroke-dasharray="5,2" d="M677.73,-157.86C713.89,-154.95 757.69,-151.42 794.02,-148.49"/>
<polygon fill="#9a32cd" stroke="#9a32cd" points="677.47,-154.37 667.78,-158.66 678.03,-161.35 677.47,-154.37"/>
</a>
</g>
<text text-anchor="middle" x="734.62" y="-157.38" font-family="Helvetica,sans-Serif" font-size="10.00" fill="grey"> m_modelDatabase</text>
</g>
<!-- Node18 -->
<g id="Node000018" class="node">
<title>Node18</title>
<g id="a_Node000018"><a xlink:href="class_cpl_1_1_dm_1_1_model_database_api.html" target="_top" xlink:title="This class defines the basic operations that can be performed on a Model Base.">
<polygon fill="white" stroke="#666666" points="381.5,-249.25 245.5,-249.25 245.5,-230 381.5,-230 381.5,-249.25"/>
<text text-anchor="middle" x="313.5" y="-235.75" font-family="Helvetica,sans-Serif" font-size="10.00">Cpl::Dm::ModelDatabaseApi</text>
</a>
</g>
</g>
<!-- Node18&#45;&gt;Node17 -->
<g id="edge18_Node000017_Node000018" class="edge">
<title>Node18&#45;&gt;Node17</title>
<g id="a_edge18_Node000017_Node000018"><a xlink:title=" ">
<path fill="none" stroke="#63b8ff" d="M392.65,-229.23C430.74,-223.09 476.91,-214.05 517.25,-201.62 541.16,-194.26 567.31,-182.24 584.6,-173.7"/>
<polygon fill="#63b8ff" stroke="#63b8ff" points="392.46,-225.71 383.12,-230.72 393.54,-232.63 392.46,-225.71"/>
</a>
</g>
</g>
<!-- Node19 -->
<g id="Node000019" class="node">
<title>Node19</title>
<g id="a_Node000019"><a xlink:href="class_cpl_1_1_container_1_1_s_list.html" target="_top" xlink:title=" ">
<polygon fill="white" stroke="#666666" points="373.25,-211.88 253.75,-211.88 253.75,-181.38 373.25,-181.38 373.25,-211.88"/>
<text text-anchor="start" x="261.75" y="-198.38" font-family="Helvetica,sans-Serif" font-size="10.00">Cpl::Container::SList</text>
<text text-anchor="middle" x="313.5" y="-187.12" font-family="Helvetica,sans-Serif" font-size="10.00">&lt; Cpl::Dm::ModelPoint &gt;</text>
</a>
</g>
</g>
<!-- Node19&#45;&gt;Node17 -->
<g id="edge19_Node000017_Node000019" class="edge">
<title>Node19&#45;&gt;Node17</title>
<g id="a_edge19_Node000017_Node000019"><a xlink:title=" ">
<path fill="none" stroke="#9a32cd" stroke-dasharray="5,2" d="M384.84,-188.61C433.45,-183.07 497.45,-175.78 543.75,-170.5"/>
<polygon fill="#9a32cd" stroke="#9a32cd" points="384.5,-185.13 374.96,-189.74 385.29,-192.08 384.5,-185.13"/>
</a>
</g>
<text text-anchor="middle" x="458.38" y="-188.38" font-family="Helvetica,sans-Serif" font-size="10.00" fill="grey"> m_list</text>
</g>
<!-- Node20 -->
<g id="Node000020" class="node">
<title>Node20</title>
<g id="a_Node000020"><a xlink:href="class_cpl_1_1_container_1_1_s_list.html" target="_top" xlink:title="This template class implements a singly linked list which maintains the ordering imposed on it by the...">
<polygon fill="white" stroke="#666666" points="103.75,-211.88 0,-211.88 0,-181.38 103.75,-181.38 103.75,-211.88"/>
<text text-anchor="start" x="8" y="-198.38" font-family="Helvetica,sans-Serif" font-size="10.00">Cpl::Container::SList</text>
<text text-anchor="middle" x="51.88" y="-187.12" font-family="Helvetica,sans-Serif" font-size="10.00">&lt; ITEM &gt;</text>
</a>
</g>
</g>
<!-- Node20&#45;&gt;Node19 -->
<g id="edge20_Node000019_Node000020" class="edge">
<title>Node20&#45;&gt;Node19</title>
<g id="a_edge20_Node000019_Node000020"><a xlink:title=" ">
<path fill="none" stroke="orange" stroke-dasharray="5,2" d="M115.64,-196.62C157.61,-196.62 212.46,-196.62 253.6,-196.62"/>
<polygon fill="orange" stroke="orange" points="115.68,-193.13 105.68,-196.63 115.68,-200.13 115.68,-193.13"/>
</a>
</g>
<text text-anchor="middle" x="174.62" y="-198.38" font-family="Helvetica,sans-Serif" font-size="10.00" fill="grey"> &lt; Cpl::Dm::ModelPoint &gt;</text>
</g>
<!-- Node21 -->
<g id="Node000021" class="node">
<title>Node21</title>
<g id="a_Node000021"><a xlink:href="class_cpl_1_1_system_1_1_mutex.html" target="_top" xlink:title="This mutex class defines the interface for a mutex that has &quot;recursive&quot; semantics.">
<polygon fill="white" stroke="#666666" points="362.75,-163.25 264.25,-163.25 264.25,-144 362.75,-144 362.75,-163.25"/>
<text text-anchor="middle" x="313.5" y="-149.75" font-family="Helvetica,sans-Serif" font-size="10.00">Cpl::System::Mutex</text>
</a>
</g>
</g>
<!-- Node21&#45;&gt;Node17 -->
<g id="edge21_Node000017_Node000021" class="edge">
<title>Node21&#45;&gt;Node17</title>
<g id="a_edge21_Node000017_Node000021"><a xlink:title=" ">
<path fill="none" stroke="#9a32cd" stroke-dasharray="5,2" d="M374.11,-154.99C414.51,-156 469.11,-157.51 517.25,-159.38 525.85,-159.71 534.93,-160.1 543.84,-160.52"/>
<polygon fill="#9a32cd" stroke="#9a32cd" points="374.44,-151.5 364.36,-154.75 374.27,-158.5 374.44,-151.5"/>
</a>
</g>
<text text-anchor="middle" x="458.38" y="-160.38" font-family="Helvetica,sans-Serif" font-size="10.00" fill="grey"> m_lock</text>
</g>
<!-- Node22&#45;&gt;Node12 -->
<g id="edge22_Node000012_Node000022" class="edge">
<title>Node22&#45;&gt;Node12</title>
<g id="a_edge22_Node000012_Node000022"><a xlink:title=" ">
<path fill="none" stroke="orange" stroke-dasharray="5,2" d="M1120.18,-135.14C1159.93,-131.21 1207.7,-126.48 1243.6,-122.93"/>
<polygon fill="orange" stroke="orange" points="1120.05,-131.64 1110.44,-136.1 1120.74,-138.6 1120.05,-131.64"/>
</a>
</g>
<text text-anchor="middle" x="1172.38" y="-135.38" font-family="Helvetica,sans-Serif" font-size="10.00" fill="grey"> &lt; int32_t, Int32 &gt;</text>
</g>
<!-- Node22&#45;&gt;Node25 -->
<g id="edge29_Node000025_Node000022" class="edge">
<title>Node22&#45;&gt;Node25</title>
<g id="a_edge29_Node000025_Node000022"><a xlink:title=" ">
<path fill="none" stroke="orange" stroke-dasharray="5,2" d="M1120.18,-149.81C1159.93,-153.59 1207.7,-158.12 1243.6,-161.53"/>
<polygon fill="orange" stroke="orange" points="1120.73,-146.35 1110.44,-148.89 1120.06,-153.32 1120.73,-146.35"/>
</a>
</g>
<text text-anchor="middle" x="1172.38" y="-160.38" font-family="Helvetica,sans-Serif" font-size="10.00" fill="grey"> &lt; double, Double &gt;</text>
</g>
<!-- Node23&#45;&gt;Node1 -->
<g id="edge24_Node000001_Node000023" class="edge">
<title>Node23&#45;&gt;Node1</title>
<g id="a_edge24_Node000001_Node000023"><a xlink:title=" ">
<path fill="none" stroke="#9a32cd" stroke-dasharray="5,2" d="M1230.18,-218.8C1334.25,-216.35 1562.05,-206.71 1749.75,-168.62 1771.76,-164.16 1795.95,-156.17 1813.69,-149.7"/>
<polygon fill="#9a32cd" stroke="#9a32cd" points="1230.14,-215.3 1220.22,-219.02 1230.3,-222.3 1230.14,-215.3"/>
</a>
</g>
<text text-anchor="middle" x="1418.75" y="-213.38" font-family="Helvetica,sans-Serif" font-size="10.00" fill="grey"> m_mpSimEnabled</text>
</g>
<!-- Node24 -->
<g id="Node000024" class="node">
<title>Node24</title>
<g id="a_Node000024"><a xlink:href="class_cpl_1_1_dm_1_1_mp_1_1_double.html" target="_top" xlink:title="This class provides a concrete implementation for a Point who&#39;s data is a double.">
<polygon fill="white" stroke="#666666" points="1596.38,-169.25 1494.12,-169.25 1494.12,-150 1596.38,-150 1596.38,-169.25"/>
<text text-anchor="middle" x="1545.25" y="-155.75" font-family="Helvetica,sans-Serif" font-size="10.00">Cpl::Dm::Mp::Double</text>
</a>
</g>
</g>
<!-- Node24&#45;&gt;Node1 -->
<g id="edge26_Node000001_Node000024" class="edge">
<title>Node24&#45;&gt;Node1</title>
<g id="a_edge26_Node000001_Node000024"><a xlink:title=" ">
<path fill="none" stroke="#9a32cd" stroke-dasharray="5,2" d="M1608.12,-155.41C1654.63,-152.24 1718.48,-147.88 1767.35,-144.55"/>
<polygon fill="#9a32cd" stroke="#9a32cd" points="1607.93,-151.91 1598.19,-156.08 1608.41,-158.9 1607.93,-151.91"/>
</a>
</g>
<text text-anchor="middle" x="1690.5" y="-155.38" font-family="Helvetica,sans-Serif" font-size="10.00" fill="grey"> m_mpOutdoorTemperature</text>
</g>
<!-- Node25&#45;&gt;Node24 -->
<g id="edge27_Node000024_Node000025" class="edge">
<title>Node25&#45;&gt;Node24</title>
<g id="a_edge27_Node000024_Node000025"><a xlink:title=" ">
<path fill="none" stroke="#63b8ff" d="M1364.43,-164.76C1405.04,-163.6 1456.5,-162.13 1493.95,-161.06"/>
<polygon fill="#63b8ff" stroke="#63b8ff" points="1364.43,-161.26 1354.53,-165.05 1364.63,-168.26 1364.43,-161.26"/>
</a>
</g>
</g>
</g>
</svg>
