<?xml version="1.0" encoding="UTF-8" standalone="no"?>
<!DOCTYPE svg PUBLIC "-//W3C//DTD SVG 1.1//EN"
 "http://www.w3.org/Graphics/SVG/1.1/DTD/svg11.dtd">
<!-- Generated by graphviz version 9.0.0 (20230911.1827)
 -->
<!-- Title: Cpl::Text::Frame::BlockEncoder Pages: 1 -->
<svg width="319pt" height="274pt"
 viewBox="0.00 0.00 318.50 273.75" xmlns="http://www.w3.org/2000/svg" xmlns:xlink="http://www.w3.org/1999/xlink">
<g id="graph0" class="graph" transform="scale(1 1) rotate(0) translate(4 269.75)">
<title>Cpl::Text::Frame::BlockEncoder</title>
<!-- Node1 -->
<g id="Node000001" class="node">
<title>Node1</title>
<g id="a_Node000001"><a xlink:title="This concrete class implements extends the StreamDecoder implementation to be more efficient with res...">
<polygon fill="#999999" stroke="#666666" points="200.5,-19.25 50.25,-19.25 50.25,0 200.5,0 200.5,-19.25"/>
<text text-anchor="middle" x="125.38" y="-5.75" font-family="Helvetica,sans-Serif" font-size="10.00">Cpl::Text::Frame::BlockEncoder</text>
</a>
</g>
</g>
<!-- Node2 -->
<g id="Node000002" class="node">
<title>Node2</title>
<g id="a_Node000002"><a xlink:href="class_cpl_1_1_text_1_1_frame_1_1_stream_encoder.html" target="_top" xlink:title="This concrete class implements the Encoder API where the Output destination is a Cpl::Io::Output stre...">
<polygon fill="white" stroke="#666666" points="186.25,-86.75 64.5,-86.75 64.5,-56.25 186.25,-56.25 186.25,-86.75"/>
<text text-anchor="start" x="72.5" y="-73.25" font-family="Helvetica,sans-Serif" font-size="10.00">Cpl::Text::Frame::Stream</text>
<text text-anchor="middle" x="125.38" y="-62" font-family="Helvetica,sans-Serif" font-size="10.00">Encoder</text>
</a>
</g>
</g>
<!-- Node2&#45;&gt;Node1 -->
<g id="edge1_Node000001_Node000002" class="edge">
<title>Node2&#45;&gt;Node1</title>
<g id="a_edge1_Node000001_Node000002"><a xlink:title=" ">
<path fill="none" stroke="#63b8ff" d="M125.38,-44.77C125.38,-35.79 125.38,-26.29 125.38,-19.6"/>
<polygon fill="#63b8ff" stroke="#63b8ff" points="121.88,-44.49 125.38,-54.49 128.88,-44.49 121.88,-44.49"/>
</a>
</g>
</g>
<!-- Node3 -->
<g id="Node000003" class="node">
<title>Node3</title>
<g id="a_Node000003"><a xlink:href="class_cpl_1_1_text_1_1_frame_1_1_encoder__.html" target="_top" xlink:title="This Private Namespace partially concrete class implements common/helper method for supporting the En...">
<polygon fill="white" stroke="#666666" points="130.75,-153.25 0,-153.25 0,-134 130.75,-134 130.75,-153.25"/>
<text text-anchor="middle" x="65.38" y="-139.75" font-family="Helvetica,sans-Serif" font-size="10.00">Cpl::Text::Frame::Encoder_</text>
</a>
</g>
</g>
<!-- Node3&#45;&gt;Node2 -->
<g id="edge2_Node000002_Node000003" class="edge">
<title>Node3&#45;&gt;Node2</title>
<g id="a_edge2_Node000002_Node000003"><a xlink:title=" ">
<path fill="none" stroke="#63b8ff" d="M80.23,-125.27C90.25,-113.55 103.33,-98.27 112.83,-87.17"/>
<polygon fill="#63b8ff" stroke="#63b8ff" points="77.8,-122.72 73.96,-132.59 83.12,-127.27 77.8,-122.72"/>
</a>
</g>
</g>
<!-- Node4 -->
<g id="Node000004" class="node">
<title>Node4</title>
<g id="a_Node000004"><a xlink:href="class_cpl_1_1_text_1_1_frame_1_1_encoder.html" target="_top" xlink:title="This class defines an interface for &#39;transmitted&#39; (encoding) a frame.">
<polygon fill="white" stroke="#666666" points="128.12,-209.5 2.62,-209.5 2.62,-190.25 128.12,-190.25 128.12,-209.5"/>
<text text-anchor="middle" x="65.38" y="-196" font-family="Helvetica,sans-Serif" font-size="10.00">Cpl::Text::Frame::Encoder</text>
</a>
</g>
</g>
<!-- Node4&#45;&gt;Node3 -->
<g id="edge3_Node000003_Node000004" class="edge">
<title>Node4&#45;&gt;Node3</title>
<g id="a_edge3_Node000003_Node000004"><a xlink:title=" ">
<path fill="none" stroke="#63b8ff" d="M65.38,-178.69C65.38,-169.98 65.38,-160.24 65.38,-153.42"/>
<polygon fill="#63b8ff" stroke="#63b8ff" points="61.88,-178.4 65.38,-188.4 68.88,-178.4 61.88,-178.4"/>
</a>
</g>
</g>
<!-- Node5 -->
<g id="Node000005" class="node">
<title>Node5</title>
<g id="a_Node000005"><a xlink:href="class_cpl_1_1_io_1_1_output.html" target="_top" xlink:title="This partially abstract class defines a interface for operating on an output stream (example of a str...">
<polygon fill="white" stroke="#666666" points="225.75,-153.25 149,-153.25 149,-134 225.75,-134 225.75,-153.25"/>
<text text-anchor="middle" x="187.38" y="-139.75" font-family="Helvetica,sans-Serif" font-size="10.00">Cpl::Io::Output</text>
</a>
</g>
</g>
<!-- Node5&#45;&gt;Node2 -->
<g id="edge4_Node000002_Node000005" class="edge">
<title>Node5&#45;&gt;Node2</title>
<g id="a_edge4_Node000002_Node000005"><a xlink:title=" ">
<path fill="none" stroke="#9a32cd" stroke-dasharray="5,2" d="M172.03,-125.27C161.67,-113.55 148.16,-98.27 138.34,-87.17"/>
<polygon fill="#9a32cd" stroke="#9a32cd" points="169.27,-127.44 178.52,-132.61 174.52,-122.8 169.27,-127.44"/>
</a>
</g>
<text text-anchor="middle" x="185.38" y="-106.5" font-family="Helvetica,sans-Serif" font-size="10.00" fill="grey"> m_dstPtr</text>
</g>
<!-- Node6 -->
<g id="Node000006" class="node">
<title>Node6</title>
<g id="a_Node000006"><a xlink:href="class_cpl_1_1_io_1_1_close.html" target="_top" xlink:title="This abstract class defines a close operation that is intended to be used Input and Output streams/fi...">
<polygon fill="white" stroke="#666666" points="220.5,-209.5 148.25,-209.5 148.25,-190.25 220.5,-190.25 220.5,-209.5"/>
<text text-anchor="middle" x="184.38" y="-196" font-family="Helvetica,sans-Serif" font-size="10.00">Cpl::Io::Close</text>
</a>
</g>
</g>
<!-- Node6&#45;&gt;Node5 -->
<g id="edge5_Node000005_Node000006" class="edge">
<title>Node6&#45;&gt;Node5</title>
<g id="a_edge5_Node000005_Node000006"><a xlink:title=" ">
<path fill="none" stroke="#63b8ff" d="M185.49,-178.69C185.97,-169.98 186.51,-160.24 186.89,-153.42"/>
<polygon fill="#63b8ff" stroke="#63b8ff" points="182.01,-178.23 184.95,-188.41 189,-178.61 182.01,-178.23"/>
</a>
</g>
</g>
<!-- Node7 -->
<g id="Node000007" class="node">
<title>Node7</title>
<g id="a_Node000007"><a xlink:href="class_cpl_1_1_container_1_1_item.html" target="_top" xlink:title="This class is used by the Container classes to implement a various types of singly linked containers.">
<polygon fill="white" stroke="#666666" points="234.38,-265.75 134.38,-265.75 134.38,-246.5 234.38,-246.5 234.38,-265.75"/>
<text text-anchor="middle" x="184.38" y="-252.25" font-family="Helvetica,sans-Serif" font-size="10.00">Cpl::Container::Item</text>
</a>
</g>
</g>
<!-- Node7&#45;&gt;Node6 -->
<g id="edge6_Node000006_Node000007" class="edge">
<title>Node7&#45;&gt;Node6</title>
<g id="a_edge6_Node000006_Node000007"><a xlink:title=" ">
<path fill="none" stroke="#63b8ff" d="M184.38,-234.94C184.38,-226.23 184.38,-216.49 184.38,-209.67"/>
<polygon fill="#63b8ff" stroke="#63b8ff" points="180.88,-234.65 184.38,-244.65 187.88,-234.65 180.88,-234.65"/>
</a>
</g>
</g>
<!-- Node8 -->
<g id="Node000008" class="node">
<title>Node8</title>
<g id="a_Node000008"><a xlink:href="class_cpl_1_1_io_1_1_is_eos.html" target="_top" xlink:title="This abstract class defines a isEos() operation that is intended to be used Input and Output streams.">
<polygon fill="white" stroke="#666666" points="310.5,-209.5 238.25,-209.5 238.25,-190.25 310.5,-190.25 310.5,-209.5"/>
<text text-anchor="middle" x="274.38" y="-196" font-family="Helvetica,sans-Serif" font-size="10.00">Cpl::Io::IsEos</text>
</a>
</g>
</g>
<!-- Node8&#45;&gt;Node5 -->
<g id="edge7_Node000005_Node000008" class="edge">
<title>Node8&#45;&gt;Node5</title>
<g id="a_edge7_Node000005_Node000008"><a xlink:title=" ">
<path fill="none" stroke="#63b8ff" d="M250.48,-183.97C234.86,-174.24 214.99,-161.85 201.76,-153.6"/>
<polygon fill="#63b8ff" stroke="#63b8ff" points="248.39,-186.79 258.72,-189.12 252.09,-180.85 248.39,-186.79"/>
</a>
</g>
</g>
</g>
</svg>
