<?xml version="1.0" encoding="UTF-8" standalone="no"?>
<!DOCTYPE svg PUBLIC "-//W3C//DTD SVG 1.1//EN"
 "http://www.w3.org/Graphics/SVG/1.1/DTD/svg11.dtd">
<!-- Generated by graphviz version 9.0.0 (20230911.1827)
 -->
<!-- Title: Cpl::Memory::Allocator Pages: 1 -->
<svg width="1090pt" height="265pt"
 viewBox="0.00 0.00 1090.00 265.44" xmlns="http://www.w3.org/2000/svg" xmlns:xlink="http://www.w3.org/1999/xlink">
<g id="graph0" class="graph" transform="scale(1 1) rotate(0) translate(4 261.44)">
<title>Cpl::Memory::Allocator</title>
<!-- Node1 -->
<g id="Node000001" class="node">
<title>Node1</title>
<g id="a_Node000001"><a xlink:title="This abstract class defines the interface for a Memory Allocator.">
<polygon fill="#999999" stroke="#666666" points="249,-112.25 137,-112.25 137,-93 249,-93 249,-112.25"/>
<text text-anchor="middle" x="193" y="-98.75" font-family="Helvetica,sans-Serif" font-size="10.00">Cpl::Memory::Allocator</text>
</a>
</g>
</g>
<!-- Node3 -->
<g id="Node000003" class="node">
<title>Node3</title>
<g id="a_Node000003"><a xlink:href="class_cpl_1_1_memory_1_1_s_pool.html" target="_top" xlink:title=" ">
<polygon fill="white" stroke="#666666" points="863.62,-256.88 700.62,-256.88 700.62,-226.38 863.62,-226.38 863.62,-256.88"/>
<text text-anchor="start" x="708.62" y="-243.38" font-family="Helvetica,sans-Serif" font-size="10.00">Cpl::Memory::SPool</text>
<text text-anchor="middle" x="782.12" y="-232.12" font-family="Helvetica,sans-Serif" font-size="10.00">&lt; Cpl::Io::Socket::InputOutput, N &gt;</text>
</a>
</g>
</g>
<!-- Node1&#45;&gt;Node3 -->
<g id="edge2_Node000001_Node000003" class="edge">
<title>Node1&#45;&gt;Node3</title>
<g id="a_edge2_Node000001_Node000003"><a xlink:title=" ">
<path fill="none" stroke="#63b8ff" d="M209.36,-121.16C226.3,-140.51 255.25,-170.49 286,-188.62 415.21,-264.8 596.7,-262.07 700.26,-252.39"/>
<polygon fill="#63b8ff" stroke="#63b8ff" points="212.2,-119.1 203.04,-113.77 206.88,-123.64 212.2,-119.1"/>
</a>
</g>
</g>
<!-- Node5 -->
<g id="Node000005" class="node">
<title>Node5</title>
<g id="a_Node000005"><a xlink:href="class_cpl_1_1_memory_1_1_s_pool.html" target="_top" xlink:title=" ">
<polygon fill="white" stroke="#666666" points="887.25,-170.75 677,-170.75 677,-106.5 887.25,-106.5 887.25,-170.75"/>
<text text-anchor="start" x="685" y="-157.25" font-family="Helvetica,sans-Serif" font-size="10.00">Cpl::Memory::SPool</text>
<text text-anchor="start" x="685" y="-146" font-family="Helvetica,sans-Serif" font-size="10.00">&lt; Cpl::Io::File::Littlefs</text>
<text text-anchor="start" x="685" y="-134.75" font-family="Helvetica,sans-Serif" font-size="10.00">::FileDesc_T, OPTION_CPL</text>
<text text-anchor="start" x="685" y="-123.5" font-family="Helvetica,sans-Serif" font-size="10.00">_IO_FILE_LITTLEFS_MAX_CONCURRENT</text>
<text text-anchor="middle" x="782.12" y="-112.25" font-family="Helvetica,sans-Serif" font-size="10.00">_FILES &gt;</text>
</a>
</g>
</g>
<!-- Node1&#45;&gt;Node5 -->
<g id="edge4_Node000001_Node000005" class="edge">
<title>Node1&#45;&gt;Node5</title>
<g id="a_edge4_Node000001_Node000005"><a xlink:title=" ">
<path fill="none" stroke="#63b8ff" d="M260.77,-107.22C262.87,-107.36 264.95,-107.49 267,-107.62 408.88,-116.76 572.85,-126.51 676.73,-132.58"/>
<polygon fill="#63b8ff" stroke="#63b8ff" points="261.12,-103.74 250.91,-106.57 260.66,-110.72 261.12,-103.74"/>
</a>
</g>
</g>
<!-- Node6 -->
<g id="Node000006" class="node">
<title>Node6</title>
<g id="a_Node000006"><a xlink:href="class_cpl_1_1_memory_1_1_contiguous_allocator.html" target="_top" xlink:title="This abstract class is used &#39;extend&#39; the Memory Allocator to have contiguous semantics.">
<polygon fill="white" stroke="#666666" points="446.75,-19.25 286,-19.25 286,0 446.75,0 446.75,-19.25"/>
<text text-anchor="middle" x="366.38" y="-5.75" font-family="Helvetica,sans-Serif" font-size="10.00">Cpl::Memory::ContiguousAllocator</text>
</a>
</g>
</g>
<!-- Node1&#45;&gt;Node6 -->
<g id="edge5_Node000001_Node000006" class="edge">
<title>Node1&#45;&gt;Node6</title>
<g id="a_edge5_Node000001_Node000006"><a xlink:title=" ">
<path fill="none" stroke="#63b8ff" d="M211.13,-84.47C228.41,-67.24 256.66,-41.92 286,-27.62 292.48,-24.47 299.53,-21.85 306.66,-19.69"/>
<polygon fill="#63b8ff" stroke="#63b8ff" points="208.69,-81.95 204.2,-91.55 213.7,-86.85 208.69,-81.95"/>
</a>
</g>
</g>
<!-- Node8 -->
<g id="Node000008" class="node">
<title>Node8</title>
<g id="a_Node000008"><a xlink:href="class_cpl_1_1_memory_1_1_h_pool.html" target="_top" xlink:title="This template class defines a concrete Allocator that allocates its block memory from the HEAP.">
<polygon fill="white" stroke="#666666" points="428,-93.25 304.75,-93.25 304.75,-74 428,-74 428,-93.25"/>
<text text-anchor="middle" x="366.38" y="-79.75" font-family="Helvetica,sans-Serif" font-size="10.00">Cpl::Memory::HPool&lt; T &gt;</text>
</a>
</g>
</g>
<!-- Node1&#45;&gt;Node8 -->
<g id="edge7_Node000001_Node000008" class="edge">
<title>Node1&#45;&gt;Node8</title>
<g id="a_edge7_Node000001_Node000008"><a xlink:title=" ">
<path fill="none" stroke="#63b8ff" d="M260.54,-95.25C274.97,-93.65 290.17,-91.96 304.37,-90.39"/>
<polygon fill="#63b8ff" stroke="#63b8ff" points="260.23,-91.76 250.67,-96.34 261,-98.72 260.23,-91.76"/>
</a>
</g>
</g>
<!-- Node9 -->
<g id="Node000009" class="node">
<title>Node9</title>
<g id="a_Node000009"><a xlink:href="class_cpl_1_1_memory_1_1_pool__.html" target="_top" xlink:title="This private concrete class implements a Memory Allocator using a pool of fixed size blocks.">
<polygon fill="white" stroke="#666666" points="415.62,-56.25 317.12,-56.25 317.12,-37 415.62,-37 415.62,-56.25"/>
<text text-anchor="middle" x="366.38" y="-42.75" font-family="Helvetica,sans-Serif" font-size="10.00">Cpl::Memory::Pool_</text>
</a>
</g>
</g>
<!-- Node1&#45;&gt;Node9 -->
<g id="edge8_Node000001_Node000009" class="edge">
<title>Node1&#45;&gt;Node9</title>
<g id="a_edge8_Node000001_Node000009"><a xlink:title=" ">
<path fill="none" stroke="#63b8ff" d="M225.77,-87.95C243.27,-80.26 265.54,-71.12 286,-64.62 295.83,-61.5 306.51,-58.7 316.75,-56.28"/>
<polygon fill="#63b8ff" stroke="#63b8ff" points="224.64,-84.62 216.93,-91.89 227.49,-91.01 224.64,-84.62"/>
</a>
</g>
</g>
<!-- Node10 -->
<g id="Node000010" class="node">
<title>Node10</title>
<g id="a_Node000010"><a xlink:href="class_cpl_1_1_memory_1_1_s_pool.html" target="_top" xlink:title="This template class defines a concrete Allocator that STATICALLY allocates all of its Memory and can ...">
<polygon fill="white" stroke="#666666" points="416.38,-179.88 316.38,-179.88 316.38,-149.38 416.38,-149.38 416.38,-179.88"/>
<text text-anchor="start" x="324.38" y="-166.38" font-family="Helvetica,sans-Serif" font-size="10.00">Cpl::Memory::SPool</text>
<text text-anchor="middle" x="366.38" y="-155.12" font-family="Helvetica,sans-Serif" font-size="10.00">&lt; T, N &gt;</text>
</a>
</g>
</g>
<!-- Node1&#45;&gt;Node10 -->
<g id="edge9_Node000001_Node000010" class="edge">
<title>Node1&#45;&gt;Node10</title>
<g id="a_edge9_Node000001_Node000010"><a xlink:title=" ">
<path fill="none" stroke="#63b8ff" d="M224.38,-117.49C237.34,-123.53 252.74,-130.33 267,-135.62 282.69,-141.45 300.12,-146.91 315.9,-151.48"/>
<polygon fill="#63b8ff" stroke="#63b8ff" points="226.04,-114.4 215.51,-113.28 223.04,-120.73 226.04,-114.4"/>
</a>
</g>
</g>
<!-- Node2 -->
<g id="Node000002" class="node">
<title>Node2</title>
<g id="a_Node000002"><a xlink:href="class_cpl_1_1_container_1_1_item.html" target="_top" xlink:title="This class is used by the Container classes to implement a various types of singly linked containers.">
<polygon fill="white" stroke="#666666" points="100,-112.25 0,-112.25 0,-93 100,-93 100,-112.25"/>
<text text-anchor="middle" x="50" y="-98.75" font-family="Helvetica,sans-Serif" font-size="10.00">Cpl::Container::Item</text>
</a>
</g>
</g>
<!-- Node2&#45;&gt;Node1 -->
<g id="edge1_Node000001_Node000002" class="edge">
<title>Node2&#45;&gt;Node1</title>
<g id="a_edge1_Node000001_Node000002"><a xlink:title=" ">
<path fill="none" stroke="#63b8ff" d="M111.83,-102.62C120.09,-102.62 128.53,-102.62 136.69,-102.62"/>
<polygon fill="#63b8ff" stroke="#63b8ff" points="111.83,-99.13 101.83,-102.63 111.83,-106.13 111.83,-99.13"/>
</a>
</g>
</g>
<!-- Node4 -->
<g id="Node000004" class="node">
<title>Node4</title>
<g id="a_Node000004"><a xlink:href="class_cpl_1_1_io_1_1_socket_1_1_stream_pool.html" target="_top" xlink:title="This concrete template class implement a socket factory that is capable of creating N concurrently op...">
<polygon fill="white" stroke="#666666" points="1082,-251.25 924.25,-251.25 924.25,-232 1082,-232 1082,-251.25"/>
<text text-anchor="middle" x="1003.12" y="-237.75" font-family="Helvetica,sans-Serif" font-size="10.00">Cpl::Io::Socket::StreamPool&lt; N &gt;</text>
</a>
</g>
</g>
<!-- Node3&#45;&gt;Node4 -->
<g id="edge3_Node000003_Node000004" class="edge">
<title>Node3&#45;&gt;Node4</title>
<g id="a_edge3_Node000003_Node000004"><a xlink:title=" ">
<path fill="none" stroke="#63b8ff" d="M875.21,-241.62C891.47,-241.62 908.25,-241.62 924.08,-241.62"/>
<polygon fill="#63b8ff" stroke="#63b8ff" points="875.56,-238.13 865.56,-241.63 875.56,-245.13 875.56,-238.13"/>
</a>
</g>
</g>
<!-- Node7 -->
<g id="Node000007" class="node">
<title>Node7</title>
<g id="a_Node000007"><a xlink:href="class_cpl_1_1_memory_1_1_lean_heap.html" target="_top" xlink:title="This class manages an allocate&#45;only&#45;heap.">
<polygon fill="white" stroke="#666666" points="841.5,-19.25 722.75,-19.25 722.75,0 841.5,0 841.5,-19.25"/>
<text text-anchor="middle" x="782.12" y="-5.75" font-family="Helvetica,sans-Serif" font-size="10.00">Cpl::Memory::LeanHeap</text>
</a>
</g>
</g>
<!-- Node6&#45;&gt;Node7 -->
<g id="edge6_Node000006_Node000007" class="edge">
<title>Node6&#45;&gt;Node7</title>
<g id="a_edge6_Node000006_Node000007"><a xlink:title=" ">
<path fill="none" stroke="#63b8ff" d="M458.25,-9.62C538.6,-9.62 653.45,-9.62 722.31,-9.62"/>
<polygon fill="#63b8ff" stroke="#63b8ff" points="458.66,-6.13 448.66,-9.63 458.66,-13.13 458.66,-6.13"/>
</a>
</g>
</g>
<!-- Node10&#45;&gt;Node3 -->
<g id="edge10_Node000010_Node000003" class="edge">
<title>Node10&#45;&gt;Node3</title>
<g id="a_edge10_Node000010_Node000003"><a xlink:title=" ">
<path fill="none" stroke="orange" stroke-dasharray="5,2" d="M414.29,-184.49C430.08,-190.49 447.95,-196.56 464.75,-200.62 549.28,-221.06 572.79,-212.73 659,-224.12 672.38,-225.89 686.57,-227.85 700.36,-229.8"/>
<polygon fill="orange" stroke="orange" points="415.73,-181.3 405.15,-180.92 413.19,-187.82 415.73,-181.3"/>
</a>
</g>
<text text-anchor="start" x="523.25" y="-236.62" font-family="Helvetica,sans-Serif" font-size="10.00" fill="grey"> &lt; Cpl::Io::Socket::</text>
<text text-anchor="middle" x="561.88" y="-225.38" font-family="Helvetica,sans-Serif" font-size="10.00" fill="grey">InputOutput, N &gt;</text>
</g>
<!-- Node10&#45;&gt;Node5 -->
<g id="edge11_Node000010_Node000005" class="edge">
<title>Node10&#45;&gt;Node5</title>
<g id="a_edge11_Node000010_Node000005"><a xlink:title=" ">
<path fill="none" stroke="orange" stroke-dasharray="5,2" d="M427.49,-158.7C439.81,-157.59 452.69,-156.51 464.75,-155.62 535.38,-150.47 614.99,-146.2 676.68,-143.23"/>
<polygon fill="orange" stroke="orange" points="427.53,-155.19 417.89,-159.59 428.17,-162.16 427.53,-155.19"/>
</a>
</g>
<text text-anchor="start" x="464.75" y="-191.12" font-family="Helvetica,sans-Serif" font-size="10.00" fill="grey"> &lt; Cpl::Io::File::Littlefs</text>
<text text-anchor="start" x="464.75" y="-179.88" font-family="Helvetica,sans-Serif" font-size="10.00" fill="grey">::FileDesc_T, OPTION_CPL</text>
<text text-anchor="start" x="464.75" y="-168.62" font-family="Helvetica,sans-Serif" font-size="10.00" fill="grey">_IO_FILE_LITTLEFS_MAX_CONCURRENT</text>
<text text-anchor="middle" x="561.88" y="-157.38" font-family="Helvetica,sans-Serif" font-size="10.00" fill="grey">_FILES &gt;</text>
</g>
</g>
</svg>
