<?xml version="1.0" encoding="UTF-8" standalone="no"?>
<!DOCTYPE svg PUBLIC "-//W3C//DTD SVG 1.1//EN"
 "http://www.w3.org/Graphics/SVG/1.1/DTD/svg11.dtd">
<!-- Generated by graphviz version 9.0.0 (20230911.1827)
 -->
<!-- Title: Cpl::Io::Close Pages: 1 -->
<svg width="832pt" height="642pt"
 viewBox="0.00 0.00 832.25 642.25" xmlns="http://www.w3.org/2000/svg" xmlns:xlink="http://www.w3.org/1999/xlink">
<g id="graph0" class="graph" transform="scale(1 1) rotate(0) translate(4 638.25)">
<title>Cpl::Io::Close</title>
<!-- Node1 -->
<g id="Node000001" class="node">
<title>Node1</title>
<g id="a_Node000001"><a xlink:title="This abstract class defines a close operation that is intended to be used Input and Output streams/fi...">
<polygon fill="#999999" stroke="#666666" points="208.25,-230.25 136,-230.25 136,-211 208.25,-211 208.25,-230.25"/>
<text text-anchor="middle" x="172.12" y="-216.75" font-family="Helvetica,sans-Serif" font-size="10.00">Cpl::Io::Close</text>
</a>
</g>
</g>
<!-- Node3 -->
<g id="Node000003" class="node">
<title>Node3</title>
<g id="a_Node000003"><a xlink:href="class_cpl_1_1_io_1_1_input.html" target="_top" xlink:title="This partially abstract class defines a interface for operating on an input stream (example of a stre...">
<polygon fill="white" stroke="#666666" points="317.25,-280.25 248,-280.25 248,-261 317.25,-261 317.25,-280.25"/>
<text text-anchor="middle" x="282.62" y="-266.75" font-family="Helvetica,sans-Serif" font-size="10.00">Cpl::Io::Input</text>
</a>
</g>
</g>
<!-- Node1&#45;&gt;Node3 -->
<g id="edge2_Node000001_Node000003" class="edge">
<title>Node1&#45;&gt;Node3</title>
<g id="a_edge2_Node000001_Node000003"><a xlink:title=" ">
<path fill="none" stroke="#63b8ff" d="M205.43,-235.51C222.94,-243.58 244.12,-253.34 259.7,-260.52"/>
<polygon fill="#63b8ff" stroke="#63b8ff" points="207,-232.38 196.46,-231.38 204.07,-238.74 207,-232.38"/>
</a>
</g>
</g>
<!-- Node23 -->
<g id="Node000023" class="node">
<title>Node23</title>
<g id="a_Node000023"><a xlink:href="class_cpl_1_1_io_1_1_output.html" target="_top" xlink:title="This partially abstract class defines a interface for operating on an output stream (example of a str...">
<polygon fill="white" stroke="#666666" points="321,-212.25 244.25,-212.25 244.25,-193 321,-193 321,-212.25"/>
<text text-anchor="middle" x="282.62" y="-198.75" font-family="Helvetica,sans-Serif" font-size="10.00">Cpl::Io::Output</text>
</a>
</g>
</g>
<!-- Node1&#45;&gt;Node23 -->
<g id="edge22_Node000001_Node000023" class="edge">
<title>Node1&#45;&gt;Node23</title>
<g id="a_edge22_Node000001_Node000023"><a xlink:title=" ">
<path fill="none" stroke="#63b8ff" d="M219.76,-212.89C227.78,-211.56 236.03,-210.19 243.78,-208.9"/>
<polygon fill="#63b8ff" stroke="#63b8ff" points="219.44,-209.39 210.15,-214.48 220.58,-216.3 219.44,-209.39"/>
</a>
</g>
</g>
<!-- Node2 -->
<g id="Node000002" class="node">
<title>Node2</title>
<g id="a_Node000002"><a xlink:href="class_cpl_1_1_container_1_1_item.html" target="_top" xlink:title="This class is used by the Container classes to implement a various types of singly linked containers.">
<polygon fill="white" stroke="#666666" points="100,-230.25 0,-230.25 0,-211 100,-211 100,-230.25"/>
<text text-anchor="middle" x="50" y="-216.75" font-family="Helvetica,sans-Serif" font-size="10.00">Cpl::Container::Item</text>
</a>
</g>
</g>
<!-- Node2&#45;&gt;Node1 -->
<g id="edge1_Node000001_Node000002" class="edge">
<title>Node2&#45;&gt;Node1</title>
<g id="a_edge1_Node000001_Node000002"><a xlink:title=" ">
<path fill="none" stroke="#63b8ff" d="M111.5,-220.62C119.81,-220.62 128.12,-220.62 135.78,-220.62"/>
<polygon fill="#63b8ff" stroke="#63b8ff" points="111.72,-217.13 101.72,-220.63 111.72,-224.13 111.72,-217.13"/>
</a>
</g>
</g>
<!-- Node4 -->
<g id="Node000004" class="node">
<title>Node4</title>
<g id="a_Node000004"><a xlink:href="class_cpl_1_1_io_1_1_file_1_1_input_api.html" target="_top" xlink:title="This abstract class defines the interface for a Random Access Input File.">
<polygon fill="white" stroke="#666666" points="469.75,-597.25 366,-597.25 366,-578 469.75,-578 469.75,-597.25"/>
<text text-anchor="middle" x="417.88" y="-583.75" font-family="Helvetica,sans-Serif" font-size="10.00">Cpl::Io::File::InputApi</text>
</a>
</g>
</g>
<!-- Node3&#45;&gt;Node4 -->
<g id="edge3_Node000003_Node000004" class="edge">
<title>Node3&#45;&gt;Node4</title>
<g id="a_edge3_Node000003_Node000004"><a xlink:title=" ">
<path fill="none" stroke="#63b8ff" d="M286.08,-291.72C293.61,-352.92 318.25,-528.83 357,-569.62 359.99,-572.77 363.51,-575.38 367.31,-577.53"/>
<polygon fill="#63b8ff" stroke="#63b8ff" points="289.58,-291.5 284.91,-281.99 282.63,-292.33 289.58,-291.5"/>
</a>
</g>
</g>
<!-- Node9 -->
<g id="Node000009" class="node">
<title>Node9</title>
<g id="a_Node000009"><a xlink:href="class_cpl_1_1_io_1_1_input_output.html" target="_top" xlink:title="This abstract class defines a interface for operating on an input&#45;output stream (example of a stream ...">
<polygon fill="white" stroke="#666666" points="467.12,-296.25 368.62,-296.25 368.62,-277 467.12,-277 467.12,-296.25"/>
<text text-anchor="middle" x="417.88" y="-282.75" font-family="Helvetica,sans-Serif" font-size="10.00">Cpl::Io::InputOutput</text>
</a>
</g>
</g>
<!-- Node3&#45;&gt;Node9 -->
<g id="edge8_Node000003_Node000009" class="edge">
<title>Node3&#45;&gt;Node9</title>
<g id="a_edge8_Node000003_Node000009"><a xlink:title=" ">
<path fill="none" stroke="#63b8ff" d="M328.83,-276.05C341.48,-277.57 355.29,-279.23 368.13,-280.77"/>
<polygon fill="#63b8ff" stroke="#63b8ff" points="329.44,-272.6 319.1,-274.88 328.61,-279.55 329.44,-272.6"/>
</a>
</g>
</g>
<!-- Node21 -->
<g id="Node000021" class="node">
<title>Node21</title>
<g id="a_Node000021"><a xlink:href="class_cpl_1_1_io_1_1_stdio_1_1_input__.html" target="_top" xlink:title="This concrete class implements a Input stream using the underlying platform&#39;s native OS &#39;file interfa...">
<polygon fill="white" stroke="#666666" points="468.62,-71.25 367.12,-71.25 367.12,-52 468.62,-52 468.62,-71.25"/>
<text text-anchor="middle" x="417.88" y="-57.75" font-family="Helvetica,sans-Serif" font-size="10.00">Cpl::Io::Stdio::Input_</text>
</a>
</g>
</g>
<!-- Node3&#45;&gt;Node21 -->
<g id="edge20_Node000003_Node000021" class="edge">
<title>Node3&#45;&gt;Node21</title>
<g id="a_edge20_Node000003_Node000021"><a xlink:title=" ">
<path fill="none" stroke="#63b8ff" d="M300.64,-252.05C307.83,-243.35 315.74,-232.52 321,-221.62 349.32,-163 311.98,-126.66 357,-79.62 360,-76.49 363.53,-73.89 367.34,-71.75"/>
<polygon fill="#63b8ff" stroke="#63b8ff" points="298.17,-249.56 294.27,-259.41 303.46,-254.14 298.17,-249.56"/>
</a>
</g>
</g>
<!-- Node5 -->
<g id="Node000005" class="node">
<title>Node5</title>
<g id="a_Node000005"><a xlink:href="class_cpl_1_1_io_1_1_file_1_1_input.html" target="_top" xlink:title="This concrete class provides a platform independent &#39;standard&#39; implementation of a Cpl::Io::File::Inp...">
<polygon fill="white" stroke="#666666" points="626.38,-634.25 536.88,-634.25 536.88,-615 626.38,-615 626.38,-634.25"/>
<text text-anchor="middle" x="581.62" y="-620.75" font-family="Helvetica,sans-Serif" font-size="10.00">Cpl::Io::File::Input</text>
</a>
</g>
</g>
<!-- Node4&#45;&gt;Node5 -->
<g id="edge4_Node000004_Node000005" class="edge">
<title>Node4&#45;&gt;Node5</title>
<g id="a_edge4_Node000004_Node000005"><a xlink:title=" ">
<path fill="none" stroke="#63b8ff" d="M474.1,-600.26C494.45,-604.91 517.23,-610.12 536.48,-614.53"/>
<polygon fill="#63b8ff" stroke="#63b8ff" points="475.08,-596.89 464.55,-598.07 473.52,-603.71 475.08,-596.89"/>
</a>
</g>
</g>
<!-- Node6 -->
<g id="Node000006" class="node">
<title>Node6</title>
<g id="a_Node000006"><a xlink:href="class_cpl_1_1_io_1_1_file_1_1_input_output_api.html" target="_top" xlink:title="This abstract class defines the interface for a Random Access Input Output File.">
<polygon fill="white" stroke="#666666" points="648.12,-597.25 515.12,-597.25 515.12,-578 648.12,-578 648.12,-597.25"/>
<text text-anchor="middle" x="581.62" y="-583.75" font-family="Helvetica,sans-Serif" font-size="10.00">Cpl::Io::File::InputOutputApi</text>
</a>
</g>
</g>
<!-- Node4&#45;&gt;Node6 -->
<g id="edge5_Node000004_Node000006" class="edge">
<title>Node4&#45;&gt;Node6</title>
<g id="a_edge5_Node000004_Node000006"><a xlink:title=" ">
<path fill="none" stroke="#63b8ff" d="M481.25,-587.62C492.2,-587.62 503.62,-587.62 514.66,-587.62"/>
<polygon fill="#63b8ff" stroke="#63b8ff" points="481.57,-584.13 471.57,-587.63 481.57,-591.13 481.57,-584.13"/>
</a>
</g>
</g>
<!-- Node7 -->
<g id="Node000007" class="node">
<title>Node7</title>
<g id="a_Node000007"><a xlink:href="class_cpl_1_1_io_1_1_file_1_1_input_output.html" target="_top" xlink:title="This concrete class provides a platform independent &#39;standard&#39; implementation of an InputOutputFileAp...">
<polygon fill="white" stroke="#666666" points="813.75,-615.25 695,-615.25 695,-596 813.75,-596 813.75,-615.25"/>
<text text-anchor="middle" x="754.38" y="-601.75" font-family="Helvetica,sans-Serif" font-size="10.00">Cpl::Io::File::InputOutput</text>
</a>
</g>
</g>
<!-- Node6&#45;&gt;Node7 -->
<g id="edge6_Node000006_Node000007" class="edge">
<title>Node6&#45;&gt;Node7</title>
<g id="a_edge6_Node000006_Node000007"><a xlink:title=" ">
<path fill="none" stroke="#63b8ff" d="M659.42,-595.72C671.27,-596.97 683.35,-598.24 694.72,-599.44"/>
<polygon fill="#63b8ff" stroke="#63b8ff" points="659.97,-592.26 649.66,-594.69 659.24,-599.22 659.97,-592.26"/>
</a>
</g>
</g>
<!-- Node8 -->
<g id="Node000008" class="node">
<title>Node8</title>
<g id="a_Node000008"><a xlink:href="class_cpl_1_1_io_1_1_file_1_1_null.html" target="_top" xlink:title="This concrete class implements a NULL InputOutputApi File that all of its input operations return &#39;En...">
<polygon fill="white" stroke="#666666" points="796.88,-578.25 711.88,-578.25 711.88,-559 796.88,-559 796.88,-578.25"/>
<text text-anchor="middle" x="754.38" y="-564.75" font-family="Helvetica,sans-Serif" font-size="10.00">Cpl::Io::File::Null</text>
</a>
</g>
</g>
<!-- Node6&#45;&gt;Node8 -->
<g id="edge7_Node000006_Node000008" class="edge">
<title>Node6&#45;&gt;Node8</title>
<g id="a_edge7_Node000006_Node000008"><a xlink:title=" ">
<path fill="none" stroke="#63b8ff" d="M659.49,-579.07C677.37,-577.08 695.75,-575.04 711.45,-573.29"/>
<polygon fill="#63b8ff" stroke="#63b8ff" points="659.21,-575.58 649.66,-580.17 659.98,-582.54 659.21,-575.58"/>
</a>
</g>
</g>
<!-- Node10 -->
<g id="Node000010" class="node">
<title>Node10</title>
<g id="a_Node000010"><a xlink:href="class_cpl_1_1_io_1_1_null.html" target="_top" xlink:title="This concrete class implements a NULL InputOutput stream &#45; that all of its input operations return &#39;E...">
<polygon fill="white" stroke="#666666" points="614,-523.25 549.25,-523.25 549.25,-504 614,-504 614,-523.25"/>
<text text-anchor="middle" x="581.62" y="-509.75" font-family="Helvetica,sans-Serif" font-size="10.00">Cpl::Io::Null</text>
</a>
</g>
</g>
<!-- Node9&#45;&gt;Node10 -->
<g id="edge9_Node000009_Node000010" class="edge">
<title>Node9&#45;&gt;Node10</title>
<g id="a_edge9_Node000009_Node000010"><a xlink:title=" ">
<path fill="none" stroke="#63b8ff" d="M422.47,-307.82C430.77,-350.1 455.32,-445.19 514.75,-495.62 524.24,-503.68 537.03,-508.16 548.81,-510.63"/>
<polygon fill="#63b8ff" stroke="#63b8ff" points="425.95,-307.41 420.7,-298.21 419.07,-308.67 425.95,-307.41"/>
</a>
</g>
</g>
<!-- Node11 -->
<g id="Node000011" class="node">
<title>Node11</title>
<g id="a_Node000011"><a xlink:href="class_cpl_1_1_io_1_1_ram_1_1_input_output.html" target="_top" xlink:title="This concrete class implements an InputOutput stream using a Ring Buffer.">
<polygon fill="white" stroke="#666666" points="643.25,-486.25 520,-486.25 520,-467 643.25,-467 643.25,-486.25"/>
<text text-anchor="middle" x="581.62" y="-472.75" font-family="Helvetica,sans-Serif" font-size="10.00">Cpl::Io::Ram::InputOutput</text>
</a>
</g>
</g>
<!-- Node9&#45;&gt;Node11 -->
<g id="edge10_Node000009_Node000011" class="edge">
<title>Node9&#45;&gt;Node11</title>
<g id="a_edge10_Node000009_Node000011"><a xlink:title=" ">
<path fill="none" stroke="#63b8ff" d="M424.68,-307.1C435.94,-343.05 464.19,-417.54 514.75,-457.62 519.32,-461.25 524.55,-464.18 530.03,-466.55"/>
<polygon fill="#63b8ff" stroke="#63b8ff" points="428.16,-306.51 421.94,-297.93 421.45,-308.52 428.16,-306.51"/>
</a>
</g>
</g>
<!-- Node12 -->
<g id="Node000012" class="node">
<title>Node12</title>
<g id="a_Node000012"><a xlink:href="class_cpl_1_1_io_1_1_serial_1_1_adafruit_1_1_nrf5_1_1_b_l_e_1_1_input_output.html" target="_top" xlink:title="This concrete class implements the InputOutput stream interface as a wrapper around Adafruit&#39;s BLEUar...">
<polygon fill="white" stroke="#666666" points="640.62,-448.88 522.62,-448.88 522.62,-418.38 640.62,-418.38 640.62,-448.88"/>
<text text-anchor="start" x="530.62" y="-435.38" font-family="Helvetica,sans-Serif" font-size="10.00">Cpl::Io::Serial::Adafruit</text>
<text text-anchor="middle" x="581.62" y="-424.12" font-family="Helvetica,sans-Serif" font-size="10.00">::Nrf5::BLE::InputOutput</text>
</a>
</g>
</g>
<!-- Node9&#45;&gt;Node12 -->
<g id="edge11_Node000009_Node000012" class="edge">
<title>Node9&#45;&gt;Node12</title>
<g id="a_edge11_Node000009_Node000012"><a xlink:title=" ">
<path fill="none" stroke="#63b8ff" d="M429.74,-306.4C445.32,-333.06 476.4,-380.44 514.75,-408.62 519.58,-412.17 524.97,-415.28 530.54,-417.98"/>
<polygon fill="#63b8ff" stroke="#63b8ff" points="432.94,-304.94 424.96,-297.98 426.86,-308.4 432.94,-304.94"/>
</a>
</g>
</g>
<!-- Node13 -->
<g id="Node000013" class="node">
<title>Node13</title>
<g id="a_Node000013"><a xlink:href="class_cpl_1_1_io_1_1_serial_1_1_adafruit_1_1_nrf5_1_1_input_output.html" target="_top" xlink:title="This concrete class implements the InputOutput stream interface as a wrapper around Adafruit&#39;s Arduin...">
<polygon fill="white" stroke="#666666" points="636.88,-399.88 526.38,-399.88 526.38,-369.38 636.88,-369.38 636.88,-399.88"/>
<text text-anchor="start" x="534.38" y="-386.38" font-family="Helvetica,sans-Serif" font-size="10.00">Cpl::Io::Serial::Adafruit</text>
<text text-anchor="middle" x="581.62" y="-375.12" font-family="Helvetica,sans-Serif" font-size="10.00">::Nrf5::InputOutput</text>
</a>
</g>
</g>
<!-- Node9&#45;&gt;Node13 -->
<g id="edge12_Node000009_Node000013" class="edge">
<title>Node9&#45;&gt;Node13</title>
<g id="a_edge12_Node000009_Node000013"><a xlink:title=" ">
<path fill="none" stroke="#63b8ff" d="M438.08,-303.92C456.65,-319.98 486.11,-343.73 514.75,-359.62 520.85,-363.01 527.49,-366.13 534.14,-368.93"/>
<polygon fill="#63b8ff" stroke="#63b8ff" points="440.61,-301.49 430.79,-297.51 435.99,-306.74 440.61,-301.49"/>
</a>
</g>
</g>
<!-- Node14 -->
<g id="Node000014" class="node">
<title>Node14</title>
<g id="a_Node000014"><a xlink:href="class_cpl_1_1_io_1_1_serial_1_1_arduino_1_1_input_output.html" target="_top" xlink:title="This concrete class implements the InputOutput stream interface as a wrapper around Arduino Serial cl...">
<polygon fill="white" stroke="#666666" points="636.5,-350.88 526.75,-350.88 526.75,-320.38 636.5,-320.38 636.5,-350.88"/>
<text text-anchor="start" x="534.75" y="-337.38" font-family="Helvetica,sans-Serif" font-size="10.00">Cpl::Io::Serial::Arduino</text>
<text text-anchor="middle" x="581.62" y="-326.12" font-family="Helvetica,sans-Serif" font-size="10.00">::InputOutput</text>
</a>
</g>
</g>
<!-- Node9&#45;&gt;Node14 -->
<g id="edge13_Node000009_Node000014" class="edge">
<title>Node9&#45;&gt;Node14</title>
<g id="a_edge13_Node000009_Node000014"><a xlink:title=" ">
<path fill="none" stroke="#63b8ff" d="M462.85,-299.95C483.2,-306.11 507.52,-313.48 528.76,-319.91"/>
<polygon fill="#63b8ff" stroke="#63b8ff" points="464.03,-296.65 453.45,-297.1 462,-303.35 464.03,-296.65"/>
</a>
</g>
</g>
<!-- Node15 -->
<g id="Node000015" class="node">
<title>Node15</title>
<g id="a_Node000015"><a xlink:href="class_cpl_1_1_io_1_1_serial_1_1_s_t_1_1_m32_f4_1_1_input_output.html" target="_top" xlink:title="This concrete class implements the InputOutput stream interface built on top of ST HAL Layer/SDK.">
<polygon fill="white" stroke="#666666" points="634.62,-301.88 528.62,-301.88 528.62,-271.38 634.62,-271.38 634.62,-301.88"/>
<text text-anchor="start" x="536.62" y="-288.38" font-family="Helvetica,sans-Serif" font-size="10.00">Cpl::Io::Serial::ST</text>
<text text-anchor="middle" x="581.62" y="-277.12" font-family="Helvetica,sans-Serif" font-size="10.00">::M32F4::InputOutput</text>
</a>
</g>
</g>
<!-- Node9&#45;&gt;Node15 -->
<g id="edge14_Node000009_Node000015" class="edge">
<title>Node9&#45;&gt;Node15</title>
<g id="a_edge14_Node000009_Node000015"><a xlink:title=" ">
<path fill="none" stroke="#63b8ff" d="M478.46,-286.62C494.76,-286.62 512.31,-286.62 528.18,-286.62"/>
<polygon fill="#63b8ff" stroke="#63b8ff" points="478.92,-283.13 468.92,-286.63 478.92,-290.13 478.92,-283.13"/>
</a>
</g>
</g>
<!-- Node16 -->
<g id="Node000016" class="node">
<title>Node16</title>
<g id="a_Node000016"><a xlink:href="class_cpl_1_1_io_1_1_socket_1_1_input_output.html" target="_top" xlink:title="This concrete class provides a platform independent &#39;standard&#39; implementation of an InputOutput strea...">
<polygon fill="white" stroke="#666666" points="648.5,-253.25 514.75,-253.25 514.75,-234 648.5,-234 648.5,-253.25"/>
<text text-anchor="middle" x="581.62" y="-239.75" font-family="Helvetica,sans-Serif" font-size="10.00">Cpl::Io::Socket::InputOutput</text>
</a>
</g>
</g>
<!-- Node9&#45;&gt;Node16 -->
<g id="edge15_Node000009_Node000016" class="edge">
<title>Node9&#45;&gt;Node16</title>
<g id="a_edge15_Node000009_Node000016"><a xlink:title=" ">
<path fill="none" stroke="#63b8ff" d="M467.83,-273.61C491.84,-267.23 520.32,-259.66 542.66,-253.72"/>
<polygon fill="#63b8ff" stroke="#63b8ff" points="467.03,-270.2 458.26,-276.15 468.82,-276.97 467.03,-270.2"/>
</a>
</g>
</g>
<!-- Node17 -->
<g id="Node000017" class="node">
<title>Node17</title>
<g id="a_Node000017"><a xlink:href="class_cpl_1_1_io_1_1_stdio_1_1_input_output__.html" target="_top" xlink:title="This concrete class implements a Input&#45;Output stream.">
<polygon fill="white" stroke="#666666" points="647,-216.25 516.25,-216.25 516.25,-197 647,-197 647,-216.25"/>
<text text-anchor="middle" x="581.62" y="-202.75" font-family="Helvetica,sans-Serif" font-size="10.00">Cpl::Io::Stdio::InputOutput_</text>
</a>
</g>
</g>
<!-- Node9&#45;&gt;Node17 -->
<g id="edge16_Node000009_Node000017" class="edge">
<title>Node9&#45;&gt;Node17</title>
<g id="a_edge16_Node000009_Node000017"><a xlink:title=" ">
<path fill="none" stroke="#63b8ff" d="M440.6,-269.79C459.34,-255.97 487.6,-236.76 514.75,-224.62 521.57,-221.58 529.02,-218.94 536.38,-216.69"/>
<polygon fill="#63b8ff" stroke="#63b8ff" points="438.58,-266.93 432.69,-275.74 442.79,-272.53 438.58,-266.93"/>
</a>
</g>
</g>
<!-- Node18 -->
<g id="Node000018" class="node">
<title>Node18</title>
<g id="a_Node000018"><a xlink:href="class_cpl_1_1_io_1_1_tcp_1_1_input_output.html" target="_top" xlink:title="This concrete class defines a platform independent implementation of an InputOutput stream used by th...">
<polygon fill="white" stroke="#666666" points="641.38,-179.25 521.88,-179.25 521.88,-160 641.38,-160 641.38,-179.25"/>
<text text-anchor="middle" x="581.62" y="-165.75" font-family="Helvetica,sans-Serif" font-size="10.00">Cpl::Io::Tcp::InputOutput</text>
</a>
</g>
</g>
<!-- Node9&#45;&gt;Node18 -->
<g id="edge17_Node000009_Node000018" class="edge">
<title>Node9&#45;&gt;Node18</title>
<g id="a_edge17_Node000009_Node000018"><a xlink:title=" ">
<path fill="none" stroke="#63b8ff" d="M432.22,-267.61C448.96,-245.18 479.75,-208.33 514.75,-187.62 520.06,-184.49 525.93,-181.88 531.91,-179.72"/>
<polygon fill="#63b8ff" stroke="#63b8ff" points="429.49,-265.42 426.44,-275.57 435.15,-269.53 429.49,-265.42"/>
</a>
</g>
</g>
<!-- Node19 -->
<g id="Node000019" class="node">
<title>Node19</title>
<g id="a_Node000019"><a xlink:href="class_cpl_1_1_io_1_1_tcp_1_1_async_connector_1_1_client.html" target="_top" xlink:title="This class defines the callback mechanism used for accepting incoming TCP connections.">
<polygon fill="white" stroke="#666666" points="824.25,-208.88 684.5,-208.88 684.5,-178.38 824.25,-178.38 824.25,-208.88"/>
<text text-anchor="start" x="692.5" y="-195.38" font-family="Helvetica,sans-Serif" font-size="10.00">Cpl::Io::Tcp::AsyncConnector</text>
<text text-anchor="middle" x="754.38" y="-184.12" font-family="Helvetica,sans-Serif" font-size="10.00">::Client</text>
</a>
</g>
</g>
<!-- Node18&#45;&gt;Node19 -->
<g id="edge18_Node000018_Node000019" class="edge">
<title>Node18&#45;&gt;Node19</title>
<g id="a_edge18_Node000018_Node000019"><a xlink:title=" ">
<path fill="none" stroke="#63b8ff" d="M652.94,-179.51C663.29,-180.96 673.95,-182.46 684.27,-183.91"/>
<polygon fill="#63b8ff" stroke="#63b8ff" points="653.75,-176.09 643.36,-178.16 652.78,-183.02 653.75,-176.09"/>
</a>
</g>
</g>
<!-- Node20 -->
<g id="Node000020" class="node">
<title>Node20</title>
<g id="a_Node000020"><a xlink:href="class_cpl_1_1_io_1_1_tcp_1_1_async_listener_1_1_client.html" target="_top" xlink:title="This class defines the callback mechanism used for accepting incoming TCP connections.">
<polygon fill="white" stroke="#666666" points="819.75,-159.88 689,-159.88 689,-129.38 819.75,-129.38 819.75,-159.88"/>
<text text-anchor="start" x="697" y="-146.38" font-family="Helvetica,sans-Serif" font-size="10.00">Cpl::Io::Tcp::AsyncListener</text>
<text text-anchor="middle" x="754.38" y="-135.12" font-family="Helvetica,sans-Serif" font-size="10.00">::Client</text>
</a>
</g>
</g>
<!-- Node18&#45;&gt;Node20 -->
<g id="edge19_Node000018_Node000020" class="edge">
<title>Node18&#45;&gt;Node20</title>
<g id="a_edge19_Node000018_Node000020"><a xlink:title=" ">
<path fill="none" stroke="#63b8ff" d="M653.04,-159.32C664.84,-157.59 677.05,-155.8 688.7,-154.09"/>
<polygon fill="#63b8ff" stroke="#63b8ff" points="652.75,-155.82 643.36,-160.73 653.77,-162.75 652.75,-155.82"/>
</a>
</g>
</g>
<!-- Node22 -->
<g id="Node000022" class="node">
<title>Node22</title>
<g id="a_Node000022"><a xlink:href="class_cpl_1_1_io_1_1_stdio_1_1_std_in.html" target="_top" xlink:title="This concrete class represents the C&#45;library &#39;stdin&#39; stream.">
<polygon fill="white" stroke="#666666" points="630.5,-19.25 532.75,-19.25 532.75,0 630.5,0 630.5,-19.25"/>
<text text-anchor="middle" x="581.62" y="-5.75" font-family="Helvetica,sans-Serif" font-size="10.00">Cpl::Io::Stdio::StdIn</text>
</a>
</g>
</g>
<!-- Node21&#45;&gt;Node22 -->
<g id="edge21_Node000021_Node000022" class="edge">
<title>Node21&#45;&gt;Node22</title>
<g id="a_edge21_Node000021_Node000022"><a xlink:title=" ">
<path fill="none" stroke="#63b8ff" d="M465.98,-48.08C470.32,-46.65 474.63,-45.15 478.75,-43.62 495.17,-37.54 498.26,-33.5 514.75,-27.62 522.79,-24.76 531.52,-22.08 539.91,-19.71"/>
<polygon fill="#63b8ff" stroke="#63b8ff" points="465.13,-44.68 456.66,-51.04 467.25,-51.35 465.13,-44.68"/>
</a>
</g>
</g>
<!-- Node23&#45;&gt;Node9 -->
<g id="edge28_Node000023_Node000009" class="edge">
<title>Node23&#45;&gt;Node9</title>
<g id="a_edge28_Node000023_Node000009"><a xlink:title=" ">
<path fill="none" stroke="#63b8ff" d="M309.03,-218.64C336.17,-235.75 378.36,-262.34 401.09,-276.67"/>
<polygon fill="#63b8ff" stroke="#63b8ff" points="311.04,-215.77 300.71,-213.4 307.31,-221.69 311.04,-215.77"/>
</a>
</g>
</g>
<!-- Node24 -->
<g id="Node000024" class="node">
<title>Node24</title>
<g id="a_Node000024"><a xlink:href="class_cpl_1_1_io_1_1_atomic_output_api.html" target="_top" xlink:title="This abstract template class defines a interface for an Atomic outputs to a stream.">
<polygon fill="white" stroke="#666666" points="478.75,-156.88 357,-156.88 357,-126.38 478.75,-126.38 478.75,-156.88"/>
<text text-anchor="start" x="365" y="-143.38" font-family="Helvetica,sans-Serif" font-size="10.00">Cpl::Io::AtomicOutputApi</text>
<text text-anchor="middle" x="417.88" y="-132.12" font-family="Helvetica,sans-Serif" font-size="10.00">&lt; CONTEXT &gt;</text>
</a>
</g>
</g>
<!-- Node23&#45;&gt;Node24 -->
<g id="edge23_Node000023_Node000024" class="edge">
<title>Node23&#45;&gt;Node24</title>
<g id="a_edge23_Node000023_Node000024"><a xlink:title=" ">
<path fill="none" stroke="#63b8ff" d="M315.88,-187.86C336.06,-178.62 362.02,-166.74 382.57,-157.33"/>
<polygon fill="#63b8ff" stroke="#63b8ff" points="314.64,-184.58 307,-191.92 317.55,-190.94 314.64,-184.58"/>
</a>
</g>
</g>
<!-- Node26 -->
<g id="Node000026" class="node">
<title>Node26</title>
<g id="a_Node000026"><a xlink:href="class_cpl_1_1_io_1_1_file_1_1_output_api.html" target="_top" xlink:title="This abstract class defines the interface for a Random Access Input File.">
<polygon fill="white" stroke="#666666" points="473.5,-560.25 362.25,-560.25 362.25,-541 473.5,-541 473.5,-560.25"/>
<text text-anchor="middle" x="417.88" y="-546.75" font-family="Helvetica,sans-Serif" font-size="10.00">Cpl::Io::File::OutputApi</text>
</a>
</g>
</g>
<!-- Node23&#45;&gt;Node26 -->
<g id="edge25_Node000023_Node000026" class="edge">
<title>Node23&#45;&gt;Node26</title>
<g id="a_edge25_Node000023_Node000026"><a xlink:title=" ">
<path fill="none" stroke="#63b8ff" d="M300.05,-221.02C307.25,-229.8 315.33,-240.76 321,-251.62 376.36,-357.71 407.27,-501.69 414.96,-540.59"/>
<polygon fill="#63b8ff" stroke="#63b8ff" points="302.87,-218.93 293.73,-213.59 297.55,-223.47 302.87,-218.93"/>
</a>
</g>
</g>
<!-- Node28 -->
<g id="Node000028" class="node">
<title>Node28</title>
<g id="a_Node000028"><a xlink:href="class_cpl_1_1_io_1_1_stdio_1_1_output__.html" target="_top" xlink:title="This concrete class implements a Output stream using the underlying platform&#39;s native OS &#39;file interf...">
<polygon fill="white" stroke="#666666" points="472.38,-108.25 363.38,-108.25 363.38,-89 472.38,-89 472.38,-108.25"/>
<text text-anchor="middle" x="417.88" y="-94.75" font-family="Helvetica,sans-Serif" font-size="10.00">Cpl::Io::Stdio::Output_</text>
</a>
</g>
</g>
<!-- Node23&#45;&gt;Node28 -->
<g id="edge29_Node000023_Node000028" class="edge">
<title>Node23&#45;&gt;Node28</title>
<g id="a_edge29_Node000023_Node000028"><a xlink:title=" ">
<path fill="none" stroke="#63b8ff" d="M295.78,-183.09C308.72,-163.82 330.91,-134.83 357,-117.62 362.46,-114.02 368.65,-111.07 374.93,-108.65"/>
<polygon fill="#63b8ff" stroke="#63b8ff" points="292.9,-181.09 290.4,-191.39 298.78,-184.9 292.9,-181.09"/>
</a>
</g>
</g>
<!-- Node31 -->
<g id="Node000031" class="node">
<title>Node31</title>
<g id="a_Node000031"><a xlink:href="class_cpl_1_1_io_1_1_tee_output.html" target="_top" xlink:title="This concrete class implements a Output stream that outputs the data to MANY (or none) output streams...">
<polygon fill="white" stroke="#666666" points="464.5,-34.25 371.25,-34.25 371.25,-15 464.5,-15 464.5,-34.25"/>
<text text-anchor="middle" x="417.88" y="-20.75" font-family="Helvetica,sans-Serif" font-size="10.00">Cpl::Io::TeeOutput</text>
</a>
</g>
</g>
<!-- Node23&#45;&gt;Node31 -->
<g id="edge32_Node000023_Node000031" class="edge">
<title>Node23&#45;&gt;Node31</title>
<g id="a_edge32_Node000023_Node000031"><a xlink:title=" ">
<path fill="none" stroke="#63b8ff" d="M287.45,-181.73C294.79,-147.6 314.1,-79.98 357,-42.62 361.09,-39.06 365.87,-36.2 370.91,-33.91"/>
<polygon fill="#63b8ff" stroke="#63b8ff" points="284.09,-180.69 285.56,-191.18 290.95,-182.06 284.09,-180.69"/>
</a>
</g>
</g>
<!-- Node25 -->
<g id="Node000025" class="node">
<title>Node25</title>
<g id="a_Node000025"><a xlink:href="class_cpl_1_1_io_1_1_atomic_output.html" target="_top" xlink:title="This concrete template class implements the AtomicOutputApi using a mutex to enforce the &#39;atomic&#45;ness...">
<polygon fill="white" stroke="#666666" points="635.38,-141.88 527.88,-141.88 527.88,-111.38 635.38,-111.38 635.38,-141.88"/>
<text text-anchor="start" x="535.88" y="-128.38" font-family="Helvetica,sans-Serif" font-size="10.00">Cpl::Io::AtomicOutput</text>
<text text-anchor="middle" x="581.62" y="-117.12" font-family="Helvetica,sans-Serif" font-size="10.00">&lt; CONTEXT &gt;</text>
</a>
</g>
</g>
<!-- Node24&#45;&gt;Node25 -->
<g id="edge24_Node000024_Node000025" class="edge">
<title>Node24&#45;&gt;Node25</title>
<g id="a_edge24_Node000024_Node000025"><a xlink:title=" ">
<path fill="none" stroke="#63b8ff" d="M490.44,-134.99C502.9,-133.83 515.67,-132.65 527.53,-131.55"/>
<polygon fill="#63b8ff" stroke="#63b8ff" points="490.25,-131.49 480.61,-135.9 490.89,-138.46 490.25,-131.49"/>
</a>
</g>
</g>
<!-- Node26&#45;&gt;Node6 -->
<g id="edge26_Node000026_Node000006" class="edge">
<title>Node26&#45;&gt;Node6</title>
<g id="a_edge26_Node000026_Node000006"><a xlink:title=" ">
<path fill="none" stroke="#63b8ff" d="M474.1,-563.26C494.45,-567.91 517.23,-573.12 536.48,-577.53"/>
<polygon fill="#63b8ff" stroke="#63b8ff" points="475.08,-559.89 464.55,-561.07 473.52,-566.71 475.08,-559.89"/>
</a>
</g>
</g>
<!-- Node27 -->
<g id="Node000027" class="node">
<title>Node27</title>
<g id="a_Node000027"><a xlink:href="class_cpl_1_1_io_1_1_file_1_1_output.html" target="_top" xlink:title="This concrete class provides a platform independent &#39;standard&#39; implementation of a Cpl::Io::File::Out...">
<polygon fill="white" stroke="#666666" points="630.12,-560.25 533.12,-560.25 533.12,-541 630.12,-541 630.12,-560.25"/>
<text text-anchor="middle" x="581.62" y="-546.75" font-family="Helvetica,sans-Serif" font-size="10.00">Cpl::Io::File::Output</text>
</a>
</g>
</g>
<!-- Node26&#45;&gt;Node27 -->
<g id="edge27_Node000026_Node000027" class="edge">
<title>Node26&#45;&gt;Node27</title>
<g id="a_edge27_Node000026_Node000027"><a xlink:title=" ">
<path fill="none" stroke="#63b8ff" d="M485.07,-550.62C501.02,-550.62 517.76,-550.62 532.69,-550.62"/>
<polygon fill="#63b8ff" stroke="#63b8ff" points="485.15,-547.13 475.15,-550.63 485.15,-554.13 485.15,-547.13"/>
</a>
</g>
</g>
<!-- Node29 -->
<g id="Node000029" class="node">
<title>Node29</title>
<g id="a_Node000029"><a xlink:href="class_cpl_1_1_io_1_1_stdio_1_1_std_err.html" target="_top" xlink:title="This concrete class represents the C&#45;library &#39;stderr&#39; stream.">
<polygon fill="white" stroke="#666666" points="632.38,-93.25 530.88,-93.25 530.88,-74 632.38,-74 632.38,-93.25"/>
<text text-anchor="middle" x="581.62" y="-79.75" font-family="Helvetica,sans-Serif" font-size="10.00">Cpl::Io::Stdio::StdErr</text>
</a>
</g>
</g>
<!-- Node28&#45;&gt;Node29 -->
<g id="edge30_Node000028_Node000029" class="edge">
<title>Node28&#45;&gt;Node29</title>
<g id="a_edge30_Node000028_Node000029"><a xlink:title=" ">
<path fill="none" stroke="#63b8ff" d="M483.88,-92.6C499.43,-91.15 515.8,-89.64 530.55,-88.27"/>
<polygon fill="#63b8ff" stroke="#63b8ff" points="483.88,-89.08 474.24,-93.49 484.52,-96.05 483.88,-89.08"/>
</a>
</g>
</g>
<!-- Node30 -->
<g id="Node000030" class="node">
<title>Node30</title>
<g id="a_Node000030"><a xlink:href="class_cpl_1_1_io_1_1_stdio_1_1_std_out.html" target="_top" xlink:title="This concrete class represents the C&#45;library &#39;stdout&#39; stream.">
<polygon fill="white" stroke="#666666" points="634.25,-56.25 529,-56.25 529,-37 634.25,-37 634.25,-56.25"/>
<text text-anchor="middle" x="581.62" y="-42.75" font-family="Helvetica,sans-Serif" font-size="10.00">Cpl::Io::Stdio::StdOut</text>
</a>
</g>
</g>
<!-- Node28&#45;&gt;Node30 -->
<g id="edge31_Node000028_Node000030" class="edge">
<title>Node28&#45;&gt;Node30</title>
<g id="a_edge31_Node000028_Node000030"><a xlink:title=" ">
<path fill="none" stroke="#63b8ff" d="M465.98,-85.08C470.32,-83.65 474.63,-82.15 478.75,-80.62 495.17,-74.54 498.26,-70.5 514.75,-64.62 522.79,-61.76 531.52,-59.08 539.91,-56.71"/>
<polygon fill="#63b8ff" stroke="#63b8ff" points="465.13,-81.68 456.66,-88.04 467.25,-88.35 465.13,-81.68"/>
</a>
</g>
</g>
</g>
</svg>
