<?xml version="1.0" encoding="UTF-8" standalone="no"?>
<!DOCTYPE svg PUBLIC "-//W3C//DTD SVG 1.1//EN"
 "http://www.w3.org/Graphics/SVG/1.1/DTD/svg11.dtd">
<!-- Generated by graphviz version 9.0.0 (20230911.1827)
 -->
<!-- Title: Cpl::Io::Socket::ListenerClientSync Pages: 1 -->
<svg width="262pt" height="105pt"
 viewBox="0.00 0.00 262.00 105.00" xmlns="http://www.w3.org/2000/svg" xmlns:xlink="http://www.w3.org/1999/xlink">
<g id="graph0" class="graph" transform="scale(1 1) rotate(0) translate(4 101)">
<title>Cpl::Io::Socket::ListenerClientSync</title>
<!-- Node1 -->
<g id="Node000001" class="node">
<title>Node1</title>
<g id="a_Node000001"><a xlink:title="This partially concrete class implements the synchronous ITC open call for the OpenApi.">
<polygon fill="#999999" stroke="#666666" points="186,-30.5 68,-30.5 68,0 186,0 186,-30.5"/>
<text text-anchor="start" x="76" y="-17" font-family="Helvetica,sans-Serif" font-size="10.00">Cpl::Io::Socket::Listener</text>
<text text-anchor="middle" x="127" y="-5.75" font-family="Helvetica,sans-Serif" font-size="10.00">ClientSync</text>
</a>
</g>
</g>
<!-- Node2 -->
<g id="Node000002" class="node">
<title>Node2</title>
<g id="a_Node000002"><a xlink:href="class_cpl_1_1_io_1_1_socket_1_1_listener_1_1_client.html" target="_top" xlink:title="This class defines the callback mechanism used for accepting incoming socket connections.">
<polygon fill="white" stroke="#666666" points="118,-97 0,-97 0,-66.5 118,-66.5 118,-97"/>
<text text-anchor="start" x="8" y="-83.5" font-family="Helvetica,sans-Serif" font-size="10.00">Cpl::Io::Socket::Listener</text>
<text text-anchor="middle" x="59" y="-72.25" font-family="Helvetica,sans-Serif" font-size="10.00">::Client</text>
</a>
</g>
</g>
<!-- Node2&#45;&gt;Node1 -->
<g id="edge1_Node000001_Node000002" class="edge">
<title>Node2&#45;&gt;Node1</title>
<g id="a_edge1_Node000001_Node000002"><a xlink:title=" ">
<path fill="none" stroke="#63b8ff" d="M82.49,-58.46C92.14,-49.32 103.03,-38.98 111.63,-30.83"/>
<polygon fill="#63b8ff" stroke="#63b8ff" points="80.38,-55.65 75.53,-65.07 85.19,-60.73 80.38,-55.65"/>
</a>
</g>
</g>
<!-- Node3 -->
<g id="Node000003" class="node">
<title>Node3</title>
<g id="a_Node000003"><a xlink:href="class_cpl_1_1_io_1_1_socket_1_1_listener_client_request.html" target="_top" xlink:title="This abstract class define message types and payloads for a set of ITC services.">
<polygon fill="white" stroke="#666666" points="254,-97 136,-97 136,-66.5 254,-66.5 254,-97"/>
<text text-anchor="start" x="144" y="-83.5" font-family="Helvetica,sans-Serif" font-size="10.00">Cpl::Io::Socket::Listener</text>
<text text-anchor="middle" x="195" y="-72.25" font-family="Helvetica,sans-Serif" font-size="10.00">ClientRequest</text>
</a>
</g>
</g>
<!-- Node3&#45;&gt;Node1 -->
<g id="edge2_Node000001_Node000003" class="edge">
<title>Node3&#45;&gt;Node1</title>
<g id="a_edge2_Node000001_Node000003"><a xlink:title=" ">
<path fill="none" stroke="#63b8ff" d="M171.51,-58.46C161.86,-49.32 150.97,-38.98 142.37,-30.83"/>
<polygon fill="#63b8ff" stroke="#63b8ff" points="168.81,-60.73 178.47,-65.07 173.62,-55.65 168.81,-60.73"/>
</a>
</g>
</g>
</g>
</svg>
