<?xml version="1.0" encoding="UTF-8" standalone="no"?>
<!DOCTYPE svg PUBLIC "-//W3C//DTD SVG 1.1//EN"
 "http://www.w3.org/Graphics/SVG/1.1/DTD/svg11.dtd">
<!-- Generated by graphviz version 9.0.0 (20230911.1827)
 -->
<!-- Title: Driver::LED::RedGreenBlue Pages: 1 -->
<svg width="228pt" height="94pt"
 viewBox="0.00 0.00 228.12 93.75" xmlns="http://www.w3.org/2000/svg" xmlns:xlink="http://www.w3.org/1999/xlink">
<g id="graph0" class="graph" transform="scale(1 1) rotate(0) translate(4 89.75)">
<title>Driver::LED::RedGreenBlue</title>
<!-- Node1 -->
<g id="Node000001" class="node">
<title>Node1</title>
<g id="a_Node000001"><a xlink:title="This abstract class defines a basic interface for a single Red&#45;Green&#45;Blue LED where the application c...">
<polygon fill="#999999" stroke="#666666" points="178.88,-85.75 46.62,-85.75 46.62,-66.5 178.88,-66.5 178.88,-85.75"/>
<text text-anchor="middle" x="112.75" y="-72.25" font-family="Helvetica,sans-Serif" font-size="10.00">Driver::LED::RedGreenBlue</text>
</a>
</g>
</g>
<!-- Node2 -->
<g id="Node000002" class="node">
<title>Node2</title>
<g id="a_Node000002"><a xlink:href="class_driver_1_1_l_e_d_1_1_pimoroni_1_1_red_green_blue.html" target="_top" xlink:title="This concrete class is wrapper to the GENERIC pimoroni RGBLED class.">
<polygon fill="white" stroke="#666666" points="107.5,-30.5 0,-30.5 0,0 107.5,0 107.5,-30.5"/>
<text text-anchor="start" x="8" y="-17" font-family="Helvetica,sans-Serif" font-size="10.00">Driver::LED::Pimoroni</text>
<text text-anchor="middle" x="53.75" y="-5.75" font-family="Helvetica,sans-Serif" font-size="10.00">::RedGreenBlue</text>
</a>
</g>
</g>
<!-- Node1&#45;&gt;Node2 -->
<g id="edge1_Node000001_Node000002" class="edge">
<title>Node1&#45;&gt;Node2</title>
<g id="a_edge1_Node000001_Node000002"><a xlink:title=" ">
<path fill="none" stroke="#63b8ff" d="M95.84,-58.25C87.14,-49.57 76.65,-39.1 68.31,-30.78"/>
<polygon fill="#63b8ff" stroke="#63b8ff" points="93.17,-60.53 102.72,-65.11 98.11,-55.57 93.17,-60.53"/>
</a>
</g>
</g>
<!-- Node3 -->
<g id="Node000003" class="node">
<title>Node3</title>
<g id="a_Node000003"><a xlink:href="class_driver_1_1_l_e_d_1_1_t_pipe_1_1_red_gree_blue.html" target="_top" xlink:title="This concrete class implements the Red&#45;Green&#45;Blue LED interface by sending the LED state over the TPi...">
<polygon fill="white" stroke="#666666" points="220.12,-30.5 125.38,-30.5 125.38,0 220.12,0 220.12,-30.5"/>
<text text-anchor="start" x="133.38" y="-17" font-family="Helvetica,sans-Serif" font-size="10.00">Driver::LED::TPipe</text>
<text text-anchor="middle" x="172.75" y="-5.75" font-family="Helvetica,sans-Serif" font-size="10.00">::RedGreeBlue</text>
</a>
</g>
</g>
<!-- Node1&#45;&gt;Node3 -->
<g id="edge2_Node000001_Node000003" class="edge">
<title>Node1&#45;&gt;Node3</title>
<g id="a_edge2_Node000001_Node000003"><a xlink:title=" ">
<path fill="none" stroke="#63b8ff" d="M129.95,-58.25C138.79,-49.57 149.47,-39.1 157.94,-30.78"/>
<polygon fill="#63b8ff" stroke="#63b8ff" points="127.63,-55.62 122.94,-65.12 132.53,-60.62 127.63,-55.62"/>
</a>
</g>
</g>
</g>
</svg>
