<?xml version="1.0" encoding="UTF-8" standalone="no"?>
<!DOCTYPE svg PUBLIC "-//W3C//DTD SVG 1.1//EN"
 "http://www.w3.org/Graphics/SVG/1.1/DTD/svg11.dtd">
<!-- Generated by graphviz version 9.0.0 (20230911.1827)
 -->
<!-- Title: Cpl::Container::MapItem Pages: 1 -->
<svg width="148pt" height="193pt"
 viewBox="0.00 0.00 147.75 193.00" xmlns="http://www.w3.org/2000/svg" xmlns:xlink="http://www.w3.org/1999/xlink">
<g id="graph0" class="graph" transform="scale(1 1) rotate(0) translate(4 189)">
<title>Cpl::Container::MapItem</title>
<!-- Node1 -->
<g id="Node000001" class="node">
<title>Node1</title>
<g id="a_Node000001"><a xlink:title="This abstract class represents a item that can be contained in an Map (aka a sorted list implemented ...">
<polygon fill="#999999" stroke="#666666" points="129.25,-19.25 10.5,-19.25 10.5,0 129.25,0 129.25,-19.25"/>
<text text-anchor="middle" x="69.88" y="-5.75" font-family="Helvetica,sans-Serif" font-size="10.00">Cpl::Container::MapItem</text>
</a>
</g>
</g>
<!-- Node2 -->
<g id="Node000002" class="node">
<title>Node2</title>
<g id="a_Node000002"><a xlink:href="class_cpl_1_1_container_1_1_dict_item.html" target="_top" xlink:title="This abstract class represents a item that can be contained in Dictionary.">
<polygon fill="white" stroke="#666666" points="128.5,-74.5 11.25,-74.5 11.25,-55.25 128.5,-55.25 128.5,-74.5"/>
<text text-anchor="middle" x="69.88" y="-61" font-family="Helvetica,sans-Serif" font-size="10.00">Cpl::Container::DictItem</text>
</a>
</g>
</g>
<!-- Node2&#45;&gt;Node1 -->
<g id="edge1_Node000001_Node000002" class="edge">
<title>Node2&#45;&gt;Node1</title>
<g id="a_edge1_Node000001_Node000002"><a xlink:title=" ">
<path fill="none" stroke="#63b8ff" d="M69.88,-43.63C69.88,-35.34 69.88,-26.17 69.88,-19.61"/>
<polygon fill="#63b8ff" stroke="#63b8ff" points="66.38,-43.57 69.88,-53.57 73.38,-43.57 66.38,-43.57"/>
</a>
</g>
</g>
<!-- Node3 -->
<g id="Node000003" class="node">
<title>Node3</title>
<g id="a_Node000003"><a xlink:href="class_cpl_1_1_container_1_1_extended_item.html" target="_top" xlink:title="This class is used by the Container classes to implement a various types of DOUBLY linked containers.">
<polygon fill="white" stroke="#666666" points="139.75,-129.75 0,-129.75 0,-110.5 139.75,-110.5 139.75,-129.75"/>
<text text-anchor="middle" x="69.88" y="-116.25" font-family="Helvetica,sans-Serif" font-size="10.00">Cpl::Container::ExtendedItem</text>
</a>
</g>
</g>
<!-- Node3&#45;&gt;Node2 -->
<g id="edge2_Node000002_Node000003" class="edge">
<title>Node3&#45;&gt;Node2</title>
<g id="a_edge2_Node000002_Node000003"><a xlink:title=" ">
<path fill="none" stroke="#63b8ff" d="M69.88,-98.88C69.88,-90.59 69.88,-81.42 69.88,-74.86"/>
<polygon fill="#63b8ff" stroke="#63b8ff" points="66.38,-98.82 69.88,-108.82 73.38,-98.82 66.38,-98.82"/>
</a>
</g>
</g>
<!-- Node4 -->
<g id="Node000004" class="node">
<title>Node4</title>
<g id="a_Node000004"><a xlink:href="class_cpl_1_1_container_1_1_item.html" target="_top" xlink:title="This class is used by the Container classes to implement a various types of singly linked containers.">
<polygon fill="white" stroke="#666666" points="119.88,-185 19.88,-185 19.88,-165.75 119.88,-165.75 119.88,-185"/>
<text text-anchor="middle" x="69.88" y="-171.5" font-family="Helvetica,sans-Serif" font-size="10.00">Cpl::Container::Item</text>
</a>
</g>
</g>
<!-- Node4&#45;&gt;Node3 -->
<g id="edge3_Node000003_Node000004" class="edge">
<title>Node4&#45;&gt;Node3</title>
<g id="a_edge3_Node000003_Node000004"><a xlink:title=" ">
<path fill="none" stroke="#63b8ff" d="M69.88,-154.13C69.88,-145.84 69.88,-136.67 69.88,-130.11"/>
<polygon fill="#63b8ff" stroke="#63b8ff" points="66.38,-154.07 69.88,-164.07 73.38,-154.07 66.38,-154.07"/>
</a>
</g>
</g>
</g>
</svg>
