<?xml version="1.0" encoding="UTF-8" standalone="no"?>
<!DOCTYPE svg PUBLIC "-//W3C//DTD SVG 1.1//EN"
 "http://www.w3.org/Graphics/SVG/1.1/DTD/svg11.dtd">
<!-- Generated by graphviz version 9.0.0 (20230911.1827)
 -->
<!-- Title: Cpl::Container::RingBufferMP&lt; ITEM &gt; Pages: 1 -->
<svg width="783pt" height="186pt"
 viewBox="0.00 0.00 782.75 185.50" xmlns="http://www.w3.org/2000/svg" xmlns:xlink="http://www.w3.org/1999/xlink">
<g id="graph0" class="graph" transform="scale(1 1) rotate(0) translate(4 181.5)">
<title>Cpl::Container::RingBufferMP&lt; ITEM &gt;</title>
<!-- Node1 -->
<g id="Node000001" class="node">
<title>Node1</title>
<g id="a_Node000001"><a xlink:title="This template class implements a THREAD SAFE Ring Buffer AND it maintains/reports the number of eleme...">
<polygon fill="#999999" stroke="#666666" points="450.5,-103.5 325,-103.5 325,-73 450.5,-73 450.5,-103.5"/>
<text text-anchor="start" x="333" y="-90" font-family="Helvetica,sans-Serif" font-size="10.00">Cpl::Container::RingBuffer</text>
<text text-anchor="middle" x="387.75" y="-78.75" font-family="Helvetica,sans-Serif" font-size="10.00">MP&lt; ITEM &gt;</text>
</a>
</g>
</g>
<!-- Node4 -->
<g id="Node000004" class="node">
<title>Node4</title>
<g id="a_Node000004"><a xlink:href="class_cpl_1_1_container_1_1_ring_buffer_m_p.html" target="_top" xlink:title=" ">
<polygon fill="white" stroke="#666666" points="770.25,-177.5 620.75,-177.5 620.75,-147 770.25,-147 770.25,-177.5"/>
<text text-anchor="start" x="628.75" y="-164" font-family="Helvetica,sans-Serif" font-size="10.00">Cpl::Container::RingBuffer</text>
<text text-anchor="middle" x="695.5" y="-152.75" font-family="Helvetica,sans-Serif" font-size="10.00">MP&lt; AjaxScreenMgrEvent_T &gt;</text>
</a>
</g>
</g>
<!-- Node1&#45;&gt;Node4 -->
<g id="edge3_Node000001_Node000004" class="edge">
<title>Node1&#45;&gt;Node4</title>
<g id="a_edge3_Node000001_Node000004"><a xlink:title=" ">
<path fill="none" stroke="orange" stroke-dasharray="5,2" d="M433.93,-108.18C445.08,-112.59 457.1,-116.94 468.5,-120.25 518.32,-134.72 575.82,-145.32 620.36,-152.26"/>
<polygon fill="orange" stroke="orange" points="435.54,-105.05 424.96,-104.53 432.9,-111.54 435.54,-105.05"/>
</a>
</g>
<text text-anchor="middle" x="533.38" y="-150" font-family="Helvetica,sans-Serif" font-size="10.00" fill="grey"> &lt; AjaxScreenMgrEvent_T &gt;</text>
</g>
<!-- Node5 -->
<g id="Node000005" class="node">
<title>Node5</title>
<g id="a_Node000005"><a xlink:href="class_cpl_1_1_container_1_1_ring_buffer_m_p.html" target="_top" xlink:title=" ">
<polygon fill="white" stroke="#666666" points="758.25,-128.5 632.75,-128.5 632.75,-98 758.25,-98 758.25,-128.5"/>
<text text-anchor="start" x="640.75" y="-115" font-family="Helvetica,sans-Serif" font-size="10.00">Cpl::Container::RingBuffer</text>
<text text-anchor="middle" x="695.5" y="-103.75" font-family="Helvetica,sans-Serif" font-size="10.00">MP&lt; AjaxUiEvent_T &gt;</text>
</a>
</g>
</g>
<!-- Node1&#45;&gt;Node5 -->
<g id="edge4_Node000001_Node000005" class="edge">
<title>Node1&#45;&gt;Node5</title>
<g id="a_edge4_Node000001_Node000005"><a xlink:title=" ">
<path fill="none" stroke="orange" stroke-dasharray="5,2" d="M462.14,-94.25C514.12,-98.5 583.08,-104.14 632.35,-108.17"/>
<polygon fill="orange" stroke="orange" points="462.75,-90.79 452.5,-93.46 462.18,-97.77 462.75,-90.79"/>
</a>
</g>
<text text-anchor="middle" x="533.38" y="-107" font-family="Helvetica,sans-Serif" font-size="10.00" fill="grey"> &lt; AjaxUiEvent_T &gt;</text>
</g>
<!-- Node6 -->
<g id="Node000006" class="node">
<title>Node6</title>
<g id="a_Node000006"><a xlink:href="class_cpl_1_1_container_1_1_ring_buffer_m_p.html" target="_top" xlink:title=" ">
<polygon fill="white" stroke="#666666" points="774.75,-79.5 616.25,-79.5 616.25,-49 774.75,-49 774.75,-79.5"/>
<text text-anchor="start" x="624.25" y="-66" font-family="Helvetica,sans-Serif" font-size="10.00">Cpl::Container::RingBuffer</text>
<text text-anchor="middle" x="695.5" y="-54.75" font-family="Helvetica,sans-Serif" font-size="10.00">MP&lt; Cpl::Logging::EntryData_T &gt;</text>
</a>
</g>
</g>
<!-- Node1&#45;&gt;Node6 -->
<g id="edge5_Node000001_Node000006" class="edge">
<title>Node1&#45;&gt;Node6</title>
<g id="a_edge5_Node000001_Node000006"><a xlink:title=" ">
<path fill="none" stroke="orange" stroke-dasharray="5,2" d="M462.29,-80.55C464.38,-80.36 466.46,-80.18 468.5,-80 517.48,-75.76 572.51,-71.91 616.01,-69.07"/>
<polygon fill="orange" stroke="orange" points="462.12,-77.05 452.49,-81.47 462.78,-84.02 462.12,-77.05"/>
</a>
</g>
<text text-anchor="middle" x="533.38" y="-82" font-family="Helvetica,sans-Serif" font-size="10.00" fill="grey"> &lt; Cpl::Logging::EntryData_T &gt;</text>
</g>
<!-- Node7 -->
<g id="Node000007" class="node">
<title>Node7</title>
<g id="a_Node000007"><a xlink:href="class_cpl_1_1_container_1_1_ring_buffer_m_p.html" target="_top" xlink:title=" ">
<polygon fill="white" stroke="#666666" points="758.25,-30.5 632.75,-30.5 632.75,0 758.25,0 758.25,-30.5"/>
<text text-anchor="start" x="640.75" y="-17" font-family="Helvetica,sans-Serif" font-size="10.00">Cpl::Container::RingBuffer</text>
<text text-anchor="middle" x="695.5" y="-5.75" font-family="Helvetica,sans-Serif" font-size="10.00">MP&lt; ENTRY &gt;</text>
</a>
</g>
</g>
<!-- Node1&#45;&gt;Node7 -->
<g id="edge6_Node000001_Node000007" class="edge">
<title>Node1&#45;&gt;Node7</title>
<g id="a_edge6_Node000001_Node000007"><a xlink:title=" ">
<path fill="none" stroke="orange" stroke-dasharray="5,2" d="M433.59,-68.24C444.83,-63.75 456.97,-59.33 468.5,-56 522.89,-40.28 586.47,-29.46 632.32,-22.94"/>
<polygon fill="orange" stroke="orange" points="432.46,-64.92 424.54,-71.96 435.12,-71.39 432.46,-64.92"/>
</a>
</g>
<text text-anchor="middle" x="533.38" y="-58" font-family="Helvetica,sans-Serif" font-size="10.00" fill="grey"> &lt; ENTRY &gt;</text>
</g>
<!-- Node2 -->
<g id="Node000002" class="node">
<title>Node2</title>
<g id="a_Node000002"><a xlink:href="class_cpl_1_1_container_1_1_ring_buffer_m_t.html" target="_top" xlink:title="This template class implements a THREAD SAFE Ring Buffer.">
<polygon fill="white" stroke="#666666" points="288,-103.5 162.5,-103.5 162.5,-73 288,-73 288,-103.5"/>
<text text-anchor="start" x="170.5" y="-90" font-family="Helvetica,sans-Serif" font-size="10.00">Cpl::Container::RingBuffer</text>
<text text-anchor="middle" x="225.25" y="-78.75" font-family="Helvetica,sans-Serif" font-size="10.00">MT&lt; ITEM &gt;</text>
</a>
</g>
</g>
<!-- Node2&#45;&gt;Node1 -->
<g id="edge1_Node000001_Node000002" class="edge">
<title>Node2&#45;&gt;Node1</title>
<g id="a_edge1_Node000001_Node000002"><a xlink:title=" ">
<path fill="none" stroke="#63b8ff" d="M299.6,-88.25C307.95,-88.25 316.41,-88.25 324.6,-88.25"/>
<polygon fill="#63b8ff" stroke="#63b8ff" points="299.82,-84.75 289.82,-88.25 299.82,-91.75 299.82,-84.75"/>
</a>
</g>
</g>
<!-- Node3 -->
<g id="Node000003" class="node">
<title>Node3</title>
<g id="a_Node000003"><a xlink:href="class_cpl_1_1_container_1_1_ring_buffer.html" target="_top" xlink:title="This template class implements a Ring Buffer.">
<polygon fill="white" stroke="#666666" points="125.5,-103.5 0,-103.5 0,-73 125.5,-73 125.5,-103.5"/>
<text text-anchor="start" x="8" y="-90" font-family="Helvetica,sans-Serif" font-size="10.00">Cpl::Container::RingBuffer</text>
<text text-anchor="middle" x="62.75" y="-78.75" font-family="Helvetica,sans-Serif" font-size="10.00">&lt; ITEM &gt;</text>
</a>
</g>
</g>
<!-- Node3&#45;&gt;Node2 -->
<g id="edge2_Node000002_Node000003" class="edge">
<title>Node3&#45;&gt;Node2</title>
<g id="a_edge2_Node000002_Node000003"><a xlink:title=" ">
<path fill="none" stroke="#63b8ff" d="M137.1,-88.25C145.45,-88.25 153.91,-88.25 162.1,-88.25"/>
<polygon fill="#63b8ff" stroke="#63b8ff" points="137.32,-84.75 127.32,-88.25 137.32,-91.75 137.32,-84.75"/>
</a>
</g>
</g>
</g>
</svg>
