<?xml version="1.0" encoding="UTF-8" standalone="no"?>
<!DOCTYPE svg PUBLIC "-//W3C//DTD SVG 1.1//EN"
 "http://www.w3.org/Graphics/SVG/1.1/DTD/svg11.dtd">
<!-- Generated by graphviz version 9.0.0 (20230911.1827)
 -->
<!-- Title: Cpl::Io::Ram::InputOutput Pages: 1 -->
<svg width="917pt" height="169pt"
 viewBox="0.00 0.00 916.75 169.29" xmlns="http://www.w3.org/2000/svg" xmlns:xlink="http://www.w3.org/1999/xlink">
<g id="graph0" class="graph" transform="scale(1 1) rotate(0) translate(4 165.29)">
<title>Cpl::Io::Ram::InputOutput</title>
<!-- Node1 -->
<g id="Node000001" class="node">
<title>Node1</title>
<g id="a_Node000001"><a xlink:title="This concrete class implements an InputOutput stream using a Ring Buffer.">
<polygon fill="#999999" stroke="#666666" points="908.75,-73.29 785.5,-73.29 785.5,-54.04 908.75,-54.04 908.75,-73.29"/>
<text text-anchor="middle" x="847.12" y="-59.79" font-family="Helvetica,sans-Serif" font-size="10.00">Cpl::Io::Ram::InputOutput</text>
</a>
</g>
</g>
<!-- Node2 -->
<g id="Node000002" class="node">
<title>Node2</title>
<g id="a_Node000002"><a xlink:href="class_cpl_1_1_io_1_1_input_output.html" target="_top" xlink:title="This abstract class defines a interface for operating on an input&#45;output stream (example of a stream ...">
<polygon fill="white" stroke="#666666" points="679,-142.29 580.5,-142.29 580.5,-123.04 679,-123.04 679,-142.29"/>
<text text-anchor="middle" x="629.75" y="-128.79" font-family="Helvetica,sans-Serif" font-size="10.00">Cpl::Io::InputOutput</text>
</a>
</g>
</g>
<!-- Node2&#45;&gt;Node1 -->
<g id="edge1_Node000001_Node000002" class="edge">
<title>Node2&#45;&gt;Node1</title>
<g id="a_edge1_Node000001_Node000002"><a xlink:title=" ">
<path fill="none" stroke="#63b8ff" d="M682.5,-119.65C708.24,-112.83 739.72,-103.97 767.5,-94.66 786.28,-88.37 807.12,-80.09 822.62,-73.67"/>
<polygon fill="#63b8ff" stroke="#63b8ff" points="681.73,-116.23 672.94,-122.15 683.5,-123 681.73,-116.23"/>
</a>
</g>
</g>
<!-- Node3 -->
<g id="Node000003" class="node">
<title>Node3</title>
<g id="a_Node000003"><a xlink:href="class_cpl_1_1_io_1_1_input.html" target="_top" xlink:title="This partially abstract class defines a interface for operating on an input stream (example of a stre...">
<polygon fill="white" stroke="#666666" points="381.12,-161.29 311.88,-161.29 311.88,-142.04 381.12,-142.04 381.12,-161.29"/>
<text text-anchor="middle" x="346.5" y="-147.79" font-family="Helvetica,sans-Serif" font-size="10.00">Cpl::Io::Input</text>
</a>
</g>
</g>
<!-- Node3&#45;&gt;Node2 -->
<g id="edge2_Node000002_Node000003" class="edge">
<title>Node3&#45;&gt;Node2</title>
<g id="a_edge2_Node000002_Node000003"><a xlink:title=" ">
<path fill="none" stroke="#63b8ff" d="M392.8,-148.6C444.12,-145.13 527.42,-139.51 580.08,-135.95"/>
<polygon fill="#63b8ff" stroke="#63b8ff" points="392.68,-145.1 382.94,-149.27 393.15,-152.08 392.68,-145.1"/>
</a>
</g>
</g>
<!-- Node4 -->
<g id="Node000004" class="node">
<title>Node4</title>
<g id="a_Node000004"><a xlink:href="class_cpl_1_1_io_1_1_close.html" target="_top" xlink:title="This abstract class defines a close operation that is intended to be used Input and Output streams/fi...">
<polygon fill="white" stroke="#666666" points="228,-86.29 155.75,-86.29 155.75,-67.04 228,-67.04 228,-86.29"/>
<text text-anchor="middle" x="191.88" y="-72.79" font-family="Helvetica,sans-Serif" font-size="10.00">Cpl::Io::Close</text>
</a>
</g>
</g>
<!-- Node4&#45;&gt;Node3 -->
<g id="edge3_Node000003_Node000004" class="edge">
<title>Node4&#45;&gt;Node3</title>
<g id="a_edge3_Node000003_Node000004"><a xlink:title=" ">
<path fill="none" stroke="#63b8ff" d="M215.31,-93.2C233.13,-105.72 259.06,-122.58 283.75,-133.66 292.51,-137.59 302.35,-140.91 311.56,-143.59"/>
<polygon fill="#63b8ff" stroke="#63b8ff" points="217.47,-90.44 207.3,-87.47 213.4,-96.14 217.47,-90.44"/>
</a>
</g>
</g>
<!-- Node7 -->
<g id="Node000007" class="node">
<title>Node7</title>
<g id="a_Node000007"><a xlink:href="class_cpl_1_1_io_1_1_output.html" target="_top" xlink:title="This partially abstract class defines a interface for operating on an output stream (example of a str...">
<polygon fill="white" stroke="#666666" points="384.88,-124.29 308.12,-124.29 308.12,-105.04 384.88,-105.04 384.88,-124.29"/>
<text text-anchor="middle" x="346.5" y="-110.79" font-family="Helvetica,sans-Serif" font-size="10.00">Cpl::Io::Output</text>
</a>
</g>
</g>
<!-- Node4&#45;&gt;Node7 -->
<g id="edge7_Node000007_Node000004" class="edge">
<title>Node4&#45;&gt;Node7</title>
<g id="a_edge7_Node000007_Node000004"><a xlink:title=" ">
<path fill="none" stroke="#63b8ff" d="M239.51,-84.88C248.26,-86.63 257.31,-88.59 265.75,-90.66 274.88,-92.9 295.3,-99.06 313.19,-104.57"/>
<polygon fill="#63b8ff" stroke="#63b8ff" points="240.22,-81.45 229.73,-82.99 238.89,-88.33 240.22,-81.45"/>
</a>
</g>
</g>
<!-- Node5 -->
<g id="Node000005" class="node">
<title>Node5</title>
<g id="a_Node000005"><a xlink:href="class_cpl_1_1_container_1_1_item.html" target="_top" xlink:title="This class is used by the Container classes to implement a various types of singly linked containers.">
<polygon fill="white" stroke="#666666" points="100,-62.29 0,-62.29 0,-43.04 100,-43.04 100,-62.29"/>
<text text-anchor="middle" x="50" y="-48.79" font-family="Helvetica,sans-Serif" font-size="10.00">Cpl::Container::Item</text>
</a>
</g>
</g>
<!-- Node5&#45;&gt;Node4 -->
<g id="edge4_Node000004_Node000005" class="edge">
<title>Node5&#45;&gt;Node4</title>
<g id="a_edge4_Node000004_Node000005"><a xlink:title=" ">
<path fill="none" stroke="#63b8ff" d="M111.64,-63.07C126.66,-65.64 142.27,-68.32 155.62,-70.61"/>
<polygon fill="#63b8ff" stroke="#63b8ff" points="112.25,-59.62 101.81,-61.38 111.07,-66.52 112.25,-59.62"/>
</a>
</g>
</g>
<!-- Node12 -->
<g id="Node000012" class="node">
<title>Node12</title>
<g id="a_Node000012"><a xlink:href="class_cpl_1_1_system_1_1_signable.html" target="_top" xlink:title="This abstract class defines the interface by which a client can cause an object that is waiting&#45;on&#45;a&#45;...">
<polygon fill="white" stroke="#666666" points="246.75,-44.29 137,-44.29 137,-25.04 246.75,-25.04 246.75,-44.29"/>
<text text-anchor="middle" x="191.88" y="-30.79" font-family="Helvetica,sans-Serif" font-size="10.00">Cpl::System::Signable</text>
</a>
</g>
</g>
<!-- Node5&#45;&gt;Node12 -->
<g id="edge14_Node000012_Node000005" class="edge">
<title>Node5&#45;&gt;Node12</title>
<g id="a_edge14_Node000012_Node000005"><a xlink:title=" ">
<path fill="none" stroke="#63b8ff" d="M111.58,-44.86C119.96,-43.79 128.52,-42.68 136.77,-41.62"/>
<polygon fill="#63b8ff" stroke="#63b8ff" points="111.29,-41.37 101.82,-46.12 112.18,-48.32 111.29,-41.37"/>
</a>
</g>
</g>
<!-- Node6 -->
<g id="Node000006" class="node">
<title>Node6</title>
<g id="a_Node000006"><a xlink:href="class_cpl_1_1_io_1_1_is_eos.html" target="_top" xlink:title="This abstract class defines a isEos() operation that is intended to be used Input and Output streams.">
<polygon fill="white" stroke="#666666" points="228,-148.29 155.75,-148.29 155.75,-129.04 228,-129.04 228,-148.29"/>
<text text-anchor="middle" x="191.88" y="-134.79" font-family="Helvetica,sans-Serif" font-size="10.00">Cpl::Io::IsEos</text>
</a>
</g>
</g>
<!-- Node6&#45;&gt;Node3 -->
<g id="edge5_Node000003_Node000006" class="edge">
<title>Node6&#45;&gt;Node3</title>
<g id="a_edge5_Node000003_Node000006"><a xlink:title=" ">
<path fill="none" stroke="#63b8ff" d="M239.63,-142.64C262.87,-144.62 290.43,-146.97 311.6,-148.77"/>
<polygon fill="#63b8ff" stroke="#63b8ff" points="240.04,-139.17 229.78,-141.8 239.45,-146.14 240.04,-139.17"/>
</a>
</g>
</g>
<!-- Node6&#45;&gt;Node7 -->
<g id="edge8_Node000007_Node000006" class="edge">
<title>Node6&#45;&gt;Node7</title>
<g id="a_edge8_Node000007_Node000006"><a xlink:title=" ">
<path fill="none" stroke="#63b8ff" d="M239.61,-131.31C261.42,-127.88 287.05,-123.85 307.63,-120.62"/>
<polygon fill="#63b8ff" stroke="#63b8ff" points="239.1,-127.85 229.77,-132.86 240.19,-134.76 239.1,-127.85"/>
</a>
</g>
</g>
<!-- Node7&#45;&gt;Node2 -->
<g id="edge6_Node000002_Node000007" class="edge">
<title>Node7&#45;&gt;Node2</title>
<g id="a_edge6_Node000002_Node000007"><a xlink:title=" ">
<path fill="none" stroke="#63b8ff" d="M396.62,-117.8C448.15,-121.1 528.63,-126.25 580.01,-129.54"/>
<polygon fill="#63b8ff" stroke="#63b8ff" points="396.85,-114.31 386.65,-117.17 396.41,-121.3 396.85,-114.31"/>
</a>
</g>
</g>
<!-- Node8 -->
<g id="Node000008" class="node">
<title>Node8</title>
<g id="a_Node000008"><a xlink:href="class_cpl_1_1_container_1_1_ring_buffer.html" target="_top" xlink:title=" ">
<polygon fill="white" stroke="#666666" points="692.5,-104.91 567,-104.91 567,-74.41 692.5,-74.41 692.5,-104.91"/>
<text text-anchor="start" x="575" y="-91.41" font-family="Helvetica,sans-Serif" font-size="10.00">Cpl::Container::RingBuffer</text>
<text text-anchor="middle" x="629.75" y="-80.16" font-family="Helvetica,sans-Serif" font-size="10.00">&lt; uint8_t &gt;</text>
</a>
</g>
</g>
<!-- Node8&#45;&gt;Node1 -->
<g id="edge9_Node000001_Node000008" class="edge">
<title>Node8&#45;&gt;Node1</title>
<g id="a_edge9_Node000001_Node000008"><a xlink:title=" ">
<path fill="none" stroke="#9a32cd" stroke-dasharray="5,2" d="M703.9,-80.83C730.38,-77.63 759.99,-74.06 785.3,-71"/>
<polygon fill="#9a32cd" stroke="#9a32cd" points="703.77,-77.32 694.26,-81.99 704.61,-84.27 703.77,-77.32"/>
</a>
</g>
<text text-anchor="middle" x="739" y="-81.41" font-family="Helvetica,sans-Serif" font-size="10.00" fill="grey"> m_ringBuffer</text>
</g>
<!-- Node9 -->
<g id="Node000009" class="node">
<title>Node9</title>
<g id="a_Node000009"><a xlink:href="class_cpl_1_1_container_1_1_ring_buffer.html" target="_top" xlink:title="This template class implements a Ring Buffer.">
<polygon fill="white" stroke="#666666" points="409.25,-86.91 283.75,-86.91 283.75,-56.41 409.25,-56.41 409.25,-86.91"/>
<text text-anchor="start" x="291.75" y="-73.41" font-family="Helvetica,sans-Serif" font-size="10.00">Cpl::Container::RingBuffer</text>
<text text-anchor="middle" x="346.5" y="-62.16" font-family="Helvetica,sans-Serif" font-size="10.00">&lt; ITEM &gt;</text>
</a>
</g>
</g>
<!-- Node9&#45;&gt;Node8 -->
<g id="edge10_Node000008_Node000009" class="edge">
<title>Node9&#45;&gt;Node8</title>
<g id="a_edge10_Node000008_Node000009"><a xlink:title=" ">
<path fill="none" stroke="orange" stroke-dasharray="5,2" d="M420.82,-76.35C466.19,-79.26 523.78,-82.94 566.84,-85.7"/>
<polygon fill="orange" stroke="orange" points="421.28,-72.88 411.08,-75.73 420.84,-79.86 421.28,-72.88"/>
</a>
</g>
<text text-anchor="middle" x="488.12" y="-85.41" font-family="Helvetica,sans-Serif" font-size="10.00" fill="grey"> &lt; uint8_t &gt;</text>
</g>
<!-- Node10 -->
<g id="Node000010" class="node">
<title>Node10</title>
<g id="a_Node000010"><a xlink:href="class_cpl_1_1_system_1_1_mutex.html" target="_top" xlink:title="This mutex class defines the interface for a mutex that has &quot;recursive&quot; semantics.">
<polygon fill="white" stroke="#666666" points="679,-56.29 580.5,-56.29 580.5,-37.04 679,-37.04 679,-56.29"/>
<text text-anchor="middle" x="629.75" y="-42.79" font-family="Helvetica,sans-Serif" font-size="10.00">Cpl::System::Mutex</text>
</a>
</g>
</g>
<!-- Node10&#45;&gt;Node1 -->
<g id="edge11_Node000001_Node000010" class="edge">
<title>Node10&#45;&gt;Node1</title>
<g id="a_edge11_Node000001_Node000010"><a xlink:title=" ">
<path fill="none" stroke="#9a32cd" stroke-dasharray="5,2" d="M690.67,-47.19C714.61,-47.8 742.4,-49.03 767.5,-51.41 773.55,-51.98 779.85,-52.72 786.12,-53.55"/>
<polygon fill="#9a32cd" stroke="#9a32cd" points="690.85,-43.69 680.77,-46.97 690.69,-50.69 690.85,-43.69"/>
</a>
</g>
<text text-anchor="middle" x="739" y="-52.41" font-family="Helvetica,sans-Serif" font-size="10.00" fill="grey"> m_lock</text>
</g>
<!-- Node11 -->
<g id="Node000011" class="node">
<title>Node11</title>
<g id="a_Node000011"><a xlink:href="class_cpl_1_1_system_1_1_semaphore.html" target="_top" xlink:title="This semaphore class defines the interface for a Counting Semaphore.">
<polygon fill="white" stroke="#666666" points="549,-20.29 427.25,-20.29 427.25,-1.04 549,-1.04 549,-20.29"/>
<text text-anchor="middle" x="488.12" y="-6.79" font-family="Helvetica,sans-Serif" font-size="10.00">Cpl::System::Semaphore</text>
</a>
</g>
</g>
<!-- Node11&#45;&gt;Node1 -->
<g id="edge12_Node000001_Node000011" class="edge">
<title>Node11&#45;&gt;Node1</title>
<g id="a_edge12_Node000001_Node000011"><a xlink:title=" ">
<path fill="none" stroke="#9a32cd" stroke-dasharray="5,2" d="M560.79,-5.41C562.88,-5.32 564.96,-5.23 567,-5.16 622.74,-3.19 637.64,4.93 692.5,-5.16 743.02,-14.45 798.45,-39.6 826.9,-53.71"/>
<polygon fill="#9a32cd" stroke="#9a32cd" points="560.8,-1.9 550.98,-5.9 561.15,-8.89 560.8,-1.9"/>
</a>
</g>
<text text-anchor="middle" x="629.75" y="-18.66" font-family="Helvetica,sans-Serif" font-size="10.00" fill="grey"> m_semaReaders</text>
<text text-anchor="middle" x="629.75" y="-7.41" font-family="Helvetica,sans-Serif" font-size="10.00" fill="grey">m_semaWriters</text>
</g>
<!-- Node12&#45;&gt;Node11 -->
<g id="edge13_Node000011_Node000012" class="edge">
<title>Node12&#45;&gt;Node11</title>
<g id="a_edge13_Node000011_Node000012"><a xlink:title=" ">
<path fill="none" stroke="#63b8ff" d="M258.6,-29.3C308.94,-25.19 377.84,-19.57 426.79,-15.58"/>
<polygon fill="#63b8ff" stroke="#63b8ff" points="258.38,-25.81 248.7,-30.11 258.95,-32.78 258.38,-25.81"/>
</a>
</g>
</g>
</g>
</svg>
