<?xml version="1.0" encoding="UTF-8" standalone="no"?>
<!DOCTYPE svg PUBLIC "-//W3C//DTD SVG 1.1//EN"
 "http://www.w3.org/Graphics/SVG/1.1/DTD/svg11.dtd">
<!-- Generated by graphviz version 9.0.0 (20230911.1827)
 -->
<!-- Title: Cpl::Persistent::CrcChunk Pages: 1 -->
<svg width="278pt" height="94pt"
 viewBox="0.00 0.00 277.50 93.75" xmlns="http://www.w3.org/2000/svg" xmlns:xlink="http://www.w3.org/1999/xlink">
<g id="graph0" class="graph" transform="scale(1 1) rotate(0) translate(4 89.75)">
<title>Cpl::Persistent::CrcChunk</title>
<!-- Node1 -->
<g id="Node000001" class="node">
<title>Node1</title>
<g id="a_Node000001"><a xlink:title="This concrete class implements the Chunk interface by using a 32Bit CRC for ensuring data integrity.">
<polygon fill="#999999" stroke="#666666" points="190.75,-19.25 64.5,-19.25 64.5,0 190.75,0 190.75,-19.25"/>
<text text-anchor="middle" x="127.62" y="-5.75" font-family="Helvetica,sans-Serif" font-size="10.00">Cpl::Persistent::CrcChunk</text>
</a>
</g>
</g>
<!-- Node2 -->
<g id="Node000002" class="node">
<title>Node2</title>
<g id="a_Node000002"><a xlink:href="class_cpl_1_1_persistent_1_1_chunk.html" target="_top" xlink:title="This abstract class defines the interface for a Chunk.">
<polygon fill="white" stroke="#666666" points="111.25,-85.75 0,-85.75 0,-66.5 111.25,-66.5 111.25,-85.75"/>
<text text-anchor="middle" x="55.62" y="-72.25" font-family="Helvetica,sans-Serif" font-size="10.00">Cpl::Persistent::Chunk</text>
</a>
</g>
</g>
<!-- Node2&#45;&gt;Node1 -->
<g id="edge1_Node000001_Node000002" class="edge">
<title>Node2&#45;&gt;Node1</title>
<g id="a_edge1_Node000001_Node000002"><a xlink:title=" ">
<path fill="none" stroke="#63b8ff" d="M73.98,-58.69C87.88,-46.23 106.45,-29.59 117.7,-19.52"/>
<polygon fill="#63b8ff" stroke="#63b8ff" points="71.88,-55.87 66.76,-65.15 76.55,-61.08 71.88,-55.87"/>
</a>
</g>
</g>
<!-- Node3 -->
<g id="Node000003" class="node">
<title>Node3</title>
<g id="a_Node000003"><a xlink:href="class_cpl_1_1_persistent_1_1_region_media.html" target="_top" xlink:title="This mostly abstract class defines the operations that can be performed on a persistent media.">
<polygon fill="white" stroke="#666666" points="269.5,-85.75 129.75,-85.75 129.75,-66.5 269.5,-66.5 269.5,-85.75"/>
<text text-anchor="middle" x="199.62" y="-72.25" font-family="Helvetica,sans-Serif" font-size="10.00">Cpl::Persistent::RegionMedia</text>
</a>
</g>
</g>
<!-- Node3&#45;&gt;Node1 -->
<g id="edge2_Node000001_Node000003" class="edge">
<title>Node3&#45;&gt;Node1</title>
<g id="a_edge2_Node000001_Node000003"><a xlink:title=" ">
<path fill="none" stroke="#9a32cd" stroke-dasharray="5,2" d="M181.27,-58.69C167.37,-46.23 148.8,-29.59 137.55,-19.52"/>
<polygon fill="#9a32cd" stroke="#9a32cd" points="178.7,-61.08 188.49,-65.15 183.37,-55.87 178.7,-61.08"/>
</a>
</g>
<text text-anchor="middle" x="188.62" y="-39" font-family="Helvetica,sans-Serif" font-size="10.00" fill="grey"> m_region</text>
</g>
</g>
</svg>
