<?xml version="1.0" encoding="UTF-8" standalone="no"?>
<!DOCTYPE svg PUBLIC "-//W3C//DTD SVG 1.1//EN"
 "http://www.w3.org/Graphics/SVG/1.1/DTD/svg11.dtd">
<!-- Generated by graphviz version 2.43.0 (0)
 -->
<!-- Title: Eros::TShell::Rgb Pages: 1 -->
<svg width="326pt" height="205pt"
 viewBox="0.00 0.00 326.00 205.00" xmlns="http://www.w3.org/2000/svg" xmlns:xlink="http://www.w3.org/1999/xlink">
<g id="graph0" class="graph" transform="scale(1 1) rotate(0) translate(4 201)">
<title>Eros::TShell::Rgb</title>
<!-- Node1 -->
<g id="Node000001" class="node">
<title>Node1</title>
<g id="a_Node000001"><a xlink:title="This class implements a TShell command to verify the operation of the RGB LED on the display board.">
<polygon fill="#999999" stroke="#666666" points="251.5,-19 153.5,-19 153.5,0 251.5,0 251.5,-19"/>
<text text-anchor="middle" x="202.5" y="-7" font-family="Helvetica,sans-Serif" font-size="10.00">Eros::TShell::Rgb</text>
</a>
</g>
</g>
<!-- Node2 -->
<g id="Node000002" class="node">
<title>Node2</title>
<g id="a_Node000002"><a xlink:href="class_cpl_1_1_t_shell_1_1_cmd_1_1_command.html" target="_top" xlink:title="This partially concrete class implements infrastructure and/or common functionality for a Shell comma...">
<polygon fill="white" stroke="#666666" points="153,-85 0,-85 0,-66 153,-66 153,-85"/>
<text text-anchor="middle" x="76.5" y="-73" font-family="Helvetica,sans-Serif" font-size="10.00">Cpl::TShell::Cmd::Command</text>
</a>
</g>
</g>
<!-- Node2&#45;&gt;Node1 -->
<g id="edge1_Node000001_Node000002" class="edge">
<title>Node2&#45;&gt;Node1</title>
<g id="a_edge1_Node000001_Node000002"><a xlink:title=" ">
<path fill="none" stroke="#63b8ff" d="M102.69,-61.19C127.52,-48.59 164.08,-30.01 185.37,-19.2"/>
<polygon fill="#63b8ff" stroke="#63b8ff" points="100.82,-58.22 93.49,-65.87 103.99,-64.46 100.82,-58.22"/>
</a>
</g>
</g>
<!-- Node3 -->
<g id="Node000003" class="node">
<title>Node3</title>
<g id="a_Node000003"><a xlink:href="class_cpl_1_1_t_shell_1_1_command.html" target="_top" xlink:title="This class defines the interface for a TShell command.">
<polygon fill="white" stroke="#666666" points="139,-141 14,-141 14,-122 139,-122 139,-141"/>
<text text-anchor="middle" x="76.5" y="-129" font-family="Helvetica,sans-Serif" font-size="10.00">Cpl::TShell::Command</text>
</a>
</g>
</g>
<!-- Node3&#45;&gt;Node2 -->
<g id="edge2_Node000002_Node000003" class="edge">
<title>Node3&#45;&gt;Node2</title>
<g id="a_edge2_Node000002_Node000003"><a xlink:title=" ">
<path fill="none" stroke="#63b8ff" d="M76.5,-111.3C76.5,-102.41 76.5,-92.28 76.5,-85.25"/>
<polygon fill="#63b8ff" stroke="#63b8ff" points="73,-111.58 76.5,-121.58 80,-111.58 73,-111.58"/>
</a>
</g>
</g>
<!-- Node4 -->
<g id="Node000004" class="node">
<title>Node4</title>
<g id="a_Node000004"><a xlink:href="class_cpl_1_1_container_1_1_item.html" target="_top" xlink:title="This class is used by the Container classes to implement a various types of singly linked containers.">
<polygon fill="white" stroke="#666666" points="133.5,-197 19.5,-197 19.5,-178 133.5,-178 133.5,-197"/>
<text text-anchor="middle" x="76.5" y="-185" font-family="Helvetica,sans-Serif" font-size="10.00">Cpl::Container::Item</text>
</a>
</g>
</g>
<!-- Node4&#45;&gt;Node3 -->
<g id="edge3_Node000003_Node000004" class="edge">
<title>Node4&#45;&gt;Node3</title>
<g id="a_edge3_Node000003_Node000004"><a xlink:title=" ">
<path fill="none" stroke="#63b8ff" d="M76.5,-167.3C76.5,-158.41 76.5,-148.28 76.5,-141.25"/>
<polygon fill="#63b8ff" stroke="#63b8ff" points="73,-167.58 76.5,-177.58 80,-167.58 73,-167.58"/>
</a>
</g>
</g>
<!-- Node5 -->
<g id="Node000005" class="node">
<title>Node5</title>
<g id="a_Node000005"><a xlink:href="class_driver_1_1_l_e_d_1_1_red_green_blue.html" target="_top" xlink:title="This abstract class defines a basic interface for a single Red&#45;Green&#45;Blue LED where the application c...">
<polygon fill="white" stroke="#666666" points="318,-85 171,-85 171,-66 318,-66 318,-85"/>
<text text-anchor="middle" x="244.5" y="-73" font-family="Helvetica,sans-Serif" font-size="10.00">Driver::LED::RedGreenBlue</text>
</a>
</g>
</g>
<!-- Node5&#45;&gt;Node1 -->
<g id="edge4_Node000001_Node000005" class="edge">
<title>Node5&#45;&gt;Node1</title>
<g id="a_edge4_Node000001_Node000005"><a xlink:title=" ">
<path fill="none" stroke="#9a32cd" stroke-dasharray="5,2" d="M233.28,-57.41C225.26,-45.18 214.77,-29.2 208.34,-19.41"/>
<polygon fill="#9a32cd" stroke="#9a32cd" points="230.42,-59.43 238.84,-65.87 236.28,-55.59 230.42,-59.43"/>
</a>
</g>
<text text-anchor="middle" x="257.5" y="-40" font-family="Helvetica,sans-Serif" font-size="10.00" fill="grey"> m_ledDriver</text>
</g>
</g>
</svg>
