<?xml version="1.0" encoding="UTF-8" standalone="no"?>
<!DOCTYPE svg PUBLIC "-//W3C//DTD SVG 1.1//EN"
 "http://www.w3.org/Graphics/SVG/1.1/DTD/svg11.dtd">
<!-- Generated by graphviz version 9.0.0 (20230911.1827)
 -->
<!-- Title: Cpl::Text::Frame::Decoder_ Pages: 1 -->
<svg width="1018pt" height="146pt"
 viewBox="0.00 0.00 1018.00 145.92" xmlns="http://www.w3.org/2000/svg" xmlns:xlink="http://www.w3.org/1999/xlink">
<g id="graph0" class="graph" transform="scale(1 1) rotate(0) translate(4 141.92)">
<title>Cpl::Text::Frame::Decoder_</title>
<!-- Node1 -->
<g id="Node000001" class="node">
<title>Node1</title>
<g id="a_Node000001"><a xlink:title="This private partially concrete class implements the basic/common logic for a frame decoder.">
<polygon fill="#999999" stroke="#666666" points="294.75,-56.25 163.25,-56.25 163.25,-37 294.75,-37 294.75,-56.25"/>
<text text-anchor="middle" x="229" y="-42.75" font-family="Helvetica,sans-Serif" font-size="10.00">Cpl::Text::Frame::Decoder_</text>
</a>
</g>
</g>
<!-- Node3 -->
<g id="Node000003" class="node">
<title>Node3</title>
<g id="a_Node000003"><a xlink:href="class_cpl_1_1_text_1_1_frame_1_1_stream_decoder.html" target="_top" xlink:title="This partially concrete class defines an interface a Text &quot;Decoder&quot; that has a Cpl::Io::Input stream ...">
<polygon fill="white" stroke="#666666" points="453.5,-98.88 331.75,-98.88 331.75,-68.38 453.5,-68.38 453.5,-98.88"/>
<text text-anchor="start" x="339.75" y="-85.38" font-family="Helvetica,sans-Serif" font-size="10.00">Cpl::Text::Frame::Stream</text>
<text text-anchor="middle" x="392.62" y="-74.12" font-family="Helvetica,sans-Serif" font-size="10.00">Decoder</text>
</a>
</g>
</g>
<!-- Node1&#45;&gt;Node3 -->
<g id="edge2_Node000001_Node000003" class="edge">
<title>Node1&#45;&gt;Node3</title>
<g id="a_edge2_Node000001_Node000003"><a xlink:title=" ">
<path fill="none" stroke="#63b8ff" d="M285.26,-59.27C300.14,-62.68 316.32,-66.39 331.46,-69.85"/>
<polygon fill="#63b8ff" stroke="#63b8ff" points="286.17,-55.89 275.64,-57.07 284.61,-62.72 286.17,-55.89"/>
</a>
</g>
</g>
<!-- Node8 -->
<g id="Node000008" class="node">
<title>Node8</title>
<g id="a_Node000008"><a xlink:href="class_cpl_1_1_text_1_1_frame_1_1_string_decoder.html" target="_top" xlink:title="This concrete class defines an interface a Text &quot;Decoder&quot; that accepts a null terminated string as it...">
<polygon fill="white" stroke="#666666" points="450.5,-49.88 334.75,-49.88 334.75,-19.38 450.5,-19.38 450.5,-49.88"/>
<text text-anchor="start" x="342.75" y="-36.38" font-family="Helvetica,sans-Serif" font-size="10.00">Cpl::Text::Frame::String</text>
<text text-anchor="middle" x="392.62" y="-25.12" font-family="Helvetica,sans-Serif" font-size="10.00">Decoder</text>
</a>
</g>
</g>
<!-- Node1&#45;&gt;Node8 -->
<g id="edge8_Node000001_Node000008" class="edge">
<title>Node1&#45;&gt;Node8</title>
<g id="a_edge8_Node000001_Node000008"><a xlink:title=" ">
<path fill="none" stroke="#63b8ff" d="M306.27,-40.96C315.72,-40.26 325.26,-39.55 334.37,-38.88"/>
<polygon fill="#63b8ff" stroke="#63b8ff" points="306.03,-37.47 296.32,-41.7 306.55,-44.45 306.03,-37.47"/>
</a>
</g>
</g>
<!-- Node2 -->
<g id="Node000002" class="node">
<title>Node2</title>
<g id="a_Node000002"><a xlink:href="class_cpl_1_1_text_1_1_frame_1_1_decoder.html" target="_top" xlink:title="This class defines an interface for &#39;receiving&#39; (decode) a frame.">
<polygon fill="white" stroke="#666666" points="126.25,-56.25 0,-56.25 0,-37 126.25,-37 126.25,-56.25"/>
<text text-anchor="middle" x="63.12" y="-42.75" font-family="Helvetica,sans-Serif" font-size="10.00">Cpl::Text::Frame::Decoder</text>
</a>
</g>
</g>
<!-- Node2&#45;&gt;Node1 -->
<g id="edge1_Node000001_Node000002" class="edge">
<title>Node2&#45;&gt;Node1</title>
<g id="a_edge1_Node000001_Node000002"><a xlink:title=" ">
<path fill="none" stroke="#63b8ff" d="M137.79,-46.62C146.11,-46.62 154.55,-46.62 162.76,-46.62"/>
<polygon fill="#63b8ff" stroke="#63b8ff" points="138.06,-43.13 128.06,-46.63 138.06,-50.13 138.06,-43.13"/>
</a>
</g>
</g>
<!-- Node4 -->
<g id="Node000004" class="node">
<title>Node4</title>
<g id="a_Node000004"><a xlink:href="class_cpl_1_1_text_1_1_frame_1_1_line_decoder.html" target="_top" xlink:title=" ">
<polygon fill="white" stroke="#666666" points="1010,-119.5 812.5,-119.5 812.5,-77.75 1010,-77.75 1010,-119.5"/>
<text text-anchor="start" x="820.5" y="-106" font-family="Helvetica,sans-Serif" font-size="10.00">Cpl::Text::Frame::LineDecoder</text>
<text text-anchor="start" x="820.5" y="-94.75" font-family="Helvetica,sans-Serif" font-size="10.00">&lt; OPTION_CPL_TSHELL_PROCESSOR</text>
<text text-anchor="middle" x="911.25" y="-83.5" font-family="Helvetica,sans-Serif" font-size="10.00">_INPUT_SIZE &gt;</text>
</a>
</g>
</g>
<!-- Node3&#45;&gt;Node4 -->
<g id="edge3_Node000003_Node000004" class="edge">
<title>Node3&#45;&gt;Node4</title>
<g id="a_edge3_Node000003_Node000004"><a xlink:title=" ">
<path fill="none" stroke="#63b8ff" d="M431.73,-104.44C449.11,-112.8 470.28,-121.43 490.5,-125.62 599,-148.13 726.36,-134.47 812.1,-119.61"/>
<polygon fill="#63b8ff" stroke="#63b8ff" points="433.3,-101.32 422.79,-100 430.18,-107.59 433.3,-101.32"/>
</a>
</g>
</g>
<!-- Node5 -->
<g id="Node000005" class="node">
<title>Node5</title>
<g id="a_Node000005"><a xlink:href="class_cpl_1_1_text_1_1_frame_1_1_ascii_decoder.html" target="_top" xlink:title="This concrete template class provide a basic implementation of the Frame::Decoder interface that uses...">
<polygon fill="white" stroke="#666666" points="638.5,-116.88 490.5,-116.88 490.5,-86.38 638.5,-86.38 638.5,-116.88"/>
<text text-anchor="start" x="498.5" y="-103.38" font-family="Helvetica,sans-Serif" font-size="10.00">Cpl::Text::Frame::AsciiDecoder</text>
<text text-anchor="middle" x="564.5" y="-92.12" font-family="Helvetica,sans-Serif" font-size="10.00">&lt; BUFSIZE &gt;</text>
</a>
</g>
</g>
<!-- Node3&#45;&gt;Node5 -->
<g id="edge4_Node000003_Node000005" class="edge">
<title>Node3&#45;&gt;Node5</title>
<g id="a_edge4_Node000003_Node000005"><a xlink:title=" ">
<path fill="none" stroke="#63b8ff" d="M465.44,-91.23C473.64,-92.1 482.01,-92.99 490.23,-93.86"/>
<polygon fill="#63b8ff" stroke="#63b8ff" points="465.81,-87.75 455.5,-90.18 465.08,-94.72 465.81,-87.75"/>
</a>
</g>
</g>
<!-- Node6 -->
<g id="Node000006" class="node">
<title>Node6</title>
<g id="a_Node000006"><a xlink:href="class_cpl_1_1_text_1_1_frame_1_1_line_decoder.html" target="_top" xlink:title="This concrete template class provide a basic implementation of the Frame::Decoder interface that uses...">
<polygon fill="white" stroke="#666666" points="637,-67.88 492,-67.88 492,-37.38 637,-37.38 637,-67.88"/>
<text text-anchor="start" x="500" y="-54.38" font-family="Helvetica,sans-Serif" font-size="10.00">Cpl::Text::Frame::LineDecoder</text>
<text text-anchor="middle" x="564.5" y="-43.12" font-family="Helvetica,sans-Serif" font-size="10.00">&lt; BUFSIZE &gt;</text>
</a>
</g>
</g>
<!-- Node3&#45;&gt;Node6 -->
<g id="edge5_Node000003_Node000006" class="edge">
<title>Node3&#45;&gt;Node6</title>
<g id="a_edge5_Node000003_Node000006"><a xlink:title=" ">
<path fill="none" stroke="#63b8ff" d="M465.03,-70.59C473.85,-68.98 482.88,-67.34 491.7,-65.73"/>
<polygon fill="#63b8ff" stroke="#63b8ff" points="464.69,-67.1 455.48,-72.34 465.95,-73.98 464.69,-67.1"/>
</a>
</g>
</g>
<!-- Node7 -->
<g id="Node000007" class="node">
<title>Node7</title>
<g id="a_Node000007"><a xlink:href="class_driver_1_1_t_pipe_1_1_maker.html" target="_top" xlink:title="This concrete class is a &quot;Maker&quot; that assembles the objects needed for TPipe.">
<polygon fill="white" stroke="#666666" points="616,-19.25 513,-19.25 513,0 616,0 616,-19.25"/>
<text text-anchor="middle" x="564.5" y="-5.75" font-family="Helvetica,sans-Serif" font-size="10.00">Driver::TPipe::Maker</text>
</a>
</g>
</g>
<!-- Node3&#45;&gt;Node7 -->
<g id="edge7_Node000003_Node000007" class="edge">
<title>Node3&#45;&gt;Node7</title>
<g id="a_edge7_Node000003_Node000007"><a xlink:title=" ">
<path fill="none" stroke="#63b8ff" d="M445.88,-62.88C448.49,-61.51 451.05,-60.09 453.5,-58.62 471.68,-47.77 471.61,-38.17 490.5,-28.62 497.63,-25.02 505.51,-22.06 513.37,-19.63"/>
<polygon fill="#63b8ff" stroke="#63b8ff" points="444.41,-59.7 436.97,-67.24 447.49,-65.99 444.41,-59.7"/>
</a>
</g>
</g>
<!-- Node6&#45;&gt;Node4 -->
<g id="edge6_Node000006_Node000004" class="edge">
<title>Node6&#45;&gt;Node4</title>
<g id="a_edge6_Node000006_Node000004"><a xlink:title=" ">
<path fill="none" stroke="orange" stroke-dasharray="5,2" d="M648.59,-63.71C697.79,-70.28 760.38,-78.63 812.01,-85.52"/>
<polygon fill="orange" stroke="orange" points="649.23,-60.27 638.85,-62.41 648.3,-67.2 649.23,-60.27"/>
</a>
</g>
<text text-anchor="start" x="656.5" y="-94.62" font-family="Helvetica,sans-Serif" font-size="10.00" fill="grey"> &lt; OPTION_CPL_TSHELL</text>
<text text-anchor="middle" x="725.5" y="-83.38" font-family="Helvetica,sans-Serif" font-size="10.00" fill="grey">_PROCESSOR_INPUT_SIZE &gt;</text>
</g>
</g>
</svg>
