<?xml version="1.0" encoding="UTF-8" standalone="no"?>
<!DOCTYPE svg PUBLIC "-//W3C//DTD SVG 1.1//EN"
 "http://www.w3.org/Graphics/SVG/1.1/DTD/svg11.dtd">
<!-- Generated by graphviz version 9.0.0 (20230911.1827)
 -->
<!-- Title: Cpl::Io::File::Littlefs::TShell::Fs Pages: 1 -->
<svg width="148pt" height="370pt"
 viewBox="0.00 0.00 147.75 370.00" xmlns="http://www.w3.org/2000/svg" xmlns:xlink="http://www.w3.org/1999/xlink">
<g id="graph0" class="graph" transform="scale(1 1) rotate(0) translate(4 366)">
<title>Cpl::Io::File::Littlefs::TShell::Fs</title>
<!-- Node1 -->
<g id="Node000001" class="node">
<title>Node1</title>
<g id="a_Node000001"><a xlink:title="This class implements a TShell command for various file system commands for a system that is using a ...">
<polygon fill="#999999" stroke="#666666" points="118.75,-30.5 21,-30.5 21,0 118.75,0 118.75,-30.5"/>
<text text-anchor="start" x="29" y="-17" font-family="Helvetica,sans-Serif" font-size="10.00">Cpl::Io::File::Littlefs</text>
<text text-anchor="middle" x="69.88" y="-5.75" font-family="Helvetica,sans-Serif" font-size="10.00">::TShell::Fs</text>
</a>
</g>
</g>
<!-- Node2 -->
<g id="Node000002" class="node">
<title>Node2</title>
<g id="a_Node000002"><a xlink:href="class_cpl_1_1_t_shell_1_1_cmd_1_1_command.html" target="_top" xlink:title="This partially concrete class implements infrastructure and/or common functionality for a Shell comma...">
<polygon fill="white" stroke="#666666" points="137.88,-85.75 1.88,-85.75 1.88,-66.5 137.88,-66.5 137.88,-85.75"/>
<text text-anchor="middle" x="69.88" y="-72.25" font-family="Helvetica,sans-Serif" font-size="10.00">Cpl::TShell::Cmd::Command</text>
</a>
</g>
</g>
<!-- Node2&#45;&gt;Node1 -->
<g id="edge1_Node000001_Node000002" class="edge">
<title>Node2&#45;&gt;Node1</title>
<g id="a_edge1_Node000001_Node000002"><a xlink:title=" ">
<path fill="none" stroke="#63b8ff" d="M69.88,-54.92C69.88,-46.99 69.88,-38.06 69.88,-30.78"/>
<polygon fill="#63b8ff" stroke="#63b8ff" points="66.38,-54.67 69.88,-64.67 73.38,-54.67 66.38,-54.67"/>
</a>
</g>
</g>
<!-- Node3 -->
<g id="Node000003" class="node">
<title>Node3</title>
<g id="a_Node000003"><a xlink:href="class_cpl_1_1_t_shell_1_1_command.html" target="_top" xlink:title="This class defines the interface for a TShell command.">
<polygon fill="white" stroke="#666666" points="125.5,-141 14.25,-141 14.25,-121.75 125.5,-121.75 125.5,-141"/>
<text text-anchor="middle" x="69.88" y="-127.5" font-family="Helvetica,sans-Serif" font-size="10.00">Cpl::TShell::Command</text>
</a>
</g>
</g>
<!-- Node3&#45;&gt;Node2 -->
<g id="edge2_Node000002_Node000003" class="edge">
<title>Node3&#45;&gt;Node2</title>
<g id="a_edge2_Node000002_Node000003"><a xlink:title=" ">
<path fill="none" stroke="#63b8ff" d="M69.88,-110.13C69.88,-101.84 69.88,-92.67 69.88,-86.11"/>
<polygon fill="#63b8ff" stroke="#63b8ff" points="66.38,-110.07 69.88,-120.07 73.38,-110.07 66.38,-110.07"/>
</a>
</g>
</g>
<!-- Node4 -->
<g id="Node000004" class="node">
<title>Node4</title>
<g id="a_Node000004"><a xlink:href="class_cpl_1_1_container_1_1_map_item.html" target="_top" xlink:title="This abstract class represents a item that can be contained in an Map (aka a sorted list implemented ...">
<polygon fill="white" stroke="#666666" points="129.25,-196.25 10.5,-196.25 10.5,-177 129.25,-177 129.25,-196.25"/>
<text text-anchor="middle" x="69.88" y="-182.75" font-family="Helvetica,sans-Serif" font-size="10.00">Cpl::Container::MapItem</text>
</a>
</g>
</g>
<!-- Node4&#45;&gt;Node3 -->
<g id="edge3_Node000003_Node000004" class="edge">
<title>Node4&#45;&gt;Node3</title>
<g id="a_edge3_Node000003_Node000004"><a xlink:title=" ">
<path fill="none" stroke="#63b8ff" d="M69.88,-165.38C69.88,-157.09 69.88,-147.92 69.88,-141.36"/>
<polygon fill="#63b8ff" stroke="#63b8ff" points="66.38,-165.32 69.88,-175.32 73.38,-165.32 66.38,-165.32"/>
</a>
</g>
</g>
<!-- Node5 -->
<g id="Node000005" class="node">
<title>Node5</title>
<g id="a_Node000005"><a xlink:href="class_cpl_1_1_container_1_1_dict_item.html" target="_top" xlink:title="This abstract class represents a item that can be contained in Dictionary.">
<polygon fill="white" stroke="#666666" points="128.5,-251.5 11.25,-251.5 11.25,-232.25 128.5,-232.25 128.5,-251.5"/>
<text text-anchor="middle" x="69.88" y="-238" font-family="Helvetica,sans-Serif" font-size="10.00">Cpl::Container::DictItem</text>
</a>
</g>
</g>
<!-- Node5&#45;&gt;Node4 -->
<g id="edge4_Node000004_Node000005" class="edge">
<title>Node5&#45;&gt;Node4</title>
<g id="a_edge4_Node000004_Node000005"><a xlink:title=" ">
<path fill="none" stroke="#63b8ff" d="M69.88,-220.63C69.88,-212.34 69.88,-203.17 69.88,-196.61"/>
<polygon fill="#63b8ff" stroke="#63b8ff" points="66.38,-220.57 69.88,-230.57 73.38,-220.57 66.38,-220.57"/>
</a>
</g>
</g>
<!-- Node6 -->
<g id="Node000006" class="node">
<title>Node6</title>
<g id="a_Node000006"><a xlink:href="class_cpl_1_1_container_1_1_extended_item.html" target="_top" xlink:title="This class is used by the Container classes to implement a various types of DOUBLY linked containers.">
<polygon fill="white" stroke="#666666" points="139.75,-306.75 0,-306.75 0,-287.5 139.75,-287.5 139.75,-306.75"/>
<text text-anchor="middle" x="69.88" y="-293.25" font-family="Helvetica,sans-Serif" font-size="10.00">Cpl::Container::ExtendedItem</text>
</a>
</g>
</g>
<!-- Node6&#45;&gt;Node5 -->
<g id="edge5_Node000005_Node000006" class="edge">
<title>Node6&#45;&gt;Node5</title>
<g id="a_edge5_Node000005_Node000006"><a xlink:title=" ">
<path fill="none" stroke="#63b8ff" d="M69.88,-275.88C69.88,-267.59 69.88,-258.42 69.88,-251.86"/>
<polygon fill="#63b8ff" stroke="#63b8ff" points="66.38,-275.82 69.88,-285.82 73.38,-275.82 66.38,-275.82"/>
</a>
</g>
</g>
<!-- Node7 -->
<g id="Node000007" class="node">
<title>Node7</title>
<g id="a_Node000007"><a xlink:href="class_cpl_1_1_container_1_1_item.html" target="_top" xlink:title="This class is used by the Container classes to implement a various types of singly linked containers.">
<polygon fill="white" stroke="#666666" points="119.88,-362 19.88,-362 19.88,-342.75 119.88,-342.75 119.88,-362"/>
<text text-anchor="middle" x="69.88" y="-348.5" font-family="Helvetica,sans-Serif" font-size="10.00">Cpl::Container::Item</text>
</a>
</g>
</g>
<!-- Node7&#45;&gt;Node6 -->
<g id="edge6_Node000006_Node000007" class="edge">
<title>Node7&#45;&gt;Node6</title>
<g id="a_edge6_Node000006_Node000007"><a xlink:title=" ">
<path fill="none" stroke="#63b8ff" d="M69.88,-331.13C69.88,-322.84 69.88,-313.67 69.88,-307.11"/>
<polygon fill="#63b8ff" stroke="#63b8ff" points="66.38,-331.07 69.88,-341.07 73.38,-331.07 66.38,-331.07"/>
</a>
</g>
</g>
</g>
</svg>
