<?xml version="1.0" encoding="UTF-8" standalone="no"?>
<!DOCTYPE svg PUBLIC "-//W3C//DTD SVG 1.1//EN"
 "http://www.w3.org/Graphics/SVG/1.1/DTD/svg11.dtd">
<!-- Generated by graphviz version 9.0.0 (20230911.1827)
 -->
<!-- Title: Cpl::Persistent::GetNextRequest Pages: 1 -->
<svg width="575pt" height="66pt"
 viewBox="0.00 0.00 575.25 66.12" xmlns="http://www.w3.org/2000/svg" xmlns:xlink="http://www.w3.org/1999/xlink">
<g id="graph0" class="graph" transform="scale(1 1) rotate(0) translate(4 62.12)">
<title>Cpl::Persistent::GetNextRequest</title>
<!-- Node1 -->
<g id="Node000001" class="node">
<title>Node1</title>
<g id="a_Node000001"><a xlink:title="This abstract class define ITC message type and payload for the application to request read Indexed E...">
<polygon fill="#999999" stroke="#666666" points="119.5,-51.5 0,-51.5 0,-21 119.5,-21 119.5,-51.5"/>
<text text-anchor="start" x="8" y="-38" font-family="Helvetica,sans-Serif" font-size="10.00">Cpl::Persistent::GetNext</text>
<text text-anchor="middle" x="59.75" y="-26.75" font-family="Helvetica,sans-Serif" font-size="10.00">Request</text>
</a>
</g>
</g>
<!-- Node2 -->
<g id="Node000002" class="node">
<title>Node2</title>
<g id="a_Node000002"><a xlink:href="class_cpl_1_1_persistent_1_1_indexed_entry_server.html" target="_top" xlink:title=" ">
<polygon fill="white" stroke="#666666" points="567.25,-58.12 439.5,-58.12 439.5,-16.38 567.25,-16.38 567.25,-58.12"/>
<text text-anchor="start" x="447.5" y="-44.62" font-family="Helvetica,sans-Serif" font-size="10.00">Cpl::Persistent::Indexed</text>
<text text-anchor="start" x="447.5" y="-33.38" font-family="Helvetica,sans-Serif" font-size="10.00">EntryServer&lt; Cpl::Logging</text>
<text text-anchor="middle" x="503.38" y="-22.12" font-family="Helvetica,sans-Serif" font-size="10.00">::EntryData_T &gt;</text>
</a>
</g>
</g>
<!-- Node1&#45;&gt;Node2 -->
<g id="edge1_Node000001_Node000002" class="edge">
<title>Node1&#45;&gt;Node2</title>
<g id="a_edge1_Node000001_Node000002"><a xlink:title=" ">
<path fill="none" stroke="#63b8ff" d="M131.11,-40.53C203.84,-44.31 320.65,-48.61 421.5,-44.25 427.27,-44 433.27,-43.65 439.27,-43.24"/>
<polygon fill="#63b8ff" stroke="#63b8ff" points="131.51,-37.04 121.34,-40.01 131.14,-44.03 131.51,-37.04"/>
</a>
</g>
</g>
<!-- Node3 -->
<g id="Node000003" class="node">
<title>Node3</title>
<g id="a_Node000003"><a xlink:href="class_cpl_1_1_persistent_1_1_indexed_entry_server.html" target="_top" xlink:title="This concrete template class implements the ITC messaging (and Model Point monitoring) needed to prov...">
<polygon fill="white" stroke="#666666" points="273.75,-30.5 156.5,-30.5 156.5,0 273.75,0 273.75,-30.5"/>
<text text-anchor="start" x="164.5" y="-17" font-family="Helvetica,sans-Serif" font-size="10.00">Cpl::Persistent::Indexed</text>
<text text-anchor="middle" x="215.12" y="-5.75" font-family="Helvetica,sans-Serif" font-size="10.00">EntryServer&lt; ENTRY &gt;</text>
</a>
</g>
</g>
<!-- Node1&#45;&gt;Node3 -->
<g id="edge2_Node000001_Node000003" class="edge">
<title>Node1&#45;&gt;Node3</title>
<g id="a_edge2_Node000001_Node000003"><a xlink:title=" ">
<path fill="none" stroke="#63b8ff" d="M131,-26.63C139.43,-25.48 147.96,-24.31 156.18,-23.18"/>
<polygon fill="#63b8ff" stroke="#63b8ff" points="130.54,-23.16 121.11,-27.99 131.49,-30.1 130.54,-23.16"/>
</a>
</g>
</g>
<!-- Node3&#45;&gt;Node2 -->
<g id="edge3_Node000003_Node000002" class="edge">
<title>Node3&#45;&gt;Node2</title>
<g id="a_edge3_Node000003_Node000002"><a xlink:title=" ">
<path fill="none" stroke="orange" stroke-dasharray="5,2" d="M285.32,-20.57C332.15,-24.17 393.53,-28.88 439.06,-32.38"/>
<polygon fill="orange" stroke="orange" points="285.8,-17.09 275.56,-19.82 285.26,-24.07 285.8,-17.09"/>
</a>
</g>
<text text-anchor="middle" x="356.62" y="-32" font-family="Helvetica,sans-Serif" font-size="10.00" fill="grey"> &lt; Cpl::Logging::EntryData_T &gt;</text>
</g>
</g>
</svg>
