<?xml version="1.0" encoding="UTF-8" standalone="no"?>
<!DOCTYPE svg PUBLIC "-//W3C//DTD SVG 1.1//EN"
 "http://www.w3.org/Graphics/SVG/1.1/DTD/svg11.dtd">
<!-- Generated by graphviz version 9.0.0 (20230911.1827)
 -->
<!-- Title: Cpl::Dm::SubscriberComposer&lt; CONTEXT, MP &gt; Pages: 1 -->
<svg width="1867pt" height="378pt"
 viewBox="0.00 0.00 1866.75 377.88" xmlns="http://www.w3.org/2000/svg" xmlns:xlink="http://www.w3.org/1999/xlink">
<g id="graph0" class="graph" transform="scale(1 1) rotate(0) translate(4 373.88)">
<title>Cpl::Dm::SubscriberComposer&lt; CONTEXT, MP &gt;</title>
<!-- Node1 -->
<g id="Node000001" class="node">
<title>Node1</title>
<g id="a_Node000001"><a xlink:title="This template class is a composer pattern/class that manages the callback function for a Model Point&#39;...">
<polygon fill="#999999" stroke="#666666" points="1858.75,-65.88 1713.75,-65.88 1713.75,-35.38 1858.75,-35.38 1858.75,-65.88"/>
<text text-anchor="start" x="1721.75" y="-52.38" font-family="Helvetica,sans-Serif" font-size="10.00">Cpl::Dm::SubscriberComposer</text>
<text text-anchor="middle" x="1786.25" y="-41.12" font-family="Helvetica,sans-Serif" font-size="10.00">&lt; CONTEXT, MP &gt;</text>
</a>
</g>
</g>
<!-- Node2 -->
<g id="Node000002" class="node">
<title>Node2</title>
<g id="a_Node000002"><a xlink:href="class_cpl_1_1_dm_1_1_subscriber.html" target="_top" xlink:title="This template class defines a type safe Subscriber.">
<polygon fill="white" stroke="#666666" points="1676.75,-44.88 1576,-44.88 1576,-14.37 1676.75,-14.37 1676.75,-44.88"/>
<text text-anchor="start" x="1584" y="-31.38" font-family="Helvetica,sans-Serif" font-size="10.00">Cpl::Dm::Subscriber</text>
<text text-anchor="middle" x="1626.38" y="-20.12" font-family="Helvetica,sans-Serif" font-size="10.00">&lt; MP &gt;</text>
</a>
</g>
</g>
<!-- Node2&#45;&gt;Node1 -->
<g id="edge1_Node000001_Node000002" class="edge">
<title>Node2&#45;&gt;Node1</title>
<g id="a_edge1_Node000001_Node000002"><a xlink:title=" ">
<path fill="none" stroke="#63b8ff" d="M1688.28,-37.73C1696.49,-38.82 1704.98,-39.95 1713.36,-41.06"/>
<polygon fill="#63b8ff" stroke="#63b8ff" points="1688.77,-34.26 1678.39,-36.41 1687.85,-41.2 1688.77,-34.26"/>
</a>
</g>
</g>
<!-- Node3 -->
<g id="Node000003" class="node">
<title>Node3</title>
<g id="a_Node000003"><a xlink:href="class_cpl_1_1_dm_1_1_subscriber_base.html" target="_top" xlink:title="This mostly concrete class defines the Subscriber interface &#45; for change notifications &#45; to a Model P...">
<polygon fill="white" stroke="#666666" points="1465.75,-42.25 1342.5,-42.25 1342.5,-23 1465.75,-23 1465.75,-42.25"/>
<text text-anchor="middle" x="1404.12" y="-28.75" font-family="Helvetica,sans-Serif" font-size="10.00">Cpl::Dm::SubscriberBase</text>
</a>
</g>
</g>
<!-- Node3&#45;&gt;Node2 -->
<g id="edge2_Node000002_Node000003" class="edge">
<title>Node3&#45;&gt;Node2</title>
<g id="a_edge2_Node000002_Node000003"><a xlink:title=" ">
<path fill="none" stroke="#63b8ff" d="M1477.35,-31.64C1509.55,-31.2 1546.68,-30.7 1575.7,-30.3"/>
<polygon fill="#63b8ff" stroke="#63b8ff" points="1477.65,-28.14 1467.7,-31.77 1477.74,-35.14 1477.65,-28.14"/>
</a>
</g>
</g>
<!-- Node4 -->
<g id="Node000004" class="node">
<title>Node4</title>
<g id="a_Node000004"><a xlink:href="class_cpl_1_1_dm_1_1_subscriber_api.html" target="_top" xlink:title="This abstract class defines the Subscriber interface &#45; for change notifications &#45; to a Model Points d...">
<polygon fill="white" stroke="#666666" points="1230,-57.25 1115,-57.25 1115,-38 1230,-38 1230,-57.25"/>
<text text-anchor="middle" x="1172.5" y="-43.75" font-family="Helvetica,sans-Serif" font-size="10.00">Cpl::Dm::SubscriberApi</text>
</a>
</g>
</g>
<!-- Node4&#45;&gt;Node1 -->
<g id="edge26_Node000001_Node000004" class="edge">
<title>Node4&#45;&gt;Node1</title>
<g id="a_edge26_Node000001_Node000004"><a xlink:title=" ">
<path fill="none" stroke="#9a32cd" stroke-dasharray="5,2" d="M1241.76,-54.29C1243.87,-54.42 1245.95,-54.53 1248,-54.62 1281.96,-56.22 1290.5,-54.67 1324.5,-54.62 1489.5,-54.4 1530.78,-56.61 1695.75,-53.62 1701.5,-53.52 1707.46,-53.38 1713.45,-53.23"/>
<polygon fill="#9a32cd" stroke="#9a32cd" points="1242.13,-50.81 1231.92,-53.63 1241.66,-57.8 1242.13,-50.81"/>
</a>
</g>
<text text-anchor="middle" x="1520.88" y="-57.38" font-family="Helvetica,sans-Serif" font-size="10.00" fill="grey"> m_notificationCb</text>
</g>
<!-- Node4&#45;&gt;Node3 -->
<g id="edge3_Node000003_Node000004" class="edge">
<title>Node4&#45;&gt;Node3</title>
<g id="a_edge3_Node000003_Node000004"><a xlink:title=" ">
<path fill="none" stroke="#63b8ff" d="M1241.72,-43.17C1273.61,-41.09 1311.27,-38.63 1342.19,-36.61"/>
<polygon fill="#63b8ff" stroke="#63b8ff" points="1241.52,-39.67 1231.77,-43.82 1241.98,-46.66 1241.52,-39.67"/>
</a>
</g>
</g>
<!-- Node5 -->
<g id="Node000005" class="node">
<title>Node5</title>
<g id="a_Node000005"><a xlink:href="class_cpl_1_1_container_1_1_extended_item.html" target="_top" xlink:title="This class is used by the Container classes to implement a various types of DOUBLY linked containers.">
<polygon fill="white" stroke="#666666" points="614.25,-57.25 474.5,-57.25 474.5,-38 614.25,-38 614.25,-57.25"/>
<text text-anchor="middle" x="544.38" y="-43.75" font-family="Helvetica,sans-Serif" font-size="10.00">Cpl::Container::ExtendedItem</text>
</a>
</g>
</g>
<!-- Node5&#45;&gt;Node4 -->
<g id="edge4_Node000004_Node000005" class="edge">
<title>Node5&#45;&gt;Node4</title>
<g id="a_edge4_Node000004_Node000005"><a xlink:title=" ">
<path fill="none" stroke="#63b8ff" d="M625.77,-47.62C754.27,-47.62 1002.81,-47.62 1114.59,-47.62"/>
<polygon fill="#63b8ff" stroke="#63b8ff" points="625.99,-44.13 615.99,-47.63 625.99,-51.13 625.99,-44.13"/>
</a>
</g>
</g>
<!-- Node6 -->
<g id="Node000006" class="node">
<title>Node6</title>
<g id="a_Node000006"><a xlink:href="class_cpl_1_1_container_1_1_item.html" target="_top" xlink:title="This class is used by the Container classes to implement a various types of singly linked containers.">
<polygon fill="white" stroke="#666666" points="101.88,-57.25 1.88,-57.25 1.88,-38 101.88,-38 101.88,-57.25"/>
<text text-anchor="middle" x="51.88" y="-43.75" font-family="Helvetica,sans-Serif" font-size="10.00">Cpl::Container::Item</text>
</a>
</g>
</g>
<!-- Node6&#45;&gt;Node5 -->
<g id="edge5_Node000005_Node000006" class="edge">
<title>Node6&#45;&gt;Node5</title>
<g id="a_edge5_Node000005_Node000006"><a xlink:title=" ">
<path fill="none" stroke="#63b8ff" d="M113.43,-47.62C204.91,-47.62 377.86,-47.62 474.18,-47.62"/>
<polygon fill="#63b8ff" stroke="#63b8ff" points="113.67,-44.13 103.67,-47.63 113.67,-51.13 113.67,-44.13"/>
</a>
</g>
</g>
<!-- Node7 -->
<g id="Node000007" class="node">
<title>Node7</title>
<g id="a_Node000007"><a xlink:href="class_cpl_1_1_dm_1_1_model_point.html" target="_top" xlink:title="This mostly abstract class defines the interface for a Model Point.">
<polygon fill="white" stroke="#666666" points="894.75,-19.25 791.75,-19.25 791.75,0 894.75,0 894.75,-19.25"/>
<text text-anchor="middle" x="843.25" y="-5.75" font-family="Helvetica,sans-Serif" font-size="10.00">Cpl::Dm::ModelPoint</text>
</a>
</g>
</g>
<!-- Node6&#45;&gt;Node7 -->
<g id="edge7_Node000007_Node000006" class="edge">
<title>Node6&#45;&gt;Node7</title>
<g id="a_edge7_Node000007_Node000006"><a xlink:title=" ">
<path fill="none" stroke="#63b8ff" d="M113.58,-44.06C116.34,-43.91 119.08,-43.77 121.75,-43.62 373.11,-30.4 673.92,-16.98 791.58,-11.83"/>
<polygon fill="#63b8ff" stroke="#63b8ff" points="113.46,-40.56 103.67,-44.61 113.85,-47.55 113.46,-40.56"/>
</a>
</g>
</g>
<!-- Node12 -->
<g id="Node000012" class="node">
<title>Node12</title>
<g id="a_Node000012"><a xlink:href="class_cpl_1_1_system_1_1_signable.html" target="_top" xlink:title="This abstract class defines the interface by which a client can cause an object that is waiting&#45;on&#45;a&#45;...">
<polygon fill="white" stroke="#666666" points="428.75,-165.25 319,-165.25 319,-146 428.75,-146 428.75,-165.25"/>
<text text-anchor="middle" x="373.88" y="-151.75" font-family="Helvetica,sans-Serif" font-size="10.00">Cpl::System::Signable</text>
</a>
</g>
</g>
<!-- Node6&#45;&gt;Node12 -->
<g id="edge13_Node000012_Node000006" class="edge">
<title>Node6&#45;&gt;Node12</title>
<g id="a_edge13_Node000012_Node000006"><a xlink:title=" ">
<path fill="none" stroke="#63b8ff" d="M93.37,-61.29C158.57,-83.3 285.34,-126.08 343.02,-145.55"/>
<polygon fill="#63b8ff" stroke="#63b8ff" points="94.72,-58.05 84.13,-58.17 92.48,-64.69 94.72,-58.05"/>
</a>
</g>
</g>
<!-- Node7&#45;&gt;Node3 -->
<g id="edge6_Node000003_Node000007" class="edge">
<title>Node7&#45;&gt;Node3</title>
<g id="a_edge6_Node000003_Node000007"><a xlink:title=" ">
<path fill="none" stroke="#9a32cd" stroke-dasharray="5,2" d="M906.16,-12.17C1014,-16.61 1235.02,-25.71 1342.18,-30.12"/>
<polygon fill="#9a32cd" stroke="#9a32cd" points="906.48,-8.68 896.34,-11.77 906.19,-15.68 906.48,-8.68"/>
</a>
</g>
<text text-anchor="middle" x="1078.62" y="-22.38" font-family="Helvetica,sans-Serif" font-size="10.00" fill="grey"> m_point</text>
</g>
<!-- Node8 -->
<g id="Node000008" class="node">
<title>Node8</title>
<g id="a_Node000008"><a xlink:href="class_cpl_1_1_dm_1_1_event_loop.html" target="_top" xlink:title="This class extends the Cpl::System::EventLoop class to support the asynchronous change notification g...">
<polygon fill="white" stroke="#666666" points="1222.88,-242.25 1122.12,-242.25 1122.12,-223 1222.88,-223 1222.88,-242.25"/>
<text text-anchor="middle" x="1172.5" y="-228.75" font-family="Helvetica,sans-Serif" font-size="10.00">Cpl::Dm::EventLoop</text>
</a>
</g>
</g>
<!-- Node8&#45;&gt;Node3 -->
<g id="edge8_Node000003_Node000008" class="edge">
<title>Node8&#45;&gt;Node3</title>
<g id="a_edge8_Node000003_Node000008"><a xlink:title=" ">
<path fill="none" stroke="#9a32cd" stroke-dasharray="5,2" d="M1193.51,-215.19C1240.17,-174.55 1355,-74.54 1391.67,-42.6"/>
<polygon fill="#9a32cd" stroke="#9a32cd" points="1191.27,-212.51 1186.03,-221.71 1195.87,-217.78 1191.27,-212.51"/>
</a>
</g>
<text text-anchor="middle" x="1286.25" y="-164.38" font-family="Helvetica,sans-Serif" font-size="10.00" fill="grey"> m_eventLoopHdl</text>
</g>
<!-- Node9 -->
<g id="Node000009" class="node">
<title>Node9</title>
<g id="a_Node000009"><a xlink:href="class_cpl_1_1_system_1_1_event_loop.html" target="_top" xlink:title="This concrete class is a Runnable object that provides a event driven execution model for a thread.">
<polygon fill="white" stroke="#666666" points="1040.38,-218.25 921.62,-218.25 921.62,-199 1040.38,-199 1040.38,-218.25"/>
<text text-anchor="middle" x="981" y="-204.75" font-family="Helvetica,sans-Serif" font-size="10.00">Cpl::System::EventLoop</text>
</a>
</g>
</g>
<!-- Node9&#45;&gt;Node8 -->
<g id="edge9_Node000008_Node000009" class="edge">
<title>Node9&#45;&gt;Node8</title>
<g id="a_edge9_Node000008_Node000009"><a xlink:title=" ">
<path fill="none" stroke="#63b8ff" d="M1051.85,-217.47C1075.04,-220.41 1100.37,-223.62 1121.73,-226.32"/>
<polygon fill="#63b8ff" stroke="#63b8ff" points="1052.52,-214.03 1042.16,-216.24 1051.64,-220.97 1052.52,-214.03"/>
</a>
</g>
</g>
<!-- Node10 -->
<g id="Node000010" class="node">
<title>Node10</title>
<g id="a_Node000010"><a xlink:href="class_cpl_1_1_system_1_1_runnable.html" target="_top" xlink:title="This is an abstract class defines the interface for an object that is &quot;executed&quot; when a Thread object...">
<polygon fill="white" stroke="#666666" points="755.88,-293.25 643.12,-293.25 643.12,-274 755.88,-274 755.88,-293.25"/>
<text text-anchor="middle" x="699.5" y="-279.75" font-family="Helvetica,sans-Serif" font-size="10.00">Cpl::System::Runnable</text>
</a>
</g>
</g>
<!-- Node10&#45;&gt;Node9 -->
<g id="edge10_Node000009_Node000010" class="edge">
<title>Node10&#45;&gt;Node9</title>
<g id="a_edge10_Node000009_Node000010"><a xlink:title=" ">
<path fill="none" stroke="#63b8ff" d="M767.61,-279.67C808.28,-275.05 860.17,-265.09 901.75,-243.62 911.53,-238.58 910.22,-232.13 919.75,-226.62 925.14,-223.51 931.12,-220.9 937.15,-218.71"/>
<polygon fill="#63b8ff" stroke="#63b8ff" points="767.27,-276.19 757.69,-280.71 768,-283.15 767.27,-276.19"/>
</a>
</g>
</g>
<!-- Node11 -->
<g id="Node000011" class="node">
<title>Node11</title>
<g id="a_Node000011"><a xlink:href="class_cpl_1_1_system_1_1_event_flag.html" target="_top" xlink:title="This abstract class defines the interface to generated a &#39;Event Flag&#39;.">
<polygon fill="white" stroke="#666666" points="757.38,-330.25 641.62,-330.25 641.62,-311 757.38,-311 757.38,-330.25"/>
<text text-anchor="middle" x="699.5" y="-316.75" font-family="Helvetica,sans-Serif" font-size="10.00">Cpl::System::EventFlag</text>
</a>
</g>
</g>
<!-- Node11&#45;&gt;Node9 -->
<g id="edge11_Node000009_Node000011" class="edge">
<title>Node11&#45;&gt;Node9</title>
<g id="a_edge11_Node000009_Node000011"><a xlink:title=" ">
<path fill="none" stroke="#63b8ff" d="M769.18,-320.32C811.92,-316.66 865.46,-305.27 901.75,-273.62 918.61,-258.92 903.35,-241.83 919.75,-226.62 923.19,-223.43 927.18,-220.81 931.43,-218.64"/>
<polygon fill="#63b8ff" stroke="#63b8ff" points="768.95,-316.83 759.23,-321.04 769.45,-323.81 768.95,-316.83"/>
</a>
</g>
</g>
<!-- Node12&#45;&gt;Node9 -->
<g id="edge12_Node000009_Node000012" class="edge">
<title>Node12&#45;&gt;Node9</title>
<g id="a_edge12_Node000009_Node000012"><a xlink:title=" ">
<path fill="none" stroke="#63b8ff" d="M425.44,-168.24C441.08,-171.75 458.43,-175.25 474.5,-177.62 634.98,-201.33 826.71,-206.97 921.29,-208.27"/>
<polygon fill="#63b8ff" stroke="#63b8ff" points="426.39,-164.87 415.86,-166.04 424.82,-171.69 426.39,-164.87"/>
</a>
</g>
</g>
<!-- Node17 -->
<g id="Node000017" class="node">
<title>Node17</title>
<g id="a_Node000017"><a xlink:href="class_cpl_1_1_system_1_1_thread.html" target="_top" xlink:title="This abstract class defines the operations that can be performed on a thread.">
<polygon fill="white" stroke="#666666" points="750.62,-180.25 648.38,-180.25 648.38,-161 750.62,-161 750.62,-180.25"/>
<text text-anchor="middle" x="699.5" y="-166.75" font-family="Helvetica,sans-Serif" font-size="10.00">Cpl::System::Thread</text>
</a>
</g>
</g>
<!-- Node12&#45;&gt;Node17 -->
<g id="edge19_Node000017_Node000012" class="edge">
<title>Node12&#45;&gt;Node17</title>
<g id="a_edge19_Node000017_Node000012"><a xlink:title=" ">
<path fill="none" stroke="#63b8ff" d="M440.52,-158.67C501.81,-161.51 591.99,-165.69 647.89,-168.28"/>
<polygon fill="#63b8ff" stroke="#63b8ff" points="440.71,-155.17 430.55,-158.21 440.38,-162.17 440.71,-155.17"/>
</a>
</g>
</g>
<!-- Node19 -->
<g id="Node000019" class="node">
<title>Node19</title>
<g id="a_Node000019"><a xlink:href="class_cpl_1_1_system_1_1_semaphore.html" target="_top" xlink:title="This semaphore class defines the interface for a Counting Semaphore.">
<polygon fill="white" stroke="#666666" points="760.38,-143.25 638.62,-143.25 638.62,-124 760.38,-124 760.38,-143.25"/>
<text text-anchor="middle" x="699.5" y="-129.75" font-family="Helvetica,sans-Serif" font-size="10.00">Cpl::System::Semaphore</text>
</a>
</g>
</g>
<!-- Node12&#45;&gt;Node19 -->
<g id="edge22_Node000019_Node000012" class="edge">
<title>Node12&#45;&gt;Node19</title>
<g id="a_edge22_Node000019_Node000012"><a xlink:title=" ">
<path fill="none" stroke="#63b8ff" d="M440.27,-151.18C498.2,-147.24 582.09,-141.54 638.38,-137.71"/>
<polygon fill="#63b8ff" stroke="#63b8ff" points="440.29,-147.67 430.55,-151.84 440.77,-154.65 440.29,-147.67"/>
</a>
</g>
</g>
<!-- Node13 -->
<g id="Node000013" class="node">
<title>Node13</title>
<g id="a_Node000013"><a xlink:href="class_cpl_1_1_system_1_1_timer_manager.html" target="_top" xlink:title="This mostly concrete class implements manages a list of Software Timers.">
<polygon fill="white" stroke="#666666" points="766.75,-256.25 632.25,-256.25 632.25,-237 766.75,-237 766.75,-256.25"/>
<text text-anchor="middle" x="699.5" y="-242.75" font-family="Helvetica,sans-Serif" font-size="10.00">Cpl::System::TimerManager</text>
</a>
</g>
</g>
<!-- Node13&#45;&gt;Node9 -->
<g id="edge14_Node000009_Node000013" class="edge">
<title>Node13&#45;&gt;Node9</title>
<g id="a_edge14_Node000009_Node000013"><a xlink:title=" ">
<path fill="none" stroke="#63b8ff" d="M778.14,-238.44C815.57,-234.22 861.06,-228.69 901.75,-222.62 909.67,-221.45 918.01,-220.08 926.19,-218.68"/>
<polygon fill="#63b8ff" stroke="#63b8ff" points="777.85,-234.95 768.3,-239.54 778.63,-241.9 777.85,-234.95"/>
</a>
</g>
</g>
<!-- Node14 -->
<g id="Node000014" class="node">
<title>Node14</title>
<g id="a_Node000014"><a xlink:href="class_cpl_1_1_system_1_1_counter_source__.html" target="_top" xlink:title="This abstract class defines the interface for registering for an Counter object with the Timer Manage...">
<polygon fill="white" stroke="#666666" points="444.88,-256.25 302.88,-256.25 302.88,-237 444.88,-237 444.88,-256.25"/>
<text text-anchor="middle" x="373.88" y="-242.75" font-family="Helvetica,sans-Serif" font-size="10.00">Cpl::System::CounterSource_</text>
</a>
</g>
</g>
<!-- Node14&#45;&gt;Node13 -->
<g id="edge15_Node000013_Node000014" class="edge">
<title>Node14&#45;&gt;Node13</title>
<g id="a_edge15_Node000013_Node000014"><a xlink:title=" ">
<path fill="none" stroke="#63b8ff" d="M456.42,-246.62C510.7,-246.62 581.13,-246.62 632.01,-246.62"/>
<polygon fill="#63b8ff" stroke="#63b8ff" points="456.61,-243.13 446.61,-246.63 456.61,-250.13 456.61,-243.13"/>
</a>
</g>
</g>
<!-- Node15 -->
<g id="Node000015" class="node">
<title>Node15</title>
<g id="a_Node000015"><a xlink:href="class_cpl_1_1_container_1_1_d_list.html" target="_top" xlink:title=" ">
<polygon fill="white" stroke="#666666" points="456.5,-310.88 291.25,-310.88 291.25,-280.38 456.5,-280.38 456.5,-310.88"/>
<text text-anchor="start" x="299.25" y="-297.38" font-family="Helvetica,sans-Serif" font-size="10.00">Cpl::Container::DList</text>
<text text-anchor="middle" x="373.88" y="-286.12" font-family="Helvetica,sans-Serif" font-size="10.00">&lt; Cpl::System::CounterCallback_ &gt;</text>
</a>
</g>
</g>
<!-- Node15&#45;&gt;Node13 -->
<g id="edge16_Node000013_Node000015" class="edge">
<title>Node15&#45;&gt;Node13</title>
<g id="a_edge16_Node000013_Node000015"><a xlink:title=" ">
<path fill="none" stroke="#9a32cd" stroke-dasharray="5,2" d="M468.26,-282.4C512.53,-276.02 566.15,-268.14 614.25,-260.62 622.16,-259.39 630.48,-258.05 638.69,-256.71"/>
<polygon fill="#9a32cd" stroke="#9a32cd" points="467.82,-278.93 458.42,-283.82 468.81,-285.86 467.82,-278.93"/>
</a>
</g>
<text text-anchor="middle" x="544.38" y="-293.62" font-family="Helvetica,sans-Serif" font-size="10.00" fill="grey"> m_counters</text>
<text text-anchor="middle" x="544.38" y="-282.38" font-family="Helvetica,sans-Serif" font-size="10.00" fill="grey">m_pendingAttach</text>
</g>
<!-- Node16 -->
<g id="Node000016" class="node">
<title>Node16</title>
<g id="a_Node000016"><a xlink:href="class_cpl_1_1_container_1_1_d_list.html" target="_top" xlink:title="This template class implements a Doubly linked list which maintains the ordering imposed on it by the...">
<polygon fill="white" stroke="#666666" points="103.75,-339.88 0,-339.88 0,-309.38 103.75,-309.38 103.75,-339.88"/>
<text text-anchor="start" x="8" y="-326.38" font-family="Helvetica,sans-Serif" font-size="10.00">Cpl::Container::DList</text>
<text text-anchor="middle" x="51.88" y="-315.12" font-family="Helvetica,sans-Serif" font-size="10.00">&lt; ITEM &gt;</text>
</a>
</g>
</g>
<!-- Node16&#45;&gt;Node15 -->
<g id="edge17_Node000015_Node000016" class="edge">
<title>Node16&#45;&gt;Node15</title>
<g id="a_edge17_Node000015_Node000016"><a xlink:title=" ">
<path fill="none" stroke="orange" stroke-dasharray="5,2" d="M115.51,-309.34C117.61,-308.99 119.7,-308.67 121.75,-308.38 177.83,-300.4 241.57,-297.24 290.8,-296.05"/>
<polygon fill="orange" stroke="orange" points="114.89,-305.9 105.69,-311.17 116.17,-312.78 114.89,-305.9"/>
</a>
</g>
<text text-anchor="middle" x="197.5" y="-309.38" font-family="Helvetica,sans-Serif" font-size="10.00" fill="grey"> &lt; Cpl::System::CounterCallback_ &gt;</text>
</g>
<!-- Node21 -->
<g id="Node000021" class="node">
<title>Node21</title>
<g id="a_Node000021"><a xlink:href="class_cpl_1_1_container_1_1_d_list.html" target="_top" xlink:title=" ">
<polygon fill="white" stroke="#666666" points="610.12,-369.88 478.62,-369.88 478.62,-339.38 610.12,-339.38 610.12,-369.88"/>
<text text-anchor="start" x="486.62" y="-356.38" font-family="Helvetica,sans-Serif" font-size="10.00">Cpl::Container::DList</text>
<text text-anchor="middle" x="544.38" y="-345.12" font-family="Helvetica,sans-Serif" font-size="10.00">&lt; Cpl::Dm::SubscriberApi &gt;</text>
</a>
</g>
</g>
<!-- Node16&#45;&gt;Node21 -->
<g id="edge25_Node000021_Node000016" class="edge">
<title>Node16&#45;&gt;Node21</title>
<g id="a_edge25_Node000021_Node000016"><a xlink:title=" ">
<path fill="none" stroke="orange" stroke-dasharray="5,2" d="M115.22,-328.44C208.53,-334.15 383.68,-344.86 478.47,-350.66"/>
<polygon fill="orange" stroke="orange" points="115.68,-324.96 105.49,-327.84 115.26,-331.95 115.68,-324.96"/>
</a>
</g>
<text text-anchor="middle" x="197.5" y="-339.38" font-family="Helvetica,sans-Serif" font-size="10.00" fill="grey"> &lt; Cpl::Dm::SubscriberApi &gt;</text>
</g>
<!-- Node17&#45;&gt;Node9 -->
<g id="edge18_Node000009_Node000017" class="edge">
<title>Node17&#45;&gt;Node9</title>
<g id="a_edge18_Node000009_Node000017"><a xlink:title=" ">
<path fill="none" stroke="#9a32cd" stroke-dasharray="5,2" d="M762.43,-170.58C802.49,-171.53 855.58,-174.6 901.75,-183.38 919.7,-186.78 939.26,-193.1 954.34,-198.56"/>
<polygon fill="#9a32cd" stroke="#9a32cd" points="762.55,-167.08 752.48,-170.39 762.41,-174.08 762.55,-167.08"/>
</a>
</g>
<text text-anchor="middle" x="843.25" y="-184.38" font-family="Helvetica,sans-Serif" font-size="10.00" fill="grey"> m_myThreadPtr</text>
</g>
<!-- Node18 -->
<g id="Node000018" class="node">
<title>Node18</title>
<g id="a_Node000018"><a xlink:href="class_cpl_1_1_system_1_1_shared_event_handler_api.html" target="_top" xlink:title="This abstract class defines the interface for a Shared Event Handler.">
<polygon fill="white" stroke="#666666" points="763.38,-105.88 635.62,-105.88 635.62,-75.38 763.38,-75.38 763.38,-105.88"/>
<text text-anchor="start" x="643.62" y="-92.38" font-family="Helvetica,sans-Serif" font-size="10.00">Cpl::System::SharedEvent</text>
<text text-anchor="middle" x="699.5" y="-81.12" font-family="Helvetica,sans-Serif" font-size="10.00">HandlerApi</text>
</a>
</g>
</g>
<!-- Node18&#45;&gt;Node9 -->
<g id="edge20_Node000009_Node000018" class="edge">
<title>Node18&#45;&gt;Node9</title>
<g id="a_edge20_Node000009_Node000018"><a xlink:title=" ">
<path fill="none" stroke="#9a32cd" stroke-dasharray="5,2" d="M774.92,-89.04C814.66,-91.11 863.2,-98.49 901.75,-119.38 936.72,-138.32 963.44,-179.43 974.47,-198.51"/>
<polygon fill="#9a32cd" stroke="#9a32cd" points="775.07,-85.54 764.94,-88.63 774.79,-92.53 775.07,-85.54"/>
</a>
</g>
<text text-anchor="middle" x="843.25" y="-121.38" font-family="Helvetica,sans-Serif" font-size="10.00" fill="grey"> m_eventHandler</text>
</g>
<!-- Node19&#45;&gt;Node9 -->
<g id="edge21_Node000009_Node000019" class="edge">
<title>Node19&#45;&gt;Node9</title>
<g id="a_edge21_Node000009_Node000019"><a xlink:title=" ">
<path fill="none" stroke="#9a32cd" stroke-dasharray="5,2" d="M772.1,-133.53C811.41,-135.49 860.42,-141.26 901.75,-156.38 928.14,-166.03 954.39,-186.3 968.78,-198.56"/>
<polygon fill="#9a32cd" stroke="#9a32cd" points="772.41,-130.04 762.27,-133.12 772.11,-137.04 772.41,-130.04"/>
</a>
</g>
<text text-anchor="middle" x="843.25" y="-158.38" font-family="Helvetica,sans-Serif" font-size="10.00" fill="grey"> m_sema</text>
</g>
<!-- Node20 -->
<g id="Node000020" class="node">
<title>Node20</title>
<g id="a_Node000020"><a xlink:href="class_cpl_1_1_dm_1_1_notification_api__.html" target="_top" xlink:title="This class has PACKAGE Scope, i.e.">
<polygon fill="white" stroke="#666666" points="1042.25,-255.25 919.75,-255.25 919.75,-236 1042.25,-236 1042.25,-255.25"/>
<text text-anchor="middle" x="981" y="-241.75" font-family="Helvetica,sans-Serif" font-size="10.00">Cpl::Dm::NotificationApi_</text>
</a>
</g>
</g>
<!-- Node20&#45;&gt;Node8 -->
<g id="edge23_Node000008_Node000020" class="edge">
<title>Node20&#45;&gt;Node8</title>
<g id="a_edge23_Node000008_Node000020"><a xlink:title=" ">
<path fill="none" stroke="#63b8ff" d="M1054.03,-240.68C1076.67,-239.13 1101.14,-237.45 1121.86,-236.03"/>
<polygon fill="#63b8ff" stroke="#63b8ff" points="1053.99,-237.18 1044.25,-241.35 1054.47,-244.16 1053.99,-237.18"/>
</a>
</g>
</g>
<!-- Node21&#45;&gt;Node8 -->
<g id="edge24_Node000008_Node000021" class="edge">
<title>Node21&#45;&gt;Node8</title>
<g id="a_edge24_Node000008_Node000021"><a xlink:title=" ">
<path fill="none" stroke="#9a32cd" stroke-dasharray="5,2" d="M622.01,-352.28C664.77,-350.26 718.9,-346.52 766.75,-339.62 910.99,-318.83 1077.57,-264.98 1143.02,-242.6"/>
<polygon fill="#9a32cd" stroke="#9a32cd" points="621.89,-348.78 612.06,-352.73 622.21,-355.78 621.89,-348.78"/>
</a>
</g>
<text text-anchor="middle" x="843.25" y="-337.38" font-family="Helvetica,sans-Serif" font-size="10.00" fill="grey"> m_pendingMpNotifications</text>
</g>
</g>
</svg>
