<?xml version="1.0" encoding="UTF-8" standalone="no"?>
<!DOCTYPE svg PUBLIC "-//W3C//DTD SVG 1.1//EN"
 "http://www.w3.org/Graphics/SVG/1.1/DTD/svg11.dtd">
<!-- Generated by graphviz version 9.0.0 (20230911.1827)
 -->
<!-- Title: Cpl::Io::InputOutput Pages: 1 -->
<svg width="187pt" height="193pt"
 viewBox="0.00 0.00 187.38 193.00" xmlns="http://www.w3.org/2000/svg" xmlns:xlink="http://www.w3.org/1999/xlink">
<g id="graph0" class="graph" transform="scale(1 1) rotate(0) translate(4 189)">
<title>Cpl::Io::InputOutput</title>
<!-- Node1 -->
<g id="Node000001" class="node">
<title>Node1</title>
<g id="a_Node000001"><a xlink:title="This abstract class defines a interface for operating on an input&#45;output stream (example of a stream ...">
<polygon fill="#999999" stroke="#666666" points="144.25,-19.25 45.75,-19.25 45.75,0 144.25,0 144.25,-19.25"/>
<text text-anchor="middle" x="95" y="-5.75" font-family="Helvetica,sans-Serif" font-size="10.00">Cpl::Io::InputOutput</text>
</a>
</g>
</g>
<!-- Node2 -->
<g id="Node000002" class="node">
<title>Node2</title>
<g id="a_Node000002"><a xlink:href="class_cpl_1_1_io_1_1_input.html" target="_top" xlink:title="This partially abstract class defines a interface for operating on an input stream (example of a stre...">
<polygon fill="white" stroke="#666666" points="84.62,-74.5 15.38,-74.5 15.38,-55.25 84.62,-55.25 84.62,-74.5"/>
<text text-anchor="middle" x="50" y="-61" font-family="Helvetica,sans-Serif" font-size="10.00">Cpl::Io::Input</text>
</a>
</g>
</g>
<!-- Node2&#45;&gt;Node1 -->
<g id="edge1_Node000001_Node000002" class="edge">
<title>Node2&#45;&gt;Node1</title>
<g id="a_edge1_Node000001_Node000002"><a xlink:title=" ">
<path fill="none" stroke="#63b8ff" d="M64.68,-46.51C72.26,-37.53 81.21,-26.95 87.41,-19.61"/>
<polygon fill="#63b8ff" stroke="#63b8ff" points="62.19,-44.03 58.41,-53.93 67.54,-48.55 62.19,-44.03"/>
</a>
</g>
</g>
<!-- Node3 -->
<g id="Node000003" class="node">
<title>Node3</title>
<g id="a_Node000003"><a xlink:href="class_cpl_1_1_io_1_1_close.html" target="_top" xlink:title="This abstract class defines a close operation that is intended to be used Input and Output streams/fi...">
<polygon fill="white" stroke="#666666" points="86.12,-129.75 13.88,-129.75 13.88,-110.5 86.12,-110.5 86.12,-129.75"/>
<text text-anchor="middle" x="50" y="-116.25" font-family="Helvetica,sans-Serif" font-size="10.00">Cpl::Io::Close</text>
</a>
</g>
</g>
<!-- Node3&#45;&gt;Node2 -->
<g id="edge2_Node000002_Node000003" class="edge">
<title>Node3&#45;&gt;Node2</title>
<g id="a_edge2_Node000002_Node000003"><a xlink:title=" ">
<path fill="none" stroke="#63b8ff" d="M50,-98.88C50,-90.59 50,-81.42 50,-74.86"/>
<polygon fill="#63b8ff" stroke="#63b8ff" points="46.5,-98.82 50,-108.82 53.5,-98.82 46.5,-98.82"/>
</a>
</g>
</g>
<!-- Node6 -->
<g id="Node000006" class="node">
<title>Node6</title>
<g id="a_Node000006"><a xlink:href="class_cpl_1_1_io_1_1_output.html" target="_top" xlink:title="This partially abstract class defines a interface for operating on an output stream (example of a str...">
<polygon fill="white" stroke="#666666" points="179.38,-74.5 102.62,-74.5 102.62,-55.25 179.38,-55.25 179.38,-74.5"/>
<text text-anchor="middle" x="141" y="-61" font-family="Helvetica,sans-Serif" font-size="10.00">Cpl::Io::Output</text>
</a>
</g>
</g>
<!-- Node3&#45;&gt;Node6 -->
<g id="edge6_Node000006_Node000003" class="edge">
<title>Node3&#45;&gt;Node6</title>
<g id="a_edge6_Node000006_Node000003"><a xlink:title=" ">
<path fill="none" stroke="#63b8ff" d="M75.29,-104.32C91.4,-94.9 111.74,-83 125.49,-74.95"/>
<polygon fill="#63b8ff" stroke="#63b8ff" points="73.61,-101.26 66.74,-109.33 77.14,-107.3 73.61,-101.26"/>
</a>
</g>
</g>
<!-- Node4 -->
<g id="Node000004" class="node">
<title>Node4</title>
<g id="a_Node000004"><a xlink:href="class_cpl_1_1_container_1_1_item.html" target="_top" xlink:title="This class is used by the Container classes to implement a various types of singly linked containers.">
<polygon fill="white" stroke="#666666" points="100,-185 0,-185 0,-165.75 100,-165.75 100,-185"/>
<text text-anchor="middle" x="50" y="-171.5" font-family="Helvetica,sans-Serif" font-size="10.00">Cpl::Container::Item</text>
</a>
</g>
</g>
<!-- Node4&#45;&gt;Node3 -->
<g id="edge3_Node000003_Node000004" class="edge">
<title>Node4&#45;&gt;Node3</title>
<g id="a_edge3_Node000003_Node000004"><a xlink:title=" ">
<path fill="none" stroke="#63b8ff" d="M50,-154.13C50,-145.84 50,-136.67 50,-130.11"/>
<polygon fill="#63b8ff" stroke="#63b8ff" points="46.5,-154.07 50,-164.07 53.5,-154.07 46.5,-154.07"/>
</a>
</g>
</g>
<!-- Node5 -->
<g id="Node000005" class="node">
<title>Node5</title>
<g id="a_Node000005"><a xlink:href="class_cpl_1_1_io_1_1_is_eos.html" target="_top" xlink:title="This abstract class defines a isEos() operation that is intended to be used Input and Output streams.">
<polygon fill="white" stroke="#666666" points="176.12,-129.75 103.88,-129.75 103.88,-110.5 176.12,-110.5 176.12,-129.75"/>
<text text-anchor="middle" x="140" y="-116.25" font-family="Helvetica,sans-Serif" font-size="10.00">Cpl::Io::IsEos</text>
</a>
</g>
</g>
<!-- Node5&#45;&gt;Node2 -->
<g id="edge4_Node000002_Node000005" class="edge">
<title>Node5&#45;&gt;Node2</title>
<g id="a_edge4_Node000002_Node000005"><a xlink:title=" ">
<path fill="none" stroke="#63b8ff" d="M114.98,-104.32C99.06,-94.9 78.94,-83 65.34,-74.95"/>
<polygon fill="#63b8ff" stroke="#63b8ff" points="113.04,-107.24 123.43,-109.32 116.61,-101.22 113.04,-107.24"/>
</a>
</g>
</g>
<!-- Node5&#45;&gt;Node6 -->
<g id="edge7_Node000006_Node000005" class="edge">
<title>Node5&#45;&gt;Node6</title>
<g id="a_edge7_Node000006_Node000005"><a xlink:title=" ">
<path fill="none" stroke="#63b8ff" d="M140.38,-98.88C140.54,-90.59 140.71,-81.42 140.83,-74.86"/>
<polygon fill="#63b8ff" stroke="#63b8ff" points="136.88,-98.75 140.19,-108.82 143.88,-98.89 136.88,-98.75"/>
</a>
</g>
</g>
<!-- Node6&#45;&gt;Node1 -->
<g id="edge5_Node000001_Node000006" class="edge">
<title>Node6&#45;&gt;Node1</title>
<g id="a_edge5_Node000001_Node000006"><a xlink:title=" ">
<path fill="none" stroke="#63b8ff" d="M126,-46.51C118.24,-37.53 109.1,-26.95 102.76,-19.61"/>
<polygon fill="#63b8ff" stroke="#63b8ff" points="123.23,-48.66 132.41,-53.94 128.53,-44.08 123.23,-48.66"/>
</a>
</g>
</g>
</g>
</svg>
