<?xml version="1.0" encoding="UTF-8" standalone="no"?>
<!DOCTYPE svg PUBLIC "-//W3C//DTD SVG 1.1//EN"
 "http://www.w3.org/Graphics/SVG/1.1/DTD/svg11.dtd">
<!-- Generated by graphviz version 9.0.0 (20230911.1827)
 -->
<!-- Title: Cpl::Io::File::InputOutputApi Pages: 1 -->
<svg width="301pt" height="248pt"
 viewBox="0.00 0.00 301.00 248.25" xmlns="http://www.w3.org/2000/svg" xmlns:xlink="http://www.w3.org/1999/xlink">
<g id="graph0" class="graph" transform="scale(1 1) rotate(0) translate(4 244.25)">
<title>Cpl::Io::File::InputOutputApi</title>
<!-- Node1 -->
<g id="Node000001" class="node">
<title>Node1</title>
<g id="a_Node000001"><a xlink:title="This abstract class defines the interface for a Random Access Input Output File.">
<polygon fill="#999999" stroke="#666666" points="214.88,-19.25 81.88,-19.25 81.88,0 214.88,0 214.88,-19.25"/>
<text text-anchor="middle" x="148.38" y="-5.75" font-family="Helvetica,sans-Serif" font-size="10.00">Cpl::Io::File::InputOutputApi</text>
</a>
</g>
</g>
<!-- Node2 -->
<g id="Node000002" class="node">
<title>Node2</title>
<g id="a_Node000002"><a xlink:href="class_cpl_1_1_io_1_1_file_1_1_input_api.html" target="_top" xlink:title="This abstract class defines the interface for a Random Access Input File.">
<polygon fill="white" stroke="#666666" points="263.25,-74.5 159.5,-74.5 159.5,-55.25 263.25,-55.25 263.25,-74.5"/>
<text text-anchor="middle" x="211.38" y="-61" font-family="Helvetica,sans-Serif" font-size="10.00">Cpl::Io::File::InputApi</text>
</a>
</g>
</g>
<!-- Node2&#45;&gt;Node1 -->
<g id="edge1_Node000001_Node000002" class="edge">
<title>Node2&#45;&gt;Node1</title>
<g id="a_edge1_Node000001_Node000002"><a xlink:title=" ">
<path fill="none" stroke="#63b8ff" d="M192.2,-47.66C181.26,-38.42 167.96,-27.18 158.9,-19.52"/>
<polygon fill="#63b8ff" stroke="#63b8ff" points="189.64,-50.08 199.53,-53.86 194.15,-44.74 189.64,-50.08"/>
</a>
</g>
</g>
<!-- Node3 -->
<g id="Node000003" class="node">
<title>Node3</title>
<g id="a_Node000003"><a xlink:href="class_cpl_1_1_io_1_1_input.html" target="_top" xlink:title="This partially abstract class defines a interface for operating on an input stream (example of a stre...">
<polygon fill="white" stroke="#666666" points="293,-129.75 223.75,-129.75 223.75,-110.5 293,-110.5 293,-129.75"/>
<text text-anchor="middle" x="258.38" y="-116.25" font-family="Helvetica,sans-Serif" font-size="10.00">Cpl::Io::Input</text>
</a>
</g>
</g>
<!-- Node3&#45;&gt;Node2 -->
<g id="edge2_Node000002_Node000003" class="edge">
<title>Node3&#45;&gt;Node2</title>
<g id="a_edge2_Node000002_Node000003"><a xlink:title=" ">
<path fill="none" stroke="#63b8ff" d="M243.05,-101.76C235.12,-92.78 225.78,-82.2 219.3,-74.86"/>
<polygon fill="#63b8ff" stroke="#63b8ff" points="240.37,-104.02 249.61,-109.2 245.62,-99.38 240.37,-104.02"/>
</a>
</g>
</g>
<!-- Node4 -->
<g id="Node000004" class="node">
<title>Node4</title>
<g id="a_Node000004"><a xlink:href="class_cpl_1_1_io_1_1_close.html" target="_top" xlink:title="This abstract class defines a close operation that is intended to be used Input and Output streams/fi...">
<polygon fill="white" stroke="#666666" points="139.5,-185 67.25,-185 67.25,-165.75 139.5,-165.75 139.5,-185"/>
<text text-anchor="middle" x="103.38" y="-171.5" font-family="Helvetica,sans-Serif" font-size="10.00">Cpl::Io::Close</text>
</a>
</g>
</g>
<!-- Node4&#45;&gt;Node3 -->
<g id="edge3_Node000003_Node000004" class="edge">
<title>Node4&#45;&gt;Node3</title>
<g id="a_edge3_Node000003_Node000004"><a xlink:title=" ">
<path fill="none" stroke="#63b8ff" d="M140.32,-161.68C168.54,-151.99 206.75,-138.86 231.95,-130.2"/>
<polygon fill="#63b8ff" stroke="#63b8ff" points="139.42,-158.29 131.1,-164.85 141.69,-164.91 139.42,-158.29"/>
</a>
</g>
</g>
<!-- Node9 -->
<g id="Node000009" class="node">
<title>Node9</title>
<g id="a_Node000009"><a xlink:href="class_cpl_1_1_io_1_1_output.html" target="_top" xlink:title="This partially abstract class defines a interface for operating on an output stream (example of a str...">
<polygon fill="white" stroke="#666666" points="76.75,-129.75 0,-129.75 0,-110.5 76.75,-110.5 76.75,-129.75"/>
<text text-anchor="middle" x="38.38" y="-116.25" font-family="Helvetica,sans-Serif" font-size="10.00">Cpl::Io::Output</text>
</a>
</g>
</g>
<!-- Node4&#45;&gt;Node9 -->
<g id="edge9_Node000009_Node000004" class="edge">
<title>Node4&#45;&gt;Node9</title>
<g id="a_edge9_Node000009_Node000004"><a xlink:title=" ">
<path fill="none" stroke="#63b8ff" d="M83.59,-158.16C72.3,-148.92 58.58,-137.68 49.24,-130.02"/>
<polygon fill="#63b8ff" stroke="#63b8ff" points="81.22,-160.75 91.18,-164.38 85.66,-155.34 81.22,-160.75"/>
</a>
</g>
</g>
<!-- Node5 -->
<g id="Node000005" class="node">
<title>Node5</title>
<g id="a_Node000005"><a xlink:href="class_cpl_1_1_container_1_1_item.html" target="_top" xlink:title="This class is used by the Container classes to implement a various types of singly linked containers.">
<polygon fill="white" stroke="#666666" points="153.38,-240.25 53.38,-240.25 53.38,-221 153.38,-221 153.38,-240.25"/>
<text text-anchor="middle" x="103.38" y="-226.75" font-family="Helvetica,sans-Serif" font-size="10.00">Cpl::Container::Item</text>
</a>
</g>
</g>
<!-- Node5&#45;&gt;Node4 -->
<g id="edge4_Node000004_Node000005" class="edge">
<title>Node5&#45;&gt;Node4</title>
<g id="a_edge4_Node000004_Node000005"><a xlink:title=" ">
<path fill="none" stroke="#63b8ff" d="M103.38,-209.38C103.38,-201.09 103.38,-191.92 103.38,-185.36"/>
<polygon fill="#63b8ff" stroke="#63b8ff" points="99.88,-209.32 103.38,-219.32 106.88,-209.32 99.88,-209.32"/>
</a>
</g>
</g>
<!-- Node6 -->
<g id="Node000006" class="node">
<title>Node6</title>
<g id="a_Node000006"><a xlink:href="class_cpl_1_1_io_1_1_is_eos.html" target="_top" xlink:title="This abstract class defines a isEos() operation that is intended to be used Input and Output streams.">
<polygon fill="white" stroke="#666666" points="261.5,-185 189.25,-185 189.25,-165.75 261.5,-165.75 261.5,-185"/>
<text text-anchor="middle" x="225.38" y="-171.5" font-family="Helvetica,sans-Serif" font-size="10.00">Cpl::Io::IsEos</text>
</a>
</g>
</g>
<!-- Node6&#45;&gt;Node3 -->
<g id="edge5_Node000003_Node000006" class="edge">
<title>Node6&#45;&gt;Node3</title>
<g id="a_edge5_Node000003_Node000006"><a xlink:title=" ">
<path fill="none" stroke="#63b8ff" d="M236.85,-155.87C242.25,-147.14 248.45,-137.14 252.81,-130.11"/>
<polygon fill="#63b8ff" stroke="#63b8ff" points="233.91,-153.95 231.62,-164.3 239.86,-157.64 233.91,-153.95"/>
</a>
</g>
</g>
<!-- Node6&#45;&gt;Node9 -->
<g id="edge10_Node000009_Node000006" class="edge">
<title>Node6&#45;&gt;Node9</title>
<g id="a_edge10_Node000009_Node000006"><a xlink:title=" ">
<path fill="none" stroke="#63b8ff" d="M182.59,-162.19C148.39,-152.45 101.2,-139.02 70.25,-130.2"/>
<polygon fill="#63b8ff" stroke="#63b8ff" points="181.62,-165.55 192.2,-164.93 183.54,-158.82 181.62,-165.55"/>
</a>
</g>
</g>
<!-- Node7 -->
<g id="Node000007" class="node">
<title>Node7</title>
<g id="a_Node000007"><a xlink:href="class_cpl_1_1_io_1_1_file_1_1_object_api.html" target="_top" xlink:title="This abstract class defines the basic additional functionality, beyond that of a stream,...">
<polygon fill="white" stroke="#666666" points="205.62,-129.75 95.12,-129.75 95.12,-110.5 205.62,-110.5 205.62,-129.75"/>
<text text-anchor="middle" x="150.38" y="-116.25" font-family="Helvetica,sans-Serif" font-size="10.00">Cpl::Io::File::ObjectApi</text>
</a>
</g>
</g>
<!-- Node7&#45;&gt;Node2 -->
<g id="edge6_Node000002_Node000007" class="edge">
<title>Node7&#45;&gt;Node2</title>
<g id="a_edge6_Node000002_Node000007"><a xlink:title=" ">
<path fill="none" stroke="#63b8ff" d="M169.26,-102.64C179.8,-93.44 192.5,-82.35 201.18,-74.77"/>
<polygon fill="#63b8ff" stroke="#63b8ff" points="167.09,-99.88 161.86,-109.1 171.7,-105.16 167.09,-99.88"/>
</a>
</g>
</g>
<!-- Node8 -->
<g id="Node000008" class="node">
<title>Node8</title>
<g id="a_Node000008"><a xlink:href="class_cpl_1_1_io_1_1_file_1_1_output_api.html" target="_top" xlink:title="This abstract class defines the interface for a Random Access Input File.">
<polygon fill="white" stroke="#666666" points="141,-74.5 29.75,-74.5 29.75,-55.25 141,-55.25 141,-74.5"/>
<text text-anchor="middle" x="85.38" y="-61" font-family="Helvetica,sans-Serif" font-size="10.00">Cpl::Io::File::OutputApi</text>
</a>
</g>
</g>
<!-- Node7&#45;&gt;Node8 -->
<g id="edge11_Node000008_Node000007" class="edge">
<title>Node7&#45;&gt;Node8</title>
<g id="a_edge11_Node000008_Node000007"><a xlink:title=" ">
<path fill="none" stroke="#63b8ff" d="M130.59,-102.91C119.3,-93.67 105.58,-82.43 96.24,-74.77"/>
<polygon fill="#63b8ff" stroke="#63b8ff" points="128.22,-105.5 138.18,-109.13 132.66,-100.09 128.22,-105.5"/>
</a>
</g>
</g>
<!-- Node8&#45;&gt;Node1 -->
<g id="edge7_Node000001_Node000008" class="edge">
<title>Node8&#45;&gt;Node1</title>
<g id="a_edge7_Node000001_Node000008"><a xlink:title=" ">
<path fill="none" stroke="#63b8ff" d="M104.55,-47.66C115.49,-38.42 128.79,-27.18 137.85,-19.52"/>
<polygon fill="#63b8ff" stroke="#63b8ff" points="102.6,-44.74 97.22,-53.86 107.11,-50.08 102.6,-44.74"/>
</a>
</g>
</g>
<!-- Node9&#45;&gt;Node8 -->
<g id="edge8_Node000008_Node000009" class="edge">
<title>Node9&#45;&gt;Node8</title>
<g id="a_edge8_Node000008_Node000009"><a xlink:title=" ">
<path fill="none" stroke="#63b8ff" d="M53.7,-101.76C61.63,-92.78 70.97,-82.2 77.45,-74.86"/>
<polygon fill="#63b8ff" stroke="#63b8ff" points="51.13,-99.38 47.14,-109.2 56.38,-104.02 51.13,-99.38"/>
</a>
</g>
</g>
</g>
</svg>
