<?xml version="1.0" encoding="UTF-8" standalone="no"?>
<!DOCTYPE svg PUBLIC "-//W3C//DTD SVG 1.1//EN"
 "http://www.w3.org/Graphics/SVG/1.1/DTD/svg11.dtd">
<!-- Generated by graphviz version 9.0.0 (20230911.1827)
 -->
<!-- Title: Cpl::Dm::PeriodicScheduler Pages: 1 -->
<svg width="1034pt" height="205pt"
 viewBox="0.00 0.00 1034.25 204.88" xmlns="http://www.w3.org/2000/svg" xmlns:xlink="http://www.w3.org/1999/xlink">
<g id="graph0" class="graph" transform="scale(1 1) rotate(0) translate(4 200.88)">
<title>Cpl::Dm::PeriodicScheduler</title>
<!-- Node1 -->
<g id="Node000001" class="node">
<title>Node1</title>
<g id="a_Node000001"><a xlink:title="This class extends the Cpl::Dm::MailboxServer class to add periodic scheduling to an event based &#39;thr...">
<polygon fill="#999999" stroke="#666666" points="1026.25,-62.88 893.25,-62.88 893.25,-43.62 1026.25,-43.62 1026.25,-62.88"/>
<text text-anchor="middle" x="959.75" y="-49.38" font-family="Helvetica,sans-Serif" font-size="10.00">Cpl::Dm::PeriodicScheduler</text>
</a>
</g>
</g>
<!-- Node2 -->
<g id="Node000002" class="node">
<title>Node2</title>
<g id="a_Node000002"><a xlink:href="class_cpl_1_1_dm_1_1_mailbox_server.html" target="_top" xlink:title="This class extends the Cpl::Dm::EventLoop and Cpl::Itc:Mailbox classes to support the asynchronous ch...">
<polygon fill="white" stroke="#666666" points="838.62,-87.88 722.88,-87.88 722.88,-68.62 838.62,-68.62 838.62,-87.88"/>
<text text-anchor="middle" x="780.75" y="-74.38" font-family="Helvetica,sans-Serif" font-size="10.00">Cpl::Dm::MailboxServer</text>
</a>
</g>
</g>
<!-- Node2&#45;&gt;Node1 -->
<g id="edge1_Node000001_Node000002" class="edge">
<title>Node2&#45;&gt;Node1</title>
<g id="a_edge1_Node000001_Node000002"><a xlink:title=" ">
<path fill="none" stroke="#63b8ff" d="M849.88,-68.63C864.02,-66.63 878.89,-64.53 892.95,-62.54"/>
<polygon fill="#63b8ff" stroke="#63b8ff" points="849.64,-65.13 840.23,-69.99 850.62,-72.06 849.64,-65.13"/>
</a>
</g>
</g>
<!-- Node3 -->
<g id="Node000003" class="node">
<title>Node3</title>
<g id="a_Node000003"><a xlink:href="class_cpl_1_1_dm_1_1_event_loop.html" target="_top" xlink:title="This class extends the Cpl::System::EventLoop class to support the asynchronous change notification g...">
<polygon fill="white" stroke="#666666" points="668.25,-104.88 567.5,-104.88 567.5,-85.62 668.25,-85.62 668.25,-104.88"/>
<text text-anchor="middle" x="617.88" y="-91.38" font-family="Helvetica,sans-Serif" font-size="10.00">Cpl::Dm::EventLoop</text>
</a>
</g>
</g>
<!-- Node3&#45;&gt;Node2 -->
<g id="edge2_Node000002_Node000003" class="edge">
<title>Node3&#45;&gt;Node2</title>
<g id="a_edge2_Node000002_Node000003"><a xlink:title=" ">
<path fill="none" stroke="#63b8ff" d="M679.52,-88.84C693.59,-87.35 708.52,-85.78 722.45,-84.31"/>
<polygon fill="#63b8ff" stroke="#63b8ff" points="679.54,-85.32 669.96,-89.85 680.27,-92.28 679.54,-85.32"/>
</a>
</g>
</g>
<!-- Node4 -->
<g id="Node000004" class="node">
<title>Node4</title>
<g id="a_Node000004"><a xlink:href="class_cpl_1_1_system_1_1_event_loop.html" target="_top" xlink:title="This concrete class is a Runnable object that provides a event driven execution model for a thread.">
<polygon fill="white" stroke="#666666" points="528.62,-141.88 409.88,-141.88 409.88,-122.62 528.62,-122.62 528.62,-141.88"/>
<text text-anchor="middle" x="469.25" y="-128.38" font-family="Helvetica,sans-Serif" font-size="10.00">Cpl::System::EventLoop</text>
</a>
</g>
</g>
<!-- Node4&#45;&gt;Node3 -->
<g id="edge3_Node000003_Node000004" class="edge">
<title>Node4&#45;&gt;Node3</title>
<g id="a_edge3_Node000003_Node000004"><a xlink:title=" ">
<path fill="none" stroke="#63b8ff" d="M521.34,-119.36C539.52,-114.77 559.73,-109.67 576.86,-105.35"/>
<polygon fill="#63b8ff" stroke="#63b8ff" points="520.62,-115.93 511.78,-121.77 522.34,-122.72 520.62,-115.93"/>
</a>
</g>
</g>
<!-- Node5 -->
<g id="Node000005" class="node">
<title>Node5</title>
<g id="a_Node000005"><a xlink:href="class_cpl_1_1_system_1_1_runnable.html" target="_top" xlink:title="This is an abstract class defines the interface for an object that is &quot;executed&quot; when a Thread object...">
<polygon fill="white" stroke="#666666" points="302.62,-196.88 189.88,-196.88 189.88,-177.62 302.62,-177.62 302.62,-196.88"/>
<text text-anchor="middle" x="246.25" y="-183.38" font-family="Helvetica,sans-Serif" font-size="10.00">Cpl::System::Runnable</text>
</a>
</g>
</g>
<!-- Node5&#45;&gt;Node4 -->
<g id="edge4_Node000004_Node000005" class="edge">
<title>Node5&#45;&gt;Node4</title>
<g id="a_edge4_Node000004_Node000005"><a xlink:title=" ">
<path fill="none" stroke="#63b8ff" d="M304.58,-174.64C330.71,-168.73 361.99,-161.42 390,-154.25 404.35,-150.58 420.1,-146.21 433.68,-142.35"/>
<polygon fill="#63b8ff" stroke="#63b8ff" points="303.81,-171.23 294.83,-176.84 305.35,-178.06 303.81,-171.23"/>
</a>
</g>
</g>
<!-- Node6 -->
<g id="Node000006" class="node">
<title>Node6</title>
<g id="a_Node000006"><a xlink:href="class_cpl_1_1_system_1_1_event_flag.html" target="_top" xlink:title="This abstract class defines the interface to generated a &#39;Event Flag&#39;.">
<polygon fill="white" stroke="#666666" points="304.12,-159.88 188.38,-159.88 188.38,-140.62 304.12,-140.62 304.12,-159.88"/>
<text text-anchor="middle" x="246.25" y="-146.38" font-family="Helvetica,sans-Serif" font-size="10.00">Cpl::System::EventFlag</text>
</a>
</g>
</g>
<!-- Node6&#45;&gt;Node4 -->
<g id="edge5_Node000004_Node000006" class="edge">
<title>Node6&#45;&gt;Node4</title>
<g id="a_edge5_Node000004_Node000006"><a xlink:title=" ">
<path fill="none" stroke="#63b8ff" d="M315.73,-144.67C345.85,-142.22 380.87,-139.37 409.75,-137.01"/>
<polygon fill="#63b8ff" stroke="#63b8ff" points="315.64,-141.17 305.96,-145.47 316.21,-148.14 315.64,-141.17"/>
</a>
</g>
</g>
<!-- Node7 -->
<g id="Node000007" class="node">
<title>Node7</title>
<g id="a_Node000007"><a xlink:href="class_cpl_1_1_system_1_1_signable.html" target="_top" xlink:title="This abstract class defines the interface by which a client can cause an object that is waiting&#45;on&#45;a&#45;...">
<polygon fill="white" stroke="#666666" points="301.12,-122.88 191.38,-122.88 191.38,-103.62 301.12,-103.62 301.12,-122.88"/>
<text text-anchor="middle" x="246.25" y="-109.38" font-family="Helvetica,sans-Serif" font-size="10.00">Cpl::System::Signable</text>
</a>
</g>
</g>
<!-- Node7&#45;&gt;Node4 -->
<g id="edge6_Node000004_Node000007" class="edge">
<title>Node7&#45;&gt;Node4</title>
<g id="a_edge6_Node000004_Node000007"><a xlink:title=" ">
<path fill="none" stroke="#63b8ff" d="M313.03,-118.91C343.65,-121.54 379.77,-124.64 409.46,-127.2"/>
<polygon fill="#63b8ff" stroke="#63b8ff" points="313.37,-115.42 303.1,-118.05 312.77,-122.4 313.37,-115.42"/>
</a>
</g>
</g>
<!-- Node8 -->
<g id="Node000008" class="node">
<title>Node8</title>
<g id="a_Node000008"><a xlink:href="class_cpl_1_1_container_1_1_item.html" target="_top" xlink:title="This class is used by the Container classes to implement a various types of singly linked containers.">
<polygon fill="white" stroke="#666666" points="121,-122.88 21,-122.88 21,-103.62 121,-103.62 121,-122.88"/>
<text text-anchor="middle" x="71" y="-109.38" font-family="Helvetica,sans-Serif" font-size="10.00">Cpl::Container::Item</text>
</a>
</g>
</g>
<!-- Node8&#45;&gt;Node7 -->
<g id="edge7_Node000007_Node000008" class="edge">
<title>Node8&#45;&gt;Node7</title>
<g id="a_edge7_Node000007_Node000008"><a xlink:title=" ">
<path fill="none" stroke="#63b8ff" d="M132.47,-113.25C151.54,-113.25 172.48,-113.25 191.08,-113.25"/>
<polygon fill="#63b8ff" stroke="#63b8ff" points="132.7,-109.75 122.7,-113.25 132.7,-116.75 132.7,-109.75"/>
</a>
</g>
</g>
<!-- Node9 -->
<g id="Node000009" class="node">
<title>Node9</title>
<g id="a_Node000009"><a xlink:href="class_cpl_1_1_system_1_1_timer_manager.html" target="_top" xlink:title="This mostly concrete class implements manages a list of Software Timers.">
<polygon fill="white" stroke="#666666" points="313.5,-85.88 179,-85.88 179,-66.62 313.5,-66.62 313.5,-85.88"/>
<text text-anchor="middle" x="246.25" y="-72.38" font-family="Helvetica,sans-Serif" font-size="10.00">Cpl::System::TimerManager</text>
</a>
</g>
</g>
<!-- Node9&#45;&gt;Node4 -->
<g id="edge8_Node000004_Node000009" class="edge">
<title>Node9&#45;&gt;Node4</title>
<g id="a_edge8_Node000004_Node000009"><a xlink:title=" ">
<path fill="none" stroke="#63b8ff" d="M298.03,-89.12C337.65,-99.16 391.92,-112.91 428.43,-122.16"/>
<polygon fill="#63b8ff" stroke="#63b8ff" points="299.04,-85.76 288.48,-86.7 297.32,-92.55 299.04,-85.76"/>
</a>
</g>
</g>
<!-- Node10 -->
<g id="Node000010" class="node">
<title>Node10</title>
<g id="a_Node000010"><a xlink:href="class_cpl_1_1_system_1_1_counter_source__.html" target="_top" xlink:title="This abstract class defines the interface for registering for an Counter object with the Timer Manage...">
<polygon fill="white" stroke="#666666" points="142,-85.88 0,-85.88 0,-66.62 142,-66.62 142,-85.88"/>
<text text-anchor="middle" x="71" y="-72.38" font-family="Helvetica,sans-Serif" font-size="10.00">Cpl::System::CounterSource_</text>
</a>
</g>
</g>
<!-- Node10&#45;&gt;Node9 -->
<g id="edge9_Node000009_Node000010" class="edge">
<title>Node10&#45;&gt;Node9</title>
<g id="a_edge9_Node000009_Node000010"><a xlink:title=" ">
<path fill="none" stroke="#63b8ff" d="M153.81,-76.25C162.17,-76.25 170.59,-76.25 178.76,-76.25"/>
<polygon fill="#63b8ff" stroke="#63b8ff" points="153.98,-72.75 143.98,-76.25 153.98,-79.75 153.98,-72.75"/>
</a>
</g>
</g>
<!-- Node11 -->
<g id="Node000011" class="node">
<title>Node11</title>
<g id="a_Node000011"><a xlink:href="class_cpl_1_1_dm_1_1_notification_api__.html" target="_top" xlink:title="This class has PACKAGE Scope, i.e.">
<polygon fill="white" stroke="#666666" points="530.5,-104.88 408,-104.88 408,-85.62 530.5,-85.62 530.5,-104.88"/>
<text text-anchor="middle" x="469.25" y="-91.38" font-family="Helvetica,sans-Serif" font-size="10.00">Cpl::Dm::NotificationApi_</text>
</a>
</g>
</g>
<!-- Node11&#45;&gt;Node3 -->
<g id="edge10_Node000003_Node000011" class="edge">
<title>Node11&#45;&gt;Node3</title>
<g id="a_edge10_Node000003_Node000011"><a xlink:title=" ">
<path fill="none" stroke="#63b8ff" d="M542.22,-95.25C550.69,-95.25 559.18,-95.25 567.24,-95.25"/>
<polygon fill="#63b8ff" stroke="#63b8ff" points="542.25,-91.75 532.25,-95.25 542.25,-98.75 542.25,-91.75"/>
</a>
</g>
</g>
<!-- Node12 -->
<g id="Node000012" class="node">
<title>Node12</title>
<g id="a_Node000012"><a xlink:href="class_cpl_1_1_itc_1_1_mailbox.html" target="_top" xlink:title="This mailbox class implements an Inter Thread Communications message queue.">
<polygon fill="white" stroke="#666666" points="659.62,-67.88 576.12,-67.88 576.12,-48.62 659.62,-48.62 659.62,-67.88"/>
<text text-anchor="middle" x="617.88" y="-54.38" font-family="Helvetica,sans-Serif" font-size="10.00">Cpl::Itc::Mailbox</text>
</a>
</g>
</g>
<!-- Node12&#45;&gt;Node2 -->
<g id="edge11_Node000002_Node000012" class="edge">
<title>Node12&#45;&gt;Node2</title>
<g id="a_edge11_Node000002_Node000012"><a xlink:title=" ">
<path fill="none" stroke="#63b8ff" d="M670.94,-64.72C687.38,-66.77 705.64,-69.04 722.43,-71.12"/>
<polygon fill="#63b8ff" stroke="#63b8ff" points="671.74,-61.3 661.39,-63.54 670.88,-68.24 671.74,-61.3"/>
</a>
</g>
</g>
<!-- Node13 -->
<g id="Node000013" class="node">
<title>Node13</title>
<g id="a_Node000013"><a xlink:href="class_cpl_1_1_itc_1_1_post_api.html" target="_top" xlink:title="This abstract class represents the interface used to send messages to a mailbox.">
<polygon fill="white" stroke="#666666" points="511.75,-67.88 426.75,-67.88 426.75,-48.62 511.75,-48.62 511.75,-67.88"/>
<text text-anchor="middle" x="469.25" y="-54.38" font-family="Helvetica,sans-Serif" font-size="10.00">Cpl::Itc::PostApi</text>
</a>
</g>
</g>
<!-- Node13&#45;&gt;Node12 -->
<g id="edge12_Node000012_Node000013" class="edge">
<title>Node13&#45;&gt;Node12</title>
<g id="a_edge12_Node000012_Node000013"><a xlink:title=" ">
<path fill="none" stroke="#63b8ff" d="M522.98,-58.25C540.31,-58.25 559.31,-58.25 575.65,-58.25"/>
<polygon fill="#63b8ff" stroke="#63b8ff" points="523.39,-54.75 513.39,-58.25 523.39,-61.75 523.39,-54.75"/>
</a>
</g>
</g>
<!-- Node14 -->
<g id="Node000014" class="node">
<title>Node14</title>
<g id="a_Node000014"><a xlink:href="class_cpl_1_1_container_1_1_s_list.html" target="_top" xlink:title=" ">
<polygon fill="white" stroke="#666666" points="521.12,-30.5 417.38,-30.5 417.38,0 521.12,0 521.12,-30.5"/>
<text text-anchor="start" x="425.38" y="-17" font-family="Helvetica,sans-Serif" font-size="10.00">Cpl::Container::SList</text>
<text text-anchor="middle" x="469.25" y="-5.75" font-family="Helvetica,sans-Serif" font-size="10.00">&lt; Message &gt;</text>
</a>
</g>
</g>
<!-- Node14&#45;&gt;Node12 -->
<g id="edge13_Node000012_Node000014" class="edge">
<title>Node14&#45;&gt;Node12</title>
<g id="a_edge13_Node000012_Node000014"><a xlink:title=" ">
<path fill="none" stroke="#63b8ff" d="M532.1,-33.39C549.32,-38.44 567.4,-43.74 582.42,-48.14"/>
<polygon fill="#63b8ff" stroke="#63b8ff" points="533.57,-30.17 522.98,-30.72 531.6,-36.89 533.57,-30.17"/>
</a>
</g>
</g>
<!-- Node15 -->
<g id="Node000015" class="node">
<title>Node15</title>
<g id="a_Node000015"><a xlink:href="class_cpl_1_1_container_1_1_s_list.html" target="_top" xlink:title="This template class implements a singly linked list which maintains the ordering imposed on it by the...">
<polygon fill="white" stroke="#666666" points="298.12,-30.5 194.38,-30.5 194.38,0 298.12,0 298.12,-30.5"/>
<text text-anchor="start" x="202.38" y="-17" font-family="Helvetica,sans-Serif" font-size="10.00">Cpl::Container::SList</text>
<text text-anchor="middle" x="246.25" y="-5.75" font-family="Helvetica,sans-Serif" font-size="10.00">&lt; ITEM &gt;</text>
</a>
</g>
</g>
<!-- Node15&#45;&gt;Node14 -->
<g id="edge14_Node000014_Node000015" class="edge">
<title>Node15&#45;&gt;Node14</title>
<g id="a_edge14_Node000014_Node000015"><a xlink:title=" ">
<path fill="none" stroke="orange" stroke-dasharray="5,2" d="M309.68,-15.25C343.55,-15.25 384.91,-15.25 416.89,-15.25"/>
<polygon fill="orange" stroke="orange" points="310.02,-11.75 300.02,-15.25 310.02,-18.75 310.02,-11.75"/>
</a>
</g>
<text text-anchor="middle" x="360.75" y="-17" font-family="Helvetica,sans-Serif" font-size="10.00" fill="grey"> &lt; Message &gt;</text>
</g>
<!-- Node16 -->
<g id="Node000016" class="node">
<title>Node16</title>
<g id="a_Node000016"><a xlink:href="class_cpl_1_1_system_1_1_periodic_scheduler.html" target="_top" xlink:title="This concrete class is a &#39;policy&#39; object that is used to add polled based, cooperative monotonic sche...">
<polygon fill="white" stroke="#666666" points="856.25,-50.88 705.25,-50.88 705.25,-31.62 856.25,-31.62 856.25,-50.88"/>
<text text-anchor="middle" x="780.75" y="-37.38" font-family="Helvetica,sans-Serif" font-size="10.00">Cpl::System::PeriodicScheduler</text>
</a>
</g>
</g>
<!-- Node16&#45;&gt;Node1 -->
<g id="edge15_Node000001_Node000016" class="edge">
<title>Node16&#45;&gt;Node1</title>
<g id="a_edge15_Node000001_Node000016"><a xlink:title=" ">
<path fill="none" stroke="#63b8ff" d="M867.95,-47.09C876.34,-47.66 884.76,-48.23 892.9,-48.79"/>
<polygon fill="#63b8ff" stroke="#63b8ff" points="868.28,-43.61 858.07,-46.42 867.81,-50.59 868.28,-43.61"/>
</a>
</g>
</g>
</g>
</svg>
