<?xml version="1.0" encoding="UTF-8" standalone="no"?>
<!DOCTYPE svg PUBLIC "-//W3C//DTD SVG 1.1//EN"
 "http://www.w3.org/Graphics/SVG/1.1/DTD/svg11.dtd">
<!-- Generated by graphviz version 9.0.0 (20230911.1827)
 -->
<!-- Title: Cpl::Itc::CloseSync Pages: 1 -->
<svg width="454pt" height="150pt"
 viewBox="0.00 0.00 453.62 150.00" xmlns="http://www.w3.org/2000/svg" xmlns:xlink="http://www.w3.org/1999/xlink">
<g id="graph0" class="graph" transform="scale(1 1) rotate(0) translate(4 146)">
<title>Cpl::Itc::CloseSync</title>
<!-- Node1 -->
<g id="Node000001" class="node">
<title>Node1</title>
<g id="a_Node000001"><a xlink:title="This partially concrete class implements the synchronous ITC close call for the CloseApi.">
<polygon fill="#999999" stroke="#666666" points="320.5,-19.25 223.5,-19.25 223.5,0 320.5,0 320.5,-19.25"/>
<text text-anchor="middle" x="272" y="-5.75" font-family="Helvetica,sans-Serif" font-size="10.00">Cpl::Itc::CloseSync</text>
</a>
</g>
</g>
<!-- Node2 -->
<g id="Node000002" class="node">
<title>Node2</title>
<g id="a_Node000002"><a xlink:href="class_cpl_1_1_itc_1_1_open_sync.html" target="_top" xlink:title="This partially concrete class implements the synchronous ITC open call for the OpenApi.">
<polygon fill="white" stroke="#666666" points="208.75,-75.5 113.25,-75.5 113.25,-56.25 208.75,-56.25 208.75,-75.5"/>
<text text-anchor="middle" x="161" y="-62" font-family="Helvetica,sans-Serif" font-size="10.00">Cpl::Itc::OpenSync</text>
</a>
</g>
</g>
<!-- Node2&#45;&gt;Node1 -->
<g id="edge1_Node000001_Node000002" class="edge">
<title>Node2&#45;&gt;Node1</title>
<g id="a_edge1_Node000001_Node000002"><a xlink:title=" ">
<path fill="none" stroke="#63b8ff" d="M189.71,-50.84C209.77,-41.04 235.97,-28.23 253.36,-19.73"/>
<polygon fill="#63b8ff" stroke="#63b8ff" points="188.39,-47.59 180.94,-55.13 191.46,-53.88 188.39,-47.59"/>
</a>
</g>
</g>
<!-- Node3 -->
<g id="Node000003" class="node">
<title>Node3</title>
<g id="a_Node000003"><a xlink:href="class_cpl_1_1_itc_1_1_open_api.html" target="_top" xlink:title="This abstract class defines an open interface.">
<polygon fill="white" stroke="#666666" points="88,-142 0,-142 0,-122.75 88,-122.75 88,-142"/>
<text text-anchor="middle" x="44" y="-128.5" font-family="Helvetica,sans-Serif" font-size="10.00">Cpl::Itc::OpenApi</text>
</a>
</g>
</g>
<!-- Node3&#45;&gt;Node2 -->
<g id="edge2_Node000002_Node000003" class="edge">
<title>Node3&#45;&gt;Node2</title>
<g id="a_edge2_Node000002_Node000003"><a xlink:title=" ">
<path fill="none" stroke="#63b8ff" d="M70.54,-116.75C93.29,-104.2 125.36,-86.52 144.57,-75.93"/>
<polygon fill="#63b8ff" stroke="#63b8ff" points="68.91,-113.65 61.84,-121.54 72.29,-119.78 68.91,-113.65"/>
</a>
</g>
</g>
<!-- Node4 -->
<g id="Node000004" class="node">
<title>Node4</title>
<g id="a_Node000004"><a xlink:href="class_cpl_1_1_itc_1_1_open_request.html" target="_top" xlink:title="This abstract class define message types and payloads for a set of ITC services.">
<polygon fill="white" stroke="#666666" points="215.88,-142 106.12,-142 106.12,-122.75 215.88,-122.75 215.88,-142"/>
<text text-anchor="middle" x="161" y="-128.5" font-family="Helvetica,sans-Serif" font-size="10.00">Cpl::Itc::OpenRequest</text>
</a>
</g>
</g>
<!-- Node4&#45;&gt;Node2 -->
<g id="edge3_Node000002_Node000004" class="edge">
<title>Node4&#45;&gt;Node2</title>
<g id="a_edge3_Node000002_Node000004"><a xlink:title=" ">
<path fill="none" stroke="#63b8ff" d="M161,-110.9C161,-99.07 161,-84.79 161,-75.77"/>
<polygon fill="#63b8ff" stroke="#63b8ff" points="157.5,-110.89 161,-120.89 164.5,-110.89 157.5,-110.89"/>
</a>
</g>
</g>
<!-- Node5 -->
<g id="Node000005" class="node">
<title>Node5</title>
<g id="a_Node000005"><a xlink:href="class_cpl_1_1_itc_1_1_post_api.html" target="_top" xlink:title="This abstract class represents the interface used to send messages to a mailbox.">
<polygon fill="white" stroke="#666666" points="318.5,-142 233.5,-142 233.5,-122.75 318.5,-122.75 318.5,-142"/>
<text text-anchor="middle" x="276" y="-128.5" font-family="Helvetica,sans-Serif" font-size="10.00">Cpl::Itc::PostApi</text>
</a>
</g>
</g>
<!-- Node5&#45;&gt;Node2 -->
<g id="edge4_Node000002_Node000005" class="edge">
<title>Node5&#45;&gt;Node2</title>
<g id="a_edge4_Node000002_Node000005"><a xlink:title=" ">
<path fill="none" stroke="#9a32cd" stroke-dasharray="5,2" d="M250.18,-116.89C227.82,-104.35 196.19,-86.61 177.23,-75.98"/>
<polygon fill="#9a32cd" stroke="#9a32cd" points="248.26,-119.83 258.69,-121.67 251.68,-113.72 248.26,-119.83"/>
</a>
</g>
<text text-anchor="middle" x="245.5" y="-95.25" font-family="Helvetica,sans-Serif" font-size="10.00" fill="grey"> m_mbox</text>
</g>
<!-- Node6 -->
<g id="Node000006" class="node">
<title>Node6</title>
<g id="a_Node000006"><a xlink:href="class_cpl_1_1_itc_1_1_close_api.html" target="_top" xlink:title="This abstract class defines an close interface.">
<polygon fill="white" stroke="#666666" points="316.75,-75.5 227.25,-75.5 227.25,-56.25 316.75,-56.25 316.75,-75.5"/>
<text text-anchor="middle" x="272" y="-62" font-family="Helvetica,sans-Serif" font-size="10.00">Cpl::Itc::CloseApi</text>
</a>
</g>
</g>
<!-- Node6&#45;&gt;Node1 -->
<g id="edge5_Node000001_Node000006" class="edge">
<title>Node6&#45;&gt;Node1</title>
<g id="a_edge5_Node000001_Node000006"><a xlink:title=" ">
<path fill="none" stroke="#63b8ff" d="M272,-44.69C272,-35.98 272,-26.24 272,-19.42"/>
<polygon fill="#63b8ff" stroke="#63b8ff" points="268.5,-44.4 272,-54.4 275.5,-44.4 268.5,-44.4"/>
</a>
</g>
</g>
<!-- Node7 -->
<g id="Node000007" class="node">
<title>Node7</title>
<g id="a_Node000007"><a xlink:href="class_cpl_1_1_itc_1_1_close_request.html" target="_top" xlink:title="This abstract class define message types and payloads for a set of ITC services.">
<polygon fill="white" stroke="#666666" points="445.62,-75.5 334.38,-75.5 334.38,-56.25 445.62,-56.25 445.62,-75.5"/>
<text text-anchor="middle" x="390" y="-62" font-family="Helvetica,sans-Serif" font-size="10.00">Cpl::Itc::CloseRequest</text>
</a>
</g>
</g>
<!-- Node7&#45;&gt;Node1 -->
<g id="edge6_Node000001_Node000007" class="edge">
<title>Node7&#45;&gt;Node1</title>
<g id="a_edge6_Node000001_Node000007"><a xlink:title=" ">
<path fill="none" stroke="#63b8ff" d="M360.07,-51.11C338.67,-41.28 310.47,-28.31 291.81,-19.73"/>
<polygon fill="#63b8ff" stroke="#63b8ff" points="358.33,-54.17 368.87,-55.16 361.25,-47.81 358.33,-54.17"/>
</a>
</g>
</g>
</g>
</svg>
