<?xml version="1.0" encoding="UTF-8" standalone="no"?>
<!DOCTYPE svg PUBLIC "-//W3C//DTD SVG 1.1//EN"
 "http://www.w3.org/Graphics/SVG/1.1/DTD/svg11.dtd">
<!-- Generated by graphviz version 9.0.0 (20230911.1827)
 -->
<!-- Title: Cpl::Io::File::Littlefs::BdSpi Pages: 1 -->
<svg width="315pt" height="113pt"
 viewBox="0.00 0.00 314.50 112.88" xmlns="http://www.w3.org/2000/svg" xmlns:xlink="http://www.w3.org/1999/xlink">
<g id="graph0" class="graph" transform="scale(1 1) rotate(0) translate(4 108.88)">
<title>Cpl::Io::File::Littlefs::BdSpi</title>
<!-- Node1 -->
<g id="Node000001" class="node">
<title>Node1</title>
<g id="a_Node000001"><a xlink:title="Concrete Block Driver for a &#39;traditional&#39; SPI based NOR flash.">
<polygon fill="#999999" stroke="#666666" points="306.5,-61.88 208.75,-61.88 208.75,-31.38 306.5,-31.38 306.5,-61.88"/>
<text text-anchor="start" x="216.75" y="-48.38" font-family="Helvetica,sans-Serif" font-size="10.00">Cpl::Io::File::Littlefs</text>
<text text-anchor="middle" x="257.62" y="-37.12" font-family="Helvetica,sans-Serif" font-size="10.00">::BdSpi</text>
</a>
</g>
</g>
<!-- Node2 -->
<g id="Node000002" class="node">
<title>Node2</title>
<g id="a_Node000002"><a xlink:href="class_cpl_1_1_io_1_1_file_1_1_littlefs_1_1_block_driver_api.html" target="_top" xlink:title="This partial abstract class defines the interface for block drivers.">
<polygon fill="white" stroke="#666666" points="121,-104.88 23.25,-104.88 23.25,-74.38 121,-74.38 121,-104.88"/>
<text text-anchor="start" x="31.25" y="-91.38" font-family="Helvetica,sans-Serif" font-size="10.00">Cpl::Io::File::Littlefs</text>
<text text-anchor="middle" x="72.12" y="-80.12" font-family="Helvetica,sans-Serif" font-size="10.00">::BlockDriverApi</text>
</a>
</g>
</g>
<!-- Node2&#45;&gt;Node1 -->
<g id="edge1_Node000001_Node000002" class="edge">
<title>Node2&#45;&gt;Node1</title>
<g id="a_edge1_Node000001_Node000002"><a xlink:title=" ">
<path fill="none" stroke="#63b8ff" d="M132.35,-75.75C156.95,-69.98 185.12,-63.38 208.42,-57.92"/>
<polygon fill="#63b8ff" stroke="#63b8ff" points="131.75,-72.29 122.81,-77.98 133.35,-79.11 131.75,-72.29"/>
</a>
</g>
</g>
<!-- Node3 -->
<g id="Node000003" class="node">
<title>Node3</title>
<g id="a_Node000003"><a xlink:href="class_driver_1_1_s_p_i_1_1_master_half_duplex.html" target="_top" xlink:title="This class defines a non&#45;platform specific interface for an SPI master device driver using HALF&#45;DUPLE...">
<polygon fill="white" stroke="#666666" points="144.25,-56.25 0,-56.25 0,-37 144.25,-37 144.25,-56.25"/>
<text text-anchor="middle" x="72.12" y="-42.75" font-family="Helvetica,sans-Serif" font-size="10.00">Driver::SPI::MasterHalfDuplex</text>
</a>
</g>
</g>
<!-- Node3&#45;&gt;Node1 -->
<g id="edge2_Node000001_Node000003" class="edge">
<title>Node3&#45;&gt;Node1</title>
<g id="a_edge2_Node000001_Node000003"><a xlink:title=" ">
<path fill="none" stroke="#9a32cd" stroke-dasharray="5,2" d="M155.96,-46.62C173.87,-46.62 192.23,-46.62 208.29,-46.62"/>
<polygon fill="#9a32cd" stroke="#9a32cd" points="156.11,-43.13 146.11,-46.63 156.11,-50.13 156.11,-43.13"/>
</a>
</g>
<text text-anchor="middle" x="176.5" y="-48.38" font-family="Helvetica,sans-Serif" font-size="10.00" fill="grey"> m_spi</text>
</g>
<!-- Node4 -->
<g id="Node000004" class="node">
<title>Node4</title>
<g id="a_Node000004"><a xlink:href="class_driver_1_1_d_i_o_1_1_out.html" target="_top" xlink:title="This class defines a generic interface for controlling a single Digital output signal.">
<polygon fill="white" stroke="#666666" points="113.88,-19.25 30.38,-19.25 30.38,0 113.88,0 113.88,-19.25"/>
<text text-anchor="middle" x="72.12" y="-5.75" font-family="Helvetica,sans-Serif" font-size="10.00">Driver::DIO::Out</text>
</a>
</g>
</g>
<!-- Node4&#45;&gt;Node1 -->
<g id="edge3_Node000001_Node000004" class="edge">
<title>Node4&#45;&gt;Node1</title>
<g id="a_edge3_Node000001_Node000004"><a xlink:title=" ">
<path fill="none" stroke="#9a32cd" stroke-dasharray="5,2" d="M125.59,-18.81C145.98,-22.51 169.49,-26.95 190.75,-31.38 196.5,-32.57 202.51,-33.88 208.47,-35.22"/>
<polygon fill="#9a32cd" stroke="#9a32cd" points="126.26,-15.37 115.8,-17.04 125.02,-22.26 126.26,-15.37"/>
</a>
</g>
<text text-anchor="middle" x="176.5" y="-33.38" font-family="Helvetica,sans-Serif" font-size="10.00" fill="grey"> m_cs</text>
</g>
</g>
</svg>
