<?xml version="1.0" encoding="UTF-8" standalone="no"?>
<!DOCTYPE svg PUBLIC "-//W3C//DTD SVG 1.1//EN"
 "http://www.w3.org/Graphics/SVG/1.1/DTD/svg11.dtd">
<!-- Generated by graphviz version 9.0.0 (20230911.1827)
 -->
<!-- Title: Cpl::Itc::CloseRequest Pages: 1 -->
<svg width="727pt" height="503pt"
 viewBox="0.00 0.00 726.50 502.50" xmlns="http://www.w3.org/2000/svg" xmlns:xlink="http://www.w3.org/1999/xlink">
<g id="graph0" class="graph" transform="scale(1 1) rotate(0) translate(4 498.5)">
<title>Cpl::Itc::CloseRequest</title>
<!-- Node1 -->
<g id="Node000001" class="node">
<title>Node1</title>
<g id="a_Node000001"><a xlink:title="This abstract class define message types and payloads for a set of ITC services.">
<polygon fill="#999999" stroke="#666666" points="111.25,-254.88 0,-254.88 0,-235.62 111.25,-235.62 111.25,-254.88"/>
<text text-anchor="middle" x="55.62" y="-241.38" font-family="Helvetica,sans-Serif" font-size="10.00">Cpl::Itc::CloseRequest</text>
</a>
</g>
</g>
<!-- Node2 -->
<g id="Node000002" class="node">
<title>Node2</title>
<g id="a_Node000002"><a xlink:href="class_cpl_1_1_itc_1_1_close_sync.html" target="_top" xlink:title="This partially concrete class implements the synchronous ITC close call for the CloseApi.">
<polygon fill="white" stroke="#666666" points="245.25,-254.88 148.25,-254.88 148.25,-235.62 245.25,-235.62 245.25,-254.88"/>
<text text-anchor="middle" x="196.75" y="-241.38" font-family="Helvetica,sans-Serif" font-size="10.00">Cpl::Itc::CloseSync</text>
</a>
</g>
</g>
<!-- Node1&#45;&gt;Node2 -->
<g id="edge1_Node000001_Node000002" class="edge">
<title>Node1&#45;&gt;Node2</title>
<g id="a_edge1_Node000001_Node000002"><a xlink:title=" ">
<path fill="none" stroke="#63b8ff" d="M122.99,-245.25C131.4,-245.25 139.87,-245.25 147.91,-245.25"/>
<polygon fill="#63b8ff" stroke="#63b8ff" points="123.12,-241.75 113.12,-245.25 123.12,-248.75 123.12,-241.75"/>
</a>
</g>
</g>
<!-- Node3 -->
<g id="Node000003" class="node">
<title>Node3</title>
<g id="a_Node000003"><a xlink:href="class_cpl_1_1_persistent_1_1_indexed_entry_server.html" target="_top" xlink:title=" ">
<polygon fill="white" stroke="#666666" points="718.5,-192.12 590.75,-192.12 590.75,-150.38 718.5,-150.38 718.5,-192.12"/>
<text text-anchor="start" x="598.75" y="-178.62" font-family="Helvetica,sans-Serif" font-size="10.00">Cpl::Persistent::Indexed</text>
<text text-anchor="start" x="598.75" y="-167.38" font-family="Helvetica,sans-Serif" font-size="10.00">EntryServer&lt; Cpl::Logging</text>
<text text-anchor="middle" x="654.62" y="-156.12" font-family="Helvetica,sans-Serif" font-size="10.00">::EntryData_T &gt;</text>
</a>
</g>
</g>
<!-- Node2&#45;&gt;Node3 -->
<g id="edge2_Node000002_Node000003" class="edge">
<title>Node2&#45;&gt;Node3</title>
<g id="a_edge2_Node000002_Node000003"><a xlink:title=" ">
<path fill="none" stroke="#63b8ff" d="M204.08,-224.73C214.69,-194.38 239.22,-138.6 282.25,-115.25 390.85,-56.31 542.16,-115.32 613.45,-149.95"/>
<polygon fill="#63b8ff" stroke="#63b8ff" points="200.86,-223.31 201.06,-233.9 207.51,-225.5 200.86,-223.31"/>
</a>
</g>
</g>
<!-- Node4 -->
<g id="Node000004" class="node">
<title>Node4</title>
<g id="a_Node000004"><a xlink:href="class_ajax_1_1_alerts_1_1_summary.html" target="_top" xlink:title="This class manages the content of the Alert Summary model point.">
<polygon fill="white" stroke="#666666" points="408.88,-451.88 298.38,-451.88 298.38,-432.62 408.88,-432.62 408.88,-451.88"/>
<text text-anchor="middle" x="353.62" y="-438.38" font-family="Helvetica,sans-Serif" font-size="10.00">Ajax::Alerts::Summary</text>
</a>
</g>
</g>
<!-- Node2&#45;&gt;Node4 -->
<g id="edge3_Node000002_Node000004" class="edge">
<title>Node2&#45;&gt;Node4</title>
<g id="a_edge3_Node000002_Node000004"><a xlink:title=" ">
<path fill="none" stroke="#63b8ff" d="M201.6,-266.24C209.63,-303.83 231.77,-382.58 282.25,-424.25 286.92,-428.1 292.31,-431.14 297.99,-433.54"/>
<polygon fill="#63b8ff" stroke="#63b8ff" points="205.08,-265.79 199.7,-256.67 198.22,-267.16 205.08,-265.79"/>
</a>
</g>
</g>
<!-- Node5 -->
<g id="Node000005" class="node">
<title>Node5</title>
<g id="a_Node000005"><a xlink:href="class_ajax_1_1_heating_1_1_io_1_1_api.html" target="_top" xlink:title="This class is responsible for &#39;translating&#39; physical hardware signal to/from model point values.">
<polygon fill="white" stroke="#666666" points="405.88,-414.88 301.38,-414.88 301.38,-395.62 405.88,-395.62 405.88,-414.88"/>
<text text-anchor="middle" x="353.62" y="-401.38" font-family="Helvetica,sans-Serif" font-size="10.00">Ajax::Heating::Io::Api</text>
</a>
</g>
</g>
<!-- Node2&#45;&gt;Node5 -->
<g id="edge4_Node000002_Node000005" class="edge">
<title>Node2&#45;&gt;Node5</title>
<g id="a_edge4_Node000002_Node000005"><a xlink:title=" ">
<path fill="none" stroke="#63b8ff" d="M204.49,-266C215.63,-296.97 240.85,-354.95 282.25,-386.25 287.9,-390.52 294.45,-393.84 301.23,-396.41"/>
<polygon fill="#63b8ff" stroke="#63b8ff" points="207.84,-264.98 201.29,-256.66 201.22,-267.25 207.84,-264.98"/>
</a>
</g>
</g>
<!-- Node6 -->
<g id="Node000006" class="node">
<title>Node6</title>
<g id="a_Node000006"><a xlink:href="class_ajax_1_1_heating_1_1_supervisor_1_1_api.html" target="_top" xlink:title="This class implements the Heating Algorithm Supervisor.">
<polygon fill="white" stroke="#666666" points="425,-488.88 282.25,-488.88 282.25,-469.62 425,-469.62 425,-488.88"/>
<text text-anchor="middle" x="353.62" y="-475.38" font-family="Helvetica,sans-Serif" font-size="10.00">Ajax::Heating::Supervisor::Api</text>
</a>
</g>
</g>
<!-- Node2&#45;&gt;Node6 -->
<g id="edge5_Node000002_Node000006" class="edge">
<title>Node2&#45;&gt;Node6</title>
<g id="a_edge5_Node000002_Node000006"><a xlink:title=" ">
<path fill="none" stroke="#63b8ff" d="M199.49,-266.53C204.27,-310.25 221.61,-410.36 282.25,-461.25 286.02,-464.41 290.27,-467.03 294.77,-469.19"/>
<polygon fill="#63b8ff" stroke="#63b8ff" points="203,-266.45 198.56,-256.83 196.03,-267.12 203,-266.45"/>
</a>
</g>
</g>
<!-- Node8 -->
<g id="Node000008" class="node">
<title>Node8</title>
<g id="a_Node000008"><a xlink:href="class_ajax_1_1_metrics_1_1_api.html" target="_top" xlink:title="This class manages the collection of Metrics and triggering their updates to persistent storage.">
<polygon fill="white" stroke="#666666" points="398.75,-328.88 308.5,-328.88 308.5,-309.62 398.75,-309.62 398.75,-328.88"/>
<text text-anchor="middle" x="353.62" y="-315.38" font-family="Helvetica,sans-Serif" font-size="10.00">Ajax::Metrics::Api</text>
</a>
</g>
</g>
<!-- Node2&#45;&gt;Node8 -->
<g id="edge7_Node000002_Node000008" class="edge">
<title>Node2&#45;&gt;Node8</title>
<g id="a_edge7_Node000002_Node000008"><a xlink:title=" ">
<path fill="none" stroke="#63b8ff" d="M218.61,-261.96C235.04,-274.39 258.99,-290.92 282.25,-301.25 290.43,-304.88 299.49,-307.89 308.31,-310.33"/>
<polygon fill="#63b8ff" stroke="#63b8ff" points="221.11,-259.47 211.06,-256.12 216.83,-265.01 221.11,-259.47"/>
</a>
</g>
</g>
<!-- Node9 -->
<g id="Node000009" class="node">
<title>Node9</title>
<g id="a_Node000009"><a xlink:href="class_ajax_1_1_screen_mgr_1_1_api.html" target="_top" xlink:title="This class implements the Screen Manager.">
<polygon fill="white" stroke="#666666" points="406.25,-291.88 301,-291.88 301,-272.62 406.25,-272.62 406.25,-291.88"/>
<text text-anchor="middle" x="353.62" y="-278.38" font-family="Helvetica,sans-Serif" font-size="10.00">Ajax::ScreenMgr::Api</text>
</a>
</g>
</g>
<!-- Node2&#45;&gt;Node9 -->
<g id="edge8_Node000002_Node000009" class="edge">
<title>Node2&#45;&gt;Node9</title>
<g id="a_edge8_Node000002_Node000009"><a xlink:title=" ">
<path fill="none" stroke="#63b8ff" d="M251.17,-258.01C270.52,-262.63 292.09,-267.79 310.36,-272.15"/>
<polygon fill="#63b8ff" stroke="#63b8ff" points="252.08,-254.63 241.54,-255.71 250.46,-261.44 252.08,-254.63"/>
</a>
</g>
</g>
<!-- Node10 -->
<g id="Node000010" class="node">
<title>Node10</title>
<g id="a_Node000010"><a xlink:href="class_ajax_1_1_ui_1_1_logical_buttons.html" target="_top" xlink:title="This concrete class translates physical button actions into logical UI Button events.">
<polygon fill="white" stroke="#666666" points="413,-254.88 294.25,-254.88 294.25,-235.62 413,-235.62 413,-254.88"/>
<text text-anchor="middle" x="353.62" y="-241.38" font-family="Helvetica,sans-Serif" font-size="10.00">Ajax::Ui::LogicalButtons</text>
</a>
</g>
</g>
<!-- Node2&#45;&gt;Node10 -->
<g id="edge9_Node000002_Node000010" class="edge">
<title>Node2&#45;&gt;Node10</title>
<g id="a_edge9_Node000002_Node000010"><a xlink:title=" ">
<path fill="none" stroke="#63b8ff" d="M256.87,-245.25C268.99,-245.25 281.75,-245.25 293.86,-245.25"/>
<polygon fill="#63b8ff" stroke="#63b8ff" points="256.99,-241.75 246.99,-245.25 256.99,-248.75 256.99,-241.75"/>
</a>
</g>
</g>
<!-- Node11 -->
<g id="Node000011" class="node">
<title>Node11</title>
<g id="a_Node000011"><a xlink:href="class_ajax_1_1_ui_1_1_status_indicator_1_1_api.html" target="_top" xlink:title="This class manages the what color/on&#45;off&#45;state of the RGB LED.">
<polygon fill="white" stroke="#666666" points="422.75,-217.88 284.5,-217.88 284.5,-198.62 422.75,-198.62 422.75,-217.88"/>
<text text-anchor="middle" x="353.62" y="-204.38" font-family="Helvetica,sans-Serif" font-size="10.00">Ajax::Ui::StatusIndicator::Api</text>
</a>
</g>
</g>
<!-- Node2&#45;&gt;Node11 -->
<g id="edge10_Node000002_Node000011" class="edge">
<title>Node2&#45;&gt;Node11</title>
<g id="a_edge10_Node000002_Node000011"><a xlink:title=" ">
<path fill="none" stroke="#63b8ff" d="M251.17,-232.49C270.52,-227.87 292.09,-222.71 310.36,-218.35"/>
<polygon fill="#63b8ff" stroke="#63b8ff" points="250.46,-229.06 241.54,-234.79 252.08,-235.87 250.46,-229.06"/>
</a>
</g>
</g>
<!-- Node12 -->
<g id="Node000012" class="node">
<title>Node12</title>
<g id="a_Node000012"><a xlink:href="class_cpl_1_1_logging_1_1_log_sink.html" target="_top" xlink:title="This class is responsible for consuming the application&#39;s Log buffer and &#39;dispatching&#39; log entries.">
<polygon fill="white" stroke="#666666" points="408.5,-180.88 298.75,-180.88 298.75,-161.62 408.5,-161.62 408.5,-180.88"/>
<text text-anchor="middle" x="353.62" y="-167.38" font-family="Helvetica,sans-Serif" font-size="10.00">Cpl::Logging::LogSink</text>
</a>
</g>
</g>
<!-- Node2&#45;&gt;Node12 -->
<g id="edge11_Node000002_Node000012" class="edge">
<title>Node2&#45;&gt;Node12</title>
<g id="a_edge11_Node000002_Node000012"><a xlink:title=" ">
<path fill="none" stroke="#63b8ff" d="M218.61,-228.54C235.04,-216.11 258.99,-199.58 282.25,-189.25 289.17,-186.18 296.71,-183.56 304.2,-181.35"/>
<polygon fill="#63b8ff" stroke="#63b8ff" points="216.83,-225.49 211.06,-234.38 221.11,-231.03 216.83,-225.49"/>
</a>
</g>
</g>
<!-- Node13 -->
<g id="Node000013" class="node">
<title>Node13</title>
<g id="a_Node000013"><a xlink:href="class_cpl_1_1_m_app_1_1_manager.html" target="_top" xlink:title="This concrete class implements the MApp Manager.">
<polygon fill="white" stroke="#666666" points="404.75,-143.88 302.5,-143.88 302.5,-124.62 404.75,-124.62 404.75,-143.88"/>
<text text-anchor="middle" x="353.62" y="-130.38" font-family="Helvetica,sans-Serif" font-size="10.00">Cpl::MApp::Manager</text>
</a>
</g>
</g>
<!-- Node2&#45;&gt;Node13 -->
<g id="edge12_Node000002_Node000013" class="edge">
<title>Node2&#45;&gt;Node13</title>
<g id="a_edge12_Node000002_Node000013"><a xlink:title=" ">
<path fill="none" stroke="#63b8ff" d="M210.04,-226.05C224.68,-204.78 251.09,-171.01 282.25,-152.25 288.41,-148.54 295.31,-145.59 302.33,-143.25"/>
<polygon fill="#63b8ff" stroke="#63b8ff" points="207.31,-223.85 204.68,-234.11 213.13,-227.73 207.31,-223.85"/>
</a>
</g>
</g>
<!-- Node14 -->
<g id="Node000014" class="node">
<title>Node14</title>
<g id="a_Node000014"><a xlink:href="class_cpl_1_1_persistent_1_1_indexed_entry_server.html" target="_top" xlink:title="This concrete template class implements the ITC messaging (and Model Point monitoring) needed to prov...">
<polygon fill="white" stroke="#666666" points="412.25,-377.5 295,-377.5 295,-347 412.25,-347 412.25,-377.5"/>
<text text-anchor="start" x="303" y="-364" font-family="Helvetica,sans-Serif" font-size="10.00">Cpl::Persistent::Indexed</text>
<text text-anchor="middle" x="353.62" y="-352.75" font-family="Helvetica,sans-Serif" font-size="10.00">EntryServer&lt; ENTRY &gt;</text>
</a>
</g>
</g>
<!-- Node2&#45;&gt;Node14 -->
<g id="edge13_Node000002_Node000014" class="edge">
<title>Node2&#45;&gt;Node14</title>
<g id="a_edge13_Node000002_Node000014"><a xlink:title=" ">
<path fill="none" stroke="#63b8ff" d="M210.76,-264.62C225.72,-285.53 252.14,-318.48 282.25,-338.25 287,-341.37 292.19,-344.12 297.54,-346.55"/>
<polygon fill="#63b8ff" stroke="#63b8ff" points="213.64,-262.63 205.05,-256.42 207.89,-266.63 213.64,-262.63"/>
</a>
</g>
</g>
<!-- Node15 -->
<g id="Node000015" class="node">
<title>Node15</title>
<g id="a_Node000015"><a xlink:href="class_cpl_1_1_persistent_1_1_record_server.html" target="_top" xlink:title="This concrete class provides an Event driven Runnable object for executing the read/write operation t...">
<polygon fill="white" stroke="#666666" points="425,-67.88 282.25,-67.88 282.25,-48.62 425,-48.62 425,-67.88"/>
<text text-anchor="middle" x="353.62" y="-54.38" font-family="Helvetica,sans-Serif" font-size="10.00">Cpl::Persistent::RecordServer</text>
</a>
</g>
</g>
<!-- Node2&#45;&gt;Node15 -->
<g id="edge15_Node000002_Node000015" class="edge">
<title>Node2&#45;&gt;Node15</title>
<g id="a_edge15_Node000002_Node000015"><a xlink:title=" ">
<path fill="none" stroke="#63b8ff" d="M200.16,-224.37C205.29,-189.65 220.57,-120.1 263.25,-82.25 270.1,-76.17 278.33,-71.61 286.99,-68.2"/>
<polygon fill="#63b8ff" stroke="#63b8ff" points="196.73,-223.6 198.89,-233.97 203.67,-224.51 196.73,-223.6"/>
</a>
</g>
</g>
<!-- Node16 -->
<g id="Node000016" class="node">
<title>Node16</title>
<g id="a_Node000016"><a xlink:href="class_driver_1_1_a_i_o_1_1_ajax_1_1_thermistor.html" target="_top" xlink:title="This class is responsible for sampling the on&#45;board temperature sensor every N milliseconds and popul...">
<polygon fill="white" stroke="#666666" points="399.12,-30.5 308.12,-30.5 308.12,0 399.12,0 399.12,-30.5"/>
<text text-anchor="start" x="316.12" y="-17" font-family="Helvetica,sans-Serif" font-size="10.00">Driver::AIO::Ajax::</text>
<text text-anchor="middle" x="353.62" y="-5.75" font-family="Helvetica,sans-Serif" font-size="10.00">Thermistor</text>
</a>
</g>
</g>
<!-- Node2&#45;&gt;Node16 -->
<g id="edge16_Node000002_Node000016" class="edge">
<title>Node2&#45;&gt;Node16</title>
<g id="a_edge16_Node000002_Node000016"><a xlink:title=" ">
<path fill="none" stroke="#63b8ff" d="M200.24,-224.13C206.32,-182.39 225.78,-89.09 282.25,-39.25 289.51,-32.84 298.56,-28.13 307.72,-24.67"/>
<polygon fill="#63b8ff" stroke="#63b8ff" points="196.8,-223.45 198.96,-233.82 203.74,-224.37 196.8,-223.45"/>
</a>
</g>
</g>
<!-- Node7 -->
<g id="Node000007" class="node">
<title>Node7</title>
<g id="a_Node000007"><a xlink:href="class_ajax_1_1_heating_1_1_simulated_1_1_house.html" target="_top" xlink:title="This class glues the House Simulation into the Heater Application.">
<polygon fill="white" stroke="#666666" points="715.12,-494.5 594.12,-494.5 594.12,-464 715.12,-464 715.12,-494.5"/>
<text text-anchor="start" x="602.12" y="-481" font-family="Helvetica,sans-Serif" font-size="10.00">Ajax::Heating::Simulated</text>
<text text-anchor="middle" x="654.62" y="-469.75" font-family="Helvetica,sans-Serif" font-size="10.00">::House</text>
</a>
</g>
</g>
<!-- Node6&#45;&gt;Node7 -->
<g id="edge6_Node000006_Node000007" class="edge">
<title>Node6&#45;&gt;Node7</title>
<g id="a_edge6_Node000006_Node000007"><a xlink:title=" ">
<path fill="none" stroke="#63b8ff" d="M436.86,-479.25C486.58,-479.25 548.83,-479.25 593.86,-479.25"/>
<polygon fill="#63b8ff" stroke="#63b8ff" points="437,-475.75 427,-479.25 437,-482.75 437,-475.75"/>
</a>
</g>
</g>
<!-- Node14&#45;&gt;Node3 -->
<g id="edge14_Node000014_Node000003" class="edge">
<title>Node14&#45;&gt;Node3</title>
<g id="a_edge14_Node000014_Node000003"><a xlink:title=" ">
<path fill="none" stroke="orange" stroke-dasharray="5,2" d="M417.1,-342.09C419.8,-340.86 422.44,-339.58 425,-338.25 506.1,-296.05 590.04,-227.01 629.88,-192.41"/>
<polygon fill="orange" stroke="orange" points="415.74,-338.86 407.89,-345.98 418.47,-345.31 415.74,-338.86"/>
</a>
</g>
<text text-anchor="middle" x="507.88" y="-329" font-family="Helvetica,sans-Serif" font-size="10.00" fill="grey"> &lt; Cpl::Logging::EntryData_T &gt;</text>
</g>
<!-- Node17 -->
<g id="Node000017" class="node">
<title>Node17</title>
<g id="a_Node000017"><a xlink:href="class_driver_1_1_a_i_o_1_1_eros_1_1_thermistor.html" target="_top" xlink:title="This class is an Eros specific extension of the Driver::AIO::Ajax::Thermistor driver.">
<polygon fill="white" stroke="#666666" points="700.5,-30.5 608.75,-30.5 608.75,0 700.5,0 700.5,-30.5"/>
<text text-anchor="start" x="616.75" y="-17" font-family="Helvetica,sans-Serif" font-size="10.00">Driver::AIO::Eros::</text>
<text text-anchor="middle" x="654.62" y="-5.75" font-family="Helvetica,sans-Serif" font-size="10.00">Thermistor</text>
</a>
</g>
</g>
<!-- Node16&#45;&gt;Node17 -->
<g id="edge17_Node000016_Node000017" class="edge">
<title>Node16&#45;&gt;Node17</title>
<g id="a_edge17_Node000016_Node000017"><a xlink:title=" ">
<path fill="none" stroke="#63b8ff" d="M410.76,-15.25C468,-15.25 555.69,-15.25 608.56,-15.25"/>
<polygon fill="#63b8ff" stroke="#63b8ff" points="410.9,-11.75 400.9,-15.25 410.9,-18.75 410.9,-11.75"/>
</a>
</g>
</g>
</g>
</svg>
