<?xml version="1.0" encoding="UTF-8" standalone="no"?>
<!DOCTYPE svg PUBLIC "-//W3C//DTD SVG 1.1//EN"
 "http://www.w3.org/Graphics/SVG/1.1/DTD/svg11.dtd">
<!-- Generated by graphviz version 9.0.0 (20230911.1827)
 -->
<!-- Title: Cpl::Io::IsEos Pages: 1 -->
<svg width="696pt" height="691pt"
 viewBox="0.00 0.00 696.25 691.25" xmlns="http://www.w3.org/2000/svg" xmlns:xlink="http://www.w3.org/1999/xlink">
<g id="graph0" class="graph" transform="scale(1 1) rotate(0) translate(4 687.25)">
<title>Cpl::Io::IsEos</title>
<!-- Node1 -->
<g id="Node000001" class="node">
<title>Node1</title>
<g id="a_Node000001"><a xlink:title="This abstract class defines a isEos() operation that is intended to be used Input and Output streams.">
<polygon fill="#999999" stroke="#666666" points="72.25,-242.25 0,-242.25 0,-223 72.25,-223 72.25,-242.25"/>
<text text-anchor="middle" x="36.12" y="-228.75" font-family="Helvetica,sans-Serif" font-size="10.00">Cpl::Io::IsEos</text>
</a>
</g>
</g>
<!-- Node2 -->
<g id="Node000002" class="node">
<title>Node2</title>
<g id="a_Node000002"><a xlink:href="class_cpl_1_1_io_1_1_input.html" target="_top" xlink:title="This partially abstract class defines a interface for operating on an input stream (example of a stre...">
<polygon fill="white" stroke="#666666" points="181.25,-292.25 112,-292.25 112,-273 181.25,-273 181.25,-292.25"/>
<text text-anchor="middle" x="146.62" y="-278.75" font-family="Helvetica,sans-Serif" font-size="10.00">Cpl::Io::Input</text>
</a>
</g>
</g>
<!-- Node1&#45;&gt;Node2 -->
<g id="edge1_Node000001_Node000002" class="edge">
<title>Node1&#45;&gt;Node2</title>
<g id="a_edge1_Node000001_Node000002"><a xlink:title=" ">
<path fill="none" stroke="#63b8ff" d="M69.43,-247.51C86.94,-255.58 108.12,-265.34 123.7,-272.52"/>
<polygon fill="#63b8ff" stroke="#63b8ff" points="71,-244.38 60.46,-243.38 68.07,-250.74 71,-244.38"/>
</a>
</g>
</g>
<!-- Node23 -->
<g id="Node000023" class="node">
<title>Node23</title>
<g id="a_Node000023"><a xlink:href="class_cpl_1_1_io_1_1_output.html" target="_top" xlink:title="This partially abstract class defines a interface for operating on an output stream (example of a str...">
<polygon fill="white" stroke="#666666" points="185,-224.25 108.25,-224.25 108.25,-205 185,-205 185,-224.25"/>
<text text-anchor="middle" x="146.62" y="-210.75" font-family="Helvetica,sans-Serif" font-size="10.00">Cpl::Io::Output</text>
</a>
</g>
</g>
<!-- Node1&#45;&gt;Node23 -->
<g id="edge22_Node000001_Node000023" class="edge">
<title>Node1&#45;&gt;Node23</title>
<g id="a_edge22_Node000001_Node000023"><a xlink:title=" ">
<path fill="none" stroke="#63b8ff" d="M83.76,-224.89C91.78,-223.56 100.03,-222.19 107.78,-220.9"/>
<polygon fill="#63b8ff" stroke="#63b8ff" points="83.44,-221.39 74.15,-226.48 84.58,-228.3 83.44,-221.39"/>
</a>
</g>
</g>
<!-- Node3 -->
<g id="Node000003" class="node">
<title>Node3</title>
<g id="a_Node000003"><a xlink:href="class_cpl_1_1_io_1_1_file_1_1_input_api.html" target="_top" xlink:title="This abstract class defines the interface for a Random Access Input File.">
<polygon fill="white" stroke="#666666" points="333.75,-646.25 230,-646.25 230,-627 333.75,-627 333.75,-646.25"/>
<text text-anchor="middle" x="281.88" y="-632.75" font-family="Helvetica,sans-Serif" font-size="10.00">Cpl::Io::File::InputApi</text>
</a>
</g>
</g>
<!-- Node2&#45;&gt;Node3 -->
<g id="edge2_Node000002_Node000003" class="edge">
<title>Node2&#45;&gt;Node3</title>
<g id="a_edge2_Node000002_Node000003"><a xlink:title=" ">
<path fill="none" stroke="#63b8ff" d="M149.5,-304.11C155.73,-370.7 177.84,-572 221,-618.62 223.95,-621.81 227.44,-624.44 231.23,-626.61"/>
<polygon fill="#63b8ff" stroke="#63b8ff" points="152.99,-303.82 148.6,-294.18 146.02,-304.45 152.99,-303.82"/>
</a>
</g>
</g>
<!-- Node8 -->
<g id="Node000008" class="node">
<title>Node8</title>
<g id="a_Node000008"><a xlink:href="class_cpl_1_1_io_1_1_input_output.html" target="_top" xlink:title="This abstract class defines a interface for operating on an input&#45;output stream (example of a stream ...">
<polygon fill="white" stroke="#666666" points="331.12,-320.25 232.62,-320.25 232.62,-301 331.12,-301 331.12,-320.25"/>
<text text-anchor="middle" x="281.88" y="-306.75" font-family="Helvetica,sans-Serif" font-size="10.00">Cpl::Io::InputOutput</text>
</a>
</g>
</g>
<!-- Node2&#45;&gt;Node8 -->
<g id="edge7_Node000002_Node000008" class="edge">
<title>Node2&#45;&gt;Node8</title>
<g id="a_edge7_Node000002_Node000008"><a xlink:title=" ">
<path fill="none" stroke="#63b8ff" d="M192.61,-292.08C205.57,-294.8 219.76,-297.78 232.89,-300.54"/>
<polygon fill="#63b8ff" stroke="#63b8ff" points="193.58,-288.71 183.08,-290.07 192.14,-295.56 193.58,-288.71"/>
</a>
</g>
</g>
<!-- Node21 -->
<g id="Node000021" class="node">
<title>Node21</title>
<g id="a_Node000021"><a xlink:href="class_cpl_1_1_io_1_1_stdio_1_1_input__.html" target="_top" xlink:title="This concrete class implements a Input stream using the underlying platform&#39;s native OS &#39;file interfa...">
<polygon fill="white" stroke="#666666" points="332.62,-83.25 231.12,-83.25 231.12,-64 332.62,-64 332.62,-83.25"/>
<text text-anchor="middle" x="281.88" y="-69.75" font-family="Helvetica,sans-Serif" font-size="10.00">Cpl::Io::Stdio::Input_</text>
</a>
</g>
</g>
<!-- Node2&#45;&gt;Node21 -->
<g id="edge20_Node000002_Node000021" class="edge">
<title>Node2&#45;&gt;Node21</title>
<g id="a_edge20_Node000002_Node000021"><a xlink:title=" ">
<path fill="none" stroke="#63b8ff" d="M164.64,-264.05C171.83,-255.35 179.74,-244.52 185,-233.62 213.32,-175 175.98,-138.66 221,-91.62 224,-88.49 227.53,-85.89 231.34,-83.75"/>
<polygon fill="#63b8ff" stroke="#63b8ff" points="162.17,-261.56 158.27,-271.41 167.46,-266.14 162.17,-261.56"/>
</a>
</g>
</g>
<!-- Node4 -->
<g id="Node000004" class="node">
<title>Node4</title>
<g id="a_Node000004"><a xlink:href="class_cpl_1_1_io_1_1_file_1_1_input.html" target="_top" xlink:title="This concrete class provides a platform independent &#39;standard&#39; implementation of a Cpl::Io::File::Inp...">
<polygon fill="white" stroke="#666666" points="490.38,-683.25 400.88,-683.25 400.88,-664 490.38,-664 490.38,-683.25"/>
<text text-anchor="middle" x="445.62" y="-669.75" font-family="Helvetica,sans-Serif" font-size="10.00">Cpl::Io::File::Input</text>
</a>
</g>
</g>
<!-- Node3&#45;&gt;Node4 -->
<g id="edge3_Node000003_Node000004" class="edge">
<title>Node3&#45;&gt;Node4</title>
<g id="a_edge3_Node000003_Node000004"><a xlink:title=" ">
<path fill="none" stroke="#63b8ff" d="M338.1,-649.26C358.45,-653.91 381.23,-659.12 400.48,-663.53"/>
<polygon fill="#63b8ff" stroke="#63b8ff" points="339.08,-645.89 328.55,-647.07 337.52,-652.71 339.08,-645.89"/>
</a>
</g>
</g>
<!-- Node5 -->
<g id="Node000005" class="node">
<title>Node5</title>
<g id="a_Node000005"><a xlink:href="class_cpl_1_1_io_1_1_file_1_1_input_output_api.html" target="_top" xlink:title="This abstract class defines the interface for a Random Access Input Output File.">
<polygon fill="white" stroke="#666666" points="512.12,-646.25 379.12,-646.25 379.12,-627 512.12,-627 512.12,-646.25"/>
<text text-anchor="middle" x="445.62" y="-632.75" font-family="Helvetica,sans-Serif" font-size="10.00">Cpl::Io::File::InputOutputApi</text>
</a>
</g>
</g>
<!-- Node3&#45;&gt;Node5 -->
<g id="edge4_Node000003_Node000005" class="edge">
<title>Node3&#45;&gt;Node5</title>
<g id="a_edge4_Node000003_Node000005"><a xlink:title=" ">
<path fill="none" stroke="#63b8ff" d="M345.25,-636.62C356.2,-636.62 367.62,-636.62 378.66,-636.62"/>
<polygon fill="#63b8ff" stroke="#63b8ff" points="345.57,-633.13 335.57,-636.63 345.57,-640.13 345.57,-633.13"/>
</a>
</g>
</g>
<!-- Node6 -->
<g id="Node000006" class="node">
<title>Node6</title>
<g id="a_Node000006"><a xlink:href="class_cpl_1_1_io_1_1_file_1_1_input_output.html" target="_top" xlink:title="This concrete class provides a platform independent &#39;standard&#39; implementation of an InputOutputFileAp...">
<polygon fill="white" stroke="#666666" points="677.75,-664.25 559,-664.25 559,-645 677.75,-645 677.75,-664.25"/>
<text text-anchor="middle" x="618.38" y="-650.75" font-family="Helvetica,sans-Serif" font-size="10.00">Cpl::Io::File::InputOutput</text>
</a>
</g>
</g>
<!-- Node5&#45;&gt;Node6 -->
<g id="edge5_Node000005_Node000006" class="edge">
<title>Node5&#45;&gt;Node6</title>
<g id="a_edge5_Node000005_Node000006"><a xlink:title=" ">
<path fill="none" stroke="#63b8ff" d="M523.42,-644.72C535.27,-645.97 547.35,-647.24 558.72,-648.44"/>
<polygon fill="#63b8ff" stroke="#63b8ff" points="523.97,-641.26 513.66,-643.69 523.24,-648.22 523.97,-641.26"/>
</a>
</g>
</g>
<!-- Node7 -->
<g id="Node000007" class="node">
<title>Node7</title>
<g id="a_Node000007"><a xlink:href="class_cpl_1_1_io_1_1_file_1_1_null.html" target="_top" xlink:title="This concrete class implements a NULL InputOutputApi File that all of its input operations return &#39;En...">
<polygon fill="white" stroke="#666666" points="660.88,-627.25 575.88,-627.25 575.88,-608 660.88,-608 660.88,-627.25"/>
<text text-anchor="middle" x="618.38" y="-613.75" font-family="Helvetica,sans-Serif" font-size="10.00">Cpl::Io::File::Null</text>
</a>
</g>
</g>
<!-- Node5&#45;&gt;Node7 -->
<g id="edge6_Node000005_Node000007" class="edge">
<title>Node5&#45;&gt;Node7</title>
<g id="a_edge6_Node000005_Node000007"><a xlink:title=" ">
<path fill="none" stroke="#63b8ff" d="M523.49,-628.07C541.37,-626.08 559.75,-624.04 575.45,-622.29"/>
<polygon fill="#63b8ff" stroke="#63b8ff" points="523.21,-624.58 513.66,-629.17 523.98,-631.54 523.21,-624.58"/>
</a>
</g>
</g>
<!-- Node9 -->
<g id="Node000009" class="node">
<title>Node9</title>
<g id="a_Node000009"><a xlink:href="class_cpl_1_1_io_1_1_null.html" target="_top" xlink:title="This concrete class implements a NULL InputOutput stream &#45; that all of its input operations return &#39;E...">
<polygon fill="white" stroke="#666666" points="478,-572.25 413.25,-572.25 413.25,-553 478,-553 478,-572.25"/>
<text text-anchor="middle" x="445.62" y="-558.75" font-family="Helvetica,sans-Serif" font-size="10.00">Cpl::Io::Null</text>
</a>
</g>
</g>
<!-- Node8&#45;&gt;Node9 -->
<g id="edge8_Node000008_Node000009" class="edge">
<title>Node8&#45;&gt;Node9</title>
<g id="a_edge8_Node000008_Node000009"><a xlink:title=" ">
<path fill="none" stroke="#63b8ff" d="M285.3,-331.76C291.71,-377.62 313.37,-486.78 378.75,-544.62 388.16,-552.95 401.07,-557.47 412.97,-559.9"/>
<polygon fill="#63b8ff" stroke="#63b8ff" points="288.78,-331.35 284.04,-321.87 281.83,-332.23 288.78,-331.35"/>
</a>
</g>
</g>
<!-- Node10 -->
<g id="Node000010" class="node">
<title>Node10</title>
<g id="a_Node000010"><a xlink:href="class_cpl_1_1_io_1_1_ram_1_1_input_output.html" target="_top" xlink:title="This concrete class implements an InputOutput stream using a Ring Buffer.">
<polygon fill="white" stroke="#666666" points="507.25,-535.25 384,-535.25 384,-516 507.25,-516 507.25,-535.25"/>
<text text-anchor="middle" x="445.62" y="-521.75" font-family="Helvetica,sans-Serif" font-size="10.00">Cpl::Io::Ram::InputOutput</text>
</a>
</g>
</g>
<!-- Node8&#45;&gt;Node10 -->
<g id="edge9_Node000008_Node000010" class="edge">
<title>Node8&#45;&gt;Node10</title>
<g id="a_edge9_Node000008_Node000010"><a xlink:title=" ">
<path fill="none" stroke="#63b8ff" d="M287.19,-331.53C296.56,-371.62 322.6,-459.49 378.75,-506.62 383.03,-510.22 387.97,-513.14 393.16,-515.5"/>
<polygon fill="#63b8ff" stroke="#63b8ff" points="290.65,-331 285.08,-321.99 283.82,-332.51 290.65,-331"/>
</a>
</g>
</g>
<!-- Node11 -->
<g id="Node000011" class="node">
<title>Node11</title>
<g id="a_Node000011"><a xlink:href="class_cpl_1_1_io_1_1_serial_1_1_adafruit_1_1_nrf5_1_1_b_l_e_1_1_input_output.html" target="_top" xlink:title="This concrete class implements the InputOutput stream interface as a wrapper around Adafruit&#39;s BLEUar...">
<polygon fill="white" stroke="#666666" points="504.62,-497.88 386.62,-497.88 386.62,-467.38 504.62,-467.38 504.62,-497.88"/>
<text text-anchor="start" x="394.62" y="-484.38" font-family="Helvetica,sans-Serif" font-size="10.00">Cpl::Io::Serial::Adafruit</text>
<text text-anchor="middle" x="445.62" y="-473.12" font-family="Helvetica,sans-Serif" font-size="10.00">::Nrf5::BLE::InputOutput</text>
</a>
</g>
</g>
<!-- Node8&#45;&gt;Node11 -->
<g id="edge10_Node000008_Node000011" class="edge">
<title>Node8&#45;&gt;Node11</title>
<g id="a_edge10_Node000008_Node000011"><a xlink:title=" ">
<path fill="none" stroke="#63b8ff" d="M291.1,-330.86C304.8,-362.2 335.19,-422.56 378.75,-457.62 383.13,-461.15 388.07,-464.22 393.21,-466.88"/>
<polygon fill="#63b8ff" stroke="#63b8ff" points="294.37,-329.62 287.26,-321.77 287.93,-332.34 294.37,-329.62"/>
</a>
</g>
</g>
<!-- Node12 -->
<g id="Node000012" class="node">
<title>Node12</title>
<g id="a_Node000012"><a xlink:href="class_cpl_1_1_io_1_1_serial_1_1_adafruit_1_1_nrf5_1_1_input_output.html" target="_top" xlink:title="This concrete class implements the InputOutput stream interface as a wrapper around Adafruit&#39;s Arduin...">
<polygon fill="white" stroke="#666666" points="500.88,-448.88 390.38,-448.88 390.38,-418.38 500.88,-418.38 500.88,-448.88"/>
<text text-anchor="start" x="398.38" y="-435.38" font-family="Helvetica,sans-Serif" font-size="10.00">Cpl::Io::Serial::Adafruit</text>
<text text-anchor="middle" x="445.62" y="-424.12" font-family="Helvetica,sans-Serif" font-size="10.00">::Nrf5::InputOutput</text>
</a>
</g>
</g>
<!-- Node8&#45;&gt;Node12 -->
<g id="edge11_Node000008_Node000012" class="edge">
<title>Node8&#45;&gt;Node12</title>
<g id="a_edge11_Node000008_Node000012"><a xlink:title=" ">
<path fill="none" stroke="#63b8ff" d="M297.14,-329.55C314.37,-351.27 345.25,-386.7 378.75,-408.62 384.07,-412.11 389.95,-415.21 395.94,-417.94"/>
<polygon fill="#63b8ff" stroke="#63b8ff" points="300.05,-327.59 291.15,-321.83 294.52,-331.88 300.05,-327.59"/>
</a>
</g>
</g>
<!-- Node13 -->
<g id="Node000013" class="node">
<title>Node13</title>
<g id="a_Node000013"><a xlink:href="class_cpl_1_1_io_1_1_serial_1_1_arduino_1_1_input_output.html" target="_top" xlink:title="This concrete class implements the InputOutput stream interface as a wrapper around Arduino Serial cl...">
<polygon fill="white" stroke="#666666" points="500.5,-399.88 390.75,-399.88 390.75,-369.38 500.5,-369.38 500.5,-399.88"/>
<text text-anchor="start" x="398.75" y="-386.38" font-family="Helvetica,sans-Serif" font-size="10.00">Cpl::Io::Serial::Arduino</text>
<text text-anchor="middle" x="445.62" y="-375.12" font-family="Helvetica,sans-Serif" font-size="10.00">::InputOutput</text>
</a>
</g>
</g>
<!-- Node8&#45;&gt;Node13 -->
<g id="edge12_Node000008_Node000013" class="edge">
<title>Node8&#45;&gt;Node13</title>
<g id="a_edge12_Node000008_Node000013"><a xlink:title=" ">
<path fill="none" stroke="#63b8ff" d="M310.98,-326.02C329.89,-336.12 355.5,-349.31 378.75,-359.62 385.91,-362.8 393.6,-365.95 401.12,-368.89"/>
<polygon fill="#63b8ff" stroke="#63b8ff" points="312.76,-323 302.3,-321.34 309.44,-329.17 312.76,-323"/>
</a>
</g>
</g>
<!-- Node14 -->
<g id="Node000014" class="node">
<title>Node14</title>
<g id="a_Node000014"><a xlink:href="class_cpl_1_1_io_1_1_serial_1_1_phony_stdio_1_1_input_output.html" target="_top" xlink:title="This concrete class implements the InputOutput stream interface built on top the C Library&#39;s fread/fw...">
<polygon fill="white" stroke="#666666" points="508.75,-350.88 382.5,-350.88 382.5,-320.38 508.75,-320.38 508.75,-350.88"/>
<text text-anchor="start" x="390.5" y="-337.38" font-family="Helvetica,sans-Serif" font-size="10.00">Cpl::Io::Serial::PhonyStdio</text>
<text text-anchor="middle" x="445.62" y="-326.12" font-family="Helvetica,sans-Serif" font-size="10.00">::InputOutput</text>
</a>
</g>
</g>
<!-- Node8&#45;&gt;Node14 -->
<g id="edge13_Node000008_Node000014" class="edge">
<title>Node8&#45;&gt;Node14</title>
<g id="a_edge13_Node000008_Node000014"><a xlink:title=" ">
<path fill="none" stroke="#63b8ff" d="M342.49,-319.84C355.38,-321.83 369.04,-323.94 382.03,-325.95"/>
<polygon fill="#63b8ff" stroke="#63b8ff" points="343.32,-316.43 332.9,-318.36 342.25,-323.34 343.32,-316.43"/>
</a>
</g>
</g>
<!-- Node15 -->
<g id="Node000015" class="node">
<title>Node15</title>
<g id="a_Node000015"><a xlink:href="class_cpl_1_1_io_1_1_serial_1_1_s_t_1_1_m32_f4_1_1_input_output.html" target="_top" xlink:title="This concrete class implements the InputOutput stream interface built on top of ST HAL Layer/SDK.">
<polygon fill="white" stroke="#666666" points="498.62,-301.88 392.62,-301.88 392.62,-271.38 498.62,-271.38 498.62,-301.88"/>
<text text-anchor="start" x="400.62" y="-288.38" font-family="Helvetica,sans-Serif" font-size="10.00">Cpl::Io::Serial::ST</text>
<text text-anchor="middle" x="445.62" y="-277.12" font-family="Helvetica,sans-Serif" font-size="10.00">::M32F4::InputOutput</text>
</a>
</g>
</g>
<!-- Node8&#45;&gt;Node15 -->
<g id="edge14_Node000008_Node000015" class="edge">
<title>Node8&#45;&gt;Node15</title>
<g id="a_edge14_Node000008_Node000015"><a xlink:title=" ">
<path fill="none" stroke="#63b8ff" d="M342.46,-301.78C358.76,-299.37 376.31,-296.76 392.18,-294.41"/>
<polygon fill="#63b8ff" stroke="#63b8ff" points="342.28,-298.27 332.9,-303.2 343.31,-305.2 342.28,-298.27"/>
</a>
</g>
</g>
<!-- Node16 -->
<g id="Node000016" class="node">
<title>Node16</title>
<g id="a_Node000016"><a xlink:href="class_cpl_1_1_io_1_1_socket_1_1_input_output.html" target="_top" xlink:title="This concrete class provides a platform independent &#39;standard&#39; implementation of an InputOutput strea...">
<polygon fill="white" stroke="#666666" points="512.5,-253.25 378.75,-253.25 378.75,-234 512.5,-234 512.5,-253.25"/>
<text text-anchor="middle" x="445.62" y="-239.75" font-family="Helvetica,sans-Serif" font-size="10.00">Cpl::Io::Socket::InputOutput</text>
</a>
</g>
</g>
<!-- Node8&#45;&gt;Node16 -->
<g id="edge15_Node000008_Node000016" class="edge">
<title>Node8&#45;&gt;Node16</title>
<g id="a_edge15_Node000008_Node000016"><a xlink:title=" ">
<path fill="none" stroke="#63b8ff" d="M310.41,-295.14C329.25,-284.98 355.02,-271.9 378.75,-262.62 387.18,-259.33 396.4,-256.32 405.22,-253.71"/>
<polygon fill="#63b8ff" stroke="#63b8ff" points="308.87,-292 301.78,-299.87 312.23,-298.14 308.87,-292"/>
</a>
</g>
</g>
<!-- Node17 -->
<g id="Node000017" class="node">
<title>Node17</title>
<g id="a_Node000017"><a xlink:href="class_cpl_1_1_io_1_1_stdio_1_1_input_output__.html" target="_top" xlink:title="This concrete class implements a Input&#45;Output stream.">
<polygon fill="white" stroke="#666666" points="511,-216.25 380.25,-216.25 380.25,-197 511,-197 511,-216.25"/>
<text text-anchor="middle" x="445.62" y="-202.75" font-family="Helvetica,sans-Serif" font-size="10.00">Cpl::Io::Stdio::InputOutput_</text>
</a>
</g>
</g>
<!-- Node8&#45;&gt;Node17 -->
<g id="edge16_Node000008_Node000017" class="edge">
<title>Node8&#45;&gt;Node17</title>
<g id="a_edge16_Node000008_Node000017"><a xlink:title=" ">
<path fill="none" stroke="#63b8ff" d="M298.6,-292.14C316.21,-272.58 346.52,-242.19 378.75,-224.62 384.48,-221.5 390.78,-218.89 397.15,-216.72"/>
<polygon fill="#63b8ff" stroke="#63b8ff" points="295.99,-289.8 292.02,-299.62 301.25,-294.42 295.99,-289.8"/>
</a>
</g>
</g>
<!-- Node18 -->
<g id="Node000018" class="node">
<title>Node18</title>
<g id="a_Node000018"><a xlink:href="class_cpl_1_1_io_1_1_tcp_1_1_input_output.html" target="_top" xlink:title="This concrete class defines a platform independent implementation of an InputOutput stream used by th...">
<polygon fill="white" stroke="#666666" points="505.38,-179.25 385.88,-179.25 385.88,-160 505.38,-160 505.38,-179.25"/>
<text text-anchor="middle" x="445.62" y="-165.75" font-family="Helvetica,sans-Serif" font-size="10.00">Cpl::Io::Tcp::InputOutput</text>
</a>
</g>
</g>
<!-- Node8&#45;&gt;Node18 -->
<g id="edge17_Node000008_Node000018" class="edge">
<title>Node8&#45;&gt;Node18</title>
<g id="a_edge17_Node000008_Node000018"><a xlink:title=" ">
<path fill="none" stroke="#63b8ff" d="M293.1,-290.56C308.12,-263.12 338.75,-214.28 378.75,-187.62 383.49,-184.47 388.76,-181.86 394.21,-179.71"/>
<polygon fill="#63b8ff" stroke="#63b8ff" points="290.1,-288.75 288.51,-299.23 296.28,-292.03 290.1,-288.75"/>
</a>
</g>
</g>
<!-- Node19 -->
<g id="Node000019" class="node">
<title>Node19</title>
<g id="a_Node000019"><a xlink:href="class_cpl_1_1_io_1_1_tcp_1_1_async_connector_1_1_client.html" target="_top" xlink:title="This class defines the callback mechanism used for accepting incoming TCP connections.">
<polygon fill="white" stroke="#666666" points="688.25,-208.88 548.5,-208.88 548.5,-178.38 688.25,-178.38 688.25,-208.88"/>
<text text-anchor="start" x="556.5" y="-195.38" font-family="Helvetica,sans-Serif" font-size="10.00">Cpl::Io::Tcp::AsyncConnector</text>
<text text-anchor="middle" x="618.38" y="-184.12" font-family="Helvetica,sans-Serif" font-size="10.00">::Client</text>
</a>
</g>
</g>
<!-- Node18&#45;&gt;Node19 -->
<g id="edge18_Node000018_Node000019" class="edge">
<title>Node18&#45;&gt;Node19</title>
<g id="a_edge18_Node000018_Node000019"><a xlink:title=" ">
<path fill="none" stroke="#63b8ff" d="M516.94,-179.51C527.29,-180.96 537.95,-182.46 548.27,-183.91"/>
<polygon fill="#63b8ff" stroke="#63b8ff" points="517.75,-176.09 507.36,-178.16 516.78,-183.02 517.75,-176.09"/>
</a>
</g>
</g>
<!-- Node20 -->
<g id="Node000020" class="node">
<title>Node20</title>
<g id="a_Node000020"><a xlink:href="class_cpl_1_1_io_1_1_tcp_1_1_async_listener_1_1_client.html" target="_top" xlink:title="This class defines the callback mechanism used for accepting incoming TCP connections.">
<polygon fill="white" stroke="#666666" points="683.75,-159.88 553,-159.88 553,-129.38 683.75,-129.38 683.75,-159.88"/>
<text text-anchor="start" x="561" y="-146.38" font-family="Helvetica,sans-Serif" font-size="10.00">Cpl::Io::Tcp::AsyncListener</text>
<text text-anchor="middle" x="618.38" y="-135.12" font-family="Helvetica,sans-Serif" font-size="10.00">::Client</text>
</a>
</g>
</g>
<!-- Node18&#45;&gt;Node20 -->
<g id="edge19_Node000018_Node000020" class="edge">
<title>Node18&#45;&gt;Node20</title>
<g id="a_edge19_Node000018_Node000020"><a xlink:title=" ">
<path fill="none" stroke="#63b8ff" d="M517.04,-159.32C528.84,-157.59 541.05,-155.8 552.7,-154.09"/>
<polygon fill="#63b8ff" stroke="#63b8ff" points="516.75,-155.82 507.36,-160.73 517.77,-162.75 516.75,-155.82"/>
</a>
</g>
</g>
<!-- Node22 -->
<g id="Node000022" class="node">
<title>Node22</title>
<g id="a_Node000022"><a xlink:href="class_cpl_1_1_io_1_1_stdio_1_1_std_in.html" target="_top" xlink:title="This concrete class represents the C&#45;library &#39;stdin&#39; stream.">
<polygon fill="white" stroke="#666666" points="494.5,-19.25 396.75,-19.25 396.75,0 494.5,0 494.5,-19.25"/>
<text text-anchor="middle" x="445.62" y="-5.75" font-family="Helvetica,sans-Serif" font-size="10.00">Cpl::Io::Stdio::StdIn</text>
</a>
</g>
</g>
<!-- Node21&#45;&gt;Node22 -->
<g id="edge21_Node000021_Node000022" class="edge">
<title>Node21&#45;&gt;Node22</title>
<g id="a_edge21_Node000021_Node000022"><a xlink:title=" ">
<path fill="none" stroke="#63b8ff" d="M334.3,-59.55C337.2,-58.33 340.04,-57.02 342.75,-55.62 360.76,-46.33 360.62,-36.69 378.75,-27.62 385.01,-24.5 391.88,-21.85 398.75,-19.64"/>
<polygon fill="#63b8ff" stroke="#63b8ff" points="333.14,-56.25 325.03,-63.06 335.62,-62.8 333.14,-56.25"/>
</a>
</g>
</g>
<!-- Node23&#45;&gt;Node8 -->
<g id="edge28_Node000023_Node000008" class="edge">
<title>Node23&#45;&gt;Node8</title>
<g id="a_edge28_Node000023_Node000008"><a xlink:title=" ">
<path fill="none" stroke="#63b8ff" d="M170.72,-231.27C198.48,-251.27 244.17,-284.18 266.99,-300.62"/>
<polygon fill="#63b8ff" stroke="#63b8ff" points="172.77,-228.43 162.61,-225.42 168.68,-234.11 172.77,-228.43"/>
</a>
</g>
</g>
<!-- Node24 -->
<g id="Node000024" class="node">
<title>Node24</title>
<g id="a_Node000024"><a xlink:href="class_cpl_1_1_io_1_1_atomic_output_api.html" target="_top" xlink:title="This abstract template class defines a interface for an Atomic outputs to a stream.">
<polygon fill="white" stroke="#666666" points="342.75,-168.88 221,-168.88 221,-138.38 342.75,-138.38 342.75,-168.88"/>
<text text-anchor="start" x="229" y="-155.38" font-family="Helvetica,sans-Serif" font-size="10.00">Cpl::Io::AtomicOutputApi</text>
<text text-anchor="middle" x="281.88" y="-144.12" font-family="Helvetica,sans-Serif" font-size="10.00">&lt; CONTEXT &gt;</text>
</a>
</g>
</g>
<!-- Node23&#45;&gt;Node24 -->
<g id="edge23_Node000023_Node000024" class="edge">
<title>Node23&#45;&gt;Node24</title>
<g id="a_edge23_Node000023_Node000024"><a xlink:title=" ">
<path fill="none" stroke="#63b8ff" d="M179.88,-199.86C200.06,-190.62 226.02,-178.74 246.57,-169.33"/>
<polygon fill="#63b8ff" stroke="#63b8ff" points="178.64,-196.58 171,-203.92 181.55,-202.94 178.64,-196.58"/>
</a>
</g>
</g>
<!-- Node26 -->
<g id="Node000026" class="node">
<title>Node26</title>
<g id="a_Node000026"><a xlink:href="class_cpl_1_1_io_1_1_file_1_1_output_api.html" target="_top" xlink:title="This abstract class defines the interface for a Random Access Input File.">
<polygon fill="white" stroke="#666666" points="337.5,-609.25 226.25,-609.25 226.25,-590 337.5,-590 337.5,-609.25"/>
<text text-anchor="middle" x="281.88" y="-595.75" font-family="Helvetica,sans-Serif" font-size="10.00">Cpl::Io::File::OutputApi</text>
</a>
</g>
</g>
<!-- Node23&#45;&gt;Node26 -->
<g id="edge25_Node000023_Node000026" class="edge">
<title>Node23&#45;&gt;Node26</title>
<g id="a_edge25_Node000023_Node000026"><a xlink:title=" ">
<path fill="none" stroke="#63b8ff" d="M164.49,-233.27C171.65,-241.99 179.58,-252.81 185,-263.62 245.23,-383.74 273.01,-547.54 279.4,-589.51"/>
<polygon fill="#63b8ff" stroke="#63b8ff" points="167.33,-231.21 158.17,-225.9 162.02,-235.77 167.33,-231.21"/>
</a>
</g>
</g>
<!-- Node28 -->
<g id="Node000028" class="node">
<title>Node28</title>
<g id="a_Node000028"><a xlink:href="class_cpl_1_1_io_1_1_stdio_1_1_output__.html" target="_top" xlink:title="This concrete class implements a Output stream using the underlying platform&#39;s native OS &#39;file interf...">
<polygon fill="white" stroke="#666666" points="336.38,-120.25 227.38,-120.25 227.38,-101 336.38,-101 336.38,-120.25"/>
<text text-anchor="middle" x="281.88" y="-106.75" font-family="Helvetica,sans-Serif" font-size="10.00">Cpl::Io::Stdio::Output_</text>
</a>
</g>
</g>
<!-- Node23&#45;&gt;Node28 -->
<g id="edge29_Node000023_Node000028" class="edge">
<title>Node23&#45;&gt;Node28</title>
<g id="a_edge29_Node000023_Node000028"><a xlink:title=" ">
<path fill="none" stroke="#63b8ff" d="M159.78,-195.09C172.72,-175.82 194.91,-146.83 221,-129.62 226.46,-126.02 232.65,-123.07 238.93,-120.65"/>
<polygon fill="#63b8ff" stroke="#63b8ff" points="156.9,-193.09 154.4,-203.39 162.78,-196.9 156.9,-193.09"/>
</a>
</g>
</g>
<!-- Node31 -->
<g id="Node000031" class="node">
<title>Node31</title>
<g id="a_Node000031"><a xlink:href="class_cpl_1_1_io_1_1_tee_output.html" target="_top" xlink:title="This concrete class implements a Output stream that outputs the data to MANY (or none) output streams...">
<polygon fill="white" stroke="#666666" points="328.5,-46.25 235.25,-46.25 235.25,-27 328.5,-27 328.5,-46.25"/>
<text text-anchor="middle" x="281.88" y="-32.75" font-family="Helvetica,sans-Serif" font-size="10.00">Cpl::Io::TeeOutput</text>
</a>
</g>
</g>
<!-- Node23&#45;&gt;Node31 -->
<g id="edge32_Node000023_Node000031" class="edge">
<title>Node23&#45;&gt;Node31</title>
<g id="a_edge32_Node000023_Node000031"><a xlink:title=" ">
<path fill="none" stroke="#63b8ff" d="M151.45,-193.73C158.79,-159.6 178.1,-91.98 221,-54.62 225.09,-51.06 229.87,-48.2 234.91,-45.91"/>
<polygon fill="#63b8ff" stroke="#63b8ff" points="148.09,-192.69 149.56,-203.18 154.95,-194.06 148.09,-192.69"/>
</a>
</g>
</g>
<!-- Node25 -->
<g id="Node000025" class="node">
<title>Node25</title>
<g id="a_Node000025"><a xlink:href="class_cpl_1_1_io_1_1_atomic_output.html" target="_top" xlink:title="This concrete template class implements the AtomicOutputApi using a mutex to enforce the &#39;atomic&#45;ness...">
<polygon fill="white" stroke="#666666" points="499.38,-141.88 391.88,-141.88 391.88,-111.38 499.38,-111.38 499.38,-141.88"/>
<text text-anchor="start" x="399.88" y="-128.38" font-family="Helvetica,sans-Serif" font-size="10.00">Cpl::Io::AtomicOutput</text>
<text text-anchor="middle" x="445.62" y="-117.12" font-family="Helvetica,sans-Serif" font-size="10.00">&lt; CONTEXT &gt;</text>
</a>
</g>
</g>
<!-- Node24&#45;&gt;Node25 -->
<g id="edge24_Node000024_Node000025" class="edge">
<title>Node24&#45;&gt;Node25</title>
<g id="a_edge24_Node000024_Node000025"><a xlink:title=" ">
<path fill="none" stroke="#63b8ff" d="M354.44,-141.68C366.9,-139.6 379.67,-137.47 391.53,-135.49"/>
<polygon fill="#63b8ff" stroke="#63b8ff" points="353.88,-138.22 344.6,-143.32 355.04,-145.13 353.88,-138.22"/>
</a>
</g>
</g>
<!-- Node26&#45;&gt;Node5 -->
<g id="edge26_Node000026_Node000005" class="edge">
<title>Node26&#45;&gt;Node5</title>
<g id="a_edge26_Node000026_Node000005"><a xlink:title=" ">
<path fill="none" stroke="#63b8ff" d="M338.1,-612.26C358.45,-616.91 381.23,-622.12 400.48,-626.53"/>
<polygon fill="#63b8ff" stroke="#63b8ff" points="339.08,-608.89 328.55,-610.07 337.52,-615.71 339.08,-608.89"/>
</a>
</g>
</g>
<!-- Node27 -->
<g id="Node000027" class="node">
<title>Node27</title>
<g id="a_Node000027"><a xlink:href="class_cpl_1_1_io_1_1_file_1_1_output.html" target="_top" xlink:title="This concrete class provides a platform independent &#39;standard&#39; implementation of a Cpl::Io::File::Out...">
<polygon fill="white" stroke="#666666" points="494.12,-609.25 397.12,-609.25 397.12,-590 494.12,-590 494.12,-609.25"/>
<text text-anchor="middle" x="445.62" y="-595.75" font-family="Helvetica,sans-Serif" font-size="10.00">Cpl::Io::File::Output</text>
</a>
</g>
</g>
<!-- Node26&#45;&gt;Node27 -->
<g id="edge27_Node000026_Node000027" class="edge">
<title>Node26&#45;&gt;Node27</title>
<g id="a_edge27_Node000026_Node000027"><a xlink:title=" ">
<path fill="none" stroke="#63b8ff" d="M349.07,-599.62C365.02,-599.62 381.76,-599.62 396.69,-599.62"/>
<polygon fill="#63b8ff" stroke="#63b8ff" points="349.15,-596.13 339.15,-599.63 349.15,-603.13 349.15,-596.13"/>
</a>
</g>
</g>
<!-- Node29 -->
<g id="Node000029" class="node">
<title>Node29</title>
<g id="a_Node000029"><a xlink:href="class_cpl_1_1_io_1_1_stdio_1_1_std_err.html" target="_top" xlink:title="This concrete class represents the C&#45;library &#39;stderr&#39; stream.">
<polygon fill="white" stroke="#666666" points="496.38,-93.25 394.88,-93.25 394.88,-74 496.38,-74 496.38,-93.25"/>
<text text-anchor="middle" x="445.62" y="-79.75" font-family="Helvetica,sans-Serif" font-size="10.00">Cpl::Io::Stdio::StdErr</text>
</a>
</g>
</g>
<!-- Node28&#45;&gt;Node29 -->
<g id="edge30_Node000028_Node000029" class="edge">
<title>Node28&#45;&gt;Node29</title>
<g id="a_edge30_Node000028_Node000029"><a xlink:title=" ">
<path fill="none" stroke="#63b8ff" d="M347.88,-99.77C363.43,-97.18 379.8,-94.45 394.55,-91.98"/>
<polygon fill="#63b8ff" stroke="#63b8ff" points="347.52,-96.29 338.23,-101.39 348.67,-103.19 347.52,-96.29"/>
</a>
</g>
</g>
<!-- Node30 -->
<g id="Node000030" class="node">
<title>Node30</title>
<g id="a_Node000030"><a xlink:href="class_cpl_1_1_io_1_1_stdio_1_1_std_out.html" target="_top" xlink:title="This concrete class represents the C&#45;library &#39;stdout&#39; stream.">
<polygon fill="white" stroke="#666666" points="498.25,-56.25 393,-56.25 393,-37 498.25,-37 498.25,-56.25"/>
<text text-anchor="middle" x="445.62" y="-42.75" font-family="Helvetica,sans-Serif" font-size="10.00">Cpl::Io::Stdio::StdOut</text>
</a>
</g>
</g>
<!-- Node28&#45;&gt;Node30 -->
<g id="edge31_Node000028_Node000030" class="edge">
<title>Node28&#45;&gt;Node30</title>
<g id="a_edge31_Node000028_Node000030"><a xlink:title=" ">
<path fill="none" stroke="#63b8ff" d="M334.3,-96.55C337.2,-95.33 340.04,-94.02 342.75,-92.62 360.76,-83.33 360.62,-73.69 378.75,-64.62 385.01,-61.5 391.88,-58.85 398.75,-56.64"/>
<polygon fill="#63b8ff" stroke="#63b8ff" points="333.14,-93.25 325.03,-100.06 335.62,-99.8 333.14,-93.25"/>
</a>
</g>
</g>
</g>
</svg>
