<?xml version="1.0" encoding="UTF-8" standalone="no"?>
<!DOCTYPE svg PUBLIC "-//W3C//DTD SVG 1.1//EN"
 "http://www.w3.org/Graphics/SVG/1.1/DTD/svg11.dtd">
<!-- Generated by graphviz version 2.43.0 (0)
 -->
<!-- Title: Cpl::Persistent::Record Pages: 1 -->
<svg width="520pt" height="187pt"
 viewBox="0.00 0.00 520.00 186.50" xmlns="http://www.w3.org/2000/svg" xmlns:xlink="http://www.w3.org/1999/xlink">
<g id="graph0" class="graph" transform="scale(1 1) rotate(0) translate(4 182.5)">
<title>Cpl::Persistent::Record</title>
<!-- Node1 -->
<g id="Node000001" class="node">
<title>Node1</title>
<g id="a_Node000001"><a xlink:title="This abstract class defines the public interface for a Record instance.">
<polygon fill="#999999" stroke="#666666" points="127,-88.5 0,-88.5 0,-69.5 127,-69.5 127,-88.5"/>
<text text-anchor="middle" x="63.5" y="-76.5" font-family="Helvetica,sans-Serif" font-size="10.00">Cpl::Persistent::Record</text>
</a>
</g>
</g>
<!-- Node2 -->
<g id="Node000002" class="node">
<title>Node2</title>
<g id="a_Node000002"><a xlink:href="class_cpl_1_1_dm_1_1_persistent_1_1_record.html" target="_top" xlink:title="This mostly concrete class implements the Cpl::Persistent::Record interface where a Record instance c...">
<polygon fill="white" stroke="#666666" points="293,-131 183,-131 183,-101 293,-101 293,-131"/>
<text text-anchor="start" x="191" y="-119" font-family="Helvetica,sans-Serif" font-size="10.00">Cpl::Dm::Persistent</text>
<text text-anchor="middle" x="238" y="-108" font-family="Helvetica,sans-Serif" font-size="10.00">::Record</text>
</a>
</g>
</g>
<!-- Node1&#45;&gt;Node2 -->
<g id="edge1_Node000001_Node000002" class="edge">
<title>Node1&#45;&gt;Node2</title>
<g id="a_edge1_Node000001_Node000002"><a xlink:title=" ">
<path fill="none" stroke="#63b8ff" d="M118.72,-90.63C139.17,-95.02 162.43,-100 182.87,-104.39"/>
<polygon fill="#63b8ff" stroke="#63b8ff" points="119.43,-87.2 108.92,-88.53 117.97,-94.05 119.43,-87.2"/>
</a>
</g>
</g>
<!-- Node6 -->
<g id="Node000006" class="node">
<title>Node6</title>
<g id="a_Node000006"><a xlink:href="class_cpl_1_1_persistent_1_1_data_record.html" target="_top" xlink:title="This mostly concrete class implements the Cpl::Persistent::DataRecord interface where a DataRecord in...">
<polygon fill="white" stroke="#666666" points="313,-67.5 163,-67.5 163,-48.5 313,-48.5 313,-67.5"/>
<text text-anchor="middle" x="238" y="-55.5" font-family="Helvetica,sans-Serif" font-size="10.00">Cpl::Persistent::DataRecord</text>
</a>
</g>
</g>
<!-- Node1&#45;&gt;Node6 -->
<g id="edge5_Node000001_Node000006" class="edge">
<title>Node1&#45;&gt;Node6</title>
<g id="a_edge5_Node000001_Node000006"><a xlink:title=" ">
<path fill="none" stroke="#63b8ff" d="M137.42,-70.12C145.83,-69.1 154.42,-68.05 162.85,-67.03"/>
<polygon fill="#63b8ff" stroke="#63b8ff" points="136.77,-66.68 127.26,-71.36 137.61,-73.62 136.77,-66.68"/>
</a>
</g>
</g>
<!-- Node3 -->
<g id="Node000003" class="node">
<title>Node3</title>
<g id="a_Node000003"><a xlink:href="class_ajax_1_1_main_1_1_metrics_record.html" target="_top" xlink:title="This concrete class implements the &quot;Record&quot; class for storing user settings.">
<polygon fill="white" stroke="#666666" points="502.5,-178.5 358.5,-178.5 358.5,-159.5 502.5,-159.5 502.5,-178.5"/>
<text text-anchor="middle" x="430.5" y="-166.5" font-family="Helvetica,sans-Serif" font-size="10.00">Ajax::Main::MetricsRecord</text>
</a>
</g>
</g>
<!-- Node2&#45;&gt;Node3 -->
<g id="edge2_Node000002_Node000003" class="edge">
<title>Node2&#45;&gt;Node3</title>
<g id="a_edge2_Node000002_Node000003"><a xlink:title=" ">
<path fill="none" stroke="#63b8ff" d="M292.8,-134.16C310.59,-139.89 330.55,-146.01 349,-151 360.06,-153.99 372.07,-156.87 383.35,-159.41"/>
<polygon fill="#63b8ff" stroke="#63b8ff" points="293.75,-130.79 283.16,-131.03 291.59,-137.45 293.75,-130.79"/>
</a>
</g>
</g>
<!-- Node4 -->
<g id="Node000004" class="node">
<title>Node4</title>
<g id="a_Node000004"><a xlink:href="class_ajax_1_1_main_1_1_personality_record.html" target="_top" xlink:title="This concrete class implements the &quot;Record&quot; class for storing the &#39;Personality&#39; settings.">
<polygon fill="white" stroke="#666666" points="512,-141.5 349,-141.5 349,-122.5 512,-122.5 512,-141.5"/>
<text text-anchor="middle" x="430.5" y="-129.5" font-family="Helvetica,sans-Serif" font-size="10.00">Ajax::Main::PersonalityRecord</text>
</a>
</g>
</g>
<!-- Node2&#45;&gt;Node4 -->
<g id="edge3_Node000002_Node000004" class="edge">
<title>Node2&#45;&gt;Node4</title>
<g id="a_edge3_Node000002_Node000004"><a xlink:title=" ">
<path fill="none" stroke="#63b8ff" d="M303.08,-121.38C317.8,-122.62 333.64,-123.95 348.96,-125.24"/>
<polygon fill="#63b8ff" stroke="#63b8ff" points="303.34,-117.89 293.08,-120.54 302.75,-124.87 303.34,-117.89"/>
</a>
</g>
</g>
<!-- Node5 -->
<g id="Node000005" class="node">
<title>Node5</title>
<g id="a_Node000005"><a xlink:href="class_ajax_1_1_main_1_1_user_record.html" target="_top" xlink:title="This concrete class implements the &quot;Record&quot; class for storing user settings.">
<polygon fill="white" stroke="#666666" points="496,-104.5 365,-104.5 365,-85.5 496,-85.5 496,-104.5"/>
<text text-anchor="middle" x="430.5" y="-92.5" font-family="Helvetica,sans-Serif" font-size="10.00">Ajax::Main::UserRecord</text>
</a>
</g>
</g>
<!-- Node2&#45;&gt;Node5 -->
<g id="edge4_Node000002_Node000005" class="edge">
<title>Node2&#45;&gt;Node5</title>
<g id="a_edge4_Node000002_Node000005"><a xlink:title=" ">
<path fill="none" stroke="#63b8ff" d="M303.25,-108.92C323.09,-106.73 344.94,-104.32 364.81,-102.13"/>
<polygon fill="#63b8ff" stroke="#63b8ff" points="302.64,-105.46 293.08,-110.04 303.4,-112.42 302.64,-105.46"/>
</a>
</g>
</g>
<!-- Node7 -->
<g id="Node000007" class="node">
<title>Node7</title>
<g id="a_Node000007"><a xlink:href="class_cpl_1_1_persistent_1_1_index_record.html" target="_top" xlink:title="This concrete class extends the Cpl::Persistent::DataRecord interface to store a latest/oldest &#39;recor...">
<polygon fill="white" stroke="#666666" points="507.5,-67.5 353.5,-67.5 353.5,-48.5 507.5,-48.5 507.5,-67.5"/>
<text text-anchor="middle" x="430.5" y="-55.5" font-family="Helvetica,sans-Serif" font-size="10.00">Cpl::Persistent::IndexRecord</text>
</a>
</g>
</g>
<!-- Node6&#45;&gt;Node7 -->
<g id="edge6_Node000006_Node000007" class="edge">
<title>Node6&#45;&gt;Node7</title>
<g id="a_edge6_Node000006_Node000007"><a xlink:title=" ">
<path fill="none" stroke="#63b8ff" d="M323.47,-58C333.41,-58 343.5,-58 353.31,-58"/>
<polygon fill="#63b8ff" stroke="#63b8ff" points="323.2,-54.5 313.2,-58 323.2,-61.5 323.2,-54.5"/>
</a>
</g>
</g>
<!-- Node8 -->
<g id="Node000008" class="node">
<title>Node8</title>
<g id="a_Node000008"><a xlink:href="class_cpl_1_1_persistent_1_1_indexed_entry_record.html" target="_top" xlink:title="This concrete class implements the Cpl::Persistent::Record interface to store a collection &#39;entries&#39;.">
<polygon fill="white" stroke="#666666" points="496,-30 365,-30 365,0 496,0 496,-30"/>
<text text-anchor="start" x="373" y="-18" font-family="Helvetica,sans-Serif" font-size="10.00">Cpl::Persistent::Indexed</text>
<text text-anchor="middle" x="430.5" y="-7" font-family="Helvetica,sans-Serif" font-size="10.00">EntryRecord</text>
</a>
</g>
</g>
<!-- Node6&#45;&gt;Node8 -->
<g id="edge7_Node000006_Node000008" class="edge">
<title>Node6&#45;&gt;Node8</title>
<g id="a_edge7_Node000006_Node000008"><a xlink:title=" ">
<path fill="none" stroke="#63b8ff" d="M291.09,-46.24C313.87,-41.1 340.83,-35.01 364.87,-29.59"/>
<polygon fill="#63b8ff" stroke="#63b8ff" points="290.26,-42.84 281.28,-48.46 291.8,-49.67 290.26,-42.84"/>
</a>
</g>
</g>
</g>
</svg>
