<?xml version="1.0" encoding="UTF-8" standalone="no"?>
<!DOCTYPE svg PUBLIC "-//W3C//DTD SVG 1.1//EN"
 "http://www.w3.org/Graphics/SVG/1.1/DTD/svg11.dtd">
<!-- Generated by graphviz version 9.0.0 (20230911.1827)
 -->
<!-- Title: Cpl::MApp::Manager Pages: 1 -->
<svg width="824pt" height="396pt"
 viewBox="0.00 0.00 824.25 395.88" xmlns="http://www.w3.org/2000/svg" xmlns:xlink="http://www.w3.org/1999/xlink">
<g id="graph0" class="graph" transform="scale(1 1) rotate(0) translate(4 391.88)">
<title>Cpl::MApp::Manager</title>
<!-- Node1 -->
<g id="Node000001" class="node">
<title>Node1</title>
<g id="a_Node000001"><a xlink:title="This concrete class implements the MApp Manager.">
<polygon fill="#999999" stroke="#666666" points="816.25,-202.88 714,-202.88 714,-183.62 816.25,-183.62 816.25,-202.88"/>
<text text-anchor="middle" x="765.12" y="-189.38" font-family="Helvetica,sans-Serif" font-size="10.00">Cpl::MApp::Manager</text>
</a>
</g>
</g>
<!-- Node2 -->
<g id="Node000002" class="node">
<title>Node2</title>
<g id="a_Node000002"><a xlink:href="class_cpl_1_1_m_app_1_1_manager_api.html" target="_top" xlink:title="This abstract class defines the &quot;manager&quot; interface to for starting, stopping, etc.">
<polygon fill="white" stroke="#666666" points="576.75,-350.88 460.25,-350.88 460.25,-331.62 576.75,-331.62 576.75,-350.88"/>
<text text-anchor="middle" x="518.5" y="-337.38" font-family="Helvetica,sans-Serif" font-size="10.00">Cpl::MApp::ManagerApi</text>
</a>
</g>
</g>
<!-- Node2&#45;&gt;Node1 -->
<g id="edge1_Node000001_Node000002" class="edge">
<title>Node2&#45;&gt;Node1</title>
<g id="a_edge1_Node000001_Node000002"><a xlink:title=" ">
<path fill="none" stroke="#63b8ff" d="M588.03,-328.59C623.01,-319.54 664.67,-304.54 696,-280.25 724.81,-257.92 748.38,-220.81 758.62,-203.16"/>
<polygon fill="#63b8ff" stroke="#63b8ff" points="587.27,-325.17 578.4,-330.96 588.94,-331.97 587.27,-325.17"/>
</a>
</g>
</g>
<!-- Node3 -->
<g id="Node000003" class="node">
<title>Node3</title>
<g id="a_Node000003"><a xlink:href="class_cpl_1_1_itc_1_1_close_sync.html" target="_top" xlink:title="This partially concrete class implements the synchronous ITC close call for the CloseApi.">
<polygon fill="white" stroke="#666666" points="567,-313.88 470,-313.88 470,-294.62 567,-294.62 567,-313.88"/>
<text text-anchor="middle" x="518.5" y="-300.38" font-family="Helvetica,sans-Serif" font-size="10.00">Cpl::Itc::CloseSync</text>
</a>
</g>
</g>
<!-- Node3&#45;&gt;Node1 -->
<g id="edge2_Node000001_Node000003" class="edge">
<title>Node3&#45;&gt;Node1</title>
<g id="a_edge2_Node000001_Node000003"><a xlink:title=" ">
<path fill="none" stroke="#63b8ff" d="M578.41,-293.28C614.09,-284.96 659.57,-271.3 696,-250.25 718.97,-236.98 741.82,-215.81 754.35,-203.35"/>
<polygon fill="#63b8ff" stroke="#63b8ff" points="577.67,-289.86 568.68,-295.46 579.2,-296.69 577.67,-289.86"/>
</a>
</g>
</g>
<!-- Node4 -->
<g id="Node000004" class="node">
<title>Node4</title>
<g id="a_Node000004"><a xlink:href="class_cpl_1_1_itc_1_1_open_sync.html" target="_top" xlink:title="This partially concrete class implements the synchronous ITC open call for the OpenApi.">
<polygon fill="white" stroke="#666666" points="288.12,-350.88 192.62,-350.88 192.62,-331.62 288.12,-331.62 288.12,-350.88"/>
<text text-anchor="middle" x="240.38" y="-337.38" font-family="Helvetica,sans-Serif" font-size="10.00">Cpl::Itc::OpenSync</text>
</a>
</g>
</g>
<!-- Node4&#45;&gt;Node3 -->
<g id="edge3_Node000003_Node000004" class="edge">
<title>Node4&#45;&gt;Node3</title>
<g id="a_edge3_Node000003_Node000004"><a xlink:title=" ">
<path fill="none" stroke="#63b8ff" d="M299.42,-334.09C334.67,-329.67 380.58,-323.81 421.25,-318.25 436.98,-316.1 454.13,-313.64 469.54,-311.39"/>
<polygon fill="#63b8ff" stroke="#63b8ff" points="299.36,-330.57 289.87,-335.28 300.23,-337.51 299.36,-330.57"/>
</a>
</g>
</g>
<!-- Node5 -->
<g id="Node000005" class="node">
<title>Node5</title>
<g id="a_Node000005"><a xlink:href="class_cpl_1_1_itc_1_1_open_api.html" target="_top" xlink:title="This abstract class defines an open interface.">
<polygon fill="white" stroke="#666666" points="98.88,-387.88 10.88,-387.88 10.88,-368.62 98.88,-368.62 98.88,-387.88"/>
<text text-anchor="middle" x="54.88" y="-374.38" font-family="Helvetica,sans-Serif" font-size="10.00">Cpl::Itc::OpenApi</text>
</a>
</g>
</g>
<!-- Node5&#45;&gt;Node4 -->
<g id="edge4_Node000004_Node000005" class="edge">
<title>Node5&#45;&gt;Node4</title>
<g id="a_edge4_Node000004_Node000005"><a xlink:title=" ">
<path fill="none" stroke="#63b8ff" d="M110.57,-367.22C136.59,-361.98 167.39,-355.77 192.34,-350.73"/>
<polygon fill="#63b8ff" stroke="#63b8ff" points="109.96,-363.77 100.85,-369.18 111.34,-370.64 109.96,-363.77"/>
</a>
</g>
</g>
<!-- Node6 -->
<g id="Node000006" class="node">
<title>Node6</title>
<g id="a_Node000006"><a xlink:href="class_cpl_1_1_itc_1_1_open_request.html" target="_top" xlink:title="This abstract class define message types and payloads for a set of ITC services.">
<polygon fill="white" stroke="#666666" points="109.75,-350.88 0,-350.88 0,-331.62 109.75,-331.62 109.75,-350.88"/>
<text text-anchor="middle" x="54.88" y="-337.38" font-family="Helvetica,sans-Serif" font-size="10.00">Cpl::Itc::OpenRequest</text>
</a>
</g>
</g>
<!-- Node6&#45;&gt;Node4 -->
<g id="edge5_Node000004_Node000006" class="edge">
<title>Node6&#45;&gt;Node4</title>
<g id="a_edge5_Node000004_Node000006"><a xlink:title=" ">
<path fill="none" stroke="#63b8ff" d="M121.22,-341.25C144.66,-341.25 170.63,-341.25 192.23,-341.25"/>
<polygon fill="#63b8ff" stroke="#63b8ff" points="121.45,-337.75 111.45,-341.25 121.45,-344.75 121.45,-337.75"/>
</a>
</g>
</g>
<!-- Node7 -->
<g id="Node000007" class="node">
<title>Node7</title>
<g id="a_Node000007"><a xlink:href="class_cpl_1_1_itc_1_1_post_api.html" target="_top" xlink:title="This abstract class represents the interface used to send messages to a mailbox.">
<polygon fill="white" stroke="#666666" points="97.38,-313.88 12.38,-313.88 12.38,-294.62 97.38,-294.62 97.38,-313.88"/>
<text text-anchor="middle" x="54.88" y="-300.38" font-family="Helvetica,sans-Serif" font-size="10.00">Cpl::Itc::PostApi</text>
</a>
</g>
</g>
<!-- Node7&#45;&gt;Node4 -->
<g id="edge6_Node000004_Node000007" class="edge">
<title>Node7&#45;&gt;Node4</title>
<g id="a_edge6_Node000004_Node000007"><a xlink:title=" ">
<path fill="none" stroke="#9a32cd" stroke-dasharray="5,2" d="M108.84,-314.49C127.19,-318.08 147.89,-322.17 166.75,-326 175.08,-327.69 183.95,-329.53 192.51,-331.31"/>
<polygon fill="#9a32cd" stroke="#9a32cd" points="109.73,-311.1 99.24,-312.62 108.39,-317.97 109.73,-311.1"/>
</a>
</g>
<text text-anchor="middle" x="147.25" y="-327" font-family="Helvetica,sans-Serif" font-size="10.00" fill="grey"> m_mbox</text>
</g>
<!-- Node8 -->
<g id="Node000008" class="node">
<title>Node8</title>
<g id="a_Node000008"><a xlink:href="class_cpl_1_1_itc_1_1_close_api.html" target="_top" xlink:title="This abstract class defines an close interface.">
<polygon fill="white" stroke="#666666" points="285.12,-313.88 195.62,-313.88 195.62,-294.62 285.12,-294.62 285.12,-313.88"/>
<text text-anchor="middle" x="240.38" y="-300.38" font-family="Helvetica,sans-Serif" font-size="10.00">Cpl::Itc::CloseApi</text>
</a>
</g>
</g>
<!-- Node8&#45;&gt;Node3 -->
<g id="edge7_Node000003_Node000008" class="edge">
<title>Node8&#45;&gt;Node3</title>
<g id="a_edge7_Node000003_Node000008"><a xlink:title=" ">
<path fill="none" stroke="#63b8ff" d="M296.83,-304.25C347.56,-304.25 421.8,-304.25 469.89,-304.25"/>
<polygon fill="#63b8ff" stroke="#63b8ff" points="296.95,-300.75 286.95,-304.25 296.95,-307.75 296.95,-300.75"/>
</a>
</g>
</g>
<!-- Node9 -->
<g id="Node000009" class="node">
<title>Node9</title>
<g id="a_Node000009"><a xlink:href="class_cpl_1_1_itc_1_1_close_request.html" target="_top" xlink:title="This abstract class define message types and payloads for a set of ITC services.">
<polygon fill="white" stroke="#666666" points="296,-276.88 184.75,-276.88 184.75,-257.62 296,-257.62 296,-276.88"/>
<text text-anchor="middle" x="240.38" y="-263.38" font-family="Helvetica,sans-Serif" font-size="10.00">Cpl::Itc::CloseRequest</text>
</a>
</g>
</g>
<!-- Node9&#45;&gt;Node3 -->
<g id="edge8_Node000003_Node000009" class="edge">
<title>Node9&#45;&gt;Node3</title>
<g id="a_edge8_Node000003_Node000009"><a xlink:title=" ">
<path fill="none" stroke="#63b8ff" d="M307.59,-276.12C357.53,-282.81 424.84,-291.83 469.63,-297.84"/>
<polygon fill="#63b8ff" stroke="#63b8ff" points="308.13,-272.66 297.76,-274.81 307.21,-279.6 308.13,-272.66"/>
</a>
</g>
</g>
<!-- Node10 -->
<g id="Node000010" class="node">
<title>Node10</title>
<g id="a_Node000010"><a xlink:href="class_cpl_1_1_m_app_1_1_start_m_app_request.html" target="_top" xlink:title="This abstract class define ITC message type and payload for the application to start a MApp.">
<polygon fill="white" stroke="#666666" points="592.12,-276.88 444.88,-276.88 444.88,-257.62 592.12,-257.62 592.12,-276.88"/>
<text text-anchor="middle" x="518.5" y="-263.38" font-family="Helvetica,sans-Serif" font-size="10.00">Cpl::MApp::StartMAppRequest</text>
</a>
</g>
</g>
<!-- Node10&#45;&gt;Node1 -->
<g id="edge9_Node000001_Node000010" class="edge">
<title>Node10&#45;&gt;Node1</title>
<g id="a_edge9_Node000001_Node000010"><a xlink:title=" ">
<path fill="none" stroke="#63b8ff" d="M588.59,-254.95C621.6,-248.13 661.37,-238.52 696,-226.25 713.59,-220.02 732.63,-210.55 746.09,-203.35"/>
<polygon fill="#63b8ff" stroke="#63b8ff" points="588.26,-251.45 579.15,-256.86 589.65,-258.31 588.26,-251.45"/>
</a>
</g>
</g>
<!-- Node11 -->
<g id="Node000011" class="node">
<title>Node11</title>
<g id="a_Node000011"><a xlink:href="class_cpl_1_1_m_app_1_1_stop_m_app_request.html" target="_top" xlink:title="This abstract class define ITC message type and payload for the application to stop the current MApp.">
<polygon fill="white" stroke="#666666" points="591.75,-239.88 445.25,-239.88 445.25,-220.62 591.75,-220.62 591.75,-239.88"/>
<text text-anchor="middle" x="518.5" y="-226.38" font-family="Helvetica,sans-Serif" font-size="10.00">Cpl::MApp::StopMAppRequest</text>
</a>
</g>
</g>
<!-- Node11&#45;&gt;Node1 -->
<g id="edge10_Node000001_Node000011" class="edge">
<title>Node11&#45;&gt;Node1</title>
<g id="a_edge10_Node000001_Node000011"><a xlink:title=" ">
<path fill="none" stroke="#63b8ff" d="M603.3,-220.6C632.69,-216.88 665.87,-212.3 696,-207.25 702.91,-206.09 710.18,-204.74 717.3,-203.34"/>
<polygon fill="#63b8ff" stroke="#63b8ff" points="603.23,-217.08 593.74,-221.8 604.1,-224.03 603.23,-217.08"/>
</a>
</g>
</g>
<!-- Node12 -->
<g id="Node000012" class="node">
<title>Node12</title>
<g id="a_Node000012"><a xlink:href="class_cpl_1_1_m_app_1_1_stop_all_m_app_request.html" target="_top" xlink:title="This abstract class define ITC message type and payload for the application to stop the current MApp.">
<polygon fill="white" stroke="#666666" points="597.38,-202.88 439.62,-202.88 439.62,-183.62 597.38,-183.62 597.38,-202.88"/>
<text text-anchor="middle" x="518.5" y="-189.38" font-family="Helvetica,sans-Serif" font-size="10.00">Cpl::MApp::StopAllMAppRequest</text>
</a>
</g>
</g>
<!-- Node12&#45;&gt;Node1 -->
<g id="edge11_Node000001_Node000012" class="edge">
<title>Node12&#45;&gt;Node1</title>
<g id="a_edge11_Node000001_Node000012"><a xlink:title=" ">
<path fill="none" stroke="#63b8ff" d="M608.89,-193.25C644.22,-193.25 683.5,-193.25 713.72,-193.25"/>
<polygon fill="#63b8ff" stroke="#63b8ff" points="609.09,-189.75 599.09,-193.25 609.09,-196.75 609.09,-189.75"/>
</a>
</g>
</g>
<!-- Node13 -->
<g id="Node000013" class="node">
<title>Node13</title>
<g id="a_Node000013"><a xlink:href="class_cpl_1_1_m_app_1_1_get_available_m_app_request.html" target="_top" xlink:title="This abstract class define ITC message type and payload for the application to get list of all of the...">
<polygon fill="white" stroke="#666666" points="591.38,-165.5 445.62,-165.5 445.62,-135 591.38,-135 591.38,-165.5"/>
<text text-anchor="start" x="453.62" y="-152" font-family="Helvetica,sans-Serif" font-size="10.00">Cpl::MApp::GetAvailableMApp</text>
<text text-anchor="middle" x="518.5" y="-140.75" font-family="Helvetica,sans-Serif" font-size="10.00">Request</text>
</a>
</g>
</g>
<!-- Node13&#45;&gt;Node1 -->
<g id="edge12_Node000001_Node000013" class="edge">
<title>Node13&#45;&gt;Node1</title>
<g id="a_edge12_Node000001_Node000013"><a xlink:title=" ">
<path fill="none" stroke="#63b8ff" d="M602.84,-164.9C639.73,-171.38 681.91,-178.8 713.87,-184.42"/>
<polygon fill="#63b8ff" stroke="#63b8ff" points="603.52,-161.47 593.06,-163.18 602.31,-168.36 603.52,-161.47"/>
</a>
</g>
</g>
<!-- Node14 -->
<g id="Node000014" class="node">
<title>Node14</title>
<g id="a_Node000014"><a xlink:href="class_cpl_1_1_m_app_1_1_get_started_m_app_request.html" target="_top" xlink:title="This abstract class define ITC message type and payload for the application to Get a list of started ...">
<polygon fill="white" stroke="#666666" points="587.25,-116.5 449.75,-116.5 449.75,-86 587.25,-86 587.25,-116.5"/>
<text text-anchor="start" x="457.75" y="-103" font-family="Helvetica,sans-Serif" font-size="10.00">Cpl::MApp::GetStartedMApp</text>
<text text-anchor="middle" x="518.5" y="-91.75" font-family="Helvetica,sans-Serif" font-size="10.00">Request</text>
</a>
</g>
</g>
<!-- Node14&#45;&gt;Node1 -->
<g id="edge13_Node000001_Node000014" class="edge">
<title>Node14&#45;&gt;Node1</title>
<g id="a_edge13_Node000001_Node000014"><a xlink:title=" ">
<path fill="none" stroke="#63b8ff" d="M580.32,-120.34C586.22,-122.3 592.11,-124.29 597.75,-126.25 641.82,-141.58 652.8,-145.62 696,-163.25 711.55,-169.6 728.88,-177.24 742.17,-183.22"/>
<polygon fill="#63b8ff" stroke="#63b8ff" points="581.75,-117.13 571.16,-117.35 579.57,-123.78 581.75,-117.13"/>
</a>
</g>
</g>
<!-- Node15 -->
<g id="Node000015" class="node">
<title>Node15</title>
<g id="a_Node000015"><a xlink:href="class_cpl_1_1_m_app_1_1_lookup_m_app_request.html" target="_top" xlink:title="This abstract class define ITC message type and payload for the application to look&#45;up a MApp by name...">
<polygon fill="white" stroke="#666666" points="597.75,-67.88 439.25,-67.88 439.25,-48.62 597.75,-48.62 597.75,-67.88"/>
<text text-anchor="middle" x="518.5" y="-54.38" font-family="Helvetica,sans-Serif" font-size="10.00">Cpl::MApp::LookupMAppRequest</text>
</a>
</g>
</g>
<!-- Node15&#45;&gt;Node1 -->
<g id="edge14_Node000001_Node000015" class="edge">
<title>Node15&#45;&gt;Node1</title>
<g id="a_edge14_Node000001_Node000015"><a xlink:title=" ">
<path fill="none" stroke="#63b8ff" d="M579.86,-71.35C585.97,-73.14 592.02,-75.1 597.75,-77.25 643.82,-94.51 655.97,-99.65 696,-128.25 719.68,-145.17 743.36,-169.98 755.6,-183.54"/>
<polygon fill="#63b8ff" stroke="#63b8ff" points="580.91,-68.01 570.34,-68.73 579.06,-74.76 580.91,-68.01"/>
</a>
</g>
</g>
<!-- Node16 -->
<g id="Node000016" class="node">
<title>Node16</title>
<g id="a_Node000016"><a xlink:href="class_cpl_1_1_container_1_1_map.html" target="_top" xlink:title=" ">
<polygon fill="white" stroke="#666666" points="579,-30.5 458,-30.5 458,0 579,0 579,-30.5"/>
<text text-anchor="start" x="466" y="-17" font-family="Helvetica,sans-Serif" font-size="10.00">Cpl::Container::Map</text>
<text text-anchor="middle" x="518.5" y="-5.75" font-family="Helvetica,sans-Serif" font-size="10.00">&lt; Cpl::MApp::MAppApi &gt;</text>
</a>
</g>
</g>
<!-- Node16&#45;&gt;Node1 -->
<g id="edge15_Node000001_Node000016" class="edge">
<title>Node16&#45;&gt;Node1</title>
<g id="a_edge15_Node000001_Node000016"><a xlink:title=" ">
<path fill="none" stroke="#9a32cd" stroke-dasharray="5,2" d="M590.52,-18.53C625.42,-23.35 666.25,-34.15 696,-57.75 738.29,-91.29 756.53,-158.01 762.13,-183.25"/>
<polygon fill="#9a32cd" stroke="#9a32cd" points="591.28,-15.1 580.92,-17.35 590.42,-22.05 591.28,-15.1"/>
</a>
</g>
<text text-anchor="middle" x="655.88" y="-70.25" font-family="Helvetica,sans-Serif" font-size="10.00" fill="grey"> m_inactiveMApps</text>
<text text-anchor="middle" x="655.88" y="-59" font-family="Helvetica,sans-Serif" font-size="10.00" fill="grey">m_startedMApps</text>
</g>
<!-- Node17 -->
<g id="Node000017" class="node">
<title>Node17</title>
<g id="a_Node000017"><a xlink:href="class_cpl_1_1_container_1_1_map.html" target="_top" xlink:title="This template class implements an Map using an AVL Binary tree (i.e.">
<polygon fill="white" stroke="#666666" points="290,-30.5 190.75,-30.5 190.75,0 290,0 290,-30.5"/>
<text text-anchor="start" x="198.75" y="-17" font-family="Helvetica,sans-Serif" font-size="10.00">Cpl::Container::Map</text>
<text text-anchor="middle" x="240.38" y="-5.75" font-family="Helvetica,sans-Serif" font-size="10.00">&lt; ITEM &gt;</text>
</a>
</g>
</g>
<!-- Node17&#45;&gt;Node16 -->
<g id="edge16_Node000016_Node000017" class="edge">
<title>Node17&#45;&gt;Node16</title>
<g id="a_edge16_Node000016_Node000017"><a xlink:title=" ">
<path fill="none" stroke="orange" stroke-dasharray="5,2" d="M301.81,-15.25C348.13,-15.25 411.73,-15.25 457.85,-15.25"/>
<polygon fill="orange" stroke="orange" points="301.94,-11.75 291.94,-15.25 301.94,-18.75 301.94,-11.75"/>
</a>
</g>
<text text-anchor="middle" x="367.62" y="-17" font-family="Helvetica,sans-Serif" font-size="10.00" fill="grey"> &lt; Cpl::MApp::MAppApi &gt;</text>
</g>
</g>
</svg>
