<?xml version="1.0" encoding="UTF-8" standalone="no"?>
<!DOCTYPE svg PUBLIC "-//W3C//DTD SVG 1.1//EN"
 "http://www.w3.org/Graphics/SVG/1.1/DTD/svg11.dtd">
<!-- Generated by graphviz version 2.43.0 (0)
 -->
<!-- Title: Ajax::Heating::Supervisor::FsmEventQueue_ Pages: 1 -->
<svg width="281pt" height="305pt"
 viewBox="0.00 0.00 281.00 305.00" xmlns="http://www.w3.org/2000/svg" xmlns:xlink="http://www.w3.org/1999/xlink">
<g id="graph0" class="graph" transform="scale(1 1) rotate(0) translate(4 301)">
<title>Ajax::Heating::Supervisor::FsmEventQueue_</title>
<!-- Node1 -->
<g id="Node000001" class="node">
<title>Node1</title>
<g id="a_Node000001"><a xlink:title="Event Queue for FSM events.">
<polygon fill="#999999" stroke="#666666" points="151,-153 11,-153 11,-123 151,-123 151,-153"/>
<text text-anchor="start" x="19" y="-141" font-family="Helvetica,sans-Serif" font-size="10.00">Ajax::Heating::Supervisor</text>
<text text-anchor="middle" x="81" y="-130" font-family="Helvetica,sans-Serif" font-size="10.00">::FsmEventQueue_</text>
</a>
</g>
</g>
<!-- Node5 -->
<g id="Node000005" class="node">
<title>Node5</title>
<g id="a_Node000005"><a xlink:href="class_ajax_1_1_heating_1_1_supervisor_1_1_api.html" target="_top" xlink:title="This class implements the Heating Algorithm Supervisor.">
<polygon fill="white" stroke="#666666" points="162,-86 0,-86 0,-67 162,-67 162,-86"/>
<text text-anchor="middle" x="81" y="-74" font-family="Helvetica,sans-Serif" font-size="10.00">Ajax::Heating::Supervisor::Api</text>
</a>
</g>
</g>
<!-- Node1&#45;&gt;Node5 -->
<g id="edge4_Node000001_Node000005" class="edge">
<title>Node1&#45;&gt;Node5</title>
<g id="a_edge4_Node000001_Node000005"><a xlink:title=" ">
<path fill="none" stroke="#63b8ff" d="M81,-112.79C81,-103.36 81,-93.15 81,-86.16"/>
<polygon fill="#63b8ff" stroke="#63b8ff" points="77.5,-112.9 81,-122.9 84.5,-112.9 77.5,-112.9"/>
</a>
</g>
</g>
<!-- Node2 -->
<g id="Node000002" class="node">
<title>Node2</title>
<g id="a_Node000002"><a xlink:href="class_ajax_1_1_heating_1_1_supervisor_1_1_fsm.html" target="_top" xlink:title="Here is the graph that shows the state machine this class implements.">
<polygon fill="white" stroke="#666666" points="88,-214.5 50,-214.5 50,-195.5 88,-195.5 88,-214.5"/>
<text text-anchor="middle" x="69" y="-202.5" font-family="Helvetica,sans-Serif" font-size="10.00">Fsm</text>
</a>
</g>
</g>
<!-- Node2&#45;&gt;Node1 -->
<g id="edge1_Node000001_Node000002" class="edge">
<title>Node2&#45;&gt;Node1</title>
<g id="a_edge1_Node000001_Node000002"><a xlink:title=" ">
<path fill="none" stroke="#63b8ff" d="M72.46,-185.24C74.36,-174.99 76.66,-162.5 78.4,-153.09"/>
<polygon fill="#63b8ff" stroke="#63b8ff" points="68.99,-184.76 70.62,-195.23 75.88,-186.04 68.99,-184.76"/>
</a>
</g>
</g>
<!-- Node3 -->
<g id="Node000003" class="node">
<title>Node3</title>
<g id="a_Node000003"><a xlink:href="class_cpl_1_1_container_1_1_ring_buffer.html" target="_top" xlink:title=" ">
<polygon fill="white" stroke="#666666" points="249.5,-220 106.5,-220 106.5,-190 249.5,-190 249.5,-220"/>
<text text-anchor="start" x="114.5" y="-208" font-family="Helvetica,sans-Serif" font-size="10.00">Cpl::Container::RingBuffer</text>
<text text-anchor="middle" x="178" y="-197" font-family="Helvetica,sans-Serif" font-size="10.00">&lt; FSM_EVENT_T &gt;</text>
</a>
</g>
</g>
<!-- Node3&#45;&gt;Node1 -->
<g id="edge2_Node000001_Node000003" class="edge">
<title>Node3&#45;&gt;Node1</title>
<g id="a_edge2_Node000001_Node000003"><a xlink:title=" ">
<path fill="none" stroke="#63b8ff" d="M148.5,-184.23C133.49,-174.18 115.6,-162.18 102.01,-153.08"/>
<polygon fill="#63b8ff" stroke="#63b8ff" points="146.7,-187.24 156.95,-189.9 150.59,-181.42 146.7,-187.24"/>
</a>
</g>
</g>
<!-- Node4 -->
<g id="Node000004" class="node">
<title>Node4</title>
<g id="a_Node000004"><a xlink:href="class_cpl_1_1_container_1_1_ring_buffer.html" target="_top" xlink:title="This template class implements a Ring Buffer.">
<polygon fill="white" stroke="#666666" points="249.5,-297 106.5,-297 106.5,-267 249.5,-267 249.5,-297"/>
<text text-anchor="start" x="114.5" y="-285" font-family="Helvetica,sans-Serif" font-size="10.00">Cpl::Container::RingBuffer</text>
<text text-anchor="middle" x="178" y="-274" font-family="Helvetica,sans-Serif" font-size="10.00">&lt; ITEM &gt;</text>
</a>
</g>
</g>
<!-- Node4&#45;&gt;Node3 -->
<g id="edge3_Node000003_Node000004" class="edge">
<title>Node4&#45;&gt;Node3</title>
<g id="a_edge3_Node000003_Node000004"><a xlink:title=" ">
<path fill="none" stroke="orange" stroke-dasharray="5,2" d="M178,-256.54C178,-244.45 178,-230.29 178,-220.04"/>
<polygon fill="orange" stroke="orange" points="174.5,-256.89 178,-266.89 181.5,-256.89 174.5,-256.89"/>
</a>
</g>
<text text-anchor="middle" x="225.5" y="-241" font-family="Helvetica,sans-Serif" font-size="10.00" fill="grey"> &lt; FSM_EVENT_T &gt;</text>
</g>
<!-- Node6 -->
<g id="Node000006" class="node">
<title>Node6</title>
<g id="a_Node000006"><a xlink:href="class_ajax_1_1_heating_1_1_simulated_1_1_house.html" target="_top" xlink:title="This class glues the House Simulation into the Heater Application.">
<polygon fill="white" stroke="#666666" points="150,-30 12,-30 12,0 150,0 150,-30"/>
<text text-anchor="start" x="20" y="-18" font-family="Helvetica,sans-Serif" font-size="10.00">Ajax::Heating::Simulated</text>
<text text-anchor="middle" x="81" y="-7" font-family="Helvetica,sans-Serif" font-size="10.00">::House</text>
</a>
</g>
</g>
<!-- Node5&#45;&gt;Node6 -->
<g id="edge5_Node000005_Node000006" class="edge">
<title>Node5&#45;&gt;Node6</title>
<g id="a_edge5_Node000005_Node000006"><a xlink:title=" ">
<path fill="none" stroke="#63b8ff" d="M81,-56.73C81,-48.09 81,-38 81,-30.02"/>
<polygon fill="#63b8ff" stroke="#63b8ff" points="77.5,-56.98 81,-66.98 84.5,-56.98 77.5,-56.98"/>
</a>
</g>
</g>
</g>
</svg>
