<?xml version="1.0" encoding="UTF-8" standalone="no"?>
<!DOCTYPE svg PUBLIC "-//W3C//DTD SVG 1.1//EN"
 "http://www.w3.org/Graphics/SVG/1.1/DTD/svg11.dtd">
<!-- Generated by graphviz version 2.43.0 (0)
 -->
<!-- Title: Driver::SPI::Arduino::Master Pages: 1 -->
<svg width="252pt" height="115pt"
 viewBox="0.00 0.00 252.00 115.00" xmlns="http://www.w3.org/2000/svg" xmlns:xlink="http://www.w3.org/1999/xlink">
<g id="graph0" class="graph" transform="scale(1 1) rotate(0) translate(4 111)">
<title>Driver::SPI::Arduino::Master</title>
<!-- Node1 -->
<g id="Node000001" class="node">
<title>Node1</title>
<g id="a_Node000001"><a xlink:title="This class implements the SPI interface using the Arduino Framework.">
<polygon fill="#999999" stroke="#666666" points="174,-30 63,-30 63,0 174,0 174,-30"/>
<text text-anchor="start" x="71" y="-18" font-family="Helvetica,sans-Serif" font-size="10.00">Driver::SPI::Arduino</text>
<text text-anchor="middle" x="118.5" y="-7" font-family="Helvetica,sans-Serif" font-size="10.00">::Master</text>
</a>
</g>
</g>
<!-- Node2 -->
<g id="Node000002" class="node">
<title>Node2</title>
<g id="a_Node000002"><a xlink:href="class_driver_1_1_s_p_i_1_1_master.html" target="_top" xlink:title="This class defines a non&#45;platform specific interface for an SPI master device driver.">
<polygon fill="white" stroke="#666666" points="107,-101.5 0,-101.5 0,-82.5 107,-82.5 107,-101.5"/>
<text text-anchor="middle" x="53.5" y="-89.5" font-family="Helvetica,sans-Serif" font-size="10.00">Driver::SPI::Master</text>
</a>
</g>
</g>
<!-- Node2&#45;&gt;Node1 -->
<g id="edge1_Node000001_Node000002" class="edge">
<title>Node2&#45;&gt;Node1</title>
<g id="a_edge1_Node000001_Node000002"><a xlink:title=" ">
<path fill="none" stroke="#63b8ff" d="M67.78,-74.53C79.3,-61.23 95.33,-42.73 106.27,-30.11"/>
<polygon fill="#63b8ff" stroke="#63b8ff" points="64.86,-72.55 60.96,-82.4 70.15,-77.13 64.86,-72.55"/>
</a>
</g>
</g>
<!-- Node3 -->
<g id="Node000003" class="node">
<title>Node3</title>
<g id="a_Node000003"><a xlink:href="struct_driver_1_1_s_p_i_1_1_arduino_1_1_master_1_1_s_p_i_config___t.html" target="_top" xlink:title="SPI Settings (note: needed because the SPISettings class does not allow changing the baudrate once in...">
<polygon fill="white" stroke="#666666" points="244,-107 125,-107 125,-77 244,-77 244,-107"/>
<text text-anchor="start" x="133" y="-95" font-family="Helvetica,sans-Serif" font-size="10.00">Driver::SPI::Arduino</text>
<text text-anchor="middle" x="184.5" y="-84" font-family="Helvetica,sans-Serif" font-size="10.00">::Master::SPIConfig_T</text>
</a>
</g>
</g>
<!-- Node3&#45;&gt;Node1 -->
<g id="edge2_Node000001_Node000003" class="edge">
<title>Node3&#45;&gt;Node1</title>
<g id="a_edge2_Node000001_Node000003"><a xlink:title=" ">
<path fill="none" stroke="#9a32cd" stroke-dasharray="5,2" d="M165.23,-69.1C154.13,-56.49 140.52,-41.03 130.86,-30.04"/>
<polygon fill="#9a32cd" stroke="#9a32cd" points="162.85,-71.7 172.09,-76.89 168.11,-67.07 162.85,-71.7"/>
</a>
</g>
<text text-anchor="middle" x="186.5" y="-51" font-family="Helvetica,sans-Serif" font-size="10.00" fill="grey"> m_spiConfig</text>
</g>
</g>
</svg>
