<?xml version="1.0" encoding="UTF-8" standalone="no"?>
<!DOCTYPE svg PUBLIC "-//W3C//DTD SVG 1.1//EN"
 "http://www.w3.org/Graphics/SVG/1.1/DTD/svg11.dtd">
<!-- Generated by graphviz version 2.43.0 (0)
 -->
<!-- Title: Driver::AIO::Eros::Thermistor Pages: 1 -->
<svg width="946pt" height="156pt"
 viewBox="0.00 0.00 946.00 156.00" xmlns="http://www.w3.org/2000/svg" xmlns:xlink="http://www.w3.org/1999/xlink">
<g id="graph0" class="graph" transform="scale(1 1) rotate(0) translate(4 152)">
<title>Driver::AIO::Eros::Thermistor</title>
<!-- Node1 -->
<g id="Node000001" class="node">
<title>Node1</title>
<g id="a_Node000001"><a xlink:title="This class is an Eros specific extension of the Driver::AIO::Ajax::Thermistor driver.">
<polygon fill="#999999" stroke="#666666" points="938,-60.5 835,-60.5 835,-30.5 938,-30.5 938,-60.5"/>
<text text-anchor="start" x="843" y="-48.5" font-family="Helvetica,sans-Serif" font-size="10.00">Driver::AIO::Eros::</text>
<text text-anchor="middle" x="886.5" y="-37.5" font-family="Helvetica,sans-Serif" font-size="10.00">Thermistor</text>
</a>
</g>
</g>
<!-- Node2 -->
<g id="Node000002" class="node">
<title>Node2</title>
<g id="a_Node000002"><a xlink:href="class_driver_1_1_a_i_o_1_1_ajax_1_1_thermistor.html" target="_top" xlink:title="This class is responsible for sampling the on&#45;board temperature sensor every N milliseconds and popul...">
<polygon fill="white" stroke="#666666" points="799,-60.5 695,-60.5 695,-30.5 799,-30.5 799,-60.5"/>
<text text-anchor="start" x="703" y="-48.5" font-family="Helvetica,sans-Serif" font-size="10.00">Driver::AIO::Ajax::</text>
<text text-anchor="middle" x="747" y="-37.5" font-family="Helvetica,sans-Serif" font-size="10.00">Thermistor</text>
</a>
</g>
</g>
<!-- Node2&#45;&gt;Node1 -->
<g id="edge1_Node000001_Node000002" class="edge">
<title>Node2&#45;&gt;Node1</title>
<g id="a_edge1_Node000001_Node000002"><a xlink:title=" ">
<path fill="none" stroke="#63b8ff" d="M809.41,-45.5C817.87,-45.5 826.48,-45.5 834.72,-45.5"/>
<polygon fill="#63b8ff" stroke="#63b8ff" points="809.2,-42 799.2,-45.5 809.2,-49 809.2,-42"/>
</a>
</g>
</g>
<!-- Node3 -->
<g id="Node000003" class="node">
<title>Node3</title>
<g id="a_Node000003"><a xlink:href="class_cpl_1_1_itc_1_1_close_sync.html" target="_top" xlink:title="This partially concrete class implements the synchronous ITC close call for the CloseApi.">
<polygon fill="white" stroke="#666666" points="657.5,-83 550.5,-83 550.5,-64 657.5,-64 657.5,-83"/>
<text text-anchor="middle" x="604" y="-71" font-family="Helvetica,sans-Serif" font-size="10.00">Cpl::Itc::CloseSync</text>
</a>
</g>
</g>
<!-- Node3&#45;&gt;Node2 -->
<g id="edge2_Node000002_Node000003" class="edge">
<title>Node3&#45;&gt;Node2</title>
<g id="a_edge2_Node000002_Node000003"><a xlink:title=" ">
<path fill="none" stroke="#63b8ff" d="M663.05,-61.97C673.55,-59.89 684.43,-57.73 694.72,-55.68"/>
<polygon fill="#63b8ff" stroke="#63b8ff" points="662.26,-58.56 653.13,-63.94 663.62,-65.43 662.26,-58.56"/>
</a>
</g>
</g>
<!-- Node4 -->
<g id="Node000004" class="node">
<title>Node4</title>
<g id="a_Node000004"><a xlink:href="class_cpl_1_1_itc_1_1_open_sync.html" target="_top" xlink:title="This partially concrete class implements the synchronous ITC open call for the OpenApi.">
<polygon fill="white" stroke="#666666" points="482,-130 377,-130 377,-111 482,-111 482,-130"/>
<text text-anchor="middle" x="429.5" y="-118" font-family="Helvetica,sans-Serif" font-size="10.00">Cpl::Itc::OpenSync</text>
</a>
</g>
</g>
<!-- Node4&#45;&gt;Node3 -->
<g id="edge3_Node000003_Node000004" class="edge">
<title>Node4&#45;&gt;Node3</title>
<g id="a_edge3_Node000003_Node000004"><a xlink:title=" ">
<path fill="none" stroke="#63b8ff" d="M488.02,-108.7C496.43,-106.76 504.96,-104.67 513,-102.5 534.24,-96.78 557.9,-89.1 575.63,-83.08"/>
<polygon fill="#63b8ff" stroke="#63b8ff" points="487.23,-105.29 478.24,-110.91 488.77,-112.12 487.23,-105.29"/>
</a>
</g>
</g>
<!-- Node5 -->
<g id="Node000005" class="node">
<title>Node5</title>
<g id="a_Node000005"><a xlink:href="class_cpl_1_1_itc_1_1_open_api.html" target="_top" xlink:title="This abstract class defines an open interface.">
<polygon fill="white" stroke="#666666" points="279,-148 181,-148 181,-129 279,-129 279,-148"/>
<text text-anchor="middle" x="230" y="-136" font-family="Helvetica,sans-Serif" font-size="10.00">Cpl::Itc::OpenApi</text>
</a>
</g>
</g>
<!-- Node5&#45;&gt;Node4 -->
<g id="edge4_Node000004_Node000005" class="edge">
<title>Node5&#45;&gt;Node4</title>
<g id="a_edge4_Node000004_Node000005"><a xlink:title=" ">
<path fill="none" stroke="#63b8ff" d="M289.04,-133.21C316.83,-130.68 349.83,-127.67 376.76,-125.22"/>
<polygon fill="#63b8ff" stroke="#63b8ff" points="288.7,-129.73 279.06,-134.12 289.34,-136.7 288.7,-129.73"/>
</a>
</g>
</g>
<!-- Node6 -->
<g id="Node000006" class="node">
<title>Node6</title>
<g id="a_Node000006"><a xlink:href="class_cpl_1_1_itc_1_1_open_request.html" target="_top" xlink:title="This abstract class define message types and payloads for a set of ITC services.">
<polygon fill="white" stroke="#666666" points="291,-111 169,-111 169,-92 291,-92 291,-111"/>
<text text-anchor="middle" x="230" y="-99" font-family="Helvetica,sans-Serif" font-size="10.00">Cpl::Itc::OpenRequest</text>
</a>
</g>
</g>
<!-- Node6&#45;&gt;Node4 -->
<g id="edge5_Node000004_Node000006" class="edge">
<title>Node6&#45;&gt;Node4</title>
<g id="a_edge5_Node000004_Node000006"><a xlink:title=" ">
<path fill="none" stroke="#63b8ff" d="M301.19,-108.25C326.09,-110.65 353.65,-113.3 376.73,-115.52"/>
<polygon fill="#63b8ff" stroke="#63b8ff" points="301.35,-104.75 291.06,-107.28 300.68,-111.72 301.35,-104.75"/>
</a>
</g>
</g>
<!-- Node7 -->
<g id="Node000007" class="node">
<title>Node7</title>
<g id="a_Node000007"><a xlink:href="class_cpl_1_1_itc_1_1_close_api.html" target="_top" xlink:title="This abstract class defines an close interface.">
<polygon fill="white" stroke="#666666" points="479,-93 380,-93 380,-74 479,-74 479,-93"/>
<text text-anchor="middle" x="429.5" y="-81" font-family="Helvetica,sans-Serif" font-size="10.00">Cpl::Itc::CloseApi</text>
</a>
</g>
</g>
<!-- Node7&#45;&gt;Node3 -->
<g id="edge6_Node000003_Node000007" class="edge">
<title>Node7&#45;&gt;Node3</title>
<g id="a_edge6_Node000003_Node000007"><a xlink:title=" ">
<path fill="none" stroke="#63b8ff" d="M489.16,-80.1C508.98,-78.95 530.99,-77.67 550.32,-76.55"/>
<polygon fill="#63b8ff" stroke="#63b8ff" points="488.79,-76.61 479.01,-80.69 489.2,-83.6 488.79,-76.61"/>
</a>
</g>
</g>
<!-- Node8 -->
<g id="Node000008" class="node">
<title>Node8</title>
<g id="a_Node000008"><a xlink:href="class_cpl_1_1_itc_1_1_close_request.html" target="_top" xlink:title="This abstract class define message types and payloads for a set of ITC services.">
<polygon fill="white" stroke="#666666" points="491,-56 368,-56 368,-37 491,-37 491,-56"/>
<text text-anchor="middle" x="429.5" y="-44" font-family="Helvetica,sans-Serif" font-size="10.00">Cpl::Itc::CloseRequest</text>
</a>
</g>
</g>
<!-- Node8&#45;&gt;Node3 -->
<g id="edge7_Node000003_Node000008" class="edge">
<title>Node8&#45;&gt;Node3</title>
<g id="a_edge7_Node000003_Node000008"><a xlink:title=" ">
<path fill="none" stroke="#63b8ff" d="M501.41,-57.6C517.82,-60.17 535,-62.86 550.46,-65.28"/>
<polygon fill="#63b8ff" stroke="#63b8ff" points="501.74,-54.11 491.32,-56.02 500.66,-61.02 501.74,-54.11"/>
</a>
</g>
</g>
<!-- Node9 -->
<g id="Node000009" class="node">
<title>Node9</title>
<g id="a_Node000009"><a xlink:href="class_cpl_1_1_system_1_1_timer.html" target="_top" xlink:title="This mostly concrete interface defines the operations that can be performed on a software timer.">
<polygon fill="white" stroke="#666666" points="659,-37 549,-37 549,-18 659,-18 659,-37"/>
<text text-anchor="middle" x="604" y="-25" font-family="Helvetica,sans-Serif" font-size="10.00">Cpl::System::Timer</text>
</a>
</g>
</g>
<!-- Node9&#45;&gt;Node2 -->
<g id="edge8_Node000002_Node000009" class="edge">
<title>Node9&#45;&gt;Node2</title>
<g id="a_edge8_Node000002_Node000009"><a xlink:title=" ">
<path fill="none" stroke="#63b8ff" d="M669.06,-35.68C677.61,-36.77 686.29,-37.88 694.58,-38.94"/>
<polygon fill="#63b8ff" stroke="#63b8ff" points="669.47,-32.2 659.11,-34.41 668.59,-39.15 669.47,-32.2"/>
</a>
</g>
</g>
<!-- Node10 -->
<g id="Node000010" class="node">
<title>Node10</title>
<g id="a_Node000010"><a xlink:href="class_cpl_1_1_system_1_1_counter_callback__.html" target="_top" xlink:title="This abstract class defines the call&#45;back interface for a Counter object.">
<polygon fill="white" stroke="#666666" points="513,-19 346,-19 346,0 513,0 513,-19"/>
<text text-anchor="middle" x="429.5" y="-7" font-family="Helvetica,sans-Serif" font-size="10.00">Cpl::System::CounterCallback_</text>
</a>
</g>
</g>
<!-- Node10&#45;&gt;Node9 -->
<g id="edge9_Node000009_Node000010" class="edge">
<title>Node10&#45;&gt;Node9</title>
<g id="a_edge9_Node000009_Node000010"><a xlink:title=" ">
<path fill="none" stroke="#63b8ff" d="M523.43,-19.2C532.11,-20.1 540.71,-21 548.85,-21.85"/>
<polygon fill="#63b8ff" stroke="#63b8ff" points="523.52,-15.69 513.21,-18.13 522.8,-22.65 523.52,-15.69"/>
</a>
</g>
</g>
<!-- Node11 -->
<g id="Node000011" class="node">
<title>Node11</title>
<g id="a_Node000011"><a xlink:href="class_cpl_1_1_container_1_1_extended_item.html" target="_top" xlink:title="This class is used by the Container classes to implement a various types of DOUBLY linked containers.">
<polygon fill="white" stroke="#666666" points="310,-19 150,-19 150,0 310,0 310,-19"/>
<text text-anchor="middle" x="230" y="-7" font-family="Helvetica,sans-Serif" font-size="10.00">Cpl::Container::ExtendedItem</text>
</a>
</g>
</g>
<!-- Node11&#45;&gt;Node10 -->
<g id="edge10_Node000010_Node000011" class="edge">
<title>Node11&#45;&gt;Node10</title>
<g id="a_edge10_Node000010_Node000011"><a xlink:title=" ">
<path fill="none" stroke="#63b8ff" d="M320.42,-9.5C328.85,-9.5 337.37,-9.5 345.74,-9.5"/>
<polygon fill="#63b8ff" stroke="#63b8ff" points="320.19,-6 310.19,-9.5 320.19,-13 320.19,-6"/>
</a>
</g>
</g>
<!-- Node12 -->
<g id="Node000012" class="node">
<title>Node12</title>
<g id="a_Node000012"><a xlink:href="class_cpl_1_1_container_1_1_item.html" target="_top" xlink:title="This class is used by the Container classes to implement a various types of singly linked containers.">
<polygon fill="white" stroke="#666666" points="114,-19 0,-19 0,0 114,0 114,-19"/>
<text text-anchor="middle" x="57" y="-7" font-family="Helvetica,sans-Serif" font-size="10.00">Cpl::Container::Item</text>
</a>
</g>
</g>
<!-- Node12&#45;&gt;Node11 -->
<g id="edge11_Node000011_Node000012" class="edge">
<title>Node12&#45;&gt;Node11</title>
<g id="a_edge11_Node000011_Node000012"><a xlink:title=" ">
<path fill="none" stroke="#63b8ff" d="M124.51,-9.5C132.86,-9.5 141.47,-9.5 150,-9.5"/>
<polygon fill="#63b8ff" stroke="#63b8ff" points="124.47,-6 114.47,-9.5 124.47,-13 124.47,-6"/>
</a>
</g>
</g>
</g>
</svg>
