<?xml version="1.0" encoding="UTF-8" standalone="no"?>
<!DOCTYPE svg PUBLIC "-//W3C//DTD SVG 1.1//EN"
 "http://www.w3.org/Graphics/SVG/1.1/DTD/svg11.dtd">
<!-- Generated by graphviz version 9.0.0 (20230911.1827)
 -->
<!-- Title: Cpl::System::Thread Pages: 1 -->
<svg width="547pt" height="235pt"
 viewBox="0.00 0.00 546.75 234.50" xmlns="http://www.w3.org/2000/svg" xmlns:xlink="http://www.w3.org/1999/xlink">
<g id="graph0" class="graph" transform="scale(1 1) rotate(0) translate(4 230.5)">
<title>Cpl::System::Thread</title>
<!-- Node1 -->
<g id="Node000001" class="node">
<title>Node1</title>
<g id="a_Node000001"><a xlink:title="This abstract class defines the operations that can be performed on a thread.">
<polygon fill="#999999" stroke="#666666" points="384,-122.88 281.75,-122.88 281.75,-103.62 384,-103.62 384,-122.88"/>
<text text-anchor="middle" x="332.88" y="-109.38" font-family="Helvetica,sans-Serif" font-size="10.00">Cpl::System::Thread</text>
</a>
</g>
</g>
<!-- Node4 -->
<g id="Node000004" class="node">
<title>Node4</title>
<g id="a_Node000004"><a xlink:href="class_cpl_1_1_system_1_1_bare_metal_1_1_thread.html" target="_top" xlink:title="This concrete class implements &#39;enough&#39; of a Thread object to support Cpl::System framework on a bare...">
<polygon fill="white" stroke="#666666" points="537.62,-226.5 421.12,-226.5 421.12,-196 537.62,-196 537.62,-226.5"/>
<text text-anchor="start" x="429.12" y="-213" font-family="Helvetica,sans-Serif" font-size="10.00">Cpl::System::BareMetal</text>
<text text-anchor="middle" x="479.38" y="-201.75" font-family="Helvetica,sans-Serif" font-size="10.00">::Thread</text>
</a>
</g>
</g>
<!-- Node1&#45;&gt;Node4 -->
<g id="edge3_Node000001_Node000004" class="edge">
<title>Node1&#45;&gt;Node4</title>
<g id="a_edge3_Node000001_Node000004"><a xlink:title=" ">
<path fill="none" stroke="#63b8ff" d="M351.91,-131.36C368.52,-147.31 394.4,-170.42 420,-186.25 425.44,-189.61 431.41,-192.74 437.39,-195.55"/>
<polygon fill="#63b8ff" stroke="#63b8ff" points="354.38,-128.87 344.78,-124.38 349.48,-133.87 354.38,-128.87"/>
</a>
</g>
</g>
<!-- Node5 -->
<g id="Node000005" class="node">
<title>Node5</title>
<g id="a_Node000005"><a xlink:href="class_cpl_1_1_system_1_1_cpp11_1_1_thread.html" target="_top" xlink:title="This concrete class implements a Thread object using C++11 threads.">
<polygon fill="white" stroke="#666666" points="529.38,-177.5 429.38,-177.5 429.38,-147 529.38,-147 529.38,-177.5"/>
<text text-anchor="start" x="437.38" y="-164" font-family="Helvetica,sans-Serif" font-size="10.00">Cpl::System::Cpp11</text>
<text text-anchor="middle" x="479.38" y="-152.75" font-family="Helvetica,sans-Serif" font-size="10.00">::Thread</text>
</a>
</g>
</g>
<!-- Node1&#45;&gt;Node5 -->
<g id="edge4_Node000001_Node000005" class="edge">
<title>Node1&#45;&gt;Node5</title>
<g id="a_edge4_Node000001_Node000005"><a xlink:title=" ">
<path fill="none" stroke="#63b8ff" d="M374.17,-126.92C392.14,-133.01 413.41,-140.22 432.04,-146.54"/>
<polygon fill="#63b8ff" stroke="#63b8ff" points="375.49,-123.67 364.9,-123.77 373.25,-130.3 375.49,-123.67"/>
</a>
</g>
</g>
<!-- Node6 -->
<g id="Node000006" class="node">
<title>Node6</title>
<g id="a_Node000006"><a xlink:href="class_cpl_1_1_system_1_1_free_r_t_o_s_1_1_thread.html" target="_top" xlink:title="This concrete class implements a Thread object using FreeRTOS threads.">
<polygon fill="white" stroke="#666666" points="538.75,-128.5 420,-128.5 420,-98 538.75,-98 538.75,-128.5"/>
<text text-anchor="start" x="428" y="-115" font-family="Helvetica,sans-Serif" font-size="10.00">Cpl::System::FreeRTOS</text>
<text text-anchor="middle" x="479.38" y="-103.75" font-family="Helvetica,sans-Serif" font-size="10.00">::Thread</text>
</a>
</g>
</g>
<!-- Node1&#45;&gt;Node6 -->
<g id="edge5_Node000001_Node000006" class="edge">
<title>Node1&#45;&gt;Node6</title>
<g id="a_edge5_Node000001_Node000006"><a xlink:title=" ">
<path fill="none" stroke="#63b8ff" d="M395.84,-113.25C403.75,-113.25 411.83,-113.25 419.69,-113.25"/>
<polygon fill="#63b8ff" stroke="#63b8ff" points="395.93,-109.75 385.93,-113.25 395.93,-116.75 395.93,-109.75"/>
</a>
</g>
</g>
<!-- Node7 -->
<g id="Node000007" class="node">
<title>Node7</title>
<g id="a_Node000007"><a xlink:href="class_cpl_1_1_system_1_1_posix_1_1_thread.html" target="_top" xlink:title="This concrete class implements a Thread object using Posix threads.">
<polygon fill="white" stroke="#666666" points="527.5,-79.5 431.25,-79.5 431.25,-49 527.5,-49 527.5,-79.5"/>
<text text-anchor="start" x="439.25" y="-66" font-family="Helvetica,sans-Serif" font-size="10.00">Cpl::System::Posix</text>
<text text-anchor="middle" x="479.38" y="-54.75" font-family="Helvetica,sans-Serif" font-size="10.00">::Thread</text>
</a>
</g>
</g>
<!-- Node1&#45;&gt;Node7 -->
<g id="edge6_Node000001_Node000007" class="edge">
<title>Node1&#45;&gt;Node7</title>
<g id="a_edge6_Node000001_Node000007"><a xlink:title=" ">
<path fill="none" stroke="#63b8ff" d="M374.17,-99.58C392.14,-93.49 413.41,-86.28 432.04,-79.96"/>
<polygon fill="#63b8ff" stroke="#63b8ff" points="373.25,-96.2 364.9,-102.73 375.49,-102.83 373.25,-96.2"/>
</a>
</g>
</g>
<!-- Node8 -->
<g id="Node000008" class="node">
<title>Node8</title>
<g id="a_Node000008"><a xlink:href="class_cpl_1_1_system_1_1_win32_1_1_thread.html" target="_top" xlink:title="This concrete class implements a Thread object using Win32 threads NOTE: The class/implementation use...">
<polygon fill="white" stroke="#666666" points="529,-30.5 429.75,-30.5 429.75,0 529,0 529,-30.5"/>
<text text-anchor="start" x="437.75" y="-17" font-family="Helvetica,sans-Serif" font-size="10.00">Cpl::System::Win32</text>
<text text-anchor="middle" x="479.38" y="-5.75" font-family="Helvetica,sans-Serif" font-size="10.00">::Thread</text>
</a>
</g>
</g>
<!-- Node1&#45;&gt;Node8 -->
<g id="edge7_Node000001_Node000008" class="edge">
<title>Node1&#45;&gt;Node8</title>
<g id="a_edge7_Node000001_Node000008"><a xlink:title=" ">
<path fill="none" stroke="#63b8ff" d="M351.91,-95.14C368.52,-79.19 394.4,-56.08 420,-40.25 425.44,-36.89 431.41,-33.76 437.39,-30.95"/>
<polygon fill="#63b8ff" stroke="#63b8ff" points="349.48,-92.63 344.78,-102.12 354.38,-97.63 349.48,-92.63"/>
</a>
</g>
</g>
<!-- Node2 -->
<g id="Node000002" class="node">
<title>Node2</title>
<g id="a_Node000002"><a xlink:href="class_cpl_1_1_system_1_1_signable.html" target="_top" xlink:title="This abstract class defines the interface by which a client can cause an object that is waiting&#45;on&#45;a&#45;...">
<polygon fill="white" stroke="#666666" points="245.75,-122.88 136,-122.88 136,-103.62 245.75,-103.62 245.75,-122.88"/>
<text text-anchor="middle" x="190.88" y="-109.38" font-family="Helvetica,sans-Serif" font-size="10.00">Cpl::System::Signable</text>
</a>
</g>
</g>
<!-- Node2&#45;&gt;Node1 -->
<g id="edge1_Node000001_Node000002" class="edge">
<title>Node2&#45;&gt;Node1</title>
<g id="a_edge1_Node000001_Node000002"><a xlink:title=" ">
<path fill="none" stroke="#63b8ff" d="M257.39,-113.25C265.51,-113.25 273.72,-113.25 281.56,-113.25"/>
<polygon fill="#63b8ff" stroke="#63b8ff" points="257.52,-109.75 247.52,-113.25 257.52,-116.75 257.52,-109.75"/>
</a>
</g>
</g>
<!-- Node3 -->
<g id="Node000003" class="node">
<title>Node3</title>
<g id="a_Node000003"><a xlink:href="class_cpl_1_1_container_1_1_item.html" target="_top" xlink:title="This class is used by the Container classes to implement a various types of singly linked containers.">
<polygon fill="white" stroke="#666666" points="100,-122.88 0,-122.88 0,-103.62 100,-103.62 100,-122.88"/>
<text text-anchor="middle" x="50" y="-109.38" font-family="Helvetica,sans-Serif" font-size="10.00">Cpl::Container::Item</text>
</a>
</g>
</g>
<!-- Node3&#45;&gt;Node2 -->
<g id="edge2_Node000002_Node000003" class="edge">
<title>Node3&#45;&gt;Node2</title>
<g id="a_edge2_Node000002_Node000003"><a xlink:title=" ">
<path fill="none" stroke="#63b8ff" d="M111.64,-113.25C119.74,-113.25 128,-113.25 135.96,-113.25"/>
<polygon fill="#63b8ff" stroke="#63b8ff" points="111.87,-109.75 101.87,-113.25 111.87,-116.75 111.87,-109.75"/>
</a>
</g>
</g>
</g>
</svg>
