<?xml version="1.0" encoding="UTF-8" standalone="no"?>
<!DOCTYPE svg PUBLIC "-//W3C//DTD SVG 1.1//EN"
 "http://www.w3.org/Graphics/SVG/1.1/DTD/svg11.dtd">
<!-- Generated by graphviz version 9.0.0 (20230911.1827)
 -->
<!-- Title: Cpl::Dm::ModelDatabase Pages: 1 -->
<svg width="581pt" height="113pt"
 viewBox="0.00 0.00 581.00 113.25" xmlns="http://www.w3.org/2000/svg" xmlns:xlink="http://www.w3.org/1999/xlink">
<g id="graph0" class="graph" transform="scale(1 1) rotate(0) translate(4 109.25)">
<title>Cpl::Dm::ModelDatabase</title>
<!-- Node1 -->
<g id="Node000001" class="node">
<title>Node1</title>
<g id="a_Node000001"><a xlink:title="This concrete class implements a simple Model Database.">
<polygon fill="#999999" stroke="#666666" points="573,-62.25 451.25,-62.25 451.25,-43 573,-43 573,-62.25"/>
<text text-anchor="middle" x="512.12" y="-48.75" font-family="Helvetica,sans-Serif" font-size="10.00">Cpl::Dm::ModelDatabase</text>
</a>
</g>
</g>
<!-- Node2 -->
<g id="Node000002" class="node">
<title>Node2</title>
<g id="a_Node000002"><a xlink:href="class_cpl_1_1_dm_1_1_model_database_api.html" target="_top" xlink:title="This class defines the basic operations that can be performed on a Model Base.">
<polygon fill="white" stroke="#666666" points="381.5,-105.25 245.5,-105.25 245.5,-86 381.5,-86 381.5,-105.25"/>
<text text-anchor="middle" x="313.5" y="-91.75" font-family="Helvetica,sans-Serif" font-size="10.00">Cpl::Dm::ModelDatabaseApi</text>
</a>
</g>
</g>
<!-- Node2&#45;&gt;Node1 -->
<g id="edge1_Node000001_Node000002" class="edge">
<title>Node2&#45;&gt;Node1</title>
<g id="a_edge1_Node000001_Node000002"><a xlink:title=" ">
<path fill="none" stroke="#63b8ff" d="M371.64,-83.13C401.31,-76.64 437.08,-68.82 464.97,-62.72"/>
<polygon fill="#63b8ff" stroke="#63b8ff" points="371.1,-79.66 362.08,-85.22 372.6,-86.5 371.1,-79.66"/>
</a>
</g>
</g>
<!-- Node3 -->
<g id="Node000003" class="node">
<title>Node3</title>
<g id="a_Node000003"><a xlink:href="class_cpl_1_1_container_1_1_s_list.html" target="_top" xlink:title=" ">
<polygon fill="white" stroke="#666666" points="373.25,-67.88 253.75,-67.88 253.75,-37.38 373.25,-37.38 373.25,-67.88"/>
<text text-anchor="start" x="261.75" y="-54.38" font-family="Helvetica,sans-Serif" font-size="10.00">Cpl::Container::SList</text>
<text text-anchor="middle" x="313.5" y="-43.12" font-family="Helvetica,sans-Serif" font-size="10.00">&lt; Cpl::Dm::ModelPoint &gt;</text>
</a>
</g>
</g>
<!-- Node3&#45;&gt;Node1 -->
<g id="edge2_Node000001_Node000003" class="edge">
<title>Node3&#45;&gt;Node1</title>
<g id="a_edge2_Node000001_Node000003"><a xlink:title=" ">
<path fill="none" stroke="#9a32cd" stroke-dasharray="5,2" d="M384.9,-52.62C406.47,-52.62 429.98,-52.62 450.81,-52.62"/>
<polygon fill="#9a32cd" stroke="#9a32cd" points="385.01,-49.13 375.01,-52.63 385.01,-56.13 385.01,-49.13"/>
</a>
</g>
<text text-anchor="middle" x="416.38" y="-54.38" font-family="Helvetica,sans-Serif" font-size="10.00" fill="grey"> m_list</text>
</g>
<!-- Node4 -->
<g id="Node000004" class="node">
<title>Node4</title>
<g id="a_Node000004"><a xlink:href="class_cpl_1_1_container_1_1_s_list.html" target="_top" xlink:title="This template class implements a singly linked list which maintains the ordering imposed on it by the...">
<polygon fill="white" stroke="#666666" points="103.75,-67.88 0,-67.88 0,-37.38 103.75,-37.38 103.75,-67.88"/>
<text text-anchor="start" x="8" y="-54.38" font-family="Helvetica,sans-Serif" font-size="10.00">Cpl::Container::SList</text>
<text text-anchor="middle" x="51.88" y="-43.12" font-family="Helvetica,sans-Serif" font-size="10.00">&lt; ITEM &gt;</text>
</a>
</g>
</g>
<!-- Node4&#45;&gt;Node3 -->
<g id="edge3_Node000003_Node000004" class="edge">
<title>Node4&#45;&gt;Node3</title>
<g id="a_edge3_Node000003_Node000004"><a xlink:title=" ">
<path fill="none" stroke="orange" stroke-dasharray="5,2" d="M115.64,-52.62C157.61,-52.62 212.46,-52.62 253.6,-52.62"/>
<polygon fill="orange" stroke="orange" points="115.68,-49.13 105.68,-52.63 115.68,-56.13 115.68,-49.13"/>
</a>
</g>
<text text-anchor="middle" x="174.62" y="-54.38" font-family="Helvetica,sans-Serif" font-size="10.00" fill="grey"> &lt; Cpl::Dm::ModelPoint &gt;</text>
</g>
<!-- Node5 -->
<g id="Node000005" class="node">
<title>Node5</title>
<g id="a_Node000005"><a xlink:href="class_cpl_1_1_system_1_1_mutex.html" target="_top" xlink:title="This mutex class defines the interface for a mutex that has &quot;recursive&quot; semantics.">
<polygon fill="white" stroke="#666666" points="362.75,-19.25 264.25,-19.25 264.25,0 362.75,0 362.75,-19.25"/>
<text text-anchor="middle" x="313.5" y="-5.75" font-family="Helvetica,sans-Serif" font-size="10.00">Cpl::System::Mutex</text>
</a>
</g>
</g>
<!-- Node5&#45;&gt;Node1 -->
<g id="edge4_Node000001_Node000005" class="edge">
<title>Node5&#45;&gt;Node1</title>
<g id="a_edge4_Node000001_Node000005"><a xlink:title=" ">
<path fill="none" stroke="#9a32cd" stroke-dasharray="5,2" d="M371.64,-22.12C401.31,-28.61 437.08,-36.43 464.97,-42.53"/>
<polygon fill="#9a32cd" stroke="#9a32cd" points="372.6,-18.75 362.08,-20.03 371.1,-25.59 372.6,-18.75"/>
</a>
</g>
<text text-anchor="middle" x="416.38" y="-37.38" font-family="Helvetica,sans-Serif" font-size="10.00" fill="grey"> m_lock</text>
</g>
</g>
</svg>
