<?xml version="1.0" encoding="UTF-8" standalone="no"?>
<!DOCTYPE svg PUBLIC "-//W3C//DTD SVG 1.1//EN"
 "http://www.w3.org/Graphics/SVG/1.1/DTD/svg11.dtd">
<!-- Generated by graphviz version 9.0.0 (20230911.1827)
 -->
<!-- Title: Ajax::ScreenMgr::ScreenApi Pages: 1 -->
<svg width="326pt" height="236pt"
 viewBox="0.00 0.00 325.75 235.88" xmlns="http://www.w3.org/2000/svg" xmlns:xlink="http://www.w3.org/1999/xlink">
<g id="graph0" class="graph" transform="scale(1 1) rotate(0) translate(4 231.88)">
<title>Ajax::ScreenMgr::ScreenApi</title>
<!-- Node1 -->
<g id="Node000001" class="node">
<title>Node1</title>
<g id="a_Node000001"><a xlink:title="This class defines the interface for a &#39;Screen&#39;.">
<polygon fill="#999999" stroke="#666666" points="136,-125.88 0,-125.88 0,-106.62 136,-106.62 136,-125.88"/>
<text text-anchor="middle" x="68" y="-112.38" font-family="Helvetica,sans-Serif" font-size="10.00">Ajax::ScreenMgr::ScreenApi</text>
</a>
</g>
</g>
<!-- Node2 -->
<g id="Node000002" class="node">
<title>Node2</title>
<g id="a_Node000002"><a xlink:href="class_ajax_1_1_screen_mgr_1_1_mock_screen.html" target="_top" xlink:title="This class implements a &#39;Mock&#39; ScreenApi instances.">
<polygon fill="white" stroke="#666666" points="317.75,-227.88 172,-227.88 172,-208.62 317.75,-208.62 317.75,-227.88"/>
<text text-anchor="middle" x="244.88" y="-214.38" font-family="Helvetica,sans-Serif" font-size="10.00">Ajax::ScreenMgr::MockScreen</text>
</a>
</g>
</g>
<!-- Node1&#45;&gt;Node2 -->
<g id="edge1_Node000001_Node000002" class="edge">
<title>Node1&#45;&gt;Node2</title>
<g id="a_edge1_Node000001_Node000002"><a xlink:title=" ">
<path fill="none" stroke="#63b8ff" d="M86.23,-134.42C105.41,-153.58 138.17,-183.29 172,-200.25 178.21,-203.36 185,-205.96 191.84,-208.13"/>
<polygon fill="#63b8ff" stroke="#63b8ff" points="88.75,-131.99 79.25,-127.28 83.74,-136.88 88.75,-131.99"/>
</a>
</g>
</g>
<!-- Node3 -->
<g id="Node000003" class="node">
<title>Node3</title>
<g id="a_Node000003"><a xlink:href="class_ajax_1_1_ui_1_1_about_1_1_screen.html" target="_top" xlink:title="This class implements the About screen.">
<polygon fill="white" stroke="#666666" points="302,-190.88 187.75,-190.88 187.75,-171.62 302,-171.62 302,-190.88"/>
<text text-anchor="middle" x="244.88" y="-177.38" font-family="Helvetica,sans-Serif" font-size="10.00">Ajax::Ui::About::Screen</text>
</a>
</g>
</g>
<!-- Node1&#45;&gt;Node3 -->
<g id="edge2_Node000001_Node000003" class="edge">
<title>Node1&#45;&gt;Node3</title>
<g id="a_edge2_Node000001_Node000003"><a xlink:title=" ">
<path fill="none" stroke="#63b8ff" d="M98.91,-131.15C119.19,-140.87 146.8,-153.36 172,-162.25 181.37,-165.56 191.61,-168.59 201.34,-171.22"/>
<polygon fill="#63b8ff" stroke="#63b8ff" points="100.63,-128.1 90.1,-126.88 97.57,-134.39 100.63,-128.1"/>
</a>
</g>
</g>
<!-- Node4 -->
<g id="Node000004" class="node">
<title>Node4</title>
<g id="a_Node000004"><a xlink:href="class_ajax_1_1_ui_1_1_edit_setpt_1_1_screen.html" target="_top" xlink:title="This class implements the Edit setpoint screen.">
<polygon fill="white" stroke="#666666" points="291.5,-153.5 198.25,-153.5 198.25,-123 291.5,-123 291.5,-153.5"/>
<text text-anchor="start" x="206.25" y="-140" font-family="Helvetica,sans-Serif" font-size="10.00">Ajax::Ui::EditSetpt</text>
<text text-anchor="middle" x="244.88" y="-128.75" font-family="Helvetica,sans-Serif" font-size="10.00">::Screen</text>
</a>
</g>
</g>
<!-- Node1&#45;&gt;Node4 -->
<g id="edge3_Node000001_Node000004" class="edge">
<title>Node1&#45;&gt;Node4</title>
<g id="a_edge3_Node000001_Node000004"><a xlink:title=" ">
<path fill="none" stroke="#63b8ff" d="M147.58,-126.14C164.81,-128.3 182.49,-130.53 197.93,-132.47"/>
<polygon fill="#63b8ff" stroke="#63b8ff" points="148.22,-122.69 137.86,-124.91 147.35,-129.63 148.22,-122.69"/>
</a>
</g>
</g>
<!-- Node5 -->
<g id="Node000005" class="node">
<title>Node5</title>
<g id="a_Node000005"><a xlink:href="class_ajax_1_1_ui_1_1_home_1_1_screen.html" target="_top" xlink:title="This class implements the Home screen.">
<polygon fill="white" stroke="#666666" points="302.38,-104.88 187.38,-104.88 187.38,-85.62 302.38,-85.62 302.38,-104.88"/>
<text text-anchor="middle" x="244.88" y="-91.38" font-family="Helvetica,sans-Serif" font-size="10.00">Ajax::Ui::Home::Screen</text>
</a>
</g>
</g>
<!-- Node1&#45;&gt;Node5 -->
<g id="edge4_Node000001_Node000005" class="edge">
<title>Node1&#45;&gt;Node5</title>
<g id="a_edge4_Node000001_Node000005"><a xlink:title=" ">
<path fill="none" stroke="#63b8ff" d="M147.47,-106.83C160.8,-105.23 174.42,-103.59 187.06,-102.07"/>
<polygon fill="#63b8ff" stroke="#63b8ff" points="147.38,-103.31 137.86,-107.98 148.21,-110.26 147.38,-103.31"/>
</a>
</g>
</g>
<!-- Node6 -->
<g id="Node000006" class="node">
<title>Node6</title>
<g id="a_Node000006"><a xlink:href="class_eros_1_1_ui_1_1_home_1_1_screen.html" target="_top" xlink:title="This class implements the Home screen.">
<polygon fill="white" stroke="#666666" points="302.75,-67.88 187,-67.88 187,-48.62 302.75,-48.62 302.75,-67.88"/>
<text text-anchor="middle" x="244.88" y="-54.38" font-family="Helvetica,sans-Serif" font-size="10.00">Eros::Ui::Home::Screen</text>
</a>
</g>
</g>
<!-- Node1&#45;&gt;Node6 -->
<g id="edge5_Node000001_Node000006" class="edge">
<title>Node1&#45;&gt;Node6</title>
<g id="a_edge5_Node000001_Node000006"><a xlink:title=" ">
<path fill="none" stroke="#63b8ff" d="M102.83,-101.88C122.75,-93.73 148.55,-83.71 172,-76.25 180.95,-73.4 190.64,-70.72 199.92,-68.33"/>
<polygon fill="#63b8ff" stroke="#63b8ff" points="101.73,-98.55 93.83,-105.61 104.4,-105.02 101.73,-98.55"/>
</a>
</g>
</g>
<!-- Node7 -->
<g id="Node000007" class="node">
<title>Node7</title>
<g id="a_Node000007"><a xlink:href="class_eros_1_1_ui_1_1_lcd_test_1_1_screen.html" target="_top" xlink:title="This class implements the Home screen.">
<polygon fill="white" stroke="#666666" points="292.25,-30.5 197.5,-30.5 197.5,0 292.25,0 292.25,-30.5"/>
<text text-anchor="start" x="205.5" y="-17" font-family="Helvetica,sans-Serif" font-size="10.00">Eros::Ui::LcdTest::</text>
<text text-anchor="middle" x="244.88" y="-5.75" font-family="Helvetica,sans-Serif" font-size="10.00">Screen</text>
</a>
</g>
</g>
<!-- Node1&#45;&gt;Node7 -->
<g id="edge6_Node000001_Node000007" class="edge">
<title>Node1&#45;&gt;Node7</title>
<g id="a_edge6_Node000001_Node000007"><a xlink:title=" ">
<path fill="none" stroke="#63b8ff" d="M88.35,-98.78C108.15,-81.66 140.41,-55.78 172,-39.25 179.93,-35.1 188.71,-31.46 197.34,-28.36"/>
<polygon fill="#63b8ff" stroke="#63b8ff" points="86.26,-95.95 81.06,-105.19 90.88,-101.21 86.26,-95.95"/>
</a>
</g>
</g>
</g>
</svg>
