<?xml version="1.0" encoding="UTF-8" standalone="no"?>
<!DOCTYPE svg PUBLIC "-//W3C//DTD SVG 1.1//EN"
 "http://www.w3.org/Graphics/SVG/1.1/DTD/svg11.dtd">
<!-- Generated by graphviz version 9.0.0 (20230911.1827)
 -->
<!-- Title: Cpl::Text::FString&lt; S &gt; Pages: 1 -->
<svg width="987pt" height="256pt"
 viewBox="0.00 0.00 987.00 256.12" xmlns="http://www.w3.org/2000/svg" xmlns:xlink="http://www.w3.org/1999/xlink">
<g id="graph0" class="graph" transform="scale(1 1) rotate(0) translate(4 252.12)">
<title>Cpl::Text::FString&lt; S &gt;</title>
<!-- Node1 -->
<g id="Node000001" class="node">
<title>Node1</title>
<g id="a_Node000001"><a xlink:title="This template class represents a NULL terminated string of a specific length.">
<polygon fill="#999999" stroke="#666666" points="624.75,-144.5 512,-144.5 512,-125.25 624.75,-125.25 624.75,-144.5"/>
<text text-anchor="middle" x="568.38" y="-131" font-family="Helvetica,sans-Serif" font-size="10.00">Cpl::Text::FString&lt; S &gt;</text>
</a>
</g>
</g>
<!-- Node6 -->
<g id="Node000006" class="node">
<title>Node6</title>
<g id="a_Node000006"><a xlink:href="class_cpl_1_1_text_1_1_f_string.html" target="_top" xlink:title=" ">
<polygon fill="white" stroke="#666666" points="971.5,-248.12 816.75,-248.12 816.75,-217.62 971.5,-217.62 971.5,-248.12"/>
<text text-anchor="start" x="824.75" y="-234.62" font-family="Helvetica,sans-Serif" font-size="10.00">Cpl::Text::FString</text>
<text text-anchor="middle" x="894.12" y="-223.38" font-family="Helvetica,sans-Serif" font-size="10.00">&lt; CPL_IO_FILE_MAX_NAME &gt;</text>
</a>
</g>
</g>
<!-- Node1&#45;&gt;Node6 -->
<g id="edge5_Node000001_Node000006" class="edge">
<title>Node1&#45;&gt;Node6</title>
<g id="a_edge5_Node000001_Node000006"><a xlink:title=" ">
<path fill="none" stroke="orange" stroke-dasharray="5,2" d="M585.82,-152.79C599.62,-166.63 620.58,-185.03 642.75,-194.88 697.7,-219.28 765.38,-228.46 816.52,-231.71"/>
<polygon fill="orange" stroke="orange" points="588.71,-150.75 579.25,-145.97 583.67,-155.6 588.71,-150.75"/>
</a>
</g>
<text text-anchor="middle" x="717" y="-230.62" font-family="Helvetica,sans-Serif" font-size="10.00" fill="grey"> &lt; CPL_IO_FILE_MAX_NAME &gt;</text>
</g>
<!-- Node7 -->
<g id="Node000007" class="node">
<title>Node7</title>
<g id="a_Node000007"><a xlink:href="class_cpl_1_1_text_1_1_f_string.html" target="_top" xlink:title=" ">
<polygon fill="white" stroke="#666666" points="938.88,-199.12 849.38,-199.12 849.38,-168.62 938.88,-168.62 938.88,-199.12"/>
<text text-anchor="start" x="857.38" y="-185.62" font-family="Helvetica,sans-Serif" font-size="10.00">Cpl::Text::FString</text>
<text text-anchor="middle" x="894.12" y="-174.38" font-family="Helvetica,sans-Serif" font-size="10.00">&lt; 64 &gt;</text>
</a>
</g>
</g>
<!-- Node1&#45;&gt;Node7 -->
<g id="edge6_Node000001_Node000007" class="edge">
<title>Node1&#45;&gt;Node7</title>
<g id="a_edge6_Node000001_Node000007"><a xlink:title=" ">
<path fill="none" stroke="orange" stroke-dasharray="5,2" d="M603.66,-149.01C615.81,-153.49 629.71,-158.01 642.75,-160.88 713.95,-176.5 798.81,-181.53 849.2,-183.14"/>
<polygon fill="orange" stroke="orange" points="605.06,-145.8 594.47,-145.5 602.57,-152.34 605.06,-145.8"/>
</a>
</g>
<text text-anchor="middle" x="717" y="-181.62" font-family="Helvetica,sans-Serif" font-size="10.00" fill="grey"> &lt; 64 &gt;</text>
</g>
<!-- Node8 -->
<g id="Node000008" class="node">
<title>Node8</title>
<g id="a_Node000008"><a xlink:href="class_cpl_1_1_text_1_1_f_string.html" target="_top" xlink:title=" ">
<polygon fill="white" stroke="#666666" points="979,-150.12 809.25,-150.12 809.25,-119.62 979,-119.62 979,-150.12"/>
<text text-anchor="start" x="817.25" y="-136.62" font-family="Helvetica,sans-Serif" font-size="10.00">Cpl::Text::FString</text>
<text text-anchor="middle" x="894.12" y="-125.38" font-family="Helvetica,sans-Serif" font-size="10.00">&lt; configMAX_TASK_NAME_LEN &gt;</text>
</a>
</g>
</g>
<!-- Node1&#45;&gt;Node8 -->
<g id="edge7_Node000001_Node000008" class="edge">
<title>Node1&#45;&gt;Node8</title>
<g id="a_edge7_Node000001_Node000008"><a xlink:title=" ">
<path fill="none" stroke="orange" stroke-dasharray="5,2" d="M636.38,-134.88C686.46,-134.88 755.27,-134.88 809.05,-134.88"/>
<polygon fill="orange" stroke="orange" points="636.54,-131.38 626.54,-134.88 636.54,-138.38 636.54,-131.38"/>
</a>
</g>
<text text-anchor="start" x="655.5" y="-147.88" font-family="Helvetica,sans-Serif" font-size="10.00" fill="grey"> &lt; configMAX_TASK_NAME</text>
<text text-anchor="middle" x="717" y="-136.62" font-family="Helvetica,sans-Serif" font-size="10.00" fill="grey">_LEN &gt;</text>
</g>
<!-- Node9 -->
<g id="Node000009" class="node">
<title>Node9</title>
<g id="a_Node000009"><a xlink:href="class_cpl_1_1_text_1_1_f_string.html" target="_top" xlink:title=" ">
<polygon fill="white" stroke="#666666" points="976.38,-101.75 811.88,-101.75 811.88,-60 976.38,-60 976.38,-101.75"/>
<text text-anchor="start" x="819.88" y="-88.25" font-family="Helvetica,sans-Serif" font-size="10.00">Cpl::Text::FString</text>
<text text-anchor="start" x="819.88" y="-77" font-family="Helvetica,sans-Serif" font-size="10.00">&lt; OPTION_CPL_TSHELL</text>
<text text-anchor="middle" x="894.12" y="-65.75" font-family="Helvetica,sans-Serif" font-size="10.00">_PROCESSOR_OUTPUT_SIZE &gt;</text>
</a>
</g>
</g>
<!-- Node1&#45;&gt;Node9 -->
<g id="edge8_Node000001_Node000009" class="edge">
<title>Node1&#45;&gt;Node9</title>
<g id="a_edge8_Node000001_Node000009"><a xlink:title=" ">
<path fill="none" stroke="orange" stroke-dasharray="5,2" d="M603.38,-120.69C615.61,-116.11 629.62,-111.42 642.75,-108.38 698.23,-95.5 762.07,-88.61 811.4,-84.94"/>
<polygon fill="orange" stroke="orange" points="602.2,-117.4 594.15,-124.28 604.74,-123.92 602.2,-117.4"/>
</a>
</g>
<text text-anchor="start" x="642.75" y="-121.88" font-family="Helvetica,sans-Serif" font-size="10.00" fill="grey"> &lt; OPTION_CPL_TSHELL</text>
<text text-anchor="middle" x="717" y="-110.62" font-family="Helvetica,sans-Serif" font-size="10.00" fill="grey">_PROCESSOR_OUTPUT_SIZE &gt;</text>
</g>
<!-- Node10 -->
<g id="Node000010" class="node">
<title>Node10</title>
<g id="a_Node000010"><a xlink:href="class_cpl_1_1_text_1_1_f_string.html" target="_top" xlink:title=" ">
<polygon fill="white" stroke="#666666" points="971.12,-41.75 817.12,-41.75 817.12,0 971.12,0 971.12,-41.75"/>
<text text-anchor="start" x="825.12" y="-28.25" font-family="Helvetica,sans-Serif" font-size="10.00">Cpl::Text::FString</text>
<text text-anchor="start" x="825.12" y="-17" font-family="Helvetica,sans-Serif" font-size="10.00">&lt; OPTION_CPL_TSHELL</text>
<text text-anchor="middle" x="894.12" y="-5.75" font-family="Helvetica,sans-Serif" font-size="10.00">_PROCESSOR_INPUT_SIZE &gt;</text>
</a>
</g>
</g>
<!-- Node1&#45;&gt;Node10 -->
<g id="edge9_Node000001_Node000010" class="edge">
<title>Node1&#45;&gt;Node10</title>
<g id="a_edge9_Node000001_Node000010"><a xlink:title=" ">
<path fill="none" stroke="orange" stroke-dasharray="5,2" d="M582.61,-115.69C595.74,-98.26 617.51,-73.35 642.75,-60.38 696.66,-32.67 765.05,-23.34 816.72,-20.64"/>
<polygon fill="orange" stroke="orange" points="579.82,-113.56 576.8,-123.71 585.5,-117.66 579.82,-113.56"/>
</a>
</g>
<text text-anchor="start" x="648" y="-73.88" font-family="Helvetica,sans-Serif" font-size="10.00" fill="grey"> &lt; OPTION_CPL_TSHELL</text>
<text text-anchor="middle" x="717" y="-62.62" font-family="Helvetica,sans-Serif" font-size="10.00" fill="grey">_PROCESSOR_INPUT_SIZE &gt;</text>
</g>
<!-- Node2 -->
<g id="Node000002" class="node">
<title>Node2</title>
<g id="a_Node000002"><a xlink:href="class_cpl_1_1_text_1_1_f_string__.html" target="_top" xlink:title="This mostly concrete class implements a &quot;fixed storage&quot; String Type.">
<polygon fill="white" stroke="#666666" points="475,-144.5 380.25,-144.5 380.25,-125.25 475,-125.25 475,-144.5"/>
<text text-anchor="middle" x="427.62" y="-131" font-family="Helvetica,sans-Serif" font-size="10.00">Cpl::Text::FString_</text>
</a>
</g>
</g>
<!-- Node2&#45;&gt;Node1 -->
<g id="edge1_Node000001_Node000002" class="edge">
<title>Node2&#45;&gt;Node1</title>
<g id="a_edge1_Node000001_Node000002"><a xlink:title=" ">
<path fill="none" stroke="#63b8ff" d="M486.66,-134.88C494.89,-134.88 503.34,-134.88 511.53,-134.88"/>
<polygon fill="#63b8ff" stroke="#63b8ff" points="486.73,-131.38 476.73,-134.88 486.73,-138.38 486.73,-131.38"/>
</a>
</g>
</g>
<!-- Node3 -->
<g id="Node000003" class="node">
<title>Node3</title>
<g id="a_Node000003"><a xlink:href="class_cpl_1_1_text_1_1_string__.html" target="_top" xlink:title="This partially concrete class implements the portions of the String Api that is independent of the in...">
<polygon fill="white" stroke="#666666" points="343.25,-144.5 254.5,-144.5 254.5,-125.25 343.25,-125.25 343.25,-144.5"/>
<text text-anchor="middle" x="298.88" y="-131" font-family="Helvetica,sans-Serif" font-size="10.00">Cpl::Text::String_</text>
</a>
</g>
</g>
<!-- Node3&#45;&gt;Node2 -->
<g id="edge2_Node000002_Node000003" class="edge">
<title>Node3&#45;&gt;Node2</title>
<g id="a_edge2_Node000002_Node000003"><a xlink:title=" ">
<path fill="none" stroke="#63b8ff" d="M354.74,-134.88C363.13,-134.88 371.71,-134.88 379.89,-134.88"/>
<polygon fill="#63b8ff" stroke="#63b8ff" points="355.01,-131.38 345.01,-134.88 355.01,-138.38 355.01,-131.38"/>
</a>
</g>
</g>
<!-- Node4 -->
<g id="Node000004" class="node">
<title>Node4</title>
<g id="a_Node000004"><a xlink:href="class_cpl_1_1_text_1_1_string.html" target="_top" xlink:title="This abstract class defines the operations that can be before on a NULL terminated string.">
<polygon fill="white" stroke="#666666" points="217.5,-144.5 134,-144.5 134,-125.25 217.5,-125.25 217.5,-144.5"/>
<text text-anchor="middle" x="175.75" y="-131" font-family="Helvetica,sans-Serif" font-size="10.00">Cpl::Text::String</text>
</a>
</g>
</g>
<!-- Node4&#45;&gt;Node3 -->
<g id="edge3_Node000003_Node000004" class="edge">
<title>Node4&#45;&gt;Node3</title>
<g id="a_edge3_Node000003_Node000004"><a xlink:title=" ">
<path fill="none" stroke="#63b8ff" d="M229.24,-134.88C237.5,-134.88 245.97,-134.88 254.01,-134.88"/>
<polygon fill="#63b8ff" stroke="#63b8ff" points="229.27,-131.38 219.27,-134.88 229.27,-138.38 229.27,-131.38"/>
</a>
</g>
</g>
<!-- Node5 -->
<g id="Node000005" class="node">
<title>Node5</title>
<g id="a_Node000005"><a xlink:href="class_cpl_1_1_container_1_1_key.html" target="_top" xlink:title="This abstract class defines the interface that a contained object must support if it has comparable k...">
<polygon fill="white" stroke="#666666" points="97,-144.5 0,-144.5 0,-125.25 97,-125.25 97,-144.5"/>
<text text-anchor="middle" x="48.5" y="-131" font-family="Helvetica,sans-Serif" font-size="10.00">Cpl::Container::Key</text>
</a>
</g>
</g>
<!-- Node5&#45;&gt;Node4 -->
<g id="edge4_Node000004_Node000005" class="edge">
<title>Node5&#45;&gt;Node4</title>
<g id="a_edge4_Node000004_Node000005"><a xlink:title=" ">
<path fill="none" stroke="#63b8ff" d="M108.66,-134.88C117.13,-134.88 125.69,-134.88 133.72,-134.88"/>
<polygon fill="#63b8ff" stroke="#63b8ff" points="108.72,-131.38 98.72,-134.88 108.72,-138.38 108.72,-131.38"/>
</a>
</g>
</g>
</g>
</svg>
