<?xml version="1.0" encoding="UTF-8" standalone="no"?>
<!DOCTYPE svg PUBLIC "-//W3C//DTD SVG 1.1//EN"
 "http://www.w3.org/Graphics/SVG/1.1/DTD/svg11.dtd">
<!-- Generated by graphviz version 9.0.0 (20230911.1827)
 -->
<!-- Title: Eros::TShell::Rgb Pages: 1 -->
<svg width="365pt" height="408pt"
 viewBox="0.00 0.00 365.00 407.75" xmlns="http://www.w3.org/2000/svg" xmlns:xlink="http://www.w3.org/1999/xlink">
<g id="graph0" class="graph" transform="scale(1 1) rotate(0) translate(4 403.75)">
<title>Eros::TShell::Rgb</title>
<!-- Node1 -->
<g id="Node000001" class="node">
<title>Node1</title>
<g id="a_Node000001"><a xlink:title="This class implements a TShell command to verify the operation of the RGB LED on the display board.">
<polygon fill="#999999" stroke="#666666" points="259.62,-19.25 170.12,-19.25 170.12,0 259.62,0 259.62,-19.25"/>
<text text-anchor="middle" x="214.88" y="-5.75" font-family="Helvetica,sans-Serif" font-size="10.00">Eros::TShell::Rgb</text>
</a>
</g>
</g>
<!-- Node2 -->
<g id="Node000002" class="node">
<title>Node2</title>
<g id="a_Node000002"><a xlink:href="class_cpl_1_1_t_shell_1_1_cmd_1_1_command.html" target="_top" xlink:title="This partially concrete class implements infrastructure and/or common functionality for a Shell comma...">
<polygon fill="white" stroke="#666666" points="206.88,-85.75 70.88,-85.75 70.88,-66.5 206.88,-66.5 206.88,-85.75"/>
<text text-anchor="middle" x="138.88" y="-72.25" font-family="Helvetica,sans-Serif" font-size="10.00">Cpl::TShell::Cmd::Command</text>
</a>
</g>
</g>
<!-- Node2&#45;&gt;Node1 -->
<g id="edge1_Node000001_Node000002" class="edge">
<title>Node2&#45;&gt;Node1</title>
<g id="a_edge1_Node000001_Node000002"><a xlink:title=" ">
<path fill="none" stroke="#63b8ff" d="M157.83,-59.04C172.55,-46.55 192.41,-29.69 204.4,-19.52"/>
<polygon fill="#63b8ff" stroke="#63b8ff" points="155.96,-56.04 150.6,-65.18 160.49,-61.38 155.96,-56.04"/>
</a>
</g>
</g>
<!-- Node3 -->
<g id="Node000003" class="node">
<title>Node3</title>
<g id="a_Node000003"><a xlink:href="class_cpl_1_1_t_shell_1_1_command.html" target="_top" xlink:title="This class defines the interface for a TShell command.">
<polygon fill="white" stroke="#666666" points="127.5,-157.88 16.25,-157.88 16.25,-138.62 127.5,-138.62 127.5,-157.88"/>
<text text-anchor="middle" x="71.88" y="-144.38" font-family="Helvetica,sans-Serif" font-size="10.00">Cpl::TShell::Command</text>
</a>
</g>
</g>
<!-- Node3&#45;&gt;Node2 -->
<g id="edge2_Node000002_Node000003" class="edge">
<title>Node3&#45;&gt;Node2</title>
<g id="a_edge2_Node000002_Node000003"><a xlink:title=" ">
<path fill="none" stroke="#63b8ff" d="M88.24,-130.12C101.5,-116.24 119.66,-97.23 130.25,-86.16"/>
<polygon fill="#63b8ff" stroke="#63b8ff" points="85.78,-127.63 81.41,-137.27 90.84,-132.46 85.78,-127.63"/>
</a>
</g>
</g>
<!-- Node4 -->
<g id="Node000004" class="node">
<title>Node4</title>
<g id="a_Node000004"><a xlink:href="class_cpl_1_1_container_1_1_map_item.html" target="_top" xlink:title="This abstract class represents a item that can be contained in an Map (aka a sorted list implemented ...">
<polygon fill="white" stroke="#666666" points="129.25,-225.38 10.5,-225.38 10.5,-206.12 129.25,-206.12 129.25,-225.38"/>
<text text-anchor="middle" x="69.88" y="-211.88" font-family="Helvetica,sans-Serif" font-size="10.00">Cpl::Container::MapItem</text>
</a>
</g>
</g>
<!-- Node4&#45;&gt;Node3 -->
<g id="edge3_Node000003_Node000004" class="edge">
<title>Node4&#45;&gt;Node3</title>
<g id="a_edge3_Node000003_Node000004"><a xlink:title=" ">
<path fill="none" stroke="#63b8ff" d="M70.5,-194.34C70.87,-182.25 71.32,-167.54 71.6,-158.28"/>
<polygon fill="#63b8ff" stroke="#63b8ff" points="67.01,-194.03 70.2,-204.13 74,-194.24 67.01,-194.03"/>
</a>
</g>
</g>
<!-- Node5 -->
<g id="Node000005" class="node">
<title>Node5</title>
<g id="a_Node000005"><a xlink:href="class_cpl_1_1_container_1_1_dict_item.html" target="_top" xlink:title="This abstract class represents a item that can be contained in Dictionary.">
<polygon fill="white" stroke="#666666" points="128.5,-287.25 11.25,-287.25 11.25,-268 128.5,-268 128.5,-287.25"/>
<text text-anchor="middle" x="69.88" y="-273.75" font-family="Helvetica,sans-Serif" font-size="10.00">Cpl::Container::DictItem</text>
</a>
</g>
</g>
<!-- Node5&#45;&gt;Node4 -->
<g id="edge4_Node000004_Node000005" class="edge">
<title>Node5&#45;&gt;Node4</title>
<g id="a_edge4_Node000004_Node000005"><a xlink:title=" ">
<path fill="none" stroke="#63b8ff" d="M69.88,-256.05C69.88,-245.63 69.88,-233.53 69.88,-225.54"/>
<polygon fill="#63b8ff" stroke="#63b8ff" points="66.38,-256.02 69.88,-266.02 73.38,-256.02 66.38,-256.02"/>
</a>
</g>
</g>
<!-- Node6 -->
<g id="Node000006" class="node">
<title>Node6</title>
<g id="a_Node000006"><a xlink:href="class_cpl_1_1_container_1_1_extended_item.html" target="_top" xlink:title="This class is used by the Container classes to implement a various types of DOUBLY linked containers.">
<polygon fill="white" stroke="#666666" points="139.75,-343.5 0,-343.5 0,-324.25 139.75,-324.25 139.75,-343.5"/>
<text text-anchor="middle" x="69.88" y="-330" font-family="Helvetica,sans-Serif" font-size="10.00">Cpl::Container::ExtendedItem</text>
</a>
</g>
</g>
<!-- Node6&#45;&gt;Node5 -->
<g id="edge5_Node000005_Node000006" class="edge">
<title>Node6&#45;&gt;Node5</title>
<g id="a_edge5_Node000005_Node000006"><a xlink:title=" ">
<path fill="none" stroke="#63b8ff" d="M69.88,-312.69C69.88,-303.98 69.88,-294.24 69.88,-287.42"/>
<polygon fill="#63b8ff" stroke="#63b8ff" points="66.38,-312.4 69.88,-322.4 73.38,-312.4 66.38,-312.4"/>
</a>
</g>
</g>
<!-- Node7 -->
<g id="Node000007" class="node">
<title>Node7</title>
<g id="a_Node000007"><a xlink:href="class_cpl_1_1_container_1_1_item.html" target="_top" xlink:title="This class is used by the Container classes to implement a various types of singly linked containers.">
<polygon fill="white" stroke="#666666" points="119.88,-399.75 19.88,-399.75 19.88,-380.5 119.88,-380.5 119.88,-399.75"/>
<text text-anchor="middle" x="69.88" y="-386.25" font-family="Helvetica,sans-Serif" font-size="10.00">Cpl::Container::Item</text>
</a>
</g>
</g>
<!-- Node7&#45;&gt;Node6 -->
<g id="edge6_Node000006_Node000007" class="edge">
<title>Node7&#45;&gt;Node6</title>
<g id="a_edge6_Node000006_Node000007"><a xlink:title=" ">
<path fill="none" stroke="#63b8ff" d="M69.88,-368.94C69.88,-360.23 69.88,-350.49 69.88,-343.67"/>
<polygon fill="#63b8ff" stroke="#63b8ff" points="66.38,-368.65 69.88,-378.65 73.38,-368.65 66.38,-368.65"/>
</a>
</g>
</g>
<!-- Node8 -->
<g id="Node000008" class="node">
<title>Node8</title>
<g id="a_Node000008"><a xlink:href="class_cpl_1_1_container_1_1_key_literal_string.html" target="_top" xlink:title="This class provides a &#39;Key&#39; wrapper for a C string literal.">
<polygon fill="white" stroke="#666666" points="269.88,-163.5 145.88,-163.5 145.88,-133 269.88,-133 269.88,-163.5"/>
<text text-anchor="start" x="153.88" y="-150" font-family="Helvetica,sans-Serif" font-size="10.00">Cpl::Container::KeyLiteral</text>
<text text-anchor="middle" x="207.88" y="-138.75" font-family="Helvetica,sans-Serif" font-size="10.00">String</text>
</a>
</g>
</g>
<!-- Node8&#45;&gt;Node2 -->
<g id="edge7_Node000002_Node000008" class="edge">
<title>Node8&#45;&gt;Node2</title>
<g id="a_edge7_Node000002_Node000008"><a xlink:title=" ">
<path fill="none" stroke="#9a32cd" stroke-dasharray="5,2" d="M185.53,-124.54C172.56,-111.36 156.96,-95.51 147.49,-85.88"/>
<polygon fill="#9a32cd" stroke="#9a32cd" points="183.01,-126.97 192.52,-131.64 188,-122.06 183.01,-126.97"/>
</a>
</g>
<text text-anchor="middle" x="201.38" y="-105.5" font-family="Helvetica,sans-Serif" font-size="10.00" fill="grey"> m_mapKey</text>
</g>
<!-- Node9 -->
<g id="Node000009" class="node">
<title>Node9</title>
<g id="a_Node000009"><a xlink:href="class_cpl_1_1_container_1_1_key_string_buffer.html" target="_top" xlink:title="This class provides a &#39;Key&#39; wrapper for a array of Character of length N, i.e.">
<polygon fill="white" stroke="#666666" points="270.12,-231 147.62,-231 147.62,-200.5 270.12,-200.5 270.12,-231"/>
<text text-anchor="start" x="155.62" y="-217.5" font-family="Helvetica,sans-Serif" font-size="10.00">Cpl::Container::KeyString</text>
<text text-anchor="middle" x="208.88" y="-206.25" font-family="Helvetica,sans-Serif" font-size="10.00">Buffer</text>
</a>
</g>
</g>
<!-- Node9&#45;&gt;Node8 -->
<g id="edge8_Node000008_Node000009" class="edge">
<title>Node9&#45;&gt;Node8</title>
<g id="a_edge8_Node000008_Node000009"><a xlink:title=" ">
<path fill="none" stroke="#63b8ff" d="M208.48,-188.84C208.35,-180.3 208.21,-171.12 208.1,-163.75"/>
<polygon fill="#63b8ff" stroke="#63b8ff" points="204.98,-188.75 208.63,-198.7 211.98,-188.65 204.98,-188.75"/>
</a>
</g>
</g>
<!-- Node10 -->
<g id="Node000010" class="node">
<title>Node10</title>
<g id="a_Node000010"><a xlink:href="class_cpl_1_1_container_1_1_key.html" target="_top" xlink:title="This abstract class defines the interface that a contained object must support if it has comparable k...">
<polygon fill="white" stroke="#666666" points="257.38,-287.25 160.38,-287.25 160.38,-268 257.38,-268 257.38,-287.25"/>
<text text-anchor="middle" x="208.88" y="-273.75" font-family="Helvetica,sans-Serif" font-size="10.00">Cpl::Container::Key</text>
</a>
</g>
</g>
<!-- Node10&#45;&gt;Node9 -->
<g id="edge9_Node000009_Node000010" class="edge">
<title>Node10&#45;&gt;Node9</title>
<g id="a_edge9_Node000009_Node000010"><a xlink:title=" ">
<path fill="none" stroke="#63b8ff" d="M208.88,-256.19C208.88,-247.93 208.88,-238.59 208.88,-231.07"/>
<polygon fill="#63b8ff" stroke="#63b8ff" points="205.38,-256.02 208.88,-266.02 212.38,-256.02 205.38,-256.02"/>
</a>
</g>
</g>
<!-- Node11 -->
<g id="Node000011" class="node">
<title>Node11</title>
<g id="a_Node000011"><a xlink:href="class_driver_1_1_l_e_d_1_1_red_green_blue.html" target="_top" xlink:title="This abstract class defines a basic interface for a single Red&#45;Green&#45;Blue LED where the application c...">
<polygon fill="white" stroke="#666666" points="357,-85.75 224.75,-85.75 224.75,-66.5 357,-66.5 357,-85.75"/>
<text text-anchor="middle" x="290.88" y="-72.25" font-family="Helvetica,sans-Serif" font-size="10.00">Driver::LED::RedGreenBlue</text>
</a>
</g>
</g>
<!-- Node11&#45;&gt;Node1 -->
<g id="edge10_Node000001_Node000011" class="edge">
<title>Node11&#45;&gt;Node1</title>
<g id="a_edge10_Node000001_Node000011"><a xlink:title=" ">
<path fill="none" stroke="#9a32cd" stroke-dasharray="5,2" d="M271.92,-59.04C257.2,-46.55 237.34,-29.69 225.35,-19.52"/>
<polygon fill="#9a32cd" stroke="#9a32cd" points="269.26,-61.38 279.15,-65.18 273.79,-56.04 269.26,-61.38"/>
</a>
</g>
<text text-anchor="middle" x="283.88" y="-39" font-family="Helvetica,sans-Serif" font-size="10.00" fill="grey"> m_ledDriver</text>
</g>
</g>
</svg>
