<?xml version="1.0" encoding="UTF-8" standalone="no"?>
<!DOCTYPE svg PUBLIC "-//W3C//DTD SVG 1.1//EN"
 "http://www.w3.org/Graphics/SVG/1.1/DTD/svg11.dtd">
<!-- Generated by graphviz version 2.43.0 (0)
 -->
<!-- Title: Ajax::Ui::StatusIndicator::Api Pages: 1 -->
<svg width="1344pt" height="261pt"
 viewBox="0.00 0.00 1344.00 260.50" xmlns="http://www.w3.org/2000/svg" xmlns:xlink="http://www.w3.org/1999/xlink">
<g id="graph0" class="graph" transform="scale(1 1) rotate(0) translate(4 256.5)">
<title>Ajax::Ui::StatusIndicator::Api</title>
<!-- Node1 -->
<g id="Node000001" class="node">
<title>Node1</title>
<g id="a_Node000001"><a xlink:title="This class manages the what color/on&#45;off&#45;state of the RGB LED.">
<polygon fill="#999999" stroke="#666666" points="1336,-80.5 1180,-80.5 1180,-61.5 1336,-61.5 1336,-80.5"/>
<text text-anchor="middle" x="1258" y="-68.5" font-family="Helvetica,sans-Serif" font-size="10.00">Ajax::Ui::StatusIndicator::Api</text>
</a>
</g>
</g>
<!-- Node2 -->
<g id="Node000002" class="node">
<title>Node2</title>
<g id="a_Node000002"><a xlink:href="class_cpl_1_1_itc_1_1_close_sync.html" target="_top" xlink:title="This partially concrete class implements the synchronous ITC close call for the CloseApi.">
<polygon fill="white" stroke="#666666" points="1056,-164.5 949,-164.5 949,-145.5 1056,-145.5 1056,-164.5"/>
<text text-anchor="middle" x="1002.5" y="-152.5" font-family="Helvetica,sans-Serif" font-size="10.00">Cpl::Itc::CloseSync</text>
</a>
</g>
</g>
<!-- Node2&#45;&gt;Node1 -->
<g id="edge1_Node000001_Node000002" class="edge">
<title>Node2&#45;&gt;Node1</title>
<g id="a_edge1_Node000001_Node000002"><a xlink:title=" ">
<path fill="none" stroke="#63b8ff" d="M1042.3,-142.14C1093.55,-125.16 1182.63,-95.64 1228.26,-80.52"/>
<polygon fill="#63b8ff" stroke="#63b8ff" points="1040.97,-138.9 1032.58,-145.36 1043.17,-145.54 1040.97,-138.9"/>
</a>
</g>
</g>
<!-- Node3 -->
<g id="Node000003" class="node">
<title>Node3</title>
<g id="a_Node000003"><a xlink:href="class_cpl_1_1_itc_1_1_open_sync.html" target="_top" xlink:title="This partially concrete class implements the synchronous ITC open call for the OpenApi.">
<polygon fill="white" stroke="#666666" points="775,-215.5 670,-215.5 670,-196.5 775,-196.5 775,-215.5"/>
<text text-anchor="middle" x="722.5" y="-203.5" font-family="Helvetica,sans-Serif" font-size="10.00">Cpl::Itc::OpenSync</text>
</a>
</g>
</g>
<!-- Node3&#45;&gt;Node2 -->
<g id="edge2_Node000002_Node000003" class="edge">
<title>Node3&#45;&gt;Node2</title>
<g id="a_edge2_Node000002_Node000003"><a xlink:title=" ">
<path fill="none" stroke="#63b8ff" d="M785.26,-196.22C820.91,-190.41 866.56,-182.69 907,-175 923.8,-171.8 942.22,-167.98 958.29,-164.54"/>
<polygon fill="#63b8ff" stroke="#63b8ff" points="784.32,-192.82 775.01,-197.88 785.45,-199.73 784.32,-192.82"/>
</a>
</g>
</g>
<!-- Node4 -->
<g id="Node000004" class="node">
<title>Node4</title>
<g id="a_Node000004"><a xlink:href="class_cpl_1_1_itc_1_1_open_api.html" target="_top" xlink:title="This abstract class defines an open interface.">
<polygon fill="white" stroke="#666666" points="471.5,-252.5 373.5,-252.5 373.5,-233.5 471.5,-233.5 471.5,-252.5"/>
<text text-anchor="middle" x="422.5" y="-240.5" font-family="Helvetica,sans-Serif" font-size="10.00">Cpl::Itc::OpenApi</text>
</a>
</g>
</g>
<!-- Node4&#45;&gt;Node3 -->
<g id="edge3_Node000003_Node000004" class="edge">
<title>Node4&#45;&gt;Node3</title>
<g id="a_edge3_Node000003_Node000004"><a xlink:title=" ">
<path fill="none" stroke="#63b8ff" d="M481.78,-236.56C521.13,-232.13 574.22,-225.98 621,-220 636.9,-217.97 654.2,-215.61 669.89,-213.42"/>
<polygon fill="#63b8ff" stroke="#63b8ff" points="481.38,-233.08 471.83,-237.68 482.16,-240.04 481.38,-233.08"/>
</a>
</g>
</g>
<!-- Node5 -->
<g id="Node000005" class="node">
<title>Node5</title>
<g id="a_Node000005"><a xlink:href="class_cpl_1_1_itc_1_1_open_request.html" target="_top" xlink:title="This abstract class define message types and payloads for a set of ITC services.">
<polygon fill="white" stroke="#666666" points="483.5,-215.5 361.5,-215.5 361.5,-196.5 483.5,-196.5 483.5,-215.5"/>
<text text-anchor="middle" x="422.5" y="-203.5" font-family="Helvetica,sans-Serif" font-size="10.00">Cpl::Itc::OpenRequest</text>
</a>
</g>
</g>
<!-- Node5&#45;&gt;Node3 -->
<g id="edge4_Node000003_Node000005" class="edge">
<title>Node5&#45;&gt;Node3</title>
<g id="a_edge4_Node000003_Node000005"><a xlink:title=" ">
<path fill="none" stroke="#63b8ff" d="M493.98,-206C547.93,-206 621.1,-206 669.74,-206"/>
<polygon fill="#63b8ff" stroke="#63b8ff" points="493.8,-202.5 483.8,-206 493.8,-209.5 493.8,-202.5"/>
</a>
</g>
</g>
<!-- Node6 -->
<g id="Node000006" class="node">
<title>Node6</title>
<g id="a_Node000006"><a xlink:href="class_cpl_1_1_itc_1_1_post_api.html" target="_top" xlink:title="This abstract class represents the interface used to send messages to a mailbox.">
<polygon fill="white" stroke="#666666" points="469,-178.5 376,-178.5 376,-159.5 469,-159.5 469,-178.5"/>
<text text-anchor="middle" x="422.5" y="-166.5" font-family="Helvetica,sans-Serif" font-size="10.00">Cpl::Itc::PostApi</text>
</a>
</g>
</g>
<!-- Node6&#45;&gt;Node3 -->
<g id="edge5_Node000003_Node000006" class="edge">
<title>Node6&#45;&gt;Node3</title>
<g id="a_edge5_Node000003_Node000006"><a xlink:title=" ">
<path fill="none" stroke="#9a32cd" stroke-dasharray="5,2" d="M479.05,-174.63C518.66,-178.78 573.16,-184.77 621,-191 636.92,-193.07 654.22,-195.57 669.91,-197.92"/>
<polygon fill="#9a32cd" stroke="#9a32cd" points="479.36,-171.14 469.06,-173.59 478.64,-178.11 479.36,-171.14"/>
</a>
</g>
<text text-anchor="middle" x="578" y="-194" font-family="Helvetica,sans-Serif" font-size="10.00" fill="grey"> m_mbox</text>
</g>
<!-- Node7 -->
<g id="Node000007" class="node">
<title>Node7</title>
<g id="a_Node000007"><a xlink:href="class_cpl_1_1_itc_1_1_close_api.html" target="_top" xlink:title="This abstract class defines an close interface.">
<polygon fill="white" stroke="#666666" points="772,-178.5 673,-178.5 673,-159.5 772,-159.5 772,-178.5"/>
<text text-anchor="middle" x="722.5" y="-166.5" font-family="Helvetica,sans-Serif" font-size="10.00">Cpl::Itc::CloseApi</text>
</a>
</g>
</g>
<!-- Node7&#45;&gt;Node2 -->
<g id="edge6_Node000002_Node000007" class="edge">
<title>Node7&#45;&gt;Node2</title>
<g id="a_edge6_Node000002_Node000007"><a xlink:title=" ">
<path fill="none" stroke="#63b8ff" d="M782.41,-166.03C831.6,-163.56 901.1,-160.06 948.55,-157.67"/>
<polygon fill="#63b8ff" stroke="#63b8ff" points="782.05,-162.55 772.24,-166.55 782.41,-169.54 782.05,-162.55"/>
</a>
</g>
</g>
<!-- Node8 -->
<g id="Node000008" class="node">
<title>Node8</title>
<g id="a_Node000008"><a xlink:href="class_cpl_1_1_itc_1_1_close_request.html" target="_top" xlink:title="This abstract class define message types and payloads for a set of ITC services.">
<polygon fill="white" stroke="#666666" points="784,-141.5 661,-141.5 661,-122.5 784,-122.5 784,-141.5"/>
<text text-anchor="middle" x="722.5" y="-129.5" font-family="Helvetica,sans-Serif" font-size="10.00">Cpl::Itc::CloseRequest</text>
</a>
</g>
</g>
<!-- Node8&#45;&gt;Node2 -->
<g id="edge7_Node000002_Node000008" class="edge">
<title>Node8&#45;&gt;Node2</title>
<g id="a_edge7_Node000002_Node000008"><a xlink:title=" ">
<path fill="none" stroke="#63b8ff" d="M794.21,-137.85C842.39,-141.84 905.14,-147.03 948.92,-150.65"/>
<polygon fill="#63b8ff" stroke="#63b8ff" points="794.42,-134.36 784.16,-137.02 793.84,-141.33 794.42,-134.36"/>
</a>
</g>
</g>
<!-- Node9 -->
<g id="Node000009" class="node">
<title>Node9</title>
<g id="a_Node000009"><a xlink:href="class_cpl_1_1_system_1_1_timer.html" target="_top" xlink:title="This mostly concrete interface defines the operations that can be performed on a software timer.">
<polygon fill="white" stroke="#666666" points="1057.5,-104.5 947.5,-104.5 947.5,-85.5 1057.5,-85.5 1057.5,-104.5"/>
<text text-anchor="middle" x="1002.5" y="-92.5" font-family="Helvetica,sans-Serif" font-size="10.00">Cpl::System::Timer</text>
</a>
</g>
</g>
<!-- Node9&#45;&gt;Node1 -->
<g id="edge8_Node000001_Node000009" class="edge">
<title>Node9&#45;&gt;Node1</title>
<g id="a_edge8_Node000001_Node000009"><a xlink:title=" ">
<path fill="none" stroke="#63b8ff" d="M1067.88,-88.9C1101.98,-85.68 1144.1,-81.69 1179.93,-78.3"/>
<polygon fill="#63b8ff" stroke="#63b8ff" points="1067.2,-85.45 1057.57,-89.88 1067.86,-92.42 1067.2,-85.45"/>
</a>
</g>
</g>
<!-- Node10 -->
<g id="Node000010" class="node">
<title>Node10</title>
<g id="a_Node000010"><a xlink:href="class_cpl_1_1_system_1_1_counter_callback__.html" target="_top" xlink:title="This abstract class defines the call&#45;back interface for a Counter object.">
<polygon fill="white" stroke="#666666" points="806,-104.5 639,-104.5 639,-85.5 806,-85.5 806,-104.5"/>
<text text-anchor="middle" x="722.5" y="-92.5" font-family="Helvetica,sans-Serif" font-size="10.00">Cpl::System::CounterCallback_</text>
</a>
</g>
</g>
<!-- Node10&#45;&gt;Node9 -->
<g id="edge9_Node000009_Node000010" class="edge">
<title>Node10&#45;&gt;Node9</title>
<g id="a_edge9_Node000009_Node000010"><a xlink:title=" ">
<path fill="none" stroke="#63b8ff" d="M816.19,-95C859.69,-95 910.03,-95 947.25,-95"/>
<polygon fill="#63b8ff" stroke="#63b8ff" points="816.16,-91.5 806.16,-95 816.16,-98.5 816.16,-91.5"/>
</a>
</g>
</g>
<!-- Node11 -->
<g id="Node000011" class="node">
<title>Node11</title>
<g id="a_Node000011"><a xlink:href="class_cpl_1_1_container_1_1_extended_item.html" target="_top" xlink:title="This class is used by the Container classes to implement a various types of DOUBLY linked containers.">
<polygon fill="white" stroke="#666666" points="502.5,-104.5 342.5,-104.5 342.5,-85.5 502.5,-85.5 502.5,-104.5"/>
<text text-anchor="middle" x="422.5" y="-92.5" font-family="Helvetica,sans-Serif" font-size="10.00">Cpl::Container::ExtendedItem</text>
</a>
</g>
</g>
<!-- Node11&#45;&gt;Node10 -->
<g id="edge10_Node000010_Node000011" class="edge">
<title>Node11&#45;&gt;Node10</title>
<g id="a_edge10_Node000010_Node000011"><a xlink:title=" ">
<path fill="none" stroke="#63b8ff" d="M512.6,-95C552.67,-95 599.67,-95 638.93,-95"/>
<polygon fill="#63b8ff" stroke="#63b8ff" points="512.58,-91.5 502.58,-95 512.58,-98.5 512.58,-91.5"/>
</a>
</g>
</g>
<!-- Node12 -->
<g id="Node000012" class="node">
<title>Node12</title>
<g id="a_Node000012"><a xlink:href="class_cpl_1_1_container_1_1_item.html" target="_top" xlink:title="This class is used by the Container classes to implement a various types of singly linked containers.">
<polygon fill="white" stroke="#666666" points="115,-104.5 1,-104.5 1,-85.5 115,-85.5 115,-104.5"/>
<text text-anchor="middle" x="58" y="-92.5" font-family="Helvetica,sans-Serif" font-size="10.00">Cpl::Container::Item</text>
</a>
</g>
</g>
<!-- Node12&#45;&gt;Node11 -->
<g id="edge11_Node000011_Node000012" class="edge">
<title>Node12&#45;&gt;Node11</title>
<g id="a_edge11_Node000011_Node000012"><a xlink:title=" ">
<path fill="none" stroke="#63b8ff" d="M125.54,-95C186.67,-95 277.36,-95 342.22,-95"/>
<polygon fill="#63b8ff" stroke="#63b8ff" points="125.24,-91.5 115.24,-95 125.24,-98.5 125.24,-91.5"/>
</a>
</g>
</g>
<!-- Node13 -->
<g id="Node000013" class="node">
<title>Node13</title>
<g id="a_Node000013"><a xlink:href="class_cpl_1_1_system_1_1_timer_manager.html" target="_top" xlink:title="This mostly concrete class implements manages a list of Software Timers.">
<polygon fill="white" stroke="#666666" points="798.5,-67.5 646.5,-67.5 646.5,-48.5 798.5,-48.5 798.5,-67.5"/>
<text text-anchor="middle" x="722.5" y="-55.5" font-family="Helvetica,sans-Serif" font-size="10.00">Cpl::System::TimerManager</text>
</a>
</g>
</g>
<!-- Node13&#45;&gt;Node9 -->
<g id="edge12_Node000009_Node000013" class="edge">
<title>Node13&#45;&gt;Node9</title>
<g id="a_edge12_Node000009_Node000013"><a xlink:title=" ">
<path fill="none" stroke="#9a32cd" stroke-dasharray="5,2" d="M808.9,-67.55C839.83,-71.2 875.02,-75.55 907,-80 920,-81.81 933.97,-83.93 947.08,-86"/>
<polygon fill="#9a32cd" stroke="#9a32cd" points="808.92,-64.03 798.58,-66.35 808.1,-70.99 808.92,-64.03"/>
</a>
</g>
<text text-anchor="middle" x="865.5" y="-83" font-family="Helvetica,sans-Serif" font-size="10.00" fill="grey"> m_timingSource</text>
</g>
<!-- Node14 -->
<g id="Node000014" class="node">
<title>Node14</title>
<g id="a_Node000014"><a xlink:href="class_cpl_1_1_system_1_1_counter_source__.html" target="_top" xlink:title="This abstract class defines the interface for registering for an Counter object with the Timer Manage...">
<polygon fill="white" stroke="#666666" points="501.5,-67.5 343.5,-67.5 343.5,-48.5 501.5,-48.5 501.5,-67.5"/>
<text text-anchor="middle" x="422.5" y="-55.5" font-family="Helvetica,sans-Serif" font-size="10.00">Cpl::System::CounterSource_</text>
</a>
</g>
</g>
<!-- Node14&#45;&gt;Node13 -->
<g id="edge13_Node000013_Node000014" class="edge">
<title>Node14&#45;&gt;Node13</title>
<g id="a_edge13_Node000013_Node000014"><a xlink:title=" ">
<path fill="none" stroke="#63b8ff" d="M511.91,-58C554.66,-58 605.43,-58 646.3,-58"/>
<polygon fill="#63b8ff" stroke="#63b8ff" points="511.8,-54.5 501.8,-58 511.8,-61.5 511.8,-54.5"/>
</a>
</g>
</g>
<!-- Node15 -->
<g id="Node000015" class="node">
<title>Node15</title>
<g id="a_Node000015"><a xlink:href="class_cpl_1_1_container_1_1_d_list.html" target="_top" xlink:title=" ">
<polygon fill="white" stroke="#666666" points="517,-30 328,-30 328,0 517,0 517,-30"/>
<text text-anchor="start" x="336" y="-18" font-family="Helvetica,sans-Serif" font-size="10.00">Cpl::Container::DList</text>
<text text-anchor="middle" x="422.5" y="-7" font-family="Helvetica,sans-Serif" font-size="10.00">&lt; Cpl::System::CounterCallback_ &gt;</text>
</a>
</g>
</g>
<!-- Node15&#45;&gt;Node13 -->
<g id="edge14_Node000013_Node000015" class="edge">
<title>Node15&#45;&gt;Node13</title>
<g id="a_edge14_Node000013_Node000015"><a xlink:title=" ">
<path fill="none" stroke="#9a32cd" stroke-dasharray="5,2" d="M527.5,-20.67C557.78,-23.21 590.83,-26.84 621,-32 644.45,-36.01 670.44,-42.8 690.11,-48.43"/>
<polygon fill="#9a32cd" stroke="#9a32cd" points="527.59,-17.17 517.34,-19.85 527.03,-24.15 527.59,-17.17"/>
</a>
</g>
<text text-anchor="middle" x="578" y="-46" font-family="Helvetica,sans-Serif" font-size="10.00" fill="grey"> m_counters</text>
<text text-anchor="middle" x="578" y="-35" font-family="Helvetica,sans-Serif" font-size="10.00" fill="grey">m_pendingAttach</text>
</g>
<!-- Node16 -->
<g id="Node000016" class="node">
<title>Node16</title>
<g id="a_Node000016"><a xlink:href="class_cpl_1_1_container_1_1_d_list.html" target="_top" xlink:title="This template class implements a Doubly linked list which maintains the ordering imposed on it by the...">
<polygon fill="white" stroke="#666666" points="116,-30 0,-30 0,0 116,0 116,-30"/>
<text text-anchor="start" x="8" y="-18" font-family="Helvetica,sans-Serif" font-size="10.00">Cpl::Container::DList</text>
<text text-anchor="middle" x="58" y="-7" font-family="Helvetica,sans-Serif" font-size="10.00">&lt; ITEM &gt;</text>
</a>
</g>
</g>
<!-- Node16&#45;&gt;Node15 -->
<g id="edge15_Node000015_Node000016" class="edge">
<title>Node16&#45;&gt;Node15</title>
<g id="a_edge15_Node000015_Node000016"><a xlink:title=" ">
<path fill="none" stroke="orange" stroke-dasharray="5,2" d="M126.32,-15C183,-15 264.69,-15 327.77,-15"/>
<polygon fill="orange" stroke="orange" points="126.04,-11.5 116.04,-15 126.04,-18.5 126.04,-11.5"/>
</a>
</g>
<text text-anchor="middle" x="222" y="-18" font-family="Helvetica,sans-Serif" font-size="10.00" fill="grey"> &lt; Cpl::System::CounterCallback_ &gt;</text>
</g>
<!-- Node17 -->
<g id="Node000017" class="node">
<title>Node17</title>
<g id="a_Node000017"><a xlink:href="class_driver_1_1_l_e_d_1_1_red_green_blue.html" target="_top" xlink:title="This abstract class defines a basic interface for a single Red&#45;Green&#45;Blue LED where the application c...">
<polygon fill="white" stroke="#666666" points="1076,-67.5 929,-67.5 929,-48.5 1076,-48.5 1076,-67.5"/>
<text text-anchor="middle" x="1002.5" y="-55.5" font-family="Helvetica,sans-Serif" font-size="10.00">Driver::LED::RedGreenBlue</text>
</a>
</g>
</g>
<!-- Node17&#45;&gt;Node1 -->
<g id="edge16_Node000001_Node000017" class="edge">
<title>Node17&#45;&gt;Node1</title>
<g id="a_edge16_Node000001_Node000017"><a xlink:title=" ">
<path fill="none" stroke="#9a32cd" stroke-dasharray="5,2" d="M1086.4,-60.58C1110.77,-61.49 1137.46,-62.63 1162,-64 1167.78,-64.32 1173.75,-64.69 1179.76,-65.08"/>
<polygon fill="#9a32cd" stroke="#9a32cd" points="1086.24,-57.07 1076.12,-60.2 1085.98,-64.07 1086.24,-57.07"/>
</a>
</g>
<text text-anchor="middle" x="1130" y="-67" font-family="Helvetica,sans-Serif" font-size="10.00" fill="grey"> m_ledDriver</text>
</g>
<!-- Node18 -->
<g id="Node000018" class="node">
<title>Node18</title>
<g id="a_Node000018"><a xlink:href="class_ajax_1_1_screen_mgr_1_1_navigation.html" target="_top" xlink:title="This class defines the interface &#45; used by ScreenApi instances &#45; to navigate to other screen instance...">
<polygon fill="white" stroke="#666666" points="1080,-30.5 925,-30.5 925,-11.5 1080,-11.5 1080,-30.5"/>
<text text-anchor="middle" x="1002.5" y="-18.5" font-family="Helvetica,sans-Serif" font-size="10.00">Ajax::ScreenMgr::Navigation</text>
</a>
</g>
</g>
<!-- Node18&#45;&gt;Node1 -->
<g id="edge17_Node000001_Node000018" class="edge">
<title>Node18&#45;&gt;Node1</title>
<g id="a_edge17_Node000001_Node000018"><a xlink:title=" ">
<path fill="none" stroke="#9a32cd" stroke-dasharray="5,2" d="M1083.5,-32.01C1108.71,-35.91 1136.61,-40.67 1162,-46 1182.7,-50.34 1205.63,-56.35 1223.78,-61.38"/>
<polygon fill="#9a32cd" stroke="#9a32cd" points="1084.02,-28.55 1073.61,-30.5 1082.97,-35.47 1084.02,-28.55"/>
</a>
</g>
<text text-anchor="middle" x="1130" y="-49" font-family="Helvetica,sans-Serif" font-size="10.00" fill="grey"> m_scrMgr</text>
</g>
</g>
</svg>
