<?xml version="1.0" encoding="UTF-8" standalone="no"?>
<!DOCTYPE svg PUBLIC "-//W3C//DTD SVG 1.1//EN"
 "http://www.w3.org/Graphics/SVG/1.1/DTD/svg11.dtd">
<!-- Generated by graphviz version 9.0.0 (20230911.1827)
 -->
<!-- Title: Cpl::Persistent::RecordServer Pages: 1 -->
<svg width="1019pt" height="316pt"
 viewBox="0.00 0.00 1019.25 316.25" xmlns="http://www.w3.org/2000/svg" xmlns:xlink="http://www.w3.org/1999/xlink">
<g id="graph0" class="graph" transform="scale(1 1) rotate(0) translate(4 312.25)">
<title>Cpl::Persistent::RecordServer</title>
<!-- Node1 -->
<g id="Node000001" class="node">
<title>Node1</title>
<g id="a_Node000001"><a xlink:title="This concrete class provides an Event driven Runnable object for executing the read/write operation t...">
<polygon fill="#999999" stroke="#666666" points="1011.25,-120.25 868.5,-120.25 868.5,-101 1011.25,-101 1011.25,-120.25"/>
<text text-anchor="middle" x="939.88" y="-106.75" font-family="Helvetica,sans-Serif" font-size="10.00">Cpl::Persistent::RecordServer</text>
</a>
</g>
</g>
<!-- Node2 -->
<g id="Node000002" class="node">
<title>Node2</title>
<g id="a_Node000002"><a xlink:href="class_cpl_1_1_dm_1_1_mailbox_server.html" target="_top" xlink:title="This class extends the Cpl::Dm::EventLoop and Cpl::Itc:Mailbox classes to support the asynchronous ch...">
<polygon fill="white" stroke="#666666" points="831.5,-166.25 715.75,-166.25 715.75,-147 831.5,-147 831.5,-166.25"/>
<text text-anchor="middle" x="773.62" y="-152.75" font-family="Helvetica,sans-Serif" font-size="10.00">Cpl::Dm::MailboxServer</text>
</a>
</g>
</g>
<!-- Node2&#45;&gt;Node1 -->
<g id="edge1_Node000001_Node000002" class="edge">
<title>Node2&#45;&gt;Node1</title>
<g id="a_edge1_Node000001_Node000002"><a xlink:title=" ">
<path fill="none" stroke="#63b8ff" d="M821.72,-143.44C847.55,-136.2 879.08,-127.37 902.91,-120.7"/>
<polygon fill="#63b8ff" stroke="#63b8ff" points="820.81,-140.05 812.13,-146.12 822.7,-146.8 820.81,-140.05"/>
</a>
</g>
</g>
<!-- Node3 -->
<g id="Node000003" class="node">
<title>Node3</title>
<g id="a_Node000003"><a xlink:href="class_cpl_1_1_dm_1_1_event_loop.html" target="_top" xlink:title="This class extends the Cpl::System::EventLoop class to support the asynchronous change notification g...">
<polygon fill="white" stroke="#666666" points="673.5,-216.25 572.75,-216.25 572.75,-197 673.5,-197 673.5,-216.25"/>
<text text-anchor="middle" x="623.12" y="-202.75" font-family="Helvetica,sans-Serif" font-size="10.00">Cpl::Dm::EventLoop</text>
</a>
</g>
</g>
<!-- Node3&#45;&gt;Node2 -->
<g id="edge2_Node000002_Node000003" class="edge">
<title>Node3&#45;&gt;Node2</title>
<g id="a_edge2_Node000002_Node000003"><a xlink:title=" ">
<path fill="none" stroke="#63b8ff" d="M664.98,-192.87C689.55,-184.6 720.29,-174.25 742.62,-166.73"/>
<polygon fill="#63b8ff" stroke="#63b8ff" points="663.97,-189.52 655.61,-196.02 666.2,-196.15 663.97,-189.52"/>
</a>
</g>
</g>
<!-- Node4 -->
<g id="Node000004" class="node">
<title>Node4</title>
<g id="a_Node000004"><a xlink:href="class_cpl_1_1_system_1_1_event_loop.html" target="_top" xlink:title="This concrete class is a Runnable object that provides a event driven execution model for a thread.">
<polygon fill="white" stroke="#666666" points="528.62,-253.25 409.88,-253.25 409.88,-234 528.62,-234 528.62,-253.25"/>
<text text-anchor="middle" x="469.25" y="-239.75" font-family="Helvetica,sans-Serif" font-size="10.00">Cpl::System::EventLoop</text>
</a>
</g>
</g>
<!-- Node4&#45;&gt;Node3 -->
<g id="edge3_Node000003_Node000004" class="edge">
<title>Node4&#45;&gt;Node3</title>
<g id="a_edge3_Node000003_Node000004"><a xlink:title=" ">
<path fill="none" stroke="#63b8ff" d="M522.9,-230.8C541.81,-226.19 562.85,-221.07 580.67,-216.72"/>
<polygon fill="#63b8ff" stroke="#63b8ff" points="522.11,-227.39 513.22,-233.16 523.77,-234.19 522.11,-227.39"/>
</a>
</g>
</g>
<!-- Node5 -->
<g id="Node000005" class="node">
<title>Node5</title>
<g id="a_Node000005"><a xlink:href="class_cpl_1_1_system_1_1_runnable.html" target="_top" xlink:title="This is an abstract class defines the interface for an object that is &quot;executed&quot; when a Thread object...">
<polygon fill="white" stroke="#666666" points="302.62,-308.25 189.88,-308.25 189.88,-289 302.62,-289 302.62,-308.25"/>
<text text-anchor="middle" x="246.25" y="-294.75" font-family="Helvetica,sans-Serif" font-size="10.00">Cpl::System::Runnable</text>
</a>
</g>
</g>
<!-- Node5&#45;&gt;Node4 -->
<g id="edge4_Node000004_Node000005" class="edge">
<title>Node5&#45;&gt;Node4</title>
<g id="a_edge4_Node000004_Node000005"><a xlink:title=" ">
<path fill="none" stroke="#63b8ff" d="M304.58,-286.02C330.71,-280.11 361.99,-272.8 390,-265.62 404.35,-261.95 420.1,-257.59 433.68,-253.72"/>
<polygon fill="#63b8ff" stroke="#63b8ff" points="303.81,-282.6 294.83,-288.21 305.35,-289.43 303.81,-282.6"/>
</a>
</g>
</g>
<!-- Node6 -->
<g id="Node000006" class="node">
<title>Node6</title>
<g id="a_Node000006"><a xlink:href="class_cpl_1_1_system_1_1_event_flag.html" target="_top" xlink:title="This abstract class defines the interface to generated a &#39;Event Flag&#39;.">
<polygon fill="white" stroke="#666666" points="304.12,-271.25 188.38,-271.25 188.38,-252 304.12,-252 304.12,-271.25"/>
<text text-anchor="middle" x="246.25" y="-257.75" font-family="Helvetica,sans-Serif" font-size="10.00">Cpl::System::EventFlag</text>
</a>
</g>
</g>
<!-- Node6&#45;&gt;Node4 -->
<g id="edge5_Node000004_Node000006" class="edge">
<title>Node6&#45;&gt;Node4</title>
<g id="a_edge5_Node000004_Node000006"><a xlink:title=" ">
<path fill="none" stroke="#63b8ff" d="M315.73,-256.05C345.85,-253.59 380.87,-250.74 409.75,-248.39"/>
<polygon fill="#63b8ff" stroke="#63b8ff" points="315.64,-252.54 305.96,-256.84 316.21,-259.52 315.64,-252.54"/>
</a>
</g>
</g>
<!-- Node7 -->
<g id="Node000007" class="node">
<title>Node7</title>
<g id="a_Node000007"><a xlink:href="class_cpl_1_1_system_1_1_signable.html" target="_top" xlink:title="This abstract class defines the interface by which a client can cause an object that is waiting&#45;on&#45;a&#45;...">
<polygon fill="white" stroke="#666666" points="301.12,-234.25 191.38,-234.25 191.38,-215 301.12,-215 301.12,-234.25"/>
<text text-anchor="middle" x="246.25" y="-220.75" font-family="Helvetica,sans-Serif" font-size="10.00">Cpl::System::Signable</text>
</a>
</g>
</g>
<!-- Node7&#45;&gt;Node4 -->
<g id="edge6_Node000004_Node000007" class="edge">
<title>Node7&#45;&gt;Node4</title>
<g id="a_edge6_Node000004_Node000007"><a xlink:title=" ">
<path fill="none" stroke="#63b8ff" d="M313.03,-230.28C343.65,-232.91 379.77,-236.02 409.46,-238.57"/>
<polygon fill="#63b8ff" stroke="#63b8ff" points="313.37,-226.8 303.1,-229.43 312.77,-233.77 313.37,-226.8"/>
</a>
</g>
</g>
<!-- Node8 -->
<g id="Node000008" class="node">
<title>Node8</title>
<g id="a_Node000008"><a xlink:href="class_cpl_1_1_container_1_1_item.html" target="_top" xlink:title="This class is used by the Container classes to implement a various types of singly linked containers.">
<polygon fill="white" stroke="#666666" points="121,-234.25 21,-234.25 21,-215 121,-215 121,-234.25"/>
<text text-anchor="middle" x="71" y="-220.75" font-family="Helvetica,sans-Serif" font-size="10.00">Cpl::Container::Item</text>
</a>
</g>
</g>
<!-- Node8&#45;&gt;Node7 -->
<g id="edge7_Node000007_Node000008" class="edge">
<title>Node8&#45;&gt;Node7</title>
<g id="a_edge7_Node000007_Node000008"><a xlink:title=" ">
<path fill="none" stroke="#63b8ff" d="M132.47,-224.62C151.54,-224.62 172.48,-224.62 191.08,-224.62"/>
<polygon fill="#63b8ff" stroke="#63b8ff" points="132.7,-221.13 122.7,-224.63 132.7,-228.13 132.7,-221.13"/>
</a>
</g>
</g>
<!-- Node9 -->
<g id="Node000009" class="node">
<title>Node9</title>
<g id="a_Node000009"><a xlink:href="class_cpl_1_1_system_1_1_timer_manager.html" target="_top" xlink:title="This mostly concrete class implements manages a list of Software Timers.">
<polygon fill="white" stroke="#666666" points="313.5,-197.25 179,-197.25 179,-178 313.5,-178 313.5,-197.25"/>
<text text-anchor="middle" x="246.25" y="-183.75" font-family="Helvetica,sans-Serif" font-size="10.00">Cpl::System::TimerManager</text>
</a>
</g>
</g>
<!-- Node9&#45;&gt;Node4 -->
<g id="edge8_Node000004_Node000009" class="edge">
<title>Node9&#45;&gt;Node4</title>
<g id="a_edge8_Node000004_Node000009"><a xlink:title=" ">
<path fill="none" stroke="#63b8ff" d="M298.03,-200.49C337.65,-210.53 391.92,-224.28 428.43,-233.54"/>
<polygon fill="#63b8ff" stroke="#63b8ff" points="299.04,-197.14 288.48,-198.07 297.32,-203.92 299.04,-197.14"/>
</a>
</g>
</g>
<!-- Node10 -->
<g id="Node000010" class="node">
<title>Node10</title>
<g id="a_Node000010"><a xlink:href="class_cpl_1_1_system_1_1_counter_source__.html" target="_top" xlink:title="This abstract class defines the interface for registering for an Counter object with the Timer Manage...">
<polygon fill="white" stroke="#666666" points="142,-197.25 0,-197.25 0,-178 142,-178 142,-197.25"/>
<text text-anchor="middle" x="71" y="-183.75" font-family="Helvetica,sans-Serif" font-size="10.00">Cpl::System::CounterSource_</text>
</a>
</g>
</g>
<!-- Node10&#45;&gt;Node9 -->
<g id="edge9_Node000009_Node000010" class="edge">
<title>Node10&#45;&gt;Node9</title>
<g id="a_edge9_Node000009_Node000010"><a xlink:title=" ">
<path fill="none" stroke="#63b8ff" d="M153.81,-187.62C162.17,-187.62 170.59,-187.62 178.76,-187.62"/>
<polygon fill="#63b8ff" stroke="#63b8ff" points="153.98,-184.13 143.98,-187.63 153.98,-191.13 153.98,-184.13"/>
</a>
</g>
</g>
<!-- Node11 -->
<g id="Node000011" class="node">
<title>Node11</title>
<g id="a_Node000011"><a xlink:href="class_cpl_1_1_dm_1_1_notification_api__.html" target="_top" xlink:title="This class has PACKAGE Scope, i.e.">
<polygon fill="white" stroke="#666666" points="530.5,-216.25 408,-216.25 408,-197 530.5,-197 530.5,-216.25"/>
<text text-anchor="middle" x="469.25" y="-202.75" font-family="Helvetica,sans-Serif" font-size="10.00">Cpl::Dm::NotificationApi_</text>
</a>
</g>
</g>
<!-- Node11&#45;&gt;Node3 -->
<g id="edge10_Node000003_Node000011" class="edge">
<title>Node11&#45;&gt;Node3</title>
<g id="a_edge10_Node000003_Node000011"><a xlink:title=" ">
<path fill="none" stroke="#63b8ff" d="M541.9,-206.62C552.29,-206.62 562.78,-206.62 572.6,-206.62"/>
<polygon fill="#63b8ff" stroke="#63b8ff" points="542.22,-203.13 532.22,-206.63 542.22,-210.13 542.22,-203.13"/>
</a>
</g>
</g>
<!-- Node12 -->
<g id="Node000012" class="node">
<title>Node12</title>
<g id="a_Node000012"><a xlink:href="class_cpl_1_1_itc_1_1_mailbox.html" target="_top" xlink:title="This mailbox class implements an Inter Thread Communications message queue.">
<polygon fill="white" stroke="#666666" points="664.88,-166.25 581.38,-166.25 581.38,-147 664.88,-147 664.88,-166.25"/>
<text text-anchor="middle" x="623.12" y="-152.75" font-family="Helvetica,sans-Serif" font-size="10.00">Cpl::Itc::Mailbox</text>
</a>
</g>
</g>
<!-- Node12&#45;&gt;Node2 -->
<g id="edge11_Node000002_Node000012" class="edge">
<title>Node12&#45;&gt;Node2</title>
<g id="a_edge11_Node000002_Node000012"><a xlink:title=" ">
<path fill="none" stroke="#63b8ff" d="M676.38,-156.62C689,-156.62 702.56,-156.62 715.39,-156.62"/>
<polygon fill="#63b8ff" stroke="#63b8ff" points="676.61,-153.13 666.61,-156.63 676.61,-160.13 676.61,-153.13"/>
</a>
</g>
</g>
<!-- Node13 -->
<g id="Node000013" class="node">
<title>Node13</title>
<g id="a_Node000013"><a xlink:href="class_cpl_1_1_itc_1_1_post_api.html" target="_top" xlink:title="This abstract class represents the interface used to send messages to a mailbox.">
<polygon fill="white" stroke="#666666" points="511.75,-179.25 426.75,-179.25 426.75,-160 511.75,-160 511.75,-179.25"/>
<text text-anchor="middle" x="469.25" y="-165.75" font-family="Helvetica,sans-Serif" font-size="10.00">Cpl::Itc::PostApi</text>
</a>
</g>
</g>
<!-- Node13&#45;&gt;Node12 -->
<g id="edge12_Node000012_Node000013" class="edge">
<title>Node13&#45;&gt;Node12</title>
<g id="a_edge12_Node000012_Node000013"><a xlink:title=" ">
<path fill="none" stroke="#63b8ff" d="M523.56,-165.06C542.37,-163.45 563.22,-161.67 580.88,-160.16"/>
<polygon fill="#63b8ff" stroke="#63b8ff" points="523.33,-161.57 513.66,-165.91 523.92,-168.54 523.33,-161.57"/>
</a>
</g>
</g>
<!-- Node14 -->
<g id="Node000014" class="node">
<title>Node14</title>
<g id="a_Node000014"><a xlink:href="class_cpl_1_1_container_1_1_s_list.html" target="_top" xlink:title=" ">
<polygon fill="white" stroke="#666666" points="521.12,-141.88 417.38,-141.88 417.38,-111.38 521.12,-111.38 521.12,-141.88"/>
<text text-anchor="start" x="425.38" y="-128.38" font-family="Helvetica,sans-Serif" font-size="10.00">Cpl::Container::SList</text>
<text text-anchor="middle" x="469.25" y="-117.12" font-family="Helvetica,sans-Serif" font-size="10.00">&lt; Message &gt;</text>
</a>
</g>
</g>
<!-- Node14&#45;&gt;Node12 -->
<g id="edge13_Node000012_Node000014" class="edge">
<title>Node14&#45;&gt;Node12</title>
<g id="a_edge13_Node000012_Node000014"><a xlink:title=" ">
<path fill="none" stroke="#63b8ff" d="M532.42,-138.91C548.82,-142.15 566.11,-145.56 581.09,-148.52"/>
<polygon fill="#63b8ff" stroke="#63b8ff" points="533.22,-135.5 522.73,-136.99 531.86,-142.36 533.22,-135.5"/>
</a>
</g>
</g>
<!-- Node15 -->
<g id="Node000015" class="node">
<title>Node15</title>
<g id="a_Node000015"><a xlink:href="class_cpl_1_1_container_1_1_s_list.html" target="_top" xlink:title="This template class implements a singly linked list which maintains the ordering imposed on it by the...">
<polygon fill="white" stroke="#666666" points="298.12,-141.88 194.38,-141.88 194.38,-111.38 298.12,-111.38 298.12,-141.88"/>
<text text-anchor="start" x="202.38" y="-128.38" font-family="Helvetica,sans-Serif" font-size="10.00">Cpl::Container::SList</text>
<text text-anchor="middle" x="246.25" y="-117.12" font-family="Helvetica,sans-Serif" font-size="10.00">&lt; ITEM &gt;</text>
</a>
</g>
</g>
<!-- Node15&#45;&gt;Node14 -->
<g id="edge14_Node000014_Node000015" class="edge">
<title>Node15&#45;&gt;Node14</title>
<g id="a_edge14_Node000014_Node000015"><a xlink:title=" ">
<path fill="none" stroke="orange" stroke-dasharray="5,2" d="M309.68,-126.62C343.55,-126.62 384.91,-126.62 416.89,-126.62"/>
<polygon fill="orange" stroke="orange" points="310.02,-123.13 300.02,-126.63 310.02,-130.13 310.02,-123.13"/>
</a>
</g>
<text text-anchor="middle" x="360.75" y="-128.38" font-family="Helvetica,sans-Serif" font-size="10.00" fill="grey"> &lt; Message &gt;</text>
</g>
<!-- Node16 -->
<g id="Node000016" class="node">
<title>Node16</title>
<g id="a_Node000016"><a xlink:href="class_cpl_1_1_itc_1_1_close_sync.html" target="_top" xlink:title="This partially concrete class implements the synchronous ITC close call for the CloseApi.">
<polygon fill="white" stroke="#666666" points="822.12,-69.25 725.12,-69.25 725.12,-50 822.12,-50 822.12,-69.25"/>
<text text-anchor="middle" x="773.62" y="-55.75" font-family="Helvetica,sans-Serif" font-size="10.00">Cpl::Itc::CloseSync</text>
</a>
</g>
</g>
<!-- Node16&#45;&gt;Node1 -->
<g id="edge15_Node000001_Node000016" class="edge">
<title>Node16&#45;&gt;Node1</title>
<g id="a_edge15_Node000001_Node000016"><a xlink:title=" ">
<path fill="none" stroke="#63b8ff" d="M818.06,-73.11C845.81,-81.73 881.2,-92.72 906.49,-100.57"/>
<polygon fill="#63b8ff" stroke="#63b8ff" points="819.11,-69.77 808.52,-70.15 817.03,-76.46 819.11,-69.77"/>
</a>
</g>
</g>
<!-- Node17 -->
<g id="Node000017" class="node">
<title>Node17</title>
<g id="a_Node000017"><a xlink:href="class_cpl_1_1_itc_1_1_open_sync.html" target="_top" xlink:title="This partially concrete class implements the synchronous ITC open call for the OpenApi.">
<polygon fill="white" stroke="#666666" points="670.88,-93.25 575.38,-93.25 575.38,-74 670.88,-74 670.88,-93.25"/>
<text text-anchor="middle" x="623.12" y="-79.75" font-family="Helvetica,sans-Serif" font-size="10.00">Cpl::Itc::OpenSync</text>
</a>
</g>
</g>
<!-- Node17&#45;&gt;Node16 -->
<g id="edge16_Node000016_Node000017" class="edge">
<title>Node17&#45;&gt;Node16</title>
<g id="a_edge16_Node000016_Node000017"><a xlink:title=" ">
<path fill="none" stroke="#63b8ff" d="M682.18,-74.24C696.24,-71.97 711.13,-69.56 724.67,-67.38"/>
<polygon fill="#63b8ff" stroke="#63b8ff" points="681.92,-70.74 672.61,-75.79 683.04,-77.65 681.92,-70.74"/>
</a>
</g>
</g>
<!-- Node18 -->
<g id="Node000018" class="node">
<title>Node18</title>
<g id="a_Node000018"><a xlink:href="class_cpl_1_1_itc_1_1_open_api.html" target="_top" xlink:title="This abstract class defines an open interface.">
<polygon fill="white" stroke="#666666" points="513.25,-93.25 425.25,-93.25 425.25,-74 513.25,-74 513.25,-93.25"/>
<text text-anchor="middle" x="469.25" y="-79.75" font-family="Helvetica,sans-Serif" font-size="10.00">Cpl::Itc::OpenApi</text>
</a>
</g>
</g>
<!-- Node18&#45;&gt;Node17 -->
<g id="edge17_Node000017_Node000018" class="edge">
<title>Node18&#45;&gt;Node17</title>
<g id="a_edge17_Node000017_Node000018"><a xlink:title=" ">
<path fill="none" stroke="#63b8ff" d="M524.49,-83.62C540.97,-83.62 558.93,-83.62 574.91,-83.62"/>
<polygon fill="#63b8ff" stroke="#63b8ff" points="524.88,-80.13 514.88,-83.63 524.88,-87.13 524.88,-80.13"/>
</a>
</g>
</g>
<!-- Node19 -->
<g id="Node000019" class="node">
<title>Node19</title>
<g id="a_Node000019"><a xlink:href="class_cpl_1_1_itc_1_1_open_request.html" target="_top" xlink:title="This abstract class define message types and payloads for a set of ITC services.">
<polygon fill="white" stroke="#666666" points="524.12,-56.25 414.38,-56.25 414.38,-37 524.12,-37 524.12,-56.25"/>
<text text-anchor="middle" x="469.25" y="-42.75" font-family="Helvetica,sans-Serif" font-size="10.00">Cpl::Itc::OpenRequest</text>
</a>
</g>
</g>
<!-- Node19&#45;&gt;Node17 -->
<g id="edge18_Node000017_Node000019" class="edge">
<title>Node19&#45;&gt;Node17</title>
<g id="a_edge18_Node000017_Node000019"><a xlink:title=" ">
<path fill="none" stroke="#63b8ff" d="M522.9,-59.45C541.81,-64.06 562.85,-69.18 580.67,-73.53"/>
<polygon fill="#63b8ff" stroke="#63b8ff" points="523.77,-56.06 513.22,-57.09 522.11,-62.86 523.77,-56.06"/>
</a>
</g>
</g>
<!-- Node20 -->
<g id="Node000020" class="node">
<title>Node20</title>
<g id="a_Node000020"><a xlink:href="class_cpl_1_1_itc_1_1_close_api.html" target="_top" xlink:title="This abstract class defines an close interface.">
<polygon fill="white" stroke="#666666" points="667.88,-56.25 578.38,-56.25 578.38,-37 667.88,-37 667.88,-56.25"/>
<text text-anchor="middle" x="623.12" y="-42.75" font-family="Helvetica,sans-Serif" font-size="10.00">Cpl::Itc::CloseApi</text>
</a>
</g>
</g>
<!-- Node20&#45;&gt;Node16 -->
<g id="edge19_Node000016_Node000020" class="edge">
<title>Node20&#45;&gt;Node16</title>
<g id="a_edge19_Node000016_Node000020"><a xlink:title=" ">
<path fill="none" stroke="#63b8ff" d="M679.41,-51.47C694.31,-52.77 710.3,-54.17 724.76,-55.43"/>
<polygon fill="#63b8ff" stroke="#63b8ff" points="680.05,-48.01 669.79,-50.62 679.44,-54.98 680.05,-48.01"/>
</a>
</g>
</g>
<!-- Node21 -->
<g id="Node000021" class="node">
<title>Node21</title>
<g id="a_Node000021"><a xlink:href="class_cpl_1_1_itc_1_1_close_request.html" target="_top" xlink:title="This abstract class define message types and payloads for a set of ITC services.">
<polygon fill="white" stroke="#666666" points="678.75,-19.25 567.5,-19.25 567.5,0 678.75,0 678.75,-19.25"/>
<text text-anchor="middle" x="623.12" y="-5.75" font-family="Helvetica,sans-Serif" font-size="10.00">Cpl::Itc::CloseRequest</text>
</a>
</g>
</g>
<!-- Node21&#45;&gt;Node16 -->
<g id="edge20_Node000016_Node000021" class="edge">
<title>Node21&#45;&gt;Node16</title>
<g id="a_edge20_Node000016_Node000021"><a xlink:title=" ">
<path fill="none" stroke="#63b8ff" d="M665.64,-23.26C670.07,-24.73 674.5,-26.2 678.75,-27.62 700.46,-34.9 724.95,-43.26 743.47,-49.6"/>
<polygon fill="#63b8ff" stroke="#63b8ff" points="666.8,-19.95 656.2,-20.14 664.6,-26.6 666.8,-19.95"/>
</a>
</g>
</g>
</g>
</svg>
