<?xml version="1.0" encoding="UTF-8" standalone="no"?>
<!DOCTYPE svg PUBLIC "-//W3C//DTD SVG 1.1//EN"
 "http://www.w3.org/Graphics/SVG/1.1/DTD/svg11.dtd">
<!-- Generated by graphviz version 2.43.0 (0)
 -->
<!-- Title: Cpl::Container::DList&lt; ITEM &gt; Pages: 1 -->
<svg width="525pt" height="254pt"
 viewBox="0.00 0.00 525.00 253.50" xmlns="http://www.w3.org/2000/svg" xmlns:xlink="http://www.w3.org/1999/xlink">
<g id="graph0" class="graph" transform="scale(1 1) rotate(0) translate(4 249.5)">
<title>Cpl::Container::DList&lt; ITEM &gt;</title>
<!-- Node1 -->
<g id="Node000001" class="node">
<title>Node1</title>
<g id="a_Node000001"><a xlink:title="This template class implements a Doubly linked list which maintains the ordering imposed on it by the...">
<polygon fill="#999999" stroke="#666666" points="116,-138 0,-138 0,-108 116,-108 116,-138"/>
<text text-anchor="start" x="8" y="-126" font-family="Helvetica,sans-Serif" font-size="10.00">Cpl::Container::DList</text>
<text text-anchor="middle" x="58" y="-115" font-family="Helvetica,sans-Serif" font-size="10.00">&lt; ITEM &gt;</text>
</a>
</g>
</g>
<!-- Node2 -->
<g id="Node000002" class="node">
<title>Node2</title>
<g id="a_Node000002"><a xlink:href="class_cpl_1_1_container_1_1_d_list.html" target="_top" xlink:title=" ">
<polygon fill="white" stroke="#666666" points="487,-245.5 358,-245.5 358,-204.5 487,-204.5 487,-245.5"/>
<text text-anchor="start" x="366" y="-233.5" font-family="Helvetica,sans-Serif" font-size="10.00">Cpl::Container::DList</text>
<text text-anchor="start" x="366" y="-222.5" font-family="Helvetica,sans-Serif" font-size="10.00">&lt; Ajax::ScreenMgr::Api</text>
<text text-anchor="middle" x="422.5" y="-211.5" font-family="Helvetica,sans-Serif" font-size="10.00">::NavigationElement &gt;</text>
</a>
</g>
</g>
<!-- Node1&#45;&gt;Node2 -->
<g id="edge1_Node000001_Node000002" class="edge">
<title>Node1&#45;&gt;Node2</title>
<g id="a_edge1_Node000001_Node000002"><a xlink:title=" ">
<path fill="none" stroke="orange" stroke-dasharray="5,2" d="M84.6,-144.41C98.42,-154.89 116.24,-166.78 134,-174 207.37,-203.85 298.28,-216.26 357.98,-221.4"/>
<polygon fill="orange" stroke="orange" points="86.59,-141.52 76.55,-138.12 82.27,-147.04 86.59,-141.52"/>
</a>
</g>
<text text-anchor="start" x="158.5" y="-230" font-family="Helvetica,sans-Serif" font-size="10.00" fill="grey"> &lt; Ajax::ScreenMgr::</text>
<text text-anchor="middle" x="222" y="-219" font-family="Helvetica,sans-Serif" font-size="10.00" fill="grey">Api::NavigationElement &gt;</text>
</g>
<!-- Node3 -->
<g id="Node000003" class="node">
<title>Node3</title>
<g id="a_Node000003"><a xlink:href="class_cpl_1_1_container_1_1_d_list.html" target="_top" xlink:title=" ">
<polygon fill="white" stroke="#666666" points="500.5,-186 344.5,-186 344.5,-156 500.5,-156 500.5,-186"/>
<text text-anchor="start" x="352.5" y="-174" font-family="Helvetica,sans-Serif" font-size="10.00">Cpl::Container::DList</text>
<text text-anchor="middle" x="422.5" y="-163" font-family="Helvetica,sans-Serif" font-size="10.00">&lt; Cpl::Container::DictItem &gt;</text>
</a>
</g>
</g>
<!-- Node1&#45;&gt;Node3 -->
<g id="edge2_Node000001_Node000003" class="edge">
<title>Node1&#45;&gt;Node3</title>
<g id="a_edge2_Node000001_Node000003"><a xlink:title=" ">
<path fill="none" stroke="orange" stroke-dasharray="5,2" d="M126.31,-136.74C128.91,-137.18 131.47,-137.6 134,-138 204.97,-149.15 286.36,-158.14 344.39,-163.91"/>
<polygon fill="orange" stroke="orange" points="126.7,-133.25 116.24,-134.96 125.48,-140.15 126.7,-133.25"/>
</a>
</g>
<text text-anchor="middle" x="222" y="-162" font-family="Helvetica,sans-Serif" font-size="10.00" fill="grey"> &lt; Cpl::Container::DictItem &gt;</text>
</g>
<!-- Node4 -->
<g id="Node000004" class="node">
<title>Node4</title>
<g id="a_Node000004"><a xlink:href="class_cpl_1_1_container_1_1_d_list.html" target="_top" xlink:title=" ">
<polygon fill="white" stroke="#666666" points="498,-138 347,-138 347,-108 498,-108 498,-138"/>
<text text-anchor="start" x="355" y="-126" font-family="Helvetica,sans-Serif" font-size="10.00">Cpl::Container::DList</text>
<text text-anchor="middle" x="422.5" y="-115" font-family="Helvetica,sans-Serif" font-size="10.00">&lt; Cpl::Dm::SubscriberApi &gt;</text>
</a>
</g>
</g>
<!-- Node1&#45;&gt;Node4 -->
<g id="edge3_Node000001_Node000004" class="edge">
<title>Node1&#45;&gt;Node4</title>
<g id="a_edge3_Node000001_Node000004"><a xlink:title=" ">
<path fill="none" stroke="orange" stroke-dasharray="5,2" d="M126.2,-123C188.81,-123 282,-123 346.89,-123"/>
<polygon fill="orange" stroke="orange" points="126.04,-119.5 116.04,-123 126.04,-126.5 126.04,-119.5"/>
</a>
</g>
<text text-anchor="middle" x="222" y="-126" font-family="Helvetica,sans-Serif" font-size="10.00" fill="grey"> &lt; Cpl::Dm::SubscriberApi &gt;</text>
</g>
<!-- Node5 -->
<g id="Node000005" class="node">
<title>Node5</title>
<g id="a_Node000005"><a xlink:href="class_cpl_1_1_container_1_1_d_list.html" target="_top" xlink:title=" ">
<polygon fill="white" stroke="#666666" points="483.5,-89.5 361.5,-89.5 361.5,-48.5 483.5,-48.5 483.5,-89.5"/>
<text text-anchor="start" x="369.5" y="-77.5" font-family="Helvetica,sans-Serif" font-size="10.00">Cpl::Container::DList</text>
<text text-anchor="start" x="369.5" y="-66.5" font-family="Helvetica,sans-Serif" font-size="10.00">&lt; Cpl::Memory::Pool_</text>
<text text-anchor="middle" x="422.5" y="-55.5" font-family="Helvetica,sans-Serif" font-size="10.00">::BlockInfo_ &gt;</text>
</a>
</g>
</g>
<!-- Node1&#45;&gt;Node5 -->
<g id="edge4_Node000001_Node000005" class="edge">
<title>Node1&#45;&gt;Node5</title>
<g id="a_edge4_Node000001_Node000005"><a xlink:title=" ">
<path fill="none" stroke="orange" stroke-dasharray="5,2" d="M106.3,-104.71C115.39,-101.74 124.9,-98.99 134,-97 211.41,-80.06 302.78,-73.37 361.39,-70.72"/>
<polygon fill="orange" stroke="orange" points="104.99,-101.46 96.65,-108 107.25,-108.09 104.99,-101.46"/>
</a>
</g>
<text text-anchor="start" x="170.5" y="-111" font-family="Helvetica,sans-Serif" font-size="10.00" fill="grey"> &lt; Cpl::Memory::Pool</text>
<text text-anchor="middle" x="222" y="-100" font-family="Helvetica,sans-Serif" font-size="10.00" fill="grey">_::BlockInfo_ &gt;</text>
</g>
<!-- Node6 -->
<g id="Node000006" class="node">
<title>Node6</title>
<g id="a_Node000006"><a xlink:href="class_cpl_1_1_container_1_1_d_list.html" target="_top" xlink:title=" ">
<polygon fill="white" stroke="#666666" points="517,-30 328,-30 328,0 517,0 517,-30"/>
<text text-anchor="start" x="336" y="-18" font-family="Helvetica,sans-Serif" font-size="10.00">Cpl::Container::DList</text>
<text text-anchor="middle" x="422.5" y="-7" font-family="Helvetica,sans-Serif" font-size="10.00">&lt; Cpl::System::CounterCallback_ &gt;</text>
</a>
</g>
</g>
<!-- Node1&#45;&gt;Node6 -->
<g id="edge5_Node000001_Node000006" class="edge">
<title>Node1&#45;&gt;Node6</title>
<g id="a_edge5_Node000001_Node000006"><a xlink:title=" ">
<path fill="none" stroke="orange" stroke-dasharray="5,2" d="M79.08,-100.33C93.03,-86.1 112.86,-68.68 134,-59 194.84,-31.16 269.72,-20.35 327.8,-16.4"/>
<polygon fill="orange" stroke="orange" points="76.31,-98.17 71.97,-107.84 81.39,-102.99 76.31,-98.17"/>
</a>
</g>
<text text-anchor="middle" x="222" y="-62" font-family="Helvetica,sans-Serif" font-size="10.00" fill="grey"> &lt; Cpl::System::CounterCallback_ &gt;</text>
</g>
</g>
</svg>
