<?xml version="1.0" encoding="UTF-8" standalone="no"?>
<!DOCTYPE svg PUBLIC "-//W3C//DTD SVG 1.1//EN"
 "http://www.w3.org/Graphics/SVG/1.1/DTD/svg11.dtd">
<!-- Generated by graphviz version 9.0.0 (20230911.1827)
 -->
<!-- Title: Cpl::Persistent::IndexRecord Pages: 1 -->
<svg width="388pt" height="150pt"
 viewBox="0.00 0.00 387.75 150.00" xmlns="http://www.w3.org/2000/svg" xmlns:xlink="http://www.w3.org/1999/xlink">
<g id="graph0" class="graph" transform="scale(1 1) rotate(0) translate(4 146)">
<title>Cpl::Persistent::IndexRecord</title>
<!-- Node1 -->
<g id="Node000001" class="node">
<title>Node1</title>
<g id="a_Node000001"><a xlink:title="This concrete class extends the Cpl::Persistent::DataRecord interface to store a latest/oldest &#39;recor...">
<polygon fill="#999999" stroke="#666666" points="259.88,-19.25 122.38,-19.25 122.38,0 259.88,0 259.88,-19.25"/>
<text text-anchor="middle" x="191.12" y="-5.75" font-family="Helvetica,sans-Serif" font-size="10.00">Cpl::Persistent::IndexRecord</text>
</a>
</g>
</g>
<!-- Node2 -->
<g id="Node000002" class="node">
<title>Node2</title>
<g id="a_Node000002"><a xlink:href="class_cpl_1_1_persistent_1_1_data_record.html" target="_top" xlink:title="This mostly concrete class implements the Cpl::Persistent::DataRecord interface where a DataRecord in...">
<polygon fill="white" stroke="#666666" points="258.38,-75.5 123.88,-75.5 123.88,-56.25 258.38,-56.25 258.38,-75.5"/>
<text text-anchor="middle" x="191.12" y="-62" font-family="Helvetica,sans-Serif" font-size="10.00">Cpl::Persistent::DataRecord</text>
</a>
</g>
</g>
<!-- Node2&#45;&gt;Node1 -->
<g id="edge1_Node000001_Node000002" class="edge">
<title>Node2&#45;&gt;Node1</title>
<g id="a_edge1_Node000001_Node000002"><a xlink:title=" ">
<path fill="none" stroke="#63b8ff" d="M191.12,-44.69C191.12,-35.98 191.12,-26.24 191.12,-19.42"/>
<polygon fill="#63b8ff" stroke="#63b8ff" points="187.63,-44.4 191.13,-54.4 194.63,-44.4 187.63,-44.4"/>
</a>
</g>
</g>
<!-- Node3 -->
<g id="Node000003" class="node">
<title>Node3</title>
<g id="a_Node000003"><a xlink:href="class_cpl_1_1_persistent_1_1_record.html" target="_top" xlink:title="This abstract class defines the public interface for a Record instance.">
<polygon fill="white" stroke="#666666" points="114.25,-142 0,-142 0,-122.75 114.25,-122.75 114.25,-142"/>
<text text-anchor="middle" x="57.12" y="-128.5" font-family="Helvetica,sans-Serif" font-size="10.00">Cpl::Persistent::Record</text>
</a>
</g>
</g>
<!-- Node3&#45;&gt;Node2 -->
<g id="edge2_Node000002_Node000003" class="edge">
<title>Node3&#45;&gt;Node2</title>
<g id="a_edge2_Node000002_Node000003"><a xlink:title=" ">
<path fill="none" stroke="#63b8ff" d="M86.11,-117.42C112.25,-104.84 149.9,-86.72 172.31,-75.93"/>
<polygon fill="#63b8ff" stroke="#63b8ff" points="84.9,-114.12 77.4,-121.61 87.93,-120.43 84.9,-114.12"/>
</a>
</g>
</g>
<!-- Node4 -->
<g id="Node000004" class="node">
<title>Node4</title>
<g id="a_Node000004"><a xlink:href="class_cpl_1_1_persistent_1_1_payload.html" target="_top" xlink:title="This abstract class defines the interface accessing the &#39;data payload&#39; of an individual Record instan...">
<polygon fill="white" stroke="#666666" points="250.12,-142 132.12,-142 132.12,-122.75 250.12,-122.75 250.12,-142"/>
<text text-anchor="middle" x="191.12" y="-128.5" font-family="Helvetica,sans-Serif" font-size="10.00">Cpl::Persistent::Payload</text>
</a>
</g>
</g>
<!-- Node4&#45;&gt;Node2 -->
<g id="edge3_Node000002_Node000004" class="edge">
<title>Node4&#45;&gt;Node2</title>
<g id="a_edge3_Node000002_Node000004"><a xlink:title=" ">
<path fill="none" stroke="#63b8ff" d="M191.12,-110.9C191.12,-99.07 191.12,-84.79 191.12,-75.77"/>
<polygon fill="#63b8ff" stroke="#63b8ff" points="187.63,-110.89 191.13,-120.89 194.63,-110.89 187.63,-110.89"/>
</a>
</g>
</g>
<!-- Node5 -->
<g id="Node000005" class="node">
<title>Node5</title>
<g id="a_Node000005"><a xlink:href="class_cpl_1_1_persistent_1_1_chunk.html" target="_top" xlink:title="This abstract class defines the interface for a Chunk.">
<polygon fill="white" stroke="#666666" points="379.75,-142 268.5,-142 268.5,-122.75 379.75,-122.75 379.75,-142"/>
<text text-anchor="middle" x="324.12" y="-128.5" font-family="Helvetica,sans-Serif" font-size="10.00">Cpl::Persistent::Chunk</text>
</a>
</g>
</g>
<!-- Node5&#45;&gt;Node2 -->
<g id="edge4_Node000002_Node000005" class="edge">
<title>Node5&#45;&gt;Node2</title>
<g id="a_edge4_Node000002_Node000005"><a xlink:title=" ">
<path fill="none" stroke="#9a32cd" stroke-dasharray="5,2" d="M295.01,-117.25C269.08,-104.68 231.94,-86.67 209.8,-75.93"/>
<polygon fill="#9a32cd" stroke="#9a32cd" points="293.46,-120.4 303.99,-121.61 296.52,-114.1 293.46,-120.4"/>
</a>
</g>
<text text-anchor="middle" x="303" y="-95.25" font-family="Helvetica,sans-Serif" font-size="10.00" fill="grey"> m_chunkHandler</text>
</g>
</g>
</svg>
