<?xml version="1.0" encoding="UTF-8" standalone="no"?>
<!DOCTYPE svg PUBLIC "-//W3C//DTD SVG 1.1//EN"
 "http://www.w3.org/Graphics/SVG/1.1/DTD/svg11.dtd">
<!-- Generated by graphviz version 9.0.0 (20230911.1827)
 -->
<!-- Title: Ajax::ScreenMgr::MockStaticScreen Pages: 1 -->
<svg width="316pt" height="116pt"
 viewBox="0.00 0.00 316.00 116.25" xmlns="http://www.w3.org/2000/svg" xmlns:xlink="http://www.w3.org/1999/xlink">
<g id="graph0" class="graph" transform="scale(1 1) rotate(0) translate(4 112.25)">
<title>Ajax::ScreenMgr::MockStaticScreen</title>
<!-- Node1 -->
<g id="Node000001" class="node">
<title>Node1</title>
<g id="a_Node000001"><a xlink:title="This class implements a &#39;Mock&#39; StaticScreenApi instances.">
<polygon fill="#999999" stroke="#666666" points="232,-30.5 91.5,-30.5 91.5,0 232,0 232,-30.5"/>
<text text-anchor="start" x="99.5" y="-17" font-family="Helvetica,sans-Serif" font-size="10.00">Ajax::ScreenMgr::MockStatic</text>
<text text-anchor="middle" x="161.75" y="-5.75" font-family="Helvetica,sans-Serif" font-size="10.00">Screen</text>
</a>
</g>
</g>
<!-- Node2 -->
<g id="Node000002" class="node">
<title>Node2</title>
<g id="a_Node000002"><a xlink:href="class_ajax_1_1_screen_mgr_1_1_static_screen_api.html" target="_top" xlink:title="This class defines interface for Screens that only contain static data.">
<polygon fill="white" stroke="#666666" points="161.5,-102.62 0,-102.62 0,-83.38 161.5,-83.38 161.5,-102.62"/>
<text text-anchor="middle" x="80.75" y="-89.12" font-family="Helvetica,sans-Serif" font-size="10.00">Ajax::ScreenMgr::StaticScreenApi</text>
</a>
</g>
</g>
<!-- Node2&#45;&gt;Node1 -->
<g id="edge1_Node000001_Node000002" class="edge">
<title>Node2&#45;&gt;Node1</title>
<g id="a_edge1_Node000001_Node000002"><a xlink:title=" ">
<path fill="none" stroke="#63b8ff" d="M98.38,-75.51C112.58,-62.23 132.37,-43.72 146.04,-30.94"/>
<polygon fill="#63b8ff" stroke="#63b8ff" points="96.38,-72.59 91.47,-81.98 101.16,-77.71 96.38,-72.59"/>
</a>
</g>
</g>
<!-- Node3 -->
<g id="Node000003" class="node">
<title>Node3</title>
<g id="a_Node000003"><a xlink:href="struct_cpl_1_1_system_1_1_elapsed_time_1_1_precision___t.html" target="_top" xlink:title="Data type for time in seconds with a &#39;fractional&#39; millisecond precision.">
<polygon fill="white" stroke="#666666" points="308,-108.25 179.5,-108.25 179.5,-77.75 308,-77.75 308,-108.25"/>
<text text-anchor="start" x="187.5" y="-94.75" font-family="Helvetica,sans-Serif" font-size="10.00">Cpl::System::ElapsedTime</text>
<text text-anchor="middle" x="243.75" y="-83.5" font-family="Helvetica,sans-Serif" font-size="10.00">::Precision_T</text>
</a>
</g>
</g>
<!-- Node3&#45;&gt;Node1 -->
<g id="edge2_Node000001_Node000003" class="edge">
<title>Node3&#45;&gt;Node1</title>
<g id="a_edge2_Node000001_Node000003"><a xlink:title=" ">
<path fill="none" stroke="#9a32cd" stroke-dasharray="5,2" d="M219.53,-69.62C205.95,-57.08 189.41,-41.8 177.51,-30.81"/>
<polygon fill="#9a32cd" stroke="#9a32cd" points="217.11,-72.15 226.83,-76.37 221.86,-67.01 217.11,-72.15"/>
</a>
</g>
<text text-anchor="middle" x="248.62" y="-50.25" font-family="Helvetica,sans-Serif" font-size="10.00" fill="grey"> m_lastTimeStamp</text>
</g>
</g>
</svg>
