<?xml version="1.0" encoding="UTF-8" standalone="no"?>
<!DOCTYPE svg PUBLIC "-//W3C//DTD SVG 1.1//EN"
 "http://www.w3.org/Graphics/SVG/1.1/DTD/svg11.dtd">
<!-- Generated by graphviz version 2.43.0 (0)
 -->
<!-- Title: Cpl::Dm::Mp::Pointer_&lt; MPTYPE &gt; Pages: 1 -->
<svg width="1566pt" height="134pt"
 viewBox="0.00 0.00 1566.00 134.00" xmlns="http://www.w3.org/2000/svg" xmlns:xlink="http://www.w3.org/1999/xlink">
<g id="graph0" class="graph" transform="scale(1 1) rotate(0) translate(4 130)">
<title>Cpl::Dm::Mp::Pointer_&lt; MPTYPE &gt;</title>
<!-- Node1 -->
<g id="Node000001" class="node">
<title>Node1</title>
<g id="a_Node000001"><a xlink:title="This template class extends the implementation of Numeric&lt;&gt; class to support the pointers instead of ...">
<polygon fill="#999999" stroke="#666666" points="1055,-78 938,-78 938,-48 1055,-48 1055,-78"/>
<text text-anchor="start" x="946" y="-66" font-family="Helvetica,sans-Serif" font-size="10.00">Cpl::Dm::Mp::Pointer</text>
<text text-anchor="middle" x="996.5" y="-55" font-family="Helvetica,sans-Serif" font-size="10.00">_&lt; MPTYPE &gt;</text>
</a>
</g>
</g>
<!-- Node7 -->
<g id="Node000007" class="node">
<title>Node7</title>
<g id="a_Node000007"><a xlink:href="class_cpl_1_1_dm_1_1_mp_1_1_pointer__.html" target="_top" xlink:title=" ">
<polygon fill="white" stroke="#666666" points="1357.5,-126 1235.5,-126 1235.5,-96 1357.5,-96 1357.5,-126"/>
<text text-anchor="start" x="1243.5" y="-114" font-family="Helvetica,sans-Serif" font-size="10.00">Cpl::Dm::Mp::Pointer</text>
<text text-anchor="middle" x="1296.5" y="-103" font-family="Helvetica,sans-Serif" font-size="10.00">_&lt; MpScreenApiPtr &gt;</text>
</a>
</g>
</g>
<!-- Node1&#45;&gt;Node7 -->
<g id="edge7_Node000001_Node000007" class="edge">
<title>Node1&#45;&gt;Node7</title>
<g id="a_edge7_Node000001_Node000007"><a xlink:title=" ">
<path fill="none" stroke="orange" stroke-dasharray="5,2" d="M1065,-76.58C1067.7,-77.07 1070.37,-77.54 1073,-78 1127.83,-87.51 1190.56,-96.65 1235.41,-102.9"/>
<polygon fill="orange" stroke="orange" points="1065.63,-73.14 1055.16,-74.76 1064.35,-80.02 1065.63,-73.14"/>
</a>
</g>
<text text-anchor="middle" x="1138.5" y="-100" font-family="Helvetica,sans-Serif" font-size="10.00" fill="grey"> &lt; MpScreenApiPtr &gt;</text>
</g>
<!-- Node9 -->
<g id="Node000009" class="node">
<title>Node9</title>
<g id="a_Node000009"><a xlink:href="class_cpl_1_1_dm_1_1_mp_1_1_pointer__.html" target="_top" xlink:title=" ">
<polygon fill="white" stroke="#666666" points="1371,-78 1222,-78 1222,-48 1371,-48 1371,-78"/>
<text text-anchor="start" x="1230" y="-66" font-family="Helvetica,sans-Serif" font-size="10.00">Cpl::Dm::Mp::Pointer</text>
<text text-anchor="middle" x="1296.5" y="-55" font-family="Helvetica,sans-Serif" font-size="10.00">_&lt; MpStaticScreenApiPtr &gt;</text>
</a>
</g>
</g>
<!-- Node1&#45;&gt;Node9 -->
<g id="edge9_Node000001_Node000009" class="edge">
<title>Node1&#45;&gt;Node9</title>
<g id="a_edge9_Node000001_Node000009"><a xlink:title=" ">
<path fill="none" stroke="orange" stroke-dasharray="5,2" d="M1065.34,-63C1112.05,-63 1174.09,-63 1221.99,-63"/>
<polygon fill="orange" stroke="orange" points="1065.31,-59.5 1055.31,-63 1065.31,-66.5 1065.31,-59.5"/>
</a>
</g>
<text text-anchor="middle" x="1138.5" y="-66" font-family="Helvetica,sans-Serif" font-size="10.00" fill="grey"> &lt; MpStaticScreenApiPtr &gt;</text>
</g>
<!-- Node11 -->
<g id="Node000011" class="node">
<title>Node11</title>
<g id="a_Node000011"><a xlink:href="class_cpl_1_1_dm_1_1_mp_1_1_pointer__.html" target="_top" xlink:title=" ">
<polygon fill="white" stroke="#666666" points="1355,-30 1238,-30 1238,0 1355,0 1355,-30"/>
<text text-anchor="start" x="1246" y="-18" font-family="Helvetica,sans-Serif" font-size="10.00">Cpl::Dm::Mp::Pointer</text>
<text text-anchor="middle" x="1296.5" y="-7" font-family="Helvetica,sans-Serif" font-size="10.00">_&lt; Void &gt;</text>
</a>
</g>
</g>
<!-- Node1&#45;&gt;Node11 -->
<g id="edge11_Node000001_Node000011" class="edge">
<title>Node1&#45;&gt;Node11</title>
<g id="a_edge11_Node000001_Node000011"><a xlink:title=" ">
<path fill="none" stroke="orange" stroke-dasharray="5,2" d="M1065,-49.42C1067.7,-48.93 1070.37,-48.46 1073,-48 1128.79,-38.33 1192.76,-29.02 1237.75,-22.78"/>
<polygon fill="orange" stroke="orange" points="1064.35,-45.98 1055.16,-51.24 1065.63,-52.86 1064.35,-45.98"/>
</a>
</g>
<text text-anchor="middle" x="1138.5" y="-51" font-family="Helvetica,sans-Serif" font-size="10.00" fill="grey"> &lt; Void &gt;</text>
</g>
<!-- Node2 -->
<g id="Node000002" class="node">
<title>Node2</title>
<g id="a_Node000002"><a xlink:href="class_cpl_1_1_dm_1_1_mp_1_1_numeric.html" target="_top" xlink:title=" ">
<polygon fill="white" stroke="#666666" points="901,-78 777,-78 777,-48 901,-48 901,-78"/>
<text text-anchor="start" x="785" y="-66" font-family="Helvetica,sans-Serif" font-size="10.00">Cpl::Dm::Mp::Numeric</text>
<text text-anchor="middle" x="839" y="-55" font-family="Helvetica,sans-Serif" font-size="10.00">&lt; size_t, MPTYPE &gt;</text>
</a>
</g>
</g>
<!-- Node2&#45;&gt;Node1 -->
<g id="edge1_Node000001_Node000002" class="edge">
<title>Node2&#45;&gt;Node1</title>
<g id="a_edge1_Node000001_Node000002"><a xlink:title=" ">
<path fill="none" stroke="#63b8ff" d="M911.1,-63C920.09,-63 929.21,-63 937.97,-63"/>
<polygon fill="#63b8ff" stroke="#63b8ff" points="911.01,-59.5 901.01,-63 911.01,-66.5 911.01,-59.5"/>
</a>
</g>
</g>
<!-- Node3 -->
<g id="Node000003" class="node">
<title>Node3</title>
<g id="a_Node000003"><a xlink:href="class_cpl_1_1_dm_1_1_model_point_common__.html" target="_top" xlink:title="This concrete class provide common infrastructure for a Model Point.">
<polygon fill="white" stroke="#666666" points="470,-71.5 304,-71.5 304,-52.5 470,-52.5 470,-71.5"/>
<text text-anchor="middle" x="387" y="-59.5" font-family="Helvetica,sans-Serif" font-size="10.00">Cpl::Dm::ModelPointCommon_</text>
</a>
</g>
</g>
<!-- Node3&#45;&gt;Node2 -->
<g id="edge2_Node000002_Node000003" class="edge">
<title>Node3&#45;&gt;Node2</title>
<g id="a_edge2_Node000002_Node000003"><a xlink:title=" ">
<path fill="none" stroke="#63b8ff" d="M480.27,-64.77C482.87,-64.85 485.46,-64.92 488,-65 608.41,-68.57 638.65,-75.32 759,-70 764.78,-69.74 770.79,-69.38 776.79,-68.96"/>
<polygon fill="#63b8ff" stroke="#63b8ff" points="480.23,-61.27 470.13,-64.47 480.02,-68.26 480.23,-61.27"/>
</a>
</g>
</g>
<!-- Node6 -->
<g id="Node000006" class="node">
<title>Node6</title>
<g id="a_Node000006"><a xlink:href="class_cpl_1_1_dm_1_1_mp_1_1_numeric.html" target="_top" xlink:title="This template class provides a mostly concrete implementation for a Model Point who&#39;s data is a C num...">
<polygon fill="white" stroke="#666666" points="641,-56 507,-56 507,-26 641,-26 641,-56"/>
<text text-anchor="start" x="515" y="-44" font-family="Helvetica,sans-Serif" font-size="10.00">Cpl::Dm::Mp::Numeric</text>
<text text-anchor="middle" x="574" y="-33" font-family="Helvetica,sans-Serif" font-size="10.00">&lt; ELEMTYPE, MPTYPE &gt;</text>
</a>
</g>
</g>
<!-- Node3&#45;&gt;Node6 -->
<g id="edge6_Node000006_Node000003" class="edge">
<title>Node3&#45;&gt;Node6</title>
<g id="a_edge6_Node000006_Node000003"><a xlink:title=" ">
<path fill="none" stroke="#63b8ff" d="M480.31,-51.52C489.27,-50.51 498.22,-49.49 506.84,-48.51"/>
<polygon fill="#63b8ff" stroke="#63b8ff" points="479.76,-48.06 470.22,-52.67 480.55,-55.02 479.76,-48.06"/>
</a>
</g>
</g>
<!-- Node4 -->
<g id="Node000004" class="node">
<title>Node4</title>
<g id="a_Node000004"><a xlink:href="class_cpl_1_1_dm_1_1_model_point.html" target="_top" xlink:title="This mostly abstract class defines the interface for a Model Point.">
<polygon fill="white" stroke="#666666" points="267,-71.5 151,-71.5 151,-52.5 267,-52.5 267,-71.5"/>
<text text-anchor="middle" x="209" y="-59.5" font-family="Helvetica,sans-Serif" font-size="10.00">Cpl::Dm::ModelPoint</text>
</a>
</g>
</g>
<!-- Node4&#45;&gt;Node3 -->
<g id="edge3_Node000003_Node000004" class="edge">
<title>Node4&#45;&gt;Node3</title>
<g id="a_edge3_Node000003_Node000004"><a xlink:title=" ">
<path fill="none" stroke="#63b8ff" d="M277.23,-62C285.95,-62 294.96,-62 303.89,-62"/>
<polygon fill="#63b8ff" stroke="#63b8ff" points="277.14,-58.5 267.14,-62 277.14,-65.5 277.14,-58.5"/>
</a>
</g>
</g>
<!-- Node5 -->
<g id="Node000005" class="node">
<title>Node5</title>
<g id="a_Node000005"><a xlink:href="class_cpl_1_1_container_1_1_item.html" target="_top" xlink:title="This class is used by the Container classes to implement a various types of singly linked containers.">
<polygon fill="white" stroke="#666666" points="114,-71.5 0,-71.5 0,-52.5 114,-52.5 114,-71.5"/>
<text text-anchor="middle" x="57" y="-59.5" font-family="Helvetica,sans-Serif" font-size="10.00">Cpl::Container::Item</text>
</a>
</g>
</g>
<!-- Node5&#45;&gt;Node4 -->
<g id="edge4_Node000004_Node000005" class="edge">
<title>Node5&#45;&gt;Node4</title>
<g id="a_edge4_Node000004_Node000005"><a xlink:title=" ">
<path fill="none" stroke="#63b8ff" d="M124.51,-62C133.32,-62 142.28,-62 150.9,-62"/>
<polygon fill="#63b8ff" stroke="#63b8ff" points="124.28,-58.5 114.28,-62 124.28,-65.5 124.28,-58.5"/>
</a>
</g>
</g>
<!-- Node6&#45;&gt;Node2 -->
<g id="edge5_Node000002_Node000006" class="edge">
<title>Node6&#45;&gt;Node2</title>
<g id="a_edge5_Node000002_Node000006"><a xlink:title=" ">
<path fill="none" stroke="orange" stroke-dasharray="5,2" d="M651,-47.36C691,-50.7 739.38,-54.75 776.91,-57.89"/>
<polygon fill="orange" stroke="orange" points="651.28,-43.87 641.03,-46.52 650.7,-50.84 651.28,-43.87"/>
</a>
</g>
<text text-anchor="middle" x="709" y="-59" font-family="Helvetica,sans-Serif" font-size="10.00" fill="grey"> &lt; size_t, MPTYPE &gt;</text>
</g>
<!-- Node8 -->
<g id="Node000008" class="node">
<title>Node8</title>
<g id="a_Node000008"><a xlink:href="class_ajax_1_1_screen_mgr_1_1_mp_screen_api_ptr.html" target="_top" xlink:title="This class provides a concrete implementation for a Point who&#39;s data is a ScreenApi pointer.">
<polygon fill="white" stroke="#666666" points="1558,-126 1408,-126 1408,-96 1558,-96 1558,-126"/>
<text text-anchor="start" x="1416" y="-114" font-family="Helvetica,sans-Serif" font-size="10.00">Ajax::ScreenMgr::MpScreen</text>
<text text-anchor="middle" x="1483" y="-103" font-family="Helvetica,sans-Serif" font-size="10.00">ApiPtr</text>
</a>
</g>
</g>
<!-- Node7&#45;&gt;Node8 -->
<g id="edge8_Node000007_Node000008" class="edge">
<title>Node7&#45;&gt;Node8</title>
<g id="a_edge8_Node000007_Node000008"><a xlink:title=" ">
<path fill="none" stroke="#63b8ff" d="M1367.95,-111C1380.97,-111 1394.6,-111 1407.73,-111"/>
<polygon fill="#63b8ff" stroke="#63b8ff" points="1367.66,-107.5 1357.66,-111 1367.66,-114.5 1367.66,-107.5"/>
</a>
</g>
</g>
<!-- Node10 -->
<g id="Node000010" class="node">
<title>Node10</title>
<g id="a_Node000010"><a xlink:href="class_ajax_1_1_screen_mgr_1_1_mp_static_screen_api_ptr.html" target="_top" xlink:title="This class provides a concrete implementation for a Point who&#39;s data is a StaticScreenApi pointer.">
<polygon fill="white" stroke="#666666" points="1555.5,-78 1410.5,-78 1410.5,-48 1555.5,-48 1555.5,-78"/>
<text text-anchor="start" x="1418.5" y="-66" font-family="Helvetica,sans-Serif" font-size="10.00">Ajax::ScreenMgr::MpStatic</text>
<text text-anchor="middle" x="1483" y="-55" font-family="Helvetica,sans-Serif" font-size="10.00">ScreenApiPtr</text>
</a>
</g>
</g>
<!-- Node9&#45;&gt;Node10 -->
<g id="edge10_Node000009_Node000010" class="edge">
<title>Node9&#45;&gt;Node10</title>
<g id="a_edge10_Node000009_Node000010"><a xlink:title=" ">
<path fill="none" stroke="#63b8ff" d="M1381.23,-63C1390.91,-63 1400.71,-63 1410.21,-63"/>
<polygon fill="#63b8ff" stroke="#63b8ff" points="1381.21,-59.5 1371.21,-63 1381.21,-66.5 1381.21,-59.5"/>
</a>
</g>
</g>
<!-- Node12 -->
<g id="Node000012" class="node">
<title>Node12</title>
<g id="a_Node000012"><a xlink:href="class_cpl_1_1_dm_1_1_mp_1_1_void.html" target="_top" xlink:title="This class provides a concrete implementation for a Point who&#39;s data is a void pointer.">
<polygon fill="white" stroke="#666666" points="1535,-24.5 1431,-24.5 1431,-5.5 1535,-5.5 1535,-24.5"/>
<text text-anchor="middle" x="1483" y="-12.5" font-family="Helvetica,sans-Serif" font-size="10.00">Cpl::Dm::Mp::Void</text>
</a>
</g>
</g>
<!-- Node11&#45;&gt;Node12 -->
<g id="edge12_Node000011_Node000012" class="edge">
<title>Node11&#45;&gt;Node12</title>
<g id="a_edge12_Node000011_Node000012"><a xlink:title=" ">
<path fill="none" stroke="#63b8ff" d="M1365.24,-15C1386.89,-15 1410.48,-15 1430.75,-15"/>
<polygon fill="#63b8ff" stroke="#63b8ff" points="1365.12,-11.5 1355.12,-15 1365.12,-18.5 1365.12,-11.5"/>
</a>
</g>
</g>
</g>
</svg>
