<?xml version="1.0" encoding="UTF-8" standalone="no"?>
<!DOCTYPE svg PUBLIC "-//W3C//DTD SVG 1.1//EN"
 "http://www.w3.org/Graphics/SVG/1.1/DTD/svg11.dtd">
<!-- Generated by graphviz version 2.43.0 (0)
 -->
<!-- Title: Ajax::ScreenMgr::MockStaticScreen Pages: 1 -->
<svg width="350pt" height="115pt"
 viewBox="0.00 0.00 349.50 115.00" xmlns="http://www.w3.org/2000/svg" xmlns:xlink="http://www.w3.org/1999/xlink">
<g id="graph0" class="graph" transform="scale(1 1) rotate(0) translate(4 111)">
<title>Ajax::ScreenMgr::MockStaticScreen</title>
<!-- Node1 -->
<g id="Node000001" class="node">
<title>Node1</title>
<g id="a_Node000001"><a xlink:title="This class implements a &#39;Mock&#39; StaticScreenApi instances.">
<polygon fill="#999999" stroke="#666666" points="257.5,-30 101.5,-30 101.5,0 257.5,0 257.5,-30"/>
<text text-anchor="start" x="109.5" y="-18" font-family="Helvetica,sans-Serif" font-size="10.00">Ajax::ScreenMgr::MockStatic</text>
<text text-anchor="middle" x="179.5" y="-7" font-family="Helvetica,sans-Serif" font-size="10.00">Screen</text>
</a>
</g>
</g>
<!-- Node2 -->
<g id="Node000002" class="node">
<title>Node2</title>
<g id="a_Node000002"><a xlink:href="class_ajax_1_1_screen_mgr_1_1_static_screen_api.html" target="_top" xlink:title="This class defines interface for Screens that only contain static data.">
<polygon fill="white" stroke="#666666" points="179,-101.5 0,-101.5 0,-82.5 179,-82.5 179,-101.5"/>
<text text-anchor="middle" x="89.5" y="-89.5" font-family="Helvetica,sans-Serif" font-size="10.00">Ajax::ScreenMgr::StaticScreenApi</text>
</a>
</g>
</g>
<!-- Node2&#45;&gt;Node1 -->
<g id="edge1_Node000001_Node000002" class="edge">
<title>Node2&#45;&gt;Node1</title>
<g id="a_edge1_Node000001_Node000002"><a xlink:title=" ">
<path fill="none" stroke="#63b8ff" d="M107.92,-75.65C123.94,-62.3 146.99,-43.09 162.57,-30.11"/>
<polygon fill="#63b8ff" stroke="#63b8ff" points="105.27,-73.31 99.82,-82.4 109.75,-78.68 105.27,-73.31"/>
</a>
</g>
</g>
<!-- Node3 -->
<g id="Node000003" class="node">
<title>Node3</title>
<g id="a_Node000003"><a xlink:href="struct_cpl_1_1_system_1_1_elapsed_time_1_1_precision___t.html" target="_top" xlink:title="Data type for time in seconds with a &#39;fractional&#39; millisecond precision.">
<polygon fill="white" stroke="#666666" points="341.5,-107 197.5,-107 197.5,-77 341.5,-77 341.5,-107"/>
<text text-anchor="start" x="205.5" y="-95" font-family="Helvetica,sans-Serif" font-size="10.00">Cpl::System::ElapsedTime</text>
<text text-anchor="middle" x="269.5" y="-84" font-family="Helvetica,sans-Serif" font-size="10.00">::Precision_T</text>
</a>
</g>
</g>
<!-- Node3&#45;&gt;Node1 -->
<g id="edge2_Node000001_Node000003" class="edge">
<title>Node3&#45;&gt;Node1</title>
<g id="a_edge2_Node000001_Node000003"><a xlink:title=" ">
<path fill="none" stroke="#9a32cd" stroke-dasharray="5,2" d="M244.51,-70.17C229.16,-57.38 209.91,-41.34 196.35,-30.04"/>
<polygon fill="#9a32cd" stroke="#9a32cd" points="242.65,-73.18 252.57,-76.89 247.13,-67.8 242.65,-73.18"/>
</a>
</g>
<text text-anchor="middle" x="277" y="-51" font-family="Helvetica,sans-Serif" font-size="10.00" fill="grey"> m_lastTimeStamp</text>
</g>
</g>
</svg>
