<?xml version="1.0" encoding="UTF-8" standalone="no"?>
<!DOCTYPE svg PUBLIC "-//W3C//DTD SVG 1.1//EN"
 "http://www.w3.org/Graphics/SVG/1.1/DTD/svg11.dtd">
<!-- Generated by graphviz version 9.0.0 (20230911.1827)
 -->
<!-- Title: Cpl::Itc::OpenSync Pages: 1 -->
<svg width="327pt" height="94pt"
 viewBox="0.00 0.00 326.50 93.75" xmlns="http://www.w3.org/2000/svg" xmlns:xlink="http://www.w3.org/1999/xlink">
<g id="graph0" class="graph" transform="scale(1 1) rotate(0) translate(4 89.75)">
<title>Cpl::Itc::OpenSync</title>
<!-- Node1 -->
<g id="Node000001" class="node">
<title>Node1</title>
<g id="a_Node000001"><a xlink:title="This partially concrete class implements the synchronous ITC open call for the OpenApi.">
<polygon fill="#999999" stroke="#666666" points="208.75,-19.25 113.25,-19.25 113.25,0 208.75,0 208.75,-19.25"/>
<text text-anchor="middle" x="161" y="-5.75" font-family="Helvetica,sans-Serif" font-size="10.00">Cpl::Itc::OpenSync</text>
</a>
</g>
</g>
<!-- Node2 -->
<g id="Node000002" class="node">
<title>Node2</title>
<g id="a_Node000002"><a xlink:href="class_cpl_1_1_itc_1_1_open_api.html" target="_top" xlink:title="This abstract class defines an open interface.">
<polygon fill="white" stroke="#666666" points="88,-85.75 0,-85.75 0,-66.5 88,-66.5 88,-85.75"/>
<text text-anchor="middle" x="44" y="-72.25" font-family="Helvetica,sans-Serif" font-size="10.00">Cpl::Itc::OpenApi</text>
</a>
</g>
</g>
<!-- Node2&#45;&gt;Node1 -->
<g id="edge1_Node000001_Node000002" class="edge">
<title>Node2&#45;&gt;Node1</title>
<g id="a_edge1_Node000001_Node000002"><a xlink:title=" ">
<path fill="none" stroke="#63b8ff" d="M70.54,-60.5C93.29,-47.95 125.36,-30.27 144.57,-19.68"/>
<polygon fill="#63b8ff" stroke="#63b8ff" points="68.91,-57.4 61.84,-65.29 72.29,-63.53 68.91,-57.4"/>
</a>
</g>
</g>
<!-- Node3 -->
<g id="Node000003" class="node">
<title>Node3</title>
<g id="a_Node000003"><a xlink:href="class_cpl_1_1_itc_1_1_open_request.html" target="_top" xlink:title="This abstract class define message types and payloads for a set of ITC services.">
<polygon fill="white" stroke="#666666" points="215.88,-85.75 106.12,-85.75 106.12,-66.5 215.88,-66.5 215.88,-85.75"/>
<text text-anchor="middle" x="161" y="-72.25" font-family="Helvetica,sans-Serif" font-size="10.00">Cpl::Itc::OpenRequest</text>
</a>
</g>
</g>
<!-- Node3&#45;&gt;Node1 -->
<g id="edge2_Node000001_Node000003" class="edge">
<title>Node3&#45;&gt;Node1</title>
<g id="a_edge2_Node000001_Node000003"><a xlink:title=" ">
<path fill="none" stroke="#63b8ff" d="M161,-54.65C161,-42.82 161,-28.54 161,-19.52"/>
<polygon fill="#63b8ff" stroke="#63b8ff" points="157.5,-54.64 161,-64.64 164.5,-54.64 157.5,-54.64"/>
</a>
</g>
</g>
<!-- Node4 -->
<g id="Node000004" class="node">
<title>Node4</title>
<g id="a_Node000004"><a xlink:href="class_cpl_1_1_itc_1_1_post_api.html" target="_top" xlink:title="This abstract class represents the interface used to send messages to a mailbox.">
<polygon fill="white" stroke="#666666" points="318.5,-85.75 233.5,-85.75 233.5,-66.5 318.5,-66.5 318.5,-85.75"/>
<text text-anchor="middle" x="276" y="-72.25" font-family="Helvetica,sans-Serif" font-size="10.00">Cpl::Itc::PostApi</text>
</a>
</g>
</g>
<!-- Node4&#45;&gt;Node1 -->
<g id="edge3_Node000001_Node000004" class="edge">
<title>Node4&#45;&gt;Node1</title>
<g id="a_edge3_Node000001_Node000004"><a xlink:title=" ">
<path fill="none" stroke="#9a32cd" stroke-dasharray="5,2" d="M250.18,-60.64C227.82,-48.1 196.19,-30.36 177.23,-19.73"/>
<polygon fill="#9a32cd" stroke="#9a32cd" points="248.26,-63.58 258.69,-65.42 251.68,-57.47 248.26,-63.58"/>
</a>
</g>
<text text-anchor="middle" x="244.5" y="-39" font-family="Helvetica,sans-Serif" font-size="10.00" fill="grey"> m_mbox</text>
</g>
</g>
</svg>
