<?xml version="1.0" encoding="UTF-8" standalone="no"?>
<!DOCTYPE svg PUBLIC "-//W3C//DTD SVG 1.1//EN"
 "http://www.w3.org/Graphics/SVG/1.1/DTD/svg11.dtd">
<!-- Generated by graphviz version 9.0.0 (20230911.1827)
 -->
<!-- Title: Cpl::Itc::SAP&lt; SERVER &gt; Pages: 1 -->
<svg width="134pt" height="94pt"
 viewBox="0.00 0.00 134.25 93.75" xmlns="http://www.w3.org/2000/svg" xmlns:xlink="http://www.w3.org/1999/xlink">
<g id="graph0" class="graph" transform="scale(1 1) rotate(0) translate(4 89.75)">
<title>Cpl::Itc::SAP&lt; SERVER &gt;</title>
<!-- Node1 -->
<g id="Node000001" class="node">
<title>Node1</title>
<g id="a_Node000001"><a xlink:title="This concrete template class represents the interface to a ITC Service Access Point (SAP).">
<polygon fill="#999999" stroke="#666666" points="126.25,-19.25 0,-19.25 0,0 126.25,0 126.25,-19.25"/>
<text text-anchor="middle" x="63.12" y="-5.75" font-family="Helvetica,sans-Serif" font-size="10.00">Cpl::Itc::SAP&lt; SERVER &gt;</text>
</a>
</g>
</g>
<!-- Node2 -->
<g id="Node000002" class="node">
<title>Node2</title>
<g id="a_Node000002"><a xlink:href="class_cpl_1_1_itc_1_1_post_api.html" target="_top" xlink:title="This abstract class represents the interface used to send messages to a mailbox.">
<polygon fill="white" stroke="#666666" points="105.62,-85.75 20.62,-85.75 20.62,-66.5 105.62,-66.5 105.62,-85.75"/>
<text text-anchor="middle" x="63.12" y="-72.25" font-family="Helvetica,sans-Serif" font-size="10.00">Cpl::Itc::PostApi</text>
</a>
</g>
</g>
<!-- Node2&#45;&gt;Node1 -->
<g id="edge1_Node000001_Node000002" class="edge">
<title>Node2&#45;&gt;Node1</title>
<g id="a_edge1_Node000001_Node000002"><a xlink:title=" ">
<path fill="none" stroke="#63b8ff" d="M61.38,-54.83C61.07,-49.14 60.91,-42.96 61.12,-37.25 61.35,-31.32 61.85,-24.66 62.29,-19.49"/>
<polygon fill="#63b8ff" stroke="#63b8ff" points="57.87,-54.87 62.08,-64.59 64.85,-54.36 57.87,-54.87"/>
</a>
</g>
</g>
<!-- Node2&#45;&gt;Node1 -->
<g id="edge2_Node000001_Node000002" class="edge">
<title>Node2&#45;&gt;Node1</title>
<g id="a_edge2_Node000001_Node000002"><a xlink:title=" ">
<path fill="none" stroke="#9a32cd" stroke-dasharray="5,2" d="M63.12,-54.65C63.12,-42.82 63.12,-28.54 63.12,-19.52"/>
<polygon fill="#9a32cd" stroke="#9a32cd" points="59.63,-54.64 63.13,-64.64 66.63,-54.64 59.63,-54.64"/>
</a>
</g>
<text text-anchor="middle" x="82.62" y="-39" font-family="Helvetica,sans-Serif" font-size="10.00" fill="grey"> m_mbox</text>
</g>
</g>
</svg>
