<?xml version="1.0" encoding="UTF-8" standalone="no"?>
<!DOCTYPE svg PUBLIC "-//W3C//DTD SVG 1.1//EN"
 "http://www.w3.org/Graphics/SVG/1.1/DTD/svg11.dtd">
<!-- Generated by graphviz version 2.43.0 (0)
 -->
<!-- Title: Ajax::Heating::Simulated::Cmd Pages: 1 -->
<svg width="2232pt" height="211pt"
 viewBox="0.00 0.00 2232.00 210.50" xmlns="http://www.w3.org/2000/svg" xmlns:xlink="http://www.w3.org/1999/xlink">
<g id="graph0" class="graph" transform="scale(1 1) rotate(0) translate(4 206.5)">
<title>Ajax::Heating::Simulated::Cmd</title>
<!-- Node1 -->
<g id="Node000001" class="node">
<title>Node1</title>
<g id="a_Node000001"><a xlink:title="This class implements a Shell command.">
<polygon fill="#999999" stroke="#666666" points="2224,-122.5 2057,-122.5 2057,-103.5 2224,-103.5 2224,-122.5"/>
<text text-anchor="middle" x="2140.5" y="-110.5" font-family="Helvetica,sans-Serif" font-size="10.00">Ajax::Heating::Simulated::Cmd</text>
</a>
</g>
</g>
<!-- Node2 -->
<g id="Node000002" class="node">
<title>Node2</title>
<g id="a_Node000002"><a xlink:href="class_cpl_1_1_t_shell_1_1_cmd_1_1_command.html" target="_top" xlink:title="This partially concrete class implements infrastructure and/or common functionality for a Shell comma...">
<polygon fill="white" stroke="#666666" points="1225,-202.5 1072,-202.5 1072,-183.5 1225,-183.5 1225,-202.5"/>
<text text-anchor="middle" x="1148.5" y="-190.5" font-family="Helvetica,sans-Serif" font-size="10.00">Cpl::TShell::Cmd::Command</text>
</a>
</g>
</g>
<!-- Node2&#45;&gt;Node1 -->
<g id="edge1_Node000001_Node000002" class="edge">
<title>Node2&#45;&gt;Node1</title>
<g id="a_edge1_Node000001_Node000002"><a xlink:title=" ">
<path fill="none" stroke="#63b8ff" d="M1235.11,-193C1294.34,-193 1374.96,-193 1446,-193 1446,-193 1446,-193 1828.5,-193 1940.28,-193 2067.74,-143.93 2117.75,-122.65"/>
<polygon fill="#63b8ff" stroke="#63b8ff" points="1235.06,-189.5 1225.06,-193 1235.06,-196.5 1235.06,-189.5"/>
</a>
</g>
</g>
<!-- Node3 -->
<g id="Node000003" class="node">
<title>Node3</title>
<g id="a_Node000003"><a xlink:href="class_cpl_1_1_t_shell_1_1_command.html" target="_top" xlink:title="This class defines the interface for a TShell command.">
<polygon fill="white" stroke="#666666" points="743,-202.5 618,-202.5 618,-183.5 743,-183.5 743,-202.5"/>
<text text-anchor="middle" x="680.5" y="-190.5" font-family="Helvetica,sans-Serif" font-size="10.00">Cpl::TShell::Command</text>
</a>
</g>
</g>
<!-- Node3&#45;&gt;Node2 -->
<g id="edge2_Node000002_Node000003" class="edge">
<title>Node3&#45;&gt;Node2</title>
<g id="a_edge2_Node000002_Node000003"><a xlink:title=" ">
<path fill="none" stroke="#63b8ff" d="M753.62,-193C839.97,-193 983.94,-193 1071.83,-193"/>
<polygon fill="#63b8ff" stroke="#63b8ff" points="753.38,-189.5 743.38,-193 753.38,-196.5 753.38,-189.5"/>
</a>
</g>
</g>
<!-- Node4 -->
<g id="Node000004" class="node">
<title>Node4</title>
<g id="a_Node000004"><a xlink:href="class_cpl_1_1_container_1_1_item.html" target="_top" xlink:title="This class is used by the Container classes to implement a various types of singly linked containers.">
<polygon fill="white" stroke="#666666" points="411,-196.5 297,-196.5 297,-177.5 411,-177.5 411,-196.5"/>
<text text-anchor="middle" x="354" y="-184.5" font-family="Helvetica,sans-Serif" font-size="10.00">Cpl::Container::Item</text>
</a>
</g>
</g>
<!-- Node4&#45;&gt;Node3 -->
<g id="edge3_Node000003_Node000004" class="edge">
<title>Node4&#45;&gt;Node3</title>
<g id="a_edge3_Node000003_Node000004"><a xlink:title=" ">
<path fill="none" stroke="#63b8ff" d="M421.25,-188.22C478.89,-189.29 561.76,-190.82 617.96,-191.86"/>
<polygon fill="#63b8ff" stroke="#63b8ff" points="421.22,-184.72 411.15,-188.04 421.09,-191.72 421.22,-184.72"/>
</a>
</g>
</g>
<!-- Node8 -->
<g id="Node000008" class="node">
<title>Node8</title>
<g id="a_Node000008"><a xlink:href="class_cpl_1_1_dm_1_1_model_point.html" target="_top" xlink:title="This mostly abstract class defines the interface for a Model Point.">
<polygon fill="white" stroke="#666666" points="738.5,-158.5 622.5,-158.5 622.5,-139.5 738.5,-139.5 738.5,-158.5"/>
<text text-anchor="middle" x="680.5" y="-146.5" font-family="Helvetica,sans-Serif" font-size="10.00">Cpl::Dm::ModelPoint</text>
</a>
</g>
</g>
<!-- Node4&#45;&gt;Node8 -->
<g id="edge8_Node000008_Node000004" class="edge">
<title>Node4&#45;&gt;Node8</title>
<g id="a_edge8_Node000008_Node000004"><a xlink:title=" ">
<path fill="none" stroke="#63b8ff" d="M421.14,-179.25C480.32,-172.32 566.16,-162.27 622.4,-155.69"/>
<polygon fill="#63b8ff" stroke="#63b8ff" points="420.68,-175.78 411.15,-180.42 421.49,-182.74 420.68,-175.78"/>
</a>
</g>
</g>
<!-- Node5 -->
<g id="Node000005" class="node">
<title>Node5</title>
<g id="a_Node000005"><a xlink:href="class_cpl_1_1_dm_1_1_mp_1_1_int32.html" target="_top" xlink:title="This class provides a concrete implementation for a Point who&#39;s data is a int32_t.">
<polygon fill="white" stroke="#666666" points="1881,-98.5 1774,-98.5 1774,-79.5 1881,-79.5 1881,-98.5"/>
<text text-anchor="middle" x="1827.5" y="-86.5" font-family="Helvetica,sans-Serif" font-size="10.00">Cpl::Dm::Mp::Int32</text>
</a>
</g>
</g>
<!-- Node5&#45;&gt;Node1 -->
<g id="edge4_Node000001_Node000005" class="edge">
<title>Node5&#45;&gt;Node1</title>
<g id="a_edge4_Node000001_Node000005"><a xlink:title=" ">
<path fill="none" stroke="#9a32cd" stroke-dasharray="5,2" d="M1891.36,-92.64C1933.22,-95.2 1989.43,-98.89 2039,-103 2044.85,-103.49 2050.9,-104.02 2056.98,-104.57"/>
<polygon fill="#9a32cd" stroke="#9a32cd" points="1891.5,-89.14 1881.31,-92.03 1891.08,-96.13 1891.5,-89.14"/>
</a>
</g>
<text text-anchor="middle" x="1971.5" y="-106" font-family="Helvetica,sans-Serif" font-size="10.00" fill="grey"> m_mpIdt</text>
</g>
<!-- Node6 -->
<g id="Node000006" class="node">
<title>Node6</title>
<g id="a_Node000006"><a xlink:href="class_cpl_1_1_dm_1_1_mp_1_1_numeric.html" target="_top" xlink:title=" ">
<polygon fill="white" stroke="#666666" points="1641,-103 1517,-103 1517,-73 1641,-73 1641,-103"/>
<text text-anchor="start" x="1525" y="-91" font-family="Helvetica,sans-Serif" font-size="10.00">Cpl::Dm::Mp::Numeric</text>
<text text-anchor="middle" x="1579" y="-80" font-family="Helvetica,sans-Serif" font-size="10.00">&lt; int32_t, Int32 &gt;</text>
</a>
</g>
</g>
<!-- Node6&#45;&gt;Node5 -->
<g id="edge5_Node000005_Node000006" class="edge">
<title>Node6&#45;&gt;Node5</title>
<g id="a_edge5_Node000005_Node000006"><a xlink:title=" ">
<path fill="none" stroke="#63b8ff" d="M1651.52,-88.29C1690.63,-88.45 1738.24,-88.64 1773.92,-88.79"/>
<polygon fill="#63b8ff" stroke="#63b8ff" points="1651.26,-84.79 1641.25,-88.25 1651.23,-91.79 1651.26,-84.79"/>
</a>
</g>
</g>
<!-- Node7 -->
<g id="Node000007" class="node">
<title>Node7</title>
<g id="a_Node000007"><a xlink:href="class_cpl_1_1_dm_1_1_model_point_common__.html" target="_top" xlink:title="This concrete class provide common infrastructure for a Model Point.">
<polygon fill="white" stroke="#666666" points="1054,-110.5 888,-110.5 888,-91.5 1054,-91.5 1054,-110.5"/>
<text text-anchor="middle" x="971" y="-98.5" font-family="Helvetica,sans-Serif" font-size="10.00">Cpl::Dm::ModelPointCommon_</text>
</a>
</g>
</g>
<!-- Node7&#45;&gt;Node6 -->
<g id="edge6_Node000006_Node000007" class="edge">
<title>Node7&#45;&gt;Node6</title>
<g id="a_edge6_Node000006_Node000007"><a xlink:title=" ">
<path fill="none" stroke="#63b8ff" d="M1064.31,-92.49C1116.67,-88.09 1183.44,-83.19 1243,-81 1302.52,-78.81 1317.45,-79.96 1377,-81 1423.96,-81.82 1477.05,-83.71 1516.88,-85.32"/>
<polygon fill="#63b8ff" stroke="#63b8ff" points="1063.71,-89.03 1054.04,-93.37 1064.3,-96.01 1063.71,-89.03"/>
</a>
</g>
</g>
<!-- Node16 -->
<g id="Node000016" class="node">
<title>Node16</title>
<g id="a_Node000016"><a xlink:href="class_cpl_1_1_dm_1_1_mp_1_1_numeric.html" target="_top" xlink:title="This template class provides a mostly concrete implementation for a Model Point who&#39;s data is a C num...">
<polygon fill="white" stroke="#666666" points="1377,-120 1243,-120 1243,-90 1377,-90 1377,-120"/>
<text text-anchor="start" x="1251" y="-108" font-family="Helvetica,sans-Serif" font-size="10.00">Cpl::Dm::Mp::Numeric</text>
<text text-anchor="middle" x="1310" y="-97" font-family="Helvetica,sans-Serif" font-size="10.00">&lt; ELEMTYPE, MPTYPE &gt;</text>
</a>
</g>
</g>
<!-- Node7&#45;&gt;Node16 -->
<g id="edge17_Node000016_Node000007" class="edge">
<title>Node7&#45;&gt;Node16</title>
<g id="a_edge17_Node000016_Node000007"><a xlink:title=" ">
<path fill="none" stroke="#63b8ff" d="M1064.03,-102.09C1120.59,-102.76 1191.73,-103.61 1242.75,-104.21"/>
<polygon fill="#63b8ff" stroke="#63b8ff" points="1064.05,-98.59 1054.01,-101.97 1063.97,-105.59 1064.05,-98.59"/>
</a>
</g>
</g>
<!-- Node17 -->
<g id="Node000017" class="node">
<title>Node17</title>
<g id="a_Node000017"><a xlink:href="class_cpl_1_1_dm_1_1_mp_1_1_bool.html" target="_top" xlink:title="This class provides a concrete implementation for a Point who&#39;s data is a bool.">
<polygon fill="white" stroke="#666666" points="1499,-40.5 1395,-40.5 1395,-21.5 1499,-21.5 1499,-40.5"/>
<text text-anchor="middle" x="1447" y="-28.5" font-family="Helvetica,sans-Serif" font-size="10.00">Cpl::Dm::Mp::Bool</text>
</a>
</g>
</g>
<!-- Node7&#45;&gt;Node17 -->
<g id="edge19_Node000017_Node000007" class="edge">
<title>Node7&#45;&gt;Node17</title>
<g id="a_edge19_Node000017_Node000007"><a xlink:title=" ">
<path fill="none" stroke="#63b8ff" d="M993.86,-85.74C1013.36,-73.06 1043.2,-55.86 1072,-48 1183.93,-17.46 1321.6,-21.24 1394.7,-26.33"/>
<polygon fill="#63b8ff" stroke="#63b8ff" points="991.8,-82.91 985.42,-91.37 995.68,-88.74 991.8,-82.91"/>
</a>
</g>
</g>
<!-- Node19 -->
<g id="Node000019" class="node">
<title>Node19</title>
<g id="a_Node000019"><a xlink:href="class_cpl_1_1_dm_1_1_mp_1_1_numeric.html" target="_top" xlink:title=" ">
<polygon fill="white" stroke="#666666" points="1641,-151 1517,-151 1517,-121 1641,-121 1641,-151"/>
<text text-anchor="start" x="1525" y="-139" font-family="Helvetica,sans-Serif" font-size="10.00">Cpl::Dm::Mp::Numeric</text>
<text text-anchor="middle" x="1579" y="-128" font-family="Helvetica,sans-Serif" font-size="10.00">&lt; double, Double &gt;</text>
</a>
</g>
</g>
<!-- Node7&#45;&gt;Node19 -->
<g id="edge22_Node000019_Node000007" class="edge">
<title>Node7&#45;&gt;Node19</title>
<g id="a_edge22_Node000019_Node000007"><a xlink:title=" ">
<path fill="none" stroke="#63b8ff" d="M1035.8,-112.06C1047.8,-113.9 1060.26,-115.65 1072,-117 1260.8,-138.78 1309.01,-144.81 1499,-140 1504.77,-139.85 1510.77,-139.65 1516.77,-139.41"/>
<polygon fill="#63b8ff" stroke="#63b8ff" points="1036.28,-108.59 1025.85,-110.5 1035.19,-115.51 1036.28,-108.59"/>
</a>
</g>
</g>
<!-- Node8&#45;&gt;Node7 -->
<g id="edge7_Node000007_Node000008" class="edge">
<title>Node8&#45;&gt;Node7</title>
<g id="a_edge7_Node000007_Node000008"><a xlink:title=" ">
<path fill="none" stroke="#63b8ff" d="M748.87,-137.79C798.62,-129.51 865.6,-118.37 912.77,-110.52"/>
<polygon fill="#63b8ff" stroke="#63b8ff" points="748.13,-134.37 738.84,-139.46 749.28,-141.27 748.13,-134.37"/>
</a>
</g>
</g>
<!-- Node9 -->
<g id="Node000009" class="node">
<title>Node9</title>
<g id="a_Node000009"><a xlink:href="class_cpl_1_1_container_1_1_d_list.html" target="_top" xlink:title=" ">
<polygon fill="white" stroke="#666666" points="756,-43 605,-43 605,-13 756,-13 756,-43"/>
<text text-anchor="start" x="613" y="-31" font-family="Helvetica,sans-Serif" font-size="10.00">Cpl::Container::DList</text>
<text text-anchor="middle" x="680.5" y="-20" font-family="Helvetica,sans-Serif" font-size="10.00">&lt; Cpl::Dm::SubscriberApi &gt;</text>
</a>
</g>
</g>
<!-- Node9&#45;&gt;Node7 -->
<g id="edge9_Node000007_Node000009" class="edge">
<title>Node9&#45;&gt;Node7</title>
<g id="a_edge9_Node000007_Node000009"><a xlink:title=" ">
<path fill="none" stroke="#9a32cd" stroke-dasharray="5,2" d="M750.94,-45.57C807.86,-59.97 886.28,-79.82 932.22,-91.44"/>
<polygon fill="#9a32cd" stroke="#9a32cd" points="751.48,-42.1 740.93,-43.04 749.76,-48.88 751.48,-42.1"/>
</a>
</g>
<text text-anchor="middle" x="822" y="-78" font-family="Helvetica,sans-Serif" font-size="10.00" fill="grey"> m_subscribers</text>
</g>
<!-- Node10 -->
<g id="Node000010" class="node">
<title>Node10</title>
<g id="a_Node000010"><a xlink:href="class_cpl_1_1_container_1_1_d_list.html" target="_top" xlink:title="This template class implements a Doubly linked list which maintains the ordering imposed on it by the...">
<polygon fill="white" stroke="#666666" points="412,-30 296,-30 296,0 412,0 412,-30"/>
<text text-anchor="start" x="304" y="-18" font-family="Helvetica,sans-Serif" font-size="10.00">Cpl::Container::DList</text>
<text text-anchor="middle" x="354" y="-7" font-family="Helvetica,sans-Serif" font-size="10.00">&lt; ITEM &gt;</text>
</a>
</g>
</g>
<!-- Node10&#45;&gt;Node9 -->
<g id="edge10_Node000009_Node000010" class="edge">
<title>Node10&#45;&gt;Node9</title>
<g id="a_edge10_Node000009_Node000010"><a xlink:title=" ">
<path fill="none" stroke="orange" stroke-dasharray="5,2" d="M422.28,-17.7C475.5,-19.83 549.75,-22.8 604.81,-25.01"/>
<polygon fill="orange" stroke="orange" points="422.4,-14.2 412.27,-17.29 422.12,-21.19 422.4,-14.2"/>
</a>
</g>
<text text-anchor="middle" x="518" y="-28" font-family="Helvetica,sans-Serif" font-size="10.00" fill="grey"> &lt; Cpl::Dm::SubscriberApi &gt;</text>
</g>
<!-- Node11 -->
<g id="Node000011" class="node">
<title>Node11</title>
<g id="a_Node000011"><a xlink:href="class_cpl_1_1_dm_1_1_model_database.html" target="_top" xlink:title="This concrete class implements a simple Model Database.">
<polygon fill="white" stroke="#666666" points="749.5,-110.5 611.5,-110.5 611.5,-91.5 749.5,-91.5 749.5,-110.5"/>
<text text-anchor="middle" x="680.5" y="-98.5" font-family="Helvetica,sans-Serif" font-size="10.00">Cpl::Dm::ModelDatabase</text>
</a>
</g>
</g>
<!-- Node11&#45;&gt;Node7 -->
<g id="edge11_Node000007_Node000011" class="edge">
<title>Node11&#45;&gt;Node7</title>
<g id="a_edge11_Node000007_Node000011"><a xlink:title=" ">
<path fill="none" stroke="#9a32cd" stroke-dasharray="5,2" d="M759.67,-101C799.35,-101 847.56,-101 887.8,-101"/>
<polygon fill="#9a32cd" stroke="#9a32cd" points="759.51,-97.5 749.51,-101 759.51,-104.5 759.51,-97.5"/>
</a>
</g>
<text text-anchor="middle" x="822" y="-104" font-family="Helvetica,sans-Serif" font-size="10.00" fill="grey"> m_modelDatabase</text>
</g>
<!-- Node12 -->
<g id="Node000012" class="node">
<title>Node12</title>
<g id="a_Node000012"><a xlink:href="class_cpl_1_1_dm_1_1_model_database_api.html" target="_top" xlink:title="This class defines the basic operations that can be performed on a Model Base.">
<polygon fill="white" stroke="#666666" points="431,-153.5 277,-153.5 277,-134.5 431,-134.5 431,-153.5"/>
<text text-anchor="middle" x="354" y="-141.5" font-family="Helvetica,sans-Serif" font-size="10.00">Cpl::Dm::ModelDatabaseApi</text>
</a>
</g>
</g>
<!-- Node12&#45;&gt;Node11 -->
<g id="edge12_Node000011_Node000012" class="edge">
<title>Node12&#45;&gt;Node11</title>
<g id="a_edge12_Node000011_Node000012"><a xlink:title=" ">
<path fill="none" stroke="#63b8ff" d="M441.15,-134.45C484.89,-129.38 538.83,-122.81 587,-116 598.6,-114.36 610.99,-112.46 622.81,-110.57"/>
<polygon fill="#63b8ff" stroke="#63b8ff" points="440.65,-130.98 431.12,-135.6 441.45,-137.94 440.65,-130.98"/>
</a>
</g>
</g>
<!-- Node13 -->
<g id="Node000013" class="node">
<title>Node13</title>
<g id="a_Node000013"><a xlink:href="class_cpl_1_1_container_1_1_s_list.html" target="_top" xlink:title=" ">
<polygon fill="white" stroke="#666666" points="423.5,-116 284.5,-116 284.5,-86 423.5,-86 423.5,-116"/>
<text text-anchor="start" x="292.5" y="-104" font-family="Helvetica,sans-Serif" font-size="10.00">Cpl::Container::SList</text>
<text text-anchor="middle" x="354" y="-93" font-family="Helvetica,sans-Serif" font-size="10.00">&lt; Cpl::Dm::ModelPoint &gt;</text>
</a>
</g>
</g>
<!-- Node13&#45;&gt;Node11 -->
<g id="edge13_Node000011_Node000013" class="edge">
<title>Node13&#45;&gt;Node11</title>
<g id="a_edge13_Node000011_Node000013"><a xlink:title=" ">
<path fill="none" stroke="#9a32cd" stroke-dasharray="5,2" d="M434.09,-101C488.34,-101 559.59,-101 611.34,-101"/>
<polygon fill="#9a32cd" stroke="#9a32cd" points="433.82,-97.5 423.82,-101 433.82,-104.5 433.82,-97.5"/>
</a>
</g>
<text text-anchor="middle" x="518" y="-104" font-family="Helvetica,sans-Serif" font-size="10.00" fill="grey"> m_list</text>
</g>
<!-- Node14 -->
<g id="Node000014" class="node">
<title>Node14</title>
<g id="a_Node000014"><a xlink:href="class_cpl_1_1_container_1_1_s_list.html" target="_top" xlink:title="This template class implements a singly linked list which maintains the ordering imposed on it by the...">
<polygon fill="white" stroke="#666666" points="115,-116 0,-116 0,-86 115,-86 115,-116"/>
<text text-anchor="start" x="8" y="-104" font-family="Helvetica,sans-Serif" font-size="10.00">Cpl::Container::SList</text>
<text text-anchor="middle" x="57.5" y="-93" font-family="Helvetica,sans-Serif" font-size="10.00">&lt; ITEM &gt;</text>
</a>
</g>
</g>
<!-- Node14&#45;&gt;Node13 -->
<g id="edge14_Node000013_Node000014" class="edge">
<title>Node14&#45;&gt;Node13</title>
<g id="a_edge14_Node000013_Node000014"><a xlink:title=" ">
<path fill="none" stroke="orange" stroke-dasharray="5,2" d="M125.47,-101C173.01,-101 236.61,-101 284.49,-101"/>
<polygon fill="orange" stroke="orange" points="125.28,-97.5 115.28,-101 125.28,-104.5 125.28,-97.5"/>
</a>
</g>
<text text-anchor="middle" x="196" y="-104" font-family="Helvetica,sans-Serif" font-size="10.00" fill="grey"> &lt; Cpl::Dm::ModelPoint &gt;</text>
</g>
<!-- Node15 -->
<g id="Node000015" class="node">
<title>Node15</title>
<g id="a_Node000015"><a xlink:href="class_cpl_1_1_system_1_1_mutex.html" target="_top" xlink:title="This mutex class defines the interface for a mutex that has &quot;recursive&quot; semantics.">
<polygon fill="white" stroke="#666666" points="410,-67.5 298,-67.5 298,-48.5 410,-48.5 410,-67.5"/>
<text text-anchor="middle" x="354" y="-55.5" font-family="Helvetica,sans-Serif" font-size="10.00">Cpl::System::Mutex</text>
</a>
</g>
</g>
<!-- Node15&#45;&gt;Node11 -->
<g id="edge15_Node000011_Node000015" class="edge">
<title>Node15&#45;&gt;Node11</title>
<g id="a_edge15_Node000011_Node000015"><a xlink:title=" ">
<path fill="none" stroke="#9a32cd" stroke-dasharray="5,2" d="M420.35,-65.17C466.88,-70.45 530.86,-78.06 587,-86 598.6,-87.64 610.99,-89.54 622.81,-91.43"/>
<polygon fill="#9a32cd" stroke="#9a32cd" points="420.73,-61.69 410.4,-64.04 419.94,-68.64 420.73,-61.69"/>
</a>
</g>
<text text-anchor="middle" x="518" y="-89" font-family="Helvetica,sans-Serif" font-size="10.00" fill="grey"> m_lock</text>
</g>
<!-- Node16&#45;&gt;Node6 -->
<g id="edge16_Node000006_Node000016" class="edge">
<title>Node16&#45;&gt;Node6</title>
<g id="a_edge16_Node000006_Node000016"><a xlink:title=" ">
<path fill="none" stroke="orange" stroke-dasharray="5,2" d="M1387.68,-96.58C1390.15,-96.38 1392.59,-96.18 1395,-96 1435.59,-92.94 1481.34,-90.94 1516.94,-89.71"/>
<polygon fill="orange" stroke="orange" points="1387.1,-93.12 1377.45,-97.49 1387.72,-100.09 1387.1,-93.12"/>
</a>
</g>
<text text-anchor="middle" x="1447" y="-99" font-family="Helvetica,sans-Serif" font-size="10.00" fill="grey"> &lt; int32_t, Int32 &gt;</text>
</g>
<!-- Node16&#45;&gt;Node19 -->
<g id="edge23_Node000019_Node000016" class="edge">
<title>Node16&#45;&gt;Node19</title>
<g id="a_edge23_Node000019_Node000016"><a xlink:title=" ">
<path fill="none" stroke="orange" stroke-dasharray="5,2" d="M1386.98,-113.82C1428.13,-118.6 1478.28,-124.42 1516.87,-128.9"/>
<polygon fill="orange" stroke="orange" points="1387.34,-110.34 1377,-112.66 1386.53,-117.29 1387.34,-110.34"/>
</a>
</g>
<text text-anchor="middle" x="1447" y="-128" font-family="Helvetica,sans-Serif" font-size="10.00" fill="grey"> &lt; double, Double &gt;</text>
</g>
<!-- Node17&#45;&gt;Node1 -->
<g id="edge18_Node000001_Node000017" class="edge">
<title>Node17&#45;&gt;Node1</title>
<g id="a_edge18_Node000001_Node000017"><a xlink:title=" ">
<path fill="none" stroke="#9a32cd" stroke-dasharray="5,2" d="M1509.41,-33.87C1617.27,-39.61 1847.49,-54.99 2039,-89 2060.72,-92.86 2084.77,-98.55 2103.9,-103.42"/>
<polygon fill="#9a32cd" stroke="#9a32cd" points="1509.52,-30.37 1499.36,-33.34 1509.16,-37.36 1509.52,-30.37"/>
</a>
</g>
<text text-anchor="middle" x="1705" y="-55" font-family="Helvetica,sans-Serif" font-size="10.00" fill="grey"> m_mpSimEnabled</text>
</g>
<!-- Node18 -->
<g id="Node000018" class="node">
<title>Node18</title>
<g id="a_Node000018"><a xlink:href="class_cpl_1_1_dm_1_1_mp_1_1_double.html" target="_top" xlink:title="This class provides a concrete implementation for a Point who&#39;s data is a double.">
<polygon fill="white" stroke="#666666" points="1886,-140.5 1769,-140.5 1769,-121.5 1886,-121.5 1886,-140.5"/>
<text text-anchor="middle" x="1827.5" y="-128.5" font-family="Helvetica,sans-Serif" font-size="10.00">Cpl::Dm::Mp::Double</text>
</a>
</g>
</g>
<!-- Node18&#45;&gt;Node1 -->
<g id="edge20_Node000001_Node000018" class="edge">
<title>Node18&#45;&gt;Node1</title>
<g id="a_edge20_Node000001_Node000018"><a xlink:title=" ">
<path fill="none" stroke="#9a32cd" stroke-dasharray="5,2" d="M1896.38,-127.07C1943.56,-124.34 2006.71,-120.69 2056.83,-117.78"/>
<polygon fill="#9a32cd" stroke="#9a32cd" points="1896.05,-123.58 1886.27,-127.66 1896.45,-130.57 1896.05,-123.58"/>
</a>
</g>
<text text-anchor="middle" x="1971.5" y="-129" font-family="Helvetica,sans-Serif" font-size="10.00" fill="grey"> m_mpOutdoorTemperature</text>
</g>
<!-- Node19&#45;&gt;Node18 -->
<g id="edge21_Node000018_Node000019" class="edge">
<title>Node19&#45;&gt;Node18</title>
<g id="a_edge21_Node000018_Node000019"><a xlink:title=" ">
<path fill="none" stroke="#63b8ff" d="M1651.56,-134.55C1688.88,-133.79 1733.92,-132.88 1768.95,-132.17"/>
<polygon fill="#63b8ff" stroke="#63b8ff" points="1651.18,-131.06 1641.25,-134.76 1651.32,-138.05 1651.18,-131.06"/>
</a>
</g>
</g>
</g>
</svg>
