<?xml version="1.0" encoding="UTF-8" standalone="no"?>
<!DOCTYPE svg PUBLIC "-//W3C//DTD SVG 1.1//EN"
 "http://www.w3.org/Graphics/SVG/1.1/DTD/svg11.dtd">
<!-- Generated by graphviz version 2.43.0 (0)
 -->
<!-- Title: Cpl::Io::IsEos Pages: 1 -->
<svg width="758pt" height="687pt"
 viewBox="0.00 0.00 758.00 687.00" xmlns="http://www.w3.org/2000/svg" xmlns:xlink="http://www.w3.org/1999/xlink">
<g id="graph0" class="graph" transform="scale(1 1) rotate(0) translate(4 683)">
<title>Cpl::Io::IsEos</title>
<!-- Node1 -->
<g id="Node000001" class="node">
<title>Node1</title>
<g id="a_Node000001"><a xlink:title="This abstract class defines a isEos() operation that is intended to be used Input and Output streams.">
<polygon fill="#999999" stroke="#666666" points="79,-242 0,-242 0,-223 79,-223 79,-242"/>
<text text-anchor="middle" x="39.5" y="-230" font-family="Helvetica,sans-Serif" font-size="10.00">Cpl::Io::IsEos</text>
</a>
</g>
</g>
<!-- Node2 -->
<g id="Node000002" class="node">
<title>Node2</title>
<g id="a_Node000002"><a xlink:href="class_cpl_1_1_io_1_1_input.html" target="_top" xlink:title="This partially abstract class defines a interface for operating on an input stream (example of a stre...">
<polygon fill="white" stroke="#666666" points="197,-292 119,-292 119,-273 197,-273 197,-292"/>
<text text-anchor="middle" x="158" y="-280" font-family="Helvetica,sans-Serif" font-size="10.00">Cpl::Io::Input</text>
</a>
</g>
</g>
<!-- Node1&#45;&gt;Node2 -->
<g id="edge1_Node000001_Node000002" class="edge">
<title>Node1&#45;&gt;Node2</title>
<g id="a_edge1_Node000001_Node000002"><a xlink:title=" ">
<path fill="none" stroke="#63b8ff" d="M71.91,-245.98C91.67,-254.46 116.71,-265.21 134.5,-272.84"/>
<polygon fill="#63b8ff" stroke="#63b8ff" points="73.26,-242.75 62.69,-242.02 70.5,-249.18 73.26,-242.75"/>
</a>
</g>
</g>
<!-- Node23 -->
<g id="Node000023" class="node">
<title>Node23</title>
<g id="a_Node000023"><a xlink:href="class_cpl_1_1_io_1_1_output.html" target="_top" xlink:title="This partially abstract class defines a interface for operating on an output stream (example of a str...">
<polygon fill="white" stroke="#666666" points="201,-224 115,-224 115,-205 201,-205 201,-224"/>
<text text-anchor="middle" x="158" y="-212" font-family="Helvetica,sans-Serif" font-size="10.00">Cpl::Io::Output</text>
</a>
</g>
</g>
<!-- Node1&#45;&gt;Node23 -->
<g id="edge22_Node000001_Node000023" class="edge">
<title>Node1&#45;&gt;Node23</title>
<g id="a_edge22_Node000001_Node000023"><a xlink:title=" ">
<path fill="none" stroke="#63b8ff" d="M89.4,-224.95C97.83,-223.64 106.53,-222.3 114.77,-221.02"/>
<polygon fill="#63b8ff" stroke="#63b8ff" points="88.64,-221.52 79.29,-226.51 89.71,-228.44 88.64,-221.52"/>
</a>
</g>
</g>
<!-- Node3 -->
<g id="Node000003" class="node">
<title>Node3</title>
<g id="a_Node000003"><a xlink:href="class_cpl_1_1_io_1_1_file_1_1_input_api.html" target="_top" xlink:title="This abstract class defines the interface for a Random Access Input File.">
<polygon fill="white" stroke="#666666" points="364,-642 247,-642 247,-623 364,-623 364,-642"/>
<text text-anchor="middle" x="305.5" y="-630" font-family="Helvetica,sans-Serif" font-size="10.00">Cpl::Io::File::InputApi</text>
</a>
</g>
</g>
<!-- Node2&#45;&gt;Node3 -->
<g id="edge2_Node000002_Node000003" class="edge">
<title>Node2&#45;&gt;Node3</title>
<g id="a_edge2_Node000002_Node000003"><a xlink:title=" ">
<path fill="none" stroke="#63b8ff" d="M160.99,-302.15C167.87,-366.43 192.75,-568.91 237,-614.5 240.29,-617.89 244.15,-620.67 248.32,-622.94"/>
<polygon fill="#63b8ff" stroke="#63b8ff" points="164.46,-301.71 159.94,-292.13 157.5,-302.44 164.46,-301.71"/>
</a>
</g>
</g>
<!-- Node8 -->
<g id="Node000008" class="node">
<title>Node8</title>
<g id="a_Node000008"><a xlink:href="class_cpl_1_1_io_1_1_input_output.html" target="_top" xlink:title="This abstract class defines a interface for operating on an input&#45;output stream (example of a stream ...">
<polygon fill="white" stroke="#666666" points="361,-320 250,-320 250,-301 361,-301 361,-320"/>
<text text-anchor="middle" x="305.5" y="-308" font-family="Helvetica,sans-Serif" font-size="10.00">Cpl::Io::InputOutput</text>
</a>
</g>
</g>
<!-- Node2&#45;&gt;Node8 -->
<g id="edge7_Node000002_Node000008" class="edge">
<title>Node2&#45;&gt;Node8</title>
<g id="a_edge7_Node000002_Node000008"><a xlink:title=" ">
<path fill="none" stroke="#63b8ff" d="M207.07,-291.75C222.46,-294.71 239.53,-298 255.02,-300.98"/>
<polygon fill="#63b8ff" stroke="#63b8ff" points="207.71,-288.31 197.23,-289.86 206.39,-295.18 207.71,-288.31"/>
</a>
</g>
</g>
<!-- Node21 -->
<g id="Node000021" class="node">
<title>Node21</title>
<g id="a_Node000021"><a xlink:href="class_cpl_1_1_io_1_1_stdio_1_1_input__.html" target="_top" xlink:title="This concrete class implements a Input stream using the underlying platform&#39;s native OS &#39;file interfa...">
<polygon fill="white" stroke="#666666" points="362.5,-83 248.5,-83 248.5,-64 362.5,-64 362.5,-83"/>
<text text-anchor="middle" x="305.5" y="-71" font-family="Helvetica,sans-Serif" font-size="10.00">Cpl::Io::Stdio::Input_</text>
</a>
</g>
</g>
<!-- Node2&#45;&gt;Node21 -->
<g id="edge20_Node000002_Node000021" class="edge">
<title>Node2&#45;&gt;Node21</title>
<g id="a_edge20_Node000002_Node000021"><a xlink:title=" ">
<path fill="none" stroke="#63b8ff" d="M177.16,-265.34C185.52,-256.54 194.91,-245.22 201,-233.5 230.83,-176.11 191.83,-138.79 237,-92.5 240.74,-88.67 245.19,-85.59 249.99,-83.12"/>
<polygon fill="#63b8ff" stroke="#63b8ff" points="174.46,-263.09 169.9,-272.65 179.43,-268.02 174.46,-263.09"/>
</a>
</g>
</g>
<!-- Node4 -->
<g id="Node000004" class="node">
<title>Node4</title>
<g id="a_Node000004"><a xlink:href="class_cpl_1_1_io_1_1_file_1_1_input.html" target="_top" xlink:title="This concrete class provides a platform independent &#39;standard&#39; implementation of a Cpl::Io::File::Inp...">
<polygon fill="white" stroke="#666666" points="535.5,-679 434.5,-679 434.5,-660 535.5,-660 535.5,-679"/>
<text text-anchor="middle" x="485" y="-667" font-family="Helvetica,sans-Serif" font-size="10.00">Cpl::Io::File::Input</text>
</a>
</g>
</g>
<!-- Node3&#45;&gt;Node4 -->
<g id="edge3_Node000003_Node000004" class="edge">
<title>Node3&#45;&gt;Node4</title>
<g id="a_edge3_Node000003_Node000004"><a xlink:title=" ">
<path fill="none" stroke="#63b8ff" d="M362.07,-644.08C386.53,-649.18 414.91,-655.1 438.14,-659.94"/>
<polygon fill="#63b8ff" stroke="#63b8ff" points="362.71,-640.64 352.21,-642.03 361.29,-647.5 362.71,-640.64"/>
</a>
</g>
</g>
<!-- Node5 -->
<g id="Node000005" class="node">
<title>Node5</title>
<g id="a_Node000005"><a xlink:href="class_cpl_1_1_io_1_1_file_1_1_input_output_api.html" target="_top" xlink:title="This abstract class defines the interface for a Random Access Input Output File.">
<polygon fill="white" stroke="#666666" points="560,-642 410,-642 410,-623 560,-623 560,-642"/>
<text text-anchor="middle" x="485" y="-630" font-family="Helvetica,sans-Serif" font-size="10.00">Cpl::Io::File::InputOutputApi</text>
</a>
</g>
</g>
<!-- Node3&#45;&gt;Node5 -->
<g id="edge4_Node000003_Node000005" class="edge">
<title>Node3&#45;&gt;Node5</title>
<g id="a_edge4_Node000003_Node000005"><a xlink:title=" ">
<path fill="none" stroke="#63b8ff" d="M374.21,-632.5C385.86,-632.5 398.02,-632.5 409.83,-632.5"/>
<polygon fill="#63b8ff" stroke="#63b8ff" points="374.13,-629 364.13,-632.5 374.13,-636 374.13,-629"/>
</a>
</g>
</g>
<!-- Node6 -->
<g id="Node000006" class="node">
<title>Node6</title>
<g id="a_Node000006"><a xlink:href="class_cpl_1_1_io_1_1_file_1_1_input_output.html" target="_top" xlink:title="This concrete class provides a platform independent &#39;standard&#39; implementation of an InputOutputFileAp...">
<polygon fill="white" stroke="#666666" points="740,-660 606,-660 606,-641 740,-641 740,-660"/>
<text text-anchor="middle" x="673" y="-648" font-family="Helvetica,sans-Serif" font-size="10.00">Cpl::Io::File::InputOutput</text>
</a>
</g>
</g>
<!-- Node5&#45;&gt;Node6 -->
<g id="edge5_Node000005_Node000006" class="edge">
<title>Node5&#45;&gt;Node6</title>
<g id="a_edge5_Node000005_Node000006"><a xlink:title=" ">
<path fill="none" stroke="#63b8ff" d="M570.03,-640.63C582,-641.79 594.17,-642.97 605.73,-644.09"/>
<polygon fill="#63b8ff" stroke="#63b8ff" points="570.34,-637.15 560.05,-639.67 569.66,-644.11 570.34,-637.15"/>
</a>
</g>
</g>
<!-- Node7 -->
<g id="Node000007" class="node">
<title>Node7</title>
<g id="a_Node000007"><a xlink:href="class_cpl_1_1_io_1_1_file_1_1_null.html" target="_top" xlink:title="This concrete class implements a NULL InputOutputApi File that all of its input operations return &#39;En...">
<polygon fill="white" stroke="#666666" points="721,-623 625,-623 625,-604 721,-604 721,-623"/>
<text text-anchor="middle" x="673" y="-611" font-family="Helvetica,sans-Serif" font-size="10.00">Cpl::Io::File::Null</text>
</a>
</g>
</g>
<!-- Node5&#45;&gt;Node7 -->
<g id="edge6_Node000005_Node000007" class="edge">
<title>Node5&#45;&gt;Node7</title>
<g id="a_edge6_Node000005_Node000007"><a xlink:title=" ">
<path fill="none" stroke="#63b8ff" d="M570.13,-623.91C588.96,-621.98 608.27,-620.01 624.95,-618.31"/>
<polygon fill="#63b8ff" stroke="#63b8ff" points="569.64,-620.44 560.05,-624.94 570.35,-627.4 569.64,-620.44"/>
</a>
</g>
</g>
<!-- Node9 -->
<g id="Node000009" class="node">
<title>Node9</title>
<g id="a_Node000009"><a xlink:href="class_cpl_1_1_io_1_1_null.html" target="_top" xlink:title="This concrete class implements a NULL InputOutput stream &#45; that all of its input operations return &#39;E...">
<polygon fill="white" stroke="#666666" points="521.5,-568 448.5,-568 448.5,-549 521.5,-549 521.5,-568"/>
<text text-anchor="middle" x="485" y="-556" font-family="Helvetica,sans-Serif" font-size="10.00">Cpl::Io::Null</text>
</a>
</g>
</g>
<!-- Node8&#45;&gt;Node9 -->
<g id="edge8_Node000008_Node000009" class="edge">
<title>Node8&#45;&gt;Node9</title>
<g id="a_edge8_Node000008_Node000009"><a xlink:title=" ">
<path fill="none" stroke="#63b8ff" d="M309.46,-330.3C317.22,-375.04 342.46,-484.38 410,-540.5 420.68,-549.37 435.05,-553.99 448.28,-556.36"/>
<polygon fill="#63b8ff" stroke="#63b8ff" points="312.87,-329.48 307.81,-320.17 305.96,-330.6 312.87,-329.48"/>
</a>
</g>
</g>
<!-- Node10 -->
<g id="Node000010" class="node">
<title>Node10</title>
<g id="a_Node000010"><a xlink:href="class_cpl_1_1_io_1_1_ram_1_1_input_output.html" target="_top" xlink:title="This concrete class implements an InputOutput stream using a Ring Buffer.">
<polygon fill="white" stroke="#666666" points="555,-531 415,-531 415,-512 555,-512 555,-531"/>
<text text-anchor="middle" x="485" y="-519" font-family="Helvetica,sans-Serif" font-size="10.00">Cpl::Io::Ram::InputOutput</text>
</a>
</g>
</g>
<!-- Node8&#45;&gt;Node10 -->
<g id="edge9_Node000008_Node000010" class="edge">
<title>Node8&#45;&gt;Node10</title>
<g id="a_edge9_Node000008_Node000010"><a xlink:title=" ">
<path fill="none" stroke="#63b8ff" d="M311.39,-330.14C322.17,-369.24 351.78,-456.96 410,-502.5 414.91,-506.34 420.51,-509.41 426.38,-511.87"/>
<polygon fill="#63b8ff" stroke="#63b8ff" points="314.72,-329.05 308.79,-320.28 307.95,-330.84 314.72,-329.05"/>
</a>
</g>
</g>
<!-- Node11 -->
<g id="Node000011" class="node">
<title>Node11</title>
<g id="a_Node000011"><a xlink:href="class_cpl_1_1_io_1_1_serial_1_1_adafruit_1_1_nrf5_1_1_b_l_e_1_1_input_output.html" target="_top" xlink:title="This concrete class implements the InputOutput stream interface as a wrapper around Adafruit&#39;s BLEUar...">
<polygon fill="white" stroke="#666666" points="550.5,-493.5 419.5,-493.5 419.5,-463.5 550.5,-463.5 550.5,-493.5"/>
<text text-anchor="start" x="427.5" y="-481.5" font-family="Helvetica,sans-Serif" font-size="10.00">Cpl::Io::Serial::Adafruit</text>
<text text-anchor="middle" x="485" y="-470.5" font-family="Helvetica,sans-Serif" font-size="10.00">::Nrf5::BLE::InputOutput</text>
</a>
</g>
</g>
<!-- Node8&#45;&gt;Node11 -->
<g id="edge10_Node000008_Node000011" class="edge">
<title>Node8&#45;&gt;Node11</title>
<g id="a_edge10_Node000008_Node000011"><a xlink:title=" ">
<path fill="none" stroke="#63b8ff" d="M315.11,-329.35C330.08,-360.03 363.75,-420.74 410,-454.5 414.69,-457.92 419.89,-460.88 425.3,-463.42"/>
<polygon fill="#63b8ff" stroke="#63b8ff" points="318.21,-327.71 310.77,-320.18 311.89,-330.71 318.21,-327.71"/>
</a>
</g>
</g>
<!-- Node12 -->
<g id="Node000012" class="node">
<title>Node12</title>
<g id="a_Node000012"><a xlink:href="class_cpl_1_1_io_1_1_serial_1_1_adafruit_1_1_nrf5_1_1_input_output.html" target="_top" xlink:title="This concrete class implements the InputOutput stream interface as a wrapper around Adafruit&#39;s Arduin...">
<polygon fill="white" stroke="#666666" points="548,-445.5 422,-445.5 422,-415.5 548,-415.5 548,-445.5"/>
<text text-anchor="start" x="430" y="-433.5" font-family="Helvetica,sans-Serif" font-size="10.00">Cpl::Io::Serial::Adafruit</text>
<text text-anchor="middle" x="485" y="-422.5" font-family="Helvetica,sans-Serif" font-size="10.00">::Nrf5::InputOutput</text>
</a>
</g>
</g>
<!-- Node8&#45;&gt;Node12 -->
<g id="edge11_Node000008_Node000012" class="edge">
<title>Node8&#45;&gt;Node12</title>
<g id="a_edge11_Node000008_Node000012"><a xlink:title=" ">
<path fill="none" stroke="#63b8ff" d="M320.83,-327.78C339.36,-349.1 373.61,-385.15 410,-406.5 415.71,-409.85 421.94,-412.8 428.29,-415.37"/>
<polygon fill="#63b8ff" stroke="#63b8ff" points="323.46,-325.47 314.31,-320.13 318.13,-330.01 323.46,-325.47"/>
</a>
</g>
</g>
<!-- Node13 -->
<g id="Node000013" class="node">
<title>Node13</title>
<g id="a_Node000013"><a xlink:href="class_cpl_1_1_io_1_1_serial_1_1_arduino_1_1_input_output.html" target="_top" xlink:title="This concrete class implements the InputOutput stream interface as a wrapper around Arduino Serial cl...">
<polygon fill="white" stroke="#666666" points="547.5,-397.5 422.5,-397.5 422.5,-367.5 547.5,-367.5 547.5,-397.5"/>
<text text-anchor="start" x="430.5" y="-385.5" font-family="Helvetica,sans-Serif" font-size="10.00">Cpl::Io::Serial::Arduino</text>
<text text-anchor="middle" x="485" y="-374.5" font-family="Helvetica,sans-Serif" font-size="10.00">::InputOutput</text>
</a>
</g>
</g>
<!-- Node8&#45;&gt;Node13 -->
<g id="edge12_Node000008_Node000013" class="edge">
<title>Node8&#45;&gt;Node13</title>
<g id="a_edge12_Node000008_Node000013"><a xlink:title=" ">
<path fill="none" stroke="#63b8ff" d="M334.4,-324.56C355.01,-334.66 383.9,-348.26 410,-358.5 417.92,-361.61 426.42,-364.64 434.74,-367.44"/>
<polygon fill="#63b8ff" stroke="#63b8ff" points="335.79,-321.34 325.28,-320.04 332.69,-327.61 335.79,-321.34"/>
</a>
</g>
</g>
<!-- Node14 -->
<g id="Node000014" class="node">
<title>Node14</title>
<g id="a_Node000014"><a xlink:href="class_cpl_1_1_io_1_1_serial_1_1_phony_stdio_1_1_input_output.html" target="_top" xlink:title="This concrete class implements the InputOutput stream interface built on top the C Library&#39;s fread/fw...">
<polygon fill="white" stroke="#666666" points="556,-349.5 414,-349.5 414,-319.5 556,-319.5 556,-349.5"/>
<text text-anchor="start" x="422" y="-337.5" font-family="Helvetica,sans-Serif" font-size="10.00">Cpl::Io::Serial::PhonyStdio</text>
<text text-anchor="middle" x="485" y="-326.5" font-family="Helvetica,sans-Serif" font-size="10.00">::InputOutput</text>
</a>
</g>
</g>
<!-- Node8&#45;&gt;Node14 -->
<g id="edge13_Node000008_Node000014" class="edge">
<title>Node8&#45;&gt;Node14</title>
<g id="a_edge13_Node000008_Node000014"><a xlink:title=" ">
<path fill="none" stroke="#63b8ff" d="M371.13,-319.24C384.99,-321.11 399.7,-323.1 413.76,-325"/>
<polygon fill="#63b8ff" stroke="#63b8ff" points="371.58,-315.77 361.2,-317.9 370.65,-322.71 371.58,-315.77"/>
</a>
</g>
</g>
<!-- Node15 -->
<g id="Node000015" class="node">
<title>Node15</title>
<g id="a_Node000015"><a xlink:href="class_cpl_1_1_io_1_1_serial_1_1_s_t_1_1_m32_f4_1_1_input_output.html" target="_top" xlink:title="This concrete class implements the InputOutput stream interface built on top of ST HAL Layer/SDK.">
<polygon fill="white" stroke="#666666" points="544.5,-301.5 425.5,-301.5 425.5,-271.5 544.5,-271.5 544.5,-301.5"/>
<text text-anchor="start" x="433.5" y="-289.5" font-family="Helvetica,sans-Serif" font-size="10.00">Cpl::Io::Serial::ST</text>
<text text-anchor="middle" x="485" y="-278.5" font-family="Helvetica,sans-Serif" font-size="10.00">::M32F4::InputOutput</text>
</a>
</g>
</g>
<!-- Node8&#45;&gt;Node15 -->
<g id="edge14_Node000008_Node000015" class="edge">
<title>Node8&#45;&gt;Node15</title>
<g id="a_edge14_Node000008_Node000015"><a xlink:title=" ">
<path fill="none" stroke="#63b8ff" d="M371.44,-301.72C389.12,-299.33 408.17,-296.75 425.47,-294.41"/>
<polygon fill="#63b8ff" stroke="#63b8ff" points="370.65,-298.29 361.2,-303.1 371.58,-305.23 370.65,-298.29"/>
</a>
</g>
</g>
<!-- Node16 -->
<g id="Node000016" class="node">
<title>Node16</title>
<g id="a_Node000016"><a xlink:href="class_cpl_1_1_io_1_1_socket_1_1_input_output.html" target="_top" xlink:title="This concrete class provides a platform independent &#39;standard&#39; implementation of an InputOutput strea...">
<polygon fill="white" stroke="#666666" points="559.5,-253 410.5,-253 410.5,-234 559.5,-234 559.5,-253"/>
<text text-anchor="middle" x="485" y="-241" font-family="Helvetica,sans-Serif" font-size="10.00">Cpl::Io::Socket::InputOutput</text>
</a>
</g>
</g>
<!-- Node8&#45;&gt;Node16 -->
<g id="edge15_Node000008_Node000016" class="edge">
<title>Node8&#45;&gt;Node16</title>
<g id="a_edge15_Node000008_Node000016"><a xlink:title=" ">
<path fill="none" stroke="#63b8ff" d="M333.47,-296.33C354.03,-285.94 383.27,-272.04 410,-262.5 419.99,-258.93 430.97,-255.74 441.33,-253.04"/>
<polygon fill="#63b8ff" stroke="#63b8ff" points="331.71,-293.3 324.4,-300.97 334.9,-299.53 331.71,-293.3"/>
</a>
</g>
</g>
<!-- Node17 -->
<g id="Node000017" class="node">
<title>Node17</title>
<g id="a_Node000017"><a xlink:href="class_cpl_1_1_io_1_1_stdio_1_1_input_output__.html" target="_top" xlink:title="This concrete class implements a Input&#45;Output stream.">
<polygon fill="white" stroke="#666666" points="558.5,-216 411.5,-216 411.5,-197 558.5,-197 558.5,-216"/>
<text text-anchor="middle" x="485" y="-204" font-family="Helvetica,sans-Serif" font-size="10.00">Cpl::Io::Stdio::InputOutput_</text>
</a>
</g>
</g>
<!-- Node8&#45;&gt;Node17 -->
<g id="edge16_Node000008_Node000017" class="edge">
<title>Node8&#45;&gt;Node17</title>
<g id="a_edge16_Node000008_Node000017"><a xlink:title=" ">
<path fill="none" stroke="#63b8ff" d="M322.48,-293.49C341.53,-274.21 375.19,-243.16 410,-225.5 417.57,-221.66 425.98,-218.55 434.34,-216.05"/>
<polygon fill="#63b8ff" stroke="#63b8ff" points="319.91,-291.11 315.47,-300.73 324.94,-295.98 319.91,-291.11"/>
</a>
</g>
</g>
<!-- Node18 -->
<g id="Node000018" class="node">
<title>Node18</title>
<g id="a_Node000018"><a xlink:href="class_cpl_1_1_io_1_1_tcp_1_1_input_output.html" target="_top" xlink:title="This concrete class defines a platform independent implementation of an InputOutput stream used by th...">
<polygon fill="white" stroke="#666666" points="551.5,-179 418.5,-179 418.5,-160 551.5,-160 551.5,-179"/>
<text text-anchor="middle" x="485" y="-167" font-family="Helvetica,sans-Serif" font-size="10.00">Cpl::Io::Tcp::InputOutput</text>
</a>
</g>
</g>
<!-- Node8&#45;&gt;Node18 -->
<g id="edge17_Node000008_Node000018" class="edge">
<title>Node8&#45;&gt;Node18</title>
<g id="a_edge17_Node000008_Node000018"><a xlink:title=" ">
<path fill="none" stroke="#63b8ff" d="M317.03,-292C333.37,-265 367.43,-215.14 410,-188.5 416.18,-184.63 423.13,-181.54 430.22,-179.09"/>
<polygon fill="#63b8ff" stroke="#63b8ff" points="313.89,-290.43 311.83,-300.82 319.92,-293.99 313.89,-290.43"/>
</a>
</g>
</g>
<!-- Node19 -->
<g id="Node000019" class="node">
<title>Node19</title>
<g id="a_Node000019"><a xlink:href="class_cpl_1_1_io_1_1_tcp_1_1_async_connector_1_1_client.html" target="_top" xlink:title="This class defines the callback mechanism used for accepting incoming TCP connections.">
<polygon fill="white" stroke="#666666" points="750,-208.5 596,-208.5 596,-178.5 750,-178.5 750,-208.5"/>
<text text-anchor="start" x="604" y="-196.5" font-family="Helvetica,sans-Serif" font-size="10.00">Cpl::Io::Tcp::AsyncConnector</text>
<text text-anchor="middle" x="673" y="-185.5" font-family="Helvetica,sans-Serif" font-size="10.00">::Client</text>
</a>
</g>
</g>
<!-- Node18&#45;&gt;Node19 -->
<g id="edge18_Node000018_Node000019" class="edge">
<title>Node18&#45;&gt;Node19</title>
<g id="a_edge18_Node000018_Node000019"><a xlink:title=" ">
<path fill="none" stroke="#63b8ff" d="M561.79,-179.28C573.04,-180.73 584.63,-182.23 595.89,-183.68"/>
<polygon fill="#63b8ff" stroke="#63b8ff" points="561.94,-175.77 551.58,-177.96 561.05,-182.71 561.94,-175.77"/>
</a>
</g>
</g>
<!-- Node20 -->
<g id="Node000020" class="node">
<title>Node20</title>
<g id="a_Node000020"><a xlink:href="class_cpl_1_1_io_1_1_tcp_1_1_async_listener_1_1_client.html" target="_top" xlink:title="This class defines the callback mechanism used for accepting incoming TCP connections.">
<polygon fill="white" stroke="#666666" points="744.5,-160.5 601.5,-160.5 601.5,-130.5 744.5,-130.5 744.5,-160.5"/>
<text text-anchor="start" x="609.5" y="-148.5" font-family="Helvetica,sans-Serif" font-size="10.00">Cpl::Io::Tcp::AsyncListener</text>
<text text-anchor="middle" x="673" y="-137.5" font-family="Helvetica,sans-Serif" font-size="10.00">::Client</text>
</a>
</g>
</g>
<!-- Node18&#45;&gt;Node20 -->
<g id="edge19_Node000018_Node000020" class="edge">
<title>Node18&#45;&gt;Node20</title>
<g id="a_edge19_Node000018_Node000020"><a xlink:title=" ">
<path fill="none" stroke="#63b8ff" d="M561.52,-159.76C574.68,-158.06 588.31,-156.3 601.33,-154.62"/>
<polygon fill="#63b8ff" stroke="#63b8ff" points="561.05,-156.29 551.58,-161.04 561.94,-163.23 561.05,-156.29"/>
</a>
</g>
</g>
<!-- Node22 -->
<g id="Node000022" class="node">
<title>Node22</title>
<g id="a_Node000022"><a xlink:href="class_cpl_1_1_io_1_1_stdio_1_1_std_in.html" target="_top" xlink:title="This concrete class represents the C&#45;library &#39;stdin&#39; stream.">
<polygon fill="white" stroke="#666666" points="539.5,-19 430.5,-19 430.5,0 539.5,0 539.5,-19"/>
<text text-anchor="middle" x="485" y="-7" font-family="Helvetica,sans-Serif" font-size="10.00">Cpl::Io::Stdio::StdIn</text>
</a>
</g>
</g>
<!-- Node21&#45;&gt;Node22 -->
<g id="edge21_Node000021_Node000022" class="edge">
<title>Node21&#45;&gt;Node22</title>
<g id="a_edge21_Node000021_Node000022"><a xlink:title=" ">
<path fill="none" stroke="#63b8ff" d="M362.1,-60.62C366.2,-59.08 370.21,-57.38 374,-55.5 392.16,-46.49 391.75,-36.31 410,-27.5 417.02,-24.11 424.74,-21.32 432.46,-19.05"/>
<polygon fill="#63b8ff" stroke="#63b8ff" points="360.77,-57.38 352.44,-63.92 363.03,-64 360.77,-57.38"/>
</a>
</g>
</g>
<!-- Node23&#45;&gt;Node8 -->
<g id="edge28_Node000023_Node000008" class="edge">
<title>Node23&#45;&gt;Node8</title>
<g id="a_edge28_Node000023_Node000008"><a xlink:title=" ">
<path fill="none" stroke="#63b8ff" d="M182.14,-229.77C212.49,-249.79 264.84,-284.33 290.08,-300.98"/>
<polygon fill="#63b8ff" stroke="#63b8ff" points="183.76,-226.64 173.48,-224.06 179.9,-232.48 183.76,-226.64"/>
</a>
</g>
</g>
<!-- Node24 -->
<g id="Node000024" class="node">
<title>Node24</title>
<g id="a_Node000024"><a xlink:href="class_cpl_1_1_io_1_1_atomic_output_api.html" target="_top" xlink:title="This abstract template class defines a interface for an Atomic outputs to a stream.">
<polygon fill="white" stroke="#666666" points="374,-168.5 237,-168.5 237,-138.5 374,-138.5 374,-168.5"/>
<text text-anchor="start" x="245" y="-156.5" font-family="Helvetica,sans-Serif" font-size="10.00">Cpl::Io::AtomicOutputApi</text>
<text text-anchor="middle" x="305.5" y="-145.5" font-family="Helvetica,sans-Serif" font-size="10.00">&lt; CONTEXT &gt;</text>
</a>
</g>
</g>
<!-- Node23&#45;&gt;Node24 -->
<g id="edge23_Node000023_Node000024" class="edge">
<title>Node23&#45;&gt;Node24</title>
<g id="a_edge23_Node000023_Node000024"><a xlink:title=" ">
<path fill="none" stroke="#63b8ff" d="M191.03,-201.07C213.97,-191.46 244.86,-178.5 268.63,-168.54"/>
<polygon fill="#63b8ff" stroke="#63b8ff" points="189.6,-197.87 181.73,-204.97 192.31,-204.33 189.6,-197.87"/>
</a>
</g>
</g>
<!-- Node26 -->
<g id="Node000026" class="node">
<title>Node26</title>
<g id="a_Node000026"><a xlink:href="class_cpl_1_1_io_1_1_file_1_1_output_api.html" target="_top" xlink:title="This abstract class defines the interface for a Random Access Input File.">
<polygon fill="white" stroke="#666666" points="368,-605 243,-605 243,-586 368,-586 368,-605"/>
<text text-anchor="middle" x="305.5" y="-593" font-family="Helvetica,sans-Serif" font-size="10.00">Cpl::Io::File::OutputApi</text>
</a>
</g>
</g>
<!-- Node23&#45;&gt;Node26 -->
<g id="edge25_Node000023_Node000026" class="edge">
<title>Node23&#45;&gt;Node26</title>
<g id="a_edge25_Node000023_Node000026"><a xlink:title=" ">
<path fill="none" stroke="#63b8ff" d="M176.3,-231.59C184.73,-240.71 194.43,-252.5 201,-264.5 265.18,-381.75 295.88,-544.56 302.9,-585.74"/>
<polygon fill="#63b8ff" stroke="#63b8ff" points="178.78,-229.12 169.33,-224.33 173.73,-233.97 178.78,-229.12"/>
</a>
</g>
</g>
<!-- Node28 -->
<g id="Node000028" class="node">
<title>Node28</title>
<g id="a_Node000028"><a xlink:href="class_cpl_1_1_io_1_1_stdio_1_1_output__.html" target="_top" xlink:title="This concrete class implements a Output stream using the underlying platform&#39;s native OS &#39;file interf...">
<polygon fill="white" stroke="#666666" points="366.5,-120 244.5,-120 244.5,-101 366.5,-101 366.5,-120"/>
<text text-anchor="middle" x="305.5" y="-108" font-family="Helvetica,sans-Serif" font-size="10.00">Cpl::Io::Stdio::Output_</text>
</a>
</g>
</g>
<!-- Node23&#45;&gt;Node28 -->
<g id="edge29_Node000023_Node000028" class="edge">
<title>Node23&#45;&gt;Node28</title>
<g id="a_edge29_Node000023_Node000028"><a xlink:title=" ">
<path fill="none" stroke="#63b8ff" d="M170.7,-196.74C184.36,-177.39 208.72,-146.89 237,-129.5 243.33,-125.61 250.47,-122.49 257.68,-120.01"/>
<polygon fill="#63b8ff" stroke="#63b8ff" points="167.81,-194.77 165.05,-205 173.59,-198.73 167.81,-194.77"/>
</a>
</g>
</g>
<!-- Node31 -->
<g id="Node000031" class="node">
<title>Node31</title>
<g id="a_Node000031"><a xlink:href="class_cpl_1_1_io_1_1_tee_output.html" target="_top" xlink:title="This concrete class implements a Output stream that outputs the data to MANY (or none) output streams...">
<polygon fill="white" stroke="#666666" points="357,-46 254,-46 254,-27 357,-27 357,-46"/>
<text text-anchor="middle" x="305.5" y="-34" font-family="Helvetica,sans-Serif" font-size="10.00">Cpl::Io::TeeOutput</text>
</a>
</g>
</g>
<!-- Node23&#45;&gt;Node31 -->
<g id="edge32_Node000023_Node000031" class="edge">
<title>Node23&#45;&gt;Node31</title>
<g id="a_edge32_Node000023_Node000031"><a xlink:title=" ">
<path fill="none" stroke="#63b8ff" d="M163.1,-195C171.19,-161.39 192.43,-92.63 237,-55.5 241.96,-51.37 247.76,-48.14 253.83,-45.6"/>
<polygon fill="#63b8ff" stroke="#63b8ff" points="159.64,-194.42 160.84,-204.95 166.47,-195.97 159.64,-194.42"/>
</a>
</g>
</g>
<!-- Node25 -->
<g id="Node000025" class="node">
<title>Node25</title>
<g id="a_Node000025"><a xlink:href="class_cpl_1_1_io_1_1_atomic_output.html" target="_top" xlink:title="This concrete template class implements the AtomicOutputApi using a mutex to enforce the &#39;atomic&#45;ness...">
<polygon fill="white" stroke="#666666" points="545.5,-141.5 424.5,-141.5 424.5,-111.5 545.5,-111.5 545.5,-141.5"/>
<text text-anchor="start" x="432.5" y="-129.5" font-family="Helvetica,sans-Serif" font-size="10.00">Cpl::Io::AtomicOutput</text>
<text text-anchor="middle" x="485" y="-118.5" font-family="Helvetica,sans-Serif" font-size="10.00">&lt; CONTEXT &gt;</text>
</a>
</g>
</g>
<!-- Node24&#45;&gt;Node25 -->
<g id="edge24_Node000024_Node000025" class="edge">
<title>Node24&#45;&gt;Node25</title>
<g id="a_edge24_Node000024_Node000025"><a xlink:title=" ">
<path fill="none" stroke="#63b8ff" d="M384.31,-141.66C397.76,-139.62 411.55,-137.52 424.42,-135.56"/>
<polygon fill="#63b8ff" stroke="#63b8ff" points="383.47,-138.25 374.11,-143.22 384.52,-145.17 383.47,-138.25"/>
</a>
</g>
</g>
<!-- Node26&#45;&gt;Node5 -->
<g id="edge26_Node000026_Node000005" class="edge">
<title>Node26&#45;&gt;Node5</title>
<g id="a_edge26_Node000026_Node000005"><a xlink:title=" ">
<path fill="none" stroke="#63b8ff" d="M362.07,-607.08C386.53,-612.18 414.91,-618.1 438.14,-622.94"/>
<polygon fill="#63b8ff" stroke="#63b8ff" points="362.71,-603.64 352.21,-605.03 361.29,-610.5 362.71,-603.64"/>
</a>
</g>
</g>
<!-- Node27 -->
<g id="Node000027" class="node">
<title>Node27</title>
<g id="a_Node000027"><a xlink:href="class_cpl_1_1_io_1_1_file_1_1_output.html" target="_top" xlink:title="This concrete class provides a platform independent &#39;standard&#39; implementation of a Cpl::Io::File::Out...">
<polygon fill="white" stroke="#666666" points="540,-605 430,-605 430,-586 540,-586 540,-605"/>
<text text-anchor="middle" x="485" y="-593" font-family="Helvetica,sans-Serif" font-size="10.00">Cpl::Io::File::Output</text>
</a>
</g>
</g>
<!-- Node26&#45;&gt;Node27 -->
<g id="edge27_Node000026_Node000027" class="edge">
<title>Node26&#45;&gt;Node27</title>
<g id="a_edge27_Node000026_Node000027"><a xlink:title=" ">
<path fill="none" stroke="#63b8ff" d="M378.13,-595.5C395.42,-595.5 413.6,-595.5 429.93,-595.5"/>
<polygon fill="#63b8ff" stroke="#63b8ff" points="378.08,-592 368.08,-595.5 378.08,-599 378.08,-592"/>
</a>
</g>
</g>
<!-- Node29 -->
<g id="Node000029" class="node">
<title>Node29</title>
<g id="a_Node000029"><a xlink:href="class_cpl_1_1_io_1_1_stdio_1_1_std_err.html" target="_top" xlink:title="This concrete class represents the C&#45;library &#39;stderr&#39; stream.">
<polygon fill="white" stroke="#666666" points="541.5,-93 428.5,-93 428.5,-74 541.5,-74 541.5,-93"/>
<text text-anchor="middle" x="485" y="-81" font-family="Helvetica,sans-Serif" font-size="10.00">Cpl::Io::Stdio::StdErr</text>
</a>
</g>
</g>
<!-- Node28&#45;&gt;Node29 -->
<g id="edge30_Node000028_Node000029" class="edge">
<title>Node28&#45;&gt;Node29</title>
<g id="a_edge30_Node000028_Node000029"><a xlink:title=" ">
<path fill="none" stroke="#63b8ff" d="M376.6,-99.84C393.82,-97.22 412.02,-94.45 428.45,-91.95"/>
<polygon fill="#63b8ff" stroke="#63b8ff" points="375.95,-96.39 366.59,-101.36 377.01,-103.32 375.95,-96.39"/>
</a>
</g>
</g>
<!-- Node30 -->
<g id="Node000030" class="node">
<title>Node30</title>
<g id="a_Node000030"><a xlink:href="class_cpl_1_1_io_1_1_stdio_1_1_std_out.html" target="_top" xlink:title="This concrete class represents the C&#45;library &#39;stdout&#39; stream.">
<polygon fill="white" stroke="#666666" points="543.5,-56 426.5,-56 426.5,-37 543.5,-37 543.5,-56"/>
<text text-anchor="middle" x="485" y="-44" font-family="Helvetica,sans-Serif" font-size="10.00">Cpl::Io::Stdio::StdOut</text>
</a>
</g>
</g>
<!-- Node28&#45;&gt;Node30 -->
<g id="edge31_Node000028_Node000030" class="edge">
<title>Node28&#45;&gt;Node30</title>
<g id="a_edge31_Node000028_Node000030"><a xlink:title=" ">
<path fill="none" stroke="#63b8ff" d="M361.52,-97.75C365.82,-96.17 370.03,-94.43 374,-92.5 391.99,-83.76 391.97,-74.15 410,-65.5 417.89,-61.71 426.63,-58.62 435.26,-56.1"/>
<polygon fill="#63b8ff" stroke="#63b8ff" points="360.4,-94.43 352.03,-100.92 362.62,-101.07 360.4,-94.43"/>
</a>
</g>
</g>
</g>
</svg>
