<?xml version="1.0" encoding="UTF-8" standalone="no"?>
<!DOCTYPE svg PUBLIC "-//W3C//DTD SVG 1.1//EN"
 "http://www.w3.org/Graphics/SVG/1.1/DTD/svg11.dtd">
<!-- Generated by graphviz version 9.0.0 (20230911.1827)
 -->
<!-- Title: Cpl::Dm::Mp::BitArray16 Pages: 1 -->
<svg width="1484pt" height="120pt"
 viewBox="0.00 0.00 1483.75 119.50" xmlns="http://www.w3.org/2000/svg" xmlns:xlink="http://www.w3.org/1999/xlink">
<g id="graph0" class="graph" transform="scale(1 1) rotate(0) translate(4 115.5)">
<title>Cpl::Dm::Mp::BitArray16</title>
<!-- Node1 -->
<g id="Node000001" class="node">
<title>Node1</title>
<g id="a_Node000001"><a xlink:title="This template class provides a concrete implementation for a Point who&#39;s data is a a bit array of N b...">
<polygon fill="#999999" stroke="#666666" points="1475.75,-84.88 1358.5,-84.88 1358.5,-65.62 1475.75,-65.62 1475.75,-84.88"/>
<text text-anchor="middle" x="1417.12" y="-71.38" font-family="Helvetica,sans-Serif" font-size="10.00">Cpl::Dm::Mp::BitArray16</text>
</a>
</g>
</g>
<!-- Node2 -->
<g id="Node000002" class="node">
<title>Node2</title>
<g id="a_Node000002"><a xlink:href="class_cpl_1_1_dm_1_1_mp_1_1_bit_array__.html" target="_top" xlink:title=" ">
<polygon fill="white" stroke="#666666" points="1321.5,-90.5 1199,-90.5 1199,-60 1321.5,-60 1321.5,-90.5"/>
<text text-anchor="start" x="1207" y="-77" font-family="Helvetica,sans-Serif" font-size="10.00">Cpl::Dm::Mp::BitArray</text>
<text text-anchor="middle" x="1260.25" y="-65.75" font-family="Helvetica,sans-Serif" font-size="10.00">_&lt; uint16_t, BitArray16 &gt;</text>
</a>
</g>
</g>
<!-- Node2&#45;&gt;Node1 -->
<g id="edge1_Node000001_Node000002" class="edge">
<title>Node2&#45;&gt;Node1</title>
<g id="a_edge1_Node000001_Node000002"><a xlink:title=" ">
<path fill="none" stroke="#63b8ff" d="M1333.01,-75.25C1341.47,-75.25 1350.02,-75.25 1358.25,-75.25"/>
<polygon fill="#63b8ff" stroke="#63b8ff" points="1333.09,-71.75 1323.09,-75.25 1333.09,-78.75 1333.09,-71.75"/>
</a>
</g>
</g>
<!-- Node3 -->
<g id="Node000003" class="node">
<title>Node3</title>
<g id="a_Node000003"><a xlink:href="class_cpl_1_1_dm_1_1_mp_1_1_numeric.html" target="_top" xlink:title="This template class provides a mostly concrete implementation for a Model Point who&#39;s data is a C num...">
<polygon fill="white" stroke="#666666" points="739.25,-111.5 609.25,-111.5 609.25,-81 739.25,-81 739.25,-111.5"/>
<text text-anchor="start" x="617.25" y="-98" font-family="Helvetica,sans-Serif" font-size="10.00">Cpl::Dm::Mp::Numeric</text>
<text text-anchor="middle" x="674.25" y="-86.75" font-family="Helvetica,sans-Serif" font-size="10.00">&lt; ELEMTYPE, MPTYPE &gt;</text>
</a>
</g>
</g>
<!-- Node3&#45;&gt;Node2 -->
<g id="edge2_Node000002_Node000003" class="edge">
<title>Node3&#45;&gt;Node2</title>
<g id="a_edge2_Node000002_Node000003"><a xlink:title=" ">
<path fill="none" stroke="#63b8ff" d="M750.94,-95.61C849.89,-94.43 1028.54,-91.17 1181,-82.25 1186.72,-81.92 1192.67,-81.5 1198.62,-81.05"/>
<polygon fill="#63b8ff" stroke="#63b8ff" points="751.05,-92.1 741.09,-95.72 751.13,-99.1 751.05,-92.1"/>
</a>
</g>
</g>
<!-- Node4 -->
<g id="Node000004" class="node">
<title>Node4</title>
<g id="a_Node000004"><a xlink:href="class_cpl_1_1_dm_1_1_model_point_common__.html" target="_top" xlink:title="This concrete class provide common infrastructure for a Model Point.">
<polygon fill="white" stroke="#666666" points="424.25,-67.88 277,-67.88 277,-48.62 424.25,-48.62 424.25,-67.88"/>
<text text-anchor="middle" x="350.62" y="-54.38" font-family="Helvetica,sans-Serif" font-size="10.00">Cpl::Dm::ModelPointCommon_</text>
</a>
</g>
</g>
<!-- Node4&#45;&gt;Node3 -->
<g id="edge3_Node000003_Node000004" class="edge">
<title>Node4&#45;&gt;Node3</title>
<g id="a_edge3_Node000003_Node000004"><a xlink:title=" ">
<path fill="none" stroke="#63b8ff" d="M425.84,-70.02C431.39,-70.81 436.91,-71.56 442.25,-72.25 498.43,-79.5 562.53,-86.02 608.92,-90.43"/>
<polygon fill="#63b8ff" stroke="#63b8ff" points="426.35,-66.56 415.96,-68.59 425.35,-73.49 426.35,-66.56"/>
</a>
</g>
</g>
<!-- Node8 -->
<g id="Node000008" class="node">
<title>Node8</title>
<g id="a_Node000008"><a xlink:href="class_cpl_1_1_dm_1_1_mp_1_1_numeric.html" target="_top" xlink:title=" ">
<polygon fill="white" stroke="#666666" points="887.25,-68.5 757.25,-68.5 757.25,-38 887.25,-38 887.25,-68.5"/>
<text text-anchor="start" x="765.25" y="-55" font-family="Helvetica,sans-Serif" font-size="10.00">Cpl::Dm::Mp::Numeric</text>
<text text-anchor="middle" x="822.25" y="-43.75" font-family="Helvetica,sans-Serif" font-size="10.00">&lt; WORDSIZE, MPTYPE &gt;</text>
</a>
</g>
</g>
<!-- Node4&#45;&gt;Node8 -->
<g id="edge8_Node000008_Node000004" class="edge">
<title>Node4&#45;&gt;Node8</title>
<g id="a_edge8_Node000008_Node000004"><a xlink:title=" ">
<path fill="none" stroke="#63b8ff" d="M435.99,-57.35C528.13,-56.37 673.66,-54.82 756.98,-53.93"/>
<polygon fill="#63b8ff" stroke="#63b8ff" points="436.22,-53.85 426.26,-57.46 436.3,-60.85 436.22,-53.85"/>
</a>
</g>
</g>
<!-- Node9 -->
<g id="Node000009" class="node">
<title>Node9</title>
<g id="a_Node000009"><a xlink:href="class_cpl_1_1_dm_1_1_mp_1_1_numeric.html" target="_top" xlink:title="This template class provides a mostly concrete implementation for a Model Point who&#39;s data is a C num...">
<polygon fill="white" stroke="#666666" points="591.25,-30.5 461.25,-30.5 461.25,0 591.25,0 591.25,-30.5"/>
<text text-anchor="start" x="469.25" y="-17" font-family="Helvetica,sans-Serif" font-size="10.00">Cpl::Dm::Mp::Numeric</text>
<text text-anchor="middle" x="526.25" y="-5.75" font-family="Helvetica,sans-Serif" font-size="10.00">&lt; ELEMTYPE, MPTYPE &gt;</text>
</a>
</g>
</g>
<!-- Node4&#45;&gt;Node9 -->
<g id="edge10_Node000009_Node000004" class="edge">
<title>Node4&#45;&gt;Node9</title>
<g id="a_edge10_Node000009_Node000004"><a xlink:title=" ">
<path fill="none" stroke="#63b8ff" d="M403.38,-45.43C421.69,-40.9 442.51,-35.74 461.69,-30.99"/>
<polygon fill="#63b8ff" stroke="#63b8ff" points="402.67,-42 393.8,-47.8 404.35,-48.8 402.67,-42"/>
</a>
</g>
</g>
<!-- Node5 -->
<g id="Node000005" class="node">
<title>Node5</title>
<g id="a_Node000005"><a xlink:href="class_cpl_1_1_dm_1_1_model_point.html" target="_top" xlink:title="This mostly abstract class defines the interface for a Model Point.">
<polygon fill="white" stroke="#666666" points="240,-67.88 137,-67.88 137,-48.62 240,-48.62 240,-67.88"/>
<text text-anchor="middle" x="188.5" y="-54.38" font-family="Helvetica,sans-Serif" font-size="10.00">Cpl::Dm::ModelPoint</text>
</a>
</g>
</g>
<!-- Node5&#45;&gt;Node4 -->
<g id="edge4_Node000004_Node000005" class="edge">
<title>Node5&#45;&gt;Node4</title>
<g id="a_edge4_Node000004_Node000005"><a xlink:title=" ">
<path fill="none" stroke="#63b8ff" d="M251.6,-58.25C259.85,-58.25 268.36,-58.25 276.77,-58.25"/>
<polygon fill="#63b8ff" stroke="#63b8ff" points="251.68,-54.75 241.68,-58.25 251.68,-61.75 251.68,-54.75"/>
</a>
</g>
</g>
<!-- Node6 -->
<g id="Node000006" class="node">
<title>Node6</title>
<g id="a_Node000006"><a xlink:href="class_cpl_1_1_container_1_1_item.html" target="_top" xlink:title="This class is used by the Container classes to implement a various types of singly linked containers.">
<polygon fill="white" stroke="#666666" points="100,-67.88 0,-67.88 0,-48.62 100,-48.62 100,-67.88"/>
<text text-anchor="middle" x="50" y="-54.38" font-family="Helvetica,sans-Serif" font-size="10.00">Cpl::Container::Item</text>
</a>
</g>
</g>
<!-- Node6&#45;&gt;Node5 -->
<g id="edge5_Node000005_Node000006" class="edge">
<title>Node6&#45;&gt;Node5</title>
<g id="a_edge5_Node000005_Node000006"><a xlink:title=" ">
<path fill="none" stroke="#63b8ff" d="M111.64,-58.25C120.09,-58.25 128.68,-58.25 136.91,-58.25"/>
<polygon fill="#63b8ff" stroke="#63b8ff" points="111.79,-54.75 101.79,-58.25 111.79,-61.75 111.79,-54.75"/>
</a>
</g>
</g>
<!-- Node7 -->
<g id="Node000007" class="node">
<title>Node7</title>
<g id="a_Node000007"><a xlink:href="class_cpl_1_1_dm_1_1_mp_1_1_bit_array__.html" target="_top" xlink:title="This template class extends the Numeric&lt;&gt; class to provide bit operation on the numeric value.">
<polygon fill="white" stroke="#666666" points="1059.5,-68.5 924.25,-68.5 924.25,-38 1059.5,-38 1059.5,-68.5"/>
<text text-anchor="start" x="932.25" y="-55" font-family="Helvetica,sans-Serif" font-size="10.00">Cpl::Dm::Mp::BitArray</text>
<text text-anchor="middle" x="991.88" y="-43.75" font-family="Helvetica,sans-Serif" font-size="10.00">_&lt; WORDSIZE, MPTYPE &gt;</text>
</a>
</g>
</g>
<!-- Node7&#45;&gt;Node2 -->
<g id="edge6_Node000002_Node000007" class="edge">
<title>Node7&#45;&gt;Node2</title>
<g id="a_edge6_Node000002_Node000007"><a xlink:title=" ">
<path fill="none" stroke="orange" stroke-dasharray="5,2" d="M1071.01,-59.7C1111.77,-63.07 1160.89,-67.13 1198.73,-70.25"/>
<polygon fill="orange" stroke="orange" points="1071.51,-56.23 1061.26,-58.9 1070.94,-63.21 1071.51,-56.23"/>
</a>
</g>
<text text-anchor="middle" x="1129.25" y="-70" font-family="Helvetica,sans-Serif" font-size="10.00" fill="grey"> &lt; uint16_t, BitArray16 &gt;</text>
</g>
<!-- Node8&#45;&gt;Node7 -->
<g id="edge7_Node000007_Node000008" class="edge">
<title>Node8&#45;&gt;Node7</title>
<g id="a_edge7_Node000007_Node000008"><a xlink:title=" ">
<path fill="none" stroke="#63b8ff" d="M898.88,-53.25C907.23,-53.25 915.7,-53.25 923.94,-53.25"/>
<polygon fill="#63b8ff" stroke="#63b8ff" points="899.09,-49.75 889.09,-53.25 899.09,-56.75 899.09,-49.75"/>
</a>
</g>
</g>
<!-- Node9&#45;&gt;Node8 -->
<g id="edge9_Node000008_Node000009" class="edge">
<title>Node9&#45;&gt;Node8</title>
<g id="a_edge9_Node000008_Node000009"><a xlink:title=" ">
<path fill="none" stroke="orange" stroke-dasharray="5,2" d="M603.03,-18.67C643.62,-21.24 694.37,-25.63 739.25,-33 746.77,-34.24 754.63,-35.81 762.36,-37.52"/>
<polygon fill="orange" stroke="orange" points="603.29,-15.18 593.1,-18.07 602.87,-22.17 603.29,-15.18"/>
</a>
</g>
<text text-anchor="middle" x="674.25" y="-35" font-family="Helvetica,sans-Serif" font-size="10.00" fill="grey"> &lt; WORDSIZE, MPTYPE &gt;</text>
</g>
</g>
</svg>
