<?xml version="1.0" encoding="UTF-8" standalone="no"?>
<!DOCTYPE svg PUBLIC "-//W3C//DTD SVG 1.1//EN"
 "http://www.w3.org/Graphics/SVG/1.1/DTD/svg11.dtd">
<!-- Generated by graphviz version 2.43.0 (0)
 -->
<!-- Title: Cpl::Itc::OpenSync Pages: 1 -->
<svg width="948pt" height="502pt"
 viewBox="0.00 0.00 948.00 502.00" xmlns="http://www.w3.org/2000/svg" xmlns:xlink="http://www.w3.org/1999/xlink">
<g id="graph0" class="graph" transform="scale(1 1) rotate(0) translate(4 498)">
<title>Cpl::Itc::OpenSync</title>
<!-- Node1 -->
<g id="Node000001" class="node">
<title>Node1</title>
<g id="a_Node000001"><a xlink:title="This partially concrete class implements the synchronous ITC open call for the OpenApi.">
<polygon fill="#999999" stroke="#666666" points="264,-254.5 159,-254.5 159,-235.5 264,-235.5 264,-254.5"/>
<text text-anchor="middle" x="211.5" y="-242.5" font-family="Helvetica,sans-Serif" font-size="10.00">Cpl::Itc::OpenSync</text>
</a>
</g>
</g>
<!-- Node4 -->
<g id="Node000004" class="node">
<title>Node4</title>
<g id="a_Node000004"><a xlink:href="class_cpl_1_1_itc_1_1_close_sync.html" target="_top" xlink:title="This partially concrete class implements the synchronous ITC close call for the CloseApi.">
<polygon fill="white" stroke="#666666" points="408,-254.5 301,-254.5 301,-235.5 408,-235.5 408,-254.5"/>
<text text-anchor="middle" x="354.5" y="-242.5" font-family="Helvetica,sans-Serif" font-size="10.00">Cpl::Itc::CloseSync</text>
</a>
</g>
</g>
<!-- Node1&#45;&gt;Node4 -->
<g id="edge3_Node000001_Node000004" class="edge">
<title>Node1&#45;&gt;Node4</title>
<g id="a_edge3_Node000001_Node000004"><a xlink:title=" ">
<path fill="none" stroke="#63b8ff" d="M274.43,-245C283.25,-245 292.24,-245 300.86,-245"/>
<polygon fill="#63b8ff" stroke="#63b8ff" points="274.2,-241.5 264.2,-245 274.2,-248.5 274.2,-241.5"/>
</a>
</g>
</g>
<!-- Node2 -->
<g id="Node000002" class="node">
<title>Node2</title>
<g id="a_Node000002"><a xlink:href="class_cpl_1_1_itc_1_1_open_api.html" target="_top" xlink:title="This abstract class defines an open interface.">
<polygon fill="white" stroke="#666666" points="110,-273.5 12,-273.5 12,-254.5 110,-254.5 110,-273.5"/>
<text text-anchor="middle" x="61" y="-261.5" font-family="Helvetica,sans-Serif" font-size="10.00">Cpl::Itc::OpenApi</text>
</a>
</g>
</g>
<!-- Node2&#45;&gt;Node1 -->
<g id="edge1_Node000001_Node000002" class="edge">
<title>Node2&#45;&gt;Node1</title>
<g id="a_edge1_Node000001_Node000002"><a xlink:title=" ">
<path fill="none" stroke="#63b8ff" d="M120.28,-256.54C133.04,-254.91 146.47,-253.19 158.95,-251.6"/>
<polygon fill="#63b8ff" stroke="#63b8ff" points="119.69,-253.09 110.21,-257.83 120.58,-260.03 119.69,-253.09"/>
</a>
</g>
</g>
<!-- Node3 -->
<g id="Node000003" class="node">
<title>Node3</title>
<g id="a_Node000003"><a xlink:href="class_cpl_1_1_itc_1_1_open_request.html" target="_top" xlink:title="This abstract class define message types and payloads for a set of ITC services.">
<polygon fill="white" stroke="#666666" points="122,-236.5 0,-236.5 0,-217.5 122,-217.5 122,-236.5"/>
<text text-anchor="middle" x="61" y="-224.5" font-family="Helvetica,sans-Serif" font-size="10.00">Cpl::Itc::OpenRequest</text>
</a>
</g>
</g>
<!-- Node3&#45;&gt;Node1 -->
<g id="edge2_Node000001_Node000003" class="edge">
<title>Node3&#45;&gt;Node1</title>
<g id="a_edge2_Node000001_Node000003"><a xlink:title=" ">
<path fill="none" stroke="#63b8ff" d="M132.37,-235.53C141.25,-236.61 150.2,-237.69 158.72,-238.72"/>
<polygon fill="#63b8ff" stroke="#63b8ff" points="132.75,-232.05 122.4,-234.32 131.91,-239 132.75,-232.05"/>
</a>
</g>
</g>
<!-- Node5 -->
<g id="Node000005" class="node">
<title>Node5</title>
<g id="a_Node000005"><a xlink:href="class_cpl_1_1_persistent_1_1_indexed_entry_server.html" target="_top" xlink:title=" ">
<polygon fill="white" stroke="#666666" points="940,-191.5 795,-191.5 795,-150.5 940,-150.5 940,-191.5"/>
<text text-anchor="start" x="803" y="-179.5" font-family="Helvetica,sans-Serif" font-size="10.00">Cpl::Persistent::Indexed</text>
<text text-anchor="start" x="803" y="-168.5" font-family="Helvetica,sans-Serif" font-size="10.00">EntryServer&lt; Cpl::Logging</text>
<text text-anchor="middle" x="867.5" y="-157.5" font-family="Helvetica,sans-Serif" font-size="10.00">::EntryData_T &gt;</text>
</a>
</g>
</g>
<!-- Node4&#45;&gt;Node5 -->
<g id="edge4_Node000004_Node000005" class="edge">
<title>Node4&#45;&gt;Node5</title>
<g id="a_edge4_Node000004_Node000005"><a xlink:title=" ">
<path fill="none" stroke="#63b8ff" d="M362.1,-225.68C373.56,-195.58 400.28,-138.5 445,-115 571.11,-48.71 746.64,-114.2 825.4,-150.45"/>
<polygon fill="#63b8ff" stroke="#63b8ff" points="358.68,-224.84 358.56,-235.44 365.26,-227.23 358.68,-224.84"/>
</a>
</g>
</g>
<!-- Node6 -->
<g id="Node000006" class="node">
<title>Node6</title>
<g id="a_Node000006"><a xlink:href="class_ajax_1_1_alerts_1_1_summary.html" target="_top" xlink:title="This class manages the content of the Alert Summary model point.">
<polygon fill="white" stroke="#666666" points="589,-451.5 463,-451.5 463,-432.5 589,-432.5 589,-451.5"/>
<text text-anchor="middle" x="526" y="-439.5" font-family="Helvetica,sans-Serif" font-size="10.00">Ajax::Alerts::Summary</text>
</a>
</g>
</g>
<!-- Node4&#45;&gt;Node6 -->
<g id="edge5_Node000004_Node000006" class="edge">
<title>Node4&#45;&gt;Node6</title>
<g id="a_edge5_Node000004_Node000006"><a xlink:title=" ">
<path fill="none" stroke="#63b8ff" d="M359.5,-264.66C368.14,-301.89 392.19,-382.66 445,-424 450.27,-428.12 456.3,-431.34 462.63,-433.84"/>
<polygon fill="#63b8ff" stroke="#63b8ff" points="362.85,-263.61 357.29,-254.59 356.01,-265.11 362.85,-263.61"/>
</a>
</g>
</g>
<!-- Node7 -->
<g id="Node000007" class="node">
<title>Node7</title>
<g id="a_Node000007"><a xlink:href="class_ajax_1_1_heating_1_1_io_1_1_api.html" target="_top" xlink:title="This class is responsible for &#39;translating&#39; physical hardware signal to/from model point values.">
<polygon fill="white" stroke="#666666" points="585.5,-414.5 466.5,-414.5 466.5,-395.5 585.5,-395.5 585.5,-414.5"/>
<text text-anchor="middle" x="526" y="-402.5" font-family="Helvetica,sans-Serif" font-size="10.00">Ajax::Heating::Io::Api</text>
</a>
</g>
</g>
<!-- Node4&#45;&gt;Node7 -->
<g id="edge6_Node000004_Node000007" class="edge">
<title>Node4&#45;&gt;Node7</title>
<g id="a_edge6_Node000004_Node000007"><a xlink:title=" ">
<path fill="none" stroke="#63b8ff" d="M362.22,-264.25C373.98,-294.99 401.28,-354.84 445,-386 451.39,-390.56 458.73,-394.03 466.32,-396.68"/>
<polygon fill="#63b8ff" stroke="#63b8ff" points="365.44,-262.87 358.71,-254.69 358.87,-265.28 365.44,-262.87"/>
</a>
</g>
</g>
<!-- Node8 -->
<g id="Node000008" class="node">
<title>Node8</title>
<g id="a_Node000008"><a xlink:href="class_ajax_1_1_heating_1_1_supervisor_1_1_api.html" target="_top" xlink:title="This class implements the Heating Algorithm Supervisor.">
<polygon fill="white" stroke="#666666" points="607,-488.5 445,-488.5 445,-469.5 607,-469.5 607,-488.5"/>
<text text-anchor="middle" x="526" y="-476.5" font-family="Helvetica,sans-Serif" font-size="10.00">Ajax::Heating::Supervisor::Api</text>
</a>
</g>
</g>
<!-- Node4&#45;&gt;Node8 -->
<g id="edge7_Node000004_Node000008" class="edge">
<title>Node4&#45;&gt;Node8</title>
<g id="a_edge7_Node000004_Node000008"><a xlink:title=" ">
<path fill="none" stroke="#63b8ff" d="M357.47,-264.68C362.89,-307.68 382.08,-410.21 445,-461 449.21,-464.4 453.93,-467.18 458.92,-469.46"/>
<polygon fill="#63b8ff" stroke="#63b8ff" points="360.94,-264.2 356.33,-254.66 353.98,-264.99 360.94,-264.2"/>
</a>
</g>
</g>
<!-- Node10 -->
<g id="Node000010" class="node">
<title>Node10</title>
<g id="a_Node000010"><a xlink:href="class_ajax_1_1_metrics_1_1_api.html" target="_top" xlink:title="This class manages the collection of Metrics and triggering their updates to persistent storage.">
<polygon fill="white" stroke="#666666" points="577,-328.5 475,-328.5 475,-309.5 577,-309.5 577,-328.5"/>
<text text-anchor="middle" x="526" y="-316.5" font-family="Helvetica,sans-Serif" font-size="10.00">Ajax::Metrics::Api</text>
</a>
</g>
</g>
<!-- Node4&#45;&gt;Node10 -->
<g id="edge9_Node000004_Node000010" class="edge">
<title>Node4&#45;&gt;Node10</title>
<g id="a_edge9_Node000004_Node000010"><a xlink:title=" ">
<path fill="none" stroke="#63b8ff" d="M376.09,-260.72C393.56,-273.34 419.74,-290.61 445,-301 454.35,-304.84 464.66,-307.94 474.69,-310.41"/>
<polygon fill="#63b8ff" stroke="#63b8ff" points="377.93,-257.73 367.8,-254.61 373.77,-263.36 377.93,-257.73"/>
</a>
</g>
</g>
<!-- Node11 -->
<g id="Node000011" class="node">
<title>Node11</title>
<g id="a_Node000011"><a xlink:href="class_ajax_1_1_screen_mgr_1_1_api.html" target="_top" xlink:title="This class implements the Screen Manager.">
<polygon fill="white" stroke="#666666" points="585,-291.5 467,-291.5 467,-272.5 585,-272.5 585,-291.5"/>
<text text-anchor="middle" x="526" y="-279.5" font-family="Helvetica,sans-Serif" font-size="10.00">Ajax::ScreenMgr::Api</text>
</a>
</g>
</g>
<!-- Node4&#45;&gt;Node11 -->
<g id="edge10_Node000004_Node000011" class="edge">
<title>Node4&#45;&gt;Node11</title>
<g id="a_edge10_Node000004_Node000011"><a xlink:title=" ">
<path fill="none" stroke="#63b8ff" d="M409.19,-256.72C432.4,-261.79 459.22,-267.64 481.2,-272.44"/>
<polygon fill="#63b8ff" stroke="#63b8ff" points="409.67,-253.24 399.15,-254.53 408.17,-260.08 409.67,-253.24"/>
</a>
</g>
</g>
<!-- Node12 -->
<g id="Node000012" class="node">
<title>Node12</title>
<g id="a_Node000012"><a xlink:href="class_ajax_1_1_ui_1_1_logical_buttons.html" target="_top" xlink:title="This concrete class translates physical button actions into logical UI Button events.">
<polygon fill="white" stroke="#666666" points="592.5,-254.5 459.5,-254.5 459.5,-235.5 592.5,-235.5 592.5,-254.5"/>
<text text-anchor="middle" x="526" y="-242.5" font-family="Helvetica,sans-Serif" font-size="10.00">Ajax::Ui::LogicalButtons</text>
</a>
</g>
</g>
<!-- Node4&#45;&gt;Node12 -->
<g id="edge11_Node000004_Node000012" class="edge">
<title>Node4&#45;&gt;Node12</title>
<g id="a_edge11_Node000004_Node000012"><a xlink:title=" ">
<path fill="none" stroke="#63b8ff" d="M418.29,-245C431.73,-245 445.95,-245 459.48,-245"/>
<polygon fill="#63b8ff" stroke="#63b8ff" points="418.2,-241.5 408.2,-245 418.2,-248.5 418.2,-241.5"/>
</a>
</g>
</g>
<!-- Node13 -->
<g id="Node000013" class="node">
<title>Node13</title>
<g id="a_Node000013"><a xlink:href="class_ajax_1_1_ui_1_1_status_indicator_1_1_api.html" target="_top" xlink:title="This class manages the what color/on&#45;off&#45;state of the RGB LED.">
<polygon fill="white" stroke="#666666" points="604,-217.5 448,-217.5 448,-198.5 604,-198.5 604,-217.5"/>
<text text-anchor="middle" x="526" y="-205.5" font-family="Helvetica,sans-Serif" font-size="10.00">Ajax::Ui::StatusIndicator::Api</text>
</a>
</g>
</g>
<!-- Node4&#45;&gt;Node13 -->
<g id="edge12_Node000004_Node000013" class="edge">
<title>Node4&#45;&gt;Node13</title>
<g id="a_edge12_Node000004_Node000013"><a xlink:title=" ">
<path fill="none" stroke="#63b8ff" d="M409.19,-233.28C432.4,-228.21 459.22,-222.36 481.2,-217.56"/>
<polygon fill="#63b8ff" stroke="#63b8ff" points="408.17,-229.92 399.15,-235.47 409.67,-236.76 408.17,-229.92"/>
</a>
</g>
</g>
<!-- Node14 -->
<g id="Node000014" class="node">
<title>Node14</title>
<g id="a_Node000014"><a xlink:href="class_cpl_1_1_logging_1_1_log_sink.html" target="_top" xlink:title="This class is responsible for consuming the application&#39;s Log buffer and &#39;dispatching&#39; log entries.">
<polygon fill="white" stroke="#666666" points="586.5,-180.5 465.5,-180.5 465.5,-161.5 586.5,-161.5 586.5,-180.5"/>
<text text-anchor="middle" x="526" y="-168.5" font-family="Helvetica,sans-Serif" font-size="10.00">Cpl::Logging::LogSink</text>
</a>
</g>
</g>
<!-- Node4&#45;&gt;Node14 -->
<g id="edge13_Node000004_Node000014" class="edge">
<title>Node4&#45;&gt;Node14</title>
<g id="a_edge13_Node000004_Node000014"><a xlink:title=" ">
<path fill="none" stroke="#63b8ff" d="M376.09,-229.28C393.56,-216.66 419.74,-199.39 445,-189 453.16,-185.64 462.06,-182.86 470.87,-180.56"/>
<polygon fill="#63b8ff" stroke="#63b8ff" points="373.77,-226.64 367.8,-235.39 377.93,-232.27 373.77,-226.64"/>
</a>
</g>
</g>
<!-- Node15 -->
<g id="Node000015" class="node">
<title>Node15</title>
<g id="a_Node000015"><a xlink:href="class_cpl_1_1_m_app_1_1_manager.html" target="_top" xlink:title="This concrete class implements the MApp Manager.">
<polygon fill="white" stroke="#666666" points="583.5,-143.5 468.5,-143.5 468.5,-124.5 583.5,-124.5 583.5,-143.5"/>
<text text-anchor="middle" x="526" y="-131.5" font-family="Helvetica,sans-Serif" font-size="10.00">Cpl::MApp::Manager</text>
</a>
</g>
</g>
<!-- Node4&#45;&gt;Node15 -->
<g id="edge14_Node000004_Node000015" class="edge">
<title>Node4&#45;&gt;Node15</title>
<g id="a_edge14_Node000004_Node000015"><a xlink:title=" ">
<path fill="none" stroke="#63b8ff" d="M367.61,-227.13C383.02,-205.83 411.69,-170.76 445,-152 452.19,-147.95 460.24,-144.81 468.37,-142.37"/>
<polygon fill="#63b8ff" stroke="#63b8ff" points="364.73,-225.14 361.84,-235.33 370.46,-229.16 364.73,-225.14"/>
</a>
</g>
</g>
<!-- Node16 -->
<g id="Node000016" class="node">
<title>Node16</title>
<g id="a_Node000016"><a xlink:href="class_cpl_1_1_persistent_1_1_indexed_entry_server.html" target="_top" xlink:title="This concrete template class implements the ITC messaging (and Model Point monitoring) needed to prov...">
<polygon fill="white" stroke="#666666" points="591.5,-377 460.5,-377 460.5,-347 591.5,-347 591.5,-377"/>
<text text-anchor="start" x="468.5" y="-365" font-family="Helvetica,sans-Serif" font-size="10.00">Cpl::Persistent::Indexed</text>
<text text-anchor="middle" x="526" y="-354" font-family="Helvetica,sans-Serif" font-size="10.00">EntryServer&lt; ENTRY &gt;</text>
</a>
</g>
</g>
<!-- Node4&#45;&gt;Node16 -->
<g id="edge15_Node000004_Node000016" class="edge">
<title>Node4&#45;&gt;Node16</title>
<g id="a_edge15_Node000004_Node000016"><a xlink:title=" ">
<path fill="none" stroke="#63b8ff" d="M368.29,-263.09C384.03,-284.06 412.68,-318.27 445,-338 450.57,-341.4 456.65,-344.35 462.9,-346.89"/>
<polygon fill="#63b8ff" stroke="#63b8ff" points="370.91,-260.74 362.18,-254.74 365.26,-264.87 370.91,-260.74"/>
</a>
</g>
</g>
<!-- Node17 -->
<g id="Node000017" class="node">
<title>Node17</title>
<g id="a_Node000017"><a xlink:href="class_cpl_1_1_persistent_1_1_record_server.html" target="_top" xlink:title="This concrete class provides an Event driven Runnable object for executing the read/write operation t...">
<polygon fill="white" stroke="#666666" points="605,-67.5 447,-67.5 447,-48.5 605,-48.5 605,-67.5"/>
<text text-anchor="middle" x="526" y="-55.5" font-family="Helvetica,sans-Serif" font-size="10.00">Cpl::Persistent::RecordServer</text>
</a>
</g>
</g>
<!-- Node4&#45;&gt;Node17 -->
<g id="edge17_Node000004_Node000017" class="edge">
<title>Node4&#45;&gt;Node17</title>
<g id="a_edge17_Node000004_Node000017"><a xlink:title=" ">
<path fill="none" stroke="#63b8ff" d="M358.33,-224.88C364.31,-190.25 381.52,-119.48 426,-82 433.44,-75.73 442.25,-71.05 451.5,-67.56"/>
<polygon fill="#63b8ff" stroke="#63b8ff" points="354.82,-224.72 356.71,-235.14 361.73,-225.81 354.82,-224.72"/>
</a>
</g>
</g>
<!-- Node18 -->
<g id="Node000018" class="node">
<title>Node18</title>
<g id="a_Node000018"><a xlink:href="class_driver_1_1_a_i_o_1_1_ajax_1_1_thermistor.html" target="_top" xlink:title="This class is responsible for sampling the on&#45;board temperature sensor every N milliseconds and popul...">
<polygon fill="white" stroke="#666666" points="578,-30 474,-30 474,0 578,0 578,-30"/>
<text text-anchor="start" x="482" y="-18" font-family="Helvetica,sans-Serif" font-size="10.00">Driver::AIO::Ajax::</text>
<text text-anchor="middle" x="526" y="-7" font-family="Helvetica,sans-Serif" font-size="10.00">Thermistor</text>
</a>
</g>
</g>
<!-- Node4&#45;&gt;Node18 -->
<g id="edge18_Node000004_Node000018" class="edge">
<title>Node4&#45;&gt;Node18</title>
<g id="a_edge18_Node000004_Node000018"><a xlink:title=" ">
<path fill="none" stroke="#63b8ff" d="M358.2,-225.42C364.93,-184.34 386.34,-88.86 445,-39 453.18,-32.05 463.31,-27.11 473.59,-23.61"/>
<polygon fill="#63b8ff" stroke="#63b8ff" points="354.71,-225.07 356.67,-235.48 361.63,-226.12 354.71,-225.07"/>
</a>
</g>
</g>
<!-- Node9 -->
<g id="Node000009" class="node">
<title>Node9</title>
<g id="a_Node000009"><a xlink:href="class_ajax_1_1_heating_1_1_simulated_1_1_house.html" target="_top" xlink:title="This class glues the House Simulation into the Heater Application.">
<polygon fill="white" stroke="#666666" points="936.5,-494 798.5,-494 798.5,-464 936.5,-464 936.5,-494"/>
<text text-anchor="start" x="806.5" y="-482" font-family="Helvetica,sans-Serif" font-size="10.00">Ajax::Heating::Simulated</text>
<text text-anchor="middle" x="867.5" y="-471" font-family="Helvetica,sans-Serif" font-size="10.00">::House</text>
</a>
</g>
</g>
<!-- Node8&#45;&gt;Node9 -->
<g id="edge8_Node000008_Node000009" class="edge">
<title>Node8&#45;&gt;Node9</title>
<g id="a_edge8_Node000008_Node000009"><a xlink:title=" ">
<path fill="none" stroke="#63b8ff" d="M617.1,-479C674.01,-479 746.36,-479 798.46,-479"/>
<polygon fill="#63b8ff" stroke="#63b8ff" points="617.03,-475.5 607.03,-479 617.03,-482.5 617.03,-475.5"/>
</a>
</g>
</g>
<!-- Node16&#45;&gt;Node5 -->
<g id="edge16_Node000016_Node000005" class="edge">
<title>Node16&#45;&gt;Node5</title>
<g id="a_edge16_Node000016_Node000005"><a xlink:title=" ">
<path fill="none" stroke="orange" stroke-dasharray="5,2" d="M594.21,-343.36C598.59,-341.68 602.89,-339.89 607,-338 698,-296.09 794.52,-226.3 839.94,-191.72"/>
<polygon fill="orange" stroke="orange" points="592.75,-340.17 584.54,-346.87 595.13,-346.75 592.75,-340.17"/>
</a>
</g>
<text text-anchor="middle" x="701" y="-330" font-family="Helvetica,sans-Serif" font-size="10.00" fill="grey"> &lt; Cpl::Logging::EntryData_T &gt;</text>
</g>
<!-- Node19 -->
<g id="Node000019" class="node">
<title>Node19</title>
<g id="a_Node000019"><a xlink:href="class_driver_1_1_a_i_o_1_1_eros_1_1_thermistor.html" target="_top" xlink:title="This class is an Eros specific extension of the Driver::AIO::Ajax::Thermistor driver.">
<polygon fill="white" stroke="#666666" points="919,-30 816,-30 816,0 919,0 919,-30"/>
<text text-anchor="start" x="824" y="-18" font-family="Helvetica,sans-Serif" font-size="10.00">Driver::AIO::Eros::</text>
<text text-anchor="middle" x="867.5" y="-7" font-family="Helvetica,sans-Serif" font-size="10.00">Thermistor</text>
</a>
</g>
</g>
<!-- Node18&#45;&gt;Node19 -->
<g id="edge19_Node000018_Node000019" class="edge">
<title>Node18&#45;&gt;Node19</title>
<g id="a_edge19_Node000018_Node000019"><a xlink:title=" ">
<path fill="none" stroke="#63b8ff" d="M588.33,-15C653.48,-15 755.3,-15 816,-15"/>
<polygon fill="#63b8ff" stroke="#63b8ff" points="588.19,-11.5 578.19,-15 588.19,-18.5 588.19,-11.5"/>
</a>
</g>
</g>
</g>
</svg>
