<?xml version="1.0" encoding="UTF-8" standalone="no"?>
<!DOCTYPE svg PUBLIC "-//W3C//DTD SVG 1.1//EN"
 "http://www.w3.org/Graphics/SVG/1.1/DTD/svg11.dtd">
<!-- Generated by graphviz version 9.0.0 (20230911.1827)
 -->
<!-- Title: Cpl::Text::FString_ Pages: 1 -->
<svg width="987pt" height="375pt"
 viewBox="0.00 0.00 987.00 374.88" xmlns="http://www.w3.org/2000/svg" xmlns:xlink="http://www.w3.org/1999/xlink">
<g id="graph0" class="graph" transform="scale(1 1) rotate(0) translate(4 370.88)">
<title>Cpl::Text::FString_</title>
<!-- Node1 -->
<g id="Node000001" class="node">
<title>Node1</title>
<g id="a_Node000001"><a xlink:title="This mostly concrete class implements a &quot;fixed storage&quot; String Type.">
<polygon fill="#999999" stroke="#666666" points="475,-159.25 380.25,-159.25 380.25,-140 475,-140 475,-159.25"/>
<text text-anchor="middle" x="427.62" y="-145.75" font-family="Helvetica,sans-Serif" font-size="10.00">Cpl::Text::FString_</text>
</a>
</g>
</g>
<!-- Node5 -->
<g id="Node000005" class="node">
<title>Node5</title>
<g id="a_Node000005"><a xlink:href="class_cpl_1_1_text_1_1_f_string.html" target="_top" xlink:title=" ">
<polygon fill="white" stroke="#666666" points="971.5,-293.88 816.75,-293.88 816.75,-263.38 971.5,-263.38 971.5,-293.88"/>
<text text-anchor="start" x="824.75" y="-280.38" font-family="Helvetica,sans-Serif" font-size="10.00">Cpl::Text::FString</text>
<text text-anchor="middle" x="894.12" y="-269.12" font-family="Helvetica,sans-Serif" font-size="10.00">&lt; CPL_IO_FILE_MAX_NAME &gt;</text>
</a>
</g>
</g>
<!-- Node1&#45;&gt;Node5 -->
<g id="edge4_Node000001_Node000005" class="edge">
<title>Node1&#45;&gt;Node5</title>
<g id="a_edge4_Node000001_Node000005"><a xlink:title=" ">
<path fill="none" stroke="#63b8ff" d="M443.15,-167.94C474.61,-205.87 553.42,-291.85 642.75,-320.62 705.57,-340.86 726.51,-333.45 791.25,-320.62 816.77,-315.57 843.93,-304.03 863.78,-294.33"/>
<polygon fill="#63b8ff" stroke="#63b8ff" points="446.18,-166.12 437.15,-160.58 440.75,-170.54 446.18,-166.12"/>
</a>
</g>
</g>
<!-- Node6 -->
<g id="Node000006" class="node">
<title>Node6</title>
<g id="a_Node000006"><a xlink:href="class_cpl_1_1_text_1_1_f_string.html" target="_top" xlink:title=" ">
<polygon fill="white" stroke="#666666" points="938.88,-366.88 849.38,-366.88 849.38,-336.38 938.88,-336.38 938.88,-366.88"/>
<text text-anchor="start" x="857.38" y="-353.38" font-family="Helvetica,sans-Serif" font-size="10.00">Cpl::Text::FString</text>
<text text-anchor="middle" x="894.12" y="-342.12" font-family="Helvetica,sans-Serif" font-size="10.00">&lt; 64 &gt;</text>
</a>
</g>
</g>
<!-- Node1&#45;&gt;Node6 -->
<g id="edge5_Node000001_Node000006" class="edge">
<title>Node1&#45;&gt;Node6</title>
<g id="a_edge5_Node000001_Node000006"><a xlink:title=" ">
<path fill="none" stroke="#63b8ff" d="M435.78,-170.3C447.28,-200.7 472.67,-257.43 512,-290.62 609.04,-372.53 771.25,-366.6 848.98,-358"/>
<polygon fill="#63b8ff" stroke="#63b8ff" points="439.15,-169.33 432.45,-161.13 432.57,-171.72 439.15,-169.33"/>
</a>
</g>
</g>
<!-- Node7 -->
<g id="Node000007" class="node">
<title>Node7</title>
<g id="a_Node000007"><a xlink:href="class_cpl_1_1_text_1_1_f_string.html" target="_top" xlink:title=" ">
<polygon fill="white" stroke="#666666" points="979,-185.88 809.25,-185.88 809.25,-155.38 979,-155.38 979,-185.88"/>
<text text-anchor="start" x="817.25" y="-172.38" font-family="Helvetica,sans-Serif" font-size="10.00">Cpl::Text::FString</text>
<text text-anchor="middle" x="894.12" y="-161.12" font-family="Helvetica,sans-Serif" font-size="10.00">&lt; configMAX_TASK_NAME_LEN &gt;</text>
</a>
</g>
</g>
<!-- Node1&#45;&gt;Node7 -->
<g id="edge6_Node000001_Node000007" class="edge">
<title>Node1&#45;&gt;Node7</title>
<g id="a_edge6_Node000001_Node000007"><a xlink:title=" ">
<path fill="none" stroke="#63b8ff" d="M458.74,-135.01C522.29,-106.29 673.89,-49.01 791.25,-93.62 801.25,-97.43 800.91,-102.91 809.25,-109.62 829.31,-125.77 853.13,-142.91 870.25,-154.9"/>
<polygon fill="#63b8ff" stroke="#63b8ff" points="457.61,-131.68 450,-139.05 460.54,-138.03 457.61,-131.68"/>
</a>
</g>
</g>
<!-- Node8 -->
<g id="Node000008" class="node">
<title>Node8</title>
<g id="a_Node000008"><a xlink:href="class_cpl_1_1_text_1_1_f_string.html" target="_top" xlink:title=" ">
<polygon fill="white" stroke="#666666" points="976.38,-100.5 811.88,-100.5 811.88,-58.75 976.38,-58.75 976.38,-100.5"/>
<text text-anchor="start" x="819.88" y="-87" font-family="Helvetica,sans-Serif" font-size="10.00">Cpl::Text::FString</text>
<text text-anchor="start" x="819.88" y="-75.75" font-family="Helvetica,sans-Serif" font-size="10.00">&lt; OPTION_CPL_TSHELL</text>
<text text-anchor="middle" x="894.12" y="-64.5" font-family="Helvetica,sans-Serif" font-size="10.00">_PROCESSOR_OUTPUT_SIZE &gt;</text>
</a>
</g>
</g>
<!-- Node1&#45;&gt;Node8 -->
<g id="edge7_Node000001_Node000008" class="edge">
<title>Node1&#45;&gt;Node8</title>
<g id="a_edge7_Node000001_Node000008"><a xlink:title=" ">
<path fill="none" stroke="#63b8ff" d="M444,-131.14C459.28,-114.28 484.37,-90.41 512,-79.62 609.54,-41.55 732.13,-50.55 811.52,-62.97"/>
<polygon fill="#63b8ff" stroke="#63b8ff" points="441.51,-128.68 437.57,-138.51 446.78,-133.28 441.51,-128.68"/>
</a>
</g>
</g>
<!-- Node9 -->
<g id="Node000009" class="node">
<title>Node9</title>
<g id="a_Node000009"><a xlink:href="class_cpl_1_1_text_1_1_f_string.html" target="_top" xlink:title=" ">
<polygon fill="white" stroke="#666666" points="971.12,-245.5 817.12,-245.5 817.12,-203.75 971.12,-203.75 971.12,-245.5"/>
<text text-anchor="start" x="825.12" y="-232" font-family="Helvetica,sans-Serif" font-size="10.00">Cpl::Text::FString</text>
<text text-anchor="start" x="825.12" y="-220.75" font-family="Helvetica,sans-Serif" font-size="10.00">&lt; OPTION_CPL_TSHELL</text>
<text text-anchor="middle" x="894.12" y="-209.5" font-family="Helvetica,sans-Serif" font-size="10.00">_PROCESSOR_INPUT_SIZE &gt;</text>
</a>
</g>
</g>
<!-- Node1&#45;&gt;Node9 -->
<g id="edge8_Node000001_Node000009" class="edge">
<title>Node1&#45;&gt;Node9</title>
<g id="a_edge8_Node000001_Node000009"><a xlink:title=" ">
<path fill="none" stroke="#63b8ff" d="M486.61,-146.58C575.54,-142.92 740.62,-140.38 791.25,-168.62 803.52,-175.47 798.1,-186.07 809.25,-194.62 813.42,-197.83 817.97,-200.7 822.71,-203.29"/>
<polygon fill="#63b8ff" stroke="#63b8ff" points="486.73,-143.07 476.89,-147 487.03,-150.07 486.73,-143.07"/>
</a>
</g>
</g>
<!-- Node10 -->
<g id="Node000010" class="node">
<title>Node10</title>
<g id="a_Node000010"><a xlink:href="class_cpl_1_1_text_1_1_d_f_string.html" target="_top" xlink:title="This concrete class is a mix of FString and a DString &#45; the initial memory is dynamically allocated &#45;...">
<polygon fill="white" stroke="#666666" points="616.5,-19.25 520.25,-19.25 520.25,0 616.5,0 616.5,-19.25"/>
<text text-anchor="middle" x="568.38" y="-5.75" font-family="Helvetica,sans-Serif" font-size="10.00">Cpl::Text::DFString</text>
</a>
</g>
</g>
<!-- Node1&#45;&gt;Node10 -->
<g id="edge9_Node000001_Node000010" class="edge">
<title>Node1&#45;&gt;Node10</title>
<g id="a_edge9_Node000001_Node000010"><a xlink:title=" ">
<path fill="none" stroke="#63b8ff" d="M434.88,-128.78C443.72,-102.83 462.28,-58.88 493,-33.62 500.76,-27.25 510.24,-22.55 519.81,-19.1"/>
<polygon fill="#63b8ff" stroke="#63b8ff" points="431.6,-127.57 431.87,-138.16 438.26,-129.71 431.6,-127.57"/>
</a>
</g>
</g>
<!-- Node11 -->
<g id="Node000011" class="node">
<title>Node11</title>
<g id="a_Node000011"><a xlink:href="class_cpl_1_1_text_1_1_f_string.html" target="_top" xlink:title="This template class represents a NULL terminated string of a specific length.">
<polygon fill="white" stroke="#666666" points="624.75,-217.25 512,-217.25 512,-198 624.75,-198 624.75,-217.25"/>
<text text-anchor="middle" x="568.38" y="-203.75" font-family="Helvetica,sans-Serif" font-size="10.00">Cpl::Text::FString&lt; S &gt;</text>
</a>
</g>
</g>
<!-- Node1&#45;&gt;Node11 -->
<g id="edge10_Node000001_Node000011" class="edge">
<title>Node1&#45;&gt;Node11</title>
<g id="a_edge10_Node000001_Node000011"><a xlink:title=" ">
<path fill="none" stroke="#63b8ff" d="M463.3,-164.12C488.3,-174.57 521.39,-188.4 543.48,-197.64"/>
<polygon fill="#63b8ff" stroke="#63b8ff" points="464.77,-160.94 454.19,-160.31 462.07,-167.4 464.77,-160.94"/>
</a>
</g>
</g>
<!-- Node2 -->
<g id="Node000002" class="node">
<title>Node2</title>
<g id="a_Node000002"><a xlink:href="class_cpl_1_1_text_1_1_string__.html" target="_top" xlink:title="This partially concrete class implements the portions of the String Api that is independent of the in...">
<polygon fill="white" stroke="#666666" points="343.25,-159.25 254.5,-159.25 254.5,-140 343.25,-140 343.25,-159.25"/>
<text text-anchor="middle" x="298.88" y="-145.75" font-family="Helvetica,sans-Serif" font-size="10.00">Cpl::Text::String_</text>
</a>
</g>
</g>
<!-- Node2&#45;&gt;Node1 -->
<g id="edge1_Node000001_Node000002" class="edge">
<title>Node2&#45;&gt;Node1</title>
<g id="a_edge1_Node000001_Node000002"><a xlink:title=" ">
<path fill="none" stroke="#63b8ff" d="M354.74,-149.62C363.13,-149.62 371.71,-149.62 379.89,-149.62"/>
<polygon fill="#63b8ff" stroke="#63b8ff" points="355.01,-146.13 345.01,-149.63 355.01,-153.13 355.01,-146.13"/>
</a>
</g>
</g>
<!-- Node3 -->
<g id="Node000003" class="node">
<title>Node3</title>
<g id="a_Node000003"><a xlink:href="class_cpl_1_1_text_1_1_string.html" target="_top" xlink:title="This abstract class defines the operations that can be before on a NULL terminated string.">
<polygon fill="white" stroke="#666666" points="217.5,-159.25 134,-159.25 134,-140 217.5,-140 217.5,-159.25"/>
<text text-anchor="middle" x="175.75" y="-145.75" font-family="Helvetica,sans-Serif" font-size="10.00">Cpl::Text::String</text>
</a>
</g>
</g>
<!-- Node3&#45;&gt;Node2 -->
<g id="edge2_Node000002_Node000003" class="edge">
<title>Node3&#45;&gt;Node2</title>
<g id="a_edge2_Node000002_Node000003"><a xlink:title=" ">
<path fill="none" stroke="#63b8ff" d="M229.24,-149.62C237.5,-149.62 245.97,-149.62 254.01,-149.62"/>
<polygon fill="#63b8ff" stroke="#63b8ff" points="229.27,-146.13 219.27,-149.63 229.27,-153.13 229.27,-146.13"/>
</a>
</g>
</g>
<!-- Node4 -->
<g id="Node000004" class="node">
<title>Node4</title>
<g id="a_Node000004"><a xlink:href="class_cpl_1_1_container_1_1_key.html" target="_top" xlink:title="This abstract class defines the interface that a contained object must support if it has comparable k...">
<polygon fill="white" stroke="#666666" points="97,-159.25 0,-159.25 0,-140 97,-140 97,-159.25"/>
<text text-anchor="middle" x="48.5" y="-145.75" font-family="Helvetica,sans-Serif" font-size="10.00">Cpl::Container::Key</text>
</a>
</g>
</g>
<!-- Node4&#45;&gt;Node3 -->
<g id="edge3_Node000003_Node000004" class="edge">
<title>Node4&#45;&gt;Node3</title>
<g id="a_edge3_Node000003_Node000004"><a xlink:title=" ">
<path fill="none" stroke="#63b8ff" d="M108.66,-149.62C117.13,-149.62 125.69,-149.62 133.72,-149.62"/>
<polygon fill="#63b8ff" stroke="#63b8ff" points="108.72,-146.13 98.72,-149.63 108.72,-153.13 108.72,-146.13"/>
</a>
</g>
</g>
<!-- Node11&#45;&gt;Node5 -->
<g id="edge11_Node000011_Node000005" class="edge">
<title>Node11&#45;&gt;Node5</title>
<g id="a_edge11_Node000011_Node000005"><a xlink:title=" ">
<path fill="none" stroke="orange" stroke-dasharray="5,2" d="M594.41,-223.36C608.17,-231.28 625.85,-240.31 642.75,-245.62 699.32,-263.4 766,-271.61 816.32,-275.39"/>
<polygon fill="orange" stroke="orange" points="596.4,-220.47 586.02,-218.36 592.82,-226.49 596.4,-220.47"/>
</a>
</g>
<text text-anchor="middle" x="717" y="-274.38" font-family="Helvetica,sans-Serif" font-size="10.00" fill="grey"> &lt; CPL_IO_FILE_MAX_NAME &gt;</text>
</g>
<!-- Node11&#45;&gt;Node6 -->
<g id="edge12_Node000011_Node000006" class="edge">
<title>Node11&#45;&gt;Node6</title>
<g id="a_edge12_Node000011_Node000006"><a xlink:title=" ">
<path fill="none" stroke="orange" stroke-dasharray="5,2" d="M582.26,-226.87C595.39,-244.96 617.37,-271.48 642.75,-286.62 708.11,-325.64 796.68,-341.49 849.07,-347.74"/>
<polygon fill="orange" stroke="orange" points="585.23,-225 576.63,-218.81 579.49,-229.01 585.23,-225"/>
</a>
</g>
<text text-anchor="middle" x="717" y="-339.38" font-family="Helvetica,sans-Serif" font-size="10.00" fill="grey"> &lt; 64 &gt;</text>
</g>
<!-- Node11&#45;&gt;Node7 -->
<g id="edge13_Node000011_Node000007" class="edge">
<title>Node11&#45;&gt;Node7</title>
<g id="a_edge13_Node000011_Node000007"><a xlink:title=" ">
<path fill="none" stroke="orange" stroke-dasharray="5,2" d="M609.13,-194.22C619.92,-191.07 631.69,-188.06 642.75,-186.12 697.55,-176.52 760.01,-172.65 808.83,-171.17"/>
<polygon fill="orange" stroke="orange" points="608.29,-190.82 599.75,-197.09 610.33,-197.52 608.29,-190.82"/>
</a>
</g>
<text text-anchor="start" x="655.5" y="-199.62" font-family="Helvetica,sans-Serif" font-size="10.00" fill="grey"> &lt; configMAX_TASK_NAME</text>
<text text-anchor="middle" x="717" y="-188.38" font-family="Helvetica,sans-Serif" font-size="10.00" fill="grey">_LEN &gt;</text>
</g>
<!-- Node11&#45;&gt;Node8 -->
<g id="edge14_Node000011_Node000008" class="edge">
<title>Node11&#45;&gt;Node8</title>
<g id="a_edge14_Node000011_Node000008"><a xlink:title=" ">
<path fill="none" stroke="orange" stroke-dasharray="5,2" d="M586.04,-189.91C599.97,-176.09 621,-157.41 642.75,-146.12 695.65,-118.68 760.86,-101.83 811.47,-91.96"/>
<polygon fill="orange" stroke="orange" points="583.9,-187.09 579.4,-196.69 588.9,-191.99 583.9,-187.09"/>
</a>
</g>
<text text-anchor="start" x="642.75" y="-159.62" font-family="Helvetica,sans-Serif" font-size="10.00" fill="grey"> &lt; OPTION_CPL_TSHELL</text>
<text text-anchor="middle" x="717" y="-148.38" font-family="Helvetica,sans-Serif" font-size="10.00" fill="grey">_PROCESSOR_OUTPUT_SIZE &gt;</text>
</g>
<!-- Node11&#45;&gt;Node9 -->
<g id="edge15_Node000011_Node000009" class="edge">
<title>Node11&#45;&gt;Node9</title>
<g id="a_edge15_Node000011_Node000009"><a xlink:title=" ">
<path fill="none" stroke="orange" stroke-dasharray="5,2" d="M636.24,-211.14C688.74,-213.89 761.89,-217.73 816.71,-220.61"/>
<polygon fill="orange" stroke="orange" points="636.71,-207.66 626.54,-210.63 636.34,-214.65 636.71,-207.66"/>
</a>
</g>
<text text-anchor="start" x="648" y="-232.62" font-family="Helvetica,sans-Serif" font-size="10.00" fill="grey"> &lt; OPTION_CPL_TSHELL</text>
<text text-anchor="middle" x="717" y="-221.38" font-family="Helvetica,sans-Serif" font-size="10.00" fill="grey">_PROCESSOR_INPUT_SIZE &gt;</text>
</g>
</g>
</svg>
