<?xml version="1.0" encoding="UTF-8" standalone="no"?>
<!DOCTYPE svg PUBLIC "-//W3C//DTD SVG 1.1//EN"
 "http://www.w3.org/Graphics/SVG/1.1/DTD/svg11.dtd">
<!-- Generated by graphviz version 9.0.0 (20230911.1827)
 -->
<!-- Title: Driver::AIO::Eros::Thermistor Pages: 1 -->
<svg width="856pt" height="156pt"
 viewBox="0.00 0.00 856.25 156.25" xmlns="http://www.w3.org/2000/svg" xmlns:xlink="http://www.w3.org/1999/xlink">
<g id="graph0" class="graph" transform="scale(1 1) rotate(0) translate(4 152.25)">
<title>Driver::AIO::Eros::Thermistor</title>
<!-- Node1 -->
<g id="Node000001" class="node">
<title>Node1</title>
<g id="a_Node000001"><a xlink:title="This class is an Eros specific extension of the Driver::AIO::Ajax::Thermistor driver.">
<polygon fill="#999999" stroke="#666666" points="848.25,-60.88 756.5,-60.88 756.5,-30.38 848.25,-30.38 848.25,-60.88"/>
<text text-anchor="start" x="764.5" y="-47.38" font-family="Helvetica,sans-Serif" font-size="10.00">Driver::AIO::Eros::</text>
<text text-anchor="middle" x="802.38" y="-36.12" font-family="Helvetica,sans-Serif" font-size="10.00">Thermistor</text>
</a>
</g>
</g>
<!-- Node2 -->
<g id="Node000002" class="node">
<title>Node2</title>
<g id="a_Node000002"><a xlink:href="class_driver_1_1_a_i_o_1_1_ajax_1_1_thermistor.html" target="_top" xlink:title="This class is responsible for sampling the on&#45;board temperature sensor every N milliseconds and popul...">
<polygon fill="white" stroke="#666666" points="720.5,-60.88 629.5,-60.88 629.5,-30.38 720.5,-30.38 720.5,-60.88"/>
<text text-anchor="start" x="637.5" y="-47.38" font-family="Helvetica,sans-Serif" font-size="10.00">Driver::AIO::Ajax::</text>
<text text-anchor="middle" x="675" y="-36.12" font-family="Helvetica,sans-Serif" font-size="10.00">Thermistor</text>
</a>
</g>
</g>
<!-- Node2&#45;&gt;Node1 -->
<g id="edge1_Node000001_Node000002" class="edge">
<title>Node2&#45;&gt;Node1</title>
<g id="a_edge1_Node000001_Node000002"><a xlink:title=" ">
<path fill="none" stroke="#63b8ff" d="M732.19,-45.62C740.29,-45.62 748.52,-45.62 756.36,-45.62"/>
<polygon fill="#63b8ff" stroke="#63b8ff" points="732.42,-42.13 722.42,-45.63 732.42,-49.13 732.42,-42.13"/>
</a>
</g>
</g>
<!-- Node3 -->
<g id="Node000003" class="node">
<title>Node3</title>
<g id="a_Node000003"><a xlink:href="class_cpl_1_1_itc_1_1_close_sync.html" target="_top" xlink:title="This partially concrete class implements the synchronous ITC close call for the CloseApi.">
<polygon fill="white" stroke="#666666" points="593.5,-83.25 496.5,-83.25 496.5,-64 593.5,-64 593.5,-83.25"/>
<text text-anchor="middle" x="545" y="-69.75" font-family="Helvetica,sans-Serif" font-size="10.00">Cpl::Itc::CloseSync</text>
</a>
</g>
</g>
<!-- Node3&#45;&gt;Node2 -->
<g id="edge2_Node000002_Node000003" class="edge">
<title>Node3&#45;&gt;Node2</title>
<g id="a_edge2_Node000002_Node000003"><a xlink:title=" ">
<path fill="none" stroke="#63b8ff" d="M603.41,-61.07C612.04,-59.18 620.83,-57.26 629.14,-55.44"/>
<polygon fill="#63b8ff" stroke="#63b8ff" points="602.71,-57.64 593.69,-63.19 604.21,-64.48 602.71,-57.64"/>
</a>
</g>
</g>
<!-- Node4 -->
<g id="Node000004" class="node">
<title>Node4</title>
<g id="a_Node000004"><a xlink:href="class_cpl_1_1_itc_1_1_open_sync.html" target="_top" xlink:title="This partially concrete class implements the synchronous ITC open call for the OpenApi.">
<polygon fill="white" stroke="#666666" points="433.88,-130.25 338.38,-130.25 338.38,-111 433.88,-111 433.88,-130.25"/>
<text text-anchor="middle" x="386.12" y="-116.75" font-family="Helvetica,sans-Serif" font-size="10.00">Cpl::Itc::OpenSync</text>
</a>
</g>
</g>
<!-- Node4&#45;&gt;Node3 -->
<g id="edge3_Node000003_Node000004" class="edge">
<title>Node4&#45;&gt;Node3</title>
<g id="a_edge3_Node000003_Node000004"><a xlink:title=" ">
<path fill="none" stroke="#63b8ff" d="M442.22,-107.7C448.41,-106.08 454.6,-104.37 460.5,-102.62 479.63,-96.97 500.86,-89.58 517.13,-83.68"/>
<polygon fill="#63b8ff" stroke="#63b8ff" points="441.44,-104.29 432.62,-110.16 443.17,-111.07 441.44,-104.29"/>
</a>
</g>
</g>
<!-- Node5 -->
<g id="Node000005" class="node">
<title>Node5</title>
<g id="a_Node000005"><a xlink:href="class_cpl_1_1_itc_1_1_open_api.html" target="_top" xlink:title="This abstract class defines an open interface.">
<polygon fill="white" stroke="#666666" points="249.88,-148.25 161.88,-148.25 161.88,-129 249.88,-129 249.88,-148.25"/>
<text text-anchor="middle" x="205.88" y="-134.75" font-family="Helvetica,sans-Serif" font-size="10.00">Cpl::Itc::OpenApi</text>
</a>
</g>
</g>
<!-- Node5&#45;&gt;Node4 -->
<g id="edge4_Node000004_Node000005" class="edge">
<title>Node5&#45;&gt;Node4</title>
<g id="a_edge4_Node000004_Node000005"><a xlink:title=" ">
<path fill="none" stroke="#63b8ff" d="M261.31,-133.13C285.8,-130.65 314.44,-127.76 337.99,-125.38"/>
<polygon fill="#63b8ff" stroke="#63b8ff" points="261.13,-129.63 251.53,-134.12 261.83,-136.59 261.13,-129.63"/>
</a>
</g>
</g>
<!-- Node6 -->
<g id="Node000006" class="node">
<title>Node6</title>
<g id="a_Node000006"><a xlink:href="class_cpl_1_1_itc_1_1_open_request.html" target="_top" xlink:title="This abstract class define message types and payloads for a set of ITC services.">
<polygon fill="white" stroke="#666666" points="260.75,-111.25 151,-111.25 151,-92 260.75,-92 260.75,-111.25"/>
<text text-anchor="middle" x="205.88" y="-97.75" font-family="Helvetica,sans-Serif" font-size="10.00">Cpl::Itc::OpenRequest</text>
</a>
</g>
</g>
<!-- Node6&#45;&gt;Node4 -->
<g id="edge5_Node000004_Node000006" class="edge">
<title>Node6&#45;&gt;Node4</title>
<g id="a_edge5_Node000004_Node000006"><a xlink:title=" ">
<path fill="none" stroke="#63b8ff" d="M272.04,-108.57C293.88,-110.9 317.8,-113.45 337.99,-115.6"/>
<polygon fill="#63b8ff" stroke="#63b8ff" points="272.66,-105.12 262.34,-107.54 271.92,-112.08 272.66,-105.12"/>
</a>
</g>
</g>
<!-- Node7 -->
<g id="Node000007" class="node">
<title>Node7</title>
<g id="a_Node000007"><a xlink:href="class_cpl_1_1_itc_1_1_close_api.html" target="_top" xlink:title="This abstract class defines an close interface.">
<polygon fill="white" stroke="#666666" points="430.88,-93.25 341.38,-93.25 341.38,-74 430.88,-74 430.88,-93.25"/>
<text text-anchor="middle" x="386.12" y="-79.75" font-family="Helvetica,sans-Serif" font-size="10.00">Cpl::Itc::CloseApi</text>
</a>
</g>
</g>
<!-- Node7&#45;&gt;Node3 -->
<g id="edge6_Node000003_Node000007" class="edge">
<title>Node7&#45;&gt;Node3</title>
<g id="a_edge6_Node000003_Node000007"><a xlink:title=" ">
<path fill="none" stroke="#63b8ff" d="M442.46,-80.1C459.97,-78.98 479.16,-77.76 496.1,-76.68"/>
<polygon fill="#63b8ff" stroke="#63b8ff" points="442.51,-76.59 432.75,-80.72 442.95,-83.57 442.51,-76.59"/>
</a>
</g>
</g>
<!-- Node8 -->
<g id="Node000008" class="node">
<title>Node8</title>
<g id="a_Node000008"><a xlink:href="class_cpl_1_1_itc_1_1_close_request.html" target="_top" xlink:title="This abstract class define message types and payloads for a set of ITC services.">
<polygon fill="white" stroke="#666666" points="441.75,-56.25 330.5,-56.25 330.5,-37 441.75,-37 441.75,-56.25"/>
<text text-anchor="middle" x="386.12" y="-42.75" font-family="Helvetica,sans-Serif" font-size="10.00">Cpl::Itc::CloseRequest</text>
</a>
</g>
</g>
<!-- Node8&#45;&gt;Node3 -->
<g id="edge7_Node000003_Node000008" class="edge">
<title>Node8&#45;&gt;Node3</title>
<g id="a_edge7_Node000003_Node000008"><a xlink:title=" ">
<path fill="none" stroke="#63b8ff" d="M452.94,-57.95C467.46,-60.45 482.57,-63.05 496.21,-65.4"/>
<polygon fill="#63b8ff" stroke="#63b8ff" points="453.93,-54.57 443.48,-56.33 452.75,-61.47 453.93,-54.57"/>
</a>
</g>
</g>
<!-- Node9 -->
<g id="Node000009" class="node">
<title>Node9</title>
<g id="a_Node000009"><a xlink:href="class_cpl_1_1_system_1_1_timer.html" target="_top" xlink:title="This mostly concrete interface defines the operations that can be performed on a software timer.">
<polygon fill="white" stroke="#666666" points="593.5,-37.25 496.5,-37.25 496.5,-18 593.5,-18 593.5,-37.25"/>
<text text-anchor="middle" x="545" y="-23.75" font-family="Helvetica,sans-Serif" font-size="10.00">Cpl::System::Timer</text>
</a>
</g>
</g>
<!-- Node9&#45;&gt;Node2 -->
<g id="edge8_Node000002_Node000009" class="edge">
<title>Node9&#45;&gt;Node2</title>
<g id="a_edge8_Node000002_Node000009"><a xlink:title=" ">
<path fill="none" stroke="#63b8ff" d="M605.05,-35.93C613.19,-37.07 621.44,-38.23 629.27,-39.33"/>
<polygon fill="#63b8ff" stroke="#63b8ff" points="605.55,-32.47 595.16,-34.54 604.58,-39.4 605.55,-32.47"/>
</a>
</g>
</g>
<!-- Node10 -->
<g id="Node000010" class="node">
<title>Node10</title>
<g id="a_Node000010"><a xlink:href="class_cpl_1_1_system_1_1_counter_callback__.html" target="_top" xlink:title="This abstract class defines the call&#45;back interface for a Counter object.">
<polygon fill="white" stroke="#666666" points="460.5,-19.25 311.75,-19.25 311.75,0 460.5,0 460.5,-19.25"/>
<text text-anchor="middle" x="386.12" y="-5.75" font-family="Helvetica,sans-Serif" font-size="10.00">Cpl::System::CounterCallback_</text>
</a>
</g>
</g>
<!-- Node10&#45;&gt;Node9 -->
<g id="edge9_Node000009_Node000010" class="edge">
<title>Node10&#45;&gt;Node9</title>
<g id="a_edge9_Node000009_Node000010"><a xlink:title=" ">
<path fill="none" stroke="#63b8ff" d="M472.15,-19.38C480.33,-20.32 488.42,-21.25 496.05,-22.12"/>
<polygon fill="#63b8ff" stroke="#63b8ff" points="472.81,-15.93 462.47,-18.27 472.01,-22.89 472.81,-15.93"/>
</a>
</g>
</g>
<!-- Node11 -->
<g id="Node000011" class="node">
<title>Node11</title>
<g id="a_Node000011"><a xlink:href="class_cpl_1_1_container_1_1_extended_item.html" target="_top" xlink:title="This class is used by the Container classes to implement a various types of DOUBLY linked containers.">
<polygon fill="white" stroke="#666666" points="275.75,-19.25 136,-19.25 136,0 275.75,0 275.75,-19.25"/>
<text text-anchor="middle" x="205.88" y="-5.75" font-family="Helvetica,sans-Serif" font-size="10.00">Cpl::Container::ExtendedItem</text>
</a>
</g>
</g>
<!-- Node11&#45;&gt;Node10 -->
<g id="edge10_Node000010_Node000011" class="edge">
<title>Node11&#45;&gt;Node10</title>
<g id="a_edge10_Node000010_Node000011"><a xlink:title=" ">
<path fill="none" stroke="#63b8ff" d="M287.54,-9.62C295.44,-9.62 303.44,-9.62 311.27,-9.62"/>
<polygon fill="#63b8ff" stroke="#63b8ff" points="287.56,-6.13 277.56,-9.63 287.56,-13.13 287.56,-6.13"/>
</a>
</g>
</g>
<!-- Node12 -->
<g id="Node000012" class="node">
<title>Node12</title>
<g id="a_Node000012"><a xlink:href="class_cpl_1_1_container_1_1_item.html" target="_top" xlink:title="This class is used by the Container classes to implement a various types of singly linked containers.">
<polygon fill="white" stroke="#666666" points="100,-19.25 0,-19.25 0,0 100,0 100,-19.25"/>
<text text-anchor="middle" x="50" y="-5.75" font-family="Helvetica,sans-Serif" font-size="10.00">Cpl::Container::Item</text>
</a>
</g>
</g>
<!-- Node12&#45;&gt;Node11 -->
<g id="edge11_Node000011_Node000012" class="edge">
<title>Node12&#45;&gt;Node11</title>
<g id="a_edge11_Node000011_Node000012"><a xlink:title=" ">
<path fill="none" stroke="#63b8ff" d="M111.54,-9.62C119.49,-9.62 127.68,-9.62 135.76,-9.62"/>
<polygon fill="#63b8ff" stroke="#63b8ff" points="111.62,-6.13 101.62,-9.63 111.62,-13.13 111.62,-6.13"/>
</a>
</g>
</g>
</g>
</svg>
