<?xml version="1.0" encoding="UTF-8" standalone="no"?>
<!DOCTYPE svg PUBLIC "-//W3C//DTD SVG 1.1//EN"
 "http://www.w3.org/Graphics/SVG/1.1/DTD/svg11.dtd">
<!-- Generated by graphviz version 9.0.0 (20230911.1827)
 -->
<!-- Title: Cpl::Io::Output Pages: 1 -->
<svg width="832pt" height="568pt"
 viewBox="0.00 0.00 832.25 567.88" xmlns="http://www.w3.org/2000/svg" xmlns:xlink="http://www.w3.org/1999/xlink">
<g id="graph0" class="graph" transform="scale(1 1) rotate(0) translate(4 563.88)">
<title>Cpl::Io::Output</title>
<!-- Node1 -->
<g id="Node000001" class="node">
<title>Node1</title>
<g id="a_Node000001"><a xlink:title="This partially abstract class defines a interface for operating on an output stream (example of a str...">
<polygon fill="#999999" stroke="#666666" points="321,-259.25 244.25,-259.25 244.25,-240 321,-240 321,-259.25"/>
<text text-anchor="middle" x="282.62" y="-245.75" font-family="Helvetica,sans-Serif" font-size="10.00">Cpl::Io::Output</text>
</a>
</g>
</g>
<!-- Node5 -->
<g id="Node000005" class="node">
<title>Node5</title>
<g id="a_Node000005"><a xlink:href="class_cpl_1_1_io_1_1_atomic_output_api.html" target="_top" xlink:title="This abstract template class defines a interface for an Atomic outputs to a stream.">
<polygon fill="white" stroke="#666666" points="478.75,-540.88 357,-540.88 357,-510.38 478.75,-510.38 478.75,-540.88"/>
<text text-anchor="start" x="365" y="-527.38" font-family="Helvetica,sans-Serif" font-size="10.00">Cpl::Io::AtomicOutputApi</text>
<text text-anchor="middle" x="417.88" y="-516.12" font-family="Helvetica,sans-Serif" font-size="10.00">&lt; CONTEXT &gt;</text>
</a>
</g>
</g>
<!-- Node1&#45;&gt;Node5 -->
<g id="edge4_Node000001_Node000005" class="edge">
<title>Node1&#45;&gt;Node5</title>
<g id="a_edge4_Node000001_Node000005"><a xlink:title=" ">
<path fill="none" stroke="#63b8ff" d="M285.7,-270.95C290.87,-314.71 307.69,-416.21 357,-483.62 364.8,-494.28 376.14,-503.21 386.86,-510.06"/>
<polygon fill="#63b8ff" stroke="#63b8ff" points="289.18,-270.61 284.63,-261.05 282.22,-271.36 289.18,-270.61"/>
</a>
</g>
</g>
<!-- Node7 -->
<g id="Node000007" class="node">
<title>Node7</title>
<g id="a_Node000007"><a xlink:href="class_cpl_1_1_io_1_1_file_1_1_output_api.html" target="_top" xlink:title="This abstract class defines the interface for a Random Access Input File.">
<polygon fill="white" stroke="#666666" points="473.5,-474.25 362.25,-474.25 362.25,-455 473.5,-455 473.5,-474.25"/>
<text text-anchor="middle" x="417.88" y="-460.75" font-family="Helvetica,sans-Serif" font-size="10.00">Cpl::Io::File::OutputApi</text>
</a>
</g>
</g>
<!-- Node1&#45;&gt;Node7 -->
<g id="edge6_Node000001_Node000007" class="edge">
<title>Node1&#45;&gt;Node7</title>
<g id="a_edge6_Node000001_Node000007"><a xlink:title=" ">
<path fill="none" stroke="#63b8ff" d="M295.89,-269.41C323.62,-314.16 390.32,-421.77 410.79,-454.81"/>
<polygon fill="#63b8ff" stroke="#63b8ff" points="298.91,-267.65 290.67,-260.99 292.96,-271.34 298.91,-267.65"/>
</a>
</g>
</g>
<!-- Node12 -->
<g id="Node000012" class="node">
<title>Node12</title>
<g id="a_Node000012"><a xlink:href="class_cpl_1_1_io_1_1_input_output.html" target="_top" xlink:title="This abstract class defines a interface for operating on an input&#45;output stream (example of a stream ...">
<polygon fill="white" stroke="#666666" points="467.12,-259.25 368.62,-259.25 368.62,-240 467.12,-240 467.12,-259.25"/>
<text text-anchor="middle" x="417.88" y="-245.75" font-family="Helvetica,sans-Serif" font-size="10.00">Cpl::Io::InputOutput</text>
</a>
</g>
</g>
<!-- Node1&#45;&gt;Node12 -->
<g id="edge11_Node000001_Node000012" class="edge">
<title>Node1&#45;&gt;Node12</title>
<g id="a_edge11_Node000001_Node000012"><a xlink:title=" ">
<path fill="none" stroke="#63b8ff" d="M332.79,-249.62C344.44,-249.62 356.85,-249.62 368.47,-249.62"/>
<polygon fill="#63b8ff" stroke="#63b8ff" points="332.97,-246.13 322.97,-249.63 332.97,-253.13 332.97,-246.13"/>
</a>
</g>
</g>
<!-- Node24 -->
<g id="Node000024" class="node">
<title>Node24</title>
<g id="a_Node000024"><a xlink:href="class_cpl_1_1_io_1_1_stdio_1_1_output__.html" target="_top" xlink:title="This concrete class implements a Output stream using the underlying platform&#39;s native OS &#39;file interf...">
<polygon fill="white" stroke="#666666" points="472.38,-139.25 363.38,-139.25 363.38,-120 472.38,-120 472.38,-139.25"/>
<text text-anchor="middle" x="417.88" y="-125.75" font-family="Helvetica,sans-Serif" font-size="10.00">Cpl::Io::Stdio::Output_</text>
</a>
</g>
</g>
<!-- Node1&#45;&gt;Node24 -->
<g id="edge23_Node000001_Node000024" class="edge">
<title>Node1&#45;&gt;Node24</title>
<g id="a_edge23_Node000001_Node000024"><a xlink:title=" ">
<path fill="none" stroke="#63b8ff" d="M302.82,-232.34C331.12,-206.85 383.14,-160 405.82,-139.58"/>
<polygon fill="#63b8ff" stroke="#63b8ff" points="300.74,-229.5 295.65,-238.79 305.43,-234.7 300.74,-229.5"/>
</a>
</g>
</g>
<!-- Node27 -->
<g id="Node000027" class="node">
<title>Node27</title>
<g id="a_Node000027"><a xlink:href="class_cpl_1_1_io_1_1_tee_output.html" target="_top" xlink:title="This concrete class implements a Output stream that outputs the data to MANY (or none) output streams...">
<polygon fill="white" stroke="#666666" points="464.5,-102.25 371.25,-102.25 371.25,-83 464.5,-83 464.5,-102.25"/>
<text text-anchor="middle" x="417.88" y="-88.75" font-family="Helvetica,sans-Serif" font-size="10.00">Cpl::Io::TeeOutput</text>
</a>
</g>
</g>
<!-- Node1&#45;&gt;Node27 -->
<g id="edge26_Node000001_Node000027" class="edge">
<title>Node1&#45;&gt;Node27</title>
<g id="a_edge26_Node000001_Node000027"><a xlink:title=" ">
<path fill="none" stroke="#63b8ff" d="M289.13,-228.49C298.16,-197.99 319.04,-141.87 357,-110.62 361.11,-107.25 365.84,-104.5 370.8,-102.27"/>
<polygon fill="#63b8ff" stroke="#63b8ff" points="285.78,-227.47 286.46,-238.05 292.52,-229.36 285.78,-227.47"/>
</a>
</g>
</g>
<!-- Node2 -->
<g id="Node000002" class="node">
<title>Node2</title>
<g id="a_Node000002"><a xlink:href="class_cpl_1_1_io_1_1_close.html" target="_top" xlink:title="This abstract class defines a close operation that is intended to be used Input and Output streams/fi...">
<polygon fill="white" stroke="#666666" points="208.25,-278.25 136,-278.25 136,-259 208.25,-259 208.25,-278.25"/>
<text text-anchor="middle" x="172.12" y="-264.75" font-family="Helvetica,sans-Serif" font-size="10.00">Cpl::Io::Close</text>
</a>
</g>
</g>
<!-- Node2&#45;&gt;Node1 -->
<g id="edge1_Node000001_Node000002" class="edge">
<title>Node2&#45;&gt;Node1</title>
<g id="a_edge1_Node000001_Node000002"><a xlink:title=" ">
<path fill="none" stroke="#63b8ff" d="M219.76,-260.46C227.78,-259.05 236.03,-257.61 243.78,-256.25"/>
<polygon fill="#63b8ff" stroke="#63b8ff" points="219.39,-256.97 210.14,-262.14 220.6,-263.87 219.39,-256.97"/>
</a>
</g>
</g>
<!-- Node3 -->
<g id="Node000003" class="node">
<title>Node3</title>
<g id="a_Node000003"><a xlink:href="class_cpl_1_1_container_1_1_item.html" target="_top" xlink:title="This class is used by the Container classes to implement a various types of singly linked containers.">
<polygon fill="white" stroke="#666666" points="100,-278.25 0,-278.25 0,-259 100,-259 100,-278.25"/>
<text text-anchor="middle" x="50" y="-264.75" font-family="Helvetica,sans-Serif" font-size="10.00">Cpl::Container::Item</text>
</a>
</g>
</g>
<!-- Node3&#45;&gt;Node2 -->
<g id="edge2_Node000002_Node000003" class="edge">
<title>Node3&#45;&gt;Node2</title>
<g id="a_edge2_Node000002_Node000003"><a xlink:title=" ">
<path fill="none" stroke="#63b8ff" d="M111.5,-268.62C119.81,-268.62 128.12,-268.62 135.78,-268.62"/>
<polygon fill="#63b8ff" stroke="#63b8ff" points="111.72,-265.13 101.72,-268.63 111.72,-272.13 111.72,-265.13"/>
</a>
</g>
</g>
<!-- Node4 -->
<g id="Node000004" class="node">
<title>Node4</title>
<g id="a_Node000004"><a xlink:href="class_cpl_1_1_io_1_1_is_eos.html" target="_top" xlink:title="This abstract class defines a isEos() operation that is intended to be used Input and Output streams.">
<polygon fill="white" stroke="#666666" points="208.25,-241.25 136,-241.25 136,-222 208.25,-222 208.25,-241.25"/>
<text text-anchor="middle" x="172.12" y="-227.75" font-family="Helvetica,sans-Serif" font-size="10.00">Cpl::Io::IsEos</text>
</a>
</g>
</g>
<!-- Node4&#45;&gt;Node1 -->
<g id="edge3_Node000001_Node000004" class="edge">
<title>Node4&#45;&gt;Node1</title>
<g id="a_edge3_Node000001_Node000004"><a xlink:title=" ">
<path fill="none" stroke="#63b8ff" d="M219.76,-239.36C227.78,-240.69 236.03,-242.06 243.78,-243.35"/>
<polygon fill="#63b8ff" stroke="#63b8ff" points="220.58,-235.95 210.15,-237.77 219.44,-242.86 220.58,-235.95"/>
</a>
</g>
</g>
<!-- Node6 -->
<g id="Node000006" class="node">
<title>Node6</title>
<g id="a_Node000006"><a xlink:href="class_cpl_1_1_io_1_1_atomic_output.html" target="_top" xlink:title="This concrete template class implements the AtomicOutputApi using a mutex to enforce the &#39;atomic&#45;ness...">
<polygon fill="white" stroke="#666666" points="635.38,-559.88 527.88,-559.88 527.88,-529.38 635.38,-529.38 635.38,-559.88"/>
<text text-anchor="start" x="535.88" y="-546.38" font-family="Helvetica,sans-Serif" font-size="10.00">Cpl::Io::AtomicOutput</text>
<text text-anchor="middle" x="581.62" y="-535.12" font-family="Helvetica,sans-Serif" font-size="10.00">&lt; CONTEXT &gt;</text>
</a>
</g>
</g>
<!-- Node5&#45;&gt;Node6 -->
<g id="edge5_Node000005_Node000006" class="edge">
<title>Node5&#45;&gt;Node6</title>
<g id="a_edge5_Node000005_Node000006"><a xlink:title=" ">
<path fill="none" stroke="#63b8ff" d="M490.44,-534.03C502.9,-535.5 515.67,-537 527.53,-538.39"/>
<polygon fill="#63b8ff" stroke="#63b8ff" points="490.95,-530.57 480.61,-532.88 490.13,-537.52 490.95,-530.57"/>
</a>
</g>
</g>
<!-- Node8 -->
<g id="Node000008" class="node">
<title>Node8</title>
<g id="a_Node000008"><a xlink:href="class_cpl_1_1_io_1_1_file_1_1_input_output_api.html" target="_top" xlink:title="This abstract class defines the interface for a Random Access Input Output File.">
<polygon fill="white" stroke="#666666" points="648.12,-511.25 515.12,-511.25 515.12,-492 648.12,-492 648.12,-511.25"/>
<text text-anchor="middle" x="581.62" y="-497.75" font-family="Helvetica,sans-Serif" font-size="10.00">Cpl::Io::File::InputOutputApi</text>
</a>
</g>
</g>
<!-- Node7&#45;&gt;Node8 -->
<g id="edge7_Node000007_Node000008" class="edge">
<title>Node7&#45;&gt;Node8</title>
<g id="a_edge7_Node000007_Node000008"><a xlink:title=" ">
<path fill="none" stroke="#63b8ff" d="M474.1,-477.26C494.45,-481.91 517.23,-487.12 536.48,-491.53"/>
<polygon fill="#63b8ff" stroke="#63b8ff" points="475.08,-473.89 464.55,-475.07 473.52,-480.71 475.08,-473.89"/>
</a>
</g>
</g>
<!-- Node11 -->
<g id="Node000011" class="node">
<title>Node11</title>
<g id="a_Node000011"><a xlink:href="class_cpl_1_1_io_1_1_file_1_1_output.html" target="_top" xlink:title="This concrete class provides a platform independent &#39;standard&#39; implementation of a Cpl::Io::File::Out...">
<polygon fill="white" stroke="#666666" points="630.12,-474.25 533.12,-474.25 533.12,-455 630.12,-455 630.12,-474.25"/>
<text text-anchor="middle" x="581.62" y="-460.75" font-family="Helvetica,sans-Serif" font-size="10.00">Cpl::Io::File::Output</text>
</a>
</g>
</g>
<!-- Node7&#45;&gt;Node11 -->
<g id="edge10_Node000007_Node000011" class="edge">
<title>Node7&#45;&gt;Node11</title>
<g id="a_edge10_Node000007_Node000011"><a xlink:title=" ">
<path fill="none" stroke="#63b8ff" d="M485.07,-464.62C501.02,-464.62 517.76,-464.62 532.69,-464.62"/>
<polygon fill="#63b8ff" stroke="#63b8ff" points="485.15,-461.13 475.15,-464.63 485.15,-468.13 485.15,-461.13"/>
</a>
</g>
</g>
<!-- Node9 -->
<g id="Node000009" class="node">
<title>Node9</title>
<g id="a_Node000009"><a xlink:href="class_cpl_1_1_io_1_1_file_1_1_input_output.html" target="_top" xlink:title="This concrete class provides a platform independent &#39;standard&#39; implementation of an InputOutputFileAp...">
<polygon fill="white" stroke="#666666" points="813.75,-529.25 695,-529.25 695,-510 813.75,-510 813.75,-529.25"/>
<text text-anchor="middle" x="754.38" y="-515.75" font-family="Helvetica,sans-Serif" font-size="10.00">Cpl::Io::File::InputOutput</text>
</a>
</g>
</g>
<!-- Node8&#45;&gt;Node9 -->
<g id="edge8_Node000008_Node000009" class="edge">
<title>Node8&#45;&gt;Node9</title>
<g id="a_edge8_Node000008_Node000009"><a xlink:title=" ">
<path fill="none" stroke="#63b8ff" d="M659.42,-509.72C671.27,-510.97 683.35,-512.24 694.72,-513.44"/>
<polygon fill="#63b8ff" stroke="#63b8ff" points="659.97,-506.26 649.66,-508.69 659.24,-513.22 659.97,-506.26"/>
</a>
</g>
</g>
<!-- Node10 -->
<g id="Node000010" class="node">
<title>Node10</title>
<g id="a_Node000010"><a xlink:href="class_cpl_1_1_io_1_1_file_1_1_null.html" target="_top" xlink:title="This concrete class implements a NULL InputOutputApi File that all of its input operations return &#39;En...">
<polygon fill="white" stroke="#666666" points="796.88,-492.25 711.88,-492.25 711.88,-473 796.88,-473 796.88,-492.25"/>
<text text-anchor="middle" x="754.38" y="-478.75" font-family="Helvetica,sans-Serif" font-size="10.00">Cpl::Io::File::Null</text>
</a>
</g>
</g>
<!-- Node8&#45;&gt;Node10 -->
<g id="edge9_Node000008_Node000010" class="edge">
<title>Node8&#45;&gt;Node10</title>
<g id="a_edge9_Node000008_Node000010"><a xlink:title=" ">
<path fill="none" stroke="#63b8ff" d="M659.49,-493.07C677.37,-491.08 695.75,-489.04 711.45,-487.29"/>
<polygon fill="#63b8ff" stroke="#63b8ff" points="659.21,-489.58 649.66,-494.17 659.98,-496.54 659.21,-489.58"/>
</a>
</g>
</g>
<!-- Node13 -->
<g id="Node000013" class="node">
<title>Node13</title>
<g id="a_Node000013"><a xlink:href="class_cpl_1_1_io_1_1_null.html" target="_top" xlink:title="This concrete class implements a NULL InputOutput stream &#45; that all of its input operations return &#39;E...">
<polygon fill="white" stroke="#666666" points="614,-437.25 549.25,-437.25 549.25,-418 614,-418 614,-437.25"/>
<text text-anchor="middle" x="581.62" y="-423.75" font-family="Helvetica,sans-Serif" font-size="10.00">Cpl::Io::Null</text>
</a>
</g>
</g>
<!-- Node12&#45;&gt;Node13 -->
<g id="edge12_Node000012_Node000013" class="edge">
<title>Node12&#45;&gt;Node13</title>
<g id="a_edge12_Node000012_Node000013"><a xlink:title=" ">
<path fill="none" stroke="#63b8ff" d="M425.51,-270.28C437.6,-304.56 466.51,-373.04 514.75,-409.62 524.57,-417.08 537.29,-421.44 548.92,-424"/>
<polygon fill="#63b8ff" stroke="#63b8ff" points="428.93,-269.48 422.41,-261.12 422.3,-271.72 428.93,-269.48"/>
</a>
</g>
</g>
<!-- Node14 -->
<g id="Node000014" class="node">
<title>Node14</title>
<g id="a_Node000014"><a xlink:href="class_cpl_1_1_io_1_1_ram_1_1_input_output.html" target="_top" xlink:title="This concrete class implements an InputOutput stream using a Ring Buffer.">
<polygon fill="white" stroke="#666666" points="643.25,-400.25 520,-400.25 520,-381 643.25,-381 643.25,-400.25"/>
<text text-anchor="middle" x="581.62" y="-386.75" font-family="Helvetica,sans-Serif" font-size="10.00">Cpl::Io::Ram::InputOutput</text>
</a>
</g>
</g>
<!-- Node12&#45;&gt;Node14 -->
<g id="edge13_Node000012_Node000014" class="edge">
<title>Node12&#45;&gt;Node14</title>
<g id="a_edge13_Node000012_Node000014"><a xlink:title=" ">
<path fill="none" stroke="#63b8ff" d="M429.19,-269.45C444.32,-296.57 475.08,-344.91 514.75,-371.62 520.08,-375.22 526.09,-378.14 532.26,-380.51"/>
<polygon fill="#63b8ff" stroke="#63b8ff" points="432.4,-268.03 424.57,-260.89 426.24,-271.35 432.4,-268.03"/>
</a>
</g>
</g>
<!-- Node15 -->
<g id="Node000015" class="node">
<title>Node15</title>
<g id="a_Node000015"><a xlink:href="class_cpl_1_1_io_1_1_serial_1_1_adafruit_1_1_nrf5_1_1_b_l_e_1_1_input_output.html" target="_top" xlink:title="This concrete class implements the InputOutput stream interface as a wrapper around Adafruit&#39;s BLEUar...">
<polygon fill="white" stroke="#666666" points="640.62,-362.88 522.62,-362.88 522.62,-332.38 640.62,-332.38 640.62,-362.88"/>
<text text-anchor="start" x="530.62" y="-349.38" font-family="Helvetica,sans-Serif" font-size="10.00">Cpl::Io::Serial::Adafruit</text>
<text text-anchor="middle" x="581.62" y="-338.12" font-family="Helvetica,sans-Serif" font-size="10.00">::Nrf5::BLE::InputOutput</text>
</a>
</g>
</g>
<!-- Node12&#45;&gt;Node15 -->
<g id="edge14_Node000012_Node000015" class="edge">
<title>Node12&#45;&gt;Node15</title>
<g id="a_edge14_Node000012_Node000015"><a xlink:title=" ">
<path fill="none" stroke="#63b8ff" d="M438.08,-266.92C456.65,-282.98 486.11,-306.73 514.75,-322.62 520.85,-326.01 527.49,-329.13 534.14,-331.93"/>
<polygon fill="#63b8ff" stroke="#63b8ff" points="440.61,-264.49 430.79,-260.51 435.99,-269.74 440.61,-264.49"/>
</a>
</g>
</g>
<!-- Node16 -->
<g id="Node000016" class="node">
<title>Node16</title>
<g id="a_Node000016"><a xlink:href="class_cpl_1_1_io_1_1_serial_1_1_adafruit_1_1_nrf5_1_1_input_output.html" target="_top" xlink:title="This concrete class implements the InputOutput stream interface as a wrapper around Adafruit&#39;s Arduin...">
<polygon fill="white" stroke="#666666" points="636.88,-313.88 526.38,-313.88 526.38,-283.38 636.88,-283.38 636.88,-313.88"/>
<text text-anchor="start" x="534.38" y="-300.38" font-family="Helvetica,sans-Serif" font-size="10.00">Cpl::Io::Serial::Adafruit</text>
<text text-anchor="middle" x="581.62" y="-289.12" font-family="Helvetica,sans-Serif" font-size="10.00">::Nrf5::InputOutput</text>
</a>
</g>
</g>
<!-- Node12&#45;&gt;Node16 -->
<g id="edge15_Node000012_Node000016" class="edge">
<title>Node12&#45;&gt;Node16</title>
<g id="a_edge15_Node000012_Node000016"><a xlink:title=" ">
<path fill="none" stroke="#63b8ff" d="M462.85,-262.95C483.2,-269.11 507.52,-276.48 528.76,-282.91"/>
<polygon fill="#63b8ff" stroke="#63b8ff" points="464.03,-259.65 453.45,-260.1 462,-266.35 464.03,-259.65"/>
</a>
</g>
</g>
<!-- Node17 -->
<g id="Node000017" class="node">
<title>Node17</title>
<g id="a_Node000017"><a xlink:href="class_cpl_1_1_io_1_1_serial_1_1_arduino_1_1_input_output.html" target="_top" xlink:title="This concrete class implements the InputOutput stream interface as a wrapper around Arduino Serial cl...">
<polygon fill="white" stroke="#666666" points="636.5,-264.88 526.75,-264.88 526.75,-234.38 636.5,-234.38 636.5,-264.88"/>
<text text-anchor="start" x="534.75" y="-251.38" font-family="Helvetica,sans-Serif" font-size="10.00">Cpl::Io::Serial::Arduino</text>
<text text-anchor="middle" x="581.62" y="-240.12" font-family="Helvetica,sans-Serif" font-size="10.00">::InputOutput</text>
</a>
</g>
</g>
<!-- Node12&#45;&gt;Node17 -->
<g id="edge16_Node000012_Node000017" class="edge">
<title>Node12&#45;&gt;Node17</title>
<g id="a_edge16_Node000012_Node000017"><a xlink:title=" ">
<path fill="none" stroke="#63b8ff" d="M478.59,-249.62C494.27,-249.62 511.1,-249.62 526.47,-249.62"/>
<polygon fill="#63b8ff" stroke="#63b8ff" points="478.92,-246.13 468.92,-249.63 478.92,-253.13 478.92,-246.13"/>
</a>
</g>
</g>
<!-- Node18 -->
<g id="Node000018" class="node">
<title>Node18</title>
<g id="a_Node000018"><a xlink:href="class_cpl_1_1_io_1_1_serial_1_1_s_t_1_1_m32_f4_1_1_input_output.html" target="_top" xlink:title="This concrete class implements the InputOutput stream interface built on top of ST HAL Layer/SDK.">
<polygon fill="white" stroke="#666666" points="634.62,-215.88 528.62,-215.88 528.62,-185.38 634.62,-185.38 634.62,-215.88"/>
<text text-anchor="start" x="536.62" y="-202.38" font-family="Helvetica,sans-Serif" font-size="10.00">Cpl::Io::Serial::ST</text>
<text text-anchor="middle" x="581.62" y="-191.12" font-family="Helvetica,sans-Serif" font-size="10.00">::M32F4::InputOutput</text>
</a>
</g>
</g>
<!-- Node12&#45;&gt;Node18 -->
<g id="edge17_Node000012_Node000018" class="edge">
<title>Node12&#45;&gt;Node18</title>
<g id="a_edge17_Node000012_Node000018"><a xlink:title=" ">
<path fill="none" stroke="#63b8ff" d="M462.85,-236.3C483.2,-230.14 507.52,-222.77 528.76,-216.34"/>
<polygon fill="#63b8ff" stroke="#63b8ff" points="462,-232.9 453.45,-239.15 464.03,-239.6 462,-232.9"/>
</a>
</g>
</g>
<!-- Node19 -->
<g id="Node000019" class="node">
<title>Node19</title>
<g id="a_Node000019"><a xlink:href="class_cpl_1_1_io_1_1_socket_1_1_input_output.html" target="_top" xlink:title="This concrete class provides a platform independent &#39;standard&#39; implementation of an InputOutput strea...">
<polygon fill="white" stroke="#666666" points="648.5,-167.25 514.75,-167.25 514.75,-148 648.5,-148 648.5,-167.25"/>
<text text-anchor="middle" x="581.62" y="-153.75" font-family="Helvetica,sans-Serif" font-size="10.00">Cpl::Io::Socket::InputOutput</text>
</a>
</g>
</g>
<!-- Node12&#45;&gt;Node19 -->
<g id="edge18_Node000012_Node000019" class="edge">
<title>Node12&#45;&gt;Node19</title>
<g id="a_edge18_Node000012_Node000019"><a xlink:title=" ">
<path fill="none" stroke="#63b8ff" d="M437.49,-232.06C455.84,-215.62 485.33,-191.41 514.75,-176.62 521.77,-173.1 529.55,-170.12 537.23,-167.66"/>
<polygon fill="#63b8ff" stroke="#63b8ff" points="435.33,-229.3 430.32,-238.63 440.06,-234.46 435.33,-229.3"/>
</a>
</g>
</g>
<!-- Node20 -->
<g id="Node000020" class="node">
<title>Node20</title>
<g id="a_Node000020"><a xlink:href="class_cpl_1_1_io_1_1_stdio_1_1_input_output__.html" target="_top" xlink:title="This concrete class implements a Input&#45;Output stream.">
<polygon fill="white" stroke="#666666" points="647,-130.25 516.25,-130.25 516.25,-111 647,-111 647,-130.25"/>
<text text-anchor="middle" x="581.62" y="-116.75" font-family="Helvetica,sans-Serif" font-size="10.00">Cpl::Io::Stdio::InputOutput_</text>
</a>
</g>
</g>
<!-- Node12&#45;&gt;Node20 -->
<g id="edge19_Node000012_Node000020" class="edge">
<title>Node12&#45;&gt;Node20</title>
<g id="a_edge19_Node000012_Node000020"><a xlink:title=" ">
<path fill="none" stroke="#63b8ff" d="M430.51,-230.08C446.4,-205.1 477.24,-162.27 514.75,-138.62 519.76,-135.46 525.33,-132.85 531.05,-130.69"/>
<polygon fill="#63b8ff" stroke="#63b8ff" points="427.72,-227.95 425.44,-238.3 433.67,-231.63 427.72,-227.95"/>
</a>
</g>
</g>
<!-- Node21 -->
<g id="Node000021" class="node">
<title>Node21</title>
<g id="a_Node000021"><a xlink:href="class_cpl_1_1_io_1_1_tcp_1_1_input_output.html" target="_top" xlink:title="This concrete class defines a platform independent implementation of an InputOutput stream used by th...">
<polygon fill="white" stroke="#666666" points="641.38,-93.25 521.88,-93.25 521.88,-74 641.38,-74 641.38,-93.25"/>
<text text-anchor="middle" x="581.62" y="-79.75" font-family="Helvetica,sans-Serif" font-size="10.00">Cpl::Io::Tcp::InputOutput</text>
</a>
</g>
</g>
<!-- Node12&#45;&gt;Node21 -->
<g id="edge20_Node000012_Node000021" class="edge">
<title>Node12&#45;&gt;Node21</title>
<g id="a_edge20_Node000012_Node000021"><a xlink:title=" ">
<path fill="none" stroke="#63b8ff" d="M430.35,-230.28C453.07,-192.2 502.66,-110.46 514.75,-101.62 519.06,-98.48 523.88,-95.88 528.92,-93.73"/>
<polygon fill="#63b8ff" stroke="#63b8ff" points="427.58,-228.08 425.48,-238.46 433.6,-231.66 427.58,-228.08"/>
</a>
</g>
</g>
<!-- Node22 -->
<g id="Node000022" class="node">
<title>Node22</title>
<g id="a_Node000022"><a xlink:href="class_cpl_1_1_io_1_1_tcp_1_1_async_connector_1_1_client.html" target="_top" xlink:title="This class defines the callback mechanism used for accepting incoming TCP connections.">
<polygon fill="white" stroke="#666666" points="824.25,-122.88 684.5,-122.88 684.5,-92.38 824.25,-92.38 824.25,-122.88"/>
<text text-anchor="start" x="692.5" y="-109.38" font-family="Helvetica,sans-Serif" font-size="10.00">Cpl::Io::Tcp::AsyncConnector</text>
<text text-anchor="middle" x="754.38" y="-98.12" font-family="Helvetica,sans-Serif" font-size="10.00">::Client</text>
</a>
</g>
</g>
<!-- Node21&#45;&gt;Node22 -->
<g id="edge21_Node000021_Node000022" class="edge">
<title>Node21&#45;&gt;Node22</title>
<g id="a_edge21_Node000021_Node000022"><a xlink:title=" ">
<path fill="none" stroke="#63b8ff" d="M652.94,-93.51C663.29,-94.96 673.95,-96.46 684.27,-97.91"/>
<polygon fill="#63b8ff" stroke="#63b8ff" points="653.75,-90.09 643.36,-92.16 652.78,-97.02 653.75,-90.09"/>
</a>
</g>
</g>
<!-- Node23 -->
<g id="Node000023" class="node">
<title>Node23</title>
<g id="a_Node000023"><a xlink:href="class_cpl_1_1_io_1_1_tcp_1_1_async_listener_1_1_client.html" target="_top" xlink:title="This class defines the callback mechanism used for accepting incoming TCP connections.">
<polygon fill="white" stroke="#666666" points="819.75,-73.88 689,-73.88 689,-43.38 819.75,-43.38 819.75,-73.88"/>
<text text-anchor="start" x="697" y="-60.38" font-family="Helvetica,sans-Serif" font-size="10.00">Cpl::Io::Tcp::AsyncListener</text>
<text text-anchor="middle" x="754.38" y="-49.12" font-family="Helvetica,sans-Serif" font-size="10.00">::Client</text>
</a>
</g>
</g>
<!-- Node21&#45;&gt;Node23 -->
<g id="edge22_Node000021_Node000023" class="edge">
<title>Node21&#45;&gt;Node23</title>
<g id="a_edge22_Node000021_Node000023"><a xlink:title=" ">
<path fill="none" stroke="#63b8ff" d="M653.04,-73.32C664.84,-71.59 677.05,-69.8 688.7,-68.09"/>
<polygon fill="#63b8ff" stroke="#63b8ff" points="652.75,-69.82 643.36,-74.73 653.77,-76.75 652.75,-69.82"/>
</a>
</g>
</g>
<!-- Node25 -->
<g id="Node000025" class="node">
<title>Node25</title>
<g id="a_Node000025"><a xlink:href="class_cpl_1_1_io_1_1_stdio_1_1_std_err.html" target="_top" xlink:title="This concrete class represents the C&#45;library &#39;stderr&#39; stream.">
<polygon fill="white" stroke="#666666" points="632.38,-56.25 530.88,-56.25 530.88,-37 632.38,-37 632.38,-56.25"/>
<text text-anchor="middle" x="581.62" y="-42.75" font-family="Helvetica,sans-Serif" font-size="10.00">Cpl::Io::Stdio::StdErr</text>
</a>
</g>
</g>
<!-- Node24&#45;&gt;Node25 -->
<g id="edge24_Node000024_Node000025" class="edge">
<title>Node24&#45;&gt;Node25</title>
<g id="a_edge24_Node000024_Node000025"><a xlink:title=" ">
<path fill="none" stroke="#63b8ff" d="M473.87,-114.68C475.55,-113.72 477.18,-112.71 478.75,-111.62 500.4,-96.67 492.91,-79.31 514.75,-64.62 519.57,-61.38 524.96,-58.72 530.52,-56.54"/>
<polygon fill="#63b8ff" stroke="#63b8ff" points="472.66,-111.38 465.17,-118.88 475.7,-117.69 472.66,-111.38"/>
</a>
</g>
</g>
<!-- Node26 -->
<g id="Node000026" class="node">
<title>Node26</title>
<g id="a_Node000026"><a xlink:href="class_cpl_1_1_io_1_1_stdio_1_1_std_out.html" target="_top" xlink:title="This concrete class represents the C&#45;library &#39;stdout&#39; stream.">
<polygon fill="white" stroke="#666666" points="634.25,-19.25 529,-19.25 529,0 634.25,0 634.25,-19.25"/>
<text text-anchor="middle" x="581.62" y="-5.75" font-family="Helvetica,sans-Serif" font-size="10.00">Cpl::Io::Stdio::StdOut</text>
</a>
</g>
</g>
<!-- Node24&#45;&gt;Node26 -->
<g id="edge25_Node000024_Node000026" class="edge">
<title>Node24&#45;&gt;Node26</title>
<g id="a_edge25_Node000024_Node000026"><a xlink:title=" ">
<path fill="none" stroke="#63b8ff" d="M476.34,-113.63C477.17,-112.99 477.97,-112.32 478.75,-111.62 509.05,-84.57 484.12,-54.29 514.75,-27.62 518.86,-24.04 523.63,-21.17 528.67,-18.86"/>
<polygon fill="#63b8ff" stroke="#63b8ff" points="474.67,-110.55 468.01,-118.79 478.36,-116.5 474.67,-110.55"/>
</a>
</g>
</g>
</g>
</svg>
