<?xml version="1.0" encoding="UTF-8" standalone="no"?>
<!DOCTYPE svg PUBLIC "-//W3C//DTD SVG 1.1//EN"
 "http://www.w3.org/Graphics/SVG/1.1/DTD/svg11.dtd">
<!-- Generated by graphviz version 9.0.0 (20230911.1827)
 -->
<!-- Title: Cpl::Io::Output Pages: 1 -->
<svg width="832pt" height="617pt"
 viewBox="0.00 0.00 832.25 616.88" xmlns="http://www.w3.org/2000/svg" xmlns:xlink="http://www.w3.org/1999/xlink">
<g id="graph0" class="graph" transform="scale(1 1) rotate(0) translate(4 612.88)">
<title>Cpl::Io::Output</title>
<!-- Node1 -->
<g id="Node000001" class="node">
<title>Node1</title>
<g id="a_Node000001"><a xlink:title="This partially abstract class defines a interface for operating on an output stream (example of a str...">
<polygon fill="#999999" stroke="#666666" points="321,-283.25 244.25,-283.25 244.25,-264 321,-264 321,-283.25"/>
<text text-anchor="middle" x="282.62" y="-269.75" font-family="Helvetica,sans-Serif" font-size="10.00">Cpl::Io::Output</text>
</a>
</g>
</g>
<!-- Node5 -->
<g id="Node000005" class="node">
<title>Node5</title>
<g id="a_Node000005"><a xlink:href="class_cpl_1_1_io_1_1_atomic_output_api.html" target="_top" xlink:title="This abstract template class defines a interface for an Atomic outputs to a stream.">
<polygon fill="white" stroke="#666666" points="478.75,-589.88 357,-589.88 357,-559.38 478.75,-559.38 478.75,-589.88"/>
<text text-anchor="start" x="365" y="-576.38" font-family="Helvetica,sans-Serif" font-size="10.00">Cpl::Io::AtomicOutputApi</text>
<text text-anchor="middle" x="417.88" y="-565.12" font-family="Helvetica,sans-Serif" font-size="10.00">&lt; CONTEXT &gt;</text>
</a>
</g>
</g>
<!-- Node1&#45;&gt;Node5 -->
<g id="edge4_Node000001_Node000005" class="edge">
<title>Node1&#45;&gt;Node5</title>
<g id="a_edge4_Node000001_Node000005"><a xlink:title=" ">
<path fill="none" stroke="#63b8ff" d="M284.89,-294.96C288.64,-342.05 303.07,-456.7 357,-532.62 364.57,-543.29 375.74,-552.17 386.39,-558.98"/>
<polygon fill="#63b8ff" stroke="#63b8ff" points="288.39,-294.8 284.2,-285.07 281.41,-295.29 288.39,-294.8"/>
</a>
</g>
</g>
<!-- Node7 -->
<g id="Node000007" class="node">
<title>Node7</title>
<g id="a_Node000007"><a xlink:href="class_cpl_1_1_io_1_1_file_1_1_output_api.html" target="_top" xlink:title="This abstract class defines the interface for a Random Access Input File.">
<polygon fill="white" stroke="#666666" points="473.5,-523.25 362.25,-523.25 362.25,-504 473.5,-504 473.5,-523.25"/>
<text text-anchor="middle" x="417.88" y="-509.75" font-family="Helvetica,sans-Serif" font-size="10.00">Cpl::Io::File::OutputApi</text>
</a>
</g>
</g>
<!-- Node1&#45;&gt;Node7 -->
<g id="edge6_Node000001_Node000007" class="edge">
<title>Node1&#45;&gt;Node7</title>
<g id="a_edge6_Node000001_Node000007"><a xlink:title=" ">
<path fill="none" stroke="#63b8ff" d="M294.73,-293.63C321.93,-342.62 391.15,-467.29 411.3,-503.58"/>
<polygon fill="#63b8ff" stroke="#63b8ff" points="297.83,-292 289.92,-284.96 291.71,-295.4 297.83,-292"/>
</a>
</g>
</g>
<!-- Node12 -->
<g id="Node000012" class="node">
<title>Node12</title>
<g id="a_Node000012"><a xlink:href="class_cpl_1_1_io_1_1_input_output.html" target="_top" xlink:title="This abstract class defines a interface for operating on an input&#45;output stream (example of a stream ...">
<polygon fill="white" stroke="#666666" points="467.12,-283.25 368.62,-283.25 368.62,-264 467.12,-264 467.12,-283.25"/>
<text text-anchor="middle" x="417.88" y="-269.75" font-family="Helvetica,sans-Serif" font-size="10.00">Cpl::Io::InputOutput</text>
</a>
</g>
</g>
<!-- Node1&#45;&gt;Node12 -->
<g id="edge11_Node000001_Node000012" class="edge">
<title>Node1&#45;&gt;Node12</title>
<g id="a_edge11_Node000001_Node000012"><a xlink:title=" ">
<path fill="none" stroke="#63b8ff" d="M332.79,-273.62C344.44,-273.62 356.85,-273.62 368.47,-273.62"/>
<polygon fill="#63b8ff" stroke="#63b8ff" points="332.97,-270.13 322.97,-273.63 332.97,-277.13 332.97,-270.13"/>
</a>
</g>
</g>
<!-- Node25 -->
<g id="Node000025" class="node">
<title>Node25</title>
<g id="a_Node000025"><a xlink:href="class_cpl_1_1_io_1_1_stdio_1_1_output__.html" target="_top" xlink:title="This concrete class implements a Output stream using the underlying platform&#39;s native OS &#39;file interf...">
<polygon fill="white" stroke="#666666" points="472.38,-163.25 363.38,-163.25 363.38,-144 472.38,-144 472.38,-163.25"/>
<text text-anchor="middle" x="417.88" y="-149.75" font-family="Helvetica,sans-Serif" font-size="10.00">Cpl::Io::Stdio::Output_</text>
</a>
</g>
</g>
<!-- Node1&#45;&gt;Node25 -->
<g id="edge24_Node000001_Node000025" class="edge">
<title>Node1&#45;&gt;Node25</title>
<g id="a_edge24_Node000001_Node000025"><a xlink:title=" ">
<path fill="none" stroke="#63b8ff" d="M302.82,-256.34C331.12,-230.85 383.14,-184 405.82,-163.58"/>
<polygon fill="#63b8ff" stroke="#63b8ff" points="300.74,-253.5 295.65,-262.79 305.43,-258.7 300.74,-253.5"/>
</a>
</g>
</g>
<!-- Node28 -->
<g id="Node000028" class="node">
<title>Node28</title>
<g id="a_Node000028"><a xlink:href="class_cpl_1_1_io_1_1_tee_output.html" target="_top" xlink:title="This concrete class implements a Output stream that outputs the data to MANY (or none) output streams...">
<polygon fill="white" stroke="#666666" points="464.5,-126.25 371.25,-126.25 371.25,-107 464.5,-107 464.5,-126.25"/>
<text text-anchor="middle" x="417.88" y="-112.75" font-family="Helvetica,sans-Serif" font-size="10.00">Cpl::Io::TeeOutput</text>
</a>
</g>
</g>
<!-- Node1&#45;&gt;Node28 -->
<g id="edge27_Node000001_Node000028" class="edge">
<title>Node1&#45;&gt;Node28</title>
<g id="a_edge27_Node000001_Node000028"><a xlink:title=" ">
<path fill="none" stroke="#63b8ff" d="M289.13,-252.49C298.16,-221.99 319.04,-165.87 357,-134.62 361.11,-131.25 365.84,-128.5 370.8,-126.27"/>
<polygon fill="#63b8ff" stroke="#63b8ff" points="285.78,-251.47 286.46,-262.05 292.52,-253.36 285.78,-251.47"/>
</a>
</g>
</g>
<!-- Node2 -->
<g id="Node000002" class="node">
<title>Node2</title>
<g id="a_Node000002"><a xlink:href="class_cpl_1_1_io_1_1_close.html" target="_top" xlink:title="This abstract class defines a close operation that is intended to be used Input and Output streams/fi...">
<polygon fill="white" stroke="#666666" points="208.25,-302.25 136,-302.25 136,-283 208.25,-283 208.25,-302.25"/>
<text text-anchor="middle" x="172.12" y="-288.75" font-family="Helvetica,sans-Serif" font-size="10.00">Cpl::Io::Close</text>
</a>
</g>
</g>
<!-- Node2&#45;&gt;Node1 -->
<g id="edge1_Node000001_Node000002" class="edge">
<title>Node2&#45;&gt;Node1</title>
<g id="a_edge1_Node000001_Node000002"><a xlink:title=" ">
<path fill="none" stroke="#63b8ff" d="M219.76,-284.46C227.78,-283.05 236.03,-281.61 243.78,-280.25"/>
<polygon fill="#63b8ff" stroke="#63b8ff" points="219.39,-280.97 210.14,-286.14 220.6,-287.87 219.39,-280.97"/>
</a>
</g>
</g>
<!-- Node3 -->
<g id="Node000003" class="node">
<title>Node3</title>
<g id="a_Node000003"><a xlink:href="class_cpl_1_1_container_1_1_item.html" target="_top" xlink:title="This class is used by the Container classes to implement a various types of singly linked containers.">
<polygon fill="white" stroke="#666666" points="100,-302.25 0,-302.25 0,-283 100,-283 100,-302.25"/>
<text text-anchor="middle" x="50" y="-288.75" font-family="Helvetica,sans-Serif" font-size="10.00">Cpl::Container::Item</text>
</a>
</g>
</g>
<!-- Node3&#45;&gt;Node2 -->
<g id="edge2_Node000002_Node000003" class="edge">
<title>Node3&#45;&gt;Node2</title>
<g id="a_edge2_Node000002_Node000003"><a xlink:title=" ">
<path fill="none" stroke="#63b8ff" d="M111.5,-292.62C119.81,-292.62 128.12,-292.62 135.78,-292.62"/>
<polygon fill="#63b8ff" stroke="#63b8ff" points="111.72,-289.13 101.72,-292.63 111.72,-296.13 111.72,-289.13"/>
</a>
</g>
</g>
<!-- Node4 -->
<g id="Node000004" class="node">
<title>Node4</title>
<g id="a_Node000004"><a xlink:href="class_cpl_1_1_io_1_1_is_eos.html" target="_top" xlink:title="This abstract class defines a isEos() operation that is intended to be used Input and Output streams.">
<polygon fill="white" stroke="#666666" points="208.25,-265.25 136,-265.25 136,-246 208.25,-246 208.25,-265.25"/>
<text text-anchor="middle" x="172.12" y="-251.75" font-family="Helvetica,sans-Serif" font-size="10.00">Cpl::Io::IsEos</text>
</a>
</g>
</g>
<!-- Node4&#45;&gt;Node1 -->
<g id="edge3_Node000001_Node000004" class="edge">
<title>Node4&#45;&gt;Node1</title>
<g id="a_edge3_Node000001_Node000004"><a xlink:title=" ">
<path fill="none" stroke="#63b8ff" d="M219.76,-263.36C227.78,-264.69 236.03,-266.06 243.78,-267.35"/>
<polygon fill="#63b8ff" stroke="#63b8ff" points="220.58,-259.95 210.15,-261.77 219.44,-266.86 220.58,-259.95"/>
</a>
</g>
</g>
<!-- Node6 -->
<g id="Node000006" class="node">
<title>Node6</title>
<g id="a_Node000006"><a xlink:href="class_cpl_1_1_io_1_1_atomic_output.html" target="_top" xlink:title="This concrete template class implements the AtomicOutputApi using a mutex to enforce the &#39;atomic&#45;ness...">
<polygon fill="white" stroke="#666666" points="635.38,-608.88 527.88,-608.88 527.88,-578.38 635.38,-578.38 635.38,-608.88"/>
<text text-anchor="start" x="535.88" y="-595.38" font-family="Helvetica,sans-Serif" font-size="10.00">Cpl::Io::AtomicOutput</text>
<text text-anchor="middle" x="581.62" y="-584.12" font-family="Helvetica,sans-Serif" font-size="10.00">&lt; CONTEXT &gt;</text>
</a>
</g>
</g>
<!-- Node5&#45;&gt;Node6 -->
<g id="edge5_Node000005_Node000006" class="edge">
<title>Node5&#45;&gt;Node6</title>
<g id="a_edge5_Node000005_Node000006"><a xlink:title=" ">
<path fill="none" stroke="#63b8ff" d="M490.44,-583.03C502.9,-584.5 515.67,-586 527.53,-587.39"/>
<polygon fill="#63b8ff" stroke="#63b8ff" points="490.95,-579.57 480.61,-581.88 490.13,-586.52 490.95,-579.57"/>
</a>
</g>
</g>
<!-- Node8 -->
<g id="Node000008" class="node">
<title>Node8</title>
<g id="a_Node000008"><a xlink:href="class_cpl_1_1_io_1_1_file_1_1_input_output_api.html" target="_top" xlink:title="This abstract class defines the interface for a Random Access Input Output File.">
<polygon fill="white" stroke="#666666" points="648.12,-560.25 515.12,-560.25 515.12,-541 648.12,-541 648.12,-560.25"/>
<text text-anchor="middle" x="581.62" y="-546.75" font-family="Helvetica,sans-Serif" font-size="10.00">Cpl::Io::File::InputOutputApi</text>
</a>
</g>
</g>
<!-- Node7&#45;&gt;Node8 -->
<g id="edge7_Node000007_Node000008" class="edge">
<title>Node7&#45;&gt;Node8</title>
<g id="a_edge7_Node000007_Node000008"><a xlink:title=" ">
<path fill="none" stroke="#63b8ff" d="M474.1,-526.26C494.45,-530.91 517.23,-536.12 536.48,-540.53"/>
<polygon fill="#63b8ff" stroke="#63b8ff" points="475.08,-522.89 464.55,-524.07 473.52,-529.71 475.08,-522.89"/>
</a>
</g>
</g>
<!-- Node11 -->
<g id="Node000011" class="node">
<title>Node11</title>
<g id="a_Node000011"><a xlink:href="class_cpl_1_1_io_1_1_file_1_1_output.html" target="_top" xlink:title="This concrete class provides a platform independent &#39;standard&#39; implementation of a Cpl::Io::File::Out...">
<polygon fill="white" stroke="#666666" points="630.12,-523.25 533.12,-523.25 533.12,-504 630.12,-504 630.12,-523.25"/>
<text text-anchor="middle" x="581.62" y="-509.75" font-family="Helvetica,sans-Serif" font-size="10.00">Cpl::Io::File::Output</text>
</a>
</g>
</g>
<!-- Node7&#45;&gt;Node11 -->
<g id="edge10_Node000007_Node000011" class="edge">
<title>Node7&#45;&gt;Node11</title>
<g id="a_edge10_Node000007_Node000011"><a xlink:title=" ">
<path fill="none" stroke="#63b8ff" d="M485.07,-513.62C501.02,-513.62 517.76,-513.62 532.69,-513.62"/>
<polygon fill="#63b8ff" stroke="#63b8ff" points="485.15,-510.13 475.15,-513.63 485.15,-517.13 485.15,-510.13"/>
</a>
</g>
</g>
<!-- Node9 -->
<g id="Node000009" class="node">
<title>Node9</title>
<g id="a_Node000009"><a xlink:href="class_cpl_1_1_io_1_1_file_1_1_input_output.html" target="_top" xlink:title="This concrete class provides a platform independent &#39;standard&#39; implementation of an InputOutputFileAp...">
<polygon fill="white" stroke="#666666" points="813.75,-578.25 695,-578.25 695,-559 813.75,-559 813.75,-578.25"/>
<text text-anchor="middle" x="754.38" y="-564.75" font-family="Helvetica,sans-Serif" font-size="10.00">Cpl::Io::File::InputOutput</text>
</a>
</g>
</g>
<!-- Node8&#45;&gt;Node9 -->
<g id="edge8_Node000008_Node000009" class="edge">
<title>Node8&#45;&gt;Node9</title>
<g id="a_edge8_Node000008_Node000009"><a xlink:title=" ">
<path fill="none" stroke="#63b8ff" d="M659.42,-558.72C671.27,-559.97 683.35,-561.24 694.72,-562.44"/>
<polygon fill="#63b8ff" stroke="#63b8ff" points="659.97,-555.26 649.66,-557.69 659.24,-562.22 659.97,-555.26"/>
</a>
</g>
</g>
<!-- Node10 -->
<g id="Node000010" class="node">
<title>Node10</title>
<g id="a_Node000010"><a xlink:href="class_cpl_1_1_io_1_1_file_1_1_null.html" target="_top" xlink:title="This concrete class implements a NULL InputOutputApi File that all of its input operations return &#39;En...">
<polygon fill="white" stroke="#666666" points="796.88,-541.25 711.88,-541.25 711.88,-522 796.88,-522 796.88,-541.25"/>
<text text-anchor="middle" x="754.38" y="-527.75" font-family="Helvetica,sans-Serif" font-size="10.00">Cpl::Io::File::Null</text>
</a>
</g>
</g>
<!-- Node8&#45;&gt;Node10 -->
<g id="edge9_Node000008_Node000010" class="edge">
<title>Node8&#45;&gt;Node10</title>
<g id="a_edge9_Node000008_Node000010"><a xlink:title=" ">
<path fill="none" stroke="#63b8ff" d="M659.49,-542.07C677.37,-540.08 695.75,-538.04 711.45,-536.29"/>
<polygon fill="#63b8ff" stroke="#63b8ff" points="659.21,-538.58 649.66,-543.17 659.98,-545.54 659.21,-538.58"/>
</a>
</g>
</g>
<!-- Node13 -->
<g id="Node000013" class="node">
<title>Node13</title>
<g id="a_Node000013"><a xlink:href="class_cpl_1_1_io_1_1_null.html" target="_top" xlink:title="This concrete class implements a NULL InputOutput stream &#45; that all of its input operations return &#39;E...">
<polygon fill="white" stroke="#666666" points="614,-486.25 549.25,-486.25 549.25,-467 614,-467 614,-486.25"/>
<text text-anchor="middle" x="581.62" y="-472.75" font-family="Helvetica,sans-Serif" font-size="10.00">Cpl::Io::Null</text>
</a>
</g>
</g>
<!-- Node12&#45;&gt;Node13 -->
<g id="edge12_Node000012_Node000013" class="edge">
<title>Node12&#45;&gt;Node13</title>
<g id="a_edge12_Node000012_Node000013"><a xlink:title=" ">
<path fill="none" stroke="#63b8ff" d="M423.76,-294.48C433.87,-332.92 460.79,-415.02 514.75,-458.62 524.43,-466.45 537.25,-470.88 549.01,-473.39"/>
<polygon fill="#63b8ff" stroke="#63b8ff" points="427.19,-293.76 421.37,-284.9 420.4,-295.45 427.19,-293.76"/>
</a>
</g>
</g>
<!-- Node14 -->
<g id="Node000014" class="node">
<title>Node14</title>
<g id="a_Node000014"><a xlink:href="class_cpl_1_1_io_1_1_ram_1_1_input_output.html" target="_top" xlink:title="This concrete class implements an InputOutput stream using a Ring Buffer.">
<polygon fill="white" stroke="#666666" points="643.25,-449.25 520,-449.25 520,-430 643.25,-430 643.25,-449.25"/>
<text text-anchor="middle" x="581.62" y="-435.75" font-family="Helvetica,sans-Serif" font-size="10.00">Cpl::Io::Ram::InputOutput</text>
</a>
</g>
</g>
<!-- Node12&#45;&gt;Node14 -->
<g id="edge13_Node000012_Node000014" class="edge">
<title>Node12&#45;&gt;Node14</title>
<g id="a_edge13_Node000012_Node000014"><a xlink:title=" ">
<path fill="none" stroke="#63b8ff" d="M426.76,-294.29C440.01,-326.23 469.79,-387.37 514.75,-420.62 519.63,-424.23 525.18,-427.16 530.94,-429.53"/>
<polygon fill="#63b8ff" stroke="#63b8ff" points="430.01,-292.99 423.06,-285 423.51,-295.59 430.01,-292.99"/>
</a>
</g>
</g>
<!-- Node15 -->
<g id="Node000015" class="node">
<title>Node15</title>
<g id="a_Node000015"><a xlink:href="class_cpl_1_1_io_1_1_serial_1_1_adafruit_1_1_nrf5_1_1_b_l_e_1_1_input_output.html" target="_top" xlink:title="This concrete class implements the InputOutput stream interface as a wrapper around Adafruit&#39;s BLEUar...">
<polygon fill="white" stroke="#666666" points="640.62,-411.88 522.62,-411.88 522.62,-381.38 640.62,-381.38 640.62,-411.88"/>
<text text-anchor="start" x="530.62" y="-398.38" font-family="Helvetica,sans-Serif" font-size="10.00">Cpl::Io::Serial::Adafruit</text>
<text text-anchor="middle" x="581.62" y="-387.12" font-family="Helvetica,sans-Serif" font-size="10.00">::Nrf5::BLE::InputOutput</text>
</a>
</g>
</g>
<!-- Node12&#45;&gt;Node15 -->
<g id="edge14_Node000012_Node000015" class="edge">
<title>Node12&#45;&gt;Node15</title>
<g id="a_edge14_Node000012_Node000015"><a xlink:title=" ">
<path fill="none" stroke="#63b8ff" d="M433.14,-292.55C450.37,-314.27 481.25,-349.7 514.75,-371.62 520.07,-375.11 525.95,-378.21 531.94,-380.94"/>
<polygon fill="#63b8ff" stroke="#63b8ff" points="436.05,-290.59 427.15,-284.83 430.52,-294.88 436.05,-290.59"/>
</a>
</g>
</g>
<!-- Node16 -->
<g id="Node000016" class="node">
<title>Node16</title>
<g id="a_Node000016"><a xlink:href="class_cpl_1_1_io_1_1_serial_1_1_adafruit_1_1_nrf5_1_1_input_output.html" target="_top" xlink:title="This concrete class implements the InputOutput stream interface as a wrapper around Adafruit&#39;s Arduin...">
<polygon fill="white" stroke="#666666" points="636.88,-362.88 526.38,-362.88 526.38,-332.38 636.88,-332.38 636.88,-362.88"/>
<text text-anchor="start" x="534.38" y="-349.38" font-family="Helvetica,sans-Serif" font-size="10.00">Cpl::Io::Serial::Adafruit</text>
<text text-anchor="middle" x="581.62" y="-338.12" font-family="Helvetica,sans-Serif" font-size="10.00">::Nrf5::InputOutput</text>
</a>
</g>
</g>
<!-- Node12&#45;&gt;Node16 -->
<g id="edge15_Node000012_Node000016" class="edge">
<title>Node12&#45;&gt;Node16</title>
<g id="a_edge15_Node000012_Node000016"><a xlink:title=" ">
<path fill="none" stroke="#63b8ff" d="M446.98,-289.02C465.89,-299.12 491.5,-312.31 514.75,-322.62 521.91,-325.8 529.6,-328.95 537.12,-331.89"/>
<polygon fill="#63b8ff" stroke="#63b8ff" points="448.76,-286 438.3,-284.34 445.44,-292.17 448.76,-286"/>
</a>
</g>
</g>
<!-- Node17 -->
<g id="Node000017" class="node">
<title>Node17</title>
<g id="a_Node000017"><a xlink:href="class_cpl_1_1_io_1_1_serial_1_1_arduino_1_1_input_output.html" target="_top" xlink:title="This concrete class implements the InputOutput stream interface as a wrapper around Arduino Serial cl...">
<polygon fill="white" stroke="#666666" points="636.5,-313.88 526.75,-313.88 526.75,-283.38 636.5,-283.38 636.5,-313.88"/>
<text text-anchor="start" x="534.75" y="-300.38" font-family="Helvetica,sans-Serif" font-size="10.00">Cpl::Io::Serial::Arduino</text>
<text text-anchor="middle" x="581.62" y="-289.12" font-family="Helvetica,sans-Serif" font-size="10.00">::InputOutput</text>
</a>
</g>
</g>
<!-- Node12&#45;&gt;Node17 -->
<g id="edge16_Node000012_Node000017" class="edge">
<title>Node12&#45;&gt;Node17</title>
<g id="a_edge16_Node000012_Node000017"><a xlink:title=" ">
<path fill="none" stroke="#63b8ff" d="M478.59,-282.85C494.27,-285.28 511.1,-287.88 526.47,-290.25"/>
<polygon fill="#63b8ff" stroke="#63b8ff" points="479.32,-279.43 468.9,-281.36 478.25,-286.34 479.32,-279.43"/>
</a>
</g>
</g>
<!-- Node18 -->
<g id="Node000018" class="node">
<title>Node18</title>
<g id="a_Node000018"><a xlink:href="class_cpl_1_1_io_1_1_serial_1_1_phony_stdio_1_1_input_output.html" target="_top" xlink:title="This concrete class implements the InputOutput stream interface built on top the C Library&#39;s fread/fw...">
<polygon fill="white" stroke="#666666" points="644.75,-264.88 518.5,-264.88 518.5,-234.38 644.75,-234.38 644.75,-264.88"/>
<text text-anchor="start" x="526.5" y="-251.38" font-family="Helvetica,sans-Serif" font-size="10.00">Cpl::Io::Serial::PhonyStdio</text>
<text text-anchor="middle" x="581.62" y="-240.12" font-family="Helvetica,sans-Serif" font-size="10.00">::InputOutput</text>
</a>
</g>
</g>
<!-- Node12&#45;&gt;Node18 -->
<g id="edge17_Node000012_Node000018" class="edge">
<title>Node12&#45;&gt;Node18</title>
<g id="a_edge17_Node000012_Node000018"><a xlink:title=" ">
<path fill="none" stroke="#63b8ff" d="M478.49,-264.78C491.38,-262.87 505.04,-260.84 518.03,-258.91"/>
<polygon fill="#63b8ff" stroke="#63b8ff" points="478.28,-261.27 468.9,-266.2 479.31,-268.2 478.28,-261.27"/>
</a>
</g>
</g>
<!-- Node19 -->
<g id="Node000019" class="node">
<title>Node19</title>
<g id="a_Node000019"><a xlink:href="class_cpl_1_1_io_1_1_serial_1_1_s_t_1_1_m32_f4_1_1_input_output.html" target="_top" xlink:title="This concrete class implements the InputOutput stream interface built on top of ST HAL Layer/SDK.">
<polygon fill="white" stroke="#666666" points="634.62,-215.88 528.62,-215.88 528.62,-185.38 634.62,-185.38 634.62,-215.88"/>
<text text-anchor="start" x="536.62" y="-202.38" font-family="Helvetica,sans-Serif" font-size="10.00">Cpl::Io::Serial::ST</text>
<text text-anchor="middle" x="581.62" y="-191.12" font-family="Helvetica,sans-Serif" font-size="10.00">::M32F4::InputOutput</text>
</a>
</g>
</g>
<!-- Node12&#45;&gt;Node19 -->
<g id="edge18_Node000012_Node000019" class="edge">
<title>Node12&#45;&gt;Node19</title>
<g id="a_edge18_Node000012_Node000019"><a xlink:title=" ">
<path fill="none" stroke="#63b8ff" d="M447.37,-258.41C466.25,-248.56 491.7,-235.74 514.75,-225.62 522.03,-222.43 529.86,-219.25 537.49,-216.27"/>
<polygon fill="#63b8ff" stroke="#63b8ff" points="445.91,-255.22 438.69,-262.97 449.17,-261.42 445.91,-255.22"/>
</a>
</g>
</g>
<!-- Node20 -->
<g id="Node000020" class="node">
<title>Node20</title>
<g id="a_Node000020"><a xlink:href="class_cpl_1_1_io_1_1_socket_1_1_input_output.html" target="_top" xlink:title="This concrete class provides a platform independent &#39;standard&#39; implementation of an InputOutput strea...">
<polygon fill="white" stroke="#666666" points="648.5,-167.25 514.75,-167.25 514.75,-148 648.5,-148 648.5,-167.25"/>
<text text-anchor="middle" x="581.62" y="-153.75" font-family="Helvetica,sans-Serif" font-size="10.00">Cpl::Io::Socket::InputOutput</text>
</a>
</g>
</g>
<!-- Node12&#45;&gt;Node20 -->
<g id="edge19_Node000012_Node000020" class="edge">
<title>Node12&#45;&gt;Node20</title>
<g id="a_edge19_Node000012_Node000020"><a xlink:title=" ">
<path fill="none" stroke="#63b8ff" d="M432.62,-254.75C449.55,-232.83 480.33,-197.07 514.75,-176.62 520.79,-173.04 527.54,-170.1 534.36,-167.69"/>
<polygon fill="#63b8ff" stroke="#63b8ff" points="429.98,-252.44 426.76,-262.53 435.57,-256.65 429.98,-252.44"/>
</a>
</g>
</g>
<!-- Node21 -->
<g id="Node000021" class="node">
<title>Node21</title>
<g id="a_Node000021"><a xlink:href="class_cpl_1_1_io_1_1_stdio_1_1_input_output__.html" target="_top" xlink:title="This concrete class implements a Input&#45;Output stream.">
<polygon fill="white" stroke="#666666" points="647,-130.25 516.25,-130.25 516.25,-111 647,-111 647,-130.25"/>
<text text-anchor="middle" x="581.62" y="-116.75" font-family="Helvetica,sans-Serif" font-size="10.00">Cpl::Io::Stdio::InputOutput_</text>
</a>
</g>
</g>
<!-- Node12&#45;&gt;Node21 -->
<g id="edge20_Node000012_Node000021" class="edge">
<title>Node12&#45;&gt;Node21</title>
<g id="a_edge20_Node000012_Node000021"><a xlink:title=" ">
<path fill="none" stroke="#63b8ff" d="M430.41,-254.18C450.62,-220.7 492.43,-154.23 514.75,-138.62 519.32,-135.43 524.43,-132.81 529.73,-130.64"/>
<polygon fill="#63b8ff" stroke="#63b8ff" points="427.57,-252.11 425.43,-262.49 433.57,-255.71 427.57,-252.11"/>
</a>
</g>
</g>
<!-- Node22 -->
<g id="Node000022" class="node">
<title>Node22</title>
<g id="a_Node000022"><a xlink:href="class_cpl_1_1_io_1_1_tcp_1_1_input_output.html" target="_top" xlink:title="This concrete class defines a platform independent implementation of an InputOutput stream used by th...">
<polygon fill="white" stroke="#666666" points="641.38,-93.25 521.88,-93.25 521.88,-74 641.38,-74 641.38,-93.25"/>
<text text-anchor="middle" x="581.62" y="-79.75" font-family="Helvetica,sans-Serif" font-size="10.00">Cpl::Io::Tcp::InputOutput</text>
</a>
</g>
</g>
<!-- Node12&#45;&gt;Node22 -->
<g id="edge21_Node000012_Node000022" class="edge">
<title>Node12&#45;&gt;Node22</title>
<g id="a_edge21_Node000012_Node000022"><a xlink:title=" ">
<path fill="none" stroke="#63b8ff" d="M430.95,-254.13C443.33,-233.95 462.95,-201.4 478.75,-172.62 495.78,-141.61 487.33,-123.99 514.75,-101.62 518.61,-98.48 522.97,-95.88 527.58,-93.73"/>
<polygon fill="#63b8ff" stroke="#63b8ff" points="428.1,-252.08 425.84,-262.43 434.06,-255.75 428.1,-252.08"/>
</a>
</g>
</g>
<!-- Node23 -->
<g id="Node000023" class="node">
<title>Node23</title>
<g id="a_Node000023"><a xlink:href="class_cpl_1_1_io_1_1_tcp_1_1_async_connector_1_1_client.html" target="_top" xlink:title="This class defines the callback mechanism used for accepting incoming TCP connections.">
<polygon fill="white" stroke="#666666" points="824.25,-122.88 684.5,-122.88 684.5,-92.38 824.25,-92.38 824.25,-122.88"/>
<text text-anchor="start" x="692.5" y="-109.38" font-family="Helvetica,sans-Serif" font-size="10.00">Cpl::Io::Tcp::AsyncConnector</text>
<text text-anchor="middle" x="754.38" y="-98.12" font-family="Helvetica,sans-Serif" font-size="10.00">::Client</text>
</a>
</g>
</g>
<!-- Node22&#45;&gt;Node23 -->
<g id="edge22_Node000022_Node000023" class="edge">
<title>Node22&#45;&gt;Node23</title>
<g id="a_edge22_Node000022_Node000023"><a xlink:title=" ">
<path fill="none" stroke="#63b8ff" d="M652.94,-93.51C663.29,-94.96 673.95,-96.46 684.27,-97.91"/>
<polygon fill="#63b8ff" stroke="#63b8ff" points="653.75,-90.09 643.36,-92.16 652.78,-97.02 653.75,-90.09"/>
</a>
</g>
</g>
<!-- Node24 -->
<g id="Node000024" class="node">
<title>Node24</title>
<g id="a_Node000024"><a xlink:href="class_cpl_1_1_io_1_1_tcp_1_1_async_listener_1_1_client.html" target="_top" xlink:title="This class defines the callback mechanism used for accepting incoming TCP connections.">
<polygon fill="white" stroke="#666666" points="819.75,-73.88 689,-73.88 689,-43.38 819.75,-43.38 819.75,-73.88"/>
<text text-anchor="start" x="697" y="-60.38" font-family="Helvetica,sans-Serif" font-size="10.00">Cpl::Io::Tcp::AsyncListener</text>
<text text-anchor="middle" x="754.38" y="-49.12" font-family="Helvetica,sans-Serif" font-size="10.00">::Client</text>
</a>
</g>
</g>
<!-- Node22&#45;&gt;Node24 -->
<g id="edge23_Node000022_Node000024" class="edge">
<title>Node22&#45;&gt;Node24</title>
<g id="a_edge23_Node000022_Node000024"><a xlink:title=" ">
<path fill="none" stroke="#63b8ff" d="M653.04,-73.32C664.84,-71.59 677.05,-69.8 688.7,-68.09"/>
<polygon fill="#63b8ff" stroke="#63b8ff" points="652.75,-69.82 643.36,-74.73 653.77,-76.75 652.75,-69.82"/>
</a>
</g>
</g>
<!-- Node26 -->
<g id="Node000026" class="node">
<title>Node26</title>
<g id="a_Node000026"><a xlink:href="class_cpl_1_1_io_1_1_stdio_1_1_std_err.html" target="_top" xlink:title="This concrete class represents the C&#45;library &#39;stderr&#39; stream.">
<polygon fill="white" stroke="#666666" points="632.38,-56.25 530.88,-56.25 530.88,-37 632.38,-37 632.38,-56.25"/>
<text text-anchor="middle" x="581.62" y="-42.75" font-family="Helvetica,sans-Serif" font-size="10.00">Cpl::Io::Stdio::StdErr</text>
</a>
</g>
</g>
<!-- Node25&#45;&gt;Node26 -->
<g id="edge25_Node000025_Node000026" class="edge">
<title>Node25&#45;&gt;Node26</title>
<g id="a_edge25_Node000025_Node000026"><a xlink:title=" ">
<path fill="none" stroke="#63b8ff" d="M475.78,-137.92C476.8,-137.19 477.79,-136.43 478.75,-135.62 505.88,-112.92 487.33,-86.99 514.75,-64.62 519.44,-60.8 524.87,-57.79 530.57,-55.42"/>
<polygon fill="#63b8ff" stroke="#63b8ff" points="474.13,-134.83 467.22,-142.87 477.63,-140.89 474.13,-134.83"/>
</a>
</g>
</g>
<!-- Node27 -->
<g id="Node000027" class="node">
<title>Node27</title>
<g id="a_Node000027"><a xlink:href="class_cpl_1_1_io_1_1_stdio_1_1_std_out.html" target="_top" xlink:title="This concrete class represents the C&#45;library &#39;stdout&#39; stream.">
<polygon fill="white" stroke="#666666" points="634.25,-19.25 529,-19.25 529,0 634.25,0 634.25,-19.25"/>
<text text-anchor="middle" x="581.62" y="-5.75" font-family="Helvetica,sans-Serif" font-size="10.00">Cpl::Io::Stdio::StdOut</text>
</a>
</g>
</g>
<!-- Node25&#45;&gt;Node27 -->
<g id="edge26_Node000025_Node000027" class="edge">
<title>Node25&#45;&gt;Node27</title>
<g id="a_edge26_Node000025_Node000027"><a xlink:title=" ">
<path fill="none" stroke="#63b8ff" d="M476.85,-137.35C477.5,-136.8 478.14,-136.22 478.75,-135.62 515.05,-100.38 478,-62.4 514.75,-27.62 518.8,-23.79 523.58,-20.76 528.69,-18.37"/>
<polygon fill="#63b8ff" stroke="#63b8ff" points="475.19,-134.25 468.84,-142.73 479.1,-140.06 475.19,-134.25"/>
</a>
</g>
</g>
</g>
</svg>
