<?xml version="1.0" encoding="UTF-8" standalone="no"?>
<!DOCTYPE svg PUBLIC "-//W3C//DTD SVG 1.1//EN"
 "http://www.w3.org/Graphics/SVG/1.1/DTD/svg11.dtd">
<!-- Generated by graphviz version 9.0.0 (20230911.1827)
 -->
<!-- Title: Cpl::Io::Serial::ST::M32F4::InputOutput Pages: 1 -->
<svg width="898pt" height="156pt"
 viewBox="0.00 0.00 897.50 156.34" xmlns="http://www.w3.org/2000/svg" xmlns:xlink="http://www.w3.org/1999/xlink">
<g id="graph0" class="graph" transform="scale(1 1) rotate(0) translate(4 152.34)">
<title>Cpl::Io::Serial::ST::M32F4::InputOutput</title>
<!-- Node1 -->
<g id="Node000001" class="node">
<title>Node1</title>
<g id="a_Node000001"><a xlink:title="This concrete class implements the InputOutput stream interface built on top of ST HAL Layer/SDK.">
<polygon fill="#999999" stroke="#666666" points="886.5,-114.5 780.5,-114.5 780.5,-84 886.5,-84 886.5,-114.5"/>
<text text-anchor="start" x="788.5" y="-101" font-family="Helvetica,sans-Serif" font-size="10.00">Cpl::Io::Serial::ST</text>
<text text-anchor="middle" x="833.5" y="-89.75" font-family="Helvetica,sans-Serif" font-size="10.00">::M32F4::InputOutput</text>
</a>
</g>
</g>
<!-- Node2 -->
<g id="Node000002" class="node">
<title>Node2</title>
<g id="a_Node000002"><a xlink:href="class_cpl_1_1_io_1_1_input_output.html" target="_top" xlink:title="This abstract class defines a interface for operating on an input&#45;output stream (example of a stream ...">
<polygon fill="white" stroke="#666666" points="677,-121.88 578.5,-121.88 578.5,-102.62 677,-102.62 677,-121.88"/>
<text text-anchor="middle" x="627.75" y="-108.38" font-family="Helvetica,sans-Serif" font-size="10.00">Cpl::Io::InputOutput</text>
</a>
</g>
</g>
<!-- Node2&#45;&gt;Node1 -->
<g id="edge1_Node000001_Node000002" class="edge">
<title>Node2&#45;&gt;Node1</title>
<g id="a_edge1_Node000001_Node000002"><a xlink:title=" ">
<path fill="none" stroke="#63b8ff" d="M688.53,-108.44C717.54,-106.59 752.07,-104.38 780.04,-102.6"/>
<polygon fill="#63b8ff" stroke="#63b8ff" points="688.56,-104.93 678.8,-109.06 689.01,-111.91 688.56,-104.93"/>
</a>
</g>
</g>
<!-- Node3 -->
<g id="Node000003" class="node">
<title>Node3</title>
<g id="a_Node000003"><a xlink:href="class_cpl_1_1_io_1_1_input.html" target="_top" xlink:title="This partially abstract class defines a interface for operating on an input stream (example of a stre...">
<polygon fill="white" stroke="#666666" points="443.88,-147.88 374.62,-147.88 374.62,-128.62 443.88,-128.62 443.88,-147.88"/>
<text text-anchor="middle" x="409.25" y="-134.38" font-family="Helvetica,sans-Serif" font-size="10.00">Cpl::Io::Input</text>
</a>
</g>
</g>
<!-- Node3&#45;&gt;Node2 -->
<g id="edge2_Node000002_Node000003" class="edge">
<title>Node3&#45;&gt;Node2</title>
<g id="a_edge2_Node000002_Node000003"><a xlink:title=" ">
<path fill="none" stroke="#63b8ff" d="M455.21,-132.85C491.16,-128.53 541.46,-122.49 578.3,-118.07"/>
<polygon fill="#63b8ff" stroke="#63b8ff" points="455.09,-129.34 445.58,-134.01 455.93,-136.29 455.09,-129.34"/>
</a>
</g>
</g>
<!-- Node4 -->
<g id="Node000004" class="node">
<title>Node4</title>
<g id="a_Node000004"><a xlink:href="class_cpl_1_1_io_1_1_close.html" target="_top" xlink:title="This abstract class defines a close operation that is intended to be used Input and Output streams/fi...">
<polygon fill="white" stroke="#666666" points="235.88,-145.88 163.62,-145.88 163.62,-126.62 235.88,-126.62 235.88,-145.88"/>
<text text-anchor="middle" x="199.75" y="-132.38" font-family="Helvetica,sans-Serif" font-size="10.00">Cpl::Io::Close</text>
</a>
</g>
</g>
<!-- Node4&#45;&gt;Node3 -->
<g id="edge3_Node000003_Node000004" class="edge">
<title>Node4&#45;&gt;Node3</title>
<g id="a_edge3_Node000003_Node000004"><a xlink:title=" ">
<path fill="none" stroke="#63b8ff" d="M247.71,-143.82C258.46,-145.25 269.85,-146.52 280.5,-147.25 312.33,-149.43 348.62,-146.34 374.36,-143.2"/>
<polygon fill="#63b8ff" stroke="#63b8ff" points="248.26,-140.36 237.87,-142.44 247.29,-147.29 248.26,-140.36"/>
</a>
</g>
</g>
<!-- Node7 -->
<g id="Node000007" class="node">
<title>Node7</title>
<g id="a_Node000007"><a xlink:href="class_cpl_1_1_io_1_1_output.html" target="_top" xlink:title="This partially abstract class defines a interface for operating on an output stream (example of a str...">
<polygon fill="white" stroke="#666666" points="447.62,-110.88 370.88,-110.88 370.88,-91.62 447.62,-91.62 447.62,-110.88"/>
<text text-anchor="middle" x="409.25" y="-97.38" font-family="Helvetica,sans-Serif" font-size="10.00">Cpl::Io::Output</text>
</a>
</g>
</g>
<!-- Node4&#45;&gt;Node7 -->
<g id="edge7_Node000007_Node000004" class="edge">
<title>Node4&#45;&gt;Node7</title>
<g id="a_edge7_Node000007_Node000004"><a xlink:title=" ">
<path fill="none" stroke="#63b8ff" d="M246.98,-128.45C284.14,-122.18 335.69,-113.49 370.42,-107.63"/>
<polygon fill="#63b8ff" stroke="#63b8ff" points="246.72,-124.95 237.44,-130.06 247.88,-131.85 246.72,-124.95"/>
</a>
</g>
</g>
<!-- Node5 -->
<g id="Node000005" class="node">
<title>Node5</title>
<g id="a_Node000005"><a xlink:href="class_cpl_1_1_container_1_1_item.html" target="_top" xlink:title="This class is used by the Container classes to implement a various types of singly linked containers.">
<polygon fill="white" stroke="#666666" points="100,-107.88 0,-107.88 0,-88.62 100,-88.62 100,-107.88"/>
<text text-anchor="middle" x="50" y="-94.38" font-family="Helvetica,sans-Serif" font-size="10.00">Cpl::Container::Item</text>
</a>
</g>
</g>
<!-- Node5&#45;&gt;Node4 -->
<g id="edge4_Node000004_Node000005" class="edge">
<title>Node5&#45;&gt;Node4</title>
<g id="a_edge4_Node000004_Node000005"><a xlink:title=" ">
<path fill="none" stroke="#63b8ff" d="M101.24,-111.17C121.67,-116.43 144.8,-122.37 163.41,-127.16"/>
<polygon fill="#63b8ff" stroke="#63b8ff" points="102.23,-107.81 91.67,-108.71 100.49,-114.59 102.23,-107.81"/>
</a>
</g>
</g>
<!-- Node10 -->
<g id="Node000010" class="node">
<title>Node10</title>
<g id="a_Node000010"><a xlink:href="class_cpl_1_1_system_1_1_signable.html" target="_top" xlink:title="This abstract class defines the interface by which a client can cause an object that is waiting&#45;on&#45;a&#45;...">
<polygon fill="white" stroke="#666666" points="254.62,-71.88 144.88,-71.88 144.88,-52.62 254.62,-52.62 254.62,-71.88"/>
<text text-anchor="middle" x="199.75" y="-58.38" font-family="Helvetica,sans-Serif" font-size="10.00">Cpl::System::Signable</text>
</a>
</g>
</g>
<!-- Node5&#45;&gt;Node10 -->
<g id="edge12_Node000010_Node000005" class="edge">
<title>Node5&#45;&gt;Node10</title>
<g id="a_edge12_Node000010_Node000005"><a xlink:title=" ">
<path fill="none" stroke="#63b8ff" d="M103.55,-85.45C121.18,-81.15 140.59,-76.42 157.26,-72.36"/>
<polygon fill="#63b8ff" stroke="#63b8ff" points="102.91,-82 94.02,-87.77 104.56,-88.8 102.91,-82"/>
</a>
</g>
</g>
<!-- Node6 -->
<g id="Node000006" class="node">
<title>Node6</title>
<g id="a_Node000006"><a xlink:href="class_cpl_1_1_io_1_1_is_eos.html" target="_top" xlink:title="This abstract class defines a isEos() operation that is intended to be used Input and Output streams.">
<polygon fill="white" stroke="#666666" points="235.88,-108.88 163.62,-108.88 163.62,-89.62 235.88,-89.62 235.88,-108.88"/>
<text text-anchor="middle" x="199.75" y="-95.38" font-family="Helvetica,sans-Serif" font-size="10.00">Cpl::Io::IsEos</text>
</a>
</g>
</g>
<!-- Node6&#45;&gt;Node3 -->
<g id="edge5_Node000003_Node000006" class="edge">
<title>Node6&#45;&gt;Node3</title>
<g id="a_edge5_Node000003_Node000006"><a xlink:title=" ">
<path fill="none" stroke="#63b8ff" d="M246.88,-107.92C285.44,-115.17 339.55,-125.34 374.26,-131.86"/>
<polygon fill="#63b8ff" stroke="#63b8ff" points="247.91,-104.55 237.44,-106.15 246.62,-111.43 247.91,-104.55"/>
</a>
</g>
</g>
<!-- Node6&#45;&gt;Node7 -->
<g id="edge8_Node000007_Node000006" class="edge">
<title>Node6&#45;&gt;Node7</title>
<g id="a_edge8_Node000007_Node000006"><a xlink:title=" ">
<path fill="none" stroke="#63b8ff" d="M247.63,-99.56C271.78,-99.74 301.72,-99.98 328.5,-100.25 342.21,-100.39 357.24,-100.57 370.52,-100.74"/>
<polygon fill="#63b8ff" stroke="#63b8ff" points="247.81,-96.07 237.78,-99.49 247.76,-103.07 247.81,-96.07"/>
</a>
</g>
</g>
<!-- Node7&#45;&gt;Node2 -->
<g id="edge6_Node000002_Node000007" class="edge">
<title>Node7&#45;&gt;Node2</title>
<g id="a_edge6_Node000002_Node000007"><a xlink:title=" ">
<path fill="none" stroke="#63b8ff" d="M459.04,-103.73C494.59,-105.54 542.55,-107.97 578.08,-109.78"/>
<polygon fill="#63b8ff" stroke="#63b8ff" points="459.64,-100.25 449.47,-103.24 459.28,-107.25 459.64,-100.25"/>
</a>
</g>
</g>
<!-- Node8 -->
<g id="Node000008" class="node">
<title>Node8</title>
<g id="a_Node000008"><a xlink:href="class_cpl_1_1_io_1_1_serial_1_1_s_t_1_1_m32_f4_1_1_stream_driver.html" target="_top" xlink:title="This concrete class implements a non&#45;busy&#45;wait blocking Transmit/Receive Stream UART driver with a SO...">
<polygon fill="white" stroke="#666666" points="683.75,-67.5 571.75,-67.5 571.75,-37 683.75,-37 683.75,-67.5"/>
<text text-anchor="start" x="579.75" y="-54" font-family="Helvetica,sans-Serif" font-size="10.00">Cpl::Io::Serial::ST</text>
<text text-anchor="middle" x="627.75" y="-42.75" font-family="Helvetica,sans-Serif" font-size="10.00">::M32F4::StreamDriver</text>
</a>
</g>
</g>
<!-- Node8&#45;&gt;Node1 -->
<g id="edge9_Node000001_Node000008" class="edge">
<title>Node8&#45;&gt;Node1</title>
<g id="a_edge9_Node000001_Node000008"><a xlink:title=" ">
<path fill="none" stroke="#9a32cd" stroke-dasharray="5,2" d="M695.3,-67.6C722.88,-73.96 754.39,-81.23 780.26,-87.2"/>
<polygon fill="#9a32cd" stroke="#9a32cd" points="696.16,-64.21 685.63,-65.37 694.59,-71.03 696.16,-64.21"/>
</a>
</g>
<text text-anchor="middle" x="730.62" y="-83" font-family="Helvetica,sans-Serif" font-size="10.00" fill="grey"> m_driver</text>
</g>
<!-- Node13 -->
<g id="Node000013" class="node">
<title>Node13</title>
<g id="a_Node000013"><a xlink:href="class_cpl_1_1_io_1_1_serial_1_1_s_t_1_1_m32_f4_1_1_stream_driver.html#struct_cpl_1_1_io_1_1_serial_1_1_s_t_1_1_m32_f4_1_1_stream_driver_1_1_hal_mapping___t" target="_top" xlink:title="Used to map a HAL UART Handle to an instance of this class.">
<polygon fill="white" stroke="#666666" points="889.5,-59.12 777.5,-59.12 777.5,-17.38 889.5,-17.38 889.5,-59.12"/>
<text text-anchor="start" x="785.5" y="-45.62" font-family="Helvetica,sans-Serif" font-size="10.00">Cpl::Io::Serial::ST</text>
<text text-anchor="start" x="785.5" y="-34.38" font-family="Helvetica,sans-Serif" font-size="10.00">::M32F4::StreamDriver</text>
<text text-anchor="middle" x="833.5" y="-23.12" font-family="Helvetica,sans-Serif" font-size="10.00">::HalMapping_T</text>
</a>
</g>
</g>
<!-- Node8&#45;&gt;Node13 -->
<g id="edge16_Node000013_Node000008" class="edge">
<title>Node8&#45;&gt;Node13</title>
<g id="a_edge16_Node000013_Node000008"><a xlink:title=" ">
<path fill="none" stroke="#9a32cd" stroke-dasharray="5,2" d="M680.98,-33.49C687.89,-31.64 694.94,-30.06 701.75,-29 726.37,-25.17 753.85,-26.31 777.24,-28.87"/>
<polygon fill="#9a32cd" stroke="#9a32cd" points="680.38,-30.02 671.75,-36.17 682.33,-36.75 680.38,-30.02"/>
</a>
</g>
<text text-anchor="middle" x="730.62" y="-31" font-family="Helvetica,sans-Serif" font-size="10.00" fill="grey"> driver</text>
</g>
<!-- Node9 -->
<g id="Node000009" class="node">
<title>Node9</title>
<g id="a_Node000009"><a xlink:href="class_cpl_1_1_system_1_1_thread.html" target="_top" xlink:title="This abstract class defines the operations that can be performed on a thread.">
<polygon fill="white" stroke="#666666" points="460.38,-70.88 358.12,-70.88 358.12,-51.62 460.38,-51.62 460.38,-70.88"/>
<text text-anchor="middle" x="409.25" y="-57.38" font-family="Helvetica,sans-Serif" font-size="10.00">Cpl::System::Thread</text>
</a>
</g>
</g>
<!-- Node9&#45;&gt;Node8 -->
<g id="edge10_Node000008_Node000009" class="edge">
<title>Node9&#45;&gt;Node8</title>
<g id="a_edge10_Node000008_Node000009"><a xlink:title=" ">
<path fill="none" stroke="#9a32cd" stroke-dasharray="5,2" d="M471.99,-58.68C503.38,-57.38 541.22,-55.81 571.62,-54.54"/>
<polygon fill="#9a32cd" stroke="#9a32cd" points="472.09,-55.18 462.25,-59.09 472.39,-62.17 472.09,-55.18"/>
</a>
</g>
<text text-anchor="middle" x="521.88" y="-71.25" font-family="Helvetica,sans-Serif" font-size="10.00" fill="grey"> m_rxWaiterPtr</text>
<text text-anchor="middle" x="521.88" y="-60" font-family="Helvetica,sans-Serif" font-size="10.00" fill="grey">m_txWaiterPtr</text>
</g>
<!-- Node10&#45;&gt;Node9 -->
<g id="edge11_Node000009_Node000010" class="edge">
<title>Node10&#45;&gt;Node9</title>
<g id="a_edge11_Node000009_Node000010"><a xlink:title=" ">
<path fill="none" stroke="#63b8ff" d="M266.49,-61.93C296.06,-61.79 330.4,-61.63 357.88,-61.49"/>
<polygon fill="#63b8ff" stroke="#63b8ff" points="266.49,-58.43 256.51,-61.98 266.53,-65.43 266.49,-58.43"/>
</a>
</g>
</g>
<!-- Node11 -->
<g id="Node000011" class="node">
<title>Node11</title>
<g id="a_Node000011"><a xlink:href="class_cpl_1_1_container_1_1_ring_buffer.html" target="_top" xlink:title=" ">
<polygon fill="white" stroke="#666666" points="472,-30.5 346.5,-30.5 346.5,0 472,0 472,-30.5"/>
<text text-anchor="start" x="354.5" y="-17" font-family="Helvetica,sans-Serif" font-size="10.00">Cpl::Container::RingBuffer</text>
<text text-anchor="middle" x="409.25" y="-5.75" font-family="Helvetica,sans-Serif" font-size="10.00">&lt; uint8_t &gt;</text>
</a>
</g>
</g>
<!-- Node11&#45;&gt;Node8 -->
<g id="edge13_Node000008_Node000011" class="edge">
<title>Node11&#45;&gt;Node8</title>
<g id="a_edge13_Node000008_Node000011"><a xlink:title=" ">
<path fill="none" stroke="#9a32cd" stroke-dasharray="5,2" d="M483.7,-19.85C506.31,-22.02 531.18,-25.18 553.75,-29.75 562.59,-31.54 571.88,-33.97 580.77,-36.57"/>
<polygon fill="#9a32cd" stroke="#9a32cd" points="484.24,-16.38 473.96,-18.97 483.61,-23.36 484.24,-16.38"/>
</a>
</g>
<text text-anchor="middle" x="521.88" y="-43.25" font-family="Helvetica,sans-Serif" font-size="10.00" fill="grey"> m_rxBuffer</text>
<text text-anchor="middle" x="521.88" y="-32" font-family="Helvetica,sans-Serif" font-size="10.00" fill="grey">m_txBuffer</text>
</g>
<!-- Node12 -->
<g id="Node000012" class="node">
<title>Node12</title>
<g id="a_Node000012"><a xlink:href="class_cpl_1_1_container_1_1_ring_buffer.html" target="_top" xlink:title="This template class implements a Ring Buffer.">
<polygon fill="white" stroke="#666666" points="262.5,-30.5 137,-30.5 137,0 262.5,0 262.5,-30.5"/>
<text text-anchor="start" x="145" y="-17" font-family="Helvetica,sans-Serif" font-size="10.00">Cpl::Container::RingBuffer</text>
<text text-anchor="middle" x="199.75" y="-5.75" font-family="Helvetica,sans-Serif" font-size="10.00">&lt; ITEM &gt;</text>
</a>
</g>
</g>
<!-- Node12&#45;&gt;Node11 -->
<g id="edge14_Node000011_Node000012" class="edge">
<title>Node12&#45;&gt;Node11</title>
<g id="a_edge14_Node000011_Node000012"><a xlink:title=" ">
<path fill="none" stroke="orange" stroke-dasharray="5,2" d="M274.09,-15.25C297.67,-15.25 323.55,-15.25 346.24,-15.25"/>
<polygon fill="orange" stroke="orange" points="274.24,-11.75 264.24,-15.25 274.24,-18.75 274.24,-11.75"/>
</a>
</g>
<text text-anchor="middle" x="304.5" y="-17" font-family="Helvetica,sans-Serif" font-size="10.00" fill="grey"> &lt; uint8_t &gt;</text>
</g>
<!-- Node13&#45;&gt;Node8 -->
<g id="edge15_Node000008_Node000013" class="edge">
<title>Node13&#45;&gt;Node8</title>
<g id="a_edge15_Node000008_Node000013"><a xlink:title=" ">
<path fill="none" stroke="#9a32cd" stroke-dasharray="5,2" d="M765.65,-42.84C739.26,-44.66 709.31,-46.71 684.16,-48.44"/>
<polygon fill="#9a32cd" stroke="#9a32cd" points="765.86,-46.34 775.59,-42.16 765.38,-39.35 765.86,-46.34"/>
</a>
</g>
<text text-anchor="middle" x="730.62" y="-49" font-family="Helvetica,sans-Serif" font-size="10.00" fill="grey"> m_mappings</text>
</g>
</g>
</svg>
