<?xml version="1.0" encoding="UTF-8" standalone="no"?>
<!DOCTYPE svg PUBLIC "-//W3C//DTD SVG 1.1//EN"
 "http://www.w3.org/Graphics/SVG/1.1/DTD/svg11.dtd">
<!-- Generated by graphviz version 9.0.0 (20230911.1827)
 -->
<!-- Title: Cpl::Dm::PeriodicScheduler Pages: 1 -->
<svg width="1728pt" height="495pt"
 viewBox="0.00 0.00 1727.75 494.88" xmlns="http://www.w3.org/2000/svg" xmlns:xlink="http://www.w3.org/1999/xlink">
<g id="graph0" class="graph" transform="scale(1 1) rotate(0) translate(4 490.88)">
<title>Cpl::Dm::PeriodicScheduler</title>
<!-- Node1 -->
<g id="Node000001" class="node">
<title>Node1</title>
<g id="a_Node000001"><a xlink:title="This class extends the Cpl::Dm::MailboxServer class to add periodic scheduling to an event based &#39;thr...">
<polygon fill="#999999" stroke="#666666" points="1719.75,-137.88 1586.75,-137.88 1586.75,-118.62 1719.75,-118.62 1719.75,-137.88"/>
<text text-anchor="middle" x="1653.25" y="-124.38" font-family="Helvetica,sans-Serif" font-size="10.00">Cpl::Dm::PeriodicScheduler</text>
</a>
</g>
</g>
<!-- Node2 -->
<g id="Node000002" class="node">
<title>Node2</title>
<g id="a_Node000002"><a xlink:href="class_cpl_1_1_dm_1_1_mailbox_server.html" target="_top" xlink:title="This class extends the Cpl::Dm::EventLoop and Cpl::Itc:Mailbox classes to support the asynchronous ch...">
<polygon fill="white" stroke="#666666" points="1532.12,-249.88 1416.38,-249.88 1416.38,-230.62 1532.12,-230.62 1532.12,-249.88"/>
<text text-anchor="middle" x="1474.25" y="-236.38" font-family="Helvetica,sans-Serif" font-size="10.00">Cpl::Dm::MailboxServer</text>
</a>
</g>
</g>
<!-- Node2&#45;&gt;Node1 -->
<g id="edge1_Node000001_Node000002" class="edge">
<title>Node2&#45;&gt;Node1</title>
<g id="a_edge1_Node000001_Node000002"><a xlink:title=" ">
<path fill="none" stroke="#63b8ff" d="M1500.53,-224.25C1537.57,-200.82 1605.52,-157.82 1636.32,-138.33"/>
<polygon fill="#63b8ff" stroke="#63b8ff" points="1498.82,-221.2 1492.24,-229.5 1502.56,-227.11 1498.82,-221.2"/>
</a>
</g>
</g>
<!-- Node3 -->
<g id="Node000003" class="node">
<title>Node3</title>
<g id="a_Node000003"><a xlink:href="class_cpl_1_1_dm_1_1_event_loop.html" target="_top" xlink:title="This class extends the Cpl::System::EventLoop class to support the asynchronous change notification g...">
<polygon fill="white" stroke="#666666" points="1261.88,-249.88 1161.12,-249.88 1161.12,-230.62 1261.88,-230.62 1261.88,-249.88"/>
<text text-anchor="middle" x="1211.5" y="-236.38" font-family="Helvetica,sans-Serif" font-size="10.00">Cpl::Dm::EventLoop</text>
</a>
</g>
</g>
<!-- Node3&#45;&gt;Node2 -->
<g id="edge2_Node000002_Node000003" class="edge">
<title>Node3&#45;&gt;Node2</title>
<g id="a_edge2_Node000002_Node000003"><a xlink:title=" ">
<path fill="none" stroke="#63b8ff" d="M1273.62,-240.25C1316.67,-240.25 1373.91,-240.25 1416.06,-240.25"/>
<polygon fill="#63b8ff" stroke="#63b8ff" points="1273.67,-236.75 1263.67,-240.25 1273.67,-243.75 1273.67,-236.75"/>
</a>
</g>
</g>
<!-- Node4 -->
<g id="Node000004" class="node">
<title>Node4</title>
<g id="a_Node000004"><a xlink:href="class_cpl_1_1_system_1_1_event_loop.html" target="_top" xlink:title="This concrete class is a Runnable object that provides a event driven execution model for a thread.">
<polygon fill="white" stroke="#666666" points="1035.12,-307.88 916.38,-307.88 916.38,-288.62 1035.12,-288.62 1035.12,-307.88"/>
<text text-anchor="middle" x="975.75" y="-294.38" font-family="Helvetica,sans-Serif" font-size="10.00">Cpl::System::EventLoop</text>
</a>
</g>
</g>
<!-- Node4&#45;&gt;Node3 -->
<g id="edge3_Node000003_Node000004" class="edge">
<title>Node4&#45;&gt;Node3</title>
<g id="a_edge3_Node000003_Node000004"><a xlink:title=" ">
<path fill="none" stroke="#63b8ff" d="M1028.45,-285.42C1071.05,-274.85 1130.62,-260.07 1169.86,-250.33"/>
<polygon fill="#63b8ff" stroke="#63b8ff" points="1027.8,-281.98 1018.94,-287.78 1029.48,-288.77 1027.8,-281.98"/>
</a>
</g>
</g>
<!-- Node5 -->
<g id="Node000005" class="node">
<title>Node5</title>
<g id="a_Node000005"><a xlink:href="class_cpl_1_1_system_1_1_runnable.html" target="_top" xlink:title="This is an abstract class defines the interface for an object that is &quot;executed&quot; when a Thread object...">
<polygon fill="white" stroke="#666666" points="747.62,-398.88 634.88,-398.88 634.88,-379.62 747.62,-379.62 747.62,-398.88"/>
<text text-anchor="middle" x="691.25" y="-385.38" font-family="Helvetica,sans-Serif" font-size="10.00">Cpl::System::Runnable</text>
</a>
</g>
</g>
<!-- Node5&#45;&gt;Node4 -->
<g id="edge4_Node000004_Node000005" class="edge">
<title>Node5&#45;&gt;Node4</title>
<g id="a_edge4_Node000004_Node000005"><a xlink:title=" ">
<path fill="none" stroke="#63b8ff" d="M758.95,-383.28C799.05,-378.09 850.47,-368.55 893.5,-351.25 920.22,-340.51 947.5,-320.47 962.66,-308.35"/>
<polygon fill="#63b8ff" stroke="#63b8ff" points="758.69,-379.78 749.2,-384.48 759.55,-386.73 758.69,-379.78"/>
</a>
</g>
</g>
<!-- Node6 -->
<g id="Node000006" class="node">
<title>Node6</title>
<g id="a_Node000006"><a xlink:href="class_cpl_1_1_system_1_1_event_flag.html" target="_top" xlink:title="This abstract class defines the interface to generated a &#39;Event Flag&#39;.">
<polygon fill="white" stroke="#666666" points="749.12,-361.88 633.38,-361.88 633.38,-342.62 749.12,-342.62 749.12,-361.88"/>
<text text-anchor="middle" x="691.25" y="-348.38" font-family="Helvetica,sans-Serif" font-size="10.00">Cpl::System::EventFlag</text>
</a>
</g>
</g>
<!-- Node6&#45;&gt;Node4 -->
<g id="edge5_Node000004_Node000006" class="edge">
<title>Node6&#45;&gt;Node4</title>
<g id="a_edge5_Node000004_Node000006"><a xlink:title=" ">
<path fill="none" stroke="#63b8ff" d="M760.57,-348.11C799.85,-344.74 849.91,-338.74 893.5,-328.25 913.82,-323.36 936.03,-314.93 952.08,-308.26"/>
<polygon fill="#63b8ff" stroke="#63b8ff" points="760.46,-344.61 750.77,-348.91 761.03,-351.58 760.46,-344.61"/>
</a>
</g>
</g>
<!-- Node7 -->
<g id="Node000007" class="node">
<title>Node7</title>
<g id="a_Node000007"><a xlink:href="class_cpl_1_1_system_1_1_signable.html" target="_top" xlink:title="This abstract class defines the interface by which a client can cause an object that is waiting&#45;on&#45;a&#45;...">
<polygon fill="white" stroke="#666666" points="428.75,-369.88 319,-369.88 319,-350.62 428.75,-350.62 428.75,-369.88"/>
<text text-anchor="middle" x="373.88" y="-356.38" font-family="Helvetica,sans-Serif" font-size="10.00">Cpl::System::Signable</text>
</a>
</g>
</g>
<!-- Node7&#45;&gt;Node4 -->
<g id="edge6_Node000004_Node000007" class="edge">
<title>Node7&#45;&gt;Node4</title>
<g id="a_edge6_Node000004_Node000007"><a xlink:title=" ">
<path fill="none" stroke="#63b8ff" d="M440.15,-353.02C490.4,-347.5 561.58,-339.75 624,-333.25 726.71,-322.56 846.42,-310.75 916.09,-303.95"/>
<polygon fill="#63b8ff" stroke="#63b8ff" points="439.86,-349.53 430.31,-354.11 440.63,-356.49 439.86,-349.53"/>
</a>
</g>
</g>
<!-- Node13 -->
<g id="Node000013" class="node">
<title>Node13</title>
<g id="a_Node000013"><a xlink:href="class_cpl_1_1_system_1_1_thread.html" target="_top" xlink:title="This abstract class defines the operations that can be performed on a thread.">
<polygon fill="white" stroke="#666666" points="742.38,-285.88 640.12,-285.88 640.12,-266.62 742.38,-266.62 742.38,-285.88"/>
<text text-anchor="middle" x="691.25" y="-272.38" font-family="Helvetica,sans-Serif" font-size="10.00">Cpl::System::Thread</text>
</a>
</g>
</g>
<!-- Node7&#45;&gt;Node13 -->
<g id="edge13_Node000013_Node000007" class="edge">
<title>Node7&#45;&gt;Node13</title>
<g id="a_edge13_Node000013_Node000007"><a xlink:title=" ">
<path fill="none" stroke="#63b8ff" d="M396.61,-343.34C415.92,-329.29 445.51,-310.06 474.5,-300.25 528.94,-281.82 595.08,-276.83 639.66,-275.81"/>
<polygon fill="#63b8ff" stroke="#63b8ff" points="394.64,-340.45 388.72,-349.24 398.82,-346.06 394.64,-340.45"/>
</a>
</g>
</g>
<!-- Node15 -->
<g id="Node000015" class="node">
<title>Node15</title>
<g id="a_Node000015"><a xlink:href="class_cpl_1_1_system_1_1_semaphore.html" target="_top" xlink:title="This semaphore class defines the interface for a Counting Semaphore.">
<polygon fill="white" stroke="#666666" points="752.12,-435.88 630.38,-435.88 630.38,-416.62 752.12,-416.62 752.12,-435.88"/>
<text text-anchor="middle" x="691.25" y="-422.38" font-family="Helvetica,sans-Serif" font-size="10.00">Cpl::System::Semaphore</text>
</a>
</g>
</g>
<!-- Node7&#45;&gt;Node15 -->
<g id="edge16_Node000015_Node000007" class="edge">
<title>Node7&#45;&gt;Node15</title>
<g id="a_edge16_Node000015_Node000007"><a xlink:title=" ">
<path fill="none" stroke="#63b8ff" d="M440.67,-359.31C488.54,-360.97 553.84,-368.19 606,-392.25 615.72,-396.73 614.59,-403.16 624,-408.25 629.77,-411.37 636.11,-413.98 642.52,-416.15"/>
<polygon fill="#63b8ff" stroke="#63b8ff" points="440.81,-355.81 430.72,-359.05 440.62,-362.81 440.81,-355.81"/>
</a>
</g>
</g>
<!-- Node18 -->
<g id="Node000018" class="node">
<title>Node18</title>
<g id="a_Node000018"><a xlink:href="class_cpl_1_1_itc_1_1_mailbox.html" target="_top" xlink:title="This mailbox class implements an Inter Thread Communications message queue.">
<polygon fill="white" stroke="#666666" points="733,-472.88 649.5,-472.88 649.5,-453.62 733,-453.62 733,-472.88"/>
<text text-anchor="middle" x="691.25" y="-459.38" font-family="Helvetica,sans-Serif" font-size="10.00">Cpl::Itc::Mailbox</text>
</a>
</g>
</g>
<!-- Node7&#45;&gt;Node18 -->
<g id="edge24_Node000018_Node000007" class="edge">
<title>Node7&#45;&gt;Node18</title>
<g id="a_edge24_Node000018_Node000007"><a xlink:title=" ">
<path fill="none" stroke="#9a32cd" stroke-dasharray="5,2" d="M418.98,-373.66C436.27,-378.89 456.3,-384.9 474.5,-390.25 532.83,-407.41 553.29,-397.69 606,-428 615.61,-433.52 614.36,-439.8 624,-445.25 631.68,-449.59 640.45,-452.93 649.05,-455.48"/>
<polygon fill="#9a32cd" stroke="#9a32cd" points="420.09,-370.34 409.5,-370.8 418.06,-377.04 420.09,-370.34"/>
</a>
</g>
<text text-anchor="middle" x="540.25" y="-429" font-family="Helvetica,sans-Serif" font-size="10.00" fill="grey"> m_eventLoop</text>
</g>
<!-- Node8 -->
<g id="Node000008" class="node">
<title>Node8</title>
<g id="a_Node000008"><a xlink:href="class_cpl_1_1_container_1_1_item.html" target="_top" xlink:title="This class is used by the Container classes to implement a various types of singly linked containers.">
<polygon fill="white" stroke="#666666" points="101.88,-369.88 1.88,-369.88 1.88,-350.62 101.88,-350.62 101.88,-369.88"/>
<text text-anchor="middle" x="51.88" y="-356.38" font-family="Helvetica,sans-Serif" font-size="10.00">Cpl::Container::Item</text>
</a>
</g>
</g>
<!-- Node8&#45;&gt;Node7 -->
<g id="edge7_Node000007_Node000008" class="edge">
<title>Node8&#45;&gt;Node7</title>
<g id="a_edge7_Node000007_Node000008"><a xlink:title=" ">
<path fill="none" stroke="#63b8ff" d="M113.59,-360.25C172.76,-360.25 261.87,-360.25 318.7,-360.25"/>
<polygon fill="#63b8ff" stroke="#63b8ff" points="113.69,-356.75 103.69,-360.25 113.69,-363.75 113.69,-356.75"/>
</a>
</g>
</g>
<!-- Node9 -->
<g id="Node000009" class="node">
<title>Node9</title>
<g id="a_Node000009"><a xlink:href="class_cpl_1_1_system_1_1_timer_manager.html" target="_top" xlink:title="This mostly concrete class implements manages a list of Software Timers.">
<polygon fill="white" stroke="#666666" points="758.5,-248.88 624,-248.88 624,-229.62 758.5,-229.62 758.5,-248.88"/>
<text text-anchor="middle" x="691.25" y="-235.38" font-family="Helvetica,sans-Serif" font-size="10.00">Cpl::System::TimerManager</text>
</a>
</g>
</g>
<!-- Node9&#45;&gt;Node4 -->
<g id="edge8_Node000004_Node000009" class="edge">
<title>Node9&#45;&gt;Node4</title>
<g id="a_edge8_Node000004_Node000009"><a xlink:title=" ">
<path fill="none" stroke="#63b8ff" d="M765.67,-251.25C803.93,-257.88 851.41,-266.7 893.5,-276.25 908.89,-279.74 925.76,-284.2 940.11,-288.19"/>
<polygon fill="#63b8ff" stroke="#63b8ff" points="766.56,-247.85 756.11,-249.61 765.38,-254.75 766.56,-247.85"/>
</a>
</g>
</g>
<!-- Node10 -->
<g id="Node000010" class="node">
<title>Node10</title>
<g id="a_Node000010"><a xlink:href="class_cpl_1_1_system_1_1_counter_source__.html" target="_top" xlink:title="This abstract class defines the interface for registering for an Counter object with the Timer Manage...">
<polygon fill="white" stroke="#666666" points="444.88,-248.88 302.88,-248.88 302.88,-229.62 444.88,-229.62 444.88,-248.88"/>
<text text-anchor="middle" x="373.88" y="-235.38" font-family="Helvetica,sans-Serif" font-size="10.00">Cpl::System::CounterSource_</text>
</a>
</g>
</g>
<!-- Node10&#45;&gt;Node9 -->
<g id="edge9_Node000009_Node000010" class="edge">
<title>Node10&#45;&gt;Node9</title>
<g id="a_edge9_Node000009_Node000010"><a xlink:title=" ">
<path fill="none" stroke="#63b8ff" d="M456.77,-239.25C508.66,-239.25 574.92,-239.25 623.59,-239.25"/>
<polygon fill="#63b8ff" stroke="#63b8ff" points="456.77,-235.75 446.77,-239.25 456.77,-242.75 456.77,-235.75"/>
</a>
</g>
</g>
<!-- Node11 -->
<g id="Node000011" class="node">
<title>Node11</title>
<g id="a_Node000011"><a xlink:href="class_cpl_1_1_container_1_1_d_list.html" target="_top" xlink:title=" ">
<polygon fill="white" stroke="#666666" points="456.5,-211.5 291.25,-211.5 291.25,-181 456.5,-181 456.5,-211.5"/>
<text text-anchor="start" x="299.25" y="-198" font-family="Helvetica,sans-Serif" font-size="10.00">Cpl::Container::DList</text>
<text text-anchor="middle" x="373.88" y="-186.75" font-family="Helvetica,sans-Serif" font-size="10.00">&lt; Cpl::System::CounterCallback_ &gt;</text>
</a>
</g>
</g>
<!-- Node11&#45;&gt;Node9 -->
<g id="edge10_Node000009_Node000011" class="edge">
<title>Node11&#45;&gt;Node9</title>
<g id="a_edge10_Node000009_Node000011"><a xlink:title=" ">
<path fill="none" stroke="#9a32cd" stroke-dasharray="5,2" d="M468.34,-196.08C510.83,-197.74 561.45,-202.18 606,-212.75 614.43,-214.75 615.82,-217.38 624,-220.25 633.03,-223.42 642.89,-226.46 652.18,-229.15"/>
<polygon fill="#9a32cd" stroke="#9a32cd" points="468.5,-192.58 458.38,-195.74 468.26,-199.58 468.5,-192.58"/>
</a>
</g>
<text text-anchor="middle" x="540.25" y="-225.25" font-family="Helvetica,sans-Serif" font-size="10.00" fill="grey"> m_counters</text>
<text text-anchor="middle" x="540.25" y="-214" font-family="Helvetica,sans-Serif" font-size="10.00" fill="grey">m_pendingAttach</text>
</g>
<!-- Node12 -->
<g id="Node000012" class="node">
<title>Node12</title>
<g id="a_Node000012"><a xlink:href="class_cpl_1_1_container_1_1_d_list.html" target="_top" xlink:title="This template class implements a Doubly linked list which maintains the ordering imposed on it by the...">
<polygon fill="white" stroke="#666666" points="103.75,-188.5 0,-188.5 0,-158 103.75,-158 103.75,-188.5"/>
<text text-anchor="start" x="8" y="-175" font-family="Helvetica,sans-Serif" font-size="10.00">Cpl::Container::DList</text>
<text text-anchor="middle" x="51.88" y="-163.75" font-family="Helvetica,sans-Serif" font-size="10.00">&lt; ITEM &gt;</text>
</a>
</g>
</g>
<!-- Node12&#45;&gt;Node11 -->
<g id="edge11_Node000011_Node000012" class="edge">
<title>Node12&#45;&gt;Node11</title>
<g id="a_edge11_Node000011_Node000012"><a xlink:title=" ">
<path fill="none" stroke="orange" stroke-dasharray="5,2" d="M115.25,-177.73C165.35,-181.33 236.12,-186.42 290.81,-190.35"/>
<polygon fill="orange" stroke="orange" points="115.67,-174.25 105.44,-177.03 115.17,-181.24 115.67,-174.25"/>
</a>
</g>
<text text-anchor="middle" x="197.5" y="-190" font-family="Helvetica,sans-Serif" font-size="10.00" fill="grey"> &lt; Cpl::System::CounterCallback_ &gt;</text>
</g>
<!-- Node17 -->
<g id="Node000017" class="node">
<title>Node17</title>
<g id="a_Node000017"><a xlink:href="class_cpl_1_1_container_1_1_d_list.html" target="_top" xlink:title=" ">
<polygon fill="white" stroke="#666666" points="606,-168.5 474.5,-168.5 474.5,-138 606,-138 606,-168.5"/>
<text text-anchor="start" x="482.5" y="-155" font-family="Helvetica,sans-Serif" font-size="10.00">Cpl::Container::DList</text>
<text text-anchor="middle" x="540.25" y="-143.75" font-family="Helvetica,sans-Serif" font-size="10.00">&lt; Cpl::Dm::SubscriberApi &gt;</text>
</a>
</g>
</g>
<!-- Node12&#45;&gt;Node17 -->
<g id="edge19_Node000017_Node000012" class="edge">
<title>Node12&#45;&gt;Node17</title>
<g id="a_edge19_Node000017_Node000012"><a xlink:title=" ">
<path fill="none" stroke="orange" stroke-dasharray="5,2" d="M115.15,-162.68C117.37,-162.43 119.58,-162.2 121.75,-162 245.93,-150.61 391.71,-150.58 474.01,-151.78"/>
<polygon fill="orange" stroke="orange" points="114.91,-159.18 105.43,-163.9 115.79,-166.12 114.91,-159.18"/>
</a>
</g>
<text text-anchor="middle" x="197.5" y="-163" font-family="Helvetica,sans-Serif" font-size="10.00" fill="grey"> &lt; Cpl::Dm::SubscriberApi &gt;</text>
</g>
<!-- Node13&#45;&gt;Node4 -->
<g id="edge12_Node000004_Node000013" class="edge">
<title>Node13&#45;&gt;Node4</title>
<g id="a_edge12_Node000004_Node000013"><a xlink:title=" ">
<path fill="none" stroke="#9a32cd" stroke-dasharray="5,2" d="M754.15,-279.37C793.98,-281.57 846.84,-284.87 893.5,-289 900.85,-289.65 908.57,-290.42 916.2,-291.23"/>
<polygon fill="#9a32cd" stroke="#9a32cd" points="754.44,-275.88 744.27,-278.83 754.06,-282.87 754.44,-275.88"/>
</a>
</g>
<text text-anchor="middle" x="835" y="-290" font-family="Helvetica,sans-Serif" font-size="10.00" fill="grey"> m_myThreadPtr</text>
</g>
<!-- Node14 -->
<g id="Node000014" class="node">
<title>Node14</title>
<g id="a_Node000014"><a xlink:href="class_cpl_1_1_system_1_1_shared_event_handler_api.html" target="_top" xlink:title="This abstract class defines the interface for a Shared Event Handler.">
<polygon fill="white" stroke="#666666" points="755.12,-211.5 627.38,-211.5 627.38,-181 755.12,-181 755.12,-211.5"/>
<text text-anchor="start" x="635.38" y="-198" font-family="Helvetica,sans-Serif" font-size="10.00">Cpl::System::SharedEvent</text>
<text text-anchor="middle" x="691.25" y="-186.75" font-family="Helvetica,sans-Serif" font-size="10.00">HandlerApi</text>
</a>
</g>
</g>
<!-- Node14&#45;&gt;Node4 -->
<g id="edge14_Node000004_Node000014" class="edge">
<title>Node14&#45;&gt;Node4</title>
<g id="a_edge14_Node000004_Node000014"><a xlink:title=" ">
<path fill="none" stroke="#9a32cd" stroke-dasharray="5,2" d="M766.77,-200.01C806.67,-204.81 855.31,-215.3 893.5,-238 904.14,-244.32 902.12,-251.18 911.5,-259.25 924.9,-270.77 942.07,-281.13 955.14,-288.27"/>
<polygon fill="#9a32cd" stroke="#9a32cd" points="767.32,-196.55 757,-198.94 766.56,-203.51 767.32,-196.55"/>
</a>
</g>
<text text-anchor="middle" x="835" y="-239" font-family="Helvetica,sans-Serif" font-size="10.00" fill="grey"> m_eventHandler</text>
</g>
<!-- Node15&#45;&gt;Node4 -->
<g id="edge15_Node000004_Node000015" class="edge">
<title>Node15&#45;&gt;Node4</title>
<g id="a_edge15_Node000004_Node000015"><a xlink:title=" ">
<path fill="none" stroke="#9a32cd" stroke-dasharray="5,2" d="M763.91,-419.29C803.99,-413.06 853.73,-401.32 893.5,-379.25 926.42,-360.98 955.02,-325.54 967.73,-308.24"/>
<polygon fill="#9a32cd" stroke="#9a32cd" points="763.5,-415.81 754.11,-420.72 764.51,-422.74 763.5,-415.81"/>
</a>
</g>
<text text-anchor="middle" x="835" y="-418" font-family="Helvetica,sans-Serif" font-size="10.00" fill="grey"> m_sema</text>
</g>
<!-- Node16 -->
<g id="Node000016" class="node">
<title>Node16</title>
<g id="a_Node000016"><a xlink:href="class_cpl_1_1_dm_1_1_notification_api__.html" target="_top" xlink:title="This class has PACKAGE Scope, i.e.">
<polygon fill="white" stroke="#666666" points="1037,-249.88 914.5,-249.88 914.5,-230.62 1037,-230.62 1037,-249.88"/>
<text text-anchor="middle" x="975.75" y="-236.38" font-family="Helvetica,sans-Serif" font-size="10.00">Cpl::Dm::NotificationApi_</text>
</a>
</g>
</g>
<!-- Node16&#45;&gt;Node3 -->
<g id="edge17_Node000003_Node000016" class="edge">
<title>Node16&#45;&gt;Node3</title>
<g id="a_edge17_Node000003_Node000016"><a xlink:title=" ">
<path fill="none" stroke="#63b8ff" d="M1048.32,-240.25C1084.76,-240.25 1128.16,-240.25 1160.89,-240.25"/>
<polygon fill="#63b8ff" stroke="#63b8ff" points="1048.76,-236.75 1038.76,-240.25 1048.76,-243.75 1048.76,-236.75"/>
</a>
</g>
</g>
<!-- Node17&#45;&gt;Node3 -->
<g id="edge18_Node000003_Node000017" class="edge">
<title>Node17&#45;&gt;Node3</title>
<g id="a_edge18_Node000003_Node000017"><a xlink:title=" ">
<path fill="none" stroke="#9a32cd" stroke-dasharray="5,2" d="M617.83,-159.68C659.45,-163.24 711.82,-167.83 758.5,-172.25 818.54,-177.93 833.74,-177.85 893.5,-186 988.38,-198.94 1098.4,-218.89 1160.7,-230.65"/>
<polygon fill="#9a32cd" stroke="#9a32cd" points="618.16,-156.19 607.9,-158.83 617.57,-163.17 618.16,-156.19"/>
</a>
</g>
<text text-anchor="middle" x="835" y="-187" font-family="Helvetica,sans-Serif" font-size="10.00" fill="grey"> m_pendingMpNotifications</text>
</g>
<!-- Node18&#45;&gt;Node2 -->
<g id="edge20_Node000002_Node000018" class="edge">
<title>Node18&#45;&gt;Node2</title>
<g id="a_edge20_Node000002_Node000018"><a xlink:title=" ">
<path fill="none" stroke="#63b8ff" d="M744.81,-457.24C785.68,-452.01 843.64,-443.34 893.5,-431.25 1112.35,-378.17 1367.34,-281.6 1447.68,-250.32"/>
<polygon fill="#63b8ff" stroke="#63b8ff" points="744.48,-453.76 734.99,-458.47 745.35,-460.7 744.48,-453.76"/>
</a>
</g>
</g>
<!-- Node19 -->
<g id="Node000019" class="node">
<title>Node19</title>
<g id="a_Node000019"><a xlink:href="class_cpl_1_1_itc_1_1_post_api.html" target="_top" xlink:title="This abstract class represents the interface used to send messages to a mailbox.">
<polygon fill="white" stroke="#666666" points="416.38,-486.88 331.38,-486.88 331.38,-467.62 416.38,-467.62 416.38,-486.88"/>
<text text-anchor="middle" x="373.88" y="-473.38" font-family="Helvetica,sans-Serif" font-size="10.00">Cpl::Itc::PostApi</text>
</a>
</g>
</g>
<!-- Node19&#45;&gt;Node18 -->
<g id="edge21_Node000018_Node000019" class="edge">
<title>Node19&#45;&gt;Node18</title>
<g id="a_edge21_Node000018_Node000019"><a xlink:title=" ">
<path fill="none" stroke="#63b8ff" d="M427.92,-474.9C490.31,-472.13 592.54,-467.59 649.2,-465.07"/>
<polygon fill="#63b8ff" stroke="#63b8ff" points="428.1,-471.38 418.27,-475.32 428.41,-478.38 428.1,-471.38"/>
</a>
</g>
</g>
<!-- Node20 -->
<g id="Node000020" class="node">
<title>Node20</title>
<g id="a_Node000020"><a xlink:href="class_cpl_1_1_container_1_1_s_list.html" target="_top" xlink:title=" ">
<polygon fill="white" stroke="#666666" points="425.75,-449.5 322,-449.5 322,-419 425.75,-419 425.75,-449.5"/>
<text text-anchor="start" x="330" y="-436" font-family="Helvetica,sans-Serif" font-size="10.00">Cpl::Container::SList</text>
<text text-anchor="middle" x="373.88" y="-424.75" font-family="Helvetica,sans-Serif" font-size="10.00">&lt; Message &gt;</text>
</a>
</g>
</g>
<!-- Node20&#45;&gt;Node18 -->
<g id="edge22_Node000018_Node000020" class="edge">
<title>Node20&#45;&gt;Node18</title>
<g id="a_edge22_Node000018_Node000020"><a xlink:title=" ">
<path fill="none" stroke="#63b8ff" d="M437.61,-440.02C500.56,-445.81 595.67,-454.55 649.45,-459.5"/>
<polygon fill="#63b8ff" stroke="#63b8ff" points="438.03,-436.54 427.75,-439.11 437.39,-443.51 438.03,-436.54"/>
</a>
</g>
</g>
<!-- Node21 -->
<g id="Node000021" class="node">
<title>Node21</title>
<g id="a_Node000021"><a xlink:href="class_cpl_1_1_container_1_1_s_list.html" target="_top" xlink:title="This template class implements a singly linked list which maintains the ordering imposed on it by the...">
<polygon fill="white" stroke="#666666" points="103.75,-449.5 0,-449.5 0,-419 103.75,-419 103.75,-449.5"/>
<text text-anchor="start" x="8" y="-436" font-family="Helvetica,sans-Serif" font-size="10.00">Cpl::Container::SList</text>
<text text-anchor="middle" x="51.88" y="-424.75" font-family="Helvetica,sans-Serif" font-size="10.00">&lt; ITEM &gt;</text>
</a>
</g>
</g>
<!-- Node21&#45;&gt;Node20 -->
<g id="edge23_Node000020_Node000021" class="edge">
<title>Node21&#45;&gt;Node20</title>
<g id="a_edge23_Node000020_Node000021"><a xlink:title=" ">
<path fill="none" stroke="orange" stroke-dasharray="5,2" d="M115.19,-434.25C175.43,-434.25 265.59,-434.25 321.73,-434.25"/>
<polygon fill="orange" stroke="orange" points="115.45,-430.75 105.45,-434.25 115.45,-437.75 115.45,-430.75"/>
</a>
</g>
<text text-anchor="middle" x="197.5" y="-436" font-family="Helvetica,sans-Serif" font-size="10.00" fill="grey"> &lt; Message &gt;</text>
</g>
<!-- Node22 -->
<g id="Node000022" class="node">
<title>Node22</title>
<g id="a_Node000022"><a xlink:href="class_cpl_1_1_system_1_1_periodic_scheduler.html" target="_top" xlink:title="This concrete class is a &#39;policy&#39; object that is used to add polled based, cooperative monotonic sche...">
<polygon fill="white" stroke="#666666" points="1549.75,-75.88 1398.75,-75.88 1398.75,-56.62 1549.75,-56.62 1549.75,-75.88"/>
<text text-anchor="middle" x="1474.25" y="-62.38" font-family="Helvetica,sans-Serif" font-size="10.00">Cpl::System::PeriodicScheduler</text>
</a>
</g>
</g>
<!-- Node22&#45;&gt;Node1 -->
<g id="edge25_Node000001_Node000022" class="edge">
<title>Node22&#45;&gt;Node1</title>
<g id="a_edge25_Node000001_Node000022"><a xlink:title=" ">
<path fill="none" stroke="#63b8ff" d="M1514.71,-80.07C1547.66,-91.61 1593.86,-107.8 1623.43,-118.15"/>
<polygon fill="#63b8ff" stroke="#63b8ff" points="1516.11,-76.85 1505.51,-76.85 1513.79,-83.46 1516.11,-76.85"/>
</a>
</g>
</g>
<!-- Node23 -->
<g id="Node000023" class="node">
<title>Node23</title>
<g id="a_Node000023"><a xlink:href="struct_cpl_1_1_system_1_1_periodic_scheduler_1_1_interval___t.html" target="_top" xlink:title="Defines an interval.">
<polygon fill="white" stroke="#666666" points="1287,-30.5 1136,-30.5 1136,0 1287,0 1287,-30.5"/>
<text text-anchor="start" x="1144" y="-17" font-family="Helvetica,sans-Serif" font-size="10.00">Cpl::System::PeriodicScheduler</text>
<text text-anchor="middle" x="1211.5" y="-5.75" font-family="Helvetica,sans-Serif" font-size="10.00">::Interval_T</text>
</a>
</g>
</g>
<!-- Node23&#45;&gt;Node22 -->
<g id="edge26_Node000022_Node000023" class="edge">
<title>Node23&#45;&gt;Node22</title>
<g id="a_edge26_Node000022_Node000023"><a xlink:title=" ">
<path fill="none" stroke="#9a32cd" stroke-dasharray="5,2" d="M1298.58,-17.86C1325.18,-19.94 1354.4,-23.56 1380.75,-29.75 1406.46,-35.8 1434.48,-47.65 1452.86,-56.21"/>
<polygon fill="#9a32cd" stroke="#9a32cd" points="1299.09,-14.38 1288.87,-17.16 1298.59,-21.37 1299.09,-14.38"/>
</a>
</g>
<text text-anchor="middle" x="1342.88" y="-43.25" font-family="Helvetica,sans-Serif" font-size="10.00" fill="grey"> m_intervals</text>
<text text-anchor="middle" x="1342.88" y="-32" font-family="Helvetica,sans-Serif" font-size="10.00" fill="grey">m_reportSlippage</text>
</g>
<!-- Node24 -->
<g id="Node000024" class="node">
<title>Node24</title>
<g id="a_Node000024"><a xlink:href="struct_cpl_1_1_system_1_1_elapsed_time_1_1_precision___t.html" target="_top" xlink:title="Data type for time in seconds with a &#39;fractional&#39; millisecond precision.">
<polygon fill="white" stroke="#666666" points="1040,-81.5 911.5,-81.5 911.5,-51 1040,-51 1040,-81.5"/>
<text text-anchor="start" x="919.5" y="-68" font-family="Helvetica,sans-Serif" font-size="10.00">Cpl::System::ElapsedTime</text>
<text text-anchor="middle" x="975.75" y="-56.75" font-family="Helvetica,sans-Serif" font-size="10.00">::Precision_T</text>
</a>
</g>
</g>
<!-- Node24&#45;&gt;Node1 -->
<g id="edge29_Node000001_Node000024" class="edge">
<title>Node24&#45;&gt;Node1</title>
<g id="a_edge29_Node000001_Node000024"><a xlink:title=" ">
<path fill="none" stroke="#9a32cd" stroke-dasharray="5,2" d="M1042.24,-84.81C1070.8,-92.14 1104.82,-99.84 1136,-104.25 1296.58,-126.94 1487.76,-129.55 1586.28,-129.13"/>
<polygon fill="#9a32cd" stroke="#9a32cd" points="1043.2,-81.44 1032.64,-82.3 1041.43,-88.21 1043.2,-81.44"/>
</a>
</g>
<text text-anchor="middle" x="1342.88" y="-126" font-family="Helvetica,sans-Serif" font-size="10.00" fill="grey"> m_idleFunc</text>
</g>
<!-- Node24&#45;&gt;Node22 -->
<g id="edge28_Node000022_Node000024" class="edge">
<title>Node24&#45;&gt;Node22</title>
<g id="a_edge28_Node000022_Node000024"><a xlink:title=" ">
<path fill="none" stroke="#9a32cd" stroke-dasharray="5,2" d="M1051.77,-66.25C1145.52,-66.25 1305.01,-66.25 1398.59,-66.25"/>
<polygon fill="#9a32cd" stroke="#9a32cd" points="1051.9,-62.75 1041.9,-66.25 1051.9,-69.75 1051.9,-62.75"/>
</a>
</g>
<text text-anchor="middle" x="1211.5" y="-90.5" font-family="Helvetica,sans-Serif" font-size="10.00" fill="grey"> m_beginThreadFunc</text>
<text text-anchor="middle" x="1211.5" y="-79.25" font-family="Helvetica,sans-Serif" font-size="10.00" fill="grey">m_endThreadFunc</text>
<text text-anchor="middle" x="1211.5" y="-68" font-family="Helvetica,sans-Serif" font-size="10.00" fill="grey">m_nowFunc</text>
</g>
<!-- Node24&#45;&gt;Node23 -->
<g id="edge27_Node000023_Node000024" class="edge">
<title>Node24&#45;&gt;Node23</title>
<g id="a_edge27_Node000023_Node000024"><a xlink:title=" ">
<path fill="none" stroke="#9a32cd" stroke-dasharray="5,2" d="M1005.89,-44.21C1020.67,-34.35 1039.41,-23.77 1058,-18.5 1082.71,-11.49 1110.59,-9.33 1135.69,-9.34"/>
<polygon fill="#9a32cd" stroke="#9a32cd" points="1004.25,-41.08 998.03,-49.66 1008.24,-46.83 1004.25,-41.08"/>
</a>
</g>
<text text-anchor="middle" x="1088" y="-43.5" font-family="Helvetica,sans-Serif" font-size="10.00" fill="grey"> callbackFunc</text>
<text text-anchor="middle" x="1088" y="-32.25" font-family="Helvetica,sans-Serif" font-size="10.00" fill="grey">duration</text>
<text text-anchor="middle" x="1088" y="-21" font-family="Helvetica,sans-Serif" font-size="10.00" fill="grey">timeMarker</text>
</g>
</g>
</svg>
