<?xml version="1.0" encoding="UTF-8" standalone="no"?>
<!DOCTYPE svg PUBLIC "-//W3C//DTD SVG 1.1//EN"
 "http://www.w3.org/Graphics/SVG/1.1/DTD/svg11.dtd">
<!-- Generated by graphviz version 9.0.0 (20230911.1827)
 -->
<!-- Title: Eros::TShell::Pwm Pages: 1 -->
<svg width="323pt" height="419pt"
 viewBox="0.00 0.00 323.00 419.00" xmlns="http://www.w3.org/2000/svg" xmlns:xlink="http://www.w3.org/1999/xlink">
<g id="graph0" class="graph" transform="scale(1 1) rotate(0) translate(4 415)">
<title>Eros::TShell::Pwm</title>
<!-- Node1 -->
<g id="Node000001" class="node">
<title>Node1</title>
<g id="a_Node000001"><a xlink:title="This class implements a TShell command to verify the PWM signals on the board.">
<polygon fill="#999999" stroke="#666666" points="251.25,-19.25 156.5,-19.25 156.5,0 251.25,0 251.25,-19.25"/>
<text text-anchor="middle" x="203.88" y="-5.75" font-family="Helvetica,sans-Serif" font-size="10.00">Eros::TShell::Pwm</text>
</a>
</g>
</g>
<!-- Node2 -->
<g id="Node000002" class="node">
<title>Node2</title>
<g id="a_Node000002"><a xlink:href="class_cpl_1_1_t_shell_1_1_cmd_1_1_command.html" target="_top" xlink:title="This partially concrete class implements infrastructure and/or common functionality for a Shell comma...">
<polygon fill="white" stroke="#666666" points="206.88,-97 70.88,-97 70.88,-77.75 206.88,-77.75 206.88,-97"/>
<text text-anchor="middle" x="138.88" y="-83.5" font-family="Helvetica,sans-Serif" font-size="10.00">Cpl::TShell::Cmd::Command</text>
</a>
</g>
</g>
<!-- Node2&#45;&gt;Node1 -->
<g id="edge1_Node000001_Node000002" class="edge">
<title>Node2&#45;&gt;Node1</title>
<g id="a_edge1_Node000001_Node000002"><a xlink:title=" ">
<path fill="none" stroke="#63b8ff" d="M153.98,-68.77C167.19,-53.38 185.82,-31.67 196.17,-19.6"/>
<polygon fill="#63b8ff" stroke="#63b8ff" points="151.43,-66.37 147.57,-76.24 156.74,-70.93 151.43,-66.37"/>
</a>
</g>
</g>
<!-- Node3 -->
<g id="Node000003" class="node">
<title>Node3</title>
<g id="a_Node000003"><a xlink:href="class_cpl_1_1_t_shell_1_1_command.html" target="_top" xlink:title="This class defines the interface for a TShell command.">
<polygon fill="white" stroke="#666666" points="127.5,-169.12 16.25,-169.12 16.25,-149.88 127.5,-149.88 127.5,-169.12"/>
<text text-anchor="middle" x="71.88" y="-155.62" font-family="Helvetica,sans-Serif" font-size="10.00">Cpl::TShell::Command</text>
</a>
</g>
</g>
<!-- Node3&#45;&gt;Node2 -->
<g id="edge2_Node000002_Node000003" class="edge">
<title>Node3&#45;&gt;Node2</title>
<g id="a_edge2_Node000002_Node000003"><a xlink:title=" ">
<path fill="none" stroke="#63b8ff" d="M88.24,-141.37C101.5,-127.49 119.66,-108.48 130.25,-97.41"/>
<polygon fill="#63b8ff" stroke="#63b8ff" points="85.78,-138.88 81.41,-148.52 90.84,-143.71 85.78,-138.88"/>
</a>
</g>
</g>
<!-- Node4 -->
<g id="Node000004" class="node">
<title>Node4</title>
<g id="a_Node000004"><a xlink:href="class_cpl_1_1_container_1_1_map_item.html" target="_top" xlink:title="This abstract class represents a item that can be contained in an Map (aka a sorted list implemented ...">
<polygon fill="white" stroke="#666666" points="129.25,-236.62 10.5,-236.62 10.5,-217.38 129.25,-217.38 129.25,-236.62"/>
<text text-anchor="middle" x="69.88" y="-223.12" font-family="Helvetica,sans-Serif" font-size="10.00">Cpl::Container::MapItem</text>
</a>
</g>
</g>
<!-- Node4&#45;&gt;Node3 -->
<g id="edge3_Node000003_Node000004" class="edge">
<title>Node4&#45;&gt;Node3</title>
<g id="a_edge3_Node000003_Node000004"><a xlink:title=" ">
<path fill="none" stroke="#63b8ff" d="M70.5,-205.59C70.87,-193.5 71.32,-178.79 71.6,-169.53"/>
<polygon fill="#63b8ff" stroke="#63b8ff" points="67.01,-205.28 70.2,-215.38 74,-205.49 67.01,-205.28"/>
</a>
</g>
</g>
<!-- Node5 -->
<g id="Node000005" class="node">
<title>Node5</title>
<g id="a_Node000005"><a xlink:href="class_cpl_1_1_container_1_1_dict_item.html" target="_top" xlink:title="This abstract class represents a item that can be contained in Dictionary.">
<polygon fill="white" stroke="#666666" points="128.5,-298.5 11.25,-298.5 11.25,-279.25 128.5,-279.25 128.5,-298.5"/>
<text text-anchor="middle" x="69.88" y="-285" font-family="Helvetica,sans-Serif" font-size="10.00">Cpl::Container::DictItem</text>
</a>
</g>
</g>
<!-- Node5&#45;&gt;Node4 -->
<g id="edge4_Node000004_Node000005" class="edge">
<title>Node5&#45;&gt;Node4</title>
<g id="a_edge4_Node000004_Node000005"><a xlink:title=" ">
<path fill="none" stroke="#63b8ff" d="M69.88,-267.3C69.88,-256.88 69.88,-244.78 69.88,-236.79"/>
<polygon fill="#63b8ff" stroke="#63b8ff" points="66.38,-267.27 69.88,-277.27 73.38,-267.27 66.38,-267.27"/>
</a>
</g>
</g>
<!-- Node6 -->
<g id="Node000006" class="node">
<title>Node6</title>
<g id="a_Node000006"><a xlink:href="class_cpl_1_1_container_1_1_extended_item.html" target="_top" xlink:title="This class is used by the Container classes to implement a various types of DOUBLY linked containers.">
<polygon fill="white" stroke="#666666" points="139.75,-354.75 0,-354.75 0,-335.5 139.75,-335.5 139.75,-354.75"/>
<text text-anchor="middle" x="69.88" y="-341.25" font-family="Helvetica,sans-Serif" font-size="10.00">Cpl::Container::ExtendedItem</text>
</a>
</g>
</g>
<!-- Node6&#45;&gt;Node5 -->
<g id="edge5_Node000005_Node000006" class="edge">
<title>Node6&#45;&gt;Node5</title>
<g id="a_edge5_Node000005_Node000006"><a xlink:title=" ">
<path fill="none" stroke="#63b8ff" d="M69.88,-323.94C69.88,-315.23 69.88,-305.49 69.88,-298.67"/>
<polygon fill="#63b8ff" stroke="#63b8ff" points="66.38,-323.65 69.88,-333.65 73.38,-323.65 66.38,-323.65"/>
</a>
</g>
</g>
<!-- Node7 -->
<g id="Node000007" class="node">
<title>Node7</title>
<g id="a_Node000007"><a xlink:href="class_cpl_1_1_container_1_1_item.html" target="_top" xlink:title="This class is used by the Container classes to implement a various types of singly linked containers.">
<polygon fill="white" stroke="#666666" points="119.88,-411 19.88,-411 19.88,-391.75 119.88,-391.75 119.88,-411"/>
<text text-anchor="middle" x="69.88" y="-397.5" font-family="Helvetica,sans-Serif" font-size="10.00">Cpl::Container::Item</text>
</a>
</g>
</g>
<!-- Node7&#45;&gt;Node6 -->
<g id="edge6_Node000006_Node000007" class="edge">
<title>Node7&#45;&gt;Node6</title>
<g id="a_edge6_Node000006_Node000007"><a xlink:title=" ">
<path fill="none" stroke="#63b8ff" d="M69.88,-380.19C69.88,-371.48 69.88,-361.74 69.88,-354.92"/>
<polygon fill="#63b8ff" stroke="#63b8ff" points="66.38,-379.9 69.88,-389.9 73.38,-379.9 66.38,-379.9"/>
</a>
</g>
</g>
<!-- Node8 -->
<g id="Node000008" class="node">
<title>Node8</title>
<g id="a_Node000008"><a xlink:href="class_cpl_1_1_container_1_1_key_literal_string.html" target="_top" xlink:title="This class provides a &#39;Key&#39; wrapper for a C string literal.">
<polygon fill="white" stroke="#666666" points="269.88,-174.75 145.88,-174.75 145.88,-144.25 269.88,-144.25 269.88,-174.75"/>
<text text-anchor="start" x="153.88" y="-161.25" font-family="Helvetica,sans-Serif" font-size="10.00">Cpl::Container::KeyLiteral</text>
<text text-anchor="middle" x="207.88" y="-150" font-family="Helvetica,sans-Serif" font-size="10.00">String</text>
</a>
</g>
</g>
<!-- Node8&#45;&gt;Node2 -->
<g id="edge7_Node000002_Node000008" class="edge">
<title>Node8&#45;&gt;Node2</title>
<g id="a_edge7_Node000002_Node000008"><a xlink:title=" ">
<path fill="none" stroke="#9a32cd" stroke-dasharray="5,2" d="M185.53,-135.79C172.56,-122.61 156.96,-106.76 147.49,-97.13"/>
<polygon fill="#9a32cd" stroke="#9a32cd" points="183.01,-138.22 192.52,-142.89 188,-133.31 183.01,-138.22"/>
</a>
</g>
<text text-anchor="middle" x="201.38" y="-116.75" font-family="Helvetica,sans-Serif" font-size="10.00" fill="grey"> m_mapKey</text>
</g>
<!-- Node9 -->
<g id="Node000009" class="node">
<title>Node9</title>
<g id="a_Node000009"><a xlink:href="class_cpl_1_1_container_1_1_key_string_buffer.html" target="_top" xlink:title="This class provides a &#39;Key&#39; wrapper for a array of Character of length N, i.e.">
<polygon fill="white" stroke="#666666" points="270.12,-242.25 147.62,-242.25 147.62,-211.75 270.12,-211.75 270.12,-242.25"/>
<text text-anchor="start" x="155.62" y="-228.75" font-family="Helvetica,sans-Serif" font-size="10.00">Cpl::Container::KeyString</text>
<text text-anchor="middle" x="208.88" y="-217.5" font-family="Helvetica,sans-Serif" font-size="10.00">Buffer</text>
</a>
</g>
</g>
<!-- Node9&#45;&gt;Node8 -->
<g id="edge8_Node000008_Node000009" class="edge">
<title>Node9&#45;&gt;Node8</title>
<g id="a_edge8_Node000008_Node000009"><a xlink:title=" ">
<path fill="none" stroke="#63b8ff" d="M208.48,-200.09C208.35,-191.55 208.21,-182.37 208.1,-175"/>
<polygon fill="#63b8ff" stroke="#63b8ff" points="204.98,-200 208.63,-209.95 211.98,-199.9 204.98,-200"/>
</a>
</g>
</g>
<!-- Node10 -->
<g id="Node000010" class="node">
<title>Node10</title>
<g id="a_Node000010"><a xlink:href="class_cpl_1_1_container_1_1_key.html" target="_top" xlink:title="This abstract class defines the interface that a contained object must support if it has comparable k...">
<polygon fill="white" stroke="#666666" points="257.38,-298.5 160.38,-298.5 160.38,-279.25 257.38,-279.25 257.38,-298.5"/>
<text text-anchor="middle" x="208.88" y="-285" font-family="Helvetica,sans-Serif" font-size="10.00">Cpl::Container::Key</text>
</a>
</g>
</g>
<!-- Node10&#45;&gt;Node9 -->
<g id="edge9_Node000009_Node000010" class="edge">
<title>Node10&#45;&gt;Node9</title>
<g id="a_edge9_Node000009_Node000010"><a xlink:title=" ">
<path fill="none" stroke="#63b8ff" d="M208.88,-267.44C208.88,-259.18 208.88,-249.84 208.88,-242.32"/>
<polygon fill="#63b8ff" stroke="#63b8ff" points="205.38,-267.27 208.88,-277.27 212.38,-267.27 205.38,-267.27"/>
</a>
</g>
</g>
<!-- Node11 -->
<g id="Node000011" class="node">
<title>Node11</title>
<g id="a_Node000011"><a xlink:href="class_driver_1_1_d_i_o_1_1_pwm.html" target="_top" xlink:title="This class defines a generic interface for controlling a simple PWM output signal.">
<polygon fill="white" stroke="#666666" points="315,-97 224.75,-97 224.75,-77.75 315,-77.75 315,-97"/>
<text text-anchor="middle" x="269.88" y="-83.5" font-family="Helvetica,sans-Serif" font-size="10.00">Driver::DIO::Pwm</text>
</a>
</g>
</g>
<!-- Node11&#45;&gt;Node1 -->
<g id="edge10_Node000001_Node000011" class="edge">
<title>Node11&#45;&gt;Node1</title>
<g id="a_edge10_Node000001_Node000011"><a xlink:title=" ">
<path fill="none" stroke="#9a32cd" stroke-dasharray="5,2" d="M254.53,-68.77C241.13,-53.38 222.21,-31.67 211.7,-19.6"/>
<polygon fill="#9a32cd" stroke="#9a32cd" points="251.84,-71.01 261.05,-76.25 257.12,-66.41 251.84,-71.01"/>
</a>
</g>
<text text-anchor="middle" x="278.88" y="-50.25" font-family="Helvetica,sans-Serif" font-size="10.00" fill="grey"> m_fanDriver</text>
<text text-anchor="middle" x="278.88" y="-39" font-family="Helvetica,sans-Serif" font-size="10.00" fill="grey">m_heaterDriver</text>
</g>
</g>
</svg>
