<?xml version="1.0" encoding="UTF-8" standalone="no"?>
<!DOCTYPE svg PUBLIC "-//W3C//DTD SVG 1.1//EN"
 "http://www.w3.org/Graphics/SVG/1.1/DTD/svg11.dtd">
<!-- Generated by graphviz version 9.0.0 (20230911.1827)
 -->
<!-- Title: Driver::Crypto::TShell::Random Pages: 1 -->
<svg width="278pt" height="409pt"
 viewBox="0.00 0.00 278.12 408.75" xmlns="http://www.w3.org/2000/svg" xmlns:xlink="http://www.w3.org/1999/xlink">
<g id="graph0" class="graph" transform="scale(1 1) rotate(0) translate(4 404.75)">
<title>Driver::Crypto::TShell::Random</title>
<!-- Node1 -->
<g id="Node000001" class="node">
<title>Node1</title>
<g id="a_Node000001"><a xlink:title="This class implements a Shell command.">
<polygon fill="#999999" stroke="#666666" points="191.88,-30.5 85.88,-30.5 85.88,0 191.88,0 191.88,-30.5"/>
<text text-anchor="start" x="93.88" y="-17" font-family="Helvetica,sans-Serif" font-size="10.00">Driver::Crypto::TShell</text>
<text text-anchor="middle" x="138.88" y="-5.75" font-family="Helvetica,sans-Serif" font-size="10.00">::Random</text>
</a>
</g>
</g>
<!-- Node2 -->
<g id="Node000002" class="node">
<title>Node2</title>
<g id="a_Node000002"><a xlink:href="class_cpl_1_1_t_shell_1_1_cmd_1_1_command.html" target="_top" xlink:title="This partially concrete class implements infrastructure and/or common functionality for a Shell comma...">
<polygon fill="white" stroke="#666666" points="206.88,-86.75 70.88,-86.75 70.88,-67.5 206.88,-67.5 206.88,-86.75"/>
<text text-anchor="middle" x="138.88" y="-73.25" font-family="Helvetica,sans-Serif" font-size="10.00">Cpl::TShell::Cmd::Command</text>
</a>
</g>
</g>
<!-- Node2&#45;&gt;Node1 -->
<g id="edge1_Node000001_Node000002" class="edge">
<title>Node2&#45;&gt;Node1</title>
<g id="a_edge1_Node000001_Node000002"><a xlink:title=" ">
<path fill="none" stroke="#63b8ff" d="M138.88,-55.69C138.88,-47.43 138.88,-38.09 138.88,-30.57"/>
<polygon fill="#63b8ff" stroke="#63b8ff" points="135.38,-55.52 138.88,-65.52 142.38,-55.52 135.38,-55.52"/>
</a>
</g>
</g>
<!-- Node3 -->
<g id="Node000003" class="node">
<title>Node3</title>
<g id="a_Node000003"><a xlink:href="class_cpl_1_1_t_shell_1_1_command.html" target="_top" xlink:title="This class defines the interface for a TShell command.">
<polygon fill="white" stroke="#666666" points="127.5,-158.88 16.25,-158.88 16.25,-139.62 127.5,-139.62 127.5,-158.88"/>
<text text-anchor="middle" x="71.88" y="-145.38" font-family="Helvetica,sans-Serif" font-size="10.00">Cpl::TShell::Command</text>
</a>
</g>
</g>
<!-- Node3&#45;&gt;Node2 -->
<g id="edge2_Node000002_Node000003" class="edge">
<title>Node3&#45;&gt;Node2</title>
<g id="a_edge2_Node000002_Node000003"><a xlink:title=" ">
<path fill="none" stroke="#63b8ff" d="M88.24,-131.12C101.5,-117.24 119.66,-98.23 130.25,-87.16"/>
<polygon fill="#63b8ff" stroke="#63b8ff" points="85.78,-128.63 81.41,-138.27 90.84,-133.46 85.78,-128.63"/>
</a>
</g>
</g>
<!-- Node4 -->
<g id="Node000004" class="node">
<title>Node4</title>
<g id="a_Node000004"><a xlink:href="class_cpl_1_1_container_1_1_map_item.html" target="_top" xlink:title="This abstract class represents a item that can be contained in an Map (aka a sorted list implemented ...">
<polygon fill="white" stroke="#666666" points="129.25,-226.38 10.5,-226.38 10.5,-207.12 129.25,-207.12 129.25,-226.38"/>
<text text-anchor="middle" x="69.88" y="-212.88" font-family="Helvetica,sans-Serif" font-size="10.00">Cpl::Container::MapItem</text>
</a>
</g>
</g>
<!-- Node4&#45;&gt;Node3 -->
<g id="edge3_Node000003_Node000004" class="edge">
<title>Node4&#45;&gt;Node3</title>
<g id="a_edge3_Node000003_Node000004"><a xlink:title=" ">
<path fill="none" stroke="#63b8ff" d="M70.5,-195.34C70.87,-183.25 71.32,-168.54 71.6,-159.28"/>
<polygon fill="#63b8ff" stroke="#63b8ff" points="67.01,-195.03 70.2,-205.13 74,-195.24 67.01,-195.03"/>
</a>
</g>
</g>
<!-- Node5 -->
<g id="Node000005" class="node">
<title>Node5</title>
<g id="a_Node000005"><a xlink:href="class_cpl_1_1_container_1_1_dict_item.html" target="_top" xlink:title="This abstract class represents a item that can be contained in Dictionary.">
<polygon fill="white" stroke="#666666" points="128.5,-288.25 11.25,-288.25 11.25,-269 128.5,-269 128.5,-288.25"/>
<text text-anchor="middle" x="69.88" y="-274.75" font-family="Helvetica,sans-Serif" font-size="10.00">Cpl::Container::DictItem</text>
</a>
</g>
</g>
<!-- Node5&#45;&gt;Node4 -->
<g id="edge4_Node000004_Node000005" class="edge">
<title>Node5&#45;&gt;Node4</title>
<g id="a_edge4_Node000004_Node000005"><a xlink:title=" ">
<path fill="none" stroke="#63b8ff" d="M69.88,-257.05C69.88,-246.63 69.88,-234.53 69.88,-226.54"/>
<polygon fill="#63b8ff" stroke="#63b8ff" points="66.38,-257.02 69.88,-267.02 73.38,-257.02 66.38,-257.02"/>
</a>
</g>
</g>
<!-- Node6 -->
<g id="Node000006" class="node">
<title>Node6</title>
<g id="a_Node000006"><a xlink:href="class_cpl_1_1_container_1_1_extended_item.html" target="_top" xlink:title="This class is used by the Container classes to implement a various types of DOUBLY linked containers.">
<polygon fill="white" stroke="#666666" points="139.75,-344.5 0,-344.5 0,-325.25 139.75,-325.25 139.75,-344.5"/>
<text text-anchor="middle" x="69.88" y="-331" font-family="Helvetica,sans-Serif" font-size="10.00">Cpl::Container::ExtendedItem</text>
</a>
</g>
</g>
<!-- Node6&#45;&gt;Node5 -->
<g id="edge5_Node000005_Node000006" class="edge">
<title>Node6&#45;&gt;Node5</title>
<g id="a_edge5_Node000005_Node000006"><a xlink:title=" ">
<path fill="none" stroke="#63b8ff" d="M69.88,-313.69C69.88,-304.98 69.88,-295.24 69.88,-288.42"/>
<polygon fill="#63b8ff" stroke="#63b8ff" points="66.38,-313.4 69.88,-323.4 73.38,-313.4 66.38,-313.4"/>
</a>
</g>
</g>
<!-- Node7 -->
<g id="Node000007" class="node">
<title>Node7</title>
<g id="a_Node000007"><a xlink:href="class_cpl_1_1_container_1_1_item.html" target="_top" xlink:title="This class is used by the Container classes to implement a various types of singly linked containers.">
<polygon fill="white" stroke="#666666" points="119.88,-400.75 19.88,-400.75 19.88,-381.5 119.88,-381.5 119.88,-400.75"/>
<text text-anchor="middle" x="69.88" y="-387.25" font-family="Helvetica,sans-Serif" font-size="10.00">Cpl::Container::Item</text>
</a>
</g>
</g>
<!-- Node7&#45;&gt;Node6 -->
<g id="edge6_Node000006_Node000007" class="edge">
<title>Node7&#45;&gt;Node6</title>
<g id="a_edge6_Node000006_Node000007"><a xlink:title=" ">
<path fill="none" stroke="#63b8ff" d="M69.88,-369.94C69.88,-361.23 69.88,-351.49 69.88,-344.67"/>
<polygon fill="#63b8ff" stroke="#63b8ff" points="66.38,-369.65 69.88,-379.65 73.38,-369.65 66.38,-369.65"/>
</a>
</g>
</g>
<!-- Node8 -->
<g id="Node000008" class="node">
<title>Node8</title>
<g id="a_Node000008"><a xlink:href="class_cpl_1_1_container_1_1_key_literal_string.html" target="_top" xlink:title="This class provides a &#39;Key&#39; wrapper for a C string literal.">
<polygon fill="white" stroke="#666666" points="269.88,-164.5 145.88,-164.5 145.88,-134 269.88,-134 269.88,-164.5"/>
<text text-anchor="start" x="153.88" y="-151" font-family="Helvetica,sans-Serif" font-size="10.00">Cpl::Container::KeyLiteral</text>
<text text-anchor="middle" x="207.88" y="-139.75" font-family="Helvetica,sans-Serif" font-size="10.00">String</text>
</a>
</g>
</g>
<!-- Node8&#45;&gt;Node2 -->
<g id="edge7_Node000002_Node000008" class="edge">
<title>Node8&#45;&gt;Node2</title>
<g id="a_edge7_Node000002_Node000008"><a xlink:title=" ">
<path fill="none" stroke="#9a32cd" stroke-dasharray="5,2" d="M185.53,-125.54C172.56,-112.36 156.96,-96.51 147.49,-86.88"/>
<polygon fill="#9a32cd" stroke="#9a32cd" points="183.01,-127.97 192.52,-132.64 188,-123.06 183.01,-127.97"/>
</a>
</g>
<text text-anchor="middle" x="201.38" y="-106.5" font-family="Helvetica,sans-Serif" font-size="10.00" fill="grey"> m_mapKey</text>
</g>
<!-- Node9 -->
<g id="Node000009" class="node">
<title>Node9</title>
<g id="a_Node000009"><a xlink:href="class_cpl_1_1_container_1_1_key_string_buffer.html" target="_top" xlink:title="This class provides a &#39;Key&#39; wrapper for a array of Character of length N, i.e.">
<polygon fill="white" stroke="#666666" points="270.12,-232 147.62,-232 147.62,-201.5 270.12,-201.5 270.12,-232"/>
<text text-anchor="start" x="155.62" y="-218.5" font-family="Helvetica,sans-Serif" font-size="10.00">Cpl::Container::KeyString</text>
<text text-anchor="middle" x="208.88" y="-207.25" font-family="Helvetica,sans-Serif" font-size="10.00">Buffer</text>
</a>
</g>
</g>
<!-- Node9&#45;&gt;Node8 -->
<g id="edge8_Node000008_Node000009" class="edge">
<title>Node9&#45;&gt;Node8</title>
<g id="a_edge8_Node000008_Node000009"><a xlink:title=" ">
<path fill="none" stroke="#63b8ff" d="M208.48,-189.84C208.35,-181.3 208.21,-172.12 208.1,-164.75"/>
<polygon fill="#63b8ff" stroke="#63b8ff" points="204.98,-189.75 208.63,-199.7 211.98,-189.65 204.98,-189.75"/>
</a>
</g>
</g>
<!-- Node10 -->
<g id="Node000010" class="node">
<title>Node10</title>
<g id="a_Node000010"><a xlink:href="class_cpl_1_1_container_1_1_key.html" target="_top" xlink:title="This abstract class defines the interface that a contained object must support if it has comparable k...">
<polygon fill="white" stroke="#666666" points="257.38,-288.25 160.38,-288.25 160.38,-269 257.38,-269 257.38,-288.25"/>
<text text-anchor="middle" x="208.88" y="-274.75" font-family="Helvetica,sans-Serif" font-size="10.00">Cpl::Container::Key</text>
</a>
</g>
</g>
<!-- Node10&#45;&gt;Node9 -->
<g id="edge9_Node000009_Node000010" class="edge">
<title>Node10&#45;&gt;Node9</title>
<g id="a_edge9_Node000009_Node000010"><a xlink:title=" ">
<path fill="none" stroke="#63b8ff" d="M208.88,-257.19C208.88,-248.93 208.88,-239.59 208.88,-232.07"/>
<polygon fill="#63b8ff" stroke="#63b8ff" points="205.38,-257.02 208.88,-267.02 212.38,-257.02 205.38,-257.02"/>
</a>
</g>
</g>
</g>
</svg>
