<?xml version="1.0" encoding="UTF-8" standalone="no"?>
<!DOCTYPE svg PUBLIC "-//W3C//DTD SVG 1.1//EN"
 "http://www.w3.org/Graphics/SVG/1.1/DTD/svg11.dtd">
<!-- Generated by graphviz version 9.0.0 (20230911.1827)
 -->
<!-- Title: Cpl::Io::Socket::Listener::Client Pages: 1 -->
<svg width="242pt" height="105pt"
 viewBox="0.00 0.00 241.88 105.00" xmlns="http://www.w3.org/2000/svg" xmlns:xlink="http://www.w3.org/1999/xlink">
<g id="graph0" class="graph" transform="scale(1 1) rotate(0) translate(4 101)">
<title>Cpl::Io::Socket::Listener::Client</title>
<!-- Node1 -->
<g id="Node000001" class="node">
<title>Node1</title>
<g id="a_Node000001"><a xlink:title="This class defines the callback mechanism used for accepting incoming socket connections.">
<polygon fill="#999999" stroke="#666666" points="181,-97 63,-97 63,-66.5 181,-66.5 181,-97"/>
<text text-anchor="start" x="71" y="-83.5" font-family="Helvetica,sans-Serif" font-size="10.00">Cpl::Io::Socket::Listener</text>
<text text-anchor="middle" x="122" y="-72.25" font-family="Helvetica,sans-Serif" font-size="10.00">::Client</text>
</a>
</g>
</g>
<!-- Node2 -->
<g id="Node000002" class="node">
<title>Node2</title>
<g id="a_Node000002"><a xlink:href="class_cpl_1_1_io_1_1_socket_1_1_listener_client_sync.html" target="_top" xlink:title="This partially concrete class implements the synchronous ITC open call for the OpenApi.">
<polygon fill="white" stroke="#666666" points="118,-30.5 0,-30.5 0,0 118,0 118,-30.5"/>
<text text-anchor="start" x="8" y="-17" font-family="Helvetica,sans-Serif" font-size="10.00">Cpl::Io::Socket::Listener</text>
<text text-anchor="middle" x="59" y="-5.75" font-family="Helvetica,sans-Serif" font-size="10.00">ClientSync</text>
</a>
</g>
</g>
<!-- Node1&#45;&gt;Node2 -->
<g id="edge1_Node000001_Node000002" class="edge">
<title>Node1&#45;&gt;Node2</title>
<g id="a_edge1_Node000001_Node000002"><a xlink:title=" ">
<path fill="none" stroke="#63b8ff" d="M99.69,-57.91C90.89,-48.9 81.04,-38.82 73.24,-30.83"/>
<polygon fill="#63b8ff" stroke="#63b8ff" points="97.16,-60.32 106.65,-65.03 102.16,-55.43 97.16,-60.32"/>
</a>
</g>
</g>
<!-- Node3 -->
<g id="Node000003" class="node">
<title>Node3</title>
<g id="a_Node000003"><a xlink:href="class_cpl_1_1_t_shell_1_1_socket.html" target="_top" xlink:title="This concrete class provides a socket listener/server and &#39;threading wrapper&#39; for running a TShell Co...">
<polygon fill="white" stroke="#666666" points="233.88,-24.88 136.12,-24.88 136.12,-5.63 233.88,-5.63 233.88,-24.88"/>
<text text-anchor="middle" x="185" y="-11.38" font-family="Helvetica,sans-Serif" font-size="10.00">Cpl::TShell::Socket</text>
</a>
</g>
</g>
<!-- Node1&#45;&gt;Node3 -->
<g id="edge2_Node000001_Node000003" class="edge">
<title>Node1&#45;&gt;Node3</title>
<g id="a_edge2_Node000001_Node000003"><a xlink:title=" ">
<path fill="none" stroke="#63b8ff" d="M144.02,-58.21C155.18,-46.78 168.08,-33.57 176.38,-25.07"/>
<polygon fill="#63b8ff" stroke="#63b8ff" points="141.84,-55.43 137.35,-65.03 146.84,-60.32 141.84,-55.43"/>
</a>
</g>
</g>
</g>
</svg>
