<?xml version="1.0" encoding="UTF-8" standalone="no"?>
<!DOCTYPE svg PUBLIC "-//W3C//DTD SVG 1.1//EN"
 "http://www.w3.org/Graphics/SVG/1.1/DTD/svg11.dtd">
<!-- Generated by graphviz version 9.0.0 (20230911.1827)
 -->
<!-- Title: Cpl::Text::Frame::LineDecoder&lt; BUFSIZE &gt; Pages: 1 -->
<svg width="245pt" height="319pt"
 viewBox="0.00 0.00 244.75 318.75" xmlns="http://www.w3.org/2000/svg" xmlns:xlink="http://www.w3.org/1999/xlink">
<g id="graph0" class="graph" transform="scale(1 1) rotate(0) translate(4 314.75)">
<title>Cpl::Text::Frame::LineDecoder&lt; BUFSIZE &gt;</title>
<!-- Node1 -->
<g id="Node000001" class="node">
<title>Node1</title>
<g id="a_Node000001"><a xlink:title="This concrete template class provide a basic implementation of the Frame::Decoder interface that uses...">
<polygon fill="#999999" stroke="#666666" points="171.25,-130.75 26.25,-130.75 26.25,-100.25 171.25,-100.25 171.25,-130.75"/>
<text text-anchor="start" x="34.25" y="-117.25" font-family="Helvetica,sans-Serif" font-size="10.00">Cpl::Text::Frame::LineDecoder</text>
<text text-anchor="middle" x="98.75" y="-106" font-family="Helvetica,sans-Serif" font-size="10.00">&lt; BUFSIZE &gt;</text>
</a>
</g>
</g>
<!-- Node5 -->
<g id="Node000005" class="node">
<title>Node5</title>
<g id="a_Node000005"><a xlink:href="class_cpl_1_1_text_1_1_frame_1_1_line_decoder.html" target="_top" xlink:title=" ">
<polygon fill="white" stroke="#666666" points="197.5,-41.75 0,-41.75 0,0 197.5,0 197.5,-41.75"/>
<text text-anchor="start" x="8" y="-28.25" font-family="Helvetica,sans-Serif" font-size="10.00">Cpl::Text::Frame::LineDecoder</text>
<text text-anchor="start" x="8" y="-17" font-family="Helvetica,sans-Serif" font-size="10.00">&lt; OPTION_CPL_TSHELL_PROCESSOR</text>
<text text-anchor="middle" x="98.75" y="-5.75" font-family="Helvetica,sans-Serif" font-size="10.00">_INPUT_SIZE &gt;</text>
</a>
</g>
</g>
<!-- Node1&#45;&gt;Node5 -->
<g id="edge4_Node000001_Node000005" class="edge">
<title>Node1&#45;&gt;Node5</title>
<g id="a_edge4_Node000001_Node000005"><a xlink:title=" ">
<path fill="none" stroke="orange" stroke-dasharray="5,2" d="M98.75,-88.65C98.75,-73.93 98.75,-55.76 98.75,-42.09"/>
<polygon fill="orange" stroke="orange" points="95.25,-88.51 98.75,-98.51 102.25,-88.51 95.25,-88.51"/>
</a>
</g>
<text text-anchor="start" x="98.75" y="-72.75" font-family="Helvetica,sans-Serif" font-size="10.00" fill="grey"> &lt; OPTION_CPL_TSHELL</text>
<text text-anchor="middle" x="167.75" y="-61.5" font-family="Helvetica,sans-Serif" font-size="10.00" fill="grey">_PROCESSOR_INPUT_SIZE &gt;</text>
</g>
<!-- Node2 -->
<g id="Node000002" class="node">
<title>Node2</title>
<g id="a_Node000002"><a xlink:href="class_cpl_1_1_text_1_1_frame_1_1_stream_decoder.html" target="_top" xlink:title="This partially concrete class defines an interface a Text &quot;Decoder&quot; that has a Cpl::Io::Input stream ...">
<polygon fill="white" stroke="#666666" points="159.62,-198.25 37.87,-198.25 37.87,-167.75 159.62,-167.75 159.62,-198.25"/>
<text text-anchor="start" x="45.88" y="-184.75" font-family="Helvetica,sans-Serif" font-size="10.00">Cpl::Text::Frame::Stream</text>
<text text-anchor="middle" x="98.75" y="-173.5" font-family="Helvetica,sans-Serif" font-size="10.00">Decoder</text>
</a>
</g>
</g>
<!-- Node2&#45;&gt;Node1 -->
<g id="edge1_Node000001_Node000002" class="edge">
<title>Node2&#45;&gt;Node1</title>
<g id="a_edge1_Node000001_Node000002"><a xlink:title=" ">
<path fill="none" stroke="#63b8ff" d="M98.75,-156.09C98.75,-147.55 98.75,-138.37 98.75,-131"/>
<polygon fill="#63b8ff" stroke="#63b8ff" points="95.25,-155.95 98.75,-165.95 102.25,-155.95 95.25,-155.95"/>
</a>
</g>
</g>
<!-- Node3 -->
<g id="Node000003" class="node">
<title>Node3</title>
<g id="a_Node000003"><a xlink:href="class_cpl_1_1_text_1_1_frame_1_1_decoder__.html" target="_top" xlink:title="This private partially concrete class implements the basic/common logic for a frame decoder.">
<polygon fill="white" stroke="#666666" points="164.5,-254.5 33,-254.5 33,-235.25 164.5,-235.25 164.5,-254.5"/>
<text text-anchor="middle" x="98.75" y="-241" font-family="Helvetica,sans-Serif" font-size="10.00">Cpl::Text::Frame::Decoder_</text>
</a>
</g>
</g>
<!-- Node3&#45;&gt;Node2 -->
<g id="edge2_Node000002_Node000003" class="edge">
<title>Node3&#45;&gt;Node2</title>
<g id="a_edge2_Node000002_Node000003"><a xlink:title=" ">
<path fill="none" stroke="#63b8ff" d="M98.75,-223.44C98.75,-215.18 98.75,-205.84 98.75,-198.32"/>
<polygon fill="#63b8ff" stroke="#63b8ff" points="95.25,-223.27 98.75,-233.27 102.25,-223.27 95.25,-223.27"/>
</a>
</g>
</g>
<!-- Node4 -->
<g id="Node000004" class="node">
<title>Node4</title>
<g id="a_Node000004"><a xlink:href="class_cpl_1_1_text_1_1_frame_1_1_decoder.html" target="_top" xlink:title="This class defines an interface for &#39;receiving&#39; (decode) a frame.">
<polygon fill="white" stroke="#666666" points="161.88,-310.75 35.62,-310.75 35.62,-291.5 161.88,-291.5 161.88,-310.75"/>
<text text-anchor="middle" x="98.75" y="-297.25" font-family="Helvetica,sans-Serif" font-size="10.00">Cpl::Text::Frame::Decoder</text>
</a>
</g>
</g>
<!-- Node4&#45;&gt;Node3 -->
<g id="edge3_Node000003_Node000004" class="edge">
<title>Node4&#45;&gt;Node3</title>
<g id="a_edge3_Node000003_Node000004"><a xlink:title=" ">
<path fill="none" stroke="#63b8ff" d="M98.75,-279.94C98.75,-271.23 98.75,-261.49 98.75,-254.67"/>
<polygon fill="#63b8ff" stroke="#63b8ff" points="95.25,-279.65 98.75,-289.65 102.25,-279.65 95.25,-279.65"/>
</a>
</g>
</g>
</g>
</svg>
