<?xml version="1.0" encoding="UTF-8" standalone="no"?>
<!DOCTYPE svg PUBLIC "-//W3C//DTD SVG 1.1//EN"
 "http://www.w3.org/Graphics/SVG/1.1/DTD/svg11.dtd">
<!-- Generated by graphviz version 9.0.0 (20230911.1827)
 -->
<!-- Title: Cpl::Io::File::InputApi Pages: 1 -->
<svg width="325pt" height="304pt"
 viewBox="0.00 0.00 324.50 303.50" xmlns="http://www.w3.org/2000/svg" xmlns:xlink="http://www.w3.org/1999/xlink">
<g id="graph0" class="graph" transform="scale(1 1) rotate(0) translate(4 299.5)">
<title>Cpl::Io::File::InputApi</title>
<!-- Node1 -->
<g id="Node000001" class="node">
<title>Node1</title>
<g id="a_Node000001"><a xlink:title="This abstract class defines the interface for a Random Access Input File.">
<polygon fill="#999999" stroke="#666666" points="200.88,-129.75 97.12,-129.75 97.12,-110.5 200.88,-110.5 200.88,-129.75"/>
<text text-anchor="middle" x="149" y="-116.25" font-family="Helvetica,sans-Serif" font-size="10.00">Cpl::Io::File::InputApi</text>
</a>
</g>
</g>
<!-- Node7 -->
<g id="Node000007" class="node">
<title>Node7</title>
<g id="a_Node000007"><a xlink:href="class_cpl_1_1_io_1_1_file_1_1_input.html" target="_top" xlink:title="This concrete class provides a platform independent &#39;standard&#39; implementation of a Cpl::Io::File::Inp...">
<polygon fill="white" stroke="#666666" points="129.75,-74.5 40.25,-74.5 40.25,-55.25 129.75,-55.25 129.75,-74.5"/>
<text text-anchor="middle" x="85" y="-61" font-family="Helvetica,sans-Serif" font-size="10.00">Cpl::Io::File::Input</text>
</a>
</g>
</g>
<!-- Node1&#45;&gt;Node7 -->
<g id="edge6_Node000001_Node000007" class="edge">
<title>Node1&#45;&gt;Node7</title>
<g id="a_edge6_Node000001_Node000007"><a xlink:title=" ">
<path fill="none" stroke="#63b8ff" d="M129.52,-102.91C118.4,-93.67 104.9,-82.43 95.7,-74.77"/>
<polygon fill="#63b8ff" stroke="#63b8ff" points="127.05,-105.42 136.98,-109.12 131.53,-100.04 127.05,-105.42"/>
</a>
</g>
</g>
<!-- Node8 -->
<g id="Node000008" class="node">
<title>Node8</title>
<g id="a_Node000008"><a xlink:href="class_cpl_1_1_io_1_1_file_1_1_input_output_api.html" target="_top" xlink:title="This abstract class defines the interface for a Random Access Input Output File.">
<polygon fill="white" stroke="#666666" points="280.5,-74.5 147.5,-74.5 147.5,-55.25 280.5,-55.25 280.5,-74.5"/>
<text text-anchor="middle" x="214" y="-61" font-family="Helvetica,sans-Serif" font-size="10.00">Cpl::Io::File::InputOutputApi</text>
</a>
</g>
</g>
<!-- Node1&#45;&gt;Node8 -->
<g id="edge7_Node000001_Node000008" class="edge">
<title>Node1&#45;&gt;Node8</title>
<g id="a_edge7_Node000001_Node000008"><a xlink:title=" ">
<path fill="none" stroke="#63b8ff" d="M168.79,-102.91C180.08,-93.67 193.79,-82.43 203.14,-74.77"/>
<polygon fill="#63b8ff" stroke="#63b8ff" points="166.71,-100.09 161.2,-109.13 171.15,-105.5 166.71,-100.09"/>
</a>
</g>
</g>
<!-- Node2 -->
<g id="Node000002" class="node">
<title>Node2</title>
<g id="a_Node000002"><a xlink:href="class_cpl_1_1_io_1_1_input.html" target="_top" xlink:title="This partially abstract class defines a interface for operating on an input stream (example of a stre...">
<polygon fill="white" stroke="#666666" points="129.62,-185 60.38,-185 60.38,-165.75 129.62,-165.75 129.62,-185"/>
<text text-anchor="middle" x="95" y="-171.5" font-family="Helvetica,sans-Serif" font-size="10.00">Cpl::Io::Input</text>
</a>
</g>
</g>
<!-- Node2&#45;&gt;Node1 -->
<g id="edge1_Node000001_Node000002" class="edge">
<title>Node2&#45;&gt;Node1</title>
<g id="a_edge1_Node000001_Node000002"><a xlink:title=" ">
<path fill="none" stroke="#63b8ff" d="M112.04,-157.57C121.26,-148.48 132.29,-137.6 139.89,-130.11"/>
<polygon fill="#63b8ff" stroke="#63b8ff" points="109.66,-155.01 104.99,-164.52 114.57,-159.99 109.66,-155.01"/>
</a>
</g>
</g>
<!-- Node3 -->
<g id="Node000003" class="node">
<title>Node3</title>
<g id="a_Node000003"><a xlink:href="class_cpl_1_1_io_1_1_close.html" target="_top" xlink:title="This abstract class defines a close operation that is intended to be used Input and Output streams/fi...">
<polygon fill="white" stroke="#666666" points="86.12,-240.25 13.88,-240.25 13.88,-221 86.12,-221 86.12,-240.25"/>
<text text-anchor="middle" x="50" y="-226.75" font-family="Helvetica,sans-Serif" font-size="10.00">Cpl::Io::Close</text>
</a>
</g>
</g>
<!-- Node3&#45;&gt;Node2 -->
<g id="edge2_Node000002_Node000003" class="edge">
<title>Node3&#45;&gt;Node2</title>
<g id="a_edge2_Node000002_Node000003"><a xlink:title=" ">
<path fill="none" stroke="#63b8ff" d="M64.68,-212.26C72.26,-203.28 81.21,-192.7 87.41,-185.36"/>
<polygon fill="#63b8ff" stroke="#63b8ff" points="62.19,-209.78 58.41,-219.68 67.54,-214.3 62.19,-209.78"/>
</a>
</g>
</g>
<!-- Node4 -->
<g id="Node000004" class="node">
<title>Node4</title>
<g id="a_Node000004"><a xlink:href="class_cpl_1_1_container_1_1_item.html" target="_top" xlink:title="This class is used by the Container classes to implement a various types of singly linked containers.">
<polygon fill="white" stroke="#666666" points="100,-295.5 0,-295.5 0,-276.25 100,-276.25 100,-295.5"/>
<text text-anchor="middle" x="50" y="-282" font-family="Helvetica,sans-Serif" font-size="10.00">Cpl::Container::Item</text>
</a>
</g>
</g>
<!-- Node4&#45;&gt;Node3 -->
<g id="edge3_Node000003_Node000004" class="edge">
<title>Node4&#45;&gt;Node3</title>
<g id="a_edge3_Node000003_Node000004"><a xlink:title=" ">
<path fill="none" stroke="#63b8ff" d="M50,-264.63C50,-256.34 50,-247.17 50,-240.61"/>
<polygon fill="#63b8ff" stroke="#63b8ff" points="46.5,-264.57 50,-274.57 53.5,-264.57 46.5,-264.57"/>
</a>
</g>
</g>
<!-- Node5 -->
<g id="Node000005" class="node">
<title>Node5</title>
<g id="a_Node000005"><a xlink:href="class_cpl_1_1_io_1_1_is_eos.html" target="_top" xlink:title="This abstract class defines a isEos() operation that is intended to be used Input and Output streams.">
<polygon fill="white" stroke="#666666" points="176.12,-240.25 103.88,-240.25 103.88,-221 176.12,-221 176.12,-240.25"/>
<text text-anchor="middle" x="140" y="-226.75" font-family="Helvetica,sans-Serif" font-size="10.00">Cpl::Io::IsEos</text>
</a>
</g>
</g>
<!-- Node5&#45;&gt;Node2 -->
<g id="edge4_Node000002_Node000005" class="edge">
<title>Node5&#45;&gt;Node2</title>
<g id="a_edge4_Node000002_Node000005"><a xlink:title=" ">
<path fill="none" stroke="#63b8ff" d="M125.32,-212.26C117.74,-203.28 108.79,-192.7 102.59,-185.36"/>
<polygon fill="#63b8ff" stroke="#63b8ff" points="122.46,-214.3 131.59,-219.68 127.81,-209.78 122.46,-214.3"/>
</a>
</g>
</g>
<!-- Node6 -->
<g id="Node000006" class="node">
<title>Node6</title>
<g id="a_Node000006"><a xlink:href="class_cpl_1_1_io_1_1_file_1_1_object_api.html" target="_top" xlink:title="This abstract class defines the basic additional functionality, beyond that of a stream,...">
<polygon fill="white" stroke="#666666" points="258.25,-185 147.75,-185 147.75,-165.75 258.25,-165.75 258.25,-185"/>
<text text-anchor="middle" x="203" y="-171.5" font-family="Helvetica,sans-Serif" font-size="10.00">Cpl::Io::File::ObjectApi</text>
</a>
</g>
</g>
<!-- Node6&#45;&gt;Node1 -->
<g id="edge5_Node000001_Node000006" class="edge">
<title>Node6&#45;&gt;Node1</title>
<g id="a_edge5_Node000001_Node000006"><a xlink:title=" ">
<path fill="none" stroke="#63b8ff" d="M185.96,-157.57C176.74,-148.48 165.71,-137.6 158.11,-130.11"/>
<polygon fill="#63b8ff" stroke="#63b8ff" points="183.43,-159.99 193.01,-164.52 188.34,-155.01 183.43,-159.99"/>
</a>
</g>
</g>
<!-- Node9 -->
<g id="Node000009" class="node">
<title>Node9</title>
<g id="a_Node000009"><a xlink:href="class_cpl_1_1_io_1_1_file_1_1_input_output.html" target="_top" xlink:title="This concrete class provides a platform independent &#39;standard&#39; implementation of an InputOutputFileAp...">
<polygon fill="white" stroke="#666666" points="213.38,-19.25 94.62,-19.25 94.62,0 213.38,0 213.38,-19.25"/>
<text text-anchor="middle" x="154" y="-5.75" font-family="Helvetica,sans-Serif" font-size="10.00">Cpl::Io::File::InputOutput</text>
</a>
</g>
</g>
<!-- Node8&#45;&gt;Node9 -->
<g id="edge8_Node000008_Node000009" class="edge">
<title>Node8&#45;&gt;Node9</title>
<g id="a_edge8_Node000008_Node000009"><a xlink:title=" ">
<path fill="none" stroke="#63b8ff" d="M195.42,-47.39C185.06,-38.19 172.57,-27.1 164.03,-19.52"/>
<polygon fill="#63b8ff" stroke="#63b8ff" points="192.89,-49.82 202.69,-53.84 197.53,-44.58 192.89,-49.82"/>
</a>
</g>
</g>
<!-- Node10 -->
<g id="Node000010" class="node">
<title>Node10</title>
<g id="a_Node000010"><a xlink:href="class_cpl_1_1_io_1_1_file_1_1_null.html" target="_top" xlink:title="This concrete class implements a NULL InputOutputApi File that all of its input operations return &#39;En...">
<polygon fill="white" stroke="#666666" points="316.5,-19.25 231.5,-19.25 231.5,0 316.5,0 316.5,-19.25"/>
<text text-anchor="middle" x="274" y="-5.75" font-family="Helvetica,sans-Serif" font-size="10.00">Cpl::Io::File::Null</text>
</a>
</g>
</g>
<!-- Node8&#45;&gt;Node10 -->
<g id="edge9_Node000008_Node000010" class="edge">
<title>Node8&#45;&gt;Node10</title>
<g id="a_edge9_Node000008_Node000010"><a xlink:title=" ">
<path fill="none" stroke="#63b8ff" d="M232.58,-47.39C242.94,-38.19 255.43,-27.1 263.97,-19.52"/>
<polygon fill="#63b8ff" stroke="#63b8ff" points="230.47,-44.58 225.31,-53.84 235.11,-49.82 230.47,-44.58"/>
</a>
</g>
</g>
</g>
</svg>
