<?xml version="1.0" encoding="UTF-8" standalone="no"?>
<!DOCTYPE svg PUBLIC "-//W3C//DTD SVG 1.1//EN"
 "http://www.w3.org/Graphics/SVG/1.1/DTD/svg11.dtd">
<!-- Generated by graphviz version 9.0.0 (20230911.1827)
 -->
<!-- Title: Cpl::TShell::Cmd::FreeRTOS::Threads Pages: 1 -->
<svg width="480pt" height="487pt"
 viewBox="0.00 0.00 479.62 486.50" xmlns="http://www.w3.org/2000/svg" xmlns:xlink="http://www.w3.org/1999/xlink">
<g id="graph0" class="graph" transform="scale(1 1) rotate(0) translate(4 482.5)">
<title>Cpl::TShell::Cmd::FreeRTOS::Threads</title>
<!-- Node1 -->
<g id="Node000001" class="node">
<title>Node1</title>
<g id="a_Node000001"><a xlink:title="This class implements a TShell command.">
<polygon fill="#999999" stroke="#666666" points="356,-30.5 217.75,-30.5 217.75,0 356,0 356,-30.5"/>
<text text-anchor="start" x="225.75" y="-17" font-family="Helvetica,sans-Serif" font-size="10.00">Cpl::TShell::Cmd::FreeRTOS</text>
<text text-anchor="middle" x="286.88" y="-5.75" font-family="Helvetica,sans-Serif" font-size="10.00">::Threads</text>
</a>
</g>
</g>
<!-- Node2 -->
<g id="Node000002" class="node">
<title>Node2</title>
<g id="a_Node000002"><a xlink:href="class_cpl_1_1_t_shell_1_1_cmd_1_1_threads.html" target="_top" xlink:title="This class implements a Shell command.">
<polygon fill="white" stroke="#666666" points="350.38,-86.75 223.38,-86.75 223.38,-67.5 350.38,-67.5 350.38,-86.75"/>
<text text-anchor="middle" x="286.88" y="-73.25" font-family="Helvetica,sans-Serif" font-size="10.00">Cpl::TShell::Cmd::Threads</text>
</a>
</g>
</g>
<!-- Node2&#45;&gt;Node1 -->
<g id="edge1_Node000001_Node000002" class="edge">
<title>Node2&#45;&gt;Node1</title>
<g id="a_edge1_Node000001_Node000002"><a xlink:title=" ">
<path fill="none" stroke="#63b8ff" d="M286.88,-55.69C286.88,-47.43 286.88,-38.09 286.88,-30.57"/>
<polygon fill="#63b8ff" stroke="#63b8ff" points="283.38,-55.52 286.88,-65.52 290.38,-55.52 283.38,-55.52"/>
</a>
</g>
</g>
<!-- Node3 -->
<g id="Node000003" class="node">
<title>Node3</title>
<g id="a_Node000003"><a xlink:href="class_cpl_1_1_t_shell_1_1_cmd_1_1_command.html" target="_top" xlink:title="This partially concrete class implements infrastructure and/or common functionality for a Shell comma...">
<polygon fill="white" stroke="#666666" points="217.88,-158.88 81.88,-158.88 81.88,-139.62 217.88,-139.62 217.88,-158.88"/>
<text text-anchor="middle" x="149.88" y="-145.38" font-family="Helvetica,sans-Serif" font-size="10.00">Cpl::TShell::Cmd::Command</text>
</a>
</g>
</g>
<!-- Node3&#45;&gt;Node2 -->
<g id="edge2_Node000002_Node000003" class="edge">
<title>Node3&#45;&gt;Node2</title>
<g id="a_edge2_Node000002_Node000003"><a xlink:title=" ">
<path fill="none" stroke="#63b8ff" d="M177.62,-134.05C205.03,-120.02 246.12,-98.98 269.31,-87.11"/>
<polygon fill="#63b8ff" stroke="#63b8ff" points="176.16,-130.86 168.85,-138.54 179.35,-137.1 176.16,-130.86"/>
</a>
</g>
</g>
<!-- Node4 -->
<g id="Node000004" class="node">
<title>Node4</title>
<g id="a_Node000004"><a xlink:href="class_cpl_1_1_t_shell_1_1_command.html" target="_top" xlink:title="This class defines the interface for a TShell command.">
<polygon fill="white" stroke="#666666" points="127.5,-236.62 16.25,-236.62 16.25,-217.38 127.5,-217.38 127.5,-236.62"/>
<text text-anchor="middle" x="71.88" y="-223.12" font-family="Helvetica,sans-Serif" font-size="10.00">Cpl::TShell::Command</text>
</a>
</g>
</g>
<!-- Node4&#45;&gt;Node3 -->
<g id="edge3_Node000003_Node000004" class="edge">
<title>Node4&#45;&gt;Node3</title>
<g id="a_edge3_Node000003_Node000004"><a xlink:title=" ">
<path fill="none" stroke="#63b8ff" d="M89.12,-209.26C105,-193.83 127.97,-171.52 140.63,-159.23"/>
<polygon fill="#63b8ff" stroke="#63b8ff" points="86.95,-206.48 82.21,-215.96 91.83,-211.5 86.95,-206.48"/>
</a>
</g>
</g>
<!-- Node5 -->
<g id="Node000005" class="node">
<title>Node5</title>
<g id="a_Node000005"><a xlink:href="class_cpl_1_1_container_1_1_map_item.html" target="_top" xlink:title="This abstract class represents a item that can be contained in an Map (aka a sorted list implemented ...">
<polygon fill="white" stroke="#666666" points="129.25,-304.12 10.5,-304.12 10.5,-284.88 129.25,-284.88 129.25,-304.12"/>
<text text-anchor="middle" x="69.88" y="-290.62" font-family="Helvetica,sans-Serif" font-size="10.00">Cpl::Container::MapItem</text>
</a>
</g>
</g>
<!-- Node5&#45;&gt;Node4 -->
<g id="edge4_Node000004_Node000005" class="edge">
<title>Node5&#45;&gt;Node4</title>
<g id="a_edge4_Node000004_Node000005"><a xlink:title=" ">
<path fill="none" stroke="#63b8ff" d="M70.5,-273.09C70.87,-261 71.32,-246.29 71.6,-237.03"/>
<polygon fill="#63b8ff" stroke="#63b8ff" points="67.01,-272.78 70.2,-282.88 74,-272.99 67.01,-272.78"/>
</a>
</g>
</g>
<!-- Node6 -->
<g id="Node000006" class="node">
<title>Node6</title>
<g id="a_Node000006"><a xlink:href="class_cpl_1_1_container_1_1_dict_item.html" target="_top" xlink:title="This abstract class represents a item that can be contained in Dictionary.">
<polygon fill="white" stroke="#666666" points="128.5,-366 11.25,-366 11.25,-346.75 128.5,-346.75 128.5,-366"/>
<text text-anchor="middle" x="69.88" y="-352.5" font-family="Helvetica,sans-Serif" font-size="10.00">Cpl::Container::DictItem</text>
</a>
</g>
</g>
<!-- Node6&#45;&gt;Node5 -->
<g id="edge5_Node000005_Node000006" class="edge">
<title>Node6&#45;&gt;Node5</title>
<g id="a_edge5_Node000005_Node000006"><a xlink:title=" ">
<path fill="none" stroke="#63b8ff" d="M69.88,-334.8C69.88,-324.38 69.88,-312.28 69.88,-304.29"/>
<polygon fill="#63b8ff" stroke="#63b8ff" points="66.38,-334.77 69.88,-344.77 73.38,-334.77 66.38,-334.77"/>
</a>
</g>
</g>
<!-- Node7 -->
<g id="Node000007" class="node">
<title>Node7</title>
<g id="a_Node000007"><a xlink:href="class_cpl_1_1_container_1_1_extended_item.html" target="_top" xlink:title="This class is used by the Container classes to implement a various types of DOUBLY linked containers.">
<polygon fill="white" stroke="#666666" points="139.75,-422.25 0,-422.25 0,-403 139.75,-403 139.75,-422.25"/>
<text text-anchor="middle" x="69.88" y="-408.75" font-family="Helvetica,sans-Serif" font-size="10.00">Cpl::Container::ExtendedItem</text>
</a>
</g>
</g>
<!-- Node7&#45;&gt;Node6 -->
<g id="edge6_Node000006_Node000007" class="edge">
<title>Node7&#45;&gt;Node6</title>
<g id="a_edge6_Node000006_Node000007"><a xlink:title=" ">
<path fill="none" stroke="#63b8ff" d="M69.88,-391.44C69.88,-382.73 69.88,-372.99 69.88,-366.17"/>
<polygon fill="#63b8ff" stroke="#63b8ff" points="66.38,-391.15 69.88,-401.15 73.38,-391.15 66.38,-391.15"/>
</a>
</g>
</g>
<!-- Node8 -->
<g id="Node000008" class="node">
<title>Node8</title>
<g id="a_Node000008"><a xlink:href="class_cpl_1_1_container_1_1_item.html" target="_top" xlink:title="This class is used by the Container classes to implement a various types of singly linked containers.">
<polygon fill="white" stroke="#666666" points="119.88,-478.5 19.88,-478.5 19.88,-459.25 119.88,-459.25 119.88,-478.5"/>
<text text-anchor="middle" x="69.88" y="-465" font-family="Helvetica,sans-Serif" font-size="10.00">Cpl::Container::Item</text>
</a>
</g>
</g>
<!-- Node8&#45;&gt;Node7 -->
<g id="edge7_Node000007_Node000008" class="edge">
<title>Node8&#45;&gt;Node7</title>
<g id="a_edge7_Node000007_Node000008"><a xlink:title=" ">
<path fill="none" stroke="#63b8ff" d="M69.88,-447.69C69.88,-438.98 69.88,-429.24 69.88,-422.42"/>
<polygon fill="#63b8ff" stroke="#63b8ff" points="66.38,-447.4 69.88,-457.4 73.38,-447.4 66.38,-447.4"/>
</a>
</g>
</g>
<!-- Node9 -->
<g id="Node000009" class="node">
<title>Node9</title>
<g id="a_Node000009"><a xlink:href="class_cpl_1_1_container_1_1_key_literal_string.html" target="_top" xlink:title="This class provides a &#39;Key&#39; wrapper for a C string literal.">
<polygon fill="white" stroke="#666666" points="269.88,-242.25 145.88,-242.25 145.88,-211.75 269.88,-211.75 269.88,-242.25"/>
<text text-anchor="start" x="153.88" y="-228.75" font-family="Helvetica,sans-Serif" font-size="10.00">Cpl::Container::KeyLiteral</text>
<text text-anchor="middle" x="207.88" y="-217.5" font-family="Helvetica,sans-Serif" font-size="10.00">String</text>
</a>
</g>
</g>
<!-- Node9&#45;&gt;Node3 -->
<g id="edge8_Node000003_Node000009" class="edge">
<title>Node9&#45;&gt;Node3</title>
<g id="a_edge8_Node000003_Node000009"><a xlink:title=" ">
<path fill="none" stroke="#9a32cd" stroke-dasharray="5,2" d="M189.76,-202.35C178.53,-187.67 164.74,-169.67 156.67,-159.12"/>
<polygon fill="#9a32cd" stroke="#9a32cd" points="186.91,-204.38 195.77,-210.19 192.47,-200.13 186.91,-204.38"/>
</a>
</g>
<text text-anchor="middle" x="208.38" y="-184.25" font-family="Helvetica,sans-Serif" font-size="10.00" fill="grey"> m_mapKey</text>
</g>
<!-- Node10 -->
<g id="Node000010" class="node">
<title>Node10</title>
<g id="a_Node000010"><a xlink:href="class_cpl_1_1_container_1_1_key_string_buffer.html" target="_top" xlink:title="This class provides a &#39;Key&#39; wrapper for a array of Character of length N, i.e.">
<polygon fill="white" stroke="#666666" points="270.12,-309.75 147.62,-309.75 147.62,-279.25 270.12,-279.25 270.12,-309.75"/>
<text text-anchor="start" x="155.62" y="-296.25" font-family="Helvetica,sans-Serif" font-size="10.00">Cpl::Container::KeyString</text>
<text text-anchor="middle" x="208.88" y="-285" font-family="Helvetica,sans-Serif" font-size="10.00">Buffer</text>
</a>
</g>
</g>
<!-- Node10&#45;&gt;Node9 -->
<g id="edge9_Node000009_Node000010" class="edge">
<title>Node10&#45;&gt;Node9</title>
<g id="a_edge9_Node000009_Node000010"><a xlink:title=" ">
<path fill="none" stroke="#63b8ff" d="M208.48,-267.59C208.35,-259.05 208.21,-249.87 208.1,-242.5"/>
<polygon fill="#63b8ff" stroke="#63b8ff" points="204.98,-267.5 208.63,-277.45 211.98,-267.4 204.98,-267.5"/>
</a>
</g>
</g>
<!-- Node11 -->
<g id="Node000011" class="node">
<title>Node11</title>
<g id="a_Node000011"><a xlink:href="class_cpl_1_1_container_1_1_key.html" target="_top" xlink:title="This abstract class defines the interface that a contained object must support if it has comparable k...">
<polygon fill="white" stroke="#666666" points="257.38,-366 160.38,-366 160.38,-346.75 257.38,-346.75 257.38,-366"/>
<text text-anchor="middle" x="208.88" y="-352.5" font-family="Helvetica,sans-Serif" font-size="10.00">Cpl::Container::Key</text>
</a>
</g>
</g>
<!-- Node11&#45;&gt;Node10 -->
<g id="edge10_Node000010_Node000011" class="edge">
<title>Node11&#45;&gt;Node10</title>
<g id="a_edge10_Node000010_Node000011"><a xlink:title=" ">
<path fill="none" stroke="#63b8ff" d="M208.88,-334.94C208.88,-326.68 208.88,-317.34 208.88,-309.82"/>
<polygon fill="#63b8ff" stroke="#63b8ff" points="205.38,-334.77 208.88,-344.77 212.38,-334.77 205.38,-334.77"/>
</a>
</g>
</g>
<!-- Node12 -->
<g id="Node000012" class="node">
<title>Node12</title>
<g id="a_Node000012"><a xlink:href="class_cpl_1_1_system_1_1_thread_1_1_traverser.html" target="_top" xlink:title="This abstract class defines the client interface for walking the list of threads, i....">
<polygon fill="white" stroke="#666666" points="338,-164.5 235.75,-164.5 235.75,-134 338,-134 338,-164.5"/>
<text text-anchor="start" x="243.75" y="-151" font-family="Helvetica,sans-Serif" font-size="10.00">Cpl::System::Thread</text>
<text text-anchor="middle" x="286.88" y="-139.75" font-family="Helvetica,sans-Serif" font-size="10.00">::Traverser</text>
</a>
</g>
</g>
<!-- Node12&#45;&gt;Node2 -->
<g id="edge11_Node000002_Node000012" class="edge">
<title>Node12&#45;&gt;Node2</title>
<g id="a_edge11_Node000002_Node000012"><a xlink:title=" ">
<path fill="none" stroke="#63b8ff" d="M286.88,-122.48C286.88,-109.98 286.88,-95.77 286.88,-86.88"/>
<polygon fill="#63b8ff" stroke="#63b8ff" points="283.38,-122.21 286.88,-132.21 290.38,-122.21 283.38,-122.21"/>
</a>
</g>
</g>
<!-- Node13 -->
<g id="Node000013" class="node">
<title>Node13</title>
<g id="a_Node000013"><a xlink:href="class_cpl_1_1_t_shell_1_1_context__.html" target="_top" xlink:title="This Private Namespace class defines a &quot;Context&quot; for a TShell command.">
<polygon fill="white" stroke="#666666" points="461.5,-158.88 356.25,-158.88 356.25,-139.62 461.5,-139.62 461.5,-158.88"/>
<text text-anchor="middle" x="408.88" y="-145.38" font-family="Helvetica,sans-Serif" font-size="10.00">Cpl::TShell::Context_</text>
</a>
</g>
</g>
<!-- Node13&#45;&gt;Node2 -->
<g id="edge12_Node000002_Node000013" class="edge">
<title>Node13&#45;&gt;Node2</title>
<g id="a_edge12_Node000002_Node000013"><a xlink:title=" ">
<path fill="none" stroke="#9a32cd" stroke-dasharray="5,2" d="M383.46,-133.64C359.08,-119.63 323.05,-98.92 302.59,-87.16"/>
<polygon fill="#9a32cd" stroke="#9a32cd" points="381.7,-136.67 392.11,-138.61 385.19,-130.6 381.7,-136.67"/>
</a>
</g>
<text text-anchor="middle" x="381.88" y="-106.5" font-family="Helvetica,sans-Serif" font-size="10.00" fill="grey"> m_contextPtr</text>
</g>
<!-- Node14 -->
<g id="Node000014" class="node">
<title>Node14</title>
<g id="a_Node000014"><a xlink:href="class_cpl_1_1_t_shell_1_1_processor_api.html" target="_top" xlink:title="This class defines the interface a TShell Command Processor.">
<polygon fill="white" stroke="#666666" points="471.62,-236.62 346.12,-236.62 346.12,-217.38 471.62,-217.38 471.62,-236.62"/>
<text text-anchor="middle" x="408.88" y="-223.12" font-family="Helvetica,sans-Serif" font-size="10.00">Cpl::TShell::ProcessorApi</text>
</a>
</g>
</g>
<!-- Node14&#45;&gt;Node13 -->
<g id="edge13_Node000013_Node000014" class="edge">
<title>Node14&#45;&gt;Node13</title>
<g id="a_edge13_Node000013_Node000014"><a xlink:title=" ">
<path fill="none" stroke="#63b8ff" d="M408.88,-205.72C408.88,-190.58 408.88,-170.61 408.88,-159.23"/>
<polygon fill="#63b8ff" stroke="#63b8ff" points="405.38,-205.5 408.88,-215.5 412.38,-205.5 405.38,-205.5"/>
</a>
</g>
</g>
</g>
</svg>
