<?xml version="1.0" encoding="UTF-8" standalone="no"?>
<!DOCTYPE svg PUBLIC "-//W3C//DTD SVG 1.1//EN"
 "http://www.w3.org/Graphics/SVG/1.1/DTD/svg11.dtd">
<!-- Generated by graphviz version 9.0.0 (20230911.1827)
 -->
<!-- Title: Cpl::Dm::Mp::NumericArrayBase_&lt; ELEMTYPE &gt; Pages: 1 -->
<svg width="1695pt" height="940pt"
 viewBox="0.00 0.00 1694.50 939.50" xmlns="http://www.w3.org/2000/svg" xmlns:xlink="http://www.w3.org/1999/xlink">
<g id="graph0" class="graph" transform="scale(1 1) rotate(0) translate(4 935.5)">
<title>Cpl::Dm::Mp::NumericArrayBase_&lt; ELEMTYPE &gt;</title>
<!-- Node1 -->
<g id="Node000001" class="node">
<title>Node1</title>
<g id="a_Node000001"><a xlink:title="This template class extends the implementation of ArrayBase_ to support the toJSON() and fromJSON_() ...">
<polygon fill="#999999" stroke="#666666" points="752.25,-416.5 620.75,-416.5 620.75,-386 752.25,-386 752.25,-416.5"/>
<text text-anchor="start" x="628.75" y="-403" font-family="Helvetica,sans-Serif" font-size="10.00">Cpl::Dm::Mp::NumericArray</text>
<text text-anchor="middle" x="686.5" y="-391.75" font-family="Helvetica,sans-Serif" font-size="10.00">Base_&lt; ELEMTYPE &gt;</text>
</a>
</g>
</g>
<!-- Node6 -->
<g id="Node000006" class="node">
<title>Node6</title>
<g id="a_Node000006"><a xlink:href="class_cpl_1_1_dm_1_1_mp_1_1_numeric_array__.html" target="_top" xlink:title=" ">
<polygon fill="white" stroke="#666666" points="1300.25,-931.5 1139.5,-931.5 1139.5,-901 1300.25,-901 1300.25,-931.5"/>
<text text-anchor="start" x="1147.5" y="-918" font-family="Helvetica,sans-Serif" font-size="10.00">Cpl::Dm::Mp::NumericArray</text>
<text text-anchor="middle" x="1219.88" y="-906.75" font-family="Helvetica,sans-Serif" font-size="10.00">_&lt; double, N, ArrayDouble&lt; N &gt; &gt;</text>
</a>
</g>
</g>
<!-- Node1&#45;&gt;Node6 -->
<g id="edge5_Node000001_Node000006" class="edge">
<title>Node1&#45;&gt;Node6</title>
<g id="a_edge5_Node000001_Node000006"><a xlink:title=" ">
<path fill="none" stroke="#63b8ff" d="M687.41,-428.1C688.74,-508.2 704.51,-746.89 841.5,-859.25 939.52,-939.65 992.57,-929.33 1119.25,-924.25 1125.75,-923.99 1132.49,-923.63 1139.25,-923.22"/>
<polygon fill="#63b8ff" stroke="#63b8ff" points="690.91,-428.13 687.32,-418.16 683.91,-428.19 690.91,-428.13"/>
</a>
</g>
</g>
<!-- Node8 -->
<g id="Node000008" class="node">
<title>Node8</title>
<g id="a_Node000008"><a xlink:href="class_cpl_1_1_dm_1_1_mp_1_1_numeric_array__.html" target="_top" xlink:title=" ">
<polygon fill="white" stroke="#666666" points="1290.88,-879.5 1148.88,-879.5 1148.88,-849 1290.88,-849 1290.88,-879.5"/>
<text text-anchor="start" x="1156.88" y="-866" font-family="Helvetica,sans-Serif" font-size="10.00">Cpl::Dm::Mp::NumericArray</text>
<text text-anchor="middle" x="1219.88" y="-854.75" font-family="Helvetica,sans-Serif" font-size="10.00">_&lt; float, N, ArrayFloat&lt; N &gt; &gt;</text>
</a>
</g>
</g>
<!-- Node1&#45;&gt;Node8 -->
<g id="edge7_Node000001_Node000008" class="edge">
<title>Node1&#45;&gt;Node8</title>
<g id="a_edge7_Node000001_Node000008"><a xlink:title=" ">
<path fill="none" stroke="#63b8ff" d="M691.58,-427.89C700.46,-481.2 724.51,-603.89 770.25,-697.25 793.63,-744.97 803.21,-756.41 841.5,-793.25 905.04,-854.38 921.01,-879.2 1005.25,-905.25 1053.65,-920.22 1071.04,-920.84 1119.25,-905.25 1128.64,-902.21 1128.49,-896.79 1137.25,-892.25 1146.16,-887.63 1156,-883.51 1165.67,-879.95"/>
<polygon fill="#63b8ff" stroke="#63b8ff" points="695.07,-427.55 690.02,-418.23 688.16,-428.66 695.07,-427.55"/>
</a>
</g>
</g>
<!-- Node10 -->
<g id="Node000010" class="node">
<title>Node10</title>
<g id="a_Node000010"><a xlink:href="class_cpl_1_1_dm_1_1_mp_1_1_numeric_array__.html" target="_top" xlink:title=" ">
<polygon fill="white" stroke="#666666" points="1296.5,-827.5 1143.25,-827.5 1143.25,-797 1296.5,-797 1296.5,-827.5"/>
<text text-anchor="start" x="1151.25" y="-814" font-family="Helvetica,sans-Serif" font-size="10.00">Cpl::Dm::Mp::NumericArray</text>
<text text-anchor="middle" x="1219.88" y="-802.75" font-family="Helvetica,sans-Serif" font-size="10.00">_&lt; int32_t, N, ArrayInt32&lt; N &gt; &gt;</text>
</a>
</g>
</g>
<!-- Node1&#45;&gt;Node10 -->
<g id="edge9_Node000001_Node000010" class="edge">
<title>Node1&#45;&gt;Node10</title>
<g id="a_edge9_Node000001_Node000010"><a xlink:title=" ">
<path fill="none" stroke="#63b8ff" d="M692.51,-428.04C702.22,-475.65 726.58,-577.06 770.25,-652.25 794,-693.14 805.31,-700.82 841.5,-731.25 907.3,-786.59 922.64,-810.43 1005.25,-834.25 1059.7,-849.95 1124.8,-839.25 1168.71,-827.97"/>
<polygon fill="#63b8ff" stroke="#63b8ff" points="695.97,-427.5 690.6,-418.37 689.1,-428.85 695.97,-427.5"/>
</a>
</g>
</g>
<!-- Node13 -->
<g id="Node000013" class="node">
<title>Node13</title>
<g id="a_Node000013"><a xlink:href="class_cpl_1_1_dm_1_1_mp_1_1_numeric_array__.html" target="_top" xlink:title=" ">
<polygon fill="white" stroke="#666666" points="1296.5,-749.5 1143.25,-749.5 1143.25,-719 1296.5,-719 1296.5,-749.5"/>
<text text-anchor="start" x="1151.25" y="-736" font-family="Helvetica,sans-Serif" font-size="10.00">Cpl::Dm::Mp::NumericArray</text>
<text text-anchor="middle" x="1219.88" y="-724.75" font-family="Helvetica,sans-Serif" font-size="10.00">_&lt; int64_t, N, ArrayInt64&lt; N &gt; &gt;</text>
</a>
</g>
</g>
<!-- Node1&#45;&gt;Node13 -->
<g id="edge13_Node000001_Node000013" class="edge">
<title>Node1&#45;&gt;Node13</title>
<g id="a_edge13_Node000001_Node000013"><a xlink:title=" ">
<path fill="none" stroke="#63b8ff" d="M693.59,-427.77C704.16,-469.89 728.81,-553.4 770.25,-613.25 794.48,-648.25 806.56,-652.94 841.5,-677.25 947.59,-751.04 991.32,-781.49 1119.25,-763.25 1137.8,-760.61 1157.72,-755.32 1174.83,-749.98"/>
<polygon fill="#63b8ff" stroke="#63b8ff" points="697.05,-427.17 691.29,-418.28 690.25,-428.82 697.05,-427.17"/>
</a>
</g>
</g>
<!-- Node15 -->
<g id="Node000015" class="node">
<title>Node15</title>
<g id="a_Node000015"><a xlink:href="class_cpl_1_1_dm_1_1_mp_1_1_numeric_array__.html" target="_top" xlink:title=" ">
<polygon fill="white" stroke="#666666" points="1291.25,-591.5 1148.5,-591.5 1148.5,-561 1291.25,-561 1291.25,-591.5"/>
<text text-anchor="start" x="1156.5" y="-578" font-family="Helvetica,sans-Serif" font-size="10.00">Cpl::Dm::Mp::NumericArray</text>
<text text-anchor="middle" x="1219.88" y="-566.75" font-family="Helvetica,sans-Serif" font-size="10.00">_&lt; int8_t, N, ArrayInt8&lt; N &gt; &gt;</text>
</a>
</g>
</g>
<!-- Node1&#45;&gt;Node15 -->
<g id="edge15_Node000001_Node000015" class="edge">
<title>Node1&#45;&gt;Node15</title>
<g id="a_edge15_Node000001_Node000015"><a xlink:title=" ">
<path fill="none" stroke="#63b8ff" d="M735.95,-421.02C747.13,-425.29 759.03,-429.62 770.25,-433.25 846.55,-457.97 1049.71,-485.29 1119.25,-525.25 1129.06,-530.89 1127.82,-537 1137.25,-543.25 1147.57,-550.08 1159.54,-555.9 1171.07,-560.65"/>
<polygon fill="#63b8ff" stroke="#63b8ff" points="737.5,-417.87 726.91,-417.51 734.96,-424.39 737.5,-417.87"/>
</a>
</g>
</g>
<!-- Node17 -->
<g id="Node000017" class="node">
<title>Node17</title>
<g id="a_Node000017"><a xlink:href="class_cpl_1_1_dm_1_1_mp_1_1_numeric_array__.html" target="_top" xlink:title=" ">
<polygon fill="white" stroke="#666666" points="1302.5,-655.5 1137.25,-655.5 1137.25,-625 1302.5,-625 1302.5,-655.5"/>
<text text-anchor="start" x="1145.25" y="-642" font-family="Helvetica,sans-Serif" font-size="10.00">Cpl::Dm::Mp::NumericArray</text>
<text text-anchor="middle" x="1219.88" y="-630.75" font-family="Helvetica,sans-Serif" font-size="10.00">_&lt; uint32_t, N, ArrayUint32&lt; N &gt; &gt;</text>
</a>
</g>
</g>
<!-- Node1&#45;&gt;Node17 -->
<g id="edge17_Node000001_Node000017" class="edge">
<title>Node1&#45;&gt;Node17</title>
<g id="a_edge17_Node000001_Node000017"><a xlink:title=" ">
<path fill="none" stroke="#63b8ff" d="M719.5,-422.98C734.57,-432.8 753,-444.19 770.25,-453.25 870.9,-506.1 898.22,-515.93 1005.25,-554.25 1054.91,-572.03 1071.84,-564.13 1119.25,-587.25 1128.12,-591.57 1128.79,-595.17 1137.25,-600.25 1152,-609.1 1168.99,-617.67 1183.63,-624.59"/>
<polygon fill="#63b8ff" stroke="#63b8ff" points="721.66,-420.22 711.38,-417.64 717.81,-426.06 721.66,-420.22"/>
</a>
</g>
</g>
<!-- Node19 -->
<g id="Node000019" class="node">
<title>Node19</title>
<g id="a_Node000019"><a xlink:href="class_cpl_1_1_dm_1_1_mp_1_1_numeric_array__.html" target="_top" xlink:title=" ">
<polygon fill="white" stroke="#666666" points="1302.5,-534.5 1137.25,-534.5 1137.25,-504 1302.5,-504 1302.5,-534.5"/>
<text text-anchor="start" x="1145.25" y="-521" font-family="Helvetica,sans-Serif" font-size="10.00">Cpl::Dm::Mp::NumericArray</text>
<text text-anchor="middle" x="1219.88" y="-509.75" font-family="Helvetica,sans-Serif" font-size="10.00">_&lt; uint64_t, N, ArrayUint64&lt; N &gt; &gt;</text>
</a>
</g>
</g>
<!-- Node1&#45;&gt;Node19 -->
<g id="edge19_Node000001_Node000019" class="edge">
<title>Node1&#45;&gt;Node19</title>
<g id="a_edge19_Node000001_Node000019"><a xlink:title=" ">
<path fill="none" stroke="#63b8ff" d="M763.66,-415.33C765.88,-415.65 768.08,-415.96 770.25,-416.25 847.41,-426.54 1046.37,-418.9 1119.25,-446.25 1152.98,-458.91 1185.34,-486.39 1203.61,-503.79"/>
<polygon fill="#63b8ff" stroke="#63b8ff" points="764.37,-411.9 753.95,-413.85 763.31,-418.82 764.37,-411.9"/>
</a>
</g>
</g>
<!-- Node21 -->
<g id="Node000021" class="node">
<title>Node21</title>
<g id="a_Node000021"><a xlink:href="class_cpl_1_1_dm_1_1_mp_1_1_numeric_array__.html" target="_top" xlink:title=" ">
<polygon fill="white" stroke="#666666" points="1297.25,-445.5 1142.5,-445.5 1142.5,-415 1297.25,-415 1297.25,-445.5"/>
<text text-anchor="start" x="1150.5" y="-432" font-family="Helvetica,sans-Serif" font-size="10.00">Cpl::Dm::Mp::NumericArray</text>
<text text-anchor="middle" x="1219.88" y="-420.75" font-family="Helvetica,sans-Serif" font-size="10.00">_&lt; uint8_t, N, ArrayUint8&lt; N &gt; &gt;</text>
</a>
</g>
</g>
<!-- Node1&#45;&gt;Node21 -->
<g id="edge21_Node000001_Node000021" class="edge">
<title>Node1&#45;&gt;Node21</title>
<g id="a_edge21_Node000001_Node000021"><a xlink:title=" ">
<path fill="none" stroke="#63b8ff" d="M764.03,-401.03C850.46,-401.41 995.24,-403.94 1119.25,-415.25 1126.65,-415.92 1134.34,-416.79 1142.02,-417.76"/>
<polygon fill="#63b8ff" stroke="#63b8ff" points="764.27,-397.53 754.26,-401 764.25,-404.53 764.27,-397.53"/>
</a>
</g>
</g>
<!-- Node23 -->
<g id="Node000023" class="node">
<title>Node23</title>
<g id="a_Node000023"><a xlink:href="class_cpl_1_1_dm_1_1_mp_1_1_numeric_array__.html" target="_top" xlink:title="This mostly concrete template class implements an &#39;numeric Array&#39; Model Point with an element size of...">
<polygon fill="white" stroke="#666666" points="987.25,-668.12 841.5,-668.12 841.5,-626.38 987.25,-626.38 987.25,-668.12"/>
<text text-anchor="start" x="849.5" y="-654.62" font-family="Helvetica,sans-Serif" font-size="10.00">Cpl::Dm::Mp::NumericArray</text>
<text text-anchor="start" x="849.5" y="-643.38" font-family="Helvetica,sans-Serif" font-size="10.00">_&lt; ELEMTYPE, NUMELEMS,</text>
<text text-anchor="middle" x="914.38" y="-632.12" font-family="Helvetica,sans-Serif" font-size="10.00"> MPTYPE &gt;</text>
</a>
</g>
</g>
<!-- Node1&#45;&gt;Node23 -->
<g id="edge23_Node000001_Node000023" class="edge">
<title>Node1&#45;&gt;Node23</title>
<g id="a_edge23_Node000001_Node000023"><a xlink:title=" ">
<path fill="none" stroke="#63b8ff" d="M693.41,-428.05C703.21,-466.72 726.23,-538.34 770.25,-582.25 789.86,-601.81 816.42,-616.08 841.34,-626.18"/>
<polygon fill="#63b8ff" stroke="#63b8ff" points="696.84,-427.33 691.09,-418.42 690.03,-428.96 696.84,-427.33"/>
</a>
</g>
</g>
<!-- Node24 -->
<g id="Node000024" class="node">
<title>Node24</title>
<g id="a_Node000024"><a xlink:href="class_cpl_1_1_dm_1_1_mp_1_1_numeric_array_base__.html" target="_top" xlink:title=" ">
<polygon fill="white" stroke="#666666" points="980.12,-373.5 848.62,-373.5 848.62,-343 980.12,-343 980.12,-373.5"/>
<text text-anchor="start" x="856.62" y="-360" font-family="Helvetica,sans-Serif" font-size="10.00">Cpl::Dm::Mp::NumericArray</text>
<text text-anchor="middle" x="914.38" y="-348.75" font-family="Helvetica,sans-Serif" font-size="10.00">Base_&lt; double &gt;</text>
</a>
</g>
</g>
<!-- Node1&#45;&gt;Node24 -->
<g id="edge32_Node000001_Node000024" class="edge">
<title>Node1&#45;&gt;Node24</title>
<g id="a_edge32_Node000001_Node000024"><a xlink:title=" ">
<path fill="none" stroke="orange" stroke-dasharray="5,2" d="M744.9,-382.34C753.34,-379.97 761.98,-377.76 770.25,-376 795.47,-370.63 823.57,-366.71 848.14,-363.94"/>
<polygon fill="orange" stroke="orange" points="744.03,-378.95 735.41,-385.11 745.99,-385.67 744.03,-378.95"/>
</a>
</g>
<text text-anchor="middle" x="796.88" y="-378" font-family="Helvetica,sans-Serif" font-size="10.00" fill="grey"> &lt; double &gt;</text>
</g>
<!-- Node25 -->
<g id="Node000025" class="node">
<title>Node25</title>
<g id="a_Node000025"><a xlink:href="class_cpl_1_1_dm_1_1_mp_1_1_numeric_array_base__.html" target="_top" xlink:title=" ">
<polygon fill="white" stroke="#666666" points="980.12,-324.5 848.62,-324.5 848.62,-294 980.12,-294 980.12,-324.5"/>
<text text-anchor="start" x="856.62" y="-311" font-family="Helvetica,sans-Serif" font-size="10.00">Cpl::Dm::Mp::NumericArray</text>
<text text-anchor="middle" x="914.38" y="-299.75" font-family="Helvetica,sans-Serif" font-size="10.00">Base_&lt; float &gt;</text>
</a>
</g>
</g>
<!-- Node1&#45;&gt;Node25 -->
<g id="edge33_Node000001_Node000025" class="edge">
<title>Node1&#45;&gt;Node25</title>
<g id="a_edge33_Node000001_Node000025"><a xlink:title=" ">
<path fill="none" stroke="orange" stroke-dasharray="5,2" d="M720.67,-379.54C735.43,-370.51 753.29,-360.42 770.25,-353 795.96,-341.76 825.45,-332.21 850.96,-324.94"/>
<polygon fill="orange" stroke="orange" points="718.9,-376.52 712.27,-384.78 722.61,-382.46 718.9,-376.52"/>
</a>
</g>
<text text-anchor="middle" x="796.88" y="-355" font-family="Helvetica,sans-Serif" font-size="10.00" fill="grey"> &lt; float &gt;</text>
</g>
<!-- Node26 -->
<g id="Node000026" class="node">
<title>Node26</title>
<g id="a_Node000026"><a xlink:href="class_cpl_1_1_dm_1_1_mp_1_1_numeric_array_base__.html" target="_top" xlink:title=" ">
<polygon fill="white" stroke="#666666" points="980.12,-275.5 848.62,-275.5 848.62,-245 980.12,-245 980.12,-275.5"/>
<text text-anchor="start" x="856.62" y="-262" font-family="Helvetica,sans-Serif" font-size="10.00">Cpl::Dm::Mp::NumericArray</text>
<text text-anchor="middle" x="914.38" y="-250.75" font-family="Helvetica,sans-Serif" font-size="10.00">Base_&lt; int32_t &gt;</text>
</a>
</g>
</g>
<!-- Node1&#45;&gt;Node26 -->
<g id="edge34_Node000001_Node000026" class="edge">
<title>Node1&#45;&gt;Node26</title>
<g id="a_edge34_Node000001_Node000026"><a xlink:title=" ">
<path fill="none" stroke="orange" stroke-dasharray="5,2" d="M708.15,-377.15C723.92,-359.76 746.86,-336.52 770.25,-320 799.03,-299.67 808.97,-298.78 841.5,-285.25 849.31,-282 857.7,-278.82 865.9,-275.86"/>
<polygon fill="orange" stroke="orange" points="705.63,-374.72 701.6,-384.52 710.86,-379.38 705.63,-374.72"/>
</a>
</g>
<text text-anchor="middle" x="796.88" y="-322" font-family="Helvetica,sans-Serif" font-size="10.00" fill="grey"> &lt; int32_t &gt;</text>
</g>
<!-- Node27 -->
<g id="Node000027" class="node">
<title>Node27</title>
<g id="a_Node000027"><a xlink:href="class_cpl_1_1_dm_1_1_mp_1_1_numeric_array_base__.html" target="_top" xlink:title=" ">
<polygon fill="white" stroke="#666666" points="980.12,-226.5 848.62,-226.5 848.62,-196 980.12,-196 980.12,-226.5"/>
<text text-anchor="start" x="856.62" y="-213" font-family="Helvetica,sans-Serif" font-size="10.00">Cpl::Dm::Mp::NumericArray</text>
<text text-anchor="middle" x="914.38" y="-201.75" font-family="Helvetica,sans-Serif" font-size="10.00">Base_&lt; int64_t &gt;</text>
</a>
</g>
</g>
<!-- Node1&#45;&gt;Node27 -->
<g id="edge35_Node000001_Node000027" class="edge">
<title>Node1&#45;&gt;Node27</title>
<g id="a_edge35_Node000001_Node000027"><a xlink:title=" ">
<path fill="none" stroke="orange" stroke-dasharray="5,2" d="M700.32,-375.47C714.59,-348.67 739.72,-306.71 770.25,-278 795.51,-254.24 830.76,-237.66 859.95,-226.97"/>
<polygon fill="orange" stroke="orange" points="697.25,-373.78 695.75,-384.26 703.46,-377 697.25,-373.78"/>
</a>
</g>
<text text-anchor="middle" x="796.88" y="-280" font-family="Helvetica,sans-Serif" font-size="10.00" fill="grey"> &lt; int64_t &gt;</text>
</g>
<!-- Node28 -->
<g id="Node000028" class="node">
<title>Node28</title>
<g id="a_Node000028"><a xlink:href="class_cpl_1_1_dm_1_1_mp_1_1_numeric_array_base__.html" target="_top" xlink:title=" ">
<polygon fill="white" stroke="#666666" points="980.12,-177.5 848.62,-177.5 848.62,-147 980.12,-147 980.12,-177.5"/>
<text text-anchor="start" x="856.62" y="-164" font-family="Helvetica,sans-Serif" font-size="10.00">Cpl::Dm::Mp::NumericArray</text>
<text text-anchor="middle" x="914.38" y="-152.75" font-family="Helvetica,sans-Serif" font-size="10.00">Base_&lt; int8_t &gt;</text>
</a>
</g>
</g>
<!-- Node1&#45;&gt;Node28 -->
<g id="edge36_Node000001_Node000028" class="edge">
<title>Node1&#45;&gt;Node28</title>
<g id="a_edge36_Node000001_Node000028"><a xlink:title=" ">
<path fill="none" stroke="orange" stroke-dasharray="5,2" d="M694.87,-375.18C706.15,-339.06 730.66,-273.34 770.25,-230 793.06,-205.03 826.99,-188.42 856.09,-177.89"/>
<polygon fill="orange" stroke="orange" points="691.64,-373.77 692.11,-384.36 698.34,-375.79 691.64,-373.77"/>
</a>
</g>
<text text-anchor="middle" x="796.88" y="-232" font-family="Helvetica,sans-Serif" font-size="10.00" fill="grey"> &lt; int8_t &gt;</text>
</g>
<!-- Node29 -->
<g id="Node000029" class="node">
<title>Node29</title>
<g id="a_Node000029"><a xlink:href="class_cpl_1_1_dm_1_1_mp_1_1_numeric_array_base__.html" target="_top" xlink:title=" ">
<polygon fill="white" stroke="#666666" points="980.12,-128.5 848.62,-128.5 848.62,-98 980.12,-98 980.12,-128.5"/>
<text text-anchor="start" x="856.62" y="-115" font-family="Helvetica,sans-Serif" font-size="10.00">Cpl::Dm::Mp::NumericArray</text>
<text text-anchor="middle" x="914.38" y="-103.75" font-family="Helvetica,sans-Serif" font-size="10.00">Base_&lt; uint32_t &gt;</text>
</a>
</g>
</g>
<!-- Node1&#45;&gt;Node29 -->
<g id="edge37_Node000001_Node000029" class="edge">
<title>Node1&#45;&gt;Node29</title>
<g id="a_edge37_Node000001_Node000029"><a xlink:title=" ">
<path fill="none" stroke="orange" stroke-dasharray="5,2" d="M691.29,-374.37C698.91,-329.09 719.87,-236.8 770.25,-178 790.57,-154.29 821.34,-138.83 849.16,-128.99"/>
<polygon fill="orange" stroke="orange" points="687.86,-373.65 689.76,-384.08 694.78,-374.75 687.86,-373.65"/>
</a>
</g>
<text text-anchor="middle" x="796.88" y="-180" font-family="Helvetica,sans-Serif" font-size="10.00" fill="grey"> &lt; uint32_t &gt;</text>
</g>
<!-- Node30 -->
<g id="Node000030" class="node">
<title>Node30</title>
<g id="a_Node000030"><a xlink:href="class_cpl_1_1_dm_1_1_mp_1_1_numeric_array_base__.html" target="_top" xlink:title=" ">
<polygon fill="white" stroke="#666666" points="980.12,-79.5 848.62,-79.5 848.62,-49 980.12,-49 980.12,-79.5"/>
<text text-anchor="start" x="856.62" y="-66" font-family="Helvetica,sans-Serif" font-size="10.00">Cpl::Dm::Mp::NumericArray</text>
<text text-anchor="middle" x="914.38" y="-54.75" font-family="Helvetica,sans-Serif" font-size="10.00">Base_&lt; uint64_t &gt;</text>
</a>
</g>
</g>
<!-- Node1&#45;&gt;Node30 -->
<g id="edge38_Node000001_Node000030" class="edge">
<title>Node1&#45;&gt;Node30</title>
<g id="a_edge38_Node000001_Node000030"><a xlink:title=" ">
<path fill="none" stroke="orange" stroke-dasharray="5,2" d="M688.77,-374.42C692.63,-321.15 708.12,-200.77 770.25,-126 789.97,-102.27 820.51,-87.43 848.32,-78.27"/>
<polygon fill="orange" stroke="orange" points="685.3,-373.88 688.16,-384.08 692.29,-374.32 685.3,-373.88"/>
</a>
</g>
<text text-anchor="middle" x="796.88" y="-128" font-family="Helvetica,sans-Serif" font-size="10.00" fill="grey"> &lt; uint64_t &gt;</text>
</g>
<!-- Node31 -->
<g id="Node000031" class="node">
<title>Node31</title>
<g id="a_Node000031"><a xlink:href="class_cpl_1_1_dm_1_1_mp_1_1_numeric_array_base__.html" target="_top" xlink:title=" ">
<polygon fill="white" stroke="#666666" points="980.12,-30.5 848.62,-30.5 848.62,0 980.12,0 980.12,-30.5"/>
<text text-anchor="start" x="856.62" y="-17" font-family="Helvetica,sans-Serif" font-size="10.00">Cpl::Dm::Mp::NumericArray</text>
<text text-anchor="middle" x="914.38" y="-5.75" font-family="Helvetica,sans-Serif" font-size="10.00">Base_&lt; uint8_t &gt;</text>
</a>
</g>
</g>
<!-- Node1&#45;&gt;Node31 -->
<g id="edge39_Node000001_Node000031" class="edge">
<title>Node1&#45;&gt;Node31</title>
<g id="a_edge39_Node000001_Node000031"><a xlink:title=" ">
<path fill="none" stroke="orange" stroke-dasharray="5,2" d="M686.96,-374.31C687.16,-313.66 695.74,-164.63 770.25,-74 789.78,-50.24 820.47,-35.98 848.43,-27.48"/>
<polygon fill="orange" stroke="orange" points="683.46,-374.04 687.01,-384.02 690.46,-374.01 683.46,-374.04"/>
</a>
</g>
<text text-anchor="middle" x="796.88" y="-76" font-family="Helvetica,sans-Serif" font-size="10.00" fill="grey"> &lt; uint8_t &gt;</text>
</g>
<!-- Node2 -->
<g id="Node000002" class="node">
<title>Node2</title>
<g id="a_Node000002"><a xlink:href="class_cpl_1_1_dm_1_1_mp_1_1_array_base__.html" target="_top" xlink:title="This a mostly concrete class provides &#39;common&#39; implementation for a Model Point who&#39;s data is a array...">
<polygon fill="white" stroke="#666666" points="583.75,-410.88 461.25,-410.88 461.25,-391.62 583.75,-391.62 583.75,-410.88"/>
<text text-anchor="middle" x="522.5" y="-397.38" font-family="Helvetica,sans-Serif" font-size="10.00">Cpl::Dm::Mp::ArrayBase_</text>
</a>
</g>
</g>
<!-- Node2&#45;&gt;Node1 -->
<g id="edge1_Node000001_Node000002" class="edge">
<title>Node2&#45;&gt;Node1</title>
<g id="a_edge1_Node000001_Node000002"><a xlink:title=" ">
<path fill="none" stroke="#63b8ff" d="M595.19,-401.25C603.62,-401.25 612.18,-401.25 620.51,-401.25"/>
<polygon fill="#63b8ff" stroke="#63b8ff" points="595.34,-397.75 585.34,-401.25 595.34,-404.75 595.34,-397.75"/>
</a>
</g>
</g>
<!-- Node3 -->
<g id="Node000003" class="node">
<title>Node3</title>
<g id="a_Node000003"><a xlink:href="class_cpl_1_1_dm_1_1_model_point_common__.html" target="_top" xlink:title="This concrete class provide common infrastructure for a Model Point.">
<polygon fill="white" stroke="#666666" points="424.25,-410.88 277,-410.88 277,-391.62 424.25,-391.62 424.25,-410.88"/>
<text text-anchor="middle" x="350.62" y="-397.38" font-family="Helvetica,sans-Serif" font-size="10.00">Cpl::Dm::ModelPointCommon_</text>
</a>
</g>
</g>
<!-- Node3&#45;&gt;Node2 -->
<g id="edge2_Node000002_Node000003" class="edge">
<title>Node3&#45;&gt;Node2</title>
<g id="a_edge2_Node000002_Node000003"><a xlink:title=" ">
<path fill="none" stroke="#63b8ff" d="M436.02,-401.25C444.37,-401.25 452.74,-401.25 460.79,-401.25"/>
<polygon fill="#63b8ff" stroke="#63b8ff" points="436.17,-397.75 426.17,-401.25 436.17,-404.75 436.17,-397.75"/>
</a>
</g>
</g>
<!-- Node4 -->
<g id="Node000004" class="node">
<title>Node4</title>
<g id="a_Node000004"><a xlink:href="class_cpl_1_1_dm_1_1_model_point.html" target="_top" xlink:title="This mostly abstract class defines the interface for a Model Point.">
<polygon fill="white" stroke="#666666" points="240,-410.88 137,-410.88 137,-391.62 240,-391.62 240,-410.88"/>
<text text-anchor="middle" x="188.5" y="-397.38" font-family="Helvetica,sans-Serif" font-size="10.00">Cpl::Dm::ModelPoint</text>
</a>
</g>
</g>
<!-- Node4&#45;&gt;Node3 -->
<g id="edge3_Node000003_Node000004" class="edge">
<title>Node4&#45;&gt;Node3</title>
<g id="a_edge3_Node000003_Node000004"><a xlink:title=" ">
<path fill="none" stroke="#63b8ff" d="M251.6,-401.25C259.85,-401.25 268.36,-401.25 276.77,-401.25"/>
<polygon fill="#63b8ff" stroke="#63b8ff" points="251.68,-397.75 241.68,-401.25 251.68,-404.75 251.68,-397.75"/>
</a>
</g>
</g>
<!-- Node5 -->
<g id="Node000005" class="node">
<title>Node5</title>
<g id="a_Node000005"><a xlink:href="class_cpl_1_1_container_1_1_item.html" target="_top" xlink:title="This class is used by the Container classes to implement a various types of singly linked containers.">
<polygon fill="white" stroke="#666666" points="100,-410.88 0,-410.88 0,-391.62 100,-391.62 100,-410.88"/>
<text text-anchor="middle" x="50" y="-397.38" font-family="Helvetica,sans-Serif" font-size="10.00">Cpl::Container::Item</text>
</a>
</g>
</g>
<!-- Node5&#45;&gt;Node4 -->
<g id="edge4_Node000004_Node000005" class="edge">
<title>Node5&#45;&gt;Node4</title>
<g id="a_edge4_Node000004_Node000005"><a xlink:title=" ">
<path fill="none" stroke="#63b8ff" d="M111.64,-401.25C120.09,-401.25 128.68,-401.25 136.91,-401.25"/>
<polygon fill="#63b8ff" stroke="#63b8ff" points="111.79,-397.75 101.79,-401.25 111.79,-404.75 111.79,-397.75"/>
</a>
</g>
</g>
<!-- Node7 -->
<g id="Node000007" class="node">
<title>Node7</title>
<g id="a_Node000007"><a xlink:href="class_cpl_1_1_dm_1_1_mp_1_1_array_double.html" target="_top" xlink:title="double Array">
<polygon fill="white" stroke="#666666" points="1488.25,-925.88 1339.5,-925.88 1339.5,-906.62 1488.25,-906.62 1488.25,-925.88"/>
<text text-anchor="middle" x="1413.88" y="-912.38" font-family="Helvetica,sans-Serif" font-size="10.00">Cpl::Dm::Mp::ArrayDouble&lt; N &gt;</text>
</a>
</g>
</g>
<!-- Node6&#45;&gt;Node7 -->
<g id="edge6_Node000006_Node000007" class="edge">
<title>Node6&#45;&gt;Node7</title>
<g id="a_edge6_Node000006_Node000007"><a xlink:title=" ">
<path fill="none" stroke="#63b8ff" d="M1312.09,-916.25C1321.18,-916.25 1330.33,-916.25 1339.2,-916.25"/>
<polygon fill="#63b8ff" stroke="#63b8ff" points="1312.15,-912.75 1302.15,-916.25 1312.15,-919.75 1312.15,-912.75"/>
</a>
</g>
</g>
<!-- Node9 -->
<g id="Node000009" class="node">
<title>Node9</title>
<g id="a_Node000009"><a xlink:href="class_cpl_1_1_dm_1_1_mp_1_1_array_float.html" target="_top" xlink:title="float Array">
<polygon fill="white" stroke="#666666" points="1484.12,-873.88 1343.62,-873.88 1343.62,-854.62 1484.12,-854.62 1484.12,-873.88"/>
<text text-anchor="middle" x="1413.88" y="-860.38" font-family="Helvetica,sans-Serif" font-size="10.00">Cpl::Dm::Mp::ArrayFloat&lt; N &gt;</text>
</a>
</g>
</g>
<!-- Node8&#45;&gt;Node9 -->
<g id="edge8_Node000008_Node000009" class="edge">
<title>Node8&#45;&gt;Node9</title>
<g id="a_edge8_Node000008_Node000009"><a xlink:title=" ">
<path fill="none" stroke="#63b8ff" d="M1302.59,-864.25C1316.19,-864.25 1330.18,-864.25 1343.44,-864.25"/>
<polygon fill="#63b8ff" stroke="#63b8ff" points="1302.79,-860.75 1292.79,-864.25 1302.79,-867.75 1302.79,-860.75"/>
</a>
</g>
</g>
<!-- Node11 -->
<g id="Node000011" class="node">
<title>Node11</title>
<g id="a_Node000011"><a xlink:href="class_cpl_1_1_dm_1_1_mp_1_1_array_int32.html" target="_top" xlink:title=" ">
<polygon fill="white" stroke="#666666" points="1686.5,-808.88 1548.25,-808.88 1548.25,-789.62 1686.5,-789.62 1686.5,-808.88"/>
<text text-anchor="middle" x="1617.38" y="-795.38" font-family="Helvetica,sans-Serif" font-size="10.00">Cpl::Dm::Mp::ArrayInt32&lt; 2 &gt;</text>
</a>
</g>
</g>
<!-- Node10&#45;&gt;Node11 -->
<g id="edge10_Node000010_Node000011" class="edge">
<title>Node10&#45;&gt;Node11</title>
<g id="a_edge10_Node000010_Node000011"><a xlink:title=" ">
<path fill="none" stroke="#63b8ff" d="M1308.15,-804.16C1318.71,-803.4 1329.34,-802.73 1339.5,-802.25 1410.45,-798.88 1491.73,-798.4 1547.78,-798.6"/>
<polygon fill="#63b8ff" stroke="#63b8ff" points="1307.98,-800.66 1298.27,-804.91 1308.5,-807.64 1307.98,-800.66"/>
</a>
</g>
</g>
<!-- Node12 -->
<g id="Node000012" class="node">
<title>Node12</title>
<g id="a_Node000012"><a xlink:href="class_cpl_1_1_dm_1_1_mp_1_1_array_int32.html" target="_top" xlink:title="int32_t Array">
<polygon fill="white" stroke="#666666" points="1484.12,-830.88 1343.62,-830.88 1343.62,-811.62 1484.12,-811.62 1484.12,-830.88"/>
<text text-anchor="middle" x="1413.88" y="-817.38" font-family="Helvetica,sans-Serif" font-size="10.00">Cpl::Dm::Mp::ArrayInt32&lt; N &gt;</text>
</a>
</g>
</g>
<!-- Node10&#45;&gt;Node12 -->
<g id="edge11_Node000010_Node000012" class="edge">
<title>Node10&#45;&gt;Node12</title>
<g id="a_edge11_Node000010_Node000012"><a xlink:title=" ">
<path fill="none" stroke="#63b8ff" d="M1307.98,-816.33C1319.77,-816.89 1331.73,-817.45 1343.16,-817.98"/>
<polygon fill="#63b8ff" stroke="#63b8ff" points="1308.42,-812.85 1298.27,-815.88 1308.1,-819.84 1308.42,-812.85"/>
</a>
</g>
</g>
<!-- Node12&#45;&gt;Node11 -->
<g id="edge12_Node000012_Node000011" class="edge">
<title>Node12&#45;&gt;Node11</title>
<g id="a_edge12_Node000012_Node000011"><a xlink:title=" ">
<path fill="none" stroke="orange" stroke-dasharray="5,2" d="M1495.7,-812.43C1512.96,-810.54 1531.02,-808.57 1547.77,-806.74"/>
<polygon fill="orange" stroke="orange" points="1495.57,-808.92 1486.01,-813.48 1496.33,-815.88 1495.57,-808.92"/>
</a>
</g>
<text text-anchor="middle" x="1518.25" y="-812" font-family="Helvetica,sans-Serif" font-size="10.00" fill="grey"> &lt; 2 &gt;</text>
</g>
<!-- Node14 -->
<g id="Node000014" class="node">
<title>Node14</title>
<g id="a_Node000014"><a xlink:href="class_cpl_1_1_dm_1_1_mp_1_1_array_int64.html" target="_top" xlink:title="int64_t Array">
<polygon fill="white" stroke="#666666" points="1484.12,-743.88 1343.62,-743.88 1343.62,-724.62 1484.12,-724.62 1484.12,-743.88"/>
<text text-anchor="middle" x="1413.88" y="-730.38" font-family="Helvetica,sans-Serif" font-size="10.00">Cpl::Dm::Mp::ArrayInt64&lt; N &gt;</text>
</a>
</g>
</g>
<!-- Node13&#45;&gt;Node14 -->
<g id="edge14_Node000013_Node000014" class="edge">
<title>Node13&#45;&gt;Node14</title>
<g id="a_edge14_Node000013_Node000014"><a xlink:title=" ">
<path fill="none" stroke="#63b8ff" d="M1307.98,-734.25C1319.77,-734.25 1331.73,-734.25 1343.16,-734.25"/>
<polygon fill="#63b8ff" stroke="#63b8ff" points="1308.27,-730.75 1298.27,-734.25 1308.27,-737.75 1308.27,-730.75"/>
</a>
</g>
</g>
<!-- Node16 -->
<g id="Node000016" class="node">
<title>Node16</title>
<g id="a_Node000016"><a xlink:href="class_cpl_1_1_dm_1_1_mp_1_1_array_int8.html" target="_top" xlink:title="int8_t Array">
<polygon fill="white" stroke="#666666" points="1481.5,-585.88 1346.25,-585.88 1346.25,-566.62 1481.5,-566.62 1481.5,-585.88"/>
<text text-anchor="middle" x="1413.88" y="-572.38" font-family="Helvetica,sans-Serif" font-size="10.00">Cpl::Dm::Mp::ArrayInt8&lt; N &gt;</text>
</a>
</g>
</g>
<!-- Node15&#45;&gt;Node16 -->
<g id="edge16_Node000015_Node000016" class="edge">
<title>Node15&#45;&gt;Node16</title>
<g id="a_edge16_Node000015_Node000016"><a xlink:title=" ">
<path fill="none" stroke="#63b8ff" d="M1302.92,-576.25C1317.25,-576.25 1332,-576.25 1345.86,-576.25"/>
<polygon fill="#63b8ff" stroke="#63b8ff" points="1303.06,-572.75 1293.06,-576.25 1303.06,-579.75 1303.06,-572.75"/>
</a>
</g>
</g>
<!-- Node18 -->
<g id="Node000018" class="node">
<title>Node18</title>
<g id="a_Node000018"><a xlink:href="class_cpl_1_1_dm_1_1_mp_1_1_array_uint32.html" target="_top" xlink:title="uint32_t Array">
<polygon fill="white" stroke="#666666" points="1487.5,-649.88 1340.25,-649.88 1340.25,-630.62 1487.5,-630.62 1487.5,-649.88"/>
<text text-anchor="middle" x="1413.88" y="-636.38" font-family="Helvetica,sans-Serif" font-size="10.00">Cpl::Dm::Mp::ArrayUint32&lt; N &gt;</text>
</a>
</g>
</g>
<!-- Node17&#45;&gt;Node18 -->
<g id="edge18_Node000017_Node000018" class="edge">
<title>Node17&#45;&gt;Node18</title>
<g id="a_edge18_Node000017_Node000018"><a xlink:title=" ">
<path fill="none" stroke="#63b8ff" d="M1314.19,-640.25C1322.85,-640.25 1331.53,-640.25 1339.96,-640.25"/>
<polygon fill="#63b8ff" stroke="#63b8ff" points="1314.37,-636.75 1304.37,-640.25 1314.37,-643.75 1314.37,-636.75"/>
</a>
</g>
</g>
<!-- Node20 -->
<g id="Node000020" class="node">
<title>Node20</title>
<g id="a_Node000020"><a xlink:href="class_cpl_1_1_dm_1_1_mp_1_1_array_uint64.html" target="_top" xlink:title="uint64_t Array">
<polygon fill="white" stroke="#666666" points="1487.5,-528.88 1340.25,-528.88 1340.25,-509.62 1487.5,-509.62 1487.5,-528.88"/>
<text text-anchor="middle" x="1413.88" y="-515.38" font-family="Helvetica,sans-Serif" font-size="10.00">Cpl::Dm::Mp::ArrayUint64&lt; N &gt;</text>
</a>
</g>
</g>
<!-- Node19&#45;&gt;Node20 -->
<g id="edge20_Node000019_Node000020" class="edge">
<title>Node19&#45;&gt;Node20</title>
<g id="a_edge20_Node000019_Node000020"><a xlink:title=" ">
<path fill="none" stroke="#63b8ff" d="M1314.19,-519.25C1322.85,-519.25 1331.53,-519.25 1339.96,-519.25"/>
<polygon fill="#63b8ff" stroke="#63b8ff" points="1314.37,-515.75 1304.37,-519.25 1314.37,-522.75 1314.37,-515.75"/>
</a>
</g>
</g>
<!-- Node22 -->
<g id="Node000022" class="node">
<title>Node22</title>
<g id="a_Node000022"><a xlink:href="class_cpl_1_1_dm_1_1_mp_1_1_array_uint8.html" target="_top" xlink:title="uint8_t Array">
<polygon fill="white" stroke="#666666" points="1484.88,-439.88 1342.88,-439.88 1342.88,-420.62 1484.88,-420.62 1484.88,-439.88"/>
<text text-anchor="middle" x="1413.88" y="-426.38" font-family="Helvetica,sans-Serif" font-size="10.00">Cpl::Dm::Mp::ArrayUint8&lt; N &gt;</text>
</a>
</g>
</g>
<!-- Node21&#45;&gt;Node22 -->
<g id="edge22_Node000021_Node000022" class="edge">
<title>Node21&#45;&gt;Node22</title>
<g id="a_edge22_Node000021_Node000022"><a xlink:title=" ">
<path fill="none" stroke="#63b8ff" d="M1308.81,-430.25C1320.1,-430.25 1331.55,-430.25 1342.51,-430.25"/>
<polygon fill="#63b8ff" stroke="#63b8ff" points="1309.1,-426.75 1299.1,-430.25 1309.1,-433.75 1309.1,-426.75"/>
</a>
</g>
</g>
<!-- Node23&#45;&gt;Node6 -->
<g id="edge24_Node000023_Node000006" class="edge">
<title>Node23&#45;&gt;Node6</title>
<g id="a_edge24_Node000023_Node000006"><a xlink:title=" ">
<path fill="none" stroke="orange" stroke-dasharray="5,2" d="M920.09,-679.85C928.6,-726.57 950.98,-812.1 1005.25,-859.25 1042.12,-891.28 1095.12,-905.56 1139.1,-911.81"/>
<polygon fill="orange" stroke="orange" points="923.56,-679.35 918.43,-670.08 916.66,-680.52 923.56,-679.35"/>
</a>
</g>
<text text-anchor="start" x="1007.5" y="-921.25" font-family="Helvetica,sans-Serif" font-size="10.00" fill="grey"> &lt; double, N, ArrayDouble</text>
<text text-anchor="middle" x="1062.25" y="-910" font-family="Helvetica,sans-Serif" font-size="10.00" fill="grey">&lt; N &gt; &gt;</text>
</g>
<!-- Node23&#45;&gt;Node8 -->
<g id="edge25_Node000023_Node000008" class="edge">
<title>Node23&#45;&gt;Node8</title>
<g id="a_edge25_Node000023_Node000008"><a xlink:title=" ">
<path fill="none" stroke="orange" stroke-dasharray="5,2" d="M928.25,-679C942.64,-710.77 968.79,-759 1005.25,-788.25 1029.82,-807.95 1107.12,-832.72 1161.65,-848.52"/>
<polygon fill="orange" stroke="orange" points="931.48,-677.65 924.27,-669.89 925.07,-680.46 931.48,-677.65"/>
</a>
</g>
<text text-anchor="start" x="1016.88" y="-847.25" font-family="Helvetica,sans-Serif" font-size="10.00" fill="grey"> &lt; float, N, ArrayFloat</text>
<text text-anchor="middle" x="1062.25" y="-836" font-family="Helvetica,sans-Serif" font-size="10.00" fill="grey">&lt; N &gt; &gt;</text>
</g>
<!-- Node23&#45;&gt;Node10 -->
<g id="edge26_Node000023_Node000010" class="edge">
<title>Node23&#45;&gt;Node10</title>
<g id="a_edge26_Node000023_Node000010"><a xlink:title=" ">
<path fill="none" stroke="orange" stroke-dasharray="5,2" d="M947.63,-675.69C964.13,-689.36 984.97,-705.32 1005.25,-717.25 1052.7,-745.18 1068.96,-743.32 1119.25,-765.75 1141.74,-775.78 1166.86,-787.51 1186.25,-796.68"/>
<polygon fill="orange" stroke="orange" points="950,-673.11 940.1,-669.35 945.49,-678.47 950,-673.11"/>
</a>
</g>
<text text-anchor="start" x="1011.25" y="-778.25" font-family="Helvetica,sans-Serif" font-size="10.00" fill="grey"> &lt; int32_t, N, ArrayInt32</text>
<text text-anchor="middle" x="1062.25" y="-767" font-family="Helvetica,sans-Serif" font-size="10.00" fill="grey">&lt; N &gt; &gt;</text>
</g>
<!-- Node23&#45;&gt;Node13 -->
<g id="edge27_Node000023_Node000013" class="edge">
<title>Node23&#45;&gt;Node13</title>
<g id="a_edge27_Node000023_Node000013"><a xlink:title=" ">
<path fill="none" stroke="orange" stroke-dasharray="5,2" d="M998.36,-669.6C1000.68,-670.16 1002.98,-670.71 1005.25,-671.25 1055.59,-683.15 1069.68,-679.94 1119.25,-694.75 1141.18,-701.3 1165.03,-710.68 1183.9,-718.65"/>
<polygon fill="orange" stroke="orange" points="999.41,-666.25 988.86,-667.24 997.72,-673.04 999.41,-666.25"/>
</a>
</g>
<text text-anchor="start" x="1011.25" y="-707.25" font-family="Helvetica,sans-Serif" font-size="10.00" fill="grey"> &lt; int64_t, N, ArrayInt64</text>
<text text-anchor="middle" x="1062.25" y="-696" font-family="Helvetica,sans-Serif" font-size="10.00" fill="grey">&lt; N &gt; &gt;</text>
</g>
<!-- Node23&#45;&gt;Node15 -->
<g id="edge28_Node000023_Node000015" class="edge">
<title>Node23&#45;&gt;Node15</title>
<g id="a_edge28_Node000023_Node000015"><a xlink:title=" ">
<path fill="none" stroke="orange" stroke-dasharray="5,2" d="M982.9,-622.33C990.39,-619.94 997.95,-617.69 1005.25,-615.75 1052.27,-603.24 1106.15,-593.31 1148.03,-586.53"/>
<polygon fill="orange" stroke="orange" points="981.86,-618.99 973.45,-625.44 984.05,-625.64 981.86,-618.99"/>
</a>
</g>
<text text-anchor="start" x="1016.5" y="-628.25" font-family="Helvetica,sans-Serif" font-size="10.00" fill="grey"> &lt; int8_t, N, ArrayInt8</text>
<text text-anchor="middle" x="1062.25" y="-617" font-family="Helvetica,sans-Serif" font-size="10.00" fill="grey">&lt; N &gt; &gt;</text>
</g>
<!-- Node23&#45;&gt;Node17 -->
<g id="edge29_Node000023_Node000017" class="edge">
<title>Node23&#45;&gt;Node17</title>
<g id="a_edge29_Node000023_Node000017"><a xlink:title=" ">
<path fill="none" stroke="orange" stroke-dasharray="5,2" d="M998.98,-645.32C1041.98,-644.33 1094.19,-643.13 1136.94,-642.14"/>
<polygon fill="orange" stroke="orange" points="999.11,-641.82 989.2,-645.55 999.28,-648.82 999.11,-641.82"/>
</a>
</g>
<text text-anchor="start" x="1005.25" y="-657.25" font-family="Helvetica,sans-Serif" font-size="10.00" fill="grey"> &lt; uint32_t, N, ArrayUint32</text>
<text text-anchor="middle" x="1062.25" y="-646" font-family="Helvetica,sans-Serif" font-size="10.00" fill="grey">&lt; N &gt; &gt;</text>
</g>
<!-- Node23&#45;&gt;Node19 -->
<g id="edge30_Node000023_Node000019" class="edge">
<title>Node23&#45;&gt;Node19</title>
<g id="a_edge30_Node000023_Node000019"><a xlink:title=" ">
<path fill="none" stroke="orange" stroke-dasharray="5,2" d="M940.27,-617.44C956.86,-599.49 980.18,-577.68 1005.25,-564.75 1045.86,-543.8 1095.57,-532.49 1136.82,-526.39"/>
<polygon fill="orange" stroke="orange" points="937.77,-614.98 933.69,-624.76 942.98,-619.66 937.77,-614.98"/>
</a>
</g>
<text text-anchor="start" x="1005.25" y="-577.25" font-family="Helvetica,sans-Serif" font-size="10.00" fill="grey"> &lt; uint64_t, N, ArrayUint64</text>
<text text-anchor="middle" x="1062.25" y="-566" font-family="Helvetica,sans-Serif" font-size="10.00" fill="grey">&lt; N &gt; &gt;</text>
</g>
<!-- Node23&#45;&gt;Node21 -->
<g id="edge31_Node000023_Node000021" class="edge">
<title>Node23&#45;&gt;Node21</title>
<g id="a_edge31_Node000023_Node000021"><a xlink:title=" ">
<path fill="none" stroke="orange" stroke-dasharray="5,2" d="M927.39,-615.79C941.38,-583.12 967.51,-532.7 1005.25,-502.75 1044.67,-471.47 1098.34,-453.32 1142.03,-443.01"/>
<polygon fill="orange" stroke="orange" points="924.28,-614.15 923.69,-624.73 930.75,-616.83 924.28,-614.15"/>
</a>
</g>
<text text-anchor="start" x="1010.5" y="-515.25" font-family="Helvetica,sans-Serif" font-size="10.00" fill="grey"> &lt; uint8_t, N, ArrayUint8</text>
<text text-anchor="middle" x="1062.25" y="-504" font-family="Helvetica,sans-Serif" font-size="10.00" fill="grey">&lt; N &gt; &gt;</text>
</g>
</g>
</svg>
