<?xml version="1.0" encoding="UTF-8" standalone="no"?>
<!DOCTYPE svg PUBLIC "-//W3C//DTD SVG 1.1//EN"
 "http://www.w3.org/Graphics/SVG/1.1/DTD/svg11.dtd">
<!-- Generated by graphviz version 9.0.0 (20230911.1827)
 -->
<!-- Title: Cpl::Io::Serial::ST::M32F4::StreamDriver Pages: 1 -->
<svg width="898pt" height="84pt"
 viewBox="0.00 0.00 897.50 83.75" xmlns="http://www.w3.org/2000/svg" xmlns:xlink="http://www.w3.org/1999/xlink">
<g id="graph0" class="graph" transform="scale(1 1) rotate(0) translate(4 79.75)">
<title>Cpl::Io::Serial::ST::M32F4::StreamDriver</title>
<!-- Node1 -->
<g id="Node000001" class="node">
<title>Node1</title>
<g id="a_Node000001"><a xlink:title="This concrete class implements a non&#45;busy&#45;wait blocking Transmit/Receive Stream UART driver with a SO...">
<polygon fill="#999999" stroke="#666666" points="683.75,-53.5 571.75,-53.5 571.75,-23 683.75,-23 683.75,-53.5"/>
<text text-anchor="start" x="579.75" y="-40" font-family="Helvetica,sans-Serif" font-size="10.00">Cpl::Io::Serial::ST</text>
<text text-anchor="middle" x="627.75" y="-28.75" font-family="Helvetica,sans-Serif" font-size="10.00">::M32F4::StreamDriver</text>
</a>
</g>
</g>
<!-- Node7 -->
<g id="Node000007" class="node">
<title>Node7</title>
<g id="a_Node000007"><a xlink:href="class_cpl_1_1_io_1_1_serial_1_1_s_t_1_1_m32_f4_1_1_stream_driver.html#struct_cpl_1_1_io_1_1_serial_1_1_s_t_1_1_m32_f4_1_1_stream_driver_1_1_hal_mapping___t" target="_top" xlink:title="Used to map a HAL UART Handle to an instance of this class.">
<polygon fill="white" stroke="#666666" points="889.5,-59.12 777.5,-59.12 777.5,-17.38 889.5,-17.38 889.5,-59.12"/>
<text text-anchor="start" x="785.5" y="-45.62" font-family="Helvetica,sans-Serif" font-size="10.00">Cpl::Io::Serial::ST</text>
<text text-anchor="start" x="785.5" y="-34.38" font-family="Helvetica,sans-Serif" font-size="10.00">::M32F4::StreamDriver</text>
<text text-anchor="middle" x="833.5" y="-23.12" font-family="Helvetica,sans-Serif" font-size="10.00">::HalMapping_T</text>
</a>
</g>
</g>
<!-- Node1&#45;&gt;Node7 -->
<g id="edge7_Node000007_Node000001" class="edge">
<title>Node1&#45;&gt;Node7</title>
<g id="a_edge7_Node000007_Node000001"><a xlink:title=" ">
<path fill="none" stroke="#9a32cd" stroke-dasharray="5,2" d="M695.61,-38.25C722,-38.25 751.96,-38.25 777.1,-38.25"/>
<polygon fill="#9a32cd" stroke="#9a32cd" points="695.67,-34.75 685.67,-38.25 695.67,-41.75 695.67,-34.75"/>
</a>
</g>
<text text-anchor="middle" x="730.62" y="-40" font-family="Helvetica,sans-Serif" font-size="10.00" fill="grey"> driver</text>
</g>
<!-- Node2 -->
<g id="Node000002" class="node">
<title>Node2</title>
<g id="a_Node000002"><a xlink:href="class_cpl_1_1_system_1_1_thread.html" target="_top" xlink:title="This abstract class defines the operations that can be performed on a thread.">
<polygon fill="white" stroke="#666666" points="460.38,-70.88 358.12,-70.88 358.12,-51.62 460.38,-51.62 460.38,-70.88"/>
<text text-anchor="middle" x="409.25" y="-57.38" font-family="Helvetica,sans-Serif" font-size="10.00">Cpl::System::Thread</text>
</a>
</g>
</g>
<!-- Node2&#45;&gt;Node1 -->
<g id="edge1_Node000001_Node000002" class="edge">
<title>Node2&#45;&gt;Node1</title>
<g id="a_edge1_Node000001_Node000002"><a xlink:title=" ">
<path fill="none" stroke="#9a32cd" stroke-dasharray="5,2" d="M471.99,-54.69C503.38,-51.36 541.22,-47.34 571.62,-44.11"/>
<polygon fill="#9a32cd" stroke="#9a32cd" points="471.82,-51.19 462.24,-55.73 472.56,-58.15 471.82,-51.19"/>
</a>
</g>
<text text-anchor="middle" x="521.88" y="-66.25" font-family="Helvetica,sans-Serif" font-size="10.00" fill="grey"> m_rxWaiterPtr</text>
<text text-anchor="middle" x="521.88" y="-55" font-family="Helvetica,sans-Serif" font-size="10.00" fill="grey">m_txWaiterPtr</text>
</g>
<!-- Node3 -->
<g id="Node000003" class="node">
<title>Node3</title>
<g id="a_Node000003"><a xlink:href="class_cpl_1_1_system_1_1_signable.html" target="_top" xlink:title="This abstract class defines the interface by which a client can cause an object that is waiting&#45;on&#45;a&#45;...">
<polygon fill="white" stroke="#666666" points="254.62,-70.88 144.88,-70.88 144.88,-51.62 254.62,-51.62 254.62,-70.88"/>
<text text-anchor="middle" x="199.75" y="-57.38" font-family="Helvetica,sans-Serif" font-size="10.00">Cpl::System::Signable</text>
</a>
</g>
</g>
<!-- Node3&#45;&gt;Node2 -->
<g id="edge2_Node000002_Node000003" class="edge">
<title>Node3&#45;&gt;Node2</title>
<g id="a_edge2_Node000002_Node000003"><a xlink:title=" ">
<path fill="none" stroke="#63b8ff" d="M266.49,-61.25C296.06,-61.25 330.4,-61.25 357.88,-61.25"/>
<polygon fill="#63b8ff" stroke="#63b8ff" points="266.51,-57.75 256.51,-61.25 266.51,-64.75 266.51,-57.75"/>
</a>
</g>
</g>
<!-- Node4 -->
<g id="Node000004" class="node">
<title>Node4</title>
<g id="a_Node000004"><a xlink:href="class_cpl_1_1_container_1_1_item.html" target="_top" xlink:title="This class is used by the Container classes to implement a various types of singly linked containers.">
<polygon fill="white" stroke="#666666" points="100,-70.88 0,-70.88 0,-51.62 100,-51.62 100,-70.88"/>
<text text-anchor="middle" x="50" y="-57.38" font-family="Helvetica,sans-Serif" font-size="10.00">Cpl::Container::Item</text>
</a>
</g>
</g>
<!-- Node4&#45;&gt;Node3 -->
<g id="edge3_Node000003_Node000004" class="edge">
<title>Node4&#45;&gt;Node3</title>
<g id="a_edge3_Node000003_Node000004"><a xlink:title=" ">
<path fill="none" stroke="#63b8ff" d="M111.4,-61.25C122.34,-61.25 133.68,-61.25 144.42,-61.25"/>
<polygon fill="#63b8ff" stroke="#63b8ff" points="111.71,-57.75 101.71,-61.25 111.71,-64.75 111.71,-57.75"/>
</a>
</g>
</g>
<!-- Node5 -->
<g id="Node000005" class="node">
<title>Node5</title>
<g id="a_Node000005"><a xlink:href="class_cpl_1_1_container_1_1_ring_buffer.html" target="_top" xlink:title=" ">
<polygon fill="white" stroke="#666666" points="472,-30.5 346.5,-30.5 346.5,0 472,0 472,-30.5"/>
<text text-anchor="start" x="354.5" y="-17" font-family="Helvetica,sans-Serif" font-size="10.00">Cpl::Container::RingBuffer</text>
<text text-anchor="middle" x="409.25" y="-5.75" font-family="Helvetica,sans-Serif" font-size="10.00">&lt; uint8_t &gt;</text>
</a>
</g>
</g>
<!-- Node5&#45;&gt;Node1 -->
<g id="edge4_Node000001_Node000005" class="edge">
<title>Node5&#45;&gt;Node1</title>
<g id="a_edge4_Node000001_Node000005"><a xlink:title=" ">
<path fill="none" stroke="#9a32cd" stroke-dasharray="5,2" d="M483.52,-15.28C506.12,-16.03 531.04,-17.62 553.75,-20.75 559.56,-21.55 565.58,-22.61 571.56,-23.81"/>
<polygon fill="#9a32cd" stroke="#9a32cd" points="483.89,-11.79 473.8,-15.01 483.7,-18.79 483.89,-11.79"/>
</a>
</g>
<text text-anchor="middle" x="521.88" y="-34.25" font-family="Helvetica,sans-Serif" font-size="10.00" fill="grey"> m_rxBuffer</text>
<text text-anchor="middle" x="521.88" y="-23" font-family="Helvetica,sans-Serif" font-size="10.00" fill="grey">m_txBuffer</text>
</g>
<!-- Node6 -->
<g id="Node000006" class="node">
<title>Node6</title>
<g id="a_Node000006"><a xlink:href="class_cpl_1_1_container_1_1_ring_buffer.html" target="_top" xlink:title="This template class implements a Ring Buffer.">
<polygon fill="white" stroke="#666666" points="262.5,-30.5 137,-30.5 137,0 262.5,0 262.5,-30.5"/>
<text text-anchor="start" x="145" y="-17" font-family="Helvetica,sans-Serif" font-size="10.00">Cpl::Container::RingBuffer</text>
<text text-anchor="middle" x="199.75" y="-5.75" font-family="Helvetica,sans-Serif" font-size="10.00">&lt; ITEM &gt;</text>
</a>
</g>
</g>
<!-- Node6&#45;&gt;Node5 -->
<g id="edge5_Node000005_Node000006" class="edge">
<title>Node6&#45;&gt;Node5</title>
<g id="a_edge5_Node000005_Node000006"><a xlink:title=" ">
<path fill="none" stroke="orange" stroke-dasharray="5,2" d="M274.09,-15.25C297.67,-15.25 323.55,-15.25 346.24,-15.25"/>
<polygon fill="orange" stroke="orange" points="274.24,-11.75 264.24,-15.25 274.24,-18.75 274.24,-11.75"/>
</a>
</g>
<text text-anchor="middle" x="304.5" y="-17" font-family="Helvetica,sans-Serif" font-size="10.00" fill="grey"> &lt; uint8_t &gt;</text>
</g>
<!-- Node7&#45;&gt;Node1 -->
<g id="edge6_Node000001_Node000007" class="edge">
<title>Node7&#45;&gt;Node1</title>
<g id="a_edge6_Node000001_Node000007"><a xlink:title=" ">
<path fill="none" stroke="#9a32cd" stroke-dasharray="5,2" d="M766.11,-22.83C763.89,-22.52 761.68,-22.24 759.5,-22 733.99,-19.19 727.26,-19.19 701.75,-22 695.94,-22.64 689.92,-23.55 683.94,-24.63"/>
<polygon fill="#9a32cd" stroke="#9a32cd" points="765.39,-26.26 775.82,-24.39 766.5,-19.35 765.39,-26.26"/>
</a>
</g>
<text text-anchor="middle" x="730.62" y="-24" font-family="Helvetica,sans-Serif" font-size="10.00" fill="grey"> m_mappings</text>
</g>
</g>
</svg>
