<?xml version="1.0" encoding="UTF-8" standalone="no"?>
<!DOCTYPE svg PUBLIC "-//W3C//DTD SVG 1.1//EN"
 "http://www.w3.org/Graphics/SVG/1.1/DTD/svg11.dtd">
<!-- Generated by graphviz version 9.0.0 (20230911.1827)
 -->
<!-- Title: Cpl::Itc::AsyncReturnHandler Pages: 1 -->
<svg width="357pt" height="206pt"
 viewBox="0.00 0.00 357.25 206.25" xmlns="http://www.w3.org/2000/svg" xmlns:xlink="http://www.w3.org/1999/xlink">
<g id="graph0" class="graph" transform="scale(1 1) rotate(0) translate(4 202.25)">
<title>Cpl::Itc::AsyncReturnHandler</title>
<!-- Node1 -->
<g id="Node000001" class="node">
<title>Node1</title>
<g id="a_Node000001"><a xlink:title="This class implements an asynchronous ReturnHandler.">
<polygon fill="#999999" stroke="#666666" points="243.25,-19.25 103.5,-19.25 103.5,0 243.25,0 243.25,-19.25"/>
<text text-anchor="middle" x="173.38" y="-5.75" font-family="Helvetica,sans-Serif" font-size="10.00">Cpl::Itc::AsyncReturnHandler</text>
</a>
</g>
</g>
<!-- Node2 -->
<g id="Node000002" class="node">
<title>Node2</title>
<g id="a_Node000002"><a xlink:href="class_cpl_1_1_itc_1_1_return_handler.html" target="_top" xlink:title="This abstract class represents the action that is executed by a server thread in response to the serv...">
<polygon fill="white" stroke="#666666" points="112.75,-85.75 0,-85.75 0,-66.5 112.75,-66.5 112.75,-85.75"/>
<text text-anchor="middle" x="56.38" y="-72.25" font-family="Helvetica,sans-Serif" font-size="10.00">Cpl::Itc::ReturnHandler</text>
</a>
</g>
</g>
<!-- Node2&#45;&gt;Node1 -->
<g id="edge1_Node000001_Node000002" class="edge">
<title>Node2&#45;&gt;Node1</title>
<g id="a_edge1_Node000001_Node000002"><a xlink:title=" ">
<path fill="none" stroke="#63b8ff" d="M82.91,-60.5C105.67,-47.95 137.73,-30.27 156.94,-19.68"/>
<polygon fill="#63b8ff" stroke="#63b8ff" points="81.28,-57.4 74.22,-65.29 84.66,-63.53 81.28,-57.4"/>
</a>
</g>
</g>
<!-- Node3 -->
<g id="Node000003" class="node">
<title>Node3</title>
<g id="a_Node000003"><a xlink:href="class_cpl_1_1_itc_1_1_post_api.html" target="_top" xlink:title="This abstract class represents the interface used to send messages to a mailbox.">
<polygon fill="white" stroke="#666666" points="215.88,-85.75 130.88,-85.75 130.88,-66.5 215.88,-66.5 215.88,-85.75"/>
<text text-anchor="middle" x="173.38" y="-72.25" font-family="Helvetica,sans-Serif" font-size="10.00">Cpl::Itc::PostApi</text>
</a>
</g>
</g>
<!-- Node3&#45;&gt;Node1 -->
<g id="edge2_Node000001_Node000003" class="edge">
<title>Node3&#45;&gt;Node1</title>
<g id="a_edge2_Node000001_Node000003"><a xlink:title=" ">
<path fill="none" stroke="#9a32cd" stroke-dasharray="5,2" d="M173.38,-54.65C173.38,-42.82 173.38,-28.54 173.38,-19.52"/>
<polygon fill="#9a32cd" stroke="#9a32cd" points="169.88,-54.64 173.38,-64.64 176.88,-54.64 169.88,-54.64"/>
</a>
</g>
<text text-anchor="middle" x="192.88" y="-39" font-family="Helvetica,sans-Serif" font-size="10.00" fill="grey"> m_mbox</text>
</g>
<!-- Node4 -->
<g id="Node000004" class="node">
<title>Node4</title>
<g id="a_Node000004"><a xlink:href="class_cpl_1_1_itc_1_1_message.html" target="_top" xlink:title="This abstract class defines the operations for an ITC message.">
<polygon fill="white" stroke="#666666" points="324.5,-85.75 234.25,-85.75 234.25,-66.5 324.5,-66.5 324.5,-85.75"/>
<text text-anchor="middle" x="279.38" y="-72.25" font-family="Helvetica,sans-Serif" font-size="10.00">Cpl::Itc::Message</text>
</a>
</g>
</g>
<!-- Node4&#45;&gt;Node1 -->
<g id="edge3_Node000001_Node000004" class="edge">
<title>Node4&#45;&gt;Node1</title>
<g id="a_edge3_Node000001_Node000004"><a xlink:title=" ">
<path fill="none" stroke="#9a32cd" stroke-dasharray="5,2" d="M255.01,-60.3C234.44,-47.78 205.65,-30.27 188.33,-19.73"/>
<polygon fill="#9a32cd" stroke="#9a32cd" points="252.98,-63.16 263.34,-65.37 256.62,-57.18 252.98,-63.16"/>
</a>
</g>
<text text-anchor="middle" x="249.62" y="-39" font-family="Helvetica,sans-Serif" font-size="10.00" fill="grey"> m_msg</text>
</g>
<!-- Node5 -->
<g id="Node000005" class="node">
<title>Node5</title>
<g id="a_Node000005"><a xlink:href="class_cpl_1_1_container_1_1_extended_item.html" target="_top" xlink:title="This class is used by the Container classes to implement a various types of DOUBLY linked containers.">
<polygon fill="white" stroke="#666666" points="349.25,-142 209.5,-142 209.5,-122.75 349.25,-122.75 349.25,-142"/>
<text text-anchor="middle" x="279.38" y="-128.5" font-family="Helvetica,sans-Serif" font-size="10.00">Cpl::Container::ExtendedItem</text>
</a>
</g>
</g>
<!-- Node5&#45;&gt;Node4 -->
<g id="edge4_Node000004_Node000005" class="edge">
<title>Node5&#45;&gt;Node4</title>
<g id="a_edge4_Node000004_Node000005"><a xlink:title=" ">
<path fill="none" stroke="#63b8ff" d="M279.38,-111.19C279.38,-102.48 279.38,-92.74 279.38,-85.92"/>
<polygon fill="#63b8ff" stroke="#63b8ff" points="275.88,-110.9 279.38,-120.9 282.88,-110.9 275.88,-110.9"/>
</a>
</g>
</g>
<!-- Node6 -->
<g id="Node000006" class="node">
<title>Node6</title>
<g id="a_Node000006"><a xlink:href="class_cpl_1_1_container_1_1_item.html" target="_top" xlink:title="This class is used by the Container classes to implement a various types of singly linked containers.">
<polygon fill="white" stroke="#666666" points="329.38,-198.25 229.38,-198.25 229.38,-179 329.38,-179 329.38,-198.25"/>
<text text-anchor="middle" x="279.38" y="-184.75" font-family="Helvetica,sans-Serif" font-size="10.00">Cpl::Container::Item</text>
</a>
</g>
</g>
<!-- Node6&#45;&gt;Node5 -->
<g id="edge5_Node000005_Node000006" class="edge">
<title>Node6&#45;&gt;Node5</title>
<g id="a_edge5_Node000005_Node000006"><a xlink:title=" ">
<path fill="none" stroke="#63b8ff" d="M279.38,-167.44C279.38,-158.73 279.38,-148.99 279.38,-142.17"/>
<polygon fill="#63b8ff" stroke="#63b8ff" points="275.88,-167.15 279.38,-177.15 282.88,-167.15 275.88,-167.15"/>
</a>
</g>
</g>
</g>
</svg>
