<?xml version="1.0" encoding="UTF-8" standalone="no"?>
<!DOCTYPE svg PUBLIC "-//W3C//DTD SVG 1.1//EN"
 "http://www.w3.org/Graphics/SVG/1.1/DTD/svg11.dtd">
<!-- Generated by graphviz version 9.0.0 (20230911.1827)
 -->
<!-- Title: Driver::NV::Api Pages: 1 -->
<svg width="241pt" height="150pt"
 viewBox="0.00 0.00 241.00 149.88" xmlns="http://www.w3.org/2000/svg" xmlns:xlink="http://www.w3.org/1999/xlink">
<g id="graph0" class="graph" transform="scale(1 1) rotate(0) translate(4 145.88)">
<title>Driver::NV::Api</title>
<!-- Node1 -->
<g id="Node000001" class="node">
<title>Node1</title>
<g id="a_Node000001"><a xlink:title="This class defines the interface for a platform independent Non&#45;volatile storage driver.">
<polygon fill="#999999" stroke="#666666" points="79,-85.88 0,-85.88 0,-66.62 79,-66.62 79,-85.88"/>
<text text-anchor="middle" x="39.5" y="-72.38" font-family="Helvetica,sans-Serif" font-size="10.00">Driver::NV::Api</text>
</a>
</g>
</g>
<!-- Node2 -->
<g id="Node000002" class="node">
<title>Node2</title>
<g id="a_Node000002"><a xlink:href="class_driver_1_1_n_v_1_1_file_1_1_cpl_1_1_api.html" target="_top" xlink:title="This class implements the Non&#45;volatile storage driver using the Cpl::Io::File interfaces.">
<polygon fill="white" stroke="#666666" points="233,-141.88 115,-141.88 115,-122.62 233,-122.62 233,-141.88"/>
<text text-anchor="middle" x="174" y="-128.38" font-family="Helvetica,sans-Serif" font-size="10.00">Driver::NV::File::Cpl::Api</text>
</a>
</g>
</g>
<!-- Node1&#45;&gt;Node2 -->
<g id="edge1_Node000001_Node000002" class="edge">
<title>Node1&#45;&gt;Node2</title>
<g id="a_edge1_Node000001_Node000002"><a xlink:title=" ">
<path fill="none" stroke="#63b8ff" d="M68.01,-91.71C81.85,-99.11 99.03,-107.75 115,-114.25 122.03,-117.11 129.7,-119.79 137.08,-122.15"/>
<polygon fill="#63b8ff" stroke="#63b8ff" points="69.95,-88.78 59.49,-87.07 66.6,-94.92 69.95,-88.78"/>
</a>
</g>
</g>
<!-- Node3 -->
<g id="Node000003" class="node">
<title>Node3</title>
<g id="a_Node000003"><a xlink:href="class_driver_1_1_n_v_1_1_gang.html" target="_top" xlink:title="This class implements the Non&#45;volatile storage driver using a collection of NV drivers to provide a &#39;...">
<polygon fill="white" stroke="#666666" points="218,-104.88 130,-104.88 130,-85.62 218,-85.62 218,-104.88"/>
<text text-anchor="middle" x="174" y="-91.38" font-family="Helvetica,sans-Serif" font-size="10.00">Driver::NV::Gang</text>
</a>
</g>
</g>
<!-- Node1&#45;&gt;Node3 -->
<g id="edge2_Node000001_Node000003" class="edge">
<title>Node1&#45;&gt;Node3</title>
<g id="a_edge2_Node000001_Node000003"><a xlink:title=" ">
<path fill="none" stroke="#63b8ff" d="M90.32,-83.39C103.32,-85.26 117.23,-87.25 129.86,-89.06"/>
<polygon fill="#63b8ff" stroke="#63b8ff" points="91.07,-79.97 80.68,-82.01 90.08,-86.9 91.07,-79.97"/>
</a>
</g>
</g>
<!-- Node4 -->
<g id="Node000004" class="node">
<title>Node4</title>
<g id="a_Node000004"><a xlink:href="class_driver_1_1_n_v_1_1_null.html" target="_top" xlink:title="This concrete class provides a &#39;null&#39; implementation of the NV Storage interface.">
<polygon fill="white" stroke="#666666" points="215,-67.88 133,-67.88 133,-48.62 215,-48.62 215,-67.88"/>
<text text-anchor="middle" x="174" y="-54.38" font-family="Helvetica,sans-Serif" font-size="10.00">Driver::NV::Null</text>
</a>
</g>
</g>
<!-- Node1&#45;&gt;Node4 -->
<g id="edge3_Node000001_Node000004" class="edge">
<title>Node1&#45;&gt;Node4</title>
<g id="a_edge3_Node000001_Node000004"><a xlink:title=" ">
<path fill="none" stroke="#63b8ff" d="M90.56,-69.45C104.47,-67.56 119.39,-65.53 132.66,-63.73"/>
<polygon fill="#63b8ff" stroke="#63b8ff" points="90.12,-65.98 80.68,-70.79 91.06,-72.91 90.12,-65.98"/>
</a>
</g>
</g>
<!-- Node5 -->
<g id="Node000005" class="node">
<title>Node5</title>
<g id="a_Node000005"><a xlink:href="class_driver_1_1_n_v_1_1_onsemi_1_1_c_a_t24_c512_1_1_api.html" target="_top" xlink:title="This class implements the Non&#45;volatile storage driver for the Onsemi CAT24C512 serial 512Kb (64KB) I2...">
<polygon fill="white" stroke="#666666" points="223.25,-30.5 124.75,-30.5 124.75,0 223.25,0 223.25,-30.5"/>
<text text-anchor="start" x="132.75" y="-17" font-family="Helvetica,sans-Serif" font-size="10.00">Driver::NV::Onsemi</text>
<text text-anchor="middle" x="174" y="-5.75" font-family="Helvetica,sans-Serif" font-size="10.00">::CAT24C512::Api</text>
</a>
</g>
</g>
<!-- Node1&#45;&gt;Node5 -->
<g id="edge4_Node000001_Node000005" class="edge">
<title>Node1&#45;&gt;Node5</title>
<g id="a_edge4_Node000001_Node000005"><a xlink:title=" ">
<path fill="none" stroke="#63b8ff" d="M70.14,-60.95C83.71,-54.09 100.06,-46.04 115,-39.25 121.15,-36.45 127.72,-33.6 134.15,-30.89"/>
<polygon fill="#63b8ff" stroke="#63b8ff" points="68.6,-57.8 61.28,-65.46 71.78,-64.04 68.6,-57.8"/>
</a>
</g>
</g>
</g>
</svg>
