<?xml version="1.0" encoding="UTF-8" standalone="no"?>
<!DOCTYPE svg PUBLIC "-//W3C//DTD SVG 1.1//EN"
 "http://www.w3.org/Graphics/SVG/1.1/DTD/svg11.dtd">
<!-- Generated by graphviz version 9.0.0 (20230911.1827)
 -->
<!-- Title: Cpl::Persistent::ClearAllEntriesRequest Pages: 1 -->
<svg width="573pt" height="66pt"
 viewBox="0.00 0.00 573.00 66.12" xmlns="http://www.w3.org/2000/svg" xmlns:xlink="http://www.w3.org/1999/xlink">
<g id="graph0" class="graph" transform="scale(1 1) rotate(0) translate(4 62.12)">
<title>Cpl::Persistent::ClearAllEntriesRequest</title>
<!-- Node1 -->
<g id="Node000001" class="node">
<title>Node1</title>
<g id="a_Node000001"><a xlink:title="This abstract class define ITC message type and payload for the application to clear/delete all entri...">
<polygon fill="#999999" stroke="#666666" points="117.25,-51.5 0,-51.5 0,-21 117.25,-21 117.25,-51.5"/>
<text text-anchor="start" x="8" y="-38" font-family="Helvetica,sans-Serif" font-size="10.00">Cpl::Persistent::ClearAll</text>
<text text-anchor="middle" x="58.62" y="-26.75" font-family="Helvetica,sans-Serif" font-size="10.00">EntriesRequest</text>
</a>
</g>
</g>
<!-- Node2 -->
<g id="Node000002" class="node">
<title>Node2</title>
<g id="a_Node000002"><a xlink:href="class_cpl_1_1_persistent_1_1_indexed_entry_server.html" target="_top" xlink:title=" ">
<polygon fill="white" stroke="#666666" points="565,-58.12 437.25,-58.12 437.25,-16.38 565,-16.38 565,-58.12"/>
<text text-anchor="start" x="445.25" y="-44.62" font-family="Helvetica,sans-Serif" font-size="10.00">Cpl::Persistent::Indexed</text>
<text text-anchor="start" x="445.25" y="-33.38" font-family="Helvetica,sans-Serif" font-size="10.00">EntryServer&lt; Cpl::Logging</text>
<text text-anchor="middle" x="501.12" y="-22.12" font-family="Helvetica,sans-Serif" font-size="10.00">::EntryData_T &gt;</text>
</a>
</g>
</g>
<!-- Node1&#45;&gt;Node2 -->
<g id="edge1_Node000001_Node000002" class="edge">
<title>Node1&#45;&gt;Node2</title>
<g id="a_edge1_Node000001_Node000002"><a xlink:title=" ">
<path fill="none" stroke="#63b8ff" d="M128.81,-40.47C201.24,-44.26 318.27,-48.61 419.25,-44.25 425.02,-44 431.02,-43.65 437.02,-43.24"/>
<polygon fill="#63b8ff" stroke="#63b8ff" points="129.26,-36.99 119.09,-39.95 128.88,-43.98 129.26,-36.99"/>
</a>
</g>
</g>
<!-- Node3 -->
<g id="Node000003" class="node">
<title>Node3</title>
<g id="a_Node000003"><a xlink:href="class_cpl_1_1_persistent_1_1_indexed_entry_server.html" target="_top" xlink:title="This concrete template class implements the ITC messaging (and Model Point monitoring) needed to prov...">
<polygon fill="white" stroke="#666666" points="271.5,-30.5 154.25,-30.5 154.25,0 271.5,0 271.5,-30.5"/>
<text text-anchor="start" x="162.25" y="-17" font-family="Helvetica,sans-Serif" font-size="10.00">Cpl::Persistent::Indexed</text>
<text text-anchor="middle" x="212.88" y="-5.75" font-family="Helvetica,sans-Serif" font-size="10.00">EntryServer&lt; ENTRY &gt;</text>
</a>
</g>
</g>
<!-- Node1&#45;&gt;Node3 -->
<g id="edge2_Node000001_Node000003" class="edge">
<title>Node1&#45;&gt;Node3</title>
<g id="a_edge2_Node000001_Node000003"><a xlink:title=" ">
<path fill="none" stroke="#63b8ff" d="M128.87,-26.7C137.2,-25.55 145.64,-24.39 153.79,-23.26"/>
<polygon fill="#63b8ff" stroke="#63b8ff" points="128.55,-23.21 119.12,-28.04 129.5,-30.14 128.55,-23.21"/>
</a>
</g>
</g>
<!-- Node3&#45;&gt;Node2 -->
<g id="edge3_Node000003_Node000002" class="edge">
<title>Node3&#45;&gt;Node2</title>
<g id="a_edge3_Node000003_Node000002"><a xlink:title=" ">
<path fill="none" stroke="orange" stroke-dasharray="5,2" d="M283.07,-20.57C329.9,-24.17 391.28,-28.88 436.81,-32.38"/>
<polygon fill="orange" stroke="orange" points="283.55,-17.09 273.31,-19.82 283.01,-24.07 283.55,-17.09"/>
</a>
</g>
<text text-anchor="middle" x="354.38" y="-32" font-family="Helvetica,sans-Serif" font-size="10.00" fill="grey"> &lt; Cpl::Logging::EntryData_T &gt;</text>
</g>
</g>
</svg>
