<?xml version="1.0" encoding="UTF-8" standalone="no"?>
<!DOCTYPE svg PUBLIC "-//W3C//DTD SVG 1.1//EN"
 "http://www.w3.org/Graphics/SVG/1.1/DTD/svg11.dtd">
<!-- Generated by graphviz version 9.0.0 (20230911.1827)
 -->
<!-- Title: Ajax::Dm::MpFanMode Pages: 1 -->
<svg width="274pt" height="364pt"
 viewBox="0.00 0.00 273.50 363.75" xmlns="http://www.w3.org/2000/svg" xmlns:xlink="http://www.w3.org/1999/xlink">
<g id="graph0" class="graph" transform="scale(1 1) rotate(0) translate(4 359.75)">
<title>Ajax::Dm::MpFanMode</title>
<!-- Node1 -->
<g id="Node000001" class="node">
<title>Node1</title>
<g id="a_Node000001"><a xlink:title="Concrete Model Point the FanMode Enum.">
<polygon fill="#999999" stroke="#666666" points="134,-19.25 21.25,-19.25 21.25,0 134,0 134,-19.25"/>
<text text-anchor="middle" x="77.62" y="-5.75" font-family="Helvetica,sans-Serif" font-size="10.00">Ajax::Dm::MpFanMode</text>
</a>
</g>
</g>
<!-- Node2 -->
<g id="Node000002" class="node">
<title>Node2</title>
<g id="a_Node000002"><a xlink:href="class_cpl_1_1_dm_1_1_mp_1_1_enum__.html" target="_top" xlink:title=" ">
<polygon fill="white" stroke="#666666" points="135.88,-98 19.38,-98 19.38,-56.25 135.88,-56.25 135.88,-98"/>
<text text-anchor="start" x="27.38" y="-84.5" font-family="Helvetica,sans-Serif" font-size="10.00">Cpl::Dm::Mp::Enum_</text>
<text text-anchor="start" x="27.38" y="-73.25" font-family="Helvetica,sans-Serif" font-size="10.00">&lt; Ajax::Type::FanMode,</text>
<text text-anchor="middle" x="77.62" y="-62" font-family="Helvetica,sans-Serif" font-size="10.00"> MpFanMode &gt;</text>
</a>
</g>
</g>
<!-- Node2&#45;&gt;Node1 -->
<g id="edge1_Node000001_Node000002" class="edge">
<title>Node2&#45;&gt;Node1</title>
<g id="a_edge1_Node000001_Node000002"><a xlink:title=" ">
<path fill="none" stroke="#63b8ff" d="M77.62,-44.43C77.62,-35.27 77.62,-26 77.62,-19.49"/>
<polygon fill="#63b8ff" stroke="#63b8ff" points="74.13,-44.25 77.63,-54.25 81.13,-44.25 74.13,-44.25"/>
</a>
</g>
</g>
<!-- Node3 -->
<g id="Node000003" class="node">
<title>Node3</title>
<g id="a_Node000003"><a xlink:href="class_cpl_1_1_dm_1_1_model_point_common__.html" target="_top" xlink:title="This concrete class provide common infrastructure for a Model Point.">
<polygon fill="white" stroke="#666666" points="147.25,-243.25 0,-243.25 0,-224 147.25,-224 147.25,-243.25"/>
<text text-anchor="middle" x="73.62" y="-229.75" font-family="Helvetica,sans-Serif" font-size="10.00">Cpl::Dm::ModelPointCommon_</text>
</a>
</g>
</g>
<!-- Node3&#45;&gt;Node2 -->
<g id="edge2_Node000002_Node000003" class="edge">
<title>Node3&#45;&gt;Node2</title>
<g id="a_edge2_Node000002_Node000003"><a xlink:title=" ">
<path fill="none" stroke="#63b8ff" d="M74.14,-212.6C74.91,-183.06 76.33,-128.13 77.1,-98.43"/>
<polygon fill="#63b8ff" stroke="#63b8ff" points="70.65,-212.28 73.89,-222.36 77.65,-212.46 70.65,-212.28"/>
</a>
</g>
</g>
<!-- Node6 -->
<g id="Node000006" class="node">
<title>Node6</title>
<g id="a_Node000006"><a xlink:href="class_cpl_1_1_dm_1_1_mp_1_1_enum__.html" target="_top" xlink:title="This template class provides a mostly concrete implementation for a Model Point who&#39;s data is a BETTE...">
<polygon fill="white" stroke="#666666" points="265.5,-187 89.75,-187 89.75,-156.5 265.5,-156.5 265.5,-187"/>
<text text-anchor="start" x="97.75" y="-173.5" font-family="Helvetica,sans-Serif" font-size="10.00">Cpl::Dm::Mp::Enum_</text>
<text text-anchor="middle" x="177.62" y="-162.25" font-family="Helvetica,sans-Serif" font-size="10.00">&lt; BETTERENUM_TYPE, MPTYPE &gt;</text>
</a>
</g>
</g>
<!-- Node3&#45;&gt;Node6 -->
<g id="edge6_Node000006_Node000003" class="edge">
<title>Node3&#45;&gt;Node6</title>
<g id="a_edge6_Node000006_Node000003"><a xlink:title=" ">
<path fill="none" stroke="#63b8ff" d="M99.29,-217.85C115.46,-208.54 136.26,-196.57 152.36,-187.3"/>
<polygon fill="#63b8ff" stroke="#63b8ff" points="97.65,-214.75 90.73,-222.78 101.14,-220.82 97.65,-214.75"/>
</a>
</g>
</g>
<!-- Node4 -->
<g id="Node000004" class="node">
<title>Node4</title>
<g id="a_Node000004"><a xlink:href="class_cpl_1_1_dm_1_1_model_point.html" target="_top" xlink:title="This mostly abstract class defines the interface for a Model Point.">
<polygon fill="white" stroke="#666666" points="125.12,-299.5 22.12,-299.5 22.12,-280.25 125.12,-280.25 125.12,-299.5"/>
<text text-anchor="middle" x="73.62" y="-286" font-family="Helvetica,sans-Serif" font-size="10.00">Cpl::Dm::ModelPoint</text>
</a>
</g>
</g>
<!-- Node4&#45;&gt;Node3 -->
<g id="edge3_Node000003_Node000004" class="edge">
<title>Node4&#45;&gt;Node3</title>
<g id="a_edge3_Node000003_Node000004"><a xlink:title=" ">
<path fill="none" stroke="#63b8ff" d="M73.62,-268.69C73.62,-259.98 73.62,-250.24 73.62,-243.42"/>
<polygon fill="#63b8ff" stroke="#63b8ff" points="70.13,-268.4 73.63,-278.4 77.13,-268.4 70.13,-268.4"/>
</a>
</g>
</g>
<!-- Node5 -->
<g id="Node000005" class="node">
<title>Node5</title>
<g id="a_Node000005"><a xlink:href="class_cpl_1_1_container_1_1_item.html" target="_top" xlink:title="This class is used by the Container classes to implement a various types of singly linked containers.">
<polygon fill="white" stroke="#666666" points="123.62,-355.75 23.62,-355.75 23.62,-336.5 123.62,-336.5 123.62,-355.75"/>
<text text-anchor="middle" x="73.62" y="-342.25" font-family="Helvetica,sans-Serif" font-size="10.00">Cpl::Container::Item</text>
</a>
</g>
</g>
<!-- Node5&#45;&gt;Node4 -->
<g id="edge4_Node000004_Node000005" class="edge">
<title>Node5&#45;&gt;Node4</title>
<g id="a_edge4_Node000004_Node000005"><a xlink:title=" ">
<path fill="none" stroke="#63b8ff" d="M73.62,-324.94C73.62,-316.23 73.62,-306.49 73.62,-299.67"/>
<polygon fill="#63b8ff" stroke="#63b8ff" points="70.13,-324.65 73.63,-334.65 77.13,-324.65 70.13,-324.65"/>
</a>
</g>
</g>
<!-- Node6&#45;&gt;Node2 -->
<g id="edge5_Node000002_Node000006" class="edge">
<title>Node6&#45;&gt;Node2</title>
<g id="a_edge5_Node000002_Node000006"><a xlink:title=" ">
<path fill="none" stroke="orange" stroke-dasharray="5,2" d="M153.91,-148.78C137.39,-133.49 115.53,-113.24 99.45,-98.34"/>
<polygon fill="orange" stroke="orange" points="151.17,-151.02 160.89,-155.25 155.93,-145.89 151.17,-151.02"/>
</a>
</g>
<text text-anchor="start" x="141.62" y="-129" font-family="Helvetica,sans-Serif" font-size="10.00" fill="grey"> &lt; Ajax::Type::FanMode,</text>
<text text-anchor="middle" x="193" y="-117.75" font-family="Helvetica,sans-Serif" font-size="10.00" fill="grey"> MpFanMode &gt;</text>
</g>
</g>
</svg>
