<?xml version="1.0" encoding="UTF-8" standalone="no"?>
<!DOCTYPE svg PUBLIC "-//W3C//DTD SVG 1.1//EN"
 "http://www.w3.org/Graphics/SVG/1.1/DTD/svg11.dtd">
<!-- Generated by graphviz version 9.0.0 (20230911.1827)
 -->
<!-- Title: Cpl::Text::StringItem Pages: 1 -->
<svg width="251pt" height="263pt"
 viewBox="0.00 0.00 251.38 262.50" xmlns="http://www.w3.org/2000/svg" xmlns:xlink="http://www.w3.org/1999/xlink">
<g id="graph0" class="graph" transform="scale(1 1) rotate(0) translate(4 258.5)">
<title>Cpl::Text::StringItem</title>
<!-- Node1 -->
<g id="Node000001" class="node">
<title>Node1</title>
<g id="a_Node000001"><a xlink:title="This partially concrete provides a wrapper class that allows a String object to be stored directly in...">
<polygon fill="#999999" stroke="#666666" points="182.38,-19.25 79.38,-19.25 79.38,0 182.38,0 182.38,-19.25"/>
<text text-anchor="middle" x="130.88" y="-5.75" font-family="Helvetica,sans-Serif" font-size="10.00">Cpl::Text::StringItem</text>
</a>
</g>
</g>
<!-- Node2 -->
<g id="Node000002" class="node">
<title>Node2</title>
<g id="a_Node000002"><a xlink:href="class_cpl_1_1_container_1_1_map_item.html" target="_top" xlink:title="This abstract class represents a item that can be contained in an Map (aka a sorted list implemented ...">
<polygon fill="white" stroke="#666666" points="131.25,-85.75 12.5,-85.75 12.5,-66.5 131.25,-66.5 131.25,-85.75"/>
<text text-anchor="middle" x="71.88" y="-72.25" font-family="Helvetica,sans-Serif" font-size="10.00">Cpl::Container::MapItem</text>
</a>
</g>
</g>
<!-- Node2&#45;&gt;Node1 -->
<g id="edge1_Node000001_Node000002" class="edge">
<title>Node2&#45;&gt;Node1</title>
<g id="a_edge1_Node000001_Node000002"><a xlink:title=" ">
<path fill="none" stroke="#63b8ff" d="M87.57,-57.97C98.88,-45.6 113.7,-29.4 122.74,-19.52"/>
<polygon fill="#63b8ff" stroke="#63b8ff" points="85.27,-55.3 81.1,-65.04 90.43,-60.02 85.27,-55.3"/>
</a>
</g>
</g>
<!-- Node3 -->
<g id="Node000003" class="node">
<title>Node3</title>
<g id="a_Node000003"><a xlink:href="class_cpl_1_1_container_1_1_dict_item.html" target="_top" xlink:title="This abstract class represents a item that can be contained in Dictionary.">
<polygon fill="white" stroke="#666666" points="128.5,-142 11.25,-142 11.25,-122.75 128.5,-122.75 128.5,-142"/>
<text text-anchor="middle" x="69.88" y="-128.5" font-family="Helvetica,sans-Serif" font-size="10.00">Cpl::Container::DictItem</text>
</a>
</g>
</g>
<!-- Node3&#45;&gt;Node2 -->
<g id="edge2_Node000002_Node000003" class="edge">
<title>Node3&#45;&gt;Node2</title>
<g id="a_edge2_Node000002_Node000003"><a xlink:title=" ">
<path fill="none" stroke="#63b8ff" d="M70.62,-111.19C70.94,-102.48 71.3,-92.74 71.55,-85.92"/>
<polygon fill="#63b8ff" stroke="#63b8ff" points="67.13,-110.78 70.26,-120.9 74.13,-111.04 67.13,-110.78"/>
</a>
</g>
</g>
<!-- Node4 -->
<g id="Node000004" class="node">
<title>Node4</title>
<g id="a_Node000004"><a xlink:href="class_cpl_1_1_container_1_1_extended_item.html" target="_top" xlink:title="This class is used by the Container classes to implement a various types of DOUBLY linked containers.">
<polygon fill="white" stroke="#666666" points="139.75,-198.25 0,-198.25 0,-179 139.75,-179 139.75,-198.25"/>
<text text-anchor="middle" x="69.88" y="-184.75" font-family="Helvetica,sans-Serif" font-size="10.00">Cpl::Container::ExtendedItem</text>
</a>
</g>
</g>
<!-- Node4&#45;&gt;Node3 -->
<g id="edge3_Node000003_Node000004" class="edge">
<title>Node4&#45;&gt;Node3</title>
<g id="a_edge3_Node000003_Node000004"><a xlink:title=" ">
<path fill="none" stroke="#63b8ff" d="M69.88,-167.44C69.88,-158.73 69.88,-148.99 69.88,-142.17"/>
<polygon fill="#63b8ff" stroke="#63b8ff" points="66.38,-167.15 69.88,-177.15 73.38,-167.15 66.38,-167.15"/>
</a>
</g>
</g>
<!-- Node5 -->
<g id="Node000005" class="node">
<title>Node5</title>
<g id="a_Node000005"><a xlink:href="class_cpl_1_1_container_1_1_item.html" target="_top" xlink:title="This class is used by the Container classes to implement a various types of singly linked containers.">
<polygon fill="white" stroke="#666666" points="119.88,-254.5 19.88,-254.5 19.88,-235.25 119.88,-235.25 119.88,-254.5"/>
<text text-anchor="middle" x="69.88" y="-241" font-family="Helvetica,sans-Serif" font-size="10.00">Cpl::Container::Item</text>
</a>
</g>
</g>
<!-- Node5&#45;&gt;Node4 -->
<g id="edge4_Node000004_Node000005" class="edge">
<title>Node5&#45;&gt;Node4</title>
<g id="a_edge4_Node000004_Node000005"><a xlink:title=" ">
<path fill="none" stroke="#63b8ff" d="M69.88,-223.69C69.88,-214.98 69.88,-205.24 69.88,-198.42"/>
<polygon fill="#63b8ff" stroke="#63b8ff" points="66.38,-223.4 69.88,-233.4 73.38,-223.4 66.38,-223.4"/>
</a>
</g>
</g>
<!-- Node6 -->
<g id="Node000006" class="node">
<title>Node6</title>
<g id="a_Node000006"><a xlink:href="class_cpl_1_1_text_1_1_string.html" target="_top" xlink:title="This abstract class defines the operations that can be before on a NULL terminated string.">
<polygon fill="white" stroke="#666666" points="235.62,-85.75 152.12,-85.75 152.12,-66.5 235.62,-66.5 235.62,-85.75"/>
<text text-anchor="middle" x="193.88" y="-72.25" font-family="Helvetica,sans-Serif" font-size="10.00">Cpl::Text::String</text>
</a>
</g>
</g>
<!-- Node6&#45;&gt;Node1 -->
<g id="edge5_Node000001_Node000006" class="edge">
<title>Node6&#45;&gt;Node1</title>
<g id="a_edge5_Node000001_Node000006"><a xlink:title=" ">
<path fill="none" stroke="#9a32cd" stroke-dasharray="5,2" d="M177.12,-57.97C165.04,-45.6 149.21,-29.4 139.56,-19.52"/>
<polygon fill="#9a32cd" stroke="#9a32cd" points="174.57,-60.37 184.06,-65.07 179.57,-55.47 174.57,-60.37"/>
</a>
</g>
<text text-anchor="middle" x="193.88" y="-39" font-family="Helvetica,sans-Serif" font-size="10.00" fill="grey"> m_myString</text>
</g>
<!-- Node7 -->
<g id="Node000007" class="node">
<title>Node7</title>
<g id="a_Node000007"><a xlink:href="class_cpl_1_1_container_1_1_key.html" target="_top" xlink:title="This abstract class defines the interface that a contained object must support if it has comparable k...">
<polygon fill="white" stroke="#666666" points="243.38,-142 146.38,-142 146.38,-122.75 243.38,-122.75 243.38,-142"/>
<text text-anchor="middle" x="194.88" y="-128.5" font-family="Helvetica,sans-Serif" font-size="10.00">Cpl::Container::Key</text>
</a>
</g>
</g>
<!-- Node7&#45;&gt;Node6 -->
<g id="edge6_Node000006_Node000007" class="edge">
<title>Node7&#45;&gt;Node6</title>
<g id="a_edge6_Node000006_Node000007"><a xlink:title=" ">
<path fill="none" stroke="#63b8ff" d="M194.5,-111.19C194.34,-102.48 194.16,-92.74 194.04,-85.92"/>
<polygon fill="#63b8ff" stroke="#63b8ff" points="191,-110.97 194.68,-120.9 198,-110.84 191,-110.97"/>
</a>
</g>
</g>
</g>
</svg>
