<?xml version="1.0" encoding="UTF-8" standalone="no"?>
<!DOCTYPE svg PUBLIC "-//W3C//DTD SVG 1.1//EN"
 "http://www.w3.org/Graphics/SVG/1.1/DTD/svg11.dtd">
<!-- Generated by graphviz version 9.0.0 (20230911.1827)
 -->
<!-- Title: Driver::NV::Gang Pages: 1 -->
<svg width="97pt" height="94pt"
 viewBox="0.00 0.00 97.00 93.75" xmlns="http://www.w3.org/2000/svg" xmlns:xlink="http://www.w3.org/1999/xlink">
<g id="graph0" class="graph" transform="scale(1 1) rotate(0) translate(4 89.75)">
<title>Driver::NV::Gang</title>
<!-- Node1 -->
<g id="Node000001" class="node">
<title>Node1</title>
<g id="a_Node000001"><a xlink:title="This class implements the Non&#45;volatile storage driver using a collection of NV drivers to provide a &#39;...">
<polygon fill="#999999" stroke="#666666" points="88,-19.25 0,-19.25 0,0 88,0 88,-19.25"/>
<text text-anchor="middle" x="44" y="-5.75" font-family="Helvetica,sans-Serif" font-size="10.00">Driver::NV::Gang</text>
</a>
</g>
</g>
<!-- Node2 -->
<g id="Node000002" class="node">
<title>Node2</title>
<g id="a_Node000002"><a xlink:href="class_driver_1_1_n_v_1_1_api.html" target="_top" xlink:title="This class defines the interface for a platform independent Non&#45;volatile storage driver.">
<polygon fill="white" stroke="#666666" points="83.5,-85.75 4.5,-85.75 4.5,-66.5 83.5,-66.5 83.5,-85.75"/>
<text text-anchor="middle" x="44" y="-72.25" font-family="Helvetica,sans-Serif" font-size="10.00">Driver::NV::Api</text>
</a>
</g>
</g>
<!-- Node2&#45;&gt;Node1 -->
<g id="edge1_Node000001_Node000002" class="edge">
<title>Node2&#45;&gt;Node1</title>
<g id="a_edge1_Node000001_Node000002"><a xlink:title=" ">
<path fill="none" stroke="#63b8ff" d="M42.25,-54.83C41.95,-49.14 41.79,-42.96 42,-37.25 42.22,-31.32 42.72,-24.66 43.17,-19.49"/>
<polygon fill="#63b8ff" stroke="#63b8ff" points="38.75,-54.87 42.96,-64.59 45.73,-54.36 38.75,-54.87"/>
</a>
</g>
</g>
<!-- Node2&#45;&gt;Node1 -->
<g id="edge2_Node000001_Node000002" class="edge">
<title>Node2&#45;&gt;Node1</title>
<g id="a_edge2_Node000001_Node000002"><a xlink:title=" ">
<path fill="none" stroke="#9a32cd" stroke-dasharray="5,2" d="M44,-54.65C44,-42.82 44,-28.54 44,-19.52"/>
<polygon fill="#9a32cd" stroke="#9a32cd" points="40.5,-54.64 44,-64.64 47.5,-54.64 40.5,-54.64"/>
</a>
</g>
<text text-anchor="middle" x="66.5" y="-39" font-family="Helvetica,sans-Serif" font-size="10.00" fill="grey"> m_drivers</text>
</g>
</g>
</svg>
