<?xml version="1.0" encoding="UTF-8" standalone="no"?>
<!DOCTYPE svg PUBLIC "-//W3C//DTD SVG 1.1//EN"
 "http://www.w3.org/Graphics/SVG/1.1/DTD/svg11.dtd">
<!-- Generated by graphviz version 9.0.0 (20230911.1827)
 -->
<!-- Title: Cpl::Dm::Mp::Int32 Pages: 1 -->
<svg width="1459pt" height="199pt"
 viewBox="0.00 0.00 1459.25 199.25" xmlns="http://www.w3.org/2000/svg" xmlns:xlink="http://www.w3.org/1999/xlink">
<g id="graph0" class="graph" transform="scale(1 1) rotate(0) translate(4 195.25)">
<title>Cpl::Dm::Mp::Int32</title>
<!-- Node1 -->
<g id="Node000001" class="node">
<title>Node1</title>
<g id="a_Node000001"><a xlink:title="This class provides a concrete implementation for a Point who&#39;s data is a int32_t.">
<polygon fill="#999999" stroke="#666666" points="1451.25,-149.25 1357.25,-149.25 1357.25,-130 1451.25,-130 1451.25,-149.25"/>
<text text-anchor="middle" x="1404.25" y="-135.75" font-family="Helvetica,sans-Serif" font-size="10.00">Cpl::Dm::Mp::Int32</text>
</a>
</g>
</g>
<!-- Node2 -->
<g id="Node000002" class="node">
<title>Node2</title>
<g id="a_Node000002"><a xlink:href="class_cpl_1_1_dm_1_1_mp_1_1_numeric.html" target="_top" xlink:title=" ">
<polygon fill="white" stroke="#666666" points="1320.25,-154.88 1211.25,-154.88 1211.25,-124.38 1320.25,-124.38 1320.25,-154.88"/>
<text text-anchor="start" x="1219.25" y="-141.38" font-family="Helvetica,sans-Serif" font-size="10.00">Cpl::Dm::Mp::Numeric</text>
<text text-anchor="middle" x="1265.75" y="-130.12" font-family="Helvetica,sans-Serif" font-size="10.00">&lt; int32_t, Int32 &gt;</text>
</a>
</g>
</g>
<!-- Node2&#45;&gt;Node1 -->
<g id="edge1_Node000001_Node000002" class="edge">
<title>Node2&#45;&gt;Node1</title>
<g id="a_edge1_Node000001_Node000002"><a xlink:title=" ">
<path fill="none" stroke="#63b8ff" d="M1332.01,-139.62C1340.36,-139.62 1348.78,-139.62 1356.75,-139.62"/>
<polygon fill="#63b8ff" stroke="#63b8ff" points="1332.21,-136.13 1322.21,-139.63 1332.21,-143.13 1332.21,-136.13"/>
</a>
</g>
</g>
<!-- Node3 -->
<g id="Node000003" class="node">
<title>Node3</title>
<g id="a_Node000003"><a xlink:href="class_cpl_1_1_dm_1_1_model_point_common__.html" target="_top" xlink:title="This concrete class provide common infrastructure for a Model Point.">
<polygon fill="white" stroke="#666666" points="933.25,-148.25 786,-148.25 786,-129 933.25,-129 933.25,-148.25"/>
<text text-anchor="middle" x="859.62" y="-134.75" font-family="Helvetica,sans-Serif" font-size="10.00">Cpl::Dm::ModelPointCommon_</text>
</a>
</g>
</g>
<!-- Node3&#45;&gt;Node2 -->
<g id="edge2_Node000002_Node000003" class="edge">
<title>Node3&#45;&gt;Node2</title>
<g id="a_edge2_Node000002_Node000003"><a xlink:title=" ">
<path fill="none" stroke="#63b8ff" d="M944.62,-141.41C946.85,-141.49 949.07,-141.56 951.25,-141.62 1058.78,-145.01 1085.8,-151.87 1193.25,-146.62 1198.98,-146.35 1204.96,-145.94 1210.91,-145.46"/>
<polygon fill="#63b8ff" stroke="#63b8ff" points="944.96,-137.92 934.85,-141.1 944.73,-144.92 944.96,-137.92"/>
</a>
</g>
</g>
<!-- Node13 -->
<g id="Node000013" class="node">
<title>Node13</title>
<g id="a_Node000013"><a xlink:href="class_cpl_1_1_dm_1_1_mp_1_1_numeric.html" target="_top" xlink:title="This template class provides a mostly concrete implementation for a Model Point who&#39;s data is a C num...">
<polygon fill="white" stroke="#666666" points="1100.25,-132.88 970.25,-132.88 970.25,-102.38 1100.25,-102.38 1100.25,-132.88"/>
<text text-anchor="start" x="978.25" y="-119.38" font-family="Helvetica,sans-Serif" font-size="10.00">Cpl::Dm::Mp::Numeric</text>
<text text-anchor="middle" x="1035.25" y="-108.12" font-family="Helvetica,sans-Serif" font-size="10.00">&lt; ELEMTYPE, MPTYPE &gt;</text>
</a>
</g>
</g>
<!-- Node3&#45;&gt;Node13 -->
<g id="edge13_Node000013_Node000003" class="edge">
<title>Node3&#45;&gt;Node13</title>
<g id="a_edge13_Node000013_Node000003"><a xlink:title=" ">
<path fill="none" stroke="#63b8ff" d="M944.89,-128.43C953.28,-127.42 961.7,-126.4 969.84,-125.42"/>
<polygon fill="#63b8ff" stroke="#63b8ff" points="944.51,-124.95 935.01,-129.63 945.35,-131.9 944.51,-124.95"/>
</a>
</g>
</g>
<!-- Node4 -->
<g id="Node000004" class="node">
<title>Node4</title>
<g id="a_Node000004"><a xlink:href="class_cpl_1_1_dm_1_1_model_point.html" target="_top" xlink:title="This mostly abstract class defines the interface for a Model Point.">
<polygon fill="white" stroke="#666666" points="652.5,-191.25 549.5,-191.25 549.5,-172 652.5,-172 652.5,-191.25"/>
<text text-anchor="middle" x="601" y="-177.75" font-family="Helvetica,sans-Serif" font-size="10.00">Cpl::Dm::ModelPoint</text>
</a>
</g>
</g>
<!-- Node4&#45;&gt;Node3 -->
<g id="edge3_Node000003_Node000004" class="edge">
<title>Node4&#45;&gt;Node3</title>
<g id="a_edge3_Node000003_Node000004"><a xlink:title=" ">
<path fill="none" stroke="#63b8ff" d="M663.88,-171.26C704.76,-164.41 758.06,-155.48 798.56,-148.69"/>
<polygon fill="#63b8ff" stroke="#63b8ff" points="663.48,-167.77 654.19,-172.88 664.63,-174.68 663.48,-167.77"/>
</a>
</g>
</g>
<!-- Node5 -->
<g id="Node000005" class="node">
<title>Node5</title>
<g id="a_Node000005"><a xlink:href="class_cpl_1_1_container_1_1_item.html" target="_top" xlink:title="This class is used by the Container classes to implement a various types of singly linked containers.">
<polygon fill="white" stroke="#666666" points="363.5,-191.25 263.5,-191.25 263.5,-172 363.5,-172 363.5,-191.25"/>
<text text-anchor="middle" x="313.5" y="-177.75" font-family="Helvetica,sans-Serif" font-size="10.00">Cpl::Container::Item</text>
</a>
</g>
</g>
<!-- Node5&#45;&gt;Node4 -->
<g id="edge4_Node000004_Node000005" class="edge">
<title>Node5&#45;&gt;Node4</title>
<g id="a_edge4_Node000004_Node000005"><a xlink:title=" ">
<path fill="none" stroke="#63b8ff" d="M375.26,-181.62C427.04,-181.62 500.6,-181.62 549.28,-181.62"/>
<polygon fill="#63b8ff" stroke="#63b8ff" points="375.42,-178.13 365.42,-181.63 375.42,-185.13 375.42,-178.13"/>
</a>
</g>
</g>
<!-- Node6 -->
<g id="Node000006" class="node">
<title>Node6</title>
<g id="a_Node000006"><a xlink:href="class_cpl_1_1_container_1_1_d_list.html" target="_top" xlink:title=" ">
<polygon fill="white" stroke="#666666" points="666.75,-153.88 535.25,-153.88 535.25,-123.38 666.75,-123.38 666.75,-153.88"/>
<text text-anchor="start" x="543.25" y="-140.38" font-family="Helvetica,sans-Serif" font-size="10.00">Cpl::Container::DList</text>
<text text-anchor="middle" x="601" y="-129.12" font-family="Helvetica,sans-Serif" font-size="10.00">&lt; Cpl::Dm::SubscriberApi &gt;</text>
</a>
</g>
</g>
<!-- Node6&#45;&gt;Node3 -->
<g id="edge5_Node000003_Node000006" class="edge">
<title>Node6&#45;&gt;Node3</title>
<g id="a_edge5_Node000003_Node000006"><a xlink:title=" ">
<path fill="none" stroke="#9a32cd" stroke-dasharray="5,2" d="M678.39,-138.62C712.42,-138.62 752.32,-138.62 785.91,-138.62"/>
<polygon fill="#9a32cd" stroke="#9a32cd" points="678.6,-135.13 668.6,-138.63 678.6,-142.13 678.6,-135.13"/>
</a>
</g>
<text text-anchor="middle" x="726.38" y="-140.38" font-family="Helvetica,sans-Serif" font-size="10.00" fill="grey"> m_subscribers</text>
</g>
<!-- Node7 -->
<g id="Node000007" class="node">
<title>Node7</title>
<g id="a_Node000007"><a xlink:href="class_cpl_1_1_container_1_1_d_list.html" target="_top" xlink:title="This template class implements a Doubly linked list which maintains the ordering imposed on it by the...">
<polygon fill="white" stroke="#666666" points="365.38,-153.88 261.62,-153.88 261.62,-123.38 365.38,-123.38 365.38,-153.88"/>
<text text-anchor="start" x="269.62" y="-140.38" font-family="Helvetica,sans-Serif" font-size="10.00">Cpl::Container::DList</text>
<text text-anchor="middle" x="313.5" y="-129.12" font-family="Helvetica,sans-Serif" font-size="10.00">&lt; ITEM &gt;</text>
</a>
</g>
</g>
<!-- Node7&#45;&gt;Node6 -->
<g id="edge6_Node000006_Node000007" class="edge">
<title>Node7&#45;&gt;Node6</title>
<g id="a_edge6_Node000006_Node000007"><a xlink:title=" ">
<path fill="none" stroke="orange" stroke-dasharray="5,2" d="M377.38,-138.62C424.13,-138.62 487.75,-138.62 535,-138.62"/>
<polygon fill="orange" stroke="orange" points="377.38,-135.13 367.38,-138.63 377.38,-142.13 377.38,-135.13"/>
</a>
</g>
<text text-anchor="middle" x="458.38" y="-140.38" font-family="Helvetica,sans-Serif" font-size="10.00" fill="grey"> &lt; Cpl::Dm::SubscriberApi &gt;</text>
</g>
<!-- Node8 -->
<g id="Node000008" class="node">
<title>Node8</title>
<g id="a_Node000008"><a xlink:href="class_cpl_1_1_dm_1_1_model_database.html" target="_top" xlink:title="This concrete class implements a simple Model Database.">
<polygon fill="white" stroke="#666666" points="661.88,-84.25 540.12,-84.25 540.12,-65 661.88,-65 661.88,-84.25"/>
<text text-anchor="middle" x="601" y="-70.75" font-family="Helvetica,sans-Serif" font-size="10.00">Cpl::Dm::ModelDatabase</text>
</a>
</g>
</g>
<!-- Node8&#45;&gt;Node3 -->
<g id="edge7_Node000003_Node000008" class="edge">
<title>Node8&#45;&gt;Node3</title>
<g id="a_edge7_Node000003_Node000008"><a xlink:title=" ">
<path fill="none" stroke="#9a32cd" stroke-dasharray="5,2" d="M653.26,-87.41C701.71,-99.49 773.46,-117.39 818.06,-128.51"/>
<polygon fill="#9a32cd" stroke="#9a32cd" points="654.4,-84.09 643.85,-85.06 652.7,-90.88 654.4,-84.09"/>
</a>
</g>
<text text-anchor="middle" x="726.38" y="-115.38" font-family="Helvetica,sans-Serif" font-size="10.00" fill="grey"> m_modelDatabase</text>
</g>
<!-- Node9 -->
<g id="Node000009" class="node">
<title>Node9</title>
<g id="a_Node000009"><a xlink:href="class_cpl_1_1_dm_1_1_model_database_api.html" target="_top" xlink:title="This class defines the basic operations that can be performed on a Model Base.">
<polygon fill="white" stroke="#666666" points="381.5,-105.25 245.5,-105.25 245.5,-86 381.5,-86 381.5,-105.25"/>
<text text-anchor="middle" x="313.5" y="-91.75" font-family="Helvetica,sans-Serif" font-size="10.00">Cpl::Dm::ModelDatabaseApi</text>
</a>
</g>
</g>
<!-- Node9&#45;&gt;Node8 -->
<g id="edge8_Node000008_Node000009" class="edge">
<title>Node9&#45;&gt;Node8</title>
<g id="a_edge8_Node000008_Node000009"><a xlink:title=" ">
<path fill="none" stroke="#63b8ff" d="M393.02,-89.85C439.41,-86.44 497.22,-82.18 539.95,-79.04"/>
<polygon fill="#63b8ff" stroke="#63b8ff" points="393.02,-86.34 383.31,-90.56 393.54,-93.32 393.02,-86.34"/>
</a>
</g>
</g>
<!-- Node10 -->
<g id="Node000010" class="node">
<title>Node10</title>
<g id="a_Node000010"><a xlink:href="class_cpl_1_1_container_1_1_s_list.html" target="_top" xlink:title=" ">
<polygon fill="white" stroke="#666666" points="373.25,-67.88 253.75,-67.88 253.75,-37.38 373.25,-37.38 373.25,-67.88"/>
<text text-anchor="start" x="261.75" y="-54.38" font-family="Helvetica,sans-Serif" font-size="10.00">Cpl::Container::SList</text>
<text text-anchor="middle" x="313.5" y="-43.12" font-family="Helvetica,sans-Serif" font-size="10.00">&lt; Cpl::Dm::ModelPoint &gt;</text>
</a>
</g>
</g>
<!-- Node10&#45;&gt;Node8 -->
<g id="edge9_Node000008_Node000010" class="edge">
<title>Node10&#45;&gt;Node8</title>
<g id="a_edge9_Node000008_Node000010"><a xlink:title=" ">
<path fill="none" stroke="#9a32cd" stroke-dasharray="5,2" d="M385.05,-56.22C424.06,-58.42 473.37,-61.55 517.25,-65.38 524.59,-66.02 532.3,-66.77 539.92,-67.56"/>
<polygon fill="#9a32cd" stroke="#9a32cd" points="385.24,-52.72 375.07,-55.66 384.86,-59.71 385.24,-52.72"/>
</a>
</g>
<text text-anchor="middle" x="458.38" y="-66.38" font-family="Helvetica,sans-Serif" font-size="10.00" fill="grey"> m_list</text>
</g>
<!-- Node11 -->
<g id="Node000011" class="node">
<title>Node11</title>
<g id="a_Node000011"><a xlink:href="class_cpl_1_1_container_1_1_s_list.html" target="_top" xlink:title="This template class implements a singly linked list which maintains the ordering imposed on it by the...">
<polygon fill="white" stroke="#666666" points="103.75,-67.88 0,-67.88 0,-37.38 103.75,-37.38 103.75,-67.88"/>
<text text-anchor="start" x="8" y="-54.38" font-family="Helvetica,sans-Serif" font-size="10.00">Cpl::Container::SList</text>
<text text-anchor="middle" x="51.88" y="-43.12" font-family="Helvetica,sans-Serif" font-size="10.00">&lt; ITEM &gt;</text>
</a>
</g>
</g>
<!-- Node11&#45;&gt;Node10 -->
<g id="edge10_Node000010_Node000011" class="edge">
<title>Node11&#45;&gt;Node10</title>
<g id="a_edge10_Node000010_Node000011"><a xlink:title=" ">
<path fill="none" stroke="orange" stroke-dasharray="5,2" d="M115.64,-52.62C157.61,-52.62 212.46,-52.62 253.6,-52.62"/>
<polygon fill="orange" stroke="orange" points="115.68,-49.13 105.68,-52.63 115.68,-56.13 115.68,-49.13"/>
</a>
</g>
<text text-anchor="middle" x="174.62" y="-54.38" font-family="Helvetica,sans-Serif" font-size="10.00" fill="grey"> &lt; Cpl::Dm::ModelPoint &gt;</text>
</g>
<!-- Node12 -->
<g id="Node000012" class="node">
<title>Node12</title>
<g id="a_Node000012"><a xlink:href="class_cpl_1_1_system_1_1_mutex.html" target="_top" xlink:title="This mutex class defines the interface for a mutex that has &quot;recursive&quot; semantics.">
<polygon fill="white" stroke="#666666" points="362.75,-19.25 264.25,-19.25 264.25,0 362.75,0 362.75,-19.25"/>
<text text-anchor="middle" x="313.5" y="-5.75" font-family="Helvetica,sans-Serif" font-size="10.00">Cpl::System::Mutex</text>
</a>
</g>
</g>
<!-- Node12&#45;&gt;Node8 -->
<g id="edge11_Node000008_Node000012" class="edge">
<title>Node12&#45;&gt;Node8</title>
<g id="a_edge11_Node000008_Node000012"><a xlink:title=" ">
<path fill="none" stroke="#9a32cd" stroke-dasharray="5,2" d="M374.45,-15.4C415.22,-20.2 470.1,-28.39 517.25,-41.38 538.89,-47.33 562.57,-57.21 579.03,-64.65"/>
<polygon fill="#9a32cd" stroke="#9a32cd" points="374.92,-11.93 364.58,-14.28 374.12,-18.89 374.92,-11.93"/>
</a>
</g>
<text text-anchor="middle" x="458.38" y="-43.38" font-family="Helvetica,sans-Serif" font-size="10.00" fill="grey"> m_lock</text>
</g>
<!-- Node13&#45;&gt;Node2 -->
<g id="edge12_Node000002_Node000013" class="edge">
<title>Node13&#45;&gt;Node2</title>
<g id="a_edge12_Node000002_Node000013"><a xlink:title=" ">
<path fill="none" stroke="orange" stroke-dasharray="5,2" d="M1111.77,-124.9C1144.23,-128.02 1181.42,-131.6 1211.01,-134.45"/>
<polygon fill="orange" stroke="orange" points="1112.3,-121.43 1102.01,-123.96 1111.63,-128.4 1112.3,-121.43"/>
</a>
</g>
<text text-anchor="middle" x="1155.75" y="-133.38" font-family="Helvetica,sans-Serif" font-size="10.00" fill="grey"> &lt; int32_t, Int32 &gt;</text>
</g>
</g>
</svg>
