<?xml version="1.0" encoding="UTF-8" standalone="no"?>
<!DOCTYPE svg PUBLIC "-//W3C//DTD SVG 1.1//EN"
 "http://www.w3.org/Graphics/SVG/1.1/DTD/svg11.dtd">
<!-- Generated by graphviz version 9.0.0 (20230911.1827)
 -->
<!-- Title: Cpl::Text::DFString Pages: 1 -->
<svg width="105pt" height="248pt"
 viewBox="0.00 0.00 105.00 248.25" xmlns="http://www.w3.org/2000/svg" xmlns:xlink="http://www.w3.org/1999/xlink">
<g id="graph0" class="graph" transform="scale(1 1) rotate(0) translate(4 244.25)">
<title>Cpl::Text::DFString</title>
<!-- Node1 -->
<g id="Node000001" class="node">
<title>Node1</title>
<g id="a_Node000001"><a xlink:title="This concrete class is a mix of FString and a DString &#45; the initial memory is dynamically allocated &#45;...">
<polygon fill="#999999" stroke="#666666" points="96.62,-19.25 0.38,-19.25 0.38,0 96.62,0 96.62,-19.25"/>
<text text-anchor="middle" x="48.5" y="-5.75" font-family="Helvetica,sans-Serif" font-size="10.00">Cpl::Text::DFString</text>
</a>
</g>
</g>
<!-- Node2 -->
<g id="Node000002" class="node">
<title>Node2</title>
<g id="a_Node000002"><a xlink:href="class_cpl_1_1_text_1_1_f_string__.html" target="_top" xlink:title="This mostly concrete class implements a &quot;fixed storage&quot; String Type.">
<polygon fill="white" stroke="#666666" points="95.88,-74.5 1.12,-74.5 1.12,-55.25 95.88,-55.25 95.88,-74.5"/>
<text text-anchor="middle" x="48.5" y="-61" font-family="Helvetica,sans-Serif" font-size="10.00">Cpl::Text::FString_</text>
</a>
</g>
</g>
<!-- Node2&#45;&gt;Node1 -->
<g id="edge1_Node000001_Node000002" class="edge">
<title>Node2&#45;&gt;Node1</title>
<g id="a_edge1_Node000001_Node000002"><a xlink:title=" ">
<path fill="none" stroke="#63b8ff" d="M48.5,-43.63C48.5,-35.34 48.5,-26.17 48.5,-19.61"/>
<polygon fill="#63b8ff" stroke="#63b8ff" points="45,-43.57 48.5,-53.57 52,-43.57 45,-43.57"/>
</a>
</g>
</g>
<!-- Node3 -->
<g id="Node000003" class="node">
<title>Node3</title>
<g id="a_Node000003"><a xlink:href="class_cpl_1_1_text_1_1_string__.html" target="_top" xlink:title="This partially concrete class implements the portions of the String Api that is independent of the in...">
<polygon fill="white" stroke="#666666" points="92.88,-129.75 4.12,-129.75 4.12,-110.5 92.88,-110.5 92.88,-129.75"/>
<text text-anchor="middle" x="48.5" y="-116.25" font-family="Helvetica,sans-Serif" font-size="10.00">Cpl::Text::String_</text>
</a>
</g>
</g>
<!-- Node3&#45;&gt;Node2 -->
<g id="edge2_Node000002_Node000003" class="edge">
<title>Node3&#45;&gt;Node2</title>
<g id="a_edge2_Node000002_Node000003"><a xlink:title=" ">
<path fill="none" stroke="#63b8ff" d="M48.5,-98.88C48.5,-90.59 48.5,-81.42 48.5,-74.86"/>
<polygon fill="#63b8ff" stroke="#63b8ff" points="45,-98.82 48.5,-108.82 52,-98.82 45,-98.82"/>
</a>
</g>
</g>
<!-- Node4 -->
<g id="Node000004" class="node">
<title>Node4</title>
<g id="a_Node000004"><a xlink:href="class_cpl_1_1_text_1_1_string.html" target="_top" xlink:title="This abstract class defines the operations that can be before on a NULL terminated string.">
<polygon fill="white" stroke="#666666" points="90.25,-185 6.75,-185 6.75,-165.75 90.25,-165.75 90.25,-185"/>
<text text-anchor="middle" x="48.5" y="-171.5" font-family="Helvetica,sans-Serif" font-size="10.00">Cpl::Text::String</text>
</a>
</g>
</g>
<!-- Node4&#45;&gt;Node3 -->
<g id="edge3_Node000003_Node000004" class="edge">
<title>Node4&#45;&gt;Node3</title>
<g id="a_edge3_Node000003_Node000004"><a xlink:title=" ">
<path fill="none" stroke="#63b8ff" d="M48.5,-154.13C48.5,-145.84 48.5,-136.67 48.5,-130.11"/>
<polygon fill="#63b8ff" stroke="#63b8ff" points="45,-154.07 48.5,-164.07 52,-154.07 45,-154.07"/>
</a>
</g>
</g>
<!-- Node5 -->
<g id="Node000005" class="node">
<title>Node5</title>
<g id="a_Node000005"><a xlink:href="class_cpl_1_1_container_1_1_key.html" target="_top" xlink:title="This abstract class defines the interface that a contained object must support if it has comparable k...">
<polygon fill="white" stroke="#666666" points="97,-240.25 0,-240.25 0,-221 97,-221 97,-240.25"/>
<text text-anchor="middle" x="48.5" y="-226.75" font-family="Helvetica,sans-Serif" font-size="10.00">Cpl::Container::Key</text>
</a>
</g>
</g>
<!-- Node5&#45;&gt;Node4 -->
<g id="edge4_Node000004_Node000005" class="edge">
<title>Node5&#45;&gt;Node4</title>
<g id="a_edge4_Node000004_Node000005"><a xlink:title=" ">
<path fill="none" stroke="#63b8ff" d="M48.5,-209.38C48.5,-201.09 48.5,-191.92 48.5,-185.36"/>
<polygon fill="#63b8ff" stroke="#63b8ff" points="45,-209.32 48.5,-219.32 52,-209.32 45,-209.32"/>
</a>
</g>
</g>
</g>
</svg>
