<?xml version="1.0" encoding="UTF-8" standalone="no"?>
<!DOCTYPE svg PUBLIC "-//W3C//DTD SVG 1.1//EN"
 "http://www.w3.org/Graphics/SVG/1.1/DTD/svg11.dtd">
<!-- Generated by graphviz version 2.43.0 (0)
 -->
<!-- Title: Ajax::Main::MetricsRecord Pages: 1 -->
<svg width="3125pt" height="518pt"
 viewBox="0.00 0.00 3125.00 517.71" xmlns="http://www.w3.org/2000/svg" xmlns:xlink="http://www.w3.org/1999/xlink">
<g id="graph0" class="graph" transform="scale(1 1) rotate(0) translate(4 513.71)">
<title>Ajax::Main::MetricsRecord</title>
<!-- Node1 -->
<g id="Node000001" class="node">
<title>Node1</title>
<g id="a_Node000001"><a xlink:title="This concrete class implements the &quot;Record&quot; class for storing user settings.">
<polygon fill="#999999" stroke="#666666" points="3117,-278.21 2973,-278.21 2973,-259.21 3117,-259.21 3117,-278.21"/>
<text text-anchor="middle" x="3045" y="-266.21" font-family="Helvetica,sans-Serif" font-size="10.00">Ajax::Main::MetricsRecord</text>
</a>
</g>
</g>
<!-- Node2 -->
<g id="Node000002" class="node">
<title>Node2</title>
<g id="a_Node000002"><a xlink:href="class_cpl_1_1_dm_1_1_persistent_1_1_record.html" target="_top" xlink:title="This mostly concrete class implements the Cpl::Persistent::Record interface where a Record instance c...">
<polygon fill="white" stroke="#666666" points="2269,-266.71 2159,-266.71 2159,-236.71 2269,-236.71 2269,-266.71"/>
<text text-anchor="start" x="2167" y="-254.71" font-family="Helvetica,sans-Serif" font-size="10.00">Cpl::Dm::Persistent</text>
<text text-anchor="middle" x="2214" y="-243.71" font-family="Helvetica,sans-Serif" font-size="10.00">::Record</text>
</a>
</g>
</g>
<!-- Node2&#45;&gt;Node1 -->
<g id="edge1_Node000001_Node000002" class="edge">
<title>Node2&#45;&gt;Node1</title>
<g id="a_edge1_Node000001_Node000002"><a xlink:title=" ">
<path fill="none" stroke="#63b8ff" d="M2279.21,-253.02C2431.56,-256.15 2814.02,-263.99 2972.99,-267.25"/>
<polygon fill="#63b8ff" stroke="#63b8ff" points="2279.14,-249.52 2269.07,-252.81 2279,-256.52 2279.14,-249.52"/>
</a>
</g>
</g>
<!-- Node17 -->
<g id="Node000017" class="node">
<title>Node17</title>
<g id="a_Node000017"><a xlink:href="class_cpl_1_1_dm_1_1_subscriber_composer.html" target="_top" xlink:title=" ">
<polygon fill="white" stroke="#666666" points="2652,-391.21 2488,-391.21 2488,-350.21 2652,-350.21 2652,-391.21"/>
<text text-anchor="start" x="2496" y="-379.21" font-family="Helvetica,sans-Serif" font-size="10.00">Cpl::Dm::SubscriberComposer</text>
<text text-anchor="start" x="2496" y="-368.21" font-family="Helvetica,sans-Serif" font-size="10.00">&lt; Cpl::Dm::Persistent::Record,</text>
<text text-anchor="middle" x="2570" y="-357.21" font-family="Helvetica,sans-Serif" font-size="10.00"> Cpl::Dm::ModelPoint &gt;</text>
</a>
</g>
</g>
<!-- Node2&#45;&gt;Node17 -->
<g id="edge38_Node000017_Node000002" class="edge">
<title>Node2&#45;&gt;Node17</title>
<g id="a_edge38_Node000017_Node000002"><a xlink:title=" ">
<path fill="none" stroke="#9a32cd" stroke-dasharray="5,2" d="M2242.67,-272.87C2261.56,-286.37 2287.66,-303.24 2313,-313.71 2344.2,-326.59 2425.11,-343.66 2487.7,-355.76"/>
<polygon fill="#9a32cd" stroke="#9a32cd" points="2244.67,-270 2234.52,-266.94 2240.55,-275.66 2244.67,-270"/>
</a>
</g>
<text text-anchor="middle" x="2391.5" y="-354.71" font-family="Helvetica,sans-Serif" font-size="10.00" fill="grey"> m_context</text>
</g>
<!-- Node3 -->
<g id="Node000003" class="node">
<title>Node3</title>
<g id="a_Node000003"><a xlink:href="class_cpl_1_1_persistent_1_1_record.html" target="_top" xlink:title="This abstract class defines the public interface for a Record instance.">
<polygon fill="white" stroke="#666666" points="1982,-90.21 1855,-90.21 1855,-71.21 1982,-71.21 1982,-90.21"/>
<text text-anchor="middle" x="1918.5" y="-78.21" font-family="Helvetica,sans-Serif" font-size="10.00">Cpl::Persistent::Record</text>
</a>
</g>
</g>
<!-- Node3&#45;&gt;Node2 -->
<g id="edge2_Node000002_Node000003" class="edge">
<title>Node3&#45;&gt;Node2</title>
<g id="a_edge2_Node000002_Node000003"><a xlink:title=" ">
<path fill="none" stroke="#63b8ff" d="M1992.41,-86.17C2031.27,-91.84 2078.45,-103.36 2115,-126.71 2159.15,-154.91 2191.75,-210.11 2205.62,-236.69"/>
<polygon fill="#63b8ff" stroke="#63b8ff" points="1992.58,-82.66 1982.2,-84.78 1991.64,-89.59 1992.58,-82.66"/>
</a>
</g>
</g>
<!-- Node4 -->
<g id="Node000004" class="node">
<title>Node4</title>
<g id="a_Node000004"><a xlink:href="class_cpl_1_1_persistent_1_1_payload.html" target="_top" xlink:title="This abstract class defines the interface accessing the &#39;data payload&#39; of an individual Record instan...">
<polygon fill="white" stroke="#666666" points="1984,-261.21 1853,-261.21 1853,-242.21 1984,-242.21 1984,-261.21"/>
<text text-anchor="middle" x="1918.5" y="-249.21" font-family="Helvetica,sans-Serif" font-size="10.00">Cpl::Persistent::Payload</text>
</a>
</g>
</g>
<!-- Node4&#45;&gt;Node2 -->
<g id="edge3_Node000002_Node000004" class="edge">
<title>Node4&#45;&gt;Node2</title>
<g id="a_edge3_Node000002_Node000004"><a xlink:title=" ">
<path fill="none" stroke="#63b8ff" d="M1994.31,-251.71C2045.61,-251.71 2112.5,-251.71 2158.72,-251.71"/>
<polygon fill="#63b8ff" stroke="#63b8ff" points="1994.27,-248.21 1984.27,-251.71 1994.27,-255.21 1994.27,-248.21"/>
</a>
</g>
</g>
<!-- Node5 -->
<g id="Node000005" class="node">
<title>Node5</title>
<g id="a_Node000005"><a xlink:href="class_cpl_1_1_dm_1_1_persistent_1_1_flush_request.html" target="_top" xlink:title="This abstract class define ITC message type and payload for the application to request flushing the R...">
<polygon fill="white" stroke="#666666" points="1973.5,-223.71 1863.5,-223.71 1863.5,-193.71 1973.5,-193.71 1973.5,-223.71"/>
<text text-anchor="start" x="1871.5" y="-211.71" font-family="Helvetica,sans-Serif" font-size="10.00">Cpl::Dm::Persistent</text>
<text text-anchor="middle" x="1918.5" y="-200.71" font-family="Helvetica,sans-Serif" font-size="10.00">::FlushRequest</text>
</a>
</g>
</g>
<!-- Node5&#45;&gt;Node2 -->
<g id="edge4_Node000002_Node000005" class="edge">
<title>Node5&#45;&gt;Node2</title>
<g id="a_edge4_Node000002_Node000005"><a xlink:title=" ">
<path fill="none" stroke="#63b8ff" d="M1983.85,-218.13C2036.19,-225.8 2109.21,-236.5 2158.64,-243.74"/>
<polygon fill="#63b8ff" stroke="#63b8ff" points="1984.08,-214.63 1973.67,-216.64 1983.06,-221.56 1984.08,-214.63"/>
</a>
</g>
</g>
<!-- Node6 -->
<g id="Node000006" class="node">
<title>Node6</title>
<g id="a_Node000006"><a xlink:href="class_cpl_1_1_dm_1_1_persistent_1_1_erase_request.html" target="_top" xlink:title="This abstract class define ITC message type and payload for the application to request invalidating/c...">
<polygon fill="white" stroke="#666666" points="1973.5,-175.71 1863.5,-175.71 1863.5,-145.71 1973.5,-145.71 1973.5,-175.71"/>
<text text-anchor="start" x="1871.5" y="-163.71" font-family="Helvetica,sans-Serif" font-size="10.00">Cpl::Dm::Persistent</text>
<text text-anchor="middle" x="1918.5" y="-152.71" font-family="Helvetica,sans-Serif" font-size="10.00">::EraseRequest</text>
</a>
</g>
</g>
<!-- Node6&#45;&gt;Node2 -->
<g id="edge5_Node000002_Node000006" class="edge">
<title>Node6&#45;&gt;Node2</title>
<g id="a_edge5_Node000002_Node000006"><a xlink:title=" ">
<path fill="none" stroke="#63b8ff" d="M1983.71,-177.98C2022.01,-188.56 2071.49,-202.72 2115,-216.71 2134.09,-222.84 2155.05,-230.24 2172.67,-236.65"/>
<polygon fill="#63b8ff" stroke="#63b8ff" points="1984.29,-174.51 1973.72,-175.23 1982.43,-181.26 1984.29,-174.51"/>
</a>
</g>
</g>
<!-- Node7 -->
<g id="Node000007" class="node">
<title>Node7</title>
<g id="a_Node000007"><a xlink:href="class_cpl_1_1_system_1_1_timer.html" target="_top" xlink:title="This mostly concrete interface defines the operations that can be performed on a software timer.">
<polygon fill="white" stroke="#666666" points="1717.5,-299.21 1607.5,-299.21 1607.5,-280.21 1717.5,-280.21 1717.5,-299.21"/>
<text text-anchor="middle" x="1662.5" y="-287.21" font-family="Helvetica,sans-Serif" font-size="10.00">Cpl::System::Timer</text>
</a>
</g>
</g>
<!-- Node7&#45;&gt;Node2 -->
<g id="edge6_Node000002_Node000007" class="edge">
<title>Node7&#45;&gt;Node2</title>
<g id="a_edge6_Node000002_Node000007"><a xlink:title=" ">
<path fill="none" stroke="#63b8ff" d="M1727.89,-288.08C1815.6,-285.46 1977.48,-279.16 2115,-265.71 2129.28,-264.31 2144.67,-262.33 2158.93,-260.31"/>
<polygon fill="#63b8ff" stroke="#63b8ff" points="1727.72,-284.58 1717.83,-288.38 1727.92,-291.58 1727.72,-284.58"/>
</a>
</g>
</g>
<!-- Node8 -->
<g id="Node000008" class="node">
<title>Node8</title>
<g id="a_Node000008"><a xlink:href="class_cpl_1_1_system_1_1_counter_callback__.html" target="_top" xlink:title="This abstract class defines the call&#45;back interface for a Counter object.">
<polygon fill="white" stroke="#666666" points="1472,-260.21 1305,-260.21 1305,-241.21 1472,-241.21 1472,-260.21"/>
<text text-anchor="middle" x="1388.5" y="-248.21" font-family="Helvetica,sans-Serif" font-size="10.00">Cpl::System::CounterCallback_</text>
</a>
</g>
</g>
<!-- Node8&#45;&gt;Node7 -->
<g id="edge7_Node000007_Node000008" class="edge">
<title>Node8&#45;&gt;Node7</title>
<g id="a_edge7_Node000007_Node000008"><a xlink:title=" ">
<path fill="none" stroke="#63b8ff" d="M1466.03,-261.68C1510.95,-268.12 1566.63,-276.1 1607.07,-281.9"/>
<polygon fill="#63b8ff" stroke="#63b8ff" points="1466.43,-258.2 1456.04,-260.25 1465.44,-265.13 1466.43,-258.2"/>
</a>
</g>
</g>
<!-- Node9 -->
<g id="Node000009" class="node">
<title>Node9</title>
<g id="a_Node000009"><a xlink:href="class_cpl_1_1_container_1_1_extended_item.html" target="_top" xlink:title="This class is used by the Container classes to implement a various types of DOUBLY linked containers.">
<polygon fill="white" stroke="#666666" points="1186,-223.21 1026,-223.21 1026,-204.21 1186,-204.21 1186,-223.21"/>
<text text-anchor="middle" x="1106" y="-211.21" font-family="Helvetica,sans-Serif" font-size="10.00">Cpl::Container::ExtendedItem</text>
</a>
</g>
</g>
<!-- Node9&#45;&gt;Node8 -->
<g id="edge8_Node000008_Node000009" class="edge">
<title>Node9&#45;&gt;Node8</title>
<g id="a_edge8_Node000008_Node000009"><a xlink:title=" ">
<path fill="none" stroke="#63b8ff" d="M1189.2,-224.55C1229.06,-229.81 1276.53,-236.07 1315.02,-241.15"/>
<polygon fill="#63b8ff" stroke="#63b8ff" points="1189.61,-221.07 1179.24,-223.23 1188.69,-228.01 1189.61,-221.07"/>
</a>
</g>
</g>
<!-- Node20 -->
<g id="Node000020" class="node">
<title>Node20</title>
<g id="a_Node000020"><a xlink:href="class_cpl_1_1_dm_1_1_subscriber_api.html" target="_top" xlink:title="This abstract class defines the Subscriber interface &#45; for change notifications &#45; to a Model Points d...">
<polygon fill="white" stroke="#666666" points="1452.5,-350.21 1324.5,-350.21 1324.5,-331.21 1452.5,-331.21 1452.5,-350.21"/>
<text text-anchor="middle" x="1388.5" y="-338.21" font-family="Helvetica,sans-Serif" font-size="10.00">Cpl::Dm::SubscriberApi</text>
</a>
</g>
</g>
<!-- Node9&#45;&gt;Node20 -->
<g id="edge21_Node000020_Node000009" class="edge">
<title>Node9&#45;&gt;Node20</title>
<g id="a_edge21_Node000020_Node000009"><a xlink:title=" ">
<path fill="none" stroke="#63b8ff" d="M1181.54,-228.69C1183.1,-229.93 1184.6,-231.27 1186,-232.71 1212.66,-260.04 1175.93,-290.82 1204,-316.71 1221.18,-332.55 1278.11,-338.14 1324.05,-340.01"/>
<polygon fill="#63b8ff" stroke="#63b8ff" points="1183.44,-225.75 1173.15,-223.23 1179.62,-231.62 1183.44,-225.75"/>
</a>
</g>
</g>
<!-- Node10 -->
<g id="Node000010" class="node">
<title>Node10</title>
<g id="a_Node000010"><a xlink:href="class_cpl_1_1_container_1_1_item.html" target="_top" xlink:title="This class is used by the Container classes to implement a various types of singly linked containers.">
<polygon fill="white" stroke="#666666" points="115,-145.21 1,-145.21 1,-126.21 115,-126.21 115,-145.21"/>
<text text-anchor="middle" x="58" y="-133.21" font-family="Helvetica,sans-Serif" font-size="10.00">Cpl::Container::Item</text>
</a>
</g>
</g>
<!-- Node10&#45;&gt;Node9 -->
<g id="edge9_Node000009_Node000010" class="edge">
<title>Node10&#45;&gt;Node9</title>
<g id="a_edge9_Node000009_Node000010"><a xlink:title=" ">
<path fill="none" stroke="#63b8ff" d="M91.28,-122.24C217.5,-71.79 686.52,94.66 1008,-73.71 1062.75,-102.38 1092.75,-177.55 1101.93,-204.18"/>
<polygon fill="#63b8ff" stroke="#63b8ff" points="89.75,-119.08 81.79,-126.07 92.37,-125.57 89.75,-119.08"/>
</a>
</g>
</g>
<!-- Node16 -->
<g id="Node000016" class="node">
<title>Node16</title>
<g id="a_Node000016"><a xlink:href="class_cpl_1_1_dm_1_1_model_point.html" target="_top" xlink:title="This mostly abstract class defines the interface for a Model Point.">
<polygon fill="white" stroke="#666666" points="1446.5,-468.21 1330.5,-468.21 1330.5,-449.21 1446.5,-449.21 1446.5,-468.21"/>
<text text-anchor="middle" x="1388.5" y="-456.21" font-family="Helvetica,sans-Serif" font-size="10.00">Cpl::Dm::ModelPoint</text>
</a>
</g>
</g>
<!-- Node10&#45;&gt;Node16 -->
<g id="edge16_Node000016_Node000010" class="edge">
<title>Node10&#45;&gt;Node16</title>
<g id="a_edge16_Node000016_Node000010"><a xlink:title=" ">
<path fill="none" stroke="#63b8ff" d="M76.04,-152.57C116.12,-191.16 221.1,-286.09 328,-331.71 444.36,-381.35 900.73,-404.3 1008,-415.71 1122.4,-427.87 1256.05,-443.3 1330.31,-451.98"/>
<polygon fill="#63b8ff" stroke="#63b8ff" points="78.31,-149.89 68.7,-145.43 73.42,-154.91 78.31,-149.89"/>
</a>
</g>
</g>
<!-- Node25 -->
<g id="Node000025" class="node">
<title>Node25</title>
<g id="a_Node000025"><a xlink:href="class_cpl_1_1_system_1_1_signable.html" target="_top" xlink:title="This abstract class defines the interface by which a client can cause an object that is waiting&#45;on&#45;a&#45;...">
<polygon fill="white" stroke="#666666" points="484,-145.21 361,-145.21 361,-126.21 484,-126.21 484,-145.21"/>
<text text-anchor="middle" x="422.5" y="-133.21" font-family="Helvetica,sans-Serif" font-size="10.00">Cpl::System::Signable</text>
</a>
</g>
</g>
<!-- Node10&#45;&gt;Node25 -->
<g id="edge28_Node000025_Node000010" class="edge">
<title>Node10&#45;&gt;Node25</title>
<g id="a_edge28_Node000025_Node000010"><a xlink:title=" ">
<path fill="none" stroke="#63b8ff" d="M125.31,-135.71C192.56,-135.71 295.76,-135.71 360.89,-135.71"/>
<polygon fill="#63b8ff" stroke="#63b8ff" points="125.24,-132.21 115.24,-135.71 125.24,-139.21 125.24,-132.21"/>
</a>
</g>
</g>
<!-- Node11 -->
<g id="Node000011" class="node">
<title>Node11</title>
<g id="a_Node000011"><a xlink:href="class_cpl_1_1_system_1_1_timer_manager.html" target="_top" xlink:title="This mostly concrete class implements manages a list of Software Timers.">
<polygon fill="white" stroke="#666666" points="856,-343.21 704,-343.21 704,-324.21 856,-324.21 856,-343.21"/>
<text text-anchor="middle" x="780" y="-331.21" font-family="Helvetica,sans-Serif" font-size="10.00">Cpl::System::TimerManager</text>
</a>
</g>
</g>
<!-- Node11&#45;&gt;Node7 -->
<g id="edge10_Node000007_Node000011" class="edge">
<title>Node11&#45;&gt;Node7</title>
<g id="a_edge10_Node000007_Node000011"><a xlink:title=" ">
<path fill="none" stroke="#9a32cd" stroke-dasharray="5,2" d="M866.27,-329.45C1045.94,-320.47 1459.1,-299.82 1607.33,-292.41"/>
<polygon fill="#9a32cd" stroke="#9a32cd" points="865.88,-325.96 856.07,-329.95 866.23,-332.95 865.88,-325.96"/>
</a>
</g>
<text text-anchor="middle" x="1245.5" y="-314.71" font-family="Helvetica,sans-Serif" font-size="10.00" fill="grey"> m_timingSource</text>
</g>
<!-- Node22 -->
<g id="Node000022" class="node">
<title>Node22</title>
<g id="a_Node000022"><a xlink:href="class_cpl_1_1_system_1_1_event_loop.html" target="_top" xlink:title="This concrete class is a Runnable object that provides a event driven execution model for a thread.">
<polygon fill="white" stroke="#666666" points="1172,-260.21 1040,-260.21 1040,-241.21 1172,-241.21 1172,-260.21"/>
<text text-anchor="middle" x="1106" y="-248.21" font-family="Helvetica,sans-Serif" font-size="10.00">Cpl::System::EventLoop</text>
</a>
</g>
</g>
<!-- Node11&#45;&gt;Node22 -->
<g id="edge29_Node000022_Node000011" class="edge">
<title>Node11&#45;&gt;Node22</title>
<g id="a_edge29_Node000022_Node000011"><a xlink:title=" ">
<path fill="none" stroke="#63b8ff" d="M837.3,-322.16C903.17,-308.63 1003.85,-287.9 1008,-286.71 1033.9,-279.27 1062.75,-268.19 1082.2,-260.28"/>
<polygon fill="#63b8ff" stroke="#63b8ff" points="836.54,-318.74 827.45,-324.18 837.95,-325.6 836.54,-318.74"/>
</a>
</g>
</g>
<!-- Node12 -->
<g id="Node000012" class="node">
<title>Node12</title>
<g id="a_Node000012"><a xlink:href="class_cpl_1_1_system_1_1_counter_source__.html" target="_top" xlink:title="This abstract class defines the interface for registering for an Counter object with the Timer Manage...">
<polygon fill="white" stroke="#666666" points="501.5,-322.21 343.5,-322.21 343.5,-303.21 501.5,-303.21 501.5,-322.21"/>
<text text-anchor="middle" x="422.5" y="-310.21" font-family="Helvetica,sans-Serif" font-size="10.00">Cpl::System::CounterSource_</text>
</a>
</g>
</g>
<!-- Node12&#45;&gt;Node11 -->
<g id="edge11_Node000011_Node000012" class="edge">
<title>Node12&#45;&gt;Node11</title>
<g id="a_edge11_Node000011_Node000012"><a xlink:title=" ">
<path fill="none" stroke="#63b8ff" d="M511.63,-316.93C562.59,-319.49 627.93,-322.97 686,-326.71 691.82,-327.08 697.84,-327.49 703.89,-327.91"/>
<polygon fill="#63b8ff" stroke="#63b8ff" points="511.79,-313.43 501.63,-316.43 511.44,-320.42 511.79,-313.43"/>
</a>
</g>
</g>
<!-- Node13 -->
<g id="Node000013" class="node">
<title>Node13</title>
<g id="a_Node000013"><a xlink:href="class_cpl_1_1_container_1_1_d_list.html" target="_top" xlink:title=" ">
<polygon fill="white" stroke="#666666" points="517,-440.71 328,-440.71 328,-410.71 517,-410.71 517,-440.71"/>
<text text-anchor="start" x="336" y="-428.71" font-family="Helvetica,sans-Serif" font-size="10.00">Cpl::Container::DList</text>
<text text-anchor="middle" x="422.5" y="-417.71" font-family="Helvetica,sans-Serif" font-size="10.00">&lt; Cpl::System::CounterCallback_ &gt;</text>
</a>
</g>
</g>
<!-- Node13&#45;&gt;Node11 -->
<g id="edge12_Node000011_Node000013" class="edge">
<title>Node13&#45;&gt;Node11</title>
<g id="a_edge12_Node000011_Node000013"><a xlink:title=" ">
<path fill="none" stroke="#9a32cd" stroke-dasharray="5,2" d="M491.58,-408.09C566.07,-388.81 682.75,-358.61 741.92,-343.3"/>
<polygon fill="#9a32cd" stroke="#9a32cd" points="490.61,-404.72 481.81,-410.62 492.36,-411.5 490.61,-404.72"/>
</a>
</g>
<text text-anchor="middle" x="610.5" y="-409.71" font-family="Helvetica,sans-Serif" font-size="10.00" fill="grey"> m_counters</text>
<text text-anchor="middle" x="610.5" y="-398.71" font-family="Helvetica,sans-Serif" font-size="10.00" fill="grey">m_pendingAttach</text>
</g>
<!-- Node14 -->
<g id="Node000014" class="node">
<title>Node14</title>
<g id="a_Node000014"><a xlink:href="class_cpl_1_1_container_1_1_d_list.html" target="_top" xlink:title="This template class implements a Doubly linked list which maintains the ordering imposed on it by the...">
<polygon fill="white" stroke="#666666" points="116,-465.71 0,-465.71 0,-435.71 116,-435.71 116,-465.71"/>
<text text-anchor="start" x="8" y="-453.71" font-family="Helvetica,sans-Serif" font-size="10.00">Cpl::Container::DList</text>
<text text-anchor="middle" x="58" y="-442.71" font-family="Helvetica,sans-Serif" font-size="10.00">&lt; ITEM &gt;</text>
</a>
</g>
</g>
<!-- Node14&#45;&gt;Node13 -->
<g id="edge13_Node000013_Node000014" class="edge">
<title>Node14&#45;&gt;Node13</title>
<g id="a_edge13_Node000013_Node000014"><a xlink:title=" ">
<path fill="none" stroke="orange" stroke-dasharray="5,2" d="M126.28,-436.71C128.88,-436.34 131.46,-436 134,-435.71 198.49,-428.19 271.62,-425.72 327.99,-425.12"/>
<polygon fill="orange" stroke="orange" points="125.52,-433.28 116.18,-438.28 126.59,-440.2 125.52,-433.28"/>
</a>
</g>
<text text-anchor="middle" x="222" y="-438.71" font-family="Helvetica,sans-Serif" font-size="10.00" fill="grey"> &lt; Cpl::System::CounterCallback_ &gt;</text>
</g>
<!-- Node30 -->
<g id="Node000030" class="node">
<title>Node30</title>
<g id="a_Node000030"><a xlink:href="class_cpl_1_1_container_1_1_d_list.html" target="_top" xlink:title=" ">
<polygon fill="white" stroke="#666666" points="686,-459.71 535,-459.71 535,-429.71 686,-429.71 686,-459.71"/>
<text text-anchor="start" x="543" y="-447.71" font-family="Helvetica,sans-Serif" font-size="10.00">Cpl::Container::DList</text>
<text text-anchor="middle" x="610.5" y="-436.71" font-family="Helvetica,sans-Serif" font-size="10.00">&lt; Cpl::Dm::SubscriberApi &gt;</text>
</a>
</g>
</g>
<!-- Node14&#45;&gt;Node30 -->
<g id="edge37_Node000030_Node000014" class="edge">
<title>Node14&#45;&gt;Node30</title>
<g id="a_edge37_Node000030_Node000014"><a xlink:title=" ">
<path fill="none" stroke="orange" stroke-dasharray="5,2" d="M126.4,-451.65C215.72,-452.65 378.23,-453.61 517,-449.71 522.79,-449.54 528.78,-449.33 534.8,-449.08"/>
<polygon fill="orange" stroke="orange" points="126.18,-448.15 116.14,-451.53 126.09,-455.15 126.18,-448.15"/>
</a>
</g>
<text text-anchor="middle" x="222" y="-454.71" font-family="Helvetica,sans-Serif" font-size="10.00" fill="grey"> &lt; Cpl::Dm::SubscriberApi &gt;</text>
</g>
<!-- Node15 -->
<g id="Node000015" class="node">
<title>Node15</title>
<g id="a_Node000015"><a xlink:href="class_cpl_1_1_dm_1_1_persistent_1_1_record.html#struct_cpl_1_1_dm_1_1_persistent_1_1_record_1_1_item___t" target="_top" xlink:title="This data structure associates a Data Model subscriber instance with a Model Point instance.">
<polygon fill="white" stroke="#666666" points="2858,-349.71 2748,-349.71 2748,-319.71 2858,-319.71 2858,-349.71"/>
<text text-anchor="start" x="2756" y="-337.71" font-family="Helvetica,sans-Serif" font-size="10.00">Cpl::Dm::Persistent</text>
<text text-anchor="middle" x="2803" y="-326.71" font-family="Helvetica,sans-Serif" font-size="10.00">::Record::Item_T</text>
</a>
</g>
</g>
<!-- Node15&#45;&gt;Node1 -->
<g id="edge45_Node000001_Node000015" class="edge">
<title>Node15&#45;&gt;Node1</title>
<g id="a_edge45_Node000001_Node000015"><a xlink:title=" ">
<path fill="none" stroke="#9a32cd" stroke-dasharray="5,2" d="M2867.91,-317.13C2913.28,-304.65 2972.45,-288.38 3009.33,-278.24"/>
<polygon fill="#9a32cd" stroke="#9a32cd" points="2866.87,-313.79 2858.16,-319.81 2868.73,-320.54 2866.87,-313.79"/>
</a>
</g>
<text text-anchor="middle" x="2915.5" y="-315.71" font-family="Helvetica,sans-Serif" font-size="10.00" fill="grey"> m_modelPoints</text>
</g>
<!-- Node15&#45;&gt;Node2 -->
<g id="edge14_Node000002_Node000015" class="edge">
<title>Node15&#45;&gt;Node2</title>
<g id="a_edge14_Node000002_Node000015"><a xlink:title=" ">
<path fill="none" stroke="#9a32cd" stroke-dasharray="5,2" d="M2737.54,-326.03C2643.96,-313.37 2465.05,-288.91 2313,-266.71 2298.78,-264.63 2283.41,-262.31 2269.15,-260.13"/>
<polygon fill="#9a32cd" stroke="#9a32cd" points="2737.32,-329.53 2747.69,-327.4 2738.25,-322.59 2737.32,-329.53"/>
</a>
</g>
<text text-anchor="middle" x="2570" y="-316.71" font-family="Helvetica,sans-Serif" font-size="10.00" fill="grey"> m_items</text>
</g>
<!-- Node16&#45;&gt;Node15 -->
<g id="edge15_Node000015_Node000016" class="edge">
<title>Node16&#45;&gt;Node15</title>
<g id="a_edge15_Node000015_Node000016"><a xlink:title=" ">
<path fill="none" stroke="#9a32cd" stroke-dasharray="5,2" d="M1439.37,-470.51C1493.68,-482.3 1583.25,-498.71 1661.5,-498.71 1661.5,-498.71 1661.5,-498.71 2571,-498.71 2673.3,-498.71 2761.86,-390.44 2791.47,-349.84"/>
<polygon fill="#9a32cd" stroke="#9a32cd" points="1439.85,-467.03 1429.33,-468.29 1438.34,-473.86 1439.85,-467.03"/>
</a>
</g>
<text text-anchor="middle" x="2058.5" y="-501.71" font-family="Helvetica,sans-Serif" font-size="10.00" fill="grey"> mpPtr</text>
</g>
<!-- Node16&#45;&gt;Node17 -->
<g id="edge39_Node000017_Node000016" class="edge">
<title>Node16&#45;&gt;Node17</title>
<g id="a_edge39_Node000017_Node000016"><a xlink:title=" ">
<path fill="none" stroke="#9a32cd" stroke-dasharray="5,2" d="M1456.87,-459.09C1511.91,-459.37 1591.74,-459.71 1661.5,-459.71 1661.5,-459.71 1661.5,-459.71 2215,-459.71 2329.86,-459.71 2360.38,-452.01 2470,-417.71 2491.24,-411.06 2513.75,-400.67 2531.92,-391.35"/>
<polygon fill="#9a32cd" stroke="#9a32cd" points="1456.56,-455.59 1446.55,-459.04 1456.53,-462.59 1456.56,-455.59"/>
</a>
</g>
<text text-anchor="middle" x="1918.5" y="-462.71" font-family="Helvetica,sans-Serif" font-size="10.00" fill="grey"> m_notificationCb</text>
</g>
<!-- Node19 -->
<g id="Node000019" class="node">
<title>Node19</title>
<g id="a_Node000019"><a xlink:href="class_cpl_1_1_dm_1_1_subscriber_base.html" target="_top" xlink:title="This mostly concrete class defines the Subscriber interface &#45; for change notifications &#45; to a Model P...">
<polygon fill="white" stroke="#666666" points="1731,-395.21 1594,-395.21 1594,-376.21 1731,-376.21 1731,-395.21"/>
<text text-anchor="middle" x="1662.5" y="-383.21" font-family="Helvetica,sans-Serif" font-size="10.00">Cpl::Dm::SubscriberBase</text>
</a>
</g>
</g>
<!-- Node16&#45;&gt;Node19 -->
<g id="edge22_Node000019_Node000016" class="edge">
<title>Node16&#45;&gt;Node19</title>
<g id="a_edge22_Node000019_Node000016"><a xlink:title=" ">
<path fill="none" stroke="#9a32cd" stroke-dasharray="5,2" d="M1435,-446.5C1488.72,-432.08 1576.95,-408.4 1625.93,-395.25"/>
<polygon fill="#9a32cd" stroke="#9a32cd" points="1433.81,-443.19 1425.06,-449.16 1435.62,-449.95 1433.81,-443.19"/>
</a>
</g>
<text text-anchor="middle" x="1533" y="-433.71" font-family="Helvetica,sans-Serif" font-size="10.00" fill="grey"> m_point</text>
</g>
<!-- Node17&#45;&gt;Node15 -->
<g id="edge17_Node000015_Node000017" class="edge">
<title>Node17&#45;&gt;Node15</title>
<g id="a_edge17_Node000015_Node000017"><a xlink:title=" ">
<path fill="none" stroke="#9a32cd" stroke-dasharray="5,2" d="M2662.27,-356.48C2691.25,-351.97 2722.37,-347.12 2747.87,-343.14"/>
<polygon fill="#9a32cd" stroke="#9a32cd" points="2661.46,-353.07 2652.12,-358.06 2662.54,-359.98 2661.46,-353.07"/>
</a>
</g>
<text text-anchor="middle" x="2700" y="-357.71" font-family="Helvetica,sans-Serif" font-size="10.00" fill="grey"> observerPtr</text>
</g>
<!-- Node18 -->
<g id="Node000018" class="node">
<title>Node18</title>
<g id="a_Node000018"><a xlink:href="class_cpl_1_1_dm_1_1_subscriber.html" target="_top" xlink:title="This template class defines a type safe Subscriber.">
<polygon fill="white" stroke="#666666" points="2115,-428.71 2002,-428.71 2002,-398.71 2115,-398.71 2115,-428.71"/>
<text text-anchor="start" x="2010" y="-416.71" font-family="Helvetica,sans-Serif" font-size="10.00">Cpl::Dm::Subscriber</text>
<text text-anchor="middle" x="2058.5" y="-405.71" font-family="Helvetica,sans-Serif" font-size="10.00">&lt; MP &gt;</text>
</a>
</g>
</g>
<!-- Node18&#45;&gt;Node17 -->
<g id="edge18_Node000017_Node000018" class="edge">
<title>Node18&#45;&gt;Node17</title>
<g id="a_edge18_Node000017_Node000018"><a xlink:title=" ">
<path fill="none" stroke="#63b8ff" d="M2125.41,-415.32C2206.85,-416.32 2349.42,-414.82 2470,-396.71 2479.23,-395.32 2488.83,-393.41 2498.27,-391.25"/>
<polygon fill="#63b8ff" stroke="#63b8ff" points="2125.35,-411.82 2115.3,-415.18 2125.25,-418.82 2125.35,-411.82"/>
</a>
</g>
</g>
<!-- Node19&#45;&gt;Node18 -->
<g id="edge19_Node000018_Node000019" class="edge">
<title>Node19&#45;&gt;Node18</title>
<g id="a_edge19_Node000018_Node000019"><a xlink:title=" ">
<path fill="none" stroke="#63b8ff" d="M1741.34,-391.24C1818.16,-396.7 1933.71,-404.91 2001.78,-409.75"/>
<polygon fill="#63b8ff" stroke="#63b8ff" points="1741.45,-387.74 1731.23,-390.52 1740.96,-394.72 1741.45,-387.74"/>
</a>
</g>
</g>
<!-- Node32 -->
<g id="Node000032" class="node">
<title>Node32</title>
<g id="a_Node000032"><a xlink:href="class_cpl_1_1_dm_1_1_subscriber.html" target="_top" xlink:title="This template class defines a type safe Subscriber.">
<polygon fill="white" stroke="#666666" points="1975,-385.71 1862,-385.71 1862,-355.71 1975,-355.71 1975,-385.71"/>
<text text-anchor="start" x="1870" y="-373.71" font-family="Helvetica,sans-Serif" font-size="10.00">Cpl::Dm::Subscriber</text>
<text text-anchor="middle" x="1918.5" y="-362.71" font-family="Helvetica,sans-Serif" font-size="10.00">&lt; MP &gt;</text>
</a>
</g>
</g>
<!-- Node19&#45;&gt;Node32 -->
<g id="edge42_Node000032_Node000019" class="edge">
<title>Node19&#45;&gt;Node32</title>
<g id="a_edge42_Node000032_Node000019"><a xlink:title=" ">
<path fill="none" stroke="#63b8ff" d="M1741.49,-381.1C1780.43,-378.8 1826.65,-376.07 1861.94,-373.99"/>
<polygon fill="#63b8ff" stroke="#63b8ff" points="1741.01,-377.62 1731.23,-381.71 1741.42,-384.61 1741.01,-377.62"/>
</a>
</g>
</g>
<!-- Node20&#45;&gt;Node19 -->
<g id="edge20_Node000019_Node000020" class="edge">
<title>Node20&#45;&gt;Node19</title>
<g id="a_edge20_Node000019_Node000020"><a xlink:title=" ">
<path fill="none" stroke="#63b8ff" d="M1457.18,-351.9C1502.31,-359.37 1561.01,-369.08 1603.9,-376.18"/>
<polygon fill="#63b8ff" stroke="#63b8ff" points="1457.62,-348.43 1447.18,-350.25 1456.48,-355.33 1457.62,-348.43"/>
</a>
</g>
</g>
<!-- Node31 -->
<g id="Node000031" class="node">
<title>Node31</title>
<g id="a_Node000031"><a xlink:href="class_cpl_1_1_dm_1_1_subscriber_composer.html" target="_top" xlink:title="This template class is a composer pattern/class that manages the callback function for a Model Point&#39;...">
<polygon fill="white" stroke="#666666" points="2295,-385.71 2133,-385.71 2133,-355.71 2295,-355.71 2295,-385.71"/>
<text text-anchor="start" x="2141" y="-373.71" font-family="Helvetica,sans-Serif" font-size="10.00">Cpl::Dm::SubscriberComposer</text>
<text text-anchor="middle" x="2214" y="-362.71" font-family="Helvetica,sans-Serif" font-size="10.00">&lt; CONTEXT, MP &gt;</text>
</a>
</g>
</g>
<!-- Node20&#45;&gt;Node31 -->
<g id="edge43_Node000031_Node000020" class="edge">
<title>Node20&#45;&gt;Node31</title>
<g id="a_edge43_Node000031_Node000020"><a xlink:title=" ">
<path fill="none" stroke="#9a32cd" stroke-dasharray="5,2" d="M1463.12,-339.22C1575.52,-337.46 1796.63,-335.97 1984,-346.71 2033.59,-349.55 2088.98,-355.29 2132.87,-360.44"/>
<polygon fill="#9a32cd" stroke="#9a32cd" points="1462.86,-335.72 1452.91,-339.39 1462.97,-342.72 1462.86,-335.72"/>
</a>
</g>
<text text-anchor="middle" x="1792" y="-342.71" font-family="Helvetica,sans-Serif" font-size="10.00" fill="grey"> m_notificationCb</text>
</g>
<!-- Node21 -->
<g id="Node000021" class="node">
<title>Node21</title>
<g id="a_Node000021"><a xlink:href="class_cpl_1_1_dm_1_1_event_loop.html" target="_top" xlink:title="This class extends the Cpl::System::EventLoop class to support the asynchronous change notification g...">
<polygon fill="white" stroke="#666666" points="1445,-394.21 1332,-394.21 1332,-375.21 1445,-375.21 1445,-394.21"/>
<text text-anchor="middle" x="1388.5" y="-382.21" font-family="Helvetica,sans-Serif" font-size="10.00">Cpl::Dm::EventLoop</text>
</a>
</g>
</g>
<!-- Node21&#45;&gt;Node19 -->
<g id="edge23_Node000019_Node000021" class="edge">
<title>Node21&#45;&gt;Node19</title>
<g id="a_edge23_Node000019_Node000021"><a xlink:title=" ">
<path fill="none" stroke="#9a32cd" stroke-dasharray="5,2" d="M1455.32,-384.95C1497.28,-385.1 1551.52,-385.3 1593.84,-385.46"/>
<polygon fill="#9a32cd" stroke="#9a32cd" points="1455.21,-381.45 1445.2,-384.91 1455.19,-388.45 1455.21,-381.45"/>
</a>
</g>
<text text-anchor="middle" x="1533" y="-387.71" font-family="Helvetica,sans-Serif" font-size="10.00" fill="grey"> m_eventLoopHdl</text>
</g>
<!-- Node22&#45;&gt;Node21 -->
<g id="edge24_Node000021_Node000022" class="edge">
<title>Node22&#45;&gt;Node21</title>
<g id="a_edge24_Node000021_Node000022"><a xlink:title=" ">
<path fill="none" stroke="#63b8ff" d="M1120.91,-268.2C1138.19,-288.73 1169.62,-322.3 1204,-340.71 1243.85,-362.05 1294.06,-373.17 1331.88,-378.88"/>
<polygon fill="#63b8ff" stroke="#63b8ff" points="1123.45,-265.79 1114.4,-260.28 1118.04,-270.23 1123.45,-265.79"/>
</a>
</g>
</g>
<!-- Node23 -->
<g id="Node000023" class="node">
<title>Node23</title>
<g id="a_Node000023"><a xlink:href="class_cpl_1_1_system_1_1_runnable.html" target="_top" xlink:title="This is an abstract class defines the interface for an object that is &quot;executed&quot; when a Thread object...">
<polygon fill="white" stroke="#666666" points="843.5,-306.21 716.5,-306.21 716.5,-287.21 843.5,-287.21 843.5,-306.21"/>
<text text-anchor="middle" x="780" y="-294.21" font-family="Helvetica,sans-Serif" font-size="10.00">Cpl::System::Runnable</text>
</a>
</g>
</g>
<!-- Node23&#45;&gt;Node22 -->
<g id="edge25_Node000022_Node000023" class="edge">
<title>Node23&#45;&gt;Node22</title>
<g id="a_edge25_Node000022_Node000023"><a xlink:title=" ">
<path fill="none" stroke="#63b8ff" d="M854.03,-286.34C909.83,-278.41 986.06,-267.59 1039.82,-259.96"/>
<polygon fill="#63b8ff" stroke="#63b8ff" points="853.26,-282.91 843.85,-287.78 854.25,-289.84 853.26,-282.91"/>
</a>
</g>
</g>
<!-- Node24 -->
<g id="Node000024" class="node">
<title>Node24</title>
<g id="a_Node000024"><a xlink:href="class_cpl_1_1_system_1_1_event_flag.html" target="_top" xlink:title="This abstract class defines the interface to generated a &#39;Event Flag&#39;.">
<polygon fill="white" stroke="#666666" points="845,-269.21 715,-269.21 715,-250.21 845,-250.21 845,-269.21"/>
<text text-anchor="middle" x="780" y="-257.21" font-family="Helvetica,sans-Serif" font-size="10.00">Cpl::System::EventFlag</text>
</a>
</g>
</g>
<!-- Node24&#45;&gt;Node22 -->
<g id="edge26_Node000022_Node000024" class="edge">
<title>Node24&#45;&gt;Node22</title>
<g id="a_edge26_Node000022_Node000024"><a xlink:title=" ">
<path fill="none" stroke="#63b8ff" d="M855.17,-257.65C910.84,-256.1 986.34,-254 1039.73,-252.52"/>
<polygon fill="#63b8ff" stroke="#63b8ff" points="854.91,-254.15 845.01,-257.93 855.11,-261.15 854.91,-254.15"/>
</a>
</g>
</g>
<!-- Node25&#45;&gt;Node22 -->
<g id="edge27_Node000022_Node000025" class="edge">
<title>Node25&#45;&gt;Node22</title>
<g id="a_edge27_Node000022_Node000025"><a xlink:title=" ">
<path fill="none" stroke="#63b8ff" d="M494.49,-135.08C641.6,-134.44 969.28,-136.68 1008,-168.71 1030.77,-187.54 1004.59,-212.34 1026,-232.71 1030.08,-236.58 1034.81,-239.69 1039.89,-242.17"/>
<polygon fill="#63b8ff" stroke="#63b8ff" points="494.2,-131.58 484.22,-135.13 494.24,-138.58 494.2,-131.58"/>
</a>
</g>
</g>
<!-- Node26 -->
<g id="Node000026" class="node">
<title>Node26</title>
<g id="a_Node000026"><a xlink:href="class_cpl_1_1_system_1_1_thread.html" target="_top" xlink:title="This abstract class defines the operations that can be performed on a thread.">
<polygon fill="white" stroke="#666666" points="837.5,-183.21 722.5,-183.21 722.5,-164.21 837.5,-164.21 837.5,-183.21"/>
<text text-anchor="middle" x="780" y="-171.21" font-family="Helvetica,sans-Serif" font-size="10.00">Cpl::System::Thread</text>
</a>
</g>
</g>
<!-- Node25&#45;&gt;Node26 -->
<g id="edge31_Node000026_Node000025" class="edge">
<title>Node25&#45;&gt;Node26</title>
<g id="a_edge31_Node000026_Node000025"><a xlink:title=" ">
<path fill="none" stroke="#63b8ff" d="M494.41,-144.9C507.88,-146.56 521.87,-148.24 535,-149.71 599.09,-156.88 672.78,-163.97 722.26,-168.56"/>
<polygon fill="#63b8ff" stroke="#63b8ff" points="494.58,-141.39 484.23,-143.63 493.72,-148.34 494.58,-141.39"/>
</a>
</g>
</g>
<!-- Node28 -->
<g id="Node000028" class="node">
<title>Node28</title>
<g id="a_Node000028"><a xlink:href="class_cpl_1_1_system_1_1_semaphore.html" target="_top" xlink:title="This semaphore class defines the interface for a Counting Semaphore.">
<polygon fill="white" stroke="#666666" points="848.5,-107.21 711.5,-107.21 711.5,-88.21 848.5,-88.21 848.5,-107.21"/>
<text text-anchor="middle" x="780" y="-95.21" font-family="Helvetica,sans-Serif" font-size="10.00">Cpl::System::Semaphore</text>
</a>
</g>
</g>
<!-- Node25&#45;&gt;Node28 -->
<g id="edge34_Node000028_Node000025" class="edge">
<title>Node25&#45;&gt;Node28</title>
<g id="a_edge34_Node000028_Node000025"><a xlink:title=" ">
<path fill="none" stroke="#63b8ff" d="M494.41,-126.51C507.88,-124.85 521.87,-123.18 535,-121.71 594.54,-115.04 662.37,-108.45 711.37,-103.87"/>
<polygon fill="#63b8ff" stroke="#63b8ff" points="493.72,-123.07 484.23,-127.78 494.58,-130.02 493.72,-123.07"/>
</a>
</g>
</g>
<!-- Node26&#45;&gt;Node22 -->
<g id="edge30_Node000022_Node000026" class="edge">
<title>Node26&#45;&gt;Node22</title>
<g id="a_edge30_Node000022_Node000026"><a xlink:title=" ">
<path fill="none" stroke="#9a32cd" stroke-dasharray="5,2" d="M847.77,-171.69C895.45,-173.13 959.46,-181.14 1008,-209.71 1019.19,-216.29 1015.04,-225.75 1026,-232.71 1031.34,-236.1 1037.25,-238.85 1043.36,-241.09"/>
<polygon fill="#9a32cd" stroke="#9a32cd" points="847.62,-168.19 837.55,-171.48 847.48,-175.19 847.62,-168.19"/>
</a>
</g>
<text text-anchor="middle" x="941" y="-212.71" font-family="Helvetica,sans-Serif" font-size="10.00" fill="grey"> m_myThreadPtr</text>
</g>
<!-- Node27 -->
<g id="Node000027" class="node">
<title>Node27</title>
<g id="a_Node000027"><a xlink:href="class_cpl_1_1_system_1_1_shared_event_handler_api.html" target="_top" xlink:title="This abstract class defines the interface for a Shared Event Handler.">
<polygon fill="white" stroke="#666666" points="851.5,-231.71 708.5,-231.71 708.5,-201.71 851.5,-201.71 851.5,-231.71"/>
<text text-anchor="start" x="716.5" y="-219.71" font-family="Helvetica,sans-Serif" font-size="10.00">Cpl::System::SharedEvent</text>
<text text-anchor="middle" x="780" y="-208.71" font-family="Helvetica,sans-Serif" font-size="10.00">HandlerApi</text>
</a>
</g>
</g>
<!-- Node27&#45;&gt;Node22 -->
<g id="edge32_Node000022_Node000027" class="edge">
<title>Node27&#45;&gt;Node22</title>
<g id="a_edge32_Node000022_Node000027"><a xlink:title=" ">
<path fill="none" stroke="#9a32cd" stroke-dasharray="5,2" d="M861.84,-223.37C905.22,-227.16 959.58,-232.22 1008,-237.71 1018.3,-238.87 1029.2,-240.22 1039.82,-241.6"/>
<polygon fill="#9a32cd" stroke="#9a32cd" points="861.89,-219.87 851.63,-222.49 861.29,-226.84 861.89,-219.87"/>
</a>
</g>
<text text-anchor="middle" x="941" y="-240.71" font-family="Helvetica,sans-Serif" font-size="10.00" fill="grey"> m_eventHandler</text>
</g>
<!-- Node28&#45;&gt;Node22 -->
<g id="edge33_Node000022_Node000028" class="edge">
<title>Node28&#45;&gt;Node22</title>
<g id="a_edge33_Node000022_Node000028"><a xlink:title=" ">
<path fill="none" stroke="#9a32cd" stroke-dasharray="5,2" d="M823.63,-85.84C874.36,-74.58 958.4,-65.35 1008,-110.71 1048.45,-147.69 988.78,-192.48 1026,-232.71 1029.92,-236.94 1034.61,-240.28 1039.72,-242.9"/>
<polygon fill="#9a32cd" stroke="#9a32cd" points="822.58,-82.49 813.65,-88.18 824.18,-89.31 822.58,-82.49"/>
</a>
</g>
<text text-anchor="middle" x="941" y="-113.71" font-family="Helvetica,sans-Serif" font-size="10.00" fill="grey"> m_sema</text>
</g>
<!-- Node29 -->
<g id="Node000029" class="node">
<title>Node29</title>
<g id="a_Node000029"><a xlink:href="class_cpl_1_1_dm_1_1_notification_api__.html" target="_top" xlink:title="This class has PACKAGE Scope, i.e.">
<polygon fill="white" stroke="#666666" points="1175.5,-392.21 1036.5,-392.21 1036.5,-373.21 1175.5,-373.21 1175.5,-392.21"/>
<text text-anchor="middle" x="1106" y="-380.21" font-family="Helvetica,sans-Serif" font-size="10.00">Cpl::Dm::NotificationApi_</text>
</a>
</g>
</g>
<!-- Node29&#45;&gt;Node21 -->
<g id="edge35_Node000021_Node000029" class="edge">
<title>Node29&#45;&gt;Node21</title>
<g id="a_edge35_Node000021_Node000029"><a xlink:title=" ">
<path fill="none" stroke="#63b8ff" d="M1185.67,-383.27C1232.2,-383.6 1290.01,-384.01 1331.82,-384.31"/>
<polygon fill="#63b8ff" stroke="#63b8ff" points="1185.64,-379.77 1175.62,-383.2 1185.59,-386.77 1185.64,-379.77"/>
</a>
</g>
</g>
<!-- Node30&#45;&gt;Node21 -->
<g id="edge36_Node000021_Node000030" class="edge">
<title>Node30&#45;&gt;Node21</title>
<g id="a_edge36_Node000021_Node000030"><a xlink:title=" ">
<path fill="none" stroke="#9a32cd" stroke-dasharray="5,2" d="M696.2,-439.99C824.26,-432.57 1074.76,-416.91 1287,-396.71 1301.61,-395.32 1317.38,-393.56 1332,-391.82"/>
<polygon fill="#9a32cd" stroke="#9a32cd" points="695.85,-436.51 686.06,-440.58 696.25,-443.5 695.85,-436.51"/>
</a>
</g>
<text text-anchor="middle" x="941" y="-430.71" font-family="Helvetica,sans-Serif" font-size="10.00" fill="grey"> m_pendingMpNotifications</text>
</g>
<!-- Node31&#45;&gt;Node17 -->
<g id="edge40_Node000017_Node000031" class="edge">
<title>Node31&#45;&gt;Node17</title>
<g id="a_edge40_Node000017_Node000031"><a xlink:title=" ">
<path fill="none" stroke="orange" stroke-dasharray="5,2" d="M2305.63,-370.71C2361.83,-370.71 2433.42,-370.71 2487.76,-370.71"/>
<polygon fill="orange" stroke="orange" points="2305.33,-367.21 2295.33,-370.71 2305.33,-374.21 2305.33,-367.21"/>
</a>
</g>
<text text-anchor="start" x="2313" y="-384.71" font-family="Helvetica,sans-Serif" font-size="10.00" fill="grey"> &lt; Cpl::Dm::Persistent</text>
<text text-anchor="middle" x="2391.5" y="-373.71" font-family="Helvetica,sans-Serif" font-size="10.00" fill="grey">::Record, Cpl::Dm::ModelPoint &gt;</text>
</g>
<!-- Node32&#45;&gt;Node31 -->
<g id="edge41_Node000031_Node000032" class="edge">
<title>Node32&#45;&gt;Node31</title>
<g id="a_edge41_Node000031_Node000032"><a xlink:title=" ">
<path fill="none" stroke="#63b8ff" d="M1985.26,-370.71C2028.88,-370.71 2086.41,-370.71 2132.73,-370.71"/>
<polygon fill="#63b8ff" stroke="#63b8ff" points="1985.05,-367.21 1975.05,-370.71 1985.05,-374.21 1985.05,-367.21"/>
</a>
</g>
</g>
<!-- Node33 -->
<g id="Node000033" class="node">
<title>Node33</title>
<g id="a_Node000033"><a xlink:href="class_cpl_1_1_persistent_1_1_chunk.html" target="_top" xlink:title="This abstract class defines the interface for a Chunk.">
<polygon fill="white" stroke="#666666" points="1980.5,-127.21 1856.5,-127.21 1856.5,-108.21 1980.5,-108.21 1980.5,-127.21"/>
<text text-anchor="middle" x="1918.5" y="-115.21" font-family="Helvetica,sans-Serif" font-size="10.00">Cpl::Persistent::Chunk</text>
</a>
</g>
</g>
<!-- Node33&#45;&gt;Node2 -->
<g id="edge44_Node000002_Node000033" class="edge">
<title>Node33&#45;&gt;Node2</title>
<g id="a_edge44_Node000002_Node000033"><a xlink:title=" ">
<path fill="none" stroke="#9a32cd" stroke-dasharray="5,2" d="M1990.73,-127.82C2029.09,-135.23 2076.34,-147.6 2115,-167.71 2149.39,-185.59 2182.06,-217.66 2199.62,-236.58"/>
<polygon fill="#9a32cd" stroke="#9a32cd" points="1991.15,-124.34 1980.67,-125.95 1989.87,-131.22 1991.15,-124.34"/>
</a>
</g>
<text text-anchor="middle" x="2058.5" y="-170.71" font-family="Helvetica,sans-Serif" font-size="10.00" fill="grey"> m_chunkHandler</text>
</g>
</g>
</svg>
