<?xml version="1.0" encoding="UTF-8" standalone="no"?>
<!DOCTYPE svg PUBLIC "-//W3C//DTD SVG 1.1//EN"
 "http://www.w3.org/Graphics/SVG/1.1/DTD/svg11.dtd">
<!-- Generated by graphviz version 2.43.0 (0)
 -->
<!-- Title: Ajax::Alerts::Summary Pages: 1 -->
<svg width="1993pt" height="513pt"
 viewBox="0.00 0.00 1993.00 512.56" xmlns="http://www.w3.org/2000/svg" xmlns:xlink="http://www.w3.org/1999/xlink">
<g id="graph0" class="graph" transform="scale(1 1) rotate(0) translate(4 508.56)">
<title>Ajax::Alerts::Summary</title>
<!-- Node1 -->
<g id="Node000001" class="node">
<title>Node1</title>
<g id="a_Node000001"><a xlink:title="This class manages the content of the Alert Summary model point.">
<polygon fill="#999999" stroke="#666666" points="1985,-198.56 1859,-198.56 1859,-179.56 1985,-179.56 1985,-198.56"/>
<text text-anchor="middle" x="1922" y="-186.56" font-family="Helvetica,sans-Serif" font-size="10.00">Ajax::Alerts::Summary</text>
</a>
</g>
</g>
<!-- Node2 -->
<g id="Node000002" class="node">
<title>Node2</title>
<g id="a_Node000002"><a xlink:href="class_cpl_1_1_itc_1_1_close_sync.html" target="_top" xlink:title="This partially concrete class implements the synchronous ITC close call for the CloseApi.">
<polygon fill="white" stroke="#666666" points="1733,-373.56 1626,-373.56 1626,-354.56 1733,-354.56 1733,-373.56"/>
<text text-anchor="middle" x="1679.5" y="-361.56" font-family="Helvetica,sans-Serif" font-size="10.00">Cpl::Itc::CloseSync</text>
</a>
</g>
</g>
<!-- Node2&#45;&gt;Node1 -->
<g id="edge1_Node000001_Node000002" class="edge">
<title>Node2&#45;&gt;Node1</title>
<g id="a_edge1_Node000001_Node000002"><a xlink:title=" ">
<path fill="none" stroke="#63b8ff" d="M1702.03,-348.39C1750.75,-312.94 1868.24,-227.45 1907.77,-198.69"/>
<polygon fill="#63b8ff" stroke="#63b8ff" points="1699.8,-345.69 1693.77,-354.4 1703.92,-351.35 1699.8,-345.69"/>
</a>
</g>
</g>
<!-- Node3 -->
<g id="Node000003" class="node">
<title>Node3</title>
<g id="a_Node000003"><a xlink:href="class_cpl_1_1_itc_1_1_open_sync.html" target="_top" xlink:title="This partially concrete class implements the synchronous ITC open call for the OpenApi.">
<polygon fill="white" stroke="#666666" points="1440.5,-448.56 1335.5,-448.56 1335.5,-429.56 1440.5,-429.56 1440.5,-448.56"/>
<text text-anchor="middle" x="1388" y="-436.56" font-family="Helvetica,sans-Serif" font-size="10.00">Cpl::Itc::OpenSync</text>
</a>
</g>
</g>
<!-- Node3&#45;&gt;Node2 -->
<g id="edge2_Node000002_Node000003" class="edge">
<title>Node3&#45;&gt;Node2</title>
<g id="a_edge2_Node000002_Node000003"><a xlink:title=" ">
<path fill="none" stroke="#63b8ff" d="M1435.87,-426.92C1493.3,-412.04 1589.4,-387.14 1641.76,-373.58"/>
<polygon fill="#63b8ff" stroke="#63b8ff" points="1434.76,-423.59 1425.96,-429.48 1436.52,-430.36 1434.76,-423.59"/>
</a>
</g>
</g>
<!-- Node4 -->
<g id="Node000004" class="node">
<title>Node4</title>
<g id="a_Node000004"><a xlink:href="class_cpl_1_1_itc_1_1_open_api.html" target="_top" xlink:title="This abstract class defines an open interface.">
<polygon fill="white" stroke="#666666" points="1096,-504.56 998,-504.56 998,-485.56 1096,-485.56 1096,-504.56"/>
<text text-anchor="middle" x="1047" y="-492.56" font-family="Helvetica,sans-Serif" font-size="10.00">Cpl::Itc::OpenApi</text>
</a>
</g>
</g>
<!-- Node4&#45;&gt;Node3 -->
<g id="edge3_Node000003_Node000004" class="edge">
<title>Node4&#45;&gt;Node3</title>
<g id="a_edge3_Node000003_Node000004"><a xlink:title=" ">
<path fill="none" stroke="#63b8ff" d="M1106.21,-488.09C1153.68,-482.11 1222.37,-472.78 1282,-462.06 1303.49,-458.2 1327.27,-453.06 1346.76,-448.62"/>
<polygon fill="#63b8ff" stroke="#63b8ff" points="1105.61,-484.64 1096.12,-489.35 1106.48,-491.59 1105.61,-484.64"/>
</a>
</g>
</g>
<!-- Node5 -->
<g id="Node000005" class="node">
<title>Node5</title>
<g id="a_Node000005"><a xlink:href="class_cpl_1_1_itc_1_1_open_request.html" target="_top" xlink:title="This abstract class define message types and payloads for a set of ITC services.">
<polygon fill="white" stroke="#666666" points="1108,-467.56 986,-467.56 986,-448.56 1108,-448.56 1108,-467.56"/>
<text text-anchor="middle" x="1047" y="-455.56" font-family="Helvetica,sans-Serif" font-size="10.00">Cpl::Itc::OpenRequest</text>
</a>
</g>
</g>
<!-- Node5&#45;&gt;Node3 -->
<g id="edge4_Node000003_Node000005" class="edge">
<title>Node5&#45;&gt;Node3</title>
<g id="a_edge4_Node000003_Node000005"><a xlink:title=" ">
<path fill="none" stroke="#63b8ff" d="M1118.33,-454.12C1183.02,-450.49 1277.42,-445.2 1335.38,-441.95"/>
<polygon fill="#63b8ff" stroke="#63b8ff" points="1118,-450.63 1108.22,-454.68 1118.4,-457.62 1118,-450.63"/>
</a>
</g>
</g>
<!-- Node6 -->
<g id="Node000006" class="node">
<title>Node6</title>
<g id="a_Node000006"><a xlink:href="class_cpl_1_1_itc_1_1_post_api.html" target="_top" xlink:title="This abstract class represents the interface used to send messages to a mailbox.">
<polygon fill="white" stroke="#666666" points="1093.5,-430.56 1000.5,-430.56 1000.5,-411.56 1093.5,-411.56 1093.5,-430.56"/>
<text text-anchor="middle" x="1047" y="-418.56" font-family="Helvetica,sans-Serif" font-size="10.00">Cpl::Itc::PostApi</text>
</a>
</g>
</g>
<!-- Node6&#45;&gt;Node3 -->
<g id="edge5_Node000003_Node000006" class="edge">
<title>Node6&#45;&gt;Node3</title>
<g id="a_edge5_Node000003_Node000006"><a xlink:title=" ">
<path fill="none" stroke="#9a32cd" stroke-dasharray="5,2" d="M1103.8,-423.83C1151.21,-426.2 1221.07,-429.76 1282,-433.06 1299.41,-434 1318.44,-435.08 1335.47,-436.05"/>
<polygon fill="#9a32cd" stroke="#9a32cd" points="1103.9,-420.33 1093.74,-423.33 1103.55,-427.32 1103.9,-420.33"/>
</a>
</g>
<text text-anchor="middle" x="1215" y="-436.06" font-family="Helvetica,sans-Serif" font-size="10.00" fill="grey"> m_mbox</text>
</g>
<!-- Node7 -->
<g id="Node000007" class="node">
<title>Node7</title>
<g id="a_Node000007"><a xlink:href="class_cpl_1_1_itc_1_1_close_api.html" target="_top" xlink:title="This abstract class defines an close interface.">
<polygon fill="white" stroke="#666666" points="1437.5,-392.56 1338.5,-392.56 1338.5,-373.56 1437.5,-373.56 1437.5,-392.56"/>
<text text-anchor="middle" x="1388" y="-380.56" font-family="Helvetica,sans-Serif" font-size="10.00">Cpl::Itc::CloseApi</text>
</a>
</g>
</g>
<!-- Node7&#45;&gt;Node2 -->
<g id="edge6_Node000002_Node000007" class="edge">
<title>Node7&#45;&gt;Node2</title>
<g id="a_edge6_Node000002_Node000007"><a xlink:title=" ">
<path fill="none" stroke="#63b8ff" d="M1447.88,-379.2C1499.99,-375.78 1575.36,-370.83 1625.59,-367.53"/>
<polygon fill="#63b8ff" stroke="#63b8ff" points="1447.53,-375.71 1437.78,-379.86 1447.99,-382.7 1447.53,-375.71"/>
</a>
</g>
</g>
<!-- Node8 -->
<g id="Node000008" class="node">
<title>Node8</title>
<g id="a_Node000008"><a xlink:href="class_cpl_1_1_itc_1_1_close_request.html" target="_top" xlink:title="This abstract class define message types and payloads for a set of ITC services.">
<polygon fill="white" stroke="#666666" points="1449.5,-355.56 1326.5,-355.56 1326.5,-336.56 1449.5,-336.56 1449.5,-355.56"/>
<text text-anchor="middle" x="1388" y="-343.56" font-family="Helvetica,sans-Serif" font-size="10.00">Cpl::Itc::CloseRequest</text>
</a>
</g>
</g>
<!-- Node8&#45;&gt;Node2 -->
<g id="edge7_Node000002_Node000008" class="edge">
<title>Node8&#45;&gt;Node2</title>
<g id="a_edge7_Node000002_Node000008"><a xlink:title=" ">
<path fill="none" stroke="#63b8ff" d="M1459.7,-350.46C1510.94,-353.64 1579.12,-357.88 1625.67,-360.77"/>
<polygon fill="#63b8ff" stroke="#63b8ff" points="1459.89,-346.96 1449.69,-349.83 1459.45,-353.95 1459.89,-346.96"/>
</a>
</g>
</g>
<!-- Node9 -->
<g id="Node000009" class="node">
<title>Node9</title>
<g id="a_Node000009"><a xlink:href="namespace_cpl_1_1_memory.html#namespace_cpl_1_1_memory" target="_top" xlink:title=" ">
<polygon fill="white" stroke="#666666" points="1753,-257.06 1606,-257.06 1606,-227.06 1753,-227.06 1753,-257.06"/>
<text text-anchor="start" x="1614" y="-245.06" font-family="Helvetica,sans-Serif" font-size="10.00">Cpl::Memory::AlignedClass</text>
<text text-anchor="middle" x="1679.5" y="-234.06" font-family="Helvetica,sans-Serif" font-size="10.00">&lt; AlertObserver &gt;</text>
</a>
</g>
</g>
<!-- Node9&#45;&gt;Node1 -->
<g id="edge8_Node000001_Node000009" class="edge">
<title>Node9&#45;&gt;Node1</title>
<g id="a_edge8_Node000001_Node000009"><a xlink:title=" ">
<path fill="none" stroke="#9a32cd" stroke-dasharray="5,2" d="M1758.65,-224.84C1798.12,-216.14 1844.51,-205.92 1877.58,-198.63"/>
<polygon fill="#9a32cd" stroke="#9a32cd" points="1757.79,-221.44 1748.77,-227.01 1759.29,-228.28 1757.79,-221.44"/>
</a>
</g>
<text text-anchor="middle" x="1806" y="-224.06" font-family="Helvetica,sans-Serif" font-size="10.00" fill="grey"> m_observers</text>
</g>
<!-- Node10 -->
<g id="Node000010" class="node">
<title>Node10</title>
<g id="a_Node000010"><a xlink:href="namespace_cpl_1_1_memory.html#union_cpl_1_1_memory_1_1_aligned_class" target="_top" xlink:title="This type is used to create a memory block that is large enough to hold the memory footprint of ONE i...">
<polygon fill="white" stroke="#666666" points="1476,-280.56 1300,-280.56 1300,-261.56 1476,-261.56 1476,-280.56"/>
<text text-anchor="middle" x="1388" y="-268.56" font-family="Helvetica,sans-Serif" font-size="10.00">Cpl::Memory::AlignedClass&lt; T &gt;</text>
</a>
</g>
</g>
<!-- Node10&#45;&gt;Node9 -->
<g id="edge9_Node000009_Node000010" class="edge">
<title>Node10&#45;&gt;Node9</title>
<g id="a_edge9_Node000009_Node000010"><a xlink:title=" ">
<path fill="none" stroke="orange" stroke-dasharray="5,2" d="M1486.55,-261.29C1525.47,-257.39 1569.51,-252.98 1605.57,-249.37"/>
<polygon fill="orange" stroke="orange" points="1485.85,-257.84 1476.25,-262.32 1486.55,-264.81 1485.85,-257.84"/>
</a>
</g>
<text text-anchor="middle" x="1541" y="-262.06" font-family="Helvetica,sans-Serif" font-size="10.00" fill="grey"> &lt; AlertObserver &gt;</text>
</g>
<!-- Node11 -->
<g id="Node000011" class="node">
<title>Node11</title>
<g id="a_Node000011"><a xlink:href="class_ajax_1_1_dm_1_1_mp_alert.html" target="_top" xlink:title="This class provides a concrete implementation for a basic Alert that has following attributes:">
<polygon fill="white" stroke="#666666" points="1441,-45.56 1335,-45.56 1335,-26.56 1441,-26.56 1441,-45.56"/>
<text text-anchor="middle" x="1388" y="-33.56" font-family="Helvetica,sans-Serif" font-size="10.00">Ajax::Dm::MpAlert</text>
</a>
</g>
</g>
<!-- Node11&#45;&gt;Node1 -->
<g id="edge10_Node000001_Node000011" class="edge">
<title>Node11&#45;&gt;Node1</title>
<g id="a_edge10_Node000001_Node000011"><a xlink:title=" ">
<path fill="none" stroke="#9a32cd" stroke-dasharray="5,2" d="M1451.28,-44.43C1524.73,-55.36 1649.88,-77.29 1753,-112.06 1809.85,-131.23 1873.29,-163.48 1903.36,-179.47"/>
<polygon fill="#9a32cd" stroke="#9a32cd" points="1451.67,-40.95 1441.27,-42.96 1450.66,-47.88 1451.67,-40.95"/>
</a>
</g>
<text text-anchor="middle" x="1679.5" y="-115.06" font-family="Helvetica,sans-Serif" font-size="10.00" fill="grey"> m_alertList</text>
</g>
<!-- Node12 -->
<g id="Node000012" class="node">
<title>Node12</title>
<g id="a_Node000012"><a xlink:href="class_cpl_1_1_dm_1_1_model_point_common__.html" target="_top" xlink:title="This concrete class provide common infrastructure for a Model Point.">
<polygon fill="white" stroke="#666666" points="1130,-45.56 964,-45.56 964,-26.56 1130,-26.56 1130,-45.56"/>
<text text-anchor="middle" x="1047" y="-33.56" font-family="Helvetica,sans-Serif" font-size="10.00">Cpl::Dm::ModelPointCommon_</text>
</a>
</g>
</g>
<!-- Node12&#45;&gt;Node11 -->
<g id="edge11_Node000011_Node000012" class="edge">
<title>Node12&#45;&gt;Node11</title>
<g id="a_edge11_Node000011_Node000012"><a xlink:title=" ">
<path fill="none" stroke="#63b8ff" d="M1140.33,-36.06C1202.88,-36.06 1283.25,-36.06 1334.95,-36.06"/>
<polygon fill="#63b8ff" stroke="#63b8ff" points="1140.06,-32.56 1130.06,-36.06 1140.06,-39.56 1140.06,-32.56"/>
</a>
</g>
</g>
<!-- Node13 -->
<g id="Node000013" class="node">
<title>Node13</title>
<g id="a_Node000013"><a xlink:href="class_cpl_1_1_dm_1_1_model_point.html" target="_top" xlink:title="This mostly abstract class defines the interface for a Model Point.">
<polygon fill="white" stroke="#666666" points="795.5,-27.56 679.5,-27.56 679.5,-8.56 795.5,-8.56 795.5,-27.56"/>
<text text-anchor="middle" x="737.5" y="-15.56" font-family="Helvetica,sans-Serif" font-size="10.00">Cpl::Dm::ModelPoint</text>
</a>
</g>
</g>
<!-- Node13&#45;&gt;Node12 -->
<g id="edge12_Node000012_Node000013" class="edge">
<title>Node13&#45;&gt;Node12</title>
<g id="a_edge12_Node000012_Node000013"><a xlink:title=" ">
<path fill="none" stroke="#63b8ff" d="M805.6,-21.99C852.16,-24.71 914.45,-28.36 963.96,-31.26"/>
<polygon fill="#63b8ff" stroke="#63b8ff" points="805.81,-18.49 795.62,-21.4 805.4,-25.48 805.81,-18.49"/>
</a>
</g>
</g>
<!-- Node14 -->
<g id="Node000014" class="node">
<title>Node14</title>
<g id="a_Node000014"><a xlink:href="class_cpl_1_1_container_1_1_item.html" target="_top" xlink:title="This class is used by the Container classes to implement a various types of singly linked containers.">
<polygon fill="white" stroke="#666666" points="411,-144.56 297,-144.56 297,-125.56 411,-125.56 411,-144.56"/>
<text text-anchor="middle" x="354" y="-132.56" font-family="Helvetica,sans-Serif" font-size="10.00">Cpl::Container::Item</text>
</a>
</g>
</g>
<!-- Node14&#45;&gt;Node13 -->
<g id="edge13_Node000013_Node000014" class="edge">
<title>Node14&#45;&gt;Node13</title>
<g id="a_edge13_Node000013_Node000014"><a xlink:title=" ">
<path fill="none" stroke="#63b8ff" d="M420.09,-124.22C424.06,-121.96 427.76,-119.27 431,-116.06 453.52,-93.76 424.93,-67.67 449,-47.06 517.31,11.42 630.91,2.23 692.89,-8.55"/>
<polygon fill="#63b8ff" stroke="#63b8ff" points="418.56,-121.07 411,-128.5 421.54,-127.4 418.56,-121.07"/>
</a>
</g>
</g>
<!-- Node27 -->
<g id="Node000027" class="node">
<title>Node27</title>
<g id="a_Node000027"><a xlink:href="class_cpl_1_1_system_1_1_signable.html" target="_top" xlink:title="This abstract class defines the interface by which a client can cause an object that is waiting&#45;on&#45;a&#45;...">
<polygon fill="white" stroke="#666666" points="799,-243.56 676,-243.56 676,-224.56 799,-224.56 799,-243.56"/>
<text text-anchor="middle" x="737.5" y="-231.56" font-family="Helvetica,sans-Serif" font-size="10.00">Cpl::System::Signable</text>
</a>
</g>
</g>
<!-- Node14&#45;&gt;Node27 -->
<g id="edge27_Node000027_Node000014" class="edge">
<title>Node14&#45;&gt;Node27</title>
<g id="a_edge27_Node000027_Node000014"><a xlink:title=" ">
<path fill="none" stroke="#63b8ff" d="M420.53,-146.28C424.32,-148.46 427.87,-151.03 431,-154.06 451.93,-174.3 426.28,-198.84 449,-217.06 522.15,-275.7 642.37,-257.56 701.47,-243.66"/>
<polygon fill="#63b8ff" stroke="#63b8ff" points="421.81,-143.01 411.27,-141.88 418.8,-149.34 421.81,-143.01"/>
</a>
</g>
</g>
<!-- Node15 -->
<g id="Node000015" class="node">
<title>Node15</title>
<g id="a_Node000015"><a xlink:href="class_cpl_1_1_container_1_1_d_list.html" target="_top" xlink:title=" ">
<polygon fill="white" stroke="#666666" points="813,-126.06 662,-126.06 662,-96.06 813,-96.06 813,-126.06"/>
<text text-anchor="start" x="670" y="-114.06" font-family="Helvetica,sans-Serif" font-size="10.00">Cpl::Container::DList</text>
<text text-anchor="middle" x="737.5" y="-103.06" font-family="Helvetica,sans-Serif" font-size="10.00">&lt; Cpl::Dm::SubscriberApi &gt;</text>
</a>
</g>
</g>
<!-- Node15&#45;&gt;Node12 -->
<g id="edge14_Node000012_Node000015" class="edge">
<title>Node15&#45;&gt;Node12</title>
<g id="a_edge14_Node000012_Node000015"><a xlink:title=" ">
<path fill="none" stroke="#9a32cd" stroke-dasharray="5,2" d="M814.81,-93.76C871.29,-80.91 939.52,-65.23 946,-63.06 954.3,-60.28 955.7,-57.84 964,-55.06 974.81,-51.44 986.64,-48.27 997.88,-45.6"/>
<polygon fill="#9a32cd" stroke="#9a32cd" points="813.76,-90.41 804.78,-96.05 815.31,-97.24 813.76,-90.41"/>
</a>
</g>
<text text-anchor="middle" x="898" y="-88.06" font-family="Helvetica,sans-Serif" font-size="10.00" fill="grey"> m_subscribers</text>
</g>
<!-- Node23 -->
<g id="Node000023" class="node">
<title>Node23</title>
<g id="a_Node000023"><a xlink:href="class_cpl_1_1_dm_1_1_event_loop.html" target="_top" xlink:title="This class extends the Cpl::System::EventLoop class to support the asynchronous change notification g...">
<polygon fill="white" stroke="#666666" points="1736,-150.56 1623,-150.56 1623,-131.56 1736,-131.56 1736,-150.56"/>
<text text-anchor="middle" x="1679.5" y="-138.56" font-family="Helvetica,sans-Serif" font-size="10.00">Cpl::Dm::EventLoop</text>
</a>
</g>
</g>
<!-- Node15&#45;&gt;Node23 -->
<g id="edge38_Node000023_Node000015" class="edge">
<title>Node15&#45;&gt;Node23</title>
<g id="a_edge38_Node000023_Node000015"><a xlink:title=" ">
<path fill="none" stroke="#9a32cd" stroke-dasharray="5,2" d="M823.22,-113.76C1012.4,-119.8 1464.98,-134.25 1622.95,-139.29"/>
<polygon fill="#9a32cd" stroke="#9a32cd" points="823.15,-110.26 813.05,-113.44 822.93,-117.26 823.15,-110.26"/>
</a>
</g>
<text text-anchor="middle" x="1215" y="-131.06" font-family="Helvetica,sans-Serif" font-size="10.00" fill="grey"> m_pendingMpNotifications</text>
</g>
<!-- Node16 -->
<g id="Node000016" class="node">
<title>Node16</title>
<g id="a_Node000016"><a xlink:href="class_cpl_1_1_container_1_1_d_list.html" target="_top" xlink:title="This template class implements a Doubly linked list which maintains the ordering imposed on it by the...">
<polygon fill="white" stroke="#666666" points="412,-271.06 296,-271.06 296,-241.06 412,-241.06 412,-271.06"/>
<text text-anchor="start" x="304" y="-259.06" font-family="Helvetica,sans-Serif" font-size="10.00">Cpl::Container::DList</text>
<text text-anchor="middle" x="354" y="-248.06" font-family="Helvetica,sans-Serif" font-size="10.00">&lt; ITEM &gt;</text>
</a>
</g>
</g>
<!-- Node16&#45;&gt;Node15 -->
<g id="edge15_Node000015_Node000016" class="edge">
<title>Node16&#45;&gt;Node15</title>
<g id="a_edge15_Node000015_Node000016"><a xlink:title=" ">
<path fill="none" stroke="orange" stroke-dasharray="5,2" d="M404.17,-237.37C480.66,-208.3 626.63,-152.82 696.84,-126.13"/>
<polygon fill="orange" stroke="orange" points="402.85,-234.13 394.75,-240.95 405.34,-240.67 402.85,-234.13"/>
</a>
</g>
<text text-anchor="middle" x="537" y="-220.06" font-family="Helvetica,sans-Serif" font-size="10.00" fill="grey"> &lt; Cpl::Dm::SubscriberApi &gt;</text>
</g>
<!-- Node30 -->
<g id="Node000030" class="node">
<title>Node30</title>
<g id="a_Node000030"><a xlink:href="class_cpl_1_1_container_1_1_d_list.html" target="_top" xlink:title=" ">
<polygon fill="white" stroke="#666666" points="832,-352.06 643,-352.06 643,-322.06 832,-322.06 832,-352.06"/>
<text text-anchor="start" x="651" y="-340.06" font-family="Helvetica,sans-Serif" font-size="10.00">Cpl::Container::DList</text>
<text text-anchor="middle" x="737.5" y="-329.06" font-family="Helvetica,sans-Serif" font-size="10.00">&lt; Cpl::System::CounterCallback_ &gt;</text>
</a>
</g>
</g>
<!-- Node16&#45;&gt;Node30 -->
<g id="edge31_Node000030_Node000016" class="edge">
<title>Node16&#45;&gt;Node30</title>
<g id="a_edge31_Node000030_Node000016"><a xlink:title=" ">
<path fill="none" stroke="orange" stroke-dasharray="5,2" d="M421.92,-270.27C490.26,-284.78 595.94,-307.22 665.67,-322.02"/>
<polygon fill="orange" stroke="orange" points="422.62,-266.84 412.11,-268.19 421.17,-273.69 422.62,-266.84"/>
</a>
</g>
<text text-anchor="middle" x="537" y="-316.06" font-family="Helvetica,sans-Serif" font-size="10.00" fill="grey"> &lt; Cpl::System::CounterCallback_ &gt;</text>
</g>
<!-- Node17 -->
<g id="Node000017" class="node">
<title>Node17</title>
<g id="a_Node000017"><a xlink:href="class_cpl_1_1_dm_1_1_model_database.html" target="_top" xlink:title="This concrete class implements a simple Model Database.">
<polygon fill="white" stroke="#666666" points="806.5,-70.56 668.5,-70.56 668.5,-51.56 806.5,-51.56 806.5,-70.56"/>
<text text-anchor="middle" x="737.5" y="-58.56" font-family="Helvetica,sans-Serif" font-size="10.00">Cpl::Dm::ModelDatabase</text>
</a>
</g>
</g>
<!-- Node17&#45;&gt;Node12 -->
<g id="edge16_Node000012_Node000017" class="edge">
<title>Node17&#45;&gt;Node12</title>
<g id="a_edge16_Node000012_Node000017"><a xlink:title=" ">
<path fill="none" stroke="#9a32cd" stroke-dasharray="5,2" d="M816.74,-54.7C861.7,-51.04 918.12,-46.46 963.73,-42.75"/>
<polygon fill="#9a32cd" stroke="#9a32cd" points="816.43,-51.21 806.74,-55.51 816.99,-58.19 816.43,-51.21"/>
</a>
</g>
<text text-anchor="middle" x="898" y="-54.06" font-family="Helvetica,sans-Serif" font-size="10.00" fill="grey"> m_modelDatabase</text>
</g>
<!-- Node18 -->
<g id="Node000018" class="node">
<title>Node18</title>
<g id="a_Node000018"><a xlink:href="class_cpl_1_1_dm_1_1_model_database_api.html" target="_top" xlink:title="This class defines the basic operations that can be performed on a Model Base.">
<polygon fill="white" stroke="#666666" points="431,-181.56 277,-181.56 277,-162.56 431,-162.56 431,-181.56"/>
<text text-anchor="middle" x="354" y="-169.56" font-family="Helvetica,sans-Serif" font-size="10.00">Cpl::Dm::ModelDatabaseApi</text>
</a>
</g>
</g>
<!-- Node18&#45;&gt;Node17 -->
<g id="edge17_Node000017_Node000018" class="edge">
<title>Node18&#45;&gt;Node17</title>
<g id="a_edge17_Node000017_Node000018"><a xlink:title=" ">
<path fill="none" stroke="#63b8ff" d="M406.71,-160.17C414.85,-158.19 423.17,-156.12 431,-154.06 517.8,-131.27 542.87,-134.23 625,-98.06 633.58,-94.28 634.4,-90.8 643,-87.06 658.61,-80.28 676.45,-74.8 692.34,-70.65"/>
<polygon fill="#63b8ff" stroke="#63b8ff" points="405.81,-156.78 396.9,-162.52 407.44,-163.59 405.81,-156.78"/>
</a>
</g>
</g>
<!-- Node19 -->
<g id="Node000019" class="node">
<title>Node19</title>
<g id="a_Node000019"><a xlink:href="class_cpl_1_1_container_1_1_s_list.html" target="_top" xlink:title=" ">
<polygon fill="white" stroke="#666666" points="423.5,-107.06 284.5,-107.06 284.5,-77.06 423.5,-77.06 423.5,-107.06"/>
<text text-anchor="start" x="292.5" y="-95.06" font-family="Helvetica,sans-Serif" font-size="10.00">Cpl::Container::SList</text>
<text text-anchor="middle" x="354" y="-84.06" font-family="Helvetica,sans-Serif" font-size="10.00">&lt; Cpl::Dm::ModelPoint &gt;</text>
</a>
</g>
</g>
<!-- Node19&#45;&gt;Node17 -->
<g id="edge18_Node000017_Node000019" class="edge">
<title>Node19&#45;&gt;Node17</title>
<g id="a_edge18_Node000017_Node000019"><a xlink:title=" ">
<path fill="none" stroke="#9a32cd" stroke-dasharray="5,2" d="M433.63,-85.67C502.83,-80.05 602.55,-71.94 668.41,-66.59"/>
<polygon fill="#9a32cd" stroke="#9a32cd" points="433.33,-82.18 423.65,-86.48 433.9,-89.16 433.33,-82.18"/>
</a>
</g>
<text text-anchor="middle" x="537" y="-86.06" font-family="Helvetica,sans-Serif" font-size="10.00" fill="grey"> m_list</text>
</g>
<!-- Node20 -->
<g id="Node000020" class="node">
<title>Node20</title>
<g id="a_Node000020"><a xlink:href="class_cpl_1_1_container_1_1_s_list.html" target="_top" xlink:title="This template class implements a singly linked list which maintains the ordering imposed on it by the...">
<polygon fill="white" stroke="#666666" points="115,-107.06 0,-107.06 0,-77.06 115,-77.06 115,-107.06"/>
<text text-anchor="start" x="8" y="-95.06" font-family="Helvetica,sans-Serif" font-size="10.00">Cpl::Container::SList</text>
<text text-anchor="middle" x="57.5" y="-84.06" font-family="Helvetica,sans-Serif" font-size="10.00">&lt; ITEM &gt;</text>
</a>
</g>
</g>
<!-- Node20&#45;&gt;Node19 -->
<g id="edge19_Node000019_Node000020" class="edge">
<title>Node20&#45;&gt;Node19</title>
<g id="a_edge19_Node000019_Node000020"><a xlink:title=" ">
<path fill="none" stroke="orange" stroke-dasharray="5,2" d="M125.47,-92.06C173.01,-92.06 236.61,-92.06 284.49,-92.06"/>
<polygon fill="orange" stroke="orange" points="125.28,-88.56 115.28,-92.06 125.28,-95.56 125.28,-88.56"/>
</a>
</g>
<text text-anchor="middle" x="196" y="-95.06" font-family="Helvetica,sans-Serif" font-size="10.00" fill="grey"> &lt; Cpl::Dm::ModelPoint &gt;</text>
</g>
<!-- Node21 -->
<g id="Node000021" class="node">
<title>Node21</title>
<g id="a_Node000021"><a xlink:href="class_cpl_1_1_system_1_1_mutex.html" target="_top" xlink:title="This mutex class defines the interface for a mutex that has &quot;recursive&quot; semantics.">
<polygon fill="white" stroke="#666666" points="410,-58.56 298,-58.56 298,-39.56 410,-39.56 410,-58.56"/>
<text text-anchor="middle" x="354" y="-46.56" font-family="Helvetica,sans-Serif" font-size="10.00">Cpl::System::Mutex</text>
</a>
</g>
</g>
<!-- Node21&#45;&gt;Node17 -->
<g id="edge20_Node000017_Node000021" class="edge">
<title>Node21&#45;&gt;Node17</title>
<g id="a_edge20_Node000017_Node000021"><a xlink:title=" ">
<path fill="none" stroke="#9a32cd" stroke-dasharray="5,2" d="M420.33,-50.41C475.02,-51.62 555.11,-53.59 625,-56.06 639.04,-56.56 654.07,-57.17 668.4,-57.8"/>
<polygon fill="#9a32cd" stroke="#9a32cd" points="420.16,-46.9 410.08,-50.18 420,-53.9 420.16,-46.9"/>
</a>
</g>
<text text-anchor="middle" x="537" y="-59.06" font-family="Helvetica,sans-Serif" font-size="10.00" fill="grey"> m_lock</text>
</g>
<!-- Node22 -->
<g id="Node000022" class="node">
<title>Node22</title>
<g id="a_Node000022"><a xlink:href="struct_ajax_1_1_dm_1_1_mp_alert_1_1_data.html" target="_top" xlink:title="The MP&#39;s Data container.">
<polygon fill="white" stroke="#666666" points="1114.5,-82.56 979.5,-82.56 979.5,-63.56 1114.5,-63.56 1114.5,-82.56"/>
<text text-anchor="middle" x="1047" y="-70.56" font-family="Helvetica,sans-Serif" font-size="10.00">Ajax::Dm::MpAlert::Data</text>
</a>
</g>
</g>
<!-- Node22&#45;&gt;Node11 -->
<g id="edge21_Node000011_Node000022" class="edge">
<title>Node22&#45;&gt;Node11</title>
<g id="a_edge21_Node000011_Node000022"><a xlink:title=" ">
<path fill="none" stroke="#9a32cd" stroke-dasharray="5,2" d="M1124.77,-66.19C1170.47,-61.93 1229.6,-56.13 1282,-50.06 1299.26,-48.06 1318.09,-45.63 1334.97,-43.36"/>
<polygon fill="#9a32cd" stroke="#9a32cd" points="1124.27,-62.72 1114.64,-67.13 1124.92,-69.69 1124.27,-62.72"/>
</a>
</g>
<text text-anchor="middle" x="1215" y="-66.06" font-family="Helvetica,sans-Serif" font-size="10.00" fill="grey"> m_data</text>
</g>
<!-- Node23&#45;&gt;Node1 -->
<g id="edge22_Node000001_Node000023" class="edge">
<title>Node23&#45;&gt;Node1</title>
<g id="a_edge22_Node000001_Node000023"><a xlink:title=" ">
<path fill="none" stroke="#9a32cd" stroke-dasharray="5,2" d="M1738.22,-152.58C1779.53,-160.82 1834.46,-171.79 1873.29,-179.54"/>
<polygon fill="#9a32cd" stroke="#9a32cd" points="1738.79,-149.13 1728.3,-150.6 1737.42,-155.99 1738.79,-149.13"/>
</a>
</g>
<text text-anchor="middle" x="1806" y="-175.06" font-family="Helvetica,sans-Serif" font-size="10.00" fill="grey"> m_eventLoop</text>
</g>
<!-- Node24 -->
<g id="Node000024" class="node">
<title>Node24</title>
<g id="a_Node000024"><a xlink:href="class_cpl_1_1_system_1_1_event_loop.html" target="_top" xlink:title="This concrete class is a Runnable object that provides a event driven execution model for a thread.">
<polygon fill="white" stroke="#666666" points="1454,-243.56 1322,-243.56 1322,-224.56 1454,-224.56 1454,-243.56"/>
<text text-anchor="middle" x="1388" y="-231.56" font-family="Helvetica,sans-Serif" font-size="10.00">Cpl::System::EventLoop</text>
</a>
</g>
</g>
<!-- Node24&#45;&gt;Node23 -->
<g id="edge23_Node000023_Node000024" class="edge">
<title>Node24&#45;&gt;Node23</title>
<g id="a_edge23_Node000023_Node000024"><a xlink:title=" ">
<path fill="none" stroke="#63b8ff" d="M1428.27,-221.44C1486.93,-202.6 1596.13,-167.52 1648.7,-150.63"/>
<polygon fill="#63b8ff" stroke="#63b8ff" points="1427.07,-218.15 1418.62,-224.54 1429.21,-224.82 1427.07,-218.15"/>
</a>
</g>
</g>
<!-- Node25 -->
<g id="Node000025" class="node">
<title>Node25</title>
<g id="a_Node000025"><a xlink:href="class_cpl_1_1_system_1_1_runnable.html" target="_top" xlink:title="This is an abstract class defines the interface for an object that is &quot;executed&quot; when a Thread object...">
<polygon fill="white" stroke="#666666" points="1110.5,-393.56 983.5,-393.56 983.5,-374.56 1110.5,-374.56 1110.5,-393.56"/>
<text text-anchor="middle" x="1047" y="-381.56" font-family="Helvetica,sans-Serif" font-size="10.00">Cpl::System::Runnable</text>
</a>
</g>
</g>
<!-- Node25&#45;&gt;Node24 -->
<g id="edge24_Node000024_Node000025" class="edge">
<title>Node25&#45;&gt;Node24</title>
<g id="a_edge24_Node000024_Node000025"><a xlink:title=" ">
<path fill="none" stroke="#63b8ff" d="M1120.85,-393.87C1172.55,-396.51 1239.97,-390.47 1282,-350.06 1313.61,-319.67 1269.49,-284.55 1300,-253.06 1306.02,-246.84 1313.58,-242.44 1321.7,-239.34"/>
<polygon fill="#63b8ff" stroke="#63b8ff" points="1120.93,-390.37 1110.73,-393.24 1120.49,-397.36 1120.93,-390.37"/>
</a>
</g>
</g>
<!-- Node26 -->
<g id="Node000026" class="node">
<title>Node26</title>
<g id="a_Node000026"><a xlink:href="class_cpl_1_1_system_1_1_event_flag.html" target="_top" xlink:title="This abstract class defines the interface to generated a &#39;Event Flag&#39;.">
<polygon fill="white" stroke="#666666" points="1112,-356.56 982,-356.56 982,-337.56 1112,-337.56 1112,-356.56"/>
<text text-anchor="middle" x="1047" y="-344.56" font-family="Helvetica,sans-Serif" font-size="10.00">Cpl::System::EventFlag</text>
</a>
</g>
</g>
<!-- Node26&#45;&gt;Node24 -->
<g id="edge25_Node000024_Node000026" class="edge">
<title>Node26&#45;&gt;Node24</title>
<g id="a_edge25_Node000024_Node000026"><a xlink:title=" ">
<path fill="none" stroke="#63b8ff" d="M1122.5,-356.86C1173.23,-359.25 1238.76,-353.39 1282,-316.06 1304.04,-297.03 1278.77,-272.99 1300,-253.06 1306.2,-247.24 1313.75,-243.04 1321.79,-240.04"/>
<polygon fill="#63b8ff" stroke="#63b8ff" points="1122.43,-353.35 1112.24,-356.25 1122.02,-360.33 1122.43,-353.35"/>
</a>
</g>
</g>
<!-- Node27&#45;&gt;Node24 -->
<g id="edge26_Node000024_Node000027" class="edge">
<title>Node27&#45;&gt;Node24</title>
<g id="a_edge26_Node000024_Node000027"><a xlink:title=" ">
<path fill="none" stroke="#63b8ff" d="M809.35,-243.83C822.83,-245.44 836.83,-246.95 850,-248.06 1041.32,-264.24 1090.68,-265.19 1282,-249.06 1297.23,-247.78 1313.62,-245.75 1328.82,-243.59"/>
<polygon fill="#63b8ff" stroke="#63b8ff" points="809.52,-240.33 799.17,-242.58 808.67,-247.27 809.52,-240.33"/>
</a>
</g>
</g>
<!-- Node31 -->
<g id="Node000031" class="node">
<title>Node31</title>
<g id="a_Node000031"><a xlink:href="class_cpl_1_1_system_1_1_thread.html" target="_top" xlink:title="This abstract class defines the operations that can be performed on a thread.">
<polygon fill="white" stroke="#666666" points="1104.5,-206.56 989.5,-206.56 989.5,-187.56 1104.5,-187.56 1104.5,-206.56"/>
<text text-anchor="middle" x="1047" y="-194.56" font-family="Helvetica,sans-Serif" font-size="10.00">Cpl::System::Thread</text>
</a>
</g>
</g>
<!-- Node27&#45;&gt;Node31 -->
<g id="edge33_Node000031_Node000027" class="edge">
<title>Node27&#45;&gt;Node31</title>
<g id="a_edge33_Node000031_Node000027"><a xlink:title=" ">
<path fill="none" stroke="#63b8ff" d="M809.21,-225.55C863.86,-218.98 938.49,-210 989.27,-203.89"/>
<polygon fill="#63b8ff" stroke="#63b8ff" points="808.76,-222.08 799.25,-226.75 809.6,-229.03 808.76,-222.08"/>
</a>
</g>
</g>
<!-- Node33 -->
<g id="Node000033" class="node">
<title>Node33</title>
<g id="a_Node000033"><a xlink:href="class_cpl_1_1_system_1_1_semaphore.html" target="_top" xlink:title="This semaphore class defines the interface for a Counting Semaphore.">
<polygon fill="white" stroke="#666666" points="1115.5,-243.56 978.5,-243.56 978.5,-224.56 1115.5,-224.56 1115.5,-243.56"/>
<text text-anchor="middle" x="1047" y="-231.56" font-family="Helvetica,sans-Serif" font-size="10.00">Cpl::System::Semaphore</text>
</a>
</g>
</g>
<!-- Node27&#45;&gt;Node33 -->
<g id="edge36_Node000033_Node000027" class="edge">
<title>Node27&#45;&gt;Node33</title>
<g id="a_edge36_Node000033_Node000027"><a xlink:title=" ">
<path fill="none" stroke="#63b8ff" d="M809.5,-234.06C860.35,-234.06 928.38,-234.06 978.43,-234.06"/>
<polygon fill="#63b8ff" stroke="#63b8ff" points="809.25,-230.56 799.25,-234.06 809.25,-237.56 809.25,-230.56"/>
</a>
</g>
</g>
<!-- Node28 -->
<g id="Node000028" class="node">
<title>Node28</title>
<g id="a_Node000028"><a xlink:href="class_cpl_1_1_system_1_1_timer_manager.html" target="_top" xlink:title="This mostly concrete class implements manages a list of Software Timers.">
<polygon fill="white" stroke="#666666" points="1123,-319.56 971,-319.56 971,-300.56 1123,-300.56 1123,-319.56"/>
<text text-anchor="middle" x="1047" y="-307.56" font-family="Helvetica,sans-Serif" font-size="10.00">Cpl::System::TimerManager</text>
</a>
</g>
</g>
<!-- Node28&#45;&gt;Node24 -->
<g id="edge28_Node000024_Node000028" class="edge">
<title>Node28&#45;&gt;Node24</title>
<g id="a_edge28_Node000024_Node000028"><a xlink:title=" ">
<path fill="none" stroke="#63b8ff" d="M1133.28,-319.79C1180.73,-320.93 1238.75,-314.82 1282,-286.06 1295.91,-276.81 1286.63,-263.08 1300,-253.06 1306.43,-248.24 1313.84,-244.59 1321.57,-241.84"/>
<polygon fill="#63b8ff" stroke="#63b8ff" points="1133.14,-316.28 1123.02,-319.43 1132.89,-323.28 1133.14,-316.28"/>
</a>
</g>
</g>
<!-- Node29 -->
<g id="Node000029" class="node">
<title>Node29</title>
<g id="a_Node000029"><a xlink:href="class_cpl_1_1_system_1_1_counter_source__.html" target="_top" xlink:title="This abstract class defines the interface for registering for an Counter object with the Timer Manage...">
<polygon fill="white" stroke="#666666" points="816.5,-303.56 658.5,-303.56 658.5,-284.56 816.5,-284.56 816.5,-303.56"/>
<text text-anchor="middle" x="737.5" y="-291.56" font-family="Helvetica,sans-Serif" font-size="10.00">Cpl::System::CounterSource_</text>
</a>
</g>
</g>
<!-- Node29&#45;&gt;Node28 -->
<g id="edge29_Node000028_Node000029" class="edge">
<title>Node29&#45;&gt;Node28</title>
<g id="a_edge29_Node000028_Node000029"><a xlink:title=" ">
<path fill="none" stroke="#63b8ff" d="M827.05,-298.67C872.59,-301.04 927.5,-303.89 970.93,-306.15"/>
<polygon fill="#63b8ff" stroke="#63b8ff" points="827.06,-295.16 816.89,-298.14 826.7,-302.15 827.06,-295.16"/>
</a>
</g>
</g>
<!-- Node30&#45;&gt;Node28 -->
<g id="edge30_Node000028_Node000030" class="edge">
<title>Node30&#45;&gt;Node28</title>
<g id="a_edge30_Node000028_Node000030"><a xlink:title=" ">
<path fill="none" stroke="#9a32cd" stroke-dasharray="5,2" d="M842.05,-327.97C884.28,-324.26 932.18,-320.05 970.95,-316.65"/>
<polygon fill="#9a32cd" stroke="#9a32cd" points="841.67,-324.49 832.01,-328.85 842.28,-331.46 841.67,-324.49"/>
</a>
</g>
<text text-anchor="middle" x="898" y="-340.06" font-family="Helvetica,sans-Serif" font-size="10.00" fill="grey"> m_counters</text>
<text text-anchor="middle" x="898" y="-329.06" font-family="Helvetica,sans-Serif" font-size="10.00" fill="grey">m_pendingAttach</text>
</g>
<!-- Node31&#45;&gt;Node24 -->
<g id="edge32_Node000024_Node000031" class="edge">
<title>Node31&#45;&gt;Node24</title>
<g id="a_edge32_Node000024_Node000031"><a xlink:title=" ">
<path fill="none" stroke="#9a32cd" stroke-dasharray="5,2" d="M1114.85,-202.48C1161.7,-206.5 1225.75,-212.4 1282,-219.06 1295.53,-220.66 1310.01,-222.59 1323.77,-224.52"/>
<polygon fill="#9a32cd" stroke="#9a32cd" points="1115.08,-198.99 1104.82,-201.63 1114.49,-205.97 1115.08,-198.99"/>
</a>
</g>
<text text-anchor="middle" x="1215" y="-222.06" font-family="Helvetica,sans-Serif" font-size="10.00" fill="grey"> m_myThreadPtr</text>
</g>
<!-- Node32 -->
<g id="Node000032" class="node">
<title>Node32</title>
<g id="a_Node000032"><a xlink:href="class_cpl_1_1_system_1_1_shared_event_handler_api.html" target="_top" xlink:title="This abstract class defines the interface for a Shared Event Handler.">
<polygon fill="white" stroke="#666666" points="1118.5,-169.06 975.5,-169.06 975.5,-139.06 1118.5,-139.06 1118.5,-169.06"/>
<text text-anchor="start" x="983.5" y="-157.06" font-family="Helvetica,sans-Serif" font-size="10.00">Cpl::System::SharedEvent</text>
<text text-anchor="middle" x="1047" y="-146.06" font-family="Helvetica,sans-Serif" font-size="10.00">HandlerApi</text>
</a>
</g>
</g>
<!-- Node32&#45;&gt;Node24 -->
<g id="edge34_Node000024_Node000032" class="edge">
<title>Node32&#45;&gt;Node24</title>
<g id="a_edge34_Node000024_Node000032"><a xlink:title=" ">
<path fill="none" stroke="#9a32cd" stroke-dasharray="5,2" d="M1128.71,-161.56C1174.29,-167.01 1231.98,-175.96 1282,-190.06 1313.2,-198.85 1347.52,-214.44 1368.15,-224.5"/>
<polygon fill="#9a32cd" stroke="#9a32cd" points="1128.92,-158.06 1118.58,-160.38 1128.11,-165.01 1128.92,-158.06"/>
</a>
</g>
<text text-anchor="middle" x="1215" y="-193.06" font-family="Helvetica,sans-Serif" font-size="10.00" fill="grey"> m_eventHandler</text>
</g>
<!-- Node33&#45;&gt;Node24 -->
<g id="edge35_Node000024_Node000033" class="edge">
<title>Node33&#45;&gt;Node24</title>
<g id="a_edge35_Node000024_Node000033"><a xlink:title=" ">
<path fill="none" stroke="#9a32cd" stroke-dasharray="5,2" d="M1125.86,-234.06C1185.21,-234.06 1265.99,-234.06 1321.92,-234.06"/>
<polygon fill="#9a32cd" stroke="#9a32cd" points="1125.79,-230.56 1115.79,-234.06 1125.79,-237.56 1125.79,-230.56"/>
</a>
</g>
<text text-anchor="middle" x="1215" y="-237.06" font-family="Helvetica,sans-Serif" font-size="10.00" fill="grey"> m_sema</text>
</g>
<!-- Node34 -->
<g id="Node000034" class="node">
<title>Node34</title>
<g id="a_Node000034"><a xlink:href="class_cpl_1_1_dm_1_1_notification_api__.html" target="_top" xlink:title="This class has PACKAGE Scope, i.e.">
<polygon fill="white" stroke="#666666" points="1457.5,-82.56 1318.5,-82.56 1318.5,-63.56 1457.5,-63.56 1457.5,-82.56"/>
<text text-anchor="middle" x="1388" y="-70.56" font-family="Helvetica,sans-Serif" font-size="10.00">Cpl::Dm::NotificationApi_</text>
</a>
</g>
</g>
<!-- Node34&#45;&gt;Node23 -->
<g id="edge37_Node000023_Node000034" class="edge">
<title>Node34&#45;&gt;Node23</title>
<g id="a_edge37_Node000023_Node000034"><a xlink:title=" ">
<path fill="none" stroke="#63b8ff" d="M1468.06,-76.55C1505.07,-79.7 1549.4,-85.7 1588,-97.06 1615.65,-105.2 1645.26,-121.13 1662.81,-131.42"/>
<polygon fill="#63b8ff" stroke="#63b8ff" points="1468.08,-73.04 1457.83,-75.73 1467.52,-80.01 1468.08,-73.04"/>
</a>
</g>
</g>
</g>
</svg>
