<?xml version="1.0" encoding="UTF-8" standalone="no"?>
<!DOCTYPE svg PUBLIC "-//W3C//DTD SVG 1.1//EN"
 "http://www.w3.org/Graphics/SVG/1.1/DTD/svg11.dtd">
<!-- Generated by graphviz version 2.43.0 (0)
 -->
<!-- Title: Cpl::MApp::MApp_ Pages: 1 -->
<svg width="462pt" height="192pt"
 viewBox="0.00 0.00 461.50 192.00" xmlns="http://www.w3.org/2000/svg" xmlns:xlink="http://www.w3.org/1999/xlink">
<g id="graph0" class="graph" transform="scale(1 1) rotate(0) translate(4 188)">
<title>Cpl::MApp::MApp_</title>
<!-- Node1 -->
<g id="Node000001" class="node">
<title>Node1</title>
<g id="a_Node000001"><a xlink:title="This partial concrete class provide common infrastructure that is common to all MApp instances.">
<polygon fill="#999999" stroke="#666666" points="285,-74 180,-74 180,-55 285,-55 285,-74"/>
<text text-anchor="middle" x="232.5" y="-62" font-family="Helvetica,sans-Serif" font-size="10.00">Cpl::MApp::MApp_</text>
</a>
</g>
</g>
<!-- Node4 -->
<g id="Node000004" class="node">
<title>Node4</title>
<g id="a_Node000004"><a xlink:href="class_cpl_1_1_m_app_1_1_temperature_1_1_api.html" target="_top" xlink:title="This concrete class implements MApp the polls a model point for a temperature value and periodically ...">
<polygon fill="white" stroke="#666666" points="155,-19 0,-19 0,0 155,0 155,-19"/>
<text text-anchor="middle" x="77.5" y="-7" font-family="Helvetica,sans-Serif" font-size="10.00">Cpl::MApp::Temperature::Api</text>
</a>
</g>
</g>
<!-- Node1&#45;&gt;Node4 -->
<g id="edge3_Node000001_Node000004" class="edge">
<title>Node1&#45;&gt;Node4</title>
<g id="a_edge3_Node000001_Node000004"><a xlink:title=" ">
<path fill="none" stroke="#63b8ff" d="M197.9,-51.67C169,-41.79 128.47,-27.93 102.6,-19.08"/>
<polygon fill="#63b8ff" stroke="#63b8ff" points="197,-55.06 207.6,-54.98 199.27,-48.44 197,-55.06"/>
</a>
</g>
</g>
<!-- Node5 -->
<g id="Node000005" class="node">
<title>Node5</title>
<g id="a_Node000005"><a xlink:href="class_eros_1_1_test_1_1_cycle_1_1_api.html" target="_top" xlink:title="This concrete class implements MApp the duty cycles the heating equipment based on command arguments.">
<polygon fill="white" stroke="#666666" points="291.5,-19 173.5,-19 173.5,0 291.5,0 291.5,-19"/>
<text text-anchor="middle" x="232.5" y="-7" font-family="Helvetica,sans-Serif" font-size="10.00">Eros::Test::Cycle::Api</text>
</a>
</g>
</g>
<!-- Node1&#45;&gt;Node5 -->
<g id="edge4_Node000001_Node000005" class="edge">
<title>Node1&#45;&gt;Node5</title>
<g id="a_edge4_Node000001_Node000005"><a xlink:title=" ">
<path fill="none" stroke="#63b8ff" d="M232.5,-44.66C232.5,-35.93 232.5,-25.99 232.5,-19.09"/>
<polygon fill="#63b8ff" stroke="#63b8ff" points="229,-44.75 232.5,-54.75 236,-44.75 229,-44.75"/>
</a>
</g>
</g>
<!-- Node6 -->
<g id="Node000006" class="node">
<title>Node6</title>
<g id="a_Node000006"><a xlink:href="class_eros_1_1_test_1_1_thermistor_1_1_api.html" target="_top" xlink:title="This concrete class implements MApp the monitors the output of the specialized Eros Thermistor driver...">
<polygon fill="white" stroke="#666666" points="453.5,-19 309.5,-19 309.5,0 453.5,0 453.5,-19"/>
<text text-anchor="middle" x="381.5" y="-7" font-family="Helvetica,sans-Serif" font-size="10.00">Eros::Test::Thermistor::Api</text>
</a>
</g>
</g>
<!-- Node1&#45;&gt;Node6 -->
<g id="edge5_Node000001_Node000006" class="edge">
<title>Node1&#45;&gt;Node6</title>
<g id="a_edge5_Node000001_Node000006"><a xlink:title=" ">
<path fill="none" stroke="#63b8ff" d="M266.09,-51.55C293.76,-41.71 332.34,-27.98 357.12,-19.17"/>
<polygon fill="#63b8ff" stroke="#63b8ff" points="264.69,-48.34 256.44,-54.98 267.03,-54.93 264.69,-48.34"/>
</a>
</g>
</g>
<!-- Node2 -->
<g id="Node000002" class="node">
<title>Node2</title>
<g id="a_Node000002"><a xlink:href="class_cpl_1_1_m_app_1_1_m_app_api.html" target="_top" xlink:title="This abstract class defines the interface for a Micro Application (MApp).">
<polygon fill="white" stroke="#666666" points="290.5,-129 174.5,-129 174.5,-110 290.5,-110 290.5,-129"/>
<text text-anchor="middle" x="232.5" y="-117" font-family="Helvetica,sans-Serif" font-size="10.00">Cpl::MApp::MAppApi</text>
</a>
</g>
</g>
<!-- Node2&#45;&gt;Node1 -->
<g id="edge1_Node000001_Node000002" class="edge">
<title>Node2&#45;&gt;Node1</title>
<g id="a_edge1_Node000001_Node000002"><a xlink:title=" ">
<path fill="none" stroke="#63b8ff" d="M232.5,-99.66C232.5,-90.93 232.5,-80.99 232.5,-74.09"/>
<polygon fill="#63b8ff" stroke="#63b8ff" points="229,-99.75 232.5,-109.75 236,-99.75 229,-99.75"/>
</a>
</g>
</g>
<!-- Node3 -->
<g id="Node000003" class="node">
<title>Node3</title>
<g id="a_Node000003"><a xlink:href="class_cpl_1_1_container_1_1_item.html" target="_top" xlink:title="This class is used by the Container classes to implement a various types of singly linked containers.">
<polygon fill="white" stroke="#666666" points="289.5,-184 175.5,-184 175.5,-165 289.5,-165 289.5,-184"/>
<text text-anchor="middle" x="232.5" y="-172" font-family="Helvetica,sans-Serif" font-size="10.00">Cpl::Container::Item</text>
</a>
</g>
</g>
<!-- Node3&#45;&gt;Node2 -->
<g id="edge2_Node000002_Node000003" class="edge">
<title>Node3&#45;&gt;Node2</title>
<g id="a_edge2_Node000002_Node000003"><a xlink:title=" ">
<path fill="none" stroke="#63b8ff" d="M232.5,-154.66C232.5,-145.93 232.5,-135.99 232.5,-129.09"/>
<polygon fill="#63b8ff" stroke="#63b8ff" points="229,-154.75 232.5,-164.75 236,-154.75 229,-154.75"/>
</a>
</g>
</g>
</g>
</svg>
