<?xml version="1.0" encoding="UTF-8" standalone="no"?>
<!DOCTYPE svg PUBLIC "-//W3C//DTD SVG 1.1//EN"
 "http://www.w3.org/Graphics/SVG/1.1/DTD/svg11.dtd">
<!-- Generated by graphviz version 9.0.0 (20230911.1827)
 -->
<!-- Title: Cpl::Io::Stdio::StdErr Pages: 1 -->
<svg width="184pt" height="248pt"
 viewBox="0.00 0.00 184.12 248.25" xmlns="http://www.w3.org/2000/svg" xmlns:xlink="http://www.w3.org/1999/xlink">
<g id="graph0" class="graph" transform="scale(1 1) rotate(0) translate(4 244.25)">
<title>Cpl::Io::Stdio::StdErr</title>
<!-- Node1 -->
<g id="Node000001" class="node">
<title>Node1</title>
<g id="a_Node000001"><a xlink:title="This concrete class represents the C&#45;library &#39;stderr&#39; stream.">
<polygon fill="#999999" stroke="#666666" points="145.75,-19.25 44.25,-19.25 44.25,0 145.75,0 145.75,-19.25"/>
<text text-anchor="middle" x="95" y="-5.75" font-family="Helvetica,sans-Serif" font-size="10.00">Cpl::Io::Stdio::StdErr</text>
</a>
</g>
</g>
<!-- Node2 -->
<g id="Node000002" class="node">
<title>Node2</title>
<g id="a_Node000002"><a xlink:href="class_cpl_1_1_io_1_1_stdio_1_1_output__.html" target="_top" xlink:title="This concrete class implements a Output stream using the underlying platform&#39;s native OS &#39;file interf...">
<polygon fill="white" stroke="#666666" points="149.5,-74.5 40.5,-74.5 40.5,-55.25 149.5,-55.25 149.5,-74.5"/>
<text text-anchor="middle" x="95" y="-61" font-family="Helvetica,sans-Serif" font-size="10.00">Cpl::Io::Stdio::Output_</text>
</a>
</g>
</g>
<!-- Node2&#45;&gt;Node1 -->
<g id="edge1_Node000001_Node000002" class="edge">
<title>Node2&#45;&gt;Node1</title>
<g id="a_edge1_Node000001_Node000002"><a xlink:title=" ">
<path fill="none" stroke="#63b8ff" d="M95,-43.63C95,-35.34 95,-26.17 95,-19.61"/>
<polygon fill="#63b8ff" stroke="#63b8ff" points="91.5,-43.57 95,-53.57 98.5,-43.57 91.5,-43.57"/>
</a>
</g>
</g>
<!-- Node3 -->
<g id="Node000003" class="node">
<title>Node3</title>
<g id="a_Node000003"><a xlink:href="class_cpl_1_1_io_1_1_output.html" target="_top" xlink:title="This partially abstract class defines a interface for operating on an output stream (example of a str...">
<polygon fill="white" stroke="#666666" points="133.38,-129.75 56.62,-129.75 56.62,-110.5 133.38,-110.5 133.38,-129.75"/>
<text text-anchor="middle" x="95" y="-116.25" font-family="Helvetica,sans-Serif" font-size="10.00">Cpl::Io::Output</text>
</a>
</g>
</g>
<!-- Node3&#45;&gt;Node2 -->
<g id="edge2_Node000002_Node000003" class="edge">
<title>Node3&#45;&gt;Node2</title>
<g id="a_edge2_Node000002_Node000003"><a xlink:title=" ">
<path fill="none" stroke="#63b8ff" d="M95,-98.88C95,-90.59 95,-81.42 95,-74.86"/>
<polygon fill="#63b8ff" stroke="#63b8ff" points="91.5,-98.82 95,-108.82 98.5,-98.82 91.5,-98.82"/>
</a>
</g>
</g>
<!-- Node4 -->
<g id="Node000004" class="node">
<title>Node4</title>
<g id="a_Node000004"><a xlink:href="class_cpl_1_1_io_1_1_close.html" target="_top" xlink:title="This abstract class defines a close operation that is intended to be used Input and Output streams/fi...">
<polygon fill="white" stroke="#666666" points="86.12,-185 13.88,-185 13.88,-165.75 86.12,-165.75 86.12,-185"/>
<text text-anchor="middle" x="50" y="-171.5" font-family="Helvetica,sans-Serif" font-size="10.00">Cpl::Io::Close</text>
</a>
</g>
</g>
<!-- Node4&#45;&gt;Node3 -->
<g id="edge3_Node000003_Node000004" class="edge">
<title>Node4&#45;&gt;Node3</title>
<g id="a_edge3_Node000003_Node000004"><a xlink:title=" ">
<path fill="none" stroke="#63b8ff" d="M64.68,-157.01C72.26,-148.03 81.21,-137.45 87.41,-130.11"/>
<polygon fill="#63b8ff" stroke="#63b8ff" points="62.19,-154.53 58.41,-164.43 67.54,-159.05 62.19,-154.53"/>
</a>
</g>
</g>
<!-- Node5 -->
<g id="Node000005" class="node">
<title>Node5</title>
<g id="a_Node000005"><a xlink:href="class_cpl_1_1_container_1_1_item.html" target="_top" xlink:title="This class is used by the Container classes to implement a various types of singly linked containers.">
<polygon fill="white" stroke="#666666" points="100,-240.25 0,-240.25 0,-221 100,-221 100,-240.25"/>
<text text-anchor="middle" x="50" y="-226.75" font-family="Helvetica,sans-Serif" font-size="10.00">Cpl::Container::Item</text>
</a>
</g>
</g>
<!-- Node5&#45;&gt;Node4 -->
<g id="edge4_Node000004_Node000005" class="edge">
<title>Node5&#45;&gt;Node4</title>
<g id="a_edge4_Node000004_Node000005"><a xlink:title=" ">
<path fill="none" stroke="#63b8ff" d="M50,-209.38C50,-201.09 50,-191.92 50,-185.36"/>
<polygon fill="#63b8ff" stroke="#63b8ff" points="46.5,-209.32 50,-219.32 53.5,-209.32 46.5,-209.32"/>
</a>
</g>
</g>
<!-- Node6 -->
<g id="Node000006" class="node">
<title>Node6</title>
<g id="a_Node000006"><a xlink:href="class_cpl_1_1_io_1_1_is_eos.html" target="_top" xlink:title="This abstract class defines a isEos() operation that is intended to be used Input and Output streams.">
<polygon fill="white" stroke="#666666" points="176.12,-185 103.88,-185 103.88,-165.75 176.12,-165.75 176.12,-185"/>
<text text-anchor="middle" x="140" y="-171.5" font-family="Helvetica,sans-Serif" font-size="10.00">Cpl::Io::IsEos</text>
</a>
</g>
</g>
<!-- Node6&#45;&gt;Node3 -->
<g id="edge5_Node000003_Node000006" class="edge">
<title>Node6&#45;&gt;Node3</title>
<g id="a_edge5_Node000003_Node000006"><a xlink:title=" ">
<path fill="none" stroke="#63b8ff" d="M125.32,-157.01C117.74,-148.03 108.79,-137.45 102.59,-130.11"/>
<polygon fill="#63b8ff" stroke="#63b8ff" points="122.46,-159.05 131.59,-164.43 127.81,-154.53 122.46,-159.05"/>
</a>
</g>
</g>
</g>
</svg>
