<?xml version="1.0" encoding="UTF-8" standalone="no"?>
<!DOCTYPE svg PUBLIC "-//W3C//DTD SVG 1.1//EN"
 "http://www.w3.org/Graphics/SVG/1.1/DTD/svg11.dtd">
<!-- Generated by graphviz version 9.0.0 (20230911.1827)
 -->
<!-- Title: Cpl::Memory::SPool&lt; T, N &gt; Pages: 1 -->
<svg width="171pt" height="296pt"
 viewBox="0.00 0.00 171.00 296.25" xmlns="http://www.w3.org/2000/svg" xmlns:xlink="http://www.w3.org/1999/xlink">
<g id="graph0" class="graph" transform="scale(1 1) rotate(0) translate(4 292.25)">
<title>Cpl::Memory::SPool&lt; T, N &gt;</title>
<!-- Node1 -->
<g id="Node000001" class="node">
<title>Node1</title>
<g id="a_Node000001"><a xlink:title="This template class defines a concrete Allocator that STATICALLY allocates all of its Memory and can ...">
<polygon fill="#999999" stroke="#666666" points="131.5,-175.75 31.5,-175.75 31.5,-145.25 131.5,-145.25 131.5,-175.75"/>
<text text-anchor="start" x="39.5" y="-162.25" font-family="Helvetica,sans-Serif" font-size="10.00">Cpl::Memory::SPool</text>
<text text-anchor="middle" x="81.5" y="-151" font-family="Helvetica,sans-Serif" font-size="10.00">&lt; T, N &gt;</text>
</a>
</g>
</g>
<!-- Node4 -->
<g id="Node000004" class="node">
<title>Node4</title>
<g id="a_Node000004"><a xlink:href="class_cpl_1_1_memory_1_1_s_pool.html" target="_top" xlink:title=" ">
<polygon fill="white" stroke="#666666" points="163,-86.75 0,-86.75 0,-56.25 163,-56.25 163,-86.75"/>
<text text-anchor="start" x="8" y="-73.25" font-family="Helvetica,sans-Serif" font-size="10.00">Cpl::Memory::SPool</text>
<text text-anchor="middle" x="81.5" y="-62" font-family="Helvetica,sans-Serif" font-size="10.00">&lt; Cpl::Io::Socket::InputOutput, N &gt;</text>
</a>
</g>
</g>
<!-- Node1&#45;&gt;Node4 -->
<g id="edge3_Node000001_Node000004" class="edge">
<title>Node1&#45;&gt;Node4</title>
<g id="a_edge3_Node000001_Node000004"><a xlink:title=" ">
<path fill="none" stroke="orange" stroke-dasharray="5,2" d="M81.5,-133.87C81.5,-118.66 81.5,-99.92 81.5,-87.18"/>
<polygon fill="orange" stroke="orange" points="78,-133.62 81.5,-143.62 85,-133.62 78,-133.62"/>
</a>
</g>
<text text-anchor="start" x="81.5" y="-117.75" font-family="Helvetica,sans-Serif" font-size="10.00" fill="grey"> &lt; Cpl::Io::Socket::</text>
<text text-anchor="middle" x="120.12" y="-106.5" font-family="Helvetica,sans-Serif" font-size="10.00" fill="grey">InputOutput, N &gt;</text>
</g>
<!-- Node2 -->
<g id="Node000002" class="node">
<title>Node2</title>
<g id="a_Node000002"><a xlink:href="class_cpl_1_1_memory_1_1_allocator.html" target="_top" xlink:title="This abstract class defines the interface for a Memory Allocator.">
<polygon fill="white" stroke="#666666" points="137.5,-232 25.5,-232 25.5,-212.75 137.5,-212.75 137.5,-232"/>
<text text-anchor="middle" x="81.5" y="-218.5" font-family="Helvetica,sans-Serif" font-size="10.00">Cpl::Memory::Allocator</text>
</a>
</g>
</g>
<!-- Node2&#45;&gt;Node1 -->
<g id="edge1_Node000001_Node000002" class="edge">
<title>Node2&#45;&gt;Node1</title>
<g id="a_edge1_Node000001_Node000002"><a xlink:title=" ">
<path fill="none" stroke="#63b8ff" d="M81.5,-200.94C81.5,-192.68 81.5,-183.34 81.5,-175.82"/>
<polygon fill="#63b8ff" stroke="#63b8ff" points="78,-200.77 81.5,-210.77 85,-200.77 78,-200.77"/>
</a>
</g>
</g>
<!-- Node3 -->
<g id="Node000003" class="node">
<title>Node3</title>
<g id="a_Node000003"><a xlink:href="class_cpl_1_1_container_1_1_item.html" target="_top" xlink:title="This class is used by the Container classes to implement a various types of singly linked containers.">
<polygon fill="white" stroke="#666666" points="131.5,-288.25 31.5,-288.25 31.5,-269 131.5,-269 131.5,-288.25"/>
<text text-anchor="middle" x="81.5" y="-274.75" font-family="Helvetica,sans-Serif" font-size="10.00">Cpl::Container::Item</text>
</a>
</g>
</g>
<!-- Node3&#45;&gt;Node2 -->
<g id="edge2_Node000002_Node000003" class="edge">
<title>Node3&#45;&gt;Node2</title>
<g id="a_edge2_Node000002_Node000003"><a xlink:title=" ">
<path fill="none" stroke="#63b8ff" d="M81.5,-257.44C81.5,-248.73 81.5,-238.99 81.5,-232.17"/>
<polygon fill="#63b8ff" stroke="#63b8ff" points="78,-257.15 81.5,-267.15 85,-257.15 78,-257.15"/>
</a>
</g>
</g>
<!-- Node5 -->
<g id="Node000005" class="node">
<title>Node5</title>
<g id="a_Node000005"><a xlink:href="class_cpl_1_1_io_1_1_socket_1_1_stream_pool.html" target="_top" xlink:title="This concrete template class implement a socket factory that is capable of creating N concurrently op...">
<polygon fill="white" stroke="#666666" points="160.38,-19.25 2.62,-19.25 2.62,0 160.38,0 160.38,-19.25"/>
<text text-anchor="middle" x="81.5" y="-5.75" font-family="Helvetica,sans-Serif" font-size="10.00">Cpl::Io::Socket::StreamPool&lt; N &gt;</text>
</a>
</g>
</g>
<!-- Node4&#45;&gt;Node5 -->
<g id="edge4_Node000004_Node000005" class="edge">
<title>Node4&#45;&gt;Node5</title>
<g id="a_edge4_Node000004_Node000005"><a xlink:title=" ">
<path fill="none" stroke="#63b8ff" d="M81.5,-44.77C81.5,-35.79 81.5,-26.29 81.5,-19.6"/>
<polygon fill="#63b8ff" stroke="#63b8ff" points="78,-44.49 81.5,-54.49 85,-44.49 78,-44.49"/>
</a>
</g>
</g>
</g>
</svg>
