<?xml version="1.0" encoding="UTF-8" standalone="no"?>
<!DOCTYPE svg PUBLIC "-//W3C//DTD SVG 1.1//EN"
 "http://www.w3.org/Graphics/SVG/1.1/DTD/svg11.dtd">
<!-- Generated by graphviz version 2.43.0 (0)
 -->
<!-- Title: Eros::Ui::Home::Screen Pages: 1 -->
<svg width="332pt" height="93pt"
 viewBox="0.00 0.00 332.00 93.00" xmlns="http://www.w3.org/2000/svg" xmlns:xlink="http://www.w3.org/1999/xlink">
<g id="graph0" class="graph" transform="scale(1 1) rotate(0) translate(4 89)">
<title>Eros::Ui::Home::Screen</title>
<!-- Node1 -->
<g id="Node000001" class="node">
<title>Node1</title>
<g id="a_Node000001"><a xlink:title="This class implements the Home screen.">
<polygon fill="#999999" stroke="#666666" points="224.5,-19 96.5,-19 96.5,0 224.5,0 224.5,-19"/>
<text text-anchor="middle" x="160.5" y="-7" font-family="Helvetica,sans-Serif" font-size="10.00">Eros::Ui::Home::Screen</text>
</a>
</g>
</g>
<!-- Node2 -->
<g id="Node000002" class="node">
<title>Node2</title>
<g id="a_Node000002"><a xlink:href="class_ajax_1_1_screen_mgr_1_1_screen_api.html" target="_top" xlink:title="This class defines the interface for a &#39;Screen&#39;.">
<polygon fill="white" stroke="#666666" points="151,-85 0,-85 0,-66 151,-66 151,-85"/>
<text text-anchor="middle" x="75.5" y="-73" font-family="Helvetica,sans-Serif" font-size="10.00">Ajax::ScreenMgr::ScreenApi</text>
</a>
</g>
</g>
<!-- Node2&#45;&gt;Node1 -->
<g id="edge1_Node000001_Node000002" class="edge">
<title>Node2&#45;&gt;Node1</title>
<g id="a_edge1_Node000001_Node000002"><a xlink:title=" ">
<path fill="none" stroke="#63b8ff" d="M94.98,-59.83C111.65,-47.28 135.09,-29.63 148.95,-19.2"/>
<polygon fill="#63b8ff" stroke="#63b8ff" points="92.85,-57.06 86.96,-65.87 97.06,-62.65 92.85,-57.06"/>
</a>
</g>
</g>
<!-- Node3 -->
<g id="Node000003" class="node">
<title>Node3</title>
<g id="a_Node000003"><a xlink:href="class_ajax_1_1_screen_mgr_1_1_navigation.html" target="_top" xlink:title="This class defines the interface &#45; used by ScreenApi instances &#45; to navigate to other screen instance...">
<polygon fill="white" stroke="#666666" points="324,-85 169,-85 169,-66 324,-66 324,-85"/>
<text text-anchor="middle" x="246.5" y="-73" font-family="Helvetica,sans-Serif" font-size="10.00">Ajax::ScreenMgr::Navigation</text>
</a>
</g>
</g>
<!-- Node3&#45;&gt;Node1 -->
<g id="edge2_Node000001_Node000003" class="edge">
<title>Node3&#45;&gt;Node1</title>
<g id="a_edge2_Node000001_Node000003"><a xlink:title=" ">
<path fill="none" stroke="#9a32cd" stroke-dasharray="5,2" d="M226.79,-59.83C209.93,-47.28 186.21,-29.63 172.19,-19.2"/>
<polygon fill="#9a32cd" stroke="#9a32cd" points="224.79,-62.71 234.9,-65.87 228.97,-57.09 224.79,-62.71"/>
</a>
</g>
<text text-anchor="middle" x="244.5" y="-40" font-family="Helvetica,sans-Serif" font-size="10.00" fill="grey"> m_screenMgr</text>
</g>
</g>
</svg>
