<?xml version="1.0" encoding="UTF-8" standalone="no"?>
<!DOCTYPE svg PUBLIC "-//W3C//DTD SVG 1.1//EN"
 "http://www.w3.org/Graphics/SVG/1.1/DTD/svg11.dtd">
<!-- Generated by graphviz version 9.0.0 (20230911.1827)
 -->
<!-- Title: Ajax::Ui::EditSetpt::Screen Pages: 1 -->
<svg width="300pt" height="105pt"
 viewBox="0.00 0.00 299.75 105.00" xmlns="http://www.w3.org/2000/svg" xmlns:xlink="http://www.w3.org/1999/xlink">
<g id="graph0" class="graph" transform="scale(1 1) rotate(0) translate(4 101)">
<title>Ajax::Ui::EditSetpt::Screen</title>
<!-- Node1 -->
<g id="Node000001" class="node">
<title>Node1</title>
<g id="a_Node000001"><a xlink:title="This class implements the Edit setpoint screen.">
<polygon fill="#999999" stroke="#666666" points="191.62,-30.5 98.38,-30.5 98.38,0 191.62,0 191.62,-30.5"/>
<text text-anchor="start" x="106.38" y="-17" font-family="Helvetica,sans-Serif" font-size="10.00">Ajax::Ui::EditSetpt</text>
<text text-anchor="middle" x="145" y="-5.75" font-family="Helvetica,sans-Serif" font-size="10.00">::Screen</text>
</a>
</g>
</g>
<!-- Node2 -->
<g id="Node000002" class="node">
<title>Node2</title>
<g id="a_Node000002"><a xlink:href="class_ajax_1_1_screen_mgr_1_1_screen_api.html" target="_top" xlink:title="This class defines the interface for a &#39;Screen&#39;.">
<polygon fill="white" stroke="#666666" points="136,-97 0,-97 0,-77.75 136,-77.75 136,-97"/>
<text text-anchor="middle" x="68" y="-83.5" font-family="Helvetica,sans-Serif" font-size="10.00">Ajax::ScreenMgr::ScreenApi</text>
</a>
</g>
</g>
<!-- Node2&#45;&gt;Node1 -->
<g id="edge1_Node000001_Node000002" class="edge">
<title>Node2&#45;&gt;Node1</title>
<g id="a_edge1_Node000001_Node000002"><a xlink:title=" ">
<path fill="none" stroke="#63b8ff" d="M85.93,-70.05C98.92,-58.21 116.34,-42.35 128.89,-30.92"/>
<polygon fill="#63b8ff" stroke="#63b8ff" points="83.91,-67.15 78.87,-76.47 88.62,-72.33 83.91,-67.15"/>
</a>
</g>
</g>
<!-- Node3 -->
<g id="Node000003" class="node">
<title>Node3</title>
<g id="a_Node000003"><a xlink:href="class_ajax_1_1_screen_mgr_1_1_navigation.html" target="_top" xlink:title="This class defines the interface &#45; used by ScreenApi instances &#45; to navigate to other screen instance...">
<polygon fill="white" stroke="#666666" points="291.75,-97 154.25,-97 154.25,-77.75 291.75,-77.75 291.75,-97"/>
<text text-anchor="middle" x="223" y="-83.5" font-family="Helvetica,sans-Serif" font-size="10.00">Ajax::ScreenMgr::Navigation</text>
</a>
</g>
</g>
<!-- Node3&#45;&gt;Node1 -->
<g id="edge2_Node000001_Node000003" class="edge">
<title>Node3&#45;&gt;Node1</title>
<g id="a_edge2_Node000001_Node000003"><a xlink:title=" ">
<path fill="none" stroke="#9a32cd" stroke-dasharray="5,2" d="M204.84,-70.05C191.68,-58.21 174.03,-42.35 161.31,-30.92"/>
<polygon fill="#9a32cd" stroke="#9a32cd" points="202.22,-72.4 212,-76.48 206.9,-67.19 202.22,-72.4"/>
</a>
</g>
<text text-anchor="middle" x="223.75" y="-50.25" font-family="Helvetica,sans-Serif" font-size="10.00" fill="grey"> m_screenMgr</text>
</g>
</g>
</svg>
