<?xml version="1.0" encoding="UTF-8" standalone="no"?>
<!DOCTYPE svg PUBLIC "-//W3C//DTD SVG 1.1//EN"
 "http://www.w3.org/Graphics/SVG/1.1/DTD/svg11.dtd">
<!-- Generated by graphviz version 9.0.0 (20230911.1827)
 -->
<!-- Title: Cpl::Persistent::IndexedEntryServer&lt; ENTRY &gt; Pages: 1 -->
<svg width="888pt" height="327pt"
 viewBox="0.00 0.00 888.25 326.88" xmlns="http://www.w3.org/2000/svg" xmlns:xlink="http://www.w3.org/1999/xlink">
<g id="graph0" class="graph" transform="scale(1 1) rotate(0) translate(4 322.88)">
<title>Cpl::Persistent::IndexedEntryServer&lt; ENTRY &gt;</title>
<!-- Node1 -->
<g id="Node000001" class="node">
<title>Node1</title>
<g id="a_Node000001"><a xlink:title="This concrete template class implements the ITC messaging (and Model Point monitoring) needed to prov...">
<polygon fill="#999999" stroke="#666666" points="586.75,-152.5 469.5,-152.5 469.5,-122 586.75,-122 586.75,-152.5"/>
<text text-anchor="start" x="477.5" y="-139" font-family="Helvetica,sans-Serif" font-size="10.00">Cpl::Persistent::Indexed</text>
<text text-anchor="middle" x="528.12" y="-127.75" font-family="Helvetica,sans-Serif" font-size="10.00">EntryServer&lt; ENTRY &gt;</text>
</a>
</g>
</g>
<!-- Node13 -->
<g id="Node000013" class="node">
<title>Node13</title>
<g id="a_Node000013"><a xlink:href="class_cpl_1_1_persistent_1_1_indexed_entry_server.html" target="_top" xlink:title=" ">
<polygon fill="white" stroke="#666666" points="880.25,-158.12 752.5,-158.12 752.5,-116.38 880.25,-116.38 880.25,-158.12"/>
<text text-anchor="start" x="760.5" y="-144.62" font-family="Helvetica,sans-Serif" font-size="10.00">Cpl::Persistent::Indexed</text>
<text text-anchor="start" x="760.5" y="-133.38" font-family="Helvetica,sans-Serif" font-size="10.00">EntryServer&lt; Cpl::Logging</text>
<text text-anchor="middle" x="816.38" y="-122.12" font-family="Helvetica,sans-Serif" font-size="10.00">::EntryData_T &gt;</text>
</a>
</g>
</g>
<!-- Node1&#45;&gt;Node13 -->
<g id="edge12_Node000001_Node000013" class="edge">
<title>Node1&#45;&gt;Node13</title>
<g id="a_edge12_Node000001_Node000013"><a xlink:title=" ">
<path fill="none" stroke="orange" stroke-dasharray="5,2" d="M598.32,-137.25C645.15,-137.25 706.53,-137.25 752.06,-137.25"/>
<polygon fill="orange" stroke="orange" points="598.57,-133.75 588.57,-137.25 598.57,-140.75 598.57,-133.75"/>
</a>
</g>
<text text-anchor="middle" x="669.62" y="-139" font-family="Helvetica,sans-Serif" font-size="10.00" fill="grey"> &lt; Cpl::Logging::EntryData_T &gt;</text>
</g>
<!-- Node2 -->
<g id="Node000002" class="node">
<title>Node2</title>
<g id="a_Node000002"><a xlink:href="class_cpl_1_1_itc_1_1_close_sync.html" target="_top" xlink:title="This partially concrete class implements the synchronous ITC close call for the CloseApi.">
<polygon fill="white" stroke="#666666" points="412.25,-263.88 315.25,-263.88 315.25,-244.62 412.25,-244.62 412.25,-263.88"/>
<text text-anchor="middle" x="363.75" y="-250.38" font-family="Helvetica,sans-Serif" font-size="10.00">Cpl::Itc::CloseSync</text>
</a>
</g>
</g>
<!-- Node2&#45;&gt;Node1 -->
<g id="edge1_Node000001_Node000002" class="edge">
<title>Node2&#45;&gt;Node1</title>
<g id="a_edge1_Node000001_Node000002"><a xlink:title=" ">
<path fill="none" stroke="#63b8ff" d="M423.22,-240.07C426.44,-238.61 429.55,-237.01 432.5,-235.25 468.65,-213.67 500.27,-174.72 516.19,-152.99"/>
<polygon fill="#63b8ff" stroke="#63b8ff" points="422.13,-236.74 414.13,-243.69 424.72,-243.24 422.13,-236.74"/>
</a>
</g>
</g>
<!-- Node3 -->
<g id="Node000003" class="node">
<title>Node3</title>
<g id="a_Node000003"><a xlink:href="class_cpl_1_1_itc_1_1_open_sync.html" target="_top" xlink:title="This partially concrete class implements the synchronous ITC open call for the OpenApi.">
<polygon fill="white" stroke="#666666" points="250.12,-300.88 154.62,-300.88 154.62,-281.62 250.12,-281.62 250.12,-300.88"/>
<text text-anchor="middle" x="202.38" y="-287.38" font-family="Helvetica,sans-Serif" font-size="10.00">Cpl::Itc::OpenSync</text>
</a>
</g>
</g>
<!-- Node3&#45;&gt;Node2 -->
<g id="edge2_Node000002_Node000003" class="edge">
<title>Node3&#45;&gt;Node2</title>
<g id="a_edge2_Node000002_Node000003"><a xlink:title=" ">
<path fill="none" stroke="#63b8ff" d="M258.06,-278.55C278.05,-273.91 300.37,-268.73 319.25,-264.35"/>
<polygon fill="#63b8ff" stroke="#63b8ff" points="257.35,-275.13 248.4,-280.8 258.93,-281.95 257.35,-275.13"/>
</a>
</g>
</g>
<!-- Node4 -->
<g id="Node000004" class="node">
<title>Node4</title>
<g id="a_Node000004"><a xlink:href="class_cpl_1_1_itc_1_1_open_api.html" target="_top" xlink:title="This abstract class defines an open interface.">
<polygon fill="white" stroke="#666666" points="98.88,-318.88 10.88,-318.88 10.88,-299.62 98.88,-299.62 98.88,-318.88"/>
<text text-anchor="middle" x="54.88" y="-305.38" font-family="Helvetica,sans-Serif" font-size="10.00">Cpl::Itc::OpenApi</text>
</a>
</g>
</g>
<!-- Node4&#45;&gt;Node3 -->
<g id="edge3_Node000003_Node000004" class="edge">
<title>Node4&#45;&gt;Node3</title>
<g id="a_edge3_Node000003_Node000004"><a xlink:title=" ">
<path fill="none" stroke="#63b8ff" d="M110.42,-302.5C124.82,-300.72 140.24,-298.81 154.22,-297.08"/>
<polygon fill="#63b8ff" stroke="#63b8ff" points="110.13,-299.01 100.64,-303.71 110.99,-305.96 110.13,-299.01"/>
</a>
</g>
</g>
<!-- Node5 -->
<g id="Node000005" class="node">
<title>Node5</title>
<g id="a_Node000005"><a xlink:href="class_cpl_1_1_itc_1_1_open_request.html" target="_top" xlink:title="This abstract class define message types and payloads for a set of ITC services.">
<polygon fill="white" stroke="#666666" points="109.75,-281.88 0,-281.88 0,-262.62 109.75,-262.62 109.75,-281.88"/>
<text text-anchor="middle" x="54.88" y="-268.38" font-family="Helvetica,sans-Serif" font-size="10.00">Cpl::Itc::OpenRequest</text>
</a>
</g>
</g>
<!-- Node5&#45;&gt;Node3 -->
<g id="edge4_Node000003_Node000005" class="edge">
<title>Node5&#45;&gt;Node3</title>
<g id="a_edge4_Node000003_Node000005"><a xlink:title=" ">
<path fill="none" stroke="#63b8ff" d="M121.47,-280.82C132.54,-282.26 143.84,-283.74 154.32,-285.11"/>
<polygon fill="#63b8ff" stroke="#63b8ff" points="121.92,-277.35 111.55,-279.52 121.02,-284.29 121.92,-277.35"/>
</a>
</g>
</g>
<!-- Node6 -->
<g id="Node000006" class="node">
<title>Node6</title>
<g id="a_Node000006"><a xlink:href="class_cpl_1_1_itc_1_1_close_api.html" target="_top" xlink:title="This abstract class defines an close interface.">
<polygon fill="white" stroke="#666666" points="247.12,-263.88 157.62,-263.88 157.62,-244.62 247.12,-244.62 247.12,-263.88"/>
<text text-anchor="middle" x="202.38" y="-250.38" font-family="Helvetica,sans-Serif" font-size="10.00">Cpl::Itc::CloseApi</text>
</a>
</g>
</g>
<!-- Node6&#45;&gt;Node2 -->
<g id="edge5_Node000002_Node000006" class="edge">
<title>Node6&#45;&gt;Node2</title>
<g id="a_edge5_Node000002_Node000006"><a xlink:title=" ">
<path fill="none" stroke="#63b8ff" d="M258.77,-254.25C277.09,-254.25 297.31,-254.25 315.01,-254.25"/>
<polygon fill="#63b8ff" stroke="#63b8ff" points="258.86,-250.75 248.86,-254.25 258.86,-257.75 258.86,-250.75"/>
</a>
</g>
</g>
<!-- Node7 -->
<g id="Node000007" class="node">
<title>Node7</title>
<g id="a_Node000007"><a xlink:href="class_cpl_1_1_itc_1_1_close_request.html" target="_top" xlink:title="This abstract class define message types and payloads for a set of ITC services.">
<polygon fill="white" stroke="#666666" points="258,-226.88 146.75,-226.88 146.75,-207.62 258,-207.62 258,-226.88"/>
<text text-anchor="middle" x="202.38" y="-213.38" font-family="Helvetica,sans-Serif" font-size="10.00">Cpl::Itc::CloseRequest</text>
</a>
</g>
</g>
<!-- Node7&#45;&gt;Node2 -->
<g id="edge6_Node000002_Node000007" class="edge">
<title>Node7&#45;&gt;Node2</title>
<g id="a_edge6_Node000002_Node000007"><a xlink:title=" ">
<path fill="none" stroke="#63b8ff" d="M258.06,-229.95C278.05,-234.59 300.37,-239.77 319.25,-244.15"/>
<polygon fill="#63b8ff" stroke="#63b8ff" points="258.93,-226.55 248.4,-227.7 257.35,-233.37 258.93,-226.55"/>
</a>
</g>
</g>
<!-- Node8 -->
<g id="Node000008" class="node">
<title>Node8</title>
<g id="a_Node000008"><a xlink:href="class_cpl_1_1_persistent_1_1_get_latest_request.html" target="_top" xlink:title="This abstract class define ITC message type and payload for the application to request read Indexed E...">
<polygon fill="white" stroke="#666666" points="427.25,-226.5 300.25,-226.5 300.25,-196 427.25,-196 427.25,-226.5"/>
<text text-anchor="start" x="308.25" y="-213" font-family="Helvetica,sans-Serif" font-size="10.00">Cpl::Persistent::GetLatest</text>
<text text-anchor="middle" x="363.75" y="-201.75" font-family="Helvetica,sans-Serif" font-size="10.00">Request</text>
</a>
</g>
</g>
<!-- Node8&#45;&gt;Node1 -->
<g id="edge7_Node000001_Node000008" class="edge">
<title>Node8&#45;&gt;Node1</title>
<g id="a_edge7_Node000001_Node000008"><a xlink:title=" ">
<path fill="none" stroke="#63b8ff" d="M420.07,-191.49C424.3,-189.78 428.49,-188.02 432.5,-186.25 455.35,-176.17 480.41,-163.09 499,-152.98"/>
<polygon fill="#63b8ff" stroke="#63b8ff" points="418.97,-188.16 410.94,-195.07 421.52,-194.68 418.97,-188.16"/>
</a>
</g>
</g>
<!-- Node9 -->
<g id="Node000009" class="node">
<title>Node9</title>
<g id="a_Node000009"><a xlink:href="class_cpl_1_1_persistent_1_1_get_next_request.html" target="_top" xlink:title="This abstract class define ITC message type and payload for the application to request read Indexed E...">
<polygon fill="white" stroke="#666666" points="423.5,-177.5 304,-177.5 304,-147 423.5,-147 423.5,-177.5"/>
<text text-anchor="start" x="312" y="-164" font-family="Helvetica,sans-Serif" font-size="10.00">Cpl::Persistent::GetNext</text>
<text text-anchor="middle" x="363.75" y="-152.75" font-family="Helvetica,sans-Serif" font-size="10.00">Request</text>
</a>
</g>
</g>
<!-- Node9&#45;&gt;Node1 -->
<g id="edge8_Node000001_Node000009" class="edge">
<title>Node9&#45;&gt;Node1</title>
<g id="a_edge8_Node000001_Node000009"><a xlink:title=" ">
<path fill="none" stroke="#63b8ff" d="M435.08,-151.42C446.46,-149.67 458.13,-147.87 469.17,-146.17"/>
<polygon fill="#63b8ff" stroke="#63b8ff" points="434.68,-147.94 425.33,-152.92 435.74,-154.86 434.68,-147.94"/>
</a>
</g>
</g>
<!-- Node10 -->
<g id="Node000010" class="node">
<title>Node10</title>
<g id="a_Node000010"><a xlink:href="class_cpl_1_1_persistent_1_1_get_previous_request.html" target="_top" xlink:title="This abstract class define ITC message type and payload for the application to request read Indexed E...">
<polygon fill="white" stroke="#666666" points="432.5,-128.5 295,-128.5 295,-98 432.5,-98 432.5,-128.5"/>
<text text-anchor="start" x="303" y="-115" font-family="Helvetica,sans-Serif" font-size="10.00">Cpl::Persistent::GetPrevious</text>
<text text-anchor="middle" x="363.75" y="-103.75" font-family="Helvetica,sans-Serif" font-size="10.00">Request</text>
</a>
</g>
</g>
<!-- Node10&#45;&gt;Node1 -->
<g id="edge9_Node000001_Node000010" class="edge">
<title>Node10&#45;&gt;Node1</title>
<g id="a_edge9_Node000001_Node000010"><a xlink:title=" ">
<path fill="none" stroke="#63b8ff" d="M443.79,-124.93C452.29,-126.19 460.82,-127.45 469.01,-128.66"/>
<polygon fill="#63b8ff" stroke="#63b8ff" points="444.57,-121.51 434.17,-123.51 443.55,-128.44 444.57,-121.51"/>
</a>
</g>
</g>
<!-- Node11 -->
<g id="Node000011" class="node">
<title>Node11</title>
<g id="a_Node000011"><a xlink:href="class_cpl_1_1_persistent_1_1_get_by_buffer_index_request.html" target="_top" xlink:title="This abstract class define ITC message type and payload for the application to request read Indexed E...">
<polygon fill="white" stroke="#666666" points="431.75,-79.5 295.75,-79.5 295.75,-49 431.75,-49 431.75,-79.5"/>
<text text-anchor="start" x="303.75" y="-66" font-family="Helvetica,sans-Serif" font-size="10.00">Cpl::Persistent::GetByBuffer</text>
<text text-anchor="middle" x="363.75" y="-54.75" font-family="Helvetica,sans-Serif" font-size="10.00">IndexRequest</text>
</a>
</g>
</g>
<!-- Node11&#45;&gt;Node1 -->
<g id="edge10_Node000001_Node000011" class="edge">
<title>Node11&#45;&gt;Node1</title>
<g id="a_edge10_Node000001_Node000011"><a xlink:title=" ">
<path fill="none" stroke="#63b8ff" d="M420.06,-84.05C424.29,-85.75 428.48,-87.49 432.5,-89.25 455.12,-99.12 479.99,-111.81 498.55,-121.66"/>
<polygon fill="#63b8ff" stroke="#63b8ff" points="421.5,-80.86 410.91,-80.48 418.95,-87.38 421.5,-80.86"/>
</a>
</g>
</g>
<!-- Node12 -->
<g id="Node000012" class="node">
<title>Node12</title>
<g id="a_Node000012"><a xlink:href="class_cpl_1_1_persistent_1_1_clear_all_entries_request.html" target="_top" xlink:title="This abstract class define ITC message type and payload for the application to clear/delete all entri...">
<polygon fill="white" stroke="#666666" points="422.38,-30.5 305.12,-30.5 305.12,0 422.38,0 422.38,-30.5"/>
<text text-anchor="start" x="313.12" y="-17" font-family="Helvetica,sans-Serif" font-size="10.00">Cpl::Persistent::ClearAll</text>
<text text-anchor="middle" x="363.75" y="-5.75" font-family="Helvetica,sans-Serif" font-size="10.00">EntriesRequest</text>
</a>
</g>
</g>
<!-- Node12&#45;&gt;Node1 -->
<g id="edge11_Node000001_Node000012" class="edge">
<title>Node12&#45;&gt;Node1</title>
<g id="a_edge11_Node000001_Node000012"><a xlink:title=" ">
<path fill="none" stroke="#63b8ff" d="M425.45,-36.05C427.88,-37.38 430.24,-38.78 432.5,-40.25 467.43,-62.92 499.29,-100.61 515.63,-121.72"/>
<polygon fill="#63b8ff" stroke="#63b8ff" points="427.06,-32.94 416.54,-31.64 423.95,-39.22 427.06,-32.94"/>
</a>
</g>
</g>
</g>
</svg>
