<?xml version="1.0" encoding="UTF-8" standalone="no"?>
<!DOCTYPE svg PUBLIC "-//W3C//DTD SVG 1.1//EN"
 "http://www.w3.org/Graphics/SVG/1.1/DTD/svg11.dtd">
<!-- Generated by graphviz version 2.43.0 (0)
 -->
<!-- Title: Ajax::Ui::LogicalButtons Pages: 1 -->
<svg width="2620pt" height="396pt"
 viewBox="0.00 0.00 2620.00 395.50" xmlns="http://www.w3.org/2000/svg" xmlns:xlink="http://www.w3.org/1999/xlink">
<g id="graph0" class="graph" transform="scale(1 1) rotate(0) translate(4 391.5)">
<title>Ajax::Ui::LogicalButtons</title>
<!-- Node1 -->
<g id="Node000001" class="node">
<title>Node1</title>
<g id="a_Node000001"><a xlink:title="This concrete class translates physical button actions into logical UI Button events.">
<polygon fill="#999999" stroke="#666666" points="2612,-238.5 2479,-238.5 2479,-219.5 2612,-219.5 2612,-238.5"/>
<text text-anchor="middle" x="2545.5" y="-226.5" font-family="Helvetica,sans-Serif" font-size="10.00">Ajax::Ui::LogicalButtons</text>
</a>
</g>
</g>
<!-- Node2 -->
<g id="Node000002" class="node">
<title>Node2</title>
<g id="a_Node000002"><a xlink:href="class_cpl_1_1_itc_1_1_close_sync.html" target="_top" xlink:title="This partially concrete class implements the synchronous ITC close call for the CloseApi.">
<polygon fill="white" stroke="#666666" points="2347,-294.5 2240,-294.5 2240,-275.5 2347,-275.5 2347,-294.5"/>
<text text-anchor="middle" x="2293.5" y="-282.5" font-family="Helvetica,sans-Serif" font-size="10.00">Cpl::Itc::CloseSync</text>
</a>
</g>
</g>
<!-- Node2&#45;&gt;Node1 -->
<g id="edge1_Node000001_Node000002" class="edge">
<title>Node2&#45;&gt;Node1</title>
<g id="a_edge1_Node000001_Node000002"><a xlink:title=" ">
<path fill="none" stroke="#63b8ff" d="M2346.99,-273.24C2393.04,-262.93 2459.17,-248.11 2501.98,-238.52"/>
<polygon fill="#63b8ff" stroke="#63b8ff" points="2346.19,-269.84 2337.19,-275.44 2347.72,-276.67 2346.19,-269.84"/>
</a>
</g>
</g>
<!-- Node3 -->
<g id="Node000003" class="node">
<title>Node3</title>
<g id="a_Node000003"><a xlink:href="class_cpl_1_1_itc_1_1_open_sync.html" target="_top" xlink:title="This partially concrete class implements the synchronous ITC open call for the OpenApi.">
<polygon fill="white" stroke="#666666" points="2070,-350.5 1965,-350.5 1965,-331.5 2070,-331.5 2070,-350.5"/>
<text text-anchor="middle" x="2017.5" y="-338.5" font-family="Helvetica,sans-Serif" font-size="10.00">Cpl::Itc::OpenSync</text>
</a>
</g>
</g>
<!-- Node3&#45;&gt;Node2 -->
<g id="edge2_Node000002_Node000003" class="edge">
<title>Node3&#45;&gt;Node2</title>
<g id="a_edge2_Node000002_Node000003"><a xlink:title=" ">
<path fill="none" stroke="#63b8ff" d="M2080.26,-331.84C2116.47,-326.09 2163.02,-318.07 2204,-309 2222.81,-304.84 2243.61,-299.25 2260.31,-294.51"/>
<polygon fill="#63b8ff" stroke="#63b8ff" points="2079.67,-328.39 2070.33,-333.4 2080.75,-335.3 2079.67,-328.39"/>
</a>
</g>
</g>
<!-- Node4 -->
<g id="Node000004" class="node">
<title>Node4</title>
<g id="a_Node000004"><a xlink:href="class_cpl_1_1_itc_1_1_open_api.html" target="_top" xlink:title="This abstract class defines an open interface.">
<polygon fill="white" stroke="#666666" points="1795,-387.5 1697,-387.5 1697,-368.5 1795,-368.5 1795,-387.5"/>
<text text-anchor="middle" x="1746" y="-375.5" font-family="Helvetica,sans-Serif" font-size="10.00">Cpl::Itc::OpenApi</text>
</a>
</g>
</g>
<!-- Node4&#45;&gt;Node3 -->
<g id="edge3_Node000003_Node000004" class="edge">
<title>Node4&#45;&gt;Node3</title>
<g id="a_edge3_Node000003_Node000004"><a xlink:title=" ">
<path fill="none" stroke="#63b8ff" d="M1805.26,-371.06C1840.76,-366.71 1887.04,-360.84 1928,-355 1939.86,-353.31 1952.59,-351.37 1964.6,-349.48"/>
<polygon fill="#63b8ff" stroke="#63b8ff" points="1804.57,-367.61 1795.07,-372.3 1805.42,-374.56 1804.57,-367.61"/>
</a>
</g>
</g>
<!-- Node5 -->
<g id="Node000005" class="node">
<title>Node5</title>
<g id="a_Node000005"><a xlink:href="class_cpl_1_1_itc_1_1_open_request.html" target="_top" xlink:title="This abstract class define message types and payloads for a set of ITC services.">
<polygon fill="white" stroke="#666666" points="1807,-350.5 1685,-350.5 1685,-331.5 1807,-331.5 1807,-350.5"/>
<text text-anchor="middle" x="1746" y="-338.5" font-family="Helvetica,sans-Serif" font-size="10.00">Cpl::Itc::OpenRequest</text>
</a>
</g>
</g>
<!-- Node5&#45;&gt;Node3 -->
<g id="edge4_Node000003_Node000005" class="edge">
<title>Node5&#45;&gt;Node3</title>
<g id="a_edge4_Node000003_Node000005"><a xlink:title=" ">
<path fill="none" stroke="#63b8ff" d="M1817.38,-341C1863.53,-341 1922.86,-341 1964.71,-341"/>
<polygon fill="#63b8ff" stroke="#63b8ff" points="1817.15,-337.5 1807.15,-341 1817.15,-344.5 1817.15,-337.5"/>
</a>
</g>
</g>
<!-- Node6 -->
<g id="Node000006" class="node">
<title>Node6</title>
<g id="a_Node000006"><a xlink:href="class_cpl_1_1_itc_1_1_post_api.html" target="_top" xlink:title="This abstract class represents the interface used to send messages to a mailbox.">
<polygon fill="white" stroke="#666666" points="1792.5,-313.5 1699.5,-313.5 1699.5,-294.5 1792.5,-294.5 1792.5,-313.5"/>
<text text-anchor="middle" x="1746" y="-301.5" font-family="Helvetica,sans-Serif" font-size="10.00">Cpl::Itc::PostApi</text>
</a>
</g>
</g>
<!-- Node6&#45;&gt;Node3 -->
<g id="edge5_Node000003_Node000006" class="edge">
<title>Node6&#45;&gt;Node3</title>
<g id="a_edge5_Node000003_Node000006"><a xlink:title=" ">
<path fill="none" stroke="#9a32cd" stroke-dasharray="5,2" d="M1803.07,-310.13C1838.87,-314.21 1886.23,-319.93 1928,-326 1939.87,-327.73 1952.61,-329.77 1964.62,-331.79"/>
<polygon fill="#9a32cd" stroke="#9a32cd" points="1803.16,-306.62 1792.83,-308.97 1802.37,-313.57 1803.16,-306.62"/>
</a>
</g>
<text text-anchor="middle" x="1876.5" y="-329" font-family="Helvetica,sans-Serif" font-size="10.00" fill="grey"> m_mbox</text>
</g>
<!-- Node7 -->
<g id="Node000007" class="node">
<title>Node7</title>
<g id="a_Node000007"><a xlink:href="class_cpl_1_1_itc_1_1_close_api.html" target="_top" xlink:title="This abstract class defines an close interface.">
<polygon fill="white" stroke="#666666" points="2067,-313.5 1968,-313.5 1968,-294.5 2067,-294.5 2067,-313.5"/>
<text text-anchor="middle" x="2017.5" y="-301.5" font-family="Helvetica,sans-Serif" font-size="10.00">Cpl::Itc::CloseApi</text>
</a>
</g>
</g>
<!-- Node7&#45;&gt;Node2 -->
<g id="edge6_Node000002_Node000007" class="edge">
<title>Node7&#45;&gt;Node2</title>
<g id="a_edge6_Node000002_Node000007"><a xlink:title=" ">
<path fill="none" stroke="#63b8ff" d="M2077.45,-299.91C2125.63,-296.57 2193.15,-291.89 2239.61,-288.67"/>
<polygon fill="#63b8ff" stroke="#63b8ff" points="2076.9,-296.44 2067.17,-300.63 2077.39,-303.42 2076.9,-296.44"/>
</a>
</g>
</g>
<!-- Node8 -->
<g id="Node000008" class="node">
<title>Node8</title>
<g id="a_Node000008"><a xlink:href="class_cpl_1_1_itc_1_1_close_request.html" target="_top" xlink:title="This abstract class define message types and payloads for a set of ITC services.">
<polygon fill="white" stroke="#666666" points="2079,-276.5 1956,-276.5 1956,-257.5 2079,-257.5 2079,-276.5"/>
<text text-anchor="middle" x="2017.5" y="-264.5" font-family="Helvetica,sans-Serif" font-size="10.00">Cpl::Itc::CloseRequest</text>
</a>
</g>
</g>
<!-- Node8&#45;&gt;Node2 -->
<g id="edge7_Node000002_Node000008" class="edge">
<title>Node8&#45;&gt;Node2</title>
<g id="a_edge7_Node000002_Node000008"><a xlink:title=" ">
<path fill="none" stroke="#63b8ff" d="M2089.42,-271.66C2136.38,-274.74 2196.98,-278.73 2239.72,-281.53"/>
<polygon fill="#63b8ff" stroke="#63b8ff" points="2089.52,-268.16 2079.31,-270.99 2089.06,-275.14 2089.52,-268.16"/>
</a>
</g>
</g>
<!-- Node9 -->
<g id="Node000009" class="node">
<title>Node9</title>
<g id="a_Node000009"><a xlink:href="class_cpl_1_1_system_1_1_timer.html" target="_top" xlink:title="This mostly concrete interface defines the operations that can be performed on a software timer.">
<polygon fill="white" stroke="#666666" points="1372,-245.5 1262,-245.5 1262,-226.5 1372,-226.5 1372,-245.5"/>
<text text-anchor="middle" x="1317" y="-233.5" font-family="Helvetica,sans-Serif" font-size="10.00">Cpl::System::Timer</text>
</a>
</g>
</g>
<!-- Node9&#45;&gt;Node1 -->
<g id="edge8_Node000001_Node000009" class="edge">
<title>Node9&#45;&gt;Node1</title>
<g id="a_edge8_Node000001_Node000009"><a xlink:title=" ">
<path fill="none" stroke="#63b8ff" d="M1382.33,-233.37C1436.4,-231.38 1515.74,-229 1585,-229 1585,-229 1585,-229 2294.5,-229 2357.11,-229 2428.54,-229 2478.97,-229"/>
<polygon fill="#63b8ff" stroke="#63b8ff" points="1382.06,-229.88 1372.19,-233.75 1382.32,-236.87 1382.06,-229.88"/>
</a>
</g>
</g>
<!-- Node10 -->
<g id="Node000010" class="node">
<title>Node10</title>
<g id="a_Node000010"><a xlink:href="class_cpl_1_1_system_1_1_counter_callback__.html" target="_top" xlink:title="This abstract class defines the call&#45;back interface for a Counter object.">
<polygon fill="white" stroke="#666666" points="1131,-245.5 964,-245.5 964,-226.5 1131,-226.5 1131,-245.5"/>
<text text-anchor="middle" x="1047.5" y="-233.5" font-family="Helvetica,sans-Serif" font-size="10.00">Cpl::System::CounterCallback_</text>
</a>
</g>
</g>
<!-- Node10&#45;&gt;Node9 -->
<g id="edge9_Node000009_Node000010" class="edge">
<title>Node10&#45;&gt;Node9</title>
<g id="a_edge9_Node000009_Node000010"><a xlink:title=" ">
<path fill="none" stroke="#63b8ff" d="M1141.41,-236C1181.63,-236 1227.31,-236 1261.85,-236"/>
<polygon fill="#63b8ff" stroke="#63b8ff" points="1141.31,-232.5 1131.31,-236 1141.31,-239.5 1141.31,-232.5"/>
</a>
</g>
</g>
<!-- Node11 -->
<g id="Node000011" class="node">
<title>Node11</title>
<g id="a_Node000011"><a xlink:href="class_cpl_1_1_container_1_1_extended_item.html" target="_top" xlink:title="This class is used by the Container classes to implement a various types of DOUBLY linked containers.">
<polygon fill="white" stroke="#666666" points="817.5,-245.5 657.5,-245.5 657.5,-226.5 817.5,-226.5 817.5,-245.5"/>
<text text-anchor="middle" x="737.5" y="-233.5" font-family="Helvetica,sans-Serif" font-size="10.00">Cpl::Container::ExtendedItem</text>
</a>
</g>
</g>
<!-- Node11&#45;&gt;Node10 -->
<g id="edge10_Node000010_Node000011" class="edge">
<title>Node11&#45;&gt;Node10</title>
<g id="a_edge10_Node000010_Node000011"><a xlink:title=" ">
<path fill="none" stroke="#63b8ff" d="M827.97,-236C870.89,-236 921.98,-236 963.96,-236"/>
<polygon fill="#63b8ff" stroke="#63b8ff" points="827.82,-232.5 817.82,-236 827.82,-239.5 827.82,-232.5"/>
</a>
</g>
</g>
<!-- Node12 -->
<g id="Node000012" class="node">
<title>Node12</title>
<g id="a_Node000012"><a xlink:href="class_cpl_1_1_container_1_1_item.html" target="_top" xlink:title="This class is used by the Container classes to implement a various types of singly linked containers.">
<polygon fill="white" stroke="#666666" points="411,-245.5 297,-245.5 297,-226.5 411,-226.5 411,-245.5"/>
<text text-anchor="middle" x="354" y="-233.5" font-family="Helvetica,sans-Serif" font-size="10.00">Cpl::Container::Item</text>
</a>
</g>
</g>
<!-- Node12&#45;&gt;Node11 -->
<g id="edge11_Node000011_Node000012" class="edge">
<title>Node12&#45;&gt;Node11</title>
<g id="a_edge11_Node000011_Node000012"><a xlink:title=" ">
<path fill="none" stroke="#63b8ff" d="M421.53,-236C487.21,-236 587.67,-236 657.41,-236"/>
<polygon fill="#63b8ff" stroke="#63b8ff" points="421.29,-232.5 411.29,-236 421.29,-239.5 421.29,-232.5"/>
</a>
</g>
</g>
<!-- Node24 -->
<g id="Node000024" class="node">
<title>Node24</title>
<g id="a_Node000024"><a xlink:href="class_cpl_1_1_dm_1_1_model_point.html" target="_top" xlink:title="This mostly abstract class defines the interface for a Model Point.">
<polygon fill="white" stroke="#666666" points="795.5,-208.5 679.5,-208.5 679.5,-189.5 795.5,-189.5 795.5,-208.5"/>
<text text-anchor="middle" x="737.5" y="-196.5" font-family="Helvetica,sans-Serif" font-size="10.00">Cpl::Dm::ModelPoint</text>
</a>
</g>
</g>
<!-- Node12&#45;&gt;Node24 -->
<g id="edge24_Node000024_Node000012" class="edge">
<title>Node12&#45;&gt;Node24</title>
<g id="a_edge24_Node000024_Node000012"><a xlink:title=" ">
<path fill="none" stroke="#63b8ff" d="M421.29,-229.57C494.23,-222.5 610.27,-211.24 679.35,-204.54"/>
<polygon fill="#63b8ff" stroke="#63b8ff" points="420.91,-226.09 411.29,-230.54 421.58,-233.06 420.91,-226.09"/>
</a>
</g>
</g>
<!-- Node13 -->
<g id="Node000013" class="node">
<title>Node13</title>
<g id="a_Node000013"><a xlink:href="class_cpl_1_1_system_1_1_timer_manager.html" target="_top" xlink:title="This mostly concrete class implements manages a list of Software Timers.">
<polygon fill="white" stroke="#666666" points="1123.5,-336.5 971.5,-336.5 971.5,-317.5 1123.5,-317.5 1123.5,-336.5"/>
<text text-anchor="middle" x="1047.5" y="-324.5" font-family="Helvetica,sans-Serif" font-size="10.00">Cpl::System::TimerManager</text>
</a>
</g>
</g>
<!-- Node13&#45;&gt;Node9 -->
<g id="edge12_Node000009_Node000013" class="edge">
<title>Node13&#45;&gt;Node9</title>
<g id="a_edge12_Node000009_Node000013"><a xlink:title=" ">
<path fill="none" stroke="#9a32cd" stroke-dasharray="5,2" d="M1086.22,-314.17C1140.51,-295.7 1239.47,-262.03 1287.85,-245.57"/>
<polygon fill="#9a32cd" stroke="#9a32cd" points="1084.96,-310.9 1076.62,-317.43 1087.22,-317.53 1084.96,-310.9"/>
</a>
</g>
<text text-anchor="middle" x="1190.5" y="-296" font-family="Helvetica,sans-Serif" font-size="10.00" fill="grey"> m_timingSource</text>
</g>
<!-- Node14 -->
<g id="Node000014" class="node">
<title>Node14</title>
<g id="a_Node000014"><a xlink:href="class_cpl_1_1_system_1_1_counter_source__.html" target="_top" xlink:title="This abstract class defines the interface for registering for an Counter object with the Timer Manage...">
<polygon fill="white" stroke="#666666" points="816.5,-379.5 658.5,-379.5 658.5,-360.5 816.5,-360.5 816.5,-379.5"/>
<text text-anchor="middle" x="737.5" y="-367.5" font-family="Helvetica,sans-Serif" font-size="10.00">Cpl::System::CounterSource_</text>
</a>
</g>
</g>
<!-- Node14&#45;&gt;Node13 -->
<g id="edge13_Node000013_Node000014" class="edge">
<title>Node14&#45;&gt;Node13</title>
<g id="a_edge13_Node000013_Node000014"><a xlink:title=" ">
<path fill="none" stroke="#63b8ff" d="M826.99,-366.1C863.95,-363.61 907.23,-359.55 946,-353 969.46,-349.04 995.44,-342.25 1015.11,-336.6"/>
<polygon fill="#63b8ff" stroke="#63b8ff" points="826.49,-362.63 816.74,-366.76 826.94,-369.61 826.49,-362.63"/>
</a>
</g>
</g>
<!-- Node15 -->
<g id="Node000015" class="node">
<title>Node15</title>
<g id="a_Node000015"><a xlink:href="class_cpl_1_1_container_1_1_d_list.html" target="_top" xlink:title=" ">
<polygon fill="white" stroke="#666666" points="832,-342 643,-342 643,-312 832,-312 832,-342"/>
<text text-anchor="start" x="651" y="-330" font-family="Helvetica,sans-Serif" font-size="10.00">Cpl::Container::DList</text>
<text text-anchor="middle" x="737.5" y="-319" font-family="Helvetica,sans-Serif" font-size="10.00">&lt; Cpl::System::CounterCallback_ &gt;</text>
</a>
</g>
</g>
<!-- Node15&#45;&gt;Node13 -->
<g id="edge14_Node000013_Node000015" class="edge">
<title>Node15&#45;&gt;Node13</title>
<g id="a_edge14_Node000013_Node000015"><a xlink:title=" ">
<path fill="none" stroke="#9a32cd" stroke-dasharray="5,2" d="M842.22,-327C884.52,-327 932.5,-327 971.32,-327"/>
<polygon fill="#9a32cd" stroke="#9a32cd" points="842.16,-323.5 832.16,-327 842.16,-330.5 842.16,-323.5"/>
</a>
</g>
<text text-anchor="middle" x="898" y="-341" font-family="Helvetica,sans-Serif" font-size="10.00" fill="grey"> m_counters</text>
<text text-anchor="middle" x="898" y="-330" font-family="Helvetica,sans-Serif" font-size="10.00" fill="grey">m_pendingAttach</text>
</g>
<!-- Node16 -->
<g id="Node000016" class="node">
<title>Node16</title>
<g id="a_Node000016"><a xlink:href="class_cpl_1_1_container_1_1_d_list.html" target="_top" xlink:title="This template class implements a Doubly linked list which maintains the ordering imposed on it by the...">
<polygon fill="white" stroke="#666666" points="412,-299 296,-299 296,-269 412,-269 412,-299"/>
<text text-anchor="start" x="304" y="-287" font-family="Helvetica,sans-Serif" font-size="10.00">Cpl::Container::DList</text>
<text text-anchor="middle" x="354" y="-276" font-family="Helvetica,sans-Serif" font-size="10.00">&lt; ITEM &gt;</text>
</a>
</g>
</g>
<!-- Node16&#45;&gt;Node15 -->
<g id="edge15_Node000015_Node000016" class="edge">
<title>Node16&#45;&gt;Node15</title>
<g id="a_edge15_Node000015_Node000016"><a xlink:title=" ">
<path fill="none" stroke="orange" stroke-dasharray="5,2" d="M422.19,-294.4C431.2,-295.68 440.32,-296.92 449,-298 513.59,-306.06 586.56,-313.4 642.82,-318.68"/>
<polygon fill="orange" stroke="orange" points="422.5,-290.91 412.11,-292.95 421.5,-297.84 422.5,-290.91"/>
</a>
</g>
<text text-anchor="middle" x="537" y="-319" font-family="Helvetica,sans-Serif" font-size="10.00" fill="grey"> &lt; Cpl::System::CounterCallback_ &gt;</text>
</g>
<!-- Node25 -->
<g id="Node000025" class="node">
<title>Node25</title>
<g id="a_Node000025"><a xlink:href="class_cpl_1_1_container_1_1_d_list.html" target="_top" xlink:title=" ">
<polygon fill="white" stroke="#666666" points="813,-294 662,-294 662,-264 813,-264 813,-294"/>
<text text-anchor="start" x="670" y="-282" font-family="Helvetica,sans-Serif" font-size="10.00">Cpl::Container::DList</text>
<text text-anchor="middle" x="737.5" y="-271" font-family="Helvetica,sans-Serif" font-size="10.00">&lt; Cpl::Dm::SubscriberApi &gt;</text>
</a>
</g>
</g>
<!-- Node16&#45;&gt;Node25 -->
<g id="edge26_Node000025_Node000016" class="edge">
<title>Node16&#45;&gt;Node25</title>
<g id="a_edge26_Node000025_Node000016"><a xlink:title=" ">
<path fill="none" stroke="orange" stroke-dasharray="5,2" d="M422.16,-283.12C489.29,-282.24 592.29,-280.89 661.92,-279.98"/>
<polygon fill="orange" stroke="orange" points="422.07,-279.62 412.11,-283.25 422.16,-286.62 422.07,-279.62"/>
</a>
</g>
<text text-anchor="middle" x="537" y="-286" font-family="Helvetica,sans-Serif" font-size="10.00" fill="grey"> &lt; Cpl::Dm::SubscriberApi &gt;</text>
</g>
<!-- Node17 -->
<g id="Node000017" class="node">
<title>Node17</title>
<g id="a_Node000017"><a xlink:href="class_cpl_1_1_container_1_1_ring_buffer_m_p.html" target="_top" xlink:title=" ">
<polygon fill="white" stroke="#666666" points="2365,-139 2222,-139 2222,-109 2365,-109 2365,-139"/>
<text text-anchor="start" x="2230" y="-127" font-family="Helvetica,sans-Serif" font-size="10.00">Cpl::Container::RingBuffer</text>
<text text-anchor="middle" x="2293.5" y="-116" font-family="Helvetica,sans-Serif" font-size="10.00">MP&lt; AjaxUiEvent_T &gt;</text>
</a>
</g>
</g>
<!-- Node17&#45;&gt;Node1 -->
<g id="edge16_Node000001_Node000017" class="edge">
<title>Node17&#45;&gt;Node1</title>
<g id="a_edge16_Node000001_Node000017"><a xlink:title=" ">
<path fill="none" stroke="#9a32cd" stroke-dasharray="5,2" d="M2339.6,-142.94C2393.24,-165.47 2480.67,-202.19 2521.78,-219.46"/>
<polygon fill="#9a32cd" stroke="#9a32cd" points="2340.89,-139.69 2330.32,-139.04 2338.18,-146.14 2340.89,-139.69"/>
</a>
</g>
<text text-anchor="middle" x="2422" y="-196" font-family="Helvetica,sans-Serif" font-size="10.00" fill="grey"> m_eventQueue</text>
</g>
<!-- Node18 -->
<g id="Node000018" class="node">
<title>Node18</title>
<g id="a_Node000018"><a xlink:href="class_cpl_1_1_container_1_1_ring_buffer_m_t.html" target="_top" xlink:title="This template class implements a THREAD SAFE Ring Buffer.">
<polygon fill="white" stroke="#666666" points="809,-109 666,-109 666,-79 809,-79 809,-109"/>
<text text-anchor="start" x="674" y="-97" font-family="Helvetica,sans-Serif" font-size="10.00">Cpl::Container::RingBuffer</text>
<text text-anchor="middle" x="737.5" y="-86" font-family="Helvetica,sans-Serif" font-size="10.00">MT&lt; ITEM &gt;</text>
</a>
</g>
</g>
<!-- Node18&#45;&gt;Node17 -->
<g id="edge17_Node000017_Node000018" class="edge">
<title>Node18&#45;&gt;Node17</title>
<g id="a_edge17_Node000017_Node000018"><a xlink:title=" ">
<path fill="none" stroke="#63b8ff" d="M819.27,-94C881.4,-94 969.38,-94 1046.5,-94 1046.5,-94 1046.5,-94 2018.5,-94 2087.89,-94 2166.58,-103.62 2221.77,-111.97"/>
<polygon fill="#63b8ff" stroke="#63b8ff" points="819.15,-90.5 809.15,-94 819.15,-97.5 819.15,-90.5"/>
</a>
</g>
</g>
<!-- Node19 -->
<g id="Node000019" class="node">
<title>Node19</title>
<g id="a_Node000019"><a xlink:href="class_cpl_1_1_container_1_1_ring_buffer.html" target="_top" xlink:title="This template class implements a Ring Buffer.">
<polygon fill="white" stroke="#666666" points="425.5,-30 282.5,-30 282.5,0 425.5,0 425.5,-30"/>
<text text-anchor="start" x="290.5" y="-18" font-family="Helvetica,sans-Serif" font-size="10.00">Cpl::Container::RingBuffer</text>
<text text-anchor="middle" x="354" y="-7" font-family="Helvetica,sans-Serif" font-size="10.00">&lt; ITEM &gt;</text>
</a>
</g>
</g>
<!-- Node19&#45;&gt;Node18 -->
<g id="edge18_Node000018_Node000019" class="edge">
<title>Node19&#45;&gt;Node18</title>
<g id="a_edge18_Node000018_Node000019"><a xlink:title=" ">
<path fill="none" stroke="#63b8ff" d="M435.7,-15.6C491.1,-18.69 565.15,-28.21 625,-55 634.5,-59.25 633.73,-65.26 643,-70 650.16,-73.66 657.92,-76.8 665.81,-79.47"/>
<polygon fill="#63b8ff" stroke="#63b8ff" points="435.75,-12.1 425.58,-15.1 435.4,-19.09 435.75,-12.1"/>
</a>
</g>
</g>
<!-- Node32 -->
<g id="Node000032" class="node">
<title>Node32</title>
<g id="a_Node000032"><a xlink:href="class_cpl_1_1_container_1_1_ring_buffer_m_t.html" target="_top" xlink:title="This template class implements a THREAD SAFE Ring Buffer.">
<polygon fill="white" stroke="#666666" points="809,-61 666,-61 666,-31 809,-31 809,-61"/>
<text text-anchor="start" x="674" y="-49" font-family="Helvetica,sans-Serif" font-size="10.00">Cpl::Container::RingBuffer</text>
<text text-anchor="middle" x="737.5" y="-38" font-family="Helvetica,sans-Serif" font-size="10.00">MT&lt; ITEM &gt;</text>
</a>
</g>
</g>
<!-- Node19&#45;&gt;Node32 -->
<g id="edge36_Node000032_Node000019" class="edge">
<title>Node19&#45;&gt;Node32</title>
<g id="a_edge36_Node000032_Node000019"><a xlink:title=" ">
<path fill="none" stroke="#63b8ff" d="M435.73,-9.87C489.58,-7.78 561.82,-7.53 625,-16 647.15,-18.97 671.16,-25.04 691.2,-30.95"/>
<polygon fill="#63b8ff" stroke="#63b8ff" points="435.4,-6.38 425.55,-10.29 435.69,-13.37 435.4,-6.38"/>
</a>
</g>
</g>
<!-- Node20 -->
<g id="Node000020" class="node">
<title>Node20</title>
<g id="a_Node000020"><a xlink:href="class_cpl_1_1_system_1_1_mutex.html" target="_top" xlink:title="This mutex class defines the interface for a mutex that has &quot;recursive&quot; semantics.">
<polygon fill="white" stroke="#666666" points="410,-103.5 298,-103.5 298,-84.5 410,-84.5 410,-103.5"/>
<text text-anchor="middle" x="354" y="-91.5" font-family="Helvetica,sans-Serif" font-size="10.00">Cpl::System::Mutex</text>
</a>
</g>
</g>
<!-- Node20&#45;&gt;Node18 -->
<g id="edge19_Node000018_Node000020" class="edge">
<title>Node20&#45;&gt;Node18</title>
<g id="a_edge19_Node000018_Node000020"><a xlink:title=" ">
<path fill="none" stroke="#9a32cd" stroke-dasharray="5,2" d="M420.28,-94C488.62,-94 595.59,-94 665.87,-94"/>
<polygon fill="#9a32cd" stroke="#9a32cd" points="420.07,-90.5 410.07,-94 420.07,-97.5 420.07,-90.5"/>
</a>
</g>
<text text-anchor="middle" x="537" y="-97" font-family="Helvetica,sans-Serif" font-size="10.00" fill="grey"> m_lock</text>
</g>
<!-- Node26 -->
<g id="Node000026" class="node">
<title>Node26</title>
<g id="a_Node000026"><a xlink:href="class_cpl_1_1_dm_1_1_model_database.html" target="_top" xlink:title="This concrete class implements a simple Model Database.">
<polygon fill="white" stroke="#666666" points="806.5,-171.5 668.5,-171.5 668.5,-152.5 806.5,-152.5 806.5,-171.5"/>
<text text-anchor="middle" x="737.5" y="-159.5" font-family="Helvetica,sans-Serif" font-size="10.00">Cpl::Dm::ModelDatabase</text>
</a>
</g>
</g>
<!-- Node20&#45;&gt;Node26 -->
<g id="edge31_Node000026_Node000020" class="edge">
<title>Node20&#45;&gt;Node26</title>
<g id="a_edge31_Node000026_Node000020"><a xlink:title=" ">
<path fill="none" stroke="#9a32cd" stroke-dasharray="5,2" d="M419.99,-102.26C474.85,-109.61 555.36,-121.31 625,-135 650.41,-140 678.76,-146.88 700.52,-152.45"/>
<polygon fill="#9a32cd" stroke="#9a32cd" points="420.43,-98.78 410.06,-100.93 419.51,-105.72 420.43,-98.78"/>
</a>
</g>
<text text-anchor="middle" x="537" y="-138" font-family="Helvetica,sans-Serif" font-size="10.00" fill="grey"> m_lock</text>
</g>
<!-- Node20&#45;&gt;Node32 -->
<g id="edge37_Node000032_Node000020" class="edge">
<title>Node20&#45;&gt;Node32</title>
<g id="a_edge37_Node000032_Node000020"><a xlink:title=" ">
<path fill="none" stroke="#9a32cd" stroke-dasharray="5,2" d="M420.1,-83.23C429.78,-81.74 439.64,-80.28 449,-79 522.79,-68.88 607.53,-59.42 665.8,-53.24"/>
<polygon fill="#9a32cd" stroke="#9a32cd" points="419.45,-79.79 410.11,-84.79 420.53,-86.71 419.45,-79.79"/>
</a>
</g>
<text text-anchor="middle" x="537" y="-82" font-family="Helvetica,sans-Serif" font-size="10.00" fill="grey"> m_lock</text>
</g>
<!-- Node21 -->
<g id="Node000021" class="node">
<title>Node21</title>
<g id="a_Node000021"><a xlink:href="class_cpl_1_1_dm_1_1_mp_1_1_uint32.html" target="_top" xlink:title="This class provides a concrete implementation for a Point who&#39;s data is a uint32_t.">
<polygon fill="white" stroke="#666666" points="1803.5,-162.5 1688.5,-162.5 1688.5,-143.5 1803.5,-143.5 1803.5,-162.5"/>
<text text-anchor="middle" x="1746" y="-150.5" font-family="Helvetica,sans-Serif" font-size="10.00">Cpl::Dm::Mp::Uint32</text>
</a>
</g>
</g>
<!-- Node21&#45;&gt;Node17 -->
<g id="edge20_Node000017_Node000021" class="edge">
<title>Node21&#45;&gt;Node17</title>
<g id="a_edge20_Node000017_Node000021"><a xlink:title=" ">
<path fill="none" stroke="#9a32cd" stroke-dasharray="5,2" d="M1813.59,-149.46C1917.06,-143.96 2115.54,-133.41 2221.59,-127.77"/>
<polygon fill="#9a32cd" stroke="#9a32cd" points="1813.38,-145.97 1803.58,-149.99 1813.75,-152.96 1813.38,-145.97"/>
</a>
</g>
<text text-anchor="middle" x="2017.5" y="-146" font-family="Helvetica,sans-Serif" font-size="10.00" fill="grey"> m_mpElementCount</text>
</g>
<!-- Node31 -->
<g id="Node000031" class="node">
<title>Node31</title>
<g id="a_Node000031"><a xlink:href="class_cpl_1_1_container_1_1_ring_buffer_m_p.html" target="_top" xlink:title="This template class implements a THREAD SAFE Ring Buffer AND it maintains/reports the number of eleme...">
<polygon fill="white" stroke="#666666" points="2089,-66 1946,-66 1946,-36 2089,-36 2089,-66"/>
<text text-anchor="start" x="1954" y="-54" font-family="Helvetica,sans-Serif" font-size="10.00">Cpl::Container::RingBuffer</text>
<text text-anchor="middle" x="2017.5" y="-43" font-family="Helvetica,sans-Serif" font-size="10.00">MP&lt; ITEM &gt;</text>
</a>
</g>
</g>
<!-- Node21&#45;&gt;Node31 -->
<g id="edge38_Node000031_Node000021" class="edge">
<title>Node21&#45;&gt;Node31</title>
<g id="a_edge38_Node000031_Node000021"><a xlink:title=" ">
<path fill="none" stroke="#9a32cd" stroke-dasharray="5,2" d="M1781.78,-139.84C1831.86,-120.88 1924.01,-86 1976.73,-66.05"/>
<polygon fill="#9a32cd" stroke="#9a32cd" points="1780.47,-136.59 1772.35,-143.4 1782.95,-143.14 1780.47,-136.59"/>
</a>
</g>
<text text-anchor="middle" x="1876.5" y="-126" font-family="Helvetica,sans-Serif" font-size="10.00" fill="grey"> m_mpElementCount</text>
</g>
<!-- Node22 -->
<g id="Node000022" class="node">
<title>Node22</title>
<g id="a_Node000022"><a xlink:href="class_cpl_1_1_dm_1_1_mp_1_1_numeric.html" target="_top" xlink:title=" ">
<polygon fill="white" stroke="#666666" points="1648,-169 1524,-169 1524,-139 1648,-139 1648,-169"/>
<text text-anchor="start" x="1532" y="-157" font-family="Helvetica,sans-Serif" font-size="10.00">Cpl::Dm::Mp::Numeric</text>
<text text-anchor="middle" x="1586" y="-146" font-family="Helvetica,sans-Serif" font-size="10.00">&lt; uint32_t, Uint32 &gt;</text>
</a>
</g>
</g>
<!-- Node22&#45;&gt;Node21 -->
<g id="edge21_Node000021_Node000022" class="edge">
<title>Node22&#45;&gt;Node21</title>
<g id="a_edge21_Node000021_Node000022"><a xlink:title=" ">
<path fill="none" stroke="#63b8ff" d="M1658.16,-153.55C1668.32,-153.49 1678.65,-153.42 1688.47,-153.36"/>
<polygon fill="#63b8ff" stroke="#63b8ff" points="1658.06,-150.05 1648.09,-153.61 1658.11,-157.05 1658.06,-150.05"/>
</a>
</g>
</g>
<!-- Node23 -->
<g id="Node000023" class="node">
<title>Node23</title>
<g id="a_Node000023"><a xlink:href="class_cpl_1_1_dm_1_1_model_point_common__.html" target="_top" xlink:title="This concrete class provide common infrastructure for a Model Point.">
<polygon fill="white" stroke="#666666" points="1130.5,-206.5 964.5,-206.5 964.5,-187.5 1130.5,-187.5 1130.5,-206.5"/>
<text text-anchor="middle" x="1047.5" y="-194.5" font-family="Helvetica,sans-Serif" font-size="10.00">Cpl::Dm::ModelPointCommon_</text>
</a>
</g>
</g>
<!-- Node23&#45;&gt;Node22 -->
<g id="edge22_Node000022_Node000023" class="edge">
<title>Node23&#45;&gt;Node22</title>
<g id="a_edge22_Node000022_Node000023"><a xlink:title=" ">
<path fill="none" stroke="#63b8ff" d="M1140.83,-195.11C1233.49,-192.34 1380.14,-185.54 1506,-169 1511.81,-168.24 1517.85,-167.32 1523.87,-166.32"/>
<polygon fill="#63b8ff" stroke="#63b8ff" points="1140.54,-191.62 1130.65,-195.41 1140.74,-198.62 1140.54,-191.62"/>
</a>
</g>
</g>
<!-- Node30 -->
<g id="Node000030" class="node">
<title>Node30</title>
<g id="a_Node000030"><a xlink:href="class_cpl_1_1_dm_1_1_mp_1_1_numeric.html" target="_top" xlink:title="This template class provides a mostly concrete implementation for a Model Point who&#39;s data is a C num...">
<polygon fill="white" stroke="#666666" points="1384,-169 1250,-169 1250,-139 1384,-139 1384,-169"/>
<text text-anchor="start" x="1258" y="-157" font-family="Helvetica,sans-Serif" font-size="10.00">Cpl::Dm::Mp::Numeric</text>
<text text-anchor="middle" x="1317" y="-146" font-family="Helvetica,sans-Serif" font-size="10.00">&lt; ELEMTYPE, MPTYPE &gt;</text>
</a>
</g>
</g>
<!-- Node23&#45;&gt;Node30 -->
<g id="edge33_Node000030_Node000023" class="edge">
<title>Node23&#45;&gt;Node30</title>
<g id="a_edge33_Node000030_Node000023"><a xlink:title=" ">
<path fill="none" stroke="#63b8ff" d="M1117.97,-185.83C1158.62,-179.3 1209.67,-171.09 1249.75,-164.65"/>
<polygon fill="#63b8ff" stroke="#63b8ff" points="1117.18,-182.41 1107.87,-187.46 1118.3,-189.33 1117.18,-182.41"/>
</a>
</g>
</g>
<!-- Node24&#45;&gt;Node23 -->
<g id="edge23_Node000023_Node000024" class="edge">
<title>Node24&#45;&gt;Node23</title>
<g id="a_edge23_Node000023_Node000024"><a xlink:title=" ">
<path fill="none" stroke="#63b8ff" d="M806,-198.56C852.6,-198.26 914.84,-197.85 964.33,-197.53"/>
<polygon fill="#63b8ff" stroke="#63b8ff" points="805.69,-195.06 795.71,-198.63 805.73,-202.06 805.69,-195.06"/>
</a>
</g>
</g>
<!-- Node25&#45;&gt;Node23 -->
<g id="edge25_Node000023_Node000025" class="edge">
<title>Node25&#45;&gt;Node23</title>
<g id="a_edge25_Node000023_Node000025"><a xlink:title=" ">
<path fill="none" stroke="#9a32cd" stroke-dasharray="5,2" d="M805.13,-261.29C814.16,-258.86 823.31,-256.38 832,-254 890.76,-237.91 905.05,-232.4 964,-217 977.55,-213.46 992.4,-209.79 1005.72,-206.58"/>
<polygon fill="#9a32cd" stroke="#9a32cd" points="804.14,-257.93 795.39,-263.91 805.96,-264.69 804.14,-257.93"/>
</a>
</g>
<text text-anchor="middle" x="898" y="-252" font-family="Helvetica,sans-Serif" font-size="10.00" fill="grey"> m_subscribers</text>
</g>
<!-- Node26&#45;&gt;Node23 -->
<g id="edge27_Node000023_Node000026" class="edge">
<title>Node26&#45;&gt;Node23</title>
<g id="a_edge27_Node000023_Node000026"><a xlink:title=" ">
<path fill="none" stroke="#9a32cd" stroke-dasharray="5,2" d="M816.99,-169.24C855.84,-173.01 903.43,-177.88 946,-183 957.28,-184.36 969.26,-185.92 980.86,-187.49"/>
<polygon fill="#9a32cd" stroke="#9a32cd" points="817.08,-165.74 806.79,-168.26 816.41,-172.7 817.08,-165.74"/>
</a>
</g>
<text text-anchor="middle" x="898" y="-186" font-family="Helvetica,sans-Serif" font-size="10.00" fill="grey"> m_modelDatabase</text>
</g>
<!-- Node27 -->
<g id="Node000027" class="node">
<title>Node27</title>
<g id="a_Node000027"><a xlink:href="class_cpl_1_1_dm_1_1_model_database_api.html" target="_top" xlink:title="This class defines the basic operations that can be performed on a Model Base.">
<polygon fill="white" stroke="#666666" points="431,-197.5 277,-197.5 277,-178.5 431,-178.5 431,-197.5"/>
<text text-anchor="middle" x="354" y="-185.5" font-family="Helvetica,sans-Serif" font-size="10.00">Cpl::Dm::ModelDatabaseApi</text>
</a>
</g>
</g>
<!-- Node27&#45;&gt;Node26 -->
<g id="edge28_Node000026_Node000027" class="edge">
<title>Node27&#45;&gt;Node26</title>
<g id="a_edge28_Node000026_Node000027"><a xlink:title=" ">
<path fill="none" stroke="#63b8ff" d="M441.31,-183.55C494.34,-180.65 563.63,-176.57 625,-172 639.05,-170.95 654.09,-169.7 668.42,-168.44"/>
<polygon fill="#63b8ff" stroke="#63b8ff" points="441.07,-180.06 431.27,-184.1 441.45,-187.05 441.07,-180.06"/>
</a>
</g>
</g>
<!-- Node28 -->
<g id="Node000028" class="node">
<title>Node28</title>
<g id="a_Node000028"><a xlink:href="class_cpl_1_1_container_1_1_s_list.html" target="_top" xlink:title=" ">
<polygon fill="white" stroke="#666666" points="423.5,-160 284.5,-160 284.5,-130 423.5,-130 423.5,-160"/>
<text text-anchor="start" x="292.5" y="-148" font-family="Helvetica,sans-Serif" font-size="10.00">Cpl::Container::SList</text>
<text text-anchor="middle" x="354" y="-137" font-family="Helvetica,sans-Serif" font-size="10.00">&lt; Cpl::Dm::ModelPoint &gt;</text>
</a>
</g>
</g>
<!-- Node28&#45;&gt;Node26 -->
<g id="edge29_Node000026_Node000028" class="edge">
<title>Node28&#45;&gt;Node26</title>
<g id="a_edge29_Node000026_Node000028"><a xlink:title=" ">
<path fill="none" stroke="#9a32cd" stroke-dasharray="5,2" d="M434.05,-148.52C503.24,-151.61 602.69,-156.04 668.41,-158.97"/>
<polygon fill="#9a32cd" stroke="#9a32cd" points="433.79,-145.01 423.65,-148.06 433.48,-152 433.79,-145.01"/>
</a>
</g>
<text text-anchor="middle" x="537" y="-160" font-family="Helvetica,sans-Serif" font-size="10.00" fill="grey"> m_list</text>
</g>
<!-- Node29 -->
<g id="Node000029" class="node">
<title>Node29</title>
<g id="a_Node000029"><a xlink:href="class_cpl_1_1_container_1_1_s_list.html" target="_top" xlink:title="This template class implements a singly linked list which maintains the ordering imposed on it by the...">
<polygon fill="white" stroke="#666666" points="115,-160 0,-160 0,-130 115,-130 115,-160"/>
<text text-anchor="start" x="8" y="-148" font-family="Helvetica,sans-Serif" font-size="10.00">Cpl::Container::SList</text>
<text text-anchor="middle" x="57.5" y="-137" font-family="Helvetica,sans-Serif" font-size="10.00">&lt; ITEM &gt;</text>
</a>
</g>
</g>
<!-- Node29&#45;&gt;Node28 -->
<g id="edge30_Node000028_Node000029" class="edge">
<title>Node29&#45;&gt;Node28</title>
<g id="a_edge30_Node000028_Node000029"><a xlink:title=" ">
<path fill="none" stroke="orange" stroke-dasharray="5,2" d="M125.47,-145C173.01,-145 236.61,-145 284.49,-145"/>
<polygon fill="orange" stroke="orange" points="125.28,-141.5 115.28,-145 125.28,-148.5 125.28,-141.5"/>
</a>
</g>
<text text-anchor="middle" x="196" y="-148" font-family="Helvetica,sans-Serif" font-size="10.00" fill="grey"> &lt; Cpl::Dm::ModelPoint &gt;</text>
</g>
<!-- Node30&#45;&gt;Node22 -->
<g id="edge32_Node000022_Node000030" class="edge">
<title>Node30&#45;&gt;Node22</title>
<g id="a_edge32_Node000022_Node000030"><a xlink:title=" ">
<path fill="none" stroke="orange" stroke-dasharray="5,2" d="M1394.24,-154C1435.34,-154 1485.36,-154 1523.87,-154"/>
<polygon fill="orange" stroke="orange" points="1394,-150.5 1384,-154 1394,-157.5 1394,-150.5"/>
</a>
</g>
<text text-anchor="middle" x="1454" y="-157" font-family="Helvetica,sans-Serif" font-size="10.00" fill="grey"> &lt; uint32_t, Uint32 &gt;</text>
</g>
<!-- Node31&#45;&gt;Node17 -->
<g id="edge34_Node000017_Node000031" class="edge">
<title>Node31&#45;&gt;Node17</title>
<g id="a_edge34_Node000017_Node000031"><a xlink:title=" ">
<path fill="none" stroke="orange" stroke-dasharray="5,2" d="M2099.35,-50.84C2132.5,-52.81 2170.81,-57.76 2204,-69 2230.22,-77.87 2256.71,-95.79 2273.78,-108.76"/>
<polygon fill="orange" stroke="orange" points="2099.4,-47.34 2089.24,-50.32 2099.04,-54.33 2099.4,-47.34"/>
</a>
</g>
<text text-anchor="middle" x="2155.5" y="-72" font-family="Helvetica,sans-Serif" font-size="10.00" fill="grey"> &lt; AjaxUiEvent_T &gt;</text>
</g>
<!-- Node32&#45;&gt;Node31 -->
<g id="edge35_Node000031_Node000032" class="edge">
<title>Node32&#45;&gt;Node31</title>
<g id="a_edge35_Node000031_Node000032"><a xlink:title=" ">
<path fill="none" stroke="#63b8ff" d="M819.27,-47.22C881.4,-48.05 969.38,-49 1046.5,-49 1046.5,-49 1046.5,-49 1747,-49 1814.49,-49 1891.49,-49.64 1945.86,-50.19"/>
<polygon fill="#63b8ff" stroke="#63b8ff" points="819.19,-43.72 809.14,-47.08 819.09,-50.71 819.19,-43.72"/>
</a>
</g>
</g>
</g>
</svg>
