<?xml version="1.0" encoding="UTF-8" standalone="no"?>
<!DOCTYPE svg PUBLIC "-//W3C//DTD SVG 1.1//EN"
 "http://www.w3.org/Graphics/SVG/1.1/DTD/svg11.dtd">
<!-- Generated by graphviz version 9.0.0 (20230911.1827)
 -->
<!-- Title: Cpl::Io::Stdio::Input_ Pages: 1 -->
<svg width="248pt" height="206pt"
 viewBox="0.00 0.00 247.88 206.25" xmlns="http://www.w3.org/2000/svg" xmlns:xlink="http://www.w3.org/1999/xlink">
<g id="graph0" class="graph" transform="scale(1 1) rotate(0) translate(4 202.25)">
<title>Cpl::Io::Stdio::Input_</title>
<!-- Node1 -->
<g id="Node000001" class="node">
<title>Node1</title>
<g id="a_Node000001"><a xlink:title="This concrete class implements a Input stream using the underlying platform&#39;s native OS &#39;file interfa...">
<polygon fill="#999999" stroke="#666666" points="194.75,-19.25 93.25,-19.25 93.25,0 194.75,0 194.75,-19.25"/>
<text text-anchor="middle" x="144" y="-5.75" font-family="Helvetica,sans-Serif" font-size="10.00">Cpl::Io::Stdio::Input_</text>
</a>
</g>
</g>
<!-- Node2 -->
<g id="Node000002" class="node">
<title>Node2</title>
<g id="a_Node000002"><a xlink:href="class_cpl_1_1_io_1_1_input.html" target="_top" xlink:title="This partially abstract class defines a interface for operating on an input stream (example of a stre...">
<polygon fill="white" stroke="#666666" points="129.62,-85.75 60.38,-85.75 60.38,-66.5 129.62,-66.5 129.62,-85.75"/>
<text text-anchor="middle" x="95" y="-72.25" font-family="Helvetica,sans-Serif" font-size="10.00">Cpl::Io::Input</text>
</a>
</g>
</g>
<!-- Node2&#45;&gt;Node1 -->
<g id="edge1_Node000001_Node000002" class="edge">
<title>Node2&#45;&gt;Node1</title>
<g id="a_edge1_Node000001_Node000002"><a xlink:title=" ">
<path fill="none" stroke="#63b8ff" d="M108.58,-57.24C117.91,-44.97 129.88,-29.21 137.24,-19.52"/>
<polygon fill="#63b8ff" stroke="#63b8ff" points="105.99,-54.87 102.73,-64.95 111.57,-59.11 105.99,-54.87"/>
</a>
</g>
</g>
<!-- Node3 -->
<g id="Node000003" class="node">
<title>Node3</title>
<g id="a_Node000003"><a xlink:href="class_cpl_1_1_io_1_1_close.html" target="_top" xlink:title="This abstract class defines a close operation that is intended to be used Input and Output streams/fi...">
<polygon fill="white" stroke="#666666" points="86.12,-142 13.88,-142 13.88,-122.75 86.12,-122.75 86.12,-142"/>
<text text-anchor="middle" x="50" y="-128.5" font-family="Helvetica,sans-Serif" font-size="10.00">Cpl::Io::Close</text>
</a>
</g>
</g>
<!-- Node3&#45;&gt;Node2 -->
<g id="edge2_Node000002_Node000003" class="edge">
<title>Node3&#45;&gt;Node2</title>
<g id="a_edge2_Node000002_Node000003"><a xlink:title=" ">
<path fill="none" stroke="#63b8ff" d="M64.77,-113.57C72.46,-104.3 81.52,-93.37 87.71,-85.92"/>
<polygon fill="#63b8ff" stroke="#63b8ff" points="62.09,-111.32 58.4,-121.25 67.48,-115.79 62.09,-111.32"/>
</a>
</g>
</g>
<!-- Node4 -->
<g id="Node000004" class="node">
<title>Node4</title>
<g id="a_Node000004"><a xlink:href="class_cpl_1_1_container_1_1_item.html" target="_top" xlink:title="This class is used by the Container classes to implement a various types of singly linked containers.">
<polygon fill="white" stroke="#666666" points="100,-198.25 0,-198.25 0,-179 100,-179 100,-198.25"/>
<text text-anchor="middle" x="50" y="-184.75" font-family="Helvetica,sans-Serif" font-size="10.00">Cpl::Container::Item</text>
</a>
</g>
</g>
<!-- Node4&#45;&gt;Node3 -->
<g id="edge3_Node000003_Node000004" class="edge">
<title>Node4&#45;&gt;Node3</title>
<g id="a_edge3_Node000003_Node000004"><a xlink:title=" ">
<path fill="none" stroke="#63b8ff" d="M50,-167.44C50,-158.73 50,-148.99 50,-142.17"/>
<polygon fill="#63b8ff" stroke="#63b8ff" points="46.5,-167.15 50,-177.15 53.5,-167.15 46.5,-167.15"/>
</a>
</g>
</g>
<!-- Node5 -->
<g id="Node000005" class="node">
<title>Node5</title>
<g id="a_Node000005"><a xlink:href="class_cpl_1_1_io_1_1_is_eos.html" target="_top" xlink:title="This abstract class defines a isEos() operation that is intended to be used Input and Output streams.">
<polygon fill="white" stroke="#666666" points="176.12,-142 103.88,-142 103.88,-122.75 176.12,-122.75 176.12,-142"/>
<text text-anchor="middle" x="140" y="-128.5" font-family="Helvetica,sans-Serif" font-size="10.00">Cpl::Io::IsEos</text>
</a>
</g>
</g>
<!-- Node5&#45;&gt;Node2 -->
<g id="edge4_Node000002_Node000005" class="edge">
<title>Node5&#45;&gt;Node2</title>
<g id="a_edge4_Node000002_Node000005"><a xlink:title=" ">
<path fill="none" stroke="#63b8ff" d="M125.23,-113.57C117.54,-104.3 108.48,-93.37 102.29,-85.92"/>
<polygon fill="#63b8ff" stroke="#63b8ff" points="122.52,-115.79 131.6,-121.25 127.91,-111.32 122.52,-115.79"/>
</a>
</g>
</g>
<!-- Node6 -->
<g id="Node000006" class="node">
<title>Node6</title>
<g id="a_Node000006"><a xlink:href="union_cpl_1_1_io_1_1_descriptor.html" target="_top" xlink:title="This union defines a &#39;IO descriptor&#39; in terms of a an integer and/or a void*.">
<polygon fill="white" stroke="#666666" points="239.88,-85.75 148.12,-85.75 148.12,-66.5 239.88,-66.5 239.88,-85.75"/>
<text text-anchor="middle" x="194" y="-72.25" font-family="Helvetica,sans-Serif" font-size="10.00">Cpl::Io::Descriptor</text>
</a>
</g>
</g>
<!-- Node6&#45;&gt;Node1 -->
<g id="edge5_Node000001_Node000006" class="edge">
<title>Node6&#45;&gt;Node1</title>
<g id="a_edge5_Node000001_Node000006"><a xlink:title=" ">
<path fill="none" stroke="#9a32cd" stroke-dasharray="5,2" d="M180.14,-57.24C170.63,-44.97 158.41,-29.21 150.89,-19.52"/>
<polygon fill="#9a32cd" stroke="#9a32cd" points="177.23,-59.2 186.12,-64.96 182.76,-54.91 177.23,-59.2"/>
</a>
</g>
<text text-anchor="middle" x="188.25" y="-39" font-family="Helvetica,sans-Serif" font-size="10.00" fill="grey"> m_inFd</text>
</g>
</g>
</svg>
