<?xml version="1.0" encoding="UTF-8" standalone="no"?>
<!DOCTYPE svg PUBLIC "-//W3C//DTD SVG 1.1//EN"
 "http://www.w3.org/Graphics/SVG/1.1/DTD/svg11.dtd">
<!-- Generated by graphviz version 9.0.0 (20230911.1827)
 -->
<!-- Title: Cpl::TShell::Cmd::Threads Pages: 1 -->
<svg width="284pt" height="437pt"
 viewBox="0.00 0.00 283.50 436.50" xmlns="http://www.w3.org/2000/svg" xmlns:xlink="http://www.w3.org/1999/xlink">
<g id="graph0" class="graph" transform="scale(1 1) rotate(0) translate(4 432.5)">
<title>Cpl::TShell::Cmd::Threads</title>
<!-- Node1 -->
<g id="Node000001" class="node">
<title>Node1</title>
<g id="a_Node000001"><a xlink:title="This class implements a Shell command.">
<polygon fill="#999999" stroke="#666666" points="205.62,-85.75 78.62,-85.75 78.62,-66.5 205.62,-66.5 205.62,-85.75"/>
<text text-anchor="middle" x="142.12" y="-72.25" font-family="Helvetica,sans-Serif" font-size="10.00">Cpl::TShell::Cmd::Threads</text>
</a>
</g>
</g>
<!-- Node9 -->
<g id="Node000009" class="node">
<title>Node9</title>
<g id="a_Node000009"><a xlink:href="class_cpl_1_1_t_shell_1_1_cmd_1_1_free_r_t_o_s_1_1_threads.html" target="_top" xlink:title="This class implements a TShell command.">
<polygon fill="white" stroke="#666666" points="138.25,-30.5 0,-30.5 0,0 138.25,0 138.25,-30.5"/>
<text text-anchor="start" x="8" y="-17" font-family="Helvetica,sans-Serif" font-size="10.00">Cpl::TShell::Cmd::FreeRTOS</text>
<text text-anchor="middle" x="69.12" y="-5.75" font-family="Helvetica,sans-Serif" font-size="10.00">::Threads</text>
</a>
</g>
</g>
<!-- Node1&#45;&gt;Node9 -->
<g id="edge8_Node000001_Node000009" class="edge">
<title>Node1&#45;&gt;Node9</title>
<g id="a_edge8_Node000001_Node000009"><a xlink:title=" ">
<path fill="none" stroke="#63b8ff" d="M122.2,-59.06C111.25,-50.23 97.78,-39.36 87.14,-30.78"/>
<polygon fill="#63b8ff" stroke="#63b8ff" points="119.88,-61.68 129.86,-65.23 124.27,-56.23 119.88,-61.68"/>
</a>
</g>
</g>
<!-- Node10 -->
<g id="Node000010" class="node">
<title>Node10</title>
<g id="a_Node000010"><a xlink:href="class_cpl_1_1_t_shell_1_1_cmd_1_1_win32_1_1_threads.html" target="_top" xlink:title="This class implements a TShell command.">
<polygon fill="white" stroke="#666666" points="275.5,-30.5 156.75,-30.5 156.75,0 275.5,0 275.5,-30.5"/>
<text text-anchor="start" x="164.75" y="-17" font-family="Helvetica,sans-Serif" font-size="10.00">Cpl::TShell::Cmd::Win32</text>
<text text-anchor="middle" x="216.12" y="-5.75" font-family="Helvetica,sans-Serif" font-size="10.00">::Threads</text>
</a>
</g>
</g>
<!-- Node1&#45;&gt;Node10 -->
<g id="edge9_Node000001_Node000010" class="edge">
<title>Node1&#45;&gt;Node10</title>
<g id="a_edge9_Node000001_Node000010"><a xlink:title=" ">
<path fill="none" stroke="#63b8ff" d="M162.32,-59.06C173.42,-50.23 187.08,-39.36 197.86,-30.78"/>
<polygon fill="#63b8ff" stroke="#63b8ff" points="160.19,-56.28 154.55,-65.24 164.55,-61.75 160.19,-56.28"/>
</a>
</g>
</g>
<!-- Node2 -->
<g id="Node000002" class="node">
<title>Node2</title>
<g id="a_Node000002"><a xlink:href="class_cpl_1_1_t_shell_1_1_cmd_1_1_command.html" target="_top" xlink:title="This partially concrete class implements infrastructure and/or common functionality for a Shell comma...">
<polygon fill="white" stroke="#666666" points="142.12,-146.62 6.12,-146.62 6.12,-127.38 142.12,-127.38 142.12,-146.62"/>
<text text-anchor="middle" x="74.12" y="-133.12" font-family="Helvetica,sans-Serif" font-size="10.00">Cpl::TShell::Cmd::Command</text>
</a>
</g>
</g>
<!-- Node2&#45;&gt;Node1 -->
<g id="edge1_Node000001_Node000002" class="edge">
<title>Node2&#45;&gt;Node1</title>
<g id="a_edge1_Node000001_Node000002"><a xlink:title=" ">
<path fill="none" stroke="#63b8ff" d="M92.82,-119.81C105.35,-108.96 121.38,-95.09 131.7,-86.15"/>
<polygon fill="#63b8ff" stroke="#63b8ff" points="90.87,-116.88 85.6,-126.07 95.45,-122.17 90.87,-116.88"/>
</a>
</g>
</g>
<!-- Node3 -->
<g id="Node000003" class="node">
<title>Node3</title>
<g id="a_Node000003"><a xlink:href="class_cpl_1_1_t_shell_1_1_command.html" target="_top" xlink:title="This class defines the interface for a TShell command.">
<polygon fill="white" stroke="#666666" points="129.75,-207.5 18.5,-207.5 18.5,-188.25 129.75,-188.25 129.75,-207.5"/>
<text text-anchor="middle" x="74.12" y="-194" font-family="Helvetica,sans-Serif" font-size="10.00">Cpl::TShell::Command</text>
</a>
</g>
</g>
<!-- Node3&#45;&gt;Node2 -->
<g id="edge2_Node000002_Node000003" class="edge">
<title>Node3&#45;&gt;Node2</title>
<g id="a_edge2_Node000002_Node000003"><a xlink:title=" ">
<path fill="none" stroke="#63b8ff" d="M74.12,-176.45C74.12,-166.42 74.12,-154.83 74.12,-147.03"/>
<polygon fill="#63b8ff" stroke="#63b8ff" points="70.63,-176.42 74.13,-186.42 77.63,-176.42 70.63,-176.42"/>
</a>
</g>
</g>
<!-- Node4 -->
<g id="Node000004" class="node">
<title>Node4</title>
<g id="a_Node000004"><a xlink:href="class_cpl_1_1_container_1_1_map_item.html" target="_top" xlink:title="This abstract class represents a item that can be contained in an Map (aka a sorted list implemented ...">
<polygon fill="white" stroke="#666666" points="133.5,-262.75 14.75,-262.75 14.75,-243.5 133.5,-243.5 133.5,-262.75"/>
<text text-anchor="middle" x="74.12" y="-249.25" font-family="Helvetica,sans-Serif" font-size="10.00">Cpl::Container::MapItem</text>
</a>
</g>
</g>
<!-- Node4&#45;&gt;Node3 -->
<g id="edge3_Node000003_Node000004" class="edge">
<title>Node4&#45;&gt;Node3</title>
<g id="a_edge3_Node000003_Node000004"><a xlink:title=" ">
<path fill="none" stroke="#63b8ff" d="M74.12,-231.88C74.12,-223.59 74.12,-214.42 74.12,-207.86"/>
<polygon fill="#63b8ff" stroke="#63b8ff" points="70.63,-231.82 74.13,-241.82 77.63,-231.82 70.63,-231.82"/>
</a>
</g>
</g>
<!-- Node5 -->
<g id="Node000005" class="node">
<title>Node5</title>
<g id="a_Node000005"><a xlink:href="class_cpl_1_1_container_1_1_dict_item.html" target="_top" xlink:title="This abstract class represents a item that can be contained in Dictionary.">
<polygon fill="white" stroke="#666666" points="132.75,-318 15.5,-318 15.5,-298.75 132.75,-298.75 132.75,-318"/>
<text text-anchor="middle" x="74.12" y="-304.5" font-family="Helvetica,sans-Serif" font-size="10.00">Cpl::Container::DictItem</text>
</a>
</g>
</g>
<!-- Node5&#45;&gt;Node4 -->
<g id="edge4_Node000004_Node000005" class="edge">
<title>Node5&#45;&gt;Node4</title>
<g id="a_edge4_Node000004_Node000005"><a xlink:title=" ">
<path fill="none" stroke="#63b8ff" d="M74.12,-287.13C74.12,-278.84 74.12,-269.67 74.12,-263.11"/>
<polygon fill="#63b8ff" stroke="#63b8ff" points="70.63,-287.07 74.13,-297.07 77.63,-287.07 70.63,-287.07"/>
</a>
</g>
</g>
<!-- Node6 -->
<g id="Node000006" class="node">
<title>Node6</title>
<g id="a_Node000006"><a xlink:href="class_cpl_1_1_container_1_1_extended_item.html" target="_top" xlink:title="This class is used by the Container classes to implement a various types of DOUBLY linked containers.">
<polygon fill="white" stroke="#666666" points="144,-373.25 4.25,-373.25 4.25,-354 144,-354 144,-373.25"/>
<text text-anchor="middle" x="74.12" y="-359.75" font-family="Helvetica,sans-Serif" font-size="10.00">Cpl::Container::ExtendedItem</text>
</a>
</g>
</g>
<!-- Node6&#45;&gt;Node5 -->
<g id="edge5_Node000005_Node000006" class="edge">
<title>Node6&#45;&gt;Node5</title>
<g id="a_edge5_Node000005_Node000006"><a xlink:title=" ">
<path fill="none" stroke="#63b8ff" d="M74.12,-342.38C74.12,-334.09 74.12,-324.92 74.12,-318.36"/>
<polygon fill="#63b8ff" stroke="#63b8ff" points="70.63,-342.32 74.13,-352.32 77.63,-342.32 70.63,-342.32"/>
</a>
</g>
</g>
<!-- Node7 -->
<g id="Node000007" class="node">
<title>Node7</title>
<g id="a_Node000007"><a xlink:href="class_cpl_1_1_container_1_1_item.html" target="_top" xlink:title="This class is used by the Container classes to implement a various types of singly linked containers.">
<polygon fill="white" stroke="#666666" points="124.12,-428.5 24.12,-428.5 24.12,-409.25 124.12,-409.25 124.12,-428.5"/>
<text text-anchor="middle" x="74.12" y="-415" font-family="Helvetica,sans-Serif" font-size="10.00">Cpl::Container::Item</text>
</a>
</g>
</g>
<!-- Node7&#45;&gt;Node6 -->
<g id="edge6_Node000006_Node000007" class="edge">
<title>Node7&#45;&gt;Node6</title>
<g id="a_edge6_Node000006_Node000007"><a xlink:title=" ">
<path fill="none" stroke="#63b8ff" d="M74.12,-397.63C74.12,-389.34 74.12,-380.17 74.12,-373.61"/>
<polygon fill="#63b8ff" stroke="#63b8ff" points="70.63,-397.57 74.13,-407.57 77.63,-397.57 70.63,-397.57"/>
</a>
</g>
</g>
<!-- Node8 -->
<g id="Node000008" class="node">
<title>Node8</title>
<g id="a_Node000008"><a xlink:href="class_cpl_1_1_system_1_1_thread_1_1_traverser.html" target="_top" xlink:title="This abstract class defines the client interface for walking the list of threads, i....">
<polygon fill="white" stroke="#666666" points="262.25,-152.25 160,-152.25 160,-121.75 262.25,-121.75 262.25,-152.25"/>
<text text-anchor="start" x="168" y="-138.75" font-family="Helvetica,sans-Serif" font-size="10.00">Cpl::System::Thread</text>
<text text-anchor="middle" x="211.12" y="-127.5" font-family="Helvetica,sans-Serif" font-size="10.00">::Traverser</text>
</a>
</g>
</g>
<!-- Node8&#45;&gt;Node1 -->
<g id="edge7_Node000001_Node000008" class="edge">
<title>Node8&#45;&gt;Node1</title>
<g id="a_edge7_Node000001_Node000008"><a xlink:title=" ">
<path fill="none" stroke="#63b8ff" d="M185.4,-114.05C174.1,-104.4 161.45,-93.61 152.76,-86.2"/>
<polygon fill="#63b8ff" stroke="#63b8ff" points="183.04,-116.64 192.92,-120.46 187.58,-111.31 183.04,-116.64"/>
</a>
</g>
</g>
</g>
</svg>
