<?xml version="1.0" encoding="UTF-8" standalone="no"?>
<!DOCTYPE svg PUBLIC "-//W3C//DTD SVG 1.1//EN"
 "http://www.w3.org/Graphics/SVG/1.1/DTD/svg11.dtd">
<!-- Generated by graphviz version 9.0.0 (20230911.1827)
 -->
<!-- Title: Cpl::Text::FStringItem&lt; S &gt; Pages: 1 -->
<svg width="251pt" height="319pt"
 viewBox="0.00 0.00 251.38 318.75" xmlns="http://www.w3.org/2000/svg" xmlns:xlink="http://www.w3.org/1999/xlink">
<g id="graph0" class="graph" transform="scale(1 1) rotate(0) translate(4 314.75)">
<title>Cpl::Text::FStringItem&lt; S &gt;</title>
<!-- Node1 -->
<g id="Node000001" class="node">
<title>Node1</title>
<g id="a_Node000001"><a xlink:title="This template class implements the StringItem class for a &#39;String&#39; using a &#39;FString&#39; as the internal ...">
<polygon fill="#999999" stroke="#666666" points="197,-19.25 64.75,-19.25 64.75,0 197,0 197,-19.25"/>
<text text-anchor="middle" x="130.88" y="-5.75" font-family="Helvetica,sans-Serif" font-size="10.00">Cpl::Text::FStringItem&lt; S &gt;</text>
</a>
</g>
</g>
<!-- Node2 -->
<g id="Node000002" class="node">
<title>Node2</title>
<g id="a_Node000002"><a xlink:href="class_cpl_1_1_text_1_1_string_item.html" target="_top" xlink:title="This partially concrete provides a wrapper class that allows a String object to be stored directly in...">
<polygon fill="white" stroke="#666666" points="182.38,-75.5 79.38,-75.5 79.38,-56.25 182.38,-56.25 182.38,-75.5"/>
<text text-anchor="middle" x="130.88" y="-62" font-family="Helvetica,sans-Serif" font-size="10.00">Cpl::Text::StringItem</text>
</a>
</g>
</g>
<!-- Node2&#45;&gt;Node1 -->
<g id="edge1_Node000001_Node000002" class="edge">
<title>Node2&#45;&gt;Node1</title>
<g id="a_edge1_Node000001_Node000002"><a xlink:title=" ">
<path fill="none" stroke="#63b8ff" d="M130.88,-44.69C130.88,-35.98 130.88,-26.24 130.88,-19.42"/>
<polygon fill="#63b8ff" stroke="#63b8ff" points="127.38,-44.4 130.88,-54.4 134.38,-44.4 127.38,-44.4"/>
</a>
</g>
</g>
<!-- Node3 -->
<g id="Node000003" class="node">
<title>Node3</title>
<g id="a_Node000003"><a xlink:href="class_cpl_1_1_container_1_1_map_item.html" target="_top" xlink:title="This abstract class represents a item that can be contained in an Map (aka a sorted list implemented ...">
<polygon fill="white" stroke="#666666" points="131.25,-142 12.5,-142 12.5,-122.75 131.25,-122.75 131.25,-142"/>
<text text-anchor="middle" x="71.88" y="-128.5" font-family="Helvetica,sans-Serif" font-size="10.00">Cpl::Container::MapItem</text>
</a>
</g>
</g>
<!-- Node3&#45;&gt;Node2 -->
<g id="edge2_Node000002_Node000003" class="edge">
<title>Node3&#45;&gt;Node2</title>
<g id="a_edge2_Node000002_Node000003"><a xlink:title=" ">
<path fill="none" stroke="#63b8ff" d="M87.57,-114.22C98.88,-101.85 113.7,-85.65 122.74,-75.77"/>
<polygon fill="#63b8ff" stroke="#63b8ff" points="85.27,-111.55 81.1,-121.29 90.43,-116.27 85.27,-111.55"/>
</a>
</g>
</g>
<!-- Node4 -->
<g id="Node000004" class="node">
<title>Node4</title>
<g id="a_Node000004"><a xlink:href="class_cpl_1_1_container_1_1_dict_item.html" target="_top" xlink:title="This abstract class represents a item that can be contained in Dictionary.">
<polygon fill="white" stroke="#666666" points="128.5,-198.25 11.25,-198.25 11.25,-179 128.5,-179 128.5,-198.25"/>
<text text-anchor="middle" x="69.88" y="-184.75" font-family="Helvetica,sans-Serif" font-size="10.00">Cpl::Container::DictItem</text>
</a>
</g>
</g>
<!-- Node4&#45;&gt;Node3 -->
<g id="edge3_Node000003_Node000004" class="edge">
<title>Node4&#45;&gt;Node3</title>
<g id="a_edge3_Node000003_Node000004"><a xlink:title=" ">
<path fill="none" stroke="#63b8ff" d="M70.62,-167.44C70.94,-158.73 71.3,-148.99 71.55,-142.17"/>
<polygon fill="#63b8ff" stroke="#63b8ff" points="67.13,-167.03 70.26,-177.15 74.13,-167.29 67.13,-167.03"/>
</a>
</g>
</g>
<!-- Node5 -->
<g id="Node000005" class="node">
<title>Node5</title>
<g id="a_Node000005"><a xlink:href="class_cpl_1_1_container_1_1_extended_item.html" target="_top" xlink:title="This class is used by the Container classes to implement a various types of DOUBLY linked containers.">
<polygon fill="white" stroke="#666666" points="139.75,-254.5 0,-254.5 0,-235.25 139.75,-235.25 139.75,-254.5"/>
<text text-anchor="middle" x="69.88" y="-241" font-family="Helvetica,sans-Serif" font-size="10.00">Cpl::Container::ExtendedItem</text>
</a>
</g>
</g>
<!-- Node5&#45;&gt;Node4 -->
<g id="edge4_Node000004_Node000005" class="edge">
<title>Node5&#45;&gt;Node4</title>
<g id="a_edge4_Node000004_Node000005"><a xlink:title=" ">
<path fill="none" stroke="#63b8ff" d="M69.88,-223.69C69.88,-214.98 69.88,-205.24 69.88,-198.42"/>
<polygon fill="#63b8ff" stroke="#63b8ff" points="66.38,-223.4 69.88,-233.4 73.38,-223.4 66.38,-223.4"/>
</a>
</g>
</g>
<!-- Node6 -->
<g id="Node000006" class="node">
<title>Node6</title>
<g id="a_Node000006"><a xlink:href="class_cpl_1_1_container_1_1_item.html" target="_top" xlink:title="This class is used by the Container classes to implement a various types of singly linked containers.">
<polygon fill="white" stroke="#666666" points="119.88,-310.75 19.88,-310.75 19.88,-291.5 119.88,-291.5 119.88,-310.75"/>
<text text-anchor="middle" x="69.88" y="-297.25" font-family="Helvetica,sans-Serif" font-size="10.00">Cpl::Container::Item</text>
</a>
</g>
</g>
<!-- Node6&#45;&gt;Node5 -->
<g id="edge5_Node000005_Node000006" class="edge">
<title>Node6&#45;&gt;Node5</title>
<g id="a_edge5_Node000005_Node000006"><a xlink:title=" ">
<path fill="none" stroke="#63b8ff" d="M69.88,-279.94C69.88,-271.23 69.88,-261.49 69.88,-254.67"/>
<polygon fill="#63b8ff" stroke="#63b8ff" points="66.38,-279.65 69.88,-289.65 73.38,-279.65 66.38,-279.65"/>
</a>
</g>
</g>
<!-- Node7 -->
<g id="Node000007" class="node">
<title>Node7</title>
<g id="a_Node000007"><a xlink:href="class_cpl_1_1_text_1_1_string.html" target="_top" xlink:title="This abstract class defines the operations that can be before on a NULL terminated string.">
<polygon fill="white" stroke="#666666" points="235.62,-142 152.12,-142 152.12,-122.75 235.62,-122.75 235.62,-142"/>
<text text-anchor="middle" x="193.88" y="-128.5" font-family="Helvetica,sans-Serif" font-size="10.00">Cpl::Text::String</text>
</a>
</g>
</g>
<!-- Node7&#45;&gt;Node2 -->
<g id="edge6_Node000002_Node000007" class="edge">
<title>Node7&#45;&gt;Node2</title>
<g id="a_edge6_Node000002_Node000007"><a xlink:title=" ">
<path fill="none" stroke="#9a32cd" stroke-dasharray="5,2" d="M177.12,-114.22C165.04,-101.85 149.21,-85.65 139.56,-75.77"/>
<polygon fill="#9a32cd" stroke="#9a32cd" points="174.57,-116.62 184.06,-121.32 179.57,-111.72 174.57,-116.62"/>
</a>
</g>
<text text-anchor="middle" x="193.88" y="-95.25" font-family="Helvetica,sans-Serif" font-size="10.00" fill="grey"> m_myString</text>
</g>
<!-- Node8 -->
<g id="Node000008" class="node">
<title>Node8</title>
<g id="a_Node000008"><a xlink:href="class_cpl_1_1_container_1_1_key.html" target="_top" xlink:title="This abstract class defines the interface that a contained object must support if it has comparable k...">
<polygon fill="white" stroke="#666666" points="243.38,-198.25 146.38,-198.25 146.38,-179 243.38,-179 243.38,-198.25"/>
<text text-anchor="middle" x="194.88" y="-184.75" font-family="Helvetica,sans-Serif" font-size="10.00">Cpl::Container::Key</text>
</a>
</g>
</g>
<!-- Node8&#45;&gt;Node7 -->
<g id="edge7_Node000007_Node000008" class="edge">
<title>Node8&#45;&gt;Node7</title>
<g id="a_edge7_Node000007_Node000008"><a xlink:title=" ">
<path fill="none" stroke="#63b8ff" d="M194.5,-167.44C194.34,-158.73 194.16,-148.99 194.04,-142.17"/>
<polygon fill="#63b8ff" stroke="#63b8ff" points="191,-167.22 194.68,-177.15 198,-167.09 191,-167.22"/>
</a>
</g>
</g>
</g>
</svg>
