<?xml version="1.0" encoding="UTF-8" standalone="no"?>
<!DOCTYPE svg PUBLIC "-//W3C//DTD SVG 1.1//EN"
 "http://www.w3.org/Graphics/SVG/1.1/DTD/svg11.dtd">
<!-- Generated by graphviz version 9.0.0 (20230911.1827)
 -->
<!-- Title: Cpl::Io::InputOutput Pages: 1 -->
<svg width="809pt" height="450pt"
 viewBox="0.00 0.00 809.00 449.88" xmlns="http://www.w3.org/2000/svg" xmlns:xlink="http://www.w3.org/1999/xlink">
<g id="graph0" class="graph" transform="scale(1 1) rotate(0) translate(4 445.88)">
<title>Cpl::Io::InputOutput</title>
<!-- Node1 -->
<g id="Node000001" class="node">
<title>Node1</title>
<g id="a_Node000001"><a xlink:title="This abstract class defines a interface for operating on an input&#45;output stream (example of a stream ...">
<polygon fill="#999999" stroke="#666666" points="455.5,-238.88 357,-238.88 357,-219.62 455.5,-219.62 455.5,-238.88"/>
<text text-anchor="middle" x="406.25" y="-225.38" font-family="Helvetica,sans-Serif" font-size="10.00">Cpl::Io::InputOutput</text>
</a>
</g>
</g>
<!-- Node7 -->
<g id="Node000007" class="node">
<title>Node7</title>
<g id="a_Node000007"><a xlink:href="class_cpl_1_1_io_1_1_null.html" target="_top" xlink:title="This concrete class implements a NULL InputOutput stream &#45; that all of its input operations return &#39;E...">
<polygon fill="white" stroke="#666666" points="590.75,-441.88 526,-441.88 526,-422.62 590.75,-422.62 590.75,-441.88"/>
<text text-anchor="middle" x="558.38" y="-428.38" font-family="Helvetica,sans-Serif" font-size="10.00">Cpl::Io::Null</text>
</a>
</g>
</g>
<!-- Node1&#45;&gt;Node7 -->
<g id="edge8_Node000001_Node000007" class="edge">
<title>Node1&#45;&gt;Node7</title>
<g id="a_edge8_Node000001_Node000007"><a xlink:title=" ">
<path fill="none" stroke="#63b8ff" d="M410.81,-250.3C418.45,-288.77 440.07,-370.48 491.5,-414.25 500.98,-422.32 513.77,-426.8 525.55,-429.27"/>
<polygon fill="#63b8ff" stroke="#63b8ff" points="414.27,-249.72 409.01,-240.52 407.38,-250.99 414.27,-249.72"/>
</a>
</g>
</g>
<!-- Node8 -->
<g id="Node000008" class="node">
<title>Node8</title>
<g id="a_Node000008"><a xlink:href="class_cpl_1_1_io_1_1_ram_1_1_input_output.html" target="_top" xlink:title="This concrete class implements an InputOutput stream using a Ring Buffer.">
<polygon fill="white" stroke="#666666" points="620,-404.88 496.75,-404.88 496.75,-385.62 620,-385.62 620,-404.88"/>
<text text-anchor="middle" x="558.38" y="-391.38" font-family="Helvetica,sans-Serif" font-size="10.00">Cpl::Io::Ram::InputOutput</text>
</a>
</g>
</g>
<!-- Node1&#45;&gt;Node8 -->
<g id="edge9_Node000001_Node000008" class="edge">
<title>Node1&#45;&gt;Node8</title>
<g id="a_edge9_Node000001_Node000008"><a xlink:title=" ">
<path fill="none" stroke="#63b8ff" d="M413.47,-249.9C424.15,-281.81 449.03,-342.91 491.5,-376.25 496.09,-379.85 501.33,-382.77 506.81,-385.14"/>
<polygon fill="#63b8ff" stroke="#63b8ff" points="416.9,-249.12 410.52,-240.65 410.23,-251.25 416.9,-249.12"/>
</a>
</g>
</g>
<!-- Node9 -->
<g id="Node000009" class="node">
<title>Node9</title>
<g id="a_Node000009"><a xlink:href="class_cpl_1_1_io_1_1_serial_1_1_adafruit_1_1_nrf5_1_1_b_l_e_1_1_input_output.html" target="_top" xlink:title="This concrete class implements the InputOutput stream interface as a wrapper around Adafruit&#39;s BLEUar...">
<polygon fill="white" stroke="#666666" points="617.38,-367.5 499.38,-367.5 499.38,-337 617.38,-337 617.38,-367.5"/>
<text text-anchor="start" x="507.38" y="-354" font-family="Helvetica,sans-Serif" font-size="10.00">Cpl::Io::Serial::Adafruit</text>
<text text-anchor="middle" x="558.38" y="-342.75" font-family="Helvetica,sans-Serif" font-size="10.00">::Nrf5::BLE::InputOutput</text>
</a>
</g>
</g>
<!-- Node1&#45;&gt;Node9 -->
<g id="edge10_Node000001_Node000009" class="edge">
<title>Node1&#45;&gt;Node9</title>
<g id="a_edge10_Node000001_Node000009"><a xlink:title=" ">
<path fill="none" stroke="#63b8ff" d="M419.67,-248.86C434.41,-270.7 460.88,-305.77 491.5,-327.25 496.51,-330.76 502.07,-333.86 507.78,-336.56"/>
<polygon fill="#63b8ff" stroke="#63b8ff" points="422.65,-247.02 414.24,-240.58 416.8,-250.86 422.65,-247.02"/>
</a>
</g>
</g>
<!-- Node10 -->
<g id="Node000010" class="node">
<title>Node10</title>
<g id="a_Node000010"><a xlink:href="class_cpl_1_1_io_1_1_serial_1_1_adafruit_1_1_nrf5_1_1_input_output.html" target="_top" xlink:title="This concrete class implements the InputOutput stream interface as a wrapper around Adafruit&#39;s Arduin...">
<polygon fill="white" stroke="#666666" points="613.62,-318.5 503.12,-318.5 503.12,-288 613.62,-288 613.62,-318.5"/>
<text text-anchor="start" x="511.12" y="-305" font-family="Helvetica,sans-Serif" font-size="10.00">Cpl::Io::Serial::Adafruit</text>
<text text-anchor="middle" x="558.38" y="-293.75" font-family="Helvetica,sans-Serif" font-size="10.00">::Nrf5::InputOutput</text>
</a>
</g>
</g>
<!-- Node1&#45;&gt;Node10 -->
<g id="edge11_Node000001_Node000010" class="edge">
<title>Node1&#45;&gt;Node10</title>
<g id="a_edge11_Node000001_Node000010"><a xlink:title=" ">
<path fill="none" stroke="#63b8ff" d="M432.11,-245.16C448.58,-255.34 470.88,-268.42 491.5,-278.25 498.35,-281.51 505.74,-284.66 513.02,-287.56"/>
<polygon fill="#63b8ff" stroke="#63b8ff" points="434.29,-242.39 423.95,-240.06 430.57,-248.33 434.29,-242.39"/>
</a>
</g>
</g>
<!-- Node11 -->
<g id="Node000011" class="node">
<title>Node11</title>
<g id="a_Node000011"><a xlink:href="class_cpl_1_1_io_1_1_serial_1_1_arduino_1_1_input_output.html" target="_top" xlink:title="This concrete class implements the InputOutput stream interface as a wrapper around Arduino Serial cl...">
<polygon fill="white" stroke="#666666" points="613.25,-269.5 503.5,-269.5 503.5,-239 613.25,-239 613.25,-269.5"/>
<text text-anchor="start" x="511.5" y="-256" font-family="Helvetica,sans-Serif" font-size="10.00">Cpl::Io::Serial::Arduino</text>
<text text-anchor="middle" x="558.38" y="-244.75" font-family="Helvetica,sans-Serif" font-size="10.00">::InputOutput</text>
</a>
</g>
</g>
<!-- Node1&#45;&gt;Node11 -->
<g id="edge12_Node000001_Node000011" class="edge">
<title>Node1&#45;&gt;Node11</title>
<g id="a_edge12_Node000001_Node000011"><a xlink:title=" ">
<path fill="none" stroke="#63b8ff" d="M467.18,-239.23C479.07,-241.21 491.48,-243.28 503.16,-245.22"/>
<polygon fill="#63b8ff" stroke="#63b8ff" points="467.92,-235.81 457.48,-237.62 466.77,-242.71 467.92,-235.81"/>
</a>
</g>
</g>
<!-- Node12 -->
<g id="Node000012" class="node">
<title>Node12</title>
<g id="a_Node000012"><a xlink:href="class_cpl_1_1_io_1_1_serial_1_1_phony_stdio_1_1_input_output.html" target="_top" xlink:title="This concrete class implements the InputOutput stream interface built on top the C Library&#39;s fread/fw...">
<polygon fill="white" stroke="#666666" points="621.5,-220.5 495.25,-220.5 495.25,-190 621.5,-190 621.5,-220.5"/>
<text text-anchor="start" x="503.25" y="-207" font-family="Helvetica,sans-Serif" font-size="10.00">Cpl::Io::Serial::PhonyStdio</text>
<text text-anchor="middle" x="558.38" y="-195.75" font-family="Helvetica,sans-Serif" font-size="10.00">::InputOutput</text>
</a>
</g>
</g>
<!-- Node1&#45;&gt;Node12 -->
<g id="edge13_Node000001_Node000012" class="edge">
<title>Node1&#45;&gt;Node12</title>
<g id="a_edge13_Node000001_Node000012"><a xlink:title=" ">
<path fill="none" stroke="#63b8ff" d="M467.3,-219.65C476.38,-218.2 485.78,-216.7 494.92,-215.24"/>
<polygon fill="#63b8ff" stroke="#63b8ff" points="466.81,-216.18 457.49,-221.22 467.91,-223.1 466.81,-216.18"/>
</a>
</g>
</g>
<!-- Node13 -->
<g id="Node000013" class="node">
<title>Node13</title>
<g id="a_Node000013"><a xlink:href="class_cpl_1_1_io_1_1_serial_1_1_s_t_1_1_m32_f4_1_1_input_output.html" target="_top" xlink:title="This concrete class implements the InputOutput stream interface built on top of ST HAL Layer/SDK.">
<polygon fill="white" stroke="#666666" points="611.38,-171.5 505.38,-171.5 505.38,-141 611.38,-141 611.38,-171.5"/>
<text text-anchor="start" x="513.38" y="-158" font-family="Helvetica,sans-Serif" font-size="10.00">Cpl::Io::Serial::ST</text>
<text text-anchor="middle" x="558.38" y="-146.75" font-family="Helvetica,sans-Serif" font-size="10.00">::M32F4::InputOutput</text>
</a>
</g>
</g>
<!-- Node1&#45;&gt;Node13 -->
<g id="edge14_Node000001_Node000013" class="edge">
<title>Node1&#45;&gt;Node13</title>
<g id="a_edge14_Node000001_Node000013"><a xlink:title=" ">
<path fill="none" stroke="#63b8ff" d="M432.45,-213.52C448.92,-203.59 471.07,-190.88 491.5,-181.25 498.36,-178.02 505.76,-174.88 513.04,-171.99"/>
<polygon fill="#63b8ff" stroke="#63b8ff" points="431.01,-210.3 424.3,-218.5 434.66,-216.28 431.01,-210.3"/>
</a>
</g>
</g>
<!-- Node14 -->
<g id="Node000014" class="node">
<title>Node14</title>
<g id="a_Node000014"><a xlink:href="class_cpl_1_1_io_1_1_socket_1_1_input_output.html" target="_top" xlink:title="This concrete class provides a platform independent &#39;standard&#39; implementation of an InputOutput strea...">
<polygon fill="white" stroke="#666666" points="625.25,-122.88 491.5,-122.88 491.5,-103.62 625.25,-103.62 625.25,-122.88"/>
<text text-anchor="middle" x="558.38" y="-109.38" font-family="Helvetica,sans-Serif" font-size="10.00">Cpl::Io::Socket::InputOutput</text>
</a>
</g>
</g>
<!-- Node1&#45;&gt;Node14 -->
<g id="edge15_Node000001_Node000014" class="edge">
<title>Node1&#45;&gt;Node14</title>
<g id="a_edge15_Node000001_Node000014"><a xlink:title=" ">
<path fill="none" stroke="#63b8ff" d="M419.18,-209.73C433.63,-187.71 459.99,-152.36 491.5,-132.25 497.12,-128.66 503.43,-125.74 509.86,-123.35"/>
<polygon fill="#63b8ff" stroke="#63b8ff" points="416.3,-207.74 413.89,-218.06 422.21,-211.5 416.3,-207.74"/>
</a>
</g>
</g>
<!-- Node15 -->
<g id="Node000015" class="node">
<title>Node15</title>
<g id="a_Node000015"><a xlink:href="class_cpl_1_1_io_1_1_stdio_1_1_input_output__.html" target="_top" xlink:title="This concrete class implements a Input&#45;Output stream.">
<polygon fill="white" stroke="#666666" points="623.75,-85.88 493,-85.88 493,-66.62 623.75,-66.62 623.75,-85.88"/>
<text text-anchor="middle" x="558.38" y="-72.38" font-family="Helvetica,sans-Serif" font-size="10.00">Cpl::Io::Stdio::InputOutput_</text>
</a>
</g>
</g>
<!-- Node1&#45;&gt;Node15 -->
<g id="edge16_Node000001_Node000015" class="edge">
<title>Node1&#45;&gt;Node15</title>
<g id="a_edge16_Node000001_Node000015"><a xlink:title=" ">
<path fill="none" stroke="#63b8ff" d="M414.54,-208.56C426.11,-178.73 451.57,-123.97 491.5,-94.25 495.78,-91.06 500.59,-88.44 505.61,-86.29"/>
<polygon fill="#63b8ff" stroke="#63b8ff" points="411.26,-207.32 411.07,-217.92 417.82,-209.76 411.26,-207.32"/>
</a>
</g>
</g>
<!-- Node16 -->
<g id="Node000016" class="node">
<title>Node16</title>
<g id="a_Node000016"><a xlink:href="class_cpl_1_1_io_1_1_tcp_1_1_input_output.html" target="_top" xlink:title="This concrete class defines a platform independent implementation of an InputOutput stream used by th...">
<polygon fill="white" stroke="#666666" points="618.12,-48.88 498.62,-48.88 498.62,-29.62 618.12,-29.62 618.12,-48.88"/>
<text text-anchor="middle" x="558.38" y="-35.38" font-family="Helvetica,sans-Serif" font-size="10.00">Cpl::Io::Tcp::InputOutput</text>
</a>
</g>
</g>
<!-- Node1&#45;&gt;Node16 -->
<g id="edge17_Node000001_Node000016" class="edge">
<title>Node1&#45;&gt;Node16</title>
<g id="a_edge17_Node000001_Node000016"><a xlink:title=" ">
<path fill="none" stroke="#63b8ff" d="M411.63,-208.16C420.29,-171.76 443.14,-97.25 491.5,-57.25 495.34,-54.08 499.69,-51.46 504.28,-49.3"/>
<polygon fill="#63b8ff" stroke="#63b8ff" points="408.23,-207.32 409.46,-217.84 415.06,-208.85 408.23,-207.32"/>
</a>
</g>
</g>
<!-- Node2 -->
<g id="Node000002" class="node">
<title>Node2</title>
<g id="a_Node000002"><a xlink:href="class_cpl_1_1_io_1_1_input.html" target="_top" xlink:title="This partially abstract class defines a interface for operating on an input stream (example of a stre...">
<polygon fill="white" stroke="#666666" points="317.25,-257.88 248,-257.88 248,-238.62 317.25,-238.62 317.25,-257.88"/>
<text text-anchor="middle" x="282.62" y="-244.38" font-family="Helvetica,sans-Serif" font-size="10.00">Cpl::Io::Input</text>
</a>
</g>
</g>
<!-- Node2&#45;&gt;Node1 -->
<g id="edge1_Node000001_Node000002" class="edge">
<title>Node2&#45;&gt;Node1</title>
<g id="a_edge1_Node000001_Node000002"><a xlink:title=" ">
<path fill="none" stroke="#63b8ff" d="M328.68,-241.21C337.76,-239.79 347.35,-238.3 356.55,-236.86"/>
<polygon fill="#63b8ff" stroke="#63b8ff" points="328.34,-237.72 319,-242.72 329.42,-244.64 328.34,-237.72"/>
</a>
</g>
</g>
<!-- Node3 -->
<g id="Node000003" class="node">
<title>Node3</title>
<g id="a_Node000003"><a xlink:href="class_cpl_1_1_io_1_1_close.html" target="_top" xlink:title="This abstract class defines a close operation that is intended to be used Input and Output streams/fi...">
<polygon fill="white" stroke="#666666" points="208.25,-257.88 136,-257.88 136,-238.62 208.25,-238.62 208.25,-257.88"/>
<text text-anchor="middle" x="172.12" y="-244.38" font-family="Helvetica,sans-Serif" font-size="10.00">Cpl::Io::Close</text>
</a>
</g>
</g>
<!-- Node3&#45;&gt;Node2 -->
<g id="edge2_Node000002_Node000003" class="edge">
<title>Node3&#45;&gt;Node2</title>
<g id="a_edge2_Node000002_Node000003"><a xlink:title=" ">
<path fill="none" stroke="#63b8ff" d="M219.89,-248.25C229.3,-248.25 239.01,-248.25 247.86,-248.25"/>
<polygon fill="#63b8ff" stroke="#63b8ff" points="220.17,-244.75 210.17,-248.25 220.17,-251.75 220.17,-244.75"/>
</a>
</g>
</g>
<!-- Node6 -->
<g id="Node000006" class="node">
<title>Node6</title>
<g id="a_Node000006"><a xlink:href="class_cpl_1_1_io_1_1_output.html" target="_top" xlink:title="This partially abstract class defines a interface for operating on an output stream (example of a str...">
<polygon fill="white" stroke="#666666" points="321,-220.88 244.25,-220.88 244.25,-201.62 321,-201.62 321,-220.88"/>
<text text-anchor="middle" x="282.62" y="-207.38" font-family="Helvetica,sans-Serif" font-size="10.00">Cpl::Io::Output</text>
</a>
</g>
</g>
<!-- Node3&#45;&gt;Node6 -->
<g id="edge6_Node000006_Node000003" class="edge">
<title>Node3&#45;&gt;Node6</title>
<g id="a_edge6_Node000006_Node000003"><a xlink:title=" ">
<path fill="none" stroke="#63b8ff" d="M213.61,-234.44C226.35,-230.1 240.18,-225.38 252.01,-221.35"/>
<polygon fill="#63b8ff" stroke="#63b8ff" points="212.54,-231.11 204.21,-237.65 214.8,-237.74 212.54,-231.11"/>
</a>
</g>
</g>
<!-- Node4 -->
<g id="Node000004" class="node">
<title>Node4</title>
<g id="a_Node000004"><a xlink:href="class_cpl_1_1_container_1_1_item.html" target="_top" xlink:title="This class is used by the Container classes to implement a various types of singly linked containers.">
<polygon fill="white" stroke="#666666" points="100,-257.88 0,-257.88 0,-238.62 100,-238.62 100,-257.88"/>
<text text-anchor="middle" x="50" y="-244.38" font-family="Helvetica,sans-Serif" font-size="10.00">Cpl::Container::Item</text>
</a>
</g>
</g>
<!-- Node4&#45;&gt;Node3 -->
<g id="edge3_Node000003_Node000004" class="edge">
<title>Node4&#45;&gt;Node3</title>
<g id="a_edge3_Node000003_Node000004"><a xlink:title=" ">
<path fill="none" stroke="#63b8ff" d="M111.5,-248.25C119.81,-248.25 128.12,-248.25 135.78,-248.25"/>
<polygon fill="#63b8ff" stroke="#63b8ff" points="111.72,-244.75 101.72,-248.25 111.72,-251.75 111.72,-244.75"/>
</a>
</g>
</g>
<!-- Node5 -->
<g id="Node000005" class="node">
<title>Node5</title>
<g id="a_Node000005"><a xlink:href="class_cpl_1_1_io_1_1_is_eos.html" target="_top" xlink:title="This abstract class defines a isEos() operation that is intended to be used Input and Output streams.">
<polygon fill="white" stroke="#666666" points="208.25,-220.88 136,-220.88 136,-201.62 208.25,-201.62 208.25,-220.88"/>
<text text-anchor="middle" x="172.12" y="-207.38" font-family="Helvetica,sans-Serif" font-size="10.00">Cpl::Io::IsEos</text>
</a>
</g>
</g>
<!-- Node5&#45;&gt;Node2 -->
<g id="edge4_Node000002_Node000005" class="edge">
<title>Node5&#45;&gt;Node2</title>
<g id="a_edge4_Node000002_Node000005"><a xlink:title=" ">
<path fill="none" stroke="#63b8ff" d="M213.61,-225.06C226.35,-229.4 240.18,-234.12 252.01,-238.15"/>
<polygon fill="#63b8ff" stroke="#63b8ff" points="214.8,-221.76 204.21,-221.85 212.54,-228.39 214.8,-221.76"/>
</a>
</g>
</g>
<!-- Node5&#45;&gt;Node6 -->
<g id="edge7_Node000006_Node000005" class="edge">
<title>Node5&#45;&gt;Node6</title>
<g id="a_edge7_Node000006_Node000005"><a xlink:title=" ">
<path fill="none" stroke="#63b8ff" d="M220.04,-211.25C227.97,-211.25 236.11,-211.25 243.78,-211.25"/>
<polygon fill="#63b8ff" stroke="#63b8ff" points="220.17,-207.75 210.17,-211.25 220.17,-214.75 220.17,-207.75"/>
</a>
</g>
</g>
<!-- Node6&#45;&gt;Node1 -->
<g id="edge5_Node000001_Node000006" class="edge">
<title>Node6&#45;&gt;Node1</title>
<g id="a_edge5_Node000001_Node000006"><a xlink:title=" ">
<path fill="none" stroke="#63b8ff" d="M332.75,-218.52C340.65,-219.69 348.82,-220.9 356.7,-222.06"/>
<polygon fill="#63b8ff" stroke="#63b8ff" points="333.34,-215.07 322.94,-217.07 332.32,-221.99 333.34,-215.07"/>
</a>
</g>
</g>
<!-- Node17 -->
<g id="Node000017" class="node">
<title>Node17</title>
<g id="a_Node000017"><a xlink:href="class_cpl_1_1_io_1_1_tcp_1_1_async_connector_1_1_client.html" target="_top" xlink:title="This class defines the callback mechanism used for accepting incoming TCP connections.">
<polygon fill="white" stroke="#666666" points="801,-79.5 661.25,-79.5 661.25,-49 801,-49 801,-79.5"/>
<text text-anchor="start" x="669.25" y="-66" font-family="Helvetica,sans-Serif" font-size="10.00">Cpl::Io::Tcp::AsyncConnector</text>
<text text-anchor="middle" x="731.12" y="-54.75" font-family="Helvetica,sans-Serif" font-size="10.00">::Client</text>
</a>
</g>
</g>
<!-- Node16&#45;&gt;Node17 -->
<g id="edge18_Node000016_Node000017" class="edge">
<title>Node16&#45;&gt;Node17</title>
<g id="a_edge18_Node000016_Node000017"><a xlink:title=" ">
<path fill="none" stroke="#63b8ff" d="M629.69,-49.55C640.04,-51.06 650.7,-52.62 661.02,-54.13"/>
<polygon fill="#63b8ff" stroke="#63b8ff" points="630.52,-46.13 620.11,-48.14 629.5,-53.05 630.52,-46.13"/>
</a>
</g>
</g>
<!-- Node18 -->
<g id="Node000018" class="node">
<title>Node18</title>
<g id="a_Node000018"><a xlink:href="class_cpl_1_1_io_1_1_tcp_1_1_async_listener_1_1_client.html" target="_top" xlink:title="This class defines the callback mechanism used for accepting incoming TCP connections.">
<polygon fill="white" stroke="#666666" points="796.5,-30.5 665.75,-30.5 665.75,0 796.5,0 796.5,-30.5"/>
<text text-anchor="start" x="673.75" y="-17" font-family="Helvetica,sans-Serif" font-size="10.00">Cpl::Io::Tcp::AsyncListener</text>
<text text-anchor="middle" x="731.12" y="-5.75" font-family="Helvetica,sans-Serif" font-size="10.00">::Client</text>
</a>
</g>
</g>
<!-- Node16&#45;&gt;Node18 -->
<g id="edge19_Node000016_Node000018" class="edge">
<title>Node16&#45;&gt;Node18</title>
<g id="a_edge19_Node000016_Node000018"><a xlink:title=" ">
<path fill="none" stroke="#63b8ff" d="M629.79,-29.35C641.59,-27.69 653.8,-25.98 665.45,-24.34"/>
<polygon fill="#63b8ff" stroke="#63b8ff" points="629.53,-25.85 620.11,-30.71 630.5,-32.79 629.53,-25.85"/>
</a>
</g>
</g>
</g>
</svg>
