<?xml version="1.0" encoding="UTF-8" standalone="no"?>
<!DOCTYPE svg PUBLIC "-//W3C//DTD SVG 1.1//EN"
 "http://www.w3.org/Graphics/SVG/1.1/DTD/svg11.dtd">
<!-- Generated by graphviz version 9.0.0 (20230911.1827)
 -->
<!-- Title: Cpl::Dm::Persistent::Record Pages: 1 -->
<svg width="2566pt" height="471pt"
 viewBox="0.00 0.00 2566.25 470.53" xmlns="http://www.w3.org/2000/svg" xmlns:xlink="http://www.w3.org/1999/xlink">
<g id="graph0" class="graph" transform="scale(1 1) rotate(0) translate(4 466.53)">
<title>Cpl::Dm::Persistent::Record</title>
<!-- Node1 -->
<g id="Node000001" class="node">
<title>Node1</title>
<g id="a_Node000001"><a xlink:title="This mostly concrete class implements the Cpl::Persistent::Record interface where a Record instance c...">
<polygon fill="#999999" stroke="#666666" points="2031.25,-149.53 1932.75,-149.53 1932.75,-119.03 2031.25,-119.03 2031.25,-149.53"/>
<text text-anchor="start" x="1940.75" y="-136.03" font-family="Helvetica,sans-Serif" font-size="10.00">Cpl::Dm::Persistent</text>
<text text-anchor="middle" x="1982" y="-124.78" font-family="Helvetica,sans-Serif" font-size="10.00">::Record</text>
</a>
</g>
</g>
<!-- Node16 -->
<g id="Node000016" class="node">
<title>Node16</title>
<g id="a_Node000016"><a xlink:href="class_cpl_1_1_dm_1_1_subscriber_composer.html" target="_top" xlink:title=" ">
<polygon fill="white" stroke="#666666" points="2371.25,-328.16 2226.25,-328.16 2226.25,-286.41 2371.25,-286.41 2371.25,-328.16"/>
<text text-anchor="start" x="2234.25" y="-314.66" font-family="Helvetica,sans-Serif" font-size="10.00">Cpl::Dm::SubscriberComposer</text>
<text text-anchor="start" x="2234.25" y="-303.41" font-family="Helvetica,sans-Serif" font-size="10.00">&lt; Cpl::Dm::Persistent::Record,</text>
<text text-anchor="middle" x="2298.75" y="-292.16" font-family="Helvetica,sans-Serif" font-size="10.00"> Cpl::Dm::ModelPoint &gt;</text>
</a>
</g>
</g>
<!-- Node1&#45;&gt;Node16 -->
<g id="edge37_Node000016_Node000001" class="edge">
<title>Node1&#45;&gt;Node16</title>
<g id="a_edge37_Node000016_Node000001"><a xlink:title=" ">
<path fill="none" stroke="#9a32cd" stroke-dasharray="5,2" d="M2021.38,-155.38C2081.75,-188.56 2198.25,-252.59 2258.91,-285.93"/>
<polygon fill="#9a32cd" stroke="#9a32cd" points="2023.26,-152.42 2012.81,-150.67 2019.89,-158.55 2023.26,-152.42"/>
</a>
</g>
<text text-anchor="middle" x="2140.38" y="-257.03" font-family="Helvetica,sans-Serif" font-size="10.00" fill="grey"> m_context</text>
</g>
<!-- Node2 -->
<g id="Node000002" class="node">
<title>Node2</title>
<g id="a_Node000002"><a xlink:href="class_cpl_1_1_persistent_1_1_record.html" target="_top" xlink:title="This abstract class defines the public interface for a Record instance.">
<polygon fill="white" stroke="#666666" points="1770.88,-212.91 1656.62,-212.91 1656.62,-193.66 1770.88,-193.66 1770.88,-212.91"/>
<text text-anchor="middle" x="1713.75" y="-199.41" font-family="Helvetica,sans-Serif" font-size="10.00">Cpl::Persistent::Record</text>
</a>
</g>
</g>
<!-- Node2&#45;&gt;Node1 -->
<g id="edge1_Node000001_Node000002" class="edge">
<title>Node2&#45;&gt;Node1</title>
<g id="a_edge1_Node000001_Node000002"><a xlink:title=" ">
<path fill="none" stroke="#63b8ff" d="M1778.44,-190.93C1812.24,-183.95 1854.36,-174.57 1891.5,-164.28 1906.5,-160.12 1922.7,-154.92 1937.13,-150.02"/>
<polygon fill="#63b8ff" stroke="#63b8ff" points="1777.89,-187.47 1768.8,-192.9 1779.29,-194.33 1777.89,-187.47"/>
</a>
</g>
</g>
<!-- Node3 -->
<g id="Node000003" class="node">
<title>Node3</title>
<g id="a_Node000003"><a xlink:href="class_cpl_1_1_persistent_1_1_payload.html" target="_top" xlink:title="This abstract class defines the interface accessing the &#39;data payload&#39; of an individual Record instan...">
<polygon fill="white" stroke="#666666" points="1772.75,-175.91 1654.75,-175.91 1654.75,-156.66 1772.75,-156.66 1772.75,-175.91"/>
<text text-anchor="middle" x="1713.75" y="-162.41" font-family="Helvetica,sans-Serif" font-size="10.00">Cpl::Persistent::Payload</text>
</a>
</g>
</g>
<!-- Node3&#45;&gt;Node1 -->
<g id="edge2_Node000001_Node000003" class="edge">
<title>Node3&#45;&gt;Node1</title>
<g id="a_edge2_Node000001_Node000003"><a xlink:title=" ">
<path fill="none" stroke="#63b8ff" d="M1784.41,-157.91C1830.98,-152.31 1891.08,-145.09 1932.5,-140.11"/>
<polygon fill="#63b8ff" stroke="#63b8ff" points="1784.19,-154.41 1774.68,-159.08 1785.03,-161.36 1784.19,-154.41"/>
</a>
</g>
</g>
<!-- Node4 -->
<g id="Node000004" class="node">
<title>Node4</title>
<g id="a_Node000004"><a xlink:href="class_cpl_1_1_dm_1_1_persistent_1_1_flush_request.html" target="_top" xlink:title="This abstract class define ITC message type and payload for the application to request flushing the R...">
<polygon fill="white" stroke="#666666" points="1763,-138.53 1664.5,-138.53 1664.5,-108.03 1763,-108.03 1763,-138.53"/>
<text text-anchor="start" x="1672.5" y="-125.03" font-family="Helvetica,sans-Serif" font-size="10.00">Cpl::Dm::Persistent</text>
<text text-anchor="middle" x="1713.75" y="-113.78" font-family="Helvetica,sans-Serif" font-size="10.00">::FlushRequest</text>
</a>
</g>
</g>
<!-- Node4&#45;&gt;Node1 -->
<g id="edge3_Node000001_Node000004" class="edge">
<title>Node4&#45;&gt;Node1</title>
<g id="a_edge3_Node000001_Node000004"><a xlink:title=" ">
<path fill="none" stroke="#63b8ff" d="M1774.66,-125.76C1822.26,-127.72 1887.98,-130.44 1932.36,-132.27"/>
<polygon fill="#63b8ff" stroke="#63b8ff" points="1774.92,-122.26 1764.79,-125.35 1774.63,-129.26 1774.92,-122.26"/>
</a>
</g>
</g>
<!-- Node5 -->
<g id="Node000005" class="node">
<title>Node5</title>
<g id="a_Node000005"><a xlink:href="class_cpl_1_1_dm_1_1_persistent_1_1_erase_request.html" target="_top" xlink:title="This abstract class define ITC message type and payload for the application to request invalidating/c...">
<polygon fill="white" stroke="#666666" points="1763,-89.53 1664.5,-89.53 1664.5,-59.03 1763,-59.03 1763,-89.53"/>
<text text-anchor="start" x="1672.5" y="-76.03" font-family="Helvetica,sans-Serif" font-size="10.00">Cpl::Dm::Persistent</text>
<text text-anchor="middle" x="1713.75" y="-64.78" font-family="Helvetica,sans-Serif" font-size="10.00">::EraseRequest</text>
</a>
</g>
</g>
<!-- Node5&#45;&gt;Node1 -->
<g id="edge4_Node000001_Node000005" class="edge">
<title>Node5&#45;&gt;Node1</title>
<g id="a_edge4_Node000001_Node000005"><a xlink:title=" ">
<path fill="none" stroke="#63b8ff" d="M1774.36,-87.71C1821.98,-98.44 1887.89,-113.3 1932.36,-123.32"/>
<polygon fill="#63b8ff" stroke="#63b8ff" points="1775.28,-84.33 1764.75,-85.55 1773.74,-91.16 1775.28,-84.33"/>
</a>
</g>
</g>
<!-- Node6 -->
<g id="Node000006" class="node">
<title>Node6</title>
<g id="a_Node000006"><a xlink:href="class_cpl_1_1_system_1_1_timer.html" target="_top" xlink:title="This mostly concrete interface defines the operations that can be performed on a software timer.">
<polygon fill="white" stroke="#666666" points="1531.38,-49.91 1434.38,-49.91 1434.38,-30.66 1531.38,-30.66 1531.38,-49.91"/>
<text text-anchor="middle" x="1482.88" y="-36.41" font-family="Helvetica,sans-Serif" font-size="10.00">Cpl::System::Timer</text>
</a>
</g>
</g>
<!-- Node6&#45;&gt;Node1 -->
<g id="edge5_Node000001_Node000006" class="edge">
<title>Node6&#45;&gt;Node1</title>
<g id="a_edge5_Node000001_Node000006"><a xlink:title=" ">
<path fill="none" stroke="#63b8ff" d="M1527.15,-27.15C1605.72,-6 1774.48,26.84 1891.5,-40.28 1926.1,-60.12 1955.64,-97.46 1970.58,-118.62"/>
<polygon fill="#63b8ff" stroke="#63b8ff" points="1526.4,-23.73 1517.69,-29.77 1528.26,-30.47 1526.4,-23.73"/>
</a>
</g>
</g>
<!-- Node7 -->
<g id="Node000007" class="node">
<title>Node7</title>
<g id="a_Node000007"><a xlink:href="class_cpl_1_1_system_1_1_counter_callback__.html" target="_top" xlink:title="This abstract class defines the call&#45;back interface for a Counter object.">
<polygon fill="white" stroke="#666666" points="1308.75,-49.91 1160,-49.91 1160,-30.66 1308.75,-30.66 1308.75,-49.91"/>
<text text-anchor="middle" x="1234.38" y="-36.41" font-family="Helvetica,sans-Serif" font-size="10.00">Cpl::System::CounterCallback_</text>
</a>
</g>
</g>
<!-- Node7&#45;&gt;Node6 -->
<g id="edge6_Node000006_Node000007" class="edge">
<title>Node7&#45;&gt;Node6</title>
<g id="a_edge6_Node000006_Node000007"><a xlink:title=" ">
<path fill="none" stroke="#63b8ff" d="M1320.09,-40.28C1358.12,-40.28 1401.6,-40.28 1433.9,-40.28"/>
<polygon fill="#63b8ff" stroke="#63b8ff" points="1320.51,-36.78 1310.51,-40.28 1320.51,-43.78 1320.51,-36.78"/>
</a>
</g>
</g>
<!-- Node8 -->
<g id="Node000008" class="node">
<title>Node8</title>
<g id="a_Node000008"><a xlink:href="class_cpl_1_1_container_1_1_extended_item.html" target="_top" xlink:title="This class is used by the Container classes to implement a various types of DOUBLY linked containers.">
<polygon fill="white" stroke="#666666" points="1051.25,-49.91 911.5,-49.91 911.5,-30.66 1051.25,-30.66 1051.25,-49.91"/>
<text text-anchor="middle" x="981.38" y="-36.41" font-family="Helvetica,sans-Serif" font-size="10.00">Cpl::Container::ExtendedItem</text>
</a>
</g>
</g>
<!-- Node8&#45;&gt;Node7 -->
<g id="edge7_Node000007_Node000008" class="edge">
<title>Node8&#45;&gt;Node7</title>
<g id="a_edge7_Node000007_Node000008"><a xlink:title=" ">
<path fill="none" stroke="#63b8ff" d="M1062.85,-40.28C1093.88,-40.28 1129.15,-40.28 1159.52,-40.28"/>
<polygon fill="#63b8ff" stroke="#63b8ff" points="1063.14,-36.78 1053.14,-40.28 1063.14,-43.78 1063.14,-36.78"/>
</a>
</g>
</g>
<!-- Node19 -->
<g id="Node000019" class="node">
<title>Node19</title>
<g id="a_Node000019"><a xlink:href="class_cpl_1_1_dm_1_1_subscriber_api.html" target="_top" xlink:title="This abstract class defines the Subscriber interface &#45; for change notifications &#45; to a Model Points d...">
<polygon fill="white" stroke="#666666" points="1291.88,-250.91 1176.88,-250.91 1176.88,-231.66 1291.88,-231.66 1291.88,-250.91"/>
<text text-anchor="middle" x="1234.38" y="-237.41" font-family="Helvetica,sans-Serif" font-size="10.00">Cpl::Dm::SubscriberApi</text>
</a>
</g>
</g>
<!-- Node8&#45;&gt;Node19 -->
<g id="edge20_Node000019_Node000008" class="edge">
<title>Node8&#45;&gt;Node19</title>
<g id="a_edge20_Node000019_Node000008"><a xlink:title=" ">
<path fill="none" stroke="#63b8ff" d="M1003.62,-57.29C1054.21,-97.8 1180.6,-199.02 1220.85,-231.25"/>
<polygon fill="#63b8ff" stroke="#63b8ff" points="1006,-54.71 996,-51.19 1001.62,-60.18 1006,-54.71"/>
</a>
</g>
</g>
<!-- Node9 -->
<g id="Node000009" class="node">
<title>Node9</title>
<g id="a_Node000009"><a xlink:href="class_cpl_1_1_container_1_1_item.html" target="_top" xlink:title="This class is used by the Container classes to implement a various types of singly linked containers.">
<polygon fill="white" stroke="#666666" points="101.88,-135.91 1.88,-135.91 1.88,-116.66 101.88,-116.66 101.88,-135.91"/>
<text text-anchor="middle" x="51.88" y="-122.41" font-family="Helvetica,sans-Serif" font-size="10.00">Cpl::Container::Item</text>
</a>
</g>
</g>
<!-- Node9&#45;&gt;Node8 -->
<g id="edge8_Node000008_Node000009" class="edge">
<title>Node9&#45;&gt;Node8</title>
<g id="a_edge8_Node000008_Node000009"><a xlink:title=" ">
<path fill="none" stroke="#63b8ff" d="M111.84,-113.96C215.09,-92.99 435.55,-50.8 624,-32.28 691.49,-25.65 708.69,-28.39 776.5,-27.28 828.49,-26.43 841.64,-23.42 893.5,-27.28 902.32,-27.94 911.6,-28.96 920.69,-30.16"/>
<polygon fill="#63b8ff" stroke="#63b8ff" points="111.31,-110.5 102.22,-115.93 112.71,-117.36 111.31,-110.5"/>
</a>
</g>
</g>
<!-- Node15 -->
<g id="Node000015" class="node">
<title>Node15</title>
<g id="a_Node000015"><a xlink:href="class_cpl_1_1_dm_1_1_model_point.html" target="_top" xlink:title="This mostly abstract class defines the interface for a Model Point.">
<polygon fill="white" stroke="#666666" points="1285.88,-382.91 1182.88,-382.91 1182.88,-363.66 1285.88,-363.66 1285.88,-382.91"/>
<text text-anchor="middle" x="1234.38" y="-369.41" font-family="Helvetica,sans-Serif" font-size="10.00">Cpl::Dm::ModelPoint</text>
</a>
</g>
</g>
<!-- Node9&#45;&gt;Node15 -->
<g id="edge15_Node000015_Node000009" class="edge">
<title>Node9&#45;&gt;Node15</title>
<g id="a_edge15_Node000015_Node000009"><a xlink:title=" ">
<path fill="none" stroke="#63b8ff" d="M65.35,-145.4C103.8,-201.75 226.76,-363.28 372.88,-363.28 372.88,-363.28 372.88,-363.28 982.38,-363.28 1051.72,-363.28 1131.75,-367.14 1182.44,-370.06"/>
<polygon fill="#63b8ff" stroke="#63b8ff" points="68.48,-143.78 60.01,-137.42 62.66,-147.68 68.48,-143.78"/>
</a>
</g>
</g>
<!-- Node24 -->
<g id="Node000024" class="node">
<title>Node24</title>
<g id="a_Node000024"><a xlink:href="class_cpl_1_1_system_1_1_signable.html" target="_top" xlink:title="This abstract class defines the interface by which a client can cause an object that is waiting&#45;on&#45;a&#45;...">
<polygon fill="white" stroke="#666666" points="428.75,-135.91 319,-135.91 319,-116.66 428.75,-116.66 428.75,-135.91"/>
<text text-anchor="middle" x="373.88" y="-122.41" font-family="Helvetica,sans-Serif" font-size="10.00">Cpl::System::Signable</text>
</a>
</g>
</g>
<!-- Node9&#45;&gt;Node24 -->
<g id="edge27_Node000024_Node000009" class="edge">
<title>Node9&#45;&gt;Node24</title>
<g id="a_edge27_Node000024_Node000009"><a xlink:title=" ">
<path fill="none" stroke="#63b8ff" d="M113.59,-126.28C172.76,-126.28 261.87,-126.28 318.7,-126.28"/>
<polygon fill="#63b8ff" stroke="#63b8ff" points="113.69,-122.78 103.69,-126.28 113.69,-129.78 113.69,-122.78"/>
</a>
</g>
</g>
<!-- Node10 -->
<g id="Node000010" class="node">
<title>Node10</title>
<g id="a_Node000010"><a xlink:href="class_cpl_1_1_system_1_1_timer_manager.html" target="_top" xlink:title="This mostly concrete class implements manages a list of Software Timers.">
<polygon fill="white" stroke="#666666" points="758.5,-296.91 624,-296.91 624,-277.66 758.5,-277.66 758.5,-296.91"/>
<text text-anchor="middle" x="691.25" y="-283.41" font-family="Helvetica,sans-Serif" font-size="10.00">Cpl::System::TimerManager</text>
</a>
</g>
</g>
<!-- Node10&#45;&gt;Node6 -->
<g id="edge9_Node000006_Node000010" class="edge">
<title>Node10&#45;&gt;Node6</title>
<g id="a_edge9_Node000006_Node000010"><a xlink:title=" ">
<path fill="none" stroke="#9a32cd" stroke-dasharray="5,2" d="M731.11,-300.79C745.22,-305.04 761.41,-309.17 776.5,-311.28 828,-318.47 841.5,-311.43 893.5,-311.28 1006.78,-310.95 1312.77,-376.44 1403.25,-308.28 1425.03,-291.87 1469.26,-97.28 1479.65,-50.4"/>
<polygon fill="#9a32cd" stroke="#9a32cd" points="732.33,-297.5 721.74,-297.84 730.23,-304.18 732.33,-297.5"/>
</a>
</g>
<text text-anchor="middle" x="1105.62" y="-335.03" font-family="Helvetica,sans-Serif" font-size="10.00" fill="grey"> m_timingSource</text>
</g>
<!-- Node21 -->
<g id="Node000021" class="node">
<title>Node21</title>
<g id="a_Node000021"><a xlink:href="class_cpl_1_1_system_1_1_event_loop.html" target="_top" xlink:title="This concrete class is a Runnable object that provides a event driven execution model for a thread.">
<polygon fill="white" stroke="#666666" points="1040.75,-215.91 922,-215.91 922,-196.66 1040.75,-196.66 1040.75,-215.91"/>
<text text-anchor="middle" x="981.38" y="-202.41" font-family="Helvetica,sans-Serif" font-size="10.00">Cpl::System::EventLoop</text>
</a>
</g>
</g>
<!-- Node10&#45;&gt;Node21 -->
<g id="edge28_Node000021_Node000010" class="edge">
<title>Node10&#45;&gt;Node21</title>
<g id="a_edge28_Node000021_Node000010"><a xlink:title=" ">
<path fill="none" stroke="#63b8ff" d="M769.76,-278.96C807.74,-273.5 853.74,-264.79 893.5,-251.28 919.72,-242.38 947.77,-226.57 964.69,-216.26"/>
<polygon fill="#63b8ff" stroke="#63b8ff" points="769.69,-275.44 760.26,-280.28 770.65,-282.37 769.69,-275.44"/>
</a>
</g>
</g>
<!-- Node11 -->
<g id="Node000011" class="node">
<title>Node11</title>
<g id="a_Node000011"><a xlink:href="class_cpl_1_1_system_1_1_counter_source__.html" target="_top" xlink:title="This abstract class defines the interface for registering for an Counter object with the Timer Manage...">
<polygon fill="white" stroke="#666666" points="444.88,-296.91 302.88,-296.91 302.88,-277.66 444.88,-277.66 444.88,-296.91"/>
<text text-anchor="middle" x="373.88" y="-283.41" font-family="Helvetica,sans-Serif" font-size="10.00">Cpl::System::CounterSource_</text>
</a>
</g>
</g>
<!-- Node11&#45;&gt;Node10 -->
<g id="edge10_Node000010_Node000011" class="edge">
<title>Node11&#45;&gt;Node10</title>
<g id="a_edge10_Node000010_Node000011"><a xlink:title=" ">
<path fill="none" stroke="#63b8ff" d="M456.77,-287.28C508.66,-287.28 574.92,-287.28 623.59,-287.28"/>
<polygon fill="#63b8ff" stroke="#63b8ff" points="456.77,-283.78 446.77,-287.28 456.77,-290.78 456.77,-283.78"/>
</a>
</g>
</g>
<!-- Node12 -->
<g id="Node000012" class="node">
<title>Node12</title>
<g id="a_Node000012"><a xlink:href="class_cpl_1_1_container_1_1_d_list.html" target="_top" xlink:title=" ">
<polygon fill="white" stroke="#666666" points="456.5,-421.53 291.25,-421.53 291.25,-391.03 456.5,-391.03 456.5,-421.53"/>
<text text-anchor="start" x="299.25" y="-408.03" font-family="Helvetica,sans-Serif" font-size="10.00">Cpl::Container::DList</text>
<text text-anchor="middle" x="373.88" y="-396.78" font-family="Helvetica,sans-Serif" font-size="10.00">&lt; Cpl::System::CounterCallback_ &gt;</text>
</a>
</g>
</g>
<!-- Node12&#45;&gt;Node10 -->
<g id="edge11_Node000010_Node000012" class="edge">
<title>Node12&#45;&gt;Node10</title>
<g id="a_edge11_Node000010_Node000012"><a xlink:title=" ">
<path fill="none" stroke="#9a32cd" stroke-dasharray="5,2" d="M425.95,-386.52C476.24,-367.13 555.28,-336.83 624,-311.28 636.5,-306.63 650.36,-301.59 662.17,-297.34"/>
<polygon fill="#9a32cd" stroke="#9a32cd" points="424.84,-383.19 416.77,-390.06 427.36,-389.72 424.84,-383.19"/>
</a>
</g>
<text text-anchor="middle" x="540.25" y="-380.28" font-family="Helvetica,sans-Serif" font-size="10.00" fill="grey"> m_counters</text>
<text text-anchor="middle" x="540.25" y="-369.03" font-family="Helvetica,sans-Serif" font-size="10.00" fill="grey">m_pendingAttach</text>
</g>
<!-- Node13 -->
<g id="Node000013" class="node">
<title>Node13</title>
<g id="a_Node000013"><a xlink:href="class_cpl_1_1_container_1_1_d_list.html" target="_top" xlink:title="This template class implements a Doubly linked list which maintains the ordering imposed on it by the...">
<polygon fill="white" stroke="#666666" points="103.75,-446.53 0,-446.53 0,-416.03 103.75,-416.03 103.75,-446.53"/>
<text text-anchor="start" x="8" y="-433.03" font-family="Helvetica,sans-Serif" font-size="10.00">Cpl::Container::DList</text>
<text text-anchor="middle" x="51.88" y="-421.78" font-family="Helvetica,sans-Serif" font-size="10.00">&lt; ITEM &gt;</text>
</a>
</g>
</g>
<!-- Node13&#45;&gt;Node12 -->
<g id="edge12_Node000012_Node000013" class="edge">
<title>Node13&#45;&gt;Node12</title>
<g id="a_edge12_Node000012_Node000013"><a xlink:title=" ">
<path fill="none" stroke="orange" stroke-dasharray="5,2" d="M115.52,-416.91C117.62,-416.59 119.7,-416.3 121.75,-416.03 177.9,-408.78 241.64,-406.38 290.85,-405.77"/>
<polygon fill="orange" stroke="orange" points="114.98,-413.46 105.71,-418.6 116.16,-420.35 114.98,-413.46"/>
</a>
</g>
<text text-anchor="middle" x="197.5" y="-417.03" font-family="Helvetica,sans-Serif" font-size="10.00" fill="grey"> &lt; Cpl::System::CounterCallback_ &gt;</text>
</g>
<!-- Node29 -->
<g id="Node000029" class="node">
<title>Node29</title>
<g id="a_Node000029"><a xlink:href="class_cpl_1_1_container_1_1_d_list.html" target="_top" xlink:title=" ">
<polygon fill="white" stroke="#666666" points="606,-462.53 474.5,-462.53 474.5,-432.03 606,-432.03 606,-462.53"/>
<text text-anchor="start" x="482.5" y="-449.03" font-family="Helvetica,sans-Serif" font-size="10.00">Cpl::Container::DList</text>
<text text-anchor="middle" x="540.25" y="-437.78" font-family="Helvetica,sans-Serif" font-size="10.00">&lt; Cpl::Dm::SubscriberApi &gt;</text>
</a>
</g>
</g>
<!-- Node13&#45;&gt;Node29 -->
<g id="edge36_Node000029_Node000013" class="edge">
<title>Node13&#45;&gt;Node29</title>
<g id="a_edge36_Node000029_Node000013"><a xlink:title=" ">
<path fill="none" stroke="orange" stroke-dasharray="5,2" d="M115.42,-433.34C207.92,-436.38 380.34,-442.05 474.23,-445.14"/>
<polygon fill="orange" stroke="orange" points="115.63,-429.84 105.52,-433.01 115.4,-436.84 115.63,-429.84"/>
</a>
</g>
<text text-anchor="middle" x="197.5" y="-439.03" font-family="Helvetica,sans-Serif" font-size="10.00" fill="grey"> &lt; Cpl::Dm::SubscriberApi &gt;</text>
</g>
<!-- Node14 -->
<g id="Node000014" class="node">
<title>Node14</title>
<g id="a_Node000014"><a xlink:href="class_cpl_1_1_dm_1_1_persistent_1_1_record.html#struct_cpl_1_1_dm_1_1_persistent_1_1_record_1_1_item___t" target="_top" xlink:title="This data structure associates a Data Model subscriber instance with a Model Point instance.">
<polygon fill="white" stroke="#666666" points="2558.25,-322.53 2459.75,-322.53 2459.75,-292.03 2558.25,-292.03 2558.25,-322.53"/>
<text text-anchor="start" x="2467.75" y="-309.03" font-family="Helvetica,sans-Serif" font-size="10.00">Cpl::Dm::Persistent</text>
<text text-anchor="middle" x="2509" y="-297.78" font-family="Helvetica,sans-Serif" font-size="10.00">::Record::Item_T</text>
</a>
</g>
</g>
<!-- Node14&#45;&gt;Node1 -->
<g id="edge13_Node000001_Node000014" class="edge">
<title>Node14&#45;&gt;Node1</title>
<g id="a_edge13_Node000001_Node000014"><a xlink:title=" ">
<path fill="none" stroke="#9a32cd" stroke-dasharray="5,2" d="M2466.31,-286.73C2409.27,-259.32 2303.14,-210.82 2208.25,-181.28 2148.56,-162.7 2077.67,-149.27 2031.58,-141.64"/>
<polygon fill="#9a32cd" stroke="#9a32cd" points="2464.49,-289.74 2475.01,-290.93 2467.53,-283.43 2464.49,-289.74"/>
</a>
</g>
<text text-anchor="middle" x="2298.75" y="-244.03" font-family="Helvetica,sans-Serif" font-size="10.00" fill="grey"> m_items</text>
</g>
<!-- Node15&#45;&gt;Node14 -->
<g id="edge14_Node000014_Node000015" class="edge">
<title>Node15&#45;&gt;Node14</title>
<g id="a_edge14_Node000014_Node000015"><a xlink:title=" ">
<path fill="none" stroke="#9a32cd" stroke-dasharray="5,2" d="M1276.3,-386.81C1324.79,-401.62 1408.3,-423.28 1481.88,-423.28 1481.88,-423.28 1481.88,-423.28 2299.75,-423.28 2381.28,-423.28 2460.65,-354.59 2492.91,-322.92"/>
<polygon fill="#9a32cd" stroke="#9a32cd" points="1277.37,-383.48 1266.78,-383.85 1275.29,-390.16 1277.37,-383.48"/>
</a>
</g>
<text text-anchor="middle" x="1841.12" y="-425.03" font-family="Helvetica,sans-Serif" font-size="10.00" fill="grey"> mpPtr</text>
</g>
<!-- Node15&#45;&gt;Node16 -->
<g id="edge38_Node000016_Node000015" class="edge">
<title>Node15&#45;&gt;Node16</title>
<g id="a_edge38_Node000016_Node000015"><a xlink:title=" ">
<path fill="none" stroke="#9a32cd" stroke-dasharray="5,2" d="M1297.56,-377.59C1347.38,-380.67 1419.08,-384.28 1481.88,-384.28 1481.88,-384.28 1481.88,-384.28 1983,-384.28 2077.09,-384.28 2182.58,-351.41 2244.42,-328.63"/>
<polygon fill="#9a32cd" stroke="#9a32cd" points="1298.04,-374.11 1287.84,-376.98 1297.6,-381.1 1298.04,-374.11"/>
</a>
</g>
<text text-anchor="middle" x="1713.75" y="-386.03" font-family="Helvetica,sans-Serif" font-size="10.00" fill="grey"> m_notificationCb</text>
</g>
<!-- Node18 -->
<g id="Node000018" class="node">
<title>Node18</title>
<g id="a_Node000018"><a xlink:href="class_cpl_1_1_dm_1_1_subscriber_base.html" target="_top" xlink:title="This mostly concrete class defines the Subscriber interface &#45; for change notifications &#45; to a Model P...">
<polygon fill="white" stroke="#666666" points="1544.5,-308.91 1421.25,-308.91 1421.25,-289.66 1544.5,-289.66 1544.5,-308.91"/>
<text text-anchor="middle" x="1482.88" y="-295.41" font-family="Helvetica,sans-Serif" font-size="10.00">Cpl::Dm::SubscriberBase</text>
</a>
</g>
</g>
<!-- Node15&#45;&gt;Node18 -->
<g id="edge21_Node000018_Node000015" class="edge">
<title>Node15&#45;&gt;Node18</title>
<g id="a_edge21_Node000018_Node000015"><a xlink:title=" ">
<path fill="none" stroke="#9a32cd" stroke-dasharray="5,2" d="M1297.15,-363.08C1329.27,-356.93 1368.88,-347.99 1403.25,-336.28 1424.67,-328.98 1447.98,-317.53 1463.62,-309.3"/>
<polygon fill="#9a32cd" stroke="#9a32cd" points="1296.8,-359.59 1287.62,-364.86 1298.09,-366.47 1296.8,-359.59"/>
</a>
</g>
<text text-anchor="middle" x="1365" y="-357.03" font-family="Helvetica,sans-Serif" font-size="10.00" fill="grey"> m_point</text>
</g>
<!-- Node16&#45;&gt;Node14 -->
<g id="edge16_Node000014_Node000016" class="edge">
<title>Node16&#45;&gt;Node14</title>
<g id="a_edge16_Node000014_Node000016"><a xlink:title=" ">
<path fill="none" stroke="#9a32cd" stroke-dasharray="5,2" d="M2383.05,-307.28C2408.92,-307.28 2436.58,-307.28 2459.28,-307.28"/>
<polygon fill="#9a32cd" stroke="#9a32cd" points="2383.22,-303.78 2373.22,-307.28 2383.22,-310.78 2383.22,-303.78"/>
</a>
</g>
<text text-anchor="middle" x="2415.5" y="-309.03" font-family="Helvetica,sans-Serif" font-size="10.00" fill="grey"> observerPtr</text>
</g>
<!-- Node17 -->
<g id="Node000017" class="node">
<title>Node17</title>
<g id="a_Node000017"><a xlink:href="class_cpl_1_1_dm_1_1_subscriber.html" target="_top" xlink:title="This template class defines a type safe Subscriber.">
<polygon fill="white" stroke="#666666" points="1891.5,-342.53 1790.75,-342.53 1790.75,-312.03 1891.5,-312.03 1891.5,-342.53"/>
<text text-anchor="start" x="1798.75" y="-329.03" font-family="Helvetica,sans-Serif" font-size="10.00">Cpl::Dm::Subscriber</text>
<text text-anchor="middle" x="1841.12" y="-317.78" font-family="Helvetica,sans-Serif" font-size="10.00">&lt; MP &gt;</text>
</a>
</g>
</g>
<!-- Node17&#45;&gt;Node16 -->
<g id="edge17_Node000016_Node000017" class="edge">
<title>Node17&#45;&gt;Node16</title>
<g id="a_edge17_Node000016_Node000017"><a xlink:title=" ">
<path fill="none" stroke="#63b8ff" d="M1903.09,-325.48C1975.78,-323.22 2100.92,-318.93 2208.25,-313.28 2214,-312.98 2219.96,-312.64 2225.95,-312.28"/>
<polygon fill="#63b8ff" stroke="#63b8ff" points="1903.29,-321.98 1893.4,-325.78 1903.51,-328.97 1903.29,-321.98"/>
</a>
</g>
</g>
<!-- Node18&#45;&gt;Node17 -->
<g id="edge18_Node000017_Node000018" class="edge">
<title>Node18&#45;&gt;Node17</title>
<g id="a_edge18_Node000017_Node000018"><a xlink:title=" ">
<path fill="none" stroke="#63b8ff" d="M1556.03,-304.95C1625.75,-310.43 1729.52,-318.59 1790.45,-323.38"/>
<polygon fill="#63b8ff" stroke="#63b8ff" points="1556.46,-301.48 1546.22,-304.18 1555.92,-308.45 1556.46,-301.48"/>
</a>
</g>
</g>
<!-- Node31 -->
<g id="Node000031" class="node">
<title>Node31</title>
<g id="a_Node000031"><a xlink:href="class_cpl_1_1_dm_1_1_subscriber.html" target="_top" xlink:title="This template class defines a type safe Subscriber.">
<polygon fill="white" stroke="#666666" points="1764.12,-299.53 1663.38,-299.53 1663.38,-269.03 1764.12,-269.03 1764.12,-299.53"/>
<text text-anchor="start" x="1671.38" y="-286.03" font-family="Helvetica,sans-Serif" font-size="10.00">Cpl::Dm::Subscriber</text>
<text text-anchor="middle" x="1713.75" y="-274.78" font-family="Helvetica,sans-Serif" font-size="10.00">&lt; MP &gt;</text>
</a>
</g>
</g>
<!-- Node18&#45;&gt;Node31 -->
<g id="edge41_Node000031_Node000018" class="edge">
<title>Node18&#45;&gt;Node31</title>
<g id="a_edge41_Node000031_Node000018"><a xlink:title=" ">
<path fill="none" stroke="#63b8ff" d="M1555.99,-294.55C1590.83,-292.27 1631.76,-289.59 1663.06,-287.54"/>
<polygon fill="#63b8ff" stroke="#63b8ff" points="1556.17,-291.03 1546.42,-295.18 1556.63,-298.02 1556.17,-291.03"/>
</a>
</g>
</g>
<!-- Node19&#45;&gt;Node18 -->
<g id="edge19_Node000018_Node000019" class="edge">
<title>Node19&#45;&gt;Node18</title>
<g id="a_edge19_Node000018_Node000019"><a xlink:title=" ">
<path fill="none" stroke="#63b8ff" d="M1289.32,-253.97C1334.28,-264.55 1397.46,-279.42 1439.02,-289.2"/>
<polygon fill="#63b8ff" stroke="#63b8ff" points="1290.32,-250.61 1279.79,-251.73 1288.72,-257.43 1290.32,-250.61"/>
</a>
</g>
</g>
<!-- Node30 -->
<g id="Node000030" class="node">
<title>Node30</title>
<g id="a_Node000030"><a xlink:href="class_cpl_1_1_dm_1_1_subscriber_composer.html" target="_top" xlink:title="This template class is a composer pattern/class that manages the callback function for a Model Point&#39;...">
<polygon fill="white" stroke="#666666" points="2054.5,-299.53 1909.5,-299.53 1909.5,-269.03 2054.5,-269.03 2054.5,-299.53"/>
<text text-anchor="start" x="1917.5" y="-286.03" font-family="Helvetica,sans-Serif" font-size="10.00">Cpl::Dm::SubscriberComposer</text>
<text text-anchor="middle" x="1982" y="-274.78" font-family="Helvetica,sans-Serif" font-size="10.00">&lt; CONTEXT, MP &gt;</text>
</a>
</g>
</g>
<!-- Node19&#45;&gt;Node30 -->
<g id="edge42_Node000030_Node000019" class="edge">
<title>Node19&#45;&gt;Node30</title>
<g id="a_edge42_Node000030_Node000019"><a xlink:title=" ">
<path fill="none" stroke="#9a32cd" stroke-dasharray="5,2" d="M1303.7,-241.96C1405.87,-243.37 1604.46,-247.63 1772.75,-260.28 1818.3,-263.7 1869.23,-269.54 1909.33,-274.6"/>
<polygon fill="#9a32cd" stroke="#9a32cd" points="1303.89,-238.46 1293.84,-241.83 1303.79,-245.46 1303.89,-238.46"/>
</a>
</g>
<text text-anchor="middle" x="1599.62" y="-253.03" font-family="Helvetica,sans-Serif" font-size="10.00" fill="grey"> m_notificationCb</text>
</g>
<!-- Node20 -->
<g id="Node000020" class="node">
<title>Node20</title>
<g id="a_Node000020"><a xlink:href="class_cpl_1_1_dm_1_1_event_loop.html" target="_top" xlink:title="This class extends the Cpl::System::EventLoop class to support the asynchronous change notification g...">
<polygon fill="white" stroke="#666666" points="1284.75,-292.91 1184,-292.91 1184,-273.66 1284.75,-273.66 1284.75,-292.91"/>
<text text-anchor="middle" x="1234.38" y="-279.41" font-family="Helvetica,sans-Serif" font-size="10.00">Cpl::Dm::EventLoop</text>
</a>
</g>
</g>
<!-- Node20&#45;&gt;Node18 -->
<g id="edge22_Node000018_Node000020" class="edge">
<title>Node20&#45;&gt;Node18</title>
<g id="a_edge22_Node000018_Node000020"><a xlink:title=" ">
<path fill="none" stroke="#9a32cd" stroke-dasharray="5,2" d="M1296.38,-287.24C1334.37,-289.71 1383.06,-292.87 1421.02,-295.33"/>
<polygon fill="#9a32cd" stroke="#9a32cd" points="1296.68,-283.75 1286.47,-286.6 1296.22,-290.74 1296.68,-283.75"/>
</a>
</g>
<text text-anchor="middle" x="1365" y="-295.03" font-family="Helvetica,sans-Serif" font-size="10.00" fill="grey"> m_eventLoopHdl</text>
</g>
<!-- Node21&#45;&gt;Node20 -->
<g id="edge23_Node000020_Node000021" class="edge">
<title>Node21&#45;&gt;Node20</title>
<g id="a_edge23_Node000020_Node000021"><a xlink:title=" ">
<path fill="none" stroke="#63b8ff" d="M1025.92,-219.64C1075.63,-234.89 1155.83,-259.49 1200.55,-273.21"/>
<polygon fill="#63b8ff" stroke="#63b8ff" points="1027.22,-216.38 1016.64,-216.79 1025.17,-223.07 1027.22,-216.38"/>
</a>
</g>
</g>
<!-- Node22 -->
<g id="Node000022" class="node">
<title>Node22</title>
<g id="a_Node000022"><a xlink:href="class_cpl_1_1_system_1_1_runnable.html" target="_top" xlink:title="This is an abstract class defines the interface for an object that is &quot;executed&quot; when a Thread object...">
<polygon fill="white" stroke="#666666" points="747.62,-173.91 634.88,-173.91 634.88,-154.66 747.62,-154.66 747.62,-173.91"/>
<text text-anchor="middle" x="691.25" y="-160.41" font-family="Helvetica,sans-Serif" font-size="10.00">Cpl::System::Runnable</text>
</a>
</g>
</g>
<!-- Node22&#45;&gt;Node21 -->
<g id="edge24_Node000021_Node000022" class="edge">
<title>Node22&#45;&gt;Node21</title>
<g id="a_edge24_Node000021_Node000022"><a xlink:title=" ">
<path fill="none" stroke="#63b8ff" d="M758.96,-174.01C808.11,-181.17 874.34,-190.82 921.53,-197.7"/>
<polygon fill="#63b8ff" stroke="#63b8ff" points="759.7,-170.58 749.3,-172.6 758.69,-177.5 759.7,-170.58"/>
</a>
</g>
</g>
<!-- Node23 -->
<g id="Node000023" class="node">
<title>Node23</title>
<g id="a_Node000023"><a xlink:href="class_cpl_1_1_system_1_1_event_flag.html" target="_top" xlink:title="This abstract class defines the interface to generated a &#39;Event Flag&#39;.">
<polygon fill="white" stroke="#666666" points="749.12,-97.91 633.38,-97.91 633.38,-78.66 749.12,-78.66 749.12,-97.91"/>
<text text-anchor="middle" x="691.25" y="-84.41" font-family="Helvetica,sans-Serif" font-size="10.00">Cpl::System::EventFlag</text>
</a>
</g>
</g>
<!-- Node23&#45;&gt;Node21 -->
<g id="edge25_Node000021_Node000023" class="edge">
<title>Node23&#45;&gt;Node21</title>
<g id="a_edge25_Node000021_Node000023"><a xlink:title=" ">
<path fill="none" stroke="#63b8ff" d="M760.49,-78.12C803.71,-75.68 857.95,-80.56 893.5,-112.28 919.4,-135.39 887.24,-163.45 911.5,-188.28 914.61,-191.46 918.21,-194.11 922.09,-196.3"/>
<polygon fill="#63b8ff" stroke="#63b8ff" points="760.42,-74.62 750.7,-78.83 760.92,-81.6 760.42,-74.62"/>
</a>
</g>
</g>
<!-- Node24&#45;&gt;Node21 -->
<g id="edge26_Node000021_Node000024" class="edge">
<title>Node24&#45;&gt;Node21</title>
<g id="a_edge26_Node000021_Node000024"><a xlink:title=" ">
<path fill="none" stroke="#63b8ff" d="M440.49,-117.46C543.08,-106.76 745.08,-98.37 893.5,-172.28 903.08,-177.05 902.06,-183.23 911.5,-188.28 917.39,-191.43 923.85,-194.05 930.39,-196.22"/>
<polygon fill="#63b8ff" stroke="#63b8ff" points="440.15,-113.97 430.59,-118.54 440.91,-120.93 440.15,-113.97"/>
</a>
</g>
</g>
<!-- Node25 -->
<g id="Node000025" class="node">
<title>Node25</title>
<g id="a_Node000025"><a xlink:href="class_cpl_1_1_system_1_1_thread.html" target="_top" xlink:title="This abstract class defines the operations that can be performed on a thread.">
<polygon fill="white" stroke="#666666" points="742.38,-60.91 640.12,-60.91 640.12,-41.66 742.38,-41.66 742.38,-60.91"/>
<text text-anchor="middle" x="691.25" y="-47.41" font-family="Helvetica,sans-Serif" font-size="10.00">Cpl::System::Thread</text>
</a>
</g>
</g>
<!-- Node24&#45;&gt;Node25 -->
<g id="edge30_Node000025_Node000024" class="edge">
<title>Node24&#45;&gt;Node25</title>
<g id="a_edge30_Node000025_Node000024"><a xlink:title=" ">
<path fill="none" stroke="#63b8ff" d="M428.51,-113.53C490.47,-98.79 591.15,-74.85 647.89,-61.35"/>
<polygon fill="#63b8ff" stroke="#63b8ff" points="427.8,-110.1 418.88,-115.82 429.42,-116.91 427.8,-110.1"/>
</a>
</g>
</g>
<!-- Node27 -->
<g id="Node000027" class="node">
<title>Node27</title>
<g id="a_Node000027"><a xlink:href="class_cpl_1_1_system_1_1_semaphore.html" target="_top" xlink:title="This semaphore class defines the interface for a Counting Semaphore.">
<polygon fill="white" stroke="#666666" points="752.12,-259.91 630.38,-259.91 630.38,-240.66 752.12,-240.66 752.12,-259.91"/>
<text text-anchor="middle" x="691.25" y="-246.41" font-family="Helvetica,sans-Serif" font-size="10.00">Cpl::System::Semaphore</text>
</a>
</g>
</g>
<!-- Node24&#45;&gt;Node27 -->
<g id="edge33_Node000027_Node000024" class="edge">
<title>Node24&#45;&gt;Node27</title>
<g id="a_edge33_Node000027_Node000024"><a xlink:title=" ">
<path fill="none" stroke="#63b8ff" d="M406.59,-141.1C453.47,-162.66 544.3,-203.17 624,-231.28 633.03,-234.46 642.88,-237.51 652.17,-240.2"/>
<polygon fill="#63b8ff" stroke="#63b8ff" points="408.11,-137.94 397.57,-136.93 405.18,-144.3 408.11,-137.94"/>
</a>
</g>
</g>
<!-- Node25&#45;&gt;Node21 -->
<g id="edge29_Node000021_Node000025" class="edge">
<title>Node25&#45;&gt;Node21</title>
<g id="a_edge29_Node000021_Node000025"><a xlink:title=" ">
<path fill="none" stroke="#9a32cd" stroke-dasharray="5,2" d="M738.16,-38.81C783.57,-29.51 852.1,-24.13 893.5,-62.03 935.31,-100.3 873.77,-145.98 911.5,-188.28 914.46,-191.6 917.95,-194.34 921.77,-196.6"/>
<polygon fill="#9a32cd" stroke="#9a32cd" points="737.64,-35.34 728.62,-40.9 739.14,-42.17 737.64,-35.34"/>
</a>
</g>
<text text-anchor="middle" x="835" y="-63.03" font-family="Helvetica,sans-Serif" font-size="10.00" fill="grey"> m_myThreadPtr</text>
</g>
<!-- Node26 -->
<g id="Node000026" class="node">
<title>Node26</title>
<g id="a_Node000026"><a xlink:href="class_cpl_1_1_system_1_1_shared_event_handler_api.html" target="_top" xlink:title="This abstract class defines the interface for a Shared Event Handler.">
<polygon fill="white" stroke="#666666" points="755.12,-222.53 627.38,-222.53 627.38,-192.03 755.12,-192.03 755.12,-222.53"/>
<text text-anchor="start" x="635.38" y="-209.03" font-family="Helvetica,sans-Serif" font-size="10.00">Cpl::System::SharedEvent</text>
<text text-anchor="middle" x="691.25" y="-197.78" font-family="Helvetica,sans-Serif" font-size="10.00">HandlerApi</text>
</a>
</g>
</g>
<!-- Node26&#45;&gt;Node21 -->
<g id="edge31_Node000021_Node000026" class="edge">
<title>Node26&#45;&gt;Node21</title>
<g id="a_edge31_Node000021_Node000026"><a xlink:title=" ">
<path fill="none" stroke="#9a32cd" stroke-dasharray="5,2" d="M766.8,-207.02C815.05,-206.85 876.97,-206.64 921.71,-206.48"/>
<polygon fill="#9a32cd" stroke="#9a32cd" points="766.98,-203.52 756.99,-207.06 767.01,-210.52 766.98,-203.52"/>
</a>
</g>
<text text-anchor="middle" x="835" y="-208.03" font-family="Helvetica,sans-Serif" font-size="10.00" fill="grey"> m_eventHandler</text>
</g>
<!-- Node27&#45;&gt;Node21 -->
<g id="edge32_Node000021_Node000027" class="edge">
<title>Node27&#45;&gt;Node21</title>
<g id="a_edge32_Node000021_Node000027"><a xlink:title=" ">
<path fill="none" stroke="#9a32cd" stroke-dasharray="5,2" d="M763.4,-239.41C812.17,-231.97 876.08,-222.21 921.88,-215.21"/>
<polygon fill="#9a32cd" stroke="#9a32cd" points="763.15,-235.91 753.8,-240.88 764.21,-242.83 763.15,-235.91"/>
</a>
</g>
<text text-anchor="middle" x="835" y="-238.03" font-family="Helvetica,sans-Serif" font-size="10.00" fill="grey"> m_sema</text>
</g>
<!-- Node28 -->
<g id="Node000028" class="node">
<title>Node28</title>
<g id="a_Node000028"><a xlink:href="class_cpl_1_1_dm_1_1_notification_api__.html" target="_top" xlink:title="This class has PACKAGE Scope, i.e.">
<polygon fill="white" stroke="#666666" points="1042.62,-178.91 920.12,-178.91 920.12,-159.66 1042.62,-159.66 1042.62,-178.91"/>
<text text-anchor="middle" x="981.38" y="-165.41" font-family="Helvetica,sans-Serif" font-size="10.00">Cpl::Dm::NotificationApi_</text>
</a>
</g>
</g>
<!-- Node28&#45;&gt;Node20 -->
<g id="edge34_Node000020_Node000028" class="edge">
<title>Node28&#45;&gt;Node20</title>
<g id="a_edge34_Node000020_Node000028"><a xlink:title=" ">
<path fill="none" stroke="#63b8ff" d="M1036.62,-182.48C1041.6,-183.99 1046.54,-185.59 1051.25,-187.28 1093.08,-202.29 1109.15,-199.34 1142,-229.28 1153.77,-240.01 1147.55,-250.33 1160,-260.28 1166.99,-265.86 1175.34,-270.1 1183.87,-273.31"/>
<polygon fill="#63b8ff" stroke="#63b8ff" points="1037.75,-179.17 1027.18,-179.77 1035.82,-185.89 1037.75,-179.17"/>
</a>
</g>
</g>
<!-- Node29&#45;&gt;Node20 -->
<g id="edge35_Node000020_Node000029" class="edge">
<title>Node29&#45;&gt;Node20</title>
<g id="a_edge35_Node000020_Node000029"><a xlink:title=" ">
<path fill="none" stroke="#9a32cd" stroke-dasharray="5,2" d="M600.2,-428.18C697.07,-397.49 896.43,-337.19 1069.25,-303.28 1107.28,-295.82 1150.84,-290.67 1183.52,-287.46"/>
<polygon fill="#9a32cd" stroke="#9a32cd" points="599.38,-424.77 590.91,-431.14 601.5,-431.44 599.38,-424.77"/>
</a>
</g>
<text text-anchor="middle" x="835" y="-375.03" font-family="Helvetica,sans-Serif" font-size="10.00" fill="grey"> m_pendingMpNotifications</text>
</g>
<!-- Node30&#45;&gt;Node16 -->
<g id="edge39_Node000016_Node000030" class="edge">
<title>Node30&#45;&gt;Node16</title>
<g id="a_edge39_Node000016_Node000030"><a xlink:title=" ">
<path fill="none" stroke="orange" stroke-dasharray="5,2" d="M2066.4,-283.64C2108.96,-284.09 2161.48,-285.82 2208.25,-290.78 2214.06,-291.4 2220.07,-292.18 2226.08,-293.07"/>
<polygon fill="orange" stroke="orange" points="2066.5,-280.14 2056.47,-283.56 2066.45,-287.14 2066.5,-280.14"/>
</a>
</g>
<text text-anchor="start" x="2072.5" y="-303.28" font-family="Helvetica,sans-Serif" font-size="10.00" fill="grey"> &lt; Cpl::Dm::Persistent</text>
<text text-anchor="middle" x="2140.38" y="-292.03" font-family="Helvetica,sans-Serif" font-size="10.00" fill="grey">::Record, Cpl::Dm::ModelPoint &gt;</text>
</g>
<!-- Node31&#45;&gt;Node30 -->
<g id="edge40_Node000030_Node000031" class="edge">
<title>Node31&#45;&gt;Node30</title>
<g id="a_edge40_Node000030_Node000031"><a xlink:title=" ">
<path fill="none" stroke="#63b8ff" d="M1775.89,-284.28C1815.57,-284.28 1867.46,-284.28 1909.12,-284.28"/>
<polygon fill="#63b8ff" stroke="#63b8ff" points="1776.03,-280.78 1766.03,-284.28 1776.03,-287.78 1776.03,-280.78"/>
</a>
</g>
</g>
<!-- Node32 -->
<g id="Node000032" class="node">
<title>Node32</title>
<g id="a_Node000032"><a xlink:href="class_cpl_1_1_persistent_1_1_chunk.html" target="_top" xlink:title="This abstract class defines the interface for a Chunk.">
<polygon fill="white" stroke="#666666" points="1769.38,-40.91 1658.12,-40.91 1658.12,-21.66 1769.38,-21.66 1769.38,-40.91"/>
<text text-anchor="middle" x="1713.75" y="-27.41" font-family="Helvetica,sans-Serif" font-size="10.00">Cpl::Persistent::Chunk</text>
</a>
</g>
</g>
<!-- Node32&#45;&gt;Node1 -->
<g id="edge43_Node000001_Node000032" class="edge">
<title>Node32&#45;&gt;Node1</title>
<g id="a_edge43_Node000001_Node000032"><a xlink:title=" ">
<path fill="none" stroke="#9a32cd" stroke-dasharray="5,2" d="M1780.85,-42.63C1814.81,-49.79 1856.33,-60.64 1891.5,-76.03 1917.15,-87.25 1943.68,-105.5 1961.13,-118.58"/>
<polygon fill="#9a32cd" stroke="#9a32cd" points="1781.63,-39.21 1771.13,-40.64 1780.23,-46.07 1781.63,-39.21"/>
</a>
</g>
<text text-anchor="middle" x="1841.12" y="-77.03" font-family="Helvetica,sans-Serif" font-size="10.00" fill="grey"> m_chunkHandler</text>
</g>
</g>
</svg>
