<?xml version="1.0" encoding="UTF-8" standalone="no"?>
<!DOCTYPE svg PUBLIC "-//W3C//DTD SVG 1.1//EN"
 "http://www.w3.org/Graphics/SVG/1.1/DTD/svg11.dtd">
<!-- Generated by graphviz version 9.0.0 (20230911.1827)
 -->
<!-- Title: Cpl::Dm::Mp::Numeric&lt; ELEMTYPE, MPTYPE &gt; Pages: 1 -->
<svg width="1526pt" height="819pt"
 viewBox="0.00 0.00 1525.50 819.04" xmlns="http://www.w3.org/2000/svg" xmlns:xlink="http://www.w3.org/1999/xlink">
<g id="graph0" class="graph" transform="scale(1 1) rotate(0) translate(4 815.04)">
<title>Cpl::Dm::Mp::Numeric&lt; ELEMTYPE, MPTYPE &gt;</title>
<!-- Node1 -->
<g id="Node000001" class="node">
<title>Node1</title>
<g id="a_Node000001"><a xlink:title="This template class provides a mostly concrete implementation for a Model Point who&#39;s data is a C num...">
<polygon fill="#999999" stroke="#666666" points="591.25,-400.5 461.25,-400.5 461.25,-370 591.25,-370 591.25,-400.5"/>
<text text-anchor="start" x="469.25" y="-387" font-family="Helvetica,sans-Serif" font-size="10.00">Cpl::Dm::Mp::Numeric</text>
<text text-anchor="middle" x="526.25" y="-375.75" font-family="Helvetica,sans-Serif" font-size="10.00">&lt; ELEMTYPE, MPTYPE &gt;</text>
</a>
</g>
</g>
<!-- Node5 -->
<g id="Node000005" class="node">
<title>Node5</title>
<g id="a_Node000005"><a xlink:href="class_cpl_1_1_dm_1_1_mp_1_1_bit_array__.html" target="_top" xlink:title=" ">
<polygon fill="white" stroke="#666666" points="1339.25,-745.5 1216.75,-745.5 1216.75,-715 1339.25,-715 1339.25,-745.5"/>
<text text-anchor="start" x="1224.75" y="-732" font-family="Helvetica,sans-Serif" font-size="10.00">Cpl::Dm::Mp::BitArray</text>
<text text-anchor="middle" x="1278" y="-720.75" font-family="Helvetica,sans-Serif" font-size="10.00">_&lt; uint16_t, BitArray16 &gt;</text>
</a>
</g>
</g>
<!-- Node1&#45;&gt;Node5 -->
<g id="edge4_Node000001_Node000005" class="edge">
<title>Node1&#45;&gt;Node5</title>
<g id="a_edge4_Node000001_Node000005"><a xlink:title=" ">
<path fill="none" stroke="#63b8ff" d="M529.54,-412.16C536.42,-485.76 559.54,-687.53 609.25,-727.25 797.41,-877.59 1119.94,-785.9 1234.83,-745.99"/>
<polygon fill="#63b8ff" stroke="#63b8ff" points="533.03,-411.88 528.65,-402.24 526.06,-412.51 533.03,-411.88"/>
</a>
</g>
</g>
<!-- Node7 -->
<g id="Node000007" class="node">
<title>Node7</title>
<g id="a_Node000007"><a xlink:href="class_cpl_1_1_dm_1_1_mp_1_1_pointer__.html" target="_top" xlink:title=" ">
<polygon fill="white" stroke="#666666" points="1332.5,-671.5 1223.5,-671.5 1223.5,-641 1332.5,-641 1332.5,-671.5"/>
<text text-anchor="start" x="1231.5" y="-658" font-family="Helvetica,sans-Serif" font-size="10.00">Cpl::Dm::Mp::Pointer</text>
<text text-anchor="middle" x="1278" y="-646.75" font-family="Helvetica,sans-Serif" font-size="10.00">_&lt; MpScreenApiPtr &gt;</text>
</a>
</g>
</g>
<!-- Node1&#45;&gt;Node7 -->
<g id="edge6_Node000001_Node000007" class="edge">
<title>Node1&#45;&gt;Node7</title>
<g id="a_edge6_Node000001_Node000007"><a xlink:title=" ">
<path fill="none" stroke="#63b8ff" d="M528.01,-411.91C530.99,-460.86 544.99,-564.5 609.25,-613.25 704.98,-685.88 1082.05,-669.2 1223.25,-660.13"/>
<polygon fill="#63b8ff" stroke="#63b8ff" points="531.52,-412.04 527.54,-402.23 524.53,-412.38 531.52,-412.04"/>
</a>
</g>
</g>
<!-- Node9 -->
<g id="Node000009" class="node">
<title>Node9</title>
<g id="a_Node000009"><a xlink:href="class_cpl_1_1_dm_1_1_mp_1_1_pointer__.html" target="_top" xlink:title=" ">
<polygon fill="white" stroke="#666666" points="1345.25,-605.5 1210.75,-605.5 1210.75,-575 1345.25,-575 1345.25,-605.5"/>
<text text-anchor="start" x="1218.75" y="-592" font-family="Helvetica,sans-Serif" font-size="10.00">Cpl::Dm::Mp::Pointer</text>
<text text-anchor="middle" x="1278" y="-580.75" font-family="Helvetica,sans-Serif" font-size="10.00">_&lt; MpStaticScreenApiPtr &gt;</text>
</a>
</g>
</g>
<!-- Node1&#45;&gt;Node9 -->
<g id="edge8_Node000001_Node000009" class="edge">
<title>Node1&#45;&gt;Node9</title>
<g id="a_edge8_Node000001_Node000009"><a xlink:title=" ">
<path fill="none" stroke="#63b8ff" d="M538.34,-411.1C551.28,-437.93 575.32,-478.91 609.25,-500.25 662.23,-533.56 685.81,-517.22 748,-524.25 760.29,-525.64 1180.79,-545.09 1192.75,-548.25 1213.92,-553.84 1236.02,-565.09 1252.26,-574.54"/>
<polygon fill="#63b8ff" stroke="#63b8ff" points="541.64,-409.88 534.26,-402.27 535.28,-412.82 541.64,-409.88"/>
</a>
</g>
</g>
<!-- Node11 -->
<g id="Node000011" class="node">
<title>Node11</title>
<g id="a_Node000011"><a xlink:href="class_cpl_1_1_dm_1_1_mp_1_1_pointer__.html" target="_top" xlink:title=" ">
<polygon fill="white" stroke="#666666" points="1329.5,-535.5 1226.5,-535.5 1226.5,-505 1329.5,-505 1329.5,-535.5"/>
<text text-anchor="start" x="1234.5" y="-522" font-family="Helvetica,sans-Serif" font-size="10.00">Cpl::Dm::Mp::Pointer</text>
<text text-anchor="middle" x="1278" y="-510.75" font-family="Helvetica,sans-Serif" font-size="10.00">_&lt; Void &gt;</text>
</a>
</g>
</g>
<!-- Node1&#45;&gt;Node11 -->
<g id="edge10_Node000001_Node000011" class="edge">
<title>Node1&#45;&gt;Node11</title>
<g id="a_edge10_Node000001_Node000011"><a xlink:title=" ">
<path fill="none" stroke="#63b8ff" d="M543.5,-409.87C558.16,-429.92 581.63,-457.13 609.25,-471.25 716.76,-526.22 1089.54,-524.24 1226.24,-521.54"/>
<polygon fill="#63b8ff" stroke="#63b8ff" points="546.52,-408.09 537.9,-401.93 540.8,-412.12 546.52,-408.09"/>
</a>
</g>
</g>
<!-- Node13 -->
<g id="Node000013" class="node">
<title>Node13</title>
<g id="a_Node000013"><a xlink:href="class_cpl_1_1_dm_1_1_mp_1_1_numeric.html" target="_top" xlink:title=" ">
<polygon fill="white" stroke="#666666" points="884.75,-481.5 750.25,-481.5 750.25,-451 884.75,-451 884.75,-481.5"/>
<text text-anchor="start" x="758.25" y="-468" font-family="Helvetica,sans-Serif" font-size="10.00">Cpl::Dm::Mp::Numeric</text>
<text text-anchor="middle" x="817.5" y="-456.75" font-family="Helvetica,sans-Serif" font-size="10.00">&lt; size_t, MpScreenApiPtr &gt;</text>
</a>
</g>
</g>
<!-- Node1&#45;&gt;Node13 -->
<g id="edge12_Node000001_Node000013" class="edge">
<title>Node1&#45;&gt;Node13</title>
<g id="a_edge12_Node000001_Node000013"><a xlink:title=" ">
<path fill="none" stroke="orange" stroke-dasharray="5,2" d="M560.19,-406.59C574.72,-415.12 592.32,-424.32 609.25,-430.25 654.75,-446.19 708.42,-455.26 749.75,-460.31"/>
<polygon fill="orange" stroke="orange" points="562.34,-403.79 551.97,-401.61 558.71,-409.78 562.34,-403.79"/>
</a>
</g>
<text text-anchor="middle" x="669.62" y="-458" font-family="Helvetica,sans-Serif" font-size="10.00" fill="grey"> &lt; size_t, MpScreenApiPtr &gt;</text>
</g>
<!-- Node14 -->
<g id="Node000014" class="node">
<title>Node14</title>
<g id="a_Node000014"><a xlink:href="class_cpl_1_1_dm_1_1_mp_1_1_numeric.html" target="_top" xlink:title=" ">
<polygon fill="white" stroke="#666666" points="887,-433.12 748,-433.12 748,-391.38 887,-391.38 887,-433.12"/>
<text text-anchor="start" x="756" y="-419.62" font-family="Helvetica,sans-Serif" font-size="10.00">Cpl::Dm::Mp::Numeric</text>
<text text-anchor="start" x="756" y="-408.38" font-family="Helvetica,sans-Serif" font-size="10.00">&lt; size_t, MpStaticScreenApi</text>
<text text-anchor="middle" x="817.5" y="-397.12" font-family="Helvetica,sans-Serif" font-size="10.00">Ptr &gt;</text>
</a>
</g>
</g>
<!-- Node1&#45;&gt;Node14 -->
<g id="edge13_Node000001_Node000014" class="edge">
<title>Node1&#45;&gt;Node14</title>
<g id="a_edge13_Node000001_Node000014"><a xlink:title=" ">
<path fill="none" stroke="orange" stroke-dasharray="5,2" d="M602.87,-392.31C647.71,-396.49 704.11,-401.76 747.69,-405.83"/>
<polygon fill="orange" stroke="orange" points="603.23,-388.83 592.95,-391.38 602.58,-395.8 603.23,-388.83"/>
</a>
</g>
<text text-anchor="start" x="614.12" y="-417.25" font-family="Helvetica,sans-Serif" font-size="10.00" fill="grey"> &lt; size_t, MpStaticScreen</text>
<text text-anchor="middle" x="669.62" y="-406" font-family="Helvetica,sans-Serif" font-size="10.00" fill="grey">ApiPtr &gt;</text>
</g>
<!-- Node15 -->
<g id="Node000015" class="node">
<title>Node15</title>
<g id="a_Node000015"><a xlink:href="class_cpl_1_1_dm_1_1_mp_1_1_numeric.html" target="_top" xlink:title=" ">
<polygon fill="white" stroke="#666666" points="876.12,-373.5 758.88,-373.5 758.88,-343 876.12,-343 876.12,-373.5"/>
<text text-anchor="start" x="766.88" y="-360" font-family="Helvetica,sans-Serif" font-size="10.00">Cpl::Dm::Mp::Numeric</text>
<text text-anchor="middle" x="817.5" y="-348.75" font-family="Helvetica,sans-Serif" font-size="10.00">&lt; uint16_t, BitArray16 &gt;</text>
</a>
</g>
</g>
<!-- Node1&#45;&gt;Node15 -->
<g id="edge14_Node000001_Node000015" class="edge">
<title>Node1&#45;&gt;Node15</title>
<g id="a_edge14_Node000001_Node000015"><a xlink:title=" ">
<path fill="none" stroke="orange" stroke-dasharray="5,2" d="M602.86,-378.19C651.46,-373.66 713.65,-367.85 758.38,-363.68"/>
<polygon fill="orange" stroke="orange" points="602.58,-374.7 592.95,-379.12 603.23,-381.67 602.58,-374.7"/>
</a>
</g>
<text text-anchor="middle" x="669.62" y="-380" font-family="Helvetica,sans-Serif" font-size="10.00" fill="grey"> &lt; uint16_t, BitArray16 &gt;</text>
</g>
<!-- Node16 -->
<g id="Node000016" class="node">
<title>Node16</title>
<g id="a_Node000016"><a xlink:href="class_cpl_1_1_dm_1_1_mp_1_1_numeric.html" target="_top" xlink:title=" ">
<polygon fill="white" stroke="#666666" points="882.5,-719.5 752.5,-719.5 752.5,-689 882.5,-689 882.5,-719.5"/>
<text text-anchor="start" x="760.5" y="-706" font-family="Helvetica,sans-Serif" font-size="10.00">Cpl::Dm::Mp::Numeric</text>
<text text-anchor="middle" x="817.5" y="-694.75" font-family="Helvetica,sans-Serif" font-size="10.00">&lt; WORDSIZE, MPTYPE &gt;</text>
</a>
</g>
</g>
<!-- Node1&#45;&gt;Node16 -->
<g id="edge15_Node000001_Node000016" class="edge">
<title>Node1&#45;&gt;Node16</title>
<g id="a_edge15_Node000001_Node000016"><a xlink:title=" ">
<path fill="none" stroke="orange" stroke-dasharray="5,2" d="M531.07,-412.08C540.88,-477.07 569.05,-640.2 609.25,-675.25 648,-709.04 707.23,-714.33 752.46,-712.31"/>
<polygon fill="orange" stroke="orange" points="534.54,-411.67 529.62,-402.29 527.62,-412.69 534.54,-411.67"/>
</a>
</g>
<text text-anchor="middle" x="669.62" y="-714" font-family="Helvetica,sans-Serif" font-size="10.00" fill="grey"> &lt; WORDSIZE, MPTYPE &gt;</text>
</g>
<!-- Node18 -->
<g id="Node000018" class="node">
<title>Node18</title>
<g id="a_Node000018"><a xlink:href="class_cpl_1_1_dm_1_1_mp_1_1_numeric.html" target="_top" xlink:title=" ">
<polygon fill="white" stroke="#666666" points="872,-324.5 763,-324.5 763,-294 872,-294 872,-324.5"/>
<text text-anchor="start" x="771" y="-311" font-family="Helvetica,sans-Serif" font-size="10.00">Cpl::Dm::Mp::Numeric</text>
<text text-anchor="middle" x="817.5" y="-299.75" font-family="Helvetica,sans-Serif" font-size="10.00">&lt; double, Double &gt;</text>
</a>
</g>
</g>
<!-- Node1&#45;&gt;Node18 -->
<g id="edge18_Node000001_Node000018" class="edge">
<title>Node1&#45;&gt;Node18</title>
<g id="a_edge18_Node000001_Node000018"><a xlink:title=" ">
<path fill="none" stroke="orange" stroke-dasharray="5,2" d="M572.4,-365.23C584.24,-360.46 597.09,-355.68 609.25,-352 660.41,-336.49 720.36,-324.8 762.59,-317.6"/>
<polygon fill="orange" stroke="orange" points="571.17,-361.95 563.26,-369.01 573.84,-368.42 571.17,-361.95"/>
</a>
</g>
<text text-anchor="middle" x="669.62" y="-354" font-family="Helvetica,sans-Serif" font-size="10.00" fill="grey"> &lt; double, Double &gt;</text>
</g>
<!-- Node20 -->
<g id="Node000020" class="node">
<title>Node20</title>
<g id="a_Node000020"><a xlink:href="class_cpl_1_1_dm_1_1_mp_1_1_numeric.html" target="_top" xlink:title=" ">
<polygon fill="white" stroke="#666666" points="872,-275.5 763,-275.5 763,-245 872,-245 872,-275.5"/>
<text text-anchor="start" x="771" y="-262" font-family="Helvetica,sans-Serif" font-size="10.00">Cpl::Dm::Mp::Numeric</text>
<text text-anchor="middle" x="817.5" y="-250.75" font-family="Helvetica,sans-Serif" font-size="10.00">&lt; float, Float &gt;</text>
</a>
</g>
</g>
<!-- Node1&#45;&gt;Node20 -->
<g id="edge20_Node000001_Node000020" class="edge">
<title>Node1&#45;&gt;Node20</title>
<g id="a_edge20_Node000001_Node000020"><a xlink:title=" ">
<path fill="none" stroke="orange" stroke-dasharray="5,2" d="M546.99,-361.16C562.26,-344.1 584.86,-322.01 609.25,-309 657.52,-283.25 719.24,-270.98 762.74,-265.21"/>
<polygon fill="orange" stroke="orange" points="544.61,-358.56 540.7,-368.41 549.9,-363.15 544.61,-358.56"/>
</a>
</g>
<text text-anchor="middle" x="669.62" y="-311" font-family="Helvetica,sans-Serif" font-size="10.00" fill="grey"> &lt; float, Float &gt;</text>
</g>
<!-- Node22 -->
<g id="Node000022" class="node">
<title>Node22</title>
<g id="a_Node000022"><a xlink:href="class_cpl_1_1_dm_1_1_mp_1_1_numeric.html" target="_top" xlink:title=" ">
<polygon fill="white" stroke="#666666" points="872,-226.5 763,-226.5 763,-196 872,-196 872,-226.5"/>
<text text-anchor="start" x="771" y="-213" font-family="Helvetica,sans-Serif" font-size="10.00">Cpl::Dm::Mp::Numeric</text>
<text text-anchor="middle" x="817.5" y="-201.75" font-family="Helvetica,sans-Serif" font-size="10.00">&lt; int32_t, Int32 &gt;</text>
</a>
</g>
</g>
<!-- Node1&#45;&gt;Node22 -->
<g id="edge22_Node000001_Node000022" class="edge">
<title>Node1&#45;&gt;Node22</title>
<g id="a_edge22_Node000001_Node000022"><a xlink:title=" ">
<path fill="none" stroke="orange" stroke-dasharray="5,2" d="M536.57,-359.24C548.63,-329.49 572.53,-281.61 609.25,-256 633.63,-239 709.73,-225.64 762.59,-218.09"/>
<polygon fill="orange" stroke="orange" points="533.43,-357.67 533.08,-368.26 539.96,-360.2 533.43,-357.67"/>
</a>
</g>
<text text-anchor="middle" x="669.62" y="-258" font-family="Helvetica,sans-Serif" font-size="10.00" fill="grey"> &lt; int32_t, Int32 &gt;</text>
</g>
<!-- Node24 -->
<g id="Node000024" class="node">
<title>Node24</title>
<g id="a_Node000024"><a xlink:href="class_cpl_1_1_dm_1_1_mp_1_1_numeric.html" target="_top" xlink:title=" ">
<polygon fill="white" stroke="#666666" points="872,-177.5 763,-177.5 763,-147 872,-147 872,-177.5"/>
<text text-anchor="start" x="771" y="-164" font-family="Helvetica,sans-Serif" font-size="10.00">Cpl::Dm::Mp::Numeric</text>
<text text-anchor="middle" x="817.5" y="-152.75" font-family="Helvetica,sans-Serif" font-size="10.00">&lt; int64_t, Int64 &gt;</text>
</a>
</g>
</g>
<!-- Node1&#45;&gt;Node24 -->
<g id="edge24_Node000001_Node000024" class="edge">
<title>Node1&#45;&gt;Node24</title>
<g id="a_edge24_Node000001_Node000024"><a xlink:title=" ">
<path fill="none" stroke="orange" stroke-dasharray="5,2" d="M532.02,-358.51C540.43,-319.46 561.74,-247.31 609.25,-209 652.75,-173.92 717.35,-163.99 762.84,-161.73"/>
<polygon fill="orange" stroke="orange" points="528.6,-357.74 530.06,-368.24 535.46,-359.12 528.6,-357.74"/>
</a>
</g>
<text text-anchor="middle" x="669.62" y="-211" font-family="Helvetica,sans-Serif" font-size="10.00" fill="grey"> &lt; int64_t, Int64 &gt;</text>
</g>
<!-- Node26 -->
<g id="Node000026" class="node">
<title>Node26</title>
<g id="a_Node000026"><a xlink:href="class_cpl_1_1_dm_1_1_mp_1_1_numeric.html" target="_top" xlink:title=" ">
<polygon fill="white" stroke="#666666" points="872,-610.5 763,-610.5 763,-580 872,-580 872,-610.5"/>
<text text-anchor="start" x="771" y="-597" font-family="Helvetica,sans-Serif" font-size="10.00">Cpl::Dm::Mp::Numeric</text>
<text text-anchor="middle" x="817.5" y="-585.75" font-family="Helvetica,sans-Serif" font-size="10.00">&lt; size_t, MPTYPE &gt;</text>
</a>
</g>
</g>
<!-- Node1&#45;&gt;Node26 -->
<g id="edge26_Node000001_Node000026" class="edge">
<title>Node1&#45;&gt;Node26</title>
<g id="a_edge26_Node000001_Node000026"><a xlink:title=" ">
<path fill="none" stroke="orange" stroke-dasharray="5,2" d="M531.69,-412.06C539.71,-451.47 560.56,-524.34 609.25,-561.25 653.12,-594.51 717.35,-600.37 762.65,-599.57"/>
<polygon fill="orange" stroke="orange" points="535.17,-411.65 529.87,-402.47 528.29,-412.95 535.17,-411.65"/>
</a>
</g>
<text text-anchor="middle" x="669.62" y="-600" font-family="Helvetica,sans-Serif" font-size="10.00" fill="grey"> &lt; size_t, MPTYPE &gt;</text>
</g>
<!-- Node28 -->
<g id="Node000028" class="node">
<title>Node28</title>
<g id="a_Node000028"><a xlink:href="class_cpl_1_1_dm_1_1_mp_1_1_numeric.html" target="_top" xlink:title=" ">
<polygon fill="white" stroke="#666666" points="872,-128.5 763,-128.5 763,-98 872,-98 872,-128.5"/>
<text text-anchor="start" x="771" y="-115" font-family="Helvetica,sans-Serif" font-size="10.00">Cpl::Dm::Mp::Numeric</text>
<text text-anchor="middle" x="817.5" y="-103.75" font-family="Helvetica,sans-Serif" font-size="10.00">&lt; uint32_t, Uint32 &gt;</text>
</a>
</g>
</g>
<!-- Node1&#45;&gt;Node28 -->
<g id="edge31_Node000001_Node000028" class="edge">
<title>Node1&#45;&gt;Node28</title>
<g id="a_edge31_Node000001_Node000028"><a xlink:title=" ">
<path fill="none" stroke="orange" stroke-dasharray="5,2" d="M528.28,-358.53C531.72,-309.37 546.44,-204.67 609.25,-151 651.51,-114.89 716.65,-108.35 762.6,-109"/>
<polygon fill="orange" stroke="orange" points="524.8,-358.08 527.72,-368.26 531.79,-358.48 524.8,-358.08"/>
</a>
</g>
<text text-anchor="middle" x="669.62" y="-153" font-family="Helvetica,sans-Serif" font-size="10.00" fill="grey"> &lt; uint32_t, Uint32 &gt;</text>
</g>
<!-- Node30 -->
<g id="Node000030" class="node">
<title>Node30</title>
<g id="a_Node000030"><a xlink:href="class_cpl_1_1_dm_1_1_mp_1_1_numeric.html" target="_top" xlink:title=" ">
<polygon fill="white" stroke="#666666" points="872,-79.5 763,-79.5 763,-49 872,-49 872,-79.5"/>
<text text-anchor="start" x="771" y="-66" font-family="Helvetica,sans-Serif" font-size="10.00">Cpl::Dm::Mp::Numeric</text>
<text text-anchor="middle" x="817.5" y="-54.75" font-family="Helvetica,sans-Serif" font-size="10.00">&lt; uint64_t, Uint64 &gt;</text>
</a>
</g>
</g>
<!-- Node1&#45;&gt;Node30 -->
<g id="edge33_Node000001_Node000030" class="edge">
<title>Node1&#45;&gt;Node30</title>
<g id="a_edge33_Node000001_Node000030"><a xlink:title=" ">
<path fill="none" stroke="orange" stroke-dasharray="5,2" d="M531.08,-358.42C540.92,-293.42 569.17,-130.25 609.25,-95 650.9,-58.37 716.48,-54.47 762.69,-57.3"/>
<polygon fill="orange" stroke="orange" points="527.63,-357.8 529.63,-368.21 534.56,-358.83 527.63,-357.8"/>
</a>
</g>
<text text-anchor="middle" x="669.62" y="-97" font-family="Helvetica,sans-Serif" font-size="10.00" fill="grey"> &lt; uint64_t, Uint64 &gt;</text>
</g>
<!-- Node32 -->
<g id="Node000032" class="node">
<title>Node32</title>
<g id="a_Node000032"><a xlink:href="class_cpl_1_1_dm_1_1_mp_1_1_numeric.html" target="_top" xlink:title=" ">
<polygon fill="white" stroke="#666666" points="872,-30.5 763,-30.5 763,0 872,0 872,-30.5"/>
<text text-anchor="start" x="771" y="-17" font-family="Helvetica,sans-Serif" font-size="10.00">Cpl::Dm::Mp::Numeric</text>
<text text-anchor="middle" x="817.5" y="-5.75" font-family="Helvetica,sans-Serif" font-size="10.00">&lt; size_t, Void &gt;</text>
</a>
</g>
</g>
<!-- Node1&#45;&gt;Node32 -->
<g id="edge35_Node000001_Node000032" class="edge">
<title>Node1&#45;&gt;Node32</title>
<g id="a_edge35_Node000001_Node000032"><a xlink:title=" ">
<path fill="none" stroke="orange" stroke-dasharray="5,2" d="M529.77,-358.53C537.24,-285.42 561.77,-84.69 609.25,-42 650.53,-4.89 716.49,-2.58 762.89,-6.73"/>
<polygon fill="orange" stroke="orange" points="526.3,-358.08 528.79,-368.38 533.27,-358.77 526.3,-358.08"/>
</a>
</g>
<text text-anchor="middle" x="669.62" y="-44" font-family="Helvetica,sans-Serif" font-size="10.00" fill="grey"> &lt; size_t, Void &gt;</text>
</g>
<!-- Node2 -->
<g id="Node000002" class="node">
<title>Node2</title>
<g id="a_Node000002"><a xlink:href="class_cpl_1_1_dm_1_1_model_point_common__.html" target="_top" xlink:title="This concrete class provide common infrastructure for a Model Point.">
<polygon fill="white" stroke="#666666" points="424.25,-394.88 277,-394.88 277,-375.62 424.25,-375.62 424.25,-394.88"/>
<text text-anchor="middle" x="350.62" y="-381.38" font-family="Helvetica,sans-Serif" font-size="10.00">Cpl::Dm::ModelPointCommon_</text>
</a>
</g>
</g>
<!-- Node2&#45;&gt;Node1 -->
<g id="edge1_Node000001_Node000002" class="edge">
<title>Node2&#45;&gt;Node1</title>
<g id="a_edge1_Node000001_Node000002"><a xlink:title=" ">
<path fill="none" stroke="#63b8ff" d="M435.89,-385.25C444.28,-385.25 452.7,-385.25 460.84,-385.25"/>
<polygon fill="#63b8ff" stroke="#63b8ff" points="436.02,-381.75 426.02,-385.25 436.02,-388.75 436.02,-381.75"/>
</a>
</g>
</g>
<!-- Node3 -->
<g id="Node000003" class="node">
<title>Node3</title>
<g id="a_Node000003"><a xlink:href="class_cpl_1_1_dm_1_1_model_point.html" target="_top" xlink:title="This mostly abstract class defines the interface for a Model Point.">
<polygon fill="white" stroke="#666666" points="240,-394.88 137,-394.88 137,-375.62 240,-375.62 240,-394.88"/>
<text text-anchor="middle" x="188.5" y="-381.38" font-family="Helvetica,sans-Serif" font-size="10.00">Cpl::Dm::ModelPoint</text>
</a>
</g>
</g>
<!-- Node3&#45;&gt;Node2 -->
<g id="edge2_Node000002_Node000003" class="edge">
<title>Node3&#45;&gt;Node2</title>
<g id="a_edge2_Node000002_Node000003"><a xlink:title=" ">
<path fill="none" stroke="#63b8ff" d="M251.6,-385.25C259.85,-385.25 268.36,-385.25 276.77,-385.25"/>
<polygon fill="#63b8ff" stroke="#63b8ff" points="251.68,-381.75 241.68,-385.25 251.68,-388.75 251.68,-381.75"/>
</a>
</g>
</g>
<!-- Node4 -->
<g id="Node000004" class="node">
<title>Node4</title>
<g id="a_Node000004"><a xlink:href="class_cpl_1_1_container_1_1_item.html" target="_top" xlink:title="This class is used by the Container classes to implement a various types of singly linked containers.">
<polygon fill="white" stroke="#666666" points="100,-394.88 0,-394.88 0,-375.62 100,-375.62 100,-394.88"/>
<text text-anchor="middle" x="50" y="-381.38" font-family="Helvetica,sans-Serif" font-size="10.00">Cpl::Container::Item</text>
</a>
</g>
</g>
<!-- Node4&#45;&gt;Node3 -->
<g id="edge3_Node000003_Node000004" class="edge">
<title>Node4&#45;&gt;Node3</title>
<g id="a_edge3_Node000003_Node000004"><a xlink:title=" ">
<path fill="none" stroke="#63b8ff" d="M111.64,-385.25C120.09,-385.25 128.68,-385.25 136.91,-385.25"/>
<polygon fill="#63b8ff" stroke="#63b8ff" points="111.79,-381.75 101.79,-385.25 111.79,-388.75 111.79,-381.75"/>
</a>
</g>
</g>
<!-- Node6 -->
<g id="Node000006" class="node">
<title>Node6</title>
<g id="a_Node000006"><a xlink:href="class_cpl_1_1_dm_1_1_mp_1_1_bit_array16.html" target="_top" xlink:title="This template class provides a concrete implementation for a Point who&#39;s data is a a bit array of N b...">
<polygon fill="white" stroke="#666666" points="1508.5,-739.88 1391.25,-739.88 1391.25,-720.62 1508.5,-720.62 1508.5,-739.88"/>
<text text-anchor="middle" x="1449.88" y="-726.38" font-family="Helvetica,sans-Serif" font-size="10.00">Cpl::Dm::Mp::BitArray16</text>
</a>
</g>
</g>
<!-- Node5&#45;&gt;Node6 -->
<g id="edge5_Node000005_Node000006" class="edge">
<title>Node5&#45;&gt;Node6</title>
<g id="a_edge5_Node000005_Node000006"><a xlink:title=" ">
<path fill="none" stroke="#63b8ff" d="M1350.55,-730.25C1364.04,-730.25 1377.98,-730.25 1390.98,-730.25"/>
<polygon fill="#63b8ff" stroke="#63b8ff" points="1350.88,-726.75 1340.88,-730.25 1350.88,-733.75 1350.88,-726.75"/>
</a>
</g>
</g>
<!-- Node8 -->
<g id="Node000008" class="node">
<title>Node8</title>
<g id="a_Node000008"><a xlink:href="class_ajax_1_1_screen_mgr_1_1_mp_screen_api_ptr.html" target="_top" xlink:title="This class provides a concrete implementation for a Point who&#39;s data is a ScreenApi pointer.">
<polygon fill="white" stroke="#666666" points="1517.5,-671.5 1382.25,-671.5 1382.25,-641 1517.5,-641 1517.5,-671.5"/>
<text text-anchor="start" x="1390.25" y="-658" font-family="Helvetica,sans-Serif" font-size="10.00">Ajax::ScreenMgr::MpScreen</text>
<text text-anchor="middle" x="1449.88" y="-646.75" font-family="Helvetica,sans-Serif" font-size="10.00">ApiPtr</text>
</a>
</g>
</g>
<!-- Node7&#45;&gt;Node8 -->
<g id="edge7_Node000007_Node000008" class="edge">
<title>Node7&#45;&gt;Node8</title>
<g id="a_edge7_Node000007_Node000008"><a xlink:title=" ">
<path fill="none" stroke="#63b8ff" d="M1343.99,-656.25C1356.45,-656.25 1369.52,-656.25 1382.04,-656.25"/>
<polygon fill="#63b8ff" stroke="#63b8ff" points="1344.26,-652.75 1334.26,-656.25 1344.26,-659.75 1344.26,-652.75"/>
</a>
</g>
</g>
<!-- Node10 -->
<g id="Node000010" class="node">
<title>Node10</title>
<g id="a_Node000010"><a xlink:href="class_ajax_1_1_screen_mgr_1_1_mp_static_screen_api_ptr.html" target="_top" xlink:title="This class provides a concrete implementation for a Point who&#39;s data is a StaticScreenApi pointer.">
<polygon fill="white" stroke="#666666" points="1514.88,-605.5 1384.88,-605.5 1384.88,-575 1514.88,-575 1514.88,-605.5"/>
<text text-anchor="start" x="1392.88" y="-592" font-family="Helvetica,sans-Serif" font-size="10.00">Ajax::ScreenMgr::MpStatic</text>
<text text-anchor="middle" x="1449.88" y="-580.75" font-family="Helvetica,sans-Serif" font-size="10.00">ScreenApiPtr</text>
</a>
</g>
</g>
<!-- Node9&#45;&gt;Node10 -->
<g id="edge9_Node000009_Node000010" class="edge">
<title>Node9&#45;&gt;Node10</title>
<g id="a_edge9_Node000009_Node000010"><a xlink:title=" ">
<path fill="none" stroke="#63b8ff" d="M1356.89,-590.25C1366.18,-590.25 1375.58,-590.25 1384.64,-590.25"/>
<polygon fill="#63b8ff" stroke="#63b8ff" points="1357.17,-586.75 1347.17,-590.25 1357.17,-593.75 1357.17,-586.75"/>
</a>
</g>
</g>
<!-- Node12 -->
<g id="Node000012" class="node">
<title>Node12</title>
<g id="a_Node000012"><a xlink:href="class_cpl_1_1_dm_1_1_mp_1_1_void.html" target="_top" xlink:title="This class provides a concrete implementation for a Point who&#39;s data is a void pointer.">
<polygon fill="white" stroke="#666666" points="1495.75,-529.88 1404,-529.88 1404,-510.62 1495.75,-510.62 1495.75,-529.88"/>
<text text-anchor="middle" x="1449.88" y="-516.38" font-family="Helvetica,sans-Serif" font-size="10.00">Cpl::Dm::Mp::Void</text>
</a>
</g>
</g>
<!-- Node11&#45;&gt;Node12 -->
<g id="edge11_Node000011_Node000012" class="edge">
<title>Node11&#45;&gt;Node12</title>
<g id="a_edge11_Node000011_Node000012"><a xlink:title=" ">
<path fill="none" stroke="#63b8ff" d="M1341.23,-520.25C1361.93,-520.25 1384.56,-520.25 1403.71,-520.25"/>
<polygon fill="#63b8ff" stroke="#63b8ff" points="1341.48,-516.75 1331.48,-520.25 1341.48,-523.75 1341.48,-516.75"/>
</a>
</g>
</g>
<!-- Node17 -->
<g id="Node000017" class="node">
<title>Node17</title>
<g id="a_Node000017"><a xlink:href="class_cpl_1_1_dm_1_1_mp_1_1_bit_array__.html" target="_top" xlink:title="This template class extends the Numeric&lt;&gt; class to provide bit operation on the numeric value.">
<polygon fill="white" stroke="#666666" points="1059.25,-719.5 924,-719.5 924,-689 1059.25,-689 1059.25,-719.5"/>
<text text-anchor="start" x="932" y="-706" font-family="Helvetica,sans-Serif" font-size="10.00">Cpl::Dm::Mp::BitArray</text>
<text text-anchor="middle" x="991.62" y="-694.75" font-family="Helvetica,sans-Serif" font-size="10.00">_&lt; WORDSIZE, MPTYPE &gt;</text>
</a>
</g>
</g>
<!-- Node16&#45;&gt;Node17 -->
<g id="edge16_Node000016_Node000017" class="edge">
<title>Node16&#45;&gt;Node17</title>
<g id="a_edge16_Node000016_Node000017"><a xlink:title=" ">
<path fill="none" stroke="#63b8ff" d="M894.03,-704.25C903.88,-704.25 913.91,-704.25 923.6,-704.25"/>
<polygon fill="#63b8ff" stroke="#63b8ff" points="894.11,-700.75 884.11,-704.25 894.11,-707.75 894.11,-700.75"/>
</a>
</g>
</g>
<!-- Node17&#45;&gt;Node5 -->
<g id="edge17_Node000017_Node000005" class="edge">
<title>Node17&#45;&gt;Node5</title>
<g id="a_edge17_Node000017_Node000005"><a xlink:title=" ">
<path fill="none" stroke="orange" stroke-dasharray="5,2" d="M1070.57,-711C1107.6,-714.24 1152.46,-718.24 1192.75,-722 1200.36,-722.71 1208.35,-723.47 1216.26,-724.24"/>
<polygon fill="orange" stroke="orange" points="1071.12,-707.53 1060.85,-710.15 1070.51,-714.5 1071.12,-707.53"/>
</a>
</g>
<text text-anchor="middle" x="1135" y="-723" font-family="Helvetica,sans-Serif" font-size="10.00" fill="grey"> &lt; uint16_t, BitArray16 &gt;</text>
</g>
<!-- Node19 -->
<g id="Node000019" class="node">
<title>Node19</title>
<g id="a_Node000019"><a xlink:href="class_cpl_1_1_dm_1_1_mp_1_1_double.html" target="_top" xlink:title="This class provides a concrete implementation for a Point who&#39;s data is a double.">
<polygon fill="white" stroke="#666666" points="1042.75,-318.88 940.5,-318.88 940.5,-299.62 1042.75,-299.62 1042.75,-318.88"/>
<text text-anchor="middle" x="991.62" y="-305.38" font-family="Helvetica,sans-Serif" font-size="10.00">Cpl::Dm::Mp::Double</text>
</a>
</g>
</g>
<!-- Node18&#45;&gt;Node19 -->
<g id="edge19_Node000018_Node000019" class="edge">
<title>Node18&#45;&gt;Node19</title>
<g id="a_edge19_Node000018_Node000019"><a xlink:title=" ">
<path fill="none" stroke="#63b8ff" d="M883.87,-309.25C902.48,-309.25 922.47,-309.25 940.05,-309.25"/>
<polygon fill="#63b8ff" stroke="#63b8ff" points="884,-305.75 874,-309.25 884,-312.75 884,-305.75"/>
</a>
</g>
</g>
<!-- Node21 -->
<g id="Node000021" class="node">
<title>Node21</title>
<g id="a_Node000021"><a xlink:href="class_cpl_1_1_dm_1_1_mp_1_1_float.html" target="_top" xlink:title="This class provides a concrete implementation for a Point who&#39;s data is a float.">
<polygon fill="white" stroke="#666666" points="1038.62,-269.88 944.62,-269.88 944.62,-250.62 1038.62,-250.62 1038.62,-269.88"/>
<text text-anchor="middle" x="991.62" y="-256.38" font-family="Helvetica,sans-Serif" font-size="10.00">Cpl::Dm::Mp::Float</text>
</a>
</g>
</g>
<!-- Node20&#45;&gt;Node21 -->
<g id="edge21_Node000020_Node000021" class="edge">
<title>Node20&#45;&gt;Node21</title>
<g id="a_edge21_Node000020_Node000021"><a xlink:title=" ">
<path fill="none" stroke="#63b8ff" d="M883.82,-260.25C903.98,-260.25 925.77,-260.25 944.37,-260.25"/>
<polygon fill="#63b8ff" stroke="#63b8ff" points="884,-256.75 874,-260.25 884,-263.75 884,-256.75"/>
</a>
</g>
</g>
<!-- Node23 -->
<g id="Node000023" class="node">
<title>Node23</title>
<g id="a_Node000023"><a xlink:href="class_cpl_1_1_dm_1_1_mp_1_1_int32.html" target="_top" xlink:title="This class provides a concrete implementation for a Point who&#39;s data is a int32_t.">
<polygon fill="white" stroke="#666666" points="1038.62,-220.88 944.62,-220.88 944.62,-201.62 1038.62,-201.62 1038.62,-220.88"/>
<text text-anchor="middle" x="991.62" y="-207.38" font-family="Helvetica,sans-Serif" font-size="10.00">Cpl::Dm::Mp::Int32</text>
</a>
</g>
</g>
<!-- Node22&#45;&gt;Node23 -->
<g id="edge23_Node000022_Node000023" class="edge">
<title>Node22&#45;&gt;Node23</title>
<g id="a_edge23_Node000022_Node000023"><a xlink:title=" ">
<path fill="none" stroke="#63b8ff" d="M883.82,-211.25C903.98,-211.25 925.77,-211.25 944.37,-211.25"/>
<polygon fill="#63b8ff" stroke="#63b8ff" points="884,-207.75 874,-211.25 884,-214.75 884,-207.75"/>
</a>
</g>
</g>
<!-- Node25 -->
<g id="Node000025" class="node">
<title>Node25</title>
<g id="a_Node000025"><a xlink:href="class_cpl_1_1_dm_1_1_mp_1_1_int64.html" target="_top" xlink:title="This class provides a concrete implementation for a Point who&#39;s data is a int64_t.">
<polygon fill="white" stroke="#666666" points="1038.62,-171.88 944.62,-171.88 944.62,-152.62 1038.62,-152.62 1038.62,-171.88"/>
<text text-anchor="middle" x="991.62" y="-158.38" font-family="Helvetica,sans-Serif" font-size="10.00">Cpl::Dm::Mp::Int64</text>
</a>
</g>
</g>
<!-- Node24&#45;&gt;Node25 -->
<g id="edge25_Node000024_Node000025" class="edge">
<title>Node24&#45;&gt;Node25</title>
<g id="a_edge25_Node000024_Node000025"><a xlink:title=" ">
<path fill="none" stroke="#63b8ff" d="M883.82,-162.25C903.98,-162.25 925.77,-162.25 944.37,-162.25"/>
<polygon fill="#63b8ff" stroke="#63b8ff" points="884,-158.75 874,-162.25 884,-165.75 884,-158.75"/>
</a>
</g>
</g>
<!-- Node27 -->
<g id="Node000027" class="node">
<title>Node27</title>
<g id="a_Node000027"><a xlink:href="class_cpl_1_1_dm_1_1_mp_1_1_pointer__.html" target="_top" xlink:title="This template class extends the implementation of Numeric&lt;&gt; class to support the pointers instead of ...">
<polygon fill="white" stroke="#666666" points="1043.12,-614.5 940.12,-614.5 940.12,-584 1043.12,-584 1043.12,-614.5"/>
<text text-anchor="start" x="948.12" y="-601" font-family="Helvetica,sans-Serif" font-size="10.00">Cpl::Dm::Mp::Pointer</text>
<text text-anchor="middle" x="991.62" y="-589.75" font-family="Helvetica,sans-Serif" font-size="10.00">_&lt; MPTYPE &gt;</text>
</a>
</g>
</g>
<!-- Node26&#45;&gt;Node27 -->
<g id="edge27_Node000026_Node000027" class="edge">
<title>Node26&#45;&gt;Node27</title>
<g id="a_edge27_Node000026_Node000027"><a xlink:title=" ">
<path fill="none" stroke="#63b8ff" d="M883.81,-596.77C902.34,-597.2 922.23,-597.66 939.76,-598.07"/>
<polygon fill="#63b8ff" stroke="#63b8ff" points="884.08,-593.27 874,-596.54 883.92,-600.27 884.08,-593.27"/>
</a>
</g>
</g>
<!-- Node27&#45;&gt;Node7 -->
<g id="edge28_Node000027_Node000007" class="edge">
<title>Node27&#45;&gt;Node7</title>
<g id="a_edge28_Node000027_Node000007"><a xlink:title=" ">
<path fill="none" stroke="orange" stroke-dasharray="5,2" d="M1054.69,-609.75C1094.3,-616.68 1146.67,-626.24 1192.75,-636 1202.61,-638.09 1213.08,-640.47 1223.17,-642.85"/>
<polygon fill="orange" stroke="orange" points="1055.3,-606.31 1044.85,-608.04 1054.1,-613.2 1055.3,-606.31"/>
</a>
</g>
<text text-anchor="middle" x="1135" y="-637" font-family="Helvetica,sans-Serif" font-size="10.00" fill="grey"> &lt; MpScreenApiPtr &gt;</text>
</g>
<!-- Node27&#45;&gt;Node9 -->
<g id="edge29_Node000027_Node000009" class="edge">
<title>Node27&#45;&gt;Node9</title>
<g id="a_edge29_Node000027_Node000009"><a xlink:title=" ">
<path fill="none" stroke="orange" stroke-dasharray="5,2" d="M1054.78,-597.28C1100.74,-595.83 1163.26,-593.85 1210.28,-592.36"/>
<polygon fill="orange" stroke="orange" points="1054.86,-593.78 1044.98,-597.59 1055.08,-600.77 1054.86,-593.78"/>
</a>
</g>
<text text-anchor="middle" x="1135" y="-598" font-family="Helvetica,sans-Serif" font-size="10.00" fill="grey"> &lt; MpStaticScreenApiPtr &gt;</text>
</g>
<!-- Node27&#45;&gt;Node11 -->
<g id="edge30_Node000027_Node000011" class="edge">
<title>Node27&#45;&gt;Node11</title>
<g id="a_edge30_Node000027_Node000011"><a xlink:title=" ">
<path fill="none" stroke="orange" stroke-dasharray="5,2" d="M1054.42,-582.08C1105.8,-567.81 1178.03,-547.74 1226.12,-534.38"/>
<polygon fill="orange" stroke="orange" points="1053.62,-578.67 1044.92,-584.72 1055.5,-585.42 1053.62,-578.67"/>
</a>
</g>
<text text-anchor="middle" x="1135" y="-575" font-family="Helvetica,sans-Serif" font-size="10.00" fill="grey"> &lt; Void &gt;</text>
</g>
<!-- Node29 -->
<g id="Node000029" class="node">
<title>Node29</title>
<g id="a_Node000029"><a xlink:href="class_cpl_1_1_dm_1_1_mp_1_1_uint32.html" target="_top" xlink:title="This class provides a concrete implementation for a Point who&#39;s data is a uint32_t.">
<polygon fill="white" stroke="#666666" points="1042,-122.88 941.25,-122.88 941.25,-103.62 1042,-103.62 1042,-122.88"/>
<text text-anchor="middle" x="991.62" y="-109.38" font-family="Helvetica,sans-Serif" font-size="10.00">Cpl::Dm::Mp::Uint32</text>
</a>
</g>
</g>
<!-- Node28&#45;&gt;Node29 -->
<g id="edge32_Node000028_Node000029" class="edge">
<title>Node28&#45;&gt;Node29</title>
<g id="a_edge32_Node000028_Node000029"><a xlink:title=" ">
<path fill="none" stroke="#63b8ff" d="M883.76,-113.25C902.71,-113.25 923.09,-113.25 940.92,-113.25"/>
<polygon fill="#63b8ff" stroke="#63b8ff" points="884,-109.75 874,-113.25 884,-116.75 884,-109.75"/>
</a>
</g>
</g>
<!-- Node31 -->
<g id="Node000031" class="node">
<title>Node31</title>
<g id="a_Node000031"><a xlink:href="class_cpl_1_1_dm_1_1_mp_1_1_uint64.html" target="_top" xlink:title="This class provides a concrete implementation for a Point who&#39;s data is a uint64_t.">
<polygon fill="white" stroke="#666666" points="1042,-73.88 941.25,-73.88 941.25,-54.62 1042,-54.62 1042,-73.88"/>
<text text-anchor="middle" x="991.62" y="-60.38" font-family="Helvetica,sans-Serif" font-size="10.00">Cpl::Dm::Mp::Uint64</text>
</a>
</g>
</g>
<!-- Node30&#45;&gt;Node31 -->
<g id="edge34_Node000030_Node000031" class="edge">
<title>Node30&#45;&gt;Node31</title>
<g id="a_edge34_Node000030_Node000031"><a xlink:title=" ">
<path fill="none" stroke="#63b8ff" d="M883.76,-64.25C902.71,-64.25 923.09,-64.25 940.92,-64.25"/>
<polygon fill="#63b8ff" stroke="#63b8ff" points="884,-60.75 874,-64.25 884,-67.75 884,-60.75"/>
</a>
</g>
</g>
</g>
</svg>
