<?xml version="1.0" encoding="UTF-8" standalone="no"?>
<!DOCTYPE svg PUBLIC "-//W3C//DTD SVG 1.1//EN"
 "http://www.w3.org/Graphics/SVG/1.1/DTD/svg11.dtd">
<!-- Generated by graphviz version 2.43.0 (0)
 -->
<!-- Title: Cpl::TShell::Cmd::Command Pages: 1 -->
<svg width="860pt" height="951pt"
 viewBox="0.00 0.00 860.00 951.00" xmlns="http://www.w3.org/2000/svg" xmlns:xlink="http://www.w3.org/1999/xlink">
<g id="graph0" class="graph" transform="scale(1 1) rotate(0) translate(4 947)">
<title>Cpl::TShell::Cmd::Command</title>
<!-- Node1 -->
<g id="Node000001" class="node">
<title>Node1</title>
<g id="a_Node000001"><a xlink:title="This partially concrete class implements infrastructure and/or common functionality for a Shell comma...">
<polygon fill="#999999" stroke="#666666" points="464,-487 311,-487 311,-468 464,-468 464,-487"/>
<text text-anchor="middle" x="387.5" y="-475" font-family="Helvetica,sans-Serif" font-size="10.00">Cpl::TShell::Cmd::Command</text>
</a>
</g>
</g>
<!-- Node4 -->
<g id="Node000004" class="node">
<title>Node4</title>
<g id="a_Node000004"><a xlink:href="class_ajax_1_1_heating_1_1_simulated_1_1_cmd.html" target="_top" xlink:title="This class implements a Shell command.">
<polygon fill="white" stroke="#666666" points="667,-943 500,-943 500,-924 667,-924 667,-943"/>
<text text-anchor="middle" x="583.5" y="-931" font-family="Helvetica,sans-Serif" font-size="10.00">Ajax::Heating::Simulated::Cmd</text>
</a>
</g>
</g>
<!-- Node1&#45;&gt;Node4 -->
<g id="edge3_Node000001_Node000004" class="edge">
<title>Node1&#45;&gt;Node4</title>
<g id="a_edge3_Node000001_Node000004"><a xlink:title=" ">
<path fill="none" stroke="#63b8ff" d="M390.79,-497.28C400.13,-574.66 437.87,-855.47 500,-915.5 503.48,-918.86 507.43,-921.66 511.68,-923.97"/>
<polygon fill="#63b8ff" stroke="#63b8ff" points="394.22,-496.55 389.57,-487.03 387.27,-497.38 394.22,-496.55"/>
</a>
</g>
</g>
<!-- Node5 -->
<g id="Node000005" class="node">
<title>Node5</title>
<g id="a_Node000005"><a xlink:href="class_ajax_1_1_t_shell_1_1_provision.html" target="_top" xlink:title="This class implements a TShell command that is used to provision a GM6000 unit at production.">
<polygon fill="white" stroke="#666666" points="646,-906 521,-906 521,-887 646,-887 646,-906"/>
<text text-anchor="middle" x="583.5" y="-894" font-family="Helvetica,sans-Serif" font-size="10.00">Ajax::TShell::Provision</text>
</a>
</g>
</g>
<!-- Node1&#45;&gt;Node5 -->
<g id="edge4_Node000001_Node000005" class="edge">
<title>Node1&#45;&gt;Node5</title>
<g id="a_edge4_Node000001_Node000005"><a xlink:title=" ">
<path fill="none" stroke="#63b8ff" d="M391.34,-497.41C402.16,-570.58 443.1,-823.13 500,-877.5 505.84,-883.08 512.99,-887.15 520.6,-890.08"/>
<polygon fill="#63b8ff" stroke="#63b8ff" points="394.77,-496.66 389.86,-487.27 387.84,-497.67 394.77,-496.66"/>
</a>
</g>
</g>
<!-- Node6 -->
<g id="Node000006" class="node">
<title>Node6</title>
<g id="a_Node000006"><a xlink:href="class_ajax_1_1_t_shell_1_1_state.html" target="_top" xlink:title="This class implements a TShell command that displays the current &#39;state&#39; of the unit.">
<polygon fill="white" stroke="#666666" points="636.5,-869 530.5,-869 530.5,-850 636.5,-850 636.5,-869"/>
<text text-anchor="middle" x="583.5" y="-857" font-family="Helvetica,sans-Serif" font-size="10.00">Ajax::TShell::State</text>
</a>
</g>
</g>
<!-- Node1&#45;&gt;Node6 -->
<g id="edge5_Node000001_Node000006" class="edge">
<title>Node1&#45;&gt;Node6</title>
<g id="a_edge5_Node000001_Node000006"><a xlink:title=" ">
<path fill="none" stroke="#63b8ff" d="M388.18,-497.27C388.34,-558.27 397.54,-745.13 500,-840.5 508.39,-848.31 519.33,-853.13 530.48,-856.05"/>
<polygon fill="#63b8ff" stroke="#63b8ff" points="391.68,-497.12 388.24,-487.1 384.68,-497.08 391.68,-497.12"/>
</a>
</g>
</g>
<!-- Node7 -->
<g id="Node000007" class="node">
<title>Node7</title>
<g id="a_Node000007"><a xlink:href="class_ajax_1_1_t_shell_1_1_ui.html" target="_top" xlink:title="This class implements a TShell command that generates a UI event.">
<polygon fill="white" stroke="#666666" points="629,-832 538,-832 538,-813 629,-813 629,-832"/>
<text text-anchor="middle" x="583.5" y="-820" font-family="Helvetica,sans-Serif" font-size="10.00">Ajax::TShell::Ui</text>
</a>
</g>
</g>
<!-- Node1&#45;&gt;Node7 -->
<g id="edge6_Node000001_Node000007" class="edge">
<title>Node1&#45;&gt;Node7</title>
<g id="a_edge6_Node000001_Node000007"><a xlink:title=" ">
<path fill="none" stroke="#63b8ff" d="M388.97,-497.12C391.44,-553.85 406.7,-719.36 500,-803.5 510.37,-812.85 524.4,-817.88 537.96,-820.5"/>
<polygon fill="#63b8ff" stroke="#63b8ff" points="392.46,-496.88 388.62,-487.01 385.47,-497.12 392.46,-496.88"/>
</a>
</g>
</g>
<!-- Node8 -->
<g id="Node000008" class="node">
<title>Node8</title>
<g id="a_Node000008"><a xlink:href="class_cpl_1_1_dm_1_1_t_shell_1_1_dm.html" target="_top" xlink:title="This class implements a TShell command.">
<polygon fill="white" stroke="#666666" points="641,-795 526,-795 526,-776 641,-776 641,-795"/>
<text text-anchor="middle" x="583.5" y="-783" font-family="Helvetica,sans-Serif" font-size="10.00">Cpl::Dm::TShell::Dm</text>
</a>
</g>
</g>
<!-- Node1&#45;&gt;Node8 -->
<g id="edge7_Node000001_Node000008" class="edge">
<title>Node1&#45;&gt;Node8</title>
<g id="a_edge7_Node000001_Node000008"><a xlink:title=" ">
<path fill="none" stroke="#63b8ff" d="M389.96,-497.3C394.93,-549.82 415.96,-693.61 500,-766.5 507.33,-772.86 516.36,-777.2 525.73,-780.14"/>
<polygon fill="#63b8ff" stroke="#63b8ff" points="393.42,-496.69 389.08,-487.02 386.44,-497.28 393.42,-496.69"/>
</a>
</g>
</g>
<!-- Node9 -->
<g id="Node000009" class="node">
<title>Node9</title>
<g id="a_Node000009"><a xlink:href="class_cpl_1_1_io_1_1_file_1_1_littlefs_1_1_t_shell_1_1_fs.html" target="_top" xlink:title="This class implements a TShell command for various file system commands for a system that is using a ...">
<polygon fill="white" stroke="#666666" points="638.5,-757.5 528.5,-757.5 528.5,-727.5 638.5,-727.5 638.5,-757.5"/>
<text text-anchor="start" x="536.5" y="-745.5" font-family="Helvetica,sans-Serif" font-size="10.00">Cpl::Io::File::Littlefs</text>
<text text-anchor="middle" x="583.5" y="-734.5" font-family="Helvetica,sans-Serif" font-size="10.00">::TShell::Fs</text>
</a>
</g>
</g>
<!-- Node1&#45;&gt;Node9 -->
<g id="edge8_Node000001_Node000009" class="edge">
<title>Node1&#45;&gt;Node9</title>
<g id="a_edge8_Node000001_Node000009"><a xlink:title=" ">
<path fill="none" stroke="#63b8ff" d="M392.02,-497.32C401.19,-543.08 430.14,-656.83 500,-717.5 508.02,-724.47 517.94,-729.49 528.09,-733.12"/>
<polygon fill="#63b8ff" stroke="#63b8ff" points="395.45,-496.62 390.14,-487.45 388.57,-497.93 395.45,-496.62"/>
</a>
</g>
</g>
<!-- Node10 -->
<g id="Node000010" class="node">
<title>Node10</title>
<g id="a_Node000010"><a xlink:href="class_cpl_1_1_logging_1_1_t_shell_1_1_log.html" target="_top" xlink:title="This class implements a TShell command that operates on the persistently store &quot;log file&quot;.">
<polygon fill="white" stroke="#666666" points="651.5,-709 515.5,-709 515.5,-690 651.5,-690 651.5,-709"/>
<text text-anchor="middle" x="583.5" y="-697" font-family="Helvetica,sans-Serif" font-size="10.00">Cpl::Logging::TShell::Log</text>
</a>
</g>
</g>
<!-- Node1&#45;&gt;Node10 -->
<g id="edge9_Node000001_Node000010" class="edge">
<title>Node1&#45;&gt;Node10</title>
<g id="a_edge9_Node000001_Node000010"><a xlink:title=" ">
<path fill="none" stroke="#63b8ff" d="M393.48,-497.3C404.87,-538.32 436.84,-632.74 500,-680.5 505.04,-684.31 510.72,-687.38 516.67,-689.84"/>
<polygon fill="#63b8ff" stroke="#63b8ff" points="396.81,-496.21 390.86,-487.44 390.05,-498 396.81,-496.21"/>
</a>
</g>
</g>
<!-- Node11 -->
<g id="Node000011" class="node">
<title>Node11</title>
<g id="a_Node000011"><a xlink:href="class_cpl_1_1_m_app_1_1_cmd.html" target="_top" xlink:title="The class implements a TShell command that interacts with the MApp Manager to start,...">
<polygon fill="white" stroke="#666666" points="631,-672 536,-672 536,-653 631,-653 631,-672"/>
<text text-anchor="middle" x="583.5" y="-660" font-family="Helvetica,sans-Serif" font-size="10.00">Cpl::MApp::Cmd</text>
</a>
</g>
</g>
<!-- Node1&#45;&gt;Node11 -->
<g id="edge10_Node000001_Node000011" class="edge">
<title>Node1&#45;&gt;Node11</title>
<g id="a_edge10_Node000001_Node000011"><a xlink:title=" ">
<path fill="none" stroke="#63b8ff" d="M395.8,-496.78C410.11,-531.83 445.32,-605.86 500,-643.5 510.53,-650.75 523.44,-655.27 535.88,-658.07"/>
<polygon fill="#63b8ff" stroke="#63b8ff" points="398.96,-495.25 392.03,-487.23 392.45,-497.82 398.96,-495.25"/>
</a>
</g>
</g>
<!-- Node12 -->
<g id="Node000012" class="node">
<title>Node12</title>
<g id="a_Node000012"><a xlink:href="class_cpl_1_1_t_shell_1_1_cmd_1_1_arduino_1_1_dbg.html" target="_top" xlink:title="This class implements a DAC Shell command.">
<polygon fill="white" stroke="#666666" points="666.5,-635 500.5,-635 500.5,-616 666.5,-616 666.5,-635"/>
<text text-anchor="middle" x="583.5" y="-623" font-family="Helvetica,sans-Serif" font-size="10.00">Cpl::TShell::Cmd::Arduino::Dbg</text>
</a>
</g>
</g>
<!-- Node1&#45;&gt;Node12 -->
<g id="edge11_Node000001_Node000012" class="edge">
<title>Node1&#45;&gt;Node12</title>
<g id="a_edge11_Node000001_Node000012"><a xlink:title=" ">
<path fill="none" stroke="#63b8ff" d="M399.1,-495.99C416.41,-524.42 453.5,-578.49 500,-606.5 506.42,-610.37 513.56,-613.45 520.87,-615.9"/>
<polygon fill="#63b8ff" stroke="#63b8ff" points="401.94,-493.91 393.82,-487.09 395.91,-497.48 401.94,-493.91"/>
</a>
</g>
</g>
<!-- Node13 -->
<g id="Node000013" class="node">
<title>Node13</title>
<g id="a_Node000013"><a xlink:href="class_cpl_1_1_t_shell_1_1_cmd_1_1_bye.html" target="_top" xlink:title="This class implements a Shell command.">
<polygon fill="white" stroke="#666666" points="644.5,-598 522.5,-598 522.5,-579 644.5,-579 644.5,-598"/>
<text text-anchor="middle" x="583.5" y="-586" font-family="Helvetica,sans-Serif" font-size="10.00">Cpl::TShell::Cmd::Bye</text>
</a>
</g>
</g>
<!-- Node1&#45;&gt;Node13 -->
<g id="edge12_Node000001_Node000013" class="edge">
<title>Node1&#45;&gt;Node13</title>
<g id="a_edge12_Node000001_Node000013"><a xlink:title=" ">
<path fill="none" stroke="#63b8ff" d="M404.39,-494.82C424.58,-515.74 461.45,-550.49 500,-569.5 507.78,-573.34 516.35,-576.41 524.94,-578.88"/>
<polygon fill="#63b8ff" stroke="#63b8ff" points="406.68,-492.15 397.27,-487.29 401.6,-496.96 406.68,-492.15"/>
</a>
</g>
</g>
<!-- Node14 -->
<g id="Node000014" class="node">
<title>Node14</title>
<g id="a_Node000014"><a xlink:href="class_cpl_1_1_t_shell_1_1_cmd_1_1_help.html" target="_top" xlink:title="This class implements a Shell command.">
<polygon fill="white" stroke="#666666" points="646,-561 521,-561 521,-542 646,-542 646,-561"/>
<text text-anchor="middle" x="583.5" y="-549" font-family="Helvetica,sans-Serif" font-size="10.00">Cpl::TShell::Cmd::Help</text>
</a>
</g>
</g>
<!-- Node1&#45;&gt;Node14 -->
<g id="edge13_Node000001_Node000014" class="edge">
<title>Node1&#45;&gt;Node14</title>
<g id="a_edge13_Node000001_Node000014"><a xlink:title=" ">
<path fill="none" stroke="#63b8ff" d="M413.73,-492.06C435.86,-504.31 469.22,-521.53 500,-532.5 510.38,-536.2 521.76,-539.36 532.67,-541.99"/>
<polygon fill="#63b8ff" stroke="#63b8ff" points="415.4,-488.98 404.97,-487.14 411.98,-495.09 415.4,-488.98"/>
</a>
</g>
</g>
<!-- Node15 -->
<g id="Node000015" class="node">
<title>Node15</title>
<g id="a_Node000015"><a xlink:href="class_cpl_1_1_t_shell_1_1_cmd_1_1_t_print.html" target="_top" xlink:title="This class implements a Shell command.">
<polygon fill="white" stroke="#666666" points="649,-524 518,-524 518,-505 649,-505 649,-524"/>
<text text-anchor="middle" x="583.5" y="-512" font-family="Helvetica,sans-Serif" font-size="10.00">Cpl::TShell::Cmd::TPrint</text>
</a>
</g>
</g>
<!-- Node1&#45;&gt;Node15 -->
<g id="edge14_Node000001_Node000015" class="edge">
<title>Node1&#45;&gt;Node15</title>
<g id="a_edge14_Node000001_Node000015"><a xlink:title=" ">
<path fill="none" stroke="#63b8ff" d="M448.53,-488.95C475.42,-494.08 506.76,-500.06 532.37,-504.94"/>
<polygon fill="#63b8ff" stroke="#63b8ff" points="448.94,-485.46 438.46,-487.03 447.63,-492.34 448.94,-485.46"/>
</a>
</g>
</g>
<!-- Node16 -->
<g id="Node000016" class="node">
<title>Node16</title>
<g id="a_Node000016"><a xlink:href="class_cpl_1_1_t_shell_1_1_cmd_1_1_threads.html" target="_top" xlink:title="This class implements a Shell command.">
<polygon fill="white" stroke="#666666" points="654.5,-487 512.5,-487 512.5,-468 654.5,-468 654.5,-487"/>
<text text-anchor="middle" x="583.5" y="-475" font-family="Helvetica,sans-Serif" font-size="10.00">Cpl::TShell::Cmd::Threads</text>
</a>
</g>
</g>
<!-- Node1&#45;&gt;Node16 -->
<g id="edge15_Node000001_Node000016" class="edge">
<title>Node1&#45;&gt;Node16</title>
<g id="a_edge15_Node000001_Node000016"><a xlink:title=" ">
<path fill="none" stroke="#63b8ff" d="M474.18,-477.5C486.9,-477.5 499.87,-477.5 512.22,-477.5"/>
<polygon fill="#63b8ff" stroke="#63b8ff" points="474.06,-474 464.06,-477.5 474.06,-481 474.06,-474"/>
</a>
</g>
</g>
<!-- Node19 -->
<g id="Node000019" class="node">
<title>Node19</title>
<g id="a_Node000019"><a xlink:href="class_cpl_1_1_t_shell_1_1_cmd_1_1_tick.html" target="_top" xlink:title="This class implements a Shell command.">
<polygon fill="white" stroke="#666666" points="645,-450 522,-450 522,-431 645,-431 645,-450"/>
<text text-anchor="middle" x="583.5" y="-438" font-family="Helvetica,sans-Serif" font-size="10.00">Cpl::TShell::Cmd::Tick</text>
</a>
</g>
</g>
<!-- Node1&#45;&gt;Node19 -->
<g id="edge18_Node000001_Node000019" class="edge">
<title>Node1&#45;&gt;Node19</title>
<g id="a_edge18_Node000001_Node000019"><a xlink:title=" ">
<path fill="none" stroke="#63b8ff" d="M448.53,-466.05C475.42,-460.92 506.76,-454.94 532.37,-450.06"/>
<polygon fill="#63b8ff" stroke="#63b8ff" points="447.63,-462.66 438.46,-467.97 448.94,-469.54 447.63,-462.66"/>
</a>
</g>
</g>
<!-- Node20 -->
<g id="Node000020" class="node">
<title>Node20</title>
<g id="a_Node000020"><a xlink:href="class_cpl_1_1_t_shell_1_1_cmd_1_1_trace.html" target="_top" xlink:title="This class implements a Shell command.">
<polygon fill="white" stroke="#666666" points="647.5,-413 519.5,-413 519.5,-394 647.5,-394 647.5,-413"/>
<text text-anchor="middle" x="583.5" y="-401" font-family="Helvetica,sans-Serif" font-size="10.00">Cpl::TShell::Cmd::Trace</text>
</a>
</g>
</g>
<!-- Node1&#45;&gt;Node20 -->
<g id="edge19_Node000001_Node000020" class="edge">
<title>Node1&#45;&gt;Node20</title>
<g id="a_edge19_Node000001_Node000020"><a xlink:title=" ">
<path fill="none" stroke="#63b8ff" d="M413.28,-462.78C435.36,-450.23 468.91,-432.5 500,-421.5 509.26,-418.22 519.32,-415.43 529.14,-413.09"/>
<polygon fill="#63b8ff" stroke="#63b8ff" points="411.47,-459.79 404.55,-467.81 414.97,-465.85 411.47,-459.79"/>
</a>
</g>
</g>
<!-- Node21 -->
<g id="Node000021" class="node">
<title>Node21</title>
<g id="a_Node000021"><a xlink:href="class_cpl_1_1_t_shell_1_1_cmd_1_1_user.html" target="_top" xlink:title="This class implements a Shell command.">
<polygon fill="white" stroke="#666666" points="646,-376 521,-376 521,-357 646,-357 646,-376"/>
<text text-anchor="middle" x="583.5" y="-364" font-family="Helvetica,sans-Serif" font-size="10.00">Cpl::TShell::Cmd::User</text>
</a>
</g>
</g>
<!-- Node1&#45;&gt;Node21 -->
<g id="edge20_Node000001_Node000021" class="edge">
<title>Node1&#45;&gt;Node21</title>
<g id="a_edge20_Node000001_Node000021"><a xlink:title=" ">
<path fill="none" stroke="#63b8ff" d="M404,-460.24C424.05,-439.05 461.02,-403.57 500,-384.5 506.98,-381.09 514.6,-378.31 522.31,-376.06"/>
<polygon fill="#63b8ff" stroke="#63b8ff" points="401.18,-458.14 396.95,-467.85 406.32,-462.9 401.18,-458.14"/>
</a>
</g>
</g>
<!-- Node22 -->
<g id="Node000022" class="node">
<title>Node22</title>
<g id="a_Node000022"><a xlink:href="class_cpl_1_1_t_shell_1_1_cmd_1_1_wait.html" target="_top" xlink:title="This class implements a Shell command.">
<polygon fill="white" stroke="#666666" points="646,-339 521,-339 521,-320 646,-320 646,-339"/>
<text text-anchor="middle" x="583.5" y="-327" font-family="Helvetica,sans-Serif" font-size="10.00">Cpl::TShell::Cmd::Wait</text>
</a>
</g>
</g>
<!-- Node1&#45;&gt;Node22 -->
<g id="edge21_Node000001_Node000022" class="edge">
<title>Node1&#45;&gt;Node22</title>
<g id="a_edge21_Node000001_Node000022"><a xlink:title=" ">
<path fill="none" stroke="#63b8ff" d="M399.03,-458.8C416.23,-430.07 453.19,-375.46 500,-347.5 506.42,-343.67 513.55,-340.65 520.87,-338.27"/>
<polygon fill="#63b8ff" stroke="#63b8ff" points="395.79,-457.4 393.78,-467.8 401.84,-460.92 395.79,-457.4"/>
</a>
</g>
</g>
<!-- Node23 -->
<g id="Node000023" class="node">
<title>Node23</title>
<g id="a_Node000023"><a xlink:href="class_driver_1_1_crypto_1_1_t_shell_1_1_random.html" target="_top" xlink:title="This class implements a Shell command.">
<polygon fill="white" stroke="#666666" points="644,-301.5 523,-301.5 523,-271.5 644,-271.5 644,-301.5"/>
<text text-anchor="start" x="531" y="-289.5" font-family="Helvetica,sans-Serif" font-size="10.00">Driver::Crypto::TShell</text>
<text text-anchor="middle" x="583.5" y="-278.5" font-family="Helvetica,sans-Serif" font-size="10.00">::Random</text>
</a>
</g>
</g>
<!-- Node1&#45;&gt;Node23 -->
<g id="edge22_Node000001_Node000023" class="edge">
<title>Node1&#45;&gt;Node23</title>
<g id="a_edge22_Node000001_Node000023"><a xlink:title=" ">
<path fill="none" stroke="#63b8ff" d="M395.98,-458.4C410.58,-423.62 446.24,-349.91 500,-310.5 506.86,-305.47 514.75,-301.49 522.88,-298.35"/>
<polygon fill="#63b8ff" stroke="#63b8ff" points="392.65,-457.28 392.13,-467.87 399.14,-459.92 392.65,-457.28"/>
</a>
</g>
</g>
<!-- Node24 -->
<g id="Node000024" class="node">
<title>Node24</title>
<g id="a_Node000024"><a xlink:href="class_driver_1_1_d_i_o_1_1_in_out_cmd.html" target="_top" xlink:title="This class implements a TShell command that exercises the RH/Temp driver.">
<polygon fill="white" stroke="#666666" points="646,-253 521,-253 521,-234 646,-234 646,-253"/>
<text text-anchor="middle" x="583.5" y="-241" font-family="Helvetica,sans-Serif" font-size="10.00">Driver::DIO::InOutCmd</text>
</a>
</g>
</g>
<!-- Node1&#45;&gt;Node24 -->
<g id="edge23_Node000001_Node000024" class="edge">
<title>Node1&#45;&gt;Node24</title>
<g id="a_edge23_Node000001_Node000024"><a xlink:title=" ">
<path fill="none" stroke="#63b8ff" d="M392.75,-458.02C403.11,-415.45 433.8,-313.81 500,-262.5 506.16,-257.73 513.3,-254.12 520.76,-251.39"/>
<polygon fill="#63b8ff" stroke="#63b8ff" points="389.3,-457.41 390.45,-467.94 396.12,-458.99 389.3,-457.41"/>
</a>
</g>
</g>
<!-- Node25 -->
<g id="Node000025" class="node">
<title>Node25</title>
<g id="a_Node000025"><a xlink:href="class_driver_1_1_n_v_1_1_cmd.html" target="_top" xlink:title="This class implements a TShell command that tests/directly&#45;operates on the NV media.">
<polygon fill="white" stroke="#666666" points="631,-216 536,-216 536,-197 631,-197 631,-216"/>
<text text-anchor="middle" x="583.5" y="-204" font-family="Helvetica,sans-Serif" font-size="10.00">Driver::NV::Cmd</text>
</a>
</g>
</g>
<!-- Node1&#45;&gt;Node25 -->
<g id="edge24_Node000001_Node000025" class="edge">
<title>Node1&#45;&gt;Node25</title>
<g id="a_edge24_Node000001_Node000025"><a xlink:title=" ">
<path fill="none" stroke="#63b8ff" d="M391.08,-457.86C398.48,-409.93 424.31,-286.37 500,-224.5 510.1,-216.24 523.15,-211.55 535.88,-208.94"/>
<polygon fill="#63b8ff" stroke="#63b8ff" points="387.61,-457.47 389.64,-467.86 394.53,-458.46 387.61,-457.47"/>
</a>
</g>
</g>
<!-- Node26 -->
<g id="Node000026" class="node">
<title>Node26</title>
<g id="a_Node000026"><a xlink:href="class_driver_1_1_r_h_temp_1_1_t_shell_cmd.html" target="_top" xlink:title="This class implements a TShell command that exercises the RH/Temp driver.">
<polygon fill="white" stroke="#666666" points="659.5,-179 507.5,-179 507.5,-160 659.5,-160 659.5,-179"/>
<text text-anchor="middle" x="583.5" y="-167" font-family="Helvetica,sans-Serif" font-size="10.00">Driver::RHTemp::TShellCmd</text>
</a>
</g>
</g>
<!-- Node1&#45;&gt;Node26 -->
<g id="edge25_Node000001_Node000026" class="edge">
<title>Node1&#45;&gt;Node26</title>
<g id="a_edge25_Node000001_Node000026"><a xlink:title=" ">
<path fill="none" stroke="#63b8ff" d="M389.86,-457.91C394.61,-405.35 415.15,-260.32 500,-187.5 503.89,-184.16 508.26,-181.39 512.91,-179.11"/>
<polygon fill="#63b8ff" stroke="#63b8ff" points="386.37,-457.67 389.05,-467.92 393.34,-458.23 386.37,-457.67"/>
</a>
</g>
</g>
<!-- Node27 -->
<g id="Node000027" class="node">
<title>Node27</title>
<g id="a_Node000027"><a xlink:href="class_driver_1_1_wifi_1_1_station_1_1_t_shell_1_1_wifi.html" target="_top" xlink:title="This class implements a TShell command.">
<polygon fill="white" stroke="#666666" points="639.5,-141.5 527.5,-141.5 527.5,-111.5 639.5,-111.5 639.5,-141.5"/>
<text text-anchor="start" x="535.5" y="-129.5" font-family="Helvetica,sans-Serif" font-size="10.00">Driver::Wifi::Station</text>
<text text-anchor="middle" x="583.5" y="-118.5" font-family="Helvetica,sans-Serif" font-size="10.00">::TShell::Wifi</text>
</a>
</g>
</g>
<!-- Node1&#45;&gt;Node27 -->
<g id="edge26_Node000001_Node000027" class="edge">
<title>Node1&#45;&gt;Node27</title>
<g id="a_edge26_Node000001_Node000027"><a xlink:title=" ">
<path fill="none" stroke="#63b8ff" d="M389.2,-457.7C392.31,-401.13 409.12,-237.34 500,-150.5 507.55,-143.29 517.14,-138.22 527.09,-134.67"/>
<polygon fill="#63b8ff" stroke="#63b8ff" points="385.7,-457.65 388.74,-467.8 392.7,-457.97 385.7,-457.65"/>
</a>
</g>
</g>
<!-- Node28 -->
<g id="Node000028" class="node">
<title>Node28</title>
<g id="a_Node000028"><a xlink:href="class_eros_1_1_t_shell_1_1_hw_safety.html" target="_top" xlink:title="This class implements a TShell command to verify the PWM signals on the board.">
<polygon fill="white" stroke="#666666" points="647,-93 520,-93 520,-74 647,-74 647,-93"/>
<text text-anchor="middle" x="583.5" y="-81" font-family="Helvetica,sans-Serif" font-size="10.00">Eros::TShell::HwSafety</text>
</a>
</g>
</g>
<!-- Node1&#45;&gt;Node28 -->
<g id="edge27_Node000001_Node000028" class="edge">
<title>Node1&#45;&gt;Node28</title>
<g id="a_edge27_Node000001_Node000028"><a xlink:title=" ">
<path fill="none" stroke="#63b8ff" d="M387.96,-457.9C387.37,-395.79 394.43,-201.65 500,-102.5 505.68,-97.17 512.54,-93.23 519.86,-90.33"/>
<polygon fill="#63b8ff" stroke="#63b8ff" points="384.46,-457.97 388.13,-467.9 391.46,-457.84 384.46,-457.97"/>
</a>
</g>
</g>
<!-- Node29 -->
<g id="Node000029" class="node">
<title>Node29</title>
<g id="a_Node000029"><a xlink:href="class_eros_1_1_t_shell_1_1_pwm.html" target="_top" xlink:title="This class implements a TShell command to verify the PWM signals on the board.">
<polygon fill="white" stroke="#666666" points="635.5,-56 531.5,-56 531.5,-37 635.5,-37 635.5,-56"/>
<text text-anchor="middle" x="583.5" y="-44" font-family="Helvetica,sans-Serif" font-size="10.00">Eros::TShell::Pwm</text>
</a>
</g>
</g>
<!-- Node1&#45;&gt;Node29 -->
<g id="edge28_Node000001_Node000029" class="edge">
<title>Node1&#45;&gt;Node29</title>
<g id="a_edge28_Node000001_Node000029"><a xlink:title=" ">
<path fill="none" stroke="#63b8ff" d="M391.15,-457.42C401.45,-382.46 441.16,-120.53 500,-64.5 508.49,-56.41 519.73,-51.62 531.18,-48.86"/>
<polygon fill="#63b8ff" stroke="#63b8ff" points="387.62,-457.4 389.75,-467.78 394.56,-458.34 387.62,-457.4"/>
</a>
</g>
</g>
<!-- Node30 -->
<g id="Node000030" class="node">
<title>Node30</title>
<g id="a_Node000030"><a xlink:href="class_eros_1_1_t_shell_1_1_rgb.html" target="_top" xlink:title="This class implements a TShell command to verify the operation of the RGB LED on the display board.">
<polygon fill="white" stroke="#666666" points="632.5,-19 534.5,-19 534.5,0 632.5,0 632.5,-19"/>
<text text-anchor="middle" x="583.5" y="-7" font-family="Helvetica,sans-Serif" font-size="10.00">Eros::TShell::Rgb</text>
</a>
</g>
</g>
<!-- Node1&#45;&gt;Node30 -->
<g id="edge29_Node000001_Node000030" class="edge">
<title>Node1&#45;&gt;Node30</title>
<g id="a_edge29_Node000001_Node000030"><a xlink:title=" ">
<path fill="none" stroke="#63b8ff" d="M390.65,-457.67C399.59,-378.89 436.34,-89.4 500,-27.5 509.25,-18.51 521.89,-13.57 534.49,-10.96"/>
<polygon fill="#63b8ff" stroke="#63b8ff" points="387.16,-457.38 389.53,-467.71 394.12,-458.16 387.16,-457.38"/>
</a>
</g>
</g>
<!-- Node2 -->
<g id="Node000002" class="node">
<title>Node2</title>
<g id="a_Node000002"><a xlink:href="class_cpl_1_1_t_shell_1_1_command.html" target="_top" xlink:title="This class defines the interface for a TShell command.">
<polygon fill="white" stroke="#666666" points="275,-487 150,-487 150,-468 275,-468 275,-487"/>
<text text-anchor="middle" x="212.5" y="-475" font-family="Helvetica,sans-Serif" font-size="10.00">Cpl::TShell::Command</text>
</a>
</g>
</g>
<!-- Node2&#45;&gt;Node1 -->
<g id="edge1_Node000001_Node000002" class="edge">
<title>Node2&#45;&gt;Node1</title>
<g id="a_edge1_Node000001_Node000002"><a xlink:title=" ">
<path fill="none" stroke="#63b8ff" d="M285.52,-477.5C293.86,-477.5 302.38,-477.5 310.77,-477.5"/>
<polygon fill="#63b8ff" stroke="#63b8ff" points="285.47,-474 275.47,-477.5 285.47,-481 285.47,-474"/>
</a>
</g>
</g>
<!-- Node3 -->
<g id="Node000003" class="node">
<title>Node3</title>
<g id="a_Node000003"><a xlink:href="class_cpl_1_1_container_1_1_item.html" target="_top" xlink:title="This class is used by the Container classes to implement a various types of singly linked containers.">
<polygon fill="white" stroke="#666666" points="114,-487 0,-487 0,-468 114,-468 114,-487"/>
<text text-anchor="middle" x="57" y="-475" font-family="Helvetica,sans-Serif" font-size="10.00">Cpl::Container::Item</text>
</a>
</g>
</g>
<!-- Node3&#45;&gt;Node2 -->
<g id="edge2_Node000002_Node000003" class="edge">
<title>Node3&#45;&gt;Node2</title>
<g id="a_edge2_Node000002_Node000003"><a xlink:title=" ">
<path fill="none" stroke="#63b8ff" d="M124.44,-477.5C132.86,-477.5 141.45,-477.5 149.79,-477.5"/>
<polygon fill="#63b8ff" stroke="#63b8ff" points="124.29,-474 114.29,-477.5 124.29,-481 124.29,-474"/>
</a>
</g>
</g>
<!-- Node17 -->
<g id="Node000017" class="node">
<title>Node17</title>
<g id="a_Node000017"><a xlink:href="class_cpl_1_1_t_shell_1_1_cmd_1_1_free_r_t_o_s_1_1_threads.html" target="_top" xlink:title="This class implements a TShell command.">
<polygon fill="white" stroke="#666666" points="852,-516.5 703,-516.5 703,-486.5 852,-486.5 852,-516.5"/>
<text text-anchor="start" x="711" y="-504.5" font-family="Helvetica,sans-Serif" font-size="10.00">Cpl::TShell::Cmd::FreeRTOS</text>
<text text-anchor="middle" x="777.5" y="-493.5" font-family="Helvetica,sans-Serif" font-size="10.00">::Threads</text>
</a>
</g>
</g>
<!-- Node16&#45;&gt;Node17 -->
<g id="edge16_Node000016_Node000017" class="edge">
<title>Node16&#45;&gt;Node17</title>
<g id="a_edge16_Node000016_Node000017"><a xlink:title=" ">
<path fill="none" stroke="#63b8ff" d="M664.64,-487.52C677.25,-489.09 690.23,-490.72 702.69,-492.27"/>
<polygon fill="#63b8ff" stroke="#63b8ff" points="664.99,-484.03 654.63,-486.27 664.12,-490.98 664.99,-484.03"/>
</a>
</g>
</g>
<!-- Node18 -->
<g id="Node000018" class="node">
<title>Node18</title>
<g id="a_Node000018"><a xlink:href="class_cpl_1_1_t_shell_1_1_cmd_1_1_win32_1_1_threads.html" target="_top" xlink:title="This class implements a TShell command.">
<polygon fill="white" stroke="#666666" points="844.5,-468.5 710.5,-468.5 710.5,-438.5 844.5,-438.5 844.5,-468.5"/>
<text text-anchor="start" x="718.5" y="-456.5" font-family="Helvetica,sans-Serif" font-size="10.00">Cpl::TShell::Cmd::Win32</text>
<text text-anchor="middle" x="777.5" y="-445.5" font-family="Helvetica,sans-Serif" font-size="10.00">::Threads</text>
</a>
</g>
</g>
<!-- Node16&#45;&gt;Node18 -->
<g id="edge17_Node000016_Node000018" class="edge">
<title>Node16&#45;&gt;Node18</title>
<g id="a_edge17_Node000016_Node000018"><a xlink:title=" ">
<path fill="none" stroke="#63b8ff" d="M664.56,-467.49C679.82,-465.59 695.63,-463.61 710.39,-461.76"/>
<polygon fill="#63b8ff" stroke="#63b8ff" points="664.12,-464.02 654.63,-468.73 664.99,-470.97 664.12,-464.02"/>
</a>
</g>
</g>
</g>
</svg>
