<?xml version="1.0" encoding="UTF-8" standalone="no"?>
<!DOCTYPE svg PUBLIC "-//W3C//DTD SVG 1.1//EN"
 "http://www.w3.org/Graphics/SVG/1.1/DTD/svg11.dtd">
<!-- Generated by graphviz version 9.0.0 (20230911.1827)
 -->
<!-- Title: Ajax::ScreenMgr::Api Pages: 1 -->
<svg width="425pt" height="193pt"
 viewBox="0.00 0.00 424.75 193.00" xmlns="http://www.w3.org/2000/svg" xmlns:xlink="http://www.w3.org/1999/xlink">
<g id="graph0" class="graph" transform="scale(1 1) rotate(0) translate(4 189)">
<title>Ajax::ScreenMgr::Api</title>
<!-- Node1 -->
<g id="Node000001" class="node">
<title>Node1</title>
<g id="a_Node000001"><a xlink:title="This class implements the Screen Manager.">
<polygon fill="#999999" stroke="#666666" points="332.62,-19.25 227.38,-19.25 227.38,0 332.62,0 332.62,-19.25"/>
<text text-anchor="middle" x="280" y="-5.75" font-family="Helvetica,sans-Serif" font-size="10.00">Ajax::ScreenMgr::Api</text>
</a>
</g>
</g>
<!-- Node2 -->
<g id="Node000002" class="node">
<title>Node2</title>
<g id="a_Node000002"><a xlink:href="class_cpl_1_1_itc_1_1_close_sync.html" target="_top" xlink:title="This partially concrete class implements the synchronous ITC close call for the CloseApi.">
<polygon fill="white" stroke="#666666" points="261.5,-74.5 164.5,-74.5 164.5,-55.25 261.5,-55.25 261.5,-74.5"/>
<text text-anchor="middle" x="213" y="-61" font-family="Helvetica,sans-Serif" font-size="10.00">Cpl::Itc::CloseSync</text>
</a>
</g>
</g>
<!-- Node2&#45;&gt;Node1 -->
<g id="edge1_Node000001_Node000002" class="edge">
<title>Node2&#45;&gt;Node1</title>
<g id="a_edge1_Node000001_Node000002"><a xlink:title=" ">
<path fill="none" stroke="#63b8ff" d="M233.05,-47.94C244.75,-38.64 259.07,-27.26 268.8,-19.52"/>
<polygon fill="#63b8ff" stroke="#63b8ff" points="231.2,-44.94 225.55,-53.9 235.56,-50.42 231.2,-44.94"/>
</a>
</g>
</g>
<!-- Node3 -->
<g id="Node000003" class="node">
<title>Node3</title>
<g id="a_Node000003"><a xlink:href="class_cpl_1_1_itc_1_1_open_sync.html" target="_top" xlink:title="This partially concrete class implements the synchronous ITC open call for the OpenApi.">
<polygon fill="white" stroke="#666666" points="149.75,-129.75 54.25,-129.75 54.25,-110.5 149.75,-110.5 149.75,-129.75"/>
<text text-anchor="middle" x="102" y="-116.25" font-family="Helvetica,sans-Serif" font-size="10.00">Cpl::Itc::OpenSync</text>
</a>
</g>
</g>
<!-- Node3&#45;&gt;Node2 -->
<g id="edge2_Node000002_Node000003" class="edge">
<title>Node3&#45;&gt;Node2</title>
<g id="a_edge2_Node000002_Node000003"><a xlink:title=" ">
<path fill="none" stroke="#63b8ff" d="M131.18,-105.12C151.07,-95.58 176.83,-83.23 194.08,-74.95"/>
<polygon fill="#63b8ff" stroke="#63b8ff" points="129.7,-101.96 122.19,-109.44 132.72,-108.27 129.7,-101.96"/>
</a>
</g>
</g>
<!-- Node4 -->
<g id="Node000004" class="node">
<title>Node4</title>
<g id="a_Node000004"><a xlink:href="class_cpl_1_1_itc_1_1_open_api.html" target="_top" xlink:title="This abstract class defines an open interface.">
<polygon fill="white" stroke="#666666" points="88,-185 0,-185 0,-165.75 88,-165.75 88,-185"/>
<text text-anchor="middle" x="44" y="-171.5" font-family="Helvetica,sans-Serif" font-size="10.00">Cpl::Itc::OpenApi</text>
</a>
</g>
</g>
<!-- Node4&#45;&gt;Node3 -->
<g id="edge3_Node000003_Node000004" class="edge">
<title>Node4&#45;&gt;Node3</title>
<g id="a_edge3_Node000003_Node000004"><a xlink:title=" ">
<path fill="none" stroke="#63b8ff" d="M62.26,-157.61C72.22,-148.47 84.14,-137.53 92.31,-130.02"/>
<polygon fill="#63b8ff" stroke="#63b8ff" points="59.95,-154.98 54.95,-164.32 64.69,-160.13 59.95,-154.98"/>
</a>
</g>
</g>
<!-- Node5 -->
<g id="Node000005" class="node">
<title>Node5</title>
<g id="a_Node000005"><a xlink:href="class_cpl_1_1_itc_1_1_open_request.html" target="_top" xlink:title="This abstract class define message types and payloads for a set of ITC services.">
<polygon fill="white" stroke="#666666" points="215.88,-185 106.12,-185 106.12,-165.75 215.88,-165.75 215.88,-185"/>
<text text-anchor="middle" x="161" y="-171.5" font-family="Helvetica,sans-Serif" font-size="10.00">Cpl::Itc::OpenRequest</text>
</a>
</g>
</g>
<!-- Node5&#45;&gt;Node3 -->
<g id="edge4_Node000003_Node000005" class="edge">
<title>Node5&#45;&gt;Node3</title>
<g id="a_edge4_Node000003_Node000005"><a xlink:title=" ">
<path fill="none" stroke="#63b8ff" d="M142.73,-157.89C132.54,-148.69 120.26,-137.6 111.86,-130.02"/>
<polygon fill="#63b8ff" stroke="#63b8ff" points="140.1,-160.23 149.87,-164.33 144.79,-155.03 140.1,-160.23"/>
</a>
</g>
</g>
<!-- Node6 -->
<g id="Node000006" class="node">
<title>Node6</title>
<g id="a_Node000006"><a xlink:href="class_cpl_1_1_itc_1_1_close_api.html" target="_top" xlink:title="This abstract class defines an close interface.">
<polygon fill="white" stroke="#666666" points="257.75,-129.75 168.25,-129.75 168.25,-110.5 257.75,-110.5 257.75,-129.75"/>
<text text-anchor="middle" x="213" y="-116.25" font-family="Helvetica,sans-Serif" font-size="10.00">Cpl::Itc::CloseApi</text>
</a>
</g>
</g>
<!-- Node6&#45;&gt;Node2 -->
<g id="edge5_Node000002_Node000006" class="edge">
<title>Node6&#45;&gt;Node2</title>
<g id="a_edge5_Node000002_Node000006"><a xlink:title=" ">
<path fill="none" stroke="#63b8ff" d="M213,-98.88C213,-90.59 213,-81.42 213,-74.86"/>
<polygon fill="#63b8ff" stroke="#63b8ff" points="209.5,-98.82 213,-108.82 216.5,-98.82 209.5,-98.82"/>
</a>
</g>
</g>
<!-- Node7 -->
<g id="Node000007" class="node">
<title>Node7</title>
<g id="a_Node000007"><a xlink:href="class_cpl_1_1_itc_1_1_close_request.html" target="_top" xlink:title="This abstract class define message types and payloads for a set of ITC services.">
<polygon fill="white" stroke="#666666" points="386.62,-129.75 275.38,-129.75 275.38,-110.5 386.62,-110.5 386.62,-129.75"/>
<text text-anchor="middle" x="331" y="-116.25" font-family="Helvetica,sans-Serif" font-size="10.00">Cpl::Itc::CloseRequest</text>
</a>
</g>
</g>
<!-- Node7&#45;&gt;Node2 -->
<g id="edge6_Node000002_Node000007" class="edge">
<title>Node7&#45;&gt;Node2</title>
<g id="a_edge6_Node000002_Node000007"><a xlink:title=" ">
<path fill="none" stroke="#63b8ff" d="M300.56,-105.39C279.34,-95.81 251.63,-83.31 233.12,-74.95"/>
<polygon fill="#63b8ff" stroke="#63b8ff" points="299.05,-108.55 309.6,-109.47 301.93,-102.17 299.05,-108.55"/>
</a>
</g>
</g>
<!-- Node8 -->
<g id="Node000008" class="node">
<title>Node8</title>
<g id="a_Node000008"><a xlink:href="class_ajax_1_1_screen_mgr_1_1_navigation.html" target="_top" xlink:title="This class defines the interface &#45; used by ScreenApi instances &#45; to navigate to other screen instance...">
<polygon fill="white" stroke="#666666" points="416.75,-74.5 279.25,-74.5 279.25,-55.25 416.75,-55.25 416.75,-74.5"/>
<text text-anchor="middle" x="348" y="-61" font-family="Helvetica,sans-Serif" font-size="10.00">Ajax::ScreenMgr::Navigation</text>
</a>
</g>
</g>
<!-- Node8&#45;&gt;Node1 -->
<g id="edge7_Node000001_Node000008" class="edge">
<title>Node8&#45;&gt;Node1</title>
<g id="a_edge7_Node000001_Node000008"><a xlink:title=" ">
<path fill="none" stroke="#63b8ff" d="M327.65,-47.94C315.78,-38.64 301.24,-27.26 291.36,-19.52"/>
<polygon fill="#63b8ff" stroke="#63b8ff" points="325.24,-50.5 335.27,-53.91 329.56,-44.99 325.24,-50.5"/>
</a>
</g>
</g>
</g>
</svg>
