<?xml version="1.0" encoding="UTF-8" standalone="no"?>
<!DOCTYPE svg PUBLIC "-//W3C//DTD SVG 1.1//EN"
 "http://www.w3.org/Graphics/SVG/1.1/DTD/svg11.dtd">
<!-- Generated by graphviz version 9.0.0 (20230911.1827)
 -->
<!-- Title: Driver::TPipe::Maker Pages: 1 -->
<svg width="1134pt" height="310pt"
 viewBox="0.00 0.00 1133.50 310.25" xmlns="http://www.w3.org/2000/svg" xmlns:xlink="http://www.w3.org/1999/xlink">
<g id="graph0" class="graph" transform="scale(1 1) rotate(0) translate(4 306.25)">
<title>Driver::TPipe::Maker</title>
<!-- Node1 -->
<g id="Node000001" class="node">
<title>Node1</title>
<g id="a_Node000001"><a xlink:title="This concrete class is a &quot;Maker&quot; that assembles the objects needed for TPipe.">
<polygon fill="#999999" stroke="#666666" points="1125.5,-221.25 1022.5,-221.25 1022.5,-202 1125.5,-202 1125.5,-221.25"/>
<text text-anchor="middle" x="1074" y="-207.75" font-family="Helvetica,sans-Serif" font-size="10.00">Driver::TPipe::Maker</text>
</a>
</g>
</g>
<!-- Node2 -->
<g id="Node000002" class="node">
<title>Node2</title>
<g id="a_Node000002"><a xlink:href="class_cpl_1_1_text_1_1_frame_1_1_stream_decoder.html" target="_top" xlink:title="This partially concrete class defines an interface a Text &quot;Decoder&quot; that has a Cpl::Io::Input stream ...">
<polygon fill="white" stroke="#666666" points="716.62,-281.88 594.88,-281.88 594.88,-251.38 716.62,-251.38 716.62,-281.88"/>
<text text-anchor="start" x="602.88" y="-268.38" font-family="Helvetica,sans-Serif" font-size="10.00">Cpl::Text::Frame::Stream</text>
<text text-anchor="middle" x="655.75" y="-257.12" font-family="Helvetica,sans-Serif" font-size="10.00">Decoder</text>
</a>
</g>
</g>
<!-- Node2&#45;&gt;Node1 -->
<g id="edge1_Node000001_Node000002" class="edge">
<title>Node2&#45;&gt;Node1</title>
<g id="a_edge1_Node000001_Node000002"><a xlink:title=" ">
<path fill="none" stroke="#63b8ff" d="M728.3,-259.41C798.74,-251.97 909.29,-239.39 1004.5,-224.62 1010.24,-223.73 1016.24,-222.72 1022.19,-221.66"/>
<polygon fill="#63b8ff" stroke="#63b8ff" points="728,-255.92 718.42,-260.44 728.73,-262.88 728,-255.92"/>
</a>
</g>
</g>
<!-- Node13 -->
<g id="Node000013" class="node">
<title>Node13</title>
<g id="a_Node000013"><a xlink:href="class_driver_1_1_t_pipe_1_1_pipe.html" target="_top" xlink:title="This concrete class provides the implementation of TPipe.">
<polygon fill="white" stroke="#666666" points="928,-162.25 832.5,-162.25 832.5,-143 928,-143 928,-162.25"/>
<text text-anchor="middle" x="880.25" y="-148.75" font-family="Helvetica,sans-Serif" font-size="10.00">Driver::TPipe::Pipe</text>
</a>
</g>
</g>
<!-- Node2&#45;&gt;Node13 -->
<g id="edge18_Node000013_Node000002" class="edge">
<title>Node2&#45;&gt;Node13</title>
<g id="a_edge18_Node000013_Node000002"><a xlink:title=" ">
<path fill="none" stroke="#9a32cd" stroke-dasharray="5,2" d="M709.34,-246.63C740.61,-234.01 780.66,-216.55 814.5,-197.62 833.38,-187.07 853.62,-172.4 866.35,-162.72"/>
<polygon fill="#9a32cd" stroke="#9a32cd" points="708.06,-243.37 700.07,-250.33 710.66,-249.87 708.06,-243.37"/>
</a>
</g>
<text text-anchor="middle" x="783.38" y="-229.38" font-family="Helvetica,sans-Serif" font-size="10.00" fill="grey"> m_deframer</text>
</g>
<!-- Node3 -->
<g id="Node000003" class="node">
<title>Node3</title>
<g id="a_Node000003"><a xlink:href="class_cpl_1_1_text_1_1_frame_1_1_decoder__.html" target="_top" xlink:title="This private partially concrete class implements the basic/common logic for a frame decoder.">
<polygon fill="white" stroke="#666666" points="431.75,-302.25 300.25,-302.25 300.25,-283 431.75,-283 431.75,-302.25"/>
<text text-anchor="middle" x="366" y="-288.75" font-family="Helvetica,sans-Serif" font-size="10.00">Cpl::Text::Frame::Decoder_</text>
</a>
</g>
</g>
<!-- Node3&#45;&gt;Node2 -->
<g id="edge2_Node000002_Node000003" class="edge">
<title>Node3&#45;&gt;Node2</title>
<g id="a_edge2_Node000002_Node000003"><a xlink:title=" ">
<path fill="none" stroke="#63b8ff" d="M443.17,-285.99C478.48,-282.89 521.01,-279.12 559.25,-275.62 570.61,-274.59 582.73,-273.46 594.39,-272.37"/>
<polygon fill="#63b8ff" stroke="#63b8ff" points="443.13,-282.48 433.48,-286.84 443.75,-289.45 443.13,-282.48"/>
</a>
</g>
</g>
<!-- Node4 -->
<g id="Node000004" class="node">
<title>Node4</title>
<g id="a_Node000004"><a xlink:href="class_cpl_1_1_text_1_1_frame_1_1_decoder.html" target="_top" xlink:title="This class defines an interface for &#39;receiving&#39; (decode) a frame.">
<polygon fill="white" stroke="#666666" points="263.25,-302.25 137,-302.25 137,-283 263.25,-283 263.25,-302.25"/>
<text text-anchor="middle" x="200.12" y="-288.75" font-family="Helvetica,sans-Serif" font-size="10.00">Cpl::Text::Frame::Decoder</text>
</a>
</g>
</g>
<!-- Node4&#45;&gt;Node3 -->
<g id="edge3_Node000003_Node000004" class="edge">
<title>Node4&#45;&gt;Node3</title>
<g id="a_edge3_Node000003_Node000004"><a xlink:title=" ">
<path fill="none" stroke="#63b8ff" d="M274.79,-292.62C283.11,-292.62 291.55,-292.62 299.76,-292.62"/>
<polygon fill="#63b8ff" stroke="#63b8ff" points="275.06,-289.13 265.06,-292.63 275.06,-296.13 275.06,-289.13"/>
</a>
</g>
</g>
<!-- Node5 -->
<g id="Node000005" class="node">
<title>Node5</title>
<g id="a_Node000005"><a xlink:href="class_cpl_1_1_io_1_1_input.html" target="_top" xlink:title="This partially abstract class defines a interface for operating on an input stream (example of a stre...">
<polygon fill="white" stroke="#666666" points="400.62,-265.25 331.38,-265.25 331.38,-246 400.62,-246 400.62,-265.25"/>
<text text-anchor="middle" x="366" y="-251.75" font-family="Helvetica,sans-Serif" font-size="10.00">Cpl::Io::Input</text>
</a>
</g>
</g>
<!-- Node5&#45;&gt;Node2 -->
<g id="edge4_Node000002_Node000005" class="edge">
<title>Node5&#45;&gt;Node2</title>
<g id="a_edge4_Node000002_Node000005"><a xlink:title=" ">
<path fill="none" stroke="#9a32cd" stroke-dasharray="5,2" d="M412.07,-257.35C461.2,-259.23 540.05,-262.24 594.47,-264.32"/>
<polygon fill="#9a32cd" stroke="#9a32cd" points="412.49,-253.86 402.37,-256.98 412.23,-260.86 412.49,-253.86"/>
</a>
</g>
<text text-anchor="middle" x="504.5" y="-265.38" font-family="Helvetica,sans-Serif" font-size="10.00" fill="grey"> m_srcPtr</text>
</g>
<!-- Node6 -->
<g id="Node000006" class="node">
<title>Node6</title>
<g id="a_Node000006"><a xlink:href="class_cpl_1_1_io_1_1_close.html" target="_top" xlink:title="This abstract class defines a close operation that is intended to be used Input and Output streams/fi...">
<polygon fill="white" stroke="#666666" points="236.25,-265.25 164,-265.25 164,-246 236.25,-246 236.25,-265.25"/>
<text text-anchor="middle" x="200.12" y="-251.75" font-family="Helvetica,sans-Serif" font-size="10.00">Cpl::Io::Close</text>
</a>
</g>
</g>
<!-- Node6&#45;&gt;Node5 -->
<g id="edge5_Node000005_Node000006" class="edge">
<title>Node6&#45;&gt;Node5</title>
<g id="a_edge5_Node000005_Node000006"><a xlink:title=" ">
<path fill="none" stroke="#63b8ff" d="M247.98,-255.62C274.43,-255.62 306.9,-255.62 330.91,-255.62"/>
<polygon fill="#63b8ff" stroke="#63b8ff" points="248.2,-252.13 238.2,-255.63 248.2,-259.13 248.2,-252.13"/>
</a>
</g>
</g>
<!-- Node12 -->
<g id="Node000012" class="node">
<title>Node12</title>
<g id="a_Node000012"><a xlink:href="class_cpl_1_1_io_1_1_output.html" target="_top" xlink:title="This partially abstract class defines a interface for operating on an output stream (example of a str...">
<polygon fill="white" stroke="#666666" points="404.38,-178.25 327.62,-178.25 327.62,-159 404.38,-159 404.38,-178.25"/>
<text text-anchor="middle" x="366" y="-164.75" font-family="Helvetica,sans-Serif" font-size="10.00">Cpl::Io::Output</text>
</a>
</g>
</g>
<!-- Node6&#45;&gt;Node12 -->
<g id="edge12_Node000012_Node000006" class="edge">
<title>Node6&#45;&gt;Node12</title>
<g id="a_edge12_Node000012_Node000006"><a xlink:title=" ">
<path fill="none" stroke="#63b8ff" d="M243.87,-241.18C250.6,-238.14 257.29,-234.62 263.25,-230.62 282.83,-217.5 280.49,-205.48 300.25,-192.62 309.09,-186.87 319.51,-182.24 329.37,-178.63"/>
<polygon fill="#63b8ff" stroke="#63b8ff" points="242.64,-237.9 234.76,-244.99 245.34,-244.36 242.64,-237.9"/>
</a>
</g>
</g>
<!-- Node7 -->
<g id="Node000007" class="node">
<title>Node7</title>
<g id="a_Node000007"><a xlink:href="class_cpl_1_1_container_1_1_item.html" target="_top" xlink:title="This class is used by the Container classes to implement a various types of singly linked containers.">
<polygon fill="white" stroke="#666666" points="100,-265.25 0,-265.25 0,-246 100,-246 100,-265.25"/>
<text text-anchor="middle" x="50" y="-251.75" font-family="Helvetica,sans-Serif" font-size="10.00">Cpl::Container::Item</text>
</a>
</g>
</g>
<!-- Node7&#45;&gt;Node6 -->
<g id="edge6_Node000006_Node000007" class="edge">
<title>Node7&#45;&gt;Node6</title>
<g id="a_edge6_Node000006_Node000007"><a xlink:title=" ">
<path fill="none" stroke="#63b8ff" d="M111.72,-255.62C129.36,-255.62 148.05,-255.62 163.6,-255.62"/>
<polygon fill="#63b8ff" stroke="#63b8ff" points="111.84,-252.13 101.84,-255.63 111.84,-259.13 111.84,-252.13"/>
</a>
</g>
</g>
<!-- Node8 -->
<g id="Node000008" class="node">
<title>Node8</title>
<g id="a_Node000008"><a xlink:href="class_cpl_1_1_io_1_1_is_eos.html" target="_top" xlink:title="This abstract class defines a isEos() operation that is intended to be used Input and Output streams.">
<polygon fill="white" stroke="#666666" points="236.25,-178.25 164,-178.25 164,-159 236.25,-159 236.25,-178.25"/>
<text text-anchor="middle" x="200.12" y="-164.75" font-family="Helvetica,sans-Serif" font-size="10.00">Cpl::Io::IsEos</text>
</a>
</g>
</g>
<!-- Node8&#45;&gt;Node5 -->
<g id="edge7_Node000005_Node000008" class="edge">
<title>Node8&#45;&gt;Node5</title>
<g id="a_edge7_Node000005_Node000008"><a xlink:title=" ">
<path fill="none" stroke="#63b8ff" d="M245.41,-183C251.62,-185.79 257.75,-188.99 263.25,-192.62 282.92,-205.62 280.58,-217.64 300.25,-230.62 309.6,-236.8 320.7,-241.79 331.05,-245.64"/>
<polygon fill="#63b8ff" stroke="#63b8ff" points="246.96,-179.85 236.38,-179.28 244.29,-186.32 246.96,-179.85"/>
</a>
</g>
</g>
<!-- Node8&#45;&gt;Node12 -->
<g id="edge13_Node000012_Node000008" class="edge">
<title>Node8&#45;&gt;Node12</title>
<g id="a_edge13_Node000012_Node000008"><a xlink:title=" ">
<path fill="none" stroke="#63b8ff" d="M248.15,-168.62C273.24,-168.62 303.7,-168.62 327.23,-168.62"/>
<polygon fill="#63b8ff" stroke="#63b8ff" points="248.2,-165.13 238.2,-168.63 248.2,-172.13 248.2,-165.13"/>
</a>
</g>
</g>
<!-- Node9 -->
<g id="Node000009" class="node">
<title>Node9</title>
<g id="a_Node000009"><a xlink:href="class_cpl_1_1_text_1_1_frame_1_1_stream_encoder.html" target="_top" xlink:title="This concrete class implements the Encoder API where the Output destination is a Cpl::Io::Output stre...">
<polygon fill="white" stroke="#666666" points="716.62,-219.88 594.88,-219.88 594.88,-189.38 716.62,-189.38 716.62,-219.88"/>
<text text-anchor="start" x="602.88" y="-206.38" font-family="Helvetica,sans-Serif" font-size="10.00">Cpl::Text::Frame::Stream</text>
<text text-anchor="middle" x="655.75" y="-195.12" font-family="Helvetica,sans-Serif" font-size="10.00">Encoder</text>
</a>
</g>
</g>
<!-- Node9&#45;&gt;Node1 -->
<g id="edge8_Node000001_Node000009" class="edge">
<title>Node9&#45;&gt;Node1</title>
<g id="a_edge8_Node000001_Node000009"><a xlink:title=" ">
<path fill="none" stroke="#9a32cd" stroke-dasharray="5,2" d="M728.28,-205.83C811.99,-207.24 948.49,-209.53 1022.1,-210.77"/>
<polygon fill="#9a32cd" stroke="#9a32cd" points="728.4,-202.33 718.35,-205.66 728.28,-209.33 728.4,-202.33"/>
</a>
</g>
<text text-anchor="middle" x="880.25" y="-211.38" font-family="Helvetica,sans-Serif" font-size="10.00" fill="grey"> m_framer</text>
</g>
<!-- Node9&#45;&gt;Node13 -->
<g id="edge19_Node000013_Node000009" class="edge">
<title>Node9&#45;&gt;Node13</title>
<g id="a_edge19_Node000013_Node000009"><a xlink:title=" ">
<path fill="none" stroke="#9a32cd" stroke-dasharray="5,2" d="M727.81,-188.02C763.49,-179.68 805.55,-169.85 836.27,-162.67"/>
<polygon fill="#9a32cd" stroke="#9a32cd" points="727.38,-184.52 718.44,-190.21 728.97,-191.34 727.38,-184.52"/>
</a>
</g>
<text text-anchor="middle" x="783.38" y="-184.38" font-family="Helvetica,sans-Serif" font-size="10.00" fill="grey"> m_framer</text>
</g>
<!-- Node10 -->
<g id="Node000010" class="node">
<title>Node10</title>
<g id="a_Node000010"><a xlink:href="class_cpl_1_1_text_1_1_frame_1_1_encoder__.html" target="_top" xlink:title="This Private Namespace partially concrete class implements common/helper method for supporting the En...">
<polygon fill="white" stroke="#666666" points="431.38,-221.25 300.62,-221.25 300.62,-202 431.38,-202 431.38,-221.25"/>
<text text-anchor="middle" x="366" y="-207.75" font-family="Helvetica,sans-Serif" font-size="10.00">Cpl::Text::Frame::Encoder_</text>
</a>
</g>
</g>
<!-- Node10&#45;&gt;Node9 -->
<g id="edge9_Node000009_Node000010" class="edge">
<title>Node10&#45;&gt;Node9</title>
<g id="a_edge9_Node000009_Node000010"><a xlink:title=" ">
<path fill="none" stroke="#63b8ff" d="M443.04,-209.78C490.5,-208.62 550.73,-207.16 594.81,-206.08"/>
<polygon fill="#63b8ff" stroke="#63b8ff" points="443,-206.27 433.09,-210.02 443.17,-213.27 443,-206.27"/>
</a>
</g>
</g>
<!-- Node11 -->
<g id="Node000011" class="node">
<title>Node11</title>
<g id="a_Node000011"><a xlink:href="class_cpl_1_1_text_1_1_frame_1_1_encoder.html" target="_top" xlink:title="This class defines an interface for &#39;transmitted&#39; (encoding) a frame.">
<polygon fill="white" stroke="#666666" points="262.88,-221.25 137.38,-221.25 137.38,-202 262.88,-202 262.88,-221.25"/>
<text text-anchor="middle" x="200.12" y="-207.75" font-family="Helvetica,sans-Serif" font-size="10.00">Cpl::Text::Frame::Encoder</text>
</a>
</g>
</g>
<!-- Node11&#45;&gt;Node10 -->
<g id="edge10_Node000010_Node000011" class="edge">
<title>Node11&#45;&gt;Node10</title>
<g id="a_edge10_Node000010_Node000011"><a xlink:title=" ">
<path fill="none" stroke="#63b8ff" d="M274.32,-211.62C282.96,-211.62 291.72,-211.62 300.23,-211.62"/>
<polygon fill="#63b8ff" stroke="#63b8ff" points="274.59,-208.13 264.59,-211.63 274.59,-215.13 274.59,-208.13"/>
</a>
</g>
</g>
<!-- Node12&#45;&gt;Node9 -->
<g id="edge11_Node000009_Node000012" class="edge">
<title>Node12&#45;&gt;Node9</title>
<g id="a_edge11_Node000009_Node000012"><a xlink:title=" ">
<path fill="none" stroke="#9a32cd" stroke-dasharray="5,2" d="M415.57,-174.56C454.45,-179.33 510.36,-186.22 559.25,-192.38 570.61,-193.81 582.73,-195.35 594.39,-196.84"/>
<polygon fill="#9a32cd" stroke="#9a32cd" points="416.44,-171.14 406.08,-173.4 415.58,-178.09 416.44,-171.14"/>
</a>
</g>
<text text-anchor="middle" x="504.5" y="-194.38" font-family="Helvetica,sans-Serif" font-size="10.00" fill="grey"> m_dstPtr</text>
</g>
<!-- Node12&#45;&gt;Node13 -->
<g id="edge20_Node000013_Node000012" class="edge">
<title>Node12&#45;&gt;Node13</title>
<g id="a_edge20_Node000013_Node000012"><a xlink:title=" ">
<path fill="none" stroke="#9a32cd" stroke-dasharray="5,2" d="M416.05,-167.09C514.53,-164.02 735.15,-157.13 832.06,-154.1"/>
<polygon fill="#9a32cd" stroke="#9a32cd" points="416.07,-163.59 406.18,-167.4 416.28,-170.59 416.07,-163.59"/>
</a>
</g>
<text text-anchor="middle" x="655.75" y="-164.38" font-family="Helvetica,sans-Serif" font-size="10.00" fill="grey"> m_outfdPtr</text>
</g>
<!-- Node13&#45;&gt;Node1 -->
<g id="edge14_Node000001_Node000013" class="edge">
<title>Node13&#45;&gt;Node1</title>
<g id="a_edge14_Node000001_Node000013"><a xlink:title=" ">
<path fill="none" stroke="#9a32cd" stroke-dasharray="5,2" d="M932.38,-165.57C954.66,-171.49 981.01,-178.84 1004.5,-186.38 1018.74,-190.94 1034.41,-196.66 1047.16,-201.5"/>
<polygon fill="#9a32cd" stroke="#9a32cd" points="933.5,-162.25 922.94,-163.09 931.72,-169.02 933.5,-162.25"/>
</a>
</g>
<text text-anchor="middle" x="975.25" y="-188.38" font-family="Helvetica,sans-Serif" font-size="10.00" fill="grey"> m_processor</text>
</g>
<!-- Node14 -->
<g id="Node000014" class="node">
<title>Node14</title>
<g id="a_Node000014"><a xlink:href="class_driver_1_1_t_pipe_1_1_tx.html" target="_top" xlink:title="This abstract class defines the &#39;Transmit Command&#39; interface for the TPipe.">
<polygon fill="white" stroke="#666666" points="699,-19.25 612.5,-19.25 612.5,0 699,0 699,-19.25"/>
<text text-anchor="middle" x="655.75" y="-5.75" font-family="Helvetica,sans-Serif" font-size="10.00">Driver::TPipe::Tx</text>
</a>
</g>
</g>
<!-- Node14&#45;&gt;Node13 -->
<g id="edge15_Node000013_Node000014" class="edge">
<title>Node14&#45;&gt;Node13</title>
<g id="a_edge15_Node000013_Node000014"><a xlink:title=" ">
<path fill="none" stroke="#63b8ff" d="M709.99,-19.33C742.93,-27.49 784.51,-41.93 814.5,-66.62 841.77,-89.08 864.07,-125.25 873.87,-142.65"/>
<polygon fill="#63b8ff" stroke="#63b8ff" points="711.19,-16.01 700.65,-17.14 709.59,-22.83 711.19,-16.01"/>
</a>
</g>
</g>
<!-- Node15 -->
<g id="Node000015" class="node">
<title>Node15</title>
<g id="a_Node000015"><a xlink:href="class_cpl_1_1_container_1_1_map.html" target="_top" xlink:title=" ">
<polygon fill="white" stroke="#666666" points="734.25,-116.5 577.25,-116.5 577.25,-74.75 734.25,-74.75 734.25,-116.5"/>
<text text-anchor="start" x="585.25" y="-103" font-family="Helvetica,sans-Serif" font-size="10.00">Cpl::Container::Map</text>
<text text-anchor="start" x="585.25" y="-91.75" font-family="Helvetica,sans-Serif" font-size="10.00">&lt; Driver::TPipe::RxFrameHandler</text>
<text text-anchor="middle" x="655.75" y="-80.5" font-family="Helvetica,sans-Serif" font-size="10.00">Api &gt;</text>
</a>
</g>
</g>
<!-- Node15&#45;&gt;Node13 -->
<g id="edge16_Node000013_Node000015" class="edge">
<title>Node15&#45;&gt;Node13</title>
<g id="a_edge16_Node000013_Node000015"><a xlink:title=" ">
<path fill="none" stroke="#9a32cd" stroke-dasharray="5,2" d="M745.43,-110.67C768.14,-115.29 792.38,-120.89 814.5,-127.38 828.63,-131.52 843.99,-137.45 856.21,-142.52"/>
<polygon fill="#9a32cd" stroke="#9a32cd" points="746.4,-107.3 735.91,-108.78 745.04,-114.16 746.4,-107.3"/>
</a>
</g>
<text text-anchor="middle" x="783.38" y="-129.38" font-family="Helvetica,sans-Serif" font-size="10.00" fill="grey"> m_rxHandlers</text>
</g>
<!-- Node16 -->
<g id="Node000016" class="node">
<title>Node16</title>
<g id="a_Node000016"><a xlink:href="class_cpl_1_1_container_1_1_map.html" target="_top" xlink:title="This template class implements an Map using an AVL Binary tree (i.e.">
<polygon fill="white" stroke="#666666" points="415.62,-110.88 316.38,-110.88 316.38,-80.38 415.62,-80.38 415.62,-110.88"/>
<text text-anchor="start" x="324.38" y="-97.38" font-family="Helvetica,sans-Serif" font-size="10.00">Cpl::Container::Map</text>
<text text-anchor="middle" x="366" y="-86.12" font-family="Helvetica,sans-Serif" font-size="10.00">&lt; ITEM &gt;</text>
</a>
</g>
</g>
<!-- Node16&#45;&gt;Node15 -->
<g id="edge17_Node000015_Node000016" class="edge">
<title>Node16&#45;&gt;Node15</title>
<g id="a_edge17_Node000015_Node000016"><a xlink:title=" ">
<path fill="none" stroke="orange" stroke-dasharray="5,2" d="M427.08,-95.62C470.58,-95.62 529.78,-95.62 576.9,-95.62"/>
<polygon fill="orange" stroke="orange" points="427.33,-92.13 417.33,-95.63 427.33,-99.13 427.33,-92.13"/>
</a>
</g>
<text text-anchor="start" x="449.75" y="-108.62" font-family="Helvetica,sans-Serif" font-size="10.00" fill="grey"> &lt; Driver::TPipe::RxFrame</text>
<text text-anchor="middle" x="504.5" y="-97.38" font-family="Helvetica,sans-Serif" font-size="10.00" fill="grey">HandlerApi &gt;</text>
</g>
<!-- Node17 -->
<g id="Node000017" class="node">
<title>Node17</title>
<g id="a_Node000017"><a xlink:href="class_cpl_1_1_system_1_1_mutex.html" target="_top" xlink:title="This mutex class defines the interface for a mutex that has &quot;recursive&quot; semantics.">
<polygon fill="white" stroke="#666666" points="705,-56.25 606.5,-56.25 606.5,-37 705,-37 705,-56.25"/>
<text text-anchor="middle" x="655.75" y="-42.75" font-family="Helvetica,sans-Serif" font-size="10.00">Cpl::System::Mutex</text>
</a>
</g>
</g>
<!-- Node17&#45;&gt;Node13 -->
<g id="edge21_Node000013_Node000017" class="edge">
<title>Node17&#45;&gt;Node13</title>
<g id="a_edge21_Node000013_Node000017"><a xlink:title=" ">
<path fill="none" stroke="#9a32cd" stroke-dasharray="5,2" d="M716.43,-58.91C747.18,-66.91 784.42,-79.28 814.5,-97.38 836.28,-110.48 858.02,-130.91 869.95,-142.92"/>
<polygon fill="#9a32cd" stroke="#9a32cd" points="717.44,-55.55 706.89,-56.52 715.75,-62.34 717.44,-55.55"/>
</a>
</g>
<text text-anchor="middle" x="783.38" y="-99.38" font-family="Helvetica,sans-Serif" font-size="10.00" fill="grey"> m_lock</text>
</g>
</g>
</svg>
