<?xml version="1.0" encoding="UTF-8" standalone="no"?>
<!DOCTYPE svg PUBLIC "-//W3C//DTD SVG 1.1//EN"
 "http://www.w3.org/Graphics/SVG/1.1/DTD/svg11.dtd">
<!-- Generated by graphviz version 2.43.0 (0)
 -->
<!-- Title: Driver::LED::RedGreenBlue Pages: 1 -->
<svg width="252pt" height="93pt"
 viewBox="0.00 0.00 251.50 93.00" xmlns="http://www.w3.org/2000/svg" xmlns:xlink="http://www.w3.org/1999/xlink">
<g id="graph0" class="graph" transform="scale(1 1) rotate(0) translate(4 89)">
<title>Driver::LED::RedGreenBlue</title>
<!-- Node1 -->
<g id="Node000001" class="node">
<title>Node1</title>
<g id="a_Node000001"><a xlink:title="This abstract class defines a basic interface for a single Red&#45;Green&#45;Blue LED where the application c...">
<polygon fill="#999999" stroke="#666666" points="199,-85 52,-85 52,-66 199,-66 199,-85"/>
<text text-anchor="middle" x="125.5" y="-73" font-family="Helvetica,sans-Serif" font-size="10.00">Driver::LED::RedGreenBlue</text>
</a>
</g>
</g>
<!-- Node2 -->
<g id="Node000002" class="node">
<title>Node2</title>
<g id="a_Node000002"><a xlink:href="class_driver_1_1_l_e_d_1_1_pimoroni_1_1_red_green_blue.html" target="_top" xlink:title="This concrete class is wrapper to the GENERIC pimoroni RGBLED class.">
<polygon fill="white" stroke="#666666" points="121,-30 0,-30 0,0 121,0 121,-30"/>
<text text-anchor="start" x="8" y="-18" font-family="Helvetica,sans-Serif" font-size="10.00">Driver::LED::Pimoroni</text>
<text text-anchor="middle" x="60.5" y="-7" font-family="Helvetica,sans-Serif" font-size="10.00">::RedGreenBlue</text>
</a>
</g>
</g>
<!-- Node1&#45;&gt;Node2 -->
<g id="edge1_Node000001_Node000002" class="edge">
<title>Node1&#45;&gt;Node2</title>
<g id="a_edge1_Node000001_Node000002"><a xlink:title=" ">
<path fill="none" stroke="#63b8ff" d="M108.24,-58.97C98.28,-50.01 85.86,-38.82 76.18,-30.11"/>
<polygon fill="#63b8ff" stroke="#63b8ff" points="106.13,-61.78 115.91,-65.87 110.82,-56.58 106.13,-61.78"/>
</a>
</g>
</g>
<!-- Node3 -->
<g id="Node000003" class="node">
<title>Node3</title>
<g id="a_Node000003"><a xlink:href="class_driver_1_1_l_e_d_1_1_t_pipe_1_1_red_gree_blue.html" target="_top" xlink:title="This concrete class implements the Red&#45;Green&#45;Blue LED interface by sending the LED state over the TPi...">
<polygon fill="white" stroke="#666666" points="243.5,-30 139.5,-30 139.5,0 243.5,0 243.5,-30"/>
<text text-anchor="start" x="147.5" y="-18" font-family="Helvetica,sans-Serif" font-size="10.00">Driver::LED::TPipe</text>
<text text-anchor="middle" x="191.5" y="-7" font-family="Helvetica,sans-Serif" font-size="10.00">::RedGreeBlue</text>
</a>
</g>
</g>
<!-- Node1&#45;&gt;Node3 -->
<g id="edge2_Node000001_Node000003" class="edge">
<title>Node1&#45;&gt;Node3</title>
<g id="a_edge2_Node000001_Node000003"><a xlink:title=" ">
<path fill="none" stroke="#63b8ff" d="M142.72,-59.23C152.88,-50.23 165.65,-38.91 175.58,-30.11"/>
<polygon fill="#63b8ff" stroke="#63b8ff" points="140.4,-56.62 135.24,-65.87 145.04,-61.85 140.4,-56.62"/>
</a>
</g>
</g>
</g>
</svg>
