<?xml version="1.0" encoding="UTF-8" standalone="no"?>
<!DOCTYPE svg PUBLIC "-//W3C//DTD SVG 1.1//EN"
 "http://www.w3.org/Graphics/SVG/1.1/DTD/svg11.dtd">
<!-- Generated by graphviz version 9.0.0 (20230911.1827)
 -->
<!-- Title: Ajax::Heating::Supervisor::FsmEventQueue_ Pages: 1 -->
<svg width="255pt" height="308pt"
 viewBox="0.00 0.00 254.88 307.50" xmlns="http://www.w3.org/2000/svg" xmlns:xlink="http://www.w3.org/1999/xlink">
<g id="graph0" class="graph" transform="scale(1 1) rotate(0) translate(4 303.5)">
<title>Ajax::Heating::Supervisor::FsmEventQueue_</title>
<!-- Node1 -->
<g id="Node000001" class="node">
<title>Node1</title>
<g id="a_Node000001"><a xlink:title="Event Queue for FSM events.">
<polygon fill="#999999" stroke="#666666" points="133.38,-154.25 9.38,-154.25 9.38,-123.75 133.38,-123.75 133.38,-154.25"/>
<text text-anchor="start" x="17.38" y="-140.75" font-family="Helvetica,sans-Serif" font-size="10.00">Ajax::Heating::Supervisor</text>
<text text-anchor="middle" x="71.38" y="-129.5" font-family="Helvetica,sans-Serif" font-size="10.00">::FsmEventQueue_</text>
</a>
</g>
</g>
<!-- Node5 -->
<g id="Node000005" class="node">
<title>Node5</title>
<g id="a_Node000005"><a xlink:href="class_ajax_1_1_heating_1_1_supervisor_1_1_api.html" target="_top" xlink:title="This class implements the Heating Algorithm Supervisor.">
<polygon fill="white" stroke="#666666" points="142.75,-86.75 0,-86.75 0,-67.5 142.75,-67.5 142.75,-86.75"/>
<text text-anchor="middle" x="71.38" y="-73.25" font-family="Helvetica,sans-Serif" font-size="10.00">Ajax::Heating::Supervisor::Api</text>
</a>
</g>
</g>
<!-- Node1&#45;&gt;Node5 -->
<g id="edge4_Node000001_Node000005" class="edge">
<title>Node1&#45;&gt;Node5</title>
<g id="a_edge4_Node000001_Node000005"><a xlink:title=" ">
<path fill="none" stroke="#63b8ff" d="M71.38,-112.27C71.38,-103.29 71.38,-93.79 71.38,-87.1"/>
<polygon fill="#63b8ff" stroke="#63b8ff" points="67.88,-111.99 71.38,-121.99 74.88,-111.99 67.88,-111.99"/>
</a>
</g>
</g>
<!-- Node2 -->
<g id="Node000002" class="node">
<title>Node2</title>
<g id="a_Node000002"><a xlink:href="class_ajax_1_1_heating_1_1_supervisor_1_1_fsm.html" target="_top" xlink:title="Here is the graph that shows the state machine this class implements.">
<polygon fill="white" stroke="#666666" points="77.12,-216.12 41.62,-216.12 41.62,-196.88 77.12,-196.88 77.12,-216.12"/>
<text text-anchor="middle" x="59.38" y="-202.62" font-family="Helvetica,sans-Serif" font-size="10.00">Fsm</text>
</a>
</g>
</g>
<!-- Node2&#45;&gt;Node1 -->
<g id="edge1_Node000001_Node000002" class="edge">
<title>Node2&#45;&gt;Node1</title>
<g id="a_edge1_Node000001_Node000002"><a xlink:title=" ">
<path fill="none" stroke="#63b8ff" d="M63.11,-185.13C64.92,-175.23 67.06,-163.56 68.71,-154.57"/>
<polygon fill="#63b8ff" stroke="#63b8ff" points="59.68,-184.44 61.32,-194.9 66.56,-185.7 59.68,-184.44"/>
</a>
</g>
</g>
<!-- Node3 -->
<g id="Node000003" class="node">
<title>Node3</title>
<g id="a_Node000003"><a xlink:href="class_cpl_1_1_container_1_1_ring_buffer.html" target="_top" xlink:title=" ">
<polygon fill="white" stroke="#666666" points="221.12,-221.75 95.62,-221.75 95.62,-191.25 221.12,-191.25 221.12,-221.75"/>
<text text-anchor="start" x="103.62" y="-208.25" font-family="Helvetica,sans-Serif" font-size="10.00">Cpl::Container::RingBuffer</text>
<text text-anchor="middle" x="158.38" y="-197" font-family="Helvetica,sans-Serif" font-size="10.00">&lt; FSM_EVENT_T &gt;</text>
</a>
</g>
</g>
<!-- Node3&#45;&gt;Node1 -->
<g id="edge2_Node000001_Node000003" class="edge">
<title>Node3&#45;&gt;Node1</title>
<g id="a_edge2_Node000001_Node000003"><a xlink:title=" ">
<path fill="none" stroke="#63b8ff" d="M130.17,-184.26C117.35,-174.61 102.5,-163.43 90.93,-154.72"/>
<polygon fill="#63b8ff" stroke="#63b8ff" points="127.76,-186.83 137.86,-190.05 131.97,-181.24 127.76,-186.83"/>
</a>
</g>
</g>
<!-- Node4 -->
<g id="Node000004" class="node">
<title>Node4</title>
<g id="a_Node000004"><a xlink:href="class_cpl_1_1_container_1_1_ring_buffer.html" target="_top" xlink:title="This template class implements a Ring Buffer.">
<polygon fill="white" stroke="#666666" points="221.12,-299.5 95.62,-299.5 95.62,-269 221.12,-269 221.12,-299.5"/>
<text text-anchor="start" x="103.62" y="-286" font-family="Helvetica,sans-Serif" font-size="10.00">Cpl::Container::RingBuffer</text>
<text text-anchor="middle" x="158.38" y="-274.75" font-family="Helvetica,sans-Serif" font-size="10.00">&lt; ITEM &gt;</text>
</a>
</g>
</g>
<!-- Node4&#45;&gt;Node3 -->
<g id="edge3_Node000003_Node000004" class="edge">
<title>Node4&#45;&gt;Node3</title>
<g id="a_edge3_Node000003_Node000004"><a xlink:title=" ">
<path fill="none" stroke="orange" stroke-dasharray="5,2" d="M158.38,-257.22C158.38,-245.46 158.38,-232.01 158.38,-222.06"/>
<polygon fill="orange" stroke="orange" points="154.88,-257.13 158.38,-267.13 161.88,-257.13 154.88,-257.13"/>
</a>
</g>
<text text-anchor="middle" x="202.62" y="-241.5" font-family="Helvetica,sans-Serif" font-size="10.00" fill="grey"> &lt; FSM_EVENT_T &gt;</text>
</g>
<!-- Node6 -->
<g id="Node000006" class="node">
<title>Node6</title>
<g id="a_Node000006"><a xlink:href="class_ajax_1_1_heating_1_1_simulated_1_1_house.html" target="_top" xlink:title="This class glues the House Simulation into the Heater Application.">
<polygon fill="white" stroke="#666666" points="131.88,-30.5 10.88,-30.5 10.88,0 131.88,0 131.88,-30.5"/>
<text text-anchor="start" x="18.88" y="-17" font-family="Helvetica,sans-Serif" font-size="10.00">Ajax::Heating::Simulated</text>
<text text-anchor="middle" x="71.38" y="-5.75" font-family="Helvetica,sans-Serif" font-size="10.00">::House</text>
</a>
</g>
</g>
<!-- Node5&#45;&gt;Node6 -->
<g id="edge5_Node000005_Node000006" class="edge">
<title>Node5&#45;&gt;Node6</title>
<g id="a_edge5_Node000005_Node000006"><a xlink:title=" ">
<path fill="none" stroke="#63b8ff" d="M71.38,-55.69C71.38,-47.43 71.38,-38.09 71.38,-30.57"/>
<polygon fill="#63b8ff" stroke="#63b8ff" points="67.88,-55.52 71.38,-65.52 74.88,-55.52 67.88,-55.52"/>
</a>
</g>
</g>
</g>
</svg>
