<?xml version="1.0" encoding="UTF-8" standalone="no"?>
<!DOCTYPE svg PUBLIC "-//W3C//DTD SVG 1.1//EN"
 "http://www.w3.org/Graphics/SVG/1.1/DTD/svg11.dtd">
<!-- Generated by graphviz version 2.43.0 (0)
 -->
<!-- Title: Cpl::Dm::Mp::Enum_&lt; BETTERENUM_TYPE, MPTYPE &gt; Pages: 1 -->
<svg width="217pt" height="361pt"
 viewBox="0.00 0.00 216.50 361.00" xmlns="http://www.w3.org/2000/svg" xmlns:xlink="http://www.w3.org/1999/xlink">
<g id="graph0" class="graph" transform="scale(1 1) rotate(0) translate(4 357)">
<title>Cpl::Dm::Mp::Enum_&lt; BETTERENUM_TYPE, MPTYPE &gt;</title>
<!-- Node1 -->
<g id="Node000001" class="node">
<title>Node1</title>
<g id="a_Node000001"><a xlink:title="This template class provides a mostly concrete implementation for a Model Point who&#39;s data is a BETTE...">
<polygon fill="#999999" stroke="#666666" points="181,-185 0,-185 0,-155 181,-155 181,-185"/>
<text text-anchor="start" x="8" y="-173" font-family="Helvetica,sans-Serif" font-size="10.00">Cpl::Dm::Mp::Enum_</text>
<text text-anchor="middle" x="90.5" y="-162" font-family="Helvetica,sans-Serif" font-size="10.00">&lt; BETTERENUM_TYPE, MPTYPE &gt;</text>
</a>
</g>
</g>
<!-- Node5 -->
<g id="Node000005" class="node">
<title>Node5</title>
<g id="a_Node000005"><a xlink:href="class_cpl_1_1_dm_1_1_mp_1_1_enum__.html" target="_top" xlink:title=" ">
<polygon fill="white" stroke="#666666" points="156,-97 25,-97 25,-56 156,-56 156,-97"/>
<text text-anchor="start" x="33" y="-85" font-family="Helvetica,sans-Serif" font-size="10.00">Cpl::Dm::Mp::Enum_</text>
<text text-anchor="start" x="33" y="-74" font-family="Helvetica,sans-Serif" font-size="10.00">&lt; Ajax::Type::FanMode,</text>
<text text-anchor="middle" x="90.5" y="-63" font-family="Helvetica,sans-Serif" font-size="10.00"> MpFanMode &gt;</text>
</a>
</g>
</g>
<!-- Node1&#45;&gt;Node5 -->
<g id="edge4_Node000001_Node000005" class="edge">
<title>Node1&#45;&gt;Node5</title>
<g id="a_edge4_Node000001_Node000005"><a xlink:title=" ">
<path fill="none" stroke="orange" stroke-dasharray="5,2" d="M90.5,-144.69C90.5,-129.82 90.5,-111.05 90.5,-97.13"/>
<polygon fill="orange" stroke="orange" points="87,-144.7 90.5,-154.7 94,-144.7 87,-144.7"/>
</a>
</g>
<text text-anchor="start" x="90.5" y="-129" font-family="Helvetica,sans-Serif" font-size="10.00" fill="grey"> &lt; Ajax::Type::FanMode,</text>
<text text-anchor="middle" x="149.5" y="-118" font-family="Helvetica,sans-Serif" font-size="10.00" fill="grey"> MpFanMode &gt;</text>
</g>
<!-- Node2 -->
<g id="Node000002" class="node">
<title>Node2</title>
<g id="a_Node000002"><a xlink:href="class_cpl_1_1_dm_1_1_model_point_common__.html" target="_top" xlink:title="This concrete class provide common infrastructure for a Model Point.">
<polygon fill="white" stroke="#666666" points="173.5,-241 7.5,-241 7.5,-222 173.5,-222 173.5,-241"/>
<text text-anchor="middle" x="90.5" y="-229" font-family="Helvetica,sans-Serif" font-size="10.00">Cpl::Dm::ModelPointCommon_</text>
</a>
</g>
</g>
<!-- Node2&#45;&gt;Node1 -->
<g id="edge1_Node000001_Node000002" class="edge">
<title>Node2&#45;&gt;Node1</title>
<g id="a_edge1_Node000001_Node000002"><a xlink:title=" ">
<path fill="none" stroke="#63b8ff" d="M90.5,-211.73C90.5,-203.09 90.5,-193 90.5,-185.02"/>
<polygon fill="#63b8ff" stroke="#63b8ff" points="87,-211.98 90.5,-221.98 94,-211.98 87,-211.98"/>
</a>
</g>
</g>
<!-- Node3 -->
<g id="Node000003" class="node">
<title>Node3</title>
<g id="a_Node000003"><a xlink:href="class_cpl_1_1_dm_1_1_model_point.html" target="_top" xlink:title="This mostly abstract class defines the interface for a Model Point.">
<polygon fill="white" stroke="#666666" points="148.5,-297 32.5,-297 32.5,-278 148.5,-278 148.5,-297"/>
<text text-anchor="middle" x="90.5" y="-285" font-family="Helvetica,sans-Serif" font-size="10.00">Cpl::Dm::ModelPoint</text>
</a>
</g>
</g>
<!-- Node3&#45;&gt;Node2 -->
<g id="edge2_Node000002_Node000003" class="edge">
<title>Node3&#45;&gt;Node2</title>
<g id="a_edge2_Node000002_Node000003"><a xlink:title=" ">
<path fill="none" stroke="#63b8ff" d="M90.5,-267.3C90.5,-258.41 90.5,-248.28 90.5,-241.25"/>
<polygon fill="#63b8ff" stroke="#63b8ff" points="87,-267.58 90.5,-277.58 94,-267.58 87,-267.58"/>
</a>
</g>
</g>
<!-- Node4 -->
<g id="Node000004" class="node">
<title>Node4</title>
<g id="a_Node000004"><a xlink:href="class_cpl_1_1_container_1_1_item.html" target="_top" xlink:title="This class is used by the Container classes to implement a various types of singly linked containers.">
<polygon fill="white" stroke="#666666" points="147.5,-353 33.5,-353 33.5,-334 147.5,-334 147.5,-353"/>
<text text-anchor="middle" x="90.5" y="-341" font-family="Helvetica,sans-Serif" font-size="10.00">Cpl::Container::Item</text>
</a>
</g>
</g>
<!-- Node4&#45;&gt;Node3 -->
<g id="edge3_Node000003_Node000004" class="edge">
<title>Node4&#45;&gt;Node3</title>
<g id="a_edge3_Node000003_Node000004"><a xlink:title=" ">
<path fill="none" stroke="#63b8ff" d="M90.5,-323.3C90.5,-314.41 90.5,-304.28 90.5,-297.25"/>
<polygon fill="#63b8ff" stroke="#63b8ff" points="87,-323.58 90.5,-333.58 94,-323.58 87,-323.58"/>
</a>
</g>
</g>
<!-- Node6 -->
<g id="Node000006" class="node">
<title>Node6</title>
<g id="a_Node000006"><a xlink:href="class_ajax_1_1_dm_1_1_mp_fan_mode.html" target="_top" xlink:title="Concrete Model Point the FanMode Enum.">
<polygon fill="white" stroke="#666666" points="153.5,-19 27.5,-19 27.5,0 153.5,0 153.5,-19"/>
<text text-anchor="middle" x="90.5" y="-7" font-family="Helvetica,sans-Serif" font-size="10.00">Ajax::Dm::MpFanMode</text>
</a>
</g>
</g>
<!-- Node5&#45;&gt;Node6 -->
<g id="edge5_Node000005_Node000006" class="edge">
<title>Node5&#45;&gt;Node6</title>
<g id="a_edge5_Node000005_Node000006"><a xlink:title=" ">
<path fill="none" stroke="#63b8ff" d="M90.5,-45.76C90.5,-36.06 90.5,-26.02 90.5,-19.15"/>
<polygon fill="#63b8ff" stroke="#63b8ff" points="87,-46 90.5,-56 94,-46 87,-46"/>
</a>
</g>
</g>
</g>
</svg>
