<?xml version="1.0" encoding="UTF-8" standalone="no"?>
<!DOCTYPE svg PUBLIC "-//W3C//DTD SVG 1.1//EN"
 "http://www.w3.org/Graphics/SVG/1.1/DTD/svg11.dtd">
<!-- Generated by graphviz version 9.0.0 (20230911.1827)
 -->
<!-- Title: Driver::AIO::Eros::Thermistor Pages: 1 -->
<svg width="1931pt" height="384pt"
 viewBox="0.00 0.00 1930.75 384.25" xmlns="http://www.w3.org/2000/svg" xmlns:xlink="http://www.w3.org/1999/xlink">
<g id="graph0" class="graph" transform="scale(1 1) rotate(0) translate(4 380.25)">
<title>Driver::AIO::Eros::Thermistor</title>
<!-- Node1 -->
<g id="Node000001" class="node">
<title>Node1</title>
<g id="a_Node000001"><a xlink:title="This class is an Eros specific extension of the Driver::AIO::Ajax::Thermistor driver.">
<polygon fill="#999999" stroke="#666666" points="1922.75,-232.88 1831,-232.88 1831,-202.38 1922.75,-202.38 1922.75,-232.88"/>
<text text-anchor="start" x="1839" y="-219.38" font-family="Helvetica,sans-Serif" font-size="10.00">Driver::AIO::Eros::</text>
<text text-anchor="middle" x="1876.88" y="-208.12" font-family="Helvetica,sans-Serif" font-size="10.00">Thermistor</text>
</a>
</g>
</g>
<!-- Node2 -->
<g id="Node000002" class="node">
<title>Node2</title>
<g id="a_Node000002"><a xlink:href="class_driver_1_1_a_i_o_1_1_ajax_1_1_thermistor.html" target="_top" xlink:title="This class is responsible for sampling the on&#45;board temperature sensor every N milliseconds and popul...">
<polygon fill="white" stroke="#666666" points="1794,-232.88 1703,-232.88 1703,-202.38 1794,-202.38 1794,-232.88"/>
<text text-anchor="start" x="1711" y="-219.38" font-family="Helvetica,sans-Serif" font-size="10.00">Driver::AIO::Ajax::</text>
<text text-anchor="middle" x="1748.5" y="-208.12" font-family="Helvetica,sans-Serif" font-size="10.00">Thermistor</text>
</a>
</g>
</g>
<!-- Node2&#45;&gt;Node1 -->
<g id="edge1_Node000001_Node000002" class="edge">
<title>Node2&#45;&gt;Node1</title>
<g id="a_edge1_Node000001_Node000002"><a xlink:title=" ">
<path fill="none" stroke="#63b8ff" d="M1805.67,-217.62C1814.04,-217.62 1822.58,-217.62 1830.68,-217.62"/>
<polygon fill="#63b8ff" stroke="#63b8ff" points="1805.92,-214.13 1795.92,-217.63 1805.92,-221.13 1805.92,-214.13"/>
</a>
</g>
</g>
<!-- Node3 -->
<g id="Node000003" class="node">
<title>Node3</title>
<g id="a_Node000003"><a xlink:href="class_cpl_1_1_itc_1_1_close_sync.html" target="_top" xlink:title="This partially concrete class implements the synchronous ITC close call for the CloseApi.">
<polygon fill="white" stroke="#666666" points="1597.25,-283.25 1500.25,-283.25 1500.25,-264 1597.25,-264 1597.25,-283.25"/>
<text text-anchor="middle" x="1548.75" y="-269.75" font-family="Helvetica,sans-Serif" font-size="10.00">Cpl::Itc::CloseSync</text>
</a>
</g>
</g>
<!-- Node3&#45;&gt;Node2 -->
<g id="edge2_Node000002_Node000003" class="edge">
<title>Node3&#45;&gt;Node2</title>
<g id="a_edge2_Node000002_Node000003"><a xlink:title=" ">
<path fill="none" stroke="#63b8ff" d="M1596.02,-260.52C1628.2,-251.41 1670.88,-239.32 1702.74,-230.3"/>
<polygon fill="#63b8ff" stroke="#63b8ff" points="1595.23,-257.11 1586.56,-263.2 1597.14,-263.84 1595.23,-257.11"/>
</a>
</g>
</g>
<!-- Node4 -->
<g id="Node000004" class="node">
<title>Node4</title>
<g id="a_Node000004"><a xlink:href="class_cpl_1_1_itc_1_1_open_sync.html" target="_top" xlink:title="This partially concrete class implements the synchronous ITC open call for the OpenApi.">
<polygon fill="white" stroke="#666666" points="1455.38,-339.25 1359.88,-339.25 1359.88,-320 1455.38,-320 1455.38,-339.25"/>
<text text-anchor="middle" x="1407.62" y="-325.75" font-family="Helvetica,sans-Serif" font-size="10.00">Cpl::Itc::OpenSync</text>
</a>
</g>
</g>
<!-- Node4&#45;&gt;Node3 -->
<g id="edge3_Node000003_Node000004" class="edge">
<title>Node4&#45;&gt;Node3</title>
<g id="a_edge3_Node000003_Node000004"><a xlink:title=" ">
<path fill="none" stroke="#63b8ff" d="M1451.95,-315.81C1455.79,-314.45 1459.6,-313.04 1463.25,-311.62 1485.44,-303.01 1510.22,-291.65 1527.17,-283.61"/>
<polygon fill="#63b8ff" stroke="#63b8ff" points="1450.92,-312.46 1442.61,-319.02 1453.2,-319.08 1450.92,-312.46"/>
</a>
</g>
</g>
<!-- Node5 -->
<g id="Node000005" class="node">
<title>Node5</title>
<g id="a_Node000005"><a xlink:href="class_cpl_1_1_itc_1_1_open_api.html" target="_top" xlink:title="This abstract class defines an open interface.">
<polygon fill="white" stroke="#666666" points="1220,-376.25 1132,-376.25 1132,-357 1220,-357 1220,-376.25"/>
<text text-anchor="middle" x="1176" y="-362.75" font-family="Helvetica,sans-Serif" font-size="10.00">Cpl::Itc::OpenApi</text>
</a>
</g>
</g>
<!-- Node5&#45;&gt;Node4 -->
<g id="edge4_Node000004_Node000005" class="edge">
<title>Node5&#45;&gt;Node4</title>
<g id="a_edge4_Node000004_Node000005"><a xlink:title=" ">
<path fill="none" stroke="#63b8ff" d="M1231.57,-359.25C1261.81,-355 1300.04,-349.38 1334,-343.62 1342.23,-342.23 1350.96,-340.64 1359.41,-339.05"/>
<polygon fill="#63b8ff" stroke="#63b8ff" points="1231.32,-355.75 1221.9,-360.59 1232.28,-362.68 1231.32,-355.75"/>
</a>
</g>
</g>
<!-- Node6 -->
<g id="Node000006" class="node">
<title>Node6</title>
<g id="a_Node000006"><a xlink:href="class_cpl_1_1_itc_1_1_open_request.html" target="_top" xlink:title="This abstract class define message types and payloads for a set of ITC services.">
<polygon fill="white" stroke="#666666" points="1230.88,-339.25 1121.12,-339.25 1121.12,-320 1230.88,-320 1230.88,-339.25"/>
<text text-anchor="middle" x="1176" y="-325.75" font-family="Helvetica,sans-Serif" font-size="10.00">Cpl::Itc::OpenRequest</text>
</a>
</g>
</g>
<!-- Node6&#45;&gt;Node4 -->
<g id="edge5_Node000004_Node000006" class="edge">
<title>Node6&#45;&gt;Node4</title>
<g id="a_edge5_Node000004_Node000006"><a xlink:title=" ">
<path fill="none" stroke="#63b8ff" d="M1242.41,-329.62C1279.74,-329.62 1325.68,-329.62 1359.47,-329.62"/>
<polygon fill="#63b8ff" stroke="#63b8ff" points="1242.64,-326.13 1232.64,-329.63 1242.64,-333.13 1242.64,-326.13"/>
</a>
</g>
</g>
<!-- Node7 -->
<g id="Node000007" class="node">
<title>Node7</title>
<g id="a_Node000007"><a xlink:href="class_cpl_1_1_itc_1_1_post_api.html" target="_top" xlink:title="This abstract class represents the interface used to send messages to a mailbox.">
<polygon fill="white" stroke="#666666" points="1218.5,-302.25 1133.5,-302.25 1133.5,-283 1218.5,-283 1218.5,-302.25"/>
<text text-anchor="middle" x="1176" y="-288.75" font-family="Helvetica,sans-Serif" font-size="10.00">Cpl::Itc::PostApi</text>
</a>
</g>
</g>
<!-- Node7&#45;&gt;Node4 -->
<g id="edge6_Node000004_Node000007" class="edge">
<title>Node7&#45;&gt;Node4</title>
<g id="a_edge6_Node000004_Node000007"><a xlink:title=" ">
<path fill="none" stroke="#9a32cd" stroke-dasharray="5,2" d="M1230.02,-299.04C1260.51,-302.96 1299.5,-308.37 1334,-314.38 1342.76,-315.9 1352.07,-317.71 1361,-319.54"/>
<polygon fill="#9a32cd" stroke="#9a32cd" points="1230.64,-295.59 1220.27,-297.8 1229.75,-302.53 1230.64,-295.59"/>
</a>
</g>
<text text-anchor="middle" x="1296.5" y="-315.38" font-family="Helvetica,sans-Serif" font-size="10.00" fill="grey"> m_mbox</text>
</g>
<!-- Node8 -->
<g id="Node000008" class="node">
<title>Node8</title>
<g id="a_Node000008"><a xlink:href="class_cpl_1_1_itc_1_1_close_api.html" target="_top" xlink:title="This abstract class defines an close interface.">
<polygon fill="white" stroke="#666666" points="1452.38,-302.25 1362.88,-302.25 1362.88,-283 1452.38,-283 1452.38,-302.25"/>
<text text-anchor="middle" x="1407.62" y="-288.75" font-family="Helvetica,sans-Serif" font-size="10.00">Cpl::Itc::CloseApi</text>
</a>
</g>
</g>
<!-- Node8&#45;&gt;Node3 -->
<g id="edge7_Node000003_Node000008" class="edge">
<title>Node8&#45;&gt;Node3</title>
<g id="a_edge7_Node000003_Node000008"><a xlink:title=" ">
<path fill="none" stroke="#63b8ff" d="M1463.91,-285.07C1475.91,-283.44 1488.5,-281.72 1500.16,-280.12"/>
<polygon fill="#63b8ff" stroke="#63b8ff" points="1463.58,-281.59 1454.14,-286.41 1464.53,-288.52 1463.58,-281.59"/>
</a>
</g>
</g>
<!-- Node9 -->
<g id="Node000009" class="node">
<title>Node9</title>
<g id="a_Node000009"><a xlink:href="class_cpl_1_1_itc_1_1_close_request.html" target="_top" xlink:title="This abstract class define message types and payloads for a set of ITC services.">
<polygon fill="white" stroke="#666666" points="1463.25,-265.25 1352,-265.25 1352,-246 1463.25,-246 1463.25,-265.25"/>
<text text-anchor="middle" x="1407.62" y="-251.75" font-family="Helvetica,sans-Serif" font-size="10.00">Cpl::Itc::CloseRequest</text>
</a>
</g>
</g>
<!-- Node9&#45;&gt;Node3 -->
<g id="edge8_Node000003_Node000009" class="edge">
<title>Node9&#45;&gt;Node3</title>
<g id="a_edge8_Node000003_Node000009"><a xlink:title=" ">
<path fill="none" stroke="#63b8ff" d="M1474.99,-264.21C1483.4,-265.3 1491.87,-266.4 1499.91,-267.44"/>
<polygon fill="#63b8ff" stroke="#63b8ff" points="1475.48,-260.75 1465.11,-262.93 1474.58,-267.69 1475.48,-260.75"/>
</a>
</g>
</g>
<!-- Node10 -->
<g id="Node000010" class="node">
<title>Node10</title>
<g id="a_Node000010"><a xlink:href="class_cpl_1_1_system_1_1_timer.html" target="_top" xlink:title="This mostly concrete interface defines the operations that can be performed on a software timer.">
<polygon fill="white" stroke="#666666" points="1224.5,-235.25 1127.5,-235.25 1127.5,-216 1224.5,-216 1224.5,-235.25"/>
<text text-anchor="middle" x="1176" y="-221.75" font-family="Helvetica,sans-Serif" font-size="10.00">Cpl::System::Timer</text>
</a>
</g>
</g>
<!-- Node10&#45;&gt;Node2 -->
<g id="edge9_Node000002_Node000010" class="edge">
<title>Node10&#45;&gt;Node2</title>
<g id="a_edge9_Node000002_Node000010"><a xlink:title=" ">
<path fill="none" stroke="#63b8ff" d="M1235.97,-224.8C1350.48,-223.19 1600.64,-219.68 1702.75,-218.25"/>
<polygon fill="#63b8ff" stroke="#63b8ff" points="1236.12,-221.3 1226.17,-224.94 1236.22,-228.29 1236.12,-221.3"/>
</a>
</g>
</g>
<!-- Node11 -->
<g id="Node000011" class="node">
<title>Node11</title>
<g id="a_Node000011"><a xlink:href="class_cpl_1_1_system_1_1_counter_callback__.html" target="_top" xlink:title="This abstract class defines the call&#45;back interface for a Counter object.">
<polygon fill="white" stroke="#666666" points="1002.25,-274.25 853.5,-274.25 853.5,-255 1002.25,-255 1002.25,-274.25"/>
<text text-anchor="middle" x="927.88" y="-260.75" font-family="Helvetica,sans-Serif" font-size="10.00">Cpl::System::CounterCallback_</text>
</a>
</g>
</g>
<!-- Node11&#45;&gt;Node10 -->
<g id="edge10_Node000010_Node000011" class="edge">
<title>Node11&#45;&gt;Node10</title>
<g id="a_edge10_Node000010_Node000011"><a xlink:title=" ">
<path fill="none" stroke="#63b8ff" d="M1012.91,-252.93C1038.64,-249.19 1067.01,-244.9 1093,-240.62 1104.14,-238.79 1116.1,-236.68 1127.35,-234.64"/>
<polygon fill="#63b8ff" stroke="#63b8ff" points="1012.57,-249.44 1003.17,-254.33 1013.57,-256.37 1012.57,-249.44"/>
</a>
</g>
</g>
<!-- Node12 -->
<g id="Node000012" class="node">
<title>Node12</title>
<g id="a_Node000012"><a xlink:href="class_cpl_1_1_container_1_1_extended_item.html" target="_top" xlink:title="This class is used by the Container classes to implement a various types of DOUBLY linked containers.">
<polygon fill="white" stroke="#666666" points="721.5,-284.25 581.75,-284.25 581.75,-265 721.5,-265 721.5,-284.25"/>
<text text-anchor="middle" x="651.62" y="-270.75" font-family="Helvetica,sans-Serif" font-size="10.00">Cpl::Container::ExtendedItem</text>
</a>
</g>
</g>
<!-- Node12&#45;&gt;Node11 -->
<g id="edge11_Node000011_Node000012" class="edge">
<title>Node12&#45;&gt;Node11</title>
<g id="a_edge11_Node000011_Node000012"><a xlink:title=" ">
<path fill="none" stroke="#63b8ff" d="M732.89,-271.7C770.98,-270.31 816.18,-268.66 853.37,-267.31"/>
<polygon fill="#63b8ff" stroke="#63b8ff" points="733.21,-268.18 723.34,-272.05 733.46,-275.18 733.21,-268.18"/>
</a>
</g>
</g>
<!-- Node13 -->
<g id="Node000013" class="node">
<title>Node13</title>
<g id="a_Node000013"><a xlink:href="class_cpl_1_1_container_1_1_item.html" target="_top" xlink:title="This class is used by the Container classes to implement a various types of singly linked containers.">
<polygon fill="white" stroke="#666666" points="363.5,-246.25 263.5,-246.25 263.5,-227 363.5,-227 363.5,-246.25"/>
<text text-anchor="middle" x="313.5" y="-232.75" font-family="Helvetica,sans-Serif" font-size="10.00">Cpl::Container::Item</text>
</a>
</g>
</g>
<!-- Node13&#45;&gt;Node12 -->
<g id="edge12_Node000012_Node000013" class="edge">
<title>Node13&#45;&gt;Node12</title>
<g id="a_edge12_Node000012_Node000013"><a xlink:title=" ">
<path fill="none" stroke="#63b8ff" d="M374.93,-243.46C432.98,-250.02 520.58,-259.92 581.4,-266.8"/>
<polygon fill="#63b8ff" stroke="#63b8ff" points="375.57,-240.01 365.24,-242.36 374.78,-246.96 375.57,-240.01"/>
</a>
</g>
</g>
<!-- Node21 -->
<g id="Node000021" class="node">
<title>Node21</title>
<g id="a_Node000021"><a xlink:href="class_cpl_1_1_dm_1_1_model_point.html" target="_top" xlink:title="This mostly abstract class defines the interface for a Model Point.">
<polygon fill="white" stroke="#666666" points="703.12,-210.25 600.12,-210.25 600.12,-191 703.12,-191 703.12,-210.25"/>
<text text-anchor="middle" x="651.62" y="-196.75" font-family="Helvetica,sans-Serif" font-size="10.00">Cpl::Dm::ModelPoint</text>
</a>
</g>
</g>
<!-- Node13&#45;&gt;Node21 -->
<g id="edge21_Node000021_Node000013" class="edge">
<title>Node13&#45;&gt;Node21</title>
<g id="a_edge21_Node000021_Node000013"><a xlink:title=" ">
<path fill="none" stroke="#63b8ff" d="M374.9,-230.16C439.13,-223.28 539.6,-212.52 599.88,-206.06"/>
<polygon fill="#63b8ff" stroke="#63b8ff" points="374.81,-226.65 365.24,-231.19 375.56,-233.61 374.81,-226.65"/>
</a>
</g>
</g>
<!-- Node14 -->
<g id="Node000014" class="node">
<title>Node14</title>
<g id="a_Node000014"><a xlink:href="class_cpl_1_1_system_1_1_timer_manager.html" target="_top" xlink:title="This mostly concrete class implements manages a list of Software Timers.">
<polygon fill="white" stroke="#666666" points="995.12,-235.25 860.62,-235.25 860.62,-216 995.12,-216 995.12,-235.25"/>
<text text-anchor="middle" x="927.88" y="-221.75" font-family="Helvetica,sans-Serif" font-size="10.00">Cpl::System::TimerManager</text>
</a>
</g>
</g>
<!-- Node14&#45;&gt;Node10 -->
<g id="edge13_Node000010_Node000014" class="edge">
<title>Node14&#45;&gt;Node10</title>
<g id="a_edge13_Node000010_Node000014"><a xlink:title=" ">
<path fill="none" stroke="#9a32cd" stroke-dasharray="5,2" d="M1006.93,-225.62C1046.37,-225.62 1092.96,-225.62 1127.07,-225.62"/>
<polygon fill="#9a32cd" stroke="#9a32cd" points="1006.99,-222.13 996.99,-225.63 1006.99,-229.13 1006.99,-222.13"/>
</a>
</g>
<text text-anchor="middle" x="1056.62" y="-227.38" font-family="Helvetica,sans-Serif" font-size="10.00" fill="grey"> m_timingSource</text>
</g>
<!-- Node15 -->
<g id="Node000015" class="node">
<title>Node15</title>
<g id="a_Node000015"><a xlink:href="class_cpl_1_1_system_1_1_counter_source__.html" target="_top" xlink:title="This abstract class defines the interface for registering for an Counter object with the Timer Manage...">
<polygon fill="white" stroke="#666666" points="722.62,-247.25 580.62,-247.25 580.62,-228 722.62,-228 722.62,-247.25"/>
<text text-anchor="middle" x="651.62" y="-233.75" font-family="Helvetica,sans-Serif" font-size="10.00">Cpl::System::CounterSource_</text>
</a>
</g>
</g>
<!-- Node15&#45;&gt;Node14 -->
<g id="edge14_Node000014_Node000015" class="edge">
<title>Node15&#45;&gt;Node14</title>
<g id="a_edge14_Node000014_Node000015"><a xlink:title=" ">
<path fill="none" stroke="#63b8ff" d="M734.31,-234.05C774.61,-232.29 822.58,-230.19 860.56,-228.53"/>
<polygon fill="#63b8ff" stroke="#63b8ff" points="734.24,-230.55 724.41,-234.48 734.55,-237.54 734.24,-230.55"/>
</a>
</g>
</g>
<!-- Node16 -->
<g id="Node000016" class="node">
<title>Node16</title>
<g id="a_Node000016"><a xlink:href="class_cpl_1_1_container_1_1_d_list.html" target="_top" xlink:title=" ">
<polygon fill="white" stroke="#666666" points="734.25,-172.88 569,-172.88 569,-142.38 734.25,-142.38 734.25,-172.88"/>
<text text-anchor="start" x="577" y="-159.38" font-family="Helvetica,sans-Serif" font-size="10.00">Cpl::Container::DList</text>
<text text-anchor="middle" x="651.62" y="-148.12" font-family="Helvetica,sans-Serif" font-size="10.00">&lt; Cpl::System::CounterCallback_ &gt;</text>
</a>
</g>
</g>
<!-- Node16&#45;&gt;Node14 -->
<g id="edge15_Node000014_Node000016" class="edge">
<title>Node16&#45;&gt;Node14</title>
<g id="a_edge15_Node000014_Node000016"><a xlink:title=" ">
<path fill="none" stroke="#9a32cd" stroke-dasharray="5,2" d="M726.9,-176.04C778.08,-188.73 844.16,-205.12 886.05,-215.5"/>
<polygon fill="#9a32cd" stroke="#9a32cd" points="727.91,-172.68 717.36,-173.68 726.22,-179.48 727.91,-172.68"/>
</a>
</g>
<text text-anchor="middle" x="793.88" y="-214.62" font-family="Helvetica,sans-Serif" font-size="10.00" fill="grey"> m_counters</text>
<text text-anchor="middle" x="793.88" y="-203.38" font-family="Helvetica,sans-Serif" font-size="10.00" fill="grey">m_pendingAttach</text>
</g>
<!-- Node17 -->
<g id="Node000017" class="node">
<title>Node17</title>
<g id="a_Node000017"><a xlink:href="class_cpl_1_1_container_1_1_d_list.html" target="_top" xlink:title="This template class implements a Doubly linked list which maintains the ordering imposed on it by the...">
<polygon fill="white" stroke="#666666" points="365.38,-163.88 261.62,-163.88 261.62,-133.38 365.38,-133.38 365.38,-163.88"/>
<text text-anchor="start" x="269.62" y="-150.38" font-family="Helvetica,sans-Serif" font-size="10.00">Cpl::Container::DList</text>
<text text-anchor="middle" x="313.5" y="-139.12" font-family="Helvetica,sans-Serif" font-size="10.00">&lt; ITEM &gt;</text>
</a>
</g>
</g>
<!-- Node17&#45;&gt;Node16 -->
<g id="edge16_Node000016_Node000017" class="edge">
<title>Node17&#45;&gt;Node16</title>
<g id="a_edge16_Node000016_Node000017"><a xlink:title=" ">
<path fill="none" stroke="orange" stroke-dasharray="5,2" d="M377.03,-150.3C431.08,-151.75 509.57,-153.85 568.63,-155.43"/>
<polygon fill="orange" stroke="orange" points="377.15,-146.8 367.06,-150.03 376.97,-153.8 377.15,-146.8"/>
</a>
</g>
<text text-anchor="middle" x="475.25" y="-156.38" font-family="Helvetica,sans-Serif" font-size="10.00" fill="grey"> &lt; Cpl::System::CounterCallback_ &gt;</text>
</g>
<!-- Node22 -->
<g id="Node000022" class="node">
<title>Node22</title>
<g id="a_Node000022"><a xlink:href="class_cpl_1_1_container_1_1_d_list.html" target="_top" xlink:title=" ">
<polygon fill="white" stroke="#666666" points="717.38,-123.88 585.88,-123.88 585.88,-93.38 717.38,-93.38 717.38,-123.88"/>
<text text-anchor="start" x="593.88" y="-110.38" font-family="Helvetica,sans-Serif" font-size="10.00">Cpl::Container::DList</text>
<text text-anchor="middle" x="651.62" y="-99.12" font-family="Helvetica,sans-Serif" font-size="10.00">&lt; Cpl::Dm::SubscriberApi &gt;</text>
</a>
</g>
</g>
<!-- Node17&#45;&gt;Node22 -->
<g id="edge23_Node000022_Node000017" class="edge">
<title>Node17&#45;&gt;Node22</title>
<g id="a_edge23_Node000022_Node000017"><a xlink:title=" ">
<path fill="none" stroke="orange" stroke-dasharray="5,2" d="M377.05,-138.52C384.61,-137.41 392.22,-136.33 399.5,-135.38 462.54,-127.11 534.73,-119.63 585.48,-114.69"/>
<polygon fill="orange" stroke="orange" points="376.55,-135.06 367.18,-140.01 377.59,-141.98 376.55,-135.06"/>
</a>
</g>
<text text-anchor="middle" x="475.25" y="-136.38" font-family="Helvetica,sans-Serif" font-size="10.00" fill="grey"> &lt; Cpl::Dm::SubscriberApi &gt;</text>
</g>
<!-- Node18 -->
<g id="Node000018" class="node">
<title>Node18</title>
<g id="a_Node000018"><a xlink:href="class_cpl_1_1_dm_1_1_mp_1_1_int32.html" target="_top" xlink:title="This class provides a concrete implementation for a Point who&#39;s data is a int32_t.">
<polygon fill="white" stroke="#666666" points="1595.75,-188.25 1501.75,-188.25 1501.75,-169 1595.75,-169 1595.75,-188.25"/>
<text text-anchor="middle" x="1548.75" y="-174.75" font-family="Helvetica,sans-Serif" font-size="10.00">Cpl::Dm::Mp::Int32</text>
</a>
</g>
</g>
<!-- Node18&#45;&gt;Node2 -->
<g id="edge17_Node000002_Node000018" class="edge">
<title>Node18&#45;&gt;Node2</title>
<g id="a_edge17_Node000002_Node000018"><a xlink:title=" ">
<path fill="none" stroke="#9a32cd" stroke-dasharray="5,2" d="M1607.2,-180.87C1631.47,-182.74 1659.88,-186.16 1685,-192.38 1694.54,-194.74 1704.55,-198.27 1713.69,-201.95"/>
<polygon fill="#9a32cd" stroke="#9a32cd" points="1607.73,-177.4 1597.51,-180.2 1607.25,-184.38 1607.73,-177.4"/>
</a>
</g>
<text text-anchor="middle" x="1650.12" y="-193.38" font-family="Helvetica,sans-Serif" font-size="10.00" fill="grey"> m_mpTempOut</text>
</g>
<!-- Node19 -->
<g id="Node000019" class="node">
<title>Node19</title>
<g id="a_Node000019"><a xlink:href="class_cpl_1_1_dm_1_1_mp_1_1_numeric.html" target="_top" xlink:title=" ">
<polygon fill="white" stroke="#666666" points="1462.12,-174.88 1353.12,-174.88 1353.12,-144.38 1462.12,-144.38 1462.12,-174.88"/>
<text text-anchor="start" x="1361.12" y="-161.38" font-family="Helvetica,sans-Serif" font-size="10.00">Cpl::Dm::Mp::Numeric</text>
<text text-anchor="middle" x="1407.62" y="-150.12" font-family="Helvetica,sans-Serif" font-size="10.00">&lt; int32_t, Int32 &gt;</text>
</a>
</g>
</g>
<!-- Node19&#45;&gt;Node18 -->
<g id="edge18_Node000018_Node000019" class="edge">
<title>Node19&#45;&gt;Node18</title>
<g id="a_edge18_Node000018_Node000019"><a xlink:title=" ">
<path fill="none" stroke="#63b8ff" d="M1473.7,-168.51C1483.03,-169.79 1492.47,-171.08 1501.34,-172.29"/>
<polygon fill="#63b8ff" stroke="#63b8ff" points="1474.3,-165.06 1463.91,-167.18 1473.35,-172 1474.3,-165.06"/>
</a>
</g>
</g>
<!-- Node20 -->
<g id="Node000020" class="node">
<title>Node20</title>
<g id="a_Node000020"><a xlink:href="class_cpl_1_1_dm_1_1_model_point_common__.html" target="_top" xlink:title="This concrete class provide common infrastructure for a Model Point.">
<polygon fill="white" stroke="#666666" points="1001.5,-126.25 854.25,-126.25 854.25,-107 1001.5,-107 1001.5,-126.25"/>
<text text-anchor="middle" x="927.88" y="-112.75" font-family="Helvetica,sans-Serif" font-size="10.00">Cpl::Dm::ModelPointCommon_</text>
</a>
</g>
</g>
<!-- Node20&#45;&gt;Node19 -->
<g id="edge19_Node000019_Node000020" class="edge">
<title>Node20&#45;&gt;Node19</title>
<g id="a_edge19_Node000019_Node000020"><a xlink:title=" ">
<path fill="none" stroke="#63b8ff" d="M1003.27,-128.29C1009.01,-129.11 1014.72,-129.9 1020.25,-130.62 1138.3,-146.16 1277.81,-154.08 1352.67,-157.48"/>
<polygon fill="#63b8ff" stroke="#63b8ff" points="1004.13,-124.88 993.73,-126.91 1003.13,-131.81 1004.13,-124.88"/>
</a>
</g>
</g>
<!-- Node28 -->
<g id="Node000028" class="node">
<title>Node28</title>
<g id="a_Node000028"><a xlink:href="class_cpl_1_1_dm_1_1_mp_1_1_numeric.html" target="_top" xlink:title="This template class provides a mostly concrete implementation for a Model Point who&#39;s data is a C num...">
<polygon fill="white" stroke="#666666" points="1241,-131.88 1111,-131.88 1111,-101.38 1241,-101.38 1241,-131.88"/>
<text text-anchor="start" x="1119" y="-118.38" font-family="Helvetica,sans-Serif" font-size="10.00">Cpl::Dm::Mp::Numeric</text>
<text text-anchor="middle" x="1176" y="-107.12" font-family="Helvetica,sans-Serif" font-size="10.00">&lt; ELEMTYPE, MPTYPE &gt;</text>
</a>
</g>
</g>
<!-- Node20&#45;&gt;Node28 -->
<g id="edge30_Node000028_Node000020" class="edge">
<title>Node20&#45;&gt;Node28</title>
<g id="a_edge30_Node000028_Node000020"><a xlink:title=" ">
<path fill="none" stroke="#63b8ff" d="M1012.86,-116.62C1044.87,-116.62 1080.81,-116.62 1110.7,-116.62"/>
<polygon fill="#63b8ff" stroke="#63b8ff" points="1013.24,-113.13 1003.24,-116.63 1013.24,-120.13 1013.24,-113.13"/>
</a>
</g>
</g>
<!-- Node21&#45;&gt;Node20 -->
<g id="edge20_Node000020_Node000021" class="edge">
<title>Node21&#45;&gt;Node20</title>
<g id="a_edge20_Node000020_Node000021"><a xlink:title=" ">
<path fill="none" stroke="#63b8ff" d="M714.99,-204.02C751.26,-203.94 797.23,-200.22 835.5,-185.62 869.86,-172.52 902.28,-142.32 917.62,-126.58"/>
<polygon fill="#63b8ff" stroke="#63b8ff" points="715.12,-200.52 705.09,-203.94 715.06,-207.52 715.12,-200.52"/>
</a>
</g>
</g>
<!-- Node22&#45;&gt;Node20 -->
<g id="edge22_Node000020_Node000022" class="edge">
<title>Node22&#45;&gt;Node20</title>
<g id="a_edge22_Node000020_Node000022"><a xlink:title=" ">
<path fill="none" stroke="#9a32cd" stroke-dasharray="5,2" d="M728.95,-110.85C768.09,-111.99 815.52,-113.38 854.14,-114.5"/>
<polygon fill="#9a32cd" stroke="#9a32cd" points="729.23,-107.36 719.13,-110.57 729.02,-114.36 729.23,-107.36"/>
</a>
</g>
<text text-anchor="middle" x="793.88" y="-115.38" font-family="Helvetica,sans-Serif" font-size="10.00" fill="grey"> m_subscribers</text>
</g>
<!-- Node23 -->
<g id="Node000023" class="node">
<title>Node23</title>
<g id="a_Node000023"><a xlink:href="class_cpl_1_1_dm_1_1_model_database.html" target="_top" xlink:title="This concrete class implements a simple Model Database.">
<polygon fill="white" stroke="#666666" points="712.5,-75.25 590.75,-75.25 590.75,-56 712.5,-56 712.5,-75.25"/>
<text text-anchor="middle" x="651.62" y="-61.75" font-family="Helvetica,sans-Serif" font-size="10.00">Cpl::Dm::ModelDatabase</text>
</a>
</g>
</g>
<!-- Node23&#45;&gt;Node20 -->
<g id="edge24_Node000020_Node000023" class="edge">
<title>Node23&#45;&gt;Node20</title>
<g id="a_edge24_Node000020_Node000023"><a xlink:title=" ">
<path fill="none" stroke="#9a32cd" stroke-dasharray="5,2" d="M724.08,-76.77C757.93,-82.27 798.87,-89.24 835.5,-96.38 851.29,-99.45 868.53,-103.18 883.74,-106.59"/>
<polygon fill="#9a32cd" stroke="#9a32cd" points="724.82,-73.34 714.39,-75.2 723.7,-80.25 724.82,-73.34"/>
</a>
</g>
<text text-anchor="middle" x="793.88" y="-97.38" font-family="Helvetica,sans-Serif" font-size="10.00" fill="grey"> m_modelDatabase</text>
</g>
<!-- Node24 -->
<g id="Node000024" class="node">
<title>Node24</title>
<g id="a_Node000024"><a xlink:href="class_cpl_1_1_dm_1_1_model_database_api.html" target="_top" xlink:title="This class defines the basic operations that can be performed on a Model Base.">
<polygon fill="white" stroke="#666666" points="381.5,-105.25 245.5,-105.25 245.5,-86 381.5,-86 381.5,-105.25"/>
<text text-anchor="middle" x="313.5" y="-91.75" font-family="Helvetica,sans-Serif" font-size="10.00">Cpl::Dm::ModelDatabaseApi</text>
</a>
</g>
</g>
<!-- Node24&#45;&gt;Node23 -->
<g id="edge25_Node000023_Node000024" class="edge">
<title>Node24&#45;&gt;Node23</title>
<g id="a_edge25_Node000023_Node000024"><a xlink:title=" ">
<path fill="none" stroke="#63b8ff" d="M393.21,-89.28C439.23,-85.49 498.42,-80.49 551,-75.62 563.72,-74.45 577.35,-73.12 590.32,-71.83"/>
<polygon fill="#63b8ff" stroke="#63b8ff" points="392.99,-85.79 383.31,-90.09 393.57,-92.76 392.99,-85.79"/>
</a>
</g>
</g>
<!-- Node25 -->
<g id="Node000025" class="node">
<title>Node25</title>
<g id="a_Node000025"><a xlink:href="class_cpl_1_1_container_1_1_s_list.html" target="_top" xlink:title=" ">
<polygon fill="white" stroke="#666666" points="373.25,-67.88 253.75,-67.88 253.75,-37.38 373.25,-37.38 373.25,-67.88"/>
<text text-anchor="start" x="261.75" y="-54.38" font-family="Helvetica,sans-Serif" font-size="10.00">Cpl::Container::SList</text>
<text text-anchor="middle" x="313.5" y="-43.12" font-family="Helvetica,sans-Serif" font-size="10.00">&lt; Cpl::Dm::ModelPoint &gt;</text>
</a>
</g>
</g>
<!-- Node25&#45;&gt;Node23 -->
<g id="edge26_Node000023_Node000025" class="edge">
<title>Node25&#45;&gt;Node23</title>
<g id="a_edge26_Node000023_Node000025"><a xlink:title=" ">
<path fill="none" stroke="#9a32cd" stroke-dasharray="5,2" d="M384.85,-55.35C445.68,-57.7 532.66,-61.06 590.34,-63.29"/>
<polygon fill="#9a32cd" stroke="#9a32cd" points="385.07,-51.85 374.95,-54.96 384.8,-58.85 385.07,-51.85"/>
</a>
</g>
<text text-anchor="middle" x="475.25" y="-62.38" font-family="Helvetica,sans-Serif" font-size="10.00" fill="grey"> m_list</text>
</g>
<!-- Node26 -->
<g id="Node000026" class="node">
<title>Node26</title>
<g id="a_Node000026"><a xlink:href="class_cpl_1_1_container_1_1_s_list.html" target="_top" xlink:title="This template class implements a singly linked list which maintains the ordering imposed on it by the...">
<polygon fill="white" stroke="#666666" points="103.75,-67.88 0,-67.88 0,-37.38 103.75,-37.38 103.75,-67.88"/>
<text text-anchor="start" x="8" y="-54.38" font-family="Helvetica,sans-Serif" font-size="10.00">Cpl::Container::SList</text>
<text text-anchor="middle" x="51.88" y="-43.12" font-family="Helvetica,sans-Serif" font-size="10.00">&lt; ITEM &gt;</text>
</a>
</g>
</g>
<!-- Node26&#45;&gt;Node25 -->
<g id="edge27_Node000025_Node000026" class="edge">
<title>Node26&#45;&gt;Node25</title>
<g id="a_edge27_Node000025_Node000026"><a xlink:title=" ">
<path fill="none" stroke="orange" stroke-dasharray="5,2" d="M115.64,-52.62C157.61,-52.62 212.46,-52.62 253.6,-52.62"/>
<polygon fill="orange" stroke="orange" points="115.68,-49.13 105.68,-52.63 115.68,-56.13 115.68,-49.13"/>
</a>
</g>
<text text-anchor="middle" x="174.62" y="-54.38" font-family="Helvetica,sans-Serif" font-size="10.00" fill="grey"> &lt; Cpl::Dm::ModelPoint &gt;</text>
</g>
<!-- Node27 -->
<g id="Node000027" class="node">
<title>Node27</title>
<g id="a_Node000027"><a xlink:href="class_cpl_1_1_system_1_1_mutex.html" target="_top" xlink:title="This mutex class defines the interface for a mutex that has &quot;recursive&quot; semantics.">
<polygon fill="white" stroke="#666666" points="362.75,-19.25 264.25,-19.25 264.25,0 362.75,0 362.75,-19.25"/>
<text text-anchor="middle" x="313.5" y="-5.75" font-family="Helvetica,sans-Serif" font-size="10.00">Cpl::System::Mutex</text>
</a>
</g>
</g>
<!-- Node27&#45;&gt;Node23 -->
<g id="edge28_Node000023_Node000027" class="edge">
<title>Node27&#45;&gt;Node23</title>
<g id="a_edge28_Node000023_Node000027"><a xlink:title=" ">
<path fill="none" stroke="#9a32cd" stroke-dasharray="5,2" d="M374.66,-15.45C422.65,-20.58 491.45,-29 551,-40.38 572.56,-44.49 596.4,-50.48 615.35,-55.6"/>
<polygon fill="#9a32cd" stroke="#9a32cd" points="375.05,-11.97 364.74,-14.41 374.32,-18.93 375.05,-11.97"/>
</a>
</g>
<text text-anchor="middle" x="475.25" y="-42.38" font-family="Helvetica,sans-Serif" font-size="10.00" fill="grey"> m_lock</text>
</g>
<!-- Node28&#45;&gt;Node19 -->
<g id="edge29_Node000019_Node000028" class="edge">
<title>Node28&#45;&gt;Node19</title>
<g id="a_edge29_Node000019_Node000028"><a xlink:title=" ">
<path fill="none" stroke="orange" stroke-dasharray="5,2" d="M1252.64,-121.75C1278.64,-124.42 1307.79,-128.41 1334,-134.38 1344.8,-136.83 1356.24,-140.35 1366.75,-143.98"/>
<polygon fill="orange" stroke="orange" points="1253.12,-118.28 1242.83,-120.8 1252.45,-125.25 1253.12,-118.28"/>
</a>
</g>
<text text-anchor="middle" x="1296.5" y="-135.38" font-family="Helvetica,sans-Serif" font-size="10.00" fill="grey"> &lt; int32_t, Int32 &gt;</text>
</g>
</g>
</svg>
