<?xml version="1.0" encoding="UTF-8" standalone="no"?>
<!DOCTYPE svg PUBLIC "-//W3C//DTD SVG 1.1//EN"
 "http://www.w3.org/Graphics/SVG/1.1/DTD/svg11.dtd">
<!-- Generated by graphviz version 9.0.0 (20230911.1827)
 -->
<!-- Title: Cpl::Dm::Mp::String&lt; S &gt; Pages: 1 -->
<svg width="155pt" height="248pt"
 viewBox="0.00 0.00 155.25 248.25" xmlns="http://www.w3.org/2000/svg" xmlns:xlink="http://www.w3.org/1999/xlink">
<g id="graph0" class="graph" transform="scale(1 1) rotate(0) translate(4 244.25)">
<title>Cpl::Dm::Mp::String&lt; S &gt;</title>
<!-- Node1 -->
<g id="Node000001" class="node">
<title>Node1</title>
<g id="a_Node000001"><a xlink:title="This concrete template class provides the storage for a Point who&#39;s data is a null terminated string.">
<polygon fill="#999999" stroke="#666666" points="134.12,-19.25 13.12,-19.25 13.12,0 134.12,0 134.12,-19.25"/>
<text text-anchor="middle" x="73.62" y="-5.75" font-family="Helvetica,sans-Serif" font-size="10.00">Cpl::Dm::Mp::String&lt; S &gt;</text>
</a>
</g>
</g>
<!-- Node2 -->
<g id="Node000002" class="node">
<title>Node2</title>
<g id="a_Node000002"><a xlink:href="class_cpl_1_1_dm_1_1_mp_1_1_string_base__.html" target="_top" xlink:title="This mostly concrete class provides the base implementation for a Point who&#39;s data is a null terminat...">
<polygon fill="white" stroke="#666666" points="136.38,-74.5 10.88,-74.5 10.88,-55.25 136.38,-55.25 136.38,-74.5"/>
<text text-anchor="middle" x="73.62" y="-61" font-family="Helvetica,sans-Serif" font-size="10.00">Cpl::Dm::Mp::StringBase_</text>
</a>
</g>
</g>
<!-- Node2&#45;&gt;Node1 -->
<g id="edge1_Node000001_Node000002" class="edge">
<title>Node2&#45;&gt;Node1</title>
<g id="a_edge1_Node000001_Node000002"><a xlink:title=" ">
<path fill="none" stroke="#63b8ff" d="M73.62,-43.63C73.62,-35.34 73.62,-26.17 73.62,-19.61"/>
<polygon fill="#63b8ff" stroke="#63b8ff" points="70.13,-43.57 73.63,-53.57 77.13,-43.57 70.13,-43.57"/>
</a>
</g>
</g>
<!-- Node3 -->
<g id="Node000003" class="node">
<title>Node3</title>
<g id="a_Node000003"><a xlink:href="class_cpl_1_1_dm_1_1_model_point_common__.html" target="_top" xlink:title="This concrete class provide common infrastructure for a Model Point.">
<polygon fill="white" stroke="#666666" points="147.25,-129.75 0,-129.75 0,-110.5 147.25,-110.5 147.25,-129.75"/>
<text text-anchor="middle" x="73.62" y="-116.25" font-family="Helvetica,sans-Serif" font-size="10.00">Cpl::Dm::ModelPointCommon_</text>
</a>
</g>
</g>
<!-- Node3&#45;&gt;Node2 -->
<g id="edge2_Node000002_Node000003" class="edge">
<title>Node3&#45;&gt;Node2</title>
<g id="a_edge2_Node000002_Node000003"><a xlink:title=" ">
<path fill="none" stroke="#63b8ff" d="M73.62,-98.88C73.62,-90.59 73.62,-81.42 73.62,-74.86"/>
<polygon fill="#63b8ff" stroke="#63b8ff" points="70.13,-98.82 73.63,-108.82 77.13,-98.82 70.13,-98.82"/>
</a>
</g>
</g>
<!-- Node4 -->
<g id="Node000004" class="node">
<title>Node4</title>
<g id="a_Node000004"><a xlink:href="class_cpl_1_1_dm_1_1_model_point.html" target="_top" xlink:title="This mostly abstract class defines the interface for a Model Point.">
<polygon fill="white" stroke="#666666" points="125.12,-185 22.12,-185 22.12,-165.75 125.12,-165.75 125.12,-185"/>
<text text-anchor="middle" x="73.62" y="-171.5" font-family="Helvetica,sans-Serif" font-size="10.00">Cpl::Dm::ModelPoint</text>
</a>
</g>
</g>
<!-- Node4&#45;&gt;Node3 -->
<g id="edge3_Node000003_Node000004" class="edge">
<title>Node4&#45;&gt;Node3</title>
<g id="a_edge3_Node000003_Node000004"><a xlink:title=" ">
<path fill="none" stroke="#63b8ff" d="M73.62,-154.13C73.62,-145.84 73.62,-136.67 73.62,-130.11"/>
<polygon fill="#63b8ff" stroke="#63b8ff" points="70.13,-154.07 73.63,-164.07 77.13,-154.07 70.13,-154.07"/>
</a>
</g>
</g>
<!-- Node5 -->
<g id="Node000005" class="node">
<title>Node5</title>
<g id="a_Node000005"><a xlink:href="class_cpl_1_1_container_1_1_item.html" target="_top" xlink:title="This class is used by the Container classes to implement a various types of singly linked containers.">
<polygon fill="white" stroke="#666666" points="123.62,-240.25 23.62,-240.25 23.62,-221 123.62,-221 123.62,-240.25"/>
<text text-anchor="middle" x="73.62" y="-226.75" font-family="Helvetica,sans-Serif" font-size="10.00">Cpl::Container::Item</text>
</a>
</g>
</g>
<!-- Node5&#45;&gt;Node4 -->
<g id="edge4_Node000004_Node000005" class="edge">
<title>Node5&#45;&gt;Node4</title>
<g id="a_edge4_Node000004_Node000005"><a xlink:title=" ">
<path fill="none" stroke="#63b8ff" d="M73.62,-209.38C73.62,-201.09 73.62,-191.92 73.62,-185.36"/>
<polygon fill="#63b8ff" stroke="#63b8ff" points="70.13,-209.32 73.63,-219.32 77.13,-209.32 70.13,-209.32"/>
</a>
</g>
</g>
</g>
</svg>
