<?xml version="1.0" encoding="UTF-8" standalone="no"?>
<!DOCTYPE svg PUBLIC "-//W3C//DTD SVG 1.1//EN"
 "http://www.w3.org/Graphics/SVG/1.1/DTD/svg11.dtd">
<!-- Generated by graphviz version 9.0.0 (20230911.1827)
 -->
<!-- Title: Cpl::Io::Socket::Connector Pages: 1 -->
<svg width="242pt" height="94pt"
 viewBox="0.00 0.00 242.25 93.75" xmlns="http://www.w3.org/2000/svg" xmlns:xlink="http://www.w3.org/1999/xlink">
<g id="graph0" class="graph" transform="scale(1 1) rotate(0) translate(4 89.75)">
<title>Cpl::Io::Socket::Connector</title>
<!-- Node1 -->
<g id="Node000001" class="node">
<title>Node1</title>
<g id="a_Node000001"><a xlink:title="This abstract class defines the interface for establishing/requesting a SIMPLE socket connection,...">
<polygon fill="#999999" stroke="#666666" points="179.88,-85.75 52.87,-85.75 52.87,-66.5 179.88,-66.5 179.88,-85.75"/>
<text text-anchor="middle" x="116.38" y="-72.25" font-family="Helvetica,sans-Serif" font-size="10.00">Cpl::Io::Socket::Connector</text>
</a>
</g>
</g>
<!-- Node2 -->
<g id="Node000002" class="node">
<title>Node2</title>
<g id="a_Node000002"><a xlink:href="class_cpl_1_1_io_1_1_socket_1_1_posix_1_1_connector.html" target="_top" xlink:title="This concrete class implements the Cpl::Io::Socket::Connector interface using IPv4/IPv6 addressing fo...">
<polygon fill="white" stroke="#666666" points="106.75,-30.5 0,-30.5 0,0 106.75,0 106.75,-30.5"/>
<text text-anchor="start" x="8" y="-17" font-family="Helvetica,sans-Serif" font-size="10.00">Cpl::Io::Socket::Posix</text>
<text text-anchor="middle" x="53.38" y="-5.75" font-family="Helvetica,sans-Serif" font-size="10.00">::Connector</text>
</a>
</g>
</g>
<!-- Node1&#45;&gt;Node2 -->
<g id="edge1_Node000001_Node000002" class="edge">
<title>Node1&#45;&gt;Node2</title>
<g id="a_edge1_Node000001_Node000002"><a xlink:title=" ">
<path fill="none" stroke="#63b8ff" d="M98.61,-58.52C89.26,-49.79 77.92,-39.18 68.93,-30.78"/>
<polygon fill="#63b8ff" stroke="#63b8ff" points="96,-60.88 105.7,-65.15 100.78,-55.76 96,-60.88"/>
</a>
</g>
</g>
<!-- Node3 -->
<g id="Node000003" class="node">
<title>Node3</title>
<g id="a_Node000003"><a xlink:href="class_cpl_1_1_io_1_1_socket_1_1_win32_1_1_connector.html" target="_top" xlink:title="This concrete class implements the Cpl::Io::Socket::Connector interface using IPv4/IPv6 addressing fo...">
<polygon fill="white" stroke="#666666" points="234.25,-30.5 124.5,-30.5 124.5,0 234.25,0 234.25,-30.5"/>
<text text-anchor="start" x="132.5" y="-17" font-family="Helvetica,sans-Serif" font-size="10.00">Cpl::Io::Socket::Win32</text>
<text text-anchor="middle" x="179.38" y="-5.75" font-family="Helvetica,sans-Serif" font-size="10.00">::Connector</text>
</a>
</g>
</g>
<!-- Node1&#45;&gt;Node3 -->
<g id="edge2_Node000001_Node000003" class="edge">
<title>Node1&#45;&gt;Node3</title>
<g id="a_edge2_Node000001_Node000003"><a xlink:title=" ">
<path fill="none" stroke="#63b8ff" d="M134.14,-58.52C143.49,-49.79 154.83,-39.18 163.82,-30.78"/>
<polygon fill="#63b8ff" stroke="#63b8ff" points="131.97,-55.76 127.05,-65.15 136.75,-60.88 131.97,-55.76"/>
</a>
</g>
</g>
</g>
</svg>
