<?xml version="1.0" encoding="UTF-8" standalone="no"?>
<!DOCTYPE svg PUBLIC "-//W3C//DTD SVG 1.1//EN"
 "http://www.w3.org/Graphics/SVG/1.1/DTD/svg11.dtd">
<!-- Generated by graphviz version 9.0.0 (20230911.1827)
 -->
<!-- Title: Cpl::Text::Frame::StreamEncoder Pages: 1 -->
<svg width="158pt" height="204pt"
 viewBox="0.00 0.00 158.25 204.25" xmlns="http://www.w3.org/2000/svg" xmlns:xlink="http://www.w3.org/1999/xlink">
<g id="graph0" class="graph" transform="scale(1 1) rotate(0) translate(4 200.25)">
<title>Cpl::Text::Frame::StreamEncoder</title>
<!-- Node1 -->
<g id="Node000001" class="node">
<title>Node1</title>
<g id="a_Node000001"><a xlink:title="This concrete class implements the Encoder API where the Output destination is a Cpl::Io::Output stre...">
<polygon fill="#999999" stroke="#666666" points="136,-85.75 14.25,-85.75 14.25,-55.25 136,-55.25 136,-85.75"/>
<text text-anchor="start" x="22.25" y="-72.25" font-family="Helvetica,sans-Serif" font-size="10.00">Cpl::Text::Frame::Stream</text>
<text text-anchor="middle" x="75.12" y="-61" font-family="Helvetica,sans-Serif" font-size="10.00">Encoder</text>
</a>
</g>
</g>
<!-- Node4 -->
<g id="Node000004" class="node">
<title>Node4</title>
<g id="a_Node000004"><a xlink:href="class_cpl_1_1_text_1_1_frame_1_1_block_encoder.html" target="_top" xlink:title="This concrete class implements extends the StreamDecoder implementation to be more efficient with res...">
<polygon fill="white" stroke="#666666" points="150.25,-19.25 0,-19.25 0,0 150.25,0 150.25,-19.25"/>
<text text-anchor="middle" x="75.12" y="-5.75" font-family="Helvetica,sans-Serif" font-size="10.00">Cpl::Text::Frame::BlockEncoder</text>
</a>
</g>
</g>
<!-- Node1&#45;&gt;Node4 -->
<g id="edge3_Node000001_Node000004" class="edge">
<title>Node1&#45;&gt;Node4</title>
<g id="a_edge3_Node000001_Node000004"><a xlink:title=" ">
<path fill="none" stroke="#63b8ff" d="M75.12,-43.48C75.12,-34.98 75.12,-26.09 75.12,-19.7"/>
<polygon fill="#63b8ff" stroke="#63b8ff" points="71.63,-43.43 75.13,-53.43 78.63,-43.43 71.63,-43.43"/>
</a>
</g>
</g>
<!-- Node2 -->
<g id="Node000002" class="node">
<title>Node2</title>
<g id="a_Node000002"><a xlink:href="class_cpl_1_1_text_1_1_frame_1_1_encoder__.html" target="_top" xlink:title="This Private Namespace partially concrete class implements common/helper method for supporting the En...">
<polygon fill="white" stroke="#666666" points="140.5,-141 9.75,-141 9.75,-121.75 140.5,-121.75 140.5,-141"/>
<text text-anchor="middle" x="75.12" y="-127.5" font-family="Helvetica,sans-Serif" font-size="10.00">Cpl::Text::Frame::Encoder_</text>
</a>
</g>
</g>
<!-- Node2&#45;&gt;Node1 -->
<g id="edge1_Node000001_Node000002" class="edge">
<title>Node2&#45;&gt;Node1</title>
<g id="a_edge1_Node000001_Node000002"><a xlink:title=" ">
<path fill="none" stroke="#63b8ff" d="M75.12,-110.17C75.12,-102.24 75.12,-93.31 75.12,-86.03"/>
<polygon fill="#63b8ff" stroke="#63b8ff" points="71.63,-109.92 75.13,-119.92 78.63,-109.92 71.63,-109.92"/>
</a>
</g>
</g>
<!-- Node3 -->
<g id="Node000003" class="node">
<title>Node3</title>
<g id="a_Node000003"><a xlink:href="class_cpl_1_1_text_1_1_frame_1_1_encoder.html" target="_top" xlink:title="This class defines an interface for &#39;transmitted&#39; (encoding) a frame.">
<polygon fill="white" stroke="#666666" points="137.88,-196.25 12.38,-196.25 12.38,-177 137.88,-177 137.88,-196.25"/>
<text text-anchor="middle" x="75.12" y="-182.75" font-family="Helvetica,sans-Serif" font-size="10.00">Cpl::Text::Frame::Encoder</text>
</a>
</g>
</g>
<!-- Node3&#45;&gt;Node2 -->
<g id="edge2_Node000002_Node000003" class="edge">
<title>Node3&#45;&gt;Node2</title>
<g id="a_edge2_Node000002_Node000003"><a xlink:title=" ">
<path fill="none" stroke="#63b8ff" d="M75.12,-165.38C75.12,-157.09 75.12,-147.92 75.12,-141.36"/>
<polygon fill="#63b8ff" stroke="#63b8ff" points="71.63,-165.32 75.13,-175.32 78.63,-165.32 71.63,-165.32"/>
</a>
</g>
</g>
</g>
</svg>
