<?xml version="1.0" encoding="UTF-8" standalone="no"?>
<!DOCTYPE svg PUBLIC "-//W3C//DTD SVG 1.1//EN"
 "http://www.w3.org/Graphics/SVG/1.1/DTD/svg11.dtd">
<!-- Generated by graphviz version 9.0.0 (20230911.1827)
 -->
<!-- Title: G Pages: 1 -->
<svg width="900pt" height="652pt"
 viewBox="0.00 0.00 899.75 651.91" xmlns="http://www.w3.org/2000/svg" xmlns:xlink="http://www.w3.org/1999/xlink">
<g id="graph0" class="graph" transform="scale(1 1) rotate(0) translate(4 647.91)">
<title>G</title>
<g id="clust1" class="cluster">
<title>cluster0</title>
</g>
<g id="clust2" class="cluster">
<title>cluster1</title>
</g>
<g id="clust3" class="cluster">
<title>cluster2</title>
</g>
<g id="clust4" class="cluster">
<title>cluster3</title>
</g>
<g id="clust5" class="cluster">
<title>cluster4</title>
</g>
<g id="clust6" class="cluster">
<title>cluster5</title>
</g>
<g id="clust7" class="cluster">
<title>cluster6</title>
</g>
<g id="clust8" class="cluster">
<title>cluster7</title>
</g>
<g id="clust9" class="cluster">
<title>clusterOn</title>
<path fill="none" stroke="black" d="M84,-72C84,-72 462,-72 462,-72 468,-72 474,-78 474,-84 474,-84 474,-559.91 474,-559.91 474,-565.91 468,-571.91 462,-571.91 462,-571.91 84,-571.91 84,-571.91 78,-571.91 72,-565.91 72,-559.91 72,-559.91 72,-84 72,-84 72,-78 78,-72 84,-72"/>
<text text-anchor="start" x="261.38" y="-550.61" font-family="Arial" font-size="14.00"> On </text>
<text text-anchor="start" x="252.12" y="-529.61" font-family="Arial" font-size="14.00"> </text>
<polygon fill="black" stroke="black" points="248.5,-545.91 248.5,-545.91 258.5,-545.91 258.5,-545.91 248.5,-545.91"/>
<polygon fill="black" stroke="black" points="258.5,-545.91 258.5,-545.91 290.5,-545.91 290.5,-545.91 258.5,-545.91"/>
<polygon fill="black" stroke="black" points="290.5,-545.91 290.5,-545.91 297.5,-545.91 297.5,-545.91 290.5,-545.91"/>
</g>
<!-- structOff -->
<g id="node1" class="node">
<title>structOff</title>
<path fill="none" stroke="black" d="M743.8,-436.56C743.8,-436.56 670.2,-436.56 670.2,-436.56 664.2,-436.56 658.2,-430.56 658.2,-424.56 658.2,-424.56 658.2,-400.04 658.2,-400.04 658.2,-394.04 664.2,-388.04 670.2,-388.04 670.2,-388.04 743.8,-388.04 743.8,-388.04 749.8,-388.04 755.8,-394.04 755.8,-400.04 755.8,-400.04 755.8,-424.56 755.8,-424.56 755.8,-430.56 749.8,-436.56 743.8,-436.56"/>
<polyline fill="none" stroke="black" points="695,-401.8 719,-401.8"/>
<text text-anchor="start" x="698" y="-406.5" font-family="Arial" font-size="14.00">Off</text>
</g>
<!-- structFailedSafeOff -->
<g id="node2" class="node">
<title>structFailedSafeOff</title>
<path fill="none" stroke="black" d="M806.8,-302.04C806.8,-302.04 669.2,-302.04 669.2,-302.04 663.2,-302.04 657.2,-296.04 657.2,-290.04 657.2,-290.04 657.2,-265.52 657.2,-265.52 657.2,-259.52 663.2,-253.52 669.2,-253.52 669.2,-253.52 806.8,-253.52 806.8,-253.52 812.8,-253.52 818.8,-259.52 818.8,-265.52 818.8,-265.52 818.8,-290.04 818.8,-290.04 818.8,-296.04 812.8,-302.04 806.8,-302.04"/>
<polyline fill="none" stroke="black" points="694,-267.28 782,-267.28"/>
<text text-anchor="start" x="696.75" y="-271.98" font-family="Arial" font-size="14.00">FailedSafeOff</text>
</g>
<!-- structOff&#45;&gt;structFailedSafeOff -->
<g id="edge1" class="edge">
<title>structOff&#45;&gt;structFailedSafeOff</title>
<path fill="none" stroke="black" d="M712.54,-387.61C717.59,-366.03 725.08,-334.01 730.63,-310.28"/>
<polygon fill="black" stroke="black" points="732.95,-311.11 732.16,-303.74 728.18,-310 732.95,-311.11"/>
<text text-anchor="start" x="723" y="-356.74" font-family="Arial" font-size="14.00">evHiTemp/ </text>
<text text-anchor="start" x="732.75" y="-340.99" font-family="Arial" font-size="14.00">fanOn();</text>
</g>
<!-- structHeating -->
<g id="node3" class="node">
<title>structHeating</title>
<path fill="none" stroke="black" d="M452.3,-320.54C452.3,-320.54 301.7,-320.54 301.7,-320.54 295.7,-320.54 289.7,-314.54 289.7,-308.54 289.7,-308.54 289.7,-247.02 289.7,-247.02 289.7,-241.02 295.7,-235.02 301.7,-235.02 301.7,-235.02 452.3,-235.02 452.3,-235.02 458.3,-235.02 464.3,-241.02 464.3,-247.02 464.3,-247.02 464.3,-308.54 464.3,-308.54 464.3,-314.54 458.3,-320.54 452.3,-320.54"/>
<polyline fill="none" stroke="black" points="350.5,-285.78 414.5,-285.78"/>
<text text-anchor="start" x="359.25" y="-290.48" font-family="Arial" font-size="14.00">Heating</text>
<text text-anchor="start" x="322.5" y="-268.48" font-family="Arial" font-size="14.00">Do:</text>
<text text-anchor="start" x="322.5" y="-252.73" font-family="Arial" font-size="14.00">runHeatingAlgo();</text>
</g>
<!-- structOff&#45;&gt;structHeating -->
<g id="edge3" class="edge">
<title>structOff&#45;&gt;structHeating</title>
<path fill="none" stroke="black" d="M657.95,-391.6C611.69,-373.03 540.84,-344.57 481.86,-320.89"/>
<polygon fill="black" stroke="black" points="482.81,-318.63 475.4,-318.29 480.98,-323.18 482.81,-318.63"/>
<text text-anchor="start" x="600" y="-348.87" font-family="Arial" font-size="14.00">evEnabled</text>
</g>
<!-- structFailedSafeOff&#45;&gt;structOff -->
<g id="edge2" class="edge">
<title>structFailedSafeOff&#45;&gt;structOff</title>
<path fill="none" stroke="black" d="M772.81,-302.52C795.12,-320.78 817.28,-346.74 802,-370.04 793.1,-383.61 778.66,-392.74 763.7,-398.88"/>
<polygon fill="black" stroke="black" points="762.97,-396.54 757.28,-401.29 764.69,-401.12 762.97,-396.54"/>
<text text-anchor="start" x="807" y="-356.74" font-family="Arial" font-size="14.00">evSafeTemp/ </text>
<text text-anchor="start" x="827.25" y="-340.99" font-family="Arial" font-size="14.00">allOff();</text>
</g>
<!-- structFailedSafeOn -->
<g id="node7" class="node">
<title>structFailedSafeOn</title>
<path fill="none" stroke="black" d="M699.3,-149.02C699.3,-149.02 560.7,-149.02 560.7,-149.02 554.7,-149.02 548.7,-143.02 548.7,-137.02 548.7,-137.02 548.7,-112.5 548.7,-112.5 548.7,-106.5 554.7,-100.5 560.7,-100.5 560.7,-100.5 699.3,-100.5 699.3,-100.5 705.3,-100.5 711.3,-106.5 711.3,-112.5 711.3,-112.5 711.3,-137.02 711.3,-137.02 711.3,-143.02 705.3,-149.02 699.3,-149.02"/>
<polyline fill="none" stroke="black" points="585.5,-114.26 674.5,-114.26"/>
<text text-anchor="start" x="588.38" y="-118.96" font-family="Arial" font-size="14.00">FailedSafeOn</text>
</g>
<!-- structFailedSafeOff&#45;&gt;structFailedSafeOn -->
<g id="edge9" class="edge">
<title>structFailedSafeOff&#45;&gt;structFailedSafeOn</title>
<path fill="none" stroke="black" d="M668.89,-253.04C653.16,-244.24 638.41,-232.5 629.25,-217.02 618.76,-199.28 619.12,-176.01 622.02,-157.4"/>
<polygon fill="black" stroke="black" points="624.39,-158.03 623.23,-150.71 619.57,-157.16 624.39,-158.03"/>
<text text-anchor="start" x="629" y="-195.84" font-family="Arial" font-size="14.00">evEnabled</text>
</g>
<!-- structWaitingForSensor -->
<g id="node5" class="node">
<title>structWaitingForSensor</title>
<path fill="none" stroke="black" d="M257.8,-167.52C257.8,-167.52 94.2,-167.52 94.2,-167.52 88.2,-167.52 82.2,-161.52 82.2,-155.52 82.2,-155.52 82.2,-94 82.2,-94 82.2,-88 88.2,-82 94.2,-82 94.2,-82 257.8,-82 257.8,-82 263.8,-82 269.8,-88 269.8,-94 269.8,-94 269.8,-155.52 269.8,-155.52 269.8,-161.52 263.8,-167.52 257.8,-167.52"/>
<polyline fill="none" stroke="black" points="119,-132.76 233,-132.76"/>
<text text-anchor="start" x="122" y="-137.46" font-family="Arial" font-size="14.00">WaitingForSensor</text>
<text text-anchor="start" x="115" y="-115.46" font-family="Arial" font-size="14.00">Do:</text>
<text text-anchor="start" x="115" y="-99.71" font-family="Arial" font-size="14.00">checkForSensor();</text>
</g>
<!-- structHeating&#45;&gt;structWaitingForSensor -->
<g id="edge5" class="edge">
<title>structHeating&#45;&gt;structWaitingForSensor</title>
<path fill="none" stroke="black" d="M329.16,-234.64C302.61,-211.29 274.61,-186.71 273,-185.52 267.1,-181.16 260.87,-176.81 254.54,-172.56"/>
<polygon fill="black" stroke="black" points="256.08,-170.65 248.9,-168.82 253.38,-174.73 256.08,-170.65"/>
<text text-anchor="start" x="308" y="-203.72" font-family="Arial" font-size="14.00">evNoTempSensor/ </text>
<text text-anchor="start" x="344.75" y="-187.97" font-family="Arial" font-size="14.00">allOff();</text>
</g>
<!-- structDefaultOn -->
<g id="node4" class="node">
<title>structDefaultOn</title>
<ellipse fill="black" stroke="black" cx="453" cy="-499.11" rx="10.8" ry="10.8"/>
<text text-anchor="start" x="437.62" y="-493.31" font-family="Arial" font-size="14.00" fill="white"> </text>
<text text-anchor="start" x="447" y="-494.31" font-family="Arial" font-size="14.00" fill="white"> </text>
<text text-anchor="start" x="450.75" y="-494.31" font-family="Arial" font-size="14.00" fill="white"> </text>
<text text-anchor="start" x="454.5" y="-494.31" font-family="Arial" font-size="14.00" fill="white"> &#160;</text>
</g>
<!-- structDefaultOn&#45;&gt;structOff -->
<g id="edge4" class="edge">
<title>structDefaultOn&#45;&gt;structOff</title>
<path fill="none" stroke="black" d="M474,-496.22C503.17,-493.13 557.31,-485.74 601,-470.31 622.22,-462.81 644.35,-451.53 662.86,-440.98"/>
<polygon fill="black" stroke="black" points="663.89,-443.22 668.72,-437.59 661.44,-438.98 663.89,-443.22"/>
<text text-anchor="start" x="621.46" y="-455.68" font-family="Arial" font-size="14.00">evDisabled/ </text>
<text text-anchor="start" x="636.46" y="-439.93" font-family="Arial" font-size="14.00">allOff();</text>
</g>
<!-- struct__C0 -->
<g id="node6" class="node">
<title>struct__C0</title>
<polygon fill="none" stroke="black" points="377,-419.5 369.8,-412.3 377,-405.1 384.2,-412.3 377,-419.5"/>
<text text-anchor="middle" x="353.68" y="-421.95" font-family="Arial" font-size="14.00">__C0</text>
</g>
<!-- structDefaultOn&#45;&gt;struct__C0 -->
<g id="edge11" class="edge">
<title>structDefaultOn&#45;&gt;struct__C0</title>
<path fill="none" stroke="black" stroke-dasharray="1,5" d="M445.99,-490.28C431.97,-474.64 400.54,-439.57 385.43,-422.71"/>
<polygon fill="black" stroke="black" points="387.56,-421.41 381.06,-417.83 383.91,-424.68 387.56,-421.41"/>
<text text-anchor="start" x="427" y="-457.01" font-family="Arial" font-size="14.00"> &#160;</text>
</g>
<!-- structDefaultOn&#45;&gt;structFailedSafeOn -->
<g id="edge10" class="edge">
<title>structDefaultOn&#45;&gt;structFailedSafeOn</title>
<path fill="none" stroke="black" d="M474,-453.94C510.33,-377.5 584.05,-222.42 615.38,-156.51"/>
<polygon fill="black" stroke="black" points="617.38,-158.01 618.17,-150.64 612.96,-155.91 617.38,-158.01"/>
<text text-anchor="start" x="583.8" y="-171.72" font-family="Arial" font-size="14.00">evHiTemp/ </text>
<text text-anchor="start" x="590.17" y="-155.97" font-family="Arial" font-size="14.00">heatOff();</text>
</g>
<!-- structWaitingForSensor&#45;&gt;structHeating -->
<g id="edge6" class="edge">
<title>structWaitingForSensor&#45;&gt;structHeating</title>
<path fill="none" stroke="black" d="M150.25,-167.57C143.33,-184.52 140.58,-203.3 152.25,-217.02 168.41,-236.01 238.88,-228.7 263,-235.02 269.09,-236.62 275.32,-238.41 281.56,-240.33"/>
<polygon fill="black" stroke="black" points="280.61,-242.6 288.02,-242.37 282.08,-237.93 280.61,-242.6"/>
<text text-anchor="start" x="153" y="-195.84" font-family="Arial" font-size="14.00">evSensorAvailable</text>
</g>
<!-- struct__C0&#45;&gt;structHeating -->
<g id="edge8" class="edge">
<title>struct__C0&#45;&gt;structHeating</title>
<path fill="none" stroke="black" d="M377,-404.55C377,-390.67 377,-357.86 377,-329.23"/>
<polygon fill="black" stroke="black" points="379.45,-329.41 377,-322.41 374.55,-329.41 379.45,-329.41"/>
<text text-anchor="start" x="377" y="-348.87" font-family="Arial" font-size="14.00">[else]</text>
</g>
<!-- struct__C0&#45;&gt;structWaitingForSensor -->
<g id="edge7" class="edge">
<title>struct__C0&#45;&gt;structWaitingForSensor</title>
<path fill="none" stroke="black" d="M370.23,-411.27C337.36,-410.72 193.78,-403.49 136.25,-320.54 102.05,-271.23 118.56,-242.94 136,-185.52 137.02,-182.16 138.3,-178.82 139.77,-175.53"/>
<polygon fill="black" stroke="black" points="141.93,-176.69 142.84,-169.33 137.54,-174.51 141.93,-176.69"/>
<text text-anchor="start" x="137" y="-280.23" font-family="Arial" font-size="14.00">[!isSensorAvailable()]/ </text>
<text text-anchor="start" x="181.25" y="-264.48" font-family="Arial" font-size="14.00">allOff(...</text>
</g>
<!-- structFailedSafeOn&#45;&gt;structFailedSafeOff -->
<g id="edge12" class="edge">
<title>structFailedSafeOn&#45;&gt;structFailedSafeOff</title>
<path fill="none" stroke="black" d="M662.55,-149.42C674.82,-159.52 688.17,-172.07 698,-185.52 711.31,-203.72 721.44,-227.06 728.17,-245.57"/>
<polygon fill="black" stroke="black" points="725.72,-245.96 730.35,-251.75 730.34,-244.34 725.72,-245.96"/>
<text text-anchor="start" x="715" y="-195.84" font-family="Arial" font-size="14.00">evDisabled</text>
</g>
<!-- structFailedSafeOn&#45;&gt;structHeating -->
<g id="edge13" class="edge">
<title>structFailedSafeOn&#45;&gt;structHeating</title>
<path fill="none" stroke="black" d="M548.34,-148.08C526.23,-155.76 502.51,-165.51 481.15,-177.49"/>
<polygon fill="black" stroke="black" points="480.13,-175.25 475.31,-180.88 482.59,-179.49 480.13,-175.25"/>
<text text-anchor="start" x="468" y="-195.84" font-family="Arial" font-size="14.00">evSafeTemp</text>
</g>
<!-- structDefaultroot -->
<g id="node8" class="node">
<title>structDefaultroot</title>
<ellipse fill="black" stroke="black" cx="707" cy="-499.11" rx="10.8" ry="10.8"/>
<text text-anchor="start" x="691.62" y="-493.31" font-family="Arial" font-size="14.00" fill="white"> </text>
<text text-anchor="start" x="701" y="-494.31" font-family="Arial" font-size="14.00" fill="white"> </text>
<text text-anchor="start" x="704.75" y="-494.31" font-family="Arial" font-size="14.00" fill="white"> </text>
<text text-anchor="start" x="708.5" y="-494.31" font-family="Arial" font-size="14.00" fill="white"> &#160;</text>
</g>
<!-- structDefaultroot&#45;&gt;structOff -->
<g id="edge14" class="edge">
<title>structDefaultroot&#45;&gt;structOff</title>
<path fill="none" stroke="black" stroke-dasharray="1,5" d="M707,-488.05C707,-477.46 707,-460.25 707,-445.01"/>
<polygon fill="black" stroke="black" points="709.45,-445.31 707,-438.31 704.55,-445.31 709.45,-445.31"/>
<text text-anchor="start" x="707" y="-457.01" font-family="Arial" font-size="14.00"> &#160;</text>
</g>
</g>
</svg>
