<?xml version="1.0" encoding="UTF-8" standalone="no"?>
<!DOCTYPE svg PUBLIC "-//W3C//DTD SVG 1.1//EN"
 "http://www.w3.org/Graphics/SVG/1.1/DTD/svg11.dtd">
<!-- Generated by graphviz version 9.0.0 (20230911.1827)
 -->
<!-- Title: Graphical Class Hierarchy Pages: 1 -->
<svg width="282pt" height="76pt"
 viewBox="0.00 0.00 281.50 75.88" xmlns="http://www.w3.org/2000/svg" xmlns:xlink="http://www.w3.org/1999/xlink">
<g id="graph0" class="graph" transform="scale(1 1) rotate(0) translate(4 71.88)">
<title>Graphical Class Hierarchy</title>
<!-- Node0 -->
<g id="Node000000" class="node">
<title>Node0</title>
<g id="a_Node000000"><a xlink:href="class_cpl_1_1_persistent_1_1_chunk.html" target="_top" xlink:title="This abstract class defines the interface for a Chunk.">
<polygon fill="white" stroke="#666666" points="111.25,-45.88 0,-45.88 0,-26.62 111.25,-26.62 111.25,-45.88"/>
<text text-anchor="middle" x="55.62" y="-32.38" font-family="Helvetica,sans-Serif" font-size="10.00">Cpl::Persistent::Chunk</text>
</a>
</g>
</g>
<!-- Node1 -->
<g id="Node000001" class="node">
<title>Node1</title>
<g id="a_Node000001"><a xlink:href="class_cpl_1_1_persistent_1_1_crc_chunk.html" target="_top" xlink:title="This concrete class implements the Chunk interface by using a 32Bit CRC for ensuring data integrity.">
<polygon fill="white" stroke="#666666" points="273.5,-67.88 147.25,-67.88 147.25,-48.62 273.5,-48.62 273.5,-67.88"/>
<text text-anchor="middle" x="210.38" y="-54.38" font-family="Helvetica,sans-Serif" font-size="10.00">Cpl::Persistent::CrcChunk</text>
</a>
</g>
</g>
<!-- Node0&#45;&gt;Node1 -->
<g id="edge55_Node000000_Node000001" class="edge">
<title>Node0&#45;&gt;Node1</title>
<g id="a_edge55_Node000000_Node000001"><a xlink:title=" ">
<path fill="none" stroke="#63b8ff" d="M122.63,-45.76C130.71,-46.92 138.96,-48.11 146.99,-49.26"/>
<polygon fill="#63b8ff" stroke="#63b8ff" points="123.23,-42.31 112.84,-44.35 122.24,-49.24 123.23,-42.31"/>
</a>
</g>
</g>
<!-- Node2 -->
<g id="Node000002" class="node">
<title>Node2</title>
<g id="a_Node000002"><a xlink:href="class_cpl_1_1_persistent_1_1_mirrored_chunk.html" target="_top" xlink:title="This concrete class implements the Chunk interface by storing two copies of the Record&#39;s data.">
<polygon fill="white" stroke="#666666" points="269.75,-30.5 151,-30.5 151,0 269.75,0 269.75,-30.5"/>
<text text-anchor="start" x="159" y="-17" font-family="Helvetica,sans-Serif" font-size="10.00">Cpl::Persistent::Mirrored</text>
<text text-anchor="middle" x="210.38" y="-5.75" font-family="Helvetica,sans-Serif" font-size="10.00">Chunk</text>
</a>
</g>
</g>
<!-- Node0&#45;&gt;Node2 -->
<g id="edge56_Node000000_Node000002" class="edge">
<title>Node0&#45;&gt;Node2</title>
<g id="a_edge56_Node000000_Node000002"><a xlink:title=" ">
<path fill="none" stroke="#63b8ff" d="M122.58,-27.18C131.92,-25.9 141.46,-24.59 150.65,-23.32"/>
<polygon fill="#63b8ff" stroke="#63b8ff" points="122.27,-23.69 112.84,-28.52 123.22,-30.63 122.27,-23.69"/>
</a>
</g>
</g>
</g>
</svg>
