<?xml version="1.0" encoding="UTF-8" standalone="no"?>
<!DOCTYPE svg PUBLIC "-//W3C//DTD SVG 1.1//EN"
 "http://www.w3.org/Graphics/SVG/1.1/DTD/svg11.dtd">
<!-- Generated by graphviz version 9.0.0 (20230911.1827)
 -->
<!-- Title: Graphical Class Hierarchy Pages: 1 -->
<svg width="378pt" height="88pt"
 viewBox="0.00 0.00 377.75 87.50" xmlns="http://www.w3.org/2000/svg" xmlns:xlink="http://www.w3.org/1999/xlink">
<g id="graph0" class="graph" transform="scale(1 1) rotate(0) translate(4 83.5)">
<title>Graphical Class Hierarchy</title>
<!-- Node0 -->
<g id="Node000000" class="node">
<title>Node0</title>
<g id="a_Node000000"><a xlink:title=" ">
<polygon fill="#e0e0e0" stroke="#999999" points="77.5,-73.88 0,-73.88 0,-54.62 77.5,-54.62 77.5,-73.88"/>
<text text-anchor="middle" x="38.75" y="-60.38" font-family="Helvetica,sans-Serif" font-size="10.00">ACCESS_API</text>
</a>
</g>
</g>
<!-- Node1 -->
<g id="Node000001" class="node">
<title>Node1</title>
<g id="a_Node000001"><a xlink:href="class_cpl_1_1_itc_1_1_atomic_request.html" target="_top" xlink:title="This concrete class define the &#39;Atomic&#39; Message request that allows a client to invoke multiple opera...">
<polygon fill="white" stroke="#666666" points="230.75,-79.5 113.5,-79.5 113.5,-49 230.75,-49 230.75,-79.5"/>
<text text-anchor="start" x="121.5" y="-66" font-family="Helvetica,sans-Serif" font-size="10.00">Cpl::Itc::AtomicRequest</text>
<text text-anchor="middle" x="172.12" y="-54.75" font-family="Helvetica,sans-Serif" font-size="10.00">&lt; ACCESS_API &gt;</text>
</a>
</g>
</g>
<!-- Node0&#45;&gt;Node1 -->
<g id="edge1_Node000000_Node000001" class="edge">
<title>Node0&#45;&gt;Node1</title>
<g id="a_edge1_Node000000_Node000001"><a xlink:title=" ">
<path fill="none" stroke="#63b8ff" d="M89,-64.25C96.88,-64.25 105.1,-64.25 113.16,-64.25"/>
<polygon fill="#63b8ff" stroke="#63b8ff" points="89.26,-60.75 79.26,-64.25 89.26,-67.75 89.26,-60.75"/>
</a>
</g>
</g>
<!-- Node2 -->
<g id="Node000002" class="node">
<title>Node2</title>
<g id="a_Node000002"><a xlink:href="class_cpl_1_1_itc_1_1_atomic_sync.html" target="_top" xlink:title="This concrete class provides the ITC wrapper implementation for calling the &quot;Atomic Api&quot; synchronousl...">
<polygon fill="white" stroke="#666666" points="369.75,-54.5 266.75,-54.5 266.75,-24 369.75,-24 369.75,-54.5"/>
<text text-anchor="start" x="274.75" y="-41" font-family="Helvetica,sans-Serif" font-size="10.00">Cpl::Itc::AtomicSync</text>
<text text-anchor="middle" x="318.25" y="-29.75" font-family="Helvetica,sans-Serif" font-size="10.00">&lt; ACCESS_API &gt;</text>
</a>
</g>
</g>
<!-- Node1&#45;&gt;Node2 -->
<g id="edge2_Node000001_Node000002" class="edge">
<title>Node1&#45;&gt;Node2</title>
<g id="a_edge2_Node000001_Node000002"><a xlink:title=" ">
<path fill="none" stroke="#63b8ff" d="M242.04,-52.3C250.26,-50.87 258.53,-49.44 266.42,-48.07"/>
<polygon fill="#63b8ff" stroke="#63b8ff" points="241.66,-48.81 232.41,-53.97 242.86,-55.71 241.66,-48.81"/>
</a>
</g>
</g>
<!-- Node3 -->
<g id="Node000003" class="node">
<title>Node3</title>
<g id="a_Node000003"><a xlink:href="class_cpl_1_1_itc_1_1_atomic_api.html" target="_top" xlink:title="This abstract class provides an interface to allow a client to call the server synchronously to have ...">
<polygon fill="white" stroke="#666666" points="219.88,-30.5 124.38,-30.5 124.38,0 219.88,0 219.88,-30.5"/>
<text text-anchor="start" x="132.38" y="-17" font-family="Helvetica,sans-Serif" font-size="10.00">Cpl::Itc::AtomicApi</text>
<text text-anchor="middle" x="172.12" y="-5.75" font-family="Helvetica,sans-Serif" font-size="10.00">&lt; ACCESS_API &gt;</text>
</a>
</g>
</g>
<!-- Node3&#45;&gt;Node2 -->
<g id="edge3_Node000003_Node000002" class="edge">
<title>Node3&#45;&gt;Node2</title>
<g id="a_edge3_Node000003_Node000002"><a xlink:title=" ">
<path fill="none" stroke="#63b8ff" d="M231.65,-25C243.19,-26.92 255.21,-28.92 266.47,-30.79"/>
<polygon fill="#63b8ff" stroke="#63b8ff" points="232.25,-21.55 221.81,-23.36 231.1,-28.45 232.25,-21.55"/>
</a>
</g>
</g>
</g>
</svg>
