<?xml version="1.0" encoding="UTF-8" standalone="no"?>
<!DOCTYPE svg PUBLIC "-//W3C//DTD SVG 1.1//EN"
 "http://www.w3.org/Graphics/SVG/1.1/DTD/svg11.dtd">
<!-- Generated by graphviz version 2.43.0 (0)
 -->
<!-- Title: Graphical Class Hierarchy Pages: 1 -->
<svg width="583pt" height="326pt"
 viewBox="0.00 0.00 583.00 326.00" xmlns="http://www.w3.org/2000/svg" xmlns:xlink="http://www.w3.org/1999/xlink">
<g id="graph0" class="graph" transform="scale(1 1) rotate(0) translate(4 322)">
<title>Graphical Class Hierarchy</title>
<!-- Node0 -->
<g id="Node000000" class="node">
<title>Node0</title>
<g id="a_Node000000"><a xlink:href="class_cpl_1_1_container_1_1_ring_buffer.html" target="_top" xlink:title="This template class implements a Ring Buffer.">
<polygon fill="white" stroke="#666666" points="143,-222 0,-222 0,-192 143,-192 143,-222"/>
<text text-anchor="start" x="8" y="-210" font-family="Helvetica,sans-Serif" font-size="10.00">Cpl::Container::RingBuffer</text>
<text text-anchor="middle" x="71.5" y="-199" font-family="Helvetica,sans-Serif" font-size="10.00">&lt; ITEM &gt;</text>
</a>
</g>
</g>
<!-- Node1 -->
<g id="Node000001" class="node">
<title>Node1</title>
<g id="a_Node000001"><a xlink:href="class_cpl_1_1_container_1_1_ring_buffer_m_t.html" target="_top" xlink:title=" ">
<polygon fill="white" stroke="#666666" points="352.5,-318 185.5,-318 185.5,-288 352.5,-288 352.5,-318"/>
<text text-anchor="start" x="193.5" y="-306" font-family="Helvetica,sans-Serif" font-size="10.00">Cpl::Container::RingBuffer</text>
<text text-anchor="middle" x="269" y="-295" font-family="Helvetica,sans-Serif" font-size="10.00">MT&lt; AjaxScreenMgrEvent_T &gt;</text>
</a>
</g>
</g>
<!-- Node0&#45;&gt;Node1 -->
<g id="edge33_Node000000_Node000001" class="edge">
<title>Node0&#45;&gt;Node1</title>
<g id="a_edge33_Node000000_Node000001"><a xlink:title=" ">
<path fill="none" stroke="#63b8ff" d="M98.6,-228.27C119.3,-244.22 149.57,-265.54 179,-279 186.28,-282.33 194.11,-285.27 201.99,-287.85"/>
<polygon fill="#63b8ff" stroke="#63b8ff" points="100.64,-225.43 90.61,-222.02 96.33,-230.94 100.64,-225.43"/>
</a>
</g>
</g>
<!-- Node2 -->
<g id="Node000002" class="node">
<title>Node2</title>
<g id="a_Node000002"><a xlink:href="class_cpl_1_1_container_1_1_ring_buffer_m_t.html" target="_top" xlink:title=" ">
<polygon fill="white" stroke="#666666" points="340.5,-270 197.5,-270 197.5,-240 340.5,-240 340.5,-270"/>
<text text-anchor="start" x="205.5" y="-258" font-family="Helvetica,sans-Serif" font-size="10.00">Cpl::Container::RingBuffer</text>
<text text-anchor="middle" x="269" y="-247" font-family="Helvetica,sans-Serif" font-size="10.00">MT&lt; AjaxUiEvent_T &gt;</text>
</a>
</g>
</g>
<!-- Node0&#45;&gt;Node2 -->
<g id="edge34_Node000000_Node000002" class="edge">
<title>Node0&#45;&gt;Node2</title>
<g id="a_edge34_Node000000_Node000002"><a xlink:title=" ">
<path fill="none" stroke="#63b8ff" d="M143.54,-224.44C164.3,-229.54 186.81,-235.07 206.9,-240"/>
<polygon fill="#63b8ff" stroke="#63b8ff" points="144.37,-221.04 133.82,-222.06 142.7,-227.84 144.37,-221.04"/>
</a>
</g>
</g>
<!-- Node3 -->
<g id="Node000003" class="node">
<title>Node3</title>
<g id="a_Node000003"><a xlink:href="class_cpl_1_1_container_1_1_ring_buffer_m_t.html" target="_top" xlink:title=" ">
<polygon fill="white" stroke="#666666" points="359,-222 179,-222 179,-192 359,-192 359,-222"/>
<text text-anchor="start" x="187" y="-210" font-family="Helvetica,sans-Serif" font-size="10.00">Cpl::Container::RingBuffer</text>
<text text-anchor="middle" x="269" y="-199" font-family="Helvetica,sans-Serif" font-size="10.00">MT&lt; Cpl::Logging::EntryData_T &gt;</text>
</a>
</g>
</g>
<!-- Node0&#45;&gt;Node3 -->
<g id="edge35_Node000000_Node000003" class="edge">
<title>Node0&#45;&gt;Node3</title>
<g id="a_edge35_Node000000_Node000003"><a xlink:title=" ">
<path fill="none" stroke="#63b8ff" d="M153.25,-207C161.68,-207 170.28,-207 178.8,-207"/>
<polygon fill="#63b8ff" stroke="#63b8ff" points="153.08,-203.5 143.08,-207 153.08,-210.5 153.08,-203.5"/>
</a>
</g>
</g>
<!-- Node4 -->
<g id="Node000004" class="node">
<title>Node4</title>
<g id="a_Node000004"><a xlink:href="class_cpl_1_1_container_1_1_ring_buffer_m_t.html" target="_top" xlink:title=" ">
<polygon fill="white" stroke="#666666" points="340.5,-174 197.5,-174 197.5,-144 340.5,-144 340.5,-174"/>
<text text-anchor="start" x="205.5" y="-162" font-family="Helvetica,sans-Serif" font-size="10.00">Cpl::Container::RingBuffer</text>
<text text-anchor="middle" x="269" y="-151" font-family="Helvetica,sans-Serif" font-size="10.00">MT&lt; ENTRY &gt;</text>
</a>
</g>
</g>
<!-- Node0&#45;&gt;Node4 -->
<g id="edge36_Node000000_Node000004" class="edge">
<title>Node0&#45;&gt;Node4</title>
<g id="a_edge36_Node000000_Node000004"><a xlink:title=" ">
<path fill="none" stroke="#63b8ff" d="M143.54,-189.56C164.3,-184.46 186.81,-178.93 206.9,-174"/>
<polygon fill="#63b8ff" stroke="#63b8ff" points="142.7,-186.16 133.82,-191.94 144.37,-192.96 142.7,-186.16"/>
</a>
</g>
</g>
<!-- Node5 -->
<g id="Node000005" class="node">
<title>Node5</title>
<g id="a_Node000005"><a xlink:href="class_cpl_1_1_container_1_1_ring_buffer_m_t.html" target="_top" xlink:title="This template class implements a THREAD SAFE Ring Buffer.">
<polygon fill="white" stroke="#666666" points="340.5,-126 197.5,-126 197.5,-96 340.5,-96 340.5,-126"/>
<text text-anchor="start" x="205.5" y="-114" font-family="Helvetica,sans-Serif" font-size="10.00">Cpl::Container::RingBuffer</text>
<text text-anchor="middle" x="269" y="-103" font-family="Helvetica,sans-Serif" font-size="10.00">MT&lt; ITEM &gt;</text>
</a>
</g>
</g>
<!-- Node0&#45;&gt;Node5 -->
<g id="edge37_Node000000_Node000005" class="edge">
<title>Node0&#45;&gt;Node5</title>
<g id="a_edge37_Node000000_Node000005"><a xlink:title=" ">
<path fill="none" stroke="#63b8ff" d="M98.6,-185.73C119.3,-169.78 149.57,-148.46 179,-135 186.28,-131.67 194.11,-128.73 201.99,-126.15"/>
<polygon fill="#63b8ff" stroke="#63b8ff" points="96.33,-183.06 90.61,-191.98 100.64,-188.57 96.33,-183.06"/>
</a>
</g>
</g>
<!-- Node6 -->
<g id="Node000006" class="node">
<title>Node6</title>
<g id="a_Node000006"><a xlink:href="class_cpl_1_1_container_1_1_ring_buffer_m_p.html" target="_top" xlink:title=" ">
<polygon fill="white" stroke="#666666" points="568.5,-222 401.5,-222 401.5,-192 568.5,-192 568.5,-222"/>
<text text-anchor="start" x="409.5" y="-210" font-family="Helvetica,sans-Serif" font-size="10.00">Cpl::Container::RingBuffer</text>
<text text-anchor="middle" x="485" y="-199" font-family="Helvetica,sans-Serif" font-size="10.00">MP&lt; AjaxScreenMgrEvent_T &gt;</text>
</a>
</g>
</g>
<!-- Node5&#45;&gt;Node6 -->
<g id="edge38_Node000005_Node000006" class="edge">
<title>Node5&#45;&gt;Node6</title>
<g id="a_edge38_Node000005_Node000006"><a xlink:title=" ">
<path fill="none" stroke="#63b8ff" d="M349.98,-129.63C353.11,-131.27 356.13,-133.06 359,-135 381.08,-149.95 372.92,-168.05 395,-183 400.04,-186.41 405.54,-189.34 411.25,-191.85"/>
<polygon fill="#63b8ff" stroke="#63b8ff" points="351.47,-126.46 340.93,-125.37 348.49,-132.79 351.47,-126.46"/>
</a>
</g>
</g>
<!-- Node7 -->
<g id="Node000007" class="node">
<title>Node7</title>
<g id="a_Node000007"><a xlink:href="class_cpl_1_1_container_1_1_ring_buffer_m_p.html" target="_top" xlink:title=" ">
<polygon fill="white" stroke="#666666" points="556.5,-174 413.5,-174 413.5,-144 556.5,-144 556.5,-174"/>
<text text-anchor="start" x="421.5" y="-162" font-family="Helvetica,sans-Serif" font-size="10.00">Cpl::Container::RingBuffer</text>
<text text-anchor="middle" x="485" y="-151" font-family="Helvetica,sans-Serif" font-size="10.00">MP&lt; AjaxUiEvent_T &gt;</text>
</a>
</g>
</g>
<!-- Node5&#45;&gt;Node7 -->
<g id="edge39_Node000005_Node000007" class="edge">
<title>Node5&#45;&gt;Node7</title>
<g id="a_edge39_Node000005_Node000007"><a xlink:title=" ">
<path fill="none" stroke="#63b8ff" d="M347.14,-128.3C370.04,-133.44 394.92,-139.02 417.11,-144"/>
<polygon fill="#63b8ff" stroke="#63b8ff" points="347.65,-124.83 337.12,-126.06 346.12,-131.66 347.65,-124.83"/>
</a>
</g>
</g>
<!-- Node8 -->
<g id="Node000008" class="node">
<title>Node8</title>
<g id="a_Node000008"><a xlink:href="class_cpl_1_1_container_1_1_ring_buffer_m_p.html" target="_top" xlink:title=" ">
<polygon fill="white" stroke="#666666" points="575,-126 395,-126 395,-96 575,-96 575,-126"/>
<text text-anchor="start" x="403" y="-114" font-family="Helvetica,sans-Serif" font-size="10.00">Cpl::Container::RingBuffer</text>
<text text-anchor="middle" x="485" y="-103" font-family="Helvetica,sans-Serif" font-size="10.00">MP&lt; Cpl::Logging::EntryData_T &gt;</text>
</a>
</g>
</g>
<!-- Node5&#45;&gt;Node8 -->
<g id="edge40_Node000005_Node000008" class="edge">
<title>Node5&#45;&gt;Node8</title>
<g id="a_edge40_Node000005_Node000008"><a xlink:title=" ">
<path fill="none" stroke="#63b8ff" d="M350.94,-111C365.24,-111 380.2,-111 394.71,-111"/>
<polygon fill="#63b8ff" stroke="#63b8ff" points="350.66,-107.5 340.66,-111 350.66,-114.5 350.66,-107.5"/>
</a>
</g>
</g>
<!-- Node9 -->
<g id="Node000009" class="node">
<title>Node9</title>
<g id="a_Node000009"><a xlink:href="class_cpl_1_1_container_1_1_ring_buffer_m_p.html" target="_top" xlink:title=" ">
<polygon fill="white" stroke="#666666" points="556.5,-78 413.5,-78 413.5,-48 556.5,-48 556.5,-78"/>
<text text-anchor="start" x="421.5" y="-66" font-family="Helvetica,sans-Serif" font-size="10.00">Cpl::Container::RingBuffer</text>
<text text-anchor="middle" x="485" y="-55" font-family="Helvetica,sans-Serif" font-size="10.00">MP&lt; ENTRY &gt;</text>
</a>
</g>
</g>
<!-- Node5&#45;&gt;Node9 -->
<g id="edge41_Node000005_Node000009" class="edge">
<title>Node5&#45;&gt;Node9</title>
<g id="a_edge41_Node000005_Node000009"><a xlink:title=" ">
<path fill="none" stroke="#63b8ff" d="M347.14,-93.7C370.04,-88.56 394.92,-82.98 417.11,-78"/>
<polygon fill="#63b8ff" stroke="#63b8ff" points="346.12,-90.34 337.12,-95.94 347.65,-97.17 346.12,-90.34"/>
</a>
</g>
</g>
<!-- Node10 -->
<g id="Node000010" class="node">
<title>Node10</title>
<g id="a_Node000010"><a xlink:href="class_cpl_1_1_container_1_1_ring_buffer_m_p.html" target="_top" xlink:title="This template class implements a THREAD SAFE Ring Buffer AND it maintains/reports the number of eleme...">
<polygon fill="white" stroke="#666666" points="556.5,-30 413.5,-30 413.5,0 556.5,0 556.5,-30"/>
<text text-anchor="start" x="421.5" y="-18" font-family="Helvetica,sans-Serif" font-size="10.00">Cpl::Container::RingBuffer</text>
<text text-anchor="middle" x="485" y="-7" font-family="Helvetica,sans-Serif" font-size="10.00">MP&lt; ITEM &gt;</text>
</a>
</g>
</g>
<!-- Node5&#45;&gt;Node10 -->
<g id="edge42_Node000005_Node000010" class="edge">
<title>Node5&#45;&gt;Node10</title>
<g id="a_edge42_Node000005_Node000010"><a xlink:title=" ">
<path fill="none" stroke="#63b8ff" d="M300.66,-90.32C325.29,-74.47 361.21,-53.01 395,-39 402.98,-35.69 411.56,-32.71 420.12,-30.07"/>
<polygon fill="#63b8ff" stroke="#63b8ff" points="298.6,-87.49 292.13,-95.88 302.42,-93.35 298.6,-87.49"/>
</a>
</g>
</g>
</g>
</svg>
