<?xml version="1.0" encoding="UTF-8" standalone="no"?>
<!DOCTYPE svg PUBLIC "-//W3C//DTD SVG 1.1//EN"
 "http://www.w3.org/Graphics/SVG/1.1/DTD/svg11.dtd">
<!-- Generated by graphviz version 9.0.0 (20230911.1827)
 -->
<!-- Title: Graphical Class Hierarchy Pages: 1 -->
<svg width="306pt" height="64pt"
 viewBox="0.00 0.00 305.50 64.25" xmlns="http://www.w3.org/2000/svg" xmlns:xlink="http://www.w3.org/1999/xlink">
<g id="graph0" class="graph" transform="scale(1 1) rotate(0) translate(4 60.25)">
<title>Graphical Class Hierarchy</title>
<!-- Node0 -->
<g id="Node000000" class="node">
<title>Node0</title>
<g id="a_Node000000"><a xlink:href="class_cpl_1_1_checksum_1_1_api16.html" target="_top" xlink:title="This class provides an interface for calculate a 16 bit wide Checksum.">
<polygon fill="white" stroke="#666666" points="110.5,-37.25 0,-37.25 0,-18 110.5,-18 110.5,-37.25"/>
<text text-anchor="middle" x="55.25" y="-23.75" font-family="Helvetica,sans-Serif" font-size="10.00">Cpl::Checksum::Api16</text>
</a>
</g>
</g>
<!-- Node1 -->
<g id="Node000001" class="node">
<title>Node1</title>
<g id="a_Node000001"><a xlink:href="class_cpl_1_1_checksum_1_1_crc16_ccitt_fast.html" target="_top" xlink:title="This class provides an implementation for the 16 Bit CRC&#45;CCITT standard.">
<polygon fill="white" stroke="#666666" points="297.5,-56.25 146.5,-56.25 146.5,-37 297.5,-37 297.5,-56.25"/>
<text text-anchor="middle" x="222" y="-42.75" font-family="Helvetica,sans-Serif" font-size="10.00">Cpl::Checksum::Crc16CcittFast</text>
</a>
</g>
</g>
<!-- Node0&#45;&gt;Node1 -->
<g id="edge15_Node000000_Node000001" class="edge">
<title>Node0&#45;&gt;Node1</title>
<g id="a_edge15_Node000000_Node000001"><a xlink:title=" ">
<path fill="none" stroke="#63b8ff" d="M122.04,-35.21C129.94,-36.12 138.05,-37.06 146.07,-37.98"/>
<polygon fill="#63b8ff" stroke="#63b8ff" points="122.49,-31.74 112.16,-34.07 121.69,-38.7 122.49,-31.74"/>
</a>
</g>
</g>
<!-- Node2 -->
<g id="Node000002" class="node">
<title>Node2</title>
<g id="a_Node000002"><a xlink:href="class_cpl_1_1_checksum_1_1_fletcher16.html" target="_top" xlink:title="This class provides an implementation for the 16 Bit wide Fletcher Checksum.">
<polygon fill="white" stroke="#666666" points="287.75,-19.25 156.25,-19.25 156.25,0 287.75,0 287.75,-19.25"/>
<text text-anchor="middle" x="222" y="-5.75" font-family="Helvetica,sans-Serif" font-size="10.00">Cpl::Checksum::Fletcher16</text>
</a>
</g>
</g>
<!-- Node0&#45;&gt;Node2 -->
<g id="edge16_Node000000_Node000002" class="edge">
<title>Node0&#45;&gt;Node2</title>
<g id="a_edge16_Node000000_Node000002"><a xlink:title=" ">
<path fill="none" stroke="#63b8ff" d="M122.04,-20.44C133.15,-19.22 144.67,-17.96 155.77,-16.75"/>
<polygon fill="#63b8ff" stroke="#63b8ff" points="121.72,-16.95 112.16,-21.52 122.48,-23.91 121.72,-16.95"/>
</a>
</g>
</g>
</g>
</svg>
