<?xml version="1.0" encoding="UTF-8" standalone="no"?>
<!DOCTYPE svg PUBLIC "-//W3C//DTD SVG 1.1//EN"
 "http://www.w3.org/Graphics/SVG/1.1/DTD/svg11.dtd">
<!-- Generated by graphviz version 9.0.0 (20230911.1827)
 -->
<!-- Title: Graphical Class Hierarchy Pages: 1 -->
<svg width="297pt" height="101pt"
 viewBox="0.00 0.00 296.50 101.25" xmlns="http://www.w3.org/2000/svg" xmlns:xlink="http://www.w3.org/1999/xlink">
<g id="graph0" class="graph" transform="scale(1 1) rotate(0) translate(4 97.25)">
<title>Graphical Class Hierarchy</title>
<!-- Node0 -->
<g id="Node000000" class="node">
<title>Node0</title>
<g id="a_Node000000"><a xlink:href="class_cpl_1_1_itc_1_1_return_handler.html" target="_top" xlink:title="This abstract class represents the action that is executed by a server thread in response to the serv...">
<polygon fill="white" stroke="#666666" points="112.75,-56.25 0,-56.25 0,-37 112.75,-37 112.75,-56.25"/>
<text text-anchor="middle" x="56.38" y="-42.75" font-family="Helvetica,sans-Serif" font-size="10.00">Cpl::Itc::ReturnHandler</text>
</a>
</g>
</g>
<!-- Node1 -->
<g id="Node000001" class="node">
<title>Node1</title>
<g id="a_Node000001"><a xlink:href="class_cpl_1_1_itc_1_1_async_return_handler.html" target="_top" xlink:title="This class implements an asynchronous ReturnHandler.">
<polygon fill="white" stroke="#666666" points="288.5,-93.25 148.75,-93.25 148.75,-74 288.5,-74 288.5,-93.25"/>
<text text-anchor="middle" x="218.62" y="-79.75" font-family="Helvetica,sans-Serif" font-size="10.00">Cpl::Itc::AsyncReturnHandler</text>
</a>
</g>
</g>
<!-- Node0&#45;&gt;Node1 -->
<g id="edge53_Node000000_Node000001" class="edge">
<title>Node0&#45;&gt;Node1</title>
<g id="a_edge53_Node000000_Node000001"><a xlink:title=" ">
<path fill="none" stroke="#63b8ff" d="M112.36,-59.32C132.46,-63.96 154.91,-69.14 173.89,-73.53"/>
<polygon fill="#63b8ff" stroke="#63b8ff" points="113.17,-55.92 102.64,-57.08 111.59,-62.74 113.17,-55.92"/>
</a>
</g>
</g>
<!-- Node2 -->
<g id="Node000002" class="node">
<title>Node2</title>
<g id="a_Node000002"><a xlink:href="class_cpl_1_1_itc_1_1_null_return_handler.html" target="_top" xlink:title="This class implements a Null ReturnHandler.">
<polygon fill="white" stroke="#666666" points="283.62,-56.25 153.62,-56.25 153.62,-37 283.62,-37 283.62,-56.25"/>
<text text-anchor="middle" x="218.62" y="-42.75" font-family="Helvetica,sans-Serif" font-size="10.00">Cpl::Itc::NullReturnHandler</text>
</a>
</g>
</g>
<!-- Node0&#45;&gt;Node2 -->
<g id="edge54_Node000000_Node000002" class="edge">
<title>Node0&#45;&gt;Node2</title>
<g id="a_edge54_Node000000_Node000002"><a xlink:title=" ">
<path fill="none" stroke="#63b8ff" d="M124.46,-46.62C134.02,-46.62 143.83,-46.62 153.33,-46.62"/>
<polygon fill="#63b8ff" stroke="#63b8ff" points="124.49,-43.13 114.49,-46.63 124.49,-50.13 124.49,-43.13"/>
</a>
</g>
</g>
<!-- Node3 -->
<g id="Node000003" class="node">
<title>Node3</title>
<g id="a_Node000003"><a xlink:href="class_cpl_1_1_itc_1_1_sync_return_handler.html" target="_top" xlink:title="This class implements a synchronous ReturnHandler.">
<polygon fill="white" stroke="#666666" points="285.88,-19.25 151.38,-19.25 151.38,0 285.88,0 285.88,-19.25"/>
<text text-anchor="middle" x="218.62" y="-5.75" font-family="Helvetica,sans-Serif" font-size="10.00">Cpl::Itc::SyncReturnHandler</text>
</a>
</g>
</g>
<!-- Node0&#45;&gt;Node3 -->
<g id="edge55_Node000000_Node000003" class="edge">
<title>Node0&#45;&gt;Node3</title>
<g id="a_edge55_Node000000_Node000003"><a xlink:title=" ">
<path fill="none" stroke="#63b8ff" d="M112.36,-33.93C132.46,-29.29 154.91,-24.11 173.89,-19.72"/>
<polygon fill="#63b8ff" stroke="#63b8ff" points="111.59,-30.51 102.64,-36.17 113.17,-37.33 111.59,-30.51"/>
</a>
</g>
</g>
</g>
</svg>
