<?xml version="1.0" encoding="UTF-8" standalone="no"?>
<!DOCTYPE svg PUBLIC "-//W3C//DTD SVG 1.1//EN"
 "http://www.w3.org/Graphics/SVG/1.1/DTD/svg11.dtd">
<!-- Generated by graphviz version 2.43.0 (0)
 -->
<!-- Title: Graphical Class Hierarchy Pages: 1 -->
<svg width="262pt" height="86pt"
 viewBox="0.00 0.00 262.00 86.00" xmlns="http://www.w3.org/2000/svg" xmlns:xlink="http://www.w3.org/1999/xlink">
<g id="graph0" class="graph" transform="scale(1 1) rotate(0) translate(4 82)">
<title>Graphical Class Hierarchy</title>
<!-- Node0 -->
<g id="Node000000" class="node">
<title>Node0</title>
<g id="a_Node000000"><a xlink:href="class_driver_1_1_s_p_i_1_1_master.html" target="_top" xlink:title="This class defines a non&#45;platform specific interface for an SPI master device driver.">
<polygon fill="white" stroke="#666666" points="107,-48.5 0,-48.5 0,-29.5 107,-29.5 107,-48.5"/>
<text text-anchor="middle" x="53.5" y="-36.5" font-family="Helvetica,sans-Serif" font-size="10.00">Driver::SPI::Master</text>
</a>
</g>
</g>
<!-- Node1 -->
<g id="Node000001" class="node">
<title>Node1</title>
<g id="a_Node000001"><a xlink:href="class_driver_1_1_s_p_i_1_1_arduino_1_1_master.html" target="_top" xlink:title="This class implements the SPI interface using the Arduino Framework.">
<polygon fill="white" stroke="#666666" points="254,-78 143,-78 143,-48 254,-48 254,-78"/>
<text text-anchor="start" x="151" y="-66" font-family="Helvetica,sans-Serif" font-size="10.00">Driver::SPI::Arduino</text>
<text text-anchor="middle" x="198.5" y="-55" font-family="Helvetica,sans-Serif" font-size="10.00">::Master</text>
</a>
</g>
</g>
<!-- Node0&#45;&gt;Node1 -->
<g id="edge395_Node000000_Node000001" class="edge">
<title>Node0&#45;&gt;Node1</title>
<g id="a_edge395_Node000000_Node000001"><a xlink:title=" ">
<path fill="none" stroke="#63b8ff" d="M117.28,-49.54C125.84,-50.97 134.57,-52.44 142.96,-53.85"/>
<polygon fill="#63b8ff" stroke="#63b8ff" points="117.78,-46.07 107.34,-47.87 116.62,-52.98 117.78,-46.07"/>
</a>
</g>
</g>
<!-- Node2 -->
<g id="Node000002" class="node">
<title>Node2</title>
<g id="a_Node000002"><a xlink:href="class_driver_1_1_s_p_i_1_1_s_t_m32_1_1_master.html" target="_top" xlink:title="This class implements the SPI interface for the STM32 family of micro&#45;controller using the ST&#39;s MX Cu...">
<polygon fill="white" stroke="#666666" points="252,-30 145,-30 145,0 252,0 252,-30"/>
<text text-anchor="start" x="153" y="-18" font-family="Helvetica,sans-Serif" font-size="10.00">Driver::SPI::STM32</text>
<text text-anchor="middle" x="198.5" y="-7" font-family="Helvetica,sans-Serif" font-size="10.00">::Master</text>
</a>
</g>
</g>
<!-- Node0&#45;&gt;Node2 -->
<g id="edge396_Node000000_Node000002" class="edge">
<title>Node0&#45;&gt;Node2</title>
<g id="a_edge396_Node000000_Node000002"><a xlink:title=" ">
<path fill="none" stroke="#63b8ff" d="M117.24,-28.47C126.46,-26.92 135.88,-25.34 144.88,-23.83"/>
<polygon fill="#63b8ff" stroke="#63b8ff" points="116.62,-25.02 107.34,-30.13 117.78,-31.93 116.62,-25.02"/>
</a>
</g>
</g>
</g>
</svg>
