<?xml version="1.0" encoding="UTF-8" standalone="no"?>
<!DOCTYPE svg PUBLIC "-//W3C//DTD SVG 1.1//EN"
 "http://www.w3.org/Graphics/SVG/1.1/DTD/svg11.dtd">
<!-- Generated by graphviz version 9.0.0 (20230911.1827)
 -->
<!-- Title: Graphical Class Hierarchy Pages: 1 -->
<svg width="317pt" height="113pt"
 viewBox="0.00 0.00 316.75 112.88" xmlns="http://www.w3.org/2000/svg" xmlns:xlink="http://www.w3.org/1999/xlink">
<g id="graph0" class="graph" transform="scale(1 1) rotate(0) translate(4 108.88)">
<title>Graphical Class Hierarchy</title>
<!-- Node0 -->
<g id="Node000000" class="node">
<title>Node0</title>
<g id="a_Node000000"><a xlink:href="class_cpl_1_1_persistent_1_1_region_media.html" target="_top" xlink:title="This mostly abstract class defines the operations that can be performed on a persistent media.">
<polygon fill="white" stroke="#666666" points="139.75,-67.88 0,-67.88 0,-48.62 139.75,-48.62 139.75,-67.88"/>
<text text-anchor="middle" x="69.88" y="-54.38" font-family="Helvetica,sans-Serif" font-size="10.00">Cpl::Persistent::RegionMedia</text>
</a>
</g>
</g>
<!-- Node1 -->
<g id="Node000001" class="node">
<title>Node1</title>
<g id="a_Node000001"><a xlink:href="class_cpl_1_1_persistent_1_1_file_adapter.html" target="_top" xlink:title="This concrete class implements the RegionMedia interface using the Cpl::Io::File interfaces.">
<polygon fill="white" stroke="#666666" points="308.75,-104.88 175.75,-104.88 175.75,-85.62 308.75,-85.62 308.75,-104.88"/>
<text text-anchor="middle" x="242.25" y="-91.38" font-family="Helvetica,sans-Serif" font-size="10.00">Cpl::Persistent::FileAdapter</text>
</a>
</g>
</g>
<!-- Node0&#45;&gt;Node1 -->
<g id="edge356_Node000000_Node000001" class="edge">
<title>Node0&#45;&gt;Node1</title>
<g id="a_edge356_Node000000_Node000001"><a xlink:title=" ">
<path fill="none" stroke="#63b8ff" d="M128.45,-70.75C150.04,-75.44 174.29,-80.71 194.75,-85.15"/>
<polygon fill="#63b8ff" stroke="#63b8ff" points="129.42,-67.38 118.91,-68.68 127.94,-74.22 129.42,-67.38"/>
</a>
</g>
</g>
<!-- Node2 -->
<g id="Node000002" class="node">
<title>Node2</title>
<g id="a_Node000002"><a xlink:href="class_cpl_1_1_persistent_1_1_n_v_adapter.html" target="_top" xlink:title="This concrete class implements the RegionMedia interface using the Driver::NV::Api interface.">
<polygon fill="white" stroke="#666666" points="308,-67.88 176.5,-67.88 176.5,-48.62 308,-48.62 308,-67.88"/>
<text text-anchor="middle" x="242.25" y="-54.38" font-family="Helvetica,sans-Serif" font-size="10.00">Cpl::Persistent::NVAdapter</text>
</a>
</g>
</g>
<!-- Node0&#45;&gt;Node2 -->
<g id="edge357_Node000000_Node000002" class="edge">
<title>Node0&#45;&gt;Node2</title>
<g id="a_edge357_Node000000_Node000002"><a xlink:title=" ">
<path fill="none" stroke="#63b8ff" d="M151.41,-58.25C159.7,-58.25 168.05,-58.25 176.14,-58.25"/>
<polygon fill="#63b8ff" stroke="#63b8ff" points="151.69,-54.75 141.69,-58.25 151.69,-61.75 151.69,-54.75"/>
</a>
</g>
</g>
<!-- Node3 -->
<g id="Node000003" class="node">
<title>Node3</title>
<g id="a_Node000003"><a xlink:href="class_cpl_1_1_persistent_1_1_null_region_media.html" target="_top" xlink:title="This concrete class provides a &#39;null&#39; implementation of the RegionMedia interface.">
<polygon fill="white" stroke="#666666" points="307.62,-30.5 176.88,-30.5 176.88,0 307.62,0 307.62,-30.5"/>
<text text-anchor="start" x="184.88" y="-17" font-family="Helvetica,sans-Serif" font-size="10.00">Cpl::Persistent::NullRegion</text>
<text text-anchor="middle" x="242.25" y="-5.75" font-family="Helvetica,sans-Serif" font-size="10.00">Media</text>
</a>
</g>
</g>
<!-- Node0&#45;&gt;Node3 -->
<g id="edge358_Node000000_Node000003" class="edge">
<title>Node0&#45;&gt;Node3</title>
<g id="a_edge358_Node000000_Node000003"><a xlink:title=" ">
<path fill="none" stroke="#63b8ff" d="M121.91,-45.37C139.82,-40.85 160.15,-35.72 178.88,-30.99"/>
<polygon fill="#63b8ff" stroke="#63b8ff" points="121.13,-41.96 112.29,-47.8 122.84,-48.74 121.13,-41.96"/>
</a>
</g>
</g>
</g>
</svg>
