<?xml version="1.0" encoding="UTF-8" standalone="no"?>
<!DOCTYPE svg PUBLIC "-//W3C//DTD SVG 1.1//EN"
 "http://www.w3.org/Graphics/SVG/1.1/DTD/svg11.dtd">
<!-- Generated by graphviz version 9.0.0 (20230911.1827)
 -->
<!-- Title: Graphical Class Hierarchy Pages: 1 -->
<svg width="522pt" height="333pt"
 viewBox="0.00 0.00 521.75 332.50" xmlns="http://www.w3.org/2000/svg" xmlns:xlink="http://www.w3.org/1999/xlink">
<g id="graph0" class="graph" transform="scale(1 1) rotate(0) translate(4 328.5)">
<title>Graphical Class Hierarchy</title>
<!-- Node0 -->
<g id="Node000000" class="node">
<title>Node0</title>
<g id="a_Node000000"><a xlink:href="class_cpl_1_1_container_1_1_ring_buffer.html" target="_top" xlink:title="This template class implements a Ring Buffer.">
<polygon fill="white" stroke="#666666" points="125.5,-226.5 0,-226.5 0,-196 125.5,-196 125.5,-226.5"/>
<text text-anchor="start" x="8" y="-213" font-family="Helvetica,sans-Serif" font-size="10.00">Cpl::Container::RingBuffer</text>
<text text-anchor="middle" x="62.75" y="-201.75" font-family="Helvetica,sans-Serif" font-size="10.00">&lt; ITEM &gt;</text>
</a>
</g>
</g>
<!-- Node1 -->
<g id="Node000001" class="node">
<title>Node1</title>
<g id="a_Node000001"><a xlink:href="class_cpl_1_1_container_1_1_ring_buffer_m_t.html" target="_top" xlink:title=" ">
<polygon fill="white" stroke="#666666" points="314.75,-324.5 166,-324.5 166,-294 314.75,-294 314.75,-324.5"/>
<text text-anchor="start" x="174" y="-311" font-family="Helvetica,sans-Serif" font-size="10.00">Cpl::Container::RingBuffer</text>
<text text-anchor="middle" x="240.38" y="-299.75" font-family="Helvetica,sans-Serif" font-size="10.00">MT&lt; AjaxScreenMgrEvent_T &gt;</text>
</a>
</g>
</g>
<!-- Node0&#45;&gt;Node1 -->
<g id="edge34_Node000000_Node000001" class="edge">
<title>Node0&#45;&gt;Node1</title>
<g id="a_edge34_Node000000_Node000001"><a xlink:title=" ">
<path fill="none" stroke="#63b8ff" d="M89.51,-234.24C108.35,-250.08 135.13,-270.65 161.5,-284.25 168.19,-287.7 175.45,-290.79 182.75,-293.53"/>
<polygon fill="#63b8ff" stroke="#63b8ff" points="91.95,-231.72 82.08,-227.87 87.4,-237.04 91.95,-231.72"/>
</a>
</g>
</g>
<!-- Node2 -->
<g id="Node000002" class="node">
<title>Node2</title>
<g id="a_Node000002"><a xlink:href="class_cpl_1_1_container_1_1_ring_buffer_m_t.html" target="_top" xlink:title=" ">
<polygon fill="white" stroke="#666666" points="303.12,-275.5 177.62,-275.5 177.62,-245 303.12,-245 303.12,-275.5"/>
<text text-anchor="start" x="185.62" y="-262" font-family="Helvetica,sans-Serif" font-size="10.00">Cpl::Container::RingBuffer</text>
<text text-anchor="middle" x="240.38" y="-250.75" font-family="Helvetica,sans-Serif" font-size="10.00">MT&lt; AjaxUiEvent_T &gt;</text>
</a>
</g>
</g>
<!-- Node0&#45;&gt;Node2 -->
<g id="edge35_Node000000_Node000002" class="edge">
<title>Node0&#45;&gt;Node2</title>
<g id="a_edge35_Node000000_Node000002"><a xlink:title=" ">
<path fill="none" stroke="#63b8ff" d="M130.41,-229.85C147.73,-234.68 166.22,-239.84 182.95,-244.51"/>
<polygon fill="#63b8ff" stroke="#63b8ff" points="131.83,-226.61 121.26,-227.3 129.95,-233.35 131.83,-226.61"/>
</a>
</g>
</g>
<!-- Node3 -->
<g id="Node000003" class="node">
<title>Node3</title>
<g id="a_Node000003"><a xlink:href="class_cpl_1_1_container_1_1_ring_buffer_m_t.html" target="_top" xlink:title=" ">
<polygon fill="white" stroke="#666666" points="319.25,-226.5 161.5,-226.5 161.5,-196 319.25,-196 319.25,-226.5"/>
<text text-anchor="start" x="169.5" y="-213" font-family="Helvetica,sans-Serif" font-size="10.00">Cpl::Container::RingBuffer</text>
<text text-anchor="middle" x="240.38" y="-201.75" font-family="Helvetica,sans-Serif" font-size="10.00">MT&lt; Cpl::Logging::EntryData_T &gt;</text>
</a>
</g>
</g>
<!-- Node0&#45;&gt;Node3 -->
<g id="edge36_Node000000_Node000003" class="edge">
<title>Node0&#45;&gt;Node3</title>
<g id="a_edge36_Node000000_Node000003"><a xlink:title=" ">
<path fill="none" stroke="#63b8ff" d="M137.12,-211.25C145.04,-211.25 153.12,-211.25 161.09,-211.25"/>
<polygon fill="#63b8ff" stroke="#63b8ff" points="137.18,-207.75 127.18,-211.25 137.18,-214.75 137.18,-207.75"/>
</a>
</g>
</g>
<!-- Node4 -->
<g id="Node000004" class="node">
<title>Node4</title>
<g id="a_Node000004"><a xlink:href="class_cpl_1_1_container_1_1_ring_buffer_m_t.html" target="_top" xlink:title=" ">
<polygon fill="white" stroke="#666666" points="303.12,-177.5 177.62,-177.5 177.62,-147 303.12,-147 303.12,-177.5"/>
<text text-anchor="start" x="185.62" y="-164" font-family="Helvetica,sans-Serif" font-size="10.00">Cpl::Container::RingBuffer</text>
<text text-anchor="middle" x="240.38" y="-152.75" font-family="Helvetica,sans-Serif" font-size="10.00">MT&lt; ENTRY &gt;</text>
</a>
</g>
</g>
<!-- Node0&#45;&gt;Node4 -->
<g id="edge37_Node000000_Node000004" class="edge">
<title>Node0&#45;&gt;Node4</title>
<g id="a_edge37_Node000000_Node000004"><a xlink:title=" ">
<path fill="none" stroke="#63b8ff" d="M130.41,-192.65C147.73,-187.82 166.22,-182.66 182.95,-177.99"/>
<polygon fill="#63b8ff" stroke="#63b8ff" points="129.95,-189.15 121.26,-195.2 131.83,-195.89 129.95,-189.15"/>
</a>
</g>
</g>
<!-- Node5 -->
<g id="Node000005" class="node">
<title>Node5</title>
<g id="a_Node000005"><a xlink:href="class_cpl_1_1_container_1_1_ring_buffer_m_t.html" target="_top" xlink:title="This template class implements a THREAD SAFE Ring Buffer.">
<polygon fill="white" stroke="#666666" points="303.12,-128.5 177.62,-128.5 177.62,-98 303.12,-98 303.12,-128.5"/>
<text text-anchor="start" x="185.62" y="-115" font-family="Helvetica,sans-Serif" font-size="10.00">Cpl::Container::RingBuffer</text>
<text text-anchor="middle" x="240.38" y="-103.75" font-family="Helvetica,sans-Serif" font-size="10.00">MT&lt; ITEM &gt;</text>
</a>
</g>
</g>
<!-- Node0&#45;&gt;Node5 -->
<g id="edge38_Node000000_Node000005" class="edge">
<title>Node0&#45;&gt;Node5</title>
<g id="a_edge38_Node000000_Node000005"><a xlink:title=" ">
<path fill="none" stroke="#63b8ff" d="M89.51,-188.26C108.35,-172.42 135.13,-151.85 161.5,-138.25 168.19,-134.8 175.45,-131.71 182.75,-128.97"/>
<polygon fill="#63b8ff" stroke="#63b8ff" points="87.4,-185.46 82.08,-194.63 91.95,-190.78 87.4,-185.46"/>
</a>
</g>
</g>
<!-- Node6 -->
<g id="Node000006" class="node">
<title>Node6</title>
<g id="a_Node000006"><a xlink:href="class_cpl_1_1_container_1_1_ring_buffer_m_p.html" target="_top" xlink:title=" ">
<polygon fill="white" stroke="#666666" points="509.25,-226.5 359.75,-226.5 359.75,-196 509.25,-196 509.25,-226.5"/>
<text text-anchor="start" x="367.75" y="-213" font-family="Helvetica,sans-Serif" font-size="10.00">Cpl::Container::RingBuffer</text>
<text text-anchor="middle" x="434.5" y="-201.75" font-family="Helvetica,sans-Serif" font-size="10.00">MP&lt; AjaxScreenMgrEvent_T &gt;</text>
</a>
</g>
</g>
<!-- Node5&#45;&gt;Node6 -->
<g id="edge39_Node000005_Node000006" class="edge">
<title>Node5&#45;&gt;Node6</title>
<g id="a_edge39_Node000005_Node000006"><a xlink:title=" ">
<path fill="none" stroke="#63b8ff" d="M312.8,-134.08C315.02,-135.39 317.18,-136.78 319.25,-138.25 340.97,-153.72 333.52,-170.79 355.25,-186.25 360.25,-189.8 365.77,-192.87 371.51,-195.51"/>
<polygon fill="#63b8ff" stroke="#63b8ff" points="314.5,-131.02 304.01,-129.53 311.28,-137.24 314.5,-131.02"/>
</a>
</g>
</g>
<!-- Node7 -->
<g id="Node000007" class="node">
<title>Node7</title>
<g id="a_Node000007"><a xlink:href="class_cpl_1_1_container_1_1_ring_buffer_m_p.html" target="_top" xlink:title=" ">
<polygon fill="white" stroke="#666666" points="497.25,-177.5 371.75,-177.5 371.75,-147 497.25,-147 497.25,-177.5"/>
<text text-anchor="start" x="379.75" y="-164" font-family="Helvetica,sans-Serif" font-size="10.00">Cpl::Container::RingBuffer</text>
<text text-anchor="middle" x="434.5" y="-152.75" font-family="Helvetica,sans-Serif" font-size="10.00">MP&lt; AjaxUiEvent_T &gt;</text>
</a>
</g>
</g>
<!-- Node5&#45;&gt;Node7 -->
<g id="edge40_Node000005_Node000007" class="edge">
<title>Node5&#45;&gt;Node7</title>
<g id="a_edge40_Node000005_Node000007"><a xlink:title=" ">
<path fill="none" stroke="#63b8ff" d="M314.02,-131.78C333.1,-136.64 353.5,-141.85 371.94,-146.55"/>
<polygon fill="#63b8ff" stroke="#63b8ff" points="314.98,-128.41 304.42,-129.33 313.25,-135.19 314.98,-128.41"/>
</a>
</g>
</g>
<!-- Node8 -->
<g id="Node000008" class="node">
<title>Node8</title>
<g id="a_Node000008"><a xlink:href="class_cpl_1_1_container_1_1_ring_buffer_m_p.html" target="_top" xlink:title=" ">
<polygon fill="white" stroke="#666666" points="513.75,-128.5 355.25,-128.5 355.25,-98 513.75,-98 513.75,-128.5"/>
<text text-anchor="start" x="363.25" y="-115" font-family="Helvetica,sans-Serif" font-size="10.00">Cpl::Container::RingBuffer</text>
<text text-anchor="middle" x="434.5" y="-103.75" font-family="Helvetica,sans-Serif" font-size="10.00">MP&lt; Cpl::Logging::EntryData_T &gt;</text>
</a>
</g>
</g>
<!-- Node5&#45;&gt;Node8 -->
<g id="edge41_Node000005_Node000008" class="edge">
<title>Node5&#45;&gt;Node8</title>
<g id="a_edge41_Node000005_Node000008"><a xlink:title=" ">
<path fill="none" stroke="#63b8ff" d="M314.87,-113.25C328.03,-113.25 341.79,-113.25 355.09,-113.25"/>
<polygon fill="#63b8ff" stroke="#63b8ff" points="315,-109.75 305,-113.25 315,-116.75 315,-109.75"/>
</a>
</g>
</g>
<!-- Node9 -->
<g id="Node000009" class="node">
<title>Node9</title>
<g id="a_Node000009"><a xlink:href="class_cpl_1_1_container_1_1_ring_buffer_m_p.html" target="_top" xlink:title=" ">
<polygon fill="white" stroke="#666666" points="497.25,-79.5 371.75,-79.5 371.75,-49 497.25,-49 497.25,-79.5"/>
<text text-anchor="start" x="379.75" y="-66" font-family="Helvetica,sans-Serif" font-size="10.00">Cpl::Container::RingBuffer</text>
<text text-anchor="middle" x="434.5" y="-54.75" font-family="Helvetica,sans-Serif" font-size="10.00">MP&lt; ENTRY &gt;</text>
</a>
</g>
</g>
<!-- Node5&#45;&gt;Node9 -->
<g id="edge42_Node000005_Node000009" class="edge">
<title>Node5&#45;&gt;Node9</title>
<g id="a_edge42_Node000005_Node000009"><a xlink:title=" ">
<path fill="none" stroke="#63b8ff" d="M314.02,-94.72C333.1,-89.86 353.5,-84.65 371.94,-79.95"/>
<polygon fill="#63b8ff" stroke="#63b8ff" points="313.25,-91.31 304.42,-97.17 314.98,-98.09 313.25,-91.31"/>
</a>
</g>
</g>
<!-- Node10 -->
<g id="Node000010" class="node">
<title>Node10</title>
<g id="a_Node000010"><a xlink:href="class_cpl_1_1_container_1_1_ring_buffer_m_p.html" target="_top" xlink:title="This template class implements a THREAD SAFE Ring Buffer AND it maintains/reports the number of eleme...">
<polygon fill="white" stroke="#666666" points="497.25,-30.5 371.75,-30.5 371.75,0 497.25,0 497.25,-30.5"/>
<text text-anchor="start" x="379.75" y="-17" font-family="Helvetica,sans-Serif" font-size="10.00">Cpl::Container::RingBuffer</text>
<text text-anchor="middle" x="434.5" y="-5.75" font-family="Helvetica,sans-Serif" font-size="10.00">MP&lt; ITEM &gt;</text>
</a>
</g>
</g>
<!-- Node5&#45;&gt;Node10 -->
<g id="edge43_Node000005_Node000010" class="edge">
<title>Node5&#45;&gt;Node10</title>
<g id="a_edge43_Node000005_Node000010"><a xlink:title=" ">
<path fill="none" stroke="#63b8ff" d="M271.47,-90.86C293.73,-75.09 325.26,-54.35 355.25,-40.25 362.48,-36.85 370.29,-33.74 378.08,-30.96"/>
<polygon fill="#63b8ff" stroke="#63b8ff" points="269.54,-87.94 263.46,-96.62 273.63,-93.62 269.54,-87.94"/>
</a>
</g>
</g>
</g>
</svg>
