<?xml version="1.0" encoding="UTF-8" standalone="no"?>
<!DOCTYPE svg PUBLIC "-//W3C//DTD SVG 1.1//EN"
 "http://www.w3.org/Graphics/SVG/1.1/DTD/svg11.dtd">
<!-- Generated by graphviz version 9.0.0 (20230911.1827)
 -->
<!-- Title: Graphical Class Hierarchy Pages: 1 -->
<svg width="238pt" height="88pt"
 viewBox="0.00 0.00 238.00 87.50" xmlns="http://www.w3.org/2000/svg" xmlns:xlink="http://www.w3.org/1999/xlink">
<g id="graph0" class="graph" transform="scale(1 1) rotate(0) translate(4 83.5)">
<title>Graphical Class Hierarchy</title>
<!-- Node0 -->
<g id="Node000000" class="node">
<title>Node0</title>
<g id="a_Node000000"><a xlink:href="class_driver_1_1_i2_c_1_1_master.html" target="_top" xlink:title="This class defines a non&#45;platform specific interface for an I2C master device driver.">
<polygon fill="white" stroke="#666666" points="95.5,-48.88 0,-48.88 0,-29.62 95.5,-29.62 95.5,-48.88"/>
<text text-anchor="middle" x="47.75" y="-35.38" font-family="Helvetica,sans-Serif" font-size="10.00">Driver::I2C::Master</text>
</a>
</g>
</g>
<!-- Node1 -->
<g id="Node000001" class="node">
<title>Node1</title>
<g id="a_Node000001"><a xlink:href="class_driver_1_1_i2_c_1_1_arduino_1_1_master.html" target="_top" xlink:title="This class implements the I2C interface using the Arduino framework and/or APIs.">
<polygon fill="white" stroke="#666666" points="230,-79.5 131.5,-79.5 131.5,-49 230,-49 230,-79.5"/>
<text text-anchor="start" x="139.5" y="-66" font-family="Helvetica,sans-Serif" font-size="10.00">Driver::I2C::Arduino</text>
<text text-anchor="middle" x="180.75" y="-54.75" font-family="Helvetica,sans-Serif" font-size="10.00">::Master</text>
</a>
</g>
</g>
<!-- Node0&#45;&gt;Node1 -->
<g id="edge382_Node000000_Node000001" class="edge">
<title>Node0&#45;&gt;Node1</title>
<g id="a_edge382_Node000000_Node000001"><a xlink:title=" ">
<path fill="none" stroke="#63b8ff" d="M106.75,-50.32C114.98,-51.89 123.37,-53.49 131.39,-55.02"/>
<polygon fill="#63b8ff" stroke="#63b8ff" points="107.64,-46.93 97.16,-48.49 106.33,-53.8 107.64,-46.93"/>
</a>
</g>
</g>
<!-- Node2 -->
<g id="Node000002" class="node">
<title>Node2</title>
<g id="a_Node000002"><a xlink:href="class_driver_1_1_i2_c_1_1_s_t_m32_1_1_master.html" target="_top" xlink:title="This class implements the I2C interface for the STM32 family of micro&#45;controller using the ST&#39;s MX Cu...">
<polygon fill="white" stroke="#666666" points="229.25,-30.5 132.25,-30.5 132.25,0 229.25,0 229.25,-30.5"/>
<text text-anchor="start" x="140.25" y="-17" font-family="Helvetica,sans-Serif" font-size="10.00">Driver::I2C::STM32</text>
<text text-anchor="middle" x="180.75" y="-5.75" font-family="Helvetica,sans-Serif" font-size="10.00">::Master</text>
</a>
</g>
</g>
<!-- Node0&#45;&gt;Node2 -->
<g id="edge383_Node000000_Node000002" class="edge">
<title>Node0&#45;&gt;Node2</title>
<g id="a_edge383_Node000000_Node000002"><a xlink:title=" ">
<path fill="none" stroke="#63b8ff" d="M106.89,-28.6C115.23,-27.07 123.72,-25.51 131.83,-24.03"/>
<polygon fill="#63b8ff" stroke="#63b8ff" points="106.37,-25.14 97.16,-30.38 107.63,-32.02 106.37,-25.14"/>
</a>
</g>
</g>
</g>
</svg>
