<?xml version="1.0" encoding="UTF-8" standalone="no"?>
<!DOCTYPE svg PUBLIC "-//W3C//DTD SVG 1.1//EN"
 "http://www.w3.org/Graphics/SVG/1.1/DTD/svg11.dtd">
<!-- Generated by graphviz version 9.0.0 (20230911.1827)
 -->
<!-- Title: Ajax/Main/platform.h Pages: 1 -->
<svg width="534pt" height="260pt"
 viewBox="0.00 0.00 534.38 259.50" xmlns="http://www.w3.org/2000/svg" xmlns:xlink="http://www.w3.org/1999/xlink">
<g id="graph0" class="graph" transform="scale(1 1) rotate(0) translate(4 255.5)">
<title>Ajax/Main/platform.h</title>
<!-- Node1 -->
<g id="Node000001" class="node">
<title>Node1</title>
<g id="a_Node000001"><a xlink:title="This file contains the interface(s) that are platform VARIANT specific.">
<polygon fill="#999999" stroke="#666666" points="271.25,-251.5 166.75,-251.5 166.75,-232.25 271.25,-232.25 271.25,-251.5"/>
<text text-anchor="middle" x="219" y="-238" font-family="Helvetica,sans-Serif" font-size="10.00">Ajax/Main/platform.h</text>
</a>
</g>
</g>
<!-- Node2 -->
<g id="Node000002" class="node">
<title>Node2</title>
<g id="a_Node000002"><a xlink:href="_driver_2_pico_display_2_api_8h.html" target="_top" xlink:title=" ">
<polygon fill="white" stroke="#666666" points="266.75,-196.25 171.25,-196.25 171.25,-165.75 266.75,-165.75 266.75,-196.25"/>
<text text-anchor="start" x="179.25" y="-182.75" font-family="Helvetica,sans-Serif" font-size="10.00">Driver/PicoDisplay</text>
<text text-anchor="middle" x="219" y="-171.5" font-family="Helvetica,sans-Serif" font-size="10.00">/Api.h</text>
</a>
</g>
</g>
<!-- Node1&#45;&gt;Node2 -->
<g id="edge1_Node000001_Node000002" class="edge">
<title>Node1&#45;&gt;Node2</title>
<g id="a_edge1_Node000001_Node000002"><a xlink:title=" ">
<path fill="none" stroke="#63b8ff" d="M219,-231.93C219,-225.48 219,-216.41 219,-207.76"/>
<polygon fill="#63b8ff" stroke="#63b8ff" points="222.5,-208.05 219,-198.05 215.5,-208.05 222.5,-208.05"/>
</a>
</g>
</g>
<!-- Node3 -->
<g id="Node000003" class="node">
<title>Node3</title>
<g id="a_Node000003"><a xlink:title=" ">
<polygon fill="#e0e0e0" stroke="#999999" points="82,-129.75 0,-129.75 0,-110.5 82,-110.5 82,-129.75"/>
<text text-anchor="middle" x="41" y="-116.25" font-family="Helvetica,sans-Serif" font-size="10.00">colony_config.h</text>
</a>
</g>
</g>
<!-- Node2&#45;&gt;Node3 -->
<g id="edge2_Node000002_Node000003" class="edge">
<title>Node2&#45;&gt;Node3</title>
<g id="a_edge2_Node000002_Node000003"><a xlink:title=" ">
<path fill="none" stroke="#63b8ff" d="M174.54,-165.3C145.18,-155.58 107.1,-142.99 79.12,-133.73"/>
<polygon fill="#63b8ff" stroke="#63b8ff" points="80.59,-130.53 70,-130.72 78.39,-137.18 80.59,-130.53"/>
</a>
</g>
</g>
<!-- Node4 -->
<g id="Node000004" class="node">
<title>Node4</title>
<g id="a_Node000004"><a xlink:title=" ">
<polygon fill="#e0e0e0" stroke="#999999" points="194,-129.75 100,-129.75 100,-110.5 194,-110.5 194,-129.75"/>
<text text-anchor="middle" x="147" y="-116.25" font-family="Helvetica,sans-Serif" font-size="10.00">pico_graphics.hpp</text>
</a>
</g>
</g>
<!-- Node2&#45;&gt;Node4 -->
<g id="edge3_Node000002_Node000004" class="edge">
<title>Node2&#45;&gt;Node4</title>
<g id="a_edge3_Node000002_Node000004"><a xlink:title=" ">
<path fill="none" stroke="#63b8ff" d="M201.2,-165.45C190.77,-156.91 177.56,-146.12 166.8,-137.31"/>
<polygon fill="#63b8ff" stroke="#63b8ff" points="169.23,-134.78 159.27,-131.16 164.8,-140.2 169.23,-134.78"/>
</a>
</g>
</g>
<!-- Node5 -->
<g id="Node000005" class="node">
<title>Node5</title>
<g id="a_Node000005"><a xlink:href="_polled_debounced_8h.html" target="_top" xlink:title=" ">
<polygon fill="white" stroke="#666666" points="371.62,-129.75 212.38,-129.75 212.38,-110.5 371.62,-110.5 371.62,-129.75"/>
<text text-anchor="middle" x="292" y="-116.25" font-family="Helvetica,sans-Serif" font-size="10.00">Driver/Button/PolledDebounced.h</text>
</a>
</g>
</g>
<!-- Node2&#45;&gt;Node5 -->
<g id="edge4_Node000002_Node000005" class="edge">
<title>Node2&#45;&gt;Node5</title>
<g id="a_edge4_Node000002_Node000005"><a xlink:title=" ">
<path fill="none" stroke="#63b8ff" d="M237.04,-165.45C247.63,-156.91 261.01,-146.12 271.93,-137.31"/>
<polygon fill="#63b8ff" stroke="#63b8ff" points="273.98,-140.15 279.57,-131.15 269.59,-134.7 273.98,-140.15"/>
</a>
</g>
</g>
<!-- Node8 -->
<g id="Node000008" class="node">
<title>Node8</title>
<g id="a_Node000008"><a xlink:href="_red_green_blue_8h.html" target="_top" xlink:title=" ">
<polygon fill="white" stroke="#666666" points="526.38,-129.75 389.62,-129.75 389.62,-110.5 526.38,-110.5 526.38,-129.75"/>
<text text-anchor="middle" x="458" y="-116.25" font-family="Helvetica,sans-Serif" font-size="10.00">Driver/LED/RedGreenBlue.h</text>
</a>
</g>
</g>
<!-- Node2&#45;&gt;Node8 -->
<g id="edge7_Node000002_Node000008" class="edge">
<title>Node2&#45;&gt;Node8</title>
<g id="a_edge7_Node000002_Node000008"><a xlink:title=" ">
<path fill="none" stroke="#63b8ff" d="M267.08,-168.16C308.78,-157.88 368.82,-143.09 410.39,-132.85"/>
<polygon fill="#63b8ff" stroke="#63b8ff" points="410.98,-136.31 419.86,-130.52 409.31,-129.51 410.98,-136.31"/>
</a>
</g>
</g>
<!-- Node6 -->
<g id="Node000006" class="node">
<title>Node6</title>
<g id="a_Node000006"><a xlink:href="_hal_8h.html" target="_top" xlink:title="This file defines a hardware abstraction layer (HAL) for accessing a digital Input that is being used...">
<polygon fill="white" stroke="#666666" points="341.25,-74.5 242.75,-74.5 242.75,-55.25 341.25,-55.25 341.25,-74.5"/>
<text text-anchor="middle" x="292" y="-61" font-family="Helvetica,sans-Serif" font-size="10.00">Driver/Button/Hal.h</text>
</a>
</g>
</g>
<!-- Node5&#45;&gt;Node6 -->
<g id="edge5_Node000005_Node000006" class="edge">
<title>Node5&#45;&gt;Node6</title>
<g id="a_edge5_Node000005_Node000006"><a xlink:title=" ">
<path fill="none" stroke="#63b8ff" d="M292,-110.33C292,-103.82 292,-94.67 292,-86.37"/>
<polygon fill="#63b8ff" stroke="#63b8ff" points="295.5,-86.37 292,-76.37 288.5,-86.37 295.5,-86.37"/>
</a>
</g>
</g>
<!-- Node7 -->
<g id="Node000007" class="node">
<title>Node7</title>
<g id="a_Node000007"><a xlink:title=" ">
<polygon fill="#e0e0e0" stroke="#999999" points="329.62,-19.25 254.38,-19.25 254.38,0 329.62,0 329.62,-19.25"/>
<text text-anchor="middle" x="292" y="-5.75" font-family="Helvetica,sans-Serif" font-size="10.00">colony_map.h</text>
</a>
</g>
</g>
<!-- Node6&#45;&gt;Node7 -->
<g id="edge6_Node000006_Node000007" class="edge">
<title>Node6&#45;&gt;Node7</title>
<g id="a_edge6_Node000006_Node000007"><a xlink:title=" ">
<path fill="none" stroke="#63b8ff" d="M292,-55.08C292,-48.57 292,-39.42 292,-31.12"/>
<polygon fill="#63b8ff" stroke="#63b8ff" points="295.5,-31.12 292,-21.12 288.5,-31.12 295.5,-31.12"/>
</a>
</g>
</g>
<!-- Node9 -->
<g id="Node000009" class="node">
<title>Node9</title>
<g id="a_Node000009"><a xlink:title=" ">
<polygon fill="#e0e0e0" stroke="#999999" points="481.75,-74.5 434.25,-74.5 434.25,-55.25 481.75,-55.25 481.75,-74.5"/>
<text text-anchor="middle" x="458" y="-61" font-family="Helvetica,sans-Serif" font-size="10.00">stdint.h</text>
</a>
</g>
</g>
<!-- Node8&#45;&gt;Node9 -->
<g id="edge8_Node000008_Node000009" class="edge">
<title>Node8&#45;&gt;Node9</title>
<g id="a_edge8_Node000008_Node000009"><a xlink:title=" ">
<path fill="none" stroke="#63b8ff" d="M458,-110.33C458,-103.82 458,-94.67 458,-86.37"/>
<polygon fill="#63b8ff" stroke="#63b8ff" points="461.5,-86.37 458,-76.37 454.5,-86.37 461.5,-86.37"/>
</a>
</g>
</g>
</g>
</svg>
