<?xml version="1.0" encoding="UTF-8" standalone="no"?>
<!DOCTYPE svg PUBLIC "-//W3C//DTD SVG 1.1//EN"
 "http://www.w3.org/Graphics/SVG/1.1/DTD/svg11.dtd">
<!-- Generated by graphviz version 9.0.0 (20230911.1827)
 -->
<!-- Title: corCoRoutineControlBlock Pages: 1 -->
<svg width="174pt" height="108pt"
 viewBox="0.00 0.00 174.38 108.25" xmlns="http://www.w3.org/2000/svg" xmlns:xlink="http://www.w3.org/1999/xlink">
<g id="graph0" class="graph" transform="scale(1 1) rotate(0) translate(4 104.25)">
<title>corCoRoutineControlBlock</title>
<!-- Node1 -->
<g id="Node000001" class="node">
<title>Node1</title>
<g id="a_Node000001"><a xlink:title=" ">
<polygon fill="#999999" stroke="#666666" points="130,-19.25 0,-19.25 0,0 130,0 130,-19.25"/>
<text text-anchor="middle" x="65" y="-5.75" font-family="Helvetica,sans-Serif" font-size="10.00">corCoRoutineControlBlock</text>
</a>
</g>
</g>
<!-- Node2 -->
<g id="Node000002" class="node">
<title>Node2</title>
<g id="a_Node000002"><a xlink:href="structx_l_i_s_t___i_t_e_m.html" target="_top" xlink:title=" ">
<polygon fill="white" stroke="#bfbfbf" points="100.38,-98.62 29.62,-98.62 29.62,-79.38 100.38,-79.38 100.38,-98.62"/>
<text text-anchor="middle" x="65" y="-85.12" font-family="Helvetica,sans-Serif" font-size="10.00">xLIST_ITEM</text>
</a>
</g>
</g>
<!-- Node2&#45;&gt;Node1 -->
<g id="edge1_Node000001_Node000002" class="edge">
<title>Node2&#45;&gt;Node1</title>
<g id="a_edge1_Node000001_Node000002"><a xlink:title=" ">
<path fill="none" stroke="#9a32cd" stroke-dasharray="5,2" d="M65,-67.96C65,-52.24 65,-31.12 65,-19.4"/>
<polygon fill="#9a32cd" stroke="#9a32cd" points="61.5,-67.61 65,-77.61 68.5,-67.61 61.5,-67.61"/>
</a>
</g>
<text text-anchor="middle" x="102.12" y="-50.25" font-family="Helvetica,sans-Serif" font-size="10.00" fill="grey"> xEventListItem</text>
<text text-anchor="middle" x="102.12" y="-39" font-family="Helvetica,sans-Serif" font-size="10.00" fill="grey">xGenericListItem</text>
</g>
<!-- Node2&#45;&gt;Node2 -->
<g id="edge2_Node000002_Node000002" class="edge">
<title>Node2&#45;&gt;Node2</title>
<g id="a_edge2_Node000002_Node000002"><a xlink:title=" ">
<path fill="none" stroke="#9a32cd" stroke-dasharray="5,2" d="M112.03,-94.87C115.94,-93.6 118.38,-91.65 118.38,-89 118.38,-84.29 110.69,-81.77 100.67,-81.44"/>
<polygon fill="#9a32cd" stroke="#9a32cd" points="111.54,-91.4 102.17,-96.33 112.57,-98.32 111.54,-91.4"/>
</a>
</g>
<text text-anchor="middle" x="142.38" y="-90.75" font-family="Helvetica,sans-Serif" font-size="10.00" fill="grey"> pxNext</text>
<text text-anchor="middle" x="142.38" y="-79.5" font-family="Helvetica,sans-Serif" font-size="10.00" fill="grey">pxPrevious</text>
</g>
</g>
</svg>
