<?xml version="1.0" encoding="UTF-8" standalone="no"?>
<!DOCTYPE svg PUBLIC "-//W3C//DTD SVG 1.1//EN"
 "http://www.w3.org/Graphics/SVG/1.1/DTD/svg11.dtd">
<!-- Generated by graphviz version 9.0.0 (20230911.1827)
 -->
<!-- Title: Cpl::Dm::Persistent::Record::Item_T Pages: 1 -->
<svg width="2364pt" height="551pt"
 viewBox="0.00 0.00 2363.50 550.88" xmlns="http://www.w3.org/2000/svg" xmlns:xlink="http://www.w3.org/1999/xlink">
<g id="graph0" class="graph" transform="scale(1 1) rotate(0) translate(4 546.88)">
<title>Cpl::Dm::Persistent::Record::Item_T</title>
<!-- Node1 -->
<g id="Node000001" class="node">
<title>Node1</title>
<g id="a_Node000001"><a xlink:title="This data structure associates a Data Model subscriber instance with a Model Point instance.">
<polygon fill="#999999" stroke="#666666" points="1532.12,-276.88 1433.62,-276.88 1433.62,-246.38 1532.12,-246.38 1532.12,-276.88"/>
<text text-anchor="start" x="1441.62" y="-263.38" font-family="Helvetica,sans-Serif" font-size="10.00">Cpl::Dm::Persistent</text>
<text text-anchor="middle" x="1482.88" y="-252.12" font-family="Helvetica,sans-Serif" font-size="10.00">::Record::Item_T</text>
</a>
</g>
</g>
<!-- Node23 -->
<g id="Node000023" class="node">
<title>Node23</title>
<g id="a_Node000023"><a xlink:href="class_cpl_1_1_dm_1_1_persistent_1_1_record.html" target="_top" xlink:title="This mostly concrete class implements the Cpl::Persistent::Record interface where a Record instance c...">
<polygon fill="white" stroke="#666666" points="1755.88,-176.88 1657.38,-176.88 1657.38,-146.38 1755.88,-146.38 1755.88,-176.88"/>
<text text-anchor="start" x="1665.38" y="-163.38" font-family="Helvetica,sans-Serif" font-size="10.00">Cpl::Dm::Persistent</text>
<text text-anchor="middle" x="1706.62" y="-152.12" font-family="Helvetica,sans-Serif" font-size="10.00">::Record</text>
</a>
</g>
</g>
<!-- Node1&#45;&gt;Node23 -->
<g id="edge37_Node000023_Node000001" class="edge">
<title>Node1&#45;&gt;Node23</title>
<g id="a_edge37_Node000023_Node000001"><a xlink:title=" ">
<path fill="none" stroke="#9a32cd" stroke-dasharray="5,2" d="M1537.5,-242.13C1580.12,-226.59 1633.4,-207.03 1638.25,-204.62 1654.16,-196.73 1671,-185.98 1683.87,-177.2"/>
<polygon fill="#9a32cd" stroke="#9a32cd" points="1536.54,-238.76 1528.35,-245.47 1538.94,-245.33 1536.54,-238.76"/>
</a>
</g>
<text text-anchor="middle" x="1600.38" y="-234.38" font-family="Helvetica,sans-Serif" font-size="10.00" fill="grey"> m_items</text>
</g>
<!-- Node2 -->
<g id="Node000002" class="node">
<title>Node2</title>
<g id="a_Node000002"><a xlink:href="class_cpl_1_1_dm_1_1_model_point.html" target="_top" xlink:title="This mostly abstract class defines the interface for a Model Point.">
<polygon fill="white" stroke="#666666" points="1285.88,-293.25 1182.88,-293.25 1182.88,-274 1285.88,-274 1285.88,-293.25"/>
<text text-anchor="middle" x="1234.38" y="-279.75" font-family="Helvetica,sans-Serif" font-size="10.00">Cpl::Dm::ModelPoint</text>
</a>
</g>
</g>
<!-- Node2&#45;&gt;Node1 -->
<g id="edge1_Node000001_Node000002" class="edge">
<title>Node2&#45;&gt;Node1</title>
<g id="a_edge1_Node000001_Node000002"><a xlink:title=" ">
<path fill="none" stroke="#9a32cd" stroke-dasharray="5,2" d="M1297.38,-278.09C1339.47,-274.33 1394.33,-269.44 1433.26,-265.96"/>
<polygon fill="#9a32cd" stroke="#9a32cd" points="1297.31,-274.58 1287.66,-278.96 1297.93,-281.56 1297.31,-274.58"/>
</a>
</g>
<text text-anchor="middle" x="1365" y="-276.38" font-family="Helvetica,sans-Serif" font-size="10.00" fill="grey"> mpPtr</text>
</g>
<!-- Node4 -->
<g id="Node000004" class="node">
<title>Node4</title>
<g id="a_Node000004"><a xlink:href="class_cpl_1_1_dm_1_1_subscriber_composer.html" target="_top" xlink:title=" ">
<polygon fill="white" stroke="#666666" points="2355.5,-325.5 2210.5,-325.5 2210.5,-283.75 2355.5,-283.75 2355.5,-325.5"/>
<text text-anchor="start" x="2218.5" y="-312" font-family="Helvetica,sans-Serif" font-size="10.00">Cpl::Dm::SubscriberComposer</text>
<text text-anchor="start" x="2218.5" y="-300.75" font-family="Helvetica,sans-Serif" font-size="10.00">&lt; Cpl::Dm::Persistent::Record,</text>
<text text-anchor="middle" x="2283" y="-289.5" font-family="Helvetica,sans-Serif" font-size="10.00"> Cpl::Dm::ModelPoint &gt;</text>
</a>
</g>
</g>
<!-- Node2&#45;&gt;Node4 -->
<g id="edge39_Node000004_Node000002" class="edge">
<title>Node2&#45;&gt;Node4</title>
<g id="a_edge39_Node000004_Node000002"><a xlink:title=" ">
<path fill="none" stroke="#9a32cd" stroke-dasharray="5,2" d="M1297.47,-291.85C1347.24,-297.74 1418.92,-304.62 1481.88,-304.62 1481.88,-304.62 1481.88,-304.62 1967.25,-304.62 2050.58,-304.62 2146.32,-304.62 2210.12,-304.62"/>
<polygon fill="#9a32cd" stroke="#9a32cd" points="1298.1,-288.41 1287.76,-290.68 1297.27,-295.36 1298.1,-288.41"/>
</a>
</g>
<text text-anchor="middle" x="1706.62" y="-306.38" font-family="Helvetica,sans-Serif" font-size="10.00" fill="grey"> m_notificationCb</text>
</g>
<!-- Node6 -->
<g id="Node000006" class="node">
<title>Node6</title>
<g id="a_Node000006"><a xlink:href="class_cpl_1_1_dm_1_1_subscriber_base.html" target="_top" xlink:title="This mostly concrete class defines the Subscriber interface &#45; for change notifications &#45; to a Model P...">
<polygon fill="white" stroke="#666666" points="1544.5,-373.25 1421.25,-373.25 1421.25,-354 1544.5,-354 1544.5,-373.25"/>
<text text-anchor="middle" x="1482.88" y="-359.75" font-family="Helvetica,sans-Serif" font-size="10.00">Cpl::Dm::SubscriberBase</text>
</a>
</g>
</g>
<!-- Node2&#45;&gt;Node6 -->
<g id="edge9_Node000006_Node000002" class="edge">
<title>Node2&#45;&gt;Node6</title>
<g id="a_edge9_Node000006_Node000002"><a xlink:title=" ">
<path fill="none" stroke="#9a32cd" stroke-dasharray="5,2" d="M1274,-297.51C1290.25,-303.25 1309.37,-309.89 1326.75,-315.62 1368.38,-329.35 1416.67,-344.11 1448.17,-353.59"/>
<polygon fill="#9a32cd" stroke="#9a32cd" points="1275.3,-294.25 1264.7,-294.2 1272.96,-300.85 1275.3,-294.25"/>
</a>
</g>
<text text-anchor="middle" x="1365" y="-341.38" font-family="Helvetica,sans-Serif" font-size="10.00" fill="grey"> m_point</text>
</g>
<!-- Node3 -->
<g id="Node000003" class="node">
<title>Node3</title>
<g id="a_Node000003"><a xlink:href="class_cpl_1_1_container_1_1_item.html" target="_top" xlink:title="This class is used by the Container classes to implement a various types of singly linked containers.">
<polygon fill="white" stroke="#666666" points="101.88,-251.25 1.88,-251.25 1.88,-232 101.88,-232 101.88,-251.25"/>
<text text-anchor="middle" x="51.88" y="-237.75" font-family="Helvetica,sans-Serif" font-size="10.00">Cpl::Container::Item</text>
</a>
</g>
</g>
<!-- Node3&#45;&gt;Node2 -->
<g id="edge2_Node000002_Node000003" class="edge">
<title>Node3&#45;&gt;Node2</title>
<g id="a_edge2_Node000002_Node000003"><a xlink:title=" ">
<path fill="none" stroke="#63b8ff" d="M113.35,-241.62C177.7,-241.62 282.47,-241.62 372.88,-241.62 372.88,-241.62 372.88,-241.62 982.38,-241.62 1059.47,-241.62 1148.09,-261.14 1196.7,-273.56"/>
<polygon fill="#63b8ff" stroke="#63b8ff" points="113.73,-238.13 103.73,-241.63 113.73,-245.13 113.73,-238.13"/>
</a>
</g>
</g>
<!-- Node8 -->
<g id="Node000008" class="node">
<title>Node8</title>
<g id="a_Node000008"><a xlink:href="class_cpl_1_1_container_1_1_extended_item.html" target="_top" xlink:title="This class is used by the Container classes to implement a various types of DOUBLY linked containers.">
<polygon fill="white" stroke="#666666" points="1051.25,-213.25 911.5,-213.25 911.5,-194 1051.25,-194 1051.25,-213.25"/>
<text text-anchor="middle" x="981.38" y="-199.75" font-family="Helvetica,sans-Serif" font-size="10.00">Cpl::Container::ExtendedItem</text>
</a>
</g>
</g>
<!-- Node3&#45;&gt;Node8 -->
<g id="edge8_Node000008_Node000003" class="edge">
<title>Node3&#45;&gt;Node8</title>
<g id="a_edge8_Node000008_Node000003"><a xlink:title=" ">
<path fill="none" stroke="#63b8ff" d="M107.74,-229.59C112.47,-228.82 117.18,-228.15 121.75,-227.62 413.61,-194.14 764.74,-197.98 911.08,-201.53"/>
<polygon fill="#63b8ff" stroke="#63b8ff" points="107.52,-226.08 98.28,-231.26 108.73,-232.97 107.52,-226.08"/>
</a>
</g>
</g>
<!-- Node13 -->
<g id="Node000013" class="node">
<title>Node13</title>
<g id="a_Node000013"><a xlink:href="class_cpl_1_1_system_1_1_signable.html" target="_top" xlink:title="This abstract class defines the interface by which a client can cause an object that is waiting&#45;on&#45;a&#45;...">
<polygon fill="white" stroke="#666666" points="428.75,-426.25 319,-426.25 319,-407 428.75,-407 428.75,-426.25"/>
<text text-anchor="middle" x="373.88" y="-412.75" font-family="Helvetica,sans-Serif" font-size="10.00">Cpl::System::Signable</text>
</a>
</g>
</g>
<!-- Node3&#45;&gt;Node13 -->
<g id="edge15_Node000013_Node000003" class="edge">
<title>Node3&#45;&gt;Node13</title>
<g id="a_edge15_Node000013_Node000003"><a xlink:title=" ">
<path fill="none" stroke="#63b8ff" d="M56.11,-262.57C62.38,-295.39 79.5,-358.34 121.75,-388.62 179.16,-429.77 263.68,-430.24 318.51,-424.92"/>
<polygon fill="#63b8ff" stroke="#63b8ff" points="59.62,-262.34 54.46,-253.08 52.72,-263.53 59.62,-262.34"/>
</a>
</g>
</g>
<!-- Node4&#45;&gt;Node1 -->
<g id="edge3_Node000001_Node000004" class="edge">
<title>Node4&#45;&gt;Node1</title>
<g id="a_edge3_Node000001_Node000004"><a xlink:title=" ">
<path fill="none" stroke="#9a32cd" stroke-dasharray="5,2" d="M2199.09,-291.32C2196.87,-291.07 2194.67,-290.84 2192.5,-290.62 1945.28,-266.31 1647.61,-262.31 1532.55,-261.7"/>
<polygon fill="#9a32cd" stroke="#9a32cd" points="2198.43,-294.76 2208.78,-292.49 2199.27,-287.81 2198.43,-294.76"/>
</a>
</g>
<text text-anchor="middle" x="1825.38" y="-270.38" font-family="Helvetica,sans-Serif" font-size="10.00" fill="grey"> observerPtr</text>
</g>
<!-- Node5 -->
<g id="Node000005" class="node">
<title>Node5</title>
<g id="a_Node000005"><a xlink:href="class_cpl_1_1_dm_1_1_subscriber.html" target="_top" xlink:title="This template class defines a type safe Subscriber.">
<polygon fill="white" stroke="#666666" points="1875.75,-358.88 1775,-358.88 1775,-328.38 1875.75,-328.38 1875.75,-358.88"/>
<text text-anchor="start" x="1783" y="-345.38" font-family="Helvetica,sans-Serif" font-size="10.00">Cpl::Dm::Subscriber</text>
<text text-anchor="middle" x="1825.38" y="-334.12" font-family="Helvetica,sans-Serif" font-size="10.00">&lt; MP &gt;</text>
</a>
</g>
</g>
<!-- Node5&#45;&gt;Node4 -->
<g id="edge4_Node000004_Node000005" class="edge">
<title>Node5&#45;&gt;Node4</title>
<g id="a_edge4_Node000004_Node000005"><a xlink:title=" ">
<path fill="none" stroke="#63b8ff" d="M1887.47,-341.08C1960.27,-337.67 2085.52,-330.62 2192.5,-318.62 2198.28,-317.98 2204.26,-317.22 2210.26,-316.41"/>
<polygon fill="#63b8ff" stroke="#63b8ff" points="1887.58,-337.57 1877.75,-341.53 1887.9,-344.56 1887.58,-337.57"/>
</a>
</g>
</g>
<!-- Node6&#45;&gt;Node5 -->
<g id="edge5_Node000005_Node000006" class="edge">
<title>Node6&#45;&gt;Node5</title>
<g id="a_edge5_Node000005_Node000006"><a xlink:title=" ">
<path fill="none" stroke="#63b8ff" d="M1555.84,-359.4C1621.52,-355.54 1716.89,-349.94 1774.54,-346.55"/>
<polygon fill="#63b8ff" stroke="#63b8ff" points="1556.04,-355.88 1546.26,-359.96 1556.45,-362.87 1556.04,-355.88"/>
</a>
</g>
</g>
<!-- Node32 -->
<g id="Node000032" class="node">
<title>Node32</title>
<g id="a_Node000032"><a xlink:href="class_cpl_1_1_dm_1_1_subscriber.html" target="_top" xlink:title="This template class defines a type safe Subscriber.">
<polygon fill="white" stroke="#666666" points="1757,-401.88 1656.25,-401.88 1656.25,-371.38 1757,-371.38 1757,-401.88"/>
<text text-anchor="start" x="1664.25" y="-388.38" font-family="Helvetica,sans-Serif" font-size="10.00">Cpl::Dm::Subscriber</text>
<text text-anchor="middle" x="1706.62" y="-377.12" font-family="Helvetica,sans-Serif" font-size="10.00">&lt; MP &gt;</text>
</a>
</g>
</g>
<!-- Node6&#45;&gt;Node32 -->
<g id="edge42_Node000032_Node000006" class="edge">
<title>Node6&#45;&gt;Node32</title>
<g id="a_edge42_Node000032_Node000006"><a xlink:title=" ">
<path fill="none" stroke="#63b8ff" d="M1556.1,-371.12C1588.81,-374.51 1626.65,-378.43 1656.08,-381.49"/>
<polygon fill="#63b8ff" stroke="#63b8ff" points="1556.58,-367.65 1546.27,-370.1 1555.85,-374.61 1556.58,-367.65"/>
</a>
</g>
</g>
<!-- Node7 -->
<g id="Node000007" class="node">
<title>Node7</title>
<g id="a_Node000007"><a xlink:href="class_cpl_1_1_dm_1_1_subscriber_api.html" target="_top" xlink:title="This abstract class defines the Subscriber interface &#45; for change notifications &#45; to a Model Points d...">
<polygon fill="white" stroke="#666666" points="1291.88,-371.25 1176.88,-371.25 1176.88,-352 1291.88,-352 1291.88,-371.25"/>
<text text-anchor="middle" x="1234.38" y="-357.75" font-family="Helvetica,sans-Serif" font-size="10.00">Cpl::Dm::SubscriberApi</text>
</a>
</g>
</g>
<!-- Node7&#45;&gt;Node6 -->
<g id="edge6_Node000006_Node000007" class="edge">
<title>Node7&#45;&gt;Node6</title>
<g id="a_edge6_Node000006_Node000007"><a xlink:title=" ">
<path fill="none" stroke="#63b8ff" d="M1303.38,-362.18C1340.21,-362.48 1385.33,-362.84 1420.99,-363.13"/>
<polygon fill="#63b8ff" stroke="#63b8ff" points="1303.78,-358.68 1293.75,-362.1 1303.72,-365.68 1303.78,-358.68"/>
</a>
</g>
</g>
<!-- Node31 -->
<g id="Node000031" class="node">
<title>Node31</title>
<g id="a_Node000031"><a xlink:href="class_cpl_1_1_dm_1_1_subscriber_composer.html" target="_top" xlink:title="This template class is a composer pattern/class that manages the callback function for a Model Point&#39;...">
<polygon fill="white" stroke="#666666" points="2038.75,-401.88 1893.75,-401.88 1893.75,-371.38 2038.75,-371.38 2038.75,-401.88"/>
<text text-anchor="start" x="1901.75" y="-388.38" font-family="Helvetica,sans-Serif" font-size="10.00">Cpl::Dm::SubscriberComposer</text>
<text text-anchor="middle" x="1966.25" y="-377.12" font-family="Helvetica,sans-Serif" font-size="10.00">&lt; CONTEXT, MP &gt;</text>
</a>
</g>
</g>
<!-- Node7&#45;&gt;Node31 -->
<g id="edge43_Node000031_Node000007" class="edge">
<title>Node7&#45;&gt;Node31</title>
<g id="a_edge43_Node000031_Node000007"><a xlink:title=" ">
<path fill="none" stroke="#9a32cd" stroke-dasharray="5,2" d="M1302.51,-376.17C1304.66,-377.24 1306.74,-378.39 1308.75,-379.62 1319.22,-386.06 1315.66,-395.32 1326.75,-400.62 1499.29,-483.18 1565.89,-418.66 1757,-410.62 1809.92,-408.4 1823.16,-406.94 1875.75,-400.62 1881.53,-399.93 1887.5,-399.14 1893.5,-398.31"/>
<polygon fill="#9a32cd" stroke="#9a32cd" points="1304.08,-373.03 1293.51,-372.31 1301.32,-379.47 1304.08,-373.03"/>
</a>
</g>
<text text-anchor="middle" x="1600.38" y="-437.38" font-family="Helvetica,sans-Serif" font-size="10.00" fill="grey"> m_notificationCb</text>
</g>
<!-- Node8&#45;&gt;Node7 -->
<g id="edge7_Node000007_Node000008" class="edge">
<title>Node8&#45;&gt;Node7</title>
<g id="a_edge7_Node000007_Node000008"><a xlink:title=" ">
<path fill="none" stroke="#63b8ff" d="M1007.89,-219.69C1059.53,-252.19 1175.08,-324.93 1217.43,-351.59"/>
<polygon fill="#63b8ff" stroke="#63b8ff" points="1010.07,-216.92 999.74,-214.56 1006.34,-222.84 1010.07,-216.92"/>
</a>
</g>
</g>
<!-- Node29 -->
<g id="Node000029" class="node">
<title>Node29</title>
<g id="a_Node000029"><a xlink:href="class_cpl_1_1_system_1_1_counter_callback__.html" target="_top" xlink:title="This abstract class defines the call&#45;back interface for a Counter object.">
<polygon fill="white" stroke="#666666" points="1308.75,-200.25 1160,-200.25 1160,-181 1308.75,-181 1308.75,-200.25"/>
<text text-anchor="middle" x="1234.38" y="-186.75" font-family="Helvetica,sans-Serif" font-size="10.00">Cpl::System::CounterCallback_</text>
</a>
</g>
</g>
<!-- Node8&#45;&gt;Node29 -->
<g id="edge35_Node000029_Node000008" class="edge">
<title>Node8&#45;&gt;Node29</title>
<g id="a_edge35_Node000029_Node000008"><a xlink:title=" ">
<path fill="none" stroke="#63b8ff" d="M1062.85,-199.46C1093.88,-197.85 1129.15,-196.02 1159.52,-194.45"/>
<polygon fill="#63b8ff" stroke="#63b8ff" points="1062.94,-195.95 1053.14,-199.96 1063.31,-202.94 1062.94,-195.95"/>
</a>
</g>
</g>
<!-- Node9 -->
<g id="Node000009" class="node">
<title>Node9</title>
<g id="a_Node000009"><a xlink:href="class_cpl_1_1_dm_1_1_event_loop.html" target="_top" xlink:title="This class extends the Cpl::System::EventLoop class to support the asynchronous change notification g...">
<polygon fill="white" stroke="#666666" points="1284.75,-408.25 1184,-408.25 1184,-389 1284.75,-389 1284.75,-408.25"/>
<text text-anchor="middle" x="1234.38" y="-394.75" font-family="Helvetica,sans-Serif" font-size="10.00">Cpl::Dm::EventLoop</text>
</a>
</g>
</g>
<!-- Node9&#45;&gt;Node6 -->
<g id="edge10_Node000006_Node000009" class="edge">
<title>Node9&#45;&gt;Node6</title>
<g id="a_edge10_Node000006_Node000009"><a xlink:title=" ">
<path fill="none" stroke="#9a32cd" stroke-dasharray="5,2" d="M1296.35,-390.5C1328.22,-386.19 1367.86,-380.75 1403.25,-375.62 1408.99,-374.79 1414.96,-373.91 1420.94,-373.02"/>
<polygon fill="#9a32cd" stroke="#9a32cd" points="1295.93,-387.02 1286.49,-391.83 1296.86,-393.96 1295.93,-387.02"/>
</a>
</g>
<text text-anchor="middle" x="1365" y="-387.38" font-family="Helvetica,sans-Serif" font-size="10.00" fill="grey"> m_eventLoopHdl</text>
</g>
<!-- Node10 -->
<g id="Node000010" class="node">
<title>Node10</title>
<g id="a_Node000010"><a xlink:href="class_cpl_1_1_system_1_1_event_loop.html" target="_top" xlink:title="This concrete class is a Runnable object that provides a event driven execution model for a thread.">
<polygon fill="white" stroke="#666666" points="1040.75,-408.25 922,-408.25 922,-389 1040.75,-389 1040.75,-408.25"/>
<text text-anchor="middle" x="981.38" y="-394.75" font-family="Helvetica,sans-Serif" font-size="10.00">Cpl::System::EventLoop</text>
</a>
</g>
</g>
<!-- Node10&#45;&gt;Node9 -->
<g id="edge11_Node000009_Node000010" class="edge">
<title>Node10&#45;&gt;Node9</title>
<g id="a_edge11_Node000009_Node000010"><a xlink:title=" ">
<path fill="none" stroke="#63b8ff" d="M1052.7,-398.62C1094.43,-398.62 1146.32,-398.62 1183.77,-398.62"/>
<polygon fill="#63b8ff" stroke="#63b8ff" points="1052.74,-395.13 1042.74,-398.63 1052.74,-402.13 1052.74,-395.13"/>
</a>
</g>
</g>
<!-- Node11 -->
<g id="Node000011" class="node">
<title>Node11</title>
<g id="a_Node000011"><a xlink:href="class_cpl_1_1_system_1_1_runnable.html" target="_top" xlink:title="This is an abstract class defines the interface for an object that is &quot;executed&quot; when a Thread object...">
<polygon fill="white" stroke="#666666" points="747.62,-289.25 634.88,-289.25 634.88,-270 747.62,-270 747.62,-289.25"/>
<text text-anchor="middle" x="691.25" y="-275.75" font-family="Helvetica,sans-Serif" font-size="10.00">Cpl::System::Runnable</text>
</a>
</g>
</g>
<!-- Node11&#45;&gt;Node10 -->
<g id="edge12_Node000010_Node000011" class="edge">
<title>Node11&#45;&gt;Node10</title>
<g id="a_edge12_Node000010_Node000011"><a xlink:title=" ">
<path fill="none" stroke="#63b8ff" d="M759.15,-275.77C802.56,-276.93 857.55,-285.81 893.5,-318.62 914.69,-337.97 890.94,-360.61 911.5,-380.62 914.78,-383.81 918.55,-386.46 922.59,-388.65"/>
<polygon fill="#63b8ff" stroke="#63b8ff" points="759.36,-272.27 749.32,-275.65 759.28,-279.27 759.36,-272.27"/>
</a>
</g>
</g>
<!-- Node12 -->
<g id="Node000012" class="node">
<title>Node12</title>
<g id="a_Node000012"><a xlink:href="class_cpl_1_1_system_1_1_event_flag.html" target="_top" xlink:title="This abstract class defines the interface to generated a &#39;Event Flag&#39;.">
<polygon fill="white" stroke="#666666" points="749.12,-524.25 633.38,-524.25 633.38,-505 749.12,-505 749.12,-524.25"/>
<text text-anchor="middle" x="691.25" y="-510.75" font-family="Helvetica,sans-Serif" font-size="10.00">Cpl::System::EventFlag</text>
</a>
</g>
</g>
<!-- Node12&#45;&gt;Node10 -->
<g id="edge13_Node000010_Node000012" class="edge">
<title>Node12&#45;&gt;Node10</title>
<g id="a_edge13_Node000010_Node000012"><a xlink:title=" ">
<path fill="none" stroke="#63b8ff" d="M760.82,-517.37C801.37,-516.32 852.62,-510.19 893.5,-489.62 931.35,-470.58 961.73,-428.14 974.22,-408.7"/>
<polygon fill="#63b8ff" stroke="#63b8ff" points="760.88,-513.86 750.93,-517.51 760.98,-520.86 760.88,-513.86"/>
</a>
</g>
</g>
<!-- Node13&#45;&gt;Node10 -->
<g id="edge14_Node000010_Node000013" class="edge">
<title>Node13&#45;&gt;Node10</title>
<g id="a_edge14_Node000010_Node000013"><a xlink:title=" ">
<path fill="none" stroke="#63b8ff" d="M440.49,-420.38C539.15,-425.05 731.43,-430.44 893.5,-412.62 903.07,-411.57 913.19,-410.19 923.01,-408.71"/>
<polygon fill="#63b8ff" stroke="#63b8ff" points="440.89,-416.89 430.73,-419.9 440.55,-423.88 440.89,-416.89"/>
</a>
</g>
</g>
<!-- Node18 -->
<g id="Node000018" class="node">
<title>Node18</title>
<g id="a_Node000018"><a xlink:href="class_cpl_1_1_system_1_1_thread.html" target="_top" xlink:title="This abstract class defines the operations that can be performed on a thread.">
<polygon fill="white" stroke="#666666" points="742.38,-363.25 640.12,-363.25 640.12,-344 742.38,-344 742.38,-363.25"/>
<text text-anchor="middle" x="691.25" y="-349.75" font-family="Helvetica,sans-Serif" font-size="10.00">Cpl::System::Thread</text>
</a>
</g>
</g>
<!-- Node13&#45;&gt;Node18 -->
<g id="edge21_Node000018_Node000013" class="edge">
<title>Node13&#45;&gt;Node18</title>
<g id="a_edge21_Node000018_Node000013"><a xlink:title=" ">
<path fill="none" stroke="#63b8ff" d="M440,-407.05C486.48,-399.8 550.37,-389 606,-376.62 622.72,-372.9 641.1,-367.99 656.41,-363.65"/>
<polygon fill="#63b8ff" stroke="#63b8ff" points="439.71,-403.55 430.36,-408.54 440.78,-410.47 439.71,-403.55"/>
</a>
</g>
</g>
<!-- Node20 -->
<g id="Node000020" class="node">
<title>Node20</title>
<g id="a_Node000020"><a xlink:href="class_cpl_1_1_system_1_1_semaphore.html" target="_top" xlink:title="This semaphore class defines the interface for a Counting Semaphore.">
<polygon fill="white" stroke="#666666" points="752.12,-487.25 630.38,-487.25 630.38,-468 752.12,-468 752.12,-487.25"/>
<text text-anchor="middle" x="691.25" y="-473.75" font-family="Helvetica,sans-Serif" font-size="10.00">Cpl::System::Semaphore</text>
</a>
</g>
</g>
<!-- Node13&#45;&gt;Node20 -->
<g id="edge24_Node000020_Node000013" class="edge">
<title>Node13&#45;&gt;Node20</title>
<g id="a_edge24_Node000020_Node000013"><a xlink:title=" ">
<path fill="none" stroke="#63b8ff" d="M407.5,-431.05C426.66,-438.93 451.54,-448.17 474.5,-453.62 526.2,-465.9 586.4,-471.94 630.05,-474.88"/>
<polygon fill="#63b8ff" stroke="#63b8ff" points="408.91,-427.85 398.34,-427.19 406.2,-434.3 408.91,-427.85"/>
</a>
</g>
</g>
<!-- Node14 -->
<g id="Node000014" class="node">
<title>Node14</title>
<g id="a_Node000014"><a xlink:href="class_cpl_1_1_system_1_1_timer_manager.html" target="_top" xlink:title="This mostly concrete class implements manages a list of Software Timers.">
<polygon fill="white" stroke="#666666" points="758.5,-326.25 624,-326.25 624,-307 758.5,-307 758.5,-326.25"/>
<text text-anchor="middle" x="691.25" y="-312.75" font-family="Helvetica,sans-Serif" font-size="10.00">Cpl::System::TimerManager</text>
</a>
</g>
</g>
<!-- Node14&#45;&gt;Node10 -->
<g id="edge16_Node000010_Node000014" class="edge">
<title>Node14&#45;&gt;Node10</title>
<g id="a_edge16_Node000010_Node000014"><a xlink:title=" ">
<path fill="none" stroke="#63b8ff" d="M770.07,-321.45C809.31,-326.71 856.32,-337.53 893.5,-359.62 904.07,-365.91 901.08,-374.11 911.5,-380.62 916.53,-383.77 922.09,-386.37 927.82,-388.52"/>
<polygon fill="#63b8ff" stroke="#63b8ff" points="770.55,-317.98 760.2,-320.23 769.69,-324.93 770.55,-317.98"/>
</a>
</g>
</g>
<!-- Node28 -->
<g id="Node000028" class="node">
<title>Node28</title>
<g id="a_Node000028"><a xlink:href="class_cpl_1_1_system_1_1_timer.html" target="_top" xlink:title="This mostly concrete interface defines the operations that can be performed on a software timer.">
<polygon fill="white" stroke="#666666" points="1531.38,-142.25 1434.38,-142.25 1434.38,-123 1531.38,-123 1531.38,-142.25"/>
<text text-anchor="middle" x="1482.88" y="-128.75" font-family="Helvetica,sans-Serif" font-size="10.00">Cpl::System::Timer</text>
</a>
</g>
</g>
<!-- Node14&#45;&gt;Node28 -->
<g id="edge36_Node000028_Node000014" class="edge">
<title>Node14&#45;&gt;Node28</title>
<g id="a_edge36_Node000028_Node000014"><a xlink:title=" ">
<path fill="none" stroke="#9a32cd" stroke-dasharray="5,2" d="M748.96,-302.78C752.23,-301.5 755.44,-300.12 758.5,-298.62 834.75,-261.52 832.31,-214.94 911.5,-184.62 1094.44,-114.59 1333.59,-121.55 1434.1,-128.48"/>
<polygon fill="#9a32cd" stroke="#9a32cd" points="748.03,-299.39 739.76,-306.02 750.35,-305.99 748.03,-299.39"/>
</a>
</g>
<text text-anchor="middle" x="1105.62" y="-143.38" font-family="Helvetica,sans-Serif" font-size="10.00" fill="grey"> m_timingSource</text>
</g>
<!-- Node15 -->
<g id="Node000015" class="node">
<title>Node15</title>
<g id="a_Node000015"><a xlink:href="class_cpl_1_1_system_1_1_counter_source__.html" target="_top" xlink:title="This abstract class defines the interface for registering for an Counter object with the Timer Manage...">
<polygon fill="white" stroke="#666666" points="444.88,-326.25 302.88,-326.25 302.88,-307 444.88,-307 444.88,-326.25"/>
<text text-anchor="middle" x="373.88" y="-312.75" font-family="Helvetica,sans-Serif" font-size="10.00">Cpl::System::CounterSource_</text>
</a>
</g>
</g>
<!-- Node15&#45;&gt;Node14 -->
<g id="edge17_Node000014_Node000015" class="edge">
<title>Node15&#45;&gt;Node14</title>
<g id="a_edge17_Node000014_Node000015"><a xlink:title=" ">
<path fill="none" stroke="#63b8ff" d="M456.77,-316.62C508.66,-316.62 574.92,-316.62 623.59,-316.62"/>
<polygon fill="#63b8ff" stroke="#63b8ff" points="456.77,-313.13 446.77,-316.63 456.77,-320.13 456.77,-313.13"/>
</a>
</g>
</g>
<!-- Node16 -->
<g id="Node000016" class="node">
<title>Node16</title>
<g id="a_Node000016"><a xlink:href="class_cpl_1_1_container_1_1_d_list.html" target="_top" xlink:title=" ">
<polygon fill="white" stroke="#666666" points="456.5,-380.88 291.25,-380.88 291.25,-350.38 456.5,-350.38 456.5,-380.88"/>
<text text-anchor="start" x="299.25" y="-367.38" font-family="Helvetica,sans-Serif" font-size="10.00">Cpl::Container::DList</text>
<text text-anchor="middle" x="373.88" y="-356.12" font-family="Helvetica,sans-Serif" font-size="10.00">&lt; Cpl::System::CounterCallback_ &gt;</text>
</a>
</g>
</g>
<!-- Node16&#45;&gt;Node14 -->
<g id="edge18_Node000014_Node000016" class="edge">
<title>Node16&#45;&gt;Node14</title>
<g id="a_edge18_Node000014_Node000016"><a xlink:title=" ">
<path fill="none" stroke="#9a32cd" stroke-dasharray="5,2" d="M468.12,-351.82C510.25,-345.5 560.66,-337.83 606,-330.62 613.76,-329.39 621.92,-328.07 629.98,-326.75"/>
<polygon fill="#9a32cd" stroke="#9a32cd" points="467.62,-348.35 458.24,-353.3 468.65,-355.28 467.62,-348.35"/>
</a>
</g>
<text text-anchor="middle" x="540.25" y="-362.62" font-family="Helvetica,sans-Serif" font-size="10.00" fill="grey"> m_counters</text>
<text text-anchor="middle" x="540.25" y="-351.38" font-family="Helvetica,sans-Serif" font-size="10.00" fill="grey">m_pendingAttach</text>
</g>
<!-- Node17 -->
<g id="Node000017" class="node">
<title>Node17</title>
<g id="a_Node000017"><a xlink:href="class_cpl_1_1_container_1_1_d_list.html" target="_top" xlink:title="This template class implements a Doubly linked list which maintains the ordering imposed on it by the...">
<polygon fill="white" stroke="#666666" points="103.75,-440.88 0,-440.88 0,-410.38 103.75,-410.38 103.75,-440.88"/>
<text text-anchor="start" x="8" y="-427.38" font-family="Helvetica,sans-Serif" font-size="10.00">Cpl::Container::DList</text>
<text text-anchor="middle" x="51.88" y="-416.12" font-family="Helvetica,sans-Serif" font-size="10.00">&lt; ITEM &gt;</text>
</a>
</g>
</g>
<!-- Node17&#45;&gt;Node16 -->
<g id="edge19_Node000016_Node000017" class="edge">
<title>Node17&#45;&gt;Node16</title>
<g id="a_edge19_Node000016_Node000017"><a xlink:title=" ">
<path fill="none" stroke="orange" stroke-dasharray="5,2" d="M115.25,-413.93C165.35,-404.54 236.12,-391.27 290.81,-381.01"/>
<polygon fill="orange" stroke="orange" points="114.61,-410.49 105.42,-415.77 115.9,-417.37 114.61,-410.49"/>
</a>
</g>
<text text-anchor="middle" x="197.5" y="-414.38" font-family="Helvetica,sans-Serif" font-size="10.00" fill="grey"> &lt; Cpl::System::CounterCallback_ &gt;</text>
</g>
<!-- Node22 -->
<g id="Node000022" class="node">
<title>Node22</title>
<g id="a_Node000022"><a xlink:href="class_cpl_1_1_container_1_1_d_list.html" target="_top" xlink:title=" ">
<polygon fill="white" stroke="#666666" points="606,-541.88 474.5,-541.88 474.5,-511.38 606,-511.38 606,-541.88"/>
<text text-anchor="start" x="482.5" y="-528.38" font-family="Helvetica,sans-Serif" font-size="10.00">Cpl::Container::DList</text>
<text text-anchor="middle" x="540.25" y="-517.12" font-family="Helvetica,sans-Serif" font-size="10.00">&lt; Cpl::Dm::SubscriberApi &gt;</text>
</a>
</g>
</g>
<!-- Node17&#45;&gt;Node22 -->
<g id="edge27_Node000022_Node000017" class="edge">
<title>Node17&#45;&gt;Node22</title>
<g id="a_edge27_Node000022_Node000017"><a xlink:title=" ">
<path fill="none" stroke="orange" stroke-dasharray="5,2" d="M115.14,-438.56C207.57,-457.75 380.24,-493.61 474.23,-513.12"/>
<polygon fill="orange" stroke="orange" points="115.99,-435.16 105.49,-436.55 114.57,-442.01 115.99,-435.16"/>
</a>
</g>
<text text-anchor="middle" x="197.5" y="-471.38" font-family="Helvetica,sans-Serif" font-size="10.00" fill="grey"> &lt; Cpl::Dm::SubscriberApi &gt;</text>
</g>
<!-- Node18&#45;&gt;Node10 -->
<g id="edge20_Node000010_Node000018" class="edge">
<title>Node18&#45;&gt;Node10</title>
<g id="a_edge20_Node000010_Node000018"><a xlink:title=" ">
<path fill="none" stroke="#9a32cd" stroke-dasharray="5,2" d="M754.23,-361.21C794.1,-366.33 846.96,-373.55 893.5,-381.38 906.09,-383.49 919.64,-386.05 932.22,-388.54"/>
<polygon fill="#9a32cd" stroke="#9a32cd" points="754.69,-357.74 744.33,-359.95 753.81,-364.69 754.69,-357.74"/>
</a>
</g>
<text text-anchor="middle" x="835" y="-382.38" font-family="Helvetica,sans-Serif" font-size="10.00" fill="grey"> m_myThreadPtr</text>
</g>
<!-- Node19 -->
<g id="Node000019" class="node">
<title>Node19</title>
<g id="a_Node000019"><a xlink:href="class_cpl_1_1_system_1_1_shared_event_handler_api.html" target="_top" xlink:title="This abstract class defines the interface for a Shared Event Handler.">
<polygon fill="white" stroke="#666666" points="755.12,-411.88 627.38,-411.88 627.38,-381.38 755.12,-381.38 755.12,-411.88"/>
<text text-anchor="start" x="635.38" y="-398.38" font-family="Helvetica,sans-Serif" font-size="10.00">Cpl::System::SharedEvent</text>
<text text-anchor="middle" x="691.25" y="-387.12" font-family="Helvetica,sans-Serif" font-size="10.00">HandlerApi</text>
</a>
</g>
</g>
<!-- Node19&#45;&gt;Node10 -->
<g id="edge22_Node000010_Node000019" class="edge">
<title>Node19&#45;&gt;Node10</title>
<g id="a_edge22_Node000010_Node000019"><a xlink:title=" ">
<path fill="none" stroke="#9a32cd" stroke-dasharray="5,2" d="M766.8,-397.14C815.05,-397.48 876.97,-397.91 921.71,-398.22"/>
<polygon fill="#9a32cd" stroke="#9a32cd" points="767.02,-393.64 756.99,-397.07 766.97,-400.64 767.02,-393.64"/>
</a>
</g>
<text text-anchor="middle" x="835" y="-399.38" font-family="Helvetica,sans-Serif" font-size="10.00" fill="grey"> m_eventHandler</text>
</g>
<!-- Node20&#45;&gt;Node10 -->
<g id="edge23_Node000010_Node000020" class="edge">
<title>Node20&#45;&gt;Node10</title>
<g id="a_edge23_Node000010_Node000020"><a xlink:title=" ">
<path fill="none" stroke="#9a32cd" stroke-dasharray="5,2" d="M763.72,-476.78C802.99,-474.44 852.01,-468.37 893.5,-453.62 922.77,-443.22 952.38,-421.55 968.35,-408.74"/>
<polygon fill="#9a32cd" stroke="#9a32cd" points="763.71,-473.28 753.9,-477.3 764.07,-480.27 763.71,-473.28"/>
</a>
</g>
<text text-anchor="middle" x="835" y="-476.38" font-family="Helvetica,sans-Serif" font-size="10.00" fill="grey"> m_sema</text>
</g>
<!-- Node21 -->
<g id="Node000021" class="node">
<title>Node21</title>
<g id="a_Node000021"><a xlink:href="class_cpl_1_1_dm_1_1_notification_api__.html" target="_top" xlink:title="This class has PACKAGE Scope, i.e.">
<polygon fill="white" stroke="#666666" points="1042.62,-371.25 920.12,-371.25 920.12,-352 1042.62,-352 1042.62,-371.25"/>
<text text-anchor="middle" x="981.38" y="-357.75" font-family="Helvetica,sans-Serif" font-size="10.00">Cpl::Dm::NotificationApi_</text>
</a>
</g>
</g>
<!-- Node21&#45;&gt;Node9 -->
<g id="edge25_Node000009_Node000021" class="edge">
<title>Node21&#45;&gt;Node9</title>
<g id="a_edge25_Node000009_Node000021"><a xlink:title=" ">
<path fill="none" stroke="#63b8ff" d="M1053.95,-372.18C1095.39,-378.28 1146.52,-385.82 1183.58,-391.28"/>
<polygon fill="#63b8ff" stroke="#63b8ff" points="1054.72,-368.75 1044.31,-370.76 1053.7,-375.68 1054.72,-368.75"/>
</a>
</g>
</g>
<!-- Node22&#45;&gt;Node9 -->
<g id="edge26_Node000009_Node000022" class="edge">
<title>Node22&#45;&gt;Node9</title>
<g id="a_edge26_Node000009_Node000022"><a xlink:title=" ">
<path fill="none" stroke="#9a32cd" stroke-dasharray="5,2" d="M617.71,-533.33C619.83,-533.44 621.93,-533.54 624,-533.62 683.72,-536.15 698.84,-537.37 758.5,-533.62 818.86,-529.84 834.61,-530.39 893.5,-516.62 1015.75,-488.04 1155.55,-431.6 1209.98,-408.67"/>
<polygon fill="#9a32cd" stroke="#9a32cd" points="617.97,-529.84 607.78,-532.74 617.55,-536.82 617.97,-529.84"/>
</a>
</g>
<text text-anchor="middle" x="835" y="-533.38" font-family="Helvetica,sans-Serif" font-size="10.00" fill="grey"> m_pendingMpNotifications</text>
</g>
<!-- Node23&#45;&gt;Node4 -->
<g id="edge28_Node000004_Node000023" class="edge">
<title>Node23&#45;&gt;Node4</title>
<g id="a_edge28_Node000004_Node000023"><a xlink:title=" ">
<path fill="none" stroke="#9a32cd" stroke-dasharray="5,2" d="M1767.47,-163.85C1861.24,-169.08 2047.08,-186.53 2192.5,-244.62 2215.95,-253.99 2239.56,-270.17 2256.64,-283.36"/>
<polygon fill="#9a32cd" stroke="#9a32cd" points="1767.91,-160.37 1757.74,-163.34 1767.54,-167.36 1767.91,-160.37"/>
</a>
</g>
<text text-anchor="middle" x="1966.25" y="-199.38" font-family="Helvetica,sans-Serif" font-size="10.00" fill="grey"> m_context</text>
</g>
<!-- Node24 -->
<g id="Node000024" class="node">
<title>Node24</title>
<g id="a_Node000024"><a xlink:href="class_cpl_1_1_persistent_1_1_record.html" target="_top" xlink:title="This abstract class defines the public interface for a Record instance.">
<polygon fill="white" stroke="#666666" points="1540,-19.25 1425.75,-19.25 1425.75,0 1540,0 1540,-19.25"/>
<text text-anchor="middle" x="1482.88" y="-5.75" font-family="Helvetica,sans-Serif" font-size="10.00">Cpl::Persistent::Record</text>
</a>
</g>
</g>
<!-- Node24&#45;&gt;Node23 -->
<g id="edge29_Node000023_Node000024" class="edge">
<title>Node24&#45;&gt;Node23</title>
<g id="a_edge29_Node000023_Node000024"><a xlink:title=" ">
<path fill="none" stroke="#63b8ff" d="M1550.26,-22.55C1579.47,-30.7 1612.84,-43.6 1638.25,-63.62 1667.11,-86.38 1688.41,-124.87 1698.71,-146.21"/>
<polygon fill="#63b8ff" stroke="#63b8ff" points="1551.31,-19.21 1540.75,-20.04 1549.53,-25.98 1551.31,-19.21"/>
</a>
</g>
</g>
<!-- Node25 -->
<g id="Node000025" class="node">
<title>Node25</title>
<g id="a_Node000025"><a xlink:href="class_cpl_1_1_persistent_1_1_payload.html" target="_top" xlink:title="This abstract class defines the interface accessing the &#39;data payload&#39; of an individual Record instan...">
<polygon fill="white" stroke="#666666" points="1541.88,-228.25 1423.88,-228.25 1423.88,-209 1541.88,-209 1541.88,-228.25"/>
<text text-anchor="middle" x="1482.88" y="-214.75" font-family="Helvetica,sans-Serif" font-size="10.00">Cpl::Persistent::Payload</text>
</a>
</g>
</g>
<!-- Node25&#45;&gt;Node23 -->
<g id="edge30_Node000023_Node000025" class="edge">
<title>Node25&#45;&gt;Node23</title>
<g id="a_edge30_Node000023_Node000025"><a xlink:title=" ">
<path fill="none" stroke="#63b8ff" d="M1539.53,-206.04C1568.97,-199.19 1605.68,-190.36 1638.25,-181.62 1644.38,-179.98 1650.8,-178.18 1657.14,-176.36"/>
<polygon fill="#63b8ff" stroke="#63b8ff" points="1539.05,-202.56 1530.09,-208.22 1540.63,-209.38 1539.05,-202.56"/>
</a>
</g>
</g>
<!-- Node26 -->
<g id="Node000026" class="node">
<title>Node26</title>
<g id="a_Node000026"><a xlink:href="class_cpl_1_1_dm_1_1_persistent_1_1_flush_request.html" target="_top" xlink:title="This abstract class define ITC message type and payload for the application to request flushing the R...">
<polygon fill="white" stroke="#666666" points="1532.12,-190.88 1433.62,-190.88 1433.62,-160.38 1532.12,-160.38 1532.12,-190.88"/>
<text text-anchor="start" x="1441.62" y="-177.38" font-family="Helvetica,sans-Serif" font-size="10.00">Cpl::Dm::Persistent</text>
<text text-anchor="middle" x="1482.88" y="-166.12" font-family="Helvetica,sans-Serif" font-size="10.00">::FlushRequest</text>
</a>
</g>
</g>
<!-- Node26&#45;&gt;Node23 -->
<g id="edge31_Node000023_Node000026" class="edge">
<title>Node26&#45;&gt;Node23</title>
<g id="a_edge31_Node000023_Node000026"><a xlink:title=" ">
<path fill="none" stroke="#63b8ff" d="M1543.74,-171.85C1579.27,-169.6 1623.74,-166.79 1657.07,-164.69"/>
<polygon fill="#63b8ff" stroke="#63b8ff" points="1543.81,-168.33 1534.05,-172.46 1544.25,-175.32 1543.81,-168.33"/>
</a>
</g>
</g>
<!-- Node27 -->
<g id="Node000027" class="node">
<title>Node27</title>
<g id="a_Node000027"><a xlink:href="class_cpl_1_1_dm_1_1_persistent_1_1_erase_request.html" target="_top" xlink:title="This abstract class define ITC message type and payload for the application to request invalidating/c...">
<polygon fill="white" stroke="#666666" points="1532.12,-104.88 1433.62,-104.88 1433.62,-74.38 1532.12,-74.38 1532.12,-104.88"/>
<text text-anchor="start" x="1441.62" y="-91.38" font-family="Helvetica,sans-Serif" font-size="10.00">Cpl::Dm::Persistent</text>
<text text-anchor="middle" x="1482.88" y="-80.12" font-family="Helvetica,sans-Serif" font-size="10.00">::EraseRequest</text>
</a>
</g>
</g>
<!-- Node27&#45;&gt;Node23 -->
<g id="edge32_Node000023_Node000027" class="edge">
<title>Node27&#45;&gt;Node23</title>
<g id="a_edge32_Node000023_Node000027"><a xlink:title=" ">
<path fill="none" stroke="#63b8ff" d="M1543.23,-108.81C1571.94,-118.1 1606.89,-129.43 1638.25,-139.62 1644.57,-141.68 1651.22,-143.85 1657.78,-145.99"/>
<polygon fill="#63b8ff" stroke="#63b8ff" points="1544.59,-105.57 1533.99,-105.82 1542.43,-112.23 1544.59,-105.57"/>
</a>
</g>
</g>
<!-- Node28&#45;&gt;Node23 -->
<g id="edge33_Node000023_Node000028" class="edge">
<title>Node28&#45;&gt;Node23</title>
<g id="a_edge33_Node000023_Node000028"><a xlink:title=" ">
<path fill="none" stroke="#63b8ff" d="M1542.95,-140.35C1578.62,-145.02 1623.52,-150.89 1657.1,-155.28"/>
<polygon fill="#63b8ff" stroke="#63b8ff" points="1543.59,-136.9 1533.22,-139.08 1542.68,-143.85 1543.59,-136.9"/>
</a>
</g>
</g>
<!-- Node29&#45;&gt;Node28 -->
<g id="edge34_Node000028_Node000029" class="edge">
<title>Node29&#45;&gt;Node28</title>
<g id="a_edge34_Node000028_Node000029"><a xlink:title=" ">
<path fill="none" stroke="#63b8ff" d="M1289.32,-177.93C1334.28,-167.35 1397.46,-152.49 1439.02,-142.71"/>
<polygon fill="#63b8ff" stroke="#63b8ff" points="1288.72,-174.48 1279.79,-180.18 1290.32,-181.29 1288.72,-174.48"/>
</a>
</g>
</g>
<!-- Node30 -->
<g id="Node000030" class="node">
<title>Node30</title>
<g id="a_Node000030"><a xlink:href="class_cpl_1_1_persistent_1_1_chunk.html" target="_top" xlink:title="This abstract class defines the interface for a Chunk.">
<polygon fill="white" stroke="#666666" points="1538.5,-56.25 1427.25,-56.25 1427.25,-37 1538.5,-37 1538.5,-56.25"/>
<text text-anchor="middle" x="1482.88" y="-42.75" font-family="Helvetica,sans-Serif" font-size="10.00">Cpl::Persistent::Chunk</text>
</a>
</g>
</g>
<!-- Node30&#45;&gt;Node23 -->
<g id="edge38_Node000023_Node000030" class="edge">
<title>Node30&#45;&gt;Node23</title>
<g id="a_edge38_Node000023_Node000030"><a xlink:title=" ">
<path fill="none" stroke="#9a32cd" stroke-dasharray="5,2" d="M1539.22,-59.75C1569.81,-68.48 1607.69,-81.79 1638.25,-100.38 1658.91,-112.94 1678.94,-132.37 1691.72,-145.96"/>
<polygon fill="#9a32cd" stroke="#9a32cd" points="1540.34,-56.43 1529.76,-57.14 1538.47,-63.18 1540.34,-56.43"/>
</a>
</g>
<text text-anchor="middle" x="1600.38" y="-101.38" font-family="Helvetica,sans-Serif" font-size="10.00" fill="grey"> m_chunkHandler</text>
</g>
<!-- Node31&#45;&gt;Node4 -->
<g id="edge40_Node000004_Node000031" class="edge">
<title>Node31&#45;&gt;Node4</title>
<g id="a_edge40_Node000004_Node000031"><a xlink:title=" ">
<path fill="none" stroke="orange" stroke-dasharray="5,2" d="M2050.5,-383.35C2093.79,-379.72 2147.01,-372.17 2192.5,-356.62 2213.76,-349.36 2235.59,-336.79 2252.37,-325.83"/>
<polygon fill="orange" stroke="orange" points="2050.36,-379.86 2040.66,-384.12 2050.9,-386.83 2050.36,-379.86"/>
</a>
</g>
<text text-anchor="start" x="2056.75" y="-394.62" font-family="Helvetica,sans-Serif" font-size="10.00" fill="grey"> &lt; Cpl::Dm::Persistent</text>
<text text-anchor="middle" x="2124.62" y="-383.38" font-family="Helvetica,sans-Serif" font-size="10.00" fill="grey">::Record, Cpl::Dm::ModelPoint &gt;</text>
</g>
<!-- Node32&#45;&gt;Node31 -->
<g id="edge41_Node000031_Node000032" class="edge">
<title>Node32&#45;&gt;Node31</title>
<g id="a_edge41_Node000031_Node000032"><a xlink:title=" ">
<path fill="none" stroke="#63b8ff" d="M1768.54,-386.62C1805.94,-386.62 1854.04,-386.62 1893.32,-386.62"/>
<polygon fill="#63b8ff" stroke="#63b8ff" points="1768.81,-383.13 1758.81,-386.63 1768.81,-390.13 1768.81,-383.13"/>
</a>
</g>
</g>
</g>
</svg>
