<?xml version="1.0" encoding="UTF-8" standalone="no"?>
<!DOCTYPE svg PUBLIC "-//W3C//DTD SVG 1.1//EN"
 "http://www.w3.org/Graphics/SVG/1.1/DTD/svg11.dtd">
<!-- Generated by graphviz version 9.0.0 (20230911.1827)
 -->
<!-- Title: xSTATIC_QUEUE Pages: 1 -->
<svg width="146pt" height="160pt"
 viewBox="0.00 0.00 146.25 160.25" xmlns="http://www.w3.org/2000/svg" xmlns:xlink="http://www.w3.org/1999/xlink">
<g id="graph0" class="graph" transform="scale(1 1) rotate(0) translate(4 156.25)">
<title>xSTATIC_QUEUE</title>
<!-- Node1 -->
<g id="Node000001" class="node">
<title>Node1</title>
<g id="a_Node000001"><a xlink:title=" ">
<polygon fill="#999999" stroke="#666666" points="116.88,-19.25 21.38,-19.25 21.38,0 116.88,0 116.88,-19.25"/>
<text text-anchor="middle" x="69.12" y="-5.75" font-family="Helvetica,sans-Serif" font-size="10.00">xSTATIC_QUEUE</text>
</a>
</g>
</g>
<!-- Node2 -->
<g id="Node000002" class="node">
<title>Node2</title>
<g id="a_Node000002"><a xlink:href="structx_s_t_a_t_i_c___l_i_s_t.html" target="_top" xlink:title=" ">
<polygon fill="white" stroke="#bfbfbf" points="110.5,-85.75 27.75,-85.75 27.75,-66.5 110.5,-66.5 110.5,-85.75"/>
<text text-anchor="middle" x="69.12" y="-72.25" font-family="Helvetica,sans-Serif" font-size="10.00">xSTATIC_LIST</text>
</a>
</g>
</g>
<!-- Node2&#45;&gt;Node1 -->
<g id="edge1_Node000001_Node000002" class="edge">
<title>Node2&#45;&gt;Node1</title>
<g id="a_edge1_Node000001_Node000002"><a xlink:title=" ">
<path fill="none" stroke="#9a32cd" stroke-dasharray="5,2" d="M69.12,-54.65C69.12,-42.82 69.12,-28.54 69.12,-19.52"/>
<polygon fill="#9a32cd" stroke="#9a32cd" points="65.63,-54.64 69.13,-64.64 72.63,-54.64 65.63,-54.64"/>
</a>
</g>
<text text-anchor="middle" x="91.62" y="-39" font-family="Helvetica,sans-Serif" font-size="10.00" fill="grey"> xDummy3</text>
</g>
<!-- Node3 -->
<g id="Node000003" class="node">
<title>Node3</title>
<g id="a_Node000003"><a xlink:href="structx_s_t_a_t_i_c___m_i_n_i___l_i_s_t___i_t_e_m.html" target="_top" xlink:title=" ">
<polygon fill="white" stroke="#bfbfbf" points="138.25,-152.25 0,-152.25 0,-133 138.25,-133 138.25,-152.25"/>
<text text-anchor="middle" x="69.12" y="-138.75" font-family="Helvetica,sans-Serif" font-size="10.00">xSTATIC_MINI_LIST_ITEM</text>
</a>
</g>
</g>
<!-- Node3&#45;&gt;Node2 -->
<g id="edge2_Node000002_Node000003" class="edge">
<title>Node3&#45;&gt;Node2</title>
<g id="a_edge2_Node000002_Node000003"><a xlink:title=" ">
<path fill="none" stroke="#9a32cd" stroke-dasharray="5,2" d="M69.12,-121.15C69.12,-109.32 69.12,-95.04 69.12,-86.02"/>
<polygon fill="#9a32cd" stroke="#9a32cd" points="65.63,-121.14 69.13,-131.14 72.63,-121.14 65.63,-121.14"/>
</a>
</g>
<text text-anchor="middle" x="91.62" y="-105.5" font-family="Helvetica,sans-Serif" font-size="10.00" fill="grey"> xDummy3</text>
</g>
</g>
</svg>
