<?xml version="1.0" encoding="UTF-8" standalone="no"?>
<!DOCTYPE svg PUBLIC "-//W3C//DTD SVG 1.1//EN"
 "http://www.w3.org/Graphics/SVG/1.1/DTD/svg11.dtd">
<!-- Generated by graphviz version 9.0.0 (20230911.1827)
 -->
<!-- Title: SEGGER_PRINTF_FORMATTER Pages: 1 -->
<svg width="217pt" height="94pt"
 viewBox="0.00 0.00 216.75 93.75" xmlns="http://www.w3.org/2000/svg" xmlns:xlink="http://www.w3.org/1999/xlink">
<g id="graph0" class="graph" transform="scale(1 1) rotate(0) translate(4 89.75)">
<title>SEGGER_PRINTF_FORMATTER</title>
<!-- Node1 -->
<g id="Node000001" class="node">
<title>Node1</title>
<g id="a_Node000001"><a xlink:title=" ">
<polygon fill="#999999" stroke="#666666" points="163,-19.25 0,-19.25 0,0 163,0 163,-19.25"/>
<text text-anchor="middle" x="81.5" y="-5.75" font-family="Helvetica,sans-Serif" font-size="10.00">SEGGER_PRINTF_FORMATTER</text>
</a>
</g>
</g>
<!-- Node1&#45;&gt;Node1 -->
<g id="edge1_Node000001_Node000001" class="edge">
<title>Node1&#45;&gt;Node1</title>
<g id="a_edge1_Node000001_Node000001"><a xlink:title=" ">
<path fill="none" stroke="#9a32cd" stroke-dasharray="5,2" d="M174.66,-13.42C178.67,-12.45 181,-11.18 181,-9.62 181,-6.93 174.03,-5.11 163.47,-4.16"/>
<polygon fill="#9a32cd" stroke="#9a32cd" points="174.35,-9.93 164.97,-14.87 175.38,-16.86 174.35,-9.93"/>
</a>
</g>
<text text-anchor="middle" x="194.88" y="-5.75" font-family="Helvetica,sans-Serif" font-size="10.00" fill="grey"> pNext</text>
</g>
<!-- Node2 -->
<g id="Node000002" class="node">
<title>Node2</title>
<g id="a_Node000002"><a xlink:href="struct_s_e_g_g_e_r___b_u_f_f_e_r___d_e_s_c.html" target="_top" xlink:title=" ">
<polygon fill="white" stroke="#bfbfbf" points="147.62,-85.75 15.38,-85.75 15.38,-66.5 147.62,-66.5 147.62,-85.75"/>
<text text-anchor="middle" x="81.5" y="-72.25" font-family="Helvetica,sans-Serif" font-size="10.00">SEGGER_BUFFER_DESC</text>
</a>
</g>
</g>
<!-- Node2&#45;&gt;Node1 -->
<g id="edge2_Node000001_Node000002" class="edge">
<title>Node2&#45;&gt;Node1</title>
<g id="a_edge2_Node000001_Node000002"><a xlink:title=" ">
<path fill="none" stroke="#9a32cd" stroke-dasharray="5,2" d="M81.5,-54.65C81.5,-42.82 81.5,-28.54 81.5,-19.52"/>
<polygon fill="#9a32cd" stroke="#9a32cd" points="78,-54.64 81.5,-64.64 85,-54.64 78,-54.64"/>
</a>
</g>
<text text-anchor="middle" x="107.75" y="-39" font-family="Helvetica,sans-Serif" font-size="10.00" fill="grey"> pfFormatter</text>
</g>
</g>
</svg>
